<svg width="25" height="36" viewBox="0 0 25 36" fill="none" xmlns="http://www.w3.org/2000/svg">
<g clip-path="url(#clip0_1_7331)">
<path d="M6.63802 1.85256L6.63177 1.83381C6.60111 1.75806 6.55318 1.69555 6.48799 1.64627L6.43798 1.60877C6.378 1.56428 6.31132 1.5351 6.23794 1.52125L6.15042 1.50875C6.11955 1.50175 6.08829 1.49759 6.05666 1.49625H5.95039C5.92315 1.49634 5.89606 1.49842 5.86912 1.5025L5.7441 1.52125C5.69889 1.52869 5.65513 1.54119 5.61282 1.55876L5.46905 1.61502C5.44107 1.6256 5.41398 1.6381 5.38778 1.65253L5.2315 1.74629C5.20769 1.75948 5.18477 1.77407 5.16274 1.79005L4.9877 1.91508C4.94602 1.94841 4.90851 1.98591 4.87518 2.0276L4.6939 2.22764C4.6573 2.27208 4.62605 2.32001 4.60013 2.37141L4.4376 2.68397C4.4053 2.74138 4.3803 2.80181 4.36258 2.86526L4.25006 3.31534C4.24036 3.35861 4.23411 3.40237 4.23131 3.44662L4.1813 4.02173C4.17726 4.05494 4.17518 4.08828 4.17505 4.12175L4.1938 4.77812C4.19461 4.80531 4.1967 4.8324 4.20005 4.85939L4.28757 5.58452C4.28938 5.59707 4.29147 5.60957 4.29382 5.62203L4.41885 6.39093C4.42074 6.40138 4.42283 6.4118 4.4251 6.42218L4.58763 7.22859C4.58756 7.23484 4.58756 7.24109 4.58763 7.24734L4.78141 8.09125C4.78338 8.09962 4.78547 8.10795 4.78767 8.11626L5.00646 9.00393C5.01044 9.01442 5.01461 9.02484 5.01896 9.03518L5.29401 9.97911C5.29396 9.98536 5.29396 9.99161 5.29401 9.99787L5.60032 10.9856C5.60769 11.0109 5.61602 11.0359 5.62532 11.0606L6.0254 12.0545C6.0314 12.0671 6.03765 12.0796 6.04415 12.092L6.46298 13.0234C6.47088 13.0403 6.47921 13.057 6.48799 13.0735L6.91932 13.9174C6.92342 13.9237 6.92759 13.9299 6.93182 13.9361L7.38816 14.7675C7.38815 14.7696 7.38815 14.7717 7.38816 14.7738L7.8695 15.6364C7.8736 15.6427 7.87777 15.649 7.882 15.6552L8.3946 16.5366C8.40068 16.5471 8.40693 16.5576 8.41336 16.5679L8.95721 17.4243C8.96529 17.437 8.97362 17.4495 8.98221 17.4618L9.53857 18.2619C9.54863 18.2768 9.55905 18.2914 9.56983 18.3057L10.1324 19.0371C10.1366 19.0413 10.1407 19.0455 10.1449 19.0496L10.6763 19.7185C10.6824 19.7269 10.6887 19.7352 10.695 19.7435L11.2264 20.3748C11.2367 20.3834 11.2471 20.3917 11.2576 20.3998L11.8078 21.0062C11.8198 21.0232 11.8323 21.0399 11.8453 21.0562L12.4266 21.6251C12.4467 21.6446 12.4676 21.6634 12.4891 21.6813L13.1143 22.2064C13.1384 22.2263 13.1635 22.245 13.1893 22.2627L13.8581 22.7378C13.8904 22.7604 13.9237 22.7813 13.9582 22.8003L14.6708 23.1941C14.6993 23.21 14.7285 23.2246 14.7583 23.2379L15.4772 23.5629C15.5079 23.5769 15.5391 23.5894 15.571 23.6005L16.3024 23.8568C16.3373 23.869 16.3727 23.8794 16.4086 23.888L17.1525 24.063C17.2121 24.0785 17.2725 24.089 17.3338 24.0943L18.0839 24.1443C18.1508 24.1484 18.2175 24.1463 18.284 24.1381L19.0091 24.0568C19.1018 24.0457 19.1914 24.0228 19.2779 23.988L19.928 23.7317C20.029 23.6907 20.1207 23.6344 20.2031 23.5629L20.6969 23.1504C20.7601 23.0957 20.8143 23.0332 20.8595 22.9628L21.2033 22.4377C21.2629 22.346 21.3004 22.246 21.3158 22.1377L21.4033 21.5376C21.4105 21.4961 21.4126 21.4545 21.4096 21.4125L21.3596 20.9124L21.4408 20.4811C21.4739 20.2937 21.3968 20.1834 21.2095 20.1501C21.0221 20.1168 20.9117 20.1938 20.8782 20.3811L20.8095 20.7687L20.5219 21.0937L20.1281 21.4438L19.7405 21.7063L19.3154 21.8564L18.7716 21.9564L18.2027 21.9751L17.6026 21.9064L16.9837 21.7564L16.3399 21.5313L15.7022 21.2438L15.0709 20.8999L14.4833 20.4936L13.9269 20.031L13.4018 19.5184L12.8892 18.9496L12.3766 18.3432L11.8515 17.6868L11.3077 16.9992L10.7826 16.2428L10.2575 15.4114L9.73861 14.555L9.23851 13.7173L8.78218 12.9234L8.36335 12.1233L7.94452 11.2356L7.53194 10.2917L7.17562 9.36649L6.87556 8.46632L6.60051 7.60366L6.36297 6.80351L6.16918 6.05336L6.03165 5.32823L5.92538 4.65935L5.88787 4.08424L5.90663 3.60915L5.96914 3.21532L6.0254 2.94027L6.08166 2.78399L6.13792 2.67772L6.20043 2.5902L6.2567 2.52144L6.28795 2.49644L6.33796 2.45893C6.34004 2.45894 6.34213 2.45894 6.34421 2.45893L6.41923 2.40892C6.42557 2.4049 6.43182 2.40073 6.43798 2.39642L6.48799 2.35891C6.55318 2.30963 6.60111 2.24712 6.63177 2.17137L6.63802 2.15262C6.67923 2.0526 6.67923 1.95258 6.63802 1.85256Z" fill="black"/>
<path d="M5.11907 2.92145C5.11907 3.03366 5.15874 3.12943 5.23808 3.20877C5.31742 3.28811 5.41319 3.32778 5.52539 3.32778C5.6376 3.32778 5.73337 3.28811 5.81271 3.20877C5.89205 3.12943 5.93172 3.03366 5.93172 2.92145C5.93172 2.80925 5.89205 2.71348 5.81271 2.63414C5.73337 2.5548 5.6376 2.51513 5.52539 2.51513C5.41319 2.51513 5.31742 2.5548 5.23808 2.63414C5.15874 2.71348 5.11907 2.80925 5.11907 2.92145ZM5.09406 2.92145C5.09406 3.03884 5.13556 3.13903 5.21857 3.22203C5.30157 3.30503 5.40176 3.34653 5.51914 3.34653C5.63653 3.34653 5.73672 3.30503 5.81972 3.22203C5.90272 3.13903 5.94422 3.03884 5.94422 2.92145C5.94422 2.80407 5.90272 2.70388 5.81972 2.62088C5.73672 2.53787 5.63653 2.49637 5.51914 2.49637C5.40176 2.49637 5.30157 2.53787 5.21857 2.62088C5.13556 2.70388 5.09406 2.80407 5.09406 2.92145ZM5.03155 2.9152C5.03161 3.04462 5.07741 3.15508 5.16895 3.24657C5.26049 3.33807 5.37097 3.38381 5.50039 3.38381C5.62981 3.38381 5.74029 3.33807 5.83183 3.24657C5.92337 3.15508 5.96917 3.04462 5.96923 2.9152C5.96917 2.78578 5.92337 2.67532 5.83183 2.58383C5.74029 2.49234 5.62981 2.44659 5.50039 2.44659C5.37097 2.44659 5.26049 2.49234 5.16895 2.58383C5.07741 2.67532 5.03161 2.78578 5.03155 2.9152ZM4.94403 2.88395C4.94403 3.03067 4.99591 3.15592 5.09966 3.25967C5.20342 3.36342 5.32866 3.4153 5.47538 3.4153C5.62211 3.4153 5.74735 3.36342 5.85111 3.25967C5.95486 3.15592 6.00674 3.03067 6.00674 2.88395C6.00674 2.73722 5.95486 2.61198 5.85111 2.50822C5.74735 2.40447 5.62211 2.3526 5.47538 2.3526C5.32866 2.3526 5.20342 2.40447 5.09966 2.50822C4.99591 2.61198 4.94403 2.73722 4.94403 2.88395ZM6.00048 3.05898L6.04424 2.96521C6.05731 2.9327 6.06773 2.89936 6.0755 2.86519L6.09425 2.80893L6.08175 2.82769L6.10676 2.80893L6.26929 2.71516L6.57559 2.59639L6.95067 2.49012L7.37575 2.4026L7.77582 2.38385L8.20716 2.44636L8.70725 2.54638C8.75683 2.55568 8.80684 2.55985 8.85728 2.55888L9.2261 2.55263L9.46364 2.62765L9.63868 2.80268C9.7702 2.89366 9.89251 2.88261 10.0056 2.76952C10.1187 2.65644 10.1297 2.53413 10.0388 2.4026L9.84497 2.20882L9.69494 1.90876L9.52616 1.52119C9.46539 1.38427 9.37163 1.27592 9.24485 1.19613L8.80102 0.914822C8.69574 0.847502 8.58113 0.805827 8.4572 0.789798L7.9196 0.721035C7.85525 0.711367 7.79065 0.709284 7.72581 0.714784L7.18821 0.777295C7.14605 0.78032 7.10438 0.786571 7.06319 0.796049L6.55684 0.933575C6.53354 0.940861 6.51062 0.949196 6.48808 0.95858L6.05049 1.12111C6.02718 1.12837 6.00426 1.13671 5.98173 1.14612L5.60666 1.3274C5.56017 1.35007 5.51641 1.37716 5.47538 1.40867L5.21909 1.5962C5.14001 1.6563 5.07541 1.72923 5.0253 1.81499L4.90653 2.01503C4.87366 2.07 4.84865 2.12835 4.83151 2.19006L4.78775 2.3651C4.7647 2.44485 4.75637 2.52612 4.76275 2.60889L4.77525 2.75892C4.78741 2.87863 4.82909 2.98698 4.90028 3.08398L4.96279 3.1715C5.02698 3.25732 5.10821 3.32161 5.20649 3.36436C5.30476 3.4071 5.40718 3.4227 5.51372 3.41115C5.62027 3.3996 5.71696 3.36241 5.80379 3.29959C5.89062 3.23677 5.95618 3.15657 6.00048 3.05898Z" fill="black"/>
<path d="M12.7705 11.0293L12.8143 11.0168C12.8452 11.0058 12.8744 10.9912 12.9018 10.973L13.0205 10.898C13.0312 10.8922 13.0417 10.8859 13.0518 10.8792L13.2768 10.7042L13.6332 10.4354C13.6374 10.4334 13.6415 10.4313 13.6457 10.4291L14.1083 10.0541C14.1103 10.0541 14.1124 10.0541 14.1145 10.0541L15.2772 9.08514L15.9336 8.53503L16.59 7.98493L17.2213 7.45983L17.8277 6.95973L18.3966 6.50965L18.9279 6.10957L19.3905 5.77201L19.8031 5.4782L20.1719 5.2094C20.174 5.20734 20.1761 5.20525 20.1782 5.20315L20.5032 4.95935C20.514 4.95151 20.5245 4.94318 20.5345 4.93435L20.7908 4.70305L20.9908 4.51552C20.9973 4.50947 21.0035 4.50322 21.0096 4.49676L21.1471 4.35299C21.2255 4.27441 21.2646 4.17964 21.2646 4.06866C21.2645 3.95768 21.2252 3.86296 21.1467 3.78448C21.0683 3.70601 20.9735 3.66674 20.8626 3.66667C20.7516 3.6666 20.6568 3.70575 20.5782 3.78413L20.4345 3.92165L20.2469 4.09669L19.9969 4.29673L19.6781 4.53427L19.3155 4.80307L18.9029 5.09688L18.4341 5.42819C18.432 5.43025 18.4299 5.43234 18.4278 5.43444L17.8902 5.82827C17.886 5.83028 17.8819 5.83237 17.8777 5.83452L17.2964 6.29085C17.2943 6.29292 17.2922 6.295 17.2901 6.29711L16.6775 6.7972C16.6754 6.79719 16.6733 6.79719 16.6712 6.7972L16.0399 7.3223L15.3835 7.87241L14.7271 8.42251L13.5644 9.39145L13.1143 9.77277L12.7705 10.0541C12.7684 10.0541 12.7663 10.0541 12.7643 10.0541L12.5517 10.2354L12.4454 10.3104C12.4223 10.3289 12.4014 10.3497 12.3829 10.3729L12.3517 10.4041C12.2299 10.5546 12.2229 10.7103 12.3306 10.8711C12.4384 11.0319 12.585 11.0847 12.7705 11.0293ZM21.1471 4.14045L21.1846 4.09044C21.2888 3.94874 21.27 3.8258 21.1283 3.72162C20.9866 3.61743 20.8637 3.63618 20.7595 3.77788L20.722 3.82789C20.6178 3.96958 20.6366 4.09252 20.7783 4.19671C20.92 4.30089 21.0429 4.28214 21.1471 4.14045Z" fill="black"/>
<path d="M13.5832 12.5733C13.5832 12.6786 13.6204 12.7685 13.6948 12.843C13.7693 12.9174 13.8592 12.9547 13.9645 12.9547C14.0698 12.9547 14.1597 12.9174 14.2341 12.843C14.3086 12.7685 14.3458 12.6786 14.3458 12.5733C14.3458 12.468 14.3086 12.3782 14.2341 12.3037C14.1597 12.2293 14.0698 12.192 13.9645 12.192C13.8592 12.192 13.7693 12.2293 13.6948 12.3037C13.6204 12.3782 13.5832 12.468 13.5832 12.5733ZM13.6644 12.3108L13.5769 12.4108C13.5655 12.4247 13.5551 12.4393 13.5457 12.4546L13.5081 12.5046C13.506 12.5087 13.5039 12.5129 13.5019 12.5171L13.4644 12.5733C13.4092 12.6735 13.3974 12.7785 13.4291 12.8883C13.4609 12.9982 13.5268 13.0807 13.6269 13.136C13.727 13.1912 13.832 13.2029 13.9419 13.1712C14.0517 13.1395 14.1343 13.0735 14.1895 12.9734L14.2145 12.9234L14.2333 12.8984L14.2958 12.7921C14.4141 12.5887 14.3796 12.4156 14.1925 12.2729C14.0053 12.1302 13.8293 12.1429 13.6644 12.3108ZM13.7082 13.2735L13.7207 13.2797C13.873 13.3089 14.0085 13.2735 14.127 13.1735L14.2333 13.0859C14.2464 13.0741 14.2589 13.0616 14.2708 13.0484L14.4583 12.8609C14.4583 12.8588 14.4583 12.8567 14.4583 12.8547L14.7334 12.5671L15.1085 12.1795L15.5648 11.7107L16.0899 11.1793C16.092 11.1773 16.0941 11.1752 16.0961 11.1731L16.64 10.6105L17.2214 10.0416L17.809 9.454C17.8153 9.44997 17.8216 9.4458 17.8277 9.4415L18.8842 8.30378C18.8863 8.30378 18.8883 8.30378 18.8904 8.30378L19.3343 7.81619L19.7406 7.40361C19.7406 7.40153 19.7406 7.39945 19.7406 7.39736L20.0969 7.02854L20.4157 6.70348L20.6908 6.41592C20.6929 6.41386 20.695 6.41178 20.697 6.40967L20.9346 6.15963C20.9749 6.1161 21.004 6.06609 21.0221 6.0096L21.0721 5.85332L21.1596 5.7783C21.2593 5.66059 21.2583 5.54369 21.1567 5.42762C21.0552 5.31154 20.9394 5.29508 20.8095 5.37823L20.7158 5.45949L20.5532 5.49075C20.4898 5.50616 20.4336 5.53533 20.3845 5.57827L20.1219 5.80331C20.1111 5.81114 20.1007 5.81948 20.0907 5.82831L19.8093 6.10962C19.8051 6.1137 19.8009 6.11787 19.7968 6.12212L19.4905 6.45968L19.1467 6.83475L18.7529 7.24733L18.2841 7.69117L17.1151 8.70386C17.1087 8.70995 17.1024 8.7162 17.0963 8.72261L16.5025 9.30397C16.5004 9.30397 16.4983 9.30397 16.4962 9.30397L15.9086 9.87908C15.9065 9.88322 15.9044 9.88739 15.9024 9.89159L15.3522 10.4542L14.8271 10.9855L14.3708 11.4544C14.3687 11.4564 14.3666 11.4585 14.3646 11.4606L13.9895 11.8607L13.7144 12.1608C13.7124 12.1608 13.7103 12.1608 13.7082 12.1608L13.5332 12.3608C13.5198 12.3747 13.5073 12.3893 13.4956 12.4046L13.4206 12.5108C13.3022 12.6739 13.2897 12.8448 13.3831 13.0234L13.3894 13.0359C13.458 13.1657 13.5642 13.2449 13.7082 13.2735Z" fill="black"/>
<path d="M20.8157 5.25316H20.797C20.7674 5.25418 20.7382 5.25835 20.7095 5.26566L20.6782 5.27191C20.6458 5.27897 20.6146 5.28939 20.5845 5.30317L20.5344 5.32818C20.4966 5.34483 20.4611 5.36566 20.4282 5.39069L20.3719 5.4407C20.2303 5.55489 20.1553 5.70283 20.1469 5.88453L20.1406 6.03456C20.1355 6.17802 20.173 6.3093 20.2531 6.42838L20.3594 6.58466C20.4125 6.66332 20.4792 6.72791 20.5594 6.77845L20.7657 6.90973C20.8424 6.95971 20.9258 6.99305 21.0158 7.00975L21.2971 7.05975C21.3635 7.07156 21.4301 7.07364 21.4971 7.06601L21.8222 7.02225C21.8668 7.01815 21.9105 7.00981 21.9535 6.99724L22.2973 6.88472C22.3339 6.87305 22.3693 6.85847 22.4035 6.84096L22.7349 6.67218C22.7631 6.65736 22.7902 6.64069 22.8161 6.62217L23.1349 6.40338C23.1614 6.38427 23.1864 6.36344 23.21 6.34087L23.51 6.06582C23.5369 6.04268 23.5619 6.01767 23.585 5.9908L23.8476 5.66574C23.8736 5.63232 23.8965 5.5969 23.9163 5.55947L24.1289 5.17815C24.149 5.14003 24.1657 5.10044 24.1789 5.05937L24.3164 4.64054C24.3312 4.5957 24.3417 4.54986 24.3477 4.50302L24.4039 4.08419C24.4136 4.01543 24.4136 3.94666 24.4039 3.8779L24.3352 3.45282C24.3267 3.39699 24.3121 3.34282 24.2914 3.29029L24.1351 2.89021C24.1107 2.83209 24.0794 2.77792 24.0414 2.72768L23.7976 2.39637C23.768 2.35553 23.7346 2.31802 23.6975 2.28385L23.4225 2.02755C23.3716 1.98027 23.3154 1.94068 23.2537 1.90877L22.9474 1.75249C22.8859 1.72078 22.8213 1.69786 22.7536 1.68373L22.4411 1.62122C22.369 1.60445 22.2961 1.59819 22.2223 1.60247L21.9035 1.63372C21.8327 1.63879 21.7639 1.65337 21.6972 1.67748L21.3784 1.79625C21.3393 1.81193 21.3018 1.83068 21.2658 1.85251L20.972 2.0213C20.9392 2.03984 20.908 2.06067 20.8783 2.08381L20.6157 2.2901C20.5844 2.31491 20.5553 2.342 20.5282 2.37136L20.3219 2.59641C20.2971 2.6219 20.2742 2.64899 20.2531 2.67767L20.1094 2.88396C20.0931 2.91016 20.0785 2.93725 20.0656 2.96523L19.9718 3.14026C19.9605 3.16062 19.95 3.18146 19.9406 3.20277L19.8843 3.3403C19.8751 3.36077 19.8667 3.3816 19.8593 3.40281L19.8281 3.49658C19.828 3.50074 19.828 3.50491 19.8281 3.50908L19.8218 3.52783V3.53408C19.8734 3.47592 19.9151 3.41132 19.9468 3.3403L19.9281 3.35905C19.9903 3.46079 20.072 3.54321 20.1732 3.6063C20.2744 3.66939 20.3844 3.70647 20.5031 3.71755C20.6219 3.72862 20.7368 3.71252 20.8479 3.66923C20.9591 3.62594 21.0546 3.56005 21.1346 3.47157L21.1283 3.45907C21.0699 3.67187 21.0991 3.87191 21.2158 4.05918L21.2283 4.02168C21.1959 4.07685 21.1709 4.13519 21.1533 4.19671L21.1783 4.15295L21.2221 4.09044L21.3533 3.97167L21.5596 3.80914L21.7909 3.68411L21.9785 3.6341L22.2473 3.65286C22.3667 3.66383 22.4813 3.64507 22.5911 3.5966L22.7661 3.52158C22.6785 3.40077 22.5659 3.36952 22.4286 3.42781L22.6849 3.79038C22.7978 3.90273 22.9188 3.91227 23.0479 3.819C23.1771 3.72574 23.2061 3.60784 23.1349 3.46532L22.9599 3.21527L22.9724 3.15901C23.0227 2.98352 23.0063 2.8145 22.9233 2.65194C22.8402 2.48939 22.7128 2.37711 22.5411 2.3151L22.1598 2.17758C22.0185 2.12561 21.8747 2.11727 21.7284 2.15257L21.3221 2.25259C21.2655 2.2671 21.2113 2.28793 21.1596 2.3151L20.797 2.50264C20.7551 2.52395 20.7155 2.54895 20.6782 2.57765L20.3969 2.79644C20.3752 2.81201 20.3544 2.82868 20.3344 2.84645L20.1344 3.04024C20.105 3.06727 20.0779 3.09644 20.0531 3.12776L19.9406 3.27778C19.9222 3.30382 19.9055 3.33091 19.8906 3.35905L19.8406 3.44657C19.8214 3.47867 19.8047 3.51201 19.7906 3.54659L19.778 3.58409C19.7115 3.75414 19.7071 3.92578 19.7648 4.09902C19.8226 4.27226 19.9291 4.40692 20.0844 4.50302L20.0969 4.50927C20.4171 4.70574 20.7172 4.67865 20.997 4.428L21.0158 4.40925C21.0792 4.35144 21.1313 4.28476 21.1721 4.20921L21.2033 4.1592C21.2147 4.13884 21.2251 4.11801 21.2346 4.09669L21.2596 4.02793C21.2664 4.01148 21.2727 3.99481 21.2783 3.97792L21.3096 3.9029L21.3408 3.82164L21.3909 3.72787L21.4846 3.5966L21.6096 3.45282L21.7847 3.32154L21.9722 3.20902L22.1285 3.15276L22.241 3.14651L22.3473 3.16526L22.4848 3.23403L22.6411 3.3653L22.7786 3.54659L22.8724 3.77788L22.9161 4.01543L22.8849 4.26547L22.8036 4.55928L22.6661 4.82808L22.4848 5.07188L22.2785 5.28442L22.041 5.4532L21.8097 5.57822L21.5784 5.65324L21.4096 5.67824L21.3471 5.67199L21.3408 5.66574L21.3033 5.62823L21.2221 5.52821C21.2103 5.51303 21.1978 5.49845 21.1846 5.48445L21.1346 5.43445C21.1571 5.47335 21.1842 5.50877 21.2158 5.54072L21.1846 5.49071C21.1717 5.46866 21.1571 5.44782 21.1408 5.42819L21.1221 5.40319C21.1204 5.50428 21.1516 5.59388 21.2158 5.67199V5.65324C21.2176 5.54203 21.1792 5.4471 21.1005 5.36846C21.0219 5.28981 20.927 5.25138 20.8157 5.25316Z" fill="black"/>
<path d="M8.29467 1.97755C8.29488 2.18989 8.40115 2.29605 8.61348 2.29605C8.82582 2.29605 8.93209 2.18989 8.93229 1.97755C8.93209 1.76522 8.82582 1.65905 8.61348 1.65905C8.40115 1.65905 8.29488 1.76522 8.29467 1.97755ZM8.62599 2.37763H8.63849H8.66974C8.61574 2.35505 8.55947 2.34463 8.50096 2.34637L8.53847 2.35887C8.54667 2.36331 8.55501 2.36748 8.56347 2.37138L8.61973 2.39013C8.66601 2.40816 8.71393 2.41858 8.76351 2.42139L8.81977 2.42764L8.85728 2.43389L8.90104 2.45264L9.02606 2.54016L9.2386 2.70269C9.24685 2.70704 9.25518 2.71121 9.26361 2.71519L9.53241 2.90273L9.83872 3.12152L10.1575 3.37157L10.4763 3.66537L10.7826 4.00294L11.0702 4.39051L11.364 4.8281L11.6578 5.27193C11.6599 5.27403 11.662 5.27611 11.6641 5.27818L11.9454 5.70326L12.2079 6.10959L12.4455 6.50967L12.6643 6.87849C12.6663 6.88058 12.6684 6.88267 12.6705 6.88474L12.8518 7.18479C12.8688 7.2111 12.8876 7.23611 12.9081 7.25981L13.0831 7.4786C13.201 7.62311 13.3531 7.7002 13.5394 7.70989L13.7645 7.7224C13.8737 7.72611 13.955 7.68027 14.0083 7.58487L14.1208 7.39108C14.2157 7.22275 14.2303 7.04771 14.1645 6.86598L14.0708 6.60343C14.0572 6.56655 14.0405 6.53113 14.0208 6.49716L13.8457 6.19085C13.8437 6.18667 13.8416 6.1825 13.8395 6.17835L13.6207 5.80953C13.6186 5.80534 13.6166 5.80118 13.6144 5.79703L13.3581 5.3907C13.3561 5.3886 13.354 5.38652 13.3519 5.38445L13.0831 4.96562C13.079 4.9614 13.0748 4.95723 13.0706 4.95312L12.783 4.52804L12.4892 4.0842C12.4872 4.08001 12.4851 4.07585 12.483 4.0717L12.1767 3.62162C12.1706 3.61314 12.1644 3.6048 12.1579 3.59661L11.8391 3.17153C11.8253 3.15413 11.8108 3.13746 11.7953 3.12152L11.4453 2.7402C11.4333 2.7272 11.4208 2.7147 11.4078 2.70269L11.0452 2.37138C11.0291 2.35809 11.0124 2.34559 10.9952 2.33387L10.6389 2.05882C10.6246 2.04993 10.61 2.04159 10.5951 2.03381L10.2638 1.81502C10.2396 1.8009 10.2146 1.7884 10.1888 1.77751L9.88873 1.62749C9.84859 1.6085 9.80692 1.59392 9.7637 1.58373L9.50115 1.52122C9.47849 1.51565 9.45556 1.51149 9.43239 1.50871L9.21985 1.48371C9.20949 1.4813 9.19908 1.47922 9.18859 1.47746L9.02606 1.47121C9.00523 1.46988 8.98439 1.46988 8.96355 1.47121L8.84478 1.47746C8.8238 1.47816 8.80296 1.48024 8.78227 1.48371L8.69475 1.50246C8.64107 1.5145 8.59106 1.53533 8.54472 1.56497L8.48846 1.59623C8.47323 1.60575 8.45865 1.61617 8.4447 1.62749L8.41345 1.65249C8.45696 1.63635 8.49655 1.61343 8.53222 1.58373L8.50096 1.59623C8.46527 1.60819 8.43193 1.62486 8.40094 1.64624L8.38844 1.65874C8.23648 1.77393 8.19042 1.92205 8.25024 2.1031C8.31007 2.28415 8.43532 2.37566 8.62599 2.37763Z" fill="black"/>
<path d="M12.8206 5.84081C12.8458 6.01592 12.9468 6.10347 13.1237 6.10347C13.3007 6.10347 13.4017 6.01592 13.4269 5.84081C13.4017 5.6657 13.3007 5.57815 13.1237 5.57815C12.9468 5.57815 12.8458 5.6657 12.8206 5.84081ZM12.7393 5.97834L12.7456 5.99084C12.7413 5.96738 12.735 5.94446 12.7268 5.92207L12.7393 6.00334C12.741 6.01383 12.7431 6.02425 12.7456 6.0346L12.7831 6.19088C12.7866 6.20564 12.7908 6.22023 12.7956 6.23463L12.8768 6.49093C12.8872 6.51899 12.8997 6.54608 12.9143 6.5722L13.0644 6.866C13.0663 6.87229 13.0684 6.87854 13.0706 6.88476L13.2456 7.20357C13.2477 7.20776 13.2498 7.21193 13.2519 7.21607L13.4457 7.54738L13.6332 7.8787C13.6392 7.8893 13.6454 7.89972 13.652 7.90995L13.8458 8.20376C13.8743 8.24557 13.9076 8.28308 13.9458 8.31628L14.1396 8.49131C14.3066 8.63791 14.4887 8.65998 14.6859 8.55755C14.8832 8.45512 14.9698 8.29343 14.946 8.07248L14.9147 7.80993C14.9079 7.73989 14.8892 7.67321 14.8585 7.6099L14.6959 7.30359C14.694 7.29521 14.6919 7.28687 14.6897 7.27858L14.5021 6.94727C14.498 6.94304 14.4939 6.93887 14.4896 6.93477L14.2958 6.60971L14.1083 6.2909C14.1063 6.2867 14.1042 6.28254 14.1021 6.27839L13.927 6.00334C13.9056 5.9673 13.8806 5.93396 13.852 5.90332L13.6582 5.70953C13.6335 5.68382 13.6064 5.6609 13.577 5.64077L13.4394 5.547C13.4374 5.5449 13.4353 5.54282 13.4332 5.54075L13.3644 5.49699C13.2878 5.4492 13.2045 5.42837 13.1144 5.43448H13.1019C12.9654 5.44108 12.8592 5.50123 12.7834 5.61495C12.7076 5.72866 12.6929 5.84979 12.7393 5.97834ZM14.3271 8.42255L14.3834 8.53507C14.4723 8.66005 14.5854 8.68824 14.7226 8.61964C14.8598 8.55104 14.9051 8.44367 14.8585 8.29753L14.8022 8.18501C14.7133 8.06003 14.6002 8.03185 14.463 8.10044C14.3258 8.16904 14.2805 8.27641 14.3271 8.42255Z" fill="black"/>
<path d="M16.3462 10.9168C16.3462 11.121 16.4484 11.2231 16.6526 11.2231C16.8568 11.2231 16.9589 11.121 16.9589 10.9168C16.9589 10.7126 16.8568 10.6105 16.6526 10.6105C16.4484 10.6105 16.3462 10.7126 16.3462 10.9168ZM16.24 10.9168C16.24 11.0342 16.2815 11.1343 16.3645 11.2173C16.4475 11.3004 16.5477 11.3419 16.6651 11.3419C16.7824 11.3419 16.8826 11.3004 16.9656 11.2173C17.0486 11.1343 17.0901 11.0342 17.0901 10.9168C17.0901 10.7994 17.0486 10.6992 16.9656 10.6162C16.8826 10.5332 16.7824 10.4917 16.6651 10.4917C16.5477 10.4917 16.4475 10.5332 16.3645 10.6162C16.2815 10.6992 16.24 10.7994 16.24 10.9168ZM16.2587 11.0793L16.265 11.1043L16.29 11.1731C16.2938 11.1836 16.298 11.194 16.3025 11.2043L16.3525 11.3043L16.4275 11.4856C16.4296 11.4856 16.4317 11.4856 16.4338 11.4856L16.5588 11.7669L16.7276 12.142C16.7295 12.1483 16.7316 12.1545 16.7338 12.1608L16.9651 12.6171C16.9651 12.6192 16.9651 12.6213 16.9651 12.6233L17.2277 13.1359C17.2297 13.1401 17.2318 13.1443 17.2339 13.1484L17.5215 13.6735C17.5235 13.6798 17.5255 13.6861 17.5277 13.6923L17.809 14.1674C17.8111 14.1695 17.8132 14.1716 17.8153 14.1736L18.0841 14.605L18.3216 15.0238L18.5279 15.4301L18.6967 15.849L18.8592 16.3115L19.003 16.7554L19.1343 17.1742L19.2405 17.5493L19.3343 17.9181L19.4218 18.3057L19.4906 18.6682L19.5469 18.9996L19.5781 19.3059L19.5906 19.6372L19.6094 19.9747L19.6031 20.3123C19.6031 20.3144 19.6031 20.3165 19.6031 20.3186V20.6374L19.5969 20.8999L19.5656 21.125L19.5156 21.3438L19.4531 21.5563L19.3906 21.7501L19.3156 21.9251L19.2468 22.0939C19.2362 22.1224 19.2279 22.1516 19.2218 22.1814L19.1968 22.2939L19.1718 22.369C19.1563 22.4263 19.15 22.4847 19.153 22.544L19.1593 22.6065C19.1626 22.7165 19.1959 22.8165 19.2593 22.9066L19.2781 22.9316C19.3336 23.0084 19.4045 23.0668 19.4906 23.1066L19.5281 23.1253C19.6035 23.1601 19.6827 23.1768 19.7656 23.1754H19.8282C19.8598 23.1739 19.891 23.1697 19.9219 23.1629L20.0094 23.1503C20.0922 23.1344 20.1672 23.1011 20.2345 23.0503L20.3283 22.9816C20.3656 22.9545 20.3989 22.9233 20.4283 22.8878L20.5408 22.7503C20.5602 22.7227 20.5769 22.6935 20.5908 22.6628L20.7096 22.444C20.7188 22.4277 20.7271 22.4111 20.7346 22.394L20.8409 22.1377L20.9721 21.8751C20.9813 21.8588 20.9896 21.8422 20.9971 21.8251L21.1097 21.525C21.1228 21.4926 21.1333 21.4592 21.1409 21.425L21.2034 21.125C21.2096 21.0961 21.2138 21.0669 21.2159 21.0374L21.2284 20.7374C21.2304 20.7082 21.2304 20.679 21.2284 20.6499L21.2034 20.3248C21.2037 20.3144 21.2037 20.304 21.2034 20.2936L21.1534 19.931C21.1516 19.9205 21.1495 19.9101 21.1472 19.8997L21.0784 19.4934C21.0766 19.4829 21.0745 19.4725 21.0721 19.4621L20.9784 19.0683C20.9716 19.0428 20.9633 19.0178 20.9534 18.9933L20.8221 18.6245C20.8051 18.5777 20.7821 18.5339 20.7533 18.4932L20.5971 18.2744L20.5033 18.0244C20.484 17.9723 20.4548 17.9264 20.4158 17.8868L20.3033 17.7743L20.272 17.6618C20.2103 17.5256 20.1074 17.4773 19.9632 17.5169C19.819 17.5566 19.7552 17.6507 19.7719 17.7993L19.8032 17.9181L19.7656 18.0681C19.7532 18.1132 19.749 18.1591 19.7531 18.2057L19.7844 18.4682L19.7469 18.737C19.7418 18.7702 19.7397 18.8035 19.7406 18.837L19.7469 19.2246C19.7477 19.2476 19.7498 19.2706 19.7531 19.2934L19.8157 19.6997C19.8157 19.7018 19.8157 19.7039 19.8157 19.7059L19.8782 20.0998L19.9157 20.4373L19.9344 20.7186L19.9282 20.9499L19.8969 21.2187C19.8947 21.225 19.8927 21.2312 19.8907 21.2375L19.8594 21.5313L19.8219 21.7626L19.7406 21.9564L19.6656 22.1001L19.6281 22.1439L19.5906 22.1689C19.661 22.1526 19.7256 22.1234 19.7844 22.0814L19.6969 22.1064C19.7414 22.1055 19.7852 22.0993 19.8282 22.0876H19.7656C19.8439 22.1288 19.9273 22.1497 20.0157 22.1502L19.9782 22.1314C20.0029 22.3147 20.0966 22.4501 20.2595 22.5377V22.5065C20.2422 22.5744 20.238 22.6432 20.247 22.7128V22.7003L20.2907 22.6378C20.3099 22.61 20.3266 22.5808 20.3408 22.5502L20.4095 22.394C20.4117 22.3898 20.4137 22.3856 20.4158 22.3815L20.497 22.1877C20.5015 22.1774 20.5057 22.1669 20.5095 22.1564L20.5846 21.9376C20.5867 21.9314 20.5888 21.9252 20.5908 21.9189L20.6658 21.6751C20.673 21.6566 20.6792 21.6379 20.6846 21.6188L20.7408 21.3625C20.7432 21.3521 20.7453 21.3417 20.7471 21.3313L20.7908 21.05C20.794 21.0292 20.7961 21.0084 20.7971 20.9874L20.8158 20.6811C20.8161 20.6707 20.8161 20.6603 20.8158 20.6499V20.3186C20.8158 20.3165 20.8158 20.3144 20.8158 20.3123L20.8096 19.956C20.8097 19.9518 20.8097 19.9477 20.8096 19.9435L20.8033 19.5934C20.8034 19.5872 20.8034 19.5809 20.8033 19.5747L20.7783 19.2246C20.7786 19.2142 20.7786 19.2038 20.7783 19.1933L20.7408 18.8495C20.7389 18.8432 20.7368 18.837 20.7346 18.8308L20.6783 18.4682C20.6785 18.4599 20.6785 18.4515 20.6783 18.4432L20.5971 18.0619C20.5971 18.0598 20.5971 18.0577 20.5971 18.0556L20.5095 17.6556C20.5076 17.6472 20.5055 17.6388 20.5033 17.6305L20.4033 17.243C20.4034 17.2367 20.4034 17.2305 20.4033 17.2242L20.2907 16.8304C20.2887 16.8283 20.2866 16.8262 20.2845 16.8241L20.1532 16.3991L20.0157 15.9427C20.0138 15.9343 20.0117 15.926 20.0094 15.9177L19.8344 15.4364C19.8326 15.4259 19.8305 15.4155 19.8282 15.4051L19.6344 14.9488C19.6286 14.9361 19.6223 14.9236 19.6156 14.9113L19.3906 14.4612C19.3866 14.4528 19.3824 14.4444 19.3781 14.4362L19.128 13.9986C19.126 13.9944 19.1239 13.9902 19.1218 13.9861L18.853 13.5423L18.5779 13.0734L18.2904 12.5671L18.0153 12.067C18.0133 12.0607 18.0113 12.0545 18.0091 12.0482L17.7465 11.6107C17.7425 11.6043 17.7383 11.5981 17.734 11.5919L17.509 11.2481L17.3527 10.9918L17.2402 10.823C17.2307 10.8057 17.2203 10.7891 17.2089 10.773L17.1339 10.6855C17.1049 10.6495 17.0716 10.6183 17.0339 10.5917L16.9776 10.5542C16.906 10.5051 16.8268 10.478 16.7401 10.4729L16.7151 10.4667C16.6382 10.462 16.5648 10.4758 16.495 10.5083C16.4251 10.5407 16.3672 10.5878 16.3212 10.6496C16.2752 10.7113 16.2466 10.7803 16.2356 10.8565C16.2245 10.9327 16.2322 11.007 16.2587 11.0793Z" fill="black"/>
<path d="M20.9471 21.3563L20.9596 21.3438C20.9925 21.2942 21.0133 21.24 21.0221 21.1812L21.0283 21.1125L21.0659 20.9437L21.1346 20.6374C21.1428 20.6003 21.147 20.5628 21.1471 20.5248L21.1596 20.0373C21.1601 20.0058 21.158 19.9746 21.1534 19.9435L21.0596 19.2809C21.055 19.2425 21.0466 19.205 21.0346 19.1683L20.7658 18.3807C20.7569 18.3591 20.7465 18.3383 20.7345 18.3182L20.3532 17.5868L20.1844 16.8929C20.1428 16.722 20.0365 16.6574 19.8656 16.6991C19.6948 16.7408 19.6302 16.8471 19.6718 17.0179L19.8469 17.7118L19.8281 18.5245C19.8272 18.5411 19.8272 18.5578 19.8281 18.5745L19.8906 19.4059C19.892 19.4226 19.8941 19.4393 19.8969 19.4559L20.0094 20.1185C20.0093 20.1248 20.0093 20.131 20.0094 20.1373L20.1032 20.6186C20.1063 20.6376 20.1105 20.6563 20.1157 20.6749L20.2032 20.9437L20.2219 21.0937C20.2219 21.0958 20.2219 21.0979 20.2219 21.1L20.2344 21.1812C20.2432 21.24 20.264 21.2942 20.297 21.3438L20.3095 21.3563C20.3865 21.4677 20.4928 21.5234 20.6283 21.5234C20.7638 21.5234 20.87 21.4677 20.9471 21.3563Z" fill="black"/>
<path d="M11.3889 11.4419C11.3889 11.5523 11.428 11.6466 11.5061 11.7248C11.5842 11.8029 11.6785 11.8419 11.789 11.8419C11.8995 11.8419 11.9938 11.8029 12.0719 11.7248C12.15 11.6466 12.1891 11.5523 12.1891 11.4419C12.1891 11.3314 12.15 11.2371 12.0719 11.159C11.9938 11.0808 11.8995 11.0418 11.789 11.0418C11.6785 11.0418 11.5842 11.0808 11.5061 11.159C11.428 11.2371 11.3889 11.3314 11.3889 11.4419ZM11.489 11.7294L11.5015 11.7419C11.574 11.8205 11.6636 11.8643 11.7703 11.8732H11.814C11.8349 11.8748 11.8557 11.8748 11.8765 11.8732H11.939C11.9776 11.8697 12.0151 11.8614 12.0516 11.8482L12.1516 11.8169C12.2014 11.7993 12.2473 11.7743 12.2891 11.7419L12.4204 11.6419C12.4268 11.6358 12.433 11.6296 12.4391 11.6231L12.5954 11.4919C12.6156 11.4746 12.6344 11.4558 12.6517 11.4356L12.7892 11.2731L12.9392 11.1168C12.9766 11.0747 13.0037 11.0268 13.0205 10.973L13.033 10.9418L13.0643 10.923C13.1887 10.8354 13.2161 10.7238 13.1466 10.5884C13.0771 10.453 12.9705 10.4104 12.8267 10.4604L12.7892 10.4792L12.7454 10.4667C12.6761 10.4501 12.6074 10.4522 12.5392 10.4729L12.3204 10.5417C12.312 10.5435 12.3036 10.5456 12.2954 10.5479L12.0828 10.6292C12.0305 10.6485 11.9825 10.6756 11.939 10.7105L11.7828 10.8417C11.7601 10.8608 11.7393 10.8816 11.7203 10.9043L11.614 11.0293C11.5833 11.0653 11.5583 11.1049 11.539 11.1481L11.5077 11.2106L11.4952 11.2418C11.6336 11.2301 11.7399 11.1655 11.814 11.048H11.7703C11.858 11.1314 11.9621 11.1689 12.0828 11.1606L12.0703 11.1481C11.8772 10.9853 11.6913 10.9932 11.5127 11.1718C11.3341 11.3504 11.3262 11.5363 11.489 11.7294Z" fill="black"/>
<path d="M12.1453 11.0918C12.1453 11.2793 12.2391 11.3731 12.4266 11.3731C12.6142 11.3731 12.708 11.2793 12.708 11.0918C12.708 10.9042 12.6142 10.8105 12.4266 10.8105C12.2391 10.8105 12.1453 10.9042 12.1453 11.0918ZM12.2266 10.7417L12.1578 10.773C12.1404 10.7822 12.1237 10.7926 12.1078 10.8042L11.9953 10.873C11.9822 10.8827 11.9697 10.8931 11.9578 10.9042L11.8265 11.0168C11.8245 11.0168 11.8224 11.0168 11.8203 11.0168L11.7015 11.123L11.5952 11.198L11.489 11.2731C11.4642 11.2895 11.4413 11.3083 11.4202 11.3293L11.3514 11.3981C11.3471 11.4042 11.343 11.4105 11.3389 11.4168L11.3014 11.4606C11.2215 11.5494 11.1819 11.6536 11.1827 11.7732V11.8107C11.184 11.9313 11.2261 12.0355 11.309 12.1232C11.3919 12.2109 11.4936 12.2589 11.614 12.267H11.6327C11.7432 12.2737 11.8433 12.2446 11.9328 12.1795L11.9578 12.167C12.0019 12.136 12.0394 12.0985 12.0703 12.0545L12.0828 12.0295C12.1171 11.9841 12.1421 11.934 12.1578 11.8794L12.1641 11.8544C12.1752 11.8092 12.1794 11.7634 12.1766 11.7169V11.7106C12.1707 11.5653 12.1098 11.4487 11.9939 11.3608C11.878 11.273 11.7493 11.2458 11.6077 11.2793L11.589 11.2856C11.5326 11.2987 11.4805 11.3216 11.4327 11.3543L11.3952 11.3793C11.3844 11.3872 11.374 11.3956 11.3639 11.4043L11.3139 11.4481C11.2986 11.4597 11.284 11.4722 11.2702 11.4856L11.2077 11.5544C11.1943 11.5682 11.1818 11.5828 11.1702 11.5981L11.1076 11.6856C11.0985 11.6998 11.0902 11.7144 11.0826 11.7294L11.0264 11.8232C11.0197 11.8333 11.0135 11.8438 11.0076 11.8544L10.9576 11.9669C10.9328 12.0206 10.9182 12.0768 10.9139 12.1357L10.9014 12.292C10.8986 12.3319 10.9007 12.3714 10.9076 12.4108L10.9389 12.5921C10.9435 12.6154 10.9497 12.6384 10.9576 12.6608L11.0139 12.8546C11.0225 12.8783 11.033 12.9013 11.0451 12.9234L11.1327 13.1047C11.1436 13.1264 11.1561 13.1473 11.1702 13.1672L11.2889 13.336C11.3273 13.3918 11.3752 13.4376 11.4327 13.4735L11.6077 13.5798C11.687 13.6267 11.7724 13.6454 11.864 13.636L11.9828 13.6298C11.9252 13.574 11.8565 13.549 11.7765 13.5547L11.889 13.661C12.0157 13.7462 12.1311 13.733 12.2353 13.6216C12.3396 13.5102 12.345 13.3941 12.2516 13.2734L12.1391 13.1672C12.1267 13.2582 12.1538 13.3352 12.2204 13.3985L12.2391 13.2797C12.2493 13.2115 12.2431 13.1448 12.2204 13.0797L12.1453 12.8921C12.1345 12.8571 12.1199 12.8238 12.1016 12.7921L12.0078 12.6483L11.9516 12.5233L11.9078 12.392L11.889 12.2858V12.217V12.2045H11.8953L11.9203 12.167L11.9453 12.1357L11.9766 12.1045L12.0078 12.0795C11.9617 12.0998 11.92 12.1268 11.8828 12.1607L11.9015 12.1545C11.9052 12.0744 11.8891 11.9984 11.8533 11.9267C11.8175 11.8549 11.7665 11.7965 11.7003 11.7513C11.634 11.706 11.561 11.6798 11.4811 11.6726C11.4013 11.6654 11.3247 11.6781 11.2514 11.7106V11.7169C11.2584 11.6881 11.2626 11.659 11.2639 11.6294L11.2577 11.6544C11.3003 11.6005 11.3295 11.54 11.3452 11.4731L11.3264 11.4981C11.3543 11.476 11.3793 11.451 11.4015 11.4231L11.3764 11.4418C11.4723 11.4351 11.5577 11.4018 11.6327 11.3418H11.614C11.6119 11.4772 11.6599 11.5914 11.758 11.6846C11.8562 11.7778 11.9728 11.8198 12.1078 11.8107V11.7732C12.0607 11.8454 12.0357 11.9245 12.0328 12.0107L12.0641 11.9732L12.0953 11.9232L12.1578 11.8544L12.2579 11.7544L12.3766 11.6481L12.5017 11.5356L12.5954 11.4543L12.6517 11.4043C12.8145 11.2526 12.8359 11.083 12.7157 10.8956C12.5955 10.7083 12.4325 10.657 12.2266 10.7417Z" fill="black"/>
<path d="M11.339 12.5483C11.3659 12.7467 11.4795 12.8459 11.6797 12.8459C11.8799 12.8459 11.9934 12.7467 12.0203 12.5483C11.9934 12.3499 11.8799 12.2507 11.6797 12.2507C11.4795 12.2507 11.3659 12.3499 11.339 12.5483ZM11.264 12.5983L11.2702 12.6733C11.2717 12.6859 11.2738 12.6984 11.2765 12.7108L11.2952 12.8421C11.2967 12.8547 11.2988 12.8672 11.3015 12.8796L11.3452 13.0546C11.3486 13.0695 11.3528 13.084 11.3577 13.0984L11.4265 13.2797C11.4319 13.2946 11.4382 13.3092 11.4452 13.3235L11.5515 13.5235C11.5648 13.5546 11.5815 13.5837 11.6015 13.611L11.7578 13.7923C11.7782 13.8177 11.8011 13.8406 11.8266 13.8611L12.0141 14.0048C12.0431 14.0274 12.0743 14.0462 12.1079 14.0611L12.3079 14.1486C12.3461 14.1645 12.3856 14.1749 12.4267 14.1799L12.6205 14.2049C12.6577 14.2117 12.6952 14.2138 12.733 14.2111L12.9018 14.1861C12.9493 14.183 12.9951 14.1725 13.0393 14.1549L13.1706 14.0923C13.1901 14.0833 13.2089 14.0729 13.2268 14.0611L13.3143 14.0048L13.3894 13.9673C13.5936 13.8443 13.6476 13.6736 13.5515 13.4554C13.4553 13.2372 13.2929 13.162 13.0643 13.2297L12.9893 13.2547L12.9018 13.2734L12.783 13.2984L12.683 13.3109L12.608 13.2984L12.5204 13.2609L12.4079 13.1734L12.3017 13.0546L12.2141 12.9171L12.1516 12.7921L12.1079 12.6671L12.0891 12.5796L12.0829 12.5358C12.0399 12.2899 11.8939 12.1765 11.645 12.1955C11.3961 12.2145 11.2691 12.3487 11.264 12.5983ZM13.4394 13.7673L13.5081 13.7235C13.6498 13.6318 13.6748 13.5152 13.5831 13.3735C13.4915 13.2318 13.3748 13.2068 13.2331 13.2984L13.1643 13.3422C13.0226 13.4339 12.9976 13.5506 13.0893 13.6923C13.181 13.834 13.2977 13.859 13.4394 13.7673Z" fill="black"/>
<path d="M12.7767 13.461C12.7767 13.5628 12.8127 13.6498 12.8848 13.7218C12.9568 13.7938 13.0437 13.8298 13.1455 13.8298C13.2474 13.8298 13.3343 13.7938 13.4063 13.7218C13.4784 13.6498 13.5144 13.5628 13.5144 13.461C13.5144 13.3591 13.4784 13.2722 13.4063 13.2002C13.3343 13.1282 13.2474 13.0922 13.1455 13.0922C13.0437 13.0922 12.9568 13.1282 12.8848 13.2002C12.8127 13.2722 12.7767 13.3591 12.7767 13.461ZM13.2706 13.8486L13.3018 13.8361C13.4025 13.8048 13.4838 13.7464 13.5456 13.661L13.6081 13.5798C13.635 13.5411 13.6558 13.4994 13.6706 13.4547L13.7207 13.3172C13.7875 13.1286 13.7458 12.9681 13.5956 12.8359V12.8296C13.483 12.9668 13.4934 13.0939 13.6269 13.2109L13.7207 13.0984C13.8373 12.9567 13.8248 12.8275 13.6831 12.7109C13.5415 12.5942 13.4123 12.6067 13.2956 12.7484L13.2018 12.8609C13.3406 12.9643 13.4656 12.9497 13.5769 12.8171H13.5706C13.3971 12.6866 13.2221 12.6845 13.0455 12.8109L12.9268 12.8984C12.8479 12.9565 12.7916 13.0315 12.758 13.1234L12.7205 13.2234C12.6683 13.3681 12.6829 13.5056 12.7642 13.636L12.783 13.6673C12.8998 13.8506 13.0624 13.911 13.2706 13.8486Z" fill="black"/>
<path d="M1.11796 15.1615L1.10546 15.199C1.09567 15.2295 1.08942 15.2608 1.08671 15.2928L1.08046 15.399C1.0804 15.4032 1.0804 15.4074 1.08046 15.4115L1.06795 15.6053C1.06782 15.6116 1.06782 15.6178 1.06795 15.6241L1.0617 15.9116C1.06326 15.9242 1.06534 15.9367 1.06795 15.9491L1.09296 16.368C1.09434 16.3826 1.09642 16.3972 1.09921 16.4117L1.18673 16.9431C1.18667 16.9472 1.18667 16.9514 1.18673 16.9556L1.3055 17.5494C1.3088 17.5663 1.31296 17.583 1.318 17.5994L1.50554 18.2058C1.52121 18.2591 1.54413 18.3092 1.5743 18.3558L1.93062 18.8872C1.96866 18.9426 2.0145 18.9905 2.06814 19.031L2.56824 19.4248C2.61997 19.4627 2.67623 19.4919 2.73702 19.5123L3.32463 19.7248C3.39728 19.7516 3.47229 19.7641 3.54968 19.7624L4.14354 19.7436C4.23357 19.7416 4.319 19.7208 4.39984 19.6811L4.91869 19.4185C4.98778 19.3841 5.04821 19.3383 5.09997 19.281L5.5188 18.8247C5.55587 18.7851 5.58713 18.7413 5.61257 18.6934L5.90012 18.1183C5.91805 18.0842 5.93263 18.0488 5.94388 18.012L6.11892 17.3932C6.12733 17.3644 6.13358 17.3353 6.13767 17.3056L6.22519 16.668C6.2283 16.6326 6.2283 16.5972 6.22519 16.5617L6.20018 15.9616C6.19953 15.9237 6.19536 15.8862 6.18768 15.8491L6.06265 15.3115C6.05199 15.2615 6.03532 15.2136 6.01265 15.1677L5.78135 14.7239C5.75486 14.6712 5.72152 14.6233 5.68133 14.5801L5.33752 14.2175C5.29358 14.1703 5.24357 14.1307 5.18749 14.0988L4.7374 13.855C4.68806 13.8273 4.63596 13.8064 4.58112 13.7925L4.04352 13.6549C4.00246 13.6446 3.96078 13.6384 3.9185 13.6362L3.33714 13.6049C3.29526 13.603 3.25359 13.6051 3.21211 13.6112L2.63075 13.6924C2.58571 13.7005 2.54195 13.713 2.49948 13.73L1.98688 13.9112C1.91609 13.9381 1.85149 13.9756 1.79309 14.0238L1.37426 14.3488C1.31827 14.3935 1.27034 14.4456 1.23048 14.5051L0.930428 14.9552C0.895675 15.0078 0.868586 15.064 0.849162 15.124L0.674129 15.6491C0.654562 15.7038 0.64206 15.76 0.636622 15.8179L0.592864 16.3617C0.589504 16.4119 0.591588 16.462 0.599115 16.5117L0.686631 17.0681C0.694092 17.1262 0.708678 17.1825 0.73039 17.2369L0.980437 17.8245C0.997392 17.8661 1.01823 17.9057 1.04295 17.9433L1.43677 18.5246C1.45402 18.5488 1.47277 18.5717 1.49303 18.5934L1.98063 19.1372C1.99624 19.1569 2.01291 19.1757 2.03064 19.1935L2.55574 19.6623C2.58497 19.688 2.61623 19.7109 2.64951 19.7311L3.18086 20.0624C3.24457 20.1035 3.31333 20.1327 3.38715 20.1499L3.89974 20.2562C4.03679 20.285 4.16807 20.2683 4.29357 20.2062L4.69364 20.0062C4.77701 19.963 4.84161 19.9005 4.88743 19.8186L5.08747 19.4685L5.36877 19.1685C5.48948 19.0393 5.48528 18.9143 5.35616 18.7935C5.22705 18.6728 5.10206 18.6769 4.9812 18.8059L4.74365 19.0685L4.47485 19.1122L4.1873 19.0747L3.83723 18.9247L3.41215 18.6434L2.96206 18.2308L2.54323 17.737L2.22442 17.2369L2.04314 16.7868L1.98688 16.393L2.01813 16.0054L2.13691 15.6491L2.32444 15.3615L2.58699 15.149L2.92456 14.9989L3.35589 14.9177L3.79972 14.9302L4.20605 15.0302L4.51861 15.1802L4.7374 15.3865L4.89368 15.6741L4.98745 16.0679L5.0062 16.5617L4.94369 17.0993L4.78741 17.6119L4.55612 18.0558L4.26856 18.3683L3.96851 18.5246L3.63719 18.5309L3.25587 18.3871L2.8683 18.087L2.52448 17.6932L2.24318 17.2431L2.08065 16.7555L1.99938 16.2742L1.95562 15.8741L1.93062 15.6116V15.4428L1.93687 15.3428C1.93688 15.3407 1.93688 15.3386 1.93687 15.3365V15.299C1.94528 15.0545 1.82888 14.9121 1.58765 14.8716C1.34643 14.831 1.18987 14.9277 1.11796 15.1615Z" fill="black"/>
<path d="M2.37443 14.2676C2.37443 14.3729 2.41165 14.4628 2.48611 14.5372C2.56057 14.6117 2.65045 14.6489 2.75575 14.6489C2.86105 14.6489 2.95093 14.6117 3.02538 14.5372C3.09984 14.4628 3.13707 14.3729 3.13707 14.2676C3.13707 14.1623 3.09984 14.0724 3.02538 13.998C2.95093 13.9235 2.86105 13.8863 2.75575 13.8863C2.65045 13.8863 2.56057 13.9235 2.48611 13.998C2.41165 14.0724 2.37443 14.1623 2.37443 14.2676ZM3.16833 14.3051L3.17458 14.2676C3.17809 14.2277 3.176 14.1881 3.16833 14.1488L3.13082 13.9425C3.13095 13.9363 3.13095 13.93 3.13082 13.9238L3.09331 13.7612L3.07456 13.5299L3.06206 13.1736L3.04955 12.7298L3.0433 12.2235L3.06831 11.6421L3.11207 10.992L3.18708 10.2543L3.29335 9.44167L3.41837 8.61651L3.5684 7.80386L3.74969 7.05372L3.98098 6.38484L4.25603 5.77847L4.54359 5.21587L4.88115 4.67826L5.24372 4.16567L5.56878 3.70933C5.57089 3.70727 5.57297 3.70518 5.57504 3.70308L5.83133 3.33426C5.88177 3.26307 5.90886 3.18388 5.9126 3.09671L5.91885 2.91543L5.99387 2.81541C6.09779 2.66959 6.0769 2.54464 5.93119 2.44057C5.78548 2.33649 5.66051 2.35725 5.55628 2.50285L5.48752 2.59662L5.31874 2.65913C5.23168 2.68917 5.16083 2.74126 5.1062 2.81541L4.84365 3.18423L4.51858 3.63432L4.12476 4.13441L3.71843 4.65951C3.71192 4.66765 3.70567 4.67599 3.69968 4.68452L3.32461 5.23462C3.3083 5.25645 3.29371 5.27937 3.28085 5.30338L2.97454 5.94101C2.96515 5.95929 2.95682 5.97805 2.94954 5.99727L2.69949 6.7099C2.69224 6.72832 2.68598 6.74708 2.68073 6.76616L2.48695 7.55381C2.48457 7.56417 2.48248 7.57459 2.4807 7.58507L2.31817 8.42273C2.31806 8.42898 2.31806 8.43523 2.31817 8.44148L2.19314 9.28539C2.19101 9.28953 2.18892 9.2937 2.18689 9.29789L2.08687 10.1231C2.08474 10.1272 2.08265 10.1314 2.08062 10.1356L2.01186 10.8857C2.00958 10.894 2.0075 10.9023 2.00561 10.9107L1.9681 11.5796C1.96799 11.5858 1.96799 11.5921 1.9681 11.5983L1.9556 12.2047C1.9553 12.2151 1.9553 12.2255 1.9556 12.236L1.97435 12.7611C1.97376 12.7756 1.97376 12.7902 1.97435 12.8048L2.02436 13.2424C2.0277 13.2593 2.03187 13.2759 2.03686 13.2924L2.11188 13.655C2.11347 13.6676 2.11556 13.6801 2.11813 13.6925L2.19314 13.955C2.19313 13.9571 2.19313 13.9592 2.19314 13.9613L2.25565 14.1551C2.26067 14.1742 2.26692 14.193 2.27441 14.2113L2.36192 14.4051L2.38068 14.4364C2.47363 14.6184 2.62092 14.6927 2.82255 14.659C3.02419 14.6254 3.13944 14.5075 3.16833 14.3051Z" fill="black"/>
<path d="M5.06216 20.0558C5.0622 20.1628 5.10006 20.2541 5.17573 20.3298C5.2514 20.4054 5.34274 20.4432 5.44974 20.4432C5.55674 20.4432 5.64807 20.4054 5.72375 20.3298C5.79942 20.2541 5.83727 20.1628 5.83731 20.0558C5.83727 19.9488 5.79942 19.8575 5.72375 19.7818C5.64807 19.7062 5.55674 19.6684 5.44974 19.6684C5.34274 19.6684 5.2514 19.7062 5.17573 19.7818C5.10006 19.8575 5.0622 19.9488 5.06216 20.0558ZM5.73104 19.7807L5.71854 19.7682C5.73113 19.7905 5.74571 19.8113 5.7623 19.8308L5.74979 19.8058C5.7386 19.7881 5.7261 19.7714 5.71229 19.7557L5.68103 19.7245C5.69647 19.7539 5.71522 19.781 5.73729 19.8058L5.71229 19.7557C5.66174 19.6477 5.57956 19.5759 5.46575 19.5402C5.35194 19.5046 5.24346 19.5167 5.14031 19.5765C5.03716 19.6364 4.97283 19.7246 4.94733 19.8411C4.92183 19.9576 4.94344 20.0646 5.01215 20.1621L5.03716 20.2058C5.05798 20.2386 5.08299 20.2678 5.11217 20.2933L5.14343 20.3246C5.15912 20.3384 5.17579 20.3509 5.19344 20.3621L5.21844 20.3746C5.199 20.358 5.17817 20.3434 5.15593 20.3309L5.16843 20.3434C5.24612 20.421 5.33988 20.4598 5.44971 20.4598C5.55954 20.4598 5.65328 20.4209 5.73094 20.3433C5.8086 20.2656 5.84744 20.1719 5.84746 20.062C5.84748 19.9522 5.80867 19.8584 5.73104 19.7807ZM4.89963 19.9183C4.89963 20.0408 4.94296 20.1454 5.02963 20.2321C5.11629 20.3188 5.22091 20.3621 5.34347 20.3621C5.46603 20.3621 5.57064 20.3188 5.6573 20.2321C5.74397 20.1454 5.7873 20.0408 5.7873 19.9183C5.7873 19.7957 5.74397 19.6911 5.6573 19.6044C5.57064 19.5178 5.46603 19.4744 5.34347 19.4744C5.22091 19.4744 5.11629 19.5178 5.02963 19.6044C4.94296 19.6911 4.89963 19.7957 4.89963 19.9183ZM4.94964 20.1496L4.9934 20.2246C5.0161 20.2615 5.04319 20.2948 5.07467 20.3246L5.24345 20.4996C5.25546 20.5106 5.26796 20.5211 5.28095 20.5309L5.59351 20.7872C5.60166 20.7937 5.61 20.7999 5.61852 20.8059L6.0561 21.1248C6.06226 21.1291 6.06852 21.1332 6.07486 21.1373L6.61246 21.4936C6.61452 21.4957 6.61661 21.4978 6.61871 21.4998L7.21882 21.8811C7.22089 21.8832 7.22297 21.8853 7.22508 21.8874L7.81894 22.25L8.34404 22.5813L8.77537 22.8688C8.77951 22.871 8.78368 22.8731 8.78787 22.8751L9.1817 23.1251L9.58177 23.3814C9.58592 23.3836 9.59009 23.3856 9.59428 23.3877L10.0069 23.6377C10.0192 23.6444 10.0317 23.6506 10.0444 23.6565L10.4819 23.8815C10.4943 23.8882 10.5068 23.8944 10.5195 23.9003L10.957 24.0941C10.9693 24.1007 10.9818 24.107 10.9945 24.1128L11.4571 24.2754C11.4674 24.2798 11.4779 24.2839 11.4884 24.2879L11.9822 24.4379C11.9843 24.44 11.9864 24.4421 11.9885 24.4441L12.5136 24.6004L13.0824 24.7817C13.1172 24.7927 13.1527 24.801 13.1887 24.8067L13.8388 24.9192C13.8575 24.922 13.8763 24.9241 13.8951 24.9255L14.5765 24.988C14.5951 24.9908 14.6139 24.9929 14.6327 24.9942L15.3079 25.0005C15.3329 25.0018 15.3579 25.0018 15.3829 25.0005L15.9642 24.9442C16.0532 24.9345 16.1366 24.9074 16.2143 24.863L16.6081 24.6442C16.6646 24.6123 16.7125 24.5706 16.7519 24.5191L16.8894 24.3379L17.0457 24.2566C17.1707 24.1677 17.1989 24.0546 17.1303 23.9174C17.0617 23.7802 16.9543 23.7349 16.8081 23.7815L16.6894 23.8378L16.5206 23.7815C16.5083 23.7768 16.4958 23.7727 16.4831 23.769L16.0455 23.669C16.0187 23.6631 15.9916 23.6589 15.9642 23.6565L15.3829 23.6002L14.7265 23.5377L14.0639 23.4564L13.42 23.3564C13.4179 23.3564 13.4158 23.3564 13.4138 23.3564L12.8511 23.2689L12.3698 23.1439L11.901 22.9939L11.4634 22.8438L11.0633 22.675L10.6507 22.475L10.2381 22.2562C10.232 22.2519 10.2257 22.2478 10.2194 22.2437L9.79431 22.0374C9.79017 22.0353 9.786 22.0332 9.78181 22.0312L9.35673 21.8374C9.35466 21.8353 9.35258 21.8332 9.35048 21.8311L8.88789 21.6248L8.36279 21.3373L7.77518 20.9935L7.18757 20.6184L6.66247 20.2683L6.23739 19.962L5.93108 19.7245C5.92293 19.718 5.9146 19.7117 5.90607 19.7057L5.70604 19.5682C5.66734 19.5414 5.62567 19.5206 5.58101 19.5057L5.506 19.4744C5.29991 19.3974 5.12691 19.4437 4.98699 19.6135C4.84706 19.7833 4.83461 19.962 4.94964 20.1496Z" fill="black"/>
<path d="M4.28701 19.6744C4.31636 19.9079 4.44868 20.0246 4.68396 20.0246C4.91924 20.0246 5.05156 19.9079 5.08091 19.6744C5.05156 19.441 4.91924 19.3243 4.68396 19.3243C4.44868 19.3243 4.31636 19.441 4.28701 19.6744ZM5.04966 19.5182V19.5119C4.99541 19.3778 4.89896 19.2903 4.7603 19.2492C4.62164 19.2081 4.49305 19.229 4.37453 19.3119L4.35578 19.3244C4.27198 19.3822 4.21363 19.4593 4.18074 19.5557L4.16199 19.6119C4.11337 19.7509 4.1217 19.8863 4.18699 20.0182L4.28701 20.212C4.30911 20.255 4.3362 20.2946 4.36828 20.3308L4.66208 20.6746C4.67962 20.6946 4.69837 20.7133 4.71834 20.7309L5.2747 21.2247C5.29449 21.2427 5.31533 21.2594 5.33721 21.2747L6.16237 21.8498C6.18454 21.8637 6.20746 21.8762 6.23113 21.8874L7.25633 22.4312C7.27661 22.4427 7.29745 22.4531 7.31884 22.4625L8.46281 22.9376C8.47725 22.9422 8.49184 22.9464 8.50657 22.9501L9.66304 23.3314C9.67954 23.3362 9.69621 23.3404 9.71305 23.3439L10.8445 23.6189C10.8589 23.6236 10.8735 23.6278 10.8883 23.6314L11.9447 23.819C11.98 23.8242 12.0154 23.8263 12.051 23.8252H13.0137C13.0517 23.8255 13.0892 23.8213 13.1262 23.8127L13.8513 23.6377L14.4014 23.6189C14.5765 23.6148 14.6619 23.5252 14.6577 23.3501C14.6536 23.1751 14.564 23.0897 14.3889 23.0938L13.8513 23.1126L13.1637 22.8875C13.1554 22.8852 13.1471 22.8832 13.1387 22.8813L12.2073 22.6312C12.2011 22.6291 12.1948 22.627 12.1885 22.625L11.1508 22.3937L10.0631 22.0811L8.94415 21.7061L7.85019 21.2497L6.86875 20.7371L6.0686 20.2245L5.50599 19.7995L5.16843 19.5182C5.16226 19.5139 5.15601 19.5097 5.14968 19.5056L4.97464 19.3681C4.9276 19.3299 4.87551 19.3008 4.81836 19.2806L4.7621 19.2619C4.76897 19.4781 4.87524 19.6198 5.08091 19.6869V19.6682C5.0798 19.6162 5.06938 19.5662 5.04966 19.5182Z" fill="black"/>
<path d="M10.3382 23.1627L10.3444 23.1939C10.3559 23.2227 10.3705 23.2498 10.3882 23.2752L10.4632 23.3877C10.4834 23.4152 10.5063 23.4402 10.532 23.4627L10.7445 23.669C10.7838 23.7065 10.8276 23.7378 10.8758 23.7628L11.3196 23.9878C11.3517 24.0052 11.3851 24.0198 11.4196 24.0316L12.0823 24.2379C12.1068 24.2476 12.1318 24.256 12.1573 24.2629L12.9699 24.4129C12.9865 24.4177 13.0031 24.4218 13.0199 24.4254L13.9014 24.5254C13.9139 24.5257 13.9264 24.5257 13.9389 24.5254L14.8453 24.5879C14.864 24.5887 14.8828 24.5887 14.9016 24.5879L15.7517 24.5692C15.7831 24.5691 15.8144 24.567 15.8455 24.5629L16.5831 24.4504C16.639 24.4423 16.6932 24.4277 16.7457 24.4066L17.327 24.1691C17.4682 24.1104 17.5766 24.0146 17.6521 23.8815L17.8646 23.5002C17.8829 23.4707 17.8975 23.4394 17.9084 23.4064L17.9896 23.1189L18.1147 22.9064C18.1817 22.7661 18.1486 22.656 18.0153 22.5761C17.882 22.4961 17.7693 22.5187 17.6771 22.6438L17.5771 22.8001L17.402 22.8563L17.027 22.8813C16.9868 22.884 16.9472 22.8903 16.9082 22.9001L16.3393 23.0376L15.6767 23.1314L14.8891 23.1627L14.0326 23.1376L13.195 23.0439L12.4073 22.9126L11.7322 22.7876L11.2446 22.7001C11.2281 22.6951 11.2115 22.691 11.1946 22.6876L10.9008 22.6626L10.7758 22.6501L10.7508 22.6438C10.6835 22.6352 10.6186 22.6437 10.5558 22.6692C10.493 22.6947 10.4405 22.734 10.3984 22.787C10.3562 22.8401 10.3297 22.9 10.319 22.967C10.3083 23.0339 10.3147 23.0991 10.3382 23.1627Z" fill="black"/>
<path d="M13.8763 24.119C13.8763 24.2278 13.9147 24.3206 13.9916 24.3975C14.0685 24.4744 14.1614 24.5129 14.2701 24.5129C14.3789 24.5129 14.4717 24.4744 14.5486 24.3975C14.6255 24.3206 14.6639 24.2278 14.6639 24.119C14.6639 24.0103 14.6255 23.9175 14.5486 23.8406C14.4717 23.7637 14.3789 23.7252 14.2701 23.7252C14.1614 23.7252 14.0685 23.7637 13.9916 23.8406C13.9147 23.9175 13.8763 24.0103 13.8763 24.119ZM13.845 24.2878L13.87 24.3816C13.9177 24.5286 14.0094 24.639 14.1451 24.7129L14.3639 24.8379C14.3978 24.8578 14.4332 24.8745 14.4702 24.8879L14.8452 25.0067C14.8921 25.0222 14.94 25.0326 14.989 25.038L15.5016 25.0942C15.5327 25.0983 15.564 25.1004 15.5954 25.1005L16.1892 25.088C16.2185 25.0877 16.2477 25.0856 16.2768 25.0817L16.8706 24.9942C16.9132 24.9875 16.9549 24.9771 16.9956 24.963L17.5457 24.7817C17.6032 24.7638 17.6574 24.7388 17.7083 24.7067L18.1459 24.4254C18.2599 24.3485 18.337 24.2443 18.3772 24.1128L18.4459 23.9003L18.646 23.7752C18.7542 23.6766 18.7694 23.5654 18.6915 23.4414C18.6135 23.3174 18.5067 23.2828 18.3709 23.3376L18.1896 23.4502L18.0021 23.3877C17.9119 23.359 17.8202 23.3528 17.727 23.3689L17.2144 23.4564C17.2081 23.4584 17.2019 23.4605 17.1957 23.4627L16.6518 23.5752L16.1205 23.6377L15.5766 23.6502L15.0765 23.644L14.6952 23.6314L14.4452 23.6252C14.3723 23.6223 14.3015 23.6327 14.2326 23.6565L14.1451 23.6877C14.0221 23.7307 13.9315 23.8104 13.8733 23.9269C13.815 24.0434 13.8056 24.1637 13.845 24.2878Z" fill="black"/>
<path d="M1.90553 13.8612C1.90553 13.9648 1.94215 14.0532 2.01539 14.1264C2.08863 14.1996 2.17703 14.2363 2.28061 14.2363C2.38418 14.2363 2.47258 14.1996 2.54582 14.1264C2.61906 14.0532 2.65568 13.9648 2.65568 13.8612C2.65568 13.7576 2.61906 13.6692 2.54582 13.596C2.47258 13.5227 2.38418 13.4861 2.28061 13.4861C2.17703 13.4861 2.08863 13.5227 2.01539 13.596C1.94215 13.6692 1.90553 13.7576 1.90553 13.8612ZM1.89928 13.8612C1.89934 13.9682 1.9372 14.0595 2.01287 14.1351C2.08854 14.2107 2.17987 14.2486 2.28686 14.2486C2.39385 14.2486 2.48517 14.2107 2.56085 14.1351C2.63652 14.0595 2.67438 13.9682 2.67443 13.8612C2.67438 13.7542 2.63652 13.6629 2.56085 13.5872C2.48517 13.5116 2.39385 13.4738 2.28686 13.4738C2.17987 13.4738 2.08854 13.5116 2.01287 13.5872C1.9372 13.6629 1.89933 13.7542 1.89928 13.8612ZM1.88678 13.8487C1.88678 13.9626 1.92706 14.0599 2.00762 14.1404C2.08818 14.221 2.18543 14.2613 2.29936 14.2613C2.41329 14.2613 2.51053 14.221 2.5911 14.1404C2.67166 14.0599 2.71194 13.9626 2.71194 13.8487C2.71194 13.7348 2.67166 13.6375 2.5911 13.5569C2.51053 13.4764 2.41329 13.4361 2.29936 13.4361C2.18543 13.4361 2.08818 13.4764 2.00762 13.5569C1.92706 13.6375 1.88678 13.7348 1.88678 13.8487ZM2.44314 14.2488L2.4994 14.2363C2.65332 14.1951 2.77001 14.1055 2.84946 13.9675L2.93698 13.8174C2.97421 13.7509 2.99922 13.68 3.01199 13.6049L3.06826 13.3298C3.07145 13.307 3.07353 13.2841 3.07451 13.2611L3.11201 12.8422L3.16202 12.2171L3.24329 11.367L3.34956 10.3168L3.49334 9.16029L3.69963 7.94131L3.96218 6.67857L4.28099 5.43458L4.60605 4.34062L4.93111 3.4342C4.93569 3.41973 4.93985 3.40514 4.94361 3.39044L5.15615 2.67155C5.17667 2.59789 5.185 2.52288 5.18116 2.44651L5.16866 2.01518L5.17491 1.8714L5.21241 1.82764C5.29916 1.71198 5.29142 1.60303 5.18919 1.5008C5.08695 1.39857 4.97801 1.39083 4.86235 1.47758L4.79358 1.54634L4.5998 1.60885C4.57596 1.61725 4.55304 1.62767 4.53103 1.64011L4.14346 1.85265C4.04096 1.90904 3.95761 1.98614 3.89341 2.08394L3.48083 2.70906C3.45064 2.75647 3.42564 2.80648 3.40582 2.85909L3.037 3.77801C3.02993 3.7986 3.02368 3.81944 3.01825 3.84053L2.67443 4.97199C2.66997 4.98439 2.6658 4.9969 2.66193 5.0095L2.33687 6.28474C2.33458 6.29512 2.3325 6.30554 2.33061 6.316L2.05556 7.60999C2.05328 7.62037 2.0512 7.63079 2.04931 7.64125L1.83052 8.89774C1.82794 8.91435 1.82585 8.93102 1.82427 8.94775L1.69924 10.1355C1.69703 10.1438 1.69495 10.1521 1.69299 10.1605L1.61173 11.2232C1.61153 11.2336 1.61153 11.244 1.61173 11.2544L1.58047 12.1171C1.57995 12.1338 1.57995 12.1504 1.58047 12.1671L1.59923 12.7985C1.60026 12.8215 1.60235 12.8444 1.60548 12.8672L1.64924 13.2798C1.65073 13.2966 1.65281 13.3132 1.65549 13.3298L1.71175 13.6049C1.71929 13.6521 1.73179 13.6979 1.74925 13.7424L1.81802 13.9049C1.85441 13.9911 1.90858 14.064 1.98055 14.1237L2.01806 14.155C2.14364 14.2593 2.28533 14.2905 2.44314 14.2488Z" fill="black"/>
<path d="M3.30578 7.37248L3.31828 7.34747C3.29192 7.37965 3.27108 7.41507 3.25577 7.45374L3.38704 7.28496C3.41245 7.25223 3.43329 7.21681 3.44955 7.17869L3.64334 6.72235C3.64554 6.71614 3.64763 6.70989 3.64959 6.7036L3.92464 5.95346C3.93643 5.92098 3.94477 5.88764 3.94965 5.85344L4.09968 4.89701L4.47475 4.04685C4.50858 3.91105 4.46155 3.81474 4.33367 3.75791C4.20579 3.70107 4.10279 3.73071 4.02466 3.84681L3.63709 4.70322L3.05573 5.47837C3.03049 5.5112 3.00965 5.54663 2.99322 5.58464L2.68691 6.32228C2.67695 6.34461 2.66862 6.36753 2.6619 6.39104L2.53688 6.87238C2.52267 6.9279 2.5185 6.98416 2.52438 7.04117L2.54938 7.25371C2.55187 7.28571 2.55812 7.31697 2.56814 7.34747L2.58064 7.37248C2.64375 7.53956 2.76461 7.62309 2.94321 7.62309C3.12181 7.62309 3.24266 7.53956 3.30578 7.37248Z" fill="black"/>
<path d="M1.44349 19.2493C1.44349 19.3563 1.48133 19.4476 1.55701 19.5233C1.63269 19.599 1.72404 19.6368 1.83107 19.6368C1.93809 19.6368 2.02944 19.599 2.10512 19.5233C2.1808 19.4476 2.21864 19.3563 2.21864 19.2493C2.21864 19.1422 2.1808 19.0509 2.10512 18.9752C2.02944 18.8995 1.93809 18.8617 1.83107 18.8617C1.72404 18.8617 1.63269 18.8995 1.55701 18.9752C1.48133 19.0509 1.44349 19.1422 1.44349 19.2493ZM1.41224 19.2368C1.41224 19.3524 1.45313 19.4511 1.53491 19.5329C1.61669 19.6147 1.71541 19.6556 1.83107 19.6556C1.94672 19.6556 2.04544 19.6147 2.12722 19.5329C2.209 19.4511 2.2499 19.3524 2.2499 19.2368C2.2499 19.1211 2.209 19.0224 2.12722 18.9406C2.04544 18.8588 1.94672 18.8179 1.83107 18.8179C1.71541 18.8179 1.61669 18.8588 1.53491 18.9406C1.45313 19.0224 1.41224 19.1211 1.41224 19.2368ZM1.45599 18.9867L1.42474 19.0367C1.40417 19.0681 1.3875 19.1015 1.37473 19.1368L1.33097 19.2368C1.31931 19.2693 1.31097 19.3026 1.30597 19.3368L1.28096 19.4931C1.27449 19.5219 1.27033 19.5511 1.26846 19.5806V19.7744C1.26697 19.8121 1.26905 19.8496 1.27471 19.8869L1.31222 20.0932C1.31598 20.1058 1.32014 20.1183 1.32472 20.1307L1.37473 20.337L1.40598 20.6183C1.40902 20.6414 1.41318 20.6643 1.41849 20.687L1.53726 21.1934L1.69979 21.981L1.89358 23C1.89558 23.0063 1.89766 23.0125 1.89983 23.0187L2.14363 24.1127C2.14549 24.1232 2.14758 24.1336 2.14988 24.144L2.41868 25.1379C2.42241 25.1526 2.42658 25.1672 2.43118 25.1817L2.69998 25.9943C2.70193 26.0027 2.70401 26.011 2.70623 26.0193L2.92502 26.6194C2.92703 26.6257 2.92911 26.632 2.93128 26.6382L3.10006 27.0508C3.10005 27.0528 3.10005 27.0549 3.10006 27.057L3.20008 27.3071L3.25634 27.4633C3.25633 27.4654 3.25633 27.4675 3.25634 27.4696L3.28759 27.5509C3.28659 27.4583 3.26992 27.3687 3.23758 27.2821V27.3196C3.2967 27.5051 3.40892 27.6494 3.57424 27.7524C3.73956 27.8554 3.91854 27.8926 4.11118 27.8638C4.30383 27.8351 4.46418 27.7473 4.59224 27.6006C4.7203 27.4538 4.78551 27.283 4.78788 27.0883L4.78163 27.0758C4.76634 27.0214 4.74551 26.9694 4.71912 26.9195L4.69411 26.882C4.71019 26.932 4.73103 26.9799 4.75662 27.0258L4.74412 26.9757C4.72683 26.9212 4.70391 26.8691 4.67536 26.8195L4.65035 26.7757C4.61839 26.7234 4.58089 26.6755 4.53783 26.6319L4.50657 26.6007C4.30367 26.3865 4.05779 26.3094 3.76893 26.3694L3.72518 26.3756C3.5222 26.4167 3.35967 26.5209 3.23758 26.6882L3.13131 26.8445C3.10258 26.8839 3.07758 26.9256 3.0563 26.9695L2.85626 27.3883C2.85201 27.3945 2.84784 27.4008 2.84376 27.4071L2.52495 28.126C2.52279 28.1322 2.52071 28.1384 2.5187 28.1447L2.12487 29.0886C2.12278 29.0907 2.12069 29.0928 2.11862 29.0949L1.68104 30.1701C1.67894 30.1722 1.67686 30.1743 1.67479 30.1764L1.2247 31.3141C1.22039 31.3223 1.21622 31.3307 1.2122 31.3391L0.818373 32.4518C0.811237 32.4724 0.804986 32.4932 0.79962 32.5143L0.53707 33.502C0.52513 33.5513 0.518879 33.6013 0.518316 33.652L0.499562 34.4022L0.48706 34.871L0.405795 35.1335C0.351617 35.3044 0.409962 35.4169 0.580828 35.4711C0.751694 35.5253 0.864215 35.4669 0.918392 35.2961L0.999658 35.0398L1.26846 34.671L1.71854 34.0771C1.74736 34.0421 1.77236 34.0046 1.79356 33.9646L2.23739 33.0456C2.24171 33.0374 2.24588 33.0291 2.2499 33.0206L2.72499 31.9454C2.7292 31.9413 2.73337 31.9371 2.73749 31.9329L3.20633 30.8015L3.65016 29.7263L4.04399 28.7886L4.35655 28.076L4.54408 27.6509L4.61285 27.4821C4.40337 27.5608 4.25334 27.7025 4.16276 27.9072L4.20027 27.8884C3.96388 27.6661 3.693 27.6098 3.38761 27.7196L3.41887 27.7509C3.37842 27.6807 3.32841 27.6182 3.26884 27.5634L3.27509 27.5696L3.28134 27.5821C3.28134 27.5842 3.28134 27.5863 3.28134 27.5884L3.3001 27.6259C3.32376 27.6791 3.35294 27.7291 3.38761 27.7759L3.39386 27.7884C3.62114 28.0948 3.91605 28.1886 4.27859 28.0699C4.64113 27.9512 4.8234 27.701 4.82539 27.3196V27.2821C4.82423 27.1779 4.80339 27.0779 4.76287 26.982L4.73162 26.907L4.66911 26.7444C4.66509 26.736 4.66092 26.7277 4.6566 26.7194L4.54408 26.4569L4.3753 26.0631L4.15651 25.488L3.90021 24.7128L3.63766 23.7501L3.37511 22.6874L3.16257 21.681C3.16052 21.6768 3.15844 21.6726 3.15632 21.6685L2.97503 20.8683C2.9685 20.8386 2.96017 20.8095 2.95003 20.7808L2.76874 20.287C2.74885 20.2383 2.72385 20.1925 2.69373 20.1494L2.54995 19.9244L2.48119 19.7744L2.43118 19.6056C2.4292 19.5993 2.42712 19.5931 2.42493 19.5868L2.36242 19.4056L2.31241 19.2555C2.31044 19.2492 2.30836 19.243 2.30616 19.2368L2.2624 19.1368C2.26044 19.1305 2.25836 19.1242 2.25615 19.118L2.23739 19.068C2.16784 18.9064 2.04554 18.8164 1.87052 18.7982C1.6955 18.78 1.55732 18.8429 1.45599 18.9867Z" fill="black"/>
<path d="M1.89349 18.3491C1.89349 18.4613 1.93316 18.557 2.0125 18.6364C2.09184 18.7157 2.18761 18.7554 2.29981 18.7554C2.41202 18.7554 2.50779 18.7157 2.58713 18.6364C2.66647 18.557 2.70614 18.4613 2.70614 18.3491C2.70614 18.2369 2.66647 18.1411 2.58713 18.0617C2.50779 17.9824 2.41202 17.9427 2.29981 17.9427C2.18761 17.9427 2.09184 17.9824 2.0125 18.0617C1.93316 18.1411 1.89349 18.2369 1.89349 18.3491ZM1.87473 18.3491C1.87473 18.4664 1.91623 18.5666 1.99924 18.6496C2.08224 18.7326 2.18243 18.7741 2.29981 18.7741C2.4172 18.7741 2.51739 18.7326 2.60039 18.6496C2.68339 18.5666 2.72489 18.4664 2.72489 18.3491C2.72489 18.2317 2.68339 18.1315 2.60039 18.0485C2.51739 17.9655 2.4172 17.924 2.29981 17.924C2.18243 17.924 2.08224 17.9655 1.99924 18.0485C1.91623 18.1315 1.87473 18.2317 1.87473 18.3491ZM1.89349 18.1115L1.86848 18.1553C1.81021 18.2586 1.78937 18.3691 1.80597 18.4866L1.83723 18.7116C1.84137 18.7392 1.84762 18.7663 1.85598 18.7929L1.981 19.1992C1.99127 19.2364 2.00586 19.2718 2.02476 19.3055L2.2373 19.6618L2.29356 20.0744C2.34034 20.2267 2.44264 20.292 2.60047 20.2705C2.75831 20.249 2.83937 20.1586 2.84367 19.9994L2.78741 19.5805L2.88743 19.1742C2.89821 19.1375 2.90446 19.1 2.90618 19.0617V18.6366C2.90537 18.5921 2.89912 18.5483 2.88743 18.5053L2.83116 18.2865C2.78933 18.1079 2.68306 17.985 2.51235 17.9177L2.46234 17.9052C2.21464 17.8138 2.02502 17.8826 1.89349 18.1115Z" fill="black"/>
<path d="M5.11282 25.5004L5.06281 25.4879C5.03821 25.4813 5.01321 25.4771 4.9878 25.4754L4.88778 25.4692C4.85444 25.4651 4.8211 25.4651 4.78776 25.4692L4.64398 25.4942C4.61154 25.501 4.58029 25.5114 4.55022 25.5254L4.38143 25.5942C4.35282 25.6059 4.32573 25.6205 4.30017 25.6379L4.13764 25.7567C4.10241 25.7816 4.07115 25.8108 4.04387 25.8442L3.86884 26.0505C3.83117 26.0956 3.802 26.1456 3.78132 26.2005L3.66255 26.5194C3.6471 26.5598 3.63668 26.6014 3.63129 26.6444L3.59378 27.0069C3.58646 27.0656 3.58854 27.124 3.60004 27.182L3.67505 27.5383C3.68972 27.6081 3.7168 27.6727 3.75632 27.7321L3.96886 28.0509C4.00539 28.1094 4.05124 28.1594 4.10638 28.2009L4.45645 28.4447C4.50814 28.4813 4.5644 28.5084 4.62523 28.526L5.05656 28.651C5.11562 28.6693 5.17605 28.6776 5.23785 28.676L5.71294 28.651C5.76652 28.648 5.81862 28.6376 5.86922 28.6198L6.33181 28.4635C6.38077 28.4468 6.42662 28.4239 6.46933 28.3947L6.87566 28.1134C6.91199 28.09 6.94533 28.0629 6.97568 28.0321L7.29449 27.6821C7.33432 27.641 7.36766 27.5951 7.39451 27.5446L7.59455 27.1507C7.62649 27.0875 7.64733 27.0208 7.65706 26.9507L7.70707 26.5444C7.7226 26.4355 7.71218 26.3293 7.67581 26.2256L7.53829 25.8442C7.50477 25.7475 7.45268 25.662 7.38201 25.5879L7.04444 25.2504C6.9998 25.204 6.94979 25.1644 6.89441 25.1316L6.41932 24.8503C6.36798 24.8207 6.3138 24.7977 6.25679 24.7815L5.69418 24.619C5.62488 24.5981 5.55404 24.5876 5.48164 24.5877L4.88778 24.594C4.79974 24.5933 4.7143 24.6079 4.63148 24.6377L4.10013 24.844C4.01176 24.8768 3.93258 24.9247 3.86259 24.9878L3.44376 25.3629C3.37508 25.4274 3.3209 25.5024 3.28123 25.5879L3.03118 26.1005C2.98628 26.1912 2.96128 26.287 2.95616 26.3881L2.93741 26.9382C2.93398 27.026 2.94648 27.1114 2.97492 27.1945L3.14995 27.7071C3.1922 27.8274 3.26305 27.9274 3.36249 28.0071L3.76882 28.3385C3.84628 28.3987 3.9338 28.4341 4.03137 28.4447L4.44395 28.501L4.82527 28.6823C4.9794 28.7571 5.09395 28.7175 5.16891 28.5634C5.24386 28.4093 5.20433 28.2948 5.05031 28.2197L4.71275 28.0634L4.57522 27.7446L4.43144 27.3195L4.36268 26.9444L4.40019 26.6319L4.53146 26.3568L4.73775 26.1755L5.03781 26.063L5.40663 26.0505L5.7942 26.1505L6.11301 26.3256L6.30055 26.5069L6.36931 26.6444L6.38182 26.7757L6.31305 26.9757L6.12552 27.2132L5.86297 27.4195L5.56916 27.532L5.27535 27.5446L5.02531 27.4758L4.83152 27.3445L4.73775 27.2007L4.69399 27.0195L4.7065 26.7882L4.76901 26.5319L4.81902 26.3881L4.85027 26.3506L4.92529 26.3131L5.0128 26.2693L5.07532 26.2443L5.11282 26.2381C5.30248 26.1883 5.3973 26.0653 5.3973 25.8692C5.3973 25.6732 5.30248 25.5502 5.11282 25.5004Z" fill="black"/>
<path d="M4.23766 20.1369C4.23766 20.3536 4.34601 20.4619 4.56272 20.4619C4.77943 20.4619 4.88778 20.3536 4.88778 20.1369C4.88778 19.9202 4.77943 19.8118 4.56272 19.8118C4.34601 19.8118 4.23766 19.9202 4.23766 20.1369ZM4.61898 19.7431L4.58773 19.7368C4.35195 19.68 4.18777 19.7636 4.09521 19.9878C4.00264 20.212 4.05995 20.3871 4.26715 20.5132C4.47434 20.6393 4.65621 20.6097 4.81277 20.4244L4.83778 20.3932C4.8815 20.3391 4.90951 20.2779 4.92181 20.2095C4.9341 20.1411 4.92916 20.0739 4.90699 20.008C4.88482 19.9421 4.84815 19.8856 4.79698 19.8386C4.74582 19.7915 4.68649 19.7597 4.61898 19.7431ZM4.06888 19.8681L3.96886 19.9806C3.85904 20.1058 3.80695 20.2517 3.81258 20.4182L3.81883 20.8058C3.82082 20.8609 3.82915 20.9151 3.84384 20.9683L4.01262 21.6059C4.01956 21.6314 4.0279 21.6564 4.03762 21.6809L4.36268 22.5248C4.36828 22.5418 4.37453 22.5584 4.38144 22.5748L4.80027 23.475C4.80764 23.4942 4.81597 23.513 4.82527 23.5313L5.28786 24.3127L5.60667 25.0128C5.61056 25.0213 5.61473 25.0296 5.61917 25.0378L5.88798 25.5379C5.91452 25.5871 5.94995 25.6288 5.99425 25.6629L6.22554 25.838L6.31306 25.9567C6.42142 26.0941 6.54434 26.1087 6.6818 26.0004C6.81926 25.8921 6.83387 25.7692 6.72563 25.6317L6.65687 25.5442L6.61936 25.2941C6.61491 25.2618 6.60658 25.2306 6.59436 25.2003L6.38182 24.6815L6.11927 23.9814L5.93173 23.0999C5.92798 23.0873 5.92381 23.0748 5.91923 23.0624L5.64418 22.0998L5.39413 21.2246C5.39206 21.2225 5.38998 21.2204 5.38788 21.2183L5.20034 20.5807C5.193 20.5595 5.18467 20.5386 5.17534 20.5182L5.03156 20.1619C5.00933 20.1078 4.98016 20.0578 4.94405 20.0119L4.85028 19.8931C4.75299 19.7669 4.62472 19.7013 4.46548 19.6962C4.30623 19.6911 4.17403 19.7484 4.06888 19.8681Z" fill="black"/>
<path d="M4.63785 22.1186C4.63785 22.2273 4.6763 22.3201 4.7532 22.397C4.83009 22.4739 4.92292 22.5124 5.03167 22.5124C5.14042 22.5124 5.23325 22.4739 5.31015 22.397C5.38705 22.3201 5.4255 22.2273 5.4255 22.1186C5.4255 22.0098 5.38705 21.917 5.31015 21.8401C5.23325 21.7632 5.14042 21.7247 5.03167 21.7247C4.92292 21.7247 4.83009 21.7632 4.7532 21.8401C4.6763 21.917 4.63785 22.0098 4.63785 22.1186ZM4.62535 22.0623L4.61284 22.1561C4.59895 22.2321 4.60311 22.3071 4.62535 22.3811L4.70661 22.6374C4.72795 22.7045 4.76129 22.7649 4.80663 22.8187L5.08793 23.1625C5.10149 23.1781 5.11607 23.1927 5.13169 23.2063L5.43175 23.4813L5.59428 23.8064C5.67771 23.9686 5.80061 24.0082 5.96297 23.9249C6.12533 23.8416 6.16497 23.7188 6.08187 23.5563L5.91309 23.2313L5.86308 22.8249C5.8587 22.8015 5.85245 22.7786 5.84433 22.7562L5.72555 22.3311C5.70498 22.2618 5.67164 22.1993 5.62554 22.1436L5.4505 21.931C5.42277 21.8999 5.39151 21.8728 5.35673 21.8498L5.28172 21.7935C5.22315 21.7516 5.15809 21.7264 5.08655 21.7181C5.015 21.7097 4.9459 21.7192 4.87925 21.7465C4.81259 21.7738 4.7567 21.8155 4.71157 21.8716C4.66643 21.9278 4.63769 21.9913 4.62535 22.0623Z" fill="black"/>
<path d="M6.60692 28.1697C6.60692 28.2698 6.64232 28.3553 6.71311 28.4261C6.78391 28.4969 6.86937 28.5323 6.96949 28.5323C7.06961 28.5323 7.15507 28.4969 7.22586 28.4261C7.29666 28.3553 7.33206 28.2698 7.33206 28.1697C7.33206 28.0696 7.29666 27.9841 7.22586 27.9133C7.15507 27.8425 7.06961 27.8071 6.96949 27.8071C6.86937 27.8071 6.78391 27.8425 6.71311 27.9133C6.64232 27.9841 6.60692 28.0696 6.60692 28.1697ZM6.53816 28.0447L6.46314 28.226C6.44472 28.2702 6.43222 28.316 6.42564 28.3635L6.36312 28.8386C6.35871 28.8697 6.35662 28.9009 6.35687 28.9323L6.36312 29.6762C6.36287 29.6867 6.36287 29.6971 6.36312 29.7075L6.41939 30.6014C6.41922 30.6098 6.41922 30.6181 6.41939 30.6264L6.5069 31.5578C6.50873 31.5683 6.51081 31.5787 6.51315 31.5891L6.63818 32.4393C6.64016 32.4455 6.64224 32.4518 6.64443 32.458L6.7632 33.1644C6.76693 33.1771 6.7711 33.1896 6.7757 33.2019L6.90073 33.7145C6.91006 33.747 6.92256 33.7783 6.93823 33.8083L7.06951 34.0958C7.15231 34.2729 7.29059 34.3486 7.48435 34.323C7.67811 34.2973 7.79196 34.1883 7.8259 33.9958L7.88216 33.6833C7.88646 33.6563 7.88855 33.6292 7.88842 33.602L7.89467 33.0706C7.89508 33.0581 7.89508 33.0456 7.89467 33.0331L7.85716 32.3205C7.85722 32.3163 7.85722 32.3122 7.85716 32.308L7.79465 31.4516C7.79465 31.4495 7.79465 31.4474 7.79465 31.4453L7.71963 30.5139L7.66337 29.6325L7.61961 28.8886C7.61928 28.8614 7.6172 28.8343 7.61336 28.8073L7.51959 28.3322C7.51049 28.2866 7.49591 28.2429 7.47584 28.201L7.38832 28.0197C7.30279 27.8351 7.15835 27.7458 6.95499 27.7517C6.75163 27.7577 6.61269 27.8554 6.53816 28.0447ZM7.63837 34.2209L7.65087 34.2084C7.77139 34.0875 7.77131 33.9667 7.65062 33.846C7.52993 33.7253 7.40916 33.7253 7.2883 33.8458L7.2758 33.8583C7.15513 33.9791 7.15518 34.1 7.27594 34.2207C7.39671 34.3415 7.51751 34.3415 7.63837 34.2209Z" fill="black"/>
<path d="M6.54436 29.3761C6.54436 29.4797 6.58098 29.5681 6.65421 29.6413C6.72745 29.7146 6.81586 29.7512 6.91943 29.7512C7.023 29.7512 7.11141 29.7146 7.18464 29.6413C7.25788 29.5681 7.2945 29.4797 7.2945 29.3761C7.2945 29.2726 7.25788 29.1841 7.18464 29.1109C7.11141 29.0377 7.023 29.0011 6.91943 29.0011C6.81586 29.0011 6.72745 29.0377 6.65421 29.1109C6.58098 29.1841 6.54436 29.2726 6.54436 29.3761ZM6.48185 29.3386C6.48196 29.4594 6.52474 29.5624 6.61016 29.6478C6.69559 29.7331 6.79868 29.7758 6.91943 29.7758C7.04018 29.7758 7.14327 29.7331 7.2287 29.6478C7.31412 29.5624 7.35689 29.4594 7.35701 29.3386C7.35689 29.2179 7.31412 29.1148 7.2287 29.0295C7.14327 28.9441 7.04018 28.9015 6.91943 28.9015C6.79868 28.9015 6.69559 28.9441 6.61016 29.0295C6.52474 29.1148 6.48196 29.2179 6.48185 29.3386ZM6.43809 29.2324L6.36932 29.4449C6.35248 29.502 6.34415 29.5604 6.34432 29.6199L6.33182 30.1575C6.33103 30.1763 6.33103 30.195 6.33182 30.2138L6.37558 31.0514C6.3775 31.0598 6.37959 31.0682 6.38183 31.0765L6.47559 32.0766C6.47672 32.0976 6.47881 32.1184 6.48185 32.1392L6.65688 33.1018C6.66333 33.1295 6.67166 33.1566 6.68188 33.1831L6.93818 33.9457C6.94802 33.9741 6.96052 34.0012 6.97569 34.027L7.22574 34.4708L7.2945 34.7897C7.33987 34.9373 7.43829 34.996 7.58976 34.9657C7.74122 34.9354 7.8095 34.8434 7.7946 34.6896L7.73208 34.3708L7.8196 33.8832C7.82261 33.8667 7.82469 33.85 7.82585 33.8332L7.87586 33.0268C7.87672 33.0081 7.87672 32.9893 7.87586 32.9706L7.8446 31.9891C7.84276 31.9787 7.84068 31.9682 7.83835 31.9579L7.76334 30.9577C7.76127 30.9556 7.75919 30.9535 7.75709 30.9514L7.68207 30.1138C7.67932 30.0885 7.67515 30.0635 7.66957 30.0388L7.55705 29.5074C7.54579 29.4437 7.52495 29.3832 7.49454 29.3261L7.38202 29.1323C7.26975 28.9369 7.10157 28.8511 6.87747 28.8749C6.65338 28.8986 6.50692 29.0178 6.43809 29.2324Z" fill="black"/>
<path d="M1.18091 34.6147C1.18091 34.7217 1.21875 34.8131 1.29443 34.8887C1.37011 34.9644 1.46146 35.0023 1.56849 35.0023C1.67551 35.0023 1.76686 34.9644 1.84254 34.8887C1.91822 34.8131 1.95606 34.7217 1.95606 34.6147C1.95606 34.5077 1.91822 34.4163 1.84254 34.3406C1.76686 34.2649 1.67551 34.2271 1.56849 34.2271C1.46146 34.2271 1.37011 34.2649 1.29443 34.3406C1.21875 34.4163 1.18091 34.5077 1.18091 34.6147ZM1.14966 34.6209C1.14966 34.7331 1.18933 34.8289 1.26867 34.9082C1.34801 34.9876 1.44378 35.0273 1.55598 35.0273C1.66819 35.0273 1.76396 34.9876 1.8433 34.9082C1.92264 34.8289 1.96231 34.7331 1.96231 34.6209C1.96231 34.5087 1.92264 34.413 1.8433 34.3336C1.76396 34.2543 1.66819 34.2146 1.55598 34.2146C1.44378 34.2146 1.34801 34.2543 1.26867 34.3336C1.18933 34.413 1.14966 34.5087 1.14966 34.6209ZM1.06839 34.6397C1.06839 34.7674 1.11355 34.8765 1.20388 34.9668C1.29421 35.0571 1.40324 35.1023 1.53098 35.1023C1.65872 35.1023 1.76775 35.0571 1.85808 34.9668C1.9484 34.8765 1.99357 34.7674 1.99357 34.6397C1.99357 34.5119 1.9484 34.4029 1.85808 34.3126C1.76775 34.2223 1.65872 34.1771 1.53098 34.1771C1.40324 34.1771 1.29421 34.2223 1.20388 34.3126C1.11355 34.4029 1.06839 34.5119 1.06839 34.6397ZM0.937116 34.6709C0.937116 34.8263 0.992044 34.9589 1.1019 35.0688C1.21176 35.1786 1.34436 35.2335 1.49972 35.2335C1.65508 35.2335 1.78769 35.1786 1.89755 35.0688C2.0074 34.9589 2.06233 34.8263 2.06233 34.6709C2.06233 34.5156 2.0074 34.383 1.89755 34.2731C1.78769 34.1633 1.65508 34.1083 1.49972 34.1083C1.34436 34.1083 1.21176 34.1633 1.1019 34.2731C0.992044 34.383 0.937116 34.5156 0.937116 34.6709ZM0.824594 34.4959L0.818343 34.5147C0.746518 34.7365 0.769381 34.948 0.886933 35.1494C1.00448 35.3507 1.17749 35.4746 1.40596 35.5211L1.64975 35.5711C1.72005 35.5846 1.7909 35.5887 1.86229 35.5836L2.34988 35.5524C2.37289 35.5512 2.39581 35.5492 2.41865 35.5461L3.11253 35.4398C3.12508 35.438 3.13758 35.436 3.15004 35.4336L3.97519 35.2648C3.98145 35.2649 3.9877 35.2649 3.99395 35.2648L4.82536 35.0773C4.84226 35.0716 4.85893 35.0654 4.87537 35.0585L5.62551 34.8335C5.62759 34.8335 5.62968 34.8335 5.63176 34.8335L6.24438 34.6397C6.25918 34.6363 6.27377 34.6321 6.28813 34.6272L6.66946 34.4584L6.96326 34.4459C7.13392 34.4374 7.21509 34.3478 7.20677 34.1771C7.19844 34.0064 7.10894 33.9252 6.93826 33.9333L6.6507 33.9458L6.25063 33.8145C6.22415 33.8056 6.19706 33.7994 6.16936 33.7958L5.53174 33.7145C5.51723 33.7119 5.50265 33.7098 5.48798 33.7083L4.70658 33.6645C4.68158 33.6632 4.65657 33.6632 4.63157 33.6645L3.77516 33.7083C3.75842 33.7098 3.74175 33.7119 3.72515 33.7145L2.89374 33.8145C2.88957 33.8145 2.8854 33.8145 2.88124 33.8145L2.19986 33.902L1.73727 33.9458C1.73518 33.9458 1.7331 33.9458 1.73102 33.9458L1.48097 33.9708C1.30797 33.9895 1.15794 34.0582 1.03088 34.1771L1.01213 34.1896C0.92278 34.2753 0.860268 34.3774 0.824594 34.4959Z" fill="black"/>
<path d="M3.72508 34.8647C3.72508 34.97 3.76231 35.0599 3.83677 35.1343C3.91123 35.2088 4.00111 35.246 4.1064 35.246C4.2117 35.246 4.30158 35.2088 4.37604 35.1343C4.4505 35.0599 4.48773 34.97 4.48773 34.8647C4.48773 34.7594 4.4505 34.6695 4.37604 34.595C4.30158 34.5206 4.2117 34.4834 4.1064 34.4834C4.00111 34.4834 3.91123 34.5206 3.83677 34.595C3.76231 34.6695 3.72508 34.7594 3.72508 34.8647ZM3.60631 34.8647C3.60631 34.9907 3.65086 35.0983 3.73997 35.1874C3.82907 35.2765 3.93663 35.321 4.06265 35.321C4.18866 35.321 4.29622 35.2765 4.38532 35.1874C4.47443 35.0983 4.51898 34.9907 4.51898 34.8647C4.51898 34.7387 4.47443 34.6311 4.38532 34.542C4.29622 34.4529 4.18866 34.4084 4.06265 34.4084C3.93663 34.4084 3.82907 34.4529 3.73997 34.542C3.65086 34.6311 3.60631 34.7387 3.60631 34.8647ZM3.49379 34.8584C3.49379 35.0034 3.54505 35.1272 3.64759 35.2297C3.75012 35.3323 3.87389 35.3835 4.01889 35.3835C4.16389 35.3835 4.28766 35.3323 4.39019 35.2297C4.49272 35.1272 4.54399 35.0034 4.54399 34.8584C4.54399 34.7134 4.49272 34.5897 4.39019 34.4871C4.28766 34.3846 4.16389 34.3333 4.01889 34.3333C3.87389 34.3333 3.75012 34.3846 3.64759 34.4871C3.54505 34.5897 3.49379 34.7134 3.49379 34.8584ZM3.66257 35.3835L3.71883 35.4148C3.85087 35.4978 3.99465 35.5333 4.15016 35.5211L4.78153 35.4711C4.79618 35.4694 4.81077 35.4673 4.82529 35.4648L5.35664 35.3898C5.37136 35.3861 5.38594 35.3819 5.4004 35.3773L6.00677 35.2523C6.01514 35.2503 6.02347 35.2482 6.03177 35.246L6.65064 35.096C6.65901 35.094 6.66735 35.092 6.67564 35.0897L7.2195 34.9397C7.22366 34.9398 7.22783 34.9398 7.232 34.9397L7.65083 34.8147L7.93838 34.7459C7.96161 34.7408 7.98453 34.7345 8.00715 34.7272L8.15718 34.6709C8.03562 34.6496 7.91685 34.6601 7.80086 34.7022L7.83837 34.7084C8.12661 34.5622 8.2461 34.3294 8.19684 34.0099C8.14757 33.6905 7.96348 33.5045 7.64458 33.4519L7.60707 33.4707L7.50705 33.5019L7.30076 33.5457C7.27965 33.551 7.25881 33.5573 7.23825 33.5644L7.01321 33.6332C6.98763 33.6422 6.96262 33.6527 6.93819 33.6645L6.80067 33.727C6.60001 33.8132 6.46313 33.9593 6.39004 34.1651C6.31694 34.3709 6.33105 34.5706 6.43237 34.7641C6.53368 34.9576 6.68974 35.0829 6.90054 35.1401C7.11134 35.1973 7.30934 35.168 7.49455 35.0522L7.57582 35.0022L7.7446 34.9272C7.77245 34.9164 7.79954 34.9039 7.82586 34.8897L8.01965 34.7772L8.17593 34.6897C8.17801 34.6897 8.1801 34.6897 8.18218 34.6897L8.27595 34.6396C8.5648 34.4862 8.67941 34.2486 8.61976 33.927L8.61351 33.8895C8.55242 33.5458 8.34821 33.3561 8.0009 33.3206L7.83837 33.3019C7.7648 33.295 7.69187 33.2992 7.61957 33.3144L7.31327 33.3769C7.29225 33.3802 7.27141 33.3843 7.25075 33.3894L6.82567 33.5144L6.29432 33.6582L5.69421 33.802L5.1191 33.9208L4.60025 34.002C4.59606 34.0041 4.59189 34.0062 4.58775 34.0083L3.96888 34.1145C3.73203 34.1565 3.56116 34.2857 3.45628 34.5021L3.43128 34.5584C3.35942 34.7053 3.34556 34.8575 3.38971 35.015C3.43386 35.1725 3.52481 35.2954 3.66257 35.3835ZM6.37559 34.4209C6.37559 34.6194 6.44577 34.7888 6.58614 34.9292C6.72651 35.0696 6.89596 35.1397 7.09447 35.1397C7.29299 35.1397 7.46243 35.0696 7.6028 34.9292C7.74317 34.7888 7.81336 34.6194 7.81336 34.4209C7.81336 34.2223 7.74317 34.0529 7.6028 33.9125C7.46243 33.7722 7.29299 33.702 7.09447 33.702C6.89596 33.702 6.72651 33.7722 6.58614 33.9125C6.44577 34.0529 6.37559 34.2223 6.37559 34.4209ZM6.7194 34.3583C6.7194 34.4964 6.76823 34.6143 6.86588 34.712C6.96353 34.8096 7.0814 34.8584 7.2195 34.8584C7.35759 34.8584 7.47547 34.8096 7.57312 34.712C7.67077 34.6143 7.71959 34.4964 7.71959 34.3583C7.71959 34.2202 7.67077 34.1024 7.57312 34.0047C7.47547 33.9071 7.35759 33.8582 7.2195 33.8582C7.0814 33.8582 6.96353 33.9071 6.86588 34.0047C6.76823 34.1024 6.7194 34.2202 6.7194 34.3583ZM7.52581 34.4771L7.72584 34.3708C7.85045 34.2846 7.87738 34.1745 7.80665 34.0405C7.73592 33.9065 7.6298 33.8665 7.4883 33.9208L7.28826 34.027C7.16366 34.1133 7.13672 34.2234 7.20745 34.3574C7.27818 34.4914 7.3843 34.5313 7.52581 34.4771Z" fill="black"/>
<path d="M11.2324 12.3484C11.2324 12.452 11.269 12.5404 11.3423 12.6137C11.4155 12.6869 11.5039 12.7235 11.6075 12.7235C11.7111 12.7235 11.7995 12.6869 11.8727 12.6137C11.9459 12.5404 11.9826 12.452 11.9826 12.3484C11.9826 12.2449 11.9459 12.1565 11.8727 12.0832C11.7995 12.01 11.7111 11.9734 11.6075 11.9734C11.5039 11.9734 11.4155 12.01 11.3423 12.0832C11.269 12.1565 11.2324 12.2449 11.2324 12.3484ZM11.495 11.9859L11.4637 11.9921C11.4352 12.0015 11.4081 12.014 11.3824 12.0296L11.3387 12.0546C11.3064 12.0735 11.2772 12.0965 11.2512 12.1234L11.1699 12.2047C11.1367 12.2378 11.1096 12.2753 11.0886 12.3172L11.0074 12.4922C10.9873 12.5298 10.9727 12.5694 10.9636 12.611L10.9199 12.8861C10.9121 12.9274 10.91 12.9691 10.9136 13.0111L10.9449 13.3299C10.953 13.4334 10.9926 13.523 11.0636 13.5987L11.2012 13.7425L11.2512 13.9363C11.297 14.1029 11.4033 14.1634 11.57 14.1175C11.7367 14.0717 11.7971 13.9654 11.7513 13.7987L11.7075 13.6362L11.7825 13.4862C11.8084 13.4328 11.823 13.3766 11.8263 13.3174L11.8388 13.0111L11.8763 12.761C11.8763 12.7589 11.8763 12.7569 11.8763 12.7548L11.895 12.6047L11.9075 12.5735L11.9138 12.561C11.8725 12.5939 11.8392 12.6335 11.8138 12.6798L11.8325 12.661C11.9902 12.53 12.0232 12.3729 11.9315 12.1896C11.8399 12.0062 11.6943 11.9383 11.495 11.9859Z" fill="black"/>
<path d="M10.8198 12.5422C10.8198 12.6475 10.8571 12.7373 10.9315 12.8118C11.006 12.8862 11.0958 12.9234 11.2011 12.9234C11.3064 12.9234 11.3962 12.8862 11.4707 12.8118C11.5451 12.7373 11.5824 12.6475 11.5824 12.5422C11.5824 12.4369 11.5451 12.3471 11.4707 12.2727C11.3962 12.1982 11.3064 12.161 11.2011 12.161C11.0958 12.161 11.006 12.1982 10.9315 12.2727C10.8571 12.3471 10.8198 12.4369 10.8198 12.5422ZM11.4074 12.2109L11.3949 12.2046C11.2226 12.1014 11.0559 12.1097 10.8948 12.2297L10.7823 12.3109C10.7442 12.3396 10.7109 12.3729 10.6823 12.4109L10.5385 12.6047C10.5167 12.6341 10.4979 12.6654 10.4822 12.6985L10.3322 13.0173C10.3134 13.0554 10.2989 13.095 10.2884 13.1361L10.1947 13.5174C10.1836 13.5605 10.1774 13.6042 10.1759 13.6487L10.1634 14.0487C10.1608 14.1014 10.165 14.1535 10.1759 14.205L10.2572 14.5613C10.2789 14.6547 10.3206 14.738 10.3822 14.8114L10.5947 15.0677C10.6433 15.126 10.7016 15.1719 10.7698 15.2052L11.0261 15.3302C11.1311 15.3821 11.2394 15.3904 11.3511 15.3552L11.4762 15.3177L11.6324 15.349C11.7895 15.363 11.8832 15.2926 11.9134 15.1378C11.9436 14.983 11.8833 14.8825 11.7325 14.8364L11.6512 14.8239L11.6262 14.7614C11.6185 14.7485 11.6102 14.7359 11.6012 14.7239L11.4949 14.5301L11.4324 14.305L11.3949 14.03L11.4011 13.7362L11.4699 13.3986L11.5387 13.0486L11.5824 12.811C11.5846 12.8048 11.5867 12.7986 11.5887 12.7923L11.6074 12.661C11.6277 12.5272 11.5943 12.4084 11.5074 12.3047L11.5012 12.2984C11.4747 12.2641 11.4435 12.2349 11.4074 12.2109Z" fill="black"/>
<path d="M10.7698 12.9236C10.7698 13.0237 10.8052 13.1091 10.876 13.1799C10.9468 13.2507 11.0322 13.2861 11.1323 13.2861C11.2325 13.2861 11.3179 13.2507 11.3887 13.1799C11.4595 13.1091 11.4949 13.0237 11.4949 12.9236C11.4949 12.8234 11.4595 12.738 11.3887 12.6672C11.3179 12.5964 11.2325 12.561 11.1323 12.561C11.0322 12.561 10.9468 12.5964 10.876 12.6672C10.8052 12.738 10.7698 12.8234 10.7698 12.9236ZM11.4449 12.6985L11.4324 12.6798C11.3711 12.5889 11.2878 12.5285 11.1823 12.4985L11.1011 12.4735C11.027 12.4524 10.952 12.4482 10.876 12.461L10.726 12.486C10.5846 12.5089 10.4658 12.5735 10.3697 12.6798L10.1697 12.8923C10.1163 12.9517 10.0746 13.0183 10.0446 13.0923L9.8946 13.4737C9.86982 13.5318 9.85315 13.5923 9.84459 13.6549L9.79458 14.1238C9.78787 14.18 9.78787 14.2363 9.79458 14.2926L9.85084 14.7614C9.85798 14.8216 9.87257 14.88 9.8946 14.9364L10.0634 15.3615C10.0848 15.4126 10.1119 15.4606 10.1446 15.5053L10.3822 15.8429C10.4211 15.8974 10.4669 15.9454 10.5197 15.9866L10.8135 16.2179C10.8703 16.2636 10.9328 16.299 11.0011 16.3242L11.3011 16.4305C11.3986 16.4652 11.4986 16.4757 11.6012 16.4617L11.8825 16.4242C11.9626 16.4145 12.0376 16.3895 12.1075 16.3492L12.3701 16.1992C12.4063 16.178 12.4396 16.153 12.4701 16.1242L12.7014 15.8991C12.7145 15.8873 12.727 15.8748 12.7389 15.8616L12.9702 15.5928C12.9814 15.5788 12.9918 15.5642 13.0014 15.5491L13.1827 15.2803L13.3703 15.0427L13.5515 14.8239C13.5516 14.8218 13.5516 14.8197 13.5515 14.8177L13.7016 14.6364C13.7104 14.6263 13.7187 14.6159 13.7266 14.6051L13.8329 14.4488C13.842 14.4347 13.8503 14.4201 13.8579 14.4051L13.9141 14.2988C13.9681 14.198 13.9827 14.0917 13.9579 13.98L13.9391 13.9237C13.8855 13.6958 13.7417 13.577 13.5078 13.5674L13.4453 13.5612C13.3875 13.5591 13.3312 13.5674 13.2765 13.5862L13.164 13.6237C13.1577 13.6256 13.1514 13.6277 13.1452 13.6299L12.9514 13.705C12.9409 13.7088 12.9305 13.7129 12.9202 13.7175L12.6389 13.8487C12.6152 13.8576 12.5923 13.868 12.5701 13.88L12.2576 14.08C12.2425 14.0898 12.2279 14.1002 12.2138 14.1113L11.9137 14.3363C11.903 14.3443 11.8926 14.3526 11.8825 14.3613L11.6387 14.5739C11.6256 14.5858 11.6131 14.5983 11.6012 14.6114L11.4449 14.7739C11.4362 14.784 11.4279 14.7944 11.4199 14.8052L11.3511 14.8864C11.1612 15.1187 11.1561 15.3549 11.3358 15.5951C11.5156 15.8353 11.7436 15.897 12.02 15.7803L12.0575 15.7616C12.1151 15.7368 12.1671 15.7034 12.2138 15.6616L12.3638 15.524C12.3702 15.52 12.3764 15.5158 12.3826 15.5115L12.6326 15.2615L12.9577 14.9614C12.9731 14.9476 12.9877 14.9331 13.0014 14.9177L13.3015 14.5676C13.3124 14.5576 13.3228 14.5472 13.3328 14.5364L13.5703 14.205L13.7828 13.9487C13.7943 13.9349 13.8047 13.9203 13.8141 13.905L14.0266 13.5487C14.0883 13.4415 14.0779 13.3418 13.9953 13.2497C13.9128 13.1576 13.8148 13.1364 13.7016 13.1861L13.3265 13.3549C13.3047 13.3634 13.2839 13.3738 13.264 13.3861L12.9952 13.5737L12.6514 13.7675C12.6295 13.7805 12.6086 13.7951 12.5889 13.8112L12.22 14.0925C12.2092 14.1025 12.1988 14.113 12.1888 14.1238L11.8512 14.4238C11.8469 14.43 11.8428 14.4363 11.8387 14.4426L11.5949 14.6801L11.4511 14.7989C11.4845 14.7811 11.5157 14.7603 11.5449 14.7364L11.5074 14.7552C11.3315 15.0036 11.3446 15.2417 11.5468 15.4693C11.7489 15.6969 11.9838 15.7381 12.2513 15.5928L12.2951 15.5365L12.4076 15.4178L12.6201 15.2302L12.9077 15.0052C12.9098 15.0052 12.9118 15.0052 12.9139 15.0052L13.2077 14.7677C13.212 14.7636 13.2161 14.7594 13.2202 14.7552L13.439 14.5676L13.5515 14.4863L13.6141 14.4551C13.555 14.459 13.4988 14.4736 13.4453 14.4989L13.5078 14.4926C13.4225 14.2998 13.2746 14.2081 13.064 14.2175L13.089 14.2676C13.1365 14.1479 13.1344 14.0291 13.0827 13.9112L13.0577 13.9738L12.9827 14.08L12.8514 14.2488L12.6764 14.4613L12.4701 14.6801L12.2388 14.9114L12.0263 15.1115L11.8762 15.2115L11.7887 15.2302L11.745 15.2177L11.6449 15.1615L11.5012 15.0114L11.3574 14.7864L11.2574 14.5051L11.2199 14.1988L11.2511 13.855L11.3324 13.5174L11.4074 13.2549L11.4261 13.1861L11.4386 13.1736C11.4539 13.1478 11.4664 13.1207 11.4762 13.0923L11.4887 13.0673C11.5385 12.9367 11.5239 12.8138 11.4449 12.6985Z" fill="black"/>
<path d="M6.41278 2.39644C6.41282 2.49481 6.44762 2.57877 6.51719 2.64832C6.58676 2.71787 6.67073 2.75264 6.7691 2.75264C6.86747 2.75264 6.95144 2.71787 7.02101 2.64832C7.09058 2.57877 7.12539 2.49481 7.12542 2.39644C7.12539 2.29807 7.09058 2.21411 7.02101 2.14457C6.95144 2.07502 6.86747 2.04025 6.7691 2.04025C6.67073 2.04025 6.58676 2.07502 6.51719 2.14457C6.44762 2.21411 6.41282 2.29807 6.41278 2.39644ZM6.7816 2.77152H6.81911C6.86651 2.77173 6.91235 2.76339 6.95664 2.74651L7.00665 2.72151C7.03768 2.71063 7.06685 2.69605 7.09416 2.67775L7.14417 2.63399L7.20043 2.59648C7.13129 2.6049 7.06878 2.62991 7.0129 2.6715L7.06916 2.66524C7.07966 2.66355 7.09007 2.66146 7.10042 2.65899L7.14417 2.64649H7.18168L7.41298 2.65899L7.5505 2.66524L7.65677 2.67775L7.7818 2.709L7.93182 2.74651L8.06935 2.79027L8.21313 2.84028L8.33815 2.89029L8.45067 2.9403L8.58195 3.00906C8.58402 3.01116 8.5861 3.01324 8.5882 3.01531L8.71947 3.07782L8.8445 3.14034L8.95077 3.20285L9.07579 3.28411C9.07788 3.28413 9.07996 3.28413 9.08204 3.28411L9.21332 3.37163L9.31334 3.44664L9.43211 3.54666L9.57589 3.67794C9.58206 3.68222 9.58831 3.68639 9.59464 3.69044L9.74467 3.81546C9.74674 3.81756 9.74882 3.81965 9.75092 3.82172L9.90095 3.94674L10.0322 4.05926L10.1698 4.20304L10.3323 4.40308L10.5136 4.64062C10.5156 4.64481 10.5177 4.64898 10.5198 4.65312L10.7074 4.88442C10.7135 4.89081 10.7197 4.89706 10.7261 4.90317L10.9199 5.12821L11.1137 5.35326C11.1198 5.35965 11.126 5.3659 11.1324 5.37201L11.345 5.5908L11.5513 5.82835L11.7576 6.05964L11.9638 6.32844L12.1764 6.641C12.1785 6.64101 12.1805 6.64101 12.1826 6.641L12.4139 6.96606C12.416 6.97026 12.418 6.97442 12.4202 6.97857L12.6577 7.29113C12.6618 7.29536 12.666 7.29952 12.6702 7.30363L12.889 7.57243C12.8911 7.57662 12.8931 7.58079 12.8953 7.58493L13.0891 7.81623L13.2391 8.01001L13.3641 8.2163L13.4891 8.4601L13.6079 8.7039C13.61 8.70599 13.6121 8.70808 13.6142 8.71015L13.7204 8.91018C13.7225 8.91438 13.7245 8.91854 13.7267 8.92269L13.8204 9.09147C13.8225 9.09566 13.8246 9.09983 13.8267 9.10397L13.8892 9.21649L13.933 9.30401L14.0142 9.47904C14.0269 9.50515 14.0415 9.53016 14.058 9.55406L14.0892 9.59782C14.1613 9.71229 14.2613 9.79147 14.3893 9.83536L14.4081 9.84161C14.5696 9.89578 14.7246 9.88107 14.8731 9.79748C15.0215 9.71389 15.1145 9.58899 15.1519 9.42278L15.1582 9.39778C15.1695 9.34626 15.1737 9.29416 15.1707 9.2415V9.20399C15.1691 9.17239 15.1649 9.14113 15.1582 9.11022L15.1519 9.07272C15.1332 8.98985 15.0977 8.91484 15.0457 8.84767L15.0394 8.83517L15.0332 8.82267L15.0082 8.78516C15.0082 8.78308 15.0082 8.78099 15.0082 8.77891L14.9957 8.76641L14.9707 8.69764C14.9636 8.6763 14.9553 8.65546 14.9457 8.63513L14.8706 8.47885C14.8386 8.41349 14.7948 8.35723 14.7394 8.31007L14.5706 8.16629L14.4643 8.07878L14.4268 7.95375C14.367 7.81082 14.2631 7.76214 14.115 7.8077C13.9669 7.85326 13.9083 7.95196 13.9392 8.10378L13.9767 8.23506L13.9455 8.36008L13.8892 8.56637C13.8656 8.64664 13.8615 8.7279 13.8767 8.81017L13.908 8.97895C13.9127 9.00227 13.919 9.0252 13.9267 9.04771L13.958 9.14148C13.9632 9.16057 13.9695 9.17932 13.9767 9.19774L14.0017 9.254C14.0076 9.26462 14.0139 9.27504 14.0205 9.28526L14.0392 9.32901C14.0413 9.33112 14.0434 9.3332 14.0455 9.33527L14.0705 9.37902C14.0574 9.33284 14.0386 9.28908 14.0142 9.24775L14.0267 9.29151C14.024 9.26833 14.0198 9.24541 14.0142 9.22274L14.0205 9.26025C14.0205 9.26234 14.0205 9.26442 14.0205 9.2665L14.0267 9.30401C14.0276 9.27049 14.0255 9.23715 14.0205 9.20399V9.2415C14.0309 9.20256 14.0371 9.16297 14.0392 9.12272L14.033 9.14773C14.1916 9.19994 14.344 9.18576 14.4903 9.10519C14.6365 9.02463 14.73 8.90336 14.7706 8.7414L14.7519 8.73515C14.824 8.85969 14.9282 8.94512 15.0644 8.99145L15.0519 8.9727L14.9894 8.82267C14.9856 8.81213 14.9814 8.80171 14.9769 8.79141L14.9207 8.67889C14.9167 8.67045 14.9125 8.66212 14.9082 8.65389L14.8331 8.52886L14.7394 8.36008L14.6456 8.1788L14.5331 7.9475C14.5311 7.94121 14.529 7.93496 14.5268 7.92875L14.3831 7.6662C14.3792 7.65566 14.375 7.64524 14.3706 7.63494L14.2143 7.38489C14.2047 7.36769 14.1943 7.35102 14.183 7.33488L14.008 7.10359C14.002 7.09509 13.9957 7.08675 13.9892 7.07859L13.7829 6.83479L13.5766 6.58474L13.3516 6.28468L13.1266 5.96587C13.1245 5.96377 13.1224 5.96169 13.1203 5.95962L12.889 5.64706C12.887 5.64287 12.8849 5.6387 12.8828 5.63456L12.6577 5.34701C12.6498 5.3363 12.6414 5.32588 12.6327 5.31575L12.4139 5.0657C12.4118 5.06569 12.4098 5.06569 12.4077 5.0657L12.1889 4.82191L11.9888 4.59061L11.8013 4.37182L11.6138 4.15303L11.445 3.93424L11.2762 3.69669L11.1074 3.45915C11.0919 3.43935 11.0753 3.42059 11.0574 3.40289L10.8949 3.2216C10.8811 3.20626 10.8665 3.19168 10.8511 3.17784L10.6886 3.03407C10.6824 3.02978 10.6762 3.02561 10.6698 3.02156L10.5073 2.89029L10.376 2.77777L10.2448 2.65274C10.2366 2.64628 10.2283 2.64003 10.2198 2.63399L10.0822 2.51522C10.0741 2.50875 10.0657 2.5025 10.0572 2.49646L9.91345 2.39019C9.90322 2.38362 9.8928 2.37737 9.8822 2.37144L9.73842 2.27142L9.59464 2.17765C9.5864 2.17329 9.57807 2.16913 9.56964 2.16515L9.43836 2.09014C9.42412 2.08119 9.40954 2.07286 9.3946 2.06513L9.26333 1.99637L9.1258 1.93386C9.12581 1.93177 9.12581 1.92969 9.1258 1.9276L8.98828 1.85884C8.98413 1.85671 8.97996 1.85463 8.97577 1.85259L8.832 1.79008C8.81367 1.78078 8.79492 1.77245 8.77573 1.76507L8.61945 1.70881C8.61529 1.70877 8.61112 1.70877 8.60695 1.70881L8.44442 1.65255C8.42999 1.64783 8.41541 1.64366 8.40066 1.64005L8.23813 1.60254C8.20943 1.59409 8.18026 1.58784 8.15062 1.58379L7.98183 1.57129C7.93182 1.56478 7.88181 1.56478 7.8318 1.57129L7.67553 1.60254C7.65023 1.60498 7.62523 1.60915 7.60051 1.61505L7.47549 1.6588L7.34421 1.68381L7.08791 1.72757C7.06451 1.73205 7.04159 1.7383 7.01915 1.74632L6.93788 1.77758C6.87705 1.79729 6.82287 1.82854 6.77535 1.87134L6.72534 1.9151C6.66254 1.97352 6.62086 2.04436 6.60032 2.12764L6.58782 2.17765C6.6333 2.12929 6.66456 2.07303 6.68159 2.00887L6.65658 2.04013L6.63783 2.04638L6.61907 2.06513C6.64546 2.05539 6.67047 2.04289 6.69409 2.02762L6.65658 2.04013C6.45167 2.1073 6.36738 2.24717 6.40372 2.45973C6.44005 2.67229 6.56601 2.77622 6.7816 2.77152Z" fill="black"/>
<path d="M16.3459 11.7357C16.3462 11.9479 16.4524 12.054 16.6647 12.054C16.8769 12.054 16.9832 11.9479 16.9835 11.7357C16.9832 11.5234 16.8769 11.4173 16.6647 11.4173C16.4524 11.4173 16.3462 11.5234 16.3459 11.7357ZM17.0148 11.8607L17.0335 11.8169C17.0216 11.8349 17.0112 11.8536 17.0023 11.8732L17.0085 11.867C17.1259 11.664 17.0948 11.4872 16.9152 11.3365C16.7357 11.1858 16.5562 11.1858 16.3766 11.3365C16.1971 11.4872 16.166 11.664 16.2834 11.867L16.2896 11.8732C16.3178 11.925 16.3553 11.9688 16.4021 12.0045L16.4397 12.0357C16.5407 12.11 16.6511 12.1289 16.7711 12.0924C16.891 12.0559 16.9723 11.9787 17.0148 11.8607ZM16.2271 11.6607C16.2271 11.778 16.2686 11.8782 16.3516 11.9612C16.4346 12.0442 16.5348 12.0857 16.6522 12.0857C16.7696 12.0857 16.8698 12.0442 16.9528 11.9612C17.0358 11.8782 17.0773 11.778 17.0773 11.6607C17.0773 11.5433 17.0358 11.4431 16.9528 11.3601C16.8698 11.2771 16.7696 11.2356 16.6522 11.2356C16.5348 11.2356 16.4346 11.2771 16.3516 11.3601C16.2686 11.4431 16.2271 11.5433 16.2271 11.6607ZM16.2146 11.6544C16.2462 11.9231 16.3973 12.0574 16.6678 12.0574C16.9384 12.0574 17.0894 11.9231 17.121 11.6544C17.0894 11.3857 16.9384 11.2514 16.6678 11.2514C16.3973 11.2514 16.2462 11.3857 16.2146 11.6544ZM16.2209 11.867L16.2584 11.967C16.2604 11.9712 16.2625 11.9753 16.2646 11.9795L16.3459 12.167C16.3518 12.1776 16.358 12.1881 16.3646 12.1983L16.4772 12.4233C16.4792 12.4275 16.4813 12.4317 16.4834 12.4358L16.6084 12.6546C16.6084 12.6567 16.6084 12.6588 16.6084 12.6609L16.7085 12.8359L16.7835 12.9797L16.8522 13.1234C16.8522 13.1255 16.8522 13.1276 16.8522 13.1297L16.9335 13.3047L17.0023 13.4673C17.0062 13.4757 17.0104 13.484 17.0148 13.4923L17.071 13.5985C17.094 13.6445 17.1232 13.6862 17.1585 13.7236L17.1898 13.7548C17.35 13.9225 17.5381 13.9641 17.7541 13.8795C17.9701 13.7949 18.08 13.6367 18.0837 13.4047V13.361C18.0857 13.3233 18.0836 13.2857 18.0775 13.2485L18.0587 13.1672C18.0546 13.1396 18.0484 13.1125 18.04 13.0859L17.9899 12.9547L17.9212 12.7671L17.8462 12.5421C17.8405 12.5272 17.8343 12.5126 17.8274 12.4983L17.7274 12.267C17.7235 12.2565 17.7194 12.2461 17.7149 12.2358L17.6211 12.0482C17.6191 12.044 17.617 12.0399 17.6149 12.0357L17.5399 11.892C17.5323 11.8749 17.524 11.8582 17.5149 11.8419L17.4648 11.7732L17.4523 11.7357C17.4619 11.7701 17.4744 11.8035 17.4899 11.8357L17.4774 11.7982C17.3356 11.9665 17.296 12.1561 17.3586 12.367L17.3711 12.3545C17.1557 12.3346 16.9786 12.4076 16.8397 12.5733H16.8585C16.9064 12.5789 16.9543 12.5789 17.0023 12.5733L17.0273 12.5671C17.2184 12.5402 17.3643 12.4443 17.4648 12.2795L17.4774 12.2545C17.5654 12.1106 17.5904 11.9564 17.5524 11.7919L17.5399 11.7482C17.5246 11.6837 17.4996 11.6233 17.4648 11.5669L17.4273 11.5044C17.412 11.4825 17.3954 11.4616 17.3773 11.4419L17.3398 11.3919L17.3336 11.3856L17.3461 11.4106L17.3336 11.3669L17.3148 11.2856C17.3148 11.2835 17.3148 11.2814 17.3148 11.2793L17.2961 11.2231L17.2898 11.1793C17.2803 11.2418 17.2803 11.3043 17.2898 11.3669L17.2961 11.3419C17.1484 11.0791 16.9264 10.9754 16.6301 11.0305C16.3338 11.0857 16.1641 11.2624 16.1208 11.5606L16.1458 11.5982C16.1479 11.6002 16.15 11.6023 16.1521 11.6044L16.1959 11.6857L16.2709 11.8232C16.2767 11.8359 16.283 11.8484 16.2896 11.8607L16.3896 12.0232L16.4959 12.2233L16.6459 12.4921L16.8085 12.8234C16.8105 12.8297 16.8125 12.8359 16.8147 12.8421L17.0273 13.236L17.2398 13.6423L17.4586 14.0611L17.6586 14.4612L17.8337 14.8425L17.9962 15.2113L18.14 15.5739L18.2713 15.9177L18.39 16.249L18.5088 16.5741L18.6151 16.8929L18.7088 17.2492C18.7088 17.2513 18.7088 17.2534 18.7088 17.2555L18.8151 17.6368L18.9151 18.0056C18.9151 18.0098 18.9151 18.014 18.9151 18.0181L19.0151 18.3869L19.1152 18.7558C19.1172 18.76 19.1193 18.7641 19.1214 18.7683L19.2277 19.1246L19.3152 19.4809L19.384 19.856L19.4465 20.2561C19.4485 20.2602 19.4506 20.2644 19.4527 20.2686L19.5215 20.6874C19.525 20.7042 19.5291 20.7209 19.534 20.7374L19.634 21.1437C19.6377 21.1564 19.6419 21.1689 19.6465 21.1812L19.7653 21.5563C19.7882 21.6276 19.8257 21.6901 19.8778 21.7438L19.9966 21.8626L20.0091 22.0376C20.0174 22.2043 20.1049 22.2835 20.2716 22.2752C20.4383 22.2668 20.5175 22.1793 20.5092 22.0126L20.5029 21.8314L20.6092 21.6876C20.6548 21.6258 20.684 21.557 20.6967 21.4813L20.7592 21.0937C20.76 21.077 20.76 21.0604 20.7592 21.0437L20.7905 20.6249C20.7922 20.5978 20.7922 20.5707 20.7905 20.5436L20.7655 20.1123C20.764 20.0955 20.7619 20.0789 20.7592 20.0623L20.6967 19.6497C20.6951 19.635 20.693 19.6204 20.6905 19.6059L20.6092 19.2059C20.6073 19.1975 20.6052 19.1891 20.6029 19.1808L20.5092 18.7933C20.5073 18.7849 20.5052 18.7766 20.5029 18.7683L20.4029 18.4057L20.3029 18.0431C20.3029 18.041 20.3029 18.039 20.3029 18.0369L20.2029 17.6681L20.1029 17.293C20.1029 17.2909 20.1029 17.2888 20.1029 17.2867L19.9966 16.8992L19.8966 16.5303C19.8947 16.5199 19.8926 16.5095 19.8903 16.4991L19.7778 16.1553C19.7759 16.1469 19.7738 16.1386 19.7715 16.1303L19.6528 15.799C19.6507 15.7948 19.6486 15.7906 19.6465 15.7864L19.5215 15.4489C19.5194 15.4468 19.5173 15.4447 19.5152 15.4426L19.3777 15.0863C19.3777 15.0842 19.3777 15.0821 19.3777 15.0801L19.2277 14.705C19.2256 14.7008 19.2236 14.6966 19.2214 14.6925L19.0527 14.3049C19.0507 14.2986 19.0486 14.2924 19.0464 14.2862L18.8651 13.8923C18.861 13.8881 18.8568 13.8839 18.8526 13.8798L18.6526 13.4673C18.6505 13.4631 18.6485 13.4589 18.6463 13.4548L18.4275 13.0297C18.4255 13.0276 18.4234 13.0255 18.4213 13.0234L18.2025 12.6108C18.2004 12.6087 18.1983 12.6067 18.1962 12.6046L17.9837 12.2108C17.9817 12.2066 17.9796 12.2024 17.9774 12.1983L17.7837 11.867C17.7797 11.8585 17.7755 11.8502 17.7712 11.8419L17.6024 11.5856L17.4899 11.3856C17.4878 11.3835 17.4857 11.3814 17.4836 11.3794L17.3836 11.2106L17.3086 11.0668C17.3045 11.0605 17.3003 11.0542 17.2961 11.048L17.2398 10.9543C17.2263 10.9347 17.2117 10.9159 17.196 10.898L17.171 10.8605C16.9721 10.6005 16.7222 10.5349 16.4213 10.6637C16.1203 10.7924 15.9952 11.0185 16.0458 11.3419L16.0521 11.3669C16.052 11.3731 16.052 11.3794 16.0521 11.3856L16.0708 11.4606C16.0755 11.486 16.0818 11.511 16.0896 11.5356L16.1083 11.6044L16.1271 11.6857C16.1309 11.6983 16.135 11.7108 16.1396 11.7232L16.1709 11.8232C16.1778 11.8466 16.1862 11.8695 16.1959 11.892L16.2334 11.9732C16.2565 12.0229 16.2857 12.0687 16.3209 12.1107L16.3709 12.1733C16.3808 12.1862 16.3912 12.1987 16.4021 12.2108L16.4209 12.2295L16.4334 12.2483C16.4144 12.1901 16.3873 12.1359 16.3521 12.0857L16.3646 12.1295C16.4206 11.9893 16.4248 11.8476 16.3771 11.7044L16.3709 11.7357C16.69 11.7813 16.9088 11.6542 17.0273 11.3544L17.0023 11.3481C16.9543 11.3425 16.9064 11.3425 16.8585 11.3481H16.8397C16.5471 11.3753 16.3659 11.5315 16.2959 11.8169V11.8357C16.2429 12.0577 16.2971 12.2494 16.4584 12.4108L16.4834 12.4358C16.4543 12.3777 16.4168 12.3256 16.3709 12.2795L16.4021 12.342C16.4099 12.357 16.4182 12.3716 16.4272 12.3858L16.4897 12.4858L16.5772 12.6233C16.5792 12.6275 16.5813 12.6317 16.5834 12.6358L16.696 12.8109L16.8272 13.0234L16.946 13.211L17.0148 13.3547L17.046 13.4298L17.0585 13.486C17.0594 13.4438 17.0553 13.4022 17.046 13.361V13.4047C17.2131 13.5682 17.4037 13.6029 17.6177 13.5088C17.8317 13.4147 17.935 13.2508 17.9274 13.0172L17.8962 12.9859C17.9205 13.0346 17.9518 13.0784 17.9899 13.1172L17.9462 13.0359L17.8962 12.8984C17.8921 12.8921 17.888 12.8858 17.8837 12.8796L17.8087 12.6984C17.8066 12.6942 17.8046 12.69 17.8024 12.6859L17.7211 12.5233C17.7172 12.5149 17.713 12.5065 17.7086 12.4983L17.6211 12.3358L17.5274 12.1608L17.4148 11.9482L17.3086 11.7232C17.3086 11.7211 17.3086 11.719 17.3086 11.7169L17.2148 11.5356C17.1982 11.4978 17.1773 11.4623 17.1523 11.4294L17.0773 11.3481C16.8914 11.125 16.6743 11.0887 16.4259 11.2392C16.1775 11.3896 16.1092 11.5989 16.2209 11.867Z" fill="black"/>
</g>
<defs>
<clipPath id="clip0_1_7331">
<rect width="25" height="36" fill="white"/>
</clipPath>
</defs>
</svg>
