<svg width="31" height="29" viewBox="0 0 31 29" fill="none" xmlns="http://www.w3.org/2000/svg">
<g clip-path="url(#clip0_1_7160)">
<path d="M17.7476 0.858251C17.7476 0.951466 17.7806 1.03103 17.8465 1.09694C17.9124 1.16286 17.992 1.19581 18.0852 1.19582C18.1784 1.19581 18.258 1.16286 18.3239 1.09694C18.3898 1.03103 18.4227 0.951466 18.4227 0.858251C18.4227 0.765035 18.3898 0.68547 18.3239 0.619557C18.258 0.553643 18.1784 0.520687 18.0852 0.520687C17.992 0.520687 17.9124 0.553643 17.8465 0.619557C17.7806 0.68547 17.7476 0.765035 17.7476 0.858251ZM17.7914 1.12705L17.8289 1.17706L17.9039 1.27708C17.9332 1.31446 17.9665 1.3478 18.0039 1.3771L18.2102 1.54588C18.2359 1.56659 18.263 1.58534 18.2915 1.60214L18.6165 1.80218C18.6228 1.80435 18.629 1.80643 18.6353 1.80843L19.0541 2.04598L19.5355 2.33978L20.0481 2.6711L20.5669 3.10868L21.1608 3.60877C21.1628 3.60878 21.1649 3.60878 21.167 3.60877L21.7734 4.11512C21.7775 4.11933 21.7817 4.1235 21.7859 4.12762L22.386 4.60896L22.9611 5.07155L23.4737 5.50914L23.93 5.94672L24.3489 6.3843L24.7364 6.79688C24.7385 6.79898 24.7406 6.80106 24.7427 6.80313L25.1053 7.18446L25.4303 7.54077L25.7241 7.87209L25.9742 8.17839L26.2117 8.50346C26.2138 8.50555 26.2159 8.50763 26.218 8.50971L26.468 8.84102C26.4722 8.84314 26.4763 8.84522 26.4805 8.84727L26.7181 9.16608C26.7262 9.17458 26.7346 9.18291 26.7431 9.19109L26.9931 9.48489L27.2057 9.74744L27.3869 9.97874L27.5432 10.2163C27.5453 10.2184 27.5474 10.2205 27.5495 10.2225L27.7183 10.4663C27.7264 10.4769 27.7347 10.4873 27.7433 10.4976L27.912 10.7226L28.0558 10.9164L28.1683 11.0664L28.2746 11.229C28.2767 11.2311 28.2788 11.2332 28.2809 11.2352L28.3871 11.3978L28.4684 11.5603L28.5622 11.7541L28.6622 11.9854L28.7435 12.2417L28.8122 12.523L28.8622 12.8355L28.8997 13.1668L28.9122 13.4669L28.8997 13.7107L28.831 13.992L28.706 14.3483L28.5184 14.8047L28.2809 15.336L28.0183 15.9111L27.7308 16.4737L27.4495 17.0051L27.1432 17.4927L26.7993 17.9678L26.368 18.4428L25.8742 18.9367L25.3178 19.4368L24.7489 19.9494C24.7448 19.9514 24.7406 19.9535 24.7364 19.9556L24.1863 20.462C24.1842 20.4661 24.1821 20.4703 24.1801 20.4745L23.6737 20.9558L23.1736 21.4247L22.661 21.8998L22.1422 22.3748L21.6296 22.8374L21.1233 23.2813L20.6232 23.7126L20.1168 24.1252L19.6417 24.5128L19.1979 24.8503L18.8103 25.1504L18.4415 25.4004L18.0727 25.6442C18.0706 25.6442 18.0685 25.6442 18.0664 25.6442L17.6851 25.8943C17.668 25.9062 17.6514 25.9187 17.6351 25.9318L16.985 26.4256C16.9325 26.4644 16.8846 26.5082 16.8412 26.5569L16.6537 26.7694C16.5245 26.9152 16.4525 27.0852 16.4377 27.2794C16.4228 27.4736 16.4682 27.6526 16.5737 27.8163C16.6792 27.98 16.8234 28.0952 17.0064 28.162C17.1894 28.2287 17.374 28.2333 17.5601 28.1759L17.8351 28.0884C17.9052 28.067 17.9719 28.0378 18.0352 28.0009L18.7416 27.5821C18.7542 27.574 18.7667 27.5657 18.7791 27.5571L19.1604 27.307C19.1625 27.307 19.1646 27.307 19.1666 27.307L19.548 27.057C19.5564 27.0509 19.5647 27.0446 19.573 27.0382L19.9668 26.7569C19.9731 26.7528 19.9793 26.7487 19.9855 26.7444L20.3981 26.4381C20.4066 26.432 20.4149 26.4257 20.4231 26.4194L20.867 26.063C20.869 26.063 20.8711 26.063 20.8732 26.063L21.3608 25.6692C21.365 25.6651 21.3692 25.6609 21.3733 25.6567L21.8922 25.2316C21.8985 25.2275 21.9047 25.2234 21.9109 25.2191L22.4235 24.7753C22.4256 24.7732 22.4277 24.7711 22.4298 24.7691L22.9424 24.319C22.9445 24.3148 22.9465 24.3106 22.9486 24.3065L23.4675 23.8376C23.4695 23.8356 23.4716 23.8335 23.4737 23.8314L23.9988 23.35C24.003 23.3459 24.0072 23.3417 24.0113 23.3375L24.5177 22.8499C24.5218 22.8479 24.526 22.8458 24.5302 22.8437L25.024 22.3561C25.0282 22.354 25.0323 22.352 25.0365 22.3498L25.5178 21.8622L26.0429 21.3559L26.5993 20.8433C26.6035 20.8392 26.6077 20.835 26.6118 20.8308L27.1682 20.2932C27.1831 20.2811 27.1977 20.2686 27.2119 20.2557L27.7183 19.6993C27.7246 19.6932 27.7309 19.6869 27.737 19.6806L28.1996 19.1367C28.2195 19.1147 28.2382 19.0918 28.2559 19.068L28.6309 18.5241C28.644 18.5079 28.6565 18.4912 28.6684 18.4741L28.9998 17.9177C29.0106 17.9035 29.021 17.8889 29.031 17.874L29.3248 17.2989C29.3269 17.2947 29.329 17.2906 29.3311 17.2864L29.6249 16.6988C29.6291 16.6926 29.6333 16.6863 29.6374 16.68L29.9124 16.0861C29.9145 16.082 29.9166 16.0778 29.9187 16.0736L30.1625 15.5298C30.1646 15.5236 30.1667 15.5173 30.1687 15.511L30.3813 15.0234C30.388 15.007 30.3943 14.9903 30.4 14.9734L30.5501 14.5421C30.5599 14.5134 30.5682 14.4842 30.5751 14.4546L30.6688 14.0608C30.6814 14.0115 30.6897 13.9615 30.6938 13.9107L30.7188 13.5357C30.7209 13.5002 30.7209 13.4648 30.7188 13.4294L30.7001 13.0543C30.7004 13.0397 30.7004 13.0251 30.7001 13.0106L30.6626 12.6292C30.6612 12.6083 30.6591 12.5875 30.6563 12.5667L30.5938 12.1917C30.5901 12.1749 30.5859 12.1582 30.5813 12.1416L30.5 11.7916C30.4949 11.7663 30.4886 11.7413 30.4813 11.7166L30.375 11.3915C30.368 11.364 30.3596 11.3369 30.35 11.3102L30.2312 11.0289C30.2253 11.0163 30.219 11.0038 30.2125 10.9914L30.1 10.7539C30.094 10.7412 30.0878 10.7287 30.0812 10.7164L29.9624 10.4976C29.9526 10.4806 29.9421 10.4639 29.9312 10.4476L29.8062 10.2538C29.8041 10.2475 29.8021 10.2413 29.7999 10.235L29.6749 10.0538C29.6688 10.0432 29.6626 10.0328 29.6561 10.0225L29.5249 9.84121C29.5228 9.83703 29.5207 9.83286 29.5186 9.82871L29.3686 9.62867L29.206 9.41613L29.056 9.19734L28.8872 8.94104C28.8812 8.9305 28.8749 8.92008 28.8685 8.90978L28.6747 8.63473C28.6626 8.62187 28.65 8.60937 28.6372 8.59722L28.4184 8.31592C28.4163 8.31383 28.4142 8.31174 28.4121 8.30967L28.1683 8.01586L27.9371 7.72206L27.6995 7.4095L27.4557 7.07193C27.4418 7.05262 27.4273 7.03386 27.412 7.01567L27.1307 6.67811C27.1286 6.67392 27.1265 6.66976 27.1244 6.66561L26.8181 6.31554C26.8119 6.3092 26.8057 6.30295 26.7993 6.29679L26.4618 5.92797C26.4576 5.92376 26.4535 5.91959 26.4493 5.91546L26.0805 5.52789L25.6866 5.11531C25.6825 5.1111 25.6783 5.10694 25.6741 5.10281L25.2365 4.65272C25.2304 4.64638 25.2241 4.64013 25.2178 4.63397L24.7302 4.16513C24.716 4.15217 24.7014 4.13967 24.6864 4.12762L24.1426 3.66504C24.1344 3.65864 24.126 3.65239 24.1176 3.64628L23.53 3.17744C23.5279 3.17744 23.5258 3.17744 23.5237 3.17744L22.9173 2.70235L22.3047 2.20851C22.2965 2.20211 22.2882 2.19586 22.2797 2.18975L21.6484 1.72717C21.6341 1.7163 21.6195 1.70588 21.6046 1.69591L20.992 1.30209C20.9797 1.29341 20.9672 1.28508 20.9545 1.27708L20.3669 0.945767C20.3586 0.941457 20.3503 0.937289 20.3419 0.933265L19.823 0.664464C19.7987 0.650639 19.7737 0.638136 19.748 0.626957L19.2917 0.445672C19.245 0.42844 19.197 0.415937 19.1479 0.408165L18.7728 0.339402C18.7253 0.330177 18.6774 0.32601 18.629 0.3269L18.354 0.333151C18.2752 0.336801 18.2002 0.355554 18.1289 0.389412L17.9977 0.445672C17.9935 0.447695 17.9893 0.449778 17.9852 0.451923L17.9164 0.489431C17.797 0.550178 17.7244 0.646297 17.6986 0.777788C17.6728 0.909279 17.7037 1.0257 17.7914 1.12705ZM16.5786 27.382C16.5786 27.5357 16.633 27.6668 16.7416 27.7754C16.8502 27.8841 16.9814 27.9384 17.135 27.9384C17.2886 27.9384 17.4198 27.8841 17.5284 27.7754C17.637 27.6668 17.6914 27.5357 17.6914 27.382C17.6914 27.2284 17.637 27.0973 17.5284 26.9886C17.4198 26.88 17.2886 26.8257 17.135 26.8257C16.9814 26.8257 16.8502 26.88 16.7416 26.9886C16.633 27.0973 16.5786 27.2284 16.5786 27.382ZM17.3225 27.257L17.2975 27.1633C17.2334 27.0109 17.1218 26.957 16.9626 27.0014C16.8034 27.0458 16.7359 27.1498 16.7599 27.3133L16.7849 27.4071C16.849 27.5594 16.9607 27.6134 17.1198 27.5689C17.279 27.5245 17.3466 27.4205 17.3225 27.257Z" fill="black"/>
<path d="M18.054 1.37706C18.054 1.48409 18.0918 1.57544 18.1675 1.65112C18.2431 1.7268 18.3345 1.76464 18.4415 1.76464C18.5486 1.76464 18.6399 1.7268 18.7156 1.65112C18.7913 1.57544 18.8291 1.48409 18.8291 1.37706C18.8291 1.27004 18.7913 1.17868 18.7156 1.10301C18.6399 1.02733 18.5486 0.989489 18.4415 0.989489C18.3345 0.989489 18.2431 1.02733 18.1675 1.10301C18.0918 1.17868 18.054 1.27004 18.054 1.37706ZM18.0289 1.37706C18.0289 1.49099 18.0692 1.58824 18.1498 1.6688C18.2304 1.74936 18.3276 1.78964 18.4415 1.78964C18.5555 1.78964 18.6527 1.74936 18.7333 1.6688C18.8138 1.58824 18.8541 1.49099 18.8541 1.37706C18.8541 1.26313 18.8138 1.16589 18.7333 1.08533C18.6527 1.00476 18.5555 0.964484 18.4415 0.964484C18.3276 0.964484 18.2304 1.00476 18.1498 1.08533C18.0692 1.16589 18.0289 1.26313 18.0289 1.37706ZM17.9602 1.36456C17.9602 1.49057 18.0047 1.59813 18.0938 1.68724C18.1829 1.77634 18.2905 1.8209 18.4165 1.8209C18.5425 1.8209 18.6501 1.77634 18.7392 1.68724C18.8283 1.59813 18.8729 1.49057 18.8729 1.36456C18.8729 1.23855 18.8283 1.13099 18.7392 1.04188C18.6501 0.952776 18.5425 0.908223 18.4165 0.908223C18.2905 0.908223 18.1829 0.952776 18.0938 1.04188C18.0047 1.13099 17.9602 1.23855 17.9602 1.36456ZM18.8854 1.24579L18.8791 1.19578C18.86 1.09234 18.8162 1.00066 18.7478 0.920726L18.6853 0.845711C18.6465 0.80239 18.6028 0.764883 18.554 0.73319L18.4478 0.658176C18.403 0.625496 18.3551 0.598408 18.304 0.57691L18.1352 0.514398C18.1006 0.5014 18.0651 0.490982 18.0289 0.483142L17.8477 0.439384L17.6414 0.395626C17.5962 0.383394 17.5504 0.375059 17.5038 0.370621L17.2851 0.358119C17.2307 0.354957 17.1765 0.357041 17.1225 0.36437L16.8537 0.401877C16.7896 0.409493 16.7271 0.424079 16.6662 0.445635L16.3661 0.558157C16.307 0.579318 16.2508 0.606406 16.1974 0.639422L15.8973 0.833209C15.8737 0.846764 15.8508 0.86135 15.8285 0.876967L15.5347 1.10201C15.4896 1.13571 15.448 1.17322 15.4097 1.21453L15.1409 1.51459C15.1012 1.55713 15.0658 1.60298 15.0346 1.65211L14.8033 2.02719C14.7847 2.05954 14.768 2.09288 14.7533 2.12721L14.547 2.56479C14.5242 2.61325 14.5054 2.66326 14.4908 2.71482L14.3532 3.22116C14.3327 3.29271 14.3202 3.36564 14.3157 3.43996L14.2907 4.00881C14.2855 4.08849 14.2897 4.16767 14.3032 4.24636L14.4158 4.84022C14.4268 4.90219 14.4435 4.96262 14.4658 5.02151L14.6971 5.60912C14.7162 5.65884 14.7391 5.70677 14.7658 5.7529L15.0971 6.32175C15.1144 6.35188 15.1332 6.38106 15.1534 6.40927L15.5472 6.95312C15.5613 6.97027 15.5759 6.98694 15.591 7.00313L16.0161 7.50948C16.0301 7.52663 16.0447 7.5433 16.0598 7.55949L16.5162 8.03458C16.5283 8.04741 16.5408 8.05991 16.5537 8.07209L17.035 8.52217C17.0371 8.52426 17.0392 8.52635 17.0413 8.52842L17.5038 8.95976L17.9227 9.35983L18.2977 9.74115L18.6353 10.0975L18.9354 10.4413L19.1792 10.7476L19.4042 11.0664L19.6042 11.3602L19.7918 11.6478C19.8037 11.6669 19.8162 11.6857 19.8293 11.704L20.0231 11.9603C20.0352 11.9753 20.0477 11.9899 20.0606 12.0041L20.2356 12.2166C20.2628 12.2497 20.292 12.281 20.3231 12.3104L20.4857 12.4542C20.4999 12.4671 20.5145 12.4796 20.5294 12.4917L20.667 12.6042C20.7007 12.6315 20.7362 12.6565 20.7732 12.6792L20.8857 12.748C20.894 12.7544 20.9023 12.7606 20.9107 12.7667L21.0233 12.8292C21.0417 12.8403 21.0604 12.8507 21.0795 12.8605L21.2733 12.9543L21.2796 12.9605L21.3108 12.9918L21.3733 13.073C21.393 13.097 21.4139 13.1199 21.4358 13.1418L21.5484 13.2543C21.8138 13.5257 22.1264 13.6007 22.486 13.4794L22.5173 13.4669C22.6183 13.4315 22.7079 13.3774 22.7861 13.3043L22.8049 13.2856C23.1164 12.9972 23.1894 12.6575 23.0236 12.2666L22.9611 12.1229C22.9346 12.0587 22.9012 11.9983 22.8611 11.9416L22.7611 11.8103C22.7345 11.7727 22.7054 11.7373 22.6736 11.704L22.5548 11.5853C22.5274 11.5563 22.4982 11.5292 22.4673 11.504L22.3735 11.429L22.186 11.2602C22.1758 11.2495 22.1654 11.2391 22.1547 11.2289L22.0547 11.1477C22.0345 11.1302 22.0137 11.1135 21.9922 11.0977L21.9109 11.0352L21.8359 10.9789L21.7547 10.8976L21.6359 10.7413L21.4796 10.5288L21.2983 10.2475C21.2942 10.2412 21.2901 10.235 21.2858 10.2287L21.0733 9.91619C21.0692 9.90989 21.065 9.90364 21.0608 9.89743L20.817 9.55362C20.805 9.53656 20.7925 9.51989 20.7795 9.50361L20.4919 9.15354C20.4878 9.14725 20.4837 9.14099 20.4794 9.13479L20.1544 8.75347C20.1482 8.74713 20.1419 8.74088 20.1356 8.73471L19.7793 8.34714C19.7731 8.34081 19.7669 8.33456 19.7605 8.32839L19.3792 7.92831C19.369 7.91766 19.3586 7.90725 19.3479 7.89705L18.9104 7.47822C18.9083 7.47613 18.9062 7.47405 18.9041 7.47197L18.4353 7.03439L17.9727 6.60306L17.5601 6.17173L17.1788 5.71539L16.835 5.24655L16.5662 4.79021L16.3974 4.36513L16.3224 3.97131L16.3286 3.57748L16.3849 3.21491L16.4912 2.9086L16.6224 2.66481L16.785 2.46477L16.9662 2.28974L17.1475 2.15221L17.3101 2.06469L17.4226 2.02719L17.5226 2.01468L17.7101 2.00843C17.7206 2.00656 17.731 2.00447 17.7414 2.00218L17.9352 1.98968C17.952 1.98608 17.9687 1.98191 17.9852 1.97718L18.1602 1.95217C18.1812 1.94894 18.2021 1.94477 18.2227 1.93967L18.354 1.90216C18.3687 1.8985 18.3833 1.89433 18.3978 1.88966L18.4853 1.8584C18.511 1.84972 18.536 1.8393 18.5603 1.82715L18.6041 1.80839C18.8408 1.69232 18.9345 1.50479 18.8854 1.24579ZM22.111 13.0043L22.161 13.073C22.2694 13.2186 22.3964 13.2373 22.5421 13.1291C22.6878 13.0208 22.7067 12.8938 22.5986 12.748L22.5486 12.6792C22.4402 12.5334 22.3131 12.5146 22.1672 12.623C22.0214 12.7313 22.0026 12.8584 22.111 13.0043Z" fill="black"/>
<path d="M20.5106 17.1114C20.5106 17.2184 20.5485 17.3097 20.6241 17.3854C20.6998 17.4611 20.7912 17.4989 20.8982 17.4989C21.0052 17.4989 21.0966 17.4611 21.1723 17.3854C21.2479 17.3097 21.2858 17.2184 21.2858 17.1114C21.2858 17.0043 21.2479 16.913 21.1723 16.8373C21.0966 16.7616 21.0052 16.7238 20.8982 16.7238C20.7912 16.7238 20.6998 16.7616 20.6241 16.8373C20.5485 16.913 20.5106 17.0043 20.5106 17.1114ZM20.5044 17.1114C20.5044 17.2201 20.5428 17.3129 20.6197 17.3898C20.6966 17.4667 20.7894 17.5052 20.8982 17.5052C21.007 17.5052 21.0998 17.4667 21.1767 17.3898C21.2536 17.3129 21.292 17.2201 21.292 17.1114C21.292 17.0026 21.2536 16.9098 21.1767 16.8329C21.0998 16.756 21.007 16.7175 20.8982 16.7175C20.7894 16.7175 20.6966 16.756 20.6197 16.8329C20.5428 16.9098 20.5044 17.0026 20.5044 17.1114ZM20.4919 17.0989C20.4919 17.2128 20.5322 17.31 20.6127 17.3906C20.6933 17.4711 20.7905 17.5114 20.9045 17.5114C21.0184 17.5114 21.1156 17.4711 21.1962 17.3906C21.2767 17.31 21.317 17.2128 21.317 17.0989C21.317 16.9849 21.2767 16.8877 21.1962 16.8071C21.1156 16.7266 21.0184 16.6863 20.9045 16.6863C20.7905 16.6863 20.6933 16.7266 20.6127 16.8071C20.5322 16.8877 20.4919 16.9849 20.4919 17.0989ZM20.4231 17.0676C20.4231 17.2005 20.4701 17.314 20.5641 17.408C20.6581 17.5019 20.7715 17.5489 20.9045 17.5489C21.0374 17.5489 21.1508 17.5019 21.2448 17.408C21.3388 17.314 21.3858 17.2005 21.3858 17.0676C21.3858 16.9347 21.3388 16.8212 21.2448 16.7272C21.1508 16.6332 21.0374 16.5863 20.9045 16.5863C20.7715 16.5863 20.6581 16.6332 20.5641 16.7272C20.4701 16.8212 20.4231 16.9347 20.4231 17.0676ZM20.3043 17.0363C20.3043 17.1986 20.3617 17.3371 20.4764 17.4518C20.5912 17.5666 20.7297 17.6239 20.8919 17.624C21.0542 17.6239 21.1927 17.5666 21.3075 17.4518C21.4222 17.3371 21.4796 17.1986 21.4796 17.0363C21.4796 16.8741 21.4222 16.7356 21.3075 16.6208C21.1927 16.5061 21.0542 16.4487 20.8919 16.4487C20.7297 16.4487 20.5912 16.5061 20.4764 16.6208C20.3617 16.7356 20.3043 16.8741 20.3043 17.0363ZM20.4794 16.4737L20.2668 16.5925C20.2071 16.627 20.1529 16.6686 20.1043 16.7175L19.773 17.0488C19.7623 17.059 19.7519 17.0694 19.7417 17.0801L19.2729 17.5989C19.2644 17.6071 19.2561 17.6154 19.2479 17.624L18.654 18.3303C18.6453 18.3447 18.6369 18.3593 18.629 18.3741L17.9664 19.2555C17.9599 19.2658 17.9537 19.2762 17.9476 19.2868L17.2725 20.2807C17.2661 20.2889 17.2599 20.2973 17.2538 20.3057L16.6099 21.3309C16.6013 21.3411 16.593 21.3516 16.5849 21.3622L16.0285 22.3373C16.0197 22.3538 16.0113 22.3704 16.0035 22.3874L15.5597 23.2875C15.553 23.3019 15.5468 23.3165 15.5409 23.3313L15.2096 24.1127C15.2027 24.1312 15.1965 24.15 15.1909 24.1689L14.9596 24.8191C14.9573 24.8295 14.9552 24.8399 14.9533 24.8503L14.7845 25.3879C14.7801 25.4003 14.7759 25.4128 14.772 25.4254L14.6595 25.8755C14.6545 25.8983 14.6503 25.9212 14.647 25.9443L14.5845 26.3006C14.5796 26.3213 14.5754 26.3421 14.572 26.3631L14.547 26.6382C14.5405 26.7007 14.5405 26.7632 14.547 26.8257L14.5657 27.0195C14.5755 27.1173 14.6005 27.2111 14.6408 27.3008L14.697 27.4258C14.752 27.5446 14.8291 27.6467 14.9283 27.7321L15.0221 27.8134C15.1247 27.9021 15.2414 27.9646 15.3721 28.0009L15.5222 28.0447C15.602 28.0662 15.6833 28.0766 15.766 28.0759H15.9848C16.0035 28.0765 16.0223 28.0765 16.041 28.0759L16.3473 28.0572C16.3851 28.0554 16.4226 28.0512 16.4599 28.0447L16.8412 27.9697C16.8815 27.9619 16.9211 27.9515 16.96 27.9384L17.4038 27.7884C17.4722 27.765 17.5368 27.7337 17.5976 27.6946L18.0352 27.4196C18.1673 27.3316 18.2652 27.2149 18.329 27.0695L18.5102 26.6757L18.6853 26.3569L18.9416 26.1568C19.0833 26.0443 19.0979 25.9172 18.9853 25.7755C18.8728 25.6338 18.7457 25.6192 18.604 25.7317L18.3665 25.9255L18.0602 25.9568L17.6663 25.9193C17.5669 25.9095 17.4689 25.9179 17.3725 25.9443L16.8787 26.0818C16.8766 26.0818 16.8745 26.0818 16.8724 26.0818L16.4724 26.2006L16.1848 26.2506L15.9598 26.2631H15.866L15.8097 26.2506C15.9268 26.3489 16.0601 26.4135 16.2098 26.4444L16.1098 26.3631C16.1651 26.4872 16.2443 26.5935 16.3473 26.6819L16.2911 26.5569C16.3001 26.6569 16.3252 26.7528 16.3661 26.8445L16.3536 26.7257L16.3661 26.5694L16.4161 26.2881L16.5161 25.888L16.6661 25.3879L16.8724 24.7816L17.1787 24.0564L17.6038 23.2L18.1289 22.2623L18.7478 21.2621L19.4042 20.2995L20.0418 19.4305L20.5981 18.7054C20.6024 18.7013 20.6065 18.6971 20.6106 18.6929L21.0232 18.124C21.0319 18.1118 21.0402 18.0993 21.0482 18.0865L21.3045 17.6927C21.3229 17.6667 21.3395 17.6396 21.3545 17.6114L21.4608 17.3864C21.6131 17.0753 21.5624 16.8018 21.3087 16.5659C21.0551 16.33 20.7786 16.2993 20.4794 16.4737Z" fill="black"/>
<path d="M21.0733 12.4229C21.0733 12.5265 21.1099 12.6149 21.1832 12.6882C21.2564 12.7614 21.3448 12.798 21.4484 12.798C21.552 12.798 21.6404 12.7614 21.7136 12.6882C21.7868 12.6149 21.8235 12.5265 21.8235 12.4229C21.8235 12.3194 21.7868 12.231 21.7136 12.1577C21.6404 12.0845 21.552 12.0479 21.4484 12.0479C21.3448 12.0479 21.2564 12.0845 21.1832 12.1577C21.1099 12.231 21.0733 12.3194 21.0733 12.4229ZM21.7484 12.6605L21.7547 12.6542C21.7875 12.611 21.8104 12.5631 21.8235 12.5105L21.8297 12.498C21.8647 12.3613 21.8376 12.2384 21.7484 12.1291L21.7234 12.0916C21.7135 12.0807 21.7031 12.0703 21.6922 12.0604L21.6297 11.9979C21.5576 11.9271 21.4722 11.8812 21.3734 11.8603L21.1796 11.8103C21.1425 11.8025 21.105 11.7984 21.0671 11.7978L20.767 11.7916L20.3794 11.7728C20.3711 11.7727 20.3628 11.7727 20.3544 11.7728L19.8543 11.7666C19.8397 11.7661 19.8252 11.7661 19.8106 11.7666L19.198 11.7978C19.177 11.799 19.1562 11.8011 19.1354 11.8041L18.4541 11.8978C18.4499 11.8978 18.4457 11.8978 18.4416 11.8978L17.7164 12.0104L16.9725 12.1166L16.2286 12.2042L15.416 12.3042C15.4076 12.3061 15.3993 12.3082 15.391 12.3104L14.5346 12.4417C14.5325 12.4417 14.5304 12.4417 14.5283 12.4417L13.6594 12.5792L12.8217 12.7042L12.0341 12.798L11.3277 12.8668C11.3215 12.8667 11.3152 12.8667 11.309 12.8668L10.6588 12.9418C10.6484 12.9437 10.638 12.9458 10.6276 12.948L10.0275 13.0418C10.0233 13.0417 10.0191 13.0417 10.015 13.0418L9.42735 13.1418C9.42109 13.1418 9.41484 13.1418 9.40859 13.1418L8.84598 13.2481L8.33339 13.3481L7.83954 13.4231L7.36445 13.4856L6.89561 13.5482C6.88725 13.5501 6.87891 13.5522 6.87061 13.5544L6.39552 13.6294L5.91418 13.6982C5.9079 13.7002 5.90165 13.7023 5.89542 13.7044L5.42033 13.7857L4.989 13.8607C4.97227 13.8623 4.9556 13.8644 4.93899 13.867L4.55142 13.9607C4.53887 13.9625 4.52637 13.9646 4.51391 13.967L4.16384 14.067C4.14066 14.0723 4.11774 14.0785 4.09508 14.0858L3.76377 14.2045L3.43871 14.3233C3.42184 14.329 3.40517 14.3353 3.3887 14.3421L3.07614 14.4796L2.75107 14.6109C2.74057 14.6148 2.73015 14.619 2.71982 14.6234L2.40726 14.7734C2.39889 14.7753 2.39056 14.7774 2.38225 14.7796L2.0822 14.9297C2.06727 14.9396 2.05269 14.95 2.03844 14.9609L1.76964 15.1172C1.7548 15.1251 1.74021 15.1334 1.72588 15.1422L1.48833 15.3047C1.4756 15.3127 1.4631 15.3211 1.45083 15.3297L1.23829 15.4923C1.22767 15.5004 1.21725 15.5087 1.20703 15.5173L1.01324 15.6798C0.974288 15.714 0.938865 15.7515 0.906973 15.7923L0.756945 15.9736C0.726046 16.0128 0.698958 16.0545 0.675679 16.0986L0.563158 16.2987C0.534409 16.3504 0.511488 16.4046 0.494395 16.4612L0.431883 16.6738C0.414216 16.7351 0.403797 16.7976 0.400627 16.8613L0.388125 17.0926C0.386576 17.1218 0.386576 17.1509 0.388125 17.1801L0.400627 17.4426C0.403986 17.4827 0.410238 17.5223 0.419381 17.5614L0.475641 17.8365C0.484511 17.8813 0.497014 17.925 0.513148 17.9677L0.613168 18.2303C0.633061 18.2829 0.658066 18.3329 0.688182 18.3803L0.831959 18.6054C0.855882 18.6452 0.88297 18.6827 0.913225 18.7179L1.08201 18.8992C1.10921 18.9284 1.13839 18.9555 1.16952 18.9804L1.3258 19.1117C1.36676 19.1451 1.41052 19.1743 1.45708 19.1992L1.60711 19.2805C1.63745 19.2971 1.6687 19.3116 1.70087 19.3243L1.8509 19.3805C1.89343 19.3988 1.93719 19.4134 1.98218 19.4243L2.16346 19.4618C2.19862 19.4683 2.23404 19.4724 2.26973 19.4743L2.51353 19.493C2.52186 19.4932 2.5302 19.4932 2.53853 19.493L2.8761 19.5055C2.88652 19.5057 2.89694 19.5057 2.90735 19.5055L3.35744 19.5118L3.90754 19.518C3.90963 19.518 3.91171 19.518 3.9138 19.518L4.57017 19.5118C4.58059 19.512 4.59101 19.512 4.60143 19.5118L5.37032 19.4805L6.20798 19.4493C6.21215 19.4493 6.21632 19.4493 6.22049 19.4493L7.0894 19.4118C7.09568 19.4098 7.10193 19.4077 7.10815 19.4055L7.98957 19.343C7.99166 19.343 7.99374 19.343 7.99582 19.343L8.91475 19.268C8.91891 19.268 8.92308 19.268 8.92725 19.268L9.90244 19.1805C9.91289 19.1786 9.92331 19.1765 9.93369 19.1742L10.9401 19.043C10.9506 19.0431 10.961 19.0431 10.9714 19.043L11.9591 18.8804C11.9632 18.8804 11.9674 18.8804 11.9716 18.8804L12.9343 18.7116L13.8219 18.5554L14.6533 18.4178L15.416 18.2991C15.4244 18.2971 15.4327 18.295 15.441 18.2928L16.1724 18.1553C16.1745 18.1553 16.1765 18.1553 16.1786 18.1553L16.8475 18.024C16.8496 18.024 16.8517 18.024 16.8538 18.024L17.4664 17.9052C17.4685 17.9052 17.4705 17.9052 17.4726 17.9052L18.4666 17.6989L18.8354 17.6364L19.1229 17.5989L19.298 17.5802L19.448 17.5864L19.7731 17.6052C19.7814 17.6053 19.7897 17.6053 19.7981 17.6052L19.8793 17.6114L19.9356 17.6177L20.1669 17.6489C20.2673 17.6644 20.3673 17.6623 20.4669 17.6427L20.5732 17.6239C20.7424 17.5875 20.8861 17.5063 21.0045 17.3801L21.0546 17.3301C21.1959 17.1836 21.2665 17.0086 21.2665 16.805C21.2665 16.6015 21.1959 16.4264 21.0546 16.2799L21.0045 16.2299C20.9313 16.1508 20.8458 16.0883 20.7483 16.0424L20.6482 15.9986C20.6277 15.9895 20.6069 15.9811 20.5857 15.9736L20.3669 15.8986C20.3221 15.8824 20.2762 15.8699 20.2294 15.8611L20.1169 15.8423C20.0818 15.834 20.0464 15.8277 20.0106 15.8236L19.8793 15.8173C19.8773 15.8173 19.8752 15.8173 19.8731 15.8173L19.5355 15.7986C19.5293 15.7985 19.523 15.7985 19.5168 15.7986L19.3042 15.7923C19.273 15.7907 19.2417 15.7907 19.2105 15.7923L18.9604 15.8111C18.9416 15.8126 18.9228 15.8147 18.9042 15.8173L18.5791 15.8548C18.5686 15.8567 18.5582 15.8588 18.5478 15.8611L18.1478 15.9299C18.1373 15.9318 18.1269 15.9338 18.1165 15.9361L17.1163 16.1424L16.5099 16.2612C16.5079 16.2612 16.5058 16.2612 16.5037 16.2612L15.8411 16.3924L15.1222 16.53L14.3658 16.655L13.5281 16.7925C13.526 16.7925 13.524 16.7925 13.5219 16.7925L12.628 16.9488C12.6259 16.9488 12.6238 16.9488 12.6217 16.9488L11.6653 17.1176L10.6963 17.2801L9.7149 17.4114L8.75222 17.5177L7.85205 17.6052L6.97688 17.6802L6.11422 17.749L5.29531 17.8052L4.54517 17.8365L3.90129 17.8427L3.35744 17.849L2.91986 17.8552L2.6198 17.8427L2.45102 17.8302L2.376 17.8115L2.3385 17.799L2.30724 17.7802L2.25723 17.7427L2.18847 17.6614L2.12596 17.5614L2.07595 17.4426L2.04469 17.2989L2.03844 17.1426L2.04469 17.0426L2.05719 16.9988L2.0822 16.9488L2.12596 16.8988L2.25098 16.7925L2.42601 16.6613L2.6198 16.5362L2.85109 16.405L3.11364 16.2737L3.4012 16.1424L3.71376 16.0111L4.01382 15.8924L4.33263 15.7798L4.62643 15.6798L4.94524 15.5985L5.30156 15.5048L5.70164 15.436L6.17673 15.3548L6.65182 15.2797L7.12066 15.211L7.5895 15.1485C7.59159 15.1464 7.59367 15.1443 7.59575 15.1422L8.07709 15.0734C8.08126 15.0735 8.08542 15.0735 8.08959 15.0734L8.60219 14.9859C8.61052 14.9861 8.61886 14.9861 8.62719 14.9859L9.15854 14.8859L9.7149 14.7796L10.29 14.6796L10.8714 14.5859L11.509 14.4983C11.5132 14.4984 11.5173 14.4984 11.5215 14.4983L12.2341 14.3921L13.028 14.292C13.0364 14.2901 13.0447 14.288 13.053 14.2858L13.9094 14.1545C13.9115 14.1545 13.9136 14.1545 13.9157 14.1545L14.7846 14.0045L15.641 13.8607L16.4474 13.7232L17.1913 13.6044L17.9415 13.4856L18.6666 13.3731L19.3355 13.2794L19.9418 13.1981C19.9481 13.1982 19.9544 13.1982 19.9606 13.1981L20.4544 13.1168C20.4649 13.115 20.4753 13.1129 20.4857 13.1106L20.867 13.0293C20.8754 13.0295 20.8837 13.0295 20.892 13.0293L21.1858 12.9543C21.2157 12.9482 21.2448 12.9399 21.2734 12.9293L21.4609 12.848C21.5061 12.8289 21.5478 12.8039 21.5859 12.773L21.6547 12.723C21.5806 12.7353 21.5139 12.7644 21.4546 12.8105L21.4984 12.8043C21.5089 12.8026 21.5193 12.8005 21.5296 12.798L21.5422 12.7918C21.5104 12.7922 21.4791 12.7963 21.4484 12.8043H21.4546C21.5753 12.8028 21.6733 12.7549 21.7484 12.6605ZM20.0731 16.7863C20.0732 16.9295 20.1239 17.0517 20.2252 17.1529C20.3265 17.2542 20.4488 17.3048 20.592 17.3048C20.7352 17.3048 20.8574 17.2542 20.9587 17.1529C21.06 17.0517 21.1107 16.9295 21.1108 16.7863C21.1107 16.6431 21.06 16.5209 20.9587 16.4196C20.8574 16.3184 20.7352 16.2678 20.592 16.2678C20.4488 16.2678 20.3265 16.3184 20.2252 16.4196C20.1239 16.5209 20.0732 16.6431 20.0731 16.7863ZM20.8358 16.9613L20.8608 16.9363C20.9693 16.8075 20.964 16.6836 20.8449 16.5646C20.7259 16.4455 20.602 16.4402 20.4732 16.5487L20.4482 16.5737C20.3397 16.7025 20.345 16.8264 20.464 16.9455C20.5831 17.0645 20.707 17.0698 20.8358 16.9613Z" fill="black"/>
</g>
<defs>
<clipPath id="clip0_1_7160">
<rect width="31" height="29" fill="white"/>
</clipPath>
</defs>
</svg>
