<svg width="44" height="41" viewBox="0 0 44 41" fill="none" xmlns="http://www.w3.org/2000/svg">
<g clip-path="url(#clip0_1_7157)">
<path d="M20.2368 3.47782L20.0298 3.28374C19.9231 3.18587 19.8002 3.11687 19.6611 3.07672L18.6454 2.77266C18.5588 2.74731 18.4704 2.73437 18.3801 2.73384L17.1121 2.70797C17.0357 2.70802 16.9602 2.71664 16.8857 2.73384L15.4172 3.0379C15.3506 3.05103 15.2859 3.07044 15.2231 3.09613L13.6317 3.76893C13.5894 3.78573 13.5485 3.80513 13.5087 3.82716L11.8202 4.81696C11.7844 4.8387 11.7499 4.86242 11.7167 4.88813L9.97649 6.19493C9.94729 6.21727 9.91926 6.24099 9.89239 6.26609L8.13274 7.88342C8.10562 7.90805 8.07974 7.93393 8.05511 7.96105L6.33427 9.89537C6.30905 9.92438 6.28533 9.95457 6.26311 9.98594L4.62637 12.2437C4.6032 12.275 4.58163 12.3074 4.56168 12.3408L3.17078 14.7215C3.14922 14.7592 3.12981 14.798 3.11255 14.8379L2.03865 17.2833C2.01837 17.3297 2.00112 17.3771 1.98689 17.4257L1.24939 19.9163C1.23214 19.9736 1.2192 20.0318 1.21058 20.091L0.854765 22.627C0.846402 22.698 0.844246 22.7691 0.848295 22.8405L0.938866 25.37C0.943406 25.4421 0.954189 25.5132 0.971212 25.5835L1.49523 28.0547C1.51264 28.1393 1.53852 28.2213 1.57286 28.3006L2.61442 30.636C2.6497 30.7159 2.69283 30.7914 2.7438 30.8624L4.27056 32.9973C4.31869 33.0628 4.3726 33.1232 4.43229 33.1784L6.48307 35.1127C6.53555 35.1605 6.59161 35.2037 6.65127 35.2421L9.13548 36.9112C9.18513 36.945 9.23688 36.9752 9.29075 37.0018L12.0531 38.3474C12.1096 38.3754 12.1678 38.3991 12.2278 38.4186L15.3719 39.4148C15.4187 39.4283 15.4662 39.4391 15.5142 39.4472L18.8912 40.1071C18.9297 40.1153 18.9685 40.1218 19.0077 40.1265L22.4364 40.4629C22.4859 40.4679 22.5355 40.47 22.5852 40.4693L25.9492 40.4111C26.0077 40.4108 26.066 40.4065 26.1239 40.3982L29.2744 39.9194C29.3425 39.9097 29.4093 39.8946 29.475 39.8742L32.3474 38.9491C32.4259 38.9239 32.5014 38.8915 32.5738 38.852L35.1033 37.4805C35.1719 37.4432 35.2366 37.4001 35.2974 37.3511L37.4905 35.585C37.5514 35.5361 37.6074 35.4822 37.6587 35.4233L39.4701 33.3272C39.5212 33.2666 39.5665 33.2019 39.6059 33.1331L41.0357 30.7201C41.0737 30.656 41.106 30.5891 41.1327 30.5195L42.1807 27.7701C42.2023 27.7109 42.2195 27.6506 42.2325 27.5889L42.9118 24.5807C42.9271 24.519 42.9378 24.4564 42.9441 24.3931L43.1899 21.2361C43.1959 21.178 43.1981 21.1198 43.1964 21.0614L43.0282 17.8979C43.0262 17.8349 43.0197 17.7724 43.0088 17.7103L42.4007 14.6568C42.3869 14.5862 42.3675 14.5172 42.3425 14.4498L41.275 11.5903C41.2515 11.5278 41.2235 11.4675 41.1909 11.4092L39.6965 8.74384C39.662 8.68479 39.6232 8.62873 39.5801 8.57563L37.691 6.15611C37.6459 6.09812 37.5963 6.0442 37.5422 5.99438L35.2974 3.93714C35.2372 3.88166 35.1725 3.83207 35.1033 3.78834L32.5609 2.19689C32.4909 2.15354 32.4176 2.11688 32.3409 2.08691L29.5656 0.980661C29.4777 0.945314 29.3871 0.919436 29.2939 0.90303L26.3439 0.385485C26.2497 0.368948 26.1548 0.362479 26.0592 0.366077L22.9669 0.488994C22.8817 0.491673 22.7976 0.502455 22.7146 0.52134L19.6352 1.23943C19.5549 1.25744 19.4773 1.28331 19.4023 1.31707L16.6658 2.57858C16.6299 2.59557 16.5954 2.61497 16.5623 2.63681L14.4791 3.97595L12.8165 4.77168C12.7254 4.82099 12.6638 4.89494 12.6319 4.99353C12.6 5.09212 12.6065 5.1881 12.6515 5.28147C12.6964 5.37484 12.7674 5.43979 12.8644 5.47632C12.9614 5.51285 13.0575 5.51087 13.1529 5.47036L14.7897 4.68111L17.1898 4.1765L20.1268 3.62014L23.1351 3.12847L26.001 3.07672L28.6922 3.55545L31.2346 4.55172L33.5701 6.01379L35.6532 7.90282L37.4128 10.1477L38.8296 12.619L39.8065 15.2778L40.3758 18.1373L40.544 21.1196L40.3111 24.0955L39.6771 26.9161L38.7002 29.4715L37.3999 31.7034L35.7502 33.6313L33.7577 35.2486L31.4352 36.5166L28.7828 37.377L25.8198 37.8363L22.6175 37.8816L19.3182 37.5711L16.0771 36.9371L13.0947 35.9926L10.494 34.7246L8.15862 33.172L6.26311 31.4058L4.86574 29.4909L3.92122 27.3884L3.40367 25.1565L3.30016 22.8469L3.59775 20.4986L4.25115 18.1632L5.24743 15.8471L6.55423 13.5635L8.11333 11.3833L9.73713 9.51368L11.3868 7.93517L13.0041 6.66072L14.5503 5.69679L15.98 5.04986L17.248 4.71992L18.2831 4.66817L19.1241 4.85578L19.3182 4.92694C19.5131 5.00401 19.7102 5.0101 19.9096 4.94523C20.1089 4.88035 20.2647 4.7594 20.3769 4.58236C20.4891 4.40532 20.5321 4.21282 20.5057 4.00487C20.4793 3.79692 20.3897 3.62123 20.2368 3.47782Z" fill="black"/>
<path d="M21.1041 11.6869C21.1041 11.8078 21.1468 11.9109 21.2322 11.9964C21.3177 12.0818 21.4208 12.1245 21.5416 12.1245C21.6625 12.1245 21.7656 12.0818 21.8511 11.9964C21.9365 11.9109 21.9792 11.8078 21.9792 11.6869C21.9792 11.5661 21.9365 11.463 21.8511 11.3775C21.7656 11.2921 21.6625 11.2494 21.5416 11.2494C21.4208 11.2494 21.3177 11.2921 21.2322 11.3775C21.1468 11.463 21.1041 11.5661 21.1041 11.6869ZM21.0165 11.6744C21.0165 11.8143 21.066 11.9336 21.1648 12.0325C21.2637 12.1313 21.3831 12.1808 21.5229 12.1808C21.6627 12.1808 21.7821 12.1313 21.8809 12.0325C21.9798 11.9336 22.0292 11.8143 22.0292 11.6744C22.0292 11.5346 21.9798 11.4153 21.8809 11.3164C21.7821 11.2175 21.6627 11.1681 21.5229 11.1681C21.3831 11.1681 21.2637 11.2175 21.1648 11.3164C21.066 11.4153 21.0165 11.5346 21.0165 11.6744ZM21.6792 11.0743L21.6104 11.0556C21.3685 10.9719 21.1456 11.0074 20.9415 11.1618L20.7477 11.3119C20.6381 11.395 20.5548 11.4992 20.4977 11.6244L20.2726 12.1183C20.2479 12.1747 20.2292 12.2331 20.2164 12.2933L19.9913 13.2872C19.9865 13.3079 19.9823 13.3288 19.9788 13.3498L19.7225 14.9813C19.7202 14.9938 19.7181 15.0063 19.7163 15.0188L19.4412 17.3068C19.4391 17.313 19.437 17.3192 19.435 17.3255L19.1599 20.126C19.1599 20.1302 19.1599 20.1344 19.1599 20.1385L18.9036 23.1391C18.9036 23.1433 18.9036 23.1475 18.9036 23.1516L18.6973 25.9959C18.6972 26.0043 18.6972 26.0126 18.6973 26.0209L18.4911 30.1092C18.4906 30.1259 18.4906 30.1425 18.4911 30.1592L18.4973 31.1782C18.4998 31.4442 18.6061 31.6588 18.8161 31.822L18.9411 31.922C19.0911 32.0384 19.2557 32.0655 19.435 32.0033L19.5913 31.9533C19.8935 31.8502 20.0748 31.6418 20.1351 31.3282L20.3227 30.328C20.3284 30.2969 20.3326 30.2657 20.3352 30.2342L20.6977 26.1584C20.6978 26.1543 20.6978 26.1501 20.6977 26.1459L20.9165 23.3079L21.1728 20.3198L21.4416 17.5318L21.7042 15.2501L21.8855 13.6061L21.998 12.5996L22.0605 12.062C22.0626 12.0599 22.0647 12.0579 22.0667 12.0558L22.0917 11.812C22.0942 11.7995 22.0962 11.787 22.098 11.7745V11.7057C22.1187 11.3889 21.9791 11.1784 21.6792 11.0743ZM19.5225 31.3469L19.51 30.9844C19.5016 30.7928 19.4015 30.7012 19.21 30.7095C19.0184 30.7178 18.9267 30.8178 18.9349 31.0094L18.9474 31.3719C18.9557 31.5636 19.0558 31.6553 19.2475 31.647C19.4392 31.6387 19.5308 31.5386 19.5225 31.3469Z" fill="black"/>
<path d="M20.7416 12.0558C20.7416 12.1783 20.7849 12.2829 20.8716 12.3696C20.9582 12.4563 21.0628 12.4996 21.1854 12.4996C21.308 12.4996 21.4126 12.4563 21.4992 12.3696C21.5859 12.2829 21.6292 12.1783 21.6292 12.0558C21.6292 11.9332 21.5859 11.8286 21.4992 11.7419C21.4126 11.6552 21.308 11.6119 21.1854 11.6119C21.0628 11.6119 20.9582 11.6552 20.8716 11.7419C20.7849 11.8286 20.7416 11.9332 20.7416 12.0558ZM20.679 12.0558C20.679 12.1921 20.7273 12.3085 20.8237 12.405C20.9201 12.5014 21.0365 12.5496 21.1729 12.5496C21.3093 12.5496 21.4257 12.5014 21.5221 12.405C21.6185 12.3085 21.6667 12.1921 21.6667 12.0558C21.6667 11.9194 21.6185 11.803 21.5221 11.7065C21.4257 11.6101 21.3093 11.5619 21.1729 11.5619C21.0365 11.5619 20.9201 11.6101 20.8237 11.7065C20.7273 11.803 20.679 11.9194 20.679 12.0558ZM20.9729 11.4806L20.8541 11.5056C20.7972 11.5196 20.7431 11.5404 20.6916 11.5682L20.5103 11.6682L20.2915 11.7869L20.0227 11.9182C19.9948 11.9314 19.9677 11.946 19.9414 11.962L19.5413 12.2183C19.4922 12.2495 19.4464 12.2849 19.4038 12.3246L18.8475 12.8371C18.8139 12.8683 18.7826 12.9017 18.7537 12.9372L18.0473 13.7936C18.0343 13.8099 18.0218 13.8265 18.0098 13.8436L17.1784 14.9751C17.1719 14.9854 17.1657 14.9958 17.1596 15.0063L16.3157 16.2503C16.3136 16.2545 16.3115 16.2586 16.3095 16.2628L15.5593 17.4005C15.5529 17.4088 15.5467 17.4171 15.5406 17.4255L14.978 18.3507C14.9737 18.359 14.9695 18.3673 14.9655 18.3757L14.6029 19.0008L14.3653 19.3446L14.2216 19.5259C14.3385 19.4629 14.4385 19.3795 14.5216 19.2759L14.4591 19.3071C14.3767 19.4991 14.3576 19.6972 14.4017 19.9014C14.4457 20.1055 14.5449 20.2781 14.6992 20.4189C14.8534 20.5598 15.0342 20.643 15.2415 20.6684C15.4489 20.6938 15.6444 20.6568 15.8281 20.5574L15.8594 20.4824L16.0407 20.2261L16.4908 19.701L17.1721 18.9446L18.0285 18.0006C18.0349 17.9924 18.0412 17.9841 18.0473 17.9756L18.9475 16.9129C18.9583 16.8986 18.9687 16.884 18.9787 16.8692L19.8039 15.7752C19.8147 15.7609 19.8251 15.7463 19.8351 15.7314L20.5228 14.7063C20.5314 14.6939 20.5397 14.6814 20.5478 14.6687L21.0729 13.8061C21.0794 13.7937 21.0857 13.7812 21.0916 13.7686L21.4542 13.1185C21.4608 13.104 21.4671 13.0894 21.473 13.0747L21.6792 12.6496C21.6909 12.623 21.7013 12.5959 21.7105 12.5683L21.798 12.3433L21.823 12.2745C21.9176 12.0515 21.9271 11.8249 21.8517 11.5946C21.7763 11.3644 21.6344 11.1874 21.4262 11.0636C21.218 10.9397 20.9947 10.8996 20.7564 10.9433C20.5181 10.9869 20.3235 11.1035 20.1727 11.2931L20.1539 11.3181C20.0688 11.4243 20.0084 11.5431 19.9727 11.6744L19.9289 11.8182C19.9136 11.8736 19.9032 11.9298 19.8977 11.987L19.8726 12.2495C19.8676 12.3079 19.8676 12.3662 19.8726 12.4246L19.9039 12.8934C19.9051 12.9185 19.9072 12.9435 19.9102 12.9684L20.0164 13.7311C20.0209 13.7668 20.0272 13.8022 20.0352 13.8373L20.304 14.9188C20.3095 14.9419 20.3157 14.9648 20.3227 14.9876L20.7541 16.3753C20.7616 16.3985 20.77 16.4214 20.7791 16.4441L21.3479 17.8944C21.359 17.9262 21.3715 17.9575 21.3854 17.9881L22.0293 19.2821C22.0547 19.3323 22.0839 19.3803 22.1168 19.4259L22.8045 20.3823C22.9144 20.5348 23.0561 20.6473 23.2295 20.7199L23.9172 21.0075C24.0232 21.0536 24.1336 21.0702 24.2485 21.0575L24.586 21.0137L24.8298 21.0637C25.0338 21.105 25.1566 21.0237 25.1982 20.8198C25.2398 20.6159 25.1587 20.493 24.9549 20.4511L24.8486 20.4261L24.7861 20.2323C24.7861 20.2302 24.7861 20.2281 24.7861 20.2261L24.5735 19.5134C24.5549 19.4484 24.5299 19.3859 24.4985 19.3259L23.9484 18.3132L23.3608 17.0692L22.8295 15.6877L22.4044 14.3562L22.1356 13.331L21.9855 12.6121L21.9043 12.2058L21.8918 12.0683V12.0057L21.898 11.9807C21.9308 11.7149 21.8648 11.4764 21.7001 11.2652C21.5353 11.0541 21.32 10.9321 21.0541 10.8993C20.7883 10.8665 20.5498 10.9325 20.3386 11.0973C20.1274 11.262 20.0055 11.4774 19.9727 11.7432L19.9602 11.837C19.9871 11.7683 20.0058 11.6974 20.0164 11.6244L19.9289 11.8432L19.7539 12.2245L19.4226 12.8246L18.9162 13.6561L18.2598 14.65L17.4784 15.7127L16.6095 16.7316L15.7594 17.6443L15.053 18.3882C15.0423 18.3984 15.0319 18.4088 15.0217 18.4195L14.5341 18.9883C14.5143 19.0104 14.4956 19.0333 14.4779 19.0571L14.2091 19.4322C14.1726 19.4833 14.1413 19.5375 14.1153 19.5947L14.034 19.7635C13.8505 20.1754 13.9185 20.5405 14.2382 20.8586C14.5579 21.1767 14.9232 21.243 15.3343 21.0575L15.3968 21.0325C15.5312 20.9708 15.6458 20.8833 15.7406 20.7699L15.9156 20.5636C15.9379 20.5376 15.9587 20.5105 15.9782 20.4824L16.247 20.0698C16.249 20.0677 16.2511 20.0656 16.2532 20.0635L16.672 19.4259C16.6741 19.4238 16.6762 19.4217 16.6783 19.4197L17.2596 18.5132L18.0035 17.3818L18.8287 16.1565L19.6288 15.0438L20.2977 14.1937L20.7666 13.6311L21.0729 13.281L21.2792 13.0434C21.2947 13.0233 21.3093 13.0024 21.3229 12.9809L21.4792 12.7621C21.4952 12.738 21.5098 12.713 21.523 12.6871L21.6292 12.5058C21.6496 12.4678 21.6663 12.4282 21.6792 12.3871L21.7167 12.2683C21.7908 12.0364 21.7443 11.832 21.5772 11.655C21.41 11.478 21.2086 11.4199 20.9729 11.4806Z" fill="black"/>
</g>
<defs>
<clipPath id="clip0_1_7157">
<rect width="44" height="41" fill="white"/>
</clipPath>
</defs>
</svg>
