<svg width="34" height="39" viewBox="0 0 34 39" fill="none" xmlns="http://www.w3.org/2000/svg">
<g clip-path="url(#clip0_1_7441)">
<path d="M1.5694 32.7913L1.51314 32.81C1.46415 32.8211 1.41831 32.8399 1.37561 32.8663L1.22558 32.9601C1.18863 32.9827 1.15529 33.0098 1.12556 33.0413L0.894267 33.2914C0.865093 33.3238 0.840088 33.3593 0.819253 33.3976L0.581708 33.829C0.56085 33.8668 0.544181 33.9064 0.531698 33.9477L0.362916 34.5103C0.350475 34.5512 0.34214 34.5929 0.337911 34.6354L0.275399 35.2792C0.268567 35.3507 0.272735 35.4216 0.287902 35.4918L0.431679 36.1732C0.446551 36.2506 0.47364 36.3236 0.512945 36.392L0.900518 37.0483C0.940412 37.1171 0.990422 37.1776 1.05055 37.2296L1.65066 37.7422C1.71035 37.7951 1.77703 37.8368 1.8507 37.8672L2.56334 38.1485C2.64725 38.1841 2.73477 38.2028 2.82589 38.2048H3.55727C3.65056 38.2036 3.74016 38.1849 3.82608 38.1485L4.49495 37.8735C4.57911 37.8399 4.65412 37.7919 4.72 37.7297L5.25135 37.2234C5.31386 37.1637 5.36387 37.0949 5.40138 37.0171L5.74519 36.3107C5.77698 36.2431 5.79782 36.1722 5.8077 36.0981L5.93898 35.2292C5.94706 35.1667 5.94706 35.1042 5.93898 35.0417L5.83271 34.0978C5.8269 34.04 5.8144 33.9838 5.7952 33.929L5.47014 33.0288C5.44695 32.9662 5.41569 32.9078 5.37637 32.8538L4.86377 32.1286C4.80798 32.0502 4.73922 31.9856 4.65748 31.9349L3.99486 31.5223C3.888 31.4542 3.77131 31.4167 3.64479 31.4098L2.94466 31.3785C2.80132 31.3719 2.66796 31.4053 2.54458 31.4785L1.93822 31.8473C1.74883 31.959 1.6384 32.1236 1.6069 32.3412L1.52564 32.9225L1.24433 33.4852C1.19279 33.6496 1.24371 33.771 1.3971 33.8495C1.55049 33.928 1.67876 33.8982 1.78194 33.7602L2.03824 33.2601L2.52583 33.0788C2.54707 33.0715 2.56791 33.0632 2.58834 33.0538L3.05718 32.8288L3.38849 32.8475L3.76981 33.0851L4.13863 33.6039L4.38868 34.3416L4.4762 35.1167L4.38868 35.7918L4.16364 36.2857L3.82608 36.6107L3.4135 36.7795H2.96341L2.49457 36.592L2.07574 36.2232L1.78819 35.7543L1.66316 35.248L1.64441 34.7354L1.71942 34.254L1.8382 33.8352L1.91946 33.5977L1.96322 33.5352L1.97572 33.5227C2.13933 33.3693 2.16668 33.1946 2.05777 32.9985C1.94885 32.8025 1.78606 32.7334 1.5694 32.7913Z" fill="black"/>
<path d="M11.0208 20.2577C11.0208 20.3768 11.0629 20.4785 11.1471 20.5627C11.2314 20.6469 11.333 20.6891 11.4521 20.6891C11.5712 20.6891 11.6729 20.6469 11.7571 20.5627C11.8413 20.4785 11.8835 20.3768 11.8835 20.2577C11.8835 20.1386 11.8413 20.037 11.7571 19.9527C11.6729 19.8685 11.5712 19.8264 11.4521 19.8264C11.333 19.8264 11.2314 19.8685 11.1471 19.9527C11.0629 20.037 11.0208 20.1386 11.0208 20.2577ZM11.4959 19.8076H11.4834C11.3857 19.7972 11.294 19.8159 11.2083 19.8639L11.1646 19.8889C11.0991 19.9266 11.0449 19.9766 11.002 20.0389L10.9208 20.1515C10.8713 20.2234 10.84 20.3026 10.827 20.389L10.777 20.6828C10.7681 20.7346 10.7661 20.7867 10.7707 20.8391L10.8208 21.3142C10.8274 21.3636 10.8399 21.4116 10.8583 21.458L11.0833 22.0956C11.0989 22.1418 11.1198 22.1856 11.1458 22.2269L11.5584 22.852C11.5787 22.8832 11.6016 22.9124 11.6272 22.9395L12.121 23.4583C12.1586 23.4967 12.2003 23.5301 12.246 23.5584L12.7774 23.8959C12.8503 23.9441 12.9295 23.9774 13.0149 23.9959L13.515 24.096C13.613 24.1166 13.7109 24.1166 13.8088 24.096L14.2339 24.0022C14.3513 23.9764 14.4555 23.9244 14.5465 23.8459L14.884 23.5584C14.954 23.4984 15.0103 23.4276 15.0528 23.3458L15.2841 22.8895C15.3218 22.8187 15.3468 22.7437 15.3591 22.6644L15.4466 22.0581C15.4558 21.9848 15.4537 21.9119 15.4404 21.8393L15.3279 21.1516C15.3171 21.0887 15.2983 21.0283 15.2716 20.9704L14.9653 20.2952C14.9417 20.2439 14.9125 20.196 14.8778 20.1515L14.4214 19.5513C14.393 19.5172 14.3618 19.486 14.3277 19.4576L13.8088 18.995C13.7563 18.9469 13.6979 18.9073 13.6338 18.8762L13.1399 18.6449C12.8446 18.5041 12.5758 18.5437 12.3335 18.7637L12.0835 18.995C12.0424 19.0329 12.0091 19.0766 11.9835 19.1263L11.8522 19.3826L11.6647 19.6014C11.5796 19.7389 11.5977 19.8612 11.719 19.9682C11.8403 20.0752 11.9638 20.0779 12.0897 19.9764L12.221 19.8264H12.2835L12.4523 19.9264C12.4706 19.9377 12.4894 19.9481 12.5086 19.9577L12.9087 20.1515L13.3025 20.5015L13.6776 20.9829L13.9213 21.4955L14.0089 21.9768L13.9589 22.3519L13.8526 22.5707L13.7588 22.6519L13.64 22.6769L13.365 22.6332L12.9587 22.4394L12.5336 22.0956L12.2085 21.6142L12.0335 21.1079L11.9772 20.7016L11.946 20.4078C11.9424 20.376 11.9361 20.3447 11.9272 20.314L11.8897 20.1952L11.8835 20.164C11.8239 20.2679 11.8072 20.3784 11.8334 20.4953L11.8397 20.489C11.8781 20.4224 11.8984 20.3507 11.9005 20.2738C11.9027 20.1969 11.8864 20.1241 11.8518 20.0555C11.8171 19.9868 11.7683 19.9305 11.7052 19.8866C11.6421 19.8426 11.5723 19.8163 11.4959 19.8076Z" fill="black"/>
<path d="M20.0599 4.91063C20.0599 5.02801 20.1014 5.12821 20.1844 5.21121C20.2674 5.29421 20.3676 5.33571 20.4849 5.33571C20.6023 5.33571 20.7025 5.29421 20.7855 5.21121C20.8685 5.12821 20.91 5.02801 20.91 4.91063C20.91 4.79325 20.8685 4.69306 20.7855 4.61005C20.7025 4.52705 20.6023 4.48555 20.4849 4.48555C20.3676 4.48555 20.2674 4.52705 20.1844 4.61005C20.1014 4.69306 20.0599 4.79325 20.0599 4.91063ZM20.1036 4.69184L20.0974 4.69809L20.0786 4.72935C20.1751 4.70361 20.2543 4.65152 20.3162 4.57307L20.2349 4.59182C20.1604 4.61252 20.0937 4.64794 20.0349 4.69809L19.8723 4.82937C19.8267 4.86529 19.7871 4.90697 19.7536 4.95439L19.1972 5.76079C19.1907 5.76897 19.1845 5.77731 19.1784 5.7858L18.8159 6.37341C18.8138 6.37548 18.8117 6.37756 18.8096 6.37966L18.4596 6.96102C18.4575 6.96309 18.4554 6.96517 18.4533 6.96727L18.1532 7.47987L17.8907 7.8987L17.6844 8.23001L17.5219 8.47381L17.3969 8.65509C17.3926 8.6592 17.3885 8.66337 17.3844 8.6676L17.3156 8.78637L17.2718 8.84888C17.2397 8.89754 17.2147 8.94964 17.1968 9.00516L17.1843 9.04267C17.1765 9.06729 17.1703 9.0923 17.1656 9.11768L17.1593 9.14269C17.1668 9.12012 17.1731 9.09719 17.1781 9.07392L17.1656 9.10518C17.1602 9.12788 17.156 9.1508 17.1531 9.17394L17.1406 9.2177C17.1156 9.34771 17.126 9.47482 17.1718 9.59902L17.2093 9.69904C17.2258 9.74488 17.2466 9.78864 17.2718 9.83032L17.3531 9.96159C17.3666 9.98318 17.3812 10.004 17.3969 10.0241L17.5219 10.1866C17.5411 10.213 17.5619 10.238 17.5844 10.2616L17.7657 10.4492C17.7797 10.4644 17.7942 10.479 17.8094 10.4929L18.0657 10.7117C18.0857 10.7295 18.1065 10.7462 18.1282 10.7617L18.4721 10.9993C18.4803 11.0057 18.4886 11.012 18.4971 11.018L18.8846 11.2618L19.2785 11.5306C19.2967 11.542 19.3154 11.5525 19.3347 11.5619L19.7598 11.7869C19.774 11.7959 19.7886 11.8042 19.8036 11.8119L20.2286 11.9932C20.2511 12.0029 20.274 12.0113 20.2974 12.0182L20.7225 12.1433C20.7328 12.1477 20.7432 12.1519 20.7537 12.1558L21.1538 12.2495C21.1909 12.2577 21.2284 12.2619 21.2663 12.262L21.6164 12.2683C21.6658 12.2682 21.7137 12.2598 21.7602 12.2433L21.8915 12.1995L21.9852 12.2245C22.1487 12.2486 22.2527 12.181 22.2971 12.0218C22.3416 11.8626 22.2876 11.751 22.1353 11.6869L22.0415 11.6557L21.9477 11.5494C21.9219 11.5205 21.8927 11.4955 21.8602 11.4744L21.5726 11.2868C21.5468 11.2699 21.5197 11.2553 21.4914 11.2431L21.1226 11.0806L20.7412 10.893C20.7351 10.8887 20.7288 10.8846 20.7225 10.8805L20.3162 10.6992L19.9348 10.4992L19.6223 10.2867L19.3847 10.0116L19.1347 9.69279C19.108 9.66116 19.0788 9.63199 19.0472 9.60527L18.8034 9.38648L18.6596 9.24896L18.5721 9.13644L18.4846 9.01766C18.4709 8.9982 18.4563 8.97944 18.4408 8.9614L18.372 8.88014C18.2668 8.76474 18.1376 8.69181 17.9845 8.66134L17.9407 8.64884C18.018 8.70481 18.1035 8.74232 18.197 8.76136L18.172 8.74261C18.2022 8.90916 18.2856 9.04252 18.422 9.14269L18.4158 9.11768C18.3788 9.22383 18.3705 9.33219 18.3908 9.44274L18.4033 9.40524C18.38 9.44488 18.3613 9.48656 18.347 9.53026L18.3845 9.4615L18.4533 9.36148L18.5658 9.1927C18.5701 9.18859 18.5742 9.18442 18.5783 9.18019L18.7471 8.92389C18.7492 8.91975 18.7513 8.91558 18.7534 8.91139L18.9659 8.57383L19.2347 8.14875C19.2389 8.14464 19.2431 8.14047 19.2472 8.13624L19.5473 7.62365L19.9036 7.04854L20.2662 6.45467C20.2683 6.45053 20.2704 6.44636 20.2724 6.44217L20.7662 5.59201C20.7945 5.54287 20.8153 5.49078 20.8288 5.43573L20.8788 5.22944C20.8959 5.16357 20.9001 5.09689 20.8913 5.0294L20.8788 4.94814C20.8531 5.01694 20.8448 5.08779 20.8538 5.16068L20.8788 5.09817C20.8639 5.12198 20.8514 5.14699 20.8413 5.17318L20.86 5.14192C20.9628 4.9034 20.9025 4.71773 20.6793 4.58492C20.4562 4.45211 20.2642 4.48775 20.1036 4.69184Z" fill="black"/>
<path d="M20.3784 4.99184C20.4053 5.19021 20.5189 5.2894 20.7191 5.2894C20.9193 5.2894 21.0329 5.19021 21.0598 4.99184C21.0329 4.79347 20.9193 4.69428 20.7191 4.69428C20.5189 4.69428 20.4053 4.79347 20.3784 4.99184ZM20.2721 4.99184C20.2721 5.1144 20.3155 5.21901 20.4021 5.30568C20.4888 5.39234 20.5934 5.43567 20.716 5.43567C20.8385 5.43567 20.9431 5.39234 21.0298 5.30568C21.1165 5.21901 21.1598 5.1144 21.1598 4.99184C21.1598 4.86928 21.1165 4.76467 21.0298 4.678C20.9431 4.59134 20.8385 4.54801 20.716 4.54801C20.5934 4.54801 20.4888 4.59134 20.4021 4.678C20.3155 4.76467 20.2721 4.86928 20.2721 4.99184ZM20.1346 4.99184C20.1346 5.15238 20.1914 5.28941 20.3049 5.40292C20.4184 5.51644 20.5554 5.5732 20.716 5.5732C20.8765 5.5732 21.0135 5.51644 21.1271 5.40292C21.2406 5.28941 21.2973 5.15238 21.2973 4.99184C21.2973 4.8313 21.2406 4.69427 21.1271 4.58076C21.0135 4.46724 20.8765 4.41048 20.716 4.41048C20.5554 4.41048 20.4184 4.46724 20.3049 4.58076C20.1914 4.69427 20.1346 4.8313 20.1346 4.99184ZM20.3909 5.51069L20.4159 5.52944C20.398 5.51383 20.3792 5.49924 20.3597 5.48568L20.3784 5.49819L20.3972 5.51694L20.4597 5.59821C20.4617 5.6003 20.4638 5.60239 20.4659 5.60446L20.691 5.86701C20.6951 5.87123 20.6992 5.87539 20.7035 5.87951L20.8347 6.02954C20.8429 6.03808 20.8512 6.04641 20.8597 6.05454L20.9848 6.18582L21.1098 6.32334L21.2473 6.49213L21.3848 6.67966L21.5286 6.8797C21.5462 6.90161 21.5649 6.92245 21.5849 6.94221L21.7474 7.1235C21.7575 7.13423 21.7679 7.14465 21.7787 7.15475L21.9412 7.31103C21.9533 7.32398 21.9658 7.33649 21.9787 7.34854L22.1412 7.48607C22.1553 7.49914 22.1699 7.51164 22.185 7.52357L22.3538 7.64234C22.366 7.65107 22.3785 7.6594 22.3913 7.66735L22.5851 7.78612C22.5892 7.79034 22.5934 7.79451 22.5976 7.79862L22.7976 7.9174C22.8059 7.92172 22.8142 7.92589 22.8226 7.9299L23.0414 8.04867C23.0737 8.06575 23.107 8.08034 23.1414 8.09243L23.379 8.1862C23.4358 8.20596 23.4941 8.21846 23.554 8.22371L23.8166 8.24871C23.9121 8.26043 24.0059 8.2521 24.0979 8.22371L24.2917 8.15494L24.5292 8.11118C24.5592 8.1059 24.5884 8.09756 24.6167 8.08618L24.773 8.02367L24.923 8.04867C25.1106 8.07784 25.2189 7.99866 25.2481 7.81113C25.2773 7.62359 25.1981 7.51524 25.0105 7.48607L24.8605 7.46106L24.7292 7.35479C24.7097 7.33838 24.6888 7.32379 24.6667 7.31103L24.4729 7.19851L24.3292 7.07349C24.2856 7.03388 24.2377 7.00054 24.1854 6.97347L23.9541 6.86095C23.9398 6.8521 23.9252 6.84377 23.9103 6.83594L23.7103 6.75468L23.529 6.66091L23.3665 6.56089L23.2164 6.45462L23.0789 6.34835L22.9414 6.23583L22.8164 6.11705L22.7038 5.98578L22.5663 5.8045C22.5663 5.80241 22.5663 5.80033 22.5663 5.79824L22.41 5.59195C22.402 5.58131 22.3937 5.57089 22.385 5.5607L22.2288 5.37941C22.2112 5.3575 22.1925 5.33666 22.1725 5.3169L22.0225 5.17312L21.8787 5.0356C21.8787 5.03352 21.8787 5.03143 21.8787 5.02935L21.7349 4.89182C21.7095 4.86689 21.6824 4.84397 21.6536 4.82306L21.3723 4.62302C21.3724 4.62094 21.3724 4.61885 21.3723 4.61677L21.3098 4.57301L21.2786 4.54801C21.2257 4.49379 21.1653 4.45003 21.0973 4.41673L21.041 4.39798C20.8246 4.29795 20.6163 4.31254 20.4159 4.44174L20.3909 4.46049C20.3032 4.51906 20.2345 4.59484 20.1847 4.68786C20.135 4.78087 20.1101 4.88011 20.1101 4.98559C20.1101 5.09107 20.135 5.19031 20.1847 5.28332C20.2345 5.37633 20.3032 5.45212 20.3909 5.51069Z" fill="black"/>
<path d="M23.498 7.5361C23.498 7.65521 23.5401 7.75688 23.6244 7.8411C23.7086 7.92532 23.8102 7.96743 23.9294 7.96743C24.0485 7.96743 24.1501 7.92532 24.2344 7.8411C24.3186 7.75688 24.3607 7.65521 24.3607 7.5361C24.3607 7.41699 24.3186 7.31533 24.2344 7.2311C24.1501 7.14688 24.0485 7.10477 23.9294 7.10477C23.8102 7.10477 23.7086 7.14688 23.6244 7.2311C23.5401 7.31533 23.498 7.41699 23.498 7.5361ZM23.4793 7.5361C23.4793 7.65866 23.5226 7.76328 23.6093 7.84994C23.6959 7.9366 23.8005 7.97994 23.9231 7.97994C24.0457 7.97994 24.1503 7.9366 24.2369 7.84994C24.3236 7.76328 24.3669 7.65866 24.3669 7.5361C24.3669 7.41354 24.3236 7.30893 24.2369 7.22226C24.1503 7.1356 24.0457 7.09227 23.9231 7.09227C23.8005 7.09227 23.6959 7.1356 23.6093 7.22226C23.5226 7.30893 23.4793 7.41354 23.4793 7.5361ZM23.3918 7.5361C23.3918 7.67765 23.4418 7.79847 23.5419 7.89856C23.642 7.99865 23.7628 8.0487 23.9044 8.0487C24.0459 8.0487 24.1667 7.99865 24.2668 7.89856C24.3669 7.79847 24.417 7.67765 24.417 7.5361C24.417 7.39455 24.3669 7.27373 24.2668 7.17364C24.1667 7.07355 24.0459 7.0235 23.9044 7.0235C23.7628 7.0235 23.642 7.07355 23.5419 7.17364C23.4418 7.27373 23.3918 7.39455 23.3918 7.5361ZM23.4855 7.11102L23.4543 7.14228C23.3432 7.23862 23.2765 7.35948 23.2542 7.50485L23.2417 7.56736C23.2265 7.67487 23.239 7.77905 23.2792 7.87992L23.3167 7.96743C23.3356 8.01857 23.3606 8.06649 23.3918 8.11121L23.4668 8.20498C23.5443 8.31258 23.6443 8.39176 23.7668 8.44252L23.9794 8.52379C24.0278 8.5437 24.0778 8.55829 24.1294 8.56755L24.4607 8.62381C24.502 8.63139 24.5437 8.63556 24.5857 8.63631H25.0358C25.0483 8.63661 25.0608 8.63661 25.0733 8.63631L25.6047 8.61131C25.613 8.60936 25.6214 8.60728 25.6297 8.60506L26.211 8.5613C26.2278 8.55975 26.2444 8.55767 26.2611 8.55505L26.8549 8.46753C26.8759 8.46421 26.8968 8.46004 26.9174 8.45503L27.5238 8.3175C27.5406 8.31389 27.5573 8.30972 27.5738 8.305L28.1677 8.12371C28.1889 8.11629 28.2097 8.10796 28.2302 8.09871L28.799 7.86742C28.8116 7.86358 28.8242 7.85941 28.8365 7.85491L29.3804 7.59861C29.3931 7.59273 29.4056 7.58648 29.4179 7.57986L29.9368 7.29231C29.943 7.29031 29.9493 7.28823 29.9555 7.28605L30.4556 6.99225C30.4577 6.99226 30.4598 6.99226 30.4619 6.99225L30.9432 6.70469C30.956 6.69677 30.9685 6.68844 30.9807 6.67969L31.4245 6.36713C31.4352 6.35911 31.4456 6.35077 31.4558 6.34212L31.8559 6.03582L32.2059 5.77327C32.2145 5.76516 32.2228 5.75683 32.2309 5.74826L32.5185 5.50447C32.553 5.47651 32.5843 5.44525 32.6123 5.4107L32.781 5.18565C32.8184 5.13816 32.8476 5.08607 32.8686 5.02937L32.9248 4.86059C32.9872 4.68055 32.9542 4.52007 32.826 4.37916C32.6977 4.23824 32.5411 4.19035 32.356 4.23547L32.1809 4.27923C32.1351 4.29052 32.0914 4.30719 32.0497 4.32924L31.8059 4.46677C31.7706 4.48448 31.7372 4.50531 31.7058 4.52928L31.4308 4.75432L31.1057 4.98562L30.6869 5.24817C30.6848 5.25024 30.6827 5.25232 30.6806 5.25442L30.2368 5.53572L29.7742 5.81077L29.2991 6.06082L28.8053 6.28586L28.2802 6.4734L27.7238 6.64843L27.1675 6.81096L26.6049 6.92349L26.0548 7.00475L25.5047 7.05476L24.9983 7.08602L24.567 7.09852L24.2669 7.10477L24.0669 7.09227C24.0627 7.09223 24.0585 7.09223 24.0544 7.09227H23.9294C24.0291 7.15334 24.1375 7.18459 24.2544 7.18604L24.1732 7.13603C24.2003 7.32324 24.2941 7.46701 24.4545 7.56736L24.442 7.50485C24.4109 7.5966 24.4026 7.69036 24.417 7.78615L24.4295 7.74239C24.5268 7.45751 24.4503 7.23138 24.2001 7.06401C23.9499 6.89664 23.7117 6.91231 23.4855 7.11102ZM32.7748 4.78558L32.8248 4.72932C32.9319 4.59287 32.9202 4.46741 32.79 4.35293C32.6597 4.23844 32.5338 4.24305 32.4122 4.36675L32.3622 4.42301C32.2552 4.55945 32.2668 4.68492 32.397 4.7994C32.5273 4.91389 32.6532 4.90928 32.7748 4.78558Z" fill="black"/>
<path d="M32.2997 4.37302C32.2997 4.53555 32.381 4.61682 32.5435 4.61682C32.7061 4.61682 32.7873 4.53555 32.7873 4.37302C32.7873 4.21049 32.7061 4.12923 32.5435 4.12923C32.381 4.12923 32.2997 4.21049 32.2997 4.37302ZM32.8998 4.53555L32.9061 4.5168C32.9494 4.43878 32.9661 4.35543 32.9561 4.26675V4.24175C32.9372 4.11257 32.8721 4.01384 32.7608 3.94553C32.6496 3.87723 32.5321 3.86387 32.4083 3.90545C32.2845 3.94703 32.1989 4.02864 32.1515 4.15026C32.1041 4.27189 32.1118 4.3899 32.1747 4.5043L32.181 4.5168L32.1872 4.53555C32.2643 4.67624 32.3831 4.74659 32.5435 4.74659C32.704 4.74659 32.8227 4.67624 32.8998 4.53555ZM32.1059 4.29176C32.1059 4.41087 32.1481 4.51253 32.2323 4.59675C32.3165 4.68098 32.4182 4.72309 32.5373 4.72309C32.6564 4.72309 32.7581 4.68098 32.8423 4.59675C32.9265 4.51253 32.9686 4.41087 32.9686 4.29176C32.9686 4.17265 32.9265 4.07098 32.8423 3.98676C32.7581 3.90254 32.6564 3.86042 32.5373 3.86042C32.4182 3.86042 32.3165 3.90254 32.2323 3.98676C32.1481 4.07098 32.1059 4.17265 32.1059 4.29176ZM32.181 4.0167L32.1059 4.09797C32.0489 4.15977 32.0072 4.23062 31.9809 4.31051L31.8872 4.61057C31.8765 4.6412 31.8681 4.67245 31.8621 4.70433L31.7746 5.21693C31.7744 5.22735 31.7744 5.23777 31.7746 5.24819L31.6809 6.01083L31.5433 7.07354L31.3308 8.44255L31.0933 9.96159L30.7932 11.5306L30.3744 13.0497L29.8993 14.4249L29.4054 15.5689L28.8678 16.4941C28.8561 16.5185 28.8457 16.5435 28.8366 16.5691L28.4928 17.3255L28.2615 17.7506L27.9427 17.9068C27.8167 17.997 27.7876 18.1117 27.8555 18.251C27.9233 18.3903 28.0315 18.4381 28.1802 18.3944L28.5553 18.2194L29.0991 18.0881C29.1641 18.0742 29.2246 18.0492 29.2804 18.0131L29.9868 17.538C30.0848 17.4726 30.164 17.3892 30.2243 17.288L30.7932 16.3253C30.8122 16.2931 30.8289 16.2598 30.8432 16.2253L31.3433 15.0063C31.3552 14.9798 31.3656 14.9527 31.3746 14.925L31.7996 13.481C31.8044 13.4645 31.8085 13.4478 31.8121 13.431L32.1685 11.8494C32.1707 11.8411 32.1728 11.8328 32.1747 11.8244L32.481 10.2116C32.4833 10.2033 32.4853 10.195 32.4873 10.1866L32.7186 8.65509C32.7207 8.64887 32.7228 8.64261 32.7248 8.63633L32.8998 7.26107C32.8998 7.25899 32.8998 7.2569 32.8998 7.25482L33.0311 6.17962C33.0311 6.17753 33.0311 6.17545 33.0311 6.17336L33.1124 5.40447C33.1146 5.39617 33.1167 5.38784 33.1186 5.37946L33.1561 4.86061C33.1602 4.81894 33.1602 4.77727 33.1561 4.73559L33.1186 4.42303C33.1037 4.29849 33.0537 4.19014 32.9686 4.09797L32.8936 4.0167C32.7981 3.91155 32.6793 3.85898 32.5373 3.85898C32.3952 3.85898 32.2765 3.91155 32.181 4.0167Z" fill="black"/>
<path d="M21.2787 11.8994C21.2787 12.022 21.322 12.1266 21.4087 12.2133C21.4954 12.2999 21.6 12.3433 21.7225 12.3433C21.8451 12.3433 21.9497 12.2999 22.0364 12.2133C22.123 12.1266 22.1664 12.022 22.1664 11.8994C22.1664 11.7769 22.123 11.6722 22.0364 11.5856C21.9497 11.4989 21.8451 11.4556 21.7225 11.4556C21.6 11.4556 21.4954 11.4989 21.4087 11.5856C21.322 11.6722 21.2787 11.7769 21.2787 11.8994ZM21.2162 11.9119C21.2162 12.0483 21.2644 12.1647 21.3608 12.2611C21.4573 12.3575 21.5737 12.4058 21.71 12.4058C21.8464 12.4058 21.9628 12.3575 22.0592 12.2611C22.1557 12.1647 22.2039 12.0483 22.2039 11.9119C22.2039 11.7755 22.1557 11.6591 22.0592 11.5627C21.9628 11.4663 21.8464 11.4181 21.71 11.4181C21.5737 11.4181 21.4573 11.4663 21.3608 11.5627C21.2644 11.6591 21.2162 11.7755 21.2162 11.9119ZM21.1474 11.9244C21.1474 12.0815 21.203 12.2156 21.314 12.3267C21.4251 12.4377 21.5592 12.4933 21.7163 12.4933C21.8734 12.4933 22.0074 12.4377 22.1185 12.3267C22.2296 12.2156 22.2851 12.0815 22.2851 11.9244C22.2851 11.7673 22.2296 11.6333 22.1185 11.5222C22.0074 11.4111 21.8734 11.3556 21.7163 11.3556C21.5592 11.3556 21.4251 11.4111 21.314 11.5222C21.203 11.6333 21.1474 11.7673 21.1474 11.9244ZM21.385 12.4745L21.4537 12.5308C21.4818 12.5495 21.5109 12.5661 21.5412 12.5808L21.7288 12.6808L22.0226 12.8371L22.4164 13.0684L22.8915 13.3747L23.4041 13.7685L23.9354 14.2374L24.4856 14.7562L25.0169 15.2688L25.4732 15.7564L25.8296 16.2315L26.0921 16.6941L26.2671 17.1504L26.3859 17.5692L26.4359 17.9256L26.4609 18.2381C26.4609 18.2423 26.4609 18.2465 26.4609 18.2506L26.4859 18.5132C26.4916 18.5513 26.5 18.5888 26.5109 18.6257L26.5234 18.6945L26.5297 18.6695L26.5234 18.707C26.5855 18.6158 26.625 18.5158 26.6422 18.4069L26.6172 18.4444C26.577 18.5024 26.5457 18.5649 26.5234 18.6319L26.5109 18.6757C26.5088 18.6799 26.5067 18.684 26.5047 18.6882L26.4922 18.7382L26.4797 18.7757L26.4422 18.8445C26.4377 18.8569 26.4335 18.8694 26.4297 18.882L26.3797 19.0008C26.3731 19.0131 26.3668 19.0256 26.3609 19.0383L26.3172 19.1696C26.3035 19.2083 26.293 19.2479 26.2859 19.2883L26.2609 19.4196C26.2582 19.4362 26.2562 19.4529 26.2546 19.4696L26.2421 19.5884C26.2417 19.603 26.2417 19.6176 26.2421 19.6321V19.6759V19.6571L26.2359 19.6759C26.2264 19.6984 26.2181 19.7213 26.2109 19.7447L26.1984 19.8072C26.1117 20.1188 26.1951 20.3751 26.4484 20.5761L26.4672 20.5886C26.5981 20.6911 26.7468 20.743 26.9131 20.7442C27.0794 20.7453 27.2287 20.6955 27.3611 20.5948L27.4299 20.5386C27.4538 20.5232 27.4767 20.5066 27.4986 20.4886L27.6299 20.3635C27.6363 20.3574 27.6425 20.3511 27.6487 20.3448L27.8174 20.1697C27.8217 20.1636 27.8259 20.1573 27.8299 20.151L28.0425 19.9197C28.0467 19.9177 28.0508 19.9156 28.055 19.9134L28.3113 19.6259C28.3134 19.6217 28.3155 19.6176 28.3175 19.6134L28.5863 19.2946L28.8551 18.9945C28.8573 18.9904 28.8593 18.9862 28.8614 18.982L29.1114 18.6882C29.1202 18.676 29.1285 18.6635 29.1364 18.6507L29.3427 18.3757C29.3515 18.3634 29.3598 18.3509 29.3677 18.3381L29.5428 18.0693C29.5515 18.0571 29.5598 18.0446 29.5678 18.0318L29.7178 17.7755C29.7982 17.6329 29.8253 17.4808 29.7991 17.3192L29.7678 17.1254C29.7443 16.9643 29.6638 16.8403 29.5262 16.7532C29.3887 16.6661 29.2421 16.6464 29.0864 16.6941L28.8989 16.7566C28.7529 16.8011 28.6341 16.8844 28.5426 17.0066L28.3613 17.2504C28.3571 17.2546 28.3529 17.2587 28.3488 17.2629L28.1738 17.5192L27.9925 17.763L27.7549 18.0318L27.4924 18.3381C27.4903 18.3381 27.4882 18.3381 27.4861 18.3381L27.2111 18.6507L26.961 18.932L26.7547 19.157L26.6047 19.3133L26.5172 19.3946L26.4797 19.4259C26.7551 19.5807 27.0198 19.564 27.2736 19.3758L27.2548 19.3633C27.1897 19.5329 27.188 19.7031 27.2497 19.874C27.3114 20.0448 27.4214 20.1747 27.5799 20.2635L27.5924 20.226L27.6174 20.1697C27.6323 20.1373 27.6448 20.104 27.6549 20.0697L27.6862 19.9697C27.6993 19.9226 27.7076 19.8747 27.7112 19.8259L27.7174 19.7322L27.7237 19.6571L27.7362 19.6009L27.7549 19.5384L27.7862 19.4634L27.8299 19.3696C27.8392 19.3491 27.8476 19.3283 27.8549 19.3071L27.8862 19.2196C27.8929 19.2052 27.8992 19.1906 27.905 19.1758L27.9237 19.1133C27.926 19.1029 27.9281 19.0925 27.93 19.082L27.9425 19.0383C27.8964 19.1076 27.8631 19.1827 27.8424 19.2633L27.8674 19.2258C27.8787 19.2075 27.8891 19.1888 27.8987 19.1696L27.9362 19.1008C27.9532 19.0685 27.9678 19.0352 27.98 19.0008L28.0175 18.8945L28.08 18.7257C28.1031 18.6692 28.1198 18.6109 28.13 18.5507L28.1675 18.2944C28.176 18.2342 28.1781 18.1738 28.1738 18.1131L28.1488 17.7693C28.1479 17.7421 28.1459 17.715 28.1425 17.688L28.0675 17.2567C28.0641 17.2357 28.0599 17.2149 28.055 17.1942L27.93 16.6753C27.9232 16.6457 27.9148 16.6165 27.905 16.5878L27.6987 16.019C27.6832 15.9758 27.6645 15.9341 27.6424 15.8939L27.3236 15.3251C27.3033 15.288 27.2803 15.2525 27.2548 15.2188L26.8235 14.6624C26.8059 14.6386 26.7872 14.6156 26.7672 14.5937L26.2671 14.0686C26.257 14.0579 26.2466 14.0475 26.2359 14.0373L25.6858 13.506C25.6837 13.5039 25.6816 13.5018 25.6795 13.4997L25.1169 12.9684C25.1087 12.962 25.1004 12.9557 25.0919 12.9496L24.5231 12.4495C24.503 12.4319 24.4822 12.4152 24.4605 12.3995L23.8854 11.9807C23.8651 11.9673 23.8443 11.9548 23.8229 11.9432L23.2916 11.6244C23.2672 11.6106 23.2422 11.5981 23.2166 11.5869L22.7727 11.3743C22.7422 11.3599 22.711 11.3474 22.679 11.3368L22.3414 11.2305C22.256 11.2031 22.1685 11.1906 22.0788 11.193H21.8663C21.7146 11.1964 21.5771 11.2423 21.4537 11.3306L21.385 11.3868C21.2972 11.4496 21.2287 11.529 21.1794 11.6249C21.1301 11.7209 21.1055 11.8228 21.1055 11.9307C21.1055 12.0385 21.1301 12.1405 21.1794 12.2364C21.2287 12.3324 21.2972 12.4117 21.385 12.4745ZM29.5803 17.1567L29.649 17.0254C29.7203 16.8709 29.6807 16.7541 29.5302 16.6749C29.3796 16.5956 29.2609 16.6291 29.1739 16.7753L29.1052 16.9066C29.0339 17.0611 29.0735 17.1779 29.224 17.2571C29.3746 17.3364 29.4933 17.3029 29.5803 17.1567Z" fill="black"/>
<path d="M28.2987 10.3554C28.2987 10.4486 28.3316 10.5281 28.3975 10.594C28.4635 10.66 28.543 10.6929 28.6362 10.6929C28.7295 10.6929 28.809 10.66 28.8749 10.594C28.9408 10.5281 28.9738 10.4486 28.9738 10.3554C28.9738 10.2621 28.9408 10.1826 28.8749 10.1167C28.809 10.0507 28.7295 10.0178 28.6362 10.0178C28.543 10.0178 28.4635 10.0507 28.3975 10.1167C28.3316 10.1826 28.2987 10.2621 28.2987 10.3554ZM28.2174 10.3554C28.2174 10.471 28.2583 10.5697 28.3401 10.6515C28.4219 10.7333 28.5206 10.7742 28.6362 10.7742C28.7519 10.7742 28.8506 10.7333 28.9324 10.6515C29.0142 10.5697 29.0551 10.471 29.0551 10.3554C29.0551 10.2397 29.0142 10.141 28.9324 10.0592C28.8506 9.97741 28.7519 9.93652 28.6362 9.93652C28.5206 9.93652 28.4219 9.97741 28.3401 10.0592C28.2583 10.141 28.2174 10.2397 28.2174 10.3554ZM28.2049 10.3616C28.2049 10.4824 28.2476 10.5856 28.3331 10.671C28.4185 10.7565 28.5217 10.7992 28.6425 10.7992C28.7633 10.7992 28.8665 10.7565 28.9519 10.671C29.0373 10.5856 29.0801 10.4824 29.0801 10.3616C29.0801 10.2408 29.0373 10.1376 28.9519 10.0522C28.8665 9.96674 28.7633 9.92402 28.6425 9.92402C28.5217 9.92402 28.4185 9.96674 28.3331 10.0522C28.2476 10.1376 28.2049 10.2408 28.2049 10.3616ZM28.1611 10.3866C28.1611 10.5195 28.2081 10.633 28.3021 10.727C28.3961 10.821 28.5096 10.8679 28.6425 10.8679C28.7754 10.8679 28.8889 10.821 28.9828 10.727C29.0768 10.633 29.1238 10.5195 29.1238 10.3866C29.1238 10.2537 29.0768 10.1402 28.9828 10.0462C28.8889 9.95226 28.7754 9.90527 28.6425 9.90527C28.5096 9.90527 28.3961 9.95226 28.3021 10.0462C28.2081 10.1402 28.1611 10.2537 28.1611 10.3866ZM28.1924 10.1241L28.1299 10.2053C28.1161 10.2254 28.1036 10.2462 28.0924 10.2678L28.0111 10.4179C28.0068 10.4261 28.0026 10.4344 27.9986 10.4429L27.8798 10.6929C27.8798 10.695 27.8798 10.6971 27.8798 10.6992L27.7236 11.0305L27.5485 11.3743L27.3672 11.6931L27.2172 11.9432L27.0859 12.1307L26.9859 12.2807C26.9698 12.3027 26.9553 12.3256 26.9422 12.3495L26.8859 12.462C26.8114 12.6024 26.7942 12.7496 26.8342 12.9034C26.8743 13.0572 26.961 13.1773 27.0945 13.2636C27.2281 13.3499 27.3732 13.3797 27.5299 13.353C27.6866 13.3263 27.8137 13.2502 27.9111 13.1246L27.9861 13.0246C27.9925 13.0185 27.9987 13.0122 28.0049 13.0059L28.1111 12.8558C28.1176 12.8476 28.1238 12.8393 28.1299 12.8308L28.2674 12.6245C28.2719 12.6142 28.276 12.6038 28.2799 12.5933L28.4424 12.3182C28.4467 12.312 28.4509 12.3058 28.455 12.2995L28.6362 11.9619C28.6406 11.9537 28.6448 11.9453 28.6487 11.9369L28.83 11.5681C28.8323 11.5598 28.8344 11.5515 28.8363 11.5431L28.9863 11.1993C28.9906 11.1931 28.9948 11.1868 28.9988 11.1805L29.0988 10.9242C29.1133 10.8857 29.1237 10.8461 29.1301 10.8054L29.1613 10.6429C29.1692 10.6058 29.1734 10.5683 29.1738 10.5304V10.4304C29.1661 10.1721 29.0389 10.0045 28.7923 9.92752C28.5456 9.85054 28.3457 9.91606 28.1924 10.1241ZM26.9672 12.7871C26.9672 12.9079 27.0099 13.011 27.0953 13.0965C27.1808 13.1819 27.2839 13.2246 27.4048 13.2246C27.5256 13.2246 27.6287 13.1819 27.7142 13.0965C27.7996 13.011 27.8423 12.9079 27.8423 12.7871C27.8423 12.6662 27.7996 12.5631 27.7142 12.4776C27.6287 12.3922 27.5256 12.3495 27.4048 12.3495C27.2839 12.3495 27.1808 12.3922 27.0953 12.4776C27.0099 12.5631 26.9672 12.6662 26.9672 12.7871ZM27.6048 12.9996L27.6173 12.9871C27.7507 12.8537 27.7507 12.7204 27.6173 12.587C27.4839 12.4537 27.3506 12.4537 27.2172 12.587L27.2047 12.5995C27.0714 12.7329 27.0714 12.8662 27.2047 12.9996C27.3381 13.133 27.4714 13.133 27.6048 12.9996Z" fill="black"/>
<path d="M27.1611 10.6367C27.1611 10.7334 27.1952 10.8159 27.2636 10.8842C27.3319 10.9526 27.4145 10.9868 27.5111 10.9868C27.6078 10.9868 27.6903 10.9526 27.7587 10.8842C27.827 10.8159 27.8612 10.7334 27.8612 10.6367C27.8612 10.54 27.827 10.4575 27.7587 10.3892C27.6903 10.3208 27.6078 10.2866 27.5111 10.2866C27.4145 10.2866 27.3319 10.3208 27.2636 10.3892C27.1952 10.4575 27.1611 10.54 27.1611 10.6367ZM26.961 10.6367C26.961 10.7886 27.0147 10.9183 27.1221 11.0257C27.2296 11.1331 27.3592 11.1868 27.5111 11.1868C27.663 11.1868 27.7927 11.1331 27.9001 11.0257C28.0075 10.9183 28.0612 10.7886 28.0612 10.6367C28.0612 10.4848 28.0075 10.3551 27.9001 10.2477C27.7927 10.1403 27.663 10.0866 27.5111 10.0866C27.3592 10.0866 27.2296 10.1403 27.1221 10.2477C27.0147 10.3551 26.961 10.4848 26.961 10.6367ZM26.9173 10.8367L26.936 10.9492C26.9484 11.0036 26.9672 11.0557 26.9923 11.1055L27.0673 11.2743C27.0833 11.3092 27.1021 11.3425 27.1235 11.3743L27.2673 11.5806C27.2844 11.6069 27.3032 11.6319 27.3236 11.6556L27.5299 11.8807C27.5456 11.9003 27.5622 11.9191 27.5799 11.9369L27.8174 12.1495C27.8468 12.175 27.8781 12.1979 27.9112 12.2182L28.1612 12.3808C28.3214 12.4831 28.4943 12.5143 28.6801 12.4745L29.0489 12.3933C29.2051 12.3605 29.276 12.2647 29.2615 12.1057L29.2239 11.7306C29.2058 11.5539 29.1308 11.4059 28.9989 11.2868L28.7739 11.0868C28.7739 11.0847 28.7739 11.0826 28.7739 11.0805L28.5613 10.893L28.405 10.7305L28.2863 10.5617C28.2802 10.5532 28.274 10.5449 28.2675 10.5367L28.1487 10.3866C28.1351 10.3671 28.1205 10.3484 28.105 10.3304L28.0237 10.2491C27.797 10.0101 27.5381 9.9679 27.2472 10.1224C26.9562 10.2769 26.8462 10.515 26.9173 10.8367Z" fill="black"/>
<path d="M21.2038 5.13566C21.2038 5.2375 21.2398 5.32443 21.3118 5.39645C21.3838 5.46847 21.4707 5.50448 21.5726 5.50448C21.6744 5.50448 21.7614 5.46847 21.8334 5.39645C21.9054 5.32443 21.9414 5.2375 21.9414 5.13566C21.9414 5.03381 21.9054 4.94688 21.8334 4.87486C21.7614 4.80284 21.6744 4.76684 21.5726 4.76684C21.4707 4.76684 21.3838 4.80284 21.3118 4.87486C21.2398 4.94688 21.2038 5.03381 21.2038 5.13566ZM21.8351 4.8481L21.8226 4.82935C21.7597 4.99538 21.791 5.14125 21.9164 5.26693V5.26068L21.9414 5.21692L22.0539 5.06064C22.056 5.06065 22.0581 5.06065 22.0602 5.06064L22.2165 4.84185C22.2165 4.83977 22.2165 4.83768 22.2165 4.8356L22.404 4.5668L22.5915 4.298C22.5936 4.29593 22.5957 4.29385 22.5978 4.29174L22.7478 4.06045C22.7499 4.05839 22.752 4.05631 22.7541 4.0542L22.8603 3.89167L22.9166 3.7979C22.9258 3.78382 22.9341 3.76923 22.9416 3.75414L22.9603 3.71664C23.0141 3.6205 23.0277 3.51896 23.0014 3.41204C22.975 3.30511 22.9157 3.22158 22.8234 3.16144C22.7312 3.10131 22.6308 3.08076 22.5223 3.0998C22.4138 3.11884 22.3265 3.17234 22.2602 3.2603L22.254 3.26655C22.2518 3.27068 22.2497 3.27485 22.2477 3.27905L22.2352 3.29781L22.2227 3.30406L22.2165 3.31656C22.1706 3.36306 22.1373 3.41723 22.1164 3.47909V3.49159C22.1083 3.51399 22.102 3.53691 22.0977 3.56036V3.56661C22.0725 3.73866 22.1309 3.87488 22.2729 3.97526C22.4148 4.07565 22.5627 4.08529 22.7165 4.00419L22.729 3.99794C22.7488 3.98693 22.7676 3.97443 22.7853 3.96043L22.7978 3.94793C22.8949 3.87606 22.9512 3.78021 22.9666 3.66037V3.64162C22.9955 3.39094 22.8872 3.23674 22.6415 3.17903H22.629C22.6886 3.25018 22.7636 3.29602 22.8541 3.31656L22.8478 3.30406V3.31031L22.8416 3.29781C22.8358 3.28711 22.8295 3.27669 22.8228 3.26655L22.8103 3.2478C22.7252 3.39757 22.7315 3.54343 22.8291 3.68538L22.8353 3.67288C22.7402 3.70656 22.6673 3.76698 22.6165 3.85416L22.6415 3.84791C22.6204 3.85046 22.5995 3.85463 22.579 3.86041L22.629 3.85416C22.5437 3.81097 22.4541 3.79847 22.3602 3.81665L22.4102 3.84166C22.3692 3.78325 22.3171 3.73741 22.254 3.70413L22.3165 3.7979C22.3368 3.82525 22.3598 3.85025 22.3852 3.87292L22.5415 4.01669C22.5497 4.02319 22.558 4.02945 22.5665 4.03545L22.7916 4.21673L23.0604 4.42927C23.0624 4.43137 23.0645 4.43346 23.0666 4.43552L23.3167 4.62931L23.4917 4.79184L23.598 4.91686L23.6292 4.97938L23.648 5.01063C23.661 4.92636 23.6506 4.8451 23.6167 4.76684V4.77934C23.7183 4.95903 23.8707 5.03089 24.0739 4.99493C24.2771 4.95897 24.3956 4.83918 24.4294 4.63556L24.4169 4.61056C24.4262 4.6411 24.4387 4.67027 24.4544 4.69807L24.4419 4.65431C24.4351 4.63283 24.4268 4.612 24.4169 4.5918L24.3981 4.55429C24.3021 4.31962 24.1322 4.23698 23.8883 4.30639C23.6444 4.3758 23.5435 4.53553 23.5855 4.78559L23.5917 4.82935C23.5923 4.85033 23.5944 4.87117 23.598 4.89186L23.6105 4.93562C23.6169 4.95924 23.6252 4.98216 23.6355 5.00438L23.648 5.02939C23.7108 5.17293 23.8195 5.25813 23.9738 5.28498C24.1282 5.31183 24.2592 5.26831 24.3669 5.15441L24.3731 5.14816C24.479 5.03929 24.5186 4.9101 24.4919 4.76058L24.4794 4.69807C24.4736 4.67019 24.4653 4.6431 24.4544 4.61681L24.3981 4.47928C24.3826 4.4388 24.3618 4.4013 24.3356 4.36676L24.1981 4.19173L24.0293 3.96043C24.0193 3.94954 24.0089 3.93912 23.998 3.92918L23.773 3.67288C23.7593 3.65742 23.7447 3.64283 23.7292 3.62912L23.4667 3.40408C23.4547 3.39308 23.4422 3.38266 23.4292 3.37282L23.1979 3.20404C23.1856 3.19728 23.1731 3.19103 23.1604 3.18528L22.9791 3.07276C22.898 3.02517 22.8105 3.00225 22.7165 3.004H22.604C22.5657 3.00539 22.5282 3.01164 22.4915 3.02275L22.4352 3.03526C22.4225 3.03883 22.41 3.043 22.3977 3.04776L22.354 3.06651C22.3252 3.07805 22.2982 3.09263 22.2727 3.11027L22.2477 3.12277C22.1797 3.16832 22.1297 3.22875 22.0977 3.30406L22.0914 3.31656C22.0348 3.45244 22.0473 3.58163 22.1289 3.70413L22.1414 3.72289L22.1602 3.75414C22.1661 3.76271 22.1724 3.77105 22.1789 3.77915L22.1914 3.79165L22.1977 3.80415C22.2589 3.6672 22.2484 3.53592 22.1664 3.41033L22.1602 3.41658C22.1692 3.40452 22.1775 3.39202 22.1852 3.37907L22.1727 3.39157C22.1838 3.37967 22.1942 3.36717 22.2039 3.35407L22.1914 3.36657C22.2536 3.33751 22.3057 3.29584 22.3477 3.24154L22.3352 3.2478C22.3573 3.38756 22.4307 3.49063 22.5557 3.55701C22.6806 3.6234 22.8072 3.62659 22.9353 3.56661V3.56036C22.8695 3.65247 22.8445 3.75457 22.8603 3.86666L22.8728 3.85416C22.8795 3.84401 22.8858 3.83359 22.8916 3.82291L22.8978 3.8104L22.9041 3.80415L22.9166 3.77915C22.8902 3.8033 22.8673 3.83039 22.8478 3.86041L22.8541 3.85416C22.9717 3.64765 22.938 3.46983 22.753 3.3207C22.5679 3.17157 22.387 3.17644 22.2102 3.33531L22.2039 3.35407L22.1539 3.42283C22.1518 3.42696 22.1497 3.43113 22.1477 3.43533L22.0414 3.60411L21.8976 3.82916L21.7164 4.09171L21.5288 4.35426L21.3725 4.57305C21.3725 4.57513 21.3725 4.57722 21.3725 4.5793L21.2538 4.74808C21.2472 4.75618 21.241 4.76452 21.235 4.77309L21.185 4.87311C21.1621 4.91006 21.1454 4.94965 21.135 4.99188L21.1225 5.03564C21.0743 5.26207 21.1577 5.41835 21.3725 5.50448L21.3913 5.51073C21.597 5.59696 21.7619 5.54742 21.886 5.36212C22.0101 5.17682 21.9931 5.00548 21.8351 4.8481ZM23.9918 4.24799H23.9293C23.7782 4.24597 23.6511 4.30015 23.548 4.41052L23.3979 4.57305C23.3821 4.59082 23.3675 4.60957 23.3542 4.62931L23.1416 4.92937C23.1279 4.94733 23.1154 4.96609 23.1041 4.98563L22.9041 5.3607C22.8519 5.45419 22.8311 5.55421 22.8416 5.66076L22.8728 5.89205L22.7666 6.09834C22.7034 6.25388 22.7465 6.36996 22.8959 6.44656C23.0453 6.52317 23.1647 6.49044 23.2541 6.34839L23.3542 6.16085L23.5542 6.07333C23.6429 6.03749 23.7158 5.98123 23.773 5.90455L24.0168 5.55449C24.0233 5.54633 24.0295 5.538 24.0355 5.52948L24.2293 5.22317L24.3481 5.04189C24.3715 5.0067 24.3903 4.96919 24.4044 4.92937L24.4231 4.87311C24.4764 4.72267 24.4577 4.58178 24.367 4.45044C24.2764 4.3191 24.1513 4.25161 23.9918 4.24799Z" fill="black"/>
<path d="M18.1346 10.0928C18.1346 10.2033 18.1736 10.2976 18.2518 10.3757C18.3299 10.4539 18.4242 10.4929 18.5346 10.4929C18.6451 10.4929 18.7394 10.4539 18.8175 10.3757C18.8957 10.2976 18.9347 10.2033 18.9347 10.0928C18.9347 9.98237 18.8957 9.88807 18.8175 9.80995C18.7394 9.73183 18.6451 9.69277 18.5346 9.69277C18.4242 9.69277 18.3299 9.73183 18.2518 9.80995C18.1736 9.88807 18.1346 9.98237 18.1346 10.0928ZM18.2283 9.81154L18.2221 9.8178C18.2309 9.80777 18.2393 9.79735 18.2471 9.78654L18.2033 9.8303L18.1533 9.86155C18.1142 9.88626 18.0788 9.91543 18.0471 9.94907L17.9033 10.0991C17.8826 10.1227 17.8639 10.1477 17.847 10.1741L17.647 10.4554C17.6358 10.4716 17.6254 10.4883 17.6157 10.5054L17.3532 10.9555L17.0031 11.5681L16.553 12.3245C16.5464 12.3368 16.5401 12.3493 16.5343 12.362L16.0654 13.2747C16.0558 13.2971 16.0474 13.3201 16.0404 13.3435L15.6779 14.3187L15.2153 15.2126L14.7652 16.0065L14.3714 16.6628L14.04 17.1817L13.765 17.5818C13.7178 17.6494 13.6928 17.7244 13.69 17.8068L13.6837 18.0381L13.5962 18.1631C13.5361 18.2823 13.5607 18.3802 13.6701 18.4568C13.7795 18.5334 13.8799 18.523 13.9713 18.4257L14.0588 18.3007L14.2776 18.2069C14.3502 18.1736 14.4086 18.1236 14.4526 18.0569L14.7339 17.6505C14.7382 17.6465 14.7423 17.6423 14.7464 17.638L15.084 17.1067C15.084 17.1046 15.084 17.1025 15.084 17.1004L15.4903 16.4378C15.4925 16.4337 15.4946 16.4295 15.4966 16.4253L15.9467 15.6252L16.4718 14.7687L17.1281 13.9623C17.1392 13.9482 17.1496 13.9336 17.1594 13.9186L17.7282 13.0684C17.7369 13.0582 17.7452 13.0478 17.7533 13.0372L18.2033 12.2745C18.2055 12.2704 18.2075 12.2662 18.2096 12.262L18.5597 11.6431C18.564 11.6349 18.5682 11.6266 18.5722 11.6181L18.8097 11.1493C18.8245 11.119 18.8371 11.0877 18.8472 11.0555L18.9535 10.7242C18.9706 10.6735 18.981 10.6214 18.9847 10.5679L18.9972 10.3679C19.0013 10.2997 18.993 10.233 18.9722 10.1679L18.9597 10.1241V10.0803C18.9534 9.97945 18.9159 9.89193 18.8472 9.8178L18.841 9.81154C18.7582 9.72275 18.6561 9.67836 18.5346 9.67836C18.4132 9.67836 18.3111 9.72275 18.2283 9.81154Z" fill="black"/>
<path d="M19.991 11.4181C19.9911 11.5319 20.0314 11.6291 20.112 11.7096C20.1925 11.7901 20.2897 11.8304 20.4036 11.8304C20.5175 11.8304 20.6147 11.7901 20.6952 11.7096C20.7758 11.6291 20.8161 11.5319 20.8162 11.4181C20.8161 11.3042 20.7758 11.207 20.6952 11.1265C20.6147 11.046 20.5175 11.0058 20.4036 11.0058C20.2897 11.0058 20.1925 11.046 20.112 11.1265C20.0314 11.207 19.9911 11.3042 19.991 11.4181ZM20.3161 10.9992L20.2723 11.0055C20.1825 11.0236 20.1054 11.0653 20.041 11.1305L19.9973 11.1743L19.991 11.1805L19.9723 11.193C19.9617 11.1968 19.9513 11.201 19.941 11.2055L19.841 11.268C19.8046 11.2913 19.7712 11.3184 19.741 11.3493L19.5722 11.5118C19.5472 11.535 19.5243 11.56 19.5034 11.5868L19.2471 11.9307C19.236 11.9469 19.2256 11.9635 19.2159 11.9807L18.8658 12.5495C18.8637 12.5537 18.8616 12.5578 18.8596 12.562L18.4282 13.3059C18.4261 13.3101 18.424 13.3142 18.422 13.3184L17.9406 14.1686C17.9314 14.187 17.9231 14.2057 17.9156 14.2248L17.4843 15.175L17.028 16.119L16.5716 16.9879L16.1778 17.713L15.8402 18.2694L15.5839 18.6944C15.5818 18.6986 15.5797 18.7028 15.5777 18.7069L15.3901 19.032C15.3834 19.0443 15.3772 19.0568 15.3714 19.0695L15.2464 19.3258C15.22 19.3814 15.2033 19.4397 15.1964 19.5008L15.1588 19.8009C15.1712 19.7686 15.1795 19.7352 15.1839 19.7009L15.1651 19.7509C15.3644 19.7509 15.4978 19.6571 15.5652 19.4696H15.5527C15.5315 19.5988 15.5632 19.7134 15.648 19.8133C15.7327 19.9132 15.8405 19.9632 15.9715 19.9634L15.9778 19.9322C15.9929 19.8212 15.968 19.72 15.9031 19.6287C15.8382 19.5374 15.7509 19.4805 15.6411 19.4583C15.5313 19.436 15.4288 19.4542 15.3334 19.513C15.2381 19.5718 15.1757 19.6553 15.1463 19.7634L15.1401 19.7947C15.1077 19.9283 15.134 20.0492 15.219 20.1573C15.3039 20.2654 15.4152 20.3196 15.5527 20.3198H15.5652C15.6979 20.3184 15.8063 20.2663 15.8902 20.1635L15.8965 20.1572L16.0965 19.9884C16.1346 19.9574 16.1679 19.922 16.1965 19.8822L16.3591 19.6571C16.3704 19.641 16.3808 19.6243 16.3903 19.6071L16.5779 19.2821C16.5822 19.2759 16.5863 19.2696 16.5904 19.2633L16.8217 18.8257C16.8238 18.8216 16.8259 18.8174 16.8279 18.8132L17.1155 18.2256L17.5093 17.488L17.9656 16.6315L18.5095 15.7376L19.0908 14.875C19.0975 14.8627 19.1037 14.8502 19.1096 14.8375L19.6034 13.9935L20.0348 13.2497L20.3723 12.6683C20.3814 12.652 20.3897 12.6353 20.3973 12.6183L20.5786 12.2307C20.5933 12.2025 20.6058 12.1733 20.6161 12.1432L20.6786 11.9182C20.6879 11.8854 20.6941 11.852 20.6974 11.8181L20.7162 11.7056L20.7224 11.6181C20.684 11.6795 20.6611 11.7461 20.6536 11.8181L20.6912 11.7619L20.7162 11.7244C20.7227 11.7162 20.7289 11.7079 20.7349 11.6994L20.7599 11.6681C20.8721 11.5076 20.8741 11.3457 20.7658 11.1825C20.6575 11.0193 20.5076 10.9582 20.3161 10.9992ZM15.8277 19.9134L15.8402 19.8759C15.8985 19.7051 15.8422 19.5905 15.6714 19.5322C15.5006 19.4739 15.386 19.5301 15.3276 19.7009L15.3151 19.7384C15.2568 19.9093 15.313 20.0239 15.4839 20.0822C15.6548 20.1406 15.7694 20.0843 15.8277 19.9134Z" fill="black"/>
<path d="M14.3401 16.8816C14.3401 17.0008 14.3822 17.1024 14.4664 17.1866C14.5507 17.2709 14.6523 17.313 14.7714 17.313C14.8905 17.313 14.9922 17.2709 15.0764 17.1866C15.1607 17.1024 15.2028 17.0008 15.2028 16.8816C15.2028 16.7625 15.1607 16.6609 15.0764 16.5766C14.9922 16.4924 14.8905 16.4503 14.7714 16.4503C14.6523 16.4503 14.5507 16.4924 14.4664 16.5766C14.3822 16.6609 14.3401 16.7625 14.3401 16.8816ZM14.4589 16.5128L14.3026 16.6191C14.2201 16.67 14.1534 16.7366 14.1026 16.8191L13.9213 17.1192C13.9168 17.1295 13.9127 17.1399 13.9088 17.1504L13.6962 17.5443C13.692 17.5504 13.6878 17.5567 13.6837 17.563L13.4837 17.9819C13.4721 18.0021 13.4617 18.0229 13.4524 18.0444L13.3274 18.4069C13.2346 18.6772 13.3097 18.8877 13.5525 19.0383L13.5587 19.0446C13.6079 18.9789 13.625 18.9057 13.6101 18.825C13.5952 18.7443 13.5531 18.6821 13.4837 18.6382L13.3899 18.7633C13.2774 18.9133 13.2962 19.0446 13.4462 19.1571C13.5962 19.2696 13.7275 19.2508 13.84 19.1008L13.9338 18.9758C13.7938 18.9 13.675 18.925 13.5775 19.0508L13.5837 19.0571C13.847 19.1991 14.0721 19.1532 14.2588 18.9195L14.4964 18.6257C14.5147 18.604 14.5313 18.5811 14.5464 18.557L14.7839 18.1569C14.7882 18.1507 14.7924 18.1445 14.7964 18.1381L15.009 17.7443C15.0133 17.7361 15.0175 17.7277 15.0215 17.7193L15.1778 17.3942C15.214 17.3213 15.2348 17.2442 15.2403 17.163L15.2465 16.9817C15.2618 16.7712 15.1788 16.612 14.9975 16.504C14.8161 16.3961 14.6366 16.399 14.4589 16.5128Z" fill="black"/>
<path d="M12.0644 18.582C12.0644 18.6924 12.1035 18.7867 12.1816 18.8649C12.2597 18.943 12.354 18.982 12.4645 18.982C12.575 18.982 12.6693 18.943 12.7474 18.8649C12.8255 18.7867 12.8646 18.6924 12.8646 18.582C12.8646 18.4715 12.8255 18.3772 12.7474 18.2991C12.6693 18.2209 12.575 18.1819 12.4645 18.1819C12.354 18.1819 12.2597 18.2209 12.1816 18.2991C12.1035 18.3772 12.0644 18.4715 12.0644 18.582ZM12.577 18.1569L12.5208 18.1444C12.3511 18.0974 12.1989 18.1307 12.0644 18.2444L11.9144 18.3694C11.8809 18.3989 11.8517 18.4323 11.8269 18.4694L11.6581 18.7132C11.5997 18.8002 11.5726 18.8961 11.5769 19.0008L11.5831 19.1821L11.4706 19.3509C11.3664 19.5092 11.3935 19.6405 11.5519 19.7447C11.7102 19.8489 11.8415 19.8218 11.9457 19.6634L12.0519 19.4946L12.2145 19.4384C12.2834 19.4146 12.3439 19.3771 12.3958 19.3259L12.6021 19.1196L12.7396 18.982C12.8174 18.906 12.8654 18.8143 12.8834 18.707L12.8959 18.657C12.9393 18.3949 12.833 18.2282 12.577 18.1569Z" fill="black"/>
<path d="M4.95071 31.9032L4.97571 31.8782L5.09449 31.8032C5.11668 31.7882 5.13752 31.7716 5.157 31.7532L5.38204 31.5469C5.395 31.537 5.40751 31.5266 5.41955 31.5156L5.7196 31.1843C5.72383 31.1802 5.728 31.1761 5.73211 31.1718L6.09468 30.7467L6.53226 30.2529C6.54091 30.2427 6.54924 30.2323 6.55726 30.2216L7.03861 29.5965C7.0407 29.5945 7.04279 29.5924 7.04486 29.5903L7.58246 28.8714L8.20133 28.065L8.8577 27.2211C8.8598 27.219 8.86188 27.2169 8.86395 27.2148L9.50157 26.3709C9.50367 26.3688 9.50576 26.3668 9.50783 26.3647L10.0954 25.5645L10.6205 24.8644C10.6248 24.8582 10.629 24.8519 10.633 24.8456L11.0519 24.2393C11.0629 24.2251 11.0733 24.2105 11.0831 24.1955L11.3832 23.6829C11.3921 23.6687 11.4005 23.6541 11.4082 23.6391L11.6145 23.2078C11.6238 23.1895 11.6322 23.1708 11.6395 23.1516L11.7583 22.814C11.7604 22.8119 11.7624 22.8098 11.7645 22.8077L11.8333 22.5952L11.902 22.4764C11.9555 22.3729 11.9671 22.265 11.9368 22.1525C11.9064 22.04 11.8421 21.9525 11.7439 21.89C11.6456 21.8275 11.5391 21.8063 11.4243 21.8264C11.3096 21.8466 11.2167 21.9028 11.1456 21.9951L11.0581 22.1264L10.8956 22.3076C10.8935 22.3097 10.8914 22.3118 10.8893 22.3139L10.658 22.5827C10.6469 22.5968 10.6365 22.6114 10.6268 22.6265L10.3517 23.014L10.0017 23.4954C10.0017 23.4974 10.0017 23.4995 10.0017 23.5016L9.58284 24.0955L9.05774 24.7706L8.44512 25.5395L7.76999 26.3522C7.76573 26.3583 7.76156 26.3646 7.75749 26.3709L7.10112 27.2086C7.09899 27.2127 7.09691 27.2169 7.09487 27.2211L6.48225 28.0337C6.47803 28.0378 6.47386 28.042 6.46975 28.0462L5.9384 28.7714C5.9363 28.7734 5.93422 28.7755 5.93214 28.7776L5.47581 29.4215C5.47147 29.4297 5.4673 29.4381 5.46331 29.4465L5.10699 29.9966L4.80068 30.4592C4.79858 30.4613 4.7965 30.4633 4.79443 30.4654L4.55063 30.8405C4.53911 30.8587 4.5287 30.8774 4.51938 30.8968L4.38185 31.1718C4.36867 31.2 4.35825 31.2292 4.35059 31.2593L4.30684 31.4156C4.30112 31.4362 4.29696 31.457 4.29433 31.4781L4.28808 31.5219C4.2629 31.7053 4.33055 31.8432 4.49104 31.9356C4.65153 32.028 4.80475 32.0172 4.95071 31.9032ZM11.7958 22.3139L11.8333 22.2639C11.9106 22.1236 11.885 22.0058 11.7564 21.9102C11.6279 21.8147 11.5076 21.8243 11.3957 21.9388L11.3582 21.9888C11.2808 22.1291 11.3064 22.247 11.435 22.3425C11.5636 22.438 11.6838 22.4285 11.7958 22.3139Z" fill="black"/>
<path d="M12.9522 22.9453C12.9522 23.0575 12.9919 23.1532 13.0712 23.2326C13.1505 23.3119 13.2463 23.3516 13.3585 23.3516C13.4707 23.3516 13.5665 23.3119 13.6458 23.2326C13.7252 23.1532 13.7649 23.0575 13.7649 22.9453C13.7649 22.8331 13.7252 22.7373 13.6458 22.6579C13.5665 22.5786 13.4707 22.5389 13.3585 22.5389C13.2463 22.5389 13.1505 22.5786 13.0712 22.6579C12.9919 22.7373 12.9522 22.8331 12.9522 22.9453ZM13.6273 22.6077L13.6211 22.6015C13.5163 22.5169 13.3976 22.4857 13.2648 22.5077L13.2398 22.5139C13.2251 22.5153 13.2105 22.5174 13.196 22.5202L13.1522 22.5327C13.0771 22.5522 13.0104 22.5876 12.9522 22.639L12.8459 22.7265C12.8124 22.756 12.7833 22.7894 12.7584 22.8265L12.5959 23.064L12.3458 23.4079L12.0333 23.8392C12.029 23.8433 12.0249 23.8475 12.0208 23.8517L11.6707 24.358C11.6663 24.3663 11.6622 24.3746 11.6582 24.383L11.2769 24.9832L10.8518 25.6395L9.92662 26.996L9.43903 27.6274C9.43481 27.6315 9.43064 27.6357 9.42653 27.6399L8.95143 28.29C8.95143 28.2921 8.95143 28.2942 8.95143 28.2963L8.4951 28.9214L8.05126 29.5278L7.63243 30.1029C7.63034 30.105 7.62825 30.107 7.62618 30.1091L7.23236 30.6655C7.21911 30.6816 7.20661 30.6983 7.19485 30.7155L6.87604 31.2593C6.86163 31.2856 6.84913 31.3126 6.83853 31.3406L6.63849 31.8345L6.38845 32.2408L6.1384 32.6159L5.91961 32.9409L5.71332 33.191C5.71326 33.1951 5.71326 33.1993 5.71332 33.2035L5.53203 33.4285C5.52982 33.4347 5.52773 33.441 5.52578 33.4473L5.3695 33.6598C5.34611 33.6928 5.32735 33.7282 5.31324 33.7661L5.24448 33.9536L5.16947 34.1036C5.08828 34.2575 5.10078 34.4034 5.20697 34.5412L5.24448 34.5912C5.30273 34.4837 5.2944 34.3816 5.21947 34.2849L5.17572 34.3662C5.12686 34.5153 5.17151 34.6271 5.30967 34.7015C5.44783 34.7758 5.56571 34.7516 5.66331 34.6287L5.70707 34.5475C5.59341 34.547 5.51006 34.597 5.45702 34.6975H5.51328C5.66349 34.7018 5.78018 34.6414 5.86335 34.5162L5.95086 34.3849L6.07589 34.2599C6.09167 34.2443 6.10626 34.2276 6.11965 34.2099L6.28218 34.0036C6.28218 34.0015 6.28218 33.9995 6.28218 33.9974L6.45721 33.7661L6.65725 33.491C6.65935 33.489 6.66144 33.4869 6.6635 33.4848L6.9073 33.1472C6.9073 33.1451 6.9073 33.143 6.9073 33.141L7.16359 32.7721L7.4574 32.4096L7.84497 32.0595C7.86471 32.0439 7.88347 32.0273 7.90124 32.0095L8.32006 31.5407C8.33317 31.5266 8.34567 31.512 8.35757 31.4969L8.77015 30.953C8.77223 30.953 8.77432 30.953 8.7764 30.953L9.20148 30.3904C9.20358 30.3884 9.20566 30.3863 9.20773 30.3842L9.66407 29.7841C9.66617 29.782 9.66825 29.7799 9.67032 29.7778L10.1267 29.1527C10.1309 29.1465 10.1351 29.1403 10.1392 29.1339L10.5955 28.4713C10.6041 28.4611 10.6125 28.4507 10.6205 28.4401L11.0456 27.7399L11.9145 26.3272L12.3396 25.6583C12.3417 25.6541 12.3438 25.65 12.3458 25.6458L12.7147 25.0394C12.7168 25.0353 12.7189 25.0311 12.7209 25.0269L13.0335 24.4956C13.0377 24.4894 13.0419 24.4831 13.046 24.4768L13.296 24.008L13.5023 23.6329L13.6461 23.3766C13.6585 23.3524 13.6689 23.3274 13.6773 23.3016L13.7273 23.1703C13.7324 23.1539 13.7366 23.1372 13.7398 23.1203L13.7523 23.0765C13.6897 23.1375 13.648 23.2104 13.6273 23.2953L13.6461 23.2766C13.709 23.2158 13.7507 23.1429 13.7711 23.0578V23.0515C13.8183 22.8728 13.7704 22.7248 13.6273 22.6077Z" fill="black"/>
<path d="M21.7792 3.65445C21.7792 3.85032 21.8771 3.94825 22.073 3.94825C22.2688 3.94825 22.3668 3.85032 22.3668 3.65445C22.3668 3.45858 22.2688 3.36064 22.073 3.36064C21.8771 3.36064 21.7792 3.45858 21.7792 3.65445ZM22.3793 3.44191L22.373 3.43566L22.3668 3.41065C22.3365 3.50185 22.3407 3.59145 22.3793 3.67945L22.398 3.62319C22.4677 3.39545 22.3948 3.23083 22.1793 3.12933C21.9639 3.02783 21.7905 3.07644 21.6592 3.27514C21.528 3.47385 21.5513 3.65238 21.7292 3.81073L21.7729 3.84824C21.7516 3.81017 21.7246 3.77683 21.6917 3.74822L21.7229 3.79823C21.7354 3.82055 21.7499 3.84139 21.7667 3.86074L21.7854 3.88574C21.8467 3.96774 21.928 4.01606 22.0293 4.03071C22.1306 4.04535 22.2223 4.02204 22.3043 3.96076C22.3863 3.89948 22.4346 3.81818 22.4492 3.71687C22.4639 3.61556 22.4406 3.5239 22.3793 3.44191ZM22.5043 3.30438L22.4856 3.22312C22.4583 3.09253 22.3937 2.98417 22.2918 2.89805L22.223 2.84179C22.1581 2.78867 22.0852 2.75117 22.0042 2.72927L21.9605 2.71677C21.8622 2.68175 21.7615 2.6722 21.6584 2.6881C21.5553 2.704 21.4622 2.74344 21.379 2.80644C21.2959 2.86943 21.2327 2.9484 21.1895 3.04335C21.1462 3.1383 21.1282 3.23781 21.1353 3.34189L21.1415 3.42315C21.1481 3.5209 21.1752 3.61259 21.2228 3.69821L21.3103 3.85449C21.341 3.90961 21.3785 3.95962 21.4228 4.00452L21.6416 4.22331C21.6536 4.2384 21.6661 4.25298 21.6791 4.26706L21.9855 4.52962C22.0016 4.54285 22.0182 4.55535 22.0355 4.56712L22.3855 4.82967C22.3938 4.834 22.4021 4.83817 22.4105 4.84217L22.7669 5.07972C22.773 5.08399 22.7793 5.08815 22.7856 5.09222L23.1107 5.29851L23.3607 5.46104L23.5483 5.57981C23.5524 5.58403 23.5565 5.5882 23.5608 5.59232L23.6858 5.67358C23.7612 5.72013 23.8424 5.75138 23.9296 5.76735L24.0171 5.7861C24.1819 5.81693 24.3374 5.7914 24.4836 5.70953C24.6299 5.62765 24.733 5.50843 24.7928 5.35187C24.8527 5.1953 24.8554 5.03773 24.8011 4.87916C24.7468 4.72059 24.648 4.59782 24.5047 4.51086L24.4422 4.47335L24.3484 4.41084L24.1734 4.28582C24.1632 4.27719 24.1528 4.26886 24.1421 4.26081L23.8796 4.09203L23.5608 3.88574L23.2169 3.6607L22.8919 3.42941L22.6043 3.18561C22.6023 3.18351 22.6002 3.18143 22.5981 3.17936L22.3605 2.97932C22.3543 2.97505 22.3481 2.97088 22.3418 2.96682L22.198 2.86055C22.198 2.85846 22.198 2.85638 22.198 2.8543L22.1292 2.80429C22.1495 2.97733 22.2286 3.11694 22.3668 3.22312V3.20436C22.2719 3.17409 22.1756 3.16829 22.0778 3.18698C21.98 3.20567 21.8926 3.24658 21.8156 3.3097C21.7386 3.37282 21.6813 3.45049 21.6438 3.54272C21.6063 3.63494 21.5931 3.73053 21.6041 3.82948L21.6666 3.84824C21.6252 3.82412 21.5814 3.80537 21.5354 3.79197L21.6104 3.83573C21.6206 3.84231 21.631 3.84856 21.6416 3.85449L21.7167 3.89199C21.9198 4.00614 22.1147 3.99355 22.3015 3.85422C22.4883 3.71489 22.5559 3.53161 22.5043 3.30438ZM23.5608 5.08597C23.5608 5.26026 23.6225 5.40901 23.7458 5.53222C23.8691 5.65543 24.0178 5.71703 24.1921 5.71703C24.3664 5.71703 24.5152 5.65543 24.6385 5.53222C24.7617 5.40901 24.8234 5.26026 24.8235 5.08597C24.8234 4.91168 24.7617 4.76293 24.6385 4.63972C24.5152 4.51651 24.3664 4.45491 24.1921 4.45491C24.0178 4.45491 23.8691 4.51651 23.7458 4.63972C23.6225 4.76293 23.5608 4.91168 23.5608 5.08597ZM23.667 5.03596C23.667 5.18614 23.7201 5.31433 23.8263 5.42052C23.9325 5.52672 24.0607 5.57981 24.2109 5.57981C24.3611 5.57981 24.4892 5.52672 24.5954 5.42052C24.7016 5.31433 24.7547 5.18614 24.7547 5.03596C24.7547 4.88578 24.7016 4.75759 24.5954 4.6514C24.4892 4.5452 24.3611 4.49211 24.2109 4.49211C24.0607 4.49211 23.9325 4.5452 23.8263 4.6514C23.7201 4.75759 23.667 4.88578 23.667 5.03596ZM23.8171 4.9672C23.8171 5.07422 23.8549 5.16558 23.9306 5.24125C24.0063 5.31693 24.0976 5.35477 24.2046 5.35477C24.3117 5.35477 24.403 5.31693 24.4787 5.24125C24.5544 5.16558 24.5922 5.07422 24.5922 4.9672C24.5922 4.86017 24.5544 4.76882 24.4787 4.69314C24.403 4.61746 24.3117 4.57962 24.2046 4.57962C24.0976 4.57962 24.0063 4.61746 23.9306 4.69314C23.8549 4.76882 23.8171 4.86017 23.8171 4.9672ZM24.4234 4.81092L24.4047 4.75466C24.334 4.63458 24.2327 4.59709 24.1008 4.6422C23.969 4.6873 23.9119 4.77897 23.9296 4.91719L23.9483 4.97345C24.019 5.09353 24.1203 5.13102 24.2522 5.08591C24.384 5.04081 24.4411 4.94914 24.4234 4.81092Z" fill="black"/>
<path d="M21.7478 3.06685C21.7478 3.16525 21.7826 3.24923 21.8522 3.31881C21.9218 3.38838 22.0057 3.42317 22.1041 3.42317C22.2025 3.42317 22.2865 3.38838 22.3561 3.31881C22.4257 3.24923 22.4605 3.16525 22.4605 3.06685C22.4605 2.96846 22.4257 2.88447 22.3561 2.8149C22.2865 2.74532 22.2025 2.71053 22.1041 2.71053C22.0057 2.71053 21.9218 2.74532 21.8522 2.8149C21.7826 2.88447 21.7478 2.96846 21.7478 3.06685ZM21.7353 2.99809C21.7121 3.11054 21.735 3.21265 21.8041 3.3044L21.8291 3.3294C21.9144 3.44549 22.029 3.49966 22.1729 3.49193L22.2917 3.48568C22.3282 3.482 22.3636 3.47367 22.3979 3.46068L22.6417 3.37941C22.6698 3.37163 22.6969 3.36121 22.723 3.34816L23.0793 3.14187C23.09 3.13603 23.1004 3.12977 23.1106 3.12311L23.5544 2.8168C23.5565 2.81474 23.5586 2.81266 23.5607 2.81055L24.0608 2.44798L24.5734 2.07291C24.5755 2.07085 24.5775 2.06877 24.5796 2.06666L25.0359 1.72285C25.0401 1.72083 25.0443 1.71874 25.0484 1.7166L25.4173 1.41654C25.4193 1.41655 25.4214 1.41655 25.4235 1.41654L25.6923 1.1915C25.7033 1.18164 25.7137 1.17123 25.7236 1.16024L25.8799 0.997708C25.8841 0.993638 25.8883 0.98947 25.8924 0.985206L25.9611 0.903941C26.0591 0.795835 26.0841 0.672895 26.0361 0.53512L26.0299 0.522618C25.9948 0.423152 25.9292 0.351832 25.833 0.308659C25.7368 0.265486 25.6399 0.263875 25.5423 0.303826L25.4798 0.328831C25.4487 0.339579 25.4195 0.354165 25.3923 0.372589L25.2985 0.447604C25.2876 0.455391 25.2772 0.463726 25.2672 0.472608L25.161 0.566376C25.1567 0.570447 25.1525 0.574615 25.1485 0.578879L25.0609 0.666395L24.9547 0.753912C24.946 0.7619 24.9377 0.770235 24.9297 0.778917L24.7671 0.928945C24.7294 0.965738 24.6981 1.00741 24.6734 1.05397L24.4921 1.38528C24.4801 1.40749 24.4697 1.43041 24.4608 1.45405L24.2733 1.95414C24.271 1.96243 24.2689 1.97076 24.267 1.97915L24.0795 2.55425C24.0715 2.57881 24.0652 2.60382 24.0608 2.62927L23.9607 3.19188C23.9501 3.25481 23.9521 3.31733 23.967 3.37941L24.042 3.70447L23.9795 3.96077C23.9709 4.10164 24.035 4.1896 24.1717 4.22465C24.3084 4.2597 24.4068 4.21342 24.4671 4.0858L24.5358 3.83575L24.7609 3.5982C24.7969 3.56134 24.8261 3.51967 24.8484 3.47318L25.0922 2.95433C25.0993 2.93797 25.1055 2.9213 25.111 2.90432L25.311 2.32921L25.4923 1.82912C25.4947 1.81876 25.4967 1.80834 25.4985 1.79786L25.6048 1.43529C25.6133 1.40872 25.6195 1.38163 25.6236 1.35403L25.6361 1.204L25.6548 1.17274L25.7048 1.10398L25.7798 1.03522L25.8423 0.985206L25.8736 0.966453C25.819 0.883378 25.7433 0.830932 25.6463 0.809114C25.5493 0.787296 25.4584 0.802235 25.3735 0.853931L25.3798 0.866433C25.5644 0.725335 25.5915 0.558637 25.461 0.366338L25.386 0.422599L25.211 0.53512L24.9172 0.722656C24.913 0.724671 24.9088 0.726755 24.9047 0.728907L24.5171 0.997708C24.515 0.997696 24.5129 0.997696 24.5108 0.997708L24.042 1.32902C24.0399 1.32901 24.0378 1.32901 24.0358 1.32902L23.5232 1.69784L23.0231 2.06041L22.5917 2.36047L22.2542 2.57301C22.2521 2.57507 22.25 2.57716 22.2479 2.57926L22.0729 2.69178L22.0041 2.71679C22.0536 2.71734 22.1015 2.70901 22.1479 2.69178H22.1104C22.0852 2.69138 22.0602 2.69347 22.0354 2.69803C21.8667 2.72944 21.7667 2.82946 21.7353 2.99809Z" fill="black"/>
<path d="M14.0839 3.92934C14.0839 4.14605 14.1922 4.2544 14.4089 4.2544C14.6256 4.2544 14.734 4.14605 14.734 3.92934C14.734 3.71263 14.6256 3.60428 14.4089 3.60428C14.1922 3.60428 14.0839 3.71263 14.0839 3.92934ZM14.2214 4.2544L14.2339 4.26066C14.2145 4.24397 14.1937 4.22939 14.1714 4.2169L14.1901 4.2294C14.1657 4.17335 14.1303 4.12543 14.0839 4.08562L14.1026 4.14188L14.1589 4.29191C14.1755 4.3298 14.1964 4.36522 14.2214 4.39818L14.6652 5.06081C14.6805 5.08276 14.6972 5.1036 14.7152 5.12332L15.1091 5.5609C15.119 5.57383 15.1294 5.58633 15.1403 5.59841L15.6029 6.03599C15.6149 6.04904 15.6274 6.06155 15.6404 6.0735L16.1468 6.47358C16.1569 6.48226 16.1673 6.49059 16.178 6.49858L16.6656 6.83615C16.7028 6.86149 16.7424 6.88232 16.7844 6.89866L17.2532 7.08619C17.2675 7.09315 17.2821 7.0994 17.297 7.10495L17.6721 7.21122C17.6845 7.21395 17.697 7.21603 17.7096 7.21747L17.9096 7.25498L18.0034 7.32374C18.1367 7.4235 18.2533 7.40678 18.3532 7.27357C18.4531 7.14035 18.4365 7.02372 18.3034 6.92366L18.1972 6.84865L18.0909 6.66736C18.0815 6.65202 18.0711 6.63743 18.0596 6.62361L17.8158 6.32355C17.8042 6.30823 17.7917 6.29365 17.7783 6.27979L17.422 5.92347C17.4005 5.903 17.3776 5.88425 17.3532 5.86721L16.8907 5.52965L16.4218 5.14207L15.9905 4.73575L15.6092 4.31692C15.6031 4.31053 15.5968 4.30428 15.5904 4.29816L15.0216 3.7293C14.974 3.68369 14.9199 3.64826 14.859 3.62303L14.709 3.55427C14.6326 3.52231 14.5535 3.51189 14.4714 3.52302L14.4027 3.52927C14.3216 3.54085 14.2508 3.57419 14.1901 3.62929L14.1714 3.64179C14.1937 3.6293 14.2145 3.61471 14.2339 3.59803L14.2214 3.60428C14.0961 3.67641 14.0334 3.78476 14.0334 3.92934C14.0334 4.07392 14.0961 4.18228 14.2214 4.2544Z" fill="black"/>
<path d="M14.515 3.9606C14.5151 4.06242 14.5511 4.14933 14.6231 4.22131C14.6951 4.2933 14.782 4.32929 14.8839 4.32929C14.9857 4.32929 15.0726 4.2933 15.1446 4.22131C15.2166 4.14933 15.2527 4.06242 15.2527 3.9606C15.2527 3.85878 15.2166 3.77188 15.1446 3.69989C15.0726 3.6279 14.9857 3.59191 14.8839 3.59191C14.782 3.59191 14.6951 3.6279 14.6231 3.69989C14.5511 3.77188 14.5151 3.85878 14.515 3.9606ZM15.0652 3.62929L15.0464 3.62304C15.081 3.6786 15.1268 3.72236 15.1839 3.75431L15.1714 3.73556C15.0966 3.61212 14.987 3.54893 14.8426 3.54601C14.6983 3.54309 14.5862 3.60178 14.5065 3.7221C14.4267 3.84241 14.4162 3.96848 14.4751 4.1003C14.5339 4.23213 14.6348 4.3085 14.7776 4.32942H14.7964C14.8005 4.33158 14.8046 4.33367 14.8089 4.33567H14.8276C15.0457 4.3822 15.1903 4.29978 15.2614 4.08841C15.3325 3.87703 15.267 3.72399 15.0652 3.62929ZM14.39 3.92935C14.39 4.04673 14.4315 4.14692 14.5145 4.22992C14.5975 4.31293 14.6977 4.35443 14.8151 4.35443C14.9325 4.35443 15.0327 4.31293 15.1157 4.22992C15.1987 4.14692 15.2402 4.04673 15.2402 3.92935C15.2402 3.81196 15.1987 3.71177 15.1157 3.62877C15.0327 3.54577 14.9325 3.50427 14.8151 3.50427C14.6977 3.50427 14.5975 3.54577 14.5145 3.62877C14.4315 3.71177 14.39 3.81196 14.39 3.92935ZM14.3025 3.91684C14.3025 4.05149 14.3501 4.16642 14.4453 4.26162C14.5405 4.35683 14.6555 4.40444 14.7901 4.40444C14.9247 4.40444 15.0397 4.35683 15.1349 4.26162C15.2301 4.16642 15.2777 4.05149 15.2777 3.91684C15.2777 3.7822 15.2301 3.66727 15.1349 3.57206C15.0397 3.47686 14.9247 3.42925 14.7901 3.42925C14.6555 3.42925 14.5405 3.47686 14.4453 3.57206C14.3501 3.66727 14.3025 3.7822 14.3025 3.91684ZM14.2337 3.91684C14.2337 4.07048 14.2881 4.20161 14.3967 4.31025C14.5053 4.41888 14.6365 4.4732 14.7901 4.4732C14.9437 4.4732 15.0749 4.41888 15.1835 4.31025C15.2921 4.20161 15.3465 4.07048 15.3465 3.91684C15.3465 3.76321 15.2921 3.63208 15.1835 3.52344C15.0749 3.41481 14.9437 3.36049 14.7901 3.36049C14.6365 3.36049 14.5053 3.41481 14.3967 3.52344C14.2881 3.63208 14.2337 3.76321 14.2337 3.91684ZM14.3838 4.34818L14.465 4.43569C14.4883 4.46049 14.5133 4.48341 14.5401 4.50446L14.7276 4.65448C14.7418 4.66543 14.7564 4.67585 14.7713 4.68574L15.0714 4.89828C15.0857 4.90709 15.1003 4.91542 15.1152 4.92329L15.5527 5.18584C15.5691 5.19476 15.5858 5.20309 15.6028 5.21084L16.1654 5.49839C16.1919 5.5103 16.219 5.52072 16.2466 5.52965L16.9155 5.7797C16.936 5.78891 16.9568 5.79725 16.978 5.8047L17.6907 5.99849C17.6969 6.00065 17.7031 6.00273 17.7094 6.00474L18.3658 6.17977L18.8971 6.33605L19.3097 6.47358C19.5184 6.54311 19.7163 6.52019 19.9036 6.40482L20.0223 6.3298C19.8663 6.19325 19.6996 6.17866 19.5223 6.28604L19.6723 6.41732C19.7603 6.49495 19.8629 6.53009 19.9801 6.52275C20.0972 6.51541 20.1946 6.46773 20.2723 6.37972C20.3499 6.2917 20.3851 6.18912 20.3778 6.07196C20.3705 5.95481 20.3229 5.85739 20.2349 5.7797L20.0849 5.64842C20.0704 5.79403 20.1183 5.91488 20.2286 6.01099L20.2411 5.86721C20.2708 5.57717 20.1625 5.35421 19.9161 5.19834L19.541 4.96079C19.4975 4.93323 19.4516 4.91031 19.4035 4.89203L18.8659 4.67949C18.8453 4.67237 18.8245 4.66612 18.8034 4.66074L18.1407 4.4607C18.1366 4.46067 18.1324 4.46067 18.1282 4.4607L17.4406 4.26691L16.828 4.05437L16.3216 3.79807L15.8778 3.56678C15.8554 3.55525 15.8325 3.54483 15.809 3.53552L15.4652 3.39799C15.4249 3.37965 15.3832 3.36507 15.3402 3.35424L15.1027 3.30423C15.0218 3.28736 14.9405 3.28528 14.8589 3.29798L14.7463 3.31673C14.501 3.35378 14.3372 3.48934 14.2549 3.72343C14.1726 3.95751 14.2156 4.16576 14.3838 4.34818Z" fill="black"/>
<path d="M16.2029 5.60469C16.1718 5.66379 16.1573 5.72671 16.1593 5.79344C16.1613 5.86017 16.1795 5.92211 16.2141 5.97925C16.2486 6.03639 16.2949 6.08137 16.3531 6.11417C16.4112 6.14697 16.4737 6.16338 16.5404 6.16338C16.6072 6.16338 16.6696 6.14697 16.7278 6.11417C16.7859 6.08137 16.8323 6.03639 16.8668 5.97925C16.9013 5.92211 16.9196 5.86017 16.9216 5.79344C16.9236 5.72671 16.909 5.66379 16.878 5.60469C16.8066 5.46872 16.694 5.40073 16.5404 5.40073C16.3868 5.40073 16.2743 5.46872 16.2029 5.60469ZM16.0966 5.79848C16.0966 5.92277 16.1405 6.02885 16.2284 6.11674C16.3163 6.20462 16.4224 6.24856 16.5467 6.24856C16.671 6.24856 16.7771 6.20462 16.8649 6.11674C16.9528 6.02885 16.9968 5.92277 16.9968 5.79848C16.9968 5.67419 16.9528 5.5681 16.8649 5.48022C16.7771 5.39233 16.671 5.34839 16.5467 5.34839C16.4224 5.34839 16.3163 5.39233 16.2284 5.48022C16.1405 5.5681 16.0966 5.67419 16.0966 5.79848ZM16.0091 5.64845L15.9903 5.70471C15.9304 5.88897 15.9429 6.06817 16.0278 6.24231L16.1216 6.42985C16.1487 6.48593 16.1821 6.53802 16.2216 6.58613L16.4217 6.82367C16.4297 6.8343 16.4381 6.84472 16.4467 6.85493L16.703 7.13623C16.7151 7.14704 16.7276 7.15746 16.7405 7.16749L17.0343 7.44879C17.0691 7.48143 17.1066 7.5106 17.1468 7.53631L17.4719 7.7426C17.6281 7.83693 17.7961 7.86838 17.9758 7.83696C18.1556 7.80554 18.303 7.71896 18.4179 7.57723C18.5329 7.4355 18.5872 7.27344 18.5809 7.09105C18.5745 6.90867 18.5091 6.75078 18.3845 6.61738L18.1282 6.35483L17.8719 6.06728L17.6156 5.78598C17.6094 5.78172 17.6032 5.77755 17.5969 5.77347L17.3843 5.54843C17.3361 5.49736 17.2819 5.45361 17.2218 5.41716L17.0405 5.30463C16.8541 5.19549 16.6582 5.17465 16.4529 5.24212L16.3967 5.26088C16.202 5.32461 16.0728 5.4538 16.0091 5.64845ZM18.0845 7.54881L18.347 7.64258C18.5137 7.70085 18.6262 7.64666 18.6845 7.48002C18.7428 7.31338 18.6887 7.20087 18.5221 7.14248L18.2595 7.04872C18.0928 6.99037 17.9803 7.04455 17.9219 7.21125C17.8636 7.37795 17.9178 7.49047 18.0845 7.54881Z" fill="black"/>
</g>
<defs>
<clipPath id="clip0_1_7441">
<rect width="34" height="39" fill="white"/>
</clipPath>
</defs>
</svg>
