<svg width="43" height="42" viewBox="0 0 43 42" fill="none" xmlns="http://www.w3.org/2000/svg">
<g clip-path="url(#clip0_1_7212)">
<path d="M14.3433 7.68627L14.3496 7.71752C14.3496 7.828 14.3886 7.9223 14.4668 8.00042C14.5449 8.07854 14.6392 8.1176 14.7497 8.1176C14.8601 8.1176 14.9544 8.07854 15.0325 8.00042C15.1107 7.9223 15.1497 7.828 15.1497 7.71752L15.156 7.68627C15.156 7.57406 15.1163 7.47829 15.037 7.39895C14.9576 7.31961 14.8619 7.27994 14.7497 7.27994C14.6374 7.27994 14.5417 7.31961 14.4623 7.39895C14.383 7.47829 14.3433 7.57406 14.3433 7.68627ZM14.4683 7.78628C14.4683 7.96548 14.5579 8.05509 14.7371 8.05509C14.9163 8.05509 15.0059 7.96548 15.0059 7.78628C15.0059 7.60708 14.9163 7.51748 14.7371 7.51748C14.5579 7.51748 14.4683 7.60708 14.4683 7.78628Z" fill="black"/>
<path d="M13.4931 7.44247C13.4931 7.53396 13.5254 7.61205 13.5901 7.67674C13.6548 7.74144 13.7329 7.77378 13.8244 7.77378C13.9159 7.77378 13.994 7.74144 14.0587 7.67674C14.1233 7.61205 14.1557 7.53396 14.1557 7.44247C14.1557 7.35098 14.1233 7.27289 14.0587 7.20819C13.994 7.1435 13.9159 7.11116 13.8244 7.11116C13.7329 7.11116 13.6548 7.1435 13.5901 7.20819C13.5254 7.27289 13.4931 7.35098 13.4931 7.44247ZM14.3245 7.16116L14.2932 7.08615C14.2343 6.94756 14.1447 6.83296 14.0244 6.74234L13.9807 6.71108L14.0307 6.77984L14.0244 6.76109L14.0619 6.49229L14.2682 5.97969L14.6995 5.29206L15.4122 4.50441L16.3936 3.72926L17.5688 3.06664L18.7566 2.6228L19.8005 2.48528L20.6007 2.60405L21.257 2.91036L21.8384 3.23542C21.8425 3.23755 21.8467 3.23963 21.8509 3.24167L22.176 3.41045L22.2635 3.69175C22.3218 3.87512 22.4427 3.93763 22.6261 3.87929C22.8094 3.82095 22.8719 3.70009 22.8136 3.51672L22.7073 3.17291L22.7386 2.74783C22.7457 2.64784 22.729 2.55199 22.6886 2.46027L22.4073 1.82265C22.3477 1.68624 22.2581 1.57372 22.1385 1.48508L21.4196 0.953733C21.3177 0.878709 21.2051 0.826617 21.082 0.797454L20.0256 0.553657C19.9306 0.533087 19.8348 0.526835 19.738 0.534904L18.4378 0.628672C18.3544 0.635279 18.2732 0.651949 18.194 0.678681L16.7999 1.14127C16.7391 1.16288 16.6807 1.18996 16.6249 1.22253L15.3059 1.96018C15.253 1.98915 15.203 2.02249 15.1559 2.06019L14.0557 2.96037C14.0179 2.99118 13.9824 3.02452 13.9494 3.06038L13.1117 3.97306C13.0694 4.02163 13.0318 4.07373 12.9992 4.12934L12.4741 4.97325C12.4352 5.03854 12.404 5.1073 12.3804 5.17954L12.1303 5.91093C12.0981 6.00199 12.0793 6.09576 12.074 6.19223L12.049 6.75484C12.0426 6.89044 12.0635 7.02171 12.1116 7.14866L12.2491 7.49873C12.3179 7.68211 12.4325 7.83006 12.5929 7.94256L12.8117 8.09259C12.957 8.19133 13.1174 8.24342 13.293 8.24887L13.4868 8.26137C13.7531 8.27011 13.974 8.17426 14.1494 7.97382L14.2057 7.91131C14.4047 7.6865 14.4443 7.43645 14.3245 7.16116Z" fill="black"/>
<path d="M20.4882 2.3352C20.4882 2.45431 20.5303 2.55598 20.6146 2.6402C20.6988 2.72442 20.8005 2.76653 20.9196 2.76653C21.0387 2.76653 21.1403 2.72442 21.2246 2.6402C21.3088 2.55598 21.3509 2.45431 21.3509 2.3352C21.3509 2.21609 21.3088 2.11443 21.2246 2.0302C21.1403 1.94598 21.0387 1.90387 20.9196 1.90387C20.8005 1.90387 20.6988 1.94598 20.6146 2.0302C20.5303 2.11443 20.4882 2.21609 20.4882 2.3352ZM20.3257 2.3227C20.3257 2.49532 20.3867 2.64266 20.5088 2.76472C20.6309 2.88679 20.7782 2.94782 20.9508 2.94782C21.1234 2.94782 21.2708 2.88679 21.3928 2.76472C21.5149 2.64266 21.5759 2.49532 21.5759 2.3227C21.5759 2.15008 21.5149 2.00273 21.3928 1.88067C21.2708 1.75861 21.1234 1.69758 20.9508 1.69758C20.7782 1.69758 20.6309 1.75861 20.5088 1.88067C20.3867 2.00273 20.3257 2.15008 20.3257 2.3227ZM20.8633 3.02908L21.0196 3.07284L21.1571 3.1416L21.3259 3.28538L21.5447 3.62295L21.7635 4.26057L21.9448 5.11073L22.1135 5.94214C22.1154 5.95259 22.1175 5.96301 22.1198 5.97339L22.2761 6.64852C22.2842 6.68462 22.2946 6.72004 22.3073 6.75479L22.4574 7.16112C22.5172 7.33284 22.6247 7.46612 22.7798 7.56095C22.935 7.65578 23.1026 7.69065 23.2827 7.66558C23.4628 7.6405 23.6146 7.56115 23.7379 7.42754C23.8613 7.29393 23.9283 7.13636 23.9389 6.95483L23.9701 6.51725C23.9726 6.47974 23.9726 6.44223 23.9701 6.40472L23.9326 5.71084C23.9313 5.68993 23.9292 5.6691 23.9264 5.64833L23.8139 4.79817C23.8107 4.773 23.8065 4.74799 23.8014 4.72315L23.6138 3.81048C23.6057 3.77233 23.5953 3.73483 23.5826 3.69796L23.3075 2.89156C23.28 2.81153 23.2425 2.73652 23.195 2.66651L22.8199 2.12266C22.7432 2.01262 22.6473 1.92302 22.5324 1.85386L22.126 1.60381C21.9968 1.52745 21.8572 1.48578 21.7072 1.47879L21.3571 1.46003C21.2342 1.4526 21.1155 1.47135 21.0008 1.51629L20.7883 1.60381C20.4579 1.73981 20.3021 1.98622 20.3209 2.34302C20.3396 2.69983 20.5204 2.92852 20.8633 3.02908ZM22.6511 7.0861C22.6511 7.24319 22.7067 7.37727 22.8178 7.48835C22.9288 7.59942 23.0629 7.65496 23.22 7.65496C23.3771 7.65496 23.5112 7.59942 23.6222 7.48835C23.7333 7.37727 23.7889 7.24319 23.7889 7.0861C23.7889 6.92902 23.7333 6.79494 23.6222 6.68386C23.5112 6.57278 23.3771 6.51725 23.22 6.51725C23.0629 6.51725 22.9288 6.57278 22.8178 6.68386C22.7067 6.79494 22.6511 6.92902 22.6511 7.0861ZM23.5076 7.0486L23.5013 6.92357C23.4927 6.7363 23.3948 6.64682 23.2075 6.65515C23.0202 6.66347 22.9306 6.76128 22.9387 6.94858L22.9449 7.0736C22.9533 7.26114 23.0512 7.35074 23.2388 7.3424C23.4263 7.33407 23.5159 7.23613 23.5076 7.0486Z" fill="black"/>
<path d="M22.5011 4.42309C22.5011 4.53702 22.5413 4.63427 22.6219 4.71483C22.7025 4.79539 22.7997 4.83567 22.9136 4.83567C23.0276 4.83567 23.1248 4.79539 23.2054 4.71483C23.2859 4.63427 23.3262 4.53702 23.3262 4.42309C23.3262 4.30916 23.2859 4.21191 23.2054 4.13135C23.1248 4.05079 23.0276 4.01051 22.9136 4.01051C22.7997 4.01051 22.7025 4.05079 22.6219 4.13135C22.5413 4.21191 22.5011 4.30916 22.5011 4.42309ZM22.4636 4.39809C22.4636 4.52065 22.5069 4.62526 22.5935 4.71192C22.6802 4.79859 22.7848 4.84192 22.9074 4.84192C23.0299 4.84192 23.1346 4.79859 23.2212 4.71192C23.3079 4.62526 23.3512 4.52065 23.3512 4.39809C23.3512 4.27552 23.3079 4.17091 23.2212 4.08425C23.1346 3.99758 23.0299 3.95425 22.9074 3.95425C22.7848 3.95425 22.6802 3.99758 22.5935 4.08425C22.5069 4.17091 22.4636 4.27552 22.4636 4.39809ZM22.3698 4.32307C22.3698 4.4698 22.4217 4.59504 22.5254 4.69879C22.6292 4.80255 22.7544 4.85442 22.9011 4.85442C23.0479 4.85442 23.1731 4.80255 23.2769 4.69879C23.3806 4.59504 23.4325 4.4698 23.4325 4.32307C23.4325 4.17634 23.3806 4.0511 23.2769 3.94735C23.1731 3.8436 23.0479 3.79172 22.9011 3.79172C22.7544 3.79172 22.6292 3.8436 22.5254 3.94735C22.4217 4.0511 22.3698 4.17634 22.3698 4.32307ZM22.2635 4.21055C22.2635 4.39008 22.327 4.54331 22.4539 4.67026C22.5809 4.7972 22.7341 4.86067 22.9136 4.86067C23.0932 4.86067 23.2464 4.7972 23.3733 4.67026C23.5003 4.54331 23.5638 4.39008 23.5638 4.21055C23.5638 4.03102 23.5003 3.87779 23.3733 3.75084C23.2464 3.6239 23.0932 3.56043 22.9136 3.56043C22.7341 3.56043 22.5809 3.6239 22.4539 3.75084C22.327 3.87779 22.2635 4.03102 22.2635 4.21055ZM22.1072 4.11678L22.0885 4.35433C22.0841 4.39171 22.082 4.42921 22.0822 4.46685L22.101 5.02946C22.103 5.03782 22.105 5.04615 22.1072 5.05446L22.151 5.83586C22.1509 5.84419 22.1509 5.85253 22.151 5.86086L22.2198 6.67977C22.2215 6.6944 22.2236 6.70899 22.226 6.72353L22.3135 7.3799C22.3182 7.41148 22.3244 7.44274 22.3323 7.47367L22.4073 7.79873C22.4607 8.02108 22.5816 8.19703 22.77 8.32658C22.9585 8.45613 23.1661 8.50603 23.3928 8.47628C23.6195 8.44653 23.8072 8.34477 23.9558 8.171C24.1045 7.99722 24.1759 7.79604 24.1701 7.56744L24.1576 7.23613C24.158 7.22154 24.158 7.20695 24.1576 7.19237L24.1076 6.52974L24.0514 5.72334L24.0076 4.94819C24.0069 4.91892 24.0048 4.88975 24.0013 4.86067L23.9201 4.30432C23.9023 4.17908 23.8607 4.06239 23.7951 3.95425L23.6763 3.75421C23.467 3.39802 23.1611 3.26643 22.7586 3.35944C22.3561 3.45245 22.139 3.70489 22.1072 4.11678ZM23.6263 7.52993L23.6325 7.26738C23.6342 7.17595 23.6033 7.0973 23.5398 7.03146C23.4763 6.96561 23.3989 6.93182 23.3075 6.9301C23.216 6.92837 23.1374 6.95921 23.0715 7.02262C23.0056 7.08603 22.9717 7.16345 22.9699 7.25488L22.9636 7.51743C22.962 7.60887 22.9929 7.68751 23.0564 7.75335C23.1198 7.8192 23.1973 7.85299 23.2887 7.85471C23.3801 7.85644 23.4588 7.8256 23.5247 7.76219C23.5906 7.69878 23.6245 7.62136 23.6263 7.52993Z" fill="black"/>
<path d="M32.9217 15.6066C32.9218 15.7205 32.9621 15.8177 33.0426 15.8982C33.1232 15.9787 33.2204 16.0189 33.3343 16.0189C33.4482 16.0189 33.5454 15.9787 33.626 15.8982C33.7065 15.8177 33.7468 15.7205 33.7469 15.6066C33.7468 15.4927 33.7065 15.3955 33.626 15.315C33.5454 15.2345 33.4482 15.1942 33.3343 15.1942C33.2204 15.1942 33.1232 15.2345 33.0426 15.315C32.9621 15.3955 32.9218 15.4927 32.9217 15.6066ZM33.7594 15.8254L33.8594 15.6878C33.9194 15.6031 33.9569 15.5093 33.9719 15.4065L34.0094 15.144C34.0121 15.1274 34.0142 15.1107 34.0157 15.094L34.0219 14.9439L34.0782 14.8189C33.9144 14.9067 33.7956 15.0359 33.7219 15.2065L33.7406 15.194L33.6719 15.1877L33.9969 15.4065L34.7221 16.2942L35.6035 18.1258L36.3849 20.8076L36.8225 23.9269L36.8037 27.09L36.3911 29.9656L35.7348 32.2847L35.0909 33.9726C35.0864 33.985 35.0822 33.9975 35.0784 34.0101L34.7783 34.979L34.2657 35.3291C34.1563 35.4354 34.1439 35.552 34.2285 35.679C34.3131 35.8059 34.4256 35.8393 34.5658 35.7792L35.1534 35.3853L36.1161 34.8665C36.2212 34.8085 36.3066 34.7293 36.3724 34.6289L37.3976 33.0974C37.4416 33.0331 37.477 32.9643 37.5038 32.8911L38.3478 30.5219C38.3668 30.4689 38.3814 30.4148 38.3915 30.3594L38.9354 27.3651C38.9464 27.3072 38.9527 27.2489 38.9541 27.19L39.0104 23.8706C39.0123 23.8163 39.0102 23.7621 39.0041 23.7081L38.5728 20.4325C38.5641 20.3795 38.5516 20.3274 38.5353 20.2762L37.7351 17.4194C37.7174 17.357 37.6945 17.2966 37.6664 17.2381L36.6912 15.2002C36.6447 15.1067 36.5864 15.0213 36.5162 14.9439L35.5535 13.8625C35.4346 13.7267 35.2908 13.6267 35.1221 13.5624L34.3595 13.2811C34.1345 13.1999 33.9094 13.1999 33.6844 13.2811L33.2593 13.4312C33.0231 13.516 32.8522 13.6723 32.7467 13.9L32.6217 14.1625C32.5669 14.2794 32.5419 14.4024 32.5466 14.5314L32.5592 14.8002C32.5595 14.8295 32.5616 14.8586 32.5654 14.8877L32.6092 15.1565C32.6136 15.1861 32.6198 15.2152 32.6279 15.244L32.7029 15.4941C32.7275 15.577 32.7671 15.652 32.8217 15.7191L32.928 15.8504C33.0371 15.9835 33.1777 16.0475 33.3498 16.0423C33.5219 16.0371 33.6584 15.9648 33.7594 15.8254Z" fill="black"/>
<path d="M32.9092 36.1167C32.9092 36.2117 32.9427 36.2927 33.0099 36.3598C33.077 36.427 33.1581 36.4605 33.253 36.4605C33.3479 36.4605 33.429 36.427 33.4961 36.3598C33.5632 36.2927 33.5968 36.2117 33.5968 36.1167C33.5968 36.0218 33.5632 35.9407 33.4961 35.8736C33.429 35.8065 33.3479 35.7729 33.253 35.7729C33.1581 35.7729 33.077 35.8065 33.0099 35.8736C32.9427 35.9407 32.9092 36.0218 32.9092 36.1167ZM32.8154 36.123C32.8154 36.2386 32.8563 36.3374 32.9381 36.4191C33.0199 36.5009 33.1186 36.5418 33.2342 36.5418C33.3499 36.5418 33.4486 36.5009 33.5304 36.4191C33.6122 36.3374 33.6531 36.2386 33.6531 36.123C33.6531 36.0073 33.6122 35.9086 33.5304 35.8268C33.4486 35.745 33.3499 35.7041 33.2342 35.7041C33.1186 35.7041 33.0199 35.745 32.9381 35.8268C32.8563 35.9086 32.8154 36.0073 32.8154 36.123ZM32.7466 36.1542C32.7466 36.2837 32.7924 36.3942 32.884 36.4858C32.9755 36.5773 33.086 36.6231 33.2155 36.6231C33.345 36.6231 33.4555 36.5773 33.547 36.4858C33.6386 36.3942 33.6843 36.2837 33.6843 36.1542C33.6843 36.0248 33.6386 35.9143 33.547 35.8227C33.4555 35.7312 33.345 35.6854 33.2155 35.6854C33.086 35.6854 32.9755 35.7312 32.884 35.8227C32.7924 35.9143 32.7466 36.0248 32.7466 36.1542ZM32.6091 36.2105C32.6091 36.3797 32.6689 36.5241 32.7886 36.6437C32.9082 36.7633 33.0526 36.8231 33.2217 36.8231C33.3909 36.8231 33.5353 36.7633 33.6549 36.6437C33.7745 36.5241 33.8344 36.3797 33.8344 36.2105C33.8344 36.0413 33.7745 35.8969 33.6549 35.7773C33.5353 35.6577 33.3909 35.5979 33.2217 35.5979C33.0526 35.5979 32.9082 35.6577 32.7886 35.7773C32.6689 35.8969 32.6091 36.0413 32.6091 36.2105ZM32.9842 36.9356L33.178 37.0357C33.3141 37.1034 33.4579 37.1305 33.6093 37.1169L34.0219 37.0857C34.0992 37.0793 34.1742 37.0627 34.2469 37.0357L34.8846 36.7981C34.9277 36.7827 34.9694 36.7639 35.0096 36.7418L35.866 36.2605C35.8963 36.2435 35.9255 36.2248 35.9535 36.2042L36.985 35.4478C37.0158 35.4248 37.045 35.3998 37.0725 35.3728L38.1727 34.3226C38.1994 34.2971 38.2244 34.27 38.2477 34.2414L39.3479 32.8724C39.3808 32.8311 39.41 32.7874 39.4354 32.7411L40.4169 30.9595C40.4441 30.9115 40.467 30.8614 40.4856 30.8095L41.2545 28.559C41.268 28.516 41.2784 28.4722 41.2858 28.4278L41.8109 25.7272C41.8174 25.6879 41.8216 25.6483 41.8234 25.6085L42.0359 22.6204C42.0383 22.5808 42.0383 22.5412 42.0359 22.5016L41.8796 19.426C41.8775 19.3735 41.8713 19.3214 41.8609 19.2698L41.242 16.3942C41.2276 16.3296 41.2068 16.267 41.1795 16.2067L40.1043 13.775C40.0743 13.708 40.0368 13.6455 39.9918 13.5874L38.604 11.7808C38.544 11.7044 38.4732 11.6398 38.3915 11.5871L36.8349 10.5619C36.7376 10.4989 36.6314 10.4614 36.5161 10.4493L35.1409 10.3118L34.1032 10.1555C33.9033 10.1265 33.7887 10.212 33.7596 10.4119C33.7304 10.6118 33.8158 10.7263 34.0156 10.7556L34.9783 10.8994L35.966 11.7121L37.26 12.8936L38.454 14.5814L39.3667 16.8693L39.898 19.6011L40.0543 22.5454L39.8605 25.4147L39.3792 27.9964L38.679 30.1281L37.8414 31.8222L36.9037 33.1162L35.9098 34.0851L34.9658 34.779L34.2032 35.2166L33.6718 35.4416L33.378 35.5291L33.2155 35.5479C32.8585 35.5983 32.6504 35.8014 32.5912 36.157C32.5319 36.5126 32.6629 36.7721 32.9842 36.9356Z" fill="black"/>
<path d="M3.02872 11.4307C3.02872 11.5498 3.07083 11.6515 3.15505 11.7357C3.23928 11.8199 3.34094 11.862 3.46005 11.862C3.57916 11.862 3.68083 11.8199 3.76505 11.7357C3.84927 11.6515 3.89138 11.5498 3.89138 11.4307C3.89138 11.3116 3.84927 11.2099 3.76505 11.1257C3.68083 11.0415 3.57916 10.9994 3.46005 10.9994C3.34094 10.9994 3.23928 11.0415 3.15505 11.1257C3.07083 11.2099 3.02872 11.3116 3.02872 11.4307ZM2.97871 11.4182C2.97871 11.5494 3.02509 11.6614 3.11786 11.7541C3.21063 11.8469 3.32261 11.8933 3.4538 11.8933C3.58499 11.8933 3.69697 11.8469 3.78974 11.7541C3.88251 11.6614 3.92889 11.5494 3.92889 11.4182C3.92889 11.287 3.88251 11.175 3.78974 11.0822C3.69697 10.9895 3.58499 10.9431 3.4538 10.9431C3.32261 10.9431 3.21063 10.9895 3.11786 11.0822C3.02509 11.175 2.97871 11.287 2.97871 11.4182ZM2.89119 11.4057C2.89119 11.5593 2.94551 11.6905 3.05415 11.7991C3.16278 11.9077 3.29392 11.962 3.44755 11.962C3.60118 11.962 3.73232 11.9077 3.84095 11.7991C3.94959 11.6905 4.0039 11.5593 4.0039 11.4057C4.0039 11.2521 3.94959 11.1209 3.84095 11.0123C3.73232 10.9036 3.60118 10.8493 3.44755 10.8493C3.29392 10.8493 3.16278 10.9036 3.05415 11.0123C2.94551 11.1209 2.89119 11.2521 2.89119 11.4057ZM3.64759 11.9745L3.72885 11.9433C3.7938 11.9208 3.85423 11.8895 3.91014 11.8495L4.14768 11.687C4.15831 11.6789 4.16873 11.6706 4.17894 11.662L4.59777 11.3369L5.2854 10.8806L6.30434 10.3617L7.72961 9.87414L9.62998 9.51157L12.0679 9.28028C12.07 9.28029 12.0721 9.28029 12.0742 9.28028L14.8872 9.01148L17.519 8.77393L19.6506 8.90521C19.8632 8.91771 19.9757 8.81769 19.9882 8.60515C20.0007 8.39261 19.9007 8.28009 19.6881 8.26759L17.544 8.13631L14.9247 7.72999C14.9081 7.72725 14.8915 7.72517 14.8747 7.72373L12.0554 7.51119C12.0138 7.50825 11.9721 7.50825 11.9304 7.51119L9.44244 7.66747C9.40678 7.66959 9.37135 7.67376 9.33617 7.67998L7.31704 8.04255C7.26794 8.05328 7.22001 8.06786 7.17326 8.0863L5.62921 8.63016C5.57953 8.64695 5.5316 8.66778 5.48544 8.69267L4.38523 9.31154C4.34346 9.33545 4.30387 9.36254 4.26645 9.3928L3.55382 9.96166C3.50785 9.99904 3.46618 10.0407 3.4288 10.0867L3.07248 10.518C3.01752 10.5819 2.97376 10.6528 2.9412 10.7306L2.83493 11.0056C2.77658 11.1529 2.76824 11.3029 2.80993 11.4557L2.82868 11.5432C2.87647 11.7205 2.9816 11.8519 3.14405 11.9375C3.30651 12.0231 3.47435 12.0354 3.64759 11.9745Z" fill="black"/>
<path d="M26.5831 15.8252C26.5831 15.9374 26.6228 16.0332 26.7021 16.1126C26.7815 16.1919 26.8772 16.2316 26.9895 16.2316C27.1017 16.2316 27.1974 16.1919 27.2768 16.1126C27.3561 16.0332 27.3958 15.9374 27.3958 15.8252C27.3958 15.713 27.3561 15.6173 27.2768 15.5379C27.1974 15.4586 27.1017 15.4189 26.9895 15.4189C26.8772 15.4189 26.7815 15.4586 26.7021 15.5379C26.6228 15.6173 26.5831 15.713 26.5831 15.8252ZM27.1895 16.2941L27.2145 16.2816C27.3184 16.2419 27.4059 16.1794 27.477 16.094L27.5583 16.0003C27.6092 15.938 27.6488 15.8693 27.6771 15.794L27.7583 15.5752C27.7943 15.4827 27.813 15.3868 27.8146 15.2876L27.8209 14.9251C27.8212 14.8619 27.815 14.7994 27.8021 14.7375L27.7021 14.2312C27.6972 14.2017 27.691 14.1725 27.6833 14.1437L27.4833 13.4873C27.4713 13.4467 27.4567 13.4072 27.4395 13.3685L27.0832 12.5684C27.0618 12.5205 27.0368 12.4747 27.0082 12.4308L26.3956 11.4807C26.3644 11.4296 26.329 11.3817 26.2893 11.3369L25.3266 10.3117C25.288 10.2708 25.2464 10.2332 25.2016 10.1992L23.8826 9.17397C23.8429 9.14386 23.8012 9.11677 23.7576 9.09271L22.0823 8.16128C22.0402 8.13519 21.9964 8.11227 21.951 8.09252L19.9819 7.34237C19.907 7.31444 19.8299 7.29568 19.7506 7.28611L17.4814 6.98606C17.3785 6.97206 17.2764 6.97623 17.1751 6.99856L14.7871 7.54241L12.5805 7.78621C12.3639 7.81131 12.2681 7.93216 12.2931 8.14876C12.3181 8.36536 12.4389 8.46122 12.6555 8.43633L14.8246 8.19879L17.1688 8.69888L19.3067 9.24899L21.1383 9.98663L22.6824 10.8555L23.8889 11.7807L24.764 12.6809L25.3266 13.4873L25.6767 14.1624L25.908 14.75L26.083 15.2126L26.1893 15.5377C26.2029 15.5786 26.2196 15.6182 26.2393 15.6565L26.3393 15.8565C26.3555 15.8913 26.3742 15.9246 26.3956 15.9565L26.4706 16.0565C26.5458 16.1612 26.6437 16.2363 26.7644 16.2816L26.7894 16.2941C26.9228 16.3455 27.0561 16.3455 27.1895 16.2941Z" fill="black"/>
<path d="M31.6341 13.3561C31.6341 13.4648 31.6726 13.5577 31.7495 13.6346C31.8264 13.7115 31.9192 13.7499 32.028 13.7499C32.1367 13.7499 32.2295 13.7115 32.3064 13.6346C32.3833 13.5577 32.4218 13.4648 32.4218 13.3561C32.4218 13.2473 32.3833 13.1545 32.3064 13.0776C32.2295 13.0007 32.1367 12.9623 32.028 12.9623C31.9192 12.9623 31.8264 13.0007 31.7495 13.0776C31.6726 13.1545 31.6341 13.2473 31.6341 13.3561ZM32.3968 13.5561L32.4343 13.5061C32.488 13.4286 32.5213 13.3432 32.5343 13.2498L32.5468 13.1998L32.5593 13.181L32.7218 13.006L33.0594 12.6935L33.5345 12.3559C33.7225 12.2212 33.8354 12.0398 33.8732 11.8116C33.911 11.5834 33.8625 11.3753 33.7279 11.1872C33.5933 10.9991 33.412 10.8861 33.1838 10.8482C32.9556 10.8103 32.7475 10.8586 32.5593 10.9931L32.0467 11.362C31.9828 11.4082 31.9265 11.4624 31.8779 11.5245L31.5466 11.9433C31.4862 12.0164 31.4404 12.0976 31.4091 12.1871L31.2966 12.5372C31.2688 12.6248 31.2584 12.7144 31.2653 12.806L31.2778 13.0435C31.2849 13.1441 31.3141 13.2379 31.3653 13.3248L31.4403 13.4624C31.5295 13.6104 31.6587 13.7021 31.8279 13.7374L31.8967 13.7562C32.1076 13.7999 32.2743 13.7332 32.3968 13.5561Z" fill="black"/>
<path d="M1.58463 11.5307C1.58463 11.6533 1.62796 11.7579 1.71463 11.8445C1.80129 11.9312 1.90591 11.9745 2.02847 11.9745C2.15103 11.9745 2.25564 11.9312 2.34231 11.8445C2.42897 11.7579 2.4723 11.6533 2.4723 11.5307C2.4723 11.4081 2.42897 11.3035 2.34231 11.2168C2.25564 11.1302 2.15103 11.0869 2.02847 11.0869C1.90591 11.0869 1.80129 11.1302 1.71463 11.2168C1.62796 11.3035 1.58463 11.4081 1.58463 11.5307ZM1.54087 11.5182C1.54087 11.6546 1.58909 11.771 1.68552 11.8674C1.78195 11.9638 1.89835 12.012 2.03472 12.012C2.17109 12.012 2.28749 11.9638 2.38392 11.8674C2.48035 11.771 2.52856 11.6546 2.52856 11.5182C2.52856 11.3818 2.48035 11.2654 2.38392 11.169C2.28749 11.0726 2.17109 11.0243 2.03472 11.0243C1.89835 11.0243 1.78195 11.0726 1.68552 11.169C1.58909 11.2654 1.54087 11.3818 1.54087 11.5182ZM1.40335 11.4869C1.40341 11.6612 1.46508 11.81 1.58835 11.9332C1.71162 12.0565 1.86041 12.1181 2.03472 12.1181C2.20902 12.1181 2.35781 12.0565 2.48109 11.9332C2.60436 11.81 2.66603 11.6612 2.66609 11.4869C2.66603 11.3126 2.60436 11.1639 2.48109 11.0406C2.35781 10.9174 2.20902 10.8558 2.03472 10.8558C1.86041 10.8558 1.71162 10.9174 1.58835 11.0406C1.46508 11.1639 1.40341 11.3126 1.40335 11.4869ZM1.29083 11.4494C1.29083 11.6566 1.36406 11.8334 1.51054 11.9799C1.65701 12.1263 1.83382 12.1996 2.04097 12.1996C2.24812 12.1996 2.42493 12.1263 2.5714 11.9799C2.71787 11.8334 2.79111 11.6566 2.79111 11.4494C2.79111 11.2423 2.71787 11.0655 2.5714 10.919C2.42493 10.7725 2.24812 10.6993 2.04097 10.6993C1.83382 10.6993 1.65701 10.7725 1.51054 10.919C1.36406 11.0655 1.29083 11.2423 1.29083 11.4494ZM2.39729 12.1558L2.57857 12.087C2.5955 12.0792 2.61217 12.0709 2.62858 12.062L3.0099 11.887C3.01409 11.885 3.01825 11.8829 3.02241 11.8808L3.68503 11.5619L4.73523 11.0994L6.30428 10.493L8.41718 9.81161L10.9239 9.16774L13.5807 8.64889L16.1999 8.31758L18.6504 8.1738L20.8696 8.19255L22.8262 8.32383L24.4952 8.54887L25.9018 8.83643L27.0832 9.14899L28.0772 9.4803L28.9148 9.81161L29.5962 10.1179L30.1526 10.418L30.6464 10.7555L31.084 11.1306L31.4466 11.5494L31.7529 12.0058L32.0092 12.5621C31.9968 12.5217 31.9822 12.4821 31.9654 12.4434L31.9717 12.4621C32.0897 12.7309 32.2828 12.9249 32.551 13.0441C32.8192 13.1634 33.0926 13.1769 33.3712 13.0845C33.6498 12.9922 33.8611 12.8181 34.005 12.5623C34.1489 12.3065 34.1879 12.0355 34.1221 11.7495L34.1158 11.7307C34.1034 11.6903 34.0889 11.6507 34.0721 11.612L33.7783 10.9743C33.7549 10.9223 33.7278 10.8723 33.697 10.8243L33.3032 10.2304C33.273 10.1843 33.2397 10.1405 33.2032 10.0992L32.7343 9.56782C32.7029 9.53455 32.6695 9.50329 32.6343 9.47405L32.0967 8.99271C32.0686 8.96836 32.0395 8.94543 32.0092 8.92394L31.4216 8.50511C31.3835 8.47769 31.3439 8.45268 31.3028 8.4301L30.6652 8.07378C30.6386 8.06022 30.6115 8.04772 30.5839 8.03627L29.84 7.69871C29.8215 7.68987 29.8027 7.68154 29.7838 7.6737L28.8898 7.32364C28.8712 7.3169 28.8525 7.31065 28.8336 7.30488L27.7771 6.95482C27.7565 6.94798 27.7356 6.94172 27.7146 6.93606L26.4706 6.5985C26.4458 6.59141 26.4208 6.58516 26.3956 6.57975L24.9141 6.27969C24.8913 6.27482 24.8684 6.27066 24.8453 6.26719L23.1012 6.02964C23.0742 6.0266 23.0471 6.02451 23.02 6.02339L20.9821 5.89837C20.9592 5.89559 20.9363 5.89351 20.9133 5.89212L18.6191 5.88586C18.5961 5.88726 18.5732 5.88934 18.5504 5.89212L16.0249 6.03589C15.9977 6.03701 15.9706 6.03909 15.9436 6.04214L13.2556 6.39221C13.2284 6.3954 13.2013 6.39957 13.1743 6.40471L10.4551 6.94857C10.4299 6.95396 10.4048 6.96021 10.3801 6.96732L7.81707 7.65495C7.79395 7.66047 7.77103 7.66672 7.74831 7.6737L5.58539 8.40509C5.56227 8.41061 5.53935 8.41686 5.51663 8.42385L3.90382 9.08647C3.87622 9.09786 3.84913 9.11036 3.82256 9.12398L2.75986 9.66783C2.71644 9.68994 2.67477 9.71494 2.63483 9.74285L2.02222 10.1742C1.97028 10.2112 1.92235 10.2529 1.87844 10.2992L1.58463 10.6055C1.51891 10.6722 1.46474 10.7472 1.4221 10.8306L1.33458 11.0056C1.16302 11.3504 1.20793 11.6643 1.46929 11.9472C1.73066 12.2301 2.03999 12.2996 2.39729 12.1558Z" fill="black"/>
<path d="M17.2437 26.2898L17.1062 26.3586C16.895 26.4688 16.772 26.6417 16.7374 26.8774L16.6249 27.5901C16.6209 27.6212 16.6189 27.6524 16.6186 27.6838L16.5623 29.0153C16.5623 29.0195 16.5623 29.0237 16.5623 29.0278L16.5123 30.9594C16.5123 30.9636 16.5123 30.9678 16.5123 30.972L16.5061 33.2849L16.4373 35.6103C16.4372 35.6166 16.4372 35.6228 16.4373 35.6291L16.4436 37.6545C16.4433 37.6649 16.4433 37.6753 16.4436 37.6857L16.5186 39.2173L16.5498 40.1987C16.55 40.2218 16.5521 40.2447 16.5561 40.2675L16.6561 40.7488L16.6374 40.9238C16.6207 41.1072 16.704 41.2072 16.8874 41.2239C17.0708 41.2406 17.1708 41.1572 17.1875 40.9739L17.2 40.7863L17.3562 40.3112C17.3624 40.2887 17.3665 40.2657 17.3687 40.2425L17.5 39.2673L17.7251 37.7482C17.7275 37.7358 17.7296 37.7233 17.7313 37.7107L17.8938 35.6916C17.8961 35.6833 17.8982 35.675 17.9001 35.6666L18.0189 33.3412L18.1689 31.0345C18.1691 31.024 18.1691 31.0136 18.1689 31.0032L18.2377 29.0716C18.2378 29.0633 18.2378 29.0549 18.2377 29.0466L18.2314 27.7151C18.2317 27.6795 18.2296 27.6441 18.2252 27.6088L18.1251 26.8899C18.0944 26.6488 17.9715 26.4717 17.7563 26.3586L17.6188 26.2898C17.4938 26.2235 17.3687 26.2235 17.2437 26.2898Z" fill="black"/>
<path d="M21.232 27.0088C21.232 27.1261 21.2735 27.2263 21.3565 27.3093C21.4395 27.3923 21.5397 27.4338 21.657 27.4338C21.7744 27.4338 21.8746 27.3923 21.9576 27.3093C22.0406 27.2263 22.0821 27.1261 22.0821 27.0088C22.0821 26.8914 22.0406 26.7912 21.9576 26.7082C21.8746 26.6252 21.7744 26.5837 21.657 26.5837C21.5397 26.5837 21.4395 26.6252 21.3565 26.7082C21.2735 26.7912 21.232 26.8914 21.232 27.0088ZM21.207 27.0025C21.207 27.1268 21.2509 27.2329 21.3388 27.3208C21.4267 27.4087 21.5328 27.4526 21.657 27.4526C21.7813 27.4526 21.8874 27.4087 21.9753 27.3208C22.0632 27.2329 22.1071 27.1268 22.1071 27.0025C22.1071 26.8782 22.0632 26.7721 21.9753 26.6843C21.8874 26.5964 21.7813 26.5524 21.657 26.5524C21.5328 26.5524 21.4267 26.5964 21.3388 26.6843C21.2509 26.7721 21.207 26.8782 21.207 27.0025ZM21.1007 26.9713C21.1007 27.1214 21.1538 27.2496 21.26 27.3558C21.3662 27.462 21.4944 27.5151 21.6445 27.5151C21.7947 27.5151 21.9229 27.462 22.0291 27.3558C22.1353 27.2496 22.1884 27.1214 22.1884 26.9713C22.1884 26.8211 22.1353 26.6929 22.0291 26.5867C21.9229 26.4805 21.7947 26.4274 21.6445 26.4274C21.4944 26.4274 21.3662 26.4805 21.26 26.5867C21.1538 26.6929 21.1007 26.8211 21.1007 26.9713ZM20.9944 26.94C20.9944 27.1143 21.0561 27.2632 21.1793 27.3864C21.3026 27.5097 21.4514 27.5714 21.6258 27.5714C21.8001 27.5714 21.949 27.5097 22.0722 27.3864C22.1955 27.2632 22.2572 27.1143 22.2572 26.94C22.2572 26.7657 22.1955 26.6168 22.0722 26.4936C21.949 26.3703 21.8001 26.3086 21.6258 26.3086C21.4514 26.3086 21.3026 26.3703 21.1793 26.4936C21.0561 26.6168 20.9944 26.7657 20.9944 26.94ZM21.0382 26.5587L20.9694 26.6587C20.9065 26.7518 20.8669 26.8539 20.8506 26.965L20.8006 27.3151C20.7973 27.34 20.7952 27.365 20.7944 27.3901L20.7569 28.0715C20.7566 28.084 20.7566 28.0965 20.7569 28.109L20.7506 29.1717L20.7319 30.6282L20.6506 32.3035L20.5256 33.9976C20.5256 33.9997 20.5256 34.0018 20.5256 34.0038L20.4256 35.4979C20.4255 35.5 20.4255 35.502 20.4256 35.5041L20.3568 36.6543C20.3562 36.6689 20.3562 36.6835 20.3568 36.6981L20.3693 37.4232L20.2318 37.8483C20.211 38.0063 20.2764 38.1099 20.4279 38.1592C20.5793 38.2085 20.6932 38.1632 20.7694 38.0234L20.9194 37.5858L21.3007 36.9419C21.3185 36.9121 21.3331 36.8809 21.3445 36.8481L21.7196 35.7604C21.7273 35.7358 21.7335 35.7108 21.7383 35.6854L22.0634 34.2226C22.069 34.1958 22.0731 34.1687 22.0759 34.1414L22.2634 32.441C22.2637 32.4285 22.2637 32.416 22.2634 32.4035L22.3697 30.7032C22.37 30.6907 22.37 30.6782 22.3697 30.6657L22.3884 29.1904C22.3886 29.1821 22.3886 29.1738 22.3884 29.1654L22.3697 28.1027C22.3697 28.0986 22.3697 28.0944 22.3697 28.0902L22.3447 27.4026C22.3449 27.3922 22.3449 27.3817 22.3447 27.3713L22.3197 27.015C22.3157 26.9812 22.3095 26.9479 22.3009 26.915L22.2759 26.7962C22.2098 26.5036 22.0294 26.329 21.7348 26.2724C21.4401 26.2159 21.2079 26.3113 21.0382 26.5587Z" fill="black"/>
<path d="M21.132 28.8653C21.132 28.9827 21.1735 29.0829 21.2565 29.1659C21.3395 29.2489 21.4397 29.2904 21.5571 29.2904C21.6745 29.2904 21.7747 29.2489 21.8577 29.1659C21.9407 29.0829 21.9822 28.9827 21.9822 28.8653C21.9822 28.748 21.9407 28.6478 21.8577 28.5648C21.7747 28.4818 21.6745 28.4403 21.5571 28.4403C21.4397 28.4403 21.3395 28.4818 21.2565 28.5648C21.1735 28.6478 21.132 28.748 21.132 28.8653ZM21.1633 28.6028L21.0383 28.7653C20.98 28.8417 20.9425 28.9271 20.9257 29.0216L20.8195 29.6217C20.8145 29.6403 20.8103 29.6591 20.807 29.678L20.7069 30.8407C20.7044 30.8552 20.7023 30.8698 20.7007 30.8845L20.6632 32.4848C20.6631 32.491 20.6631 32.4973 20.6632 32.5035L20.6507 34.3351L20.6319 36.1105C20.6319 36.1146 20.6319 36.1188 20.6319 36.123L20.6444 37.6045C20.6442 37.6128 20.6442 37.6212 20.6444 37.6295L20.7069 38.6922C20.7088 38.7006 20.7108 38.7089 20.7132 38.7172L20.782 39.3298L20.7382 39.6486C20.742 39.8043 20.821 39.8928 20.9752 39.9143C21.1293 39.9359 21.2295 39.8723 21.2758 39.7236L21.3258 39.3923L21.5196 38.7985C21.5246 38.7841 21.5287 38.7695 21.5321 38.7547L21.7571 37.717C21.7602 37.6984 21.7623 37.6796 21.7634 37.6608L21.9259 36.1855C21.9262 36.1751 21.9262 36.1646 21.9259 36.1542L22.0322 34.3851C22.0343 34.3831 22.0364 34.381 22.0384 34.3789L22.126 32.541C22.1261 32.5327 22.1261 32.5244 22.126 32.516L22.1635 30.9157C22.1636 30.9074 22.1636 30.8991 22.1635 30.8907L22.1447 29.728C22.1449 29.7197 22.1449 29.7113 22.1447 29.703L22.1072 29.0904C22.1022 29.0276 22.0876 28.9672 22.0634 28.9091L21.9884 28.7153C21.9558 28.6359 21.9055 28.57 21.8377 28.5175C21.7698 28.465 21.6933 28.433 21.6083 28.4214C21.5232 28.4098 21.441 28.4202 21.3615 28.4526C21.282 28.485 21.216 28.535 21.1633 28.6028Z" fill="black"/>
<path d="M5.76029 26.5962C5.76029 26.7187 5.80362 26.8234 5.89029 26.91C5.97695 26.9967 6.08156 27.04 6.20412 27.04C6.32669 27.04 6.4313 26.9967 6.51796 26.91C6.60463 26.8234 6.64796 26.7187 6.64796 26.5962C6.64796 26.4736 6.60463 26.369 6.51796 26.2823C6.4313 26.1957 6.32669 26.1523 6.20412 26.1523C6.08156 26.1523 5.97695 26.1957 5.89029 26.2823C5.80362 26.369 5.76029 26.4736 5.76029 26.5962ZM5.68528 26.5962C5.68528 26.7377 5.73532 26.8586 5.83541 26.9586C5.9355 27.0587 6.05632 27.1088 6.19787 27.1088C6.33942 27.1088 6.46024 27.0587 6.56034 26.9586C6.66043 26.8586 6.71047 26.7377 6.71047 26.5962C6.71047 26.4546 6.66043 26.3338 6.56034 26.2337C6.46024 26.1336 6.33942 26.0836 6.19787 26.0836C6.05632 26.0836 5.9355 26.1336 5.83541 26.2337C5.73532 26.3338 5.68528 26.4546 5.68528 26.5962ZM5.82905 27.04L5.87906 27.0775C5.97508 27.1594 6.08552 27.2094 6.21038 27.2276L6.42292 27.2526C6.45611 27.257 6.48945 27.2591 6.52294 27.2588H6.8355L7.21682 27.2838L7.64815 27.3463L8.14825 27.4526C8.15447 27.4547 8.16072 27.4568 8.167 27.4588L8.78587 27.5839C8.79212 27.5839 8.79837 27.5839 8.80462 27.5839L9.511 27.7089C9.53593 27.712 9.56093 27.714 9.58602 27.7151L10.3987 27.7964C10.4194 27.7991 10.4403 27.8012 10.4612 27.8027L11.3551 27.8402C11.3718 27.8406 11.3884 27.8406 11.4051 27.8402L12.324 27.8277C12.3407 27.8281 12.3574 27.8281 12.374 27.8277L13.293 27.7714C13.3034 27.7716 13.3138 27.7716 13.3242 27.7714L14.2369 27.6901C14.2536 27.6885 14.2703 27.6864 14.2869 27.6839L15.1558 27.5714L15.981 27.4588L16.7311 27.3588L17.4125 27.2901L18.0189 27.2463L18.5752 27.2401L19.0316 27.2588L19.3879 27.3151L19.6504 27.3776L19.8192 27.4401L19.9442 27.4964L20.0068 27.5339L20.0193 27.5401H20.013L20.0443 27.5651C20.1092 27.6235 20.1801 27.6735 20.2568 27.7151L20.3131 27.7464C20.402 27.7946 20.4958 27.83 20.5944 27.8527L20.6631 27.8652C20.6858 27.8722 20.7088 27.8784 20.7319 27.8839L20.8132 27.8964C20.8546 27.903 20.8963 27.9071 20.9382 27.9089L21.0319 27.9152C21.0653 27.9167 21.0986 27.9167 21.132 27.9152L21.2382 27.9089C21.2507 27.9091 21.2632 27.9091 21.2757 27.9089L21.3758 27.9027L21.4695 27.8964C21.3851 27.8781 21.2996 27.8698 21.2132 27.8714L21.3133 27.8964C21.2389 27.863 21.1618 27.8379 21.082 27.8214L21.157 27.8527C21.1179 27.4258 20.9033 27.1237 20.5131 26.9463L20.5256 27.065C20.5407 26.9759 20.5449 26.8863 20.5381 26.7962L20.5006 27.0275C20.4935 27.0731 20.4894 27.1189 20.4881 27.165L20.4756 27.5089C20.4727 27.6263 20.4894 27.7409 20.5256 27.8527L20.6381 28.209C20.7366 28.5217 20.9469 28.7091 21.2688 28.7713C21.5907 28.8334 21.8556 28.7376 22.0634 28.484L22.3009 28.1965C22.356 28.1293 22.4018 28.0564 22.4385 27.9777L22.5885 27.6589C22.6216 27.5866 22.6466 27.5116 22.6635 27.4338L22.7135 27.2088C22.7412 27.0848 22.7474 26.9598 22.7323 26.8337L22.7198 26.715C22.6758 26.3354 22.4862 26.0541 22.1509 25.871L22.0759 25.8335C21.9584 25.7693 21.8334 25.7276 21.7008 25.7085L21.5946 25.696C21.5531 25.6895 21.5114 25.6853 21.4695 25.6835L21.3508 25.6773C21.3299 25.6767 21.3091 25.6767 21.2882 25.6773L21.1632 25.6835C21.1445 25.683 21.1257 25.683 21.107 25.6835L21.0882 25.6898H21.1195L21.0695 25.6835C21.1288 25.7011 21.1893 25.7136 21.2507 25.721L21.182 25.7023C21.2495 25.741 21.3204 25.7722 21.3945 25.796L21.3383 25.7648C21.3926 25.8121 21.4509 25.8538 21.5133 25.8898L21.4633 25.846C21.4451 25.8287 21.4263 25.8121 21.407 25.796L21.3445 25.7523C21.3282 25.7393 21.3115 25.7268 21.2945 25.7148L21.2007 25.6523C21.1742 25.6365 21.1472 25.622 21.1195 25.6085L20.9819 25.5335C20.9675 25.5248 20.953 25.5165 20.9382 25.5085L20.7444 25.4147C20.7078 25.396 20.6703 25.3793 20.6319 25.3647L20.3568 25.2709C20.3219 25.2587 20.2865 25.2483 20.2505 25.2397L19.8755 25.1459C19.8384 25.1356 19.8009 25.1273 19.763 25.1209L19.3004 25.0521C19.265 25.0484 19.2296 25.0463 19.1941 25.0459L18.644 25.0209C18.6169 25.0199 18.5898 25.0199 18.5627 25.0209L17.9439 25.0334C17.9251 25.035 17.9063 25.0371 17.8876 25.0396L17.225 25.0896C17.202 25.091 17.1791 25.0931 17.1562 25.0959L16.4561 25.1959C16.454 25.1959 16.4519 25.1959 16.4498 25.1959L15.6809 25.3084C15.6726 25.3104 15.6642 25.3125 15.6559 25.3147L14.8433 25.4522L14.0056 25.5772L13.1367 25.671L12.249 25.7398L11.3676 25.7773L10.4987 25.7898L9.71104 25.7835L9.02966 25.746L8.41705 25.696C8.41496 25.696 8.41288 25.696 8.4108 25.696L7.86694 25.6523C7.8336 25.6503 7.80026 25.6503 7.76692 25.6523L7.27308 25.671C7.2417 25.6713 7.21044 25.6734 7.17931 25.6773L6.74173 25.746C6.72072 25.7493 6.69988 25.7535 6.67922 25.7585L6.34165 25.8398C6.28954 25.8529 6.23953 25.8717 6.19162 25.8961L5.99784 25.9961C5.87967 26.0558 5.78798 26.1434 5.72278 26.2586L5.69153 26.3211C5.5397 26.5986 5.58554 26.8382 5.82905 27.04ZM21.0445 28.4028L21.0069 28.8279C20.9863 29.0403 21.0821 29.1569 21.2945 29.1777C21.5069 29.1985 21.6236 29.1027 21.6446 28.8904L21.6821 28.4653C21.7029 28.2527 21.6071 28.1361 21.3945 28.1152C21.182 28.0944 21.0653 28.1902 21.0445 28.4028Z" fill="black"/>
<path d="M17.55 26.8899L17.5563 26.8649C17.6454 26.6268 17.5789 26.4458 17.3569 26.3219C17.135 26.198 16.946 26.2364 16.7901 26.4372C16.6341 26.638 16.6437 26.8306 16.8187 27.015L16.8374 27.0337C16.8877 27.0884 16.9482 27.1272 17.0189 27.1501C17.0896 27.1731 17.1614 27.1772 17.2342 27.1625C17.3071 27.1478 17.3716 27.1162 17.4279 27.0676C17.4841 27.0191 17.5248 26.9598 17.55 26.8899ZM17.2687 27.14L17.2937 27.1337C17.4652 27.0879 17.5868 26.9838 17.6587 26.8215C17.7305 26.6592 17.7258 26.4992 17.6445 26.3414C17.5632 26.1837 17.4356 26.0869 17.2617 26.0513C17.0879 26.0156 16.9325 26.0543 16.7957 26.1673C16.6588 26.2803 16.5915 26.4255 16.5936 26.603C16.5958 26.7805 16.6666 26.924 16.8062 27.0337L16.8312 27.0525C16.9625 27.1544 17.1083 27.1835 17.2687 27.14ZM16.7374 26.1148L16.7311 26.121C16.5795 26.2731 16.5065 26.4565 16.5123 26.6711L16.5186 26.9524C16.5201 26.9713 16.5221 26.99 16.5248 27.0087L16.5749 27.5901L16.6249 28.5715L16.6561 30.0468C16.656 30.0551 16.656 30.0635 16.6561 30.0718L16.7436 31.8909C16.7436 31.893 16.7436 31.8951 16.7436 31.8971L16.8499 33.7975C16.8499 33.7996 16.8499 33.8017 16.8499 33.8038L16.9687 35.5728C16.9686 35.577 16.9686 35.5812 16.9687 35.5853L17.1125 37.0481L17.1062 38.1421C17.1063 38.3254 17.198 38.417 17.3813 38.417C17.5645 38.417 17.6562 38.3254 17.6563 38.1421L17.6626 37.0544L17.8501 35.5978C17.8523 35.5937 17.8543 35.5895 17.8564 35.5853L18.0376 33.8288L18.2377 31.9346C18.2398 31.9284 18.2419 31.9222 18.2439 31.9159L18.394 30.103C18.3946 30.0843 18.3946 30.0655 18.394 30.0468L18.4252 28.559C18.4264 28.5319 18.4264 28.5048 18.4252 28.4777L18.3502 27.465C18.3465 27.4122 18.3382 27.3601 18.3252 27.3088L18.1814 26.7274C18.1514 26.6122 18.0993 26.508 18.0251 26.4148L17.8564 26.1961C17.7339 26.0371 17.5735 25.9425 17.3751 25.9122C17.1767 25.882 16.9954 25.9245 16.8312 26.0398L16.8187 26.046C16.7897 26.0667 16.7626 26.0896 16.7374 26.1148Z" fill="black"/>
<path d="M17.175 34.6289C17.175 34.748 17.2172 34.8496 17.3014 34.9338C17.3856 35.0179 17.4873 35.06 17.6063 35.06C17.7254 35.06 17.827 35.0179 17.9112 34.9338C17.9955 34.8496 18.0376 34.748 18.0377 34.6289C18.0376 34.5098 17.9955 34.4082 17.9112 34.3241C17.827 34.2399 17.7254 34.1978 17.6063 34.1978C17.4873 34.1978 17.3856 34.2399 17.3014 34.3241C17.2172 34.4082 17.175 34.5098 17.175 34.6289ZM17.2062 34.4101L17.1187 34.5476C17.0631 34.6312 17.0297 34.7229 17.0187 34.8227L16.9687 35.2728C16.9679 35.2915 16.9679 35.3103 16.9687 35.329L16.9437 36.0792C16.9437 36.0813 16.9437 36.0834 16.9437 36.0854L16.9312 36.9669C16.9312 36.9689 16.9312 36.971 16.9312 36.9731L16.9249 37.8108C16.9249 37.8149 16.9249 37.8191 16.9249 37.8233L16.9312 38.4671L16.8937 38.9547L16.8624 39.2798L16.8187 39.4798C16.924 39.3978 16.9907 39.2916 17.0187 39.161L16.9312 39.2298C17.0358 39.2125 17.1295 39.1708 17.2125 39.1048L17.1562 39.1173C17.1416 39.1189 17.127 39.1209 17.1125 39.1235L17.05 39.1423C17.0092 39.151 16.9696 39.1635 16.9312 39.1798L16.8812 39.2048C16.674 39.2959 16.5469 39.4522 16.4999 39.6736L16.4874 39.7549C16.4526 39.9238 16.4797 40.0822 16.5686 40.23L16.6499 40.3613C16.713 40.4659 16.7985 40.5472 16.9062 40.605L17.1375 40.7238C17.28 40.7988 17.43 40.8197 17.5876 40.7863L17.9564 40.7113C18.0811 40.6862 18.1853 40.6258 18.2689 40.53L18.494 40.2675L18.8816 40.1175C19.0524 40.0508 19.1045 39.932 19.0378 39.7611C18.9712 39.5903 18.8524 39.5382 18.6815 39.6049L18.3315 39.7424L18.0439 39.6361C18.0377 39.6339 18.0314 39.6318 18.0252 39.6299L17.7188 39.5236L17.5438 39.4236C17.6027 39.5099 17.6777 39.5787 17.7689 39.6299L17.6876 39.5111C17.6706 39.6728 17.7081 39.8208 17.8001 39.9549L17.8064 39.8737C17.6066 39.9843 17.4941 40.1531 17.4688 40.38H17.475L17.4875 40.3738C17.7248 40.2857 17.8644 40.1169 17.9064 39.8674L17.9189 39.8111C17.93 39.7378 17.928 39.6649 17.9126 39.5924V39.5861L17.9314 39.4548L18.0001 39.1048C18.0025 39.0944 18.0046 39.084 18.0064 39.0735L18.0752 38.5797L18.2002 37.942C18.2025 37.9317 18.2046 37.9213 18.2064 37.9108L18.3252 37.0794C18.3281 37.0607 18.3301 37.042 18.3315 37.0231L18.3877 36.148C18.3909 36.1251 18.393 36.1022 18.394 36.0792L18.369 35.329C18.3675 35.2718 18.3592 35.2155 18.344 35.1603L18.2252 34.7227C18.1939 34.6103 18.1356 34.5145 18.0502 34.4351L17.9314 34.3226C17.8234 34.2207 17.6957 34.1786 17.5483 34.1964C17.4009 34.2142 17.2869 34.2854 17.2062 34.4101Z" fill="black"/>
<path d="M5.99788 26.5087C5.99794 26.6278 6.04007 26.7294 6.12429 26.8136C6.2085 26.8977 6.31014 26.9398 6.42921 26.9398C6.54828 26.9398 6.64992 26.8977 6.73414 26.8136C6.81835 26.7294 6.86049 26.6278 6.86054 26.5087C6.86049 26.3896 6.81835 26.288 6.73414 26.2038C6.64992 26.1197 6.54828 26.0776 6.42921 26.0776C6.31014 26.0776 6.2085 26.1197 6.12429 26.2038C6.04007 26.288 5.99794 26.3896 5.99788 26.5087ZM6.38545 26.0399L6.29794 26.0461C6.16514 26.0505 6.05054 26.0985 5.95412 26.1899L5.76659 26.3712C5.70697 26.4284 5.66113 26.4951 5.62906 26.5712L5.40402 27.1026C5.38849 27.1369 5.37599 27.1723 5.36651 27.2088L5.12896 28.2215C5.12275 28.2525 5.11859 28.2838 5.11646 28.3153L4.94143 29.9031C4.94071 29.9218 4.94071 29.9406 4.94143 29.9593L4.86016 32.041C4.85887 32.066 4.85887 32.091 4.86016 32.116L5.02269 34.4414C5.02473 34.4456 5.02681 34.4498 5.02895 34.454L5.23523 36.7106C5.23694 36.7211 5.23903 36.7315 5.24149 36.7419L5.56655 38.6235L5.72908 40.0363C5.74992 40.2238 5.8541 40.3072 6.04164 40.2863C6.22917 40.2655 6.31252 40.1613 6.29169 39.9738L6.1229 38.5672V36.6669L6.13541 34.4289L6.31044 32.1223C6.31052 32.116 6.31052 32.1098 6.31044 32.1035L6.41671 30.0344L6.55424 28.4653L6.67301 27.4526L6.76678 26.9338L6.82304 26.715L6.84804 26.64C6.8926 26.4874 6.86636 26.3482 6.76933 26.2223C6.6723 26.0964 6.54434 26.0356 6.38545 26.0399Z" fill="black"/>
<path d="M6.13541 26.2399C6.13541 26.3642 6.17935 26.4703 6.26724 26.5581C6.35512 26.646 6.46121 26.69 6.5855 26.69C6.70978 26.69 6.81587 26.646 6.90375 26.5581C6.99164 26.4703 7.03558 26.3642 7.03558 26.2399C7.03558 26.1156 6.99164 26.0095 6.90375 25.9216C6.81587 25.8337 6.70978 25.7898 6.5855 25.7898C6.46121 25.7898 6.35512 25.8337 6.26724 25.9216C6.17935 26.0095 6.13541 26.1156 6.13541 26.2399ZM6.09165 26.2399C6.09165 26.3711 6.13803 26.4831 6.2308 26.5758C6.32357 26.6686 6.43555 26.715 6.56674 26.715C6.69793 26.715 6.80991 26.6686 6.90268 26.5758C6.99545 26.4831 7.04183 26.3711 7.04183 26.2399C7.04183 26.1087 6.99545 25.9967 6.90268 25.9039C6.80991 25.8112 6.69793 25.7648 6.56674 25.7648C6.43555 25.7648 6.32357 25.8112 6.2308 25.9039C6.13803 25.9967 6.09165 26.1087 6.09165 26.2399ZM6.00413 26.0461L5.82285 26.3524C5.79241 26.4056 5.76949 26.4619 5.75409 26.5212L5.5603 27.2713C5.55207 27.3022 5.54582 27.3334 5.54155 27.3651L5.37276 28.5966C5.37002 28.6153 5.36793 28.634 5.36651 28.6528L5.26649 30.3907C5.26402 30.4052 5.26193 30.4198 5.26024 30.4344L5.24774 32.5348C5.24709 32.5536 5.24709 32.5723 5.24774 32.5911L5.38527 34.7728C5.38646 34.7937 5.38855 34.8145 5.39152 34.8353L5.67907 36.7731C5.68307 36.8028 5.68932 36.832 5.69783 36.8606L6.15416 38.2984L6.3292 39.3424C6.36263 39.5339 6.47514 39.6131 6.66673 39.5797C6.85832 39.5464 6.93751 39.434 6.90431 39.2424L6.72927 38.2172L6.83554 36.7294C6.83595 36.7169 6.83595 36.7044 6.83554 36.6919L6.8543 34.7352L6.87305 32.5473L6.89805 30.4594L6.96682 28.7466L7.04808 27.5214L7.1106 26.7525C7.11083 26.7421 7.11083 26.7316 7.1106 26.7212L7.1231 26.3649C7.13229 26.0537 6.98715 25.8554 6.68768 25.77C6.38822 25.6847 6.16037 25.7767 6.00413 26.0461Z" fill="black"/>
<path d="M7.92324 39.4548C7.92324 39.555 7.95864 39.6404 8.02944 39.7112C8.10023 39.782 8.18569 39.8174 8.28581 39.8174C8.38593 39.8174 8.47139 39.782 8.54219 39.7112C8.61298 39.6404 8.64838 39.555 8.64838 39.4548C8.64838 39.3547 8.61298 39.2693 8.54219 39.1985C8.47139 39.1277 8.38593 39.0923 8.28581 39.0923C8.18569 39.0923 8.10023 39.1277 8.02944 39.1985C7.95864 39.2693 7.92324 39.3547 7.92324 39.4548ZM7.91074 39.2923L7.87324 39.3673L7.82948 39.4423L7.77322 39.5048C7.6852 39.621 7.6604 39.7494 7.69883 39.8899C7.73726 40.0305 7.82391 40.1284 7.95878 40.1836C8.09365 40.2389 8.22408 40.2298 8.35006 40.1566C8.47605 40.0833 8.5484 39.9744 8.56712 39.8299V39.8112L8.58587 39.7799C8.59276 39.7677 8.59901 39.7552 8.60462 39.7424L8.64838 39.6549C8.73903 39.42 8.6714 39.2471 8.44548 39.136C8.21956 39.025 8.04131 39.0771 7.91074 39.2923ZM7.57318 39.8674C7.57318 40.0211 7.6275 40.1522 7.73613 40.2608C7.84477 40.3695 7.9759 40.4238 8.12953 40.4238C8.28317 40.4238 8.4143 40.3695 8.52294 40.2608C8.63157 40.1522 8.68589 40.0211 8.68589 39.8674C8.68589 39.7138 8.63157 39.5826 8.52294 39.474C8.4143 39.3654 8.28317 39.3111 8.12953 39.3111C7.9759 39.3111 7.84477 39.3654 7.73613 39.474C7.6275 39.5826 7.57318 39.7138 7.57318 39.8674ZM7.83573 40.5175L8.02326 40.6426C8.12417 40.7095 8.2346 40.7512 8.35458 40.7676L8.82967 40.8364C8.85458 40.8396 8.87958 40.8417 8.90468 40.8426L9.70483 40.8864C9.71314 40.8886 9.72147 40.8907 9.72984 40.8926L10.9113 40.9176L12.4679 40.9614L14.2244 41.0114L16.0185 41.0927C16.0248 41.0927 16.031 41.0927 16.0373 41.0927L17.6876 41.1177C17.7148 41.1172 17.7419 41.1151 17.7689 41.1114L19.1379 40.9801C19.1379 40.978 19.1379 40.976 19.1379 40.9739L20.1381 40.8676L20.7944 40.8926C20.9736 40.9009 21.0674 40.8155 21.0757 40.6363C21.0841 40.4571 20.9987 40.3633 20.8194 40.355L20.1568 40.33L19.1941 40.1175L17.8689 39.7799C17.8482 39.7748 17.8274 39.7706 17.8064 39.7674L16.1748 39.5048C16.1582 39.5022 16.1415 39.5002 16.1248 39.4986L14.337 39.3236C14.3182 39.3229 14.2995 39.3229 14.2807 39.3236L12.5179 39.2611C12.5137 39.261 12.5095 39.261 12.5054 39.2611L10.9426 39.2423L9.76735 39.2173L8.97344 39.2048L8.49835 39.186C8.43955 39.1837 8.3812 39.1879 8.32332 39.1985L8.09203 39.236C7.77612 39.2902 7.58673 39.4745 7.52387 39.7888C7.46101 40.1031 7.56496 40.346 7.83573 40.5175Z" fill="black"/>
<path d="M14.5308 39.7861C14.5308 39.8914 14.568 39.9813 14.6425 40.0558C14.717 40.1302 14.8068 40.1674 14.9121 40.1674C15.0174 40.1674 15.1073 40.1302 15.1818 40.0558C15.2562 39.9813 15.2935 39.8914 15.2935 39.7861C15.2935 39.6808 15.2562 39.5909 15.1818 39.5165C15.1073 39.442 15.0174 39.4048 14.9121 39.4048C14.8068 39.4048 14.717 39.442 14.6425 39.5165C14.568 39.5909 14.5308 39.6808 14.5308 39.7861ZM14.5058 39.7924C14.5058 39.9028 14.5449 39.9971 14.623 40.0753C14.7011 40.1534 14.7954 40.1924 14.9059 40.1924C15.0164 40.1924 15.1107 40.1534 15.1888 40.0753C15.2669 39.9971 15.306 39.9028 15.306 39.7924C15.306 39.6819 15.2669 39.5876 15.1888 39.5095C15.1107 39.4314 15.0164 39.3923 14.9059 39.3923C14.7954 39.3923 14.7011 39.4314 14.623 39.5095C14.5449 39.5876 14.5058 39.6819 14.5058 39.7924ZM14.4621 39.8236C14.4621 39.9427 14.5042 40.0444 14.5884 40.1286C14.6726 40.2128 14.7743 40.255 14.8934 40.255C15.0125 40.255 15.1142 40.2128 15.1984 40.1286C15.2826 40.0444 15.3247 39.9427 15.3247 39.8236C15.3247 39.7045 15.2826 39.6029 15.1984 39.5186C15.1142 39.4344 15.0125 39.3923 14.8934 39.3923C14.7743 39.3923 14.6726 39.4344 14.5884 39.5186C14.5042 39.6029 14.4621 39.7045 14.4621 39.8236ZM14.4183 40.0987L14.4871 40.2612C14.5513 40.4094 14.6554 40.5198 14.7996 40.5925L15.1872 40.7863C15.2469 40.8155 15.3094 40.8363 15.3747 40.8488L16.0999 40.9926C16.1226 40.9978 16.1455 41.002 16.1686 41.0051L17.1626 41.1176C17.1709 41.1178 17.1792 41.1178 17.1876 41.1176L18.4566 41.2176C18.4607 41.2177 18.4649 41.2177 18.4691 41.2176L19.9131 41.3052C19.9193 41.3052 19.9256 41.3052 19.9318 41.3052L21.4384 41.3677C21.4488 41.3679 21.4592 41.3679 21.4696 41.3677L22.9137 41.3614C22.9345 41.3623 22.9553 41.3623 22.9762 41.3614L24.2327 41.2551C24.2537 41.252 24.2745 41.2479 24.2952 41.2426L25.3079 41.0551C25.342 41.0499 25.3753 41.0415 25.4079 41.0301L26.1205 40.7488C26.1421 40.7422 26.1629 40.7339 26.183 40.7238L26.5956 40.4738L26.8769 40.3862C27.0181 40.3278 27.0657 40.2257 27.0197 40.0799C26.9737 39.9342 26.8761 39.8779 26.7269 39.9111L26.4643 39.9987L26.0017 39.9674C25.9955 39.9673 25.9892 39.9673 25.983 39.9674L25.2141 39.9612C25.2078 39.961 25.2016 39.961 25.1953 39.9612L24.1764 39.9799L22.9449 39.9487L21.5196 39.8549L20.0131 39.7549L18.5753 39.6548L17.3188 39.5548L16.3437 39.4548L15.6123 39.3673C15.604 39.3651 15.5956 39.363 15.5873 39.361L15.1559 39.3298C15.108 39.3246 15.0601 39.3246 15.0122 39.3298L14.8434 39.3548C14.6668 39.3778 14.5344 39.4666 14.4461 39.6212C14.3577 39.7757 14.3485 39.9349 14.4183 40.0987Z" fill="black"/>
<path d="M2.33467 12.4246C2.33467 12.5472 2.378 12.6518 2.46466 12.7385C2.55133 12.8251 2.65594 12.8685 2.7785 12.8685C2.90106 12.8685 3.00567 12.8251 3.09234 12.7385C3.179 12.6518 3.22233 12.5472 3.22233 12.4246C3.22233 12.3021 3.179 12.1975 3.09234 12.1108C3.00567 12.0241 2.90106 11.9808 2.7785 11.9808C2.65594 11.9808 2.55133 12.0241 2.46466 12.1108C2.378 12.1975 2.33467 12.3021 2.33467 12.4246ZM3.22859 12.4309V12.4184L3.23484 12.3684C3.21475 12.4143 3.20224 12.4622 3.19733 12.5121L3.22859 12.4496C3.26515 12.3672 3.27899 12.2811 3.2701 12.1913C3.26121 12.1016 3.23076 12.0198 3.17873 11.9462C3.12671 11.8725 3.05989 11.8164 2.97828 11.778C2.89666 11.7396 2.81089 11.7238 2.72096 11.7307C2.63102 11.7376 2.54864 11.7662 2.47381 11.8166C2.39898 11.8669 2.34145 11.9325 2.30122 12.0132C2.26099 12.0939 2.24329 12.1793 2.24814 12.2694C2.25299 12.3594 2.27975 12.4425 2.32841 12.5184L2.37217 12.5747C2.3595 12.5302 2.34074 12.4886 2.31591 12.4496L2.33467 12.5184C2.33942 12.5397 2.34567 12.5605 2.35342 12.5809L2.36592 12.6059C2.46286 12.8283 2.63023 12.9154 2.86802 12.8672C3.10582 12.8189 3.22601 12.6735 3.22859 12.4309ZM2.21589 11.9745L2.08462 12.2371C2.05935 12.2868 2.04059 12.3389 2.02836 12.3934L1.86583 13.1623C1.86091 13.1809 1.85675 13.1996 1.85332 13.2185L1.67829 14.5C1.67815 14.5084 1.67815 14.5167 1.67829 14.525L1.49701 16.2254C1.497 16.2274 1.497 16.2295 1.49701 16.2316L1.29697 18.2632C1.29677 18.2737 1.29677 18.2841 1.29697 18.2945L1.14694 20.5824C1.14691 20.5866 1.14691 20.5908 1.14694 20.5949L1.02817 23.0391C1.02816 23.0412 1.02816 23.0433 1.02817 23.0454L0.934399 25.5396C0.934368 25.5438 0.934368 25.548 0.934399 25.5521L0.878138 27.9463C0.878068 27.9526 0.878068 27.9588 0.878138 27.9651L0.871887 30.1217C0.873897 30.128 0.875981 30.1343 0.878138 30.1405L0.915646 32.0284C0.915575 32.0346 0.915575 32.0409 0.915646 32.0471L0.984409 33.6849C0.984338 33.6912 0.984338 33.6974 0.984409 33.7037L1.07818 35.1039C1.0791 35.129 1.08118 35.1541 1.08443 35.179L1.26571 36.3229C1.2749 36.3923 1.29365 36.459 1.32197 36.523L1.67829 37.2731C1.68414 37.2838 1.69039 37.2942 1.69704 37.3044L1.94709 37.7607L2.04086 38.0608C2.11982 38.2091 2.23968 38.2588 2.40043 38.2099C2.56118 38.1609 2.63303 38.0529 2.61597 37.8857L2.5347 37.6107L2.57846 37.1293L2.70349 36.3229C2.7109 36.2837 2.71506 36.2441 2.71599 36.2042L2.70349 35.0477C2.70361 35.0394 2.70361 35.031 2.70349 35.0227L2.64723 33.6099L2.57846 31.9846L2.54721 30.1155L2.55346 27.9776L2.60972 25.5959L2.69098 23.1079L2.78475 20.6699L2.90978 18.3883C2.90978 18.3862 2.90978 18.3841 2.90978 18.382L3.00979 16.3566L3.14107 14.6751L3.2911 13.4061C3.29351 13.3936 3.29559 13.3811 3.29735 13.3686L3.35361 12.5872C3.35678 12.5497 3.35678 12.5121 3.35361 12.4746L3.32235 12.1808C3.29109 11.8912 3.13225 11.7196 2.84583 11.6662C2.55942 11.6128 2.34944 11.7156 2.21589 11.9745Z" fill="black"/>
<path d="M2.47843 34.2038C2.47843 34.3229 2.52054 34.4245 2.60477 34.5088C2.68899 34.593 2.79065 34.6351 2.90976 34.6351C3.02887 34.6351 3.13054 34.593 3.21476 34.5088C3.29898 34.4245 3.3411 34.3229 3.3411 34.2038C3.3411 34.0847 3.29898 33.983 3.21476 33.8988C3.13054 33.8145 3.02887 33.7724 2.90976 33.7724C2.79065 33.7724 2.68899 33.8145 2.60477 33.8988C2.52054 33.983 2.47843 34.0847 2.47843 34.2038ZM2.75974 33.7724L2.69722 33.7912C2.54168 33.8397 2.42916 33.9376 2.35966 34.085L2.24089 34.335C2.22113 34.3792 2.20654 34.4251 2.19713 34.4726L2.09086 34.9539C2.08457 34.9849 2.08041 35.0161 2.07836 35.0477L2.02835 35.6915C2.02516 35.7144 2.02308 35.7373 2.02209 35.7603L2.0346 36.4729C2.03595 36.4918 2.03803 36.5105 2.04085 36.5292L2.10336 37.2293C2.10623 37.2546 2.11039 37.2796 2.11586 37.3044L2.25339 37.9732C2.26095 38.0115 2.27137 38.049 2.28464 38.0858L2.50344 38.6921C2.52593 38.7518 2.5551 38.8081 2.59095 38.8609L2.94727 39.4048C2.98918 39.47 3.03918 39.5284 3.0973 39.5798L3.6224 40.0299C3.66146 40.0628 3.70314 40.0919 3.74742 40.1174L4.43505 40.5175C4.4634 40.5337 4.49257 40.5483 4.52257 40.5612L5.36023 40.93C5.38474 40.9416 5.40975 40.9521 5.43524 40.9613L6.45419 41.2864C6.49098 41.2993 6.52849 41.3098 6.56671 41.3176L7.8232 41.5427C7.86853 41.5527 7.91437 41.5589 7.96073 41.5614L9.42976 41.5864C9.46741 41.5871 9.50492 41.585 9.54228 41.5802L11.1051 41.3801C11.1176 41.3785 11.1301 41.3764 11.1426 41.3739L12.7241 41.0613C12.7262 41.0613 12.7283 41.0613 12.7304 41.0613L14.0869 40.7863L15.1183 40.655C15.2574 40.6114 15.3181 40.5173 15.3004 40.3727C15.2828 40.228 15.2013 40.1513 15.0558 40.1424L14.0244 40.2674L12.6554 40.2799L11.0738 40.1987L9.52977 40.0424L8.1045 39.8736L6.93553 39.6423L6.01035 39.3422L5.25396 39.0047L4.65385 38.6671L4.23502 38.3358L3.94121 37.9732L3.71617 37.5356L3.55364 37.0106L3.48487 36.4042L3.45987 35.7416L3.47237 35.1164C3.47245 35.1102 3.47245 35.1039 3.47237 35.0977L3.46612 34.6038C3.46575 34.5766 3.46367 34.5495 3.45987 34.5226L3.42236 34.2475C3.40768 34.1418 3.36601 34.048 3.29734 33.9662L3.25358 33.9162C3.12041 33.7603 2.95579 33.7124 2.75974 33.7724Z" fill="black"/>
<path d="M30.615 11.5557L30.6901 11.9746L30.7776 12.6372L30.8776 13.3998L30.9714 14.1875C30.9714 14.1896 30.9714 14.1916 30.9714 14.1937L31.0714 14.9939L31.1526 15.8315L31.2214 16.7692L31.2902 17.8132L31.3402 18.9446L31.3902 20.1136L31.434 21.2888C31.434 21.2909 31.434 21.293 31.434 21.2951L31.484 22.4766C31.484 22.4807 31.484 22.4849 31.484 22.4891L31.5527 23.658C31.5526 23.6664 31.5526 23.6747 31.5527 23.683L31.6465 24.827C31.6465 24.8291 31.6465 24.8312 31.6465 24.8333L31.7465 25.9522L31.8465 27.0337L31.909 28.0714L31.9215 29.0591L31.9028 30.0092L31.859 30.9407L31.7965 31.8471C31.7965 31.8492 31.7965 31.8513 31.7965 31.8533L31.7403 32.7098C31.7403 32.7118 31.7403 32.7139 31.7403 32.716L31.6965 33.4849L31.6465 34.1538L31.5777 34.7476L31.4777 35.2602L31.3714 35.7103L31.2589 36.1167L31.1651 36.4167L31.0526 36.673L30.9214 36.9168L30.7588 37.1419L30.54 37.3606L30.2212 37.6169L29.7461 37.917L29.121 38.2733L28.3771 38.6234L27.527 38.9422L26.608 39.1985L25.7266 39.4048C25.7224 39.4048 25.7183 39.4048 25.7141 39.4048L25.0202 39.5736C24.9591 39.5894 24.9007 39.6123 24.8452 39.6423L24.7014 39.7111L24.5264 39.5611C24.3639 39.4235 24.2138 39.436 24.0763 39.5986C23.9388 39.7611 23.9513 39.9111 24.1138 40.0487L24.3764 40.2737L24.4514 40.5362C24.5167 40.7706 24.6604 40.9373 24.8827 41.0363L25.5391 41.3301C25.6983 41.4022 25.865 41.4314 26.0392 41.4177L26.9706 41.3427C27.0406 41.3368 27.1093 41.3243 27.1769 41.3051L28.1583 41.0301C28.1943 41.0215 28.2297 41.0111 28.2646 40.9988L29.1898 40.6363C29.2195 40.625 29.2487 40.6125 29.2773 40.5988L30.0899 40.1987C30.1243 40.1817 30.1576 40.163 30.19 40.1424L30.8588 39.7173C30.8823 39.7036 30.9052 39.6891 30.9276 39.6736L31.4402 39.2923C31.4617 39.2764 31.4825 39.2597 31.5027 39.2423L31.8965 38.8984C31.9227 38.8768 31.9477 38.8538 31.9716 38.8297L32.2779 38.4984C32.32 38.4518 32.3575 38.4018 32.3904 38.3483L32.6217 37.992C32.6428 37.9557 32.6615 37.9182 32.6779 37.8795L32.8467 37.5357C32.8608 37.5051 32.8733 37.4738 32.8842 37.4419L33.0093 37.0856C33.0139 37.069 33.018 37.0524 33.0218 37.0356L33.1343 36.6668C33.1367 36.6522 33.1388 36.6376 33.1405 36.623L33.253 36.1854C33.253 36.1833 33.253 36.1813 33.253 36.1792L33.3718 35.6916C33.3742 35.677 33.3763 35.6624 33.3781 35.6478L33.4843 35.079C33.4891 35.0603 33.4932 35.0416 33.4968 35.0227L33.5781 34.3726C33.5807 34.3539 33.5828 34.3351 33.5844 34.3163L33.6344 33.6162C33.6344 33.612 33.6344 33.6078 33.6344 33.6037L33.6781 32.8348L33.7344 31.9784L33.7969 31.0657C33.7969 31.0615 33.7969 31.0574 33.7969 31.0532L33.8532 30.103C33.8533 30.0926 33.8533 30.0822 33.8532 30.0718L33.8844 29.0903C33.8846 29.0799 33.8846 29.0695 33.8844 29.0591L33.8719 28.0276C33.8723 28.0109 33.8723 27.9943 33.8719 27.9776L33.8094 26.9024C33.8095 26.8941 33.8095 26.8857 33.8094 26.8774L33.7219 25.7834L33.6344 24.677L33.5656 23.5455L33.5093 22.389L33.4718 21.2201C33.4718 21.218 33.4718 21.2159 33.4718 21.2138L33.4281 20.0386L33.3906 18.8696L33.3531 17.7257L33.3218 16.663C33.322 16.6525 33.322 16.6421 33.3218 16.6317L33.2655 15.6815C33.2657 15.6711 33.2657 15.6607 33.2655 15.6503L33.1843 14.7813C33.1845 14.7688 33.1845 14.7563 33.1843 14.7438L33.0843 13.9374L32.9905 13.1435L32.903 12.3746C32.903 12.3684 32.903 12.3621 32.903 12.3559L32.803 11.662C32.8012 11.6474 32.7991 11.6328 32.7967 11.6182L32.7217 11.1744C32.669 10.8835 32.5213 10.6539 32.2784 10.4854C32.0355 10.317 31.7686 10.2591 31.4777 10.3117C31.1868 10.3644 30.9572 10.5122 30.7887 10.7551C30.6203 10.998 30.5624 11.2649 30.615 11.5557Z" fill="black"/>
<path d="M2.90346 11.8433L2.89095 11.837C2.7979 11.7686 2.6939 11.7402 2.57897 11.7518C2.46404 11.7634 2.36784 11.8121 2.29038 11.8978C2.21291 11.9835 2.17418 12.0841 2.17418 12.1996C2.17418 12.3151 2.21291 12.4157 2.29038 12.5014C2.36784 12.5871 2.46404 12.6358 2.57897 12.6474C2.6939 12.659 2.7979 12.6306 2.89095 12.5622L2.90346 12.5559C3.02293 12.4672 3.08266 12.3484 3.08266 12.1996C3.08266 12.0508 3.02293 11.932 2.90346 11.8433ZM2.11581 12.2059C2.11581 12.3388 2.1628 12.4522 2.25679 12.5462C2.35077 12.6402 2.46423 12.6872 2.59715 12.6872C2.73007 12.6872 2.84352 12.6402 2.93751 12.5462C3.03149 12.4522 3.07849 12.3388 3.07849 12.2059C3.07849 12.0729 3.03149 11.9595 2.93751 11.8655C2.84352 11.7715 2.73007 11.7245 2.59715 11.7245C2.46423 11.7245 2.35077 11.7715 2.25679 11.8655C2.1628 11.9595 2.11581 12.0729 2.11581 12.2059ZM2.05954 12.2121C2.05961 12.3536 2.10969 12.4744 2.20977 12.5744C2.30985 12.6744 2.43064 12.7245 2.57214 12.7245C2.71364 12.7245 2.83443 12.6744 2.93452 12.5744C3.0346 12.4744 3.08467 12.3536 3.08474 12.2121C3.08467 12.0706 3.0346 11.9498 2.93452 11.8498C2.83443 11.7498 2.71364 11.6998 2.57214 11.6998C2.43064 11.6998 2.30985 11.7498 2.20977 11.8498C2.10969 11.9498 2.05961 12.0706 2.05954 12.2121ZM1.99703 12.1934C1.99703 12.3487 2.05196 12.4813 2.16182 12.5912C2.27167 12.701 2.40428 12.756 2.55964 12.756C2.715 12.756 2.84761 12.701 2.95746 12.5912C3.06732 12.4813 3.12225 12.3487 3.12225 12.1934C3.12225 12.038 3.06732 11.9054 2.95746 11.7955C2.84761 11.6857 2.715 11.6307 2.55964 11.6307C2.40428 11.6307 2.27167 11.6857 2.16182 11.7955C2.05196 11.9054 1.99703 12.038 1.99703 12.1934ZM3.04723 12.5622L3.09724 12.4997C3.10589 12.4895 3.11422 12.4791 3.12225 12.4684L3.20976 12.3496L3.37855 12.1496L3.67235 11.8433L4.04742 11.4682C4.06482 11.4523 4.08149 11.4356 4.09743 11.4182L4.44125 11.0056C4.45203 10.9934 4.46245 10.9809 4.4725 10.9681L4.73505 10.6181C4.87488 10.4316 4.92831 10.2231 4.89535 9.99236C4.8624 9.76166 4.7527 9.5764 4.56627 9.43658C4.37984 9.29675 4.17128 9.24332 3.94058 9.27628C3.70988 9.30923 3.52462 9.41893 3.3848 9.60536L3.12225 9.95542C3.11358 9.9677 3.10524 9.98021 3.09724 9.99293L2.79719 10.4368C2.79077 10.445 2.78452 10.4533 2.77843 10.4618L2.50338 10.9119L2.25958 11.2807C2.25536 11.2848 2.2512 11.289 2.24708 11.2932L2.08455 11.5557C2.05945 11.5953 2.03862 11.6369 2.02204 11.6808L1.95953 11.8433C1.92479 11.9384 1.91229 12.0363 1.92202 12.1371L1.92827 12.2184C1.95273 12.5011 2.10059 12.6841 2.37185 12.7675C2.64311 12.8508 2.86824 12.7824 3.04723 12.5622Z" fill="black"/>
<path d="M25.9704 15.7565L25.9891 16.4504L26.0079 17.4881L26.0141 18.5821V19.6885L25.9954 20.8075L25.9766 21.8952C25.9766 21.8994 25.9766 21.9035 25.9766 21.9077L25.9704 22.9391C25.9703 22.9454 25.9703 22.9516 25.9704 22.9579L25.9766 23.8956C25.9763 23.9102 25.9763 23.9247 25.9766 23.9393L26.0204 24.7707C26.0201 24.7832 26.0201 24.7957 26.0204 24.8082L26.0829 25.5521C26.0829 25.5542 26.0829 25.5563 26.0829 25.5584L26.1516 26.2585L26.1891 26.9649L26.2016 27.715L26.2079 28.4839C26.2079 28.4881 26.2079 28.4923 26.2079 28.4964L26.2266 29.2466C26.2266 29.2549 26.2266 29.2633 26.2266 29.2716L26.2642 29.9967L26.2892 30.7094L26.3079 31.4095L26.3142 32.1034L26.2954 32.7723L26.2517 33.4036L26.1954 33.9725L26.1266 34.4851L26.0454 34.9789L25.9516 35.479L25.8578 35.9291L25.7766 36.3417L25.7141 36.6793C25.7119 36.6855 25.7098 36.6917 25.7078 36.698L25.664 36.9418L25.6265 37.1168L25.6015 37.2106L25.6078 37.1981L25.5953 37.2169L25.5203 37.3169L25.4327 37.4044L25.339 37.4857L25.2265 37.5482L24.9827 37.6544L24.5951 37.7982C24.5909 37.8003 24.5867 37.8024 24.5826 37.8045L24.0825 37.992C24.0804 37.9941 24.0783 37.9962 24.0762 37.9983L23.5699 38.192L23.1136 38.3608L22.7197 38.4858L22.3384 38.5671L21.8946 38.6484L21.3632 38.7421C21.357 38.7421 21.3507 38.7421 21.3445 38.7421L20.7819 38.8547L20.2255 38.9359L19.6566 38.9922L19.0753 39.036C19.0732 39.036 19.0711 39.036 19.069 39.036L18.4502 39.0922C18.4418 39.0921 18.4335 39.0921 18.4252 39.0922L17.7875 39.161L17.1749 39.2235L16.6373 39.2485L16.1435 39.2172L15.5996 39.136C15.5934 39.1359 15.5871 39.1359 15.5809 39.136L14.9933 39.0672C14.9704 39.0644 14.9475 39.0623 14.9245 39.061L14.3556 39.0297C14.3286 39.0265 14.3015 39.0244 14.2744 39.0234L13.7493 39.036C13.688 39.0383 13.6276 39.0467 13.568 39.061L13.1429 39.161C12.773 39.2516 12.5723 39.4867 12.5407 39.8661C12.509 40.2456 12.6681 40.5107 13.0179 40.6613L13.4242 40.83C13.4671 40.8458 13.5108 40.8583 13.5555 40.8676L14.0556 40.9926L14.6057 41.1301C14.6161 41.1323 14.6265 41.1344 14.6369 41.1364L15.2121 41.2676C15.2265 41.2721 15.2411 41.2763 15.2558 41.2801L15.8372 41.3801C15.8641 41.3853 15.8912 41.3895 15.9184 41.3926L16.5186 41.4552C16.5684 41.4606 16.6184 41.4627 16.6686 41.4614L17.2937 41.4427C17.3167 41.4413 17.3396 41.4392 17.3625 41.4364L18.0063 41.3739C18.0105 41.3739 18.0147 41.3739 18.0188 41.3739L18.6565 41.3051L19.2566 41.2489L19.8317 41.2051C19.8463 41.2054 19.8609 41.2054 19.8754 41.2051L20.4818 41.1364C20.4985 41.1346 20.5152 41.1326 20.5318 41.1301L21.1382 41.0363C21.1528 41.0345 21.1674 41.0325 21.1819 41.0301L21.7508 40.9176L22.2821 40.8238C22.2863 40.8238 22.2905 40.8238 22.2947 40.8238L22.7635 40.73C22.7781 40.7282 22.7927 40.7262 22.8072 40.7238L23.2448 40.6238C23.2743 40.6166 23.3035 40.6083 23.3323 40.5987L23.7949 40.455C23.8075 40.451 23.82 40.4469 23.8324 40.4425L24.3325 40.2612C24.3494 40.2553 24.366 40.2491 24.3825 40.2424L24.8826 40.0361L25.3702 39.8424L25.7828 39.6861C25.7933 39.6821 25.8037 39.6779 25.8141 39.6736L26.1391 39.536C26.1843 39.5181 26.228 39.4973 26.2704 39.4735L26.5267 39.3173C26.5821 39.2844 26.6342 39.2468 26.683 39.2047L26.8955 39.0234C26.9285 38.9961 26.9598 38.967 26.9893 38.9359L27.1518 38.7546C27.1693 38.7344 27.1859 38.7136 27.2018 38.6921L27.3331 38.5234C27.3552 38.4972 27.3761 38.4702 27.3956 38.4421L27.4831 38.2983C27.5169 38.2466 27.5461 38.1924 27.5707 38.1358L27.6332 37.9858C27.6503 37.945 27.6649 37.9033 27.6769 37.8607L27.7332 37.6794C27.738 37.6587 27.7421 37.6379 27.7457 37.6169L27.7957 37.3981C27.798 37.3857 27.8001 37.3732 27.8019 37.3606L27.852 37.0856C27.8541 37.0814 27.8562 37.0773 27.8582 37.0731L27.9145 36.7543L27.9895 36.3604L28.0895 35.9104C28.0917 35.9 28.0938 35.8895 28.0958 35.8791L28.1833 35.3665L28.2833 34.8477C28.2858 34.831 28.2878 34.8144 28.2895 34.7976L28.3646 34.2413C28.3669 34.2267 28.369 34.2122 28.3708 34.1975L28.4271 33.5974C28.4271 33.5912 28.4271 33.5849 28.4271 33.5787L28.4833 32.916C28.4836 32.9015 28.4836 32.8869 28.4833 32.8723L28.5146 32.1596C28.5149 32.1451 28.5149 32.1305 28.5146 32.1159L28.5208 31.3907C28.5188 31.3824 28.5168 31.3741 28.5146 31.3657L28.5021 30.6469C28.5022 30.6385 28.5022 30.6302 28.5021 30.6218L28.4646 29.8967L28.4396 29.1841L28.4208 28.4589L28.4146 27.6963C28.4146 27.69 28.4146 27.6838 28.4146 27.6775L28.4021 26.9086C28.4022 26.8982 28.4022 26.8878 28.4021 26.8774L28.3708 26.1272C28.369 26.1126 28.3669 26.098 28.3646 26.0835L28.3083 25.3646L28.2458 24.6457L28.2145 23.8518L28.1958 22.9391L28.202 21.9264L28.2208 20.845L28.2395 19.7198C28.2396 19.7135 28.2396 19.7073 28.2395 19.701V18.5758L28.2333 17.4756C28.2333 17.4693 28.2333 17.4631 28.2333 17.4568L28.2145 16.4066C28.2147 16.3941 28.2147 16.3816 28.2145 16.3691L28.1833 15.6753C28.1721 15.3697 28.0544 15.1129 27.8305 14.9048C27.6065 14.6967 27.3417 14.5982 27.0362 14.6094C26.7306 14.6206 26.4738 14.7382 26.2657 14.9622C26.0576 15.1862 25.9591 15.451 25.9704 15.7565ZM12.9929 39.5923L12.7178 39.536C12.5404 39.5131 12.4341 39.5894 12.399 39.7648C12.3639 39.9403 12.4327 40.0516 12.6053 40.0987L12.8804 40.1549C13.0578 40.1779 13.1641 40.1016 13.1992 39.9261C13.2343 39.7507 13.1655 39.6394 12.9929 39.5923Z" fill="black"/>
</g>
<defs>
<clipPath id="clip0_1_7212">
<rect width="43" height="42" fill="white"/>
</clipPath>
</defs>
</svg>
