<svg width="43" height="27" viewBox="0 0 43 27" fill="none" xmlns="http://www.w3.org/2000/svg">
<g clip-path="url(#clip0_1_7354)">
<path d="M3.20233 5.8557L3.20858 5.84945C3.22921 5.74044 3.20549 5.64213 3.1374 5.55453C3.06932 5.46693 2.97991 5.41968 2.86918 5.41277C2.75844 5.40585 2.66385 5.44162 2.5854 5.52007C2.50695 5.59853 2.47118 5.69312 2.47809 5.80385C2.485 5.91458 2.53226 6.00399 2.61986 6.07208C2.70746 6.14016 2.80577 6.16389 2.91478 6.14326L2.92103 6.13701C3.07789 6.10633 3.17166 6.01256 3.20233 5.8557ZM2.45844 5.76819C2.45844 5.87349 2.49567 5.96336 2.57013 6.03782C2.64459 6.11228 2.73446 6.14951 2.83976 6.14951C2.94506 6.14951 3.03494 6.11228 3.1094 6.03782C3.18386 5.96336 3.22109 5.87349 3.22109 5.76819C3.22109 5.66289 3.18386 5.57301 3.1094 5.49855C3.03494 5.42409 2.94506 5.38686 2.83976 5.38686C2.73446 5.38686 2.64459 5.42409 2.57013 5.49855C2.49567 5.57301 2.45844 5.66289 2.45844 5.76819ZM2.41468 5.76193C2.4448 6.00711 2.58337 6.12969 2.83039 6.12969C3.0774 6.12969 3.21597 6.00711 3.24609 5.76193C3.21597 5.51676 3.0774 5.39418 2.83039 5.39418C2.58337 5.39418 2.4448 5.51676 2.41468 5.76193ZM2.34592 5.66192L2.25215 5.90571C2.23205 5.95813 2.21954 6.01231 2.21464 6.06824L2.16463 6.66211C2.15929 6.71212 2.15929 6.76213 2.16463 6.81213L2.28966 7.80607C2.2921 7.83549 2.29627 7.86466 2.30216 7.89359L2.63973 9.2376C2.64656 9.26515 2.6549 9.29223 2.66473 9.31886L3.23359 10.8567C3.24451 10.8845 3.25701 10.9116 3.2711 10.9379L4.04624 12.4757C4.05961 12.4994 4.0742 12.5223 4.09 12.5445L4.99642 13.951C5.0081 13.9703 5.0206 13.9891 5.03393 14.0073L5.97161 15.195C5.99283 15.2215 6.01575 15.2465 6.04037 15.27L6.9593 16.1702C6.9865 16.1956 7.01567 16.2185 7.04681 16.2389L7.85947 16.7953C7.87544 16.8068 7.89211 16.8172 7.90948 16.8265L8.50959 17.1329L8.84716 17.4204C8.96801 17.5246 9.08053 17.5163 9.18472 17.3954C9.28891 17.2745 9.28057 17.162 9.15972 17.0578L8.83465 16.7765L8.49084 16.2014C8.48876 16.2014 8.48667 16.2014 8.48459 16.2014L7.97199 15.3638C7.96029 15.3465 7.94779 15.3298 7.93448 15.3138L7.16559 14.2823C7.16559 14.2802 7.16559 14.2781 7.16559 14.2761L6.27167 13.0946L5.40275 11.7443L4.66511 10.2753L4.11501 8.81252L3.76494 7.53102L3.5524 6.57459C3.55047 6.56622 3.54838 6.55788 3.54615 6.54958L3.39612 5.97448C3.39251 5.95973 3.38834 5.94514 3.38362 5.93072L3.30235 5.68067C3.22803 5.45238 3.07085 5.33588 2.8308 5.33117C2.59076 5.32646 2.42913 5.43671 2.34592 5.66192Z" fill="black"/>
<path d="M2.43343 6.21828C2.43343 6.40998 2.52928 6.50583 2.72098 6.50583C2.91269 6.50583 3.00854 6.40998 3.00854 6.21828C3.00854 6.02657 2.91269 5.93072 2.72098 5.93072C2.52928 5.93072 2.43343 6.02657 2.43343 6.21828ZM2.35216 6.23078C2.35216 6.33263 2.38817 6.41956 2.46019 6.49158C2.5322 6.56359 2.61914 6.5996 2.72098 6.5996C2.82283 6.5996 2.90976 6.56359 2.98178 6.49158C3.0538 6.41956 3.0898 6.33263 3.0898 6.23078C3.0898 6.12893 3.0538 6.042 2.98178 5.96998C2.90976 5.89797 2.82283 5.86196 2.72098 5.86196C2.61914 5.86196 2.5322 5.89797 2.46019 5.96998C2.38817 6.042 2.35216 6.12893 2.35216 6.23078ZM2.43343 5.97448L2.36467 6.04324C2.2937 6.11092 2.24577 6.19219 2.22089 6.28704L2.15212 6.54334C2.13706 6.60286 2.13081 6.66328 2.13337 6.72462L2.14587 7.23097C2.14702 7.28162 2.15327 7.33163 2.16463 7.381L2.34591 8.13739C2.35283 8.16492 2.36116 8.19201 2.37092 8.21866L2.72723 9.2251C2.73627 9.25272 2.74669 9.27981 2.75849 9.30637L3.3086 10.4878C3.31818 10.5091 3.32859 10.5299 3.33985 10.5504L4.07749 11.8318C4.08913 11.8532 4.10163 11.874 4.115 11.8944L5.00892 13.2009C5.02259 13.2223 5.03718 13.2432 5.05268 13.2634L6.08412 14.5074C6.11098 14.5408 6.14016 14.572 6.17164 14.6011L7.34686 15.6638C7.40367 15.7141 7.46619 15.7557 7.5344 15.7889L8.8534 16.439C8.88738 16.4571 8.9228 16.4717 8.95967 16.4827L10.1662 16.7953L11.0601 17.2079C11.1932 17.2441 11.2885 17.1995 11.3459 17.074C11.4032 16.9485 11.3747 16.8473 11.2601 16.7703L10.3849 16.3702L9.52228 15.5138L8.49708 14.4636C8.49501 14.4615 8.49293 14.4594 8.49083 14.4573L7.39687 13.3696L6.42794 12.1819L5.57153 10.9317L4.86514 9.70644L4.30879 8.58123L3.8837 7.6248L3.57115 6.90591C3.5633 6.89104 3.55497 6.87645 3.54614 6.86215L3.31485 6.41206C3.31079 6.40574 3.30662 6.39949 3.30234 6.39331L3.17107 6.16202C3.14565 6.11782 3.11439 6.07823 3.0773 6.04324L3.00854 5.97448C2.92783 5.89827 2.83198 5.86017 2.72098 5.86017C2.60998 5.86017 2.51413 5.89827 2.43343 5.97448Z" fill="black"/>
<path d="M7.26559 15.9201C7.26559 16.0168 7.29977 16.0993 7.36813 16.1676C7.43648 16.236 7.51899 16.2702 7.61566 16.2702C7.71233 16.2702 7.79484 16.236 7.8632 16.1676C7.93155 16.0993 7.96573 16.0168 7.96573 15.9201C7.96573 15.8234 7.93155 15.7409 7.8632 15.6726C7.79484 15.6042 7.71233 15.57 7.61566 15.57C7.51899 15.57 7.43648 15.6042 7.36813 15.6726C7.29977 15.7409 7.26559 15.8234 7.26559 15.9201ZM7.25309 15.9263C7.25319 16.0281 7.28924 16.115 7.36124 16.1869C7.43325 16.2588 7.52014 16.2948 7.62191 16.2948C7.72369 16.2948 7.81058 16.2588 7.88258 16.1869C7.95458 16.115 7.99063 16.0281 7.99073 15.9263C7.99063 15.8246 7.95458 15.7377 7.88258 15.6658C7.81058 15.5938 7.72369 15.5579 7.62191 15.5579C7.52014 15.5579 7.43325 15.5938 7.36124 15.6658C7.28924 15.7377 7.25319 15.8246 7.25309 15.9263ZM7.23434 16.0076L7.24059 16.0639C7.25046 16.1394 7.27755 16.2082 7.32186 16.2702L7.39687 16.3764C7.40837 16.3938 7.42087 16.4105 7.43438 16.4264L7.5719 16.5765C7.62519 16.6364 7.6877 16.6843 7.75944 16.7202L8.10951 16.889C8.17278 16.9219 8.23945 16.9448 8.30954 16.9578L8.94091 17.0578C8.95951 17.0627 8.97826 17.0668 8.99717 17.0703L9.88484 17.1516C9.89109 17.1516 9.89735 17.1516 9.9036 17.1516L11.0788 17.2391L12.5353 17.3454L14.2482 17.5079L16.1798 17.6954L18.2427 17.9017C18.2448 17.9017 18.2469 17.9017 18.2489 17.9017L20.3868 18.0955C20.391 18.0956 20.3952 18.0956 20.3993 18.0955L22.5623 18.258C22.5727 18.2582 22.5831 18.2582 22.5935 18.258L24.7564 18.3393C24.7648 18.3394 24.7731 18.3394 24.7814 18.3393L26.9256 18.3581C26.9381 18.3562 26.9506 18.3542 26.9631 18.3518L29.0635 18.283C29.0697 18.2831 29.076 18.2831 29.0822 18.283L31.1139 18.1643C31.1223 18.1623 31.1306 18.1602 31.1389 18.158L33.0518 17.9892C33.0601 17.9873 33.0685 17.9852 33.0768 17.983L34.8333 17.7767C34.865 17.7722 34.8962 17.766 34.9271 17.7579L36.4336 17.3954C36.4767 17.3849 36.5184 17.3703 36.5587 17.3516L37.7339 16.8015L38.7028 16.3952L39.4092 16.1639C39.549 16.1089 39.5952 16.0102 39.5477 15.8677C39.5002 15.7251 39.404 15.6739 39.2592 15.7138L38.5653 15.9451L37.5651 16.0826L36.2899 16.0514C36.2732 16.0507 36.2565 16.0507 36.2399 16.0514L34.6958 16.1264C34.6791 16.1259 34.6625 16.1259 34.6458 16.1264L32.8955 16.3139L31.0014 16.4764L28.9947 16.5952L26.9131 16.6702L24.8002 16.6765L22.6748 16.5952L20.5306 16.4327L18.399 16.2389L16.3423 16.0451L14.4107 15.8451L12.6854 15.6825C12.675 15.6823 12.6645 15.6823 12.6541 15.6825L11.1913 15.5888C11.183 15.5886 11.1747 15.5886 11.1663 15.5888L9.98486 15.5513C9.97861 15.5512 9.97236 15.5512 9.96611 15.5513L9.07844 15.545L8.44707 15.5263C8.43665 15.526 8.42623 15.526 8.41581 15.5263L8.02199 15.5325C8.00314 15.5337 7.98439 15.5358 7.96573 15.5388L7.8032 15.5513H7.72193C7.71568 15.5511 7.70943 15.5511 7.70318 15.5513H7.64692C7.52292 15.5484 7.41934 15.593 7.33616 15.685C7.25298 15.777 7.21904 15.8845 7.23434 16.0076Z" fill="black"/>
<path d="M41.6658 5.78694C41.6658 5.98698 41.7658 6.087 41.9659 6.087C42.1659 6.087 42.2659 5.98698 42.2659 5.78694C42.2659 5.5869 42.1659 5.48689 41.9659 5.48689C41.7658 5.48689 41.6658 5.5869 41.6658 5.78694ZM41.6095 5.78069C41.6095 5.87909 41.6443 5.96307 41.7139 6.03265C41.7835 6.10222 41.8675 6.13701 41.9659 6.13701C42.0643 6.13701 42.1482 6.10222 42.2178 6.03265C42.2874 5.96307 42.3222 5.87909 42.3222 5.78069C42.3222 5.6823 42.2874 5.59831 42.2178 5.52874C42.1482 5.45916 42.0643 5.42437 41.9659 5.42437C41.8675 5.42437 41.7835 5.45916 41.7139 5.52874C41.6443 5.59831 41.6095 5.6823 41.6095 5.78069ZM41.522 5.76819C41.522 5.88557 41.5635 5.98576 41.6465 6.06877C41.7295 6.15177 41.8297 6.19327 41.9471 6.19327C42.0645 6.19327 42.1647 6.15177 42.2477 6.06877C42.3307 5.98576 42.3722 5.88557 42.3722 5.76819C42.3722 5.65081 42.3307 5.55061 42.2477 5.46761C42.1647 5.38461 42.0645 5.34311 41.9471 5.34311C41.8297 5.34311 41.7295 5.38461 41.6465 5.46761C41.5635 5.55061 41.522 5.65081 41.522 5.76819ZM41.6158 5.39937L41.5095 5.48689C41.4581 5.52539 41.4143 5.57123 41.3782 5.62441L41.1907 5.90571C41.1569 5.95431 41.1298 6.0064 41.1094 6.06199L40.8969 6.67461C40.8969 6.67669 40.8969 6.67878 40.8969 6.68086L40.5781 7.62479L40.128 8.85628L39.5717 10.269L38.9965 11.6443L38.5027 12.8695C38.4985 12.8737 38.4943 12.8778 38.4902 12.882L38.1214 13.8697C38.1169 13.8821 38.1127 13.8946 38.1089 13.9072L37.8776 14.6324C37.8645 14.6774 37.8562 14.7232 37.8526 14.7699L37.8026 15.2325C37.7979 15.2636 37.7958 15.2948 37.7963 15.3263L37.8088 15.5325C37.8366 15.656 37.9025 15.7538 38.0064 15.826C38.1104 15.8982 38.225 15.9257 38.3504 15.9086C38.4758 15.8915 38.5789 15.8343 38.6597 15.7369C38.7405 15.6395 38.7778 15.5277 38.7715 15.4013V15.3825L38.784 15.0575C38.7843 15.0491 38.7843 15.0408 38.784 15.0325L38.7715 14.3823L38.959 13.7009C38.996 13.5679 38.948 13.4827 38.8151 13.4453C38.6821 13.4079 38.5968 13.4556 38.559 13.5884L38.3714 14.2761L38.0401 14.8324C38.0306 14.8485 38.0223 14.8652 38.0151 14.8824L37.8651 15.245C37.8546 15.2693 37.8463 15.2943 37.8401 15.32L37.8213 15.4013C37.7681 15.6452 37.8525 15.8243 38.0745 15.9386C38.2965 16.0529 38.4913 16.0176 38.659 15.8326L38.7965 15.6763C38.8198 15.6511 38.8406 15.624 38.859 15.5951L39.1091 15.2012C39.1231 15.177 39.1356 15.152 39.1466 15.1262L39.4654 14.4323C39.4676 14.4261 39.4696 14.4199 39.4716 14.4136L39.8905 13.4447C39.8905 13.4426 39.8905 13.4405 39.8905 13.4384L40.3968 12.2194L40.9719 10.8442C40.9741 10.8379 40.9762 10.8317 40.9782 10.8254L41.5408 9.40013C41.5429 9.39391 41.545 9.38765 41.547 9.38138L41.9909 8.12489C41.9952 8.11663 41.9994 8.10829 42.0034 8.09988L42.3034 7.14345C42.3141 7.11069 42.3224 7.07735 42.3284 7.04343L42.441 6.40581C42.4495 6.35188 42.4516 6.2977 42.4472 6.24328L42.4284 5.91197C42.4267 5.90149 42.4246 5.89107 42.4222 5.88071L42.4097 5.74944C42.3894 5.55737 42.2909 5.42237 42.1141 5.34444C41.9374 5.26652 41.7713 5.28483 41.6158 5.39937Z" fill="black"/>
<path d="M41.5158 7.91239L41.5658 7.77486L41.6283 7.7061C41.6562 7.6716 41.6791 7.63409 41.6971 7.59358L41.7658 7.4498C41.8123 7.35606 41.8325 7.25696 41.8266 7.15251C41.8207 7.04806 41.7894 6.95189 41.7326 6.864C41.6759 6.77611 41.6011 6.70797 41.5084 6.65959C41.4156 6.61121 41.3169 6.5889 41.2124 6.59265C41.1078 6.59641 41.011 6.62574 40.922 6.68066C40.8329 6.73557 40.7633 6.8089 40.713 6.90063C40.6627 6.99237 40.6383 7.09054 40.6399 7.19515C40.6415 7.29975 40.6688 7.39714 40.7219 7.48731L40.7969 7.62483C40.8081 7.64442 40.8206 7.66317 40.8344 7.68109L40.8782 7.73735L40.9032 7.86238C40.9334 8.02137 41.0291 8.10745 41.1904 8.12062C41.3517 8.13379 41.4602 8.06438 41.5158 7.91239ZM40.5531 6.9247L40.3718 7.31852C40.3513 7.3608 40.3346 7.40456 40.3218 7.4498L40.078 8.36247C40.0779 8.36664 40.0779 8.37081 40.078 8.37497L39.7592 9.69398L39.3716 11.213L38.9715 12.7196C38.9667 12.7382 38.9625 12.7569 38.959 12.7758L38.7027 14.1198C38.696 14.1528 38.6919 14.1862 38.6902 14.2198L38.6527 15.2388L38.5527 15.9202L38.4027 16.3327C38.3485 16.4869 38.3985 16.5911 38.5527 16.6453C38.7069 16.6995 38.8111 16.6495 38.8653 16.4953L39.0153 16.0827L39.3466 15.4638L39.9092 14.6074C39.9316 14.5717 39.9503 14.5342 39.9655 14.4949L40.4843 13.2321C40.4965 13.2036 40.5069 13.1744 40.5156 13.1446L40.9407 11.6381C40.9428 11.6319 40.9449 11.6256 40.9469 11.6193L41.3345 10.0878C41.3366 10.0857 41.3387 10.0836 41.3407 10.0815L41.6596 8.7563C41.6596 8.75421 41.6596 8.75213 41.6596 8.75005L41.8658 7.83112C41.8748 7.79406 41.8811 7.75656 41.8846 7.7186L41.9159 7.28727C41.9268 7.11612 41.8822 6.96094 41.782 6.82172C41.6819 6.6825 41.549 6.59084 41.3833 6.54675C41.2175 6.50266 41.0566 6.51614 40.9006 6.5872C40.7445 6.65825 40.6287 6.77075 40.5531 6.9247Z" fill="black"/>
<path d="M3.17727 8.39993C3.17727 8.5833 3.26896 8.67498 3.45232 8.67498C3.63569 8.67498 3.72738 8.5833 3.72738 8.39993C3.72738 8.21656 3.63569 8.12488 3.45232 8.12488C3.26896 8.12488 3.17727 8.21656 3.17727 8.39993ZM3.81489 8.41869L3.82114 8.33742C3.82204 8.32283 3.82204 8.30825 3.82114 8.29366V8.09362C3.82022 8.07681 3.81814 8.06014 3.81489 8.04361L3.75863 7.6873C3.75684 7.67889 3.75476 7.67055 3.75238 7.66229L3.62111 7.09343C3.61919 7.08713 3.61711 7.08088 3.61486 7.07468L3.39606 6.29328L3.15227 5.36811L2.90847 4.35541C2.90669 4.347 2.90461 4.33867 2.90222 4.33041L2.63342 3.47399L2.5209 2.79262C2.47738 2.66196 2.3876 2.60737 2.25157 2.62885C2.11554 2.65032 2.04695 2.72992 2.04581 2.86763L2.15208 3.55526L2.20834 4.45543C2.20893 4.47435 2.21101 4.4931 2.21459 4.51169L2.43963 5.53064C2.43956 5.5348 2.43956 5.53897 2.43963 5.54314L2.68343 6.48707C2.68341 6.48915 2.68341 6.49124 2.68343 6.49332L2.90222 7.26847L3.03975 7.82482L3.10226 8.14363L3.10851 8.29991L3.10226 8.36243C3.09449 8.46082 3.12265 8.54755 3.18673 8.62262C3.25081 8.69769 3.33205 8.73911 3.43045 8.74687C3.52884 8.75464 3.61557 8.72648 3.69064 8.6624C3.76571 8.59832 3.80713 8.51708 3.81489 8.41869Z" fill="black"/>
<path d="M2.80851 9.03127V9.01251C2.81147 8.99805 2.81355 8.98347 2.81476 8.96875V8.90624L2.82726 8.74996C2.82727 8.74788 2.82727 8.7458 2.82726 8.74371L2.85226 8.4374C2.85582 8.41462 2.85791 8.3917 2.85852 8.36864L2.83976 7.9123C2.83952 7.88507 2.83744 7.85798 2.83351 7.83104L2.73349 7.22467C2.7335 7.22259 2.7335 7.2205 2.73349 7.21842L2.59597 6.44327L2.43344 5.5306L2.28341 4.58042L2.17089 3.72401L2.12088 3.01762L2.08337 2.46752C2.08162 2.45703 2.07954 2.44661 2.07712 2.43626L2.02711 2.08619V1.8424C2.02718 1.83823 2.02718 1.83406 2.02711 1.8299L2.01461 1.66111C2.01312 1.63566 2.00895 1.61066 2.0021 1.5861L1.9771 1.49233C1.95811 1.39739 1.90834 1.32306 1.82777 1.26936C1.74721 1.21565 1.65946 1.19829 1.56452 1.21728C1.46958 1.23627 1.39525 1.28604 1.34155 1.3666C1.28784 1.44716 1.27048 1.53492 1.28947 1.62986L1.29572 1.69237V1.80489L1.25196 2.00493L1.12694 2.32999C1.11552 2.36042 1.10718 2.39168 1.10193 2.42376L1.01442 2.96761C1.01064 2.99248 1.00855 3.01748 1.00816 3.04263L0.98941 3.76776C0.990599 3.78662 0.992683 3.80537 0.995662 3.82402L1.05817 4.71169C1.05958 4.72845 1.06166 4.74512 1.06442 4.7617L1.2082 5.72439C1.20816 5.72855 1.20816 5.73272 1.2082 5.73689L1.37073 6.65581C1.37277 6.66 1.37485 6.66417 1.37698 6.66832L1.52076 7.43721C1.52267 7.44559 1.52475 7.45393 1.52701 7.46222L1.66454 8.06233C1.66815 8.07708 1.67232 8.09166 1.67704 8.10609L1.80832 8.54367C1.81374 8.56065 1.81999 8.57732 1.82707 8.59368L1.95209 8.88749C1.96061 8.91128 1.97103 8.9342 1.98335 8.95625L2.08337 9.10003C2.08914 9.11074 2.09539 9.12116 2.10212 9.13129L2.15838 9.20005C2.20578 9.26062 2.2662 9.3023 2.33967 9.32507L2.35842 9.33132C2.46395 9.36338 2.5626 9.34883 2.65437 9.28765C2.74613 9.22647 2.79751 9.14101 2.80851 9.03127ZM1.7083 1.3548L1.68329 1.3423C1.55831 1.2799 1.46458 1.31118 1.4021 1.43613C1.33963 1.56108 1.37085 1.65482 1.49576 1.71737L1.52076 1.72988C1.64575 1.79228 1.73948 1.761 1.80195 1.63605C1.86443 1.5111 1.83321 1.41735 1.7083 1.3548Z" fill="black"/>
<path d="M1.19566 1.37984C1.19566 1.56321 1.28735 1.65489 1.47072 1.65489C1.65408 1.65489 1.74577 1.56321 1.74577 1.37984C1.74577 1.19647 1.65408 1.10479 1.47072 1.10479C1.28735 1.10479 1.19566 1.19647 1.19566 1.37984ZM1.68326 1.06103L1.63325 1.01102L1.58324 0.967262C1.50861 1.13567 1.53778 1.28362 1.67075 1.4111L1.68326 1.39234C1.73229 1.28617 1.73617 1.17836 1.6949 1.06894C1.65363 0.959507 1.57952 0.881119 1.47258 0.83377C1.36564 0.786421 1.25779 0.784246 1.14903 0.827245C1.04027 0.870243 0.963063 0.94558 0.917412 1.05326C0.871761 1.16093 0.871293 1.2688 0.916007 1.37687C0.960721 1.48494 1.03727 1.56094 1.14565 1.60488L1.17066 1.61113C1.14008 1.58747 1.10674 1.56872 1.07064 1.55487L1.12065 1.59238L1.17066 1.63614C1.35923 1.76996 1.53044 1.75057 1.68429 1.57795C1.83815 1.40533 1.8378 1.23303 1.68326 1.06103ZM1.15816 1.61113L1.20817 1.62989C1.21025 1.6299 1.21233 1.6299 1.21442 1.62989L1.29568 1.66114L1.49572 1.75491C1.49779 1.75701 1.49987 1.7591 1.50197 1.76116L2.28337 2.10498L2.74596 2.31127C2.7501 2.31341 2.75427 2.31549 2.75846 2.31752L3.2023 2.50505C3.20438 2.50507 3.20646 2.50507 3.20855 2.50505L3.58987 2.66133L3.90868 2.79261C3.93711 2.80354 3.96628 2.81188 3.9962 2.81761L4.2525 2.87388C4.30837 2.88626 4.36464 2.88834 4.42128 2.88013L4.59006 2.85512C4.64896 2.84657 4.70314 2.82573 4.75259 2.79261L4.8026 2.7551C4.89787 2.68973 4.94999 2.59945 4.95895 2.48426C4.9679 2.36906 4.93038 2.27181 4.84636 2.1925L4.7901 2.14249C4.73447 2.08765 4.66779 2.05639 4.59006 2.04872H4.57131L4.52755 2.01121C4.41638 1.92808 4.31363 1.93744 4.21932 2.0393C4.125 2.14116 4.12356 2.24432 4.21499 2.34878L4.31501 2.44254C4.3183 2.3704 4.2933 2.30998 4.23999 2.26126L4.23374 2.36128C4.23372 2.36336 4.23372 2.36545 4.23374 2.36753V2.44254C4.34531 2.47039 4.44709 2.44981 4.53908 2.38082C4.63107 2.31183 4.67932 2.21988 4.68383 2.10498L4.62132 2.08623C4.66846 2.12846 4.72264 2.15763 4.78385 2.17374L4.65882 2.06122C4.63918 2.04493 4.61834 2.03035 4.59631 2.01746L4.37127 1.87994C4.3493 1.86568 4.32638 1.85317 4.3025 1.84243L3.98369 1.71115C3.98161 1.71114 3.97953 1.71114 3.97744 1.71115L3.60237 1.55487L3.15854 1.36734L2.69595 1.1673C2.69387 1.16729 2.69178 1.16729 2.6897 1.1673L1.90205 0.835987C1.88776 0.829049 1.87317 0.822798 1.85829 0.817234L1.63325 0.742219C1.60261 0.732888 1.57135 0.726637 1.53948 0.723466L1.42696 0.710963C1.31298 0.700399 1.20879 0.727487 1.1144 0.792229L1.07064 0.817234C0.919156 0.918476 0.853396 1.05965 0.87336 1.24076C0.893325 1.42186 0.988257 1.54532 1.15816 1.61113Z" fill="black"/>
<path d="M3.41483 1.71741C3.41483 1.8158 3.44961 1.89979 3.51919 1.96936C3.58876 2.03894 3.67275 2.07373 3.77114 2.07373C3.86954 2.07373 3.95352 2.03894 4.0231 1.96936C4.09267 1.89979 4.12746 1.8158 4.12746 1.71741C4.12746 1.61902 4.09267 1.53503 4.0231 1.46545C3.95352 1.39588 3.86954 1.36109 3.77114 1.36109C3.67275 1.36109 3.58876 1.39588 3.51919 1.46545C3.44961 1.53503 3.41483 1.61902 3.41483 1.71741ZM3.41483 1.75492V1.77992C3.41646 1.79043 3.41854 1.80085 3.42108 1.81118L3.43358 1.86744C3.44018 1.90691 3.45268 1.94442 3.47109 1.97996L3.50859 2.04872L3.5461 2.12374L3.59611 2.27377L3.67738 2.49881L3.74614 2.78011L3.80865 3.11143L3.82115 3.49275L3.76489 3.91158L3.70238 4.36166L3.63987 4.76799C3.63645 4.79925 3.63645 4.8305 3.63987 4.86176L3.67738 5.46187L3.64612 5.64316C3.63021 5.79359 3.69635 5.884 3.84454 5.9144C3.99272 5.94479 4.08911 5.88772 4.13371 5.74318L4.17122 5.56814L4.45252 5.03054C4.47187 4.99708 4.48646 4.96165 4.49628 4.92427L4.5838 4.52419C4.5866 4.50971 4.58868 4.49512 4.59005 4.48044L4.65256 4.03035C4.65403 4.00951 4.65403 3.98868 4.65256 3.96784L4.64631 3.50525C4.64656 3.49692 4.64656 3.48858 4.64631 3.48025L4.6088 3.03641C4.60959 3.02182 4.60959 3.00724 4.6088 2.99265L4.53379 2.61758C4.53212 2.60708 4.53004 2.59666 4.52754 2.58632L4.44627 2.28002C4.44272 2.26731 4.43856 2.25481 4.43377 2.24251L4.34 2.00496C4.33613 1.99648 4.33196 1.98815 4.3275 1.97996L4.25249 1.81118C4.25056 1.80487 4.24848 1.79862 4.24623 1.79242L4.18997 1.6924C4.18611 1.68392 4.18194 1.67558 4.17747 1.6674L4.13371 1.59864C4.12796 1.58792 4.12171 1.5775 4.11496 1.56738L4.07745 1.51737C4.06409 1.50156 4.04951 1.48697 4.03369 1.47361L4.01494 1.45486C3.89409 1.33921 3.75885 1.31878 3.60924 1.39359C3.45962 1.4684 3.39482 1.58884 3.41483 1.75492Z" fill="black"/>
<path d="M3.6149 4.25534L3.59615 4.3116L3.53989 4.46163C3.53765 4.46783 3.53556 4.47408 3.53364 4.48038L3.45862 4.70543C3.45612 4.71576 3.45404 4.72618 3.45237 4.73668L3.38986 5.01174C3.3711 5.09873 3.38152 5.18208 3.42112 5.26178L3.48363 5.39306L3.45862 5.54934C3.43362 5.6952 3.49405 5.78063 3.63991 5.80564C3.78577 5.83064 3.8712 5.77021 3.89621 5.62435L3.92121 5.47432L4.02748 5.3743C4.07389 5.33057 4.10723 5.27848 4.1275 5.21802L4.21502 4.94922C4.21962 4.93898 4.22379 4.92856 4.22752 4.91797L4.28378 4.68667C4.2867 4.67221 4.28878 4.65762 4.29003 4.64291L4.30879 4.48664C4.31187 4.45091 4.30978 4.41548 4.30253 4.38036L4.29628 4.31785C4.26231 4.14286 4.15657 4.04722 3.97905 4.03093C3.80153 4.01465 3.68015 4.08945 3.6149 4.25534Z" fill="black"/>
<path d="M2.06454 4.52414C2.06454 4.62426 2.09994 4.70972 2.17074 4.78052C2.24153 4.85131 2.32699 4.88671 2.42711 4.88671C2.52723 4.88671 2.61269 4.85131 2.68349 4.78052C2.75428 4.70972 2.78968 4.62426 2.78968 4.52414C2.78968 4.42402 2.75428 4.33856 2.68349 4.26777C2.61269 4.19697 2.52723 4.16157 2.42711 4.16157C2.32699 4.16157 2.24153 4.19697 2.17074 4.26777C2.09994 4.33856 2.06454 4.42402 2.06454 4.52414ZM2.00828 4.52414C2.00828 4.63462 2.04734 4.72892 2.12546 4.80704C2.20358 4.88516 2.29788 4.92422 2.40836 4.92422C2.51884 4.92422 2.61313 4.88516 2.69125 4.80704C2.76937 4.72892 2.80843 4.63462 2.80843 4.52414C2.80843 4.41367 2.76937 4.31937 2.69125 4.24125C2.61313 4.16313 2.51884 4.12407 2.40836 4.12407C2.29788 4.12407 2.20358 4.16313 2.12546 4.24125C2.04734 4.31937 2.00828 4.41367 2.00828 4.52414ZM2.19582 4.0303L2.14581 4.0428C1.98313 4.0922 1.86256 4.19231 1.78408 4.34312C1.70561 4.49394 1.69283 4.65013 1.74573 4.8117L1.80824 4.99298C1.83986 5.0909 1.89195 5.17634 1.96452 5.24928L2.25208 5.53684C2.30417 5.58726 2.36252 5.62894 2.42711 5.66186L3.18976 6.06819C3.22983 6.0905 3.27151 6.10925 3.31478 6.12445L4.64003 6.55578C4.67079 6.56598 4.70205 6.57432 4.7338 6.58078L6.50914 6.91835C6.53184 6.92372 6.55476 6.92788 6.5779 6.93085L8.51577 7.09338L10.3474 7.34968L11.8039 7.64349C11.9421 7.65073 12.024 7.58638 12.0497 7.45043C12.0755 7.31447 12.0227 7.22463 11.8914 7.1809L10.4411 6.88709L8.6783 6.387L6.89046 5.64311C6.88221 5.63876 6.87388 5.6346 6.86546 5.6306L5.16513 5.01799C5.1548 5.0136 5.14438 5.00944 5.13388 5.00548L3.80862 4.58666C3.80654 4.58665 3.80446 4.58665 3.80237 4.58666L3.00847 4.34286L2.80218 4.26159L2.81469 4.2741V4.26784C2.6704 4.02713 2.46411 3.94795 2.19582 4.0303Z" fill="black"/>
<path d="M6.6279 5.29929L6.59039 5.26178C6.55102 5.22374 6.50518 5.19665 6.45286 5.18051L6.37785 5.16176L6.34659 5.14301L6.31534 5.11175C6.18798 5.14532 6.10575 5.2253 6.06866 5.35168C6.03157 5.47806 6.05753 5.58979 6.14656 5.68686L6.19657 5.67436C6.11119 5.63814 6.02367 5.63189 5.93402 5.6556L6.0903 5.72437C6.11055 5.73416 6.13139 5.7425 6.15281 5.74937L6.57164 5.85564L7.29678 6.05568C7.30094 6.05573 7.30511 6.05573 7.30928 6.05568L8.42824 6.33698C8.43445 6.33919 8.4407 6.34127 8.44699 6.34323L9.90352 6.64954C9.90973 6.65175 9.91598 6.65383 9.92227 6.65579L11.6789 6.9621C11.6809 6.96212 11.683 6.96212 11.6851 6.9621L13.698 7.27466L15.9172 7.60598L18.2926 7.96229L20.7306 8.32486L23.106 8.68743C23.1102 8.68751 23.1144 8.68751 23.1185 8.68743L25.1564 8.92498L26.6755 9.16252C26.8297 9.18753 26.9193 9.12293 26.9443 8.96874C26.9693 8.81454 26.9047 8.72494 26.7505 8.69993L25.2314 8.46239L23.2248 8.0248C23.2227 8.02479 23.2206 8.02479 23.2186 8.0248L20.8619 7.56847L18.4551 7.06212C18.451 7.06207 18.4468 7.06207 18.4426 7.06212L16.0797 6.63079C16.0776 6.63078 16.0755 6.63078 16.0734 6.63079L13.8543 6.27447L11.8539 5.94941L10.1098 5.63685L8.67204 5.33679L7.56558 5.05549L6.83419 4.8617C6.81155 4.85597 6.78863 4.8518 6.76542 4.8492L6.33409 4.79919C6.23735 4.78804 6.14566 4.80471 6.05904 4.8492L5.90901 4.92421C5.68838 5.03609 5.62378 5.20696 5.71522 5.43681L5.73398 5.48057C5.75384 5.52876 5.78301 5.57044 5.82149 5.60559L5.89026 5.67436C5.91467 5.69697 5.94176 5.71573 5.97152 5.73062L6.0903 5.78688C6.11031 5.79726 6.13115 5.8056 6.15281 5.81188L6.25908 5.84314C6.3285 5.86269 6.39726 5.86061 6.46537 5.83689L6.50913 5.82439C6.62241 5.78801 6.69218 5.7118 6.71843 5.59575C6.74468 5.47969 6.7145 5.38087 6.6279 5.29929Z" fill="black"/>
<path d="M9.2534 7.14342C9.2534 7.31012 9.33675 7.39347 9.50345 7.39347C9.67014 7.39347 9.75349 7.31012 9.75349 7.14342C9.75349 6.97672 9.67014 6.89337 9.50345 6.89337C9.33675 6.89337 9.2534 6.97672 9.2534 7.14342ZM9.65348 6.84336H9.64097L9.62222 6.82461C9.64216 6.92344 9.69425 7.00053 9.7785 7.05591L9.77225 7.03715C9.75996 6.97524 9.73496 6.91898 9.69723 6.86837L9.67223 6.83711C9.59555 6.74003 9.4958 6.68408 9.37299 6.66925C9.25017 6.65442 9.13997 6.68502 9.04239 6.76105C8.94481 6.83709 8.8882 6.93647 8.87256 7.05918C8.85692 7.1819 8.88679 7.2923 8.96218 7.39038C9.03757 7.48846 9.13657 7.54573 9.25918 7.56218C9.38179 7.57862 9.49239 7.54948 9.59096 7.47473L9.62222 7.45598C9.67671 7.41414 9.71839 7.36205 9.74724 7.2997L9.75349 7.2872C9.6561 7.31962 9.58525 7.38214 9.54095 7.47473L9.58471 7.46223C9.55472 7.46465 9.52555 7.47091 9.4972 7.48099L9.52845 7.47473C9.70162 7.46702 9.80503 7.37814 9.8387 7.20811C9.87237 7.03807 9.81063 6.91649 9.65348 6.84336ZM8.80956 7.10591C8.80956 7.24229 8.85778 7.35869 8.95421 7.45511C9.05064 7.55154 9.16704 7.59976 9.30341 7.59976C9.43978 7.59976 9.55618 7.55154 9.65261 7.45511C9.74904 7.35869 9.79725 7.24229 9.79725 7.10591C9.79725 6.96954 9.74904 6.85314 9.65261 6.75671C9.55618 6.66028 9.43978 6.61207 9.30341 6.61207C9.16704 6.61207 9.05064 6.66028 8.95421 6.75671C8.85778 6.85314 8.80956 6.96954 8.80956 7.10591ZM9.15338 7.63101L9.35967 7.71853C9.3983 7.7326 9.43789 7.74302 9.47844 7.74979L9.97854 7.85606C9.99306 7.85859 10.0076 7.86067 10.0223 7.86231L10.9225 7.98733C10.9266 7.98737 10.9308 7.98737 10.935 7.98733L12.3415 8.16237L14.2856 8.39366C14.2919 8.39374 14.2981 8.39374 14.3044 8.39366L16.7298 8.63746C16.7423 8.63779 16.7548 8.63779 16.7673 8.63746L19.5179 8.76248C19.5241 8.76258 19.5304 8.76258 19.5366 8.76248L22.3559 8.78123L25.0252 8.88125L27.4006 9.00003L29.376 9.11255C29.3822 9.11482 29.3884 9.1169 29.3947 9.1188H30.8763L31.8515 9.18756C31.9741 9.17092 32.0406 9.10093 32.0509 8.97757C32.0611 8.85422 32.0072 8.77418 31.889 8.73748L30.9075 8.66246L29.4385 8.46242C29.4322 8.46225 29.426 8.46225 29.4197 8.46242L27.4444 8.31239L25.0752 8.13111L22.4122 7.92482L19.6179 7.58101L16.8924 7.23094C16.8882 7.22881 16.884 7.22673 16.8799 7.22469L14.4606 6.95589L12.5165 6.71209L11.11 6.53706C11.1079 6.53705 11.1058 6.53705 11.1038 6.53706L10.2036 6.43704C10.1745 6.43317 10.1454 6.43109 10.1161 6.43079H9.60347C9.51904 6.43207 9.43778 6.44874 9.35967 6.4808L9.15338 6.56831C8.91667 6.66634 8.79831 6.84346 8.79831 7.09966C8.79831 7.35587 8.91667 7.53299 9.15338 7.63101Z" fill="black"/>
<path d="M15.8422 8.13112L15.9547 8.2749C16.018 8.3571 16.0992 8.41336 16.1985 8.44368L16.7173 8.59371C16.7235 8.59591 16.7298 8.59799 16.7361 8.59996L17.755 8.85626C17.7654 8.85861 17.7758 8.86069 17.7863 8.86251L19.4241 9.20007C19.4345 9.20239 19.4449 9.20447 19.4553 9.20633L21.662 9.54389C21.6682 9.54606 21.6745 9.54814 21.6808 9.55014L24.2375 9.90021C24.2438 9.90028 24.25 9.90028 24.2563 9.90021L26.9443 10.2003C26.9547 10.2005 26.9651 10.2005 26.9755 10.2003L29.5448 10.3878C29.5552 10.388 29.5656 10.388 29.576 10.3878L31.864 10.4566C31.8702 10.4566 31.8765 10.4566 31.8827 10.4566L33.9081 10.4753C33.9227 10.4736 33.9373 10.4715 33.9519 10.4691L35.6334 10.3941C35.6952 10.3912 35.7556 10.3808 35.8147 10.3628L36.9962 9.99398L37.8338 9.8377L38.3714 9.80644C38.5256 9.79811 38.5986 9.71684 38.5902 9.56264C38.5819 9.40845 38.5006 9.33552 38.3464 9.34385L37.8151 9.37511L36.9774 9.27509L35.796 8.94378C35.7407 8.92889 35.6844 8.92055 35.6272 8.91877L33.9456 8.85001C33.9373 8.84988 33.9289 8.84988 33.9206 8.85001L31.9077 8.83125L29.6385 8.76249L27.0943 8.59996L24.425 8.33741L21.8683 8.03735L19.6491 7.78105C19.645 7.77893 19.6408 7.77685 19.6366 7.7748L17.9738 7.61852C17.9676 7.61634 17.9613 7.61426 17.9551 7.61227L16.9111 7.53726L16.3798 7.48725C16.2847 7.47971 16.1951 7.49846 16.111 7.54351L15.9484 7.63103C15.8581 7.68066 15.8022 7.75589 15.7807 7.85673C15.7593 7.95757 15.7798 8.04904 15.8422 8.13112Z" fill="black"/>
<path d="M27.9883 9.47509C27.9883 9.6918 28.0967 9.80016 28.3134 9.80016C28.5301 9.80016 28.6384 9.6918 28.6384 9.47509C28.6384 9.25839 28.5301 9.15003 28.3134 9.15003C28.0967 9.15003 27.9883 9.25839 27.9883 9.47509ZM27.9133 9.48134C27.9133 9.59182 27.9524 9.68612 28.0305 9.76424C28.1086 9.84236 28.2029 9.88142 28.3134 9.88142C28.4239 9.88142 28.5182 9.84236 28.5963 9.76424C28.6744 9.68612 28.7135 9.59182 28.7135 9.48134C28.7135 9.37087 28.6744 9.27657 28.5963 9.19845C28.5182 9.12033 28.4239 9.08127 28.3134 9.08127C28.2029 9.08127 28.1086 9.12033 28.0305 9.19845C27.9524 9.27657 27.9133 9.37087 27.9133 9.48134ZM28.1446 9.93768L28.4071 10.0877C28.464 10.1201 28.5244 10.143 28.5884 10.1565L29.3386 10.3253C29.3634 10.3308 29.3884 10.335 29.4136 10.3378L30.7263 10.4753C30.7388 10.4756 30.7513 10.4756 30.7638 10.4753L32.4767 10.5691C32.4871 10.5693 32.4975 10.5693 32.5079 10.5691L34.3833 10.5816C34.3958 10.5819 34.4083 10.5819 34.4208 10.5816L36.2399 10.5065C36.2525 10.5048 36.265 10.5027 36.2774 10.5003L37.909 10.3378L39.278 10.2065C39.2821 10.2065 39.2863 10.2065 39.2905 10.2065L40.3719 10.0815C40.4144 10.0772 40.4561 10.0688 40.497 10.0565L41.2346 9.82516C41.2539 9.818 41.2726 9.80966 41.2909 9.80016L41.7534 9.58761C41.7641 9.58398 41.7745 9.57981 41.7847 9.57511L42.016 9.43759L42.1348 9.40008C42.2806 9.35424 42.3306 9.25838 42.2848 9.11252C42.2389 8.96666 42.1431 8.91665 41.9972 8.9625L41.9035 8.99375L41.6722 8.9625L41.1783 8.86248C41.1659 8.85991 41.1534 8.85783 41.1408 8.85623L40.3719 8.76871C40.3284 8.76226 40.2846 8.76018 40.2407 8.76246L39.1592 8.85623C39.1571 8.85623 39.155 8.85623 39.1529 8.85623L37.7902 8.9875L36.1774 9.08127L34.377 9.14378L32.5392 9.13128L30.8451 9.03751L29.5386 8.94999C29.5282 8.94976 29.5178 8.94976 29.5074 8.94999L28.7385 8.92499C28.6879 8.92309 28.6379 8.92726 28.5884 8.93749L28.2946 9.00625C28.0692 9.05485 27.9381 9.193 27.9014 9.42071C27.8647 9.64842 27.9458 9.82075 28.1446 9.93768Z" fill="black"/>
<path d="M33.3142 9.60635C33.3142 9.82306 33.4226 9.93141 33.6393 9.93141C33.856 9.93141 33.9643 9.82306 33.9643 9.60635C33.9643 9.38964 33.856 9.28129 33.6393 9.28129C33.4226 9.28129 33.3142 9.38964 33.3142 9.60635ZM33.4205 9.86265L33.508 9.94392C33.577 10.008 33.6582 10.0455 33.7518 10.0564L34.1644 10.1064C34.1954 10.1115 34.2267 10.1136 34.2581 10.1127L35.027 10.0627C35.0291 10.0606 35.0312 10.0585 35.0333 10.0564L36.0772 9.96892C36.0814 9.96898 36.0856 9.96898 36.0897 9.96892L37.2962 9.83765C37.3046 9.83574 37.3129 9.83366 37.3212 9.8314L38.5402 9.63761C38.5549 9.63606 38.5694 9.63397 38.584 9.63136L39.6967 9.37506C39.7244 9.36878 39.7515 9.36044 39.7779 9.35005L40.6781 8.99374C40.6823 8.99172 40.6865 8.98964 40.6906 8.98748L41.3907 8.67493C41.4015 8.66927 41.4119 8.66302 41.422 8.65617L41.8721 8.38737L42.1721 8.24359C42.3093 8.1768 42.3447 8.07475 42.2781 7.93744C42.2115 7.80013 42.1095 7.76466 41.9721 7.83101L41.6908 7.96854L41.2032 8.06856L40.4718 8.19358L39.5279 8.26235C39.5153 8.26401 39.5028 8.26609 39.4904 8.2686L38.3589 8.43738C38.3547 8.43734 38.3506 8.43734 38.3464 8.43738L37.1274 8.64367C37.1253 8.64366 37.1233 8.64366 37.1212 8.64367L35.9335 8.86246L34.9145 9.03124L34.1706 9.11251C34.1537 9.11582 34.1371 9.11998 34.1206 9.12501L33.7143 9.21253C33.6725 9.22124 33.6329 9.23583 33.5955 9.25629L33.4892 9.31255C33.3878 9.36909 33.3299 9.45497 33.3155 9.57018C33.3011 9.68539 33.3361 9.78288 33.4205 9.86265Z" fill="black"/>
<path d="M16.6549 6.72463L16.6611 6.73713C16.7243 6.81504 16.8056 6.86088 16.9049 6.87466L16.9862 6.88716L17.5863 6.97468C17.5946 6.97703 17.6029 6.97911 17.6113 6.98093L18.2739 7.04344L19.2866 7.14346C19.2887 7.14347 19.2908 7.14347 19.2929 7.14346L20.5806 7.24973L22.0809 7.39976L23.7437 7.59355L25.5628 7.81234L27.5194 8.04988C27.5257 8.05 27.5319 8.05 27.5382 8.04988L29.5823 8.21241C29.5907 8.21263 29.599 8.21263 29.6073 8.21241L31.6827 8.25617C31.6973 8.25683 31.7119 8.25683 31.7265 8.25617L33.7894 8.13115C33.8062 8.12995 33.8228 8.12787 33.8394 8.1249L35.7523 7.79983C35.7564 7.79991 35.7606 7.79991 35.7648 7.79983L37.3401 7.46227L38.5028 7.27474C38.6612 7.24973 38.7278 7.15805 38.7028 6.99968C38.6778 6.84132 38.5861 6.77464 38.4278 6.79964L37.2713 6.98718L35.671 7.09345L33.7394 7.18097C33.7373 7.18095 33.7352 7.18095 33.7331 7.18097L31.689 7.28099L29.6449 7.23723L27.6257 7.0747L25.6753 6.84965L23.8625 6.61836C23.8604 6.61835 23.8583 6.61835 23.8562 6.61836L22.1872 6.43708C22.183 6.43702 22.1788 6.43702 22.1747 6.43708L20.6681 6.29955C20.6619 6.29943 20.6556 6.29943 20.6494 6.29955L19.3554 6.23079C19.3491 6.23066 19.3429 6.23066 19.3366 6.23079L18.3302 6.21828L17.6801 6.16827L17.08 6.11201C17.0508 6.1087 17.0216 6.1087 16.9924 6.11201L16.9049 6.12452C16.7228 6.14833 16.6144 6.25043 16.5799 6.43082V6.44333C16.5629 6.54829 16.5879 6.64205 16.6549 6.72463Z" fill="black"/>
<path d="M14.6545 7.27469C14.6545 7.4914 14.7629 7.59975 14.9796 7.59975C15.1963 7.59975 15.3046 7.4914 15.3046 7.27469C15.3046 7.05798 15.1963 6.94963 14.9796 6.94963C14.7629 6.94963 14.6545 7.05798 14.6545 7.27469ZM15.3421 7.20593V7.18092C15.3358 7.13939 15.3233 7.0998 15.3046 7.06215L15.2859 7.01214C15.2682 6.97332 15.2453 6.93789 15.2171 6.90587L15.1796 6.86836C14.9718 6.81255 14.8118 6.87647 14.6996 7.06015C14.5874 7.24382 14.6037 7.41535 14.7483 7.57475L14.767 7.581C14.7917 7.5872 14.8167 7.59137 14.842 7.5935L14.9921 7.606L15.3109 7.63726L15.8485 7.69977C15.8506 7.69978 15.8526 7.69978 15.8547 7.69977L16.7486 7.80604C16.7549 7.80615 16.7611 7.80615 16.7674 7.80604L18.0051 7.90606C18.0218 7.90684 18.0385 7.90684 18.0551 7.90606L19.5492 7.88105C19.5658 7.88201 19.5825 7.88201 19.5992 7.88105L21.2245 7.66226L22.681 7.59975C22.8433 7.59122 22.9203 7.50579 22.912 7.34347C22.9037 7.18115 22.8184 7.10404 22.656 7.11216L21.212 7.17467L19.5867 7.00589L18.1052 6.84961C18.1031 6.84751 18.101 6.84542 18.0989 6.84336L16.8674 6.73084L15.9735 6.63082C15.9693 6.63077 15.9652 6.63077 15.961 6.63082L15.4109 6.58706C15.3921 6.58605 15.3734 6.58605 15.3546 6.58706L15.0233 6.59331C14.9606 6.59458 14.9001 6.60708 14.842 6.63082L14.6983 6.68708C14.5708 6.73947 14.4835 6.83038 14.4362 6.95978C14.3889 7.08919 14.3971 7.215 14.4607 7.3372L14.467 7.3497C14.4918 7.39996 14.5251 7.44372 14.567 7.48098L14.6045 7.51849C14.6542 7.56037 14.7104 7.58954 14.7733 7.606L14.8233 7.62476C14.8725 7.63835 14.9225 7.64252 14.9733 7.63726L15.0046 7.63101C15.1102 7.61959 15.1961 7.57226 15.2622 7.48903C15.3283 7.4058 15.3549 7.31143 15.3421 7.20593Z" fill="black"/>
<path d="M35.2708 7.07468L35.2333 7.06218C35.2713 7.18054 35.3484 7.2618 35.4646 7.30598V7.29972C35.3065 7.24793 35.1685 7.28088 35.0509 7.39856C34.9332 7.51624 34.9002 7.65416 34.952 7.81232L34.9895 7.82482C35.0201 7.83451 35.0514 7.84076 35.0833 7.84358L35.2333 7.85608C35.2667 7.85956 35.3 7.85956 35.3333 7.85608L35.6709 7.81232C35.6835 7.81071 35.696 7.80862 35.7084 7.80607L36.2523 7.6998C36.2523 7.69772 36.2523 7.69563 36.2523 7.69355L37.0087 7.53727C37.0107 7.53728 37.0128 7.53728 37.0149 7.53727L37.9463 7.33723L38.9403 7.14344L39.8717 6.98716C39.8738 6.98718 39.8759 6.98718 39.878 6.98716L40.6406 6.84964C40.6553 6.84816 40.6699 6.84608 40.6844 6.84339L41.2282 6.70586C41.3046 6.68568 41.3713 6.64817 41.4283 6.59334L41.5783 6.44956L41.7033 6.43706C41.8658 6.41622 41.9367 6.32454 41.9158 6.16201C41.895 5.99948 41.8033 5.92863 41.6408 5.94947L41.522 5.96822L41.3407 5.86195C41.2706 5.82348 41.1956 5.80473 41.1157 5.80569L40.5531 5.79944C40.53 5.80003 40.5071 5.80211 40.4843 5.80569L39.7092 5.91196C39.705 5.91191 39.7008 5.91191 39.6967 5.91196L38.759 6.06824C38.7527 6.07021 38.7465 6.07229 38.7402 6.07449L37.7338 6.27453C37.7275 6.2765 37.7213 6.27858 37.715 6.28078L36.7774 6.49957L36.0272 6.68086C36.0231 6.68081 36.0189 6.68081 36.0147 6.68086L35.4834 6.82463L35.1583 6.9059C35.1211 6.91623 35.0857 6.93081 35.052 6.94966L34.9145 7.01842C34.8311 7.06277 34.7686 7.12736 34.727 7.21221L34.7082 7.24346C34.6663 7.34782 34.6673 7.45175 34.7113 7.55525C34.7553 7.65876 34.8294 7.73161 34.9337 7.77383C35.0379 7.81604 35.1418 7.81529 35.2455 7.77156C35.3491 7.72783 35.4221 7.6539 35.4646 7.54977V7.54352C35.3919 7.59316 35.3419 7.65984 35.3146 7.74356L35.3521 7.71855C35.4714 7.63325 35.5218 7.51786 35.5034 7.37239C35.4851 7.22691 35.4075 7.12768 35.2708 7.07468Z" fill="black"/>
<path d="M18.5548 10.5445C18.5773 10.6849 18.6596 10.7551 18.8018 10.7551C18.944 10.7551 19.0263 10.6849 19.0487 10.5445C19.0263 10.4041 18.944 10.3338 18.8018 10.3338C18.6596 10.3338 18.5773 10.4041 18.5548 10.5445ZM18.4861 10.3945L18.4548 10.457C18.4042 10.5614 18.3937 10.6698 18.4236 10.782L18.5111 11.1008C18.5214 11.142 18.536 11.1816 18.5548 11.2196L18.8799 11.8572C18.8911 11.8809 18.9036 11.9038 18.9174 11.926L19.6863 13.0762C19.698 13.0955 19.7105 13.1143 19.7238 13.1325L20.9803 14.689C20.9884 14.6997 20.9967 14.7101 21.0053 14.7203L22.6056 16.5019C22.6156 16.5147 22.626 16.5272 22.6369 16.5394L24.406 18.2584C24.408 18.2606 24.4101 18.2626 24.4122 18.2647L26.0313 19.8025L27.3128 21.034L28.1692 21.9654C28.2734 22.0779 28.3817 22.0821 28.4942 21.9779C28.6068 21.8737 28.6109 21.7654 28.5067 21.6528L27.6441 20.7277L26.5251 19.3524L25.1498 17.5958L23.6621 15.6329C23.66 15.6288 23.6579 15.6246 23.6558 15.6204L22.1555 13.7451L20.9115 12.1823C20.9095 12.1802 20.9074 12.1781 20.9053 12.176L20.0239 11.1071C20.0138 11.0963 20.0034 11.0859 19.9926 11.0758L19.4988 10.5507C19.4758 10.5256 19.4508 10.5027 19.4238 10.482L19.1612 10.2882C19.0853 10.2309 18.9999 10.1997 18.9049 10.1944L18.8361 10.1882C18.6741 10.1799 18.5574 10.2487 18.4861 10.3945Z" fill="black"/>
<path d="M26.2752 20.8715C26.2752 21.0715 26.3752 21.1715 26.5752 21.1715C26.7752 21.1715 26.8753 21.0715 26.8753 20.8715C26.8753 20.6714 26.7752 20.5714 26.5752 20.5714C26.3752 20.5714 26.2752 20.6714 26.2752 20.8715ZM26.5127 20.5401L26.4814 20.5464C26.5109 20.5481 26.5401 20.546 26.569 20.5401H26.5565L26.4627 20.5026C26.4222 20.4883 26.3805 20.48 26.3377 20.4776L26.2501 20.4714C26.0867 20.4602 25.9513 20.5165 25.8438 20.6402L25.7626 20.7339C25.6832 20.8254 25.6415 20.9317 25.6375 21.0527L25.6313 21.3278C25.6288 21.3676 25.6309 21.4072 25.6375 21.4466L25.7375 21.9467C25.7437 21.9744 25.752 22.0015 25.7626 22.0279L26.0189 22.7343C26.0279 22.7559 26.0383 22.7767 26.0501 22.7968L26.4752 23.622C26.4882 23.6439 26.5028 23.6647 26.5189 23.6845L27.1128 24.5096C27.1278 24.5319 27.1444 24.5527 27.1628 24.5722L27.8942 25.2785C27.9077 25.2942 27.9223 25.3088 27.938 25.3223L28.7006 25.8787C28.7106 25.8875 28.721 25.8959 28.7319 25.9037L29.432 26.31C29.4521 26.3201 29.4729 26.3285 29.4945 26.335L30.0884 26.5538C30.1107 26.5624 30.1336 26.5686 30.1571 26.5725L30.5822 26.6288C30.6457 26.6362 30.7062 26.6258 30.7635 26.5975L30.9948 26.4913C30.9969 26.4913 30.999 26.4913 31.0011 26.4913L31.1511 26.4163C31.2637 26.3418 31.2905 26.2439 31.2316 26.1224C31.1727 26.001 31.0792 25.9614 30.951 26.0037L30.8823 26.0412L30.7197 25.9912C30.7156 25.989 30.7115 25.9869 30.7072 25.9849L30.3322 25.8912L29.8133 25.6349L29.1632 25.241L28.5068 24.6722L27.9005 23.9345L27.3754 23.1281L26.9815 22.353L26.7502 21.7091L26.669 21.284L26.6627 21.1778L26.6377 21.234L26.6315 21.2403L26.6877 21.1903L26.7127 21.1778C26.717 21.1737 26.7212 21.1695 26.7252 21.1653L26.7565 21.1465C26.8966 21.0431 26.9342 20.9106 26.8692 20.749C26.8043 20.5874 26.6854 20.5178 26.5127 20.5401Z" fill="black"/>
<path d="M26.3814 21.084C26.3817 21.2879 26.4838 21.3899 26.6877 21.3899C26.8916 21.3899 26.9937 21.2879 26.994 21.084C26.9937 20.88 26.8916 20.7781 26.6877 20.7781C26.4838 20.7781 26.3817 20.88 26.3814 21.084ZM26.9628 21.2715L27.0003 21.2152L27.094 21.0902C27.1006 21.0821 27.1068 21.0738 27.1128 21.0652L27.2378 20.8777C27.2497 20.8576 27.2601 20.8367 27.2691 20.8152L27.3753 20.5839L27.4379 20.4776L27.3503 20.5401L27.3191 20.5339L27.6379 20.7402L28.1255 21.1715L28.6381 21.6841L29.0819 22.1529L29.432 22.5342C29.434 22.5363 29.4361 22.5384 29.4382 22.5405L29.7008 22.8218C29.726 22.847 29.7531 22.8699 29.782 22.8906L29.9946 23.0531C30.0183 23.0716 30.0433 23.0883 30.0696 23.1031L30.1634 23.1531L30.1446 23.1344V23.1406L30.1946 23.2594L30.2821 23.5407L30.4009 23.9095L30.5072 24.2721L30.5759 24.5659L30.5884 24.7034L30.5572 24.7909C30.6684 24.7225 30.7455 24.6267 30.7885 24.5034L30.7072 24.5534L30.5697 24.5909C30.5613 24.5949 30.5529 24.599 30.5447 24.6034L30.3071 24.6784C30.2815 24.6872 30.2565 24.6977 30.2321 24.7097L30.0008 24.8159C29.8454 24.8907 29.7391 25.0095 29.682 25.1722L29.5883 25.4285C29.5728 25.4666 29.5645 25.5062 29.5633 25.5473V25.5973C29.6498 25.5558 29.6936 25.4871 29.6945 25.391L29.6195 25.4285C29.5069 25.503 29.4801 25.6009 29.539 25.7224C29.5978 25.8438 29.6914 25.8834 29.8196 25.8411L29.8946 25.8036C29.8176 25.7334 29.7322 25.7209 29.6383 25.7661L29.6758 25.7974C29.7069 25.8269 29.7423 25.8498 29.782 25.8661L30.0383 25.9661C30.1757 26.0221 30.3153 26.0283 30.4572 25.9849L30.701 25.9036C30.7179 25.8981 30.7346 25.8918 30.751 25.8849L30.9823 25.7911C31.0287 25.7733 31.0725 25.7504 31.1135 25.7224L31.2948 25.5911C31.3707 25.5383 31.4311 25.4717 31.4761 25.391L31.5574 25.2348C31.6005 25.157 31.6234 25.0736 31.6261 24.9847L31.6324 24.7784C31.6321 24.7533 31.63 24.7283 31.6261 24.7034L31.5949 24.4221C31.5934 24.4074 31.5914 24.3928 31.5886 24.3783L31.5136 24.0345C31.5117 24.0261 31.5097 24.0178 31.5074 24.0095L31.4074 23.6282C31.4074 23.624 31.4074 23.6199 31.4074 23.6157L31.2948 23.2406C31.2931 23.2302 31.291 23.2197 31.2886 23.2094L31.1823 22.9093C31.1786 22.8967 31.1744 22.8842 31.1698 22.8718L31.0885 22.6905C31.0793 22.6711 31.0689 22.6524 31.0573 22.6343L31.0073 22.553L30.9698 22.4717L30.8948 22.3217C30.884 22.2958 30.8715 22.2708 30.8573 22.2467L30.7072 22.0216C30.6937 22.0021 30.6791 21.9833 30.6635 21.9654L30.4134 21.6716C30.4094 21.6653 30.4052 21.659 30.4009 21.6528L30.0508 21.2653C30.0508 21.2632 30.0508 21.2611 30.0508 21.259L29.607 20.7714C29.6009 20.765 29.5946 20.7588 29.5883 20.7527L29.0569 20.2151C29.043 20.1998 29.0284 20.1852 29.0131 20.1713L28.463 19.7087C28.4261 19.6795 28.3865 19.6545 28.3443 19.6337L27.8567 19.3711C27.7644 19.3241 27.6664 19.3012 27.5629 19.3024H27.2253C27.0405 19.3029 26.8884 19.3738 26.769 19.5149L26.5939 19.715C26.5493 19.7691 26.5159 19.8296 26.4939 19.8962L26.4002 20.1588C26.3952 20.1753 26.391 20.1919 26.3877 20.2088L26.3189 20.4839C26.3105 20.5209 26.3063 20.5584 26.3064 20.5964V20.8214C26.3055 20.8508 26.3076 20.88 26.3126 20.9089L26.3439 21.0527L26.3501 21.1152C26.3734 21.2647 26.4583 21.3581 26.6049 21.3955C26.7515 21.4329 26.8707 21.3916 26.9628 21.2715Z" fill="black"/>
</g>
<defs>
<clipPath id="clip0_1_7354">
<rect width="43" height="27" fill="white"/>
</clipPath>
</defs>
</svg>
