<svg width="42" height="28" viewBox="0 0 42 28" fill="none" xmlns="http://www.w3.org/2000/svg">
<g clip-path="url(#clip0_1_7363)">
<path d="M21.2751 3.26196L21.1876 3.71205C21.1874 3.7183 21.1874 3.72455 21.1876 3.7308L21.1188 4.14338C21.1187 4.14755 21.1187 4.15172 21.1188 4.15588L21.0375 4.78725C21.0371 4.79976 21.0371 4.81226 21.0375 4.82476L20.975 5.71243C20.975 5.7166 20.975 5.72076 20.975 5.72493L20.875 8.16915C20.875 8.17123 20.875 8.17331 20.875 8.1754L20.8187 9.62567C20.8187 9.62984 20.8187 9.63401 20.8187 9.63818L20.7937 11.1135C20.7937 11.1176 20.7937 11.1218 20.7937 11.126V12.5512C20.7937 12.5533 20.7937 12.5554 20.7937 12.5575L20.8 13.9015L20.8062 15.1642L20.8125 16.3457L20.8062 17.4522L20.775 18.4899C20.775 18.4919 20.775 18.494 20.775 18.4961L20.75 19.4775L20.7312 20.4027L20.6937 22.0155C20.6937 22.0197 20.6937 22.0239 20.6937 22.028L20.6875 22.7032L20.6812 23.2658C20.6811 23.272 20.6811 23.2783 20.6812 23.2845V23.7721C20.6816 23.8014 20.6837 23.8306 20.6875 23.8596L20.7375 24.2597L20.7687 24.5973C20.7687 24.6014 20.7687 24.6056 20.7687 24.6098L20.8062 24.9036C20.8216 25.0436 20.8757 25.1666 20.9688 25.2724L21.1313 25.4537L21.1375 25.4724C21.2169 25.6533 21.3545 25.7307 21.5502 25.7046C21.746 25.6785 21.8585 25.5678 21.8877 25.3724L21.9002 25.2787C21.855 25.338 21.8279 25.4047 21.8189 25.4787L22.0065 25.2224C22.0958 25.1017 22.1396 24.9662 22.1377 24.8161L22.1315 24.5348L22.1377 24.2222L22.1752 23.8346C22.1782 23.8139 22.1803 23.793 22.1815 23.7721V23.2845L22.1877 22.7219L22.2065 22.0593C22.2065 22.0572 22.2065 22.0551 22.2065 22.053L22.244 20.4402C22.244 20.4381 22.244 20.4361 22.244 20.434L22.2628 19.5088C22.2628 19.5067 22.2628 19.5046 22.2628 19.5026L22.2753 18.5211L22.2815 17.4709C22.2815 17.4688 22.2815 17.4667 22.2815 17.4647L22.2753 16.3457C22.2753 16.3415 22.2753 16.3374 22.2753 16.3332L22.2565 15.1455C22.2565 15.1434 22.2565 15.1413 22.2565 15.1392L22.2253 13.8827L22.2065 12.545V11.126L22.2253 9.65693C22.2253 9.65485 22.2253 9.65276 22.2253 9.65068V8.2004V5.74994C22.2253 5.74577 22.2253 5.7416 22.2253 5.73743L22.2065 4.84977C22.2048 4.8372 22.2027 4.82469 22.2003 4.81226L22.144 4.18089C22.1444 4.16839 22.1444 4.15588 22.144 4.14338L22.0752 3.7308C22.0754 3.72455 22.0754 3.7183 22.0752 3.71205L21.9877 3.26196C21.9506 3.06494 21.8319 2.96643 21.6314 2.96643C21.4309 2.96643 21.3121 3.06494 21.2751 3.26196ZM21.7002 25.4787L21.7189 25.4537C21.8103 25.3287 21.7935 25.2204 21.6687 25.1289C21.5439 25.0373 21.4356 25.0539 21.3438 25.1786L21.3251 25.2036C21.2337 25.3286 21.2505 25.4369 21.3753 25.5284C21.5001 25.62 21.6084 25.6034 21.7002 25.4787Z" fill="black"/>
<path d="M7.97842 4.42457L7.98467 4.41206C8.03973 4.28221 8.02833 4.15849 7.95047 4.04088C7.8726 3.92328 7.76314 3.86448 7.6221 3.86448C7.48105 3.86448 7.3716 3.92328 7.29373 4.04088C7.21586 4.15849 7.20446 4.28221 7.25953 4.41206L7.26578 4.42457C7.33285 4.58129 7.45162 4.65966 7.6221 4.65966C7.79257 4.65966 7.91135 4.58129 7.97842 4.42457ZM7.25328 4.06825L7.23452 4.10576L7.17201 4.20578L7.00323 4.41832C6.97273 4.45893 6.94772 4.50269 6.92822 4.54959L6.72193 5.02468C6.71001 5.04906 6.69959 5.07407 6.69067 5.0997L6.46563 5.81858C6.46339 5.82688 6.46131 5.83521 6.45938 5.84359L6.20933 6.75001C6.20925 6.75626 6.20925 6.76251 6.20933 6.76876L5.95303 7.80646C5.95302 7.80854 5.95302 7.81063 5.95303 7.81271L5.69048 8.91917L5.42168 10.0694C5.41956 10.0735 5.41747 10.0777 5.41543 10.0819L5.17163 11.2321C5.16942 11.2404 5.16733 11.2487 5.16538 11.2571L4.94659 12.3886C4.94646 12.3969 4.94646 12.4053 4.94659 12.4136L4.7653 13.5326L4.59652 14.5765L4.44649 15.5204L4.27771 16.4018L4.10268 17.227L3.92764 17.9959L3.75261 18.696C3.7526 18.6981 3.7526 18.7002 3.75261 18.7023L3.60258 19.3462C3.60022 19.3586 3.59813 19.3711 3.59633 19.3837L3.48381 19.9775C3.48153 19.9879 3.47944 19.9983 3.47756 20.0088L3.39629 20.5464C3.39626 20.5506 3.39626 20.5547 3.39629 20.5589L3.33378 21.0215C3.3315 21.0319 3.32942 21.0423 3.32753 21.0527L3.29002 21.4341L3.25252 21.7404L3.22126 21.9904L3.18375 22.1967L3.1525 22.378C3.15243 22.3842 3.15243 22.3905 3.1525 22.3967L3.13374 22.5343C3.08355 22.8544 3.18566 23.1149 3.44005 23.3157L3.47131 23.3344C3.73246 23.5365 4.0096 23.5615 4.30272 23.4094L4.34022 23.3969C4.54425 23.2887 4.67969 23.1241 4.74655 22.9031L4.79031 22.7656C4.8007 22.7327 4.80903 22.6994 4.81531 22.6655L4.84657 22.4843C4.84657 22.4822 4.84657 22.4801 4.84657 22.478L4.88408 22.253C4.88411 22.2488 4.88411 22.2446 4.88408 22.2405L4.92158 21.9717C4.92386 21.9613 4.92595 21.9509 4.92783 21.9404L4.96534 21.6278L5.0091 21.2403L5.07161 20.7902L5.14663 20.2776L5.2529 19.715L5.40292 19.0899L5.56546 18.3835C5.56755 18.3814 5.56963 18.3793 5.57171 18.3772L5.74674 17.5958C5.7489 17.5896 5.75098 17.5833 5.75299 17.5771L5.92802 16.7332C5.92809 16.7269 5.92809 16.7207 5.92802 16.7144L6.09681 15.8142C6.09693 15.8059 6.09693 15.7976 6.09681 15.7892L6.24684 14.8328L6.40312 13.7951L6.5844 12.6824L6.77819 11.5509L6.99073 10.4007L7.22202 9.25674L7.44706 8.13777L7.65335 7.09382L7.85339 6.1874C7.85552 6.18326 7.8576 6.17909 7.85964 6.1749L8.00342 5.43101C8.00795 5.41863 8.01212 5.40612 8.01592 5.3935L8.08469 4.8809C8.09301 4.83115 8.09509 4.78114 8.09094 4.73088L8.05968 4.43707C8.05969 4.43499 8.05969 4.4329 8.05968 4.43082L8.04093 4.27454L8.02842 4.20578C8.00251 4.00552 7.89015 3.88776 7.69133 3.85249C7.49251 3.81721 7.3465 3.88913 7.25328 4.06825ZM3.39629 22.7218C3.39629 22.8789 3.45183 23.013 3.56291 23.124C3.67398 23.2351 3.80806 23.2907 3.96515 23.2907C4.12224 23.2907 4.25632 23.2351 4.36739 23.124C4.47847 23.013 4.53401 22.8789 4.53401 22.7218C4.53401 22.5647 4.47847 22.4306 4.36739 22.3196C4.25632 22.2085 4.12224 22.1529 3.96515 22.1529C3.80806 22.1529 3.67398 22.2085 3.56291 22.3196C3.45183 22.4306 3.39629 22.5647 3.39629 22.7218ZM3.61508 22.6405C3.61508 22.7545 3.65536 22.8517 3.73593 22.9323C3.81649 23.0128 3.91373 23.0531 4.02766 23.0531C4.14159 23.0531 4.23884 23.0128 4.3194 22.9323C4.39996 22.8517 4.44024 22.7545 4.44024 22.6405C4.44024 22.5266 4.39996 22.4294 4.3194 22.3488C4.23884 22.2682 4.14159 22.228 4.02766 22.228C3.91373 22.228 3.81649 22.2682 3.73593 22.3488C3.65536 22.4294 3.61508 22.5266 3.61508 22.6405ZM4.32772 22.6718L4.39648 22.5593C4.49234 22.4051 4.46316 22.2801 4.30897 22.1842C4.15477 22.0883 4.02975 22.1175 3.93389 22.2717L3.86513 22.3842C3.76928 22.5384 3.79845 22.6635 3.95265 22.7593C4.10684 22.8552 4.23187 22.826 4.32772 22.6718Z" fill="black"/>
<path d="M7.8534 4.31203L7.85966 4.28078L7.86591 4.27453L7.87216 4.24952C7.73952 4.28661 7.64992 4.36995 7.60336 4.49957L7.63461 4.48707C7.52242 4.39789 7.3974 4.37289 7.25954 4.41205L7.2908 4.43706C7.2704 4.41161 7.24748 4.38869 7.22203 4.3683L7.27204 4.42456C7.30584 4.46645 7.34543 4.50188 7.39082 4.53083L7.52834 4.61834C7.54646 4.6299 7.56522 4.64032 7.5846 4.6496L7.8159 4.75587C7.84016 4.76806 7.86517 4.77848 7.89091 4.78713L8.20972 4.88714C8.22216 4.88963 8.23466 4.89171 8.24723 4.8934L8.64731 4.99341C8.65974 4.99589 8.67225 4.99797 8.68481 4.99967L9.1599 5.08093C9.17856 5.08387 9.19732 5.08596 9.21616 5.08718L9.75377 5.13094C9.77044 5.13162 9.78711 5.13162 9.80378 5.13094H10.3789C10.3997 5.13201 10.4206 5.13201 10.4414 5.13094L11.054 5.06218C11.0708 5.06078 11.0874 5.0587 11.104 5.05593L11.7354 4.93715C11.7566 4.93201 11.7774 4.92576 11.7979 4.9184L12.4293 4.73712C12.4419 4.73335 12.4544 4.72918 12.4668 4.72461L13.0669 4.50582C13.0838 4.50029 13.1005 4.49404 13.1169 4.48707L13.6545 4.23077C13.6629 4.22679 13.6713 4.22262 13.6795 4.21827L14.1734 3.96197C14.1861 3.95615 14.1986 3.94989 14.2109 3.94321L14.6547 3.67441C14.6631 3.67044 14.6715 3.66627 14.6797 3.66191L15.086 3.39311C15.0881 3.39104 15.0902 3.38896 15.0923 3.38686L15.4799 3.12431L15.8862 2.86176L16.2988 2.59296L16.7113 2.37417L17.1364 2.21789L17.5803 2.09911L17.9991 2.04285L18.4117 2.0491L18.818 2.13662L19.2368 2.3054L19.6744 2.55545C19.714 2.57876 19.7557 2.59751 19.7994 2.61171L20.2245 2.74299L20.5183 2.88676L20.6808 3.10556C20.7809 3.23866 20.8975 3.25526 21.0307 3.15535C21.164 3.05544 21.1807 2.93882 21.0809 2.8055L20.9059 2.56795L20.7809 2.21164C20.7754 2.1967 20.7692 2.18211 20.7621 2.16788L20.5621 1.73654C20.5154 1.63493 20.4467 1.55158 20.3558 1.4865L19.9057 1.17394C19.8628 1.14348 19.817 1.11847 19.7682 1.09892L19.2556 0.892634C19.217 0.878495 19.1774 0.868077 19.1368 0.861378L18.6117 0.761359C18.5704 0.753146 18.5288 0.748978 18.4867 0.748857H17.9616C17.9281 0.748338 17.8947 0.750422 17.8616 0.755108L17.3552 0.830122C17.3256 0.834341 17.2964 0.840592 17.2677 0.848876L16.7614 0.998904C16.7268 1.01063 16.6934 1.02521 16.6613 1.04266L16.1925 1.27396C16.1841 1.27793 16.1757 1.2821 16.1675 1.28646L15.6986 1.54901C15.6902 1.55298 15.6819 1.55715 15.6736 1.56151L15.2361 1.83031C15.2319 1.83235 15.2277 1.83443 15.2236 1.83656L14.811 2.10537C14.8089 2.10743 14.8068 2.10952 14.8047 2.11162L14.4109 2.36792L14.0171 2.63047L13.592 2.88051L13.1294 3.12431L12.6231 3.3556L12.0605 3.55564L11.4728 3.73693L10.8977 3.84945L10.3476 3.90571H9.82878L9.33494 3.86195L8.88485 3.79944L8.48478 3.73693L8.16596 3.67441C8.14939 3.6716 8.13272 3.66952 8.11595 3.66816L7.87216 3.64316L7.71588 3.61815C7.64104 3.60981 7.56811 3.61814 7.49709 3.64316L7.42207 3.66816C7.37443 3.68367 7.33068 3.7066 7.2908 3.73693L7.25954 3.76193C7.19124 3.81824 7.1454 3.88909 7.12202 3.97447L7.10951 4.00573C7.1021 4.03444 7.09794 4.06361 7.09701 4.09324V4.1245C7.10016 4.10796 7.10225 4.09129 7.10326 4.07449L7.09701 4.09949C7.08785 4.15879 7.09201 4.21714 7.10951 4.27453L7.11576 4.31203C7.16556 4.50169 7.2885 4.59651 7.48458 4.59651C7.68067 4.59651 7.80361 4.50169 7.8534 4.31203Z" fill="black"/>
<path d="M21.4872 3.54943C21.4872 3.74946 21.5872 3.84948 21.7872 3.84948C21.9873 3.84948 22.0873 3.74946 22.0873 3.54943C22.0873 3.34939 21.9873 3.24937 21.7872 3.24937C21.5872 3.24937 21.4872 3.34939 21.4872 3.54943ZM21.4372 3.54943C21.4372 3.64609 21.4714 3.72861 21.5397 3.79696C21.6081 3.86531 21.6906 3.89949 21.7872 3.89949C21.8839 3.89949 21.9664 3.86531 22.0348 3.79696C22.1031 3.72861 22.1373 3.64609 22.1373 3.54943C22.1373 3.45276 22.1031 3.37025 22.0348 3.30189C21.9664 3.23354 21.8839 3.19936 21.7872 3.19936C21.6906 3.19936 21.6081 3.23354 21.5397 3.30189C21.4714 3.37025 21.4372 3.45276 21.4372 3.54943ZM21.8998 3.19936H21.8935C21.7782 3.16161 21.6696 3.17571 21.5677 3.24167C21.4658 3.30762 21.4085 3.40094 21.3957 3.52164C21.3829 3.64233 21.4194 3.74558 21.5053 3.8314C21.5911 3.91722 21.6943 3.95374 21.815 3.94097C21.9357 3.9282 22.029 3.87087 22.095 3.76899C22.161 3.66711 22.1751 3.5585 22.1373 3.44316V3.4369C22.0978 3.31806 22.0186 3.23888 21.8998 3.19936ZM21.9623 3.90574L21.981 3.89949C22.0433 3.86437 22.0933 3.81645 22.1311 3.75571L22.1373 3.73696L22.1623 3.70571L22.2748 3.61819L22.4499 3.46816C22.4629 3.45834 22.4754 3.44793 22.4874 3.4369L22.6687 3.25562L22.875 3.08059L23.1062 2.9118L23.3938 2.76178L23.7064 2.643L24.0502 2.55549L24.4315 2.51798L24.8316 2.49297L25.2567 2.52423L25.6755 2.58049L26.1068 2.71177L26.5882 2.92431L27.1195 3.23061L27.6946 3.62444L28.3197 4.05577C28.3259 4.06212 28.3321 4.06837 28.3385 4.07453L28.9886 4.49336C29.0049 4.50436 29.0216 4.51478 29.0386 4.52461L29.7325 4.91218C29.7529 4.92347 29.7737 4.93389 29.795 4.94344L30.5327 5.27475C30.5711 5.29234 30.6107 5.30693 30.6514 5.31851L31.4516 5.5373C31.5152 5.55322 31.5798 5.56156 31.6454 5.56231L32.4893 5.59356C32.5679 5.59442 32.645 5.584 32.7206 5.56231L33.577 5.33727C33.6749 5.31131 33.7624 5.26547 33.8395 5.19974L34.4021 4.72465L35.0585 4.52461C35.2015 4.46482 35.2501 4.36088 35.2046 4.21279C35.159 4.06471 35.0603 4.00612 34.9085 4.03702L34.2709 4.23081L33.577 4.04952C33.5318 4.03849 33.486 4.03224 33.4395 4.03077L32.5768 3.98701L31.8329 3.90574L31.164 3.71196L30.5077 3.43065L29.8763 3.07433L29.2449 2.67426L28.6135 2.26168C28.6115 2.26167 28.6094 2.26167 28.6073 2.26168L27.9947 1.8616C27.9724 1.848 27.9494 1.83549 27.9259 1.8241L27.3195 1.50529C27.2992 1.49396 27.2783 1.48354 27.257 1.47403L26.6882 1.23649C26.6536 1.22146 26.6182 1.20896 26.5819 1.19898L26.0381 1.06145C25.9889 1.04823 25.9389 1.03989 25.888 1.03645L25.3692 1.01144C25.3211 1.00895 25.2731 1.01103 25.2254 1.01769L24.7378 1.08646C24.7082 1.09086 24.6791 1.09711 24.6503 1.10521L24.2002 1.23023C24.1855 1.2339 24.1709 1.23806 24.1564 1.24274L23.7439 1.39276C23.7355 1.39467 23.7272 1.39675 23.7189 1.39902L23.3188 1.56155C23.3082 1.56541 23.2978 1.56958 23.2875 1.57405L22.9187 1.74908C22.9037 1.75676 22.8892 1.76509 22.875 1.77409L22.5436 1.96787C22.5196 1.98076 22.4967 1.99534 22.4749 2.01163L22.2061 2.22417C22.1859 2.24155 22.1672 2.26031 22.1498 2.28043L21.931 2.50548C21.92 2.51749 21.9096 2.53 21.8998 2.54298L21.7247 2.76803C21.7086 2.78776 21.694 2.8086 21.681 2.83054L21.5685 3.03683C21.5685 3.03891 21.5685 3.041 21.5685 3.04308L21.4872 3.18686L21.4372 3.27437C21.4253 3.29232 21.4149 3.31108 21.4059 3.33063L21.3872 3.38689C21.3367 3.51822 21.3492 3.64324 21.4247 3.76197L21.4372 3.77447C21.572 3.97899 21.7471 4.02275 21.9623 3.90574Z" fill="black"/>
<path d="M32.733 4.7934C32.733 4.90043 32.7709 4.99178 32.8466 5.06746C32.9222 5.14313 33.0136 5.18097 33.1206 5.18097C33.2276 5.18097 33.319 5.14313 33.3947 5.06746C33.4703 4.99178 33.5082 4.90043 33.5082 4.7934C33.5082 4.68637 33.4703 4.59502 33.3947 4.51934C33.319 4.44367 33.2276 4.40583 33.1206 4.40583C33.0136 4.40583 32.9222 4.44367 32.8466 4.51934C32.7709 4.59502 32.733 4.68637 32.733 4.7934ZM32.7205 4.7934C32.7205 4.90388 32.7596 4.99818 32.8377 5.0763C32.9158 5.15442 33.0101 5.19348 33.1206 5.19348C33.2311 5.19348 33.3254 5.15442 33.4035 5.0763C33.4816 4.99818 33.5207 4.90388 33.5207 4.7934C33.5207 4.68292 33.4816 4.58862 33.4035 4.5105C33.3254 4.43238 33.2311 4.39332 33.1206 4.39332C33.0101 4.39332 32.9158 4.43238 32.8377 4.5105C32.7596 4.58862 32.7205 4.68292 32.7205 4.7934ZM32.6705 4.7934C32.6705 4.91596 32.7139 5.02057 32.8005 5.10724C32.8872 5.1939 32.9918 5.23723 33.1144 5.23723C33.2369 5.23723 33.3415 5.1939 33.4282 5.10724C33.5149 5.02057 33.5582 4.91596 33.5582 4.7934C33.5582 4.67084 33.5149 4.56623 33.4282 4.47956C33.3415 4.3929 33.2369 4.34957 33.1144 4.34957C32.9918 4.34957 32.8872 4.3929 32.8005 4.47956C32.7139 4.56623 32.6705 4.67084 32.6705 4.7934ZM32.5705 4.79965C32.5705 4.94983 32.6236 5.07802 32.7298 5.18421C32.836 5.29041 32.9642 5.3435 33.1144 5.3435C33.2645 5.3435 33.3927 5.29041 33.4989 5.18421C33.6051 5.07802 33.6582 4.94983 33.6582 4.79965C33.6582 4.64947 33.6051 4.52128 33.4989 4.41509C33.3927 4.30889 33.2645 4.2558 33.1144 4.2558C32.9642 4.2558 32.836 4.30889 32.7298 4.41509C32.6236 4.52128 32.5705 4.64947 32.5705 4.79965ZM32.8081 5.34976L32.9018 5.40602C33.0131 5.47406 33.134 5.5074 33.2644 5.50604H33.4957C33.5313 5.5067 33.5667 5.50462 33.602 5.49978L33.9833 5.43727C34.0236 5.43241 34.0632 5.42408 34.1021 5.41227L34.6272 5.23098C34.6757 5.21352 34.7216 5.1906 34.7647 5.16222L35.271 4.83716L35.6461 4.68088C35.7738 4.62736 35.8639 4.53653 35.9164 4.40836C35.9689 4.28019 35.9684 4.15224 35.9149 4.0245C35.8614 3.89676 35.7705 3.80665 35.6424 3.75416C35.5142 3.70168 35.3863 3.70219 35.2585 3.7557L34.9147 3.89948L34.3458 3.96199C34.327 3.96326 34.3083 3.96534 34.2896 3.96824L33.752 4.07451L33.4207 4.13077L33.2269 4.14328C33.1605 4.14632 33.0959 4.15883 33.0331 4.18078L32.9268 4.21829C32.6779 4.30754 32.5396 4.48368 32.512 4.74671C32.4844 5.00974 32.5831 5.21075 32.8081 5.34976Z" fill="black"/>
<path d="M3.99618 20.6776C3.99618 20.7708 4.02914 20.8504 4.09505 20.9163C4.16096 20.9822 4.24053 21.0151 4.33374 21.0151C4.42696 21.0151 4.50652 20.9822 4.57244 20.9163C4.63835 20.8504 4.67131 20.7708 4.67131 20.6776C4.67131 20.5844 4.63835 20.5048 4.57244 20.4389C4.50652 20.373 4.42696 20.34 4.33374 20.34C4.24053 20.34 4.16096 20.373 4.09505 20.4389C4.02914 20.5048 3.99618 20.5844 3.99618 20.6776ZM4.02744 20.4338L4.00868 20.4588L3.93367 20.5463C3.90282 20.5822 3.87782 20.6218 3.85865 20.6651L3.74613 20.9214C3.7365 20.9417 3.72817 20.9625 3.72113 20.9839L3.5836 21.434C3.58342 21.4423 3.58342 21.4506 3.5836 21.459L3.42732 22.0403C3.42466 22.0548 3.42258 22.0694 3.42107 22.0841L3.30855 22.703C3.30402 22.732 3.30194 22.7611 3.3023 22.7905L3.28979 23.3343C3.28995 23.3574 3.29204 23.3804 3.29605 23.4031L3.35231 23.7594L3.30855 23.997C3.27938 24.172 3.35231 24.2741 3.52734 24.3033C3.70237 24.3324 3.80448 24.2595 3.83365 24.0845L3.87116 23.8532L4.05244 23.5531C4.06146 23.5411 4.06979 23.5286 4.07744 23.5156L4.30249 23.0155C4.31216 22.9952 4.3205 22.9744 4.32749 22.953L4.51503 22.3529C4.51951 22.3426 4.52368 22.3322 4.52753 22.3216L4.67131 21.734C4.67358 21.7257 4.67567 21.7174 4.67756 21.709L4.77133 21.2464C4.77987 21.2073 4.78404 21.1677 4.78383 21.1277L4.77758 20.8464C4.7758 20.8081 4.76955 20.7706 4.75882 20.7338L4.72757 20.6151C4.72421 20.6003 4.72004 20.5857 4.71507 20.5713L4.69631 20.5338C4.66997 20.4697 4.62952 20.4162 4.57496 20.3735C4.52039 20.3307 4.45883 20.3042 4.39026 20.2939C4.3217 20.2837 4.25507 20.291 4.19039 20.316C4.1257 20.3409 4.07138 20.3802 4.02744 20.4338Z" fill="black"/>
<path d="M3.32112 23.1906C3.32112 23.2994 3.35957 23.3922 3.43647 23.4691C3.51337 23.546 3.6062 23.5845 3.71495 23.5845C3.8237 23.5845 3.91652 23.546 3.99342 23.4691C4.07032 23.3922 4.10877 23.2994 4.10877 23.1906C4.10877 23.0819 4.07032 22.9891 3.99342 22.9122C3.91652 22.8353 3.8237 22.7968 3.71495 22.7968C3.6062 22.7968 3.51337 22.8353 3.43647 22.9122C3.35957 22.9891 3.32112 23.0819 3.32112 23.1906ZM3.35863 23.3969L3.36488 23.4032C3.44216 23.5352 3.55715 23.6061 3.70984 23.6158C3.86253 23.6255 3.98555 23.5697 4.0789 23.4485C4.17225 23.3273 4.19473 23.1941 4.14635 23.0489C4.09797 22.9038 4.00007 22.8107 3.85265 22.7697C3.70524 22.7288 3.57336 22.758 3.45702 22.8573C3.34068 22.9567 3.29121 23.0824 3.30862 23.2344C3.31388 23.2921 3.33055 23.3463 3.35863 23.3969ZM3.29612 23.1781C3.29612 23.3093 3.3425 23.4213 3.43527 23.5141C3.52804 23.6068 3.64002 23.6532 3.77121 23.6532C3.9024 23.6532 4.01438 23.6068 4.10715 23.5141C4.19992 23.4213 4.2463 23.3093 4.2463 23.1781C4.2463 23.0469 4.19992 22.935 4.10715 22.8422C4.01438 22.7494 3.9024 22.703 3.77121 22.703C3.64002 22.703 3.52804 22.7494 3.43527 22.8422C3.3425 22.935 3.29612 23.0469 3.29612 23.1781ZM3.43364 23.5407L3.4899 23.597C3.49788 23.6077 3.50621 23.6181 3.51491 23.6282L3.60868 23.7095C3.6358 23.735 3.66497 23.7579 3.69619 23.7782L3.85873 23.8845C3.88664 23.9034 3.91581 23.9201 3.94624 23.9345L4.17128 24.0345C4.18566 24.0413 4.20024 24.0475 4.21504 24.0533L4.48384 24.1533C4.48593 24.1533 4.48801 24.1533 4.4901 24.1533L4.79015 24.2658L5.13397 24.3971C5.14019 24.3993 5.14644 24.4014 5.15272 24.4034L5.53404 24.5346C5.54842 24.5414 5.56301 24.5476 5.5778 24.5534L6.00913 24.6722C6.01951 24.6745 6.02993 24.6766 6.04039 24.6784L6.50298 24.7847C6.5297 24.7925 6.55679 24.7988 6.58424 24.8034L7.09059 24.8597C7.1281 24.8627 7.1656 24.8627 7.20311 24.8597L7.74697 24.8347C7.7827 24.8332 7.81812 24.829 7.85324 24.8222L8.44085 24.7159C8.47054 24.7094 8.49972 24.7011 8.52836 24.6909L9.14723 24.4909C9.15985 24.4871 9.17235 24.4829 9.18474 24.4784L9.83486 24.2283C9.83903 24.2284 9.8432 24.2284 9.84737 24.2283L10.4725 23.972C10.4746 23.972 10.4767 23.972 10.4787 23.972L11.0663 23.7345C11.0726 23.7325 11.0789 23.7304 11.0851 23.7282L11.6227 23.4907C11.6311 23.4888 11.6394 23.4867 11.6477 23.4844L12.1416 23.2469L12.6291 23.0344L13.0917 22.8343L13.5356 22.6655L13.9919 22.5343L14.517 22.4092L15.1046 22.3155L15.7297 22.328L16.3674 22.4467L16.9675 22.6968L17.5676 23.0531L18.1677 23.4657C18.1878 23.4794 18.2087 23.4919 18.2302 23.5032L18.8178 23.8158L19.2367 24.1096L19.4679 24.4221C19.5721 24.5596 19.693 24.5763 19.8305 24.4721C19.968 24.3679 19.9847 24.2471 19.8805 24.1096L19.6367 23.7845L19.3929 23.2969L19.0866 22.6718C19.0564 22.609 19.0168 22.5527 18.9679 22.503L18.4365 21.9717C18.4003 21.9361 18.3607 21.9048 18.3177 21.8779L17.6676 21.4591C17.6318 21.437 17.5943 21.4182 17.5551 21.4028L16.8362 21.109C16.7878 21.0888 16.7378 21.0743 16.6862 21.0652L15.9235 20.9402C15.8843 20.9327 15.8447 20.9285 15.8047 20.9277H15.0546C15.0211 20.9274 14.9878 20.9295 14.9546 20.934L14.2795 21.034C14.2584 21.0372 14.2376 21.0414 14.2169 21.0465L13.6481 21.184C13.6397 21.1859 13.6314 21.188 13.6231 21.1903L13.123 21.3278C13.104 21.3332 13.0852 21.3395 13.0667 21.3465L12.5854 21.5278C12.5728 21.5316 12.5603 21.5358 12.5479 21.5403L12.0728 21.7466L11.5664 21.9654L11.0601 22.1842L10.5225 22.4092L9.94738 22.6468L9.32227 22.8906L8.69715 23.1219L8.12829 23.3032L7.62819 23.3969L7.19686 23.4157L6.78428 23.3719L6.37795 23.2782L5.98413 23.1719L5.62781 23.0531L5.284 22.9281C5.2757 22.9259 5.26736 22.9238 5.25899 22.9218L4.95268 22.8218C4.94854 22.8197 4.94437 22.8176 4.94018 22.8156L4.66513 22.728C4.64047 22.7204 4.61546 22.7142 4.59011 22.7093L4.34632 22.6655C4.33387 22.6631 4.32137 22.661 4.30881 22.6593L4.11502 22.6343C4.09014 22.6307 4.06514 22.6286 4.04001 22.628H3.91499C3.86203 22.6271 3.80994 22.6333 3.75871 22.6468L3.68369 22.6655C3.59378 22.6898 3.51567 22.7347 3.44934 22.8001C3.38302 22.8655 3.33706 22.9429 3.31148 23.0325C3.28589 23.122 3.28398 23.2121 3.30575 23.3027C3.32752 23.3932 3.37015 23.4726 3.43364 23.5407Z" fill="black"/>
<path d="M18.6928 22.8968L18.6866 22.9156C18.6916 22.9012 18.6958 22.8866 18.6991 22.8718L18.6741 22.9406C18.6604 22.979 18.652 23.0186 18.6491 23.0593L18.6366 23.2594C18.6304 23.3661 18.6533 23.4661 18.7054 23.5594L18.8866 23.897C18.915 23.9483 18.9504 23.9941 18.9929 24.0345L19.3555 24.3783C19.3909 24.4131 19.4305 24.4423 19.4742 24.4658L19.9681 24.7284C19.9903 24.7388 20.0132 24.7471 20.0369 24.7534L20.5119 24.8972L20.862 25.0972C21.012 25.1804 21.1286 25.1471 21.2119 24.9971C21.2952 24.8472 21.2619 24.7305 21.1121 24.6471L20.7745 24.4596L20.4682 24.1033L20.1369 23.6844L19.8493 23.2969L19.643 22.9843C19.6144 22.9444 19.5811 22.909 19.543 22.878L19.3867 22.7468C19.3691 22.7307 19.3504 22.7161 19.3305 22.703L19.268 22.6718C19.2938 22.7788 19.3542 22.86 19.4492 22.9156L19.443 22.8968C19.3927 22.7035 19.2676 22.6069 19.0679 22.6069C18.8682 22.6069 18.7432 22.7035 18.6928 22.8968Z" fill="black"/>
<path d="M21.462 25.0847C21.462 25.1952 21.501 25.2895 21.5792 25.3676C21.6573 25.4457 21.7516 25.4848 21.8621 25.4848C21.9725 25.4848 22.0668 25.4457 22.1449 25.3676C22.2231 25.2895 22.2621 25.1952 22.2621 25.0847C22.2621 24.9742 22.2231 24.8799 22.1449 24.8018C22.0668 24.7237 21.9725 24.6846 21.8621 24.6846C21.7516 24.6846 21.6573 24.7237 21.5792 24.8018C21.501 24.8799 21.462 24.9742 21.462 25.0847ZM21.437 25.0785C21.437 25.1941 21.4779 25.2928 21.5596 25.3746C21.6414 25.4564 21.7401 25.4973 21.8558 25.4973C21.9715 25.4973 22.0702 25.4564 22.152 25.3746C22.2337 25.2928 22.2746 25.1941 22.2746 25.0785C22.2746 24.9628 22.2337 24.8641 22.152 24.7823C22.0702 24.7005 21.9715 24.6596 21.8558 24.6596C21.7401 24.6596 21.6414 24.7005 21.5596 24.7823C21.4779 24.8641 21.437 24.9628 21.437 25.0785ZM21.4057 25.066C21.4057 25.1885 21.4491 25.2931 21.5357 25.3798C21.6224 25.4665 21.727 25.5098 21.8496 25.5098C21.9721 25.5098 22.0767 25.4665 22.1634 25.3798C22.2501 25.2931 22.2934 25.1885 22.2934 25.066C22.2934 24.9434 22.2501 24.8388 22.1634 24.7521C22.0767 24.6654 21.9721 24.6221 21.8496 24.6221C21.727 24.6221 21.6224 24.6654 21.5357 24.7521C21.4491 24.8388 21.4057 24.9434 21.4057 25.066ZM21.3557 25.0534C21.3557 25.1864 21.4027 25.2998 21.4967 25.3938C21.5907 25.4878 21.7041 25.5348 21.8371 25.5348C21.97 25.5348 22.0834 25.4878 22.1774 25.3938C22.2714 25.2998 22.3184 25.1864 22.3184 25.0534C22.3184 24.9205 22.2714 24.8071 22.1774 24.7131C22.0834 24.6191 21.97 24.5721 21.8371 24.5721C21.7041 24.5721 21.5907 24.6191 21.4967 24.7131C21.4027 24.8071 21.3557 24.9205 21.3557 25.0534ZM22.2871 25.3035L22.3371 25.241L22.4434 25.091C22.4455 25.0889 22.4476 25.0868 22.4497 25.0847L22.6059 24.8784L22.806 24.6596L23.0873 24.4221L23.4686 24.1658L23.9687 23.9157L24.5876 23.6844L25.3252 23.4844L26.1566 23.3156L27.0068 23.2093L27.8257 23.1781L28.5633 23.2281L29.2385 23.3656L29.8948 23.5907L30.5575 23.9157L31.2701 24.2971C31.2804 24.3035 31.2908 24.3098 31.3014 24.3158L32.0515 24.6784C32.09 24.6977 32.1296 24.7143 32.1703 24.7284L32.9642 24.9909C33.0234 25.0092 33.0838 25.0217 33.1455 25.0284L34.0206 25.1472C34.0725 25.1535 34.1246 25.1555 34.1769 25.1535L35.1021 25.1222C35.1398 25.1202 35.1773 25.116 35.2146 25.1097L36.121 24.9784C36.2007 24.9673 36.2778 24.9464 36.3523 24.9159L37.14 24.5846C37.3028 24.5182 37.4299 24.4098 37.5213 24.2595L37.8088 23.7845L38.3402 23.5469C38.4716 23.4651 38.5064 23.3532 38.4445 23.2113C38.3827 23.0694 38.2771 23.0187 38.1277 23.0593L37.6151 23.2906L37.1212 23.0968C37.0224 23.06 36.9203 23.0433 36.8149 23.0468L35.9585 23.0656C35.9355 23.0668 35.9126 23.0689 35.8897 23.0718L35.0083 23.1593L34.1832 23.1906L33.4768 23.1093L32.8329 22.8968L32.1515 22.5842L31.4389 22.2092C31.4265 22.2026 31.414 22.1964 31.4014 22.1904L30.6575 21.8466C30.6269 21.8324 30.5956 21.8199 30.5637 21.8091L29.7948 21.5465C29.7559 21.5335 29.7163 21.5231 29.676 21.5153L28.8759 21.3527C28.8305 21.3431 28.7847 21.3369 28.7384 21.334L27.8882 21.2902C27.8486 21.2877 27.809 21.2877 27.7694 21.2902L26.863 21.359C26.8294 21.3613 26.7961 21.3655 26.763 21.3715L25.8503 21.5465C25.8314 21.5501 25.8127 21.5543 25.7941 21.559L24.9126 21.7778C24.8895 21.7831 24.8665 21.7894 24.8439 21.7966L24.05 22.0654C24.018 22.076 23.9867 22.0885 23.9562 22.1029L23.2811 22.4279C23.2509 22.4428 23.2217 22.4595 23.1936 22.478L22.6497 22.8343C22.6191 22.8531 22.5899 22.8739 22.5622 22.8968L22.1496 23.2531C22.1131 23.2833 22.0798 23.3166 22.0496 23.3531L21.7683 23.7094C21.7502 23.7314 21.7336 23.7543 21.7183 23.7782L21.5182 24.1033C21.5042 24.1275 21.4917 24.1525 21.4807 24.1783L21.3557 24.4471C21.3349 24.4953 21.3204 24.5453 21.312 24.5971L21.2744 24.7972C21.261 24.8747 21.2631 24.9518 21.2807 25.0284L21.3057 25.1222C21.364 25.349 21.5083 25.4836 21.7385 25.5262C21.9688 25.5687 22.1517 25.4945 22.2871 25.3035Z" fill="black"/>
<path d="M34.9146 4.64335C34.9146 4.75211 34.953 4.84493 35.0299 4.92183C35.1068 4.99873 35.1997 5.03718 35.3084 5.03718C35.4172 5.03718 35.51 4.99873 35.5869 4.92183C35.6638 4.84493 35.7022 4.75211 35.7022 4.64335C35.7022 4.5346 35.6638 4.44178 35.5869 4.36488C35.51 4.28798 35.4172 4.24953 35.3084 4.24953C35.1997 4.24953 35.1068 4.28798 35.0299 4.36488C34.953 4.44178 34.9146 4.5346 34.9146 4.64335ZM35.7022 4.66211L35.7085 4.6121C35.7091 4.5996 35.7091 4.58709 35.7085 4.57459L35.7022 4.51833L35.7085 4.44957C35.7085 4.33564 35.6682 4.23839 35.5877 4.15783C35.5071 4.07727 35.4098 4.03699 35.2959 4.03699C35.182 4.03699 35.0847 4.07727 35.0042 4.15783C34.9236 4.23839 34.8833 4.33564 34.8833 4.44957L34.8896 4.53083C34.889 4.54334 34.889 4.55584 34.8896 4.56834L34.8958 4.63085L34.9021 4.66211C34.9021 4.77259 34.9412 4.86689 35.0193 4.94501C35.0974 5.02313 35.1917 5.06218 35.3022 5.06218C35.4126 5.06218 35.5069 5.02313 35.5851 4.94501C35.6632 4.86689 35.7022 4.77259 35.7022 4.66211ZM35.7523 4.51833L35.7585 4.49958C35.8128 4.37564 35.8157 4.25052 35.7672 4.12421C35.7186 3.9979 35.6327 3.90691 35.5094 3.85124C35.386 3.79557 35.261 3.79131 35.1341 3.83846C35.0073 3.88561 34.9154 3.97054 34.8583 4.09325L34.8271 4.14951C34.7815 4.22443 34.7565 4.3057 34.7521 4.39331L34.7458 4.57459C34.7457 4.58084 34.7457 4.58709 34.7458 4.59334V4.92466C34.7457 4.93091 34.7457 4.93716 34.7458 4.94341L34.7646 5.46851C34.7645 5.47268 34.7645 5.47685 34.7646 5.48101L34.8021 6.24366C34.802 6.24991 34.802 6.25616 34.8021 6.26241L34.8833 7.29386C34.8833 7.29803 34.8833 7.30219 34.8833 7.30636L35.0084 8.5691L35.1334 9.98812C35.1354 9.9944 35.1375 10.0007 35.1396 10.0069L35.3147 11.5259C35.3146 11.5322 35.3146 11.5384 35.3147 11.5447L35.5335 13.07C35.5335 13.072 35.5335 13.0741 35.5335 13.0762L35.746 14.5515C35.748 14.5557 35.7501 14.5598 35.7523 14.564L35.971 15.908C35.9731 15.9122 35.9752 15.9164 35.9773 15.9205L36.1961 17.1082C36.1961 17.1103 36.1961 17.1124 36.1961 17.1145L36.3961 18.1459C36.3961 18.1501 36.3961 18.1543 36.3961 18.1584L36.5899 19.0711L36.7524 19.8775C36.7524 19.8796 36.7524 19.8817 36.7524 19.8838L36.9025 20.5964L37.0275 21.209C37.0295 21.2153 37.0316 21.2215 37.0337 21.2278L37.1463 21.7341C37.1463 21.7362 37.1463 21.7383 37.1463 21.7404L37.24 22.1279C37.242 22.1342 37.2441 22.1405 37.2463 22.1467L37.3151 22.4217C37.3206 22.4407 37.3268 22.4595 37.3338 22.478L37.3963 22.653C37.4575 22.8272 37.568 22.9605 37.7276 23.0531L37.8151 23.1031C37.9088 23.1576 38.0097 23.1878 38.1179 23.1938C38.226 23.1997 38.3296 23.1807 38.4286 23.1368C38.5277 23.0928 38.6113 23.0287 38.6795 22.9446C38.7476 22.8604 38.7929 22.7653 38.8153 22.6593L38.8341 22.5593C38.8611 22.4353 38.857 22.3123 38.8216 22.1904L38.7778 22.0342L38.7153 21.7779C38.7153 21.7758 38.7153 21.7737 38.7153 21.7716L38.6215 21.3965L38.5153 20.9027L38.3903 20.2901C38.3903 20.288 38.3903 20.2859 38.3903 20.2838L38.2402 19.5774L38.0777 18.7648C38.0777 18.7627 38.0777 18.7606 38.0777 18.7585L37.8839 17.8521L37.6839 16.8269L37.4713 15.6517L37.2588 14.3202L37.0337 12.8512L36.815 11.3321C36.815 11.33 36.815 11.328 36.815 11.3259L36.5899 9.81934C36.59 9.81517 36.59 9.811 36.5899 9.80684L36.3524 8.40657L36.1773 7.15633L36.0461 6.13114C36.0461 6.12905 36.0461 6.12697 36.0461 6.12489L35.9335 5.36224C35.9335 5.36016 35.9335 5.35807 35.9335 5.35599L35.8523 4.83714L35.8023 4.52458L35.7835 4.3558C35.7836 4.34955 35.7836 4.3433 35.7835 4.33705L35.7773 4.28079C35.5994 4.14917 35.416 4.14084 35.2269 4.25578C35.0379 4.37072 34.9609 4.53742 34.9959 4.75588L35.0084 4.76213C35.1419 4.85646 35.2863 4.87818 35.4416 4.82727C35.5969 4.77636 35.7005 4.67338 35.7523 4.51833ZM37.6714 22.5843C37.6714 22.7293 37.7226 22.853 37.8252 22.9556C37.9277 23.0581 38.0515 23.1094 38.1965 23.1094C38.3415 23.1094 38.4652 23.0581 38.5678 22.9556C38.6703 22.853 38.7216 22.7293 38.7216 22.5843C38.7216 22.4393 38.6703 22.3155 38.5678 22.213C38.4652 22.1104 38.3415 22.0592 38.1965 22.0592C38.0515 22.0592 37.9277 22.1104 37.8252 22.213C37.7226 22.3155 37.6714 22.4393 37.6714 22.5843ZM37.8214 22.628C37.8214 22.742 37.8617 22.8392 37.9422 22.9198C38.0228 23.0003 38.12 23.0406 38.234 23.0406C38.3479 23.0406 38.4451 23.0003 38.5257 22.9198C38.6063 22.8392 38.6466 22.742 38.6466 22.628C38.6466 22.5141 38.6063 22.4169 38.5257 22.3363C38.4451 22.2557 38.3479 22.2155 38.234 22.2155C38.12 22.2155 38.0228 22.2557 37.9422 22.3363C37.8617 22.4169 37.8214 22.5141 37.8214 22.628ZM38.3527 22.8906L38.3715 22.8843C38.5421 22.8259 38.5983 22.7113 38.54 22.5406C38.4817 22.3699 38.3672 22.3136 38.1965 22.3717L38.1777 22.378C38.0071 22.4364 37.9509 22.551 38.0092 22.7217C38.0675 22.8924 38.182 22.9487 38.3527 22.8906Z" fill="black"/>
<path d="M6.53442 5.33733C6.53442 5.55404 6.64277 5.66239 6.85948 5.66239C7.07619 5.66239 7.18454 5.55404 7.18454 5.33733C7.18454 5.12062 7.07619 5.01227 6.85948 5.01227C6.64277 5.01227 6.53442 5.12062 6.53442 5.33733ZM7.19079 5.16855L7.18454 5.15604C7.18665 5.21358 7.20124 5.26776 7.2283 5.31857V5.30607V5.29357C7.10556 5.36441 7.04305 5.47068 7.04076 5.61238L7.05952 5.59988C7.11054 5.57013 7.15222 5.53054 7.18454 5.48111L7.2033 5.4561C7.24009 5.39674 7.25884 5.33215 7.25956 5.26231V5.24356C7.25912 5.25398 7.25912 5.2644 7.25956 5.27482V5.26231C7.27255 5.14213 7.23599 5.03962 7.14987 4.95478C7.06375 4.86995 6.9607 4.83493 6.84073 4.84974H6.82197C6.79178 4.8545 6.76261 4.86284 6.73446 4.87474L6.65944 4.89974L6.60318 4.91225L6.47816 4.931L6.31563 4.94975L6.12184 4.96851C6.11553 4.97043 6.10928 4.97251 6.10309 4.97476L5.9218 4.99976C5.77471 5.02179 5.67677 5.10305 5.628 5.24356L5.60299 5.31857C5.68627 5.29896 5.74253 5.24895 5.77177 5.16855L5.6655 5.19355C5.51131 5.23106 5.45296 5.32691 5.49047 5.48111C5.52798 5.6353 5.62383 5.69365 5.77802 5.65614L5.88429 5.63113C5.82071 5.56275 5.74361 5.53983 5.653 5.56237L5.70301 5.61863C5.7887 5.71346 5.89497 5.75305 6.02182 5.7374L6.19685 5.71865L6.39064 5.6999L6.56567 5.68114C6.57828 5.67969 6.59078 5.67761 6.60318 5.67489L6.74696 5.64364C6.75113 5.64371 6.75529 5.64371 6.75946 5.64364L6.85948 5.61863C6.86579 5.61671 6.87204 5.61463 6.87823 5.61238L6.972 5.58738C6.92114 5.5813 6.87113 5.58547 6.82197 5.59988H6.84073C6.8217 5.39764 6.71126 5.28512 6.50941 5.26231V5.27482C6.50985 5.2644 6.50985 5.25398 6.50941 5.24356V5.26231C6.52644 5.21805 6.53478 5.17221 6.53442 5.12479L6.52192 5.14979C6.58 5.10569 6.62167 5.04943 6.64694 4.98101L6.62819 4.99351C6.52817 5.06853 6.47816 5.16855 6.47816 5.29357V5.30607V5.31857C6.47829 5.38053 6.49287 5.43888 6.52192 5.49361L6.52817 5.50611C6.6524 5.68662 6.81214 5.72714 7.00739 5.62767C7.20264 5.5282 7.26378 5.37516 7.19079 5.16855Z" fill="black"/>
<path d="M5.29031 5.67495C5.29031 5.77162 5.32449 5.85413 5.39284 5.92248C5.4612 5.99084 5.54371 6.02501 5.64038 6.02501C5.73705 6.02501 5.81956 5.99084 5.88791 5.92248C5.95627 5.85413 5.99044 5.77162 5.99044 5.67495C5.99044 5.57828 5.95627 5.49577 5.88791 5.42741C5.81956 5.35906 5.73705 5.32488 5.64038 5.32488C5.54371 5.32488 5.4612 5.35906 5.39284 5.42741C5.32449 5.49577 5.29031 5.57828 5.29031 5.67495ZM5.47785 5.34363L5.45284 5.34989C5.44212 5.35563 5.4317 5.36188 5.42159 5.36864L5.38408 5.39364C5.35416 5.41081 5.32707 5.43164 5.30281 5.45616L5.23405 5.53742C5.21525 5.55656 5.19858 5.57739 5.18404 5.59993L5.07777 5.77497C5.07091 5.78716 5.06466 5.79967 5.05902 5.81247L4.92149 6.10003C4.91467 6.11225 4.90842 6.12475 4.90274 6.13754L4.74646 6.57512C4.74205 6.58333 4.73788 6.59167 4.73395 6.60012L4.54017 7.244C4.53796 7.25021 4.53588 7.25646 4.53392 7.26275L4.30887 8.11916C4.30886 8.12125 4.30886 8.12333 4.30887 8.12541L4.05258 9.18186C4.05256 9.18395 4.05256 9.18603 4.05258 9.18812L3.76502 10.3758L3.45871 11.6386L3.1274 12.9138L2.79609 14.1703L2.43977 15.3643L2.0647 16.5395L1.70838 17.6772C1.70623 17.6814 1.70415 17.6855 1.70213 17.6897L1.38957 18.7774C1.38735 18.7836 1.38527 18.7899 1.38332 18.7962L1.13952 19.8026C1.13737 19.8068 1.13529 19.8109 1.13327 19.8151L0.958236 20.6966C0.956129 20.6986 0.954046 20.7007 0.951985 20.7028L0.808208 21.4655C0.802801 21.4944 0.800717 21.5236 0.801957 21.553L0.833213 22.1031L0.783203 22.4781C0.785972 22.6266 0.860802 22.7115 1.00769 22.733C1.15458 22.7545 1.25062 22.6946 1.2958 22.5532L1.35206 22.1843L1.54585 21.678C1.55386 21.6577 1.56011 21.6368 1.5646 21.6155L1.73338 20.8778L1.97093 20.0277L2.28974 19.0525C2.28975 19.0504 2.28975 19.0483 2.28974 19.0462L2.62105 17.9648L2.97737 16.8271L3.35244 15.6518C3.35245 15.6498 3.35245 15.6477 3.35244 15.6456L3.72126 14.4391C3.72127 14.437 3.72127 14.4349 3.72126 14.4329L4.07133 13.1701C4.07343 13.1681 4.07552 13.166 4.07758 13.1639L4.40889 11.8824C4.40891 11.8803 4.40891 11.8782 4.40889 11.8761L4.7277 10.6134L5.01526 9.41941L5.28406 8.36921L5.4966 7.5128L5.67788 6.87518C5.67794 6.87101 5.67794 6.86684 5.67788 6.86267L5.79041 6.41259L5.86542 6.10003C5.86765 6.09382 5.86973 6.08757 5.87167 6.08127L5.89668 5.94375L5.88417 5.95625C6.02857 5.81165 6.04429 5.6542 5.93134 5.48391C5.81839 5.31361 5.66722 5.26686 5.47785 5.34363Z" fill="black"/>
<path d="M1.88349 19.5025L1.84598 19.5775C1.83834 19.5958 1.83209 19.6146 1.82723 19.6338L1.75222 19.9089C1.75006 19.913 1.74798 19.9172 1.74596 19.9214L1.63969 20.3965C1.63759 20.3985 1.6355 20.4006 1.63344 20.4027L1.50217 21.0278C1.50215 21.0299 1.50215 21.032 1.50217 21.0341L1.35839 21.7217L1.22086 22.4156C1.21878 22.4156 1.2167 22.4156 1.21461 22.4156L1.08334 23.0782L0.964566 23.6783C0.962411 23.6825 0.960328 23.6866 0.958315 23.6908L0.870798 24.1972C0.860036 24.2655 0.866287 24.3321 0.889552 24.3972L0.977068 24.666L0.945812 24.8661C0.944602 24.9896 1.00485 25.0622 1.12657 25.0837C1.24829 25.1051 1.32973 25.0576 1.37089 24.9411L1.4084 24.741L1.58343 24.5222C1.62806 24.4693 1.65723 24.4088 1.67095 24.341L1.76472 23.8409L1.88974 23.247C1.89185 23.2449 1.89393 23.2429 1.89599 23.2407L2.02727 22.5781L2.16479 21.8905L2.31482 21.2029L2.4461 20.5777L2.54612 20.1026C2.54827 20.0985 2.55035 20.0944 2.55237 20.0901L2.59613 19.8088C2.59821 19.8088 2.60029 19.8088 2.60238 19.8088L2.61488 19.7276C2.64522 19.5097 2.55526 19.3684 2.34499 19.3037C2.13472 19.239 1.98089 19.3053 1.88349 19.5025Z" fill="black"/>
<path d="M1.31468 21.8217C1.31468 22.0218 1.4147 22.1218 1.61474 22.1218C1.81478 22.1218 1.9148 22.0218 1.9148 21.8217C1.9148 21.6217 1.81478 21.5217 1.61474 21.5217C1.4147 21.5217 1.31468 21.6217 1.31468 21.8217ZM1.20216 21.8342L1.1334 22.1468C1.12777 22.1674 1.1236 22.1882 1.12089 22.2093L1.06463 22.7969C1.06458 22.8011 1.06458 22.8053 1.06463 22.8094L1.00837 23.5658C1.00824 23.5721 1.00824 23.5783 1.00837 23.5846L0.983368 24.3972C0.984382 24.414 0.986466 24.4307 0.989619 24.4472L1.05213 25.1161L1.00212 25.6287C0.985638 25.8036 1.06483 25.8994 1.23969 25.916C1.41455 25.9327 1.5104 25.8536 1.52722 25.6787L1.57098 25.1661L1.75226 24.516C1.75728 24.5017 1.76144 24.4871 1.76477 24.4722L1.88979 23.6658C1.89201 23.6596 1.8941 23.6534 1.89604 23.6471L1.97731 22.8907C1.97732 22.8886 1.97732 22.8865 1.97731 22.8844L2.03357 22.2968C2.035 22.276 2.035 22.2552 2.03357 22.2343L2.02107 21.9093C2.02324 21.6561 1.89827 21.5179 1.64614 21.4948C1.39401 21.4718 1.24601 21.5849 1.20216 21.8342Z" fill="black"/>
<path d="M1.35831 25.9975C1.35831 26.0907 1.39127 26.1703 1.45718 26.2362C1.52309 26.3021 1.60266 26.3351 1.69587 26.3351C1.78909 26.3351 1.86866 26.3021 1.93457 26.2362C2.00048 26.1703 2.03344 26.0907 2.03344 25.9975C2.03344 25.9043 2.00048 25.8247 1.93457 25.7588C1.86866 25.6929 1.78909 25.6599 1.69587 25.6599C1.60266 25.6599 1.52309 25.6929 1.45718 25.7588C1.39127 25.8247 1.35831 25.9043 1.35831 25.9975ZM1.53959 26.3663L1.58335 26.3851C1.61161 26.3966 1.64079 26.4049 1.67087 26.4101L1.8084 26.4351C1.82288 26.4379 1.83746 26.44 1.85215 26.4413L2.12096 26.4663L2.53353 26.5101L3.1274 26.5726C3.13573 26.5728 3.14407 26.5728 3.1524 26.5726L3.94005 26.6101L4.92149 26.6789L6.07171 26.7539C6.08004 26.7541 6.08838 26.7541 6.09671 26.7539L7.3657 26.7852C7.37612 26.7854 7.38654 26.7854 7.39696 26.7852L8.74722 26.7351C8.75347 26.7353 8.75972 26.7353 8.76597 26.7351L10.1225 26.6414C10.1266 26.6414 10.1308 26.6414 10.135 26.6414L11.3977 26.5226L12.5292 26.4413L13.5231 26.3726L14.3858 26.3226C14.4026 26.3214 14.4193 26.3194 14.4358 26.3163L15.1422 26.1975L15.6923 26.2413C15.8632 26.258 15.9569 26.1809 15.9736 26.01C15.9903 25.8391 15.9132 25.7454 15.7423 25.7287L15.1797 25.6787L14.4858 25.4662C14.4612 25.4598 14.4362 25.4556 14.4108 25.4536L13.5481 25.3536C13.5336 25.3509 13.519 25.3488 13.5044 25.3474L12.5042 25.3286C12.4875 25.3279 12.4708 25.3279 12.4542 25.3286L11.3165 25.4036C11.3123 25.4057 11.3081 25.4078 11.304 25.4099L10.0412 25.5162L8.69721 25.6224L7.37821 25.6599L6.12172 25.6287L4.9715 25.6037C4.96941 25.6037 4.96733 25.6037 4.96525 25.6037L3.98381 25.5974L3.20241 25.5599C3.19824 25.5599 3.19408 25.5599 3.18991 25.5599L2.59605 25.5474C2.58979 25.5473 2.58354 25.5473 2.57729 25.5474L2.15846 25.5537C2.15429 25.5536 2.15013 25.5536 2.14596 25.5537L1.87091 25.5599C1.84977 25.5626 1.82893 25.5668 1.8084 25.5724L1.67712 25.5974L1.63336 25.6037C1.43567 25.6357 1.3246 25.751 1.30016 25.9498C1.27573 26.1486 1.35554 26.2874 1.53959 26.3663Z" fill="black"/>
<path d="M13.4919 25.6913C13.4919 25.8017 13.531 25.896 13.6091 25.9741C13.6872 26.0523 13.7815 26.0913 13.892 26.0913C14.0025 26.0913 14.0968 26.0523 14.1749 25.9741C14.253 25.896 14.2921 25.8017 14.2921 25.6913C14.2921 25.5808 14.253 25.4865 14.1749 25.4084C14.0968 25.3302 14.0025 25.2912 13.892 25.2912C13.7815 25.2912 13.6872 25.3302 13.6091 25.4084C13.531 25.4865 13.4919 25.5808 13.4919 25.6913ZM13.792 26.0851L13.8483 26.1163C13.9039 26.1419 13.9622 26.1565 14.0233 26.1601L14.2671 26.1788C14.2942 26.1809 14.3213 26.1809 14.3484 26.1788L14.7484 26.1538C14.7589 26.1521 14.7693 26.15 14.7797 26.1476L15.336 26.0788L16.0174 25.9913L16.7738 25.9038L17.5552 25.8225C17.585 25.8192 17.6142 25.8129 17.6427 25.8038L18.3116 25.6037L18.8867 25.585C19.0657 25.5806 19.1532 25.4889 19.149 25.3099C19.1448 25.1309 19.0532 25.0434 18.8742 25.0474L18.2929 25.0661L17.6052 24.9161C17.5721 24.9103 17.5388 24.9083 17.5052 24.9099L16.7113 24.9161C16.7092 24.9161 16.7071 24.9161 16.7051 24.9161L15.9424 24.9349C15.9341 24.9347 15.9257 24.9347 15.9174 24.9349L15.2298 24.9911C15.2194 24.9908 15.2089 24.9908 15.1985 24.9911L14.6422 25.0599C14.638 25.0598 14.6338 25.0598 14.6297 25.0599L14.2358 25.1161C14.2038 25.1216 14.1726 25.13 14.1421 25.1411L13.9045 25.2162C13.8693 25.229 13.8359 25.2457 13.8045 25.2662L13.717 25.3224L13.6857 25.3412C13.5363 25.4365 13.4741 25.5719 13.4992 25.7474C13.5242 25.9228 13.6218 26.0354 13.792 26.0851Z" fill="black"/>
<path d="M18.5116 25.2724C18.5116 25.3742 18.5476 25.4612 18.6196 25.5332C18.6916 25.6052 18.7786 25.6412 18.8804 25.6412C18.9823 25.6412 19.0692 25.6052 19.1412 25.5332C19.2132 25.4612 19.2492 25.3742 19.2492 25.2724C19.2492 25.1705 19.2132 25.0836 19.1412 25.0116C19.0692 24.9396 18.9823 24.9036 18.8804 24.9036C18.7786 24.9036 18.6916 24.9396 18.6196 25.0116C18.5476 25.0836 18.5116 25.1705 18.5116 25.2724ZM18.5991 24.9786L18.5554 25.0161C18.5254 25.0457 18.5004 25.079 18.4803 25.1161L18.4116 25.2349C18.3888 25.2741 18.3721 25.3158 18.3616 25.3599L18.3053 25.5849C18.2901 25.6491 18.288 25.7137 18.2991 25.7787L18.3491 26.06C18.3577 26.1197 18.3764 26.1759 18.4053 26.2288L18.5741 26.5226C18.607 26.5782 18.6486 26.6262 18.6991 26.6664L19.018 26.9227C19.0487 26.9494 19.082 26.9723 19.118 26.9915L19.5431 27.204C19.5634 27.2136 19.5842 27.222 19.6056 27.229L20.0994 27.3978C20.1381 27.4106 20.1776 27.419 20.2182 27.4228L20.787 27.4853C20.8353 27.49 20.8832 27.4879 20.9308 27.4791L21.5184 27.379C21.5507 27.3743 21.5819 27.366 21.6122 27.354L22.0748 27.1602L22.4686 27.079C22.634 27.0354 22.6988 26.93 22.6629 26.7627C22.6271 26.5955 22.5248 26.5259 22.3561 26.5539L21.9873 26.6351L21.5184 26.5539C21.5163 26.5539 21.5143 26.5539 21.5122 26.5539L20.9246 26.4664L20.412 26.3726L19.9869 26.2288L19.6368 26.0475L19.3993 25.8788L19.2993 25.7475L19.268 25.6412L19.2743 25.4849C19.2743 25.4808 19.2743 25.4766 19.2743 25.4724V25.3537L19.2805 25.3224C19.3025 25.1343 19.229 24.9976 19.06 24.9123C18.8909 24.827 18.7373 24.8491 18.5991 24.9786Z" fill="black"/>
<path d="M23.4 25.0536L23.3437 25.1099C23.2728 25.183 23.2353 25.2706 23.2312 25.3724L23.2187 25.5099C23.2186 25.5162 23.2186 25.5224 23.2187 25.5287V25.7162C23.2186 25.7225 23.2186 25.7287 23.2187 25.735L23.225 25.935L23.2312 26.1225V26.2163L23.225 26.2601V26.2788C23.2044 26.3858 23.2247 26.4844 23.2857 26.5746C23.3467 26.6648 23.4307 26.7202 23.5376 26.7409C23.6446 26.7616 23.7432 26.7415 23.8334 26.6806C23.9237 26.6197 23.9793 26.5358 24.0001 26.4289L24.0064 26.4163C23.9981 26.4387 23.9918 26.4616 23.9876 26.4851L23.9939 26.4539C24.0055 26.4256 24.0139 26.3965 24.0189 26.3663L24.0251 26.3413C24.045 26.2007 24.0021 26.0829 23.8964 25.9879C23.7907 25.8929 23.669 25.8628 23.5313 25.8975L23.4813 25.91C23.4265 25.9226 23.3765 25.9455 23.3312 25.9788L23.2125 26.0663L23.0499 26.1851L22.8624 26.3038L22.6999 26.4038L22.5623 26.4539L22.4748 26.4726L22.4186 26.4664L22.3498 26.4476C22.4027 26.4934 22.4632 26.5246 22.5311 26.5414L22.4686 26.4914C22.4928 26.5815 22.5408 26.6565 22.6124 26.7164L22.5999 26.6664C22.5461 26.7678 22.5336 26.8741 22.5623 26.9852L22.5936 26.9352C22.4909 26.9752 22.4138 27.044 22.3623 27.1415L22.4373 27.1102L22.5498 27.0727L22.7249 27.0227C22.7419 27.0174 22.7586 27.0112 22.7749 27.004L22.9874 26.9164C23.1115 26.8647 23.1948 26.7751 23.2375 26.6476L23.2437 26.6289L23.3187 26.5976C23.4769 26.5309 23.5227 26.4184 23.4561 26.2602C23.3894 26.1019 23.277 26.0561 23.1187 26.1225L23.0687 26.1475C22.9621 26.0734 22.8454 26.0505 22.7186 26.0788L22.4998 26.1288C22.4956 26.1308 22.4915 26.1329 22.4873 26.135L22.2998 26.1788C22.2892 26.1826 22.2788 26.1868 22.2685 26.1913L22.1373 26.2351C22.0743 26.2543 22.0181 26.2856 21.9685 26.3288L21.8997 26.3913C21.8449 26.4418 21.8053 26.5022 21.7809 26.5726L21.7622 26.6289C21.7314 26.7104 21.7251 26.7937 21.7434 26.8789L21.7559 26.9289C21.7804 27.0316 21.8346 27.115 21.9185 27.179L21.981 27.229C22.0313 27.2684 22.0876 27.2955 22.1498 27.3103L22.256 27.3353C22.285 27.3403 22.3142 27.3424 22.3436 27.3415L22.4873 27.3478C22.5254 27.3485 22.5629 27.3443 22.5999 27.3353L22.7811 27.2915C22.8025 27.2868 22.8233 27.2806 22.8437 27.2728L23.0499 27.1915C23.074 27.1811 23.0969 27.1686 23.1187 27.154L23.3187 27.0227C23.3272 27.0188 23.3355 27.0147 23.3437 27.0102L23.5375 26.8602C23.5417 26.8582 23.5459 26.8561 23.55 26.8539L23.7188 26.7164L23.8001 26.6476L23.8126 26.6414C23.7945 26.5021 23.7229 26.4005 23.5978 26.3366C23.4727 26.2728 23.3484 26.2743 23.225 26.3413L23.2312 26.3663C23.2592 26.2978 23.2676 26.227 23.2562 26.1538L23.2437 26.1851C23.212 26.2596 23.2036 26.3367 23.2187 26.4163L23.225 26.4289C23.2634 26.6299 23.3848 26.7364 23.5892 26.7481C23.7936 26.7598 23.9264 26.668 23.9876 26.4726L24.0001 26.4476L24.0251 26.3663C24.0316 26.3417 24.0358 26.3167 24.0376 26.2913L24.0501 26.1538C24.0535 26.1352 24.0556 26.1164 24.0564 26.0975L24.0501 25.91L24.0439 25.7162V25.5287C24.044 25.5224 24.044 25.5162 24.0439 25.5099L24.0314 25.3724C24.0278 25.2889 24.0007 25.2139 23.9501 25.1474L23.9001 25.0848C23.8389 25.0045 23.758 24.9612 23.6572 24.9549C23.5564 24.9486 23.4707 24.9815 23.4 25.0536Z" fill="black"/>
<path d="M23.3125 25.6787C23.3125 25.7788 23.3479 25.8643 23.4187 25.9351C23.4895 26.0059 23.575 26.0413 23.6751 26.0413C23.7752 26.0413 23.8607 26.0059 23.9315 25.9351C24.0023 25.8643 24.0377 25.7788 24.0377 25.6787C24.0377 25.5786 24.0023 25.4931 23.9315 25.4223C23.8607 25.3515 23.7752 25.3161 23.6751 25.3161C23.575 25.3161 23.4895 25.3515 23.4187 25.4223C23.3479 25.4931 23.3125 25.5786 23.3125 25.6787ZM23.4688 26.0288L23.5438 26.0788C23.5657 26.0933 23.5886 26.1058 23.6126 26.1163L23.7939 26.1913C23.836 26.2097 23.8797 26.2222 23.9252 26.2288L24.294 26.2788C24.3169 26.2802 24.3398 26.2802 24.3627 26.2788L24.9816 26.2913C24.9879 26.2914 24.9941 26.2914 25.0004 26.2913L25.8443 26.2726L26.882 26.2788L28.0635 26.3351L29.395 26.4351L30.7827 26.5601L32.1767 26.7102C32.1788 26.7102 32.1809 26.7102 32.183 26.7102L33.552 26.8477C33.5603 26.8479 33.5687 26.8479 33.577 26.8477L34.8898 26.9227C34.896 26.9228 34.9023 26.9228 34.9085 26.9227L36.115 26.9477C36.1192 26.9478 36.1233 26.9478 36.1275 26.9477H37.1839C37.1986 26.9463 37.2132 26.9442 37.2277 26.9415L38.0779 26.8727C38.1119 26.8704 38.1453 26.8642 38.1779 26.8539L38.728 26.6664L39.1156 26.6351C39.2906 26.6226 39.3719 26.5289 39.3594 26.3538C39.3468 26.1788 39.2531 26.0975 39.0781 26.11L38.6967 26.1413L38.1279 26.0163C38.1051 26.0124 38.0822 26.0103 38.0591 26.01L37.2027 25.9725C37.2006 25.9725 37.1985 25.9725 37.1964 25.9725L36.1525 25.9475L34.9773 25.8475L33.677 25.6975L32.308 25.5349L30.914 25.3724C30.9119 25.3724 30.9098 25.3724 30.9077 25.3724L29.5075 25.2286C29.5013 25.2264 29.495 25.2244 29.4887 25.2224L28.1447 25.1224C28.1385 25.1223 28.1322 25.1223 28.126 25.1224L26.9257 25.0661C26.9174 25.0659 26.9091 25.0659 26.9007 25.0661L25.838 25.0598C25.8297 25.0597 25.8214 25.0597 25.813 25.0598L24.9629 25.0911C24.9524 25.0929 24.942 25.095 24.9316 25.0974L24.3127 25.1536C24.3065 25.1535 24.3002 25.1535 24.294 25.1536L23.9252 25.2036C23.9018 25.2083 23.8789 25.2145 23.8564 25.2224L23.6876 25.2661L23.6189 25.2786C23.4366 25.3131 23.3273 25.4213 23.2909 25.6031C23.2545 25.785 23.3138 25.9269 23.4688 26.0288Z" fill="black"/>
<path d="M35.3771 5.79988C35.3771 6.01242 35.4834 6.11869 35.6959 6.11869C35.9084 6.11869 36.0147 6.01242 36.0147 5.79988C36.0147 5.58734 35.9084 5.48107 35.6959 5.48107C35.4834 5.48107 35.3771 5.58734 35.3771 5.79988ZM35.2771 5.79363C35.2771 5.90756 35.3174 6.0048 35.3979 6.08537C35.4785 6.16593 35.5757 6.20621 35.6896 6.20621C35.8036 6.20621 35.9008 6.16593 35.9814 6.08537C36.0619 6.0048 36.1022 5.90756 36.1022 5.79363C36.1022 5.6797 36.0619 5.58245 35.9814 5.50189C35.9008 5.42133 35.8036 5.38105 35.6896 5.38105C35.5757 5.38105 35.4785 5.42133 35.3979 5.50189C35.3174 5.58245 35.2771 5.6797 35.2771 5.79363ZM35.2208 5.78113C35.2208 5.91059 35.2666 6.0211 35.3581 6.11265C35.4497 6.20419 35.5602 6.24997 35.6896 6.24997C35.8191 6.24997 35.9296 6.20419 36.0212 6.11265C36.1127 6.0211 36.1585 5.91059 36.1585 5.78113C36.1585 5.65166 36.1127 5.54115 36.0212 5.44961C35.9296 5.35806 35.8191 5.31229 35.6896 5.31229C35.5602 5.31229 35.4497 5.35806 35.3581 5.44961C35.2666 5.54115 35.2208 5.65166 35.2208 5.78113ZM35.152 5.93741L35.1583 5.96241C35.2223 6.18181 35.364 6.3235 35.5834 6.38749L35.7147 6.425C35.7494 6.43635 35.7848 6.44468 35.8209 6.45L36.0772 6.47501C36.1228 6.48197 36.1687 6.48406 36.2147 6.48126L36.5586 6.44375C36.588 6.44167 36.6172 6.43751 36.6461 6.43125L37.0212 6.33748C37.0491 6.32926 37.0762 6.31885 37.1024 6.30623L37.4462 6.16245C37.498 6.13994 37.5439 6.10869 37.5838 6.06868L37.7525 5.8999L37.9526 5.83739C38.1192 5.78317 38.1754 5.67274 38.1213 5.5061C38.0671 5.33946 37.9567 5.28319 37.79 5.33729L37.6088 5.39355L37.3962 5.33104C37.3716 5.32472 37.3466 5.32056 37.3212 5.31854L36.9586 5.28103L36.5898 5.22477C36.5795 5.22242 36.569 5.22033 36.5586 5.21852L36.2147 5.18101C36.2127 5.181 36.2106 5.181 36.2085 5.18101L35.9522 5.16226C35.9314 5.16125 35.9105 5.16125 35.8897 5.16226H35.7522C35.5664 5.16436 35.4122 5.23521 35.2896 5.3748L35.2708 5.39355C35.131 5.55294 35.0914 5.73423 35.152 5.93741Z" fill="black"/>
<path d="M37.8651 5.86237L37.9088 5.79361C37.9121 5.58503 37.8133 5.45252 37.6125 5.39609C37.4117 5.33966 37.2583 5.40132 37.1524 5.58107L37.1462 5.88112C37.1461 5.88738 37.1461 5.89363 37.1462 5.89988L37.1587 6.28745C37.1586 6.29162 37.1586 6.29579 37.1587 6.29995L37.1962 6.87506C37.1962 6.87715 37.1962 6.87923 37.1962 6.88131L37.265 7.65646L37.3212 8.65665C37.323 8.66713 37.3251 8.67755 37.3275 8.68791L37.4713 9.90689C37.4712 9.91106 37.4712 9.91523 37.4713 9.91939L37.665 11.3072L37.8713 12.7637C37.8713 12.7658 37.8713 12.7679 37.8713 12.7699L38.0901 14.1952C38.0901 14.1973 38.0901 14.1994 38.0901 14.2015L38.3089 15.558C38.3089 15.56 38.3089 15.5621 38.3089 15.5642L38.534 16.8457C38.5339 16.8478 38.5339 16.8499 38.534 16.852L38.759 18.0272C38.759 18.0293 38.759 18.0314 38.759 18.0334L38.9778 19.0586C38.9778 19.0607 38.9778 19.0628 38.9778 19.0649L39.1716 19.9588C39.1716 19.9609 39.1716 19.963 39.1716 19.9651L39.3591 20.7402C39.3591 20.7444 39.3591 20.7485 39.3591 20.7527L39.5341 21.4278L39.6842 21.9967L39.7842 22.478L39.8592 22.9094L39.9342 23.3157C39.9342 23.3178 39.9342 23.3199 39.9342 23.3219L40.003 23.7033L40.0592 24.0221C40.0592 24.0262 40.0592 24.0304 40.0592 24.0346L40.1093 24.2909L40.1405 24.4972L40.1718 24.6659L40.178 24.8472C40.178 24.8493 40.178 24.8514 40.178 24.8535L40.1905 25.0348L40.1968 25.3473C40.1967 25.3515 40.1967 25.3557 40.1968 25.3598L40.203 25.4911V25.6099V25.7349C40.203 25.7391 40.203 25.7432 40.203 25.7474V25.8724C40.2036 25.9217 40.2119 25.9696 40.228 26.0162L40.2405 26.0475V26.0537L40.2343 26.1412C40.234 26.1496 40.234 26.1579 40.2343 26.1662V26.2037V26.1975L40.228 26.21L40.2218 26.2225L40.2093 26.2412C40.2432 26.2169 40.2724 26.1877 40.2968 26.1537L40.278 26.1725L40.253 26.185C40.251 26.185 40.2489 26.185 40.2468 26.185L40.2093 26.2037C40.0244 26.3185 39.9743 26.476 40.0592 26.6764C40.144 26.8768 40.292 26.9506 40.5031 26.8976L40.5531 26.8851C40.5659 26.8796 40.5784 26.8733 40.5906 26.8664L40.6469 26.8414C40.6643 26.8322 40.681 26.8218 40.6969 26.8101L40.7406 26.7789C40.7586 26.7657 40.7752 26.7511 40.7906 26.7351L40.8344 26.6976C40.8433 26.6876 40.8516 26.6772 40.8594 26.6663L40.8969 26.6226C40.9107 26.6069 40.9232 26.5902 40.9344 26.5726L40.9594 26.5226C40.975 26.4969 40.9875 26.4698 40.9969 26.4413L41.0157 26.3725C41.0178 26.3725 41.0198 26.3725 41.0219 26.3725L41.0407 26.2913C41.0459 26.2748 41.0501 26.2582 41.0532 26.2412L41.0719 26.1412C41.0759 26.1185 41.078 26.0956 41.0782 26.0725V26.0475L41.0907 26.0162C41.1068 25.9696 41.1151 25.9217 41.1157 25.8724V25.7474C41.1158 25.7432 41.1158 25.7391 41.1157 25.7349V25.6099V25.4786C41.1158 25.4724 41.1158 25.4661 41.1157 25.4599L41.1094 25.3286L41.1032 25.0098C41.1034 25.0014 41.1034 24.9931 41.1032 24.9848L41.0907 24.791L41.0719 24.5847C41.0726 24.5701 41.0726 24.5555 41.0719 24.5409L41.0407 24.3471C41.0386 24.345 41.0365 24.343 41.0344 24.3409L40.9969 24.1283L40.9469 23.8658L40.8907 23.547C40.8907 23.5449 40.8907 23.5428 40.8907 23.5407L40.8219 23.1657L40.7594 22.7531C40.7574 22.7489 40.7553 22.7447 40.7531 22.7406L40.6719 22.3093C40.6719 22.3072 40.6719 22.3051 40.6719 22.303L40.5718 21.8029C40.5719 21.8008 40.5719 21.7987 40.5718 21.7967L40.4531 21.2153L40.3155 20.5339C40.3136 20.5276 40.3115 20.5214 40.3093 20.5152L40.1343 19.7463L39.9467 18.8648L39.7717 17.8459L39.5842 16.6707C39.5842 16.6686 39.5842 16.6665 39.5842 16.6644L39.3716 15.3829L39.1528 14.0327L38.9465 12.6137L38.7527 11.1571L38.559 9.76936C38.559 9.76728 38.559 9.7652 38.559 9.76311L38.3777 8.55038C38.3759 8.5399 38.3738 8.52948 38.3714 8.51913L38.1714 7.54394L38.0526 6.78755L37.9964 6.23744L37.9714 5.86862L37.9651 5.58107C37.8592 5.40132 37.7059 5.33966 37.5051 5.39609C37.3042 5.45253 37.2055 5.58503 37.2087 5.79361L37.2525 5.86237C37.3236 5.97476 37.4257 6.03095 37.5588 6.03095C37.6918 6.03095 37.7939 5.97476 37.8651 5.86237ZM40.203 26.335L40.1718 26.3538C40.0223 26.4456 39.9933 26.5663 40.0847 26.716C40.1762 26.8657 40.2969 26.895 40.4468 26.8039L40.4781 26.7851C40.6276 26.6933 40.6566 26.5725 40.5651 26.4228C40.4736 26.2731 40.3529 26.2439 40.203 26.335Z" fill="black"/>
<path d="M39.3715 26.3788H39.359C39.3528 26.3765 39.3466 26.3744 39.3403 26.3725L39.3028 26.36C39.2784 26.3513 39.2534 26.3451 39.2277 26.3413L39.1715 26.335C39.157 26.3321 39.1424 26.33 39.1277 26.3288H39.0214C38.8002 26.3856 38.7024 26.5274 38.728 26.7544C38.7536 26.9814 38.8806 27.0979 39.109 27.1039H39.1152C39.0648 27.0963 39.0148 27.0984 38.9652 27.1102L39.0402 27.1227C39.0548 27.1235 39.0694 27.1235 39.084 27.1227L39.2465 27.1289C39.3409 27.1312 39.4242 27.102 39.4965 27.0414L39.5215 27.0164H39.5966C39.7631 27.0204 39.8484 26.9391 39.8526 26.7726C39.8568 26.6061 39.7756 26.5206 39.6091 26.5163L39.5403 26.5101L39.5153 26.485C39.4644 26.4344 39.404 26.401 39.334 26.385L39.1777 26.3538C39.1756 26.3538 39.1736 26.3538 39.1715 26.3538L39.0965 26.335C39.1027 26.3373 39.1089 26.3393 39.1152 26.3413H39.109C38.8806 26.3473 38.7536 26.4638 38.728 26.6908C38.7024 26.9177 38.8002 27.0596 39.0214 27.1164H39.1027H39.1402C39.1526 27.1191 39.1651 27.1212 39.1777 27.1227H39.2152C39.2652 27.1215 39.3131 27.1111 39.359 27.0914H39.3715C39.5352 27.029 39.617 26.9103 39.617 26.7351C39.617 26.5599 39.5352 26.4412 39.3715 26.3788Z" fill="black"/>
<path d="M38.2089 26.8539C38.2089 26.954 38.2443 27.0394 38.3151 27.1102C38.3859 27.181 38.4713 27.2164 38.5715 27.2164C38.6716 27.2164 38.757 27.181 38.8278 27.1102C38.8986 27.0394 38.934 26.954 38.934 26.8539C38.934 26.7537 38.8986 26.6683 38.8278 26.5975C38.757 26.5267 38.6716 26.4913 38.5715 26.4913C38.4713 26.4913 38.3859 26.5267 38.3151 26.5975C38.2443 26.6683 38.2089 26.7537 38.2089 26.8539ZM38.509 26.4788H38.4965C38.5615 26.5029 38.6281 26.5092 38.6965 26.4976H38.684C38.6616 26.4892 38.6387 26.4829 38.6152 26.4788L38.5965 26.4725C38.4757 26.4508 38.3682 26.4792 38.274 26.5579C38.1798 26.6367 38.1328 26.7374 38.1328 26.8601C38.1328 26.9829 38.1798 27.0836 38.274 27.1623C38.3682 27.241 38.4757 27.2695 38.5965 27.2477L38.6152 27.2414C38.6387 27.2373 38.6616 27.2311 38.684 27.2227H38.6965C38.7458 27.2045 38.7895 27.1774 38.8278 27.1414L38.834 27.1289C38.9674 26.9993 38.9925 26.8513 38.9093 26.685C38.8261 26.5186 38.6927 26.4499 38.509 26.4788ZM38.0839 26.8664C38.0839 26.9838 38.1254 27.0839 38.2084 27.1669C38.2914 27.25 38.3916 27.2915 38.509 27.2915C38.6263 27.2915 38.7265 27.25 38.8095 27.1669C38.8925 27.0839 38.934 26.9838 38.934 26.8664C38.934 26.749 38.8925 26.6488 38.8095 26.5658C38.7265 26.4828 38.6263 26.4413 38.509 26.4413C38.3916 26.4413 38.2914 26.4828 38.2084 26.5658C38.1254 26.6488 38.0839 26.749 38.0839 26.8664ZM38.0276 26.8851C38.0276 27.0129 38.0728 27.1219 38.1631 27.2122C38.2534 27.3025 38.3625 27.3477 38.4902 27.3477C38.6179 27.3477 38.727 27.3025 38.8173 27.2122C38.9076 27.1219 38.9528 27.0129 38.9528 26.8851C38.9528 26.7574 38.9076 26.6484 38.8173 26.558C38.727 26.4677 38.6179 26.4225 38.4902 26.4225C38.3625 26.4225 38.2534 26.4677 38.1631 26.558C38.0728 26.6484 38.0276 26.7574 38.0276 26.8851ZM38.0339 26.6663L38.0026 26.7101C37.9709 26.7668 37.9501 26.8272 37.9401 26.8914L37.9276 26.9601C37.9005 27.1134 37.9296 27.2551 38.0151 27.3852L38.0901 27.4977C38.1281 27.5532 38.1739 27.6011 38.2276 27.6415L38.3902 27.7603C38.4345 27.7938 38.4824 27.8209 38.534 27.8416L38.7778 27.9353C38.872 27.9744 38.97 27.989 39.0716 27.9791L39.3591 27.9416C39.4204 27.9352 39.4787 27.9185 39.5341 27.8916L39.8155 27.754C39.8375 27.7435 39.8583 27.731 39.878 27.7165L40.0655 27.5728L40.253 27.5165C40.3864 27.4557 40.4332 27.3548 40.3934 27.2137C40.3536 27.0727 40.261 27.0111 40.1155 27.0289L39.9405 27.0789L39.7592 27.0289L39.5154 26.9414L39.2841 26.8226C39.2718 26.8159 39.2593 26.8097 39.2466 26.8039L39.0466 26.7163L38.934 26.6413L38.834 26.5788L38.784 26.5413C38.8239 26.6088 38.876 26.6651 38.9403 26.7101L38.909 26.6663C38.8625 26.5901 38.8003 26.5301 38.7223 26.4863C38.6444 26.4426 38.5608 26.4207 38.4714 26.4207C38.3821 26.4207 38.2985 26.4426 38.2205 26.4863C38.1426 26.5301 38.0804 26.5901 38.0339 26.6663Z" fill="black"/>
<path d="M37.6901 26.9914C37.6901 27.0967 37.7273 27.1865 37.8018 27.261C37.8762 27.3355 37.9661 27.3727 38.0714 27.3727C38.1767 27.3727 38.2666 27.3355 38.341 27.261C38.4155 27.1865 38.4527 27.0967 38.4527 26.9914C38.4527 26.8861 38.4155 26.7962 38.341 26.7217C38.2666 26.6473 38.1767 26.61 38.0714 26.61C37.9661 26.61 37.8762 26.6473 37.8018 26.7217C37.7273 26.7962 37.6901 26.8861 37.6901 26.9914ZM37.8464 26.6726L37.8276 26.6851C37.845 26.6759 37.8617 26.6654 37.8776 26.6538L37.8401 26.6726C37.7607 26.71 37.6981 26.7663 37.6526 26.8413L37.6213 26.8976C37.5988 26.9347 37.5822 26.9743 37.5713 27.0164L37.5588 27.0664C37.5455 27.1113 37.5392 27.1571 37.54 27.2039L37.5463 27.2539C37.5514 27.3643 37.5889 27.4622 37.6588 27.5477L37.7276 27.629C37.7935 27.7075 37.8747 27.7637 37.9714 27.7978L38.1589 27.8665C38.1995 27.8815 38.2411 27.8919 38.2839 27.8978L38.5652 27.929C38.5901 27.9327 38.6151 27.9348 38.6403 27.9353H38.9903C38.9987 27.9334 39.007 27.9313 39.0153 27.929L39.4154 27.9103C39.4279 27.9107 39.4404 27.9107 39.4529 27.9103L39.8717 27.8665C39.8991 27.8642 39.9262 27.8601 39.953 27.854L40.3218 27.7665L40.6281 27.6915C40.6323 27.6916 40.6365 27.6916 40.6406 27.6915L40.8782 27.629C40.8952 27.6236 40.9118 27.6173 40.9282 27.6102L41.0845 27.554C41.1171 27.5423 41.1484 27.5278 41.1782 27.5102L41.2533 27.4602C41.3086 27.4271 41.3565 27.3854 41.397 27.3352L41.4283 27.2977C41.4852 27.2235 41.5206 27.1401 41.5346 27.0476L41.5408 27.0164C41.5729 26.8197 41.5146 26.6551 41.3658 26.5225L41.3533 26.51C41.2662 26.4306 41.1641 26.3848 41.047 26.3725H41.022C40.884 26.3574 40.759 26.3908 40.6469 26.4725L40.6281 26.4913C40.398 26.67 40.3484 26.8895 40.4794 27.1498C40.6105 27.4101 40.8163 27.5011 41.097 27.4227L41.122 27.4165C41.0054 27.3684 40.8866 27.3622 40.7657 27.3977L40.7907 27.4102C40.7365 27.2579 40.6344 27.1516 40.4844 27.0914L40.4906 27.1101C40.5144 27.0062 40.5081 26.9041 40.4719 26.8038L40.4656 26.8351C40.5274 26.7665 40.5691 26.6873 40.5906 26.5975L40.5594 26.6351C40.6142 26.6038 40.6621 26.5642 40.7031 26.5163L40.6594 26.5413L40.5719 26.5725L40.3843 26.6226L40.1405 26.6663L39.7967 26.6726C39.7905 26.6725 39.7842 26.6725 39.778 26.6726L39.3591 26.6976L38.9778 26.7101H38.659L38.3902 26.6976C38.3735 26.6969 38.3569 26.6969 38.3402 26.6976L38.1464 26.7038C38.1064 26.7038 38.0668 26.7079 38.0276 26.7163L37.9651 26.7288L37.9589 26.7351C37.9655 26.8638 38.0173 26.9706 38.1144 27.0554C38.2115 27.1402 38.3243 27.1772 38.4527 27.1664L38.4465 27.1101C38.4396 27.1474 38.4375 27.1849 38.4402 27.2227L38.4527 27.1602C38.4621 27.1146 38.4642 27.0688 38.459 27.0226V26.9914V26.9789C38.4509 26.8262 38.3785 26.7158 38.2418 26.6474C38.1051 26.5791 37.9733 26.5874 37.8464 26.6726ZM40.5281 26.9101C40.5281 27.0189 40.5666 27.1117 40.6435 27.1886C40.7204 27.2655 40.8132 27.3039 40.9219 27.3039C41.0307 27.3039 41.1235 27.2655 41.2004 27.1886C41.2773 27.1117 41.3158 27.0189 41.3158 26.9101C41.3158 26.8014 41.2773 26.7085 41.2004 26.6316C41.1235 26.5547 41.0307 26.5163 40.9219 26.5163C40.8132 26.5163 40.7204 26.5547 40.6435 26.6316C40.5666 26.7085 40.5281 26.8014 40.5281 26.9101ZM40.6219 26.8663C40.6219 27.0581 40.7177 27.1539 40.9094 27.1539C41.1011 27.1539 41.197 27.0581 41.197 26.8663C41.197 26.6746 41.1011 26.5788 40.9094 26.5788C40.7177 26.5788 40.6219 26.6746 40.6219 26.8663ZM41.1095 26.7851L41.1032 26.7351C41.0866 26.5934 41.0074 26.5309 40.8657 26.5475C40.724 26.5642 40.6615 26.6434 40.6781 26.7851L40.6844 26.8351C40.7012 26.9766 40.7804 27.039 40.9219 27.0223C41.0634 27.0057 41.1259 26.9266 41.1095 26.7851Z" fill="black"/>
<path d="M19.199 24.4353C19.199 24.6187 19.2906 24.7104 19.474 24.7104C19.6574 24.7104 19.7491 24.6187 19.7491 24.4353C19.7491 24.252 19.6574 24.1603 19.474 24.1603C19.2906 24.1603 19.199 24.252 19.199 24.4353ZM19.0927 24.4416L19.0677 24.5854L19.0302 24.8104C19.0159 24.8988 19.0305 24.9822 19.0739 25.0605L19.1365 25.173L19.1114 25.3418C19.0906 25.4876 19.1531 25.571 19.299 25.5918C19.4448 25.6126 19.5282 25.5501 19.549 25.4043L19.574 25.248L19.6678 25.1542C19.7345 25.0956 19.7762 25.0227 19.7928 24.9354L19.8303 24.7041C19.8305 24.6979 19.8305 24.6916 19.8303 24.6854L19.8491 24.5416C19.8629 24.4372 19.8377 24.3432 19.7736 24.2596C19.7095 24.176 19.6253 24.1273 19.5209 24.1135C19.4165 24.0997 19.3225 24.1249 19.2389 24.1889C19.1553 24.253 19.1065 24.3372 19.0927 24.4416Z" fill="black"/>
<path d="M19.6741 24.9354L19.7054 24.8978C19.757 24.8339 19.7862 24.761 19.7929 24.6791L19.7991 24.5478L19.8116 24.4165C19.8119 24.4082 19.8119 24.3998 19.8116 24.3915L19.8179 24.304C19.7354 24.1066 19.5889 24.0267 19.3783 24.0644C19.1677 24.102 19.0579 24.2277 19.049 24.4415L19.0552 24.454C19.0503 24.415 19.0399 24.3775 19.024 24.3415L19.0427 24.4915L19.0615 24.7478L19.074 25.0416C19.0755 25.1062 19.0922 25.1666 19.124 25.2229L19.2115 25.3667V25.498C19.2115 25.673 19.299 25.7605 19.4741 25.7605C19.6491 25.7605 19.7366 25.673 19.7366 25.498V25.3479L19.8116 25.1917C19.837 25.1383 19.8495 25.082 19.8491 25.0229V24.7228C19.8494 24.7145 19.8494 24.7061 19.8491 24.6978L19.8366 24.4353L19.8241 24.2727C19.8191 24.21 19.8004 24.1516 19.7679 24.0977L19.7554 24.0852C19.6545 23.9303 19.5138 23.8729 19.3333 23.913C19.1529 23.9531 19.0498 24.0647 19.024 24.2477L19.0115 24.3352C19.0114 24.3394 19.0114 24.3436 19.0115 24.3477L18.999 24.4853C18.9987 24.4936 18.9987 24.5019 18.999 24.5103L18.9927 24.6415C18.9918 24.7077 19.0064 24.7702 19.0365 24.8291L19.0615 24.8728C19.1205 24.9935 19.2168 25.0607 19.3504 25.0743C19.4841 25.088 19.5919 25.0416 19.6741 24.9354Z" fill="black"/>
<path d="M23.2998 23.8602C23.2998 23.9603 23.3352 24.0458 23.406 24.1166C23.4768 24.1874 23.5622 24.2228 23.6623 24.2228C23.7625 24.2228 23.8479 24.1874 23.9187 24.1166C23.9895 24.0458 24.0249 23.9603 24.0249 23.8602C24.0249 23.7601 23.9895 23.6746 23.9187 23.6038C23.8479 23.533 23.7625 23.4976 23.6623 23.4976C23.5622 23.4976 23.4768 23.533 23.406 23.6038C23.3352 23.6746 23.2998 23.7601 23.2998 23.8602ZM23.2873 23.9289L23.2935 23.9665L23.306 24.054L23.331 24.2603L23.356 24.5853L23.3935 24.9416L23.4248 25.2542L23.4373 25.4605C23.438 25.4794 23.4401 25.4982 23.4435 25.5167L23.4623 25.5855C23.5133 25.7827 23.6407 25.8779 23.8443 25.8711C24.0479 25.8642 24.1685 25.7607 24.2062 25.5605L24.2187 25.473C24.2216 25.4585 24.2237 25.4439 24.2249 25.4292L24.2312 25.2042C24.2313 25.2 24.2313 25.1959 24.2312 25.1917V24.9104V24.6666C24.2312 24.6435 24.2291 24.6206 24.2249 24.5978L24.2062 24.5041C24.1719 24.2988 24.0509 24.191 23.8431 24.1807C23.6353 24.1704 23.5042 24.2657 23.4498 24.4665L23.4185 24.5728C23.3963 24.6583 23.4025 24.7417 23.4373 24.8229L23.5061 24.9916L23.4811 25.2542C23.4687 25.425 23.5479 25.5166 23.7186 25.5291C23.8894 25.5416 23.981 25.4624 23.9936 25.2917L24.0124 25.0417L24.1124 24.9041C24.1351 24.8693 24.1518 24.8318 24.1624 24.7916L24.1937 24.6916C24.1538 24.4949 24.0337 24.3915 23.8332 24.3815C23.6327 24.3714 23.5028 24.4623 23.4435 24.6541L23.456 24.7166L23.4685 24.9229V25.1854V25.3855L23.456 25.448C23.4942 25.6564 23.6193 25.7605 23.8311 25.7605C24.043 25.7605 24.168 25.6564 24.2062 25.448L24.1999 25.398L24.1874 25.2104L24.1812 24.8979C24.1813 24.8937 24.1813 24.8895 24.1812 24.8854L24.1687 24.5291C24.1688 24.5228 24.1688 24.5166 24.1687 24.5103L24.1312 24.1852C24.1318 24.1727 24.1318 24.1602 24.1312 24.1477L24.0874 23.9289C24.0841 23.9141 24.0799 23.8995 24.0749 23.8852L24.0437 23.7852C24.0371 23.7636 24.0288 23.7428 24.0187 23.7227L24.0062 23.6914C23.9103 23.4875 23.7554 23.4209 23.5414 23.4916C23.3275 23.5623 23.2428 23.7081 23.2873 23.9289Z" fill="black"/>
<path d="M19.5615 23.6977C19.5615 23.8013 19.5981 23.8897 19.6713 23.9629C19.7446 24.0362 19.833 24.0728 19.9365 24.0728C20.0401 24.0728 20.1285 24.0362 20.2018 23.9629C20.275 23.8897 20.3116 23.8013 20.3116 23.6977C20.3116 23.5941 20.275 23.5057 20.2018 23.4325C20.1285 23.3592 20.0401 23.3226 19.9365 23.3226C19.833 23.3226 19.7446 23.3592 19.6713 23.4325C19.5981 23.5057 19.5615 23.5941 19.5615 23.6977ZM19.5552 23.6102L19.549 23.6227C19.5421 23.6578 19.54 23.6933 19.5427 23.729V23.7852L19.5365 23.904L19.524 24.0978L19.499 24.3166L19.4677 24.5166L19.4427 24.6791C19.4264 24.7832 19.4487 24.8781 19.5098 24.9639C19.5708 25.0497 19.6532 25.1019 19.7568 25.1206C19.8604 25.1393 19.9558 25.1191 20.043 25.06C20.1302 25.001 20.1843 24.9198 20.2053 24.8167L20.2366 24.6541L20.2804 24.4478C20.2826 24.4416 20.2847 24.4354 20.2866 24.4291L20.3241 24.1978C20.3243 24.1915 20.3243 24.1853 20.3241 24.179L20.3491 23.9728C20.3495 23.9623 20.3495 23.9519 20.3491 23.9415L20.3554 23.7977C20.3546 23.7788 20.3525 23.7601 20.3491 23.7415L20.3429 23.6664C20.3281 23.5137 20.251 23.4054 20.1116 23.3414H20.0991C19.9863 23.291 19.8746 23.2932 19.7639 23.3479C19.6532 23.4026 19.5837 23.49 19.5552 23.6102Z" fill="black"/>
<path d="M20.4054 24.0227C20.4055 24.1297 20.4434 24.221 20.519 24.2966C20.5947 24.3723 20.686 24.4101 20.793 24.4101C20.9 24.4101 20.9913 24.3723 21.067 24.2966C21.1427 24.221 21.1805 24.1297 21.1806 24.0227C21.1805 23.9157 21.1427 23.8244 21.067 23.7488C20.9913 23.6731 20.9 23.6353 20.793 23.6353C20.686 23.6353 20.5947 23.6731 20.519 23.7488C20.4434 23.8244 20.4055 23.9157 20.4054 24.0227ZM20.5305 23.7289L20.518 23.7352C20.5093 23.7431 20.5009 23.7515 20.493 23.7602L20.4555 23.7977C20.3853 23.8714 20.3458 23.9589 20.3367 24.0602L20.3242 24.204C20.323 24.2227 20.323 24.2415 20.3242 24.2603L20.3304 24.4665C20.3295 24.4832 20.3295 24.4999 20.3304 24.5166L20.3679 24.7541C20.3699 24.7795 20.3741 24.8045 20.3804 24.8291L20.4367 25.0104L20.4617 25.1542C20.4662 25.1755 20.4725 25.1964 20.4805 25.2167L20.5117 25.298C20.6033 25.5032 20.757 25.5746 20.973 25.5124C21.1889 25.4502 21.281 25.3079 21.2494 25.0854L21.2369 25.0354V24.9104V24.7041C21.2369 24.6999 21.2369 24.6958 21.2369 24.6916L21.2306 24.4478C21.2307 24.4436 21.2307 24.4395 21.2306 24.4353L21.2244 24.229C21.2246 24.2207 21.2246 24.2123 21.2244 24.204L21.2119 24.0602C21.2065 24.0213 21.1961 23.9838 21.1806 23.9477L21.1618 23.8977C21.1664 23.919 21.1727 23.9399 21.1806 23.9602V23.9414C21.1499 23.7922 21.0621 23.6938 20.9172 23.6465C20.7724 23.5991 20.6434 23.6266 20.5305 23.7289ZM21.1243 25.323L21.1306 25.3105C21.1806 25.1667 21.138 25.0601 21.0026 24.9906C20.8672 24.921 20.7557 24.9485 20.668 25.0729L20.6617 25.0854C20.6117 25.2292 20.6544 25.3358 20.7898 25.4053C20.9252 25.4748 21.0367 25.4474 21.1243 25.323Z" fill="black"/>
<path d="M20.5742 24.8166V24.8229C20.5749 24.8613 20.5812 24.8988 20.5929 24.9354L20.6054 24.9792C20.6287 25.0539 20.6704 25.1164 20.7304 25.1667L20.818 25.2355C20.8569 25.2689 20.9007 25.2939 20.9492 25.3105L21.1243 25.3667C21.1588 25.3778 21.1943 25.3841 21.2305 25.3855L21.4806 25.398C21.4993 25.3993 21.5181 25.3993 21.5368 25.398L21.8119 25.373C21.8909 25.3673 21.9618 25.3402 22.0244 25.2917L22.1432 25.198L22.2807 25.173C22.4221 25.1278 22.4821 25.0317 22.4606 24.8849C22.4391 24.738 22.3541 24.6631 22.2057 24.6604L22.0744 24.6791L21.9432 24.6166C21.8852 24.5917 21.8248 24.5813 21.7619 24.5854L21.4993 24.5979L21.3243 24.5854L21.2555 24.5666L21.2243 24.5416C21.2528 24.5913 21.2903 24.633 21.3368 24.6666L21.3118 24.6291C21.2392 24.495 21.1267 24.4262 20.9742 24.4228H20.968C20.8585 24.421 20.765 24.4589 20.6876 24.5363C20.6102 24.6137 20.5724 24.7072 20.5742 24.8166Z" fill="black"/>
<path d="M21.3119 24.8104C21.3119 24.9191 21.3503 25.0119 21.4272 25.0888C21.5041 25.1657 21.5969 25.2042 21.7057 25.2042C21.8145 25.2042 21.9073 25.1657 21.9842 25.0888C22.0611 25.0119 22.0995 24.9191 22.0995 24.8104C22.0995 24.7016 22.0611 24.6088 21.9842 24.5319C21.9073 24.455 21.8145 24.4165 21.7057 24.4165C21.5969 24.4165 21.5041 24.455 21.4272 24.5319C21.3503 24.6088 21.3119 24.7016 21.3119 24.8104ZM21.2994 24.8104C21.2994 24.9208 21.3384 25.0151 21.4166 25.0933C21.4947 25.1714 21.589 25.2104 21.6994 25.2104C21.8099 25.2104 21.9042 25.1714 21.9823 25.0933C22.0605 25.0151 22.0995 24.9208 22.0995 24.8104C22.0995 24.6999 22.0605 24.6056 21.9823 24.5275C21.9042 24.4493 21.8099 24.4103 21.6994 24.4103C21.589 24.4103 21.4947 24.4493 21.4166 24.5275C21.3384 24.6056 21.2994 24.6999 21.2994 24.8104ZM21.4869 25.1729L21.5244 25.1979C21.5942 25.2376 21.6692 25.2564 21.7495 25.2542L21.8495 25.2479C21.8989 25.248 21.9468 25.2396 21.9933 25.2229L22.1433 25.1604C22.2221 25.1308 22.2846 25.0808 22.3308 25.0104L22.3371 24.9916L22.3871 24.9791C22.5579 24.9374 22.6224 24.8312 22.5808 24.6604C22.5391 24.4895 22.4329 24.4249 22.2621 24.4665L22.2245 24.479L22.212 24.4728C22.1569 24.4365 22.0965 24.4157 22.0308 24.4103L21.8682 24.3978C21.862 24.3976 21.8557 24.3976 21.8495 24.3978L21.7682 24.3915H21.7495C21.5293 24.3745 21.3841 24.4707 21.3138 24.68C21.2435 24.8892 21.3012 25.0536 21.4869 25.1729Z" fill="black"/>
<path d="M3.75268 15.5581H3.74643C3.6679 15.5314 3.58871 15.5293 3.50888 15.5519L3.49013 15.5581C3.41747 15.5787 3.35496 15.6162 3.30259 15.6706L3.25258 15.7206C3.22592 15.7469 3.203 15.776 3.18382 15.8082L3.09631 15.9644C3.0809 15.9924 3.0684 16.0215 3.0588 16.0519L2.75874 16.9771C2.75437 16.9854 2.7502 16.9937 2.74624 17.0021L2.5212 17.8273C2.52118 17.8294 2.52118 17.8315 2.5212 17.8335L2.23989 18.9337L1.90858 20.234C1.90648 20.2361 1.9044 20.2381 1.90233 20.2402L1.55851 21.6405C1.55604 21.6529 1.55395 21.6655 1.55226 21.678L1.30221 23.0533C1.30001 23.0595 1.29793 23.0657 1.29596 23.072L1.13343 24.2848L1.00216 25.2224C0.998087 25.2452 0.996004 25.2681 0.995905 25.2912L1.02091 25.9226L0.964649 26.3039C0.939645 26.4789 1.01466 26.579 1.18969 26.604C1.36473 26.629 1.46474 26.5539 1.48975 26.3789L1.53976 26.0038L1.7648 25.4225C1.77217 25.4062 1.77842 25.3896 1.78356 25.3725L2.00235 24.4598L2.32741 23.2908L2.72748 21.9593C2.72975 21.951 2.73183 21.9427 2.73374 21.9343L3.09005 20.5341L3.41512 19.2338C3.41725 19.2297 3.41933 19.2255 3.42137 19.2213L3.67141 18.1148C3.67355 18.1107 3.67563 18.1065 3.67767 18.1023L3.8527 17.2709C3.85535 17.2564 3.85743 17.2418 3.85895 17.2272L3.99023 16.2707C3.99318 16.2542 3.99527 16.2375 3.99648 16.2207L4.00273 16.0832V16.0645L4.00898 16.0519C4.03152 15.9721 4.02944 15.8929 4.00273 15.8144V15.8082C3.96126 15.6829 3.87791 15.5996 3.75268 15.5581Z" fill="black"/>
<path d="M2.38995 20.284C2.38995 20.3772 2.42291 20.4568 2.48882 20.5227C2.55474 20.5886 2.6343 20.6216 2.72752 20.6216C2.82073 20.6216 2.9003 20.5886 2.96621 20.5227C3.03213 20.4568 3.06508 20.3772 3.06508 20.284C3.06508 20.1908 3.03213 20.1113 2.96621 20.0453C2.9003 19.9794 2.82073 19.9465 2.72752 19.9465C2.6343 19.9465 2.55474 19.9794 2.48882 20.0453C2.42291 20.1113 2.38995 20.1908 2.38995 20.284ZM2.33994 20.1903L2.28993 20.3278L2.18992 20.6091C2.18504 20.6235 2.18087 20.6381 2.17741 20.6529L2.06489 21.1029C2.06484 21.1071 2.06484 21.1113 2.06489 21.1154L1.93362 21.7093L1.78359 22.3969L1.62106 23.1408L1.46478 23.8722C1.46477 23.8743 1.46477 23.8764 1.46478 23.8785L1.32725 24.5286C1.32724 24.5307 1.32724 24.5328 1.32725 24.5348L1.22098 25.0787C1.22097 25.0808 1.22097 25.0829 1.22098 25.0849L1.14597 25.4788C1.14591 25.4829 1.14591 25.4871 1.14597 25.4913L1.10221 25.7601C1.10006 25.7642 1.09798 25.7684 1.09596 25.7726L1.08346 25.9039L1.07095 25.9539C1.14029 25.8839 1.18405 25.8006 1.20223 25.7038L1.19598 25.7101C1.26915 25.8588 1.38758 25.9464 1.55125 25.9728C1.71493 25.9992 1.85489 25.9533 1.97112 25.8351L1.96487 25.8226C1.96489 25.8205 1.96489 25.8184 1.96487 25.8163L1.95237 25.8038C1.89517 25.6931 1.8081 25.6162 1.69117 25.5731C1.57424 25.5301 1.4581 25.5321 1.34273 25.5792C1.22737 25.6263 1.14303 25.7062 1.0897 25.8188C1.03637 25.9314 1.02804 26.0473 1.0647 26.1664V26.1727C1.06293 26.1344 1.05668 26.0969 1.04595 26.0601V26.0726V26.0914C1.04607 26.1166 1.04815 26.1416 1.0522 26.1664L1.05845 26.2039C1.06172 26.2208 1.06589 26.2375 1.07095 26.2539L1.08346 26.2914L1.09596 26.3352C1.09701 26.2863 1.09076 26.2384 1.0772 26.1914V26.2289C1.07405 26.3025 1.08655 26.3734 1.11471 26.4415L1.13346 26.4852C1.16785 26.5674 1.21994 26.6362 1.28974 26.6915L1.35226 26.7415C1.43302 26.8057 1.5247 26.8432 1.62731 26.854L1.76483 26.8728C1.98946 26.8947 2.15005 26.8036 2.2466 26.5996C2.34315 26.3956 2.31175 26.2137 2.15241 26.0539L2.05864 25.9539C2.0182 25.9131 1.97236 25.8798 1.92111 25.8538L1.8461 25.8163C1.83582 25.8118 1.8254 25.8077 1.81484 25.8038L1.77109 25.7851C1.80056 25.8051 1.83182 25.8218 1.86485 25.8351L1.8336 25.8163C1.8675 25.9211 1.93001 26.0045 2.02113 26.0664L2.00863 26.0289L2.00238 26.0164V26.0039C2.00179 26.0332 2.00388 26.0624 2.00863 26.0914V26.0726V26.0601C1.9979 26.0969 1.99165 26.1344 1.98988 26.1727V26.1664C1.89659 25.9634 1.73858 25.8705 1.51586 25.8875C1.29313 25.9045 1.15108 26.0204 1.08971 26.2352L1.09596 26.2477C1.09798 26.2519 1.10006 26.256 1.10221 26.2602L1.10846 26.2727C1.18163 26.4214 1.30006 26.509 1.46374 26.5354C1.62741 26.5618 1.76737 26.5159 1.88361 26.3977L1.88986 26.3914C1.95919 26.3215 2.00295 26.2382 2.02113 26.1414L2.03364 26.0789L2.06489 25.9289C2.06495 25.9247 2.06495 25.9205 2.06489 25.9164L2.10865 25.6538L2.18366 25.2662L2.28993 24.7286L2.42746 24.0785L2.58374 23.3534L2.74627 22.6095L2.8963 21.9218C2.89631 21.9198 2.89631 21.9177 2.8963 21.9156L3.01507 21.3155C3.01722 21.3113 3.0193 21.3072 3.02132 21.303L3.09634 20.8404C3.09911 20.8259 3.10119 20.8113 3.10259 20.7966L3.12134 20.4966C3.12159 20.4882 3.12159 20.4799 3.12134 20.4716L3.12759 20.3215C3.12273 20.0971 3.00959 19.9664 2.78816 19.9295C2.56674 19.8926 2.41733 19.9795 2.33994 20.1903ZM1.90236 26.7228L2.07114 26.7853C2.22883 26.8215 2.33547 26.7637 2.39106 26.6117C2.44666 26.4598 2.40253 26.3467 2.25868 26.2727L2.0899 26.2102C1.93221 26.1739 1.82557 26.2318 1.76998 26.3837C1.71438 26.5357 1.75851 26.6487 1.90236 26.7228Z" fill="black"/>
<path d="M4.47784 22.9032H4.47159C4.31588 22.9624 4.23045 23.0749 4.21529 23.2408L4.20904 23.3096C4.20636 23.322 4.20427 23.3345 4.20278 23.3471V23.4846L4.19653 23.7222L4.17153 24.0472L4.14652 24.3848C4.14266 24.4361 4.14891 24.4861 4.16528 24.5348L4.22779 24.7161L4.20278 24.8599C4.17778 25.0307 4.25071 25.1287 4.42158 25.1537C4.59244 25.1787 4.69038 25.1058 4.71538 24.9349L4.73414 24.7849L4.84666 24.6223C4.87928 24.5749 4.90012 24.5229 4.90917 24.466L4.95918 24.141C4.95959 24.1306 4.95959 24.1201 4.95918 24.1097L4.98418 23.7784C4.9842 23.7763 4.9842 23.7742 4.98418 23.7722L5.00294 23.5159C5.0032 23.5075 5.0032 23.4992 5.00294 23.4909V23.3596V23.3096C5.01919 23.11 4.93376 22.9746 4.74664 22.9032H4.74039C4.65287 22.8712 4.56535 22.8712 4.47784 22.9032Z" fill="black"/>
<path d="M4.5092 24.7912C4.5092 24.8896 4.54399 24.9736 4.61357 25.0431C4.68314 25.1127 4.76713 25.1475 4.86552 25.1475C4.96391 25.1475 5.0479 25.1127 5.11748 25.0431C5.18705 24.9736 5.22184 24.8896 5.22184 24.7912C5.22184 24.6928 5.18705 24.6088 5.11748 24.5392C5.0479 24.4696 4.96391 24.4349 4.86552 24.4349C4.76713 24.4349 4.68314 24.4696 4.61357 24.5392C4.54399 24.6088 4.5092 24.6928 4.5092 24.7912ZM4.46544 24.7474L4.45919 24.7849C4.45549 24.8056 4.45341 24.8264 4.45294 24.8474V24.8974C4.45605 25.0371 4.5144 25.1475 4.62798 25.2288L4.72174 25.2975C4.76523 25.3297 4.81315 25.3526 4.86552 25.3663L5.09056 25.4225C5.10903 25.428 5.12778 25.4322 5.14682 25.435L5.55315 25.4851C5.56357 25.4854 5.57399 25.4854 5.58441 25.4851L6.16577 25.5101C6.20356 25.5131 6.24107 25.5111 6.27829 25.5038L6.92841 25.3475H7.57229C7.72648 25.3475 7.80358 25.2704 7.80358 25.1162C7.80358 24.962 7.72648 24.8849 7.57229 24.8849H6.93466L6.29704 24.6974C6.26627 24.6896 6.23501 24.6855 6.20328 24.6849L5.64067 24.6599L5.28435 24.6161L5.14682 24.5724L5.09681 24.5411C5.13021 24.6082 5.17814 24.6623 5.24059 24.7037L5.22184 24.6536C5.22688 24.6995 5.23939 24.7433 5.25935 24.7849L5.25309 24.7474C5.21379 24.5277 5.08251 24.4178 4.85927 24.4178C4.63603 24.4178 4.50475 24.5277 4.46544 24.7474Z" fill="black"/>
<path d="M7.52222 25.0974C7.52222 25.2045 7.56006 25.2958 7.63574 25.3715C7.71141 25.4472 7.80277 25.485 7.90979 25.485C8.01682 25.485 8.10817 25.4472 8.18385 25.3715C8.25953 25.2958 8.29737 25.2045 8.29737 25.0974C8.29737 24.9904 8.25953 24.899 8.18385 24.8234C8.10817 24.7477 8.01682 24.7099 7.90979 24.7099C7.80277 24.7099 7.71141 24.7477 7.63574 24.8234C7.56006 24.899 7.52222 24.9904 7.52222 25.0974ZM7.65349 25.3975L7.69725 25.435C7.73099 25.4641 7.7685 25.487 7.80977 25.5038L7.96605 25.5663C7.99836 25.5787 8.0317 25.5871 8.06607 25.5913L8.37863 25.635C8.39947 25.6366 8.42031 25.6366 8.44114 25.635H8.90373C8.91633 25.6335 8.92883 25.6314 8.94124 25.6288L9.57886 25.5663C9.58511 25.5664 9.59136 25.5664 9.59761 25.5663L10.3728 25.4412C10.3748 25.4412 10.3769 25.4412 10.379 25.4412L11.2292 25.2975C11.2355 25.2955 11.2417 25.2934 11.2479 25.2912L12.1168 25.1037C12.1273 25.102 12.1378 25.0999 12.1481 25.0974L12.9733 24.8536C12.9993 24.8458 13.0243 24.8354 13.0483 24.8224L13.6734 24.4848L14.211 24.316C14.3338 24.2591 14.3749 24.166 14.3343 24.0369C14.2937 23.9078 14.2068 23.8549 14.0735 23.8784L13.5421 24.041L12.8357 24.0847C12.8146 24.0872 12.7937 24.0914 12.7732 24.0972L11.9356 24.291L11.0791 24.4786L10.2477 24.6286L9.48509 24.7286L8.87248 24.7911L8.45365 24.7974L8.1911 24.7661L8.09108 24.7411L8.07232 24.7349C7.85963 24.6279 7.68968 24.675 7.56247 24.8763C7.43527 25.0775 7.46561 25.2513 7.65349 25.3975Z" fill="black"/>
<path d="M12.9858 24.5849L12.9983 24.6161C13.0516 24.7631 13.1537 24.8568 13.3046 24.8974L13.4921 24.9412C13.5207 24.9501 13.5499 24.9563 13.5797 24.9599L13.9485 24.9849L14.4861 25.0349L15.1237 25.0975L15.8676 25.2162L16.674 25.3663C16.6781 25.3684 16.6823 25.3705 16.6865 25.3725L17.5117 25.5038C17.5427 25.5086 17.574 25.5107 17.6054 25.51L18.3743 25.5038C18.406 25.503 18.4373 25.4988 18.4681 25.4913L19.0307 25.36L19.462 25.3788C19.6329 25.3871 19.7225 25.3058 19.7308 25.135C19.7392 24.9641 19.6579 24.8745 19.487 24.8662L19.0557 24.8474L18.5306 24.6474C18.5102 24.6396 18.4894 24.6333 18.4681 24.6286L17.7179 24.4598C17.7076 24.4574 17.6972 24.4554 17.6867 24.4536L16.8678 24.3161L16.0489 24.166C16.0468 24.166 16.0447 24.166 16.0426 24.166L15.2862 24.0348C15.2738 24.0322 15.2613 24.0301 15.2487 24.0285L14.5923 23.9597C14.5819 23.9594 14.5715 23.9594 14.5611 23.9597L14.0172 23.9347C13.9964 23.9335 13.9756 23.9335 13.9547 23.9347L13.5797 23.9597C13.5499 23.9634 13.5207 23.9696 13.4921 23.9785L13.3046 24.0223C13.1833 24.0547 13.0916 24.1256 13.0295 24.2348L13.0108 24.2661C12.9534 24.3685 12.945 24.4747 12.9858 24.5849Z" fill="black"/>
<path d="M23.5814 24.5536L23.5752 24.5661C23.4952 24.653 23.4618 24.7551 23.4751 24.8724L23.4814 24.9099C23.4821 24.9288 23.4842 24.9476 23.4876 24.9662L23.5001 25.0162C23.512 25.061 23.5307 25.1026 23.5564 25.1412L23.6064 25.2162C23.6766 25.3198 23.7725 25.3865 23.894 25.4162L24.1253 25.4788C24.1767 25.4908 24.2288 25.495 24.2815 25.4913L24.7504 25.4663C24.7546 25.4663 24.7587 25.4663 24.7629 25.4663L25.4755 25.4225L26.4382 25.3662C26.4424 25.3663 26.4465 25.3663 26.4507 25.3662L27.6009 25.2787C27.6156 25.2773 27.6302 25.2753 27.6447 25.2725L28.7699 25.0787L29.7513 25.0912C29.9261 25.0951 30.0156 25.0097 30.0198 24.8349C30.024 24.6601 29.9386 24.5705 29.7638 24.5661L28.7762 24.5536L27.6447 24.3598C27.624 24.3563 27.6032 24.3542 27.5822 24.3535L26.432 24.3035C26.4153 24.3028 26.3986 24.3028 26.3819 24.3035L25.4193 24.3473C25.4151 24.3472 25.4109 24.3472 25.4068 24.3473L24.6879 24.4036C24.6858 24.4036 24.6837 24.4036 24.6816 24.4036L24.2128 24.4411C24.2107 24.4411 24.2086 24.4411 24.2065 24.4411L23.969 24.4661C23.9329 24.4684 23.8974 24.4746 23.8627 24.4848L23.7815 24.5098C23.875 24.5512 23.9709 24.5574 24.069 24.5286L24.0252 24.5036C24.052 24.6359 24.1271 24.7297 24.2503 24.7849L24.244 24.7474C24.2293 24.6784 24.198 24.618 24.1503 24.5661L24.144 24.5536C24.0684 24.471 23.9747 24.4297 23.8627 24.4297C23.7508 24.4297 23.657 24.471 23.5814 24.5536Z" fill="black"/>
<path d="M29.889 24.9224C29.889 25.0277 29.9262 25.1176 30.0007 25.1921C30.0752 25.2665 30.165 25.3038 30.2703 25.3038C30.3756 25.3038 30.4655 25.2665 30.54 25.1921C30.6144 25.1176 30.6517 25.0277 30.6517 24.9224C30.6517 24.8171 30.6144 24.7273 30.54 24.6528C30.4655 24.5783 30.3756 24.5411 30.2703 24.5411C30.165 24.5411 30.0752 24.5783 30.0007 24.6528C29.9262 24.7273 29.889 24.8171 29.889 24.9224ZM29.9765 25.1912L30.014 25.2287C30.0432 25.261 30.0765 25.2881 30.1141 25.31L30.2266 25.3725C30.2638 25.3948 30.3034 25.4114 30.3454 25.4225L30.6079 25.485C30.6203 25.4876 30.6328 25.4897 30.6454 25.4913L31.0705 25.5538C31.0726 25.5538 31.0747 25.5538 31.0767 25.5538L31.6331 25.6351L32.3145 25.7413C32.3207 25.7415 32.327 25.7415 32.3332 25.7413L33.1084 25.8351C33.1125 25.8373 33.1167 25.8393 33.1209 25.8414L33.9335 25.9164C33.9439 25.9189 33.9543 25.921 33.9648 25.9226L34.6962 25.9289L35.2775 26.0414C35.444 26.0702 35.5418 26.0014 35.5709 25.835C35.6 25.6686 35.5314 25.5707 35.3651 25.5413L34.7899 25.435L34.1023 25.185C34.088 25.1799 34.0734 25.1758 34.0586 25.1725L33.2709 24.9787C33.2688 24.9787 33.2667 24.9787 33.2647 24.9787L32.4958 24.7974C32.4916 24.7973 32.4874 24.7973 32.4833 24.7974L31.8019 24.6661C31.7936 24.6638 31.7853 24.6618 31.7769 24.6599L31.2205 24.5786C31.2143 24.5785 31.208 24.5785 31.2018 24.5786L30.7767 24.5286C30.7643 24.526 30.7518 24.524 30.7392 24.5224L30.4704 24.5099C30.4431 24.5095 30.416 24.5116 30.3891 24.5161L30.2703 24.5349H30.2266C30.0663 24.5519 29.9575 24.6357 29.9001 24.7863C29.8427 24.9369 29.8682 25.0719 29.9765 25.1912Z" fill="black"/>
<path d="M34.4649 25.6601L34.4711 25.6726C34.5122 25.8328 34.6143 25.9265 34.7774 25.9539L34.915 25.9789C34.9275 25.9795 34.94 25.9795 34.9525 25.9789L35.2088 25.9976C35.2275 25.999 35.2463 25.999 35.265 25.9976L35.6338 25.9664C35.6402 25.9644 35.6464 25.9624 35.6526 25.9601L36.0902 25.9101C36.0944 25.9081 36.0986 25.906 36.1027 25.9039L36.559 25.8351L37.0216 25.7726L37.4842 25.7288L37.9093 25.6976L38.2718 25.6913C38.2824 25.6897 38.2928 25.6876 38.3031 25.6851L38.5844 25.6538C38.67 25.6444 38.7429 25.6089 38.8032 25.5475L38.872 25.4788L38.9282 25.4663C39.0908 25.4246 39.1512 25.3225 39.1095 25.16C39.0678 24.9974 38.9657 24.937 38.8032 24.9787L38.7657 24.9912L38.6907 24.9599C38.6409 24.9378 38.5888 24.9274 38.5344 24.9287H38.2531L37.8905 24.9349C37.8843 24.9348 37.878 24.9348 37.8718 24.9349L37.4342 24.9537C37.4279 24.9535 37.4217 24.9535 37.4154 24.9537L36.9403 24.9974C36.9362 24.9974 36.932 24.9974 36.9278 24.9974L36.4528 25.0599C36.4485 25.062 36.4444 25.064 36.4403 25.0662L35.9839 25.1412L35.5588 25.1912L35.2275 25.2225L35.0087 25.2162L34.8837 25.1975C34.7204 25.1806 34.5975 25.2431 34.5149 25.385L34.5024 25.3975C34.4525 25.4797 34.44 25.5672 34.4649 25.6601Z" fill="black"/>
<path d="M38.8219 22.9408C38.8219 23.0444 38.8585 23.1328 38.9318 23.206C39.005 23.2793 39.0934 23.3159 39.197 23.3159C39.3005 23.3159 39.3889 23.2793 39.4622 23.206C39.5354 23.1328 39.572 23.0444 39.572 22.9408C39.572 22.8372 39.5354 22.7488 39.4622 22.6756C39.3889 22.6024 39.3005 22.5657 39.197 22.5657C39.0934 22.5657 39.005 22.6024 38.9318 22.6756C38.8585 22.7488 38.8219 22.8372 38.8219 22.9408ZM38.9844 22.6158L38.9657 22.6283C38.9071 22.664 38.8613 22.7119 38.8281 22.772L38.7969 22.8408C38.7808 22.8684 38.7683 22.8976 38.7594 22.9283L38.7219 23.0783C38.7169 23.0927 38.7127 23.1073 38.7094 23.1221L38.6719 23.3971C38.6694 23.4075 38.6673 23.4179 38.6656 23.4284L38.6469 23.816C38.6466 23.8243 38.6466 23.8326 38.6469 23.841L38.6531 24.2786C38.6537 24.317 38.6599 24.3545 38.6719 24.3911L38.7781 24.7161L38.7906 25.0037C38.7993 25.1742 38.8889 25.2552 39.0594 25.2469C39.2299 25.2386 39.3112 25.1492 39.3032 24.9787L39.2907 24.7099L39.397 24.3911C39.4077 24.3586 39.414 24.3253 39.4158 24.2911L39.4345 23.8597L39.4658 23.4909L39.497 23.2471L39.522 23.1409L39.5345 23.0908C39.5215 23.1147 39.5111 23.1398 39.5033 23.1659L39.5158 23.1471C39.639 22.9722 39.625 22.8091 39.4737 22.6578C39.3224 22.5066 39.1593 22.4925 38.9844 22.6158Z" fill="black"/>
</g>
<defs>
<clipPath id="clip0_1_7363">
<rect width="42" height="28" fill="white"/>
</clipPath>
</defs>
</svg>
