<svg width="34" height="29" viewBox="0 0 34 29" fill="none" xmlns="http://www.w3.org/2000/svg">
<g clip-path="url(#clip0_1_7428)">
<path d="M20.551 2.2845C20.551 2.49785 20.6577 2.60453 20.8711 2.60453C21.0844 2.60453 21.1911 2.49785 21.1911 2.2845C21.1911 2.07115 21.0844 1.96448 20.8711 1.96448C20.6577 1.96448 20.551 2.07115 20.551 2.2845ZM20.7962 1.91001L20.7485 1.91682C20.7848 1.92196 20.8211 1.92196 20.8574 1.91682L20.8098 1.91001L20.7621 1.89639C20.7136 1.87968 20.6636 1.8706 20.6123 1.86915H20.5306C20.5238 1.86902 20.517 1.86902 20.5102 1.86915H20.4829C20.3453 1.87305 20.2252 1.92086 20.1225 2.01258C20.0198 2.1043 19.9588 2.21832 19.9394 2.35463C19.9201 2.49095 19.9469 2.61744 20.02 2.73412C20.0931 2.85079 20.1952 2.93016 20.3263 2.97221L20.3944 2.99264C20.4387 3.00714 20.4841 3.01622 20.5306 3.01988L20.7553 3.0335C20.7576 3.03351 20.7598 3.03351 20.7621 3.0335L21.1502 3.05392L21.7222 3.09478L22.4712 3.21053L23.3972 3.40799L24.4186 3.68716L25.4399 4.06166L26.3523 4.51786L27.0945 5.04897L27.7073 5.64816C27.7096 5.64817 27.7119 5.64817 27.7141 5.64816L28.2725 6.18607L28.681 6.59461L28.8104 7.03039C28.8736 7.16679 28.977 7.21303 29.1208 7.16911C29.2645 7.12518 29.3245 7.02901 29.3006 6.88059L29.1576 6.41758L29.1304 5.80477C29.1276 5.75811 29.1186 5.71272 29.1032 5.66859L28.8649 4.9264C28.8341 4.83485 28.7864 4.75314 28.7219 4.68128L28.1227 4.00038C28.0863 3.95708 28.0454 3.91849 28.0001 3.88462L27.1626 3.28543C27.1302 3.26224 27.0962 3.24181 27.0605 3.22415L26.0595 2.72709C26.0328 2.71641 26.0056 2.70733 25.9778 2.69985L24.8884 2.30493C24.8683 2.29721 24.8478 2.29041 24.8271 2.2845L23.7445 2.00533C23.7242 1.9999 23.7038 1.99536 23.6832 1.99171L22.7163 1.83511C22.6982 1.83212 22.6801 1.82985 22.6618 1.8283L21.8516 1.76021C21.8266 1.7588 21.8016 1.7588 21.7767 1.76021L21.1707 1.77383C21.1615 1.7759 21.1525 1.77817 21.1434 1.78063L20.7417 1.80787C20.7212 1.80911 20.7007 1.81138 20.6804 1.81468L20.4625 1.85553C20.4394 1.86096 20.4167 1.86777 20.3944 1.87596L20.3263 1.89639C20.2635 2.11081 20.311 2.29702 20.469 2.45502C20.627 2.61302 20.8133 2.66059 21.0277 2.59772L21.0413 2.57048C20.9944 2.62714 20.9603 2.69069 20.9392 2.76113L20.9936 2.69304L21.0413 2.63176L21.0753 2.60453L21.089 2.59091C21.2489 2.47088 21.2894 2.31901 21.2104 2.13529C21.1314 1.95156 20.9933 1.87647 20.7962 1.91001Z" fill="black"/>
<path d="M22.5325 9.97872L22.5938 9.92425C22.6086 9.90936 22.6222 9.89347 22.6347 9.87658L22.6755 9.82892C22.6343 9.85503 22.5979 9.88681 22.5666 9.92425L22.6279 9.8902C22.471 9.84327 22.3235 9.8637 22.1853 9.95148L22.2397 9.9651C22.2953 9.98165 22.352 9.99073 22.41 9.99234L22.6074 9.99915L22.9206 10.0196L23.3428 10.0809L23.9216 10.2579L24.6365 10.5711L25.3651 10.9116L26.0256 11.3065L26.5975 11.6742L27.0537 12.0282C27.0603 12.0353 27.0671 12.0421 27.0742 12.0487L27.4282 12.2802L27.6053 12.5049C27.7142 12.6408 27.8367 12.6544 27.9728 12.5455C28.1089 12.4367 28.1225 12.3142 28.0138 12.178L27.83 11.9465L27.6461 11.5516C27.6348 11.5275 27.6212 11.5048 27.6053 11.4835L27.2376 11.0137C27.2332 11.0068 27.2287 11 27.2239 10.9933L26.7677 10.4485C26.755 10.4319 26.7414 10.416 26.7269 10.4009L26.1413 9.84254C26.1326 9.83089 26.1235 9.81955 26.1141 9.80849L25.4672 9.25696C25.4231 9.21993 25.3754 9.18815 25.3242 9.16164L24.5889 8.77352C24.5431 8.74854 24.4955 8.72811 24.4459 8.71224L23.765 8.50797C23.7117 8.49098 23.6572 8.47963 23.6015 8.47393L23.0704 8.42626C22.9903 8.41877 22.9109 8.4233 22.8321 8.43988L22.4781 8.52159C22.3431 8.55026 22.2251 8.61154 22.124 8.70543L21.9674 8.84842C21.7365 9.0645 21.6866 9.31643 21.8176 9.60422L21.8448 9.6587C21.8568 9.6824 21.8704 9.7051 21.8857 9.72679L21.9129 9.77445L21.9333 9.8153C21.9568 9.85651 21.9863 9.89283 22.0219 9.92425L22.0831 9.97872C22.2329 10.1152 22.3827 10.1152 22.5325 9.97872Z" fill="black"/>
<path d="M27.1081 11.7695C27.1081 11.8729 27.1447 11.9612 27.2178 12.0343C27.2909 12.1074 27.3792 12.144 27.4826 12.144C27.586 12.144 27.6743 12.1074 27.7474 12.0343C27.8206 11.9612 27.8571 11.8729 27.8571 11.7695C27.8571 11.6661 27.8206 11.5778 27.7474 11.5047C27.6743 11.4316 27.586 11.395 27.4826 11.395C27.3792 11.395 27.2909 11.4316 27.2178 11.5047C27.1447 11.5778 27.1081 11.6661 27.1081 11.7695ZM27.1013 11.7695C27.1013 11.8767 27.1392 11.9682 27.215 12.0439C27.2908 12.1197 27.3823 12.1576 27.4894 12.1576C27.5966 12.1576 27.6881 12.1197 27.7639 12.0439C27.8397 11.9682 27.8776 11.8767 27.8776 11.7695C27.8776 11.6623 27.8397 11.5708 27.7639 11.4951C27.6881 11.4193 27.5966 11.3814 27.4894 11.3814C27.3823 11.3814 27.2908 11.4193 27.215 11.4951C27.1392 11.5708 27.1013 11.6623 27.1013 11.7695ZM27.2103 12.0691L27.2239 12.0895C27.3333 12.1986 27.465 12.2462 27.6188 12.2325L27.7141 12.2257C27.7993 12.219 27.8787 12.194 27.9525 12.1508L28.1091 12.0555C28.1569 12.0274 28.2 11.9933 28.2384 11.9533L28.4427 11.7423C28.4794 11.7052 28.5111 11.6644 28.538 11.6197L28.7559 11.2452C28.772 11.2145 28.7856 11.1827 28.7968 11.1499L29.0147 10.6052C29.0255 10.5785 29.0345 10.5513 29.0419 10.5235L29.2326 9.79489C29.2398 9.7612 29.2443 9.72716 29.2462 9.69275L29.3279 8.85524C29.3279 8.8507 29.3279 8.84616 29.3279 8.84162L29.3824 8.01092C29.3824 8.00865 29.3824 8.00638 29.3824 8.00411L29.43 7.27555C29.4308 7.25966 29.4308 7.24377 29.43 7.22789L29.4096 6.67636C29.4095 6.64893 29.4073 6.6217 29.4028 6.59465L29.3347 6.261C29.3212 6.19714 29.2962 6.13813 29.2598 6.08397L29.1781 5.96822C29.0666 5.80432 28.9122 5.73155 28.7148 5.74991C28.5174 5.76827 28.3791 5.86827 28.2997 6.04992L28.2589 6.15206C28.2343 6.20854 28.2207 6.26755 28.218 6.32909L28.2044 6.68997C28.2041 6.69905 28.2041 6.70813 28.2044 6.71721V7.3164C28.2054 7.33697 28.2077 7.35739 28.2112 7.37768L28.3065 8.12668L28.4155 8.94376C28.4154 8.9483 28.4154 8.95284 28.4155 8.95738L28.538 9.65871L28.5448 10.2034C28.5496 10.3757 28.6381 10.4595 28.8104 10.455C28.9826 10.4505 29.0666 10.3621 29.0623 10.1898L29.0487 9.64509L29.1372 8.94376C29.1398 8.93477 29.1421 8.92569 29.144 8.91652L29.1917 8.09944L29.2326 7.33683C29.2356 7.32105 29.2378 7.30516 29.2394 7.28917L29.2121 6.70359V6.34952C29.1761 6.42008 29.1579 6.49498 29.1577 6.57422L29.2121 6.47208C29.1635 6.39638 29.0992 6.33789 29.0193 6.29662C28.9393 6.25535 28.8544 6.23682 28.7646 6.24104C28.6747 6.24525 28.5919 6.27164 28.5162 6.32021C28.4404 6.36878 28.3819 6.43302 28.3406 6.51294L28.361 6.55379L28.4087 6.77168L28.4495 7.25512L28.4155 7.9156L28.2589 8.65778L27.9865 9.40677C27.9842 9.41129 27.9819 9.41583 27.9797 9.42039L27.7414 10.1217L27.5439 10.6528L27.3805 11.0205L27.2716 11.252L27.1898 11.3882C27.1795 11.4081 27.1705 11.4285 27.1626 11.4495L27.1218 11.538C27.0905 11.6097 27.0768 11.6846 27.0809 11.7627V11.7831C27.0872 11.8951 27.1303 11.9904 27.2103 12.0691Z" fill="black"/>
<path d="M27.2783 11.5244L27.2511 11.5176C27.1947 11.5149 27.1402 11.524 27.0877 11.5448L27.0128 11.572C26.9622 11.5906 26.9168 11.6178 26.8766 11.6537L26.7608 11.7627C26.7321 11.789 26.7072 11.8185 26.6859 11.8512L26.5566 12.0487C26.5311 12.0846 26.5107 12.1232 26.4953 12.1644L26.3795 12.4981C26.3735 12.5205 26.369 12.5432 26.3659 12.5661L26.2638 13.036C26.2614 13.0427 26.2591 13.0495 26.257 13.0564L26.1548 13.642C26.1548 13.6465 26.1548 13.6511 26.1548 13.6556L26.0459 14.3161C26.0459 14.3183 26.0459 14.3206 26.0459 14.3229L25.9506 14.9765C25.9505 14.9811 25.9505 14.9856 25.9506 14.9902L25.8825 15.5485C25.8824 15.553 25.8824 15.5576 25.8825 15.5621L25.8416 15.9979C25.8413 16.0092 25.8413 16.0206 25.8416 16.0319L25.8348 16.3179C25.8348 16.3225 25.8348 16.327 25.8348 16.3315V16.4881C25.8345 16.5486 25.8436 16.6076 25.862 16.6652L25.8757 16.7197C25.9269 16.8785 26.028 16.9937 26.1789 17.0651C26.3298 17.1365 26.4829 17.1416 26.6383 17.0805L26.6655 17.0737C26.8752 16.9891 26.9955 16.8347 27.0264 16.6107L27.0332 16.563C27.0362 16.529 27.0362 16.495 27.0332 16.4609V16.3996C27.0123 16.4638 27.0032 16.5296 27.006 16.5971L27.0264 16.5358C27.0321 16.5156 27.0366 16.4952 27.04 16.4745L27.0536 16.4201C27.0487 16.2778 26.9973 16.155 26.8996 16.0515C26.8018 15.9481 26.682 15.8899 26.5403 15.8769C26.3985 15.8639 26.2702 15.8994 26.1553 15.9834C26.0404 16.0674 25.9676 16.1789 25.9369 16.3179L25.9438 16.352C25.9487 16.3204 25.951 16.2886 25.9506 16.2566L25.9165 16.4473L25.8552 16.8014C25.8552 16.8059 25.8552 16.8104 25.8552 16.815L25.794 17.2439C25.7939 17.2485 25.7939 17.253 25.794 17.2576L25.7395 17.6729C25.7381 17.6956 25.7381 17.7183 25.7395 17.741L25.7327 18.0883C25.7323 18.0996 25.7323 18.111 25.7327 18.1223L25.7531 18.3811L25.7599 18.5309L25.7667 18.6058C25.8005 18.5203 25.8141 18.4318 25.8076 18.3402L25.8008 18.3606C25.7057 18.6039 25.7505 18.8178 25.9351 19.0025C26.1198 19.1872 26.3338 19.2319 26.577 19.1369L26.5974 19.13C26.8835 19.0143 27.0083 18.8032 26.9719 18.4968L26.9651 18.4219C26.9612 18.3873 26.9544 18.3532 26.9447 18.3198L26.9106 18.2108L26.8902 18.0406L26.8834 17.7682L26.9243 17.3937L26.9855 16.9852L27.0468 16.6379C27.047 16.6289 27.047 16.6198 27.0468 16.6107L27.0741 16.4132C27.0844 16.3167 27.0708 16.2236 27.0332 16.1341L27.0264 16.1C26.9255 15.8553 26.7429 15.7389 26.4785 15.7508C26.2142 15.7627 26.0427 15.895 25.9642 16.1477L25.9506 16.1885L25.9369 16.243C25.932 16.2542 25.9275 16.2656 25.9233 16.2771L25.9097 16.3315C25.9303 16.2925 25.9462 16.2517 25.9574 16.209L25.9369 16.243C25.9742 16.2064 26.006 16.1656 26.0323 16.1205L26.0118 16.1409C26.0505 16.2293 26.1077 16.3034 26.1835 16.3632C26.2593 16.423 26.3446 16.4615 26.4396 16.4786C26.5346 16.4956 26.6281 16.4894 26.7199 16.4597C26.8118 16.43 26.8912 16.3805 26.9583 16.3111L26.9379 16.2566C26.9413 16.3202 26.9549 16.3815 26.9787 16.4405L26.9719 16.3111V16.0796L27.0128 15.6779L27.0809 15.1331L27.1762 14.4863L27.2715 13.8326C27.2738 13.8304 27.2761 13.8281 27.2783 13.8258L27.36 13.2334C27.36 13.2312 27.36 13.2289 27.36 13.2266L27.4213 12.7568L27.4758 12.4232L27.5234 12.2257L27.5507 12.1304L27.5643 12.1099L27.5711 12.1031C27.6056 12.0468 27.6241 11.9856 27.6268 11.9196C27.6294 11.8536 27.6158 11.7911 27.586 11.7322C27.5562 11.6732 27.5139 11.6253 27.4592 11.5883C27.4044 11.5513 27.3441 11.53 27.2783 11.5244ZM25.828 18.5989C25.828 18.7343 25.8759 18.8499 25.9716 18.9456C26.0673 19.0413 26.1829 19.0892 26.3182 19.0892C26.4536 19.0892 26.5692 19.0413 26.6649 18.9456C26.7606 18.8499 26.8085 18.7343 26.8085 18.5989C26.8085 18.4636 26.7606 18.348 26.6649 18.2523C26.5692 18.1566 26.4536 18.1087 26.3182 18.1087C26.1829 18.1087 26.0673 18.1566 25.9716 18.2523C25.8759 18.348 25.828 18.4636 25.828 18.5989ZM26.114 18.4151L26.0663 18.4491C25.9211 18.5535 25.9006 18.6784 26.005 18.8236C26.1094 18.9689 26.2343 18.9893 26.3795 18.8849L26.4272 18.8509C26.5725 18.7465 26.5929 18.6216 26.4885 18.4764C26.3841 18.3311 26.2592 18.3107 26.114 18.4151Z" fill="black"/>
<path d="M25.6443 18.2244C25.6443 18.4423 25.7533 18.5512 25.9711 18.5512C26.189 18.5512 26.298 18.4423 26.298 18.2244C26.298 18.0065 26.189 17.8976 25.9711 17.8976C25.7533 17.8976 25.6443 18.0065 25.6443 18.2244ZM25.4605 18.2925C25.4605 18.4335 25.5103 18.5539 25.61 18.6536C25.7098 18.7533 25.8301 18.8032 25.9711 18.8032C26.1122 18.8032 26.2325 18.7533 26.3323 18.6536C26.432 18.5539 26.4818 18.4335 26.4818 18.2925C26.4818 18.1515 26.432 18.0311 26.3323 17.9314C26.2325 17.8317 26.1122 17.7818 25.9711 17.7818C25.8301 17.7818 25.7098 17.8317 25.61 17.9314C25.5103 18.0311 25.4605 18.1515 25.4605 18.2925ZM25.4469 18.5376L25.4741 18.5921C25.5332 18.7561 25.6422 18.8741 25.8009 18.9462L25.9235 19.0006C25.9586 19.0175 25.9949 19.0311 26.0324 19.0415L26.2231 19.0823C26.27 19.0943 26.3177 19.1011 26.3661 19.1028H26.6044C26.6203 19.1033 26.6362 19.1033 26.6521 19.1028L26.9516 19.0823L27.2989 19.0551C27.3034 19.0552 27.308 19.0552 27.3125 19.0551L27.7279 19.0211C27.7301 19.0211 27.7324 19.0211 27.7347 19.0211L28.2522 18.9666C28.2913 18.963 28.3299 18.9562 28.3679 18.9462L29.0216 18.7691C29.0588 18.7608 29.0952 18.7494 29.1305 18.7351L29.8591 18.3946C29.8947 18.3793 29.9287 18.3612 29.9612 18.3402L30.6966 17.8431C30.7336 17.817 30.7676 17.7875 30.7987 17.7546L31.4184 17.1213C31.4618 17.0791 31.4981 17.0315 31.5273 16.9784L31.895 16.2702C31.9003 16.2568 31.9048 16.2432 31.9086 16.2294L32.1674 15.6029L32.4125 15.1263C32.4897 14.9765 32.4533 14.863 32.3035 14.7858C32.1537 14.7087 32.0403 14.745 31.9631 14.8948L31.7316 15.3374L31.2754 15.7595L30.6421 16.2021C30.6399 16.2044 30.6376 16.2066 30.6353 16.2089L29.934 16.7128L29.2463 17.1622L28.613 17.4414L28.0615 17.5844L27.5917 17.632L27.1763 17.6797C27.1718 17.6796 27.1673 17.6796 27.1627 17.6797L26.8223 17.7273L26.5499 17.7614L26.3661 17.7682L26.2163 17.7614C26.2049 17.7611 26.1936 17.7611 26.1822 17.7614H26.0529C26.0255 17.7619 25.9982 17.7641 25.9711 17.7682L25.9099 17.775C25.7285 17.7988 25.5904 17.8889 25.4955 18.0453C25.4005 18.2016 25.3843 18.3657 25.4469 18.5376Z" fill="black"/>
<path d="M30.4175 16.8491C30.4175 16.945 30.4514 17.0268 30.5192 17.0946C30.587 17.1624 30.6688 17.1963 30.7647 17.1963C30.8606 17.1963 30.9425 17.1624 31.0103 17.0946C31.0781 17.0268 31.112 16.945 31.112 16.8491C31.112 16.7532 31.0781 16.6713 31.0103 16.6035C30.9425 16.5357 30.8606 16.5018 30.7647 16.5018C30.6688 16.5018 30.587 16.5357 30.5192 16.6035C30.4514 16.6713 30.4175 16.7532 30.4175 16.8491ZM30.4924 16.6108L30.4787 16.6244L30.4379 16.6516C30.247 16.7781 30.1974 16.9462 30.2892 17.1559C30.381 17.3657 30.5381 17.4434 30.7605 17.3891C30.9829 17.3347 31.0865 17.1933 31.0711 16.9648L31.0643 16.9035C31.0079 16.9782 30.9829 17.0621 30.9894 17.1555L31.0235 17.1078C31.0335 17.0948 31.0425 17.0812 31.0507 17.067L31.0711 17.0397C31.1945 16.85 31.1653 16.6878 30.9835 16.553C30.8017 16.4183 30.638 16.4375 30.4924 16.6108ZM30.2677 16.7061L30.2132 16.7606C30.1936 16.7797 30.1754 16.8001 30.1587 16.8218L30.1315 16.8559C30.0604 16.9449 30.0157 17.0456 29.9972 17.158C29.9788 17.2704 29.989 17.3801 30.028 17.4871C30.0669 17.5942 30.1295 17.6849 30.2158 17.7592C30.3022 17.8335 30.4011 17.8819 30.5128 17.9045L30.6013 17.9249C30.7985 17.9626 30.9778 17.9217 31.1392 17.8023L31.3231 17.673C31.3547 17.6505 31.3842 17.6255 31.4116 17.5981L31.6635 17.3393C31.6854 17.318 31.7059 17.2953 31.7248 17.2712L32.0108 16.8899C32.0308 16.864 32.049 16.8367 32.0652 16.8082L32.3444 16.3112C32.3604 16.2804 32.374 16.2486 32.3853 16.2158L32.6168 15.603C32.6281 15.5719 32.6371 15.5401 32.644 15.5077L32.7938 14.854C32.7999 14.827 32.8045 14.7998 32.8074 14.7723L32.8687 14.1527C32.8723 14.1278 32.8746 14.1029 32.8755 14.0778V13.5535C32.8743 13.5307 32.8721 13.508 32.8687 13.4854L32.8347 13.0837C32.8311 13.0445 32.8243 13.0059 32.8142 12.9679L32.7461 12.7092C32.7329 12.6618 32.7147 12.6164 32.6917 12.573L32.6304 12.4572C32.4963 12.183 32.278 12.0666 31.9755 12.1081C31.6731 12.1496 31.4942 12.3204 31.4388 12.6207L31.4184 12.7568C31.4078 12.8085 31.4032 12.8607 31.4048 12.9135L31.4184 13.179C31.4184 13.1813 31.4184 13.1835 31.4184 13.1858L31.432 13.5671V14.0437L31.3775 14.5885L31.2618 15.1536L31.0711 15.6779L30.86 16.0933L30.6285 16.3997L30.4311 16.6039L30.3426 16.6857C30.5038 16.7264 30.6582 16.7082 30.8056 16.6312L30.7647 16.6176C30.8431 16.7159 30.943 16.7818 31.0643 16.815L31.0167 16.7606C30.9238 16.6438 30.8029 16.58 30.6541 16.5692C30.5053 16.5584 30.3765 16.604 30.2677 16.7061ZM31.5001 12.9339V12.9407L31.5273 13.1586L31.5409 13.322C31.5421 13.3425 31.5444 13.363 31.5478 13.3833L31.5886 13.5603C31.5885 13.5648 31.5885 13.5694 31.5886 13.5739L31.6431 13.8122L31.6976 14.214L31.7793 14.9017L31.8814 15.8549C31.8835 15.8641 31.8857 15.8732 31.8882 15.8822L32.0584 16.9784C32.0603 16.9899 32.0626 17.0012 32.0652 17.0125L32.3036 18.0951L32.4806 19.028L32.4942 19.7633C32.499 19.931 32.5852 20.0126 32.7529 20.0081C32.9206 20.0035 33.0024 19.9174 32.9981 19.7497L32.9845 19.0143L33.0866 18.0543C33.0867 18.0497 33.0867 18.0452 33.0866 18.0406L33.1547 16.924C33.1558 16.9035 33.1558 16.8831 33.1547 16.8627L33.0934 15.7528C33.0937 15.7415 33.0937 15.7301 33.0934 15.7188L32.9913 14.7655C32.9892 14.7564 32.9869 14.7473 32.9845 14.7383L32.8823 14.0506C32.8804 14.0391 32.8781 14.0278 32.8755 14.0165L32.787 13.5944C32.785 13.5852 32.7827 13.5761 32.7802 13.5671L32.7189 13.3288L32.6985 13.1994L32.6849 13.0564L32.6644 12.7773V12.7228C32.6606 12.5385 32.5874 12.388 32.4447 12.2713C32.3019 12.1546 32.1399 12.1127 31.9585 12.1456C31.7771 12.1784 31.6401 12.2746 31.5474 12.4339C31.4547 12.5933 31.4389 12.76 31.5001 12.9339Z" fill="black"/>
<path d="M22.9886 23.5355C22.9886 23.6333 23.0232 23.7167 23.0923 23.7859C23.1614 23.855 23.2449 23.8896 23.3427 23.8896C23.4404 23.8896 23.5239 23.855 23.593 23.7859C23.6622 23.7167 23.6967 23.6333 23.6967 23.5355C23.6967 23.4377 23.6622 23.3543 23.593 23.2851C23.5239 23.216 23.4404 23.1814 23.3427 23.1814C23.2449 23.1814 23.1614 23.216 23.0923 23.2851C23.0232 23.3543 22.9886 23.4377 22.9886 23.5355ZM22.9682 23.5355C22.9682 23.6408 23.0054 23.7307 23.0798 23.8051C23.1543 23.8796 23.2442 23.9168 23.3495 23.9168C23.4548 23.9168 23.5446 23.8796 23.6191 23.8051C23.6935 23.7307 23.7308 23.6408 23.7308 23.5355C23.7308 23.4302 23.6935 23.3403 23.6191 23.2659C23.5446 23.1914 23.4548 23.1542 23.3495 23.1542C23.2442 23.1542 23.1543 23.1914 23.0798 23.2659C23.0054 23.3403 22.9682 23.4302 22.9682 23.5355ZM22.9069 23.5423C22.907 23.6701 22.9522 23.7792 23.0426 23.8695C23.133 23.9598 23.2421 24.005 23.3699 24.005C23.4977 24.005 23.6068 23.9598 23.6972 23.8695C23.7876 23.7792 23.8328 23.6701 23.8329 23.5423C23.8328 23.4145 23.7876 23.3054 23.6972 23.2151C23.6068 23.1248 23.4977 23.0796 23.3699 23.0796C23.2421 23.0796 23.133 23.1248 23.0426 23.2151C22.9522 23.3054 22.907 23.4145 22.9069 23.5423ZM22.8116 23.7874L22.8592 23.9372C22.9162 24.1097 23.0206 24.2459 23.1724 24.3458L23.4584 24.5432C23.5056 24.5756 23.5555 24.6028 23.6082 24.6249L24.1325 24.8428C24.1963 24.8685 24.2621 24.8866 24.33 24.8973L25.1198 25.0335C25.156 25.0379 25.1923 25.0402 25.2288 25.0403L26.2161 25.0811C26.2501 25.083 26.2842 25.083 26.3182 25.0811L27.4281 25.0131C27.4624 25.0104 27.4964 25.0059 27.5302 24.9994L28.6741 24.7884C28.7181 24.7802 28.7612 24.7689 28.8035 24.7543L29.8929 24.3866C29.9255 24.3749 29.9573 24.3613 29.9883 24.3458L30.9483 23.8828C30.9964 23.8599 31.0418 23.8327 31.0845 23.801L31.8471 23.2223C31.9038 23.1816 31.9537 23.134 31.9969 23.0793L32.5008 22.4188C32.5318 22.3767 32.5567 22.3313 32.5757 22.2826L32.8549 21.6085C32.8572 21.6063 32.8594 21.604 32.8617 21.6017L33.1136 20.9481C33.1253 20.915 33.1321 20.8809 33.134 20.8459L33.1817 20.2808L33.2566 19.8518C33.2836 19.6885 33.2155 19.5933 33.0523 19.5661C32.889 19.5389 32.7937 19.6069 32.7663 19.7701L32.6983 20.1718L32.4531 20.6417L32.1467 21.1796L31.6769 21.5813L31.0369 21.983L30.247 22.3916L29.3482 22.7456L28.3269 23.0044L27.2647 23.1746L26.2501 23.2359L25.3445 23.2019L24.6091 23.1065L24.1121 23.0316L23.8261 22.9431C23.7231 22.9149 23.6187 22.9081 23.5129 22.9227L23.3563 22.9431C23.1535 22.9678 22.9968 23.066 22.886 23.2376C22.7753 23.4092 22.7505 23.5925 22.8116 23.7874Z" fill="black"/>
<path d="M32.2968 15.7187L32.2831 15.7391C32.2656 15.7559 32.2497 15.774 32.2355 15.7936L32.1401 15.9366C32.0891 16.0083 32.0573 16.0878 32.0448 16.1749L31.9903 16.6379C31.9866 16.6627 31.9843 16.6877 31.9835 16.7128L31.9767 17.4482L31.9495 18.3878C31.9492 18.3992 31.9492 18.4105 31.9495 18.4219L31.9767 19.4092C31.9778 19.4577 31.9846 19.5053 31.9972 19.5522L32.215 20.342L32.1265 21.0161C32.1038 21.1886 32.1787 21.2862 32.3512 21.3089C32.5237 21.3316 32.6213 21.2567 32.644 21.0842L32.7325 20.3965L33.107 19.6679C33.1382 19.6078 33.1587 19.5443 33.1683 19.4773L33.3045 18.49C33.3087 18.4606 33.311 18.4311 33.3113 18.4014V17.4618C33.312 17.4436 33.312 17.4255 33.3113 17.4073L33.25 16.6651C33.2457 16.6328 33.2389 16.6011 33.2296 16.5698L33.1206 16.1136C33.0973 16.0139 33.0496 15.9277 32.9777 15.8549L32.8551 15.7391C32.7997 15.6839 32.7339 15.6476 32.6576 15.6302L32.6372 15.6234C32.5059 15.5914 32.3924 15.6232 32.2968 15.7187Z" fill="black"/>
<path d="M8.9266 7.51069C8.9266 7.61599 8.96382 7.70586 9.03828 7.78032C9.11273 7.85477 9.20261 7.892 9.3079 7.892C9.4132 7.892 9.50307 7.85477 9.57753 7.78032C9.65198 7.70586 9.68921 7.61599 9.68921 7.51069C9.68921 7.4054 9.65198 7.31552 9.57753 7.24107C9.50307 7.16661 9.4132 7.12939 9.3079 7.12939C9.20261 7.12939 9.11273 7.16661 9.03828 7.24107C8.96382 7.31552 8.9266 7.4054 8.9266 7.51069ZM9.36237 7.12258H9.34195C9.22039 7.09971 9.11201 7.12776 9.01681 7.20672C8.92161 7.28568 8.874 7.38701 8.874 7.51069C8.874 7.63438 8.92161 7.73571 9.01681 7.81467C9.11201 7.89363 9.22039 7.92168 9.34195 7.89881H9.36237C9.46955 7.89881 9.56103 7.86092 9.63681 7.78513C9.7126 7.70935 9.75049 7.61787 9.75049 7.51069C9.75049 7.40352 9.7126 7.31204 9.63681 7.23625C9.56103 7.16047 9.46955 7.12258 9.36237 7.12258ZM8.81765 7.48346C8.81765 7.60379 8.8602 7.70651 8.94529 7.7916C9.03038 7.87669 9.13309 7.91923 9.25343 7.91923C9.37377 7.91923 9.47648 7.87669 9.56157 7.7916C9.64666 7.70651 9.68921 7.60379 9.68921 7.48346C9.68921 7.36312 9.64666 7.26041 9.56157 7.17532C9.47648 7.09022 9.37377 7.04768 9.25343 7.04768C9.13309 7.04768 9.03038 7.09022 8.94529 7.17532C8.8602 7.26041 8.81765 7.36312 8.81765 7.48346ZM9.72325 7.38132L9.71644 7.30642C9.63856 7.41203 9.60679 7.53006 9.62112 7.66049L9.66878 7.5924C9.6869 7.56647 9.70279 7.53923 9.71644 7.51069L9.74368 7.46303L9.85262 7.34728L10.1999 7.0613L10.765 6.65276L11.5685 6.19655L12.5558 5.74035L13.618 5.35223L14.5849 5.05264L15.4905 5.01859L16.2395 5.07987L16.7638 5.27052C16.9227 5.32954 17.0316 5.2796 17.0906 5.12073C17.1496 4.96185 17.0997 4.8529 16.9408 4.79389L16.3825 4.58962L15.6199 4.31726C15.5978 4.30821 15.5751 4.3014 15.5518 4.29683L14.5713 4.15384C14.5531 4.15274 14.535 4.15274 14.5168 4.15384L13.4274 4.14023C13.3674 4.13846 13.3083 4.14527 13.2503 4.16065L12.12 4.48068C12.0897 4.48992 12.0602 4.50127 12.0315 4.51472L10.9829 4.98455C10.9667 4.99298 10.9508 5.00206 10.9353 5.01178L10.0637 5.50203C10.0425 5.51453 10.0221 5.52815 10.0024 5.54289L9.38961 5.98547C9.36574 6.00216 9.34304 6.02032 9.32152 6.03994L8.96064 6.3872C8.90575 6.43635 8.86036 6.49309 8.82446 6.55743L8.69509 6.80936C8.64653 6.90335 8.62384 7.00322 8.627 7.10896V7.25876C8.63094 7.40941 8.68542 7.53878 8.79042 7.64687L8.84489 7.70816C8.82345 7.6555 8.79394 7.60783 8.75637 7.56517L8.78361 7.64006C8.90581 7.88238 9.09773 7.96751 9.35938 7.89547C9.62103 7.82342 9.74232 7.65204 9.72325 7.38132Z" fill="black"/>
<path d="M10.4587 6.56426C10.4588 6.66763 10.4954 6.75584 10.5685 6.8289C10.6416 6.90197 10.7299 6.9385 10.8332 6.9385C10.9366 6.9385 11.0248 6.90197 11.098 6.8289C11.1711 6.75584 11.2077 6.66763 11.2077 6.56426C11.2077 6.4609 11.1711 6.37268 11.098 6.29962C11.0248 6.22656 10.9366 6.19002 10.8332 6.19002C10.7299 6.19002 10.6416 6.22656 10.5685 6.29962C10.4954 6.37268 10.4588 6.4609 10.4587 6.56426ZM11.0647 6.86386L11.0852 6.84343C11.1397 6.80213 11.1808 6.75016 11.2084 6.68752C11.2359 6.62488 11.2465 6.55949 11.24 6.49136C11.2336 6.42323 11.211 6.36097 11.1722 6.3046C11.1334 6.24823 11.0833 6.20487 11.0219 6.17453C10.9606 6.14419 10.8958 6.13071 10.8274 6.13408C10.759 6.13745 10.6958 6.15725 10.6378 6.19348C10.5797 6.2297 10.5342 6.27778 10.5011 6.33769C10.468 6.39761 10.4516 6.46178 10.4519 6.53022V6.55745C10.4505 6.71614 10.5208 6.83097 10.6627 6.90194C10.8046 6.97291 10.9386 6.96022 11.0647 6.86386ZM11.0647 6.94557L11.235 6.89109C11.2678 6.88006 11.2996 6.86644 11.3303 6.85024L11.6571 6.68682C11.664 6.68466 11.6708 6.68239 11.6776 6.68002L12.1746 6.40085L12.8691 6.07401L13.7475 5.79484L14.7689 5.62462L15.8379 5.59738L16.8796 5.69952L17.8057 5.88336L18.5887 6.0672C18.618 6.07348 18.6475 6.07802 18.6772 6.08082L19.2696 6.14891C19.3335 6.15633 19.3971 6.15406 19.4603 6.1421L19.7258 6.09444L19.7667 6.10125L19.7735 6.11487C19.8694 6.23437 19.9824 6.2535 20.1124 6.17228C20.2423 6.09105 20.2746 5.98112 20.2093 5.84251L20.1412 5.74037L20.0663 5.56334C20.0641 5.55875 20.0618 5.55421 20.0595 5.54972L19.9165 5.25012C19.8622 5.13464 19.7805 5.04385 19.6713 4.97776L19.1607 4.67135C19.1009 4.63539 19.0373 4.60816 18.97 4.58964L18.1734 4.37176C18.1554 4.36656 18.1372 4.36202 18.1189 4.35814L17.1384 4.16749C17.1136 4.16172 17.0887 4.15718 17.0635 4.15387L15.94 4.04492C15.9082 4.04297 15.8765 4.04297 15.8447 4.04492L14.6735 4.07216C14.6393 4.07218 14.6053 4.07445 14.5714 4.07897L13.4411 4.26281C13.4018 4.26895 13.3632 4.27803 13.3253 4.29005L12.3448 4.59645C12.3098 4.60767 12.2758 4.62129 12.2427 4.63731L11.4869 5.005C11.4333 5.03102 11.3834 5.0628 11.3371 5.10032L10.8673 5.46801C10.8114 5.5153 10.7637 5.56977 10.7243 5.63143L10.52 5.92421C10.4668 6.00288 10.4327 6.08913 10.4179 6.18296L10.3838 6.35999C10.3705 6.45012 10.3797 6.53787 10.4116 6.62325C10.4434 6.70862 10.4938 6.78101 10.5629 6.84042C10.632 6.89983 10.7111 6.93887 10.8003 6.95756C10.8895 6.97624 10.9776 6.97225 11.0647 6.94557Z" fill="black"/>
<path d="M10.4792 7.32682C10.4547 7.18427 10.3761 7.08415 10.2435 7.02649C10.1108 6.96882 9.984 6.97964 9.86303 7.05896C9.74207 7.13828 9.68159 7.25026 9.68159 7.39491C9.68159 7.53957 9.74207 7.65155 9.86303 7.73087C9.984 7.81018 10.1108 7.82101 10.2435 7.76334C10.3761 7.70568 10.4547 7.60556 10.4792 7.463C10.4873 7.41761 10.4873 7.37222 10.4792 7.32682ZM9.58726 7.3813C9.58726 7.51103 9.63312 7.62177 9.72486 7.71351C9.8166 7.80525 9.92734 7.85112 10.0571 7.85112C10.1868 7.85112 10.2976 7.80525 10.3893 7.71351C10.481 7.62177 10.5269 7.51103 10.5269 7.3813C10.5269 7.25156 10.481 7.14082 10.3893 7.04908C10.2976 6.95734 10.1868 6.91147 10.0571 6.91147C9.92734 6.91147 9.8166 6.95734 9.72486 7.04908C9.63312 7.14082 9.58726 7.25156 9.58726 7.3813ZM9.43065 7.36087C9.43065 7.52257 9.48782 7.66059 9.60216 7.77493C9.7165 7.88927 9.85452 7.94645 10.0162 7.94645C10.1779 7.94645 10.3159 7.88927 10.4303 7.77493C10.5446 7.66059 10.6018 7.52257 10.6018 7.36087C10.6018 7.19917 10.5446 7.06115 10.4303 6.9468C10.3159 6.83246 10.1779 6.77529 10.0162 6.77529C9.85452 6.77529 9.7165 6.83246 9.60216 6.9468C9.48782 7.06115 9.43065 7.19917 9.43065 7.36087ZM9.80514 7.93964L9.85962 7.95325C9.95525 7.98347 10.0528 7.99255 10.1524 7.98049L10.3703 7.95325L10.8129 7.89878C10.8404 7.89571 10.8676 7.89117 10.8946 7.88516L11.5959 7.72856L12.5015 7.52429L13.482 7.32002L14.4012 7.1566L15.1911 7.02723C15.2002 7.02513 15.2093 7.02286 15.2183 7.02042L15.8447 6.89105C15.8562 6.88905 15.8675 6.88678 15.8788 6.88424L16.3214 6.77529L16.6142 6.70039C16.7125 6.67408 16.801 6.62869 16.8797 6.56421L16.9682 6.49612C17.2194 6.29865 17.2972 6.04748 17.2017 5.74261C17.1062 5.43774 16.899 5.27583 16.5801 5.25688L16.4984 5.25007C16.4576 5.24638 16.4167 5.24638 16.3759 5.25007L16.1239 5.27731C16.1194 5.27953 16.1148 5.2818 16.1103 5.28412L15.7358 5.33178C15.729 5.33168 15.7222 5.33168 15.7154 5.33178L15.2387 5.41349L14.7008 5.48839L14.0608 5.58371C14.0585 5.5837 14.0562 5.5837 14.054 5.58371L13.3186 5.69947C13.3163 5.70172 13.314 5.70399 13.3118 5.70628L12.5832 5.83565C12.5764 5.83555 12.5696 5.83555 12.5628 5.83565L11.9159 5.97183C11.9023 5.97371 11.8886 5.97598 11.8751 5.97864L11.3848 6.10801C11.3688 6.11201 11.3529 6.11655 11.3372 6.12163L11.024 6.22376C10.9935 6.23542 10.964 6.24904 10.9354 6.26462L10.8265 6.31909C10.7057 6.37826 10.607 6.4631 10.5303 6.57359C10.4536 6.68408 10.4087 6.80625 10.3955 6.9401C10.3823 7.07395 10.4026 7.20253 10.4563 7.32586C10.5099 7.44918 10.5902 7.55164 10.6971 7.63323L10.8129 7.72175C10.9701 7.84044 11.1471 7.89718 11.344 7.89197L11.7934 7.87835C11.8346 7.87669 11.8754 7.87215 11.9159 7.86474L12.6309 7.74898C12.64 7.74686 12.6491 7.74459 12.6581 7.74217L13.5501 7.55833C13.5569 7.55841 13.5637 7.55841 13.5705 7.55833L14.551 7.33363C14.5533 7.33364 14.5556 7.33364 14.5578 7.33363L15.5452 7.09532L16.4235 6.90466L17.1317 6.76168L17.6491 6.65954L17.9419 6.60507L18.0713 6.59145C18.3868 6.54887 18.6115 6.38318 18.7454 6.09439C18.8297 5.90656 18.844 5.71354 18.7882 5.51535C18.7325 5.31715 18.6197 5.15989 18.4498 5.04357C18.2799 4.92725 18.0925 4.87893 17.8875 4.89861C17.6826 4.9183 17.5078 5.00141 17.3632 5.14794L17.3223 5.1956C17.4401 5.15093 17.5422 5.08284 17.6287 4.99133L17.5334 5.02537C17.4491 5.0557 17.3719 5.09882 17.3019 5.15475L17.2338 5.21603C16.9959 5.40699 16.9064 5.65212 16.9654 5.95142C17.0243 6.25072 17.2 6.44364 17.4925 6.53017L17.581 6.5574C17.668 6.58127 17.7566 6.59034 17.8466 6.58464H17.9419H17.9964C18.1942 6.57913 18.3688 6.51273 18.5202 6.38545C18.6717 6.25817 18.7672 6.0976 18.8067 5.90374C18.8341 5.77199 18.8313 5.64091 18.798 5.51051C18.7647 5.3801 18.7045 5.26364 18.6173 5.16113C18.5301 5.05862 18.4248 4.9805 18.3014 4.92677C18.1781 4.87303 18.0491 4.84916 17.9147 4.85515L17.7649 4.86196C17.7329 4.86475 17.7011 4.86929 17.6696 4.87558L17.3495 4.92324C17.3381 4.92528 17.3268 4.92755 17.3155 4.93005L16.7912 5.03218L16.0694 5.17517C16.0626 5.17736 16.0558 5.17963 16.049 5.18198L15.157 5.37263C15.1548 5.37489 15.1525 5.37716 15.1502 5.37944L14.1629 5.60414L13.1892 5.81522L12.3041 5.99906L11.6027 6.13524L11.1669 6.21695C11.1578 6.21907 11.1488 6.22134 11.1397 6.22376L10.9967 6.25781C10.8557 6.54935 10.8855 6.82225 11.0861 7.07652C11.2866 7.33079 11.5451 7.4233 11.8615 7.35406L11.9159 7.24512C11.7345 7.31255 11.6006 7.43284 11.5142 7.60599L11.7866 7.50386L12.236 7.3813L12.8624 7.2315L13.5705 7.0817L14.2787 6.95914L14.9051 6.86381L15.4498 6.77529C15.4566 6.77539 15.4634 6.77539 15.4703 6.77529L15.9401 6.69358L16.2873 6.6323L16.5188 6.61188C16.4086 6.56042 16.2928 6.53999 16.1716 6.5506L16.2465 6.58464C16.507 6.45306 16.634 6.24139 16.6277 5.94963C16.6213 5.65787 16.4852 5.45192 16.2192 5.33178L16.1784 5.3454L16.0014 5.39987L15.6064 5.46796L14.9936 5.52243C14.9868 5.52461 14.98 5.52688 14.9732 5.52924L14.1765 5.62457C14.1651 5.62658 14.1538 5.62885 14.1425 5.63138L13.2028 5.78798C13.1937 5.79009 13.1846 5.79236 13.1756 5.79479L12.1815 5.99906C12.177 5.99902 12.1724 5.99902 12.1679 5.99906L11.2555 6.20334C11.2463 6.20544 11.2373 6.20771 11.2282 6.21014L10.5269 6.39399C10.5155 6.396 10.5042 6.39827 10.4929 6.4008L10.0639 6.53698C10.0383 6.54691 10.0133 6.55826 9.98899 6.57102L9.78472 6.65954C9.60224 6.73971 9.47741 6.87363 9.41022 7.06127L9.38979 7.10894C9.32723 7.28132 9.33695 7.44952 9.41896 7.61354C9.50097 7.77756 9.6297 7.88626 9.80514 7.93964ZM17.1861 5.32497L17.1044 5.39987C17.196 5.37868 17.2777 5.33783 17.3495 5.27731L17.3155 5.28412H17.3019C17.254 5.2809 17.2063 5.28317 17.1589 5.29093L17.0908 5.29774C16.7578 5.34857 16.574 5.54149 16.5393 5.8765L16.5325 5.89012C16.5198 5.9994 16.5338 6.10515 16.5745 6.20736C16.6152 6.30956 16.6778 6.39599 16.7621 6.46662C16.8465 6.53725 16.9425 6.58364 17.0503 6.60577C17.158 6.6279 17.2646 6.62313 17.37 6.59145L17.4381 6.57102C17.5324 6.54262 17.6149 6.49411 17.6855 6.42549C17.7562 6.35687 17.8071 6.27583 17.8382 6.18239C17.8694 6.08895 17.8773 5.99358 17.8619 5.89628C17.8466 5.79899 17.8097 5.71069 17.7513 5.63138L17.7104 5.5701C17.7243 5.68858 17.7675 5.79525 17.8398 5.89012L17.833 5.8765C17.6847 6.02313 17.6212 6.20016 17.6423 6.40761L17.6559 6.39399L17.6219 6.42122L17.6628 6.40761C17.5509 6.37682 17.4397 6.37908 17.3291 6.41441L17.4381 6.44846C17.5471 6.47665 17.6561 6.47636 17.7651 6.44759C17.874 6.41883 17.9689 6.36526 18.0499 6.2869C18.1308 6.20853 18.1874 6.11538 18.2197 6.00744C18.2519 5.8995 18.2557 5.79057 18.2311 5.68064C18.2064 5.57071 18.1565 5.47383 18.0812 5.39001C18.0059 5.30618 17.915 5.24612 17.8083 5.20982C17.7017 5.17352 17.593 5.16562 17.4822 5.18612C17.3714 5.20662 17.2727 5.25291 17.1861 5.32497ZM17.2338 6.29185L17.3495 6.37356C17.4904 6.45229 17.6065 6.42517 17.6979 6.29221C17.7893 6.15924 17.7731 6.0411 17.6491 5.93778L17.5334 5.85607C17.3925 5.77735 17.2764 5.80446 17.185 5.93743C17.0936 6.0704 17.1098 6.18854 17.2338 6.29185Z" fill="black"/>
<path d="M1.9973 19.595L1.97007 19.6222C1.96777 19.6245 1.9655 19.6268 1.96326 19.6291L1.87474 19.7176C1.86006 19.7326 1.84644 19.7484 1.83389 19.7652L1.6909 19.9559C1.65722 19.9974 1.62998 20.0428 1.60919 20.0921L1.47301 20.4666C1.44776 20.5278 1.43187 20.5913 1.42534 20.6572L1.38449 21.3041C1.38205 21.352 1.38432 21.3996 1.3913 21.4471L1.51386 22.3595C1.51858 22.3917 1.52539 22.4235 1.53429 22.4548L1.83389 23.517C1.84304 23.5496 1.85439 23.5813 1.86793 23.6123L2.34456 24.7154C2.35812 24.7483 2.37401 24.7801 2.39223 24.8107L3.03908 25.8389C3.0614 25.8727 3.08636 25.9045 3.11398 25.9342L3.86978 26.7922C3.89891 26.8245 3.93069 26.854 3.96511 26.8807L4.78219 27.5275C4.84764 27.5812 4.92027 27.622 5.00008 27.6501L5.83759 27.9293C5.90396 27.9513 5.97205 27.9604 6.04186 27.9565L6.69553 27.9224L7.20621 28.0246C7.37006 28.0419 7.46854 27.9699 7.50165 27.8085C7.53476 27.6471 7.47259 27.5421 7.31515 27.4935L6.83852 27.3982L6.38231 26.9896C6.38006 26.9873 6.37779 26.9851 6.3755 26.9828L5.70141 26.4108C5.6969 26.4085 5.69236 26.4063 5.68779 26.404L4.93199 25.7776L4.24428 25.0082L3.6587 24.089L3.24335 23.0812L2.9778 22.1007L2.83481 21.2564L2.76672 20.63C2.76701 20.6186 2.76701 20.6073 2.76672 20.5959L2.69863 20.2214L2.68501 20.0512V20.0104V20.0036C2.73959 19.8008 2.67661 19.6458 2.49607 19.5385C2.31553 19.4313 2.14928 19.4501 1.9973 19.595Z" fill="black"/>
<path d="M17.3387 2.19246C17.3387 2.28835 17.3726 2.3702 17.4404 2.43801C17.5082 2.50581 17.59 2.53972 17.6859 2.53972C17.7818 2.53972 17.8637 2.50581 17.9315 2.43801C17.9993 2.3702 18.0332 2.28835 18.0332 2.19246C18.0332 2.09656 17.9993 2.01471 17.9315 1.94691C17.8637 1.8791 17.7818 1.8452 17.6859 1.8452C17.59 1.8452 17.5082 1.8791 17.4404 1.94691C17.3726 2.01471 17.3387 2.09656 17.3387 2.19246ZM18.006 2.02904L17.9855 1.98138C17.9864 2.03369 17.9978 2.08362 18.0196 2.13118V2.04266C18.0155 1.94771 17.986 1.86146 17.9311 1.78392L17.7949 1.59326C17.7484 1.5299 17.6917 1.4777 17.6246 1.43665L17.2842 1.21877C17.2166 1.17678 17.144 1.14728 17.0663 1.13025L16.4739 0.987259C16.4225 0.974812 16.3703 0.968003 16.3173 0.966832L15.473 0.953214C15.4435 0.951468 15.414 0.951468 15.3845 0.953214L14.3427 1.06216C14.3222 1.0636 14.3018 1.06587 14.2814 1.06897L13.1171 1.28005C13.0965 1.28375 13.076 1.28829 13.0558 1.29367L11.8234 1.62731C11.7958 1.63266 11.7685 1.63947 11.7416 1.64773L10.5024 2.13118C10.4721 2.143 10.4426 2.15662 10.4139 2.17203L9.24274 2.78484C9.20954 2.80306 9.17777 2.82349 9.14741 2.84612L8.14649 3.56788C8.1152 3.59075 8.0857 3.61571 8.05797 3.64278L7.28855 4.37815C7.25084 4.41351 7.2168 4.45209 7.18641 4.49391L6.66893 5.21566C6.62527 5.27895 6.59123 5.34704 6.56679 5.41993L6.32167 6.09403C6.28507 6.20243 6.27145 6.31364 6.28081 6.42767L6.32167 7.06091C6.33052 7.20586 6.37364 7.33977 6.45104 7.46264L6.81192 8.0346C6.8803 8.14502 6.96881 8.2358 7.07747 8.30696L7.77199 8.74955C7.82583 8.78282 7.88257 8.81006 7.94221 8.83125L8.73206 9.13766C8.79827 9.16161 8.86636 9.1775 8.93633 9.18532L9.94407 9.3215C10.0008 9.3269 10.0576 9.3269 10.1143 9.3215L11.3672 9.25341C11.3969 9.25037 11.4264 9.24583 11.4557 9.2398L12.8924 9.02191C12.9038 9.01986 12.9151 9.01759 12.9264 9.0151L14.438 8.7155C14.4426 8.71327 14.4471 8.711 14.4516 8.70869L15.936 8.38867C15.9474 8.38662 15.9588 8.38436 15.9701 8.38186L17.3455 8.02779C17.3615 8.02371 17.3774 8.01917 17.3931 8.01417L18.612 7.61925C18.6373 7.61134 18.6623 7.60226 18.6869 7.59201L19.7082 7.14943C19.7507 7.13232 19.7916 7.1119 19.8308 7.08814L20.641 6.57066C20.6933 6.53515 20.741 6.4943 20.784 6.4481L21.3628 5.86252C21.4273 5.7962 21.4795 5.7213 21.5194 5.63782L21.8326 4.99777C21.8935 4.87556 21.923 4.74619 21.9211 4.60966L21.9007 3.9628C21.8976 3.80774 21.8545 3.66475 21.7713 3.53383L21.3968 2.95507C21.3362 2.8596 21.259 2.78017 21.1653 2.71675L20.4368 2.23331C20.3835 2.1971 20.3268 2.16759 20.2665 2.14479L19.2452 1.77711C19.203 1.76225 19.1599 1.7509 19.1158 1.74306L17.8902 1.51836C17.8519 1.51109 17.8134 1.50655 17.7744 1.50475L16.4671 1.45708C16.3863 1.45406 16.3069 1.46314 16.2288 1.48432L14.9964 1.82477C14.9486 1.83706 14.9032 1.85522 14.8602 1.87924L13.9069 2.41715L13.0558 2.72356C12.888 2.78265 12.8336 2.89611 12.8925 3.06395C12.9515 3.23179 13.0649 3.28628 13.2328 3.22743L14.0567 2.92783L15.1189 2.94826L16.3786 3.05039L17.6315 3.14572L18.7549 3.34999L19.6197 3.64959L20.0963 3.96961L20.2393 4.20793V4.43263L20.0691 4.77308L19.6537 5.19524L18.9796 5.6174L18.0604 6.00551L16.8961 6.35277L15.5547 6.68641L14.0976 6.99963L12.6064 7.2788L11.2378 7.48307L10.1007 7.53073L9.26997 7.4286L8.64354 7.19709L8.15329 6.89749L7.97626 6.67279L7.94902 6.45491L8.07839 6.06679L8.47332 5.50845L9.14741 4.85478L10.0598 4.19431L11.1356 3.60873L12.2932 3.13891L13.4439 2.79165L14.5402 2.56695L15.5138 2.4512L16.2697 2.43758L16.8416 2.49886L17.2433 2.53291C17.2591 2.53582 17.275 2.53809 17.291 2.53972L17.5225 2.54653C17.5663 2.54784 17.6094 2.5433 17.6519 2.53291L17.7336 2.50567C17.6388 2.43607 17.5344 2.41564 17.4204 2.44439L17.4612 2.47844C17.6138 2.6 17.7653 2.59871 17.9158 2.47457C18.0663 2.35043 18.0963 2.20192 18.006 2.02904Z" fill="black"/>
<path d="M7.49957 5.3382C7.49957 5.44349 7.5368 5.53337 7.61126 5.60782C7.68571 5.68228 7.77558 5.7195 7.88088 5.7195C7.98617 5.7195 8.07605 5.68228 8.1505 5.60782C8.22496 5.53337 8.26218 5.44349 8.26218 5.3382C8.26218 5.2329 8.22496 5.14303 8.1505 5.06857C8.07605 4.99412 7.98617 4.95689 7.88088 4.95689C7.77558 4.95689 7.68571 4.99412 7.61126 5.06857C7.5368 5.14303 7.49957 5.2329 7.49957 5.3382ZM7.45872 5.33139C7.45872 5.4442 7.49861 5.5405 7.57838 5.62027C7.65815 5.70004 7.75445 5.73993 7.86726 5.73993C7.98008 5.73993 8.07637 5.70004 8.15614 5.62027C8.23592 5.5405 8.2758 5.4442 8.2758 5.33139C8.2758 5.21857 8.23592 5.12228 8.15614 5.04251C8.07637 4.96273 7.98008 4.92285 7.86726 4.92285C7.75445 4.92285 7.65815 4.96273 7.57838 5.04251C7.49861 5.12228 7.45872 5.21857 7.45872 5.33139ZM7.94216 4.88199L7.86045 4.86157C7.70518 4.82432 7.56219 4.85155 7.43148 4.94327L7.24083 5.07265C7.19478 5.10311 7.15393 5.13943 7.11827 5.18159L6.85272 5.50842C6.818 5.54798 6.7885 5.59111 6.7642 5.63779L6.45098 6.28465C6.42696 6.33481 6.4088 6.38702 6.39651 6.44126L6.16501 7.43538C6.159 7.46237 6.15446 7.4896 6.15139 7.51709L5.99478 8.74271C5.99397 8.76314 5.99397 8.78356 5.99478 8.80399L5.9335 10.1181C5.93314 10.1318 5.93314 10.1454 5.9335 10.159L5.94712 11.4118C5.94662 11.4277 5.94662 11.4436 5.94712 11.4595L6.02202 12.5149C6.02364 12.5331 6.02591 12.5513 6.02883 12.5694L6.14458 13.3797C6.14845 13.398 6.15299 13.4161 6.1582 13.4341L6.28076 13.9993C6.28479 14.0153 6.28933 14.0312 6.29438 14.0469L6.3897 14.3942C6.39749 14.4196 6.40657 14.4446 6.41694 14.4691L6.49184 14.6529C6.50552 14.6858 6.52141 14.7176 6.5395 14.7483L6.58036 14.8164C6.68839 15.0042 6.84738 15.1248 7.05734 15.1783C7.2673 15.2318 7.46464 15.2019 7.64937 15.0887L7.66299 15.0819C7.81574 14.9876 7.92241 14.856 7.98301 14.687L7.98982 14.6734L8.01025 14.6393C7.93313 14.7065 7.87185 14.786 7.82641 14.8776L7.88088 14.83C7.76613 14.8608 7.66399 14.9153 7.57447 14.9934L7.64937 14.973C7.55926 14.9665 7.47074 14.9755 7.38382 15.0002H7.40425L7.4451 15.007C7.46309 15.0122 7.48125 15.0168 7.49957 15.0206L7.60852 15.0411L7.69023 15.0547L7.75151 15.0683C7.69312 15.0378 7.63183 15.0151 7.56766 15.0002L7.62214 15.0342C7.56184 14.965 7.49148 14.9083 7.41106 14.864L7.43148 14.8844C7.54932 14.5872 7.50166 14.3194 7.28849 14.081L7.28169 14.0946C7.46832 14.0084 7.59997 13.87 7.67661 13.6793L7.65618 13.6929C7.86566 13.7751 8.0722 13.7683 8.2758 13.6724L8.26218 13.6656C8.16772 13.759 8.10106 13.8692 8.06221 13.9963C8.02335 14.1233 8.01695 14.2519 8.04301 14.3822C8.06906 14.5125 8.12444 14.6287 8.20917 14.7311C8.29389 14.8334 8.39781 14.9095 8.52093 14.9593L8.53455 14.9457C8.43646 14.9874 8.35021 15.0464 8.2758 15.1228L8.31666 15.1023C8.20335 15.0995 8.09441 15.1199 7.98982 15.1636H8.06472L8.2009 15.1772C8.21225 15.1775 8.2236 15.1775 8.23495 15.1772L8.48007 15.184C8.48461 15.1841 8.48915 15.1841 8.49369 15.184L8.86138 15.1909H9.34482L9.94401 15.2249L11.5646 15.3407C11.5826 15.3435 11.6008 15.3458 11.619 15.3475L12.6404 15.3543C12.6654 15.3554 12.6903 15.3554 12.7153 15.3543L13.9001 15.2589C13.9206 15.2574 13.941 15.2552 13.9613 15.2521L15.2619 15.0479C15.3132 15.0393 15.3631 15.0256 15.4117 15.007L16.6645 14.5372C16.6714 14.5351 16.6782 14.5328 16.6849 14.5304L17.897 14.0197C17.9015 14.0175 17.9061 14.0153 17.9106 14.0129L18.9319 13.5226L19.7218 13.1822C19.8803 13.114 19.9255 13.0005 19.8576 12.8419C19.7896 12.6833 19.6762 12.6378 19.5175 12.7056L18.7413 13.0392L17.6723 13.2979L16.433 13.4818L15.1257 13.5022C15.1098 13.5017 15.0939 13.5017 15.078 13.5022L13.7707 13.6112L12.6268 13.6793L11.6599 13.6588L10.053 13.5499C10.0461 13.5498 10.0393 13.5498 10.0325 13.5499L9.4061 13.5295C9.39248 13.5291 9.37886 13.5291 9.36525 13.5295H8.86138L8.49369 13.5363C8.48915 13.5362 8.48461 13.5362 8.48007 13.5363L8.23495 13.5431C8.2236 13.5428 8.21225 13.5428 8.2009 13.5431L8.05111 13.5567C8.0192 13.5571 7.98742 13.5594 7.95578 13.5635L7.86726 13.5839C7.77303 13.5998 7.68451 13.6315 7.60171 13.6793L7.56766 13.6997C7.3465 13.828 7.21713 14.0187 7.17955 14.2716V14.2853C7.13221 14.5897 7.22964 14.8371 7.47186 15.0276C7.71408 15.218 7.97752 15.2543 8.26218 15.1364L8.2758 15.1296C8.36436 15.0942 8.4438 15.0442 8.51412 14.9798L8.53455 14.9593C8.64227 14.8576 8.7149 14.735 8.75243 14.5917L8.75924 14.5712C8.84349 14.2625 8.76632 14.0015 8.52774 13.7882L8.50731 13.7678C8.44979 13.7175 8.38624 13.6767 8.31666 13.6452L8.26218 13.618C8.17991 13.5802 8.09366 13.5575 8.00344 13.5499L7.95578 13.5431L7.88769 13.5295L7.81279 13.5158L7.73789 13.4954C7.69109 13.4818 7.64343 13.4727 7.5949 13.4682L7.50638 13.4614C7.41858 13.4556 7.33233 13.4647 7.24764 13.4886L7.17274 13.509C7.05549 13.5389 6.95108 13.5933 6.85953 13.6724L6.80505 13.7201C6.73116 13.7859 6.67215 13.8631 6.62802 13.9516L6.59397 14.0197C6.58129 14.0441 6.56994 14.069 6.55993 14.0946L6.5395 14.1491C6.74984 14.0656 6.8951 13.9181 6.97528 13.7065L6.96166 13.7133C7.06074 13.8732 7.19975 13.9821 7.37871 14.04C7.55766 14.098 7.73413 14.0912 7.90812 14.0197L7.8945 13.9993L7.85364 13.9176L7.77194 13.6452L7.66299 13.1345L7.56086 12.3787L7.48596 11.371L7.47234 10.1658L7.53362 8.89932L7.67661 7.72816L7.85364 6.75447L7.98982 6.10081L8.09196 5.80121L8.18048 5.66503C8.19645 5.63897 8.21006 5.61173 8.22133 5.58332L8.25538 5.50842C8.30956 5.37811 8.30509 5.24984 8.24197 5.12361C8.17886 4.99738 8.07892 4.91684 7.94216 4.88199Z" fill="black"/>
<path d="M21.3151 5.03179C21.3151 5.2179 21.4081 5.31096 21.5943 5.31096C21.7804 5.31096 21.8734 5.2179 21.8734 5.03179C21.8734 4.84567 21.7804 4.75262 21.5943 4.75262C21.4081 4.75262 21.3151 4.84567 21.3151 5.03179ZM21.9483 5.10668L21.9619 5.05221C21.8947 5.10299 21.8494 5.16881 21.8258 5.24967L21.8802 5.20882C21.8945 5.19822 21.9081 5.18687 21.9211 5.17477L21.996 5.10668C22.0243 5.07754 22.0493 5.04576 22.0709 5.01136L22.139 4.91603C22.2049 4.82213 22.2431 4.71806 22.2537 4.60381C22.2642 4.48956 22.2457 4.38025 22.1981 4.27587C22.1505 4.17148 22.08 4.08583 21.9869 4.01892C21.8937 3.952 21.79 3.91266 21.6759 3.9009C21.5617 3.88914 21.4522 3.90652 21.3474 3.95303C21.2425 3.99954 21.1561 4.06903 21.0882 4.16151C21.0203 4.25399 20.9798 4.35723 20.9669 4.47123C20.9539 4.58522 20.9701 4.69491 21.0155 4.80028L21.0563 4.91603C21.0825 4.97136 21.1165 5.0213 21.1585 5.06583L21.2266 5.14754C21.2581 5.18481 21.2944 5.21659 21.3355 5.24287L21.3968 5.27691C21.3699 5.17944 21.3131 5.10454 21.2266 5.05221L21.2402 5.10668C21.2903 5.28572 21.4083 5.37523 21.5943 5.37523C21.7802 5.37523 21.8982 5.28572 21.9483 5.10668ZM20.9202 4.26917L20.8657 4.41897C20.8416 4.49197 20.828 4.56687 20.8248 4.64367L20.7976 5.1203C20.7975 5.12938 20.7975 5.13846 20.7976 5.14754L20.784 5.97143C20.7838 5.98278 20.7838 5.99413 20.784 6.00548L20.8044 7.0813C20.8041 7.09492 20.8041 7.10854 20.8044 7.12216L20.8861 8.30012C20.8882 8.31151 20.8904 8.32286 20.8929 8.33416L21.0223 9.4985C21.0243 9.5099 21.0266 9.52125 21.0291 9.53255L21.1857 10.5539C21.1878 10.5653 21.19 10.5766 21.1925 10.5879L21.3423 11.3846L21.424 11.8544V12.1132C21.5152 11.9698 21.5606 11.8132 21.5602 11.6433L21.4717 11.7863C21.7346 11.7443 21.9366 11.6104 22.0777 11.3846L21.9415 11.405C22.0496 11.4304 22.1585 11.4349 22.2684 11.4186L22.173 11.3982L22.1594 11.3846L22.1254 11.371C21.7784 11.186 21.4584 11.2246 21.1653 11.4867L21.1449 11.5072C20.9732 11.6622 20.8801 11.8551 20.8657 12.0859L20.8589 12.154L20.8317 12.2698L20.7636 12.44L20.6682 12.6034L20.5865 12.7124L20.5661 12.726L20.4844 12.76L20.1167 12.8485C19.7482 12.9413 19.5326 13.1751 19.4698 13.5499L19.4358 13.7133C19.6029 13.7014 19.7005 13.6129 19.7286 13.4477L19.1907 13.4954C18.9773 13.5136 18.8797 13.6293 18.8979 13.8427C18.916 14.056 19.0318 14.1536 19.2451 14.1354L19.7831 14.0878C19.7219 13.9479 19.6152 13.8843 19.463 13.8971L19.5243 14.0469C19.603 14.2308 19.7299 14.3709 19.9051 14.4674C20.0803 14.5638 20.2665 14.5962 20.464 14.5644L20.9066 14.4963C20.9895 14.4826 21.069 14.4576 21.1449 14.4214L21.4172 14.2921C21.4998 14.2536 21.5747 14.2037 21.6419 14.1423L21.8258 13.9788C21.8686 13.9395 21.9072 13.8964 21.9415 13.8495L22.1117 13.618C22.1431 13.575 22.1703 13.5296 22.1935 13.4818L22.3296 13.1958C22.346 13.1582 22.3596 13.1196 22.3705 13.0801L22.4658 12.7873C22.4744 12.7559 22.4812 12.7241 22.4862 12.6919L22.5339 12.4468C22.5444 12.402 22.5512 12.3566 22.5543 12.3106V12.1676C22.4193 12.3216 22.3489 12.5009 22.3433 12.7056L22.3637 12.6851C22.1902 12.5269 21.9862 12.4538 21.7517 12.4658C21.5172 12.4778 21.3218 12.5713 21.1653 12.7464L21.2266 12.8009C21.2645 12.8364 21.3054 12.8681 21.3491 12.8962L21.4649 12.9643C21.531 13.0055 21.6014 13.0373 21.676 13.0596L21.8258 13.1073C21.9486 13.1439 22.0734 13.153 22.2003 13.1345L22.3364 13.1141C22.6334 13.0714 22.8513 12.9171 22.9901 12.6511L23.065 12.5081C23.1377 12.3719 23.1717 12.2266 23.1671 12.0723L23.1535 11.7455C23.1503 11.6995 23.1435 11.6542 23.1331 11.6093L23.0242 11.0646L22.8744 10.2815L22.7246 9.29423L22.6156 8.17075L22.5475 7.02683L22.5271 5.97143L22.5135 5.14754C22.5123 5.12247 22.51 5.09751 22.5067 5.07264L22.459 4.59601C22.4436 4.46785 22.4005 4.34983 22.3296 4.24194L22.2479 4.11257C22.0782 3.85657 21.8409 3.74655 21.5359 3.78253C21.2309 3.8185 21.0256 3.98072 20.9202 4.26917Z" fill="black"/>
<path d="M11.0336 14.9117L11.0268 14.8981C11.0148 14.8788 11.0012 14.8606 10.986 14.8436L10.9655 14.8232C10.9634 14.8186 10.9611 14.8141 10.9587 14.8096L10.9315 14.7756C10.9207 14.7636 10.9094 14.7523 10.8974 14.7415L10.8702 14.7143C10.7718 14.6211 10.6549 14.5757 10.5194 14.5782C10.3839 14.5806 10.2687 14.6302 10.1738 14.7269C10.0788 14.8236 10.0313 14.9396 10.0313 15.0752C10.0313 15.2107 10.0788 15.3268 10.1738 15.4234C10.2687 15.5201 10.3839 15.5697 10.5194 15.5721C10.6549 15.5746 10.7718 15.5292 10.8702 15.436L10.877 15.4292V15.4224L10.8906 15.4156C10.8369 15.4233 10.787 15.4414 10.7408 15.4701H10.7545C10.8852 15.4506 10.9801 15.3817 11.0392 15.2635C11.0983 15.1453 11.0964 15.028 11.0336 14.9117ZM9.96461 15.0888C9.96461 15.2354 10.0165 15.3606 10.1202 15.4643C10.2239 15.568 10.3491 15.6199 10.4957 15.6199C10.6424 15.6199 10.7676 15.568 10.8713 15.4643C10.975 15.3606 11.0268 15.2354 11.0268 15.0888C11.0268 14.9421 10.975 14.8169 10.8713 14.7132C10.7676 14.6095 10.6424 14.5577 10.4957 14.5577C10.3491 14.5577 10.2239 14.6095 10.1202 14.7132C10.0165 14.8169 9.96461 14.9421 9.96461 15.0888ZM9.97142 14.9185L9.92376 15.0479C9.88205 15.1507 9.86616 15.2574 9.87609 15.3679L9.91695 15.7765C9.91871 15.7924 9.92098 15.8083 9.92376 15.8241L10.0259 16.4846L10.1348 17.2881L10.2234 18.0847L10.271 18.7725C10.271 18.777 10.271 18.7815 10.271 18.7861L10.3187 19.3036C10.3272 19.3914 10.3499 19.4754 10.3868 19.5555L10.5093 19.8279C10.634 20.0941 10.8432 20.2206 11.1369 20.2075C11.4306 20.1944 11.6277 20.0497 11.7281 19.7734L11.8303 19.4942C11.8627 19.3992 11.8763 19.3016 11.8711 19.2014L11.8507 18.6839C11.851 18.6726 11.851 18.6612 11.8507 18.6499L11.7894 17.9486C11.7896 17.9395 11.7896 17.9304 11.7894 17.9213L11.6873 17.0974C11.6852 17.0883 11.6829 17.0792 11.6805 17.0702L11.5511 16.2463C11.5492 16.2326 11.5469 16.219 11.5443 16.2055L11.4013 15.5518C11.392 15.5051 11.3784 15.4597 11.3605 15.4156L11.2039 15.0343C11.148 14.9022 11.0595 14.7978 10.9383 14.7211L10.8225 14.6462C10.6694 14.5476 10.5062 14.526 10.3327 14.5815C10.1592 14.637 10.0388 14.7494 9.97142 14.9185ZM10.6932 19.7189C10.6932 19.8336 10.7337 19.9315 10.8148 20.0126C10.8959 20.0937 10.9938 20.1343 11.1085 20.1343C11.2232 20.1343 11.3211 20.0937 11.4022 20.0126C11.4833 19.9315 11.5239 19.8336 11.5239 19.7189C11.5239 19.6042 11.4833 19.5063 11.4022 19.4252C11.3211 19.3441 11.2232 19.3036 11.1085 19.3036C10.9938 19.3036 10.8959 19.3441 10.8148 19.4252C10.7337 19.5063 10.6932 19.6042 10.6932 19.7189ZM10.8634 19.6712L10.8566 19.6849C10.7946 19.8382 10.838 19.951 10.9868 20.0233C11.1355 20.0955 11.251 20.0599 11.3332 19.9164L11.34 19.9028C11.402 19.7494 11.3586 19.6366 11.2099 19.5643C11.0611 19.4921 10.9456 19.5277 10.8634 19.6712Z" fill="black"/>
<path d="M10.7134 18.752V18.7588C10.6992 18.767 10.6856 18.7761 10.6726 18.7861L10.6385 18.8201C10.7087 18.8021 10.77 18.7681 10.8224 18.718L10.7611 18.7316C10.7127 18.7453 10.6673 18.7657 10.6249 18.7929L10.4887 18.8814C10.4434 18.9101 10.4026 18.9442 10.3661 18.9835L10.1959 19.1674L9.94399 19.4193L9.58311 19.7189L9.0452 20.0594L8.35068 20.4066L7.57445 20.713L6.73013 20.9513L5.88581 21.1079L5.10958 21.1488L4.42868 21.0467L3.78863 20.7947L3.21667 20.4202L2.76728 19.9913L2.44045 19.5487L2.20213 19.1401C2.10279 18.9734 1.96434 18.8508 1.78678 18.7724L1.60294 18.6907C1.35347 18.5738 1.12878 18.6101 0.928842 18.7997L0.785852 18.9427C0.487831 19.2236 0.412932 19.555 0.561155 19.9368L0.758616 20.427C0.788244 20.5023 0.826829 20.5727 0.87437 20.6381L1.26929 21.1896C1.30211 21.2336 1.33842 21.2745 1.37824 21.3122L1.9502 21.8637C1.99631 21.9073 2.04624 21.9459 2.09999 21.9795L2.82856 22.4493C2.88232 22.4846 2.93906 22.5141 2.99879 22.5378L3.82949 22.8579C3.89996 22.8846 3.97259 22.9028 4.04737 22.9123L4.93936 23.0417C5.00494 23.0509 5.07076 23.0532 5.13682 23.0485L6.06965 22.9804C6.11096 22.9763 6.15181 22.9695 6.19222 22.96L7.13186 22.7693C7.17349 22.7608 7.21435 22.7494 7.25442 22.7353L8.16002 22.4085C8.19013 22.3987 8.21964 22.3873 8.24854 22.3744L9.07924 21.9727C9.10967 21.9585 9.13918 21.9426 9.16776 21.925L9.88952 21.4688C9.91551 21.4521 9.94047 21.4339 9.96442 21.4143L10.5296 20.9581C10.5615 20.931 10.591 20.9015 10.6181 20.8696L10.9926 20.4543C11.0208 20.4202 11.0458 20.3839 11.0675 20.3453L11.2786 20.0049C11.3155 19.9455 11.3427 19.8819 11.3603 19.8142L11.4284 19.5623C11.4532 19.4675 11.4555 19.3722 11.4352 19.2763L11.4011 19.1265C11.3837 19.0425 11.3474 18.9676 11.2922 18.9018L11.2513 18.8542C11.2676 18.9043 11.2926 18.9497 11.3262 18.9903L11.3126 18.9495C11.2873 18.8716 11.2419 18.808 11.1764 18.7588V18.752C11.0221 18.6341 10.8677 18.6341 10.7134 18.752ZM1.63017 19.1878L1.74592 19.0516C1.84853 18.9084 1.83252 18.7801 1.69789 18.6665C1.56326 18.5529 1.43402 18.5587 1.31015 18.6839L1.19439 18.8201C1.09179 18.9633 1.1078 19.0917 1.24243 19.2053C1.37705 19.3189 1.5063 19.313 1.63017 19.1878Z" fill="black"/>
<path d="M1.58936 18.3843L1.56894 18.3775C1.5377 18.3692 1.50592 18.3647 1.47361 18.3639H1.42595C1.39849 18.3635 1.37125 18.3658 1.34424 18.3707L1.26253 18.3843C1.23929 18.3893 1.21659 18.3961 1.19444 18.4048L1.09231 18.4388C0.986604 18.4769 0.902626 18.5427 0.840371 18.6363L0.738236 18.7997C0.698166 18.8602 0.67093 18.926 0.656528 18.9972L0.595246 19.3036C0.588055 19.335 0.583515 19.3667 0.581628 19.3989L0.574819 19.8551C0.574344 19.8687 0.574344 19.8823 0.574819 19.8959L0.608864 20.5292C0.608653 20.5383 0.608653 20.5473 0.608864 20.5564L0.683764 21.3599C0.686325 21.3874 0.690865 21.4147 0.697382 21.4416L0.92208 22.3336C0.925965 22.3474 0.930505 22.361 0.935698 22.3744L1.22168 23.1847L1.33743 23.8928C1.36937 24.0742 1.47603 24.149 1.6574 24.1172C1.83878 24.0855 1.91369 23.9789 1.88215 23.7975L1.7664 23.103L1.80725 22.2451C1.80727 22.2428 1.80727 22.2405 1.80725 22.2382L1.82768 21.319C1.82834 21.3031 1.82834 21.2873 1.82768 21.2714L1.78002 20.4679L1.74597 19.8483L1.73916 19.4261L1.75278 19.1606L1.78002 18.9835C1.78056 18.9699 1.78056 18.9563 1.78002 18.9427L1.78683 18.8405C1.71018 18.9205 1.66933 19.0159 1.66426 19.1265L1.71874 19.0652C1.65034 19.0863 1.59133 19.1226 1.5417 19.1742L1.57575 19.1674L1.58936 19.1606C1.78805 19.1075 1.88739 18.9781 1.88739 18.7725C1.88739 18.5668 1.78805 18.4374 1.58936 18.3843Z" fill="black"/>
<path d="M1.04469 19.7257L1.03789 19.7394C1.02913 19.7615 1.02232 19.7842 1.01746 19.8074L1.00384 19.8755L0.928942 20.0594C0.915951 20.0947 0.906873 20.131 0.901705 20.1683L0.826806 20.6041C0.823208 20.6267 0.820938 20.6494 0.819997 20.6722L0.792761 21.2782C0.792143 21.2941 0.792143 21.31 0.792761 21.3259L0.819997 22.0885C0.821249 22.109 0.823518 22.1294 0.826806 22.1497L0.935751 23.0077C0.937215 23.0259 0.939485 23.0441 0.94256 23.0622L1.14683 23.9609C1.15032 23.9816 1.15486 24.002 1.16045 24.0222L1.46005 24.9142C1.46799 24.9351 1.47707 24.9556 1.48728 24.9755L1.86859 25.8266C1.88234 25.8551 1.89823 25.8823 1.91625 25.9083L2.4065 26.6505C2.4282 26.6849 2.45316 26.7166 2.4814 26.7458L3.09421 27.3382C3.14174 27.3866 3.19621 27.4252 3.25763 27.454L4.01343 27.7944C4.03753 27.8059 4.0625 27.815 4.08833 27.8217L4.87137 28.0191L5.53865 28.2166C5.72476 28.2756 5.84733 28.212 5.90634 28.0259C5.96535 27.8398 5.9018 27.7173 5.71569 27.6582L5.07564 27.4608L4.44921 27.0659L3.89087 26.5416L3.36657 25.9696L2.95803 25.2955L2.61077 24.5057L2.34522 23.6682L2.16137 22.8238L2.05924 22.0136L2.01839 21.2782L1.99115 20.6722C1.99148 20.6608 1.99148 20.6495 1.99115 20.6381L1.94349 20.2024C1.93881 20.1627 1.92973 20.1242 1.91625 20.0866L1.84816 19.8823L1.83454 19.8074C1.82968 19.7842 1.82287 19.7615 1.81411 19.7394L1.80731 19.7257C1.74015 19.5512 1.61305 19.4639 1.426 19.4639C1.23895 19.4639 1.11185 19.5512 1.04469 19.7257Z" fill="black"/>
<path d="M4.95998 27.168C4.95998 27.2752 4.99787 27.3666 5.07366 27.4424C5.14944 27.5182 5.24092 27.5561 5.34809 27.5561C5.45527 27.5561 5.54675 27.5182 5.62253 27.4424C5.69832 27.3666 5.73621 27.2752 5.73621 27.168C5.73621 27.0608 5.69832 26.9693 5.62253 26.8935C5.54675 26.8178 5.45527 26.7799 5.34809 26.7799C5.24092 26.7799 5.14944 26.8178 5.07366 26.8935C4.99787 26.9693 4.95998 27.0608 4.95998 27.168ZM4.95998 27.168C4.95998 27.2752 4.99787 27.3666 5.07366 27.4424C5.14944 27.5182 5.24092 27.5561 5.34809 27.5561C5.45527 27.5561 5.54675 27.5182 5.62253 27.4424C5.69832 27.3666 5.73621 27.2752 5.73621 27.168C5.73621 27.0608 5.69832 26.9693 5.62253 26.8935C5.54675 26.8178 5.45527 26.7799 5.34809 26.7799C5.24092 26.7799 5.14944 26.8178 5.07366 26.8935C4.99787 26.9693 4.95998 27.0608 4.95998 27.168ZM5.06892 26.882L5.0485 26.9024C4.90392 27.0304 4.84945 27.1893 4.88508 27.3791L4.91913 27.5425C4.92706 27.5896 4.94068 27.635 4.95998 27.6787L5.06892 27.9034C5.10091 27.9745 5.14403 28.038 5.1983 28.094L5.45704 28.3528C5.52645 28.4202 5.60589 28.4724 5.69535 28.5094L6.15837 28.7068C6.20032 28.7242 6.24344 28.7378 6.28774 28.7477L6.88693 28.8839C6.93174 28.8946 6.97714 28.9014 7.02311 28.9043L7.7653 28.9451C7.8086 28.9463 7.85173 28.944 7.89467 28.9383L8.80708 28.8498C8.84844 28.846 8.88929 28.8392 8.92964 28.8294L9.99866 28.5638C10.0264 28.5562 10.0536 28.5471 10.0804 28.5366L11.2719 28.1008C11.3021 28.0911 11.3316 28.0798 11.3605 28.0668L12.5793 27.4608C12.6049 27.4484 12.6299 27.4348 12.6542 27.4199L13.8253 26.6982C13.8465 26.6832 13.8669 26.6673 13.8866 26.6505L14.9556 25.8538C14.9672 25.8451 14.9786 25.836 14.9897 25.8266L15.9566 25.0095C15.9911 24.9805 16.0229 24.9488 16.0519 24.9142L16.7873 24.0426L17.5022 23.2937L18.1014 22.7285L18.5916 22.4085C18.7369 22.3132 18.7619 22.1929 18.6665 22.0476C18.5712 21.9023 18.4509 21.8774 18.3057 21.9727L17.8086 22.2995L17.0596 22.6808C17.055 22.683 17.0505 22.6853 17.046 22.6877L16.1132 23.1915L15.0986 23.7499C15.0653 23.7679 15.0336 23.7884 15.0033 23.8111L14.0024 24.5601L12.9402 25.2887L11.8099 25.9764L10.6591 26.5347L9.54245 26.9433L8.56195 27.202L7.7653 27.311L7.14568 27.2974L6.64181 27.2088L6.21284 27.0931L5.91324 26.991L5.77025 26.9297L5.68855 26.8684C5.57774 26.79 5.45518 26.7605 5.32086 26.7799H5.29362C5.20813 26.7906 5.13323 26.8247 5.06892 26.882Z" fill="black"/>
<path d="M16.5284 23.4502C16.5284 23.5574 16.5663 23.6489 16.6421 23.7247C16.7179 23.8004 16.8094 23.8383 16.9165 23.8383C17.0237 23.8383 17.1152 23.8004 17.191 23.7247C17.2668 23.6489 17.3046 23.5574 17.3046 23.4502C17.3046 23.343 17.2668 23.2516 17.191 23.1758C17.1152 23.1 17.0237 23.0621 16.9165 23.0621C16.8094 23.0621 16.7179 23.1 16.6421 23.1758C16.5663 23.2516 16.5284 23.343 16.5284 23.4502ZM16.3446 23.4502C16.3446 23.6082 16.4004 23.743 16.5121 23.8547C16.6238 23.9663 16.7586 24.0222 16.9165 24.0222C17.0745 24.0222 17.2093 23.9663 17.321 23.8547C17.4326 23.743 17.4885 23.6082 17.4885 23.4502C17.4885 23.2923 17.4326 23.1575 17.321 23.0458C17.2093 22.9341 17.0745 22.8783 16.9165 22.8783C16.7586 22.8783 16.6238 22.9341 16.5121 23.0458C16.4004 23.1575 16.3446 23.2923 16.3446 23.4502ZM16.5216 22.8851L16.4467 22.9327C16.2025 23.0941 16.0754 23.3211 16.0654 23.6136L16.0518 23.9813C16.0479 24.029 16.0479 24.0766 16.0518 24.1243L16.1199 24.6418C16.1286 24.7071 16.1445 24.7707 16.1675 24.8324L16.365 25.3772C16.3797 25.4195 16.3979 25.4604 16.4195 25.4997L16.6782 25.9627C16.6945 25.9912 16.7127 26.0185 16.7327 26.0445L16.9982 26.3917C17.0371 26.4436 17.0825 26.489 17.1344 26.5279L17.4068 26.739C17.4712 26.7853 17.5416 26.8194 17.6179 26.8411L17.8834 26.9228C17.9454 26.9432 18.0089 26.9546 18.0741 26.9569L18.3669 26.9637C18.4196 26.9649 18.4718 26.9604 18.5235 26.9501L18.9388 26.8615C18.9927 26.8512 19.0449 26.8353 19.0954 26.8139L19.7014 26.5551C19.7224 26.5447 19.7428 26.5333 19.7627 26.5211L20.5253 26.1057C20.5463 26.0953 20.5667 26.084 20.5866 26.0717L21.3764 25.527C21.3979 25.5124 21.4183 25.4965 21.4377 25.4793L22.0982 24.8937L22.6974 24.4648L23.1876 24.206C23.337 24.1287 23.3731 24.0153 23.2961 23.8658C23.2191 23.7163 23.1058 23.6799 22.9561 23.7566L22.4659 24.0154L21.7714 24.2401L20.8998 24.4239C20.879 24.4296 20.8586 24.4364 20.8385 24.4443L19.9261 24.7439C19.9054 24.7499 19.885 24.7567 19.8648 24.7644L19.075 25.1116C19.0658 25.116 19.0567 25.1205 19.0478 25.1252L18.4554 25.4112C18.4485 25.4134 18.4417 25.4157 18.4349 25.418L18.1558 25.561L18.1149 25.5678H18.1217L18.0809 25.5406L17.9924 25.3704L17.9175 24.9891L17.8698 24.4511C17.8676 24.4443 17.8653 24.4375 17.863 24.4307L17.8085 23.9132L17.7677 23.5524C17.7342 23.2572 17.5867 23.0394 17.3251 22.8987L17.2502 22.8578C17.0019 22.7211 16.759 22.7302 16.5216 22.8851Z" fill="black"/>
<path d="M21.5537 12.9439C21.5537 13.051 21.5916 13.1425 21.6673 13.2183C21.7431 13.2941 21.8346 13.332 21.9418 13.332C22.049 13.332 22.1404 13.2941 22.2162 13.2183C22.292 13.1425 22.3299 13.051 22.3299 12.9439C22.3299 12.8367 22.292 12.7452 22.2162 12.6694C22.1404 12.5936 22.049 12.5558 21.9418 12.5558C21.8346 12.5558 21.7431 12.5936 21.6673 12.6694C21.5916 12.7452 21.5537 12.8367 21.5537 12.9439ZM21.5332 12.9439C21.5332 13.0567 21.5731 13.153 21.6529 13.2327C21.7327 13.3125 21.829 13.3524 21.9418 13.3524C22.0546 13.3524 22.1509 13.3125 22.2307 13.2327C22.3104 13.153 22.3503 13.0567 22.3503 12.9439C22.3503 12.8311 22.3104 12.7348 22.2307 12.655C22.1509 12.5752 22.0546 12.5353 21.9418 12.5353C21.829 12.5353 21.7327 12.5752 21.6529 12.655C21.5731 12.7348 21.5332 12.8311 21.5332 12.9439ZM21.4447 12.9575C21.4449 13.0927 21.4929 13.2081 21.5886 13.3037C21.6843 13.3993 21.7997 13.4471 21.935 13.4471C22.0702 13.4471 22.1857 13.3993 22.2814 13.3037C22.3771 13.2081 22.425 13.0927 22.4252 12.9575C22.425 12.8222 22.3771 12.7068 22.2814 12.6113C22.1857 12.5157 22.0702 12.4679 21.935 12.4679C21.7997 12.4679 21.6843 12.5157 21.5886 12.6113C21.4929 12.7068 21.4449 12.8222 21.4447 12.9575ZM21.3494 12.8213L21.2677 13.0324C21.2421 13.0959 21.2262 13.1617 21.22 13.2298L21.1792 13.6724C21.1755 13.7156 21.1755 13.7587 21.1792 13.8018L21.2336 14.5099C21.2354 14.5259 21.2377 14.5418 21.2405 14.5576L21.3698 15.5109C21.372 15.5177 21.3743 15.5245 21.3766 15.5313L21.5673 16.6412C21.5694 16.6503 21.5717 16.6594 21.5741 16.6684L21.826 17.8668C21.8259 17.8736 21.8259 17.8804 21.826 17.8872L22.1052 19.0379C22.1092 19.0517 22.1138 19.0653 22.1188 19.0788L22.4388 20.0797L22.6023 20.9513C22.6057 20.9675 22.6103 20.9834 22.6159 20.9989L22.8201 21.6118L22.8814 22.0271C22.9266 22.1627 23.02 22.2209 23.1616 22.2018C23.3032 22.1826 23.3777 22.1017 23.3853 21.959L23.3308 21.5369L23.3444 20.89C23.3435 20.8717 23.3412 20.8535 23.3376 20.8355L23.2287 19.9572L23.2219 18.9086C23.2225 18.8927 23.2225 18.8768 23.2219 18.8609L23.1197 17.6829L23.0312 16.4641C23.0315 16.4528 23.0315 16.4414 23.0312 16.4301L22.895 15.3066C22.895 15.3043 22.895 15.3021 22.895 15.2998L22.7657 14.3465L22.6772 13.6452C22.6753 13.6315 22.673 13.6179 22.6703 13.6043L22.5886 13.1618C22.5848 13.1434 22.5803 13.1253 22.575 13.1073L22.5137 12.8894C22.439 12.6015 22.2532 12.4489 21.9564 12.4316C21.6595 12.4142 21.4571 12.5441 21.3494 12.8213Z" fill="black"/>
<path d="M21.8736 15.7424C21.8736 15.8364 21.9068 15.9167 21.9733 15.9832C22.0398 16.0496 22.12 16.0829 22.2141 16.0829C22.3081 16.0829 22.3883 16.0496 22.4548 15.9832C22.5213 15.9167 22.5545 15.8364 22.5545 15.7424C22.5545 15.6484 22.5213 15.5682 22.4548 15.5017C22.3883 15.4352 22.3081 15.402 22.2141 15.402C22.12 15.402 22.0398 15.4352 21.9733 15.5017C21.9068 15.5682 21.8736 15.6484 21.8736 15.7424ZM21.8055 15.7084C21.8055 15.8174 21.8441 15.9105 21.9212 15.9876C21.9983 16.0647 22.0914 16.1033 22.2004 16.1033C22.3095 16.1033 22.4026 16.0647 22.4797 15.9876C22.5568 15.9105 22.5954 15.8174 22.5954 15.7084C22.5954 15.5993 22.5568 15.5062 22.4797 15.4291C22.4026 15.352 22.3095 15.3135 22.2004 15.3135C22.0914 15.3135 21.9983 15.352 21.9212 15.4291C21.8441 15.5062 21.8055 15.5993 21.8055 15.7084ZM21.6898 15.6607C21.6899 15.796 21.7379 15.9114 21.8336 16.0069C21.9293 16.1025 22.0448 16.1503 22.18 16.1503C22.3153 16.1503 22.4307 16.1025 22.5264 16.0069C22.6221 15.9114 22.6701 15.796 22.6703 15.6607C22.6701 15.5255 22.6221 15.4101 22.5264 15.3145C22.4307 15.2189 22.3153 15.1711 22.18 15.1711C22.0448 15.1711 21.9293 15.2189 21.8336 15.3145C21.7379 15.4101 21.6899 15.5255 21.6898 15.6607ZM21.6217 15.4088L21.5195 15.5926C21.4779 15.674 21.4529 15.7603 21.4446 15.8514L21.397 16.3825C21.3912 16.4254 21.3889 16.4685 21.3902 16.5118L21.4583 17.4583C21.4582 17.4628 21.4582 17.4674 21.4583 17.4719L21.5672 18.718C21.5671 18.7248 21.5671 18.7316 21.5672 18.7384L21.7102 20.1002C21.71 20.1093 21.71 20.1184 21.7102 20.1274L21.8872 21.4484C21.8871 21.4552 21.8871 21.462 21.8872 21.4688L22.0643 22.6195C22.0664 22.6264 22.0687 22.6332 22.0711 22.64L22.2277 23.5388C22.2298 23.5456 22.2321 23.5524 22.2345 23.5592L22.3639 24.1992L22.4388 24.6078L22.4728 24.8393C22.4744 24.8575 22.4767 24.8757 22.4796 24.8937L22.5068 24.9959C22.5902 25.3401 22.8086 25.5236 23.162 25.5463C23.5154 25.5691 23.7555 25.4151 23.8823 25.0844L23.9231 24.9891C23.9546 24.8986 23.9682 24.8056 23.964 24.7099V24.4648C23.9624 24.4259 23.9578 24.3873 23.9504 24.349L23.8823 23.9337L23.7801 23.2868L23.644 22.3812L23.4805 21.2441L23.3307 19.93L23.1877 18.5682L23.0788 17.3289C23.0765 17.3266 23.0743 17.3244 23.072 17.3221L22.9767 16.3757C22.9741 16.3436 22.9695 16.3118 22.963 16.2803L22.8473 15.7628C22.8356 15.7182 22.8197 15.675 22.7996 15.6335L22.7179 15.4428C22.616 15.2075 22.4369 15.0858 22.1806 15.0779C21.9243 15.0699 21.738 15.1802 21.6217 15.4088ZM23.2763 24.1652L23.2354 24.1584C23.344 24.2947 23.4847 24.3741 23.6576 24.3967L23.5963 24.3218C23.6182 24.3939 23.6522 24.4597 23.6984 24.5193L23.678 24.4512L23.6644 24.3831C23.6514 24.3106 23.6265 24.2425 23.5895 24.1788L23.535 24.0903C23.4753 23.9882 23.3936 23.9088 23.2899 23.852L23.1877 23.7975C23.0619 23.7295 22.928 23.7045 22.786 23.7226L22.609 23.743C22.5027 23.7561 22.4051 23.7924 22.3162 23.852L22.1392 23.9745C22.0175 24.0611 21.9366 24.1762 21.8964 24.32C21.8562 24.4637 21.8657 24.6041 21.9248 24.7412C21.9839 24.8783 22.0795 24.9815 22.2116 25.051C22.3437 25.1204 22.483 25.1407 22.6294 25.1116L22.8269 25.0708L22.9018 25.0572H22.9358C22.8284 24.9632 22.7036 24.911 22.5613 24.9006L22.643 24.9686C22.6056 24.8952 22.5557 24.8317 22.4932 24.778L22.5068 24.8052L22.5 24.7712V24.812C22.5094 24.7671 22.5139 24.7217 22.5137 24.6759L22.5068 24.7167C22.4706 24.9055 22.5071 25.079 22.6163 25.2372C22.7256 25.3954 22.8749 25.491 23.0643 25.524C23.2538 25.5569 23.4266 25.5174 23.5829 25.4054C23.7391 25.2934 23.8321 25.1424 23.8617 24.9524C23.8913 24.7624 23.8488 24.5903 23.734 24.436C23.6193 24.2818 23.4667 24.1915 23.2763 24.1652ZM22.1596 24.3558L21.9894 24.4444C21.8262 24.5307 21.7877 24.6555 21.8738 24.8187C21.96 24.982 22.0848 25.0206 22.2481 24.9346L22.4183 24.8461C22.5815 24.7598 22.62 24.635 22.5338 24.4717C22.4477 24.3085 22.3229 24.2698 22.1596 24.3558Z" fill="black"/>
<path d="M14.4857 14.0605C14.4857 14.164 14.5223 14.2522 14.5954 14.3254C14.6685 14.3985 14.7568 14.435 14.8602 14.435C14.9636 14.435 15.0519 14.3985 15.125 14.3254C15.1981 14.2522 15.2347 14.164 15.2347 14.0605C15.2347 13.9571 15.1981 13.8689 15.125 13.7957C15.0519 13.7226 14.9636 13.6861 14.8602 13.6861C14.7568 13.6861 14.6685 13.7226 14.5954 13.7957C14.5223 13.8689 14.4857 13.9571 14.4857 14.0605ZM14.4108 14.0605C14.4108 14.1752 14.4514 14.2731 14.5325 14.3542C14.6136 14.4353 14.7115 14.4759 14.8262 14.4759C14.9409 14.4759 15.0388 14.4353 15.1199 14.3542C15.201 14.2731 15.2415 14.1752 15.2415 14.0605C15.2415 13.9459 15.201 13.848 15.1199 13.7669C15.0388 13.6857 14.9409 13.6452 14.8262 13.6452C14.7115 13.6452 14.6136 13.6857 14.5325 13.7669C14.4514 13.848 14.4108 13.9459 14.4108 14.0605ZM14.3427 14.0742C14.3427 14.202 14.3879 14.3112 14.4783 14.4016C14.5687 14.492 14.6779 14.5372 14.8057 14.5372C14.9336 14.5372 15.0427 14.492 15.1331 14.4016C15.2235 14.3112 15.2687 14.202 15.2687 14.0742C15.2687 13.9463 15.2235 13.8372 15.1331 13.7468C15.0427 13.6564 14.9336 13.6112 14.8057 13.6112C14.6779 13.6112 14.5687 13.6564 14.4783 13.7468C14.3879 13.8372 14.3427 13.9463 14.3427 14.0742ZM14.2542 14.0333L14.2406 14.1218C14.2112 14.2932 14.2498 14.4475 14.3563 14.5848L14.4789 14.7346C14.5228 14.7914 14.575 14.839 14.6355 14.8776L14.9079 15.0479C14.9568 15.0797 15.009 15.1047 15.0645 15.1228L15.5207 15.2521C15.5718 15.2672 15.624 15.2763 15.6773 15.2794L16.331 15.3202C16.3559 15.3215 16.3809 15.3215 16.4059 15.3202L17.2093 15.2794C17.2275 15.2801 17.2456 15.2801 17.2638 15.2794L18.1422 15.1704C18.1558 15.1685 18.1695 15.1663 18.183 15.1636L19.0478 15.007C19.0777 15.0021 19.1072 14.9953 19.1363 14.9866L19.9057 14.7415C19.9637 14.7242 20.0182 14.6992 20.0691 14.6666L20.6206 14.3057C20.6253 14.3012 20.6298 14.2967 20.6343 14.2921L21.0019 14.0265L21.2947 13.9244C21.4226 13.8484 21.4619 13.7403 21.4126 13.5999C21.3633 13.4596 21.265 13.3998 21.1177 13.4205L20.8317 13.5158H20.3959L19.7423 13.4886C19.7035 13.4874 19.6649 13.4896 19.6265 13.4954L18.8299 13.6043C18.8231 13.6042 18.8163 13.6042 18.8094 13.6043L17.9515 13.7473L17.1072 13.8495L16.3514 13.9039L15.7658 13.8971L15.4049 13.8495L15.2551 13.8018L15.2075 13.761L15.153 13.7133C14.9924 13.5711 14.8111 13.5359 14.6091 13.6079C14.407 13.6798 14.2887 13.8216 14.2542 14.0333Z" fill="black"/>
<path d="M16.229 13.9244C16.229 14.0315 16.2668 14.123 16.3426 14.1988C16.4184 14.2746 16.5099 14.3125 16.6171 14.3125C16.7242 14.3125 16.8157 14.2746 16.8915 14.1988C16.9673 14.123 17.0052 14.0315 17.0052 13.9244C17.0052 13.8172 16.9673 13.7257 16.8915 13.6499C16.8157 13.5741 16.7242 13.5363 16.6171 13.5363C16.5099 13.5363 16.4184 13.5741 16.3426 13.6499C16.2668 13.7257 16.229 13.8172 16.229 13.9244ZM16.2153 13.9312C16.2153 14.0421 16.2546 14.1368 16.333 14.2152C16.4114 14.2937 16.5061 14.3329 16.6171 14.3329C16.728 14.3329 16.8227 14.2937 16.9011 14.2152C16.9796 14.1368 17.0188 14.0421 17.0188 13.9312C17.0188 13.8202 16.9796 13.7256 16.9011 13.6471C16.8227 13.5687 16.728 13.5294 16.6171 13.5294C16.5061 13.5294 16.4114 13.5687 16.333 13.6471C16.2546 13.7256 16.2153 13.8202 16.2153 13.9312ZM16.1404 13.9788V14.0265C16.1494 14.2635 16.2606 14.4338 16.4741 14.5372L16.7056 14.6529C16.8003 14.6985 16.9001 14.7212 17.0052 14.721H17.475C17.5138 14.7219 17.5524 14.7196 17.5908 14.7142L18.2444 14.6053C18.2627 14.6037 18.2808 14.6014 18.2989 14.5985L19.0343 14.4214C19.0388 14.4215 19.0434 14.4215 19.0479 14.4214L19.7696 14.2376L20.3688 14.081L20.8182 13.9652C20.8343 13.9612 20.8502 13.9567 20.8659 13.9516L21.1451 13.8631C21.2806 13.8176 21.3918 13.7382 21.4787 13.6248L21.5536 13.5294C21.6518 13.4043 21.6916 13.2627 21.673 13.1047C21.6544 12.9467 21.5828 12.8182 21.4583 12.7192L21.363 12.6443C21.2251 12.5355 21.0685 12.4856 20.8931 12.4945L20.6003 12.5081C20.5566 12.5111 20.5135 12.5179 20.471 12.5285L20.0148 12.6307C20.0079 12.6328 20.0011 12.6351 19.9943 12.6375L19.3952 12.8009C19.3929 12.8009 19.3906 12.8009 19.3883 12.8009L18.6734 12.9983L17.9653 13.1822L17.3661 13.2979L16.9235 13.3456C16.8912 13.3502 16.8594 13.357 16.8282 13.366L16.583 13.4341C16.5033 13.4531 16.4307 13.4871 16.3651 13.5363L16.3243 13.5703C16.1943 13.6755 16.133 13.8117 16.1404 13.9788ZM20.7501 13.1754C20.7501 13.2863 20.7894 13.381 20.8678 13.4594C20.9463 13.5379 21.0409 13.5771 21.1519 13.5771C21.2628 13.5771 21.3575 13.5379 21.4359 13.4594C21.5144 13.381 21.5536 13.2863 21.5536 13.1754C21.5536 13.0644 21.5144 12.9698 21.4359 12.8913C21.3575 12.8129 21.2628 12.7736 21.1519 12.7736C21.0409 12.7736 20.9463 12.8129 20.8678 12.8913C20.7894 12.9698 20.7501 13.0644 20.7501 13.1754ZM21.0974 12.9166L21.0429 12.9234C20.8662 12.9464 20.7892 13.0462 20.8119 13.223C20.8345 13.3997 20.9343 13.4769 21.111 13.4545L21.1655 13.4477C21.3422 13.4248 21.4193 13.325 21.3966 13.1482C21.3739 12.9714 21.2742 12.8942 21.0974 12.9166Z" fill="black"/>
</g>
<defs>
<clipPath id="clip0_1_7428">
<rect width="34" height="29" fill="white"/>
</clipPath>
</defs>
</svg>
