<svg width="31" height="37" viewBox="0 0 31 37" fill="none" xmlns="http://www.w3.org/2000/svg">
<g clip-path="url(#clip0_1_7254)">
<path d="M2.64024 34.593H2.64649C2.70332 34.6185 2.76166 34.6226 2.82152 34.6055L2.85903 34.593C2.88127 34.5854 2.9021 34.575 2.92154 34.5618L3.01531 34.4993C3.02387 34.4955 3.0322 34.4914 3.04032 34.4868L3.19034 34.368C3.20428 34.3546 3.21679 34.3401 3.22785 34.3242L3.40914 34.1054C3.42597 34.0862 3.44055 34.0653 3.45289 34.0429L3.64668 33.6866C3.66087 33.6566 3.67129 33.6254 3.67794 33.5928L3.80296 33.1178C3.80543 33.1074 3.80751 33.097 3.80921 33.0865L3.90923 32.5239C3.90936 32.5176 3.90936 32.5114 3.90923 32.5051L3.99675 31.855L4.08426 31.1361C4.08641 31.132 4.08849 31.1278 4.09052 31.1236L4.16553 30.286C4.16559 30.2818 4.16559 30.2776 4.16553 30.2735L4.23429 29.3108C4.2345 29.3024 4.2345 29.2941 4.23429 29.2858L4.26555 28.2356C4.26556 28.2335 4.26556 28.2314 4.26555 28.2293L4.2843 27.1041L4.30306 25.8789L4.34681 24.6099L4.44058 23.3409L4.62187 22.0531L4.87817 20.7654L5.22823 19.4902L5.67832 18.2212L6.22217 16.9584L6.8848 15.7082L7.6662 14.4705L8.57262 13.2452L9.59156 12.07L10.7105 10.9823L11.9295 10.0071L13.2423 9.11944L14.6488 8.32554L16.0866 7.66916L17.5118 7.13156L18.8996 6.68772L20.2623 6.2939L21.5688 5.95008L22.8253 5.63127C22.8358 5.62944 22.8462 5.62736 22.8566 5.62502L24.1131 5.2437C24.1278 5.24004 24.1424 5.23587 24.1568 5.2312L25.4133 4.74985C25.4303 4.74428 25.4469 4.73803 25.4633 4.7311L26.6948 4.14349C26.7053 4.13959 26.7158 4.13542 26.7261 4.13099L27.9013 3.48086C27.9273 3.46797 27.9523 3.45338 27.9763 3.43711L28.9828 2.68071C29.0054 2.66166 29.0262 2.64082 29.0453 2.6182L29.7454 1.87431L30.3768 1.43047C30.5222 1.33037 30.5449 1.20752 30.4451 1.06194C30.3453 0.916361 30.2225 0.893343 30.0767 0.99289L29.4453 1.43672L28.4952 1.78054C28.4803 1.78612 28.4657 1.79237 28.4514 1.79929L27.3137 2.3369C27.3032 2.34079 27.2927 2.34496 27.2824 2.3494L26.1197 2.96827L24.9257 3.53087L23.713 3.99971L22.494 4.36853L21.2438 4.68734C21.2417 4.68941 21.2396 4.6915 21.2375 4.69359L19.9185 5.04366C19.9143 5.0457 19.9102 5.04778 19.906 5.04991L18.5308 5.44999C18.5245 5.45198 18.5182 5.45406 18.512 5.45624L17.0992 5.91258C17.0908 5.91656 17.0825 5.92073 17.0742 5.92508L15.6177 6.47518C15.6029 6.48089 15.5883 6.48715 15.574 6.49394L14.0924 7.17532C14.0775 7.18308 14.0629 7.19141 14.0487 7.20032L12.5984 8.02548C12.5835 8.03324 12.5689 8.04157 12.5546 8.05048L11.1919 8.96316C11.1767 8.975 11.1621 8.9875 11.1481 9.00066L9.89162 10.0134C9.87646 10.0252 9.86188 10.0377 9.84786 10.0509L8.68514 11.1761C8.67197 11.1901 8.65947 11.2047 8.64763 11.2198L7.59743 12.4388C7.58639 12.453 7.57597 12.4675 7.56618 12.4826L6.64725 13.7578C6.63847 13.77 6.63013 13.7825 6.62225 13.7953L5.8346 15.0831C5.82592 15.0932 5.81759 15.1036 5.80959 15.1143L5.12821 16.4021C5.12123 16.4185 5.11498 16.4351 5.10946 16.4521L4.5531 17.7586C4.54612 17.775 4.53987 17.7916 4.53435 17.8086L4.09677 19.1276C4.09187 19.1441 4.08771 19.1608 4.08426 19.1776L3.76545 20.4966C3.76296 20.509 3.76087 20.5215 3.7592 20.5341L3.52166 21.8656C3.52147 21.8739 3.52147 21.8823 3.52166 21.8906L3.35288 23.2159C3.35244 23.2284 3.35244 23.2409 3.35288 23.2534L3.27161 24.5474C3.2715 24.5536 3.2715 24.5599 3.27161 24.5661L3.24035 25.8539C3.2403 25.858 3.2403 25.8622 3.24035 25.8664L3.24661 27.0979L3.25286 28.2231L3.24661 29.2608L3.21535 30.2235L3.16534 31.0424L3.09658 31.755L3.03406 32.3989L2.95905 32.9427L2.87153 33.4178L2.79652 33.7929L2.72776 34.0179L2.684 34.0992L2.65899 34.1117H2.65274C2.48347 34.1756 2.43554 34.2902 2.50896 34.4555V34.4618C2.53523 34.523 2.57899 34.5668 2.64024 34.593Z" fill="black"/>
<path d="M2.15273 35.3494C2.15273 35.4911 2.22358 35.5619 2.36527 35.5619C2.50697 35.5619 2.57781 35.4911 2.57781 35.3494C2.57781 35.2077 2.50697 35.1369 2.36527 35.1369C2.22358 35.1369 2.15273 35.2077 2.15273 35.3494ZM2.60282 35.3869L2.60907 35.3744C2.61627 35.3218 2.60794 35.2718 2.58406 35.2244L2.57781 35.2056C2.55803 35.1625 2.52885 35.1271 2.4903 35.0994L2.46529 35.0806C2.40111 35.0238 2.32665 35.0018 2.24191 35.0146C2.15716 35.0274 2.09253 35.0704 2.048 35.1437C2.00347 35.2169 1.99501 35.2941 2.02263 35.3752C2.05024 35.4563 2.10403 35.5123 2.18399 35.5432L2.21524 35.5619C2.24894 35.5776 2.28436 35.586 2.32151 35.5869H2.34027C2.30666 35.5709 2.27124 35.5626 2.234 35.5619H2.2465C2.32022 35.5985 2.394 35.5986 2.46786 35.5624C2.54172 35.5261 2.5867 35.4676 2.60282 35.3869ZM2.50905 35.4869L2.52155 35.4744L2.60907 35.4119C2.61539 35.41 2.62164 35.4079 2.62782 35.4057L2.82786 35.2619L3.14667 35.0806L3.55925 34.8431C3.56136 34.841 3.56345 34.8389 3.5655 34.8368L4.02184 34.5555C4.03036 34.5517 4.03869 34.5475 4.04684 34.543L4.50943 34.1929C4.52272 34.1835 4.53522 34.173 4.54694 34.1617L4.96577 33.7428C4.97719 33.7312 4.9876 33.7187 4.99702 33.7053L5.35334 33.2177C5.36009 33.2098 5.36634 33.2015 5.37209 33.1927L5.6409 32.7177L5.87219 32.3613C5.91729 32.2562 5.89224 32.1719 5.79703 32.1084C5.70182 32.0449 5.61435 32.0542 5.53463 32.1363L5.30333 32.4864L4.94701 32.8802L4.53444 33.299L4.10935 33.6866L3.67177 34.0242L3.24044 34.2992L2.83411 34.5305C2.832 34.5326 2.82991 34.5346 2.82786 34.5367L2.5028 34.7305C2.49428 34.7343 2.48594 34.7385 2.47779 34.743L2.26525 34.8931C2.26314 34.8951 2.26106 34.8972 2.259 34.8993L2.14648 34.9868C2.09749 35.0222 2.06207 35.068 2.04021 35.1244L2.02146 35.1806C1.96504 35.3304 2.00459 35.4478 2.14011 35.533C2.27563 35.6181 2.39861 35.6028 2.50905 35.4869Z" fill="black"/>
<path d="M5.35947 33.8116L5.37198 33.8054C5.40805 33.7918 5.43931 33.7709 5.46574 33.7428L5.5095 33.6991C5.51625 33.6911 5.5225 33.6828 5.52826 33.6741L5.61577 33.5616C5.62539 33.5477 5.63373 33.5331 5.64078 33.5178L5.75955 33.299C5.76182 33.2928 5.7639 33.2866 5.7658 33.2803L5.93458 32.9114C5.93938 32.8991 5.94355 32.8866 5.94709 32.8739L6.14712 32.3113C6.14972 32.2989 6.15181 32.2864 6.15337 32.2738L6.35966 31.4737C6.36187 31.4675 6.36396 31.4612 6.36592 31.4549L6.59721 30.4047C6.59941 30.3985 6.60149 30.3922 6.60346 30.386L6.83475 29.1045C6.8348 29.1003 6.8348 29.0961 6.83475 29.092L7.05355 27.6542C7.0536 27.65 7.0536 27.6459 7.05355 27.6417L7.25358 26.0914C7.25586 26.0831 7.25794 26.0748 7.25984 26.0664L7.54114 22.9095C7.54477 22.8868 7.54685 22.8638 7.54739 22.8408L7.47863 21.3655L7.65366 20.1528C7.67866 19.9902 7.6099 19.8965 7.44737 19.8715C7.28484 19.8465 7.19107 19.9152 7.16607 20.0777L6.99103 21.2967L6.5472 22.7095C6.53802 22.7402 6.53177 22.7714 6.52845 22.8033L6.12837 25.9476C6.12836 25.9497 6.12836 25.9518 6.12837 25.9539L5.95334 27.5042L5.75955 28.9357L5.56576 30.2109L5.38448 31.2674C5.38447 31.2695 5.38447 31.2715 5.38448 31.2736L5.2532 32.0925C5.25308 32.0988 5.25308 32.105 5.2532 32.1113L5.19069 32.7051L5.14068 33.099L5.10317 33.3178L5.06567 33.4365C5.06347 33.4406 5.06139 33.4448 5.05942 33.449L5.04691 33.4991C5.01142 33.5964 5.03031 33.6817 5.10357 33.755C5.17683 33.8282 5.26213 33.8471 5.35947 33.8116Z" fill="black"/>
<path d="M6.93486 26.4602L6.97237 26.4102C6.98755 26.3887 7.00005 26.3658 7.00988 26.3414L7.07864 26.1602C7.08662 26.1398 7.09288 26.119 7.09739 26.0976L7.16616 25.7726L7.32244 25.2475C7.32485 25.2371 7.32693 25.2267 7.32869 25.2162L7.49122 24.4973C7.49336 24.4932 7.49544 24.489 7.49747 24.4848L7.68501 23.5722C7.68714 23.568 7.68922 23.5639 7.69126 23.5597L7.88504 22.522L8.11009 21.3655L8.42265 20.1028L8.81647 18.7775L9.31032 17.4397L9.89168 16.1332L10.5043 14.8643C10.5065 14.858 10.5086 14.8518 10.5105 14.8455L10.9981 13.7515L11.592 13.0202C11.675 12.8865 11.6556 12.7699 11.5339 12.6703C11.4121 12.5706 11.294 12.5748 11.1794 12.6826L10.5731 13.4265L9.67288 14.2454C9.64246 14.2715 9.61537 14.3006 9.59162 14.3329L8.79147 15.5081C8.77246 15.536 8.75579 15.5651 8.74146 15.5956L8.12259 16.9209C8.11547 16.9394 8.10922 16.9581 8.10384 16.9772L7.60374 18.3587C7.59891 18.3752 7.59474 18.3918 7.59124 18.4087L7.20992 19.7714C7.20975 19.7798 7.20975 19.7881 7.20992 19.7964L6.90361 21.0904C6.89904 21.1028 6.89487 21.1153 6.8911 21.1279L6.68482 22.3032C6.68477 22.3073 6.68477 22.3115 6.68482 22.3157L6.51603 23.3596C6.51377 23.3679 6.51169 23.3762 6.50978 23.3846L6.40351 24.3098C6.40346 24.314 6.40346 24.3181 6.40351 24.3223L6.33475 25.0537C6.3322 25.0661 6.33011 25.0786 6.3285 25.0912L6.316 25.6538C6.31593 25.658 6.31593 25.6621 6.316 25.6663V26.0164C6.31606 26.0395 6.31815 26.0624 6.32225 26.0851L6.3535 26.2789C6.35889 26.3049 6.36722 26.3299 6.37851 26.3539L6.40351 26.4102C6.45209 26.5192 6.53578 26.5793 6.65458 26.5904C6.77337 26.6016 6.8668 26.5582 6.93486 26.4602Z" fill="black"/>
<path d="M9.2165 15.5019C9.2165 15.5934 9.24885 15.6715 9.31354 15.7362C9.37823 15.8009 9.45632 15.8332 9.54781 15.8332C9.6393 15.8332 9.71739 15.8009 9.78209 15.7362C9.84678 15.6715 9.87913 15.5934 9.87913 15.5019C9.87913 15.4104 9.84678 15.3323 9.78209 15.2677C9.71739 15.203 9.6393 15.1706 9.54781 15.1706C9.45632 15.1706 9.37823 15.203 9.31354 15.2677C9.24885 15.3323 9.2165 15.4104 9.2165 15.5019ZM9.57907 15.8645L9.64158 15.8582C9.70342 15.8538 9.76176 15.8371 9.81661 15.8082L10.0104 15.7082C10.046 15.691 10.0793 15.6701 10.1104 15.6457L10.4355 15.3707C10.4419 15.3645 10.4481 15.3583 10.4542 15.3519L10.9356 14.9206L11.5982 14.3455L12.4984 13.6641L13.6111 12.8952L14.8676 12.1325L16.2116 11.4074L17.5618 10.7073C17.5833 10.6981 17.6041 10.6877 17.6244 10.676L18.7246 9.92587L19.7498 9.59455C19.9165 9.54038 19.9727 9.42994 19.9185 9.26324C19.8644 9.09654 19.7539 9.04028 19.5872 9.09446L18.5558 9.43202L17.218 9.60705C17.1685 9.61345 17.1206 9.62595 17.0742 9.64456L15.6615 10.2197C15.638 10.2288 15.615 10.2392 15.5927 10.2509L14.23 10.9823C14.2194 10.9883 14.2089 10.9945 14.1987 11.0011L12.911 11.7825C12.9025 11.7885 12.8941 11.7948 12.8859 11.8012L11.7357 12.5889C11.7272 12.597 11.7188 12.6053 11.7107 12.6139L10.7855 13.3203C10.7748 13.3303 10.7644 13.3407 10.7543 13.3515L10.0729 13.9454C10.0599 13.9574 10.0474 13.9699 10.0354 13.9829L9.58532 14.458C9.55184 14.4921 9.52267 14.5296 9.4978 14.5705L9.27901 14.9393C9.24527 14.9956 9.22235 15.0561 9.21025 15.1206L9.17274 15.3331C9.16101 15.3915 9.16101 15.4498 9.17274 15.5082L9.18524 15.5644C9.22865 15.7798 9.35992 15.8798 9.57907 15.8645Z" fill="black"/>
<path d="M18.562 9.71951C18.562 9.82481 18.5992 9.91469 18.6737 9.98915C18.7481 10.0636 18.838 10.1008 18.9433 10.1008C19.0486 10.1008 19.1385 10.0636 19.2129 9.98915C19.2874 9.91469 19.3246 9.82481 19.3246 9.71951C19.3246 9.61421 19.2874 9.52433 19.2129 9.44987C19.1385 9.37542 19.0486 9.33819 18.9433 9.33819C18.838 9.33819 18.7481 9.37542 18.6737 9.44987C18.5992 9.52433 18.562 9.61421 18.562 9.71951ZM18.6808 10.0196L18.6995 10.0321C18.813 10.1372 18.9464 10.1789 19.0996 10.1571L19.3059 10.1258C19.3335 10.1217 19.3605 10.1154 19.3871 10.1071L19.806 9.98206C19.8294 9.97514 19.8523 9.96681 19.8747 9.95706L20.4874 9.682C20.4936 9.68002 20.4999 9.67794 20.5061 9.67575L21.3 9.28818C21.3042 9.28614 21.3084 9.28406 21.3125 9.28193L22.2502 8.78808C22.2544 8.78605 22.2586 8.78396 22.2627 8.78183L23.2629 8.21922C23.2671 8.21719 23.2712 8.2151 23.2754 8.21297L24.2756 7.62536C24.2777 7.62329 24.2798 7.62121 24.2818 7.61911L25.1883 7.06901C25.1967 7.06503 25.205 7.06086 25.2133 7.0565L25.9634 6.55641C25.9901 6.53759 26.0151 6.51675 26.0384 6.4939L26.5948 5.9813C26.6128 5.96376 26.6295 5.945 26.6448 5.92504L27.0449 5.41869C27.0514 5.4106 27.0577 5.40227 27.0636 5.39369L27.3324 5.00611L27.5637 4.77482C27.6924 4.64563 27.6923 4.51657 27.5633 4.38763C27.4344 4.2587 27.3053 4.25857 27.1761 4.38725L26.9573 4.61229L26.551 4.82483C26.5489 4.82689 26.5468 4.82897 26.5448 4.83108L25.9822 5.14364C25.9822 5.14572 25.9822 5.14781 25.9822 5.14989L25.3258 5.52496C25.3173 5.52894 25.309 5.5331 25.3008 5.53746L24.5444 6.01881L23.6442 6.56266L22.6565 7.14402L21.6626 7.70663L20.7499 8.19422L19.9685 8.58179C19.9664 8.58179 19.9643 8.58179 19.9623 8.58179L19.3621 8.88185C19.3472 8.88957 19.3326 8.8979 19.3184 8.90686L18.9496 9.13815C18.9368 9.14391 18.9243 9.15016 18.9121 9.1569L18.7433 9.28193C18.5807 9.40033 18.5161 9.55869 18.5495 9.75702L18.5557 9.78202C18.5702 9.87554 18.6118 9.95472 18.6808 10.0196Z" fill="black"/>
<path d="M29.8142 1.46792C29.8142 1.57322 29.8514 1.66309 29.9259 1.73755C30.0004 1.81201 30.0902 1.84924 30.1955 1.84924C30.3008 1.84924 30.3907 1.81201 30.4652 1.73755C30.5396 1.66309 30.5769 1.57322 30.5769 1.46792C30.5769 1.36262 30.5396 1.27274 30.4652 1.19828C30.3907 1.12382 30.3008 1.08659 30.1955 1.08659C30.0902 1.08659 30.0004 1.12382 29.9259 1.19828C29.8514 1.27274 29.8142 1.36262 29.8142 1.46792ZM29.7392 1.47417C29.7392 1.60018 29.7838 1.70774 29.8729 1.79685C29.962 1.88595 30.0695 1.9305 30.1955 1.9305C30.3216 1.9305 30.4291 1.88595 30.5182 1.79685C30.6073 1.70774 30.6519 1.60018 30.6519 1.47417C30.6519 1.34815 30.6073 1.24059 30.5182 1.15149C30.4291 1.06238 30.3216 1.01783 30.1955 1.01783C30.0695 1.01783 29.962 1.06238 29.8729 1.15149C29.7838 1.24059 29.7392 1.34815 29.7392 1.47417ZM30.0955 0.96157L30.0393 0.967822C29.9849 0.977302 29.9328 0.993972 29.883 1.01783L29.7642 1.07409C29.6993 1.10406 29.641 1.14365 29.5892 1.19286L29.4079 1.36165C29.3926 1.37556 29.378 1.39015 29.3641 1.4054L29.1141 1.69296C29.1055 1.70108 29.0972 1.70941 29.0891 1.71796L28.7765 2.11804L28.3889 2.58688L27.9639 3.08697L27.5388 3.56832L27.1137 4.0184L26.6949 4.44348L26.2698 4.84981L25.851 5.21863L25.4259 5.5687L24.957 5.91251C24.9486 5.91856 24.9402 5.92481 24.932 5.93127L24.4444 6.33759L23.8693 6.75642C23.8693 6.75851 23.8693 6.76059 23.8693 6.76267L23.2692 7.20651C23.2671 7.20857 23.265 7.21065 23.263 7.21276L22.7691 7.58783L22.344 7.79412C22.1898 7.86913 22.1503 7.98374 22.2253 8.13794C22.3003 8.29213 22.4149 8.33172 22.5691 8.25671L22.9942 8.05667L23.6005 7.89414C23.609 7.89027 23.6174 7.88611 23.6255 7.88164L24.3382 7.63784C24.3552 7.63248 24.3719 7.62623 24.3882 7.61909L25.0383 7.30028C25.0425 7.30034 25.0466 7.30034 25.0508 7.30028L25.6322 7.01272C25.6516 7.0012 25.6703 6.9887 25.6884 6.97522L26.1948 6.66266C26.212 6.65093 26.2287 6.63843 26.2448 6.62515L26.7011 6.27508C26.7118 6.26706 26.7222 6.25872 26.7324 6.25008L27.1762 5.86875C27.1847 5.86269 27.193 5.85644 27.2012 5.85L27.6451 5.43117C27.6514 5.42504 27.6577 5.41879 27.6638 5.41242L28.0951 4.97483C28.0993 4.97279 28.1035 4.97071 28.1076 4.96858L28.5452 4.506C28.5495 4.49981 28.5537 4.49356 28.5577 4.48724L28.9953 3.9934C28.9996 3.98721 29.0038 3.98096 29.0078 3.97464L29.4391 3.46205L29.833 2.98696C29.8372 2.98077 29.8414 2.97452 29.8455 2.9682L30.1643 2.56187L30.3956 2.26807C30.4042 2.2579 30.4126 2.24748 30.4206 2.23681L30.5644 2.03678C30.5864 2.00309 30.6052 1.96767 30.6206 1.9305L30.6769 1.81173C30.7104 1.74041 30.7292 1.6654 30.7331 1.58669V1.52418C30.7393 1.35088 30.6774 1.20686 30.5473 1.09212C30.4173 0.977391 30.2667 0.933873 30.0955 0.96157Z" fill="black"/>
<path d="M15.1863 11.101C15.1863 11.196 15.2199 11.277 15.287 11.3441C15.3542 11.4113 15.4352 11.4448 15.5301 11.4448C15.6251 11.4448 15.7061 11.4113 15.7733 11.3441C15.8404 11.277 15.874 11.196 15.874 11.101C15.874 11.0061 15.8404 10.925 15.7733 10.8579C15.7061 10.7908 15.6251 10.7572 15.5301 10.7572C15.4352 10.7572 15.3542 10.7908 15.287 10.8579C15.2199 10.925 15.1863 11.0061 15.1863 11.101ZM15.1613 11.1073C15.1613 11.2091 15.1973 11.296 15.2693 11.3681C15.3414 11.4401 15.4283 11.4761 15.5301 11.4761C15.632 11.4761 15.7189 11.4401 15.7909 11.3681C15.863 11.296 15.899 11.2091 15.899 11.1073C15.899 11.0054 15.863 10.9185 15.7909 10.8465C15.7189 10.7745 15.632 10.7384 15.5301 10.7384C15.4283 10.7384 15.3414 10.7745 15.2693 10.8465C15.1973 10.9185 15.1613 11.0054 15.1613 11.1073ZM15.4239 11.4823L15.4864 11.5073C15.5599 11.5317 15.6349 11.5379 15.7114 11.5261L15.8927 11.4948C15.9117 11.4917 15.9304 11.4875 15.949 11.4823L16.2553 11.4011C16.2594 11.4011 16.2636 11.4011 16.2678 11.4011L16.7241 11.2698L17.368 11.1073C17.3743 11.1053 17.3805 11.1032 17.3867 11.101L18.2119 10.8635C18.2245 10.8597 18.237 10.8555 18.2494 10.851L19.1683 10.5197C19.1897 10.5125 19.2105 10.5042 19.2308 10.4947L20.1748 10.0196C20.1875 10.0138 20.2 10.0076 20.2123 10.0008L21.0624 9.47571C21.0732 9.46995 21.0836 9.4637 21.0937 9.45696L21.7438 8.97561L22.2689 8.68806C22.4186 8.60462 22.4519 8.48799 22.3686 8.33817C22.2854 8.18835 22.1688 8.15496 22.0189 8.23797L21.5063 8.51928L20.7374 8.77558L19.7935 9.10064L18.7995 9.4257L17.8743 9.71325L17.0617 9.93205L16.4116 10.1071C16.3946 10.1126 16.3779 10.1188 16.3615 10.1258L15.9052 10.2884C15.8703 10.3018 15.8369 10.3185 15.8052 10.3384L15.5301 10.5009C15.4961 10.5224 15.4648 10.5474 15.4364 10.5759L15.2988 10.7072C15.2374 10.7688 15.1957 10.8418 15.1738 10.926L15.1551 10.9885C15.1282 11.0933 15.1406 11.1932 15.1923 11.2883C15.2441 11.3833 15.3212 11.448 15.4239 11.4823Z" fill="black"/>
<path d="M10.873 14.0579C10.873 14.2704 10.9793 14.3767 11.1918 14.3767C11.4044 14.3767 11.5106 14.2704 11.5106 14.0579C11.5106 13.8453 11.4044 13.7391 11.1918 13.7391C10.9793 13.7391 10.873 13.8453 10.873 14.0579ZM11.3231 14.3892L11.3919 14.3642C11.4161 14.3541 11.439 14.3416 11.4606 14.3267L11.6169 14.2204C11.619 14.2204 11.6211 14.2204 11.6232 14.2204L11.8794 14.0391C11.8837 14.0371 11.8878 14.035 11.892 14.0329L12.242 13.7641L12.6796 13.4453C12.6817 13.4432 12.6838 13.4411 12.6859 13.439L13.2235 13.0389L13.8798 12.5826L14.655 12.0888C14.6702 12.0793 14.6848 12.0689 14.6987 12.0575L15.3989 11.4636L16.1053 11.1011C16.2194 11.0299 16.2456 10.9346 16.1839 10.815C16.1223 10.6955 16.0293 10.6617 15.9052 10.7135L15.1926 11.0761L14.3112 11.3449C14.283 11.3524 14.2559 11.3628 14.2299 11.3761L13.4235 11.8262C13.4129 11.83 13.4025 11.8341 13.3922 11.8387L12.7046 12.2888C12.6938 12.2967 12.6834 12.305 12.6734 12.3138L12.142 12.7264C12.1334 12.7323 12.1251 12.7386 12.117 12.7451L11.7107 13.1139C11.7065 13.116 11.7023 13.118 11.6982 13.1202L11.3856 13.4203L11.1668 13.614L11.0293 13.7141C11.0229 13.718 11.0167 13.7222 11.0105 13.7266L10.9605 13.7766C10.8115 13.9089 10.7877 14.0608 10.8892 14.2324C10.9907 14.4039 11.1354 14.4562 11.3231 14.3892Z" fill="black"/>
<path d="M2.8463 30.2669L2.84005 30.2919C2.83712 30.3043 2.83504 30.3168 2.8338 30.3294L2.8213 30.4295C2.81922 30.4294 2.81713 30.4294 2.81505 30.4295L2.79004 30.6295C2.79002 30.6316 2.79002 30.6337 2.79004 30.6357L2.75879 30.917L2.72128 31.2234L2.67127 31.5297L2.60251 31.836L2.52749 32.136L2.44623 32.4236L2.36496 32.7174L2.26494 33.0174L2.15867 33.2987L2.0399 33.5488L1.92738 33.7551L1.81486 33.9239L1.68983 34.0989L1.58356 34.2489L1.48355 34.3802C1.48136 34.3843 1.47927 34.3885 1.47729 34.3927L1.40853 34.4865L1.36477 34.5302L1.32101 34.5615C1.2935 34.5823 1.27057 34.6073 1.25225 34.6365L1.2335 34.6615C1.16619 34.7589 1.16203 34.8589 1.221 34.9616L1.2335 34.9741C1.29482 35.0752 1.38442 35.121 1.5023 35.1116H1.56481C1.57534 35.1101 1.58576 35.108 1.59607 35.1053L1.70859 35.0803C1.72563 35.0776 1.7423 35.0735 1.7586 35.0678L1.89612 35.0116C1.90907 35.0062 1.92158 35 1.93363 34.9928L2.07741 34.9178L2.23369 34.8365C2.23791 34.8346 2.24207 34.8325 2.24619 34.8303L2.42748 34.7303C2.42959 34.7282 2.43167 34.7261 2.43373 34.724L2.67127 34.5802C2.67336 34.5803 2.67544 34.5803 2.67752 34.5802L3.00884 34.3677C3.01516 34.3658 3.02141 34.3637 3.02759 34.3615L3.44642 34.0614C3.44644 34.0593 3.44644 34.0572 3.44642 34.0551L3.90901 33.7113C3.91322 33.7093 3.91739 33.7073 3.92151 33.7051L4.35909 33.3488L4.73416 33.0299C4.73848 33.0259 4.74265 33.0218 4.74667 33.0174L5.02172 32.7424L5.24051 32.5736C5.3447 32.4903 5.35512 32.3965 5.27177 32.2923C5.18842 32.1881 5.09465 32.1777 4.99046 32.2611L4.77792 32.4236L4.44661 32.6174C4.44238 32.6193 4.43822 32.6214 4.43411 32.6236L4.02153 32.8924C4.01731 32.8944 4.01314 32.8965 4.00903 32.8987L3.55894 33.2362L3.09635 33.5801L2.68377 33.8739L2.36496 34.0801L2.13992 34.2177L1.96489 34.3114L1.80861 34.3927C1.80652 34.3927 1.80444 34.3927 1.80236 34.3927L1.66483 34.4677L1.55856 34.5115L1.47104 34.5365C1.46262 34.5382 1.45428 34.5403 1.44604 34.5427L1.38978 34.5615C1.46319 34.6039 1.54029 34.6123 1.62107 34.5865L1.60857 34.574C1.52274 34.7308 1.55608 34.8558 1.70859 34.9491L1.73359 34.9241L1.80861 34.8553C1.81772 34.8455 1.82606 34.8351 1.83361 34.824L1.91488 34.7115L2.0149 34.574C2.01698 34.574 2.01906 34.574 2.02115 34.574L2.13367 34.4177C2.13579 34.4157 2.13787 34.4136 2.13992 34.4115L2.26494 34.2364C2.26497 34.2343 2.26497 34.2323 2.26494 34.2302L2.38997 34.0489C2.39228 34.0427 2.39436 34.0365 2.39622 34.0301L2.52124 33.8051C2.52567 33.799 2.52983 33.7928 2.53375 33.7863L2.65877 33.5175C2.66108 33.5114 2.66316 33.5051 2.66502 33.4988L2.77754 33.1987C2.77764 33.1946 2.77764 33.1904 2.77754 33.1862L2.87756 32.8799C2.87759 32.8778 2.87759 32.8758 2.87756 32.8737L2.97133 32.5736L3.05259 32.2798C3.05262 32.2777 3.05262 32.2756 3.05259 32.2736L3.14011 31.9735C3.14032 31.9672 3.14032 31.961 3.14011 31.9547L3.20887 31.6359C3.20897 31.6318 3.20897 31.6276 3.20887 31.6234L3.25888 31.3046C3.25891 31.3025 3.25891 31.3005 3.25888 31.2984L3.30889 30.9983C3.30892 30.9962 3.30892 30.9941 3.30889 30.9921L3.3464 30.7045C3.34848 30.7045 3.35057 30.7045 3.35265 30.7045L3.37766 30.5045C3.37768 30.5024 3.37768 30.5003 3.37766 30.4982L3.38391 30.3982C3.38865 30.3624 3.38657 30.3269 3.37766 30.2919L3.3714 30.2669C3.33121 30.1382 3.2437 30.0739 3.10885 30.0739C2.97401 30.0739 2.8865 30.1382 2.8463 30.2669Z" fill="black"/>
<path d="M3.12131 34.6303L3.14631 34.6428C3.19865 34.6743 3.25492 34.6848 3.3151 34.674L3.42762 34.6553C3.44922 34.6516 3.47006 34.6453 3.49013 34.6365L3.67141 34.5552C3.69127 34.5468 3.71002 34.5364 3.72767 34.524L4.00898 34.3177C4.02226 34.3082 4.03477 34.2978 4.04648 34.2864L4.38405 33.9489C4.39301 33.939 4.40135 33.9285 4.40905 33.9176L4.79038 33.455C4.79492 33.4469 4.79909 33.4386 4.80288 33.43L5.15295 32.8924C5.15506 32.8904 5.15715 32.8883 5.1592 32.8862L5.453 32.4048L5.7093 32.0485C5.75328 31.9475 5.73081 31.8646 5.64189 31.7996C5.55296 31.7346 5.46708 31.7384 5.38424 31.811L5.12794 32.1673L4.75287 32.5861L4.32154 33.0487L3.90896 33.48L3.59015 33.8239L3.3401 34.0489C3.33581 34.0529 3.33164 34.0571 3.3276 34.0614L3.20257 34.1864L3.13381 34.2364C3.11513 34.2487 3.09846 34.2633 3.0838 34.2802L3.06505 34.3052C2.95946 34.4351 2.97822 34.5434 3.12131 34.6303Z" fill="black"/>
<path d="M5.20335 33.5424L5.24086 33.5049C5.24956 33.4991 5.2579 33.4929 5.26587 33.4861L5.40339 33.3299C5.41265 33.318 5.42098 33.3055 5.4284 33.2924L5.69095 32.8985L6.12853 32.2359L7.49129 30.1793C7.4913 30.1772 7.4913 30.1751 7.49129 30.173L8.3352 28.8603L9.27288 27.4287L10.2856 25.9347L11.3608 24.3907L12.4547 22.8466L13.5549 21.3151L14.6802 19.8023L15.8304 18.2832L16.9994 16.7892L18.1683 15.3327L19.3373 13.9137L20.4938 12.5509L21.644 11.2507L22.7504 10.0317L23.8069 8.95022L24.8258 7.95628L25.7885 7.02485C25.7971 7.01679 25.8055 7.00845 25.8135 6.99985L26.6387 6.09968C26.6408 6.09761 26.6429 6.09553 26.6449 6.09343L27.3326 5.31203C27.3347 5.30996 27.3368 5.30788 27.3388 5.30578L27.9139 4.6244C27.9278 4.60872 27.9403 4.59205 27.9514 4.57439L28.2953 4.01178L28.6078 3.68047C28.7245 3.55544 28.7203 3.43459 28.5953 3.3179C28.4703 3.20121 28.3494 3.20538 28.2327 3.3304L27.9202 3.66171L27.3826 4.04929C27.3694 4.05893 27.3569 4.06935 27.3451 4.08054L26.6949 4.69941L25.9448 5.40579L25.0384 6.2247C25.0341 6.2288 25.03 6.23297 25.0259 6.2372L24.0632 7.16863L23.038 8.16882C23.0338 8.17292 23.0296 8.17709 23.0255 8.18132L21.9565 9.27528L20.8063 10.4755C20.802 10.4817 20.7979 10.4879 20.7938 10.4943L19.6374 11.7945C19.6331 11.7986 19.629 11.8028 19.6248 11.807L18.4621 13.176C18.46 13.1781 18.4579 13.1802 18.4559 13.1823L17.2932 14.62C17.2911 14.6221 17.289 14.6242 17.2869 14.6263L16.1242 16.1016C16.1221 16.1036 16.12 16.1057 16.1179 16.1078L14.9677 17.6206C14.9656 17.6227 14.9635 17.6248 14.9615 17.6269L13.83 19.1709C13.8279 19.1709 13.8258 19.1709 13.8237 19.1709L12.7173 20.7025C12.7173 20.7045 12.7173 20.7066 12.7173 20.7087L11.6171 22.2465C11.615 22.2486 11.6129 22.2507 11.6108 22.2528L10.5356 23.8155C10.5335 23.8176 10.5314 23.8197 10.5294 23.8218L9.47917 25.3846C9.47916 25.3867 9.47916 25.3888 9.47917 25.3908L8.48523 26.9036C8.48312 26.9057 8.48104 26.9078 8.47898 26.9099L7.56005 28.3602C7.55791 28.3643 7.55582 28.3685 7.5538 28.3727L6.7474 29.7104C6.74529 29.7125 6.74321 29.7146 6.74115 29.7167L5.52842 31.8671L5.12834 32.5485C5.12617 32.5526 5.12408 32.5568 5.12209 32.561L4.9033 32.9798C4.89662 32.9878 4.89037 32.9961 4.88454 33.0048L4.80953 33.2048C4.79685 33.237 4.7906 33.2703 4.79078 33.3049V33.3611C4.79438 33.4658 4.84415 33.5393 4.94009 33.5814C5.03602 33.6236 5.12378 33.6106 5.20335 33.5424Z" fill="black"/>
<path d="M0.814621 36.1683C0.814621 36.2823 0.854901 36.3795 0.935462 36.4601C1.01602 36.5406 1.11327 36.5809 1.2272 36.5809C1.34113 36.5809 1.43838 36.5406 1.51894 36.4601C1.5995 36.3795 1.63978 36.2823 1.63978 36.1683C1.63978 36.0544 1.5995 35.9572 1.51894 35.8766C1.43838 35.796 1.34113 35.7558 1.2272 35.7558C1.11327 35.7558 1.01602 35.796 0.935462 35.8766C0.854901 35.9572 0.814621 36.0544 0.814621 36.1683ZM0.952147 35.8558L0.927142 35.8808C0.916181 35.8907 0.905763 35.9011 0.895886 35.912L0.86463 35.9495C0.765821 36.0525 0.7267 36.1745 0.747268 36.3157C0.767837 36.4569 0.840154 36.5627 0.964221 36.6331C1.08829 36.7036 1.21621 36.7114 1.34799 36.6568C1.47976 36.6021 1.56452 36.506 1.60227 36.3684L1.61477 36.3246C1.61711 36.3163 1.61919 36.308 1.62102 36.2996L1.62728 36.2621C1.6755 36.0654 1.61285 35.9148 1.43932 35.8104C1.26578 35.7059 1.10339 35.7211 0.952147 35.8558ZM0.658341 36.4496L0.664592 36.4621C0.71549 36.6231 0.818902 36.7359 0.974827 36.8005C1.13075 36.8652 1.28364 36.8587 1.43349 36.7809L1.4835 36.7559C1.5345 36.7297 1.58034 36.6964 1.62102 36.6559L1.71479 36.5622C1.73034 36.5463 1.74493 36.5297 1.75855 36.5121L1.88357 36.3559C1.89695 36.3399 1.90945 36.3232 1.92108 36.3059L2.06486 36.0808C2.07606 36.0646 2.08648 36.048 2.09612 36.0308L2.23989 35.7558C2.25163 35.7334 2.26205 35.7105 2.27115 35.687L2.38992 35.3807C2.39446 35.3683 2.39863 35.3558 2.40242 35.3432L2.50244 35.0244C2.50245 35.0223 2.50245 35.0202 2.50244 35.0181L2.60246 34.6931C2.60456 34.691 2.60664 34.6889 2.60871 34.6868L2.70248 34.3617L2.78375 34.0679C2.78599 34.0596 2.78808 34.0513 2.79 34.0429L2.85876 33.7616C2.86089 33.7575 2.86297 33.7533 2.86501 33.7491L2.98378 33.2115L3.0588 32.9177L3.13381 32.5989L3.20883 32.2863C3.21101 32.2801 3.21309 32.2739 3.21508 32.2676L3.27759 31.98C3.27984 31.9717 3.28192 31.9634 3.28384 31.955L3.33385 31.68C3.33386 31.6779 3.33386 31.6758 3.33385 31.6737L3.38386 31.3924L3.43387 31.0986C3.436 31.0945 3.43808 31.0903 3.44012 31.0861L3.48388 30.8048C3.48622 30.7944 3.4883 30.784 3.49013 30.7736L3.52139 30.5173C3.52142 30.5131 3.52142 30.5089 3.52139 30.5048L3.54639 30.2422C3.54664 30.2318 3.54664 30.2214 3.54639 30.2109L3.56514 29.9234C3.56516 29.9213 3.56516 29.9192 3.56514 29.9171L3.57765 29.6046C3.57768 29.6004 3.57768 29.5962 3.57765 29.5921L3.5839 29.2483C3.58391 29.2462 3.58391 29.2441 3.5839 29.242V28.8982C3.58391 28.8961 3.58391 28.894 3.5839 28.8919V28.5419L3.59015 28.1918C3.59016 28.1897 3.59016 28.1876 3.59015 28.1856L3.5839 27.8167L3.57765 27.4167C3.57768 27.4125 3.57768 27.4083 3.57765 27.4042L3.56514 26.9603L3.55264 26.4852L3.55889 25.9914L3.57765 25.4788L3.59015 24.9725L3.60265 24.4974C3.60266 24.4953 3.60266 24.4932 3.60265 24.4911L3.61515 24.0473C3.61519 24.0431 3.61519 24.0389 3.61515 24.0348V23.6409L3.62766 23.2784C3.62769 23.2742 3.62769 23.27 3.62766 23.2659L3.63391 22.9221L3.65266 22.5907L3.67767 22.2657L3.70892 21.9406C3.70893 21.9385 3.70893 21.9365 3.70892 21.9344L3.73393 21.6218L3.75893 21.3218L3.80269 21.0092L3.8527 20.6841L3.90896 20.3653L3.98397 20.009L4.05899 19.6589L4.14651 19.3089L4.24652 18.9526L4.34654 18.615L4.45281 18.2712L4.58409 17.9211L4.71536 17.5585L4.85914 17.1897L5.02792 16.8084L5.21546 16.4083L5.4155 15.9957L5.62179 15.5894L5.84058 15.1956L6.07187 14.8205L6.32192 14.4454L6.57822 14.0704L6.89078 13.6453C6.895 13.6412 6.89917 13.637 6.90328 13.6328L7.22209 13.1702C7.23812 13.1482 7.2527 13.1253 7.26585 13.1014L7.52215 12.6013C7.55262 12.5424 7.57137 12.4798 7.57841 12.4138L7.61592 12.0637L7.82846 11.8074C7.93669 11.6783 7.92625 11.5595 7.79712 11.4512C7.66799 11.3429 7.54925 11.3533 7.44088 11.4824L7.22834 11.7387L6.88453 11.8512C6.81798 11.8706 6.75755 11.9019 6.70324 11.945L6.27816 12.3013C6.2437 12.3293 6.21245 12.3606 6.18439 12.3951L5.83433 12.8326C5.82795 12.8388 5.8217 12.845 5.81557 12.8514L5.49676 13.2827C5.49254 13.2868 5.48837 13.291 5.48426 13.2952L5.21546 13.6828C5.21119 13.689 5.20702 13.6952 5.20296 13.7016L4.94666 14.0891C4.94453 14.0933 4.94245 14.0974 4.94041 14.1016L4.69036 14.5017C4.68382 14.512 4.67757 14.5224 4.67161 14.533L4.44031 14.9518C4.43597 14.96 4.4318 14.9684 4.42781 14.9768L4.21527 15.3956C4.21317 15.3977 4.21109 15.3998 4.20902 15.4019L4.00898 15.827C4.00688 15.829 4.0048 15.8311 4.00273 15.8332L3.80894 16.2458C3.80677 16.252 3.80468 16.2583 3.80269 16.2645L3.62766 16.6646C3.62323 16.6749 3.61906 16.6854 3.61515 16.6959L3.46513 17.0835C3.46511 17.0855 3.46511 17.0876 3.46513 17.0897L3.3276 17.4585C3.3255 17.4606 3.32342 17.4627 3.32135 17.4648L3.19007 17.8336C3.18783 17.8419 3.18575 17.8502 3.18382 17.8586L3.0713 18.2149C3.07126 18.2191 3.07126 18.2233 3.0713 18.2274L2.96503 18.5837C2.9629 18.5879 2.96082 18.592 2.95878 18.5962L2.85876 18.9651C2.85663 18.9692 2.85455 18.9734 2.85251 18.9776L2.76499 19.3464C2.76289 19.3485 2.76081 19.3505 2.75874 19.3526L2.67122 19.7152C2.67107 19.7235 2.67107 19.7319 2.67122 19.7402L2.59621 20.0965L2.5212 20.4341C2.51876 20.4465 2.51668 20.459 2.51494 20.4716L2.46494 20.8092C2.46485 20.8154 2.46485 20.8217 2.46494 20.8279L2.42118 21.153C2.419 21.1592 2.41692 21.1654 2.41493 21.1717L2.38367 21.4905C2.38358 21.4968 2.38358 21.503 2.38367 21.5093L2.35866 21.8219L2.32741 22.1469C2.32737 22.1511 2.32737 22.1552 2.32741 22.1594L2.3024 22.497C2.30237 22.5011 2.30237 22.5053 2.3024 22.5095L2.28365 22.8595C2.2835 22.8679 2.2835 22.8762 2.28365 22.8846L2.2774 23.2409L2.2649 23.6097C2.26481 23.6159 2.26481 23.6222 2.2649 23.6284V24.0285V24.4661L2.25239 24.9412L2.23989 25.4475L2.23364 25.9664C2.23363 25.9685 2.23363 25.9706 2.23364 25.9726L2.22739 26.4852C2.22723 26.4936 2.22723 26.5019 2.22739 26.5102L2.23989 26.9978L2.25239 27.4417L2.25865 27.8355L2.2649 28.1981L2.27115 28.5419V28.8919C2.27114 28.894 2.27114 28.8961 2.27115 28.8982V29.2358L2.2649 29.5608L2.25239 29.8671L2.24614 30.1359L2.22114 30.3735L2.18988 30.611L2.15238 30.8736L2.10237 31.1549C2.10027 31.1569 2.09818 31.159 2.09612 31.1611L2.04611 31.4424C2.04609 31.4445 2.04609 31.4466 2.04611 31.4487L1.9961 31.7175L1.94609 31.9738L1.86482 32.2676C1.86481 32.2697 1.86481 32.2718 1.86482 32.2738L1.7773 32.5864C1.77518 32.5905 1.77309 32.5947 1.77105 32.5989L1.69604 32.899C1.696 32.9031 1.696 32.9073 1.69604 32.9115L1.57102 33.4491L1.50225 33.7241L1.42724 33.9992L1.33347 34.3055L1.2397 34.6305C1.23762 34.6305 1.23553 34.6305 1.23345 34.6305L1.13968 34.9368L1.03966 35.2307L0.933394 35.5245C0.933384 35.5265 0.933384 35.5286 0.933394 35.5307L0.852128 35.762L0.795867 35.8933L0.75836 35.9558L0.745858 35.9808C0.993565 36.0571 1.1936 35.9904 1.34597 35.7808L1.33347 35.7745C1.12569 35.7085 0.944727 35.7526 0.790573 35.9067C0.636419 36.0609 0.592341 36.2419 0.658341 36.4496Z" fill="black"/>
<path d="M6.57834 13.1389L6.61584 13.1327C6.65391 13.1189 6.68933 13.1002 6.72212 13.0764L6.84089 12.9952C6.84943 12.9892 6.85777 12.9829 6.86589 12.9764L7.10344 12.7951C7.12104 12.7816 7.13771 12.767 7.15345 12.7514L7.49101 12.4201C7.49311 12.418 7.4952 12.4159 7.49726 12.4138L7.93485 11.97L8.47245 11.4449L9.11007 10.8698L9.83521 10.2571L10.6354 9.66328L11.4605 9.07567C11.4878 9.05518 11.5128 9.03226 11.5355 9.0069L12.1544 8.35053L12.7983 7.97546C12.9412 7.87992 12.9696 7.75776 12.8835 7.60896C12.7973 7.46016 12.6772 7.42397 12.5232 7.50037L11.8668 7.88794L11.0042 8.15049C10.9527 8.16605 10.9048 8.18898 10.8604 8.21925L10.0165 8.78811C10.0102 8.79215 10.0039 8.79632 9.99774 8.80062L9.18508 9.40698C9.17875 9.41102 9.17249 9.41518 9.16633 9.41948L8.40994 10.0321C8.40353 10.0382 8.39728 10.0444 8.39118 10.0509L7.73481 10.6385C7.72847 10.6425 7.72222 10.6467 7.71605 10.651L7.16595 11.1886C7.16165 11.1947 7.15749 11.201 7.15345 11.2073L6.71586 11.6574C6.70937 11.6656 6.70312 11.6739 6.69711 11.6824L6.3908 12.045C6.37492 12.0627 6.36034 12.0815 6.34704 12.1012L6.18451 12.3575C6.17786 12.3677 6.17161 12.3781 6.16576 12.3888L6.097 12.5201C6.05833 12.5924 6.04166 12.6695 6.04699 12.7514V12.7889C6.05858 12.9191 6.11897 13.0202 6.22817 13.0922C6.33736 13.1641 6.45409 13.1797 6.57834 13.1389Z" fill="black"/>
<path d="M9.3225 10.5885L9.37876 10.5635C9.38732 10.5575 9.39565 10.5513 9.40376 10.5447L9.56004 10.4509L9.85385 10.2759C9.87119 10.2643 9.88786 10.2518 9.90386 10.2384L10.3727 9.88834C10.379 9.88428 10.3853 9.88011 10.3915 9.87583L11.1041 9.30072L12.0418 8.59434L13.1232 7.81294C13.1274 7.8109 13.1316 7.80882 13.1357 7.80669L14.2297 6.98778L15.2174 6.33141L16.055 5.95009C16.1853 5.86955 16.2192 5.75936 16.1566 5.61954C16.0941 5.47971 15.9894 5.43153 15.8425 5.47499L14.9986 5.85632L13.8484 6.25014C13.84 6.25197 13.8316 6.25405 13.8234 6.25639L12.5544 6.78774C12.5308 6.7967 12.5079 6.80712 12.4856 6.819L11.3166 7.49413C11.2949 7.5075 11.2741 7.52209 11.2541 7.53789L10.2977 8.25052C10.2848 8.26048 10.2723 8.2709 10.2602 8.28178L9.56629 8.8944C9.54618 8.91401 9.52742 8.93484 9.51003 8.95691L9.12246 9.39449C9.09891 9.42173 9.07808 9.4509 9.05995 9.48201L8.88492 9.78207C8.88051 9.79028 8.87634 9.79862 8.87241 9.80707L8.7849 9.97585C8.77785 9.9901 8.7716 10.0047 8.76614 10.0196L8.74114 10.0821C8.67581 10.26 8.71458 10.4111 8.85744 10.5355C9.0003 10.6599 9.15532 10.6776 9.3225 10.5885Z" fill="black"/>
<path d="M12.1043 7.41278C12.1043 7.50772 12.1378 7.58876 12.205 7.6559C12.2721 7.72303 12.3531 7.7566 12.4481 7.7566C12.543 7.7566 12.6241 7.72303 12.6912 7.6559C12.7583 7.58876 12.7919 7.50772 12.7919 7.41278C12.7919 7.31784 12.7583 7.2368 12.6912 7.16967C12.6241 7.10253 12.543 7.06897 12.4481 7.06897C12.3531 7.06897 12.2721 7.10253 12.205 7.16967C12.1378 7.2368 12.1043 7.31784 12.1043 7.41278ZM12.5168 7.80661L12.5543 7.80036C12.5627 7.79852 12.5711 7.79643 12.5794 7.7941L12.6669 7.77535L12.8356 7.74409C12.8766 7.73586 12.9162 7.72336 12.9544 7.70659L13.267 7.57531C13.2712 7.57328 13.2753 7.57119 13.2795 7.56906L13.8108 7.33777L14.6297 6.9752L15.7425 6.53136L17.0427 6.06252C17.0469 6.06049 17.0511 6.0584 17.0552 6.05627L18.3867 5.54993C18.3888 5.54994 18.3909 5.54994 18.393 5.54993L19.6494 5.04983L20.6996 4.631L21.5248 4.45597C21.6888 4.41414 21.7526 4.31057 21.7164 4.14527C21.6801 3.97997 21.5787 3.91267 21.4123 3.94337L20.5809 4.12466L19.4494 4.24968C19.4411 4.24943 19.4327 4.24943 19.4244 4.24968L18.0992 4.46847C18.0823 4.47187 18.0656 4.47604 18.0491 4.48097L16.6676 4.83104C16.6508 4.83454 16.6341 4.83871 16.6176 4.84354L15.2986 5.29988C15.2902 5.3018 15.2819 5.30388 15.2736 5.30613L14.1359 5.74371C14.1233 5.74751 14.1108 5.75168 14.0984 5.75622L13.2732 6.12504C13.254 6.13454 13.2352 6.14496 13.217 6.15629L12.7106 6.44385C12.6751 6.46355 12.6417 6.48647 12.6106 6.51261L12.3543 6.7314C12.2977 6.77892 12.2519 6.83518 12.2168 6.90018L12.1355 7.06272C12.1202 7.09068 12.1077 7.11985 12.098 7.15023L12.0668 7.244C12.0613 7.26248 12.0572 7.28123 12.0543 7.30026L12.048 7.33777C12.0276 7.4748 12.0664 7.5923 12.1643 7.69026C12.2623 7.78823 12.3798 7.82701 12.5168 7.80661Z" fill="black"/>
<path d="M15.7863 5.83749L15.8301 5.84375C15.8383 5.84609 15.8467 5.84817 15.8551 5.85L15.9989 5.88125C16.0258 5.88567 16.0529 5.88775 16.0801 5.8875H16.4052C16.4324 5.8875 16.4595 5.88542 16.4865 5.88125L17.0116 5.80624C17.0136 5.80625 17.0157 5.80625 17.0178 5.80624L17.6992 5.69372C17.7013 5.69373 17.7034 5.69373 17.7054 5.69372L18.4931 5.55619C18.4973 5.55623 18.5014 5.55623 18.5056 5.55619L19.3495 5.39366C19.3579 5.39177 19.3662 5.38969 19.3745 5.38741L20.2809 5.16237C20.2957 5.15882 20.3103 5.15466 20.3247 5.14986L21.2936 4.8248C21.2978 4.82278 21.302 4.82069 21.3061 4.81855L22.3438 4.44348L23.3878 4.08091C23.3919 4.08097 23.3961 4.08097 23.4003 4.08091L24.3817 3.71209C24.3944 3.70857 24.4069 3.7044 24.4192 3.69959L25.2131 3.29951L25.857 3.08697C26.015 3.0326 26.0669 2.92638 26.0128 2.76831C25.9587 2.61024 25.8526 2.5581 25.6945 2.61188L25.0568 2.82442L24.1817 2.9807C24.1668 2.984 24.1522 2.98816 24.1379 2.9932L23.1377 3.29951L22.0813 3.62457L21.0311 3.90588L20.0496 4.12467L19.137 4.29345L18.2993 4.45598L17.5116 4.59351L16.8303 4.71853C16.824 4.7205 16.8177 4.72259 16.8115 4.72478L16.2989 4.8373C16.2756 4.84201 16.2527 4.84827 16.2302 4.85606L15.9238 4.96858C15.9024 4.97543 15.8816 4.98377 15.8613 4.99358L15.7301 5.0686C15.7259 5.07061 15.7217 5.0727 15.7176 5.07485L15.68 5.0936C15.5238 5.1857 15.4584 5.32155 15.4841 5.50113C15.5097 5.68072 15.6105 5.79284 15.7863 5.83749Z" fill="black"/>
<path d="M21.4561 4.46853L21.4874 4.48103C21.5038 4.48627 21.5204 4.49044 21.5374 4.49353L21.6624 4.51854C21.6976 4.52509 21.733 4.52718 21.7687 4.52479L22.0437 4.51228C22.0563 4.51074 22.0688 4.50865 22.0812 4.50603L22.5188 4.44352C22.5292 4.44389 22.5396 4.44389 22.5501 4.44352L23.1189 4.3185C23.1252 4.31863 23.1314 4.31863 23.1377 4.3185L23.8066 4.14972C23.8107 4.14978 23.8149 4.14978 23.8191 4.14972L24.5442 3.94343C24.5484 3.94349 24.5525 3.94349 24.5567 3.94343L25.2943 3.71213C25.3007 3.70812 25.3069 3.70396 25.3131 3.69963L26.0382 3.43708C26.0424 3.43506 26.0466 3.43298 26.0507 3.43083L26.7259 3.16203C26.7301 3.16001 26.7342 3.15793 26.7384 3.15578L27.3447 2.88698C27.351 2.88503 27.3573 2.88294 27.3635 2.88072L27.9386 2.59942C27.9407 2.59736 27.9428 2.59527 27.9448 2.59317L28.4699 2.31812C28.4741 2.3161 28.4783 2.31401 28.4824 2.31187L28.9325 2.06182C28.9432 2.05598 28.9536 2.04973 28.9638 2.04306L29.3076 1.81802C29.3275 1.80493 29.3463 1.79034 29.3639 1.77426L29.5827 1.57423L29.7452 1.4367C29.8175 1.37614 29.8591 1.29905 29.8702 1.20541L29.8827 1.11164C29.8203 1.15359 29.7849 1.21193 29.7764 1.28667L29.8515 1.23666C29.9887 1.14492 30.0116 1.03037 29.92 0.893004C29.8284 0.755635 29.7139 0.732662 29.5764 0.824083L29.5014 0.874092C29.5741 0.898152 29.6428 0.889817 29.7077 0.849088L29.6202 0.817832C29.5374 0.79237 29.4561 0.796537 29.3764 0.830334L29.1701 0.917851L28.895 1.03037C28.8801 1.03585 28.8655 1.0421 28.8513 1.04913L28.4887 1.24916C28.4866 1.24916 28.4845 1.24916 28.4824 1.24916L28.0386 1.49296L27.5198 1.76801L26.9634 2.05557L26.3758 2.33062L25.7194 2.60567L25.013 2.86822L24.3004 3.10577L23.594 3.29955L22.9376 3.45583L22.3813 3.56836L21.9562 3.63087C21.952 3.6308 21.9479 3.6308 21.9437 3.63087L21.6686 3.68088C21.6666 3.68088 21.6645 3.68088 21.6624 3.68088L21.5374 3.70588C21.5204 3.70897 21.5038 3.71314 21.4874 3.71838L21.4561 3.73089C21.2856 3.79472 21.2004 3.91766 21.2004 4.09971C21.2004 4.28175 21.2856 4.40469 21.4561 4.46853Z" fill="black"/>
<path d="M2.57103 30.5043L2.55228 30.5168C2.50485 30.5569 2.46734 30.6049 2.43976 30.6606L2.396 30.7481C2.37932 30.782 2.36682 30.8175 2.35849 30.8544L2.30223 31.0669C2.30218 31.0711 2.30218 31.0752 2.30223 31.0794L2.22722 31.4295L2.10845 31.9233L1.97092 32.5109L1.82089 33.0798L1.62711 33.5924L1.43332 34.0612L1.25203 34.4675L1.077 34.7989L0.920721 35.0989C0.918586 35.1031 0.916503 35.1072 0.91447 35.1114L0.795697 35.3552C0.791329 35.3634 0.787162 35.3718 0.783195 35.3802L0.70818 35.5552C0.706081 35.5573 0.703997 35.5594 0.701929 35.5615L0.658171 35.6803C0.651468 35.6925 0.645217 35.705 0.639417 35.7178L0.614412 35.7928C0.602341 35.8295 0.594006 35.867 0.589408 35.9053L0.583157 35.9491C0.568568 36.0652 0.587321 36.1756 0.639417 36.2804L0.65192 36.3054C0.701133 36.4024 0.77198 36.4795 0.86446 36.5367L0.883214 36.5492C0.965418 36.6011 1.05502 36.6302 1.15201 36.6367L1.18952 36.643H1.24578C1.30894 36.6485 1.37145 36.6443 1.43332 36.6305L1.55209 36.5992C1.6066 36.5872 1.65869 36.5684 1.70837 36.5429L1.91466 36.4304C1.93392 36.4209 1.95267 36.4105 1.97092 36.3992L2.27098 36.1991C2.2773 36.1951 2.28355 36.1909 2.28973 36.1866L2.69606 35.8991C2.69816 35.897 2.70024 35.8949 2.70231 35.8928L3.14614 35.5615C3.15463 35.5554 3.16296 35.5492 3.17115 35.5427L3.58998 35.1989C3.64391 35.1563 3.68975 35.1063 3.72751 35.0489L4.26511 34.205C4.33105 34.0942 4.32413 33.9882 4.24436 33.887C4.16459 33.7857 4.06315 33.7542 3.94005 33.7924L2.98986 34.0987C2.92699 34.1188 2.86865 34.148 2.81483 34.1862L2.37725 34.505L1.93341 34.8176L1.53334 35.0864C1.53125 35.0864 1.52917 35.0864 1.52709 35.0864L1.22703 35.2927C1.22071 35.2968 1.21446 35.3009 1.20828 35.3052L1.02074 35.4427C0.979346 35.4717 0.941839 35.505 0.908218 35.5427L0.833204 35.6303L0.795697 35.6678C0.952271 35.6584 1.08355 35.5959 1.18952 35.4802L1.15201 35.4865C1.26321 35.5631 1.38615 35.5965 1.52084 35.5865L1.50208 35.574C1.54594 35.6629 1.60845 35.7359 1.68962 35.7928L1.67711 35.7678C1.6579 35.8876 1.67457 36.0022 1.72712 36.1116L1.73963 36.0678C1.72867 36.0984 1.72034 36.1297 1.71462 36.1616L1.73338 36.1116L1.77088 36.0116L1.83965 35.8491L1.95217 35.6303L2.1022 35.3365C2.10221 35.3344 2.10221 35.3323 2.1022 35.3302L2.28348 34.9801C2.29019 34.9679 2.29644 34.9554 2.30223 34.9426L2.48352 34.5175C2.49023 34.5053 2.49648 34.4928 2.50227 34.48L2.67105 33.9799C2.67554 33.9697 2.6797 33.9592 2.68356 33.9487L2.83984 33.3861C2.84197 33.3819 2.84406 33.3778 2.84609 33.3736L2.99612 32.7672C2.99613 32.7651 2.99613 32.763 2.99612 32.761L3.13364 32.1608C3.13375 32.1546 3.13375 32.1483 3.13364 32.1421L3.23366 31.6357C3.23595 31.6275 3.23804 31.6191 3.23991 31.6107L3.28367 31.2544C3.2866 31.2379 3.28868 31.2212 3.28992 31.2044L3.30242 30.9856C3.30199 30.9626 3.29991 30.9396 3.29617 30.9169L3.28367 30.8168C3.27742 30.7595 3.26075 30.7053 3.23366 30.6543L3.22741 30.6356C3.1636 30.5145 3.06461 30.4406 2.93045 30.4138C2.79629 30.3869 2.67649 30.4171 2.57103 30.5043Z" fill="black"/>
<path d="M3.38369 35.2427L3.40244 35.2177L3.52746 35.0801C3.5685 35.0324 3.59768 34.9782 3.61498 34.9176L3.69 34.6926L3.87753 34.4738C3.98064 34.3301 3.96602 34.1997 3.83367 34.0825C3.70131 33.9653 3.57007 33.9665 3.43995 34.0862L3.24616 34.2987L3.02737 34.405C2.97766 34.4279 2.9339 34.4592 2.89609 34.4988L2.75857 34.6488C2.74243 34.6663 2.72784 34.6851 2.71481 34.7051L2.68355 34.7488C2.61547 34.8455 2.59151 34.9521 2.61168 35.0686C2.63185 35.1851 2.69025 35.2774 2.78687 35.3456C2.88349 35.4137 2.99006 35.4378 3.10658 35.4177C3.2231 35.3976 3.31547 35.3392 3.38369 35.2427Z" fill="black"/>
</g>
<defs>
<clipPath id="clip0_1_7254">
<rect width="31" height="37" fill="white"/>
</clipPath>
</defs>
</svg>
