<svg width="36" height="32" viewBox="0 0 36 32" fill="none" xmlns="http://www.w3.org/2000/svg">
<g clip-path="url(#clip0_1_7207)">
<path d="M2.24756 9.97825C2.24756 10.0887 2.28662 10.183 2.36474 10.2611C2.44286 10.3393 2.53716 10.3783 2.64763 10.3783C2.75811 10.3783 2.85241 10.3393 2.93053 10.2611C3.00865 10.183 3.04771 10.0887 3.04771 9.97825C3.04771 9.86777 3.00865 9.77347 2.93053 9.69535C2.85241 9.61723 2.75811 9.57817 2.64763 9.57817C2.53716 9.57817 2.44286 9.61723 2.36474 9.69535C2.28662 9.77347 2.24756 9.86777 2.24756 9.97825ZM2.16004 9.96575C2.1601 10.0969 2.20652 10.2088 2.29927 10.3015C2.39203 10.3942 2.50398 10.4406 2.63513 10.4406C2.76628 10.4406 2.87823 10.3942 2.97099 10.3015C3.06375 10.2088 3.11016 10.0969 3.11022 9.96575C3.11016 9.8346 3.06375 9.72267 2.97099 9.62996C2.87823 9.53724 2.76628 9.49089 2.63513 9.49089C2.50398 9.49089 2.39203 9.53724 2.29927 9.62996C2.20652 9.72267 2.1601 9.8346 2.16004 9.96575ZM2.04127 9.93449C2.04127 10.0881 2.09559 10.2193 2.20422 10.3279C2.31286 10.4365 2.44399 10.4908 2.59762 10.4908C2.75126 10.4908 2.88239 10.4365 2.99103 10.3279C3.09966 10.2193 3.15398 10.0881 3.15398 9.93449C3.15398 9.78086 3.09966 9.64972 2.99103 9.54109C2.88239 9.43245 2.75126 9.37813 2.59762 9.37813C2.44399 9.37813 2.31286 9.43245 2.20422 9.54109C2.09559 9.64972 2.04127 9.78086 2.04127 9.93449ZM3.15398 9.73445L3.14148 9.67194C3.09133 9.4584 2.96839 9.30212 2.77266 9.2031L2.71015 9.17184C2.52721 9.081 2.33778 9.06442 2.14185 9.12212C1.94592 9.17981 1.7957 9.29641 1.6912 9.4719L1.53492 9.7282C1.48371 9.81379 1.44829 9.90547 1.42865 10.0033L1.27237 10.7659C1.26516 10.8094 1.26099 10.8531 1.25987 10.8972L1.17235 12.3349C1.16984 12.3516 1.16776 12.3682 1.1661 12.385L1.1411 14.5291C1.14104 14.5354 1.14104 14.5416 1.1411 14.5479L1.15985 17.2296C1.16183 17.238 1.16391 17.2463 1.1661 17.2546L1.25987 20.1864C1.25986 20.1885 1.25986 20.1906 1.25987 20.1927L1.37239 23.062C1.37236 23.0662 1.37236 23.0703 1.37239 23.0745L1.51617 25.5875C1.51553 25.6062 1.51553 25.625 1.51617 25.6437L1.74746 27.5816C1.75329 27.6135 1.76162 27.6448 1.77247 27.6754L2.11628 28.8693L2.14754 29.6195C2.15587 29.7987 2.24964 29.8841 2.42884 29.8758C2.60804 29.8674 2.69348 29.7737 2.68514 29.5945L2.65388 28.8506L2.94769 27.6504C2.9537 27.6236 2.95787 27.5965 2.96019 27.5691L3.15398 25.625C3.15686 25.6042 3.15894 25.5834 3.16023 25.5625L3.21024 23.0432C3.21042 23.0328 3.21042 23.0224 3.21024 23.012L3.17273 20.1427L3.13523 17.2109L3.11647 14.5416L3.14148 12.41C3.14148 12.4079 3.14148 12.4058 3.14148 12.4037L3.15398 10.9597C3.154 10.9555 3.154 10.9513 3.15398 10.9472L3.14773 10.1658L3.14148 9.86573C3.11103 9.95275 3.09645 10.0423 3.09772 10.1345L3.11647 10.072C2.86852 10.1318 2.70182 10.2818 2.61638 10.5221L2.68514 10.5096C2.85743 10.468 2.98943 10.3714 3.08115 10.2198C3.17288 10.0681 3.19715 9.90634 3.15398 9.73445Z" fill="black"/>
<path d="M1.8037 10.1346C1.80374 10.2416 1.84159 10.3329 1.91727 10.4086C1.99294 10.4842 2.08428 10.522 2.19128 10.522C2.29828 10.522 2.38961 10.4842 2.46528 10.4086C2.54096 10.3329 2.57881 10.2416 2.57885 10.1346C2.57881 10.0276 2.54096 9.93626 2.46528 9.86061C2.38961 9.78497 2.29828 9.74714 2.19128 9.74714C2.08428 9.74714 1.99294 9.78497 1.91727 9.86061C1.84159 9.93626 1.80374 10.0276 1.8037 10.1346ZM2.59135 10.2596L2.61011 10.2221L2.65386 10.1721C2.65809 10.168 2.66226 10.1638 2.66637 10.1596L2.76639 10.0596C2.90642 9.91414 2.97516 9.7405 2.97262 9.53863C2.97007 9.33677 2.89698 9.16491 2.75333 9.02306C2.60968 8.88121 2.43692 8.81028 2.23503 8.81028C2.03315 8.81028 1.86039 8.88121 1.71674 9.02306C1.57309 9.16491 1.5 9.33677 1.49745 9.53863C1.49491 9.7405 1.56365 9.91414 1.70368 10.0596L1.75369 10.1158V10.1096L1.75994 10.1533C1.79551 10.3674 1.92091 10.4881 2.13613 10.5157C2.35135 10.5432 2.50309 10.4578 2.59135 10.2596ZM1.46614 9.07813L1.2786 9.39069C1.22443 9.48224 1.18692 9.58018 1.16608 9.6845L0.959792 10.6284C0.953921 10.6616 0.949753 10.6949 0.947289 10.7284L0.772256 12.3162C0.769651 12.3349 0.767567 12.3537 0.766005 12.3725L0.659735 14.5042C0.659575 14.5146 0.659575 14.525 0.659735 14.5354L0.609725 17.0171C0.609668 17.0234 0.609668 17.0296 0.609725 17.0359L0.603474 19.6364C0.603448 19.6406 0.603448 19.6447 0.603474 19.6489L0.628479 22.1494C0.628472 22.1515 0.628472 22.1535 0.628479 22.1556L0.678488 24.381C0.678431 24.3873 0.678431 24.3935 0.678488 24.3998L0.741 26.1814C0.740942 26.1876 0.740942 26.1939 0.741 26.2001L0.809763 27.4691C0.809757 27.4712 0.809757 27.4733 0.809763 27.4754L0.859773 28.2755C0.861197 28.2964 0.863281 28.3173 0.866024 28.338L0.916033 28.7444C0.935603 28.8911 0.985613 29.0265 1.06606 29.1507L1.13482 29.257C1.37632 29.6309 1.71355 29.7662 2.14652 29.6631C2.5795 29.5599 2.81946 29.287 2.8664 28.8444L2.87891 28.7194C2.88487 28.6569 2.88487 28.5943 2.87891 28.5318L2.84765 28.1443L2.81014 27.3754L2.76639 26.1126L2.71638 24.3373L2.67887 22.1244L2.65386 19.6301L2.66012 17.0421L2.69762 14.5854L2.79764 12.485L2.91641 10.9222L3.01018 9.97205C3.01311 9.94921 3.01519 9.92629 3.01643 9.90329L3.02268 9.54072C3.03041 9.34925 2.97853 9.17558 2.86707 9.0197C2.7556 8.86383 2.60802 8.7586 2.42433 8.70401C2.24065 8.64942 2.05955 8.65697 1.88105 8.72667C1.70254 8.79637 1.56424 8.91352 1.46614 9.07813ZM1.12232 28.7131C1.12232 28.9444 1.2041 29.1419 1.36767 29.3054C1.53123 29.469 1.72867 29.5508 1.95998 29.5508C2.1913 29.5508 2.38873 29.469 2.5523 29.3054C2.71586 29.1419 2.79764 28.9444 2.79764 28.7131C2.79764 28.4818 2.71586 28.2844 2.5523 28.1208C2.38873 27.9572 2.1913 27.8755 1.95998 27.8755C1.72867 27.8755 1.53123 27.9572 1.36767 28.1208C1.2041 28.2844 1.12232 28.4818 1.12232 28.7131ZM1.38487 28.5631C1.38487 28.7305 1.44407 28.8735 1.56247 28.9919C1.68087 29.1103 1.82379 29.1695 1.99124 29.1695C2.15868 29.1695 2.3016 29.1103 2.42 28.9919C2.5384 28.8735 2.5976 28.7305 2.5976 28.5631C2.5976 28.3956 2.5384 28.2527 2.42 28.1343C2.3016 28.0159 2.15868 27.9567 1.99124 27.9567C1.82379 27.9567 1.68087 28.0159 1.56247 28.1343C1.44407 28.2527 1.38487 28.3956 1.38487 28.5631ZM2.29755 28.3631L2.32255 28.138C2.34329 27.9506 2.25993 27.8464 2.07249 27.8256C1.88504 27.8048 1.78086 27.8881 1.75994 28.0755L1.73494 28.3005C1.7141 28.4881 1.79745 28.5923 1.98499 28.6131C2.17252 28.6339 2.27671 28.5506 2.29755 28.3631Z" fill="black"/>
<path d="M1.69113 29.1319C1.69113 29.2458 1.73141 29.3431 1.81197 29.4236C1.89253 29.5042 1.98978 29.5445 2.10371 29.5445C2.21764 29.5445 2.31489 29.5042 2.39545 29.4236C2.47601 29.3431 2.51629 29.2458 2.51629 29.1319C2.51629 29.018 2.47601 28.9207 2.39545 28.8402C2.31489 28.7596 2.21764 28.7193 2.10371 28.7193C1.98978 28.7193 1.89253 28.7596 1.81197 28.8402C1.73141 28.9207 1.69113 29.018 1.69113 29.1319ZM2.46003 28.8006L2.44753 28.7818C2.32595 28.6274 2.1669 28.5519 1.97039 28.5554C1.77388 28.5589 1.61761 28.64 1.50159 28.7986C1.38556 28.9572 1.35565 29.1307 1.41187 29.3191C1.46809 29.5074 1.5882 29.6361 1.7722 29.7052C1.9562 29.7742 2.13133 29.7564 2.2976 29.6516C2.46386 29.5468 2.55551 29.3965 2.57255 29.2007V29.1757C2.58393 29.036 2.54643 28.9109 2.46003 28.8006ZM2.10371 28.5193L2.04745 28.5005C1.86944 28.4463 1.69441 28.4547 1.52235 28.5255L1.42233 28.563C1.29041 28.6179 1.17997 28.7013 1.09102 28.8131L0.997249 28.9256C0.922738 29.0146 0.868561 29.1146 0.834718 29.2257L0.79096 29.3757C0.738099 29.5583 0.742267 29.7396 0.803462 29.9195L0.878476 30.1383C0.939761 30.3219 1.04603 30.474 1.19729 30.5947L1.5286 30.8572C1.62654 30.9349 1.73489 30.9933 1.85366 31.0323L2.5663 31.2698C2.63549 31.2935 2.70634 31.3102 2.77884 31.3198L3.93531 31.4636C3.97687 31.468 4.01854 31.47 4.06033 31.4698L5.69814 31.5011C5.7169 31.5015 5.73565 31.5015 5.7544 31.5011L7.80479 31.4323C7.81105 31.4324 7.8173 31.4324 7.82355 31.4323L10.2053 31.3261L12.8245 31.2198L15.525 31.1323L18.1818 31.0823L20.7135 31.076L23.0327 31.1073L25.1081 31.1573L26.9084 31.2198C26.923 31.2201 26.9376 31.2201 26.9522 31.2198H28.5275C28.5504 31.2204 28.5733 31.2204 28.5963 31.2198L29.959 31.1448C29.9715 31.145 29.984 31.145 29.9965 31.1448L31.1217 31.0448C31.1405 31.0431 31.1593 31.041 31.178 31.0385L32.0469 30.926C32.0573 30.9261 32.0677 30.9261 32.0782 30.926L32.7345 30.8197C32.7366 30.8197 32.7387 30.8197 32.7408 30.8197L33.2409 30.7385C33.2492 30.7385 33.2576 30.7385 33.2659 30.7385L33.616 30.6759C33.6222 30.6739 33.6285 30.6718 33.6347 30.6697L33.866 30.6259C33.9656 30.6062 34.0615 30.575 34.1536 30.5322L34.2661 30.4759C34.5391 30.3418 34.7363 30.1353 34.8579 29.8565C34.9794 29.5777 34.9964 29.2926 34.9089 29.0014C34.8214 28.7101 34.65 28.4816 34.3949 28.316C34.1398 28.1504 33.8614 28.0869 33.5597 28.1255L33.4347 28.1442C33.4011 28.1491 33.3677 28.1554 33.3347 28.163L33.1409 28.2067L32.8283 28.263L32.347 28.3442L31.7093 28.438L30.8717 28.5505L29.7965 28.6568L28.49 28.7193L26.9647 28.7318L25.1831 28.6818C25.1789 28.6818 25.1748 28.6818 25.1706 28.6818L23.0827 28.6318C23.0785 28.6318 23.0744 28.6318 23.0702 28.6318L20.7323 28.613C20.7239 28.613 20.7156 28.613 20.7073 28.613L18.1568 28.6443C18.1505 28.6442 18.1443 28.6442 18.138 28.6443L15.4625 28.7068C15.4583 28.7068 15.4542 28.7068 15.45 28.7068L12.737 28.7943C12.7328 28.7943 12.7286 28.7943 12.7245 28.7943L10.099 28.9131C10.0969 28.9131 10.0948 28.9131 10.0927 28.9131L7.70478 29.0444L5.67314 29.1507L4.10409 29.1819L3.04764 29.1194L2.44753 29.0069L2.25374 28.9444L2.18498 28.8944C2.2442 29.0944 2.3588 29.2548 2.52879 29.3757L2.48503 29.2257C2.41804 29.4049 2.41179 29.5861 2.46628 29.7695L2.51629 29.6257C2.52067 29.6154 2.52483 29.605 2.52879 29.5945L2.56005 29.4882C2.58835 29.4008 2.60085 29.3112 2.59755 29.2194V29.1632C2.58555 28.8315 2.42094 28.6169 2.10371 28.5193ZM32.6783 29.3194C32.6783 29.6215 32.7851 29.8794 32.9987 30.093C33.2123 30.3066 33.4701 30.4134 33.7722 30.4134C34.0743 30.4134 34.3322 30.3066 34.5458 30.093C34.7594 29.8794 34.8662 29.6215 34.8662 29.3194C34.8662 29.0173 34.7594 28.7595 34.5458 28.5459C34.3322 28.3323 34.0743 28.2255 33.7722 28.2255C33.4701 28.2255 33.2123 28.3323 32.9987 28.5459C32.7851 28.7595 32.6783 29.0173 32.6783 29.3194ZM33.1534 29.3007C33.1534 29.456 33.2083 29.5886 33.3182 29.6985C33.428 29.8084 33.5606 29.8633 33.716 29.8633C33.8713 29.8633 34.0039 29.8084 34.1138 29.6985C34.2237 29.5886 34.2786 29.456 34.2786 29.3007C34.2786 29.1453 34.2237 29.0127 34.1138 28.9029C34.0039 28.793 33.8713 28.7381 33.716 28.7381C33.5606 28.7381 33.428 28.793 33.3182 28.9029C33.2083 29.0127 33.1534 29.1453 33.1534 29.3007ZM33.6722 28.9881L33.5847 28.9756C33.3849 28.9467 33.2704 29.0322 33.2412 29.232C33.2121 29.4318 33.2974 29.5464 33.4972 29.5757L33.5847 29.5882C33.7847 29.6173 33.8993 29.5319 33.9284 29.3319C33.9576 29.132 33.8722 29.0174 33.6722 28.9881Z" fill="black"/>
<path d="M34.9288 9.73445C34.9288 9.83975 34.966 9.92963 35.0405 10.0041C35.1149 10.0785 35.2048 10.1158 35.3101 10.1158C35.4154 10.1158 35.5053 10.0785 35.5797 10.0041C35.6542 9.92963 35.6914 9.83975 35.6914 9.73445C35.6914 9.62915 35.6542 9.53928 35.5797 9.46482C35.5053 9.39036 35.4154 9.35313 35.3101 9.35313C35.2048 9.35313 35.1149 9.39036 35.0405 9.46482C34.966 9.53928 34.9288 9.62915 34.9288 9.73445ZM34.835 9.73445C34.835 9.86219 34.8802 9.97123 34.9705 10.0616C35.0608 10.1519 35.1699 10.197 35.2976 10.197C35.4253 10.197 35.5344 10.1519 35.6247 10.0616C35.715 9.97123 35.7602 9.86219 35.7602 9.73445C35.7602 9.60671 35.715 9.49768 35.6247 9.40735C35.5344 9.31703 35.4253 9.27187 35.2976 9.27187C35.1699 9.27187 35.0608 9.31703 34.9705 9.40735C34.8802 9.49768 34.835 9.60671 34.835 9.73445ZM34.735 9.7407C34.735 9.89261 34.7887 10.0223 34.8961 10.1297C35.0035 10.2371 35.1332 10.2908 35.2851 10.2908C35.437 10.2908 35.5667 10.2371 35.6741 10.1297C35.7815 10.0223 35.8352 9.89261 35.8352 9.7407C35.8352 9.5888 35.7815 9.45914 35.6741 9.35172C35.5667 9.24431 35.437 9.1906 35.2851 9.1906C35.1332 9.1906 35.0035 9.24431 34.8961 9.35172C34.7887 9.45914 34.735 9.5888 34.735 9.7407ZM34.5975 9.76571C34.5975 9.94869 34.6621 10.1049 34.7915 10.2343C34.9209 10.3636 35.0771 10.4283 35.2601 10.4283C35.4431 10.4283 35.5992 10.3636 35.7286 10.2343C35.858 10.1049 35.9227 9.94869 35.9227 9.76571C35.9227 9.58273 35.858 9.42655 35.7286 9.29716C35.5992 9.16778 35.4431 9.10308 35.2601 9.10308C35.0771 9.10308 34.9209 9.16778 34.7915 9.29716C34.6621 9.42655 34.5975 9.58273 34.5975 9.76571ZM35.0288 9.08433L34.9413 9.10308C34.803 9.13818 34.6821 9.20486 34.5787 9.30312L34.4412 9.4344C34.3843 9.49237 34.3364 9.55697 34.2974 9.62818L34.1099 9.94699C34.0829 9.993 34.06 10.0409 34.0411 10.0908L33.8161 10.6784C33.8011 10.7172 33.7886 10.7568 33.7786 10.7972L33.5535 11.6973C33.5463 11.7221 33.5401 11.7471 33.5348 11.7723L33.3285 12.9663C33.3258 12.9871 33.3237 13.0079 33.3222 13.0288L33.1597 14.4479C33.1572 14.4645 33.1551 14.4811 33.1534 14.4979L33.0409 16.0669C33.0408 16.0773 33.0408 16.0877 33.0409 16.0982L32.9659 17.7047C32.9657 17.7172 32.9657 17.7297 32.9659 17.7422L32.9471 19.3425C32.9471 19.3467 32.9471 19.3509 32.9471 19.355V20.8991C32.9471 20.9032 32.9471 20.9074 32.9471 20.9116L32.9659 22.3494C32.9658 22.3556 32.9658 22.3619 32.9659 22.3681L32.9972 23.6621C32.9992 23.6663 33.0013 23.6705 33.0034 23.6746L33.0409 24.7686C33.0408 24.7748 33.0408 24.7811 33.0409 24.7873L33.0847 25.6625C33.0867 25.6646 33.0888 25.6667 33.0909 25.6687L33.1284 26.3564C33.1284 26.3605 33.1284 26.3647 33.1284 26.3689L33.1659 26.9065C33.168 26.9127 33.17 26.919 33.1722 26.9252L33.2034 27.3128L33.2347 27.7566L33.2409 27.8817V27.9817C33.2409 27.9838 33.2409 27.9858 33.2409 27.9879L33.2472 28.0817V28.138V28.1192L33.2409 28.1442C33.2365 28.1587 33.2323 28.1733 33.2284 28.188L33.2034 28.3067L33.1722 28.4255C33.1636 28.4668 33.1573 28.5085 33.1534 28.5505L33.1409 28.6318C33.1086 28.8831 33.1574 29.1176 33.2871 29.3353C33.4168 29.553 33.5999 29.7074 33.8364 29.7986C34.0728 29.8897 34.3121 29.8982 34.5544 29.824C34.7967 29.7497 34.9903 29.6086 35.1351 29.4007L35.1851 29.3319C35.2077 29.2997 35.2285 29.2663 35.2476 29.2319L35.3038 29.1256C35.3462 29.0503 35.3795 28.9711 35.4039 28.8881L35.4414 28.7693C35.4458 28.7548 35.45 28.7402 35.4539 28.7256L35.4789 28.6005C35.49 28.5552 35.4984 28.5094 35.5039 28.463L35.5226 28.3442C35.5233 28.3213 35.5233 28.2984 35.5226 28.2755L35.5351 28.138C35.5374 28.0963 35.5374 28.0546 35.5351 28.0129L35.5289 27.9317V27.8629C35.5297 27.8379 35.5297 27.8129 35.5289 27.7879V27.6504C35.5289 27.6462 35.5289 27.642 35.5289 27.6379L35.5039 27.1753L35.4914 26.7814C35.4916 26.7689 35.4916 26.7564 35.4914 26.7439L35.4539 26.2063L35.4101 25.5375L35.3664 24.6748L35.3163 23.5871L35.2788 22.3056L35.2476 20.8866V19.3613L35.2663 17.7797L35.3163 16.1982L35.4039 14.6541L35.5164 13.2539L35.6414 12.0912L35.7727 11.1972L35.8727 10.5721C35.8727 10.57 35.8727 10.5679 35.8727 10.5659L35.9227 10.2158L35.954 10.0408C35.9617 9.99734 35.9658 9.95358 35.9665 9.90949V9.82197C35.9682 9.70497 35.944 9.59366 35.8936 9.48802C35.8433 9.38239 35.7722 9.2934 35.6802 9.22105C35.5882 9.14871 35.485 9.10052 35.3705 9.07648C35.256 9.05245 35.1421 9.05506 35.0288 9.08433ZM33.1659 28.7568C33.1659 29.0434 33.2672 29.288 33.4699 29.4906C33.6725 29.6932 33.9171 29.7945 34.2036 29.7945C34.4902 29.7945 34.7348 29.6932 34.9374 29.4906C35.14 29.288 35.2413 29.0434 35.2413 28.7568C35.2413 28.4703 35.14 28.2257 34.9374 28.0231C34.7348 27.8204 34.4902 27.7191 34.2036 27.7191C33.9171 27.7191 33.6725 27.8204 33.4699 28.0231C33.2672 28.2257 33.1659 28.4703 33.1659 28.7568ZM33.441 28.6318C33.441 28.8355 33.513 29.0094 33.657 29.1534C33.8011 29.2974 33.9749 29.3694 34.1786 29.3694C34.3823 29.3694 34.5562 29.2974 34.7002 29.1534C34.8443 29.0094 34.9163 28.8355 34.9163 28.6318C34.9163 28.4281 34.8443 28.2542 34.7002 28.1102C34.5562 27.9662 34.3823 27.8942 34.1786 27.8942C33.9749 27.8942 33.8011 27.9662 33.657 28.1102C33.513 28.2542 33.441 28.4281 33.441 28.6318ZM34.4099 28.413L34.4224 28.1692C34.4301 28.0156 34.3572 27.9346 34.2036 27.9263C34.05 27.918 33.9687 27.9906 33.9598 28.1442L33.9473 28.388C33.939 28.5422 34.0119 28.6235 34.1661 28.6318C34.3203 28.6401 34.4016 28.5672 34.4099 28.413Z" fill="black"/>
<path d="M1.39732 9.82201C1.39732 9.93939 1.43882 10.0396 1.52182 10.1226C1.60483 10.2056 1.70502 10.2471 1.8224 10.2471C1.93978 10.2471 2.03998 10.2056 2.12298 10.1226C2.20598 10.0396 2.24748 9.93939 2.24748 9.82201C2.24748 9.70462 2.20598 9.60443 2.12298 9.52143C2.03998 9.43843 1.93978 9.39693 1.8224 9.39693C1.70502 9.39693 1.60483 9.43843 1.52182 9.52143C1.43882 9.60443 1.39732 9.70462 1.39732 9.82201ZM1.32231 9.82826C1.32231 9.96118 1.3693 10.0746 1.46329 10.1686C1.55728 10.2626 1.67073 10.3096 1.80365 10.3096C1.93657 10.3096 2.05002 10.2626 2.14401 10.1686C2.238 10.0746 2.28499 9.96118 2.28499 9.82826C2.28499 9.69534 2.238 9.58189 2.14401 9.4879C2.05002 9.39391 1.93657 9.34692 1.80365 9.34692C1.67073 9.34692 1.55728 9.39391 1.46329 9.4879C1.3693 9.58189 1.32231 9.69534 1.32231 9.82826ZM2.12246 9.37817H2.11621C2.0068 9.2964 1.88386 9.25264 1.74739 9.2469L1.69113 9.24065C1.60384 9.23588 1.51841 9.2463 1.43483 9.2719L1.37857 9.29066C1.06367 9.38972 0.880301 9.60226 0.828462 9.92828L0.822211 9.98454C0.757228 10.383 0.903089 10.6768 1.25979 10.866L1.42858 10.9535C1.52667 11.0059 1.63086 11.0392 1.74114 11.0535L2.11621 11.0973C2.14736 11.1009 2.17862 11.103 2.20998 11.1035L2.79759 11.1098C2.83509 11.1118 2.8726 11.1118 2.91011 11.1098L3.70401 11.0347C3.71237 11.0328 3.72071 11.0307 3.72901 11.0285L4.6792 10.916C4.68336 10.916 4.68753 10.916 4.6917 10.916L5.77315 10.7659L6.96088 10.6347L8.25488 10.5159L9.6739 10.4159L11.2179 10.3284L12.862 10.2471L14.5436 10.1783L16.2752 10.1346L18.0317 10.1096L19.7821 10.1158L21.4761 10.1533L23.0264 10.2283L24.4267 10.3346L25.727 10.4471C25.7311 10.4472 25.7353 10.4472 25.7395 10.4471L26.9584 10.5471C26.9626 10.5472 26.9668 10.5472 26.9709 10.5471L28.0774 10.6222C28.0795 10.6222 28.0816 10.6222 28.0837 10.6222L29.0276 10.6784L29.8277 10.7222C29.834 10.7243 29.8402 10.7264 29.8465 10.7284L30.5466 10.7597C30.5529 10.7597 30.5591 10.7597 30.5654 10.7597L31.1842 10.7722C31.1967 10.7724 31.2092 10.7724 31.2217 10.7722H31.7406C31.7427 10.7722 31.7448 10.7722 31.7468 10.7722L32.1532 10.7659C32.1657 10.7661 32.1782 10.7661 32.1907 10.7659L32.4782 10.7534L32.6845 10.7472C32.6991 10.7475 32.7137 10.7475 32.7283 10.7472L32.9158 10.7347L33.0846 10.7284L33.2659 10.7347C33.268 10.7368 33.27 10.7389 33.2721 10.7409L33.4597 10.7472L33.591 10.7597L33.616 10.7659L33.5284 10.7347L33.5034 10.7159L33.5534 10.7534L33.6035 10.7972C33.8454 11.0155 34.1288 11.1113 34.4536 11.0847L34.5036 11.0785C34.7427 11.059 34.9515 10.9692 35.1301 10.8092C35.3088 10.6491 35.4208 10.4513 35.4663 10.2158L35.4726 10.1658C35.5569 9.72517 35.4257 9.3626 35.0787 9.07812L34.9912 9.0031C34.9871 8.9989 34.9829 8.99473 34.9787 8.9906L34.8662 8.90308C34.8499 8.89012 34.8332 8.87762 34.8162 8.86558L34.6974 8.78431C34.6068 8.71995 34.5089 8.66994 34.4036 8.63428L34.2598 8.58427C34.1986 8.56435 34.136 8.54976 34.0723 8.54051L33.9098 8.51551C33.887 8.51063 33.864 8.50647 33.841 8.50301L33.6472 8.48425C33.6368 8.48411 33.6264 8.48411 33.616 8.48425L33.3972 8.47175C33.3743 8.46897 33.3514 8.46689 33.3284 8.4655H33.0971C33.0909 8.46545 33.0846 8.46545 33.0784 8.4655L32.8471 8.47175C32.8262 8.47118 32.8054 8.47118 32.7845 8.47175L32.6033 8.48425L32.4032 8.4905C32.4011 8.4905 32.3991 8.4905 32.397 8.4905L32.1094 8.50301L31.7281 8.50926H31.228L30.6279 8.49676L29.959 8.4655L29.1714 8.41549C29.1693 8.41548 29.1672 8.41548 29.1651 8.41549L28.2274 8.35923L27.1335 8.28422L25.9207 8.1842L24.6142 8.07167C24.6101 8.07165 24.6059 8.07165 24.6017 8.07167L23.1765 7.9654C23.1681 7.96531 23.1598 7.96531 23.1515 7.9654L21.5699 7.89039C21.5595 7.89025 21.5491 7.89025 21.5387 7.89039L19.8258 7.85288C19.8217 7.85286 19.8175 7.85286 19.8133 7.85288L18.038 7.83413C18.0297 7.83404 18.0213 7.83404 18.013 7.83413L16.2376 7.85913C16.2314 7.85908 16.2251 7.85908 16.2189 7.85913L14.4748 7.90289C14.4685 7.90492 14.4623 7.90701 14.4561 7.90914L12.762 7.98416C12.7578 7.98413 12.7537 7.98413 12.7495 7.98416L11.0992 8.07793C11.0929 8.07788 11.0867 8.07788 11.0804 8.07793L9.52387 8.19045C9.52178 8.19044 9.5197 8.19044 9.51762 8.19045L8.07984 8.30297C8.07359 8.30292 8.06734 8.30292 8.06109 8.30297L6.74209 8.43424C6.73167 8.4341 6.72125 8.4341 6.71083 8.43424L5.4981 8.59052C5.48556 8.59239 5.47306 8.59447 5.46059 8.59677L4.37289 8.77181C4.36662 8.77383 4.36037 8.77592 4.35413 8.77806L3.41646 8.94684L2.63506 9.08437C2.6246 9.08629 2.61419 9.08837 2.6038 9.09062L2.07245 9.20314L1.74114 9.24065C1.72645 9.24445 1.71186 9.24862 1.69738 9.25315L1.50359 9.28441C1.64257 9.33181 1.78426 9.34222 1.92867 9.31566L1.87866 9.29691C1.96359 9.53705 2.12612 9.69958 2.36626 9.7845L2.3475 9.72824C2.35515 9.77743 2.36765 9.82536 2.38501 9.87202L2.37251 9.81576C2.3527 9.6763 2.29435 9.55544 2.19747 9.45319L2.19122 9.44694C2.1702 9.42211 2.14728 9.39919 2.12246 9.37817ZM34.1348 9.90952L34.1223 9.93453C34.0528 10.1235 34.1081 10.2629 34.2882 10.3529C34.4682 10.443 34.613 10.4035 34.7224 10.2346L34.7349 10.2096C34.8044 10.0207 34.7491 9.88119 34.569 9.79117C34.389 9.70116 34.2443 9.74061 34.1348 9.90952Z" fill="black"/>
<path d="M10.9616 8.353C10.9616 8.45312 10.997 8.53857 11.0678 8.60937C11.1386 8.68017 11.2241 8.71556 11.3242 8.71556C11.4243 8.71556 11.5098 8.68017 11.5806 8.60937C11.6514 8.53857 11.6868 8.45312 11.6868 8.353C11.6868 8.25288 11.6514 8.16742 11.5806 8.09662C11.5098 8.02582 11.4243 7.99043 11.3242 7.99043C11.2241 7.99043 11.1386 8.02582 11.0678 8.09662C10.997 8.16742 10.9616 8.25288 10.9616 8.353ZM10.6678 8.353C10.6678 8.51181 10.724 8.64736 10.8363 8.75966C10.9486 8.87196 11.0841 8.92811 11.2429 8.92811C11.4018 8.92811 11.5373 8.87196 11.6496 8.75966C11.7619 8.64736 11.8181 8.51181 11.8181 8.353C11.8181 8.19418 11.7619 8.05863 11.6496 7.94633C11.5373 7.83403 11.4018 7.77789 11.2429 7.77789C11.0841 7.77789 10.9486 7.83403 10.8363 7.94633C10.724 8.05863 10.6678 8.19418 10.6678 8.353ZM11.8306 8.353V8.29674C11.8227 8.33804 11.8186 8.37972 11.8181 8.42176L11.8431 8.30924L11.8681 8.18421L11.9493 7.97167L12.1181 7.62161L12.4182 7.16527L12.8808 6.57766L13.4934 5.90878L14.2435 5.20865L15.0999 4.56477L16.0626 4.00842L17.1691 3.55208L18.3568 3.21452L19.5508 3.03948L20.6947 3.01448L21.7137 3.13325L22.4826 3.32704L22.9452 3.60209L23.239 3.94591L23.4578 4.47101L23.6141 5.09613L23.6828 5.70249L23.7078 6.27135L23.7141 6.75269C23.716 6.76314 23.7181 6.77356 23.7203 6.78395L23.7391 7.16527C23.7408 7.20512 23.745 7.24471 23.7516 7.28404L23.8016 7.55909C23.8046 7.58429 23.8088 7.6093 23.8141 7.63411L23.8641 7.81539C23.8927 7.92001 23.9431 8.01281 24.0152 8.0938C24.0874 8.17479 24.1737 8.23553 24.2743 8.27603C24.375 8.31652 24.4793 8.33254 24.5875 8.32409C24.6956 8.31564 24.7962 8.2836 24.8893 8.22797L25.0518 8.12795C25.1194 8.08658 25.1798 8.03657 25.2331 7.97792L25.4206 7.77164C25.4895 7.69908 25.5458 7.61782 25.5894 7.52784L25.752 7.17777C25.7953 7.08406 25.8245 6.98613 25.8395 6.88397L25.9082 6.39637C25.9164 6.3425 25.9206 6.28833 25.9207 6.23384L25.927 5.61497C25.9272 5.57318 25.9251 5.53151 25.9207 5.48995L25.8332 4.77106C25.8296 4.72694 25.8233 4.68318 25.8145 4.63979L25.6269 3.85839C25.6107 3.7874 25.5878 3.71864 25.5582 3.6521L25.2206 2.90196C25.1758 2.80168 25.1174 2.71 25.0456 2.62691L24.5142 2.01429C24.4285 1.91538 24.3285 1.83411 24.2142 1.77049L23.439 1.33916C23.3581 1.29288 23.2727 1.25745 23.1827 1.23289L22.1888 0.976592C22.1352 0.964196 22.0811 0.955861 22.0262 0.951587L20.8573 0.832814C20.8136 0.828098 20.7699 0.826014 20.726 0.826563L19.4383 0.851568C19.3901 0.852567 19.3421 0.856734 19.2945 0.86407L17.963 1.06411C17.9186 1.07182 17.8748 1.08224 17.8317 1.09536L16.519 1.46418C16.4764 1.47624 16.4347 1.49083 16.3939 1.50794L15.1624 2.02054C15.115 2.04023 15.0691 2.06315 15.0249 2.0893L13.9497 2.72692C13.9106 2.74958 13.8731 2.77459 13.8372 2.80194L12.8933 3.53333C12.8604 3.55861 12.8292 3.5857 12.7995 3.61459L11.9931 4.39599C11.969 4.4199 11.946 4.4449 11.9243 4.47101L11.2867 5.22115C11.255 5.25667 11.2258 5.29418 11.1992 5.33367L10.7491 6.0338C10.7256 6.072 10.7048 6.11159 10.6866 6.15258L10.4115 6.74019C10.3886 6.78863 10.3699 6.83864 10.3553 6.89022L10.224 7.35906C10.201 7.43659 10.1885 7.51577 10.1865 7.5966V7.92791C10.1843 8.0447 10.2051 8.15722 10.249 8.26548L10.324 8.45301C10.3792 8.58682 10.4647 8.69726 10.5803 8.78433L10.6741 8.85934C10.8516 8.99551 11.0496 9.03927 11.268 8.99062L11.318 8.97811C11.6542 8.90538 11.8251 8.697 11.8306 8.353ZM24.0016 7.76538C24.0016 7.89485 24.0474 8.00536 24.1389 8.0969C24.2305 8.18845 24.341 8.23422 24.4705 8.23422C24.5999 8.23422 24.7104 8.18845 24.802 8.0969C24.8935 8.00536 24.9393 7.89485 24.9393 7.76538C24.9393 7.63592 24.8935 7.52541 24.802 7.43386C24.7104 7.34232 24.5999 7.29654 24.4705 7.29654C24.341 7.29654 24.2305 7.34232 24.1389 7.43386C24.0474 7.52541 24.0016 7.63592 24.0016 7.76538ZM24.2454 7.60285L24.2142 7.62786C24.06 7.74871 24.0433 7.88624 24.1642 8.04044C24.285 8.19463 24.4225 8.2113 24.5767 8.09045L24.608 8.06544C24.7616 7.94452 24.7781 7.80711 24.6575 7.65323C24.5369 7.49934 24.3996 7.48255 24.2454 7.60285Z" fill="black"/>
<path d="M1.85996 14.4166C1.85996 14.5167 1.89536 14.6022 1.96615 14.673C2.03695 14.7438 2.12241 14.7792 2.22253 14.7792C2.32265 14.7792 2.40811 14.7438 2.4789 14.673C2.5497 14.6022 2.5851 14.5167 2.5851 14.4166C2.5851 14.3165 2.5497 14.231 2.4789 14.1602C2.40811 14.0894 2.32265 14.054 2.22253 14.054C2.12241 14.054 2.03695 14.0894 1.96615 14.1602C1.89536 14.231 1.85996 14.3165 1.85996 14.4166ZM1.80995 14.4166C1.80995 14.5305 1.85023 14.6278 1.93079 14.7084C2.01135 14.7889 2.1086 14.8292 2.22253 14.8292C2.33646 14.8292 2.43371 14.7889 2.51427 14.7084C2.59483 14.6278 2.63511 14.5305 2.63511 14.4166C2.63511 14.3027 2.59483 14.2054 2.51427 14.1249C2.43371 14.0443 2.33646 14.004 2.22253 14.004C2.1086 14.004 2.01135 14.0443 1.93079 14.1249C1.85023 14.2054 1.80995 14.3027 1.80995 14.4166ZM1.74119 14.3854C1.74119 14.5131 1.78635 14.6221 1.87668 14.7125C1.967 14.8028 2.07604 14.8479 2.20378 14.8479C2.33152 14.8479 2.44055 14.8028 2.53087 14.7125C2.6212 14.6221 2.66636 14.5131 2.66636 14.3854C2.66636 14.2576 2.6212 14.1486 2.53087 14.0583C2.44055 13.9679 2.33152 13.9228 2.20378 13.9228C2.07604 13.9228 1.967 13.9679 1.87668 14.0583C1.78635 14.1486 1.74119 14.2576 1.74119 14.3854ZM1.63492 14.3479C1.63492 14.4946 1.68679 14.6198 1.79055 14.7236C1.8943 14.8273 2.01954 14.8792 2.16627 14.8792C2.313 14.8792 2.43824 14.8273 2.54199 14.7236C2.64574 14.6198 2.69762 14.4946 2.69762 14.3479C2.69762 14.2011 2.64574 14.0759 2.54199 13.9721C2.43824 13.8684 2.313 13.8165 2.16627 13.8165C2.01954 13.8165 1.8943 13.8684 1.79055 13.9721C1.68679 14.0759 1.63492 14.2011 1.63492 14.3479ZM1.42863 14.3103V14.3541C1.42408 14.6015 1.51576 14.8057 1.70368 14.9667L1.89747 15.1418C1.93099 15.1695 1.96641 15.1945 2.00374 15.2168L2.47883 15.5168C2.48298 15.5189 2.48715 15.521 2.49133 15.5231L3.30399 16.0169C3.31635 16.0235 3.32885 16.0297 3.34149 16.0357L4.52297 16.6733C4.53739 16.6799 4.55198 16.6862 4.56673 16.692L6.14203 17.4297C6.16452 17.441 6.18745 17.4515 6.21079 17.4609L8.16116 18.1923C8.17765 18.1991 8.19432 18.2053 8.21117 18.2111L10.4428 18.8987C10.4511 18.903 10.4595 18.9072 10.4678 18.9112L12.7995 19.5426C12.812 19.547 12.8245 19.5512 12.8371 19.5551L15.1312 20.0677C15.1581 20.0733 15.1852 20.0774 15.2125 20.0802L17.3379 20.3365C17.3421 20.3366 17.3462 20.3366 17.3504 20.3365L19.0945 20.5053L20.3385 20.8053C20.4826 20.813 20.5722 20.7469 20.6072 20.6068C20.6422 20.4668 20.5943 20.3663 20.4635 20.3052L19.2195 19.9989L17.5942 19.3488C17.5921 19.3488 17.59 19.3488 17.588 19.3488L15.6001 18.5549C15.5816 18.5458 15.5629 18.5375 15.5438 18.5299L13.2934 17.836C13.2913 17.836 13.2892 17.836 13.2871 17.836L10.9804 17.1484L8.79253 16.4483L6.90467 15.7294L5.38563 15.0105L4.22291 14.3916C4.22083 14.3916 4.21874 14.3916 4.21666 14.3916L3.37275 13.954C3.35428 13.9451 3.33553 13.9367 3.31649 13.929L2.79764 13.704C2.74132 13.6789 2.68297 13.6602 2.62261 13.6477L2.36631 13.5977C2.19185 13.5642 2.02516 13.5872 1.86621 13.6665L1.8287 13.6852C1.56976 13.8132 1.4364 14.0216 1.42863 14.3103Z" fill="black"/>
<path d="M19.0132 20.5553C19.0132 20.6468 19.0455 20.7249 19.1102 20.7896C19.1749 20.8543 19.253 20.8866 19.3445 20.8866C19.436 20.8866 19.514 20.8543 19.5787 20.7896C19.6434 20.7249 19.6758 20.6468 19.6758 20.5553C19.6758 20.4638 19.6434 20.3857 19.5787 20.321C19.514 20.2563 19.436 20.224 19.3445 20.224C19.253 20.224 19.1749 20.2563 19.1102 20.321C19.0455 20.3857 19.0132 20.4638 19.0132 20.5553ZM19.1569 20.224L19.1069 20.2427L19.0757 20.2552L19.0444 20.2615C19.1328 20.3315 19.2328 20.3586 19.3445 20.3428L19.2882 20.299C19.315 20.348 19.3505 20.3896 19.3945 20.424L19.3632 20.3678C19.3632 20.4386 19.3799 20.5053 19.4132 20.5678V20.5053C19.3745 20.5753 19.3557 20.6503 19.357 20.7303L19.3757 20.6928C19.4394 20.5844 19.4583 20.4687 19.4325 20.3456C19.4067 20.2226 19.3428 20.1242 19.2409 20.0506C19.139 19.977 19.0256 19.9472 18.9006 19.9613C18.7757 19.9754 18.6718 20.0297 18.5888 20.1242C18.5059 20.2187 18.4656 20.3288 18.4678 20.4546C18.4701 20.5803 18.5143 20.6889 18.6006 20.7803L18.6318 20.8116C18.6318 20.8137 18.6318 20.8158 18.6318 20.8178L18.6756 20.8616C18.7086 20.8949 18.7461 20.922 18.7881 20.9429L18.8444 20.9741C18.8721 20.9901 18.9012 21.0026 18.9319 21.0116L19.0007 21.0304C19.0585 21.0458 19.1169 21.0479 19.1757 21.0366L19.2507 21.0179C19.2742 21.0137 19.2971 21.0075 19.3195 20.9991L19.4007 20.9679C19.4157 20.9625 19.4303 20.9563 19.4445 20.9491L19.5007 20.9179C19.5915 20.8678 19.6524 20.7932 19.6834 20.6943C19.7144 20.5953 19.7068 20.4994 19.6608 20.4064C19.6147 20.3135 19.543 20.2494 19.4455 20.2141C19.348 20.1788 19.2518 20.1821 19.1569 20.224ZM18.9506 20.9491L19.0694 20.9554C19.0965 20.9573 19.1236 20.9573 19.1507 20.9554L19.4007 20.9429C19.4259 20.9423 19.4509 20.9403 19.4757 20.9366L19.9446 20.8491C19.9614 20.8456 19.9781 20.8415 19.9946 20.8366L20.776 20.6241C20.7823 20.6221 20.7885 20.62 20.7947 20.6178L21.9075 20.274C21.9201 20.2702 21.9326 20.266 21.945 20.2615L23.3702 19.7239C23.3744 19.7239 23.3786 19.7239 23.3827 19.7239L25.0268 19.0675C25.0289 19.0675 25.031 19.0675 25.0331 19.0675L26.7334 18.3736C26.7376 18.3716 26.7417 18.3695 26.7459 18.3674L28.3837 17.661C28.3879 17.659 28.392 17.6569 28.3962 17.6547L29.9402 16.9546C29.9423 16.9546 29.9444 16.9546 29.9465 16.9546L31.3155 16.317C31.3176 16.3149 31.3197 16.3128 31.3218 16.3107L32.4095 15.7919C32.4243 15.7862 32.4389 15.7799 32.4532 15.7731L33.1471 15.3668C33.2011 15.3371 33.249 15.2996 33.2909 15.2543L33.5222 14.9917C33.6384 14.8636 33.6617 14.7204 33.5922 14.562C33.5226 14.4037 33.4013 14.3239 33.2284 14.3229L32.8783 14.3104C32.8119 14.3095 32.7473 14.3199 32.6845 14.3416L31.9219 14.5979C31.9092 14.6017 31.8967 14.6059 31.8844 14.6104L30.7716 15.0667C30.7695 15.0688 30.7675 15.0709 30.7654 15.073L29.3714 15.6606L27.8086 16.3232L26.1708 17.0421L24.4892 17.761L22.8639 18.4424L21.4699 19.0175L20.4009 19.4113L19.6695 19.6364L19.2194 19.7489C19.2111 19.7508 19.2027 19.7529 19.1944 19.7551L18.9506 19.8239C18.9116 19.8346 18.8741 19.8492 18.8381 19.8677L18.7381 19.9239C18.4944 20.0504 18.4004 20.2481 18.4562 20.517C18.5119 20.7859 18.6767 20.9299 18.9506 20.9491ZM33.1659 14.4916L33.0971 14.5354C32.9556 14.6271 32.9306 14.7438 33.0222 14.8854C33.1138 15.027 33.2305 15.052 33.3721 14.9605L33.4409 14.9167C33.5824 14.825 33.6074 14.7083 33.5158 14.5668C33.4242 14.4252 33.3075 14.4001 33.1659 14.4916Z" fill="black"/>
<path d="M16.544 20.4115C16.544 20.5186 16.5818 20.6099 16.6575 20.6856C16.7332 20.7613 16.8246 20.7991 16.9316 20.7991C17.0386 20.7991 17.13 20.7613 17.2056 20.6856C17.2813 20.6099 17.3192 20.5186 17.3192 20.4115C17.3192 20.3045 17.2813 20.2131 17.2056 20.1375C17.13 20.0618 17.0386 20.024 16.9316 20.024C16.8246 20.024 16.7332 20.0618 16.6575 20.1375C16.5818 20.2131 16.544 20.3045 16.544 20.4115ZM16.394 20.3865C16.394 20.535 16.4465 20.6617 16.5514 20.7667C16.6564 20.8716 16.7831 20.9241 16.9316 20.9241C17.08 20.9241 17.2068 20.8716 17.3117 20.7667C17.4167 20.6617 17.4692 20.535 17.4692 20.3865C17.4692 20.2381 17.4167 20.1114 17.3117 20.0064C17.2068 19.9014 17.08 19.8489 16.9316 19.8489C16.7831 19.8489 16.6564 19.9014 16.5514 20.0064C16.4465 20.1114 16.394 20.2381 16.394 20.3865ZM16.3127 20.3803C16.3127 20.5494 16.3725 20.6938 16.4921 20.8135C16.6118 20.9331 16.7562 20.9929 16.9253 20.9929C17.0945 20.9929 17.2389 20.9331 17.3585 20.8135C17.4781 20.6938 17.5379 20.5494 17.5379 20.3803C17.5379 20.2111 17.4781 20.0667 17.3585 19.9471C17.2389 19.8275 17.0945 19.7677 16.9253 19.7677C16.7562 19.7677 16.6118 19.8275 16.4921 19.9471C16.3725 20.0667 16.3127 20.2111 16.3127 20.3803ZM16.3315 20.099L16.2627 20.2115C16.2277 20.2744 16.2027 20.3411 16.1877 20.4115L16.1377 20.6491C16.135 20.6657 16.1329 20.6823 16.1314 20.6991L16.0814 21.0241C16.081 21.0387 16.081 21.0533 16.0814 21.0679L16.0502 21.4055C16.0491 21.4284 16.0491 21.4513 16.0502 21.4742V21.7805C16.0518 21.8291 16.0581 21.877 16.0689 21.9243L16.1252 22.1994C16.1346 22.2509 16.1492 22.3009 16.1689 22.3494L16.2752 22.5869C16.3028 22.65 16.3382 22.7084 16.3815 22.762L16.544 22.962C16.591 23.0198 16.6452 23.0698 16.7065 23.112L16.9316 23.2683C16.9954 23.3118 17.0642 23.3451 17.1379 23.3683L17.4567 23.4746C17.5215 23.4979 17.5881 23.5125 17.6567 23.5184L18.0756 23.5434C18.1047 23.545 18.1339 23.545 18.1631 23.5434L18.6694 23.5184C18.684 23.5188 18.6986 23.5188 18.7132 23.5184L19.2758 23.4621L19.8509 23.4058L20.3822 23.3558L20.8198 23.3183C20.8387 23.3169 20.8574 23.3148 20.8761 23.3121L21.2136 23.2621C21.2347 23.2587 21.2555 23.2546 21.2762 23.2496L21.5262 23.1933C21.5537 23.1864 21.5808 23.1781 21.6075 23.1683L21.77 23.112C21.8514 23.0846 21.9265 23.045 21.995 22.9933L22.0701 22.9308C22.1619 22.8614 22.2348 22.776 22.2889 22.6745L22.3201 22.6182C22.377 22.5084 22.4061 22.3917 22.4076 22.2681V22.1931C22.4079 22.1448 22.4037 22.0969 22.3951 22.0493L22.3826 21.9868V21.8931L22.3889 21.6868L22.4139 21.3867C22.4139 21.3825 22.4139 21.3784 22.4139 21.3742L22.4326 21.0366C22.4328 21.0283 22.4328 21.02 22.4326 21.0116L22.4451 20.6991C22.4453 20.6907 22.4453 20.6824 22.4451 20.6741V20.449C22.4443 20.4239 22.4422 20.3989 22.4389 20.374L22.4326 20.3053C22.4079 20.1118 22.3223 19.9506 22.1759 19.8217C22.0295 19.6928 21.8588 19.6284 21.6637 19.6284C21.4687 19.6284 21.2979 19.6928 21.1515 19.8217C21.0051 19.9506 20.9196 20.1118 20.8948 20.3053L20.8886 20.374C20.8853 20.3989 20.8832 20.4239 20.8823 20.449V20.6553L20.8698 20.9491L20.8511 21.2742L20.8323 21.5805C20.8298 21.595 20.8277 21.6096 20.8261 21.6243L20.8198 21.8743C20.8194 21.8889 20.8194 21.9035 20.8198 21.9181L20.8261 22.0931C20.8281 22.1267 20.8323 22.16 20.8386 22.1931L20.8448 22.2494V22.2681C20.9203 22.1432 20.9578 22.0078 20.9574 21.8618L20.9198 21.9118C21.0836 21.8465 21.2107 21.7381 21.3012 21.5867L21.2324 21.618L21.1324 21.6493L20.9511 21.6868L20.6635 21.7305L20.2447 21.768C20.2426 21.768 20.2405 21.768 20.2385 21.768L19.7009 21.818L19.1195 21.8743C19.1174 21.8743 19.1153 21.8743 19.1132 21.8743L18.5694 21.9306L18.1256 21.9556L17.838 21.9368L17.7005 21.8993L17.6567 21.8681L17.6192 21.8305L17.5817 21.7618L17.5567 21.668L17.5505 21.4805L17.5692 21.1867L17.6005 20.8679C17.6007 20.8574 17.6007 20.847 17.6005 20.8366L17.613 20.5928C17.6153 20.5468 17.6132 20.5009 17.6067 20.4553L17.588 20.324C17.5385 20.007 17.3558 19.8202 17.0399 19.7636C16.7241 19.707 16.4879 19.8188 16.3315 20.099ZM21.0324 20.474C21.0324 20.6449 21.0928 20.7908 21.2136 20.9116C21.3345 21.0325 21.4803 21.0929 21.6512 21.0929C21.8221 21.0929 21.968 21.0325 22.0888 20.9116C22.2097 20.7908 22.2701 20.6449 22.2701 20.474C22.2701 20.3031 22.2097 20.1573 22.0888 20.0364C21.968 19.9156 21.8221 19.8552 21.6512 19.8552C21.4803 19.8552 21.3345 19.9156 21.2136 20.0364C21.0928 20.1573 21.0324 20.3031 21.0324 20.474ZM21.3574 20.6553L21.3449 20.8741C21.3329 21.0571 21.4184 21.1548 21.6013 21.1672C21.7842 21.1797 21.8821 21.0945 21.895 20.9116L21.9075 20.6928C21.9196 20.5099 21.8341 20.4122 21.6512 20.3997C21.4683 20.3872 21.3703 20.4724 21.3574 20.6553Z" fill="black"/>
<path d="M16.9065 19.9551C16.9065 20.0725 16.948 20.1727 17.031 20.2557C17.114 20.3387 17.2142 20.3802 17.3316 20.3802C17.449 20.3802 17.5492 20.3387 17.6322 20.2557C17.7152 20.1727 17.7567 20.0725 17.7567 19.9551C17.7567 19.8378 17.7152 19.7376 17.6322 19.6546C17.5492 19.5716 17.449 19.5301 17.3316 19.5301C17.2142 19.5301 17.114 19.5716 17.031 19.6546C16.948 19.7376 16.9065 19.8378 16.9065 19.9551ZM16.8315 19.9489C16.8315 20.087 16.8803 20.2049 16.978 20.3025C17.0756 20.4002 17.1935 20.449 17.3316 20.449C17.4697 20.449 17.5876 20.4002 17.6852 20.3025C17.7829 20.2049 17.8317 20.087 17.8317 19.9489C17.8317 19.8108 17.7829 19.6929 17.6852 19.5953C17.5876 19.4976 17.4697 19.4488 17.3316 19.4488C17.1935 19.4488 17.0756 19.4976 16.978 19.5953C16.8803 19.6929 16.8315 19.8108 16.8315 19.9489ZM17.2441 20.6553L17.4316 20.6865C17.5568 20.7109 17.6797 20.7026 17.8004 20.6615L18.1005 20.5615L18.8319 20.374C18.9695 20.3403 19.0439 20.2529 19.055 20.1116C19.0661 19.9704 19.0063 19.8724 18.8757 19.8176L18.188 19.5113L17.913 19.355C17.8209 19.3067 17.723 19.2796 17.6192 19.2738L17.4316 19.2613C17.2495 19.254 17.0887 19.3089 16.9491 19.4261C16.8095 19.5433 16.7276 19.6923 16.7033 19.8729C16.679 20.0535 16.7186 20.2188 16.8223 20.3687C16.9259 20.5187 17.0665 20.6142 17.2441 20.6553Z" fill="black"/>
</g>
<defs>
<clipPath id="clip0_1_7207">
<rect width="36" height="32" fill="white"/>
</clipPath>
</defs>
</svg>
