<svg width="27" height="41" viewBox="0 0 27 41" fill="none" xmlns="http://www.w3.org/2000/svg">
<g clip-path="url(#clip0_1_7284)">
<path d="M14.3947 34.3082C14.3947 34.4139 14.4321 34.504 14.5068 34.5787C14.5816 34.6534 14.6718 34.6908 14.7774 34.6908C14.8831 34.6908 14.9733 34.6534 15.048 34.5787C15.1227 34.504 15.1601 34.4139 15.1602 34.3082C15.1601 34.2025 15.1227 34.1124 15.048 34.0376C14.9733 33.9629 14.8831 33.9256 14.7774 33.9256C14.6718 33.9256 14.5816 33.9629 14.5068 34.0376C14.4321 34.1124 14.3947 34.2025 14.3947 34.3082ZM14.3633 34.3082C14.3633 34.4225 14.4038 34.5202 14.4846 34.601C14.5655 34.6819 14.6631 34.7223 14.7774 34.7223C14.8918 34.7223 14.9894 34.6819 15.0702 34.601C15.1511 34.5202 15.1915 34.4225 15.1915 34.3082C15.1915 34.1938 15.1511 34.0962 15.0702 34.0154C14.9894 33.9345 14.8918 33.8941 14.7774 33.8941C14.6631 33.8941 14.5655 33.9345 14.4846 34.0154C14.4038 34.0962 14.3633 34.1938 14.3633 34.3082ZM14.6331 33.8376L14.5766 33.8564C14.4458 33.8912 14.3391 33.9623 14.2567 34.0698L14.15 34.2204C14.087 34.3028 14.0452 34.3948 14.0245 34.4964L13.9555 34.8352C13.9472 34.8788 13.943 34.9227 13.9429 34.967V35.4313C13.9408 35.4862 13.9449 35.5405 13.9555 35.5944L14.0747 36.1026C14.0797 36.126 14.0859 36.149 14.0935 36.1717L14.2755 36.6924C14.2755 36.6945 14.2755 36.6966 14.2755 36.6987L14.7774 38.0728C14.8232 38.2148 14.9196 38.273 15.0666 38.2473C15.2136 38.2215 15.2846 38.1341 15.2794 37.9849L15.2856 36.5356L15.3045 36.0022L15.3484 35.494C15.3488 35.4794 15.3488 35.4648 15.3484 35.4501L15.3609 34.9921L15.3672 34.647C15.3696 34.5921 15.3655 34.5377 15.3547 34.4839L15.3107 34.3019C15.2901 34.2058 15.2483 34.1201 15.1853 34.0447L15.1476 34.0008C15.0108 33.837 14.8393 33.7826 14.6331 33.8376Z" fill="black"/>
<path d="M14.4386 34.3584C14.4386 34.4657 14.4766 34.5574 14.5526 34.6333C14.6285 34.7093 14.7202 34.7472 14.8276 34.7472C14.935 34.7472 15.0266 34.7093 15.1026 34.6333C15.1785 34.5574 15.2165 34.4657 15.2166 34.3584C15.2165 34.251 15.1785 34.1593 15.1026 34.0834C15.0266 34.0074 14.935 33.9695 14.8276 33.9695C14.7202 33.9695 14.6285 34.0074 14.5526 34.0834C14.4766 34.1593 14.4386 34.251 14.4386 34.3584ZM14.3884 34.3646C14.3884 34.4859 14.4313 34.5894 14.517 34.6752C14.6028 34.7609 14.7063 34.8038 14.8276 34.8038C14.9489 34.8038 15.0524 34.7609 15.1381 34.6752C15.2239 34.5894 15.2668 34.4859 15.2668 34.3646C15.2668 34.2433 15.2239 34.1398 15.1381 34.0541C15.0524 33.9683 14.9489 33.9254 14.8276 33.9254C14.7063 33.9254 14.6028 33.9683 14.517 34.0541C14.4313 34.1398 14.3884 34.2433 14.3884 34.3646ZM14.4511 33.9693L14.3821 34.0258C14.2854 34.1089 14.2185 34.2114 14.1813 34.3333L14.106 34.5717C14.0927 34.6189 14.0843 34.667 14.0809 34.716L14.0433 35.0924C14.0398 35.1343 14.0398 35.1761 14.0433 35.2179L14.0809 35.7136C14.0844 35.7517 14.0907 35.7894 14.0998 35.8265L14.2252 36.3787C14.2364 36.4327 14.2531 36.485 14.2754 36.5355L14.5327 37.0751C14.5694 37.1576 14.6196 37.2308 14.6833 37.2947L15.0723 37.6774C15.1502 37.7534 15.2423 37.8036 15.3483 37.828L15.6683 37.9033L15.9067 38.1417C16.0239 38.2629 16.143 38.2649 16.2643 38.1479C16.3855 38.0309 16.3876 37.9117 16.2707 37.7904L16.0573 37.5708L16.0636 37.2759C16.0639 37.2249 16.0576 37.1747 16.0448 37.1253L15.913 36.592C15.9094 36.5751 15.9052 36.5584 15.9005 36.5418L15.7185 35.9959L15.5993 35.5128L15.5428 35.0673L15.4989 34.6909C15.4969 34.6846 15.4948 34.6783 15.4926 34.6721L15.4613 34.4336C15.4442 34.3196 15.4003 34.2172 15.3295 34.1262L15.273 34.0509C15.1728 33.9226 15.0416 33.8504 14.8795 33.8343C14.7175 33.8182 14.5747 33.8632 14.4511 33.9693Z" fill="black"/>
<path d="M8.25849 36.7865C8.25849 36.8992 8.29831 36.9953 8.37794 37.0749C8.45758 37.1546 8.5537 37.1944 8.66632 37.1944C8.77894 37.1944 8.87507 37.1546 8.9547 37.0749C9.03433 36.9953 9.07415 36.8992 9.07415 36.7865C9.07415 36.6739 9.03433 36.5778 8.9547 36.4982C8.87507 36.4185 8.77894 36.3787 8.66632 36.3787C8.5537 36.3787 8.45758 36.4185 8.37794 36.4982C8.29831 36.5778 8.25849 36.6739 8.25849 36.7865ZM8.1832 36.7865C8.1832 36.9182 8.22976 37.0306 8.32287 37.1237C8.41598 37.2168 8.52837 37.2634 8.66005 37.2634C8.79172 37.2634 8.90412 37.2168 8.99723 37.1237C9.09034 37.0306 9.13689 36.9182 9.13689 36.7865C9.13689 36.6549 9.09034 36.5425 8.99723 36.4494C8.90412 36.3563 8.79172 36.3097 8.66005 36.3097C8.52837 36.3097 8.41598 36.3563 8.32287 36.4494C8.22976 36.5425 8.1832 36.6549 8.1832 36.7865ZM8.27732 36.3662L8.13301 36.4666C8.11071 36.4838 8.0898 36.5027 8.07027 36.523L7.88204 36.705C7.86876 36.719 7.85621 36.7336 7.84439 36.7489L7.65616 36.9685C7.64966 36.9767 7.64339 36.9851 7.63734 36.9936L7.46166 37.2257C7.4528 37.238 7.44443 37.2505 7.43657 37.2634L7.27971 37.5018C7.2707 37.5161 7.26233 37.5307 7.25461 37.5457L7.12913 37.7904L7.00991 38.01C7.00553 38.0183 7.00135 38.0267 6.99737 38.0351L6.90953 38.2296C6.89766 38.252 6.88721 38.275 6.87816 38.2986L6.82169 38.4806C6.8102 38.5154 6.80184 38.551 6.79659 38.5873L6.77149 38.7567C6.76497 38.8089 6.76497 38.8612 6.77149 38.9135L6.78404 39.0704C6.78878 39.0959 6.79505 39.121 6.80286 39.1457L6.83424 39.29C6.84225 39.3222 6.85271 39.3535 6.86561 39.3841L6.90953 39.5096C6.9324 39.5616 6.96168 39.6097 6.99737 39.6539L7.06638 39.7543C7.10914 39.8084 7.15933 39.8544 7.21697 39.8923L7.31735 39.9676C7.37183 40.0036 7.43039 40.0308 7.49303 40.0492L7.63734 40.0931C7.66413 40.1011 7.69132 40.1074 7.71891 40.1119L7.91968 40.1496C7.92176 40.1517 7.92385 40.1537 7.92596 40.1558L8.19575 40.206C8.21032 40.2086 8.22496 40.2107 8.23967 40.2123L8.66632 40.2625C8.67678 40.2627 8.68724 40.2627 8.69769 40.2625L9.26865 40.3001C9.27074 40.3001 9.27283 40.3001 9.27493 40.3001L9.95882 40.3441C9.97346 40.3445 9.9881 40.3445 10.0027 40.3441L10.7494 40.3503C10.7788 40.3503 10.8081 40.3482 10.8372 40.3441L11.6215 40.2311L12.4309 40.1182C12.4372 40.1163 12.4435 40.1142 12.4497 40.1119L13.096 39.9801L13.5853 39.9676C13.7527 39.9634 13.8342 39.8777 13.83 39.7104C13.8259 39.543 13.7401 39.4615 13.5728 39.4657L13.0834 39.4782L12.4372 39.3715C12.4351 39.3694 12.433 39.3673 12.4309 39.3653L11.6403 39.2523L10.8749 39.0955C10.8644 39.0952 10.8539 39.0952 10.8435 39.0955L10.1031 38.9825C10.0886 38.98 10.0739 38.9779 10.0592 38.9763L9.38159 38.9198C9.37531 38.9197 9.36904 38.9197 9.36277 38.9198L8.79181 38.8821L8.37143 38.8571L8.11419 38.832L7.93851 38.8131L7.89459 38.8069L7.86949 38.788C7.92519 38.8562 7.99212 38.9106 8.07027 38.9512L8.05772 38.9386L8.03889 38.8696L8.03262 38.8257L8.03889 38.7692L8.07027 38.6437L8.11419 38.468L8.1832 38.2798L8.27732 38.079L8.39025 37.8845L8.52829 37.7026L8.69142 37.5206L8.87337 37.3512C8.87551 37.3471 8.87761 37.3429 8.87965 37.3387L9.00513 37.2195C9.12295 37.119 9.18798 36.9915 9.20023 36.8372C9.21249 36.6828 9.16837 36.5467 9.06788 36.4289C8.96738 36.3111 8.83996 36.2461 8.68559 36.2338C8.53122 36.2216 8.39513 36.2657 8.27732 36.3662Z" fill="black"/>
<path d="M7.99491 38.7253C7.99501 38.824 8.02997 38.9082 8.09979 38.9779C8.1696 39.0477 8.25386 39.0826 8.35255 39.0826C8.45124 39.0826 8.53549 39.0477 8.60531 38.9779C8.67513 38.9082 8.71009 38.824 8.71018 38.7253C8.71009 38.6266 8.67513 38.5424 8.60531 38.4726C8.53549 38.4029 8.45124 38.368 8.35255 38.368C8.25386 38.368 8.1696 38.4029 8.09979 38.4726C8.02997 38.5424 7.99501 38.6266 7.99491 38.7253ZM7.93845 38.7316C7.93845 38.8459 7.97888 38.9435 8.05973 39.0244C8.14059 39.1052 8.2382 39.1457 8.35255 39.1457C8.4669 39.1457 8.5645 39.1052 8.64536 39.0244C8.72622 38.9435 8.76665 38.8459 8.76665 38.7316C8.76665 38.6172 8.72622 38.5196 8.64536 38.4388C8.5645 38.3579 8.4669 38.3175 8.35255 38.3175C8.2382 38.3175 8.14059 38.3579 8.05973 38.4388C7.97888 38.5196 7.93845 38.6172 7.93845 38.7316ZM8.06393 38.4116L8.04511 38.4304C7.88823 38.562 7.8234 38.7294 7.85061 38.9323L7.8757 39.0955C7.89074 39.2038 7.93048 39.3021 7.99491 39.3904L8.17059 39.6413C8.2133 39.699 8.26349 39.7492 8.32118 39.7919L8.65999 40.0492C8.7029 40.0833 8.74891 40.1126 8.79802 40.137L9.26232 40.3566C9.29698 40.3717 9.33253 40.3842 9.36898 40.3942L9.92112 40.5637C9.94591 40.5711 9.971 40.5774 9.99641 40.5825L10.6489 40.7142C10.6738 40.7196 10.6989 40.7238 10.7242 40.7268L11.4395 40.8021C11.4541 40.8046 11.4687 40.8066 11.4834 40.8083L12.2112 40.846C12.2363 40.8471 12.2614 40.8471 12.2865 40.846L12.9516 40.8209C12.9726 40.8196 12.9935 40.8175 13.0143 40.8146L13.6041 40.7519C13.6231 40.7483 13.6419 40.7441 13.6606 40.7393L14.1751 40.6452C14.209 40.6389 14.2425 40.6305 14.2755 40.6201L14.7649 40.4695C14.7991 40.4591 14.8326 40.4466 14.8652 40.4319L15.3358 40.2123C15.3594 40.2009 15.3824 40.1883 15.4048 40.1746L15.8064 39.9362C15.9141 39.8724 15.9998 39.7867 16.0636 39.679L16.233 39.3841C16.2942 39.2789 16.3172 39.166 16.302 39.0453V39.0265L16.3522 38.9763C16.4818 38.8424 16.4797 38.7107 16.3459 38.5811C16.2121 38.4514 16.0804 38.4535 15.9507 38.5873L15.8064 38.7378C15.9233 38.7877 16.0258 38.7668 16.1138 38.6751L15.9758 38.6186C15.9097 38.5902 15.8407 38.5755 15.7687 38.5747H15.4299C15.3573 38.5746 15.2862 38.5851 15.2166 38.6061L14.7962 38.7378L14.3257 38.8445L13.8488 38.9512L13.372 39.039L12.8449 39.1017L12.2238 39.1394L11.5462 39.1519L10.8999 39.108L10.3289 39.0139L9.8521 38.8821L9.42545 38.719L9.07409 38.5622L8.82939 38.4304C8.81498 38.4236 8.80034 38.4173 8.78547 38.4116L8.63489 38.3426C8.53201 38.2979 8.42535 38.2853 8.3149 38.3049L8.28981 38.3112C8.20514 38.3236 8.12985 38.357 8.06393 38.4116Z" fill="black"/>
<path d="M15.7499 36.4289C15.7499 36.6422 15.8566 36.7489 16.0699 36.7489C16.2832 36.7489 16.3899 36.6422 16.3899 36.4289C16.3899 36.2155 16.2832 36.1089 16.0699 36.1089C15.8566 36.1089 15.7499 36.2155 15.7499 36.4289ZM15.6684 36.4226C15.6684 36.5335 15.7076 36.6281 15.786 36.7065C15.8644 36.7849 15.959 36.8242 16.0699 36.8242C16.1808 36.8242 16.2754 36.7849 16.3538 36.7065C16.4323 36.6281 16.4715 36.5335 16.4715 36.4226C16.4715 36.3117 16.4323 36.2171 16.3538 36.1387C16.2754 36.0602 16.1808 36.021 16.0699 36.021C15.959 36.021 15.8644 36.0602 15.786 36.1387C15.7076 36.2171 15.6684 36.3117 15.6684 36.4226ZM15.6433 36.41C15.6433 36.5261 15.6843 36.6252 15.7664 36.7073C15.8485 36.7894 15.9475 36.8304 16.0636 36.8304C16.1797 36.8304 16.2788 36.7894 16.3609 36.7073C16.443 36.6252 16.484 36.5261 16.484 36.41C16.484 36.294 16.443 36.1949 16.3609 36.1128C16.2788 36.0307 16.1797 35.9897 16.0636 35.9897C15.9475 35.9897 15.8485 36.0307 15.7664 36.1128C15.6843 36.1949 15.6433 36.294 15.6433 36.41ZM15.5429 36.3912C15.5429 36.5316 15.5925 36.6514 15.6917 36.7506C15.791 36.8498 15.9107 36.8994 16.0511 36.8994C16.1914 36.8994 16.3112 36.8498 16.4104 36.7506C16.5097 36.6514 16.5593 36.5316 16.5593 36.3912C16.5593 36.2509 16.5097 36.1311 16.4104 36.0319C16.3112 35.9326 16.1914 35.883 16.0511 35.883C15.9107 35.883 15.791 35.9326 15.6917 36.0319C15.5925 36.1311 15.5429 36.2509 15.5429 36.3912ZM16.0448 35.7889H16.026C15.72 35.7837 15.5067 35.9218 15.386 36.203L15.3233 36.3473C15.2876 36.4337 15.2687 36.5236 15.2668 36.6171L15.2543 36.9183C15.253 36.9603 15.255 37.0021 15.2605 37.0437L15.3107 37.4202C15.312 37.4412 15.3141 37.4621 15.317 37.4829L15.4048 37.8971C15.4115 37.9268 15.4199 37.9561 15.4299 37.9849L15.5554 38.3613C15.5629 38.3826 15.5712 38.4035 15.5805 38.4241L15.7123 38.7441C15.7236 38.7678 15.7361 38.7908 15.7499 38.8131L15.8817 39.0515C15.9157 39.11 15.9576 39.1623 16.0072 39.2084L16.1389 39.3339C16.328 39.513 16.5428 39.5528 16.7835 39.4533C17.0241 39.3537 17.1481 39.1738 17.1554 38.9135L17.1616 38.7315C17.162 38.6979 17.1599 38.6644 17.1554 38.6311L17.1177 38.3613C17.1146 38.3381 17.1104 38.3151 17.1052 38.2923L17.0299 37.9598L16.9483 37.5708L16.8605 37.1692L16.7977 36.8116C16.7978 36.8053 16.7978 36.7991 16.7977 36.7928L16.735 36.4979C16.7289 36.4638 16.7206 36.4304 16.7099 36.3975L16.6597 36.2469C16.6019 36.0838 16.4974 35.9605 16.346 35.8767L16.3334 35.8705C16.2441 35.8191 16.1479 35.7919 16.0448 35.7889ZM16.1389 38.995C16.1389 39.125 16.1849 39.2359 16.2768 39.3278C16.3686 39.4197 16.4796 39.4656 16.6095 39.4656C16.7394 39.4656 16.8504 39.4197 16.9422 39.3278C17.0341 39.2359 17.0801 39.125 17.0801 38.995C17.0801 38.8651 17.0341 38.7542 16.9422 38.6623C16.8504 38.5704 16.7394 38.5245 16.6095 38.5245C16.4796 38.5245 16.3686 38.5704 16.2768 38.6623C16.1849 38.7542 16.1389 38.8651 16.1389 38.995ZM16.9483 38.7378L16.8793 38.6437L16.735 38.4429C16.731 38.4365 16.7268 38.4302 16.7224 38.4241L16.5217 38.1668L16.3397 37.9033L16.2268 37.6963L16.1954 37.552C16.1377 37.6729 16.1251 37.7984 16.1577 37.9284L16.164 37.9033C16.1171 37.5875 15.9359 37.4046 15.6205 37.3547C15.3051 37.3049 15.0764 37.4229 14.9343 37.7088L14.9468 37.7967C14.9597 37.8791 14.9869 37.9564 15.0284 38.0288L15.1539 38.2547C15.1634 38.274 15.1739 38.2928 15.1852 38.3112L15.3986 38.6249C15.4239 38.6637 15.4532 38.6992 15.4864 38.7315L15.7813 39.0076C15.8008 39.0261 15.8217 39.0428 15.844 39.0578L16.0511 39.1958L16.1389 39.3966C16.221 39.5285 16.3333 39.5634 16.4758 39.5013C16.6182 39.4392 16.6691 39.3332 16.6283 39.1833L16.5405 38.9762L16.5781 38.7315C16.5826 38.6939 16.5826 38.6562 16.5781 38.6186L16.5468 38.217C16.541 38.1631 16.5284 38.1108 16.5091 38.0602L16.3836 37.7025C16.3697 37.6677 16.3529 37.6342 16.3334 37.6022L16.2079 37.3763C16.185 37.3336 16.1578 37.2939 16.1264 37.2571L16.0699 37.1881C15.8955 37.2935 15.793 37.447 15.7624 37.6485C15.7318 37.8499 15.7841 38.0269 15.9193 38.1794L15.9381 38.1606C15.7537 38.0695 15.5738 38.0779 15.3986 38.1857L15.524 38.2484L15.6872 38.399L15.888 38.6562L16.0887 38.9072L16.2142 39.0892L16.2644 39.1833C16.3259 39.2777 16.4118 39.3366 16.5221 39.3598C16.6323 39.3831 16.7347 39.364 16.8291 39.3025C16.9235 39.241 16.9824 39.1551 17.0056 39.0448C17.0289 38.9346 17.0098 38.8322 16.9483 38.7378Z" fill="black"/>
<path d="M9.37429 33.9251C9.37433 34.0307 9.41171 34.1209 9.48644 34.1956C9.56117 34.2703 9.65136 34.3077 9.75702 34.3077C9.86269 34.3077 9.95288 34.2703 10.0276 34.1956C10.1023 34.1209 10.1397 34.0307 10.1398 33.9251C10.1397 33.8194 10.1023 33.7292 10.0276 33.6545C9.95288 33.5798 9.86269 33.5425 9.75702 33.5425C9.65136 33.5425 9.56117 33.5798 9.48644 33.6545C9.41171 33.7292 9.37433 33.8194 9.37429 33.9251ZM9.67546 33.511L9.61899 33.5172C9.55287 33.5258 9.49221 33.5488 9.43704 33.5863L9.37429 33.6302C9.21025 33.742 9.15937 33.8922 9.22167 34.0808C9.28397 34.2693 9.41432 34.3596 9.61272 34.3517H9.68801C9.69433 34.3498 9.7006 34.3477 9.70683 34.3455H9.7633C9.88447 34.3404 9.98468 34.2919 10.0639 34.2001C10.1432 34.1083 10.1764 34.0021 10.1637 33.8814C10.151 33.7608 10.0964 33.6639 9.99976 33.5906C9.90314 33.5172 9.79504 33.4907 9.67546 33.511ZM9.39312 33.7745L9.33037 33.8121C9.17987 33.9 9.14853 34.0192 9.23634 34.1697C9.32415 34.3203 9.44333 34.3516 9.59389 34.2639L9.65664 34.2262C9.80722 34.1384 9.83859 34.0192 9.75075 33.8686C9.66291 33.718 9.5437 33.6867 9.39312 33.7745Z" fill="black"/>
<path d="M8.9854 34.2827C8.9854 34.3918 9.02399 34.485 9.10117 34.5622C9.17835 34.6394 9.27152 34.678 9.38068 34.678C9.48983 34.678 9.583 34.6394 9.66018 34.5622C9.73736 34.485 9.77595 34.3918 9.77595 34.2827C9.77595 34.1735 9.73736 34.0804 9.66018 34.0032C9.583 33.926 9.48983 33.8874 9.38068 33.8874C9.27152 33.8874 9.17835 33.926 9.10117 34.0032C9.02399 34.0804 8.9854 34.1735 8.9854 34.2827ZM8.97285 34.2827C8.97285 34.3953 9.01266 34.4914 9.0923 34.5711C9.17193 34.6507 9.26806 34.6905 9.38068 34.6905C9.49329 34.6905 9.58942 34.6507 9.66905 34.5711C9.74869 34.4914 9.7885 34.3953 9.7885 34.2827C9.7885 34.1701 9.74869 34.0739 9.66905 33.9943C9.58942 33.9147 9.49329 33.8749 9.38068 33.8749C9.26806 33.8749 9.17193 33.9147 9.0923 33.9943C9.01266 34.0739 8.97285 34.1701 8.97285 34.2827ZM8.88501 34.289C8.88501 34.4293 8.93463 34.5491 9.03386 34.6483C9.1331 34.7476 9.25288 34.7972 9.39322 34.7972C9.53356 34.7972 9.65335 34.7476 9.75259 34.6483C9.85182 34.5491 9.90144 34.4293 9.90144 34.289C9.90144 34.1486 9.85182 34.0288 9.75259 33.9296C9.65335 33.8304 9.53356 33.7807 9.39322 33.7807C9.25288 33.7807 9.1331 33.8304 9.03386 33.9296C8.93463 34.0288 8.88501 34.1486 8.88501 34.289ZM9.1297 34.8097L9.16735 34.8348C9.19753 34.852 9.2289 34.8666 9.26146 34.8787L9.33048 34.9038C9.25166 34.7951 9.14918 34.7177 9.02304 34.6717L9.02932 34.678L9.01677 34.6466L9.02932 34.7658L9.03559 35.0732L8.97285 35.525L8.83481 36.0771L8.60894 36.6355L8.32032 37.1814L8.03798 37.7022L7.76191 38.179L7.50467 38.5994C7.49469 38.6196 7.48632 38.6406 7.47957 38.6621L7.37291 38.9131L7.2286 39.026C7.09057 39.1348 7.07593 39.2582 7.18468 39.3962C7.29344 39.5342 7.41683 39.5489 7.55486 39.4401L7.71172 39.3209L7.98779 39.2456C8.02747 39.2362 8.06512 39.2216 8.10072 39.2017L8.52737 38.957C8.54928 38.9438 8.5702 38.9292 8.59012 38.9131L9.03559 38.568C9.06704 38.5454 9.09632 38.5203 9.12343 38.4927L9.53753 38.0472C9.57074 38.0104 9.60002 37.9707 9.62537 37.928L9.97046 37.3696C9.99205 37.3355 10.0109 37.3 10.0269 37.263L10.2967 36.623C10.3128 36.5822 10.3253 36.5404 10.3344 36.4975L10.4849 35.8512C10.4937 35.8161 10.5 35.7806 10.5038 35.7446L10.554 35.1924C10.5587 35.1336 10.5566 35.0751 10.5477 35.0168L10.4912 34.6152C10.4836 34.5658 10.471 34.5177 10.4536 34.4709L10.3657 34.2388C10.3425 34.1686 10.309 34.1038 10.2653 34.0443L10.1712 33.925C10.1049 33.8411 10.0233 33.7762 9.92654 33.7305L9.84497 33.6929C9.71522 33.6294 9.57928 33.6105 9.43714 33.6364L9.36813 33.649C9.19731 33.6794 9.06137 33.7652 8.9603 33.9062L8.9352 33.9376C8.83216 34.0831 8.80004 34.2428 8.83885 34.4168C8.87766 34.5908 8.97461 34.7218 9.1297 34.8097Z" fill="black"/>
<path d="M0.77986 28.8194C0.77986 28.9164 0.814164 28.9992 0.882771 29.0678C0.951378 29.1364 1.03419 29.1707 1.13122 29.1707C1.22824 29.1707 1.31106 29.1364 1.37967 29.0678C1.44827 28.9992 1.48258 28.9164 1.48258 28.8194C1.48258 28.7224 1.44827 28.6395 1.37967 28.5709C1.31106 28.5023 1.22824 28.468 1.13122 28.468C1.03419 28.468 0.951378 28.5023 0.882771 28.5709C0.814164 28.6395 0.77986 28.7224 0.77986 28.8194ZM0.666923 28.8068C0.666923 28.9368 0.712866 29.0477 0.80475 29.1396C0.896635 29.2315 1.00755 29.2774 1.13749 29.2774C1.26744 29.2774 1.37835 29.2315 1.47024 29.1396C1.56212 29.0477 1.60806 28.9368 1.60806 28.8068C1.60806 28.6769 1.56212 28.566 1.47024 28.4741C1.37835 28.3822 1.26744 28.3363 1.13749 28.3363C1.00755 28.3363 0.896635 28.3822 0.80475 28.4741C0.712866 28.566 0.666923 28.6769 0.666923 28.8068ZM0.572809 28.7943C0.572866 28.9571 0.63047 29.0961 0.745624 29.2112C0.860778 29.3263 0.999767 29.3839 1.16259 29.3839C1.32541 29.3839 1.4644 29.3263 1.57956 29.2112C1.69471 29.0961 1.75232 28.9571 1.75237 28.7943C1.75232 28.6315 1.69471 28.4925 1.57956 28.3774C1.4644 28.2623 1.32541 28.2047 1.16259 28.2047C0.999767 28.2047 0.860778 28.2623 0.745624 28.3774C0.63047 28.4925 0.572866 28.6315 0.572809 28.7943ZM0.553987 28.8947L0.572809 29.0578C0.574805 29.0641 0.576897 29.0704 0.579084 29.0766L0.629278 29.4092C0.631275 29.4155 0.633366 29.4217 0.635552 29.428L0.729666 29.9362C0.73286 29.9573 0.737043 29.9782 0.742215 29.9989L0.924168 30.6264C0.93821 30.6743 0.957033 30.7204 0.980637 30.7644L1.35082 31.4609C1.37617 31.5035 1.40545 31.5432 1.43866 31.5801L1.99707 32.2577C2.02739 32.2943 2.06085 32.3278 2.09746 32.3581L2.83782 32.973C2.87298 33.0036 2.91063 33.0308 2.95076 33.0545L3.91699 33.5941C3.94533 33.6106 3.97461 33.6253 4.00483 33.638L5.12165 34.0835C5.14426 34.093 5.16727 34.1013 5.19067 34.1086L6.40788 34.4725C6.42853 34.4797 6.44944 34.4859 6.47062 34.4913L7.72548 34.7423C7.73791 34.7468 7.75046 34.751 7.76312 34.7548L8.99288 34.9368C9.00124 34.9369 9.00961 34.9369 9.01797 34.9368L10.1536 35.0623C10.1661 35.0647 10.1787 35.0668 10.1913 35.0686L11.3018 35.1313C11.3311 35.1331 11.3604 35.1331 11.3896 35.1313L12.5127 35.0623C12.5421 35.062 12.5714 35.0599 12.6006 35.056L13.7488 34.8427C13.7742 34.8378 13.7993 34.8315 13.8241 34.8239L15.0099 34.46C15.0311 34.4547 15.052 34.4484 15.0726 34.4411L16.2334 33.958C16.257 33.9488 16.28 33.9384 16.3024 33.9266L17.3251 33.362C17.3402 33.3521 17.3548 33.3416 17.369 33.3306L18.2223 32.7659C18.2352 32.758 18.2477 32.7496 18.26 32.7408L18.9752 32.1824C18.9928 32.1687 19.0095 32.1541 19.0254 32.1385L19.6152 31.5675C19.6283 31.5556 19.6409 31.543 19.6529 31.5299L20.1046 30.9966C20.1282 30.9714 20.1491 30.9442 20.1673 30.915L20.4246 30.457L20.6442 30.1558C20.7793 29.9389 20.7439 29.7548 20.5381 29.6033C20.3323 29.4519 20.146 29.4729 19.9791 29.6664L19.7721 29.9425L19.3831 30.2436C19.3744 30.2517 19.3661 30.2601 19.358 30.2687L18.8435 30.733L18.2411 31.2413L17.551 31.7432L16.7165 32.2138L15.7001 32.6843L14.577 33.1235L13.4539 33.4435L12.3935 33.6317L11.352 33.6757L10.3042 33.6067L9.21248 33.4686L8.02664 33.2616L6.82198 32.9855L5.66124 32.6341L4.61971 32.2263L3.75386 31.7432L3.10761 31.2287L2.61822 30.6515L2.24804 30.0868L2.03471 29.5911L1.92805 29.1645L1.87158 28.857C1.86824 28.838 1.86405 28.8192 1.85903 28.8006L1.81511 28.6437C1.76646 28.4852 1.67096 28.3635 1.52861 28.2785C1.38626 28.1935 1.23379 28.1672 1.07119 28.1995C0.908587 28.2319 0.777804 28.3146 0.678839 28.4476C0.579875 28.5806 0.538257 28.7296 0.553987 28.8947Z" fill="black"/>
<path d="M0.491239 27.7088C0.491239 27.8179 0.52983 27.9111 0.607013 27.9883C0.684196 28.0655 0.777364 28.1041 0.886518 28.1041C0.995671 28.1041 1.08884 28.0655 1.16602 27.9883C1.2432 27.9111 1.2818 27.8179 1.2818 27.7088C1.2818 27.5996 1.2432 27.5065 1.16602 27.4293C1.08884 27.3521 0.995671 27.3135 0.886518 27.3135C0.777364 27.3135 0.684196 27.3521 0.607013 27.4293C0.52983 27.5065 0.491239 27.5996 0.491239 27.7088ZM0.497513 27.5959L0.484964 27.6335C0.456111 27.7291 0.460294 27.8232 0.497513 27.9158L0.541433 28.0225C0.548812 28.0397 0.557178 28.0565 0.56653 28.0727L0.660644 28.2547C0.686991 28.3058 0.720454 28.3519 0.761032 28.3927L1.012 28.6374C1.03181 28.6555 1.05272 28.6722 1.07475 28.6876L1.45748 28.9825C1.45957 28.9825 1.46166 28.9825 1.46375 28.9825L1.95942 29.3527C1.98543 29.3713 2.01262 29.388 2.04098 29.4028L2.69978 29.7668C2.72018 29.7782 2.74109 29.7887 2.76252 29.7981L3.59073 30.1432C3.59901 30.1476 3.60738 30.1517 3.61582 30.1558L4.54442 30.5008L5.5232 30.8585C5.52736 30.8606 5.53155 30.8627 5.53575 30.8648L6.54591 31.2098C6.55419 31.2142 6.56256 31.2184 6.57101 31.2224L7.59371 31.5298C7.60412 31.5321 7.61458 31.5342 7.62508 31.5361L8.61642 31.7933C8.62475 31.7956 8.63311 31.7977 8.64151 31.7996L9.60148 32.0067C9.61189 32.009 9.62235 32.0111 9.63285 32.0129L10.5677 32.1761C10.5781 32.1784 10.5886 32.1805 10.5991 32.1823L11.534 32.3078C11.5444 32.3081 11.5549 32.3081 11.5653 32.3078L12.5127 32.3894C12.5294 32.3921 12.5461 32.3942 12.5629 32.3957L13.5103 32.4082C13.525 32.4087 13.5396 32.4087 13.5543 32.4082L14.5142 32.3643C14.5331 32.365 14.5519 32.365 14.5707 32.3643L15.5369 32.2388C15.5537 32.2373 15.5705 32.2352 15.5871 32.2325L16.5283 32.0506C16.543 32.0469 16.5577 32.0427 16.5722 32.038L17.4506 31.7996C17.474 31.7925 17.497 31.7841 17.5196 31.7745L18.3227 31.4608C18.3576 31.4469 18.391 31.4302 18.4231 31.4106L19.1258 30.9902C19.1498 30.9772 19.1728 30.9625 19.1948 30.9463L19.7846 30.4757C19.7977 30.4659 19.8102 30.4554 19.8223 30.4444L20.343 29.9362C20.354 29.9262 20.3645 29.9158 20.3744 29.9048L20.8261 29.3715C20.8485 29.3467 20.8673 29.3195 20.8826 29.2899L21.1148 28.7942L21.3469 28.4554C21.4259 28.3129 21.3973 28.197 21.2611 28.1075C21.125 28.018 21.0072 28.0378 20.9077 28.1668L20.6944 28.4868L20.2866 28.8193C20.2779 28.8253 20.2696 28.8316 20.2615 28.8382L19.7846 29.2899L19.2325 29.635L18.5925 29.9173L17.8459 30.1997L17.0741 30.4695L16.2522 30.6702L15.355 30.8208L14.4264 30.9212L13.5166 30.9651L12.6131 30.9463L11.7096 30.8648L10.8061 30.7393L9.90264 30.5824L8.96778 30.3754L8.00154 30.1244L7.0102 29.8232L6.0126 29.4844L5.04636 29.1331C5.04427 29.133 5.04217 29.133 5.04008 29.1331L4.11777 28.8005L3.31466 28.4931L2.66214 28.1919L2.14137 27.9347L1.76492 27.69C1.75665 27.6856 1.74828 27.6814 1.73982 27.6774L1.43238 27.5017C1.40238 27.4842 1.371 27.4695 1.33826 27.4578L1.15004 27.3951L1.05592 27.3574C1.09291 27.3921 1.13474 27.4193 1.18141 27.439L1.15631 27.4139C1.0459 27.3163 0.91966 27.2871 0.777595 27.3263C0.635531 27.3656 0.54217 27.4554 0.497513 27.5959Z" fill="black"/>
<path d="M1.71475 28.0602V28.0539C1.71053 27.9755 1.68544 27.9043 1.63946 27.8406L1.62064 27.8155C1.63413 27.861 1.65505 27.9029 1.68338 27.941L1.66456 27.8845C1.65505 27.9461 1.65923 28.0068 1.67711 28.0665L1.68338 28.0288L1.70221 27.9661C1.71244 27.9312 1.71871 27.8957 1.72103 27.8594L1.68966 27.9096L1.86534 27.7841L2.3861 27.4642L3.24568 27.0061L4.29348 26.523L5.39148 26.0211C5.39779 26.0191 5.40407 26.017 5.4103 26.0148L6.33889 25.5442L7.16082 25.3936C7.31221 25.3474 7.37274 25.2465 7.34242 25.0912C7.31211 24.9358 7.21811 24.8651 7.06043 24.8792L6.22595 25.0297L5.1656 25.0737C5.12297 25.0746 5.08115 25.0809 5.04012 25.0925L3.88565 25.4438C3.86211 25.4507 3.83911 25.4591 3.81663 25.4689L2.75001 25.9583C2.73723 25.9641 2.72468 25.9704 2.71236 25.9772L1.82142 26.454C1.81076 26.4599 1.8003 26.4662 1.79005 26.4728L1.23791 26.8242C1.1882 26.8551 1.14428 26.8927 1.10615 26.9371L0.880277 27.2006C0.834767 27.2546 0.801304 27.3153 0.779889 27.3826L0.729695 27.5457C0.696868 27.6455 0.694777 27.7459 0.72342 27.8469L0.761066 27.9598C0.771486 27.9971 0.786126 28.0327 0.804986 28.0665L0.85518 28.1543C0.876054 28.1891 0.901152 28.2204 0.930471 28.2484L0.955568 28.2735L0.968117 28.2986C0.993293 28.3302 1.02257 28.3574 1.05596 28.3802L1.08105 28.399C1.14479 28.445 1.2159 28.4701 1.29438 28.4743H1.30065C1.41728 28.48 1.51688 28.4416 1.59945 28.359C1.68202 28.2764 1.72045 28.1768 1.71475 28.0602Z" fill="black"/>
<path d="M5.10911 25.6195C5.10911 25.837 5.21786 25.9457 5.43537 25.9457C5.65288 25.9457 5.76163 25.837 5.76163 25.6195C5.76163 25.4019 5.65288 25.2932 5.43537 25.2932C5.21786 25.2932 5.10911 25.4019 5.10911 25.6195ZM5.01499 25.6257C5.01499 25.7349 5.05358 25.8281 5.13077 25.9052C5.20795 25.9824 5.30112 26.021 5.41027 26.021C5.51943 26.021 5.61259 25.9824 5.68978 25.9052C5.76696 25.8281 5.80555 25.7349 5.80555 25.6257C5.80555 25.5166 5.76696 25.4234 5.68978 25.3462C5.61259 25.269 5.51943 25.2305 5.41027 25.2305C5.30112 25.2305 5.20795 25.269 5.13077 25.3462C5.05358 25.4234 5.01499 25.5166 5.01499 25.6257ZM4.9397 25.632C4.9397 25.7516 4.98197 25.8536 5.0665 25.9381C5.15104 26.0227 5.25308 26.0649 5.37263 26.0649C5.49218 26.0649 5.59422 26.0227 5.67875 25.9381C5.76328 25.8536 5.80555 25.7516 5.80555 25.632C5.80555 25.5125 5.76328 25.4104 5.67875 25.3259C5.59422 25.2413 5.49218 25.1991 5.37263 25.1991C5.25308 25.1991 5.15104 25.2413 5.0665 25.3259C4.98197 25.4104 4.9397 25.5125 4.9397 25.632ZM5.12793 26.09L5.17812 26.1151C5.29317 26.1743 5.41447 26.1931 5.54203 26.1716L5.79928 26.1214C5.80979 26.1196 5.82024 26.1175 5.83065 26.1151L6.29494 26.0085L6.99139 25.883C6.99349 25.8809 6.99559 25.8788 6.99766 25.8767L7.85096 25.7198C7.87225 25.7148 7.89317 25.7086 7.91371 25.701L8.63525 25.4751L9.28777 25.5379C9.46339 25.5546 9.55957 25.4751 9.5763 25.2995C9.59302 25.1238 9.51358 25.0276 9.33796 25.0109L8.67289 24.9418L7.94508 24.6658C7.88622 24.6449 7.82557 24.6344 7.76312 24.6344L6.89727 24.6093C6.85104 24.6064 6.80503 24.6085 6.75924 24.6156L6.04397 24.7536C6.02285 24.7567 6.00194 24.7609 5.98123 24.7662L5.51066 24.9042C5.46919 24.9168 5.42945 24.9335 5.39145 24.9544L5.1593 25.0799C5.00889 25.161 4.91268 25.2844 4.87069 25.4501L4.85186 25.5065C4.7872 25.7752 4.87922 25.9697 5.12793 26.09Z" fill="black"/>
<path d="M13.1026 25.494C13.1026 25.6049 13.1418 25.6995 13.2202 25.7779C13.2986 25.8563 13.3932 25.8955 13.5041 25.8955C13.615 25.8955 13.7096 25.8563 13.788 25.7779C13.8665 25.6995 13.9057 25.6049 13.9057 25.494C13.9057 25.3831 13.8665 25.2884 13.788 25.21C13.7096 25.1316 13.615 25.0924 13.5041 25.0924C13.3932 25.0924 13.2986 25.1316 13.2202 25.21C13.1418 25.2884 13.1026 25.3831 13.1026 25.494ZM13.0837 25.494C13.0837 25.6101 13.1248 25.7091 13.2069 25.7912C13.2889 25.8733 13.388 25.9143 13.5041 25.9143C13.6202 25.9143 13.7193 25.8733 13.8014 25.7912C13.8834 25.7091 13.9245 25.6101 13.9245 25.494C13.9245 25.3779 13.8834 25.2788 13.8014 25.1967C13.7193 25.1146 13.6202 25.0736 13.5041 25.0736C13.388 25.0736 13.2889 25.1146 13.2069 25.1967C13.1248 25.2788 13.0837 25.3779 13.0837 25.494ZM12.952 25.4814C12.952 25.6304 13.0046 25.7576 13.11 25.863C13.2154 25.9683 13.3426 26.021 13.4916 26.021C13.6406 26.021 13.7677 25.9683 13.8731 25.863C13.9785 25.7576 14.0311 25.6304 14.0311 25.4814C14.0311 25.3324 13.9785 25.2052 13.8731 25.0999C13.7677 24.9945 13.6406 24.9418 13.4916 24.9418C13.3426 24.9418 13.2154 24.9945 13.11 25.0999C13.0046 25.2052 12.952 25.3324 12.952 25.4814ZM13.7488 25.9959L13.7927 25.9771H13.7864L13.8492 25.9708L14.1315 25.9645L14.6084 25.9896L15.217 26.0524L15.9072 26.1653L16.6412 26.3284C16.6475 26.3306 16.6538 26.3327 16.6601 26.3347L17.3879 26.4853C17.4004 26.4878 17.4129 26.4898 17.4255 26.4916L18.053 26.5794L18.5235 26.6924L18.831 26.9245C18.9732 27.0291 19.0966 27.0103 19.2011 26.868C19.3057 26.7258 19.2869 26.6024 19.1447 26.4979L18.8247 26.2594L18.5047 25.8453C18.4913 25.8275 18.4766 25.8108 18.4608 25.7951L17.9839 25.3434C17.9317 25.2943 17.8732 25.2545 17.8083 25.2242L17.1369 24.9042C17.0966 24.8837 17.0547 24.867 17.0114 24.854L16.2648 24.6469C16.2359 24.639 16.2066 24.6327 16.1769 24.6281L15.4366 24.5152C15.4199 24.5125 15.4032 24.5105 15.3864 24.5089L14.7339 24.4524C14.7047 24.4487 14.6754 24.4466 14.646 24.4462L14.1315 24.4587C14.0937 24.458 14.0561 24.4601 14.0186 24.465L13.6798 24.5277C13.6237 24.536 13.5693 24.5507 13.5167 24.5717L13.341 24.6469C13.1994 24.7049 13.0886 24.799 13.0084 24.9293L12.9582 25.0171C12.8766 25.1531 12.8473 25.2995 12.8704 25.4563L12.8767 25.5191C12.8906 25.6158 12.9255 25.7044 12.9812 25.7847C13.0369 25.865 13.1077 25.9287 13.1935 25.9756C13.2793 26.0225 13.371 26.0477 13.4688 26.0513C13.5665 26.0549 13.6598 26.0364 13.7488 25.9959Z" fill="black"/>
<path d="M17.7831 26.0775C17.7831 26.1746 17.8174 26.2574 17.886 26.326C17.9547 26.3946 18.0375 26.4289 18.1345 26.4289C18.2315 26.4289 18.3143 26.3946 18.3829 26.326C18.4516 26.2574 18.4859 26.1746 18.4859 26.0775C18.4859 25.9805 18.4516 25.8977 18.3829 25.8291C18.3143 25.7605 18.2315 25.7262 18.1345 25.7262C18.0375 25.7262 17.9547 25.7605 17.886 25.8291C17.8174 25.8977 17.7831 25.9805 17.7831 26.0775ZM17.7267 26.065C17.7267 26.1811 17.7677 26.2801 17.8498 26.3622C17.9319 26.4443 18.031 26.4854 18.147 26.4854C18.2631 26.4854 18.3622 26.4443 18.4443 26.3622C18.5264 26.2801 18.5674 26.1811 18.5674 26.065C18.5674 25.9489 18.5264 25.8498 18.4443 25.7677C18.3622 25.6856 18.2631 25.6446 18.147 25.6446C18.031 25.6446 17.9319 25.6856 17.8498 25.7677C17.7677 25.8498 17.7267 25.9489 17.7267 26.065ZM18.0592 26.4916L18.1219 26.5105C18.0627 26.4538 17.9937 26.4141 17.9149 26.3912L17.9714 26.4477L18.078 26.5481C18.1054 26.5735 18.1347 26.5965 18.1659 26.6171L18.3541 26.7426C18.3623 26.7491 18.3707 26.7553 18.3792 26.7614L18.6615 26.9308C18.6677 26.9351 18.674 26.9393 18.6804 26.9434L19.0003 27.1191L19.2764 27.3073L19.5462 27.5645C19.5847 27.6004 19.6265 27.6318 19.6717 27.6586L19.9666 27.8406C19.9809 27.8475 19.9956 27.8538 20.0105 27.8594L20.136 27.9222L20.1799 28.0978C20.2219 28.2691 20.3285 28.3338 20.4998 28.292C20.6711 28.2502 20.736 28.1437 20.6944 27.9724L20.6442 27.7716L20.7258 27.6147C20.7592 27.5432 20.776 27.4679 20.776 27.3889L20.7822 27.0438C20.7857 26.8617 20.7292 26.7007 20.6128 26.5606L20.3368 26.2344C20.2864 26.1729 20.2279 26.1206 20.1611 26.0775L19.8035 25.8454C19.7832 25.8318 19.7622 25.8193 19.7407 25.8077L19.3831 25.6258C19.3706 25.6213 19.3581 25.6171 19.3454 25.6132L19.0505 25.4815C19.0002 25.4588 18.9479 25.4421 18.8937 25.4313L18.6741 25.3874C18.5574 25.3633 18.4424 25.3696 18.329 25.4062L18.191 25.4564C18.0662 25.4961 17.9658 25.5693 17.8898 25.676L17.8647 25.7073L17.8522 25.7262C17.7964 25.7849 17.7586 25.8535 17.7388 25.932C17.7189 26.0105 17.7196 26.0889 17.7407 26.167C17.7619 26.2452 17.8008 26.3132 17.8575 26.371C17.9142 26.4288 17.9815 26.469 18.0592 26.4916Z" fill="black"/>
<path d="M20.0043 29.2397C20.0043 29.3454 20.0416 29.4356 20.1164 29.5104C20.1911 29.5851 20.2813 29.6225 20.387 29.6225C20.4927 29.6225 20.5829 29.5851 20.6576 29.5104C20.7324 29.4356 20.7697 29.3454 20.7697 29.2397C20.7697 29.134 20.7324 29.0438 20.6576 28.9691C20.5829 28.8944 20.4927 28.857 20.387 28.857C20.2813 28.857 20.1911 28.8944 20.1164 28.9691C20.0416 29.0438 20.0043 29.134 20.0043 29.2397ZM20.6819 29.5095L20.707 29.4782C20.6691 29.4999 20.6356 29.5271 20.6066 29.5597L20.6129 29.5534L20.6317 29.5472C20.6685 29.5408 20.704 29.5304 20.7384 29.5158L20.8576 29.4656C20.8956 29.4488 20.9311 29.4279 20.9642 29.4029L21.096 29.3025C21.1232 29.2818 21.1483 29.2588 21.1713 29.2335L21.2905 29.1017C21.297 29.0935 21.3033 29.0851 21.3093 29.0766L21.4599 28.8946L21.7046 28.6374L22.056 28.2986L22.4952 27.9221L22.9846 27.5457L23.4677 27.1943L23.8943 26.9496L24.2394 26.8555H24.5719L24.7664 26.8618L24.8857 26.9873C25.0111 27.1086 25.1345 27.1065 25.2558 26.981C25.3771 26.8555 25.375 26.7321 25.2496 26.6108L25.0676 26.4414L24.9045 26.2155C24.8472 26.1383 24.7719 26.0881 24.6786 26.065L24.2959 25.9646C24.2398 25.9517 24.1833 25.9496 24.1265 25.9583L23.6434 26.021C23.6068 26.0253 23.5713 26.0337 23.5367 26.0461L22.9908 26.2532C22.9694 26.2602 22.9485 26.2686 22.9281 26.2783L22.3697 26.5794C22.3456 26.5924 22.3226 26.6071 22.3007 26.6234L21.7862 26.9998C21.7754 27.0078 21.765 27.0162 21.7548 27.0249L21.2905 27.4202C21.2774 27.4322 21.2648 27.4447 21.2529 27.4578L20.8889 27.8217C20.8733 27.8376 20.8587 27.8544 20.845 27.8719L20.6003 28.1731L20.4435 28.3739L20.3305 28.5119C20.3263 28.516 20.3221 28.5202 20.318 28.5245L20.2176 28.6562C20.1925 28.6893 20.1716 28.7249 20.1549 28.7629L20.1047 28.8821C20.0901 28.9164 20.0796 28.952 20.0733 28.9888L20.067 29.0076L20.0607 29.0139C20.0506 29.0341 20.0422 29.055 20.0356 29.0766L20.0231 29.1142C19.9406 29.3195 19.9942 29.4791 20.1839 29.5929C20.3736 29.7067 20.5396 29.6789 20.6819 29.5095Z" fill="black"/>
<path d="M19.6842 26.3661H19.6968C19.7997 26.3291 19.875 26.2614 19.9226 26.1628C19.9701 26.0643 19.9764 25.9632 19.9413 25.8595C19.9062 25.7559 19.8399 25.6794 19.7422 25.63C19.6446 25.5806 19.5436 25.5724 19.4394 25.6056C19.3351 25.6387 19.2573 25.7036 19.2061 25.8003C19.1549 25.897 19.1448 25.9977 19.176 26.1026V26.1152C19.2102 26.2211 19.2773 26.2987 19.3771 26.348C19.4769 26.3973 19.5793 26.4033 19.6842 26.3661ZM19.1133 25.952C19.1133 26.0751 19.1568 26.1801 19.2437 26.267C19.3307 26.354 19.4357 26.3975 19.5587 26.3975C19.6817 26.3975 19.7867 26.354 19.8737 26.267C19.9607 26.1801 20.0042 26.0751 20.0042 25.952C20.0042 25.829 19.9607 25.724 19.8737 25.637C19.7867 25.5501 19.6817 25.5066 19.5587 25.5066C19.4357 25.5066 19.3307 25.5501 19.2437 25.637C19.1568 25.724 19.1133 25.829 19.1133 25.952ZM19.0442 25.9207C19.0442 26.0593 19.0932 26.1776 19.1913 26.2756C19.2893 26.3736 19.4076 26.4226 19.5462 26.4226C19.6848 26.4226 19.8031 26.3736 19.9011 26.2756C19.9991 26.1776 20.0481 26.0593 20.0481 25.9207C20.0481 25.7821 19.9991 25.6638 19.9011 25.5657C19.8031 25.4677 19.6848 25.4187 19.5462 25.4187C19.4076 25.4187 19.2893 25.4677 19.1913 25.5657C19.0932 25.6638 19.0442 25.7821 19.0442 25.9207ZM19.0066 26.0713L19.0191 26.134C19.0486 26.2354 19.1009 26.3233 19.176 26.3975L19.4458 26.6736C19.4499 26.6778 19.4541 26.682 19.4583 26.6861L19.6905 26.8995C19.7103 26.9196 19.7312 26.9384 19.7532 26.9559L20.0544 27.1881C20.0881 27.2121 20.1237 27.233 20.1611 27.2508L20.5438 27.4453C20.5878 27.469 20.6338 27.4878 20.6818 27.5018L21.0834 27.6147C21.1226 27.6243 21.1623 27.6306 21.2026 27.6335L21.5979 27.6775C21.6522 27.6836 21.7066 27.6836 21.761 27.6775L22.1186 27.6335C22.1569 27.6282 22.1946 27.6198 22.2316 27.6084L22.5829 27.5081C22.6263 27.4952 22.6682 27.4785 22.7084 27.4579L23.1037 27.2571C23.1143 27.2532 23.1247 27.249 23.1351 27.2445L23.5805 26.9873L24.0386 26.7301L24.4464 26.5105L24.7601 26.3599L25.0048 26.2846L25.1742 26.2595L25.2056 26.2658L25.2683 26.3034L25.4064 26.4289L25.5507 26.6548C25.5693 26.6817 25.5903 26.7068 25.6134 26.7301L25.8079 26.9371C25.8412 26.9703 25.8788 26.9975 25.9208 27.0187L25.971 27.05L25.9899 27.1065C26.0511 27.2378 26.152 27.2859 26.2926 27.2507C26.4331 27.2156 26.4995 27.1257 26.4918 26.981L26.4793 26.912L26.5106 26.8493C26.5468 26.785 26.5657 26.716 26.5671 26.6422V26.3536C26.569 26.2915 26.5606 26.2309 26.542 26.1716L26.4291 25.8454C26.4203 25.8196 26.4099 25.7945 26.3977 25.7701L26.2534 25.4877C26.2138 25.4053 26.1594 25.3342 26.0902 25.2744L25.8644 25.0925C25.7689 25.0144 25.6601 24.9663 25.5381 24.9482L25.2683 24.9042C25.2035 24.8948 25.1387 24.8948 25.0738 24.9042L24.7601 24.9482C24.726 24.954 24.6925 24.9623 24.6597 24.9733L24.3146 25.0736C24.2933 25.081 24.2724 25.0893 24.2519 25.0987L23.8692 25.2556C23.8586 25.2595 23.8481 25.2637 23.8378 25.2681L23.3986 25.4752C23.3922 25.4793 23.386 25.4835 23.3798 25.4877L22.9029 25.7262C22.8987 25.7303 22.8945 25.7345 22.8904 25.7387L22.4512 25.9771L22.1249 26.1277L21.8865 26.1967L21.6606 26.2281L21.3971 26.203L21.1085 26.134L20.8199 26.0022L20.5563 25.8328L20.3054 25.6572C20.2872 25.6436 20.2684 25.6311 20.2489 25.6195L19.9101 25.4313C19.8472 25.3964 19.7803 25.3734 19.7093 25.3623L19.6466 25.3497C19.5501 25.3341 19.4557 25.3427 19.3636 25.3755C19.2715 25.4083 19.193 25.4613 19.1281 25.5345C19.0632 25.6076 19.02 25.6919 18.9984 25.7872C18.9768 25.8826 18.9796 25.9773 19.0066 26.0713Z" fill="black"/>
<path d="M24.1829 26.065C24.1829 26.1741 24.2215 26.2673 24.2987 26.3445C24.3758 26.4217 24.469 26.4603 24.5782 26.4603C24.6873 26.4603 24.7805 26.4217 24.8577 26.3445C24.9348 26.2673 24.9734 26.1741 24.9734 26.065C24.9734 25.9558 24.9348 25.8627 24.8577 25.7855C24.7805 25.7083 24.6873 25.6697 24.5782 25.6697C24.469 25.6697 24.3758 25.7083 24.2987 25.7855C24.2215 25.8627 24.1829 25.9558 24.1829 26.065ZM24.1641 26.3034L24.1892 26.3473C24.2464 26.4574 24.3301 26.541 24.4401 26.5983L24.6095 26.6799C24.6218 26.6887 24.6343 26.697 24.6472 26.705L24.8793 26.7991L25.0989 26.9183L25.2872 27.0626L25.4566 27.2571L25.582 27.4516L25.6197 27.69L25.582 27.9975C25.5745 28.0414 25.5745 28.0853 25.582 28.1292L25.6197 28.2986L25.582 28.4116C25.528 28.5662 25.5783 28.6706 25.7328 28.7249C25.8873 28.7792 25.9918 28.7291 26.0463 28.5747L26.0903 28.4618L26.222 28.3363C26.2707 28.2929 26.3063 28.2406 26.3287 28.1794L26.4542 27.8281C26.4563 27.8239 26.4584 27.8197 26.4604 27.8155L26.5859 27.4265C26.5984 27.3898 26.6068 27.3521 26.611 27.3136L26.6487 26.9246C26.6612 26.7885 26.634 26.661 26.5671 26.5418L26.3852 26.2093C26.3367 26.1199 26.2718 26.0446 26.1906 25.9834L25.902 25.7701C25.8611 25.738 25.8172 25.7108 25.7703 25.6885L25.4691 25.5505C25.4051 25.5214 25.3381 25.5026 25.2683 25.494L24.9923 25.4564C24.9295 25.4472 24.8668 25.4472 24.804 25.4564L24.6221 25.4878C24.4565 25.5112 24.3248 25.5907 24.2268 25.7262L24.2017 25.7701C24.0792 25.9401 24.0667 26.1179 24.1641 26.3034Z" fill="black"/>
<path d="M24.3397 26.2406C24.3397 26.3463 24.3771 26.4365 24.4518 26.5112C24.5265 26.586 24.6168 26.6233 24.7224 26.6233C24.8281 26.6233 24.9183 26.586 24.9931 26.5112C25.0678 26.4365 25.1052 26.3463 25.1052 26.2406C25.1052 26.1349 25.0678 26.0447 24.9931 25.97C24.9183 25.8953 24.8281 25.8579 24.7224 25.8579C24.6168 25.8579 24.5265 25.8953 24.4518 25.97C24.3771 26.0447 24.3397 26.1349 24.3397 26.2406ZM24.3146 26.2281C24.3146 26.3407 24.3544 26.4368 24.4341 26.5164C24.5137 26.5961 24.6098 26.6359 24.7224 26.6359C24.8351 26.6359 24.9312 26.5961 25.0108 26.5164C25.0905 26.4368 25.1303 26.3407 25.1303 26.2281C25.1303 26.1155 25.0905 26.0193 25.0108 25.9397C24.9312 25.8601 24.8351 25.8202 24.7224 25.8202C24.6098 25.8202 24.5137 25.8601 24.4341 25.9397C24.3544 26.0193 24.3146 26.1155 24.3146 26.2281ZM24.5468 26.6986L24.6722 26.7614C24.7414 26.7971 24.8146 26.8201 24.8918 26.8304L25.1554 26.8618C25.1887 26.8663 25.2221 26.8684 25.2558 26.868L25.582 26.8618C25.7313 26.8583 25.863 26.8083 25.9769 26.7118C26.0909 26.6153 26.1619 26.4937 26.1899 26.347C26.2179 26.2002 26.1966 26.061 26.1262 25.9293C26.0557 25.7977 25.9517 25.7027 25.8142 25.6446L25.5193 25.5191C25.4025 25.4695 25.2812 25.4528 25.1554 25.4689L24.8918 25.5003C24.7309 25.52 24.595 25.589 24.484 25.7073L24.3899 25.814C24.2635 25.9511 24.2166 26.1115 24.2492 26.2952C24.2818 26.4788 24.3809 26.6133 24.5468 26.6986ZM25.7577 26.6108L26.04 26.7802C26.1948 26.8722 26.3182 26.8409 26.4102 26.6861C26.5022 26.5313 26.4709 26.4079 26.3161 26.3159L26.0338 26.1465C25.879 26.0545 25.7556 26.0859 25.6636 26.2406C25.5716 26.3954 25.6029 26.5188 25.7577 26.6108Z" fill="black"/>
<path d="M10.5037 10.2217C10.5037 10.3308 10.5423 10.424 10.6195 10.5012C10.6967 10.5784 10.7898 10.617 10.899 10.617C11.0081 10.617 11.1013 10.5784 11.1785 10.5012C11.2557 10.424 11.2943 10.3308 11.2943 10.2217C11.2943 10.1125 11.2557 10.0194 11.1785 9.94219C11.1013 9.86501 11.0081 9.82642 10.899 9.82642C10.7898 9.82642 10.6967 9.86501 10.6195 9.94219C10.5423 10.0194 10.5037 10.1125 10.5037 10.2217ZM10.5037 10.2217C10.5037 10.3308 10.5423 10.424 10.6195 10.5012C10.6967 10.5784 10.7898 10.617 10.899 10.617C11.0081 10.617 11.1013 10.5784 11.1785 10.5012C11.2557 10.424 11.2943 10.3308 11.2943 10.2217C11.2943 10.1125 11.2557 10.0194 11.1785 9.94219C11.1013 9.86501 11.0081 9.82642 10.899 9.82642C10.7898 9.82642 10.6967 9.86501 10.6195 9.94219C10.5423 10.0194 10.5037 10.1125 10.5037 10.2217ZM10.4598 10.2154C10.4598 10.3315 10.5008 10.4306 10.5829 10.5127C10.665 10.5948 10.7641 10.6358 10.8802 10.6358C10.9963 10.6358 11.0953 10.5948 11.1774 10.5127C11.2595 10.4306 11.3005 10.3315 11.3005 10.2154C11.3005 10.0993 11.2595 10.0003 11.1774 9.91817C11.0953 9.83609 10.9963 9.79505 10.8802 9.79505C10.7641 9.79505 10.665 9.83609 10.5829 9.91817C10.5008 10.0003 10.4598 10.0993 10.4598 10.2154ZM10.5037 9.93935L10.441 10.0084C10.4078 10.0522 10.3827 10.1003 10.3657 10.1527L10.2904 10.366C10.2826 10.3886 10.2763 10.4116 10.2716 10.435L10.1775 10.8679C10.1726 10.8845 10.1684 10.9012 10.1649 10.9181L10.0645 11.7526C10.0645 11.7568 10.0645 11.761 10.0645 11.7652L9.93903 12.9949C9.93899 12.9991 9.93899 13.0033 9.93903 13.0075L9.81355 14.5321C9.81353 14.5342 9.81353 14.5363 9.81355 14.5384L9.70061 16.1885C9.7006 16.1906 9.7006 16.1927 9.70061 16.1948L9.59395 17.8638L9.49983 19.4951C9.49982 19.4972 9.49982 19.4992 9.49983 19.5013L9.41199 21.0887L9.31788 22.6134L9.23631 24.0376C9.2363 24.0397 9.2363 24.0418 9.23631 24.0439L9.17357 25.3113C9.17353 25.3155 9.17353 25.3197 9.17357 25.3239L9.1422 26.403C9.14001 26.4093 9.13792 26.4156 9.13593 26.4219V27.294C9.13695 27.315 9.13905 27.3359 9.1422 27.3567L9.21122 28.0281C9.21571 28.0666 9.22407 28.1042 9.23631 28.141L9.38062 28.6053L9.46219 28.9065C9.46401 28.9149 9.4661 28.9233 9.46846 28.9316L9.52493 29.0884C9.55352 29.1941 9.61529 29.2742 9.71023 29.3287C9.80518 29.3832 9.9055 29.3962 10.0112 29.3676C10.1169 29.339 10.197 29.2773 10.2515 29.1823C10.306 29.0874 10.319 28.9871 10.2904 28.8814L10.2653 28.7559V28.5049L10.328 28.0469C10.3306 28.0344 10.3326 28.0219 10.3343 28.0092L10.3782 27.3379C10.3784 27.3295 10.3784 27.3212 10.3782 27.3128L10.3971 26.4407L10.441 25.3741L10.5037 24.1067L10.5853 22.6887L10.6668 21.164L10.7547 19.5704L10.8613 17.939L10.968 16.2764L11.0935 14.6325L11.219 13.1141L11.3319 11.8844C11.3342 11.8761 11.3363 11.8677 11.3382 11.8593L11.3696 11.0185C11.3709 10.9955 11.3709 10.9725 11.3696 10.9495L11.3382 10.5103C11.3385 10.4999 11.3385 10.4894 11.3382 10.4789L11.3131 10.2782L11.3068 10.2029C11.2977 9.99488 11.1942 9.85843 10.9964 9.79352C10.7985 9.72861 10.6343 9.77722 10.5037 9.93935ZM10.052 29.2578L10.0771 29.2453C10.236 29.1658 10.2758 29.0466 10.1963 28.8876C10.1168 28.7287 9.99759 28.689 9.83864 28.7684L9.81355 28.781C9.65512 28.8606 9.61556 28.9798 9.69486 29.1384C9.77416 29.2969 9.8932 29.3368 10.052 29.2578Z" fill="black"/>
<path d="M9.36804 28.3668C9.36804 28.4708 9.4048 28.5595 9.4783 28.633C9.55181 28.7065 9.64054 28.7433 9.7445 28.7433C9.84845 28.7433 9.93718 28.7065 10.0107 28.633C10.0842 28.5595 10.121 28.4708 10.121 28.3668C10.121 28.2629 10.0842 28.1741 10.0107 28.1006C9.93718 28.0271 9.84845 27.9904 9.7445 27.9904C9.64054 27.9904 9.55181 28.0271 9.4783 28.1006C9.4048 28.1741 9.36804 28.2629 9.36804 28.3668ZM9.32412 28.3668C9.32412 28.4794 9.36394 28.5756 9.44357 28.6552C9.5232 28.7348 9.61933 28.7747 9.73195 28.7747C9.84457 28.7747 9.94069 28.7348 10.0203 28.6552C10.1 28.5756 10.1398 28.4794 10.1398 28.3668C10.1398 28.2542 10.1 28.1581 10.0203 28.0784C9.94069 27.9988 9.84457 27.959 9.73195 27.959C9.61933 27.959 9.5232 27.9988 9.44357 28.0784C9.36394 28.1581 9.32412 28.2542 9.32412 28.3668ZM9.2551 28.3857C9.2551 28.5139 9.30043 28.6233 9.39109 28.714C9.48175 28.8046 9.59119 28.8499 9.7194 28.8499C9.84761 28.8499 9.95705 28.8046 10.0477 28.714C10.1384 28.6233 10.1837 28.5139 10.1837 28.3857C10.1837 28.2574 10.1384 28.148 10.0477 28.0573C9.95705 27.9667 9.84761 27.9214 9.7194 27.9214C9.59119 27.9214 9.48175 27.9667 9.39109 28.0573C9.30043 28.148 9.2551 28.2574 9.2551 28.3857ZM9.3304 28.0531L9.27393 28.1033C9.16508 28.2082 9.10233 28.3358 9.0857 28.486L9.06688 28.6617C9.05103 28.8082 9.07822 28.9463 9.14844 29.0758L9.2802 29.3205C9.3226 29.3972 9.37698 29.4641 9.44333 29.5213L9.70058 29.7472C9.75023 29.7899 9.80461 29.8255 9.86371 29.8538L10.2402 30.0358C10.2981 30.0646 10.3587 30.0855 10.4221 30.0985L10.9241 30.1989C10.9738 30.2082 11.024 30.2124 11.0746 30.2115H11.6644C11.7219 30.2097 11.7783 30.2014 11.8338 30.1864L12.4487 30.0358C12.5752 30.0036 12.6819 29.9387 12.7687 29.8413L13.0448 29.5338L13.4589 29.4272C13.6301 29.3852 13.6948 29.2786 13.653 29.1073C13.6113 28.936 13.5047 28.8711 13.3334 28.9127L12.9318 29.0131L12.5742 28.8437C12.4953 28.8033 12.4117 28.7803 12.3232 28.7747L11.6958 28.7433C11.6895 28.7432 11.6832 28.7432 11.677 28.7433L11.1562 28.7307L10.8048 28.6617L10.5852 28.5551L10.4535 28.4484L10.3406 28.3041C10.323 28.282 10.3042 28.2611 10.2841 28.2413L10.1649 28.1159C10.129 28.0796 10.0892 28.0483 10.0457 28.0217L9.98292 27.9841C9.74746 27.8374 9.52995 27.8604 9.3304 28.0531Z" fill="black"/>
<path d="M14.4251 10.5479C14.4251 10.6501 14.4612 10.7374 14.5335 10.8097C14.6058 10.882 14.6931 10.9181 14.7953 10.9181C14.8975 10.9181 14.9847 10.882 15.057 10.8097C15.1293 10.7374 15.1655 10.6501 15.1655 10.5479C15.1655 10.4457 15.1293 10.3584 15.057 10.2862C14.9847 10.2139 14.8975 10.1777 14.7953 10.1777C14.6931 10.1777 14.6058 10.2139 14.5335 10.2862C14.4612 10.3584 14.4251 10.4457 14.4251 10.5479ZM14.5882 10.2279L14.5694 10.2405C14.4741 10.3011 14.4155 10.3869 14.3937 10.4977V10.504L14.3373 10.6107C14.3327 10.621 14.3285 10.6314 14.3247 10.642L14.1929 10.9557C14.1758 10.9962 14.1633 11.038 14.1553 11.0812L14.0298 11.7651C14.0271 11.7818 14.025 11.7985 14.0235 11.8153L13.9106 12.9008C13.9105 12.907 13.9105 12.9133 13.9106 12.9196L13.7914 14.3313L13.6659 15.9563C13.6659 15.9584 13.6659 15.9605 13.6659 15.9626L13.553 17.6504C13.5529 17.6546 13.5529 17.6587 13.553 17.6629L13.4651 19.2942C13.4651 19.2963 13.4651 19.2984 13.4651 19.3005L13.4024 20.8189C13.4003 20.821 13.3982 20.8231 13.3961 20.8252L13.3585 22.1741L13.3145 23.3411L13.2581 24.3513L13.2016 25.2548L13.1451 26.0454L13.0887 26.7292C13.0887 26.7313 13.0887 26.7334 13.0887 26.7355L13.051 27.3002L13.0197 27.7582C13.0196 27.7624 13.0196 27.7666 13.0197 27.7708L13.0008 28.1096C12.9997 28.1326 12.9997 28.1556 13.0008 28.1786L13.0134 28.4045C13.0162 28.4732 13.0287 28.5402 13.051 28.6053L13.0949 28.737C13.1125 28.7877 13.1355 28.8358 13.164 28.8813L13.2142 28.9692C13.2444 29.0174 13.28 29.0613 13.3208 29.1009L13.3836 29.1637L13.4275 29.2076C13.4295 29.2118 13.4316 29.216 13.4338 29.2201L13.4589 29.239C13.5818 29.3661 13.7314 29.4368 13.9077 29.451C14.084 29.4651 14.243 29.4193 14.3847 29.3134C14.5264 29.2076 14.6154 29.0681 14.6518 28.895C14.6881 28.7219 14.6628 28.5584 14.5757 28.4045L14.5569 28.3731C14.5235 28.3104 14.4817 28.2539 14.4314 28.2037L14.3874 28.1598L14.3749 28.141L14.3498 28.1159C14.3712 28.1855 14.4025 28.2504 14.4439 28.3104L14.4314 28.2664V28.1661L14.4502 27.8523L14.4816 27.4006L14.5192 26.8359L14.5757 26.1583C14.5757 26.1562 14.5757 26.1541 14.5757 26.152L14.6321 25.3552C14.6321 25.3531 14.6321 25.351 14.6321 25.3489L14.6886 24.4391C14.6886 24.435 14.6886 24.4308 14.6886 24.4266L14.7325 23.4039C14.7325 23.4018 14.7325 23.3997 14.7325 23.3976L14.7765 22.2306L14.8329 20.8816L14.9082 19.3695L15.0086 17.7445L15.1215 16.063L15.247 14.4442C15.247 14.4421 15.247 14.44 15.247 14.438L15.3411 13.0262C15.3433 13.02 15.3454 13.0137 15.3474 13.0074L15.3913 11.922C15.3925 11.899 15.3925 11.876 15.3913 11.853L15.3537 11.1565C15.35 11.0961 15.3374 11.0375 15.316 10.9808L15.1968 10.6608C15.1969 10.6567 15.1969 10.6525 15.1968 10.6483L15.1404 10.5165C15.1377 10.5774 15.1481 10.636 15.1717 10.6922V10.6483V10.6358L15.178 10.6232C15.2063 10.4576 15.1507 10.3281 15.0111 10.2346C14.8716 10.141 14.7306 10.1388 14.5882 10.2279ZM13.7788 28.0657L13.6534 28.0908C13.3822 28.1482 13.2463 28.3155 13.2455 28.5927V28.7245C13.2446 28.9213 13.3159 29.0871 13.4594 29.2219C13.603 29.3566 13.773 29.4172 13.9694 29.4038C14.1658 29.3904 14.3259 29.3071 14.4498 29.1541C14.5737 29.0011 14.6218 28.8271 14.594 28.6322C14.5662 28.4373 14.4715 28.2837 14.3099 28.1713C14.1482 28.059 13.9712 28.0237 13.7788 28.0657ZM13.8416 28.2978L13.7475 28.2163C13.6105 28.1088 13.4846 28.1205 13.3697 28.2512C13.2548 28.382 13.2594 28.5083 13.3836 28.6304L13.4777 28.7119C13.6146 28.8194 13.7406 28.8077 13.8555 28.677C13.9704 28.5462 13.9657 28.4198 13.8416 28.2978Z" fill="black"/>
<path d="M11.3382 9.93932H11.3257C11.2793 9.9335 11.2333 9.93559 11.1876 9.94559L11.1625 9.95187C11.0515 9.97847 10.9645 10.0395 10.9017 10.1349C10.8389 10.2303 10.8173 10.3343 10.8368 10.4469C10.8563 10.5594 10.9117 10.65 11.003 10.7187C11.0942 10.7874 11.1966 10.8156 11.3102 10.8033C11.4237 10.7909 11.5177 10.7414 11.592 10.6547C11.6664 10.5679 11.701 10.4675 11.6959 10.3534L11.6896 10.3283C11.6898 10.32 11.6898 10.3116 11.6896 10.3032V10.2907C11.6671 10.0789 11.55 9.96179 11.3382 9.93932ZM10.7798 10.3973C10.7799 10.5255 10.8252 10.6349 10.9159 10.7255C11.0065 10.8161 11.1159 10.8614 11.2441 10.8614C11.3723 10.8614 11.4817 10.8161 11.5723 10.7255C11.663 10.6349 11.7083 10.5255 11.7084 10.3973C11.7083 10.2692 11.663 10.1598 11.5723 10.0692C11.4817 9.97857 11.3723 9.93327 11.2441 9.93327C11.1159 9.93327 11.0065 9.97857 10.9159 10.0692C10.8252 10.1598 10.7799 10.2692 10.7798 10.3973ZM10.8237 10.0523L10.7861 10.0899C10.6926 10.1819 10.6362 10.2928 10.6167 10.4224L10.5979 10.5416C10.5829 10.6419 10.5912 10.7402 10.623 10.8365L10.6857 11.0373C10.7085 11.1076 10.742 11.1725 10.7861 11.2318L10.9618 11.4577C10.9995 11.5096 11.0434 11.5556 11.0935 11.5957L11.357 11.8028C11.3868 11.8261 11.4182 11.847 11.4512 11.8655L11.7649 12.0412C11.8031 12.0614 11.8429 12.0781 11.8841 12.0914L12.2354 12.2169C12.2823 12.2343 12.3304 12.2468 12.3797 12.2545L12.7813 12.3047C12.8375 12.3133 12.894 12.3154 12.9507 12.311L13.3899 12.2671C13.4259 12.2634 13.4615 12.2571 13.4966 12.2482L13.9107 12.1479C13.947 12.1401 13.9826 12.1296 14.0173 12.1165L14.3624 11.9722C14.413 11.9544 14.4611 11.9314 14.5067 11.9032L14.7577 11.7275C14.8256 11.6807 14.8842 11.6242 14.9334 11.5581L15.0902 11.351C15.1577 11.2586 15.2016 11.1562 15.222 11.0436L15.2659 10.8303C15.295 10.6786 15.2782 10.5322 15.2157 10.3911L15.1342 10.2028C15.0768 10.0742 14.989 9.9717 14.8706 9.8954L14.7012 9.78873C14.5968 9.71898 14.4817 9.68343 14.3561 9.68207H14.2056H14.0487C13.9368 9.67947 13.8405 9.71712 13.7601 9.79501L13.735 9.82011C13.8448 9.87114 13.9431 9.85441 14.0299 9.76991L13.9358 9.72599C13.7769 9.65081 13.6598 9.69266 13.5845 9.85153C13.5093 10.0104 13.5511 10.1275 13.7099 10.2028L13.804 10.2468C13.8475 10.1028 13.8015 9.99823 13.666 9.93304L13.6597 9.97069C13.6288 10.0693 13.6351 10.1655 13.6785 10.2593L13.7162 10.3409L13.735 10.4287C13.7367 10.4413 13.7388 10.4539 13.7413 10.4664L13.7852 10.6232V10.6609L13.804 10.5856L13.8228 10.5605L13.7413 10.6169L13.5154 10.7048L13.1954 10.7801L12.888 10.8114L12.6433 10.7863L12.4111 10.7111L12.1664 10.5856L11.9468 10.4475L11.8151 10.3409L11.7398 10.2468L11.677 10.1589C11.6954 10.2014 11.7184 10.2411 11.746 10.2781L11.7272 10.2342C11.6912 10.1494 11.6375 10.0779 11.5661 10.0196C11.4947 9.9614 11.4138 9.92318 11.3235 9.90499C11.2331 9.8868 11.1438 9.89073 11.0554 9.91677C10.967 9.94282 10.8898 9.98798 10.8237 10.0523Z" fill="black"/>
<path d="M11.7899 10.3032L11.8025 10.2969C11.9228 10.2701 12.0169 10.2053 12.0848 10.1024L12.1225 10.046C12.1316 10.0318 12.1399 10.0171 12.1476 10.002L12.1789 9.95185L12.2103 9.90793L12.3985 9.92675L12.7311 10.0209L13.1201 10.1589C13.1222 10.1589 13.1243 10.1589 13.1264 10.1589L13.4965 10.2844C13.5372 10.2994 13.579 10.3099 13.622 10.3158L13.9357 10.3471C13.9946 10.3547 14.0532 10.3526 14.1114 10.3409L14.3247 10.2907C14.3769 10.2791 14.425 10.2581 14.469 10.2279L14.5443 10.184C14.446 10.1176 14.3477 10.1176 14.2494 10.184L14.3373 10.2405C14.4798 10.3194 14.5958 10.2908 14.6852 10.1547C14.7747 10.0185 14.7549 9.90073 14.6259 9.80127L14.5381 9.7448C14.5447 9.83136 14.5845 9.89829 14.6573 9.94557L14.651 9.85774C14.6428 9.76081 14.6052 9.67716 14.5381 9.60676L14.3938 9.44991C14.3521 9.40397 14.304 9.36633 14.2494 9.33697L13.9671 9.19266C13.9448 9.18074 13.9218 9.17028 13.8981 9.16129L13.5279 9.02326C13.5237 9.02112 13.5196 9.01903 13.5154 9.01698L13.1013 8.87268C13.0868 8.86794 13.0721 8.86375 13.0573 8.86013L12.6558 8.75974C12.6229 8.75062 12.5894 8.74434 12.5554 8.74092L12.2166 8.70954C12.1307 8.70184 12.047 8.7123 11.9656 8.74092L11.7397 8.82248C11.623 8.86364 11.5289 8.93475 11.4574 9.03581L11.3445 9.19266C11.301 9.25566 11.2717 9.32468 11.2566 9.39971L11.219 9.5503C11.2113 9.59395 11.2093 9.63787 11.2127 9.68206V9.79499C11.2157 9.85846 11.2303 9.91911 11.2566 9.97695L11.2817 10.0397C11.3454 10.1789 11.452 10.2647 11.6017 10.2969L11.6143 10.3032C11.6728 10.3166 11.7314 10.3166 11.7899 10.3032Z" fill="black"/>
<path d="M12.6935 9.55657C12.6935 9.65187 12.7272 9.7332 12.7946 9.80059C12.8619 9.86797 12.9433 9.90166 13.0386 9.90166C13.1339 9.90166 13.2152 9.86797 13.2826 9.80059C13.35 9.7332 13.3837 9.65187 13.3837 9.55657C13.3837 9.46128 13.35 9.37994 13.2826 9.31256C13.2152 9.24518 13.1339 9.21149 13.0386 9.21149C12.9433 9.21149 12.8619 9.24518 12.7946 9.31256C12.7272 9.37994 12.6935 9.46128 12.6935 9.55657ZM12.6307 9.53775C12.6307 9.65037 12.6706 9.7465 12.7502 9.82613C12.8298 9.90576 12.9259 9.94558 13.0386 9.94558C13.1512 9.94558 13.2473 9.90576 13.3269 9.82613C13.4066 9.7465 13.4464 9.65037 13.4464 9.53775C13.4464 9.42513 13.4066 9.32901 13.3269 9.24937C13.2473 9.16974 13.1512 9.12992 13.0386 9.12992C12.9259 9.12992 12.8298 9.16974 12.7502 9.24937C12.6706 9.32901 12.6307 9.42513 12.6307 9.53775ZM13.4778 9.40599L13.4652 9.31815C13.4332 9.14067 13.339 9.00682 13.1829 8.9166L13.0009 8.81621C12.9196 8.7674 12.8318 8.73812 12.7374 8.72837L12.4551 8.70327C12.3762 8.69757 12.2988 8.70593 12.2229 8.72837L11.9092 8.80994C11.8466 8.82834 11.788 8.85552 11.7335 8.8915L11.4386 9.07973C11.3811 9.11771 11.3309 9.16372 11.288 9.21776L11.0684 9.48128C10.9988 9.56576 10.9549 9.66197 10.9367 9.7699L10.8928 10.0585C10.8554 10.2927 10.9404 10.4674 11.1475 10.5827C11.3547 10.6979 11.548 10.678 11.7272 10.5228L11.9406 10.3409L12.1602 10.1589L12.3484 10.0522L12.4864 10.0083H12.6747H12.8817C12.9505 10.0097 13.0174 9.99924 13.0825 9.97695L13.1641 9.95185C13.4249 9.85972 13.5295 9.67777 13.4778 9.40599ZM11.1375 10.4224L11.15 10.6357C11.1584 10.778 11.2337 10.8449 11.3759 10.8365C11.5181 10.8282 11.585 10.7529 11.5767 10.6107L11.5641 10.3973C11.5557 10.2552 11.4804 10.1883 11.3382 10.1966C11.1961 10.205 11.1292 10.2803 11.1375 10.4224Z" fill="black"/>
<path d="M13.164 10.1652L13.2581 10.046C13.296 9.99461 13.3232 9.93814 13.3397 9.87656L13.4025 9.68206C13.4181 9.63093 13.4265 9.57865 13.4276 9.5252V9.23031C13.4281 9.21567 13.4281 9.20103 13.4276 9.18639L13.4025 8.81621L13.3836 8.38328L13.3648 7.90644L13.3523 7.44214C13.3527 7.42959 13.3527 7.41705 13.3523 7.4045L13.3209 6.99667C13.3166 6.94722 13.3062 6.89911 13.2895 6.85236L13.2017 6.60766C13.176 6.53783 13.1362 6.47718 13.0825 6.42571L13.0135 6.35669C12.9238 6.26858 12.8164 6.2309 12.6913 6.24366C12.5662 6.25643 12.4686 6.31502 12.3986 6.41944L12.3421 6.49473C12.3183 6.52989 12.2995 6.56754 12.2856 6.60766L12.1978 6.85236C12.1811 6.89911 12.1707 6.94722 12.1664 6.99667L12.1351 7.4045C12.1344 7.42123 12.1344 7.43796 12.1351 7.45469V7.92526C12.1349 7.93363 12.1349 7.94199 12.1351 7.95036L12.1539 8.43348C12.1538 8.43766 12.1538 8.44184 12.1539 8.44603L12.1852 8.88522C12.1851 8.89359 12.1851 8.90196 12.1852 8.91032L12.2229 9.28678C12.2244 9.30149 12.2265 9.31613 12.2292 9.3307L12.2856 9.62559C12.2913 9.65767 12.2997 9.68904 12.3107 9.7197L12.3798 9.90793C12.3976 9.95787 12.4227 10.0039 12.455 10.046L12.5492 10.1652C12.627 10.2656 12.7295 10.3158 12.8566 10.3158C12.9837 10.3158 13.0862 10.2656 13.164 10.1652ZM12.5052 6.55747L12.4864 6.60766C12.4362 6.7457 12.4801 6.83981 12.6182 6.89001C12.7562 6.9402 12.8503 6.89628 12.9005 6.75825L12.9193 6.70805C12.9695 6.57002 12.9256 6.4759 12.7876 6.42571C12.6495 6.37552 12.5554 6.41944 12.5052 6.55747Z" fill="black"/>
<path d="M12.1852 8.03824C12.1852 8.25575 12.294 8.3645 12.5115 8.3645C12.729 8.3645 12.8377 8.25575 12.8377 8.03824C12.8377 7.82073 12.729 7.71198 12.5115 7.71198C12.294 7.71198 12.1852 7.82073 12.1852 8.03824ZM12.5993 7.61786L12.5052 7.56767L12.4048 7.50493L12.2981 7.42336L12.2291 7.34807L12.1727 7.21631L12.1099 6.95279C12.1082 6.94018 12.1061 6.92763 12.1036 6.91515L11.997 6.55751C11.9933 6.54272 11.9891 6.52808 11.9844 6.51359L11.8715 6.19361L11.8025 5.94891V5.72304L11.8652 5.43442L12.0472 5.04541L12.3232 4.58112L12.6056 4.14819C12.6077 4.14403 12.6098 4.13985 12.6119 4.13565L12.8503 3.75292C12.8546 3.74464 12.8588 3.73628 12.8628 3.72782L13.0448 3.40783C13.0539 3.39147 13.0623 3.37474 13.0699 3.35764L13.2079 3.0502C13.2203 3.02373 13.2307 2.99654 13.2393 2.96863L13.3397 2.62355C13.3449 2.60285 13.3491 2.58193 13.3522 2.5608L13.415 2.1969C13.4183 2.17401 13.4204 2.151 13.4212 2.12788L13.4401 1.80789C13.4431 1.77234 13.4431 1.73678 13.4401 1.70123L13.4087 1.43771C13.4007 1.36973 13.3819 1.3049 13.3522 1.24321L13.2707 1.06753C13.2317 0.988101 13.1773 0.921174 13.1075 0.866752L13.026 0.797735C12.9615 0.746371 12.8888 0.712907 12.8079 0.697343C12.727 0.681778 12.6471 0.685894 12.5682 0.709688C12.4893 0.733482 12.4204 0.774235 12.3616 0.831947C12.3028 0.889658 12.2607 0.957729 12.2354 1.03616L12.1978 1.13655C12.1743 1.21016 12.1659 1.28545 12.1727 1.36242L12.1852 1.55065L12.204 1.76397L12.1789 1.99612L12.1225 2.29101L12.0346 2.57335L11.928 2.81178L11.7648 3.09412L11.5327 3.4643L11.2503 3.9035C11.246 3.9097 11.2419 3.91597 11.2378 3.92232L10.9429 4.41799C10.9338 4.43435 10.9254 4.45108 10.9178 4.46818L10.6857 4.9513C10.6666 4.99159 10.652 5.03341 10.6417 5.07679L10.5351 5.50344C10.5212 5.55906 10.5149 5.61553 10.5163 5.67284L10.5225 6.05557C10.5223 6.10864 10.5286 6.16092 10.5414 6.21243L10.6355 6.55751C10.641 6.57451 10.6473 6.59124 10.6543 6.60771L10.7798 6.95279C10.7798 6.95488 10.7798 6.95698 10.7798 6.95907L10.9178 7.3167C10.9266 7.34248 10.9371 7.36757 10.9492 7.39199L11.1123 7.68061C11.1164 7.68696 11.1206 7.69324 11.1249 7.69943L11.2692 7.94413C11.2869 7.9776 11.3078 8.00897 11.3319 8.03824L11.495 8.20765C11.5336 8.24987 11.5775 8.28542 11.6268 8.31431L11.8088 8.42097C11.8707 8.45947 11.9376 8.48457 12.0095 8.49626L12.1852 8.51508C12.2247 8.52188 12.2644 8.52397 12.3044 8.52136L12.4362 8.50881C12.6726 8.48653 12.8121 8.35862 12.8549 8.12507C12.8977 7.89152 12.8125 7.72245 12.5993 7.61786ZM12.2793 1.124C12.2794 1.24002 12.3205 1.33904 12.4026 1.42106C12.4846 1.50307 12.5837 1.54408 12.6997 1.54408C12.8157 1.54408 12.9148 1.50307 12.9968 1.42106C13.0789 1.33904 13.12 1.24002 13.1201 1.124C13.12 1.00797 13.0789 0.908948 12.9968 0.826933C12.9148 0.744918 12.8157 0.703911 12.6997 0.703911C12.5837 0.703911 12.4846 0.744918 12.4026 0.826933C12.3205 0.908948 12.2794 1.00797 12.2793 1.124ZM12.8377 1.33105L12.8628 1.3185C13.0218 1.23903 13.0615 1.11981 12.982 0.960867C12.9026 0.801918 12.7834 0.762181 12.6244 0.841655L12.5993 0.854203C12.4404 0.933678 12.4006 1.05289 12.4801 1.21184C12.5596 1.37079 12.6788 1.41052 12.8377 1.33105Z" fill="black"/>
<path d="M12.5617 7.93157L12.6307 7.96294C12.681 7.98337 12.7333 7.99383 12.7876 7.99431H12.8879C12.935 7.99532 12.981 7.98904 13.026 7.97549L13.1577 7.93157C13.2002 7.91845 13.2399 7.89962 13.277 7.8751L13.4213 7.78098C13.4649 7.75182 13.5026 7.71626 13.5342 7.67432L13.6911 7.47354C13.7106 7.44807 13.7273 7.42088 13.7412 7.39198L13.8918 7.08454C13.902 7.06219 13.9104 7.03918 13.9169 7.01552L14.0424 6.61397C14.0508 6.58939 14.057 6.56429 14.0612 6.53868L14.1303 6.01791C14.1337 5.99714 14.1358 5.97623 14.1365 5.95517V5.34657C14.1372 5.33193 14.1372 5.31729 14.1365 5.30265L14.0675 4.65012C14.0659 4.63749 14.0638 4.62494 14.0612 4.61248L13.942 3.96623C13.9403 3.9557 13.9382 3.94524 13.9358 3.93486L13.7852 3.35135C13.7833 3.34292 13.7812 3.33456 13.7789 3.32625L13.622 2.83686C13.6221 2.83268 13.6221 2.82849 13.622 2.82431L13.4903 2.44158C13.4865 2.43097 13.4823 2.42052 13.4777 2.41021L13.3585 2.12787C13.3546 2.11938 13.3504 2.11101 13.346 2.10277L13.2456 1.90827C13.2399 1.89544 13.2336 1.88289 13.2268 1.87062L13.1515 1.75141C13.0891 1.64719 12.9997 1.57806 12.8831 1.54402C12.7666 1.50999 12.654 1.52012 12.5453 1.57443C12.4367 1.62874 12.3611 1.71273 12.3184 1.82641C12.2756 1.94008 12.2773 2.05312 12.3233 2.16551L12.3735 2.29727C12.381 2.31236 12.3894 2.327 12.3986 2.34119L12.4927 2.52942L12.6119 2.77412L12.7436 3.12548L12.8942 3.58977L13.0385 4.14818L13.1515 4.75679L13.2079 5.36539L13.1954 5.91753L13.1389 6.37555L13.0323 6.70181L12.9193 6.94023L12.8315 7.05944L12.7625 7.10336L12.6934 7.14728L12.637 7.17238C12.6349 7.17237 12.6328 7.17237 12.6307 7.17238L12.5617 7.20375C12.4011 7.27187 12.3207 7.39318 12.3207 7.56766C12.3207 7.74214 12.4011 7.86344 12.5617 7.93157ZM12.9883 2.0463L13.0197 1.99611C13.0901 1.85197 13.0577 1.73671 12.9225 1.65035C12.7874 1.56398 12.6692 1.58303 12.568 1.70749L12.5366 1.75769C12.4662 1.90183 12.4986 2.01708 12.6338 2.10345C12.7689 2.18981 12.8871 2.17076 12.9883 2.0463Z" fill="black"/>
</g>
<defs>
<clipPath id="clip0_1_7284">
<rect width="27" height="41" fill="white"/>
</clipPath>
</defs>
</svg>
