<svg width="28" height="38" viewBox="0 0 28 38" fill="none" xmlns="http://www.w3.org/2000/svg">
<g clip-path="url(#clip0_1_7251)">
<path d="M9.15955 0.715339C9.15955 0.830996 9.20044 0.929715 9.28222 1.0115C9.364 1.09328 9.46272 1.13417 9.57838 1.13417C9.69403 1.13417 9.79275 1.09328 9.87453 1.0115C9.95632 0.929715 9.99721 0.830996 9.99721 0.715339C9.99721 0.599682 9.95632 0.500963 9.87453 0.419182C9.79275 0.3374 9.69403 0.296509 9.57838 0.296509C9.46272 0.296509 9.364 0.3374 9.28222 0.419182C9.20044 0.500963 9.15955 0.599682 9.15955 0.715339ZM9.02827 0.702837C9.02827 0.854744 9.08198 0.984405 9.18939 1.09182C9.29681 1.19923 9.42647 1.25294 9.57838 1.25294C9.73028 1.25294 9.85995 1.19923 9.96736 1.09182C10.0748 0.984405 10.1285 0.854744 10.1285 0.702837C10.1285 0.55093 10.0748 0.421269 9.96736 0.313854C9.85995 0.206439 9.73028 0.152732 9.57838 0.152732C9.42647 0.152732 9.29681 0.206439 9.18939 0.313854C9.08198 0.421269 9.02827 0.55093 9.02827 0.702837ZM8.9345 0.696586C8.9345 0.87266 8.99676 1.02295 9.12126 1.14745C9.24576 1.27196 9.39605 1.33421 9.57213 1.33421C9.7482 1.33421 9.89849 1.27196 10.023 1.14745C10.1475 1.02295 10.2097 0.87266 10.2097 0.696586C10.2097 0.520511 10.1475 0.370223 10.023 0.245719C9.89849 0.121216 9.7482 0.0589642 9.57213 0.0589642C9.39605 0.0589642 9.24576 0.121216 9.12126 0.245719C8.99676 0.370223 8.9345 0.520511 8.9345 0.696586ZM9.26582 0.0777178L9.14079 0.127727C9.07744 0.154902 9.0191 0.190326 8.96576 0.233998L8.69696 0.452789C8.67025 0.476093 8.64525 0.501097 8.62195 0.527803L8.22187 0.959136C8.21335 0.967289 8.20502 0.975624 8.19686 0.98414L7.65301 1.62176C7.64666 1.62791 7.64041 1.63417 7.63426 1.64052L6.99664 2.43442C6.99239 2.44061 6.98822 2.44686 6.98413 2.45317L6.27775 3.37209C6.27565 3.37417 6.27357 3.37625 6.2715 3.37835L5.54011 4.36603C5.5359 4.37016 5.53173 4.37433 5.52761 4.37854L4.81497 5.37248L4.13359 6.31015L3.48972 7.16657L2.92711 7.89171L2.46452 8.45431L2.12071 8.86064L1.89566 9.10444L1.78939 9.22321C1.72047 9.41207 1.71965 9.60123 1.78692 9.79068C1.85419 9.98013 1.97413 10.1264 2.14672 10.2295C2.31932 10.3326 2.50497 10.3689 2.70367 10.3383C2.90238 10.3077 3.06854 10.2173 3.20216 10.0671L3.22092 10.0234C3.16426 10.0954 3.1205 10.1746 3.08964 10.2609L3.23342 10.0671L3.53973 9.7233L4.00857 9.1982C4.01492 9.19205 4.02117 9.1858 4.02732 9.17945L4.63369 8.46682C4.63794 8.46062 4.6421 8.45437 4.64619 8.44806L5.33382 7.5854C5.33594 7.58125 5.33802 7.57708 5.34007 7.57289L6.09021 6.59146C6.10336 6.57527 6.11586 6.5586 6.12772 6.54145L6.8341 5.46624C6.84063 5.45599 6.84688 5.44557 6.85286 5.43499L7.48423 4.37229C7.48424 4.3702 7.48424 4.36812 7.48423 4.36603L7.99057 3.49087L8.50942 2.94076C8.58534 2.83014 8.57497 2.7283 8.47833 2.63524C8.3817 2.54218 8.27954 2.53567 8.17186 2.6157L7.64676 3.16581L6.81535 3.75967C6.809 3.76368 6.80275 3.76785 6.7966 3.77217L5.82766 4.54732C5.80568 4.5648 5.78484 4.58355 5.76515 4.60358L4.86498 5.52876C4.84744 5.54674 4.83077 5.56549 4.81497 5.58502L4.03982 6.54145L3.34594 7.38536L2.75208 8.07924L2.28324 8.60434C2.28114 8.60641 2.27906 8.6085 2.27699 8.61059L1.95193 8.97941C1.93892 8.99357 1.92642 9.00816 1.91442 9.02317L1.75189 9.23571C1.67836 9.33321 1.62835 9.44157 1.60186 9.56077L1.58936 9.60453C1.49656 9.99589 1.62105 10.2976 1.96283 10.5096C2.30461 10.7216 2.63021 10.6992 2.93961 10.4422L3.06464 10.3422C3.09336 10.3189 3.12044 10.2939 3.1459 10.2672L3.38345 10.0171C3.39634 10.005 3.40884 9.99249 3.42096 9.9796L3.77727 9.56077C3.77939 9.55662 3.78147 9.55245 3.78352 9.54827L4.25861 8.96691C4.26286 8.96071 4.26703 8.95446 4.27112 8.94816L4.84623 8.21052C4.85044 8.20639 4.8546 8.20222 4.85873 8.19801L5.50885 7.3291C5.51095 7.32702 5.51303 7.32494 5.5151 7.32285L6.20273 6.37892L6.92162 5.38498L7.64676 4.40354L8.34064 3.49087L8.95951 2.67196L9.46586 2.00934C9.46586 2.00725 9.46586 2.00517 9.46586 2.00308L9.82217 1.52799C9.83298 1.51582 9.8434 1.50331 9.85343 1.49049L10.041 1.20918C10.0476 1.19686 10.0538 1.18436 10.0597 1.17168L10.1285 1.0529C10.2912 0.7678 10.2638 0.502311 10.0463 0.256434C9.82881 0.0105581 9.56864 -0.0490141 9.26582 0.0777178Z" fill="black"/>
<path d="M19.674 1.50249C19.674 1.61642 19.7143 1.71366 19.7948 1.79422C19.8754 1.87478 19.9726 1.91506 20.0866 1.91506C20.2005 1.91506 20.2977 1.87478 20.3783 1.79422C20.4589 1.71366 20.4991 1.61642 20.4991 1.50249C20.4991 1.38856 20.4589 1.29131 20.3783 1.21075C20.2977 1.13019 20.2005 1.08991 20.0866 1.08991C19.9726 1.08991 19.8754 1.13019 19.7948 1.21075C19.7143 1.29131 19.674 1.38856 19.674 1.50249ZM19.6302 1.50249C19.6302 1.62505 19.6736 1.72966 19.7602 1.81632C19.8469 1.90299 19.9515 1.94632 20.0741 1.94632C20.1966 1.94632 20.3012 1.90299 20.3879 1.81632C20.4746 1.72966 20.5179 1.62505 20.5179 1.50249C20.5179 1.37992 20.4746 1.27531 20.3879 1.18865C20.3012 1.10198 20.1966 1.05865 20.0741 1.05865C19.9515 1.05865 19.8469 1.10198 19.7602 1.18865C19.6736 1.27531 19.6302 1.37992 19.6302 1.50249ZM19.6865 1.19618L19.6552 1.23369C19.5935 1.30181 19.5539 1.381 19.5365 1.47123L19.524 1.5525C19.5215 1.56285 19.5195 1.57327 19.5177 1.58375L19.499 1.72753C19.4959 1.76087 19.4959 1.79421 19.499 1.82755L19.5115 2.0776C19.5125 2.09854 19.5146 2.11938 19.5177 2.14011L19.5865 2.53393C19.5893 2.55916 19.5935 2.58416 19.599 2.60895L19.774 3.21531C19.7809 3.24284 19.7893 3.26993 19.799 3.29658L20.1553 4.178C20.1593 4.1885 20.1635 4.19891 20.1678 4.20925L20.6867 5.36572C20.6887 5.36991 20.6908 5.37407 20.6929 5.37822L21.3118 6.67847C21.3139 6.68266 21.3159 6.68682 21.3181 6.69097L21.9682 8.00372C21.9702 8.00791 21.9723 8.01208 21.9744 8.01623L22.587 9.20395C22.5911 9.21026 22.5953 9.21651 22.5995 9.22271L23.1371 10.1854C23.1432 10.1959 23.1494 10.2064 23.1559 10.2166L23.5872 10.9105C23.6208 10.9634 23.6604 11.0113 23.706 11.0543L24.0436 11.3731C24.2744 11.5922 24.5258 11.6193 24.798 11.4543C25.0701 11.2894 25.1624 11.054 25.075 10.748L24.9437 10.3042C24.9357 10.2701 24.9252 10.2368 24.9125 10.2041L24.5812 9.4665C24.5772 9.456 24.5731 9.44558 24.5687 9.43525L24.0811 8.44756L23.4997 7.24733L22.8621 5.94083L22.2557 4.64683L21.7306 3.49662C21.7246 3.48606 21.7184 3.47565 21.7119 3.46536L21.2805 2.62145C21.2671 2.5978 21.2525 2.57487 21.2368 2.55269L20.893 2.02759C20.887 2.01701 20.8807 2.00659 20.8742 1.99633L20.6429 1.67127L20.5116 1.48998L20.4491 1.38996C20.4519 1.475 20.4748 1.55418 20.5179 1.62751V1.53999C20.4997 1.59479 20.4914 1.65105 20.4929 1.70878L20.5054 1.66502C20.5881 1.41585 20.5156 1.22604 20.2877 1.09559C20.0599 0.965145 19.8595 0.998673 19.6865 1.19618ZM24.1561 11.0293C24.1561 11.1501 24.1988 11.2533 24.2843 11.3387C24.3697 11.4242 24.4728 11.4669 24.5937 11.4669C24.7145 11.4669 24.8177 11.4242 24.9031 11.3387C24.9885 11.2533 25.0313 11.1501 25.0313 11.0293C25.0313 10.9085 24.9885 10.8053 24.9031 10.7199C24.8177 10.6344 24.7145 10.5917 24.5937 10.5917C24.4728 10.5917 24.3697 10.6344 24.2843 10.7199C24.1988 10.8053 24.1561 10.9085 24.1561 11.0293ZM24.8375 10.823L24.7812 10.5917C24.7395 10.4292 24.6374 10.3688 24.4749 10.4104C24.3124 10.4521 24.2519 10.5542 24.2936 10.7167L24.3499 10.948C24.3916 11.1106 24.4937 11.171 24.6562 11.1293C24.8187 11.0876 24.8791 10.9855 24.8375 10.823Z" fill="black"/>
<path d="M8.92808 1.29622C8.92808 1.39979 8.9647 1.4882 9.03794 1.56143C9.11118 1.63467 9.19958 1.67129 9.30315 1.67129C9.40673 1.67129 9.49513 1.63467 9.56837 1.56143C9.64161 1.4882 9.67823 1.39979 9.67823 1.29622C9.67823 1.19265 9.64161 1.10424 9.56837 1.031C9.49513 0.957766 9.40673 0.921148 9.30315 0.921148C9.19958 0.921148 9.11118 0.957766 9.03794 1.031C8.9647 1.10424 8.92808 1.19265 8.92808 1.29622ZM8.88433 1.28997C8.88433 1.40217 8.924 1.49794 9.00334 1.57728C9.08268 1.65662 9.17845 1.6963 9.29065 1.6963C9.40286 1.6963 9.49863 1.65662 9.57797 1.57728C9.65731 1.49794 9.69698 1.40217 9.69698 1.28997C9.69698 1.17776 9.65731 1.08199 9.57797 1.00265C9.49863 0.923311 9.40286 0.88364 9.29065 0.88364C9.17845 0.88364 9.08268 0.923311 9.00334 1.00265C8.924 1.08199 8.88433 1.17776 8.88433 1.28997ZM9.5532 0.908645L9.49694 0.858636C9.49284 0.8544 9.48867 0.850233 9.48444 0.846133L9.40317 0.789873C9.28058 0.693949 9.14162 0.650989 8.98629 0.660991C8.83095 0.670994 8.69865 0.731421 8.58937 0.842275C8.4801 0.953128 8.42157 1.08629 8.4138 1.24175C8.40603 1.39721 8.45097 1.53554 8.54865 1.65675C8.64632 1.77795 8.77194 1.85127 8.9255 1.87672C9.07906 1.90216 9.22162 1.87328 9.35316 1.79006L9.43443 1.74005L9.50319 1.6963C9.64322 1.60764 9.71849 1.48062 9.72899 1.31522C9.73949 1.14982 9.68089 1.01429 9.5532 0.908645ZM9.18438 0.589835L9.12812 0.56483C9.01935 0.522857 8.90692 0.507316 8.79084 0.518205C8.67476 0.529095 8.56718 0.565275 8.46812 0.626745C8.36905 0.688216 8.28886 0.768537 8.22756 0.86771C8.16625 0.966883 8.13026 1.07452 8.11956 1.19062C8.10887 1.30672 8.1246 1.41912 8.16676 1.52782C8.20892 1.63652 8.27308 1.73014 8.35925 1.80867C8.44543 1.8872 8.54458 1.94242 8.65672 1.97433C8.76886 2.00624 8.88224 2.0115 8.99685 1.9901L9.05936 1.9776C9.41635 1.90851 9.61116 1.69289 9.64379 1.33074C9.67641 0.968586 9.52328 0.721619 9.18438 0.589835ZM8.43424 1.88383L8.52801 1.94634C8.59545 1.99307 8.66838 2.0285 8.7468 2.05261L9.0031 2.13388C9.05011 2.14849 9.09804 2.15891 9.14688 2.16513L9.59696 2.21514C9.62603 2.21869 9.6552 2.22078 9.68448 2.2214L10.2658 2.22765C10.2679 2.22765 10.27 2.22765 10.2721 2.22765L10.9347 2.2339C10.9389 2.23393 10.9431 2.23393 10.9472 2.2339L11.6786 2.22765H12.4725H13.2914C13.2935 2.22765 13.2956 2.22765 13.2977 2.22765L14.1041 2.2214L14.8355 2.21514C14.8375 2.21515 14.8396 2.21515 14.8417 2.21514L15.4668 2.20889L15.9732 2.21514L16.3545 2.2214L16.6546 2.24015C16.6608 2.24022 16.6671 2.24022 16.6733 2.24015L16.9046 2.2464L17.0734 2.25265C17.088 2.25301 17.1026 2.25301 17.1171 2.25265L17.2484 2.2464H17.3734H17.5235H17.7048C17.734 2.24577 17.7632 2.24369 17.7923 2.24015L17.9736 2.2214C17.9882 2.21968 18.0028 2.21759 18.0173 2.21514L18.1986 2.19014C18.2132 2.18842 18.2278 2.18634 18.2424 2.18389L18.4111 2.14638C18.4132 2.14639 18.4153 2.14639 18.4174 2.14638L18.5362 2.12138L18.6112 2.10887C18.7126 2.09469 18.8084 2.06343 18.8987 2.01511L18.9425 1.9901C19.2332 1.83296 19.3785 1.58916 19.3785 1.25871C19.3785 0.928259 19.2332 0.684463 18.9425 0.527323L18.8987 0.502318C18.7423 0.417398 18.5757 0.384058 18.3986 0.402299L18.2986 0.40855C18.2798 0.410018 18.261 0.412102 18.2424 0.414801L18.1361 0.433555L17.9923 0.446057C17.9819 0.445872 17.9715 0.445872 17.9611 0.446057L17.786 0.471062L17.6547 0.483564H17.5235H17.3734H17.2484L17.1296 0.477313L16.9671 0.471062C16.9629 0.471033 16.9588 0.471033 16.9546 0.471062L16.7233 0.464811L16.4233 0.45856L16.0232 0.439806C16.0169 0.43974 16.0107 0.43974 16.0044 0.439806L15.4793 0.433555C15.4731 0.433489 15.4668 0.433489 15.4606 0.433555L14.823 0.439806L14.0916 0.446057L13.2852 0.452308H12.4725H11.6786C11.6765 0.452301 11.6744 0.452301 11.6724 0.452308L10.9347 0.45856L10.2721 0.464811C10.27 0.464803 10.2679 0.464803 10.2658 0.464811L9.68448 0.471062C9.67823 0.470995 9.67197 0.470995 9.66572 0.471062L9.21564 0.483564C9.20936 0.485575 9.20311 0.487659 9.19688 0.489815L8.92808 0.502318L8.81556 0.508569C8.45915 0.532704 8.23322 0.716891 8.13777 1.06113C8.04232 1.40537 8.14115 1.67961 8.43424 1.88383ZM17.8673 1.27121C17.8673 1.46973 17.9375 1.63917 18.0778 1.77954C18.2182 1.91992 18.3877 1.9901 18.5862 1.9901C18.7847 1.9901 18.9541 1.91992 19.0945 1.77954C19.2349 1.63917 19.3051 1.46973 19.3051 1.27121C19.3051 1.0727 19.2349 0.903256 19.0945 0.762884C18.9541 0.622513 18.7847 0.552327 18.5862 0.552327C18.3877 0.552327 18.2182 0.622513 18.0778 0.762884C17.9375 0.903256 17.8673 1.0727 17.8673 1.27121ZM18.1423 1.28997C18.1424 1.42458 18.19 1.53947 18.2852 1.63464C18.3804 1.72981 18.4953 1.77739 18.6299 1.77739C18.7645 1.77739 18.8794 1.72981 18.9747 1.63464C19.0699 1.53947 19.1175 1.42458 19.1175 1.28997C19.1175 1.15536 19.0699 1.04047 18.9747 0.945296C18.8794 0.850128 18.7645 0.802543 18.6299 0.802543C18.4953 0.802543 18.3804 0.850128 18.2852 0.945296C18.19 1.04047 18.1424 1.15536 18.1423 1.28997ZM18.5612 1.52751L18.6049 1.55252C18.7434 1.62083 18.8503 1.58759 18.9256 1.45281C19.0009 1.31803 18.9732 1.20957 18.8425 1.12744L18.7987 1.10243C18.6602 1.03412 18.5534 1.06736 18.478 1.20214C18.4027 1.33692 18.4304 1.44538 18.5612 1.52751Z" fill="black"/>
<path d="M17.0046 1.2837C17.0046 1.39245 17.0431 1.48527 17.12 1.56217C17.1969 1.63907 17.2897 1.67752 17.3985 1.67752C17.5072 1.67752 17.6 1.63907 17.6769 1.56217C17.7538 1.48527 17.7923 1.39245 17.7923 1.2837C17.7923 1.17494 17.7538 1.08212 17.6769 1.00522C17.6 0.92832 17.5072 0.88987 17.3985 0.88987C17.2897 0.88987 17.1969 0.92832 17.12 1.00522C17.0431 1.08212 17.0046 1.17494 17.0046 1.2837ZM16.9984 1.2837C16.9984 1.39417 17.0374 1.48847 17.1156 1.56659C17.1937 1.64471 17.288 1.68377 17.3985 1.68377C17.5089 1.68377 17.6032 1.64471 17.6813 1.56659C17.7595 1.48847 17.7985 1.39417 17.7985 1.2837C17.7985 1.17322 17.7595 1.07892 17.6813 1.0008C17.6032 0.922679 17.5089 0.883619 17.3985 0.883619C17.288 0.883619 17.1937 0.922679 17.1156 1.0008C17.0374 1.07892 16.9984 1.17322 16.9984 1.2837ZM16.9796 1.27119C16.9796 1.39203 17.0223 1.49517 17.1078 1.58061C17.1932 1.66605 17.2964 1.70878 17.4172 1.70878C17.538 1.70878 17.6412 1.66605 17.7266 1.58061C17.8121 1.49517 17.8548 1.39203 17.8548 1.27119C17.8548 1.15036 17.8121 1.04722 17.7266 0.961775C17.6412 0.876331 17.538 0.83361 17.4172 0.83361C17.2964 0.83361 17.1932 0.876331 17.1078 0.961775C17.0223 1.04722 16.9796 1.15036 16.9796 1.27119ZM17.0046 1.42747V1.43372C17.042 1.53006 17.1003 1.61132 17.1797 1.67752L17.2422 1.72753C17.2971 1.77238 17.3575 1.80781 17.4235 1.8338L17.5422 1.87756C17.5787 1.89314 17.6162 1.90564 17.6548 1.91507L17.861 1.95882C17.8817 1.96389 17.9025 1.96806 17.9236 1.97133L18.1986 2.00883C18.2028 2.00887 18.2069 2.00887 18.2111 2.00883L18.5112 2.04009C18.534 2.04324 18.5569 2.04532 18.5799 2.04634H18.855C18.9138 2.04928 18.9722 2.04512 19.03 2.03384L19.2426 1.98383C19.3186 1.96738 19.3895 1.93821 19.4551 1.89631L19.5864 1.8088C19.6597 1.76027 19.718 1.69776 19.7614 1.62126L19.8052 1.54625C19.916 1.35743 19.8952 1.18448 19.7426 1.0274L19.6801 0.958633C19.6516 0.930197 19.6204 0.905192 19.5864 0.883619L19.4551 0.796103C19.4194 0.773703 19.3819 0.754949 19.3426 0.739842L19.1425 0.658576C19.0921 0.638124 19.04 0.623538 18.9863 0.614818L18.7112 0.57106C18.6967 0.568542 18.6821 0.566459 18.6674 0.564808L18.3674 0.533553C18.3653 0.533544 18.3632 0.533544 18.3611 0.533553L18.0861 0.508548C18.084 0.508539 18.0819 0.508539 18.0798 0.508548L17.8735 0.489794C17.8042 0.484062 17.7354 0.488229 17.6673 0.502297L17.5422 0.527301C17.3464 0.5656 17.1964 0.669786 17.0921 0.839861L17.0546 0.902373C16.9588 1.05749 16.9379 1.2221 16.9921 1.39622V1.40247C16.9961 1.41092 17.0002 1.41925 17.0046 1.42747ZM19.6114 1.565L19.6739 1.54625C19.8212 1.48417 19.8724 1.37643 19.8275 1.22304C19.7826 1.06965 19.6814 1.00652 19.5239 1.03365L19.4613 1.0524C19.3141 1.11448 19.2629 1.22221 19.3078 1.3756C19.3527 1.52899 19.4539 1.59213 19.6114 1.565Z" fill="black"/>
<path d="M1.28274 10.4419C1.28274 10.5541 1.32241 10.6499 1.40175 10.7292C1.48109 10.8085 1.57687 10.8482 1.68907 10.8482C1.80127 10.8482 1.89705 10.8085 1.97639 10.7292C2.05573 10.6499 2.0954 10.5541 2.0954 10.4419C2.0954 10.3297 2.05573 10.2339 1.97639 10.1546C1.89705 10.0752 1.80127 10.0355 1.68907 10.0355C1.57687 10.0355 1.48109 10.0752 1.40175 10.1546C1.32241 10.2339 1.28274 10.3297 1.28274 10.4419ZM1.17022 10.3794C1.17027 10.5226 1.22095 10.6449 1.32225 10.7461C1.42356 10.8474 1.54583 10.898 1.68907 10.898C1.83231 10.898 1.95458 10.8474 2.05589 10.7461C2.15719 10.6449 2.20787 10.5226 2.20792 10.3794C2.20787 10.2361 2.15719 10.1139 2.05589 10.0126C1.95458 9.91133 1.83231 9.86069 1.68907 9.86069C1.54583 9.86069 1.42356 9.91133 1.32225 10.0126C1.22095 10.1139 1.17027 10.2361 1.17022 10.3794ZM1.10146 10.3981C1.10146 10.5604 1.15883 10.6989 1.27357 10.8136C1.3883 10.9284 1.52681 10.9857 1.68907 10.9857C1.85133 10.9857 1.98984 10.9284 2.10457 10.8136C2.21931 10.6989 2.27668 10.5604 2.27668 10.3981C2.27668 10.2359 2.21931 10.0973 2.10457 9.98261C1.98984 9.86787 1.85133 9.8105 1.68907 9.8105C1.52681 9.8105 1.3883 9.86787 1.27357 9.98261C1.15883 10.0973 1.10146 10.2359 1.10146 10.3981ZM1.10146 10.1606L1.06395 10.2356C1.01797 10.3325 0.995053 10.4346 0.995188 10.5419V10.7232C0.99502 10.7567 0.997104 10.79 1.00144 10.8232L1.0452 11.117C1.04706 11.1275 1.04915 11.1379 1.05145 11.1483L1.12646 11.5546L1.22648 12.1172C1.22827 12.1297 1.23035 12.1422 1.23273 12.1547L1.41402 12.9173C1.41399 12.9215 1.41399 12.9257 1.41402 12.9298L1.65156 13.8863C1.65357 13.8926 1.65566 13.8988 1.65781 13.905L1.95787 14.9865C1.95992 14.9907 1.962 14.9948 1.96412 14.999L2.30169 16.143L2.633 17.2869L2.95806 18.4059L3.25812 19.4561L3.77697 21.4252L4.02076 22.3566L4.26456 23.2756C4.26657 23.2818 4.26866 23.2881 4.27081 23.2943L4.53336 24.232L4.80841 25.2384C4.81043 25.2447 4.81251 25.251 4.81466 25.2572L5.13973 26.3386C5.14169 26.347 5.14378 26.3553 5.14598 26.3637L5.52105 27.5014C5.52104 27.5035 5.52104 27.5055 5.52105 27.5076L5.89612 28.6328C5.89817 28.637 5.90026 28.6412 5.90237 28.6453L6.27119 29.6893C6.27324 29.6935 6.27533 29.6976 6.27744 29.7018L6.61501 30.6207L6.91506 31.4084L7.15886 32.0897L7.37765 32.6961L7.55894 33.2962C7.56302 33.3025 7.56719 33.3088 7.57144 33.315L7.76523 33.8963C7.76523 33.8984 7.76523 33.9005 7.76523 33.9026L7.95901 34.4402C7.96463 34.4592 7.97088 34.4779 7.97777 34.4965L8.17781 34.9653C8.18354 34.9822 8.18979 34.9988 8.19656 35.0153L8.39035 35.3904C8.3924 35.3946 8.39448 35.3987 8.3966 35.4029L8.55288 35.7092C8.57136 35.744 8.5922 35.7773 8.61539 35.8092L8.77792 36.0342C8.86514 36.1556 8.97766 36.2452 9.11548 36.303L9.25301 36.3593C9.43653 36.4362 9.6179 36.4315 9.79712 36.345C9.97634 36.2585 10.0929 36.1195 10.1469 35.928L10.1844 35.7842C10.2267 35.6336 10.2246 35.4835 10.1782 35.3341L10.0969 35.0716C10.0881 35.0418 10.0777 35.0126 10.0657 34.984L9.92814 34.6777L9.77811 34.3152L9.61558 33.8713L9.4468 33.3462L9.27176 32.7711L9.09048 32.1585C9.08846 32.1522 9.08638 32.146 9.08423 32.1398L8.87794 31.5084C8.87612 31.4958 8.87403 31.4833 8.87169 31.4709L8.62164 30.7832L8.32783 29.9893L7.99652 29.0767L7.6402 28.0452L7.27138 26.9263L6.90881 25.7948L6.57125 24.7196L6.26494 23.7257L5.97739 22.7942L5.71484 21.8816C5.71276 21.8795 5.71068 21.8774 5.70858 21.8753L5.43353 20.9689L4.89593 19.006C4.89594 19.0039 4.89594 19.0018 4.89593 18.9998L4.59587 17.9371C4.59588 17.935 4.59588 17.9329 4.59587 17.9308L4.27081 16.8118C4.27082 16.8098 4.27082 16.8077 4.27081 16.8056L3.927 15.6616L3.59568 14.5239L3.28312 13.4487L3.02057 12.5048C3.01852 12.5006 3.01644 12.4964 3.01432 12.4923L2.79553 11.7421C2.79348 11.7379 2.7914 11.7338 2.78928 11.7296L2.62675 11.2108L2.53298 10.8294C2.53299 10.8274 2.53299 10.8253 2.53298 10.8232L2.45797 10.5419C2.45281 10.5187 2.44656 10.4958 2.43921 10.4731L2.3767 10.3043C2.34813 10.2239 2.30645 10.151 2.25168 10.0856L2.20167 10.023C2.13017 9.93629 2.0422 9.87215 1.93774 9.8306C1.83328 9.78905 1.72528 9.77525 1.61374 9.78919C1.50219 9.80313 1.40091 9.8431 1.30989 9.90908C1.21888 9.97506 1.1494 10.0589 1.10146 10.1606ZM9.17174 35.8655C9.17174 35.9777 9.21141 36.0734 9.29075 36.1528C9.37009 36.2321 9.46587 36.2718 9.57807 36.2718C9.69028 36.2718 9.78605 36.2321 9.86539 36.1528C9.94473 36.0734 9.9844 35.9777 9.9844 35.8655C9.9844 35.7533 9.94473 35.6575 9.86539 35.5781C9.78605 35.4988 9.69028 35.4591 9.57807 35.4591C9.46587 35.4591 9.37009 35.4988 9.29075 35.5781C9.21141 35.6575 9.17174 35.7533 9.17174 35.8655ZM9.61558 36.1468H9.64058C9.80311 36.1468 9.88438 36.0655 9.88438 35.903C9.88438 35.7404 9.80311 35.6592 9.64058 35.6592H9.61558C9.45305 35.6592 9.37178 35.7404 9.37178 35.903C9.37178 36.0655 9.45305 36.1468 9.61558 36.1468Z" fill="black"/>
<path d="M24.0118 11.0796C24.0118 11.1832 24.0485 11.2716 24.1217 11.3448C24.1949 11.4181 24.2833 11.4547 24.3869 11.4547C24.4905 11.4547 24.5789 11.4181 24.6521 11.3448C24.7254 11.2716 24.762 11.1832 24.762 11.0796C24.762 10.976 24.7254 10.8876 24.6521 10.8144C24.5789 10.7412 24.4905 10.7045 24.3869 10.7045C24.2833 10.7045 24.1949 10.7412 24.1217 10.8144C24.0485 10.8876 24.0118 10.976 24.0118 11.0796ZM23.9368 11.0796C23.9369 11.2004 23.9797 11.3034 24.0651 11.3887C24.1506 11.4741 24.2537 11.5168 24.3744 11.5168C24.4952 11.5168 24.5982 11.4741 24.6837 11.3887C24.7691 11.3034 24.8119 11.2004 24.812 11.0796C24.8119 10.9589 24.7691 10.8558 24.6837 10.7705C24.5982 10.6851 24.4952 10.6424 24.3744 10.6424C24.2537 10.6424 24.1506 10.6851 24.0651 10.7705C23.9797 10.8558 23.9369 10.9589 23.9368 11.0796ZM23.8681 11.0734C23.8681 11.2063 23.9151 11.3197 24.009 11.4137C24.103 11.5077 24.2165 11.5547 24.3494 11.5547C24.4823 11.5547 24.5958 11.5077 24.6898 11.4137C24.7837 11.3197 24.8307 11.2063 24.8307 11.0734C24.8307 10.9404 24.7837 10.827 24.6898 10.733C24.5958 10.639 24.4823 10.592 24.3494 10.592C24.2165 10.592 24.103 10.639 24.009 10.733C23.9151 10.827 23.8681 10.9404 23.8681 11.0734ZM24.5182 10.6108L24.4994 10.6045C24.3046 10.5282 24.1254 10.5553 23.9618 10.6858L23.8556 10.767C23.7812 10.8247 23.7229 10.8956 23.6805 10.9796L23.5492 11.2421C23.5338 11.2765 23.5212 11.3119 23.5117 11.3484L23.368 11.811C23.3633 11.8254 23.3592 11.84 23.3555 11.8548L23.1929 12.5611C23.1908 12.5674 23.1887 12.5736 23.1867 12.5799L23.0054 13.4801L22.7929 14.499L22.5553 15.593L22.3178 16.7057L22.0677 17.8059L21.7927 18.8998L21.5051 20.0063C21.5051 20.0084 21.5051 20.0105 21.5051 20.0126L21.2301 21.119C21.2279 21.1232 21.2258 21.1273 21.2238 21.1315L20.9613 22.2317L20.4424 24.3759L20.1799 25.3573L19.8986 26.2887L19.6298 27.1952C19.6276 27.1993 19.6256 27.2035 19.6235 27.2077L19.3672 28.1203C19.3651 28.1245 19.363 28.1287 19.361 28.1328L19.1297 29.0393C19.1275 29.0434 19.1255 29.0476 19.1234 29.0518L18.9109 29.9519L18.6921 30.8396L18.4795 31.7023L18.2857 32.5087L18.1107 33.2151L17.9607 33.8027L17.8482 34.2465C17.8459 34.2569 17.8438 34.2673 17.8419 34.2778L17.7794 34.5841C17.7773 34.5882 17.7752 34.5924 17.7731 34.5966L17.7356 34.8029C17.724 34.8564 17.7178 34.9106 17.7169 34.9654V35.1217C17.7179 35.3457 17.7992 35.5353 17.9607 35.6905L18.0107 35.7405C18.1968 35.9171 18.4135 35.9713 18.6608 35.9031L18.7233 35.8843C18.9475 35.8213 19.1122 35.6859 19.2172 35.478L19.2859 35.3405C19.3169 35.2787 19.3398 35.2141 19.3547 35.1467L19.3985 34.9591L19.4797 34.6778C19.4819 34.6716 19.484 34.6654 19.486 34.6591L19.5985 34.209C19.5985 34.2069 19.5985 34.2048 19.5985 34.2028L19.7423 33.6151L19.9111 32.9088C19.9132 32.9067 19.9152 32.9046 19.9173 32.9025L20.1048 32.0961C20.1048 32.094 20.1048 32.0919 20.1048 32.0899L20.3049 31.2272L20.5112 30.3395L20.73 29.4518L20.9675 28.5642L21.2238 27.6578C21.2238 27.6536 21.2238 27.6494 21.2238 27.6453L21.4676 26.7263C21.47 26.7139 21.4721 26.7014 21.4739 26.6888L21.6801 25.7386L21.9114 24.7322L22.4115 22.5755C22.4115 22.5735 22.4115 22.5714 22.4115 22.5693L22.6616 21.4628L22.9179 20.3501L23.1804 19.2374L23.443 18.1309L23.6993 17.0182C23.7014 17.0162 23.7035 17.0141 23.7055 17.012L23.9556 15.8993L24.1931 14.8053C24.1952 14.8012 24.1973 14.797 24.1994 14.7928L24.4057 13.7676C24.4078 13.7655 24.4098 13.7635 24.4119 13.7614L24.5869 12.8612L24.7245 12.1486C24.7266 12.1444 24.7287 12.1402 24.7307 12.1361L24.8057 11.661L24.862 11.3734C24.8757 11.2984 24.8757 11.2234 24.862 11.1484L24.837 11.0108C24.8238 10.9436 24.7988 10.8811 24.762 10.8233L24.7495 10.8046C24.6928 10.7156 24.6157 10.651 24.5182 10.6108ZM17.9294 35.3467C17.9294 35.49 17.9801 35.6123 18.0814 35.7136C18.1827 35.8149 18.305 35.8656 18.4483 35.8656C18.5916 35.8656 18.7138 35.8149 18.8152 35.7136C18.9165 35.6123 18.9671 35.49 18.9671 35.3467C18.9671 35.2034 18.9165 35.0812 18.8152 34.9798C18.7138 34.8785 18.5916 34.8279 18.4483 34.8279C18.305 34.8279 18.1827 34.8785 18.0814 34.9798C17.9801 35.0812 17.9294 35.2034 17.9294 35.3467ZM18.0607 35.4092C18.0607 35.5076 18.0955 35.5916 18.1651 35.6612C18.2346 35.7308 18.3186 35.7656 18.417 35.7656C18.5154 35.7656 18.5994 35.7308 18.669 35.6612C18.7386 35.5916 18.7733 35.5076 18.7733 35.4092C18.7733 35.3108 18.7386 35.2269 18.669 35.1573C18.5994 35.0877 18.5154 35.0529 18.417 35.0529C18.3186 35.0529 18.2346 35.0877 18.1651 35.1573C18.0955 35.2269 18.0607 35.3108 18.0607 35.4092ZM18.292 35.2342L18.2795 35.2405C18.142 35.3113 18.1086 35.4155 18.1795 35.553C18.2503 35.6905 18.3545 35.7239 18.492 35.653L18.5045 35.6468C18.6421 35.5759 18.6754 35.4717 18.6046 35.3342C18.5337 35.1967 18.4295 35.1634 18.292 35.2342Z" fill="black"/>
<path d="M9.21538 36.1282C9.21538 36.23 9.25139 36.3169 9.32341 36.389C9.39542 36.461 9.48236 36.497 9.5842 36.497C9.68605 36.497 9.77298 36.461 9.845 36.389C9.91701 36.3169 9.95302 36.23 9.95302 36.1282C9.95302 36.0263 9.91701 35.9394 9.845 35.8674C9.77298 35.7954 9.68605 35.7594 9.5842 35.7594C9.48236 35.7594 9.39542 35.7954 9.32341 35.8674C9.25139 35.9394 9.21538 36.0263 9.21538 36.1282ZM9.20913 36.1282C9.20913 36.2317 9.24575 36.3201 9.31899 36.3934C9.39222 36.4666 9.48063 36.5032 9.5842 36.5032C9.68778 36.5032 9.77618 36.4666 9.84942 36.3934C9.92266 36.3201 9.95927 36.2317 9.95927 36.1282C9.95927 36.0246 9.92266 35.9362 9.84942 35.863C9.77618 35.7897 9.68778 35.7531 9.5842 35.7531C9.48063 35.7531 9.39222 35.7897 9.31899 35.863C9.24575 35.9362 9.20913 36.0246 9.20913 36.1282ZM9.15287 36.1219C9.15287 36.2358 9.19315 36.3331 9.27371 36.4137C9.35427 36.4942 9.45152 36.5345 9.56545 36.5345C9.67938 36.5345 9.77662 36.4942 9.85719 36.4137C9.93775 36.3331 9.97803 36.2358 9.97803 36.1219C9.97803 36.008 9.93775 35.9107 9.85719 35.8302C9.77662 35.7496 9.67938 35.7093 9.56545 35.7093C9.45152 35.7093 9.35427 35.7496 9.27371 35.8302C9.19315 35.9107 9.15287 36.008 9.15287 36.1219ZM9.07786 36.1094C9.07786 36.2372 9.12302 36.3462 9.21335 36.4365C9.30367 36.5268 9.4127 36.572 9.54044 36.572C9.66819 36.572 9.77722 36.5268 9.86754 36.4365C9.95787 36.3462 10.003 36.2372 10.003 36.1094C10.003 35.9817 9.95787 35.8726 9.86754 35.7823C9.77722 35.692 9.66819 35.6468 9.54044 35.6468C9.4127 35.6468 9.30367 35.692 9.21335 35.7823C9.12302 35.8726 9.07786 35.9817 9.07786 36.1094ZM8.95908 36.1032C8.95908 36.2568 9.0134 36.3879 9.12204 36.4966C9.23067 36.6052 9.36181 36.6595 9.51544 36.6595C9.66907 36.6595 9.80021 36.6052 9.90884 36.4966C10.0175 36.3879 10.0718 36.2568 10.0718 36.1032C10.0718 35.9495 10.0175 35.8184 9.90884 35.7098C9.80021 35.6011 9.66907 35.5468 9.51544 35.5468C9.36181 35.5468 9.23067 35.6011 9.12204 35.7098C9.0134 35.8184 8.95908 35.9495 8.95908 36.1032ZM8.87157 36.1532V36.2219C8.87689 36.4166 8.95191 36.5792 9.09661 36.7095L9.21538 36.8158C9.29035 36.8837 9.37579 36.9337 9.47168 36.9658L9.77174 37.0658C9.82862 37.0852 9.88696 37.0977 9.94677 37.1034L10.4406 37.1471C10.4677 37.1485 10.4948 37.1485 10.5219 37.1471L11.1783 37.1409C11.1803 37.1409 11.1824 37.1409 11.1845 37.1409L11.9346 37.1221C11.9367 37.1221 11.9388 37.1221 11.9409 37.1221L12.7348 37.0971L13.5287 37.0721L14.2976 37.0533L15.0165 37.0346L15.6416 37.0283H16.1667L16.623 37.0346C16.6251 37.0346 16.6272 37.0346 16.6293 37.0346H17.0044H17.2857C17.294 37.0347 17.3023 37.0347 17.3107 37.0346L17.492 37.0283H17.6107C17.6316 37.0292 17.6524 37.0292 17.6732 37.0283L17.7483 37.0221C17.7904 37.0192 17.8321 37.013 17.8733 37.0033L17.917 36.9908C18.0677 36.956 18.1969 36.883 18.3046 36.772L18.3234 36.7533C18.4594 36.6106 18.5322 36.4407 18.5417 36.2438C18.5512 36.0468 18.4951 35.8707 18.3734 35.7156L18.3546 35.6906C18.2938 35.6123 18.2209 35.5477 18.1358 35.4968L18.1046 35.478L18.0796 35.4655C18.0184 35.6404 18.0188 35.8151 18.0809 35.9897C18.143 36.1643 18.253 36.3 18.4109 36.397L18.4171 36.372C18.2572 36.4698 18.1468 36.6073 18.0858 36.7845L18.1171 36.7595L18.1608 36.7408C18.1757 36.7329 18.1903 36.7246 18.2046 36.7158L18.2734 36.6783C18.4598 36.5661 18.5792 36.4044 18.6317 36.1932C18.6842 35.982 18.6544 35.7832 18.5422 35.5968C18.43 35.4104 18.2683 35.2909 18.0571 35.2384C17.8459 35.186 17.6471 35.2158 17.4607 35.328L17.4294 35.353L17.3857 35.3718C17.3687 35.3795 17.352 35.3878 17.3357 35.3968L17.2732 35.4343C17.1742 35.4953 17.093 35.5745 17.0294 35.6718L17.0106 35.6968C16.9027 35.8588 16.8606 36.0363 16.8843 36.2295C16.908 36.4226 16.9918 36.5847 17.1356 36.7158L17.1606 36.7408C17.1806 36.7585 17.2015 36.7752 17.2232 36.7908L17.2607 36.8158C17.2115 36.7482 17.1532 36.6899 17.0856 36.6408L17.1044 36.6658C17.1408 36.4488 17.095 36.2508 16.9669 36.0719L16.9606 36.0969C17.1512 35.9717 17.2659 35.7966 17.3044 35.5718L17.2669 35.5968C17.3939 35.584 17.5106 35.5423 17.617 35.4718L17.5795 35.478H17.4795C17.4732 35.478 17.467 35.478 17.4607 35.478L17.2732 35.4843H17.0044H16.6355L16.1855 35.478L15.6479 35.4655C15.6416 35.4655 15.6354 35.4655 15.6291 35.4655L14.9977 35.4718C14.9956 35.4718 14.9936 35.4718 14.9915 35.4718L14.2663 35.478L13.4912 35.4968L12.6973 35.5093L11.9034 35.5218C11.9013 35.5218 11.8992 35.5218 11.8971 35.5218L11.147 35.5406L10.4906 35.5593L10.0218 35.5656L9.78424 35.5531L9.68422 35.5343C9.7397 35.5632 9.79804 35.584 9.85925 35.5968L9.79674 35.5656C9.69643 35.5148 9.59013 35.4922 9.47784 35.4977C9.36555 35.5031 9.26196 35.536 9.16706 35.5963C9.07216 35.6566 8.99837 35.7364 8.94567 35.8357C8.89298 35.935 8.86828 36.0408 8.87157 36.1532ZM17.1294 35.9844C17.1295 36.1949 17.204 36.3746 17.3529 36.5235C17.5018 36.6723 17.6815 36.7468 17.892 36.7468C18.1026 36.7468 18.2823 36.6723 18.4312 36.5235C18.5801 36.3746 18.6546 36.1949 18.6547 35.9844C18.6546 35.7738 18.5801 35.5941 18.4312 35.4453C18.2823 35.2964 18.1026 35.222 17.892 35.222C17.6815 35.222 17.5018 35.2964 17.3529 35.4453C17.204 35.5941 17.1295 35.7738 17.1294 35.9844ZM17.5982 35.5218L17.567 35.5406C17.4554 35.6255 17.3865 35.7368 17.36 35.8744C17.3336 36.0121 17.3564 36.141 17.4285 36.2612C17.5007 36.3814 17.6037 36.4623 17.7376 36.5037C17.8715 36.5452 18.0022 36.5367 18.1296 36.4782L18.1608 36.4595C18.2724 36.3746 18.3413 36.2633 18.3678 36.1256C18.3942 35.9879 18.3714 35.859 18.2993 35.7388C18.2272 35.6186 18.1241 35.5378 17.9902 35.4963C17.8563 35.4549 17.7256 35.4634 17.5982 35.5218Z" fill="black"/>
<path d="M12.4285 7.45359C12.4285 7.56407 12.4676 7.65836 12.5457 7.73648C12.6238 7.8146 12.7181 7.85366 12.8286 7.85366C12.9391 7.85366 13.0334 7.8146 13.1115 7.73648C13.1896 7.65836 13.2287 7.56407 13.2287 7.45359C13.2287 7.34311 13.1896 7.24881 13.1115 7.17069C13.0334 7.09257 12.9391 7.05351 12.8286 7.05351C12.7181 7.05351 12.6238 7.09257 12.5457 7.17069C12.4676 7.24881 12.4285 7.34311 12.4285 7.45359ZM13.2537 7.48484V7.47234L13.26 7.44108C13.2418 7.4789 13.2293 7.51849 13.2224 7.55986L13.2537 7.49109C13.1985 7.53975 13.1568 7.5981 13.1287 7.66613L13.1474 7.64737L13.1537 7.64112C13.3335 7.53404 13.439 7.37699 13.47 7.16998C13.501 6.96297 13.4463 6.78191 13.3057 6.62681C13.1651 6.4717 12.9903 6.39943 12.7813 6.40998C12.5722 6.42054 12.4056 6.51006 12.2814 6.67854C12.1571 6.84702 12.1209 7.03268 12.1726 7.23551C12.2244 7.43834 12.3451 7.58396 12.5348 7.67238L12.5848 7.69738C12.5366 7.64489 12.4803 7.60322 12.416 7.57236L12.4661 7.62862C12.4449 7.5777 12.4157 7.53186 12.3785 7.49109L12.4098 7.55986L12.4223 7.59736C12.431 7.61905 12.4414 7.63989 12.4535 7.65988L12.4723 7.68488C12.5829 7.85665 12.7372 7.9172 12.9351 7.86653C13.133 7.81586 13.2392 7.68863 13.2537 7.48484ZM12.2223 6.60968L12.1597 6.69719C12.0761 6.81755 12.0302 6.95091 12.0222 7.09727L11.9972 7.44734C11.9968 7.46192 11.9968 7.47651 11.9972 7.49109L11.991 8.12872C11.9909 8.13497 11.9909 8.14122 11.991 8.14747L12.016 10.1541L12.0347 11.3043L12.0222 12.4045L12.0097 13.3422L12.0035 14.0611C12.0038 14.1052 12.008 14.149 12.016 14.1924L12.091 14.6612C12.1127 14.7841 12.1648 14.8925 12.2473 14.9863L12.3785 15.1363C12.4735 15.2446 12.593 15.3006 12.737 15.3043C12.881 15.308 13.0032 15.2583 13.1037 15.1551L13.2349 15.0113C13.3255 14.9179 13.3839 14.8074 13.41 14.68L13.5037 14.2111C13.5114 14.1698 13.5156 14.1281 13.5163 14.0861L13.535 13.3672C13.535 13.3651 13.535 13.363 13.535 13.361L13.5475 12.4233L13.56 11.3168L13.5788 10.1541L13.6038 8.14747C13.6038 8.14122 13.6038 8.13497 13.6038 8.12872L13.5975 7.49109C13.5979 7.47651 13.5979 7.46192 13.5975 7.44734L13.5725 7.09727C13.5671 7.00607 13.5463 6.91855 13.51 6.83472L13.4662 6.7347C13.3534 6.47954 13.1582 6.33801 12.8806 6.31011C12.603 6.28221 12.3836 6.38207 12.2223 6.60968ZM12.9974 14.8425L12.9912 14.7862C12.9703 14.6154 12.8745 14.5404 12.7036 14.5612C12.5327 14.582 12.4577 14.6779 12.4786 14.8487L12.4848 14.905C12.5056 15.0759 12.6015 15.1509 12.7724 15.13C12.9432 15.1092 13.0182 15.0134 12.9974 14.8425Z" fill="black"/>
<path d="M12.2973 7.64112C12.2973 7.74987 12.3357 7.8427 12.4126 7.9196C12.4895 7.9965 12.5824 8.03495 12.6911 8.03495C12.7999 8.03495 12.8927 7.9965 12.9696 7.9196C13.0465 7.8427 13.0849 7.74987 13.0849 7.64112C13.0849 7.53237 13.0465 7.43954 12.9696 7.36265C12.8927 7.28575 12.7999 7.2473 12.6911 7.2473C12.5824 7.2473 12.4895 7.28575 12.4126 7.36265C12.3357 7.43954 12.2973 7.53237 12.2973 7.64112ZM13.0974 7.75989L13.1099 7.72239C13.0943 7.75021 13.0818 7.77938 13.0724 7.8099L13.0849 7.7849L13.0974 7.7724C13.19 7.64594 13.2219 7.50571 13.1932 7.35168C13.1645 7.19765 13.0842 7.07831 12.9524 6.99366C12.8205 6.909 12.6786 6.88568 12.5266 6.92368C12.3746 6.96167 12.2604 7.04904 12.1839 7.18578C12.1074 7.32252 12.0927 7.46559 12.1399 7.615C12.187 7.76441 12.2812 7.87314 12.4223 7.94118L12.4723 7.95993C12.4259 7.90353 12.3696 7.85977 12.3035 7.82866L12.3223 7.85366L12.3348 7.87242C12.4341 8.02344 12.5732 8.08576 12.752 8.05938C12.9308 8.033 13.046 7.93317 13.0974 7.75989ZM12.0222 7.38482C12.0222 7.55572 12.0827 7.70159 12.2035 7.82243C12.3243 7.94327 12.4702 8.00369 12.6411 8.00369C12.812 8.00369 12.9579 7.94327 13.0787 7.82243C13.1996 7.70159 13.26 7.55572 13.26 7.38482C13.26 7.21393 13.1996 7.06806 13.0787 6.94722C12.9579 6.82638 12.812 6.76596 12.6411 6.76596C12.4702 6.76596 12.3243 6.82638 12.2035 6.94722C12.0827 7.06806 12.0222 7.21393 12.0222 7.38482ZM11.9972 7.05351L11.916 7.20354C11.8676 7.2894 11.8364 7.38109 11.8222 7.47859L11.7597 7.96618C11.7563 7.99317 11.7542 8.02026 11.7534 8.04745L11.7222 8.90386C11.7221 8.9122 11.7221 8.92053 11.7222 8.92887L11.7159 10.1353C11.7159 10.1395 11.7159 10.1437 11.7159 10.1478L11.7222 11.5919C11.7221 11.5981 11.7221 11.6044 11.7222 11.6106L11.7597 13.0984L11.8035 14.4549C11.8034 14.457 11.8034 14.4591 11.8035 14.4612L11.841 15.5614C11.8406 15.576 11.8406 15.5906 11.841 15.6051L11.9097 16.3428C11.9152 16.4047 11.9277 16.4651 11.9472 16.5241L12.0535 16.8304C12.1676 17.1598 12.3988 17.318 12.7471 17.3051C13.0955 17.2922 13.3144 17.1173 13.4038 16.7804L13.485 16.4678C13.4985 16.4165 13.5069 16.3644 13.51 16.3115L13.5538 15.5801C13.5547 15.5572 13.5547 15.5343 13.5538 15.5114L13.5288 14.4237L13.535 13.0734C13.535 13.0713 13.535 13.0692 13.535 13.0672L13.5225 11.5794L13.5038 10.1353C13.5038 10.1333 13.5038 10.1312 13.5038 10.1291L13.485 8.92262C13.4851 8.91636 13.4851 8.91011 13.485 8.90386L13.4538 8.04745C13.4545 8.02661 13.4545 8.00577 13.4538 7.98494L13.3975 7.49734C13.389 7.43063 13.3724 7.36604 13.3475 7.30356L13.2912 7.14103C13.1836 6.85503 12.9773 6.70172 12.6724 6.6811C12.3675 6.66048 12.1424 6.78461 11.9972 7.05351ZM13.26 16.4428L13.1725 16.0677L13.0662 15.4989L13.0849 14.8737C13.0933 14.6945 13.0078 14.6008 12.8286 14.5924C12.6494 14.5841 12.5557 14.6695 12.5473 14.8487L12.5223 15.4739L12.3661 16.0302L12.241 16.3803C12.1816 16.5469 12.2006 16.704 12.298 16.8516C12.3954 16.9992 12.5324 17.0784 12.7089 17.0893C12.8855 17.1001 13.0311 17.0382 13.1458 16.9036C13.2606 16.769 13.2986 16.6154 13.26 16.4428Z" fill="black"/>
<path d="M12.9036 9.67902L12.9849 9.61651C13.0628 9.54789 13.1107 9.46246 13.1287 9.36021L13.36 8.11623C13.4026 7.89751 13.3523 7.7028 13.2091 7.53211C13.0658 7.36141 12.8828 7.2781 12.66 7.28217C12.4372 7.28624 12.2573 7.37618 12.1204 7.55199C11.9835 7.7278 11.9403 7.92422 11.991 8.14123L12.2598 9.37272C12.2786 9.46921 12.3244 9.55048 12.3973 9.61651L12.4786 9.67902C12.6202 9.80147 12.7619 9.80147 12.9036 9.67902ZM11.9097 7.74115L11.8409 7.97245C11.82 8.03968 11.8075 8.10844 11.8034 8.17874L11.7722 8.80386C11.7717 8.82053 11.7717 8.8372 11.7722 8.85387L11.7597 11.1981C11.7596 11.2022 11.7596 11.2064 11.7597 11.2106L11.7847 12.6483C11.7845 12.6588 11.7845 12.6692 11.7847 12.6796L11.8472 14.0236C11.8471 14.0319 11.8471 14.0403 11.8472 14.0486L11.9347 15.1676C11.9346 15.1738 11.9346 15.1801 11.9347 15.1863L12.0222 16.0302C12.0271 16.0834 12.0375 16.1355 12.0535 16.1865L12.2223 16.7054C12.2362 16.7492 12.2549 16.7909 12.2785 16.8304L12.416 17.0617C12.4551 17.1261 12.5075 17.1769 12.5732 17.2139C12.6389 17.2509 12.7095 17.2694 12.7849 17.2694C12.8603 17.2694 12.9308 17.2509 12.9965 17.2139C13.0622 17.1769 13.1146 17.1261 13.1537 17.0617L13.2912 16.8304C13.3223 16.7797 13.3452 16.7255 13.36 16.6679L13.4912 16.1365C13.5056 16.0832 13.5139 16.0291 13.5162 15.974L13.5413 15.1301C13.5413 15.1259 13.5413 15.1217 13.5413 15.1176L13.56 14.0048C13.56 14.0007 13.56 13.9965 13.56 13.9923L13.5725 12.6421C13.5725 12.64 13.5725 12.6379 13.5725 12.6358V11.1981L13.56 8.85387C13.5605 8.8372 13.5605 8.82053 13.56 8.80386L13.5288 8.17874C13.5247 8.10844 13.5122 8.03968 13.4912 7.97245L13.4225 7.74115C13.3125 7.36251 13.0604 7.17319 12.6661 7.17319C12.2718 7.17319 12.0197 7.36251 11.9097 7.74115ZM13.0287 16.8241L13.0224 16.8116C12.9432 16.6491 12.8224 16.6074 12.6598 16.6866C12.4973 16.7658 12.4556 16.8866 12.5348 17.0492L12.5411 17.0617C12.6203 17.2241 12.7411 17.2657 12.9036 17.1866C13.066 17.1074 13.1077 16.9866 13.0287 16.8241Z" fill="black"/>
<path d="M10.5657 11.6607C10.5657 11.7677 10.6035 11.859 10.6792 11.9347C10.7548 12.0104 10.8462 12.0482 10.9532 12.0482C11.0603 12.0482 11.1516 12.0104 11.2273 11.9347C11.303 11.859 11.3408 11.7677 11.3408 11.6607C11.3408 11.5536 11.303 11.4623 11.2273 11.3866C11.1516 11.3109 11.0603 11.2731 10.9532 11.2731C10.8462 11.2731 10.7548 11.3109 10.6792 11.3866C10.6035 11.4623 10.5657 11.5536 10.5657 11.6607ZM10.3969 11.6607C10.3969 11.8057 10.4481 11.9294 10.5507 12.032C10.6532 12.1345 10.777 12.1858 10.922 12.1858C11.067 12.1858 11.1907 12.1345 11.2933 12.032C11.3958 11.9294 11.4471 11.8057 11.4471 11.6607C11.4471 11.5157 11.3958 11.3919 11.2933 11.2894C11.1907 11.1868 11.067 11.1356 10.922 11.1356C10.777 11.1356 10.6532 11.1868 10.5507 11.2894C10.4481 11.3919 10.3969 11.5157 10.3969 11.6607ZM10.2781 11.6732C10.2781 11.8423 10.3379 11.9867 10.4575 12.1064C10.5771 12.226 10.7215 12.2858 10.8907 12.2858C11.0599 12.2858 11.2043 12.226 11.3239 12.1064C11.4435 11.9867 11.5033 11.8423 11.5033 11.6732C11.5033 11.504 11.4435 11.3596 11.3239 11.24C11.2043 11.1204 11.0599 11.0606 10.8907 11.0606C10.7215 11.0606 10.5771 11.1204 10.4575 11.24C10.3379 11.3596 10.2781 11.504 10.2781 11.6732ZM10.1843 11.6919C10.1843 11.8784 10.2502 12.0375 10.3821 12.1693C10.5139 12.3011 10.673 12.3671 10.8595 12.3671C11.0459 12.3671 11.205 12.3011 11.3368 12.1693C11.4687 12.0375 11.5346 11.8784 11.5346 11.6919C11.5346 11.5055 11.4687 11.3464 11.3368 11.2145C11.205 11.0827 11.0459 11.0168 10.8595 11.0168C10.673 11.0168 10.5139 11.0827 10.3821 11.2145C10.2502 11.3464 10.1843 11.5055 10.1843 11.6919ZM10.1218 11.7169C10.1218 11.9172 10.1926 12.0881 10.3342 12.2297C10.4758 12.3713 10.6467 12.4421 10.847 12.4421C11.0472 12.4421 11.2181 12.3713 11.3597 12.2297C11.5013 12.0881 11.5721 11.9172 11.5721 11.7169C11.5721 11.5167 11.5013 11.3458 11.3597 11.2042C11.2181 11.0626 11.0472 10.9918 10.847 10.9918C10.6467 10.9918 10.4758 11.0626 10.3342 11.2042C10.1926 11.3458 10.1218 11.5167 10.1218 11.7169ZM10.4344 12.3733L10.5344 12.4483C10.6397 12.5249 10.7564 12.575 10.8845 12.5983L11.1533 12.6484C11.2174 12.6595 11.282 12.6637 11.347 12.6609L11.7846 12.6484C11.7951 12.6485 11.8055 12.6485 11.8159 12.6484L12.3785 12.6171C12.3869 12.6151 12.3952 12.613 12.4035 12.6108L13.0411 12.5608C13.0453 12.5588 13.0495 12.5567 13.0536 12.5546L13.6787 12.4921C13.6934 12.4903 13.708 12.4883 13.7225 12.4858L14.2726 12.4046C14.2747 12.4046 14.2768 12.4046 14.2789 12.4046L14.7039 12.3358C14.7249 12.3324 14.7458 12.3282 14.7665 12.3233L15.0478 12.2608C15.0582 12.2589 15.0686 12.2568 15.079 12.2545L15.2228 12.217C15.4214 12.1624 15.5819 12.0522 15.7044 11.8866C15.8268 11.721 15.8851 11.5352 15.8792 11.3294V11.3106C15.8732 11.0523 15.7734 10.8376 15.5799 10.6664C15.3864 10.4952 15.1611 10.4224 14.904 10.4479L14.7727 10.4604C14.7581 10.4622 14.7435 10.4642 14.7289 10.4667L14.4539 10.5104C14.4351 10.5119 14.4163 10.514 14.3976 10.5167L14.0038 10.6042C13.9996 10.6042 13.9955 10.6042 13.9913 10.6042L13.535 10.7105L13.0224 10.798L12.5223 10.8605H12.0097L11.5096 10.8355L11.0282 10.7855C11.0033 10.7824 10.9783 10.7803 10.9532 10.7793L10.5281 10.773L10.2656 10.7667C10.3588 10.7987 10.4546 10.8154 10.5531 10.8168L10.4969 10.798C10.2833 10.8291 10.102 10.9228 9.95306 11.0791C9.80414 11.2353 9.71931 11.4209 9.69856 11.6358C9.67781 11.8507 9.72558 12.0491 9.84185 12.2309C9.95812 12.4128 10.1181 12.5395 10.3219 12.6108L10.4844 12.5921L10.872 12.5483L11.4533 12.4983L12.1284 12.4483L12.8161 12.4233L13.4662 12.4046L14.0101 12.3921H14.4601C14.4726 12.3923 14.4851 12.3923 14.4976 12.3921L14.8352 12.3796C14.9098 12.3764 14.9827 12.3639 15.054 12.342L15.2478 12.2795C15.537 12.1878 15.7099 11.9928 15.7664 11.6947C15.823 11.3965 15.7334 11.1518 15.4978 10.9605L15.3353 10.8293C15.2418 10.7558 15.1376 10.7037 15.0227 10.673L14.6977 10.5855C14.6445 10.5701 14.5903 10.5597 14.5352 10.5542L14.0788 10.5167C14.058 10.516 14.0371 10.516 14.0163 10.5167L13.4537 10.5042C13.4474 10.5041 13.4412 10.5041 13.4349 10.5042L12.7786 10.5104C12.7702 10.5103 12.7619 10.5103 12.7536 10.5104L12.0409 10.5355C12.0305 10.5353 12.0201 10.5353 12.0097 10.5355L11.3095 10.5855C11.297 10.5852 11.2845 10.5852 11.272 10.5855L10.6782 10.648C10.6678 10.6478 10.6573 10.6478 10.6469 10.648L10.2343 10.7105C10.19 10.7157 10.1462 10.7241 10.1031 10.7355L9.92803 10.7855C9.69459 10.8539 9.51498 10.9922 9.38919 11.2004C9.26339 11.4086 9.2245 11.632 9.27252 11.8704C9.32054 12.1089 9.44284 12.2998 9.63941 12.4431C9.83598 12.5864 10.0551 12.6444 10.2968 12.6171H10.3094L10.5281 12.6108L10.9345 12.6046L11.4221 12.6108L11.9722 12.6234C11.9847 12.6236 11.9972 12.6236 12.0097 12.6234L12.591 12.6108C12.6182 12.61 12.6453 12.6079 12.6723 12.6046L13.2537 12.5358C13.2662 12.534 13.2787 12.5319 13.2912 12.5296L13.8475 12.4421C13.8559 12.4422 13.8642 12.4422 13.8725 12.4421L14.3539 12.3483C14.358 12.3483 14.3622 12.3483 14.3664 12.3483L14.7477 12.267L14.979 12.2295L15.079 12.2233C15.0879 11.955 14.9944 11.7292 14.7984 11.5458C14.6024 11.3624 14.3709 11.284 14.1038 11.3106V11.3294C14.3117 11.2926 14.4849 11.1944 14.6232 11.0349C14.7616 10.8755 14.8344 10.6902 14.8415 10.4792L14.7227 10.4979L14.4539 10.5292C14.4476 10.5291 14.4414 10.5291 14.4351 10.5292L14.0163 10.5855L13.485 10.6542L12.8723 10.7167L12.2472 10.7667L11.6909 10.8105C11.6867 10.8105 11.6825 10.8105 11.6784 10.8105L11.247 10.848C11.2156 10.8505 11.1843 10.8547 11.1533 10.8605L10.8845 10.9105C10.831 10.9202 10.7789 10.9347 10.7282 10.9543L10.6094 11.0043C10.3207 11.1182 10.1566 11.3292 10.1173 11.6371C10.0779 11.945 10.1836 12.1904 10.4344 12.3733ZM14.6039 11.5857C14.6039 11.7376 14.6576 11.8672 14.765 11.9746C14.8725 12.0821 15.0021 12.1358 15.154 12.1358C15.3059 12.1358 15.4356 12.0821 15.543 11.9746C15.6504 11.8672 15.7041 11.7376 15.7041 11.5857C15.7041 11.4337 15.6504 11.3041 15.543 11.1967C15.4356 11.0893 15.3059 11.0355 15.154 11.0355C15.0021 11.0355 14.8725 11.0893 14.765 11.1967C14.6576 11.3041 14.6039 11.4337 14.6039 11.5857ZM14.929 11.5982V11.6044C14.929 11.7878 15.0207 11.8795 15.204 11.8795C15.3874 11.8795 15.4791 11.7878 15.4791 11.6044V11.5982C15.4791 11.4148 15.3874 11.3231 15.204 11.3231C15.0207 11.3231 14.929 11.4148 14.929 11.5982Z" fill="black"/>
<path d="M17.7424 1.18421C17.7424 1.28261 17.7772 1.36659 17.8468 1.43617C17.9163 1.50574 18.0003 1.54053 18.0987 1.54053C18.1971 1.54053 18.2811 1.50574 18.3507 1.43617C18.4203 1.36659 18.455 1.28261 18.455 1.18421C18.455 1.08582 18.4203 1.00184 18.3507 0.93226C18.2811 0.862685 18.1971 0.827897 18.0987 0.827897C18.0003 0.827897 17.9163 0.862685 17.8468 0.93226C17.7772 1.00184 17.7424 1.08582 17.7424 1.18421ZM17.7362 1.28423V1.29049C17.7509 1.34376 17.7759 1.39169 17.8112 1.43426L17.8237 1.45302C17.8134 1.38833 17.7884 1.32999 17.7487 1.27798L17.7549 1.31549C17.7956 1.56253 17.941 1.67924 18.1909 1.66562C18.4409 1.652 18.5728 1.52019 18.5864 1.27019C18.6 1.02019 18.4833 0.874847 18.2362 0.834148L18.1987 0.827897C18.2507 0.867688 18.3091 0.892693 18.3738 0.902911L18.355 0.890409C18.3124 0.855151 18.2645 0.830146 18.2112 0.815395H18.205C18.0624 0.776142 17.9388 0.808815 17.8342 0.913411C17.7296 1.01801 17.6969 1.14162 17.7362 1.28423ZM17.7549 1.56554L17.8049 1.64055C17.8863 1.76699 17.9988 1.85243 18.1425 1.89685L18.3238 1.95936C18.3566 1.96831 18.3899 1.97456 18.4238 1.97812L18.6863 2.02187C18.6905 2.02192 18.6947 2.02192 18.6988 2.02187L19.0426 2.06563C19.0634 2.06876 19.0842 2.07085 19.1052 2.07188L19.4927 2.08439C19.5304 2.08573 19.5679 2.08365 19.6053 2.07813L20.0116 2.00937C20.0658 2.00238 20.1179 1.98779 20.1679 1.96561L20.5117 1.80308C20.5268 1.79563 20.5414 1.78729 20.5554 1.77808L20.7742 1.6343L20.993 1.61555C21.1681 1.59471 21.2452 1.49677 21.2243 1.32174C21.2035 1.14671 21.1055 1.06961 20.9305 1.09045L20.718 1.11545L20.4742 1.02794C20.4659 1.02559 20.4576 1.02351 20.4492 1.02168L20.0866 0.909163C20.0518 0.899498 20.0164 0.893247 19.9803 0.890409L19.5677 0.852902C19.5615 0.850718 19.5553 0.848634 19.549 0.846651L19.1864 0.827897L18.8739 0.784139L18.6426 0.74038L18.4613 0.702873C18.3421 0.676705 18.2254 0.68504 18.1112 0.727878L18.0237 0.765385C17.8621 0.825902 17.7539 0.93794 17.6989 1.1015C17.644 1.26506 17.6626 1.41974 17.7549 1.56554Z" fill="black"/>
<path d="M18.9551 1.74679L18.9614 1.75929C18.9705 1.77674 18.981 1.79341 18.9926 1.8093L19.0239 1.84681C19.0354 1.86222 19.0479 1.8768 19.0614 1.89057L19.1427 1.97808C19.193 2.02952 19.2513 2.06911 19.3177 2.09685L19.5302 2.19062C19.5806 2.21016 19.6327 2.22267 19.6865 2.22813L20.0428 2.27814C20.047 2.28027 20.0511 2.28235 20.0553 2.28439L20.5242 2.3344C20.5492 2.33595 20.5742 2.33595 20.5992 2.3344L21.1305 2.32815C21.1772 2.32766 21.223 2.32141 21.2681 2.30939L21.7994 2.16562C21.8144 2.16022 21.8289 2.15397 21.8432 2.14686L22.2808 1.97808L22.6621 1.91557C22.8035 1.87039 22.8634 1.77435 22.8419 1.62746C22.8205 1.48057 22.7355 1.40574 22.5871 1.40297L22.2182 1.45923L21.7869 1.37797L21.2681 1.23419C21.2536 1.23153 21.239 1.22944 21.2243 1.22794L20.6929 1.12792C20.6846 1.12775 20.6763 1.12775 20.6679 1.12792L20.2054 1.06541C20.1929 1.06294 20.1804 1.06085 20.1678 1.05916L19.8115 1.03415C19.7571 1.02883 19.7029 1.03091 19.649 1.0404L19.4177 1.09041C19.3552 1.10284 19.2969 1.12576 19.2427 1.15918L19.1427 1.22169L19.1051 1.24669C19.118 1.24111 19.1305 1.23486 19.1427 1.22794L19.1302 1.23419C19.0334 1.27916 18.9677 1.35214 18.9332 1.45314C18.8988 1.55413 18.9061 1.65202 18.9551 1.74679Z" fill="black"/>
<path d="M19.8179 1.75308L21.8308 1.99688C21.9023 2.00483 21.9732 2.00066 22.0433 1.98438L22.4621 1.89061C22.4747 1.88898 22.4872 1.8869 22.4996 1.88436L22.8372 1.78434C22.8522 1.77894 22.8667 1.77269 22.881 1.76559L23.0185 1.70933L23.106 1.72808C23.2724 1.75878 23.3738 1.69148 23.4101 1.52618C23.4464 1.36088 23.3825 1.25731 23.2185 1.21548L23.106 1.19048L22.9747 1.08421C22.9444 1.05848 22.9111 1.03764 22.8747 1.02169L22.5496 0.890419C22.5253 0.880196 22.5003 0.871861 22.4746 0.865414L22.0558 0.759144C21.9815 0.741369 21.9065 0.737201 21.8308 0.746642L19.8179 0.990438C19.7126 0.990489 19.6228 1.02774 19.5484 1.10219C19.4739 1.17664 19.4367 1.2665 19.4367 1.37176C19.4367 1.47702 19.4739 1.56688 19.5484 1.64133C19.6228 1.71578 19.7126 1.75303 19.8179 1.75308Z" fill="black"/>
<path d="M20.9118 1.41547C20.9118 1.52249 20.9497 1.61385 21.0253 1.68952C21.101 1.7652 21.1924 1.80304 21.2994 1.80304C21.4064 1.80304 21.4978 1.7652 21.5734 1.68952C21.6491 1.61385 21.687 1.52249 21.687 1.41547C21.687 1.30844 21.6491 1.21709 21.5734 1.14141C21.4978 1.06573 21.4064 1.02789 21.2994 1.02789C21.1924 1.02789 21.101 1.06573 21.0253 1.14141C20.9497 1.21709 20.9118 1.30844 20.9118 1.41547ZM20.8868 1.41547C20.8868 1.53113 20.9277 1.62984 21.0095 1.71163C21.0913 1.79341 21.19 1.8343 21.3056 1.8343C21.4213 1.8343 21.52 1.79341 21.6018 1.71163C21.6836 1.62984 21.7245 1.53113 21.7245 1.41547C21.7245 1.29981 21.6836 1.20109 21.6018 1.11931C21.52 1.03753 21.4213 0.996639 21.3056 0.996639C21.19 0.996639 21.0913 1.03753 21.0095 1.11931C20.9277 1.20109 20.8868 1.29981 20.8868 1.41547ZM20.8681 1.39672C20.8681 1.52439 20.9133 1.63336 21.0037 1.72361C21.094 1.81386 21.203 1.85898 21.3306 1.85898C21.4583 1.85898 21.5673 1.81386 21.6576 1.72361C21.7479 1.63336 21.7931 1.52439 21.7932 1.39672C21.7931 1.26904 21.7479 1.16007 21.6576 1.06982C21.5673 0.979572 21.4583 0.934447 21.3306 0.934447C21.203 0.934447 21.094 0.979572 21.0037 1.06982C20.9133 1.16007 20.8681 1.26904 20.8681 1.39672ZM21.1556 1.85305L21.2681 1.90931C21.3179 1.93325 21.37 1.94992 21.4244 1.95932L21.6745 2.00933C21.7095 2.01664 21.7449 2.0208 21.7807 2.02183H22.1433C22.2146 2.02352 22.2834 2.01102 22.3496 1.98433L22.5496 1.89681L22.7997 1.97182C22.9572 1.99895 23.0584 1.93582 23.1033 1.78243C23.1482 1.62904 23.097 1.52131 22.9497 1.45923L22.6997 1.38421L22.5746 1.20293C22.5236 1.13252 22.4591 1.07834 22.3808 1.0404L22.062 0.877866C21.997 0.844609 21.9283 0.823772 21.8557 0.815355L21.5994 0.79035C21.4835 0.776525 21.373 0.795278 21.2681 0.84661L21.1556 0.902871C20.96 1.00084 20.8622 1.1592 20.8622 1.37796C20.8622 1.59672 20.96 1.75508 21.1556 1.85305Z" fill="black"/>
<path d="M24.0999 10.5673C24.0999 10.6691 24.1359 10.756 24.2079 10.828C24.28 10.9001 24.3669 10.9361 24.4687 10.9361C24.5706 10.9361 24.6575 10.9001 24.7295 10.828C24.8015 10.756 24.8376 10.6691 24.8376 10.5673C24.8376 10.4654 24.8015 10.3785 24.7295 10.3065C24.6575 10.2344 24.5706 10.1984 24.4687 10.1984C24.3669 10.1984 24.28 10.2344 24.2079 10.3065C24.1359 10.3785 24.0999 10.4654 24.0999 10.5673ZM24.0374 10.5798C24.0374 10.6954 24.0783 10.7941 24.1601 10.8759C24.2419 10.9577 24.3406 10.9986 24.4562 10.9986C24.5719 10.9986 24.6706 10.9577 24.7524 10.8759C24.8342 10.7941 24.8751 10.6954 24.8751 10.5798C24.8751 10.4641 24.8342 10.3654 24.7524 10.2836C24.6706 10.2018 24.5719 10.1609 24.4562 10.1609C24.3406 10.1609 24.2419 10.2018 24.1601 10.2836C24.0783 10.3654 24.0374 10.4641 24.0374 10.5798ZM23.8686 10.5923C23.8686 10.7528 23.9254 10.8898 24.0389 11.0033C24.1524 11.1169 24.2894 11.1736 24.45 11.1736C24.6105 11.1736 24.7475 11.1169 24.8611 11.0033C24.9746 10.8898 25.0313 10.7528 25.0313 10.5923C25.0313 10.4317 24.9746 10.2947 24.8611 10.1812C24.7475 10.0677 24.6105 10.0109 24.45 10.0109C24.2894 10.0109 24.1524 10.0677 24.0389 10.1812C23.9254 10.2947 23.8686 10.4317 23.8686 10.5923ZM24.1687 11.1799L24.2499 11.2236C24.3143 11.2606 24.3831 11.2856 24.4562 11.2986L24.6563 11.3299C24.7019 11.337 24.7477 11.339 24.7938 11.3361L25.0813 11.3174C25.1237 11.3153 25.1653 11.3091 25.2064 11.2986L25.5439 11.2049C25.5782 11.1974 25.6115 11.187 25.644 11.1736L25.9565 11.0298C26.0127 11.0031 26.0627 10.9677 26.1065 10.9236L26.2941 10.736C26.3074 10.7244 26.3199 10.7119 26.3316 10.6985L26.3878 10.6235L26.4504 10.611C26.6126 10.5691 26.6729 10.4671 26.6313 10.3048C26.5897 10.1425 26.4877 10.0821 26.3253 10.1234L26.2628 10.1422L26.1753 10.1047C26.157 10.097 26.1383 10.0907 26.119 10.0859L25.8565 10.0234C25.803 10.0109 25.7488 10.0068 25.694 10.0109L25.3564 10.0359L25.0188 10.0547L24.8 10.0609L24.7 10.0422L24.6625 10.0296C24.5101 9.98689 24.3625 9.99964 24.2197 10.0679C24.0769 10.1362 23.9743 10.243 23.9118 10.3885C23.8494 10.5339 23.8426 10.6819 23.8914 10.8325C23.9403 10.983 24.0327 11.0988 24.1687 11.1799Z" fill="black"/>
<path d="M24.5187 10.6735C24.5187 10.7719 24.5535 10.8559 24.6231 10.9255C24.6927 10.995 24.7767 11.0298 24.8751 11.0298C24.9734 11.0298 25.0574 10.995 25.127 10.9255C25.1966 10.8559 25.2314 10.7719 25.2314 10.6735C25.2314 10.5751 25.1966 10.4911 25.127 10.4216C25.0574 10.352 24.9734 10.3172 24.8751 10.3172C24.7767 10.3172 24.6927 10.352 24.6231 10.4216C24.5535 10.4911 24.5187 10.5751 24.5187 10.6735ZM24.3374 10.6798C24.3374 10.8213 24.3875 10.9421 24.4876 11.0422C24.5877 11.1423 24.7085 11.1924 24.85 11.1924C24.9916 11.1924 25.1124 11.1423 25.2125 11.0422C25.3126 10.9421 25.3626 10.8213 25.3626 10.6798C25.3626 10.5382 25.3126 10.4174 25.2125 10.3173C25.1124 10.2172 24.9916 10.1672 24.85 10.1672C24.7085 10.1672 24.5877 10.2172 24.4876 10.3173C24.3875 10.4174 24.3374 10.5382 24.3374 10.6798ZM24.2187 10.6985C24.2187 10.866 24.2779 11.0089 24.3963 11.1273C24.5147 11.2457 24.6576 11.3049 24.825 11.3049C24.9925 11.3049 25.1354 11.2457 25.2538 11.1273C25.3722 11.0089 25.4314 10.866 25.4314 10.6985C25.4314 10.5311 25.3722 10.3881 25.2538 10.2697C25.1354 10.1513 24.9925 10.0921 24.825 10.0921C24.6576 10.0921 24.5147 10.1513 24.3963 10.2697C24.2779 10.3881 24.2187 10.5311 24.2187 10.6985ZM24.2374 11.0423L24.2687 11.0986C24.3888 11.3252 24.5763 11.4523 24.8313 11.4799L25.0063 11.4987C25.1887 11.5198 25.3554 11.4781 25.5064 11.3736L25.7002 11.2361C25.7851 11.1771 25.85 11.1011 25.8947 11.0079C25.9395 10.9147 25.9584 10.8165 25.9513 10.7134C25.9443 10.6102 25.9122 10.5156 25.8552 10.4293C25.7982 10.3431 25.7236 10.2765 25.6314 10.2297L25.4189 10.1234C25.3228 10.0737 25.2207 10.0466 25.1126 10.0421H24.9251C24.8487 10.0386 24.7737 10.0469 24.7 10.0671L24.6375 10.0859C24.4345 10.146 24.2921 10.2738 24.2104 10.4691C24.1287 10.6645 24.1377 10.8555 24.2374 11.0423ZM25.719 10.9673L26.0065 10.9236C26.1479 10.8784 26.2079 10.7823 26.1864 10.6354C26.1649 10.4886 26.0799 10.4137 25.9315 10.411L25.6439 10.4547C25.5025 10.4999 25.4426 10.5959 25.4641 10.7428C25.4856 10.8897 25.5705 10.9645 25.719 10.9673Z" fill="black"/>
<path d="M22.187 1.6593C22.187 1.76287 22.2236 1.85128 22.2969 1.92452C22.3701 1.99775 22.4585 2.03437 22.5621 2.03437C22.6657 2.03437 22.7541 1.99775 22.8273 1.92452C22.9005 1.85128 22.9372 1.76287 22.9372 1.6593C22.9372 1.55573 22.9005 1.46732 22.8273 1.39408C22.7541 1.32085 22.6657 1.28423 22.5621 1.28423C22.4585 1.28423 22.3701 1.32085 22.2969 1.39408C22.2236 1.46732 22.187 1.55573 22.187 1.6593ZM22.9747 1.52177L22.9684 1.50302C22.9714 1.52204 22.9755 1.54079 22.9809 1.55928L22.9747 1.52177C22.9617 1.44801 22.9325 1.38133 22.8872 1.32174L22.8621 1.29673C22.8187 1.23826 22.7645 1.19242 22.6996 1.1592L22.6809 1.15295C22.566 1.09612 22.4477 1.08778 22.326 1.12794C22.2043 1.1681 22.1142 1.2452 22.0557 1.35924L22.0495 1.37175C22.0332 1.40365 22.0207 1.43699 22.012 1.47176L22.0057 1.49677C21.9859 1.58337 21.9901 1.6688 22.0182 1.75307L22.0307 1.80308C22.0468 1.85041 22.0698 1.89416 22.0995 1.93435L22.1433 1.99061L22.1808 2.05312L22.2433 2.19065C22.2492 2.20129 22.2554 2.21171 22.262 2.22191L22.3808 2.4407L22.5433 2.74701L22.7371 3.10958L22.9497 3.52841C22.9517 3.53051 22.9538 3.53259 22.9559 3.53466L23.1872 3.98474C23.1872 3.98683 23.1872 3.98891 23.1872 3.99099L23.4373 4.45358L23.6873 4.92242L23.9436 5.39126L24.1811 5.84135L24.3999 6.26643C24.402 6.26853 24.4041 6.27061 24.4062 6.27268L24.6062 6.6415L24.775 6.97906L24.9313 7.28537C24.9313 7.28745 24.9313 7.28954 24.9313 7.29162L25.0751 7.57918C25.0771 7.58337 25.0792 7.58754 25.0813 7.59168L25.2188 7.84798C25.2209 7.85008 25.223 7.85216 25.2251 7.85423L25.3501 8.07927C25.3521 8.08347 25.3542 8.08763 25.3564 8.09177L25.4751 8.27931C25.4772 8.28351 25.4793 8.28767 25.4814 8.29181L25.5752 8.44184L25.6564 8.57937L25.7377 8.73565C25.7398 8.73775 25.7418 8.73983 25.7439 8.7419L25.819 8.87942L25.8815 9.01695C25.8834 9.02324 25.8855 9.02949 25.8877 9.0357L25.944 9.14823L25.9815 9.23574L26.0002 9.29825L26.019 9.35451L26.044 9.45453C26.1117 9.72466 26.2846 9.85385 26.5629 9.84211H26.5754C26.5004 9.80536 26.4212 9.78869 26.3378 9.7921L26.3503 9.79835C26.4014 9.82501 26.4556 9.84168 26.5128 9.84836H26.5316C26.4594 9.76848 26.3698 9.72263 26.2628 9.71083L26.3003 9.75459C26.281 9.70786 26.2539 9.66619 26.219 9.62957L26.2378 9.67958C26.2775 9.78488 26.3486 9.86072 26.4511 9.9071C26.5537 9.95348 26.6576 9.95682 26.7629 9.91712C26.8682 9.87742 26.944 9.8063 26.9904 9.70377C27.0368 9.60124 27.0401 9.49732 27.0004 9.39202H26.9942V9.38577C26.8559 9.48122 26.7955 9.6125 26.8129 9.7796L26.8254 9.76709C26.8603 9.74418 26.8915 9.71709 26.9192 9.68583L26.9317 9.67333C26.9624 9.63733 26.9874 9.59774 27.0067 9.55455L27.0129 9.54205C27.0605 9.4399 27.073 9.33363 27.0504 9.22324L27.0254 9.11697C27.0221 9.10009 27.0179 9.08342 27.0129 9.06696L26.9879 8.98569C26.9812 8.96218 26.9729 8.93926 26.9629 8.91693L26.9254 8.84192L26.8817 8.7419C26.8797 8.73561 26.8776 8.72936 26.8754 8.72314L26.8191 8.59812L26.7504 8.44809C26.7504 8.44601 26.7504 8.44393 26.7504 8.44184L26.6754 8.27931C26.6714 8.27086 26.6673 8.26253 26.6629 8.25431L26.5754 8.08552C26.5714 8.07708 26.5672 8.06874 26.5629 8.06052L26.4691 7.90424C26.465 7.8979 26.4609 7.89165 26.4566 7.88549L26.3628 7.73546L26.2628 7.56042L26.144 7.34788L26.0127 7.10409L25.869 6.81653L25.7127 6.50397L25.5377 6.16016C25.5356 6.15806 25.5335 6.15597 25.5314 6.15391L25.3376 5.77883L25.1188 5.35375C25.1168 5.35165 25.1147 5.34957 25.1126 5.3475L24.875 4.89116L24.625 4.42233L24.3749 3.95974L24.1436 3.4909L23.9123 3.04081L23.6998 2.61573C23.6978 2.61154 23.6957 2.60737 23.6936 2.60323L23.4935 2.23441C23.4915 2.23021 23.4894 2.22605 23.4873 2.22191L23.3122 1.92185C23.3009 1.9023 23.2884 1.88355 23.2747 1.86559L23.1247 1.6593C23.1186 1.65289 23.1124 1.64664 23.1059 1.64055L22.9872 1.49677C22.9791 1.48814 22.9708 1.4798 22.9622 1.47176L22.9059 1.40925L22.8934 1.39675L22.8872 1.38425C22.8969 1.42362 22.9115 1.46113 22.9309 1.49677L22.9247 1.47176C22.8718 1.57546 22.8593 1.68382 22.8872 1.79683L22.8934 1.78432C22.6617 1.74034 22.493 1.82369 22.3871 2.03437H22.4058C22.348 1.99016 22.2834 1.96099 22.212 1.94685L22.237 1.97186L22.262 1.99061C22.3054 2.0244 22.3533 2.0494 22.4058 2.06563L22.4246 2.07188C22.594 2.12607 22.7415 2.09028 22.8673 1.96452C22.9931 1.83876 23.0289 1.69117 22.9747 1.52177Z" fill="black"/>
<path d="M26.1753 9.11072C26.1753 9.21257 26.2113 9.2995 26.2833 9.37151C26.3553 9.44353 26.4422 9.47954 26.5441 9.47954C26.6459 9.47954 26.7329 9.44353 26.8049 9.37151C26.8769 9.2995 26.9129 9.21257 26.9129 9.11072C26.9129 9.00887 26.8769 8.92194 26.8049 8.84992C26.7329 8.77791 26.6459 8.7419 26.5441 8.7419C26.4422 8.7419 26.3553 8.77791 26.2833 8.84992C26.2113 8.92194 26.1753 9.00887 26.1753 9.11072ZM26.1815 8.84192L26.1753 8.85442C26.0935 8.96809 26.0685 9.09312 26.1002 9.22949L26.1252 9.32951C26.1303 9.34866 26.1366 9.36741 26.144 9.38577L26.194 9.52955L26.2565 9.69833C26.2604 9.70679 26.2646 9.71512 26.269 9.72334L26.3378 9.87962L26.394 10.0109L26.4378 10.1234C26.447 10.1429 26.4574 10.1616 26.4691 10.1797L26.5191 10.2609C26.5211 10.2651 26.5232 10.2693 26.5253 10.2734L26.5753 10.3547C26.5774 10.3589 26.5794 10.3631 26.5816 10.3672L26.6128 10.411C26.5986 10.3732 26.5799 10.3377 26.5566 10.3047L26.5628 10.3172C26.5966 10.444 26.6702 10.5403 26.7837 10.6061C26.8971 10.672 27.0173 10.6881 27.1441 10.6544C27.2709 10.6208 27.3673 10.5472 27.4332 10.4338C27.4991 10.3204 27.5153 10.2002 27.4818 10.0734L27.4755 10.0609C27.4594 9.9734 27.4219 9.89631 27.363 9.82961L27.338 9.79835L27.313 9.77335C27.2465 9.70042 27.1652 9.6525 27.0692 9.62957L27.0379 9.62332C26.954 9.60297 26.8707 9.60506 26.7879 9.62957L26.7629 9.63582C26.7393 9.64241 26.7164 9.65074 26.6941 9.66082L26.6628 9.67333C26.5818 9.71347 26.5172 9.77181 26.4691 9.84836L26.4503 9.87336C26.3404 10.0362 26.336 10.2017 26.4371 10.3702C26.5381 10.5386 26.6863 10.6126 26.8816 10.5923H26.9129C26.9493 10.588 26.9847 10.5796 27.0192 10.5672L27.0504 10.5547C27.0313 10.5598 27.0125 10.5661 26.9942 10.5735L27.0192 10.5672C26.9629 10.5572 26.9066 10.5572 26.8504 10.5672L26.8816 10.5735C26.8102 10.5089 26.7268 10.4693 26.6316 10.4547L26.6566 10.4797L26.6879 10.5047C26.6759 10.4937 26.6634 10.4833 26.6503 10.4735L26.6628 10.4797C26.7475 10.5659 26.8501 10.613 26.9707 10.6209C27.0913 10.6288 27.1991 10.5956 27.2943 10.5212C27.3895 10.4468 27.4479 10.3501 27.4693 10.2312C27.4908 10.1123 27.4699 10.0014 27.4067 9.89837L27.4005 9.88587C27.3945 9.87733 27.3883 9.86899 27.3817 9.86086L27.363 9.83586L27.3317 9.78585L27.3005 9.72334L27.2567 9.62957L27.2067 9.50454C27.2046 9.50244 27.2026 9.50036 27.2005 9.49829L27.1379 9.36077L27.0817 9.20449C27.0797 9.19819 27.0776 9.19194 27.0754 9.18573L27.0192 9.04821L26.9817 8.95444C26.9379 8.84436 26.8629 8.76309 26.7566 8.71064L26.7379 8.69814C26.5117 8.58856 26.3263 8.63648 26.1815 8.84192ZM26.3878 10.1609C26.3878 10.2766 26.4287 10.3753 26.5105 10.4571C26.5923 10.5389 26.691 10.5797 26.8066 10.5797C26.9223 10.5797 27.021 10.5389 27.1028 10.4571C27.1846 10.3753 27.2255 10.2766 27.2255 10.1609C27.2255 10.0453 27.1846 9.94654 27.1028 9.86476C27.021 9.78298 26.9223 9.74209 26.8066 9.74209C26.691 9.74209 26.5923 9.78298 26.5105 9.86476C26.4287 9.94654 26.3878 10.0453 26.3878 10.1609ZM26.5503 10.0546L26.5316 10.0859C26.4403 10.24 26.4716 10.3628 26.6256 10.4544C26.7795 10.5459 26.9024 10.5148 26.9942 10.361L27.0129 10.3297C27.1042 10.1756 27.0729 10.0528 26.9189 9.96125C26.765 9.86971 26.6421 9.90084 26.5503 10.0546Z" fill="black"/>
<path d="M17.7481 35.5969C17.7481 35.6918 17.7817 35.7728 17.8489 35.8399C17.916 35.907 17.997 35.9406 18.0919 35.9406C18.1868 35.9406 18.2679 35.907 18.335 35.8399C18.4021 35.7728 18.4357 35.6918 18.4357 35.5969C18.4357 35.5019 18.4021 35.4209 18.335 35.3538C18.2679 35.2867 18.1868 35.2532 18.0919 35.2532C17.997 35.2532 17.916 35.2867 17.8489 35.3538C17.7817 35.4209 17.7481 35.5019 17.7481 35.5969ZM17.7044 35.5969C17.7044 35.7056 17.7428 35.7984 17.8197 35.8753C17.8966 35.9522 17.9894 35.9907 18.0982 35.9907C18.2069 35.9907 18.2998 35.9522 18.3767 35.8753C18.4536 35.7984 18.492 35.7056 18.492 35.5969C18.492 35.4881 18.4536 35.3953 18.3767 35.3184C18.2998 35.2415 18.2069 35.203 18.0982 35.203C17.9894 35.203 17.8966 35.2415 17.8197 35.3184C17.7428 35.3953 17.7044 35.4881 17.7044 35.5969ZM17.6793 35.5906C17.6793 35.708 17.7208 35.8082 17.8038 35.8912C17.8869 35.9742 17.987 36.0157 18.1044 36.0157C18.2218 36.0157 18.322 35.9742 18.405 35.8912C18.488 35.8082 18.5295 35.708 18.5295 35.5906C18.5295 35.4732 18.488 35.373 18.405 35.29C18.322 35.207 18.2218 35.1655 18.1044 35.1655C17.987 35.1655 17.8869 35.207 17.8038 35.29C17.7208 35.373 17.6793 35.4732 17.6793 35.5906ZM17.6293 35.6531L17.6356 35.6844C17.6585 35.863 17.746 36.0005 17.8981 36.097L18.0294 36.1782C18.0707 36.2043 18.1144 36.2252 18.1607 36.2407L18.3857 36.322C18.4124 36.3301 18.4395 36.3363 18.467 36.3408L18.7733 36.4033C18.7899 36.406 18.8066 36.4081 18.8233 36.4095L19.1796 36.447C19.188 36.4472 19.1963 36.4472 19.2046 36.447L19.5985 36.4783C19.6574 36.4826 19.7158 36.4784 19.7735 36.4658L20.1423 36.3845C20.1528 36.3828 20.1632 36.3807 20.1736 36.3783L20.4986 36.2845C20.5269 36.2771 20.554 36.2667 20.5799 36.2532L20.7424 36.1657H20.8737C21.0446 36.1657 21.13 36.0803 21.13 35.9094C21.13 35.7386 21.0446 35.6531 20.8737 35.6531H20.7424L20.5799 35.5656C20.5677 35.5587 20.5552 35.5524 20.5424 35.5469L20.2298 35.4218C20.2216 35.4174 20.2133 35.4133 20.2048 35.4093L19.8423 35.2843C19.8017 35.2695 19.76 35.2591 19.7172 35.253L19.3234 35.2093C19.3192 35.2092 19.3151 35.2092 19.3109 35.2093L18.9733 35.1718L18.717 35.128L18.5045 35.078C18.4859 35.073 18.4672 35.0688 18.4482 35.0655L18.292 35.0405C18.1107 35.0127 17.9523 35.0606 17.8169 35.1843L17.7919 35.203C17.6585 35.3245 17.6043 35.4745 17.6293 35.6531Z" fill="black"/>
<path d="M18.5109 35.5968C18.5109 35.7021 18.5482 35.7919 18.6226 35.8664C18.6971 35.9408 18.7869 35.978 18.8922 35.978C18.9974 35.978 19.0873 35.9408 19.1617 35.8664C19.2362 35.7919 19.2734 35.7021 19.2735 35.5968C19.2734 35.4916 19.2362 35.4017 19.1617 35.3273C19.0873 35.2529 18.9974 35.2157 18.8922 35.2157C18.7869 35.2157 18.6971 35.2529 18.6226 35.3273C18.5482 35.4017 18.5109 35.4916 18.5109 35.5968ZM18.3733 35.5843C18.3733 35.7242 18.4228 35.8435 18.5216 35.9424C18.6205 36.0412 18.7399 36.0907 18.8797 36.0907C19.0195 36.0907 19.1388 36.0412 19.2377 35.9424C19.3366 35.8435 19.386 35.7242 19.386 35.5843C19.386 35.4445 19.3366 35.3252 19.2377 35.2263C19.1388 35.1274 19.0195 35.078 18.8797 35.078C18.7399 35.078 18.6205 35.1274 18.5216 35.2263C18.4228 35.3252 18.3733 35.4445 18.3733 35.5843ZM18.5046 35.9532L18.5546 36.0157C18.6157 36.0843 18.6886 36.1364 18.7734 36.1719L18.9297 36.2345C18.9601 36.2473 18.9914 36.2578 19.0235 36.2657L19.2735 36.3282C19.392 36.3557 19.5087 36.3494 19.6236 36.3095L19.8924 36.222C19.9324 36.2083 19.9699 36.1895 20.0049 36.1657L20.1612 36.0594H20.3612C20.5321 36.0594 20.6175 35.974 20.6175 35.8031C20.6175 35.6323 20.5321 35.5468 20.3612 35.5468H20.1799L20.0611 35.4343C20.057 35.4322 20.0528 35.4301 20.0486 35.4281L19.8361 35.2405C19.7609 35.1768 19.6755 35.133 19.5798 35.1092L19.3298 35.0405C19.3009 35.0343 19.2717 35.0301 19.2422 35.028L19.0735 35.0092C18.9576 34.9961 18.8472 35.0149 18.7421 35.0655L18.6734 35.0967C18.5113 35.177 18.4128 35.3059 18.3778 35.4833C18.3428 35.6608 18.3851 35.8174 18.5046 35.9532Z" fill="black"/>
<path d="M26.1685 9.87321C26.1685 9.9906 26.21 10.0908 26.293 10.1738C26.376 10.2568 26.4762 10.2983 26.5936 10.2983C26.711 10.2983 26.8111 10.2568 26.8941 10.1738C26.9771 10.0908 27.0187 9.9906 27.0187 9.87321C27.0187 9.75583 26.9771 9.65564 26.8941 9.57264C26.8111 9.48964 26.711 9.44813 26.5936 9.44813C26.4762 9.44813 26.376 9.48964 26.293 9.57264C26.21 9.65564 26.1685 9.75583 26.1685 9.87321ZM26.9936 9.69818L26.9874 9.69193C26.922 9.55027 26.8125 9.46554 26.659 9.43775C26.5054 9.40995 26.3732 9.45092 26.2623 9.56065L26.2435 9.57941C26.2064 9.6179 26.1773 9.66165 26.156 9.71068L26.1372 9.74194L26.0997 9.8107C26.0976 9.81484 26.0955 9.819 26.0935 9.8232L26.0247 9.92947C26.0152 9.94772 26.0069 9.96648 25.9997 9.98573L25.9309 10.142C25.9176 10.1723 25.9072 10.2036 25.8997 10.2358L25.8497 10.4608C25.8497 10.4629 25.8497 10.465 25.8497 10.4671L25.7872 10.7671C25.785 10.7713 25.7829 10.7754 25.7809 10.7796L25.7122 11.1547L25.5934 11.6173C25.5933 11.6235 25.5933 11.6298 25.5934 11.636L25.4746 12.1674C25.4746 12.1695 25.4746 12.1716 25.4746 12.1737L25.3621 12.73C25.36 12.7341 25.3579 12.7383 25.3558 12.7425L25.2558 13.2926L25.1558 13.849L25.0495 14.4053L24.9433 14.9617L24.8307 15.518L24.7245 16.0619C24.7245 16.064 24.7245 16.0661 24.7245 16.0681L24.6244 16.6057L24.5244 17.1121C24.5244 17.1142 24.5244 17.1163 24.5244 17.1183L24.4307 17.6059L24.3431 18.0623L24.2431 18.4999C24.2431 18.5019 24.2431 18.504 24.2431 18.5061L24.1494 18.9312L24.0618 19.3313L23.9681 19.7001L23.8368 20.0752L23.693 20.4627C23.6906 20.4752 23.6885 20.4877 23.6868 20.5002L23.5617 20.9003C23.5596 20.9065 23.5575 20.9128 23.5555 20.9191L23.443 21.3254C23.4407 21.3337 23.4386 21.342 23.4367 21.3504L23.3367 21.7567L23.2367 22.1693L23.1117 22.5756C23.1092 22.5881 23.1072 22.6006 23.1054 22.6131L23.0054 23.0445C23.0033 23.0486 23.0012 23.0528 22.9991 23.057L22.9054 23.4883C22.9054 23.4904 22.9054 23.4925 22.9054 23.4946L22.8179 23.9196L22.7303 24.3322L22.6366 24.7198C22.6366 24.7219 22.6366 24.724 22.6366 24.726L22.4803 25.4387C22.4782 25.4407 22.4761 25.4428 22.474 25.4449L22.399 25.795C22.399 25.7992 22.399 25.8033 22.399 25.8075L22.3303 26.1513L22.2615 26.5076C22.2593 26.5139 22.2572 26.5201 22.2552 26.5264L22.1927 26.8764C22.1927 26.8806 22.1927 26.8848 22.1927 26.889L22.1427 27.2015L22.0927 27.4891L22.0365 27.7704L21.9239 28.3205L21.8677 28.5768C21.8677 28.5789 21.8677 28.5809 21.8677 28.583L21.8177 28.8331L21.7551 29.0894C21.7551 29.0915 21.7551 29.0935 21.7551 29.0956L21.6801 29.4082L21.5989 29.752C21.5988 29.7562 21.5988 29.7603 21.5989 29.7645L21.5239 30.1021C21.5238 30.1041 21.5238 30.1062 21.5239 30.1083L21.4551 30.4271L21.3863 30.7334C21.3841 30.7417 21.382 30.7501 21.3801 30.7584L21.3176 31.0772L21.205 31.6836L21.1363 31.9462L21.0613 32.215C21.0542 32.2355 21.0479 32.2564 21.0425 32.2775L20.9737 32.59C20.9737 32.5963 20.9737 32.6025 20.9737 32.6088L20.9112 32.9401L20.8487 33.2714L20.7862 33.584L20.7175 33.8965L20.6549 34.1778C20.6549 34.1841 20.6549 34.1903 20.6549 34.1966L20.5987 34.4591L20.5487 34.6967C20.5486 34.7009 20.5486 34.705 20.5487 34.7092L20.5112 34.9092L20.4674 35.0655L20.4299 35.1968L20.4111 35.2906C20.4068 35.3009 20.4026 35.3113 20.3986 35.3218L20.3861 35.3906C20.3961 35.3619 20.4045 35.3327 20.4111 35.3031L20.3986 35.3468C20.3893 35.3694 20.3809 35.3923 20.3736 35.4156L20.3674 35.4468C20.3624 35.4675 20.3582 35.4883 20.3549 35.5093L20.3486 35.5344C20.336 35.6091 20.3339 35.6841 20.3424 35.7594L20.3486 35.8032C20.3622 35.7264 20.3642 35.6493 20.3549 35.5719L20.3486 35.5906C20.3465 35.5968 20.3444 35.6031 20.3424 35.6094L20.3111 35.6969C20.2284 35.8911 20.2263 36.0861 20.3051 36.2819C20.3838 36.4778 20.5203 36.6171 20.7144 36.7C20.9086 36.7828 21.1036 36.7849 21.2995 36.7062C21.4953 36.6275 21.6347 36.4911 21.7176 36.297L21.7614 36.2157C21.7729 36.1933 21.7834 36.1704 21.7927 36.147L21.8052 36.1157L21.8114 36.1032C21.7859 36.1348 21.763 36.1681 21.7426 36.2032L21.7677 36.1657C21.8278 36.0925 21.8737 36.0113 21.9052 35.9219L21.9114 35.8969C21.9259 35.852 21.9363 35.8061 21.9427 35.7594H21.9489V35.7406C21.9539 35.72 21.9581 35.6991 21.9614 35.6781V35.6531L21.9739 35.6156L22.0114 35.4843C22.016 35.4699 22.0202 35.4553 22.0239 35.4406L22.0615 35.2593C22.0636 35.2531 22.0657 35.2468 22.0677 35.2405L22.1115 35.0218L22.1615 34.7842L22.2177 34.5217L22.2802 34.2341L22.349 33.9153C22.3491 33.907 22.3491 33.8986 22.349 33.8903L22.4115 33.5652L22.474 33.2277L22.5365 32.9026L22.5991 32.59C22.5991 32.588 22.5991 32.5859 22.5991 32.5838L22.6491 32.29C22.6512 32.2858 22.6533 32.2817 22.6553 32.2775L22.6991 31.9774L22.8179 31.3648L22.8804 31.0585L22.9429 30.7459L23.0116 30.4271L23.0867 30.0958L23.1679 29.7582L23.2429 29.4457C23.2429 29.4436 23.2429 29.4415 23.2429 29.4394L23.3054 29.1706C23.3054 29.1686 23.3054 29.1665 23.3054 29.1644L23.3617 28.9081C23.3638 28.9039 23.3659 28.8998 23.368 28.8956L23.4242 28.633C23.4242 28.631 23.4242 28.6289 23.4242 28.6268L23.5367 28.0704C23.5367 28.0683 23.5367 28.0663 23.5367 28.0642L23.593 27.7766L23.6493 27.4766C23.6516 27.4662 23.6536 27.4558 23.6555 27.4453L23.7055 27.1327L23.768 26.7952L23.8305 26.4451L23.8993 26.1138L23.9743 25.7637L24.1243 25.0574C24.1244 25.0532 24.1244 25.049 24.1243 25.0449L24.2056 24.6448L24.2931 24.2259L24.3806 23.7946C24.3806 23.7925 24.3806 23.7904 24.3806 23.7884L24.4619 23.357C24.4641 23.3508 24.4662 23.3446 24.4682 23.3383L24.5432 22.9069C24.5433 22.9007 24.5433 22.8944 24.5432 22.8882L24.6057 22.4756L24.6932 22.0818L24.787 21.688L24.8932 21.2941L25.0058 20.8816C25.0079 20.8795 25.0099 20.8774 25.012 20.8753L25.1183 20.469C25.1184 20.4627 25.1184 20.4565 25.1183 20.4502L25.2183 20.0376L25.3121 19.6313C25.3142 19.6293 25.3163 19.6272 25.3183 19.6251L25.4058 19.2125C25.4079 19.2104 25.41 19.2083 25.4121 19.2062L25.5059 18.7812L25.6059 18.3373C25.6059 18.3332 25.6059 18.329 25.6059 18.3248L25.7059 17.8622C25.7059 17.8601 25.7059 17.8581 25.7059 17.856L25.7997 17.3621L25.8997 16.8495C25.8997 16.8475 25.8997 16.8454 25.8997 16.8433L25.9997 16.3182L26.1122 15.7806C26.1143 15.7785 26.1164 15.7764 26.1185 15.7743L26.231 15.218C26.231 15.2159 26.231 15.2138 26.231 15.2117L26.3373 14.6554L26.4435 14.0928C26.4457 14.0886 26.4478 14.0845 26.4498 14.0803L26.5436 13.5239L26.6436 12.9738C26.6436 12.9696 26.6436 12.9655 26.6436 12.9613L26.7311 12.4049C26.7312 12.3987 26.7312 12.3924 26.7311 12.3862L26.8061 11.8486C26.8066 11.834 26.8066 11.8194 26.8061 11.8048L26.8374 11.336L26.8874 10.9609L26.9311 10.6609C26.9312 10.6546 26.9312 10.6484 26.9311 10.6421L26.9561 10.4171L26.9811 10.2483C26.9836 10.2191 26.9836 10.1899 26.9811 10.1608L26.9749 10.0733V10.0607L26.9811 10.042C26.9327 10.0901 26.8973 10.1463 26.8749 10.2108L26.8936 10.192C26.9335 10.1521 26.9648 10.1062 26.9874 10.0545L26.9936 10.0482C27.0446 9.93156 27.0446 9.81487 26.9936 9.69818ZM20.3111 36.0157C20.3111 36.2038 20.3776 36.3644 20.5107 36.4975C20.6437 36.6305 20.8043 36.6971 20.9925 36.6971C21.1807 36.6971 21.3413 36.6305 21.4743 36.4975C21.6074 36.3644 21.6739 36.2038 21.6739 36.0157C21.6739 35.8275 21.6074 35.6669 21.4743 35.5339C21.3413 35.4008 21.1807 35.3343 20.9925 35.3343C20.8043 35.3343 20.6437 35.4008 20.5107 35.5339C20.3776 35.6669 20.3111 35.8275 20.3111 36.0157ZM20.5174 36.0657C20.5174 36.1865 20.5601 36.2897 20.6456 36.3751C20.731 36.4606 20.8342 36.5033 20.955 36.5033C21.0758 36.5033 21.179 36.4606 21.2644 36.3751C21.3499 36.2897 21.3926 36.1865 21.3926 36.0657C21.3926 35.9449 21.3499 35.8417 21.2644 35.7563C21.179 35.6708 21.0758 35.6281 20.955 35.6281C20.8342 35.6281 20.731 35.6708 20.6456 35.7563C20.5601 35.8417 20.5174 35.9449 20.5174 36.0657ZM20.8425 35.8219L20.8237 35.8282C20.6488 35.8866 20.5905 36.0032 20.6488 36.1782C20.7072 36.3531 20.8238 36.4115 20.9988 36.3533L21.0175 36.347C21.1924 36.2886 21.2507 36.1719 21.1924 35.997C21.1341 35.8221 21.0174 35.7637 20.8425 35.8219Z" fill="black"/>
<path d="M16.6666 35.6094C16.6666 35.7216 16.7063 35.8173 16.7856 35.8967C16.865 35.976 16.9608 36.0157 17.073 36.0157C17.1852 36.0157 17.2809 35.976 17.3603 35.8967C17.4396 35.8173 17.4793 35.7216 17.4793 35.6094C17.4793 35.4972 17.4396 35.4014 17.3603 35.3221C17.2809 35.2427 17.1852 35.203 17.073 35.203C16.9608 35.203 16.865 35.2427 16.7856 35.3221C16.7063 35.4014 16.6666 35.4972 16.6666 35.6094ZM16.5916 35.6031C16.5916 35.736 16.6386 35.8495 16.7326 35.9435C16.8266 36.0375 16.94 36.0845 17.073 36.0845C17.2059 36.0845 17.3193 36.0375 17.4133 35.9435C17.5073 35.8495 17.5543 35.736 17.5543 35.6031C17.5543 35.4702 17.5073 35.3567 17.4133 35.2628C17.3193 35.1688 17.2059 35.1218 17.073 35.1218C16.94 35.1218 16.8266 35.1688 16.7326 35.2628C16.6386 35.3567 16.5916 35.4702 16.5916 35.6031ZM16.5666 35.6156C16.5666 35.7537 16.6154 35.8716 16.7131 35.9692C16.8107 36.0669 16.9286 36.1157 17.0667 36.1157C17.2048 36.1157 17.3227 36.0669 17.4203 35.9692C17.518 35.8716 17.5668 35.7537 17.5668 35.6156C17.5668 35.4775 17.518 35.3596 17.4203 35.262C17.3227 35.1643 17.2048 35.1155 17.0667 35.1155C16.9286 35.1155 16.8107 35.1643 16.7131 35.262C16.6154 35.3596 16.5666 35.4775 16.5666 35.6156ZM16.5354 35.6344C16.5354 35.7828 16.5878 35.9095 16.6928 36.0145C16.7978 36.1195 16.9245 36.172 17.073 36.172C17.2214 36.172 17.3481 36.1195 17.4531 36.0145C17.5581 35.9095 17.6106 35.7828 17.6106 35.6344C17.6106 35.4859 17.5581 35.3592 17.4531 35.2542C17.3481 35.1493 17.2214 35.0968 17.073 35.0968C16.9245 35.0968 16.7978 35.1493 16.6928 35.2542C16.5878 35.3592 16.5354 35.4859 16.5354 35.6344ZM16.5291 35.8657L16.5416 35.8907C16.6227 36.123 16.7832 36.2668 17.0229 36.322L17.123 36.3408C17.2011 36.3606 17.2803 36.3668 17.3605 36.3595L17.5105 36.3408C17.5168 36.3408 17.523 36.3408 17.5293 36.3408L17.7168 36.3095C17.7294 36.3077 17.7419 36.3057 17.7543 36.3033L17.9419 36.2657L18.1419 36.2282C18.1607 36.2268 18.1795 36.2247 18.1982 36.222L18.367 36.1782L18.5232 36.147L18.6545 36.1282L18.7295 36.122H18.7483L18.717 36.1157L18.7295 36.122L18.8045 36.1532C18.847 36.1715 18.8908 36.1861 18.9358 36.197L19.0421 36.2282C19.0731 36.2342 19.1044 36.2384 19.1358 36.2407L19.2296 36.2532C19.2441 36.2557 19.2587 36.2578 19.2734 36.2595L19.3671 36.2657C19.3099 36.249 19.2516 36.2385 19.1921 36.2345L19.2734 36.2595C19.2878 36.2641 19.3024 36.2682 19.3171 36.272L19.3921 36.2907C19.4005 36.293 19.4088 36.295 19.4172 36.297L19.5047 36.3158C19.5234 36.3185 19.5421 36.3206 19.5609 36.322L19.6547 36.3345C19.6816 36.34 19.7087 36.3442 19.736 36.347H19.786L19.836 36.3533C19.8732 36.36 19.9107 36.3642 19.9485 36.3658H20.036C20.0632 36.365 20.0903 36.363 20.1173 36.3595L20.2048 36.3533H20.2486H20.2548H20.2736C20.3194 36.3572 20.3653 36.3572 20.4111 36.3533H20.4361H20.4423C20.4549 36.3515 20.4674 36.3494 20.4799 36.347H20.5049H20.5424C20.654 36.3448 20.7603 36.3198 20.8612 36.272L20.8674 36.2657C21.0491 36.1561 21.1666 35.9987 21.22 35.7933C21.2734 35.588 21.2475 35.3932 21.1422 35.209C21.037 35.0248 20.8823 34.9035 20.6783 34.8453C20.4743 34.787 20.2789 34.8084 20.0923 34.9092L20.0798 34.9155C20.1033 34.9041 20.1262 34.8916 20.1485 34.878L20.1298 34.8905L20.0923 34.9092L20.0423 34.928L19.9548 34.9592L19.8235 34.9968L19.6922 35.0218L19.5422 35.0405L19.3296 35.0468C19.3234 35.0467 19.3171 35.0467 19.3109 35.0468L19.0671 35.0593C19.0608 35.0592 19.0546 35.0592 19.0483 35.0593L18.8295 35.0718L18.6295 35.078H18.4482L18.2794 35.0655C18.2544 35.0643 18.2294 35.0643 18.2044 35.0655L18.0356 35.078C18.0252 35.0778 18.0148 35.0778 18.0044 35.078L17.8669 35.0905C17.8459 35.0918 17.8251 35.0939 17.8043 35.0968L17.7356 35.1093H17.6918L17.6731 35.1155H17.6668C17.7929 35.2101 17.9346 35.2622 18.0919 35.2718L18.0856 35.2656C17.9084 35.242 17.7426 35.2753 17.5883 35.3656C17.4339 35.4558 17.3235 35.5839 17.2571 35.7499C17.1907 35.9159 17.1823 36.0848 17.2318 36.2566C17.2814 36.4284 17.3784 36.5669 17.523 36.6721H17.5605C17.5256 36.6634 17.4901 36.6571 17.4543 36.6533L17.5293 36.6721C17.5622 36.6805 17.5956 36.6867 17.6293 36.6908L17.7668 36.7096C17.7897 36.7127 17.8126 36.7148 17.8356 36.7158L18.0419 36.7221C18.0669 36.7233 18.0919 36.7233 18.1169 36.7221L18.3795 36.7033C18.3941 36.7017 18.4087 36.6996 18.4232 36.6971L18.742 36.6596C18.7546 36.6578 18.7671 36.6557 18.7795 36.6533L19.0983 36.5971C19.1046 36.5971 19.1108 36.5971 19.1171 36.5971L19.4047 36.5408C19.413 36.5388 19.4214 36.5368 19.4297 36.5345L19.686 36.472C19.7049 36.4686 19.7236 36.4644 19.7422 36.4595L19.9423 36.397C19.9677 36.39 19.9927 36.3816 20.0173 36.372L20.1923 36.297C20.2603 36.2686 20.3228 36.2311 20.3798 36.1845L20.4924 36.0907C20.5801 36.0192 20.6467 35.9317 20.6924 35.8282L20.7237 35.7469C20.7887 35.5966 20.7928 35.4446 20.7359 35.291C20.6791 35.1374 20.5771 35.0248 20.4298 34.953L20.3548 34.9155C20.2604 34.868 20.1604 34.843 20.0548 34.8405H19.911C19.839 34.8387 19.7681 34.847 19.6985 34.8655L19.5297 34.9092L19.3421 34.9592L19.0983 35.0093L18.8233 35.0593L18.5232 35.1155L18.2419 35.1593L18.0731 35.1718L17.9544 35.1593L17.8731 35.1468L17.8294 35.1343C17.8252 35.1342 17.821 35.1342 17.8168 35.1343L17.7793 35.128C17.4224 35.0464 17.1451 35.1597 16.9474 35.4679C16.7497 35.7761 16.7624 36.0754 16.9854 36.3658L16.9917 36.372C17.1062 36.5244 17.2562 36.6223 17.4418 36.6658L17.4855 36.6721C17.5349 36.6831 17.585 36.6894 17.6356 36.6908L17.7043 36.6971C17.7336 36.6966 17.7628 36.6945 17.7918 36.6908L17.8856 36.6846C17.9065 36.6833 17.9274 36.6812 17.9481 36.6783L18.0356 36.6658L18.1232 36.6533H18.2419H18.4107C18.419 36.6534 18.4274 36.6534 18.4357 36.6533H18.642C18.6503 36.6534 18.6587 36.6534 18.667 36.6533L18.8983 36.6471C18.9109 36.6453 18.9234 36.6432 18.9358 36.6408L19.1609 36.6221L19.3796 36.6096L19.6109 36.6033C19.6214 36.6035 19.6318 36.6035 19.6422 36.6033L19.8672 36.5908C19.9052 36.5873 19.9427 36.581 19.9798 36.5721L20.1798 36.5283C20.1987 36.5248 20.2175 36.5206 20.2361 36.5158L20.4111 36.4658C20.4301 36.4602 20.4488 36.454 20.4674 36.447L20.6049 36.397C20.6283 36.3877 20.6512 36.3773 20.6736 36.3658L20.7674 36.322C20.7716 36.32 20.7758 36.3179 20.7799 36.3158L20.8424 36.2845C20.8705 36.2695 20.8976 36.2528 20.9237 36.2345L20.9487 36.2157C20.8867 36.2375 20.8283 36.2667 20.7737 36.3033L20.7862 36.297C20.9364 35.9835 20.8955 35.6972 20.6636 35.4381C20.4317 35.1791 20.1517 35.107 19.8235 35.2218L19.8172 35.228C20.1549 35.2368 20.3966 35.0889 20.5424 34.7842H20.5049H20.4799C20.5634 34.8224 20.6509 34.8454 20.7424 34.853L20.7174 34.8405C20.6339 34.8024 20.5463 34.7794 20.4549 34.7717H20.4423L20.4236 34.7655C20.376 34.757 20.3281 34.7528 20.2798 34.753H20.2486H20.2048L20.1298 34.7467L20.061 34.7342C20.0569 34.7342 20.0527 34.7342 20.0485 34.7342L19.9548 34.728C19.9485 34.7258 19.9423 34.7237 19.936 34.7217L19.8547 34.7154L19.811 34.7092L19.7735 34.7029L19.736 34.6904L19.6735 34.6717C19.6083 34.6508 19.5417 34.6383 19.4734 34.6342H19.4109L19.3859 34.6279L19.3421 34.6217L19.2921 34.6029L19.2109 34.5779C19.1641 34.561 19.1162 34.5485 19.0671 34.5404L18.9608 34.5217C18.9133 34.5132 18.8653 34.509 18.817 34.5092H18.692C18.669 34.5103 18.6461 34.5123 18.6233 34.5154L18.4795 34.5279C18.4564 34.5311 18.4335 34.5352 18.4107 34.5404L18.2357 34.5717C18.2273 34.5736 18.219 34.5757 18.2107 34.5779L18.0231 34.6217C18.0042 34.6252 17.9855 34.6293 17.9669 34.6342L17.7668 34.6967C17.75 34.7024 17.7333 34.7086 17.7168 34.7154L17.523 34.7905C17.5018 34.7979 17.481 34.8062 17.4605 34.8155L17.3043 34.8905L17.1792 34.9405L17.0667 34.978C17.0367 34.9885 17.0075 35.001 16.9792 35.0155L16.8792 35.0593C16.7557 35.1194 16.6599 35.209 16.5916 35.3281L16.5791 35.3531C16.4823 35.5161 16.4656 35.687 16.5291 35.8657ZM19.7485 35.4906C19.7485 35.6304 19.7979 35.7498 19.8968 35.8486C19.9956 35.9475 20.115 35.9969 20.2548 35.9969C20.3946 35.9969 20.514 35.9475 20.6129 35.8486C20.7117 35.7498 20.7612 35.6304 20.7612 35.4906C20.7612 35.3508 20.7117 35.2314 20.6129 35.1326C20.514 35.0337 20.3946 34.9842 20.2548 34.9842C20.115 34.9842 19.9956 35.0337 19.8968 35.1326C19.7979 35.2314 19.7485 35.3508 19.7485 35.4906ZM20.1548 35.8844L20.1986 35.9032C20.3056 35.9497 20.4134 35.9516 20.5219 35.9089C20.6305 35.8661 20.7081 35.7913 20.7547 35.6843C20.8013 35.5773 20.8033 35.4695 20.7606 35.3609C20.7179 35.2523 20.6431 35.1747 20.5361 35.128L20.4924 35.1093C20.3853 35.0627 20.2775 35.0608 20.169 35.1036C20.0604 35.1463 19.9828 35.2212 19.9362 35.3281C19.8896 35.4351 19.8876 35.5429 19.9303 35.6515C19.973 35.7602 20.0478 35.8378 20.1548 35.8844Z" fill="black"/>
</g>
<defs>
<clipPath id="clip0_1_7251">
<rect width="28" height="38" fill="white"/>
</clipPath>
</defs>
</svg>
