<svg width="35" height="39" viewBox="0 0 35 39" fill="none" xmlns="http://www.w3.org/2000/svg">
<g clip-path="url(#clip0_1_7208)">
<path d="M26.2148 13.6562L26.1898 13.4999C26.1784 13.446 26.1576 13.396 26.1273 13.3499L25.9147 12.9873C25.876 12.9268 25.8281 12.8747 25.771 12.8311L25.2021 12.3685C25.1632 12.3371 25.1215 12.31 25.0771 12.2872L24.1957 11.8309C24.1813 11.8242 24.1667 11.8179 24.1519 11.8121L23.0579 11.3245C23.0476 11.3201 23.0372 11.316 23.0267 11.312L21.7452 10.8057C21.7247 10.7965 21.7038 10.7882 21.6827 10.7807L20.1949 10.3243C20.1722 10.3172 20.1493 10.3109 20.1261 10.3056L18.4633 9.94301C18.4303 9.9349 18.397 9.92865 18.3633 9.92426L16.5129 9.73672C16.4797 9.73282 16.4464 9.73073 16.4129 9.73047L14.4063 9.74922C14.3706 9.75134 14.3352 9.75551 14.3 9.76172L12.2184 10.0055C12.1889 10.0104 12.1597 10.0166 12.1309 10.0243L10.1055 10.4681C10.0781 10.4731 10.051 10.4794 10.0242 10.4869L8.1301 11.087C8.1004 11.0959 8.07122 11.1063 8.04259 11.1182L6.35476 11.8496C6.31808 11.866 6.28266 11.8848 6.24849 11.9059L4.81697 12.7685C4.77732 12.7927 4.73982 12.8198 4.70445 12.8498L3.57298 13.8062C3.52708 13.8437 3.4854 13.8854 3.44796 13.9313L2.62905 14.969C2.58703 15.0211 2.55161 15.0773 2.52278 15.1377L2.01644 16.2442C1.98719 16.3083 1.96636 16.3749 1.95393 16.4442L1.73513 17.607C1.72425 17.6755 1.72216 17.7442 1.72888 17.8133L1.8164 18.9947C1.82307 19.0679 1.83974 19.1388 1.86641 19.2073L2.29774 20.37C2.32214 20.4373 2.35547 20.4998 2.39776 20.5575L3.22292 21.6702C3.25743 21.7167 3.29702 21.7584 3.34169 21.7953L4.59193 22.8267C4.62696 22.8554 4.66447 22.8804 4.70445 22.9017L6.39227 23.8144C6.42039 23.8311 6.44957 23.8457 6.47979 23.8582L8.58019 24.6333C8.60061 24.6427 8.62145 24.651 8.6427 24.6583L11.0056 25.2897C11.0222 25.2945 11.0388 25.2986 11.0557 25.3022L13.5561 25.7835C13.5727 25.7883 13.5893 25.7925 13.6061 25.796L16.1316 26.1148C16.1524 26.1178 16.1732 26.1199 16.1941 26.1211L18.7009 26.2336C18.7217 26.2345 18.7425 26.2345 18.7634 26.2336L21.1638 26.1273C21.191 26.1266 21.2181 26.1246 21.2451 26.1211L23.4705 25.7773C23.513 25.7701 23.5547 25.7597 23.5955 25.746L25.5647 25.1271C25.6166 25.111 25.6666 25.0902 25.7147 25.0646L27.3525 24.177C27.413 24.1458 27.4693 24.1083 27.5213 24.0644L28.7653 22.9642C28.82 22.9138 28.8679 22.8575 28.9091 22.7955L29.7905 21.5265C29.8301 21.4717 29.8634 21.4134 29.8905 21.3514L30.4656 19.9699C30.4956 19.8975 30.5164 19.8224 30.5281 19.7449L30.7532 18.2883C30.7657 18.1987 30.7657 18.1091 30.7532 18.0195L30.5719 16.5443C30.5575 16.4301 30.5241 16.3217 30.4719 16.2192L29.7905 14.8877C29.7292 14.7641 29.6459 14.6578 29.5404 14.5689L28.2527 13.5062C28.1713 13.4399 28.0817 13.3878 27.9839 13.3499L26.2273 12.6623C26.1566 12.6349 26.0837 12.6162 26.0085 12.606L24.0769 12.3372C23.9761 12.3229 23.8761 12.327 23.7768 12.3497L22.1328 12.7373L20.72 12.706C20.5534 12.7019 20.4679 12.7832 20.4638 12.9498C20.4596 13.1165 20.5409 13.2019 20.7075 13.2061L22.1015 13.2374L23.6268 13.9125C23.6634 13.9277 23.7009 13.9402 23.7393 13.95L25.5522 14.4626L27.0962 15.1315L28.1152 15.9754L28.6403 16.9818L28.809 18.1383L28.634 19.3573L28.1714 20.5575L27.44 21.6702L26.3836 22.6642L24.9396 23.5081L23.1267 24.1457L21.0263 24.5458L18.7134 24.7083L16.2754 24.6583L13.7937 24.3895L11.337 23.9519L9.02402 23.3456L7.00489 22.5892L5.42959 21.7265L4.34188 20.7701L3.69176 19.7824L3.37295 18.8009L3.34794 17.832L3.56673 16.8818L4.02307 15.9754L4.75446 15.1002L5.77965 14.2501L7.11116 13.4812L8.71146 12.7998L10.5306 12.2497L12.4809 11.8371L14.4751 11.5933L16.3817 11.5683L18.1383 11.7308L19.7261 12.0559L21.1826 12.4435L22.4578 12.8498L23.5518 13.2561L24.4707 13.6187C24.4769 13.6209 24.4832 13.623 24.4895 13.625L25.1771 13.8813C25.1997 13.8888 25.2226 13.8951 25.2459 13.9L25.6584 14C25.6729 14.0029 25.6875 14.0049 25.7022 14.0063L25.8647 14.025C25.9698 14.0368 26.0587 14.0044 26.1315 13.9277C26.2043 13.851 26.232 13.7605 26.2148 13.6562Z" fill="black"/>
<path d="M1.8419 15.725C1.8419 15.8424 1.8834 15.9426 1.9664 16.0256C2.04941 16.1086 2.1496 16.1501 2.26698 16.1501C2.38436 16.1501 2.48456 16.1086 2.56756 16.0256C2.65056 15.9426 2.69206 15.8424 2.69206 15.725C2.69206 15.6076 2.65056 15.5074 2.56756 15.4244C2.48456 15.3414 2.38436 15.2999 2.26698 15.2999C2.1496 15.2999 2.04941 15.3414 1.9664 15.4244C1.8834 15.5074 1.8419 15.6076 1.8419 15.725ZM2.6108 15.4062L2.59204 15.3874L2.57954 15.3562L2.53578 15.2499C2.50968 15.1824 2.47218 15.122 2.42326 15.0686L2.342 14.9749C2.1927 14.8136 2.00933 14.749 1.79189 14.7811L1.66687 14.7998C1.43326 14.832 1.2624 14.9528 1.15427 15.1624L1.01049 15.4374C0.967234 15.52 0.940146 15.6075 0.929226 15.7L0.860463 16.3314C0.855233 16.3729 0.853149 16.4146 0.854212 16.4564L0.891719 17.4503C0.893065 17.4712 0.895149 17.4921 0.89797 17.5128L1.0605 18.9381C1.0641 18.957 1.06826 18.9757 1.073 18.9944L1.41057 20.9135C1.41254 20.9219 1.41462 20.9302 1.41682 20.9385L1.89191 23.2639C1.89582 23.2765 1.89999 23.289 1.90441 23.3014L2.51703 25.7957C2.5206 25.8146 2.52477 25.8333 2.52953 25.8519L3.27342 28.2149C3.28082 28.2361 3.28916 28.2569 3.29843 28.2774L4.11108 30.2653C4.11697 30.2759 4.12322 30.2863 4.12984 30.2965L4.85497 31.7781L5.26755 32.847C5.34262 33.0344 5.47388 33.0906 5.66132 33.0157C5.84877 32.9407 5.90505 32.8094 5.83016 32.622L5.42383 31.5718L5.09877 29.9777L4.72995 27.8586L4.29237 25.4143C4.2904 25.406 4.28832 25.3976 4.28612 25.3893L3.76727 22.8764L3.29218 20.5572L2.92336 18.6506L2.65455 17.2628L2.51078 16.3126L2.44201 15.7438V15.4687C2.36574 15.5844 2.32823 15.7115 2.32949 15.85L2.39826 15.7438C2.15886 15.7308 1.97341 15.8246 1.8419 16.0251H1.89191L1.89816 16.0313L1.91691 16.0376L1.94817 16.0688C2.04053 16.1549 2.14983 16.1968 2.27606 16.1946C2.40229 16.1923 2.51004 16.1466 2.59931 16.0573C2.68858 15.9681 2.73433 15.8603 2.73655 15.7341C2.73878 15.6078 2.69686 15.4986 2.6108 15.4062Z" fill="black"/>
<path d="M1.69816 18.3255C1.69816 18.4204 1.73173 18.5015 1.79886 18.5686C1.866 18.6358 1.94704 18.6693 2.04198 18.6693C2.13692 18.6693 2.21796 18.6358 2.28509 18.5686C2.35223 18.5015 2.38579 18.4204 2.38579 18.3255C2.38579 18.2306 2.35223 18.1495 2.28509 18.0824C2.21796 18.0153 2.13692 17.9817 2.04198 17.9817C1.94704 17.9817 1.866 18.0153 1.79886 18.0824C1.73173 18.1495 1.69816 18.2306 1.69816 18.3255ZM1.55439 18.3255C1.55439 18.4584 1.60138 18.5719 1.69537 18.6659C1.78936 18.7599 1.90281 18.8068 2.03573 18.8068C2.16865 18.8068 2.2821 18.7599 2.37609 18.6659C2.47008 18.5719 2.51707 18.4584 2.51707 18.3255C2.51707 18.1926 2.47008 18.0791 2.37609 17.9851C2.2821 17.8912 2.16865 17.8442 2.03573 17.8442C1.90281 17.8442 1.78936 17.8912 1.69537 17.9851C1.60138 18.0791 1.55439 18.1926 1.55439 18.3255ZM1.54814 18.1005L1.45437 18.2692C1.42176 18.326 1.39884 18.3864 1.3856 18.4505L1.27933 18.9881C1.27046 19.0357 1.26629 19.0836 1.26683 19.1319L1.27933 20.1446C1.28127 20.1803 1.28544 20.2157 1.29184 20.2509L1.49813 21.7699C1.50315 21.7973 1.50941 21.8244 1.51688 21.8512L1.96697 23.8328C1.97067 23.8496 1.97484 23.8663 1.97947 23.8828L2.64209 26.1708C2.646 26.1833 2.65017 26.1958 2.6546 26.2083L3.45475 28.5712C3.46051 28.5881 3.46677 28.6047 3.4735 28.6212L4.36742 30.8341C4.37522 30.8511 4.38355 30.8678 4.39243 30.8841L5.3051 32.7783C5.31475 32.7974 5.32516 32.8162 5.33636 32.8345L6.21777 34.3161C6.23296 34.3401 6.24963 34.363 6.26778 34.3848L7.06794 35.4038C7.09342 35.4366 7.1226 35.4658 7.15545 35.4913L7.81183 35.9914L8.18065 36.3227C8.31562 36.4158 8.43826 36.4017 8.54858 36.2804C8.65889 36.159 8.66127 36.0356 8.55572 35.9101L8.22441 35.6038L7.9056 34.8974L7.393 33.7222L6.73662 32.1406L5.97398 30.209L5.19258 27.9836L4.43619 25.6394L3.79231 23.3765L3.31722 21.4261L2.95465 19.9321L2.71711 18.9569C2.71719 18.9506 2.71719 18.9444 2.71711 18.9381L2.57958 18.413C2.57755 18.4088 2.57546 18.4047 2.57333 18.4005L2.52332 18.2192C2.46007 17.9908 2.31079 17.8622 2.07547 17.8335C1.84015 17.8049 1.66437 17.8939 1.54814 18.1005Z" fill="black"/>
<path d="M30.4031 16.9758C30.4031 17.0793 30.4397 17.1677 30.5129 17.241C30.5861 17.3142 30.6746 17.3508 30.7781 17.3508C30.8817 17.3508 30.9701 17.3142 31.0433 17.241C31.1166 17.1677 31.1532 17.0793 31.1532 16.9758C31.1532 16.8722 31.1166 16.7838 31.0433 16.7105C30.9701 16.6373 30.8817 16.6007 30.7781 16.6007C30.6746 16.6007 30.5861 16.6373 30.5129 16.7105C30.4397 16.7838 30.4031 16.8722 30.4031 16.9758ZM30.2843 16.9883C30.2843 17.1177 30.3301 17.2282 30.4216 17.3198C30.5131 17.4113 30.6237 17.4571 30.7531 17.4571C30.8826 17.4571 30.9931 17.4113 31.0846 17.3198C31.1762 17.2282 31.222 17.1177 31.222 16.9883C31.222 16.8588 31.1762 16.7483 31.0846 16.6567C30.9931 16.5652 30.8826 16.5194 30.7531 16.5194C30.6237 16.5194 30.5131 16.5652 30.4216 16.6567C30.3301 16.7483 30.2843 16.8588 30.2843 16.9883ZM30.5156 16.5257L30.4031 16.5694C30.2893 16.6109 30.1955 16.6797 30.1218 16.7757L29.928 17.032C29.8756 17.1003 29.836 17.1753 29.8092 17.2571L29.6092 17.8697C29.5988 17.9025 29.5905 17.9358 29.5841 17.9697L29.3779 19.0386C29.3755 19.0511 29.3734 19.0636 29.3716 19.0762L29.1341 20.6264L28.8278 22.5456L28.4027 24.646L27.8901 26.7026L27.3337 28.5467L26.7774 30.0907L26.2398 31.3347C26.2355 31.343 26.2313 31.3513 26.2273 31.3597L25.8084 32.4099C25.7752 32.4922 25.7565 32.5776 25.7522 32.6662L25.7209 33.3164L25.4084 33.7102C25.3042 33.8765 25.3285 34.0211 25.4814 34.1442C25.6342 34.2672 25.7808 34.2601 25.921 34.1228L26.2585 33.7102L26.8711 33.4226C26.998 33.3649 27.1022 33.2794 27.1837 33.1663L27.8401 32.2474C27.8768 32.1964 27.9081 32.1422 27.9338 32.0849L28.5089 30.8221C28.5182 30.7995 28.5265 30.7766 28.5339 30.7534L29.1153 29.1593C29.1199 29.1428 29.1241 29.1261 29.1278 29.1093L29.6967 27.2215C29.7012 27.207 29.7054 27.1924 29.7092 27.1777L30.228 25.0773C30.2304 25.0648 30.2324 25.0523 30.2343 25.0398L30.6656 22.9019C30.6679 22.8894 30.67 22.8769 30.6719 22.8644L30.9782 20.914C30.9804 20.9057 30.9824 20.8974 30.9844 20.889L31.1907 19.3324C31.191 19.3179 31.191 19.3033 31.1907 19.2887L31.2845 18.201C31.2856 18.176 31.2856 18.151 31.2845 18.126V17.4821C31.2834 17.4591 31.2814 17.4362 31.2782 17.4133L31.247 17.0945C31.247 17.0924 31.247 17.0904 31.247 17.0883L31.2345 16.9695C31.2172 16.7951 31.134 16.6618 30.9848 16.5697C30.8357 16.4776 30.6793 16.4629 30.5156 16.5257Z" fill="black"/>
<path d="M6.01714 32.9291C6.01714 33.0447 6.05803 33.1435 6.13981 33.2252C6.22159 33.307 6.32031 33.3479 6.43597 33.3479C6.55162 33.3479 6.65034 33.307 6.73212 33.2252C6.81391 33.1435 6.8548 33.0447 6.8548 32.9291C6.8548 32.8134 6.81391 32.7147 6.73212 32.6329C6.65034 32.5511 6.55162 32.5103 6.43597 32.5103C6.32031 32.5103 6.22159 32.5511 6.13981 32.6329C6.05803 32.7147 6.01714 32.8134 6.01714 32.9291ZM5.91712 32.9478C5.91712 33.0877 5.96655 33.207 6.06542 33.3059C6.16429 33.4047 6.28364 33.4542 6.42346 33.4542C6.56329 33.4542 6.68264 33.4047 6.78151 33.3059C6.88038 33.207 6.92981 33.0877 6.92981 32.9478C6.92981 32.808 6.88038 32.6887 6.78151 32.5898C6.68264 32.4909 6.56329 32.4415 6.42346 32.4415C6.28364 32.4415 6.16429 32.4909 6.06542 32.5898C5.96655 32.6887 5.91712 32.808 5.91712 32.9478ZM5.99213 32.604L5.94837 32.6478C5.86671 32.7329 5.81253 32.8329 5.78584 32.9478L5.76084 33.0854C5.74591 33.1491 5.73966 33.2137 5.74208 33.2791L5.75459 33.5292C5.76017 33.6087 5.77684 33.6858 5.8046 33.7605L5.93587 34.1418C5.94992 34.1805 5.96659 34.218 5.98588 34.2543L6.23593 34.7294C6.25582 34.7708 6.27874 34.8104 6.30469 34.8482L6.69227 35.3733C6.72246 35.4136 6.7558 35.4511 6.79228 35.4858L7.34239 36.0234C7.38109 36.0605 7.42276 36.0938 7.46741 36.1234L8.22381 36.6423C8.25002 36.6604 8.27711 36.6771 8.30507 36.6923L9.23025 37.1986C9.25876 37.2127 9.28793 37.2252 9.31777 37.2362L10.3492 37.6612C10.4394 37.6982 10.5332 37.719 10.6305 37.7237L11.7495 37.7675L12.7622 37.8363L13.5623 38.0113C13.7264 38.0141 13.8259 37.9354 13.8607 37.775C13.8956 37.6147 13.8378 37.5017 13.6873 37.4362L12.9059 37.2612L12.0433 36.8236L11.1681 36.186C11.1342 36.1625 11.0988 36.1417 11.0618 36.1234L10.0867 35.6108L9.2115 35.1232L8.54262 34.6732L8.09253 34.2481L7.77997 33.8167L7.52367 33.3917C7.51558 33.3811 7.50724 33.3706 7.49867 33.3604L7.27988 33.0228C7.24373 32.9701 7.20206 32.9222 7.15485 32.8791L6.97357 32.7103C6.95756 32.6949 6.94089 32.6804 6.92356 32.6665L6.82354 32.5853L6.77978 32.5478C6.6618 32.4513 6.52679 32.4085 6.37478 32.4193C6.22276 32.4302 6.09521 32.4918 5.99213 32.604Z" fill="black"/>
<path d="M10.1617 36.8986C10.1617 37.0229 10.2056 37.129 10.2935 37.2169C10.3814 37.3047 10.4875 37.3487 10.6118 37.3487C10.7361 37.3487 10.8421 37.3047 10.93 37.2169C11.0179 37.129 11.0619 37.0229 11.0619 36.8986C11.0619 36.7743 11.0179 36.6682 10.93 36.5803C10.8421 36.4925 10.7361 36.4485 10.6118 36.4485C10.4875 36.4485 10.3814 36.4925 10.2935 36.5803C10.2056 36.6682 10.1617 36.7743 10.1617 36.8986ZM10.1054 36.9299C10.1054 37.0749 10.1567 37.1986 10.2592 37.3012C10.3618 37.4037 10.4855 37.455 10.6305 37.455C10.7755 37.455 10.8993 37.4037 11.0018 37.3012C11.1044 37.1986 11.1556 37.0749 11.1556 36.9299C11.1556 36.7848 11.1044 36.6611 11.0018 36.5585C10.8993 36.456 10.7755 36.4048 10.6305 36.4048C10.4855 36.4048 10.3618 36.456 10.2592 36.5585C10.1567 36.6611 10.1054 36.7848 10.1054 36.9299ZM10.1492 37.3237L10.243 37.48C10.3209 37.6144 10.4292 37.7165 10.568 37.7863L10.9118 37.9613C10.9676 37.9907 11.026 38.0136 11.0869 38.0301L11.6182 38.1676C11.641 38.1727 11.6639 38.1768 11.687 38.1801L12.3746 38.2989C12.3891 38.3013 12.4037 38.3034 12.4184 38.3051L13.2685 38.4114C13.2789 38.4116 13.2894 38.4116 13.2998 38.4114L14.3 38.4989C14.3166 38.4994 14.3333 38.4994 14.35 38.4989L15.5065 38.5302C15.5252 38.5307 15.544 38.5307 15.5627 38.5302L16.8255 38.4926C16.859 38.4904 16.8924 38.4862 16.9255 38.4801L18.1945 38.2926C18.2134 38.2892 18.2321 38.285 18.2507 38.2801L19.4259 38.0113C19.4626 38.0022 19.498 37.9897 19.5322 37.9738L20.4824 37.5675L21.2951 37.4299C21.4909 37.3966 21.5722 37.282 21.5388 37.0861C21.5055 36.8903 21.3909 36.809 21.195 36.8423L20.3886 36.9799L19.3759 36.8423C19.3573 36.8394 19.3385 36.8373 19.3197 36.8361L18.1132 36.7861C18.1111 36.7861 18.109 36.7861 18.1069 36.7861L16.8255 36.7423C16.8171 36.7422 16.8088 36.7422 16.8004 36.7423H15.544L14.4187 36.7111L13.4623 36.636L12.6434 36.5423L11.9745 36.4423L11.4369 36.3547C11.4121 36.3495 11.3871 36.3453 11.3619 36.3422L10.9743 36.3172C10.905 36.3122 10.8363 36.3164 10.7681 36.3297L10.5868 36.361C10.4839 36.3813 10.3913 36.4239 10.309 36.489C10.2267 36.5541 10.1639 36.6344 10.1205 36.7298C10.0771 36.8253 10.0579 36.9255 10.063 37.0302C10.068 37.135 10.0968 37.2328 10.1492 37.3237Z" fill="black"/>
<path d="M26.9273 30.7724C26.9273 30.8984 26.9719 31.006 27.061 31.0951C27.1501 31.1842 27.2577 31.2287 27.3837 31.2287C27.5097 31.2287 27.6172 31.1842 27.7064 31.0951C27.7955 31.006 27.84 30.8984 27.84 30.7724C27.84 30.6464 27.7955 30.5388 27.7064 30.4497C27.6172 30.3606 27.5097 30.3161 27.3837 30.3161C27.2577 30.3161 27.1501 30.3606 27.061 30.4497C26.9719 30.5388 26.9273 30.6464 26.9273 30.7724ZM27.2712 30.3161L27.2399 30.3223C27.135 30.3485 27.0475 30.4027 26.9773 30.4849L26.671 30.8287C26.6368 30.8691 26.6076 30.9128 26.5835 30.9599L26.3397 31.41C26.3305 31.4305 26.3221 31.4513 26.3147 31.4725L26.0584 32.0727L25.7396 32.7353L25.3458 33.4354L24.902 34.1168L24.4206 34.7294L23.9143 35.2795L23.3829 35.7546L22.8703 36.1609L22.4015 36.4735L21.9701 36.7173L21.5951 36.9048C21.5622 36.9209 21.531 36.9397 21.5013 36.9611L21.2763 37.1299C21.2516 37.1465 21.2287 37.1653 21.2075 37.1861L21.12 37.2799C21.2456 37.3301 21.356 37.3072 21.4513 37.2111L21.3263 37.1611C21.155 37.1205 21.0366 37.1819 20.9712 37.3454C20.9058 37.5089 20.9492 37.635 21.1012 37.7237L21.1262 37.7362L21.145 37.7612C21.198 37.8526 21.2731 37.9193 21.37 37.9613L21.6326 38.0738C21.7391 38.1181 21.8495 38.1326 21.9639 38.1176L22.4015 38.0613C22.4528 38.0542 22.5028 38.0417 22.5515 38.0238L23.0579 37.8425C23.1012 37.8275 23.1429 37.8088 23.1829 37.7862L23.7205 37.4737C23.742 37.4601 23.7629 37.4455 23.783 37.4299L24.3644 37.0236C24.386 37.008 24.4069 36.9913 24.4269 36.9736L25.0145 36.4672C25.0365 36.4475 25.0573 36.4267 25.077 36.4047L25.6333 35.8046C25.6488 35.7865 25.6633 35.7678 25.6771 35.7484L26.1959 35.0795C26.2114 35.0614 26.226 35.0426 26.2397 35.0232L26.7085 34.2918C26.7196 34.2755 26.73 34.2589 26.7398 34.2418L27.1524 33.4917C27.1637 33.4713 27.1741 33.4505 27.1836 33.4292L27.5024 32.7228C27.512 32.6982 27.5204 32.6732 27.5275 32.6478L27.74 32.0164C27.7503 31.9857 27.7587 31.9544 27.765 31.9226L27.865 31.4225C27.8752 31.3709 27.8793 31.3188 27.8775 31.2663L27.865 30.8037C27.8631 30.7165 27.8402 30.6352 27.7963 30.5599L27.7838 30.5349C27.6668 30.3356 27.4959 30.2627 27.2712 30.3161Z" fill="black"/>
<path d="M18.182 37.78C18.1958 37.8999 18.2478 37.9999 18.3378 38.0802C18.4279 38.1605 18.5333 38.2007 18.6539 38.2007C18.7746 38.2007 18.88 38.1605 18.9701 38.0802C19.0601 37.9999 19.1121 37.8999 19.1259 37.78C19.1121 37.6601 19.0601 37.56 18.9701 37.4797C18.88 37.3994 18.7746 37.3593 18.6539 37.3593C18.5333 37.3593 18.4279 37.3994 18.3378 37.4797C18.2478 37.56 18.1958 37.6601 18.182 37.78ZM18.1757 37.78C18.1757 37.9112 18.2221 38.0232 18.3149 38.1159C18.4076 38.2087 18.5196 38.2551 18.6508 38.2551C18.782 38.2551 18.894 38.2087 18.9868 38.1159C19.0795 38.0232 19.1259 37.9112 19.1259 37.78C19.1259 37.6488 19.0795 37.5368 18.9868 37.444C18.894 37.3513 18.782 37.3049 18.6508 37.3049C18.5196 37.3049 18.4076 37.3513 18.3149 37.444C18.2221 37.5368 18.1757 37.6488 18.1757 37.78ZM18.0632 37.7862C18.0632 37.9347 18.1157 38.0614 18.2207 38.1664C18.3256 38.2714 18.4524 38.3238 18.6008 38.3238C18.7493 38.3238 18.876 38.2714 18.981 38.1664C19.0859 38.0614 19.1384 37.9347 19.1384 37.7862C19.1384 37.6378 19.0859 37.5111 18.981 37.4061C18.876 37.3011 18.7493 37.2486 18.6008 37.2486C18.4524 37.2486 18.3256 37.3011 18.2207 37.4061C18.1157 37.5111 18.0632 37.6378 18.0632 37.7862ZM18.7071 37.2111L18.6446 37.1861C18.6934 37.2179 18.7455 37.2429 18.8009 37.2611L18.7821 37.2486C18.641 37.1617 18.4882 37.1276 18.3235 37.1463C18.1589 37.165 18.0176 37.2326 17.8997 37.349C17.7818 37.4655 17.7124 37.6059 17.6916 37.7703C17.6708 37.9347 17.703 38.0879 17.7882 38.2301L17.8257 38.2863C17.9666 38.5191 18.1729 38.6442 18.4445 38.6614L18.7446 38.6802C18.7904 38.6841 18.8363 38.6841 18.8821 38.6802L19.4697 38.6239C19.4886 38.6204 19.5074 38.6162 19.526 38.6114L20.3511 38.4739C20.3872 38.468 20.4226 38.4597 20.4574 38.4489L21.3826 38.1551C21.4239 38.1425 21.4635 38.1258 21.5014 38.105L22.2515 37.6862L22.9891 37.5674C23.1554 37.5179 23.2258 37.4073 23.2002 37.2357C23.1747 37.0641 23.0751 36.9788 22.9016 36.9798L22.1577 37.0924L21.3076 36.9361C21.2725 36.9289 21.2371 36.9247 21.2013 36.9236L20.2324 36.9111C20.1968 36.9108 20.1614 36.9128 20.1261 36.9173L19.2947 37.0173L18.7258 37.0799L18.4445 37.0986C18.3293 37.1058 18.2209 37.1371 18.1195 37.1924L18.057 37.2299C18.0842 37.3372 18.1335 37.4332 18.2051 37.5177C18.2766 37.6022 18.3631 37.6668 18.4644 37.7113C18.5658 37.7559 18.6718 37.776 18.7824 37.7716C18.8931 37.7672 18.9972 37.7387 19.0947 37.6862V37.6675C18.9207 37.8435 18.8623 38.0518 18.9196 38.2926L18.9634 38.2426C19.0389 38.1651 19.0908 38.0741 19.1191 37.9697C19.1474 37.8652 19.1485 37.7605 19.1224 37.6555C19.0963 37.5505 19.0463 37.4584 18.9724 37.3794C18.8985 37.3003 18.8101 37.2443 18.7071 37.2111Z" fill="black"/>
<path d="M29.3966 22.5709C29.3966 22.6917 29.4393 22.7949 29.5247 22.8803C29.6102 22.9658 29.7133 23.0085 29.8341 23.0085C29.955 23.0085 30.0581 22.9658 30.1436 22.8803C30.229 22.7949 30.2717 22.6917 30.2717 22.5709C30.2717 22.4501 30.229 22.3469 30.1436 22.2615C30.0581 22.176 29.955 22.1333 29.8341 22.1333C29.7133 22.1333 29.6102 22.176 29.5247 22.2615C29.4393 22.3469 29.3966 22.4501 29.3966 22.5709ZM29.3403 22.5459C29.3403 22.6823 29.3885 22.7987 29.4849 22.8951C29.5814 22.9915 29.6978 23.0397 29.8341 23.0397C29.9705 23.0397 30.0869 22.9915 30.1833 22.8951C30.2798 22.7987 30.328 22.6823 30.328 22.5459C30.328 22.4095 30.2798 22.2931 30.1833 22.1967C30.0869 22.1003 29.9705 22.052 29.8341 22.052C29.6978 22.052 29.5814 22.1003 29.4849 22.1967C29.3885 22.2931 29.3403 22.4095 29.3403 22.5459ZM30.0779 23.0335L30.1467 23.0022C30.1886 22.9834 30.2282 22.9604 30.2655 22.9335L30.378 22.8459L30.5843 22.7209L30.8968 22.5834L31.2657 22.4896L31.597 22.5209L31.9283 22.7084L32.2909 23.1147L32.5909 23.7461L32.7597 24.5463L32.7284 25.4902L32.4909 26.4966L32.0596 27.4656L31.4845 28.3095L30.8468 28.9659L30.2342 29.4222L29.6966 29.6785L29.2528 29.7973L28.9027 29.8223L28.5902 29.766L28.3276 29.691L28.1338 29.6035C28.0931 29.5877 28.0514 29.5752 28.0088 29.566L27.9088 29.541C27.611 29.467 27.3576 29.5423 27.1485 29.7668C26.9395 29.9913 26.8824 30.2494 26.9773 30.5412L27.0149 30.6412C27.0818 30.8504 27.211 31.0087 27.4024 31.1163L27.6275 31.235C27.6638 31.2544 27.7013 31.2711 27.74 31.2851L28.0838 31.4163C28.1205 31.4314 28.158 31.4439 28.1963 31.4538L28.6527 31.5601C28.7001 31.5703 28.748 31.5766 28.7964 31.5789L29.3403 31.6164C29.4245 31.6217 29.5079 31.6154 29.5903 31.5976L30.2155 31.4601C30.2894 31.4438 30.3602 31.4188 30.428 31.3851L31.1219 31.0475C31.1725 31.0227 31.2204 30.9935 31.2657 30.96L32.0096 30.4099C32.0522 30.3779 32.0918 30.3425 32.1283 30.3036L32.8722 29.5285C32.9067 29.4915 32.938 29.4519 32.966 29.4097L33.6286 28.4283C33.6575 28.3846 33.6825 28.3387 33.7036 28.2907L34.2037 27.1655C34.2279 27.1111 34.2467 27.0548 34.26 26.9967L34.535 25.8153C34.549 25.7577 34.5573 25.6994 34.56 25.6402L34.5975 24.4963C34.5996 24.4247 34.5933 24.3538 34.5788 24.2837L34.3788 23.271C34.3615 23.1925 34.3344 23.1174 34.2975 23.046L33.8849 22.1958C33.8465 22.1204 33.7986 22.0517 33.7411 21.9895L33.191 21.3707C33.1158 21.2879 33.0283 21.2212 32.9285 21.1706L32.2784 20.8393C32.1665 20.7812 32.0478 20.7479 31.922 20.7393L31.2532 20.6955C31.1352 20.6895 31.0206 20.7062 30.9093 20.7455L30.3405 20.9331C30.2473 20.9644 30.1618 21.0103 30.0842 21.0706L29.7091 21.3582C29.6467 21.4065 29.5926 21.4628 29.5466 21.5269L29.359 21.7957C29.2941 21.8883 29.2524 21.9904 29.234 22.1021L29.2028 22.2771C29.1732 22.4475 29.2044 22.6058 29.2965 22.7522L29.3403 22.8147C29.4189 22.9378 29.5283 23.0201 29.6683 23.0616C29.8084 23.1031 29.9449 23.0938 30.0779 23.0335ZM27.2461 30.2349C27.2461 30.3799 27.2974 30.5036 27.3999 30.6062C27.5025 30.7087 27.6262 30.76 27.7712 30.76C27.9162 30.76 28.04 30.7087 28.1425 30.6062C28.2451 30.5036 28.2963 30.3799 28.2963 30.2349C28.2963 30.0899 28.2451 29.9661 28.1425 29.8636C28.04 29.761 27.9162 29.7098 27.7712 29.7098C27.6262 29.7098 27.5025 29.761 27.3999 29.8636C27.2974 29.9661 27.2461 30.0899 27.2461 30.2349ZM27.9588 30.4787L28.1151 30.4474C28.2935 30.3985 28.3653 30.2833 28.3305 30.1016C28.2957 29.9198 28.1864 29.8393 28.0025 29.8598L27.8463 29.891C27.6678 29.9399 27.596 30.0552 27.6308 30.2369C27.6656 30.4186 27.7749 30.4992 27.9588 30.4787Z" fill="black"/>
<path d="M4.60438 20.5705C4.60438 20.7872 4.71274 20.8956 4.92945 20.8956C5.14615 20.8956 5.25451 20.7872 5.25451 20.5705C5.25451 20.3538 5.14615 20.2455 4.92945 20.2455C4.71274 20.2455 4.60438 20.3538 4.60438 20.5705ZM4.46061 20.5643C4.46061 20.6937 4.50638 20.8042 4.59793 20.8958C4.68947 20.9873 4.79998 21.0331 4.92945 21.0331C5.05891 21.0331 5.16942 20.9873 5.26097 20.8958C5.35251 20.8042 5.39828 20.6937 5.39828 20.5643C5.39828 20.4348 5.35251 20.3243 5.26097 20.2328C5.16942 20.1412 5.05891 20.0954 4.92945 20.0954C4.79998 20.0954 4.68947 20.1412 4.59793 20.2328C4.50638 20.3243 4.46061 20.4348 4.46061 20.5643ZM5.14824 20.9831L5.22325 20.9456C5.25843 20.9301 5.29177 20.9114 5.32327 20.8893L5.49205 20.7643C5.49842 20.7582 5.50468 20.7519 5.51081 20.7456L5.77961 20.533C5.78603 20.5248 5.79228 20.5165 5.79836 20.508L6.14218 20.208L6.60476 19.8391L7.33615 19.389L8.3676 18.8264L9.64909 18.2388L11.1369 17.7075L12.7497 17.2949L14.3625 17.0198L16.0191 16.9011L17.8131 16.8886L19.6197 16.9886L21.3076 17.2261L22.7828 17.6075L23.9893 18.1263L24.927 18.7202L25.6646 19.364L26.3023 19.9454C26.3612 20.0025 26.4279 20.0483 26.5023 20.0829L26.8711 20.2392L26.9836 20.5705C27.0504 20.7579 27.1775 20.8183 27.3649 20.7517C27.5524 20.685 27.6128 20.558 27.5463 20.3705L27.415 20.0017L27.5087 19.5641C27.5438 19.4043 27.5271 19.2501 27.4587 19.1015L27.0962 18.3076C27.0534 18.217 26.9971 18.1357 26.9274 18.0638L26.196 17.2949C26.1473 17.2408 26.0931 17.1929 26.0335 17.1511L24.9833 16.4572C24.9319 16.4229 24.8777 16.3937 24.8207 16.3697L23.4642 15.8071C23.4236 15.7897 23.3819 15.7751 23.3392 15.7634L21.7389 15.3445C21.7019 15.334 21.6644 15.3256 21.6264 15.3195L19.8448 15.0695C19.8199 15.0664 19.7949 15.0643 19.7698 15.0632L17.8944 14.9507C17.8736 14.95 17.8527 14.95 17.8319 14.9507L15.9753 14.9632C15.9523 14.9645 15.9294 14.9666 15.9065 14.9695L14.1687 15.1007C14.1372 15.1034 14.106 15.1075 14.0749 15.1132L12.3809 15.4133C12.3535 15.4184 12.3264 15.4246 12.2996 15.432L10.6118 15.8884C10.5885 15.8958 10.5656 15.9042 10.543 15.9134L8.97397 16.476C8.94428 16.485 8.91511 16.4954 8.88645 16.5072L7.54869 17.1449C7.52301 17.1583 7.498 17.1729 7.47368 17.1886L6.41098 17.82C6.38074 17.8371 6.35156 17.8558 6.32346 17.8763L5.58582 18.4514C5.55963 18.4708 5.53463 18.4916 5.51081 18.5139L5.03572 18.9702C5.00114 19.005 4.96989 19.0425 4.94195 19.0827L4.65439 19.4641C4.61195 19.524 4.57861 19.5886 4.55437 19.6578L4.4356 19.9767C4.41035 20.0432 4.39576 20.1119 4.39184 20.1829L4.38559 20.3892C4.38325 20.4667 4.39575 20.5417 4.4231 20.6143L4.4481 20.6955C4.49985 20.8371 4.59541 20.9364 4.73478 20.9937C4.87415 21.0509 5.01197 21.0474 5.14824 20.9831Z" fill="black"/>
<path d="M25.9335 19.014C25.9335 19.1314 25.975 19.2316 26.058 19.3146C26.141 19.3976 26.2412 19.4391 26.3585 19.4391C26.4759 19.4391 26.5761 19.3976 26.6591 19.3146C26.7421 19.2316 26.7836 19.1314 26.7836 19.014C26.7836 18.8966 26.7421 18.7964 26.6591 18.7134C26.5761 18.6304 26.4759 18.5889 26.3585 18.5889C26.2412 18.5889 26.141 18.6304 26.058 18.7134C25.975 18.7964 25.9335 18.8966 25.9335 19.014ZM25.8772 19.0077C25.8772 19.1441 25.9254 19.2605 26.0218 19.3569C26.1183 19.4534 26.2347 19.5016 26.371 19.5016C26.5074 19.5016 26.6238 19.4534 26.7202 19.3569C26.8167 19.2605 26.8649 19.1441 26.8649 19.0077C26.8649 18.8714 26.8167 18.755 26.7202 18.6585C26.6238 18.5621 26.5074 18.5139 26.371 18.5139C26.2347 18.5139 26.1183 18.5621 26.0218 18.6585C25.9254 18.755 25.8772 18.8714 25.8772 19.0077ZM25.8147 19.0077C25.8147 19.1683 25.8714 19.3053 25.985 19.4188C26.0985 19.5323 26.2355 19.5891 26.3961 19.5891C26.5566 19.5891 26.6936 19.5323 26.8071 19.4188C26.9207 19.3053 26.9774 19.1683 26.9774 19.0077C26.9774 18.8472 26.9207 18.7102 26.8071 18.5967C26.6936 18.4831 26.5566 18.4264 26.3961 18.4264C26.2355 18.4264 26.0985 18.4831 25.985 18.5967C25.8714 18.7102 25.8147 18.8472 25.8147 19.0077ZM25.8835 19.3453L25.946 19.4641C25.9593 19.4878 25.9738 19.5107 25.9897 19.5328L26.146 19.7454L26.371 20.0892L26.6586 20.533C26.7522 20.679 26.8814 20.779 27.0462 20.8331L27.265 20.9019L27.3837 21.2394C27.4504 21.4228 27.5754 21.4811 27.7588 21.4145C27.9422 21.3478 28.0005 21.2227 27.9338 21.0394L27.8088 20.6893L27.9213 20.4768C28.024 20.2764 28.0323 20.0722 27.9463 19.8642L27.7463 19.3641C27.7206 19.3014 27.6872 19.243 27.6463 19.189L27.39 18.8515C27.3469 18.7945 27.2969 18.7445 27.24 18.7014L27.0212 18.5327C26.9351 18.4675 26.8392 18.4237 26.7336 18.4014L26.6023 18.3764C26.3242 18.3166 26.1004 18.4009 25.9309 18.6294C25.7614 18.8578 25.7456 19.0965 25.8835 19.3453Z" fill="black"/>
<path d="M15.8378 20.5705C15.8378 20.6827 15.8774 20.7785 15.9568 20.8578C16.0361 20.9372 16.1319 20.9768 16.2441 20.9768C16.3563 20.9768 16.4521 20.9372 16.5314 20.8578C16.6108 20.7785 16.6504 20.6827 16.6504 20.5705C16.6504 20.4583 16.6108 20.3625 16.5314 20.2832C16.4521 20.2039 16.3563 20.1642 16.2441 20.1642C16.1319 20.1642 16.0361 20.2039 15.9568 20.2832C15.8774 20.3625 15.8378 20.4583 15.8378 20.5705ZM16.4191 20.9456L16.5067 20.9081C16.5533 20.8861 16.595 20.8569 16.6317 20.8206L16.838 20.6268C16.8487 20.6189 16.8592 20.6105 16.8692 20.6018L17.213 20.2142C17.2195 20.2081 17.2257 20.2019 17.2318 20.1954L17.7319 19.5641C17.7454 19.5482 17.7579 19.5315 17.7694 19.5141L18.3383 18.6076C18.3525 18.5856 18.365 18.5627 18.3758 18.5389L18.9009 17.3574C18.9135 17.3312 18.924 17.3041 18.9321 17.2761L19.2822 15.9009C19.2914 15.8597 19.2955 15.818 19.2947 15.7758L19.3197 14.3443C19.3198 14.3063 19.3156 14.2688 19.3072 14.2318L19.0071 12.8315C18.9991 12.7925 18.9866 12.755 18.9696 12.719L18.3445 11.4375C18.3302 11.4109 18.3135 11.3859 18.2945 11.3625L17.4193 10.1935C17.4096 10.1805 17.3992 10.168 17.3881 10.156L16.3691 9.05582C16.3671 9.05371 16.365 9.05163 16.3629 9.04957L15.3627 8.00562L14.5813 7.00543L14.15 6.03024L14.0937 5.03005L14.325 3.99235L14.6376 3.04842L15.0876 2.3733C15.1872 2.21919 15.1601 2.09221 15.0061 1.99236C14.8522 1.89251 14.7252 1.91947 14.625 2.07324L14.1562 2.77337L13.5686 3.64229C13.5442 3.67699 13.5255 3.7145 13.5123 3.75481L13.181 4.85502C13.163 4.90771 13.1547 4.96189 13.156 5.01755L13.2185 6.16777C13.2212 6.2242 13.2337 6.27838 13.256 6.3303L13.7311 7.43676C13.7493 7.47526 13.7722 7.51069 13.7999 7.54303L14.6376 8.60573C14.6473 8.61878 14.6577 8.63128 14.6688 8.64324L15.7003 9.68719L16.6942 10.7561L17.4943 11.8876L18.0382 13.0941L18.307 14.3756L18.2445 15.6946L17.9194 16.9698L17.4256 18.0825L16.8942 18.9577L16.4566 19.6016L16.1566 19.9954L15.9816 20.2079C15.9624 20.2313 15.9457 20.2563 15.9315 20.283L15.8878 20.3642C15.7969 20.5377 15.8175 20.6967 15.9496 20.8412C16.0817 20.9858 16.2382 21.0206 16.4191 20.9456Z" fill="black"/>
<path d="M20.97 13.8317C20.97 13.9457 21.0103 14.0429 21.0908 14.1235C21.1714 14.204 21.2686 14.2443 21.3826 14.2443C21.4965 14.2443 21.5937 14.204 21.6743 14.1235C21.7548 14.0429 21.7951 13.9457 21.7951 13.8317C21.7951 13.7178 21.7548 13.6206 21.6743 13.54C21.5937 13.4594 21.4965 13.4191 21.3826 13.4191C21.2686 13.4191 21.1714 13.4594 21.0908 13.54C21.0103 13.6206 20.97 13.7178 20.97 13.8317ZM21.7451 14.0505L21.7576 14.0255C21.7856 13.9829 21.8065 13.9371 21.8201 13.888L21.8451 13.763C21.8496 13.7527 21.8538 13.7423 21.8576 13.7317L21.9077 13.4504C21.9115 13.4234 21.9135 13.3964 21.9139 13.3691L21.9389 12.8565L21.9889 12.0564C21.989 12.0501 21.989 12.0439 21.9889 12.0376L22.0264 10.9187C22.0272 10.8999 22.0272 10.8812 22.0264 10.8624L21.9702 9.4684C21.9684 9.43476 21.9642 9.40142 21.9577 9.36838L21.6701 7.85559C21.662 7.81057 21.6495 7.76681 21.6326 7.72431L21.0575 6.28654C21.0425 6.24716 21.0237 6.20965 21.0012 6.17402L20.1761 4.93628C20.1575 4.90744 20.1367 4.88036 20.1136 4.85502L19.1634 3.83607C19.1553 3.8275 19.1469 3.81916 19.1384 3.81107L18.2757 2.98591L17.7881 2.35454L17.6693 1.75443L17.7131 1.12306L18.1569 0.560451C18.2428 0.408179 18.2172 0.277874 18.0799 0.169544C17.9427 0.0612133 17.81 0.0664937 17.6818 0.185379L17.1818 0.810498L16.6504 1.39811C16.5283 1.53132 16.4783 1.6876 16.5004 1.86695L16.6066 2.68586C16.6189 2.79668 16.6585 2.8967 16.7254 2.98591L17.3318 3.77356C17.3509 3.79807 17.3717 3.82099 17.3943 3.84233L18.2757 4.68624L19.1759 5.64892L19.8885 6.79289L20.3324 8.14314L20.5574 9.56842L20.6199 10.8999L20.6012 12.0001L20.5887 12.8065C20.5877 12.8274 20.5877 12.8482 20.5887 12.869L20.6262 13.3879C20.6319 13.4642 20.6507 13.5371 20.6824 13.6067L20.8012 13.863C20.8276 13.9212 20.8631 13.9733 20.9075 14.0193L20.995 14.1068C21.1051 14.2193 21.2385 14.2672 21.3951 14.2506H21.4201C21.5613 14.2373 21.6697 14.1707 21.7451 14.0505Z" fill="black"/>
<path d="M12.2808 14.5881L12.2996 14.5694C12.3372 14.5312 12.3663 14.4874 12.3871 14.4381L12.4496 14.2943C12.4715 14.2423 12.484 14.1881 12.4871 14.1318L12.4996 13.7692C12.5019 13.7294 12.4998 13.6898 12.4934 13.6504L12.3809 13.0191C12.3768 12.9894 12.3706 12.9602 12.3621 12.9315L12.0871 12.1126C12.0834 12.0979 12.0793 12.0833 12.0746 12.0689L11.6307 11.0124C11.6248 11.0018 11.6185 10.9914 11.612 10.9812L11.0056 9.74344C11.0015 9.73711 10.9974 9.73085 10.9931 9.72468L10.2867 8.40568L9.61158 7.13669L9.14274 5.95521L8.98646 4.88626L9.23651 3.77355L9.84288 2.49831L10.6493 1.30433L11.6057 0.485423C11.7189 0.363125 11.7214 0.23858 11.6133 0.111795C11.5051 -0.0149899 11.3818 -0.0321404 11.2431 0.0603422L10.2555 0.898002L9.07398 1.84193C9.04384 1.86596 9.01675 1.89305 8.99272 1.9232L8.04253 3.12343C7.97196 3.21211 7.92612 3.31213 7.90501 3.42348L7.65496 4.73623C7.6391 4.81958 7.6391 4.90293 7.65496 4.98628L7.89876 6.23652C7.90655 6.28162 7.91905 6.32538 7.93626 6.36779L8.48012 7.64304C8.48752 7.6622 8.49585 7.68096 8.50512 7.6993L9.21776 8.98704L9.93665 10.2873L10.5368 11.4938L10.9681 12.5127L11.2369 13.3066L11.4307 13.9067L11.5307 14.2443C11.536 14.2613 11.5423 14.278 11.5495 14.2943L11.612 14.4381C11.6327 14.4874 11.6619 14.5312 11.6995 14.5694L11.7182 14.5881C11.7954 14.6669 11.8892 14.7063 11.9995 14.7063C12.1099 14.7063 12.2036 14.6669 12.2808 14.5881Z" fill="black"/>
<path d="M4.87351 20.8702C4.87351 21.0786 4.97769 21.1828 5.18607 21.1828C5.39444 21.1828 5.49863 21.0786 5.49863 20.8702C5.49863 20.6618 5.39444 20.5576 5.18607 20.5576C4.97769 20.5576 4.87351 20.6618 4.87351 20.8702ZM5.00478 20.5326L4.96102 20.5514C4.95031 20.5572 4.93989 20.5634 4.92977 20.5701L4.8485 20.6139C4.83551 20.6215 4.82301 20.6298 4.811 20.6389L4.71723 20.7077L4.68597 20.7264H4.67347C4.66299 20.7282 4.65257 20.7303 4.64221 20.7327L4.53594 20.7514C4.46298 20.7649 4.39422 20.7899 4.32965 20.8264L4.24839 20.8702C4.21076 21.1546 4.31095 21.3768 4.54897 21.537C4.78698 21.6971 5.0306 21.7061 5.27983 21.5641V21.5578C5.2106 21.6556 5.16892 21.7639 5.15481 21.8829L5.29234 21.6891L5.62365 21.2328C5.65925 21.1843 5.68842 21.1322 5.71117 21.0765L5.99247 20.3764L6.32378 19.745L6.76137 19.2887C6.89047 19.1511 6.88628 19.0178 6.7488 18.8886C6.61132 18.7595 6.47798 18.7636 6.34879 18.9011L5.9112 19.3574L5.29234 19.77L4.64221 20.1826C4.56009 20.2355 4.49133 20.3022 4.43592 20.3826L4.11086 20.8452C4.09216 20.8732 4.07549 20.9024 4.06085 20.9327L3.94833 21.1515C3.8688 21.3059 3.84894 21.4677 3.88876 21.6368C3.92858 21.8059 4.01853 21.9418 4.15861 22.0445C4.29869 22.1473 4.45536 22.1922 4.6286 22.1794C4.80183 22.1665 4.95015 22.0989 5.07355 21.9767C5.15405 21.8991 5.21239 21.8074 5.24858 21.7016L5.27983 21.6141C5.30473 21.5433 5.31723 21.4704 5.31734 21.3953L5.31109 21.289C5.31182 21.2724 5.31182 21.2557 5.31109 21.239L5.3361 21.2265C5.3382 21.2245 5.34029 21.2224 5.34235 21.2203L5.3861 21.189C5.57359 21.0544 5.60936 20.8873 5.49341 20.6877C5.37747 20.4881 5.21459 20.4365 5.00478 20.5326Z" fill="black"/>
<path d="M9.03003 18.2449C9.03011 18.3588 9.07043 18.4559 9.15098 18.5364C9.23153 18.6169 9.32874 18.6572 9.44261 18.6572C9.55649 18.6572 9.6537 18.6169 9.73425 18.5364C9.8148 18.4559 9.85511 18.3588 9.85519 18.2449C9.85511 18.131 9.8148 18.0338 9.73425 17.9533C9.6537 17.8728 9.55649 17.8326 9.44261 17.8326C9.32874 17.8326 9.23153 17.8728 9.15098 17.9533C9.07043 18.0338 9.03011 18.131 9.03003 18.2449ZM8.99878 18.2449C8.99878 18.3657 9.0415 18.4689 9.12694 18.5543C9.21239 18.6397 9.31553 18.6825 9.43636 18.6825C9.5572 18.6825 9.66034 18.6397 9.74578 18.5543C9.83122 18.4689 9.87394 18.3657 9.87395 18.2449C9.87394 18.1241 9.83122 18.0209 9.74578 17.9355C9.66034 17.85 9.5572 17.8073 9.43636 17.8073C9.31553 17.8073 9.21239 17.85 9.12694 17.9355C9.0415 18.0209 8.99878 18.1241 8.99878 18.2449ZM9.56764 17.7698L9.44886 17.7198C9.36321 17.6819 9.27361 17.6653 9.18006 17.6698L8.93002 17.6885C8.84514 17.6917 8.76388 17.7104 8.68622 17.7448L8.33615 17.9073C8.29644 17.9266 8.25893 17.9496 8.22363 17.9761L7.7923 18.2824C7.76102 18.3049 7.73185 18.3299 7.70478 18.3574L7.22344 18.8387C7.1907 18.8712 7.16153 18.9067 7.13592 18.945L6.71084 19.5826C6.66555 19.6518 6.63429 19.7268 6.61708 19.8077L6.4608 20.5203C6.45032 20.5742 6.44824 20.6284 6.45454 20.6829L6.50455 21.2705C6.51118 21.3358 6.53202 21.3962 6.56707 21.4517L6.80461 21.8393L6.97339 22.1456C7.06091 22.304 7.18385 22.3394 7.34221 22.2519C7.50058 22.1644 7.536 22.0414 7.44848 21.8831L7.31096 21.6393L7.33596 21.308L7.46724 20.8579L7.81105 20.339L8.22988 19.7827L8.64246 19.3701L9.00503 19.1013L9.31134 18.92C9.32412 18.9121 9.33663 18.9038 9.34885 18.895L9.56139 18.745C9.58102 18.7315 9.59977 18.7169 9.61765 18.7012L9.71141 18.62C9.77585 18.5612 9.82228 18.4906 9.8507 18.4082C9.87913 18.3258 9.88607 18.2416 9.87153 18.1556C9.85699 18.0697 9.82275 17.9924 9.7688 17.924C9.71486 17.8555 9.6478 17.8041 9.56764 17.7698Z" fill="black"/>
<path d="M8.68622 18.3074C8.68622 18.4144 8.72405 18.5058 8.79973 18.5815C8.87541 18.6571 8.96676 18.695 9.07379 18.695C9.18081 18.695 9.27217 18.6571 9.34784 18.5815C9.42352 18.5058 9.46136 18.4144 9.46136 18.3074C9.46136 18.2004 9.42352 18.109 9.34784 18.0333C9.27217 17.9577 9.18081 17.9198 9.07379 17.9198C8.96676 17.9198 8.87541 17.9577 8.79973 18.0333C8.72405 18.109 8.68622 18.2004 8.68622 18.3074ZM9.27383 17.9448L9.16756 17.8823C9.08451 17.8338 8.99491 17.8088 8.89876 17.8073H8.57995C8.48218 17.8061 8.38841 17.8248 8.29864 17.8636L7.81105 18.0761C7.76258 18.0963 7.71674 18.1213 7.67352 18.1511L7.13592 18.5324C7.10034 18.5568 7.067 18.5839 7.0359 18.6137L6.53581 19.1138C6.50138 19.1464 6.47012 19.1819 6.44204 19.2201L6.04821 19.7827C6.00484 19.8466 5.9715 19.9153 5.94819 19.989L5.74816 20.5703C5.69969 20.7144 5.69343 20.8602 5.7294 21.0079L5.86068 21.533C5.89227 21.6698 5.95895 21.7864 6.06072 21.8831L6.44204 22.2457C6.49856 22.2984 6.56316 22.338 6.63582 22.3644L7.17968 22.5645C7.20596 22.5754 7.23305 22.5837 7.26094 22.5895L7.90482 22.6957C7.95522 22.7031 8.00523 22.701 8.05485 22.6895L8.66746 22.5645L9.19881 22.4895C9.34383 22.4437 9.40559 22.3456 9.38409 22.1951C9.36258 22.0445 9.27582 21.9676 9.1238 21.9644L8.63621 22.0269L8.0736 21.9018L7.56725 21.7581L7.33596 21.5205L7.25469 21.283L7.27345 20.9829L7.41097 20.6078L7.71103 20.1765L8.12361 19.7327L8.57369 19.3514L8.98002 19.0513C9.01619 19.0254 9.04953 18.9962 9.08004 18.9638L9.29258 18.7262C9.3214 18.6958 9.3464 18.6624 9.36759 18.6262L9.43011 18.5262C9.48898 18.4244 9.50314 18.3167 9.47261 18.2031C9.44208 18.0895 9.37582 18.0034 9.27383 17.9448Z" fill="black"/>
<path d="M9.85524 18.5699L9.81148 18.5199C9.77534 18.4719 9.73158 18.4323 9.68021 18.4011L9.49892 18.2949C9.42967 18.2518 9.35466 18.2247 9.27388 18.2136L8.89881 18.1761C8.81679 18.1656 8.73553 18.1698 8.65501 18.1886L8.11741 18.3136C8.02998 18.3349 7.94871 18.3703 7.87362 18.4199L7.31101 18.795C7.24538 18.8365 7.18704 18.8865 7.13597 18.945L6.67339 19.4951C6.60667 19.5731 6.55666 19.6606 6.52336 19.7576L6.30457 20.4203C6.25765 20.5576 6.24932 20.6972 6.27956 20.8391L6.42334 21.5017C6.44932 21.6171 6.50141 21.7192 6.57962 21.808L7.0297 22.3206C7.06127 22.3545 7.09669 22.3837 7.13597 22.4081L7.75484 22.8082C7.78787 22.83 7.82329 22.8467 7.86111 22.8582L8.54249 23.0645L9.12385 23.2708C9.29472 23.3292 9.40932 23.2729 9.46767 23.102C9.52601 22.9312 9.46975 22.8166 9.29889 22.7582L8.75503 22.5707L8.27369 22.1706L7.90487 21.7268L7.79235 21.2892L7.82361 20.8453L7.98614 20.4265L8.3112 20.0452L8.73628 19.7076L9.14886 19.4638L9.45517 19.3076L9.63645 19.2263C9.66991 19.2112 9.70116 19.1924 9.73022 19.17L9.78023 19.1325C9.86859 19.0654 9.92011 18.9768 9.93478 18.8668C9.94945 18.7568 9.92293 18.6579 9.85524 18.5699Z" fill="black"/>
<path d="M9.48015 18.4199H9.45514L9.27386 18.3511C9.25343 18.3435 9.23259 18.3373 9.21135 18.3324L8.79877 18.2449C8.75979 18.2347 8.7202 18.2285 8.68 18.2261L8.07988 18.2198C8.00326 18.2187 7.92824 18.2291 7.85484 18.2511L7.1297 18.4636C7.04894 18.4897 6.97393 18.5272 6.90466 18.5762L6.23578 19.02C6.16713 19.0674 6.1067 19.1237 6.0545 19.1888L5.5794 19.7639C5.50428 19.8549 5.4501 19.957 5.41687 20.0702L5.23559 20.6828C5.18207 20.8662 5.18832 21.0474 5.25434 21.2267L5.46063 21.783C5.51811 21.9423 5.61396 22.0736 5.74819 22.1768L6.3233 22.6144C6.40331 22.6732 6.49083 22.7169 6.58585 22.7457L7.46726 23.027C7.52814 23.0486 7.59065 23.0632 7.6548 23.0708L8.73 23.1645C8.78438 23.1676 8.83856 23.1655 8.89254 23.1583L10.0115 23.052C10.0625 23.0462 10.1125 23.0357 10.1615 23.0208L11.2055 22.7207C11.2552 22.7065 11.3031 22.6878 11.3493 22.6644L12.2307 22.2206C12.2847 22.1933 12.3347 22.16 12.3807 22.1206L13.0308 21.558C13.0631 21.5319 13.0922 21.5027 13.1183 21.4705L13.5497 20.9016C13.5615 20.8836 13.5719 20.8649 13.5809 20.8453L13.8435 20.3765L14.0748 20.0702C14.1493 19.9415 14.1279 19.8314 14.0108 19.7398C13.8936 19.6483 13.7815 19.6542 13.6747 19.7576L13.4559 20.0327L13.0183 20.2702L12.412 20.5578L11.6368 20.8453L10.7554 21.1579L9.80521 21.3704L8.81127 21.4455L7.9111 21.3579L7.26097 21.1454L6.99842 20.9454L6.97967 20.8891L7.02343 20.7141L7.31724 20.3515L7.82983 19.9577L8.40494 19.6326L8.89254 19.4201L9.2426 19.2951L9.43639 19.2513L9.48015 19.245C9.71131 19.2046 9.82688 19.0671 9.82688 18.8325C9.82688 18.5978 9.71131 18.4603 9.48015 18.4199Z" fill="black"/>
<path d="M22.2951 18.2449C22.2951 18.3623 22.3366 18.4625 22.4196 18.5455C22.5026 18.6285 22.6028 18.67 22.7202 18.67C22.8376 18.67 22.9378 18.6285 23.0208 18.5455C23.1038 18.4625 23.1453 18.3623 23.1453 18.2449C23.1453 18.1275 23.1038 18.0273 23.0208 17.9443C22.9378 17.8613 22.8376 17.8198 22.7202 17.8198C22.6028 17.8198 22.5026 17.8613 22.4196 17.9443C22.3366 18.0273 22.2951 18.1275 22.2951 18.2449ZM22.2076 18.2324C22.2076 18.3757 22.2582 18.498 22.3595 18.5993C22.4609 18.7006 22.5832 18.7512 22.7264 18.7512C22.8697 18.7512 22.992 18.7006 23.0933 18.5993C23.1946 18.498 23.2453 18.3757 23.2453 18.2324C23.2453 18.0891 23.1946 17.9668 23.0933 17.8655C22.992 17.7642 22.8697 17.7135 22.7264 17.7135C22.5832 17.7135 22.4609 17.7642 22.3595 17.8655C22.2582 17.9668 22.2076 18.0891 22.2076 18.2324ZM22.5201 18.8513L22.6639 18.9075C22.7046 18.9234 22.7463 18.9359 22.7889 18.945L23.1203 19.02L23.6016 19.1388L24.158 19.3076L24.658 19.5701L25.0019 19.8764L25.1581 20.1578L25.1769 20.4516L25.0581 20.8391L24.7518 21.2642L24.2892 21.6455L23.7016 21.9268L23.039 22.0831L22.3139 22.1081L21.5012 22.0206L20.601 21.8831C20.545 21.8754 20.4887 21.8733 20.4322 21.8768L19.4883 21.9268C19.4264 21.9285 19.366 21.939 19.307 21.9581L18.5694 22.2206L17.8568 22.1581C17.711 22.1457 17.6318 22.2124 17.6193 22.3582C17.6068 22.504 17.6735 22.5831 17.8192 22.5957L18.5194 22.6582L19.157 23.0958C19.1944 23.1208 19.234 23.1416 19.2758 23.1583L20.1509 23.5146C20.1896 23.53 20.2292 23.5425 20.2697 23.5521L21.1636 23.7772C21.1843 23.7821 21.2052 23.7863 21.2261 23.7897L22.1201 23.9522C22.1615 23.9592 22.2031 23.9634 22.2451 23.9647L23.1328 24.0022C23.2043 24.0039 23.2751 23.9976 23.3453 23.9835L24.208 23.821C24.2857 23.8071 24.3608 23.7842 24.433 23.7522L25.2332 23.3896C25.3049 23.356 25.3715 23.3143 25.4332 23.2646L26.1083 22.7332C26.1828 22.6738 26.2474 22.605 26.3021 22.527L26.771 21.8643C26.8317 21.7779 26.8776 21.6841 26.9085 21.583L27.1335 20.8641C27.171 20.7395 27.1835 20.6124 27.171 20.4828L27.1148 19.7827C27.102 19.6403 27.0604 19.5069 26.9897 19.3826L26.6334 18.7637C26.5747 18.6605 26.4997 18.5709 26.4084 18.4949L25.827 18.0136C25.771 17.9672 25.7106 17.9276 25.6457 17.8948L24.9581 17.551C24.9 17.522 24.8396 17.499 24.7768 17.4822L24.1079 17.301C24.0301 17.2805 23.9509 17.2701 23.8704 17.2697L23.3328 17.2635C23.2546 17.2616 23.1775 17.2699 23.1015 17.2885L22.7577 17.376C22.5964 17.4174 22.461 17.5007 22.3514 17.626L22.2513 17.7385C22.1763 17.8241 22.1251 17.9222 22.0979 18.0328C22.0706 18.1433 22.0704 18.2539 22.0971 18.3646C22.1239 18.4753 22.1746 18.5736 22.2493 18.6595C22.324 18.7455 22.4143 18.8094 22.5201 18.8513Z" fill="black"/>
<path d="M18.4694 17.701C18.4694 17.815 18.5096 17.9122 18.5902 17.9928C18.6708 18.0733 18.768 18.1136 18.8819 18.1136C18.9959 18.1136 19.0931 18.0733 19.1737 17.9928C19.2542 17.9122 19.2945 17.815 19.2945 17.701C19.2945 17.5871 19.2542 17.4899 19.1737 17.4093C19.0931 17.3287 18.9959 17.2885 18.8819 17.2885C18.768 17.2885 18.6708 17.3287 18.5902 17.4093C18.5096 17.4899 18.4694 17.5871 18.4694 17.701ZM18.4256 17.6948C18.4256 17.8156 18.4683 17.9188 18.5538 18.0042C18.6392 18.0897 18.7424 18.1324 18.8632 18.1324C18.984 18.1324 19.0872 18.0897 19.1726 18.0042C19.258 17.9188 19.3008 17.8156 19.3008 17.6948C19.3008 17.574 19.258 17.4708 19.1726 17.3854C19.0872 17.2999 18.984 17.2572 18.8632 17.2572C18.7424 17.2572 18.6392 17.2999 18.5538 17.3854C18.4683 17.4708 18.4256 17.574 18.4256 17.6948ZM19.2258 17.3135L19.1132 17.1634C19.0609 17.0958 18.9984 17.0396 18.9257 16.9947L18.6319 16.8009C18.5785 16.7695 18.5222 16.7445 18.4631 16.7259L17.9693 16.5508C17.9244 16.5347 17.8786 16.5222 17.8317 16.5133L17.1504 16.3945C17.1296 16.3918 17.1088 16.3897 17.0879 16.3883L16.2439 16.2945C16.2127 16.293 16.1814 16.293 16.1502 16.2945L15.1625 16.282C15.1311 16.2826 15.0999 16.2847 15.0687 16.2883L13.981 16.382C13.9452 16.3864 13.9098 16.3926 13.8747 16.4008L12.712 16.6258C12.6761 16.6323 12.6407 16.6406 12.6057 16.6508L11.4243 17.0134C11.3838 17.0256 11.3442 17.0402 11.3055 17.0572L10.199 17.5573C10.1468 17.5803 10.0968 17.6074 10.049 17.6385L9.08633 18.2699C9.02562 18.3079 8.96936 18.3517 8.91755 18.4012L8.17366 19.1451C8.10198 19.2157 8.04156 19.2948 7.99237 19.3826L7.56104 20.164C7.47256 20.3256 7.4288 20.4986 7.42976 20.6829V21.4393C7.43051 21.7324 7.53261 21.9846 7.73607 22.1956L8.33619 22.827C8.46252 22.96 8.61255 23.0558 8.78627 23.1146L10.0678 23.5459C10.1411 23.5703 10.2161 23.587 10.2928 23.5959L12.1557 23.8085C12.1951 23.8127 12.2347 23.8147 12.2744 23.8147L14.4874 23.8335C14.5144 23.8344 14.5415 23.8344 14.5686 23.8335L16.9066 23.6709C16.9296 23.6696 16.9525 23.6675 16.9753 23.6647L19.1883 23.3709C19.2071 23.3672 19.2259 23.363 19.2445 23.3584L21.1511 23.0083C21.1742 23.0028 21.1972 22.9965 21.2199 22.9895L22.7077 22.6207C22.7416 22.6099 22.775 22.5974 22.8077 22.5832L23.8454 22.2081C23.9152 22.1837 23.9819 22.1524 24.0454 22.1144L24.6768 21.7331C24.8331 21.6393 24.9581 21.5143 25.0519 21.358L25.2957 20.9454C25.4434 20.698 25.4872 20.4333 25.4269 20.1515L25.3332 19.7077C25.2963 19.5435 25.2254 19.3955 25.1206 19.2638L24.7456 18.7762C24.6957 18.7117 24.6395 18.6533 24.5768 18.6012L23.9767 18.1136C23.9486 18.0892 23.9195 18.0663 23.8891 18.0449L23.1328 17.5385C23.1104 17.5231 23.0874 17.5085 23.064 17.4948L22.1951 17.0072C22.1627 16.9867 22.1293 16.968 22.0951 16.9509L21.1136 16.5258C21.0629 16.5033 21.0108 16.4845 20.9573 16.4696L19.8134 16.1507C19.7497 16.1348 19.6851 16.1243 19.6196 16.1195L18.2756 15.982C18.2132 15.9748 18.1507 15.9727 18.088 15.9757L16.5377 16.0695C16.5 16.0718 16.4625 16.076 16.4252 16.082L14.8124 16.3383C14.7788 16.3431 14.7455 16.3493 14.7124 16.357L13.1559 16.7446C13.1242 16.7516 13.093 16.76 13.0621 16.7696L11.6431 17.2572C11.6027 17.2696 11.5631 17.2842 11.5243 17.301L10.3491 17.8511C10.2735 17.8872 10.2027 17.931 10.1365 17.9823L9.28637 18.6262C9.17066 18.7146 9.07481 18.8209 8.99881 18.945L8.55498 19.6639C8.42761 19.8688 8.36927 20.0918 8.37994 20.3328L8.41745 21.0829C8.42949 21.3158 8.5045 21.5263 8.64249 21.7143L9.17385 22.4457C9.26163 22.5637 9.3679 22.6616 9.49266 22.7395L10.5053 23.3771C10.582 23.4262 10.6633 23.4657 10.7491 23.4959L12.1932 23.996C12.2463 24.0145 12.3005 24.0291 12.3557 24.0397L14.1248 24.3711C14.1642 24.3773 14.2038 24.3814 14.2436 24.3836L16.1814 24.5523C16.2168 24.556 16.2522 24.5581 16.2877 24.5586L18.2131 24.5461C18.2507 24.5458 18.2882 24.5437 18.3256 24.5398L20.0822 24.3586C20.1264 24.3527 20.1702 24.3444 20.2134 24.3336L21.7075 24.0147C21.765 24.0023 21.8213 23.9856 21.8763 23.9647L23.0265 23.5272C23.1151 23.4935 23.1985 23.4497 23.2765 23.3959L24.0704 22.8458C24.2022 22.7533 24.3106 22.6387 24.3955 22.502L24.7956 21.8643C24.9145 21.6752 24.9749 21.4689 24.9769 21.2455L24.9831 20.5328C24.9845 20.3387 24.9408 20.1553 24.8518 19.9827L24.483 19.2513C24.4161 19.1228 24.3286 19.0103 24.2205 18.9138L23.4766 18.2449C23.4027 18.1762 23.3215 18.1179 23.2328 18.0699L22.1638 17.5135C22.0956 17.4796 22.0247 17.4525 21.9513 17.4322L20.6073 17.0322C20.5378 17.0111 20.4669 16.9965 20.3947 16.9884L18.8507 16.8259C18.7821 16.8178 18.7133 16.8157 18.6444 16.8196L16.9566 16.9321C16.8976 16.9361 16.8393 16.9445 16.7815 16.9572L15.1125 17.3197C15.0592 17.3328 15.0071 17.3495 14.9562 17.3697L13.4997 17.9073C13.4301 17.9324 13.3634 17.9636 13.2996 18.0011L12.2244 18.6512C12.1104 18.7178 12.0104 18.8012 11.9244 18.9013L11.318 19.6264C11.1596 19.817 11.07 20.0358 11.0492 20.2828L10.9867 21.0454C10.959 21.3644 11.0465 21.6478 11.2492 21.8956L11.8181 22.5895C11.9424 22.7396 12.0945 22.8522 12.2744 22.927L13.4872 23.4334C13.5697 23.4682 13.6552 23.4932 13.7435 23.5084L15.4188 23.7834C15.4746 23.7938 15.5309 23.8 15.5876 23.8022L17.4754 23.8397C17.5213 23.8424 17.5671 23.8424 17.613 23.8397L19.4633 23.6584C19.5053 23.6544 19.547 23.6482 19.5883 23.6397L21.1824 23.3021C21.2355 23.2912 21.2876 23.2766 21.3387 23.2583L22.5514 22.8145C22.6351 22.784 22.7143 22.7444 22.7889 22.6957L23.5891 22.1706C23.7395 22.0716 23.8603 21.9445 23.9517 21.7893L24.2767 21.233C24.4502 20.944 24.4898 20.6377 24.3955 20.314L24.233 19.7702C24.1553 19.5113 24.0052 19.305 23.7829 19.1513L23.1203 18.6887C23.0093 18.6113 22.8884 18.555 22.7577 18.5199L21.6137 18.2074C21.5397 18.1895 21.4647 18.1791 21.3887 18.1761L19.8321 18.0699C19.7779 18.066 19.7238 18.066 19.6696 18.0699L17.863 18.2074C17.8253 18.2097 17.7878 18.2139 17.7505 18.2199L15.9814 18.5324C15.9349 18.5401 15.8891 18.5505 15.8439 18.5637L14.4123 19.0075C14.3291 19.0339 14.2499 19.0693 14.1748 19.1138L13.3434 19.5952C13.0069 19.7911 12.8194 20.0828 12.7808 20.4703L12.7433 20.8829C12.7166 21.1481 12.7759 21.3925 12.921 21.6161C13.0662 21.8397 13.2653 21.9933 13.5184 22.0769L14.2561 22.3207C14.3596 22.3548 14.4659 22.3735 14.5749 22.3769L15.9189 22.4207C15.9648 22.4214 16.0107 22.4193 16.0564 22.4144L17.6942 22.2707C17.7194 22.2673 17.7444 22.2632 17.7692 22.2582L19.332 22.0144C19.3615 22.0093 19.3906 22.003 19.4195 21.9956L20.601 21.7143C20.6543 21.7015 20.7064 21.6848 20.7573 21.6643L21.3262 21.4393C21.5048 21.3672 21.6551 21.2566 21.777 21.1073C21.8988 20.9581 21.9772 20.7887 22.012 20.5992C22.0469 20.4098 22.0339 20.2236 21.9732 20.0408C21.9124 19.8579 21.8113 19.7011 21.67 19.5701L21.5262 19.4389C21.3056 19.2352 21.0451 19.1351 20.7448 19.1388L19.9384 19.1513C19.9007 19.1536 19.8632 19.1578 19.8259 19.1638L18.5819 19.3076C18.5609 19.3112 18.5401 19.3153 18.5194 19.3201L17.1941 19.5451C17.1647 19.5502 17.1355 19.5565 17.1066 19.5639L16.0251 19.8452C15.9542 19.8614 15.8854 19.8844 15.8189 19.914L15.2813 20.1765C15.1035 20.262 14.9582 20.3856 14.8454 20.5475C14.7327 20.7093 14.667 20.8885 14.6485 21.0849C14.6299 21.2812 14.6609 21.4695 14.7413 21.6496C14.8218 21.8297 14.9413 21.9784 15.1 22.0956L15.2688 22.2207C15.4925 22.3844 15.7425 22.4553 16.0189 22.4332L16.7815 22.3769C16.8215 22.3728 16.8611 22.3666 16.9003 22.3582L17.938 22.1644C17.9548 22.1606 17.9715 22.1564 17.988 22.1519L18.9632 21.9206C18.9842 21.915 19.0051 21.9087 19.0257 21.9018L19.6383 21.7143C19.8313 21.6549 19.9959 21.5507 20.1322 21.4017L20.1884 21.3392C20.3479 21.1634 20.4415 20.9576 20.4692 20.7219C20.497 20.4861 20.4537 20.2642 20.3395 20.0562C20.2252 19.8481 20.0612 19.6925 19.8474 19.5895C19.6336 19.4864 19.4097 19.4549 19.1757 19.4951L18.6381 19.5889C18.6235 19.5907 18.6089 19.5928 18.5944 19.5952L17.6442 19.8077C17.6233 19.8113 17.6024 19.8154 17.5817 19.8202L16.5628 20.1015C16.5267 20.1122 16.4913 20.1247 16.4565 20.139L15.7063 20.4328C15.5229 20.5052 15.3687 20.6178 15.2438 20.7704L15.0562 20.9892C14.7683 21.3406 14.7123 21.7258 14.8884 22.1447C15.0644 22.5635 15.3788 22.7931 15.8314 22.8333L16.369 22.877C16.4419 22.8842 16.5148 22.8842 16.5878 22.877L17.7442 22.7583C17.7589 22.7565 17.7734 22.7544 17.788 22.752L19.3133 22.5332C19.3174 22.5332 19.3216 22.5332 19.3258 22.5332L20.8698 22.2894C20.8929 22.2861 20.9158 22.2819 20.9386 22.2769L22.2763 21.9581C22.2974 21.9527 22.3183 21.9464 22.3389 21.9393L23.3265 21.6205C23.3521 21.614 23.3771 21.6056 23.4016 21.5955L23.9517 21.333L24.333 21.3392C24.5121 21.3433 24.6038 21.2558 24.6079 21.0767C24.6121 20.8975 24.5246 20.8059 24.3455 20.8016H23.9454L23.364 20.5703C23.3258 20.5534 23.2863 20.5409 23.2453 20.5328L22.2201 20.3703C22.1849 20.3638 22.1495 20.3596 22.1138 20.3578L20.7448 20.314C20.7072 20.314 20.6697 20.3161 20.6323 20.3203L19.0757 20.4516L17.5567 20.5828L16.5065 20.6391L16.0689 20.5891C15.7697 20.9296 15.7003 21.3119 15.8605 21.7359C16.0208 22.1599 16.3257 22.4007 16.7753 22.4582L16.7878 22.4457L17.2254 22.2707L18.1818 22.0081L19.0757 21.7768L19.5821 21.683C19.7406 21.5047 19.8323 21.2969 19.8572 21.0596C19.882 20.8223 19.8354 20.6 19.7172 20.3927C19.5991 20.1854 19.4316 20.032 19.2147 19.9325C18.9979 19.8329 18.7723 19.8059 18.5381 19.8515L18.4819 19.914C18.6811 19.853 18.8499 19.7447 18.9882 19.5889L18.4006 19.7702L17.5004 19.9952L16.5565 20.1578L15.8564 20.2078C16.0858 20.3954 16.3483 20.4788 16.644 20.4578L16.4752 20.3203C16.3004 20.4022 16.1562 20.5212 16.0427 20.6773C15.9291 20.8334 15.8603 21.0072 15.8362 21.1988C15.8121 21.3903 15.8357 21.5757 15.9071 21.7551C15.9784 21.9345 16.0886 22.0855 16.2377 22.2081L16.6878 22.0019L17.6192 21.7643L18.8757 21.5518L20.0384 21.408L20.7823 21.4017C20.5687 21.2236 20.3228 21.136 20.0447 21.1392L20.1947 21.2642C20.3766 21.1881 20.5281 21.0722 20.6491 20.9165C20.7701 20.7608 20.845 20.5854 20.8738 20.3904C20.9025 20.1953 20.8815 20.0057 20.8106 19.8217C20.7397 19.6377 20.6282 19.483 20.476 19.3576L19.9947 19.5576L18.9445 19.8077L17.4629 20.039L15.9314 20.1578L14.8249 20.1203L14.2498 19.9202C14.2189 20.1851 14.2743 20.4305 14.4159 20.6564C14.5576 20.8824 14.7543 21.0391 15.0062 21.1267L15.0562 20.7141C14.723 20.9042 14.5334 21.1897 14.4874 21.5705L15.2062 21.1579L16.4502 20.7829L18.0943 20.4953L19.7634 20.3766L21.1199 20.4578L21.9513 20.6891L22.1263 20.8141L22.0263 20.4891L22.0951 20.3703L21.6325 20.6704L20.6135 21.0454L19.1757 21.3517L17.4629 21.508L15.7251 21.4705L14.2748 21.2205L13.4622 20.8704L13.3746 20.7641L13.3684 20.8579L13.6059 20.5828L14.4186 20.1015L15.7001 19.6389L17.2066 19.3138L18.7007 19.2138L20.0384 19.3514L21.1699 19.6764L22.0013 20.114L22.4764 20.5328L22.6139 20.8079V20.8954L22.5201 21.0517L22.0513 21.3767L21.1199 21.7331L19.7759 22.0269L18.1443 22.2019L16.3252 22.2081L14.4999 22.0581L12.8808 21.7456L11.6368 21.3142L10.9242 20.8766L10.7366 20.6141V20.5828L10.8742 20.3578L11.4555 19.9202L12.462 19.4326L13.7685 18.9825L15.2312 18.6137L16.7378 18.3699L18.1381 18.2824L19.307 18.3887L20.2885 18.6512L21.1511 19.0138L21.9388 19.4389L22.6202 19.8765L23.0827 20.2453L23.239 20.4391L23.1828 20.2078L23.3015 20.0077L22.9952 20.1953L22.1201 20.5141L20.7198 20.8641L18.8819 21.2017L16.7315 21.4643L14.4624 21.608L12.3495 21.5893L10.6679 21.383L9.7302 21.0767L9.58642 20.9454V20.9142L9.79271 20.5266L10.3428 19.9702L11.143 19.4326L12.1182 18.97L13.1809 18.6075L14.2373 18.3699L15.2312 18.2574L16.1502 18.2261L16.9441 18.2449L17.6192 18.2887C17.6255 18.2887 17.6317 18.2887 17.638 18.2887L18.1568 18.3137C18.1818 18.3148 18.2068 18.3148 18.2318 18.3137L18.5881 18.2949C18.6457 18.2914 18.7019 18.281 18.7569 18.2636L18.932 18.2074C19.0215 18.1801 19.0998 18.1338 19.1667 18.0683C19.2337 18.0029 19.2818 17.9257 19.311 17.8367C19.3402 17.7478 19.3473 17.6571 19.3323 17.5647C19.3172 17.4723 19.2817 17.3885 19.2258 17.3135Z" fill="black"/>
<path d="M26.0958 21.2079C26.0958 21.3098 26.1318 21.3967 26.2038 21.4687C26.2758 21.5408 26.3628 21.5768 26.4646 21.5768C26.5665 21.5768 26.6534 21.5408 26.7254 21.4687C26.7974 21.3967 26.8334 21.3098 26.8334 21.2079C26.8334 21.1061 26.7974 21.0192 26.7254 20.9472C26.6534 20.8751 26.5665 20.8391 26.4646 20.8391C26.3628 20.8391 26.2758 20.8751 26.2038 20.9472C26.1318 21.0192 26.0958 21.1061 26.0958 21.2079ZM26.002 21.1954C26.002 21.3197 26.046 21.4258 26.1338 21.5137C26.2217 21.6016 26.3278 21.6455 26.4521 21.6455C26.5764 21.6455 26.6825 21.6016 26.7704 21.5137C26.8582 21.4258 26.9022 21.3197 26.9022 21.1954C26.9022 21.0712 26.8582 20.9651 26.7704 20.8772C26.6825 20.7893 26.5764 20.7454 26.4521 20.7454C26.3278 20.7454 26.2217 20.7893 26.1338 20.8772C26.046 20.9651 26.002 21.0712 26.002 21.1954ZM25.777 21.1392C25.777 21.3204 25.8411 21.4751 25.9692 21.6033C26.0974 21.7315 26.2521 21.7956 26.4334 21.7956C26.6146 21.7956 26.7693 21.7315 26.8975 21.6033C27.0256 21.4751 27.0897 21.3204 27.0897 21.1392C27.0897 20.9579 27.0256 20.8032 26.8975 20.6751C26.7693 20.5469 26.6146 20.4828 26.4334 20.4828C26.2521 20.4828 26.0974 20.5469 25.9692 20.6751C25.8411 20.8032 25.777 20.9579 25.777 21.1392ZM26.7959 21.7205L26.8959 21.6643C26.7306 21.6447 26.5743 21.6738 26.4271 21.7518L26.5834 21.7706C26.481 21.7095 26.3705 21.672 26.2521 21.658L26.2958 21.6893L26.3333 21.733C26.3185 21.5456 26.2518 21.3789 26.1333 21.233L26.1521 21.4517C26.2308 21.2985 26.2641 21.136 26.2521 20.9642L26.1333 21.1892C26.0987 21.261 26.0737 21.336 26.0583 21.4142L26.0083 21.6268C25.937 21.9584 26.0342 22.2296 26.2999 22.4404C26.5656 22.6512 26.8518 22.6843 27.1585 22.5395L27.3523 22.4519C27.5655 22.3539 27.7197 22.1977 27.8149 21.9831L27.9149 21.7518C27.9938 21.5703 28.0126 21.3827 27.9711 21.1892L27.9274 20.9767C27.8778 20.7389 27.7527 20.5513 27.5523 20.414L27.371 20.2953C27.2688 20.2232 27.1563 20.1753 27.0335 20.1515L26.8272 20.114C26.6779 20.0869 26.5321 20.0994 26.3896 20.1515L26.2458 20.2078C26.0324 20.2866 25.8803 20.4304 25.7895 20.6391L25.7395 20.7391C25.5928 21.0706 25.6522 21.3597 25.9178 21.6064C26.1834 21.8532 26.4761 21.8912 26.7959 21.7205ZM26.2646 21.9143C26.2646 22.0438 26.3103 22.1543 26.4019 22.2459C26.4934 22.3374 26.6039 22.3832 26.7334 22.3832C26.8629 22.3832 26.9734 22.3374 27.0649 22.2459C27.1565 22.1543 27.2022 22.0438 27.2023 21.9143C27.2022 21.7849 27.1565 21.6744 27.0649 21.5828C26.9734 21.4913 26.8629 21.4455 26.7334 21.4455C26.6039 21.4455 26.4934 21.4913 26.4019 21.5828C26.3103 21.6744 26.2646 21.7849 26.2646 21.9143ZM26.4271 22.0456L26.4334 22.0706C26.4793 22.2539 26.5939 22.3226 26.7771 22.2768C26.9604 22.2309 27.0292 22.1164 26.9835 21.9331L26.9772 21.9081C26.9313 21.7248 26.8167 21.6561 26.6334 21.7019C26.4501 21.7477 26.3814 21.8623 26.4271 22.0456Z" fill="black"/>
<path d="M10.4115 20.264C10.4115 20.3814 10.453 20.4816 10.536 20.5646C10.619 20.6476 10.7192 20.6891 10.8366 20.6891C10.954 20.6891 11.0542 20.6476 11.1372 20.5646C11.2202 20.4816 11.2617 20.3814 11.2617 20.264C11.2617 20.1466 11.2202 20.0464 11.1372 19.9634C11.0542 19.8804 10.954 19.8389 10.8366 19.8389C10.7192 19.8389 10.619 19.8804 10.536 19.9634C10.453 20.0464 10.4115 20.1466 10.4115 20.264ZM10.3803 20.264C10.3803 20.3866 10.4236 20.4912 10.5103 20.5779C10.5969 20.6645 10.7015 20.7079 10.8241 20.7079C10.9467 20.7079 11.0513 20.6645 11.1379 20.5779C11.2246 20.4912 11.2679 20.3866 11.2679 20.264C11.2679 20.1415 11.2246 20.0368 11.1379 19.9502C11.0513 19.8635 10.9467 19.8202 10.8241 19.8202C10.7015 19.8202 10.5969 19.8635 10.5103 19.9502C10.4236 20.0368 10.3803 20.1415 10.3803 20.264ZM10.224 20.2765C10.224 20.4319 10.2789 20.5645 10.3888 20.6743C10.4986 20.7842 10.6312 20.8391 10.7866 20.8391C10.9419 20.8391 11.0746 20.7842 11.1844 20.6743C11.2943 20.5645 11.3492 20.4319 11.3492 20.2765C11.3492 20.1212 11.2943 19.9886 11.1844 19.8787C11.0746 19.7688 10.9419 19.7139 10.7866 19.7139C10.6312 19.7139 10.4986 19.7688 10.3888 19.8787C10.2789 19.9886 10.224 20.1212 10.224 20.2765ZM10.2802 20.7266L10.3177 20.7704C10.4136 20.8788 10.5323 20.9475 10.6741 20.9767L10.8616 21.0204C10.8844 21.0237 10.9073 21.0258 10.9304 21.0267L11.2742 21.0642C11.2825 21.0664 11.2908 21.0685 11.2992 21.0704L11.7055 21.0954C11.7138 21.0956 11.7222 21.0956 11.7305 21.0954L11.9431 21.1017L11.9556 21.1079C12.0699 21.1678 12.1916 21.1963 12.3207 21.1933C12.4497 21.1904 12.57 21.1564 12.6815 21.0913C12.793 21.0263 12.8818 20.9384 12.9478 20.8275C13.0139 20.7166 13.0491 20.5967 13.0533 20.4677C13.0574 20.3387 13.0301 20.2167 12.9714 20.1018C12.9126 19.9869 12.8297 19.8933 12.7226 19.8212C12.6156 19.7491 12.4978 19.7074 12.3692 19.6961C12.2406 19.6848 12.1173 19.7053 11.9993 19.7577L11.9681 19.7764L11.7555 19.7827L11.3992 19.7639L11.0929 19.7264L10.9491 19.7014L10.9241 19.6952C10.6225 19.6176 10.3893 19.7109 10.2243 19.975C10.0594 20.2392 10.0781 20.4897 10.2802 20.7266ZM11.9806 19.6952L11.7055 19.7827C11.6466 19.8017 11.5903 19.8267 11.5367 19.8577L11.3117 19.9827C11.1232 20.099 10.9981 20.2635 10.9362 20.4761C10.8744 20.6888 10.8919 20.8947 10.9887 21.0939C11.0855 21.2931 11.2365 21.4341 11.4419 21.5169C11.6473 21.5998 11.8539 21.6031 12.0618 21.5268L12.2994 21.433C12.3315 21.4203 12.3628 21.4057 12.3931 21.3892L12.6432 21.2517C12.8344 21.1465 12.9656 20.9907 13.0368 20.7845C13.1081 20.5782 13.101 20.3747 13.0155 20.1739C12.93 19.9731 12.7883 19.8269 12.5902 19.7353C12.3921 19.6437 12.1889 19.6303 11.9806 19.6952ZM11.1867 20.7516C11.1867 20.9122 11.2434 21.0492 11.3569 21.1627C11.4705 21.2762 11.6075 21.333 11.768 21.333C11.9286 21.333 12.0656 21.2762 12.1791 21.1627C12.2926 21.0492 12.3494 20.9122 12.3494 20.7516C12.3494 20.5911 12.2926 20.4541 12.1791 20.3405C12.0656 20.227 11.9286 20.1703 11.768 20.1703C11.6075 20.1703 11.4705 20.227 11.3569 20.3405C11.2434 20.4541 11.1867 20.5911 11.1867 20.7516ZM12.0806 20.9829L12.3681 20.9016C12.5351 20.8389 12.5933 20.722 12.5428 20.551C12.4922 20.38 12.3798 20.3135 12.2056 20.3515L11.9181 20.4328C11.7511 20.4955 11.6929 20.6124 11.7434 20.7835C11.794 20.9545 11.9064 21.021 12.0806 20.9829Z" fill="black"/>
</g>
<defs>
<clipPath id="clip0_1_7208">
<rect width="35" height="39" fill="white"/>
</clipPath>
</defs>
</svg>
