<svg width="32" height="36" viewBox="0 0 32 36" fill="none" xmlns="http://www.w3.org/2000/svg">
<g clip-path="url(#clip0_1_7279)">
<path d="M1.82513 13.6286C1.82523 13.8368 1.92941 13.941 2.13769 13.941C2.34596 13.941 2.45014 13.8368 2.45024 13.6286C2.45014 13.4203 2.34596 13.3162 2.13769 13.3162C1.92941 13.3162 1.82523 13.4203 1.82513 13.6286ZM2.34397 13.9286L2.41274 13.8849C2.44756 13.8619 2.47882 13.8348 2.50651 13.8036L2.63153 13.6723L2.86907 13.4473C2.87117 13.4452 2.87326 13.4431 2.87533 13.441L3.19414 13.1222L3.68798 12.6909L4.38811 12.1595L5.27578 11.6219L6.30723 11.1406L7.38868 10.7655L8.48889 10.5217L9.60161 10.4405L10.7456 10.5467L11.8583 10.8656L12.9085 11.4594L13.8524 12.3033L14.6276 13.3785L15.2152 14.6538L15.5902 16.0853L15.784 17.5918L15.7903 19.0609L15.6027 20.4611L15.2464 21.7739L14.7276 22.9929L14.065 24.0868L13.2773 25.0495L12.4209 25.8184L11.5207 26.381L10.608 26.7248L9.62661 26.8999L8.57016 26.9249L7.4887 26.8498L6.48226 26.7186L5.62585 26.5998L4.96947 26.4998C4.87532 26.4843 4.78155 26.4863 4.68817 26.506L4.51939 26.5435L4.43812 26.4935L4.38811 26.3247C4.33012 26.1995 4.23513 26.1571 4.10315 26.1974C3.97117 26.2377 3.91613 26.326 3.93803 26.4623L4.00679 26.6998L4.0693 26.9936L4.08806 27.2999C4.10445 27.557 4.22114 27.755 4.43812 27.8938L5.00698 28.2564C5.08299 28.3038 5.16426 28.3393 5.25078 28.3626L6.09469 28.6002C6.13787 28.6116 6.18163 28.6199 6.22596 28.6252L7.26366 28.7752C7.28443 28.778 7.30527 28.7801 7.32617 28.7815L8.47639 28.8565C8.50755 28.8601 8.5388 28.8622 8.57016 28.8627L9.74538 28.8252C9.79362 28.8247 9.84155 28.8205 9.88916 28.8127L11.0331 28.6127C11.0952 28.6019 11.1556 28.5853 11.2144 28.5627L12.3021 28.1376C12.3589 28.1156 12.413 28.0885 12.4647 28.0563L13.5086 27.3937C13.5552 27.3641 13.599 27.3308 13.6399 27.2937L14.6026 26.4185C14.6386 26.3857 14.672 26.3502 14.7026 26.3122L15.5777 25.237C15.6054 25.2013 15.6304 25.1638 15.6528 25.1245L16.3841 23.9118C16.4078 23.8737 16.4286 23.8341 16.4467 23.793L17.0155 22.4553C17.033 22.4146 17.0476 22.3729 17.0593 22.3302L17.4406 20.8925C17.4496 20.8512 17.4559 20.8095 17.4594 20.7674L17.6531 19.2421C17.6583 19.1985 17.6604 19.1548 17.6594 19.1109L17.6469 17.5168C17.6453 17.477 17.6411 17.4374 17.6344 17.398L17.4093 15.779C17.4019 15.7366 17.3914 15.6949 17.3781 15.654L16.9343 14.0974C16.9193 14.05 16.9005 14.0042 16.878 13.9599L16.2091 12.5471C16.1848 12.4943 16.1557 12.4443 16.1216 12.3971L15.2214 11.1844C15.183 11.1316 15.1392 11.0836 15.0902 11.0406L13.9899 10.0904C13.9437 10.0497 13.8937 10.0142 13.8399 9.98413L12.6084 9.309C12.5489 9.27663 12.4864 9.25163 12.4209 9.23399L11.1269 8.87767C11.0756 8.8645 11.0235 8.85617 10.9706 8.85267L9.68287 8.7464C9.63495 8.74233 9.58702 8.74233 9.53909 8.7464L8.29511 8.85892C8.25085 8.8617 8.20709 8.86795 8.16383 8.87767L6.9636 9.18398C6.9296 9.19226 6.89626 9.20268 6.86358 9.21524L5.71337 9.67157C5.68557 9.68255 5.65848 9.69505 5.6321 9.70908L4.56315 10.2842C4.54171 10.2957 4.52087 10.3082 4.50064 10.3217L3.56921 10.9468C3.54988 10.9585 3.53112 10.971 3.51295 10.9843L2.78156 11.5782C2.75254 11.6011 2.72545 11.6261 2.70029 11.6532L2.23145 12.172C2.20335 12.2031 2.17834 12.2364 2.15644 12.2721L1.90639 12.6659C1.88261 12.7075 1.86385 12.7513 1.85013 12.7972L1.73761 13.116C1.72478 13.1546 1.71644 13.1942 1.7126 13.2348L1.69385 13.4348C1.68252 13.5427 1.70544 13.6427 1.76261 13.7348L1.80012 13.7974C1.85677 13.891 1.93829 13.9507 2.04469 13.9764C2.15108 14.002 2.25084 13.9861 2.34397 13.9286Z" fill="black"/>
<path d="M1.76891 25.4871C1.76895 25.589 1.80497 25.6759 1.87698 25.7479C1.94899 25.8198 2.03591 25.8558 2.13773 25.8558C2.23955 25.8558 2.32647 25.8198 2.39848 25.7479C2.47049 25.6759 2.50651 25.589 2.50655 25.4871C2.50651 25.3853 2.47049 25.2984 2.39848 25.2264C2.32647 25.1544 2.23955 25.1184 2.13773 25.1184C2.03591 25.1184 1.94899 25.1544 1.87698 25.2264C1.80497 25.2984 1.76894 25.3853 1.76891 25.4871ZM1.64388 25.4934C1.64388 25.6194 1.68844 25.727 1.77754 25.8161C1.86665 25.9052 1.97421 25.9497 2.10022 25.9497C2.22624 25.9497 2.3338 25.9052 2.4229 25.8161C2.51201 25.727 2.55656 25.6194 2.55656 25.4934C2.55656 25.3674 2.51201 25.2598 2.4229 25.1707C2.3338 25.0816 2.22624 25.0371 2.10022 25.0371C1.97421 25.0371 1.86665 25.0816 1.77754 25.1707C1.68844 25.2598 1.64388 25.3674 1.64388 25.4934ZM2.61907 25.4246V25.4059C2.60879 25.3078 2.57707 25.2172 2.52392 25.1341C2.47076 25.051 2.4018 24.9843 2.31705 24.9338C2.23229 24.8834 2.14072 24.8546 2.04235 24.8475C1.94398 24.8404 1.84923 24.8558 1.75811 24.8935C1.66699 24.9312 1.58916 24.9874 1.52462 25.062C1.46009 25.1366 1.41569 25.2217 1.39144 25.3173C1.36718 25.4129 1.36563 25.5089 1.3868 25.6052C1.40797 25.7015 1.4496 25.788 1.5117 25.8646C1.5738 25.9412 1.64978 25.9999 1.73964 26.0405C1.8295 26.0812 1.92371 26.0996 2.02226 26.0956C2.12081 26.0917 2.21325 26.0659 2.29959 26.0182C2.38593 25.9705 2.457 25.906 2.5128 25.8247L2.5253 25.8122C2.60431 25.6946 2.63556 25.5654 2.61907 25.4246ZM1.45635 25.8685L1.51261 25.9372C1.55014 25.989 1.5939 26.0349 1.64388 26.0748L1.85643 26.2435C1.86463 26.25 1.87296 26.2562 1.88143 26.2623L2.74409 26.8749C2.76241 26.8861 2.78116 26.8965 2.80035 26.9062L3.42547 27.275C3.47499 27.3038 3.52708 27.3267 3.58175 27.3437L4.39441 27.6063C4.46159 27.6272 4.53035 27.6376 4.6007 27.6375L5.50712 27.6501C5.51129 27.6501 5.51546 27.6501 5.51962 27.6501L6.35728 27.6313L7.03241 27.7438C7.19911 27.7688 7.29496 27.698 7.31997 27.5313C7.34497 27.3646 7.27412 27.2687 7.10742 27.2437L6.45105 27.1375L5.72591 26.7999L4.96327 26.3498C4.94898 26.3409 4.9344 26.3326 4.91951 26.3248L4.18187 25.9497L3.588 25.5997L2.71284 25.0371C2.67539 25.0104 2.6358 24.9875 2.59407 24.9683L2.34402 24.8683C2.25614 24.8309 2.16445 24.8122 2.06897 24.812L1.98145 24.8183C1.71101 24.8183 1.51531 24.9392 1.39437 25.1811C1.27342 25.423 1.29408 25.6521 1.45635 25.8685Z" fill="black"/>
<path d="M1.50636 9.35906C1.50636 9.56743 1.61055 9.67162 1.81892 9.67162C2.0273 9.67162 2.13148 9.56743 2.13148 9.35906C2.13148 9.15068 2.0273 9.0465 1.81892 9.0465C1.61055 9.0465 1.50636 9.15068 1.50636 9.35906ZM1.45635 9.34655C1.45635 9.44322 1.49053 9.52573 1.55889 9.59409C1.62724 9.66244 1.70975 9.69662 1.80642 9.69662C1.90309 9.69662 1.9856 9.66244 2.05395 9.59409C2.12231 9.52573 2.15649 9.44322 2.15649 9.34655C2.15649 9.24989 2.12231 9.16737 2.05395 9.09902C1.9856 9.03066 1.90309 8.99649 1.80642 8.99649C1.70975 8.99649 1.62724 9.03066 1.55889 9.09902C1.49053 9.16737 1.45635 9.24989 1.45635 9.34655ZM2.17524 9.36531L2.18149 9.3278C2.19818 9.19191 2.16067 9.07314 2.06897 8.97148L2.02521 8.92772C1.84508 8.7238 1.6388 8.69254 1.40634 8.83396L1.30633 8.89647C1.22859 8.94487 1.16816 9.00947 1.12504 9.09026L0.981263 9.3403C0.965071 9.37442 0.952569 9.40985 0.943756 9.44657L0.799979 9.90916C0.797468 9.92159 0.795384 9.93409 0.793728 9.94667L0.64995 10.5718C0.649905 10.576 0.649905 10.5801 0.64995 10.5843L0.506173 11.2657C0.505994 11.274 0.505994 11.2823 0.506173 11.2907L0.381149 12.0158C0.381049 12.0221 0.381049 12.0283 0.381149 12.0346L0.287381 12.7159C0.286844 12.7305 0.286844 12.7451 0.287381 12.7597L0.237372 13.4348C0.237273 13.4411 0.237273 13.4473 0.237372 13.4536L0.218618 14.0787C0.216431 14.0849 0.214348 14.0912 0.212367 14.0975V14.6226V15.0101L0.206116 15.2727C0.207332 15.2915 0.209416 15.3103 0.212367 15.3289L0.218618 15.479C0.2238 15.5417 0.238386 15.6021 0.262376 15.6603L0.287381 15.729C0.348281 15.8789 0.452461 15.987 0.599918 16.0535C0.747376 16.12 0.897412 16.1264 1.05003 16.0728L1.10004 16.0541C1.20109 16.0186 1.28652 15.9603 1.35633 15.879L1.41885 15.804C1.46151 15.7533 1.49485 15.697 1.51887 15.6353L1.57513 15.4915C1.58212 15.4751 1.58837 15.4584 1.59388 15.4415L1.66264 15.2164C1.66265 15.2143 1.66265 15.2123 1.66264 15.2102L1.75016 14.9039C1.75017 14.9018 1.75017 14.8997 1.75016 14.8976L1.85643 14.5038L2.03146 14.0287L2.29401 13.4598L2.65658 12.8035L3.08791 12.1033C3.09 12.1033 3.09208 12.1033 3.09417 12.1033L3.50049 11.4219L3.89432 10.8781L4.31315 10.5468C4.4339 10.4509 4.44637 10.3426 4.35057 10.2218C4.25476 10.101 4.14644 10.0885 4.02559 10.1842L3.59426 10.5343L2.99415 10.8906C2.97881 10.9 2.96423 10.9104 2.95039 10.9219L2.32527 11.4345C2.30045 11.4532 2.27753 11.474 2.25651 11.497L1.7189 12.1346C1.69536 12.1618 1.67452 12.191 1.65639 12.2221L1.26257 12.9035C1.25361 12.9177 1.24527 12.9323 1.23756 12.9472L0.950007 13.5536C0.943171 13.5679 0.93692 13.5825 0.931254 13.5974L0.737467 14.1162C0.732883 14.1286 0.728716 14.1411 0.724964 14.1537L0.599941 14.5725L0.512424 14.8726L0.449912 15.0726L0.43741 15.1102V15.1164C0.588249 15.0905 0.711189 15.0176 0.80623 14.8976L0.75622 14.9101C0.803225 15.0503 0.889928 15.1588 1.01633 15.2356C1.14273 15.3124 1.27899 15.3394 1.4251 15.3164L1.40009 15.2414C1.40059 15.3056 1.41101 15.3681 1.43135 15.429V15.2789C1.43136 15.2768 1.43136 15.2748 1.43135 15.2727L1.41885 15.0039C1.41886 15.0018 1.41886 14.9997 1.41885 14.9976L1.4126 14.6163V14.1037L1.4251 13.4973L1.4626 12.8535L1.54387 12.1846L1.65014 11.4782L1.76891 10.8031L1.88769 10.1905L1.9877 9.74663L2.05022 9.54659L2.07522 9.50283C1.92838 9.52637 1.81586 9.60138 1.73766 9.72788L1.80017 9.71537C1.81486 9.71401 1.82944 9.71192 1.84393 9.70912L1.88143 9.69662C2.05445 9.65276 2.15238 9.54232 2.17524 9.36531Z" fill="black"/>
<path d="M1.36257 12.8472L1.37507 12.8347C1.37723 12.8305 1.37932 12.8264 1.38132 12.8222L1.41883 12.7847C1.44471 12.7522 1.46554 12.7168 1.48134 12.6784L1.54385 12.5284C1.54386 12.5263 1.54386 12.5242 1.54385 12.5221L1.65012 12.2533L1.83141 11.8532L2.08771 11.3219L2.47528 10.653L3.01288 9.89036L3.71301 9.0402L4.53192 8.14628L5.44459 7.25236L6.45729 6.37719L7.57 5.54579L8.77648 4.78314L10.0705 4.12677L11.402 3.58291L12.721 3.18909L14.0462 2.93279L15.3652 2.77026L16.6155 2.72025L17.7157 2.83902L17.9345 2.90153C18.1816 2.95057 18.4124 2.90898 18.6269 2.77679C18.8414 2.64459 18.9823 2.45708 19.0496 2.21427C19.1168 1.97145 19.0925 1.73818 18.9766 1.51446C18.8607 1.29073 18.6842 1.13631 18.4471 1.05118L18.1533 0.969915C18.1 0.954822 18.0458 0.944403 17.9907 0.938659L16.7405 0.813636C16.6947 0.810331 16.6488 0.810331 16.603 0.813636L15.2465 0.869896C15.2172 0.870632 15.188 0.872716 15.1589 0.876147L13.7649 1.06993C13.7398 1.07309 13.7148 1.07726 13.6899 1.08244L12.3021 1.395C12.2747 1.40208 12.2476 1.41041 12.2209 1.42L10.8269 1.86384C10.8015 1.87108 10.7765 1.87941 10.7519 1.88884L9.34534 2.4827C9.32419 2.49026 9.30335 2.49859 9.28283 2.50771L7.92007 3.21409C7.89872 3.22574 7.87788 3.23825 7.85755 3.2516L6.58856 4.05175C6.56933 4.06354 6.55058 4.07605 6.5323 4.08926L5.36333 4.95192C5.344 4.96577 5.32524 4.98035 5.30707 4.99568L4.24437 5.90836C4.22716 5.92233 4.21049 5.93691 4.19436 5.95211L3.25668 6.90229C3.23709 6.92021 3.21834 6.93897 3.20042 6.95855L2.40026 7.93374C2.38715 7.94995 2.37465 7.96662 2.36276 7.98375L1.70013 8.92768C1.68911 8.94397 1.67869 8.96064 1.66888 8.97769L1.15003 9.8341C1.13636 9.85639 1.12386 9.87931 1.11252 9.90287L0.762453 10.6593C0.744813 10.6956 0.730227 10.7331 0.718695 10.7718L0.543661 11.3781C0.53276 11.4234 0.526509 11.4692 0.524908 11.5157L0.487401 11.972C0.485312 12.0225 0.489479 12.0726 0.499903 12.122L0.549912 12.4221C0.560841 12.482 0.581679 12.5383 0.612424 12.5909L0.699941 12.7347C0.75442 12.8251 0.831518 12.8876 0.931235 12.9222L0.981245 12.9409C1.02789 12.957 1.07582 12.9632 1.12502 12.9597H1.13752C1.22828 12.9537 1.3033 12.9162 1.36257 12.8472Z" fill="black"/>
<path d="M18.2095 32.1634L17.5094 32.4697L16.1841 32.9073L14.8276 33.2011L13.4711 33.3324L12.1208 33.2886L10.7893 33.0823L9.50784 32.7698L8.35137 32.3947L7.36994 31.9509L6.54478 31.4383L5.80714 30.8507L5.13826 30.2005L4.5569 29.5379L4.13182 28.9065L3.83176 28.2939L3.63798 27.6938L3.48795 27.1125L3.36918 26.6061C3.36549 26.5872 3.36133 26.5685 3.35667 26.5498L3.2379 26.1435C3.21658 26.0674 3.18741 25.9945 3.15038 25.9247L2.9941 25.6372C2.81424 25.3075 2.5371 25.1283 2.1627 25.0996L2.05643 25.0933C1.83609 25.0735 1.64231 25.136 1.47507 25.2809L1.3938 25.3559C1.12646 25.5926 1.01186 25.8885 1.04998 26.2435L1.08749 26.5686C1.09134 26.6106 1.0976 26.6523 1.10624 26.6936L1.20001 27.1062L1.31879 27.6251C1.31873 27.6313 1.31873 27.6376 1.31879 27.6438L1.46881 28.2689C1.47626 28.2942 1.4846 28.3192 1.49382 28.3439L1.71886 29.0503C1.73432 29.0995 1.75307 29.1475 1.77512 29.1941L2.13144 29.9505C2.15674 30.0028 2.18591 30.0528 2.21896 30.1005L2.73155 30.8569C2.75835 30.8963 2.78752 30.9338 2.81907 30.9694L3.47545 31.7196C3.49546 31.7412 3.5163 31.7621 3.53796 31.7821L4.28185 32.501C4.30771 32.5273 4.3348 32.5523 4.36311 32.576L5.19452 33.2386C5.22473 33.261 5.25599 33.2819 5.28829 33.3011L6.21972 33.9012C6.26364 33.9316 6.30949 33.9587 6.35724 33.9825L7.46371 34.4889C7.50847 34.5085 7.55431 34.5252 7.60123 34.5389L8.86397 34.9327C8.88662 34.9418 8.90954 34.9501 8.93273 34.9577L10.3017 35.289C10.3369 35.297 10.3723 35.3032 10.408 35.3078L11.852 35.5203C11.8935 35.5268 11.9352 35.531 11.9771 35.5328L13.4648 35.5828C13.5129 35.5838 13.5608 35.5817 13.6086 35.5766L15.1089 35.4328C15.1553 35.4273 15.2011 35.419 15.2464 35.4078L16.7217 35.0827C16.7598 35.0743 16.7973 35.0638 16.8342 35.0515L18.2658 34.5701C18.2976 34.559 18.3288 34.5465 18.3595 34.5326L19.1097 34.2013C19.3613 34.0603 19.5327 33.8529 19.624 33.5793C19.7153 33.3057 19.7027 33.037 19.5861 32.7731C19.4696 32.5092 19.2794 32.3189 19.0157 32.2021C18.7519 32.0853 18.4832 32.0724 18.2095 32.1634ZM2.1877 25.5747L2.13769 25.4184C2.07931 25.2393 1.96054 25.1789 1.7814 25.2372C1.60226 25.2955 1.54183 25.4143 1.60009 25.5934L1.6501 25.7497C1.70844 25.9289 1.82722 25.9893 2.00642 25.931C2.18562 25.8726 2.24605 25.7539 2.1877 25.5747Z" fill="black"/>
<path d="M16.7092 34.582C16.7092 34.689 16.747 34.7804 16.8227 34.8561C16.8984 34.9317 16.9897 34.9696 17.0968 34.9696C17.2038 34.9696 17.2951 34.9317 17.3708 34.8561C17.4465 34.7804 17.4843 34.689 17.4843 34.582C17.4843 34.475 17.4465 34.3836 17.3708 34.308C17.2951 34.2323 17.2038 34.1944 17.0968 34.1944C16.9897 34.1944 16.8984 34.2323 16.8227 34.308C16.747 34.3836 16.7092 34.475 16.7092 34.582ZM16.6342 34.5883C16.6342 34.7177 16.68 34.8282 16.7715 34.9198C16.863 35.0113 16.9735 35.0571 17.103 35.0571C17.2325 35.0571 17.343 35.0113 17.4345 34.9198C17.5261 34.8282 17.5719 34.7177 17.5719 34.5883C17.5719 34.4588 17.5261 34.3483 17.4345 34.2567C17.343 34.1652 17.2325 34.1194 17.103 34.1194C16.9735 34.1194 16.863 34.1652 16.7715 34.2567C16.68 34.3483 16.6342 34.4588 16.6342 34.5883ZM16.5967 34.5945C16.5967 34.7395 16.6479 34.8633 16.7505 34.9658C16.853 35.0683 16.9768 35.1196 17.1218 35.1196C17.2668 35.1196 17.3905 35.0683 17.4931 34.9658C17.5956 34.8633 17.6469 34.7395 17.6469 34.5945C17.6469 34.4495 17.5956 34.3257 17.4931 34.2232C17.3905 34.1207 17.2668 34.0694 17.1218 34.0694C16.9768 34.0694 16.853 34.1207 16.7505 34.2232C16.6479 34.3257 16.5967 34.4495 16.5967 34.5945ZM17.0405 35.1571L17.1343 35.1759C17.1815 35.1878 17.2294 35.194 17.278 35.1946L17.4343 35.1884L17.6719 35.1946C17.6844 35.195 17.6969 35.195 17.7094 35.1946L18.0219 35.1821C18.0429 35.181 18.0637 35.1789 18.0845 35.1759L18.5158 35.1259C18.5496 35.1219 18.5829 35.1156 18.6158 35.1071L19.1847 34.9508C19.2122 34.944 19.2393 34.9357 19.2659 34.9258L19.9598 34.6508C19.9724 34.6469 19.9849 34.6428 19.9973 34.6383L20.8037 34.2695C20.8185 34.2637 20.8331 34.2574 20.8475 34.2507L21.7289 33.7819C21.7395 33.7759 21.7499 33.7696 21.7602 33.7631L22.6603 33.2318C22.6688 33.2257 22.6771 33.2194 22.6853 33.213L23.5918 32.6254C23.6023 32.6194 23.6127 32.6131 23.623 32.6066L24.5294 31.9503C24.5358 31.9441 24.542 31.9379 24.5482 31.9315L25.4609 31.2189C25.4758 31.209 25.4904 31.1985 25.5046 31.1876L26.3923 30.3812C26.4096 30.3673 26.4262 30.3528 26.4423 30.3375L27.2987 29.4185C27.3212 29.3949 27.342 29.3699 27.3612 29.3435L28.0926 28.3058C28.1266 28.2595 28.1537 28.2095 28.1739 28.1558L28.5489 27.0931L29.0865 26.2992C29.1866 26.1492 29.1616 26.0241 29.0115 25.9241C28.8615 25.8241 28.7365 25.8491 28.6365 25.9991L28.1051 26.7743L27.2112 27.4369C27.1869 27.454 27.164 27.4728 27.1424 27.4932L26.236 28.3746L25.3483 29.231L24.4794 29.9936L23.5918 30.6875L22.7166 31.3251L21.8414 31.894L20.9725 32.4191L20.1348 32.8692L19.3722 33.2193L18.7096 33.4881L18.1845 33.6756L17.8031 33.7944L17.5281 33.8631L17.2968 33.9131C17.2692 33.9197 17.2421 33.928 17.2155 33.9381L17.053 33.9944C17.0065 34.012 16.9627 34.035 16.9217 34.0632L16.8467 34.1132C16.6326 34.2529 16.5489 34.4484 16.5956 34.6998C16.6422 34.9511 16.7906 35.1035 17.0405 35.1571Z" fill="black"/>
<path d="M16.6279 2.50717C16.6279 2.62455 16.6695 2.72474 16.7525 2.80775C16.8355 2.89075 16.9356 2.93225 17.053 2.93225C17.1704 2.93225 17.2706 2.89075 17.3536 2.80775C17.4366 2.72474 17.4781 2.62455 17.4781 2.50717C17.4781 2.38978 17.4366 2.28959 17.3536 2.20659C17.2706 2.12359 17.1704 2.08209 17.053 2.08209C16.9356 2.08209 16.8355 2.12359 16.7525 2.20659C16.6695 2.28959 16.6279 2.38978 16.6279 2.50717ZM16.6029 2.97601L16.6342 3.00101C16.662 3.02009 16.6912 3.03676 16.7217 3.05102L16.803 3.08853C16.8051 3.09063 16.8071 3.09271 16.8092 3.09478L16.928 3.15104C16.9464 3.16017 16.9652 3.16851 16.9843 3.17604L17.1718 3.24481C17.2085 3.25797 17.2461 3.26839 17.2843 3.27606L17.5594 3.33857C17.5821 3.34368 17.605 3.34785 17.6281 3.35108L17.9532 3.38858L18.2783 3.43859L18.6533 3.51986L19.1097 3.63238C19.1138 3.63238 19.118 3.63238 19.1222 3.63238L19.666 3.75115C19.666 3.75324 19.666 3.75532 19.666 3.7574L20.2474 3.88243L20.86 4.01995L21.4476 4.16998L22.004 4.35752L22.5603 4.57006L23.0979 4.83886L23.6918 5.17017L24.3169 5.55775L24.9483 6.02659L25.5672 6.55169L26.1235 7.14555L26.6236 7.80817L27.0612 8.58332L27.48 9.521L27.8988 10.5587L28.3302 11.6214L28.724 12.6528L29.0553 13.6468L29.3054 14.6407L29.4554 15.6409L29.4804 16.6849L29.3866 17.8101L29.1991 18.9916L28.949 20.1918L28.4052 22.561L28.1551 23.6674L27.9051 24.6801L27.605 25.5991L27.2487 26.443L26.7861 27.2056L26.186 27.9683L25.4546 28.7434L24.6732 29.5123L23.8543 30.2687L22.9917 31.0126C22.9853 31.0188 22.9791 31.025 22.9729 31.0313L22.1227 31.8002C22.0936 31.8275 22.0665 31.8567 22.0415 31.8878L21.3538 32.7067C21.3496 32.7128 21.3454 32.7191 21.3413 32.7254L20.81 33.4318L20.2161 33.8131C20.1201 33.9077 20.1082 34.0118 20.1806 34.1256C20.253 34.2393 20.3523 34.2727 20.4787 34.2257L21.0788 33.8444L21.9352 33.6193C21.9522 33.6139 21.9688 33.6076 21.9852 33.6006L22.9917 33.2318C23.0417 33.2133 23.0897 33.1904 23.1354 33.163L24.1231 32.5754C24.1512 32.558 24.1783 32.5393 24.2044 32.5191L25.1296 31.819C25.1423 31.8089 25.1548 31.7985 25.1671 31.7877L26.0485 31.0501C26.0591 31.042 26.0695 31.0336 26.0797 31.0251L26.9174 30.2562C26.9367 30.2422 26.9554 30.2277 26.9737 30.2124L27.7488 29.3935C27.7729 29.3696 27.7959 29.3446 27.8176 29.3185L28.4927 28.4684C28.5225 28.4306 28.5496 28.391 28.574 28.3496L29.0991 27.4557C29.1227 27.4154 29.1435 27.3737 29.1616 27.3306L29.5679 26.3805C29.5796 26.3517 29.59 26.3226 29.5992 26.2929L29.918 25.2928C29.9271 25.2701 29.9354 25.2472 29.943 25.224L30.2055 24.1675C30.2077 24.1613 30.2098 24.1551 30.2118 24.1488L30.4681 23.0361L31.0182 20.6544C31.0203 20.6481 31.0224 20.6419 31.0244 20.6356L31.2807 19.4041C31.2853 19.3876 31.2895 19.3709 31.2932 19.3541L31.4933 18.1039C31.4964 18.0769 31.4985 18.0498 31.4995 18.0226L31.5995 16.8036C31.6034 16.7683 31.6055 16.7329 31.6058 16.6974L31.5808 15.5284C31.5796 15.4823 31.5754 15.4364 31.5683 15.3909L31.4058 14.2782C31.399 14.2444 31.3907 14.2111 31.3808 14.1781L31.112 13.0967C31.1066 13.0714 31.1004 13.0464 31.0932 13.0217L30.7431 11.959C30.7374 11.94 30.7312 11.9213 30.7244 11.9027L30.3118 10.84C30.3097 10.8358 30.3077 10.8317 30.3056 10.8275L29.8742 9.75855L29.4491 8.7021C29.4432 8.68737 29.437 8.67278 29.4304 8.65834L28.9803 7.6644C28.9671 7.63455 28.9525 7.60538 28.9365 7.57688L28.4364 6.70171C28.4138 6.66261 28.3888 6.62511 28.3614 6.58919L27.7863 5.8203C27.7611 5.78746 27.734 5.7562 27.7051 5.72653L27.0674 5.0514C27.0417 5.02498 27.0146 4.99998 26.9862 4.97639L26.2985 4.38877C26.2764 4.36906 26.2535 4.35031 26.2298 4.33251L25.5296 3.82617C25.5093 3.81083 25.4885 3.79624 25.4671 3.78241L24.7795 3.35733C24.7651 3.34864 24.7505 3.34031 24.7357 3.33232L24.1044 2.98226C24.0818 2.97102 24.0589 2.9606 24.0356 2.951L23.4167 2.66345C23.384 2.64923 23.3507 2.63673 23.3167 2.62594L22.6854 2.4134C22.6688 2.40671 22.6522 2.40046 22.6353 2.39464L22.0102 2.21961C21.9896 2.21269 21.9688 2.20644 21.9477 2.20086L21.2976 2.06333C21.2914 2.06118 21.2851 2.0591 21.2788 2.05708L20.6475 1.93831L20.0599 1.83204C20.0536 1.82989 20.0474 1.82781 20.0411 1.82579L19.4972 1.73202C19.4952 1.73202 19.4931 1.73202 19.491 1.73202L19.0159 1.657C18.9911 1.65184 18.9661 1.64767 18.9409 1.6445L18.5221 1.61325C18.493 1.60978 18.4638 1.60769 18.4345 1.60699L18.0657 1.61325C18.0427 1.61444 18.0198 1.61653 17.997 1.6195L17.6594 1.65075C17.6385 1.65207 17.6176 1.65416 17.5969 1.657L17.3156 1.70701C17.2665 1.71505 17.2186 1.72755 17.1718 1.74452L16.9843 1.81328C16.9652 1.82082 16.9464 1.82916 16.928 1.83829L16.8092 1.89455C16.7811 1.90724 16.754 1.92183 16.728 1.93831L16.6592 1.98832C16.6074 2.02103 16.5616 2.06062 16.5217 2.10709L16.4967 2.13835C16.3889 2.26676 16.3456 2.41411 16.3667 2.58041C16.3878 2.7467 16.4665 2.87857 16.6029 2.97601Z" fill="black"/>
<path d="M17.122 34.3194C17.122 34.4195 17.1574 34.505 17.2282 34.5758C17.299 34.6466 17.3844 34.682 17.4845 34.682C17.5847 34.682 17.6701 34.6466 17.7409 34.5758C17.8117 34.505 17.8471 34.4195 17.8471 34.3194C17.8471 34.2193 17.8117 34.1338 17.7409 34.063C17.6701 33.9922 17.5847 33.9568 17.4845 33.9568C17.3844 33.9568 17.299 33.9922 17.2282 34.063C17.1574 34.1338 17.122 34.2193 17.122 34.3194ZM17.5221 34.7007L17.5783 34.6945C17.5993 34.6941 17.6202 34.692 17.6408 34.6882L17.7909 34.6507C17.8014 34.647 17.8119 34.6428 17.8221 34.6382L18.0847 34.5507L18.4535 34.4319C18.4556 34.4319 18.4576 34.4319 18.4597 34.4319L18.9536 34.2694C18.9577 34.2695 18.9619 34.2695 18.9661 34.2694L19.5849 34.0444C19.5934 34.0404 19.6017 34.0363 19.6099 34.0319L20.3351 33.7256C20.3414 33.7236 20.3476 33.7215 20.3538 33.7193L21.179 33.3317C21.1896 33.3279 21.2 33.3238 21.2103 33.3192L22.0542 32.8504C22.0605 32.8464 22.0668 32.8422 22.0729 32.8379L22.8668 32.3503C22.8777 32.3425 22.8881 32.3342 22.8981 32.3253L23.5107 31.8564L24.0108 31.5626C24.1336 31.4688 24.1561 31.3552 24.0782 31.2217C24.0004 31.0882 23.8904 31.0518 23.7482 31.1126L23.2544 31.4001L22.5355 31.6689C22.5249 31.6726 22.5145 31.6768 22.5042 31.6814L21.6666 32.0877L20.7914 32.4941L19.9725 32.8629L19.2536 33.1504L18.641 33.3755C18.6368 33.3754 18.6327 33.3754 18.6285 33.3755L18.1472 33.563C18.1387 33.5669 18.1304 33.5711 18.1222 33.5755L17.7596 33.7443C17.7511 33.7482 17.7428 33.7524 17.7346 33.7568L17.4908 33.8943L17.3845 33.9506L17.3595 33.9631C17.1521 34.0401 17.0722 34.1866 17.1198 34.4026C17.1674 34.6187 17.3015 34.718 17.5221 34.7007Z" fill="black"/>
<path d="M16.7594 35.3696C16.7594 35.468 16.7942 35.552 16.8638 35.6216C16.9333 35.6912 17.0173 35.726 17.1157 35.726C17.2141 35.726 17.2981 35.6912 17.3677 35.6216C17.4372 35.552 17.472 35.468 17.472 35.3696C17.472 35.2712 17.4372 35.1873 17.3677 35.1177C17.2981 35.0481 17.2141 35.0133 17.1157 35.0133C17.0173 35.0133 16.9333 35.0481 16.8638 35.1177C16.7942 35.1873 16.7594 35.2712 16.7594 35.3696ZM17.172 35.7635L17.2907 35.751C17.3161 35.749 17.3411 35.7448 17.3658 35.7385L17.6096 35.6822C17.6374 35.6762 17.6645 35.6679 17.6908 35.6572L18.0971 35.4759C18.1077 35.4721 18.1181 35.4679 18.1284 35.4634L18.7223 35.1633L19.5037 34.757C19.5079 34.755 19.512 34.7529 19.5162 34.7508L20.4476 34.2382C20.4518 34.2361 20.456 34.2341 20.4601 34.2319L21.404 33.6756C21.4082 33.6735 21.4124 33.6715 21.4165 33.6693L22.2917 33.113L23.0606 32.6316C23.067 32.6276 23.0732 32.6235 23.0793 32.6191L24.1358 31.8627C24.2817 31.7794 24.3129 31.6648 24.2296 31.5189C24.1462 31.373 24.0316 31.3418 23.8857 31.4251L22.698 31.944C22.6916 31.948 22.6854 31.9521 22.6793 31.9565L21.8666 32.3691L20.9414 32.8379C20.9394 32.8379 20.9373 32.8379 20.9352 32.8379L19.9662 33.3568L19.0348 33.8568L18.2597 34.2507C18.2576 34.2527 18.2555 34.2548 18.2534 34.2569L17.6596 34.5632C17.6595 34.5653 17.6595 34.5674 17.6596 34.5695L17.2657 34.7758C17.2506 34.7854 17.236 34.7958 17.222 34.807L17.0094 34.9508C16.9895 34.9639 16.9707 34.9784 16.9532 34.9946L16.8719 35.0758C16.7382 35.2045 16.7085 35.3539 16.7827 35.524C16.8569 35.6941 16.9867 35.7739 17.172 35.7635Z" fill="black"/>
<path d="M18.2785 34.6695L18.3848 34.632C18.389 34.63 18.3931 34.6279 18.3973 34.6258L18.6723 34.5195C18.6872 34.514 18.7018 34.5078 18.7161 34.5008L19.1849 34.2695C19.1892 34.2654 19.1933 34.2612 19.1974 34.257L19.8475 33.9069L20.6227 33.4818L21.5104 33.0067C21.5167 33.0027 21.523 32.9985 21.5291 32.9942L22.4668 32.4191C22.4753 32.4152 22.4836 32.4111 22.4918 32.4066L23.3857 31.7627L24.1984 31.3189C24.3482 31.2355 24.3815 31.1188 24.2982 30.9689C24.2149 30.819 24.0983 30.7856 23.9483 30.8688L23.1419 31.3189L22.1167 31.7127C22.1125 31.7147 22.1083 31.7168 22.1042 31.719L21.0978 32.1566C21.0872 32.1604 21.0768 32.1645 21.0665 32.1691L20.1726 32.6254C20.1684 32.6274 20.1642 32.6295 20.1601 32.6316L19.385 33.0567C19.3808 33.0587 19.3766 33.0608 19.3724 33.063L18.7348 33.438C18.7285 33.4421 18.7222 33.4462 18.7161 33.4506L18.2722 33.7381C18.2614 33.746 18.251 33.7543 18.241 33.7631L18.0034 33.9444C17.9946 33.9544 17.9862 33.9648 17.9784 33.9757L17.8909 34.0569C17.7417 34.1959 17.7216 34.3516 17.8306 34.524C17.9397 34.6963 18.089 34.7448 18.2785 34.6695Z" fill="black"/>
</g>
<defs>
<clipPath id="clip0_1_7279">
<rect width="32" height="36" fill="white"/>
</clipPath>
</defs>
</svg>
