<svg width="41" height="44" viewBox="0 0 41 44" fill="none" xmlns="http://www.w3.org/2000/svg">
<g clip-path="url(#clip0_1_7193)">
<path d="M20.9502 2.72513L20.821 2.64354C20.8121 2.63873 20.803 2.6342 20.7938 2.62994L20.4811 2.45996C20.459 2.44947 20.4363 2.44041 20.4131 2.43276L19.8487 2.21519C19.8221 2.20441 19.7949 2.19535 19.7671 2.18799L18.9648 1.98401C18.9201 1.97332 18.8748 1.96652 18.8289 1.96362L17.7682 1.88202C17.7274 1.87922 17.6866 1.87922 17.6458 1.88202L16.4015 1.95682C16.3604 1.95872 16.3196 1.96326 16.2791 1.97041L14.8785 2.23558C14.8276 2.24528 14.7777 2.25888 14.7289 2.27638L13.2399 2.79992C13.1907 2.81668 13.1431 2.83708 13.0971 2.86111L11.4925 3.72461C11.4474 3.74864 11.4044 3.77584 11.3633 3.80621L9.6295 5.07766C9.5913 5.10474 9.55504 5.1342 9.52071 5.16605L7.71892 6.89985C7.69028 6.92561 7.66308 6.9528 7.63733 6.98144L5.84913 9.0892C5.82497 9.11752 5.80231 9.14698 5.78114 9.17759L4.11533 11.6049C4.09033 11.6421 4.06766 11.6806 4.04734 11.7205L2.66709 14.3722C2.64393 14.414 2.62353 14.457 2.6059 14.5014L1.58602 17.2687C1.57554 17.3 1.56648 17.3317 1.55882 17.3639L0.892495 19.8184C0.876746 19.8742 0.865414 19.9308 0.858499 19.9884L0.579731 22.5789C0.571893 22.6559 0.571893 22.733 0.579731 22.81L0.838101 25.6113C0.844723 25.6852 0.858322 25.7577 0.878897 25.8289L1.7492 28.7798C1.76818 28.8477 1.79311 28.9135 1.82399 28.9769L3.31982 31.9686C3.34874 32.0304 3.38274 32.0894 3.42181 32.1454L5.50917 34.9943C5.54595 35.0474 5.58674 35.0973 5.63156 35.1438L8.20846 37.6935C8.24874 37.7352 8.2918 37.7737 8.33765 37.8091L11.2273 39.9577C11.279 39.9961 11.3334 40.0301 11.3905 40.0597L14.4977 41.6779C14.5525 41.7072 14.6091 41.7322 14.6677 41.7527L17.843 42.8066C17.9094 42.8307 17.9773 42.8488 18.0469 42.861L21.1678 43.3233C21.2399 43.3344 21.3124 43.339 21.3854 43.3369L24.343 43.2349C24.4187 43.2329 24.4935 43.2238 24.5674 43.2077L27.3619 42.5754C27.4296 42.5584 27.4953 42.5357 27.5591 42.5074L30.1428 41.4263C30.1992 41.4032 30.2536 41.376 30.3059 41.3447L32.6449 39.9237C32.6924 39.8951 32.7377 39.8633 32.7809 39.8285L34.841 38.1423C34.892 38.103 34.9396 38.0599 34.9838 38.0131L36.7244 36.0753C36.7724 36.0224 36.8155 35.9658 36.8536 35.9053L38.2542 33.6752C38.2972 33.6084 38.3335 33.5381 38.363 33.4644L39.3829 30.8739C39.4051 30.8185 39.4232 30.7619 39.4373 30.7039L40.124 27.7939C40.1356 27.749 40.1446 27.7037 40.1512 27.6579L40.5388 24.503C40.544 24.4533 40.5463 24.4035 40.5456 24.3535L40.566 21.0286C40.5644 20.9785 40.5598 20.9287 40.5524 20.8791L40.158 17.3503C40.1502 17.2951 40.1389 17.2407 40.124 17.1871L39.2401 13.5631C39.2231 13.4932 39.2004 13.4252 39.1721 13.3591L37.6695 9.87791C37.6342 9.79653 37.5911 9.71948 37.5403 9.64674L35.3986 6.56669C35.3399 6.4794 35.2719 6.40007 35.1946 6.32872L32.4613 3.8946C32.3839 3.82842 32.3 3.77176 32.2097 3.72461L29.0549 1.98401C28.9788 1.94239 28.8995 1.9084 28.8169 1.88202L25.4105 0.794149C25.346 0.773343 25.2802 0.757479 25.2133 0.746554L21.8069 0.189018C21.7259 0.174782 21.6443 0.167983 21.5621 0.16862L18.3665 0.229813C18.2092 0.231093 18.0573 0.260556 17.911 0.318203L15.2797 1.37208C15.2468 1.38575 15.2151 1.40161 15.1845 1.41968L13.1651 2.58234L11.6761 3.43225C11.4843 3.58372 11.4501 3.76494 11.5735 3.97591C11.6968 4.18688 11.8716 4.2459 12.0976 4.15297L13.5323 3.33706L15.6604 2.85431L18.3869 2.77952L21.4602 2.87471L24.683 3.39825L27.865 4.41134L30.7819 6.00915L33.2908 8.2393L35.2966 11.061L36.7312 14.3042L37.6015 17.731L37.9959 21.0966L38.0027 24.2719L37.6423 27.2839L37.01 30.0444L36.0785 32.4581L34.8206 34.5183L33.2228 36.3133L31.3054 37.8907L29.1229 39.2302L26.716 40.2365L24.1458 40.828L21.4126 40.93L18.5025 40.5016L15.5176 39.5089L12.5804 37.9791L9.84028 35.9325L7.39255 33.4984L5.40038 30.8059L3.95895 28.0114L3.12264 25.2714L2.86427 22.6945L3.06825 20.3079L3.69378 17.9962L4.67286 15.3377L5.99191 12.8016L7.56933 10.4626L9.26914 8.41608L10.9689 6.75027L12.56 5.51281L14.0218 4.6901L15.368 4.16656L16.6463 3.847L17.809 3.65662L18.8153 3.56823L19.604 3.54104L20.1751 3.56143L20.5219 3.58183L20.6714 3.59543C20.9189 3.61559 21.0806 3.50742 21.1563 3.27094C21.2321 3.03446 21.1634 2.85252 20.9502 2.72513Z" fill="black"/>
<path d="M16.7331 15.7506C16.7331 15.9673 16.8415 16.0757 17.0582 16.0757C17.2749 16.0757 17.3832 15.9673 17.3832 15.7506C17.3832 15.5339 17.2749 15.4256 17.0582 15.4256C16.8415 15.4256 16.7331 15.5339 16.7331 15.7506ZM16.6206 15.7506C16.6206 15.8611 16.6596 15.9554 16.7378 16.0335C16.8159 16.1117 16.9102 16.1507 17.0207 16.1507C17.1311 16.1507 17.2254 16.1117 17.3036 16.0335C17.3817 15.9554 17.4207 15.8611 17.4207 15.7506C17.4207 15.6402 17.3817 15.5459 17.3036 15.4677C17.2254 15.3896 17.1311 15.3506 17.0207 15.3506C16.9102 15.3506 16.8159 15.3896 16.7378 15.4677C16.6596 15.5459 16.6206 15.6402 16.6206 15.7506ZM16.3643 15.7256C16.3643 15.8844 16.4205 16.0199 16.5328 16.1322C16.6451 16.2444 16.7806 16.3005 16.9394 16.3005C17.0982 16.3005 17.2337 16.2444 17.346 16.1322C17.4583 16.0199 17.5145 15.8844 17.5145 15.7256C17.5145 15.5669 17.4583 15.4313 17.346 15.3191C17.2337 15.2068 17.0982 15.1507 16.9394 15.1507C16.7806 15.1507 16.6451 15.2068 16.5328 15.3191C16.4205 15.4313 16.3643 15.5669 16.3643 15.7256ZM17.5458 15.4443L17.5208 15.3693C17.4349 15.1196 17.2682 14.9488 17.0207 14.8567L16.9769 14.838C16.8425 14.7865 16.7036 14.7676 16.5603 14.7813C16.417 14.7951 16.2843 14.84 16.1621 14.9161C16.0399 14.9923 15.9411 15.0916 15.8656 15.2142C15.7901 15.3368 15.7459 15.4697 15.7329 15.6131L15.7079 15.9069C15.6945 16.0339 15.705 16.1589 15.7392 16.282L15.9392 16.9759C15.951 17.0206 15.9656 17.0643 15.983 17.1071L16.4581 18.2136C16.4676 18.239 16.478 18.264 16.4893 18.2886L17.2582 19.7577C17.2662 19.7724 17.2746 19.787 17.2832 19.8014L18.2521 21.4705C18.2582 21.4831 18.2644 21.4956 18.2709 21.508L19.3461 23.2083C19.3543 23.2189 19.3626 23.2293 19.3711 23.2396L20.4401 24.8149C20.4421 24.817 20.4442 24.819 20.4463 24.8211L21.3965 26.1901C21.4006 26.1964 21.4048 26.2027 21.409 26.2089L22.2029 27.2841C22.209 27.2946 22.2152 27.305 22.2217 27.3153L22.828 28.0842C22.8551 28.1175 22.8843 28.1487 22.9155 28.178L23.3656 28.6093C23.4966 28.735 23.6523 28.8072 23.8328 28.8261C24.0132 28.845 24.1805 28.8065 24.3346 28.7107C24.4887 28.6148 24.5972 28.4818 24.6601 28.3115C24.7229 28.1413 24.7269 27.9697 24.6721 27.7967L24.4908 27.2028C24.4754 27.1577 24.4566 27.1139 24.4346 27.0715L24.0032 26.1901C23.988 26.1602 23.9713 26.131 23.9532 26.1026L23.2593 24.9711C23.2513 24.9585 23.2429 24.946 23.2343 24.9336L22.3092 23.5521L21.259 21.9831L20.2025 20.314L19.2586 18.6762L18.4834 17.2447L17.9396 16.1882C17.9375 16.1861 17.9354 16.184 17.9333 16.182L17.602 15.5506L17.477 15.2943C17.4926 15.3794 17.5197 15.4607 17.5583 15.5381L17.5458 15.4881C17.3814 15.5719 17.2582 15.6965 17.1762 15.8617C17.0941 16.027 17.0694 16.2004 17.1019 16.382L17.1707 16.3508C17.337 16.2671 17.4557 16.1393 17.5269 15.9673C17.5981 15.7953 17.6044 15.621 17.5458 15.4443ZM23.7469 28.2468C23.7469 28.3503 23.7836 28.4387 23.8568 28.512C23.93 28.5852 24.0184 28.6218 24.122 28.6218C24.2256 28.6218 24.314 28.5852 24.3872 28.512C24.4605 28.4387 24.4971 28.3503 24.4971 28.2468C24.4971 28.1432 24.4605 28.0548 24.3872 27.9816C24.314 27.9083 24.2256 27.8717 24.122 27.8717C24.0184 27.8717 23.93 27.9083 23.8568 27.9816C23.7836 28.0548 23.7469 28.1432 23.7469 28.2468ZM24.4533 28.2655L24.4908 28.1217C24.5283 27.9717 24.4721 27.8779 24.3221 27.8404C24.172 27.8029 24.0783 27.8592 24.0407 28.0092L24.0032 28.153C23.9659 28.3029 24.0222 28.3966 24.1721 28.4341C24.322 28.4716 24.4157 28.4154 24.4533 28.2655Z" fill="black"/>
<path d="M25.9162 15.4568C25.9162 15.5552 25.951 15.6392 26.0205 15.7087C26.0901 15.7783 26.1741 15.8131 26.2725 15.8131C26.3709 15.8131 26.4549 15.7783 26.5245 15.7087C26.594 15.6392 26.6288 15.5552 26.6288 15.4568C26.6288 15.3584 26.594 15.2744 26.5245 15.2048C26.4549 15.1353 26.3709 15.1005 26.2725 15.1005C26.1741 15.1005 26.0901 15.1353 26.0205 15.2048C25.951 15.2744 25.9162 15.3584 25.9162 15.4568ZM25.8912 15.438C25.8912 15.5451 25.929 15.6364 26.0047 15.7121C26.0804 15.7878 26.1717 15.8256 26.2787 15.8256C26.3858 15.8256 26.4771 15.7878 26.5528 15.7121C26.6285 15.6364 26.6663 15.5451 26.6663 15.438C26.6663 15.331 26.6285 15.2397 26.5528 15.164C26.4771 15.0883 26.3858 15.0505 26.2787 15.0505C26.1717 15.0505 26.0804 15.0883 26.0047 15.164C25.929 15.2397 25.8912 15.331 25.8912 15.438ZM25.7349 15.4005C25.7349 15.5507 25.788 15.6789 25.8942 15.7851C26.0004 15.8913 26.1286 15.9444 26.2787 15.9444C26.4289 15.9444 26.5571 15.8913 26.6633 15.7851C26.7695 15.6789 26.8226 15.5507 26.8226 15.4005C26.8226 15.2503 26.7695 15.1222 26.6633 15.016C26.5571 14.9098 26.4289 14.8567 26.2787 14.8567C26.1286 14.8567 26.0004 14.9098 25.8942 15.016C25.788 15.1222 25.7349 15.2503 25.7349 15.4005ZM25.5349 15.363C25.5349 15.5598 25.6044 15.7278 25.7436 15.8669C25.8827 16.0061 26.0507 16.0757 26.2475 16.0757C26.4443 16.0757 26.6123 16.0061 26.7514 15.8669C26.8906 15.7278 26.9601 15.5598 26.9601 15.363C26.9601 15.1662 26.8906 14.9983 26.7514 14.8591C26.6123 14.72 26.4443 14.6504 26.2475 14.6504C26.0507 14.6504 25.8827 14.72 25.7436 14.8591C25.6044 14.9983 25.5349 15.1662 25.5349 15.363ZM25.7286 14.6129L25.3411 14.7879C25.2625 14.8222 25.1895 14.866 25.1223 14.9192L24.4847 15.438C24.4446 15.4707 24.4071 15.5062 24.3721 15.5443L23.4595 16.5257C23.4466 16.54 23.4341 16.5546 23.422 16.5695L22.203 18.0323C22.2009 18.0344 22.1988 18.0364 22.1967 18.0385L20.6902 19.8826L19.0399 21.8955C19.0378 21.8997 19.0357 21.9038 19.0336 21.908L17.4833 23.8396C17.4769 23.8479 17.4707 23.8562 17.4646 23.8646L16.2206 25.5275C16.2006 25.5515 16.1818 25.5765 16.1643 25.6025L15.3767 26.8965C15.3332 26.9664 15.3019 27.0414 15.2829 27.1215L15.0954 27.9467L14.9703 28.3342L14.9141 28.4655C14.8718 28.5937 14.9114 28.6872 15.0328 28.7461C15.1543 28.805 15.2522 28.7781 15.3267 28.6656L15.3767 28.5718L15.6517 28.3467L16.3831 27.9529C16.44 27.9221 16.4921 27.8846 16.5394 27.8404L17.6396 26.7964C17.6591 26.7785 17.6779 26.7597 17.6959 26.7402L19.0836 25.1961C19.0879 25.1899 19.092 25.1837 19.0961 25.1774L20.7089 23.302C20.7131 23.2979 20.7173 23.2937 20.7214 23.2895L22.3968 21.2954C22.3968 21.2933 22.3968 21.2912 22.3968 21.2891L23.9158 19.4575L25.1348 17.9948L25.9912 16.9633L26.51 16.3257C26.5164 16.3195 26.5226 16.3133 26.5288 16.3069L26.7913 15.9694C26.917 15.8086 26.9797 15.6263 26.9796 15.4223C26.9795 15.2183 26.9165 15.036 26.7907 14.8754C26.6649 14.7148 26.5029 14.61 26.3049 14.5611C26.1069 14.5121 25.9148 14.5294 25.7286 14.6129Z" fill="black"/>
</g>
<defs>
<clipPath id="clip0_1_7193">
<rect width="41" height="44" fill="white"/>
</clipPath>
</defs>
</svg>
