<svg width="21" height="38" viewBox="0 0 21 38" fill="none" xmlns="http://www.w3.org/2000/svg">
<g clip-path="url(#clip0_1_7248)">
<path d="M9.42173 2.19947C9.42173 2.39951 9.52175 2.49952 9.72179 2.49952C9.92182 2.49952 10.0218 2.39951 10.0218 2.19947C10.0218 1.99943 9.92182 1.89941 9.72179 1.89941C9.52175 1.89941 9.42173 1.99943 9.42173 2.19947ZM9.90307 2.49327L9.93433 2.47452C10.0466 2.41156 10.1079 2.31594 10.1184 2.18765C10.1288 2.05937 10.0837 1.9551 9.98306 1.87484C9.88244 1.79458 9.77075 1.7738 9.64799 1.81249C9.52524 1.85117 9.44565 1.93224 9.40923 2.05569L9.39672 2.08695C9.34238 2.24037 9.37868 2.36802 9.50563 2.4699C9.63257 2.57177 9.76506 2.57956 9.90307 2.49327ZM9.34046 2.1307C9.34046 2.24981 9.38257 2.35148 9.4668 2.4357C9.55102 2.51993 9.65269 2.56204 9.7718 2.56204C9.8909 2.56204 9.99257 2.51993 10.0768 2.4357C10.161 2.35148 10.2031 2.24981 10.2031 2.1307C10.2031 2.0116 10.161 1.90993 10.0768 1.82571C9.99257 1.74148 9.8909 1.69937 9.7718 1.69937C9.65269 1.69937 9.55102 1.74148 9.4668 1.82571C9.38257 1.90993 9.34046 2.0116 9.34046 2.1307ZM9.30921 2.11195C9.32303 2.23183 9.37497 2.33191 9.46505 2.4122C9.55513 2.49249 9.6605 2.53264 9.78117 2.53264C9.90184 2.53264 10.0072 2.49249 10.0973 2.4122C10.1874 2.33191 10.2393 2.23183 10.2531 2.11195C10.2393 1.99208 10.1874 1.89199 10.0973 1.8117C10.0072 1.73141 9.90184 1.69127 9.78117 1.69127C9.6605 1.69127 9.55513 1.73141 9.46505 1.8117C9.37497 1.89199 9.32303 1.99208 9.30921 2.11195ZM9.87181 1.59935H9.84681C9.71208 1.57371 9.58498 1.59455 9.46549 1.66187L9.37797 1.70562C9.34237 1.72526 9.30903 1.74818 9.27795 1.77439L9.08416 1.94317C9.04972 1.97351 9.01846 2.00685 8.9904 2.04319L8.70909 2.39325C8.69818 2.40749 8.68776 2.42207 8.67784 2.43701L8.32152 2.95586C8.31275 2.9702 8.30441 2.98478 8.29651 2.99962L7.89644 3.66225C7.89223 3.66637 7.88806 3.67054 7.88394 3.67475L7.4401 4.44364L6.95876 5.2813C6.95665 5.28546 6.95456 5.28962 6.95251 5.29381L6.43366 6.21273C6.43366 6.21481 6.43366 6.2169 6.43366 6.21898L5.88355 7.21917L4.70833 9.36333L4.11447 10.451C4.11235 10.4552 4.11027 10.4594 4.10822 10.4635L3.53936 11.5387C3.53727 11.5387 3.53519 11.5387 3.53311 11.5387L2.99551 12.5702L2.48291 13.5454C2.4829 13.5475 2.4829 13.5495 2.48291 13.5516L2.01407 14.4706L1.55773 15.352C1.55771 15.3561 1.55771 15.3603 1.55773 15.3645L1.13265 16.2146C1.12385 16.2311 1.11552 16.2477 1.10765 16.2646L0.757579 17.0773C0.750971 17.0917 0.74472 17.1063 0.738825 17.1211L0.470024 17.8337C0.470018 17.8358 0.470018 17.8379 0.470024 17.8399L0.263735 18.4151C0.254064 18.4417 0.245729 18.4688 0.23873 18.4963L0.126209 18.9339C0.0842387 19.1069 0.1008 19.2741 0.175892 19.4355C0.250985 19.5968 0.36821 19.7172 0.527569 19.7965C0.686927 19.8758 0.853619 19.8967 1.02764 19.8593C1.20167 19.8219 1.34503 19.7343 1.45771 19.5965L1.73902 19.2465C1.76913 19.2111 1.79622 19.1736 1.82028 19.1339L2.12034 18.6026L2.49541 17.9525C2.4997 17.9442 2.50386 17.9359 2.50791 17.9275L2.93299 17.1461C2.93728 17.1378 2.94144 17.1294 2.9455 17.1211L3.37058 16.2709L3.82066 15.3895L4.28325 14.4768L4.7896 13.5016L5.32095 12.4702L5.8773 11.395L6.45241 10.301L7.60263 8.14435C7.60263 8.14226 7.60263 8.14018 7.60263 8.1381L8.13398 7.1254L8.62158 6.19398C8.62372 6.18775 8.62581 6.1815 8.62783 6.17522L9.05291 5.30006C9.055 5.29798 9.05709 5.2959 9.05916 5.29381L9.43423 4.50616L9.77805 3.81227C9.7823 3.80608 9.78647 3.79983 9.79055 3.79352L10.0531 3.21841C10.0648 3.19394 10.0752 3.16894 10.0844 3.1434L10.2281 2.71832C10.2423 2.67758 10.2527 2.6359 10.2594 2.59329L10.2969 2.34324C10.3024 2.30593 10.3045 2.26842 10.3031 2.23072V2.1307C10.3014 2.06604 10.2889 2.00352 10.2656 1.94317L10.2531 1.92442C10.1858 1.74597 10.0587 1.63762 9.87181 1.59935ZM0.457522 19.2402L0.345 19.4152C0.264552 19.5752 0.299402 19.704 0.449548 19.8016C0.599695 19.8992 0.731544 19.8788 0.845096 19.7403L0.957617 19.5653C1.03806 19.4053 1.00322 19.2765 0.853069 19.1789C0.702923 19.0813 0.571074 19.1017 0.457522 19.2402Z" fill="black"/>
<path d="M0.388732 19.2715C0.388834 19.4797 0.49302 19.5839 0.701291 19.5839C0.909562 19.5839 1.01375 19.4797 1.01385 19.2715C1.01375 19.0632 0.909562 18.9591 0.701291 18.9591C0.49302 18.9591 0.388833 19.0632 0.388732 19.2715ZM0.288713 19.259C0.288713 19.3695 0.327772 19.4637 0.405892 19.5419C0.484012 19.62 0.578311 19.659 0.688789 19.659C0.799267 19.659 0.893565 19.62 0.971685 19.5419C1.0498 19.4637 1.08886 19.3695 1.08886 19.259C1.08886 19.1485 1.0498 19.0542 0.971685 18.9761C0.893565 18.898 0.799267 18.8589 0.688789 18.8589C0.578311 18.8589 0.484012 18.898 0.405892 18.9761C0.327772 19.0542 0.288713 19.1485 0.288713 19.259ZM0.207447 19.2402C0.207491 19.3662 0.252062 19.4737 0.341161 19.5628C0.43026 19.6519 0.537801 19.6964 0.663784 19.6964C0.789767 19.6964 0.897308 19.6519 0.986407 19.5628C1.07551 19.4737 1.12008 19.3662 1.12012 19.2402C1.12008 19.1142 1.07551 19.0067 0.986407 18.9176C0.897308 18.8286 0.789767 18.784 0.663784 18.784C0.537801 18.784 0.43026 18.8286 0.341161 18.9176C0.252062 19.0067 0.207491 19.1142 0.207447 19.2402ZM0.126182 19.2215C0.126182 19.3613 0.175617 19.4806 0.274487 19.5795C0.373357 19.6784 0.492704 19.7278 0.632528 19.7278C0.772352 19.7278 0.891699 19.6784 0.990569 19.5795C1.08944 19.4806 1.13887 19.3613 1.13887 19.2215C1.13887 19.0816 1.08944 18.9623 0.990569 18.8634C0.891699 18.7646 0.772352 18.7151 0.632528 18.7151C0.492704 18.7151 0.373357 18.7646 0.274487 18.8634C0.175617 18.9623 0.126182 19.0816 0.126182 19.2215ZM0.0511674 19.184L0.038665 19.2902C0.0337702 19.3513 0.0379376 19.4117 0.0511674 19.4715L0.0949257 19.7028L0.163689 20.0654C0.166939 20.0864 0.171107 20.1072 0.176191 20.1279L0.313717 20.6405C0.322439 20.6703 0.332858 20.6994 0.344973 20.728L0.607523 21.3844C0.615318 21.4013 0.623653 21.418 0.632528 21.4344L1.02635 22.272C1.0284 22.2762 1.03049 22.2804 1.0326 22.2845L1.5452 23.3347C1.55117 23.3474 1.55742 23.3599 1.56396 23.3723L2.25159 24.6287C2.25962 24.6414 2.26796 24.654 2.27659 24.6663L3.108 26.029C3.11005 26.0332 3.11214 26.0374 3.11425 26.0415L3.99567 27.4543C3.9998 27.4585 4.00396 27.4627 4.00817 27.4668L4.90834 28.8483C4.91039 28.8525 4.91248 28.8566 4.91459 28.8608L5.78351 30.161C5.78558 30.1631 5.78767 30.1652 5.78976 30.1673L6.59616 31.3488C6.59825 31.3488 6.60033 31.3488 6.60241 31.3488L7.32755 32.399C7.33932 32.4182 7.35183 32.437 7.36506 32.4552L8.04019 33.2866C8.05779 33.3085 8.07654 33.3294 8.09645 33.3492L8.69656 33.943C8.7104 33.9584 8.72499 33.9729 8.74032 33.9868L9.24667 34.3994C9.25477 34.4059 9.26311 34.4122 9.27167 34.4181L9.63424 34.6807L9.82178 34.912C9.93434 35.0533 10.0614 35.0678 10.2029 34.9554C10.3444 34.843 10.359 34.716 10.2469 34.5744L10.0593 34.3431L9.91555 33.9305L9.6905 33.3116C9.68674 33.299 9.68257 33.2865 9.678 33.2741L9.33418 32.499C9.32839 32.4842 9.32214 32.4696 9.31543 32.4552L8.82159 31.5051C8.81379 31.4881 8.80545 31.4714 8.79658 31.455L8.13396 30.3611C8.12987 30.3548 8.1257 30.3485 8.12145 30.3423L7.35881 29.1296C7.35468 29.1254 7.35051 29.1212 7.34631 29.1171L6.48364 27.8169L5.58972 26.4478L4.7083 25.0476L3.88315 23.6973L3.16426 22.4658L2.58915 21.4719L2.17032 20.6717C2.16266 20.6527 2.15432 20.6339 2.14532 20.6155L1.7765 20.0091C1.77442 20.007 1.77234 20.0049 1.77024 20.0029L1.48894 19.559C1.48295 19.5485 1.4767 19.538 1.47019 19.5278L1.2764 19.2527L1.18888 19.0714C1.18294 19.0608 1.17669 19.0504 1.17013 19.0402L1.11387 18.9464C0.970873 18.712 0.765405 18.6248 0.497468 18.6847C0.22953 18.7446 0.0807633 18.911 0.0511674 19.184Z" fill="black"/>
<path d="M7.93395 31.8301L7.92145 31.8551C7.88876 31.9682 7.90151 32.0759 7.95969 32.1783C8.01787 32.2806 8.10392 32.3467 8.21784 32.3765C8.33175 32.4063 8.43913 32.3908 8.53998 32.3301C8.64083 32.2693 8.7047 32.1816 8.73158 32.067C8.75847 31.9523 8.74025 31.8454 8.67694 31.7461C8.61362 31.6468 8.52432 31.5852 8.40904 31.5613L8.38404 31.555C8.15133 31.5114 8.0013 31.6031 7.93395 31.8301ZM7.84018 32.1926L7.89019 32.3927C7.90639 32.4548 7.93139 32.5131 7.96521 32.5677L8.12774 32.849C8.13378 32.8575 8.14004 32.8658 8.14649 32.874L8.39029 33.2428C8.39236 33.2449 8.39444 33.247 8.39654 33.2491L8.70285 33.6992C8.70285 33.7012 8.70285 33.7033 8.70285 33.7054L9.05291 34.2055L9.40923 34.7431L9.75305 35.2932L10.0656 35.8308C10.0696 35.8392 10.0738 35.8476 10.0781 35.8558L10.3782 36.3247C10.4079 36.3712 10.4433 36.4128 10.4844 36.4497L10.8032 36.7372C10.8473 36.7781 10.8973 36.8094 10.9533 36.831L11.1158 36.8873L11.1908 36.9998C11.2868 37.1408 11.4054 37.1636 11.5467 37.068C11.688 36.9724 11.7111 36.8538 11.6159 36.7122L11.5534 36.6185L11.5784 36.4622C11.5874 36.4034 11.5853 36.3451 11.5721 36.2872L11.4846 35.8683C11.4735 35.8205 11.4569 35.7746 11.4346 35.7308L11.1846 35.2307C11.1807 35.2202 11.1765 35.2098 11.1721 35.1994L10.8595 34.6493C10.8555 34.6409 10.8514 34.6326 10.847 34.6243L10.4907 34.0555C10.4886 34.0513 10.4866 34.0471 10.4844 34.043L10.1219 33.4929C10.1198 33.4887 10.1177 33.4845 10.1156 33.4804L9.76555 32.974L9.46549 32.5302L9.22169 32.1614C9.21963 32.1593 9.21754 32.1572 9.21544 32.1551L9.03416 31.8863C8.98862 31.8193 8.93236 31.7631 8.86538 31.7175L8.69659 31.605C8.48666 31.4606 8.27665 31.4605 8.06656 31.6047C7.85647 31.7488 7.78101 31.9448 7.84018 32.1926Z" fill="black"/>
<path d="M11.0345 37.2998C11.0345 37.4051 11.0717 37.495 11.1462 37.5695C11.2206 37.6439 11.3105 37.6811 11.4158 37.6811C11.5211 37.6811 11.611 37.6439 11.6855 37.5695C11.7599 37.495 11.7971 37.4051 11.7971 37.2998C11.7971 37.1945 11.7599 37.1046 11.6855 37.0302C11.611 36.9557 11.5211 36.9185 11.4158 36.9185C11.3105 36.9185 11.2206 36.9557 11.1462 37.0302C11.0717 37.1046 11.0345 37.1945 11.0345 37.2998ZM11.7034 37.5499L11.7284 37.5249L11.7721 37.4749C11.7764 37.4708 11.7806 37.4666 11.7846 37.4624L11.8659 37.3623C11.868 37.3603 11.8701 37.3582 11.8722 37.3561L12.0034 37.1873C12.0101 37.1771 12.0164 37.1667 12.0222 37.156L12.1972 36.8935L12.4473 36.5122L12.7723 36.0246C12.7788 36.0164 12.7851 36.0081 12.7911 35.9996L13.1474 35.3932C13.154 35.383 13.1602 35.3726 13.1662 35.362L13.5225 34.6493C13.5246 34.6452 13.5267 34.641 13.5287 34.6368L13.9163 33.8304L14.3414 32.924C14.3414 32.9219 14.3414 32.9198 14.3414 32.9177L14.7915 31.9613L15.2353 30.9986L15.6854 30.0609L16.1292 29.1295C16.1292 29.1274 16.1292 29.1254 16.1292 29.1233L16.5543 28.1918L16.9794 27.2729C16.9815 27.2688 16.9836 27.2646 16.9856 27.2604L17.3732 26.3477C17.3753 26.3457 17.3774 26.3436 17.3795 26.3415L17.7295 25.4851C17.7317 25.4789 17.7338 25.4726 17.7358 25.4663L18.0358 24.6724C18.0358 24.6703 18.0358 24.6683 18.0358 24.6662L18.5609 23.2221L18.7922 22.6033L18.9923 22.1094L19.1485 21.7469L19.2673 21.4906L19.3548 21.3155L19.4173 21.2093L19.4736 21.128C19.4279 21.1639 19.3883 21.2055 19.3548 21.253L19.3923 21.2218C19.4214 20.9533 19.3169 20.7554 19.0788 20.628C18.8407 20.5006 18.6181 20.5235 18.4109 20.6967V20.7404C18.4308 20.688 18.4434 20.6338 18.4484 20.5779L18.4109 20.6779L18.3671 20.7779L18.0358 21.2968C18.027 21.3111 18.0187 21.3257 18.0108 21.3405L17.7358 21.8594C17.7265 21.8799 17.7182 21.9007 17.7108 21.9219L17.392 22.6595C17.3897 22.6678 17.3877 22.6762 17.3857 22.6845L17.0169 23.6222L16.5856 24.7037L16.0667 25.8601L15.4791 27.0604L14.8602 28.2356L14.2351 29.3733L13.6287 30.4673C13.6287 30.4694 13.6287 30.4714 13.6287 30.4735L13.0536 31.53L12.5035 32.5052L11.9909 33.3866L11.5221 34.143L11.1345 34.7806C11.1303 34.7868 11.1261 34.793 11.122 34.7994L10.8157 35.3245C10.7848 35.3781 10.7598 35.4344 10.7407 35.4932L10.6032 35.9121C10.5691 36.0203 10.5587 36.1307 10.5719 36.2434L10.5969 36.4809C10.6079 36.5847 10.6425 36.6799 10.7007 36.7666C10.7589 36.8532 10.834 36.9212 10.9259 36.9706C11.0178 37.02 11.116 37.0451 11.2204 37.0458C11.3247 37.0466 11.4232 37.0229 11.5158 36.9748L11.7284 36.8685C11.8146 36.8219 11.8896 36.7615 11.9534 36.6872L12.2472 36.3559C12.2797 36.3187 12.3089 36.2791 12.3347 36.2371L12.6598 35.7245C12.6619 35.7204 12.664 35.7162 12.6661 35.712L13.0474 35.0744L13.5162 34.3055C13.5205 34.2993 13.5246 34.2931 13.5287 34.2868L14.0413 33.3928C14.0456 33.3866 14.0497 33.3804 14.0538 33.3741L14.5977 32.3801C14.5977 32.3781 14.5977 32.376 14.5977 32.3739L15.1728 31.3049L15.7604 30.2047L16.3855 29.0608C16.3876 29.0566 16.3897 29.0524 16.3918 29.0483L17.0169 27.8543C17.0211 27.8481 17.0253 27.8418 17.0294 27.8355L17.6233 26.604C17.6276 26.5937 17.6318 26.5833 17.6358 26.5728L18.1609 25.3788C18.1654 25.3643 18.1696 25.3497 18.1734 25.335L18.5859 24.2286C18.5881 24.2224 18.5902 24.2161 18.5922 24.2098L18.9235 23.2534C18.9257 23.2472 18.9277 23.2409 18.9298 23.2346L19.1735 22.4658C19.1756 22.4637 19.1777 22.4616 19.1798 22.4595L19.3486 21.8969C19.3508 21.8907 19.3528 21.8844 19.3548 21.8781L19.5236 21.2593L19.5736 21.128C19.5851 21.0933 19.5934 21.0579 19.5986 21.0217L19.6236 20.9092C19.6436 20.7931 19.6311 20.6806 19.5861 20.5716L19.5674 20.5341C19.4735 20.2996 19.3005 20.1744 19.0484 20.1583C18.7963 20.1423 18.6088 20.2447 18.4859 20.4654L18.4734 20.4904L18.4234 20.5654C18.4169 20.5736 18.4107 20.5819 18.4047 20.5904L18.3234 20.7279C18.3213 20.7321 18.3192 20.7362 18.3171 20.7404L18.2109 20.9342C18.2043 20.9444 18.198 20.9549 18.1921 20.9655L18.0608 21.2405C18.0565 21.2488 18.0523 21.2571 18.0483 21.2655L17.8858 21.6406C17.8837 21.6447 17.8816 21.6489 17.8796 21.6531L17.6733 22.1594C17.6711 22.1657 17.669 22.1719 17.667 22.1782L17.4357 22.8096L16.8981 24.2473L16.5981 25.0287L16.2542 25.8789L15.8729 26.7916L15.4853 27.7168L15.0665 28.6357L14.6352 29.5609L14.1851 30.4985C14.183 30.5006 14.1809 30.5027 14.1788 30.5048L13.7288 31.4737L13.2912 32.4301L12.8661 33.3303L12.4785 34.1305L12.1285 34.8431C12.1264 34.8452 12.1243 34.8473 12.1222 34.8494L11.8221 35.4807C11.8179 35.4869 11.8137 35.4931 11.8096 35.4995L11.5784 36.0433L11.4033 36.4434L11.2658 36.7122C11.2637 36.7122 11.2616 36.7122 11.2595 36.7122L11.1658 36.8998C11.1613 36.9079 11.1572 36.9163 11.1533 36.9248L11.1033 37.0498C11.0989 37.0559 11.0948 37.0622 11.0908 37.0685L11.072 37.131L11.0595 37.1623C10.9819 37.3618 11.0348 37.5168 11.2182 37.6272C11.4017 37.7376 11.5634 37.7118 11.7034 37.5499ZM10.7532 36.5372C10.7532 36.6494 10.7929 36.7452 10.8722 36.8245C10.9515 36.9038 11.0473 36.9435 11.1595 36.9435C11.2717 36.9435 11.3675 36.9038 11.4468 36.8245C11.5262 36.7452 11.5658 36.6494 11.5658 36.5372C11.5658 36.425 11.5262 36.3292 11.4468 36.2499C11.3675 36.1705 11.2717 36.1309 11.1595 36.1309C11.0473 36.1309 10.9515 36.1705 10.8722 36.2499C10.7929 36.3292 10.7532 36.425 10.7532 36.5372ZM11.3846 36.681L11.4096 36.6372C11.4971 36.483 11.4637 36.3621 11.3096 36.2746C11.1554 36.1871 11.0345 36.2205 10.947 36.3747L10.922 36.4184C10.8345 36.5726 10.8678 36.6935 11.022 36.781C11.1762 36.8685 11.297 36.8352 11.3846 36.681Z" fill="black"/>
<path d="M19.3489 18.5283C19.349 18.7241 19.447 18.8219 19.6427 18.8219C19.8384 18.8219 19.9364 18.7241 19.9365 18.5283C19.9364 18.3326 19.8384 18.2347 19.6427 18.2347C19.447 18.2347 19.349 18.3326 19.3489 18.5283ZM19.2676 18.5283C19.2676 18.6336 19.3049 18.7235 19.3793 18.798C19.4538 18.8724 19.5437 18.9096 19.649 18.9096C19.7543 18.9096 19.8441 18.8724 19.9186 18.798C19.993 18.7235 20.0303 18.6336 20.0303 18.5283C20.0303 18.423 19.993 18.3331 19.9186 18.2587C19.8441 18.1842 19.7543 18.147 19.649 18.147C19.5437 18.147 19.4538 18.1842 19.3793 18.2587C19.3049 18.3331 19.2676 18.423 19.2676 18.5283ZM19.2426 18.5471C19.2426 18.661 19.2829 18.7582 19.3635 18.8388C19.444 18.9194 19.5413 18.9597 19.6552 18.9597C19.7691 18.9597 19.8664 18.9194 19.9469 18.8388C20.0275 18.7582 20.0678 18.661 20.0678 18.5471C20.0678 18.4331 20.0275 18.3359 19.9469 18.2553C19.8664 18.1748 19.7691 18.1345 19.6552 18.1345C19.5413 18.1345 19.444 18.1748 19.3635 18.2553C19.2829 18.3359 19.2426 18.4331 19.2426 18.5471ZM19.4114 18.197L19.3677 18.222C19.336 18.2418 19.3069 18.2647 19.2801 18.2908L19.1739 18.3908C19.1324 18.4296 19.0969 18.4734 19.0676 18.5221L18.9176 18.7784C18.9109 18.7907 18.9047 18.8032 18.8988 18.8159L18.6863 19.2222C18.6819 19.2305 18.6778 19.2388 18.6738 19.2472L18.4425 19.7598C18.4404 19.7598 18.4383 19.7598 18.4362 19.7598L18.1924 20.3037C18.1903 20.3078 18.1882 20.312 18.1862 20.3162L17.9549 20.8663C17.9527 20.8725 17.9506 20.8787 17.9486 20.885L17.7423 21.4164C17.7402 21.4226 17.7381 21.4288 17.7361 21.4351L17.5548 21.929C17.5548 21.9311 17.5548 21.9331 17.5548 21.9352L17.411 22.354C17.4089 22.3582 17.4068 22.3624 17.4048 22.3666L17.2923 22.7104C17.2851 22.7309 17.2788 22.7518 17.2735 22.7729L17.2172 23.0354C17.1924 23.1464 17.1945 23.2568 17.2235 23.3667L17.261 23.5168C17.2875 23.6204 17.3379 23.7106 17.4122 23.7876C17.4865 23.8645 17.5749 23.918 17.6775 23.9482C17.7801 23.9783 17.8835 23.9811 17.9876 23.9566C18.0916 23.932 18.1829 23.8834 18.2612 23.8106L18.3675 23.7106C18.4444 23.6402 18.5028 23.5569 18.5425 23.4605L18.6488 23.2105C18.6556 23.194 18.6619 23.1774 18.6675 23.1605L18.78 22.8229L18.9176 22.4103L19.0863 21.929L19.2801 21.4164L19.5114 20.8788L19.7427 20.3287L19.9553 19.8098C19.9644 19.7914 19.9728 19.7727 19.9803 19.7536L20.1178 19.316C20.1255 19.2913 20.1318 19.2663 20.1365 19.241L20.1928 18.9472C20.2072 18.8655 20.2051 18.7842 20.1866 18.7034L20.1553 18.5596C20.1382 18.4759 20.1028 18.4009 20.049 18.3345L20.0178 18.297C19.8446 18.0883 19.6425 18.055 19.4114 18.197ZM17.3548 23.3917L17.3485 23.4355C17.3391 23.5582 17.3727 23.6676 17.4494 23.7638C17.5261 23.8601 17.6253 23.9172 17.747 23.9353C17.8687 23.9534 17.9803 23.9276 18.0817 23.8578C18.1831 23.7881 18.2471 23.6932 18.2737 23.573L18.2799 23.5293C18.2894 23.4066 18.2558 23.2971 18.1791 23.2009C18.1024 23.1047 18.0031 23.0476 17.8814 23.0295C17.7597 23.0114 17.6482 23.0372 17.5468 23.1069C17.4454 23.1767 17.3814 23.2716 17.3548 23.3917Z" fill="black"/>
<path d="M9.58448 1.70012C9.58448 1.87516 9.67199 1.96267 9.84703 1.96267C10.0221 1.96267 10.1096 1.87516 10.1096 1.70012C10.1096 1.52509 10.0221 1.43757 9.84703 1.43757C9.67199 1.43757 9.58448 1.52509 9.58448 1.70012ZM10.0846 1.92517V1.91892L10.1033 1.90016C10.1716 1.82849 10.2049 1.74318 10.2033 1.64422C10.2017 1.54526 10.1656 1.46108 10.0951 1.39167C10.0245 1.32225 9.93975 1.28755 9.84078 1.28755C9.7418 1.28755 9.65704 1.32225 9.58649 1.39167C9.51594 1.46108 9.47986 1.54526 9.47825 1.64422C9.47664 1.74318 9.50997 1.82849 9.57823 1.90016L9.59698 1.91892C9.67637 1.99959 9.77222 2.03293 9.88453 2.01894H9.89078C9.96612 2.00987 10.0307 1.97861 10.0846 1.92517ZM10.0221 1.98143L10.0471 1.96893L10.0846 1.95017C10.2005 1.89384 10.288 1.80841 10.3471 1.69387L10.3784 1.63136C10.4523 1.48862 10.4693 1.3394 10.4293 1.18371C10.3892 1.02801 10.3024 0.905477 10.1688 0.816107C10.0352 0.726736 9.88875 0.69328 9.72956 0.715741C9.57038 0.738203 9.43895 0.810863 9.33527 0.933719C9.23159 1.05658 9.18205 1.19835 9.18667 1.35904C9.19128 1.51974 9.24887 1.65843 9.35943 1.77514L9.40944 1.8314C9.45666 1.88051 9.51084 1.92011 9.57197 1.95017L9.60948 1.96893C9.62975 1.97868 9.65059 1.98702 9.67199 1.99393L9.70325 2.00643C9.81296 2.04199 9.91923 2.03366 10.0221 1.98143ZM9.15314 1.35631L9.1594 1.46883C9.15963 1.49813 9.16171 1.52731 9.16565 1.55635L9.21566 1.81265C9.22015 1.84219 9.2264 1.87137 9.23441 1.90016L9.36568 2.33775C9.37124 2.35673 9.37749 2.37549 9.38444 2.39401L9.62198 3.00037C9.62586 3.01297 9.63002 3.02548 9.63449 3.03788L9.9658 3.78802C9.96781 3.7943 9.96989 3.80055 9.97205 3.80678L10.3784 4.68194C10.3804 4.68822 10.3825 4.69447 10.3846 4.7007L10.8847 5.71964L11.4473 6.88861C11.4533 6.90125 11.4596 6.91376 11.4661 6.92612L12.1287 8.15135C12.1308 8.15554 12.1328 8.1597 12.135 8.16386L12.7976 9.37033C12.7997 9.37243 12.8017 9.37451 12.8038 9.37659L13.454 10.5143C13.456 10.5185 13.4581 10.5227 13.4602 10.5268L14.0728 11.5583L14.6292 12.4959L15.1355 13.3773C15.1376 13.3815 15.1397 13.3857 15.1418 13.3898L15.6169 14.2025L16.0357 14.9151C16.0378 14.9151 16.0399 14.9151 16.042 14.9151L16.4108 15.534C16.4187 15.5488 16.4271 15.5634 16.4358 15.5778L16.7858 16.1091C16.79 16.1133 16.7941 16.1175 16.7983 16.1216L17.1172 16.5842C17.1253 16.5948 17.1336 16.6052 17.1422 16.6155L17.4422 17.0155C17.469 17.051 17.4981 17.0843 17.5297 17.1156L17.8235 17.4031C17.8726 17.4514 17.9268 17.4931 17.9861 17.5281L18.2486 17.6844C18.2922 17.7103 18.338 17.7311 18.3862 17.7469L18.5862 17.8094C18.5924 17.8116 18.5987 17.8137 18.6049 17.8157L18.7175 17.8469L18.805 17.8845C18.7696 17.8342 18.7237 17.7967 18.6675 17.7719L18.7175 17.8469C18.7693 17.9229 18.8403 17.9694 18.9306 17.9865C19.021 18.0036 19.1041 17.9862 19.1801 17.9345C19.256 17.8827 19.3025 17.8116 19.3196 17.7213C19.3367 17.631 19.3194 17.5478 19.2676 17.4719L19.2801 17.3469C19.2801 17.3427 19.2801 17.3385 19.2801 17.3343L19.2926 17.1218C19.2947 17.0779 19.2926 17.0341 19.2863 16.9905L19.2426 16.6842C19.2317 16.6085 19.2108 16.5355 19.1801 16.4654L19.0175 16.0904C18.9993 16.0514 18.9785 16.0139 18.955 15.9778L18.6987 15.5528L18.4049 15.0714L18.0736 14.5401L17.7048 13.9275L17.2922 13.2211L16.8234 12.4084L16.3045 11.5207C16.3025 11.5166 16.3004 11.5124 16.2983 11.5082L15.7356 10.5706L15.123 9.54537L14.4729 8.42015L13.7978 7.23243L13.1164 6.0197C13.1143 6.01551 13.1123 6.01135 13.1101 6.00719L12.4663 4.90698L11.9662 3.9193C11.9641 3.91511 11.962 3.91095 11.9599 3.90679L11.5223 3.05038L11.1535 2.32524C11.1515 2.31897 11.1494 2.31272 11.1473 2.30649L10.841 1.73138C10.835 1.72082 10.8287 1.7104 10.8222 1.70012L10.5909 1.30005C10.5848 1.29158 10.5786 1.28325 10.5722 1.27504L10.4221 1.05C10.4181 1.04158 10.414 1.03325 10.4096 1.025L10.3409 0.93748C10.1457 0.683698 9.89716 0.610042 9.59524 0.71651C9.29332 0.822977 9.14595 1.03624 9.15314 1.35631Z" fill="black"/>
<path d="M17.6485 15.8591C17.6485 15.9558 17.6827 16.0383 17.7511 16.1067C17.8194 16.175 17.9019 16.2092 17.9986 16.2092C18.0953 16.2092 18.1778 16.175 18.2461 16.1067C18.3145 16.0383 18.3487 15.9558 18.3487 15.8591C18.3487 15.7625 18.3145 15.6799 18.2461 15.6116C18.1778 15.5432 18.0953 15.5091 17.9986 15.5091C17.9019 15.5091 17.8194 15.5432 17.7511 15.6116C17.6827 15.6799 17.6485 15.7625 17.6485 15.8591ZM17.6985 15.5778L17.6423 15.6341C17.5411 15.7267 17.4849 15.8413 17.4735 15.9779L17.461 16.1467C17.4555 16.1925 17.4555 16.2384 17.461 16.2842L17.4985 16.5343C17.5058 16.5815 17.5183 16.6274 17.536 16.6718L17.6735 17.0093C17.6755 17.0156 17.6776 17.0219 17.6798 17.0281L17.8611 17.4344C17.863 17.4428 17.8651 17.4511 17.8673 17.4594L18.0799 17.8908C18.0819 17.895 18.084 17.8991 18.0861 17.9033L18.2924 18.3033C18.2945 18.3054 18.2966 18.3075 18.2987 18.3096L18.4612 18.6284C18.4887 18.6785 18.522 18.7244 18.5612 18.7659L18.7237 18.941C18.7483 18.9706 18.7754 18.9977 18.805 19.0222L18.905 19.091C19.0915 19.2294 19.2877 19.2449 19.4937 19.1376C19.6996 19.0303 19.7993 18.8605 19.7927 18.6284L19.7864 18.5034C19.7839 18.4545 19.7755 18.4065 19.7614 18.3596L19.6989 18.1346C19.6877 18.0957 19.6732 18.0582 19.6552 18.022L19.4989 17.697C19.4969 17.6928 19.4948 17.6886 19.4926 17.6845L19.2864 17.2907L19.0738 16.8656C19.0718 16.8614 19.0697 16.8572 19.0676 16.8531L18.8613 16.4592C18.8572 16.4529 18.853 16.4467 18.8488 16.4405L18.6737 16.1279C18.6696 16.1237 18.6655 16.1195 18.6612 16.1154L18.5362 15.9091L18.4612 15.7654C18.4329 15.7158 18.3975 15.6721 18.3549 15.6341L18.2987 15.5778C18.2138 15.5 18.1138 15.461 17.9986 15.461C17.8834 15.461 17.7834 15.5 17.6985 15.5778ZM18.755 18.6784C18.7551 18.8182 18.8045 18.9375 18.9034 19.0363C19.0023 19.1351 19.1216 19.1845 19.2613 19.1845C19.4011 19.1845 19.5204 19.1351 19.6193 19.0363C19.7182 18.9375 19.7676 18.8182 19.7677 18.6784C19.7676 18.5386 19.7182 18.4193 19.6193 18.3205C19.5204 18.2217 19.4011 18.1723 19.2613 18.1723C19.1216 18.1723 19.0023 18.2217 18.9034 18.3205C18.8045 18.4193 18.7551 18.5386 18.755 18.6784ZM19.1238 18.2721H19.1176C19.1004 18.277 19.0837 18.2832 19.0676 18.2908L19.0613 18.2971C18.9982 18.3286 18.9468 18.3736 18.907 18.4319C18.8673 18.4903 18.8444 18.5546 18.8382 18.6249C18.832 18.6952 18.8434 18.7626 18.8723 18.827C18.9012 18.8914 18.944 18.9446 19.0006 18.9867C19.0573 19.0288 19.1206 19.0544 19.1906 19.0635C19.2606 19.0726 19.3283 19.064 19.3939 19.0378C19.4594 19.0116 19.5144 18.9711 19.5588 18.9162C19.6032 18.8614 19.6314 18.7992 19.6434 18.7296C19.6554 18.66 19.6496 18.592 19.6262 18.5254C19.6027 18.4589 19.5645 18.4023 19.5115 18.3556C19.4585 18.309 19.3975 18.2782 19.3285 18.2633C19.2595 18.2485 19.1913 18.2514 19.1238 18.2721ZM19.4051 18.3909L19.3676 18.3096C19.3009 18.168 19.1967 18.1305 19.0551 18.1972C18.9135 18.2638 18.876 18.368 18.9425 18.5096L18.98 18.5909C19.0467 18.7326 19.1509 18.7701 19.2926 18.7034C19.4343 18.6367 19.4718 18.5326 19.4051 18.3909Z" fill="black"/>
<path d="M0.895329 18.3033C0.895331 18.4155 0.935001 18.5113 1.01434 18.5906C1.09368 18.67 1.18945 18.7096 1.30166 18.7096C1.41386 18.7096 1.50963 18.67 1.58897 18.5906C1.66832 18.5113 1.70799 18.4155 1.70798 18.3033C1.70799 18.1911 1.66832 18.0953 1.58897 18.016C1.50963 17.9366 1.41386 17.897 1.30166 17.897C1.18945 17.897 1.09368 17.9366 1.01434 18.016C0.935001 18.0953 0.895331 18.1911 0.895329 18.3033ZM1.62047 17.9595L1.61422 17.9532C1.51075 17.8511 1.38633 17.8007 1.24097 17.8019C1.09561 17.8031 0.972062 17.8556 0.870325 17.9595L0.826566 18.0095C0.782465 18.0533 0.74704 18.1034 0.720296 18.1595L0.682789 18.2408C0.670517 18.265 0.6601 18.29 0.651533 18.3158L0.620277 18.4221L0.589021 18.5283C0.584166 18.5448 0.58 18.5615 0.576519 18.5783L0.545263 18.7096C0.509146 18.856 0.517482 18.9998 0.570267 19.141L0.664035 19.3785C0.702454 19.4793 0.758715 19.5689 0.832817 19.6473L1.11412 19.9474C1.15765 19.9923 1.20557 20.0319 1.2579 20.0661L1.73299 20.3849C1.76506 20.4059 1.7984 20.4247 1.83301 20.4412L2.47063 20.7475C2.4991 20.7617 2.52827 20.7742 2.55815 20.785L3.31454 21.0476C3.35539 21.0613 3.39707 21.0717 3.43956 21.0788L4.23972 21.2226C4.2729 21.2271 4.30624 21.2292 4.33973 21.2289L5.04612 21.2539L5.60873 21.3351L6.0088 21.5039C6.1582 21.5445 6.26383 21.4938 6.3257 21.3519C6.38756 21.21 6.35277 21.0981 6.22134 21.0163L5.82127 20.835L5.34618 20.4975L4.80232 20.0286C4.76756 19.9977 4.73006 19.9706 4.6898 19.9474L3.97717 19.5535C3.9528 19.5397 3.9278 19.5272 3.90215 19.516L3.18326 19.216L2.62066 18.9409L2.21433 18.6721L1.91427 18.4471C1.90003 18.4362 1.88545 18.4258 1.87051 18.4158L1.65797 18.272C1.64172 18.2609 1.62505 18.2505 1.60796 18.2408L1.48919 18.172C1.54538 18.2757 1.62456 18.357 1.72674 18.4158L1.67048 18.3095C1.67597 18.3938 1.69889 18.473 1.73924 18.5471V18.4846V18.4533C1.72061 18.4975 1.7081 18.5433 1.70173 18.5908L1.72674 18.5283C1.78193 18.3979 1.78402 18.2666 1.73299 18.1345L1.72674 18.1283C1.70323 18.0645 1.66781 18.0082 1.62047 17.9595Z" fill="black"/>
<path d="M5.53997 21.3539C5.53997 21.4454 5.57232 21.5235 5.63701 21.5882C5.7017 21.6529 5.7798 21.6852 5.87128 21.6852C5.96277 21.6852 6.04087 21.6529 6.10556 21.5882C6.17025 21.5235 6.2026 21.4454 6.2026 21.3539C6.2026 21.2624 6.17025 21.1843 6.10556 21.1196C6.04087 21.0549 5.96277 21.0226 5.87128 21.0226C5.7798 21.0226 5.7017 21.0549 5.63701 21.1196C5.57232 21.1843 5.53997 21.2624 5.53997 21.3539ZM5.69625 21.6977L5.79002 21.754C5.80408 21.7632 5.81866 21.7716 5.83378 21.779L6.00256 21.8602L6.2401 21.9728C6.25232 21.9796 6.26482 21.9858 6.27761 21.9915L6.57767 22.0978C6.59197 22.1047 6.60656 22.1109 6.62143 22.1165L6.97775 22.2103C7.00235 22.2181 7.02736 22.2244 7.05276 22.2291L7.98419 22.3541C8.00078 22.3568 8.01745 22.3589 8.0342 22.3603L8.66557 22.3978C8.67182 22.3979 8.67807 22.3979 8.68432 22.3978L9.43446 22.4291C9.46155 22.4307 9.48864 22.4307 9.51573 22.4291L10.3284 22.3603C10.3558 22.3581 10.3829 22.3539 10.4096 22.3478L11.1473 22.1915C11.1473 22.1895 11.1473 22.1874 11.1473 22.1853L11.7286 22.054L12.16 22.0603C12.3267 22.0644 12.4121 21.9832 12.4163 21.8165C12.4204 21.6498 12.3392 21.5643 12.1725 21.5602L11.7349 21.5539L11.1598 21.4101L10.4409 21.2164C10.4184 21.2087 10.3954 21.2025 10.3721 21.1976L9.56574 21.0726C9.54915 21.0699 9.53248 21.0678 9.51573 21.0663L8.76559 21.0101C8.75517 21.0098 8.74475 21.0098 8.73433 21.0101L8.10296 20.9851C8.08421 20.9843 8.06545 20.9843 8.0467 20.9851L7.10902 21.0226C7.09017 21.0238 7.07142 21.0259 7.05276 21.0288L6.70269 21.0788L6.43389 21.1038L6.25886 21.0851L6.15884 21.0538L6.10258 21.0226C6.00936 20.9665 5.90996 20.9515 5.80438 20.9778C5.6988 21.004 5.61795 21.0638 5.56185 21.157C5.50575 21.2502 5.49082 21.3496 5.51706 21.4552C5.54331 21.5608 5.60304 21.6416 5.69625 21.6977Z" fill="black"/>
<path d="M12.535 21.9165C12.535 22.1124 12.633 22.2103 12.8288 22.2103C13.0247 22.2103 13.1227 22.1124 13.1227 21.9165C13.1227 21.7206 13.0247 21.6227 12.8288 21.6227C12.633 21.6227 12.535 21.7206 12.535 21.9165ZM12.4413 21.9103C12.4413 22.0173 12.4791 22.1086 12.5548 22.1843C12.6305 22.26 12.7218 22.2978 12.8288 22.2978C12.9359 22.2978 13.0272 22.26 13.1029 22.1843C13.1786 22.1086 13.2164 22.0173 13.2164 21.9103C13.2164 21.8032 13.1786 21.7119 13.1029 21.6362C13.0272 21.5605 12.9359 21.5227 12.8288 21.5227C12.7218 21.5227 12.6305 21.5605 12.5548 21.6362C12.4791 21.7119 12.4413 21.8032 12.4413 21.9103ZM12.8851 22.3416L12.9476 22.3353C13.0092 22.3301 13.0676 22.3134 13.1227 22.2853L13.2602 22.2103C13.2729 22.2046 13.2854 22.1983 13.2977 22.1916L13.529 22.0478C13.5375 22.0418 13.5458 22.0355 13.554 22.029L13.879 21.7915C13.8811 21.7915 13.8832 21.7915 13.8853 21.7915L14.3104 21.4852L14.8355 21.1476L15.4293 20.8163L16.0482 20.5037C16.0503 20.5038 16.0524 20.5038 16.0545 20.5037L16.6296 20.1974C16.6467 20.19 16.6634 20.1817 16.6796 20.1724L17.1297 19.8724L17.4922 19.6723C17.5172 19.6561 17.5401 19.6373 17.561 19.6161L17.7673 19.441C17.8762 19.3448 17.9137 19.226 17.8798 19.0847L17.8673 19.0222C17.8264 19.079 17.8139 19.1416 17.8298 19.2097L17.8673 19.1597C17.959 19.0347 17.9423 18.9264 17.8173 18.8347C17.6923 18.743 17.5839 18.7597 17.4922 18.8847L17.4547 18.9347C17.5687 18.9856 17.6625 18.9606 17.736 18.8597L17.6735 18.8347C17.5827 18.795 17.491 18.7929 17.3985 18.8284L17.1422 18.9284C17.1316 18.9322 17.1212 18.9364 17.1109 18.9409L16.7546 19.116L16.2482 19.2723C16.2356 19.2759 16.2231 19.2801 16.2107 19.2848L15.6044 19.5348C15.5917 19.5385 15.5792 19.5427 15.5669 19.5473L14.9417 19.8599C14.9333 19.8638 14.925 19.868 14.9167 19.8724L14.2979 20.2162C14.2872 20.2221 14.2768 20.2283 14.2666 20.2349L13.7165 20.5913C13.708 20.5973 13.6997 20.6035 13.6915 20.61L13.2602 20.9351C13.2539 20.937 13.2476 20.9391 13.2414 20.9413L12.9226 21.1914C12.9162 21.1975 12.91 21.2037 12.9039 21.2101L12.6976 21.3852C12.6867 21.3951 12.6763 21.4055 12.6663 21.4164L12.56 21.5289C12.5301 21.5609 12.5051 21.5963 12.485 21.6352L12.4538 21.6915C12.3712 21.847 12.3786 21.9981 12.476 22.1449C12.5733 22.2916 12.7097 22.3572 12.8851 22.3416Z" fill="black"/>
<path d="M8.52826 5.95689L8.39073 6.23819C8.37667 6.26606 8.36625 6.29524 8.35947 6.32571L8.18444 7.19463C8.18438 7.19879 8.18438 7.20296 8.18444 7.20713L7.94064 8.70741C7.94023 8.71783 7.94023 8.72825 7.94064 8.73867L7.78437 10.6078L7.51556 12.3394C7.5178 12.4842 7.59055 12.5674 7.73381 12.5889C7.87707 12.6103 7.97102 12.5522 8.01566 12.4144L8.28446 10.689L8.70954 8.85744C8.7119 8.84918 8.71398 8.84084 8.71579 8.83244L8.95959 7.33215L9.09711 6.45698C9.10105 6.42573 9.10105 6.39447 9.09711 6.36322L9.06586 6.05066C9.04542 5.91391 8.96709 5.83365 8.83087 5.8099C8.69466 5.78614 8.59379 5.83514 8.52826 5.95689Z" fill="black"/>
<path d="M10.6969 14.1459C10.6969 14.2374 10.7292 14.3155 10.7939 14.3802C10.8586 14.4449 10.9367 14.4772 11.0282 14.4772C11.1197 14.4772 11.1978 14.4449 11.2625 14.3802C11.3272 14.3155 11.3595 14.2374 11.3595 14.1459C11.3595 14.0544 11.3272 13.9763 11.2625 13.9116C11.1978 13.8469 11.1197 13.8146 11.0282 13.8146C10.9367 13.8146 10.8586 13.8469 10.7939 13.9116C10.7292 13.9763 10.6969 14.0544 10.6969 14.1459ZM10.6469 14.1209L10.6406 14.2084C10.6396 14.2251 10.6396 14.2417 10.6406 14.2584L10.6469 14.5085C10.648 14.5253 10.6501 14.5419 10.6531 14.5585L10.7344 15.1148C10.7343 15.119 10.7343 15.1232 10.7344 15.1273L10.8844 15.99L11.0782 17.0465C11.0811 17.0655 11.0853 17.0842 11.0907 17.1027L11.4345 18.1654L11.5971 19.1218C11.6263 19.2926 11.7263 19.3634 11.8971 19.3342C12.0679 19.3051 12.1387 19.2051 12.1097 19.0343L11.9409 18.0779L11.9221 16.9652C11.9216 16.9442 11.9195 16.9234 11.9159 16.9027L11.7471 15.8462C11.7471 15.8441 11.7471 15.8421 11.7471 15.84L11.5971 14.9773C11.5971 14.9752 11.5971 14.9731 11.5971 14.9711L11.4908 14.4147C11.4891 14.4042 11.487 14.3938 11.4845 14.3834L11.4158 14.1459L11.397 14.0709C11.347 13.8622 11.2149 13.7651 11.0008 13.7793C10.7868 13.7936 10.6688 13.9075 10.6469 14.1209Z" fill="black"/>
<path d="M5.48345 20.9722L5.47095 21.041C5.46727 21.0616 5.46519 21.0825 5.4647 21.1035L5.45845 21.2785C5.45819 21.3145 5.46235 21.3499 5.47095 21.3848L5.53346 21.6661C5.5353 21.6745 5.53738 21.6828 5.53971 21.6911L5.65223 22.0662C5.65425 22.0704 5.65634 22.0745 5.65848 22.0787L5.83977 22.6038C5.83971 22.6079 5.83971 22.6121 5.83977 22.6163L6.12732 23.3727L6.5274 24.4166C6.53604 24.4403 6.54646 24.4633 6.55866 24.4854L7.19003 25.5918L7.59635 26.692C7.66808 26.8554 7.78732 26.9054 7.95407 26.8418C8.12082 26.7783 8.17661 26.6617 8.12145 26.492L7.71513 25.398L7.46508 24.1416C7.45878 24.1159 7.45044 24.0909 7.44007 24.0665L7.04 23.0226C7.03797 23.0184 7.03589 23.0142 7.03375 23.0101L6.72119 22.2662C6.71912 22.2641 6.71704 22.262 6.71494 22.26L6.5024 21.7661L6.37737 21.4348L6.31486 21.1972L6.28985 21.0472C6.28779 21.0451 6.28571 21.043 6.2836 21.041L6.2711 20.9722C6.23179 20.7525 6.10052 20.6426 5.87728 20.6426C5.65404 20.6426 5.52276 20.7525 5.48345 20.9722Z" fill="black"/>
<path d="M12.191 21.4661C12.191 21.5697 12.2276 21.6581 12.3008 21.7313C12.3741 21.8045 12.4625 21.8412 12.5661 21.8412C12.6696 21.8412 12.758 21.8045 12.8313 21.7313C12.9045 21.6581 12.9411 21.5697 12.9411 21.4661C12.9411 21.3625 12.9045 21.2741 12.8313 21.2009C12.758 21.1276 12.6696 21.091 12.5661 21.091C12.4625 21.091 12.3741 21.1276 12.3008 21.2009C12.2276 21.2741 12.191 21.3625 12.191 21.4661ZM12.116 21.3598L12.0347 21.5599C12.0195 21.6003 12.0091 21.642 12.0035 21.6849L11.9284 22.1475C11.9257 22.1641 11.9236 22.1807 11.9222 22.1975L11.8597 22.9914C11.8597 22.9935 11.8597 22.9955 11.8597 22.9976L11.7784 24.1291C11.7769 24.1541 11.7769 24.1791 11.7784 24.2041L11.8472 25.6169V26.9609L11.7159 28.0548C11.6951 28.234 11.7742 28.3341 11.9534 28.3549C12.1326 28.3757 12.2327 28.2966 12.2535 28.1174L12.3848 27.0234L12.6848 25.7044L13.0349 24.3291C13.0438 24.2963 13.0501 24.263 13.0537 24.2291L13.1474 23.0977C13.1478 23.0851 13.1478 23.0726 13.1474 23.0601L13.1787 22.2662C13.1786 22.2369 13.1765 22.2078 13.1724 22.1787L13.1224 21.7099C13.1184 21.6694 13.11 21.6298 13.0974 21.5911L13.0224 21.3848C12.9523 21.1697 12.8042 21.059 12.578 21.0528C12.3518 21.0465 12.1978 21.1489 12.116 21.3598Z" fill="black"/>
<path d="M6.06483 19.8845L6.08359 19.822C6.08365 19.8179 6.08365 19.8137 6.08359 19.8095L6.13985 19.5345L6.26487 19.0281L6.42115 18.3718C6.42331 18.3676 6.42539 18.3635 6.4274 18.3593L6.57118 17.6529C6.57535 17.6301 6.57743 17.6072 6.57743 17.5841L6.58993 16.9402L6.70245 16.4214C6.73984 16.2589 6.67732 16.159 6.51488 16.1215C6.35245 16.084 6.25244 16.1465 6.21486 16.3089L6.10234 16.834L5.84604 17.4278C5.83833 17.4461 5.83208 17.4648 5.82729 17.4841L5.646 18.178C5.64594 18.1821 5.64594 18.1863 5.646 18.1905L5.50222 18.8531C5.50012 18.8552 5.49803 18.8572 5.49597 18.8594L5.40221 19.3782L5.34594 19.6595C5.34042 19.6884 5.33834 19.7176 5.33969 19.747V19.8095C5.35024 20.0201 5.46038 20.1362 5.6701 20.1579C5.87982 20.1796 6.0114 20.0885 6.06483 19.8845Z" fill="black"/>
<path d="M5.31466 21.0285C5.31466 21.2202 5.41052 21.316 5.60222 21.316C5.79392 21.316 5.88977 21.2202 5.88977 21.0285C5.88977 20.8368 5.79392 20.7409 5.60222 20.7409C5.41052 20.7409 5.31466 20.8368 5.31466 21.0285ZM5.97729 21.0722L5.98979 21.0097C5.99062 20.9951 5.99062 20.9805 5.98979 20.9659L5.99604 20.7847L6.03355 20.3721L6.14607 19.6719C6.14876 19.6595 6.15084 19.647 6.15232 19.6344L6.20858 18.7093L6.40237 17.8278C6.43988 17.6653 6.37737 17.5653 6.21484 17.5278C6.0523 17.4903 5.95228 17.5528 5.91478 17.7153L5.71474 18.5967L5.38968 19.4719C5.38096 19.4963 5.37471 19.5213 5.37092 19.5469L5.25215 20.2533C5.24946 20.2657 5.24738 20.2782 5.2459 20.2908L5.20839 20.7284C5.2078 20.7409 5.2078 20.7534 5.20839 20.7659L5.21464 20.9659C5.21382 20.9805 5.21382 20.9951 5.21464 21.0097L5.22715 21.0722C5.26535 21.2806 5.39037 21.3848 5.60222 21.3848C5.81406 21.3848 5.93909 21.2806 5.97729 21.0722Z" fill="black"/>
<path d="M12.4097 21.5536L12.4535 21.5161C12.5455 21.4499 12.5955 21.3603 12.6035 21.2473L12.616 20.966C12.6161 20.9639 12.6161 20.9618 12.616 20.9597L12.6348 20.4909C12.635 20.4826 12.635 20.4742 12.6348 20.4659L12.6223 19.8783C12.6209 19.8636 12.6188 19.849 12.616 19.8345L12.5348 19.1469C12.5322 19.1237 12.528 19.1008 12.5223 19.0781L12.316 18.3217C12.3124 18.309 12.3083 18.2965 12.3035 18.2842L12.0472 17.6028L11.9597 16.9965C11.9346 16.834 11.8408 16.7653 11.6784 16.7903C11.5159 16.8153 11.4472 16.909 11.4721 17.0715L11.5596 17.6779L11.5283 18.4092C11.5282 18.4155 11.5282 18.4217 11.5283 18.428V19.2094C11.5288 19.2325 11.5309 19.2554 11.5346 19.2782L11.6284 19.9595C11.6283 19.9637 11.6283 19.9679 11.6284 19.972L11.7284 20.5534C11.7302 20.5618 11.7323 20.5701 11.7346 20.5784L11.8346 21.0285L11.8846 21.2973C11.906 21.4051 11.9644 21.4864 12.0597 21.5411L12.1097 21.5723C12.2138 21.6314 12.3138 21.6251 12.4097 21.5536Z" fill="black"/>
<path d="M9.14095 2.96218C9.14095 3.16639 9.24305 3.26849 9.44726 3.26849C9.65146 3.26849 9.75357 3.16639 9.75357 2.96218C9.75357 2.75798 9.65146 2.65587 9.44726 2.65587C9.24305 2.65587 9.14095 2.75798 9.14095 2.96218ZM9.20971 3.19973L9.22847 3.21848L9.24097 3.23098L9.25347 3.26224L9.28473 3.39351L9.30973 3.72483L9.34099 4.43121C9.34076 4.43955 9.34076 4.44788 9.34099 4.45622L9.45351 5.53142C9.45519 5.55889 9.45936 5.58598 9.46601 5.61269L9.81608 6.80666L9.96611 7.93813C9.98694 8.10066 10.0786 8.17151 10.2412 8.15067C10.4037 8.12983 10.4745 8.03815 10.4537 7.87562L10.2974 6.74415L10.3474 5.50642C10.3468 5.48543 10.3447 5.4646 10.3412 5.4439L10.2412 4.3687C10.2394 4.35821 10.2374 4.34779 10.2349 4.33744L10.1161 3.63106C10.113 3.61412 10.1089 3.59745 10.1036 3.58105L9.99736 3.23098C9.99234 3.21385 9.98609 3.19718 9.97861 3.18097L9.89109 2.99344C9.88358 2.98039 9.87524 2.96789 9.86609 2.95593L9.80358 2.86216C9.79608 2.8491 9.78774 2.8366 9.77857 2.82466L9.73481 2.77465C9.72692 2.76587 9.71858 2.75754 9.70981 2.74964L9.6848 2.72464C9.52713 2.59523 9.37618 2.60265 9.23195 2.74688C9.08772 2.89111 9.08031 3.04206 9.20971 3.19973Z" fill="black"/>
<path d="M9.24726 2.87466C9.24726 3.07053 9.34519 3.16846 9.54106 3.16846C9.73694 3.16846 9.83487 3.07053 9.83487 2.87466C9.83487 2.67879 9.73694 2.58085 9.54106 2.58085C9.34519 2.58085 9.24726 2.67879 9.24726 2.87466ZM9.22851 2.74338L9.20975 2.78714L9.15349 2.89341C9.14153 2.91131 9.13112 2.93007 9.12223 2.94967L9.00346 3.27473C8.99542 3.29717 8.98916 3.32009 8.98471 3.3435L8.86594 3.96237C8.86573 3.9707 8.86573 3.97904 8.86594 3.98737L8.73466 4.92505C8.72874 4.96025 8.72665 4.99567 8.72841 5.03132L8.80968 6.09402L8.6659 7.06921C8.64096 7.24002 8.7139 7.33793 8.8847 7.36292C9.05551 7.38792 9.15344 7.31502 9.1785 7.14422L9.31602 6.16278L9.68484 5.16259C9.69668 5.13013 9.70501 5.09679 9.70985 5.06257L9.84112 4.1249C9.84369 4.11247 9.84577 4.09997 9.84737 4.08739L9.89113 3.46227C9.89183 3.44768 9.89183 3.4331 9.89113 3.41851L9.88488 3.0747C9.88415 3.05579 9.88206 3.03704 9.87863 3.01844L9.85362 2.88716C9.84592 2.92884 9.84592 2.97051 9.85362 3.01218L9.85988 2.95592C9.89065 2.76735 9.81549 2.64259 9.63442 2.58163C9.45334 2.52068 9.31803 2.57459 9.22851 2.74338Z" fill="black"/>
<path d="M8.84717 3.41229C8.84717 3.59982 8.94094 3.69359 9.12847 3.69359C9.31601 3.69359 9.40978 3.59982 9.40978 3.41229C9.40978 3.22475 9.31601 3.13098 9.12847 3.13098C8.94094 3.13098 8.84717 3.22475 8.84717 3.41229ZM8.78466 3.41229L8.77215 3.51856L8.73465 3.71859L8.62838 4.13742C8.62604 4.14569 8.62395 4.15403 8.62213 4.16243L8.4721 4.91882C8.46978 4.9271 8.4677 4.93543 8.46585 4.94383L8.30331 6.06279C8.30298 6.07321 8.30298 6.08363 8.30331 6.09405L8.19704 7.4318C8.19648 7.4443 8.19648 7.4568 8.19704 7.46931L8.2158 8.80706L8.09703 9.93853C8.0805 10.1051 8.15552 10.1967 8.32209 10.2134C8.48866 10.23 8.58033 10.1551 8.59712 9.98854L8.70964 8.86332L9.0222 7.55682C9.02454 7.54855 9.02663 7.54022 9.02845 7.53182L9.2535 6.21282C9.25362 6.20657 9.25362 6.20032 9.2535 6.19406L9.40352 5.0751C9.40387 5.06468 9.40387 5.05426 9.40352 5.04385L9.45353 4.2687C9.45409 4.2562 9.45409 4.24369 9.45353 4.23119L9.44103 3.79986L9.45353 3.59357L9.45978 3.4873C9.45091 3.29152 9.34907 3.18281 9.15429 3.16116C8.95951 3.13952 8.8363 3.22323 8.78466 3.41229Z" fill="black"/>
</g>
<defs>
<clipPath id="clip0_1_7248">
<rect width="21" height="38" fill="white"/>
</clipPath>
</defs>
</svg>
