<svg width="35" height="38" viewBox="0 0 35 38" fill="none" xmlns="http://www.w3.org/2000/svg">
<g clip-path="url(#clip0_1_7265)">
<path d="M7.87074 23.646C7.87074 23.8544 7.97493 23.9585 8.1833 23.9585C8.39168 23.9585 8.49586 23.8544 8.49586 23.646C8.49586 23.4376 8.39168 23.3334 8.1833 23.3334C7.97493 23.3334 7.87074 23.4376 7.87074 23.646ZM7.76447 23.721L7.77073 23.7648C7.78347 23.8386 7.81264 23.9053 7.85824 23.9648L7.98327 24.1336C7.99696 24.1491 8.01154 24.1636 8.02702 24.1773L8.37709 24.5462C8.40216 24.5715 8.42925 24.5944 8.45836 24.6149L9.221 25.1713C9.24489 25.1896 9.2699 25.2063 9.29602 25.2213L10.4775 25.8652C10.4939 25.8721 10.5106 25.8783 10.5275 25.8839L12.0403 26.559C12.0706 26.5739 12.1019 26.5864 12.1341 26.5965L13.9469 27.0966C13.9593 27.0992 13.9718 27.1013 13.9844 27.1029L15.841 27.4655L17.3726 27.9531C17.5193 27.9891 17.616 27.9353 17.6626 27.7915C17.7093 27.6478 17.6626 27.5474 17.5226 27.4905L15.991 27.0091L14.2907 26.1777L12.6029 25.3526C12.5987 25.3504 12.5946 25.3483 12.5904 25.3463L11.1089 24.6587L9.93989 24.0273C9.9378 24.0273 9.93572 24.0273 9.93364 24.0273L9.09598 23.5897C9.08567 23.5853 9.07526 23.5811 9.06472 23.5772L8.60213 23.3647L8.4146 23.2772C8.37673 23.2592 8.33714 23.2467 8.29583 23.2397L8.25207 23.2334C8.10891 23.2102 7.98605 23.2499 7.88351 23.3524C7.78096 23.455 7.74128 23.5778 7.76447 23.721Z" fill="black"/>
<path d="M10.8463 24.4774C10.8463 24.6733 10.9442 24.7712 11.1401 24.7712C11.3359 24.7712 11.4339 24.6733 11.4339 24.4774C11.4339 24.2815 11.3359 24.1836 11.1401 24.1836C10.9442 24.1836 10.8463 24.2815 10.8463 24.4774ZM10.7025 24.4836C10.7025 24.6045 10.7452 24.7076 10.8307 24.7931C10.9161 24.8785 11.0192 24.9212 11.1401 24.9212C11.2609 24.9212 11.364 24.8785 11.4495 24.7931C11.5349 24.7076 11.5777 24.6045 11.5777 24.4836C11.5777 24.3628 11.5349 24.2597 11.4495 24.1742C11.364 24.0888 11.2609 24.0461 11.1401 24.0461C11.0192 24.0461 10.9161 24.0888 10.8307 24.1742C10.7452 24.2597 10.7025 24.3628 10.7025 24.4836ZM10.6775 24.7149L10.765 24.9275C10.8036 25.0246 10.862 25.108 10.94 25.1775L11.3714 25.5651C11.4008 25.5905 11.4321 25.6134 11.4651 25.6339L12.2715 26.1465C12.2918 26.1599 12.3126 26.1724 12.3341 26.184L13.4968 26.7841C13.5211 26.7979 13.5461 26.8104 13.5718 26.8216L15.0158 27.3967C15.0383 27.4061 15.0613 27.4145 15.0846 27.4217L16.6099 27.8718C16.6161 27.8719 16.6224 27.8719 16.6286 27.8718L18.0539 28.2594C18.056 28.2594 18.0581 28.2594 18.0601 28.2594L19.2791 28.5844C19.2833 28.5845 19.2875 28.5845 19.2916 28.5844L20.2043 28.797L20.7919 29.0283C20.9378 29.0866 21.0399 29.0428 21.0982 28.897C21.1566 28.7511 21.1128 28.649 20.9669 28.5907L20.3731 28.3594L19.5542 27.8968C19.5481 27.8924 19.5418 27.8883 19.5354 27.8843L18.3977 27.3404L17.0662 26.6966L15.6284 26.0027C15.6243 26.0006 15.6201 25.9985 15.6159 25.9964L14.2094 25.3588L13.0529 24.7774L12.2028 24.3461C12.1986 24.344 12.1945 24.3419 12.1903 24.3399L11.6652 24.0898C11.6038 24.0589 11.5392 24.0381 11.4714 24.0273L11.2463 23.996C11.153 23.983 11.0625 23.994 10.975 24.029C10.8875 24.0641 10.8145 24.1186 10.756 24.1925C10.6975 24.2665 10.6612 24.3501 10.6472 24.4433C10.6332 24.5365 10.6433 24.6271 10.6775 24.7149Z" fill="black"/>
<path d="M13.6968 25.9277C13.6968 26.0261 13.7316 26.1101 13.8012 26.1796C13.8708 26.2492 13.9548 26.284 14.0532 26.284C14.1516 26.284 14.2355 26.2492 14.3051 26.1796C14.3747 26.1101 14.4095 26.0261 14.4095 25.9277C14.4095 25.8293 14.3747 25.7453 14.3051 25.6757C14.2355 25.6061 14.1516 25.5714 14.0532 25.5714C13.9548 25.5714 13.8708 25.6061 13.8012 25.6757C13.7316 25.7453 13.6968 25.8293 13.6968 25.9277ZM13.6406 25.8652L13.6343 25.8964C13.6055 26.0869 13.6639 26.2453 13.8094 26.3715L14.0719 26.5903C14.084 26.6012 14.0965 26.6116 14.1094 26.6216L14.7033 27.0529C14.7331 27.074 14.7644 27.0928 14.7971 27.1091L15.816 27.628C15.8304 27.6347 15.845 27.641 15.8598 27.6468L17.135 28.2031C17.1514 28.21 17.1681 28.2162 17.185 28.2219L18.5478 28.7095C18.5602 28.714 18.5727 28.7181 18.5853 28.722L19.8793 29.097C19.8958 29.1019 19.9124 29.1061 19.9293 29.1095L21.0107 29.3221C21.0272 29.3271 21.0439 29.3313 21.0607 29.3346L21.8859 29.4158C21.9067 29.4176 21.9276 29.4176 21.9484 29.4158L22.4735 29.3846L22.7923 29.4158C22.9465 29.4283 23.0299 29.3575 23.0424 29.2033C23.0549 29.0491 22.984 28.9658 22.8298 28.9533L22.5423 28.9282L22.0797 28.7157C22.0756 28.7135 22.0714 28.7115 22.0672 28.7095L21.3045 28.3844L20.2919 27.9468C20.2898 27.9468 20.2877 27.9468 20.2856 27.9468L19.0479 27.428L17.7226 26.8529L16.4599 26.284L15.4159 25.8152C15.3934 25.8056 15.3705 25.7973 15.3472 25.7901L14.6595 25.5589C14.6451 25.5541 14.6305 25.55 14.6158 25.5464L14.2845 25.4651C14.0776 25.4102 13.9025 25.4622 13.7594 25.6214L13.7406 25.6464C13.6857 25.7095 13.6524 25.7824 13.6406 25.8652Z" fill="black"/>
<path d="M19.723 28.3344C19.723 28.4397 19.7602 28.5295 19.8346 28.604C19.9091 28.6784 19.999 28.7157 20.1043 28.7157C20.2096 28.7157 20.2995 28.6784 20.3739 28.604C20.4484 28.5295 20.4856 28.4397 20.4856 28.3344C20.4856 28.2291 20.4484 28.1392 20.3739 28.0647C20.2995 27.9903 20.2096 27.953 20.1043 27.953C19.999 27.953 19.9091 27.9903 19.8346 28.0647C19.7602 28.1392 19.723 28.2291 19.723 28.3344ZM19.6792 28.3469C19.6792 28.4677 19.7219 28.5708 19.8074 28.6563C19.8928 28.7417 19.996 28.7844 20.1168 28.7844C20.2376 28.7844 20.3408 28.7417 20.4262 28.6563C20.5116 28.5708 20.5544 28.4677 20.5544 28.3469C20.5544 28.226 20.5116 28.1229 20.4262 28.0374C20.3408 27.952 20.2376 27.9093 20.1168 27.9093C19.996 27.9093 19.8928 27.952 19.8074 28.0374C19.7219 28.1229 19.6792 28.226 19.6792 28.3469ZM19.7792 28.7969L19.923 28.9407C19.9728 28.9895 20.029 29.0291 20.0918 29.0595L20.3981 29.2158C20.4323 29.2334 20.4677 29.248 20.5044 29.2595L20.9795 29.3971C21.0082 29.4052 21.0374 29.4114 21.067 29.4158L21.6608 29.5096C21.6919 29.5138 21.7232 29.5159 21.7546 29.5158L22.411 29.5346C22.4572 29.535 22.5031 29.5308 22.5485 29.5221L23.1736 29.4033C23.3186 29.3772 23.4415 29.3106 23.5424 29.2033L23.8863 28.8345C23.9049 28.8152 23.9216 28.7944 23.9363 28.7719L24.1426 28.4406L24.3738 28.2156C24.486 28.1031 24.4859 27.9906 24.3735 27.8783C24.2612 27.766 24.1488 27.7659 24.0363 27.878L23.8487 28.0718L23.5612 28.1218L23.1174 28.0843C23.0757 28.0804 23.034 28.0804 22.9923 28.0843L22.3985 28.1343L21.8234 28.1281L21.2983 28.0531L20.8544 27.953L20.5231 27.8718C20.5025 27.8666 20.4816 27.8624 20.4606 27.8593L20.2668 27.828C19.9926 27.7838 19.793 27.8858 19.6682 28.1339C19.5433 28.382 19.5803 28.603 19.7792 28.7969Z" fill="black"/>
<path d="M23.1486 28.9283L23.1361 28.972C23.0825 29.1227 23.1034 29.2624 23.1986 29.3909L23.4237 29.6847C23.4475 29.7169 23.4746 29.7461 23.5049 29.7722L24.7427 30.7849C24.7508 30.7914 24.7592 30.7976 24.7677 30.8036L25.5741 31.3912C25.5802 31.3955 25.5865 31.3997 25.5928 31.4037L26.3492 31.8976L26.9243 32.3102C26.9304 32.3146 26.9367 32.3187 26.9431 32.3227L27.2744 32.529L27.3994 32.6602C27.4993 32.7346 27.595 32.7296 27.6865 32.6451C27.778 32.5606 27.7906 32.4657 27.7245 32.3602L27.5932 32.2164L27.3557 31.8788C27.348 31.8679 27.3397 31.8574 27.3307 31.8476L26.8368 31.3225L26.2117 30.6661C26.2037 30.6575 26.1953 30.6491 26.1867 30.6411L25.4491 29.966C25.4409 29.9595 25.4326 29.9532 25.4241 29.9472L24.1738 28.947C24.1448 28.9228 24.1135 28.902 24.08 28.8845L23.755 28.722C23.6298 28.6583 23.5027 28.6542 23.3737 28.7095L23.3299 28.7345C23.2419 28.7732 23.1814 28.8378 23.1486 28.9283Z" fill="black"/>
<path d="M26.3617 30.8911L26.3055 30.7911C26.2933 30.7686 26.2787 30.7477 26.2617 30.7286L26.0429 30.4848C26.0313 30.4714 26.0188 30.4589 26.0054 30.4473L25.149 29.7159L24.6927 29.3283L24.3238 28.9845L24.0925 28.772C23.9667 28.6545 23.8183 28.6059 23.6474 28.6261C23.4764 28.6464 23.3435 28.7284 23.2486 28.872L23.2174 28.9095C23.0594 29.1514 23.0761 29.3806 23.2674 29.5971L23.5487 29.9159C23.5528 29.9202 23.557 29.9243 23.5612 29.9284L24.0863 30.4911C24.0883 30.4952 24.0904 30.4994 24.0925 30.5036L24.7489 31.1724C24.7551 31.1767 24.7613 31.1809 24.7677 31.1849L25.4303 31.8038L25.9491 32.3164L26.2492 32.6665C26.2659 32.6854 26.2847 32.7021 26.3055 32.7165L26.4742 32.8352L26.5118 32.879C26.6099 32.983 26.7156 32.9915 26.8291 32.9045C26.9425 32.8175 26.9618 32.7132 26.8868 32.5915L26.8556 32.5414L26.7806 32.3477C26.7687 32.3158 26.752 32.2866 26.7305 32.2601L26.4367 31.9038L26.0179 31.3037L25.4991 30.5536C25.4951 30.5451 25.491 30.5368 25.4866 30.5286L24.9052 29.7909C24.9012 29.7846 24.897 29.7783 24.8927 29.7722L24.3989 29.1908L24.1301 28.8657C24.0902 29.0443 24.1277 29.2047 24.2426 29.3471L24.2551 29.3033C24.0924 29.2105 23.9254 29.202 23.7541 29.2778C23.5828 29.3536 23.4768 29.483 23.4362 29.6659L23.6987 29.8097L24.105 30.0785L24.5926 30.4223C24.5967 30.4265 24.6009 30.4307 24.6051 30.4348L25.5428 31.0599C25.5489 31.0643 25.5552 31.0684 25.5616 31.0724L25.8491 31.2412C25.8633 31.2485 25.8779 31.2548 25.8929 31.2599L26.0054 31.3037C26.1306 31.3466 26.2364 31.3179 26.3229 31.2178C26.4094 31.1176 26.4223 31.0087 26.3617 30.8911Z" fill="black"/>
<path d="M25.0365 30.8161C25.0365 30.9911 25.124 31.0786 25.299 31.0786C25.4741 31.0786 25.5616 30.9911 25.5616 30.8161C25.5616 30.6411 25.4741 30.5535 25.299 30.5535C25.124 30.5535 25.0365 30.6411 25.0365 30.8161ZM24.8989 30.8348L24.9052 30.9349C24.9102 31.0096 24.9331 31.0784 24.974 31.1411L25.1427 31.3912C25.156 31.409 25.1706 31.4257 25.1865 31.4412L25.4553 31.7288C25.4723 31.7475 25.491 31.7641 25.5116 31.7788L25.8054 31.9851L25.9929 32.2414C26.0721 32.3537 26.1679 32.3703 26.2803 32.2912C26.3928 32.2121 26.4095 32.1163 26.3305 32.0038L26.1492 31.7413L26.0492 31.3974C26.0459 31.3826 26.0418 31.368 26.0367 31.3537L25.8804 30.9911C25.8717 30.9694 25.8613 30.9486 25.8491 30.9286L25.6928 30.6786C25.6662 30.6351 25.6328 30.5976 25.5928 30.566L25.5178 30.5035C25.3861 30.4052 25.2479 30.3949 25.103 30.4724C24.9582 30.55 24.8902 30.6708 24.8989 30.8348Z" fill="black"/>
<path d="M24.1926 24.5961C24.1926 24.6962 24.228 24.7817 24.2988 24.8525C24.3696 24.9233 24.455 24.9587 24.5551 24.9587C24.6553 24.9587 24.7407 24.9233 24.8115 24.8525C24.8823 24.7817 24.9177 24.6962 24.9177 24.5961C24.9177 24.496 24.8823 24.4105 24.8115 24.3398C24.7407 24.269 24.6553 24.2336 24.5551 24.2336C24.455 24.2336 24.3696 24.269 24.2988 24.3398C24.228 24.4105 24.1926 24.496 24.1926 24.5961ZM24.1113 24.5961C24.1113 24.717 24.154 24.8201 24.2395 24.9055C24.3249 24.991 24.428 25.0337 24.5489 25.0337C24.6697 25.0337 24.7729 24.991 24.8583 24.9055C24.9437 24.8201 24.9865 24.717 24.9865 24.5961C24.9865 24.4753 24.9437 24.3722 24.8583 24.2867C24.7729 24.2013 24.6697 24.1585 24.5489 24.1585C24.428 24.1585 24.3249 24.2013 24.2395 24.2867C24.154 24.3722 24.1113 24.4753 24.1113 24.5961ZM24.0488 24.7086L24.0613 24.7837C24.09 24.924 24.1587 25.0407 24.2676 25.1337L24.5051 25.34C24.5092 25.3442 24.5134 25.3484 24.5176 25.3525L24.9802 25.7276L25.6866 26.2965C25.6907 26.2986 25.6949 26.3007 25.6991 26.3027L26.593 27.0028C26.613 27.0186 26.6339 27.0332 26.6555 27.0466L27.662 27.6592C27.6701 27.6657 27.6785 27.672 27.687 27.678L28.5934 28.1593L29.256 28.5344L29.6749 28.8532C29.7872 28.9173 29.8834 28.8985 29.9633 28.7968C30.0433 28.695 30.0388 28.5971 29.9499 28.5031L29.5311 28.1781L29.006 27.628L28.3371 26.8591C28.333 26.8548 28.3288 26.8507 28.3246 26.8466L27.5182 25.9901C27.4987 25.968 27.4779 25.9471 27.4557 25.9276L26.5805 25.2025C26.5703 25.1939 26.5599 25.1855 26.5493 25.1775L25.8241 24.6399C25.8139 24.6312 25.8035 24.6229 25.7929 24.6149L25.3053 24.2898C25.2812 24.2736 25.2562 24.259 25.2303 24.2461L24.9552 24.1085C24.804 24.0326 24.6477 24.0201 24.4864 24.071L24.4051 24.096C24.2764 24.1378 24.178 24.2172 24.1099 24.3343C24.0418 24.4513 24.0215 24.5761 24.0488 24.7086Z" fill="black"/>
<path d="M25.6491 25.6776C25.6734 25.8411 25.7683 25.9229 25.9336 25.9229C26.0989 25.9229 26.1937 25.8411 26.218 25.6776C26.1937 25.5141 26.0989 25.4323 25.9336 25.4323C25.7683 25.4323 25.6734 25.5141 25.6491 25.6776ZM26.2617 25.7901L26.268 25.7651C26.3143 25.6324 26.2987 25.5075 26.2211 25.3903C26.1435 25.2731 26.0346 25.2099 25.8944 25.2008C25.7541 25.1916 25.6379 25.2401 25.5457 25.3463C25.4536 25.4524 25.4219 25.5742 25.4506 25.7118C25.4793 25.8494 25.5571 25.9484 25.684 26.0088C25.8109 26.0692 25.9368 26.0672 26.0617 26.0027L26.0867 25.9902C26.1713 25.9465 26.2297 25.8798 26.2617 25.7901ZM25.2803 25.5713C25.2803 25.7198 25.3328 25.8465 25.4378 25.9515C25.5427 26.0565 25.6695 26.1089 25.8179 26.1089C25.9664 26.1089 26.0931 26.0565 26.1981 25.9515C26.303 25.8465 26.3555 25.7198 26.3555 25.5713C26.3555 25.4229 26.303 25.2962 26.1981 25.1912C26.0931 25.0862 25.9664 25.0337 25.8179 25.0337C25.6695 25.0337 25.5427 25.0862 25.4378 25.1912C25.3328 25.2962 25.2803 25.4229 25.2803 25.5713ZM25.3866 26.0089L25.5679 26.209C25.5894 26.2313 25.6123 26.2522 25.6366 26.2715L26.0867 26.6528C26.0908 26.657 26.095 26.6612 26.0992 26.6653L26.8056 27.2404L27.5995 27.9093C27.6036 27.9135 27.6078 27.9177 27.612 27.9218L28.4059 28.5594C28.4141 28.5659 28.4224 28.5721 28.4309 28.5782L29.1248 29.0845C29.1269 29.0866 29.1289 29.0887 29.131 29.0908L29.6499 29.4658C29.66 29.4745 29.6704 29.4829 29.6811 29.4908L30.0312 29.7034C30.093 29.7405 30.1597 29.7635 30.2313 29.7721L30.375 29.7909C30.4864 29.8151 30.59 29.7963 30.6858 29.7347C30.7816 29.673 30.8416 29.5866 30.8658 29.4752C30.8899 29.3639 30.8712 29.2603 30.8095 29.1645C30.7479 29.0687 30.6614 29.0087 30.5501 28.9845L30.4751 28.9595C30.5158 29.0005 30.5637 29.0297 30.6188 29.047L30.35 28.772L29.9062 28.3281L29.3561 27.778C29.3521 27.7717 29.3479 27.7654 29.3436 27.7593L28.7435 27.2217C28.7353 27.2151 28.727 27.2089 28.7185 27.2029L28.1496 26.7528C28.1435 26.7485 28.1372 26.7443 28.1309 26.7403L27.6933 26.4215L27.4807 26.2402C27.2602 26.0444 27.0279 26.0292 26.7837 26.1947C26.5396 26.3603 26.4677 26.5817 26.5681 26.8591L26.5993 26.9404C26.6307 27.0403 26.6848 27.1257 26.7618 27.1967L27.1244 27.5155C27.1305 27.5219 27.1368 27.5281 27.1432 27.5342L27.7245 27.9968C27.7443 28.0129 27.7652 28.0275 27.787 28.0406L28.4684 28.4406C28.4746 28.4429 28.4809 28.445 28.4872 28.4469L29.0748 28.747L29.4686 29.0658C29.5798 29.1242 29.6752 29.1049 29.755 29.0078C29.8347 28.9108 29.8351 28.8134 29.7562 28.7157L29.3686 28.3969L28.9748 27.8718C28.9707 27.8675 28.9665 27.8634 28.9623 27.8593L28.4747 27.2467C28.463 27.2314 28.4505 27.2168 28.4372 27.2029L27.9183 26.6778C27.9142 26.6757 27.91 26.6736 27.9058 26.6716L27.5933 26.3652L27.562 26.3215C27.2881 26.2011 27.0607 26.26 26.8799 26.4983C26.699 26.7367 26.7034 26.9715 26.8931 27.2029L27.1307 27.3029L27.5745 27.5717L28.1746 27.9593L28.831 28.3969L29.4311 28.8532L29.8624 29.247L30.1062 29.5221C30.1203 29.4183 30.0932 29.3266 30.025 29.247L30.0125 29.3283C30.0784 29.547 30.2249 29.6441 30.452 29.6194C30.6791 29.5948 30.8014 29.4686 30.8189 29.2408L30.7689 29.1095C30.7497 29.0499 30.7206 28.9958 30.6813 28.947L30.4188 28.6344C30.4088 28.6236 30.3984 28.6132 30.3875 28.6032L29.9374 28.1468C29.9354 28.1447 29.9333 28.1427 29.9312 28.1406L29.3248 27.5342C29.3186 27.53 29.3124 27.5258 29.3061 27.5217L28.5684 26.8216C28.5602 26.8152 28.5519 26.8089 28.5434 26.8028L27.7558 26.1152C27.7516 26.1131 27.7475 26.111 27.7433 26.1089L27.0431 25.5213C27.0212 25.5034 26.9983 25.4867 26.9744 25.4713L26.4805 25.1463C26.4355 25.1157 26.3876 25.0907 26.3368 25.0713L26.0867 24.9775C25.9475 24.9212 25.806 24.9149 25.6623 24.9586C25.5186 25.0023 25.4046 25.0863 25.3202 25.2105C25.2359 25.3348 25.1999 25.4718 25.2124 25.6215C25.2248 25.7711 25.2829 25.9003 25.3866 26.0089Z" fill="black"/>
<path d="M26.568 33.8792C26.568 34.0792 26.668 34.1792 26.868 34.1792C27.0681 34.1792 27.1681 34.0792 27.1681 33.8792C27.1681 33.6791 27.0681 33.5791 26.868 33.5791C26.668 33.5791 26.568 33.6791 26.568 33.8792ZM26.5492 33.8854C26.5492 34.098 26.6555 34.2042 26.868 34.2042C27.0806 34.2042 27.1869 34.098 27.1869 33.8854C27.1869 33.6729 27.0806 33.5666 26.868 33.5666C26.6555 33.5666 26.5492 33.6729 26.5492 33.8854ZM26.5117 33.8979C26.5117 33.998 26.5471 34.0835 26.6179 34.1543C26.6887 34.2251 26.7742 34.2605 26.8743 34.2605C26.9744 34.2605 27.0599 34.2251 27.1307 34.1543C27.2015 34.0835 27.2369 33.998 27.2369 33.8979C27.2369 33.7978 27.2015 33.7123 27.1307 33.6415C27.0599 33.5707 26.9744 33.5353 26.8743 33.5353C26.7742 33.5353 26.6887 33.5707 26.6179 33.6415C26.5471 33.7123 26.5117 33.7978 26.5117 33.8979ZM26.4805 33.9167C26.4807 34.0304 26.5211 34.1275 26.6016 34.2079C26.6821 34.2883 26.7793 34.3284 26.893 34.3284C27.0068 34.3284 27.104 34.2883 27.1845 34.2079C27.265 34.1275 27.3054 34.0304 27.3056 33.9167C27.3054 33.8029 27.265 33.7058 27.1845 33.6254C27.104 33.5451 27.0068 33.5049 26.893 33.5049C26.7793 33.5049 26.6821 33.5451 26.6016 33.6254C26.5211 33.7058 26.4807 33.8029 26.4805 33.9167ZM26.9556 34.3793H26.9931C27.1623 34.3681 27.2957 34.2931 27.3931 34.1542L27.4682 34.0542C27.4943 34.0152 27.5151 33.9735 27.5307 33.9292L27.5932 33.7666C27.6084 33.7262 27.6188 33.6845 27.6244 33.6416L27.6494 33.4103C27.6584 33.3474 27.6564 33.2849 27.6432 33.2228L27.5807 32.9727L27.5307 32.6664C27.529 32.6559 27.5269 32.6455 27.5244 32.6352L27.4494 32.2976C27.4442 32.2805 27.438 32.2639 27.4306 32.2476L27.3119 31.9413C27.3085 31.9265 27.3043 31.9119 27.2994 31.8975L27.1743 31.6537C27.1669 31.6386 27.1586 31.6241 27.1493 31.61L27.0306 31.4349C27.0227 31.4241 27.0144 31.4137 27.0056 31.4037L26.9243 31.3037C26.9163 31.295 26.908 31.2866 26.8993 31.2787L26.843 31.2224C26.7229 31.104 26.5826 31.0704 26.4219 31.1216C26.2612 31.1728 26.1661 31.2814 26.1367 31.4474V31.4725C26.1139 31.6036 26.1451 31.7203 26.2304 31.8225L26.3429 31.9538C26.3509 31.9625 26.3593 31.9708 26.3679 31.9788L26.5742 32.1851C26.5968 32.2089 26.6218 32.2297 26.6492 32.2476L26.9306 32.4226C26.9326 32.4226 26.9347 32.4226 26.9368 32.4226L27.1618 32.5602L27.2994 32.7164C27.3952 32.829 27.4994 32.8373 27.6119 32.7414C27.7245 32.6456 27.7328 32.5414 27.6369 32.4289L27.4932 32.2664L27.3931 32.0226C27.3911 32.0183 27.3891 32.0142 27.3869 32.0101L27.2431 31.71C27.2291 31.6832 27.2125 31.6582 27.1931 31.635L27.0181 31.4037C27.0119 31.3994 27.0057 31.3952 26.9993 31.3912L26.8868 31.2599C26.8514 31.2187 26.8097 31.1854 26.7618 31.1599L26.743 31.1474C26.5254 31.0512 26.3518 31.1029 26.2223 31.3025C26.0928 31.5022 26.1163 31.6818 26.2929 31.8413L26.3117 31.86L26.3554 31.91L26.4492 32.0538L26.5555 32.2539L26.6618 32.5164L26.7243 32.7727L26.7118 32.9477L26.6367 33.1103C26.6247 33.1325 26.6143 33.1554 26.6055 33.179L26.5367 33.3978C26.5367 33.3999 26.5367 33.402 26.5367 33.4041L26.4805 33.5666C26.4757 33.581 26.4715 33.5956 26.468 33.6104L26.443 33.7291C26.421 33.8289 26.4272 33.9268 26.4617 34.0229L26.4742 34.0604C26.5534 34.2895 26.7138 34.3957 26.9556 34.3793Z" fill="black"/>
<path d="M23.0486 28.4719C23.0486 28.6886 23.157 28.797 23.3737 28.797C23.5904 28.797 23.6987 28.6886 23.6987 28.4719C23.6987 28.2552 23.5904 28.1468 23.3737 28.1468C23.157 28.1468 23.0486 28.2552 23.0486 28.4719ZM23.0111 28.4782C23.0113 28.5781 23.0468 28.6634 23.1175 28.7341C23.1883 28.8047 23.2737 28.84 23.3737 28.84C23.4736 28.84 23.559 28.8047 23.6298 28.7341C23.7006 28.6634 23.736 28.5781 23.7362 28.4782C23.736 28.3782 23.7006 28.2929 23.6298 28.2222C23.559 28.1516 23.4736 28.1163 23.3737 28.1163C23.2737 28.1163 23.1883 28.1516 23.1175 28.2222C23.0468 28.2929 23.0113 28.3782 23.0111 28.4782ZM22.9673 28.4969C22.9673 28.6091 23.007 28.7049 23.0863 28.7842C23.1657 28.8636 23.2615 28.9032 23.3737 28.9032C23.4859 28.9032 23.5816 28.8636 23.661 28.7842C23.7403 28.7049 23.78 28.6091 23.78 28.4969C23.78 28.3847 23.7403 28.2889 23.661 28.2096C23.5816 28.1303 23.4859 28.0906 23.3737 28.0906C23.2615 28.0906 23.1657 28.1303 23.0863 28.2096C23.007 28.2889 22.9673 28.3847 22.9673 28.4969ZM22.9236 28.5094C22.9236 28.6354 22.9681 28.743 23.0572 28.8321C23.1463 28.9212 23.2539 28.9658 23.3799 28.9658C23.5059 28.9658 23.6135 28.9212 23.7026 28.8321C23.7917 28.743 23.8363 28.6354 23.8363 28.5094C23.8363 28.3834 23.7917 28.2758 23.7026 28.1867C23.6135 28.0976 23.5059 28.0531 23.3799 28.0531C23.2539 28.0531 23.1463 28.0976 23.0572 28.1867C22.9681 28.2758 22.9236 28.3834 22.9236 28.5094ZM22.8986 28.5344C22.8986 28.6708 22.9468 28.7872 23.0432 28.8836C23.1396 28.9801 23.256 29.0283 23.3924 29.0283C23.5288 29.0283 23.6452 28.9801 23.7416 28.8836C23.838 28.7872 23.8863 28.6708 23.8863 28.5344C23.8863 28.3981 23.838 28.2816 23.7416 28.1852C23.6452 28.0888 23.5288 28.0406 23.3924 28.0406C23.256 28.0406 23.1396 28.0888 23.0432 28.1852C22.9468 28.2816 22.8986 28.3981 22.8986 28.5344ZM22.8611 28.5657C22.8611 28.7176 22.9148 28.8472 23.0222 28.9547C23.1296 29.0621 23.2593 29.1158 23.4112 29.1158C23.5631 29.1158 23.6927 29.0621 23.8002 28.9547C23.9076 28.8472 23.9613 28.7176 23.9613 28.5657C23.9613 28.4138 23.9076 28.2841 23.8002 28.1767C23.6927 28.0693 23.5631 28.0156 23.4112 28.0156C23.2593 28.0156 23.1296 28.0693 23.0222 28.1767C22.9148 28.2841 22.8611 28.4138 22.8611 28.5657ZM22.7986 28.5907C22.7986 28.7668 22.8608 28.917 22.9853 29.0415C23.1098 29.166 23.2601 29.2283 23.4362 29.2283C23.6122 29.2283 23.7625 29.166 23.887 29.0415C24.0115 28.917 24.0738 28.7668 24.0738 28.5907C24.0738 28.4146 24.0115 28.2643 23.887 28.1398C23.7625 28.0153 23.6122 27.9531 23.4362 27.9531C23.2601 27.9531 23.1098 28.0153 22.9853 28.1398C22.8608 28.2643 22.7986 28.4146 22.7986 28.5907ZM23.0486 29.1533L23.0799 29.1845C23.2626 29.3282 23.4669 29.372 23.6925 29.3158L23.755 29.2971C23.8848 29.2656 23.9973 29.2031 24.0925 29.1095L24.1863 29.022C24.2393 28.9683 24.2831 28.9079 24.3176 28.8407L24.4239 28.6469C24.438 28.6206 24.4505 28.5935 24.4614 28.5657L24.5801 28.2594C24.5875 28.2367 24.5937 28.2138 24.5989 28.1906L24.7177 27.7655C24.7221 27.7552 24.7262 27.7448 24.7302 27.7343L24.8489 27.2092C24.8517 27.1905 24.8538 27.1717 24.8552 27.1529L24.9552 26.509C24.9555 26.4965 24.9555 26.484 24.9552 26.4715L25.0302 25.7089C25.0324 25.7006 25.0345 25.6923 25.0365 25.6839L25.0865 24.8275C25.0868 24.815 25.0868 24.8025 25.0865 24.79L25.1052 23.8148C25.1054 23.8064 25.1054 23.7981 25.1052 23.7898L25.0865 22.6958C25.0866 22.6875 25.0866 22.6791 25.0865 22.6708L25.0302 21.4768C25.0288 21.458 25.0267 21.4393 25.024 21.4206L24.8927 20.1766C24.8929 20.1662 24.8929 20.1557 24.8927 20.1453L24.7114 18.8826C24.7097 18.8679 24.7076 18.8534 24.7052 18.8388L24.4676 17.5948C24.4637 17.5823 24.4596 17.5697 24.4551 17.5573L24.1738 16.3321C24.17 16.3174 24.1658 16.3028 24.1613 16.2883L23.8175 15.1006C23.8136 15.088 23.8094 15.0755 23.805 15.0631L23.4174 13.9004C23.4116 13.8835 23.4054 13.8669 23.3987 13.8504L22.9548 12.7252C22.949 12.7083 22.9428 12.6917 22.9361 12.6752L22.4235 11.5562C22.4195 11.5457 22.4153 11.5353 22.411 11.5249L21.8484 10.3935C21.8423 10.3829 21.8361 10.3725 21.8296 10.3622L21.2108 9.212C21.2067 9.2036 21.2025 9.19527 21.1982 9.18699L20.5294 8.01802C20.5253 8.01172 20.5211 8.00547 20.5169 7.99926L19.8105 6.83654C19.8064 6.83025 19.8022 6.824 19.798 6.81779L19.0603 5.66757C19.0522 5.65699 19.0439 5.64657 19.0353 5.63631L18.2664 4.54861C18.2526 4.52724 18.238 4.50641 18.2227 4.4861L17.4225 3.51091C17.3952 3.4779 17.3661 3.44664 17.335 3.41714L16.4911 2.61699C16.4519 2.58056 16.4102 2.54722 16.3661 2.51697L15.4847 1.90435C15.437 1.87122 15.387 1.84205 15.3346 1.81684L14.4032 1.373C14.3488 1.34551 14.2925 1.32259 14.2344 1.30424L13.2092 1.01043C13.1661 0.997429 13.1223 0.987011 13.078 0.979177L11.9965 0.797893C11.953 0.791213 11.9092 0.787045 11.8652 0.78539L10.7963 0.735381C10.7483 0.732412 10.7004 0.732412 10.6525 0.735381L9.54603 0.822898C9.49127 0.827412 9.43709 0.835747 9.3835 0.847902L8.27704 1.09795C8.22181 1.10865 8.16764 1.12323 8.11451 1.14171L7.02055 1.56054C6.9755 1.57866 6.93174 1.5995 6.88927 1.62305L5.84533 2.17315C5.82199 2.1849 5.79907 2.1974 5.77656 2.21066L4.80138 2.81078C4.77785 2.82662 4.75493 2.84329 4.73261 2.86079L3.8637 3.4859C3.83795 3.50367 3.81294 3.52242 3.78868 3.54217L3.03229 4.18604C2.9948 4.21719 2.95938 4.25053 2.92602 4.28606L2.28215 4.98619C2.23849 5.03298 2.1989 5.08299 2.16337 5.13622L1.63202 5.94262C1.59858 5.9945 1.56941 6.04868 1.54451 6.10515L1.10692 7.06159C1.08762 7.10434 1.07095 7.1481 1.05691 7.19286L0.694344 8.31807C0.68204 8.35506 0.671621 8.39256 0.663088 8.4306L0.40679 9.66208C0.398686 9.69928 0.392435 9.73679 0.388036 9.7746L0.331775 10.2997C0.297251 10.6173 0.38008 10.9006 0.580262 11.1496C0.780444 11.3987 1.03935 11.5404 1.35697 11.5749C1.6746 11.6095 1.95791 11.5266 2.20692 11.3265C2.45592 11.1263 2.59769 10.8674 2.63221 10.5497L2.68222 10.0872L2.91977 8.9807L3.25733 7.98676L3.63865 7.17411L4.08249 6.51773L4.61384 5.93637L5.28272 5.37376L6.07662 4.79865L6.98304 4.2423L7.93322 3.7297L8.8834 3.36713L9.82733 3.14209L10.7713 3.05457L11.7089 3.08583L12.6654 3.22335L13.5655 3.45465L14.3407 3.77971L15.0846 4.26105L15.8285 4.93618L16.5724 5.81135L17.3163 6.83029L18.0414 7.93675L18.7415 9.07447L19.4104 10.2122L20.023 11.3311L20.5856 12.4314L21.0982 13.5128L21.5608 14.5818L21.9671 15.682L22.311 16.8134L22.6298 17.9949L22.8986 19.1951L23.1236 20.4141L23.2986 21.6331L23.4549 22.7896L23.5174 23.8273L23.5237 24.765L23.4862 25.5839L23.4299 26.3153L23.3549 26.9154L23.2549 27.3967L23.1611 27.778L23.0799 28.0156L23.0236 28.1406L22.9798 28.2031C23.0795 28.1454 23.1607 28.0683 23.2236 27.9718L23.1674 28.0031C23.2492 27.9894 23.3263 27.9624 23.3987 27.9218L23.3549 27.9281C23.0622 27.982 22.8798 28.1534 22.8076 28.4421C22.7354 28.7309 22.8158 28.9679 23.0486 29.1533Z" fill="black"/>
<path d="M7.55815 24.2148L8.44582 24.6211C8.51021 24.6493 8.57689 24.6701 8.64585 24.6837L10.9213 25.165C10.9254 25.1671 10.9296 25.1692 10.9338 25.1712L13.1717 25.5776L14.9658 26.0777C15.1324 26.1004 15.2378 26.0306 15.2821 25.8684C15.3263 25.7062 15.2709 25.5926 15.1158 25.5276L13.3342 25.0337L11.3089 24.0898L9.34599 22.9146L8.50833 22.4082C8.38747 22.3293 8.25581 22.2781 8.11334 22.2548C7.97087 22.2314 7.82977 22.2379 7.69003 22.2741C7.55029 22.3104 7.42386 22.3734 7.31072 22.4631C7.19759 22.5527 7.10742 22.6615 7.04022 22.7892C6.97302 22.917 6.93452 23.0529 6.92473 23.1969C6.91495 23.341 6.9347 23.4808 6.984 23.6165C7.0333 23.7522 7.10793 23.8722 7.20789 23.9763C7.30785 24.0805 7.4246 24.16 7.55815 24.2148Z" fill="black"/>
<path d="M26.9431 32.7227V32.7164C26.9412 32.6931 26.937 32.6702 26.9306 32.6477L26.9243 32.6164C26.8903 32.5123 26.8257 32.4331 26.7305 32.3789L26.668 32.3414C26.5501 32.2712 26.4251 32.2546 26.293 32.2913L26.1742 32.3226C26.0851 32.3483 26.008 32.3941 25.9429 32.4601L25.7866 32.6102C25.7433 32.6546 25.7078 32.7046 25.6803 32.7602L25.5241 33.0602C25.5025 33.1022 25.4859 33.1459 25.474 33.1915L25.3615 33.6291C25.353 33.6599 25.3468 33.6912 25.3428 33.7229L25.2865 34.248C25.2819 34.2812 25.2799 34.3145 25.2803 34.348L25.3053 34.9231C25.3069 34.9696 25.3131 35.0154 25.324 35.0606L25.474 35.6357C25.4833 35.6743 25.4958 35.7118 25.5116 35.7483L25.7491 36.2671C25.7701 36.3092 25.7951 36.3488 25.8241 36.3859L26.1429 36.8235C26.1806 36.8751 26.2243 36.921 26.2742 36.961L26.6805 37.2798C26.7211 37.3138 26.7649 37.3429 26.8118 37.3673L27.2619 37.5861C27.3139 37.6112 27.3681 37.6299 27.4244 37.6424L27.887 37.7486C27.9573 37.7627 28.0281 37.7669 28.0995 37.7611L28.5496 37.7361C28.6503 37.7295 28.7461 37.7045 28.8372 37.6611L29.2123 37.4861C29.3018 37.4444 29.381 37.3881 29.4498 37.3173L29.7561 36.9985C29.7994 36.9528 29.8369 36.9028 29.8686 36.8485L30.1124 36.4421C30.1371 36.4002 30.158 36.3565 30.1749 36.3109L30.3437 35.867C30.3562 35.8343 30.3667 35.801 30.375 35.767L30.475 35.3294C30.4828 35.3006 30.4891 35.2714 30.4938 35.2419L30.5438 34.8418C30.547 34.8169 30.5491 34.7919 30.55 34.7668L30.5688 34.4168C30.5684 34.3854 30.5664 34.3541 30.5625 34.323L30.5438 34.0542C30.5414 34.0227 30.5372 33.9914 30.5313 33.9604L30.5 33.7729C30.4947 33.7497 30.4885 33.7268 30.4813 33.7041L30.4625 33.6291L30.4562 33.6103C30.4453 33.6874 30.4453 33.7645 30.4562 33.8416L30.4625 33.7854C30.4343 33.8537 30.4155 33.9246 30.4062 33.9979L30.425 33.9542C30.3927 34.0014 30.3657 34.0514 30.3437 34.1042L30.3687 34.0667C30.3464 34.0905 30.3256 34.1155 30.3062 34.1417L30.3437 34.1042C30.4173 34.0193 30.4715 33.9235 30.5063 33.8166L30.5188 33.7854C30.4418 33.8714 30.3855 33.9694 30.35 34.0792L30.3687 34.0542C30.2933 34.0976 30.2267 34.1518 30.1687 34.2167L30.1937 34.2042C30.0537 34.2034 29.9225 34.2367 29.7999 34.3042H29.8311C29.7167 34.2485 29.5958 34.2214 29.4686 34.223L29.4936 34.2355C29.4358 34.18 29.3712 34.1342 29.2998 34.0979L29.3248 34.1292L29.3685 34.1667C29.3979 34.194 29.4292 34.219 29.4623 34.2417L29.5436 34.298C29.5578 34.3089 29.5724 34.3193 29.5873 34.3292L29.7249 34.4105C29.747 34.4262 29.77 34.4408 29.7936 34.4543L30.0124 34.5543C30.0369 34.5659 30.0619 34.5764 30.0874 34.5855L30.3812 34.6918C30.426 34.7083 30.4718 34.7208 30.5188 34.7293L30.9126 34.7981C30.9746 34.8093 31.0371 34.8135 31.1001 34.8106L31.5752 34.7856C31.6344 34.7833 31.6928 34.775 31.7502 34.7606L32.2566 34.6293C32.2994 34.6179 32.3411 34.6033 32.3816 34.5855L32.888 34.3667C32.9336 34.3474 32.9774 34.3245 33.0192 34.298L33.4818 34.0042C33.5357 33.9718 33.5857 33.9343 33.6319 33.8917L33.9944 33.5416C34.0468 33.4906 34.0926 33.4344 34.1319 33.3728L34.3945 32.9665C34.4441 32.8886 34.4816 32.8052 34.507 32.7164L34.6508 32.2288C34.6682 32.1633 34.6786 32.0966 34.6821 32.0288L34.7258 31.4787C34.7304 31.4032 34.7262 31.3282 34.7133 31.2536L34.6195 30.6785C34.6043 30.5894 34.5772 30.5039 34.5383 30.4222L34.2757 29.8596C34.2332 29.7725 34.179 29.6933 34.1132 29.6221L33.6631 29.122C33.6058 29.0573 33.5412 29.0011 33.4693 28.9532L32.8755 28.5656C32.8202 28.5285 32.7619 28.4973 32.7004 28.4719L32.0566 28.2156C31.9679 28.1814 31.8762 28.1606 31.7815 28.1531L31.1939 28.0968C30.9442 28.0722 30.7254 28.143 30.5375 28.3093L30.4687 28.3781L30.3187 28.3656C30.0343 28.3775 29.8792 28.5251 29.8535 28.8086C29.8277 29.0921 29.9536 29.2653 30.2312 29.3283L30.3312 29.3408L30.3562 29.3845C30.4424 29.5357 30.5633 29.6503 30.7188 29.7284L31.2501 30.0034C31.2646 30.01 31.2792 30.0163 31.2939 30.0222L31.8565 30.2722L32.2816 30.5473L32.5566 30.8473L32.7067 31.1536L32.7692 31.4787L32.7567 31.8225L32.6879 32.0913L32.5691 32.3038L32.3504 32.5414L32.0378 32.7914L31.6877 32.9852L31.3502 33.0978L31.0564 33.129L30.8126 33.104L30.6313 33.054L30.5063 32.9977L30.4312 32.954L30.375 32.9165C30.4147 32.9587 30.4585 32.9962 30.5063 33.029L30.4687 32.9852L30.4375 32.9602C30.3743 32.8913 30.3014 32.835 30.2187 32.7914L30.1937 32.7789C30.0798 32.721 29.9589 32.6919 29.8311 32.6914H29.7999C29.685 32.6887 29.5745 32.7095 29.4686 32.7539L29.4436 32.7664C29.433 32.7725 29.4226 32.7787 29.4123 32.7852L29.3873 32.7977C29.4216 32.7853 29.4549 32.7707 29.4873 32.7539L29.4561 32.7664C29.2971 32.8185 29.1658 32.9102 29.0622 33.0415L29.031 33.079C29.0154 33.0992 29.0008 33.12 28.9872 33.1415L28.9622 33.1853C28.9382 33.2232 28.9173 33.2628 28.8997 33.304L28.8809 33.3478C28.8464 33.4299 28.8255 33.5153 28.8184 33.6041L28.8122 33.6604C28.8066 33.7338 28.8107 33.8068 28.8247 33.8791L28.8372 33.9542C28.8391 33.9625 28.8412 33.9709 28.8434 33.9792L28.8622 34.0792L28.8809 34.2042L28.8934 34.398L28.8872 34.6731L28.8497 34.9856L28.7622 35.3357L28.6371 35.6857L28.4934 35.9608L28.3496 36.1233L28.2308 36.1921L28.037 36.2233L27.7807 36.1921L27.4869 36.0733L27.2119 35.8733L26.9806 35.592L26.793 35.2169L26.6743 34.7731L26.6305 34.3105L26.6555 33.8666L26.7243 33.4541L26.768 33.1665L26.8056 33.054L26.8181 33.0352C26.8508 33.0041 26.8779 32.9687 26.8993 32.929L26.9118 32.904C26.9299 32.8642 26.9403 32.8225 26.9431 32.7789V32.7727C26.9444 32.756 26.9444 32.7393 26.9431 32.7227Z" fill="black"/>
<path d="M1.0628 10.8377C1.0628 10.9344 1.09698 11.0169 1.16534 11.0852C1.23369 11.1536 1.3162 11.1878 1.41287 11.1878C1.50954 11.1878 1.59205 11.1536 1.66041 11.0852C1.72876 11.0169 1.76294 10.9344 1.76294 10.8377C1.76294 10.741 1.72876 10.6585 1.66041 10.5902C1.59205 10.5218 1.50954 10.4876 1.41287 10.4876C1.3162 10.4876 1.23369 10.5218 1.16534 10.5902C1.09698 10.6585 1.0628 10.741 1.0628 10.8377ZM1.46288 11.244H1.48163H1.53789C1.56728 11.2449 1.59645 11.2429 1.62541 11.2378L1.73793 11.219C1.74843 11.2173 1.75884 11.2152 1.76919 11.2128L1.88796 11.1878L1.94422 11.1753H1.97548C1.8874 11.1061 1.78739 11.0728 1.67542 11.0753L1.69417 11.094C1.79534 11.1739 1.91019 11.2088 2.03871 11.1988C2.16722 11.1887 2.27525 11.1364 2.36278 11.0418C2.45031 10.9471 2.49407 10.8353 2.49407 10.7064C2.49407 10.5775 2.45031 10.4658 2.36278 10.3711C2.27525 10.2765 2.16722 10.2241 2.03871 10.2141C1.91019 10.2041 1.79534 10.239 1.69417 10.3189L1.67542 10.3376C1.75655 10.3255 1.82949 10.2942 1.89421 10.2439L1.8192 10.2501C1.79792 10.2549 1.77708 10.2611 1.75669 10.2689L1.65667 10.2939C1.64176 10.2994 1.62717 10.3056 1.61291 10.3126L1.50039 10.3564C1.48547 10.3619 1.47088 10.3681 1.45663 10.3751L1.35661 10.4314C1.35453 10.4314 1.35244 10.4314 1.35036 10.4314L1.2816 10.4689C1.31874 10.4613 1.35417 10.4488 1.38787 10.4314L1.35036 10.4376C1.23906 10.4532 1.14957 10.5059 1.08187 10.5956C1.01417 10.6853 0.988084 10.7858 1.00361 10.8971C1.01915 11.0084 1.07174 11.0979 1.16141 11.1656C1.25108 11.2334 1.35157 11.2595 1.46288 11.244ZM2.09425 10.2063L2.06299 10.2001C1.90207 10.1732 1.7591 10.2122 1.63408 10.317C1.50905 10.4218 1.44574 10.5558 1.44413 10.7189V10.7439C1.4422 10.8581 1.47345 10.9623 1.53789 11.0565L1.56915 11.1003C1.61559 11.1673 1.67393 11.2214 1.74418 11.2628L1.86296 11.3378C1.89491 11.3556 1.92825 11.3702 1.96298 11.3816L2.18177 11.4628C2.19619 11.4676 2.21077 11.4717 2.22553 11.4753L2.48808 11.5441L2.67561 11.6129L2.78188 11.6816L2.83189 11.7504L2.8819 11.8692L2.92566 12.0504C2.92925 12.0652 2.93342 12.0798 2.93816 12.0942L2.99442 12.2755C3.00705 12.3148 3.02372 12.3523 3.04443 12.388L3.11945 12.5193C3.14979 12.571 3.18729 12.6168 3.23197 12.6568L3.31948 12.7381L3.40075 12.8193L3.45701 12.8819L3.48827 12.9256L3.52577 13.0131L3.55703 13.1131L3.58203 13.2194C3.58915 13.2407 3.59748 13.2616 3.60704 13.2819L3.65705 13.4132C3.65704 13.4153 3.65704 13.4174 3.65705 13.4195L3.73206 13.607C3.73409 13.6112 3.73618 13.6154 3.73831 13.6195L3.83833 13.857C3.8423 13.8655 3.84646 13.8738 3.85083 13.882L3.98211 14.1508C3.98615 14.1572 3.99032 14.1634 3.99461 14.1696L4.12589 14.4196C4.13883 14.4436 4.15341 14.4665 4.16965 14.4884L4.31967 14.6884C4.34522 14.7231 4.37439 14.7543 4.40719 14.7822L4.56347 14.9135C4.57739 14.9268 4.59198 14.9393 4.60723 14.951L4.7135 15.0198L4.73225 15.0385L4.74476 15.0698L4.76976 15.1885L4.79476 15.3948C4.79471 15.399 4.79471 15.4032 4.79476 15.4073L4.82602 15.6449C4.8278 15.6554 4.82988 15.6658 4.83227 15.6761L4.87603 15.9012C4.87767 15.9138 4.87976 15.9263 4.88228 15.9387L4.94479 16.17C4.94657 16.1805 4.94865 16.1909 4.95104 16.2012L5.03231 16.4513C5.03615 16.4618 5.04032 16.4723 5.04481 16.4825L5.14483 16.7388C5.15362 16.7625 5.16404 16.7854 5.17609 16.8076L5.30736 17.0451C5.33519 17.0969 5.37061 17.1427 5.41363 17.1827L5.60742 17.3577C5.63615 17.3841 5.66741 17.407 5.70119 17.4265L5.95749 17.5702L6.19503 17.7015L6.38257 17.8515L6.52634 18.0141L6.63887 18.2266L6.72013 18.5142L6.78889 18.8767L6.85141 19.2643C6.85136 19.2685 6.85136 19.2727 6.85141 19.2768L6.92642 19.6831L7.00143 20.0832L7.06395 20.4708L7.1077 20.8396C7.10769 20.8417 7.10769 20.8438 7.1077 20.8459L7.15146 21.1834C7.15136 21.1897 7.15136 21.1959 7.15146 21.2022L7.19522 21.4835C7.19862 21.5004 7.20278 21.517 7.20772 21.5335L7.26398 21.746L7.30149 21.9211C7.30673 21.9402 7.31298 21.9589 7.32025 21.9773L7.37025 22.1149C7.42404 22.2653 7.52614 22.3674 7.67656 22.4212L7.69532 22.4274C7.74164 22.4449 7.78957 22.4533 7.83909 22.4524H7.85785C8.10942 22.4455 8.26779 22.3204 8.33294 22.0774L8.37045 21.9336C8.39122 21.8574 8.39539 21.7803 8.38295 21.7023L8.34544 21.5147C8.34378 21.5022 8.3417 21.4897 8.33919 21.4772L8.28918 21.2835L8.25167 21.0397L8.20791 20.7083L8.17041 20.3333C8.16852 20.3249 8.16643 20.3166 8.16416 20.3083L8.10164 19.9019C8.10171 19.8978 8.10171 19.8936 8.10164 19.8894L8.02663 19.4831L7.95162 19.083L7.8891 18.6955C7.88921 18.6892 7.88921 18.683 7.8891 18.6767L7.81409 18.2766C7.8107 18.2598 7.80653 18.2431 7.80159 18.2266L7.69532 17.8578C7.68441 17.8209 7.66982 17.7854 7.65156 17.7515L7.48278 17.4327C7.4604 17.3918 7.43331 17.3543 7.40151 17.3202L7.17647 17.0702C7.14468 17.0366 7.10926 17.0074 7.0702 16.9826L6.78889 16.8013C6.77092 16.7877 6.75217 16.7752 6.73263 16.7638L6.46383 16.6388L6.2763 16.5325L6.18878 16.4575L6.12627 16.3388L6.0575 16.1262L5.98249 15.8824L5.92623 15.6761L5.88872 15.4886L5.85747 15.2761L5.83246 15.051C5.83116 15.0342 5.82908 15.0176 5.82621 15.001L5.78245 14.7885C5.77304 14.745 5.75845 14.7033 5.73869 14.6634L5.65743 14.4947C5.63068 14.4385 5.59526 14.3885 5.55116 14.3446L5.43239 14.2259C5.4205 14.2127 5.408 14.2002 5.39488 14.1884L5.29486 14.1071L5.21985 14.0196L5.11983 13.8633L5.00105 13.6445L4.88228 13.4007L4.79476 13.1819L4.71975 13.0006L4.68849 12.9069L4.66349 12.8193C4.66182 12.8068 4.65974 12.7943 4.65724 12.7818L4.61348 12.6443C4.608 12.6273 4.60175 12.6107 4.59473 12.5943L4.53221 12.4443C4.51981 12.416 4.50522 12.3889 4.48846 12.363L4.41344 12.2317C4.39503 12.2028 4.37419 12.1757 4.35093 12.1505L4.25091 12.0379C4.24489 12.0294 4.23864 12.0211 4.23216 12.0129L4.13214 11.9129C4.12021 11.8998 4.10771 11.8873 4.09463 11.8754L4.06963 11.8567L4.07588 11.8754L4.05087 11.7754L4.00711 11.5754C4.00077 11.5477 3.99243 11.5206 3.98211 11.4941L3.89459 11.2503C3.87345 11.1937 3.84428 11.1416 3.80708 11.094L3.64455 10.8877C3.60126 10.8302 3.54916 10.7823 3.48827 10.7439L3.23822 10.5939C3.19877 10.5702 3.1571 10.5515 3.11319 10.5377L2.83189 10.4439C2.8236 10.4416 2.81527 10.4395 2.80689 10.4376L2.53808 10.3626L2.3318 10.3001C2.32558 10.2979 2.31933 10.2958 2.31304 10.2939L2.22553 10.2689L2.21927 10.2626C2.27346 10.3654 2.35265 10.4425 2.45682 10.4939L2.44432 10.4689C2.30585 10.6512 2.29127 10.8429 2.40056 11.044L2.41931 11.019C2.47287 10.9475 2.50549 10.8674 2.51717 10.7788C2.52885 10.6902 2.51809 10.6044 2.4849 10.5214C2.45171 10.4384 2.40034 10.3689 2.33077 10.3128C2.26121 10.2567 2.18237 10.2212 2.09425 10.2063ZM7.6203 21.9836L7.58905 22.0211C7.51642 22.1384 7.53327 22.2411 7.63959 22.3291C7.74591 22.4171 7.84992 22.4144 7.95162 22.3211L7.98287 22.2836C8.0555 22.1663 8.03865 22.0636 7.93233 21.9756C7.82601 21.8876 7.722 21.8903 7.6203 21.9836Z" fill="black"/>
<path d="M2.80062 10.2564V10.2501C2.79787 10.1561 2.76661 10.0727 2.70685 10.0001L2.67559 9.96257C2.6111 9.8853 2.52984 9.83529 2.4318 9.81254L2.31927 9.78754C2.28863 9.77824 2.25737 9.77199 2.22551 9.76878L2.06923 9.76253C2.03779 9.76187 2.00653 9.76396 1.97546 9.76878L1.81918 9.78754C1.81289 9.78951 1.80664 9.7916 1.80043 9.79379L1.68165 9.81254C1.5466 9.83419 1.432 9.89462 1.33784 9.99383L1.32534 10.0001C1.12105 10.2106 1.08357 10.4476 1.2129 10.7109C1.34223 10.9743 1.55266 11.0895 1.84418 11.0565L2.01922 11.0378C2.04237 11.0349 2.06529 11.0307 2.08798 11.0253L2.46305 10.944L3.00691 10.8377L3.67578 10.7377L4.40092 10.6627L5.13856 10.6064L5.81994 10.5814H6.4138L6.84514 10.6189L7.05143 10.6752L7.03267 10.6627L7.03892 10.6752L7.02642 10.9002L6.97641 11.2378C6.97424 11.244 6.97216 11.2503 6.97016 11.2566L6.93265 11.5379C6.91878 11.6465 6.9292 11.7528 6.96391 11.8567L7.02017 12.0317C7.08418 12.2192 7.20503 12.3567 7.38274 12.4443L7.55152 12.5318C7.60342 12.5571 7.65759 12.5759 7.71405 12.5881L7.9891 12.6506C7.99948 12.6529 8.00989 12.655 8.02036 12.6568L8.39543 12.7256C8.39751 12.7256 8.3996 12.7256 8.40168 12.7256L8.82676 12.8006L9.27685 12.9006L9.65817 13.0382L9.97698 13.2507L10.2708 13.5883L10.5271 14.0508L10.7146 14.5634L10.8146 15.076L10.8209 15.5824L10.7334 16.095L10.5708 16.5763L10.3958 16.9889L10.2583 17.2952C10.2368 17.3393 10.2201 17.3851 10.2083 17.4327L10.1583 17.6453C10.1221 17.8062 10.1408 17.9604 10.2145 18.1079L10.277 18.2329C10.352 18.3929 10.4708 18.5075 10.6334 18.5767L10.7834 18.6392C10.8239 18.6557 10.8656 18.6682 10.9084 18.6767L11.0647 18.708L11.1084 18.7267L11.1209 18.733L11.1772 18.8268L11.2397 19.0393L11.2522 19.3894L11.196 19.8394L11.0772 20.2645L10.9334 20.5896L10.7584 20.8146L10.5458 21.0022L10.2833 21.1772C10.2812 21.1793 10.2791 21.1814 10.277 21.1835L10.0145 21.371C9.97839 21.397 9.94505 21.4262 9.91447 21.4585L9.68943 21.6898C9.67389 21.7078 9.65931 21.7266 9.64567 21.7461L9.43938 22.0149C9.43516 22.019 9.43099 22.0231 9.42688 22.0274L9.24559 22.2774L9.08306 22.4712C8.95618 22.6153 8.89885 22.7832 8.91105 22.9749C8.92326 23.1665 9.00143 23.3258 9.14557 23.4526C9.28971 23.5795 9.4576 23.6369 9.64924 23.6246C9.84088 23.6124 10.0001 23.5343 10.127 23.3901L10.3145 23.1901C10.3345 23.1704 10.3533 23.1495 10.3708 23.1276L10.5583 22.8713L10.7396 22.6337L10.8897 22.4775L11.0834 22.3337L11.371 22.1399C11.3926 22.1264 11.4135 22.1118 11.4335 22.0961L11.7336 21.8461C11.7731 21.8125 11.8085 21.775 11.8398 21.7336L12.1086 21.3835C12.1414 21.3388 12.1685 21.2908 12.1899 21.2397L12.3899 20.7896C12.405 20.7572 12.4175 20.7239 12.4274 20.6896L12.5712 20.1583C12.5802 20.1233 12.5864 20.0879 12.59 20.052L12.6525 19.4956C12.6559 19.456 12.6559 19.4165 12.6525 19.3769L12.6212 18.883C12.6168 18.8297 12.6064 18.7776 12.59 18.7267L12.4775 18.3454C12.4615 18.2883 12.4386 18.2341 12.4087 18.1829L12.2462 17.9203C12.206 17.8536 12.156 17.7952 12.0961 17.7453L11.9023 17.5828C11.8405 17.5312 11.7717 17.4916 11.6961 17.464L11.4898 17.389C11.4632 17.379 11.4361 17.3707 11.4085 17.364L11.2647 17.3327L11.171 17.289C11.2463 17.4528 11.3672 17.5694 11.5335 17.639L11.471 17.5078C11.4324 17.665 11.447 17.8171 11.5148 17.9641L11.5523 17.8266L11.6711 17.5765C11.6732 17.5703 11.6753 17.564 11.6773 17.5578L11.8773 17.1139C11.8867 17.0935 11.895 17.0727 11.9023 17.0514L12.0899 16.4888C12.0999 16.4622 12.1082 16.4351 12.1149 16.4075L12.2462 15.7887C12.2552 15.7412 12.2593 15.6932 12.2587 15.6449L12.2649 15.0073C12.2644 14.9545 12.2581 14.9024 12.2462 14.851L12.1149 14.2196C12.1069 14.1855 12.0965 14.1522 12.0836 14.1196L11.8586 13.5007C11.8465 13.4663 11.832 13.433 11.8148 13.4007L11.496 12.8256C11.4697 12.7783 11.4384 12.7346 11.4023 12.6943L10.9897 12.238C10.9474 12.1899 10.8994 12.1482 10.8459 12.113L10.3646 11.8067C10.3175 11.7757 10.2675 11.7507 10.2145 11.7317L9.70193 11.5504C9.67521 11.5425 9.64812 11.5363 9.62066 11.5316L9.11432 11.4191C9.11017 11.417 9.106 11.4149 9.10181 11.4128L8.65798 11.3316C8.65591 11.3295 8.65383 11.3274 8.65173 11.3253L8.29541 11.2566L8.12038 11.2191L8.03911 11.1753C8.09834 11.359 8.21294 11.4965 8.38293 11.5879L8.37668 11.5691L8.38918 11.4566L8.45169 11.1003C8.45792 11.0693 8.46209 11.038 8.46419 11.0065L8.48295 10.6002C8.48663 10.5171 8.47621 10.4359 8.45169 10.3564L8.34542 10.0126C8.30249 9.87499 8.22539 9.76038 8.11413 9.66876L7.84533 9.44372C7.76225 9.37487 7.66849 9.32694 7.56402 9.29994L7.15144 9.19367C7.11032 9.18378 7.06864 9.17752 7.02642 9.17492L6.50132 9.13116C6.48257 9.13043 6.46381 9.13043 6.44506 9.13116H5.80744C5.79494 9.13084 5.78243 9.13084 5.76993 9.13116L5.0573 9.16867C5.04896 9.16852 5.04063 9.16852 5.03229 9.16867L4.2759 9.23743C4.25706 9.23878 4.23831 9.24086 4.21964 9.24368L3.47574 9.36871C3.46318 9.37045 3.45068 9.37253 3.43824 9.37496L2.75061 9.53124C2.74435 9.53115 2.7381 9.53115 2.73185 9.53124L2.1755 9.67501C2.16712 9.67693 2.15879 9.67902 2.15049 9.68127L1.78792 9.78129L1.62539 9.82504C1.74292 9.86455 1.8617 9.86872 1.98171 9.83755L1.96921 9.83129C1.89411 9.90471 1.84162 9.99176 1.81175 10.0924C1.78189 10.1931 1.77841 10.2947 1.80133 10.3972C1.82425 10.4997 1.87066 10.5901 1.94057 10.6685C2.01047 10.7469 2.09503 10.8033 2.19425 10.8377L2.22551 10.8127L2.30052 10.7752C2.30053 10.7731 2.30053 10.7711 2.30052 10.769L2.4318 10.7002L2.51931 10.6565C2.52561 10.6545 2.53186 10.6524 2.53807 10.6502L2.58182 10.6252C2.59692 10.6178 2.61151 10.6094 2.62558 10.6002L2.63183 10.5939C2.74828 10.5115 2.80454 10.399 2.80062 10.2564ZM8.97054 23.0401C8.97054 23.1713 9.01692 23.2832 9.10969 23.376C9.20246 23.4688 9.31444 23.5151 9.44563 23.5151C9.57682 23.5151 9.6888 23.4688 9.78157 23.376C9.87434 23.2832 9.92072 23.1713 9.92072 23.0401C9.92072 22.9089 9.87434 22.7969 9.78157 22.7041C9.6888 22.6114 9.57682 22.565 9.44563 22.565C9.31444 22.565 9.20246 22.6114 9.10969 22.7041C9.01692 22.7969 8.97054 22.9089 8.97054 23.0401ZM9.32686 22.8275L9.20809 22.8088C9.06681 22.8105 8.98544 22.8811 8.96396 23.0208C8.94247 23.1604 8.99884 23.2523 9.13307 23.2964L9.25184 23.3151C9.39312 23.3134 9.47449 23.2427 9.49598 23.1031C9.51746 22.9635 9.46109 22.8716 9.32686 22.8275Z" fill="black"/>
<path d="M1.25036 10.9815C1.25039 11.0885 1.28825 11.1798 1.36392 11.2554C1.43959 11.3311 1.53093 11.3689 1.63793 11.3689C1.74493 11.3689 1.83627 11.3311 1.91194 11.2554C1.98761 11.1798 2.02547 11.0885 2.0255 10.9815C2.02547 10.8745 1.98761 10.7831 1.91194 10.7075C1.83627 10.6318 1.74493 10.594 1.63793 10.594C1.53093 10.594 1.43959 10.6318 1.36392 10.7075C1.28825 10.7831 1.25039 10.8745 1.25036 10.9815ZM1.88173 10.6189L1.85047 10.5939C1.73691 10.5076 1.6098 10.4763 1.46915 10.5001L1.41914 10.5064C1.24843 10.534 1.12366 10.6248 1.04484 10.7787C0.966013 10.9326 0.965269 11.0869 1.04261 11.2416C1.11994 11.3963 1.24383 11.4883 1.41426 11.5176C1.58469 11.5469 1.73218 11.5015 1.85672 11.3815L1.89423 11.344C1.90994 11.3283 1.92453 11.3117 1.93799 11.294L1.96299 11.2628C2.04142 11.1628 2.07268 11.0499 2.05677 10.9239C2.04087 10.7978 1.98252 10.6962 1.88173 10.6189ZM0.981555 10.7939L0.962801 10.8252C0.859288 11.0266 0.865539 11.2246 0.981555 11.419L1.03782 11.5191C1.08623 11.599 1.14874 11.6656 1.22535 11.7191L1.39413 11.8441C1.43719 11.8742 1.48303 11.8992 1.53166 11.9191L1.80046 12.0379C1.81492 12.0425 1.8295 12.0467 1.84422 12.0504L2.15678 12.1629L2.46934 12.3005L2.76314 12.4692L2.98819 12.6318L3.14447 12.7881L3.20698 12.8818L3.23198 12.9381L3.24449 13.0819L3.25699 13.2819V13.4944C3.25678 13.5049 3.25678 13.5153 3.25699 13.5257L3.26949 13.7632C3.26908 13.7778 3.26908 13.7924 3.26949 13.807L3.28824 14.0258C3.29097 14.0531 3.29514 14.0802 3.30075 14.1071L3.33825 14.3071C3.34689 14.352 3.35939 14.3957 3.37576 14.4384L3.44452 14.6072C3.46824 14.6695 3.4995 14.7279 3.53829 14.7822L3.65081 14.9385C3.68244 14.9796 3.71787 15.0171 3.75708 15.051L3.91336 15.1948C3.91951 15.2011 3.92576 15.2074 3.93212 15.2135L4.1134 15.3635L4.28218 15.5073L4.43221 15.6448L4.56974 15.7699L4.69476 15.9011L4.82604 16.0449L4.95106 16.2137L5.05108 16.3575L5.10109 16.4575L5.11984 16.5138L5.13235 16.595V16.7763C5.13429 16.7847 5.13637 16.793 5.1386 16.8013L5.14485 17.0264C5.14671 17.0368 5.1488 17.0472 5.1511 17.0576L5.16985 17.2764C5.17522 17.3275 5.18564 17.3775 5.20111 17.4264L5.25737 17.6265C5.2818 17.7028 5.31723 17.7737 5.36364 17.839L5.46991 18.0015C5.5137 18.0655 5.56579 18.1218 5.62619 18.1703L5.78872 18.3016C5.81074 18.3195 5.83366 18.3362 5.85748 18.3516L6.03252 18.4579L6.17004 18.5579L6.27631 18.6642L6.40759 18.833L6.54511 19.0768L6.68889 19.3643L6.82017 19.6581L6.92644 19.9832L7.0202 20.3207L7.08897 20.6521L7.13273 20.9521L7.13898 21.2022L7.10772 21.4272L7.04521 21.671L6.9827 21.9023C6.93629 22.109 6.96473 22.3048 7.06803 22.4898C7.17132 22.6748 7.32313 22.8017 7.52346 22.8706C7.72379 22.9395 7.92157 22.9328 8.11679 22.8506C8.31202 22.7683 8.45492 22.6314 8.54549 22.4399L8.63926 22.2086C8.65151 22.178 8.66193 22.1467 8.67052 22.1148L8.75178 21.8085C8.76269 21.7716 8.77102 21.7341 8.77679 21.696L8.82055 21.3459C8.82638 21.3003 8.82847 21.2544 8.8268 21.2084L8.8143 20.8458C8.81333 20.8207 8.81124 20.7957 8.80804 20.7708L8.75804 20.402C8.755 20.3768 8.75083 20.3518 8.74553 20.327L8.66427 19.9457C8.66049 19.931 8.65633 19.9164 8.65177 19.9019L8.54549 19.5143C8.54162 19.5017 8.53745 19.4892 8.53299 19.4768L8.40797 19.0955C8.39876 19.07 8.38834 19.045 8.37671 19.0205L8.22043 18.6642C8.20917 18.6385 8.19667 18.6135 8.18293 18.5892L8.00164 18.2703C7.98142 18.2332 7.9585 18.1978 7.93288 18.1641L7.72034 17.889C7.71218 17.8805 7.70385 17.8722 7.69533 17.864L7.48904 17.6202C7.47139 17.5984 7.45263 17.5776 7.43278 17.5577L7.22649 17.3639C7.19513 17.3363 7.16179 17.3113 7.12647 17.2889L6.92019 17.1451C6.90792 17.1364 6.89542 17.1281 6.88268 17.1201L6.72015 17.0264L6.66389 16.9826L6.67014 16.9951L6.67639 17.0076L6.66389 16.9138L6.65764 16.7451V16.5575C6.65803 16.522 6.65595 16.4865 6.65138 16.4513L6.62638 16.2512C6.62061 16.2023 6.61019 16.1544 6.59512 16.1074L6.53261 15.9199C6.521 15.8812 6.50642 15.8437 6.48885 15.8074L6.38883 15.6136C6.37386 15.5855 6.35719 15.5584 6.33882 15.5323L6.2013 15.3323C6.19516 15.3259 6.18891 15.3197 6.18255 15.3135L6.03877 15.1072C6.02682 15.0922 6.01431 15.0776 6.00126 15.0635L5.83873 14.876C5.82666 14.863 5.81416 14.8505 5.80122 14.8384L5.64494 14.6759C5.63674 14.6695 5.6284 14.6632 5.61994 14.6572L5.46366 14.5134C5.45954 14.5092 5.45537 14.505 5.45116 14.5009L5.28862 14.3571C5.28654 14.3571 5.28446 14.3571 5.28237 14.3571L5.10734 14.2008L4.95731 14.0695L4.8698 13.982L4.85729 13.9695L4.85104 13.957L4.83229 13.857L4.81979 13.7007V13.4944V13.2506C4.81992 13.2423 4.81992 13.234 4.81979 13.2256L4.80728 12.9756C4.80604 12.9547 4.80395 12.9338 4.80103 12.9131L4.76978 12.663C4.76245 12.6009 4.74787 12.5404 4.72602 12.4817L4.6385 12.2442C4.61776 12.1869 4.59067 12.1327 4.55724 12.0817L4.3947 11.8441C4.36207 11.7962 4.32456 11.7524 4.28218 11.7129L4.03214 11.4753C4.00461 11.4503 3.97544 11.4274 3.94462 11.4065L3.63206 11.1815C3.606 11.1632 3.57891 11.1465 3.55079 11.1315L3.18197 10.9315C3.14581 10.9118 3.1083 10.8951 3.06945 10.8814L2.68188 10.7502C2.65526 10.7403 2.62817 10.732 2.60061 10.7252L2.2568 10.6501L1.97549 10.5814C1.97133 10.5813 1.96716 10.5813 1.96299 10.5814L1.7567 10.5314C1.75045 10.5313 1.7442 10.5313 1.73795 10.5314L1.64418 10.5126L1.62543 10.5064C1.33372 10.4296 1.11909 10.5255 0.981555 10.7939ZM7.13898 22.2899C7.13898 22.4452 7.1939 22.5778 7.30376 22.6877C7.41362 22.7975 7.54622 22.8525 7.70158 22.8525C7.85694 22.8525 7.98955 22.7975 8.09941 22.6877C8.20926 22.5778 8.26419 22.4452 8.26419 22.2899C8.26419 22.1345 8.20926 22.0019 8.09941 21.892C7.98955 21.7822 7.85694 21.7273 7.70158 21.7273C7.54622 21.7273 7.41362 21.7822 7.30376 21.892C7.1939 22.0019 7.13898 22.1345 7.13898 22.2899ZM7.28275 22.3649C7.28275 22.4684 7.31937 22.5569 7.39261 22.6301C7.46585 22.7033 7.55425 22.7399 7.65783 22.7399C7.7614 22.7399 7.8498 22.7033 7.92304 22.6301C7.99628 22.5569 8.0329 22.4684 8.0329 22.3649C8.0329 22.2613 7.99628 22.1729 7.92304 22.0997C7.8498 22.0264 7.7614 21.9898 7.65783 21.9898C7.55425 21.9898 7.46585 22.0264 7.39261 22.0997C7.31937 22.1729 7.28275 22.2613 7.28275 22.3649ZM7.88912 22.3836V22.3711C7.88912 22.2086 7.80785 22.1273 7.64532 22.1273C7.48279 22.1273 7.40153 22.2086 7.40153 22.3711V22.3836C7.40153 22.5462 7.48279 22.6274 7.64532 22.6274C7.80785 22.6274 7.88912 22.5462 7.88912 22.3836Z" fill="black"/>
</g>
<defs>
<clipPath id="clip0_1_7265">
<rect width="35" height="38" fill="white"/>
</clipPath>
</defs>
</svg>
