<svg width="39" height="39" viewBox="0 0 39 39" fill="none" xmlns="http://www.w3.org/2000/svg">
<g clip-path="url(#clip0_1_7404)">
<path d="M18.1859 1.58858C18.1859 1.75111 18.2672 1.83238 18.4297 1.83238C18.5923 1.83238 18.6735 1.75111 18.6735 1.58858C18.6735 1.42605 18.5923 1.34479 18.4297 1.34479C18.2672 1.34479 18.1859 1.42605 18.1859 1.58858ZM18.6673 1.63859L18.6735 1.61359C18.7044 1.45525 18.6423 1.35422 18.487 1.31052C18.3317 1.26682 18.2259 1.32059 18.1697 1.47183C18.1135 1.62306 18.1585 1.73283 18.3047 1.80112L18.3235 1.80738C18.3946 1.84148 18.4655 1.84115 18.5363 1.8064C18.6071 1.77165 18.6508 1.71571 18.6673 1.63859ZM18.1047 1.52607C18.1047 1.73021 18.2068 1.83227 18.411 1.83227C18.6151 1.83227 18.7172 1.73021 18.7173 1.52607C18.7172 1.32194 18.6151 1.21987 18.411 1.21987C18.2068 1.21987 18.1047 1.32194 18.1047 1.52607ZM18.0234 1.48231C18.0234 1.59107 18.0618 1.68389 18.1387 1.76079C18.2156 1.83769 18.3085 1.87614 18.4172 1.87614C18.526 1.87614 18.6188 1.83769 18.6957 1.76079C18.7726 1.68389 18.811 1.59107 18.811 1.48231C18.811 1.37356 18.7726 1.28074 18.6957 1.20384C18.6188 1.12694 18.526 1.08849 18.4172 1.08849C18.3085 1.08849 18.2156 1.12694 18.1387 1.20384C18.0618 1.28074 18.0234 1.37356 18.0234 1.48231ZM18.0296 1.6886L18.0734 1.76362C18.0811 1.77858 18.0894 1.79317 18.0984 1.80738L18.1922 1.96366L18.3047 2.18245L18.4172 2.50126L18.4985 2.91384L18.5172 3.38893L18.4735 3.88902L18.3735 4.36411L18.2547 4.77044C18.2504 4.77869 18.2462 4.78703 18.2422 4.79544L18.1609 5.11425C18.1237 5.26574 18.1386 5.4119 18.2056 5.55276C18.2727 5.69361 18.3767 5.79739 18.5177 5.8641C18.6586 5.93081 18.8048 5.9454 18.9562 5.90788C19.1076 5.87036 19.2301 5.78919 19.3236 5.66436L19.5174 5.38931C19.5648 5.32445 19.6003 5.2536 19.6237 5.17677L19.7487 4.73918C19.7561 4.71658 19.7624 4.69365 19.7675 4.67042L19.8675 4.12657C19.8738 4.09559 19.8779 4.06433 19.88 4.0328L19.9113 3.44519C19.9143 3.40768 19.9143 3.37017 19.9113 3.33267L19.8487 2.75756C19.844 2.71721 19.8356 2.67762 19.8237 2.63878L19.6737 2.14494C19.6639 2.11058 19.6514 2.07724 19.6362 2.04492L19.4487 1.6636C19.4297 1.62366 19.4068 1.58615 19.3799 1.55108L19.1799 1.29478C19.144 1.24907 19.1023 1.20948 19.0548 1.17601L18.8798 1.05723C18.7392 0.956057 18.585 0.926885 18.4172 0.969716L18.336 0.994721C18.1861 1.03522 18.0798 1.12649 18.0171 1.26852C17.9544 1.41054 17.9586 1.55057 18.0296 1.6886ZM18.2985 5.45182C18.2985 5.55021 18.3332 5.6342 18.4028 5.70377C18.4724 5.77335 18.5564 5.80814 18.6548 5.80814C18.7532 5.80814 18.8371 5.77335 18.9067 5.70377C18.9763 5.6342 19.0111 5.55021 19.0111 5.45182C19.0111 5.35342 18.9763 5.26944 18.9067 5.19986C18.8371 5.13029 18.7532 5.0955 18.6548 5.0955C18.5564 5.0955 18.4724 5.13029 18.4028 5.19986C18.3332 5.26944 18.2985 5.35342 18.2985 5.45182ZM18.6298 5.29554L18.5485 5.25803C18.4235 5.19969 18.3318 5.23303 18.2734 5.35805C18.2151 5.48307 18.2484 5.57476 18.3735 5.6331L18.4547 5.67061C18.5797 5.72874 18.6713 5.69536 18.7296 5.57049C18.7878 5.44561 18.7546 5.35396 18.6298 5.29554Z" fill="black"/>
<path d="M18.8236 0.963423C18.8236 1.11762 18.9007 1.19472 19.0549 1.19472C19.2091 1.19472 19.2862 1.11762 19.2862 0.963423C19.2862 0.809227 19.2091 0.732129 19.0549 0.732129C18.9007 0.732129 18.8236 0.809227 18.8236 0.963423ZM19.1549 0.744631L19.1361 0.73838C19.0596 0.701835 18.9827 0.700865 18.9053 0.735468C18.8279 0.770072 18.7773 0.828061 18.7535 0.909438C18.7298 0.990814 18.7412 1.06691 18.7878 1.13774C18.8344 1.20856 18.8997 1.24917 18.9839 1.25955C19.068 1.26993 19.1413 1.24643 19.2037 1.18906C19.2661 1.13168 19.2957 1.06064 19.2924 0.975925V0.957172C19.2912 0.857458 19.2453 0.786612 19.1549 0.744631ZM18.6235 1.03219C18.6235 1.12885 18.6577 1.21137 18.7261 1.27972C18.7944 1.34808 18.8769 1.38225 18.9736 1.38225C19.0703 1.38225 19.1528 1.34808 19.2211 1.27972C19.2895 1.21137 19.3237 1.12885 19.3237 1.03219C19.3237 0.935518 19.2895 0.853006 19.2211 0.784652C19.1528 0.716297 19.0703 0.682119 18.9736 0.682119C18.8769 0.682119 18.7944 0.716297 18.7261 0.784652C18.6577 0.853006 18.6235 0.935518 18.6235 1.03219ZM18.486 1.08845C18.486 1.21446 18.5306 1.32202 18.6197 1.41113C18.7088 1.50023 18.8163 1.54478 18.9423 1.54478C19.0684 1.54478 19.1759 1.50023 19.265 1.41113C19.3541 1.32202 19.3987 1.21446 19.3987 1.08845C19.3987 0.962433 19.3541 0.854873 19.265 0.765768C19.1759 0.676663 19.0684 0.63211 18.9423 0.63211C18.8163 0.63211 18.7088 0.676663 18.6197 0.765768C18.5306 0.854873 18.486 0.962433 18.486 1.08845ZM18.4923 1.41976L18.561 1.54478C18.6122 1.63592 18.681 1.71093 18.7673 1.76983L19.0174 1.93861C19.0194 1.94071 19.0215 1.94279 19.0236 1.94486L19.3487 2.1574L19.6737 2.47621L19.9613 2.88879L20.1613 3.41389L20.2738 4.03276L20.3676 4.63912C20.3674 4.64954 20.3674 4.65996 20.3676 4.67038L20.4614 5.13922C20.4843 5.25972 20.5405 5.36182 20.6302 5.44553L20.6677 5.47678V5.50804C20.7205 5.46143 20.7434 5.40309 20.7364 5.33301L20.6864 5.37676C20.5824 5.46845 20.5761 5.56636 20.6678 5.67049C20.7594 5.77461 20.8573 5.78089 20.9615 5.68932L20.999 5.65182L21.074 5.60181L21.1803 5.57055C21.3536 5.51561 21.4724 5.40308 21.5366 5.23299L21.7054 4.78915C21.7265 4.73674 21.7411 4.68256 21.7491 4.62662L21.8241 4.0015C21.8339 3.93065 21.8339 3.85981 21.8241 3.78896L21.7179 3.07633C21.7088 3.01178 21.6922 2.94926 21.6679 2.88879L21.3866 2.21991C21.3623 2.15979 21.331 2.10353 21.2928 2.05113L20.8865 1.50728C20.8532 1.46371 20.8157 1.42411 20.7739 1.3885L20.3239 0.988428C20.2778 0.949135 20.2278 0.915795 20.1738 0.888409L19.7675 0.682119C19.6966 0.644787 19.6216 0.619782 19.5425 0.607105L19.2424 0.563347C19.1736 0.552615 19.1049 0.552615 19.0361 0.563347L18.8923 0.588352C18.8024 0.604395 18.721 0.640047 18.6482 0.695306C18.5754 0.750564 18.5192 0.819366 18.4796 0.90171C18.44 0.984055 18.4213 1.0709 18.4235 1.16226C18.4257 1.25361 18.4487 1.33945 18.4923 1.41976Z" fill="black"/>
<path d="M20.6426 1.22598C20.6426 1.38017 20.7197 1.45727 20.8739 1.45727C21.0281 1.45727 21.1052 1.38017 21.1052 1.22598C21.1052 1.07178 21.0281 0.994681 20.8739 0.994681C20.7197 0.994681 20.6426 1.07178 20.6426 1.22598ZM20.5738 1.22598C20.5738 1.43018 20.6759 1.53228 20.8801 1.53228C21.0843 1.53228 21.1864 1.43018 21.1864 1.22598C21.1864 1.02177 21.0843 0.919667 20.8801 0.919667C20.6759 0.919667 20.5738 1.02177 20.5738 1.22598ZM20.4988 1.26348V1.35725C20.5027 1.44887 20.5277 1.5343 20.5738 1.61355L20.7176 1.85735L20.9176 2.21366L21.1052 2.71376L21.274 3.33888L21.3677 4.02651L21.399 4.70164L21.3677 5.30175L21.3177 5.81435C21.3147 5.83718 21.3126 5.8601 21.3115 5.88311L21.3052 6.28944C21.3029 6.37705 21.3154 6.46248 21.3427 6.54574L21.4115 6.74578C21.4683 6.91144 21.578 7.02702 21.7404 7.0925C21.9029 7.15798 22.062 7.15076 22.2179 7.07084L22.4117 6.97707C22.5709 6.89298 22.6855 6.76795 22.7555 6.602L22.918 6.23318C22.9494 6.1611 22.9703 6.08608 22.9805 6.00814L23.0493 5.47053C23.0527 5.44355 23.0548 5.41646 23.0555 5.38927L23.0743 4.72664C23.0758 4.69747 23.0758 4.6683 23.0743 4.63913L23.018 3.89523C23.0157 3.86374 23.0115 3.83248 23.0055 3.80147L22.868 3.02632C22.8589 2.98364 22.8464 2.94196 22.8305 2.90129L22.5805 2.21366C22.5608 2.16095 22.5358 2.11094 22.5054 2.06363L22.1741 1.53228C22.1455 1.48687 22.1121 1.4452 22.0741 1.40726L21.749 1.07595C21.6906 1.01971 21.6239 0.975947 21.549 0.944672L21.2802 0.825899C21.1423 0.764981 21.0027 0.760814 20.8614 0.813397L20.7739 0.844653C20.5803 0.917373 20.4886 1.05698 20.4988 1.26348ZM21.5865 6.60825L21.5553 6.68952C21.641 6.68225 21.6993 6.63849 21.7303 6.55824L21.6615 6.56449C21.5242 6.57715 21.4618 6.65216 21.4743 6.78951C21.4867 6.92687 21.5617 6.98939 21.699 6.97707L21.7553 6.97082H21.8366C21.996 6.97193 22.0856 6.89336 22.1052 6.73511C22.1248 6.57687 22.0572 6.47881 21.9023 6.44092C21.7474 6.40303 21.6421 6.45881 21.5865 6.60825Z" fill="black"/>
<path d="M18.9986 4.14534C18.9986 4.3287 19.0902 4.42039 19.2736 4.42039C19.457 4.42039 19.5487 4.3287 19.5487 4.14534C19.5487 3.96197 19.457 3.87028 19.2736 3.87028C19.0902 3.87028 18.9986 3.96197 18.9986 4.14534ZM18.9673 4.15159C18.9673 4.35579 19.0694 4.45789 19.2736 4.45789C19.4778 4.45789 19.5799 4.35579 19.5799 4.15159C19.5799 3.94738 19.4778 3.84528 19.2736 3.84528C19.0694 3.84528 18.9673 3.94738 18.9673 4.15159ZM18.8485 3.93279L18.711 4.12033C18.6778 4.16257 18.6507 4.20842 18.6297 4.25786L18.4735 4.65793C18.4663 4.6764 18.4601 4.69515 18.4547 4.71419L18.2859 5.2768C18.2528 5.38665 18.2507 5.49709 18.2797 5.60811L18.3984 6.0582L18.1984 6.53954C18.1444 6.677 18.1861 6.7728 18.3235 6.82694C18.4609 6.88107 18.5567 6.83945 18.611 6.70207L18.8048 6.22073L19.1986 5.97068C19.3156 5.8987 19.3989 5.79868 19.4486 5.67063L19.6549 5.12052C19.6648 5.09603 19.6732 5.07103 19.6799 5.04551L19.78 4.62668C19.7991 4.55039 19.8033 4.47329 19.7925 4.39538L19.755 4.16409C19.7228 3.94093 19.5975 3.80148 19.379 3.74573C19.1605 3.68999 18.9837 3.75234 18.8485 3.93279Z" fill="black"/>
<path d="M18.5735 3.18886C18.5735 3.35556 18.6569 3.43891 18.8236 3.43891C18.9903 3.43891 19.0736 3.35556 19.0736 3.18886C19.0736 3.02216 18.9903 2.93881 18.8236 2.93881C18.6569 2.93881 18.5735 3.02216 18.5735 3.18886ZM18.5423 3.18886C18.5423 3.36806 18.6319 3.45766 18.8111 3.45766C18.9903 3.45766 19.0799 3.36806 19.0799 3.18886C19.0799 3.00966 18.9903 2.92006 18.8111 2.92006C18.6319 2.92006 18.5423 3.00966 18.5423 3.18886ZM18.4422 3.18886C18.4422 3.2838 18.4758 3.36484 18.5429 3.43197C18.6101 3.49911 18.6911 3.53267 18.786 3.53267C18.881 3.53267 18.962 3.49911 19.0292 3.43197C19.0963 3.36484 19.1299 3.2838 19.1299 3.18886C19.1299 3.09392 19.0963 3.01288 19.0292 2.94574C18.962 2.87861 18.881 2.84504 18.786 2.84504C18.6911 2.84504 18.6101 2.87861 18.5429 2.94574C18.4758 3.01288 18.4422 3.09392 18.4422 3.18886ZM18.3485 3.18261C18.3485 3.29654 18.3887 3.39378 18.4693 3.47434C18.5499 3.5549 18.6471 3.59519 18.761 3.59519C18.875 3.59519 18.9722 3.5549 19.0528 3.47434C19.1333 3.39378 19.1736 3.29654 19.1736 3.18261C19.1736 3.06868 19.1333 2.97143 19.0528 2.89087C18.9722 2.81031 18.875 2.77003 18.761 2.77003C18.6471 2.77003 18.5499 2.81031 18.4693 2.89087C18.3887 2.97143 18.3485 3.06868 18.3485 3.18261ZM18.2672 3.1701C18.2672 3.30302 18.3142 3.41648 18.4082 3.51046C18.5022 3.60445 18.6156 3.65145 18.7485 3.65145C18.8815 3.65145 18.9949 3.60445 19.0889 3.51046C19.1829 3.41648 19.2299 3.30302 19.2299 3.1701C19.2299 3.03719 19.1829 2.92373 19.0889 2.82974C18.9949 2.73576 18.8815 2.68876 18.7485 2.68876C18.6156 2.68876 18.5022 2.73576 18.4082 2.82974C18.3142 2.92373 18.2672 3.03719 18.2672 3.1701ZM18.2422 3.18886V3.23887V3.28888L18.2297 3.36389L18.1609 3.58893L18.0484 3.939L17.9046 4.34533L17.7358 4.76416L17.5233 5.22675L17.2795 5.70184L17.0107 6.17068L16.7482 6.60826L16.4919 7.00208L16.2356 7.3584L15.998 7.66471L15.723 7.95226L15.3854 8.25232L15.0228 8.53988L14.6353 8.80243L14.2164 9.06498L13.8039 9.32128L13.0412 9.78386L12.6974 9.9964C12.6953 9.99848 12.6932 10.0006 12.6911 10.0027L12.3473 10.2152C12.3431 10.2173 12.339 10.2193 12.3348 10.2214L11.991 10.4465C11.9826 10.4526 11.9742 10.4589 11.966 10.4652L11.6347 10.6965C11.6263 10.7006 11.618 10.7048 11.6097 10.709L11.3159 10.9278L11.0596 11.1154L10.8533 11.2654L10.697 11.3717L10.5345 11.4654L10.3282 11.578L10.0719 11.703C10.0593 11.709 10.0468 11.7152 10.0344 11.7217L9.74683 11.8718L9.45927 12.0218L9.18422 12.1593L8.90917 12.2968L8.62787 12.4344C8.61523 12.4404 8.60273 12.4466 8.59036 12.4531L8.28405 12.6157C8.26489 12.6275 8.24613 12.64 8.22779 12.6532L7.87772 12.8657C7.86497 12.8758 7.85247 12.8862 7.84022 12.897L7.44639 13.1658C7.43796 13.1719 7.42963 13.1781 7.42139 13.1845L6.9588 13.5283C6.94822 13.5365 6.9378 13.5448 6.92754 13.5533L6.40244 13.9722C6.39826 13.9742 6.39409 13.9763 6.38994 13.9784L5.83358 14.4347C5.8294 14.4368 5.82523 14.4389 5.82108 14.441L5.25847 14.9161C5.2479 14.9242 5.23748 14.9326 5.22722 14.9411L4.70837 15.4162C4.69555 15.4284 4.68305 15.4409 4.67086 15.4537L4.18952 15.935C4.16994 15.9551 4.15119 15.976 4.13326 15.9975L3.67067 16.5414C3.65777 16.5556 3.64527 16.5702 3.63316 16.5852L3.17683 17.1853C3.15911 17.2096 3.14244 17.2346 3.12682 17.2603L2.69549 17.9479C2.67746 17.9763 2.66079 18.0055 2.64548 18.0354L2.2579 18.7981C2.24668 18.8206 2.23627 18.8436 2.22665 18.8668L1.87658 19.6795C1.86491 19.7082 1.85449 19.7374 1.84532 19.767L1.56402 20.6172C1.55935 20.6358 1.55519 20.6546 1.55152 20.6734L1.31397 21.5549C1.30683 21.5796 1.30058 21.6046 1.29522 21.6299L1.12019 22.5363C1.11528 22.5591 1.11111 22.582 1.10768 22.6051L0.995162 23.5365C0.992594 23.5552 0.990509 23.5739 0.988911 23.5927L0.920148 24.5492C0.91768 24.5658 0.915597 24.5825 0.913897 24.5992L0.888892 25.5806C0.888598 25.5952 0.888598 25.6098 0.888892 25.6244L0.901395 26.6371C0.901182 26.6496 0.901182 26.6621 0.901395 26.6746L0.945153 27.706C0.944772 27.7227 0.944772 27.7394 0.945153 27.756L1.03892 28.7625C1.04079 28.775 1.04287 28.7875 1.04517 28.8L1.16394 29.7502C1.16581 29.7627 1.1679 29.7752 1.1702 29.7877L1.30772 30.6628C1.31432 30.6987 1.32265 30.7341 1.33273 30.7691L1.52651 31.513C1.57444 31.702 1.66612 31.8666 1.80157 32.0068L2.21414 32.4257C2.48949 32.7052 2.80802 32.7689 3.16974 32.617C3.53145 32.465 3.70885 32.1928 3.70193 31.8006L3.68943 31.2129C3.68596 31.1411 3.67554 31.0702 3.65817 31.0004L3.50189 30.2753L3.35811 29.4439L3.23309 28.5374L3.14557 27.5747L3.08931 26.5871L3.07681 25.6181L3.10181 24.6804L3.16433 23.774L3.26434 22.9114L3.42688 22.0737L3.63316 21.261L3.89571 20.4859L4.20202 19.742L4.55209 19.0481L4.93341 18.423L5.31474 17.8792L5.72106 17.3978L6.15865 16.9602L6.64624 16.5101L7.17759 16.0476L7.72144 15.5975L8.22779 15.1786L8.65912 14.8473L9.00919 14.591L9.30925 14.3972L9.56554 14.2472L9.82184 14.1159L10.0906 13.9784L10.3719 13.8409L10.6658 13.6971C10.6763 13.691 10.6867 13.6848 10.697 13.6784L10.9908 13.5221C11.0055 13.5162 11.0201 13.5099 11.0346 13.5033L11.2784 13.3595L11.5097 13.2345C11.5266 13.2246 11.5433 13.2142 11.5597 13.2033L11.766 13.0782C11.7808 13.0682 11.7954 13.0578 11.8097 13.047L12.0098 12.9095C12.0203 12.9013 12.0308 12.893 12.041 12.8845L12.2536 12.7282L12.5036 12.5406C12.5078 12.5386 12.512 12.5365 12.5161 12.5344L12.7912 12.3218L13.0975 12.1093L13.4288 11.8905C13.4309 11.8905 13.4329 11.8905 13.435 11.8905L13.7538 11.6717L14.0852 11.4654L14.8415 10.9903C14.8436 10.9903 14.8457 10.9903 14.8478 10.9903L15.2604 10.7215C15.2667 10.7174 15.2729 10.7133 15.2791 10.709L15.7105 10.4215C15.7168 10.4174 15.723 10.4132 15.7292 10.409L16.148 10.1152C16.1696 10.0994 16.1904 10.0827 16.2106 10.0652L16.6169 9.7276C16.6342 9.71155 16.6508 9.69488 16.6669 9.67759L17.042 9.32128C17.0615 9.30331 17.0803 9.28455 17.0982 9.26501L17.4108 8.9087C17.4329 8.88477 17.4538 8.85977 17.4733 8.83368L17.7421 8.45861C17.7484 8.45245 17.7547 8.4462 17.7609 8.43986L18.0234 8.04603C18.0342 8.03175 18.0447 8.01716 18.0547 8.00227L18.311 7.56469C18.3174 7.5544 18.3237 7.54398 18.3297 7.53344L18.586 7.05834C18.5881 7.05419 18.5902 7.05003 18.5923 7.04584L18.8548 6.5395C18.8613 6.5292 18.8675 6.51879 18.8736 6.50824L19.1174 5.99564C19.1241 5.97916 19.1304 5.96249 19.1361 5.94563L19.3424 5.43929C19.3515 5.41877 19.3599 5.39794 19.3674 5.37677L19.5174 4.89543C19.5252 4.86659 19.5315 4.83742 19.5362 4.80792L19.63 4.36408C19.6373 4.32273 19.6415 4.28105 19.6425 4.23906L19.6612 3.86399C19.6653 3.78349 19.657 3.70431 19.6362 3.62644L19.5612 3.35139C19.5435 3.28481 19.5164 3.22229 19.4799 3.16385L19.3799 3.00757C19.358 2.97386 19.333 2.9426 19.3049 2.91381L19.2236 2.82629C19.1162 2.71421 18.985 2.65587 18.8298 2.65126H18.7798C18.6299 2.64764 18.5019 2.69886 18.3958 2.8049C18.2898 2.91095 18.2386 3.03893 18.2422 3.18886ZM2.87677 32.4569L3.12682 32.6882C3.29065 32.8027 3.44044 32.7866 3.57617 32.6399C3.7119 32.4931 3.71631 32.3426 3.58941 32.1881L3.33936 31.9568C3.17552 31.8423 3.02574 31.8584 2.89001 32.0052C2.75428 32.1519 2.74987 32.3025 2.87677 32.4569Z" fill="black"/>
<path d="M2.00163 26.0682C2.00163 26.1735 2.03886 26.2634 2.11332 26.3379C2.18777 26.4123 2.27765 26.4496 2.38295 26.4496C2.48825 26.4496 2.57813 26.4123 2.65259 26.3379C2.72705 26.2634 2.76427 26.1735 2.76427 26.0682C2.76427 25.9629 2.72705 25.8731 2.65259 25.7986C2.57813 25.7242 2.48825 25.6869 2.38295 25.6869C2.27765 25.6869 2.18777 25.7242 2.11332 25.7986C2.03886 25.8731 2.00163 25.9629 2.00163 26.0682ZM1.93287 26.0745C1.93287 26.1971 1.9762 26.3017 2.06286 26.3883C2.14952 26.475 2.25414 26.5183 2.3767 26.5183C2.49926 26.5183 2.60387 26.475 2.69054 26.3883C2.7772 26.3017 2.82053 26.1971 2.82053 26.0745C2.82053 25.9519 2.7772 25.8473 2.69054 25.7607C2.60387 25.674 2.49926 25.6307 2.3767 25.6307C2.25414 25.6307 2.14952 25.674 2.06286 25.7607C1.9762 25.8473 1.93287 25.9519 1.93287 26.0745ZM1.84535 26.112C1.84535 26.2518 1.89478 26.3712 1.99365 26.47C2.09252 26.5689 2.21187 26.6184 2.3517 26.6184C2.49152 26.6184 2.61087 26.5689 2.70974 26.47C2.80861 26.3712 2.85804 26.2518 2.85804 26.112C2.85804 25.9722 2.80861 25.8528 2.70974 25.754C2.61087 25.6551 2.49152 25.6057 2.3517 25.6057C2.21187 25.6057 2.09252 25.6551 1.99365 25.754C1.89478 25.8528 1.84535 25.9722 1.84535 26.112ZM1.94537 25.6994L1.8266 25.7869C1.71917 25.8697 1.63998 25.9738 1.58905 26.0995L1.43902 26.4371C1.41452 26.4996 1.39785 26.5642 1.38901 26.6309L1.28899 27.2372C1.2821 27.2765 1.27793 27.3161 1.27649 27.356L1.26399 28.1624C1.26292 28.1874 1.26292 28.2124 1.26399 28.2374L1.3265 29.1626C1.32755 29.1877 1.32963 29.2127 1.33275 29.2376L1.47653 30.2065C1.47986 30.2296 1.48403 30.2525 1.48903 30.2753L1.69532 31.2067C1.70215 31.2384 1.71048 31.2696 1.72032 31.3005L1.98913 32.1256C2.00333 32.1663 2.02 32.2059 2.03914 32.2444L2.3517 32.9195C2.36842 32.956 2.38717 32.9915 2.40796 33.0258L2.73302 33.5572C2.77444 33.6228 2.82237 33.6832 2.8768 33.7385L3.25812 34.1323C3.31481 34.1914 3.37733 34.2434 3.44565 34.2886L3.89574 34.5886C3.94367 34.6195 3.99367 34.6466 4.04577 34.6699L4.59587 34.9199C4.61844 34.9311 4.64136 34.9416 4.66464 34.9512L5.30851 35.195C5.32503 35.2016 5.3417 35.2079 5.35852 35.2137L6.09616 35.4513C6.11066 35.4557 6.12525 35.4599 6.13992 35.4638L6.96507 35.6951C6.97131 35.6972 6.97756 35.6993 6.98383 35.7013L7.86524 35.9389L8.76542 36.1889L9.63433 36.4515L10.472 36.7203L11.2721 36.9891C11.2742 36.9912 11.2763 36.9932 11.2784 36.9953L12.0723 37.2579C12.0868 37.2623 12.1014 37.2665 12.1161 37.2704L12.935 37.5079C12.9412 37.5101 12.9474 37.5121 12.9537 37.5142L13.8351 37.7517C13.862 37.759 13.8891 37.7652 13.9164 37.7705L14.8728 37.9455C14.8956 37.9504 14.9185 37.9546 14.9416 37.958L15.998 38.0893C16.0209 38.0921 16.0438 38.0942 16.0668 38.0955L17.2045 38.1705C17.2212 38.1709 17.2379 38.1709 17.2545 38.1705L18.4673 38.1956C18.4735 38.1956 18.4798 38.1956 18.486 38.1956L19.7675 38.1893C19.7758 38.1894 19.7842 38.1894 19.7925 38.1893L21.1365 38.158C21.149 38.1583 21.1615 38.1583 21.174 38.158L22.6181 38.0705C22.6243 38.0706 22.6306 38.0706 22.6368 38.0705L24.1996 37.9518C24.2121 37.9499 24.2246 37.9478 24.2371 37.9455L25.8874 37.7705C25.9062 37.7689 25.925 37.7668 25.9437 37.7642L27.669 37.4954C27.6963 37.4923 27.7234 37.4882 27.7503 37.4829L29.4881 37.0703C29.5817 37.0469 29.6692 37.0094 29.7507 36.9578L31.0822 36.1452L32.4074 35.8639C32.5774 35.8178 32.6447 35.7085 32.6094 35.536C32.5741 35.3635 32.4693 35.2894 32.2949 35.3138L30.9696 35.5888L29.4444 35.3075C29.3675 35.2954 29.2904 35.2933 29.2131 35.3013L27.4315 35.4325C27.4231 35.4345 27.4148 35.4366 27.4065 35.4388L25.6686 35.6201L24.0308 35.7763L22.493 35.8826L21.074 35.9451L19.755 35.9701H18.4985L17.3233 35.9451L16.2418 35.8701L15.2542 35.7513L14.3602 35.5763L13.5288 35.3763L12.7474 35.1512L11.9785 34.8949L11.1784 34.6261C11.1721 34.624 11.1659 34.6219 11.1596 34.6199L10.3032 34.3448C10.297 34.3427 10.2907 34.3406 10.2845 34.3386L9.39053 34.0698C9.3843 34.0676 9.37805 34.0655 9.37178 34.0635L8.45911 33.8072C8.45287 33.8051 8.44662 33.803 8.44035 33.801L7.56519 33.5634L6.76504 33.3321L6.0649 33.1071L5.48979 32.8945L5.03346 32.6758L4.70214 32.4757L4.44584 32.2507L4.1958 31.9194L3.92074 31.3755L3.62069 30.6379L3.33938 29.8065L3.12684 28.9375L3.01432 28.1186V27.3935L3.03933 26.7996C3.04027 26.7767 3.04027 26.7538 3.03933 26.7309L3.02682 26.3621C3.0227 26.2519 2.99561 26.1477 2.94556 26.0495L2.8768 25.9182C2.78916 25.7451 2.6509 25.6364 2.46201 25.592C2.27313 25.5476 2.10091 25.5834 1.94537 25.6994Z" fill="black"/>
<path d="M26.9001 36.689C26.9001 36.7891 26.9355 36.8746 27.0063 36.9454C27.0771 37.0162 27.1626 37.0516 27.2627 37.0516C27.3628 37.0516 27.4483 37.0162 27.5191 36.9454C27.5899 36.8746 27.6253 36.7891 27.6253 36.689C27.6253 36.5889 27.5899 36.5034 27.5191 36.4326C27.4483 36.3618 27.3628 36.3264 27.2627 36.3264C27.1626 36.3264 27.0771 36.3618 27.0063 36.4326C26.9355 36.5034 26.9001 36.5889 26.9001 36.689ZM26.8876 36.689C26.8876 36.7909 26.9236 36.8778 26.9956 36.9498C27.0677 37.0218 27.1546 37.0578 27.2564 37.0578C27.3583 37.0578 27.4452 37.0218 27.5172 36.9498C27.5892 36.8778 27.6253 36.7909 27.6253 36.689C27.6253 36.5872 27.5892 36.5002 27.5172 36.4282C27.4452 36.3562 27.3583 36.3202 27.2564 36.3202C27.1546 36.3202 27.0677 36.3562 26.9956 36.4282C26.9236 36.5002 26.8876 36.5872 26.8876 36.689ZM26.7938 36.6953C26.7938 36.8196 26.8378 36.9256 26.9257 37.0135C27.0136 37.1014 27.1196 37.1453 27.2439 37.1453C27.3682 37.1453 27.4743 37.1014 27.5622 37.0135C27.6501 36.9256 27.694 36.8196 27.694 36.6953C27.694 36.571 27.6501 36.4649 27.5622 36.377C27.4743 36.2891 27.3682 36.2452 27.2439 36.2452C27.1196 36.2452 27.0136 36.2891 26.9257 36.377C26.8378 36.4649 26.7938 36.571 26.7938 36.6953ZM26.6438 36.6953C26.6438 36.8593 26.7018 36.9992 26.8178 37.1152C26.9337 37.2311 27.0737 37.2891 27.2377 37.2891C27.4017 37.2891 27.5416 37.2311 27.6576 37.1152C27.7736 36.9992 27.8315 36.8593 27.8315 36.6953C27.8315 36.5313 27.7736 36.3913 27.6576 36.2753C27.5416 36.1594 27.4017 36.1014 27.2377 36.1014C27.0737 36.1014 26.9337 36.1594 26.8178 36.2753C26.7018 36.3913 26.6438 36.5313 26.6438 36.6953ZM26.8564 37.2954L26.9251 37.3454C27.0199 37.4115 27.1241 37.4553 27.2377 37.4767L27.4377 37.5142C27.4543 37.5188 27.4709 37.523 27.4877 37.5267L27.7878 37.5642C27.8188 37.57 27.8501 37.5742 27.8816 37.5767L28.2879 37.5829C28.3254 37.5853 28.3629 37.5853 28.4004 37.5829L28.9255 37.5329C28.957 37.5304 28.9882 37.5262 29.0193 37.5204L29.6756 37.3829C29.7115 37.3766 29.747 37.3682 29.7819 37.3579L30.5383 37.1203C30.5573 37.1126 30.5761 37.1043 30.5946 37.0953L31.4072 36.7765C31.4198 36.7726 31.4323 36.7684 31.4447 36.764L32.2449 36.4202C32.2554 36.4142 32.2658 36.4079 32.2761 36.4015L33.02 36.0514C33.0369 36.0435 33.0536 36.0352 33.07 36.0264L33.7202 35.6701C33.7437 35.6564 33.7666 35.6418 33.7889 35.6263L34.364 35.2512C34.4013 35.2266 34.4367 35.1995 34.4703 35.17L34.9829 34.7199C35.021 34.6872 35.0565 34.6518 35.0892 34.6136L35.5205 34.101C35.5935 34.015 35.6498 33.9191 35.6893 33.8135L35.9206 33.2071C36.0329 32.9025 35.9829 32.6275 35.7706 32.3819L35.683 32.2819L35.8206 31.8943C35.8706 31.7485 35.8226 31.6506 35.6768 31.6005C35.5309 31.5505 35.433 31.5985 35.383 31.7443L35.258 32.0944H35.1579C34.9291 32.0921 34.7333 32.1713 34.5703 32.3319L34.1077 32.782C34.0927 32.7961 34.0781 32.8107 34.064 32.8258L33.6514 33.2759L33.2263 33.6447L32.7387 33.9697L32.1449 34.2948L31.4447 34.6449L30.6821 34.9824L29.9069 35.2887L29.1943 35.5325L28.6254 35.7013L28.2004 35.7763L27.8315 35.8076C27.8169 35.8093 27.8023 35.8114 27.7878 35.8138L27.4877 35.8514C27.4709 35.855 27.4543 35.8592 27.4377 35.8639L27.2377 35.9014C27.0935 35.9292 26.9664 35.9917 26.8564 36.0889L26.7938 36.1514C26.7104 36.2254 26.6472 36.314 26.6042 36.4169C26.5612 36.5199 26.5428 36.6271 26.5489 36.7385C26.555 36.8499 26.585 36.9544 26.6389 37.0521C26.6928 37.1498 26.7653 37.2309 26.8564 37.2954Z" fill="black"/>
<path d="M22.7369 5.7581V5.74559L22.7556 5.69558C22.7133 5.73061 22.6842 5.77437 22.6681 5.82686L22.6994 5.7956C22.7776 5.73517 22.821 5.65569 22.8294 5.55716C22.8378 5.45863 22.8086 5.37295 22.7417 5.3001C22.6748 5.22726 22.592 5.19084 22.4931 5.19084C22.3942 5.19084 22.3113 5.22726 22.2444 5.30011C22.1775 5.37295 22.1483 5.45863 22.1567 5.55716C22.1652 5.65569 22.2085 5.73517 22.2868 5.7956L22.318 5.82686C22.3011 5.79295 22.2782 5.76378 22.2493 5.73934L22.2805 5.7956C22.2842 5.80417 22.2884 5.81251 22.293 5.82061L22.3118 5.84561C22.3717 5.92918 22.452 5.9606 22.5527 5.93986C22.6535 5.91913 22.7148 5.85854 22.7369 5.7581ZM22.0805 5.47054C22.0805 5.58447 22.1208 5.68172 22.2013 5.76228C22.2819 5.84284 22.3791 5.88312 22.4931 5.88312C22.607 5.88312 22.7042 5.84284 22.7848 5.76228C22.8654 5.68172 22.9056 5.58447 22.9056 5.47054C22.9056 5.35661 22.8654 5.25937 22.7848 5.1788C22.7042 5.09824 22.607 5.05796 22.4931 5.05796C22.3791 5.05796 22.2819 5.09824 22.2013 5.1788C22.1208 5.25937 22.0805 5.35661 22.0805 5.47054ZM22.0492 5.32051L21.9867 5.46429C21.9619 5.51595 21.9452 5.57012 21.9367 5.62682L21.9055 5.92063C21.9021 5.94343 21.9 5.96635 21.8992 5.98939L21.893 6.34571C21.8929 6.35196 21.8929 6.35821 21.893 6.36446L21.9055 6.73328V7.1021C21.9058 7.1314 21.9079 7.16057 21.9117 7.18962L21.968 7.58969C21.9692 7.61062 21.9713 7.63145 21.9742 7.65221L22.0617 8.05853C22.0636 8.06899 22.0657 8.07941 22.068 8.08979L22.1868 8.52737C22.192 8.55056 22.1983 8.57348 22.2055 8.59614L22.368 9.05247C22.3817 9.09333 22.3984 9.13292 22.4181 9.17125L22.6618 9.62133C22.6786 9.65376 22.6974 9.68502 22.7181 9.7151L23.0244 10.1402C23.0419 10.1662 23.0606 10.1912 23.0807 10.2152L23.4307 10.609C23.4466 10.6285 23.4633 10.6472 23.4808 10.6653L23.8683 11.0404C23.8825 11.0533 23.8971 11.0658 23.9121 11.0779L24.3497 11.4467C24.3619 11.4574 24.3744 11.4678 24.3872 11.4779L24.8623 11.8405C24.8725 11.8491 24.8829 11.8574 24.8935 11.8655L25.4061 12.2281C25.4103 12.2302 25.4144 12.2323 25.4186 12.2343L25.9437 12.5906C25.9499 12.597 25.9561 12.6032 25.9625 12.6094L26.4938 12.9532L27.0189 13.297L27.544 13.6471L28.0691 14.0159L28.6067 14.416C28.6129 14.4202 28.6192 14.4244 28.6255 14.4285L29.1756 14.8161C29.1797 14.8203 29.1839 14.8244 29.1881 14.8286L29.7319 15.1911C29.7402 15.1975 29.7485 15.2038 29.7569 15.2099L30.282 15.5412L30.7509 15.8538L31.1822 16.1913L31.6261 16.5602L32.0699 16.954L32.5137 17.3916L32.9638 17.8667L33.3951 18.3918L33.814 18.9919L34.214 19.6482L34.6141 20.3734L35.033 21.1735L35.4518 21.9987L35.7956 22.7926L36.0519 23.5927L36.2207 24.3679L36.3019 25.1055L36.3082 25.8119L36.2519 26.4995L36.1644 27.1622L36.0519 27.806L35.9144 28.4437L35.7581 29.0563L35.5893 29.6564L35.408 30.2378L35.2392 30.7566L35.0767 31.1754L34.9079 31.5318L34.7329 31.8381L34.4954 32.1631L34.1953 32.5382L33.8327 32.9445L33.4452 33.3633L33.0638 33.7572L32.7138 34.101L32.4075 34.3948C32.3356 34.4653 32.2752 34.5445 32.2262 34.6323L32.0761 34.9011C32.002 35.0332 31.9648 35.1749 31.9647 35.3263C31.9646 35.4777 32.0016 35.6195 32.0756 35.7516C32.1497 35.8837 32.2513 35.9892 32.3805 36.0682C32.5097 36.1472 32.65 36.1895 32.8013 36.1951L33.1076 36.2014C33.3032 36.2089 33.4866 36.1651 33.6577 36.0701L34.0265 35.8638C34.0698 35.8416 34.1115 35.8166 34.1515 35.7888L34.5579 35.4825C34.5904 35.4591 34.6217 35.4341 34.6516 35.4075L35.0767 35.0199C35.0852 35.0117 35.0935 35.0034 35.1017 34.9949L35.5268 34.5823C35.5485 34.5602 35.5694 34.5373 35.5893 34.5136L35.9706 34.076C35.9813 34.0637 35.9917 34.0512 36.0019 34.0385L36.3457 33.6134C36.3653 33.5912 36.3841 33.5683 36.402 33.5446L36.677 33.1383C36.6948 33.1119 36.7115 33.0848 36.727 33.057L36.9583 32.657C36.9762 32.6285 36.9929 32.5993 37.0083 32.5694L37.2084 32.1319C37.2219 32.1053 37.2344 32.0782 37.2459 32.0506L37.4272 31.5568C37.4338 31.5402 37.44 31.5236 37.4459 31.5067L37.6272 30.9504C37.6315 30.94 37.6357 30.9296 37.6397 30.9191L37.8147 30.319C37.8193 30.3024 37.8234 30.2858 37.8272 30.269L37.9898 29.6314C37.9898 29.6293 37.9898 29.6272 37.9898 29.6251L38.146 28.9688C38.1506 28.9522 38.1548 28.9355 38.1585 28.9188L38.2898 28.2436C38.292 28.2332 38.2941 28.2228 38.2961 28.2124L38.4148 27.5247C38.4172 27.5102 38.4193 27.4956 38.4211 27.481L38.5086 26.7621C38.5118 26.733 38.5139 26.7038 38.5149 26.6746L38.5586 25.9057C38.5599 25.8744 38.5599 25.8432 38.5586 25.8119L38.5274 25.0055C38.527 24.97 38.5249 24.9346 38.5211 24.8992L38.4086 24.0491C38.4045 24.0091 38.3982 23.9696 38.3898 23.9303L38.1711 23.0426C38.159 23.0001 38.1444 22.9584 38.1273 22.9176L37.796 22.0362C37.7845 22.0107 37.772 21.9857 37.7585 21.9612L37.3521 21.0985C37.3461 21.0859 37.3399 21.0734 37.3334 21.061L36.8958 20.2171C36.8917 20.2108 36.8875 20.2046 36.8833 20.1983L36.4457 19.3919C36.4417 19.3836 36.4375 19.3752 36.4332 19.3669L36.0019 18.6168C35.9938 18.6041 35.9855 18.5916 35.9769 18.5793L35.5393 17.8792C35.5274 17.86 35.5149 17.8412 35.5018 17.8229L35.033 17.179C35.0114 17.1507 34.9885 17.1236 34.9642 17.0978L34.4578 16.5351C34.4477 16.5245 34.4372 16.5141 34.4266 16.5039L33.9327 15.9975C33.9206 15.9847 33.9081 15.9722 33.8952 15.96L33.4076 15.51C33.3974 15.5014 33.387 15.4931 33.3764 15.4849L32.895 15.0786C32.8828 15.0679 32.8703 15.0575 32.8575 15.0474L32.3762 14.6785C32.366 14.67 32.3555 14.6617 32.3449 14.6535L31.8573 14.3097C31.847 14.3033 31.8366 14.297 31.8261 14.291L31.3197 13.9534C31.3156 13.9513 31.3114 13.9492 31.3072 13.9472L30.7821 13.6158L30.257 13.2595L29.7194 12.8845L29.1693 12.4906C29.1652 12.4864 29.161 12.4823 29.1568 12.4781L28.613 12.0968C28.6068 12.0947 28.6005 12.0926 28.5942 12.0906L28.0566 11.7342C28.0546 11.7321 28.0525 11.7301 28.0504 11.728L27.519 11.3779C27.5149 11.3758 27.5107 11.3737 27.5065 11.3717L26.9814 11.0404L26.4751 10.6965L25.9812 10.3527L25.5311 10.0089L25.1061 9.65884L24.731 9.34628L24.4122 9.02122L24.1309 8.68365L23.9121 8.35859L23.7496 8.00227L23.6058 7.6147L23.4683 7.23338C23.4662 7.2271 23.4642 7.22085 23.462 7.21462L23.3182 6.83955L23.212 6.54575L23.1619 6.25819L23.1182 5.92688C23.1185 5.91646 23.1185 5.90604 23.1182 5.89562L23.0682 5.60182C23.059 5.5404 23.0402 5.48206 23.0119 5.42678L22.9369 5.28926C22.8404 5.1073 22.6891 5.01995 22.4833 5.0272C22.2774 5.03444 22.1327 5.13222 22.0492 5.32051ZM32.5575 35.1387L32.3699 35.1512C32.1911 35.164 32.1079 35.2598 32.1203 35.4387C32.1328 35.6176 32.2285 35.701 32.4075 35.6888L32.595 35.6763C32.7739 35.6635 32.8571 35.5677 32.8446 35.3888C32.8321 35.2099 32.7364 35.1265 32.5575 35.1387Z" fill="black"/>
<path d="M12.7723 18.7481C12.7723 18.9648 12.8807 19.0731 13.0974 19.0731C13.3141 19.0731 13.4225 18.9648 13.4225 18.7481C13.4225 18.5314 13.3141 18.423 13.0974 18.423C12.8807 18.423 12.7723 18.5314 12.7723 18.7481ZM13.4287 18.7293L13.4225 18.6918C13.4226 18.6856 13.4226 18.6793 13.4225 18.6731L13.41 18.573L13.3975 18.423V18.2292L13.4912 17.8854L13.7163 17.3228L14.1101 16.5852L14.6977 15.7163L15.4603 14.7598L16.3355 13.7784C16.3397 13.7764 16.3439 13.7743 16.348 13.7721L17.1857 12.7782L17.9483 11.8593L18.6172 11.1716C18.7059 11.0718 18.7031 10.9746 18.6086 10.8802C18.5142 10.7857 18.417 10.7828 18.3171 10.8716L17.6483 11.5592L16.7481 12.3469C16.746 12.3469 16.7439 12.3469 16.7418 12.3469L15.7667 13.2033C15.758 13.2112 15.7496 13.2196 15.7416 13.2283L14.829 14.1972C14.8225 14.2033 14.8163 14.2095 14.8102 14.216L14.0101 15.1849C14.0034 15.1951 13.9971 15.2055 13.9913 15.2162L13.3724 16.1101C13.3656 16.1223 13.3593 16.1348 13.3537 16.1476L12.9224 16.9165C12.9103 16.9365 12.8999 16.9573 12.8911 16.979L12.6598 17.5916C12.647 17.626 12.6387 17.6614 12.6348 17.6979L12.5848 18.123C12.5797 18.1671 12.5818 18.2108 12.5911 18.2542L12.6411 18.5105C12.6441 18.5275 12.6483 18.5442 12.6536 18.5605L12.7161 18.7293C12.7211 18.7465 12.7273 18.7631 12.7348 18.7793L12.7848 18.8731C12.7907 18.8817 12.797 18.8901 12.8036 18.8981L12.8223 18.9294C12.9157 19.069 13.0421 19.1125 13.2016 19.0599C13.3611 19.0073 13.4368 18.8971 13.4287 18.7293Z" fill="black"/>
<path d="M20.1551 18.0104L20.1676 17.9979C20.2192 17.9459 20.2484 17.8834 20.2551 17.8104L20.2676 17.6979L20.2989 17.4353C20.3012 17.4271 20.3033 17.4187 20.3051 17.4103L20.3239 16.9665C20.3239 16.9644 20.3239 16.9623 20.3239 16.9602L20.3426 16.3164C20.3429 16.308 20.3429 16.2997 20.3426 16.2914L20.3176 15.4662C20.3176 15.4641 20.3176 15.462 20.3176 15.46L20.2739 14.491L20.2426 13.3596C20.2427 13.3554 20.2427 13.3512 20.2426 13.3471L20.1676 12.0781L20.1176 10.8216L20.1426 9.77762C20.1467 9.62759 20.0738 9.55049 19.9238 9.54633C19.7738 9.54216 19.6967 9.61509 19.6925 9.76512L19.6675 10.8091L19.5675 12.0656L19.4674 13.3408C19.467 13.3512 19.467 13.3616 19.4674 13.3721L19.4612 14.5035C19.4612 14.5056 19.4612 14.5077 19.4612 14.5098L19.4799 15.485C19.4798 15.4912 19.4798 15.4975 19.4799 15.5037L19.53 16.3289C19.5299 16.333 19.5299 16.3372 19.53 16.3414L19.5862 16.9727L19.605 17.4103C19.6049 17.4145 19.6049 17.4187 19.605 17.4228L19.63 17.6854C19.63 17.6875 19.63 17.6895 19.63 17.6916L19.6425 17.8104C19.6492 17.8834 19.6784 17.9459 19.73 17.9979L19.7425 18.0104C19.88 18.1521 20.0176 18.1521 20.1551 18.0104Z" fill="black"/>
<path d="M24.9998 18.4668L24.981 18.4043L24.8435 17.7291C24.8437 17.7229 24.8437 17.7166 24.8435 17.7104L24.6747 17.0603C24.6709 17.0518 24.6667 17.0434 24.6622 17.0353L24.3934 16.2726C24.3882 16.2576 24.382 16.243 24.3747 16.2289L23.9933 15.4725C23.9859 15.4594 23.9776 15.4469 23.9683 15.435L23.4745 14.7536C23.4706 14.7472 23.4664 14.7409 23.462 14.7348L22.9681 14.1472C22.9566 14.1357 22.944 14.1253 22.9306 14.116L22.4743 13.7221L22.1617 13.4283C22.058 13.3405 21.9601 13.3467 21.8681 13.4467C21.776 13.5467 21.7781 13.6448 21.8742 13.7409L22.168 14.0222L22.5243 14.4973C22.5264 14.4994 22.5284 14.5015 22.5306 14.5035L22.9994 15.0911L23.437 15.7725L23.7871 16.5039L24.0434 17.2353L24.2059 17.8729C24.2079 17.875 24.21 17.8771 24.2121 17.8792L24.3934 18.5543C24.3953 18.5606 24.3974 18.5669 24.3997 18.5731L24.4247 18.6356C24.4873 18.8152 24.6099 18.8783 24.7925 18.8247C24.9751 18.7711 25.0442 18.6518 24.9998 18.4668Z" fill="black"/>
<path d="M28.3253 19.242L28.3378 19.217C28.3845 19.1425 28.3949 19.0634 28.3691 18.9794L28.3003 18.7669C28.2984 18.7605 28.2963 18.7543 28.2941 18.7481L28.1253 18.3168C28.1198 18.3039 28.1136 18.2914 28.1065 18.2793L27.0251 16.2851C26.9581 16.1783 26.8676 16.1519 26.7537 16.2061C26.6398 16.2602 26.6031 16.347 26.6438 16.4664L27.5064 18.5606C27.5101 18.5712 27.5142 18.5816 27.5189 18.5918L27.7377 19.0044L27.8377 19.2044C27.8752 19.2733 27.9315 19.3191 28.0065 19.342L28.0378 19.3482C28.1623 19.3903 28.2581 19.3549 28.3253 19.242Z" fill="black"/>
</g>
<defs>
<clipPath id="clip0_1_7404">
<rect width="39" height="39" fill="white"/>
</clipPath>
</defs>
</svg>
