<svg width="32" height="34" viewBox="0 0 32 34" fill="none" xmlns="http://www.w3.org/2000/svg">
<g clip-path="url(#clip0_1_7406)">
<path d="M0.655478 7.2776C0.655478 7.4693 0.751329 7.56515 0.943033 7.56515C1.13474 7.56515 1.23059 7.4693 1.23059 7.2776C1.23059 7.0859 1.13474 6.99004 0.943033 6.99004C0.751329 6.99004 0.655478 7.0859 0.655478 7.2776ZM0.655478 7.2776C0.655478 7.4693 0.751329 7.56515 0.943033 7.56515C1.13474 7.56515 1.23059 7.4693 1.23059 7.2776C1.23059 7.0859 1.13474 6.99004 0.943033 6.99004C0.751329 6.99004 0.655478 7.0859 0.655478 7.2776ZM0.617971 7.2776C0.618073 7.48587 0.722259 7.59 0.93053 7.59C1.1388 7.59 1.24299 7.48587 1.24309 7.2776C1.24299 7.06933 1.1388 6.96519 0.93053 6.96519C0.722259 6.96519 0.618072 7.06933 0.617971 7.2776ZM0.549208 7.27135C0.549208 7.36801 0.583385 7.45053 0.65174 7.51888C0.720094 7.58724 0.802606 7.62141 0.899274 7.62141C0.995943 7.62141 1.07845 7.58724 1.14681 7.51888C1.21516 7.45053 1.24934 7.36801 1.24934 7.27135C1.24934 7.17468 1.21516 7.09217 1.14681 7.02381C1.07845 6.95546 0.995943 6.92128 0.899274 6.92128C0.802606 6.92128 0.720094 6.95546 0.65174 7.02381C0.583385 7.09217 0.549208 7.17468 0.549208 7.27135ZM0.474193 7.27135C0.474193 7.3801 0.512643 7.47292 0.589542 7.54982C0.666441 7.62672 0.759267 7.66517 0.868018 7.66517C0.97677 7.66517 1.0696 7.62672 1.14649 7.54982C1.22339 7.47292 1.26184 7.3801 1.26184 7.27135C1.26184 7.16259 1.22339 7.06977 1.14649 6.99287C1.0696 6.91597 0.97677 6.87752 0.868018 6.87752C0.759267 6.87752 0.666441 6.91597 0.589542 6.99287C0.512643 7.06977 0.474193 7.16259 0.474193 7.27135ZM0.417933 7.37762L0.424184 7.42138C0.439653 7.49731 0.470909 7.56608 0.517952 7.62766L0.61172 7.74644C0.615759 7.75277 0.619926 7.75903 0.624222 7.76519L0.774251 7.94648L0.968037 8.20903L1.21183 8.56534L1.50564 9.00918C1.5097 9.0155 1.51387 9.02175 1.51814 9.02793L1.87446 9.53428C1.88248 9.54495 1.89082 9.55536 1.89946 9.56553L2.32455 10.1031C2.33452 10.116 2.34494 10.1285 2.3558 10.1406L2.86215 10.6907C2.87407 10.7058 2.88657 10.7204 2.89966 10.7345L3.46226 11.2596C3.46845 11.2639 3.4747 11.268 3.48102 11.2721L4.08113 11.8035L4.69375 12.3411L5.28136 12.8974L5.84397 13.4975L6.39407 14.1539L6.93167 14.854L7.46302 15.5917L7.98187 16.3606L8.50072 17.142L9.02582 17.9296L10.076 19.4924C10.076 19.4945 10.076 19.4966 10.076 19.4987L10.6074 20.2801L11.1387 21.0615C11.1408 21.0636 11.1429 21.0657 11.145 21.0677L11.6826 21.8304C11.6846 21.8325 11.6867 21.8345 11.6888 21.8366L12.2202 22.5805L12.7453 23.3182L13.2579 24.0433L13.7642 24.7559C13.7642 24.758 13.7642 24.7601 13.7642 24.7622L14.2706 25.4623C14.2726 25.4665 14.2747 25.4707 14.2768 25.4748L14.7894 26.1749C14.7915 26.1749 14.7936 26.1749 14.7957 26.1749L15.3083 26.8626L15.8021 27.5315L16.7335 28.8004C16.7356 28.8025 16.7377 28.8046 16.7398 28.8067L17.1899 29.4006C17.194 29.4048 17.1982 29.4089 17.2024 29.4131L17.64 29.9694C17.6461 29.9758 17.6524 29.982 17.6587 29.9882L18.1151 30.5258C18.1212 30.5342 18.1274 30.5426 18.1338 30.5508L18.6026 31.0571C18.6167 31.0722 18.6313 31.0868 18.6464 31.1009L19.134 31.5697C19.1461 31.5826 19.1586 31.5951 19.1715 31.6072L19.6778 32.0323C19.6941 32.0454 19.7108 32.0579 19.7279 32.0698L20.2655 32.4636C20.2837 32.4769 20.3025 32.4894 20.3217 32.5012L20.8781 32.8387C20.8984 32.8521 20.9192 32.8646 20.9406 32.8762L21.5032 33.1638C21.5176 33.1704 21.5322 33.1767 21.547 33.1825L22.1096 33.4326C22.1281 33.4394 22.1469 33.4457 22.1658 33.4513L22.7097 33.6451C22.7383 33.657 22.7675 33.6674 22.7972 33.6764L23.3535 33.8076C23.3865 33.8157 23.4199 33.822 23.4536 33.8264L24.0224 33.9014C24.0576 33.9076 24.093 33.9118 24.1287 33.9139L24.6976 33.9202C24.7289 33.9197 24.7602 33.9176 24.7913 33.9139L25.3602 33.8639C25.3981 33.86 25.4356 33.8537 25.4727 33.8452L26.0291 33.7264C26.0715 33.7188 26.1131 33.7084 26.1541 33.6951L26.6667 33.5076C26.7142 33.4904 26.76 33.4696 26.8042 33.4451L27.2793 33.1825C27.3207 33.1605 27.3603 33.1355 27.3981 33.1075L27.8357 32.7762C27.8734 32.7476 27.9088 32.7163 27.9419 32.6824L28.342 32.2761C28.3662 32.2523 28.3892 32.2273 28.4108 32.2011L28.7921 31.726C28.8051 31.7097 28.8176 31.6931 28.8296 31.676L29.2234 31.1134C29.2366 31.0951 29.2491 31.0763 29.2609 31.0571L29.6485 30.4133C29.6616 30.3949 29.6741 30.3762 29.686 30.357L30.0673 29.6194C30.0762 29.6009 30.0846 29.5821 30.0923 29.5631L30.4674 28.7317C30.4741 28.7152 30.4803 28.6985 30.4862 28.6817L30.8362 27.7753C30.8454 27.7526 30.8537 27.7297 30.8612 27.7065L31.155 26.7501C31.1622 26.7253 31.1685 26.7003 31.1738 26.675L31.4051 25.6936C31.41 25.6708 31.4142 25.6479 31.4176 25.6248L31.5739 24.6309C31.5787 24.6102 31.5828 24.5894 31.5864 24.5684L31.6801 23.5494C31.6825 23.5349 31.6846 23.5203 31.6864 23.5057L31.7426 22.4617C31.7428 22.4513 31.7428 22.4409 31.7426 22.4305L31.7677 21.3678C31.7678 21.3574 31.7678 21.3469 31.7677 21.3365L31.7614 20.2676C31.7618 20.2509 31.7618 20.2342 31.7614 20.2176L31.7051 19.1486C31.7032 19.1382 31.7011 19.1277 31.6989 19.1174L31.6114 18.0421C31.6114 18.0359 31.6114 18.0296 31.6114 18.0234L31.4989 16.9419C31.4969 16.9336 31.4948 16.9252 31.4926 16.9169L31.3551 15.823C31.3551 15.8167 31.3551 15.8105 31.3551 15.8042L31.1925 14.6978C31.1889 14.6789 31.1847 14.6601 31.18 14.6415L30.955 13.5163C30.9514 13.4974 30.9472 13.4787 30.9425 13.46L30.6612 12.3786C30.6521 12.3489 30.6417 12.3198 30.6299 12.2911L30.2486 11.2409C30.2375 11.2111 30.225 11.1819 30.2111 11.1533L29.736 10.1469C29.7228 10.117 29.7082 10.0879 29.6923 10.0594L29.1422 9.1342C29.1304 9.11292 29.1179 9.09208 29.1046 9.07169L28.5045 8.19652C28.4907 8.17514 28.4761 8.15431 28.4608 8.13401L27.7856 7.3026C27.7737 7.28555 27.7611 7.26888 27.7481 7.25259L27.0293 6.45244C27.019 6.4439 27.0086 6.43556 26.998 6.42744L26.2541 5.66479C26.248 5.65636 26.2417 5.64802 26.2354 5.63979L25.479 4.91465C25.4748 4.91044 25.4707 4.90628 25.4665 4.90215L24.7226 4.21451C24.7124 4.20386 24.702 4.19345 24.6913 4.18326L23.9162 3.53313C23.896 3.51562 23.8752 3.49896 23.8536 3.48313L23.0222 2.88926C22.998 2.87145 22.973 2.85478 22.9472 2.83925L22.0471 2.3079C22.0205 2.29416 21.9934 2.28166 21.9658 2.27039L20.9781 1.80156C20.9576 1.79039 20.9368 1.77998 20.9156 1.7703L19.8654 1.37022C19.8489 1.36352 19.8322 1.35727 19.8154 1.35147L18.7402 1.00765C18.7257 1.00315 18.7111 0.998981 18.6964 0.995152L17.615 0.701346C17.6025 0.696925 17.59 0.692757 17.5774 0.688843L16.5022 0.438796C16.4836 0.434074 16.4649 0.429907 16.446 0.426293L15.3583 0.245009C15.3313 0.241792 15.3042 0.239708 15.277 0.238758L14.1455 0.14499C14.1227 0.142094 14.0998 0.14001 14.0768 0.138739L12.9203 0.126236C12.9036 0.125809 12.887 0.125809 12.8703 0.126236L11.7201 0.169995C11.7055 0.17175 11.6909 0.173833 11.6763 0.176246L10.5761 0.270014C10.5636 0.269775 10.5511 0.269775 10.5386 0.270014L9.51967 0.395037C9.50294 0.396693 9.48627 0.398777 9.46966 0.401289L8.52573 0.570071C8.50266 0.573427 8.47974 0.577594 8.45696 0.582573L7.57555 0.801365C7.5566 0.807053 7.53785 0.813304 7.51928 0.820118L6.68788 1.08267C6.66683 1.08824 6.646 1.09449 6.62536 1.10142L5.85647 1.39523C5.84384 1.40122 5.83133 1.40747 5.81896 1.41398L5.10007 1.73279C5.07896 1.74043 5.05812 1.74876 5.03756 1.7578L4.38119 2.10161C4.35555 2.11511 4.33054 2.1297 4.30617 2.14537L3.71856 2.51419C3.68827 2.53347 3.6591 2.5543 3.63104 2.5767L3.1247 2.98303C3.09392 3.00839 3.06474 3.03547 3.03718 3.0643L2.5871 3.50813C2.55552 3.54158 2.52635 3.577 2.49958 3.6144L2.13701 4.08949C2.11463 4.11756 2.09379 4.14673 2.0745 4.17701L1.78069 4.6646C1.76198 4.69906 1.74531 4.73448 1.73068 4.77087L1.50564 5.25846C1.49437 5.281 1.48395 5.30392 1.47438 5.32723L1.2931 5.82107C1.27497 5.86792 1.26038 5.91584 1.24934 5.96485L1.14307 6.47745C1.11894 6.58477 1.11269 6.69312 1.12432 6.80251L1.18058 7.24634C1.2081 7.48009 1.31437 7.66971 1.49939 7.8152L1.66817 7.94648C1.87131 8.10464 2.08177 8.11506 2.29954 7.97773L2.48083 7.86521C2.59953 7.78857 2.6933 7.68855 2.76213 7.56515L2.98717 7.17758C3.02367 7.1141 3.05284 7.04742 3.07469 6.97754L3.21847 6.50245L3.37475 6.07112L3.56228 5.67729L3.79983 5.27722L4.09363 4.87714L4.43745 4.50832L4.84378 4.18326L5.35012 3.8582L5.93773 3.54564L6.60661 3.24558L7.31925 2.95803L8.08814 2.71423L8.90705 2.50169L9.78847 2.33916L10.7574 2.22038L11.8201 2.12662L12.9266 2.07661L14.0205 2.08911L15.077 2.17663L16.0897 2.34541L17.1149 2.58295L18.1588 2.87676L19.184 3.20807L20.1654 3.5894L21.0844 4.02698L21.9033 4.51457L22.6597 5.06468L23.3786 5.68354L24.0912 6.35242L24.8163 7.07131L25.5227 7.8152L26.2103 8.5966L26.8355 9.38425L27.3918 10.2032L27.8919 11.0658L28.3295 11.9847L28.6733 12.9474L28.9359 13.9539L29.1484 15.0228L29.3047 16.0918L29.4422 17.167L29.5485 18.2172L29.6172 19.2674L29.6735 20.3113L29.6923 21.3428L29.6798 22.3742L29.6235 23.3682L29.5297 24.3371L29.3859 25.2685L29.1797 26.1812L28.9046 27.0814L28.592 27.9315L28.2482 28.7254L27.8982 29.4318L27.5669 30.0382L27.2293 30.5633L26.923 30.9821L26.6167 31.3072L26.2854 31.5635L25.9353 31.7698L25.554 31.9198L25.1226 32.0198L24.6663 32.0698H24.1975L23.7224 32.0136L23.2598 31.9073L22.7847 31.751L22.2846 31.5447L21.7845 31.2884L21.2844 30.9884L20.7968 30.6445L20.3342 30.257L19.8779 29.8381L19.4341 29.3693L18.9965 28.863L18.5714 28.3316L18.1213 27.7502C18.1213 27.7482 18.1213 27.7461 18.1213 27.744L17.1524 26.5125L16.6585 25.8561C16.6565 25.854 16.6544 25.852 16.6523 25.8499L16.1334 25.1685L15.6146 24.4809L15.1082 23.7932L14.5894 23.0869C14.5873 23.0827 14.5852 23.0785 14.5831 23.0744L14.0455 22.368L13.5142 21.6428L12.9828 20.9114L12.4452 20.155L11.9201 19.3862L11.3888 18.611L10.3386 17.0545L9.80722 16.2668L9.28212 15.4854C9.28005 15.4833 9.27797 15.4812 9.27587 15.4792L8.74452 14.704C8.7404 14.6998 8.73623 14.6956 8.73202 14.6915L8.18816 13.9351C8.18409 13.9288 8.17992 13.9226 8.17566 13.9164L7.61305 13.1912C7.60303 13.1784 7.59261 13.1659 7.5818 13.1537L6.99418 12.4848C6.98804 12.4785 6.98179 12.4722 6.97543 12.4661L6.38157 11.8347C6.37145 11.824 6.36103 11.8136 6.35031 11.8035L5.73144 11.2221C5.72124 11.2135 5.71083 11.2052 5.70019 11.1971L5.06882 10.6595C5.0647 10.6553 5.06053 10.6511 5.05632 10.647L4.4437 10.1469L3.87484 9.66555L3.36224 9.18421L2.93716 8.70912L2.56834 8.24653L2.26203 7.8277C2.25402 7.81702 2.24569 7.80661 2.23703 7.79645L1.94947 7.45263C1.93013 7.4303 1.90929 7.40946 1.88696 7.39012L1.62441 7.15257C1.60842 7.13917 1.59175 7.12667 1.5744 7.11507L1.36811 6.97129C1.32944 6.94292 1.28776 6.92 1.24309 6.90253L1.10556 6.84627C1.01422 6.8107 0.920448 6.80237 0.82426 6.82126L0.780502 6.83376C0.655418 6.85889 0.55749 6.92454 0.48672 7.03069C0.415949 7.13685 0.39302 7.25249 0.417933 7.37762ZM1.89946 7.90272L2.01199 8.06525C2.10026 8.14907 2.1945 8.15643 2.29472 8.08732C2.39493 8.01821 2.42154 7.9275 2.37456 7.8152L2.26203 7.65267C2.17376 7.56884 2.07952 7.56149 1.97931 7.6306C1.87909 7.69971 1.85248 7.79042 1.89946 7.90272Z" fill="black"/>
<path d="M5.12501 5.70854C5.12501 5.89607 5.21878 5.98984 5.40631 5.98984C5.59385 5.98984 5.68762 5.89607 5.68762 5.70854C5.68762 5.521 5.59385 5.42723 5.40631 5.42723C5.21878 5.42723 5.12501 5.521 5.12501 5.70854ZM5.09375 5.70229C5.09375 5.90649 5.19586 6.0086 5.40006 6.0086C5.60427 6.0086 5.70637 5.90649 5.70637 5.70229C5.70637 5.49808 5.60427 5.39598 5.40006 5.39598C5.19586 5.39598 5.09375 5.49808 5.09375 5.70229ZM4.94998 5.70229C4.94998 5.82312 4.9927 5.92626 5.07814 6.01171C5.16359 6.09715 5.26673 6.13987 5.38756 6.13987C5.5084 6.13987 5.61154 6.09715 5.69698 6.01171C5.78242 5.92626 5.82514 5.82312 5.82514 5.70229C5.82514 5.58145 5.78242 5.47831 5.69698 5.39287C5.61154 5.30743 5.5084 5.2647 5.38756 5.2647C5.26673 5.2647 5.16359 5.30743 5.07814 5.39287C4.9927 5.47831 4.94998 5.58145 4.94998 5.70229ZM4.83121 5.71479C4.83121 5.8667 4.88491 5.99636 4.99233 6.10377C5.09974 6.21119 5.2294 6.26489 5.38131 6.26489C5.53322 6.26489 5.66288 6.21119 5.77029 6.10377C5.87771 5.99636 5.93141 5.8667 5.93141 5.71479C5.93141 5.56288 5.87771 5.43322 5.77029 5.32581C5.66288 5.21839 5.53322 5.16468 5.38131 5.16468C5.2294 5.16468 5.09974 5.21839 4.99233 5.32581C4.88491 5.43322 4.83121 5.56288 4.83121 5.71479ZM4.75619 5.85232L4.76869 6.00234C4.77485 6.06481 4.78944 6.12524 4.81245 6.18363L4.90622 6.42117C4.93712 6.50532 4.98296 6.58033 5.04375 6.64622L5.26879 6.87751C5.30877 6.92219 5.35461 6.95969 5.40631 6.99003L5.70637 7.15256C5.70843 7.15467 5.71052 7.15675 5.71262 7.15881L5.98768 7.30259L6.16271 7.50263C6.26691 7.61913 6.3773 7.62533 6.49389 7.52124C6.61048 7.41714 6.61677 7.30675 6.51278 7.19007L6.34399 7.00253L6.27523 6.75874L6.26273 6.45243C6.26157 6.43357 6.25948 6.41482 6.25648 6.39617L6.20647 6.07736C6.19819 6.0235 6.1836 5.97141 6.16271 5.92108L6.06894 5.68353C6.05474 5.65096 6.03807 5.61971 6.01893 5.58977L5.93767 5.45849C5.76244 5.16522 5.51277 5.0726 5.18867 5.18063C4.86457 5.28867 4.72041 5.51256 4.75619 5.85232Z" fill="black"/>
<path d="M9.54462 4.58962C9.54462 4.77299 9.6363 4.86467 9.81967 4.86467C10.003 4.86467 10.0947 4.77299 10.0947 4.58962C10.0947 4.40625 10.003 4.31457 9.81967 4.31457C9.6363 4.31457 9.54462 4.40625 9.54462 4.58962ZM9.50086 4.32707L9.45085 4.38333C9.40821 4.43094 9.37696 4.48512 9.35708 4.54586L9.31957 4.67714C9.31087 4.70366 9.30462 4.73075 9.30082 4.7584L9.28207 4.93969C9.27463 4.98761 9.27463 5.03554 9.28207 5.08346L9.32582 5.296C9.3379 5.36178 9.36291 5.42221 9.40084 5.47729L9.54462 5.67733C9.56077 5.70238 9.57952 5.7253 9.60088 5.74609L9.80717 5.92737C9.80922 5.92949 9.8113 5.93157 9.81342 5.93363L10.0135 6.09616L10.1447 6.25869C10.2342 6.33509 10.3247 6.33632 10.4163 6.26239C10.5078 6.18845 10.5257 6.0997 10.4698 5.99614L10.351 5.84611L10.2885 5.63982L10.251 5.42103L10.2447 5.19599C10.2461 5.17515 10.2461 5.15431 10.2447 5.13347L10.2135 4.97719L10.226 4.87092L10.2447 4.7584C10.2515 4.72115 10.2536 4.68365 10.251 4.64588L10.2447 4.57712C10.2315 4.38864 10.1353 4.26431 9.95616 4.20411C9.77707 4.14391 9.6253 4.18489 9.50086 4.32707Z" fill="black"/>
<path d="M13.0891 4.47706C13.0891 4.6521 13.1766 4.73961 13.3516 4.73961C13.5267 4.73961 13.6142 4.6521 13.6142 4.47706C13.6142 4.30203 13.5267 4.21451 13.3516 4.21451C13.1766 4.21451 13.0891 4.30203 13.0891 4.47706ZM13.0266 4.48331C13.0266 4.5748 13.0589 4.65289 13.1236 4.71759C13.1883 4.78228 13.2664 4.81463 13.3579 4.81463C13.4494 4.81463 13.5275 4.78228 13.5922 4.71759C13.6569 4.65289 13.6892 4.5748 13.6892 4.48331C13.6892 4.39182 13.6569 4.31373 13.5922 4.24904C13.5275 4.18435 13.4494 4.152 13.3579 4.152C13.2664 4.152 13.1883 4.18435 13.1236 4.24904C13.0589 4.31373 13.0266 4.39182 13.0266 4.48331ZM13.0266 4.27077L12.9453 4.37079C12.9258 4.39615 12.9092 4.42324 12.8953 4.45206L12.7828 4.67085C12.7727 4.69313 12.7644 4.71606 12.7578 4.73961L12.664 5.03967C12.6498 5.08017 12.6415 5.12184 12.639 5.16469L12.6328 5.48976C12.6321 5.50226 12.6321 5.51476 12.6328 5.52726L12.6515 5.83357C12.6553 5.85514 12.6616 5.87598 12.6703 5.89608L12.739 6.10862L12.7703 6.2649C12.7996 6.40222 12.8829 6.45631 13.0203 6.42718C13.1576 6.39804 13.2118 6.31478 13.1829 6.17739L13.1516 6.05861L13.1954 5.90233L13.2891 5.67729L13.4642 5.446C13.4786 5.42415 13.4911 5.40123 13.5017 5.37723L13.6455 5.09593C13.655 5.07771 13.6633 5.05896 13.6705 5.03967L13.7455 4.80838C13.7621 4.75975 13.7705 4.70975 13.7705 4.65835V4.53332C13.7697 4.33655 13.6766 4.20542 13.491 4.13993C13.3055 4.07444 13.1507 4.11805 13.0266 4.27077Z" fill="black"/>
<path d="M17.8399 4.95219C17.8399 5.13556 17.9315 5.22724 18.1149 5.22724C18.2983 5.22724 18.39 5.13556 18.39 4.95219C18.39 4.76882 18.2983 4.67713 18.1149 4.67713C17.9315 4.67713 17.8399 4.76882 17.8399 4.95219ZM17.8399 4.95219C17.8399 5.13556 17.9315 5.22724 18.1149 5.22724C18.2983 5.22724 18.39 5.13556 18.39 4.95219C18.39 4.76882 18.2983 4.67713 18.1149 4.67713C17.9315 4.67713 17.8399 4.76882 17.8399 4.95219ZM18.0336 4.63338L18.0024 4.63963C17.9027 4.667 17.8235 4.72326 17.7648 4.80841L17.6648 4.95219L17.5148 5.16473C17.503 5.18271 17.4926 5.20147 17.4835 5.22099L17.3523 5.48979C17.3392 5.5137 17.3288 5.5387 17.321 5.5648L17.2522 5.83361C17.2522 5.83569 17.2522 5.83777 17.2522 5.83986L17.2085 6.03364L17.1397 6.15867C17.0734 6.28357 17.1027 6.3793 17.2274 6.44584C17.3522 6.51239 17.448 6.48334 17.5148 6.35871L17.5773 6.24618L17.7148 6.12741L17.9274 5.96488C17.9382 5.95708 17.9486 5.94875 17.9586 5.93988L18.1774 5.73359C18.1982 5.71456 18.2169 5.69372 18.2337 5.67107L18.3837 5.45853C18.4004 5.43698 18.415 5.41406 18.4275 5.38977L18.4962 5.23349C18.6022 5.01076 18.5522 4.83156 18.3462 4.69589L18.315 4.67713C18.2277 4.62082 18.1339 4.60623 18.0336 4.63338Z" fill="black"/>
<path d="M21.0218 7.0338C21.0218 7.22967 21.1197 7.32761 21.3156 7.32761C21.5114 7.32761 21.6094 7.22967 21.6094 7.0338C21.6094 6.83793 21.5114 6.73999 21.3156 6.73999C21.1197 6.73999 21.0218 6.83793 21.0218 7.0338ZM21.0093 7.04005C21.0093 7.24426 21.1114 7.34636 21.3156 7.34636C21.5198 7.34636 21.6219 7.24426 21.6219 7.04005C21.6219 6.83585 21.5198 6.73374 21.3156 6.73374C21.1114 6.73374 21.0093 6.83585 21.0093 7.04005ZM21.153 6.67123L21.0593 6.70249C20.9836 6.72983 20.919 6.77359 20.8655 6.83376L20.728 6.99004C20.6734 7.05134 20.638 7.12218 20.6217 7.20258L20.5967 7.34636L20.3529 7.66517C20.271 7.76885 20.2763 7.86785 20.3688 7.96219C20.4613 8.05652 20.5602 8.06378 20.6655 7.98398L20.9905 7.75894L21.128 7.74018C21.214 7.73085 21.2911 7.69959 21.3593 7.64642L21.5219 7.51514C21.5887 7.45953 21.6366 7.39077 21.6656 7.30885L21.6969 7.21508C21.7577 7.04592 21.7246 6.89777 21.5975 6.77065C21.4704 6.64353 21.3222 6.61039 21.153 6.67123Z" fill="black"/>
<path d="M23.6222 9.48432C23.6222 9.69686 23.7285 9.80314 23.941 9.80314C24.1536 9.80314 24.2599 9.69686 24.2599 9.48432C24.2599 9.27178 24.1536 9.16551 23.941 9.16551C23.7285 9.16551 23.6222 9.27178 23.6222 9.48432ZM23.541 9.49058C23.541 9.59415 23.5776 9.68255 23.6508 9.75579C23.7241 9.82903 23.8125 9.86565 23.916 9.86565C24.0196 9.86565 24.108 9.82903 24.1813 9.75579C24.2545 9.68255 24.2911 9.59415 24.2911 9.49058C24.2911 9.387 24.2545 9.2986 24.1813 9.22536C24.108 9.15212 24.0196 9.1155 23.916 9.1155C23.8125 9.1155 23.7241 9.15212 23.6508 9.22536C23.5776 9.2986 23.541 9.387 23.541 9.49058ZM23.7535 9.04674L23.6222 9.07175C23.5764 9.08022 23.5327 9.09481 23.491 9.1155L23.3034 9.20302C23.1886 9.25936 23.1073 9.34688 23.0596 9.46557L22.9909 9.63435L22.9409 9.75313L22.8283 9.82189C22.7075 9.90107 22.6866 10.0011 22.7658 10.1219C22.845 10.2428 22.945 10.2636 23.0659 10.1845L23.1722 10.1157H23.2722L23.441 10.147C23.5384 10.1622 23.6322 10.1497 23.7223 10.1094L23.916 10.0219C23.9355 10.0127 23.9542 10.0023 23.9723 9.99067L24.0911 9.92191C24.324 9.78597 24.3919 9.59221 24.2948 9.34063C24.1978 9.08904 24.0174 8.99108 23.7535 9.04674Z" fill="black"/>
<path d="M25.0038 11.766H24.985C24.8038 11.7905 24.7173 11.8941 24.7255 12.0768C24.7337 12.2595 24.8291 12.3549 25.0118 12.3631C25.1945 12.3713 25.2981 12.2848 25.3226 12.1035V12.0848C25.3333 11.9927 25.3058 11.9138 25.2403 11.8483C25.1747 11.7827 25.0959 11.7553 25.0038 11.766ZM24.8787 11.716L24.7475 11.741C24.6964 11.7516 24.6484 11.7704 24.6037 11.7972L24.4474 11.8848C24.4232 11.8973 24.4003 11.9119 24.3786 11.9285L24.2224 12.066C24.1607 12.1185 24.1169 12.1831 24.0911 12.2598L24.0223 12.4474L23.9473 12.6224L23.8348 12.7537C23.7628 12.8598 23.7748 12.9554 23.8709 13.0404C23.967 13.1254 24.0633 13.1256 24.1599 13.0412L24.2661 12.9224L24.3974 12.8599L24.5599 12.8412C24.601 12.8364 24.6406 12.826 24.6787 12.8099L24.8725 12.7224C24.8986 12.7122 24.9236 12.6997 24.9475 12.6849L25.0913 12.5849C25.1477 12.5471 25.1935 12.4991 25.2288 12.4411L25.2976 12.3348C25.3944 12.1845 25.3926 12.0353 25.2924 11.8872C25.1922 11.7391 25.0543 11.682 24.8787 11.716Z" fill="black"/>
<path d="M26.5666 14.3977C26.5666 14.4892 26.599 14.5673 26.6637 14.632C26.7284 14.6967 26.8065 14.729 26.8979 14.729C26.9894 14.729 27.0675 14.6967 27.1322 14.632C27.1969 14.5673 27.2293 14.4892 27.2293 14.3977C27.2293 14.3062 27.1969 14.2281 27.1322 14.1634C27.0675 14.0988 26.9894 14.0664 26.8979 14.0664C26.8065 14.0664 26.7284 14.0988 26.6637 14.1634C26.599 14.2281 26.5666 14.3062 26.5666 14.3977ZM26.5104 14.404C26.5104 14.5075 26.547 14.596 26.6202 14.6692C26.6935 14.7424 26.7819 14.779 26.8854 14.779C26.989 14.779 27.0774 14.7424 27.1507 14.6692C27.2239 14.596 27.2605 14.5075 27.2605 14.404C27.2605 14.3004 27.2239 14.212 27.1507 14.1388C27.0774 14.0655 26.989 14.0289 26.8854 14.0289C26.7819 14.0289 26.6935 14.0655 26.6202 14.1388C26.547 14.212 26.5104 14.3004 26.5104 14.404ZM26.8354 13.9351H26.7104C26.5816 13.9351 26.465 13.9726 26.3603 14.0477L26.1666 14.1789C26.116 14.2159 26.0723 14.2597 26.0353 14.3102L25.8602 14.529C25.8004 14.609 25.765 14.6986 25.754 14.7978L25.7227 15.0291L25.6665 15.2541L25.5289 15.4354C25.4459 15.5521 25.4626 15.652 25.5791 15.7352C25.6956 15.8184 25.7956 15.8018 25.879 15.6855L26.004 15.5167L26.1666 15.4354L26.3666 15.4104C26.4351 15.4017 26.4997 15.3809 26.5604 15.3479L26.8104 15.2104C26.8436 15.1925 26.8749 15.1716 26.9042 15.1479L27.0855 14.9978C27.1813 14.918 27.2459 14.8179 27.2793 14.6978L27.3168 14.5728C27.3596 14.4135 27.3313 14.268 27.2319 14.1363C27.1325 14.0047 27.0004 13.9376 26.8354 13.9351Z" fill="black"/>
<path d="M27.2729 18.2047L27.2479 18.1859C27.1491 18.1215 27.0428 18.1049 26.9291 18.1359L26.8478 18.1609C26.789 18.1781 26.7369 18.2073 26.6915 18.2484L26.5853 18.336C26.5667 18.353 26.55 18.3718 26.5353 18.3922L26.4352 18.5235C26.4308 18.5296 26.4267 18.5358 26.4227 18.5422L26.3665 18.6423L26.2852 18.6985C26.1864 18.7807 26.1731 18.8749 26.2453 18.9813C26.3174 19.0876 26.4099 19.11 26.5228 19.0486L26.5978 18.9986L26.6978 18.9923L26.8603 18.9736C26.875 18.9724 26.8896 18.9703 26.9041 18.9673L27.0354 18.9423C27.0704 18.9343 27.1037 18.9218 27.1354 18.9048L27.2104 18.8673C27.3577 18.7942 27.4306 18.6754 27.4292 18.511V18.4797C27.4257 18.3604 27.3736 18.2687 27.2729 18.2047Z" fill="black"/>
<path d="M27.2105 21.7554C27.2105 21.9721 27.3188 22.0805 27.5355 22.0805C27.7522 22.0805 27.8606 21.9721 27.8606 21.7554C27.8606 21.5387 27.7522 21.4304 27.5355 21.4304C27.3188 21.4304 27.2105 21.5387 27.2105 21.7554ZM27.1605 21.7554C27.1605 21.859 27.1971 21.9474 27.2703 22.0206C27.3436 22.0939 27.432 22.1305 27.5355 22.1305C27.6391 22.1305 27.7275 22.0939 27.8008 22.0206C27.874 21.9474 27.9106 21.859 27.9106 21.7554C27.9106 21.6518 27.874 21.5634 27.8008 21.4902C27.7275 21.417 27.6391 21.3803 27.5355 21.3803C27.432 21.3803 27.3436 21.417 27.2703 21.4902C27.1971 21.5634 27.1605 21.6518 27.1605 21.7554ZM27.4293 21.2303L27.2792 21.2366C27.1375 21.2448 27.0125 21.2948 26.9042 21.3866L26.7166 21.5429C26.5999 21.6351 26.528 21.7542 26.5008 21.9005C26.4737 22.0467 26.498 22.1837 26.5738 22.3117C26.6496 22.4396 26.7582 22.5268 26.8995 22.5731C27.0408 22.6195 27.1799 22.6137 27.3167 22.5556L27.5418 22.4681C27.6667 22.4203 27.7667 22.3412 27.8418 22.2305L27.9294 22.1117C28.0633 21.9181 28.0722 21.7188 27.956 21.514C27.8398 21.3092 27.6642 21.2147 27.4293 21.2303ZM26.7229 21.993L26.4978 22.1617C26.4225 22.2528 26.4203 22.3456 26.4912 22.4402C26.5621 22.5348 26.6519 22.5586 26.7604 22.5118L26.9854 22.343C27.0608 22.252 27.063 22.1591 26.9921 22.0646C26.9211 21.97 26.8314 21.9461 26.7229 21.993Z" fill="black"/>
<path d="M26.7729 25.8749C26.7729 26.0916 26.8812 26.1999 27.098 26.1999C27.3147 26.1999 27.423 26.0916 27.423 25.8749C27.423 25.6582 27.3147 25.5498 27.098 25.5498C26.8812 25.5498 26.7729 25.6582 26.7729 25.8749ZM27.1917 25.5061L27.1042 25.4748C26.9826 25.4305 26.8617 25.4326 26.7416 25.4811L26.5166 25.5748C26.4315 25.6103 26.3606 25.6645 26.3041 25.7374L26.1228 25.9687C26.0998 25.9974 26.081 26.0286 26.0665 26.0624L25.9977 26.2249L25.8352 26.325C25.7158 26.4013 25.6925 26.5003 25.7655 26.6219C25.8384 26.7434 25.9367 26.7695 26.0603 26.7L26.2228 26.6L26.3853 26.625C26.4228 26.6303 26.4603 26.6303 26.4978 26.625L26.7854 26.5875C26.8623 26.5762 26.9331 26.5491 26.9979 26.5063L27.2042 26.3812C27.3166 26.31 27.3895 26.2099 27.423 26.0812L27.448 25.9937C27.5124 25.7524 27.427 25.5898 27.1917 25.5061Z" fill="black"/>
<path d="M25.4913 29.088C25.4913 29.2002 25.531 29.296 25.6103 29.3753C25.6897 29.4547 25.7855 29.4944 25.8977 29.4944C26.0099 29.4944 26.1056 29.4547 26.185 29.3753C26.2643 29.296 26.304 29.2002 26.304 29.088C26.304 28.9758 26.2643 28.88 26.185 28.8007C26.1056 28.7214 26.0099 28.6817 25.8977 28.6817C25.7855 28.6817 25.6897 28.7214 25.6103 28.8007C25.531 28.88 25.4913 28.9758 25.4913 29.088ZM26.0664 28.5129L25.9664 28.4754C25.841 28.4236 25.7119 28.4111 25.5789 28.4379L25.4163 28.4692C25.248 28.5018 25.1132 28.5874 25.0119 28.7257C24.9105 28.864 24.8697 29.0184 24.8894 29.1887C24.909 29.3591 24.9839 29.5001 25.1141 29.6117C25.2442 29.7234 25.395 29.7759 25.5664 29.7694L25.7289 29.7632C25.8354 29.76 25.9354 29.7329 26.0289 29.6819L26.1227 29.6319C26.354 29.5087 26.4631 29.3163 26.45 29.0545C26.4368 28.7928 26.309 28.6122 26.0664 28.5129ZM25.0413 28.9818L25.01 29.0568C25.0891 29.0423 25.1453 28.9986 25.1788 28.9255L25.0663 28.9442C24.9427 28.9866 24.8917 29.0722 24.9131 29.2011C24.9346 29.3299 25.0106 29.3943 25.1413 29.3943L25.2538 29.3756C25.1967 29.3059 25.1238 29.2788 25.035 29.2943L25.085 29.3568C25.1537 29.4447 25.2438 29.4909 25.3552 29.4957C25.4667 29.5004 25.5603 29.4619 25.6362 29.3802C25.7121 29.2984 25.7436 29.2022 25.7307 29.0914C25.7178 28.9806 25.665 28.8942 25.5723 28.8322C25.4796 28.7701 25.3796 28.7542 25.2723 28.7844C25.1649 28.8147 25.0879 28.8805 25.0413 28.9818Z" fill="black"/>
<path d="M8.48775 8.00887C8.48775 8.22141 8.59402 8.32768 8.80656 8.32768C9.0191 8.32768 9.12537 8.22141 9.12537 8.00887C9.12537 7.79633 9.0191 7.69006 8.80656 7.69006C8.59402 7.69006 8.48775 7.79633 8.48775 8.00887ZM8.47525 8.00262C8.47529 8.0958 8.50827 8.17533 8.57418 8.24121C8.64009 8.30708 8.71963 8.34002 8.81282 8.34002C8.906 8.34002 8.98554 8.30708 9.05145 8.24121C9.11736 8.17533 9.15033 8.0958 9.15038 8.00262C9.15034 7.90944 9.11736 7.82991 9.05145 7.76403C8.98554 7.69816 8.906 7.66522 8.81282 7.66522C8.71963 7.66522 8.64009 7.69816 8.57418 7.76403C8.50827 7.82991 8.4753 7.90944 8.47525 8.00262ZM8.96284 8.35894L9.08162 8.32143C9.0942 8.31985 9.10671 8.31777 9.11912 8.31518L9.35667 8.22766C9.36933 8.22396 9.38183 8.21979 9.39418 8.21516L9.73799 8.06513L10.1631 7.89635L10.6319 7.73382L11.1195 7.60254L11.6321 7.50878L12.1572 7.45252L12.6948 7.44626L13.2262 7.50253L13.7763 7.60254L14.3326 7.72757L14.889 7.87135L15.4703 8.06513L16.0642 8.31518L16.6393 8.63399L17.1644 9.01531L17.6332 9.43414L18.0646 9.90923L18.5022 10.4343L18.9522 10.9907L19.3898 11.5283L19.7837 12.0721L20.1587 12.6348L20.5025 13.2161L20.8214 13.8162L21.1027 14.4351L21.3277 15.1102L21.5152 15.8666L21.6653 16.6918L21.7903 17.5732L21.9153 18.4859C21.9153 18.49 21.9153 18.4942 21.9153 18.4984L22.0466 19.411L22.1716 20.3425L22.2654 21.2801C22.2654 21.2822 22.2654 21.2843 22.2654 21.2864L22.3529 22.1991L22.4279 23.0305L22.4842 23.8056C22.4873 23.8586 22.4957 23.9106 22.5092 23.9619L22.6842 24.6058L22.7842 25.0621L22.678 25.4247C22.6321 25.5872 22.6905 25.6914 22.853 25.7372C23.0155 25.7831 23.1197 25.7247 23.1655 25.5622L23.2718 25.1871L23.5781 24.7933C23.5917 24.7774 23.6042 24.7608 23.6156 24.7433L23.9594 24.1619C24.0182 24.0677 24.0557 23.9656 24.072 23.8556L24.172 23.0805C24.1768 23.041 24.1789 23.0015 24.1782 22.9617V22.1116C24.1786 22.097 24.1786 22.0824 24.1782 22.0678L24.1345 21.1489C24.1346 21.1405 24.1346 21.1322 24.1345 21.1239L24.0595 20.1674C24.0595 20.1633 24.0595 20.1591 24.0595 20.1549L23.9782 19.1923C23.9762 19.186 23.9741 19.1797 23.972 19.1735L23.8719 18.2421C23.8699 18.24 23.8678 18.2379 23.8657 18.2358L23.7594 17.3169C23.7574 17.3127 23.7553 17.3085 23.7532 17.3044L23.6344 16.4042C23.6326 16.3896 23.6305 16.375 23.6281 16.3605L23.4719 15.4853C23.4667 15.4579 23.4605 15.4309 23.4531 15.404L23.2343 14.5789C23.227 14.5535 23.2186 14.5285 23.2093 14.5039L22.9405 13.7475C22.9311 13.722 22.9207 13.697 22.9092 13.6724L22.5967 12.9786C22.5868 12.9616 22.5764 12.9449 22.5654 12.9286L22.2216 12.2784C22.2139 12.2594 22.2055 12.2407 22.1966 12.2222L21.8153 11.6033C21.7996 11.5797 21.783 11.5567 21.7653 11.5345L21.3402 10.9594C21.3322 10.9467 21.3238 10.9342 21.3152 10.9219L20.8589 10.3656C20.8568 10.3635 20.8547 10.3614 20.8526 10.3593L20.39 9.80921L19.9337 9.25286C19.9296 9.24865 19.9254 9.24448 19.9212 9.24036L19.4523 8.70275C19.4404 8.68566 19.4279 8.66899 19.4148 8.65274L18.9147 8.15265C18.8929 8.13064 18.87 8.1098 18.846 8.09014L18.2834 7.6338C18.2614 7.6139 18.2385 7.59514 18.2146 7.57754L17.5895 7.16496C17.5671 7.15143 17.5442 7.13893 17.5207 7.12745L16.8581 6.76488C16.8317 6.75099 16.8046 6.73848 16.7768 6.72738L16.108 6.45233C16.0833 6.44285 16.0583 6.43452 16.0329 6.42732L15.3891 6.22103C15.3705 6.21624 15.3517 6.21207 15.3328 6.20853L14.7327 6.06475C14.7223 6.06247 14.7119 6.06039 14.7014 6.0585L14.1138 5.93973C14.0931 5.93478 14.0723 5.93061 14.0513 5.92723L13.4512 5.85221C13.4221 5.84859 13.393 5.8465 13.3637 5.84596L12.7511 5.83346C12.7198 5.83164 12.6886 5.83164 12.6573 5.83346L12.0447 5.88972C12.0132 5.89199 11.9819 5.89616 11.9509 5.90222L11.3696 6.02724C11.3463 6.03241 11.3234 6.03866 11.3008 6.046L10.7507 6.21478C10.7273 6.22195 10.7044 6.23028 10.6819 6.23978L10.1693 6.45858C10.1479 6.46792 10.1271 6.47833 10.1068 6.48983L9.63797 6.74613C9.61869 6.75559 9.59993 6.76601 9.58171 6.77739L9.18789 7.04619C9.17506 7.05404 9.16256 7.06237 9.15038 7.07119L8.85032 7.31499C8.83039 7.33033 8.81163 7.347 8.79406 7.365L8.61903 7.55253C8.58111 7.59514 8.55194 7.64306 8.53151 7.69631L8.4815 7.81508C8.41936 7.97021 8.44366 8.11035 8.55442 8.23548C8.66517 8.36062 8.80132 8.40177 8.96284 8.35894Z" fill="black"/>
</g>
<defs>
<clipPath id="clip0_1_7406">
<rect width="32" height="34" fill="white"/>
</clipPath>
</defs>
</svg>
