<svg width="35" height="34" viewBox="0 0 35 34" fill="none" xmlns="http://www.w3.org/2000/svg">
<g clip-path="url(#clip0_1_7218)">
<path d="M1.34868 18.9084C1.34868 19.0188 1.38774 19.1131 1.46586 19.1913C1.54398 19.2694 1.63828 19.3084 1.74876 19.3084C1.85924 19.3084 1.95353 19.2694 2.03165 19.1913C2.10977 19.1131 2.14883 19.0188 2.14883 18.9084C2.14883 18.7979 2.10977 18.7036 2.03165 18.6255C1.95353 18.5473 1.85924 18.5083 1.74876 18.5083C1.63828 18.5083 1.54398 18.5473 1.46586 18.6255C1.38774 18.7036 1.34868 18.7979 1.34868 18.9084ZM1.23616 18.9396C1.23616 19.0812 1.28621 19.202 1.3863 19.3021C1.48639 19.4022 1.60721 19.4522 1.74876 19.4522C1.89031 19.4522 2.01113 19.4022 2.11122 19.3021C2.21131 19.202 2.26136 19.0812 2.26136 18.9396C2.26136 18.7981 2.21131 18.6772 2.11122 18.5771C2.01113 18.4771 1.89031 18.427 1.74876 18.427C1.60721 18.427 1.48639 18.4771 1.3863 18.5771C1.28621 18.6772 1.23616 18.7981 1.23616 18.9396ZM1.29867 18.5395L1.26116 18.5833C1.0907 18.7557 1.02194 18.962 1.05488 19.2022L1.09238 19.4772C1.10266 19.5552 1.1235 19.6302 1.15489 19.7023L1.35493 20.1648C1.36816 20.1927 1.38274 20.2198 1.39869 20.2461L1.73626 20.8525C1.74977 20.8781 1.76435 20.9031 1.78001 20.9275L2.26761 21.6401C2.27962 21.6572 2.29212 21.6738 2.30511 21.6901L2.90523 22.4715C2.90933 22.4778 2.9135 22.4841 2.91773 22.4903L3.59286 23.3279C3.60506 23.3407 3.61756 23.3533 3.63037 23.3655L4.38676 24.2219C4.40868 24.2458 4.43161 24.2687 4.45552 24.2906L5.31819 25.1033C5.33237 25.1183 5.34696 25.1329 5.36195 25.147L6.27462 25.9159C6.28489 25.9245 6.29531 25.9328 6.30588 25.9409L7.2123 26.6598C7.22664 26.6706 7.24122 26.681 7.25606 26.6911L8.13747 27.335C8.15988 27.3504 8.1828 27.3649 8.20624 27.3787L9.07515 27.9163C9.09559 27.9295 9.11643 27.942 9.13766 27.9538L10.0003 28.4164C10.0168 28.4252 10.0335 28.4335 10.0503 28.4414L10.8817 28.8352C10.888 28.8374 10.8942 28.8395 10.9005 28.8415L11.6756 29.1916C11.6839 29.1958 11.6923 29.2 11.7007 29.2041L12.4133 29.4979C12.4257 29.5022 12.4382 29.5064 12.4508 29.5104L13.1259 29.7667C13.1404 29.7732 13.155 29.7795 13.1697 29.7854L13.8136 29.998C13.8363 30.0049 13.8592 30.0112 13.8823 30.0167L14.5199 30.1855C14.5406 30.1923 14.5614 30.1986 14.5825 30.2043L15.2388 30.3355C15.2575 30.3402 15.2762 30.3443 15.2951 30.348L16.0327 30.4606C16.0721 30.4667 16.1117 30.4709 16.1515 30.4731L16.9767 30.5231C17.0142 30.5249 17.0517 30.5249 17.0892 30.5231L18.0019 30.4793C18.0269 30.4801 18.0519 30.4801 18.0769 30.4793L19.002 30.3793C19.0251 30.3758 19.048 30.3716 19.0708 30.3668L20.0272 30.2105C20.0587 30.2055 20.09 30.1993 20.121 30.1918L21.1087 29.9355C21.1361 29.9281 21.1632 29.9198 21.19 29.9104L22.1776 29.5791C22.2008 29.5715 22.2238 29.5632 22.2464 29.5541L23.2091 29.1603C23.2238 29.1544 23.2384 29.1481 23.2529 29.1416L24.1968 28.7102C24.2094 28.7042 24.2219 28.6979 24.2343 28.6915L25.147 28.2351C25.1533 28.231 25.1595 28.2269 25.1657 28.2226L25.9659 27.8038C25.9893 27.79 26.0122 27.7755 26.0346 27.76L26.7285 27.3287C26.7724 27.3004 26.814 27.2691 26.8535 27.2349L27.4662 26.7223C27.4833 26.7083 27.4999 26.6937 27.5162 26.6786L28.1413 26.0847C28.163 26.0647 28.1838 26.0439 28.2038 26.0222L28.8164 25.3346C28.8249 25.3264 28.8332 25.318 28.8414 25.3096L29.4228 24.6157C29.4313 24.6054 29.4396 24.595 29.4478 24.5844L29.9541 23.9281C29.9742 23.9019 29.9929 23.8748 30.0104 23.8468L30.398 23.2342C30.4068 23.2177 30.4151 23.2011 30.423 23.1842L30.723 22.6528C30.7366 22.6283 30.7491 22.6033 30.7605 22.5778L30.9668 22.1152C30.9936 22.0568 31.0145 21.9964 31.0293 21.9339L31.1168 21.5714C31.1695 21.3605 31.1485 21.1573 31.054 20.9616C30.9594 20.766 30.8132 20.6233 30.6153 20.5335C30.4173 20.4438 30.2136 20.4278 30.0042 20.4856C29.7947 20.5433 29.628 20.6615 29.504 20.84L29.2915 21.14C29.2712 21.1682 29.2524 21.1974 29.2352 21.2275L28.9914 21.6464L28.6976 22.109L28.2913 22.6528L27.8037 23.2717L27.2474 23.9093L26.6472 24.5282L26.0846 25.0408L25.5158 25.4471L24.8844 25.8347L24.1343 26.2222L23.2529 26.6473L22.3464 27.0474L21.4275 27.3912L20.5086 27.6913L19.5959 27.9038L18.7207 28.0601L17.8706 28.1414L17.0454 28.1726L16.3328 28.1351L15.6764 28.0351L15.0763 27.9226L14.5137 27.7725L13.9261 27.5788L13.2885 27.3412L12.6008 27.0599L11.8507 26.7286L11.0568 26.3598L10.2504 25.9409L9.45022 25.4471L8.60006 24.8407L7.71239 24.1719L6.83723 23.4342L6.00582 22.6778L5.26818 21.8964L4.59305 21.1088L3.97418 20.3586C3.96398 20.348 3.95356 20.3376 3.94293 20.3274L3.37407 19.6835C3.36388 19.6729 3.35346 19.6624 3.34281 19.6522L2.87397 19.1709L2.55516 18.8083C2.53542 18.7864 2.51459 18.7656 2.49265 18.7458L2.28636 18.5583C2.19493 18.4729 2.08866 18.4146 1.96755 18.3833L1.91129 18.3708C1.67475 18.3097 1.47054 18.3659 1.29867 18.5395ZM29.6791 21.1463C29.6791 21.3258 29.7425 21.479 29.8695 21.606C29.9964 21.7329 30.1497 21.7964 30.3292 21.7964C30.5087 21.7964 30.662 21.7329 30.7889 21.606C30.9158 21.479 30.9793 21.3258 30.9793 21.1463C30.9793 20.9668 30.9158 20.8135 30.7889 20.6866C30.662 20.5596 30.5087 20.4962 30.3292 20.4962C30.1497 20.4962 29.9964 20.5596 29.8695 20.6866C29.7425 20.8135 29.6791 20.9668 29.6791 21.1463ZM30.6042 21.1713L30.6355 21.1275C30.7352 20.9859 30.7143 20.8651 30.5728 20.7652C30.4313 20.6653 30.3105 20.6861 30.2104 20.8275L30.1792 20.8712C30.0794 21.0129 30.1003 21.1336 30.2419 21.2335C30.3834 21.3334 30.5042 21.3127 30.6042 21.1713Z" fill="black"/>
<path d="M29.504 23.6343L29.5978 23.6093C29.6424 23.597 29.684 23.5782 29.7228 23.553L29.8666 23.4593C29.8817 23.4496 29.8963 23.4392 29.9104 23.428L30.1542 23.2405C30.1862 23.2142 30.2154 23.185 30.2417 23.1529L30.5667 22.7841C30.5732 22.7759 30.5794 22.7676 30.5855 22.7591L30.9793 22.2653C30.9835 22.2612 30.9877 22.257 30.9918 22.2528L31.4231 21.6777C31.4274 21.6735 31.4315 21.6694 31.4356 21.6652L31.8607 21.0776C31.8628 21.0755 31.8649 21.0734 31.867 21.0713L32.2483 20.5274L32.5484 20.1086L32.7609 19.8336L32.8484 19.7335L32.8797 19.7085C33.0773 19.5767 33.1896 19.3928 33.2168 19.1568C33.2439 18.9208 33.1762 18.7162 33.0137 18.543C32.8512 18.3697 32.6514 18.2891 32.4142 18.301C32.1769 18.313 31.9862 18.4134 31.842 18.6021L31.7732 18.6958L31.6232 18.8709C31.6101 18.885 31.5976 18.8996 31.5857 18.9146L31.3606 19.2272C31.3543 19.2333 31.348 19.2396 31.3419 19.246L31.0418 19.6835L30.6668 20.2274L30.2479 20.815L29.8291 21.3901C29.8248 21.3984 29.8206 21.4067 29.8166 21.4151L29.4665 21.9402C29.445 21.972 29.4263 22.0053 29.4103 22.0402L29.204 22.4903C29.1886 22.5226 29.1761 22.5559 29.1665 22.5903L29.0915 22.8841L29.0477 23.0467C29.0349 23.0895 29.0287 23.1333 29.0289 23.178V23.278C29.0306 23.4008 29.0806 23.4991 29.1789 23.5729C29.2772 23.6466 29.3856 23.6671 29.504 23.6343ZM31.8357 18.5708L31.7357 18.7021C31.7336 18.7062 31.7315 18.7104 31.7295 18.7146L31.5044 19.0147L31.1668 19.4522C31.1627 19.4543 31.1585 19.4564 31.1543 19.4585L30.748 19.9961C30.7371 20.0103 30.7267 20.0249 30.7168 20.0399L30.3229 20.64C30.3042 20.6701 30.2875 20.7014 30.2729 20.7337L29.9604 21.3839C29.9482 21.4103 29.9378 21.4374 29.9291 21.4651L29.7166 22.1027L29.529 22.6091L29.2727 22.9342C29.1644 23.0717 29.179 23.1946 29.3165 23.303C29.454 23.4113 29.577 23.3967 29.6853 23.2592L29.9416 22.9342L30.3979 22.6216L30.9543 22.2403C30.9878 22.218 31.019 22.193 31.0481 22.1653L31.5607 21.6589C31.5852 21.6354 31.6081 21.6104 31.6294 21.5839L32.0733 21.0213C32.0775 21.0172 32.0816 21.013 32.0858 21.0088L32.4858 20.4712L32.8297 20.0274C32.8361 20.0171 32.8424 20.0067 32.8484 19.9961L33.0735 19.6773C33.0997 19.6396 33.1226 19.6 33.1422 19.5585L33.211 19.4085C33.3119 19.2198 33.3342 19.0223 33.2779 18.8159C33.2216 18.6096 33.1021 18.4507 32.9194 18.3394C32.7367 18.2282 32.5407 18.1949 32.3315 18.2395C32.1223 18.2842 31.957 18.3946 31.8357 18.5708Z" fill="black"/>
<path d="M6.86808 6.98082L6.97435 6.82454L7.2369 6.46822L7.69324 5.89937L8.44963 5.12422L9.59985 4.17404L11.2002 3.1926L13.1568 2.39245L15.3447 1.94861L17.7452 1.89235L20.3206 2.27368L22.9086 3.01757L25.1903 4.07402L26.8844 5.23674C27.0178 5.32842 27.1303 5.30759 27.222 5.17423C27.3136 5.04087 27.2928 4.92835 27.1594 4.83666L25.4466 3.66769C25.4425 3.66548 25.4383 3.6634 25.4341 3.66144L23.2587 2.30493C23.2388 2.29269 23.2179 2.28227 23.1962 2.27368L20.652 1.21722C20.6138 1.20026 20.5742 1.18776 20.5332 1.17972L17.8764 0.735883C17.8391 0.730146 17.8016 0.728063 17.7639 0.729631L15.2634 0.823399C15.2234 0.823341 15.1838 0.827508 15.1447 0.835902L12.8817 1.41101C12.8516 1.41874 12.8224 1.42916 12.7942 1.44227L10.7938 2.34869C10.7744 2.35782 10.7556 2.36824 10.7376 2.37995L9.0935 3.41764C9.07361 3.43076 9.05485 3.44535 9.03724 3.4614L7.87452 4.48035C7.8591 4.49187 7.84451 4.50437 7.83076 4.51785L7.08062 5.35551C7.07391 5.36565 7.06766 5.37607 7.06187 5.38677L6.60553 5.98688C6.60118 5.99301 6.59702 5.99927 6.59303 6.00564L6.34298 6.38071C6.33863 6.38684 6.33446 6.39309 6.33048 6.39946L6.23046 6.56199C6.17263 6.65003 6.1544 6.74562 6.17576 6.84876C6.19712 6.9519 6.25182 7.03239 6.33985 7.09022C6.42789 7.14805 6.52348 7.16628 6.62662 7.14492C6.72977 7.12356 6.81025 7.06886 6.86808 6.98082Z" fill="black"/>
<path d="M2.89907 21.4906C2.89907 21.6028 2.93874 21.6985 3.01808 21.7779C3.09742 21.8572 3.19319 21.8969 3.3054 21.8969C3.4176 21.8969 3.51337 21.8572 3.59271 21.7779C3.67205 21.6985 3.71172 21.6028 3.71172 21.4906C3.71172 21.3783 3.67205 21.2826 3.59271 21.2032C3.51337 21.1239 3.4176 21.0842 3.3054 21.0842C3.19319 21.0842 3.09742 21.1239 3.01808 21.2032C2.93874 21.2826 2.89907 21.3783 2.89907 21.4906ZM3.12411 21.0717L3.10536 21.0842C3.06034 21.1011 3.01866 21.124 2.98033 21.153L2.90532 21.2093C2.85891 21.2468 2.81932 21.2906 2.78655 21.3405L2.66152 21.5281C2.64016 21.5577 2.6214 21.589 2.60526 21.6218L2.42398 22.0094C2.42181 22.0156 2.41972 22.0219 2.41773 22.0282L2.15518 22.6408L1.81761 23.4222C1.81335 23.4284 1.80918 23.4346 1.80511 23.4409L1.4613 24.3098C1.44782 24.3444 1.4374 24.3798 1.43004 24.4161L1.25501 25.2413L1.10498 25.8726L0.886186 26.2915C0.823025 26.447 0.866136 26.5631 1.01552 26.6397C1.1649 26.7163 1.28432 26.6836 1.37378 26.5415L1.59257 26.1227L2.00515 25.6101L2.549 24.9662C2.5776 24.9333 2.60261 24.8979 2.62402 24.8599L3.08035 24.0473C3.08935 24.031 3.09768 24.0143 3.10536 23.9973L3.46168 23.2221C3.46609 23.2118 3.47026 23.2014 3.47418 23.1909L3.72423 22.5783C3.7406 22.5377 3.7531 22.4961 3.76173 22.4532L3.84925 22.0344C3.86577 21.9622 3.86993 21.8893 3.86175 21.8156L3.8305 21.5843C3.82128 21.516 3.80044 21.4514 3.76798 21.3905L3.72423 21.3093C3.7203 21.3008 3.71613 21.2925 3.71172 21.2843L3.69297 21.2593C3.55645 21.0357 3.36683 20.9732 3.12411 21.0717Z" fill="black"/>
<path d="M3.23042 21.7781C3.23042 21.8903 3.27009 21.9861 3.34943 22.0654C3.42877 22.1447 3.52454 22.1844 3.63674 22.1844C3.74895 22.1844 3.84472 22.1447 3.92406 22.0654C4.0034 21.9861 4.04307 21.8903 4.04307 21.7781C4.04307 21.6659 4.0034 21.5701 3.92406 21.4908C3.84472 21.4114 3.74895 21.3717 3.63674 21.3717C3.52454 21.3717 3.42877 21.4114 3.34943 21.4908C3.27009 21.5701 3.23042 21.6659 3.23042 21.7781ZM3.21791 21.7781C3.21791 21.8937 3.2588 21.9925 3.34059 22.0742C3.42237 22.156 3.52109 22.1969 3.63674 22.1969C3.7524 22.1969 3.85112 22.156 3.9329 22.0742C4.01468 21.9925 4.05557 21.8937 4.05557 21.7781C4.05557 21.6624 4.01468 21.5637 3.9329 21.4819C3.85112 21.4001 3.7524 21.3592 3.63674 21.3592C3.52109 21.3592 3.42237 21.4001 3.34059 21.4819C3.2588 21.5637 3.21791 21.6624 3.21791 21.7781ZM3.09914 21.7968C3.09914 21.9418 3.15041 22.0656 3.25294 22.1681C3.35547 22.2707 3.47924 22.3219 3.62424 22.3219C3.76924 22.3219 3.89301 22.2707 3.99554 22.1681C4.09807 22.0656 4.14934 21.9418 4.14934 21.7968C4.14934 21.6518 4.09807 21.5281 3.99554 21.4255C3.89301 21.323 3.76924 21.2717 3.62424 21.2717C3.47924 21.2717 3.35547 21.323 3.25294 21.4255C3.15041 21.5281 3.09914 21.6518 3.09914 21.7968ZM3.01787 21.553L2.8616 21.7906C2.84566 21.8148 2.83107 21.8398 2.81784 21.8656L2.58029 22.3344L2.24273 22.947L1.81765 23.6284L1.36131 24.2848L0.923726 24.8662C0.919474 24.8724 0.915306 24.8786 0.911224 24.8849L0.561157 25.3788C0.497457 25.4678 0.453698 25.5657 0.429882 25.6726L0.336114 26.0851C0.273114 26.3464 0.349105 26.5576 0.564088 26.7189C0.77907 26.8801 1.00314 26.8939 1.23629 26.7603L1.60511 26.554C1.69113 26.5072 1.76614 26.4468 1.83015 26.3727L2.22397 25.9039C2.23249 25.8957 2.24082 25.8874 2.24898 25.8789L2.70532 25.2975C2.71166 25.2913 2.71792 25.2851 2.72407 25.2787L3.21791 24.6036C3.22658 24.5913 3.23491 24.5788 3.24292 24.5661L3.70551 23.8535C3.72101 23.8333 3.7356 23.8124 3.74926 23.791L4.09308 23.1346C4.11906 23.0845 4.1399 23.0325 4.15559 22.9783L4.31187 22.4657C4.34704 22.3442 4.35329 22.2213 4.33062 22.0969L4.28687 21.8156C4.23557 21.5016 4.05417 21.3124 3.74265 21.248C3.43113 21.1835 3.18954 21.2852 3.01787 21.553ZM0.52365 26.3164L0.423631 26.4665C0.348605 26.6141 0.379701 26.7343 0.51692 26.827C0.654139 26.9197 0.777239 26.9037 0.886219 26.779L0.986238 26.629C1.06126 26.4814 1.03017 26.3612 0.892948 26.2685C0.75573 26.1758 0.63263 26.1917 0.52365 26.3164Z" fill="black"/>
<path d="M1.22376 25.2538C1.22376 25.3573 1.26037 25.4458 1.33361 25.519C1.40685 25.5922 1.49525 25.6288 1.59883 25.6288C1.7024 25.6288 1.79081 25.5922 1.86404 25.519C1.93728 25.4458 1.9739 25.3573 1.9739 25.2538C1.9739 25.1502 1.93728 25.0618 1.86404 24.9886C1.79081 24.9153 1.7024 24.8787 1.59883 24.8787C1.49525 24.8787 1.40685 24.9153 1.33361 24.9886C1.26037 25.0618 1.22376 25.1502 1.22376 25.2538ZM1.59883 25.6726H1.64884C1.77576 25.6746 1.8862 25.6329 1.98015 25.5476L2.14268 25.3976C2.15815 25.3838 2.17273 25.3693 2.18644 25.3538L2.46149 25.0412C2.50808 24.9858 2.54142 24.9233 2.56151 24.8537L2.68028 24.4661L2.97409 24.1661C3.10319 24.0327 3.10108 23.9015 2.96777 23.7723C2.83446 23.6432 2.70321 23.6452 2.57401 23.7785L2.28021 24.0848L1.89888 24.2223C1.818 24.2529 1.74923 24.3008 1.69259 24.3661L1.41754 24.6724C1.39617 24.6977 1.37741 24.7248 1.36128 24.7537L1.24251 24.9412C1.18511 25.0381 1.16428 25.1423 1.18 25.2538L1.18625 25.3038C1.21836 25.5446 1.35588 25.6676 1.59883 25.6726Z" fill="black"/>
<path d="M6.11221 24.6661C6.11221 24.7593 6.14517 24.8389 6.21108 24.9048C6.27699 24.9707 6.35656 25.0037 6.44978 25.0037C6.54299 25.0037 6.62256 24.9707 6.68847 24.9048C6.75438 24.8389 6.78734 24.7593 6.78734 24.6661C6.78734 24.5729 6.75438 24.4933 6.68847 24.4274C6.62256 24.3615 6.54299 24.3286 6.44978 24.3286C6.35656 24.3286 6.27699 24.3615 6.21108 24.4274C6.14517 24.4933 6.11221 24.5729 6.11221 24.6661ZM6.0372 24.6661C6.0372 24.78 6.07748 24.8773 6.15804 24.9579C6.2386 25.0384 6.33585 25.0787 6.44978 25.0787C6.56371 25.0787 6.66095 25.0384 6.74151 24.9579C6.82207 24.8773 6.86235 24.78 6.86235 24.6661C6.86235 24.5522 6.82207 24.4549 6.74151 24.3744C6.66095 24.2938 6.56371 24.2535 6.44978 24.2535C6.33585 24.2535 6.2386 24.2938 6.15804 24.3744C6.07748 24.4549 6.0372 24.5522 6.0372 24.6661ZM5.99969 24.6474C5.99969 24.7751 6.04485 24.8841 6.13518 24.9745C6.22551 25.0648 6.33454 25.1099 6.46228 25.1099C6.59002 25.1099 6.69905 25.0648 6.78938 24.9745C6.8797 24.8841 6.92487 24.7751 6.92487 24.6474C6.92487 24.5196 6.8797 24.4106 6.78938 24.3203C6.69905 24.2299 6.59002 24.1848 6.46228 24.1848C6.33454 24.1848 6.22551 24.2299 6.13518 24.3203C6.04485 24.4106 5.99969 24.5196 5.99969 24.6474ZM6.25599 24.0222L6.16847 24.0535C6.04522 24.0931 5.93895 24.1598 5.84966 24.2535L5.58711 24.5348C5.55981 24.5643 5.5348 24.5955 5.5121 24.6286L5.13703 25.16C5.13277 25.1662 5.12861 25.1724 5.12452 25.1787L4.68069 25.8413C4.67631 25.8517 4.67214 25.8621 4.66819 25.8726L4.27436 26.5227C4.26794 26.5309 4.26169 26.5393 4.25561 26.5477L3.95555 27.1041C3.93 27.1478 3.90916 27.1936 3.89304 27.2416L3.77427 27.6229C3.68635 27.9093 3.76578 28.1375 4.01257 28.3073C4.25936 28.4772 4.50082 28.4699 4.73695 28.2856L5.05576 28.0418C5.10548 28.0016 5.14924 27.9558 5.18704 27.9042L5.56836 27.3979C5.57257 27.3938 5.57674 27.3896 5.58086 27.3854L6.0247 26.7603L6.48728 26.1164C6.49154 26.1102 6.4957 26.1039 6.49979 26.0976L6.86235 25.5538C6.88345 25.5218 6.9022 25.4884 6.91862 25.4538L7.0874 25.1099C7.17315 24.9322 7.18773 24.7489 7.13116 24.5598L7.0999 24.4661C7.04591 24.2872 6.93625 24.1543 6.77091 24.0674C6.60558 23.9804 6.43393 23.9654 6.25599 24.0222ZM4.07432 27.7417L4.02431 27.7792C3.87845 27.8917 3.86178 28.0209 3.9743 28.1668C4.08683 28.3126 4.21602 28.3293 4.36188 28.2168L4.41189 28.1793C4.55775 28.0668 4.57442 27.9376 4.4619 27.7917C4.34938 27.6458 4.22018 27.6292 4.07432 27.7417Z" fill="black"/>
<path d="M5.80587 24.7661C5.80587 24.8801 5.84615 24.9773 5.92672 25.0579C6.00728 25.1384 6.10452 25.1787 6.21845 25.1787C6.33238 25.1787 6.42963 25.1384 6.51019 25.0579C6.59075 24.9773 6.63103 24.8801 6.63103 24.7661C6.63103 24.6522 6.59075 24.555 6.51019 24.4744C6.42963 24.3938 6.33238 24.3536 6.21845 24.3536C6.10452 24.3536 6.00728 24.3938 5.92672 24.4744C5.84615 24.555 5.80587 24.6522 5.80587 24.7661ZM5.6996 24.7849C5.6996 24.9264 5.74965 25.0473 5.84974 25.1474C5.94983 25.2474 6.07065 25.2975 6.2122 25.2975C6.35375 25.2975 6.47457 25.2474 6.57466 25.1474C6.67475 25.0473 6.7248 24.9264 6.7248 24.7849C6.7248 24.6433 6.67475 24.5225 6.57466 24.4224C6.47457 24.3223 6.35375 24.2723 6.2122 24.2723C6.07065 24.2723 5.94983 24.3223 5.84974 24.4224C5.74965 24.5225 5.6996 24.6433 5.6996 24.7849ZM5.66835 24.4348L5.47456 24.6474C5.45177 24.673 5.43093 24.7 5.41205 24.7286L5.13075 25.1475L4.76818 25.6788L4.39936 26.2164C4.39935 26.2185 4.39935 26.2206 4.39936 26.2227L4.08055 26.6978L3.81174 27.0978C3.78185 27.1388 3.75685 27.1826 3.73673 27.2291L3.60546 27.5729C3.493 27.864 3.56515 28.0982 3.82188 28.2756C4.07862 28.4529 4.3232 28.4375 4.55564 28.2293L4.83069 27.9855C4.86565 27.9533 4.8969 27.9179 4.92446 27.8792L5.19951 27.4979L5.54958 27.0478C5.54958 27.0457 5.54958 27.0437 5.54958 27.0416L5.9434 26.5227C5.94991 26.5125 5.95616 26.502 5.96215 26.4915L6.33097 25.9601C6.3353 25.9519 6.33947 25.9435 6.34348 25.9351L6.61228 25.5038C6.6376 25.4622 6.65844 25.4184 6.67479 25.3725L6.77481 25.1037C6.83238 24.9551 6.83546 24.8055 6.78403 24.6547C6.7326 24.5039 6.63871 24.3872 6.50235 24.3048C6.366 24.2224 6.21911 24.1934 6.06168 24.218C5.90425 24.2425 5.77314 24.3148 5.66835 24.4348ZM3.79299 27.8355L3.69297 27.9668C3.58063 28.1126 3.59734 28.2417 3.7431 28.3542C3.88886 28.4666 4.01801 28.45 4.13056 28.3043L4.23057 28.173C4.34277 28.0272 4.32603 27.8981 4.18035 27.7857C4.03467 27.6734 3.90555 27.6899 3.79299 27.8355Z" fill="black"/>
<path d="M8.85018 27.0916C8.85018 27.2038 8.88985 27.2995 8.96919 27.3789C9.04853 27.4582 9.1443 27.4979 9.25651 27.4979C9.36871 27.4979 9.46448 27.4582 9.54382 27.3789C9.62316 27.2995 9.66283 27.2038 9.66283 27.0916C9.66283 26.9794 9.62316 26.8836 9.54382 26.8042C9.46448 26.7249 9.36871 26.6852 9.25651 26.6852C9.1443 26.6852 9.04853 26.7249 8.96919 26.8042C8.88985 26.8836 8.85018 26.9794 8.85018 27.0916ZM8.78142 27.0916C8.78142 27.221 8.82719 27.3315 8.91873 27.4231C9.01028 27.5146 9.12079 27.5604 9.25026 27.5604C9.37972 27.5604 9.49023 27.5146 9.58177 27.4231C9.67332 27.3315 9.71909 27.221 9.71909 27.0916C9.71909 26.9621 9.67332 26.8516 9.58177 26.76C9.49023 26.6685 9.37972 26.6227 9.25026 26.6227C9.12079 26.6227 9.01028 26.6685 8.91873 26.76C8.82719 26.8516 8.78142 26.9621 8.78142 27.0916ZM8.64389 27.0853C8.64389 27.2476 8.70126 27.3861 8.816 27.5008C8.93074 27.6156 9.06924 27.6729 9.2315 27.6729C9.39377 27.6729 9.53227 27.6156 9.64701 27.5008C9.76174 27.3861 9.81911 27.2476 9.81911 27.0853C9.81911 26.9231 9.76174 26.7845 9.64701 26.6698C9.53227 26.5551 9.39377 26.4977 9.2315 26.4977C9.06924 26.4977 8.93074 26.5551 8.816 26.6698C8.70126 26.7845 8.64389 26.9231 8.64389 27.0853ZM8.89394 26.5165L8.79392 26.5665C8.68706 26.6216 8.59954 26.6987 8.53137 26.7978L8.38134 27.004C8.37238 27.0204 8.36404 27.0371 8.35633 27.0541L8.13129 27.4291L7.82498 27.948C7.82289 27.9501 7.8208 27.9521 7.81873 27.9542L7.49367 28.5106C7.48484 28.5249 7.47651 28.5395 7.46867 28.5543L7.19986 29.0919C7.19535 29.1043 7.19119 29.1168 7.18736 29.1295L6.99358 29.5733C6.98651 29.5918 6.98026 29.6105 6.97482 29.6295L6.8623 29.9671C6.80872 30.1232 6.81434 30.2772 6.87915 30.429C6.94396 30.5808 7.05127 30.6913 7.20108 30.7606C7.3509 30.8298 7.50461 30.84 7.66224 30.791C7.81987 30.7421 7.94079 30.6467 8.02502 30.5047L8.21256 30.1984C8.21465 30.1963 8.21674 30.1943 8.21881 30.1922L8.46261 29.7796L8.76891 29.267L9.10023 28.7169L9.41279 28.198C9.41711 28.1898 9.42128 28.1814 9.42529 28.173L9.64408 27.7917C9.65566 27.7693 9.66608 27.7464 9.67534 27.7229L9.77536 27.4916C9.79096 27.4552 9.80346 27.4177 9.81286 27.3791L9.83787 27.2729C9.90345 26.998 9.826 26.7723 9.60553 26.5956C9.38505 26.4189 9.14785 26.3926 8.89394 26.5165ZM7.1436 30.2172L7.08734 30.3109C6.99588 30.4651 7.02718 30.5879 7.18124 30.6795C7.33529 30.7711 7.45819 30.74 7.54993 30.586L7.60619 30.4922C7.69788 30.338 7.66662 30.2151 7.51242 30.1234C7.35823 30.0317 7.23529 30.063 7.1436 30.2172Z" fill="black"/>
<path d="M12.2071 28.842C12.2071 28.9524 12.2462 29.0467 12.3243 29.1249C12.4024 29.203 12.4967 29.242 12.6072 29.242C12.7177 29.242 12.812 29.203 12.8901 29.1249C12.9682 29.0467 13.0073 28.9524 13.0073 28.842C13.0073 28.7315 12.9682 28.6372 12.8901 28.5591C12.812 28.4809 12.7177 28.4419 12.6072 28.4419C12.4967 28.4419 12.4024 28.4809 12.3243 28.5591C12.2462 28.6372 12.2071 28.7315 12.2071 28.842ZM12.2009 28.842C12.2009 28.9559 12.2411 29.0531 12.3217 29.1337C12.4023 29.2143 12.4995 29.2545 12.6134 29.2545C12.7274 29.2545 12.8246 29.2143 12.9052 29.1337C12.9857 29.0531 13.026 28.9559 13.026 28.842C13.026 28.728 12.9857 28.6308 12.9052 28.5502C12.8246 28.4697 12.7274 28.4294 12.6134 28.4294C12.4995 28.4294 12.4023 28.4697 12.3217 28.5502C12.2411 28.6308 12.2009 28.728 12.2009 28.842ZM12.1071 28.817C12.1071 28.9585 12.1571 29.0793 12.2572 29.1794C12.3573 29.2795 12.4781 29.3296 12.6197 29.3296C12.7612 29.3296 12.8821 29.2795 12.9822 29.1794C13.0822 29.0793 13.1323 28.9585 13.1323 28.817C13.1323 28.6754 13.0822 28.5546 12.9822 28.4545C12.8821 28.3544 12.7612 28.3044 12.6197 28.3044C12.4781 28.3044 12.3573 28.3544 12.2572 28.4545C12.1571 28.5546 12.1071 28.6754 12.1071 28.817ZM12.0008 28.7732C12.0008 28.9475 12.0625 29.0964 12.1858 29.2196C12.309 29.3429 12.4578 29.4046 12.6322 29.4046C12.8065 29.4046 12.9554 29.3429 13.0786 29.2196C13.2019 29.0964 13.2636 28.9475 13.2636 28.7732C13.2636 28.5988 13.2019 28.45 13.0786 28.3268C12.9554 28.2035 12.8065 28.1418 12.6322 28.1418C12.4578 28.1418 12.309 28.2035 12.1858 28.3268C12.0625 28.45 12.0008 28.5988 12.0008 28.7732ZM11.9946 28.3981L11.9196 28.5231C11.8915 28.5708 11.8685 28.6208 11.8508 28.6732L11.7133 29.0608C11.7087 29.0752 11.7045 29.0898 11.7008 29.1045L11.5132 29.7484C11.5132 29.7546 11.5132 29.7609 11.5132 29.7671L11.3132 30.5235C11.3087 30.5359 11.3045 30.5484 11.3007 30.561L11.1569 31.2737C11.1401 31.3591 11.1401 31.4445 11.1569 31.53L11.2444 31.9926C11.2463 32.001 11.2483 32.0093 11.2507 32.0176L11.3069 32.2176L11.2882 32.3051C11.2602 32.4739 11.3298 32.5761 11.497 32.612C11.6643 32.6478 11.7697 32.583 11.8133 32.4176L11.832 32.3426L11.9633 32.2114C11.9676 32.2073 11.9717 32.2031 11.9758 32.1988L12.2946 31.855C12.3414 31.8027 12.3789 31.7443 12.4072 31.68L12.7072 31.0174C12.7115 31.0091 12.7157 31.0008 12.7197 30.9924L13.0198 30.2735C13.0243 30.2611 13.0284 30.2486 13.0323 30.236L13.2573 29.6109C13.2671 29.5842 13.2754 29.5571 13.2823 29.5296L13.3823 29.1358C13.4094 29.0328 13.4156 28.9286 13.4011 28.8232L13.3823 28.6732C13.3317 28.323 13.1328 28.1135 12.7858 28.0447C12.4387 27.9759 12.175 28.0937 11.9946 28.3981Z" fill="black"/>
<path d="M16.3329 30.261C16.3329 30.3697 16.3713 30.4625 16.4482 30.5394C16.5251 30.6163 16.6179 30.6548 16.7267 30.6548C16.8354 30.6548 16.9283 30.6163 17.0052 30.5394C17.0821 30.4625 17.1205 30.3697 17.1205 30.261C17.1205 30.1522 17.0821 30.0594 17.0052 29.9825C16.9283 29.9056 16.8354 29.8671 16.7267 29.8671C16.6179 29.8671 16.5251 29.9056 16.4482 29.9825C16.3713 30.0594 16.3329 30.1522 16.3329 30.261ZM16.1703 30.2422C16.1703 30.3958 16.2247 30.527 16.3333 30.6356C16.4419 30.7442 16.5731 30.7986 16.7267 30.7986C16.8803 30.7986 17.0115 30.7442 17.1201 30.6356C17.2287 30.527 17.283 30.3958 17.283 30.2422C17.283 30.0886 17.2287 29.9574 17.1201 29.8488C17.0115 29.7402 16.8803 29.6858 16.7267 29.6858C16.5731 29.6858 16.4419 29.7402 16.3333 29.8488C16.2247 29.9574 16.1703 30.0886 16.1703 30.2422ZM16.2516 29.7296L16.1203 29.8359C16.0146 29.9239 15.9375 30.0322 15.889 30.1609L15.7578 30.5235C15.7451 30.5562 15.7347 30.5895 15.7265 30.6235L15.6015 31.1549C15.5961 31.1797 15.592 31.2047 15.589 31.2299L15.514 31.805C15.5056 31.8782 15.5077 31.9512 15.5202 32.0238L15.5952 32.5239C15.6024 32.5712 15.6149 32.617 15.6327 32.6614L15.7765 33.024L15.864 33.2678L15.8515 33.4616C15.8435 33.6363 15.9268 33.7279 16.1016 33.7362C16.2764 33.7446 16.368 33.6613 16.3766 33.4866L16.3829 33.3053L16.5016 33.0927L16.7204 32.7802C16.7395 32.7524 16.7562 32.7232 16.7704 32.6927L16.983 32.2301C17.0044 32.1838 17.0211 32.1359 17.033 32.0863L17.1705 31.5237C17.1727 31.5175 17.1748 31.5112 17.1768 31.5049L17.2893 30.9861L17.3768 30.6173C17.3928 30.5473 17.3991 30.4764 17.3956 30.4047L17.3893 30.2359C17.3783 29.9482 17.2412 29.7457 16.9781 29.6286C16.715 29.5115 16.4728 29.5452 16.2516 29.7296Z" fill="black"/>
<path d="M20.0086 29.7671C20.0086 29.8741 20.0465 29.9655 20.1221 30.0412C20.1978 30.1168 20.2892 30.1547 20.3962 30.1547C20.5032 30.1547 20.5946 30.1168 20.6702 30.0412C20.7459 29.9655 20.7838 29.8741 20.7838 29.7671C20.7838 29.6601 20.7459 29.5687 20.6702 29.4931C20.5946 29.4174 20.5032 29.3795 20.3962 29.3795C20.2892 29.3795 20.1978 29.4174 20.1221 29.4931C20.0465 29.5687 20.0086 29.6601 20.0086 29.7671ZM19.9524 29.7671C19.9524 29.8828 19.9932 29.9815 20.075 30.0633C20.1568 30.145 20.2555 30.1859 20.3712 30.1859C20.4868 30.1859 20.5856 30.145 20.6673 30.0633C20.7491 29.9815 20.79 29.8828 20.79 29.7671C20.79 29.6515 20.7491 29.5527 20.6673 29.471C20.5856 29.3892 20.4868 29.3483 20.3712 29.3483C20.2555 29.3483 20.1568 29.3892 20.075 29.471C19.9932 29.5527 19.9524 29.6515 19.9524 29.7671ZM19.8273 29.7671C19.8273 29.9052 19.8762 30.0231 19.9738 30.1207C20.0715 30.2184 20.1893 30.2672 20.3274 30.2672C20.4655 30.2672 20.5834 30.2184 20.681 30.1207C20.7787 30.0231 20.8275 29.9052 20.8275 29.7671C20.8275 29.629 20.7787 29.5111 20.681 29.4135C20.5834 29.3158 20.4655 29.267 20.3274 29.267C20.1893 29.267 20.0715 29.3158 19.9738 29.4135C19.8762 29.5111 19.8273 29.629 19.8273 29.7671ZM20.2024 29.192H20.1774C19.8318 29.239 19.6213 29.4328 19.546 29.7734L19.496 30.0172C19.4762 30.1016 19.4699 30.187 19.4773 30.2735L19.521 30.686C19.5247 30.724 19.5309 30.7615 19.5398 30.7986L19.6711 31.3549C19.6933 31.4451 19.7308 31.5285 19.7836 31.605L20.1024 32.0738C20.1065 32.078 20.1106 32.0822 20.1149 32.0863L20.4087 32.4926L20.5212 32.9052C20.5837 33.0444 20.6887 33.0942 20.8361 33.0547C20.9834 33.0151 21.0494 32.9195 21.0338 32.7677L20.9275 32.3614L21.0151 31.905L21.1526 31.3674C21.1693 31.3039 21.1776 31.2393 21.1776 31.1736V30.5985C21.1757 30.5628 21.1715 30.5274 21.1651 30.4922L21.1088 30.0797C21.1012 30.0176 21.0866 29.9571 21.0651 29.8984L20.9776 29.6671C20.8917 29.449 20.7375 29.3031 20.515 29.2295L20.49 29.217C20.3961 29.1857 20.3003 29.1773 20.2024 29.192Z" fill="black"/>
<path d="M23.678 28.7544C23.678 28.9711 23.7863 29.0795 24.003 29.0795C24.2197 29.0795 24.3281 28.9711 24.3281 28.7544C24.3281 28.5377 24.2197 28.4294 24.003 28.4294C23.7863 28.4294 23.678 28.5377 23.678 28.7544ZM23.553 28.7357C23.553 28.86 23.5969 28.9661 23.6848 29.0539C23.7727 29.1418 23.8788 29.1858 24.003 29.1858C24.1273 29.1858 24.2334 29.1418 24.3213 29.0539C24.4092 28.9661 24.4531 28.86 24.4531 28.7357C24.4531 28.6114 24.4092 28.5053 24.3213 28.4174C24.2334 28.3295 24.1273 28.2856 24.003 28.2856C23.8788 28.2856 23.7727 28.3295 23.6848 28.4174C23.5969 28.5053 23.553 28.6114 23.553 28.7357ZM23.2654 28.7232C23.2654 28.9251 23.3368 29.0975 23.4796 29.2403C23.6224 29.3832 23.7948 29.4546 23.9968 29.4546C24.1988 29.4546 24.3711 29.3832 24.514 29.2403C24.6568 29.0975 24.7282 28.9251 24.7282 28.7232C24.7282 28.5212 24.6568 28.3488 24.514 28.206C24.3711 28.0632 24.1988 27.9918 23.9968 27.9918C23.7948 27.9918 23.6224 28.0632 23.4796 28.206C23.3368 28.3488 23.2654 28.5212 23.2654 28.7232ZM23.2091 28.6232L23.1841 28.7669C23.1669 28.8583 23.1648 28.95 23.1779 29.042L23.2216 29.3295C23.2275 29.3676 23.2358 29.4051 23.2466 29.4421L23.3654 29.8421C23.374 29.874 23.3845 29.9053 23.3967 29.9359L23.5905 30.3922C23.6067 30.429 23.6254 30.4644 23.6467 30.4985L23.9093 30.9424C23.9392 30.9944 23.9746 31.0423 24.0155 31.0861L24.3281 31.4049C24.3739 31.4528 24.426 31.4924 24.4844 31.5237L24.7594 31.6675L24.8907 31.7425L24.947 31.8238C25.0467 31.9323 25.1594 31.9481 25.2851 31.8713C25.4108 31.7945 25.4482 31.6869 25.3971 31.5487L25.3533 31.4737L25.3595 31.3424L25.4033 31.0486C25.4094 30.9986 25.4094 30.9486 25.4033 30.8986L25.3533 30.4548C25.3487 30.4103 25.3404 30.3665 25.3283 30.3235L25.1845 29.8296C25.1805 29.8212 25.1763 29.8129 25.172 29.8046L25.022 29.342L24.9095 28.9545L24.8282 28.6794C24.8163 28.6409 24.8017 28.6034 24.7844 28.5669L24.7219 28.4356C24.5586 28.082 24.2836 27.9291 23.8971 27.977C23.5105 28.0249 23.2812 28.2403 23.2091 28.6232Z" fill="black"/>
<path d="M27.2225 26.804C27.2225 26.911 27.2603 27.0024 27.336 27.0781C27.4117 27.1537 27.5031 27.1916 27.6101 27.1916C27.7171 27.1916 27.8085 27.1537 27.8841 27.0781C27.9598 27.0024 27.9977 26.911 27.9977 26.804C27.9977 26.697 27.9598 26.6056 27.8841 26.53C27.8085 26.4543 27.7171 26.4164 27.6101 26.4164C27.5031 26.4164 27.4117 26.4543 27.336 26.53C27.2603 26.6056 27.2225 26.697 27.2225 26.804ZM27.1725 26.7978C27.1727 26.915 27.2143 27.015 27.2973 27.0978C27.3803 27.1806 27.4804 27.222 27.5976 27.222C27.7148 27.222 27.8149 27.1806 27.8979 27.0978C27.9808 27.015 28.0224 26.915 28.0227 26.7978C28.0224 26.6805 27.9808 26.5805 27.8979 26.4977C27.8149 26.4149 27.7148 26.3735 27.5976 26.3735C27.4804 26.3735 27.3803 26.4149 27.2973 26.4977C27.2143 26.5805 27.1727 26.6805 27.1725 26.7978ZM27.0975 26.7665C27.0975 26.8977 27.1439 27.0097 27.2366 27.1024C27.3294 27.1952 27.4414 27.2416 27.5726 27.2416C27.7038 27.2416 27.8157 27.1952 27.9085 27.1024C28.0013 27.0097 28.0477 26.8977 28.0477 26.7665C28.0477 26.6353 28.0013 26.5233 27.9085 26.4306C27.8157 26.3378 27.7038 26.2914 27.5726 26.2914C27.4414 26.2914 27.3294 26.3378 27.2366 26.4306C27.1439 26.5233 27.0975 26.6353 27.0975 26.7665ZM26.9412 26.7352C26.9412 26.8975 26.9986 27.036 27.1133 27.1508C27.2281 27.2655 27.3666 27.3229 27.5288 27.3229C27.6911 27.3229 27.8296 27.2655 27.9443 27.1508C28.0591 27.036 28.1164 26.8975 28.1164 26.7352C28.1164 26.573 28.0591 26.4345 27.9443 26.3197C27.8296 26.205 27.6911 26.1476 27.5288 26.1476C27.3666 26.1476 27.2281 26.205 27.1133 26.3197C26.9986 26.4345 26.9412 26.573 26.9412 26.7352ZM26.8099 26.7165C26.8099 26.9012 26.8752 27.0589 27.0058 27.1895C27.1364 27.3201 27.2941 27.3854 27.4788 27.3854C27.6635 27.3854 27.8212 27.3201 27.9518 27.1895C28.0824 27.0589 28.1477 26.9012 28.1477 26.7165C28.1477 26.5318 28.0824 26.3741 27.9518 26.2435C27.8212 26.1129 27.6635 26.0476 27.4788 26.0476C27.2941 26.0476 27.1364 26.1129 27.0058 26.2435C26.8752 26.3741 26.8099 26.5318 26.8099 26.7165ZM26.9287 26.2101L26.8787 26.2539C26.6858 26.4365 26.6067 26.6595 26.6411 26.9228L26.6662 27.1166C26.6767 27.1924 26.6975 27.2654 26.7287 27.3354L26.8599 27.6417C26.8834 27.697 26.9126 27.749 26.9475 27.798L27.2163 28.1605C27.2778 28.244 27.3528 28.3127 27.4413 28.3668L27.8539 28.6231C27.8857 28.6428 27.919 28.6595 27.9539 28.6731L28.3727 28.8356L28.6978 28.9919L28.9166 29.1857C29.044 29.2787 29.1605 29.2667 29.2662 29.1497C29.372 29.0326 29.3721 28.9154 29.2666 28.7981L29.0604 28.6106L28.9041 28.3105L28.7728 27.898C28.7708 27.8917 28.7687 27.8854 28.7666 27.8792L28.5978 27.4229C28.5855 27.3885 28.5709 27.3552 28.554 27.3229L28.3477 26.929L28.1977 26.6415L28.1164 26.479C28.1087 26.462 28.1004 26.4453 28.0914 26.4289L28.0602 26.3664C28.0041 26.27 27.9298 26.1908 27.8372 26.1287C27.7445 26.0665 27.643 26.0279 27.5325 26.0126C27.422 25.9974 27.3138 26.0071 27.2078 26.0417C27.1018 26.0764 27.0088 26.1325 26.9287 26.2101Z" fill="black"/>
<path d="M29.648 23.3972C29.648 23.5059 29.6864 23.5987 29.7633 23.6756C29.8402 23.7525 29.933 23.791 30.0418 23.791C30.1505 23.791 30.2434 23.7525 30.3203 23.6756C30.3972 23.5987 30.4356 23.5059 30.4356 23.3972C30.4356 23.2884 30.3972 23.1956 30.3203 23.1187C30.2434 23.0418 30.1505 23.0033 30.0418 23.0033C29.933 23.0033 29.8402 23.0418 29.7633 23.1187C29.6864 23.1956 29.648 23.2884 29.648 23.3972ZM29.648 23.3972C29.648 23.5059 29.6864 23.5987 29.7633 23.6756C29.8402 23.7525 29.933 23.791 30.0418 23.791C30.1505 23.791 30.2434 23.7525 30.3203 23.6756C30.3972 23.5987 30.4356 23.5059 30.4356 23.3972C30.4356 23.2884 30.3972 23.1956 30.3203 23.1187C30.2434 23.0418 30.1505 23.0033 30.0418 23.0033C29.933 23.0033 29.8402 23.0418 29.7633 23.1187C29.6864 23.1956 29.648 23.2884 29.648 23.3972ZM29.5667 23.4097C29.5667 23.5374 29.6118 23.6464 29.7022 23.7368C29.7925 23.8271 29.9015 23.8722 30.0293 23.8722C30.157 23.8722 30.2661 23.8271 30.3564 23.7368C30.4467 23.6464 30.4919 23.5374 30.4919 23.4097C30.4919 23.2819 30.4467 23.1729 30.3564 23.0826C30.2661 22.9922 30.157 22.9471 30.0293 22.9471C29.9015 22.9471 29.7925 22.9922 29.7022 23.0826C29.6118 23.1729 29.5667 23.2819 29.5667 23.4097ZM29.3854 23.4534C29.3854 23.6243 29.4458 23.7702 29.5667 23.891C29.6875 24.0119 29.8334 24.0723 30.0043 24.0723C30.1752 24.0723 30.321 24.0119 30.4419 23.891C30.5627 23.7702 30.6231 23.6243 30.6231 23.4534C30.6231 23.2825 30.5627 23.1367 30.4419 23.0158C30.321 22.895 30.1752 22.8345 30.0043 22.8345C29.8334 22.8345 29.6875 22.895 29.5667 23.0158C29.4458 23.1367 29.3854 23.2825 29.3854 23.4534ZM29.3541 23.1909L29.2916 23.3034C29.2234 23.4281 29.1921 23.5614 29.1979 23.7035L29.2041 23.891C29.2065 23.986 29.2253 24.0777 29.2604 24.1661L29.3541 24.4036C29.376 24.4564 29.4031 24.5065 29.4354 24.5536L29.6355 24.8474C29.6562 24.8803 29.6791 24.9116 29.7042 24.9412L30.0105 25.285C30.0412 25.3191 30.0746 25.3503 30.1105 25.3788L30.5419 25.7226C30.5695 25.7455 30.5987 25.7664 30.6294 25.7851L31.117 26.0727C31.1566 26.096 31.1983 26.1147 31.242 26.1289L31.7046 26.2727C31.7108 26.2749 31.717 26.277 31.7233 26.279L32.0609 26.3727L32.2672 26.5228C32.4028 26.5933 32.5147 26.5661 32.6028 26.4412C32.691 26.3164 32.6791 26.2018 32.5673 26.0977L32.3735 25.9539L32.2109 25.6726L31.9984 25.2475C31.9855 25.2215 31.971 25.1965 31.9546 25.1725L31.6296 24.7037C31.6215 24.693 31.6132 24.6826 31.6046 24.6724L31.2733 24.2411C31.2631 24.2304 31.2527 24.2199 31.242 24.2098L30.967 23.8847L30.8107 23.6597L30.7294 23.5222L30.6919 23.4159L30.6544 23.3096C30.5562 23.0149 30.3525 22.8534 30.0431 22.8252C29.7337 22.7969 29.5041 22.9188 29.3541 23.1909Z" fill="black"/>
<path d="M31.4296 21.6155C31.4296 21.7243 31.468 21.8171 31.5449 21.894C31.6218 21.9709 31.7146 22.0094 31.8234 22.0094C31.9321 22.0094 32.025 21.9709 32.1019 21.894C32.1788 21.8171 32.2172 21.7243 32.2172 21.6155C32.2172 21.5068 32.1788 21.414 32.1019 21.3371C32.025 21.2602 31.9321 21.2217 31.8234 21.2217C31.7146 21.2217 31.6218 21.2602 31.5449 21.3371C31.468 21.414 31.4296 21.5068 31.4296 21.6155ZM31.3295 21.628C31.3295 21.7644 31.3778 21.8808 31.4742 21.9772C31.5706 22.0737 31.687 22.1219 31.8234 22.1219C31.9598 22.1219 32.0762 22.0737 32.1726 21.9772C32.269 21.8808 32.3172 21.7644 32.3172 21.628C32.3172 21.4917 32.269 21.3753 32.1726 21.2788C32.0762 21.1824 31.9598 21.1342 31.8234 21.1342C31.687 21.1342 31.5706 21.1824 31.4742 21.2788C31.3778 21.3753 31.3295 21.4917 31.3295 21.628ZM31.217 21.4718L31.192 21.5468C31.14 21.6961 31.1379 21.8461 31.1858 21.9969L31.2483 22.1906C31.2718 22.2622 31.3051 22.3289 31.3483 22.3907L31.5358 22.6595C31.5636 22.6999 31.5948 22.7374 31.6296 22.772L31.9297 23.0596C32.0343 23.1591 32.1572 23.2237 32.2985 23.2533L32.7673 23.3596C32.8106 23.369 32.8543 23.3732 32.8986 23.3721L33.3487 23.3659L33.7675 23.5597C33.9216 23.6343 34.036 23.5946 34.1109 23.4407C34.1858 23.2868 34.1463 23.1722 33.9925 23.0971L33.5862 22.9033L33.3612 22.5282L33.1174 22.1156C33.0917 22.0754 33.0626 22.0379 33.0299 22.0031L32.7673 21.7031L32.5735 21.4655C32.5505 21.4366 32.5255 21.4095 32.4985 21.3842L32.3485 21.253C32.2926 21.2013 32.2301 21.1596 32.1609 21.1279L32.0859 21.0904C31.9132 21.0144 31.7405 21.0142 31.5677 21.0901C31.3948 21.1659 31.278 21.2931 31.217 21.4718Z" fill="black"/>
<path d="M4.26743 12.1631L4.29243 12.1568C4.4008 12.1232 4.48206 12.0565 4.53623 11.9568L4.58624 11.8755L4.69251 11.7317L4.98632 11.4504L5.63644 10.9503L6.72415 10.1877L8.18067 9.20625L9.91225 8.13104L11.7564 7.08709L13.5067 6.0869L15.0507 5.55555C15.2131 5.5013 15.2672 5.39296 15.2131 5.23055C15.159 5.06813 15.0507 5.01393 14.8882 5.06796L13.3254 5.61181L11.3688 6.14941C11.3384 6.15916 11.3093 6.17166 11.2813 6.18692L9.3684 7.11835C9.3512 7.12791 9.33453 7.13833 9.31839 7.1496L7.56181 8.22481C7.5533 8.23084 7.54497 8.23709 7.5368 8.24356L6.07402 9.25C6.06119 9.25784 6.04869 9.26618 6.03652 9.27501L4.99257 10.1252C4.97943 10.137 4.96693 10.1495 4.95506 10.1627L4.34869 10.7565C4.33529 10.7704 4.32279 10.7849 4.31119 10.8003L4.02363 11.1629C4.01209 11.1788 4.00167 11.1955 3.99238 11.2129L3.86735 11.4192C3.85522 11.4391 3.8448 11.46 3.8361 11.4817L3.78609 11.6005C3.74562 11.6997 3.74354 11.7997 3.77984 11.9005L3.79234 11.9255C3.8762 12.1537 4.03457 12.2329 4.26743 12.1631Z" fill="black"/>
<path d="M13.2254 5.84934C13.2254 5.94946 13.2608 6.03492 13.3315 6.10571C13.4023 6.17651 13.4878 6.21191 13.5879 6.21191C13.688 6.21191 13.7735 6.17651 13.8443 6.10571C13.9151 6.03492 13.9505 5.94946 13.9505 5.84934C13.9505 5.74922 13.9151 5.66376 13.8443 5.59296C13.7735 5.52217 13.688 5.48677 13.5879 5.48677C13.4878 5.48677 13.4023 5.52217 13.3315 5.59296C13.2608 5.66376 13.2254 5.74922 13.2254 5.84934ZM13.7129 6.22441L13.7942 6.20566L14.0255 6.13689L14.4506 6.05563L15.0945 5.98061H15.9321L16.9761 6.13064L18.2201 6.44945L19.6703 6.86203L21.2144 7.31212C21.2164 7.31423 21.2185 7.31631 21.2206 7.31837L22.7272 7.71845C22.7396 7.72116 22.7521 7.72325 22.7647 7.7247L24.0462 7.91223L24.9713 8.12477C25.1339 8.16228 25.2339 8.09977 25.2714 7.93724C25.3089 7.77471 25.2464 7.67469 25.0839 7.63718L24.1587 7.43089L22.946 6.99956C22.9377 6.99719 22.9294 6.9951 22.9209 6.99331L21.4269 6.58698L19.8954 6.11814L18.4701 5.63055C18.4598 5.62807 18.4493 5.62599 18.4388 5.6243L17.1636 5.29298C17.1492 5.28805 17.1347 5.28388 17.1198 5.28048L16.0259 5.1242C16.0031 5.12028 15.9802 5.11819 15.9571 5.11795L15.0632 5.13045C15.0464 5.13155 15.0297 5.13363 15.0132 5.1367L14.3318 5.23047C14.3171 5.23178 14.3025 5.23387 14.2881 5.23672L13.838 5.34924C13.8275 5.35092 13.8171 5.353 13.8067 5.3555L13.5567 5.43676C13.5417 5.44214 13.5271 5.44839 13.5129 5.45551L13.4316 5.49302C13.2199 5.60012 13.1567 5.76438 13.2418 5.98581C13.327 6.20724 13.484 6.28677 13.7129 6.22441Z" fill="black"/>
<path d="M20.8643 6.86202V6.88077C20.8665 6.92367 20.8748 6.96535 20.8893 7.0058L20.9268 7.11832C20.9677 7.24546 21.0427 7.34757 21.1518 7.42462L21.4956 7.66217C21.5274 7.68374 21.5607 7.70249 21.5957 7.71843L22.2395 8.03099C22.2457 8.03526 22.252 8.03943 22.2583 8.04349L23.171 8.44357L24.2649 8.95617L25.3401 9.56878L26.2966 10.2252L27.078 10.8378L27.6343 11.3754L27.8969 11.8692C27.9831 11.9938 28.0932 12.0208 28.2272 11.95C28.3613 11.8793 28.4012 11.7732 28.3469 11.6317L28.0719 11.1066L27.7468 10.3502C27.7381 10.3285 27.7277 10.3076 27.7156 10.2877L27.1405 9.41875C27.1123 9.37477 27.079 9.33518 27.0404 9.29998L26.1403 8.49983C26.1113 8.47201 26.08 8.447 26.0465 8.42482L24.94 7.75594C24.9218 7.74464 24.903 7.73422 24.8838 7.72468L23.7648 7.18083C23.7545 7.17641 23.7441 7.17224 23.7336 7.16833L22.8209 6.76825L22.1645 6.4807C22.1243 6.46204 22.0826 6.44745 22.0395 6.43694L21.6269 6.34317C21.4515 6.30447 21.2911 6.33781 21.1456 6.44319L21.0456 6.51195C20.9861 6.55463 20.9403 6.60881 20.908 6.67448L20.9018 6.68698C20.8752 6.74231 20.8627 6.80065 20.8643 6.86202Z" fill="black"/>
<path d="M27.0405 10.7565C27.0385 10.7544 27.0364 10.7523 27.0343 10.7503L27.053 10.7753C27.0765 10.6736 27.0619 10.5778 27.0093 10.4877L26.9968 10.544C26.9701 10.6519 26.9806 10.7561 27.028 10.8565L27.1343 11.0691C27.1481 11.0999 27.1648 11.129 27.1843 11.1566L27.4468 11.5004C27.4529 11.5068 27.4592 11.5131 27.4656 11.5192L27.8657 12.0005C27.8697 12.0069 27.8739 12.0131 27.8782 12.0193L28.3783 12.5694C28.3803 12.5715 28.3824 12.5736 28.3845 12.5756L28.8596 13.0695L29.1534 13.5383C29.2431 13.6704 29.3559 13.6944 29.4917 13.6106C29.6275 13.5267 29.6564 13.4151 29.5785 13.2757L29.2847 12.8007L29.0284 12.163C29.0247 12.1524 29.0205 12.142 29.0159 12.1318L28.6783 11.4692C28.6708 11.4541 28.6624 11.4395 28.6533 11.4254L28.322 10.9003C28.3105 10.8829 28.298 10.8662 28.2845 10.8503L28.0095 10.5065C27.985 10.4786 27.9579 10.4536 27.9282 10.4315L27.7469 10.2814C27.6533 10.2076 27.5471 10.1742 27.4281 10.1814H27.3906H27.3781C27.2313 10.1736 27.1187 10.2319 27.0405 10.3564C26.9544 10.4898 26.9544 10.6232 27.0405 10.7565Z" fill="black"/>
</g>
<defs>
<clipPath id="clip0_1_7218">
<rect width="35" height="34" fill="white"/>
</clipPath>
</defs>
</svg>
