<svg width="33" height="39" viewBox="0 0 33 39" fill="none" xmlns="http://www.w3.org/2000/svg">
<g clip-path="url(#clip0_1_7356)">
<path d="M15.117 7.02691C15.1171 7.14526 15.1591 7.24626 15.2428 7.32989C15.3266 7.41352 15.4276 7.45533 15.546 7.45533C15.6643 7.45533 15.7654 7.41352 15.8491 7.32989C15.9329 7.24626 15.9748 7.14526 15.975 7.02691C15.9748 6.90856 15.9329 6.80757 15.8491 6.72394C15.7654 6.6403 15.6643 6.59849 15.546 6.59849C15.4276 6.59849 15.3266 6.6403 15.2428 6.72394C15.1591 6.80757 15.1171 6.90856 15.117 7.02691ZM15.7882 7.43517L15.802 7.42133C15.8817 7.37767 15.9463 7.3177 15.9957 7.24142L16.0096 7.21374C16.0988 7.07416 16.1238 6.92389 16.0846 6.76292C16.0454 6.60195 15.954 6.48005 15.8105 6.39722C15.667 6.31438 15.5158 6.29622 15.3567 6.34272C15.1977 6.38923 15.0801 6.48603 15.0039 6.63313C14.9276 6.78022 14.9163 6.93214 14.97 7.08889C15.0237 7.24564 15.1257 7.35875 15.2761 7.42825L15.3038 7.44209C15.3417 7.4581 15.3809 7.46963 15.4214 7.47668L15.4353 7.4836C15.5591 7.51248 15.6767 7.49634 15.7882 7.43517ZM15.539 6.20348H15.4491C15.3076 6.19497 15.1761 6.22726 15.0547 6.30036L14.2589 6.79856L13.567 7.22758C13.5623 7.22983 13.5577 7.23214 13.5531 7.2345L12.8266 7.71195C12.8148 7.71847 12.8033 7.72539 12.792 7.73271L12.1623 8.20324L11.6918 8.5423L11.4081 8.71529C11.4899 8.71564 11.566 8.69488 11.6364 8.65301H11.5465C11.3227 8.75555 11.2375 8.92697 11.2909 9.16727C11.3443 9.40757 11.494 9.52678 11.7402 9.52488L11.8924 9.45568C11.8971 9.45344 11.9017 9.45114 11.9063 9.44876L12.1761 9.31729C12.1902 9.31089 12.2041 9.30397 12.2177 9.29653L12.4737 9.15122C12.2624 9.05656 12.0571 9.06809 11.8578 9.18582L11.8786 9.19274C11.9708 9.1182 12.0391 9.02594 12.0834 8.91595C12.1277 8.80597 12.1425 8.69215 12.1277 8.5745C12.1129 8.45685 12.0704 8.35023 12.0002 8.25463C11.9301 8.15904 11.8411 8.08655 11.7333 8.03717L11.4357 8.27935L10.8476 8.70837C10.8429 8.71291 10.8383 8.71752 10.8337 8.72221L10.1141 9.28269L9.35295 9.8155L8.66099 10.2653C8.65866 10.2676 8.65635 10.2699 8.65407 10.2722L8.11434 10.6458C8.10242 10.6546 8.09089 10.6638 8.07974 10.6735L7.75452 10.9365C7.71799 10.9645 7.6857 10.9968 7.65765 11.0333L7.56078 11.1717C7.4202 11.3654 7.41328 11.5638 7.54002 11.7668L7.58845 11.8429L7.65765 11.9537C7.68196 11.8049 7.65428 11.6665 7.57462 11.5385L7.55386 11.6699L7.41547 11.9329L7.17328 12.3757C7.16597 12.387 7.15905 12.3986 7.15252 12.4103L6.93109 12.8532C6.91621 12.8867 6.90468 12.9213 6.8965 12.957L6.79962 13.3237C6.78503 13.3758 6.77811 13.4288 6.77886 13.4829L6.78578 13.732C6.78573 13.7366 6.78573 13.7412 6.78578 13.7458L6.7927 13.9188C6.79634 13.9954 6.81248 14.0692 6.84114 14.1402L6.88958 14.2648L6.93109 14.4032C6.93108 14.4055 6.93108 14.4078 6.93109 14.4101L6.97953 14.5831C7.06403 14.869 7.25317 15.0374 7.54694 15.0882L7.76144 15.1297C8.11967 15.1942 8.37339 15.0604 8.5226 14.7284L8.58487 14.5969L8.93777 14.4793C9.14507 14.41 9.21416 14.2716 9.14504 14.0642C9.07591 13.8569 8.93763 13.7876 8.73018 13.8565L8.41188 13.9672L8.33577 13.8981C8.26963 13.8429 8.19583 13.8014 8.11434 13.7735L7.89984 13.7043C7.96733 13.9502 8.12187 14.114 8.36345 14.1956L8.31501 14.0226C8.31113 14.004 8.30652 13.9855 8.30117 13.9672L8.2389 13.7943C8.20469 13.7031 8.15395 13.6224 8.08666 13.5521L7.96903 13.4206C7.91848 13.3674 7.86082 13.3236 7.79604 13.2891L7.64381 13.2061C7.68126 13.3841 7.78044 13.5156 7.94135 13.6005L7.91367 13.4967L7.96211 13.3376L8.18354 12.9847L8.46724 12.5557C8.47741 12.5377 8.48663 12.5192 8.49492 12.5003L8.68175 12.1336C8.71914 12.0642 8.7422 11.9904 8.75094 11.9121L8.7717 11.6907C8.7991 11.4007 8.67916 11.1977 8.41188 11.0818L8.28733 11.0333C8.28052 11.0286 8.2736 11.024 8.26657 11.0195L8.17662 10.9849C8.08057 11.1267 8.05813 11.2794 8.10931 11.4428C8.16048 11.6063 8.26595 11.7189 8.42572 11.7807L8.48108 11.7045L8.73018 11.5039L9.24223 11.1441L9.92727 10.7012L10.7299 10.2376L11.5395 9.80858C11.5561 9.80005 11.5722 9.79082 11.588 9.7809L12.2107 9.37957C12.2273 9.37101 12.2434 9.36178 12.2592 9.35189L12.5706 9.11662C12.7063 9.01067 12.7902 8.87308 12.8222 8.70387C12.8542 8.53466 12.8263 8.37595 12.7386 8.22774C12.6509 8.07954 12.5252 7.97873 12.3615 7.92533C12.1978 7.87192 12.0368 7.87922 11.8786 7.94721L11.8578 7.95413C11.7625 7.99752 11.6818 8.0598 11.6156 8.14096L11.4288 8.36931C11.4139 8.38698 11.4001 8.40543 11.3873 8.42467L11.2212 8.68069C11.1974 8.71983 11.179 8.76135 11.1659 8.80524L11.1105 8.96439C11.0498 9.1426 11.0857 9.29866 11.218 9.43257C11.3503 9.56648 11.5059 9.60417 11.6848 9.54564L11.7679 9.51796C11.8042 9.50852 11.8388 9.49468 11.8717 9.47644L12.1554 9.30345L12.6605 9.04051L13.3732 8.74297C13.3779 8.74072 13.3825 8.73841 13.3871 8.73605L14.1828 8.37623C14.1921 8.37183 14.2014 8.36722 14.2105 8.36239L14.937 7.98873C14.9511 7.98228 14.965 7.97536 14.9786 7.96797L15.7743 7.47668C15.7837 7.47 15.7929 7.46308 15.802 7.45592L15.885 7.40057C16.1439 7.22121 16.2296 6.98026 16.1422 6.67771C16.0547 6.37516 15.8537 6.21708 15.539 6.20348Z" fill="black"/>
<path d="M25.6607 24.1622C25.6607 24.2539 25.6931 24.3322 25.758 24.3971C25.8228 24.4619 25.9011 24.4943 25.9928 24.4943C26.0846 24.4943 26.1628 24.4619 26.2277 24.3971C26.2926 24.3322 26.325 24.2539 26.325 24.1622C26.325 24.0705 26.2926 23.9922 26.2277 23.9273C26.1628 23.8625 26.0846 23.8301 25.9928 23.8301C25.9011 23.8301 25.8228 23.8625 25.758 23.9273C25.6931 23.9922 25.6607 24.0705 25.6607 24.1622ZM25.5707 24.093L25.55 24.1899L25.5015 24.4251C25.5015 24.4274 25.5015 24.4298 25.5015 24.4321L25.4393 24.778C25.4367 24.7872 25.4344 24.7964 25.4324 24.8057L25.3908 25.1725C25.3855 25.2022 25.3832 25.2322 25.3839 25.2624L25.4116 25.5876C25.4174 25.657 25.4381 25.7216 25.4739 25.7814L25.5984 25.989C25.6639 26.1029 25.7608 26.1744 25.889 26.2035L26.1036 26.2519C26.1886 26.269 26.2716 26.2621 26.3527 26.2312L26.6225 26.1343C26.6592 26.1226 26.6938 26.1064 26.7263 26.0858L26.9893 25.9059L27.1276 25.816L27.1622 25.8091C27.0503 25.6736 26.9073 25.6182 26.7332 25.643L26.7748 25.6983L26.8301 25.816C26.8378 25.8374 26.847 25.8582 26.8578 25.8783L26.9616 26.0374C26.9796 26.065 27.0004 26.0904 27.0239 26.1135L27.1553 26.245C27.1727 26.2602 27.1912 26.274 27.2107 26.2865L27.3422 26.3834C27.3596 26.3986 27.3781 26.4124 27.3975 26.4249L27.529 26.4941C27.6383 26.5534 27.7536 26.5696 27.875 26.5425L28.0341 26.501C28.1076 26.4857 28.1745 26.4558 28.2348 26.4111L28.4354 26.2519C28.4425 26.2475 28.4494 26.2428 28.4562 26.2381L28.6846 26.0443C28.6964 26.0355 28.708 26.0263 28.7192 26.0166L28.8783 25.8506L28.9198 25.8229L28.9267 25.816C28.7759 25.7609 28.626 25.7633 28.477 25.8229L28.5254 25.8367C28.8265 25.9509 29.0825 25.8863 29.2935 25.643L29.3765 25.5392C29.4678 25.4354 29.5254 25.3155 29.5495 25.1794L29.591 24.9164C29.6002 24.8684 29.6048 24.82 29.6049 24.7711L29.5979 24.3213C29.5965 24.3005 29.5942 24.2797 29.591 24.2591L29.5287 23.6086C29.5258 23.5807 29.5211 23.553 29.5149 23.5256L29.3558 22.7852L29.3419 22.0448L29.4734 21.4151C29.5074 21.2309 29.4329 21.1187 29.2499 21.0785C29.0669 21.0384 28.9523 21.1091 28.906 21.2906L28.7745 21.9341L28.4908 22.6606L28.1587 23.3664C28.1213 23.4431 28.0982 23.5238 28.0895 23.6086L28.0272 24.2591C28.0223 24.2958 28.02 24.3327 28.0203 24.3698L28.041 24.8196C28.0427 24.8381 28.045 24.8565 28.048 24.8749L28.0756 25.1033V25.1379V25.1448C28.2079 25.0373 28.2841 24.8989 28.304 24.7296L28.2209 24.7988C28.2064 24.812 28.1926 24.8258 28.1794 24.8403L28.048 24.9579C28.0169 24.9873 27.9892 25.0196 27.9649 25.0548L27.8196 25.2693C27.8123 25.2806 27.8054 25.2922 27.7988 25.3039L27.6812 25.5115L27.6259 25.5669L27.7158 25.5323L27.7919 25.5461L27.7712 25.5392L27.7227 25.4838L27.6674 25.4008L27.6051 25.2624C27.5888 25.2251 27.5681 25.1905 27.5428 25.1586L27.4598 25.0548C27.3309 24.8943 27.1671 24.8412 26.9685 24.8957L26.8439 24.9303C26.789 24.944 26.7382 24.9671 26.6917 24.9995L26.4772 25.1586L26.2627 25.3108L26.1727 25.3385L26.2696 25.3593L26.2973 25.4077L26.2835 25.2347L26.3181 24.9164L26.3665 24.5705L26.3942 24.3283C26.3967 24.3214 26.399 24.3145 26.4011 24.3075L26.408 24.2037C26.4233 24.0881 26.3954 23.9841 26.3245 23.8916C26.2535 23.7991 26.1603 23.7452 26.0447 23.7299C25.9291 23.7146 25.8251 23.7424 25.7325 23.8133C25.64 23.8842 25.5861 23.9774 25.5707 24.093Z" fill="black"/>
<path d="M8.34927 17.1314L8.34235 17.1453C8.3496 17.1363 8.35652 17.1271 8.3631 17.1176L8.29391 17.1799C8.24108 17.2294 8.19956 17.2871 8.16936 17.3529L8.05172 17.6158C8.03483 17.6492 8.02099 17.6838 8.01021 17.7196L7.85798 18.2939C7.85798 18.2962 7.85798 18.2985 7.85798 18.3008L7.63655 19.1658L7.38052 20.2037C7.37538 20.2197 7.37076 20.2359 7.36669 20.2522L7.15218 21.4077C7.14961 21.4192 7.1473 21.4307 7.14526 21.4423L6.99303 22.6187C6.99046 22.6301 6.98815 22.6417 6.98611 22.6533L6.88923 23.7811C6.88914 23.7881 6.88914 23.795 6.88923 23.8019L6.83388 24.8191C6.83384 24.8237 6.83384 24.8283 6.83388 24.8329L6.79928 25.7117C6.79911 25.7209 6.79911 25.7302 6.79928 25.7394V26.4798C6.79927 26.4821 6.79927 26.4844 6.79928 26.4867L6.8062 27.0818V27.5454C6.80619 27.5477 6.80619 27.55 6.8062 27.5523V27.8845C6.80619 27.8868 6.80619 27.8891 6.8062 27.8914L6.81312 28.0851C6.81455 28.1463 6.82377 28.2063 6.8408 28.265L6.86848 28.355C6.9126 28.5119 7.00025 28.6388 7.13142 28.7356L7.1591 28.7563C7.43651 28.9612 7.7156 28.9635 7.99637 28.7632L8.03788 28.7286C8.08665 28.695 8.13047 28.6557 8.16936 28.611L8.25239 28.5141L8.32159 28.4311L8.41846 28.3481C8.44086 28.3265 8.46162 28.3034 8.48074 28.2789L8.56377 28.182C8.60064 28.1353 8.63063 28.0846 8.65373 28.0298L8.6814 27.9675C8.73717 27.8457 8.75331 27.7188 8.72984 27.5869L8.72292 27.5523C8.69523 27.4044 8.62373 27.2822 8.50842 27.1856L8.48766 27.1717C8.43397 27.1246 8.374 27.0877 8.30775 27.061L8.26623 27.0472C8.13696 26.9984 8.00549 26.9915 7.87181 27.0264L7.7611 27.061C7.74478 27.065 7.72863 27.0696 7.71266 27.0749L7.53967 27.1302C7.53034 27.1346 7.52112 27.1392 7.512 27.1441L7.31825 27.2202L7.04838 27.2894C7.04608 27.2894 7.04377 27.2894 7.04147 27.2894L6.66781 27.3793C6.66549 27.3816 6.66318 27.3839 6.66089 27.3862L6.19728 27.5108C6.18569 27.5128 6.17416 27.5151 6.16268 27.5177L4.95175 27.8983C4.94945 27.8983 4.94714 27.8983 4.94483 27.8983L4.27363 28.1128L3.61627 28.3065L2.96583 28.4795C2.95425 28.4816 2.94272 28.4839 2.93124 28.4865L2.30847 28.6802C2.28735 28.6886 2.26659 28.6978 2.2462 28.7079L1.70647 28.9224C1.53785 28.9878 1.40408 29.0962 1.30514 29.2476L1.09063 29.5936C1.03164 29.6841 0.999352 29.7833 0.993755 29.8911L0.986835 29.9534L0.924559 30.0088C0.763103 30.1425 0.749263 30.2902 0.883042 30.4516C1.01682 30.6131 1.16444 30.6269 1.32589 30.4931L1.35357 30.4724C1.41986 30.501 1.48906 30.5171 1.56116 30.5208L1.96942 30.5485C2.0782 30.5552 2.1843 30.5414 2.28772 30.507L2.82744 30.3201L3.42945 30.1333L4.07297 29.9534C4.08455 29.9513 4.09608 29.949 4.10756 29.9465L4.77876 29.732C4.79272 29.7277 4.80656 29.7231 4.82028 29.7181L5.49148 29.4621C5.50544 29.4579 5.51928 29.4533 5.533 29.4483L6.69549 28.9432L7.13834 28.7494L7.49124 28.5972C7.50057 28.5928 7.50979 28.5882 7.51892 28.5833L7.7957 28.4519L8.00329 28.3619L8.15552 28.3065L8.25931 28.265C8.26162 28.265 8.26392 28.265 8.26623 28.265L8.30775 28.2512C8.14221 28.1635 7.97153 28.152 7.7957 28.2166L7.81646 28.2235C7.91708 28.0682 7.94397 27.9009 7.89714 27.7219C7.85031 27.5428 7.74499 27.4102 7.58119 27.324L7.56735 27.3516C7.61263 27.3132 7.65184 27.2694 7.68499 27.2202L7.62963 27.2617C7.60748 27.2811 7.58672 27.3018 7.56735 27.324L7.512 27.3932L7.46356 27.4278L7.38052 27.4762C7.3782 27.4785 7.37589 27.4808 7.3736 27.4831L7.29749 27.5246L7.29057 27.5316C7.49016 27.6274 7.69083 27.6297 7.89257 27.5385L7.85798 27.5246C7.92011 27.7131 8.04005 27.8515 8.21779 27.9398L8.19011 27.8499C8.18824 27.9303 8.19978 28.0087 8.22471 28.0851L8.23163 27.9052L8.24547 27.58C8.24554 27.5754 8.24554 27.5708 8.24547 27.5662L8.25931 27.1025C8.25938 27.0979 8.25938 27.0933 8.25931 27.0887L8.26623 26.4867L8.28007 25.7601L8.31467 24.9021L8.38386 23.9126L8.51534 22.8193L8.6814 21.6638L8.86131 20.5151C8.86131 20.5128 8.86131 20.5105 8.86131 20.5082L9.0343 19.4495L9.17269 18.5707C9.17276 18.5661 9.17276 18.5615 9.17269 18.5569L9.25573 17.9756C9.26241 17.9226 9.26241 17.8695 9.25573 17.8165L9.22805 17.5258C9.21744 17.4379 9.18746 17.3572 9.1381 17.2837L9.08966 17.2075C9.07303 17.1852 9.05457 17.1644 9.0343 17.1453L9.02738 17.1314C8.93573 17.0332 8.82271 16.984 8.68832 16.984C8.55394 16.984 8.44092 17.0332 8.34927 17.1314Z" fill="black"/>
<path d="M16.1131 30.0434C16.1131 30.1504 16.1509 30.2417 16.2266 30.3174C16.3022 30.393 16.3936 30.4309 16.5006 30.4309C16.6076 30.4309 16.6989 30.393 16.7746 30.3174C16.8502 30.2417 16.8881 30.1504 16.8881 30.0434C16.8881 29.9364 16.8502 29.845 16.7746 29.7694C16.6989 29.6937 16.6076 29.6559 16.5006 29.6559C16.3936 29.6559 16.3022 29.6937 16.2266 29.7694C16.1509 29.845 16.1131 29.9364 16.1131 30.0434ZM16.0508 30.0364C16.0508 30.1606 16.0947 30.2667 16.1825 30.3545C16.2704 30.4423 16.3764 30.4862 16.5006 30.4862C16.6248 30.4862 16.7308 30.4423 16.8186 30.3545C16.9064 30.2667 16.9504 30.1606 16.9504 30.0364C16.9504 29.9122 16.9064 29.8062 16.8186 29.7184C16.7308 29.6306 16.6248 29.5867 16.5006 29.5867C16.3764 29.5867 16.2704 29.6306 16.1825 29.7184C16.0947 29.8062 16.0508 29.9122 16.0508 30.0364ZM16.03 30.0157C16.03 30.1456 16.076 30.2565 16.1679 30.3484C16.2597 30.4403 16.3706 30.4862 16.5006 30.4862C16.6305 30.4862 16.7414 30.4403 16.8333 30.3484C16.9252 30.2565 16.9711 30.1456 16.9711 30.0157C16.9711 29.8858 16.9252 29.7748 16.8333 29.683C16.7414 29.5911 16.6305 29.5452 16.5006 29.5452C16.3706 29.5452 16.2597 29.5911 16.1679 29.683C16.076 29.7748 16.03 29.8858 16.03 30.0157ZM15.9263 30.0157C15.9263 30.1705 15.981 30.3026 16.0904 30.412C16.1999 30.5215 16.332 30.5762 16.4867 30.5762C16.6415 30.5762 16.7736 30.5215 16.8831 30.412C16.9925 30.3026 17.0472 30.1705 17.0472 30.0157C17.0472 29.8609 16.9925 29.7288 16.8831 29.6194C16.7736 29.5099 16.6415 29.4552 16.4867 29.4552C16.332 29.4552 16.1999 29.5099 16.0904 29.6194C15.981 29.7288 15.9263 29.8609 15.9263 30.0157ZM15.8294 30.071C15.8294 30.2545 15.8942 30.4111 16.0239 30.5408C16.1537 30.6705 16.3102 30.7353 16.4937 30.7353C16.6771 30.7353 16.8337 30.6705 16.9634 30.5408C17.0931 30.4111 17.1579 30.2545 17.1579 30.071C17.1579 29.8876 17.0931 29.731 16.9634 29.6013C16.8337 29.4716 16.6771 29.4068 16.4937 29.4068C16.3102 29.4068 16.1537 29.4716 16.0239 29.6013C15.8942 29.731 15.8294 29.8876 15.8294 30.071ZM15.7463 30.0849L15.7187 30.2648C15.7118 30.3294 15.7118 30.394 15.7187 30.4585L15.7463 30.8322C15.7481 30.8507 15.7504 30.8692 15.7533 30.8876L15.8225 31.455C15.8247 31.4596 15.827 31.4642 15.8294 31.4688L15.9332 32.223L16.037 33.1018L16.12 34.0844L16.1961 35.0877L16.2584 35.9942C16.2601 36.0127 16.2624 36.0312 16.2653 36.0496L16.3622 36.7415C16.369 36.8009 16.3828 36.8585 16.4037 36.9145L16.5629 37.3297C16.643 37.5366 16.7937 37.6481 17.015 37.6642C17.2362 37.6804 17.4015 37.5919 17.5108 37.3989L17.7323 37.0045C17.7669 36.9435 17.7923 36.8789 17.8084 36.8107L17.9675 36.1326C17.9737 36.1029 17.9783 36.0729 17.9814 36.0426L18.099 35.1431C18.1023 35.1178 18.1046 35.0924 18.1059 35.067L18.1544 34.0498C18.1564 34.0129 18.1564 33.976 18.1544 33.9391L18.0921 32.9288C18.0902 32.9126 18.0878 32.8965 18.0852 32.8804L17.9814 31.9739C17.9794 31.9577 17.9771 31.9416 17.9744 31.9255L17.8499 31.1574C17.8443 31.1271 17.8374 31.0971 17.8291 31.0675L17.6838 30.507C17.6662 30.4349 17.6409 30.3657 17.6077 30.2994L17.4347 29.9742C17.3729 29.8511 17.2875 29.7473 17.1787 29.6628L17.0265 29.5521C16.9127 29.4659 16.785 29.4138 16.6434 29.3957C16.5019 29.3777 16.3652 29.396 16.2334 29.4509C16.1016 29.5057 15.9923 29.5898 15.9053 29.7029C15.8184 29.8161 15.7654 29.9434 15.7463 30.0849ZM16.7981 37.3712L16.7774 37.4888C16.776 37.6256 16.8427 37.7059 16.9774 37.7297C17.1122 37.7535 17.2023 37.7009 17.2479 37.5719L17.2687 37.4542C17.27 37.3174 17.2033 37.2371 17.0686 37.2134C16.9338 37.1896 16.8437 37.2422 16.7981 37.3712Z" fill="black"/>
<path d="M0.730812 30.244C0.730812 30.3586 0.771346 30.4565 0.852414 30.5376C0.933482 30.6186 1.03134 30.6592 1.14599 30.6592C1.26063 30.6592 1.35849 30.6186 1.43956 30.5376C1.52063 30.4565 1.56116 30.3586 1.56116 30.244C1.56116 30.1293 1.52063 30.0315 1.43956 29.9504C1.35849 29.8693 1.26063 29.8288 1.14599 29.8288C1.03134 29.8288 0.933482 29.8693 0.852414 29.9504C0.771346 30.0315 0.730812 30.1293 0.730812 30.244ZM0.668536 30.2647C0.668536 30.3966 0.71515 30.5091 0.808378 30.6024C0.901606 30.6956 1.01414 30.7422 1.14599 30.7422C1.27783 30.7422 1.39037 30.6956 1.4836 30.6024C1.57682 30.5091 1.62344 30.3966 1.62344 30.2647C1.62344 30.1329 1.57682 30.0204 1.4836 29.9271C1.39037 29.8339 1.27783 29.7873 1.14599 29.7873C1.01414 29.7873 0.901606 29.8339 0.808378 29.9271C0.71515 30.0204 0.668536 30.1329 0.668536 30.2647ZM0.571662 30.3132C0.571662 30.4699 0.627058 30.6036 0.737851 30.7144C0.848644 30.8252 0.982383 30.8806 1.13907 30.8806C1.29575 30.8806 1.42949 30.8252 1.54028 30.7144C1.65108 30.6036 1.70647 30.4699 1.70647 30.3132C1.70647 30.1565 1.65108 30.0228 1.54028 29.912C1.42949 29.8012 1.29575 29.7458 1.13907 29.7458C0.982383 29.7458 0.848644 29.8012 0.737851 29.912C0.627058 30.0228 0.571662 30.1565 0.571662 30.3132ZM0.640858 30.8529L0.744652 30.9775C0.854859 31.1041 0.990945 31.1894 1.15291 31.2335L1.47813 31.3234C1.49414 31.3285 1.51029 31.3331 1.52656 31.3373L1.98326 31.4342L2.5991 31.5864C2.60602 31.5865 2.61294 31.5865 2.61986 31.5864L3.39485 31.7525C3.41774 31.7579 3.44081 31.7625 3.46405 31.7663L4.32899 31.8908C4.33591 31.8909 4.34283 31.8909 4.34975 31.8908L5.2147 31.9946L6.00353 32.1192L6.75085 32.2991L7.52584 32.5274C7.53273 32.5298 7.53965 32.5321 7.5466 32.5344L8.38387 32.7627C8.39309 32.7628 8.40232 32.7628 8.41154 32.7627L9.28341 32.9772L10.1276 33.1986L10.9234 33.427L11.6568 33.683L12.328 33.9944L12.9508 34.3611L13.539 34.804L14.0856 35.3022L14.57 35.835L14.9921 36.3817L15.338 36.9421C15.3425 36.9514 15.3471 36.9607 15.3519 36.9698L15.6909 37.4888C15.7311 37.5491 15.7772 37.6045 15.8293 37.6549L16.1546 37.9662C16.4228 38.2264 16.7318 38.291 17.0818 38.16L17.1925 38.1185C17.3462 38.0605 17.4569 37.9567 17.5246 37.8071L17.5731 37.6964C17.6614 37.4985 17.6752 37.2955 17.6146 37.0875L17.49 36.6515C17.477 36.6066 17.4608 36.5627 17.4416 36.52L17.1856 35.9596C17.167 35.9214 17.1463 35.8845 17.1233 35.8488L16.7496 35.2399C16.7325 35.2114 16.714 35.1837 16.6943 35.1569L16.2168 34.5203C16.1973 34.4939 16.1765 34.4686 16.1546 34.4442L15.601 33.8422C15.579 33.818 15.5559 33.795 15.5318 33.773L14.9159 33.2194C14.8915 33.1975 14.8662 33.1767 14.8398 33.1571L14.1686 32.652C14.1397 32.6297 14.1097 32.6089 14.0787 32.5897L13.359 32.1607C13.3277 32.1405 13.2954 32.1221 13.2622 32.1054L12.4941 31.7525C12.4625 31.737 12.4302 31.7232 12.3972 31.7109L11.5876 31.4272C11.5693 31.4221 11.5509 31.4175 11.5323 31.4134L10.695 31.1712C10.6858 31.1688 10.6766 31.1665 10.6673 31.1643L9.80238 30.9429C9.79778 30.9405 9.79317 30.9382 9.78854 30.9359L8.90975 30.7214C8.90745 30.7214 8.90514 30.7214 8.90283 30.7214L8.05864 30.5208L7.24905 30.327C7.23756 30.3245 7.22603 30.3222 7.21446 30.3201L6.39795 30.154C6.37496 30.1509 6.3519 30.1486 6.32875 30.1471L5.48456 30.0295C5.46847 30.0268 5.45233 30.0245 5.43613 30.0226L4.55734 29.9534L3.69931 29.8703L2.94508 29.7735L2.32232 29.6766C2.3154 29.6765 2.30848 29.6765 2.30156 29.6766L1.83103 29.6074C1.78508 29.6014 1.73895 29.5991 1.69263 29.6005L1.35357 29.6074C1.28526 29.6107 1.21837 29.6222 1.15291 29.642L1.00068 29.6835C0.8814 29.7167 0.777399 29.7764 0.688674 29.8628C0.599949 29.9491 0.537382 30.0515 0.500972 30.1698C0.464563 30.2881 0.458777 30.4079 0.483614 30.5292C0.508452 30.6505 0.560866 30.7584 0.640858 30.8529ZM17.234 37.9109L17.3516 37.8763C17.5174 37.8064 17.5756 37.685 17.5262 37.5121C17.4767 37.3391 17.3632 37.2668 17.1856 37.295L17.0679 37.3296C16.9022 37.3995 16.844 37.5209 16.8934 37.6938C16.9428 37.8668 17.0564 37.9391 17.234 37.9109Z" fill="black"/>
<path d="M16.3622 29.8288C16.3622 29.9473 16.404 30.0484 16.4878 30.1322C16.5716 30.216 16.6727 30.2578 16.7912 30.2578C16.9096 30.2578 17.0108 30.216 17.0945 30.1322C17.1783 30.0484 17.2202 29.9473 17.2202 29.8288C17.2202 29.7104 17.1783 29.6092 17.0945 29.5255C17.0108 29.4417 16.9096 29.3998 16.7912 29.3998C16.6727 29.3998 16.5716 29.4417 16.4878 29.5255C16.404 29.6092 16.3622 29.7104 16.3622 29.8288ZM16.3276 29.8496C16.3276 29.9776 16.3728 30.0869 16.4633 30.1774C16.5539 30.2679 16.6631 30.3132 16.7912 30.3132C16.9192 30.3132 17.0285 30.2679 17.119 30.1774C17.2095 30.0869 17.2548 29.9776 17.2548 29.8496C17.2548 29.7216 17.2095 29.6123 17.119 29.5218C17.0285 29.4312 16.9192 29.386 16.7912 29.386C16.6631 29.386 16.5539 29.4312 16.4633 29.5218C16.3728 29.6123 16.3276 29.7216 16.3276 29.8496ZM16.2791 29.8703C16.2791 30.0194 16.3318 30.1466 16.4372 30.252C16.5426 30.3574 16.6698 30.4101 16.8188 30.4101C16.9679 30.4101 17.0951 30.3574 17.2005 30.252C17.3059 30.1466 17.3586 30.0194 17.3586 29.8703C17.3586 29.7213 17.3059 29.5941 17.2005 29.4887C17.0951 29.3833 16.9679 29.3306 16.8188 29.3306C16.6698 29.3306 16.5426 29.3833 16.4372 29.4887C16.3318 29.5941 16.2791 29.7213 16.2791 29.8703ZM16.722 30.4931L16.8465 30.5277C16.9424 30.5531 17.0393 30.5578 17.1371 30.5415L17.407 30.5C17.4374 30.495 17.4674 30.4881 17.497 30.4793L17.8983 30.3616C17.9146 30.3575 17.9307 30.3529 17.9467 30.3478L18.4657 30.154C18.4892 30.1459 18.5123 30.1367 18.5349 30.1264L19.1923 29.815C19.204 29.8083 19.2155 29.8014 19.2269 29.7942L20.0226 29.3721C20.0342 29.3678 20.0458 29.3632 20.0572 29.3583L20.9775 28.8186L21.9117 28.2719C21.914 28.2696 21.9163 28.2673 21.9186 28.265L22.7974 27.7391C22.8067 27.7347 22.8159 27.7301 22.825 27.7253L23.5516 27.2409C23.568 27.2322 23.5842 27.223 23.6 27.2132L24.2228 26.7427C24.2322 26.736 24.2414 26.729 24.2505 26.7219L24.8248 26.2514C24.8342 26.2424 24.8435 26.2332 24.8525 26.2237L25.3714 25.7601C25.3784 25.7556 25.3853 25.751 25.3922 25.7463L25.8489 25.3103C25.8655 25.2971 25.8817 25.2833 25.8973 25.2688L26.2571 24.8675C26.2849 24.8371 26.3103 24.8048 26.3333 24.7706L26.5685 24.4246C26.6204 24.3483 26.6573 24.2652 26.6792 24.1755L26.7484 23.8918C26.7683 23.807 26.7706 23.7216 26.7554 23.6358L26.7277 23.4628C26.7049 23.3331 26.6393 23.2309 26.5308 23.1563C26.4223 23.0817 26.3034 23.057 26.1741 23.0822L26.0011 23.1168C25.9352 23.13 25.8729 23.1531 25.8143 23.186L25.5583 23.3244C25.5244 23.3428 25.4921 23.3635 25.4614 23.3867L25.1293 23.6496C25.1199 23.6564 25.1107 23.6633 25.1016 23.6704L24.6933 24.0164C24.684 24.0231 24.6747 24.03 24.6656 24.0371L24.202 24.4592L23.7038 24.909L23.1572 25.3588L22.569 25.8086L21.8701 26.2722L21.0259 26.8188L20.1195 27.3862L19.2269 27.919L18.4519 28.3411L17.8222 28.6733L17.3309 28.9154L16.9572 29.1023C16.9502 29.1068 16.9433 29.1114 16.9365 29.1161L16.6943 29.2476C16.6655 29.2618 16.6378 29.2779 16.6113 29.296L16.5075 29.3791C16.2958 29.5364 16.215 29.7445 16.2648 30.0035C16.3147 30.2624 16.4671 30.4256 16.722 30.4931ZM26.617 23.532L26.6723 23.4282C26.7286 23.2676 26.6817 23.1473 26.5316 23.0672C26.3814 22.9871 26.2553 23.0152 26.1534 23.1514L26.098 23.2552C26.0417 23.4158 26.0886 23.5362 26.2388 23.6162C26.3889 23.6963 26.515 23.6682 26.617 23.532Z" fill="black"/>
<path d="M25.1431 7.50629C25.1431 7.62285 25.1843 7.72233 25.2667 7.80475C25.3491 7.88717 25.4486 7.92838 25.5652 7.92838C25.6817 7.92838 25.7812 7.88717 25.8636 7.80475C25.946 7.72233 25.9873 7.62285 25.9873 7.50629C25.9873 7.38973 25.946 7.29024 25.8636 7.20782C25.7812 7.1254 25.6817 7.08419 25.5652 7.08419C25.4486 7.08419 25.3491 7.1254 25.2667 7.20782C25.1843 7.29024 25.1431 7.38973 25.1431 7.50629ZM25.0254 7.49245C25.0254 7.63194 25.0748 7.751 25.1734 7.84963C25.272 7.94826 25.3911 7.99758 25.5306 7.99758C25.6701 7.99758 25.7891 7.94826 25.8877 7.84963C25.9864 7.751 26.0357 7.63194 26.0357 7.49245C26.0357 7.35296 25.9864 7.2339 25.8877 7.13527C25.7891 7.03664 25.6701 6.98732 25.5306 6.98732C25.3911 6.98732 25.272 7.03664 25.1734 7.13527C25.0748 7.2339 25.0254 7.35296 25.0254 7.49245ZM25.7866 6.9112L25.6897 6.85585C25.4444 6.71177 25.1953 6.70485 24.9424 6.83509L24.6864 6.96656C24.5977 7.01021 24.5192 7.06788 24.4511 7.13955L24.1674 7.45785C24.1316 7.49416 24.0993 7.53337 24.0705 7.57548L23.8076 7.99066C23.7925 8.01533 23.7786 8.0407 23.7661 8.06677L23.5516 8.50963C23.5263 8.55614 23.5056 8.60458 23.4893 8.65494L23.3647 9.09779C23.3423 9.17461 23.3308 9.25303 23.3301 9.33306L23.3371 9.76899C23.3369 9.88676 23.3599 9.99978 23.4063 10.108L23.5723 10.4955C23.6163 10.6002 23.6786 10.6924 23.7592 10.7723L24.0359 11.0422C24.1366 11.1403 24.2542 11.2095 24.3888 11.2498L24.7348 11.3536C24.8789 11.3964 25.0242 11.401 25.1707 11.3674L25.5375 11.2913C25.6654 11.2622 25.7807 11.2068 25.8835 11.1252L26.2018 10.8692C26.2885 10.802 26.36 10.7212 26.4163 10.627L26.6515 10.2188C26.6836 10.1616 26.709 10.1017 26.7277 10.0389L26.8799 9.53372C26.8959 9.484 26.9074 9.43326 26.9145 9.38149L26.9837 8.81409C26.9877 8.76565 26.9877 8.71721 26.9837 8.66878L26.9629 8.11521C26.9572 8.02711 26.9388 7.94177 26.9076 7.85919L26.7484 7.41633C26.6919 7.26163 26.5996 7.13247 26.4716 7.02884L26.1741 6.78665C26.035 6.67192 25.8759 6.60503 25.6966 6.58598L25.3091 6.55139C25.1717 6.53693 25.0379 6.55308 24.9078 6.59982L24.4857 6.75897C24.3748 6.79956 24.2756 6.85953 24.1882 6.93888L23.8007 7.28486C23.7321 7.34756 23.6744 7.41907 23.6277 7.49937L23.3232 8.01142C23.2799 8.0853 23.2476 8.16372 23.2263 8.24668L23.0672 8.86252C23.0438 8.95336 23.0345 9.04562 23.0395 9.13931L23.0672 9.72747C23.076 9.87353 23.1175 10.0096 23.1918 10.1357L23.4547 10.5855C23.534 10.7247 23.6424 10.8355 23.7799 10.9176L24.1812 11.1529C24.3223 11.2353 24.4746 11.2768 24.6379 11.2775L25.0946 11.2844C25.2573 11.2855 25.4095 11.2463 25.5513 11.1667L25.9665 10.9315C26.0714 10.873 26.1613 10.7969 26.2364 10.7031L26.5685 10.288C26.64 10.1987 26.6931 10.0995 26.7277 9.99042L26.8799 9.51296C26.9255 9.36762 26.9347 9.22 26.9076 9.07011L26.8314 8.61342C26.7989 8.42404 26.7159 8.26027 26.5823 8.12213L26.271 7.81075C26.1105 7.64242 25.9144 7.54785 25.6828 7.52705L25.233 7.49245C25.0065 7.47525 24.8042 7.53711 24.6261 7.67802C24.448 7.81893 24.3412 8.00157 24.3058 8.22592L24.2989 8.28128L24.1743 8.45427L23.9529 8.6411C23.8326 8.75833 23.8251 8.88233 23.9306 9.0131C24.0361 9.14387 24.1588 9.16288 24.2989 9.07011L24.4857 8.9248L24.7556 8.91096C24.6588 8.77009 24.525 8.7032 24.3542 8.71029L24.4442 8.84868C24.5501 9.00225 24.6908 9.11065 24.8663 9.17391L25.0808 9.25002L25.0462 9.21542L25.0393 9.18774L25.0116 9.28462L24.9078 9.41609L24.8524 9.44377H24.887L24.9147 9.45761L24.8801 9.40225L24.8663 9.18082L24.9562 8.82793L25.1223 8.54422L25.2884 8.39891L25.3507 8.37123L25.2815 8.36431L25.1777 8.2882L25.2053 8.35048L25.2192 8.68262L25.1638 9.10471L25.0739 9.45761L24.977 9.63752L24.9493 9.65828L25.0116 9.63752L25.0877 9.6652V9.65828L25.0531 9.596L25.06 9.45069L25.1292 9.19466L25.2884 8.8556L25.489 8.51655L25.7105 8.23284L25.8835 8.03217C25.918 7.99145 25.948 7.94762 25.9734 7.9007L26.0288 7.80383C26.1156 7.64677 26.1355 7.48165 26.0885 7.30844C26.0416 7.13524 25.9409 7.00283 25.7866 6.9112Z" fill="black"/>
<path d="M19.7666 14.0591C19.7666 14.1794 19.8092 14.2822 19.8943 14.3673C19.9794 14.4524 20.0822 14.495 20.2026 14.495C20.3229 14.495 20.4257 14.4524 20.5108 14.3673C20.5959 14.2822 20.6385 14.1794 20.6385 14.0591C20.6385 13.9387 20.5959 13.8359 20.5108 13.7508C20.4257 13.6657 20.3229 13.6231 20.2026 13.6231C20.0822 13.6231 19.9794 13.6657 19.8943 13.7508C19.8092 13.8359 19.7666 13.9387 19.7666 14.0591ZM19.7182 14.0452C19.7182 14.1752 19.7641 14.2861 19.856 14.3779C19.9479 14.4698 20.0588 14.5158 20.1887 14.5158C20.3187 14.5158 20.4296 14.4698 20.5214 14.3779C20.6133 14.2861 20.6593 14.1752 20.6593 14.0452C20.6593 13.9153 20.6133 13.8044 20.5214 13.7125C20.4296 13.6206 20.3187 13.5747 20.1887 13.5747C20.0588 13.5747 19.9479 13.6206 19.856 13.7125C19.7641 13.8044 19.7182 13.9153 19.7182 14.0452ZM20.3755 13.5263L20.3133 13.4986C20.0418 13.3805 19.7996 13.4243 19.5867 13.63L19.3445 13.8584C19.2985 13.9038 19.2593 13.9546 19.2269 14.0106L18.9155 14.5296C18.9032 14.5475 18.8916 14.566 18.8809 14.585L18.528 15.3115C18.5231 15.3229 18.5185 15.3345 18.5142 15.3461L18.1544 16.1903C18.1496 16.1994 18.1449 16.2086 18.1405 16.218L17.843 17.0206C17.8376 17.0389 17.833 17.0574 17.8291 17.076L17.6354 17.7403C17.6256 17.7766 17.6187 17.8135 17.6146 17.851L17.5593 18.2938C17.5397 18.4448 17.5651 18.5878 17.6354 18.7229L17.7392 18.9097C17.8166 19.0558 17.9307 19.163 18.0814 19.2313C18.232 19.2995 18.3878 19.3146 18.5488 19.2764L18.8048 19.2072C18.8836 19.1896 18.9574 19.1596 19.0262 19.1173L19.3584 18.9028C19.375 18.8919 19.3911 18.8804 19.4068 18.8682L19.7251 18.6191L19.9465 18.453L19.9881 18.4322H20.0157C19.864 18.1777 19.6402 18.0601 19.3445 18.0793L19.4137 18.197C19.4336 18.0315 19.4013 17.877 19.3169 17.7334L19.2961 17.9271L19.2338 18.1901C19.2241 18.2264 19.2172 18.2633 19.2131 18.3008L19.1923 18.5914C19.1842 18.6854 19.1934 18.7776 19.22 18.8682L19.2823 19.0896C19.3412 19.2868 19.4612 19.4344 19.6421 19.5324L19.8012 19.6224C19.9582 19.7073 20.1243 19.7326 20.2994 19.6985L20.5278 19.657C20.6008 19.6421 20.67 19.6167 20.7354 19.5809L20.9776 19.4563C21.0039 19.4417 21.0293 19.4256 21.0537 19.4079L21.1851 19.3179L21.2474 19.2903C21.0214 19.0289 20.7469 18.9597 20.424 19.0827L20.5001 19.1726C20.4715 19.0584 20.4184 18.9569 20.341 18.8682L20.3825 19.0273L20.4101 19.2349C20.4136 19.2582 20.4182 19.2813 20.424 19.3041L20.4863 19.5324C20.4951 19.568 20.5066 19.6026 20.5209 19.6362L20.5901 19.8023C20.6119 19.8541 20.6396 19.9025 20.6731 19.9476L20.763 20.0722C20.8043 20.1278 20.8527 20.1762 20.9084 20.2175L21.0122 20.2936C21.0712 20.3385 21.1358 20.3731 21.2059 20.3974L21.3097 20.432C21.4307 20.4699 21.5529 20.4745 21.6764 20.4458L21.7733 20.4251C21.811 20.4189 21.8479 20.4096 21.884 20.3974L21.9878 20.3559C22.0501 20.3318 22.1077 20.2995 22.1608 20.259L22.2923 20.1552C22.3143 20.1357 22.3351 20.115 22.3545 20.0929L22.5691 19.8784C22.5737 19.8762 22.5783 19.8739 22.5829 19.8715L22.915 19.5255C22.9246 19.5143 22.9339 19.5028 22.9427 19.4909L23.3302 19.0342C23.3877 18.9686 23.4316 18.8948 23.4617 18.8128L23.6623 18.2316C23.6623 18.2293 23.6623 18.227 23.6623 18.2246L23.8215 17.7472L24.0429 17.422C24.1624 17.2468 24.1347 17.0993 23.9596 16.9795C23.7846 16.8598 23.6371 16.8873 23.517 17.0622L23.2956 17.3735L22.9081 17.6572L22.403 17.9825C22.3454 18.0211 22.2947 18.0672 22.2508 18.1209L21.8771 18.5568L21.5657 18.8889L21.3858 19.0688L21.3166 19.1173L21.2613 19.1519C21.3398 19.1369 21.4136 19.1092 21.4827 19.0688L21.3858 19.0896C21.5062 19.1298 21.6284 19.1367 21.7525 19.1104L21.8287 19.1657L21.8563 19.2003L21.8494 19.1934L21.8356 19.0619L21.8148 18.8267C21.815 18.8174 21.815 18.8082 21.8148 18.799L21.7941 18.6052C21.7761 18.462 21.7208 18.3352 21.628 18.2246L21.5519 18.1347C21.3277 17.8636 21.0509 17.7898 20.7215 17.9133L20.5762 17.9686C20.5277 17.9868 20.4815 18.0099 20.4378 18.0378L20.2648 18.1555L20.1541 18.2108L20.0365 18.2316C20.1918 18.3213 20.3578 18.3513 20.5347 18.3215L20.3825 18.2316C20.4363 18.4288 20.5516 18.5787 20.7284 18.6813L20.7008 18.5914L20.7146 18.4807L20.77 18.2246C20.7836 18.1678 20.7905 18.1101 20.7907 18.0517V17.8164C20.7879 17.6414 20.7302 17.4869 20.6177 17.3528L20.5278 17.2421C20.3631 17.0456 20.1532 16.9603 19.8981 16.986L19.7251 16.9999C19.6326 17.0084 19.5449 17.0338 19.4622 17.076L19.2338 17.1936C19.1975 17.2115 19.1629 17.2322 19.13 17.2559L18.8532 17.4635C18.8532 17.4658 18.8532 17.4681 18.8532 17.4704L18.5488 17.6988L18.3412 17.8302L18.2097 17.8648C18.2853 18.0152 18.3994 18.1259 18.5519 18.1969C18.7044 18.268 18.8625 18.2842 19.0262 18.2454L18.9294 18.0586C18.9105 18.204 18.9336 18.3423 18.9986 18.4738L19.047 18.0863L19.22 17.505L19.5037 16.7439L19.8497 15.9343L20.1818 15.2423L20.4724 14.7303C20.4749 14.7211 20.4772 14.7119 20.4793 14.7026L20.6316 14.412C20.6839 14.3123 20.7093 14.2062 20.7077 14.0937V14.0245C20.7019 13.7884 20.5912 13.6224 20.3755 13.5263Z" fill="black"/>
<path d="M8.1498 21.467L8.2882 21.294C8.34376 21.2306 8.38528 21.1591 8.41275 21.0795L8.50962 20.7473C8.51211 20.7381 8.51442 20.7289 8.51654 20.7196L8.65493 20.2353L8.84176 19.6333C8.84422 19.6241 8.84652 19.6149 8.84868 19.6056L9.02859 18.9206C9.03352 18.9068 9.03813 18.893 9.04243 18.879L9.2085 18.1525L9.41609 17.3982L9.73439 16.5817L10.1772 15.6476L10.7931 14.6166L11.5196 13.5302L12.3154 12.4369L13.1665 11.3713L14.0799 10.3126L15.1732 9.22622L16.3633 8.13293L17.6642 7.07423L19.0827 6.06398L20.5566 5.16443L22.072 4.36868L23.5597 3.67672L25.0336 3.1024L26.4798 2.63879L27.8291 2.29281L29.0677 2.01602C29.0886 2.0121 29.1094 2.00749 29.13 2.00218L30.1264 1.71156C30.2315 1.68053 30.3261 1.62979 30.4101 1.55933L30.8253 1.21335H31.2612C31.4596 1.21335 31.5587 1.11417 31.5587 0.915811C31.5587 0.71745 31.4596 0.618269 31.2612 0.618269H30.8045L30.3409 0.306888C30.2235 0.228376 30.0943 0.184552 29.9534 0.175416L28.9155 0.11314C28.8553 0.109809 28.7953 0.112115 28.7355 0.120059L27.4623 0.286129C27.4275 0.288971 27.3929 0.293584 27.3586 0.299968L25.9539 0.632108C25.9282 0.638063 25.9029 0.644982 25.8778 0.652867L24.3693 1.1234C24.346 1.12952 24.3229 1.13644 24.3001 1.14416L22.7709 1.73924C22.7521 1.74792 22.7337 1.75715 22.7155 1.76692L21.1724 2.47272C21.1537 2.4814 21.1353 2.49062 21.1171 2.50039L19.5463 3.32382C19.5276 3.33251 19.5092 3.34173 19.491 3.3515L17.9548 4.28564C17.9336 4.29874 17.9128 4.31258 17.8926 4.32716L16.4118 5.37202C16.3929 5.38525 16.3744 5.39909 16.3564 5.41354L15.0071 6.50683C14.9881 6.52233 14.9696 6.53848 14.9517 6.55527L13.7201 7.69008C13.7082 7.70362 13.6966 7.71746 13.6855 7.73159L12.5714 8.87332C12.5546 8.89121 12.5385 8.90966 12.523 8.92868L11.5819 10.0427C11.5725 10.0518 11.5633 10.061 11.5542 10.0704L10.6893 11.1775C10.6797 11.1912 10.6705 11.205 10.6616 11.2191L9.85202 12.347C9.84235 12.3628 9.83313 12.379 9.82434 12.3954L9.09087 13.5371C9.08372 13.5485 9.0768 13.56 9.07011 13.5717L8.43351 14.6788C8.42091 14.7037 8.40938 14.7291 8.39891 14.755L7.92146 15.7652C7.90868 15.7924 7.89714 15.8201 7.88686 15.8483L7.55472 16.7478C7.54384 16.7796 7.53461 16.8119 7.52704 16.8447L7.31946 17.6681C7.31151 17.6932 7.30459 17.7186 7.2987 17.7442L7.16722 18.5054C7.16424 18.5261 7.16193 18.5468 7.16031 18.5677L7.08419 19.2734C7.08099 19.2964 7.07868 19.3195 7.07727 19.3426L7.05651 19.9862C7.05603 20.0023 7.05603 20.0185 7.05651 20.0346L7.07727 20.5467C7.07704 20.5955 7.08165 20.644 7.09111 20.692L7.17414 21.031C7.19741 21.129 7.24123 21.2166 7.30562 21.294L7.44401 21.467C7.53536 21.5782 7.65299 21.6338 7.79691 21.6338C7.94082 21.6338 8.05846 21.5782 8.1498 21.467Z" fill="black"/>
<path d="M30.5832 0.957398C30.5832 1.07204 30.6237 1.1699 30.7048 1.25097C30.7858 1.33204 30.8837 1.37257 30.9983 1.37257C31.113 1.37257 31.2108 1.33204 31.2919 1.25097C31.373 1.1699 31.4135 1.07204 31.4135 0.957398C31.4135 0.84275 31.373 0.744893 31.2919 0.663825C31.2108 0.582757 31.113 0.542223 30.9983 0.542223C30.8837 0.542223 30.7858 0.582757 30.7048 0.663825C30.6237 0.744893 30.5832 0.84275 30.5832 0.957398ZM30.5209 0.950478C30.5355 1.07218 30.5887 1.1737 30.6804 1.25505C30.7721 1.33639 30.8792 1.37706 31.0018 1.37706C31.1244 1.37706 31.2315 1.33639 31.3232 1.25505C31.4149 1.1737 31.4681 1.07218 31.4827 0.950478C31.4681 0.828775 31.4149 0.727252 31.3232 0.645911C31.2315 0.564569 31.1244 0.523898 31.0018 0.523898C30.8792 0.523898 30.7721 0.564569 30.6804 0.64591C30.5887 0.727252 30.5355 0.828775 30.5209 0.950478ZM30.4655 0.929719C30.4655 1.07494 30.5169 1.19889 30.6196 1.30158C30.7223 1.40426 30.8462 1.45561 30.9914 1.45561C31.1366 1.45561 31.2606 1.40426 31.3633 1.30158C31.466 1.19889 31.5173 1.07494 31.5173 0.929719C31.5173 0.784499 31.466 0.660546 31.3633 0.55786C31.2606 0.455174 31.1366 0.403831 30.9914 0.403831C30.8462 0.403831 30.7223 0.455174 30.6196 0.55786C30.5169 0.660546 30.4655 0.784499 30.4655 0.929719ZM30.4171 0.895121C30.4171 1.05181 30.4725 1.18554 30.5833 1.29634C30.6941 1.40713 30.8278 1.46253 30.9845 1.46253C31.1412 1.46253 31.2749 1.40713 31.3857 1.29634C31.4965 1.18554 31.5519 1.05181 31.5519 0.895121C31.5519 0.738437 31.4965 0.604698 31.3857 0.493905C31.2749 0.383112 31.1412 0.327716 30.9845 0.327716C30.8278 0.327716 30.6941 0.383112 30.5833 0.493905C30.4725 0.604698 30.4171 0.738437 30.4171 0.895121ZM30.2372 0.964317L30.258 1.04735L30.251 1.13731L30.2095 1.45561C30.2043 1.49696 30.202 1.53848 30.2026 1.58016L30.2095 2.15448C30.2094 2.16371 30.2094 2.17294 30.2095 2.18216L30.2372 2.94332L30.2649 3.87746C30.2649 3.88207 30.2649 3.88669 30.2649 3.8913L30.3133 4.95691L30.3617 6.09864C30.3617 6.10095 30.3617 6.10326 30.3617 6.10556L30.424 7.26113L30.4655 8.44438L30.4794 9.63455L30.4379 10.8455L30.3479 12.0633L30.1472 13.2881L29.8497 14.5059L29.4968 15.6615L29.0816 16.7548L28.5903 17.855L28.0368 18.9552L27.4348 20.007L26.8258 20.9619L26.2515 21.8199C26.2468 21.8268 26.2422 21.8337 26.2377 21.8407L25.7464 22.6295C25.6718 22.7507 25.628 22.8822 25.6149 23.0239L25.5596 23.5083L25.3312 23.8128C25.2605 23.9276 25.2374 24.0513 25.2618 24.1839C25.2863 24.3165 25.352 24.4238 25.459 24.5059C25.566 24.5879 25.6868 24.6235 25.8212 24.6127C25.9556 24.6019 26.069 24.5475 26.1616 24.4494L26.3968 24.1449L26.8604 23.965C26.9983 23.9106 27.1159 23.8276 27.2133 23.7159L27.8223 23.017C27.8394 22.9946 27.8555 22.9716 27.8707 22.9478L28.4865 22.1105C28.4961 22.0969 28.5053 22.0831 28.5142 22.069L29.1577 21.0934C29.1699 21.0753 29.1814 21.0568 29.1923 21.038L29.8151 19.9447C29.8224 19.9288 29.8294 19.9126 29.8359 19.8963L30.4171 18.7476C30.4269 18.7295 30.4361 18.711 30.4448 18.6923L30.943 17.5367C30.9502 17.523 30.9571 17.5092 30.9637 17.4952L31.3997 16.3465C31.4074 16.3237 31.4143 16.3007 31.4204 16.2773L31.7803 15.0664C31.788 15.0436 31.7949 15.0205 31.801 14.9972L32.0916 13.7102C32.0972 13.685 32.1019 13.6596 32.1055 13.6341L32.2923 12.3193C32.2977 12.2964 32.3024 12.2734 32.3061 12.2501L32.3961 10.97C32.3987 10.9562 32.401 10.9424 32.403 10.9285L32.4307 9.66915C32.4311 9.653 32.4311 9.63686 32.4307 9.62071L32.403 8.40286C32.4032 8.39133 32.4032 8.3798 32.403 8.36827L32.3338 7.16426C32.3338 7.16195 32.3338 7.15965 32.3338 7.15734L32.2577 5.99485L32.1816 4.86004L32.1332 3.81518L32.1055 2.88796C32.1056 2.88104 32.1056 2.87412 32.1055 2.8672L32.064 2.09913C32.0622 2.08061 32.0599 2.06215 32.057 2.04377L31.9948 1.46945C31.9869 1.39832 31.9707 1.32913 31.9463 1.26186L31.8218 0.9228C31.8154 0.906429 31.8085 0.890283 31.801 0.874363L31.7387 0.735971L31.7111 0.625258C31.6641 0.421977 31.5521 0.265036 31.3752 0.154434C31.1983 0.0438326 31.0081 0.0119199 30.8048 0.0586964C30.6015 0.105473 30.4444 0.217257 30.3336 0.394048C30.2228 0.57084 30.1906 0.76093 30.2372 0.964317Z" fill="black"/>
</g>
<defs>
<clipPath id="clip0_1_7356">
<rect width="33" height="39" fill="white"/>
</clipPath>
</defs>
</svg>
