<svg width="26" height="38" viewBox="0 0 26 38" fill="none" xmlns="http://www.w3.org/2000/svg">
<g clip-path="url(#clip0_1_7273)">
<path d="M14.7249 2.60098C14.7249 2.69765 14.759 2.78016 14.8274 2.84851C14.8958 2.91687 14.9783 2.95105 15.0749 2.95105C15.1716 2.95105 15.2541 2.91687 15.3225 2.84851C15.3908 2.78016 15.425 2.69765 15.425 2.60098C15.425 2.50431 15.3908 2.4218 15.3225 2.35345C15.2541 2.28509 15.1716 2.25091 15.0749 2.25091C14.9783 2.25091 14.8958 2.28509 14.8274 2.35345C14.759 2.4218 14.7249 2.50431 14.7249 2.60098ZM15.5188 2.63849L15.525 2.58848C15.5096 2.62675 15.4992 2.66634 15.4938 2.70725L15.525 2.63224C15.5595 2.539 15.5699 2.44315 15.5563 2.34468L15.5375 2.20716C15.5187 2.07564 15.4666 1.95895 15.3812 1.85709L15.2312 1.6758C15.1557 1.58404 15.064 1.51319 14.9562 1.46326L14.6561 1.31949C14.5488 1.27093 14.4363 1.24592 14.3185 1.24447L13.8747 1.23197C13.7675 1.2299 13.6633 1.24657 13.5622 1.28198L12.9683 1.48827C12.8882 1.51555 12.8131 1.55306 12.7432 1.60079L12.0119 2.11339C11.9674 2.14325 11.9257 2.17659 11.8868 2.21341L11.0679 3.01981C11.0414 3.04549 11.0164 3.07258 10.9929 3.10108L10.124 4.17003C10.1041 4.19415 10.0853 4.21915 10.0677 4.24504L9.19882 5.55779C9.18344 5.57807 9.16885 5.59891 9.15506 5.6203L8.3049 7.15185C8.29388 7.17027 8.28346 7.18902 8.27364 7.20811L7.46099 8.92093C7.45439 8.93537 7.44814 8.94996 7.44224 8.96469L6.68584 10.7963C6.68143 10.8087 6.67726 10.8212 6.67334 10.8338L5.96696 12.7404C5.96004 12.761 5.95379 12.7819 5.9482 12.8029L5.36684 14.747C5.35966 14.7718 5.35341 14.7968 5.34809 14.8221L4.90425 16.7849C4.89638 16.818 4.89013 16.8513 4.8855 16.8849L4.63545 18.8603C4.63157 18.8956 4.62949 18.9311 4.6292 18.9666L4.57919 20.917C4.57814 20.9441 4.57814 20.9711 4.57919 20.9982L4.68546 22.8798C4.6868 22.9028 4.68888 22.9257 4.69171 22.9486L4.90425 24.7364C4.90874 24.7722 4.915 24.8076 4.92301 24.8427L5.28558 26.4743C5.29539 26.5188 5.30789 26.5626 5.32308 26.6056L5.82943 28.0558C5.84715 28.1031 5.86798 28.1489 5.89194 28.1934L6.54832 29.4686C6.57184 29.5185 6.59893 29.5665 6.62958 29.6124L7.41723 30.7001C7.44577 30.7418 7.47703 30.7814 7.511 30.8189L8.39242 31.7503C8.42383 31.7836 8.45717 31.8148 8.49244 31.844L9.43637 32.6192C9.46249 32.6413 9.48958 32.6621 9.51763 32.6817L10.4616 33.3318C10.49 33.3498 10.5192 33.3665 10.5491 33.3818L11.4993 33.9132C11.5257 33.9289 11.5528 33.9435 11.5805 33.957L12.537 34.3883C12.5677 34.4022 12.5989 34.4147 12.6307 34.4258L13.5934 34.7696C13.6345 34.7824 13.6762 34.7928 13.7184 34.8009L14.7249 35.0322C14.7805 35.0447 14.8368 35.0531 14.8937 35.0572L15.9501 35.1322C16.0043 35.1361 16.0585 35.1361 16.1126 35.1322L17.2066 35.0509C17.2677 35.0474 17.3281 35.0391 17.3879 35.0259L18.4881 34.7634C18.5458 34.749 18.6021 34.7302 18.6569 34.7071L19.7196 34.2758C19.7849 34.2502 19.8475 34.219 19.9071 34.182L20.8948 33.5444C20.9527 33.5075 21.0069 33.4659 21.0573 33.4193L21.9512 32.5817C22.0018 32.5337 22.0476 32.4816 22.0888 32.4254L22.8952 31.3565C22.9327 31.307 22.966 31.2549 22.9952 31.2002L23.6828 29.8937C23.7071 29.8451 23.728 29.7951 23.7453 29.7436L24.3017 28.2121C24.3136 28.1792 24.324 28.1459 24.333 28.1121L24.7955 26.393C24.8053 26.36 24.8136 26.3267 24.8205 26.293L25.1581 24.4426C25.1611 24.4156 25.1632 24.3885 25.1644 24.3614L25.3957 22.386C25.3984 22.3631 25.4005 22.3402 25.4019 22.3172L25.5207 20.2481C25.5208 20.2377 25.5208 20.2273 25.5207 20.2168L25.5894 18.1164C25.5896 18.1039 25.5896 18.0914 25.5894 18.0789L25.5957 16.0035C25.594 15.9847 25.592 15.966 25.5894 15.9473L25.4957 13.9531C25.4945 13.926 25.4924 13.8989 25.4894 13.8719L25.2831 11.9778C25.2796 11.9547 25.2754 11.9318 25.2706 11.909L24.9643 10.0837C24.959 10.0564 24.9527 10.0293 24.9456 10.0024L24.5392 8.30207C24.5304 8.26618 24.52 8.23076 24.508 8.1958L23.9954 6.6455C23.9775 6.5963 23.9567 6.54837 23.9329 6.50172L23.2765 5.13271C23.253 5.07877 23.2259 5.02668 23.1952 4.97643L22.4076 3.78871C22.3755 3.73834 22.34 3.69041 22.3013 3.64493L21.3949 2.61973C21.3381 2.55522 21.2756 2.49688 21.2074 2.4447L20.1447 1.63205C20.0669 1.57268 19.9836 1.52267 19.8946 1.48202L18.6631 0.91941C18.5631 0.872945 18.459 0.839605 18.3506 0.819391L16.9691 0.569343C16.876 0.553013 16.7822 0.546762 16.6877 0.55059L15.2 0.60685C15.1284 0.609391 15.0576 0.617726 14.9874 0.631855L13.5371 0.931912C13.46 0.947917 13.385 0.970838 13.3121 1.00068L12.0744 1.50077C11.8563 1.58932 11.6813 1.73102 11.5493 1.92585L10.9929 2.75101C10.9929 2.75309 10.9929 2.75518 10.9929 2.75726L10.5616 3.40738L10.174 3.81996C10.1085 3.89075 10.0776 3.97433 10.0813 4.07071C10.085 4.16709 10.1222 4.24806 10.1929 4.31363C10.2637 4.37919 10.3472 4.41016 10.4436 4.40654C10.54 4.40291 10.621 4.36575 10.6866 4.29505L11.0304 3.91998L11.618 3.73245L12.5057 3.7387C12.5878 3.73897 12.6691 3.73064 12.7495 3.71369L14.0247 3.45114L15.375 3.23235L16.644 3.19484L17.7317 3.38238L18.6756 3.80121L19.5258 4.45133L20.3009 5.30149L20.9948 6.33919L21.5949 7.55192L22.095 8.96469L22.5014 10.5587L22.8139 12.2966L23.0202 14.1157L23.139 16.0473L23.1515 18.0727L23.1077 20.1293L22.9827 22.1485L22.7764 24.0551L22.4638 25.8367L22.0638 27.462L21.5574 28.8747L20.9573 30.0437L20.2884 30.9626L19.5508 31.669L18.7444 32.1941L17.8692 32.5567L16.9378 32.7817L16.0251 32.863L15.1375 32.8005L14.2748 32.6129L13.4246 32.3129L12.5432 31.9191L11.668 31.4502L10.8054 30.8689L9.95521 30.175L9.17382 29.3498L8.48618 28.3809L7.89857 27.2432L7.42973 25.9179L7.05466 24.3864L6.78586 22.7048L6.66084 20.9232L6.7171 19.0791L6.96715 17.1975L7.37347 15.2971L7.90482 13.403L8.5612 11.5402L9.29259 9.75859L10.074 8.09578L10.8866 6.6205L11.6993 5.37651L12.4994 4.36382L13.2121 3.61367L13.7809 3.16359L14.1435 2.9823L14.3623 2.93854L14.5248 2.9448L14.6874 2.9823C14.708 2.98742 14.7289 2.99159 14.7499 2.99481L14.8874 3.01356C14.9019 3.01619 14.9165 3.01827 14.9312 3.01981H15.0062C14.9636 3.00542 14.9198 2.99709 14.8749 2.99481L14.9187 3.00731C15.0544 3.0539 15.1834 3.03961 15.3057 2.96446C15.428 2.88931 15.499 2.78065 15.5188 2.63849Z" fill="black"/>
<path d="M12.6118 2.01967C12.6118 2.13878 12.654 2.24044 12.7382 2.32466C12.8224 2.40889 12.9241 2.451 13.0432 2.451C13.1623 2.451 13.264 2.40889 13.3482 2.32466C13.4324 2.24044 13.4745 2.13878 13.4745 2.01967C13.4745 1.90056 13.4324 1.79889 13.3482 1.71467C13.264 1.63045 13.1623 1.58833 13.0432 1.58833C12.9241 1.58833 12.8224 1.63045 12.7382 1.71467C12.654 1.79889 12.6118 1.90056 12.6118 2.01967ZM12.3931 2.01967C12.3931 2.17503 12.448 2.30763 12.5578 2.41749C12.6677 2.52735 12.8003 2.58227 12.9557 2.58227C13.111 2.58227 13.2436 2.52735 13.3535 2.41749C13.4633 2.30763 13.5183 2.17503 13.5183 2.01967C13.5183 1.86431 13.4633 1.7317 13.3535 1.62184C13.2436 1.51199 13.111 1.45706 12.9557 1.45706C12.8003 1.45706 12.6677 1.51199 12.5578 1.62184C12.448 1.7317 12.3931 1.86431 12.3931 2.01967ZM13.2307 1.46331L13.0932 1.36954C13.0003 1.30537 12.8982 1.2637 12.7869 1.24452L12.5368 1.20701C12.5348 1.20492 12.5327 1.20283 12.5306 1.20076L12.1993 1.15075C12.1785 1.14789 12.1577 1.14581 12.1368 1.1445L11.6992 1.10699C11.6533 1.10335 11.6075 1.10335 11.5616 1.10699L10.9553 1.1445C10.9067 1.14882 10.8587 1.15716 10.8115 1.1695L9.99885 1.36329C9.95837 1.37299 9.91878 1.38549 9.88008 1.4008L8.87364 1.80087C8.83496 1.81492 8.79745 1.83159 8.76111 1.85088L7.66716 2.476C7.62765 2.49802 7.59015 2.52302 7.55464 2.55102L6.49818 3.38868C6.47398 3.4081 6.45106 3.42894 6.42942 3.45119L5.523 4.37636C5.48371 4.41559 5.45037 4.45935 5.42298 4.50764L4.90413 5.44532L4.34777 6.08294C4.25464 6.22902 4.27371 6.35858 4.40499 6.47163C4.53627 6.58467 4.66722 6.5843 4.79786 6.47051L5.33546 5.8579L6.26064 5.3453C6.27345 5.33742 6.28595 5.32909 6.29815 5.32029L7.36085 4.62641L8.49231 3.97004L9.56127 3.41993L10.4739 3.05736L11.1678 2.88233L11.6804 2.83232L12.093 2.81982C12.0972 2.81985 12.1013 2.81985 12.1055 2.81982L12.4431 2.80732C12.4619 2.80589 12.4806 2.80381 12.4993 2.80107L12.7494 2.77606C12.8396 2.76414 12.9251 2.73705 13.0057 2.69479L13.1495 2.62603C13.2569 2.57285 13.3441 2.49646 13.4109 2.39685C13.4776 2.29723 13.5152 2.18761 13.5236 2.06798C13.5319 1.94835 13.51 1.83456 13.4577 1.72663C13.4054 1.6187 13.3298 1.53092 13.2307 1.46331Z" fill="black"/>
<path d="M3.77895 6.47673C3.77895 6.59238 3.81984 6.6911 3.90163 6.77289C3.98341 6.85467 4.08213 6.89556 4.19778 6.89556C4.31344 6.89556 4.41216 6.85467 4.49394 6.77289C4.57572 6.6911 4.61661 6.59238 4.61661 6.47673C4.61661 6.36107 4.57572 6.26235 4.49394 6.18057C4.41216 6.09879 4.31344 6.0579 4.19778 6.0579C4.08213 6.0579 3.98341 6.09879 3.90163 6.18057C3.81984 6.26235 3.77895 6.36107 3.77895 6.47673ZM4.42283 6.8768L4.46033 6.8518C4.47534 6.8442 4.48993 6.83587 4.50409 6.82679L4.67287 6.70802C4.67921 6.70398 4.68546 6.69981 4.69163 6.69552L5.04794 6.42047C5.05213 6.41843 5.0563 6.41634 5.06045 6.41422L5.62305 5.95788L6.42321 5.41403L7.46716 4.84517L8.64863 4.32632L9.87386 3.88248L11.0053 3.48241L11.943 3.15109C11.9557 3.14744 11.9682 3.14327 11.9805 3.13859L12.6181 2.85104L13.087 2.80103C13.2787 2.78019 13.3641 2.67392 13.3433 2.48222C13.3224 2.29051 13.2162 2.20508 13.0245 2.22592L12.5369 2.28218L11.8242 2.22592C11.7909 2.22244 11.7576 2.22244 11.7242 2.22592L10.7365 2.35094C10.7197 2.35437 10.703 2.35854 10.6865 2.36345L9.51129 2.61974C9.48803 2.62475 9.46511 2.631 9.44253 2.6385L8.18604 3.05108C8.16913 3.05667 8.15246 3.06292 8.13603 3.06983L6.89205 3.58868C6.87504 3.59634 6.85837 3.60468 6.84204 3.61368L5.73558 4.19504C5.70966 4.20808 5.68466 4.22266 5.66056 4.2388L4.8104 4.83267C4.78155 4.8535 4.75446 4.87642 4.72913 4.90143L4.19153 5.42028C4.15091 5.45753 4.11548 5.49921 4.08526 5.5453L3.84772 5.92662C3.81638 5.97724 3.79346 6.03142 3.77895 6.08915L3.72894 6.28919C3.69786 6.41357 3.71244 6.53235 3.7727 6.64551L3.79146 6.68302C3.84974 6.7995 3.94114 6.87685 4.06566 6.91507C4.19017 6.95328 4.30923 6.94053 4.42283 6.8768Z" fill="black"/>
<path d="M3.64148 5.90791C3.64148 6.02357 3.68238 6.12229 3.76416 6.20407C3.84594 6.28585 3.94466 6.32674 4.06031 6.32674C4.17597 6.32674 4.27469 6.28585 4.35647 6.20407C4.43825 6.12229 4.47914 6.02357 4.47914 5.90791C4.47914 5.79225 4.43825 5.69353 4.35647 5.61175C4.27469 5.52997 4.17597 5.48908 4.06031 5.48908C3.94466 5.48908 3.84594 5.52997 3.76416 5.61175C3.68238 5.69353 3.64148 5.79225 3.64148 5.90791ZM4.39163 6.19547V6.18921C4.48778 6.07668 4.52046 5.94802 4.48968 5.80324C4.4589 5.65846 4.3767 5.55423 4.24308 5.49054C4.10947 5.42686 3.97673 5.42865 3.84489 5.49592C3.71304 5.56319 3.63368 5.66961 3.60682 5.81517C3.57996 5.96073 3.61611 6.08845 3.71527 6.19835C3.81442 6.30825 3.93777 6.35729 4.08532 6.34549H4.09157C4.21234 6.337 4.31236 6.28699 4.39163 6.19547ZM3.86653 5.46408L3.79151 5.48908C3.69159 5.52733 3.61032 5.58984 3.54772 5.67662L3.33518 5.96417C3.30347 6.01083 3.27846 6.06084 3.26016 6.1142L2.9601 6.88935C2.95054 6.91182 2.9422 6.93474 2.9351 6.95811L2.57878 8.32712C2.57091 8.35384 2.56466 8.38093 2.56003 8.40839L2.30998 10.3087C2.30544 10.3398 2.30336 10.3711 2.30373 10.4025L2.34124 12.4967L2.17245 14.3533C2.18882 14.5146 2.27777 14.6023 2.43931 14.6163C2.60085 14.6304 2.7036 14.5594 2.74756 14.4033L2.9226 12.5592L3.4852 10.5525C3.48747 10.5443 3.48955 10.5359 3.49146 10.5275L3.93529 8.66469L4.26035 7.29567L4.46039 6.48927C4.46583 6.46658 4.47 6.44366 4.47289 6.42051L4.5229 6.06419C4.52983 6.00094 4.52567 5.93843 4.5104 5.87665L4.49165 5.79539C4.45939 5.65671 4.38036 5.55403 4.25455 5.48735C4.12874 5.42067 3.9994 5.41291 3.86653 5.46408Z" fill="black"/>
<path d="M6.24188 4.92019L6.22312 4.88268C6.20227 4.84811 6.17726 4.81685 6.14811 4.78892L6.07309 4.72015C6.04445 4.69366 6.0132 4.67074 5.97933 4.65139L5.8418 4.56387C5.66221 4.45782 5.47467 4.44115 5.27919 4.51386L4.91037 4.64514C4.78661 4.69296 4.68242 4.76798 4.59781 4.87018L4.12897 5.42029C4.09005 5.46657 4.05671 5.51658 4.02895 5.57032L3.50385 6.57051C3.48967 6.59896 3.47716 6.62813 3.46635 6.65802L2.91624 8.0958C2.90932 8.11433 2.90307 8.13308 2.89749 8.15206L2.35364 9.9524C2.34894 9.96894 2.34477 9.98561 2.34113 10.0024L1.82854 12.1216C1.82603 12.1361 1.82395 12.1507 1.82228 12.1653L1.40345 14.5033C1.40022 14.5261 1.39814 14.549 1.3972 14.572L1.21592 16.96C1.2158 16.9662 1.2158 16.9725 1.21592 16.9787L1.14716 19.0666L1.00963 20.6482C0.99296 20.8399 1.08048 20.9441 1.27218 20.9607C1.46388 20.9774 1.56807 20.8899 1.58474 20.6982L1.72227 19.1291L2.1536 17.1038L2.74121 14.7908L3.32257 12.5029L3.90393 10.4275L4.47279 8.66465L4.99164 7.28314L5.45423 6.34546L5.80429 5.80786L6.01683 5.53281L6.11685 5.41404C6.0056 5.44163 5.91391 5.49997 5.8418 5.58907L5.94807 5.55781C5.90552 5.55824 5.86385 5.56449 5.82305 5.57657H5.8668C6.03685 5.57938 6.16406 5.50696 6.24844 5.35929C6.33282 5.21163 6.33063 5.06526 6.24188 4.92019Z" fill="black"/>
<path d="M4.87297 6.17667C4.87297 6.29232 4.91386 6.39104 4.99565 6.47282C5.07743 6.55461 5.17615 6.5955 5.2918 6.5955C5.40746 6.5955 5.50618 6.55461 5.58796 6.47282C5.66974 6.39104 5.71063 6.29232 5.71063 6.17667C5.71063 6.06101 5.66974 5.96229 5.58796 5.88051C5.50618 5.79873 5.40746 5.75784 5.2918 5.75784C5.17615 5.75784 5.07743 5.79873 4.99565 5.88051C4.91386 5.96229 4.87297 6.06101 4.87297 6.17667ZM5.72314 6.22043L5.72939 6.18917C5.73436 6.14094 5.73228 6.09301 5.72314 6.04539L5.71063 5.97038C5.70243 5.92051 5.68785 5.87258 5.66687 5.8266L5.62312 5.73283C5.52963 5.52932 5.37335 5.40429 5.15428 5.35776L4.92923 5.30775C4.73453 5.26566 4.55116 5.29484 4.37913 5.39527L3.9853 5.62656C3.90173 5.67414 3.8288 5.73457 3.76651 5.80785L3.24766 6.43297C3.21964 6.46846 3.19464 6.50597 3.17265 6.54549L2.54128 7.62069C2.52221 7.65499 2.50554 7.69041 2.49127 7.72696L1.82239 9.33352C1.81021 9.36418 1.79979 9.39544 1.79114 9.42729L1.17852 11.5339C1.17076 11.5628 1.16451 11.592 1.15977 11.6215L0.690927 14.1782C0.684735 14.2113 0.680568 14.2446 0.678425 14.2782L0.515894 17.2038C0.512158 17.2454 0.512158 17.2871 0.515894 17.3288L0.897217 20.3919L1.03474 23.0799C1.04308 23.2799 1.14726 23.3758 1.3473 23.3674C1.54734 23.3591 1.64319 23.2549 1.63486 23.0549L1.49733 20.3794L1.89741 17.3413L2.32874 14.4782L2.85384 11.9903L3.46646 9.95864L4.07907 8.42084L4.61042 7.42065L5.0105 6.88305L5.24804 6.65801L5.32931 6.60175L5.35432 6.5955C5.30503 6.59966 5.2571 6.61008 5.21054 6.62675L5.28555 6.6205C5.31529 6.6169 5.34447 6.61065 5.37307 6.60175L5.40432 6.5955C5.59226 6.53988 5.69853 6.41486 5.72314 6.22043Z" fill="black"/>
<path d="M2.15988 13.8344L2.15362 13.8282C2.03293 13.7113 1.89123 13.6738 1.72854 13.7156L1.65353 13.7344C1.56741 13.7561 1.4924 13.7978 1.42849 13.8594L1.22845 14.0532C1.18971 14.0883 1.15638 14.1278 1.12843 14.172L0.778363 14.7658C0.741559 14.8264 0.71447 14.891 0.697097 14.9596L0.39704 16.1724C0.388256 16.2073 0.382004 16.2428 0.378287 16.2786L0.197002 18.1352C0.193871 18.1581 0.191787 18.181 0.190751 18.204L0.178249 20.5795C0.177197 20.6024 0.177197 20.6253 0.178249 20.6482L0.403291 23.4487C0.405708 23.4782 0.409875 23.5073 0.415794 23.5363L1.00341 26.4556C1.01132 26.4877 1.02174 26.5189 1.03466 26.5493L2.0286 29.1686L2.67872 31.3565C2.73971 31.5015 2.84553 31.5514 2.99618 31.5062C3.14684 31.461 3.20772 31.3611 3.17882 31.2065L2.53495 29.0373L2.22239 26.2618C2.2224 26.2597 2.2224 26.2576 2.22239 26.2555L1.87857 23.3237L1.67853 20.5607L1.70354 18.254L1.88482 16.4537L2.08486 15.2409C2.08487 15.2389 2.08487 15.2368 2.08486 15.2347L2.18488 14.5971L2.25364 14.3658C2.25594 14.3575 2.25803 14.3492 2.25989 14.3408L2.27865 14.2657C2.29359 14.2103 2.29775 14.154 2.29115 14.097L2.2849 14.0907C2.27267 13.9909 2.231 13.9055 2.15988 13.8344Z" fill="black"/>
<path d="M0.334496 22.4423L0.259482 22.5235C0.186274 22.6015 0.140433 22.6932 0.121956 22.7986L0.0344394 23.2862C0.0232304 23.3419 0.0190628 23.3982 0.021937 23.455L0.0907001 24.4489C0.0911164 24.4782 0.0932003 24.5074 0.0969512 24.5364L0.359501 25.9429C0.364722 25.9661 0.370973 25.989 0.378255 26.0117L0.840843 27.6745C0.846393 27.6935 0.852644 27.7122 0.859596 27.7308L1.50347 29.5436C1.51262 29.5691 1.52304 29.5941 1.53472 29.6186L2.42239 31.4627C2.4443 31.5136 2.47139 31.5615 2.50366 31.6065L3.74765 33.2006C3.76454 33.225 3.7833 33.2479 3.80391 33.2693L5.12291 34.482L6.09184 35.5197C6.20855 35.6441 6.32924 35.6481 6.4539 35.5317C6.57856 35.4154 6.5829 35.2947 6.46691 35.1697L5.51673 34.1507L4.66657 32.6129L3.81641 30.8126L3.00375 28.9748L2.35988 27.2182L1.9098 25.6054L1.60349 24.2301C1.60144 24.2259 1.59936 24.2217 1.59724 24.2176L1.36594 23.2549C1.35984 23.2231 1.35151 23.1918 1.34094 23.1611L1.1534 22.6986C1.12386 22.6189 1.07801 22.5502 1.01588 22.4923L0.934611 22.4173C0.847645 22.3397 0.745937 22.3033 0.629486 22.3081C0.513036 22.313 0.414706 22.3577 0.334496 22.4423Z" fill="black"/>
<path d="M2.54744 30.7626L2.53493 30.7876C2.56335 30.7558 2.58627 30.7203 2.6037 30.6814L2.54119 30.7501C2.47905 30.8162 2.43738 30.8933 2.41616 30.9814L2.35365 31.2377C2.33245 31.3223 2.32829 31.4078 2.34115 31.494L2.42241 31.9816C2.43367 32.0533 2.45451 32.122 2.48492 32.1879L2.79123 32.863C2.81262 32.9069 2.83763 32.9485 2.86625 32.988L3.4101 33.7882C3.43267 33.8234 3.45767 33.8567 3.48512 33.8882L4.24776 34.7134C4.27859 34.7473 4.31193 34.7786 4.34778 34.8071L5.29171 35.5635C5.331 35.5943 5.37267 35.6214 5.41673 35.6448L6.51694 36.2512C6.58609 36.2884 6.65902 36.3155 6.73573 36.3324L7.98597 36.6137C8.04562 36.6275 8.10605 36.6338 8.16726 36.6325L9.43625 36.6012C9.45721 36.6004 9.47805 36.5984 9.49876 36.595L10.6052 36.4325L11.4866 36.4387C11.6617 36.4387 11.7492 36.3512 11.7492 36.1762C11.7492 36.0011 11.6617 35.9136 11.4866 35.9136L10.624 35.9074L9.58003 35.6135L8.41105 35.201L7.29209 34.7446L6.29815 34.1945L5.46674 33.5131L4.77911 32.7693L4.24776 32.0254L3.83518 31.419C3.82711 31.4084 3.81878 31.3979 3.81018 31.3877L3.51012 31.0002C3.5003 30.9852 3.48988 30.9706 3.47886 30.9564L3.29758 30.7564C3.28572 30.7432 3.27322 30.7307 3.26007 30.7189L3.18506 30.6564C3.20947 30.7069 3.2428 30.7507 3.28508 30.7876L3.27257 30.7626C3.20075 30.6087 3.0799 30.5317 2.91001 30.5317C2.74011 30.5317 2.61926 30.6087 2.54744 30.7626Z" fill="black"/>
<path d="M9.2238 35.8886C9.2238 35.9939 9.26103 36.0838 9.33549 36.1583C9.40995 36.2327 9.49983 36.2699 9.60513 36.2699C9.71043 36.2699 9.8003 36.2327 9.87476 36.1583C9.94922 36.0838 9.98645 35.9939 9.98645 35.8886C9.98645 35.7833 9.94922 35.6934 9.87476 35.619C9.8003 35.5445 9.71043 35.5073 9.60513 35.5073C9.49983 35.5073 9.40995 35.5445 9.33549 35.619C9.26103 35.6934 9.2238 35.7833 9.2238 35.8886ZM9.17379 35.8886C9.20467 36.1455 9.34949 36.274 9.60825 36.274C9.86702 36.274 10.0118 36.1455 10.0427 35.8886C10.0118 35.6317 9.86702 35.5032 9.60825 35.5032C9.34949 35.5032 9.20467 35.6317 9.17379 35.8886ZM9.08628 35.9136C9.08628 36.0621 9.13876 36.1888 9.24374 36.2938C9.34871 36.3987 9.47542 36.4512 9.62388 36.4512C9.77233 36.4512 9.89905 36.3987 10.004 36.2938C10.109 36.1888 10.1615 36.0621 10.1615 35.9136C10.1615 35.7652 10.109 35.6385 10.004 35.5335C9.89905 35.4285 9.77233 35.376 9.62388 35.376C9.47542 35.376 9.34871 35.4285 9.24374 35.5335C9.13876 35.6385 9.08628 35.7652 9.08628 35.9136ZM9.39884 36.5763L9.66139 36.7263C9.72079 36.7577 9.78331 36.7806 9.84892 36.795L10.3678 36.9201C10.4069 36.9295 10.4465 36.9357 10.4865 36.9388L11.2804 37.0013C11.3159 37.0039 11.3513 37.0039 11.3867 37.0013L12.4244 36.9326C12.4732 36.929 12.5211 36.9207 12.5682 36.9076L13.6684 36.6138C13.705 36.6046 13.7404 36.5921 13.7747 36.5763L14.7499 36.1012L15.575 35.7261L16.2001 35.5073C16.354 35.453 16.4038 35.3488 16.3498 35.1949C16.2957 35.041 16.1916 34.9909 16.0376 35.0447L15.4187 35.2635L14.5623 35.401L13.4934 35.4323L12.3494 35.4635L11.3555 35.4948L10.6428 35.4385L10.1677 35.3448C10.1594 35.3446 10.1511 35.3446 10.1427 35.3448L9.84267 35.2948C9.67714 35.2669 9.52219 35.2958 9.37782 35.3815C9.23345 35.4671 9.1338 35.5892 9.07886 35.7478C9.02393 35.9064 9.0267 36.064 9.08718 36.2206C9.14766 36.3772 9.25155 36.4958 9.39884 36.5763Z" fill="black"/>
<path d="M13.3495 35.7448C13.3495 35.8501 13.3867 35.94 13.4612 36.0144C13.5357 36.0889 13.6255 36.1261 13.7308 36.1261C13.8361 36.1261 13.926 36.0889 14.0005 36.0144C14.0749 35.94 14.1122 35.8501 14.1122 35.7448C14.1122 35.6395 14.0749 35.5496 14.0005 35.4751C13.926 35.4007 13.8361 35.3635 13.7308 35.3635C13.6255 35.3635 13.5357 35.4007 13.4612 35.4751C13.3867 35.5496 13.3495 35.6395 13.3495 35.7448ZM13.5371 36.1886L13.6496 36.2636C13.7515 36.325 13.862 36.3541 13.9809 36.3511L14.2872 36.3449C14.3839 36.3421 14.4756 36.3191 14.5623 36.2761L15.0373 36.0511C15.1185 36.0127 15.1873 35.9585 15.2436 35.8886L15.5687 35.4822L16.075 35.2447C16.2269 35.1659 16.2669 35.0488 16.1952 34.8935C16.1236 34.7382 16.0085 34.6927 15.85 34.7571L15.3499 34.9884L14.8436 34.9384C14.7912 34.9335 14.7391 34.9355 14.6873 34.9446L14.1622 35.0321C14.1261 35.0376 14.0906 35.0459 14.0559 35.0572L13.7621 35.1634C13.7086 35.1815 13.6586 35.2065 13.6121 35.2384L13.5058 35.3197C13.4341 35.3702 13.3787 35.4347 13.3397 35.5133C13.3007 35.5919 13.2828 35.675 13.2859 35.7626C13.2891 35.8503 13.3129 35.9319 13.3575 36.0075C13.402 36.083 13.4619 36.1434 13.5371 36.1886Z" fill="black"/>
<path d="M15.9255 13.6786C15.9255 13.7908 15.9652 13.8865 16.0445 13.9659C16.1239 14.0452 16.2196 14.0849 16.3318 14.0849C16.444 14.0849 16.5398 14.0452 16.6192 13.9659C16.6985 13.8865 16.7382 13.7908 16.7382 13.6786C16.7382 13.5663 16.6985 13.4706 16.6192 13.3912C16.5398 13.3119 16.444 13.2722 16.3318 13.2722C16.2196 13.2722 16.1239 13.3119 16.0445 13.3912C15.9652 13.4706 15.9255 13.5663 15.9255 13.6786ZM16.7444 13.7223L16.7507 13.6723C16.7722 13.5104 16.7285 13.3687 16.6194 13.2472L16.4756 13.0909C16.4387 13.0499 16.397 13.0145 16.3506 12.9847L16.0568 12.7971C16.0006 12.7591 15.9402 12.7299 15.8755 12.7096L15.4192 12.5846C15.3396 12.5607 15.2584 12.5503 15.1754 12.5533L14.5565 12.5846C14.4589 12.588 14.3651 12.6088 14.2752 12.6471L13.5313 12.9722C13.4611 13.0026 13.3965 13.0422 13.3375 13.0909L12.5311 13.7598C12.4847 13.799 12.443 13.8428 12.4061 13.8911L11.6309 14.885C11.5913 14.9375 11.5579 14.9938 11.5309 15.0538L10.9371 16.3353C10.9062 16.3993 10.8833 16.4659 10.8683 16.5353L10.5745 17.9919C10.5612 18.0643 10.5571 18.1372 10.562 18.2107L10.637 19.7047C10.6406 19.7859 10.6552 19.8651 10.6808 19.9422L11.1433 21.3113C11.1726 21.397 11.2143 21.4761 11.2684 21.5488L12.0748 22.6365C12.1318 22.7153 12.2006 22.7819 12.2811 22.8365L13.325 23.5367C13.4222 23.6014 13.5285 23.6431 13.6438 23.6617L14.8315 23.8617C14.9524 23.8828 15.0712 23.8744 15.1879 23.8367L16.3193 23.4679C16.3833 23.4472 16.4417 23.416 16.4944 23.3741L17.332 22.7178L18.0884 22.2364C18.2106 22.1342 18.2296 22.0155 18.1455 21.8803C18.0614 21.745 17.9466 21.7095 17.8009 21.7738L17.0757 22.2302L16.1068 22.3802H15.0566L14.1314 22.1302L13.3563 21.5613L12.7624 20.6486L12.3936 19.5047L12.3436 18.2357L12.5999 16.9792L13.0937 15.854L13.7063 14.96L14.3252 14.3912L14.8441 14.1286L15.2629 14.0599L15.6192 14.0724L15.9318 14.1161C15.9484 14.1168 15.9651 14.1168 15.9818 14.1161L16.1943 14.1349C16.3019 14.1403 16.402 14.1153 16.4944 14.0599L16.5381 14.0349C16.6571 13.9638 16.7259 13.8596 16.7444 13.7223Z" fill="black"/>
<path d="M14.7253 10.3716L14.644 10.4591C14.5942 10.5135 14.5588 10.576 14.5378 10.6467L14.4252 11.0405C14.4138 11.0731 14.4055 11.1064 14.4002 11.1405L14.319 11.9407C14.3168 11.9698 14.3168 11.999 14.319 12.0282L14.369 13.2722C14.3702 13.2889 14.3723 13.3056 14.3752 13.3222L14.5628 14.6787L14.5565 15.9039C14.5565 16.0914 14.6503 16.1852 14.8378 16.1852C15.0254 16.1852 15.1191 16.0914 15.1191 15.9039L15.1254 14.6849L15.3504 13.3347C15.3505 13.3284 15.3505 13.3222 15.3504 13.3159L15.5067 12.0782C15.5078 12.0573 15.5078 12.0365 15.5067 12.0157L15.5254 11.2093C15.5269 11.1863 15.5269 11.1634 15.5254 11.1405L15.4817 10.7342C15.4755 10.6748 15.4588 10.6186 15.4317 10.5654L15.3754 10.4591C15.3117 10.3355 15.211 10.2645 15.0732 10.2459C14.9354 10.2274 14.8194 10.2693 14.7253 10.3716Z" fill="black"/>
<path d="M15.3066 24.7181L15.2879 24.7306C15.154 24.8234 15.0977 24.9505 15.1191 25.1119L15.1378 25.2932C15.1395 25.3037 15.1416 25.3142 15.1441 25.3245L15.1941 25.5808C15.1977 25.5935 15.2018 25.606 15.2066 25.6183L15.2879 25.8871C15.3203 25.9872 15.3828 26.0622 15.4754 26.1121L15.5567 26.1559L15.5879 26.2372C15.6547 26.3471 15.7481 26.3791 15.8683 26.3332C15.9884 26.2873 16.0367 26.2011 16.013 26.0746L15.988 25.9996L16.0193 25.9309C16.0572 25.8483 16.0655 25.7629 16.0443 25.6746L15.9818 25.412L15.9317 25.1745L15.9067 25.0057C15.8832 24.8397 15.7915 24.7313 15.6317 24.6806L15.6129 24.6744C15.504 24.6408 15.4018 24.6554 15.3066 24.7181Z" fill="black"/>
<path d="M14.3753 10.6842C14.3753 10.7981 14.4156 10.8954 14.4961 10.9759C14.5767 11.0565 14.6739 11.0968 14.7879 11.0968C14.9018 11.0968 14.999 11.0565 15.0796 10.9759C15.1602 10.8954 15.2004 10.7981 15.2004 10.6842C15.2004 10.5703 15.1602 10.473 15.0796 10.3924C14.999 10.3119 14.9018 10.2716 14.7879 10.2716C14.6739 10.2716 14.5767 10.3119 14.4961 10.3924C14.4156 10.473 14.3753 10.5703 14.3753 10.6842ZM14.7191 10.2654H14.6941C14.5316 10.2936 14.4169 10.3832 14.3503 10.5342L14.3128 10.6154C14.2946 10.6554 14.2821 10.6971 14.2753 10.7404L14.2315 10.9905C14.2312 11.0009 14.2312 11.0113 14.2315 11.0218L14.1815 11.4968C14.1809 11.5114 14.1809 11.526 14.1815 11.5406L14.169 12.3095C14.1689 12.3157 14.1689 12.322 14.169 12.3282V13.4097L14.1877 14.7725C14.1877 14.7745 14.1877 14.7766 14.1877 14.7787L14.219 16.354L14.244 18.0231C14.244 18.0252 14.244 18.0273 14.244 18.0293L14.2815 19.7359C14.2813 19.7442 14.2813 19.7526 14.2815 19.7609L14.3878 21.405C14.3892 21.4217 14.3913 21.4384 14.394 21.455L14.6066 22.9303C14.6083 22.9407 14.6104 22.9512 14.6128 22.9615L14.8691 24.1743L15.0504 25.0619C15.057 25.0945 15.0674 25.1257 15.0817 25.1557L15.313 25.637L15.388 25.9183C15.4496 26.0546 15.5526 26.1029 15.6968 26.0632C15.841 26.0236 15.9047 25.9294 15.8881 25.7808L15.8193 25.5183L15.8506 25.0057C15.8516 24.9763 15.8496 24.9471 15.8443 24.9181L15.713 24.043L15.6568 22.8365L15.613 21.3487C15.6131 21.3425 15.6131 21.3362 15.613 21.33L15.5192 19.6922L15.4317 17.9918L15.3817 16.329L15.363 14.76L15.3442 13.3972C15.3442 13.3951 15.3442 13.393 15.3442 13.391L15.3192 12.3095C15.3193 12.3032 15.3193 12.297 15.3192 12.2907L15.2817 11.5281C15.2818 11.5218 15.2818 11.5156 15.2817 11.5093L15.2442 11.0405L15.2317 10.7905V10.7092C15.2283 10.6382 15.2096 10.5715 15.1754 10.5092L15.1629 10.4841C15.0672 10.3053 14.9192 10.2324 14.7191 10.2654Z" fill="black"/>
<path d="M2.96696 7.55174C2.96696 7.66222 3.00602 7.75652 3.08414 7.83464C3.16226 7.91276 3.25656 7.95182 3.36703 7.95182C3.47751 7.95182 3.57181 7.91276 3.64993 7.83464C3.72805 7.75652 3.76711 7.66222 3.76711 7.55174C3.76711 7.44127 3.72805 7.34697 3.64993 7.26885C3.57181 7.19073 3.47751 7.15167 3.36703 7.15167C3.25656 7.15167 3.16226 7.19073 3.08414 7.26885C3.00602 7.34697 2.96696 7.44127 2.96696 7.55174ZM2.94195 7.53924C2.94195 7.65662 2.98346 7.75682 3.06646 7.83982C3.14946 7.92282 3.24965 7.96432 3.36703 7.96432C3.48442 7.96432 3.58461 7.92282 3.66761 7.83982C3.75061 7.75682 3.79212 7.65662 3.79212 7.53924C3.79212 7.42186 3.75061 7.32167 3.66761 7.23866C3.58461 7.15566 3.48442 7.11416 3.36703 7.11416C3.24965 7.11416 3.14946 7.15566 3.06646 7.23866C2.98346 7.32167 2.94195 7.42186 2.94195 7.53924ZM3.73586 7.8268L3.81712 7.73928C3.8257 7.73119 3.83403 7.72285 3.84213 7.71428L4.00466 7.51424C4.01103 7.50811 4.01728 7.50185 4.02341 7.49548L4.29221 7.13917L4.72354 6.60781L5.31116 5.93269L6.0613 5.22005L6.94897 4.55117L7.89915 3.93856C7.90124 3.93649 7.90333 3.9344 7.9054 3.93231L8.72431 3.3947L9.4932 3.1134L10.1433 3.07589C10.3183 3.0675 10.4016 2.97582 10.3933 2.80084C10.3849 2.62587 10.2933 2.54252 10.1183 2.55079L9.43069 2.5883L8.53677 2.5758C8.52843 2.57556 8.5201 2.57556 8.51176 2.5758L7.47407 2.62581C7.39163 2.63079 7.31244 2.64955 7.23652 2.68207L6.16132 3.13215C6.10599 3.15555 6.0539 3.18472 6.00504 3.21967L5.04235 3.91355C5.01144 3.93653 4.98227 3.96153 4.95484 3.98857L4.14218 4.75746C4.11558 4.78087 4.09057 4.80587 4.06717 4.83248L3.46705 5.56387C3.44164 5.59549 3.41872 5.62883 3.39829 5.66388L3.03572 6.27025C3.01321 6.31023 2.99445 6.35191 2.97946 6.39527L2.81693 6.82661C2.78907 6.90119 2.77449 6.97829 2.77317 7.0579L2.76692 7.32045C2.76612 7.44309 2.79946 7.55561 2.86694 7.65801L2.92945 7.75178C3.02085 7.89049 3.14925 7.96753 3.31464 7.98292C3.48004 7.9983 3.62044 7.94626 3.73586 7.8268Z" fill="black"/>
<path d="M4.58599 5.68264C4.58599 5.79139 4.62444 5.88421 4.70134 5.96111C4.77824 6.03801 4.87106 6.07646 4.97981 6.07646C5.08856 6.07646 5.18139 6.03801 5.25829 5.96111C5.33519 5.88421 5.37364 5.79139 5.37364 5.68264C5.37364 5.57388 5.33519 5.48106 5.25829 5.40416C5.18139 5.32726 5.08856 5.28881 4.97981 5.28881C4.87106 5.28881 4.77824 5.32726 4.70134 5.40416C4.62444 5.48106 4.58599 5.57388 4.58599 5.68264ZM4.55473 5.67638C4.55473 5.79204 4.59562 5.89076 4.6774 5.97254C4.75919 6.05432 4.8579 6.09521 4.97356 6.09521C5.08922 6.09521 5.18794 6.05432 5.26972 5.97254C5.3515 5.89076 5.39239 5.79204 5.39239 5.67638C5.39239 5.56073 5.3515 5.46201 5.26972 5.38023C5.18794 5.29845 5.08922 5.25755 4.97356 5.25755C4.8579 5.25755 4.75919 5.29845 4.6774 5.38023C4.59562 5.46201 4.55473 5.56073 4.55473 5.67638ZM5.40489 5.67013V5.58262C5.36957 5.64686 5.35082 5.71562 5.34863 5.78891L5.47366 5.56386C5.48615 5.54189 5.49657 5.51896 5.50491 5.4951L5.58618 5.25755L5.77371 5.06377C5.88222 4.93501 5.87695 4.8111 5.75788 4.69203C5.63881 4.57296 5.5149 4.56768 5.38614 4.67619L5.1861 4.87623L4.94231 4.97625C4.89295 4.99703 4.84919 5.0262 4.81103 5.06377L4.62975 5.24505C4.53489 5.3376 4.48904 5.45013 4.49222 5.58262V5.67013C4.49222 5.79615 4.53677 5.90371 4.62588 5.99281C4.71498 6.08192 4.82254 6.12647 4.94856 6.12647C5.07457 6.12647 5.18213 6.08192 5.27124 5.99281C5.36034 5.90371 5.40489 5.79615 5.40489 5.67013Z" fill="black"/>
<path d="M1.4855 18.0479C1.4855 18.1583 1.52455 18.2526 1.60267 18.3307C1.68079 18.4089 1.77509 18.4479 1.88557 18.4479C1.99605 18.4479 2.09035 18.4089 2.16847 18.3307C2.24659 18.2526 2.28565 18.1583 2.28565 18.0479C2.28565 17.9374 2.24659 17.8431 2.16847 17.765C2.09035 17.6868 1.99605 17.6478 1.88557 17.6478C1.77509 17.6478 1.68079 17.6868 1.60267 17.765C1.52455 17.8431 1.4855 17.9374 1.4855 18.0479ZM1.40423 18.0416C1.40423 18.1693 1.44939 18.2784 1.53972 18.3687C1.63004 18.459 1.73908 18.5042 1.86682 18.5042C1.99456 18.5042 2.10359 18.459 2.19392 18.3687C2.28424 18.2784 2.32941 18.1693 2.32941 18.0416C2.32941 17.9139 2.28424 17.8048 2.19392 17.7145C2.10359 17.6242 1.99456 17.579 1.86682 17.579C1.73908 17.579 1.63004 17.6242 1.53972 17.7145C1.44939 17.8048 1.40423 17.9139 1.40423 18.0416ZM1.68553 17.529L1.56051 17.554C1.43906 17.5815 1.33488 17.6399 1.24795 17.729L1.01666 17.9603C0.953314 18.0241 0.903305 18.0971 0.866627 18.1791L0.597826 18.798C0.569504 18.858 0.548667 18.9205 0.535314 18.9855L0.322774 20.1483C0.31939 20.1752 0.317306 20.2023 0.316523 20.2295L0.185248 21.8923C0.180682 21.9423 0.180682 21.9924 0.185248 22.0424L0.397788 23.9927C0.400824 24.0138 0.404991 24.0346 0.41029 24.0552L0.810367 25.9244L0.960395 27.5122C0.977065 27.6955 1.07708 27.7789 1.26045 27.7622C1.44382 27.7455 1.52717 27.6455 1.5105 27.4621L1.36047 25.8806L1.57301 23.999L1.82931 22.0674C1.83152 22.0591 1.83361 22.0507 1.83556 22.0424L2.00434 20.4046L2.17313 19.2606C2.17313 19.2585 2.17313 19.2564 2.17313 19.2543L2.27315 18.5917L2.3169 18.2916L2.34191 18.1854C2.36232 18.0936 2.35938 18.0025 2.33309 17.9122C2.3068 17.8219 2.2604 17.7435 2.1939 17.677C2.12739 17.6105 2.04899 17.5641 1.95869 17.5378C1.86839 17.5115 1.77734 17.5086 1.68553 17.529Z" fill="black"/>
</g>
<defs>
<clipPath id="clip0_1_7273">
<rect width="26" height="38" fill="white"/>
</clipPath>
</defs>
</svg>
