<svg width="72" height="77" viewBox="0 0 72 77" fill="none" xmlns="http://www.w3.org/2000/svg">
<g clip-path="url(#clip0_1_7178)">
<path d="M11.0626 8.50438C11.0626 8.63021 11.1071 8.73762 11.1961 8.8266C11.2851 8.91557 11.3925 8.96006 11.5183 8.96006C11.6441 8.96006 11.7515 8.91557 11.8405 8.8266C11.9295 8.73762 11.974 8.63021 11.974 8.50438C11.974 8.37855 11.9295 8.27114 11.8405 8.18216C11.7515 8.09319 11.6441 8.0487 11.5183 8.0487C11.3925 8.0487 11.2851 8.09319 11.1961 8.18216C11.1071 8.27114 11.0626 8.37855 11.0626 8.50438ZM11.0463 8.50438C11.0463 8.63246 11.0916 8.74178 11.1822 8.83235C11.2728 8.92292 11.3821 8.9682 11.5102 8.9682C11.6382 8.9682 11.7476 8.92292 11.8381 8.83235C11.9287 8.74178 11.974 8.63246 11.974 8.50438C11.974 8.3763 11.9287 8.26698 11.8381 8.17641C11.7476 8.08584 11.6382 8.04056 11.5102 8.04056C11.3821 8.04056 11.2728 8.08584 11.1822 8.17641C11.0916 8.26698 11.0463 8.3763 11.0463 8.50438ZM11.0057 8.51252C11.0057 8.65183 11.0549 8.77075 11.1534 8.86926C11.2519 8.96777 11.3709 9.01702 11.5102 9.01702C11.6495 9.01702 11.7684 8.96777 11.8669 8.86926C11.9654 8.77075 12.0147 8.65183 12.0147 8.51252C12.0147 8.3732 11.9654 8.25429 11.8669 8.15578C11.7684 8.05727 11.6495 8.00801 11.5102 8.00801C11.3709 8.00801 11.2519 8.05727 11.1534 8.15578C11.0549 8.25429 11.0057 8.3732 11.0057 8.51252ZM11.3149 9.04957L11.3718 9.07398C11.488 9.12891 11.61 9.15061 11.738 9.13908L11.8601 9.13094C12.0673 9.11143 12.2409 9.02463 12.3808 8.87055L12.4785 8.75663C12.5697 8.6607 12.6348 8.54949 12.6738 8.42301L12.7145 8.2684C12.7432 8.17841 12.7567 8.08619 12.7552 7.99174L12.747 7.79644C12.7452 7.7499 12.7398 7.70379 12.7307 7.65811L12.6819 7.41399C12.6595 7.30371 12.6188 7.20064 12.5599 7.10478L12.3971 6.81998C12.3558 6.75175 12.3069 6.68937 12.2507 6.63282L11.9414 6.31547C11.9082 6.28325 11.8729 6.25341 11.8357 6.22596L11.4288 5.90047C11.4128 5.88917 11.3966 5.87832 11.38 5.86792L10.908 5.54244C10.9 5.5369 10.8918 5.53148 10.8836 5.52616L10.3954 5.20067C10.356 5.17645 10.3153 5.15475 10.2733 5.13558L9.73625 4.87519C9.68369 4.84927 9.62945 4.82757 9.57351 4.81009L8.95508 4.62293C8.8808 4.59891 8.80485 4.58263 8.72724 4.57411L7.99489 4.50087C7.9298 4.49531 7.8647 4.49531 7.7996 4.50087L6.97774 4.55783C6.92566 4.56247 6.87412 4.57061 6.82314 4.58225L5.99314 4.75313C5.9462 4.76387 5.90009 4.77743 5.85481 4.79381L5.05736 5.06234C5.00153 5.08008 4.94728 5.10178 4.89462 5.12744L4.12158 5.51803C4.06762 5.54673 4.01608 5.57928 3.96698 5.61567L3.28345 6.09577C3.22838 6.13497 3.17685 6.17837 3.12884 6.22596L2.54297 6.79557C2.50171 6.83897 2.46373 6.88508 2.42904 6.9339L1.92454 7.59301C1.88549 7.64196 1.85023 7.69349 1.81875 7.74762L1.40376 8.51252C1.37173 8.57277 1.3446 8.63516 1.32238 8.69967L1.02131 9.52153C0.987803 9.61934 0.966103 9.7197 0.956211 9.82261L0.858564 10.6852C0.845016 10.8049 0.847728 10.9242 0.866701 11.0432L1.00503 11.9057C1.01727 11.9834 1.03626 12.0593 1.06199 12.1336L1.3468 12.9473C1.36948 13.009 1.39661 13.0687 1.42817 13.1263L1.81875 13.8587C1.85595 13.9304 1.89935 13.9982 1.94895 14.0621L2.43718 14.6805C2.49289 14.752 2.55528 14.8171 2.62434 14.8758L3.1858 15.3559C3.28672 15.4406 3.39793 15.5084 3.51943 15.5593L4.13786 15.8279C4.40226 15.9445 4.6735 15.9635 4.95158 15.8848L5.4154 15.7465C5.5392 15.7114 5.6489 15.6508 5.7445 15.5646C5.84011 15.4785 5.91181 15.3757 5.9596 15.2562C6.00739 15.1368 6.02637 15.0129 6.01653 14.8846C6.0067 14.7563 5.96907 14.6367 5.90363 14.5259L5.65952 14.1109C5.58607 13.9888 5.49385 13.883 5.38285 13.7936L4.89462 13.3867L4.46335 12.9798L4.10531 12.516L3.81237 11.9708L3.60894 11.3687L3.51129 10.7909L3.56825 10.2295L3.75541 9.61918L4.04835 9.01702L4.41452 8.49624L4.83766 8.03242L5.35844 7.64184L5.96873 7.2838L6.60343 7.03155L7.26254 6.86066L7.88911 6.8037L8.42617 6.84439L8.87371 6.96645L9.33753 7.16174L9.81763 7.38145L10.2408 7.60929L10.5907 7.84527L10.8755 8.08124L11.0626 8.25213V8.26026L11.0708 8.2684C11.083 8.15228 11.0722 8.03836 11.0382 7.92664L11.0219 8.04056L11.0057 8.14634C10.9999 8.15976 10.9944 8.17332 10.9894 8.18703L10.9731 8.30909C10.9681 8.34145 10.9654 8.374 10.965 8.40673L10.9568 8.47997C10.9508 8.74868 11.0701 8.93855 11.3149 9.04957ZM5.6351 15.3885L5.99314 15.421C6.08519 15.4299 6.16691 15.4049 6.23829 15.3461C6.30968 15.2873 6.34986 15.2119 6.35884 15.1199C6.36782 15.0278 6.34297 14.9461 6.28429 14.8746C6.22561 14.8032 6.15026 14.7629 6.05824 14.7538L5.7002 14.7212C5.60809 14.7123 5.5263 14.7372 5.45483 14.796C5.38336 14.8547 5.34313 14.9302 5.33414 15.0223C5.32516 15.1144 5.35004 15.1962 5.40881 15.2677C5.46757 15.3392 5.543 15.3794 5.6351 15.3885Z" fill="black"/>
<path d="M3.93175 56.801C3.93175 56.9156 3.97226 57.0134 4.0533 57.0944C4.13433 57.1755 4.23215 57.216 4.34675 57.216C4.46134 57.216 4.55916 57.1755 4.64019 57.0944C4.72123 57.0134 4.76174 56.9156 4.76174 56.801C4.76174 56.6864 4.72123 56.5886 4.64019 56.5075C4.55916 56.4265 4.46134 56.386 4.34675 56.386C4.23215 56.386 4.13433 56.4265 4.0533 56.5075C3.97226 56.5886 3.93175 56.6864 3.93175 56.801ZM3.79342 56.7847C3.79342 56.9375 3.84744 57.0679 3.95548 57.176C4.06353 57.284 4.19395 57.338 4.34675 57.338C4.49954 57.338 4.62996 57.284 4.73801 57.176C4.84605 57.0679 4.90007 56.9375 4.90008 56.7847C4.90007 56.6319 4.84605 56.5015 4.73801 56.3934C4.62996 56.2854 4.49954 56.2314 4.34675 56.2314C4.19395 56.2314 4.06353 56.2854 3.95548 56.3934C3.84744 56.5015 3.79342 56.6319 3.79342 56.7847ZM3.70391 56.7684C3.70391 56.9459 3.76667 57.0975 3.89219 57.223C4.01771 57.3485 4.16923 57.4113 4.34675 57.4113C4.52426 57.4113 4.67578 57.3485 4.8013 57.223C4.92682 57.0975 4.98958 56.9459 4.98958 56.7684C4.98958 56.5909 4.92682 56.4394 4.8013 56.3139C4.67578 56.1884 4.52426 56.1256 4.34675 56.1256C4.16923 56.1256 4.01771 56.1884 3.89219 56.3139C3.76667 56.4394 3.70391 56.5909 3.70391 56.7684ZM3.63881 56.7684C3.63881 56.9639 3.70792 57.1308 3.84616 57.269C3.98439 57.4073 4.15125 57.4764 4.34675 57.4764C4.54224 57.4764 4.7091 57.4073 4.84733 57.269C4.98557 57.1308 5.05468 56.9639 5.05468 56.7684C5.05468 56.5729 4.98557 56.4061 4.84733 56.2678C4.7091 56.1296 4.54224 56.0605 4.34675 56.0605C4.15125 56.0605 3.98439 56.1296 3.84616 56.2678C3.70792 56.4061 3.63881 56.5729 3.63881 56.7684ZM4.07008 56.093L4.02126 56.1175C3.84715 56.1856 3.71153 56.2995 3.6144 56.4592L3.50048 56.6382C3.4503 56.7248 3.41504 56.817 3.39469 56.9149L3.31332 57.2567C3.30673 57.2836 3.30131 57.3107 3.29705 57.338L3.24009 57.7693C3.23682 57.7882 3.23411 57.8072 3.23195 57.8263L3.19126 58.3389C3.19116 58.3471 3.19116 58.3552 3.19126 58.3633L3.15871 58.8841C3.15786 58.9085 3.15786 58.9329 3.15871 58.9573V59.4944C3.15871 59.4971 3.15871 59.4998 3.15871 59.5025L3.17499 60.5278C3.17719 60.5469 3.1799 60.5659 3.18312 60.5848L3.20754 61.0242C3.20974 61.0433 3.21245 61.0622 3.21567 61.0812L3.2645 61.4636C3.26446 61.469 3.26446 61.4745 3.2645 61.4799L3.30518 61.7728L3.31332 62.0169L3.32146 62.2855C3.32096 62.3044 3.32096 62.3234 3.32146 62.3424L3.33773 62.5947L3.35401 62.7981C3.35589 62.8226 3.35861 62.847 3.36214 62.8713L3.38655 63.0341L3.39469 63.1155L3.38655 63.1561V63.2212L3.37028 63.3107C3.39314 63.2445 3.40941 63.1767 3.4191 63.1073L3.39469 63.1806C3.42356 63.1283 3.44797 63.0741 3.46793 63.0178L3.44352 63.0666C3.50414 62.9998 3.55568 62.9266 3.59812 62.8469L3.56557 62.8876C3.65985 62.8324 3.74393 62.7646 3.81783 62.6842L3.769 62.7086C3.83708 62.6853 3.90218 62.6554 3.9643 62.6191L3.8992 62.6435C3.8745 62.6508 3.85009 62.6589 3.82596 62.6679L3.72832 62.7086C3.71184 62.7163 3.69556 62.7245 3.67949 62.733L3.52489 62.8062C3.46181 62.8357 3.40214 62.871 3.34587 62.912L3.12616 63.0829C3.09202 63.1081 3.05947 63.1352 3.02852 63.1643L2.76813 63.4165C2.74843 63.4348 2.72945 63.4538 2.71117 63.4735L2.41823 63.8071C2.39854 63.8254 2.37955 63.8444 2.36127 63.8641L2.03578 64.2872C2.01852 64.311 2.00224 64.3354 1.98696 64.3604L1.63706 64.8975C1.62564 64.9162 1.61479 64.9352 1.60451 64.9545L1.25461 65.5729C1.24593 65.5916 1.2378 65.6106 1.2302 65.6299L0.912844 66.2727C0.904306 66.2888 0.896168 66.305 0.888433 66.3215L0.611768 66.9562C0.599425 66.9883 0.588575 67.0208 0.579219 67.0539L0.375789 67.6723C0.36268 67.7124 0.35183 67.7531 0.34324 67.7943L0.213045 68.3965C0.205726 68.4342 0.200302 68.4722 0.19677 68.5104L0.131672 69.0963C0.129521 69.137 0.129521 69.1777 0.131672 69.2184L0.123535 69.8042C0.123517 69.8505 0.126229 69.8966 0.131672 69.9426L0.204907 70.5122C0.208465 70.5504 0.21389 70.5884 0.221182 70.6261L0.34324 71.1632C0.349764 71.1988 0.357901 71.234 0.367651 71.2689L0.522258 71.7653C0.529765 71.7872 0.537902 71.8089 0.54667 71.8304L0.725689 72.3105C0.740476 72.3438 0.75675 72.3763 0.774512 72.4081L0.986079 72.8476C1.00128 72.8753 1.01755 72.9024 1.0349 72.9289L1.27902 73.3358C1.30797 73.387 1.34051 73.4358 1.37667 73.4823L1.66147 73.8322C1.69921 73.8758 1.7399 73.9165 1.78353 73.9542L2.10901 74.2553C2.16468 74.3042 2.22435 74.3476 2.28803 74.3855L2.67048 74.6215C2.70993 74.6455 2.75061 74.6672 2.79254 74.6866L3.23195 74.89C3.27176 74.9085 3.31244 74.9247 3.35401 74.9388L3.82596 75.1016C3.85818 75.111 3.89073 75.1192 3.92361 75.126L4.44439 75.2562C4.47929 75.2659 4.51455 75.274 4.55018 75.2806L5.12792 75.3701C5.18469 75.3768 5.24165 75.3795 5.2988 75.3782L5.9335 75.3864C5.98249 75.3865 6.03131 75.3838 6.07997 75.3782L6.73095 75.3131C6.78299 75.3082 6.83453 75.3001 6.88555 75.2887L7.50398 75.1422C7.54537 75.1308 7.58606 75.1172 7.62604 75.1016L8.22819 74.8981C8.2557 74.8882 8.28282 74.8774 8.30956 74.8656L8.90358 74.6133C8.92003 74.6055 8.93631 74.5974 8.9524 74.5889L9.48946 74.3367C9.4949 74.334 9.50033 74.3313 9.50573 74.3285L10.0102 74.0763C10.024 74.0684 10.0375 74.0603 10.0509 74.0519L10.5066 73.8077L10.8809 73.6125L11.1739 73.466L11.2959 73.409L11.361 73.3846C11.3692 73.382 11.3773 73.3793 11.3854 73.3765L11.4668 73.3521C11.7981 73.252 12.0456 73.0494 12.2091 72.7444C12.3727 72.4394 12.4045 72.1212 12.3045 71.7898C12.2046 71.4585 12.0021 71.211 11.6971 71.0473C11.3922 70.8836 11.074 70.8517 10.7426 70.9516L10.6612 70.9679C10.631 70.9776 10.6011 70.9884 10.5717 71.0004L10.4252 71.0492C10.3894 71.0612 10.3541 71.0748 10.3195 71.0899L10.1079 71.1876C10.0775 71.2 10.0477 71.2135 10.0184 71.2282L9.7173 71.391L9.34299 71.5863C9.33479 71.5916 9.32665 71.597 9.31858 71.6026L8.87103 71.8467L8.39094 72.0827L7.89457 72.3349L7.36565 72.5546L6.86114 72.7336L6.38105 72.8476L5.8684 72.9127L5.38831 72.9208L4.9489 72.8638L4.55018 72.7743L4.184 72.6441L3.85038 72.4977L3.62253 72.3675L3.44352 72.2129L3.28077 72.0257L3.11803 71.7572L2.94715 71.3991L2.77626 70.9841L2.63793 70.5691L2.52401 70.1379L2.45891 69.7066L2.45078 69.2509L2.49146 68.7789L2.57283 68.2744L2.7193 67.7537L2.93087 67.1922L3.1994 66.6063L3.50048 66.0448L3.79342 65.5729L4.07008 65.2149L4.30606 64.9382L4.47694 64.7754L4.55018 64.7185L4.58272 64.7022L4.65596 64.6697L4.72106 64.6452C4.72648 64.6453 4.73191 64.6453 4.73733 64.6452L4.78615 64.6208C4.9009 64.5708 5.00398 64.503 5.09537 64.4174L5.13605 64.3849C5.24276 64.2876 5.32685 64.1737 5.38831 64.0431L5.40458 63.9861C5.42331 63.9464 5.43959 63.9057 5.45341 63.8641L5.47782 63.7908C5.49482 63.743 5.50838 63.6942 5.5185 63.6444L5.53478 63.5386C5.53487 63.5305 5.53487 63.5223 5.53478 63.5142L5.55105 63.384C5.55442 63.3624 5.55713 63.3407 5.55919 63.3189L5.57546 63.1724C5.58182 63.1046 5.58182 63.0368 5.57546 62.969L5.55105 62.7981C5.55109 62.7927 5.55109 62.7873 5.55105 62.7818L5.53478 62.6109L5.5185 62.4401L5.50223 62.2122L5.49409 61.9437C5.49261 61.9137 5.4899 61.8839 5.48595 61.8542L5.45341 61.545C5.45079 61.5368 5.44808 61.5287 5.44527 61.5206L5.39644 61.1869L5.34762 60.837L5.32321 60.4546L5.29066 59.4537C5.29075 59.4456 5.29075 59.4374 5.29066 59.4293L5.25811 58.8922C5.25812 58.8895 5.25812 58.8868 5.25811 58.8841L5.22556 58.3796L5.21743 57.9076L5.22556 57.4764V57.1265C5.22693 57.0206 5.21066 56.9175 5.17674 56.8173L5.11164 56.622C5.06149 56.4765 4.97741 56.3545 4.85939 56.2558L4.8187 56.2232C4.59472 56.0329 4.34518 55.9895 4.07008 56.093ZM10.116 72.1722C10.116 72.4598 10.2177 72.7053 10.4211 72.9087C10.6245 73.112 10.87 73.2137 11.1576 73.2137C11.4452 73.2137 11.6907 73.112 11.8941 72.9087C12.0975 72.7053 12.1991 72.4598 12.1991 72.1722C12.1991 71.8845 12.0975 71.639 11.8941 71.4357C11.6907 71.2323 11.4452 71.1306 11.1576 71.1306C10.87 71.1306 10.6245 71.2323 10.4211 71.4357C10.2177 71.639 10.116 71.8845 10.116 72.1722ZM11.5075 72.3349L11.5156 72.3186C11.5627 72.2265 11.5704 72.1312 11.5386 72.0328C11.5068 71.9343 11.4448 71.8615 11.3527 71.8144C11.2607 71.7672 11.1654 71.7595 11.0669 71.7912C10.9685 71.8229 10.8956 71.8848 10.8484 71.9769L10.8402 71.9931C10.7931 72.0853 10.7855 72.1805 10.8173 72.279C10.8491 72.3774 10.911 72.4502 11.0031 72.4974C11.0952 72.5446 11.1905 72.5523 11.2889 72.5206C11.3874 72.4888 11.4603 72.427 11.5075 72.3349Z" fill="black"/>
<path d="M11.2064 71.8792C11.2064 72.014 11.254 72.1291 11.3494 72.2244C11.4447 72.3197 11.5598 72.3674 11.6946 72.3674C11.8294 72.3674 11.9445 72.3197 12.0398 72.2244C12.1352 72.1291 12.1828 72.014 12.1828 71.8792C12.1828 71.7443 12.1352 71.6293 12.0398 71.5339C11.9445 71.4386 11.8294 71.3909 11.6946 71.3909C11.5598 71.3909 11.4447 71.4386 11.3494 71.5339C11.254 71.6293 11.2064 71.7443 11.2064 71.8792ZM11.1169 71.8792C11.1169 72.0342 11.1717 72.1665 11.2813 72.2762C11.3909 72.3858 11.5233 72.4406 11.6783 72.4406C11.8334 72.4406 11.9657 72.3858 12.0753 72.2762C12.185 72.1665 12.2398 72.0342 12.2398 71.8792C12.2398 71.7241 12.185 71.5918 12.0753 71.4821C11.9657 71.3725 11.8334 71.3177 11.6783 71.3177C11.5233 71.3177 11.3909 71.3725 11.2813 71.4821C11.1717 71.5918 11.1169 71.7241 11.1169 71.8792ZM10.946 71.9036C10.946 72.0991 11.0151 72.2659 11.1533 72.4042C11.2916 72.5424 11.4584 72.6115 11.6539 72.6115C11.8494 72.6115 12.0163 72.5424 12.1545 72.4042C12.2927 72.2659 12.3618 72.0991 12.3618 71.9036C12.3618 71.7081 12.2927 71.5412 12.1545 71.403C12.0163 71.2648 11.8494 71.1956 11.6539 71.1956C11.4584 71.1956 11.2916 71.2648 11.1533 71.403C11.0151 71.5412 10.946 71.7081 10.946 71.9036ZM10.8239 71.9443C10.8239 72.169 10.9034 72.3608 11.0622 72.5196C11.2211 72.6785 11.4129 72.758 11.6376 72.758C11.8623 72.758 12.0541 72.6785 12.213 72.5196C12.3719 72.3608 12.4514 72.169 12.4514 71.9443C12.4514 71.7196 12.3719 71.5278 12.213 71.3689C12.0541 71.21 11.8623 71.1305 11.6376 71.1305C11.4129 71.1305 11.2211 71.21 11.0622 71.3689C10.9034 71.5278 10.8239 71.7196 10.8239 71.9443ZM10.8809 72.465L10.946 72.5708C11.0974 72.8306 11.3198 72.9934 11.6132 73.0591L11.8899 73.1242C11.9703 73.1415 12.0517 73.1496 12.134 73.1486L12.5653 73.1404C12.5734 73.1405 12.5815 73.1405 12.5897 73.1404L13.0779 73.1323L13.6394 73.1567C13.6421 73.1567 13.6448 73.1567 13.6475 73.1567L14.3473 73.1893C14.3582 73.1894 14.369 73.1894 14.3799 73.1893L15.218 73.1974C15.2397 73.1979 15.2614 73.1979 15.2831 73.1974L16.2514 73.1648C16.2596 73.1622 16.2677 73.1595 16.2758 73.1567L17.3988 73.0916C17.4123 73.0918 17.4259 73.0918 17.4395 73.0916L18.7089 72.9777C18.7116 72.9777 18.7143 72.9777 18.717 72.9777L20.0922 72.8475L21.5081 72.7254L22.9565 72.6115L24.47 72.5139L26.0079 72.4244L27.5296 72.3593L28.9536 72.3186L30.2881 72.3104L31.5006 72.3023L32.6153 72.3104C32.6181 72.3104 32.6208 72.3104 32.6235 72.3104H35.6831L36.749 72.3186L39.0682 72.3267C39.0709 72.3267 39.0736 72.3267 39.0763 72.3267H40.248L41.4035 72.343L42.5427 72.3593L43.6494 72.3918L44.7316 72.4406L45.7488 72.4895L46.709 72.5545L47.5715 72.6196L48.3446 72.6929L49.0444 72.7661L49.6791 72.8394C49.6953 72.8424 49.7116 72.8451 49.7279 72.8475L50.3382 72.8963C50.3545 72.8966 50.3707 72.8966 50.387 72.8963L50.981 72.9289C51.0218 72.928 51.0625 72.9253 51.1031 72.9207L51.689 72.8963C51.7162 72.8944 51.7433 72.8917 51.7703 72.8882L52.3562 72.8231C52.3616 72.8231 52.3671 72.8231 52.3725 72.8231L52.9746 72.7498L53.5442 72.6847C53.5524 72.6848 53.5605 72.6848 53.5687 72.6847L54.0813 72.6196L54.5614 72.5545C54.5722 72.5547 54.5831 72.5547 54.5939 72.5545L55.0578 72.4813C55.0686 72.4814 55.0795 72.4814 55.0903 72.4813L55.5541 72.3999L55.9935 72.3348C56.0017 72.3349 56.0098 72.3349 56.018 72.3348L56.4085 72.2697C56.4221 72.2672 56.4357 72.2645 56.4492 72.2616L56.7178 72.2128C56.9657 72.1662 57.1827 72.0577 57.3687 71.8873L57.4827 71.7815C57.6374 71.6387 57.748 71.4674 57.8147 71.2676C57.8813 71.0678 57.8957 70.8644 57.8577 70.6573C57.8198 70.4501 57.7342 70.265 57.601 70.1018C57.4679 69.9387 57.3037 69.8178 57.1083 69.7391L56.97 69.6821C56.7659 69.5996 56.5543 69.5698 56.3353 69.5926L56.0586 69.6252C56.0478 69.625 56.0369 69.625 56.0261 69.6252L55.6355 69.674C55.6301 69.6767 55.6246 69.6794 55.6192 69.6821L55.1635 69.7472C55.1527 69.7471 55.1418 69.7471 55.131 69.7472L54.6672 69.8286L54.2196 69.8855C54.2142 69.8855 54.2088 69.8855 54.2034 69.8855L53.7395 69.9588L53.2432 70.0157L52.6736 70.0808C52.6708 70.0808 52.6681 70.0808 52.6654 70.0808L52.0551 70.1541L51.5262 70.211L51.038 70.2273L50.5253 70.211L49.9639 70.1622L49.3373 70.0971C49.3346 70.0971 49.3319 70.0971 49.3292 70.0971L48.6212 70.0239C48.6104 70.021 48.5996 70.0183 48.5887 70.0157L47.7912 69.9506C47.7885 69.9506 47.7858 69.9506 47.7831 69.9506L46.8961 69.8855C46.8934 69.8855 46.8907 69.8855 46.888 69.8855L45.9278 69.8204C45.9197 69.8204 45.9115 69.8204 45.9034 69.8204L44.87 69.7553C44.8618 69.7553 44.8537 69.7553 44.8456 69.7553L43.747 69.7228L42.6322 69.674C42.6187 69.6738 42.6051 69.6738 42.5916 69.674L41.4442 69.6577L40.2725 69.6414C40.267 69.6414 40.2616 69.6414 40.2562 69.6414H39.0763L36.7572 69.6333L35.6831 69.6414L32.6316 69.6252C32.6262 69.6252 32.6208 69.6252 32.6153 69.6252L31.5006 69.6333L30.28 69.6252C30.2745 69.6252 30.2691 69.6252 30.2637 69.6252L28.9129 69.6496C28.9048 69.6495 28.8966 69.6495 28.8885 69.6496L27.4401 69.6903C27.4319 69.6902 27.4238 69.6902 27.4157 69.6903L25.8777 69.7716C25.8723 69.7716 25.8669 69.7716 25.8615 69.7716L24.3073 69.8611C24.3045 69.8611 24.3018 69.8611 24.2991 69.8611L22.7775 69.9588C22.7748 69.9588 22.772 69.9588 22.7693 69.9588L21.2965 70.0727C21.2829 70.0752 21.2693 70.0779 21.2558 70.0808L19.8318 70.2273L18.4566 70.3738L17.2116 70.504L16.1375 70.5853L15.1936 70.6098C15.1909 70.6098 15.1882 70.6098 15.1855 70.6098L14.3555 70.6342C14.3228 70.6356 14.2903 70.6383 14.2578 70.6423L13.5662 70.7155C13.5334 70.7196 13.5008 70.7251 13.4685 70.7318L12.8989 70.8376L12.3863 70.919L11.9713 70.9841C11.9658 70.984 11.9604 70.984 11.955 70.9841L11.6783 71.0248C11.5819 71.0415 11.4896 71.0713 11.4017 71.1143L11.2959 71.1631C11.0494 71.2774 10.8849 71.464 10.8024 71.7229C10.7198 71.9818 10.746 72.2292 10.8809 72.465ZM56.9619 71.0736L56.9863 71.0492C57.0992 70.8986 57.0891 70.7568 56.9561 70.6237C56.823 70.4906 56.6812 70.4806 56.5306 70.5935L56.5062 70.6179C56.3933 70.7685 56.4033 70.9103 56.5364 71.0433C56.6695 71.1764 56.8113 71.1865 56.9619 71.0736Z" fill="black"/>
<path d="M56.3435 71.4642C56.3435 71.6058 56.3936 71.7266 56.4937 71.8267C56.5938 71.9268 56.7146 71.9769 56.8562 71.9769C56.9977 71.9769 57.1185 71.9268 57.2186 71.8267C57.3187 71.7266 57.3688 71.6058 57.3688 71.4642C57.3688 71.3227 57.3187 71.2019 57.2186 71.1018C57.1185 71.0017 56.9977 70.9516 56.8562 70.9516C56.7146 70.9516 56.5938 71.0017 56.4937 71.1018C56.3936 71.2019 56.3435 71.3227 56.3435 71.4642ZM56.2947 71.4642C56.2947 71.617 56.3487 71.7475 56.4567 71.8555C56.5648 71.9636 56.6952 72.0176 56.848 72.0176C57.0008 72.0176 57.1312 71.9636 57.2393 71.8555C57.3473 71.7475 57.4013 71.617 57.4013 71.4642C57.4013 71.3114 57.3473 71.181 57.2393 71.073C57.1312 70.9649 57.0008 70.9109 56.848 70.9109C56.6952 70.9109 56.5648 70.9649 56.4567 71.073C56.3487 71.181 56.2947 71.3114 56.2947 71.4642ZM56.1889 71.4805C56.1889 71.658 56.2517 71.8096 56.3772 71.9351C56.5027 72.0606 56.6542 72.1234 56.8317 72.1234C57.0093 72.1234 57.1608 72.0606 57.2863 71.9351C57.4118 71.8096 57.4746 71.658 57.4746 71.4805C57.4746 71.303 57.4118 71.1515 57.2863 71.026C57.1608 70.9004 57.0093 70.8377 56.8317 70.8377C56.6542 70.8377 56.5027 70.9004 56.3772 71.026C56.2517 71.1515 56.1889 71.303 56.1889 71.4805ZM56.0262 71.5131C56.0262 71.722 56.1 71.9004 56.2478 72.0482C56.3956 72.1959 56.5739 72.2698 56.7829 72.2698C56.9919 72.2698 57.1703 72.1959 57.318 72.0482C57.4658 71.9004 57.5397 71.722 57.5397 71.5131C57.5397 71.3041 57.4658 71.1257 57.318 70.978C57.1703 70.8302 56.9919 70.7563 56.7829 70.7563C56.5739 70.7563 56.3956 70.8302 56.2478 70.978C56.1 71.1257 56.0262 71.3041 56.0262 71.5131ZM56.3191 70.8214L56.2296 70.8621C56.0659 70.9499 55.9384 71.0746 55.8471 71.2364L55.7576 71.3829C55.6896 71.502 55.6462 71.6295 55.6274 71.7653L55.5949 72.042C55.5764 72.1699 55.5791 72.2974 55.603 72.4244L55.6763 72.7906C55.6982 72.8957 55.7335 72.996 55.782 73.0917L55.9855 73.5067C56.0372 73.6108 56.1023 73.7057 56.1808 73.7915L56.5714 74.2228C56.6165 74.2728 56.6653 74.3189 56.7178 74.3611L57.2549 74.7842C57.2863 74.8102 57.3188 74.8346 57.3525 74.8575L57.9872 75.2725C58.0394 75.3062 58.0936 75.336 58.15 75.362L58.9067 75.72C58.9597 75.7425 59.014 75.7615 59.0695 75.777L59.9564 76.0618C60.0018 76.0778 60.0479 76.0914 60.0948 76.1025L61.0468 76.2896C61.0657 76.2927 61.0847 76.2954 61.1038 76.2977L62.0314 76.4442C62.0423 76.4443 62.0531 76.4443 62.064 76.4442L62.9184 76.5581C62.9319 76.5583 62.9455 76.5583 62.9591 76.5581L63.7321 76.6395C63.7538 76.64 63.7755 76.64 63.7972 76.6395L64.5621 76.6802C64.6163 76.6835 64.6706 76.6835 64.7248 76.6802L65.4816 76.6232C65.5307 76.6205 65.5795 76.6151 65.6281 76.607L66.3604 76.4686C66.4043 76.4599 66.4477 76.4491 66.4906 76.4361L67.1497 76.2489C67.191 76.2373 67.2317 76.2237 67.2718 76.2082L67.8414 75.9804C67.9119 75.9535 67.9797 75.921 68.0448 75.8828L68.533 75.5898C68.5962 75.5513 68.6559 75.5079 68.7121 75.4596L69.184 75.0609C69.2238 75.0304 69.2618 74.9979 69.2979 74.9632L69.7699 74.4669C69.8018 74.4305 69.8316 74.3925 69.8594 74.353L70.2988 73.7915C70.3314 73.7472 70.3613 73.7011 70.3883 73.6532L70.7464 73.051C70.7837 72.9911 70.8163 72.9287 70.844 72.8638L71.0881 72.2454C71.1159 72.174 71.1376 72.1008 71.1532 72.0257L71.2916 71.3747C71.3083 71.3024 71.3192 71.2291 71.3241 71.155L71.3567 70.4552C71.3621 70.3847 71.3621 70.3142 71.3567 70.2437L71.2834 69.5276C71.2777 69.459 71.2668 69.3912 71.2509 69.3242L71.08 68.665C71.0574 68.5836 71.0276 68.505 70.9905 68.4291L70.7057 67.8188C70.6821 67.7627 70.655 67.7085 70.6243 67.656L70.2825 67.1271C70.2622 67.0936 70.2405 67.0611 70.2174 67.0295L69.8269 66.5168C69.7988 66.4801 69.769 66.4448 69.7373 66.411L69.2898 65.9309C69.2538 65.8935 69.2159 65.8583 69.1759 65.8252L68.6795 65.402C68.6407 65.3672 68.6 65.3346 68.5575 65.3044L68.0041 64.9301C67.9933 64.9245 67.9825 64.9191 67.9716 64.9138L67.4915 64.6046L67.1985 64.3849L67.0032 64.1977C66.7734 63.9759 66.4991 63.8531 66.1806 63.8294C65.862 63.8057 65.5726 63.8866 65.3124 64.072C65.0523 64.2574 64.8814 64.5045 64.7998 64.8134C64.7182 65.1223 64.7448 65.4215 64.8794 65.7112L65.0422 66.0449C65.1413 66.2575 65.2851 66.4338 65.4735 66.5738L65.8885 66.8749C65.9149 66.8948 65.942 66.9138 65.9698 66.9318L66.4662 67.241L66.9463 67.5665L67.3369 67.8839L67.6705 68.2419L67.9878 68.665L68.2564 69.0719L68.4435 69.4788L68.5575 69.91L68.6144 70.4064L68.5819 70.8946L68.4842 71.3422L68.3296 71.7491L68.0692 72.1885L67.7275 72.6441L67.3694 73.0266L67.0195 73.3195L66.7184 73.5067L66.3197 73.6694L65.7908 73.8322L65.2049 73.9461L64.6028 73.9949L63.9518 73.9705L63.2276 73.9054L62.4057 73.8078L61.5269 73.6776L60.6725 73.5148L59.932 73.287L59.2892 73.0022L58.7196 72.6848L58.2964 72.4L58.0605 72.164L57.914 71.9443L57.7838 71.684C57.7711 71.6591 57.7575 71.6346 57.7431 71.6107L57.6048 71.3747C57.5918 71.3553 57.5783 71.3363 57.5641 71.3178L57.5071 71.2283L57.499 71.212C57.3916 70.9933 57.2223 70.8456 56.991 70.7691C56.7597 70.6925 56.5357 70.71 56.3191 70.8214ZM66.4906 65.0033L66.6533 64.7022C66.7094 64.5989 66.7207 64.4909 66.6873 64.3781C66.6539 64.2654 66.5856 64.181 66.4823 64.1249C66.379 64.0687 66.271 64.0573 66.1582 64.0906C66.0455 64.1239 65.961 64.1921 65.9047 64.2954L65.742 64.5964C65.6859 64.6998 65.6746 64.8078 65.708 64.9205C65.7414 65.0333 65.8098 65.1177 65.9131 65.1738C66.0164 65.23 66.1244 65.2414 66.2371 65.2081C66.3499 65.1748 66.4344 65.1065 66.4906 65.0033Z" fill="black"/>
<path d="M64.798 16.3672L64.8631 16.3754C65.0282 16.4134 65.1789 16.3822 65.3153 16.2818C65.4517 16.1814 65.5263 16.0468 65.5391 15.8779C65.5519 15.709 65.4984 15.5647 65.3786 15.4449C65.2588 15.3251 65.1145 15.2716 64.9456 15.2844C64.7767 15.2972 64.6421 15.3718 64.5417 15.5082C64.4413 15.6446 64.4101 15.7953 64.4481 15.9604L64.4563 16.0255C64.4989 16.2106 64.6128 16.3246 64.798 16.3672ZM64.3993 15.8139C64.3993 15.9847 64.4597 16.1304 64.5804 16.2512C64.7012 16.3719 64.8469 16.4323 65.0177 16.4323C65.1885 16.4323 65.3343 16.3719 65.455 16.2512C65.5758 16.1304 65.6361 15.9847 65.6362 15.8139C65.6361 15.6431 65.5758 15.4974 65.455 15.3766C65.3343 15.2558 65.1885 15.1955 65.0177 15.1955C64.8469 15.1955 64.7012 15.2558 64.5804 15.3766C64.4597 15.4974 64.3993 15.6431 64.3993 15.8139ZM64.7492 15.1711L64.6922 15.1955C64.4993 15.2752 64.3555 15.4081 64.261 15.5942L64.147 15.822C64.1239 15.8693 64.105 15.9181 64.0901 15.9685L63.9599 16.3998C63.9474 16.4318 63.9365 16.4643 63.9273 16.4974L63.7971 17.1565C63.7902 17.1888 63.7848 17.2214 63.7809 17.2542L63.6832 18.1411C63.6822 18.1683 63.6822 18.1954 63.6832 18.2225L63.6425 19.2885C63.6424 19.2993 63.6424 19.3102 63.6425 19.321L63.6344 20.5416C63.6344 20.547 63.6344 20.5525 63.6344 20.5579L63.6507 21.8761L63.6344 23.2676C63.6344 23.273 63.6344 23.2784 63.6344 23.2838L63.6425 24.7241C63.6425 24.7268 63.6425 24.7296 63.6425 24.7323L63.6669 26.1563L63.6832 27.5152C63.6831 27.5233 63.6831 27.5315 63.6832 27.5396L63.7239 28.8009C63.7239 28.8063 63.7239 28.8117 63.7239 28.8171L63.7727 29.997L63.8216 31.12L63.8622 32.1941L63.8704 33.2519L63.8622 34.2935L63.846 35.3351C63.846 35.3378 63.846 35.3405 63.846 35.3432L63.8216 37.3449L63.8134 38.3051C63.8133 38.3133 63.8133 38.3214 63.8134 38.3295L63.8216 39.2816L63.8297 40.2418C63.8297 40.2472 63.8297 40.2526 63.8297 40.2581L63.846 41.2264L63.8622 42.1947C63.8621 42.2056 63.8621 42.2164 63.8622 42.2273L63.8948 43.2037C63.8948 43.2092 63.8948 43.2146 63.8948 43.22L63.9436 44.1965C63.9436 44.1992 63.9436 44.2019 63.9436 44.2046L64.0087 45.1811L64.0575 46.1819L64.1145 47.2235L64.1633 48.3058C64.166 48.3058 64.1687 48.3058 64.1715 48.3058L64.2284 49.4124C64.2284 49.4151 64.2284 49.4178 64.2284 49.4206L64.2854 50.5516C64.2854 50.5571 64.2854 50.5625 64.2854 50.5679L64.3667 51.6339C64.3667 51.6366 64.3667 51.6393 64.3667 51.642L64.5132 53.5461L64.5783 54.4412L64.6109 55.3363C64.6109 55.339 64.6109 55.3417 64.6109 55.3444L64.6597 56.2802C64.6597 56.2829 64.6597 56.2856 64.6597 56.2884L64.7166 57.2241C64.7166 57.2296 64.7166 57.235 64.7166 57.2404L64.7899 58.1681L64.8387 59.0794C64.8413 59.0903 64.844 59.1012 64.8468 59.112L64.9201 59.9908C64.92 59.9989 64.92 60.0071 64.9201 60.0152L65.0015 60.7882L65.0503 61.4636L65.091 62.082L65.1235 62.6272V63.1317C65.1256 63.1535 65.1284 63.1752 65.1316 63.1968L65.1561 63.6525C65.1594 63.6935 65.1648 63.7342 65.1723 63.7746L65.2374 64.1408C65.2509 64.2217 65.2726 64.3003 65.3025 64.3767L65.4164 64.6534C65.4516 64.7435 65.4977 64.8276 65.5548 64.9057L65.685 65.0847C65.8799 65.3463 66.1403 65.4846 66.4661 65.4997H66.5231C66.7276 65.5078 66.9121 65.4508 67.0764 65.3288L67.1253 65.2962C67.3748 65.1117 67.5131 64.8649 67.5403 64.5558L67.5647 64.3279C67.5648 64.3198 67.5648 64.3116 67.5647 64.3035L67.5809 64.0106C67.5819 63.9834 67.5819 63.9563 67.5809 63.9292V63.563C67.5812 63.5495 67.5812 63.5359 67.5809 63.5223L67.5647 63.0829L67.5484 62.5621C67.5486 62.5486 67.5486 62.535 67.5484 62.5215L67.5158 61.9437C67.5158 61.9383 67.5158 61.9329 67.5158 61.9274L67.4752 61.3009C67.4752 61.2982 67.4752 61.2955 67.4752 61.2927L67.4263 60.6174L67.3938 59.8362C67.3941 59.8199 67.3941 59.8036 67.3938 59.7874L67.3287 58.9167L67.2636 58.0053L67.2066 57.0777L67.1659 56.1663L67.1334 55.2305C67.1334 55.2278 67.1334 55.2251 67.1334 55.2224L67.0927 54.311C67.09 54.3056 67.0873 54.3001 67.0846 54.2947L67.0358 53.3834C67.0359 53.3725 67.0359 53.3617 67.0358 53.3508L66.873 51.4549L66.8079 50.397L66.7347 49.2741L66.6859 48.1837L66.637 47.1096C66.637 47.1069 66.637 47.1042 66.637 47.1015L66.5963 46.0599C66.5963 46.0545 66.5963 46.049 66.5963 46.0436L66.5312 45.0346L66.4824 44.0663L66.4336 43.0979L66.3848 42.1296L66.3522 41.1776L66.336 40.2174L66.3278 39.2653L66.3197 38.3214L66.3278 37.3694L66.336 35.3676L66.3522 34.326C66.3522 34.3206 66.3522 34.3152 66.3522 34.3098L66.3441 33.2519C66.3442 33.2438 66.3442 33.2357 66.3441 33.2275L66.3197 32.1453C66.3198 32.1371 66.3198 32.129 66.3197 32.1209L66.279 31.0223C66.279 31.0196 66.279 31.0169 66.279 31.0142L66.2302 29.8913C66.2302 29.8885 66.2302 29.8858 66.2302 29.8831L66.1651 28.7114L66.1244 27.4664L66.0918 26.1156L66.0674 24.6916C66.0675 24.6834 66.0675 24.6753 66.0674 24.6672L66.0105 23.2269C66.0105 23.2215 66.0105 23.216 66.0105 23.2106L65.9291 21.8273L65.8965 20.5335L65.8884 19.3373L65.9128 18.2957L65.9454 17.4088C65.9456 17.3952 65.9456 17.3817 65.9454 17.3681V16.7008C65.9459 16.6819 65.9459 16.6629 65.9454 16.6439L65.921 16.1963C65.9176 16.1414 65.9095 16.0871 65.8965 16.0336L65.8396 15.7895C65.7956 15.5893 65.6926 15.4265 65.5304 15.3012L65.4734 15.2606C65.2491 15.092 65.0077 15.0622 64.7492 15.1711ZM66.0023 64.7022C66.0023 64.8663 66.0603 65.0063 66.1763 65.1223C66.2923 65.2382 66.4323 65.2962 66.5963 65.2962C66.7604 65.2962 66.9004 65.2382 67.0164 65.1223C67.1324 65.0063 67.1904 64.8663 67.1904 64.7022C67.1904 64.5382 67.1324 64.3982 67.0164 64.2822C66.9004 64.1662 66.7604 64.1082 66.5963 64.1082C66.4323 64.1082 66.2923 64.1662 66.1763 64.2822C66.0603 64.3982 66.0023 64.5382 66.0023 64.7022ZM66.9707 64.686V64.6371C66.9707 64.536 66.9349 64.4497 66.8634 64.3782C66.7919 64.3067 66.7056 64.271 66.6045 64.271C66.5034 64.271 66.417 64.3067 66.3456 64.3782C66.2741 64.4497 66.2383 64.536 66.2383 64.6371V64.686C66.2383 64.7871 66.2741 64.8734 66.3456 64.9449C66.417 65.0164 66.5034 65.0521 66.6045 65.0521C66.7056 65.0521 66.7919 65.0164 66.8634 64.9449C66.9349 64.8734 66.9706 64.7871 66.9707 64.686Z" fill="black"/>
<path d="M57.3362 6.87111C57.3362 7.01044 57.3855 7.12935 57.484 7.22786C57.5825 7.32637 57.7014 7.37562 57.8407 7.37562C57.9801 7.37562 58.099 7.32637 58.1975 7.22786C58.296 7.12935 58.3452 7.01044 58.3452 6.87111C58.3452 6.7318 58.296 6.61289 58.1975 6.51438C58.099 6.41587 57.9801 6.36661 57.8407 6.36661C57.7014 6.36661 57.5825 6.41587 57.484 6.51438C57.3855 6.61289 57.3362 6.7318 57.3362 6.87111ZM57.1979 6.82229C57.1979 7.00205 57.2615 7.15549 57.3886 7.2826C57.5157 7.40971 57.6691 7.47327 57.8489 7.47327C58.0286 7.47327 58.1821 7.40971 58.3092 7.2826C58.4363 7.15549 58.4998 7.00205 58.4999 6.82229C58.4998 6.64253 58.4363 6.48909 58.3092 6.36199C58.1821 6.23487 58.0286 6.17132 57.8489 6.17131C57.6691 6.17132 57.5157 6.23487 57.3886 6.36199C57.2615 6.48909 57.1979 6.64253 57.1979 6.82229ZM58.5487 7.18847L58.6789 7.00945C58.6872 6.99878 58.6954 6.98793 58.7033 6.9769L58.8498 6.76533L59.1101 6.46425C59.1186 6.45088 59.1267 6.43731 59.1346 6.42357L59.4845 5.97602L59.8913 5.53661L60.3714 5.0972L60.9166 4.69034L61.5676 4.34044L62.2674 4.02309L62.9184 3.78711L63.4473 3.67319L63.9355 3.64064L64.4644 3.68947L65.0096 3.77084L65.4409 3.8929L65.7745 4.05564L66.0268 4.23466L66.2139 4.45436L66.4011 4.75544L66.5475 5.15416L66.6615 5.70749L66.7347 6.39102L66.7998 7.1315L66.8323 7.80689V8.39277L66.7917 8.87287L66.7103 9.35296L66.5801 9.83306L66.4336 10.2969L66.2872 10.6712L66.1488 10.9316L66.0024 11.1594L65.7745 11.4279C65.7745 11.4307 65.7745 11.4334 65.7745 11.4361L65.506 11.7616L65.2537 12.0627C65.2219 12.099 65.1921 12.137 65.1642 12.1766L64.9689 12.4776C64.9662 12.4804 64.9635 12.4831 64.9608 12.4858L64.798 12.7218L64.6434 12.9252C64.6379 12.9333 64.6325 12.9414 64.6272 12.9496L64.4644 13.1774C64.4532 13.1935 64.4424 13.2098 64.4319 13.2263L64.2691 13.4704C64.2247 13.5375 64.1868 13.608 64.1552 13.682L64.0413 13.9423C64.0224 13.9875 64.0062 14.0337 63.9925 14.0807L63.903 14.3818C63.8817 14.4456 63.8655 14.5107 63.8541 14.577L63.8053 14.9351C63.8053 14.9405 63.8053 14.9459 63.8053 14.9514L63.7402 15.3989C63.7398 15.4179 63.7398 15.4369 63.7402 15.4559L63.6914 15.9848C63.6832 16.0827 63.6859 16.1804 63.6995 16.2777L63.7728 16.8066C63.7956 16.9672 63.8498 17.1164 63.9355 17.2542L64.1308 17.5715C64.1334 17.577 64.1362 17.5824 64.1389 17.5878L64.4319 18.0354C64.4868 18.1189 64.5636 18.1688 64.6622 18.1849C64.7609 18.2011 64.8495 18.1784 64.9282 18.1167L65.3432 17.7994C65.3515 17.7914 65.3597 17.7833 65.3677 17.775L65.6606 17.5309C65.7934 17.421 65.8965 17.2881 65.9698 17.1321L66.1976 16.652C66.2485 16.5429 66.2838 16.429 66.3034 16.3103L66.3848 15.7814C66.3878 15.7651 66.3905 15.7489 66.3929 15.7325L66.4499 15.285L66.4824 15.0002L66.5069 14.8863L66.5313 14.8456L66.6045 14.7317L66.751 14.5445C66.7537 14.5418 66.7564 14.5391 66.7591 14.5364L66.9056 14.3411L67.0846 14.1376C67.0901 14.1323 67.0955 14.1268 67.1009 14.1214L67.3369 13.8528C67.3423 13.8475 67.3478 13.842 67.3531 13.8366L67.6135 13.5273L67.8902 13.1937C67.9012 13.1831 67.9121 13.1722 67.9227 13.1612L68.1913 12.8194C68.2144 12.7878 68.2361 12.7552 68.2564 12.7218L68.4842 12.3719C68.5171 12.3249 68.5469 12.2761 68.5737 12.2254L68.7609 11.8348C68.7757 11.8028 68.7893 11.7702 68.8016 11.7372L68.9887 11.2652C69.0001 11.2438 69.011 11.2221 69.0213 11.2001L69.2003 10.6631C69.2098 10.6281 69.2179 10.5928 69.2247 10.5573L69.3712 9.97953C69.3805 9.94728 69.3886 9.91473 69.3956 9.88188L69.4932 9.28786C69.5046 9.23411 69.5128 9.17986 69.5176 9.12512L69.5502 8.51483C69.5516 8.47957 69.5516 8.44431 69.5502 8.40905L69.5339 7.74179C69.5343 7.72281 69.5343 7.70382 69.5339 7.68483L69.4851 6.96062C69.4852 6.94977 69.4852 6.93893 69.4851 6.92807L69.42 6.1469C69.4176 6.13058 69.4149 6.11431 69.4118 6.09808L69.3223 5.33318C69.3185 5.29498 69.3131 5.257 69.3061 5.21926L69.1596 4.51132C69.1455 4.44479 69.1266 4.37969 69.1026 4.31603L68.8667 3.6976C68.8381 3.62116 68.8028 3.54792 68.7609 3.4779L68.4598 2.96526C68.4147 2.89252 68.3632 2.82471 68.3052 2.76183L67.9309 2.33869C67.8627 2.26219 67.7867 2.19438 67.703 2.13526L67.2229 1.80164C67.166 1.76171 67.1063 1.72645 67.0439 1.69585L66.5069 1.43546C66.4386 1.40236 66.3681 1.37524 66.2953 1.35409L65.6687 1.17507C65.6153 1.15812 65.5611 1.14455 65.506 1.13438L64.8387 1.0286C64.8064 1.02198 64.7738 1.01655 64.7411 1.01233L64.0657 0.963503C64.0008 0.956045 63.9357 0.953331 63.8704 0.955366L63.1787 0.996052C63.0934 1.00158 63.0093 1.01514 62.9265 1.03674L62.2104 1.22389C62.1579 1.23701 62.1063 1.25328 62.0558 1.27272L61.2828 1.57379C61.2266 1.59717 61.1724 1.62429 61.12 1.65517L60.3714 2.0783C60.3351 2.09828 60.2998 2.11998 60.2656 2.1434L59.5577 2.63977C59.5298 2.65765 59.5027 2.67664 59.4763 2.69673L58.8335 3.22565C58.7963 3.2561 58.761 3.28865 58.7277 3.32329L58.1988 3.87662C58.151 3.92446 58.1076 3.97599 58.0686 4.03123L57.6861 4.60897C57.6529 4.6529 57.6231 4.69901 57.5966 4.7473L57.3362 5.30063C57.3059 5.36071 57.2815 5.42309 57.263 5.48779L57.1491 5.9272C57.1431 5.94602 57.1376 5.965 57.1328 5.98416L57.0677 6.29337C57.0563 6.3525 57.0509 6.41218 57.0514 6.47239V6.6921C57.0501 7.093 57.2397 7.35652 57.6202 7.48268C58.0008 7.60883 58.3103 7.51076 58.5487 7.18847Z" fill="black"/>
<path d="M11.182 8.84032C11.182 8.94144 11.2177 9.02775 11.2892 9.09924C11.3607 9.17074 11.4471 9.20649 11.5482 9.20649C11.6493 9.20649 11.7356 9.17074 11.8071 9.09924C11.8786 9.02775 11.9143 8.94144 11.9143 8.84032C11.9143 8.7392 11.8786 8.65289 11.8071 8.5814C11.7356 8.5099 11.6493 8.47415 11.5482 8.47414C11.4471 8.47415 11.3607 8.5099 11.2892 8.5814C11.2177 8.65289 11.182 8.7392 11.182 8.84032ZM10.9297 9.58894L10.9948 9.63776C11.066 9.70068 11.1447 9.75222 11.2308 9.79237L11.4668 9.89815C11.5274 9.92302 11.5898 9.94201 11.654 9.95511L12.2317 10.0934C12.2853 10.1056 12.3396 10.1137 12.3944 10.1179L13.4034 10.1992C13.4224 10.1997 13.4414 10.1997 13.4604 10.1992L14.8356 10.2481C14.841 10.2481 14.8464 10.2481 14.8519 10.2481L16.4956 10.2806C16.4983 10.2806 16.501 10.2806 16.5037 10.2806L18.4322 10.305C18.4404 10.3051 18.4485 10.3051 18.4567 10.305L20.6944 10.2969C20.7052 10.297 20.7161 10.297 20.7269 10.2969L23.2657 10.2074C23.2739 10.2074 23.282 10.2074 23.2902 10.2074L25.9836 10.069C25.9863 10.069 25.989 10.069 25.9917 10.069L31.2321 9.75982C31.2348 9.75982 31.2375 9.75982 31.2402 9.75982L33.7546 9.60521L36.1632 9.45874L38.3684 9.35296L40.2969 9.27159L42.022 9.19835C42.0247 9.19835 42.0274 9.19835 42.0301 9.19835L43.6657 9.13326L45.2525 9.06002L46.7416 9.00306L48.0354 8.95424C48.0381 8.95424 48.0408 8.95424 48.0435 8.95424L49.1421 8.91355L50.1511 8.881L51.0543 8.84845C51.057 8.84845 51.0597 8.84845 51.0624 8.84845L51.8517 8.8159L52.5027 8.79149L53.0886 8.77522L53.585 8.76708L53.9918 8.77522L54.4231 8.80777C54.4366 8.81068 54.4502 8.81339 54.4638 8.8159L54.9113 8.84032C54.9168 8.84032 54.9222 8.84032 54.9276 8.84032L55.3345 8.85659C55.3372 8.85659 55.3399 8.85659 55.3426 8.85659L55.7088 8.87286L56.0261 8.881L56.3435 8.90541C56.3489 8.90541 56.3543 8.90541 56.3598 8.90541L56.6527 8.91355C56.707 8.91676 56.7612 8.91676 56.8154 8.91355L57.0351 8.89728C57.1095 8.88983 57.1828 8.87627 57.2549 8.85659L57.385 8.83218C57.6649 8.76594 57.8972 8.62273 58.0822 8.40254C58.2671 8.18235 58.368 7.92873 58.3849 7.64169C58.4017 7.35465 58.3313 7.09095 58.1734 6.8506C58.0156 6.61024 57.8016 6.44078 57.5315 6.34219L57.4013 6.29337C57.3454 6.27332 57.2885 6.25705 57.2304 6.24455L57.0026 6.19572C56.9383 6.18018 56.8732 6.16933 56.8073 6.16318L56.5144 6.1469C56.5036 6.14406 56.4927 6.14134 56.4818 6.13876L56.2052 6.13063L55.9041 6.09808C55.9014 6.09808 55.8987 6.09808 55.8959 6.09808L55.5216 6.06553C55.5135 6.06274 55.5054 6.06003 55.4972 6.05739L55.1066 6.03298L54.6672 5.99229C54.651 5.9893 54.6347 5.98658 54.6184 5.98416L54.1546 5.95974C54.1437 5.95962 54.1329 5.95962 54.122 5.95974L53.6338 5.94347C53.6176 5.94047 53.6013 5.93776 53.585 5.93533L53.0479 5.94347C53.0344 5.94328 53.0208 5.94328 53.0072 5.94347L52.4214 5.95974C52.4186 5.95974 52.4159 5.95974 52.4132 5.95974L51.746 5.98416C51.7433 5.98415 51.7405 5.98415 51.7378 5.98416L50.9485 6.01671L50.0534 6.04925L49.0444 6.0818C49.0363 6.08172 49.0281 6.08172 49.02 6.0818L47.9133 6.13876C47.9052 6.13868 47.8971 6.13868 47.8889 6.13876L46.5951 6.22827C46.5924 6.22827 46.5897 6.22827 46.587 6.22827L45.0979 6.34219L43.5274 6.44798L41.9081 6.54562L40.183 6.61886C40.1776 6.62153 40.1721 6.62425 40.1667 6.627L38.2301 6.73278C38.2219 6.7327 38.2138 6.7327 38.2057 6.73278L36.0005 6.90366L33.5919 7.05013L31.0775 7.22101L25.8452 7.53023L23.1681 7.68483L20.6618 7.77434L18.4404 7.79875L16.52 7.79062C16.5173 7.79062 16.5146 7.79062 16.5119 7.79062L14.8681 7.80689C14.8573 7.80674 14.8464 7.80674 14.8356 7.80689L13.4604 7.85571L12.4514 7.88826C12.4487 7.88826 12.446 7.88826 12.4433 7.88826L11.8818 7.90454H11.6458C11.7383 7.9349 11.8333 7.95117 11.9306 7.95336L11.8492 7.92081C11.6276 7.84685 11.408 7.85239 11.1903 7.93742C10.9727 8.02245 10.8075 8.16727 10.6947 8.3719C10.5819 8.57652 10.5477 8.79354 10.592 9.02295C10.6363 9.25236 10.7489 9.44103 10.9297 9.58894ZM55.9122 7.57905C55.9122 7.91835 56.0322 8.20797 56.2721 8.44789C56.512 8.68781 56.8016 8.80777 57.1409 8.80777C57.4802 8.80777 57.7698 8.68781 58.0098 8.44789C58.2497 8.20797 58.3696 7.91835 58.3697 7.57905C58.3696 7.23975 58.2497 6.95014 58.0098 6.71022C57.7698 6.4703 57.4802 6.35033 57.1409 6.35033C56.8016 6.35033 56.512 6.4703 56.2721 6.71022C56.0322 6.95014 55.9122 7.23975 55.9122 7.57905ZM56.1482 7.59532C56.1482 7.88519 56.2507 8.1326 56.4556 8.33757C56.6606 8.54254 56.908 8.64502 57.1979 8.64502C57.4878 8.64502 57.7352 8.54254 57.9401 8.33757C58.1451 8.1326 58.2476 7.88519 58.2476 7.59532C58.2476 7.30546 58.1451 7.05805 57.9401 6.85308C57.7352 6.64811 57.4878 6.54563 57.1979 6.54562C56.908 6.54563 56.6606 6.64811 56.4556 6.85308C56.2507 7.05805 56.1482 7.30546 56.1482 7.59532ZM57.0758 7.90454L57.1165 7.92895C57.2991 8.01617 57.4424 7.97304 57.5464 7.79957C57.6505 7.6261 57.6211 7.47936 57.4583 7.35934L57.4176 7.33493C57.2351 7.2477 57.0917 7.29082 56.9877 7.4643C56.8836 7.63778 56.913 7.78453 57.0758 7.90454Z" fill="black"/>
<path d="M4.81872 14.8293C4.81872 14.9686 4.86798 15.0875 4.96649 15.186C5.065 15.2845 5.18391 15.3338 5.32323 15.3338C5.46255 15.3338 5.58146 15.2845 5.67997 15.186C5.77848 15.0875 5.82774 14.9686 5.82774 14.8293C5.82774 14.69 5.77848 14.5711 5.67997 14.4726C5.58146 14.374 5.46255 14.3248 5.32323 14.3248C5.18391 14.3248 5.065 14.374 4.96649 14.4726C4.86798 14.5711 4.81872 14.69 4.81872 14.8293ZM4.79431 14.8293C4.79431 14.9731 4.84516 15.0959 4.94684 15.1975C5.04853 15.2992 5.17128 15.3501 5.31509 15.3501C5.4589 15.3501 5.58165 15.2992 5.68334 15.1975C5.78503 15.0959 5.83587 14.9731 5.83587 14.8293C5.83587 14.6855 5.78503 14.5627 5.68334 14.461C5.58165 14.3594 5.4589 14.3085 5.31509 14.3085C5.17128 14.3085 5.04853 14.3594 4.94684 14.461C4.84516 14.5627 4.79431 14.6855 4.79431 14.8293ZM4.69667 14.8293C4.69667 14.9956 4.75545 15.1375 4.87303 15.2551C4.99061 15.3727 5.13254 15.4314 5.29882 15.4314C5.4651 15.4314 5.60703 15.3727 5.7246 15.2551C5.84218 15.1375 5.90097 14.9956 5.90097 14.8293C5.90097 14.663 5.84218 14.5211 5.7246 14.4035C5.60703 14.2859 5.4651 14.2271 5.29882 14.2271C5.13254 14.2271 4.99061 14.2859 4.87303 14.4035C4.75545 14.5211 4.69667 14.663 4.69667 14.8293ZM4.56647 14.8293C4.56647 15.0225 4.63479 15.1875 4.77144 15.3241C4.90808 15.4608 5.07303 15.5291 5.26627 15.5291C5.45951 15.5291 5.62446 15.4608 5.7611 15.3241C5.89775 15.1875 5.96607 15.0225 5.96607 14.8293C5.96607 14.6361 5.89775 14.4711 5.7611 14.3345C5.62446 14.1978 5.45951 14.1295 5.26627 14.1295C5.07303 14.1295 4.90808 14.1978 4.77144 14.3345C4.63479 14.4711 4.56647 14.6361 4.56647 14.8293ZM4.42 14.8537C4.42 15.0762 4.49865 15.266 4.65595 15.4233C4.81325 15.5806 5.00313 15.6593 5.22558 15.6593C5.44804 15.6593 5.63792 15.5806 5.79522 15.4233C5.95252 15.266 6.03117 15.0762 6.03117 14.8537C6.03117 14.6312 5.95252 14.4414 5.79522 14.2841C5.63792 14.1268 5.44804 14.0481 5.22558 14.0481C5.00313 14.0481 4.81325 14.1268 4.65595 14.2841C4.49865 14.4414 4.42 14.6312 4.42 14.8537ZM4.55833 14.2027L4.42814 14.3085C4.29826 14.4177 4.20061 14.5506 4.1352 14.7072L3.99687 15.0246C3.97718 15.0723 3.9609 15.1211 3.94804 15.1711L3.80971 15.7081C3.80036 15.7376 3.79223 15.7675 3.7853 15.7976L3.63883 16.6276C3.63226 16.6572 3.62684 16.6871 3.62255 16.7171L3.50863 17.7994C3.50848 17.8102 3.50848 17.8211 3.50863 17.8319L3.41099 19.0525C3.40819 19.0606 3.40547 19.0687 3.40285 19.0769L3.32961 20.3382C3.32953 20.3463 3.32953 20.3545 3.32961 20.3626L3.27265 21.6564L3.22383 22.9828C3.22382 22.9855 3.22382 22.9882 3.22383 22.9909L3.17501 24.3417C3.17493 24.3498 3.17493 24.358 3.17501 24.3661L3.15873 25.6925C3.15873 25.6952 3.15873 25.6979 3.15873 25.7006L3.1506 26.9944C3.15056 26.9998 3.15056 27.0053 3.1506 27.0107L3.15873 28.2638L3.1506 29.5088C3.15056 29.5142 3.15056 29.5197 3.1506 29.5251L3.15873 30.8026L3.16687 32.1534L3.17501 33.5205L3.16687 34.9038L3.14246 36.2871L3.09364 37.6786C3.09363 37.6813 3.09363 37.684 3.09364 37.6867L3.05295 39.07C3.05294 39.0727 3.05294 39.0755 3.05295 39.0782L3.01226 40.4127L2.9553 41.7472L2.89021 43.0979L2.83324 44.3918L2.76815 45.653C2.76801 45.6639 2.76801 45.6747 2.76815 45.6856L2.7356 46.9468C2.73266 46.9604 2.72995 46.9739 2.72746 46.9875L2.7356 48.2651C2.73787 48.2841 2.74059 48.3031 2.74374 48.322L2.80883 49.5996C2.80875 49.6077 2.80875 49.6158 2.80883 49.624L2.90648 50.869L2.97971 52.057L3.03668 53.1799L3.04481 54.2215L3.02854 55.2061L2.98785 56.1419C2.98784 56.1446 2.98784 56.1473 2.98785 56.15L2.9553 57.0207L2.90648 57.7775L2.81697 58.5098C2.81404 58.5233 2.81133 58.5369 2.80883 58.5505L2.72746 59.4212C2.72393 59.4482 2.72121 59.4753 2.71932 59.5026L2.68678 60.5441C2.68563 60.5767 2.68563 60.6092 2.68678 60.6418L2.72746 61.7728C2.72726 61.7864 2.72726 61.8 2.72746 61.8135L2.8007 62.8714C2.80572 62.9455 2.81657 63.0187 2.83324 63.0911L3.0204 63.9211C3.09322 64.2403 3.26279 64.4951 3.52911 64.6856C3.79543 64.8761 4.0914 64.9543 4.41704 64.92C4.74268 64.8858 5.01594 64.7478 5.23684 64.5062C5.45774 64.2645 5.57062 63.9799 5.57548 63.6525L5.59176 62.8063C5.59083 62.7655 5.58811 62.7248 5.58362 62.6842L5.51039 61.6426L5.45343 60.536L5.42088 59.5107L5.4046 58.6481C5.40461 58.6454 5.40461 58.6427 5.4046 58.64L5.38833 57.9158L5.42901 57.159C5.42902 57.1563 5.42902 57.1536 5.42901 57.1509L5.47784 56.2639C5.47787 56.2585 5.47787 56.2531 5.47784 56.2477L5.51852 55.2956C5.51866 55.2848 5.51866 55.2739 5.51852 55.2631L5.5348 54.2459C5.53488 54.2378 5.53488 54.2296 5.5348 54.2215L5.52666 53.1311C5.52698 53.1148 5.52698 53.0986 5.52666 53.0823L5.4697 51.9268C5.46984 51.916 5.46984 51.9051 5.4697 51.8943L5.38019 50.69L5.29882 49.4612L5.24186 48.2244L5.23372 46.9957L5.27441 45.7751L5.3395 44.522L5.4046 43.22L5.47784 41.8692C5.47798 41.8584 5.47798 41.8475 5.47784 41.8367L5.51852 40.5022L5.55921 39.1595L5.61617 37.7762C5.61618 37.7735 5.61618 37.7708 5.61617 37.7681L5.66499 36.3603C5.66503 36.3549 5.66503 36.3495 5.66499 36.3441L5.6894 34.9363C5.68949 34.9282 5.68949 34.9201 5.6894 34.9119L5.68127 33.5205C5.68128 33.5177 5.68128 33.515 5.68127 33.5123L5.67313 32.1371L5.66499 30.7864C5.66503 30.7809 5.66503 30.7755 5.66499 30.7701L5.64058 29.4925L5.61617 28.2475L5.60803 27.0026L5.61617 25.7169L5.63244 24.4068L5.66499 23.0641C5.665 23.0614 5.665 23.0587 5.66499 23.056L5.69754 21.7296L5.72195 20.4602L5.79519 19.2315L5.8847 18.0272L5.98234 16.945L6.05558 16.1068L6.11254 15.5698L6.15322 15.2362C6.16572 15.1241 6.1603 15.0129 6.13695 14.9025L6.09626 14.7316C6.06071 14.5694 5.9877 14.4262 5.87722 14.3022C5.76675 14.1782 5.63297 14.0891 5.4759 14.0351C5.31882 13.9811 5.15858 13.969 4.99518 13.9988C4.83178 14.0287 4.68616 14.0967 4.55833 14.2027ZM3.6551 64.1652C3.6551 64.3584 3.72342 64.5234 3.86007 64.66C3.99671 64.7966 4.16166 64.865 4.3549 64.865C4.54815 64.865 4.71309 64.7966 4.84974 64.66C4.98638 64.5234 5.0547 64.3584 5.0547 64.1652C5.0547 63.9719 4.98638 63.807 4.84974 63.6703C4.71309 63.5337 4.54815 63.4654 4.3549 63.4654C4.16166 63.4654 3.99671 63.5337 3.86007 63.6703C3.72342 63.807 3.6551 63.9719 3.6551 64.1652ZM4.06196 64.572L4.09451 64.6453C4.13728 64.7418 4.20789 64.809 4.30634 64.8471C4.4048 64.8851 4.5023 64.8828 4.59885 64.8402C4.6954 64.7975 4.76275 64.727 4.80091 64.6286C4.83906 64.5302 4.83687 64.4326 4.79431 64.3361L4.76176 64.2628C4.71904 64.1663 4.64843 64.0989 4.54994 64.0608C4.45146 64.0227 4.35392 64.025 4.25733 64.0677C4.16074 64.1104 4.09338 64.1809 4.05523 64.2794C4.01709 64.3779 4.01933 64.4754 4.06196 64.572Z" fill="black"/>
<path d="M10.5067 65.8228C10.5067 65.9577 10.5544 66.0727 10.6497 66.1681C10.7451 66.2634 10.8601 66.3111 10.995 66.3111C11.1298 66.3111 11.2449 66.2634 11.3402 66.1681C11.4355 66.0727 11.4832 65.9577 11.4832 65.8228C11.4832 65.688 11.4355 65.5729 11.3402 65.4776C11.2449 65.3823 11.1298 65.3346 10.995 65.3346C10.8601 65.3346 10.7451 65.3823 10.6497 65.4776C10.5544 65.5729 10.5067 65.688 10.5067 65.8228ZM10.3603 65.831C10.3603 66.0062 10.4222 66.1558 10.5462 66.2798C10.6701 66.4037 10.8197 66.4657 10.995 66.4657C11.1702 66.4657 11.3198 66.4037 11.4438 66.2798C11.5677 66.1558 11.6297 66.0062 11.6297 65.831C11.6297 65.6557 11.5677 65.5061 11.4438 65.3822C11.3198 65.2582 11.1702 65.1963 10.995 65.1963C10.8197 65.1963 10.6701 65.2582 10.5462 65.3822C10.4222 65.5061 10.3603 65.6557 10.3603 65.831ZM10.2626 65.953L10.2708 66.01C10.3088 66.2984 10.4553 66.5126 10.7102 66.6528L10.8973 66.7586C10.9745 66.7999 11.0559 66.8297 11.1414 66.8481L11.5971 66.9458C11.6267 66.9526 11.6565 66.958 11.6866 66.962L12.4515 67.0597C12.457 67.0597 12.4624 67.0597 12.4678 67.0597L13.607 67.1899C13.6179 67.19 13.6287 67.19 13.6396 67.1899L15.2019 67.3119C15.2046 67.3119 15.2073 67.3119 15.21 67.3119L17.1141 67.4421L19.2868 67.5967C19.2895 67.5967 19.2922 67.5967 19.2949 67.5967L21.7524 67.7595C21.7551 67.7595 21.7578 67.7595 21.7605 67.7595L24.4539 67.9304L27.2857 68.1094L30.1988 68.2965L33.1038 68.4756L35.8867 68.6546C35.8894 68.6546 35.8921 68.6546 35.8948 68.6546L38.4662 68.8173L40.7853 68.9557C40.7907 68.9557 40.7961 68.9557 40.8016 68.9557L42.8847 69.0614C42.901 69.0617 42.9172 69.0617 42.9335 69.0614L44.8539 69.0858C44.8593 69.0859 44.8647 69.0859 44.8702 69.0858L46.7092 69.0777C46.7173 69.0778 46.7254 69.0778 46.7336 69.0777L48.4831 69.0452C48.4885 69.0452 48.4939 69.0452 48.4994 69.0452L50.1268 68.9882C50.1349 68.9883 50.1431 68.9883 50.1512 68.9882L51.6322 68.9231C51.6403 68.9205 51.6485 68.9178 51.6566 68.915L52.9992 68.8255C53.0155 68.8258 53.0318 68.8258 53.0481 68.8255L54.2524 68.7034C54.2687 68.701 54.285 68.6983 54.3012 68.6953L55.3672 68.5488C55.3862 68.5465 55.4052 68.5438 55.4241 68.5407L56.368 68.3616C56.3871 68.3566 56.4061 68.3512 56.425 68.3454L57.2794 68.1419C57.2821 68.1419 57.2848 68.1419 57.2875 68.1419L58.0687 67.9548L58.7441 67.8164L59.2974 67.7107L59.7124 67.6374C59.7315 67.6351 59.7505 67.6324 59.7694 67.6293L60.0623 67.5642C60.0814 67.5592 60.1004 67.5538 60.1193 67.5479L60.3227 67.491C60.3612 67.4818 60.3991 67.4709 60.4366 67.4584L60.5668 67.4096C60.6996 67.361 60.8217 67.2932 60.933 67.2062L60.9981 67.1492C61.1301 67.0448 61.2385 66.92 61.3236 66.7749L61.348 66.7423C61.0815 66.8593 60.8754 67.0438 60.7296 67.2957L60.7459 67.2794C60.573 67.2852 60.4076 67.3232 60.2495 67.3933H60.2983H60.5506C60.5533 67.3933 60.556 67.3933 60.5587 67.3933H60.697C60.7707 67.394 60.8439 67.3886 60.9167 67.377L60.9981 67.3689C61.3172 67.3139 61.5803 67.162 61.7874 66.9132L61.8037 66.8969C61.9054 66.7807 61.984 66.6505 62.0397 66.5064L62.0478 66.4738C61.9415 66.5944 61.8601 66.7301 61.8037 66.8807L61.8525 66.8318C61.9014 66.7732 61.9448 66.7109 61.9827 66.6447L62.0234 66.5796C62.0743 66.4947 62.115 66.4052 62.1454 66.3111L62.1699 66.2378C62.2827 65.8954 62.258 65.5631 62.0959 65.241C61.9337 64.919 61.6815 64.7013 61.3392 64.5879C60.9969 64.4746 60.6646 64.4987 60.3423 64.6604C60.02 64.822 59.8019 65.0739 59.688 65.416L59.6636 65.4892C59.7248 65.3977 59.7736 65.3001 59.8101 65.1963L59.8019 65.2044C59.8487 65.1614 59.8921 65.1153 59.9321 65.0661L59.9077 65.0905C59.9243 65.0773 59.9406 65.0637 59.9565 65.0498L59.9403 65.0661C60.2425 65.0518 60.5083 64.946 60.7377 64.7487L60.6726 64.7569H60.6319L60.4285 64.7324C60.3933 64.7283 60.3581 64.7256 60.3227 64.7243H60.2495C60.1338 64.7231 60.0199 64.7366 59.9077 64.765H59.8833C59.6256 64.827 59.4059 64.9545 59.2242 65.1474L59.1916 65.18C59.2623 65.1293 59.3274 65.0724 59.3869 65.0091L59.3218 65.0579C59.4292 65.0166 59.5295 64.9623 59.6229 64.8952L59.5497 64.9277L59.4358 64.9521L59.2161 65.001L58.8336 65.0742C58.8255 65.0741 58.8173 65.0741 58.8092 65.0742L58.2396 65.18C58.2341 65.1827 58.2287 65.1854 58.2233 65.1881L57.5072 65.3346C57.4936 65.3371 57.4801 65.3398 57.4666 65.3427L56.661 65.538L55.831 65.7333L54.9603 65.9042L53.9594 66.0344L52.7958 66.1565L51.4857 66.246L50.0291 66.3192L48.4261 66.3599L46.6848 66.4087L44.8783 66.4168L42.9905 66.3924L40.9399 66.3029L38.6289 66.1646L36.0576 66.0018L33.2665 65.8228C33.2638 65.8228 33.2611 65.8228 33.2584 65.8228L30.3534 65.6601L27.4484 65.4892C27.4457 65.4892 27.443 65.4892 27.4403 65.4892L24.6085 65.3265C24.6058 65.3265 24.6031 65.3265 24.6004 65.3265L21.907 65.18C21.9015 65.18 21.8961 65.18 21.8907 65.18L19.4251 65.0905C19.4224 65.0905 19.4197 65.0905 19.417 65.0905L17.2362 65.0172C17.2335 65.0172 17.2308 65.0172 17.2281 65.0172L15.324 64.9603C15.3158 64.9602 15.3077 64.9602 15.2996 64.9603L13.7372 64.9521C13.7291 64.9521 13.7209 64.9521 13.7128 64.9521L12.5654 64.9684L11.7924 64.9847C11.7843 64.9846 11.7761 64.9846 11.768 64.9847L11.3042 65.001C11.2742 65.0022 11.2444 65.005 11.2147 65.0091L11.0112 65.0417C10.8614 65.0603 10.7258 65.1145 10.6044 65.2044L10.5556 65.2369C10.32 65.4192 10.2223 65.6579 10.2626 65.953ZM59.745 65.7659C59.745 66.0962 59.8618 66.3781 60.0953 66.6117C60.3289 66.8453 60.6108 66.962 60.9411 66.962C61.2715 66.962 61.5534 66.8453 61.787 66.6117C62.0205 66.3781 62.1373 66.0962 62.1373 65.7659C62.1373 65.4356 62.0205 65.1536 61.787 64.92C61.5534 64.6865 61.2715 64.5697 60.9411 64.5697C60.6108 64.5697 60.3289 64.6865 60.0953 64.92C59.8618 65.1536 59.745 65.4356 59.745 65.7659ZM61.3806 65.8147L61.3887 65.7821C61.4178 65.6631 61.4005 65.5512 61.337 65.4464C61.2734 65.3416 61.1821 65.2746 61.0631 65.2455C60.9441 65.2163 60.8322 65.2334 60.7273 65.2969C60.6225 65.3603 60.5554 65.4516 60.5261 65.5706L60.518 65.6031C60.4889 65.7222 60.5061 65.8341 60.5697 65.9389C60.6333 66.0436 60.7246 66.1106 60.8436 66.1398C60.9626 66.169 61.0745 66.1519 61.1794 66.0884C61.2842 66.0249 61.3513 65.9337 61.3806 65.8147Z" fill="black"/>
<path d="M60.046 63.8374C60.046 63.9969 60.1024 64.1331 60.2152 64.2459C60.328 64.3587 60.4642 64.4151 60.6237 64.4151C60.7833 64.4151 60.9195 64.3587 61.0323 64.2459C61.1451 64.1331 61.2015 63.9969 61.2015 63.8374C61.2015 63.6778 61.1451 63.5416 61.0323 63.4288C60.9195 63.316 60.7833 63.2596 60.6237 63.2596C60.4642 63.2596 60.328 63.316 60.2152 63.4288C60.1024 63.5416 60.046 63.6778 60.046 63.8374ZM60.5993 63.2108H60.5261C60.374 63.2047 60.2357 63.2454 60.1111 63.3329L60.0297 63.3898C59.7961 63.5552 59.6931 63.7803 59.7205 64.0652L59.7368 64.2442C59.7386 64.266 59.7413 64.2877 59.7449 64.3093L59.7856 64.5209V64.8545C59.7887 64.9819 59.8212 65.1013 59.8833 65.2126L59.9728 65.3916L59.8263 65.7008C59.7814 65.7952 59.7764 65.8916 59.8113 65.9901C59.8463 66.0886 59.9109 66.1603 60.0053 66.2053C60.0997 66.2502 60.1961 66.2552 60.2946 66.2203C60.3932 66.1853 60.4649 66.1206 60.5098 66.0263L60.6807 65.652L60.9167 65.5299C61.2028 65.3806 61.3411 65.1446 61.3317 64.822L61.3154 64.4232C61.3124 64.3595 61.3015 64.2971 61.2829 64.2361L61.2096 63.9676L61.1852 63.8618L61.1771 63.8292C61.1097 63.951 61.0826 64.0812 61.0957 64.2198L61.1283 64.1629C61.1841 64.0663 61.2125 63.9622 61.2135 63.8506C61.2144 63.739 61.1878 63.6345 61.1336 63.5369C61.0794 63.4394 61.0047 63.3616 60.9095 63.3034C60.8142 63.2453 60.7109 63.2144 60.5993 63.2108Z" fill="black"/>
<path d="M60.8479 13.7014H60.8398C60.8809 13.7907 60.9432 13.8613 61.0269 13.9129L61.0188 13.8885C61.0119 13.869 61.0037 13.85 60.9944 13.8316L60.9781 13.8153C60.8938 13.6794 60.7722 13.6023 60.6133 13.584C60.4545 13.5657 60.3185 13.613 60.2054 13.7261C60.0924 13.8392 60.045 13.9751 60.0633 14.134C60.0817 14.2929 60.1587 14.4145 60.2946 14.4988L60.3109 14.5151C60.2823 14.4809 60.2498 14.451 60.2132 14.4256L60.2295 14.45C60.4109 14.6424 60.6143 14.6695 60.8398 14.5314H60.8479C60.9218 14.4884 60.9801 14.4298 61.0227 14.3557C61.0653 14.2816 61.0866 14.2018 61.0866 14.1164C61.0866 14.0309 61.0653 13.9511 61.0227 13.877C60.9801 13.8029 60.9218 13.7443 60.8479 13.7014ZM60.1319 13.7827L60.0586 13.8804C59.9871 13.9691 59.941 14.0694 59.9203 14.1815L59.8633 14.4825C59.8577 14.5203 59.855 14.5583 59.8552 14.5964L59.8389 15.0928L59.782 15.817C59.7819 15.8197 59.7819 15.8225 59.782 15.8252L59.7169 16.8098C59.7168 16.8152 59.7168 16.8206 59.7169 16.826L59.6599 18.0059C59.6569 18.0194 59.6542 18.033 59.6518 18.0466L59.6273 20.7563C59.6273 20.759 59.6273 20.7617 59.6273 20.7645V22.2536L59.6192 23.7508L59.6111 25.2155L59.5948 26.5663L59.5622 27.8113L59.5216 28.9749C59.5216 28.9776 59.5216 28.9803 59.5216 28.983L59.489 30.0897L59.4565 31.0824C59.4564 31.0906 59.4564 31.0987 59.4565 31.1068L59.4483 31.9612C59.4481 31.9748 59.4481 31.9884 59.4483 32.0019L59.4727 32.6692L59.4646 33.2144C59.4638 33.2361 59.4638 33.2578 59.4646 33.2795L59.5134 34.0769C59.5227 34.255 59.5878 34.4097 59.7087 34.5407L59.8226 34.6628C59.841 34.4984 59.7949 34.3546 59.6843 34.2315L59.668 34.3943C59.6726 34.5324 59.7219 34.6521 59.8161 34.7532C59.9103 34.8544 60.0261 34.9121 60.1636 34.9265C60.301 34.9409 60.4263 34.9083 60.5394 34.8288C60.6524 34.7493 60.7254 34.6424 60.7584 34.5082L60.7747 34.3454C60.6438 34.4432 60.5706 34.5734 60.555 34.736L60.6852 34.6384C60.8301 34.5344 60.925 34.396 60.97 34.2234L61.1734 33.4585C61.1797 33.437 61.1851 33.4153 61.1897 33.3934L61.2955 32.8319C61.2955 32.8292 61.2955 32.8265 61.2955 32.8238L61.4175 32.1403C61.421 32.1187 61.4237 32.097 61.4257 32.0752L61.5152 31.2208C61.5156 31.2045 61.5156 31.1882 61.5152 31.1719L61.5721 30.1792C61.5722 30.1711 61.5722 30.1629 61.5721 30.1548L61.6047 29.0481L61.6454 27.8764C61.6454 27.8737 61.6454 27.8709 61.6454 27.8682L61.6779 26.6151C61.678 26.6097 61.678 26.6043 61.6779 26.5988L61.6942 25.2318C61.6942 25.2291 61.6942 25.2264 61.6942 25.2236L61.7023 23.7589C61.7023 23.7562 61.7023 23.7535 61.7023 23.7508L61.6942 22.2454L61.6779 20.7563C61.6779 20.7536 61.6779 20.7509 61.6779 20.7482L61.6372 18.0385C61.6347 18.0276 61.632 18.0167 61.6291 18.0059L61.5721 16.826C61.5722 16.8179 61.5722 16.8098 61.5721 16.8016L61.4908 15.8089C61.4908 15.8035 61.4908 15.798 61.4908 15.7926L61.4175 15.0521L61.3687 14.5476C61.3624 14.4863 61.3489 14.4266 61.328 14.3686L61.2222 14.0757C61.1822 13.9635 61.1171 13.8686 61.0269 13.7909L60.9374 13.7095C60.8179 13.6027 60.6783 13.5566 60.5187 13.5711C60.3591 13.5856 60.2302 13.6562 60.1319 13.7827Z" fill="black"/>
<path d="M9.51028 14.5884C9.51028 14.7187 9.55636 14.8299 9.64852 14.9221C9.74067 15.0143 9.85191 15.0603 9.98224 15.0603C10.1126 15.0603 10.2238 15.0143 10.316 14.9221C10.4081 14.8299 10.4542 14.7187 10.4542 14.5884C10.4542 14.458 10.4081 14.3468 10.316 14.2546C10.2238 14.1625 10.1126 14.1164 9.98224 14.1164C9.85191 14.1164 9.74067 14.1625 9.64852 14.2546C9.55636 14.3468 9.51028 14.458 9.51028 14.5884ZM9.46145 14.5721C9.46146 14.7114 9.51071 14.8303 9.60923 14.9288C9.70774 15.0274 9.82665 15.0766 9.96596 15.0766C10.1053 15.0766 10.2242 15.0274 10.3227 14.9288C10.4212 14.8303 10.4705 14.7114 10.4705 14.5721C10.4705 14.4328 10.4212 14.3139 10.3227 14.2154C10.2242 14.1168 10.1053 14.0676 9.96596 14.0676C9.82665 14.0676 9.70774 14.1168 9.60923 14.2154C9.51071 14.3139 9.46146 14.4328 9.46145 14.5721ZM9.34753 14.5396C9.34753 14.6991 9.40394 14.8353 9.51675 14.9481C9.62956 15.0609 9.76574 15.1173 9.92528 15.1173C10.0848 15.1173 10.221 15.0609 10.3338 14.9481C10.4466 14.8353 10.503 14.6991 10.503 14.5396C10.503 14.38 10.4466 14.2438 10.3338 14.131C10.221 14.0182 10.0848 13.9618 9.92528 13.9618C9.76574 13.9618 9.62956 14.0182 9.51675 14.131C9.40394 14.2438 9.34753 14.38 9.34753 14.5396ZM9.16852 14.4907C9.16852 14.684 9.23684 14.8489 9.37349 14.9856C9.51013 15.1222 9.67507 15.1905 9.86832 15.1905C10.0616 15.1905 10.2265 15.1222 10.3632 14.9856C10.4998 14.8489 10.5681 14.684 10.5681 14.4907C10.5681 14.2975 10.4998 14.1325 10.3632 13.9959C10.2265 13.8592 10.0616 13.7909 9.86832 13.7909C9.67507 13.7909 9.51013 13.8592 9.37349 13.9959C9.23684 14.1325 9.16852 14.2975 9.16852 14.4907ZM8.94881 14.4419C8.94881 14.6801 9.03303 14.8834 9.20145 15.0518C9.36987 15.2202 9.57317 15.3044 9.81135 15.3044C10.0495 15.3044 10.2528 15.2202 10.4213 15.0518C10.5897 14.8834 10.6739 14.6801 10.6739 14.4419C10.6739 14.2037 10.5897 14.0004 10.4213 13.832C10.2528 13.6636 10.0495 13.5794 9.81135 13.5794C9.57317 13.5794 9.36987 13.6636 9.20145 13.832C9.03303 14.0004 8.94881 14.2037 8.94881 14.4419ZM9.59979 15.3451L9.65675 15.3614C9.66217 15.3614 9.6676 15.3614 9.67302 15.3614L9.94155 15.4102C9.97654 15.4174 10.0118 15.4229 10.0473 15.4265L10.6413 15.4753C10.663 15.476 10.6847 15.476 10.7064 15.4753L11.6097 15.4997C11.6151 15.4998 11.6205 15.4998 11.626 15.4997L12.8058 15.5079L14.2705 15.5242L16.0689 15.5486L18.1276 15.5811L20.2758 15.6218L22.424 15.6788L24.4909 15.7439L26.5089 15.8171L28.4862 15.8822C28.489 15.8822 28.4917 15.8822 28.4944 15.8822L30.3985 15.931L32.2212 15.988L33.987 16.0368C33.9924 16.0368 33.9978 16.0368 34.0033 16.0368L35.8016 16.0612L37.7057 16.0938C37.7084 16.0938 37.7111 16.0938 37.7138 16.0938L39.6505 16.11C39.6559 16.1101 39.6613 16.1101 39.6668 16.11H41.5546C41.5627 16.1101 41.5709 16.1101 41.579 16.11L43.3529 16.0775C43.3638 16.0776 43.3746 16.0776 43.3855 16.0775L44.9885 16.0042L46.5264 15.9391L48.0562 15.8741C48.0617 15.8741 48.0671 15.8741 48.0725 15.8741L49.6837 15.8008L51.2948 15.7357L52.8165 15.6706C52.8192 15.6706 52.8219 15.6706 52.8246 15.6706L54.1998 15.6055C54.2107 15.6057 54.2215 15.6057 54.2324 15.6055L55.396 15.516C55.4232 15.5141 55.4503 15.5114 55.4774 15.5079L56.4864 15.3695C56.5081 15.3674 56.5298 15.3647 56.5515 15.3614L57.4791 15.1824C57.4818 15.1824 57.4845 15.1824 57.4872 15.1824L58.301 15.0196L58.9601 14.9057L59.4971 14.8325L59.8796 14.7999L60.1318 14.7837C60.0213 14.7639 59.9101 14.7585 59.7982 14.7674L59.8959 14.7837C59.7563 14.2486 59.4145 13.9312 58.8706 13.8316L58.8868 13.8804C58.8939 13.7481 58.8804 13.6179 58.8462 13.4899L58.838 13.5875C58.8211 13.8776 58.9027 14.1368 59.0827 14.3649C59.2628 14.593 59.4958 14.7326 59.7819 14.7837L59.8796 14.7999C60.1172 14.8421 60.3477 14.8177 60.5713 14.7267L60.6201 14.7104C60.8737 14.6115 61.0764 14.4491 61.2282 14.2231C61.3799 13.997 61.4535 13.7479 61.449 13.4757C61.4444 13.2035 61.3626 12.957 61.2034 12.7361C61.0442 12.5153 60.8362 12.3596 60.5794 12.2693L60.4899 12.2367C60.3187 12.1756 60.1423 12.1512 59.961 12.1635L59.7006 12.1798C59.6843 12.1795 59.668 12.1795 59.6517 12.1798L59.2205 12.2286C59.2014 12.2309 59.1824 12.2336 59.1635 12.2367L58.5695 12.3181C58.5586 12.3207 58.5478 12.3234 58.5369 12.3262L57.8371 12.4402C57.8263 12.4427 57.8154 12.4454 57.8046 12.4483L56.9909 12.611L56.0958 12.7738L55.16 12.904L54.0533 12.9853L52.7026 13.0504L51.1809 13.1155L49.5697 13.1806C49.5643 13.1806 49.5589 13.1806 49.5535 13.1806L47.9342 13.2701L46.3962 13.3597L44.8664 13.4329L43.2797 13.5061L41.5302 13.5549L39.6668 13.5712L37.7382 13.5549L35.8341 13.5387L34.0358 13.5143L32.2782 13.4817L30.4636 13.441C30.4554 13.4409 30.4473 13.4409 30.4392 13.441L28.5351 13.4248L26.5659 13.4085L24.556 13.3841L22.481 13.3352L20.3246 13.2783C20.3219 13.2783 20.3192 13.2783 20.3165 13.2783L18.1601 13.2539C18.1574 13.2539 18.1547 13.2539 18.152 13.2539L16.0933 13.2376L14.295 13.2295L12.8221 13.2132C12.8113 13.213 12.8004 13.213 12.7896 13.2132L11.6097 13.2376L10.7064 13.262C10.6956 13.2618 10.6847 13.2618 10.6739 13.262L10.0799 13.2946C10.0138 13.2993 9.94867 13.3102 9.88459 13.3271L9.61606 13.3922C9.30783 13.4689 9.08542 13.6506 8.94881 13.9374L8.9244 13.9862C8.86155 14.12 8.83095 14.2608 8.83258 14.4086C8.83422 14.5564 8.86793 14.6965 8.93372 14.8289C8.99951 14.9613 9.09081 15.0727 9.20765 15.1633C9.32448 15.2538 9.45519 15.3144 9.59979 15.3451ZM58.9113 13.7421C58.9113 13.996 59.001 14.2127 59.1806 14.3923C59.3601 14.5718 59.5769 14.6616 59.8308 14.6616C60.0847 14.6616 60.3014 14.5718 60.481 14.3923C60.6605 14.2127 60.7503 13.996 60.7503 13.7421C60.7503 13.4882 60.6605 13.2715 60.481 13.0919C60.3014 12.9124 60.0847 12.8226 59.8308 12.8226C59.5769 12.8226 59.3601 12.9124 59.1806 13.0919C59.001 13.2715 58.9113 13.4882 58.9113 13.7421ZM59.0984 13.8153C59.0984 13.9681 59.1524 14.0986 59.2605 14.2066C59.3685 14.3146 59.4989 14.3687 59.6517 14.3687C59.8045 14.3687 59.935 14.3146 60.043 14.2066C60.1511 14.0986 60.2051 13.9681 60.2051 13.8153C60.2051 13.6625 60.1511 13.5321 60.043 13.4241C59.935 13.316 59.8045 13.262 59.6517 13.262C59.4989 13.262 59.3685 13.316 59.2605 13.4241C59.1524 13.5321 59.0984 13.6625 59.0984 13.8153ZM59.3669 13.5794L59.2286 13.6282C59.0279 13.6987 58.9628 13.8343 59.0333 14.035C59.1038 14.2358 59.2395 14.3009 59.4402 14.2303L59.5785 14.1815C59.7792 14.111 59.8443 13.9754 59.7738 13.7747C59.7033 13.5739 59.5677 13.5088 59.3669 13.5794Z" fill="black"/>
<path d="M60.4988 13.5521L60.4907 13.7312C60.4906 13.7339 60.4906 13.7366 60.4907 13.7393L60.4825 13.9671C60.4825 13.9698 60.4825 13.9726 60.4825 13.9753V14.3496L60.4744 14.9029L60.4825 15.6109C60.4825 15.6136 60.4825 15.6163 60.4825 15.619L60.4907 16.4571L60.4988 17.4092L60.4907 18.4182L60.4744 19.476L60.4418 20.5583L60.3849 21.6975L60.271 22.8774C60.2709 22.8801 60.2709 22.8828 60.271 22.8855L60.1733 24.0898C60.1733 24.0925 60.1733 24.0952 60.1733 24.098L60.0838 25.2779C60.0838 25.2806 60.0838 25.2833 60.0838 25.286L60.0024 26.474L59.9211 27.6865C59.921 27.6892 59.921 27.6919 59.9211 27.6946L59.856 28.9233C59.8558 28.9315 59.8558 28.9396 59.856 28.9477L59.8315 30.1602C59.8315 30.1656 59.8315 30.171 59.8315 30.1764L59.8153 31.3726L59.799 32.463L59.7664 34.4078L59.7176 35.3436C59.7176 35.3463 59.7176 35.349 59.7176 35.3517L59.6688 36.3282L59.6281 37.3372C59.6253 37.3453 59.6226 37.3534 59.62 37.3616L59.5956 38.3788L59.5712 39.3878C59.5711 39.3932 59.5711 39.3986 59.5712 39.404L59.5549 40.3968L59.5305 41.4058L59.4735 43.4401L59.4491 44.441L59.4328 45.3849C59.4328 45.3903 59.4328 45.3957 59.4328 45.4012L59.4247 46.2963C59.4245 46.3071 59.4245 46.318 59.4247 46.3288L59.4491 47.1995L59.4654 48.0702C59.4653 48.0756 59.4653 48.081 59.4654 48.0864L59.4898 48.9408C59.4897 48.9463 59.4897 48.9517 59.4898 48.9571L59.5223 49.8197C59.5223 49.8251 59.5223 49.8305 59.5223 49.8359L59.62 51.6017L59.6688 52.4398L59.7013 53.2454L59.7176 54.0429L59.7258 54.8485V55.6134C59.7256 55.6242 59.7256 55.6351 59.7258 55.6459L59.742 56.3538C59.742 56.3593 59.742 56.3647 59.742 56.3701L59.7664 57.0374C59.7663 57.0482 59.7663 57.0591 59.7664 57.0699L59.8071 57.6965C59.8071 57.6992 59.8071 57.7019 59.8071 57.7046L59.8478 58.2905C59.8503 58.3041 59.853 58.3177 59.856 58.3312L59.9129 58.8601L59.9455 59.3646L59.9861 59.9098L60.0024 60.4713V61.0409L60.0106 61.6023L60.0024 62.115C60.0024 62.1177 60.0024 62.1204 60.0024 62.1231L59.9943 62.5951C59.9941 62.6086 59.9941 62.6222 59.9943 62.6358L60.0024 63.0182C60.0019 63.0399 60.0019 63.0616 60.0024 63.0833L60.0268 63.3681C60.028 63.4035 60.0307 63.4388 60.035 63.4739L60.0675 63.6855C60.0788 63.7491 60.0951 63.8115 60.1163 63.8726L60.157 64.0028L60.1896 64.1249V64.133C60.2343 64.5064 60.4188 64.7885 60.7429 64.9793L60.7673 64.9874C61.0343 65.1436 61.3164 65.1789 61.6136 65.0932L61.638 65.0851C61.8943 65.0113 62.0994 64.8654 62.2533 64.6476C62.4071 64.4297 62.476 64.1877 62.4599 63.9214L62.4517 63.8645V63.7343L62.4599 63.6529C62.463 63.634 62.4657 63.615 62.468 63.596L62.4843 63.3844C62.4879 63.3574 62.4906 63.3302 62.4924 63.303V63.0426L62.5168 62.6846C62.5171 62.6683 62.5171 62.652 62.5168 62.6358L62.525 62.1638C62.525 62.1611 62.525 62.1584 62.525 62.1557L62.5331 61.6267C62.5331 61.624 62.5331 61.6213 62.5331 61.6186L62.5412 61.0409C62.5414 61.03 62.5414 61.0192 62.5412 61.0083L62.525 60.4224C62.525 60.4197 62.525 60.417 62.525 60.4143L62.5087 59.8203C62.5091 59.8013 62.5091 59.7823 62.5087 59.7633L62.468 59.1856C62.468 59.1802 62.468 59.1747 62.468 59.1693L62.4192 58.6404C62.4193 58.6323 62.4193 58.6241 62.4192 58.616L62.3622 58.0789L62.3134 57.5175L62.2727 56.9234L62.2483 56.2725C62.2483 56.2698 62.2483 56.267 62.2483 56.2643L62.2157 55.5727L62.1995 54.8159C62.1995 54.8105 62.1995 54.8051 62.1995 54.7996L62.1751 53.9859C62.1752 53.9751 62.1752 53.9642 62.1751 53.9534L62.1262 53.1315L62.0774 52.3178C62.0774 52.3151 62.0774 52.3124 62.0774 52.3096L62.0286 51.4634C62.0286 51.458 62.0286 51.4525 62.0286 51.4471L61.8984 49.6813C61.8957 49.6759 61.893 49.6705 61.8903 49.6651L61.817 48.8025C61.8171 48.7971 61.8171 48.7917 61.817 48.7862L61.7275 47.9481L61.6624 47.1018L61.6217 46.2556L61.581 45.3849V44.4654L61.5892 43.4726L61.5973 41.4383L61.6055 40.4293C61.6055 40.4266 61.6055 40.4239 61.6055 40.4212V39.4203L61.6136 38.4113L61.6217 37.3942L61.638 36.3933C61.638 36.3878 61.638 36.3824 61.638 36.377V35.3924C61.6382 35.3815 61.6382 35.3707 61.638 35.3598L61.6055 34.4078L61.5404 32.4549L61.5241 31.3726C61.5241 31.3699 61.5241 31.3672 61.5241 31.3645L61.4915 30.1683L61.4834 28.9559L61.4671 27.7272L61.4508 26.5228L61.4671 25.3511L61.5078 24.1712C61.5078 24.1685 61.5078 24.1658 61.5078 24.1631L61.5404 22.9506C61.5405 22.9425 61.5405 22.9343 61.5404 22.9262L61.5241 21.73L61.4997 20.5745C61.4997 20.5718 61.4997 20.5691 61.4997 20.5664L61.4671 19.4679C61.4671 19.4652 61.4671 19.4625 61.4671 19.4597L61.4183 18.4019L61.3613 17.3848C61.3614 17.3821 61.3614 17.3793 61.3613 17.3766L61.2881 16.4246C61.2854 16.4218 61.2827 16.4191 61.28 16.4164L61.1986 15.5702L61.1254 14.8704L61.0684 14.3252L61.0358 13.959L61.0277 13.7393C61.0278 13.7366 61.0278 13.7339 61.0277 13.7312L61.0196 13.5521C61.0196 13.3785 60.9328 13.2917 60.7592 13.2917C60.5856 13.2917 60.4988 13.3785 60.4988 13.5521ZM60.572 64.0923C60.572 64.2923 60.6427 64.463 60.7841 64.6044C60.9256 64.7458 61.0963 64.8165 61.2962 64.8165C61.4962 64.8165 61.6669 64.7458 61.8083 64.6044C61.9497 64.463 62.0204 64.2923 62.0204 64.0923C62.0204 63.8923 61.9497 63.7216 61.8083 63.5802C61.6669 63.4388 61.4962 63.3681 61.2962 63.3681C61.0963 63.3681 60.9256 63.4388 60.7841 63.5802C60.6427 63.7216 60.572 63.8923 60.572 64.0923ZM61.6217 63.9703L61.6055 63.8889C61.5445 63.6884 61.4111 63.6077 61.2052 63.6469C60.9993 63.6861 60.9049 63.8102 60.9219 64.0191L60.9382 64.1005C60.9991 64.301 61.1326 64.3817 61.3385 64.3425C61.5444 64.3032 61.6388 64.1792 61.6217 63.9703Z" fill="black"/>
<path d="M10.2927 13.699C10.2927 13.8068 10.3308 13.8989 10.4071 13.9752C10.4834 14.0514 10.5754 14.0896 10.6833 14.0896C10.7911 14.0896 10.8832 14.0514 10.9595 13.9752C11.0357 13.8989 11.0739 13.8068 11.0739 13.699C11.0739 13.5911 11.0357 13.4991 10.9595 13.4228C10.8832 13.3465 10.7911 13.3084 10.6833 13.3084C10.5754 13.3084 10.4834 13.3465 10.4071 13.4228C10.3308 13.4991 10.2927 13.5911 10.2927 13.699ZM9.97534 13.3979C9.97534 13.5934 10.0445 13.7602 10.1827 13.8985C10.3209 14.0367 10.4878 14.1058 10.6833 14.1058C10.8788 14.1058 11.0456 14.0367 11.1839 13.8985C11.3221 13.7602 11.3912 13.5934 11.3912 13.3979C11.3912 13.2024 11.3221 13.0355 11.1839 12.8973C11.0456 12.7591 10.8788 12.69 10.6833 12.69C10.4878 12.69 10.3209 12.7591 10.1827 12.8973C10.0445 13.0355 9.97534 13.2024 9.97534 13.3979ZM9.95093 13.2596L9.94279 13.284L9.91838 13.3898C9.91184 13.4139 9.90641 13.4383 9.9021 13.463L9.85328 13.7397C9.85308 13.7505 9.85308 13.7614 9.85328 13.7722L9.78818 14.2198C9.78789 14.2333 9.78789 14.2469 9.78818 14.2604L9.73122 14.9196C9.7284 14.9277 9.72569 14.9358 9.72309 14.944L9.67426 15.7902C9.67426 15.7929 9.67426 15.7957 9.67426 15.7984L9.60917 16.8318L9.52779 17.9954L9.43015 19.2485C9.43014 19.2513 9.43014 19.254 9.43015 19.2567L9.34064 20.5424C9.34063 20.5451 9.34063 20.5478 9.34064 20.5505L9.25113 21.7955C9.25108 21.8009 9.25108 21.8063 9.25113 21.8118L9.19417 23.0079C9.19412 23.0134 9.19412 23.0188 9.19417 23.0242L9.15348 24.1878C9.15347 24.1905 9.15347 24.1933 9.15348 24.196L9.12907 25.3108L9.08025 26.3849L8.99888 27.4753C8.99883 27.4807 8.99883 27.4861 8.99888 27.4915L8.92564 28.5982C8.9256 28.6036 8.9256 28.609 8.92564 28.6145L8.86868 29.6967C8.86842 29.7103 8.86842 29.7238 8.86868 29.7374L8.85241 30.7464C8.85215 30.76 8.85215 30.7735 8.85241 30.7871L8.87682 31.7229C8.87681 31.7256 8.87681 31.7283 8.87682 31.731L8.90123 32.6343L8.92564 33.57V34.5221L8.90937 35.4985L8.87682 37.4596L8.86054 38.4035C8.86053 38.4062 8.86053 38.409 8.86054 38.4117L8.85241 39.3312C8.8524 39.3339 8.8524 39.3366 8.85241 39.3393L8.84427 40.2425C8.84426 40.2453 8.84426 40.248 8.84427 40.2507V41.1132C8.84423 41.1186 8.84423 41.1241 8.84427 41.1295L8.86054 41.9676L8.87682 42.8058C8.87681 42.8085 8.87681 42.8112 8.87682 42.8139L8.89309 43.652L8.90937 44.4657L8.90123 45.2713C8.90114 45.2795 8.90114 45.2876 8.90123 45.2957L8.9175 46.0769C8.91749 46.0796 8.91749 46.0823 8.9175 46.0851L8.94191 46.8662L8.96633 47.6555L8.9826 48.4774L8.99074 49.3399L8.99888 50.2269L9.00701 51.0894L9.01515 51.9601V52.7982L9.02329 53.6038C9.02328 53.6065 9.02328 53.6093 9.02329 53.612L9.03142 55.1499C9.03141 55.1526 9.03141 55.1553 9.03142 55.158L9.03956 55.9067V56.5983L9.03142 57.2493C9.03138 57.2547 9.03138 57.2601 9.03142 57.2656V57.884L9.02329 58.5431C9.02325 58.5485 9.02325 58.554 9.02329 58.5594V59.2917V60.0404C9.02328 60.0431 9.02328 60.0458 9.02329 60.0485L9.03142 60.8215C9.03138 60.827 9.03138 60.8324 9.03142 60.8378L9.0477 61.6271C9.04766 61.6325 9.04766 61.638 9.0477 61.6434L9.07211 62.3839L9.09652 63.0837C9.09648 63.0891 9.09648 63.0945 9.09652 63.0999L9.12093 63.7509L9.14534 64.288L9.16162 64.703C9.16502 64.847 9.19486 64.9853 9.25113 65.118L9.34877 65.3377C9.44223 65.544 9.58702 65.7039 9.78316 65.8172C9.97929 65.9305 10.1901 65.9762 10.4155 65.9541C10.641 65.932 10.8389 65.8463 11.0093 65.6971C11.1797 65.5479 11.2908 65.363 11.3424 65.1424L11.3994 64.9064C11.4203 64.8098 11.4284 64.7122 11.4238 64.6135L11.4075 64.1985C11.4075 64.1958 11.4075 64.193 11.4075 64.1903L11.3831 63.6533L11.3587 63.0186C11.3587 63.0159 11.3587 63.0132 11.3587 63.0104L11.3343 62.3025L11.3098 61.5702L11.2936 60.7971L11.2854 60.0322V59.2917V58.5675L11.2936 57.9084C11.2936 57.903 11.2936 57.8976 11.2936 57.8921V57.2737L11.3017 56.6146C11.3017 56.6119 11.3017 56.6092 11.3017 56.6065V55.8985C11.3017 55.8958 11.3017 55.8931 11.3017 55.8904L11.2936 55.1336C11.2936 55.1309 11.2936 55.1282 11.2936 55.1255L11.2692 53.5957L11.2773 52.7901C11.2773 52.7874 11.2773 52.7847 11.2773 52.782L11.261 51.9438L11.2529 51.0732L11.2447 50.2106L11.2366 49.3237L11.2285 48.453C11.2285 48.4476 11.2285 48.4421 11.2285 48.4367L11.2122 47.6067C11.2122 47.604 11.2122 47.6013 11.2122 47.5986L11.1878 46.8011C11.1878 46.7984 11.1878 46.7957 11.1878 46.793L11.1634 46.02L11.1471 45.2469L11.1227 44.4332L11.1064 43.6032L11.0901 42.7651L11.0739 41.9269L11.0576 41.0969V40.2507C11.0576 40.248 11.0576 40.2452 11.0576 40.2425L11.0495 39.3474L11.0576 38.4361L11.0739 37.4922C11.0739 37.4895 11.0739 37.4867 11.0739 37.484L11.0901 35.523C11.0901 35.5202 11.0901 35.5175 11.0901 35.5148V34.5302C11.0902 34.5248 11.0902 34.5194 11.0901 34.5139L11.0739 33.5375C11.0739 33.5321 11.0739 33.5266 11.0739 33.5212L11.0495 32.5773C11.0495 32.5719 11.0495 32.5664 11.0495 32.561L11.0088 31.6578L10.9844 30.7546L11.0006 29.7862L11.0413 28.7203L11.0983 27.6136C11.0985 27.6 11.0985 27.5865 11.0983 27.5729L11.1145 26.4581C11.1146 26.4554 11.1146 26.4527 11.1145 26.45V25.3515L11.139 24.2448L11.1796 23.0974L11.2366 21.9176L11.3098 20.6807L11.3994 19.4032L11.497 18.1419C11.497 18.1365 11.497 18.131 11.497 18.1256L11.5621 16.9539C11.5621 16.9511 11.5621 16.9484 11.5621 16.9457L11.6109 15.9042C11.6137 15.8988 11.6164 15.8933 11.6191 15.8879L11.6435 15.0335C11.6436 15.0253 11.6436 15.0172 11.6435 15.0091L11.6516 14.3499C11.6506 14.3173 11.6479 14.2847 11.6435 14.2523L11.6028 13.7966C11.5966 13.7441 11.5857 13.6926 11.5702 13.642L11.497 13.3735C11.4898 13.3514 11.4816 13.3297 11.4726 13.3084L11.4238 13.1701C11.3893 13.0825 11.3405 13.0038 11.2773 12.9341L11.2366 12.8934C11.0284 12.6675 10.7765 12.5966 10.4811 12.6807C10.1856 12.7649 10.0089 12.9578 9.95093 13.2596ZM10.7321 65.1342L10.7565 65.0773C10.817 64.8353 10.7326 64.6651 10.5033 64.5669C10.274 64.4686 10.0926 64.5248 9.95907 64.7355L9.93465 64.7925C9.87417 65.0345 9.95857 65.2046 10.1879 65.3029C10.4171 65.4012 10.5986 65.345 10.7321 65.1342Z" fill="black"/>
</g>
<defs>
<clipPath id="clip0_1_7178">
<rect width="72" height="77" fill="white"/>
</clipPath>
</defs>
</svg>
