<svg width="65" height="70" viewBox="0 0 65 70" fill="none" xmlns="http://www.w3.org/2000/svg">
<g clip-path="url(#clip0_1_7180)">
<path d="M2.00186 4.81561C2.00191 4.95978 2.05292 5.08282 2.15487 5.18474C2.25683 5.28667 2.37989 5.33763 2.52406 5.33763C2.66822 5.33763 2.79129 5.28667 2.89324 5.18474C2.9952 5.08282 3.04621 4.95978 3.04626 4.81561C3.04621 4.67144 2.9952 4.5484 2.89324 4.44648C2.79129 4.34455 2.66822 4.29359 2.52406 4.29359C2.37989 4.29359 2.25683 4.34455 2.15487 4.44648C2.05292 4.5484 2.00191 4.67144 2.00186 4.81561ZM2.87504 4.42182L2.86648 4.41326L2.84936 4.39614C2.71009 4.24696 2.53858 4.17848 2.33486 4.1907C2.13114 4.20291 1.96905 4.2914 1.8486 4.45615C1.72815 4.6209 1.693 4.80219 1.74315 5.00002C1.7933 5.19785 1.91058 5.3405 2.09498 5.42797C2.27937 5.51543 2.46404 5.51601 2.64897 5.42969C2.83391 5.34337 2.95207 5.20146 3.00345 5.00394L3.01201 4.97826C2.98542 5.02405 2.96545 5.07256 2.95209 5.12379L2.96921 5.08955C3.11611 4.84183 3.08472 4.61926 2.87504 4.42182ZM1.55671 4.8841C1.55671 5.10631 1.63527 5.29597 1.7924 5.4531C1.94953 5.61023 2.1392 5.68879 2.36141 5.68879C2.58362 5.68879 2.77329 5.61023 2.93041 5.4531C3.08754 5.29597 3.16611 5.10631 3.16611 4.8841C3.16611 4.66188 3.08754 4.47222 2.93041 4.31509C2.77329 4.15796 2.58362 4.0794 2.36141 4.0794C2.1392 4.0794 1.94953 4.15796 1.7924 4.31509C1.63527 4.47222 1.55671 4.66188 1.55671 4.8841ZM2.07035 5.79152L2.38709 5.93705C2.49087 5.98328 2.5993 6.01181 2.71239 6.02266L3.44861 6.0997C3.47143 6.10043 3.49426 6.10043 3.51709 6.0997L4.83543 6.15107C4.8554 6.1516 4.87537 6.1516 4.89535 6.15107L9.50096 6.08258L12.5571 6.06546L15.9557 6.0569C15.9671 6.05707 15.9785 6.05707 15.9899 6.0569L19.7737 5.94561C19.7851 5.94578 19.7965 5.94578 19.8079 5.94561L24.0026 5.71447C24.0112 5.71172 24.0198 5.70886 24.0283 5.70591L28.7966 5.34637C28.8138 5.34386 28.8309 5.341 28.8479 5.33781L34.2069 4.6872C34.2097 4.68721 34.2126 4.68721 34.2155 4.6872L39.9254 3.95099C39.9282 3.951 39.9311 3.951 39.9339 3.95099L45.4641 3.19765C45.5016 3.19093 45.5387 3.18237 45.5754 3.17197L50.2067 2.07621L53.7679 1.63962L56.182 1.50265C56.3816 1.49108 56.4756 1.38551 56.4642 1.18593C56.4528 0.986345 56.3473 0.892173 56.1477 0.90341L53.7336 1.04038L50.1296 1.12599L45.3614 0.89485C45.3098 0.894266 45.2584 0.89712 45.2073 0.90341L39.6429 1.40849C39.6314 1.41118 39.62 1.41404 39.6086 1.41705L33.8987 2.1019L28.5398 2.7525L23.8143 3.32606L19.6795 3.63425L15.93 3.76266L12.54 3.78834L9.48384 3.82258C9.47813 3.82254 9.47242 3.82254 9.46672 3.82258L4.85255 3.90819L3.54277 3.94243H2.80656C2.76053 3.94511 2.71487 3.95082 2.66959 3.95955L2.33573 4.00235C2.12813 4.03058 1.94981 4.11831 1.80078 4.26555C1.65174 4.4128 1.56185 4.59004 1.53111 4.79727C1.50038 5.00451 1.53495 5.20021 1.63483 5.38437C1.73471 5.56854 1.87988 5.70425 2.07035 5.79152Z" fill="black"/>
<path d="M47.0735 1.23729C47.0735 1.35549 47.1153 1.45637 47.1989 1.53995C47.2824 1.62353 47.3833 1.66532 47.5015 1.66532C47.6197 1.66532 47.7206 1.62353 47.8042 1.53995C47.8878 1.45637 47.9295 1.35549 47.9296 1.23729C47.9295 1.11909 47.8878 1.0182 47.8042 0.934626C47.7206 0.851048 47.6197 0.809259 47.5015 0.809259C47.3833 0.809259 47.2824 0.851048 47.1989 0.934626C47.1153 1.0182 47.0735 1.11909 47.0735 1.23729ZM46.9708 1.24585C46.9708 1.39005 47.0217 1.51313 47.1237 1.6151C47.2257 1.71706 47.3488 1.76805 47.493 1.76805C47.6372 1.76805 47.7602 1.71706 47.8622 1.6151C47.9642 1.51313 48.0152 1.39005 48.0152 1.24585C48.0152 1.10165 47.9642 0.978566 47.8622 0.8766C47.7602 0.774635 47.6372 0.723652 47.493 0.723652C47.3488 0.723652 47.2257 0.774635 47.1237 0.8766C47.0217 0.978566 46.9708 1.10165 46.9708 1.24585ZM46.9023 1.27153C46.9023 1.43701 46.9608 1.57825 47.0778 1.69526C47.1948 1.81227 47.336 1.87077 47.5015 1.87077C47.667 1.87077 47.8082 1.81227 47.9252 1.69526C48.0423 1.57825 48.1008 1.43701 48.1008 1.27153C48.1008 1.10606 48.0423 0.964812 47.9252 0.847803C47.8082 0.730794 47.667 0.672289 47.5015 0.672289C47.336 0.672289 47.1948 0.730794 47.0778 0.847803C46.9608 0.964812 46.9023 1.10606 46.9023 1.27153ZM46.8509 1.65676L46.9023 1.76805C47.0279 2.02433 47.2305 2.18128 47.5101 2.23888L47.9638 2.33305C48.0118 2.34272 48.0603 2.34843 48.1093 2.35017L49.0424 2.40153C49.0538 2.40175 49.0653 2.40175 49.0767 2.40153L50.5149 2.41009C50.5206 2.41015 50.5263 2.41015 50.532 2.41009L52.3297 2.39297H54.136C54.1503 2.39334 54.1645 2.39334 54.1788 2.39297L55.6683 2.30737C55.6798 2.30766 55.6912 2.30766 55.7026 2.30737L56.7213 2.20464L57.2863 2.2132L57.5517 2.30737C57.74 2.37585 57.8684 2.31593 57.9369 2.12759C58.0054 1.93926 57.9455 1.81085 57.7571 1.74237L57.449 1.63964L56.8754 1.38282C56.8669 1.3797 56.8584 1.37684 56.8497 1.37426L55.8652 1.00615C55.8233 0.993375 55.7805 0.984814 55.7368 0.980471L54.2644 0.740774C54.2303 0.735791 54.1961 0.732937 54.1617 0.732213L52.3554 0.680849C52.3497 0.680792 52.344 0.680792 52.3383 0.680849L50.5405 0.663728L49.1366 0.620925L48.2292 0.55244L47.7669 0.509637C47.631 0.498862 47.4997 0.518837 47.3731 0.569561L47.2618 0.612365C47.0536 0.692652 46.9086 0.836628 46.8269 1.04429C46.7452 1.25196 46.7532 1.45612 46.8509 1.65676Z" fill="black"/>
<path d="M56.7299 1.54546L56.6014 1.48553C56.5657 1.46958 56.5286 1.45817 56.4902 1.45129L56.1905 1.39137L55.694 1.23728C55.6576 1.22569 55.6205 1.21713 55.5827 1.21159L54.9321 1.11743C54.9093 1.11635 54.8865 1.11635 54.8636 1.11743L54.1531 1.08318C54.029 1.07663 53.912 1.10231 53.8021 1.16023L53.4255 1.37425L52.9889 1.30576C52.8007 1.27743 52.6923 1.35735 52.6638 1.5455C52.6353 1.73365 52.7151 1.84207 52.9033 1.87076L53.3398 1.93069L53.648 2.23887C53.7443 2.33285 53.8584 2.39277 53.9905 2.41864L54.6839 2.56417C54.7207 2.56988 54.7578 2.57273 54.7952 2.57273L55.4629 2.60697C55.5207 2.60831 55.5777 2.60261 55.6341 2.58985L56.1649 2.47856C56.1735 2.47592 56.182 2.47307 56.1905 2.47L56.5158 2.3844C56.5452 2.37851 56.5737 2.36995 56.6014 2.35872L56.7299 2.29879C56.8943 2.22709 56.9765 2.10153 56.9765 1.92212C56.9765 1.74272 56.8943 1.61716 56.7299 1.54546Z" fill="black"/>
<path d="M49.8044 1.20298L49.5476 1.19442C49.5276 1.19336 49.5076 1.19336 49.4876 1.19442L49.0853 1.22866L48.7001 1.2201L48.409 1.17729C48.5183 1.26079 48.641 1.31216 48.7771 1.33139L48.6316 1.21154C48.5326 1.2877 48.4555 1.38181 48.4003 1.49387C48.3452 1.60592 48.3176 1.7244 48.3176 1.8493C48.3176 1.9742 48.3452 2.09268 48.4003 2.20474C48.4555 2.31679 48.5326 2.4109 48.6316 2.48707L48.6829 2.45283L49.0339 2.35866L50.0013 2.19601C50.0098 2.19613 50.0184 2.19613 50.027 2.19601L51.3967 1.93063C51.4257 1.92373 51.4542 1.91517 51.4823 1.90495L52.792 1.49404L54.0076 1.47692C54.1117 1.47455 54.1996 1.43576 54.2715 1.36054C54.3434 1.28532 54.3781 1.1957 54.3758 1.09169C54.3734 0.987675 54.3346 0.89973 54.2594 0.827853C54.1841 0.755975 54.0945 0.721218 53.9905 0.723582L52.7749 0.740704L51.4309 0.4154C51.3801 0.404499 51.3287 0.398792 51.2768 0.398279L49.8814 0.346915C49.8123 0.34501 49.7438 0.350717 49.676 0.364037L48.6744 0.55237C48.5875 0.569033 48.5048 0.597568 48.4261 0.637976L47.9125 0.903355C47.7425 0.986341 47.614 1.1119 47.5273 1.28002L47.4245 1.49404C47.3305 1.68386 47.314 1.8802 47.375 2.08305C47.436 2.28591 47.5581 2.44056 47.7413 2.54699L47.9039 2.64116C48.0615 2.73064 48.2298 2.76203 48.409 2.73533L48.7429 2.69252C48.8143 2.68249 48.8827 2.66252 48.9483 2.6326L49.3592 2.44427L49.7445 2.28161C49.762 2.27392 49.7791 2.26536 49.7958 2.25593L50.027 2.13608C50.2505 2.01525 50.3328 1.83126 50.2738 1.5841C50.2148 1.33695 50.0584 1.20991 49.8044 1.20298Z" fill="black"/>
<path d="M54.9101 1.7895C54.9101 1.91716 54.9553 2.02612 55.0455 2.11638C55.1358 2.20664 55.2448 2.25178 55.3724 2.25178C55.5001 2.25178 55.609 2.20664 55.6993 2.11638C55.7896 2.02612 55.8347 1.91716 55.8347 1.7895C55.8347 1.66185 55.7896 1.55289 55.6993 1.46263C55.609 1.37236 55.5001 1.32723 55.3724 1.32723C55.2448 1.32723 55.1358 1.37236 55.0455 1.46263C54.9553 1.55289 54.9101 1.66185 54.9101 1.7895ZM54.9016 1.7895C54.9016 1.91949 54.9476 2.03043 55.0395 2.12233C55.1315 2.21423 55.2424 2.26018 55.3724 2.26018C55.5024 2.26018 55.6134 2.21423 55.7053 2.12233C55.7972 2.03043 55.8432 1.91949 55.8432 1.7895C55.8432 1.65952 55.7972 1.54858 55.7053 1.45668C55.6134 1.36478 55.5024 1.31883 55.3724 1.31883C55.2424 1.31883 55.1315 1.36478 55.0395 1.45668C54.9476 1.54858 54.9016 1.65952 54.9016 1.7895ZM54.8673 1.81519C54.8674 1.95935 54.9184 2.0824 55.0203 2.18432C55.1223 2.28624 55.2454 2.3372 55.3895 2.3372C55.5337 2.3372 55.6568 2.28624 55.7587 2.18432C55.8607 2.0824 55.9117 1.95935 55.9117 1.81519C55.9117 1.67102 55.8607 1.54798 55.7587 1.44605C55.6568 1.34413 55.5337 1.29317 55.3895 1.29317C55.2454 1.29317 55.1223 1.34413 55.0203 1.44605C54.9184 1.54798 54.8674 1.67102 54.8673 1.81519ZM54.9187 2.17473L54.9872 2.28602C55.0716 2.4318 55.1915 2.53738 55.3467 2.60276L55.6549 2.73117C55.7208 2.75995 55.7893 2.77993 55.8604 2.7911L56.3569 2.85958C56.3881 2.86417 56.4195 2.86702 56.4511 2.86814L57.1017 2.89382C57.1273 2.89498 57.153 2.89498 57.1787 2.89382L57.9748 2.85102C58.015 2.85104 58.0549 2.84818 58.0947 2.84246L58.9679 2.67125C58.9969 2.66436 59.0254 2.6558 59.0535 2.64557L59.9181 2.37163L60.7057 2.15761L61.3392 2.0292L61.8186 1.95216C61.8417 1.9479 61.8646 1.94219 61.887 1.93503L62.1695 1.84943L62.2551 1.84087L62.3065 1.87511C62.472 1.97774 62.6061 1.94634 62.7088 1.78089C62.8115 1.61544 62.7801 1.48134 62.6147 1.37859L62.512 1.31867L62.3836 1.1817C62.3603 1.15859 62.3346 1.13861 62.3065 1.12178L62.0326 0.942003C61.9445 0.882876 61.8475 0.851487 61.7415 0.847836L61.245 0.839276C61.2048 0.838104 61.1648 0.840957 61.1251 0.847836L60.466 0.976245L59.6613 1.09609L58.7795 1.15602L57.9235 1.1817H57.153L56.5281 1.15602L56.0316 1.12178C55.9857 1.12088 55.94 1.12374 55.8946 1.13034L55.5607 1.16458C55.4645 1.1727 55.3732 1.19838 55.2868 1.24162L55.167 1.31011C55.0106 1.39305 54.908 1.51958 54.8592 1.68969C54.8103 1.8598 54.8302 2.02148 54.9187 2.17473Z" fill="black"/>
<path d="M61.9726 1.00198C61.9726 1.10835 62.0102 1.19915 62.0854 1.27437C62.1606 1.34959 62.2514 1.3872 62.3578 1.3872C62.4642 1.3872 62.555 1.34959 62.6302 1.27437C62.7054 1.19915 62.743 1.10835 62.743 1.00198C62.743 0.895598 62.7054 0.804799 62.6302 0.729578C62.555 0.654358 62.4642 0.616748 62.3578 0.616748C62.2514 0.616748 62.1606 0.654358 62.0854 0.729578C62.0102 0.804799 61.9726 0.895598 61.9726 1.00198ZM61.9469 0.993415C61.9469 1.10688 61.987 1.20374 62.0673 1.28397C62.1475 1.36421 62.2443 1.40432 62.3578 1.40432C62.4713 1.40432 62.5681 1.36421 62.6484 1.28397C62.7286 1.20374 62.7687 1.10688 62.7687 0.993415C62.7687 0.879945 62.7286 0.783093 62.6484 0.702858C62.5681 0.622623 62.4713 0.582505 62.3578 0.582505C62.2443 0.582505 62.1475 0.622623 62.0673 0.702858C61.987 0.783093 61.9469 0.879945 61.9469 0.993415ZM62.0154 0.522581L61.9555 0.565384C61.8072 0.666089 61.7102 0.803059 61.6644 0.976294L61.5788 1.3016C61.5603 1.37465 61.5518 1.44884 61.5531 1.52417L61.5617 2.21758C61.5612 2.2347 61.5612 2.25183 61.5617 2.26895L61.6387 3.44175C61.6387 3.4446 61.6387 3.44746 61.6387 3.45031L61.7586 5.171L61.8784 7.36251L61.9983 9.87077C62.0011 9.87651 62.0039 9.88221 62.0068 9.88789L62.1695 12.5246C62.1722 12.5332 62.1751 12.5417 62.178 12.5502L62.4006 15.1441C62.4005 15.1527 62.4005 15.1612 62.4006 15.1698L62.6831 17.524L62.88 19.5357L62.8629 21.0681C62.8629 21.1602 62.8955 21.2389 62.9607 21.3041C63.0259 21.3693 63.1046 21.4019 63.1968 21.4019C63.2889 21.4019 63.3676 21.3693 63.4328 21.3041C63.498 21.2389 63.5306 21.1602 63.5306 21.0681L63.5477 19.5357L63.7618 17.524C63.7618 17.5211 63.7618 17.5183 63.7618 17.5154L63.9929 15.1527C63.9961 15.1385 63.999 15.1242 64.0014 15.1099L64.1042 12.4989C64.1046 12.4818 64.1046 12.4646 64.1042 12.4475L64.0528 9.80229C64.0531 9.78802 64.0531 9.77375 64.0528 9.75948L63.8987 7.25122C63.8988 7.24552 63.8988 7.23981 63.8987 7.2341L63.7275 5.03403C63.7248 5.02543 63.7219 5.01686 63.7189 5.00834L63.5392 3.2791C63.5364 3.27336 63.5335 3.26766 63.5306 3.26198L63.3851 2.09773C63.3833 2.07193 63.3805 2.04625 63.3765 2.02069L63.231 1.33584C63.213 1.25759 63.1845 1.1834 63.1454 1.11326L62.9827 0.813642C62.9123 0.686306 62.8124 0.589286 62.6831 0.522581L62.6232 0.488339C62.4139 0.380282 62.2113 0.391696 62.0154 0.522581Z" fill="black"/>
<path d="M63.0598 17.8835L63.077 17.8749C63.2135 17.7908 63.2941 17.6696 63.3189 17.5112C63.3437 17.3528 63.304 17.2127 63.1998 17.0909C63.0956 16.969 62.9633 16.9081 62.803 16.9081C62.6427 16.9081 62.5104 16.969 62.4062 17.0909C62.302 17.2127 62.2623 17.3528 62.2871 17.5112C62.3119 17.6696 62.3926 17.7908 62.5291 17.8749L62.5462 17.8835C62.7174 17.9869 62.8886 17.9869 63.0598 17.8835ZM62.2209 17.4041C62.2209 17.5672 62.2786 17.7064 62.3939 17.8218C62.5092 17.9371 62.6485 17.9948 62.8116 17.9948C62.9747 17.9948 63.1139 17.9371 63.2293 17.8218C63.3446 17.7064 63.4023 17.5672 63.4023 17.4041C63.4023 17.241 63.3446 17.1017 63.2293 16.9864C63.1139 16.8711 62.9747 16.8134 62.8116 16.8134C62.6485 16.8134 62.5092 16.8711 62.3939 16.9864C62.2786 17.1017 62.2209 17.241 62.2209 17.4041ZM62.2466 17.6352L62.2723 17.6951L62.2979 17.8064L62.3236 18.0376L62.3322 18.4913L62.3408 19.2275V20.3232C62.3407 20.3261 62.3407 20.329 62.3408 20.3318L62.3579 21.8898L62.375 23.9358C62.375 23.9387 62.375 23.9415 62.375 23.9444L62.4178 26.3842L62.4863 28.9609L62.5205 31.4948L62.5291 33.9004L62.4948 36.2117C62.4948 36.2146 62.4948 36.2175 62.4948 36.2203L62.4692 38.4118L62.4606 40.415C62.4605 40.4207 62.4605 40.4264 62.4606 40.4321L62.4777 42.2555C62.4775 42.267 62.4775 42.2784 62.4777 42.2898L62.5548 43.9677C62.5546 43.9762 62.5546 43.9848 62.5548 43.9933L62.6661 45.5171C62.6684 45.5343 62.6713 45.5515 62.6746 45.5685L62.8373 46.9125C62.8414 46.9414 62.8471 46.9699 62.8544 46.9981L63.1198 48.0853C63.1247 48.1027 63.1304 48.1198 63.1369 48.1367L63.3937 48.8643L63.4365 49.3608C63.446 49.4672 63.4916 49.5547 63.5736 49.6232C63.6555 49.6917 63.7496 49.7213 63.856 49.7118C63.9624 49.7024 64.0498 49.6567 64.1183 49.5748C64.1869 49.4929 64.2164 49.3987 64.207 49.2924L64.1556 48.7958L64.2926 48.0425C64.2929 48.0311 64.2929 48.0197 64.2926 48.0083L64.4295 46.904C64.4311 46.8754 64.4311 46.8469 64.4295 46.8183L64.4467 45.4658C64.4468 45.4572 64.4468 45.4486 64.4467 45.4401L64.421 43.9077C64.421 43.9049 64.421 43.902 64.421 43.8992L64.3782 42.2299L64.3611 40.4236L64.3696 38.4204L64.3611 36.2289C64.3612 36.2203 64.3612 36.2117 64.3611 36.2032L64.2926 33.8833C64.2926 33.8804 64.2926 33.8776 64.2926 33.8747L64.1984 31.4606L64.1299 28.9267L64.0957 26.3499L64.0529 23.9187C64.0529 23.9159 64.0529 23.913 64.0529 23.9101L64.0186 21.8642C64.0187 21.8584 64.0187 21.8527 64.0186 21.847L63.9501 20.289C63.9503 20.2804 63.9503 20.2719 63.9501 20.2633L63.8645 19.159C63.8625 19.1389 63.8596 19.1189 63.856 19.0991L63.7447 18.3714C63.7425 18.3542 63.7396 18.3371 63.7361 18.3201L63.6248 17.8407C63.6221 17.8349 63.6192 17.8292 63.6163 17.8235L63.5392 17.5239C63.5367 17.5124 63.5338 17.501 63.5307 17.4897L63.4708 17.3099C63.4541 17.2585 63.4313 17.21 63.4023 17.1644L63.3509 17.0873C63.2753 16.9349 63.1568 16.8315 62.9955 16.7771C62.8342 16.7228 62.6773 16.7335 62.5248 16.8091C62.3723 16.8848 62.2689 17.0032 62.2146 17.1645C62.1603 17.3258 62.1709 17.4827 62.2466 17.6352Z" fill="black"/>
<path d="M64.224 45.5771L64.2411 45.5172C64.2457 45.4917 64.2485 45.466 64.2497 45.4401L64.2583 45.3716L64.3182 45.1747C64.3772 44.975 64.3473 44.7896 64.2283 44.6187C64.1093 44.4477 63.9459 44.3552 63.7381 44.3412C63.5303 44.3271 63.356 44.3968 63.2151 44.5502C63.0742 44.7036 63.0196 44.8833 63.0512 45.0891L63.0769 45.286V45.3545C63.075 45.4095 63.0807 45.4637 63.094 45.5172L63.1111 45.5771C63.1835 45.8667 63.369 46.0116 63.6676 46.0116C63.9661 46.0116 64.1516 45.8667 64.224 45.5771ZM63.3765 44.2502L63.308 44.2844C63.0443 44.4099 62.8816 44.6153 62.8201 44.9008L62.7002 45.5086C62.693 45.5397 62.6873 45.5711 62.6831 45.6028L62.5376 46.9382C62.5368 46.9611 62.5368 46.9839 62.5376 47.0067L62.4605 49.0955C62.4596 49.1212 62.4596 49.1469 62.4605 49.1725L62.5376 51.7322C62.5375 51.7379 62.5375 51.7436 62.5376 51.7493L62.6489 54.4116L62.6831 56.8771L62.6574 58.9744L62.6146 60.6951C62.6143 60.7094 62.6143 60.7237 62.6146 60.7379L62.6317 62.0306C62.6313 62.0477 62.6313 62.0648 62.6317 62.0819L62.7002 62.9466C62.7052 63.0225 62.7195 63.0967 62.743 63.1691L62.8971 63.6229C62.9203 63.6897 62.9517 63.7525 62.9913 63.8112L63.0854 63.9653C63.2082 64.1495 63.3788 64.2602 63.597 64.2975C63.8153 64.3347 64.0128 64.2867 64.1898 64.1536L64.2326 64.1194C64.4205 63.9811 64.5232 63.7956 64.5408 63.5629L64.5493 63.4345C64.5588 63.3164 64.5417 63.2022 64.4979 63.0921L64.4466 62.9551C64.4387 62.9377 64.4302 62.9205 64.4209 62.9038L64.3781 62.8182L64.3524 62.7582L64.3353 62.6812C64.326 62.7622 64.3317 62.8421 64.3524 62.9209L64.361 62.861C64.3621 62.8381 64.3621 62.8153 64.361 62.7925V62.7839C64.3596 62.4446 64.1981 62.221 63.8765 62.1131C63.5549 62.0052 63.2912 62.0861 63.0854 62.3559L63.0341 62.4244C62.9747 62.5072 62.9348 62.5985 62.9142 62.6983L62.88 62.8695C62.8687 62.9203 62.863 62.9716 62.8629 63.0236V63.2976C62.862 63.3175 62.862 63.3375 62.8629 63.3575L62.8886 63.6828L62.9057 64.0081L62.8629 64.2991L62.8201 64.556L62.7858 64.6929L62.7345 64.8042C62.6616 65.0069 62.6661 65.2079 62.748 65.4072C62.83 65.6064 62.9682 65.7524 63.1626 65.8452C63.357 65.938 63.5574 65.9536 63.7638 65.892C63.9703 65.8304 64.1294 65.7075 64.2411 65.5233L64.3267 65.3607C64.3592 65.2924 64.382 65.2211 64.3952 65.1466L64.4466 64.9069C64.4582 64.8505 64.4639 64.7934 64.4637 64.7357V64.4104C64.4635 64.3556 64.4578 64.3014 64.4466 64.2478L64.3695 63.9054L64.3267 63.5715L64.3011 63.2719V63.0835L64.3096 63.0407V63.0322C64.2783 63.0777 64.2526 63.1262 64.2326 63.1777L64.2411 63.1691C64.0905 63.0315 63.9137 62.9738 63.7109 62.9962C63.508 63.0185 63.348 63.1133 63.231 63.2804L63.2738 63.3232C63.2429 63.1915 63.1772 63.0802 63.0769 62.9894L63.094 63.0407V63.0579L63.0854 63.0835L63.0683 63.1691C63.0618 63.1889 63.0561 63.2089 63.0512 63.2291L63.0255 63.3575C63.2227 63.2404 63.3425 63.0692 63.3851 62.8438L63.3337 62.8781C63.3457 63.0102 63.3889 63.1311 63.4633 63.2409C63.5378 63.3506 63.6341 63.4355 63.7524 63.4955C63.8707 63.5555 63.9961 63.5832 64.1286 63.5784C64.2612 63.5736 64.3843 63.5371 64.4979 63.4688L64.4808 63.366L64.5151 62.9551C64.5199 62.9211 64.5227 62.8868 64.5236 62.8524L64.4979 61.9878L64.4637 60.6951C64.4639 60.6837 64.4639 60.6723 64.4637 60.6609L64.3524 58.9488L64.2754 56.86V54.4116L64.438 51.775L64.6349 49.2239C64.6353 49.2068 64.6353 49.1897 64.6349 49.1725L64.6948 47.0838C64.6956 47.0609 64.6956 47.0381 64.6948 47.0153L64.6606 45.6712C64.659 45.6426 64.6561 45.6141 64.652 45.5856L64.575 44.9693C64.5394 44.6904 64.4024 44.4764 64.1641 44.3272L64.1042 44.293C63.8695 44.1446 63.6269 44.1304 63.3765 44.2502ZM62.7858 65.2579C62.7858 65.4305 62.8468 65.5778 62.9689 65.6998C63.0909 65.8218 63.2382 65.8829 63.4107 65.8829C63.5833 65.8829 63.7306 65.8218 63.8526 65.6998C63.9747 65.5778 64.0357 65.4305 64.0357 65.2579C64.0357 65.0854 63.9747 64.9381 63.8526 64.816C63.7306 64.694 63.5833 64.633 63.4107 64.633C63.2382 64.633 63.0909 64.694 62.9689 64.816C62.8468 64.9381 62.7858 65.0854 62.7858 65.2579ZM63.1368 64.984L63.0769 65.0182C62.9825 65.0727 62.9211 65.1525 62.8928 65.2577C62.8645 65.363 62.8775 65.4628 62.9318 65.5573C62.9861 65.6518 63.0659 65.7132 63.1711 65.7417C63.2763 65.7701 63.3761 65.7573 63.4707 65.7031L63.5306 65.6688C63.625 65.6144 63.6864 65.5346 63.7147 65.4293C63.743 65.3241 63.73 65.2243 63.6757 65.1298C63.6214 65.0353 63.5416 64.9739 63.4364 64.9454C63.3312 64.9169 63.2314 64.9298 63.1368 64.984Z" fill="black"/>
<path d="M2.24169 4.93787L2.25025 4.92931C2.2443 4.9377 2.23859 4.94627 2.23313 4.95499L2.24169 4.94643C2.32906 4.8088 2.35247 4.66104 2.31194 4.50315C2.27141 4.34525 2.17972 4.22704 2.03687 4.14851C1.89402 4.06998 1.74508 4.0559 1.59005 4.10629C1.43502 4.15667 1.32281 4.25562 1.25342 4.40313C1.18404 4.55064 1.17936 4.70017 1.2394 4.85172C1.29945 5.00328 1.40526 5.10904 1.55684 5.169L1.57396 5.17756C1.61293 5.19069 1.65288 5.19926 1.69381 5.20325L1.70237 5.21181C1.94702 5.24822 2.12679 5.15691 2.24169 4.93787ZM1.17161 4.61256C1.17161 4.77804 1.23012 4.91928 1.34713 5.03629C1.46414 5.1533 1.60538 5.21181 1.77086 5.21181C1.93633 5.21181 2.07758 5.1533 2.19458 5.03629C2.31159 4.91928 2.3701 4.77804 2.3701 4.61256C2.3701 4.44709 2.31159 4.30585 2.19458 4.18884C2.07758 4.07183 1.93633 4.01332 1.77086 4.01332C1.60538 4.01332 1.46414 4.07183 1.34713 4.18884C1.23012 4.30585 1.17161 4.44709 1.17161 4.61256ZM1.27434 4.10749L1.23154 4.15885C1.08496 4.30882 1.00791 4.4886 1.0004 4.69817L0.99184 5.16044C0.991327 5.17756 0.991327 5.19469 0.99184 5.21181L1.01752 6.23908C1.0204 6.27944 1.0261 6.31938 1.03464 6.35893L1.3257 8.05393L1.65957 10.2968L1.77086 12.4712C1.77562 12.5776 1.81728 12.6667 1.89584 12.7385C1.97439 12.8103 2.06685 12.8439 2.1732 12.8392C2.27955 12.8345 2.36866 12.7928 2.44054 12.7143C2.51241 12.6358 2.546 12.5433 2.54131 12.437L2.43002 10.2626L2.54987 8.01113L2.72108 6.29901C2.726 6.26493 2.72886 6.23069 2.72965 6.19628L2.70396 5.169C2.70434 5.12599 2.70148 5.08318 2.6954 5.0406L2.6098 4.58688C2.55873 4.28924 2.39322 4.08379 2.11328 3.97052L2.05336 3.94484C1.75704 3.82353 1.49736 3.87775 1.27434 4.10749Z" fill="black"/>
<path d="M2.17322 5.27178L2.18178 5.25466C2.20427 5.214 2.22139 5.1712 2.23315 5.12625L2.25027 5.08344C2.27612 4.98911 2.27773 4.89437 2.25511 4.79921C2.23249 4.70405 2.18841 4.62017 2.12288 4.54756C2.05734 4.47495 1.9784 4.42254 1.88605 4.39032C1.7937 4.3581 1.69929 4.35003 1.60281 4.36611C1.50633 4.38219 1.41964 4.42044 1.34273 4.48087C1.26582 4.5413 1.20814 4.61649 1.1697 4.70643C1.13126 4.79636 1.11677 4.89001 1.12623 4.98736C1.13569 5.08471 1.16795 5.17381 1.223 5.25466L1.24868 5.29746C1.34309 5.43116 1.4715 5.50821 1.6339 5.5286H1.65103C1.88253 5.55979 2.0566 5.47418 2.17322 5.27178ZM1.04322 4.87799C1.06215 5.04215 1.13329 5.17921 1.25664 5.28916C1.38 5.39911 1.5243 5.45409 1.68955 5.45409C1.8548 5.45409 1.9991 5.39911 2.12245 5.28916C2.24581 5.17921 2.31695 5.04215 2.33587 4.87799C2.31695 4.71383 2.24581 4.57677 2.12245 4.46682C1.9991 4.35687 1.8548 4.30189 1.68955 4.30189C1.5243 4.30189 1.38 4.35687 1.25664 4.46682C1.13329 4.57677 1.06215 4.71383 1.04322 4.87799ZM0.957616 4.64685L0.829207 4.98072C0.797825 5.07229 0.780703 5.16646 0.777843 5.26322L0.717919 6.26481C0.716748 6.29334 0.716748 6.32188 0.717919 6.35042L0.752161 8.15671C0.754963 8.16244 0.757817 8.16814 0.760722 8.17383L0.87201 10.8276C0.871717 10.8419 0.871717 10.8562 0.87201 10.8704L1.13739 14.0892C1.13719 14.1006 1.13719 14.112 1.13739 14.1235L1.53974 17.5049L1.88216 20.7751L2.1989 23.7199C2.20135 23.7342 2.20421 23.7485 2.20747 23.7627L2.60981 26.2624C2.60973 26.2681 2.60973 26.2738 2.60981 26.2795L3.0036 28.2656L3.09777 29.7123C3.10486 29.8069 3.14435 29.8851 3.21622 29.9469C3.2881 30.0088 3.37132 30.0362 3.46588 30.0291C3.56043 30.022 3.63864 29.9825 3.70048 29.9106C3.76233 29.8387 3.78971 29.7555 3.78262 29.661L3.67989 28.2142L3.7655 26.1939C3.76583 26.1825 3.76583 26.1711 3.7655 26.1597L3.73125 23.6343C3.72898 23.6171 3.72613 23.6 3.72269 23.5829L3.50868 20.6295L3.2861 17.3594L3.12345 13.9522L2.9608 10.742L2.86663 8.09678L2.80671 6.29049C2.80528 6.25897 2.80242 6.22758 2.79815 6.19632L2.6783 5.19473C2.66467 5.0771 2.63043 4.96581 2.57557 4.86087L2.40436 4.55269C2.24308 4.25121 1.99184 4.11158 1.65066 4.13379C1.30947 4.15599 1.07846 4.32702 0.957616 4.64685Z" fill="black"/>
<path d="M2.05341 19.08C2.05348 19.2242 2.10449 19.3472 2.20644 19.4491C2.3084 19.551 2.43145 19.602 2.5756 19.602C2.71975 19.602 2.84281 19.551 2.94476 19.4491C3.04672 19.3472 3.09773 19.2242 3.0978 19.08C3.09773 18.9359 3.04672 18.8129 2.94476 18.711C2.84281 18.6091 2.71975 18.5581 2.5756 18.5581C2.43145 18.5581 2.3084 18.6091 2.20644 18.711C2.10449 18.8129 2.05348 18.9359 2.05341 19.08ZM2.04485 19.08C2.04485 19.2266 2.09666 19.3517 2.2003 19.4553C2.30394 19.559 2.42904 19.6108 2.5756 19.6108C2.72217 19.6108 2.84727 19.559 2.95091 19.4553C3.05454 19.3517 3.10636 19.2266 3.10636 19.08C3.10636 18.9335 3.05454 18.8084 2.95091 18.7047C2.84727 18.6011 2.72217 18.5493 2.5756 18.5493C2.42904 18.5493 2.30394 18.6011 2.2003 18.7047C2.09666 18.8084 2.04485 18.9335 2.04485 19.08ZM2.16469 18.6349L2.07053 18.7119C1.95356 18.8061 1.87652 18.926 1.83939 19.0715L1.77947 19.3454C1.77196 19.3736 1.76625 19.4021 1.76235 19.431L1.71098 19.8847L1.60825 20.6723C1.60449 20.695 1.60164 20.7179 1.59969 20.7408L1.53977 22.0506C1.53932 22.0677 1.53932 22.0848 1.53977 22.1019V23.9682C1.53966 23.9767 1.53966 23.9853 1.53977 23.9938L1.60825 26.3566L1.69386 29.1473C1.69385 29.1502 1.69385 29.153 1.69386 29.1559L1.79659 32.4346C1.79658 32.4375 1.79658 32.4403 1.79659 32.4432L1.94212 35.9958L2.04485 39.5913L2.05341 43.0926L2.0106 46.3285C2.00975 46.3513 2.00975 46.3741 2.0106 46.397L2.19038 49.1535C2.19237 49.1736 2.19522 49.1935 2.19894 49.2134L2.49856 51.3364L2.48144 52.8517C2.48144 52.9533 2.51738 53.0401 2.58925 53.1119C2.66113 53.1838 2.74789 53.2198 2.84954 53.2198C2.95119 53.2198 3.03796 53.1838 3.10983 53.1119C3.18171 53.0401 3.21765 52.9533 3.21765 52.8517L3.23477 51.345L3.58576 49.222C3.58925 49.2049 3.5921 49.1878 3.59432 49.1706L3.84257 46.4226C3.84366 46.397 3.84366 46.3713 3.84257 46.3456L3.86826 43.1097C3.86827 43.1068 3.86827 43.104 3.86826 43.1011L3.87682 39.5741V35.9616C3.87693 35.953 3.87693 35.9444 3.87682 35.9359L3.79977 32.3747C3.79978 32.3718 3.79978 32.369 3.79977 32.3661L3.67992 29.0874L3.61144 26.3052L3.56007 23.9425C3.56013 23.9368 3.56013 23.9311 3.56007 23.9253L3.47447 22.0591C3.47528 22.0363 3.47528 22.0135 3.47447 21.9906L3.32038 20.6809C3.31868 20.6551 3.31582 20.6294 3.31182 20.6038L3.14917 19.8847L3.1406 19.5423L3.16629 19.3197C3.17285 19.2655 3.17285 19.2113 3.16629 19.1571L3.15773 19.0372C3.13182 18.7961 3.00646 18.6299 2.78164 18.5388C2.55682 18.4477 2.35118 18.4798 2.16469 18.6349Z" fill="black"/>
<path d="M2.31018 46.9619C2.32741 47.0989 2.38779 47.2131 2.49134 47.3045C2.59489 47.3958 2.7157 47.4415 2.85378 47.4415C2.99186 47.4415 3.11267 47.3958 3.21622 47.3045C3.31976 47.2131 3.38015 47.0989 3.39738 46.9619C3.38015 46.8249 3.31976 46.7108 3.21622 46.6194C3.11267 46.5281 2.99186 46.4824 2.85378 46.4824C2.7157 46.4824 2.59489 46.5281 2.49134 46.6194C2.38779 46.7108 2.32741 46.8249 2.31018 46.9619ZM2.2845 46.6966L2.07048 46.9962C1.9863 47.1208 1.93493 47.2578 1.91639 47.4071L1.78798 48.3744C1.78217 48.4199 1.77932 48.4656 1.77942 48.5114L1.78798 50.1379C1.78703 50.1636 1.78703 50.1893 1.78798 50.215L1.95919 52.3894L2.03624 54.9148L2.07048 57.56L2.02768 60.0597L1.96776 62.2683L1.93351 64.066C1.93099 64.106 1.93099 64.1459 1.93351 64.1859L2.06192 65.5128C2.07447 65.6391 2.11442 65.7561 2.18177 65.8638L2.5242 66.4202L2.54988 66.8226C2.60122 67.0195 2.72855 67.1133 2.93186 67.1038C3.13517 67.0943 3.25325 66.9892 3.28609 66.7883L3.26897 66.3945L3.58571 65.8381C3.64204 65.7397 3.67628 65.6341 3.68844 65.5214L3.83397 64.1945C3.83526 64.1659 3.83526 64.1374 3.83397 64.1089L3.86821 62.3111C3.86833 62.3026 3.86833 62.294 3.86821 62.2854L3.84253 60.0682C3.84255 60.0654 3.84255 60.0625 3.84253 60.0597L3.79973 57.5429L3.74836 54.8891L3.7398 52.3637L3.87677 50.2064C3.87719 50.1893 3.87719 50.1722 3.87677 50.1551L3.90245 48.5285C3.90256 48.4827 3.8997 48.437 3.89389 48.3916L3.78261 47.4242C3.76676 47.2688 3.71539 47.1261 3.62851 46.9962L3.4145 46.6966C3.35066 46.6034 3.26877 46.5304 3.16884 46.4778C3.06891 46.4251 2.96246 46.3987 2.8495 46.3987C2.73653 46.3987 2.63009 46.4251 2.53015 46.4778C2.43022 46.5304 2.34834 46.6034 2.2845 46.6966Z" fill="black"/>
<path d="M1.05181 68.3035C1.05181 68.4548 1.1053 68.584 1.21228 68.691C1.31926 68.7979 1.4484 68.8514 1.59969 68.8514C1.75098 68.8514 1.88012 68.7979 1.9871 68.691C2.09408 68.584 2.14757 68.4548 2.14757 68.3035C2.14757 68.1523 2.09408 68.0231 1.9871 67.9161C1.88012 67.8092 1.75098 67.7557 1.59969 67.7557C1.4484 67.7557 1.31926 67.8092 1.21228 67.9161C1.1053 68.0231 1.05181 68.1523 1.05181 68.3035ZM1.04325 68.3035C1.04325 68.4667 1.10092 68.6059 1.21626 68.7212C1.3316 68.8366 1.47082 68.8942 1.63393 68.8942C1.79705 68.8942 1.93627 68.8366 2.05161 68.7212C2.16695 68.6059 2.22462 68.4667 2.22462 68.3035C2.22462 68.1404 2.16695 68.0012 2.05161 67.8859C1.93627 67.7705 1.79705 67.7129 1.63393 67.7129C1.47082 67.7129 1.3316 67.7705 1.21626 67.8859C1.10092 68.0012 1.04325 68.1404 1.04325 68.3035ZM0.957644 68.3292C0.957644 68.5325 1.02952 68.7061 1.17328 68.8498C1.31703 68.9936 1.49056 69.0654 1.69386 69.0654C1.89716 69.0654 2.07068 68.9936 2.21444 68.8498C2.35819 68.7061 2.43007 68.5325 2.43007 68.3292C2.43007 68.1259 2.35819 67.9524 2.21444 67.8086C2.07068 67.6649 1.89716 67.593 1.69386 67.593C1.49056 67.593 1.31703 67.6649 1.17328 67.8086C1.02952 67.9524 0.957644 68.1259 0.957644 68.3292ZM1.30863 69.0911L1.50552 69.2281C1.6303 69.312 1.76727 69.3633 1.91643 69.3822L2.43863 69.4507C2.47556 69.4556 2.51266 69.4585 2.54992 69.4592L3.44878 69.4764C3.4659 69.4768 3.48303 69.4768 3.50015 69.4764L4.85272 69.4335C4.86132 69.4308 4.86988 69.4279 4.87841 69.425L6.65901 69.3308C6.66187 69.3308 6.66472 69.3308 6.66757 69.3308L8.89333 69.1853C8.89619 69.1853 8.89904 69.1853 8.90189 69.1853L11.5814 68.997L14.6118 68.7829L17.8306 68.6203L21.1093 68.5518H24.3795L27.5897 68.6802L30.7143 68.86C30.7258 68.8602 30.7372 68.8602 30.7486 68.86L33.7448 68.9199C33.7591 68.9203 33.7733 68.9203 33.7876 68.9199L36.6297 68.8343C36.644 68.8348 36.6583 68.8348 36.6725 68.8343L39.2322 68.5946L41.2525 68.5775C41.3541 68.5775 41.4409 68.5415 41.5127 68.4697C41.5846 68.3978 41.6206 68.311 41.6206 68.2094C41.6206 68.1077 41.5846 68.021 41.5127 67.9491C41.4409 67.8772 41.3541 67.8413 41.2525 67.8413L39.2322 67.8584L36.6811 67.5845C36.6782 67.5845 36.6754 67.5845 36.6725 67.5845L33.839 67.3191L30.8513 67.028C30.8427 67.0279 30.8342 67.0279 30.8256 67.028L27.6924 66.814L24.4651 66.5914C24.4622 66.5914 24.4594 66.5914 24.4565 66.5914L21.1607 66.4031C21.1351 66.3993 21.1094 66.3965 21.0836 66.3945L17.7707 66.4459C17.7564 66.4456 17.7422 66.4456 17.7279 66.4459L14.4834 66.6257C14.4806 66.6257 14.4777 66.6257 14.4749 66.6257L11.4358 66.8226C11.4301 66.8225 11.4244 66.8225 11.4187 66.8226L8.73924 67.028L6.52204 67.1907L4.74144 67.3191C4.73858 67.3191 4.73573 67.3191 4.73287 67.3191L3.38886 67.4218L2.5328 67.4903H2.04484C2.03057 67.49 2.01631 67.49 2.00204 67.4903L1.76234 67.4989C1.34409 67.5182 1.07759 67.7292 0.962852 68.1318C0.848112 68.5345 0.963371 68.8543 1.30863 69.0911Z" fill="black"/>
<path d="M36.7838 68.6032C36.7838 68.7592 36.8389 68.8924 36.9492 69.0027C37.0596 69.113 37.1927 69.1682 37.3488 69.1682C37.5048 69.1682 37.638 69.113 37.7483 69.0027C37.8586 68.8924 37.9138 68.7592 37.9138 68.6032C37.9138 68.4471 37.8586 68.314 37.7483 68.2037C37.638 68.0933 37.5048 68.0382 37.3488 68.0382C37.1927 68.0382 37.0596 68.0933 36.9492 68.2037C36.8389 68.314 36.7838 68.4471 36.7838 68.6032ZM36.7238 68.6032C36.7238 68.7686 36.7823 68.9099 36.8994 69.0269C37.0164 69.1439 37.1576 69.2024 37.3231 69.2024C37.4886 69.2024 37.6298 69.1439 37.7468 69.0269C37.8638 68.9099 37.9223 68.7686 37.9223 68.6032C37.9223 68.4377 37.8638 68.2964 37.7468 68.1794C37.6298 68.0624 37.4886 68.0039 37.3231 68.0039C37.1576 68.0039 37.0164 68.0624 36.8994 68.1794C36.7823 68.2964 36.7238 68.4377 36.7238 68.6032ZM36.5869 68.6117C36.5869 68.8032 36.6546 68.9666 36.79 69.102C36.9254 69.2374 37.0888 69.3051 37.2803 69.3051C37.4718 69.3051 37.6352 69.2374 37.7706 69.102C37.906 68.9666 37.9737 68.8032 37.9737 68.6117C37.9737 68.4202 37.906 68.2568 37.7706 68.1214C37.6352 67.986 37.4718 67.9183 37.2803 67.9183C37.0888 67.9183 36.9254 67.986 36.79 68.1214C36.6546 68.2568 36.5869 68.4202 36.5869 68.6117ZM36.4242 68.8257L36.4328 68.8514C36.5196 69.2133 36.7421 69.4445 37.1005 69.5448L37.4601 69.6476C37.5467 69.673 37.6352 69.6873 37.7254 69.6904L38.5216 69.7075C38.5501 69.7086 38.5786 69.7086 38.6072 69.7075L39.8399 69.639C39.8513 69.6392 39.8627 69.6392 39.8741 69.639L41.5092 69.5106C41.5178 69.5078 41.5264 69.505 41.5349 69.502L43.521 69.3051C43.5238 69.3051 43.5267 69.3051 43.5295 69.3051L48.3235 68.7915C48.3292 68.7887 48.3349 68.7858 48.3406 68.7829L50.7889 68.4748C50.7975 68.472 50.8061 68.4692 50.8146 68.4662L53.0746 68.1238C53.0775 68.1238 53.0803 68.1238 53.0832 68.1238L55.0607 67.7985L56.6358 67.5588C56.6387 67.5588 56.6415 67.5588 56.6444 67.5588L57.7573 67.379L58.3908 67.2763C58.4401 67.2686 58.4886 67.2571 58.5363 67.242L58.7845 67.165C58.9933 67.0981 59.158 66.9733 59.2787 66.7904C59.3995 66.6074 59.4495 66.4069 59.429 66.1887C59.4084 65.9705 59.3217 65.7828 59.1689 65.6257C59.0161 65.4686 58.8309 65.3768 58.6133 65.3501L58.348 65.3159C58.2677 65.3089 58.1878 65.3118 58.1083 65.3245L57.4662 65.4101L56.3448 65.5727L54.7782 65.7696L52.8007 66.0007L50.5321 66.2148L48.0838 66.4459L43.2898 66.9082C43.2813 66.9081 43.2727 66.9081 43.2642 66.9082L41.2866 67.1393L39.6601 67.3191L38.436 67.4389C38.4159 67.4412 38.3959 67.4441 38.376 67.4475L37.5885 67.5673C37.5302 67.5769 37.4731 67.5911 37.4173 67.6101L37.0577 67.73C36.7943 67.8186 36.6059 67.9898 36.4927 68.2436L36.4756 68.2693C36.3951 68.4489 36.378 68.6344 36.4242 68.8257ZM57.8172 66.2832C57.8172 66.4842 57.8882 66.6557 58.0303 66.7978C58.1724 66.9398 58.3439 67.0109 58.5448 67.0109C58.7458 67.0109 58.9173 66.9398 59.0594 66.7978C59.2015 66.6557 59.2725 66.4842 59.2725 66.2832C59.2725 66.0823 59.2015 65.9108 59.0594 65.7687C58.9173 65.6266 58.7458 65.5556 58.5448 65.5556C58.3439 65.5556 58.1724 65.6266 58.0303 65.7687C57.8882 65.9108 57.8172 66.0823 57.8172 66.2832ZM57.9285 66.3089C57.9285 66.4649 57.9836 66.5981 58.094 66.7084C58.2043 66.8188 58.3375 66.8739 58.4935 66.8739C58.6495 66.8739 58.7827 66.8188 58.893 66.7084C59.0033 66.5981 59.0585 66.4649 59.0585 66.3089C59.0585 66.1529 59.0033 66.0197 58.893 65.9094C58.7827 65.7991 58.6495 65.7439 58.4935 65.7439C58.3375 65.7439 58.2043 65.7991 58.094 65.9094C57.9836 66.0197 57.9285 66.1529 57.9285 66.3089ZM58.3651 65.9836L58.3308 65.9922C58.2341 66.016 58.1598 66.0704 58.1082 66.1556C58.0565 66.2408 58.0424 66.3318 58.0661 66.4286C58.0897 66.5254 58.144 66.5997 58.2291 66.6516C58.3142 66.7034 58.4052 66.7176 58.502 66.6942L58.5363 66.6856C58.6332 66.662 58.7076 66.6075 58.7594 66.5223C58.8112 66.437 58.8253 66.3459 58.8017 66.249C58.778 66.1521 58.7236 66.0777 58.6383 66.0259C58.5531 65.9741 58.462 65.96 58.3651 65.9836Z" fill="black"/>
<path d="M2.20743 63.9718C2.20743 64.1207 2.26009 64.2478 2.3654 64.3532C2.4707 64.4585 2.59782 64.5111 2.74675 64.5111C2.89568 64.5111 3.0228 64.4585 3.12811 64.3532C3.23342 64.2478 3.28607 64.1207 3.28607 63.9718C3.28607 63.8229 3.23342 63.6957 3.12811 63.5904C3.0228 63.4851 2.89568 63.4325 2.74675 63.4325C2.59782 63.4325 2.4707 63.4851 2.3654 63.5904C2.26009 63.6957 2.20743 63.8229 2.20743 63.9718ZM1.99342 63.8263L1.89925 64.0232C1.88541 64.0595 1.87399 64.0966 1.86501 64.1345L1.75372 64.4854C1.75081 64.4911 1.74795 64.4968 1.74516 64.5026L1.60819 64.9648C1.60528 64.9705 1.60242 64.9762 1.59963 64.982L1.46266 65.4956C1.45959 65.5069 1.45673 65.5184 1.4541 65.5298L1.32569 66.0692C1.32219 66.089 1.31933 66.109 1.31713 66.1291L1.23152 66.6598C1.22861 66.6655 1.22576 66.6712 1.22296 66.677L1.15448 67.1478C1.14973 67.1819 1.14688 67.2161 1.14592 67.2505L1.13736 67.6272C1.13485 67.6845 1.1377 67.7416 1.14592 67.7984L1.18016 68.0467C1.18591 68.0872 1.19447 68.1272 1.20584 68.1665L1.24864 68.3035C1.29763 68.4709 1.38894 68.6108 1.52258 68.7229L1.58251 68.7743C1.7306 68.9006 1.90181 68.9691 2.09614 68.9798H2.16463C2.20173 68.9822 2.23882 68.9822 2.27592 68.9798L2.38721 68.9712C2.39291 68.9713 2.39862 68.9713 2.40433 68.9712L2.67827 68.9455C2.69547 68.9431 2.71259 68.9403 2.72963 68.937L3.28607 68.8514L4.13357 68.7486C4.1651 68.7473 4.19649 68.7444 4.22774 68.7401L5.34062 68.5004C5.40902 68.4855 5.47465 68.4627 5.53751 68.4319L6.48774 67.9696L7.48077 67.9268C7.58934 67.9219 7.6803 67.8793 7.75366 67.7991C7.82701 67.7189 7.86133 67.6245 7.85661 67.5159C7.85189 67.4073 7.80951 67.3163 7.72947 67.2428C7.64943 67.1692 7.55512 67.1347 7.44653 67.1392L6.4535 67.182L5.44334 66.831C5.35157 66.801 5.2574 66.7867 5.16084 66.7882H4.02228C3.95608 66.7873 3.89044 66.793 3.82539 66.8054L2.96933 66.9766C2.94917 66.9816 2.92919 66.9873 2.9094 66.9937L2.35296 67.1392C2.31494 67.1511 2.27784 67.1653 2.24167 67.182L2.05334 67.2591L2.01054 67.2676C2.06242 67.2666 2.11378 67.2608 2.16463 67.2505H2.09614C2.2701 67.4032 2.4727 67.4745 2.70395 67.4645L2.64402 67.4132C2.68263 67.6129 2.77965 67.7784 2.93508 67.9097L2.90084 67.7642C2.87802 67.8783 2.87802 67.9924 2.90084 68.1066L2.95221 67.8583C2.95986 67.8244 2.96557 67.7902 2.96933 67.7556L3.00357 67.396L3.07205 66.9509L3.1491 66.4287L3.23471 65.9322L3.35455 65.4699L3.49152 65.0162C3.49812 64.9936 3.50383 64.9708 3.50865 64.9477L3.58569 64.5796C3.60463 64.4831 3.60748 64.386 3.59425 64.2885L3.56857 64.0745C3.54521 63.8914 3.46922 63.7336 3.34061 63.6011C3.212 63.4687 3.05651 63.3881 2.87415 63.3594C2.69178 63.3306 2.51904 63.3595 2.35593 63.446C2.19281 63.5324 2.07198 63.6592 1.99342 63.8263Z" fill="black"/>
<path d="M32.1781 68.5432V68.5518C32.2007 68.6464 32.244 68.7304 32.3081 68.8037C32.3722 68.8769 32.4496 68.931 32.5404 68.966C32.6313 69.001 32.725 69.0128 32.8217 69.0014C32.9183 68.9901 33.0068 68.9568 33.087 68.9018C33.1672 68.8467 33.23 68.7761 33.2754 68.69C33.3207 68.6038 33.3434 68.5121 33.3434 68.4148C33.3434 68.3175 33.3207 68.2257 33.2754 68.1396C33.23 68.0535 33.1672 67.9829 33.087 67.9278C33.0068 67.8727 32.9183 67.8395 32.8217 67.8281C32.725 67.8168 32.6312 67.8286 32.5404 67.8636C32.4496 67.8985 32.3721 67.9527 32.3081 68.0259C32.244 68.0992 32.2007 68.1831 32.1781 68.2778V68.2864C32.1568 68.372 32.1568 68.4576 32.1781 68.5432ZM32.3322 68.8856L32.4349 69.0055C32.5073 69.0905 32.5929 69.159 32.6918 69.2109L32.9914 69.365C33.0569 69.3987 33.1254 69.4243 33.1968 69.4421L33.7276 69.579C33.7587 69.5863 33.7901 69.592 33.8218 69.5962L34.6436 69.7246C34.6691 69.7284 34.6948 69.7313 34.7206 69.7331L35.7993 69.8187C35.822 69.8224 35.8448 69.8252 35.8677 69.8273L37.0748 69.8358C37.0862 69.836 37.0976 69.836 37.109 69.8358L38.2904 69.8016C38.3018 69.8018 38.3132 69.8018 38.3246 69.8016L39.3605 69.7417C39.4096 69.7368 39.4581 69.7282 39.506 69.716L40.3877 69.5277C40.4896 69.5058 40.5838 69.4659 40.6702 69.4078L41.1325 69.0996H41.6462C41.7454 69.0996 41.8302 69.0645 41.9004 68.9943C41.9706 68.9241 42.0057 68.8394 42.0057 68.7401C42.0057 68.6408 41.9706 68.5561 41.9004 68.4858C41.8302 68.4156 41.7454 68.3805 41.6462 68.3805H41.1325L40.6702 68.0724C40.5712 68.0057 40.4628 67.9629 40.3449 67.944L39.4546 67.7984C39.3893 67.7889 39.3237 67.7861 39.2577 67.7899L38.2305 67.8327L37.0748 67.8669L35.9105 67.8583L34.8918 67.7984L34.1214 67.6957L33.6077 67.593C33.5568 67.5831 33.5055 67.5774 33.4536 67.5758H33.1112C32.9201 67.5695 32.7461 67.6208 32.589 67.7299L32.4606 67.8241C32.2884 67.9484 32.1896 68.1159 32.1641 68.3268C32.1386 68.5376 32.1946 68.7239 32.3322 68.8856Z" fill="black"/>
<path d="M53.3999 67.379L53.4084 67.3961C53.5101 67.5358 53.6468 67.6147 53.8186 67.6327C53.9904 67.6507 54.1404 67.6019 54.2688 67.4862C54.3972 67.3706 54.4613 67.2265 54.4613 67.0537C54.4613 66.881 54.3972 66.7368 54.2688 66.6212C54.1404 66.5056 53.9904 66.4568 53.8186 66.4748C53.6468 66.4928 53.5101 66.5716 53.4084 66.7113L53.3999 66.7284C53.2436 66.9453 53.2436 67.1622 53.3999 67.379ZM53.4598 67.5331L53.5197 67.593C53.6761 67.7486 53.8644 67.8313 54.0847 67.8413L54.41 67.8499C54.4588 67.8508 54.5073 67.8479 54.5556 67.8413L55.1634 67.7728L56.0794 67.6958C56.0936 67.6961 56.1079 67.6961 56.1222 67.6958L57.295 67.5502L58.5962 67.3961C58.6104 67.3964 58.6247 67.3964 58.639 67.3961L59.9488 67.1993C59.9602 67.1966 59.9716 67.1937 59.983 67.1907L61.1986 66.9596C61.21 66.9597 61.2214 66.9597 61.2328 66.9596L62.2344 66.7284C62.2575 66.7235 62.2803 66.7178 62.3029 66.7113L63.022 66.4973C63.2308 66.4342 63.3994 66.3146 63.528 66.1384C63.6565 65.9622 63.719 65.7651 63.7154 65.5471V65.4786C63.7134 65.3982 63.6963 65.3211 63.6641 65.2474L63.6384 65.1789C63.5511 64.9742 63.4102 64.8176 63.2158 64.7092C63.0213 64.6008 62.8141 64.5634 62.594 64.5968L61.8578 64.7081C61.8521 64.708 61.8464 64.708 61.8407 64.7081L60.8391 64.8793L59.6235 65.0591L58.3222 65.256L57.021 65.4358C57.0153 65.4357 57.0096 65.4357 57.0039 65.4358L55.8311 65.6155C55.811 65.6178 55.7911 65.6207 55.7712 65.6241L54.8552 65.821C54.8379 65.8262 54.8208 65.8319 54.8038 65.8381L54.196 66.0008C54.1245 66.0184 54.056 66.0441 53.9906 66.0778L53.7081 66.2319C53.49 66.3508 53.3502 66.5306 53.2886 66.7712L53.2715 66.8483C53.2046 67.1122 53.2674 67.3405 53.4598 67.5331ZM63.1333 65.0933L63.0819 65.1019C62.8737 65.1668 62.7871 65.3068 62.8222 65.522C62.8572 65.7373 62.9838 65.8426 63.2018 65.8381L63.2532 65.8296C63.4614 65.7647 63.548 65.6247 63.5129 65.4094C63.4779 65.1941 63.3513 65.0888 63.1333 65.0933Z" fill="black"/>
<path d="M6.26783 55.8445C6.26783 56.0053 6.32466 56.1425 6.43833 56.2561C6.55199 56.3698 6.6892 56.4266 6.84995 56.4266C7.0107 56.4266 7.14791 56.3698 7.26157 56.2561C7.37524 56.1425 7.43207 56.0053 7.43207 55.8445C7.43207 55.6838 7.37524 55.5466 7.26157 55.4329C7.14791 55.3192 7.0107 55.2624 6.84995 55.2624C6.6892 55.2624 6.55199 55.3192 6.43833 55.4329C6.32466 55.5466 6.26783 55.6838 6.26783 55.8445ZM6.19078 55.8445C6.19078 56.0194 6.25263 56.1688 6.37633 56.2925C6.50002 56.4161 6.64934 56.478 6.82427 56.478C6.9992 56.478 7.14851 56.4161 7.27221 56.2925C7.39591 56.1688 7.45775 56.0194 7.45775 55.8445C7.45775 55.6696 7.39591 55.5203 7.27221 55.3966C7.14851 55.2729 6.9992 55.211 6.82427 55.211C6.64934 55.211 6.50002 55.2729 6.37633 55.3966C6.25263 55.5203 6.19078 55.6696 6.19078 55.8445ZM5.98533 55.8616C5.98533 56.0744 6.06055 56.256 6.21099 56.4064C6.36143 56.5569 6.54303 56.6321 6.75578 56.6321C6.96854 56.6321 7.15014 56.5569 7.30058 56.4064C7.45102 56.256 7.52624 56.0744 7.52624 55.8616C7.52624 55.6489 7.45102 55.4673 7.30058 55.3168C7.15014 55.1664 6.96854 55.0912 6.75578 55.0912C6.54303 55.0912 6.36143 55.1664 6.21099 55.3168C6.06055 55.4673 5.98533 55.6489 5.98533 55.8616ZM5.70283 55.913C5.70283 56.1801 5.79727 56.4081 5.98616 56.597C6.17504 56.7859 6.40305 56.8803 6.67018 56.8803C6.9373 56.8803 7.16531 56.7859 7.3542 56.597C7.54308 56.4081 7.63753 56.1801 7.63753 55.913C7.63753 55.6459 7.54308 55.4179 7.3542 55.229C7.16531 55.0401 6.9373 54.9456 6.67018 54.9456C6.40305 54.9456 6.17504 55.0401 5.98616 55.229C5.79727 55.4179 5.70283 55.6459 5.70283 55.913ZM5.75419 55.2795L5.62578 55.425C5.46368 55.6073 5.36095 55.8185 5.3176 56.0585L5.24912 56.4352C5.2256 56.5628 5.2199 56.6912 5.23199 56.8204L5.28336 57.3597C5.2918 57.4351 5.30606 57.5092 5.32616 57.5823L5.48025 58.2072C5.48995 58.2477 5.50137 58.2876 5.51449 58.3271L5.75419 59.0034C5.76471 59.0323 5.77613 59.0608 5.78843 59.089L6.05381 59.7396C6.07198 59.7804 6.09195 59.8204 6.11374 59.8594L6.43048 60.4672C6.44627 60.5021 6.46339 60.5364 6.48184 60.57L6.82427 61.1178C6.85335 61.1623 6.88474 61.2051 6.91843 61.2463L7.2951 61.7257C7.33993 61.7805 7.38844 61.8319 7.44063 61.8797L7.86866 62.2907C7.91462 62.3337 7.96314 62.3736 8.01419 62.4105L8.45935 62.7358C8.50856 62.7733 8.55993 62.8075 8.61344 62.8385L9.08427 63.1039C9.13692 63.1329 9.19113 63.1586 9.24692 63.181L9.70919 63.3693C9.83053 63.4176 9.95608 63.449 10.0859 63.4635L10.5139 63.5148C10.761 63.5435 10.9979 63.5064 11.2244 63.4035L11.4727 63.2922C11.7565 63.1615 11.9483 62.9481 12.0481 62.6521C12.148 62.356 12.1245 62.07 11.9778 61.7941L11.8579 61.5544C11.7613 61.3731 11.6301 61.2219 11.4641 61.1007L11.1217 60.8439C11.054 60.795 10.9827 60.7522 10.9077 60.7155L10.5053 60.51L10.1372 60.3046L9.84616 60.0906L9.56366 59.8166L9.29829 59.4742L9.02435 59.0462L8.75041 58.524L8.49359 57.9504L8.27101 57.3769L8.11692 56.8461L7.98851 56.341C7.97687 56.2917 7.9626 56.2432 7.94571 56.1955L7.80874 55.8445C7.77453 55.7448 7.72887 55.6506 7.67177 55.562L7.56048 55.3994C7.46129 55.2529 7.33497 55.1356 7.18154 55.0476C7.0281 54.9596 6.86313 54.9097 6.68663 54.898C6.51012 54.8863 6.34001 54.9139 6.17628 54.9809C6.01256 55.0479 5.87187 55.1474 5.75419 55.2795ZM11.31 62.7444L11.5583 62.7529C11.667 62.7577 11.7615 62.7232 11.8418 62.6497C11.922 62.5761 11.9645 62.485 11.9692 62.3763C11.9739 62.2675 11.9395 62.173 11.866 62.0928C11.7924 62.0126 11.7013 61.9701 11.5925 61.9653L11.3443 61.9568C11.2355 61.9521 11.141 61.9865 11.0608 62.06C10.9806 62.1336 10.9381 62.2247 10.9334 62.3335C10.9286 62.4422 10.963 62.5367 11.0366 62.6169C11.1101 62.6972 11.2013 62.7396 11.31 62.7444Z" fill="black"/>
<path d="M6.86713 58.8835L6.85857 58.9349C6.83361 59.016 6.82505 59.0987 6.83289 59.1832L6.85001 59.3372C6.86263 59.461 6.90258 59.5751 6.96986 59.6797L7.15819 59.9793C7.18137 60.0154 7.20705 60.0497 7.23524 60.082L7.58622 60.4929C7.62744 60.543 7.6731 60.5887 7.72319 60.6299L8.27107 61.0665C8.31953 61.1051 8.37089 61.1393 8.42516 61.1692L9.14425 61.5716C9.17762 61.5904 9.21186 61.6076 9.24698 61.6229L10.0774 61.9825C10.1275 62.0033 10.1789 62.0204 10.2315 62.0338L11.1731 62.2821C11.3051 62.3187 11.4392 62.3301 11.5755 62.3163L12.5514 62.2051C12.6373 62.1981 12.72 62.1781 12.7996 62.1451L13.5102 61.8198L14.2121 61.8113C14.3209 61.8089 14.4129 61.7684 14.4881 61.6899C14.5633 61.6113 14.5997 61.5177 14.5974 61.4089C14.595 61.3002 14.5545 61.2082 14.476 61.133C14.3974 61.0578 14.3038 61.0213 14.195 61.0237L13.5187 61.0408L12.8681 60.6727C12.8485 60.6633 12.8285 60.6548 12.8082 60.647L11.9093 60.2361C11.8758 60.2201 11.8416 60.2058 11.8066 60.1933L10.9249 59.8937L10.1458 59.5684L9.41819 59.226C9.40967 59.223 9.40111 59.2201 9.39251 59.2174L8.75903 58.9435L8.27963 58.7123L7.94577 58.5582C7.86684 58.5215 7.78409 58.4987 7.69751 58.4897L7.54342 58.4726C7.52059 58.4714 7.49776 58.4714 7.47493 58.4726H7.42357C7.13456 58.4694 6.94908 58.6064 6.86713 58.8835Z" fill="black"/>
<path d="M53.6912 60.2362C53.6912 60.3993 53.7488 60.5385 53.8642 60.6539C53.9795 60.7692 54.1187 60.8269 54.2819 60.8269C54.445 60.8269 54.5842 60.7692 54.6995 60.6539C54.8149 60.5385 54.8725 60.3993 54.8725 60.2362C54.8725 60.0731 54.8149 59.9339 54.6995 59.8185C54.5842 59.7032 54.445 59.6455 54.2819 59.6455C54.1187 59.6455 53.9795 59.7032 53.8642 59.8185C53.7488 59.9339 53.6912 60.0731 53.6912 60.2362ZM54.0935 59.6027L54.0079 59.6198C53.8298 59.6603 53.6871 59.7544 53.5799 59.9023L53.5028 60.0136C53.4687 60.0588 53.4402 60.1074 53.4172 60.1592L53.3573 60.3047C53.3513 60.316 53.3456 60.3274 53.3402 60.3389L53.2974 60.4759C53.2609 60.5848 53.2496 60.6963 53.2635 60.8103C53.2774 60.9243 53.3152 61.0298 53.3768 61.1267C53.4384 61.2236 53.5178 61.3026 53.6152 61.3636C53.7125 61.4246 53.8182 61.4617 53.9323 61.4749C54.0464 61.4881 54.1578 61.4761 54.2664 61.4389C54.3751 61.4017 54.4705 61.3429 54.5526 61.2626C54.6347 61.1823 54.6955 61.0882 54.7351 60.9804C54.7746 60.8726 54.7891 60.7615 54.7784 60.6471L54.7613 60.5101C54.718 60.6236 54.7038 60.7406 54.7185 60.8611L54.7441 60.7841L54.7784 60.7327C54.8102 60.6844 54.8359 60.6331 54.8554 60.5786L54.8897 60.493C54.9832 60.2387 54.9397 60.0106 54.7591 59.8086C54.5785 59.6067 54.3566 59.538 54.0935 59.6027ZM53.0748 60.8611C53.0748 61.1306 53.1701 61.3606 53.3607 61.5512C53.5512 61.7418 53.7812 61.837 54.0507 61.837C54.3202 61.837 54.5502 61.7418 54.7408 61.5512C54.9314 61.3606 55.0266 61.1306 55.0266 60.8611C55.0266 60.5916 54.9314 60.3616 54.7408 60.1711C54.5502 59.9805 54.3202 59.8852 54.0507 59.8852C53.7812 59.8852 53.5512 59.9805 53.3607 60.1711C53.1701 60.3616 53.0748 60.5916 53.0748 60.8611ZM53.0663 61.4861L53.1005 61.5545C53.2995 61.9391 53.6134 62.1617 54.0422 62.2223L54.1877 62.2394C54.3635 62.2665 54.5376 62.258 54.7099 62.2137L54.9753 62.1367C55.0518 62.1177 55.126 62.092 55.1978 62.0596L55.5745 61.8798C55.6249 61.8544 55.6734 61.8259 55.72 61.7942L56.1994 61.4861C56.2349 61.462 56.2692 61.4364 56.3022 61.409L56.8072 61.0067C56.8429 60.9798 56.8772 60.9513 56.91 60.9211L57.4322 60.4074C57.4558 60.3854 57.4787 60.3626 57.5007 60.3389L57.9886 59.7825C58.0033 59.7657 58.0176 59.7486 58.0314 59.7311L58.4766 59.1661C58.4914 59.1465 58.5056 59.1266 58.5194 59.1062L58.9046 58.5669C58.9165 58.5472 58.9279 58.5272 58.9388 58.507L59.2556 58.0104C59.2614 58.0019 59.2671 57.9934 59.2727 57.9848L59.5124 57.5824C59.5411 57.5355 59.5668 57.487 59.5894 57.4369L59.735 57.103C59.7541 57.0639 59.7712 57.024 59.7863 56.9832L59.8634 56.7349C59.8811 56.6816 59.8954 56.6274 59.9062 56.5723L59.949 56.3582C59.9574 56.31 59.9631 56.2615 59.9661 56.2127L59.9832 56.0329C59.9927 55.9416 59.9927 55.8503 59.9832 55.759L59.9661 55.6135C59.9516 55.5135 59.9259 55.4165 59.8891 55.3224L59.8634 55.2368C59.7522 54.9326 59.5553 54.7015 59.2727 54.5434L59.247 54.5348C58.9596 54.3726 58.6544 54.3258 58.3316 54.3943C58.0087 54.4628 57.7489 54.6295 57.552 54.8944L57.5092 54.9543C57.401 55.1014 57.3268 55.2641 57.2866 55.4423L57.2524 55.5963C57.2459 55.6219 57.2402 55.6475 57.2353 55.6734L57.1925 55.9302L57.1325 56.2898L57.0298 56.7092L56.8757 57.1629L56.6788 57.5824L56.4306 57.9676L56.0967 58.3529L55.7115 58.7552L55.3177 59.1404L54.9924 59.4486L54.727 59.6455L54.5301 59.7654L54.3675 59.8339L54.162 59.8852L53.7425 59.9965C53.731 60.002 53.7196 60.0078 53.7083 60.0136L53.5456 60.0564C53.5428 60.0593 53.5399 60.0621 53.5371 60.065L53.3916 60.1078C53.0743 60.2068 52.8289 60.398 52.6553 60.6814L52.604 60.7584C52.5109 60.9116 52.4535 61.0771 52.4317 61.255C52.4098 61.4328 52.4255 61.6073 52.4787 61.7785C52.5319 61.9496 52.618 62.1022 52.7369 62.2363C52.8557 62.3704 52.9969 62.4742 53.1604 62.5476L53.2375 62.5818C53.5316 62.7151 53.8341 62.7379 54.1449 62.6503L54.2562 62.6246L54.3846 62.5904L54.8041 62.5048C54.827 62.4997 54.8499 62.4939 54.8725 62.4876L55.155 62.402C55.2074 62.388 55.2588 62.3709 55.3091 62.3507L55.643 62.2137C55.6989 62.1917 55.7532 62.166 55.8057 62.1367L56.1566 61.9312C56.2104 61.9005 56.2617 61.8663 56.3107 61.8285L56.6874 61.5374C56.7109 61.5182 56.7337 61.4982 56.7559 61.4775L57.1497 61.1179C57.1642 61.1068 57.1784 61.0954 57.1925 61.0837L57.6119 60.6728C57.6236 60.6616 57.635 60.6502 57.6462 60.6385L58.0742 60.1934C58.095 60.1712 58.1149 60.1484 58.1341 60.1249L58.545 59.6284C58.579 59.5875 58.6104 59.5447 58.6392 59.5L58.9816 58.9692C59.0172 58.9144 59.0486 58.8574 59.0758 58.798L59.3412 58.2245C59.3608 58.1797 59.3779 58.1341 59.3925 58.0875L59.5809 57.4882C59.5942 57.4488 59.6056 57.4089 59.6151 57.3684L59.735 56.8548C59.743 56.8094 59.7487 56.7637 59.7521 56.7178L59.8035 56.3069C59.8065 56.2955 59.8093 56.2841 59.812 56.2726L59.8291 56.0843L59.8463 56.0073C59.7464 56.1505 59.6779 56.3075 59.6408 56.4781L59.6836 56.4182C59.5418 56.307 59.3838 56.2284 59.2096 56.1824C59.0354 56.1364 58.8592 56.1268 58.6811 56.1535C58.5029 56.1803 58.3373 56.2412 58.1842 56.3362C58.0312 56.4313 57.9032 56.5528 57.8003 56.7007L57.8174 56.7178C57.7478 56.4215 57.5937 56.179 57.3551 55.9901L57.3722 56.0757C57.373 55.9717 57.3616 55.8689 57.338 55.7676V55.8446V55.9045L57.3209 55.9559L57.2866 56.0501L57.1839 56.2726L56.987 56.5979L56.696 57.0517L56.3535 57.5482L55.9597 58.0532L55.5232 58.5498L55.0866 58.9949L54.6928 59.3202L54.3418 59.5599L54.1192 59.6712L53.9651 59.7226C53.9479 59.7279 53.9308 59.7336 53.9138 59.7397L53.7768 59.791C53.666 59.8336 53.5633 59.8907 53.4686 59.9623L53.4087 60.0051C53.1777 60.1765 53.0299 60.4023 52.9651 60.6826C52.9003 60.9628 52.934 61.2306 53.0663 61.4861ZM52.818 61.4347C52.818 61.6593 52.8974 61.8509 53.0562 62.0097C53.215 62.1685 53.4067 62.2479 53.6313 62.2479C53.8558 62.2479 54.0475 62.1685 54.2063 62.0097C54.3651 61.8509 54.4445 61.6593 54.4445 61.4347C54.4445 61.2101 54.3651 61.0184 54.2063 60.8596C54.0475 60.7008 53.8558 60.6214 53.6313 60.6214C53.4067 60.6214 53.215 60.7008 53.0562 60.8596C52.8974 61.0184 52.818 61.2101 52.818 61.4347ZM53.7254 61.837L53.7682 61.8285C54.0126 61.7616 54.1109 61.6037 54.0633 61.3549C54.0156 61.106 53.8659 60.9957 53.6141 61.0238L53.5713 61.0323C53.327 61.0992 53.2286 61.2571 53.2763 61.5059C53.3239 61.7548 53.4736 61.8651 53.7254 61.837Z" fill="black"/>
<path d="M53.4724 6.78703C53.4724 6.92414 53.5209 7.04117 53.6178 7.13812C53.7148 7.23507 53.8318 7.28355 53.9689 7.28355C54.106 7.28355 54.223 7.23507 54.32 7.13812C54.4169 7.04117 54.4654 6.92414 54.4654 6.78703C54.4654 6.64992 54.4169 6.53289 54.32 6.43594C54.223 6.33899 54.106 6.29052 53.9689 6.29052C53.8318 6.29052 53.7148 6.33899 53.6178 6.43594C53.5209 6.53289 53.4724 6.64992 53.4724 6.78703ZM53.284 6.78703C53.284 6.96433 53.3467 7.11566 53.4721 7.24103C53.5975 7.3664 53.7488 7.42908 53.9261 7.42908C54.1034 7.42908 54.2547 7.3664 54.3801 7.24103C54.5055 7.11566 54.5681 6.96433 54.5681 6.78703C54.5681 6.60974 54.5055 6.45841 54.3801 6.33304C54.2547 6.20767 54.1034 6.14499 53.9261 6.14499C53.7488 6.14499 53.5975 6.20767 53.4721 6.33304C53.3467 6.45841 53.284 6.60974 53.284 6.78703ZM54.0716 6.0765L54.0031 6.05082C53.851 6.00871 53.6998 6.01156 53.5494 6.05938L53.4638 6.08506C53.5658 6.09249 53.6657 6.08108 53.7634 6.05082L53.7121 6.04226C53.4606 6.02338 53.2415 6.09853 53.0545 6.26769C52.8675 6.43685 52.7709 6.64745 52.7646 6.89951C52.7583 7.15156 52.8443 7.36673 53.0226 7.54502C53.2009 7.7233 53.416 7.80929 53.6681 7.803C53.9201 7.7967 54.1307 7.70007 54.2999 7.5131C54.4691 7.32614 54.5442 7.10694 54.5253 6.85552L54.5168 6.80416C54.3123 6.98375 54.221 7.20918 54.2428 7.48044L54.3028 7.42052C54.3332 7.39691 54.3617 7.37123 54.3884 7.34347L54.4312 7.28355C54.5129 7.18653 54.5668 7.07592 54.5926 6.95171C54.6185 6.8275 54.6133 6.7046 54.5771 6.583C54.5409 6.4614 54.478 6.3557 54.3883 6.2659C54.2987 6.1761 54.1931 6.11296 54.0716 6.0765ZM52.6591 7.03529V7.17226C52.6695 7.4234 52.758 7.64313 52.9245 7.83143L53.1556 8.09681C53.1879 8.13038 53.2221 8.16177 53.2584 8.19097L53.6521 8.54196C53.6661 8.55373 53.6804 8.56514 53.695 8.5762L54.2171 8.98711C54.2256 8.99294 54.2342 8.99865 54.2428 9.00423L54.825 9.44082L55.3557 9.84317L55.7837 10.1856L56.0577 10.4339L56.2032 10.6051L56.2803 10.7164L56.2974 10.7506L56.3145 10.8105C56.3195 10.8335 56.3252 10.8564 56.3316 10.879L56.3659 10.9646L56.3744 11.016C56.3744 11.0217 56.3744 11.0274 56.3744 11.0331L56.4001 11.1101L56.4172 11.2043C56.4224 11.2244 56.4281 11.2444 56.4343 11.2642L56.46 11.367C56.4678 11.3901 56.4764 11.4129 56.4857 11.4354L56.5114 11.5039C56.5466 11.6023 56.5951 11.6936 56.6569 11.7779L56.6912 11.8292C56.7292 11.8846 56.772 11.936 56.8196 11.9833L56.8453 12.0004C57.1566 12.2954 57.5165 12.3773 57.9249 12.2463C58.3333 12.1153 58.5784 11.8393 58.6601 11.4183V11.4098C58.7112 11.1384 58.6655 10.8844 58.5231 10.6479L58.4889 10.5879C58.4833 10.5822 58.4775 10.5765 58.4718 10.5708L58.4033 10.451C58.3847 10.4215 58.3647 10.3929 58.3434 10.3654L58.2321 10.2198L58.078 9.98014C58.0523 9.93816 58.0238 9.89821 57.9924 9.86029L57.7013 9.51787C57.6824 9.49415 57.6624 9.47132 57.6414 9.44938L57.239 9.0556C57.2306 9.04688 57.2221 9.03832 57.2134 9.02991L56.7682 8.61901C56.7654 8.61613 56.7625 8.61328 56.7597 8.61044L56.3145 8.2081C56.3089 8.20232 56.3032 8.19661 56.2974 8.19097L55.8779 7.83143C55.8613 7.81659 55.8441 7.80233 55.8265 7.78863L55.4242 7.48044C55.4185 7.47754 55.4128 7.47468 55.4071 7.47188L55.0561 7.21506C55.0504 7.21216 55.0447 7.2093 55.039 7.2065L54.7222 6.98393L54.4483 6.79559C54.4206 6.77713 54.392 6.76001 54.3627 6.74423L54.1059 6.5987C54.0644 6.57591 54.0216 6.55593 53.9775 6.53878L53.7463 6.44461C53.6687 6.41557 53.5888 6.39559 53.5066 6.38469L53.2926 6.35044C53.2045 6.33679 53.116 6.33394 53.0272 6.34188L52.856 6.359C52.804 6.36389 52.7527 6.37245 52.7019 6.38469L52.5735 6.41893C52.448 6.44701 52.331 6.49552 52.2225 6.56446L52.154 6.61582C51.8725 6.80104 51.7099 7.06072 51.6661 7.39484L51.6575 7.46332C51.6263 7.71807 51.6777 7.95492 51.8116 8.17385L51.8715 8.26802C51.9299 8.36446 52.0012 8.45007 52.0856 8.52484L52.2311 8.65325C52.3163 8.72717 52.4105 8.7871 52.5136 8.83302L52.8218 8.97855C52.8691 8.99892 52.9176 9.01604 52.9673 9.02991L53.4638 9.18401L54.0545 9.36378L54.6281 9.59492L55.116 9.86885L55.5355 10.177L55.8693 10.5023L56.1347 10.8276L56.3487 11.1615L56.5028 11.4611L56.6056 11.7436L56.6826 12.0347L56.7597 12.3001C56.7676 12.3231 56.7761 12.346 56.7853 12.3686L56.8709 12.6168C56.8737 12.6254 56.8766 12.634 56.8795 12.6425L56.9737 12.8822C56.9885 12.9259 57.0056 12.9687 57.025 13.0106L57.1363 13.2332C57.1499 13.2565 57.1641 13.2793 57.1791 13.3017L57.299 13.5071C57.3224 13.5485 57.3481 13.5884 57.376 13.627L57.4959 13.7896C57.5043 13.7983 57.5129 13.8069 57.5215 13.8153L57.6328 13.9608C57.6841 14.0237 57.7412 14.0808 57.804 14.132L57.9068 14.2262C58.0517 14.3505 58.2177 14.4318 58.4047 14.4701C58.5918 14.5083 58.7764 14.4987 58.9585 14.4412C59.1405 14.3837 59.2972 14.2856 59.4283 14.1468C59.5595 14.0081 59.6487 13.8462 59.6959 13.6612L59.7302 13.5242C59.7731 13.3696 59.7845 13.2126 59.7644 13.0534L59.7387 12.8651C59.7284 12.7893 59.7113 12.7151 59.6874 12.6425L59.6189 12.4542C59.6002 12.3954 59.5773 12.3384 59.5504 12.2829L59.4477 12.0775L59.3621 11.8977L59.285 11.7265L59.2165 11.5211L59.1309 11.2642C59.1281 11.2585 59.1253 11.2528 59.1224 11.2471L59.0111 10.9304C59.0007 10.9014 58.9893 10.8729 58.9769 10.8448L58.8056 10.4595C58.7925 10.4305 58.7782 10.4019 58.7628 10.3739L58.5403 9.95446C58.5217 9.92218 58.5017 9.89079 58.4803 9.86029L58.1978 9.4237C58.1717 9.38206 58.1431 9.34211 58.1122 9.30385L57.7356 8.8587C57.7011 8.8163 57.664 8.77635 57.6243 8.73885L57.1706 8.31938C57.13 8.28228 57.0872 8.24804 57.0422 8.21666L56.4857 7.83143C56.4367 7.79624 56.3853 7.76485 56.3316 7.73726L55.6896 7.41196C55.6396 7.38848 55.5882 7.36851 55.5355 7.35203L54.8335 7.11234C54.7942 7.09883 54.7542 7.08741 54.7137 7.07809L54.0802 6.94112L53.6436 6.82128L53.4381 6.75279L53.3354 6.69287C53.4119 6.76802 53.4975 6.8308 53.5922 6.8812L53.5152 6.80416C53.4703 7.17107 53.5816 7.4821 53.849 7.73726L53.8576 7.66878C53.5443 7.85132 53.3645 8.12241 53.3183 8.48204L53.3953 8.43923C53.305 8.46539 53.2194 8.50249 53.1385 8.55052L53.1728 8.5334L53.1385 8.54196H53.1642L53.2498 8.56764L53.3953 8.62757L53.6265 8.74741L53.9175 8.91863L54.2343 9.12408L54.5938 9.38946L54.9705 9.71476L55.3985 10.0914L55.8094 10.4852L56.1433 10.8448L56.3402 11.093L56.4172 11.2471L56.4686 11.3841C56.4854 11.4311 56.5054 11.4768 56.5285 11.5211L56.5884 11.6409C56.594 11.6495 56.5997 11.6581 56.6056 11.6666L56.6398 11.7265C56.6165 11.6146 56.5766 11.509 56.52 11.4098V11.4183C56.9208 11.5951 57.2926 11.5471 57.6355 11.2744C57.9783 11.0017 58.1087 10.6502 58.0266 10.2198L58.0009 10.2113C58.1199 10.4019 58.2825 10.5418 58.4889 10.6307L58.4547 10.5794C58.4781 10.639 58.5066 10.6961 58.5403 10.7506L58.5146 10.6821C58.5246 10.7374 58.5389 10.7917 58.5574 10.8448L58.5403 10.742C58.5375 10.7334 58.5347 10.7249 58.5317 10.7164L58.506 10.6051L58.4803 10.5023C58.4804 10.4966 58.4804 10.4909 58.4803 10.4852L58.4461 10.3825C58.4461 10.3796 58.4461 10.3768 58.4461 10.3739L58.4119 10.2455L58.3776 10.1C58.3643 10.0473 58.3472 9.99598 58.3262 9.9459L58.2492 9.74901C58.2272 9.69856 58.2015 9.65005 58.1722 9.60348L58.0352 9.37234C58.0049 9.32106 57.9706 9.27255 57.9325 9.22681L57.7013 8.95287C57.6669 8.91312 57.6298 8.87603 57.59 8.84158L57.239 8.52484C57.2224 8.51005 57.2052 8.49578 57.1877 8.48204L56.7168 8.10537C56.7112 8.0996 56.7055 8.09389 56.6997 8.08825L56.1518 7.67734C56.149 7.67733 56.1461 7.67733 56.1433 7.67734L55.5783 7.24931L55.0732 6.84696L54.6709 6.52165C54.6624 6.51583 54.6538 6.51012 54.6452 6.50453L54.3627 6.29052C54.2942 6.23566 54.22 6.19 54.1401 6.15355L54.0117 6.10218C53.8584 6.03541 53.6985 6.01008 53.5321 6.02619C53.3657 6.04231 53.2137 6.09784 53.076 6.19279C52.9384 6.28773 52.8325 6.41013 52.7584 6.55999C52.6842 6.70985 52.6511 6.86828 52.6591 7.03529ZM57.7869 13.5242C57.7869 13.7677 57.873 13.9756 58.0452 14.1477C58.2174 14.3199 58.4252 14.406 58.6687 14.406C58.9122 14.406 59.12 14.3199 59.2922 14.1477C59.4643 13.9756 59.5504 13.7677 59.5504 13.5242C59.5504 13.2807 59.4643 13.0729 59.2922 12.9007C59.12 12.7286 58.9122 12.6425 58.6687 12.6425C58.4252 12.6425 58.2174 12.7286 58.0452 12.9007C57.873 13.0729 57.7869 13.2807 57.7869 13.5242ZM58.4547 13.8239L58.506 13.9009C58.6378 14.0517 58.7871 14.0716 58.9538 13.9605C59.1205 13.8494 59.1595 13.7039 59.071 13.5242L59.0197 13.4472C58.8878 13.2964 58.7386 13.2765 58.5719 13.3876C58.4052 13.4987 58.3661 13.6442 58.4547 13.8239Z" fill="black"/>
<path d="M8.39956 10.0049C8.39956 10.1539 8.45221 10.281 8.55752 10.3863C8.66283 10.4916 8.78995 10.5443 8.93887 10.5443C9.0878 10.5443 9.21492 10.4916 9.32023 10.3863C9.42554 10.281 9.47819 10.1539 9.47819 10.0049C9.47819 9.85601 9.42554 9.72889 9.32023 9.62359C9.21492 9.51828 9.0878 9.46562 8.93887 9.46562C8.78995 9.46562 8.66283 9.51828 8.55752 9.62359C8.45221 9.72889 8.39956 9.85601 8.39956 10.0049ZM8.391 9.99638C8.391 10.15 8.44532 10.2812 8.55397 10.3898C8.66262 10.4985 8.79378 10.5528 8.94744 10.5528C9.10109 10.5528 9.23225 10.4985 9.3409 10.3898C9.44955 10.2812 9.50388 10.15 9.50388 9.99638C9.50388 9.84272 9.44955 9.71157 9.3409 9.60292C9.23225 9.49427 9.10109 9.43994 8.94744 9.43994C8.79378 9.43994 8.66262 9.49427 8.55397 9.60292C8.44532 9.71157 8.391 9.84272 8.391 9.99638ZM8.31395 9.9707C8.31395 10.1456 8.3758 10.2949 8.49949 10.4186C8.62319 10.5423 8.7725 10.6042 8.94744 10.6042C9.12237 10.6042 9.27168 10.5423 9.39538 10.4186C9.51907 10.2949 9.58092 10.1456 9.58092 9.9707C9.58092 9.79577 9.51907 9.64645 9.39538 9.52276C9.27168 9.39906 9.12237 9.33721 8.94744 9.33721C8.7725 9.33721 8.62319 9.39906 8.49949 9.52276C8.3758 9.64645 8.31395 9.79577 8.31395 9.9707ZM8.21978 9.89365C8.21978 10.097 8.29166 10.2705 8.43541 10.4142C8.57917 10.558 8.7527 10.6299 8.956 10.6299C9.15929 10.6299 9.33282 10.558 9.47658 10.4142C9.62033 10.2705 9.69221 10.097 9.69221 9.89365C9.69221 9.69035 9.62033 9.51683 9.47658 9.37307C9.33282 9.22932 9.15929 9.15744 8.956 9.15744C8.7527 9.15744 8.57917 9.22932 8.43541 9.37307C8.29166 9.51683 8.21978 9.69035 8.21978 9.89365ZM9.69221 10.2361L9.72645 10.1762C9.8903 9.89108 9.89601 9.60287 9.74357 9.31153L9.71789 9.26017C9.58253 9.00124 9.37137 8.84429 9.08441 8.78933L9.01592 8.78077C8.84341 8.74607 8.67505 8.76034 8.51084 8.82358L8.36531 8.8835C8.33312 8.89599 8.30173 8.91026 8.27115 8.9263L8.03145 9.05471C7.99568 9.07525 7.96144 9.09808 7.92872 9.1232L7.6291 9.34577C7.6053 9.36463 7.58247 9.38461 7.56062 9.4057L7.20963 9.71388C7.19186 9.73035 7.17474 9.74747 7.15827 9.76524L6.80728 10.1334C6.77316 10.1681 6.74177 10.2052 6.71312 10.2446L6.39637 10.6984C6.36751 10.7392 6.34183 10.782 6.31933 10.8268L6.07107 11.3318C6.06203 11.3487 6.05347 11.3658 6.04539 11.3832L5.81425 11.914C5.80467 11.9393 5.7961 11.965 5.78857 11.991L5.61736 12.5046C5.61133 12.5188 5.60562 12.533 5.60024 12.5474L5.46327 13.0183C5.46021 13.0296 5.45736 13.0411 5.4547 13.0525L5.28349 13.7545L5.22357 13.9343L5.1722 14.0712C5.24155 13.9858 5.29577 13.8916 5.33486 13.7887L5.29205 13.8487C5.5103 13.9594 5.73907 13.9891 5.97836 13.9377C6.21766 13.8863 6.41406 13.7653 6.56758 13.5747L6.52478 13.549C6.58543 13.8799 6.7652 14.1224 7.0641 14.2767L7.04698 14.1568C7.03913 14.2428 7.04199 14.3284 7.05554 14.4137L7.0641 14.3109L7.08122 14.251L7.17539 14.0541L7.37228 13.7202L7.62054 13.335L7.92872 12.9498L8.24546 12.5902L8.57933 12.2564L8.93887 11.9568L9.27274 11.7171L9.54668 11.5287L9.73501 11.4003L9.87198 11.3318L9.94903 11.3062L10.0518 11.2719C10.0632 11.2693 10.0746 11.2664 10.086 11.2634L10.1802 11.2377C10.2521 11.2139 10.3206 11.1825 10.3856 11.1435L10.4284 11.1264C10.2665 10.9758 10.0757 10.8878 9.85595 10.8625C9.63624 10.8372 9.43042 10.8795 9.2385 10.9894L9.24706 10.998C9.4182 10.795 9.4955 10.561 9.47893 10.296C9.46237 10.031 9.35654 9.80839 9.16145 9.62827L9.12721 9.67964C9.2722 9.61828 9.3949 9.52697 9.49531 9.4057L9.40971 9.4485L9.26418 9.48274C9.2469 9.48797 9.22978 9.49368 9.21281 9.49987L8.93887 9.60259C8.88553 9.62097 8.83417 9.6438 8.78478 9.67108L8.42524 9.86797C8.37721 9.89272 8.33156 9.92125 8.28827 9.95358L7.87736 10.2789C7.84058 10.3106 7.80634 10.3448 7.77463 10.3816L7.3894 10.7925C7.36178 10.8223 7.3361 10.8537 7.31236 10.8867L6.94425 11.3918C6.92924 11.4112 6.91497 11.4312 6.90145 11.4517L6.5419 12.0338C6.5296 12.0562 6.51819 12.079 6.50766 12.1023L6.1738 12.7358C6.16149 12.7582 6.15008 12.781 6.13955 12.8043L5.87417 13.4463C5.83139 13.5448 5.80571 13.6475 5.79713 13.7545L5.75433 14.3537C5.73764 14.5803 5.80612 14.7771 5.95978 14.9444L5.98546 14.9787L5.95122 15.1156C5.91407 15.3313 6.00053 15.4699 6.21059 15.5314C6.42064 15.5929 6.56818 15.5228 6.65319 15.3211L6.68743 15.1927L6.72168 15.1841C6.90825 15.1422 7.05949 15.0452 7.17539 14.8931L7.53493 14.4051C7.57809 14.352 7.61518 14.2949 7.64622 14.2339L7.92872 13.6261L8.2369 13.044L8.56221 12.5218L8.87039 12.0937L9.17001 11.7599L9.46107 11.5287L9.68365 11.3918L9.86342 11.3233L10.0261 11.2719C10.0289 11.2719 10.0318 11.2719 10.0346 11.2719L10.1716 11.2205C10.122 11.231 10.0735 11.2453 10.0261 11.2634L10.086 11.2462C10.282 11.2148 10.4532 11.1321 10.5996 10.998L10.6082 10.9894C10.9152 10.7082 11.0116 10.3674 10.8972 9.96702C10.7828 9.56666 10.521 9.32819 10.1117 9.25161L10.0689 9.24305C9.98399 9.22653 9.89838 9.22082 9.81206 9.22593L9.71789 9.23449C9.65144 9.23678 9.58581 9.24534 9.521 9.26017L9.35834 9.30297C9.33532 9.30791 9.31249 9.31361 9.28986 9.32009L9.10153 9.38858C9.06071 9.40041 9.02076 9.41467 8.98168 9.43138L8.7591 9.54267C8.72701 9.55539 8.69562 9.56966 8.66493 9.58547L8.40812 9.73956C8.39355 9.75061 8.37929 9.76202 8.36531 9.77381L8.05713 9.97926C8.04266 9.98748 8.02839 9.99605 8.01433 10.0049L7.65478 10.2789C7.63721 10.2926 7.62009 10.3069 7.60342 10.3217L7.20107 10.6641C7.18045 10.6805 7.16048 10.6976 7.14115 10.7155L6.7388 11.1093C6.71492 11.131 6.69209 11.1539 6.67031 11.1777L6.31077 11.6058C6.29898 11.6197 6.28757 11.634 6.27652 11.6486L5.9341 12.1023C5.92218 12.1191 5.91076 12.1362 5.89986 12.1537L5.6088 12.5988C5.59989 12.6129 5.59133 12.6271 5.58311 12.6416L5.35198 13.0354C5.33005 13.0685 5.31008 13.1027 5.29205 13.1381L5.15508 13.4634C5.13059 13.516 5.11062 13.5702 5.09516 13.6261L5.03523 13.8829C5.01442 13.9615 5.003 14.0414 5.00099 14.1226L4.99243 14.3281C4.99305 14.4151 5.00447 14.5007 5.02667 14.5849L5.05236 14.7047C5.11414 14.9612 5.25396 15.1638 5.47183 15.3125L5.50607 15.3382C5.74717 15.5061 6.01178 15.5613 6.29991 15.504C6.58804 15.4468 6.81138 15.2945 6.96993 15.0471L7.00418 14.9787C7.04501 14.9195 7.07925 14.8567 7.1069 14.7903L7.16683 14.6277C7.17663 14.5995 7.18519 14.571 7.19251 14.5421L7.25243 14.3109C7.25548 14.2996 7.25834 14.2882 7.26099 14.2767L7.43221 13.5662L7.56062 13.1381L7.71471 12.6673L7.90304 12.1965L8.11706 11.7599L8.35675 11.3575L8.58789 11.0322L8.83615 10.7754L9.02448 10.6127L9.15289 10.5271L9.2385 10.4929C9.08275 10.4832 8.93437 10.5117 8.79334 10.5785H8.86183C8.69466 10.3776 8.48064 10.2692 8.21978 10.2532L8.25403 10.3046C8.25966 10.3103 8.26536 10.3161 8.27115 10.3217L8.32251 10.373C8.41275 10.4754 8.52137 10.5515 8.64836 10.6013C8.77535 10.6512 8.90673 10.6694 9.04248 10.6558C9.17824 10.6422 9.30342 10.5984 9.41802 10.5244C9.53262 10.4504 9.62402 10.3542 9.69221 10.2361Z" fill="black"/>
<path d="M6.58928 61.9077H6.52935C6.52365 61.9076 6.51794 61.9076 6.51223 61.9077H6.40095L6.26398 61.8906C6.38512 62.0109 6.53065 62.0794 6.70057 62.0961L6.6492 62.0447C6.45188 61.8488 6.21504 61.7661 5.93867 61.7964L5.81026 61.8136C5.94607 61.8635 6.08589 61.8806 6.22973 61.8649L6.17837 61.8478C6.04106 61.7987 5.89977 61.7805 5.75451 61.7932C5.60925 61.8058 5.47324 61.8482 5.34648 61.9202C5.21971 61.9923 5.11373 62.0875 5.02854 62.2058C4.94334 62.3241 4.88669 62.4548 4.85858 62.5979C4.83047 62.741 4.83346 62.8834 4.86755 63.0252C4.90164 63.1669 4.96373 63.2952 5.05382 63.4098C5.1439 63.5245 5.25378 63.6151 5.38346 63.6818C5.51314 63.7484 5.65081 63.785 5.79647 63.7916C5.94214 63.7981 6.08253 63.774 6.21766 63.7192C6.35279 63.6644 6.47035 63.584 6.57035 63.4779C6.67034 63.3718 6.74367 63.2496 6.79032 63.1115C6.83698 62.9733 6.85271 62.8318 6.83754 62.6867L6.82898 62.6354C6.63533 62.8401 6.55258 63.0826 6.58072 63.363L6.67488 63.2689C6.81216 63.1215 6.88921 62.9474 6.90602 62.7467L6.91458 62.6782C6.75802 62.8038 6.66956 62.9664 6.6492 63.1661L6.73481 63.0976L6.75193 63.0891H6.76049C6.89814 63.0413 7.00481 62.9552 7.08052 62.8307C7.15623 62.7062 7.18364 62.5719 7.16274 62.4277C7.14184 62.2835 7.07743 62.1625 6.96949 62.0646C6.86156 61.9667 6.73482 61.9144 6.58928 61.9077ZM5.1511 63.7311L5.26238 63.8167C5.4178 63.9347 5.59187 64.0089 5.78458 64.0393L6.13557 64.0907C6.16673 64.0976 6.19811 64.1034 6.22973 64.1078L6.79473 64.142C6.79759 64.1421 6.80044 64.1421 6.80329 64.142L7.60799 64.1934C7.62226 64.1936 7.63653 64.1936 7.65079 64.1934L8.7808 64.2276C8.79506 64.2279 8.80933 64.2279 8.8236 64.2276H10.3474C10.3559 64.2277 10.3645 64.2277 10.3731 64.2276L12.1794 64.1763C12.1851 64.1763 12.1908 64.1763 12.1965 64.1763L14.0713 64.0992L15.8347 64.0564L17.4441 64.1078L19.0022 64.2105L20.5688 64.3304C20.5773 64.3305 20.5859 64.3305 20.5944 64.3304L22.221 64.4331C22.2352 64.4333 22.2495 64.4333 22.2638 64.4331L23.8817 64.4845C23.896 64.4847 23.9103 64.4847 23.9245 64.4845L25.4312 64.493C25.434 64.493 25.4369 64.493 25.4397 64.493H26.7666L27.9394 64.5016L29.0438 64.5273L30.1823 64.5615C30.1909 64.5616 30.1994 64.5616 30.208 64.5615L31.4065 64.5872C31.4179 64.5873 31.4293 64.5873 31.4407 64.5872H32.6735L33.8634 64.5786C33.8863 64.5763 33.9091 64.5734 33.9319 64.5701L35.0448 64.5101C35.0476 64.5102 35.0505 64.5102 35.0533 64.5101L36.1405 64.4502L37.2363 64.3989L38.3663 64.3561C38.3748 64.3561 38.3834 64.3561 38.392 64.3561L39.5648 64.2876C39.5762 64.2877 39.5876 64.2877 39.599 64.2876L40.7889 64.1934C40.8003 64.1935 40.8118 64.1935 40.8232 64.1934L41.9789 64.0736C41.9817 64.0736 41.9846 64.0736 41.9874 64.0736L43.0661 63.9537L44.119 63.8424L45.112 63.7483L46.0623 63.6626C46.0651 63.6627 46.068 63.6627 46.0708 63.6626L47.0125 63.5685L47.9713 63.4829L48.913 63.4058L50.6422 63.3031L51.387 63.2603L52.0547 63.2346L52.6625 63.2261L53.2617 63.2432L53.8439 63.2774L54.7599 63.3373C54.8025 63.342 54.8453 63.3449 54.8883 63.3459L55.2478 63.3373C55.3198 63.3339 55.3911 63.3253 55.4618 63.3117L55.7871 63.2603C55.8217 63.2529 55.8559 63.2444 55.8899 63.2346L56.2066 63.1661C56.2325 63.1583 56.2582 63.1497 56.2836 63.1405L56.5576 63.0548C56.5864 63.0471 56.6149 63.0386 56.6432 63.0292L56.8486 62.9521L56.9856 62.9093C56.8538 62.918 56.7254 62.9437 56.6004 62.9864L56.6946 62.9778C56.432 62.8264 56.1495 62.7608 55.8471 62.7809L55.907 62.8151C55.81 62.7174 55.7015 62.6347 55.5817 62.5669L55.633 62.6183C55.574 62.5251 55.5055 62.4395 55.4276 62.3614L55.4618 62.4128C55.4701 62.4272 55.4787 62.4415 55.4875 62.4556L55.5217 62.507C55.4823 62.3983 55.4309 62.2956 55.3677 62.1988L55.3762 62.2245L55.3848 62.2416C55.5126 62.5875 55.7375 62.8504 56.0594 63.0302C56.3814 63.2101 56.7231 63.2638 57.0847 63.1912C57.4462 63.1187 57.7409 62.9374 57.9685 62.6473C58.1962 62.3572 58.3023 62.0279 58.2868 61.6595V61.6167C58.2745 61.4472 58.2346 61.2846 58.167 61.1287L58.1499 61.0859C58.1417 61.0657 58.1332 61.0458 58.1242 61.026L58.0899 60.9661C58.0535 60.8882 58.0107 60.814 57.9615 60.7435L57.9273 60.6921C57.8759 60.6215 57.8189 60.5559 57.7561 60.4952L57.7047 60.4439C57.612 60.3535 57.5092 60.2764 57.3965 60.2127L57.3366 60.1785C57.0519 60.0154 56.7466 59.9526 56.4206 59.9901L56.3264 59.9987C56.2274 60.009 56.1304 60.029 56.0354 60.0586L55.8813 60.11L55.6587 60.1785C55.6587 60.1813 55.6587 60.1842 55.6587 60.187L55.4276 60.2555L55.2392 60.3069L55.0852 60.3326H54.8797L54.0322 60.2812C54.0265 60.2812 54.0208 60.2812 54.0151 60.2812L53.4158 60.247C53.4101 60.2469 53.4044 60.2469 53.3987 60.247L52.7395 60.2213C52.7139 60.2206 52.6882 60.2206 52.6625 60.2213H51.9948C51.9747 60.2237 51.9548 60.2266 51.9349 60.2298L51.25 60.2641L50.4967 60.2898C50.4824 60.2924 50.4681 60.2953 50.4539 60.2983L48.7075 60.4096C48.7018 60.4096 48.6961 60.4096 48.6904 60.4096L47.723 60.4867C47.7202 60.4867 47.7173 60.4867 47.7145 60.4867L46.7471 60.5723C46.7386 60.5722 46.73 60.5722 46.7214 60.5723L45.7883 60.6664L44.8381 60.752C44.8352 60.752 44.8324 60.752 44.8295 60.752L43.828 60.8462C43.8222 60.8462 43.8165 60.8462 43.8108 60.8462L42.7493 60.9575C42.7436 60.9575 42.7379 60.9575 42.7322 60.9575L41.6621 61.0773L40.5321 61.1972L39.3764 61.2914L38.2379 61.3598L37.1164 61.4026C37.1107 61.4026 37.105 61.4026 37.0993 61.4026L35.995 61.454C35.9921 61.454 35.9893 61.454 35.9864 61.454L34.8907 61.5139L33.7949 61.5739L32.6478 61.591H31.4407L30.2594 61.5824L29.1294 61.5482C29.1208 61.5481 29.1123 61.5481 29.1037 61.5482L27.9823 61.5396C27.9708 61.5395 27.9594 61.5395 27.948 61.5396L26.7581 61.5482C26.7524 61.5481 26.7467 61.5481 26.741 61.5482L25.4141 61.5824L23.9331 61.591L22.3494 61.5739L20.7742 61.4883L19.2076 61.3684C19.1991 61.3683 19.1905 61.3683 19.1819 61.3684L17.5811 61.2828C17.5583 61.2822 17.5354 61.2822 17.5126 61.2828H15.8347C15.8148 61.2824 15.7948 61.2824 15.7748 61.2828L13.9685 61.3598C13.9543 61.3596 13.94 61.3596 13.9257 61.3598L12.051 61.5054L10.2703 61.6252L8.78936 61.6937L7.68504 61.6851C7.67648 61.6851 7.66792 61.6851 7.65936 61.6851L6.85466 61.7023C6.84607 61.705 6.8375 61.7079 6.82898 61.7108L6.28966 61.7279H5.95579C5.94147 61.7305 5.9272 61.7334 5.91299 61.7365H5.77602C5.5427 61.7475 5.33358 61.8244 5.14865 61.9671C4.96372 62.1097 4.83633 62.2925 4.7665 62.5154C4.69667 62.7383 4.69698 62.9611 4.76743 63.1838C4.83788 63.4065 4.96577 63.589 5.1511 63.7311ZM55.419 61.7964C55.4194 61.9767 55.4542 62.1501 55.5234 62.3165C55.5926 62.4829 55.691 62.6298 55.8186 62.7572C55.9462 62.8845 56.0933 62.9827 56.2599 63.0516C56.4265 63.1205 56.5999 63.1549 56.7802 63.1549C56.9604 63.1549 57.1338 63.1205 57.3004 63.0516C57.467 62.9827 57.6141 62.8845 57.7417 62.7572C57.8693 62.6298 57.9677 62.4829 58.0369 62.3165C58.1062 62.1501 58.1409 61.9767 58.1413 61.7964C58.1409 61.6162 58.1062 61.4428 58.0369 61.2764C57.9677 61.1099 57.8693 60.963 57.7417 60.8357C57.6141 60.7083 57.467 60.6102 57.3004 60.5413C57.1338 60.4724 56.9604 60.438 56.7802 60.438C56.5999 60.438 56.4265 60.4724 56.2599 60.5413C56.0933 60.6102 55.9462 60.7083 55.8186 60.8357C55.691 60.963 55.5926 61.1099 55.5234 61.2764C55.4542 61.4428 55.4194 61.6162 55.419 61.7964ZM56.3521 61.6252L56.2922 61.7194C56.1768 61.9637 56.2327 62.159 56.4598 62.3053C56.6869 62.4517 56.8878 62.4219 57.0627 62.2159L57.1226 62.1217C57.2379 61.8774 57.1821 61.6821 56.955 61.5358C56.7279 61.3895 56.5269 61.4193 56.3521 61.6252Z" fill="black"/>
<path d="M59.6387 9.90618L59.6472 9.8805C59.6858 9.79619 59.7029 9.70773 59.6986 9.61512V9.57231V9.53807L59.7071 9.46959C59.7181 9.3612 59.7028 9.25666 59.6613 9.15595C59.6197 9.05525 59.5569 8.97033 59.4727 8.90121C59.3885 8.83209 59.2929 8.78696 59.1861 8.76583C59.0792 8.7447 58.9737 8.75007 58.8695 8.78194C58.7653 8.81382 58.6749 8.86841 58.5981 8.94572C58.5214 9.02304 58.4674 9.11389 58.4363 9.2183C58.4052 9.3227 58.4006 9.42826 58.4225 9.53497C58.4445 9.64168 58.4903 9.73688 58.56 9.82057L58.5943 9.85482C58.6223 9.93255 58.6651 10.001 58.7227 10.0603L58.7569 10.086C58.8218 10.1479 58.8974 10.1913 58.9836 10.2162C59.0698 10.2411 59.1569 10.2445 59.2448 10.2266C59.3327 10.2087 59.4115 10.1714 59.4811 10.1148C59.5507 10.0581 59.6032 9.98861 59.6387 9.90618ZM58.2433 9.3155C58.2433 9.53298 58.3202 9.71861 58.474 9.8724C58.6277 10.0262 58.8134 10.1031 59.0309 10.1031C59.2483 10.1031 59.434 10.0262 59.5878 9.8724C59.7415 9.71861 59.8184 9.53298 59.8184 9.3155C59.8184 9.09801 59.7415 8.91238 59.5878 8.7586C59.434 8.60481 59.2483 8.52792 59.0309 8.52792C58.8134 8.52792 58.6277 8.60481 58.474 8.7586C58.3202 8.91238 58.2433 9.09801 58.2433 9.3155ZM58.2946 8.69913L58.2262 8.7933C58.131 8.90978 58.0653 9.04104 58.0293 9.18709L57.9351 9.55519C57.9232 9.60311 57.9146 9.65162 57.9094 9.70072L57.8409 10.3C57.8408 10.3114 57.8408 10.3228 57.8409 10.3342L57.7724 11.156C57.7723 11.1646 57.7723 11.1731 57.7724 11.1817L57.7211 12.2004C57.721 12.209 57.721 12.2175 57.7211 12.2261L57.6783 13.4246C57.6781 13.436 57.6781 13.4474 57.6783 13.4588V14.8114V16.2924C57.6783 16.2953 57.6783 16.2981 57.6783 16.301L57.6868 17.8847C57.6868 17.8875 57.6868 17.8904 57.6868 17.8932L57.7125 19.5283L57.7382 21.1377L57.7553 22.7043V24.288C57.7553 24.2909 57.7553 24.2937 57.7553 24.2966L57.7639 25.9145C57.7639 25.9174 57.7639 25.9202 57.7639 25.9231L57.7896 27.5239L57.8153 29.0905C57.8152 29.0934 57.8152 29.0962 57.8153 29.0991L57.8409 30.6485L57.8666 32.1895L57.8837 33.7047L57.8923 35.1771V36.5725L57.8752 37.8908L57.8581 40.2707L57.8153 41.3664L57.7639 42.4879L57.6868 43.6607L57.6098 44.8763C57.6098 44.882 57.6098 44.8877 57.6098 44.8934L57.5413 46.1005C57.5413 46.1033 57.5413 46.1062 57.5413 46.109L57.4899 47.2989L57.43 48.4717L57.353 49.6017L57.2759 50.6718L57.2074 51.6734C57.2046 51.6791 57.2017 51.6848 57.1989 51.6905L57.139 52.6579C57.1387 52.6721 57.1387 52.6864 57.139 52.7007L57.1133 53.6595C57.113 53.6766 57.113 53.6937 57.1133 53.7108V54.6525C57.1159 54.6668 57.1188 54.6811 57.1218 54.6953L57.1475 55.6027C57.1475 55.6084 57.1475 55.6141 57.1475 55.6199L57.1903 56.4845L57.216 57.3662C57.2189 57.3691 57.2217 57.3719 57.2246 57.3748L57.2503 58.2308L57.2759 58.9671L57.2931 59.6262L57.3016 60.234C57.3015 60.2454 57.3015 60.2569 57.3016 60.2683L57.3273 60.8247C57.3298 60.8419 57.3327 60.859 57.3359 60.8761L57.3701 61.3555C57.3757 61.4073 57.3843 61.4587 57.3958 61.5096L57.4557 61.8434L57.4985 62.066C57.5033 62.0947 57.509 62.1233 57.5156 62.1516L57.5499 62.2971C57.5447 62.222 57.5332 62.1478 57.5156 62.0746V62.143C57.5156 62.3224 57.55 62.4949 57.6186 62.6606C57.6872 62.8264 57.785 62.9726 57.9118 63.0995C58.0386 63.2263 58.1849 63.324 58.3506 63.3927C58.5163 63.4613 58.6888 63.4956 58.8682 63.4956C59.0476 63.4956 59.2201 63.4613 59.3858 63.3927C59.5515 63.324 59.6978 63.2263 59.8246 63.0995C59.9515 62.9726 60.0492 62.8264 60.1178 62.6606C60.1865 62.4949 60.2208 62.3224 60.2208 62.143V62.0746C60.2296 61.9387 60.2182 61.8046 60.1865 61.6722L60.1609 61.5609L60.1266 61.3726L60.0924 61.1072L60.0667 60.6877L60.041 60.1741L60.0325 59.5834C60.0325 59.5749 60.0325 59.5663 60.0325 59.5577L60.0153 58.89C60.0153 58.8872 60.0153 58.8843 60.0153 58.8814L59.9896 58.1281C59.9897 58.1253 59.9897 58.1224 59.9896 58.1196L59.9468 57.2635C59.9469 57.2606 59.9469 57.2578 59.9468 57.2549L59.904 56.3646C59.9041 56.3561 59.9041 56.3475 59.904 56.3389L59.8527 55.4829L59.8184 54.6097L59.8013 53.7108L59.827 52.8034L59.8869 51.8532L59.9468 50.8516C59.9469 50.8487 59.9469 50.8459 59.9468 50.843L60.0068 49.773L60.0667 48.6258C60.0667 48.6201 60.0667 48.6144 60.0667 48.6087L60.1266 47.4273L60.178 46.2289L60.2293 45.0304L60.3064 43.8319L60.3834 42.6505C60.3836 42.6391 60.3836 42.6277 60.3834 42.6163L60.4348 41.4777C60.435 41.4635 60.435 41.4492 60.4348 41.4349L60.4434 40.3049L60.4605 37.9079C60.4605 37.9051 60.4605 37.9022 60.4605 37.8994V36.5811V35.1771C60.4605 35.1743 60.4605 35.1714 60.4605 35.1686L60.4519 33.6876C60.452 33.6819 60.452 33.6762 60.4519 33.6704L60.4177 32.1467L60.392 30.6057C60.392 30.6029 60.392 30.6 60.392 30.5972L60.3492 29.0392L60.3064 27.4726L60.2636 25.8717L60.2208 24.2538L60.1694 22.6615L60.1352 21.0949L60.1095 19.4855C60.1095 19.4798 60.1095 19.4741 60.1095 19.4684L60.0496 17.8333L59.9896 16.2496C59.9897 16.2467 59.9897 16.2439 59.9896 16.241L59.9212 14.7772L59.904 13.4674L59.9297 12.2946L59.964 11.2844L59.9982 10.4712C59.9983 10.4655 59.9983 10.4598 59.9982 10.4541L60.0239 9.84625C60.0256 9.81201 60.0256 9.77777 60.0239 9.74353L59.9982 9.3583C59.9884 9.23551 59.957 9.11852 59.904 9.00731L59.8527 8.89603C59.786 8.75081 59.6883 8.63094 59.5594 8.53641C59.4306 8.44188 59.2869 8.3846 59.1284 8.36456C58.9699 8.34453 58.8164 8.36427 58.6681 8.42378C58.5199 8.48329 58.3954 8.57507 58.2946 8.69913ZM57.5413 62.0232C57.5413 62.3849 57.6692 62.6936 57.9249 62.9493C58.1807 63.2051 58.4894 63.333 58.8511 63.333C59.2128 63.333 59.5215 63.2051 59.7772 62.9493C60.033 62.6936 60.1609 62.3849 60.1609 62.0232C60.1609 61.6615 60.033 61.3528 59.7772 61.097C59.5215 60.8413 59.2128 60.7134 58.8511 60.7134C58.4894 60.7134 58.1807 60.8413 57.9249 61.097C57.6692 61.3528 57.5413 61.6615 57.5413 62.0232ZM57.7896 61.8605C57.7896 62.1442 57.8899 62.3863 58.0905 62.5869C58.291 62.7875 58.5332 62.8878 58.8168 62.8878C59.1005 62.8878 59.3426 62.7875 59.5432 62.5869C59.7438 62.3863 59.8441 62.1442 59.8441 61.8605C59.8441 61.5769 59.7438 61.3347 59.5432 61.1341C59.3426 60.9336 59.1005 60.8333 58.8168 60.8333C58.5332 60.8333 58.291 60.9336 58.0905 61.1341C57.8899 61.3347 57.7896 61.5769 57.7896 61.8605ZM59.262 61.5352L59.2192 61.3041C59.1932 61.167 59.1225 61.0592 59.0072 60.9806C58.8918 60.902 58.7656 60.8757 58.6285 60.9018C58.4914 60.9278 58.3836 60.9984 58.305 61.1138C58.2264 61.2291 58.2002 61.3553 58.2262 61.4924L58.269 61.7236C58.295 61.8606 58.3657 61.9684 58.481 62.0469C58.5964 62.1254 58.7225 62.1517 58.8596 62.1257C58.9967 62.0997 59.1045 62.029 59.183 61.9138C59.2616 61.7985 59.2879 61.6723 59.262 61.5352Z" fill="black"/>
<path d="M4.046 9.79485C4.046 9.94614 4.09949 10.0753 4.20647 10.1823C4.31345 10.2892 4.44259 10.3427 4.59388 10.3427C4.74517 10.3427 4.87431 10.2892 4.98129 10.1823C5.08827 10.0753 5.14176 9.94614 5.14176 9.79485C5.14176 9.64356 5.08827 9.51442 4.98129 9.40744C4.87431 9.30046 4.74517 9.24697 4.59388 9.24697C4.44259 9.24697 4.31345 9.30046 4.20647 9.40744C4.09949 9.51442 4.046 9.64356 4.046 9.79485ZM4.02032 9.79485C4.02032 9.95087 4.07548 10.084 4.1858 10.1944C4.29613 10.3047 4.4293 10.3598 4.58532 10.3598C4.74134 10.3598 4.87451 10.3047 4.98483 10.1944C5.09516 10.084 5.15032 9.95087 5.15032 9.79485C5.15032 9.63883 5.09516 9.50566 4.98483 9.39533C4.87451 9.28501 4.74134 9.22985 4.58532 9.22985C4.4293 9.22985 4.29613 9.28501 4.1858 9.39533C4.07548 9.50566 4.02032 9.63883 4.02032 9.79485ZM4.20009 10.2314L4.20865 10.24C4.21425 10.2458 4.21995 10.2515 4.22577 10.2571L4.26857 10.2914C4.28781 10.3067 4.30779 10.3209 4.3285 10.3342L4.39698 10.3855C4.45067 10.4208 4.50774 10.4494 4.56819 10.4711L4.71372 10.5311C4.72501 10.537 4.73643 10.5427 4.74797 10.5482L5.2188 10.7023C5.28579 10.7237 5.35428 10.738 5.42426 10.7451L5.89509 10.7964C5.90365 10.7965 5.91221 10.7965 5.92077 10.7964L6.52001 10.8478L8.11229 11.0105C8.14357 11.0145 8.17495 11.0174 8.20646 11.019L9.29365 11.0533C9.31362 11.0537 9.3336 11.0537 9.35358 11.0533L10.6377 11.019C10.6491 11.0192 10.6605 11.0192 10.6719 11.019L12.0673 10.9591L13.5226 10.9077L15.0464 10.8564C15.0549 10.8564 15.0635 10.8564 15.0721 10.8564L16.6472 10.7793C16.6529 10.7794 16.6586 10.7794 16.6643 10.7793L18.2395 10.6852L19.7633 10.5995L21.2871 10.5482C21.2899 10.5482 21.2928 10.5482 21.2956 10.5482L22.8793 10.4797C22.8879 10.4769 22.8965 10.4741 22.905 10.4711L24.5572 10.377C24.563 10.3742 24.5687 10.3713 24.5743 10.3684L26.2522 10.2486C26.2579 10.2486 26.2636 10.2486 26.2693 10.2486L27.8787 10.1116L29.3683 10.0089L30.7894 9.92326L32.1847 9.86333C32.1876 9.86334 32.1904 9.86334 32.1933 9.86333L33.5972 9.79485C33.6029 9.79488 33.6086 9.79488 33.6144 9.79485L35.0183 9.70924C35.0269 9.70932 35.0354 9.70932 35.044 9.70924L36.4394 9.59795L37.8433 9.49523L39.2044 9.40962C39.2073 9.40963 39.2101 9.40963 39.213 9.40962L40.5827 9.30689L41.961 9.21273L43.3221 9.13568L44.6147 9.07576L45.856 9.02439L47.0545 8.99015C47.0631 8.99023 47.0716 8.99023 47.0802 8.99015L48.2958 8.93023L49.4686 8.87886C49.4715 8.87887 49.4743 8.87887 49.4772 8.87886L50.5473 8.8275L51.5146 8.81894H52.4477L53.2952 8.83606L54.0229 8.85318L55.1101 8.88742C55.1158 8.88746 55.1215 8.88746 55.1272 8.88742L55.4953 8.89598C55.5267 8.89702 55.5581 8.89702 55.5895 8.89598L55.9233 8.87886C55.9519 8.87687 55.9805 8.87402 56.0089 8.8703L56.3171 8.83606L56.5739 8.81894L56.6424 8.81038L56.591 8.80182L56.6767 8.8275C56.6795 8.83036 56.6823 8.83322 56.6852 8.83606L56.8479 8.87886C56.8931 8.88966 56.9388 8.89822 56.9848 8.90454L57.1732 8.93879C57.1817 8.93886 57.1903 8.93886 57.1988 8.93879L57.3872 8.96447C57.4155 8.97105 57.4441 8.97676 57.4728 8.98159L57.6526 8.99015C57.6696 8.99332 57.6868 8.99617 57.7039 8.99871L57.8751 9.00727H57.9351H57.9522C57.955 9.00728 57.9579 9.00728 57.9607 9.00727L58.0121 9.01583C58.0263 9.0189 58.0406 9.02176 58.0549 9.02439H58.1234L58.2004 9.03295C58.1218 9.01186 58.0419 8.99759 57.9607 8.99015L58.0292 9.00727C57.8535 8.81895 57.6424 8.68768 57.3957 8.61348L57.4214 8.64773C57.4412 8.24493 57.3128 7.8968 57.0362 7.60333V7.64613C57.0515 7.56696 57.0601 7.48706 57.0619 7.40644L57.0533 7.44924C57.0466 7.48044 57.0409 7.51183 57.0362 7.54341V7.55197L57.0105 7.67182L56.9078 8.0656C56.8967 8.11367 56.8882 8.16218 56.8821 8.21113L56.7965 8.81038C56.7891 8.85008 56.7834 8.89003 56.7794 8.93023L56.7366 9.65788C56.7341 9.70639 56.7341 9.7549 56.7366 9.80341L56.7708 10.6509C56.7751 10.7494 56.7893 10.8464 56.8136 10.942L57.0448 11.8665C57.1046 12.0949 57.2187 12.2918 57.3872 12.4572L57.8409 12.9195L58.0892 13.5016L58.132 14.1094C58.1391 14.2134 58.1819 14.2996 58.2605 14.3681C58.339 14.4366 58.4303 14.4673 58.5343 14.4603C58.6383 14.4532 58.7245 14.4104 58.7931 14.3318C58.8616 14.2533 58.8923 14.162 58.8853 14.058L58.851 13.4502L59.0051 12.8082L59.3647 12.2517C59.493 12.0598 59.5643 11.8487 59.5787 11.6183L59.6301 10.668C59.632 10.6252 59.632 10.5824 59.6301 10.5396L59.5958 9.76061L59.6301 9.17848L59.7157 8.69053L59.7927 8.32242L59.8355 8.13409C59.8475 8.07754 59.8561 8.02047 59.8612 7.96288L59.8698 7.89439C59.8624 7.9341 59.8567 7.97405 59.8526 8.01424L59.8612 7.97144C59.8793 7.86366 59.885 7.75522 59.8783 7.64613V7.60333C59.8661 7.3703 59.8005 7.15343 59.6814 6.95272L59.6643 6.91848C59.4504 6.55382 59.1365 6.32839 58.7226 6.24219L58.6542 6.22507C58.5919 6.21233 58.5292 6.20377 58.4658 6.19939L58.3973 6.19083H58.3374C58.3856 6.19904 58.4341 6.20475 58.4829 6.20795L58.4316 6.19939C58.3919 6.19199 58.3519 6.18628 58.3117 6.18227L58.2432 6.17371C58.1607 6.16364 58.078 6.16078 57.995 6.16515H57.9436L57.8837 6.15659L57.7553 6.14803L57.6269 6.1309L57.5327 6.11378L57.4214 6.07954L57.2759 6.0453C57.2085 6.02596 57.14 6.01169 57.0704 6.0025L56.8907 5.97681C56.8252 5.9694 56.7596 5.96654 56.6938 5.96825L56.4541 5.97681C56.4227 5.97577 56.3913 5.97577 56.3599 5.97681L56.0603 6.0025C56.0517 6.00527 56.0431 6.00812 56.0346 6.01106L55.7435 6.03674L55.5038 6.05386L55.1957 6.0453L54.1085 6.01106C54.1056 6.01105 54.1028 6.01105 54.0999 6.01106L53.3637 5.99394L52.4991 5.97681C52.4877 5.97668 52.4762 5.97668 52.4648 5.97681H51.506C51.5032 5.97681 51.5003 5.97681 51.4975 5.97681L50.4959 5.98537C50.4759 5.98495 50.4559 5.98495 50.436 5.98537L49.3488 6.03674L48.1674 6.0881L46.9689 6.1309L45.7704 6.16515C45.7676 6.16514 45.7647 6.16514 45.7619 6.16515L44.512 6.19939C44.5035 6.19931 44.4949 6.19931 44.4863 6.19939L43.1766 6.25931C43.1737 6.25931 43.1709 6.25931 43.168 6.25931L41.7897 6.33636C41.784 6.33633 41.7783 6.33633 41.7726 6.33636L40.3858 6.43053L39.0161 6.51613C39.0133 6.51612 39.0104 6.51612 39.0075 6.51613L37.6378 6.61886C37.6321 6.61883 37.6264 6.61883 37.6207 6.61886L36.2253 6.73871L34.8385 6.83288L33.4517 6.91848L32.0563 6.98697C32.0535 6.98696 32.0506 6.98696 32.0478 6.98697L30.6353 7.06401C30.6324 7.064 30.6296 7.064 30.6267 7.06401L29.1885 7.14962C29.1828 7.14958 29.1771 7.14958 29.1714 7.14962L27.6647 7.25235C27.659 7.25231 27.6533 7.25231 27.6476 7.25235L26.0297 7.38932L24.3603 7.52629L22.7338 7.64613L21.1587 7.72318L19.6263 7.80879C19.6149 7.80865 19.6035 7.80865 19.5921 7.80879L18.0512 7.93719L16.476 8.05704L14.9094 8.16833L13.3942 8.27106L11.9389 8.35666C11.936 8.35666 11.9332 8.35666 11.9303 8.35666L10.5264 8.45083C10.5235 8.45082 10.5207 8.45082 10.5178 8.45083L9.25085 8.545L8.18077 8.60492L6.57994 8.67341C6.57423 8.67336 6.56852 8.67336 6.56282 8.67341L5.95501 8.69909C5.94642 8.70183 5.93785 8.70469 5.92933 8.70765L5.4585 8.74189C5.42125 8.74269 5.38415 8.74555 5.34721 8.75045L4.86782 8.84462C4.78421 8.85878 4.70431 8.88446 4.62812 8.92167L4.49115 8.99871C4.36011 9.06434 4.25453 9.1585 4.17441 9.28121L4.1316 9.35826C4.10033 9.40381 4.07465 9.45232 4.05456 9.50379L4.03744 9.55515C3.99443 9.67612 3.98872 9.79882 4.02032 9.92326V9.94038C4.05088 10.0555 4.11081 10.1525 4.20009 10.2314Z" fill="black"/>
<path d="M5.5881 9.098C5.5881 9.23984 5.63825 9.36091 5.73854 9.4612C5.83884 9.56149 5.9599 9.61164 6.10174 9.61164C6.24357 9.61164 6.36464 9.56149 6.46493 9.4612C6.56523 9.36091 6.61537 9.23984 6.61537 9.098C6.61537 8.95617 6.56523 8.8351 6.46493 8.73481C6.36464 8.63451 6.24357 8.58437 6.10174 8.58437C5.9599 8.58437 5.83884 8.63451 5.73854 8.73481C5.63825 8.8351 5.5881 8.95617 5.5881 9.098ZM6.65818 9.32058L6.6753 9.27778C6.67818 9.27495 6.68103 9.2721 6.68386 9.26922L6.69242 9.23497L6.7181 9.20073C6.66739 9.24551 6.62459 9.29687 6.58969 9.35482L6.65818 9.2949C6.79673 9.16508 6.87281 9.00549 6.88644 8.81612C6.90006 8.62674 6.8476 8.4579 6.72906 8.30959C6.61052 8.16128 6.45739 8.07291 6.26967 8.04446C6.08195 8.01602 5.90951 8.05507 5.75235 8.16161C5.5952 8.26814 5.49508 8.41387 5.45199 8.59878C5.40891 8.78369 5.4343 8.95866 5.52818 9.12369L5.57098 9.20073C5.55686 9.12791 5.53118 9.05943 5.49393 8.99528L5.51962 9.08944C5.52107 9.03447 5.51536 8.98026 5.5025 8.92679V9.00384C5.50199 9.01811 5.50199 9.03237 5.5025 9.04664V9.08944C5.50035 9.23393 5.54467 9.36238 5.63545 9.4748C5.72623 9.58722 5.84246 9.6576 5.98415 9.68594C6.12584 9.71428 6.26021 9.69402 6.38724 9.62516C6.51427 9.5563 6.60459 9.45477 6.65818 9.32058ZM6.92356 9.0124L6.94924 8.94391C7.01649 8.80913 7.04788 8.66645 7.04341 8.51588V8.45596C7.03682 8.29314 6.99075 8.1424 6.90518 8.00372C6.81962 7.86504 6.70556 7.75624 6.563 7.67732C6.42044 7.5984 6.26769 7.55949 6.10475 7.56059C5.9418 7.56169 5.78959 7.60267 5.64811 7.68351C5.50663 7.76436 5.39405 7.87469 5.31038 8.01451C5.2267 8.15434 5.18267 8.30569 5.17829 8.46858C5.17391 8.63147 5.20974 8.78498 5.28577 8.9291C5.36181 9.07322 5.46829 9.18944 5.60522 9.27778L5.65659 9.31202C5.61731 9.27086 5.5745 9.23376 5.52818 9.20073L5.57954 9.2521C5.67641 9.34677 5.78957 9.41404 5.91902 9.4539C6.04847 9.49376 6.17987 9.5018 6.31322 9.47802C6.44656 9.45424 6.56708 9.40127 6.67477 9.31912C6.78246 9.23696 6.86539 9.13472 6.92356 9.0124ZM6.04181 7.43725H6.01613C5.79478 7.44571 5.5956 7.51652 5.41858 7.64968C5.24155 7.78283 5.11829 7.95457 5.04878 8.1649L4.98886 8.33611C4.96628 8.41162 4.95201 8.48866 4.94606 8.56725L4.89469 8.95247C4.89459 8.96103 4.89459 8.9696 4.89469 8.97816L4.83477 9.62876C4.83473 9.63447 4.83473 9.64018 4.83477 9.64588L4.75772 10.6218C4.75768 10.6275 4.75768 10.6332 4.75772 10.6389L4.66355 11.923C4.66355 11.9259 4.66355 11.9287 4.66355 11.9316L4.56939 13.404C4.5693 13.4126 4.5693 13.4211 4.56939 13.4297L4.50946 14.9877C4.50945 14.9906 4.50945 14.9934 4.50946 14.9963L4.44954 16.5629C4.44945 16.5714 4.44945 16.58 4.44954 16.5885L4.42386 18.1209L4.40674 19.6019C4.4067 19.6076 4.4067 19.6133 4.40674 19.619V21.0572V22.4098C4.4095 22.4184 4.41235 22.4269 4.4153 22.4354L4.44098 23.7452C4.44094 23.7509 4.44094 23.7566 4.44098 23.7623L4.52659 26.4932L4.54371 27.9656L4.55227 29.4808L4.52659 31.0303L4.48378 32.614L4.44098 34.2148L4.38105 35.8328C4.38102 35.8385 4.38102 35.8442 4.38105 35.8499L4.34681 37.4936L4.31257 39.18L4.28689 40.8836C4.2868 40.8921 4.2868 40.9007 4.28689 40.9092L4.27833 42.5614C4.27832 42.5643 4.27832 42.5672 4.27833 42.57L4.29545 44.1452C4.29541 44.1509 4.29541 44.1566 4.29545 44.1623L4.32113 45.6775C4.32112 45.6804 4.32112 45.6832 4.32113 45.6861L4.36393 47.1585C4.36385 47.1671 4.36385 47.1756 4.36393 47.1842L4.43242 48.5967C4.43241 48.5995 4.43241 48.6024 4.43242 48.6052L4.5009 49.8808C4.50082 49.8893 4.50082 49.8979 4.5009 49.9065L4.58651 51.0878C4.58647 51.0935 4.58647 51.0992 4.58651 51.1049L4.76628 53.2793L4.83477 54.2724L4.87757 55.2055L4.91181 56.0615L4.92893 56.832L4.93749 57.5853C4.93746 57.591 4.93746 57.5967 4.93749 57.6024L4.95462 58.2702C4.95461 58.273 4.95461 58.2759 4.95462 58.2787L4.97174 58.8609C4.97159 58.8723 4.97159 58.8837 4.97174 58.8951L5.00598 59.3831L5.01454 59.7597V60.1107L5.0231 60.4189C5.02287 60.4332 5.02287 60.4474 5.0231 60.4617L5.03166 60.7356C5.0347 60.7845 5.04041 60.833 5.04878 60.8812L5.08303 61.1123C5.08854 61.1642 5.0971 61.2155 5.10871 61.2664L5.16007 61.4462L5.20287 61.6088C5.20569 61.6145 5.20854 61.6202 5.21143 61.6259L5.25424 61.7886C5.25423 61.7914 5.25423 61.7943 5.25424 61.7971L5.29704 61.9512C5.33331 62.0765 5.38753 62.1935 5.45969 62.3022L5.52818 62.4135C5.6503 62.5964 5.8101 62.7362 6.00757 62.833L6.07606 62.8672C6.2179 62.9379 6.36792 62.9777 6.52614 62.9866C6.68435 62.9956 6.83791 62.9729 6.98681 62.9187C7.13572 62.8645 7.26788 62.7831 7.38329 62.6745C7.49871 62.5659 7.58802 62.439 7.65121 62.2937L7.67689 62.2252C7.71028 62.1507 7.73596 62.0737 7.75394 61.994L7.77962 61.8656C7.81482 61.7098 7.82053 61.5528 7.79674 61.3948L7.77106 61.2407C7.76414 61.2032 7.75558 61.1661 7.74538 61.1294L7.71969 61.0353L7.71113 60.9753L7.70257 60.864V60.6843C7.70272 60.6729 7.70272 60.6614 7.70257 60.65L7.69401 60.3932L7.70257 60.1107V59.7426C7.70315 59.7198 7.70315 59.6969 7.70257 59.6741L7.67689 59.2546L7.65977 58.7667L7.64265 58.2017L7.62553 57.5425L7.61697 56.7977C7.617 56.792 7.617 56.7863 7.61697 56.7806L7.59985 55.9845C7.59703 55.9788 7.59418 55.9731 7.59128 55.9674L7.5656 55.0942C7.56569 55.0856 7.56569 55.0771 7.5656 55.0685L7.50568 54.1183C7.50569 54.1154 7.50569 54.1126 7.50568 54.1097L7.43719 53.091C7.43728 53.0824 7.43728 53.0739 7.43719 53.0653L7.25742 50.8909L7.17181 49.7267L7.10333 48.4768L7.05197 47.0729L7.00916 45.6176L6.96636 44.1109L6.94924 42.5529L6.94068 40.9092L6.94924 39.2142L6.96636 37.5364L7.0006 35.9013L7.03484 34.2833L7.06909 32.6825C7.0691 32.6796 7.0691 32.6768 7.06909 32.6739L7.09477 31.0817C7.09478 31.0788 7.09478 31.076 7.09477 31.0731L7.12045 29.5065C7.12054 29.4979 7.12054 29.4894 7.12045 29.4808L7.11189 27.9485C7.11192 27.9428 7.11192 27.9371 7.11189 27.9314L7.07765 26.4418C7.07773 26.4332 7.07773 26.4247 7.07765 26.4161L6.97492 23.6853L6.94924 22.3926L6.94068 21.0486V19.6276L6.9578 18.1551L6.98348 16.6399L7.02628 15.0819L7.08621 13.5324L7.14613 12.0685L7.20606 10.7844C7.20927 10.7674 7.21213 10.7503 7.21462 10.7331V9.74861C7.21564 9.72008 7.21564 9.69154 7.21462 9.66301L7.17181 9.00384C7.1722 8.98672 7.1722 8.9696 7.17181 8.95247L7.12901 8.60149L7.12045 8.4474C7.1141 8.30346 7.07985 8.16649 7.01772 8.03649L7.0006 8.01081C6.80638 7.61004 6.48678 7.41886 6.04181 7.43725ZM5.81068 61.7629C5.81079 61.9921 5.89191 62.1878 6.05403 62.3498C6.21616 62.5119 6.41183 62.5929 6.64106 62.5929C6.87028 62.5929 7.06596 62.5119 7.22808 62.3498C7.39021 62.1878 7.47132 61.9921 7.47144 61.7629C7.47132 61.5337 7.39021 61.338 7.22808 61.176C7.06596 61.014 6.87028 60.9329 6.64106 60.9329C6.41183 60.9329 6.21616 61.014 6.05403 61.176C5.89191 61.338 5.81079 61.5337 5.81068 61.7629ZM7.06053 61.6944L7.12045 61.4975C7.14653 61.3998 7.13511 61.3067 7.08619 61.2182C7.03727 61.1297 6.96451 61.0705 6.8679 61.0406C6.77129 61.0107 6.6778 61.0184 6.58743 61.0638C6.49707 61.1092 6.43504 61.1796 6.40136 61.2749L6.34144 61.4718C6.31536 61.5696 6.32678 61.6627 6.3757 61.7512C6.42462 61.8397 6.49738 61.8989 6.59399 61.9288C6.6906 61.9587 6.78409 61.951 6.87445 61.9056C6.96482 61.8602 7.02685 61.7898 7.06053 61.6944Z" fill="black"/>
</g>
<defs>
<clipPath id="clip0_1_7180">
<rect width="65" height="70" fill="white"/>
</clipPath>
</defs>
</svg>
