<svg width="32" height="36" viewBox="0 0 32 36" fill="none" xmlns="http://www.w3.org/2000/svg">
<g clip-path="url(#clip0_1_7424)">
<path d="M2.19093 32.5171L2.79105 31.8544L3.38491 31.2231C3.39134 31.217 3.39759 31.2107 3.40366 31.2043L4.22257 30.2416C4.22471 30.2375 4.2268 30.2333 4.22882 30.2291L5.22276 29.0039L6.41049 27.6849C6.4105 27.6828 6.4105 27.6807 6.41049 27.6786L7.66697 26.2721C7.66906 26.2721 7.67114 26.2721 7.67323 26.2721L8.93597 24.8531C8.93807 24.851 8.94015 24.849 8.94222 24.8469L10.18 23.4278L11.3739 22.0588L12.5179 20.7836L13.6181 19.5896L14.6558 18.4956L15.6435 17.483L16.5437 16.5578L17.3626 15.7451L18.0815 15.0325L18.7316 14.4261L19.2817 13.9198C19.288 13.9158 19.2943 13.9116 19.3004 13.9073L19.7318 13.4697C19.745 13.4579 19.7575 13.4454 19.7693 13.4322L20.0568 13.0634C20.0611 13.0593 20.0653 13.0551 20.0693 13.0509L20.2569 12.7821C20.2791 12.7515 20.2958 12.7182 20.3069 12.682L20.3569 12.507C20.3647 12.4826 20.3689 12.4576 20.3694 12.432V12.3757V12.3695C20.387 12.2538 20.3401 12.178 20.2288 12.1421C20.1174 12.1062 20.0351 12.1403 19.9818 12.2445L19.9693 12.282C20.0254 12.257 20.0629 12.2154 20.0818 12.1569L20.0006 12.1944C19.9921 12.1961 19.9838 12.1982 19.9756 12.2007L19.8193 12.2945C19.8017 12.3034 19.785 12.3138 19.7693 12.3257L19.5192 12.5195L19.1504 12.8008C19.1462 12.8049 19.142 12.8091 19.1379 12.8133L18.6628 13.2009C18.6586 13.205 18.6544 13.2091 18.6503 13.2134L18.0815 13.7072C18.0794 13.7093 18.0773 13.7114 18.0752 13.7135L17.4126 14.3136L16.6624 15.0075C16.6603 15.0096 16.6582 15.0116 16.6562 15.0137L15.8185 15.8201C15.8164 15.8222 15.8143 15.8243 15.8123 15.8264L14.8871 16.7391L13.8869 17.7393C13.8848 17.7413 13.8827 17.7434 13.8807 17.7455L12.818 18.827C12.8158 18.8311 12.8137 18.8353 12.8117 18.8395L11.6927 20.0272L10.53 21.2962C10.5279 21.2982 10.5258 21.3003 10.5238 21.3024L9.31104 22.6464C9.30894 22.6485 9.30685 22.6506 9.30479 22.6527L8.05455 24.0717C8.05245 24.0738 8.05037 24.0759 8.0483 24.078L6.81681 25.5282C6.81468 25.5324 6.81259 25.5365 6.81056 25.5407L5.61658 27.0098L4.50387 28.41L3.48493 29.6165C3.48492 29.6186 3.48492 29.6207 3.48493 29.6228L2.67853 30.598C2.67218 30.602 2.66592 30.6061 2.65977 30.6105L2.14092 31.3043L1.58457 32.0107C1.51485 32.0945 1.48491 32.1906 1.49474 32.2991C1.50458 32.4076 1.55131 32.4968 1.63495 32.5666C1.71858 32.6365 1.81467 32.6666 1.92319 32.6569C2.03172 32.6472 2.12097 32.6006 2.19093 32.5171Z" fill="black"/>
<path d="M3.42226 34.1424L3.43476 34.1299C3.4645 34.1125 3.49159 34.0917 3.51603 34.0674L3.57229 34.0049C3.57874 33.9989 3.58499 33.9926 3.59104 33.9862L3.72232 33.8299L4.00987 33.5423L4.52872 33.0297C4.53302 33.0236 4.53719 33.0173 4.54122 33.011L5.26636 32.2171C5.26637 32.215 5.26637 32.2129 5.26636 32.2108L6.17278 31.1919L7.19798 30.0542L8.26693 28.8727L9.33588 27.7037L10.4173 26.5785L11.4925 25.4908C11.4946 25.4887 11.4967 25.4866 11.4988 25.4845L12.5365 24.4093C12.5365 24.4073 12.5365 24.4052 12.5365 24.4031L13.5492 23.3216C13.5513 23.3196 13.5534 23.3175 13.5554 23.3154L14.5556 22.2214L15.5496 21.1587C15.5496 21.1566 15.5496 21.1545 15.5496 21.1525L16.5185 20.1085L17.4312 19.1271L18.2626 18.2519L18.994 17.508L19.6253 16.9017L20.1504 16.4203C20.1504 16.4182 20.1504 16.4161 20.1504 16.4141L20.538 16.0577L20.8006 15.8139C20.8255 15.7908 20.8484 15.7658 20.8693 15.7389L21.0069 15.5639C21.0696 15.4822 21.1092 15.3905 21.1256 15.2888L21.1444 15.1763C21.1816 14.9423 21.1025 14.7583 20.9072 14.6242C20.7119 14.4901 20.5117 14.4825 20.3067 14.6012L20.213 14.6575C20.1673 14.6834 20.1256 14.7146 20.0879 14.7512L19.9379 14.9013L19.6816 15.1388L19.3003 15.5014L18.7689 15.9827C18.7668 15.9848 18.7647 15.9869 18.7627 15.989L18.1188 16.5953C18.1125 16.5994 18.1062 16.6036 18.1001 16.6078L17.3562 17.358C17.3541 17.3601 17.352 17.3621 17.3499 17.3642L16.4997 18.2332C16.4977 18.2352 16.4956 18.2373 16.4935 18.2394L15.5621 19.2083C15.5599 19.2125 15.5579 19.2167 15.5558 19.2208L14.5869 20.2585L13.5929 21.3337L12.5865 22.4215C12.5844 22.4235 12.5823 22.4256 12.5803 22.4277L11.5863 23.5279C11.5863 23.53 11.5863 23.5321 11.5863 23.5342L10.5924 24.6531L9.58593 25.8096L8.52948 26.9536L7.44803 28.1163C7.44593 28.1184 7.44384 28.1204 7.44177 28.1225L6.36657 29.304C6.36447 29.3061 6.36239 29.3082 6.36032 29.3103L5.34137 30.4542C5.33924 30.4584 5.33715 30.4625 5.33512 30.4667L4.45371 31.5044C4.45157 31.5086 4.44948 31.5127 4.44745 31.5169L3.77233 32.3483C3.76358 32.3584 3.75525 32.3689 3.74732 32.3796L3.33474 32.9735L3.0972 33.2985L2.95967 33.4673L2.90966 33.5236C2.89803 33.5395 2.88761 33.5562 2.87841 33.5736L2.8659 33.5861C2.74015 33.7689 2.75573 33.9388 2.91264 34.0957C3.06955 34.2526 3.23942 34.2682 3.42226 34.1424ZM20.1567 15.0263C20.1567 15.1575 20.2031 15.2695 20.2958 15.3622C20.3886 15.455 20.5006 15.5014 20.6318 15.5014C20.763 15.5014 20.875 15.455 20.9677 15.3622C21.0605 15.2695 21.1069 15.1575 21.1069 15.0263C21.1069 14.8951 21.0605 14.7831 20.9677 14.6904C20.875 14.5976 20.763 14.5512 20.6318 14.5512C20.5006 14.5512 20.3886 14.5976 20.2958 14.6904C20.2031 14.7831 20.1567 14.8951 20.1567 15.0263ZM21.0194 15.1701L21.0819 15.0638L21.1194 15.02L21.1881 14.945L21.2882 14.8575L21.4382 14.77C21.5199 14.7167 21.5762 14.6438 21.607 14.5512L21.657 14.4199C21.7092 14.2795 21.6823 14.1564 21.5764 14.0505C21.4705 13.9445 21.3473 13.9177 21.2069 13.9698L21.0756 14.0199C20.9773 14.0544 20.9023 14.1169 20.8506 14.2074L20.7631 14.3574L20.6755 14.4762L20.613 14.545L20.588 14.57L20.4818 14.6325C20.3693 14.697 20.3045 14.7936 20.2874 14.9221C20.2703 15.0507 20.3076 15.1608 20.3993 15.2525C20.491 15.3442 20.6011 15.3815 20.7297 15.3644C20.8583 15.3473 20.9548 15.2826 21.0194 15.1701ZM21.4944 14.4137L21.5257 14.3949C21.6423 14.3241 21.6652 14.2303 21.5944 14.1137C21.5236 13.9971 21.4298 13.9741 21.3132 14.0449L21.2819 14.0636C21.1652 14.1345 21.1423 14.2282 21.2131 14.3449C21.284 14.4616 21.3778 14.4845 21.4944 14.4137Z" fill="black"/>
<path d="M17.3375 7.70615L17.3813 7.81867L17.4813 8.08122C17.4834 8.08126 17.4854 8.08126 17.4875 8.08122L17.6563 8.50005L17.8814 9.06891C17.8834 9.06894 17.8855 9.06894 17.8876 9.06891L18.1627 9.71904L18.4502 10.3817C18.4502 10.3837 18.4502 10.3858 18.4502 10.3879L18.744 11.0068C18.7458 11.0131 18.7479 11.0194 18.7503 11.0255L19.0316 11.5381C19.0336 11.5403 19.0357 11.5423 19.0378 11.5444L19.2879 11.9507C19.2919 11.955 19.2961 11.9592 19.3004 11.9632L19.5129 12.2633C19.5169 12.2676 19.5211 12.2718 19.5254 12.2758L19.7067 12.4946L19.838 12.6508C19.838 12.6529 19.838 12.655 19.838 12.6571L19.9317 12.7634C19.9358 12.7677 19.9399 12.7718 19.9442 12.7759L20.0068 12.8384C20.0182 12.85 20.0307 12.8604 20.0443 12.8696L20.0818 12.8946C20.1604 12.9438 20.2414 12.9479 20.3246 12.907C20.4078 12.866 20.454 12.7994 20.4631 12.7071L20.4693 12.6821C20.4719 12.6431 20.4656 12.6056 20.4506 12.5696L20.4193 12.4946C20.4177 12.4861 20.4156 12.4778 20.4131 12.4696L20.3443 12.3383C20.3371 12.3251 20.3287 12.3126 20.3193 12.3008L20.1818 12.1132L19.9943 11.8382L19.7442 11.4756L19.4566 11.0068L19.1503 10.4192L18.8315 9.76279L18.5377 9.06266L18.2814 8.38753L18.0501 7.73116L17.8688 7.13104L17.7251 6.64345L17.6251 6.29964L17.575 6.08709L17.5563 5.96207V5.88706L17.5625 5.8308L17.5688 5.76828C17.5687 5.75137 17.5666 5.7347 17.5625 5.71827V5.68702C17.5516 5.60496 17.5077 5.54857 17.4308 5.51782C17.3539 5.48708 17.2833 5.49763 17.2187 5.54949L17.2062 5.56199C17.1744 5.58673 17.1515 5.61799 17.1375 5.65576L17.1062 5.73703C17.1001 5.7532 17.0959 5.76987 17.0937 5.78704L17.0687 5.96832C17.0677 5.98082 17.0677 5.99333 17.0687 6.00583L17.0749 6.3559C17.0764 6.36645 17.0784 6.37687 17.0812 6.38715L17.1625 6.906C17.1622 6.91225 17.1622 6.9185 17.1625 6.92475L17.3187 7.60613C17.3207 7.61035 17.3228 7.61452 17.325 7.61864L17.5563 8.40629C17.5563 8.40837 17.5563 8.41045 17.5563 8.41254L17.8251 9.21894C17.8271 9.22106 17.8292 9.22314 17.8313 9.22519L18.1189 10.0003C18.1209 10.0025 18.123 10.0045 18.1251 10.0066L18.419 10.7192C18.421 10.7213 18.4231 10.7234 18.4252 10.7255L18.7003 11.3318C18.704 11.3404 18.7082 11.3487 18.7128 11.3568L18.9816 11.8132C18.9907 11.8287 19.0011 11.8433 19.0128 11.8569L19.2691 12.157C19.2731 12.1613 19.2773 12.1655 19.2816 12.1695L19.4817 12.3633C19.4947 12.3776 19.5093 12.3901 19.5254 12.4008L19.6817 12.4883L19.7567 12.5321C19.866 12.5897 19.9535 12.5662 20.0193 12.4617C20.0851 12.3572 20.0684 12.2681 19.9692 12.1945L19.9192 12.1633L19.8317 12.0507L19.6754 11.8507L19.5004 11.5194L19.2566 11.063L18.9753 10.4754L18.6753 9.78155L18.3689 9.02515L18.0939 8.2375L17.8501 7.46861L17.6751 6.80598L17.5688 6.31214L17.5313 5.98708V5.83705L17.5438 5.78079C17.5254 5.80518 17.5129 5.83227 17.5063 5.86205L17.5188 5.84955C17.4965 5.76362 17.4418 5.71196 17.3547 5.69455C17.2677 5.67714 17.1973 5.7038 17.1437 5.77454L17.15 5.79954C17.1517 5.77628 17.1496 5.75335 17.1437 5.73078L17.1375 5.79329L17.1312 5.8558C17.1307 5.86414 17.1307 5.87247 17.1312 5.88081V5.97457C17.1307 5.98291 17.1307 5.99124 17.1312 5.99958L17.15 6.14961C17.1515 6.15807 17.1536 6.1664 17.1562 6.17461L17.2125 6.40591C17.2125 6.40799 17.2125 6.41007 17.2125 6.41216L17.3125 6.76222C17.3125 6.76431 17.3125 6.76639 17.3125 6.76847L17.4563 7.25607L17.6313 7.86243C17.6333 7.86456 17.6354 7.86664 17.6376 7.86868L17.8563 8.53131C17.8563 8.53339 17.8563 8.53548 17.8563 8.53756L18.1126 9.23144C18.1126 9.23353 18.1126 9.23561 18.1126 9.23769L18.4002 9.94408C18.4022 9.94831 18.4042 9.95248 18.4065 9.95658L18.7128 10.6255C18.7147 10.6297 18.7168 10.6339 18.719 10.638L19.0253 11.2381C19.0274 11.2402 19.0294 11.2423 19.0316 11.2443L19.3129 11.7382C19.3148 11.7424 19.3169 11.7466 19.3191 11.7507L19.5629 12.132L19.7505 12.407C19.7525 12.4092 19.7546 12.4113 19.7567 12.4133L19.888 12.6071L19.963 12.7259L20.0068 12.7946C20.0034 12.7541 19.9909 12.7166 19.9692 12.6821L19.9755 12.7071C20.0612 12.7601 20.1474 12.761 20.2342 12.7098C20.3209 12.6586 20.3618 12.5827 20.3568 12.4821L20.3381 12.4696L20.3006 12.4321L20.213 12.332L20.0818 12.182L19.9067 11.9695L19.6942 11.6819L19.4504 11.2943L19.1753 10.7942L18.8878 10.1879L18.5877 9.5315L18.3002 8.89388L18.0689 8.33127L17.8876 7.91244L17.7813 7.65614C17.7794 7.65191 17.7773 7.64774 17.7751 7.64364L17.7188 7.53112C17.6516 7.43107 17.5633 7.40618 17.4537 7.45646C17.3442 7.50674 17.3054 7.58997 17.3375 7.70615Z" fill="black"/>
<path d="M20.238 12.5883V12.582C20.2515 12.5409 20.2536 12.4992 20.2443 12.457L20.238 12.4383V12.3445C20.2363 12.3361 20.2342 12.3277 20.2318 12.3195L20.2068 12.1069C20.2028 12.0834 20.1965 12.0605 20.188 12.0382L20.0755 11.7006C20.0671 11.6768 20.0566 11.6539 20.0442 11.6318L19.813 11.2005L19.5379 10.6692L19.2316 10.0378L18.9128 9.32516L18.6002 8.55626L18.3127 7.75611L18.0814 7.01847L17.9188 6.41836L17.8188 5.94952L17.8001 5.64946L17.8126 5.54944L17.8188 5.53694C17.6363 5.47123 17.4946 5.52124 17.3937 5.68697L17.4438 5.70572C17.4002 5.64106 17.3418 5.59522 17.2687 5.56819L17.2875 5.59945L17.3 5.62446V5.6182V5.58695L17.2687 5.66196C17.2634 5.67835 17.2593 5.69502 17.2562 5.71197L17.2062 5.92451C17.1993 5.95118 17.1952 5.97827 17.1937 6.00578L17.1812 6.41836C17.1808 6.44563 17.1829 6.47272 17.1875 6.49962L17.275 7.11849C17.2782 7.13539 17.2824 7.15206 17.2875 7.1685L17.5 7.98115C17.5109 8.02515 17.5275 8.06683 17.55 8.10618L18.0376 8.92508L18.5127 9.75024L18.9128 10.4691L19.2128 11.0067C19.2795 11.1234 19.3712 11.1484 19.4879 11.0817C19.6046 11.0151 19.6296 10.9234 19.5629 10.8067L19.2691 10.2753L18.9253 9.5502L18.6377 8.68129L18.4564 7.76236C18.453 7.74758 18.4488 7.733 18.4439 7.7186L18.2126 6.9247L18.0751 6.34334L18.0189 5.97452L18.0064 5.81199L18.0126 5.75573L18.0251 5.70572C18.0277 5.68072 18.0277 5.65571 18.0251 5.63071V5.56819C18.0245 5.53851 18.0204 5.50934 18.0126 5.48068L17.9939 5.41191C17.9902 5.4013 17.986 5.39088 17.9814 5.38066L17.9501 5.29939C17.939 5.27043 17.9244 5.24334 17.9063 5.21813L17.8563 5.15562C17.8101 5.09225 17.7497 5.04849 17.675 5.02434L17.6188 5.00559C17.4177 4.94266 17.2739 5.00726 17.1875 5.19937L17.1499 5.28064C17.1333 5.31642 17.1229 5.35392 17.1187 5.39316L17.0937 5.6057C17.0918 5.62654 17.0918 5.64738 17.0937 5.66821L17.1124 6.02453C17.1141 6.03504 17.1161 6.04546 17.1187 6.05579L17.2062 6.56213C17.208 6.57054 17.2101 6.57888 17.2125 6.58714L17.3687 7.21226C17.3686 7.21851 17.3686 7.22476 17.3687 7.23101L17.5938 7.98115C17.5938 7.98324 17.5938 7.98532 17.5938 7.9874L17.8563 8.81256C17.8563 8.81673 17.8563 8.8209 17.8563 8.82506L18.1376 9.62522C18.1416 9.63158 18.1458 9.63783 18.1501 9.64397L18.4439 10.3816C18.446 10.3858 18.448 10.39 18.4502 10.3941L18.744 11.0442C18.746 11.0484 18.7481 11.0526 18.7503 11.0567L19.0191 11.6068C19.025 11.6154 19.0313 11.6237 19.0378 11.6318L19.2879 12.0569C19.2989 12.0767 19.3114 12.0954 19.3254 12.1132L19.5504 12.3882C19.5671 12.409 19.5859 12.4278 19.6067 12.4445L19.7567 12.5695L19.8317 12.6445C19.8197 12.6164 19.8031 12.5914 19.7817 12.5695L19.7942 12.6008C19.7924 12.5944 19.7903 12.5882 19.7879 12.582V12.5883C19.8243 12.6959 19.8993 12.7498 20.013 12.7498C20.1266 12.7498 20.2017 12.6959 20.238 12.5883Z" fill="black"/>
<path d="M22.3949 14.5887V14.5824C22.397 14.5637 22.397 14.5449 22.3949 14.5261L22.3887 14.5074C22.3874 14.4947 22.3853 14.4822 22.3824 14.4699L22.3699 14.4324C22.3479 14.363 22.3063 14.3089 22.2449 14.2698L22.2136 14.2511L22.2074 14.2448L22.1824 14.2198C22.1967 14.2573 22.2175 14.2906 22.2449 14.3199L22.2261 14.2698C22.1816 14.1631 22.1026 14.0984 21.9892 14.076C21.8757 14.0535 21.778 14.0832 21.6962 14.165C21.6144 14.2468 21.5847 14.3445 21.6072 14.458C21.6296 14.5714 21.6943 14.6504 21.801 14.6949L21.8511 14.7137C21.8218 14.6863 21.7885 14.6655 21.751 14.6512L21.7885 14.6824C21.7925 14.6888 21.7966 14.6951 21.801 14.7012L21.8386 14.7324C21.8579 14.7474 21.8787 14.7599 21.9011 14.7699L21.9448 14.7949C21.9803 14.8128 22.0178 14.8232 22.0573 14.8262L22.0886 14.8325C22.1444 14.8355 22.1965 14.823 22.2449 14.7949L22.2574 14.7887C22.2219 14.7922 22.1885 14.8026 22.1574 14.82H22.1636C22.3074 14.8095 22.3845 14.7324 22.3949 14.5887ZM21.5447 14.3699C21.5447 14.47 21.5801 14.5554 21.6509 14.6262C21.7217 14.697 21.8072 14.7324 21.9073 14.7324C22.0074 14.7324 22.0929 14.697 22.1637 14.6262C22.2345 14.5554 22.2699 14.47 22.2699 14.3699C22.2699 14.2697 22.2345 14.1843 22.1637 14.1135C22.0929 14.0427 22.0074 14.0073 21.9073 14.0073C21.8072 14.0073 21.7217 14.0427 21.6509 14.1135C21.5801 14.1843 21.5447 14.2697 21.5447 14.3699ZM21.5135 14.4699L21.5385 14.6137C21.547 14.6803 21.5679 14.7428 21.601 14.8012L21.8073 15.1325C21.8303 15.171 21.8574 15.2065 21.8886 15.2388L22.3261 15.6764C22.3362 15.6872 22.3466 15.6976 22.3574 15.7076L22.945 16.2265C22.9552 16.2351 22.9656 16.2435 22.9763 16.2515L23.6639 16.7766C23.6721 16.783 23.6804 16.7893 23.6889 16.7953L24.414 17.2892C24.4283 17.2981 24.4429 17.3064 24.4578 17.3142L25.1767 17.7205C25.1909 17.7294 25.2055 17.7378 25.2204 17.7455L25.9018 18.0643C25.9282 18.0766 25.9553 18.0871 25.9831 18.0956L26.6145 18.2831C26.6532 18.2957 26.6928 18.304 26.7332 18.3081L27.2333 18.3456C27.2625 18.3485 27.2917 18.3485 27.3208 18.3456L27.6647 18.3081C27.6668 18.3061 27.6689 18.304 27.6709 18.3019L27.896 18.2706C27.9508 18.2622 27.9987 18.2393 28.0397 18.2018L28.121 18.1331C28.1276 18.1272 28.1339 18.121 28.1398 18.1143L28.1835 18.0643C28.2555 17.9582 28.2435 17.8626 28.1474 17.7776C28.0513 17.6926 27.955 17.6923 27.8585 17.7768L27.8147 17.8268C27.8991 17.8459 27.97 17.823 28.0272 17.758L27.9272 17.7393L27.7647 17.683L27.5084 17.5267C27.5084 17.5246 27.5084 17.5225 27.5084 17.5205L27.0771 17.2579C27.0589 17.2464 27.0401 17.236 27.0208 17.2267L26.4332 16.9454L25.7706 16.6203L25.0892 16.239L24.3953 15.7764L23.7327 15.2825L23.1576 14.7887L22.695 14.3886C22.6829 14.3777 22.6704 14.3673 22.6575 14.3574L22.3449 14.1198C22.2917 14.0815 22.2334 14.0545 22.1699 14.0386L22.0261 14.001C21.9582 13.983 21.8901 13.9823 21.8218 13.9991C21.7535 14.0158 21.6935 14.0479 21.6416 14.0953C21.5898 14.1428 21.5524 14.1997 21.5297 14.2662C21.507 14.3327 21.5015 14.4006 21.5135 14.4699Z" fill="black"/>
<path d="M22.9323 15.8764L22.9448 15.8952C22.9631 15.9151 22.9839 15.9318 23.0074 15.9452L23.1449 16.0202C23.1606 16.0304 23.1773 16.0387 23.1949 16.0452L23.4637 16.1202L23.745 16.2577C23.8523 16.2828 23.9298 16.2457 23.9777 16.1465C24.0256 16.0474 24.0064 15.9636 23.92 15.8952L23.645 15.7576L23.4262 15.5889C23.4144 15.5794 23.4019 15.5711 23.3887 15.5639L23.2512 15.4951C23.2682 15.5101 23.287 15.5226 23.3074 15.5326L23.2887 15.5201C23.1716 15.4398 23.0629 15.4499 22.9625 15.5503C22.8621 15.6506 22.8521 15.7593 22.9323 15.8764Z" fill="black"/>
<path d="M21.7946 2.1988L21.8009 2.20505C21.7775 2.11729 21.7254 2.05269 21.6446 2.01127L21.6509 2.02377C21.6727 2.10923 21.7206 2.17591 21.7946 2.22381L21.8322 2.24881L21.9197 2.32383L22.0947 2.53011C22.1028 2.53873 22.1111 2.54707 22.1197 2.55512L22.451 2.89893L22.9011 3.36152L23.4137 3.91788L23.9451 4.51799L24.4264 5.0806L24.8327 5.59945L25.139 6.04953L25.3703 6.43711L25.5266 6.73091L25.6266 6.95596L25.6766 7.09973L25.7079 7.19975C25.7597 7.34303 25.8545 7.44701 25.9925 7.51171C26.1304 7.5764 26.271 7.58285 26.4143 7.53107C26.5575 7.47928 26.6615 7.38442 26.7262 7.24649C26.7909 7.10856 26.7974 6.96796 26.7456 6.82468L26.6331 6.56213C26.6273 6.54938 26.6211 6.53688 26.6143 6.52463L26.5268 6.35584L26.4018 6.11205C26.394 6.09917 26.3857 6.08667 26.3768 6.07454L26.1705 5.74948C26.1664 5.74313 26.1623 5.73688 26.158 5.73072L25.8704 5.31815C25.8664 5.3118 25.8622 5.30555 25.8579 5.29939L25.4953 4.83055C25.4913 4.82421 25.4872 4.81796 25.4828 4.8118L25.064 4.3117C25.06 4.30536 25.0558 4.29911 25.0515 4.29295L24.6014 3.79911C24.5973 3.79487 24.5932 3.7907 24.5889 3.7866L24.1326 3.32402C24.1305 3.32191 24.1284 3.31983 24.1263 3.31776L23.7013 2.89893C23.6931 2.89243 23.6848 2.88618 23.6763 2.88018L23.3012 2.55512C23.2855 2.53944 23.2688 2.52485 23.2512 2.51136L22.9136 2.29257C22.8456 2.24596 22.7706 2.21887 22.6886 2.2113L22.5073 2.1988L22.3948 2.13629C22.2096 2.0499 22.0668 2.09564 21.9662 2.2735C21.8657 2.45137 21.9002 2.59733 22.0697 2.7114L22.1572 2.76141L22.2322 2.90519C22.2578 2.95482 22.2912 2.99858 22.3322 3.03646L22.6261 3.31151C22.6302 3.31365 22.6344 3.31574 22.6386 3.31776L23.0011 3.63658L23.4075 4.03665L23.8575 4.49299L24.2951 4.97433L24.7014 5.45567L25.0515 5.90576L25.3266 6.29958L25.5079 6.58714L25.6079 6.78718L25.6454 6.90595L25.7016 7.156C25.7318 7.30531 25.8104 7.42208 25.9374 7.50631C26.0643 7.59053 26.2024 7.61754 26.3518 7.58733C26.5011 7.55712 26.6179 7.47854 26.7021 7.3516C26.7863 7.22465 26.8133 7.08652 26.7831 6.9372L26.7581 6.81218C26.7562 6.8038 26.7541 6.79546 26.7518 6.78718L26.7081 6.59964C26.7024 6.58479 26.6962 6.57021 26.6893 6.55588L26.6018 6.29333C26.5981 6.28069 26.5939 6.26818 26.5893 6.25582L26.4455 5.91201C26.4382 5.89283 26.4298 5.87407 26.4205 5.85575L26.183 5.42442C26.1734 5.40724 26.163 5.39057 26.1517 5.37441L25.8204 4.89306C25.8125 4.88025 25.8042 4.86775 25.7954 4.85556L25.3703 4.32421C25.3643 4.31571 25.358 4.30738 25.3516 4.2992L24.8577 3.73034C24.8536 3.72611 24.8495 3.72195 24.8452 3.71784L24.3014 3.11773C24.2993 3.11353 24.2973 3.10937 24.2951 3.10522L23.7638 2.54887C23.7537 2.53806 23.7433 2.52764 23.7325 2.51761L23.2512 2.07378C23.2277 2.05298 23.2027 2.03423 23.1762 2.01752L22.7698 1.75497C22.7307 1.73066 22.689 1.71191 22.6448 1.69871L22.3573 1.60494C22.3226 1.59422 22.2872 1.58797 22.251 1.58618L22.0759 1.57368C22.0378 1.57212 22.0003 1.57629 21.9634 1.58618L21.8884 1.60494C21.8055 1.62814 21.7409 1.67607 21.6946 1.74872L21.6884 1.76122C21.7351 1.73559 21.7726 1.70016 21.8009 1.65495L21.7946 1.6612C21.6835 1.71633 21.6279 1.80593 21.6279 1.93C21.6279 2.05407 21.6835 2.14367 21.7946 2.1988Z" fill="black"/>
<path d="M17.8813 5.4182V5.4057C17.8846 5.37861 17.8846 5.35152 17.8813 5.32443V5.30568L17.8875 5.26192C17.8882 5.24942 17.8882 5.23691 17.8875 5.22441V5.12439C17.8863 5.10969 17.8842 5.0951 17.8813 5.08063L17.875 5.03688V5.02437C17.8783 5.00575 17.8804 4.987 17.8813 4.96811V4.93061C17.8799 4.78832 17.8274 4.66844 17.7237 4.57098C17.6201 4.47352 17.4972 4.4285 17.3551 4.43594C17.213 4.44338 17.0955 4.50097 17.0025 4.60873C16.9096 4.71648 16.8699 4.84118 16.8834 4.98284C16.8969 5.12449 16.9595 5.23944 17.0711 5.32768C17.1827 5.41592 17.309 5.45026 17.45 5.4307L17.4875 5.42445C17.4044 5.38318 17.3169 5.36859 17.2249 5.38069L17.2812 5.41195C17.2436 5.36433 17.1978 5.32682 17.1436 5.29943L17.1749 5.34318L17.1999 5.38694L17.2187 5.43695L17.2374 5.48071C17.2529 5.52278 17.2758 5.56029 17.3062 5.59323L17.3187 5.60573C17.4136 5.70891 17.5276 5.73833 17.6607 5.69399C17.7937 5.64964 17.8672 5.55771 17.8813 5.4182ZM16.9249 4.58679L16.8561 4.6618C16.7903 4.73828 16.7465 4.8258 16.7248 4.92435L16.6748 5.14315C16.6673 5.18028 16.6631 5.21778 16.6623 5.25567L16.6436 5.61199C16.6447 5.63292 16.6467 5.65376 16.6498 5.6745L16.6811 6.20585C16.6816 6.23306 16.6836 6.26015 16.6873 6.28711L16.8186 6.981C16.8222 6.99781 16.8263 7.01448 16.8311 7.03101L17.0374 7.83116C17.0413 7.84167 17.0455 7.85209 17.0499 7.86241L17.3124 8.70632C17.3163 8.71894 17.3204 8.73144 17.3249 8.74383L17.6125 9.53148C17.6181 9.54838 17.6244 9.56505 17.6312 9.58149L17.9376 10.2566C17.9435 10.2672 17.9498 10.2776 17.9563 10.2879L18.2376 10.838C18.2453 10.855 18.2536 10.8716 18.2626 10.888L18.5127 11.2943C18.5225 11.3093 18.533 11.3239 18.5439 11.3381L18.744 11.6194C18.7557 11.6366 18.7682 11.6533 18.7815 11.6694L18.9315 11.8444C18.9655 11.8817 19.003 11.9151 19.044 11.9444L19.1503 12.0257C19.2147 12.0753 19.2856 12.1128 19.3628 12.1382L19.4253 12.157C19.6986 12.2442 19.9383 12.1879 20.1442 11.9882L20.163 11.9694C20.3615 11.7756 20.4261 11.5443 20.3568 11.2756L20.3505 11.2443C20.3255 11.1526 20.2838 11.0693 20.2255 10.9943L20.1817 10.938C20.1644 10.9139 20.1457 10.891 20.1255 10.8692L20.063 10.8067L19.9942 10.7192L19.8692 10.5442L19.7254 10.3441L19.5629 10.0566L19.3503 9.6065L19.1065 9.00013L18.8565 8.24999L18.5877 7.42483L18.3189 6.61218L18.0751 5.88704C18.0665 5.86128 18.0561 5.83627 18.0438 5.81202L17.7813 5.30568C17.7736 5.29271 17.7653 5.28021 17.7563 5.26817L17.5812 5.00562L17.5562 4.83059C17.5148 4.70612 17.429 4.65267 17.299 4.67024C17.169 4.68781 17.1006 4.76209 17.0936 4.8931L17.1186 5.08063L17.0374 5.39319C17.0309 5.41781 17.0267 5.44281 17.0249 5.46821L16.9811 6.03081C16.979 6.07063 16.9811 6.11022 16.9874 6.14959L17.0936 6.89973C17.0955 6.9102 17.0975 6.92062 17.0999 6.93099L17.2562 7.76239C17.2596 7.78132 17.2637 7.80008 17.2687 7.81866L17.5 8.66257C17.5018 8.67303 17.5039 8.68345 17.5062 8.69382L17.7625 9.46897C17.7662 9.48369 17.7704 9.49827 17.775 9.51273L18.0251 10.1566C18.0329 10.1715 18.0412 10.1861 18.0501 10.2004L18.2814 10.688C18.289 10.7049 18.2974 10.7216 18.3064 10.738L18.5002 11.0818C18.5118 11.1011 18.5243 11.1199 18.5377 11.138L18.7064 11.3756C18.7085 11.3798 18.7106 11.3839 18.7127 11.3881L18.8565 11.5756C18.8605 11.584 18.8646 11.5924 18.869 11.6006L18.9752 11.7319C18.9834 11.7404 18.9917 11.7488 19.0003 11.7569L19.0628 11.8319L19.094 11.8694C19.0771 11.7418 19.0292 11.6272 18.9502 11.5256L18.9565 11.5569C19.1187 11.3884 19.1833 11.1883 19.1503 10.9568L19.1315 10.9755C19.4039 11.052 19.6394 10.9895 19.8379 10.788L19.7754 10.7692C19.8485 10.8268 19.9298 10.8685 20.0192 10.8942L19.9754 10.8567L19.8942 10.763L19.7254 10.5254L19.5003 10.1629L19.244 9.65651L18.9627 9.01263L18.6814 8.26249L18.4314 7.44984L18.2251 6.67469L18.0688 6.01206L17.9688 5.52447L17.925 5.21816L17.9125 5.02437C17.9113 5.00552 17.9093 4.98677 17.9063 4.96811L17.8938 4.86809C17.8578 4.63429 17.7262 4.48441 17.499 4.41845C17.2719 4.3525 17.0805 4.40861 16.9249 4.58679Z" fill="black"/>
<path d="M1.42292 31.3856C1.42302 31.5939 1.52721 31.698 1.73548 31.698C1.94375 31.698 2.04794 31.5939 2.04804 31.3856C2.04794 31.1774 1.94375 31.0732 1.73548 31.0732C1.52721 31.0732 1.42302 31.1774 1.42292 31.3856ZM1.84175 31.0731L1.81674 31.0668C1.70375 31.0212 1.59675 31.0325 1.49573 31.1006C1.39472 31.1688 1.34421 31.2638 1.34421 31.3856C1.34421 31.5075 1.39472 31.6025 1.49573 31.6706C1.59675 31.7388 1.70375 31.7501 1.81674 31.7044L1.84175 31.6982C1.98937 31.6463 2.06318 31.5421 2.06318 31.3856C2.06318 31.2292 1.98937 31.125 1.84175 31.0731ZM1.85425 31.0543L1.79174 31.0168C1.69893 30.9614 1.59891 30.9405 1.49168 30.9543L1.35416 30.9731C1.26596 30.985 1.18678 31.0183 1.11661 31.0731L0.96033 31.1981C0.918956 31.23 0.883533 31.2675 0.85406 31.3106L0.691529 31.5607C0.662987 31.6052 0.64215 31.6532 0.629017 31.7044L0.522747 32.0858C0.504619 32.1561 0.502535 32.227 0.516496 32.2983L0.59151 32.7109C0.597281 32.7367 0.605616 32.7617 0.616515 32.7859L0.772795 33.1672C0.7983 33.2322 0.839975 33.2843 0.897819 33.3235L1.16662 33.5048L1.40416 33.6673C1.53334 33.7547 1.64166 33.7339 1.72913 33.6047C1.81661 33.4756 1.7958 33.3673 1.66671 33.2797L1.49168 33.161L1.41667 32.9547L1.36666 32.6609L1.44167 32.3483L1.55419 32.0545L1.64171 31.917L1.69797 31.867L1.77924 31.8232C1.83877 31.7903 1.88878 31.7466 1.92926 31.6919L1.97302 31.6357C2.04313 31.5403 2.06634 31.4346 2.04265 31.3186C2.01895 31.2027 1.95615 31.1146 1.85425 31.0543Z" fill="black"/>
<path d="M1.33523 31.0105L1.31023 31.0168C1.28831 31.025 1.26747 31.0354 1.24771 31.048L1.1727 31.098C1.15969 31.1056 1.14719 31.1139 1.13519 31.123L1.01017 31.2293C0.992087 31.2446 0.975417 31.2612 0.96016 31.2793L0.791378 31.4731C0.769494 31.5003 0.750741 31.5294 0.735117 31.5606L0.572586 31.8544C0.56081 31.8746 0.550392 31.8954 0.54133 31.9169L0.397553 32.3108C0.378229 32.3612 0.365726 32.4133 0.360046 32.467L0.310036 32.9421C0.303264 33.0049 0.305348 33.0675 0.316287 33.1297L0.410055 33.6298C0.420347 33.6839 0.437017 33.736 0.460065 33.786L0.666354 34.2361C0.693829 34.2955 0.729252 34.3497 0.772624 34.3987L1.07268 34.7425C1.12073 34.8 1.17699 34.848 1.24146 34.8863L1.60403 35.0925C1.69731 35.1445 1.79733 35.1716 1.90409 35.1738L2.28541 35.1863C2.38365 35.1899 2.47742 35.1711 2.56672 35.1301L2.93554 34.955C3.01299 34.9194 3.07966 34.8694 3.13557 34.805L3.43563 34.4487C3.47874 34.4005 3.51208 34.3463 3.53565 34.2861L3.70443 33.8361C3.70987 33.8176 3.71404 33.7988 3.71694 33.7798L3.8107 33.3422C3.81408 33.3257 3.81617 33.309 3.81695 33.2922L3.83571 32.9421L3.89197 32.6858C3.921 32.5359 3.86056 32.4464 3.71065 32.4172C3.56074 32.3881 3.47115 32.4484 3.44188 32.5983L3.39812 32.8234L3.23559 33.0922L2.9918 33.4047L2.68549 33.6798L2.41044 33.8798L2.26041 33.9298L2.16039 33.9173L2.01661 33.8173L1.85408 33.6173L1.71655 33.2985L1.62904 32.9046L1.59153 32.4983L1.58528 32.1607L1.63529 31.8919L1.69155 31.6481L1.72281 31.5169L1.74781 31.4606C1.74783 31.4585 1.74783 31.4564 1.74781 31.4544L1.75406 31.4294C1.80338 31.2985 1.77861 31.1837 1.67975 31.0848C1.58089 30.986 1.46605 30.9612 1.33523 31.0105Z" fill="black"/>
<path d="M3.14187 32.8234C3.14187 33.0151 3.23772 33.1109 3.42942 33.1109C3.62112 33.1109 3.71698 33.0151 3.71698 32.8234C3.71698 32.6317 3.62112 32.5358 3.42942 32.5358C3.23772 32.5358 3.14187 32.6317 3.14187 32.8234ZM3.0606 32.8234C3.06067 32.9252 3.09671 33.012 3.16872 33.084C3.24072 33.1559 3.32762 33.1919 3.42942 33.1919C3.53122 33.1919 3.61812 33.1559 3.69013 33.084C3.76213 33.012 3.79817 32.9252 3.79824 32.8234C3.79817 32.7216 3.76213 32.6347 3.69013 32.5627C3.61812 32.4908 3.53122 32.4548 3.42942 32.4548C3.32762 32.4548 3.24072 32.4908 3.16872 32.5627C3.09671 32.6347 3.06067 32.7216 3.0606 32.8234ZM2.88557 32.8234C2.88557 32.9684 2.93683 33.0921 3.03937 33.1947C3.1419 33.2972 3.26567 33.3485 3.41067 33.3485C3.55567 33.3485 3.67944 33.2972 3.78197 33.1947C3.8845 33.0921 3.93577 32.9684 3.93577 32.8234C3.93577 32.6784 3.8845 32.5546 3.78197 32.4521C3.67944 32.3495 3.55567 32.2983 3.41067 32.2983C3.26567 32.2983 3.1419 32.3495 3.03937 32.4521C2.93683 32.5546 2.88557 32.6784 2.88557 32.8234ZM2.7793 32.7733L2.75429 32.9109C2.74109 32.9972 2.74526 33.0826 2.7668 33.1672L2.8168 33.3797C2.86574 33.576 2.98243 33.7156 3.16687 33.7985L3.3044 33.8611C3.32457 33.871 3.34541 33.8794 3.36691 33.8861L3.39191 33.8923L3.41692 33.9548C3.48329 34.0757 3.58022 34.1098 3.70771 34.0573C3.8352 34.0048 3.87996 33.9123 3.842 33.7798L3.82325 33.7298H3.817L3.90451 33.6298C4.00857 33.5047 4.05649 33.3609 4.04829 33.1984L4.03579 32.9859C4.03517 32.9608 4.03308 32.9358 4.02954 32.9109L4.00453 32.7733C3.9827 32.621 3.91363 32.4943 3.79731 32.3935C3.681 32.2926 3.54586 32.2422 3.39191 32.2422C3.23797 32.2422 3.10283 32.2926 2.98651 32.3935C2.8702 32.4943 2.80112 32.621 2.7793 32.7733Z" fill="black"/>
<path d="M26.1148 5.60548C26.1148 5.78052 26.2023 5.86803 26.3774 5.86803C26.5524 5.86803 26.6399 5.78052 26.6399 5.60548C26.6399 5.43045 26.5524 5.34293 26.3774 5.34293C26.2023 5.34293 26.1148 5.43045 26.1148 5.60548ZM26.5711 5.82427C26.6381 5.76667 26.6735 5.69374 26.6774 5.60548V5.59298C26.6061 5.6511 26.5686 5.72611 26.5649 5.81802L26.5711 5.81177C26.4562 5.75392 26.3479 5.76434 26.2461 5.84303L26.2773 5.86178C26.2539 5.83625 26.2268 5.81541 26.1961 5.79927L26.2336 5.83678C26.2336 5.83886 26.2336 5.84094 26.2336 5.84303L26.2711 5.88053C26.281 5.88957 26.2914 5.8979 26.3023 5.90554L26.3461 5.93679C26.3329 5.856 26.2934 5.7914 26.2273 5.74301L26.2336 5.76801C26.2545 5.90696 26.3316 5.99864 26.4649 6.04307L26.5774 6.08057C26.7719 6.13252 26.9058 6.06469 26.979 5.87708C27.0521 5.68948 26.9995 5.54894 26.8212 5.45545L26.7087 5.40544C26.5891 5.35403 26.4765 5.36653 26.3711 5.44295L26.3524 5.45545C26.4663 5.52994 26.5788 5.52786 26.6899 5.4492L26.6712 5.4367L26.6587 5.41795C26.6566 5.41792 26.6545 5.41792 26.6524 5.41795L26.6212 5.38669L26.6087 5.36794C26.5259 5.27943 26.4259 5.25026 26.3086 5.28042L26.2961 5.28667C26.1369 5.3268 26.0598 5.4289 26.0648 5.59298V5.60548C26.0687 5.69374 26.1041 5.76667 26.1711 5.82427C26.3044 5.94355 26.4378 5.94355 26.5711 5.82427Z" fill="black"/>
<path d="M25.7834 4.90529C25.7834 5.09699 25.8793 5.19285 26.071 5.19285C26.2627 5.19285 26.3586 5.09699 26.3586 4.90529C26.3586 4.71359 26.2627 4.61774 26.071 4.61774C25.8793 4.61774 25.7834 4.71359 25.7834 4.90529ZM25.8335 4.72401L25.8272 4.73026C25.7142 4.87877 25.7266 5.01596 25.8644 5.14182C26.0021 5.26769 26.1399 5.26769 26.2776 5.14182C26.4154 5.01596 26.4278 4.87877 26.3148 4.73026L26.3085 4.72401C26.2485 4.64618 26.1693 4.60727 26.071 4.60727C25.9727 4.60727 25.8935 4.64618 25.8335 4.72401ZM25.7584 4.81777L25.7459 4.84903C25.7011 4.96155 25.7011 5.07407 25.7459 5.18659L25.8084 5.34913C25.8236 5.3845 25.8423 5.41784 25.8647 5.44914L26.0397 5.71169C26.0515 5.72689 26.064 5.74147 26.0772 5.75545L26.3586 6.09927L26.7149 6.55561L27.1212 7.13071L27.565 7.78084L27.9964 8.47472L28.3902 9.17485L28.734 9.84998L29.0278 10.4751L29.2654 11.0315L29.4591 11.5503L29.6404 12.0942C29.6425 12.0963 29.6446 12.0983 29.6467 12.1004L29.828 12.6505C29.83 12.6568 29.832 12.663 29.8342 12.6693L30.028 13.1881L30.1718 13.6882C30.1718 13.6903 30.1718 13.6924 30.1718 13.6945L30.3156 14.1633C30.3369 14.236 30.3702 14.3027 30.4156 14.3633L30.6469 14.6634C30.6509 14.6697 30.6551 14.676 30.6594 14.6822L30.8157 14.8697L30.8969 15.0447C30.9241 15.0997 30.9637 15.1434 31.0157 15.176L31.0657 15.2135L31.0782 15.2448C31.1324 15.3863 31.2304 15.43 31.372 15.3759C31.5135 15.3217 31.5573 15.2239 31.5033 15.0822L31.4908 15.051L31.5033 14.9822C31.5127 14.943 31.5148 14.9034 31.5095 14.8634L31.4845 14.6697L31.5033 14.4196L31.5408 14.0383C31.5467 13.9664 31.5404 13.8955 31.522 13.8257L31.4033 13.3506L31.2657 12.8381L31.147 12.2817C31.145 12.2733 31.143 12.265 31.1407 12.2567L30.9907 11.6941C30.9851 11.6772 30.9788 11.6605 30.9719 11.6441L30.7844 11.094C30.7824 11.0877 30.7803 11.0814 30.7781 11.0752L30.5719 10.5251C30.568 10.5125 30.5639 10.5 30.5594 10.4876L30.3031 9.91249C30.2991 9.90408 30.2949 9.89574 30.2906 9.88749L29.9842 9.24362C29.9802 9.2352 29.9761 9.22686 29.9717 9.21861L29.6029 8.52473C29.5989 8.51841 29.5947 8.51216 29.5904 8.50598L29.1778 7.78709C29.1719 7.77651 29.1656 7.76609 29.1591 7.75583L28.709 7.0432C28.7029 7.03683 28.6966 7.03057 28.6902 7.02444L28.2277 6.36182C28.2197 6.34904 28.2114 6.33654 28.2027 6.32431L27.7463 5.7617C27.7364 5.74881 27.726 5.73631 27.7151 5.7242L27.3025 5.28036C27.2924 5.26958 27.282 5.25916 27.2712 5.24911L26.9399 4.9428C26.9149 4.91744 26.8878 4.89452 26.8586 4.87404L26.5898 4.70525C26.5546 4.68203 26.5171 4.66327 26.4773 4.64899L26.3148 4.59273C26.1934 4.54853 26.0746 4.55478 25.9585 4.61149L25.9272 4.63024C25.8473 4.67145 25.791 4.73396 25.7584 4.81777Z" fill="black"/>
<path d="M30.9845 15.4198C30.9845 15.624 31.0867 15.7261 31.2909 15.7261C31.4951 15.7261 31.5972 15.624 31.5972 15.4198C31.5972 15.2156 31.4951 15.1135 31.2909 15.1135C31.0867 15.1135 30.9845 15.2156 30.9845 15.4198ZM30.972 15.4261C30.9723 15.6384 31.0785 15.7446 31.2909 15.7446C31.5032 15.7446 31.6095 15.6384 31.6097 15.4261C31.6095 15.2138 31.5032 15.1076 31.2909 15.1076C31.0785 15.1076 30.9723 15.2138 30.972 15.4261ZM31.0721 15.4136C31.0721 15.5636 31.1471 15.6386 31.2971 15.6386C31.4471 15.6386 31.5222 15.5636 31.5222 15.4136C31.5222 15.2636 31.4471 15.1885 31.2971 15.1885C31.1471 15.1885 31.0721 15.2636 31.0721 15.4136Z" fill="black"/>
<path d="M27.5465 17.739C27.5465 17.8339 27.58 17.915 27.6472 17.9821C27.7143 18.0492 27.7954 18.0828 27.8903 18.0828C27.9852 18.0828 28.0663 18.0492 28.1334 17.9821C28.2005 17.915 28.2341 17.8339 28.2341 17.739C28.2341 17.644 28.2005 17.563 28.1334 17.4959C28.0663 17.4287 27.9852 17.3952 27.8903 17.3952C27.7954 17.3952 27.7143 17.4287 27.6472 17.4959C27.58 17.563 27.5465 17.644 27.5465 17.739ZM27.5402 17.739C27.5402 17.8357 27.5744 17.9182 27.6428 17.9865C27.7111 18.0549 27.7936 18.0891 27.8903 18.0891C27.987 18.0891 28.0695 18.0549 28.1378 17.9865C28.2062 17.9182 28.2404 17.8357 28.2404 17.739C28.2404 17.6423 28.2062 17.5598 28.1378 17.4914C28.0695 17.4231 27.987 17.3889 27.8903 17.3889C27.7936 17.3889 27.7111 17.4231 27.6428 17.4914C27.5744 17.5598 27.5402 17.6423 27.5402 17.739ZM27.484 17.7515C27.484 17.862 27.523 17.9563 27.6012 18.0344C27.6793 18.1125 27.7736 18.1516 27.884 18.1516C27.9945 18.1516 28.0888 18.1125 28.1669 18.0344C28.2451 17.9563 28.2841 17.862 28.2841 17.7515C28.2841 17.641 28.2451 17.5467 28.1669 17.4686C28.0888 17.3905 27.9945 17.3514 27.884 17.3514C27.7736 17.3514 27.6793 17.3905 27.6012 17.4686C27.523 17.5467 27.484 17.641 27.484 17.7515ZM27.3965 17.7702C27.3965 17.9014 27.4429 18.0133 27.5357 18.106C27.6284 18.1987 27.7404 18.2451 27.8715 18.2451C28.0027 18.2451 28.1146 18.1987 28.2074 18.106C28.3002 18.0133 28.3466 17.9014 28.3466 17.7702C28.3466 17.6391 28.3002 17.5272 28.2074 17.4345C28.1146 17.3417 28.0027 17.2954 27.8715 17.2954C27.7404 17.2954 27.6284 17.3417 27.5357 17.4345C27.4429 17.5272 27.3965 17.6391 27.3965 17.7702ZM27.3277 17.789C27.3277 17.9409 27.3814 18.0706 27.4888 18.178C27.5962 18.2854 27.7259 18.3391 27.8778 18.3391C28.0297 18.3391 28.1594 18.2854 28.2668 18.178C28.3742 18.0706 28.4279 17.9409 28.4279 17.789C28.4279 17.6371 28.3742 17.5074 28.2668 17.4C28.1594 17.2926 28.0297 17.2389 27.8778 17.2389C27.7259 17.2389 27.5962 17.2926 27.4888 17.4C27.3814 17.5074 27.3277 17.6371 27.3277 17.789ZM27.6152 18.3641L27.709 18.4204C27.7949 18.467 27.8866 18.4941 27.9841 18.5016L28.1904 18.5204C28.2727 18.5284 28.354 18.5222 28.4342 18.5016L28.7405 18.4204C28.8018 18.4051 28.8602 18.3822 28.9155 18.3516L29.2968 18.1328C29.3394 18.1078 29.379 18.0786 29.4156 18.0453L29.8344 17.6827C29.869 17.6525 29.9003 17.6192 29.9282 17.5827L30.297 17.0889C30.3303 17.0467 30.3574 17.0009 30.3783 16.9513L30.5846 16.4262L30.7846 15.9636C30.7868 15.9595 30.7889 15.9554 30.7909 15.9511L30.9221 15.5886L31.0471 15.351C31.1138 15.226 31.0847 15.1302 30.9596 15.0635C30.8346 14.9968 30.7388 15.026 30.6721 15.151L30.5533 15.3823L30.3158 15.6511L29.9782 15.9511L29.5281 16.2262C29.5109 16.2358 29.4943 16.2462 29.4781 16.2575L28.9843 16.62L28.5779 16.9076L28.2841 17.0639L28.0966 17.1201L27.9466 17.1451C27.9106 17.1486 27.8752 17.1548 27.8403 17.1639L27.7403 17.2014C27.4743 17.2846 27.3264 17.4647 27.2966 17.7418C27.2669 18.0188 27.3731 18.2263 27.6152 18.3641Z" fill="black"/>
<path d="M28.8342 17.3577C28.8342 17.4526 28.8678 17.5335 28.935 17.6006C29.0021 17.6677 29.0831 17.7012 29.178 17.7012C29.2729 17.7012 29.3539 17.6677 29.421 17.6006C29.4881 17.5335 29.5217 17.4526 29.5218 17.3577C29.5217 17.2628 29.4881 17.1818 29.421 17.1147C29.3539 17.0476 29.2729 17.0141 29.178 17.0141C29.0831 17.0141 29.0021 17.0476 28.935 17.1147C28.8678 17.1818 28.8342 17.2628 28.8342 17.3577ZM28.8279 17.3577C28.8279 17.4543 28.8621 17.5368 28.9304 17.6052C28.9988 17.6735 29.0813 17.7077 29.178 17.7077C29.2746 17.7077 29.3572 17.6735 29.4255 17.6052C29.4939 17.5368 29.528 17.4543 29.528 17.3577C29.528 17.261 29.4939 17.1785 29.4255 17.1101C29.3572 17.0418 29.2746 17.0076 29.178 17.0076C29.0813 17.0076 28.9988 17.0418 28.9304 17.1101C28.8621 17.1785 28.8279 17.261 28.8279 17.3577ZM28.6966 17.3452C28.6966 17.4798 28.7442 17.5947 28.8395 17.6899C28.9347 17.7851 29.0496 17.8327 29.1842 17.8327C29.3189 17.8327 29.4338 17.7851 29.529 17.6899C29.6242 17.5947 29.6718 17.4798 29.6718 17.3452C29.6718 17.2105 29.6242 17.0956 29.529 17.0004C29.4338 16.9052 29.3189 16.8576 29.1842 16.8576C29.0496 16.8576 28.9347 16.9052 28.8395 17.0004C28.7442 17.0956 28.6966 17.2105 28.6966 17.3452ZM29.3218 17.9015L29.4468 17.8828C29.5604 17.8658 29.6625 17.822 29.7531 17.7515L29.9594 17.5827C29.9907 17.5602 30.0199 17.5352 30.0469 17.5077L30.3219 17.2014C30.3425 17.1777 30.3612 17.1527 30.3782 17.1264L30.672 16.695C30.715 16.6299 30.7442 16.559 30.7595 16.4825L30.8596 16.0074L30.9971 15.5761L31.2034 15.251C31.2824 15.1218 31.2574 15.0177 31.1283 14.9386C30.9992 14.8594 30.895 14.8844 30.8158 15.0135L30.6158 15.3323L30.2907 15.6073L29.8844 15.8324C29.8415 15.8547 29.8019 15.8818 29.7656 15.9136L29.378 16.27C29.3695 16.2781 29.3611 16.2864 29.353 16.295L29.0717 16.5825L28.8904 16.7638C28.8374 16.8128 28.7936 16.8691 28.7592 16.9326L28.7029 17.0451C28.5932 17.2606 28.6092 17.4663 28.7508 17.6623C28.8924 17.8582 29.0827 17.938 29.3218 17.9015Z" fill="black"/>
<path d="M19.3762 8.6373C19.3762 8.84567 19.4804 8.94986 19.6888 8.94986C19.8971 8.94986 20.0013 8.84567 20.0013 8.6373C20.0013 8.42893 19.8971 8.32474 19.6888 8.32474C19.4804 8.32474 19.3762 8.42893 19.3762 8.6373ZM19.9326 8.43101L19.9263 8.41851C19.8631 8.34195 19.782 8.3005 19.683 8.29418C19.5839 8.28786 19.4982 8.31865 19.4258 8.38656C19.3535 8.45447 19.3173 8.53805 19.3173 8.6373C19.3173 8.73655 19.3535 8.82013 19.4259 8.88804C19.4982 8.95595 19.5839 8.98674 19.683 8.98042C19.782 8.97409 19.8631 8.93265 19.9263 8.85609L19.9326 8.84359C20.0455 8.70606 20.0455 8.56854 19.9326 8.43101ZM19.5325 8.25598L19.4512 8.27473C19.3337 8.29351 19.2358 8.34768 19.1574 8.43726L19.0261 8.58729C18.9528 8.67236 18.907 8.77029 18.8886 8.8811L18.8198 9.29367C18.8041 9.39039 18.8082 9.48624 18.8324 9.58123L19.0074 10.3126C19.02 10.3579 19.0366 10.4017 19.0574 10.4439L19.52 11.4691C19.5379 11.5062 19.5588 11.5416 19.5825 11.5754L20.3326 12.6943C20.3442 12.7137 20.3567 12.7325 20.3701 12.7506L21.2328 13.7883C21.2554 13.8157 21.2804 13.8407 21.3078 13.8633L22.208 14.5947C22.2121 14.5968 22.2163 14.5989 22.2205 14.6009L22.9394 15.1448L23.4145 15.5449C23.5296 15.6283 23.6334 15.6161 23.7259 15.5081C23.8184 15.4002 23.8146 15.2958 23.7145 15.1948L23.2519 14.801L22.7268 14.1196L22.1517 13.1382L21.4829 11.9942L20.889 10.8315L20.4452 9.83753L20.1826 9.16865L20.0576 8.80608L20.0138 8.6498L20.0013 8.58104C19.9807 8.47189 19.9248 8.38567 19.8335 8.32239C19.7423 8.2591 19.6419 8.23697 19.5325 8.25598Z" fill="black"/>
<path d="M19.2761 9.95625V9.96876L19.2198 10.1C19.1721 10.2096 19.1638 10.3222 19.1948 10.4376L19.3261 10.9064C19.3417 10.9598 19.3647 11.0098 19.3948 11.0565L19.7824 11.6753C19.8131 11.7232 19.8506 11.7648 19.8949 11.8004L20.47 12.2754L20.8639 12.8568C20.9601 12.9669 21.0691 12.9814 21.1908 12.9003C21.3125 12.8192 21.3411 12.713 21.2764 12.5818L20.8889 12.0066L20.7263 11.2878C20.7185 11.2576 20.7081 11.2285 20.6951 11.2002L20.4138 10.5251C20.4028 10.5013 20.3903 10.4784 20.3763 10.4563L20.1262 10.0375C20.0769 9.9565 20.0102 9.89399 19.9262 9.84998L19.7824 9.76872C19.8094 9.79907 19.8406 9.82407 19.8762 9.84373L19.8449 9.81248C19.7558 9.71304 19.6465 9.67969 19.517 9.71241C19.3876 9.74513 19.3072 9.82641 19.2761 9.95625Z" fill="black"/>
<path d="M17.6132 4.9491C17.6132 5.04231 17.6461 5.12188 17.7121 5.18779C17.778 5.25371 17.8575 5.28666 17.9508 5.28666C18.044 5.28666 18.1235 5.25371 18.1894 5.18779C18.2554 5.12188 18.2883 5.04231 18.2883 4.9491C18.2883 4.85588 18.2554 4.77632 18.1894 4.7104C18.1235 4.64449 18.044 4.61153 17.9508 4.61153C17.8575 4.61153 17.778 4.64449 17.7121 4.7104C17.6461 4.77632 17.6132 4.85588 17.6132 4.9491ZM17.6007 4.9491C17.6007 5.04404 17.6343 5.12508 17.7014 5.19221C17.7685 5.25935 17.8496 5.29291 17.9445 5.29291C18.0394 5.29291 18.1205 5.25935 18.1876 5.19221C18.2547 5.12508 18.2883 5.04404 18.2883 4.9491C18.2883 4.85416 18.2547 4.77312 18.1876 4.70598C18.1205 4.63885 18.0394 4.60528 17.9445 4.60528C17.8496 4.60528 17.7685 4.63885 17.7014 4.70598C17.6343 4.77312 17.6007 4.85416 17.6007 4.9491ZM17.5507 4.9366C17.5507 5.04362 17.5885 5.13497 17.6642 5.21065C17.7399 5.28633 17.8312 5.32417 17.9382 5.32417C18.0453 5.32417 18.1366 5.28633 18.2123 5.21065C18.288 5.13497 18.3258 5.04362 18.3258 4.9366C18.3258 4.82957 18.288 4.73822 18.2123 4.66254C18.1366 4.58686 18.0453 4.54902 17.9382 4.54902C17.8312 4.54902 17.7399 4.58686 17.6642 4.66254C17.5885 4.73822 17.5507 4.82957 17.5507 4.9366ZM18.1758 5.32417L18.2758 5.27416C18.3289 5.24829 18.3769 5.21495 18.4196 5.17414L18.6446 4.9616C18.6577 4.94963 18.6702 4.93713 18.6821 4.92409L18.9947 4.56778L19.3948 4.13644L19.8949 3.6551C19.9012 3.65104 19.9074 3.64688 19.9136 3.6426L20.4387 3.09875C20.4544 3.08086 20.469 3.06211 20.4825 3.04249L20.9076 2.48613C20.9119 2.47999 20.9161 2.47374 20.9201 2.46738L21.2201 2.03604L21.5639 1.811C21.6597 1.72745 21.6727 1.63253 21.6031 1.52624C21.5335 1.41995 21.4412 1.39401 21.3264 1.44843L20.9701 1.67347L20.4512 1.8235C20.432 1.82844 20.4133 1.83469 20.395 1.84226L19.7573 2.13606C19.7151 2.15443 19.6755 2.17735 19.6386 2.20483L19.0447 2.67366C19.0252 2.68722 19.0064 2.70181 18.9884 2.71742L18.4821 3.21127C18.4735 3.21938 18.4652 3.22771 18.4571 3.23627L18.0383 3.68636C18.0182 3.70599 17.9994 3.72683 17.982 3.74887L17.7007 4.14269C17.6817 4.17052 17.665 4.19969 17.6507 4.23021L17.5132 4.51151C17.4641 4.61025 17.4454 4.71444 17.4569 4.82407L17.4694 4.9366C17.4772 5.01684 17.5033 5.09061 17.5476 5.15792C17.592 5.22522 17.6495 5.27827 17.7202 5.31705C17.7909 5.35582 17.8665 5.37584 17.9471 5.3771C18.0277 5.37836 18.1039 5.36072 18.1758 5.32417Z" fill="black"/>
<path d="M20.3011 2.96123L20.3199 2.95498C20.2132 2.92595 20.1173 2.94679 20.0323 3.01749L20.0698 3.02374C20.1256 3.03839 20.1819 3.04047 20.2386 3.02999L20.3824 3.00499C20.433 2.99599 20.4809 2.97932 20.5262 2.95498L20.7762 2.81745C20.7912 2.80979 20.8058 2.80145 20.82 2.79245L21.1638 2.5674C21.1659 2.56534 21.168 2.56325 21.17 2.56115L21.5451 2.31111L21.9264 2.07356L22.2577 1.87352C22.3407 1.82576 22.4074 1.76117 22.4578 1.67974L22.5828 1.46719C22.6067 1.42841 22.6234 1.38674 22.6328 1.34217L22.6516 1.2359C22.5803 1.26492 22.5366 1.31701 22.5203 1.39218L22.6453 1.34217C22.7511 1.27759 22.7806 1.1879 22.734 1.07309C22.6873 0.958291 22.6036 0.914624 22.4828 0.942095L22.3578 0.992104C22.4239 1.04016 22.4948 1.0485 22.5703 1.01711L22.4828 0.954597C22.4382 0.918692 22.3882 0.893687 22.3328 0.879583L22.0952 0.829573C21.9723 0.802667 21.8535 0.81517 21.7389 0.867081L21.3763 1.02961C21.3502 1.04234 21.3252 1.05693 21.3013 1.07337L20.9075 1.32342C20.8969 1.32935 20.8864 1.3356 20.8762 1.34217L20.5012 1.62347C20.4882 1.63336 20.4757 1.64378 20.4636 1.65473L20.1573 1.92978C20.1296 1.95434 20.1046 1.98143 20.0823 2.01105L19.9073 2.24234C19.8683 2.29514 19.8412 2.35349 19.826 2.41738L19.7885 2.5549C19.7739 2.62004 19.776 2.68463 19.7948 2.74869L19.801 2.7862L19.8073 2.7987C19.8371 2.90607 19.9049 2.97717 20.0107 3.01201C20.1166 3.04684 20.2134 3.02992 20.3011 2.96123Z" fill="black"/>
<path d="M26.6837 5.22408C26.6838 5.39489 26.7692 5.48029 26.94 5.48029C27.1108 5.48029 27.1963 5.39489 27.1963 5.22408C27.1963 5.05328 27.1108 4.96787 26.94 4.96787C26.7692 4.96787 26.6838 5.05328 26.6837 5.22408ZM26.615 5.22408C26.615 5.42829 26.7171 5.53039 26.9213 5.53039C27.1255 5.53039 27.2276 5.42829 27.2276 5.22408C27.2276 5.01988 27.1255 4.91777 26.9213 4.91777C26.7171 4.91777 26.615 5.01988 26.615 5.22408ZM26.59 5.22408C26.59 5.43662 26.6962 5.54289 26.9088 5.54289C27.1213 5.54289 27.2276 5.43662 27.2276 5.22408C27.2276 5.01154 27.1213 4.90527 26.9088 4.90527C26.6962 4.90527 26.59 5.01154 26.59 5.22408ZM26.915 5.58665H26.9588C27.0667 5.58858 27.1604 5.55315 27.2401 5.48038L27.3401 5.38661C27.3534 5.37489 27.3659 5.36239 27.3776 5.34911L27.5277 5.18032L27.7027 4.99279L27.9027 4.80525L28.0715 4.65522L28.184 4.56146L28.2465 4.52395L28.2778 4.5052C28.1499 4.45722 28.027 4.46763 27.909 4.53645L27.934 4.54895C27.8853 4.48896 27.8249 4.4452 27.7527 4.41768L27.7652 4.43018L27.7965 4.48644C27.8078 4.50397 27.8203 4.52064 27.834 4.53645L27.9402 4.66773C27.9443 4.67197 27.9485 4.67614 27.9527 4.68023L28.109 4.86151C28.1131 4.86576 28.1173 4.86993 28.1215 4.87402L28.3278 5.08656C28.3319 5.0908 28.3361 5.09497 28.3403 5.09906L28.5841 5.33035C28.5882 5.3346 28.5924 5.33877 28.5966 5.34286L28.8342 5.54914L29.0404 5.73043C29.0466 5.73475 29.0528 5.73892 29.0592 5.74293L29.2217 5.87421L29.3155 5.94922L29.3655 5.99298C29.3438 5.95343 29.3167 5.918 29.2842 5.88671L29.3092 5.93047C29.3244 5.83103 29.3078 5.73726 29.2592 5.64916L29.253 5.69292C29.278 5.6479 29.2947 5.59997 29.303 5.54914L29.278 5.5929C29.2998 5.56792 29.3185 5.54083 29.3342 5.51164L29.2967 5.5554C29.2809 5.57097 29.2663 5.58764 29.253 5.60541L29.2092 5.67417C29.1873 5.70934 29.1706 5.74685 29.1592 5.78669L29.128 5.89296C29.1228 5.90939 29.1187 5.92606 29.1155 5.94297L29.0842 6.0805C29.0841 6.08466 29.0841 6.08883 29.0842 6.093L29.0654 6.22427L29.0342 6.41806C29.0559 6.37449 29.0705 6.32865 29.0779 6.28053L29.0467 6.34305C28.9724 6.4884 28.9714 6.63427 29.0437 6.78064C29.1159 6.92701 29.2323 7.01493 29.3928 7.04442C29.5534 7.07391 29.6934 7.03308 29.8129 6.92193C29.9325 6.81078 29.9834 6.67408 29.9656 6.51183L29.9594 6.46182V6.31804L29.9719 6.23052L29.9906 6.12425L29.9969 6.09925L29.9906 6.11175L30.0094 6.08675C30.0233 6.06895 30.0358 6.05019 30.0469 6.03049L30.0719 5.98673C30.1044 5.93478 30.1252 5.87852 30.1344 5.81795L30.1407 5.77419C30.152 5.67327 30.1312 5.5795 30.0781 5.49288L30.0531 5.44913C30.0354 5.41961 30.0146 5.39253 29.9906 5.36786L29.9281 5.30535C29.926 5.30324 29.924 5.30116 29.9219 5.2991L29.8218 5.19908C29.8219 5.19699 29.8219 5.19491 29.8218 5.19283L29.6718 5.04905C29.6657 5.04262 29.6595 5.03637 29.6531 5.0303L29.4468 4.84901L29.2217 4.65522L28.9967 4.43018L28.7966 4.22389L28.6279 4.05511C28.6279 4.05303 28.6279 4.05094 28.6279 4.04886L28.5091 3.93009C28.503 3.92365 28.4968 3.9174 28.4903 3.91133L28.4153 3.84882C28.3923 3.82737 28.3673 3.80862 28.3403 3.79256L28.2965 3.76756C28.2477 3.74079 28.1956 3.72412 28.1403 3.71755L28.1153 3.71129C28.0401 3.70037 27.9672 3.70871 27.8965 3.7363L27.859 3.75505C27.8349 3.76547 27.812 3.77797 27.7902 3.79256L27.7027 3.84882C27.6853 3.8581 27.6686 3.86852 27.6527 3.88008L27.5214 3.99885C27.5128 4.0048 27.5045 4.01105 27.4964 4.0176L27.3214 4.18639L27.1151 4.38642C27.1087 4.39042 27.1025 4.39459 27.0963 4.39893L26.9025 4.60521C26.8961 4.61127 26.8898 4.61752 26.8838 4.62397L26.7338 4.799C26.7249 4.80903 26.7166 4.81945 26.7087 4.83026L26.6275 4.94903C26.5907 5.00192 26.5678 5.06027 26.5587 5.12406L26.5525 5.16782C26.5374 5.27801 26.5662 5.37515 26.639 5.45924C26.7118 5.54332 26.8038 5.58579 26.915 5.58665ZM29.3342 6.06799L29.2592 6.08675C29.1505 6.11207 29.0546 6.16208 28.9717 6.23678L28.8467 6.3493C28.8337 6.36131 28.8212 6.37381 28.8091 6.3868L28.6654 6.53683C28.5325 6.66371 28.4639 6.819 28.4596 7.0027C28.4553 7.18641 28.5166 7.34472 28.6435 7.47764C28.7704 7.61056 28.9257 7.67915 29.1094 7.68342C29.2931 7.6877 29.4514 7.62639 29.5843 7.49952L29.7468 7.36199C29.8019 7.31322 29.8477 7.25696 29.8844 7.19321L29.9719 7.04943C30.0631 6.89433 30.0861 6.72972 30.0406 6.55559L30.0219 6.48057C29.982 6.33007 29.8953 6.21477 29.7618 6.13467C29.6283 6.05457 29.4858 6.03234 29.3342 6.06799ZM28.8592 6.94941L28.7216 7.05568C28.6176 7.15378 28.6091 7.25956 28.6961 7.37302C28.7831 7.48648 28.8875 7.50572 29.0092 7.43075L29.1467 7.32448C29.2507 7.22639 29.2592 7.12061 29.1722 7.00715C29.0853 6.89369 28.9809 6.87444 28.8592 6.94941Z" fill="black"/>
</g>
<defs>
<clipPath id="clip0_1_7424">
<rect width="32" height="36" fill="white"/>
</clipPath>
</defs>
</svg>
