<svg width="34" height="33" viewBox="0 0 34 33" fill="none" xmlns="http://www.w3.org/2000/svg">
<g clip-path="url(#clip0_1_7258)">
<path d="M21.1785 7.64277L21.2887 7.87167C21.2938 7.88602 21.2994 7.90015 21.3056 7.91406L21.6617 8.5499C21.6671 8.55853 21.6728 8.56701 21.6786 8.57533L22.3314 9.57572C22.3341 9.58143 22.337 9.58708 22.3399 9.59267L23.069 10.627L23.5862 11.6019C23.6978 11.7498 23.8349 11.7794 23.9976 11.6907C24.1603 11.602 24.2096 11.4706 24.1457 11.2967L23.6285 10.3218L23.1538 9.14335C23.151 9.14048 23.1482 9.13766 23.1453 9.13487L22.6706 8.04123C22.6653 8.02973 22.6596 8.01843 22.6536 8.00732L22.3145 7.363C22.3089 7.35723 22.3033 7.35158 22.2975 7.34604L22.1704 7.12562C22.0966 6.99339 21.9872 6.90558 21.8421 6.86219C21.697 6.81879 21.5573 6.8321 21.4231 6.90211C21.2888 6.97211 21.1979 7.079 21.1504 7.22279C21.1029 7.36658 21.1123 7.50657 21.1785 7.64277Z" fill="black"/>
<path d="M25.2054 15.7136C25.2054 15.8237 25.2443 15.9176 25.3221 15.9954C25.3999 16.0732 25.4938 16.1121 25.6038 16.1121C25.7138 16.1121 25.8078 16.0732 25.8856 15.9954C25.9634 15.9176 26.0023 15.8237 26.0023 15.7136C26.0023 15.6036 25.9634 15.5097 25.8856 15.4319C25.8078 15.3541 25.7138 15.3152 25.6038 15.3152C25.4938 15.3152 25.3999 15.3541 25.3221 15.4319C25.2443 15.5097 25.2054 15.6036 25.2054 15.7136ZM25.0867 15.773C25.0867 15.9181 25.138 16.042 25.2406 16.1446C25.3433 16.2473 25.4671 16.2986 25.6123 16.2986C25.7574 16.2986 25.8813 16.2473 25.984 16.1446C26.0866 16.042 26.1379 15.9181 26.1379 15.773C26.1379 15.6278 26.0866 15.5039 25.984 15.4013C25.8813 15.2987 25.7574 15.2473 25.6123 15.2473C25.4671 15.2473 25.3433 15.2987 25.2406 15.4013C25.138 15.5039 25.0867 15.6278 25.0867 15.773ZM25.2732 15.9934L25.3071 16.146C25.3305 16.2467 25.3861 16.3243 25.4738 16.3789C25.5616 16.4336 25.6558 16.4492 25.7564 16.4258C25.8571 16.4024 25.9347 16.3468 25.9894 16.259C26.044 16.1713 26.0596 16.0771 26.0362 15.9764L26.0023 15.8238C25.9789 15.7232 25.9233 15.6455 25.8356 15.5909C25.7478 15.5363 25.6536 15.5207 25.553 15.5441C25.4523 15.5675 25.3746 15.6231 25.32 15.7108C25.2654 15.7985 25.2498 15.8927 25.2732 15.9934Z" fill="black"/>
<path d="M20.746 6.3626C20.746 6.47731 20.7866 6.57522 20.8677 6.65634C20.9488 6.73745 21.0467 6.77801 21.1614 6.77801C21.2761 6.77801 21.3741 6.73745 21.4552 6.65634C21.5363 6.57522 21.5768 6.47731 21.5768 6.3626C21.5768 6.24788 21.5363 6.14997 21.4552 6.06885C21.3741 5.98774 21.2761 5.94718 21.1614 5.94718C21.0467 5.94718 20.9488 5.98774 20.8677 6.06885C20.7866 6.14997 20.746 6.24788 20.746 6.3626ZM20.9325 5.83697L20.9071 5.84545C20.6792 5.94194 20.5407 6.1115 20.4917 6.35412L20.4239 6.69323C20.3962 6.8204 20.3962 6.94757 20.4239 7.07473L20.5934 7.82926C20.6063 7.88148 20.6233 7.93235 20.6443 7.98186L21.1275 9.1518C21.1398 9.18648 21.1539 9.22039 21.1699 9.25354L21.9329 10.6693C21.9385 10.6751 21.9441 10.6807 21.9499 10.6863L22.8146 12.1953C22.8173 12.2039 22.8201 12.2124 22.8231 12.2208L23.7048 13.6366L24.3915 14.9422C24.4087 14.9722 24.4285 15.0005 24.4508 15.0269L25.1714 15.951L25.5784 16.7056C25.6252 16.7921 25.6958 16.8495 25.7901 16.8776C25.8845 16.9057 25.975 16.8964 26.0616 16.8496C26.1482 16.8028 26.2055 16.7322 26.2337 16.6379C26.2618 16.5435 26.2525 16.4531 26.2057 16.3664L25.7988 15.6204L25.4512 14.5013C25.4418 14.4751 25.4305 14.4496 25.4173 14.425L24.7899 13.094L24.2134 11.5426L23.6115 9.91481C23.6116 9.90916 23.6116 9.90351 23.6115 9.89785L23.0435 8.39728C23.0357 8.37723 23.0272 8.35745 23.0181 8.33793L22.4924 7.18495C22.4822 7.15904 22.4709 7.13361 22.4585 7.10865L22.077 6.4389C22.032 6.35657 21.9755 6.2831 21.9075 6.21847L21.6616 5.98109C21.5506 5.88017 21.4206 5.82083 21.2716 5.80306L21.2377 5.79458C21.1321 5.7805 21.0303 5.79462 20.9325 5.83697Z" fill="black"/>
<path d="M22.3059 9.72832C22.119 9.82229 22.0059 9.97206 21.9668 10.1776L21.916 10.4574C21.8868 10.6038 21.8952 10.7479 21.9414 10.8898L22.1957 11.6274C22.212 11.6741 22.2318 11.7193 22.2551 11.763L22.8146 12.8227C22.8276 12.8488 22.8417 12.8742 22.857 12.899L23.637 14.0944C23.6503 14.1147 23.6644 14.1345 23.6793 14.1537L24.5695 15.2898L25.3749 16.3156L26.0362 17.1464C26.0568 17.1736 26.0794 17.199 26.104 17.2227L26.6975 17.7738C26.7569 17.8277 26.8247 17.8673 26.9009 17.8925L27.2994 18.0281L27.5113 18.1892C27.689 18.2815 27.8384 18.2479 27.9593 18.0882C28.0803 17.9286 28.0722 17.7758 27.9352 17.6297L27.7572 17.494L27.6131 17.1379C27.5979 17.0961 27.5782 17.0565 27.5537 17.0193L27.0959 16.358C27.0931 16.3551 27.0903 16.3523 27.0874 16.3495L26.477 15.5187L25.8497 14.4505L25.2138 13.1873C25.2111 13.1816 25.2082 13.1759 25.2054 13.1703L24.5526 11.9071C24.547 11.9014 24.5413 11.8957 24.5356 11.8902L23.9591 10.8474C23.9411 10.8152 23.9213 10.7841 23.8998 10.7541L23.4504 10.1183C23.366 10.0006 23.2586 9.91019 23.1283 9.84701L22.874 9.72832C22.736 9.65885 22.5919 9.64189 22.4416 9.67745H22.4331C22.3886 9.68918 22.3462 9.70613 22.3059 9.72832Z" fill="black"/>
<path d="M24.5695 14.8998C24.5695 15.0473 24.6217 15.1732 24.726 15.2775C24.8303 15.3817 24.9562 15.4339 25.1036 15.4339C25.2511 15.4339 25.377 15.3817 25.4813 15.2775C25.5856 15.1732 25.6377 15.0473 25.6377 14.8998C25.6377 14.7523 25.5856 14.6264 25.4813 14.5221C25.377 14.4178 25.2511 14.3657 25.1036 14.3657C24.9562 14.3657 24.8303 14.4178 24.726 14.5221C24.6217 14.6264 24.5695 14.7523 24.5695 14.8998ZM24.5017 14.9846V15.2304C24.5009 15.4198 24.5546 15.5922 24.6628 15.7476L24.968 16.1884C24.9964 16.2274 25.0275 16.2642 25.0613 16.2986L25.5445 16.8073C25.5861 16.851 25.6313 16.8906 25.6801 16.926L26.2566 17.3499C26.4313 17.4775 26.6263 17.5311 26.8416 17.511L27.1298 17.4855L27.4011 17.7229C27.5773 17.8357 27.7343 17.8133 27.872 17.6559C28.0098 17.4985 28.0111 17.34 27.8759 17.1803L27.6131 16.9514L27.6216 16.6886C27.6304 16.5004 27.5824 16.328 27.4774 16.1715L27.0705 15.578C27.0401 15.5328 27.0062 15.4904 26.9688 15.4508L26.4855 14.9422C26.4514 14.9055 26.4147 14.8715 26.3753 14.8404L25.9514 14.5183C25.8166 14.4125 25.664 14.3503 25.4936 14.3318L25.2478 14.3063C25.0474 14.2862 24.8727 14.3439 24.7237 14.4793C24.5747 14.6148 24.5007 14.7832 24.5017 14.9846Z" fill="black"/>
<path d="M16.9005 27.295C16.9005 27.4191 16.9444 27.525 17.0321 27.6127C17.1199 27.7005 17.2258 27.7443 17.3498 27.7443C17.4739 27.7443 17.5798 27.7005 17.6676 27.6127C17.7553 27.525 17.7992 27.4191 17.7992 27.295C17.7992 27.1709 17.7553 27.065 17.6676 26.9773C17.5798 26.8896 17.4739 26.8457 17.3498 26.8457C17.2258 26.8457 17.1199 26.8896 17.0321 26.9773C16.9444 27.065 16.9005 27.1709 16.9005 27.295ZM16.7988 27.295C16.7988 27.4448 16.8518 27.5727 16.9577 27.6787C17.0636 27.7846 17.1915 27.8376 17.3414 27.8376C17.4912 27.8376 17.6191 27.7846 17.725 27.6787C17.831 27.5727 17.8839 27.4448 17.8839 27.295C17.8839 27.1452 17.831 27.0173 17.725 26.9113C17.6191 26.8054 17.4912 26.7524 17.3414 26.7524C17.1915 26.7524 17.0636 26.8054 16.9577 26.9113C16.8518 27.0173 16.7988 27.1452 16.7988 27.295ZM17.3753 26.727L17.3075 26.71C17.2278 26.6991 17.1487 26.702 17.0701 26.7185L16.909 26.7524C16.7911 26.7769 16.6837 26.8249 16.5868 26.8966L16.341 27.0746C16.2072 27.1727 16.1055 27.2971 16.0358 27.4476L15.8408 27.863C15.7922 27.9739 15.7639 28.0898 15.756 28.2106L15.7051 28.7956C15.6954 28.901 15.701 29.0055 15.7221 29.1093L15.8832 29.8553C15.9009 29.9436 15.9291 30.0284 15.968 30.1097L16.3579 30.915C16.3991 30.9978 16.4499 31.0741 16.5105 31.1439L17.1294 31.873C17.2475 32.0116 17.3917 32.1134 17.5618 32.1782L18.435 32.5174C18.5495 32.5625 18.6682 32.5823 18.7911 32.5767L19.6897 32.5343C19.7327 32.5333 19.7751 32.5276 19.8169 32.5174L20.6138 32.3054L21.292 32.1782C21.5054 32.1138 21.5917 31.9721 21.551 31.7529C21.5102 31.5338 21.3787 31.4325 21.1564 31.4492L20.546 31.5594L19.8932 31.3898L19.2913 31.0253L18.7487 30.4657L18.257 29.8553L17.9687 29.2703L17.8416 28.7278L17.8161 28.3293L17.867 27.9817C17.868 27.9563 17.868 27.9308 17.867 27.9054L17.8839 27.6426L17.9009 27.507C17.9129 27.4424 17.9158 27.3774 17.9094 27.312L17.8924 27.2441C17.8519 26.9399 17.6795 26.7675 17.3753 26.727Z" fill="black"/>
<path d="M17.3159 26.176L17.282 26.193C17.3316 26.1882 17.3796 26.1769 17.4261 26.1591L17.3413 26.1675C17.301 26.1722 17.2614 26.1807 17.2226 26.193L17.07 26.2354C16.9736 26.2635 16.886 26.3087 16.8072 26.371L16.5698 26.5575C16.4695 26.6395 16.3904 26.7384 16.3325 26.8542L16.129 27.2442C16.0828 27.3354 16.0517 27.4315 16.0357 27.5325L15.951 28.0835C15.9348 28.197 15.9377 28.3101 15.9594 28.4226L16.0866 29.1432C16.1019 29.2283 16.1274 29.3103 16.1629 29.3891L16.5359 30.2115C16.5679 30.2837 16.6075 30.3515 16.6546 30.4149L17.265 31.2118C17.3146 31.2778 17.3711 31.3372 17.4346 31.3899L18.24 32.0511C18.3295 32.1241 18.4284 32.1806 18.5367 32.2207L19.5032 32.5768C19.6373 32.6271 19.7758 32.6469 19.9186 32.6361L20.9275 32.5598C21.0519 32.55 21.1677 32.5133 21.275 32.4496L22.1822 31.9155C22.209 31.9007 22.2345 31.8837 22.2585 31.8646L23.0045 31.2203L23.6573 30.7201C23.7346 30.6616 23.7798 30.5843 23.7931 30.4883C23.8063 30.3923 23.7837 30.3057 23.7251 30.2284C23.6666 30.1512 23.5893 30.1059 23.4933 30.0927C23.3973 30.0794 23.3107 30.1021 23.2334 30.1606L22.6145 30.6353L21.8007 30.9066L20.9529 30.9575L20.1984 30.7625L19.4947 30.381L18.8758 29.8554L18.4095 29.228L18.1213 28.6007L17.9941 28.1005L17.9772 27.7444L18.0365 27.4138C18.0409 27.3828 18.0438 27.3517 18.045 27.3205L18.0619 27.0153C18.066 26.9556 18.0632 26.8963 18.0535 26.8373L18.028 26.7355V26.7016C18.0038 26.7673 17.9925 26.8351 17.9941 26.9051L18.0111 26.8712C18.0897 26.6548 18.0475 26.4652 17.8847 26.3023C17.7219 26.1395 17.5323 26.0974 17.3159 26.176Z" fill="black"/>
<path d="M16.5953 27.312C16.5953 27.4595 16.6475 27.5854 16.7518 27.6897C16.8561 27.794 16.9819 27.8461 17.1294 27.8461C17.2769 27.8461 17.4028 27.794 17.5071 27.6897C17.6114 27.5854 17.6635 27.4595 17.6635 27.312C17.6635 27.1645 17.6114 27.0386 17.5071 26.9343C17.4028 26.83 17.2769 26.7779 17.1294 26.7779C16.9819 26.7779 16.8561 26.83 16.7518 26.9343C16.6475 27.0386 16.5953 27.1645 16.5953 27.312ZM17.1803 27.8715L17.2227 27.8631C17.4704 27.8462 17.6512 27.7275 17.7653 27.507L17.9094 27.2103L18.0366 26.9729L18.257 26.6423L18.5876 26.159L19.0963 25.4977L19.9102 24.5991L21.0547 23.4715L22.4196 22.2168L23.9202 20.9875L25.5055 19.8685L27.0315 18.9274L28.388 18.2238L29.4393 17.8677L30.0581 17.8168L30.2531 17.8931L30.3718 18.0796L30.4651 18.5798L30.4735 19.275L30.3888 20.055L30.2531 20.8604C30.253 20.866 30.253 20.8717 30.2531 20.8773L30.1344 21.6827C30.1303 21.7052 30.1275 21.7278 30.126 21.7505L30.109 22.4203L29.8716 22.9459C29.8081 23.1419 29.8699 23.2829 30.0572 23.3689C30.2444 23.455 30.3916 23.41 30.499 23.2342L30.7533 22.6916L31.2026 22.1575C31.2406 22.1138 31.2716 22.0658 31.2959 22.0134L31.6265 21.2758C31.6446 21.2347 31.6588 21.1923 31.6689 21.1486L31.8639 20.3347C31.8673 20.3179 31.8701 20.3009 31.8724 20.2839L32.025 19.453C32.03 19.4193 32.0329 19.3854 32.0335 19.3513L32.0759 18.5459C32.0775 18.4831 32.0718 18.4209 32.0589 18.3594L31.9233 17.6303C31.9069 17.5307 31.873 17.4374 31.8215 17.3505L31.4824 16.808C31.3932 16.6658 31.2717 16.5613 31.1179 16.4943L30.5075 16.2315C30.3743 16.1747 30.2358 16.155 30.092 16.1721L29.1849 16.2823C29.1178 16.291 29.0528 16.308 28.9899 16.3332L27.803 16.791C27.777 16.8009 27.7515 16.8122 27.7267 16.8249L26.294 17.5625C26.2767 17.5703 26.2597 17.5788 26.2431 17.5879L24.6662 18.5544C24.6547 18.5626 24.6434 18.571 24.6323 18.5798L22.9961 19.7159C22.9816 19.7267 22.9674 19.738 22.9537 19.7498L21.4023 20.996C21.3907 21.0042 21.3794 21.0127 21.3683 21.0214L19.9695 22.2846C19.9579 22.2956 19.9466 22.3069 19.9356 22.3186L18.7741 23.4885C18.7626 23.4967 18.7513 23.5052 18.7402 23.5139L17.8924 24.455C17.8776 24.4713 17.8635 24.4883 17.85 24.5058L17.3159 25.2095C17.2936 25.2419 17.2738 25.2758 17.2566 25.3112L16.9514 25.8453C16.9348 25.8782 16.9207 25.9121 16.909 25.9471L16.7564 26.3455C16.7534 26.354 16.7506 26.3624 16.7479 26.371L16.6462 26.6677C16.6432 26.6761 16.6404 26.6846 16.6377 26.6931L16.5445 27.0238C16.4797 27.2404 16.5165 27.4382 16.6547 27.6172L16.6716 27.6426C16.7998 27.8109 16.9694 27.8872 17.1803 27.8715Z" fill="black"/>
<path d="M20.6986 31.6527C20.6986 31.7978 20.7499 31.9217 20.8525 32.0243C20.9551 32.127 21.079 32.1783 21.2242 32.1783C21.3693 32.1783 21.4932 32.127 21.5959 32.0243C21.6985 31.9217 21.7498 31.7978 21.7498 31.6527C21.7498 31.5075 21.6985 31.3836 21.5959 31.281C21.4932 31.1784 21.3693 31.127 21.2242 31.127C21.079 31.127 20.9551 31.1784 20.8525 31.281C20.7499 31.3836 20.6986 31.5075 20.6986 31.6527ZM20.5714 31.6527C20.5714 31.8376 20.6368 31.9955 20.7676 32.1263C20.8983 32.257 21.0562 32.3224 21.2411 32.3224C21.4261 32.3224 21.5839 32.257 21.7147 32.1263C21.8455 31.9955 21.9109 31.8376 21.9109 31.6527C21.9109 31.4677 21.8455 31.3099 21.7147 31.1791C21.5839 31.0483 21.4261 30.9829 21.2411 30.9829C21.0562 30.9829 20.8983 31.0483 20.7676 31.1791C20.6368 31.3099 20.5714 31.4677 20.5714 31.6527ZM20.4188 31.6612V31.6781C20.4188 31.9467 20.5141 32.1755 20.7049 32.3645C20.8956 32.5536 21.1252 32.6469 21.3937 32.6446H21.682C21.7955 32.6434 21.9057 32.6236 22.0126 32.5852L22.5382 32.3987C22.5789 32.3843 22.6184 32.3673 22.6569 32.3479L23.4284 31.9664C23.4457 31.9555 23.4627 31.9442 23.4793 31.9324L24.4627 31.3729C24.4858 31.3596 24.5085 31.3455 24.5305 31.3305L25.6242 30.5845C25.6299 30.5789 25.6355 30.5732 25.6411 30.5675L26.8196 29.7197C26.8281 29.7142 26.8366 29.7085 26.845 29.7028L28.0488 28.7872C28.0604 28.7761 28.0717 28.7648 28.0828 28.7533L29.2781 27.7613C29.2957 27.745 29.3126 27.728 29.329 27.7105L30.4226 26.6677C30.4463 26.6461 30.4689 26.6235 30.4905 26.5999L31.4485 25.5147C31.4791 25.4798 31.5074 25.4431 31.5332 25.4045L32.2962 24.277C32.3212 24.2417 32.3438 24.2049 32.3641 24.1667L32.9236 23.0477C32.9394 23.0173 32.9535 22.9862 32.966 22.9544L33.3644 21.9032C33.3811 21.8645 33.3953 21.8249 33.4068 21.7845L33.6273 20.8689C33.6469 20.7852 33.6553 20.7004 33.6527 20.6145L33.6273 19.8515C33.6263 19.7407 33.6065 19.6333 33.5679 19.5294L33.339 18.9613C33.3251 18.9205 33.3081 18.8809 33.2881 18.8427L33.0169 18.3764C33.006 18.3619 32.9947 18.3477 32.9829 18.334L32.7201 17.944C32.7174 17.9383 32.7146 17.9327 32.7117 17.9271L32.4743 17.5879C32.4661 17.5764 32.4576 17.5651 32.4488 17.554L32.2115 17.2658C32.2033 17.2543 32.1948 17.2429 32.186 17.2319L31.9826 17.0114C31.9423 16.9638 31.8971 16.9214 31.8469 16.8843L31.635 16.7402C31.572 16.6966 31.5042 16.6627 31.4315 16.6384L31.2196 16.5706C31.1508 16.5468 31.0802 16.5327 31.0076 16.5282L30.8041 16.5197C30.7473 16.5164 30.6908 16.5193 30.6346 16.5282L30.4905 16.5536L30.3972 16.5706C30.3859 16.5704 30.3746 16.5704 30.3633 16.5706L30.2955 16.5876C30.2464 16.5944 30.1983 16.6057 30.1513 16.6215L30.1005 16.6469C30.0338 16.6725 29.9716 16.7065 29.914 16.7486L29.8801 16.7741C29.8022 16.8329 29.7372 16.9036 29.6851 16.986L29.6681 17.0114C29.6378 17.0569 29.6124 17.1049 29.5918 17.1556L29.5749 17.181C29.5098 17.3555 29.5058 17.5314 29.5628 17.7087C29.6198 17.886 29.7255 18.0266 29.8801 18.1305L29.9224 18.1644L30.0411 18.2492L30.2276 18.3933L30.4905 18.6985C30.5243 18.7356 30.561 18.7695 30.6007 18.8003L31.0076 19.1224L31.2959 19.5209L31.4145 20.0041C31.438 20.1024 31.4927 20.1781 31.5788 20.2311C31.6649 20.284 31.7571 20.2988 31.8554 20.2754C31.9537 20.252 32.0294 20.1973 32.0823 20.1112C32.1353 20.0251 32.1501 19.9329 32.1267 19.8346L31.9995 19.3259L32.0165 18.7324L32.0334 18.139C32.0375 17.9304 31.9753 17.7439 31.8469 17.5795L31.5502 17.181C31.4751 17.0865 31.3847 17.0102 31.2789 16.9521L30.9991 16.791C30.8726 16.7205 30.737 16.6838 30.5922 16.6808L30.4566 16.6723H30.4226C30.3559 16.91 30.391 17.1315 30.5279 17.3369C30.6648 17.5423 30.8558 17.6599 31.1009 17.6897L31.1093 17.6642C31.0596 17.7373 31.0228 17.8164 30.9991 17.9016L31.0161 17.8762C30.9504 17.9268 30.8939 17.9861 30.8465 18.0542L30.872 18.0288C30.7759 18.0576 30.6883 18.1029 30.6092 18.1644L30.66 18.1475C30.6685 18.1448 30.677 18.142 30.6855 18.139L30.7533 18.122L30.8041 18.1051H30.7787H30.7702L30.8041 18.122L30.8974 18.1814L31.0415 18.317L31.2365 18.529L31.4315 18.8003L31.6011 19.097L31.7113 19.4192L31.7282 19.8685L31.6943 20.5043L31.5248 21.2673L31.1687 22.1745L30.6007 23.1324L29.8377 24.1244L28.9136 25.1332L27.8708 26.1166L26.7178 27.0662L25.5394 27.9648L24.3779 28.7956L23.3013 29.5332L22.4196 30.1436L21.7498 30.5082L21.3344 30.6862L21.114 30.7455C20.7917 30.8399 20.5769 31.0462 20.4697 31.3644L20.4612 31.3814C20.4316 31.4723 20.4175 31.5656 20.4188 31.6612Z" fill="black"/>
<path d="M12.7862 21.6388L12.7015 21.588C12.677 21.5746 12.6515 21.5633 12.6252 21.554L12.3963 21.4608L12.0487 21.3167L11.5993 21.0793L11.0313 20.7487L10.3785 20.3756L9.65792 19.9178L8.86948 19.4007C8.86386 19.3978 8.85821 19.3949 8.85252 19.3922L8.01322 18.8751C8.01039 18.875 8.00756 18.875 8.00474 18.8751L7.12304 18.3579L6.24983 17.8408L5.419 17.3406L4.66447 16.8234L3.99472 16.2808L3.41823 15.7213L2.97738 15.0939L2.59588 14.4496L2.29067 13.8307L2.10416 13.3136L2.04482 12.983L2.07025 12.8727L2.10416 12.8219L2.29067 12.7117L2.68913 12.6015L3.25715 12.5336L3.97776 12.5167L4.77468 12.5336L5.6479 12.7541L6.49568 12.9745L7.13152 13.3136C7.31931 13.4062 7.46428 13.3612 7.56643 13.1784C7.66857 12.9956 7.63099 12.8485 7.45368 12.7371L6.80088 12.381L6.07179 11.8554C6.04287 11.8322 6.01178 11.8124 5.97853 11.7961L5.07988 11.4146C5.07428 11.4116 5.06863 11.4088 5.06293 11.4061L4.24905 11.0839C4.1805 11.0593 4.10985 11.0452 4.03711 11.0415L3.2741 10.9737C3.22296 10.9715 3.17209 10.9743 3.1215 10.9822L2.45175 11.05C2.40552 11.0572 2.36031 11.0685 2.31611 11.0839L1.76505 11.245C1.70916 11.2588 1.65547 11.2786 1.60397 11.3043L1.19703 11.5332C1.10811 11.5834 1.03181 11.6484 0.968131 11.7282L0.713796 12.0419C0.637285 12.1316 0.583592 12.2333 0.552717 12.3471L0.450983 12.7795C0.427948 12.8657 0.41947 12.9533 0.425549 13.0423L0.476416 13.5934C0.481277 13.6659 0.495407 13.7365 0.518805 13.8053L0.747707 14.4411C0.759917 14.4731 0.774046 14.5042 0.790096 14.5344L1.12921 15.2126C1.14895 15.2511 1.17156 15.2879 1.19703 15.3228L1.68027 15.9926C1.69876 16.0163 1.71854 16.0389 1.73961 16.0604L2.31611 16.6962C2.32717 16.705 2.33847 16.7135 2.35002 16.7217L2.99433 17.349C3.01065 17.3639 3.0276 17.3781 3.0452 17.3914L3.76582 17.9764C3.77953 17.9882 3.79366 17.9995 3.80821 18.0103L4.60512 18.5529C4.61897 18.5619 4.6331 18.5703 4.64751 18.5783L5.50378 19.0955C5.50943 19.0955 5.51508 19.0955 5.52073 19.0955L6.40243 19.6041L7.28412 20.1043L8.14038 20.5961C8.14881 20.599 8.15728 20.6019 8.16582 20.6045L8.99665 21.0369L9.76813 21.4438L10.4379 21.8084C10.4463 21.8114 10.4548 21.8142 10.4633 21.8169L11.0652 22.1136C11.0764 22.1196 11.0877 22.1253 11.0991 22.1305L11.6078 22.334C11.6162 22.337 11.6247 22.3399 11.6333 22.3425L12.0232 22.4697C12.0508 22.4804 12.0791 22.4889 12.108 22.4951L12.3539 22.5375C12.3906 22.5415 12.4273 22.5415 12.4641 22.5375H12.5658C12.8048 22.5249 12.9528 22.4024 13.0098 22.17C13.0668 21.9376 12.9923 21.7605 12.7862 21.6388Z" fill="black"/>
<path d="M4.81706 11.211C4.81706 11.3398 4.86258 11.4497 4.95363 11.5408C5.04467 11.6318 5.15458 11.6773 5.28334 11.6773C5.4121 11.6773 5.522 11.6318 5.61305 11.5408C5.7041 11.4497 5.74962 11.3398 5.74962 11.211C5.74962 11.0823 5.7041 10.9724 5.61305 10.8813C5.522 10.7903 5.4121 10.7448 5.28334 10.7448C5.15458 10.7448 5.04467 10.7903 4.95363 10.8813C4.86258 10.9724 4.81706 11.0823 4.81706 11.211ZM4.74923 11.211C4.74923 11.3585 4.80138 11.4844 4.90567 11.5887C5.00996 11.693 5.13585 11.7452 5.28334 11.7452C5.43083 11.7452 5.55672 11.693 5.66101 11.5887C5.7653 11.4844 5.81744 11.3585 5.81744 11.211C5.81744 11.0636 5.7653 10.9377 5.66101 10.8334C5.55672 10.7291 5.43083 10.6769 5.28334 10.6769C5.13585 10.6769 5.00996 10.7291 4.90567 10.8334C4.80138 10.9377 4.74923 11.0636 4.74923 11.211ZM4.5712 11.2026C4.5712 11.4039 4.64238 11.5758 4.78475 11.7181C4.92711 11.8605 5.09896 11.9317 5.30029 11.9317C5.50163 11.9317 5.67348 11.8605 5.81584 11.7181C5.9582 11.5758 6.02939 11.4039 6.02939 11.2026C6.02939 11.0012 5.9582 10.8294 5.81584 10.687C5.67348 10.5447 5.50163 10.4735 5.30029 10.4735C5.09896 10.4735 4.92711 10.5447 4.78475 10.687C4.64238 10.8294 4.5712 11.0012 4.5712 11.2026ZM4.79162 11.8638L4.99509 12.0673C5.05369 12.1264 5.11869 12.1772 5.19008 12.2199L5.69027 12.5166L6.49567 12.9999L7.48758 13.6188L8.54731 14.4157L9.64943 15.2889L10.6668 16.1112C10.6991 16.1362 10.733 16.1588 10.7685 16.1791L11.7095 16.7471C11.718 16.7501 11.7264 16.7529 11.735 16.7556L12.3878 17.1201L12.7438 17.4931C12.8094 17.5633 12.8902 17.6 12.9861 17.6032C13.0821 17.6065 13.1651 17.5754 13.2353 17.5098C13.3055 17.4443 13.3423 17.3636 13.3456 17.2677C13.349 17.1717 13.318 17.0886 13.2525 17.0184L12.8964 16.6369L12.5658 15.9586C12.5579 15.9442 12.5494 15.93 12.5404 15.9162L11.9639 14.9752C11.9295 14.9229 11.8899 14.8749 11.8452 14.8311L10.9465 13.8816C10.9302 13.864 10.9133 13.847 10.8957 13.8307L9.82746 12.8727C9.81097 12.858 9.79402 12.8439 9.77659 12.8303L8.69991 11.9741C8.68329 11.9622 8.66633 11.9509 8.64904 11.9401L7.64866 11.2365C7.62119 11.2182 7.59293 11.2012 7.56388 11.1856L6.73305 10.7193C6.69455 10.6999 6.65498 10.6829 6.61436 10.6685L6.07178 10.4396C5.9682 10.3989 5.86081 10.3763 5.74962 10.3717L5.45289 10.3548C5.04849 10.3351 4.76503 10.5107 4.60253 10.8816C4.44002 11.2524 4.50305 11.5798 4.79162 11.8638Z" fill="black"/>
<path d="M12.7439 17.0014C12.7439 17.1208 12.7861 17.2228 12.8705 17.3072C12.9549 17.3916 13.0568 17.4338 13.1762 17.4338C13.2956 17.4338 13.3975 17.3916 13.482 17.3072C13.5664 17.2228 13.6086 17.1208 13.6086 17.0014C13.6086 16.882 13.5664 16.7801 13.482 16.6957C13.3975 16.6113 13.2956 16.5691 13.1762 16.5691C13.0568 16.5691 12.9549 16.6113 12.8705 16.6957C12.7861 16.7801 12.7439 16.882 12.7439 17.0014ZM13.5493 17.3321L13.5832 17.2982C13.6878 17.1858 13.7443 17.053 13.7527 16.8997L13.7612 16.6708C13.7656 16.5497 13.743 16.4338 13.6934 16.3232L13.5153 15.9078C13.4979 15.8725 13.4781 15.8386 13.456 15.8061L13.0915 15.2126C13.0887 15.2069 13.0859 15.2013 13.083 15.1957L12.5913 14.4327C12.5885 14.427 12.5857 14.4213 12.5828 14.4157L11.9809 13.534L11.362 12.5506L10.7092 11.5163L10.0818 10.4226L9.49685 9.30357L8.99666 8.23536L8.63211 7.26041L8.39473 6.41262L8.31843 5.78526L8.36082 5.36985L8.45407 5.11551L8.56429 4.98835L8.69145 4.90357L8.81014 4.86118L8.96274 4.8527L9.2086 4.90357L9.53924 5.03921L9.92922 5.25964L10.4125 5.64114L11.0229 6.24307L11.7096 7.09933L12.4556 8.20145L13.2017 9.43921L13.8968 10.6855C13.8996 10.6911 13.9024 10.6968 13.9053 10.7024L14.5581 11.83C14.5785 11.8653 14.6011 11.8993 14.6259 11.9317L15.2618 12.7625C15.2726 12.7771 15.2839 12.7912 15.2957 12.8049L15.8044 13.3899C15.83 13.4183 15.8582 13.4437 15.8891 13.4662L16.2198 13.712L16.33 13.9155C16.4414 14.0928 16.5885 14.1304 16.7713 14.0283C16.9541 13.9261 16.9991 13.7811 16.9065 13.5934L16.8047 13.3984L16.7708 12.9914C16.7707 12.9601 16.7678 12.929 16.7624 12.8982L16.5843 12.1436C16.5818 12.1323 16.5789 12.121 16.5758 12.1097L16.2791 11.0924C16.2657 11.0459 16.2487 11.0007 16.2283 10.9567L15.6772 9.77833C15.669 9.76684 15.6605 9.75554 15.6518 9.74442L14.9905 8.45578C14.985 8.44722 14.9793 8.43874 14.9735 8.43035L14.2444 7.13324C14.2364 7.11605 14.2279 7.0991 14.219 7.08237L13.4645 5.89548C13.4461 5.86625 13.4263 5.83799 13.4051 5.8107L12.6676 4.86118C12.6387 4.82527 12.6076 4.79136 12.5743 4.75945L11.8706 4.07274C11.8336 4.03593 11.794 4.00201 11.752 3.97101L11.1331 3.52168C11.0848 3.48629 11.034 3.4552 10.9805 3.42842L10.4548 3.16561C10.4028 3.1414 10.3491 3.12161 10.2938 3.10627L9.80205 2.95367C9.73291 2.93199 9.66226 2.91786 9.59011 2.91128L9.1323 2.87736C9.04716 2.86923 8.96238 2.87205 8.87797 2.88584L8.47103 2.95367C8.41004 2.96486 8.35069 2.98182 8.293 3.00453L7.91997 3.14018C7.84768 3.16866 7.77986 3.2054 7.7165 3.25039L7.36891 3.48777C7.28774 3.54463 7.21709 3.61245 7.15697 3.69124L6.86872 4.06426C6.82004 4.12981 6.78048 4.20046 6.75003 4.27621L6.53808 4.7764C6.50213 4.8635 6.47953 4.95393 6.47026 5.04769L6.39396 5.68353C6.38553 5.757 6.38553 5.83048 6.39396 5.90395L6.48722 6.70935C6.49205 6.75803 6.50052 6.80607 6.51265 6.85347L6.77546 7.81147C6.78238 7.84298 6.79086 7.87406 6.8009 7.90472L7.20783 8.95598C7.21565 8.97604 7.22413 8.99582 7.23327 9.01532L7.75889 10.1429C7.76687 10.1601 7.77535 10.177 7.78433 10.1937L8.39473 11.3382C8.40016 11.3497 8.40581 11.361 8.41169 11.3722L9.07296 12.4912C9.07847 12.4998 9.08412 12.5083 9.08991 12.5167L9.75118 13.5679C9.75399 13.5708 9.75682 13.5736 9.75966 13.5764L10.3955 14.5683C10.401 14.5769 10.4067 14.5854 10.4125 14.5937L11.0313 15.4754C11.0369 15.484 11.0425 15.4925 11.0483 15.5009L11.5909 16.23C11.5991 16.2415 11.6076 16.2528 11.6163 16.2639L12.0656 16.8065C12.0765 16.8209 12.0878 16.8351 12.0995 16.8488L12.4132 17.171C12.479 17.2417 12.5553 17.2982 12.6421 17.3406L12.8371 17.4338C12.9198 17.4756 13.0074 17.4982 13.0999 17.5016H13.1423C13.3036 17.5066 13.4392 17.4501 13.5493 17.3321Z" fill="black"/>
<path d="M16.0078 12.9829C16.0078 13.1187 16.0558 13.2346 16.1518 13.3306C16.2478 13.4267 16.3637 13.4747 16.4995 13.4747C16.6353 13.4747 16.7512 13.4267 16.8472 13.3306C16.9432 13.2346 16.9912 13.1187 16.9912 12.9829C16.9912 12.8472 16.9432 12.7313 16.8472 12.6352C16.7512 12.5392 16.6353 12.4912 16.4995 12.4912C16.3637 12.4912 16.2478 12.5392 16.1518 12.6352C16.0558 12.7313 16.0078 12.8472 16.0078 12.9829ZM15.9823 12.9829C15.9825 13.1233 16.0323 13.243 16.1316 13.3422C16.2309 13.4413 16.3507 13.4909 16.491 13.4909C16.6313 13.4909 16.7512 13.4413 16.8505 13.3422C16.9498 13.243 16.9995 13.1233 16.9997 12.9829C16.9995 12.8426 16.9498 12.7229 16.8505 12.6237C16.7512 12.5246 16.6313 12.475 16.491 12.475C16.3507 12.475 16.2309 12.5246 16.1316 12.6237C16.0323 12.7229 15.9825 12.8426 15.9823 12.9829ZM15.9484 12.9914C15.9484 13.1389 16.0006 13.2648 16.1049 13.3691C16.2092 13.4734 16.3351 13.5255 16.4825 13.5255C16.63 13.5255 16.7559 13.4734 16.8602 13.3691C16.9645 13.2648 17.0166 13.1389 17.0166 12.9914C17.0166 12.8439 16.9645 12.718 16.8602 12.6138C16.7559 12.5095 16.63 12.4573 16.4825 12.4573C16.3351 12.4573 16.2092 12.5095 16.1049 12.6138C16.0006 12.718 15.9484 12.8439 15.9484 12.9914ZM17.0082 13.1525L17.0336 13.0762L17.1184 12.8473C17.153 12.7573 17.17 12.664 17.1692 12.5675L17.1523 12.008C17.1497 11.9652 17.1441 11.9228 17.1353 11.8808L16.9827 11.0246C16.9831 11.0104 16.9831 10.9963 16.9827 10.9822L16.7369 9.8631L16.4571 8.50665L16.1604 7.00607L15.94 5.50549L15.8128 4.18295L15.8043 3.11474L15.9145 2.4026L16.0926 2.00414L16.296 1.78372L16.5504 1.62264L16.8386 1.53786H17.1184L17.4066 1.62264L17.6779 1.78372L17.9577 2.05501L18.2968 2.56368L18.7461 3.36907L19.2548 4.40337L19.7889 5.63266L20.34 6.9552C20.3481 6.96953 20.3566 6.98366 20.3654 6.99759L20.9588 8.24383C20.9692 8.26689 20.9805 8.2895 20.9928 8.31165L21.6032 9.34595C21.6136 9.36623 21.6249 9.38602 21.6371 9.4053L22.2051 10.1937L22.5781 10.7533L22.7222 11.1687C22.7528 11.2551 22.8094 11.3182 22.8921 11.3578C22.9748 11.3974 23.0594 11.402 23.1459 11.3716C23.2324 11.3412 23.2956 11.2847 23.3353 11.2021C23.3751 11.1194 23.3798 11.0348 23.3496 10.9483L23.2055 10.5244L23.1292 9.85462L23.0274 8.87967C23.0269 8.84557 23.024 8.81166 23.019 8.77794L22.7392 7.61647C22.7346 7.59081 22.7289 7.56537 22.7222 7.54017L22.3068 6.22611C22.2991 6.2032 22.2906 6.1806 22.2814 6.15828L21.7473 4.82726C21.7418 4.81586 21.7362 4.80455 21.7303 4.79335L21.1793 3.53863C21.169 3.51275 21.1577 3.48732 21.1454 3.46233L20.5773 2.4026C20.557 2.36445 20.5344 2.32771 20.5095 2.29239L19.95 1.47852C19.9079 1.41951 19.8598 1.36582 19.8059 1.31744L19.2633 0.817245C19.2213 0.779048 19.1761 0.745136 19.1276 0.71551L18.6274 0.40183C18.5789 0.374085 18.528 0.351478 18.4748 0.334008L17.9916 0.155973C17.9529 0.141562 17.9134 0.130259 17.8729 0.122062L17.3727 0.0203276C17.3249 0.012935 17.2769 0.0101101 17.2286 0.0118498H16.7284C16.6801 0.0101101 16.632 0.012935 16.5843 0.0203276L16.0841 0.113584C16.0315 0.125322 15.9806 0.142278 15.9315 0.164451L15.4482 0.359441C15.3421 0.402342 15.2489 0.464514 15.1685 0.545954L14.7785 0.935934C14.7119 1.00316 14.6582 1.07946 14.6174 1.16484L14.3207 1.7922C14.2872 1.86528 14.2646 1.94158 14.2529 2.0211L14.1087 2.91975C14.0999 2.96171 14.0943 3.0041 14.0918 3.04692L14.0833 4.21686C14.085 4.24242 14.0878 4.26785 14.0918 4.29316L14.1935 5.68352C14.196 5.69772 14.1988 5.71185 14.202 5.72591L14.3885 7.26888C14.3885 7.27171 14.3885 7.27453 14.3885 7.27736L14.6005 8.82032C14.6028 8.83736 14.6056 8.85431 14.6089 8.87119L14.8718 10.2361C14.8744 10.2475 14.8772 10.2588 14.8802 10.27L15.143 11.3976C15.1476 11.4233 15.1533 11.4487 15.16 11.4739L15.4313 12.3047C15.4453 12.3455 15.4623 12.3851 15.4822 12.4234L15.7195 12.9236C15.7552 12.9927 15.8005 13.0549 15.8552 13.1101L15.9993 13.2627L16.0332 13.3051C16.1649 13.4908 16.3431 13.566 16.568 13.5308C16.7928 13.4956 16.9396 13.3695 17.0082 13.1525Z" fill="black"/>
<path d="M13.2804 22.7489C13.2804 22.8753 13.3251 22.9832 13.4145 23.0726C13.5039 23.162 13.6118 23.2067 13.7382 23.2067C13.8647 23.2067 13.9726 23.162 14.062 23.0726C14.1513 22.9832 14.196 22.8753 14.196 22.7489C14.196 22.6225 14.1513 22.5146 14.062 22.4252C13.9726 22.3358 13.8647 22.2911 13.7382 22.2911C13.6118 22.2911 13.5039 22.3358 13.4145 22.4252C13.3251 22.5146 13.2804 22.6225 13.2804 22.7489ZM14.1876 22.52L14.1537 22.4522C14.1174 22.3734 14.0666 22.3055 14.0011 22.2487L13.8485 22.1215C13.8166 22.0959 13.7827 22.0733 13.7467 22.0537L13.4924 21.9096C13.4078 21.8614 13.3174 21.8303 13.2211 21.8163L12.8226 21.757C12.7608 21.7471 12.6986 21.7442 12.6361 21.7485L12.1105 21.7909C12.0821 21.7923 12.0538 21.7952 12.0257 21.7994L11.3644 21.9181C11.3243 21.924 11.2848 21.9325 11.2458 21.9435L10.4828 22.1809C10.4685 22.1862 10.4544 22.1919 10.4404 22.1978L9.63497 22.4861L8.82957 22.7574C8.81532 22.7627 8.80119 22.7684 8.78718 22.7743L8.0157 23.0795C7.96889 23.099 7.92367 23.1216 7.88005 23.1474L7.17639 23.5373C7.12238 23.5697 7.07151 23.6065 7.02379 23.6475L6.45578 24.1054C6.39307 24.1557 6.33655 24.2122 6.28622 24.2749L5.87928 24.8005C5.82119 24.8736 5.77315 24.9527 5.73516 25.0379L5.4893 25.5975C5.43619 25.7163 5.40511 25.8406 5.39605 25.9705L5.34518 26.5809C5.33879 26.7048 5.35292 26.8263 5.38757 26.9454L5.54865 27.5728C5.57323 27.6559 5.60714 27.735 5.65038 27.8102L5.98102 28.4291C6.01529 28.4893 6.05486 28.5458 6.09971 28.5986L6.56599 29.1751C6.61918 29.2381 6.67853 29.2946 6.74402 29.3447L7.35443 29.8194C7.41778 29.869 7.48561 29.9113 7.5579 29.9466L8.30395 30.3111C8.37722 30.3476 8.45352 30.3758 8.53285 30.3959L9.43998 30.6163C9.51791 30.636 9.59704 30.6473 9.67736 30.6502L10.771 30.6757C10.8419 30.6795 10.9126 30.6767 10.9829 30.6672L12.2461 30.4637C12.2919 30.458 12.3371 30.4495 12.3818 30.4383L13.7298 30.0483C13.8004 30.0269 13.8682 29.9986 13.9332 29.9635L15.154 29.3277C15.2248 29.2908 15.2898 29.2455 15.349 29.1921L16.2562 28.3867C16.259 28.3839 16.2618 28.381 16.2646 28.3782L16.9683 27.7169L17.5533 27.3185C17.7026 27.1879 17.7223 27.0401 17.6123 26.875C17.5022 26.7099 17.3582 26.6712 17.1802 26.7589L16.6122 27.1319L15.739 27.3863L14.5775 27.5728C14.549 27.5771 14.5208 27.5828 14.4928 27.5897L13.1617 27.9204L11.8562 28.2425L10.7456 28.3951L9.87235 28.3697L9.19412 28.2002L8.66002 27.9373L8.20221 27.6067L7.85462 27.2337L7.64268 26.8607L7.5579 26.547L7.57485 26.3265L7.69354 26.0722L7.95636 25.7331L8.37177 25.377L8.94826 25.004L9.60953 24.6564L10.3386 24.3258L11.1271 24.0206L11.8646 23.7323C11.8761 23.7269 11.8874 23.7213 11.8986 23.7154L12.4496 23.478L12.8481 23.3847L13.1787 23.3508L13.45 23.3339C13.4671 23.3317 13.484 23.3289 13.5009 23.3254L13.6874 23.3C13.7689 23.2901 13.8452 23.2647 13.9163 23.2237L13.9841 23.1813C14.0976 23.1133 14.1738 23.0161 14.2127 22.8897C14.2516 22.7632 14.2432 22.64 14.1876 22.52Z" fill="black"/>
</g>
<defs>
<clipPath id="clip0_1_7258">
<rect width="34" height="33" fill="white"/>
</clipPath>
</defs>
</svg>
