<svg width="29" height="38" viewBox="0 0 29 38" fill="none" xmlns="http://www.w3.org/2000/svg">
<g clip-path="url(#clip0_1_7430)">
<path d="M3.35428 2.87452C3.35428 2.96601 3.38663 3.0441 3.45132 3.1088C3.51601 3.17349 3.5941 3.20584 3.68559 3.20584C3.77708 3.20584 3.85517 3.17349 3.91987 3.1088C3.98456 3.0441 4.01691 2.96601 4.01691 2.87452C4.01691 2.78303 3.98456 2.70494 3.91987 2.64025C3.85517 2.57556 3.77708 2.54321 3.68559 2.54321C3.5941 2.54321 3.51601 2.57556 3.45132 2.64025C3.38663 2.70494 3.35428 2.78303 3.35428 2.87452ZM3.4543 3.18708L3.47305 3.19958C3.44759 3.16081 3.41634 3.12747 3.37928 3.09957L3.39804 3.12457C3.46596 3.227 3.56041 3.28906 3.68139 3.31076C3.80237 3.33245 3.9125 3.30707 4.01178 3.23462C4.11106 3.16217 4.16882 3.06503 4.18507 2.9432C4.20131 2.82137 4.17102 2.71249 4.09418 2.61656C4.01735 2.52063 3.91772 2.46728 3.79529 2.45652C3.67285 2.44576 3.56544 2.48091 3.47305 2.56196L3.4543 2.58072C3.52996 2.56862 3.59664 2.53736 3.65434 2.48695H3.62933C3.45455 2.50955 3.34578 2.60634 3.30304 2.77732C3.26029 2.9483 3.31071 3.08489 3.4543 3.18708ZM3.43555 3.20584L3.49181 3.26835C3.56346 3.35658 3.65306 3.4191 3.76061 3.45588L3.94814 3.51839C4.00307 3.53602 4.05933 3.54644 4.11692 3.54965L4.46699 3.5684C4.51283 3.57252 4.55868 3.57252 4.60452 3.5684L5.12962 3.49964C5.1442 3.50003 5.15879 3.50003 5.17338 3.49964L5.91102 3.36837C5.91518 3.3684 5.91935 3.3684 5.92352 3.36837L6.81744 3.19958C6.81952 3.19959 6.82161 3.19959 6.82369 3.19958L7.81763 3.0058L8.91159 2.82451L10.1556 2.64323L11.5371 2.4807L13.0311 2.34942L14.5752 2.28066L16.188 2.28691L17.8445 2.34942L19.4886 2.46819L20.9826 2.62447L22.3141 2.82451L23.4706 3.0433C23.4727 3.04331 23.4748 3.04331 23.4769 3.0433L24.4958 3.22459C24.4979 3.2246 24.5 3.2246 24.5021 3.22459L25.371 3.38087C25.4436 3.39319 25.5165 3.39527 25.5898 3.38712L26.2336 3.31836L26.6775 3.30585L26.9713 3.43713C27.094 3.46518 27.1813 3.42193 27.2334 3.30737C27.2855 3.1928 27.2606 3.09853 27.1588 3.02455L26.8588 2.88702L26.5462 2.54321C26.5421 2.53896 26.5379 2.53479 26.5337 2.53071L26.0711 2.05562C26.0039 1.98738 25.9268 1.9332 25.8398 1.89309L25.0397 1.51801C25.0111 1.50398 24.982 1.49147 24.9521 1.48051L23.9707 1.14294C23.9338 1.13029 23.8963 1.11987 23.8582 1.11169L22.6892 0.861639C22.6685 0.856807 22.6477 0.85264 22.6267 0.849137L21.2577 0.636596C21.2452 0.634276 21.2327 0.632193 21.2202 0.630345L19.6886 0.461563C19.6762 0.459243 19.6637 0.457159 19.6511 0.455312L17.9758 0.336539C17.9654 0.336377 17.955 0.336377 17.9446 0.336539L16.2505 0.267776C16.238 0.265458 16.2255 0.263374 16.213 0.261525L14.5627 0.255274C14.5439 0.254753 14.5252 0.254753 14.5064 0.255274L12.9123 0.336539C12.8936 0.336018 12.8748 0.336018 12.8561 0.336539L11.337 0.49907C11.3245 0.498834 11.312 0.498834 11.2995 0.49907L9.89302 0.692857C9.88466 0.694831 9.87633 0.696915 9.86802 0.699108L8.60528 0.899146C8.5885 0.902873 8.57183 0.907041 8.55527 0.911649L7.44881 1.14919C7.44254 1.15121 7.43629 1.1533 7.43006 1.15545L6.42987 1.39924C6.41941 1.40115 6.40899 1.40323 6.39861 1.40549L5.52344 1.64929C5.51508 1.65125 5.50674 1.65333 5.49844 1.65554L4.7858 1.87433C4.76463 1.88182 4.74379 1.89016 4.72329 1.89934L4.22945 2.09312C4.21247 2.10085 4.1958 2.10919 4.17944 2.11813L3.86688 2.26191C3.85629 2.26788 3.84587 2.27413 3.83562 2.28066L3.66684 2.37443C3.61617 2.40114 3.57033 2.43447 3.52931 2.47445L3.47305 2.53071C3.38158 2.62196 3.33226 2.73209 3.32509 2.86109C3.31793 2.9901 3.35474 3.10501 3.43555 3.20584Z" fill="black"/>
<path d="M3.78577 3.14332C3.78577 3.2538 3.82483 3.3481 3.90295 3.42622C3.98107 3.50434 4.07536 3.5434 4.18584 3.5434C4.29632 3.5434 4.39062 3.50434 4.46874 3.42622C4.54686 3.3481 4.58592 3.2538 4.58592 3.14332C4.58592 3.03285 4.54686 2.93855 4.46874 2.86043C4.39062 2.78231 4.29632 2.74325 4.18584 2.74325C4.07536 2.74325 3.98107 2.78231 3.90295 2.86043C3.82483 2.93855 3.78577 3.03285 3.78577 3.14332ZM4.59842 3.04956L4.58592 2.99955C4.57022 2.93262 4.54104 2.87219 4.4984 2.81826L4.47965 2.79326L4.46089 2.76825C4.41563 2.70232 4.35755 2.65087 4.28664 2.61389C4.21573 2.57691 4.14029 2.55873 4.06032 2.55935C3.98035 2.55998 3.90521 2.57933 3.83488 2.6174C3.76456 2.65548 3.70728 2.70783 3.66305 2.77446C3.61882 2.84109 3.59281 2.91419 3.58501 2.99379C3.57722 3.07338 3.58856 3.15014 3.61903 3.22408C3.6495 3.29802 3.69554 3.36049 3.75715 3.41148C3.81875 3.46247 3.88872 3.49603 3.96705 3.51214L4.01081 3.52465C3.9531 3.48022 3.88851 3.45105 3.81702 3.43713L3.85453 3.46213C3.90845 3.50478 3.96888 3.53395 4.03581 3.54965L4.08582 3.56215C4.15773 3.57943 4.22928 3.57802 4.30046 3.55795C4.37164 3.53788 4.43338 3.5017 4.48567 3.4494C4.53797 3.39711 4.57415 3.33537 4.59422 3.26419C4.61429 3.19301 4.61569 3.12147 4.59842 3.04956ZM3.47946 3.02455C3.47946 3.17473 3.53255 3.30292 3.63875 3.40911C3.74494 3.51531 3.87313 3.56841 4.02331 3.56841C4.17349 3.56841 4.30168 3.51531 4.40787 3.40911C4.51407 3.30292 4.56716 3.17473 4.56716 3.02455C4.56716 2.87437 4.51407 2.74618 4.40787 2.63999C4.30168 2.5338 4.17349 2.4807 4.02331 2.4807C3.87313 2.4807 3.74494 2.5338 3.63875 2.63999C3.53255 2.74618 3.47946 2.87437 3.47946 3.02455ZM3.36694 3.0183C3.36699 3.18915 3.42744 3.33498 3.54827 3.45577C3.66911 3.57656 3.81495 3.63695 3.9858 3.63695C4.15666 3.63695 4.3025 3.57656 4.42333 3.45577C4.54417 3.33498 4.60461 3.18915 4.60467 3.0183C4.60461 2.84745 4.54417 2.70162 4.42333 2.58083C4.3025 2.46004 4.15666 2.39965 3.9858 2.39965C3.81495 2.39965 3.66911 2.46004 3.54827 2.58083C3.42744 2.70162 3.367 2.84745 3.36694 3.0183ZM3.9608 2.34942H3.91704C3.78106 2.34459 3.65395 2.37585 3.53572 2.44319L3.47321 2.4807C3.42359 2.50885 3.37775 2.54219 3.33568 2.58072L3.23566 2.67448C3.16611 2.73953 3.10985 2.81455 3.06688 2.89953L2.94811 3.13082C2.92173 3.18287 2.9009 3.23705 2.88559 3.29335L2.77307 3.71218C2.76619 3.73073 2.75994 3.74948 2.75432 3.76844L2.6293 4.39356C2.62923 4.39981 2.62923 4.40606 2.6293 4.41232L2.47927 5.24372C2.47693 5.25618 2.47485 5.26869 2.47302 5.28123L2.32924 6.30017C2.32921 6.30434 2.32921 6.30851 2.32924 6.31268L2.19171 7.42539C2.19171 7.42747 2.19171 7.42956 2.19171 7.43164L2.05419 8.59436C2.05209 8.59644 2.05001 8.59852 2.04794 8.60061L1.91666 9.80084C1.91664 9.80501 1.91664 9.80918 1.91666 9.81334L1.79789 11.0323C1.79786 11.0365 1.79786 11.0407 1.79789 11.0448L1.69787 12.2638C1.69781 12.2701 1.69781 12.2763 1.69787 12.2826L1.6166 13.5078C1.6166 13.5099 1.6166 13.512 1.6166 13.514L1.54784 14.733L1.45407 15.9458L1.35405 17.171C1.35405 17.1731 1.35405 17.1752 1.35405 17.1772L1.26029 18.3587C1.25803 18.3691 1.25595 18.3795 1.25403 18.39L1.20402 19.4964C1.20348 19.5152 1.20348 19.5339 1.20402 19.5527L1.21653 20.5404C1.21725 20.6101 1.22558 20.6788 1.24153 20.7467L1.44157 21.5718C1.45777 21.6398 1.48277 21.7044 1.51658 21.7656L1.83539 22.3407L2.04168 22.7533L2.09794 23.0596C2.14737 23.2271 2.25808 23.2958 2.43007 23.2659C2.60207 23.236 2.68306 23.1339 2.67305 22.9596L2.62304 22.6595L2.69806 22.247L2.91685 21.6531C2.93362 21.6084 2.94612 21.5626 2.95436 21.5156L3.09188 20.6842C3.09912 20.6407 3.10328 20.5969 3.10439 20.5529L3.12939 19.5777L3.18565 18.4962L3.27942 17.3273L3.37944 16.0958L3.47321 14.8706C3.47532 14.8664 3.4774 14.8622 3.47946 14.8581L3.55447 13.6328L3.63574 12.4201L3.73576 11.2074L3.84203 10.0009L3.9733 8.81315L4.10458 7.65668L4.2421 6.55022C4.24217 6.54397 4.24217 6.53772 4.2421 6.53147L4.35462 5.51253C4.35469 5.50627 4.35469 5.50002 4.35462 5.49377L4.42964 4.66861L4.4984 4.056L4.56091 3.63717C4.56104 3.62883 4.56104 3.6205 4.56091 3.61216L4.59217 3.35586C4.59237 3.34545 4.59237 3.33503 4.59217 3.32461L4.59842 3.24334L4.60467 3.21834C4.60749 3.19967 4.60958 3.18091 4.61092 3.16208L4.61717 3.11832C4.64316 2.91828 4.59068 2.74155 4.45971 2.58813C4.32874 2.43471 4.16244 2.35514 3.9608 2.34942Z" fill="black"/>
<path d="M27.3085 2.93071L27.296 2.92446C27.3118 2.93629 27.3284 2.94671 27.346 2.95572L27.3272 2.94322C27.3439 3.03078 27.3877 3.10162 27.4585 3.15576L27.4523 3.13075C27.4513 3.15808 27.4534 3.18516 27.4585 3.21202L27.4648 3.18076C27.4657 3.15344 27.4636 3.12635 27.4585 3.0995L27.4398 3.00573C27.4205 3.06512 27.4163 3.12554 27.4273 3.18701L27.4398 3.1495C27.4819 3.01167 27.4562 2.88796 27.3625 2.77838C27.2689 2.66881 27.1507 2.62413 27.008 2.64434C26.8652 2.66455 26.7641 2.74028 26.7045 2.87155C26.645 3.00282 26.6546 3.12881 26.7334 3.24952L26.7521 3.29953C26.7561 3.30591 26.7603 3.31216 26.7646 3.31829L26.7771 3.34954C26.7917 3.38143 26.8104 3.41061 26.8334 3.43706L26.8522 3.46206C26.8762 3.48691 26.9032 3.50775 26.9334 3.52458L26.9522 3.53708C27.0644 3.60591 27.179 3.61008 27.296 3.54958L27.3085 3.54333C27.4336 3.47955 27.4962 3.37745 27.4962 3.23702C27.4962 3.0966 27.4336 2.99449 27.3085 2.93071ZM26.5896 2.99323C26.5896 3.12614 26.6366 3.2396 26.7306 3.33358C26.8246 3.42757 26.938 3.47457 27.0709 3.47457C27.2039 3.47457 27.3173 3.42757 27.4113 3.33358C27.5053 3.2396 27.5523 3.12614 27.5523 2.99323C27.5523 2.86031 27.5053 2.74685 27.4113 2.65287C27.3173 2.55888 27.2039 2.51188 27.0709 2.51188C26.938 2.51188 26.8246 2.55888 26.7306 2.65287C26.6366 2.74685 26.5896 2.86031 26.5896 2.99323ZM27.471 3.35579L27.5148 3.31204C27.5278 3.3001 27.5403 3.2876 27.5523 3.27453L27.596 3.22452C27.6094 3.2085 27.6219 3.19183 27.6336 3.17451L27.6773 3.11825C27.6161 3.1588 27.564 3.20881 27.521 3.26828L27.5648 3.23702C27.4221 3.22525 27.2908 3.25859 27.171 3.33704L27.2085 3.34329C27.1424 3.31536 27.0737 3.29869 27.0022 3.29328L27.0272 3.30578C27.027 3.0107 26.8916 2.80441 26.6209 2.68692V2.76193C26.6209 2.76401 26.6209 2.7661 26.6209 2.76818V2.99323C26.6208 2.99948 26.6208 3.00573 26.6209 3.01198L26.6396 3.43706L26.6584 4.03717L26.6271 4.82482L26.5708 5.80626C26.5708 5.81043 26.5708 5.8146 26.5708 5.81876L26.5208 7.01274C26.5187 7.01689 26.5166 7.02106 26.5146 7.02524L26.4771 8.35049C26.4771 8.35258 26.4771 8.35466 26.4771 8.35675L26.4521 9.74451C26.452 9.75076 26.452 9.75701 26.4521 9.76326L26.4583 11.1198L26.4646 12.3638L26.4521 13.4827L26.4271 14.4892L26.3833 15.4268L26.3146 16.2895L26.2395 17.1147C26.2374 17.1209 26.2353 17.1271 26.2333 17.1334L26.177 17.9273C26.177 17.9336 26.177 17.9398 26.177 17.9461L26.1395 18.715C26.1395 18.7191 26.1395 18.7233 26.1395 18.7275L26.1145 19.4714C26.1145 19.4755 26.1145 19.4797 26.1145 19.4839L26.102 20.209C26.102 20.2111 26.102 20.2132 26.102 20.2153L26.0958 20.9341V21.6593C26.0957 21.6655 26.0957 21.6718 26.0958 21.678L26.102 22.3844C26.104 22.3928 26.106 22.4011 26.1083 22.4094L26.1333 23.047C26.1346 23.0659 26.1367 23.0846 26.1395 23.1033L26.2083 23.6347C26.2115 23.6536 26.2157 23.6724 26.2208 23.6909L26.3083 24.091L26.3583 24.4098C26.3664 24.4518 26.381 24.4914 26.4021 24.5286L26.4521 24.6286L26.4458 24.6911C26.4547 24.8365 26.5315 24.9181 26.6761 24.9357C26.8207 24.9534 26.9149 24.8927 26.9584 24.7536L26.9709 24.6911L27.0459 24.5973C27.0795 24.5585 27.1045 24.5147 27.121 24.4661L27.2147 24.1598L27.3585 23.7722C27.3682 23.7498 27.3766 23.7268 27.3835 23.7034L27.5148 23.1846C27.5205 23.1577 27.5247 23.1306 27.5273 23.1033L27.6085 22.4657C27.609 22.4511 27.609 22.4365 27.6085 22.4219L27.6586 21.7218C27.6589 21.7093 27.6589 21.6968 27.6586 21.6843L27.6836 20.9591C27.6836 20.955 27.6836 20.9508 27.6836 20.9466L27.6898 20.234L27.7023 19.5151L27.7273 18.7837L27.7648 18.0336L27.8211 17.2459L27.8773 16.4145L27.9461 15.5394C27.9462 15.5331 27.9462 15.5269 27.9461 15.5206L27.9961 14.5642C27.9983 14.5559 28.0004 14.5475 28.0024 14.5392L28.0274 13.514C28.0274 13.5098 28.0274 13.5056 28.0274 13.5015L28.0399 12.3763L28.0711 11.151L28.1524 9.80702C28.1524 9.80285 28.1524 9.79869 28.1524 9.79452L28.2149 8.41301C28.2149 8.41092 28.2149 8.40884 28.2149 8.40676L28.2649 7.0815C28.265 7.07525 28.265 7.069 28.2649 7.06275L28.2837 5.86877C28.2839 5.85627 28.2839 5.84377 28.2837 5.83127L28.2524 4.83733C28.2525 4.83107 28.2525 4.82482 28.2524 4.81857L28.2087 4.00592L28.1774 3.37455C28.1757 3.3599 28.1737 3.34532 28.1712 3.33079L28.1274 2.89946C28.1225 2.84626 28.1121 2.79417 28.0961 2.74318L28.0274 2.53064C27.9686 2.35449 27.8582 2.22113 27.6961 2.13056L27.6336 2.09305C27.3475 1.92808 27.0829 1.95725 26.8397 2.18057L26.8146 2.19932C26.6903 2.31179 26.6195 2.4514 26.6021 2.61815V2.64941C26.6083 2.62053 26.6125 2.59136 26.6146 2.56189L26.6021 2.6119C26.6204 2.57585 26.635 2.53835 26.6459 2.49938L26.6146 2.56189C26.6146 2.56398 26.6146 2.56606 26.6146 2.56814L26.5834 2.6244C26.5388 2.7174 26.5201 2.81534 26.5271 2.91821L26.5333 2.97447C26.5433 3.21268 26.6588 3.37669 26.8796 3.4665C27.1005 3.55632 27.2976 3.51941 27.471 3.35579Z" fill="black"/>
<path d="M1.94747 20.3969C1.94747 20.6094 2.05374 20.7157 2.26628 20.7157C2.47882 20.7157 2.58509 20.6094 2.58509 20.3969C2.58509 20.1843 2.47882 20.0781 2.26628 20.0781C2.05374 20.0781 1.94747 20.1843 1.94747 20.3969ZM2.3663 19.9593L2.34129 19.953C2.28579 19.9387 2.22953 19.9345 2.17251 19.9405L2.11625 19.9468C2.22745 20.1214 2.38582 20.1964 2.59134 20.1718L2.57884 20.1531C2.48223 19.9974 2.34265 19.9114 2.1601 19.8951C1.97755 19.8789 1.82499 19.9389 1.70242 20.0752C1.57985 20.2114 1.53625 20.3694 1.57162 20.5493C1.607 20.7291 1.70721 20.8588 1.87225 20.9385C2.0373 21.0182 2.20122 21.0159 2.36402 20.9317C2.52682 20.8476 2.62343 20.7151 2.65385 20.5344L2.6601 20.5157C2.54708 20.5933 2.47832 20.6996 2.45382 20.8345L2.49757 20.8095C2.55137 20.7707 2.59512 20.7228 2.62885 20.6657L2.64135 20.6469C2.72493 20.5154 2.73778 20.3773 2.67991 20.2327C2.62205 20.088 2.51751 19.9969 2.3663 19.9593ZM1.60365 20.0468L1.53489 20.1156C1.43647 20.213 1.37396 20.3297 1.34735 20.4656L1.3161 20.6219C1.30354 20.6839 1.29937 20.7464 1.3036 20.8095L1.3286 21.0408C1.32916 21.068 1.33124 21.0951 1.33485 21.122L1.39736 21.4283C1.40065 21.4493 1.40481 21.4702 1.40987 21.4908L1.52239 21.8784C1.52601 21.8952 1.53017 21.9119 1.53489 21.9284L1.70367 22.3973C1.71129 22.4163 1.71963 22.4351 1.72868 22.4535L1.97247 23.0036C1.9783 23.0184 1.98455 23.033 1.99123 23.0474L2.32254 23.6913L2.71011 24.4477C2.71219 24.4497 2.71427 24.4518 2.71637 24.4539L3.16645 25.3166C3.1762 25.3357 3.18662 25.3545 3.19771 25.3728L3.77282 26.2918C3.77878 26.3044 3.78504 26.3169 3.79157 26.3293L4.43544 27.2607C4.44348 27.2734 4.45181 27.2859 4.46045 27.2982L5.17933 28.2546C5.18943 28.2674 5.19985 28.2799 5.21059 28.2921L5.99824 29.2236C6.00834 29.2363 6.01876 29.2488 6.0295 29.2611L6.85465 30.1612C6.86483 30.1719 6.87525 30.1823 6.88591 30.1925L7.76108 31.0552C7.76724 31.0615 7.77349 31.0678 7.77983 31.0739L8.64249 31.8803C8.65864 31.8955 8.67531 31.9101 8.6925 31.9241L9.57392 32.6367C9.58819 32.6476 9.60278 32.658 9.61768 32.668L10.4678 33.2743C10.4801 33.283 10.4926 33.2913 10.5053 33.2993L11.318 33.8182C11.3595 33.8454 11.4033 33.8683 11.4493 33.887L12.2432 34.1995C12.2515 34.2018 12.2598 34.2039 12.2682 34.2058L12.8933 34.4121L13.2871 34.7059C13.433 34.8184 13.5622 34.8017 13.6747 34.6558C13.7872 34.51 13.7706 34.3808 13.6247 34.2683L13.2309 33.9682L12.862 33.4244C12.8562 33.4137 12.8499 33.4033 12.8433 33.3931L12.3244 32.718C12.2962 32.6818 12.265 32.6485 12.2307 32.618L11.518 31.9741C11.518 31.972 11.518 31.9699 11.518 31.9678L10.7366 31.274L9.91774 30.5176L9.07383 29.7174L8.24867 28.8672L7.44852 27.9796L6.67962 27.0794L5.96073 26.1605L5.31061 25.2728L4.71675 24.3914L4.1854 23.6037L3.77282 22.9161L3.45401 22.3035L3.19146 21.7721L2.97892 21.3408L2.82889 20.997L2.74137 20.7657L2.69761 20.6032L2.67886 20.5032V20.4469C2.65869 20.1779 2.52222 19.9964 2.26944 19.9024C2.01666 19.8083 1.79473 19.8565 1.60365 20.0468Z" fill="black"/>
<path d="M26.3958 23.3037C26.4251 23.5371 26.5575 23.6538 26.7927 23.6538C27.028 23.6538 27.1603 23.5371 27.1897 23.3037C27.1603 23.0702 27.028 22.9535 26.7927 22.9535C26.5575 22.9535 26.4251 23.0702 26.3958 23.3037ZM26.2082 23.3037C26.2082 23.459 26.2632 23.5917 26.373 23.7015C26.4829 23.8114 26.6155 23.8663 26.7709 23.8663C26.9262 23.8663 27.0588 23.8114 27.1687 23.7015C27.2785 23.5917 27.3335 23.459 27.3335 23.3037C27.3335 23.1483 27.2785 23.0157 27.1687 22.9059C27.0588 22.796 26.9262 22.7411 26.7709 22.7411C26.6155 22.7411 26.4829 22.796 26.373 22.9059C26.2632 23.0157 26.2082 23.1483 26.2082 23.3037ZM26.6271 22.6848L26.5896 22.6911C26.3936 22.7312 26.2415 22.8354 26.1332 23.0036L26.052 23.1224C26.0385 23.1426 26.0259 23.1635 26.0145 23.1849L25.9207 23.3662L25.7644 23.66C25.7644 23.6621 25.7644 23.6642 25.7644 23.6663L25.5519 24.0663L25.2706 24.5477L24.8767 25.1103L24.3892 25.7416L23.7828 26.4168L23.0889 27.1294L22.295 27.9171L21.4011 28.761L20.4321 29.6486L19.3507 30.5738L18.1942 31.5177L17.0378 32.4117L15.9563 33.1931L15.0499 33.8494C15.0169 33.8722 14.9856 33.8973 14.9561 33.9245L14.3435 34.5121C14.2577 34.5943 14.1972 34.6923 14.1622 34.8059L14.0559 35.1434L13.8121 35.2935C13.6906 35.398 13.6705 35.5194 13.752 35.6575C13.8334 35.7957 13.9493 35.8368 14.0997 35.7811L14.3497 35.6373L14.7123 35.6935C14.835 35.7111 14.9538 35.6965 15.0686 35.6498L15.8625 35.3372C15.915 35.3171 15.965 35.2921 16.0126 35.2622L16.9565 34.6558C16.9671 34.6477 16.9775 34.6394 16.9877 34.6308L18.088 33.8494C18.0964 33.8433 18.1047 33.8371 18.113 33.8307L19.2944 32.9243C19.3007 32.9202 19.307 32.916 19.3132 32.9118L20.4884 31.9553C20.4947 31.9512 20.501 31.9471 20.5072 31.9428L21.6074 31.0114C21.6159 31.0032 21.6242 30.9949 21.6324 30.9864L22.6201 30.0737C22.6242 30.0717 22.6284 30.0696 22.6326 30.0675L23.5327 29.2111C23.5349 29.2069 23.5369 29.2027 23.539 29.1986L24.3516 28.3984C24.358 28.3922 24.3642 28.386 24.3704 28.3797L25.083 27.642C25.0916 27.6318 25.0999 27.6214 25.108 27.6108L25.7394 26.8981C25.7525 26.8819 25.765 26.8652 25.7769 26.8481L26.2958 26.1667C26.3114 26.1445 26.326 26.1216 26.3395 26.098L26.7271 25.4728C26.7382 25.4545 26.7486 25.4357 26.7584 25.4166L27.0459 24.8727C27.0596 24.8483 27.0721 24.8233 27.0834 24.7977L27.2584 24.3601C27.2705 24.3316 27.2809 24.3024 27.2897 24.2726L27.3835 23.9476C27.3952 23.9066 27.4035 23.8649 27.4085 23.8225L27.4272 23.61C27.4299 23.5934 27.432 23.5767 27.4335 23.56L27.4397 23.4162C27.4437 23.2824 27.4125 23.1573 27.346 23.0411L27.321 22.9974C27.1649 22.7262 26.9336 22.622 26.6271 22.6848Z" fill="black"/>
<path d="M10.9304 32.4804C10.9304 32.5978 10.9719 32.698 11.0549 32.781C11.1379 32.864 11.2381 32.9055 11.3555 32.9055C11.4728 32.9055 11.573 32.864 11.656 32.781C11.739 32.698 11.7805 32.5978 11.7805 32.4804C11.7805 32.363 11.739 32.2628 11.656 32.1798C11.573 32.0968 11.4728 32.0553 11.3555 32.0553C11.2381 32.0553 11.1379 32.0968 11.0549 32.1798C10.9719 32.2628 10.9304 32.363 10.9304 32.4804ZM10.8054 32.4679C10.8054 32.6163 10.8578 32.743 10.9628 32.848C11.0678 32.953 11.1945 33.0055 11.343 33.0055C11.4914 33.0055 11.6181 32.953 11.7231 32.848C11.8281 32.743 11.8806 32.6163 11.8806 32.4679C11.8806 32.3194 11.8281 32.1927 11.7231 32.0877C11.6181 31.9828 11.4914 31.9303 11.343 31.9303C11.1945 31.9303 11.0678 31.9828 10.9628 32.0877C10.8578 32.1927 10.8054 32.3194 10.8054 32.4679ZM10.6303 32.4491C10.6303 32.6407 10.6981 32.8043 10.8336 32.9398C10.969 33.0753 11.1326 33.143 11.3242 33.143C11.5158 33.143 11.6794 33.0753 11.8149 32.9398C11.9503 32.8043 12.0181 32.6407 12.0181 32.4491C12.0181 32.2575 11.9503 32.094 11.8149 31.9585C11.6794 31.823 11.5158 31.7552 11.3242 31.7552C11.1326 31.7552 10.969 31.823 10.8336 31.9585C10.6981 32.094 10.6303 32.2575 10.6303 32.4491ZM10.5303 32.4304C10.5303 32.6444 10.606 32.8271 10.7573 32.9785C10.9087 33.1298 11.0914 33.2055 11.3055 33.2055C11.5195 33.2055 11.7022 33.1298 11.8536 32.9785C12.0049 32.8271 12.0806 32.6444 12.0806 32.4304C12.0806 32.2163 12.0049 32.0336 11.8536 31.8823C11.7022 31.7309 11.5195 31.6552 11.3055 31.6552C11.0914 31.6552 10.9087 31.7309 10.7573 31.8823C10.606 32.0336 10.5303 32.2163 10.5303 32.4304ZM10.474 32.5429L10.4803 32.6492C10.4894 32.7314 10.5102 32.8106 10.5428 32.8867L10.6241 33.0805C10.6365 33.1148 10.6511 33.1481 10.6678 33.1805L10.8179 33.4368L10.9929 33.7494C11.0117 33.782 11.0325 33.8132 11.0554 33.8431L11.3055 34.1745C11.3268 34.2029 11.3497 34.23 11.3742 34.2557L11.693 34.587C11.7147 34.6112 11.7376 34.6341 11.7618 34.6558L12.1306 34.9621C12.1487 34.9796 12.1674 34.9962 12.1869 35.0121L12.5744 35.2872C12.5888 35.2959 12.6034 35.3042 12.6182 35.3122L13.0058 35.556C13.0161 35.5624 13.0265 35.5687 13.037 35.5747L13.3934 35.781C13.4791 35.8319 13.5708 35.8673 13.6684 35.8873L14.006 35.9498C14.305 36.0062 14.5509 35.9166 14.7436 35.681L14.7624 35.6622L14.8124 35.6185C14.7117 35.5916 14.6221 35.6125 14.5436 35.681L14.6811 35.7185C14.8508 35.7399 14.9577 35.668 15.0018 35.5027C15.0459 35.3374 14.989 35.2218 14.8311 35.1559L14.6936 35.1184C14.7133 35.2433 14.7842 35.3225 14.9061 35.3559L14.8874 35.2497C14.8729 35.3118 14.8708 35.3743 14.8811 35.4372L14.8999 35.3747C14.9602 35.1187 14.9039 34.8916 14.7311 34.6933L14.5123 34.4308C14.4609 34.3709 14.4026 34.3188 14.3373 34.2745L13.9935 34.0432C13.9852 34.0368 13.9769 34.0305 13.9685 34.0244L13.5996 33.7994L13.2558 33.5556L12.9433 33.2993L12.6557 33.0117L12.4119 32.7554L12.2494 32.5429L12.1494 32.3804L12.0931 32.2553L12.0619 32.1678C11.9856 31.9787 11.857 31.8373 11.676 31.7435C11.495 31.6498 11.3052 31.6263 11.1068 31.6732C10.9084 31.7201 10.7492 31.8259 10.6293 31.9908C10.5093 32.1557 10.4576 32.3397 10.474 32.5429Z" fill="black"/>
<path d="M5.39825 4.61842C5.39835 4.82669 5.50254 4.93083 5.71081 4.93083C5.91908 4.93083 6.02327 4.82669 6.02337 4.61842C6.02327 4.41015 5.91908 4.30602 5.71081 4.30602C5.50254 4.30602 5.39835 4.41015 5.39825 4.61842ZM5.31073 4.5059L5.29823 4.55591L5.24822 4.66843C5.24332 4.68281 5.23916 4.6974 5.23572 4.71219L5.17321 4.92473C5.16836 4.93912 5.16419 4.95371 5.1607 4.96849L5.09819 5.2873C5.09799 5.29564 5.09799 5.30397 5.09819 5.31231L5.02318 5.80615C5.02316 5.80823 5.02316 5.81032 5.02318 5.8124L4.92941 6.54379C4.9293 6.55004 4.9293 6.55629 4.92941 6.56254L4.82314 7.56899C4.82309 7.57315 4.82309 7.57732 4.82314 7.58149L4.72937 8.79422L4.6356 10.107L4.53558 11.451L4.43556 12.7762C4.43536 12.7846 4.43536 12.7929 4.43556 12.8012L4.40431 14.0702L4.3418 15.2454C4.34196 15.2685 4.34404 15.2915 4.34805 15.3142L4.46682 16.2831L4.41681 17.027C4.40848 17.1729 4.47724 17.25 4.6231 17.2583C4.76896 17.2667 4.84606 17.1979 4.85439 17.052L4.9044 16.3144L5.15445 15.3705C5.16057 15.3479 5.16473 15.325 5.16695 15.3017L5.27948 14.139L5.43576 12.8762C5.43587 12.87 5.43587 12.8637 5.43576 12.8575L5.54828 11.5322C5.54829 11.5302 5.54829 11.5281 5.54828 11.526L5.6483 10.182L5.74206 8.87548L5.86084 7.67526L5.96711 6.66881L6.04837 5.93742L6.10463 5.44358C6.10475 5.43733 6.10475 5.43108 6.10463 5.42483L6.12964 5.09976C6.13012 5.08726 6.13012 5.07476 6.12964 5.06226V4.83721C6.12965 4.83513 6.12965 4.83305 6.12964 4.83096V4.71219V4.66843C6.15902 4.41277 6.0475 4.25989 5.79508 4.20979C5.54266 4.1597 5.38121 4.2584 5.31073 4.5059Z" fill="black"/>
<path d="M24.0888 4.83107C24.0888 5.01444 24.1805 5.10613 24.3638 5.10613C24.5472 5.10613 24.6389 5.01444 24.6389 4.83107C24.6389 4.64771 24.5472 4.55602 24.3638 4.55602C24.1805 4.55602 24.0888 4.64771 24.0888 4.83107ZM23.9575 4.83733L23.92 5.00611L23.82 5.36868C23.8148 5.38721 23.8106 5.40596 23.8075 5.42494L23.6762 6.20008C23.6698 6.23104 23.6656 6.2623 23.6637 6.29385L23.6324 7.47533C23.6324 7.47949 23.6324 7.48366 23.6324 7.48783L23.6137 8.97561C23.6136 8.97978 23.6136 8.98395 23.6137 8.98812L23.6324 10.6697C23.6324 10.6739 23.6324 10.678 23.6324 10.6822L23.6824 12.4075L23.7262 14.0641L23.7825 15.5456L23.77 16.8084L23.7262 17.8648C23.726 17.8731 23.726 17.8815 23.7262 17.8898V18.7712L23.7137 19.4839C23.7136 19.488 23.7136 19.4922 23.7137 19.4964L23.7199 20.059C23.7209 20.0974 23.7271 20.1349 23.7387 20.1715L23.8325 20.5028L23.8075 20.7341C23.8207 20.8698 23.8952 20.9446 24.0308 20.9585C24.1664 20.9724 24.2545 20.9143 24.2951 20.7841L24.3201 20.5591L24.4826 20.2465C24.5028 20.2112 24.5174 20.1737 24.5263 20.134L24.6264 19.5714C24.6285 19.5693 24.6306 19.5672 24.6326 19.5651L24.7451 18.8587C24.7453 18.8525 24.7453 18.8462 24.7451 18.84L24.8577 17.9648C24.8605 17.9482 24.8626 17.9316 24.8639 17.9148L24.9077 16.8459C24.9077 16.8417 24.9077 16.8375 24.9077 16.8334L24.9327 15.5519L24.9764 14.0641C24.9765 14.0599 24.9765 14.0557 24.9764 14.0516L24.9827 12.395L24.9952 10.6697C24.9952 10.6655 24.9952 10.6613 24.9952 10.6572L24.9889 8.98186L24.9952 7.50033C24.9952 7.49825 24.9952 7.49616 24.9952 7.49408L25.0014 6.31261C25.001 6.28539 24.9989 6.2583 24.9952 6.23134L24.9014 5.44994C24.8985 5.42886 24.8943 5.40803 24.8889 5.38743L24.8014 5.02486L24.7764 4.86233C24.7548 4.61925 24.622 4.49399 24.378 4.48654C24.1341 4.47909 23.9939 4.59602 23.9575 4.83733Z" fill="black"/>
<path d="M5.24771 5.09365C5.24771 5.19722 5.28433 5.28562 5.35756 5.35886C5.4308 5.4321 5.51921 5.46872 5.62278 5.46872C5.72635 5.46872 5.81476 5.4321 5.888 5.35886C5.96123 5.28562 5.99785 5.19722 5.99785 5.09365C5.99785 4.99007 5.96123 4.90167 5.888 4.82843C5.81476 4.75519 5.72635 4.71857 5.62278 4.71857C5.51921 4.71857 5.4308 4.75519 5.35756 4.82843C5.28433 4.90167 5.24771 4.99007 5.24771 5.09365ZM5.2227 5.0874C5.22271 5.19615 5.26116 5.28897 5.33805 5.36587C5.41495 5.44277 5.50778 5.48122 5.61653 5.48122C5.72528 5.48122 5.81811 5.44277 5.89501 5.36587C5.97191 5.28897 6.01036 5.19615 6.01035 5.0874C6.01036 4.97864 5.97191 4.88582 5.89501 4.80892C5.81811 4.73202 5.72528 4.69357 5.61653 4.69357C5.50778 4.69357 5.41495 4.73202 5.33805 4.80892C5.26116 4.88582 5.22271 4.97864 5.2227 5.0874ZM5.87908 4.78109L5.86658 4.76233C5.80406 4.70548 5.73113 4.67005 5.64779 4.65606H5.62278C5.52103 4.63882 5.42518 4.65549 5.33523 4.70607H5.32272C5.19098 4.7809 5.11783 4.89372 5.10328 5.04453C5.08873 5.19534 5.13896 5.32007 5.25396 5.41871L5.26646 5.42496C5.29659 5.45255 5.32993 5.47547 5.36648 5.49372L5.43525 5.52498C5.44949 5.53202 5.46408 5.53828 5.479 5.54373L5.67279 5.6125C5.70901 5.62756 5.74651 5.63798 5.78531 5.64375L6.29791 5.69376C6.30412 5.69597 6.31037 5.69806 6.31666 5.70001L7.16057 5.75002C7.16682 5.75014 7.17308 5.75014 7.17933 5.75002L8.28579 5.78128L9.64855 5.81253C9.65063 5.81255 9.65271 5.81255 9.6548 5.81253L11.1176 5.82504C11.1197 5.82505 11.1217 5.82505 11.1238 5.82504L12.7116 5.81253C12.7137 5.81255 12.7158 5.81255 12.7179 5.81253L14.412 5.80003C14.414 5.80004 14.4161 5.80004 14.4182 5.80003L16.1935 5.75627L17.9501 5.71251C17.9522 5.71253 17.9543 5.71253 17.9564 5.71251L19.5692 5.66876L20.9757 5.64375L22.1072 5.625L22.9573 5.6125C22.9594 5.61251 22.9615 5.61251 22.9636 5.6125L23.5824 5.58749L24.0325 5.57499H24.3451C24.4212 5.5741 24.49 5.55118 24.5514 5.50622L24.6577 5.43121C24.5838 5.40802 24.515 5.41843 24.4514 5.46247L24.5326 5.48747C24.6689 5.50937 24.7572 5.45433 24.7975 5.32235C24.8378 5.19037 24.7954 5.09538 24.6702 5.03739L24.6514 5.03113L24.6076 4.98112C24.5433 4.9122 24.4642 4.87469 24.3701 4.8686L24.0575 4.8436C24.0472 4.84106 24.0368 4.83898 24.0263 4.83735H23.5699C23.5658 4.83728 23.5616 4.83728 23.5574 4.83735L22.9386 4.86235L22.0884 4.89986L20.9632 4.94362L19.5629 4.95612L17.9501 4.94987L16.1873 4.93112L14.412 4.91236C14.4099 4.91235 14.4078 4.91235 14.4057 4.91236H12.7116L11.1301 4.89986L9.67355 4.87485L8.31079 4.8436L7.21683 4.79984L6.38543 4.73733L5.87283 4.69357C5.86241 4.69323 5.85199 4.69323 5.84157 4.69357H5.7103L5.6978 4.68732C5.74739 4.7447 5.80782 4.78638 5.87908 4.81234L5.87283 4.79984C5.76889 4.98053 5.78556 5.14932 5.92284 5.30619V5.29368C5.79002 5.31822 5.69 5.38907 5.62278 5.50622H5.64779C5.65828 5.50453 5.6687 5.50244 5.67904 5.49997L5.70405 5.49372C5.86342 5.45092 5.96279 5.34939 6.00215 5.18913C6.04151 5.02887 6.00049 4.89285 5.87908 4.78109Z" fill="black"/>
<path d="M4.1288 21.9218C4.1288 22.0306 4.16725 22.1234 4.24415 22.2003C4.32105 22.2772 4.41388 22.3157 4.52263 22.3157C4.63138 22.3157 4.72421 22.2772 4.80111 22.2003C4.878 22.1234 4.91645 22.0306 4.91645 21.9218C4.91645 21.8131 4.878 21.7203 4.80111 21.6434C4.72421 21.5665 4.63138 21.528 4.52263 21.528C4.41388 21.528 4.32105 21.5665 4.24415 21.6434C4.16725 21.7203 4.1288 21.8131 4.1288 21.9218ZM4.92271 22.0281L4.94146 21.9656C4.94621 21.9533 4.95038 21.9408 4.95396 21.9281L4.97897 21.7781C4.97898 21.776 4.97898 21.7739 4.97897 21.7718L5.02898 21.5155C5.03161 21.5031 5.03369 21.4906 5.03523 21.478L5.07899 21.0904C5.07912 21.0842 5.07912 21.0779 5.07899 21.0717L5.14775 19.7714L5.24152 18.7775L5.37904 17.6585C5.37981 17.6439 5.37981 17.6294 5.37904 17.6148L5.40405 16.5708L5.53532 15.7582C5.54533 15.5839 5.46434 15.4818 5.29234 15.4519C5.12034 15.422 5.00963 15.4907 4.96021 15.6582L4.82269 16.4833L4.55389 17.5023C4.54842 17.5207 4.54426 17.5395 4.54138 17.5585L4.40386 18.6837C4.40384 18.6858 4.40384 18.6879 4.40386 18.69L4.29759 19.6964C4.29753 19.7006 4.29753 19.7048 4.29759 19.7089L4.20382 21.0154L4.17256 21.3842L4.13506 21.6343C4.13504 21.6364 4.13504 21.6385 4.13506 21.6405L4.1163 21.7906C4.11629 21.7927 4.11629 21.7947 4.1163 21.7968L4.1038 21.8593C4.08806 21.9689 4.11202 22.069 4.17568 22.1596C4.23933 22.2502 4.32538 22.3067 4.43383 22.3291C4.54228 22.3514 4.64365 22.3336 4.73794 22.2755C4.83223 22.2175 4.89382 22.135 4.92271 22.0281Z" fill="black"/>
<path d="M4.27269 22.2094C4.27269 22.3113 4.3087 22.3982 4.38072 22.4702C4.45273 22.5422 4.53967 22.5783 4.64151 22.5783C4.74336 22.5783 4.83029 22.5422 4.90231 22.4702C4.97432 22.3982 5.01033 22.3113 5.01033 22.2094C5.01033 22.1076 4.97432 22.0207 4.90231 21.9486C4.83029 21.8766 4.74336 21.8406 4.64151 21.8406C4.53967 21.8406 4.45273 21.8766 4.38072 21.9486C4.3087 22.0207 4.27269 22.1076 4.27269 22.2094ZM4.22893 22.2157V22.2657C4.22806 22.3038 4.23223 22.3413 4.24144 22.3782L4.26019 22.4595C4.26395 22.4701 4.26812 22.4805 4.27269 22.4907L4.3102 22.6158C4.3138 22.6285 4.31797 22.641 4.3227 22.6533L4.41022 22.8596L4.56025 23.2034C4.56562 23.2204 4.57187 23.237 4.579 23.2534L4.87281 23.791C4.87487 23.7931 4.87696 23.7952 4.87906 23.7972L5.3479 24.6036C5.35392 24.6121 5.36017 24.6205 5.36665 24.6286L6.01677 25.6226C6.02074 25.631 6.0249 25.6394 6.02928 25.6476L6.85443 26.7603C6.86034 26.7709 6.86659 26.7813 6.87319 26.7916L7.84212 27.9418C7.84615 27.9481 7.85031 27.9544 7.85462 27.9605L8.87357 29.0545L9.8175 30.1047C9.82733 30.1157 9.83775 30.1261 9.84875 30.1359L10.7364 30.9423L11.3365 31.63C11.446 31.7287 11.5564 31.7298 11.6678 31.6333C11.7792 31.5367 11.7938 31.4273 11.7116 31.3049L11.1177 30.611L10.4364 29.6171C10.4286 29.6063 10.4202 29.5958 10.4114 29.5858L9.50494 28.5231L8.61727 27.3354L7.74835 26.1164L6.96695 24.9912L6.31683 24.0035C6.31684 24.0014 6.31684 23.9994 6.31683 23.9973L5.79798 23.2284C5.79388 23.2241 5.78972 23.22 5.78548 23.2159L5.43541 22.7158C5.42933 22.7094 5.42307 22.7031 5.41666 22.697L5.20412 22.4282L5.1166 22.2782L5.07284 22.1907L5.05409 22.1469L5.04784 22.1157C4.97954 21.8914 4.82907 21.7935 4.59641 21.822C4.36375 21.8504 4.24126 21.9816 4.22893 22.2157Z" fill="black"/>
<path d="M14.7127 32.5673C14.7127 32.6761 14.7511 32.7689 14.828 32.8458C14.9049 32.9227 14.9977 32.9612 15.1065 32.9612C15.2152 32.9612 15.3081 32.9227 15.385 32.8458C15.4619 32.7689 15.5003 32.6761 15.5003 32.5673C15.5003 32.4586 15.4619 32.3657 15.385 32.2889C15.3081 32.212 15.2152 32.1735 15.1065 32.1735C14.9977 32.1735 14.9049 32.212 14.828 32.2889C14.7511 32.3657 14.7127 32.4586 14.7127 32.5673ZM15.2565 32.9424L15.3315 32.9111C15.353 32.9045 15.3739 32.8961 15.394 32.8861L15.5753 32.7799C15.5929 32.7685 15.6095 32.756 15.6253 32.7424L15.9441 32.4986C15.9528 32.4905 15.9611 32.4822 15.9691 32.4736L16.4442 32.0547C16.4485 32.0506 16.4526 32.0465 16.4567 32.0422L17.0881 31.4421C17.0924 31.438 17.0965 31.4339 17.1006 31.4296L17.8195 30.6982L18.6697 29.9043C18.674 29.8982 18.6781 29.8919 18.6822 29.8856L19.5386 29.0167C19.5407 29.0146 19.5428 29.0125 19.5448 29.0104L20.3512 28.1602L21.0951 27.3851L21.7702 26.6912C21.7745 26.6871 21.7786 26.6829 21.7828 26.6787L22.3641 26.0473L22.858 25.5097C22.8622 25.5036 22.8664 25.4973 22.8705 25.491L23.2518 25.0409C23.2784 25.0101 23.3013 24.9767 23.3205 24.9409L23.5331 24.5471C23.5623 24.4901 23.579 24.4297 23.5831 24.3658L23.6018 24.1657L23.6894 24.0532C23.7977 23.9157 23.7831 23.7927 23.6456 23.6844C23.5081 23.576 23.3851 23.5906 23.2768 23.7281L23.1893 23.8344L23.008 23.8844C22.9511 23.8995 22.899 23.9245 22.8517 23.9594L22.4891 24.2345C22.4645 24.2534 22.4415 24.2742 22.4204 24.297L22.014 24.7346L21.5139 25.2659C21.5139 25.268 21.5139 25.2701 21.5139 25.2722L20.9388 25.8973L20.27 26.5974L19.5261 27.3663C19.524 27.3684 19.5219 27.3705 19.5198 27.3726L18.7197 28.2228C18.7175 28.2269 18.7154 28.2311 18.7134 28.2353L17.8883 29.1354C17.8861 29.1396 17.884 29.1437 17.882 29.1479L17.1256 30.0293L16.4192 30.7545L15.8004 31.3546L15.3503 31.7922L15.0502 32.061C15.0481 32.063 15.046 32.0651 15.044 32.0672L14.8939 32.211C14.8918 32.2131 14.8897 32.2152 14.8877 32.2173L14.8314 32.2735C14.679 32.4271 14.6609 32.5951 14.7769 32.7777C14.8929 32.9603 15.0528 33.0152 15.2565 32.9424Z" fill="black"/>
<path d="M24.2956 19.3085C24.2956 19.4104 24.3316 19.4973 24.4036 19.5693C24.4756 19.6413 24.5625 19.6773 24.6644 19.6773C24.7662 19.6773 24.8532 19.6413 24.9252 19.5693C24.9972 19.4973 25.0332 19.4104 25.0332 19.3085C25.0332 19.2067 24.9972 19.1197 24.9252 19.0477C24.8532 18.9757 24.7662 18.9397 24.6644 18.9397C24.5625 18.9397 24.4756 18.9757 24.4036 19.0477C24.3316 19.1197 24.2956 19.2067 24.2956 19.3085ZM24.258 19.221L24.2268 19.321C24.224 19.3355 24.2219 19.3501 24.2205 19.3648L24.183 19.5648C24.1807 19.5731 24.1786 19.5814 24.1768 19.5898L24.1393 19.8961C24.1393 19.8982 24.1393 19.9003 24.1393 19.9024L24.0955 20.3025C24.0955 20.3045 24.0955 20.3066 24.0955 20.3087L24.0455 20.7713L23.9955 21.2589L23.9455 21.734L23.883 22.1716L23.8205 22.5591L23.7705 22.878C23.7703 22.8842 23.7703 22.8905 23.7705 22.8967L23.7392 23.1468C23.7368 23.1571 23.7347 23.1675 23.7329 23.178L23.7204 23.3593L23.7142 23.4843C23.7134 23.501 23.7134 23.5177 23.7142 23.5343V23.6093C23.7294 23.8962 23.8801 24.0515 24.1663 24.0754C24.4526 24.0992 24.6269 23.971 24.6894 23.6906L24.7081 23.6156C24.7105 23.6052 24.7126 23.5948 24.7144 23.5843L24.7269 23.4531C24.7292 23.4448 24.7313 23.4364 24.7331 23.4281L24.7456 23.2593L24.7706 23.028L24.8207 22.7217L24.8832 22.3278C24.8832 22.3237 24.8832 22.3195 24.8832 22.3153L24.9457 21.8653C24.9458 21.859 24.9458 21.8528 24.9457 21.8465L24.9957 21.3589C24.9957 21.3547 24.9957 21.3506 24.9957 21.3464L25.0332 20.8651L25.077 20.4025C25.077 20.4004 25.077 20.3983 25.077 20.3962L25.102 19.9899C25.102 19.9857 25.102 19.9816 25.102 19.9774L25.1145 19.6648C25.1151 19.6503 25.1151 19.6357 25.1145 19.6211L25.102 19.421C25.1027 19.4065 25.1027 19.3919 25.102 19.3773L25.0832 19.271C25.0443 19.051 24.9133 18.9343 24.6903 18.9208C24.4673 18.9072 24.3232 19.0073 24.258 19.221ZM23.758 23.6343C23.758 23.7586 23.8019 23.8647 23.8898 23.9526C23.9777 24.0405 24.0837 24.0844 24.208 24.0844C24.3323 24.0844 24.4384 24.0405 24.5263 23.9526C24.6142 23.8647 24.6581 23.7586 24.6581 23.6343C24.6581 23.5101 24.6142 23.404 24.5263 23.3161C24.4384 23.2282 24.3323 23.1843 24.208 23.1843C24.0837 23.1843 23.9777 23.2282 23.8898 23.3161C23.8019 23.404 23.758 23.5101 23.758 23.6343ZM24.6394 23.5718V23.5468C24.6354 23.5213 24.6292 23.4962 24.6206 23.4718L24.6081 23.4343C24.6064 23.4812 24.6127 23.5271 24.6269 23.5718V23.5406L24.6331 23.5218C24.6379 23.4864 24.6379 23.451 24.6331 23.4156L24.6269 23.378C24.6142 23.2906 24.5767 23.2156 24.5143 23.153L24.4956 23.1343C24.4216 23.0593 24.332 23.0197 24.2268 23.0155L24.2018 23.0092C24.1183 23.0063 24.0412 23.0271 23.9705 23.0717L23.9142 23.103C23.9078 23.109 23.9015 23.1153 23.8955 23.1217L23.7767 23.203C23.7636 23.2127 23.7511 23.2231 23.7392 23.2343L23.5204 23.4406C23.5183 23.4426 23.5162 23.4447 23.5142 23.4468L23.1703 23.7781C23.1682 23.7802 23.1661 23.7823 23.1641 23.7844L22.7328 24.2282C22.7112 24.2511 22.6924 24.2761 22.6765 24.3032L22.3577 24.8158L21.9701 25.1971C21.8451 25.3222 21.8451 25.4472 21.9701 25.5722C22.0951 25.6972 22.2202 25.6972 22.3452 25.5722L22.7265 25.1971L23.2516 24.8783C23.2787 24.8624 23.3037 24.8436 23.3266 24.8221L23.7642 24.3907L24.108 24.0657C24.1123 24.0616 24.1164 24.0574 24.1205 24.0532L24.3268 23.8469C24.3311 23.8428 24.3352 23.8386 24.3393 23.8344L24.4206 23.7469L24.4518 23.7156C24.3559 23.7215 24.2726 23.7569 24.2018 23.8219L24.2268 23.8156C24.1432 23.7344 24.0431 23.6969 23.9267 23.7031L23.9455 23.7219C23.9291 23.6416 23.8916 23.5728 23.833 23.5156L23.8392 23.5531C23.848 23.5052 23.848 23.4572 23.8392 23.4093L23.833 23.4343L23.8267 23.4468L23.8205 23.4718C23.847 23.4375 23.8679 23.4 23.883 23.3593L23.8705 23.378C23.7766 23.5011 23.7551 23.6358 23.8062 23.7819C23.8573 23.9281 23.9579 24.0201 24.108 24.0579C24.2581 24.0958 24.3903 24.0624 24.5045 23.9579C24.6188 23.8534 24.6637 23.7247 24.6394 23.5718Z" fill="black"/>
<path d="M11.3802 30.9608C11.3802 31.0695 11.4186 31.1624 11.4955 31.2392C11.5724 31.3161 11.6652 31.3546 11.774 31.3546C11.8827 31.3546 11.9756 31.3161 12.0525 31.2392C12.1294 31.1624 12.1678 31.0695 12.1678 30.9608C12.1678 30.852 12.1294 30.7592 12.0525 30.6823C11.9756 30.6054 11.8827 30.5669 11.774 30.5669C11.6652 30.5669 11.5724 30.6054 11.4955 30.6823C11.4186 30.7592 11.3802 30.852 11.3802 30.9608ZM11.3739 31.0108L11.3864 31.092C11.3939 31.1451 11.4106 31.1951 11.4364 31.2421L11.4927 31.3483C11.4985 31.359 11.5048 31.3694 11.5114 31.3796L11.6177 31.5546C11.6256 31.5654 11.6339 31.5758 11.6427 31.5859L11.824 31.8297C11.8356 31.845 11.8481 31.8596 11.8615 31.8734L12.1241 32.1485C12.1397 32.1643 12.1564 32.1788 12.1741 32.1923L12.5179 32.4611C12.5339 32.4725 12.5506 32.4829 12.5679 32.4923L12.968 32.7299C12.99 32.7422 13.0129 32.7526 13.0367 32.7611L13.4493 32.9174C13.5018 32.9364 13.556 32.9447 13.6118 32.9424L13.9244 32.9361L14.1682 33.0174C14.3348 33.0756 14.4473 33.0214 14.5056 32.8548C14.5639 32.6882 14.5098 32.5757 14.3432 32.5173L14.1119 32.4361L13.9056 32.2235C13.878 32.194 13.8467 32.169 13.8119 32.1485L13.4368 31.936L13.0805 31.7109L12.7929 31.4734L12.5679 31.2296L12.3866 31.0045C12.3806 30.996 12.3744 30.9877 12.3678 30.9795L12.2303 30.8295C12.2243 30.8231 12.218 30.8168 12.2116 30.8107L12.1241 30.7232C12.1103 30.7098 12.0957 30.6973 12.0803 30.6857L12.0115 30.6357C11.8692 30.5279 11.7211 30.5193 11.5672 30.6098C11.4133 30.7004 11.3489 30.834 11.3739 31.0108Z" fill="black"/>
<path d="M22.0007 1.48052C22.0007 1.68055 22.1008 1.78057 22.3008 1.78057C22.5008 1.78057 22.6009 1.68055 22.6009 1.48052C22.6009 1.28048 22.5008 1.18046 22.3008 1.18046C22.1008 1.18046 22.0007 1.28048 22.0007 1.48052ZM21.9507 1.48677C21.9507 1.58516 21.9855 1.66915 22.0551 1.73872C22.1247 1.8083 22.2087 1.84309 22.3071 1.84309C22.4055 1.84309 22.4894 1.8083 22.559 1.73872C22.6286 1.66915 22.6634 1.58516 22.6634 1.48677C22.6634 1.38837 22.6286 1.30439 22.559 1.23481C22.4894 1.16524 22.4055 1.13045 22.3071 1.13045C22.2087 1.13045 22.1247 1.16524 22.0551 1.23481C21.9855 1.30439 21.9507 1.38837 21.9507 1.48677ZM21.9445 1.51802L21.9507 1.55553C21.953 1.61992 21.9697 1.68035 22.0007 1.73682L22.0383 1.79933C22.0537 1.83065 22.0724 1.85982 22.0945 1.88684L22.1883 1.98686C22.2263 2.02942 22.27 2.06484 22.3196 2.09313L22.5008 2.19315C22.5231 2.20513 22.546 2.21555 22.5696 2.22441L22.8259 2.32443C22.8301 2.32447 22.8342 2.32447 22.8384 2.32443L23.151 2.43695L23.4698 2.56822L23.7823 2.6995L24.0824 2.83077C24.0865 2.83291 24.0907 2.83499 24.0949 2.83703L24.3762 2.94955L24.6325 3.06207C24.6366 3.06421 24.6408 3.06629 24.645 3.06832L25.0388 3.2371L25.1388 3.28086L25.2139 3.31837L25.2764 3.35587L25.3326 3.38713C25.3388 3.39143 25.345 3.3956 25.3514 3.39963L25.4014 3.43089C25.4217 3.44053 25.4425 3.44887 25.4639 3.45589L25.5077 3.47465C25.5138 3.47894 25.5201 3.48311 25.5264 3.48715L25.5639 3.49965C25.7076 3.55667 25.8495 3.5525 25.9895 3.48714C26.1296 3.42179 26.2239 3.31575 26.2726 3.16902C26.3212 3.0223 26.3088 2.88091 26.2354 2.74485C26.1621 2.60879 26.0508 2.52075 25.9015 2.48071H25.8952L25.8827 2.47446C25.9106 2.49171 25.9397 2.50629 25.9703 2.51821L25.9202 2.48696C25.9081 2.4781 25.8956 2.46976 25.8827 2.46195L25.8265 2.4307L25.7515 2.38694C25.7494 2.38693 25.7473 2.38693 25.7452 2.38694L25.6452 2.32443C25.6309 2.31753 25.6163 2.31128 25.6014 2.30567L25.4764 2.24316C25.4723 2.24102 25.4681 2.23894 25.4639 2.23691L25.0701 2.07438L24.8325 1.96186L24.57 1.82433L24.2824 1.66805C24.2661 1.66103 24.2494 1.65478 24.2324 1.6493L23.9074 1.51177C23.9032 1.50964 23.8991 1.50755 23.8949 1.50552L23.5573 1.37425C23.549 1.37197 23.5407 1.36989 23.5323 1.368L23.2072 1.25547C23.201 1.25328 23.1948 1.2512 23.1885 1.24922L22.9322 1.17421C22.9117 1.16673 22.8909 1.16048 22.8697 1.15545L22.6696 1.1242C22.6285 1.11501 22.5868 1.11084 22.5446 1.1117L22.4071 1.1242C22.405 1.12418 22.4029 1.12418 22.4008 1.1242L22.3508 1.13045L22.3383 1.1242C22.2273 1.11849 22.1325 1.15495 22.0538 1.23356C21.9752 1.31217 21.9388 1.40699 21.9445 1.51802ZM25.3889 2.99956C25.3889 3.10658 25.4267 3.19793 25.5024 3.27361C25.5781 3.34929 25.6694 3.38713 25.7765 3.38713C25.8835 3.38713 25.9748 3.34929 26.0505 3.27361C26.1262 3.19793 26.164 3.10658 26.164 2.99956C26.164 2.89253 26.1262 2.80118 26.0505 2.7255C25.9748 2.64982 25.8835 2.61198 25.7765 2.61198C25.6694 2.61198 25.5781 2.64982 25.5024 2.7255C25.4267 2.80118 25.3889 2.89253 25.3889 2.99956ZM25.6764 2.80577L25.6639 2.81202C25.5348 2.87453 25.5014 2.97038 25.5639 3.09958C25.6264 3.22877 25.7223 3.26211 25.8515 3.19959L25.864 3.19334C25.9932 3.13083 26.0265 3.03498 25.964 2.90579C25.9015 2.7766 25.8056 2.74326 25.6764 2.80577Z" fill="black"/>
<path d="M23.0759 2.58072C23.0759 2.67566 23.1095 2.7567 23.1766 2.82384C23.2437 2.89097 23.3248 2.92454 23.4197 2.92454C23.5146 2.92454 23.5957 2.89097 23.6628 2.82384C23.73 2.7567 23.7635 2.67566 23.7635 2.58072C23.7635 2.48578 23.73 2.40474 23.6628 2.33761C23.5957 2.27047 23.5146 2.23691 23.4197 2.23691C23.3248 2.23691 23.2437 2.27047 23.1766 2.33761C23.1095 2.40474 23.0759 2.48578 23.0759 2.58072ZM23.7385 2.43694L23.7323 2.41194C23.6839 2.31653 23.608 2.25529 23.5045 2.22824C23.4011 2.20118 23.3049 2.21743 23.216 2.27698C23.1272 2.33653 23.0756 2.4193 23.0613 2.5253C23.047 2.6313 23.0748 2.72479 23.1447 2.80577L23.1572 2.82452C23.2949 2.96205 23.4447 2.97683 23.6066 2.86888C23.7685 2.76093 23.8125 2.61695 23.7385 2.43694ZM23.2072 2.98705L23.3009 3.03081C23.3408 3.05051 23.3825 3.06509 23.426 3.07457L23.6448 3.11832C23.6551 3.1207 23.6655 3.12278 23.676 3.12458L23.9761 3.17459L24.3199 3.22459L24.6762 3.28711L25.0263 3.34962L25.3201 3.41213L25.5639 3.47464C25.5659 3.47465 25.568 3.47465 25.5701 3.47464L25.7639 3.52465L25.8827 3.55591L25.9452 3.58091L25.9889 3.59967C25.9369 3.55231 25.8786 3.5148 25.8139 3.48714L25.8389 3.51215C25.8314 3.33743 25.7626 3.19157 25.6326 3.07457V3.09957C25.633 3.08707 25.633 3.07457 25.6326 3.06206V3.07457C25.6921 2.97883 25.7233 2.87464 25.7264 2.76201L25.7201 2.77451C25.7642 2.73405 25.8017 2.68821 25.8327 2.63698L25.8202 2.64949C25.9926 2.65747 26.1427 2.60329 26.2702 2.48695H26.2515C26.3194 2.51619 26.3902 2.53286 26.464 2.53696L26.4578 2.53071L26.4765 2.54322L26.464 2.53696C26.4519 2.52606 26.4394 2.51564 26.4265 2.50571L26.3703 2.47445L26.3265 2.4432L26.264 2.39319C26.2499 2.38215 26.2353 2.37173 26.2202 2.36193L26.139 2.31192C26.1369 2.30982 26.1348 2.30774 26.1327 2.30567L26.0577 2.26191C26.0435 2.25299 26.0289 2.24466 26.014 2.23691L25.9077 2.18065C25.8813 2.16837 25.8542 2.15795 25.8264 2.14939L25.6826 2.09938C25.6561 2.08925 25.629 2.08092 25.6014 2.07438L25.4013 2.03687C25.3889 2.03442 25.3764 2.03233 25.3638 2.03062L25.1263 1.99936C25.1118 1.99678 25.0972 1.99469 25.0825 1.99311L24.8012 1.97436C24.7991 1.97434 24.7971 1.97434 24.795 1.97436L24.4824 1.9556L24.1448 1.9306L23.8323 1.9181L23.5572 1.88684L23.3322 1.85558L23.1197 1.81183C23.1176 1.81181 23.1155 1.81181 23.1134 1.81183L22.8821 1.77432C22.878 1.77219 22.8738 1.77011 22.8696 1.76807L22.6258 1.73056C22.6092 1.72785 22.5925 1.72576 22.5758 1.72431L22.332 1.70556C22.3278 1.70552 22.3237 1.70552 22.3195 1.70556L22.0882 1.6868C22.0736 1.68633 22.059 1.68633 22.0444 1.6868H21.8382C21.8277 1.68656 21.8173 1.68656 21.8069 1.6868L21.6194 1.69305L21.4381 1.6993H21.2693L21.1255 1.69305L21.0192 1.68055L20.9442 1.66805C21.0328 1.73886 21.1328 1.7847 21.2443 1.80557L21.2193 1.78057C20.9354 1.83583 20.7597 2.00404 20.6919 2.28518C20.6242 2.56633 20.7042 2.79611 20.9317 2.97455L21.013 2.95579L21.2505 2.93704L21.6569 2.92454L22.157 2.93079L22.7196 2.95579L23.3134 2.98705L23.8823 3.03081L24.3886 3.08082L24.82 3.12458L25.1575 3.16208L25.3826 3.18709L25.5264 3.21209C25.5284 3.21419 25.5305 3.21627 25.5326 3.21834L25.5889 3.22459L25.5951 3.23085C25.5519 3.20262 25.5061 3.1797 25.4576 3.16208L25.4763 3.17459C25.5767 3.11452 25.6558 3.03369 25.7137 2.93212C25.7717 2.83055 25.801 2.7213 25.8016 2.60436C25.8023 2.48743 25.7742 2.37786 25.7173 2.27566C25.6605 2.17346 25.5823 2.09178 25.4826 2.03062L25.4701 2.04312C25.5805 2.03512 25.6826 2.00178 25.7764 1.9431H25.7577C25.8312 1.96432 25.9062 1.97265 25.9827 1.96811L25.9514 1.96185C25.9349 1.95704 25.9183 1.95288 25.9014 1.94935L25.8327 1.93685C25.8306 1.93475 25.8285 1.93267 25.8264 1.9306L25.6889 1.90559L25.4513 1.86184C25.441 1.85951 25.4306 1.85742 25.4201 1.85558L25.1138 1.81183C25.1117 1.81181 25.1096 1.81181 25.1075 1.81183L24.7325 1.75557L24.3011 1.6993L23.8448 1.63054L23.3447 1.54302C23.3384 1.54294 23.3322 1.54294 23.3259 1.54302L22.7758 1.46176L22.1757 1.36799L21.5694 1.26797L21.0067 1.18046L20.5129 1.09919C20.5067 1.09911 20.5004 1.09911 20.4941 1.09919L20.0503 1.03668C20.0379 1.03426 20.0254 1.03218 20.0128 1.03043L19.6002 0.999171C19.5815 0.99843 19.5627 0.99843 19.544 0.999171L19.1439 0.99292C19.1313 0.994673 19.1188 0.996757 19.1064 0.999171L18.7251 1.01792C18.7126 1.0176 18.7001 1.0176 18.6876 1.01792L18.3312 1.06168C18.3229 1.06154 18.3146 1.06154 18.3062 1.06168L17.9812 1.10544C17.977 1.10748 17.9728 1.10957 17.9687 1.11169L17.6999 1.15545C17.681 1.15679 17.6623 1.15887 17.6436 1.1617L17.4311 1.21796C17.388 1.22862 17.3463 1.24321 17.306 1.26172L17.1685 1.32423C17.1336 1.34012 17.1002 1.35887 17.0685 1.38049L16.9935 1.43675C16.8055 1.56666 16.7138 1.74586 16.7184 1.97436V1.99936C16.7254 2.2082 16.8171 2.36865 16.9935 2.4807L17.0185 2.49321C17.1048 2.54688 17.1986 2.57813 17.2998 2.58697L17.3936 2.59948C17.4081 2.59995 17.4227 2.59995 17.4373 2.59948L17.5873 2.60573C17.6294 2.60528 17.6711 2.60111 17.7124 2.59322L17.9312 2.55572L18.1875 2.51821L18.4875 2.47445L18.8126 2.4432L19.1626 2.43069L19.519 2.42444L19.8878 2.4557L20.3066 2.50571L20.7942 2.57447L21.3506 2.65574L21.9569 2.74325L22.5633 2.83702C22.5654 2.83703 22.5675 2.83703 22.5695 2.83702L23.1259 2.91829L23.6385 2.9933C23.6447 2.99339 23.651 2.99339 23.6573 2.9933L24.1261 3.04956L24.5512 3.10582L24.9262 3.14958L25.2138 3.19334L25.4451 3.23085C25.4472 3.23086 25.4493 3.23086 25.4513 3.23085L25.5951 3.25585L25.6639 3.26835C25.6722 3.26851 25.6806 3.26851 25.6889 3.26835L25.7201 3.2746C25.7326 3.27704 25.7451 3.27913 25.7577 3.28086H25.7764C25.8782 3.28657 25.9761 3.2699 26.0702 3.23085H26.0827C26.3336 3.13387 26.4746 2.95183 26.5059 2.68471C26.5371 2.41759 26.4419 2.20789 26.2202 2.05562L26.2015 2.04312C26.1455 2.00475 26.0851 1.97558 26.0202 1.9556L25.9639 1.93685C25.9333 1.92624 25.902 1.91791 25.8702 1.91184L25.7702 1.89309L25.6014 1.86809C25.591 1.86575 25.5806 1.86367 25.5701 1.86184L25.3201 1.83058C25.3159 1.82845 25.3118 1.82637 25.3076 1.82433L24.9638 1.78682C24.9617 1.78681 24.9596 1.78681 24.9575 1.78682L24.5199 1.74306L24.0073 1.69305C24.0011 1.69297 23.9948 1.69297 23.9886 1.69305L23.4072 1.64929C23.4051 1.64928 23.403 1.64928 23.401 1.64929L22.8008 1.60554C22.7967 1.6055 22.7925 1.6055 22.7883 1.60554L22.207 1.58053C22.2007 1.58044 22.1945 1.58044 22.1882 1.58053L21.6631 1.57428C21.6527 1.57404 21.6423 1.57404 21.6319 1.57428L21.1943 1.58678C21.1818 1.58644 21.1693 1.58644 21.1568 1.58678L20.863 1.61179C20.8314 1.61376 20.8002 1.61793 20.7692 1.62429L20.6504 1.65555C20.5376 1.6812 20.438 1.73247 20.3515 1.80934C20.2651 1.88621 20.2025 1.97917 20.1639 2.0882C20.1252 2.19724 20.1152 2.30884 20.1339 2.423C20.1526 2.53717 20.1977 2.63975 20.2691 2.73075L20.2941 2.75576C20.4001 2.89116 20.5376 2.97451 20.7067 3.0058L20.813 3.02456C20.8337 3.0276 20.8545 3.02969 20.8755 3.03081L21.0192 3.04331C21.0318 3.04366 21.0443 3.04366 21.0568 3.04331L21.2318 3.04956C21.2422 3.0498 21.2526 3.0498 21.263 3.04956H21.4568C21.461 3.0496 21.4652 3.0496 21.4693 3.04956L21.6631 3.04331L21.8444 3.03706H22.0319L22.2382 3.04956L22.4633 3.06206L22.7008 3.08707L22.9071 3.10582L23.1071 3.14333C23.1217 3.14591 23.1362 3.14799 23.1509 3.14958L23.4072 3.17459C23.4113 3.17671 23.4155 3.1788 23.4197 3.18084L23.7135 3.20584C23.7218 3.20809 23.7301 3.21017 23.7385 3.21209L24.0698 3.23085C24.0719 3.23086 24.074 3.23086 24.0761 3.23085L24.4136 3.24335L24.72 3.2621L24.9763 3.28086L25.1763 3.30586L25.3388 3.33087L25.4076 3.34962L25.4451 3.36837L25.4889 3.39338L25.5326 3.41838L25.5826 3.45589C25.5888 3.46017 25.595 3.46434 25.6014 3.46839L25.6639 3.51215C25.6701 3.51643 25.6763 3.5206 25.6826 3.52465L25.7326 3.55591L25.7639 3.57466C25.797 3.60115 25.8324 3.62407 25.8702 3.64342L25.9202 3.66843C25.9345 3.67524 25.9491 3.68149 25.9639 3.68718L25.9952 3.69969C26.078 3.73028 26.1634 3.74278 26.2515 3.73719H26.2702C26.4425 3.72794 26.5863 3.65917 26.7016 3.5309L26.7141 3.5184C26.765 3.46303 26.8045 3.40052 26.8329 3.33087L26.8391 3.31836C26.8701 3.24005 26.8847 3.15878 26.8829 3.07457V3.06206C26.8825 3.07457 26.8825 3.08707 26.8829 3.09957V3.07457C26.8891 2.9045 26.8349 2.75655 26.7203 2.63073L26.6953 2.60573C26.6389 2.54211 26.5722 2.4921 26.4953 2.4557L26.439 2.43069C26.4247 2.42389 26.4101 2.41764 26.3953 2.41194L26.2953 2.37443C26.2667 2.36397 26.2375 2.35563 26.2077 2.34943L26.0577 2.31817C26.0473 2.31582 26.0369 2.31374 26.0265 2.31192L25.8202 2.27441L25.5639 2.23066L25.2513 2.17439C25.2471 2.17435 25.243 2.17435 25.2388 2.17439L24.8825 2.11188L24.5137 2.04937C24.5054 2.04711 24.497 2.04502 24.4887 2.04312L24.1386 1.99936C24.1241 1.99673 24.1095 1.99465 24.0948 1.99311L23.7948 1.98061C23.7656 1.97838 23.7364 1.97838 23.7073 1.98061L23.4885 1.99936C23.4225 2.00668 23.36 2.02543 23.3009 2.05562L23.2072 2.09938C23.0223 2.18958 22.9299 2.33752 22.9299 2.54322C22.9299 2.74891 23.0223 2.89685 23.2072 2.98705ZM16.7809 1.99936C16.781 2.14774 16.8336 2.27438 16.9385 2.37926C17.0435 2.48415 17.1702 2.53659 17.3185 2.53659C17.4669 2.53659 17.5936 2.48415 17.6986 2.37926C17.8035 2.27438 17.856 2.14774 17.8561 1.99936C17.856 1.85098 17.8035 1.72435 17.6986 1.61946C17.5936 1.51457 17.4669 1.46213 17.3185 1.46213C17.1702 1.46213 17.0435 1.51457 16.9385 1.61946C16.8336 1.72435 16.781 1.85098 16.7809 1.99936ZM16.9185 2.01186C16.9185 2.13097 16.9606 2.23264 17.0448 2.31686C17.129 2.40108 17.2307 2.4432 17.3498 2.4432C17.4689 2.4432 17.5706 2.40108 17.6548 2.31686C17.739 2.23264 17.7811 2.13097 17.7811 2.01186C17.7811 1.89275 17.739 1.79109 17.6548 1.70687C17.5706 1.62264 17.4689 1.58053 17.3498 1.58053C17.2307 1.58053 17.129 1.62264 17.0448 1.70687C16.9606 1.79109 16.9185 1.89275 16.9185 2.01186ZM17.4061 2.27441H17.4623C17.6332 2.27441 17.7186 2.18898 17.7186 2.01812C17.7186 1.84725 17.6332 1.76182 17.4623 1.76182H17.4061C17.2352 1.76182 17.1498 1.84725 17.1498 2.01812C17.1498 2.18898 17.2352 2.27441 17.4061 2.27441Z" fill="black"/>
<path d="M1.50923 17.4334C1.50927 17.5283 1.54285 17.6094 1.60998 17.6765C1.67711 17.7436 1.75813 17.7771 1.85305 17.7771C1.94797 17.7771 2.02899 17.7436 2.09612 17.6765C2.16325 17.6094 2.19683 17.5283 2.19686 17.4334C2.19683 17.3385 2.16325 17.2575 2.09612 17.1904C2.02899 17.1233 1.94797 17.0897 1.85305 17.0897C1.75813 17.0897 1.67711 17.1233 1.60998 17.1904C1.54285 17.2575 1.50927 17.3385 1.50923 17.4334ZM1.46547 17.4897L1.47173 17.5834C1.47171 17.5855 1.47171 17.5876 1.47173 17.5897L1.47798 17.7147L1.46547 17.8835L1.41547 18.1273C1.41545 18.1294 1.41545 18.1315 1.41547 18.1336L1.3592 18.4399C1.35919 18.4419 1.35919 18.444 1.3592 18.4461L1.3092 18.7399L1.26544 19.0212L1.21543 19.265L1.15292 19.5151C1.1528 19.5213 1.1528 19.5276 1.15292 19.5338L1.10291 19.7964C1.10289 19.7985 1.10289 19.8005 1.10291 19.8026L1.05915 20.0652L1.01539 20.3152C1.01534 20.3194 1.01534 20.3236 1.01539 20.3277L0.977882 20.5653C0.977833 20.5694 0.977833 20.5736 0.977882 20.5778L0.952877 20.7903C0.952767 20.7966 0.952767 20.8028 0.952877 20.8091L0.934124 20.9903L0.921621 21.1341C0.921511 21.1404 0.921511 21.1466 0.921621 21.1529L0.91537 21.2779C0.914929 21.2904 0.914929 21.3029 0.91537 21.3154V21.4092C0.915321 21.4133 0.915321 21.4175 0.91537 21.4217V21.4904C0.917436 21.5179 0.921603 21.5449 0.927873 21.5717L0.934124 21.6155C0.951227 21.7095 0.990817 21.7928 1.0529 21.8655L1.05915 21.8718C1.20296 22.0359 1.3805 22.0907 1.59178 22.036C1.80306 21.9814 1.93182 21.8475 1.97807 21.6342L1.99057 21.578C1.99297 21.5676 1.99506 21.5572 1.99683 21.5467L2.01558 21.4217C2.01845 21.4051 2.02054 21.3884 2.02183 21.3717L2.03433 21.1779C2.03435 21.1758 2.03435 21.1737 2.03433 21.1716L2.04684 20.9341L2.06559 20.6403L2.09059 20.3215L2.1406 20.0214L2.20312 19.7464L2.28438 19.4901L2.3594 19.265C2.36403 19.2527 2.3682 19.2402 2.3719 19.2275L2.42191 19.0337C2.42688 19.0173 2.43105 19.0006 2.43441 18.9837L2.45941 18.8337C2.46358 18.8068 2.46567 18.7797 2.46567 18.7524V18.6462C2.46689 18.6253 2.46689 18.6045 2.46567 18.5836L2.45941 18.5211C2.44499 18.3964 2.3929 18.2901 2.30313 18.2023L2.29063 18.1898C2.16348 18.0615 2.01063 18.0111 1.83207 18.0387C1.65352 18.0662 1.52299 18.1604 1.44047 18.3211L1.42172 18.3586C1.40238 18.3964 1.38779 18.436 1.37796 18.4774L1.3592 18.5461C1.35612 18.5648 1.35404 18.5835 1.35295 18.6024L1.34045 18.6962L1.32795 18.7899L1.3092 18.9275L1.27794 19.1337L1.22793 19.4463L1.17167 19.8026C1.16953 19.8068 1.16745 19.8109 1.16542 19.8151L1.12166 20.1652C1.11713 20.1942 1.11505 20.2234 1.11541 20.2527L1.12791 20.5528C1.12861 20.5737 1.1307 20.5946 1.13416 20.6153L1.17167 20.8278C1.20696 21.0314 1.32728 21.1446 1.53262 21.1674C1.73797 21.1902 1.8802 21.1062 1.95932 20.9153L2.04058 20.7153C2.04757 20.701 2.05382 20.6864 2.05934 20.6715L2.1406 20.384C2.14559 20.3675 2.14976 20.3508 2.15311 20.334L2.22187 19.9839C2.22198 19.9777 2.22198 19.9714 2.22187 19.9652L2.27813 19.6151L2.32814 19.3025C2.33028 19.2984 2.33236 19.2942 2.33439 19.29L2.3594 19.0775C2.3615 19.0754 2.36358 19.0733 2.36565 19.0712L2.37815 18.9337C2.38025 18.9316 2.38233 18.9296 2.3844 18.9275L2.39065 18.8337L2.3969 18.7837L2.4094 18.7524C2.39676 18.7787 2.38634 18.8057 2.37815 18.8337L2.3969 18.7962C2.33613 18.7348 2.26465 18.6909 2.18246 18.6644C2.10027 18.6379 2.01659 18.6318 1.93143 18.6461C1.84627 18.6604 1.76917 18.6935 1.70014 18.7454C1.63111 18.7973 1.5779 18.8621 1.54049 18.94L1.55299 18.9525C1.53999 18.8253 1.4879 18.717 1.39671 18.6274L1.40296 18.6649V18.7024L1.38421 18.7899L1.3467 18.94L1.27794 19.1587C1.2758 19.1629 1.27372 19.1671 1.27169 19.1713L1.18417 19.4526C1.17967 19.4628 1.17551 19.4733 1.17167 19.4838L1.09665 19.7964C1.09378 19.8129 1.0917 19.8296 1.0904 19.8464L1.04039 20.1839C1.03811 20.1922 1.03602 20.2006 1.03414 20.2089L1.00289 20.5465C1.00278 20.5528 1.00278 20.559 1.00289 20.5653L0.984133 20.8716C0.984121 20.8737 0.984121 20.8757 0.984133 20.8778L0.971631 21.1154L0.96538 21.2842L0.952877 21.3717L0.940375 21.4092C1.01117 21.471 1.09265 21.5113 1.18481 21.5299C1.27697 21.5485 1.36768 21.543 1.45694 21.5135C1.5462 21.484 1.62226 21.4342 1.68512 21.3643C1.74798 21.2944 1.78937 21.2135 1.80929 21.1216L1.80304 21.1154C1.81516 21.2552 1.8735 21.3719 1.97807 21.4654V21.4529V21.4217C1.97812 21.4175 1.97812 21.4133 1.97807 21.4092V21.3217L1.98432 21.2154L1.99683 21.0716C1.99684 21.0695 1.99684 21.0674 1.99683 21.0654L2.00308 20.8966L2.02808 20.7028L2.05934 20.4715L2.09059 20.2215C2.09061 20.2194 2.09061 20.2173 2.09059 20.2152L2.12185 19.9527C2.12231 19.9401 2.12231 19.9276 2.12185 19.9151L2.13435 19.6526C2.13656 19.6464 2.13864 19.6401 2.1406 19.6338V19.3838L2.15936 19.1525L2.19686 18.8712L2.23437 18.5711C2.23438 18.5691 2.23438 18.567 2.23437 18.5649L2.27188 18.2586C2.27226 18.2482 2.27226 18.2377 2.27188 18.2273L2.28438 17.9585C2.28463 17.9502 2.28463 17.9419 2.28438 17.9335L2.27813 17.7147C2.27872 17.7022 2.27872 17.6897 2.27813 17.6772L2.25938 17.5272L2.25312 17.4397C2.24622 17.3309 2.20188 17.2405 2.12009 17.1685C2.03831 17.0965 1.94305 17.0639 1.8343 17.0709C1.72554 17.0778 1.63516 17.1221 1.56314 17.2039C1.49113 17.2857 1.45857 17.3809 1.46547 17.4897ZM1.3467 20.9153V21.0091C1.3467 21.1591 1.42172 21.2341 1.57175 21.2341C1.72177 21.2341 1.79679 21.1591 1.79679 21.0091V20.9153C1.79679 20.7653 1.72177 20.6903 1.57175 20.6903C1.42172 20.6903 1.3467 20.7653 1.3467 20.9153Z" fill="black"/>
<path d="M26.052 19.0775L26.0395 19.1275C26.0335 19.148 26.0294 19.1689 26.027 19.1901L26.0145 19.3213C26.0118 19.3337 26.0098 19.3462 26.0083 19.3588V19.5401C26.0082 19.5443 26.0082 19.5485 26.0083 19.5526L26.0145 19.7402V19.934L26.002 20.1715C26.0017 20.1819 26.0017 20.1923 26.002 20.2028V20.4528L25.9958 20.7028L25.9833 20.9279L25.9583 21.1592C25.9581 21.1675 25.9581 21.1759 25.9583 21.1842L25.9458 21.4217C25.9457 21.428 25.9457 21.4342 25.9458 21.4405L25.9395 21.6718C25.9394 21.678 25.9394 21.6843 25.9395 21.6905V21.9218C25.9413 21.9323 25.9434 21.9427 25.9458 21.9531L25.9645 22.3532C25.9645 22.3552 25.9645 22.3573 25.9645 22.3594L25.977 22.5094L25.9833 22.6407C25.9832 22.647 25.9832 22.6532 25.9833 22.6595L25.9895 22.7657L25.9833 22.8658C25.9829 22.8783 25.9829 22.8908 25.9833 22.9033L25.9895 23.0158C25.9895 23.02 25.9895 23.0241 25.9895 23.0283L25.9958 23.1158C25.9974 23.1305 25.9994 23.1451 26.002 23.1596L26.0083 23.2408C26.0103 23.2471 26.0124 23.2534 26.0145 23.2596L26.027 23.3283C26.0283 23.3472 26.0304 23.3659 26.0333 23.3846L26.052 23.4409C26.052 23.4471 26.052 23.4534 26.052 23.4596L26.0645 23.4909V23.5034C26.093 23.6138 26.1472 23.7096 26.2271 23.7909L26.2396 23.8034C26.3331 23.8993 26.4456 23.9597 26.5771 23.9847H26.5834C26.8038 24.0264 26.9934 23.9681 27.1523 23.8097L27.1585 23.8034C27.3231 23.6416 27.3815 23.4479 27.3335 23.2221V23.2096C27.3343 23.2475 27.3385 23.285 27.346 23.3221L27.3398 23.2971C27.3392 23.2077 27.3204 23.1222 27.2835 23.0408L27.2773 23.022C27.2733 23.0136 27.2691 23.0053 27.2648 22.997L27.2585 22.9845C27.2111 22.8948 27.1457 22.8209 27.0623 22.763C26.9789 22.7052 26.8869 22.6697 26.7862 22.6566C26.6855 22.6436 26.5875 22.6544 26.4921 22.6891C26.3967 22.7238 26.3146 22.7786 26.2458 22.8533L26.2333 22.8658C26.1866 22.9159 26.1491 22.9721 26.1208 23.0345L26.1021 23.0783C26.0774 23.1322 26.0607 23.1884 26.052 23.2471L26.0395 23.3158L26.027 23.3846L26.0083 23.4659C26.0061 23.4721 26.004 23.4783 26.002 23.4846L25.9833 23.5659C25.955 23.7049 25.9717 23.8382 26.0333 23.966L26.0458 24.0035C26.1171 24.1589 26.2341 24.2633 26.3966 24.3166C26.5591 24.37 26.7151 24.3552 26.8647 24.2723L26.9022 24.2535C27.0666 24.1644 27.1707 24.0289 27.2148 23.8472L27.2335 23.7659C27.2384 23.7494 27.2425 23.7328 27.246 23.7159L27.2585 23.6222L27.2773 23.5221C27.2773 23.518 27.2773 23.5138 27.2773 23.5096L27.2898 23.4221C27.271 23.4706 27.2585 23.5206 27.2523 23.5721L27.271 23.5284C27.2029 23.5898 27.1508 23.6628 27.1147 23.7472L27.1273 23.7347C27.0842 23.6454 27.0234 23.5705 26.9448 23.5101C26.8661 23.4498 26.7781 23.4103 26.6807 23.3919C26.5833 23.3734 26.487 23.3778 26.3917 23.4051C26.2964 23.4325 26.2123 23.4798 26.1396 23.5471L26.1458 23.5596C26.135 23.5097 26.1184 23.4617 26.0958 23.4159L26.1021 23.4346C26.1029 23.3883 26.0988 23.3425 26.0896 23.2971L26.0833 23.3221C26.0908 23.285 26.095 23.2475 26.0958 23.2096V23.2221C26.3853 23.1792 26.5603 23.0145 26.6209 22.7282H26.6084C26.6 22.7301 26.5917 22.7322 26.5834 22.7345H26.5771C26.7355 22.8881 26.923 22.9443 27.1398 22.9033L27.1273 22.8908C27.1606 22.9715 27.2085 23.0423 27.271 23.1033L27.2648 23.0845C27.2718 23.108 27.2801 23.1309 27.2898 23.1533L27.2835 23.1346L27.2773 23.1033L27.2648 23.0408L27.2523 22.997V22.9408L27.246 22.8533L27.2398 22.7407C27.2398 22.7366 27.2398 22.7324 27.2398 22.7282L27.2335 22.597C27.2336 22.5928 27.2336 22.5886 27.2335 22.5845L27.2273 22.4407C27.2274 22.4344 27.2274 22.4282 27.2273 22.4219L27.2085 22.2594C27.2085 22.2573 27.2085 22.2552 27.2085 22.2531L27.171 21.8531L27.146 21.6218C27.1445 21.6071 27.1424 21.5925 27.1398 21.578L27.1022 21.353L27.0647 21.1279L27.0335 20.9029L27.0022 20.6653L26.971 20.3965C26.971 20.3924 26.971 20.3882 26.971 20.384L26.9397 20.134C26.9367 20.115 26.9325 20.0962 26.9272 20.0777L26.8647 19.8402L26.8147 19.6589L26.7897 19.4964L26.7772 19.3338C26.7762 19.317 26.7741 19.3004 26.7709 19.2838L26.7459 19.1526C26.7441 19.1441 26.7421 19.1358 26.7397 19.1275L26.7272 19.0775C26.6801 18.906 26.5675 18.8202 26.3896 18.8202C26.2117 18.8202 26.0992 18.906 26.052 19.0775ZM26.1458 23.7722C26.1458 23.8896 26.1873 23.9898 26.2703 24.0728C26.3533 24.1558 26.4535 24.1973 26.5709 24.1973C26.6883 24.1973 26.7885 24.1558 26.8715 24.0728C26.9545 23.9898 26.996 23.8896 26.996 23.7722C26.996 23.6548 26.9545 23.5546 26.8715 23.4716C26.7885 23.3886 26.6883 23.3471 26.5709 23.3471C26.4535 23.3471 26.3533 23.3886 26.2703 23.4716C26.1873 23.5546 26.1458 23.6548 26.1458 23.7722ZM26.8022 23.7034L26.7959 23.6784C26.7584 23.52 26.6605 23.4596 26.5021 23.4971C26.3438 23.5346 26.2833 23.6326 26.3208 23.7909L26.3271 23.8159C26.3646 23.9743 26.4625 24.0347 26.6209 23.9972C26.7793 23.9597 26.8397 23.8618 26.8022 23.7034Z" fill="black"/>
<path d="M9.42984 32.8866C9.42984 33.07 9.52153 33.1617 9.7049 33.1617C9.88826 33.1617 9.97995 33.07 9.97995 32.8866C9.97995 32.7033 9.88826 32.6116 9.7049 32.6116C9.52153 32.6116 9.42984 32.7033 9.42984 32.8866ZM9.32357 32.8866C9.32357 32.9902 9.36019 33.0786 9.43343 33.1519C9.50667 33.2251 9.59507 33.2617 9.69865 33.2617C9.80222 33.2617 9.89062 33.2251 9.96386 33.1519C10.0371 33.0786 10.0737 32.9902 10.0737 32.8866C10.0737 32.7831 10.0371 32.6947 9.96386 32.6214C9.89062 32.5482 9.80222 32.5116 9.69865 32.5116C9.59507 32.5116 9.50667 32.5482 9.43343 32.6214C9.36019 32.6947 9.32357 32.7831 9.32357 32.8866ZM9.24231 32.8929C9.24231 33.0189 9.28686 33.1265 9.37597 33.2156C9.46507 33.3047 9.57263 33.3492 9.69865 33.3492C9.82466 33.3492 9.93222 33.3047 10.0213 33.2156C10.1104 33.1265 10.155 33.0189 10.155 32.8929C10.155 32.7669 10.1104 32.6593 10.0213 32.5702C9.93222 32.4811 9.82466 32.4366 9.69865 32.4366C9.57263 32.4366 9.46507 32.4811 9.37597 32.5702C9.28686 32.6593 9.24231 32.7669 9.24231 32.8929ZM9.17355 32.7679L9.16104 32.8116C9.12436 32.9546 9.13895 33.0921 9.2048 33.2242L9.25481 33.3305C9.26401 33.3519 9.27443 33.3728 9.28607 33.393L9.37983 33.5305C9.38565 33.5432 9.3919 33.5557 9.39859 33.568L9.52986 33.7305C9.5319 33.7347 9.53398 33.7389 9.53611 33.7431L9.68614 33.9368C9.70351 33.9589 9.72226 33.9798 9.7424 33.9993L9.94244 34.1994C9.95062 34.2058 9.95896 34.2121 9.96745 34.2181L10.18 34.4119C10.194 34.4251 10.2086 34.4376 10.2237 34.4494L10.4613 34.6307L10.6926 34.8058L10.9051 34.962L11.0802 35.0933L11.2177 35.2183L11.349 35.3496L11.4677 35.4746L11.5803 35.5934C11.5884 35.6019 11.5967 35.6103 11.6053 35.6184L11.7115 35.7247C11.7197 35.7311 11.7281 35.7374 11.7365 35.7434L11.8366 35.8309C11.8601 35.8535 11.8851 35.8743 11.9116 35.8935L12.0178 35.9622C12.0555 35.9868 12.095 36.0076 12.1366 36.0247L12.2054 36.056L12.2304 36.0685V36.0622L12.2366 36.0747L12.2866 36.1373C12.3042 36.1592 12.3229 36.18 12.3429 36.1998L12.4054 36.2623C12.4095 36.2665 12.4137 36.2707 12.4179 36.2748L12.4679 36.3248L12.5179 36.3748C12.52 36.3769 12.5221 36.379 12.5242 36.3811L12.5867 36.4436C12.6007 36.4588 12.6152 36.4734 12.6305 36.4873L12.693 36.5373C12.7301 36.5662 12.7697 36.5912 12.8117 36.6123L12.8805 36.6499C12.9318 36.6795 12.986 36.7024 13.043 36.7186L13.1118 36.7311C13.1139 36.7332 13.1159 36.7353 13.118 36.7374L13.1493 36.7436H13.1556L13.1931 36.7624L13.1993 36.7686L13.2243 36.7811C13.1932 36.7532 13.1598 36.7282 13.1243 36.7061L13.1618 36.7436C13.18 36.757 13.1987 36.7695 13.2181 36.7811L13.2618 36.8186C13.4023 36.9334 13.563 36.9862 13.7442 36.9771C13.9253 36.9679 14.0799 36.8993 14.2082 36.771C14.3364 36.6428 14.4051 36.4881 14.4142 36.307C14.4233 36.1259 14.3705 35.9651 14.2558 35.8247L14.2183 35.7809C14.1841 35.7323 14.1445 35.6885 14.0995 35.6497L14.0557 35.6122C14.0338 35.5941 14.0109 35.5775 13.987 35.5621L13.937 35.5309C13.9328 35.5288 13.9286 35.5267 13.9245 35.5246L13.8744 35.4934C13.8328 35.4681 13.789 35.4473 13.7432 35.4309L13.6932 35.4121L13.6369 35.3871C13.6064 35.3745 13.5751 35.3641 13.5431 35.3559L13.4806 35.3434L13.4244 35.3246C13.472 35.3511 13.522 35.372 13.5744 35.3871L13.5494 35.3746L13.5681 35.3934L13.5431 35.3621C13.5411 35.36 13.539 35.3579 13.5369 35.3559L13.4806 35.2996C13.4686 35.2866 13.4561 35.2741 13.4431 35.2621L13.3994 35.2246H13.3931L13.3618 35.1808C13.3463 35.1591 13.3297 35.1382 13.3118 35.1183L13.2306 35.037C13.1999 35.0048 13.1666 34.9756 13.1305 34.9495L13.0368 34.8808C12.9974 34.8537 12.9557 34.8308 12.9118 34.812L12.8117 34.762C12.8014 34.7576 12.791 34.7534 12.7805 34.7495L12.7367 34.7307H12.7305L12.6742 34.6807L12.5929 34.6057L12.4867 34.4994C12.4826 34.4931 12.4784 34.4869 12.4742 34.4807L12.3429 34.3494C12.3388 34.3452 12.3346 34.341 12.3304 34.3369L12.1741 34.1994C12.162 34.1885 12.1495 34.1781 12.1366 34.1681L11.9616 34.0244C11.9397 34.0063 11.9168 33.9896 11.8928 33.9743L11.6865 33.8431C11.6824 33.8409 11.6782 33.8389 11.674 33.8368L11.449 33.6993C11.4469 33.6972 11.4448 33.6951 11.4427 33.693L11.2052 33.5555L10.9989 33.4117L10.8051 33.2555L10.6051 33.0742C10.6009 33.072 10.5968 33.07 10.5926 33.0679L10.4363 32.9366L10.3613 32.8491L10.2988 32.7491C10.2988 32.747 10.2988 32.7449 10.2988 32.7429L10.2362 32.6491C10.1569 32.5246 10.0465 32.4412 9.90493 32.399L9.86118 32.3865C9.71339 32.3425 9.57206 32.3578 9.43718 32.4326C9.30231 32.5074 9.21443 32.6192 9.17355 32.7679ZM13.1493 36.2873C13.1493 36.4461 13.2055 36.5817 13.3177 36.6939C13.43 36.8062 13.5656 36.8624 13.7244 36.8624C13.8832 36.8624 14.0188 36.8062 14.1311 36.6939C14.2434 36.5817 14.2995 36.4461 14.2995 36.2873C14.2995 36.1285 14.2434 35.9929 14.1311 35.8806C14.0188 35.7683 13.8832 35.7122 13.7244 35.7122C13.5656 35.7122 13.43 35.7683 13.3177 35.8806C13.2055 35.9929 13.1493 36.1285 13.1493 36.2873ZM13.6682 36.5498L13.6994 36.5623C13.848 36.6122 13.9518 36.5645 14.0107 36.4192C14.0696 36.2739 14.0284 36.1674 13.8869 36.0997L13.8557 36.0872C13.7071 36.0373 13.6033 36.085 13.5444 36.2303C13.4855 36.3756 13.5267 36.4821 13.6682 36.5498Z" fill="black"/>
<path d="M13.3181 36.006C13.3181 36.1061 13.3535 36.1916 13.4243 36.2624C13.4951 36.3332 13.5805 36.3685 13.6807 36.3685C13.7808 36.3685 13.8662 36.3332 13.937 36.2624C14.0078 36.1916 14.0432 36.1061 14.0432 36.006C14.0432 35.9059 14.0078 35.8204 13.937 35.7496C13.8662 35.6788 13.7808 35.6434 13.6807 35.6434C13.5805 35.6434 13.4951 35.6788 13.4243 35.7496C13.3535 35.8204 13.3181 35.9059 13.3181 36.006ZM13.5306 35.6684L13.5056 35.6747C13.3406 35.7433 13.2468 35.8662 13.2243 36.0435L13.2118 36.131C13.2089 36.1476 13.2068 36.1642 13.2056 36.181L13.1993 36.2685C13.1991 36.2769 13.1991 36.2852 13.1993 36.2935V36.3811C13.1993 36.4083 13.2014 36.4354 13.2056 36.4623L13.2181 36.5498C13.2199 36.5582 13.222 36.5666 13.2243 36.5748L13.2431 36.6499C13.245 36.6561 13.2471 36.6624 13.2493 36.6686L13.2618 36.7249C13.2711 36.6553 13.267 36.5865 13.2493 36.5186L13.2431 36.5623C13.2238 36.6992 13.2513 36.826 13.3255 36.9427C13.3997 37.0593 13.5028 37.138 13.635 37.1786C13.7672 37.2192 13.8967 37.212 14.0236 37.1571C14.1505 37.1022 14.2444 37.0127 14.3053 36.8886C14.3662 36.7645 14.3795 36.6354 14.3453 36.5015C14.3111 36.3675 14.2375 36.2607 14.1245 36.181L14.0932 36.156C14.1318 36.2503 14.1922 36.3274 14.2745 36.3873L14.2683 36.3623L14.2558 36.3185C14.2537 36.3143 14.2517 36.3102 14.2495 36.306L14.2245 36.231C14.2196 36.2098 14.2133 36.189 14.2058 36.1685L14.1807 36.1123L14.162 36.0497C14.1565 36.0348 14.1502 36.0203 14.1432 36.006L14.1057 35.9247C14.0569 35.8069 13.9735 35.7235 13.8557 35.6747L13.8307 35.6684C13.7307 35.6287 13.6306 35.6287 13.5306 35.6684ZM13.4556 37.1124L13.4806 37.1312C13.66 37.2748 13.858 37.3081 14.0745 37.2312L14.1432 37.2062C14.2017 37.185 14.2559 37.1558 14.3058 37.1187L14.3995 37.0499C14.4238 37.0328 14.4467 37.014 14.4683 36.9937L14.5933 36.8749C14.6019 36.8668 14.6102 36.8585 14.6183 36.8499L14.7684 36.6936L14.9309 36.5311L15.0934 36.3748L15.2622 36.2185C15.273 36.2085 15.2834 36.198 15.2935 36.1873L15.4622 36.0122C15.4686 36.0061 15.4749 35.9999 15.481 35.9935L15.6435 35.8059C15.6456 35.8039 15.6477 35.8018 15.6498 35.7997L15.8061 35.6059L15.9498 35.4434C16.022 35.3584 16.0636 35.2605 16.0749 35.1496L16.0874 35.0308L16.1124 34.937C16.1409 34.8114 16.1096 34.7031 16.0185 34.6121C15.9274 34.521 15.8191 34.4897 15.6935 34.5182L15.5873 34.5432L15.4622 34.562C15.3607 34.5779 15.2711 34.6196 15.1934 34.687L15.0434 34.8183L14.8746 34.9433L14.6808 35.0621C14.6724 35.0681 14.664 35.0743 14.6558 35.0808L14.4621 35.2183C14.4425 35.2319 14.4237 35.2465 14.4058 35.2621L14.2245 35.4246C14.2181 35.4307 14.2119 35.437 14.2058 35.4434L14.0307 35.6122C14.0265 35.6142 14.0224 35.6163 14.0182 35.6184L13.8494 35.7872C13.8473 35.7893 13.8453 35.7913 13.8432 35.7934L13.6869 35.956C13.6848 35.958 13.6827 35.9601 13.6807 35.9622L13.5806 36.0685L13.5119 36.131C13.5077 36.133 13.5035 36.1351 13.4994 36.1373L13.4494 36.1873C13.4166 36.2175 13.3874 36.2508 13.3618 36.2873L13.3431 36.3123C13.2526 36.4394 13.2183 36.5803 13.24 36.7348C13.2617 36.8893 13.3336 37.0152 13.4556 37.1124ZM15.9998 34.9745L16.0436 34.937C16.1645 34.8328 16.1728 34.7203 16.0686 34.5995C15.9644 34.4786 15.8519 34.4703 15.731 34.5745L15.6873 34.612C15.5664 34.7162 15.5581 34.8287 15.6623 34.9495C15.7665 35.0704 15.879 35.0787 15.9998 34.9745Z" fill="black"/>
<path d="M13.9495 36.5373C13.9495 36.6357 13.9843 36.7197 14.0539 36.7892C14.1234 36.8588 14.2074 36.8936 14.3058 36.8936C14.4042 36.8936 14.4882 36.8588 14.5578 36.7892C14.6273 36.7197 14.6621 36.6357 14.6621 36.5373C14.6621 36.4389 14.6273 36.3549 14.5578 36.2853C14.4882 36.2158 14.4042 36.181 14.3058 36.181C14.2074 36.181 14.1234 36.2158 14.0539 36.2853C13.9843 36.3549 13.9495 36.4389 13.9495 36.5373ZM13.9057 36.5373C13.9057 36.6495 13.9454 36.7453 14.0247 36.8246C14.1041 36.9039 14.1999 36.9436 14.3121 36.9436C14.4243 36.9436 14.52 36.9039 14.5994 36.8246C14.6787 36.7453 14.7184 36.6495 14.7184 36.5373C14.7184 36.4251 14.6787 36.3293 14.5994 36.25C14.52 36.1706 14.4243 36.131 14.3121 36.131C14.1999 36.131 14.1041 36.1706 14.0247 36.25C13.9454 36.3293 13.9057 36.4251 13.9057 36.5373ZM13.8495 36.531C13.8495 36.664 13.8965 36.7774 13.9905 36.8714C14.0844 36.9654 14.1979 37.0124 14.3308 37.0124C14.4637 37.0124 14.5772 36.9654 14.6712 36.8714C14.7652 36.7774 14.8122 36.664 14.8122 36.531C14.8122 36.3981 14.7652 36.2847 14.6712 36.1907C14.5772 36.0967 14.4637 36.0497 14.3308 36.0497C14.1979 36.0497 14.0844 36.0967 13.9905 36.1907C13.8965 36.2847 13.8495 36.3981 13.8495 36.531ZM14.3558 37.0811H14.4183C14.5411 37.0823 14.6536 37.049 14.7559 36.9811L14.8684 36.9061C14.8973 36.8876 14.9244 36.8667 14.9497 36.8436L15.1122 36.6873C15.1143 36.6832 15.1164 36.679 15.1185 36.6748L15.3435 36.456C15.3456 36.454 15.3477 36.4519 15.3498 36.4498L15.5873 36.206L15.8374 35.9559C15.8416 35.9518 15.8458 35.9477 15.8499 35.9434L16.0812 35.6934C16.1095 35.6648 16.1345 35.6335 16.1562 35.5996L16.3187 35.3308C16.3255 35.3186 16.3317 35.3061 16.3374 35.2933L16.4562 35.0433C16.463 35.0331 16.4692 35.0227 16.475 35.012L16.5312 34.8495L16.625 34.762C16.7184 34.6413 16.713 34.5252 16.6087 34.4138C16.5045 34.3024 16.3891 34.2892 16.2624 34.3744L16.1624 34.4681L15.9999 34.5244C15.9915 34.5262 15.9831 34.5283 15.9749 34.5307L15.7248 34.6369C15.7099 34.6425 15.6954 34.6487 15.6811 34.6557L15.3998 34.8057C15.3689 34.8218 15.3397 34.8405 15.3123 34.862L15.0497 35.0745C15.0368 35.0844 15.0243 35.0948 15.0122 35.1058L14.7496 35.3558C14.7475 35.3579 14.7455 35.36 14.7434 35.3621L14.4996 35.5996L14.2808 35.8059L14.1308 35.9434L14.0308 36.0309C13.9982 36.0591 13.9691 36.0903 13.9432 36.1247L13.9057 36.1747C13.7683 36.3611 13.7511 36.5579 13.8541 36.7653C13.957 36.9727 14.1243 37.078 14.3558 37.0811Z" fill="black"/>
<path d="M11.8429 32.0615C11.8429 32.2782 11.9513 32.3866 12.168 32.3866C12.3847 32.3866 12.4931 32.2782 12.4931 32.0615C12.4931 31.8448 12.3847 31.7364 12.168 31.7364C11.9513 31.7364 11.8429 31.8448 11.8429 32.0615ZM11.8554 32.2428L11.8617 32.2553C11.8567 32.2382 11.8504 32.2215 11.8429 32.2053L11.8554 32.2428C11.8536 32.2086 11.8474 32.1753 11.8367 32.1428V32.2053C11.8428 32.2558 11.8574 32.3037 11.8804 32.349L11.9242 32.4491C11.9381 32.4779 11.9547 32.505 11.9742 32.5303L12.068 32.6554C12.072 32.6617 12.0762 32.668 12.0805 32.6741L12.1993 32.8241C12.2111 32.8373 12.2236 32.8498 12.2368 32.8616L12.393 33.0179L12.5556 33.1805C12.5576 33.1826 12.5597 33.1846 12.5618 33.1867L12.7306 33.3492C12.7326 33.3534 12.7347 33.3576 12.7369 33.3617L12.8931 33.5055C12.9013 33.512 12.9096 33.5183 12.9181 33.5243L13.0557 33.6368C13.0659 33.6434 13.0763 33.6497 13.0869 33.6555L13.2057 33.7431C13.2295 33.7598 13.2545 33.7744 13.2807 33.7868L13.387 33.8368C13.427 33.8548 13.4687 33.8673 13.512 33.8743L13.5933 33.8931C13.5954 33.8931 13.5974 33.8931 13.5995 33.8931L13.6683 33.9056C13.7469 33.9185 13.824 33.9122 13.8996 33.8868L13.9496 33.8681L14.1184 33.8181C14.1423 33.8098 14.1652 33.7994 14.1871 33.7868L14.2121 33.7743C14.2142 33.7743 14.2163 33.7743 14.2184 33.7743L14.2621 33.7493C14.2707 33.7434 14.2791 33.7371 14.2872 33.7306L14.3372 33.7056L14.3934 33.6681C14.4064 33.6604 14.4189 33.6521 14.4309 33.643L14.4934 33.593C14.4998 33.589 14.5061 33.5849 14.5122 33.5805L14.5935 33.5118C14.6044 33.5019 14.6148 33.4915 14.6247 33.4805L14.7247 33.3805L14.8435 33.2742C14.8457 33.2701 14.8477 33.2659 14.8498 33.2617L14.9748 33.143C14.9748 33.1409 14.9748 33.1388 14.9748 33.1367L15.0811 33.0304C15.1243 32.987 15.1577 32.937 15.1811 32.8804L15.2561 32.6866C15.3181 32.5378 15.2932 32.4053 15.1815 32.2891C15.0698 32.173 14.9384 32.1429 14.7872 32.199L14.5935 32.2678C14.5294 32.2908 14.4731 32.3262 14.4247 32.3741L14.3184 32.4803C14.312 32.4864 14.3057 32.4926 14.2997 32.4991L14.1809 32.6304C14.1722 32.6384 14.1639 32.6467 14.1559 32.6554L14.0621 32.7866L13.9683 32.8992C13.964 32.9053 13.9598 32.9115 13.9558 32.9179L13.8933 33.0054L13.8808 33.0242L13.8558 33.0367C13.8537 33.0387 13.8516 33.0408 13.8496 33.0429L13.8308 33.0617L13.8246 33.0679C13.9257 33.0977 14.0237 33.0894 14.1184 33.0429L13.9496 32.9929L13.9121 32.9804L13.8996 32.9742L13.8746 32.9554L13.7996 32.9054L13.6995 32.8304L13.5808 32.7366L13.437 32.6053L13.2745 32.4491C13.2724 32.447 13.2703 32.4449 13.2682 32.4428L13.0932 32.2803C13.0831 32.2715 13.0727 32.2632 13.0619 32.2553L12.8931 32.124L12.7619 32.0177L12.6556 31.9177C12.638 31.9017 12.6192 31.8871 12.5993 31.874L12.5056 31.8114C12.4596 31.781 12.4095 31.7602 12.3555 31.7489L12.3243 31.7427L12.3118 31.7364C12.328 31.7439 12.3447 31.7501 12.3618 31.7552L12.3493 31.7489C12.1895 31.6589 12.0447 31.6787 11.915 31.8085C11.7852 31.9382 11.7654 32.0829 11.8554 32.2428ZM15.1373 32.6804L15.1873 32.6366C15.3122 32.5282 15.3204 32.4116 15.2122 32.2867C15.1039 32.1618 14.9873 32.1534 14.8623 32.2615L14.8123 32.3053C14.6874 32.4137 14.6791 32.5303 14.7874 32.6552C14.8957 32.7801 15.0123 32.7885 15.1373 32.6804Z" fill="black"/>
</g>
<defs>
<clipPath id="clip0_1_7430">
<rect width="29" height="38" fill="white"/>
</clipPath>
</defs>
</svg>
