<svg width="20" height="46" viewBox="0 0 20 46" fill="none" xmlns="http://www.w3.org/2000/svg">
<g clip-path="url(#clip0_1_7344)">
<path d="M11.1208 14.9046L11.1271 14.8859C11.1293 14.8818 11.1314 14.8776 11.1333 14.8734L11.1458 14.8296L11.1646 14.7734C11.1675 14.7631 11.1696 14.7527 11.1708 14.7421L11.1833 14.6733C11.1864 14.6525 11.1864 14.6317 11.1833 14.6108L11.1771 14.5671L11.1833 14.5421C11.1902 14.432 11.145 14.3512 11.0476 14.2996C10.9502 14.2479 10.8579 14.2558 10.7707 14.3233L10.677 14.392C10.6214 14.4362 10.5839 14.4925 10.5644 14.5608L10.3957 15.1359C10.3926 15.1525 10.3905 15.1691 10.3894 15.1859L10.1644 16.5112C10.1642 16.5174 10.1642 16.5237 10.1644 16.5299L9.88932 18.6116C9.88718 18.6157 9.8851 18.6199 9.88307 18.6241L9.61426 21.2121C9.61416 21.2183 9.61416 21.2246 9.61426 21.2308L9.40172 24.0439C9.40171 24.0459 9.40171 24.048 9.40172 24.0501L9.22669 26.9069L9.05791 29.6387C9.05785 29.6428 9.05785 29.647 9.05791 29.6512L8.94539 32.1454C8.94527 32.1517 8.94527 32.1579 8.94539 32.1642L8.92038 34.3958C8.92008 34.4063 8.92008 34.4167 8.92038 34.4271L9.00165 36.3024C9.0016 36.3066 9.0016 36.3108 9.00165 36.3149L9.10792 37.7902C9.10781 37.7965 9.10781 37.8027 9.10792 37.809L9.22044 38.9404C9.22043 38.9425 9.22043 38.9446 9.22044 38.9467L9.31421 39.7781C9.31419 39.7802 9.31419 39.7823 9.31421 39.7844L9.38297 40.347L9.42048 40.7033C9.42386 40.7202 9.42803 40.7368 9.43298 40.7533L9.47049 40.9533L9.48299 41.0283V41.0409C9.56299 40.9377 9.59841 40.821 9.58926 40.6908L9.57676 40.7095C9.49414 40.8102 9.45603 40.9256 9.46242 41.0556C9.46881 41.1857 9.51804 41.2967 9.61011 41.3888C9.70219 41.4809 9.81326 41.5301 9.94332 41.5365C10.0734 41.5429 10.1887 41.5048 10.2894 41.4222L10.3081 41.4097C10.43 41.3166 10.4966 41.1937 10.5082 41.0409V40.9971L10.5144 40.8908C10.5146 40.8825 10.5146 40.8742 10.5144 40.8658L10.5207 40.6595C10.5221 40.6366 10.5221 40.6137 10.5207 40.5908L10.4832 40.2282C10.4832 40.224 10.4832 40.2199 10.4832 40.2157L10.4144 39.6531L10.3206 38.8217L10.1956 37.7027L10.0769 36.2462L9.99559 34.3833L9.95808 32.1704L10.0206 29.6887L10.1519 26.9694L10.3832 24.1251L10.6895 21.3246L10.9708 18.7366C10.9708 18.7324 10.9708 18.7283 10.9708 18.7241L11.1458 16.6362C11.1459 16.632 11.1459 16.6279 11.1458 16.6237L11.2208 15.2797C11.2212 15.2693 11.2212 15.2589 11.2208 15.2484L11.2146 14.6483C11.2138 14.6207 11.2096 14.5936 11.2021 14.5671L11.1708 14.4545C11.0717 14.4078 10.9803 14.4198 10.8965 14.4903C10.8127 14.5609 10.7853 14.649 10.8145 14.7546L10.852 14.7734C10.8303 14.7229 10.7949 14.6854 10.7457 14.6608L10.7645 14.6983L10.7582 14.7233L10.7457 14.7671V14.7796C10.7266 14.8923 10.7713 14.9667 10.8797 15.0028C10.9881 15.039 11.0685 15.0062 11.1208 14.9046ZM10.1831 40.9096L10.1706 40.8783C10.1042 40.7575 10.0073 40.7233 9.87983 40.7758C9.75234 40.8283 9.70758 40.9208 9.74554 41.0534L9.75804 41.0846C9.82442 41.2054 9.92135 41.2396 10.0488 41.1871C10.1763 41.1346 10.2211 41.0421 10.1831 40.9096Z" fill="black"/>
<path d="M8.79544 32.6643L8.61416 33.4082C8.6047 33.4388 8.59845 33.47 8.59541 33.5019L8.55165 34.5771C8.55153 34.5834 8.55153 34.5897 8.55165 34.5959L8.5579 36.1149C8.55789 36.117 8.55789 36.1191 8.5579 36.1212L8.58916 37.8903L8.61416 39.7219C8.61412 39.726 8.61412 39.7302 8.61416 39.7344L8.66417 41.4222C8.66406 41.4285 8.66406 41.4347 8.66417 41.441L8.75169 42.8225C8.75459 42.8436 8.75875 42.8644 8.76419 42.885L8.93922 43.8789L9.05174 44.4728C9.05439 44.4919 9.05856 44.5106 9.06425 44.529L9.13926 44.7478C9.18905 44.8912 9.28972 44.9666 9.44128 44.9742C9.59284 44.9818 9.70054 44.9168 9.76438 44.7791L9.80189 44.6978C9.81614 44.6638 9.82447 44.6284 9.82689 44.5916L9.8519 44.3353C9.85641 44.2974 9.85433 44.2599 9.84564 44.2227L9.77688 43.9602V43.6976C9.75219 43.5781 9.67883 43.5166 9.55679 43.5132C9.43475 43.5098 9.35808 43.5671 9.3268 43.6851L9.32054 43.9414L9.22678 44.1977C9.22056 44.2182 9.21639 44.239 9.21427 44.2602L9.18927 44.4353L9.18302 44.4415C9.20722 44.5896 9.29231 44.6809 9.43828 44.7155C9.58425 44.7501 9.70128 44.7067 9.78938 44.5853L9.75813 44.379L9.74563 43.8102L9.80189 42.8225C9.80233 42.81 9.80233 42.7975 9.80189 42.785L9.77688 41.3972C9.77693 41.393 9.77693 41.3889 9.77688 41.3847L9.72687 39.6969L9.67686 37.8715L9.6331 36.1024L9.58935 34.5834C9.5894 34.5792 9.5894 34.5751 9.58935 34.5709L9.53309 33.4957C9.52963 33.4659 9.52338 33.4367 9.51433 33.4082L9.33305 32.6643C9.29225 32.532 9.20265 32.4659 9.06425 32.4659C8.92585 32.4659 8.83625 32.532 8.79544 32.6643Z" fill="black"/>
<path d="M9.69556 27.9196L9.68306 26.8944V26.3881C9.68317 26.3839 9.68317 26.3798 9.68306 26.3756L9.65806 25.9318L9.67056 25.5754C9.67473 25.4421 9.61013 25.3733 9.47677 25.3691C9.34341 25.365 9.27465 25.4296 9.27048 25.5629L9.25798 25.9193L9.22047 26.3693C9.22036 26.3735 9.22036 26.3777 9.22047 26.3818L9.20797 26.8882C9.20795 26.8903 9.20795 26.8924 9.20797 26.8944L9.19547 27.9196C9.19535 28.0864 9.2787 28.1699 9.44552 28.1699C9.61233 28.1699 9.69568 28.0864 9.69556 27.9196Z" fill="black"/>
<path d="M9.49562 24.4689C9.49562 24.6231 9.57271 24.7002 9.72691 24.7002C9.88111 24.7002 9.9582 24.6231 9.9582 24.4689C9.9582 24.3147 9.88111 24.2377 9.72691 24.2377C9.57271 24.2377 9.49562 24.3147 9.49562 24.4689ZM9.49562 24.3564L9.35184 24.6315C9.34168 24.6494 9.33335 24.6682 9.32683 24.6877L9.08929 25.4629C9.08404 25.4793 9.07988 25.496 9.07679 25.5129L8.82674 26.9257C8.82441 26.9339 8.82233 26.9423 8.82049 26.9507L8.57669 28.9636C8.57656 28.9698 8.57656 28.9761 8.57669 28.9823L8.37665 31.3703C8.37664 31.3723 8.37664 31.3744 8.37665 31.3765L8.22662 33.8895C8.22448 33.8936 8.2224 33.8978 8.22037 33.902L8.13286 36.3525C8.1328 36.3566 8.1328 36.3608 8.13286 36.365L8.1016 38.6029C8.10155 38.6071 8.10155 38.6112 8.1016 38.6154L8.13286 40.5283C8.13201 40.5449 8.13201 40.5616 8.13286 40.5783L8.30789 42.0785C8.30782 42.0827 8.30782 42.0869 8.30789 42.091L8.46417 43.1663C8.46553 43.1789 8.46762 43.1914 8.47042 43.2038L8.64545 43.8601L8.70797 44.2227C8.75033 44.3463 8.83593 44.3973 8.96478 44.3758C9.09363 44.3544 9.15805 44.2783 9.15805 44.1477L9.10179 43.7914L9.12054 43.1225C9.12062 43.1183 9.12062 43.1142 9.12054 43.11L9.10179 42.0348L9.12054 40.5283C9.12059 40.5241 9.12059 40.5199 9.12054 40.5157L9.08929 38.6091L9.10804 36.3775L9.18306 33.9395L9.31433 31.439L9.50187 29.0636L9.70816 27.0569L9.87069 25.6254L9.95195 24.8128C9.95228 24.8044 9.95228 24.7961 9.95195 24.7878L9.9582 24.4752C9.96462 24.3429 9.90366 24.2602 9.77532 24.2273C9.64699 24.1943 9.55375 24.2374 9.49562 24.3564Z" fill="black"/>
<path d="M9.4018 29.4137L9.4143 29.3637C9.41452 29.3574 9.41452 29.3512 9.4143 29.3449L9.42055 29.2824C9.26452 29.2854 9.17909 29.3646 9.16425 29.52H9.183C9.25519 29.4195 9.26247 29.3146 9.20486 29.2051C9.14726 29.0957 9.05662 29.0422 8.93296 29.0449L8.85794 29.1449C8.82889 29.1847 8.80805 29.2285 8.79543 29.2762L8.6454 29.8388C8.63731 29.8633 8.63105 29.8883 8.62665 29.9138L8.48912 31.114C8.48895 31.1224 8.48895 31.1307 8.48912 31.139L8.35785 32.8706C8.3578 32.8748 8.3578 32.8789 8.35785 32.8831L8.24533 34.946C8.24528 34.9502 8.24528 34.9543 8.24533 34.9585L8.18281 37.1277C8.18272 37.1339 8.18272 37.1402 8.18281 37.1464L8.17656 39.2093L8.18281 40.9971C8.1828 40.9992 8.1828 41.0013 8.18281 41.0034L8.20157 42.4037C8.20156 42.4058 8.20156 42.4078 8.20157 42.4099L8.22032 43.3914C8.22015 43.3997 8.22015 43.408 8.22032 43.4164L8.25783 44.0352C8.25905 44.0541 8.26113 44.0728 8.26408 44.0915L8.31409 44.4165C8.32737 44.4997 8.35655 44.5768 8.40161 44.6478L8.47662 44.7666C8.5637 44.9061 8.68751 44.9936 8.84803 45.0291C9.00856 45.0646 9.15772 45.0376 9.29553 44.9479L9.32678 44.9291C9.40346 44.8798 9.46389 44.8152 9.50807 44.7354L9.53307 44.6916C9.63896 44.5007 9.62854 44.3164 9.50179 44.1387C9.37505 43.9609 9.20419 43.891 8.98922 43.929L8.93921 43.9352C9.04318 44.2219 9.2453 44.3386 9.54557 44.2853L9.53932 44.279L9.52057 44.204L9.48306 43.9415L9.45806 43.3601L9.4393 42.3849L9.42055 40.9909L9.4143 39.2093L9.43305 37.1589L9.48306 34.996L9.57058 32.9394L9.65184 31.2078C9.65398 31.2036 9.65606 31.1995 9.6581 31.1953L9.67685 29.9888C9.67837 29.9532 9.67629 29.9177 9.6706 29.8825L9.56433 29.3074C9.55386 29.248 9.53094 29.1938 9.49556 29.1449L9.42055 29.0449C9.30383 28.8826 9.16426 28.8597 9.00186 28.9763C8.83945 29.0929 8.81648 29.2324 8.93296 29.3949L8.94546 29.4074C8.95035 29.3429 8.93368 29.2846 8.89545 29.2324L8.8892 29.2949C8.88617 29.3178 8.88617 29.3408 8.8892 29.3637L8.9017 29.4137C8.93171 29.5471 9.01506 29.6137 9.15175 29.6137C9.28844 29.6137 9.37179 29.5471 9.4018 29.4137ZM9.50182 44.2603L9.47056 44.0665L9.60809 43.5476C9.6177 43.5149 9.62396 43.4816 9.62684 43.4476L9.65184 42.985C9.66039 42.8244 9.61038 42.6848 9.50182 42.5662L9.45806 42.5224C9.28458 42.3309 9.07527 42.276 8.83014 42.3578C8.585 42.4395 8.45049 42.609 8.42661 42.8663L8.39535 43.1976C8.39352 43.2247 8.39352 43.2517 8.39535 43.2788L8.41411 43.7539C8.4151 43.7749 8.41718 43.7957 8.42036 43.8164L8.48287 44.2353C8.48879 44.2781 8.49921 44.3197 8.51413 44.3603L8.6079 44.6166C8.66853 44.7751 8.77688 44.8876 8.93296 44.9542L9.05798 45.0104C9.31315 45.1212 9.53611 45.0754 9.72686 44.8729L9.84563 44.7479C9.89766 44.6932 9.93725 44.6307 9.9644 44.5603L10.0707 44.2978C10.078 44.2794 10.0842 44.2606 10.0894 44.2415L10.1894 43.8477L10.327 43.3851C10.3291 43.383 10.3312 43.381 10.3332 43.3789L10.4582 42.9163C10.4642 42.8937 10.4684 42.8707 10.4708 42.8475L10.5583 42.0786C10.5721 41.902 10.4938 41.7894 10.3235 41.7407C10.1532 41.692 10.0272 41.7463 9.94565 41.9036L9.62059 42.61C9.61335 42.6263 9.60709 42.6429 9.60183 42.66L9.45806 43.1038L9.30178 43.5164L9.133 43.8102L9.05798 43.9102L9.00797 43.9352C9.19035 44.02 9.36955 44.0137 9.54557 43.9165L9.42055 43.8602C9.47662 44.0185 9.5808 44.1331 9.73311 44.204L9.66435 44.004L9.61434 43.6727L9.59558 43.2601L9.61434 42.9538C9.4375 42.9214 9.2787 42.9611 9.13795 43.073C8.9972 43.1848 8.92262 43.3305 8.9142 43.5101L8.97046 43.5164C8.91093 43.2789 8.7609 43.1372 8.52038 43.0913L8.6329 43.5414C8.63466 43.5519 8.63674 43.5623 8.63915 43.5726L8.79543 44.0415L8.73917 44.1728C8.68713 44.2957 8.69477 44.4149 8.76206 44.5303C8.82936 44.6456 8.92934 44.7109 9.06201 44.7261C9.19469 44.7413 9.30686 44.7004 9.39854 44.6033C9.49021 44.5062 9.52464 44.3918 9.50182 44.2603Z" fill="black"/>
<path d="M11.2584 15.304L11.2897 14.9164C11.2898 14.9101 11.2898 14.9039 11.2897 14.8976L11.3084 14.5476L11.3397 14.1663L11.3959 13.8162L11.4585 13.6036L11.5085 13.5161C11.5965 13.3556 11.6028 13.192 11.5274 13.0252C11.4521 12.8583 11.3251 12.7549 11.1465 12.7149C10.9679 12.6748 10.8089 12.7141 10.6695 12.8328C10.5301 12.9514 10.466 13.1021 10.477 13.2848L10.4895 13.4411L10.4958 13.7037L10.4645 14.0725C10.4645 14.0746 10.4645 14.0767 10.4645 14.0787L10.4333 14.4913C10.4331 14.4976 10.4331 14.5038 10.4333 14.5101L10.427 14.8664C10.426 14.8831 10.426 14.8997 10.427 14.9164L10.4583 15.304C10.4583 15.4144 10.4973 15.5087 10.5754 15.5869C10.6536 15.665 10.7479 15.704 10.8583 15.704C10.9688 15.704 11.0631 15.665 11.1412 15.5869C11.2194 15.5087 11.2584 15.4144 11.2584 15.304ZM10.452 13.1786L10.4083 13.4536C10.4082 13.4557 10.4082 13.4578 10.4083 13.4599L10.3332 14.0225C10.3311 14.0266 10.329 14.0308 10.327 14.035L10.2145 14.9789C10.2145 14.981 10.2145 14.9831 10.2145 14.9852L10.0582 16.3542C10.0582 16.3583 10.0582 16.3625 10.0582 16.3667L9.8644 18.167L9.62061 20.3612L9.34555 22.8054C9.34555 22.8075 9.34555 22.8096 9.34555 22.8117L9.07675 25.3059C9.07675 25.308 9.07675 25.31 9.07675 25.3121L8.83296 27.6813L8.62042 29.8755C8.62041 29.8776 8.62041 29.8797 8.62042 29.8817L8.43913 31.9009C8.43909 31.905 8.43909 31.9092 8.43913 31.9134L8.30161 33.7575C8.30157 33.7617 8.30157 33.7658 8.30161 33.77L8.21409 35.4015C8.21386 35.412 8.21386 35.4224 8.21409 35.4328L8.19534 36.8518C8.19519 36.8602 8.19519 36.8685 8.19534 36.8768L8.23284 38.1208C8.23281 38.125 8.23281 38.1292 8.23284 38.1333L8.28285 39.2398C8.28284 39.2419 8.28284 39.2439 8.28285 39.246L8.38912 41.0526C8.38911 41.0547 8.38911 41.0568 8.38912 41.0589L8.42663 41.7715C8.42795 41.7903 8.43004 41.8091 8.43288 41.8278L8.5204 42.4154C8.52608 42.4494 8.53442 42.4827 8.5454 42.5154L8.67668 42.9405C8.6902 42.9845 8.70895 43.0262 8.73294 43.0655L8.86421 43.278L8.90797 43.3906C8.94604 43.4952 9.01488 43.5723 9.11448 43.6221C9.21408 43.6718 9.31713 43.6804 9.42361 43.648C9.5301 43.6155 9.61082 43.5509 9.66578 43.4541C9.72073 43.3573 9.73485 43.2548 9.70812 43.1468L9.69562 43.0843L9.73938 42.8967C9.74205 42.8822 9.74413 42.8676 9.74563 42.853L9.80814 42.4154C9.81193 42.3884 9.81401 42.3613 9.81439 42.3341L9.8269 41.7403C9.82735 41.7257 9.82735 41.7111 9.8269 41.6965L9.78939 40.9839C9.78943 40.9797 9.78943 40.9755 9.78939 40.9714L9.68312 39.171L9.63311 38.0771L9.6081 36.8581L9.62686 35.4641L9.71437 33.8513L9.8519 32.0197L10.0207 30.0068L10.2332 27.8189L10.4645 25.4497L10.7333 22.9617L11.0084 20.5112C11.0084 20.5091 11.0084 20.507 11.0084 20.505L11.2272 18.3108L11.4084 16.5042C11.4085 16.5021 11.4085 16.5 11.4084 16.4979L11.5397 15.1227C11.5398 15.1185 11.5398 15.1144 11.5397 15.1102L11.6147 14.16C11.6149 14.1517 11.6149 14.1433 11.6147 14.135L11.6397 13.5724C11.6401 13.5599 11.6401 13.5474 11.6397 13.5349L11.6335 13.2598C11.6323 13.1046 11.5785 12.9705 11.4722 12.8575C11.3658 12.7444 11.2352 12.6826 11.0804 12.6719C10.9256 12.6613 10.7877 12.7047 10.6669 12.8021C10.5461 12.8995 10.4744 13.025 10.452 13.1786ZM9.58935 43.3218L9.61436 43.2593C9.68076 43.0885 9.62863 42.9699 9.45796 42.9033C9.28729 42.8367 9.16856 42.8887 9.10176 43.0593L9.07675 43.1218C9.01035 43.2925 9.06248 43.4112 9.23315 43.4778C9.40382 43.5444 9.52255 43.4924 9.58935 43.3218Z" fill="black"/>
<path d="M9.19549 29.813L9.10172 29.9256C9.06609 29.9709 9.039 30.021 9.02046 30.0756L8.83292 30.5944C8.81454 30.643 8.80204 30.693 8.79541 30.7445L8.67664 31.8634C8.67368 31.8842 8.6716 31.905 8.67039 31.9259L8.63288 33.5325C8.63267 33.5429 8.63267 33.5533 8.63288 33.5638L8.65789 35.4454C8.65785 35.4495 8.65785 35.4537 8.65789 35.4579L8.7204 37.4082C8.72032 37.4145 8.72032 37.4207 8.7204 37.427L8.82042 39.2648L8.90794 40.8276C8.90771 40.8381 8.90771 40.8485 8.90794 40.8589L9.02671 42.0529C9.02782 42.0738 9.02991 42.0946 9.03296 42.1154L9.18924 42.9343C9.20064 42.989 9.21939 43.0411 9.2455 43.0906L9.45179 43.5032C9.53481 43.667 9.66817 43.7504 9.85187 43.7532H9.95188C9.95397 43.7532 9.95605 43.7532 9.95814 43.7532H10.0457C10.2332 43.7532 10.327 43.6594 10.327 43.4719C10.327 43.2844 10.2332 43.1906 10.0457 43.1906H9.95814C9.90576 43.284 9.90652 43.3771 9.96041 43.4696C10.0143 43.5622 10.0948 43.6088 10.2019 43.6094L10.2519 43.5219C10.2827 43.4674 10.3014 43.4091 10.3082 43.3469L10.3582 42.8843C10.3612 42.8656 10.3633 42.8469 10.3645 42.828L10.3707 41.9966C10.3708 41.9904 10.3708 41.9841 10.3707 41.9779L10.352 40.7776C10.3499 40.7734 10.3478 40.7693 10.3457 40.7651L10.2957 39.2023L10.2457 37.3645L10.1957 35.4141L10.1707 33.545V31.9447C10.1709 31.9343 10.1709 31.9239 10.1707 31.9134L10.1207 30.7882C10.1194 30.7525 10.1152 30.717 10.1082 30.682L9.98939 30.1381C9.97979 30.0967 9.96521 30.0571 9.94563 30.0193L9.88312 29.8881C9.81581 29.7549 9.70799 29.6802 9.55965 29.664C9.41132 29.6479 9.28993 29.6975 9.19549 29.813Z" fill="black"/>
<path d="M8.30168 38.3709L8.28918 38.3771C8.25625 38.3855 8.22499 38.398 8.19541 38.4147L8.1579 38.4334C8.26533 38.4644 8.36743 38.4519 8.46421 38.3959L8.4267 38.3896C8.46495 38.4173 8.50663 38.4382 8.55173 38.4522L8.50172 38.4147C8.4896 38.4057 8.4771 38.3974 8.46421 38.3896L8.37669 38.3396L8.25792 38.2521L8.05163 38.0896L7.74532 37.8395C7.74325 37.8374 7.74117 37.8354 7.73907 37.8333L7.35775 37.5332C7.35568 37.5311 7.3536 37.529 7.3515 37.527L6.90141 37.1894C6.89325 37.1829 6.88491 37.1767 6.87641 37.1707L6.37631 36.8206L5.86371 36.4393L5.37612 36.0204L4.91978 35.5579L4.47595 35.064L4.03837 34.5327L3.63204 34.0201C3.62587 34.0158 3.61961 34.0116 3.61329 34.0076L3.21321 33.545C3.20717 33.5365 3.20092 33.5281 3.19446 33.52L2.80688 33.1199C2.80084 33.1114 2.79459 33.1031 2.78813 33.0949L2.43181 32.7636C2.42166 32.7549 2.41124 32.7466 2.40055 32.7386L2.113 32.4948C2.1008 32.486 2.0883 32.4776 2.07549 32.4698L1.88171 32.326L1.86295 32.3072L1.90671 32.4073V32.451L1.91296 32.4448L1.91921 32.4135L1.93797 32.3697L1.95047 32.3447L1.98173 32.3072L1.99423 32.2885L1.96297 32.3135H1.97547L2.1005 32.2947H2.32554H2.59434L2.80063 32.3072L2.95691 32.3197C3.04298 32.3254 3.12633 32.3129 3.20696 32.2822L3.31323 32.2447C3.50311 32.1761 3.62605 32.0449 3.68205 31.8509L3.72581 31.6946C3.74492 31.6314 3.75325 31.5668 3.75081 31.5008L3.73831 31.1945C3.73564 31.1564 3.72939 31.1189 3.71956 31.082L3.62579 30.6882C3.6191 30.6626 3.61077 30.6376 3.60078 30.6132L3.432 30.1818C3.42444 30.1648 3.4161 30.1481 3.407 30.1318L3.20696 29.7317C3.20489 29.7296 3.20281 29.7276 3.20071 29.7255L3.02567 29.3879L2.9069 29.1129L2.83814 28.9003L2.81313 28.8066V28.7441C2.75616 28.8382 2.72699 28.9403 2.72562 29.0504L2.76937 28.9816C2.63499 29.0302 2.5308 29.1156 2.45682 29.2379H2.46932H2.44431H2.45682L2.48182 29.2442L2.50057 29.2504L2.54433 29.2754C2.58912 29.3049 2.63705 29.3278 2.68811 29.3442L2.75687 29.3629C2.88613 29.4003 3.01324 29.3941 3.1382 29.3442L3.1882 29.3254C3.3496 29.2599 3.46004 29.1453 3.51952 28.9816L3.54452 28.9191C3.55512 28.8906 3.56346 28.8614 3.56953 28.8316L3.59453 28.7128C3.59983 28.6922 3.604 28.6714 3.60703 28.6503L3.62579 28.4565C3.62607 28.4461 3.62607 28.4357 3.62579 28.4252L3.63829 28.1815C3.639 28.1648 3.639 28.1481 3.63829 28.1314L3.62579 27.8501C3.62461 27.8313 3.62252 27.8125 3.61954 27.7939L3.58203 27.5126C3.58035 27.5 3.57827 27.4875 3.57578 27.4751L3.47576 26.9875L3.45075 26.7999V26.6562V26.6437L3.432 26.6812L3.4195 26.6874L3.43825 26.6749L3.51952 26.6499L3.60078 26.6249L3.57578 26.6187L3.65079 26.6749L3.81332 26.8249C3.8254 26.8359 3.8379 26.8463 3.85083 26.8562L4.03837 27C4.06589 27.0213 4.09506 27.0401 4.12588 27.0562L4.29467 27.1438C4.32485 27.1589 4.35611 27.1714 4.38843 27.1813L4.52596 27.225C4.56061 27.2366 4.59604 27.245 4.63223 27.25L4.71975 27.2625C4.99017 27.296 5.18813 27.1919 5.31361 26.95L5.33861 26.9C5.39236 26.7955 5.41111 26.685 5.39487 26.5686L5.38862 26.4999V26.3374L5.39487 26.0998C5.39734 26.0706 5.39734 26.0415 5.39487 26.0123L5.35737 25.7622C5.35591 25.7476 5.35382 25.733 5.35112 25.7185L5.30111 25.4934C5.29798 25.4745 5.29381 25.4557 5.2886 25.4372L5.16983 25.0871L5.13858 24.9496L5.11357 24.7746L5.09482 24.562L5.08232 24.3245V24.0619L5.07606 23.7744L5.06981 23.4556C5.07025 23.4431 5.07025 23.4305 5.06981 23.418L5.04481 23.0742C5.04284 23.0679 5.04076 23.0617 5.03856 23.0555L5.00105 22.7054L4.95729 22.3428C4.95734 22.3387 4.95734 22.3345 4.95729 22.3303L4.90728 21.9553L4.81351 21.2364L4.76976 20.9238C4.7668 20.9027 4.76263 20.8819 4.75725 20.8613L4.68849 20.5863C4.6866 20.5779 4.68452 20.5695 4.68224 20.5613L4.60097 20.2925L4.52596 20.0299L4.4572 19.7674L4.33842 19.2423C4.33844 19.2402 4.33844 19.2381 4.33842 19.236L4.28841 19.0172C4.28635 19.0151 4.28426 19.013 4.28216 19.011L4.25091 18.8609L4.2259 18.7234L4.2134 18.6109V18.5109C4.18849 18.5752 4.17599 18.6419 4.17589 18.7109L4.20715 18.6359C4.25628 18.484 4.24453 18.337 4.1719 18.1948C4.09926 18.0527 3.98701 17.957 3.83514 17.9078C3.68327 17.8586 3.53625 17.8703 3.39407 17.9429C3.25189 18.0155 3.15618 18.1277 3.10694 18.2796L3.10069 18.2921C3.07165 18.3936 3.06956 18.4957 3.09444 18.5984L3.13194 18.7609C3.13729 18.78 3.14354 18.7987 3.1507 18.8172L3.23821 19.0672C3.24003 19.0777 3.24212 19.0881 3.24447 19.0985L3.36949 19.4048C3.37876 19.4262 3.38918 19.447 3.40075 19.4673L3.56328 19.7674L3.7008 20.0362C3.70857 20.0511 3.71691 20.0656 3.72581 20.0799L3.85083 20.2737L3.9321 20.405C3.97874 20.4767 4.03708 20.5371 4.10713 20.5863L4.15714 20.6238C4.36569 20.772 4.58615 20.7926 4.81852 20.6854C5.05089 20.5783 5.17841 20.3973 5.20109 20.1424L5.20734 20.0612C5.21406 19.9851 5.20781 19.91 5.18859 19.8361L5.11982 19.5986C5.11799 19.5881 5.11591 19.5777 5.11357 19.5673L4.96354 19.1235C4.95976 19.1109 4.95559 19.0983 4.95104 19.086L4.70099 18.4671C4.70103 18.4629 4.70103 18.4588 4.70099 18.4546L4.38218 17.7045C4.38014 17.7003 4.37806 17.6961 4.37593 17.692L4.03837 16.9231L3.74456 16.2292L3.51952 15.6916L3.40075 15.354L3.36949 15.2102L3.36324 15.1352C3.23811 15.2713 3.17768 15.4317 3.18195 15.6166L3.24447 15.5478C3.05643 15.5563 2.89806 15.6292 2.76937 15.7666L2.78813 15.7603H2.78188L2.8944 15.8291L3.11944 16.0041L3.38824 16.2104C3.39031 16.2125 3.3924 16.2146 3.39449 16.2167L3.65704 16.423C3.67125 16.4339 3.68584 16.4443 3.7008 16.4542L3.9571 16.623C3.96729 16.6316 3.97771 16.64 3.98836 16.648L4.20715 16.7793C4.24326 16.7991 4.28077 16.8158 4.31967 16.8293L4.48845 16.8981C4.65571 16.9639 4.82449 16.9681 4.9948 16.9106L5.09482 16.8731C5.38341 16.775 5.54803 16.575 5.58866 16.2729L5.60741 16.1229C5.61688 16.0409 5.61272 15.9597 5.59491 15.8791L5.5449 15.6416C5.53837 15.6119 5.53004 15.5827 5.5199 15.554L5.41363 15.2415L5.30736 14.8789L5.21359 14.4851L5.15108 14.1225L5.11982 13.8662V13.7037C5.00442 13.8363 4.94608 13.9905 4.94479 14.1663L4.9948 14.11C4.84536 14.0065 4.68046 13.9661 4.50011 13.9888C4.31976 14.0115 4.17001 14.0915 4.05087 14.2288L4.08212 14.2476L4.15089 14.3288L4.31967 14.5414C4.32771 14.552 4.33605 14.5624 4.34467 14.5726L4.54471 14.8039C4.55284 14.8124 4.56118 14.8208 4.56972 14.8289L4.7635 15.0289C4.78323 15.0489 4.80407 15.0677 4.82602 15.0852L5.00105 15.229C5.00313 15.229 5.00522 15.229 5.0073 15.229L5.14483 15.3478C5.15902 15.3587 5.17361 15.3691 5.18859 15.379L5.30736 15.4603C5.34097 15.4842 5.3764 15.505 5.41363 15.5228L5.5074 15.5666C5.62924 15.621 5.75634 15.6398 5.88872 15.6228L5.94498 15.6166C6.18445 15.5887 6.36365 15.47 6.48258 15.2602L6.52009 15.204C6.55186 15.1447 6.57478 15.0822 6.58885 15.0164L6.61386 14.9227C6.61386 14.9206 6.61386 14.9185 6.61386 14.9164L6.63261 14.8289C6.56477 14.9142 6.51893 15.0101 6.49508 15.1165L6.52634 15.0727C6.23787 15.012 6.00241 15.0975 5.81996 15.329L5.87622 15.3415C5.78153 15.2534 5.67109 15.195 5.5449 15.1665L5.58866 15.2102L5.64492 15.2665C5.65684 15.2816 5.66934 15.2962 5.68243 15.3103L5.76369 15.3853C5.78929 15.408 5.81638 15.4289 5.84496 15.4478L5.90747 15.4915C6.01121 15.5631 6.12582 15.6048 6.25129 15.6166L6.3013 15.6228C6.62974 15.6537 6.86937 15.5224 7.02018 15.229L7.04519 15.179C7.1359 15.0023 7.15257 14.819 7.0952 14.6289L7.05144 14.4788C7.0476 14.4662 7.04344 14.4537 7.03894 14.4413L6.93892 14.1538L6.78889 13.6912L6.62636 13.0348L6.43257 12.1909L6.22003 11.2845C6.21803 11.2782 6.21595 11.272 6.21378 11.2657L5.96998 10.3343L5.74494 9.43413L5.55115 8.60898L5.41363 7.84633L5.32611 7.16495L5.26985 6.59609L5.23859 6.121L5.22609 5.75218L5.23234 5.48963L5.2636 5.24584L5.31361 4.99579L5.36362 4.78325L5.41363 4.60822C5.41586 4.59992 5.41794 4.59158 5.41988 4.58321L5.45114 4.44568C5.45114 4.4436 5.45114 4.44152 5.45114 4.43943L5.47614 4.32691C5.47837 4.31861 5.48045 4.31028 5.48239 4.30191L5.50114 4.20189C5.50366 4.18736 5.50575 4.17278 5.5074 4.15813L5.5199 4.07686C5.495 4.13718 5.47833 4.19969 5.46989 4.2644L5.48239 4.22689C5.31573 3.97983 5.0842 3.87189 4.78782 3.90309C4.49143 3.93429 4.28746 4.08807 4.17589 4.36442L4.18214 4.37067L4.23215 4.47694C4.23815 4.48751 4.2444 4.49793 4.25091 4.5082L4.36968 4.73324C4.37558 4.74592 4.38183 4.75842 4.38843 4.77075L4.55722 5.03955L4.726 5.35836L4.91353 5.73343L5.08857 6.0835L5.21984 6.3898C5.23559 6.42881 5.25434 6.46632 5.2761 6.50233L5.37612 6.66486C5.50706 6.87316 5.6938 6.99794 5.93635 7.0392C6.17891 7.08046 6.39641 7.02444 6.58885 6.87115L6.68887 6.79613C6.84416 6.67069 6.9421 6.51025 6.98268 6.31479L7.04519 6.03974C7.05161 6.00458 7.05577 5.96916 7.05769 5.93347L7.0952 5.53339C7.09569 5.51672 7.09569 5.50005 7.0952 5.48338L7.1077 5.02704L7.13271 4.56446L7.17021 4.12687L7.22022 3.77056L7.27648 3.51426L7.30774 3.41424L7.33899 3.37048C6.99173 3.33986 6.72709 3.47322 6.54509 3.77056L6.63261 3.77681C6.48241 3.60836 6.29488 3.5146 6.07 3.4955L6.12626 3.55802L6.19503 3.68304L6.29505 3.90808L6.39506 4.16438L6.46383 4.42068L6.50759 4.70198C6.51112 4.72088 6.51528 4.73963 6.52009 4.75824L6.5826 5.02079C6.58656 5.0313 6.59073 5.04171 6.5951 5.05205L6.65136 5.25834C6.66497 5.31229 6.68372 5.36438 6.70762 5.41462L6.77639 5.55214C6.8487 5.69418 6.95288 5.8067 7.08895 5.88971L7.16396 5.93347C7.42985 6.10065 7.70281 6.11315 7.98287 5.97097L8.03288 5.93972C8.15504 5.87751 8.25506 5.78999 8.33293 5.67717L8.38919 5.60215L8.44545 5.52089C8.38565 5.56765 8.33356 5.62183 8.28918 5.68342L8.37044 5.62091C8.1037 5.53685 7.85991 5.58061 7.63905 5.75218L7.73907 5.78344C7.64078 5.676 7.522 5.60099 7.38275 5.5584L7.43276 5.61466L7.49527 5.72093C7.49527 5.72301 7.49527 5.72509 7.49527 5.72718L7.6078 5.92097C7.60987 5.92306 7.61195 5.92514 7.61405 5.92722L7.69531 6.07724C7.74318 6.1588 7.80361 6.22965 7.8766 6.28979L7.95161 6.3523C8.17083 6.53337 8.41671 6.58338 8.68925 6.50233L8.77677 6.47732C8.90252 6.44186 9.01295 6.37935 9.10808 6.28979L9.20185 6.19602C9.23112 6.16887 9.25821 6.1397 9.28311 6.1085L9.38938 5.95847C9.40497 5.93833 9.41955 5.91749 9.43314 5.89596L9.57067 5.67717L9.72695 5.43337L9.88323 5.20208C9.88532 5.20001 9.88741 5.19792 9.88948 5.19583L10.002 5.01454L10.0708 4.92703L10.127 4.86451C10.0788 4.89912 10.035 4.93871 9.99575 4.98329L10.0583 4.93953C9.83127 4.8881 9.6229 4.92978 9.43314 5.06455L9.49565 5.07705C9.40617 5.00715 9.30615 4.95922 9.1956 4.93328L9.25811 4.98329C9.32112 5.03134 9.38988 5.06885 9.4644 5.09581L9.54566 5.12706C9.78722 5.2152 10.0164 5.19019 10.2333 5.05205L10.3646 4.96453C10.4358 4.92041 10.4983 4.86623 10.5521 4.802L10.7209 4.59571C10.7341 4.57954 10.7466 4.56287 10.7584 4.5457L10.9584 4.2644C10.9671 4.25214 10.9755 4.23963 10.9834 4.22689L11.196 3.88933L11.4148 3.53301C11.4169 3.52886 11.419 3.52469 11.421 3.52051L11.6398 3.15169L11.8711 2.78912L12.1149 2.46406L12.3212 2.22651L12.4587 2.10149L12.5462 2.04523H12.5525L12.5775 2.03898C12.4598 1.9962 12.3389 1.9837 12.2149 2.00147L12.2962 2.03273C12.2215 1.96303 12.1361 1.91094 12.0399 1.87645L12.0836 1.9202C12.0447 1.80187 11.9801 1.69977 11.8899 1.6139L11.9086 1.67016C11.9034 1.61907 11.893 1.56906 11.8774 1.52013L11.8836 1.57639V1.70141L11.8711 1.95146L11.8399 2.27652L11.8148 2.61409L11.7836 2.9329C11.7805 2.95572 11.7784 2.97864 11.7773 3.00166V3.29547C11.7769 3.33104 11.779 3.36646 11.7836 3.40174L11.8211 3.63303C11.8337 3.72607 11.8629 3.81359 11.9086 3.89558L11.9899 4.03936C12.1417 4.30632 12.3709 4.43134 12.6775 4.41443L12.8338 4.40818C12.9703 4.40097 13.0953 4.35929 13.2089 4.28315L13.4277 4.13938C13.4538 4.1222 13.4788 4.10345 13.5027 4.08312L13.7715 3.85182C13.7822 3.84171 13.7926 3.83129 13.8027 3.82057L14.0653 3.57052L14.2778 3.37048L14.3653 3.30172L14.3966 3.28296C14.2001 3.2069 14.0064 3.21315 13.8152 3.30172L13.8902 3.33297C13.8346 3.07189 13.6825 2.89269 13.4339 2.79537L13.4214 2.88289L13.3276 3.2017L13.1964 3.60177L13.0588 3.9956L12.9401 4.32691C12.9356 4.3393 12.9314 4.35181 12.9276 4.36442L12.8525 4.60822C12.8365 4.65919 12.8261 4.71128 12.8213 4.76449L12.8088 4.92077C12.7942 5.10922 12.8442 5.27861 12.9587 5.42896C13.0733 5.5793 13.2233 5.67246 13.4089 5.70842L13.4902 5.72093C13.6848 5.76017 13.8661 5.72683 14.034 5.62091L14.2403 5.48963C14.2598 5.47595 14.2785 5.46136 14.2966 5.44587L14.5841 5.22083L14.8779 4.99579L15.078 4.87077L15.2217 4.82076C15.0641 4.77301 14.9078 4.77718 14.7529 4.83326L14.9029 4.87702C14.8078 4.68511 14.6578 4.558 14.4528 4.49569L14.4591 4.5207L14.4654 4.58321L14.4153 4.91452L14.3028 5.37711L14.1465 5.85845L14.0028 6.27728L13.884 6.58359C13.884 6.58776 13.884 6.59193 13.884 6.59609L13.809 6.80863C13.7965 6.83922 13.7861 6.87047 13.7777 6.9024L13.7527 7.02117C13.6818 7.35696 13.7881 7.62159 14.0715 7.81508L14.109 7.84008C14.3741 8.02457 14.6471 8.03707 14.9279 7.87759L15.003 7.83383C15.0221 7.82419 15.0409 7.81377 15.0592 7.80257L15.1592 7.73381C15.1721 7.72379 15.1846 7.71337 15.1967 7.70255L15.303 7.62129L15.6156 7.4025L15.8156 7.27122L16.0281 7.1337L16.2469 7.03368L16.4595 6.94616L16.6533 6.9024L16.9346 6.85864C16.9387 6.85867 16.9429 6.85867 16.9471 6.85864L17.2659 6.80863C17.2743 6.80669 17.2826 6.80461 17.2909 6.80238L17.6097 6.73987L17.9223 6.67736C17.9285 6.67536 17.9348 6.67327 17.941 6.67111L18.0723 6.63985L18.1348 6.6461C17.9998 6.47205 17.8227 6.37412 17.6034 6.3523L17.7035 6.48357C17.689 6.33737 17.6369 6.20609 17.5472 6.08975L17.5659 6.24603L17.5347 6.45857L17.4784 6.72737L17.3909 6.99617C17.3909 6.99825 17.3909 7.00034 17.3909 7.00242L17.2221 7.53377L17.0846 7.95885L16.9908 8.23391C16.9886 8.24221 16.9865 8.25054 16.9846 8.25891L16.8721 8.64648C16.8698 8.65686 16.8677 8.66728 16.8658 8.67774L16.7408 9.17784L16.5908 9.7842L16.3907 10.5031L16.1469 11.347L15.8906 12.2034L15.6406 13.0098L15.4155 13.735L15.2092 14.3288L15.0155 14.8102L14.8279 15.229L14.6654 15.5916L14.5341 15.8854C14.5224 15.9098 14.512 15.9348 14.5029 15.9604L14.4091 16.2292C14.4091 16.2313 14.4091 16.2333 14.4091 16.2354L14.3341 16.473L14.2653 16.648L14.1965 16.8105L14.134 16.9543L14.084 17.0606C14.0665 17.097 14.052 17.1345 14.0403 17.1731L14.0215 17.2294C13.9056 17.5901 14.0013 17.8812 14.3088 18.1026C14.6162 18.324 14.9226 18.3226 15.228 18.0983L15.278 18.0608C15.302 18.0433 15.3249 18.0246 15.3468 18.0045L15.453 17.9045L15.5843 17.7982L15.7156 17.7107L15.8594 17.6419L16.0344 17.5794L16.1844 17.5357L16.2844 17.5169L16.3845 17.5107C16.2849 17.4778 16.1828 17.4653 16.0782 17.4732L16.1594 17.4982C16.0587 17.3341 15.917 17.2216 15.7343 17.1606L15.7718 17.2169C15.8608 16.9765 15.8379 16.7473 15.7031 16.5292L15.6718 16.6105L15.5281 16.8605L15.2342 17.3294C15.2278 17.3397 15.2215 17.3501 15.2155 17.3606L14.8904 17.9295C14.8839 17.9418 14.8776 17.9543 14.8717 17.967L14.5966 18.5171C14.5758 18.5614 14.5591 18.6073 14.5466 18.6546L14.4341 19.0422C14.3677 19.2686 14.3948 19.4833 14.5154 19.6861L14.6154 19.8424C14.815 20.171 15.1026 20.2939 15.478 20.2112L15.7343 20.1549C15.8212 20.1352 15.9024 20.1018 15.9781 20.0549L16.3532 19.8236C16.3815 19.8065 16.4085 19.7878 16.4345 19.7674L16.8658 19.4235C16.87 19.4194 16.8742 19.4152 16.8783 19.411L17.2846 19.0735L17.4659 18.9484L17.4972 18.9422C17.4462 18.739 17.333 18.5803 17.1574 18.4661C16.9819 18.3518 16.7909 18.3126 16.5845 18.3483L16.6283 18.5171C16.6724 18.3745 16.6765 18.2307 16.6408 18.0858L16.5595 18.3421L16.4282 18.6234L16.2594 18.9109L16.1219 19.1047L16.0407 19.1985C16.2041 19.3365 16.3927 19.3995 16.6063 19.3874C16.8199 19.3753 17.0002 19.2915 17.1471 19.136L17.1159 19.1172C16.969 19.4779 17.044 19.7842 17.3409 20.0362L17.3972 19.9049L17.4972 19.7236L17.6034 19.5798L17.7035 19.4985C17.5047 19.4679 17.3255 19.5137 17.1659 19.6361L17.2846 19.6548C17.1888 19.3891 17.0012 19.2349 16.722 19.1922L16.7408 19.2423L16.747 19.3235L16.7345 19.4798L16.7158 19.6111L16.6595 19.7861L16.5658 20.0424C16.561 20.0589 16.5568 20.0756 16.5532 20.0924L16.4657 20.3987C16.4657 20.4008 16.4657 20.4029 16.4657 20.405L16.3782 20.7175C16.3782 20.7196 16.3782 20.7217 16.3782 20.7238L16.3032 21.0176L16.2282 21.2801L16.1407 21.5239L15.6468 22.5491C15.6424 22.5595 15.6383 22.5699 15.6343 22.5804L15.303 23.343L14.9404 24.1369L14.5966 24.8683L14.2778 25.4872L14.009 25.9873L13.7965 26.3624L13.6589 26.6187L13.5902 26.7249L13.5652 26.7687C13.5356 26.812 13.5106 26.8579 13.4902 26.9062L13.4527 26.9812C13.4505 26.9854 13.4485 26.9895 13.4464 26.9937L13.4089 27.0812L13.3651 27.1813C13.3421 27.2356 13.3254 27.2919 13.3151 27.35L13.3089 27.4063C13.2841 27.5408 13.294 27.6727 13.3385 27.802C13.383 27.9313 13.4564 28.0414 13.5587 28.1321C13.661 28.2229 13.779 28.2827 13.9126 28.3116C14.0463 28.3404 14.1785 28.3345 14.3091 28.294L14.3778 28.269C14.4371 28.2507 14.4934 28.2257 14.5466 28.194L14.7216 28.0877C14.7237 28.0856 14.7258 28.0835 14.7279 28.0814L14.9592 27.9377L15.2342 27.7689L15.478 27.6188L15.6906 27.5126L15.8031 27.4626L15.8781 27.4501C15.6891 27.2028 15.4412 27.1049 15.1342 27.1563L15.203 27.2438C15.2578 27.0076 15.212 26.793 15.0655 26.5999L15.028 26.7749L14.8904 27.0812L14.6591 27.5563C14.657 27.5584 14.655 27.5605 14.6529 27.5626L14.4028 28.0814C14.4006 28.0897 14.3985 28.0981 14.3966 28.1064L14.1903 28.5753C14.176 28.6037 14.1635 28.6329 14.1528 28.6628L14.0403 29.0379C14.0226 29.097 14.0122 29.1575 14.009 29.2192L13.9965 29.4817C13.9886 29.6153 14.0136 29.7424 14.0715 29.863L14.1465 30.0193C14.2483 30.2277 14.4108 30.3631 14.6341 30.4256L14.7779 30.4694C14.9107 30.5071 15.0441 30.5092 15.178 30.4756L15.378 30.4256C15.4144 30.4157 15.4498 30.4032 15.4843 30.3881L15.6843 30.3069C15.6864 30.3069 15.6885 30.3069 15.6906 30.3069L15.8281 30.2506L15.9094 30.2193C15.7267 30.1336 15.5392 30.1211 15.3468 30.1818L15.3968 30.2068C15.4448 30.0259 15.4294 29.8506 15.3504 29.6809C15.2714 29.5112 15.1473 29.3864 14.9779 29.3067L14.9529 29.4004C14.9916 29.3379 15.0208 29.2712 15.0405 29.2004L14.9154 29.4067C14.9089 29.417 14.9027 29.4274 14.8967 29.4379L14.7279 29.738C14.7279 29.7401 14.7279 29.7422 14.7279 29.7443L14.5466 30.0693C14.5398 30.0858 14.5336 30.1024 14.5279 30.1193L14.3903 30.4131C14.3788 30.4356 14.3684 30.4585 14.3591 30.4819L14.2841 30.6944C14.2431 30.8123 14.2306 30.9332 14.2466 31.057L14.2653 31.1695C14.2985 31.4413 14.4361 31.6413 14.6779 31.7696L14.7654 31.8134C14.8536 31.8604 14.9474 31.8896 15.0467 31.9009L15.2092 31.9197C15.2155 31.9197 15.2217 31.9197 15.228 31.9197L15.403 31.9384L15.5656 31.9572H15.6156L15.6281 31.9634C15.5361 31.754 15.3819 31.6123 15.1655 31.5383L15.1905 31.5821C15.3921 31.3362 15.4296 31.0674 15.303 30.7757L15.2593 30.832C15.2956 30.8016 15.329 30.7683 15.3593 30.7319L15.2655 30.807L15.1342 30.907C15.1099 30.9285 15.087 30.9514 15.0655 30.9757L14.8967 31.1445C14.8861 31.1526 14.8756 31.1609 14.8654 31.1695L14.6154 31.4508L13.6089 32.5198L12.865 33.3137C12.863 33.3158 12.8609 33.3178 12.8588 33.3199L12.0586 34.1763L11.271 34.989L10.5021 35.6829L9.81447 36.258C9.80602 36.2641 9.79769 36.2703 9.78946 36.2767L9.25186 36.7581C9.06644 36.9203 8.9685 37.1245 8.95805 37.3707L8.9518 37.6082L8.9268 37.6833L8.87679 37.7083C8.73383 37.8038 8.70543 37.926 8.79158 38.0748C8.87772 38.2236 8.99781 38.2598 9.15184 38.1834L9.2206 38.1396L9.32687 38.1521L9.57067 38.2209C9.829 38.2989 10.0707 38.2634 10.2958 38.1146L10.9022 37.7145C10.9281 37.6971 10.9531 37.6783 10.9772 37.6583L11.6836 37.0706C11.6942 37.0605 11.7047 37.0501 11.7148 37.0394L12.515 36.308C12.5278 36.2959 12.5403 36.2834 12.5525 36.2705L13.3651 35.4328C13.3736 35.4247 13.382 35.4163 13.3901 35.4078L14.1778 34.5264C14.1886 34.5142 14.199 34.5017 14.2091 34.4889L14.8967 33.6512C14.8988 33.6471 14.9009 33.6429 14.9029 33.6387L15.8031 32.4948L16.0281 32.2385L16.1594 32.1135L16.2719 32.0134C16.2783 32.0073 16.2846 32.001 16.2907 31.9947L16.3907 31.9072C16.428 31.8709 16.4614 31.8313 16.4907 31.7884L16.5345 31.7321C16.6885 31.5197 16.726 31.2884 16.647 31.0382L16.6283 30.9882C16.5465 30.7324 16.3777 30.5637 16.1219 30.4819L16.0281 30.4506C15.9913 30.4395 15.9538 30.4312 15.9156 30.4256L15.7781 30.4006C15.7656 30.3982 15.7531 30.3962 15.7406 30.3944L15.5718 30.3756L15.3843 30.3569L15.228 30.3381C15.326 30.399 15.4323 30.4365 15.5468 30.4506L15.4593 30.4006C15.4857 30.6609 15.6107 30.8588 15.8344 30.9945L15.8219 30.882C15.7816 30.9933 15.7671 31.1079 15.7781 31.2258L15.8406 31.0507L15.9594 30.8007L16.1219 30.4881L16.2782 30.1881C16.2824 30.184 16.2866 30.1798 16.2907 30.1756L16.397 29.9568C16.4249 29.901 16.4457 29.8426 16.4595 29.7818L16.4845 29.6817C16.5247 29.5099 16.5082 29.3437 16.4349 29.1832C16.3616 29.0226 16.2468 28.9012 16.0907 28.8191L16.0407 28.7941C15.8476 28.6931 15.6476 28.6764 15.4405 28.7441L15.3218 28.7816C15.292 28.7902 15.2628 28.8007 15.2342 28.8128L15.0842 28.8816L14.9529 28.9378L14.8029 28.9754C14.9434 29.0199 15.0851 29.0241 15.228 28.9879L15.0842 28.9441C15.1798 29.1463 15.334 29.2817 15.5468 29.3504L15.4718 29.1941C15.4671 29.3212 15.4921 29.442 15.5468 29.5567L15.5531 29.4067L15.6343 29.1691L15.8156 28.7441L16.0657 28.244C16.0657 28.2398 16.0657 28.2356 16.0657 28.2315L16.2969 27.7376C16.3013 27.7294 16.3054 27.721 16.3095 27.7126L16.4782 27.325C16.4967 27.2826 16.5113 27.2388 16.522 27.1938L16.5783 26.95C16.6341 26.7036 16.582 26.4828 16.422 26.2873L16.3532 26.1998C16.1705 25.9735 15.9351 25.8798 15.6468 25.9185L15.478 25.9435C15.402 25.9535 15.3291 25.9744 15.2593 26.006L15.0342 26.1123C15.0258 26.1163 15.0175 26.1205 15.0092 26.1248L14.7529 26.2561C14.7402 26.262 14.7277 26.2682 14.7154 26.2748L14.4403 26.4311C14.434 26.4352 14.4278 26.4394 14.4216 26.4436L14.1465 26.6124C14.1424 26.6145 14.1382 26.6165 14.134 26.6187L13.909 26.7687L13.7402 26.8687C13.8224 26.85 13.8995 26.8188 13.9715 26.7749L13.9027 26.7874C13.8692 26.9188 13.8698 27.0501 13.9046 27.1812C13.9394 27.3123 14.0039 27.4266 14.0982 27.524C14.1925 27.6215 14.3046 27.6898 14.4345 27.7289C14.5643 27.7681 14.6955 27.773 14.8279 27.7439V27.7314L14.8404 27.7064L14.8592 27.6689L14.8654 27.6501L14.8904 27.6251C14.9015 27.6088 14.9119 27.5921 14.9217 27.5751L15.0155 27.4376C15.022 27.4252 15.0283 27.4127 15.0342 27.4001L15.1842 27.1438C15.1842 27.1417 15.1842 27.1396 15.1842 27.1375L15.3968 26.7499L15.6781 26.2436C15.6824 26.2353 15.6866 26.227 15.6906 26.2186L16.0219 25.581C16.0241 25.5747 16.0261 25.5685 16.0281 25.5622L16.3845 24.8183C16.3887 24.8121 16.3929 24.8059 16.397 24.7996L16.7533 23.9932C16.7554 23.9869 16.7575 23.9807 16.7595 23.9744L17.0909 23.1993C17.0931 23.191 17.0952 23.1826 17.0971 23.1742L17.5159 22.074C17.5203 22.0637 17.5245 22.0533 17.5284 22.0428L17.6285 21.7365C17.633 21.7241 17.6371 21.7116 17.641 21.699L17.716 21.4052L17.7972 21.1051C17.7994 21.0989 17.8015 21.0926 17.8035 21.0864L17.8785 20.7675L17.9535 20.4737L18.0348 20.2049L18.0973 19.9736C18.1049 19.949 18.1112 19.924 18.116 19.8986L18.1536 19.6798C18.1572 19.6529 18.1593 19.6258 18.1598 19.5986L18.1723 19.3673C18.1739 19.3402 18.1739 19.3131 18.1723 19.286L18.1598 19.061C18.1548 18.9854 18.1381 18.9124 18.1098 18.8422L18.0535 18.6984C17.9427 18.4171 17.7364 18.2671 17.4347 18.2483L17.3159 18.2358C17.145 18.2256 16.9908 18.2714 16.8533 18.3733L16.672 18.5109C16.6456 18.53 16.6206 18.5508 16.597 18.5734L16.3657 18.7922L16.1469 19.0047C16.1198 19.032 16.0948 19.0612 16.0719 19.0922L15.9594 19.2423C15.8455 19.3923 15.7909 19.5615 15.7955 19.7499C15.8002 19.9382 15.8632 20.1045 15.9844 20.2487L16.0031 20.2799C16.1588 20.465 16.3576 20.5607 16.5994 20.567C16.8411 20.5732 17.0446 20.488 17.2096 20.3112L17.3409 20.1737C17.3709 20.1405 17.398 20.1051 17.4222 20.0674L17.6097 19.7924C17.6185 19.778 17.6268 19.7634 17.6347 19.7486L17.841 19.4048C17.85 19.3863 17.8584 19.3676 17.866 19.3485L18.041 18.986C18.0612 18.9457 18.0779 18.904 18.091 18.8609L18.1848 18.5484C18.2322 18.3845 18.228 18.222 18.1723 18.0608L18.116 17.892C18.05 17.7053 17.9311 17.5627 17.7592 17.4643C17.5873 17.3659 17.4041 17.3355 17.2096 17.3731L17.0033 17.4107C16.8918 17.4325 16.7897 17.4763 16.697 17.5419L16.3407 17.7857C16.3235 17.7976 16.3069 17.8101 16.2907 17.8232L15.8656 18.1733L15.4718 18.4859L15.2718 18.6109L15.1717 18.6234C15.3583 18.941 15.6333 19.0702 15.9969 19.011L15.9031 18.8547C15.8387 19.0789 15.8658 19.2914 15.9844 19.4923L16.0782 19.1735L16.3157 18.7109L16.622 18.1545L16.9033 17.6544C16.9033 17.6524 16.9033 17.6503 16.9033 17.6482L17.0846 17.3231C17.1042 17.2869 17.1209 17.2494 17.1346 17.2106L17.1846 17.0731C17.2604 16.8614 17.2479 16.6552 17.1471 16.4542L17.1159 16.398C17.0122 16.1875 16.8476 16.0499 16.622 15.9854L16.5407 15.9604C16.4419 15.9347 16.3419 15.9284 16.2407 15.9416L16.1032 15.9541C16.0864 15.9557 16.0698 15.9578 16.0532 15.9604L15.8719 15.9916C15.8444 15.9964 15.8174 16.0027 15.7906 16.0104L15.5718 16.0729C15.5528 16.0784 15.5341 16.0847 15.5156 16.0917L15.278 16.1792C15.2546 16.1885 15.2317 16.1989 15.2092 16.2104L14.9779 16.3229C14.9477 16.3377 14.9185 16.3544 14.8904 16.373L14.6841 16.5105C14.6603 16.5259 14.6374 16.5426 14.6154 16.5605L14.4403 16.7043C14.4231 16.7182 14.4064 16.7327 14.3903 16.748L14.2966 16.8355L14.2903 16.848C14.1649 17.2135 14.2588 17.5093 14.5721 17.7354C14.8854 17.9615 15.1957 17.9574 15.503 17.7232L15.5093 17.717L15.5468 17.6357C15.5557 17.6193 15.5641 17.6027 15.5718 17.5857L15.6343 17.4294L15.7156 17.2481C15.7224 17.2317 15.7287 17.215 15.7343 17.1981L15.8094 16.9856C15.8115 16.9814 15.8136 16.9773 15.8156 16.9731L15.8906 16.7355L15.9781 16.498L16.0969 16.2229L16.2532 15.8666L16.447 15.4415C16.4514 15.4312 16.4555 15.4208 16.4595 15.4103L16.6658 14.8977C16.6703 14.8853 16.6744 14.8728 16.6783 14.8602L16.8971 14.235C16.8992 14.2288 16.9013 14.2226 16.9033 14.2163L17.1409 13.4787C17.1409 13.4766 17.1409 13.4745 17.1409 13.4724L17.3909 12.6597C17.3909 12.6577 17.3909 12.6556 17.3909 12.6535L17.6472 11.7908C17.6472 11.7887 17.6472 11.7867 17.6472 11.7846L17.8973 10.9344C17.8994 10.9303 17.9015 10.9261 17.9035 10.9219L18.1035 10.1843C18.1057 10.1781 18.1078 10.1718 18.1098 10.1655L18.2536 9.55291L18.3786 9.06531L18.4849 8.69649L18.5661 8.42769L18.6974 8.01511C18.6974 8.01303 18.6974 8.01095 18.6974 8.00886L18.8662 7.47751C18.8706 7.46718 18.8747 7.45676 18.8787 7.44626L18.9662 7.12745C18.9684 7.11915 18.9705 7.11081 18.9725 7.10244L19.0475 6.76488C19.055 6.74018 19.0612 6.71518 19.0662 6.68986L19.1037 6.3648C19.113 6.30462 19.1151 6.24419 19.11 6.18352L19.0787 5.93347C19.0639 5.79253 19.0139 5.66543 18.9287 5.55214L18.8287 5.42087C18.6927 5.23825 18.5115 5.13615 18.2848 5.11456L18.0973 5.10206C18.0196 5.09448 17.9425 5.09865 17.866 5.11456L17.616 5.16457L17.3096 5.22708L17.0096 5.28959L16.7095 5.33335L16.4032 5.37086C16.38 5.37606 16.3571 5.38231 16.3345 5.38961L16.0469 5.45838C16.0107 5.46626 15.9753 5.47668 15.9406 5.48963L15.6531 5.5959C15.6318 5.60538 15.6109 5.6158 15.5906 5.62716L15.3093 5.76469C15.2857 5.77603 15.2628 5.78853 15.2405 5.80219L14.9842 5.96472C14.98 5.96884 14.9758 5.97301 14.9717 5.97723L14.7529 6.121C14.7466 6.12508 14.7403 6.12925 14.7342 6.13351L14.3966 6.37105C14.3838 6.37902 14.3713 6.38736 14.3591 6.39606L14.2591 6.47732L14.2028 6.51483L14.1528 6.54608C14.419 6.71582 14.6878 6.71999 14.9592 6.55859L14.9217 6.53358C14.8498 6.8819 14.9644 7.1507 15.2655 7.33999L15.2843 7.25247L15.3343 7.08369L15.4343 6.77113C15.4365 6.7649 15.4385 6.75865 15.4405 6.75237L15.5718 6.31479L15.7343 5.79594C15.7391 5.77942 15.7433 5.76275 15.7468 5.74593L15.8719 5.22708C15.8771 5.20436 15.8813 5.18144 15.8844 5.15832L15.9469 4.72074C15.9525 4.67924 15.9546 4.63756 15.9531 4.59571L15.9406 4.30191C15.9378 4.19438 15.9128 4.09228 15.8656 3.9956L15.7844 3.83307C15.686 3.63386 15.5297 3.50467 15.3155 3.44549L15.1655 3.40799C15.0141 3.36452 14.8641 3.36868 14.7154 3.42049L14.4904 3.50175C14.4353 3.52065 14.3832 3.54565 14.3341 3.57677L14.0465 3.7643C14.0293 3.77611 14.0127 3.78861 13.9965 3.80181L13.6777 4.04561C13.6777 4.04769 13.6777 4.04978 13.6777 4.05186L13.4089 4.25815L13.2339 4.37067C13.4434 4.42489 13.6392 4.39363 13.8215 4.2769L13.7402 4.25815C13.7251 4.43784 13.7694 4.60141 13.8732 4.74886C13.977 4.89631 14.116 4.99321 14.2903 5.03955L14.2966 4.96453L14.3466 4.8145L14.4591 4.49569L14.6029 4.08937C14.605 4.08522 14.6071 4.08105 14.6091 4.07686L14.7467 3.65803C14.7513 3.64358 14.7554 3.62899 14.7592 3.61428L14.8654 3.2392C14.8707 3.21648 14.8748 3.19356 14.8779 3.17044L14.9217 2.90164C14.9402 2.80119 14.9381 2.70117 14.9154 2.60158L14.8842 2.46406C14.8259 2.22925 14.6863 2.06255 14.4654 1.96396L14.3903 1.92645C14.1779 1.83196 13.9675 1.83613 13.759 1.93896L13.6402 1.99522C13.5886 2.02091 13.5407 2.05216 13.4964 2.08899L13.3214 2.23276C13.3085 2.24277 13.296 2.25319 13.2839 2.26402L13.0463 2.48281C13.0421 2.48693 13.0379 2.4911 13.0338 2.49531L12.7838 2.73911L12.5712 2.92039L12.39 3.03917C12.5281 3.035 12.6552 2.99541 12.7713 2.92039L12.615 2.92665C12.7641 3.18835 12.9892 3.31337 13.2901 3.30172L13.2839 3.28921L13.2776 3.25171V3.03917L13.3026 2.75786C13.3026 2.75578 13.3026 2.75369 13.3026 2.75161L13.3401 2.4078C13.3402 2.40155 13.3402 2.39529 13.3401 2.38904L13.3651 2.05148C13.3653 2.04314 13.3653 2.03481 13.3651 2.02647L13.3714 1.75142C13.3716 1.741 13.3716 1.73058 13.3714 1.72017V1.52638C13.371 1.49708 13.3689 1.46791 13.3651 1.43886L13.3526 1.33884C13.3466 1.29201 13.3362 1.24617 13.3214 1.20132L13.3026 1.14506C13.2694 1.03917 13.2153 0.945397 13.1401 0.863753L13.0963 0.819994C13.0202 0.739558 12.9306 0.679131 12.8275 0.63871L12.7463 0.607454C12.6662 0.574248 12.5828 0.555494 12.4962 0.551193H12.3775C12.2991 0.547529 12.222 0.555865 12.1462 0.576198L11.9836 0.626207C11.92 0.64344 11.8596 0.668445 11.8023 0.701222L11.6023 0.819994C11.5648 0.841992 11.5293 0.866996 11.496 0.895008L11.2647 1.0888C11.2356 1.11387 11.2086 1.14096 11.1835 1.17006L10.9272 1.45762C10.9117 1.4757 10.8971 1.49446 10.8834 1.51388L10.6084 1.8827C10.5998 1.8929 10.5914 1.90332 10.5834 1.91395L10.3271 2.30778C10.3228 2.31397 10.3186 2.32022 10.3146 2.32653L10.077 2.7016L9.86447 3.05167L9.65819 3.37673L9.4769 3.63303L9.40189 3.7393L9.37063 3.75805C9.59894 3.81337 9.8094 3.77378 10.002 3.63928L9.92074 3.62053C10.011 3.69585 10.1131 3.74794 10.227 3.77681L10.1645 3.72055C10.0985 3.66686 10.0255 3.62518 9.94574 3.59552L9.88323 3.57052C9.66939 3.49188 9.46101 3.50439 9.25811 3.60802L9.18935 3.63928C9.10909 3.68115 9.03824 3.73532 8.97681 3.80181L8.89554 3.88933C8.88038 3.90334 8.86579 3.91793 8.85178 3.93309L8.73926 4.07061C8.72579 4.09087 8.71329 4.11171 8.70175 4.13312L8.57048 4.32691C8.56838 4.32898 8.5663 4.33107 8.56423 4.33316L8.42045 4.55821L8.25167 4.79575C8.24741 4.80194 8.24324 4.80819 8.23917 4.8145L8.11414 5.00829L8.04538 5.08956L7.97662 5.15832C8.11675 5.12037 8.23761 5.04952 8.33918 4.94578L8.25167 4.97078C8.46613 5.14932 8.70784 5.20142 8.97681 5.12706L8.90179 5.06455C8.94834 5.14332 9.00669 5.21209 9.07683 5.27084L8.99556 5.13957L8.90179 4.95828C8.89777 4.94987 8.8936 4.94154 8.88929 4.93328L8.78302 4.74574C8.75458 4.69634 8.72124 4.65049 8.683 4.60822L8.57048 4.48319C8.47218 4.37575 8.35341 4.30074 8.21416 4.25815L8.11414 4.22689C7.85316 4.1458 7.61353 4.18748 7.39526 4.35192L7.31399 4.41443C7.26835 4.44753 7.22668 4.48504 7.18897 4.52695L7.13896 4.58946L7.08895 4.63947C7.33799 4.65827 7.55053 4.57909 7.72657 4.40193L7.66406 4.39567C7.81123 4.55386 7.99251 4.64137 8.20791 4.65822L8.15165 4.59571C8.1878 4.66905 8.23364 4.73573 8.28918 4.79575L8.25792 4.73324L8.22666 4.62697L8.17665 4.38942L8.12039 4.08937C8.11701 4.06837 8.11285 4.04753 8.10789 4.02685L8.02037 3.69554C8.01341 3.66803 8.00507 3.64094 7.99537 3.61428L7.8766 3.29547C7.871 3.27649 7.86475 3.25774 7.85784 3.2392L7.72032 2.9454C7.71093 2.92201 7.70051 2.89909 7.68906 2.87664L7.55153 2.63909C7.52155 2.58523 7.48613 2.53522 7.44526 2.48906L7.32649 2.36404C7.17187 2.19482 6.98017 2.10314 6.75138 2.08899L6.66387 2.08273C6.32935 2.06131 6.07306 2.19258 5.89497 2.47656L5.8137 2.60783C5.77687 2.66677 5.74769 2.72928 5.72619 2.79537L5.65117 3.02666C5.64378 3.05138 5.63753 3.07639 5.63242 3.10168L5.55741 3.43299C5.55002 3.45771 5.54376 3.48272 5.53865 3.50801L5.48239 3.92684C5.48202 3.94142 5.48202 3.95601 5.48239 3.97059L5.44488 4.43943C5.44267 4.44774 5.44059 4.45607 5.43863 4.46444L5.41988 4.95203C5.41772 4.95826 5.41564 4.96451 5.41363 4.97078L5.40738 5.42087L5.38237 5.75218L5.33861 5.98973C5.42654 5.87895 5.4828 5.75393 5.5074 5.61466L5.43238 5.71468C5.61094 5.84998 5.81136 5.90367 6.03364 5.87573C6.25593 5.84779 6.43683 5.74618 6.57635 5.5709L6.52634 5.53339L6.42632 5.38961L6.25754 5.05205C6.25547 5.04995 6.25338 5.04787 6.25129 5.0458L6.05125 4.65822C6.04718 4.65191 6.04301 4.64566 6.03875 4.63947L5.85121 4.30191C5.84714 4.29559 5.84297 4.28934 5.83871 4.28315L5.67618 4.01435L5.56991 3.82057L5.50114 3.67679C5.48646 3.64648 5.46979 3.61731 5.45114 3.58927L5.41363 3.53301C5.23533 3.26662 4.98813 3.16002 4.67202 3.21319C4.35591 3.26637 4.1572 3.44799 4.07587 3.75805L4.06337 3.79556C4.05848 3.81415 4.05431 3.83291 4.05087 3.85182L4.03837 3.92684L4.01961 4.01435L4.00086 4.11437L3.9696 4.2394L3.92584 4.40818C3.92362 4.41648 3.92153 4.42481 3.91959 4.43318L3.86333 4.67073C3.8611 4.67903 3.85902 4.68736 3.85708 4.69573L3.80082 4.97704C3.79842 4.98948 3.79633 5.00199 3.79457 5.01454L3.75081 5.32085C3.74675 5.35197 3.74467 5.38323 3.74456 5.41462L3.73831 5.74593C3.73983 5.76267 3.74191 5.77934 3.74456 5.79594L3.76331 6.19602C3.76331 6.1981 3.76331 6.20018 3.76331 6.20227L3.79457 6.69611C3.79443 6.70445 3.79443 6.71278 3.79457 6.72112L3.85083 7.31498C3.85269 7.32544 3.85477 7.33586 3.85708 7.34624L3.95085 8.05887C3.95271 8.06934 3.95479 8.07975 3.9571 8.09013L4.10088 8.89028C4.10264 8.90284 4.10472 8.91534 4.10713 8.92779L4.30717 9.77795C4.30713 9.78212 4.30713 9.78628 4.30717 9.79045L4.54471 10.6969L4.76976 11.6283L4.9823 12.5285L5.17608 13.3724C5.17802 13.3808 5.18011 13.3891 5.18233 13.3974L5.35737 14.0788C5.3612 14.0914 5.36537 14.1039 5.36987 14.1163L5.52615 14.6164C5.52815 14.6226 5.53023 14.6289 5.5324 14.6351L5.63867 14.9352C5.63863 14.9393 5.63863 14.9435 5.63867 14.9477L5.69493 15.0977C5.71865 14.9678 5.70823 14.8407 5.66368 14.7164L5.65117 14.7789C6.02257 14.7426 6.23928 14.5405 6.3013 14.1725L6.25129 14.1788C6.37733 14.2428 6.51069 14.2678 6.65136 14.2538L6.5826 14.2163C6.62962 14.2608 6.68172 14.2983 6.73888 14.3288L6.68262 14.2726L6.62636 14.21C6.61036 14.1947 6.59369 14.1801 6.57635 14.1663L6.50759 14.1038C6.40669 14.0148 6.29 13.9585 6.15752 13.935L6.09501 13.9225C5.77767 13.8654 5.53388 13.9737 5.36362 14.2476L5.33861 14.2913C5.29071 14.3644 5.25738 14.4435 5.23859 14.5289L5.23234 14.5851L5.21359 14.6539C5.23757 14.608 5.25632 14.5601 5.26985 14.5101L5.23859 14.5664C5.48225 14.5391 5.66353 14.4182 5.78245 14.2038L5.72619 14.21C5.84941 14.2679 5.9786 14.2887 6.11376 14.2726L6.07 14.2538L6.00749 14.21L5.89497 14.1225L5.75744 14.01L5.60741 13.8537L5.43238 13.6537L5.2636 13.4349C5.25556 13.4242 5.24722 13.4138 5.23859 13.4036L5.09482 13.2411C5.05406 13.1956 5.00822 13.156 4.95729 13.1223L4.85727 13.0536C4.69932 12.9452 4.52587 12.9067 4.33691 12.9382C4.14796 12.9697 3.99635 13.0624 3.88209 13.2161L3.83833 13.2849C3.74477 13.4088 3.69684 13.5484 3.69455 13.7037V13.91C3.69531 13.9351 3.6974 13.9601 3.7008 13.985L3.73831 14.3038C3.73994 14.3185 3.74202 14.333 3.74456 14.3476L3.81332 14.7476C3.81309 14.7581 3.81309 14.7685 3.81332 14.7789L3.90709 15.2165C3.90913 15.2207 3.91122 15.2248 3.91334 15.229L4.00711 15.6353C4.01069 15.6521 4.01486 15.6688 4.01961 15.6853L4.11338 15.9791L4.13213 16.0604L4.12588 16.0854C4.43737 15.9977 4.61449 15.7935 4.65723 15.4728L4.55722 15.4978C4.71609 15.5653 4.87862 15.5757 5.04481 15.529L4.92604 15.479L4.7635 15.3853L4.53846 15.2352L4.28841 15.0477L4.01336 14.8414C4.00112 14.8327 3.98861 14.8244 3.97585 14.8164L3.70705 14.6351C3.66393 14.6051 3.61809 14.5801 3.56953 14.5601L3.31948 14.4663C3.28692 14.4534 3.25358 14.443 3.21946 14.4351L3.01942 14.3913C2.95982 14.3771 2.89939 14.3708 2.83814 14.3726L2.70686 14.3788C2.51071 14.389 2.34818 14.4682 2.21927 14.6164L2.15676 14.6851C2.01222 14.8489 1.95804 15.0386 1.99423 15.254L2.01923 15.3978C2.02757 15.4516 2.04216 15.5037 2.06299 15.554L2.16301 15.7791L2.30054 16.1542C2.30452 16.1626 2.30869 16.1709 2.31304 16.1792L2.54433 16.7355C2.54429 16.7397 2.54429 16.7439 2.54433 16.748L2.85064 17.4419L3.18195 18.2108L3.50076 18.9484L3.72581 19.5423L3.85708 19.9486L3.90709 20.1674C3.91378 20.098 3.90961 20.0292 3.89459 19.9611L3.88834 20.0424C4.09701 20.2017 4.32119 20.2278 4.56086 20.1206C4.80054 20.0135 4.9306 19.8291 4.95104 19.5673L4.90103 19.5298C4.93767 19.5842 4.98143 19.6322 5.03231 19.6736L4.93854 19.5423L4.81977 19.3735L4.67599 19.136L4.51971 18.8672L4.39468 18.6109L4.30092 18.3858L4.2384 18.2358C4.13839 17.9885 3.95502 17.8635 3.6883 17.8607H3.6633C3.48061 17.8608 3.33174 17.9317 3.21668 18.0736C3.10162 18.2155 3.06296 18.3759 3.10069 18.5546L3.11319 18.6234L3.13194 18.7297L3.1507 18.8672C3.15065 18.8713 3.15065 18.8755 3.1507 18.8797L3.1757 19.0485C3.17888 19.0674 3.18304 19.0862 3.1882 19.1047L3.23196 19.2673L3.27572 19.4735L3.37574 20.0049C3.37946 20.0175 3.38363 20.0301 3.38824 20.0424L3.46326 20.3237C3.46523 20.33 3.46731 20.3362 3.46951 20.3425L3.55077 20.6113L3.62579 20.8676L3.6883 21.0989L3.73206 21.3864L3.83208 22.1053L3.88209 22.4741L3.92584 22.8367L3.97585 23.1805L4.00711 23.4931L4.01336 23.7931L4.01961 24.0807C4.0196 24.0828 4.0196 24.0848 4.01961 24.0869L4.03212 24.3557C4.03207 24.3599 4.03207 24.3641 4.03212 24.3682L4.04462 24.6245C4.04638 24.635 4.04847 24.6454 4.05087 24.6558L4.07587 24.8933C4.07775 24.9017 4.07983 24.91 4.08212 24.9183L4.11338 25.1309C4.11526 25.1393 4.11734 25.1476 4.11963 25.1559L4.16339 25.3434C4.16673 25.3603 4.1709 25.377 4.17589 25.3934L4.29467 25.7435L4.33217 25.9185L4.35718 26.1061L4.35093 26.3061L4.33842 26.5061C4.37148 26.4413 4.39023 26.3725 4.39468 26.2998L4.34467 26.3936C4.52564 26.3588 4.65692 26.2588 4.7385 26.0936L4.68224 26.1061C4.77446 26.1355 4.86823 26.1417 4.96354 26.1248L4.88228 26.0936L4.79476 26.0686L4.71975 26.031L4.58847 25.931L4.41969 25.781C4.41152 25.7745 4.40319 25.7683 4.39468 25.7622L4.23215 25.631C4.18104 25.5904 4.12478 25.5592 4.06337 25.5372L3.88834 25.4747C3.80725 25.4462 3.7239 25.4358 3.63829 25.4434L3.46326 25.4559C3.42937 25.4593 3.39603 25.4655 3.36324 25.4747L3.19446 25.5184C3.16659 25.5269 3.13951 25.5373 3.11319 25.5497L2.95691 25.6185C2.92886 25.6289 2.90177 25.6414 2.87565 25.656L2.74437 25.7435C2.71052 25.7652 2.67926 25.7903 2.6506 25.8185L2.55058 25.9123C2.51097 25.9512 2.47763 25.995 2.45056 26.0435L2.3818 26.1686C2.34654 26.231 2.32362 26.2977 2.31304 26.3686L2.28803 26.5311C2.28269 26.5664 2.28061 26.6018 2.28178 26.6374L2.28803 26.8562C2.28763 26.8687 2.28763 26.8812 2.28803 26.8937L2.31304 27.1375C2.31401 27.1585 2.31609 27.1793 2.31929 27.2L2.42556 27.6939L2.45682 27.9252L2.46307 28.1502L2.45056 28.3565L2.43806 28.5065L2.43181 28.5378L2.42556 28.544C2.59046 28.4876 2.70714 28.3792 2.77563 28.219L2.72562 28.2377C2.84002 28.2653 2.95254 28.259 3.06318 28.219L2.99442 28.2065C3.04708 28.2382 3.10334 28.2611 3.1632 28.2752L3.08193 28.2252C3.05398 28.2082 3.02481 28.1936 2.99442 28.1815L2.88815 28.1377C2.87176 28.1307 2.85509 28.1244 2.83814 28.1189L2.73187 28.0814C2.69907 28.0723 2.66573 28.0661 2.63185 28.0627L2.51933 28.0439C2.49031 28.0397 2.46114 28.0376 2.43181 28.0377L2.32554 28.0439C2.27685 28.0443 2.22893 28.0506 2.18176 28.0627L2.1005 28.0814C1.94967 28.1191 1.8309 28.2025 1.74418 28.3315L1.70042 28.4002C1.63167 28.5045 1.59833 28.6192 1.6004 28.7441V28.8816C1.60065 28.9216 1.60482 28.9612 1.6129 29.0004L1.65666 29.1941C1.66133 29.2195 1.66758 29.2445 1.67542 29.2692L1.76293 29.5255C1.76861 29.5403 1.77486 29.5549 1.78169 29.5692L1.91296 29.888C1.92069 29.903 1.92902 29.9175 1.93797 29.9318L2.11925 30.2881L2.31304 30.6632L2.46932 31.0257L2.54433 31.3258L2.55683 31.4758L2.53808 31.5321C2.73714 31.4642 2.86425 31.3287 2.9194 31.1258L2.81313 31.1633C2.89232 31.1683 2.96942 31.1579 3.04443 31.132L2.87565 31.1195C2.86731 31.1193 2.85897 31.1193 2.85064 31.1195H2.61935C2.61518 31.1194 2.61101 31.1194 2.60684 31.1195H2.32554H2.06299C2.04215 31.1184 2.02132 31.1184 2.00048 31.1195L1.78169 31.1445C1.74336 31.1492 1.70585 31.1575 1.66917 31.1695L1.51289 31.2195C1.44477 31.2396 1.38226 31.2708 1.32535 31.3133L1.22533 31.3883C1.19588 31.4108 1.16879 31.4358 1.14407 31.4633L1.06905 31.5508C1.05312 31.5707 1.03854 31.5916 1.02529 31.6134L0.969032 31.6946C0.9669 31.6988 0.964815 31.7029 0.962781 31.7071L0.944028 31.7321L0.925274 31.7509C0.882782 31.7936 0.847358 31.8415 0.819004 31.8947L0.768994 31.9822C0.74264 32.0337 0.723886 32.0879 0.712734 32.1447L0.681478 32.276C0.669544 32.3317 0.665377 32.3879 0.668975 32.4448L0.675227 32.5885C0.680851 32.6698 0.701688 32.7468 0.737738 32.8198L0.80025 32.9511C0.83479 33.0201 0.880632 33.0805 0.937777 33.1324L1.0753 33.2637C1.08931 33.2769 1.10389 33.2894 1.11906 33.3012L1.32535 33.4575L1.6004 33.6825L1.93172 33.9888L2.30054 34.3701L2.71311 34.814L3.1507 35.2891L3.60078 35.8142C3.60489 35.8184 3.60905 35.8226 3.61329 35.8267L4.07587 36.3393C4.07992 36.3456 4.08409 36.3518 4.08838 36.358L4.56972 36.8456C4.57973 36.8564 4.59015 36.8668 4.60097 36.8769L5.11982 37.3269C5.132 37.3358 5.1445 37.3441 5.15733 37.3519L5.69493 37.752C5.69907 37.7542 5.70324 37.7562 5.70743 37.7583L6.21378 38.1146L6.65136 38.4397L7.02643 38.7335C7.02852 38.7335 7.0306 38.7335 7.03269 38.7335L7.34525 38.9835C7.36325 38.9971 7.38201 39.0096 7.40151 39.021L7.63905 39.1648C7.66893 39.1823 7.70019 39.1969 7.73282 39.2086L7.9141 39.2773C7.99488 39.3083 8.07823 39.3188 8.16415 39.3086L8.28292 39.2898C8.38984 39.2744 8.48153 39.2286 8.55798 39.1523L8.60799 39.1085C8.6528 39.0638 8.68614 39.0117 8.708 38.9523L8.72051 38.9147C8.72497 38.9066 8.72914 38.8982 8.73301 38.8897L8.73926 38.8522C8.75528 38.799 8.75945 38.7448 8.75176 38.6897V38.6709C8.73657 38.5638 8.68395 38.4802 8.5939 38.4202C8.50384 38.3601 8.40644 38.3437 8.30168 38.3709Z" fill="black"/>
</g>
<defs>
<clipPath id="clip0_1_7344">
<rect width="20" height="46" fill="white"/>
</clipPath>
</defs>
</svg>
