<svg width="26" height="44" viewBox="0 0 26 44" fill="none" xmlns="http://www.w3.org/2000/svg">
<g clip-path="url(#clip0_1_7345)">
<path d="M13.9727 11.2478C13.9727 11.3496 14.0087 11.4365 14.0807 11.5085C14.1527 11.5806 14.2396 11.6166 14.3415 11.6166C14.4433 11.6166 14.5303 11.5806 14.6023 11.5085C14.6743 11.4365 14.7103 11.3496 14.7103 11.2478C14.7103 11.1459 14.6743 11.059 14.6023 10.987C14.5303 10.9149 14.4433 10.8789 14.3415 10.8789C14.2396 10.8789 14.1527 10.9149 14.0807 10.987C14.0087 11.059 13.9727 11.1459 13.9727 11.2478ZM13.8664 11.1977C13.8664 11.3272 13.9122 11.4377 14.0037 11.5293C14.0953 11.6208 14.2058 11.6666 14.3352 11.6666C14.4647 11.6666 14.5752 11.6208 14.6668 11.5293C14.7583 11.4377 14.8041 11.3272 14.8041 11.1977C14.8041 11.0683 14.7583 10.9578 14.6668 10.8662C14.5752 10.7747 14.4647 10.7289 14.3352 10.7289C14.2058 10.7289 14.0953 10.7747 14.0037 10.8662C13.9122 10.9578 13.8664 11.0683 13.8664 11.1977ZM13.8476 10.8352L13.6914 11.0227C13.6304 11.0931 13.5846 11.1723 13.5538 11.2603L13.3475 11.8854C13.3428 11.9019 13.3387 11.9186 13.335 11.9354L13.06 12.9981C13.0553 13.0146 13.0512 13.0313 13.0475 13.0481L12.7412 14.6296C12.7387 14.6442 12.7367 14.6588 12.7349 14.6734L12.4161 16.8051C12.4159 16.8155 12.4159 16.8259 12.4161 16.8363L12.1161 19.4493C12.1159 19.4597 12.1159 19.4701 12.1161 19.4806L11.8785 22.3999C11.8763 22.4082 11.8742 22.4165 11.8723 22.4249L11.7035 25.4567C11.7033 25.4671 11.7033 25.4775 11.7035 25.488L11.6472 28.4698C11.6471 28.4802 11.6471 28.4906 11.6472 28.501L11.6847 31.3078C11.6846 31.3182 11.6846 31.3287 11.6847 31.3391L11.8035 33.7958C11.8052 33.8104 11.8073 33.825 11.8098 33.8396L11.991 35.8524C11.9924 35.8733 11.9945 35.8942 11.9973 35.9149L12.2536 37.5028C12.26 37.5366 12.2684 37.5699 12.2786 37.6028L12.6099 38.8092C12.6138 38.8218 12.6179 38.8344 12.6224 38.8468L12.9037 39.7032C12.9076 39.7158 12.9117 39.7283 12.9162 39.7407L13.1225 40.2845C13.1301 40.3036 13.1384 40.3224 13.1475 40.3408L13.2975 40.6471C13.3105 40.675 13.3251 40.7021 13.3413 40.7284L13.4476 40.8971C13.4611 40.9187 13.4757 40.9395 13.4913 40.9597L13.5663 41.0534C13.5981 41.0944 13.6335 41.1319 13.6726 41.1659L13.7226 41.2097C13.9242 41.386 14.1555 41.4443 14.4165 41.3847L14.4478 41.3785C14.8127 41.2932 15.0127 41.064 15.0479 40.6909L15.0541 40.6533C15.0915 40.2876 14.9435 40.0272 14.6103 39.872L14.5915 39.8657C14.2745 39.7159 13.987 39.7597 13.7289 39.997L13.6976 40.0282L13.6726 40.0532L13.6851 40.0407L13.6351 40.0595L13.5038 40.1095C13.3679 40.1607 13.2533 40.242 13.16 40.3533L13.0225 40.5096C12.9812 40.5577 12.9458 40.6098 12.9162 40.6659L12.8162 40.8596C12.8073 40.876 12.799 40.8927 12.7912 40.9096L12.7349 41.0472L12.6787 41.1284C12.7942 41.0591 12.888 40.9674 12.96 40.8534L12.9475 40.8596L12.9287 40.8659L12.8787 40.8784L12.9225 40.8721L12.935 40.8784L12.8224 40.8471L12.6099 40.7909C12.5996 40.7865 12.5891 40.7823 12.5786 40.7784L12.4411 40.7471L12.5161 40.7846L12.5224 40.8034L12.4474 40.4908L12.4099 39.8782L12.4661 39.0405L12.5599 38.0153L12.6849 36.9214L12.8099 35.9462L12.91 35.2461L12.9725 34.9148C12.9229 34.7165 12.8169 34.5553 12.6544 34.4313C12.4919 34.3073 12.3085 34.2476 12.1042 34.2521C11.8999 34.2566 11.7193 34.3243 11.5624 34.4553C11.4056 34.5864 11.3067 34.752 11.2659 34.9523L11.2847 35.021C11.2921 34.9238 11.2838 34.828 11.2596 34.7335L11.2221 35.1711L11.1534 35.9837C11.1534 35.9879 11.1534 35.992 11.1534 35.9962L11.0659 37.1089C11.0658 37.1152 11.0658 37.1214 11.0659 37.1277L10.9908 38.4217C10.9906 38.4342 10.9906 38.4467 10.9908 38.4592L10.9658 39.7219C10.965 39.7448 10.965 39.7678 10.9658 39.7907L11.0221 40.8534C11.0232 40.8785 11.0253 40.9035 11.0284 40.9284L11.1284 41.7161C11.1333 41.7455 11.1395 41.7747 11.1471 41.8036L11.2534 42.2724C11.2697 42.3483 11.2947 42.4213 11.3284 42.4912L11.4097 42.6537C11.6054 43.0545 11.9254 43.2357 12.3697 43.1974C12.814 43.1591 13.0983 42.9258 13.2225 42.4975L13.2538 42.3912C13.2821 42.2931 13.2946 42.1931 13.2913 42.0911L13.285 41.7911C13.2827 41.7406 13.2764 41.6906 13.2663 41.641L13.1913 41.241C13.1852 41.203 13.1768 41.1654 13.1663 41.1284L13.0412 40.7284C13.0263 40.6789 13.0076 40.631 12.985 40.5846L12.8224 40.2658C12.767 40.1511 12.692 40.051 12.5974 39.9657L12.4349 39.8219C12.225 39.6382 11.9813 39.559 11.7035 39.5844L11.5597 39.5969C11.2938 39.6216 11.0751 39.7363 10.9033 39.9407L10.7971 40.0657C10.6759 40.2113 10.6029 40.378 10.5783 40.5658L10.547 40.7909C10.5372 40.8615 10.5351 40.9323 10.5408 41.0034L10.5658 41.3035C10.5696 41.3434 10.5758 41.383 10.5845 41.4222L10.6533 41.7723C10.6603 41.8019 10.6686 41.831 10.6783 41.8598L10.7846 42.2099C10.7904 42.2267 10.7966 42.2434 10.8033 42.2599L10.9221 42.585C10.9438 42.6438 10.9709 42.7001 11.0033 42.7537L11.1596 43.01C11.2522 43.163 11.3772 43.2818 11.5347 43.3664L11.7285 43.4726C11.9947 43.6137 12.2677 43.6283 12.5474 43.5164L12.7849 43.4226C12.9395 43.3643 13.0708 43.2726 13.1788 43.1476L13.4038 42.8788C13.4537 42.8172 13.4953 42.7505 13.5288 42.6787L13.7164 42.3037C13.7433 42.2453 13.7641 42.1849 13.7789 42.1224L13.8851 41.7223C13.9044 41.6485 13.9148 41.5735 13.9164 41.4973L13.9227 41.1597C13.9274 41.0236 13.9045 40.8923 13.8539 40.7659L13.7601 40.5408C13.681 40.3502 13.5539 40.2002 13.3788 40.0907L13.2038 39.9845C13.0471 39.8858 12.8763 39.8358 12.6912 39.8344H12.4286C12.3505 39.8335 12.2734 39.8419 12.1973 39.8594L11.8848 39.9345C11.8247 39.9477 11.7663 39.9665 11.7097 39.9907L11.3972 40.1345C11.2984 40.1762 11.2088 40.2324 11.1284 40.3033L10.8846 40.5346C10.7752 40.6327 10.6918 40.7494 10.6345 40.8846L10.5283 41.1597C10.4572 41.3309 10.4364 41.508 10.4657 41.691L10.5095 41.9598C10.542 42.1451 10.6211 42.3077 10.7471 42.4474L10.9221 42.6475C11.061 42.8021 11.2318 42.9021 11.4347 42.9475L11.6722 43.0038C11.8835 43.0519 12.0877 43.0311 12.2848 42.9413L12.5849 42.8038C12.691 42.7544 12.7848 42.6877 12.8662 42.6037L13.1725 42.2912C13.2337 42.2316 13.2858 42.1649 13.3288 42.0911L13.5476 41.6973C13.6907 41.4369 13.699 41.1723 13.5726 40.9034L13.4663 40.6721C13.4042 40.5391 13.306 40.4429 13.1717 40.3834C13.0374 40.324 12.9002 40.3161 12.7599 40.3595L12.5224 40.4346C12.378 40.4773 12.253 40.5523 12.1473 40.6596L11.866 40.9534L11.6972 41.1034L11.5535 41.1534C11.7598 41.2158 11.964 41.2095 12.1661 41.1347L11.9285 41.0659C12.0552 41.2243 12.2156 41.3327 12.4099 41.391L12.4036 41.3785C12.3292 41.5511 12.3063 41.7303 12.3349 41.9161L12.3661 41.8536L12.3474 41.8661L12.4599 41.8161L12.5599 41.7848H12.6912C12.5365 41.6952 12.3698 41.6515 12.1911 41.6535L12.3661 41.7536C12.284 41.555 12.1507 41.4008 11.966 41.291L11.9785 41.3285V41.3597L11.9348 41.541L11.8598 41.6973V41.691L11.8348 41.7035C12.103 41.8533 12.3802 41.872 12.6662 41.7598L12.4724 41.6473C12.5631 41.7937 12.6839 41.9083 12.8349 41.9911L12.7287 41.8223L12.6537 41.616L12.5661 41.3285L12.5099 41.0784L12.5036 40.9534L12.5161 40.8346C12.4291 40.9615 12.375 41.1011 12.3536 41.2535L12.4474 41.1159C12.1419 41.1425 11.9023 41.2821 11.7285 41.5348L11.8723 41.5223C11.6642 41.3403 11.4225 41.2611 11.1471 41.2847L11.1721 41.3035L11.2159 41.3847L11.2972 41.6535L11.3472 41.9161L11.3534 42.1349C11.4053 42.0109 11.4303 41.8817 11.4284 41.7473L11.3847 41.8536C11.5736 42.2239 11.8758 42.401 12.2912 42.3848C12.7066 42.3687 12.9941 42.1687 13.1538 41.7848L13.1288 41.7286L13.06 41.4285L12.985 40.7284L12.9412 39.7282L12.9537 38.5029L13.0037 37.2277L13.06 36.1087C13.0601 36.1004 13.0601 36.0921 13.06 36.0837L13.0725 35.2711C13.0743 35.2377 13.0743 35.2044 13.0725 35.1711L13.035 34.7335C13.0188 34.5502 12.9522 34.3877 12.8349 34.2459L12.7912 34.1896C12.5503 33.8998 12.2482 33.8051 11.885 33.9055C11.5218 34.0059 11.3113 34.2423 11.2534 34.6147L11.1971 34.971C11.1971 34.9773 11.1971 34.9835 11.1971 34.9898L11.0971 35.7212C11.0971 35.7253 11.0971 35.7295 11.0971 35.7337L10.9846 36.7151L10.8408 37.8091C10.8387 37.8111 10.8366 37.8132 10.8346 37.8153L10.7095 38.8655C10.7071 38.88 10.705 38.8946 10.7033 38.9093L10.6408 39.8157C10.6363 39.8531 10.6342 39.8906 10.6345 39.9282L10.6783 40.6721C10.6816 40.7271 10.6899 40.7812 10.7033 40.8346L10.8346 41.3722C10.8585 41.4707 10.8981 41.5624 10.9533 41.6473L11.1534 41.9536C11.2252 42.0635 11.3169 42.1531 11.4284 42.2224L11.6597 42.3599C11.7432 42.4121 11.8328 42.4496 11.9285 42.4724L12.1723 42.5287L12.3974 42.5787C12.4015 42.5787 12.4057 42.5787 12.4099 42.5787L12.5974 42.6225C12.6386 42.6317 12.6803 42.638 12.7224 42.6412L12.8787 42.6475C12.9477 42.6534 13.0165 42.6514 13.085 42.6412L13.21 42.6225C13.259 42.614 13.3069 42.6015 13.3538 42.585L13.4726 42.5475C13.5089 42.5352 13.5444 42.5206 13.5788 42.5037L13.6976 42.4412C13.8073 42.386 13.901 42.311 13.9789 42.2161L14.0602 42.1224C14.0931 42.0833 14.1223 42.0417 14.1477 41.9974L14.2227 41.8598C14.239 41.8315 14.2536 41.8023 14.2665 41.7723L14.3352 41.6035L14.3977 41.4785L14.4665 41.3847L14.5353 41.2847C14.4474 41.3369 14.3724 41.4036 14.3102 41.4848L14.4228 41.4222C14.4312 41.4162 14.4395 41.4099 14.4478 41.4035L14.5478 41.341C14.5784 41.3222 14.6076 41.3013 14.6353 41.2785L14.7103 41.2097L14.7603 41.1722C14.5155 41.1214 14.2967 41.1755 14.1039 41.3347L14.1227 41.341C14.175 41.127 14.142 40.927 14.0238 40.7411C13.9056 40.5552 13.7386 40.4405 13.5226 40.3971L13.5163 40.4346C13.725 40.4814 13.92 40.4483 14.1014 40.335C14.2827 40.2218 14.3982 40.0612 14.4478 39.8532L14.4165 39.8469C14.529 39.9758 14.6686 40.0591 14.8353 40.097L14.7978 40.0532L14.7603 40.0095L14.7103 39.9282L14.604 39.6969L14.4353 39.2218L14.2415 38.4217L14.0539 37.2277L13.8539 35.6649L13.6914 33.6895L13.5851 31.2703L13.5476 28.4885L13.6038 25.538L13.7476 22.5374L13.9789 19.6431L14.254 17.0489L14.529 14.9235L14.7416 13.3294L14.8916 12.2479C14.8938 12.2417 14.8958 12.2355 14.8978 12.2292L14.9729 11.5791C14.9839 11.4929 14.9797 11.4075 14.9604 11.3228L14.9041 11.0852C14.8471 10.8415 14.6969 10.6908 14.4533 10.6331C14.2097 10.5754 14.0078 10.6428 13.8476 10.8352ZM13.26 40.6158L13.2475 40.4033C13.2349 40.2201 13.137 40.1347 12.9537 40.1472C12.7705 40.1597 12.685 40.2575 12.6974 40.4408L12.7099 40.6533C12.7225 40.8366 12.8205 40.922 13.0037 40.9095C13.187 40.897 13.2724 40.7991 13.26 40.6158Z" fill="black"/>
<path d="M12.0849 38.2961C12.0849 38.492 12.1828 38.5899 12.3787 38.5899C12.5746 38.5899 12.6725 38.492 12.6725 38.2961C12.6725 38.1002 12.5746 38.0023 12.3787 38.0023C12.1828 38.0023 12.0849 38.1002 12.0849 38.2961ZM11.9911 38.2961C11.9911 38.3997 12.0277 38.4881 12.101 38.5613C12.1742 38.6345 12.2626 38.6712 12.3662 38.6712C12.4698 38.6712 12.5582 38.6345 12.6314 38.5613C12.7046 38.4881 12.7413 38.3997 12.7413 38.2961C12.7413 38.1925 12.7046 38.1041 12.6314 38.0309C12.5582 37.9576 12.4698 37.921 12.3662 37.921C12.2626 37.921 12.1742 37.9576 12.101 38.0309C12.0277 38.1041 11.9911 38.1925 11.9911 38.2961ZM12.6913 38.0335L12.5037 37.7147C12.4501 37.625 12.3793 37.5521 12.2912 37.4959L12.0474 37.3397L11.7973 37.1584L11.5285 36.9458C11.5183 36.9372 11.5079 36.9289 11.4973 36.9208L11.1722 36.6895C11.1346 36.6633 11.095 36.6404 11.0534 36.6208L10.6096 36.402C10.5911 36.3951 10.5723 36.3888 10.5533 36.3832L9.45314 35.9331C9.44691 35.931 9.44066 35.9289 9.43439 35.9269L8.84677 35.6956L8.23416 35.433L7.60279 35.158L7.00892 34.8517L6.46507 34.5016L5.95247 34.089L5.45863 33.6077L4.98354 33.0888L4.50845 32.57C4.5043 32.5679 4.50013 32.5658 4.49594 32.5637L4.05211 32.0887L3.66454 31.5948L3.32697 31.0635L3.05192 30.5196L2.82063 29.982L2.66435 29.4944L2.57683 29.0943L2.55808 28.7818L2.56433 28.6755L2.52057 28.7693L2.4393 28.8255L2.52057 28.8005L2.76436 28.7568L3.12068 28.7193L3.55827 28.688L4.00835 28.6693H4.42718L4.796 28.6943L5.14607 28.7443L5.47113 28.8068C5.48774 28.8093 5.50441 28.8114 5.52114 28.813L5.8212 28.8505C5.82953 28.8507 5.83787 28.8507 5.8462 28.8505L6.09 28.8755C6.14418 28.8805 6.19835 28.8805 6.25253 28.8755L6.44632 28.863C6.49937 28.8574 6.55146 28.847 6.6026 28.8318L6.75262 28.7943C6.77591 28.7869 6.79883 28.7786 6.82139 28.7693L6.92141 28.7318C6.98842 28.7069 7.05093 28.6735 7.10894 28.6317L7.1652 28.588C7.27079 28.5113 7.35091 28.4137 7.40557 28.2952C7.46023 28.1767 7.48246 28.0525 7.47226 27.9224C7.46205 27.7923 7.42072 27.673 7.34825 27.5644C7.27579 27.4559 7.18143 27.372 7.06518 27.3127L7.00267 27.2815C6.95079 27.2547 6.89662 27.2338 6.84014 27.219L6.74012 27.194L6.6026 27.1565C6.58605 27.1518 6.56938 27.1476 6.55259 27.144L6.36505 27.1002C6.33608 27.0946 6.30691 27.0904 6.27753 27.0877L6.05874 27.0627L5.78994 27.0189L5.45238 26.9564C5.442 26.9542 5.43158 26.9521 5.42112 26.9502L5.0273 26.8939C5.01068 26.8914 4.99401 26.8893 4.97729 26.8877L4.54595 26.8502C4.51896 26.8469 4.49187 26.8448 4.46469 26.8439H3.9896C3.97918 26.8437 3.96876 26.8437 3.95834 26.8439L3.47075 26.8627C3.46241 26.8625 3.45408 26.8625 3.44574 26.8627L2.98316 26.8939C2.97482 26.8938 2.96649 26.8938 2.95815 26.8939L2.55182 26.9252C2.52665 26.9283 2.50164 26.9325 2.47681 26.9377L2.12674 26.9939C2.07763 27.0046 2.0297 27.0192 1.98297 27.0377L1.69541 27.1377C1.60569 27.1666 1.52234 27.2083 1.44536 27.2627L1.23907 27.419C1.13324 27.4967 1.04781 27.5925 0.982776 27.7066L0.84525 27.9504C0.78959 28.0521 0.754167 28.1605 0.738979 28.2754L0.682719 28.6317C0.673921 28.6961 0.671837 28.7607 0.676467 28.8255L0.707723 29.2881C0.710873 29.3323 0.717124 29.3761 0.726477 29.4194L0.838998 29.9382C0.845915 29.9678 0.85425 29.997 0.864003 30.0258L1.03904 30.5946C1.04782 30.6264 1.05823 30.6577 1.07029 30.6884L1.33284 31.2885C1.34068 31.3054 1.34902 31.3221 1.35785 31.3385L1.66416 31.9574C1.67585 31.9787 1.68835 31.9995 1.70166 32.0199L2.07673 32.6388C2.09592 32.6691 2.11676 32.6983 2.13925 32.7263L2.57058 33.2889C2.59029 33.3128 2.61113 33.3357 2.63309 33.3576L3.10818 33.864C3.10817 33.8661 3.10817 33.8682 3.10818 33.8702L3.59577 34.3828C3.5999 34.387 3.60407 34.3912 3.60828 34.3953L4.12087 34.9204C4.13105 34.9311 4.14147 34.9415 4.15213 34.9517L4.70223 35.4643C4.72235 35.4819 4.74319 35.4985 4.76475 35.5143L5.36486 35.9769C5.38891 35.9969 5.41391 36.0157 5.43987 36.0332L6.06499 36.4207C6.08931 36.4365 6.11431 36.4511 6.14001 36.4645L6.79638 36.7958C6.8128 36.8046 6.82947 36.813 6.84639 36.8208L7.50902 37.1084C7.51936 37.1127 7.52978 37.1169 7.54027 37.1209L8.1779 37.3709C8.18617 37.3752 8.1945 37.3794 8.2029 37.3834L8.81552 37.6022C8.82174 37.6044 8.828 37.6064 8.83427 37.6085L9.96574 37.9835L10.4283 38.1336L10.7784 38.2586L11.0784 38.3836L11.3598 38.5211C11.366 38.5233 11.3722 38.5254 11.3785 38.5274L11.6598 38.6524C11.745 38.6923 11.8346 38.7132 11.9286 38.7149H12.3037C12.4789 38.7155 12.6098 38.6396 12.6964 38.4874C12.783 38.3351 12.7813 38.1838 12.6913 38.0335ZM7.32148 27.594L7.30898 27.569C7.31582 27.6729 7.34707 27.7687 7.40275 27.8566V27.8191L7.409 27.7753C7.41471 27.7506 7.41887 27.7256 7.4215 27.7003V27.6128C7.42363 27.6087 7.42571 27.6045 7.42775 27.6003V27.519C7.42894 27.4961 7.42894 27.4732 7.42775 27.4503L7.4215 27.369C7.42004 27.3523 7.41796 27.3356 7.41525 27.319L7.40275 27.244C7.39792 27.2036 7.38959 27.1641 7.37774 27.1252L7.35274 27.0502C7.34404 27.0224 7.33362 26.9954 7.32148 26.9689L7.28398 26.8814C7.27444 26.8622 7.26402 26.8434 7.25272 26.8251L7.18396 26.7126C7.17425 26.6955 7.16384 26.6788 7.1527 26.6626L7.03393 26.5001C7.02589 26.4894 7.01756 26.479 7.00892 26.4688L6.83389 26.2438C6.82577 26.2352 6.81743 26.2269 6.80889 26.2188L6.55259 25.925L6.27128 25.5999L5.97748 25.2186L5.68367 24.7248L5.36486 24.1121C5.36285 24.1059 5.36077 24.0996 5.35861 24.0934L5.01479 23.4745C5.0148 23.4724 5.0148 23.4703 5.01479 23.4683L4.68973 22.8932L4.42718 22.3243L4.18964 21.7117L3.94584 21.0553L3.70829 20.4302L3.50826 19.8988L3.36448 19.405L3.27696 18.9361L3.24571 18.5048L3.26446 18.1297L3.33322 17.8109L3.42074 17.5609L3.55201 17.3233L3.71455 17.0983L3.85832 16.967L3.92709 16.9295L4.02711 16.9233L4.2709 16.9545L4.62097 17.0358C4.62927 17.038 4.63761 17.0401 4.64597 17.042L5.03355 17.1171L5.33986 17.1796L5.52114 17.2358L5.62741 17.2921L5.73993 17.3796L5.87121 17.4921L5.99623 17.5984C6.04432 17.6415 6.09641 17.679 6.15251 17.7109L6.27128 17.7797C6.31154 17.8016 6.35321 17.8203 6.39631 17.8359L6.49633 17.8734C6.54914 17.8931 6.60332 17.9077 6.65886 17.9172L6.75262 17.9297C6.84606 17.9465 6.93983 17.9486 7.03393 17.936L7.09644 17.9235C7.24814 17.9018 7.38566 17.8456 7.50902 17.7547L7.54653 17.7234C7.66359 17.639 7.75527 17.5328 7.82158 17.4046L7.84033 17.3671C7.87465 17.2974 7.89966 17.2244 7.91535 17.1483L7.92785 17.092C7.93939 17.0364 7.94564 16.9801 7.9466 16.9233L7.95285 16.8545C7.9526 16.821 7.95052 16.7877 7.9466 16.7545L7.94035 16.667C7.93862 16.6523 7.93654 16.6377 7.9341 16.6232L7.9216 16.4982C7.91721 16.4645 7.91096 16.4312 7.90284 16.3982L7.79657 15.9731L7.73406 15.6605L7.6778 15.2229L7.63404 14.6353C7.63214 14.6249 7.63006 14.6145 7.62779 14.6041L7.55278 13.9289C7.55076 13.9227 7.54868 13.9164 7.54653 13.9102L7.44651 13.2038L7.35274 12.4974L7.31523 11.766L7.36524 10.9721L7.47776 10.172L7.62779 9.45309L7.84658 8.80297L8.10913 8.1966L8.40294 7.66525L8.70925 7.22767L8.97805 6.93386L9.20309 6.76508L9.40938 6.67131L9.61567 6.6213L9.88447 6.5838L10.1595 6.5713H10.3971L10.5659 6.59005L10.6846 6.6213L10.7971 6.67131L10.9034 6.73383L11.0159 6.81509L11.2222 6.95887L11.2597 6.98387L11.2847 7.00888C11.2989 7.02182 11.3135 7.03432 11.3285 7.04639L11.366 7.07764C11.4166 7.11856 11.4708 7.15398 11.5285 7.18391L11.5535 7.19641C11.8114 7.32465 12.074 7.33507 12.3412 7.22767L12.3662 7.21517C12.4978 7.16333 12.6124 7.08623 12.71 6.98387L12.7475 6.94637C12.7605 6.93216 12.773 6.91757 12.785 6.90261L12.8413 6.83385C12.8738 6.79449 12.9029 6.75282 12.9288 6.70882L12.9851 6.61505C12.9893 6.60678 12.9935 6.59844 12.9976 6.59005L13.0538 6.49003C13.0674 6.46557 13.0799 6.44057 13.0913 6.41502L13.1476 6.30249C13.1497 6.29834 13.1518 6.29417 13.1538 6.28999L13.2164 6.13371C13.2184 6.13164 13.2205 6.12955 13.2226 6.12746L13.3039 5.93367L13.4351 5.67738L13.6039 5.38357L13.779 5.10227L13.9978 4.82096L14.3041 4.50215L14.7291 4.11458L15.2667 3.67074L15.9169 3.17065L16.642 2.6643L17.3421 2.23922L17.9172 1.98292L18.3611 1.89541H18.7674L19.1862 1.97042L19.5988 2.10169L19.9426 2.26423L20.1927 2.43301L20.3677 2.60179L20.4677 2.75182L20.5365 2.91435L20.5678 3.15189L20.5615 3.53322L20.474 4.07707L20.324 4.71469L20.1364 5.37732L19.9114 6.03369L19.6488 6.67757L19.355 7.27768L19.0675 7.80278L18.7799 8.25912L18.5111 8.65919L18.2611 9.03426C18.2568 9.04254 18.2526 9.05087 18.2486 9.05927L18.0423 9.38433C18.0423 9.38641 18.0423 9.3885 18.0423 9.39058L17.8672 9.66563C17.8651 9.66979 17.863 9.67395 17.861 9.67814L17.7297 9.89068C17.7276 9.89275 17.7255 9.89484 17.7235 9.89693L17.6359 10.0407C17.6271 10.0571 17.6188 10.0738 17.6109 10.0907L17.5359 10.2345C17.522 10.263 17.5095 10.2922 17.4984 10.322L17.4859 10.347C17.6047 10.4365 17.7372 10.4952 17.8833 10.5229C18.0295 10.5506 18.1742 10.5446 18.3176 10.5048C18.4609 10.4649 18.588 10.3955 18.6989 10.2963C18.8098 10.1972 18.8931 10.0787 18.9487 9.94069C18.9664 10.2316 19.0914 10.465 19.3238 10.6408V10.6158C19.2562 10.7606 19.2271 10.9127 19.2363 11.0722L19.255 11.0284C19.2237 11.074 19.1966 11.1219 19.1737 11.1722L19.1987 11.1409L19.2363 11.0909L19.355 10.9846L19.5738 10.8346L19.8426 10.6971L20.1052 10.5908L20.3427 10.5471L20.5928 10.5533L20.9366 10.6221L21.3554 10.7596L21.7805 10.9409L22.1806 11.1597L22.5244 11.3972L22.7869 11.6223L22.962 11.841L23.087 12.0723L23.1682 12.3474L23.2183 12.6787L23.2308 13.0725L23.1995 13.4726L23.1182 13.8664L22.9682 14.2478L22.7057 14.6916L22.3306 15.1917L21.8868 15.6855L21.4179 16.1356L20.9116 16.5544L20.374 16.967C20.374 16.9691 20.374 16.9712 20.374 16.9733L19.8551 17.3734C19.853 17.3734 19.851 17.3734 19.8489 17.3734L19.38 17.7422C19.3758 17.7463 19.3717 17.7505 19.3675 17.7547L18.9674 18.0797C18.959 18.0859 18.9507 18.0921 18.9424 18.0985L18.6049 18.3923C18.5943 18.4004 18.5839 18.4087 18.5736 18.4173L18.2673 18.7111C18.2652 18.7132 18.2631 18.7153 18.2611 18.7174L17.961 19.0049C17.9458 19.0211 17.9313 19.0377 17.9172 19.0549L17.6484 19.3487L17.4172 19.5988C17.4151 19.6008 17.413 19.6029 17.4109 19.605L17.2484 19.7863L17.1734 19.8676L17.1296 19.9051C17.1669 19.8805 17.2023 19.8534 17.2359 19.8238L17.1984 19.8488C17.2589 19.975 17.3429 20.0828 17.4505 20.1722C17.558 20.2617 17.6793 20.3248 17.8143 20.3614C17.9494 20.398 18.0859 20.4048 18.2239 20.3819C18.3619 20.359 18.4889 20.3084 18.6049 20.2301L18.5986 20.2176C18.3803 20.5235 18.3512 20.8465 18.5111 21.1866L18.5424 21.1428C18.4959 21.1866 18.4543 21.2345 18.4173 21.2866L18.4924 21.2178L18.6424 21.1053L18.8799 20.949L19.1675 20.799L19.4675 20.6552L19.7551 20.5615L19.9364 20.5177L19.9551 20.524L19.9301 20.5052L19.9489 20.5302L20.0302 20.6865L20.1052 20.924L20.1427 21.2178L20.1302 21.5929L20.0739 22.0742L19.9801 22.6494L19.8426 23.262L19.6613 23.8496L19.4488 24.3934L19.2112 24.8498L18.9299 25.2811L18.6111 25.6999L18.2673 26.0875L17.886 26.4626C17.8839 26.4647 17.8818 26.4667 17.8797 26.4688L17.5047 26.8439C17.4961 26.8541 17.4878 26.8646 17.4797 26.8752L17.1546 27.2252L16.8358 27.5378L16.5107 27.8253L16.1982 28.0879L15.9481 28.2879C15.9481 28.29 15.9481 28.2921 15.9481 28.2942L15.7856 28.4255C15.7448 28.4597 15.7073 28.4972 15.6731 28.538L15.5856 28.6442C15.5206 28.7232 15.4706 28.8108 15.4355 28.9068L15.4043 28.9881C15.3676 29.0869 15.3488 29.189 15.348 29.2944V29.3506C15.3456 29.5916 15.4269 29.8 15.5918 29.9757L15.6293 30.0133C15.768 30.1595 15.9368 30.2492 16.1357 30.2821L16.2107 30.2946C16.3194 30.3122 16.4278 30.3101 16.5357 30.2883L16.6545 30.2696C16.7102 30.258 16.7644 30.2413 16.817 30.2195L16.9983 30.1508C17.0437 30.1334 17.0875 30.1126 17.1296 30.0883L17.3359 29.9632C17.3616 29.9498 17.3866 29.9352 17.4109 29.9195L17.736 29.6819L17.7672 29.6694L17.8422 29.6507L18.0235 29.6257L18.1861 29.6132L18.2798 29.6319L18.3736 29.6694L18.5236 29.782L18.6799 29.9195L18.7549 30.007L18.7862 30.082L18.8112 30.2508L18.7987 30.5134L18.7299 30.8134L18.5924 31.1322L18.3673 31.4948L18.0673 31.9011L17.7235 32.3012L17.3234 32.7013L16.8983 33.0888L16.4795 33.4327L16.0356 33.7515C16.0315 33.7535 16.0273 33.7556 16.0231 33.7577L15.5668 34.0953C15.5541 34.1054 15.5416 34.1158 15.5293 34.1265L15.0917 34.4766C15.0833 34.4827 15.075 34.489 15.0667 34.4954L14.6604 34.8392L14.3041 35.1392L14.004 35.383L13.7415 35.5706C13.7179 35.5863 13.695 35.603 13.6727 35.6206L13.4602 35.8019C13.258 35.977 13.1395 36.1971 13.1045 36.4622C13.0695 36.7273 13.1269 36.9707 13.2767 37.1922C13.4265 37.4137 13.631 37.5576 13.8901 37.6239C14.1492 37.6902 14.3976 37.6621 14.6354 37.5397L14.8792 37.4084C14.9225 37.3862 14.9642 37.3612 15.0042 37.3334L15.2917 37.1271C15.3088 37.1151 15.3255 37.1026 15.3418 37.0896L15.6731 36.8208C15.6773 36.8167 15.6814 36.8125 15.6856 36.8083L16.0544 36.502C16.0607 36.4979 16.0669 36.4937 16.0731 36.4895L16.4607 36.1519L16.8608 35.8331L17.3046 35.5081L17.7797 35.1642C17.7968 35.1522 17.8134 35.1397 17.8297 35.1267L18.2923 34.7454C18.3072 34.7333 18.3218 34.7208 18.3361 34.7079L18.8049 34.2828C18.8221 34.2667 18.8388 34.25 18.8549 34.2328L19.2863 33.7765C19.3013 33.7623 19.3159 33.7477 19.33 33.7327L19.7238 33.2764C19.7437 33.2522 19.7624 33.2272 19.7801 33.2014L20.1239 32.7138C20.1441 32.6855 20.1628 32.6563 20.1802 32.6263L20.4552 32.1449C20.4877 32.0891 20.5148 32.0307 20.5365 31.9699L20.7053 31.4823C20.7209 31.4373 20.7334 31.3915 20.7428 31.3448L20.8428 30.8634C20.8552 30.7994 20.8614 30.7348 20.8616 30.6696L20.8678 30.207C20.8703 30.1292 20.8641 30.0521 20.8491 29.9757L20.7615 29.5757C20.736 29.4619 20.6923 29.3556 20.6303 29.2569L20.449 28.9631C20.4146 28.907 20.375 28.8549 20.3302 28.8068L20.1114 28.5692C20.0876 28.545 20.0626 28.5221 20.0364 28.5005L19.7864 28.2817C19.7624 28.2596 19.7374 28.2388 19.7113 28.2192L19.4363 28.0254C19.3814 27.986 19.323 27.9527 19.2613 27.9254L18.9487 27.7878C18.861 27.7472 18.7693 27.7201 18.6736 27.7066L18.3548 27.6691C18.2923 27.663 18.2298 27.663 18.1673 27.6691L17.861 27.6878C17.8124 27.6925 17.7645 27.7009 17.7172 27.7128L17.4422 27.7691C17.4104 27.7779 17.3791 27.7883 17.3484 27.8003L17.1171 27.8753C17.0582 27.8969 17.0019 27.924 16.9483 27.9566L16.767 28.0566C16.7277 28.0789 16.6902 28.1039 16.6545 28.1316L16.3107 28.4067L16.1857 28.4942L16.1294 28.5192L16.0731 28.538C16.1714 28.539 16.2672 28.5244 16.3607 28.4942H16.2857C16.4597 28.6575 16.666 28.7388 16.9046 28.738L16.867 28.7005C16.8681 28.9573 16.9618 29.1741 17.1484 29.3506V29.2944C17.1057 29.4028 17.0848 29.5154 17.0858 29.6319L17.1171 29.5569C17.0425 29.636 16.9842 29.7256 16.9421 29.8257L17.0046 29.757L17.1233 29.6507L17.3546 29.4506C17.3567 29.4486 17.3588 29.4465 17.3609 29.4444L17.6672 29.1693L18.0173 28.8693L18.3861 28.5567L18.7674 28.2567C18.778 28.2486 18.7884 28.2402 18.7987 28.2317L19.1987 27.8816C19.2137 27.8695 19.2283 27.857 19.2425 27.8441L19.6426 27.4503C19.6576 27.4361 19.6722 27.4216 19.6863 27.4065L20.0802 26.9689C20.1 26.9469 20.1187 26.9239 20.1364 26.9002L20.499 26.4188C20.5121 26.4005 20.5246 26.3818 20.5365 26.3626L20.8616 25.8625C20.8797 25.8342 20.8964 25.805 20.9116 25.7749L21.1929 25.2248C21.207 25.1942 21.2195 25.163 21.2304 25.1311L21.4679 24.506C21.477 24.4854 21.4853 24.4646 21.4929 24.4434L21.6867 23.7808C21.6937 23.7602 21.6999 23.7394 21.7055 23.7183L21.8555 23.0494C21.8581 23.0307 21.8602 23.012 21.8618 22.9932L21.968 22.3681C21.9705 22.3514 21.9726 22.3348 21.9743 22.318L22.0368 21.7679C22.0402 21.7389 22.0423 21.7097 22.043 21.6804L22.0555 21.1866C22.0562 21.1448 22.0541 21.1031 22.0493 21.0616L21.993 20.6115C21.9864 20.5498 21.9739 20.4894 21.9555 20.4302L21.8305 20.0301C21.813 19.9717 21.79 19.9154 21.7617 19.8613L21.5804 19.5238C21.5353 19.4404 21.4791 19.3654 21.4117 19.2987L21.1679 19.0549C21.094 18.983 21.0107 18.9247 20.9178 18.8799L20.624 18.7361C20.5158 18.6808 20.4012 18.6474 20.2802 18.6361L19.9426 18.6111C19.8479 18.6033 19.7542 18.6095 19.6613 18.6298L19.2925 18.7111C19.2565 18.7195 19.2211 18.7299 19.1862 18.7424L18.8049 18.8736C18.7816 18.8831 18.7587 18.8936 18.7362 18.9049L18.3548 19.0737C18.3336 19.0833 18.3128 19.0937 18.2923 19.1049L17.9423 19.2925C17.9231 19.3023 17.9044 19.3127 17.886 19.3237L17.5922 19.505C17.5686 19.5186 17.5457 19.5332 17.5234 19.5488L17.3109 19.7113C17.2937 19.7253 17.277 19.7399 17.2609 19.7551L17.1359 19.8551C17.0792 19.9054 17.0292 19.9617 16.9858 20.0239L16.9546 20.0676C16.72 20.3897 16.695 20.7272 16.8796 21.0803L16.8858 21.0928C17.0194 21.3415 17.2229 21.5006 17.4965 21.5703C17.77 21.6399 18.0249 21.5974 18.2611 21.4429L18.2986 21.4179C18.3428 21.39 18.3845 21.3588 18.4236 21.3241L18.4924 21.2616C18.5096 21.2455 18.5263 21.2289 18.5424 21.2116L18.6549 21.0928C18.657 21.0907 18.6591 21.0887 18.6611 21.0866L18.8362 20.8928C18.8404 20.8886 18.8445 20.8845 18.8487 20.8803L19.0675 20.6365L19.3175 20.3614L19.5926 20.0864L19.8739 19.8113L20.1802 19.5488L20.5615 19.2362L21.0241 18.8736L21.5367 18.4798C21.5367 18.4777 21.5367 18.4756 21.5367 18.4736L22.0868 18.0485C22.0974 18.0404 22.1078 18.032 22.118 18.0235L22.6619 17.5671C22.6748 17.555 22.6873 17.5425 22.6994 17.5296L23.2183 17.0358C23.2424 17.014 23.2653 16.9911 23.287 16.967L23.7684 16.4044C23.7813 16.3902 23.7938 16.3756 23.8059 16.3607L24.2435 15.7918C24.2685 15.7599 24.2914 15.7266 24.3122 15.6918L24.631 15.1292C24.658 15.0832 24.6809 15.0353 24.6998 14.9854L24.8998 14.4478C24.9158 14.4029 24.9283 14.3571 24.9373 14.3103L25.0436 13.7852C25.0501 13.7479 25.0542 13.7104 25.0561 13.6726L25.0936 13.1663C25.0952 13.135 25.0952 13.1038 25.0936 13.0725L25.0811 12.5787C25.0792 12.5409 25.0751 12.5034 25.0686 12.4662L24.9998 12.0036C24.9929 11.9569 24.9825 11.9111 24.9686 11.8661L24.8373 11.441C24.8216 11.3848 24.8007 11.3307 24.7748 11.2784L24.5623 10.8909C24.5341 10.8354 24.5008 10.7833 24.4622 10.7346L24.1747 10.3845C24.1407 10.3416 24.1032 10.302 24.0622 10.2657L23.6996 9.95319C23.6755 9.93317 23.6505 9.91442 23.6246 9.89693L23.2058 9.60312C23.1835 9.58753 23.1606 9.57295 23.137 9.55936L22.6619 9.28431C22.6296 9.26565 22.5962 9.24898 22.5619 9.2343L22.0555 9.01551C22.0269 9.00365 21.9977 8.99323 21.968 8.98425L21.4554 8.82172C21.4287 8.81216 21.4016 8.80382 21.3742 8.79672L20.8991 8.6967C20.8434 8.68533 20.7871 8.67908 20.7303 8.67795L20.2927 8.65919C20.2232 8.65785 20.1545 8.6641 20.0864 8.67795L19.6676 8.75921C19.6142 8.7693 19.5621 8.78389 19.5113 8.80297L19.1112 8.953C19.0748 8.96746 19.0393 8.98413 19.005 9.00301L18.6424 9.1968C18.6123 9.2119 18.5832 9.22857 18.5549 9.2468L18.2423 9.45934C18.2185 9.47702 18.1956 9.49577 18.1735 9.51561L17.9485 9.69689C17.9078 9.73125 17.8703 9.76875 17.836 9.80941L17.7235 9.94069C17.7105 9.95489 17.698 9.96948 17.686 9.98444L17.6359 10.0532C17.5818 10.1222 17.538 10.1972 17.5047 10.2783L17.4922 10.322C17.4535 10.4163 17.4306 10.5142 17.4234 10.6158V10.6408C17.6558 10.465 17.7808 10.2316 17.7985 9.94069C17.6774 10.1369 17.633 10.3491 17.6654 10.5773C17.6978 10.8056 17.7994 10.9971 17.9703 11.1519C18.1411 11.3066 18.3417 11.3889 18.5721 11.3986C18.8024 11.4083 19.0092 11.3433 19.1925 11.2034L19.205 11.1784C19.216 11.16 19.2265 11.1413 19.2363 11.1222L19.2925 11.0096L19.3613 10.8971L19.4925 10.6846C19.4946 10.6846 19.4967 10.6846 19.4988 10.6846L19.6613 10.422L19.8676 10.1157C19.8697 10.1136 19.8718 10.1116 19.8739 10.1095L20.1239 9.7344L20.399 9.32182C20.4054 9.31152 20.4117 9.3011 20.4177 9.29056L20.7178 8.79672C20.7286 8.78242 20.739 8.76784 20.749 8.75296L21.0553 8.1841C21.0642 8.16768 21.0725 8.151 21.0804 8.13409L21.3929 7.48397C21.3995 7.46954 21.4058 7.45495 21.4117 7.44021L21.6992 6.74633C21.7082 6.72784 21.7165 6.70909 21.7242 6.69007L21.968 5.97743C21.9728 5.9588 21.9769 5.94005 21.9805 5.92117L22.1806 5.20854C22.1829 5.19608 22.185 5.18357 22.1868 5.17103L22.3493 4.47715C22.3564 4.45446 22.3627 4.43154 22.3681 4.40838L22.4681 3.77076C22.4732 3.72715 22.4753 3.68339 22.4744 3.63949L22.4869 3.11439C22.4885 3.05356 22.4843 2.99313 22.4744 2.9331L22.3994 2.50177C22.3883 2.4309 22.3696 2.36214 22.3431 2.29548L22.1868 1.93291C22.1621 1.86911 22.1308 1.80868 22.093 1.75163L21.8743 1.43907C21.8358 1.38444 21.792 1.33443 21.743 1.28904L21.4429 1.00774C21.4041 0.970873 21.3624 0.937533 21.3179 0.907718L20.9366 0.651419C20.8966 0.625339 20.855 0.602418 20.8116 0.582656L20.3365 0.363864C20.3019 0.347118 20.2665 0.332532 20.2302 0.320106L19.7051 0.151324C19.6641 0.138053 19.6225 0.127635 19.5801 0.120068L19.0237 0.0200486C18.972 0.0115399 18.9199 0.00737248 18.8674 0.00754622L18.2798 0.00129503C18.2125 0.000456812 18.1458 0.006708 18.0798 0.0200486L17.4359 0.145072C17.3691 0.158948 17.3045 0.179786 17.2421 0.207584L16.5232 0.526395C16.4866 0.542902 16.4512 0.561656 16.417 0.582656L15.6356 1.04524C15.6164 1.05708 15.5976 1.06958 15.5793 1.08275L14.8104 1.62035C14.7999 1.62641 14.7895 1.63266 14.7792 1.63911L14.0978 2.15796C14.0872 2.16607 14.0768 2.17441 14.0665 2.18296L13.4977 2.6518C13.485 2.65984 13.4725 2.66817 13.4602 2.6768L12.9913 3.10189C12.9763 3.116 12.9617 3.13059 12.9476 3.14564L12.5787 3.52697C12.5543 3.55279 12.5314 3.57987 12.51 3.60823L12.2349 3.96455C12.2149 3.98864 12.1962 4.01364 12.1787 4.03956L11.9661 4.37713C11.9596 4.38949 11.9533 4.402 11.9474 4.41464L11.7536 4.74595C11.747 4.76038 11.7407 4.77497 11.7348 4.78971L11.5785 5.09601C11.5742 5.10636 11.57 5.11678 11.566 5.12727L11.466 5.33981L11.3973 5.48359C11.3859 5.5061 11.3755 5.52902 11.366 5.55235L11.3472 5.60861L11.3285 5.63362L11.3097 5.66487L11.2972 5.68363C11.3287 5.65231 11.3579 5.61897 11.3848 5.58361L11.3472 5.62111C11.4059 5.58524 11.4601 5.54357 11.5098 5.49609L11.4848 5.51484C11.8033 5.67212 12.1138 5.65754 12.4162 5.47109L12.3912 5.45858C12.4536 5.51557 12.5224 5.56349 12.5975 5.60236L12.56 5.57111C12.5559 5.5669 12.5517 5.56273 12.5475 5.5586L12.4975 5.51484C12.4773 5.49731 12.4565 5.48064 12.435 5.46484L12.3599 5.41483L12.1349 5.25229C12.1247 5.24374 12.1142 5.23541 12.1036 5.22729L11.9474 5.12102C11.927 5.10773 11.9062 5.09523 11.8849 5.08351L11.6973 4.97724C11.6729 4.96364 11.6479 4.95114 11.6223 4.93974L11.3973 4.83972C11.3507 4.81925 11.3027 4.80258 11.2535 4.78971L10.9972 4.72094C10.946 4.7062 10.8939 4.69578 10.8409 4.68969L10.5471 4.66468C10.5159 4.66106 10.4847 4.65898 10.4533 4.65843H10.1345C10.1178 4.658 10.1012 4.658 10.0845 4.65843L9.74694 4.67719C9.72395 4.67844 9.70103 4.68053 9.67818 4.68344L9.32186 4.72719C9.28609 4.73144 9.25066 4.7377 9.21559 4.74595L8.85928 4.83346C8.7989 4.84861 8.74055 4.86944 8.68424 4.89598L8.30917 5.07101C8.24485 5.0998 8.18443 5.13522 8.12789 5.17728L7.75282 5.45858C7.70538 5.49411 7.66162 5.5337 7.62154 5.57736L7.25897 5.98368C7.23221 6.01135 7.2072 6.04052 7.18396 6.0712L6.80889 6.5963C6.79068 6.62459 6.77401 6.65376 6.75888 6.68382L6.40881 7.30268C6.39291 7.32907 6.37833 7.35616 6.36505 7.38395L6.06499 8.07158C6.05317 8.10025 6.04275 8.12942 6.03374 8.1591L5.78994 8.90299C5.77959 8.93794 5.77126 8.97336 5.76494 9.00926L5.59615 9.80941C5.59044 9.84046 5.58627 9.87172 5.58365 9.90318L5.48988 10.7846C5.48888 10.8096 5.48888 10.8346 5.48988 10.8596L5.47113 11.741C5.47027 11.7639 5.47027 11.7869 5.47113 11.8098L5.51489 12.6349C5.51595 12.66 5.51804 12.685 5.52114 12.71L5.62116 13.4539C5.6211 13.4601 5.6211 13.4664 5.62116 13.4726L5.73368 14.1602L5.80869 14.8041L5.8587 15.3917C5.86072 15.398 5.8628 15.4043 5.86496 15.4105L5.92122 15.9043C5.92416 15.9316 5.92833 15.9587 5.93372 15.9856L6.00873 16.3544C6.01036 16.3711 6.01244 16.3878 6.01498 16.4044L6.12125 16.8045L6.12751 16.842V16.867L6.13376 16.9233C6.14943 16.849 6.15568 16.774 6.15251 16.6982L6.14001 16.7545C6.17071 16.6905 6.19363 16.6238 6.20877 16.5544L6.19002 16.592C6.32072 16.5016 6.42074 16.3849 6.49007 16.2419L6.44632 16.2731C6.55209 16.2469 6.65002 16.2032 6.74012 16.1419L6.67761 16.1544C6.78289 16.1664 6.88708 16.1601 6.99017 16.1356L6.8964 16.1231C6.97303 16.1526 7.05222 16.1714 7.13395 16.1794L7.10894 16.1731H7.11519L7.05268 16.1231L6.91516 15.9981C6.89112 15.978 6.86612 15.9593 6.84014 15.9418L6.64635 15.8043C6.61438 15.7813 6.58104 15.7604 6.54634 15.7418L6.29629 15.6105C6.2406 15.5793 6.18226 15.5543 6.12125 15.5355L5.80244 15.448C5.78796 15.4434 5.77338 15.4393 5.75869 15.4355L5.40237 15.3605C5.39406 15.3583 5.38573 15.3562 5.37736 15.3542L5.00229 15.2855L4.63972 15.1979C4.60674 15.1898 4.5734 15.1835 4.5397 15.1792L4.15838 15.1354C4.08962 15.1274 4.02085 15.1274 3.95209 15.1354L3.58952 15.1792C3.48905 15.1899 3.39319 15.217 3.30197 15.2604L2.9644 15.423C2.88125 15.4634 2.80624 15.5154 2.73936 15.5793L2.44555 15.8606C2.40685 15.895 2.37142 15.9325 2.33928 15.9731L2.08924 16.3106C2.06618 16.3426 2.04534 16.3759 2.02672 16.4107L1.83294 16.7607C1.8085 16.8028 1.78767 16.8465 1.77043 16.892L1.6329 17.2733C1.61702 17.3161 1.60452 17.3599 1.59539 17.4046L1.50788 17.8484C1.50045 17.8919 1.49628 17.9356 1.49537 17.9797L1.47662 18.4736C1.47497 18.5048 1.47497 18.5361 1.47662 18.5673L1.50788 19.1049C1.51015 19.1385 1.51432 19.1718 1.52038 19.205L1.6204 19.7676C1.62679 19.8014 1.63513 19.8347 1.6454 19.8676L1.81418 20.4364C1.82157 20.4597 1.82991 20.4826 1.83919 20.5052L2.05798 21.0678L2.30178 21.6804C2.30379 21.6867 2.30587 21.6929 2.30803 21.6992L2.57683 22.3493C2.5789 22.3514 2.58099 22.3535 2.58308 22.3556L2.85188 22.9994C2.85967 23.0164 2.86801 23.033 2.87689 23.0494L3.18945 23.6558C3.19723 23.6727 3.20556 23.6894 3.21445 23.7058L3.56452 24.2997C3.56854 24.3081 3.57271 24.3164 3.57702 24.3247L3.95834 24.9248C3.96247 24.929 3.96663 24.9332 3.97084 24.9373L4.37092 25.5312C4.37889 25.5439 4.38722 25.5564 4.39593 25.5687L4.78975 26.0813C4.79788 26.0898 4.80622 26.0981 4.81476 26.1063L5.17107 26.5251C5.1792 26.5336 5.18754 26.542 5.19608 26.5501L5.50864 26.8814L5.77119 27.1565L5.93997 27.344L6.02124 27.4565L6.06499 27.519L6.07124 27.5378L6.0775 27.5565C6.07949 27.5628 6.08157 27.5691 6.08375 27.5753L6.10875 27.6441C6.11275 27.6525 6.11692 27.6608 6.12125 27.6691L6.15251 27.7441C6.15979 27.7653 6.16812 27.7862 6.17752 27.8066L6.21502 27.8753L6.25253 27.9504C6.24254 27.8892 6.22379 27.8309 6.19627 27.7753L6.20252 27.8191V27.8566C6.21742 27.7992 6.22367 27.7408 6.22127 27.6816L6.20252 27.7566C6.50081 27.7381 6.68626 27.5839 6.75888 27.294L6.72762 27.3002C6.52205 27.3134 6.35825 27.403 6.23622 27.569C6.1142 27.735 6.07754 27.918 6.12624 28.1182C6.17494 28.3183 6.29161 28.4641 6.47625 28.5554C6.66089 28.6468 6.84753 28.6511 7.03619 28.5684C7.22484 28.4856 7.34811 28.3454 7.406 28.1477C7.46389 27.95 7.43572 27.7655 7.32148 27.594ZM13.5164 36.7083C13.5164 36.8446 13.5646 36.961 13.6611 37.0575C13.7575 37.1539 13.8739 37.2021 14.0103 37.2021C14.1466 37.2021 14.263 37.1539 14.3595 37.0575C14.4559 36.961 14.5041 36.8446 14.5041 36.7083C14.5041 36.5719 14.4559 36.4555 14.3595 36.3591C14.263 36.2627 14.1466 36.2144 14.0103 36.2144C13.8739 36.2144 13.7575 36.2627 13.6611 36.3591C13.5646 36.4555 13.5164 36.5719 13.5164 36.7083ZM13.7915 36.9396L13.804 36.9521C13.9276 37.0407 14.0431 37.0312 14.1506 36.9237C14.2581 36.8161 14.2676 36.7006 14.179 36.577L14.1665 36.5645C14.0429 36.4759 13.9274 36.4854 13.8199 36.5929C13.7124 36.7004 13.7029 36.816 13.7915 36.9396Z" fill="black"/>
</g>
<defs>
<clipPath id="clip0_1_7345">
<rect width="26" height="44" fill="white"/>
</clipPath>
</defs>
</svg>
