<svg width="25" height="42" viewBox="0 0 25 42" fill="none" xmlns="http://www.w3.org/2000/svg">
<g clip-path="url(#clip0_1_7348)">
<path d="M14.4627 7.06515L14.5752 6.56506C14.5957 6.45899 14.5716 6.36429 14.5028 6.28097C14.434 6.19764 14.3456 6.15598 14.2376 6.15598C14.1296 6.15598 14.0412 6.19764 13.9724 6.28097C13.9037 6.36429 13.8795 6.45899 13.9001 6.56506L14.0126 7.06515C14.0407 7.18374 14.1157 7.24304 14.2376 7.24304C14.3595 7.24304 14.4345 7.18374 14.4627 7.06515ZM13.775 6.31501L13.525 6.7651C13.5037 6.80493 13.487 6.8466 13.475 6.89012L13.1249 8.05284C13.1196 8.07556 13.1155 8.09848 13.1124 8.1216L12.7248 10.0907C12.7225 10.1011 12.7205 10.1115 12.7186 10.122L12.3123 12.835C12.31 12.8433 12.308 12.8516 12.306 12.86L11.9059 16.1294C11.9059 16.1356 11.9059 16.1419 11.9059 16.1481L11.5559 19.7926C11.5538 19.7947 11.5517 19.7967 11.5496 19.7988L11.237 23.5808C11.237 23.585 11.237 23.5891 11.237 23.5933L10.9682 27.2565C10.9682 27.2607 10.9682 27.2648 10.9682 27.269L10.7682 30.6384C10.7682 30.6405 10.7682 30.6426 10.7682 30.6446L10.6182 33.6327C10.6161 33.6348 10.614 33.6369 10.6119 33.639L10.5119 36.1707C10.5116 36.1832 10.5116 36.1957 10.5119 36.2082V38.2086C10.5116 38.2211 10.5116 38.2336 10.5119 38.2461L10.5744 39.6839C10.5763 39.6943 10.5784 39.7047 10.5807 39.7151L10.6557 40.5965C10.6572 40.6133 10.6593 40.6299 10.6619 40.6465L10.7119 41.0091C10.7309 41.1322 10.7767 41.2444 10.8493 41.3456C10.9219 41.4468 11.0135 41.5262 11.124 41.5836C11.2345 41.641 11.3521 41.6703 11.4766 41.6716C11.6012 41.6728 11.7193 41.6457 11.8309 41.5905L11.8622 41.578C12.1612 41.4316 12.307 41.1919 12.2997 40.8591V40.6278C12.3 40.6153 12.3 40.6028 12.2997 40.5903L12.2747 40.284C12.2733 40.2651 12.2713 40.2464 12.2685 40.2277L12.231 39.9464L12.2185 39.7089L12.206 39.5151L12.1997 39.3901C12.1838 39.4579 12.1776 39.5267 12.181 39.5963L12.1935 39.5526C11.9861 39.4845 11.7872 39.5039 11.5969 39.6109C11.4067 39.7179 11.2867 39.8776 11.237 40.0902L11.2683 40.1027C11.4524 40.1569 11.6307 40.1421 11.8033 40.0583C11.9759 39.9745 12.0979 39.8435 12.1692 39.6654C12.2404 39.4872 12.2424 39.3083 12.1752 39.1286C12.108 38.9488 11.9891 38.8151 11.8184 38.7274L11.7872 38.7087C11.5862 38.6125 11.383 38.6077 11.1777 38.6941C10.9723 38.7805 10.8338 38.9291 10.762 39.14L10.7495 39.1838C10.7187 39.2751 10.7062 39.3689 10.7119 39.4651L10.7182 39.5901C10.7192 39.6131 10.7213 39.636 10.7244 39.6589L10.7432 39.8151L10.7495 40.0089L10.737 40.2902C10.7342 40.3089 10.7321 40.3277 10.7307 40.3465L10.737 40.6403V40.8591C10.9459 40.7057 11.0521 40.4994 11.0558 40.2402L11.0245 40.259C11.0419 40.3963 11.0923 40.5203 11.1756 40.6308C11.259 40.7414 11.3642 40.824 11.4914 40.8786C11.6186 40.9332 11.751 40.9526 11.8886 40.9369C12.0261 40.9211 12.1507 40.8723 12.2622 40.7903L12.2185 40.4653L12.1997 39.6401L12.2247 38.2273L12.2872 36.2395L12.3935 33.7202L12.5435 30.7322L12.7311 27.3753L12.9749 23.7183L13.2749 19.9426L13.5937 16.3107L13.9438 13.0538L14.2814 10.3408L14.5502 8.3529C14.5503 8.34665 14.5503 8.3404 14.5502 8.33414L14.6752 7.12767C14.6765 7.10474 14.6765 7.08182 14.6752 7.0589L14.6689 6.54005C14.6694 6.29276 14.5497 6.13893 14.3098 6.07855C14.07 6.01818 13.8918 6.097 13.775 6.31501ZM10.8682 39.4338C10.8682 39.6202 10.9341 39.7794 11.066 39.9112C11.1978 40.043 11.3569 40.1089 11.5434 40.1089C11.7298 40.1089 11.8889 40.043 12.0207 39.9112C12.1526 39.7794 12.2185 39.6202 12.2185 39.4338C12.2185 39.2474 12.1526 39.0883 12.0207 38.9564C11.8889 38.8246 11.7298 38.7587 11.5434 38.7587C11.3569 38.7587 11.1978 38.8246 11.066 38.9564C10.9341 39.0883 10.8682 39.2474 10.8682 39.4338ZM11.1245 39.4401C11.1245 39.5713 11.1709 39.6832 11.2637 39.776C11.3564 39.8688 11.4684 39.9152 11.5996 39.9152C11.7308 39.9152 11.8428 39.8688 11.9356 39.776C12.0283 39.6832 12.0747 39.5713 12.0747 39.4401C12.0747 39.3089 12.0283 39.1969 11.9356 39.1041C11.8428 39.0114 11.7308 38.965 11.5996 38.965C11.4684 38.965 11.3564 39.0114 11.2637 39.1041C11.1709 39.1969 11.1245 39.3089 11.1245 39.4401ZM11.8747 39.5213L11.9309 39.4401C12.0268 39.3025 12.0059 39.1859 11.8684 39.09C11.7309 38.9941 11.6142 39.015 11.5184 39.1525L11.4621 39.2338C11.3662 39.3713 11.3871 39.488 11.5246 39.5838C11.6621 39.6797 11.7788 39.6589 11.8747 39.5213Z" fill="black"/>
<path d="M14.2752 9.65941C14.2752 9.81777 14.3544 9.89696 14.5127 9.89696C14.6711 9.89696 14.7503 9.81777 14.7503 9.65941C14.7503 9.50105 14.6711 9.42187 14.5127 9.42187C14.3544 9.42187 14.2752 9.50105 14.2752 9.65941ZM14.6315 9.44062L14.619 9.43437C14.642 9.49311 14.6816 9.53687 14.7378 9.56564L14.7315 9.55939L14.719 9.45937L14.7065 9.24058V8.94052L14.7315 8.5717L14.819 8.24039C14.8191 8.23831 14.8191 8.23622 14.819 8.23414L14.8565 8.06536C14.8844 7.93477 14.8524 7.82095 14.7607 7.72391C14.669 7.62687 14.5572 7.58857 14.4252 7.60902L14.3314 7.62152C14.1769 7.64645 14.0665 7.7298 14.0001 7.87157L13.8313 8.23414C13.8192 8.25628 13.8088 8.2792 13.8001 8.3029L13.5625 9.12181C13.5515 9.15447 13.5432 9.18781 13.5375 9.22183L13.35 10.6596C13.3475 10.6741 13.3454 10.6887 13.3438 10.7034L13.2 12.7725C13.1998 12.7808 13.1998 12.7892 13.2 12.7975L13.0937 15.4543C13.0937 15.4584 13.0937 15.4626 13.0937 15.4668L13.0124 18.5736C13.0124 18.5778 13.0124 18.5819 13.0124 18.5861L12.9499 21.9367L12.9124 25.2249C12.9124 25.229 12.9124 25.2332 12.9124 25.2374V28.2442C12.9124 28.2484 12.9124 28.2525 12.9124 28.2567L12.9499 30.8697C12.9519 30.876 12.954 30.8822 12.9562 30.8885L13.0312 33.0826C13.0312 33.0868 13.0312 33.091 13.0312 33.0951L13.125 34.858C13.1249 34.8621 13.1249 34.8663 13.125 34.8705L13.2187 36.1895C13.2187 36.1936 13.2187 36.1978 13.2187 36.202L13.2875 37.1146L13.3312 37.7085L13.3625 38.0961L13.3813 38.3524L13.3938 38.5212L13.4 38.6524C13.3999 38.6587 13.3999 38.6649 13.4 38.6712L13.4063 38.7587C13.4303 38.6663 13.4386 38.5726 13.4313 38.4774L13.4125 38.5524C13.4077 38.571 13.4035 38.5898 13.4 38.6087L13.375 38.7462C13.3726 38.7587 13.3706 38.7712 13.3688 38.7837L13.3375 39.0025C13.3353 39.0108 13.3332 39.0191 13.3312 39.0275L13.3 39.2901C13.2997 39.3026 13.2997 39.3151 13.3 39.3276L13.2812 39.5714L13.2625 39.7839C13.26 39.7984 13.2579 39.813 13.2562 39.8277L13.25 39.9964V40.0715L13.2437 40.109C13.3294 39.9953 13.3835 39.8682 13.4063 39.7276L13.3688 39.7776C13.5099 39.7171 13.6266 39.6254 13.7188 39.5026L13.7001 39.5088L13.6626 39.5213C13.7135 39.5154 13.7635 39.5049 13.8126 39.4901L13.7438 39.4963L13.6813 39.5026L13.5688 39.4963L13.3625 39.4838C13.3333 39.4824 13.3042 39.4824 13.275 39.4838L13.0437 39.4901C13.0395 39.4901 13.0354 39.4901 13.0312 39.4901L12.8061 39.5026C12.8041 39.5026 12.802 39.5026 12.7999 39.5026L12.5999 39.5088C12.5873 39.5107 12.5748 39.5127 12.5624 39.5151L12.4123 39.5276C12.5509 39.584 12.6947 39.6049 12.8437 39.5901L12.7686 39.5589C12.7202 39.7733 12.7469 39.9781 12.8485 40.1731C12.9501 40.3681 13.1027 40.5071 13.3062 40.5903L13.325 40.5153C13.2175 40.6339 13.1466 40.7714 13.1125 40.9279L13.15 40.8841L13.2062 40.8341C13.2874 40.7647 13.354 40.6834 13.4063 40.5903L13.5 40.4278C13.5415 40.357 13.5728 40.282 13.5938 40.2027L13.6813 39.8464C13.6902 39.8072 13.6964 39.7676 13.7001 39.7276L13.7813 39.0087C13.7844 38.9838 13.7865 38.9588 13.7876 38.9337L13.8251 37.796C13.8252 37.7898 13.8252 37.7835 13.8251 37.7773L13.8501 36.1832C13.8502 36.177 13.8502 36.1707 13.8501 36.1645L13.8376 34.0703L13.8563 31.6386C13.8564 31.6344 13.8564 31.6303 13.8563 31.6261L13.8376 29.2194C13.8377 29.2131 13.8377 29.2069 13.8376 29.2006L13.7751 27.1315C13.7751 27.1273 13.7751 27.1232 13.7751 27.119L13.7063 25.5374L13.6626 24.4497L13.6563 23.8496L13.6876 23.6371C13.6376 23.4421 13.5318 23.2846 13.37 23.1648C13.2082 23.045 13.0268 22.9896 12.8257 22.9987C12.6246 23.0078 12.4488 23.0792 12.2985 23.2131C12.1482 23.347 12.0569 23.5134 12.0247 23.7121L12.056 23.8309V24.4747L12.0247 25.75L11.9935 27.3878C11.9932 27.4003 11.9932 27.4128 11.9935 27.4253L12.031 29.2506C12.0329 29.2611 12.035 29.2715 12.0373 29.2819L12.1498 31.2073C12.1513 31.224 12.1534 31.2407 12.156 31.2573L12.4123 33.1326C12.4123 33.1368 12.4123 33.141 12.4123 33.1451L12.6686 34.7267L12.6999 35.9332C12.7042 36.1039 12.7917 36.1872 12.9624 36.183C13.1332 36.1789 13.2165 36.0914 13.2125 35.9207L13.1812 34.7142L13.3625 33.1264C13.3625 33.1243 13.3625 33.1222 13.3625 33.1201L13.5688 31.2385C13.5712 31.2261 13.5733 31.2136 13.575 31.201L13.6688 29.2694C13.6688 29.2652 13.6688 29.2611 13.6688 29.2569L13.7188 27.4315L13.7626 25.7937C13.7626 25.7896 13.7626 25.7854 13.7626 25.7812L13.7813 24.4935C13.7816 24.481 13.7816 24.4685 13.7813 24.456L13.7563 23.6996C13.7544 23.6295 13.744 23.5608 13.7251 23.4933L13.6626 23.2808C13.6054 23.0892 13.4945 22.9368 13.3298 22.8235C13.1652 22.7102 12.9832 22.6611 12.7839 22.6762C12.5846 22.6912 12.4121 22.7671 12.2663 22.9038C12.1205 23.0405 12.0338 23.2079 12.006 23.4058L11.9747 23.6808C11.9707 23.714 11.9686 23.7474 11.9685 23.7809L11.9622 24.4622C11.964 24.4748 11.9661 24.4873 11.9685 24.4997L12.006 25.6062C12.006 25.6083 12.006 25.6104 12.006 25.6124L12.0748 27.1877L12.1373 29.2381L12.156 31.6261L12.1123 34.0453L12.0122 36.127C12.0122 36.129 12.0122 36.1311 12.0122 36.1332L11.9497 37.7273C11.9497 37.7293 11.9497 37.7314 11.9497 37.7335L11.9122 38.865L11.881 39.5276L11.856 39.6714L11.8435 39.6901C11.9128 39.6283 11.9711 39.5575 12.0185 39.4776L11.9247 39.5651C11.9074 39.5811 11.8907 39.5978 11.8747 39.6151L11.7872 39.7026C11.6855 39.8102 11.6147 39.9352 11.5747 40.0777L11.5559 40.1527C11.4936 40.3709 11.5113 40.5824 11.6089 40.7872C11.7066 40.992 11.8598 41.1389 12.0685 41.2279L12.1435 41.2592C12.2776 41.3157 12.4172 41.3386 12.5624 41.3279L12.7124 41.3154L12.9124 41.3029L13.1125 41.2904H13.3187L13.525 41.2842C13.5585 41.284 13.5918 41.2819 13.6251 41.2779L13.7938 41.2592C13.8232 41.2565 13.8524 41.2523 13.8814 41.2467L14.0126 41.2154L14.1189 41.1904C14.1658 41.1817 14.2116 41.1692 14.2564 41.1529L14.3189 41.1217C14.3358 41.1159 14.3525 41.1097 14.3689 41.1029L14.419 41.0779C14.5492 41.0174 14.6575 40.9299 14.744 40.8153L14.7815 40.7653C14.8714 40.6485 14.9277 40.5172 14.9503 40.3715L14.9566 40.2902C14.9624 40.2592 14.9666 40.228 14.9691 40.1965L14.9753 40.0652L14.9816 39.9089L14.9941 39.7089C14.9941 39.7068 14.9941 39.7047 14.9941 39.7026L15.0128 39.4713L15.0378 39.24L15.0691 39.04L15.0816 38.94L15.0941 38.8962C15.1154 38.8121 15.1237 38.7266 15.1191 38.6399L15.1128 38.5587L15.1066 38.4336C15.1067 38.4274 15.1067 38.4211 15.1066 38.4149L15.0941 38.2336L15.0753 37.9773C15.0755 37.969 15.0755 37.9606 15.0753 37.9523L15.0441 37.5772L15.0003 36.9896C15.0003 36.9875 15.0003 36.9854 15.0003 36.9834L14.9316 36.0707L14.8503 34.7642L14.7565 33.0139L14.6753 30.8322L14.6252 28.2317L14.6127 25.2374L14.6377 21.9555L14.6753 18.6111L14.719 15.498L14.7628 12.8413L14.8065 10.7659C14.8065 10.7638 14.8065 10.7617 14.8065 10.7596L14.8128 9.30934C14.8129 9.30101 14.8129 9.29267 14.8128 9.28434L14.794 8.47169L14.8378 8.14037L14.8565 8.07161C14.7683 7.92308 14.6388 7.86252 14.4682 7.88994C14.2976 7.91736 14.1937 8.01542 14.1564 8.18413L14.2127 8.2779L14.2502 8.54045L14.2252 8.91552C14.2228 8.92169 14.2207 8.92794 14.2189 8.93427V9.24683C14.2188 9.251 14.2188 9.25517 14.2189 9.25934L14.2314 9.49063C14.2314 9.49271 14.2314 9.4948 14.2314 9.49688L14.2377 9.63441C14.2401 9.65151 14.2443 9.66818 14.2502 9.68442L14.2627 9.72192C14.283 9.79767 14.3289 9.85185 14.4002 9.88445H14.4127C14.5498 9.92879 14.6502 9.88634 14.7139 9.7571C14.7776 9.62786 14.7502 9.52236 14.6315 9.44062Z" fill="black"/>
<path d="M11.6308 35.5455H11.6121C11.6015 35.5492 11.591 35.5534 11.5808 35.558L11.5433 35.5705L11.5058 35.5768C11.5704 35.5899 11.635 35.5899 11.6996 35.5768L11.6246 35.5643C11.5772 35.554 11.5292 35.5499 11.4808 35.5518L11.3433 35.558C11.337 35.5579 11.3308 35.5579 11.3245 35.558L11.1807 35.5643L11.0432 35.558L10.8557 35.5268L10.6056 35.458L10.2556 35.333L9.84297 35.1704L9.40539 34.9642L8.93655 34.7079L8.44271 34.4078C8.44063 34.4057 8.43855 34.4036 8.43646 34.4016L7.90511 34.0827C7.89482 34.0763 7.8844 34.07 7.87385 34.064L7.33625 33.7702C7.33417 33.7681 7.33209 33.766 7.33 33.7639L6.77989 33.4764L6.2798 33.1888L5.81096 32.8575L5.38588 32.4949L4.9983 32.0761L4.63573 31.5885L4.29192 31.0634L4.00436 30.5071L3.74181 29.8569L3.50427 29.1255L3.26047 28.3504L3.04168 27.5377L2.82914 26.6813L2.64785 25.8312L2.50408 25.0123L2.41031 24.1371L2.33529 23.1807L2.28529 22.1742L2.26028 21.149L2.28529 20.1051L2.3853 19.0361L2.53533 17.9984L2.77288 16.9482L3.09169 15.8418L3.49177 14.7103L3.91059 13.6038L4.35443 12.5911L4.81702 11.6722L5.27335 10.8346L5.72969 10.0719L6.19853 9.35928L6.68612 8.69041L7.18622 8.08404L7.68006 7.54019L8.16766 7.0651L8.649 6.60876C8.65321 6.60464 8.65738 6.60047 8.6615 6.59626L9.13659 6.12117L9.58668 5.67108L9.993 5.271L10.3868 4.92094L10.7994 4.59588L11.2182 4.27081L11.5808 3.98951L11.8871 3.77072L12.481 3.35814C12.4916 3.35008 12.502 3.34175 12.5122 3.33314L12.8686 3.05808L13.2436 2.78928L13.5624 2.58924L13.7812 2.48922L13.8812 2.46422L13.9375 2.47047L14.0625 2.50173L14.2438 2.57049L14.4626 2.67676L14.7127 2.83304L14.9502 2.99557L15.1752 3.16435L15.394 3.33314L15.5941 3.49567L15.8066 3.6832L16.0379 3.9395L16.313 4.28332L16.6005 4.6959L16.9006 5.14598L17.1819 5.61482L17.4632 6.08991L17.7257 6.5775L17.9945 7.11511L18.2696 7.66521L18.5571 8.23407L18.8572 8.80918L19.1447 9.40929L19.4198 10.0344L19.6948 10.6908L20.0012 11.4534L20.3137 12.2848L20.6388 13.1538L20.9638 14.0414L21.2889 14.9854L21.614 15.9668L21.8953 16.9232L22.1328 17.8234L22.3203 18.611L22.4454 19.2737L22.5266 19.9801L22.5954 20.7552L22.6517 21.5679C22.6517 21.5699 22.6517 21.572 22.6517 21.5741L22.7142 22.3805C22.7142 22.3826 22.7142 22.3847 22.7142 22.3868L22.7829 23.1494L22.8142 23.8808L22.8017 24.6684L22.7517 25.5499L22.6704 26.5313L22.5704 27.5252L22.4329 28.4192L22.2328 29.1943L21.9703 29.9382L21.6202 30.6321L21.2389 31.2322L20.8701 31.651L20.5763 31.8886L20.2762 32.0011L19.7886 32.0886L19.1135 32.1824C19.0989 32.1842 19.0843 32.1863 19.0697 32.1886L18.3258 32.3137C18.3006 32.319 18.2756 32.3253 18.2508 32.3324L17.5007 32.5137C17.4944 32.5157 17.4882 32.5178 17.4819 32.5199L16.8005 32.7012L16.1754 32.8638L15.5941 33.0075C15.5794 33.0114 15.5648 33.0156 15.5503 33.02L15.0065 33.1763C15.0044 33.1763 15.0023 33.1763 15.0002 33.1763L14.5439 33.3076L14.2126 33.3764L13.9125 33.4014L13.5624 33.3889L13.1686 33.3639L12.7873 33.3263C12.7457 33.322 12.704 33.3199 12.6623 33.3201L12.3309 33.3263C12.065 33.3314 11.8312 33.4207 11.6297 33.5943C11.4281 33.7679 11.3052 33.9858 11.2609 34.2481C11.2165 34.5104 11.261 34.7567 11.3942 34.9869C11.5275 35.2171 11.7189 35.3783 11.9684 35.4705L12.2809 35.583C12.3739 35.6182 12.4697 35.6411 12.5685 35.6518L12.9623 35.6893C12.981 35.6918 12.9998 35.6939 13.0186 35.6955L13.4499 35.7143C13.4707 35.7149 13.4916 35.7149 13.5124 35.7143H13.9438C13.9793 35.7139 14.0147 35.7118 14.05 35.7081L14.4814 35.6705C14.5277 35.665 14.5735 35.6566 14.6189 35.6455L15.0627 35.5518C15.0964 35.5449 15.1298 35.5366 15.1627 35.5268L15.6566 35.3705C15.6649 35.3685 15.6733 35.3664 15.6816 35.3642L16.2067 35.183L16.763 35.0142L17.3757 34.8454C17.3798 34.8454 17.384 34.8454 17.3882 34.8454L18.0508 34.6579L18.7572 34.4766L19.4448 34.339L20.1199 34.239C20.1409 34.2355 20.1617 34.2313 20.1824 34.2265L20.7951 34.0952C20.8638 34.0809 20.9305 34.0601 20.9951 34.0327L21.539 33.8014C21.6171 33.7664 21.6901 33.7227 21.7577 33.6702L22.2641 33.2826C22.3285 33.2349 22.3868 33.1808 22.4391 33.1201L22.9142 32.5512C22.9466 32.5096 22.9758 32.4659 23.0017 32.4199L23.4393 31.701C23.4601 31.6667 23.4788 31.6313 23.4956 31.5948L23.8706 30.7884C23.8872 30.7537 23.9018 30.7183 23.9144 30.6821L24.202 29.8257C24.212 29.7928 24.2203 29.7594 24.227 29.7257L24.427 28.8442C24.4324 28.8153 24.4366 28.7861 24.4395 28.7567L24.5708 27.7878C24.5732 27.7733 24.5753 27.7587 24.577 27.744L24.6708 26.7188C24.673 26.7085 24.6751 26.698 24.677 26.6876L24.7396 25.6811C24.7401 25.6624 24.7401 25.6436 24.7396 25.6249L24.7458 24.706C24.7449 24.6788 24.7428 24.6517 24.7396 24.6247L24.677 23.7933C24.675 23.787 24.6729 23.7808 24.6708 23.7745L24.5958 23.0056L24.527 22.2305L24.452 21.4241L24.3832 20.6114C24.3832 20.6073 24.3832 20.6031 24.3832 20.5989L24.302 19.805C24.3001 19.7946 24.298 19.7841 24.2957 19.7738L24.1957 19.0236C24.1923 19.0026 24.1881 18.9818 24.1832 18.9611L24.0332 18.2422C24.0313 18.2318 24.0292 18.2213 24.0269 18.211L23.8269 17.3983C23.8248 17.3941 23.8228 17.39 23.8206 17.3858L23.5768 16.4669C23.5729 16.4564 23.5687 16.446 23.5643 16.4356L23.2643 15.4542C23.2602 15.4479 23.256 15.4416 23.2518 15.4354L22.9142 14.4353C22.9102 14.4268 22.906 14.4185 22.9017 14.4102L22.5454 13.4601L22.2141 12.5724C22.212 12.5682 22.2099 12.564 22.2078 12.5599L21.8703 11.691C21.8703 11.6889 21.8703 11.6868 21.8703 11.6847L21.539 10.8471C21.5349 10.8408 21.5307 10.8345 21.5264 10.8283L21.2014 10.0657C21.1993 10.0615 21.1973 10.0573 21.1951 10.0532L20.9013 9.39054C20.8993 9.38426 20.8972 9.37801 20.8951 9.37179L20.595 8.73416C20.5911 8.72366 20.5869 8.71324 20.5825 8.70291L20.2637 8.09654C20.2617 8.09236 20.2596 8.08819 20.2575 8.08404L19.9449 7.50268L19.6448 6.94632L19.3635 6.42122L19.0947 5.87737C19.0887 5.8668 19.0825 5.85638 19.076 5.84611L18.7884 5.33977C18.7844 5.33136 18.7802 5.32302 18.7759 5.31476L18.4759 4.82717L18.1758 4.34583C18.1718 4.33742 18.1676 4.32908 18.1633 4.32082L17.8382 3.84573C17.8341 3.84152 17.83 3.83735 17.8257 3.83323L17.5069 3.39565C17.499 3.38289 17.4906 3.37039 17.4819 3.35814L17.1694 2.98307C17.1613 2.97243 17.153 2.96201 17.1444 2.95181L16.8631 2.65801C16.8455 2.6361 16.8267 2.61526 16.8068 2.5955L16.5442 2.3767C16.5341 2.36808 16.5236 2.35975 16.513 2.3517L16.2942 2.17667L16.0692 2.00788C16.0671 2.00579 16.065 2.0037 16.0629 2.00163L15.8254 1.82035C15.8152 1.81173 15.8048 1.80339 15.7941 1.79534L15.5191 1.60781C15.5088 1.6013 15.4984 1.59504 15.4878 1.58905L15.2002 1.41402C15.184 1.40293 15.1673 1.39251 15.1502 1.38276L14.8689 1.23899C14.8445 1.22718 14.8195 1.21676 14.7939 1.20773L14.5376 1.11396C14.5151 1.10449 14.4922 1.09615 14.4689 1.08896L14.2376 1.0327C14.1905 1.01956 14.1425 1.01122 14.0938 1.00769L13.8562 0.99519C13.7848 0.989025 13.7139 0.993193 13.6437 1.00769L13.3749 1.0702C13.3295 1.08269 13.2858 1.09936 13.2436 1.12021L12.9123 1.27024C12.8822 1.28289 12.853 1.29748 12.8248 1.314L12.4435 1.55155C12.4329 1.55754 12.4225 1.56379 12.4122 1.5703L12.0059 1.85785L11.6308 2.11415L11.0307 2.50798C11.0265 2.51002 11.0223 2.51211 11.0182 2.51423L10.6931 2.73927C10.6847 2.74329 10.6764 2.74746 10.6681 2.75177L10.2868 3.03933C10.2847 3.03932 10.2826 3.03932 10.2806 3.03933L9.85548 3.35814C9.85339 3.35813 9.85131 3.35813 9.84923 3.35814L9.41164 3.68945C9.39882 3.69948 9.38631 3.7099 9.37413 3.72071L8.93655 4.09578C8.92592 4.10385 8.9155 4.11219 8.9053 4.12079L8.47396 4.53336L8.01763 4.9647L7.53003 5.41478L7.04244 5.86487C7.04032 5.86902 7.03824 5.87319 7.03619 5.87737L6.51734 6.36496C6.50672 6.37305 6.4963 6.38138 6.48608 6.38997L5.94848 6.95257C5.9377 6.96477 5.92728 6.97728 5.91723 6.99008L5.37337 7.62145C5.36259 7.63365 5.35217 7.64616 5.34212 7.65896L4.81702 8.35909C4.81061 8.36731 4.80436 8.37565 4.79826 8.3841L4.28567 9.11549C4.28136 9.12375 4.2772 9.13209 4.27316 9.14049L3.76682 9.92189C3.75816 9.93418 3.74983 9.94668 3.74181 9.9594L3.25422 10.8221C3.24992 10.8303 3.24575 10.8387 3.24172 10.8471L2.74787 11.791C2.73913 11.8053 2.73079 11.8199 2.72287 11.8348L2.24778 12.885C2.24124 12.8973 2.23499 12.9098 2.22902 12.9225L1.77894 14.0539C1.77464 14.0622 1.77048 14.0705 1.76644 14.0789L1.34136 15.2417C1.33672 15.2582 1.33256 15.2749 1.32885 15.2917L0.972535 16.4419C0.96569 16.4604 0.959439 16.4792 0.953782 16.4981L0.691232 17.6046C0.686215 17.6274 0.682048 17.6503 0.67873 17.6734L0.503696 18.7736C0.501054 18.7923 0.49897 18.811 0.497445 18.8298L0.384924 19.9551C0.384238 19.9759 0.384238 19.9967 0.384924 20.0176L0.347416 21.1178C0.347085 21.1324 0.347085 21.1469 0.347416 21.1615L0.359919 22.218C0.35975 22.2284 0.35975 22.2388 0.359919 22.2492L0.409928 23.2869C0.40976 23.2974 0.40976 23.3078 0.409928 23.3182L0.484943 24.2996C0.486914 24.308 0.488998 24.3163 0.491194 24.3246L0.584962 25.2498C0.588444 25.2708 0.592611 25.2916 0.597464 25.3123L0.747493 26.1812C0.749143 26.198 0.751227 26.2146 0.753744 26.2312L0.947531 27.1127C0.949504 27.121 0.951586 27.1294 0.953782 27.1377L1.17882 28.0128C1.17882 28.017 1.17882 28.0212 1.17882 28.0253L1.40387 28.8692C1.40785 28.8797 1.41202 28.8902 1.41637 28.9005L1.66642 29.7069C1.66844 29.7132 1.67052 29.7194 1.67267 29.7257L1.93522 30.4946C1.94089 30.5135 1.94714 30.5323 1.95397 30.5508L2.24778 31.2697C2.25901 31.2974 2.27151 31.3245 2.28529 31.351L2.6166 31.9886C2.63376 32.0188 2.65252 32.048 2.67286 32.0761L3.06668 32.6637C3.07864 32.6808 3.09114 32.6975 3.10419 32.7137L3.52927 33.2638C3.54506 33.2854 3.56173 33.3062 3.57928 33.3263L4.03562 33.8202C4.06307 33.8491 4.09225 33.8762 4.12314 33.9015L4.63573 34.3265C4.66371 34.3491 4.69288 34.3699 4.72325 34.389L5.27335 34.7454C5.3035 34.766 5.33476 34.7847 5.36712 34.8016L5.93598 35.0829C5.93805 35.085 5.94014 35.0871 5.94223 35.0892L6.51109 35.3642L7.05494 35.633L7.60505 35.9081L8.1364 36.1769C8.14259 36.1811 8.14885 36.1853 8.15515 36.1894L8.674 36.4394C8.69244 36.4485 8.7112 36.4568 8.73026 36.4644L9.23036 36.6582C9.23866 36.6605 9.24699 36.6625 9.25536 36.6645L9.70545 36.827C9.7096 36.8291 9.71376 36.8312 9.71795 36.8333L10.1055 36.9645C10.1423 36.9777 10.1798 36.9881 10.218 36.9958L10.5494 37.0521C10.6238 37.0672 10.6988 37.0714 10.7744 37.0646L11.0432 37.0333C11.1241 37.0232 11.2012 37.0002 11.2745 36.9645L11.4745 36.8708C11.4959 36.8614 11.5167 36.851 11.537 36.8395L11.6933 36.7457C11.7602 36.7082 11.8186 36.6603 11.8684 36.602L11.9559 36.4894C12.0388 36.3852 12.0805 36.2664 12.0809 36.1331L12.0872 36.0581C12.0873 36.0309 12.0853 36.0038 12.0809 35.9769L12.0746 35.9331L12.0684 35.9018C12.0697 35.8522 12.0614 35.8043 12.0434 35.7581L12.0309 35.7456C11.9529 35.5681 11.8195 35.5015 11.6308 35.5455ZM11.4183 34.2765C11.4183 34.4733 11.4878 34.6413 11.627 34.7804C11.7662 34.9196 11.9341 34.9892 12.1309 34.9892C12.3277 34.9892 12.4957 34.9196 12.6348 34.7804C12.774 34.6413 12.8435 34.4733 12.8435 34.2765C12.8435 34.0797 12.774 33.9118 12.6348 33.7726C12.4957 33.6335 12.3277 33.5639 12.1309 33.5639C11.9341 33.5639 11.7662 33.6335 11.627 33.7726C11.4878 33.9118 11.4183 34.0797 11.4183 34.2765ZM12.3247 34.0015L12.2872 33.7764C12.2538 33.5722 12.1351 33.4868 11.9309 33.5201C11.7267 33.5535 11.6412 33.6722 11.6746 33.8765L11.7121 34.1015C11.7454 34.3057 11.8642 34.3911 12.0684 34.3578C12.2726 34.3245 12.358 34.2057 12.3247 34.0015Z" fill="black"/>
<path d="M10.3932 27.7504L10.3807 27.7378L10.3182 27.6503C10.299 27.6182 10.2761 27.589 10.2494 27.5628L10.0056 27.3503C9.9936 27.3393 9.9811 27.3288 9.9681 27.319L9.61178 27.0627L9.25546 26.7127L8.91165 26.2938L8.6491 25.8375L8.44281 25.2811L7.97397 23.6933C7.97198 23.687 7.9699 23.6808 7.96772 23.6746L7.66766 22.7744C7.66568 22.7681 7.66359 22.7619 7.66141 22.7557L7.34885 21.8867C7.34681 21.8825 7.34473 21.8784 7.3426 21.8742L7.03629 21.0678C7.03232 21.0594 7.02815 21.0511 7.02379 21.0428L6.70498 20.3239C6.69584 20.3025 6.68542 20.2816 6.67372 20.2614L6.3049 19.6551C6.29713 19.6422 6.28879 19.6297 6.2799 19.6176L5.89857 19.0987L5.62977 18.6674L5.51725 18.3048C5.47141 18.1548 5.37347 18.1027 5.22344 18.1485C5.07342 18.1944 5.02132 18.2923 5.06716 18.4423L5.19219 18.8174L5.2672 19.3425C5.26713 19.3467 5.26713 19.3508 5.2672 19.355L5.39223 19.9989C5.39621 20.0265 5.40246 20.0536 5.41098 20.0801L5.64853 20.749C5.65056 20.7532 5.65264 20.7574 5.65478 20.7615L5.93608 21.4804L6.20488 22.2868L6.49244 23.162C6.49242 23.1641 6.49242 23.1661 6.49244 23.1682L6.79874 24.0622C6.7987 24.0663 6.7987 24.0705 6.79874 24.0747L7.36135 25.6562C7.36134 25.6583 7.36134 25.6604 7.36135 25.6625L7.59265 26.2813C7.60474 26.3117 7.61933 26.3409 7.6364 26.3688L7.94896 26.9064C7.96871 26.94 7.99163 26.9713 8.01773 27.0002L8.42405 27.4628C8.44525 27.4855 8.46817 27.5064 8.49282 27.5253L8.93665 27.8816C8.95258 27.8951 8.96925 27.9076 8.98666 27.9191L9.39924 28.1754C9.44036 28.2003 9.48412 28.2191 9.53051 28.2317L9.83682 28.3192C9.89842 28.3371 9.96093 28.3413 10.0244 28.3317L10.1556 28.3067C10.1619 28.3069 10.1681 28.3069 10.1744 28.3067L10.2056 28.3005C10.2641 28.2883 10.3156 28.2624 10.3604 28.2229C10.4051 28.1834 10.4371 28.1354 10.4563 28.0789C10.4756 28.0224 10.4796 27.9649 10.4683 27.9063C10.4571 27.8476 10.432 27.7957 10.3932 27.7504Z" fill="black"/>
<path d="M13.7187 26.3251C13.7187 26.5418 13.8271 26.6501 14.0438 26.6501C14.2605 26.6501 14.3689 26.5418 14.3689 26.3251C14.3689 26.1083 14.2605 26 14.0438 26C13.8271 26 13.7187 26.1083 13.7187 26.3251ZM14.2751 26.6126L14.2938 26.6001C14.3314 26.5702 14.3626 26.5348 14.3876 26.4938L14.4314 26.4126L14.5689 26.2125L14.8377 25.8812L15.2128 25.4874L15.6941 25.1311L16.2255 24.831L16.7756 24.606C16.7841 24.6021 16.7924 24.598 16.8006 24.5935L17.3569 24.3247C17.3867 24.3099 17.4138 24.2911 17.4382 24.2684L17.9258 23.8371C17.9476 23.8167 17.9663 23.7937 17.9821 23.7683L18.4009 23.1432C18.4128 23.1275 18.4232 23.1108 18.4321 23.0932L18.7634 22.3493C18.7681 22.3391 18.7723 22.3287 18.776 22.318L19.0197 21.5617C19.0246 21.5494 19.0288 21.5369 19.0323 21.5241L19.1885 20.7552C19.1888 20.7469 19.1888 20.7386 19.1885 20.7302L19.2948 19.9238C19.2949 19.9197 19.2949 19.9155 19.2948 19.9113L19.3698 19.1424L19.4386 18.5173L19.5323 18.0672L19.6199 17.7859L19.7386 17.6359C19.8301 17.5109 19.8134 17.4026 19.6885 17.311C19.5636 17.2195 19.4553 17.2361 19.3636 17.3609L19.226 17.5421C19.226 17.5442 19.226 17.5463 19.226 17.5484L19.026 17.8297C19.0108 17.8489 18.9983 17.8697 18.9885 17.8922L18.8197 18.3548C18.8104 18.379 18.8042 18.404 18.801 18.4298L18.7197 19.0674C18.7196 19.0716 18.7196 19.0758 18.7197 19.0799L18.6447 19.8426L18.5259 20.6302L18.3759 21.3679L18.1446 22.093L17.832 22.7931L17.4444 23.3495L17.0194 23.7183L16.5193 23.9496L15.9504 24.1184C15.9312 24.1232 15.9124 24.1294 15.8942 24.1371L15.3003 24.4184C15.2762 24.4287 15.2532 24.4412 15.2315 24.456L14.6939 24.831C14.6758 24.8463 14.6592 24.8629 14.6439 24.881L14.2188 25.2999C14.2077 25.3118 14.1973 25.3243 14.1876 25.3374L13.9 25.6999C13.8912 25.71 13.8829 25.7204 13.875 25.7312L13.7312 25.9625C13.7096 25.9956 13.6929 26.031 13.6812 26.0688L13.65 26.175C13.601 26.3453 13.6448 26.487 13.7813 26.6001L13.8 26.6126C13.9584 26.7387 14.1167 26.7387 14.2751 26.6126Z" fill="black"/>
<path d="M12.556 16.717C12.556 16.9129 12.654 17.0108 12.8498 17.0108C13.0457 17.0108 13.1437 16.9129 13.1437 16.717C13.1437 16.5211 13.0457 16.4232 12.8498 16.4232C12.654 16.4232 12.556 16.5211 12.556 16.717ZM12.5123 16.7045C12.5123 16.7977 12.5452 16.8773 12.6112 16.9432C12.6771 17.0091 12.7566 17.0421 12.8498 17.0421C12.9431 17.0421 13.0226 17.0091 13.0885 16.9432C13.1545 16.8773 13.1874 16.7977 13.1874 16.7045C13.1874 16.6113 13.1545 16.5317 13.0885 16.4658C13.0226 16.3999 12.9431 16.3669 12.8498 16.3669C12.7566 16.3669 12.6771 16.3999 12.6112 16.4658C12.5452 16.5317 12.5123 16.6113 12.5123 16.7045ZM13.2249 16.5295L13.1812 16.3857C13.1709 16.3596 13.1584 16.3346 13.1437 16.3107L13.0061 16.0544L12.7998 15.6418C12.792 15.6289 12.7837 15.6164 12.7748 15.6043L12.4123 15.0292C12.4044 15.0163 12.3961 15.0038 12.3873 14.9917L11.8747 14.3165C11.8706 14.3102 11.8665 14.304 11.8622 14.2978L11.262 13.5601L10.6994 12.8163L10.2493 12.1161L9.94304 11.541L9.81802 11.1284L9.80552 10.8721L9.84927 10.6971L9.93679 10.5033C9.94143 10.491 9.9456 10.4785 9.94929 10.4658L10.0431 10.2095C10.0598 10.1651 10.0703 10.1193 10.0743 10.072L10.0993 9.69066L10.1368 9.25308L10.2806 8.82175L10.4681 8.47168C10.5068 8.35935 10.4734 8.27589 10.3679 8.22131C10.2623 8.16673 10.1749 8.18767 10.1056 8.28414L9.91804 8.63421L9.65549 9.04054L9.36168 9.39685C9.35266 9.4089 9.34433 9.4214 9.33668 9.43436L9.13039 9.75942C9.11368 9.78319 9.09909 9.80819 9.08663 9.83444L8.98661 10.0782L8.88034 10.3033C8.8673 10.3315 8.85688 10.3607 8.84908 10.3908L8.77407 10.6846C8.76114 10.7317 8.75489 10.7796 8.75532 10.8284L8.76782 11.2347C8.7685 11.2793 8.77475 11.323 8.78657 11.366L8.9366 11.8911C8.94449 11.9212 8.95491 11.9503 8.96786 11.9786L9.28042 12.6287C9.2879 12.6458 9.29624 12.6625 9.30542 12.6787L9.76801 13.4289C9.77597 13.4396 9.7843 13.45 9.79301 13.4601L10.3619 14.2415C10.3679 14.25 10.3741 14.2584 10.3806 14.2665L10.987 15.0104L11.5183 15.6605L11.9184 16.1794L12.1685 16.5545C12.1726 16.5587 12.1767 16.5629 12.181 16.567L12.3497 16.8045C12.3821 16.8513 12.4217 16.8909 12.4685 16.9233L12.5935 17.0046C12.7582 17.1141 12.9195 17.1095 13.0775 16.9906C13.2355 16.8717 13.2846 16.718 13.2249 16.5295Z" fill="black"/>
<path d="M15.2439 14.9229L15.2565 14.9416C15.3185 15.041 15.4081 15.091 15.5253 15.0916H15.669C15.7214 15.0924 15.7714 15.082 15.8191 15.0604L16.0879 14.9291C16.1052 14.9221 16.1219 14.9138 16.1379 14.9041L16.5192 14.6353C16.5324 14.6258 16.5449 14.6154 16.5567 14.604L16.9755 14.2227C16.9943 14.2058 17.011 14.1871 17.0255 14.1665L17.4069 13.6351C17.4164 13.6212 17.4247 13.6066 17.4319 13.5914L17.7632 12.9225C17.7703 12.9104 17.7766 12.8979 17.7819 12.885L18.0195 12.1661C18.0248 12.1518 18.029 12.1372 18.032 12.1223L18.157 11.4534C18.1602 11.439 18.1623 11.4244 18.1633 11.4097L18.1695 10.8471C18.1692 10.8281 18.1671 10.8094 18.1633 10.7908L18.0882 10.3282C18.0867 10.3177 18.0846 10.3073 18.082 10.297L17.9507 9.82814L17.8194 9.29679L17.7132 8.77169C17.7113 8.76536 17.7092 8.75911 17.7069 8.75293L17.5881 8.35286L17.5569 8.05905C17.5443 7.92576 17.4714 7.86537 17.3381 7.87787C17.2048 7.89036 17.1444 7.96326 17.1568 8.09656L17.1881 8.40287L17.1818 8.82795C17.183 8.8406 17.1851 8.8531 17.1881 8.86546L17.2631 9.39681C17.2627 9.40514 17.2627 9.41348 17.2631 9.42181L17.3819 9.96567C17.3818 9.96983 17.3818 9.974 17.3819 9.97817L17.5006 10.4408L17.5694 10.8658L17.5756 11.3784L17.4694 12.0036L17.2443 12.6724L16.9005 13.2788L16.5129 13.7351L16.1191 14.0789L15.769 14.3102L15.5253 14.4228L15.394 14.479C15.3354 14.5067 15.2896 14.5484 15.2565 14.604L15.2439 14.6228C15.1789 14.7228 15.1789 14.8228 15.2439 14.9229Z" fill="black"/>
<path d="M11.1995 30.9759L11.1932 30.9572C11.1768 30.9104 11.1518 30.8687 11.1182 30.8322L11.0682 30.7759C11.0474 30.7545 11.0245 30.7358 10.9994 30.7196L10.8994 30.6446L10.7869 30.5634C10.8152 30.6409 10.8631 30.7034 10.9307 30.7509L10.8869 30.6384C10.8849 30.6342 10.8828 30.63 10.8807 30.6259L10.8307 30.5071C10.804 30.4382 10.7644 30.3778 10.7119 30.3258L10.5431 30.1633C10.4969 30.1192 10.4448 30.0838 10.3868 30.057L10.0368 29.8945C10.0005 29.8784 9.96294 29.8659 9.92423 29.857L9.41789 29.7257C9.39107 29.7198 9.36398 29.7156 9.33662 29.7132L8.75526 29.6444C8.59817 29.6258 8.45439 29.6612 8.32393 29.7507L8.08638 29.907L7.74257 29.8195C7.62189 29.8142 7.54609 29.8699 7.51518 29.9867C7.48427 30.1035 7.52256 30.1894 7.63005 30.2445L7.98637 30.3446L8.13639 30.5946C8.23748 30.7639 8.38542 30.864 8.58023 30.8947L9.16159 30.9884L9.65543 31.0697L9.99925 31.1447L10.2055 31.201C10.2179 31.2056 10.2304 31.2098 10.243 31.2135L10.3368 31.2322L10.3681 31.2447L10.4368 31.2885C10.4468 31.2974 10.4572 31.3057 10.4681 31.3135L10.5744 31.376C10.6268 31.4056 10.6831 31.4222 10.7431 31.426L10.8182 31.4323C10.8669 31.4378 10.9149 31.4337 10.9619 31.4198L10.9807 31.4135C11.0717 31.3838 11.1387 31.3261 11.1815 31.2404C11.2243 31.1548 11.2303 31.0666 11.1995 30.9759Z" fill="black"/>
<path d="M7.60513 23.562C7.60513 23.7704 7.70932 23.8745 7.91769 23.8745C8.12607 23.8745 8.23025 23.7704 8.23025 23.562C8.23025 23.3536 8.12607 23.2494 7.91769 23.2494C7.70932 23.2494 7.60513 23.3536 7.60513 23.562ZM7.9427 23.8933H7.96145C8.02359 23.8883 8.07985 23.8675 8.13023 23.8308L8.18024 23.7933C8.1959 23.782 8.21049 23.7695 8.224 23.7558L8.30527 23.6745C8.34081 23.6383 8.3679 23.5967 8.38653 23.5495L8.44904 23.387C8.45671 23.3687 8.46296 23.3499 8.4678 23.3307L8.53656 23.0431L8.66158 22.6431L8.81786 22.1805L8.9929 21.7054L9.15543 21.274C9.15754 21.272 9.15962 21.2699 9.16168 21.2678L9.28045 20.9365C9.28571 20.9201 9.28988 20.9034 9.29295 20.8865L9.34296 20.6302C9.34652 20.6116 9.3486 20.5928 9.34922 20.5739L9.36172 20.3989L9.43673 20.1863L9.5555 19.8363C9.56005 19.8281 9.56422 19.8198 9.56801 19.8113L9.67428 19.3612C9.6823 19.3326 9.68646 19.3034 9.68678 19.2737L9.67428 18.7298C9.6722 18.6821 9.66178 18.6362 9.64302 18.5923L9.43673 18.0547C9.41122 17.9902 9.37163 17.936 9.31796 17.8922L8.96789 17.5921L8.74285 17.2858C8.65262 17.1851 8.55277 17.1745 8.44329 17.2537C8.33381 17.333 8.31281 17.4312 8.38028 17.5483L8.58657 17.8359L8.66784 18.2735C8.67328 18.3015 8.68161 18.3285 8.69284 18.3547L8.90538 18.8611L9.01165 19.2987L8.96789 19.6675L8.85537 19.9675L8.7491 20.1988L8.65533 20.3989C8.65531 20.401 8.65531 20.403 8.65533 20.4051L8.54281 20.6427C8.54045 20.6509 8.53837 20.6593 8.53656 20.6677L8.41154 20.999L8.25526 21.4303L8.07397 21.9117C8.07187 21.9137 8.06978 21.9158 8.06772 21.9179L7.90519 22.393C7.90295 22.3992 7.90087 22.4055 7.89894 22.4118L7.77392 22.8243C7.77142 22.8347 7.76933 22.8451 7.76766 22.8556L7.6989 23.1557C7.69883 23.1598 7.69883 23.164 7.6989 23.1682L7.66764 23.3432L7.64889 23.4495C7.67712 23.4098 7.69587 23.366 7.70515 23.3182L7.66764 23.3682C7.79132 23.3773 7.88925 23.3315 7.96145 23.2307H7.9427C7.85121 23.2307 7.77312 23.263 7.70842 23.3277C7.64373 23.3924 7.61138 23.4705 7.61138 23.562C7.61138 23.6535 7.64373 23.7316 7.70842 23.7963C7.77312 23.8609 7.85121 23.8933 7.9427 23.8933Z" fill="black"/>
<path d="M17.2819 24.5247C17.3053 24.6767 17.3939 24.7527 17.5476 24.7527C17.7013 24.7527 17.7899 24.6767 17.8133 24.5247C17.7899 24.3728 17.7013 24.2968 17.5476 24.2968C17.3939 24.2968 17.3053 24.3728 17.2819 24.5247ZM17.4132 24.7935L17.4257 24.806L17.4882 24.8498C17.5001 24.859 17.5126 24.8674 17.5257 24.8748L17.6757 24.9623C17.6898 24.9697 17.7044 24.976 17.7195 24.9811L17.9633 25.0686C17.9633 25.0707 17.9633 25.0728 17.9633 25.0748L18.2133 25.1624L18.4446 25.3374L18.6947 25.5937C18.7026 25.6024 18.7109 25.6108 18.7197 25.6187L19.0072 25.8625C19.0424 25.893 19.082 25.916 19.126 25.9312L19.4573 26.0438C19.5275 26.0676 19.5984 26.0697 19.6699 26.05L20.0574 25.9438C20.0931 25.9343 20.1264 25.9197 20.1575 25.9L20.57 25.6312C20.5879 25.6202 20.6045 25.6077 20.6201 25.5937L20.9826 25.2436C20.9917 25.2338 21 25.2233 21.0076 25.2124L21.2702 24.881L21.5015 24.6623C21.5797 24.5626 21.5749 24.4671 21.4872 24.3757C21.3995 24.2843 21.3042 24.2756 21.2014 24.3497L20.9764 24.5622L20.6201 24.781C20.618 24.781 20.6159 24.781 20.6138 24.781L20.2012 25.0498L19.8324 25.2686L19.5949 25.3249L19.4261 25.2624L19.176 25.0623C19.1739 25.0623 19.1719 25.0623 19.1698 25.0623L18.8697 24.8248C18.854 24.8129 18.8373 24.8025 18.8197 24.7935L18.5072 24.6248C18.4931 24.6174 18.4785 24.6111 18.4634 24.606L18.1758 24.506L17.9633 24.4185L17.8508 24.3497L17.7883 24.2997C17.7689 24.2847 17.7481 24.2722 17.7258 24.2622L17.6882 24.2434C17.5049 24.1517 17.3674 24.1976 17.2757 24.381C17.184 24.5643 17.2298 24.7018 17.4132 24.7935Z" fill="black"/>
<path d="M10.6369 31.3885L10.6307 31.376C10.6119 31.2855 10.564 31.2146 10.4869 31.1635L10.4307 31.126C10.4245 31.1216 10.4183 31.1174 10.4119 31.1134L10.3181 31.0634C10.312 31.0591 10.3058 31.0549 10.2994 31.0509L10.1306 30.9697C10.1184 30.9628 10.1059 30.9565 10.0931 30.9509L9.82429 30.8571L9.42421 30.7009L8.94912 30.5071L8.46778 30.2758L8.08021 30.0195L7.81141 29.6444L7.58636 29.2006C7.58066 29.1898 7.57441 29.1794 7.56761 29.1693L7.34257 28.8318L7.2488 28.538C7.1908 28.4127 7.09581 28.3703 6.96383 28.4106C6.83185 28.4509 6.77681 28.5392 6.79871 28.6755L6.89248 28.9818L6.94249 29.4006C6.94644 29.4399 6.95686 29.4774 6.97375 29.5131L7.21129 29.982C7.2188 29.995 7.22714 30.0075 7.2363 30.0195L7.54886 30.4758C7.56015 30.4914 7.57266 30.506 7.58636 30.5196L7.97394 30.9197C8.00188 30.9471 8.03313 30.97 8.0677 30.9884L8.5678 31.2697C8.58595 31.2794 8.6047 31.2878 8.62406 31.2947L9.12416 31.476C9.12622 31.4781 9.1283 31.4802 9.13041 31.4823L9.54924 31.626C9.55132 31.626 9.5534 31.626 9.55549 31.626L9.83054 31.7136C9.84079 31.7182 9.8512 31.7223 9.8618 31.7261L10.0368 31.7698C10.074 31.7775 10.1115 31.7796 10.1494 31.7761H10.2181H10.2369L10.2431 31.7823C10.3608 31.8078 10.4622 31.7779 10.5474 31.6928C10.6325 31.6076 10.6624 31.5062 10.6369 31.3885Z" fill="black"/>
<path d="M7.73639 25.5624L7.71139 25.5561L7.69264 25.5499L7.67388 25.5436L7.61762 25.4874L7.5176 25.3873C7.49685 25.3659 7.47392 25.3472 7.44884 25.3311L7.31131 25.2498C7.30322 25.2432 7.29489 25.237 7.28631 25.2311L7.14878 25.1623L6.9675 25.0248L6.7112 24.7935L6.39864 24.4559L6.04857 24.0933C6.04073 24.0825 6.03239 24.0721 6.02357 24.0621L5.66725 23.7495C5.65728 23.7406 5.64687 23.7323 5.63599 23.7245L5.34844 23.5182L5.18591 23.3119C5.07755 23.1744 4.95461 23.1598 4.81709 23.2682C4.67956 23.3765 4.66498 23.4995 4.77333 23.637L4.94211 23.8495L5.09214 24.1746C5.10092 24.1943 5.11134 24.213 5.1234 24.2309L5.3922 24.6247C5.40207 24.6357 5.41249 24.6461 5.42345 24.656L5.74852 25.0373C5.75252 25.0436 5.75669 25.0499 5.76102 25.056L6.09233 25.3998C6.10222 25.4108 6.11264 25.4212 6.12359 25.4311L6.41739 25.6811C6.43864 25.7001 6.46156 25.7168 6.48616 25.7312L6.74245 25.8687C6.75855 25.8782 6.77522 25.8865 6.79246 25.8937L6.94874 25.9499L7.06752 26.0125L7.18004 26.0687L7.28631 26.1312C7.30231 26.1409 7.31898 26.1492 7.33632 26.1562L7.43009 26.2C7.46251 26.2111 7.49585 26.2174 7.5301 26.2187L7.59887 26.225C7.63251 26.2278 7.66585 26.2257 7.69889 26.2187L7.73639 26.2125C7.91457 26.1774 8.00365 26.069 8.00365 25.8874C8.00365 25.7058 7.91457 25.5975 7.73639 25.5624Z" fill="black"/>
<path d="M16.9631 14.0666H17.0068L17.1131 14.0729L17.3069 14.1291L17.6257 14.2292C17.6298 14.2313 17.634 14.2334 17.6382 14.2354L18.0258 14.3292C18.0523 14.3372 18.0794 14.3413 18.107 14.3417L18.5384 14.3292C18.564 14.3284 18.589 14.3243 18.6134 14.3167L19.0697 14.1854C19.0847 14.1824 19.0992 14.1783 19.1135 14.1729L19.5573 13.9604C19.568 13.9568 19.5784 13.9526 19.5886 13.9479L19.9949 13.6978C20.016 13.6838 20.0348 13.6671 20.0512 13.6478L20.3637 13.3102L20.645 13.0352C20.7228 12.9436 20.7202 12.8543 20.6371 12.7675C20.554 12.6806 20.465 12.674 20.37 12.7476L20.0949 13.0039L19.7136 13.2352L19.3135 13.4603L18.8947 13.6541L18.4946 13.7666L18.1446 13.7541L17.7945 13.6666L17.4757 13.5665C17.4674 13.5641 17.4591 13.562 17.4507 13.5603L17.2194 13.5165C17.1885 13.5091 17.1572 13.5071 17.1256 13.5103L16.9818 13.529C16.9692 13.5302 16.9567 13.5323 16.9443 13.5353L16.9006 13.554C16.7615 13.5976 16.7008 13.6917 16.7185 13.8364C16.7361 13.981 16.8176 14.0577 16.9631 14.0666Z" fill="black"/>
<path d="M16.3566 13.8729C16.3566 14.0479 16.4441 14.1354 16.6192 14.1354C16.7942 14.1354 16.8817 14.0479 16.8817 13.8729C16.8817 13.6978 16.7942 13.6103 16.6192 13.6103C16.4441 13.6103 16.3566 13.6978 16.3566 13.8729ZM16.5379 13.5978L16.4504 13.6166C16.4123 13.6248 16.3769 13.6394 16.3441 13.6603L16.1441 13.7853C16.1333 13.7911 16.1229 13.7973 16.1128 13.8041L15.819 14.0354C15.8147 14.0395 15.8106 14.0436 15.8065 14.0479L15.4377 14.3729C15.4267 14.3828 15.4163 14.3932 15.4064 14.4042L15.0439 14.8168C15.0241 14.8397 15.0074 14.8647 14.9938 14.8918L14.7876 15.3106L14.525 15.6044C14.4292 15.7128 14.4354 15.8149 14.5438 15.9107C14.6521 16.0066 14.7542 16.0003 14.8501 15.892L15.1064 15.5982L15.5002 15.3669C15.5226 15.3545 15.5434 15.3399 15.5627 15.3231L15.9628 14.9606C15.967 14.9565 15.9712 14.9523 15.9753 14.9481L16.3253 14.6105C16.3275 14.6064 16.3296 14.6022 16.3316 14.598L16.5879 14.3354L16.7504 14.1667C16.7667 14.1515 16.7813 14.1348 16.7942 14.1166L16.8442 14.0354C16.9154 13.9268 16.9138 13.8192 16.8393 13.7128C16.7648 13.6064 16.6643 13.5681 16.5379 13.5978Z" fill="black"/>
<path d="M13.3317 33.1513L13.3942 33.1076C13.4147 33.0929 13.4335 33.0763 13.4504 33.0576L13.613 32.87C13.6217 32.8621 13.63 32.8538 13.638 32.845L13.913 32.4637L14.2631 31.9886L14.6444 31.6135L15.057 31.401L15.5696 31.2947L16.1885 31.2072C16.2162 31.2037 16.2433 31.1974 16.2697 31.1885L16.9011 30.9759C16.9419 30.961 16.9794 30.9402 17.0136 30.9134L17.595 30.4696C17.6357 30.4387 17.6691 30.4012 17.695 30.3571L18.0576 29.7132L18.4576 29.1881C18.5217 29.0828 18.5048 28.9926 18.4072 28.9174C18.3095 28.8423 18.2179 28.8491 18.1326 28.938L17.745 29.4506L17.1449 29.8382L16.5823 30.207L16.0384 30.3883L15.4446 30.4633C15.4362 30.4652 15.4278 30.4672 15.4196 30.4696L14.832 30.5884C14.7879 30.5963 14.7463 30.6108 14.7069 30.6321L14.2006 30.9134C14.158 30.936 14.1205 30.9652 14.0881 31.0009L13.6755 31.476C13.6664 31.488 13.6581 31.5005 13.6505 31.5135L13.2942 32.0199C13.2921 32.0219 13.29 32.024 13.2879 32.0261L13.0316 32.4199C13.0295 32.4241 13.0274 32.4282 13.0254 32.4325L12.8941 32.6387C12.8847 32.6527 12.8764 32.6673 12.8691 32.6825L12.8378 32.7575C12.7799 32.9085 12.8142 33.0344 12.9406 33.1352C13.067 33.236 13.1974 33.2414 13.3317 33.1513Z" fill="black"/>
</g>
<defs>
<clipPath id="clip0_1_7348">
<rect width="25" height="42" fill="white"/>
</clipPath>
</defs>
</svg>
