<svg width="29" height="35" viewBox="0 0 29 35" fill="none" xmlns="http://www.w3.org/2000/svg">
<g clip-path="url(#clip0_1_7341)">
<path d="M1.90469 32.914L1.9422 32.9077C2.00102 32.899 2.0552 32.8781 2.10473 32.8452L2.24226 32.7514C2.24856 32.7495 2.25481 32.7474 2.26101 32.7452L2.53606 32.5451C2.54474 32.5372 2.55308 32.5288 2.56107 32.5201L2.97365 32.1701C2.97785 32.1681 2.98202 32.166 2.98615 32.1638L3.53625 31.6762C3.53627 31.6741 3.53627 31.6721 3.53625 31.67L4.22388 31.0511C4.22808 31.0491 4.23225 31.047 4.23639 31.0449L5.01779 30.2885C5.01987 30.2885 5.02195 30.2885 5.02404 30.2885L5.8867 29.4446C5.88884 29.4404 5.89093 29.4363 5.89295 29.4321L6.79937 28.4944C6.80586 28.4862 6.81211 28.4779 6.81813 28.4694L7.7058 27.4442C7.71213 27.4401 7.71838 27.436 7.72455 27.4317L8.59347 26.344C8.59566 26.3378 8.59774 26.3315 8.59972 26.3252L9.44988 25.1937C9.44988 25.1917 9.44988 25.1896 9.44988 25.1875L10.2938 24.0248C10.2981 24.0186 10.3022 24.0123 10.3063 24.006L11.1064 22.812C11.1107 22.8059 11.1149 22.7996 11.1189 22.7933L11.8878 21.5618C11.8878 21.5597 11.8878 21.5576 11.8878 21.5556L12.6692 20.2741C12.6713 20.272 12.6734 20.2699 12.6755 20.2678L13.4881 18.8988L14.3446 17.4798L15.2447 16.0295L16.1449 14.5917L17.0513 13.204L17.9953 11.8537L19.0079 10.541L20.0707 9.24071L21.1646 7.97797L22.2523 6.77149L23.29 5.65878L24.2402 4.64609L25.1029 3.75217L25.8843 2.95826C25.8863 2.95828 25.8884 2.95828 25.8905 2.95826L26.5719 2.25188L27.1407 1.68927L27.5721 1.27044C27.614 1.22962 27.6494 1.18378 27.6784 1.13292L27.8659 0.807855C27.9855 0.601443 27.9659 0.409254 27.807 0.231286C27.6481 0.0533185 27.4594 0.0121304 27.2408 0.107722L26.897 0.25775C26.8295 0.286594 26.7691 0.326185 26.7157 0.376523L26.2781 0.789102C26.2739 0.79321 26.2697 0.797377 26.2656 0.801604L25.6905 1.37046C25.6884 1.37253 25.6863 1.37462 25.6842 1.37671L24.9966 2.0831L24.2089 2.87075C24.2068 2.87282 24.2048 2.8749 24.2027 2.877L23.3338 3.76467C23.3317 3.76674 23.3296 3.76882 23.3275 3.77092L22.3586 4.77736C22.3586 4.77944 22.3586 4.78153 22.3586 4.78361L21.3084 5.90257C21.3063 5.90464 21.3042 5.90673 21.3021 5.90883L20.2019 7.10905C20.1977 7.11317 20.1935 7.11733 20.1894 7.12156L19.083 8.3968C19.0787 8.40091 19.0746 8.40508 19.0705 8.4093L17.989 9.72205C17.9848 9.72616 17.9806 9.73033 17.9765 9.73455L16.9451 11.0661C16.9408 11.0722 16.9366 11.0785 16.9326 11.0848L15.9574 12.4413C15.9531 12.4475 15.9489 12.4538 15.9449 12.4601L15.0259 13.8603C15.0238 13.8624 15.0218 13.8645 15.0197 13.8666L14.1008 15.3044C14.0987 15.3064 14.0966 15.3085 14.0945 15.3106L13.1881 16.7609C13.186 16.763 13.1839 16.765 13.1818 16.7671L12.3129 18.1924C12.3129 18.1945 12.3129 18.1966 12.3129 18.1987L11.5003 19.5739L10.7439 20.8617L9.99373 22.0932L9.23109 23.3059L8.47469 24.5061L7.66829 25.6376L6.83688 26.7253L5.98672 27.7567L5.14281 28.7319L4.33641 29.6133L3.58626 30.376L2.92364 31.0136L2.39229 31.52L2.00471 31.8763L1.74841 32.0951C1.74633 32.0951 1.74425 32.0951 1.74216 32.0951L1.61714 32.2076C1.64403 32.1937 1.66904 32.1771 1.69215 32.1576L1.65465 32.1763C1.45382 32.2799 1.38968 32.4387 1.46223 32.6528C1.53478 32.8668 1.68226 32.9538 1.90469 32.914ZM27.8784 0.457789L27.8846 0.432784C27.8411 0.332574 27.7654 0.290775 27.6574 0.307388C27.5494 0.324001 27.4897 0.386637 27.4783 0.495296L27.4908 0.526552C27.5536 0.622256 27.6384 0.649444 27.7452 0.608115C27.852 0.566786 27.8964 0.489589 27.8784 0.376523L27.8659 0.345267C27.8589 0.322693 27.8485 0.301856 27.8346 0.282755L27.8159 0.264002C27.757 0.191552 27.6809 0.156976 27.5876 0.160273C27.4943 0.163571 27.4209 0.203432 27.3673 0.279857C27.3137 0.356282 27.3012 0.438917 27.3298 0.527762C27.3585 0.616607 27.4169 0.676376 27.5051 0.707067C27.5932 0.737759 27.6761 0.727184 27.7538 0.675343C27.8314 0.623501 27.873 0.550983 27.8784 0.457789Z" fill="black"/>
<path d="M2.79233 31.7949C2.71152 31.6316 2.58024 31.5566 2.39851 31.5699H2.39226C2.21706 31.5847 2.09829 31.6743 2.03594 31.8387L2.00468 31.92C1.99994 31.9323 1.99577 31.9448 1.99218 31.9575L1.94217 32.1325C1.93747 32.1448 1.9333 32.1573 1.92967 32.17L1.88591 32.4076C1.87945 32.4343 1.87528 32.4614 1.87341 32.4888L1.86716 32.7826C1.86656 32.8227 1.87073 32.8623 1.87966 32.9014L1.94217 33.2077C1.95505 33.2681 1.97797 33.3243 2.01093 33.3765L2.19222 33.6703C2.21513 33.707 2.24222 33.7404 2.27348 33.7703L2.56104 34.0454C2.61675 34.0995 2.68134 34.139 2.75482 34.1641L3.1549 34.2892C3.19531 34.3038 3.23699 34.3122 3.27992 34.3142H3.61749L3.91129 34.4017C4.0659 34.4306 4.1658 34.3697 4.211 34.219C4.2562 34.0684 4.2063 33.9626 4.06132 33.9016L3.80502 33.8203L3.59248 33.5953C3.58634 33.5909 3.58009 33.5868 3.57373 33.5828L3.27992 33.3015L3.04238 33.0639L2.91736 32.8764L2.86109 32.7014L2.84859 32.4888V32.2638C2.8491 32.2513 2.8491 32.2388 2.84859 32.2263L2.83609 32.07L2.84234 32.0075C2.8452 31.9189 2.82228 31.8377 2.77358 31.7637V31.7574C2.70429 31.8943 2.71054 32.0277 2.79233 32.1575C2.85376 32.0366 2.85376 31.9158 2.79233 31.7949Z" fill="black"/>
<path d="M2.7174 32.5201C2.7174 32.6185 2.75219 32.7025 2.82176 32.772C2.89134 32.8416 2.97532 32.8764 3.07372 32.8764C3.17211 32.8764 3.2561 32.8416 3.32567 32.772C3.39525 32.7025 3.43004 32.6185 3.43004 32.5201C3.43004 32.4217 3.39525 32.3377 3.32567 32.2681C3.2561 32.1985 3.17211 32.1638 3.07372 32.1638C2.97532 32.1638 2.89134 32.1985 2.82176 32.2681C2.75219 32.3377 2.7174 32.4217 2.7174 32.5201ZM2.66114 32.5138L2.65489 32.5888C2.64921 32.6788 2.67005 32.7622 2.7174 32.8389L2.79867 32.9639C2.81822 32.9939 2.84114 33.0209 2.86743 33.0452L3.04246 33.2077C3.05976 33.226 3.07851 33.2427 3.09872 33.2577L3.36752 33.4328C3.37166 33.4349 3.37582 33.437 3.38003 33.439L3.68008 33.614L3.96139 33.7766C3.97153 33.7833 3.98194 33.7895 3.99264 33.7953L4.23644 33.9078C4.35938 33.964 4.48023 33.9598 4.59901 33.8953L4.69278 33.8453H4.78654C4.96575 33.837 5.05118 33.7432 5.04284 33.564C5.03451 33.3848 4.94074 33.2994 4.76154 33.3077H4.74279L4.72403 33.289C4.68544 33.2381 4.63752 33.1985 4.58026 33.1702L4.35521 33.0639L4.09891 32.9139L3.83636 32.7451L3.61757 32.5701L3.48005 32.4451L3.41753 32.3575C3.43087 32.4171 3.45587 32.4713 3.49255 32.5201L3.47379 32.4451C3.41837 32.2157 3.2731 32.111 3.03797 32.1309C2.80285 32.1508 2.67723 32.2784 2.66114 32.5138Z" fill="black"/>
<path d="M24.234 1.70137L24.209 1.69512C24.1032 1.66173 24.0032 1.67423 23.9089 1.73263L23.8277 1.78889C23.81 1.80006 23.7933 1.81256 23.7777 1.82639L23.6839 1.90141C23.5846 1.99616 23.5413 2.11187 23.5541 2.24855C23.5668 2.38523 23.6308 2.49092 23.746 2.56563C23.8611 2.64033 23.9837 2.65565 24.1137 2.61159C24.2437 2.56752 24.3318 2.48083 24.3778 2.35149L24.4028 2.25147L24.434 2.17646C24.4447 2.15438 24.453 2.13146 24.459 2.1077V2.08269C24.4982 1.88821 24.4232 1.7611 24.234 1.70137ZM23.6964 2.75782L23.8089 2.82658C23.9356 2.90677 24.0731 2.93594 24.2215 2.9141L24.5278 2.87034C24.551 2.86746 24.5739 2.86329 24.5966 2.85784L25.0154 2.74532C25.0409 2.73857 25.0659 2.73023 25.0904 2.72031L25.5155 2.54528C25.5601 2.52763 25.6017 2.50471 25.6405 2.47652L25.9718 2.22647C25.9739 2.22649 25.976 2.22649 25.9781 2.22647L26.2406 2.02643L26.4969 1.94517C26.6248 1.8862 26.6686 1.78925 26.6285 1.65432C26.5884 1.51938 26.4987 1.46214 26.3594 1.48258L26.1031 1.56384L25.7968 1.52634L25.3967 1.46382C25.3408 1.4533 25.2845 1.45121 25.2279 1.45757L24.7716 1.52009C24.7442 1.52247 24.7171 1.52664 24.6903 1.53259L24.2715 1.64511L23.9777 1.72637C23.9342 1.73839 23.8925 1.75506 23.8527 1.77638L23.7402 1.83265C23.656 1.87705 23.5884 1.9394 23.5373 2.0197C23.4863 2.10001 23.4585 2.18768 23.454 2.28273C23.4495 2.37779 23.4689 2.46769 23.5121 2.55246C23.5554 2.63722 23.6168 2.70567 23.6964 2.75782Z" fill="black"/>
<path d="M4.9486 34.2638L4.98611 34.2575C5.0208 34.2514 5.05414 34.241 5.08613 34.2263L5.23615 34.1575C5.25338 34.1503 5.27005 34.1419 5.28616 34.1325L5.56747 33.9512C5.57593 33.9473 5.58427 33.9431 5.59247 33.9387L5.99255 33.6511C5.99675 33.6491 6.00091 33.647 6.00505 33.6449L6.49264 33.2761C6.49906 33.27 6.50531 33.2637 6.5114 33.2573L7.01774 32.8385C7.02198 32.8344 7.02615 32.8302 7.03025 32.826L7.53034 32.3822C7.53685 32.374 7.5431 32.3657 7.5491 32.3571L8.04919 31.8508C8.05561 31.8447 8.06186 31.8385 8.06794 31.832L8.6243 31.2069C8.63293 31.1989 8.64126 31.1906 8.6493 31.1819L9.28693 30.3693C9.29117 30.3652 9.29533 30.361 9.29943 30.3568L10.0371 29.3628C10.0414 29.3567 10.0455 29.3504 10.0496 29.3441L10.8122 28.2251C10.8143 28.223 10.8164 28.221 10.8185 28.2189L11.5811 27.0561C11.5832 27.0541 11.5853 27.052 11.5874 27.0499L12.3063 25.8997C12.3084 25.8955 12.3105 25.8914 12.3125 25.8872L12.9751 24.7682C12.9773 24.7641 12.9794 24.7599 12.9814 24.7557L13.594 23.643C13.5962 23.6368 13.5983 23.6305 13.6002 23.6242L14.1754 22.474C14.1754 22.4719 14.1754 22.4699 14.1754 22.4678L14.7692 21.2613L15.3756 19.9985C15.3756 19.9965 15.3756 19.9944 15.3756 19.9923L15.9882 18.6608L16.6071 17.3668L17.2197 16.1478L17.8636 14.9726L18.5324 13.8036L19.2701 12.6534L20.0702 11.5282L20.8704 10.428L21.6518 9.37778L22.4144 8.38384L23.1521 7.46491L23.8272 6.6335L24.4273 5.88961L24.9774 5.22073L25.4713 4.63312C25.4734 4.63106 25.4754 4.62897 25.4775 4.62687L25.8776 4.12678C25.8818 4.12268 25.886 4.11851 25.8901 4.11427L26.1839 3.72045C26.1951 3.70643 26.2055 3.69184 26.2151 3.67669L26.3902 3.37038L26.5215 3.16409C26.5753 3.07643 26.5899 2.98266 26.5652 2.88279L26.5402 2.78277C26.4991 2.84183 26.4866 2.90643 26.5027 2.97656L26.5527 2.90154C26.625 2.77223 26.6001 2.66562 26.478 2.58169C26.356 2.49777 26.2475 2.5127 26.1526 2.62649L26.1026 2.7015C26.1852 2.69893 26.2498 2.66351 26.2964 2.59523L26.1901 2.60149C26.1113 2.60376 26.0404 2.62876 25.9776 2.6765L25.7838 2.82028L25.5025 3.03282C25.4829 3.04403 25.4641 3.05654 25.4463 3.07032L25.0962 3.41414C25.0898 3.42024 25.0835 3.42649 25.0774 3.43289L24.6398 3.89548C24.6356 3.90165 24.6314 3.9079 24.6273 3.91424L24.121 4.50185C24.1189 4.50391 24.1168 4.506 24.1147 4.5081L23.5646 5.17698C23.5625 5.17904 23.5605 5.18113 23.5584 5.18323L22.952 5.93337L22.2769 6.75853C22.2769 6.76061 22.2769 6.76269 22.2769 6.76478L21.5393 7.68995C21.5372 7.69202 21.5351 7.6941 21.533 7.69621L20.7641 8.6964C20.762 8.70054 20.7599 8.7047 20.7579 8.7089L19.9702 9.76535C19.9681 9.76742 19.966 9.7695 19.964 9.7716L19.1701 10.8843C19.1658 10.8905 19.1616 10.8967 19.1576 10.9031L18.4012 12.0783L17.651 13.2598C17.6489 13.2639 17.6468 13.2681 17.6448 13.2723L16.9509 14.4475C16.9466 14.4516 16.9425 14.4558 16.9384 14.46L16.2883 15.6477C16.284 15.6539 16.2798 15.6601 16.2758 15.6665L15.6569 16.898C15.6569 16.9 15.6569 16.9021 15.6569 16.9042L15.0255 18.2045C15.0255 18.2065 15.0255 18.2086 15.0255 18.2107L14.4129 19.5422L13.8065 20.7987L13.2252 21.9989L12.6563 23.1429L12.0562 24.2369L11.4061 25.3433L10.6934 26.4873L9.9433 27.6438L9.19941 28.7627L8.49302 29.7504L7.86165 30.5381L7.3178 31.1444L6.83021 31.632L6.35512 32.0633L5.86127 32.5072C5.85917 32.5092 5.85709 32.5113 5.85502 32.5134L5.40494 32.926L5.05487 33.2511L4.81107 33.4386L4.71105 33.5074L4.69855 33.5136C4.49533 33.6182 4.42985 33.779 4.50214 33.9958C4.57442 34.2127 4.72324 34.302 4.9486 34.2638Z" fill="black"/>
<path d="M6.50521 27.4437C6.50521 27.5404 6.53938 27.6229 6.60774 27.6912C6.67609 27.7596 6.7586 27.7938 6.85527 27.7938C6.95194 27.7938 7.03445 27.7596 7.10281 27.6912C7.17116 27.6229 7.20534 27.5404 7.20534 27.4437C7.20534 27.347 7.17116 27.2645 7.10281 27.1962C7.03445 27.1278 6.95194 27.0936 6.85527 27.0936C6.7586 27.0936 6.67609 27.1278 6.60774 27.1962C6.53938 27.2645 6.50521 27.347 6.50521 27.4437ZM7.09282 27.1436L7.03031 27.0874C7.0222 27.0808 7.01386 27.0746 7.0053 27.0686L6.84902 26.9436C6.84493 26.9394 6.84076 26.9352 6.83652 26.9311L6.59272 26.7498L6.27391 26.4998L5.88634 26.1497L5.4425 25.6934L4.96741 25.137L4.49857 24.5244L4.04224 23.868L3.59215 23.1866L3.17957 22.5053L2.817 21.8489L2.56071 21.2238L2.44818 20.6049L2.5357 19.8923L2.90452 18.9421L3.52339 17.8544L4.34229 16.6667L5.31123 15.4727L6.37393 14.2912L7.5429 13.1535L8.78689 12.0408L10.1184 10.9843L11.5937 9.92787L13.2627 8.86517L15.0881 7.80871L16.9697 6.82103L18.7825 5.95211L20.4016 5.21447C20.4037 5.2124 20.4058 5.21031 20.4079 5.20822L21.8144 4.56435C21.8207 4.56026 21.8269 4.55609 21.8331 4.55184L23.0459 3.95798C23.0543 3.95395 23.0626 3.94978 23.0709 3.94548L24.0898 3.40163C24.1134 3.38813 24.1363 3.37355 24.1586 3.35787L24.9525 2.83902C25.019 2.79365 25.0773 2.73947 25.1275 2.67649L25.5526 2.15764C25.625 2.07017 25.6688 1.97015 25.6839 1.85758L25.7151 1.60128L25.8589 1.45125C25.9456 1.33559 25.9379 1.22665 25.8357 1.12441C25.7334 1.02218 25.6245 1.01444 25.5088 1.10119L25.3838 1.21996L25.1588 1.19496C25.0825 1.18668 25.0075 1.19293 24.9337 1.21371L24.2836 1.40124C24.236 1.41572 24.1902 1.43448 24.1461 1.45751L23.3022 1.88259C23.3001 1.88258 23.298 1.88258 23.2959 1.88259L22.277 2.41394L21.083 2.9953L19.6827 3.64542L18.0574 4.38306C18.0532 4.38511 18.0491 4.3872 18.0449 4.38931L16.2071 5.26448C16.1987 5.26851 16.1903 5.27268 16.182 5.27698L14.2692 6.27092C14.2586 6.27696 14.2482 6.28321 14.2379 6.28968L12.3688 7.35238C12.3583 7.35841 12.3479 7.36466 12.3376 7.37113L10.631 8.45259C10.6162 8.46051 10.6016 8.46884 10.5872 8.47759L9.07445 9.55905C9.06165 9.56912 9.04915 9.57954 9.03694 9.5903L7.66793 10.6843C7.65505 10.6964 7.64254 10.7089 7.63042 10.7218L6.36143 11.872C6.34854 11.8841 6.33604 11.8966 6.32392 11.9095L5.15495 13.1097C5.14644 13.1179 5.13811 13.1262 5.12994 13.1347L4.03599 14.3537C4.02521 14.3659 4.01479 14.3784 4.00473 14.3912L3.01079 15.629C2.99767 15.6452 2.98517 15.6618 2.97328 15.679L2.11062 16.9229C2.09493 16.9452 2.08035 16.9681 2.06686 16.9917L1.40424 18.1669C1.38509 18.2012 1.36843 18.2366 1.35423 18.2732L0.922894 19.3797C0.896439 19.4504 0.87977 19.5233 0.872884 19.5985L0.772865 20.5424C0.765086 20.6309 0.771337 20.7184 0.791619 20.8049L0.960401 21.6238C0.974114 21.6867 0.994952 21.7472 1.02291 21.8051L1.37298 22.5365C1.38781 22.5667 1.40448 22.5959 1.42299 22.624L1.86682 23.3117C1.87479 23.3244 1.88313 23.3369 1.89183 23.3492L2.38567 24.018C2.38772 24.0222 2.3898 24.0264 2.39192 24.0306L2.90452 24.6932C2.90659 24.6953 2.90868 24.6974 2.91077 24.6994L3.42962 25.3433C3.43959 25.3562 3.45001 25.3687 3.46088 25.3808L4.00473 25.9684C4.00884 25.9726 4.01301 25.9768 4.01723 25.9809L4.54858 26.531C4.55269 26.5353 4.55686 26.5394 4.56109 26.5435L5.04243 27.0186C5.06015 27.0365 5.0789 27.0531 5.09869 27.0686L5.54877 27.4062C5.57248 27.4248 5.59749 27.4415 5.62379 27.4562L6.00511 27.6625C6.0352 27.6779 6.06646 27.6904 6.09888 27.7L6.39269 27.7938C6.41924 27.8023 6.44633 27.8086 6.47395 27.8125L6.66774 27.8375C6.6967 27.8425 6.72587 27.8446 6.75525 27.8438L6.84277 27.8375C7.01969 27.8283 7.13818 27.7403 7.19824 27.5736C7.25831 27.407 7.22316 27.2636 7.09282 27.1436Z" fill="black"/>
<path d="M27.2028 0.944965C27.2028 1.15751 27.3091 1.26378 27.5216 1.26378C27.7342 1.26378 27.8405 1.15751 27.8405 0.944965C27.8405 0.732424 27.7342 0.626154 27.5216 0.626154C27.3091 0.626154 27.2028 0.732424 27.2028 0.944965ZM27.5216 0.6074H27.5029C27.2923 0.603753 27.1726 0.706243 27.1438 0.914871C27.1149 1.1235 27.2023 1.25462 27.406 1.30824C27.6097 1.36186 27.7503 1.29078 27.8279 1.09499L27.8342 1.08249C27.8805 0.970345 27.8704 0.863584 27.8037 0.76221C27.737 0.660836 27.643 0.609233 27.5216 0.6074ZM27.0716 0.976221C27.0716 1.09015 27.1118 1.1874 27.1924 1.26796C27.273 1.34852 27.3702 1.3888 27.4841 1.3888C27.5981 1.3888 27.6953 1.34852 27.7759 1.26796C27.8564 1.1874 27.8967 1.09015 27.8967 0.976221C27.8967 0.86229 27.8564 0.765044 27.7759 0.684484C27.6953 0.603923 27.5981 0.563642 27.4841 0.563642C27.3702 0.563642 27.273 0.603923 27.1924 0.684484C27.1118 0.765044 27.0716 0.86229 27.0716 0.976221ZM27.034 0.982472C27.034 1.10849 27.0786 1.21605 27.1677 1.30515C27.2568 1.39426 27.3644 1.43881 27.4904 1.43881C27.6164 1.43881 27.724 1.39426 27.8131 1.30515C27.9022 1.21605 27.9467 1.10849 27.9467 0.982472C27.9467 0.856458 27.9022 0.748898 27.8131 0.659793C27.724 0.570688 27.6164 0.526135 27.4904 0.526135C27.3644 0.526135 27.2568 0.570688 27.1677 0.659793C27.0786 0.748898 27.034 0.856458 27.034 0.982472ZM26.9528 1.00123C26.9528 1.15141 27.0059 1.27959 27.1121 1.38579C27.2183 1.49198 27.3465 1.54508 27.4966 1.54508C27.6468 1.54508 27.775 1.49198 27.8812 1.38579C27.9874 1.27959 28.0405 1.15141 28.0405 1.00123C28.0405 0.851044 27.9874 0.722857 27.8812 0.616663C27.775 0.510469 27.6468 0.457372 27.4966 0.457372C27.3465 0.457372 27.2183 0.510469 27.1121 0.616663C27.0059 0.722857 26.9528 0.851044 26.9528 1.00123ZM27.2466 0.488628L27.1778 0.519884C27.1052 0.55182 27.0406 0.595578 26.984 0.651159L26.8403 0.794936C26.8273 0.806969 26.8148 0.819472 26.8028 0.832443L26.5652 1.1075C26.5521 1.1216 26.5396 1.13619 26.5277 1.15125L26.2276 1.57008C26.2166 1.58636 26.2062 1.60303 26.1964 1.62009L25.8526 2.16395C25.8438 2.17827 25.8354 2.19286 25.8276 2.20771L25.465 2.87658C25.4585 2.88686 25.4523 2.89728 25.4462 2.90784L25.0774 3.68299C25.0753 3.68714 25.0732 3.6913 25.0712 3.69549L24.6773 4.5394C24.6729 4.5518 24.6687 4.56431 24.6648 4.57691L24.296 5.48333C24.2917 5.4916 24.2876 5.49993 24.2835 5.50833L23.9397 6.45851C23.9353 6.46885 23.9312 6.47927 23.9272 6.48977L23.6209 7.4462C23.6188 7.45035 23.6167 7.45452 23.6146 7.4587L23.3208 8.41514L22.9958 9.43408C22.991 9.45271 22.9869 9.47146 22.9833 9.49034L22.6957 10.6468C22.6889 10.6654 22.6827 10.6841 22.677 10.7031L22.4519 11.9283C22.4497 11.9387 22.4476 11.9491 22.4457 11.9596L22.2581 13.1785C22.2581 13.1827 22.2581 13.1869 22.2581 13.191L22.0894 14.3975C22.0894 14.4017 22.0894 14.4059 22.0894 14.41L21.9331 15.6103L21.7518 16.8292L21.5455 18.0732L21.2705 19.311L20.9579 20.5237L20.5766 21.6989L20.089 22.8116L19.5014 23.8931L18.8387 24.8933L18.1386 25.7684L17.4385 26.4936L16.7383 27.0437L16.0257 27.4688L15.3006 27.7876L14.5817 28.0439L13.9316 28.2377L13.3377 28.3814C13.3123 28.3886 13.2873 28.3969 13.2627 28.4064L12.7688 28.5752C12.7366 28.5854 12.7054 28.5979 12.6751 28.6127L12.325 28.794L12.0875 28.8815L11.8687 28.8315C11.7145 28.794 11.6186 28.8524 11.5811 29.0066C11.5436 29.1608 11.6019 29.2566 11.7561 29.2941L11.9999 29.3504L12.2437 29.5379C12.2479 29.5401 12.252 29.5421 12.2562 29.5442L12.6063 29.7817C12.6698 29.8246 12.7386 29.8558 12.8126 29.8755L13.3189 30.013C13.3905 30.033 13.4634 30.0435 13.5377 30.0443H14.1691C14.2005 30.0438 14.2317 30.0417 14.2629 30.038L14.988 29.963C15.028 29.9592 15.0676 29.9529 15.1068 29.9442L15.9132 29.7567C15.9578 29.7471 16.0015 29.7346 16.0445 29.7192L16.8821 29.4004C16.9316 29.3831 16.9795 29.3623 17.0259 29.3379L17.8698 28.8753C17.925 28.8445 17.9771 28.809 18.0261 28.769L18.8262 28.1189C18.8614 28.0918 18.8947 28.0626 18.9263 28.0314L19.7139 27.2187C19.7405 27.1909 19.7655 27.1617 19.7889 27.1312L20.5391 26.1748C20.5591 26.1486 20.5778 26.1215 20.5953 26.0935L21.2955 25.012C21.3135 24.9837 21.3302 24.9545 21.3455 24.9245L21.9518 23.7556C21.968 23.725 21.9826 23.6938 21.9956 23.6618L22.4832 22.4366C22.4922 22.416 22.5005 22.3952 22.5082 22.374L22.9083 21.1238C22.9151 21.1052 22.9213 21.0865 22.927 21.0675L23.2521 19.8048C23.2567 19.7882 23.2608 19.7716 23.2646 19.7548L23.5334 18.4733C23.5358 18.4588 23.5379 18.4442 23.5396 18.4295L23.7522 17.1481C23.7523 17.1397 23.7523 17.1314 23.7522 17.123L23.921 15.8853C23.9231 15.8791 23.9252 15.8728 23.9272 15.8666L24.071 14.6538L24.2085 13.4598L24.396 12.2721L24.6086 11.0719L24.8461 9.90917L25.0524 8.89023L25.3087 7.9713L25.5963 7.03362L25.9213 6.09595L26.2464 5.19577L26.584 4.36437L26.9215 3.61422L27.2466 2.95785L27.5466 2.40774C27.5487 2.40567 27.5508 2.40359 27.5529 2.40149L27.7967 1.95141C27.7989 1.94518 27.8009 1.93893 27.8029 1.93265L27.9655 1.61384C27.9865 1.57175 28.0032 1.52799 28.0155 1.48257L28.0655 1.28253C28.0843 1.21716 28.0926 1.15048 28.0905 1.08249L28.0842 1.00123C28.0795 0.903041 28.0521 0.811665 28.002 0.727098C27.9519 0.64253 27.8849 0.574592 27.8011 0.523284C27.7172 0.471976 27.6262 0.443256 27.5281 0.437123C27.43 0.430991 27.3362 0.448159 27.2466 0.488628Z" fill="black"/>
<path d="M9.42453 28.6502C9.42453 28.7486 9.45932 28.8326 9.5289 28.9021C9.59847 28.9717 9.68246 29.0065 9.78085 29.0065C9.87925 29.0065 9.96323 28.9717 10.0328 28.9021C10.1024 28.8326 10.1372 28.7486 10.1372 28.6502C10.1372 28.5518 10.1024 28.4678 10.0328 28.3982C9.96323 28.3287 9.87925 28.2939 9.78085 28.2939C9.68246 28.2939 9.59847 28.3287 9.5289 28.3982C9.45932 28.4678 9.42453 28.5518 9.42453 28.6502ZM8.97445 28.6502C8.97445 28.8608 9.04891 29.0406 9.19782 29.1895C9.34674 29.3384 9.52649 29.4128 9.73709 29.4128C9.94769 29.4128 10.1274 29.3384 10.2764 29.1895C10.4253 29.0406 10.4997 28.8608 10.4997 28.6502C10.4997 28.4396 10.4253 28.2598 10.2764 28.1109C10.1274 27.962 9.94769 27.8875 9.73709 27.8875C9.52649 27.8875 9.34674 27.962 9.19782 28.1109C9.04891 28.2598 8.97445 28.4396 8.97445 28.6502ZM9.04321 29.0878L9.11823 29.2253C9.16691 29.308 9.22734 29.3809 9.29951 29.4441L9.5183 29.6441C9.56623 29.6892 9.61832 29.7288 9.67458 29.7629L10.0747 29.9942C10.1148 30.018 10.1565 30.0389 10.1997 30.0567L10.7373 30.2693C10.774 30.284 10.8116 30.2965 10.8498 30.3068L11.5062 30.4818C11.5494 30.493 11.5931 30.5014 11.6375 30.5068L12.3563 30.5943C12.3957 30.6008 12.4353 30.605 12.4751 30.6068L13.2878 30.6193C13.3296 30.6198 13.3712 30.6177 13.4128 30.6131L14.2505 30.5193C14.3055 30.5132 14.3596 30.5028 14.413 30.488L15.2756 30.2442C15.3338 30.2285 15.39 30.2076 15.4444 30.1817L16.2508 29.7879C16.299 29.7647 16.3448 29.7376 16.3884 29.7066L17.0572 29.2253C17.1806 29.1361 17.2723 29.0215 17.3323 28.8815L17.5698 28.3376L17.8324 27.9188L18.1199 27.6563C18.2325 27.5562 18.2387 27.45 18.1387 27.3374C18.0387 27.2249 17.9324 27.2187 17.8199 27.3187L17.5386 27.5687L17.1197 27.7188L16.5509 27.7313C16.4628 27.7342 16.3774 27.7509 16.2946 27.7813L15.5382 28.0501L14.7443 28.3064L13.9691 28.4752L13.244 28.5564H12.5376L11.9188 28.5002L11.3499 28.3751L10.8873 28.2439L10.5247 28.0876L10.2559 27.9688C10.2253 27.9567 10.194 27.9462 10.1622 27.9376L10.0121 27.8875C9.65411 27.7782 9.35751 27.8691 9.12234 28.1604C8.88718 28.4517 8.86081 28.7609 9.04321 29.0878Z" fill="black"/>
<path d="M6.5239 27.2749C6.5239 27.3854 6.56296 27.4797 6.64108 27.5578C6.7192 27.6359 6.8135 27.675 6.92398 27.675C7.03445 27.675 7.12875 27.6359 7.20687 27.5578C7.28499 27.4797 7.32405 27.3854 7.32405 27.2749C7.32405 27.1645 7.28499 27.0701 7.20687 26.992C7.12875 26.9139 7.03445 26.8749 6.92398 26.8749C6.8135 26.8749 6.7192 26.9139 6.64108 26.992C6.56296 27.0701 6.5239 27.1645 6.5239 27.2749ZM6.49889 27.2874C6.49889 27.4031 6.53978 27.5018 6.62157 27.5836C6.70335 27.6654 6.80207 27.7063 6.91772 27.7063C7.03338 27.7063 7.1321 27.6654 7.21388 27.5836C7.29566 27.5018 7.33655 27.4031 7.33655 27.2874C7.33655 27.1718 7.29566 27.0731 7.21388 26.9913C7.1321 26.9095 7.03338 26.8686 6.91772 26.8686C6.80207 26.8686 6.70335 26.9095 6.62157 26.9913C6.53978 27.0731 6.49889 27.1718 6.49889 27.2874ZM6.39262 27.3062C6.39262 27.4443 6.44145 27.5622 6.5391 27.6598C6.63675 27.7575 6.75462 27.8063 6.89272 27.8063C7.03082 27.8063 7.14869 27.7575 7.24634 27.6598C7.34399 27.5622 7.39281 27.4443 7.39281 27.3062C7.39281 27.1681 7.34399 27.0502 7.24634 26.9526C7.14869 26.8549 7.03082 26.8061 6.89272 26.8061C6.75462 26.8061 6.63675 26.8549 6.5391 26.9526C6.44145 27.0502 6.39262 27.1681 6.39262 27.3062ZM6.23634 27.3312C6.23634 27.5004 6.29615 27.6448 6.41577 27.7644C6.5354 27.884 6.67979 27.9438 6.84896 27.9438C7.01813 27.9438 7.16252 27.884 7.28215 27.7644C7.40177 27.6448 7.46158 27.5004 7.46158 27.3312C7.46158 27.162 7.40177 27.0176 7.28215 26.898C7.16252 26.7784 7.01813 26.7186 6.84896 26.7186C6.67979 26.7186 6.5354 26.7784 6.41577 26.898C6.29615 27.0176 6.23634 27.162 6.23634 27.3312ZM7.21153 26.7748L7.14277 26.7186C7.12457 26.7052 7.10581 26.6927 7.08651 26.6811L7.01149 26.6311L6.90522 26.5498L6.71143 26.3498L6.42388 26.0559L6.09257 25.7059C6.09051 25.7017 6.08843 25.6975 6.08632 25.6934L5.73625 25.3371L5.37368 24.9557C5.36161 24.9408 5.34911 24.9262 5.33617 24.912L4.9611 24.5619C4.93711 24.5399 4.91211 24.519 4.88609 24.4994L4.50476 24.1993C4.49045 24.1885 4.47587 24.1781 4.46101 24.1681L4.07968 23.9055L3.72962 23.6617L3.44831 23.4617L3.26078 23.2992L3.14826 23.1804L3.05449 23.0116L2.95447 22.7803L2.86695 22.4803L2.77944 22.1052L2.71692 21.7426L2.69817 21.3551L2.70442 20.8612L2.72318 20.3549L2.75443 19.8923L2.79819 19.4859L2.8732 19.1546L2.97947 18.8421L3.15451 18.467L3.39205 18.0357L3.69211 17.5481L4.06093 16.998L4.50476 16.3979L5.00486 15.779L5.57997 15.1414L6.21759 14.4725L6.93648 13.7724L7.79289 12.9972L8.83059 12.1408L10.0308 11.2156L11.3498 10.2717L12.7126 9.32151L14.0941 8.41509L15.4568 7.57118L16.8134 6.78978L18.1636 6.05839L19.4451 5.40202C19.4536 5.39592 19.4619 5.38967 19.4701 5.38326L20.5641 4.77065C20.6092 4.74403 20.6509 4.71277 20.6891 4.67688L21.3955 4.03301L21.9331 3.61418L22.3332 3.41414C22.479 3.33912 22.5144 3.22869 22.4394 3.08282C22.3644 2.93696 22.254 2.90154 22.1081 2.97655L21.7143 3.17659L21.0704 3.33287L20.1265 3.45164C20.0819 3.45582 20.0382 3.46416 19.9952 3.47665L18.8075 3.86422C18.7906 3.86994 18.7739 3.87619 18.7575 3.88298L17.4072 4.42058C17.3946 4.42447 17.3821 4.42864 17.3697 4.43308L15.9507 5.07695C15.9338 5.08274 15.9172 5.08899 15.9007 5.09571L14.4879 5.8271C14.4731 5.83506 14.4585 5.8434 14.4442 5.8521L13.0314 6.66476C13.0187 6.67282 13.0062 6.68115 12.9939 6.68976L11.5749 7.58993C11.5664 7.59606 11.5581 7.60231 11.5499 7.60869L10.1558 8.54636C10.1537 8.55052 10.1516 8.55469 10.1496 8.55887L8.79308 9.49655C8.78256 9.50262 8.77214 9.50887 8.76183 9.5153L7.52409 10.4467C7.51135 10.4569 7.49885 10.4673 7.48658 10.478L6.41138 11.3531C6.40074 11.3634 6.39033 11.3738 6.38012 11.3844L5.47995 12.1783C5.47362 12.1845 5.46737 12.1907 5.4612 12.1971L4.69855 12.9159C4.68574 12.9281 4.67324 12.9406 4.66104 12.9535L3.99842 13.6348C3.98995 13.643 3.98161 13.6514 3.97341 13.6598L3.36705 14.3287C3.35196 14.3449 3.33737 14.3616 3.32329 14.3787L2.78569 15.0414C2.77716 15.0516 2.76883 15.062 2.76068 15.0726L2.28559 15.704C2.27251 15.7223 2.26001 15.7411 2.24808 15.7602L1.85426 16.3479C1.84573 16.3581 1.8374 16.3685 1.82926 16.3791L1.50419 16.9105C1.49543 16.9269 1.4871 16.9436 1.47919 16.9605L1.21664 17.4418C1.20788 17.4583 1.19954 17.4749 1.19163 17.4918L0.972842 17.9482C0.953849 17.9868 0.937179 18.0264 0.922832 18.0669L0.772804 18.5045C0.757326 18.5495 0.744823 18.5954 0.735297 18.642L0.641529 19.0921C0.636182 19.1211 0.632014 19.1503 0.629027 19.1796L0.572766 19.661C0.569963 19.6838 0.567879 19.7068 0.566515 19.7297L0.535259 20.2361C0.535163 20.2444 0.535163 20.2528 0.535259 20.2611L0.516505 20.7987C0.51641 20.807 0.51641 20.8154 0.516505 20.8237L0.510254 21.3613C0.510994 21.3927 0.513078 21.4239 0.516505 21.4551L0.554012 21.9489C0.55508 21.9761 0.557164 22.0032 0.560263 22.0302L0.629027 22.4865C0.634084 22.5159 0.640335 22.5451 0.64778 22.574L0.747799 23.0054C0.755225 23.0307 0.76356 23.0557 0.772804 23.0804L0.891577 23.4742C0.902626 23.506 0.915129 23.5373 0.929084 23.568L1.07911 23.918C1.09851 23.9677 1.12143 24.0156 1.14788 24.0618L1.34166 24.3806C1.37619 24.4385 1.41578 24.4927 1.46043 24.5432L1.69798 24.8057C1.74564 24.8566 1.79773 24.9024 1.85426 24.9432L2.14181 25.162C2.17386 25.1868 2.2072 25.2098 2.24183 25.2308L2.5919 25.4308C2.59189 25.4329 2.59189 25.435 2.5919 25.4371L2.94822 25.6434L3.32329 25.8809L3.70461 26.1185L4.05468 26.381L4.4235 26.7061L4.80482 27.0436C4.80897 27.0458 4.81314 27.0478 4.81732 27.0499L5.18614 27.3687C5.20033 27.3817 5.21492 27.3942 5.2299 27.4062L5.56122 27.65C5.58141 27.6655 5.60225 27.6801 5.62373 27.6938L5.89878 27.8688C5.95197 27.9023 6.00823 27.9293 6.06756 27.9501L6.2801 28.0251C6.33092 28.0429 6.38302 28.0554 6.43638 28.0626L6.58016 28.0813C6.71867 28.0992 6.85203 28.0805 6.98024 28.0251L7.0615 27.9938C7.17727 27.9435 7.27293 27.8679 7.34848 27.7668C7.42404 27.6657 7.46952 27.5525 7.48494 27.4272C7.50036 27.3019 7.48367 27.1811 7.43489 27.0647C7.38611 26.9483 7.31165 26.8517 7.21153 26.7748Z" fill="black"/>
<path d="M2.52934 31.5258C2.52934 31.6363 2.5684 31.7306 2.64652 31.8087C2.72464 31.8868 2.81894 31.9259 2.92942 31.9259C3.0399 31.9259 3.1342 31.8868 3.21232 31.8087C3.29044 31.7306 3.32949 31.6363 3.3295 31.5258C3.32949 31.4153 3.29044 31.321 3.21232 31.2429C3.1342 31.1648 3.0399 31.1257 2.92942 31.1257C2.81894 31.1257 2.72464 31.1648 2.64652 31.2429C2.5684 31.321 2.52934 31.4153 2.52934 31.5258ZM2.99818 31.107L2.94192 31.0945C2.85886 31.0774 2.7776 31.0837 2.69812 31.1132L2.59811 31.1507C2.57878 31.1578 2.56003 31.1661 2.54185 31.1757L2.43557 31.232L2.3293 31.2758C2.43981 31.3068 2.54816 31.3006 2.65437 31.257L2.59811 31.2383C2.4228 31.1897 2.25962 31.2161 2.10858 31.3175C1.95754 31.4188 1.87129 31.5599 1.84983 31.7405C1.82837 31.9211 1.87918 32.0784 2.00227 32.2124C2.12536 32.3463 2.2778 32.4102 2.45961 32.4041C2.64142 32.3979 2.7892 32.3239 2.90296 32.1819C3.01672 32.04 3.0568 31.8796 3.02319 31.7008L3.01694 31.6446C2.942 31.7574 2.91699 31.8803 2.94192 32.0134L2.97318 31.9634H2.97943L3.02944 31.9384L3.07945 31.9134C3.27 31.8312 3.35487 31.6869 3.33406 31.4804C3.31326 31.274 3.2013 31.1495 2.99818 31.107ZM2.55435 32.4885L2.62936 32.4697C2.77409 32.44 2.89911 32.3733 3.00443 32.2697L3.23573 32.0447C3.24425 32.0365 3.25258 32.0282 3.26073 32.0196L3.68581 31.5633L5.09858 30.0505C5.09859 30.0484 5.09859 30.0464 5.09858 30.0443L6.47384 28.569L6.90518 28.1127L7.10521 27.9189L7.13022 27.9064C7.29739 27.7587 7.38792 27.5736 7.40184 27.351C7.41575 27.1284 7.34896 26.9334 7.20148 26.7661C7.05399 26.5988 6.86896 26.508 6.64636 26.4939C6.42377 26.4797 6.22874 26.5463 6.06126 26.6936L5.9925 26.7624L5.78621 26.9374L5.4424 27.2187C5.44239 27.2208 5.44239 27.2229 5.4424 27.225L4.99856 27.5938C4.99435 27.5979 4.99018 27.6021 4.98606 27.6063L4.48597 28.0439L3.97337 28.494C3.96918 28.496 3.96501 28.4981 3.96087 28.5002L3.49203 28.9316C3.4814 28.9396 3.47098 28.948 3.46077 28.9566L3.06695 29.3504C3.05624 29.3605 3.04582 29.3709 3.03569 29.3816L2.72938 29.7255C2.72086 29.7336 2.71253 29.7419 2.70438 29.7505L2.47308 30.038C2.46887 30.0421 2.4647 30.0463 2.46058 30.0505L2.28555 30.2693C2.27906 30.2796 2.27281 30.29 2.26679 30.3006L2.13552 30.4819C2.1312 30.4901 2.12704 30.4985 2.12302 30.5069L2.023 30.6506C2.01874 30.6568 2.01457 30.6631 2.01049 30.6694L1.94798 30.7694C1.94367 30.7777 1.9395 30.786 1.93548 30.7944L1.90422 30.8507C2.0902 30.7847 2.23189 30.666 2.3293 30.4944L2.31055 30.5006C2.39695 30.6851 2.53405 30.8168 2.72186 30.8958C2.90967 30.9747 3.09971 30.9805 3.29199 30.9132L3.28574 30.9007C3.14028 30.591 2.89649 30.4388 2.55435 30.4443H2.53559C2.27874 30.4484 2.07245 30.5526 1.91673 30.7569L1.89172 30.7882C1.84773 30.8458 1.81231 30.9083 1.78545 30.9757L1.76045 31.0445C1.73504 31.109 1.71837 31.1756 1.71044 31.2445L1.69793 31.3445C1.69255 31.386 1.69047 31.4277 1.69168 31.4695L1.69793 31.6383C1.6992 31.6592 1.70128 31.6801 1.70419 31.7008L1.73544 31.9634C1.73537 31.9696 1.73537 31.9759 1.73544 31.9821L1.78545 32.326C1.78724 32.3385 1.78932 32.351 1.7917 32.3635L1.86047 32.7198C1.8641 32.7366 1.86827 32.7533 1.87297 32.7698L1.95423 33.0949C1.95964 33.1159 1.96589 33.1368 1.97299 33.1574L2.0605 33.4074C2.07537 33.4528 2.09412 33.4966 2.11676 33.5387L2.21053 33.7075C2.24218 33.7619 2.27969 33.8119 2.32305 33.8575L2.41682 33.9638C2.48659 34.0397 2.56785 34.1001 2.66062 34.1451L2.72938 34.1763C2.89923 34.2589 3.07635 34.2797 3.26073 34.2388L3.31074 34.2263C3.61979 34.1608 3.82191 33.9774 3.91711 33.6762L3.93586 33.6075C3.96561 33.5139 3.97811 33.418 3.97337 33.3199L3.96712 33.2136C3.96431 33.1863 3.96014 33.1592 3.95461 33.1324L3.94211 33.0261C3.93847 33.0093 3.93431 32.9926 3.92961 32.9761L3.91086 32.8886C3.90036 32.8414 3.88577 32.7956 3.8671 32.751L3.84834 32.7073C3.51218 32.4913 3.19129 32.512 2.88567 32.7694C2.58004 33.0268 2.50503 33.3395 2.66062 33.7075L2.67312 33.7137L2.76689 33.7887C2.79873 33.812 2.83207 33.8328 2.86691 33.8512L3.0982 33.9825C3.11054 33.9891 3.12305 33.9953 3.13571 34.0013L3.46702 34.1638C3.48349 34.1706 3.50016 34.1769 3.51703 34.1826L3.92336 34.3513C3.95194 34.3634 3.98112 34.3738 4.01087 34.3826L4.47346 34.5076C4.49414 34.5126 4.51498 34.5168 4.53597 34.5201L4.99856 34.6201C5.01102 34.6225 5.02352 34.6246 5.03607 34.6264L5.4549 34.6889C5.47773 34.692 5.50065 34.6941 5.52366 34.6952L5.87373 34.7202C5.90499 34.722 5.93624 34.722 5.9675 34.7202L6.24255 34.7077C6.31301 34.7045 6.38177 34.692 6.44884 34.6702L6.68013 34.5951C6.7644 34.5667 6.8415 34.5251 6.91143 34.4701L7.13647 34.2951C7.16775 34.2703 7.19692 34.2432 7.22399 34.2138L7.49904 33.9263C7.50757 33.9181 7.5159 33.9098 7.52404 33.9013L7.85536 33.5074C7.86618 33.4953 7.8766 33.4828 7.88661 33.4699L8.26793 32.9636C8.27003 32.9615 8.27211 32.9594 8.27419 32.9573L8.69927 32.3635C8.70349 32.3593 8.70765 32.3552 8.71177 32.351L9.1431 31.7196C9.1452 31.7175 9.14728 31.7154 9.14935 31.7133L9.55568 31.0945C9.55778 31.0924 9.55986 31.0903 9.56193 31.0882L9.8995 30.5569L10.1183 30.2131C10.0828 30.2493 10.0516 30.2889 10.0245 30.3318L10.0433 30.3131C10.1531 30.1562 10.196 29.9828 10.172 29.7928C10.1479 29.6028 10.0631 29.4456 9.91758 29.3211C9.77206 29.1966 9.60358 29.1371 9.41215 29.1427C9.22073 29.1484 9.05603 29.2176 8.91806 29.3504L8.69927 29.6442C8.69056 29.6564 8.68222 29.669 8.67426 29.6817L8.3242 30.2256C8.31987 30.2338 8.31571 30.2422 8.31169 30.2506L7.93662 30.8757C7.92522 30.896 7.9148 30.9169 7.90537 30.9382L7.63031 31.5258C7.62322 31.5443 7.61697 31.563 7.61156 31.5821L7.48029 31.9446L7.43028 32.0259C7.37212 32.1582 7.36589 32.2929 7.41157 32.4301C7.45725 32.5672 7.54303 32.6713 7.66892 32.7423C7.7948 32.8133 7.92824 32.8329 8.06922 32.8011C8.21021 32.7692 8.32229 32.6942 8.40546 32.576L8.45547 32.476L8.6055 32.2509L8.84304 32.0196C8.85619 32.0056 8.86869 31.991 8.88055 31.9759L8.98057 31.8571C9.11539 31.7039 9.16957 31.5261 9.14312 31.3237C9.11666 31.1213 9.01859 30.9634 8.8489 30.8499C8.67922 30.7365 8.49581 30.7062 8.29868 30.7591C8.10154 30.812 7.95794 30.9301 7.86786 31.1132L7.79284 31.257C7.78063 31.2834 7.77021 31.3105 7.76159 31.3383L7.65532 31.6508L7.49904 31.9071C7.49904 31.9092 7.49904 31.9113 7.49904 31.9134L7.42402 32.0322C7.35866 32.1551 7.3413 32.2844 7.37196 32.4202C7.40263 32.556 7.47388 32.6654 7.58573 32.7483C7.69757 32.8312 7.82292 32.8676 7.96177 32.8574C8.10062 32.8473 8.21934 32.7931 8.31794 32.6948L8.42421 32.5823L8.72427 32.2634C8.73756 32.2474 8.75006 32.2307 8.76178 32.2134L9.1556 31.7008C9.16881 31.6847 9.18132 31.668 9.19311 31.6508L9.58694 31.0382L9.93075 30.5006L10.1308 30.2068C10.0726 30.088 9.98877 29.9916 9.87919 29.9176C9.76961 29.8435 9.64887 29.8017 9.51696 29.792C9.38506 29.7824 9.25952 29.8062 9.14032 29.8635C9.02113 29.9208 8.92412 30.004 8.8493 30.113L8.8618 30.138C8.99462 29.9165 9.00504 29.6894 8.89305 29.4567L8.68676 29.7942L8.3617 30.3193L7.96788 30.9194L7.5428 31.5133L7.11772 32.0572L6.71139 32.5072L6.38008 32.8823L6.16754 33.1011L6.10502 33.1449L6.12378 33.1386L6.02376 33.1324L5.7237 33.0824L5.32362 33.0073L4.90479 32.9136L4.50472 32.7948L4.1609 32.6635L3.87335 32.5197L3.67956 32.4197L3.58579 32.3572C3.56143 32.3434 3.53643 32.3309 3.51078 32.3197L3.46702 32.2947C3.12504 32.1187 2.8146 32.1632 2.53569 32.428C2.25678 32.6928 2.19632 33.0005 2.35431 33.3512L2.37306 33.3949C2.36051 33.3366 2.34175 33.2803 2.3168 33.2261L2.3293 33.2699V33.3136L2.33556 33.4137C2.35556 33.3357 2.3639 33.2565 2.36056 33.1761L2.34181 33.2449C2.65256 33.1589 2.84426 32.9589 2.91692 32.6448L2.86691 32.6635C3.03019 32.7202 3.19481 32.7244 3.36075 32.676L3.27949 32.651C3.36988 32.743 3.47615 32.8097 3.5983 32.8511L3.57329 32.8323L3.56079 32.8073L3.51078 32.6635L3.44202 32.3947L3.3795 32.0759L3.3295 31.7508C3.32953 31.7467 3.32953 31.7425 3.3295 31.7383L3.29199 31.5008L3.28574 31.4508V31.4445C3.27086 31.4915 3.26044 31.5394 3.25448 31.5883L3.27323 31.5133C3.20851 31.5916 3.16058 31.6791 3.12946 31.7759L3.15446 31.7446C2.90255 31.7423 2.69626 31.8381 2.53559 32.0322H2.55435C2.40896 31.7549 2.17975 31.6132 1.86672 31.6071L1.87297 31.6196C1.9622 31.7886 2.09515 31.9097 2.27181 31.9827C2.44848 32.0557 2.62809 32.0639 2.81065 32.0071L2.8294 32.0009C3.03542 31.9367 3.18962 31.8096 3.29199 31.6196L3.31074 31.5883L3.342 31.5321L3.42951 31.4133L3.54829 31.2508L3.70457 31.0632L3.92336 30.8069L4.22342 30.4944L4.59849 30.1193L5.04857 29.7005L5.54867 29.2566L6.04251 28.8253L6.47384 28.469C6.47594 28.4669 6.47802 28.4648 6.48009 28.4627L6.82391 28.1752L7.06146 27.9751C7.07649 27.9631 7.09108 27.9506 7.10521 27.9376L7.20523 27.8376C7.37699 27.6952 7.47325 27.5129 7.494 27.2908C7.51475 27.0686 7.45392 26.8716 7.3115 26.6999C7.16909 26.5281 6.98681 26.4319 6.76465 26.4111C6.5425 26.3904 6.34555 26.4512 6.17379 26.5936L6.10502 26.6436C6.07169 26.6683 6.04044 26.6954 6.01126 26.7249L5.76746 26.9624C5.75684 26.9705 5.74642 26.9788 5.7362 26.9874L5.29862 27.4625C5.29654 27.4625 5.29445 27.4625 5.29237 27.4625L3.91711 28.9566L2.51684 30.4819C2.51263 30.486 2.50846 30.4901 2.50434 30.4944L2.09176 30.9632C2.06893 30.9909 2.04809 31.0201 2.02925 31.0507L1.84796 31.3195C1.73693 31.4905 1.70151 31.676 1.74169 31.8759L1.7542 31.9571C1.79029 32.1417 1.88666 32.2859 2.04329 32.3899C2.19992 32.494 2.37027 32.5268 2.55435 32.4885ZM8.09915 31.4133L7.91162 31.6946C7.7991 31.8655 7.82827 32.0072 7.99913 32.1197C8.17 32.2322 8.31169 32.203 8.42421 32.0322L8.61175 31.7508C8.72427 31.58 8.6951 31.4383 8.52423 31.3258C8.35337 31.2132 8.21167 31.2424 8.09915 31.4133Z" fill="black"/>
<path d="M24.0023 2.41396C24.0023 2.51408 24.0377 2.59954 24.1085 2.67034C24.1793 2.74113 24.2647 2.77653 24.3649 2.77653C24.465 2.77653 24.5504 2.74113 24.6212 2.67034C24.692 2.59954 24.7274 2.51408 24.7274 2.41396C24.7274 2.31384 24.692 2.22838 24.6212 2.15759C24.5504 2.08679 24.465 2.05139 24.3649 2.05139C24.2647 2.05139 24.1793 2.08679 24.1085 2.15759C24.0377 2.22838 24.0023 2.31384 24.0023 2.41396ZM24.4149 2.82654L24.5024 2.82029C24.5544 2.81572 24.6044 2.80321 24.6524 2.78278L24.8587 2.68902C24.8608 2.68903 24.8629 2.68903 24.865 2.68902L25.2588 2.52023C25.2651 2.51621 25.2714 2.51204 25.2775 2.50773L25.8026 2.25143C25.8047 2.25145 25.8068 2.25145 25.8089 2.25143L26.3652 1.96388C26.3715 1.96192 26.3778 1.95984 26.384 1.95763L26.8653 1.68883C26.8874 1.67594 26.9082 1.66135 26.9278 1.64507L27.1779 1.44503C27.2685 1.37307 27.3164 1.2793 27.3217 1.16373V1.13247C27.2572 1.03005 27.1667 0.995031 27.0501 1.02742C26.9335 1.05981 26.874 1.1365 26.8716 1.25749L26.8966 1.295C26.9883 1.43253 27.1029 1.45545 27.2404 1.36376C27.3779 1.27208 27.4009 1.15747 27.3092 1.01995L27.2967 1.00119L27.2904 0.988692C27.2115 0.816285 27.0781 0.743354 26.8903 0.7699L26.5715 0.807408C26.5191 0.813541 26.469 0.828127 26.4215 0.851166L25.9339 1.10121L25.3713 1.37001L24.8587 1.60756L24.4711 1.77634C24.4627 1.77821 24.4544 1.78029 24.4461 1.78259L24.2461 1.88261C24.1255 1.94044 24.0421 2.03212 23.996 2.15766L23.9648 2.23893C23.9387 2.30937 23.9313 2.38173 23.9425 2.456C23.9537 2.53027 23.9821 2.59722 24.0278 2.65685C24.0735 2.71647 24.1307 2.76137 24.1995 2.79152C24.2683 2.82168 24.3401 2.83335 24.4149 2.82654Z" fill="black"/>
<path d="M24.3773 2.39519C24.3773 2.49531 24.4127 2.58077 24.4834 2.65156C24.5542 2.72236 24.6397 2.75776 24.7398 2.75776C24.8399 2.75776 24.9254 2.72236 24.9962 2.65156C25.067 2.58077 25.1024 2.49531 25.1024 2.39519C25.1024 2.29507 25.067 2.20961 24.9962 2.13881C24.9254 2.06802 24.8399 2.03262 24.7398 2.03262C24.6397 2.03262 24.5542 2.06802 24.4834 2.13881C24.4127 2.20961 24.3773 2.29507 24.3773 2.39519ZM24.9399 2.74526L25.0836 2.67649C25.0921 2.67258 25.1004 2.66842 25.1086 2.66399L25.3587 2.53271C25.3671 2.52879 25.3755 2.52462 25.3837 2.52021L25.6963 2.32643C25.7207 2.31179 25.7436 2.29512 25.765 2.27642L26.0401 2.03887C26.0585 2.02172 26.0752 2.00296 26.0901 1.98261L26.2339 1.80133L26.4026 1.73256C26.5527 1.67005 26.5964 1.56378 26.5339 1.41375C26.4714 1.26372 26.3651 1.21996 26.2151 1.28248L26.0401 1.35124L25.7963 1.34499C25.7603 1.3443 25.7249 1.34847 25.69 1.35749L25.3337 1.44501C25.2823 1.45793 25.2344 1.47877 25.1899 1.50752L24.8774 1.70131C24.8575 1.7145 24.8388 1.72909 24.8211 1.74506L24.6023 1.92635C24.5791 1.94711 24.5582 1.97003 24.5398 1.99511L24.446 2.12014C24.3205 2.28929 24.323 2.45651 24.4536 2.62181C24.5841 2.78711 24.7462 2.82826 24.9399 2.74526Z" fill="black"/>
</g>
<defs>
<clipPath id="clip0_1_7341">
<rect width="29" height="35" fill="white"/>
</clipPath>
</defs>
</svg>
