<svg width="29" height="31" viewBox="0 0 29 31" fill="none" xmlns="http://www.w3.org/2000/svg">
<g clip-path="url(#clip0_1_7421)">
<path d="M0.902943 27.9976H0.909195L0.99046 27.9601C1.03379 27.941 1.07338 27.916 1.10923 27.8851L1.29052 27.7351L1.57182 27.51C1.57815 27.506 1.58441 27.5018 1.59057 27.4975L2.02191 27.1224C2.03481 27.1125 2.04731 27.1021 2.05941 27.0912L2.64077 26.4973C2.6429 26.4932 2.64499 26.489 2.64703 26.4848L3.45343 25.6284C3.45553 25.6263 3.45761 25.6242 3.45968 25.6221L4.45362 24.5407L5.61634 23.328L6.85408 22.0465L8.11682 20.7837L9.3483 19.5772L10.561 18.4708L11.7175 17.4456L12.8365 16.5079C12.8386 16.5058 12.8406 16.5038 12.8427 16.5017L13.8742 15.6202L14.7868 14.8513L15.5682 14.1825C15.5788 14.1765 15.5892 14.1703 15.5995 14.1637L16.1934 13.6011C16.2348 13.5622 16.2702 13.5185 16.2996 13.4698L16.5934 12.976C16.6221 12.9275 16.6409 12.8754 16.6497 12.8197L16.6934 12.5697L16.7872 12.4571C16.8445 12.3568 16.8297 12.2685 16.743 12.1922C16.6563 12.1159 16.5669 12.1126 16.4747 12.1821L16.3871 12.2759L16.1621 12.3009C16.1117 12.3072 16.0637 12.3218 16.0183 12.3446L15.4995 12.5947C15.4617 12.6139 15.4263 12.6369 15.3932 12.6634L14.7431 13.1573C14.7368 13.1613 14.7305 13.1655 14.7243 13.1698L13.9304 13.8199L12.999 14.57L11.9425 15.4265L10.8048 16.3579C10.8006 16.362 10.7964 16.3662 10.7923 16.3704L9.61085 17.3893C9.60663 17.3934 9.60247 17.3976 9.59835 17.4018L8.36061 18.5145C8.35849 18.5187 8.35641 18.5229 8.35436 18.527L7.08537 19.721C7.07906 19.7251 7.07281 19.7293 7.06662 19.7335L5.79762 20.99C5.79341 20.9941 5.78924 20.9983 5.78512 21.0025L4.54114 22.3028C4.53692 22.3069 4.53275 22.3111 4.52863 22.3153L3.39717 23.5593C3.39295 23.5634 3.38878 23.5675 3.38467 23.5718L2.40948 24.6845C2.40736 24.6886 2.40527 24.6928 2.40323 24.697L1.64683 25.5971C1.64471 25.6013 1.64262 25.6055 1.64058 25.6096L1.12174 26.2535C1.11535 26.2596 1.1091 26.2659 1.10298 26.2723L0.765417 26.7286C0.761126 26.7348 0.756958 26.741 0.752915 26.7474L0.546626 27.0537C0.544542 27.0537 0.542458 27.0537 0.540374 27.0537L0.409099 27.2537C0.378024 27.2977 0.355103 27.3457 0.340336 27.3975L0.315332 27.5038C0.305061 27.5363 0.29881 27.5697 0.296578 27.6038V27.635C0.293107 27.7926 0.359008 27.9118 0.494282 27.9927C0.629556 28.0736 0.765777 28.0752 0.902943 27.9976Z" fill="black"/>
<path d="M18.6001 5.88089C18.6225 6.02132 18.7048 6.09153 18.847 6.09153C18.9892 6.09153 19.0715 6.02132 19.0939 5.88089C19.0715 5.74047 18.9892 5.67026 18.847 5.67026C18.7048 5.67026 18.6225 5.74047 18.6001 5.88089ZM18.8501 5.61834L18.7313 5.60584C18.7188 5.60502 18.7063 5.60502 18.6938 5.60584L18.4313 5.61834C18.4208 5.61994 18.4103 5.62203 18.4 5.62459L18.0125 5.6746C17.9826 5.67785 17.9535 5.68411 17.9249 5.69336L17.4248 5.86214C17.383 5.87607 17.3434 5.89483 17.3061 5.9184L16.7935 6.24971C16.7572 6.2732 16.7239 6.30029 16.6935 6.33098L16.1871 6.83107C16.1543 6.86348 16.1251 6.8989 16.0996 6.93734L15.662 7.59997C15.635 7.63938 15.612 7.68105 15.5932 7.72499L15.2557 8.5439C15.2386 8.59062 15.2261 8.63855 15.2182 8.68768L15.0306 9.62536C15.0197 9.68532 15.0156 9.74575 15.0181 9.80664L15.0431 10.7943C15.046 10.8601 15.0565 10.9247 15.0744 10.9881L15.3369 11.9633C15.3637 12.0599 15.4053 12.1495 15.462 12.2321L16.0308 13.0698C16.086 13.1514 16.1527 13.2223 16.2309 13.2823L17.081 13.9324C17.143 13.9783 17.2097 14.0158 17.2811 14.0449L18.325 14.4888C18.3835 14.5138 18.4439 14.5326 18.5063 14.545L19.6565 14.7638C19.7081 14.7746 19.7602 14.7808 19.8128 14.7826L20.9943 14.8013C21.053 14.8028 21.1114 14.7986 21.1693 14.7888L22.2945 14.5951C22.3569 14.5827 22.4174 14.5639 22.4758 14.5388L23.4947 14.1325C23.5615 14.1046 23.624 14.0692 23.6823 14.0262L24.5637 13.3948C24.6187 13.3567 24.6687 13.313 24.7137 13.2635L25.4514 12.4321C25.495 12.3822 25.5325 12.328 25.5639 12.2696L26.114 11.2632C26.1421 11.2134 26.165 11.1613 26.1828 11.1069L26.5391 9.97542C26.5548 9.92226 26.5652 9.86809 26.5703 9.81289L26.7016 8.65642C26.7091 8.59183 26.7091 8.52723 26.7016 8.46263L26.5703 7.35617C26.561 7.28282 26.5423 7.21198 26.5141 7.14363L26.1077 6.15594C26.0816 6.08432 26.0462 6.01764 26.0015 5.95591L25.3388 5.112C25.2969 5.05807 25.249 5.01015 25.1951 4.96822L24.3074 4.28059C24.2605 4.24608 24.2105 4.21691 24.1574 4.19307L23.1072 3.68672C23.0608 3.66558 23.0129 3.64891 22.9634 3.63672L21.8132 3.33041C21.7721 3.31887 21.7305 3.31053 21.6882 3.3054L20.5504 3.18663C20.4983 3.18175 20.4463 3.18175 20.3942 3.18663L19.3377 3.27415C19.2395 3.28248 19.1457 3.30748 19.0564 3.34916L18.2312 3.73673C18.0158 3.83551 17.8803 4.00012 17.8249 4.23058L17.6811 4.83694L17.2998 5.36204C17.2323 5.47917 17.2534 5.57737 17.3628 5.65665C17.4723 5.73593 17.5722 5.72524 17.6624 5.62459L18.0125 5.15575L18.5626 5.13075C18.6067 5.13054 18.6505 5.12637 18.6938 5.11825L19.5315 4.93071L20.4567 4.8557L21.4569 4.94946L22.4758 5.20576L23.3822 5.63084L24.1136 6.19345L24.6262 6.86858L24.9325 7.64998L25.0263 8.55015L24.895 9.52534L24.5637 10.4943L24.0824 11.3319L23.4697 12.0008L22.7321 12.4947L21.8944 12.826L20.9505 12.9822L19.9316 12.9572L18.9564 12.7635L18.1 12.4009L17.4498 11.9133L17.006 11.2944L16.7247 10.5693L16.6497 9.78789L16.7372 8.98148L16.9435 8.25634L17.2373 7.64373L17.5811 7.14988L17.9624 6.77481L18.3375 6.44975L18.6188 6.25596L18.8126 6.1622L18.9064 6.13094C19.0446 6.08833 19.1058 5.99515 19.09 5.8514C19.0742 5.70765 18.9943 5.62996 18.8501 5.61834Z" fill="black"/>
<path d="M0.302814 27.2662C0.302814 27.3784 0.342484 27.4742 0.421825 27.5535C0.501165 27.6329 0.596937 27.6725 0.709142 27.6725C0.821346 27.6725 0.917118 27.6329 0.996458 27.5535C1.0758 27.4742 1.11547 27.3784 1.11547 27.2662C1.11547 27.154 1.0758 27.0582 0.996458 26.9789C0.917118 26.8995 0.821346 26.8599 0.709142 26.8599C0.596937 26.8599 0.501165 26.8995 0.421825 26.9789C0.342484 27.0582 0.302814 27.154 0.302814 27.2662ZM0.340321 26.8349L0.327819 26.8474C0.188841 26.9603 0.113827 27.1062 0.102776 27.285L0.096525 27.41C0.0947781 27.4371 0.0947781 27.4642 0.096525 27.4912L0.109027 27.685L0.12153 27.9601C0.12196 27.9873 0.124044 28.0144 0.127781 28.0413L0.184042 28.3664C0.194201 28.4226 0.210871 28.4768 0.234051 28.5289L0.390331 28.8853C0.423709 28.9569 0.467467 29.0215 0.521606 29.079L0.821663 29.4166C0.864161 29.4645 0.912087 29.5062 0.96544 29.5416L1.40302 29.8229C1.49462 29.8829 1.59464 29.9204 1.70308 29.9355L2.21568 30.0042C2.33823 30.022 2.45492 30.0032 2.56575 29.948L2.8283 29.8167L3.14085 29.8604C3.32403 29.8852 3.42811 29.806 3.45309 29.6229C3.47806 29.4397 3.39899 29.3355 3.21587 29.3103L2.93457 29.2728L2.76578 29.054C2.73488 29.0141 2.69946 28.9787 2.65951 28.9478L2.25319 28.629C2.24094 28.6202 2.22844 28.6119 2.21568 28.604L1.85936 28.3602L1.65307 28.1414L1.50929 27.9038L1.40927 27.6913L1.36552 27.5287L1.34676 27.3725C1.34485 27.3641 1.34277 27.3558 1.34051 27.3475L1.32176 27.2224C1.2852 27.0022 1.16435 26.848 0.959189 26.7599L0.934185 26.7474C0.718383 26.6554 0.520428 26.6846 0.340321 26.8349Z" fill="black"/>
<path d="M1.00283 27.8101C1.00283 27.9223 1.0425 28.018 1.12184 28.0974C1.20118 28.1767 1.29695 28.2164 1.40916 28.2164C1.52136 28.2164 1.61714 28.1767 1.69648 28.0974C1.77582 28.018 1.81549 27.9223 1.81549 27.8101C1.81549 27.6979 1.77582 27.6021 1.69648 27.5227C1.61714 27.4434 1.52136 27.4037 1.40916 27.4037C1.29695 27.4037 1.20118 27.4434 1.12184 27.5227C1.0425 27.6021 1.00283 27.6979 1.00283 27.8101ZM0.971576 27.8288C0.971632 27.9496 1.01438 28.0527 1.09982 28.1381C1.18525 28.2235 1.28837 28.2662 1.40916 28.2662C1.52995 28.2662 1.63307 28.2235 1.7185 28.1381C1.80394 28.0527 1.84668 27.9496 1.84674 27.8288C1.84669 27.708 1.80394 27.6049 1.7185 27.5195C1.63307 27.4341 1.52995 27.3915 1.40916 27.3915C1.28837 27.3915 1.18525 27.4341 1.09982 27.5195C1.01438 27.6049 0.971635 27.708 0.971576 27.8288ZM0.902813 27.7851L0.877808 27.9101C0.854497 28.025 0.862832 28.1375 0.902813 28.2476L0.984078 28.4727C1.00721 28.5335 1.03846 28.5897 1.07785 28.6415L1.27788 28.9165C1.29876 28.9453 1.32168 28.9724 1.34665 28.9978L1.6342 29.2853C1.6614 29.3127 1.69057 29.3377 1.72172 29.3604L2.07179 29.6167C2.09577 29.6349 2.12077 29.6515 2.1468 29.6667L2.51562 29.873C2.56132 29.8989 2.60924 29.9198 2.6594 29.9355L3.01571 30.048C3.07484 30.0659 3.13527 30.0764 3.197 30.0792L3.51581 30.0918C3.58967 30.0964 3.6626 30.0901 3.7346 30.073L4.02841 29.998C4.08962 29.9824 4.14797 29.9594 4.20344 29.9292L4.491 29.7729C4.54024 29.7467 4.58608 29.7154 4.62852 29.6792L4.95358 29.3979C4.96205 29.3918 4.97038 29.3855 4.97859 29.3791L5.43493 28.9478C5.44129 28.9416 5.44754 28.9354 5.45368 28.929L6.0663 28.3164C6.06839 28.3143 6.07047 28.3123 6.07255 28.3102L6.85395 27.5163L7.74161 26.6161L8.68554 25.6409C8.68764 25.6388 8.68972 25.6367 8.6918 25.6347L9.66698 24.6032C9.66908 24.6011 9.67116 24.5991 9.67323 24.597L10.6609 23.528C10.663 23.5259 10.6651 23.5238 10.6672 23.5218L11.6048 22.4716C11.6069 22.4716 11.609 22.4716 11.6111 22.4716L12.5113 21.4526L13.3802 20.4899L14.2178 19.621L14.9742 18.8584L15.6619 18.1957L16.287 17.5894L16.8433 17.0518C16.8497 17.0477 16.8559 17.0435 16.8621 17.0393L17.3184 16.5704C17.3271 16.5602 17.3354 16.5498 17.3434 16.5392L17.7123 16.1203C17.7187 16.1121 17.725 16.1038 17.731 16.0953L18.0186 15.7328C18.0228 15.7266 18.027 15.7203 18.0311 15.714L18.2561 15.4202C18.2671 15.406 18.2775 15.3914 18.2874 15.3765L18.4311 15.1514C18.4481 15.1213 18.4627 15.09 18.4749 15.0576L18.5312 14.9389C18.5963 14.7888 18.6065 14.635 18.5619 14.4777C18.5172 14.3203 18.4278 14.1948 18.2936 14.1012L18.2686 14.0825C18.1059 13.9687 17.9275 13.9323 17.7332 13.9731C17.539 14.014 17.3903 14.1192 17.2872 14.2887L17.2434 14.37C17.0881 14.6346 17.1083 14.885 17.3041 15.1213C17.4999 15.3575 17.7423 15.4238 18.0311 15.3202L18.1186 15.2889C17.9151 15.1223 17.69 15.0848 17.4435 15.1764L17.4685 15.1952C17.5926 14.8821 17.5238 14.6196 17.2622 14.4075L17.2372 14.47L17.1497 14.6076L16.9434 14.8701L16.6621 15.2139L16.3057 15.6077L15.8682 16.0578L15.3243 16.5829L14.6992 17.1705L13.9928 17.8207C13.9865 17.8247 13.9802 17.8289 13.9741 17.8332L13.1927 18.6021C13.1906 18.6041 13.1885 18.6062 13.1864 18.6083L12.33 19.4772C12.3236 19.4834 12.3174 19.4896 12.3112 19.496L11.4236 20.4587C11.4194 20.4607 11.4152 20.4628 11.4111 20.4649L10.5046 21.4776L9.56071 22.5153L8.57927 23.578L7.59784 24.5907L6.65391 25.5534L5.76624 26.4473L4.98484 27.2412L4.38473 27.8476L3.95964 28.2476L3.68459 28.4727L3.52206 28.5727L3.4533 28.5977L3.34703 28.5915L3.15949 28.5415L2.89694 28.3914L2.58438 28.1851L2.31558 27.9663L2.09679 27.7601L1.92801 27.5913C1.88869 27.5521 1.84493 27.5188 1.79673 27.4913L1.69046 27.4287C1.53268 27.3406 1.37146 27.3338 1.20681 27.4083C1.04216 27.4828 0.940824 27.6084 0.902813 27.7851ZM17.2747 14.8263C17.2747 14.9455 17.3168 15.0471 17.401 15.1313C17.4852 15.2156 17.5869 15.2577 17.706 15.2577C17.8251 15.2577 17.9268 15.2156 18.011 15.1313C18.0952 15.0471 18.1373 14.9455 18.1373 14.8263C18.1373 14.7072 18.0952 14.6056 18.011 14.5213C17.9268 14.4371 17.8251 14.395 17.706 14.395C17.5869 14.395 17.4852 14.4371 17.401 14.5213C17.3168 14.6056 17.2747 14.7072 17.2747 14.8263ZM17.406 14.8514L17.3309 14.9826C17.2626 15.1211 17.2959 15.228 17.4307 15.3033C17.5654 15.3786 17.6739 15.3509 17.756 15.2202L17.831 15.0889C17.8993 14.9504 17.8661 14.8435 17.7313 14.7682C17.5965 14.6929 17.4881 14.7206 17.406 14.8514Z" fill="black"/>
<path d="M19.419 4.85569C19.419 5.02239 19.5024 5.10574 19.6691 5.10574C19.8358 5.10574 19.9191 5.02239 19.9191 4.85569C19.9191 4.689 19.8358 4.60565 19.6691 4.60565C19.5024 4.60565 19.419 4.689 19.419 4.85569ZM19.7503 5.09324L19.7753 5.08074C19.9556 5.0154 20.009 4.89415 19.9357 4.717C19.8625 4.53986 19.7389 4.49183 19.5652 4.57292C19.3915 4.65401 19.349 4.77952 19.4378 4.94946L19.444 4.96822C19.5094 5.09996 19.6115 5.14164 19.7503 5.09324ZM19.9066 5.04323L19.9754 4.99947C20.0538 4.94364 20.1101 4.87071 20.1441 4.78068L20.1879 4.66191C20.2504 4.50185 20.242 4.34557 20.1629 4.19307L20.0816 4.03054C19.9998 3.87659 19.8747 3.77657 19.7066 3.73048L19.4815 3.66797C19.36 3.63382 19.2392 3.6359 19.119 3.67422L18.7189 3.80549C18.6462 3.82968 18.5795 3.8651 18.5188 3.91176L17.9375 4.34935C17.8959 4.38279 17.8584 4.42029 17.825 4.46187L17.1498 5.26202C17.1218 5.29532 17.0968 5.33075 17.0748 5.36829L16.4434 6.43725C16.4209 6.4772 16.4021 6.51887 16.3872 6.56227L15.9496 7.75625C15.9395 7.78278 15.9311 7.80987 15.9246 7.83751L15.6808 8.95648C15.6743 8.98321 15.6702 9.0103 15.6683 9.03774L15.6183 9.94416C15.618 9.9525 15.618 9.96083 15.6183 9.96917L15.6245 10.6193L15.6183 11.0319C15.6141 11.1819 15.687 11.259 15.8371 11.2632C15.9871 11.2673 16.0642 11.1944 16.0684 11.0444L16.0746 10.6505L16.2372 10.0754L16.5935 9.27529L17.1123 8.28135L17.7374 7.20614L18.3688 6.1872L18.9502 5.41205L19.3627 4.98072L19.4753 4.91196L19.5128 4.91821C19.4121 4.83795 19.2975 4.79419 19.169 4.78693L19.3002 4.88695L19.3815 4.96822C19.3836 4.96822 19.3857 4.96822 19.3878 4.96822L19.4503 5.02448C19.5974 5.15066 19.7496 5.15692 19.9066 5.04323Z" fill="black"/>
<path d="M18.5624 5.50581L18.5686 5.49331C18.603 5.42341 18.6051 5.35257 18.5749 5.28077L18.5624 5.24951C18.5487 5.21892 18.5299 5.19183 18.5061 5.16825L18.4561 5.11824C18.4521 5.11394 18.4479 5.10977 18.4436 5.10574L18.3499 5.02447C18.3499 5.02239 18.3499 5.0203 18.3499 5.01822L18.2186 4.91195C18.2126 4.90543 18.2063 4.89918 18.1998 4.8932L18.0185 4.76817C18.0028 4.75623 17.9861 4.74582 17.9685 4.73692L17.6997 4.61189C17.6875 4.60699 17.675 4.60282 17.6622 4.59939L17.2809 4.46811C17.2685 4.46541 17.256 4.46332 17.2434 4.46186L16.7495 4.35559C16.7413 4.35325 16.7329 4.35117 16.7245 4.34934L16.1557 4.26808C16.1515 4.26801 16.1473 4.26801 16.1432 4.26808L15.5681 4.19931C15.5618 4.19919 15.5556 4.19919 15.5493 4.19931L15.0242 4.15556C15.0159 4.15535 15.0075 4.15535 14.9992 4.15556L14.5804 4.1368C14.5658 4.13618 14.5512 4.13618 14.5366 4.1368L14.2553 4.15556C14.1455 4.1619 14.0475 4.19941 13.9615 4.26808L13.8615 4.34934C13.7071 4.47365 13.6425 4.6341 13.6677 4.83068L13.6927 5.01822C13.7046 5.10376 13.7338 5.18295 13.7802 5.25576L13.9803 5.57458C14.0073 5.61563 14.0385 5.65313 14.074 5.6871L14.4554 6.05592C14.4693 6.07118 14.4839 6.08576 14.4991 6.09968L14.9992 6.506C15.0153 6.51928 15.032 6.53179 15.0492 6.54351L15.6118 6.93108C15.6417 6.95027 15.673 6.96694 15.7056 6.98109L16.3057 7.2624C16.3515 7.28519 16.3994 7.30186 16.4495 7.31241L16.9808 7.41243C17.0284 7.4225 17.0763 7.42458 17.1246 7.41868L17.4434 7.36867L17.6747 7.45618C17.7997 7.4859 17.8831 7.44 17.9249 7.3185C17.9666 7.19699 17.9291 7.10953 17.8122 7.05611L17.5935 6.98109L17.4247 6.73105C17.4079 6.7084 17.3892 6.68756 17.3684 6.66853L16.9808 6.28721C16.9593 6.26676 16.9364 6.248 16.9121 6.23095L16.3745 5.84338L15.8306 5.4558L15.3555 5.06823L14.9555 4.72441C14.9513 4.72019 14.9472 4.71602 14.943 4.71191L14.6804 4.49312L14.5679 4.3806C14.4683 4.4856 14.4198 4.61043 14.4222 4.7551C14.4246 4.89976 14.4774 5.02289 14.5804 5.12449L14.6679 5.03072C14.5344 5.04134 14.4219 5.09551 14.3303 5.19325L14.5804 5.1745L14.9742 5.18075C14.9784 5.18081 14.9825 5.18081 14.9867 5.18075L15.5181 5.1745H16.0932L16.6495 5.18075L17.1309 5.20575L17.4809 5.24951L17.706 5.33078L17.8873 5.41204L18.0123 5.48081L18.0936 5.53707C18.1015 5.54378 18.1099 5.55003 18.1186 5.55582L18.1811 5.58708C18.189 5.59381 18.1974 5.60007 18.2061 5.60583L18.2373 5.61833C18.2093 5.56011 18.1656 5.51844 18.1061 5.49331L18.1123 5.50581C18.1578 5.59985 18.2329 5.64687 18.3373 5.64687C18.4418 5.64686 18.5168 5.59985 18.5624 5.50581Z" fill="black"/>
<path d="M16.0495 9.52529C16.0495 9.72116 16.1474 9.81909 16.3433 9.81909C16.5392 9.81909 16.6371 9.72116 16.6371 9.52529C16.6371 9.32941 16.5392 9.23148 16.3433 9.23148C16.1474 9.23148 16.0495 9.32941 16.0495 9.52529ZM16.0432 9.52529C16.0432 9.72532 16.1433 9.82534 16.3433 9.82534C16.5433 9.82534 16.6434 9.72532 16.6434 9.52529C16.6434 9.32525 16.5433 9.22523 16.3433 9.22523C16.1433 9.22523 16.0432 9.32525 16.0432 9.52529ZM15.9432 9.51278C15.9432 9.61463 15.9792 9.70156 16.0512 9.77358C16.1233 9.8456 16.2102 9.8816 16.312 9.8816C16.4139 9.8816 16.5008 9.8456 16.5728 9.77358C16.6449 9.70156 16.6809 9.61463 16.6809 9.51278C16.6809 9.41094 16.6449 9.324 16.5728 9.25199C16.5008 9.17997 16.4139 9.14396 16.312 9.14396C16.2102 9.14396 16.1233 9.17997 16.0512 9.25199C15.9792 9.324 15.9432 9.41094 15.9432 9.51278ZM16.2308 9.03144H16.037C15.9882 9.03085 15.9402 9.0371 15.8932 9.0502L15.5119 9.15647C15.4861 9.16507 15.4611 9.17549 15.4369 9.18772L14.9118 9.41902C14.8968 9.42674 14.8823 9.43507 14.868 9.44402L14.2742 9.78158C14.2657 9.78556 14.2574 9.78973 14.2491 9.79409L13.6865 10.1379C13.678 10.1439 13.6697 10.1502 13.6615 10.1567L13.2177 10.4692C13.205 10.475 13.1925 10.4813 13.1802 10.488L12.8864 10.7193C12.8404 10.7572 12.8008 10.801 12.7676 10.8505L12.6676 10.9943C12.5615 11.1498 12.5338 11.3182 12.5845 11.4995C12.6352 11.6808 12.7462 11.8104 12.9176 11.8882L12.9989 11.9257C13.1192 11.9813 13.2442 11.9959 13.374 11.9695L13.6115 11.9132C13.6413 11.9071 13.6705 11.8988 13.699 11.8882L14.1054 11.7382C14.1202 11.7325 14.1348 11.7263 14.1491 11.7195L14.6992 11.4569C14.7141 11.4512 14.7287 11.445 14.743 11.4381L15.3931 11.0631C15.4506 11.0304 15.5007 10.9887 15.5431 10.9381L15.9495 10.4442L16.4996 10.1879C16.6329 10.1254 16.6684 10.0275 16.6058 9.89411C16.5433 9.76075 16.4454 9.72532 16.312 9.78784L15.7619 10.0441L15.1181 10.0379C15.049 10.0378 14.9824 10.0503 14.918 10.0754L14.2241 10.3567C14.2158 10.3586 14.2074 10.3607 14.1991 10.3629L13.649 10.6067L13.3115 10.7443L13.1302 10.7818C13.2504 10.8373 13.3755 10.8519 13.5053 10.8255L13.4302 10.788C13.3117 10.941 13.2749 11.1116 13.3197 11.2999C13.3645 11.4881 13.4743 11.6238 13.649 11.707L13.7053 11.6319L13.9178 11.4632L14.3429 11.1756L14.893 10.8318L15.4744 10.4817L15.962 10.1817L16.262 10.0004L16.4058 9.94412C16.642 9.84442 16.7359 9.6687 16.6876 9.41695C16.6393 9.1652 16.4871 9.0367 16.2308 9.03144Z" fill="black"/>
<path d="M18.375 13.4948C18.375 13.7074 18.4812 13.8137 18.6938 13.8137C18.9063 13.8137 19.0126 13.7074 19.0126 13.4948C19.0126 13.2823 18.9063 13.176 18.6938 13.176C18.4812 13.176 18.375 13.2823 18.375 13.4948ZM18.3625 13.5011C18.3625 13.5926 18.3948 13.6707 18.4595 13.7354C18.5242 13.8001 18.6023 13.8324 18.6938 13.8324C18.7853 13.8324 18.8634 13.8001 18.9281 13.7354C18.9928 13.6707 19.0251 13.5926 19.0251 13.5011C19.0251 13.4096 18.9928 13.3315 18.9281 13.2668C18.8634 13.2021 18.7853 13.1698 18.6938 13.1698C18.6023 13.1698 18.5242 13.2021 18.4595 13.2668C18.3948 13.3315 18.3625 13.4096 18.3625 13.5011ZM18.2187 13.5386C18.2187 13.6663 18.2639 13.7754 18.3542 13.8657C18.4445 13.956 18.5535 14.0012 18.6813 14.0012C18.809 14.0012 18.9181 13.956 19.0084 13.8657C19.0987 13.7754 19.1439 13.6663 19.1439 13.5386C19.1439 13.4109 19.0987 13.3018 19.0084 13.2115C18.9181 13.1212 18.809 13.076 18.6813 13.076C18.5535 13.076 18.4445 13.1212 18.3542 13.2115C18.2639 13.3018 18.2187 13.4109 18.2187 13.5386ZM18.0874 13.4448L18.0062 13.6761C17.9888 13.7206 17.9763 13.7665 17.9686 13.8137L17.9124 14.245C17.91 14.2574 17.9079 14.2699 17.9061 14.2825L17.8624 14.8639C17.86 14.8763 17.8579 14.8888 17.8561 14.9014L17.8374 15.564C17.8358 15.5911 17.8358 15.6182 17.8374 15.6452L17.8999 16.3016C17.9024 16.329 17.9066 16.3561 17.9124 16.3829L18.0374 16.9517C18.0422 16.9771 18.0485 17.0021 18.0562 17.0268L18.2124 17.4768C18.2259 17.5138 18.2426 17.5492 18.2625 17.5831L18.4312 17.8832C18.477 17.9649 18.5374 18.0336 18.6125 18.0895L18.7876 18.2207C18.978 18.3616 19.1843 18.3908 19.4064 18.3083L19.594 18.2395C19.7111 18.1946 19.807 18.1217 19.8815 18.0207L20.0816 17.7644C20.1003 17.7386 20.1169 17.7115 20.1316 17.6831L20.3816 17.2268C20.3905 17.2126 20.3989 17.198 20.4066 17.183L20.6754 16.5829C20.68 16.5706 20.6842 16.5581 20.6879 16.5454L20.938 15.8765C20.9404 15.8662 20.9425 15.8558 20.9442 15.8453L21.138 15.2139L21.3318 14.7076C21.3365 14.6974 21.3407 14.687 21.3443 14.6763L21.4381 14.3262L21.5506 14.1325C21.6081 14.0083 21.5777 13.9119 21.4594 13.8432C21.3411 13.7746 21.2423 13.796 21.163 13.9074L21.0505 14.1075L20.8004 14.3888C20.7938 14.3968 20.7875 14.4051 20.7817 14.4138L20.4691 14.8639L20.0628 15.3952C20.0585 15.4014 20.0543 15.4076 20.0503 15.414L19.644 16.0016C19.635 16.0158 19.6267 16.0304 19.619 16.0453L19.2876 16.6079L19.0564 17.008L19.0063 17.0643H19.0001C19.1731 17.1974 19.3648 17.2349 19.5752 17.1768L19.5064 17.1268L19.4377 17.0018L19.3252 16.6642L19.2501 16.1703L19.2251 15.5765L19.2439 14.9514L19.2814 14.3825L19.3064 13.9512C19.3095 13.903 19.3074 13.8551 19.3002 13.8074L19.2626 13.5574C19.2195 13.24 19.0384 13.066 18.7196 13.0355C18.4008 13.005 18.19 13.1414 18.0874 13.4448Z" fill="black"/>
<path d="M23.0633 14.0074C23.0633 14.1991 23.1591 14.295 23.3508 14.295C23.5425 14.295 23.6384 14.1991 23.6384 14.0074C23.6384 13.8157 23.5425 13.7199 23.3508 13.7199C23.1591 13.7199 23.0633 13.8157 23.0633 14.0074ZM22.9883 14.0137C22.9883 14.1103 23.0224 14.1929 23.0908 14.2612C23.1591 14.3296 23.2417 14.3637 23.3383 14.3637C23.435 14.3637 23.5175 14.3296 23.5859 14.2612C23.6542 14.1929 23.6884 14.1103 23.6884 14.0137C23.6884 13.917 23.6542 13.8345 23.5859 13.7661C23.5175 13.6978 23.435 13.6636 23.3383 13.6636C23.2417 13.6636 23.1591 13.6978 23.0908 13.7661C23.0224 13.8345 22.9883 13.917 22.9883 14.0137ZM22.932 13.8386L22.9007 13.9012C22.8297 14.0481 22.8276 14.1961 22.8945 14.345L22.9883 14.5575C23.0019 14.5904 23.0186 14.6217 23.0383 14.6513L23.2696 14.9764C23.2776 14.985 23.286 14.9933 23.2946 15.0014L23.6196 15.4077C23.6257 15.4162 23.6319 15.4245 23.6384 15.4327L24.0197 15.8515C24.0238 15.8558 24.028 15.8599 24.0322 15.864L24.3948 16.2454C24.4067 16.2584 24.4192 16.2709 24.4323 16.2829L24.7761 16.5829C24.8016 16.604 24.8286 16.6228 24.8574 16.6392L25.1449 16.8142C25.1994 16.8469 25.2578 16.8698 25.32 16.883L25.545 16.933C25.6916 16.9644 25.8291 16.9415 25.9576 16.8642L26.1076 16.7705C26.232 16.6964 26.3153 16.5901 26.3577 16.4516L26.4264 16.2204C26.4503 16.1471 26.4587 16.0721 26.4514 15.9953L26.4077 15.6202C26.4041 15.5884 26.3979 15.5572 26.3889 15.5265L26.2451 15.0451C26.2399 15.026 26.2336 15.0073 26.2264 14.9889L26.0013 14.4513C25.9994 14.4429 25.9974 14.4345 25.9951 14.4263L25.7513 13.9074C25.7473 13.9011 25.7431 13.8948 25.7388 13.8887L25.52 13.4573C25.504 13.4264 25.4853 13.3972 25.4637 13.3698L25.2449 13.0948C25.1472 12.9721 25.0201 12.9158 24.8636 12.926H24.8136C24.8134 13.0807 24.8905 13.1536 25.0449 13.1448V13.001C25.0449 12.8551 24.972 12.7822 24.8261 12.7822C24.6803 12.7822 24.6073 12.8551 24.6073 13.001V13.1448C24.6862 13.1042 24.7258 13.0396 24.7261 12.951L24.6823 12.9697C24.4804 13.0725 24.4013 13.235 24.4448 13.4573L24.5073 13.8011C24.5166 13.8536 24.5333 13.9036 24.5573 13.9512L24.7699 14.3762L25.0011 14.8763L25.2012 15.3702L25.3137 15.7828L25.3325 15.9891L25.2887 16.1078C25.4233 16.0386 25.515 15.9323 25.5638 15.789L25.4012 15.8703C25.5357 15.9028 25.6649 15.8883 25.7888 15.8265L25.6575 15.7953L25.4887 15.689L25.2012 15.439L24.8511 15.0826L24.4823 14.6763L24.1572 14.295L23.9259 13.9949L23.7884 13.8199C23.7254 13.7349 23.6441 13.6745 23.5446 13.6386L23.4821 13.6199C23.2351 13.5327 23.0517 13.6056 22.932 13.8386Z" fill="black"/>
<path d="M26.4451 7.65621L26.4513 7.64996C26.573 7.52578 26.5722 7.40244 26.4488 7.27993C26.3255 7.15742 26.2021 7.15742 26.0788 7.27993C25.9554 7.40244 25.9546 7.52578 26.0763 7.64996L26.0825 7.65621C26.2034 7.77714 26.3242 7.77714 26.4451 7.65621ZM25.9825 7.45617C25.9825 7.6437 26.0763 7.73747 26.2638 7.73747C26.4513 7.73747 26.5451 7.6437 26.5451 7.45617C26.5451 7.26863 26.4513 7.17487 26.2638 7.17487C26.0763 7.17487 25.9825 7.26863 25.9825 7.45617ZM25.9637 7.43116C25.9637 7.63954 26.0679 7.74372 26.2763 7.74372C26.4847 7.74372 26.5889 7.63954 26.5889 7.43116C26.5889 7.22279 26.4847 7.1186 26.2763 7.1186C26.0679 7.1186 25.9637 7.22279 25.9637 7.43116ZM26.0575 7.66246L26.12 7.73122C26.1442 7.75761 26.1713 7.78053 26.2013 7.79998L26.3576 7.9C26.3677 7.9067 26.3781 7.91295 26.3888 7.91876L26.6264 8.05003C26.6406 8.05708 26.6552 8.06333 26.6701 8.06879L26.9827 8.20006C26.991 8.20239 26.9993 8.20447 27.0077 8.20631L27.3265 8.31883L27.5703 8.4001L27.6453 8.45636L27.6328 8.43135V8.45011L27.6141 8.55638L27.564 8.67515L27.4953 8.78142L27.3328 8.9252C27.3307 8.92519 27.3286 8.92519 27.3265 8.9252L27.1202 9.11899C27.1027 9.13261 27.086 9.14719 27.0702 9.16274L26.9014 9.35028C26.7773 9.49222 26.7377 9.65475 26.7826 9.83787L26.8014 9.93789C26.9229 9.84519 26.9667 9.72433 26.9327 9.57532L26.8139 9.66909C26.7365 9.72958 26.6917 9.80858 26.6796 9.9061C26.6675 10.0036 26.6916 10.0912 26.752 10.1687C26.8123 10.2463 26.8912 10.2912 26.9887 10.3035C27.0862 10.3158 27.1738 10.2919 27.2515 10.2317L27.3703 10.1379C27.2498 10.0976 27.1394 10.1164 27.0389 10.1942L27.139 10.2254C27.3053 10.2801 27.4616 10.2592 27.6078 10.1629L27.8203 10.0254C27.8517 10.0053 27.8809 9.9824 27.9079 9.95665L28.1079 9.75661C28.1258 9.73896 28.1425 9.72021 28.1579 9.70035L28.3267 9.4753C28.3402 9.45935 28.3527 9.44268 28.3642 9.42529L28.4955 9.2065C28.5127 9.17866 28.5273 9.14949 28.5392 9.11899L28.6267 8.88769C28.6387 8.85313 28.6471 8.81771 28.6518 8.78142L28.683 8.55013C28.6926 8.48053 28.6885 8.41176 28.6705 8.34384L28.6205 8.13755C28.5955 8.03916 28.5455 7.95581 28.4705 7.8875L28.3204 7.74998C28.273 7.70568 28.2188 7.67234 28.1579 7.64996L27.9266 7.56869C27.9163 7.56414 27.9059 7.55997 27.8954 7.55619L27.6078 7.47492L27.3015 7.36865L27.0139 7.25613L26.7826 7.14361C26.7744 7.14128 26.766 7.13919 26.7576 7.13736L26.5826 7.06234C26.4992 7.02856 26.4138 7.0223 26.3263 7.04359L26.2325 7.0686C26.1715 7.0849 26.1183 7.11512 26.073 7.15924C26.0277 7.20337 25.9962 7.25575 25.9783 7.31639C25.9604 7.37702 25.9585 7.43816 25.9726 7.49978C25.9868 7.5614 26.015 7.61563 26.0575 7.66246Z" fill="black"/>
<path d="M20.9128 3.03033H20.9065C20.8297 3.06373 20.7835 3.12158 20.7679 3.20387C20.7522 3.28616 20.774 3.35692 20.8333 3.41615C20.8925 3.47538 20.9633 3.49718 21.0456 3.48156C21.1278 3.46593 21.1857 3.41971 21.2191 3.34289V3.33664C21.2633 3.23934 21.2477 3.1529 21.1721 3.07732C21.0965 3.00173 21.0101 2.98607 20.9128 3.03033ZM20.7252 3.26163C20.7252 3.43666 20.8128 3.52418 20.9878 3.52418C21.1628 3.52418 21.2503 3.43666 21.2503 3.26163C21.2503 3.0866 21.1628 2.99908 20.9878 2.99908C20.8128 2.99908 20.7252 3.0866 20.7252 3.26163ZM20.6877 3.26163C20.6877 3.45333 20.7836 3.54918 20.9753 3.54918C21.167 3.54918 21.2628 3.45333 21.2628 3.26163C21.2628 3.06993 21.167 2.97407 20.9753 2.97407C20.7836 2.97407 20.6877 3.06993 20.6877 3.26163ZM21.2941 3.38665L21.3754 3.24913C21.3852 3.23104 21.3935 3.21228 21.4004 3.19287L21.5004 2.89906L21.6567 2.49898L21.8755 2.02389L22.113 1.5488L22.3506 1.14873L22.5193 0.917433L22.6506 0.84867C22.5183 0.680039 22.3578 0.6467 22.1693 0.748651H22.1755L22.1818 0.892428L22.1505 1.33626L22.088 1.89262C22.0879 1.89887 22.0879 1.90512 22.088 1.91137L22.0442 2.46773C22.0412 2.49898 22.0412 2.53024 22.0442 2.5615L22.1005 3.03659C22.1037 3.07322 22.112 3.10864 22.1255 3.14286L22.2505 3.42416V3.65545C22.2505 3.78881 22.3172 3.85549 22.4506 3.85549C22.5839 3.85549 22.6506 3.78881 22.6506 3.65545V3.43666L22.8006 3.18661C22.8133 3.16473 22.8238 3.14181 22.8319 3.11785L22.9944 2.66777C23.0038 2.63713 23.01 2.60587 23.0132 2.574L23.0944 2.02389C23.097 2.01147 23.0991 1.99897 23.1007 1.98639L23.1382 1.41128C23.1388 1.39669 23.1388 1.3821 23.1382 1.36752L23.132 0.879926C23.1293 0.837122 23.1209 0.795448 23.1069 0.754902L23.0194 0.461096C22.9656 0.283406 22.8469 0.181303 22.6631 0.154788L22.5193 0.136034C22.392 0.118783 22.2837 0.15629 22.1943 0.248555L22.038 0.411086C22.0267 0.422848 22.0163 0.43535 22.0067 0.448593L21.7817 0.761153C21.7794 0.767344 21.7773 0.773595 21.7754 0.779907L21.5129 1.19249C21.5085 1.1986 21.5044 1.20485 21.5004 1.21124L21.2316 1.69258C21.2316 1.69466 21.2316 1.69675 21.2316 1.69883L20.9815 2.17392C20.9772 2.18005 20.973 2.1863 20.969 2.19268L20.7815 2.599C20.779 2.60934 20.7769 2.61975 20.7753 2.63026L20.6627 2.93032C20.6503 2.96893 20.644 3.00852 20.644 3.04909L20.6377 3.20537C20.6313 3.38942 20.7169 3.50597 20.8944 3.555C21.0719 3.60402 21.2051 3.54791 21.2941 3.38665Z" fill="black"/>
<path d="M24.1136 4.51184C24.1136 4.67437 24.1948 4.75563 24.3574 4.75563C24.5199 4.75563 24.6012 4.67437 24.6012 4.51184C24.6012 4.3493 24.5199 4.26804 24.3574 4.26804C24.1948 4.26804 24.1136 4.3493 24.1136 4.51184ZM24.0698 4.51184C24.0698 4.69937 24.1636 4.79314 24.3511 4.79314C24.5387 4.79314 24.6324 4.69937 24.6324 4.51184C24.6324 4.3243 24.5387 4.23053 24.3511 4.23053C24.1636 4.23053 24.0698 4.3243 24.0698 4.51184ZM24.3511 4.85565H24.3761C24.465 4.85289 24.5442 4.82371 24.6137 4.76813L24.7199 4.68687L24.9387 4.54934L25.3013 4.34305L25.7576 4.08675C25.7597 4.08675 25.7618 4.08675 25.7639 4.08675L26.2327 3.81795L26.6016 3.61791L26.7391 3.58666L26.7516 3.59291C26.8064 3.31478 26.7022 3.12308 26.439 3.0178L26.4203 3.13032L26.289 3.39912C26.289 3.40121 26.289 3.40329 26.289 3.40537L26.0952 3.81795C26.0638 3.88534 26.0472 3.95619 26.0452 4.03049L26.0389 4.40556L25.9827 4.71187L25.8577 4.94942C25.7952 5.07025 25.8244 5.1619 25.9452 5.22438C26.066 5.28686 26.1577 5.25772 26.2202 5.13695L26.339 4.90566L26.564 4.69312L26.8766 4.49308C26.9403 4.45008 26.9924 4.3959 27.0329 4.33055L27.2829 3.94923C27.3033 3.91553 27.32 3.88011 27.3329 3.84296L27.458 3.49914C27.4948 3.40149 27.5031 3.30148 27.483 3.19909L27.4517 3.0178C27.4238 2.87409 27.3482 2.76278 27.2249 2.68386C27.1015 2.60494 26.9688 2.5829 26.8266 2.61772L26.6641 2.66148C26.6103 2.6734 26.5603 2.69423 26.514 2.72399L26.239 2.90528L25.8514 3.14908L25.3888 3.40537L24.9262 3.64917C24.9242 3.64917 24.9221 3.64917 24.92 3.64917L24.5449 3.84921C24.5364 3.85308 24.5281 3.85725 24.5199 3.86171L24.2761 4.01799C24.2631 4.02562 24.2506 4.03396 24.2386 4.043L24.1136 4.14301C23.9378 4.28365 23.9044 4.45244 24.0136 4.64936L24.0261 4.67437C24.0974 4.80115 24.2058 4.86158 24.3511 4.85565Z" fill="black"/>
<path d="M20.1817 8.3501C20.1817 8.53346 20.2734 8.62515 20.4567 8.62515C20.6401 8.62515 20.7318 8.53346 20.7318 8.3501C20.7318 8.16673 20.6401 8.07504 20.4567 8.07504C20.2734 8.07504 20.1817 8.16673 20.1817 8.3501ZM20.713 8.53138L20.738 8.49387C20.7446 8.48581 20.7509 8.47748 20.7568 8.46887L20.813 8.36885C20.8223 8.35477 20.8306 8.34019 20.838 8.32509L20.9318 8.12505C20.9318 8.12297 20.9318 8.12089 20.9318 8.1188L21.0568 7.8375L21.2569 7.47493L21.5194 7.07485L21.7882 6.71854L21.9945 6.5185L22.1383 6.43098C21.9692 6.35009 21.8045 6.35843 21.6445 6.45599L21.7445 6.506C21.706 6.33174 21.606 6.20672 21.4444 6.13092L21.4757 6.28095L21.5007 6.556C21.5026 6.56229 21.5047 6.56855 21.5069 6.57476L21.5632 6.96233C21.5644 6.97911 21.5665 6.99578 21.5694 7.01234L21.6632 7.38741L21.707 7.78124L21.732 8.1188L21.7132 8.3626C21.7284 8.47439 21.7922 8.53539 21.9046 8.54561C22.0169 8.55582 22.0907 8.50732 22.1258 8.40011L22.1508 8.15631L22.2446 7.83125C22.2467 7.8292 22.2488 7.82711 22.2508 7.825L22.3508 7.42492L22.4821 7.04985C22.4904 7.02535 22.4967 7.00035 22.5009 6.97483L22.5696 6.59351C22.5752 6.5583 22.5773 6.52287 22.5759 6.48724L22.5696 6.18093C22.5689 6.12763 22.5605 6.07553 22.5446 6.02465L22.4821 5.84337C22.4032 5.60128 22.2365 5.47625 21.982 5.4683H21.8757C21.7116 5.46444 21.5762 5.52487 21.4694 5.64958L21.3256 5.81211C21.3121 5.82798 21.2996 5.84465 21.2881 5.86212L21.0818 6.17468L20.8068 6.58101C20.8047 6.58307 20.8026 6.58516 20.8005 6.58726L20.5192 7.01234C20.5148 7.02054 20.5106 7.02888 20.5067 7.03735L20.2817 7.43117C20.2748 7.44337 20.2686 7.45588 20.2629 7.46868L20.1317 7.76874C20.1203 7.79704 20.1119 7.82621 20.1067 7.85625L20.0566 8.07504C20.0416 8.15184 20.0478 8.22685 20.0754 8.30009L20.1129 8.40636C20.1254 8.43791 20.1421 8.46708 20.1629 8.49387L20.1879 8.53138C20.2528 8.62032 20.3404 8.66478 20.4505 8.66478C20.5606 8.66478 20.6481 8.62032 20.713 8.53138Z" fill="black"/>
<path d="M22.5445 9.23147V9.24397C22.5812 9.32807 22.644 9.38143 22.7329 9.40406C22.8218 9.4267 22.9025 9.40986 22.9749 9.35355C23.0474 9.29724 23.0836 9.2232 23.0836 9.13145C23.0836 9.0397 23.0474 8.96567 22.9749 8.90936C22.9025 8.85305 22.8218 8.83621 22.7329 8.85884C22.644 8.88148 22.5812 8.93484 22.5445 9.01893V9.03143C22.517 9.09811 22.517 9.16479 22.5445 9.23147ZM22.707 9.46277L22.7945 9.50027C22.8602 9.52949 22.929 9.54199 23.0008 9.53778L23.2196 9.52528C23.2343 9.52387 23.2489 9.52179 23.2634 9.51903L23.5759 9.46902L23.8947 9.43151L24.1885 9.42526L24.4386 9.45026L24.6074 9.48777L24.6574 9.50652L24.6761 9.53153C24.7599 9.35055 24.7307 9.19011 24.5886 9.05019L24.5636 9.1002C24.7589 9.10346 24.8964 9.01595 24.9762 8.83765H24.9074L24.8512 8.8314L24.7261 8.78764C24.7117 8.7829 24.6971 8.77874 24.6824 8.77513L24.4636 8.71262C24.4409 8.7072 24.418 8.70303 24.3948 8.70012L24.1635 8.66261C24.1511 8.66016 24.1386 8.65808 24.126 8.65636L23.926 8.63761C23.8989 8.63591 23.8718 8.63591 23.8447 8.63761H23.7009C23.4544 8.64492 23.2731 8.75744 23.1571 8.97517L23.1446 9.00018C23.0871 9.11064 23.0683 9.22733 23.0883 9.35024V9.37525C23.135 9.66799 23.3038 9.84302 23.5947 9.90035L23.7322 9.92535C23.7549 9.93075 23.7778 9.93492 23.801 9.93786L24.001 9.95661C24.0198 9.95742 24.0385 9.95742 24.0573 9.95661L24.2886 9.96286C24.3243 9.96168 24.3598 9.95751 24.3948 9.95036L24.6199 9.9191C24.6675 9.91019 24.7134 9.8956 24.7574 9.87534L24.9199 9.80658L25.0512 9.75657C25.1017 9.7373 25.1475 9.71021 25.1887 9.67531L25.2512 9.6253C25.3875 9.51152 25.4375 9.36775 25.4013 9.19396L25.395 9.1377C25.3745 9.04196 25.3265 8.96278 25.2512 8.90016L25.1762 8.83765C25.1533 8.81612 25.1283 8.79736 25.1012 8.78139L24.9387 8.70012L24.7261 8.58135C24.6826 8.55952 24.6368 8.54494 24.5886 8.53759L24.3011 8.48133C24.2741 8.47691 24.2471 8.47483 24.2198 8.47508L23.8697 8.46883C23.8488 8.46955 23.8279 8.47163 23.8072 8.47508L23.4509 8.51884C23.4404 8.52057 23.43 8.52266 23.4196 8.52509L23.1008 8.58135C23.0753 8.58556 23.0503 8.59181 23.0258 8.6001L22.8258 8.67512C22.7577 8.70039 22.6994 8.73998 22.6507 8.79389L22.582 8.8689C22.4965 8.96342 22.467 9.07301 22.4932 9.19769C22.5194 9.32236 22.5907 9.41072 22.707 9.46277ZM23.2634 9.27523C23.2634 9.37535 23.2988 9.46081 23.3696 9.5316C23.4404 9.6024 23.5258 9.6378 23.6259 9.6378C23.7261 9.6378 23.8115 9.6024 23.8823 9.5316C23.9531 9.46081 23.9885 9.37535 23.9885 9.27523C23.9885 9.17511 23.9531 9.08965 23.8823 9.01885C23.8115 8.94806 23.7261 8.91266 23.6259 8.91266C23.5258 8.91266 23.4404 8.94806 23.3696 9.01885C23.2988 9.08965 23.2634 9.17511 23.2634 9.27523ZM23.4759 9.43151L23.5134 9.48777C23.5956 9.58654 23.6898 9.59986 23.7961 9.52771C23.9025 9.45557 23.9249 9.36307 23.8635 9.25023L23.826 9.19396C23.7438 9.09519 23.6496 9.08187 23.5432 9.15402C23.4369 9.22616 23.4145 9.31866 23.4759 9.43151Z" fill="black"/>
<path d="M18.9187 10.213C18.9187 10.4047 19.0145 10.5005 19.2062 10.5005C19.3979 10.5005 19.4938 10.4047 19.4938 10.213C19.4938 10.0213 19.3979 9.92543 19.2062 9.92543C19.0145 9.92543 18.9187 10.0213 18.9187 10.213ZM18.8749 10.213C18.8749 10.4297 18.9833 10.5381 19.2 10.5381C19.4167 10.5381 19.5251 10.4297 19.5251 10.213C19.5251 9.99628 19.4167 9.88793 19.2 9.88793C18.9833 9.88793 18.8749 9.99628 18.8749 10.213ZM18.7312 10.2067C18.7312 10.3241 18.7727 10.4243 18.8557 10.5073C18.9387 10.5903 19.0388 10.6318 19.1562 10.6318C19.2736 10.6318 19.3738 10.5903 19.4568 10.5073C19.5398 10.4243 19.5813 10.3241 19.5813 10.2067C19.5813 10.0894 19.5398 9.98916 19.4568 9.90616C19.3738 9.82316 19.2736 9.78166 19.1562 9.78166C19.0388 9.78166 18.9387 9.82316 18.8557 9.90616C18.7727 9.98916 18.7312 10.0894 18.7312 10.2067ZM18.6874 10.2067C18.6874 10.331 18.7313 10.4371 18.8192 10.525C18.9071 10.6129 19.0132 10.6568 19.1375 10.6568C19.2618 10.6568 19.3679 10.6129 19.4557 10.525C19.5436 10.4371 19.5876 10.331 19.5876 10.2067C19.5876 10.0824 19.5436 9.97636 19.4557 9.88848C19.3679 9.80059 19.2618 9.75665 19.1375 9.75665C19.0132 9.75665 18.9071 9.80059 18.8192 9.88848C18.7313 9.97636 18.6874 10.0824 18.6874 10.2067ZM19 9.73165L18.7812 9.78166C18.749 9.78932 18.7177 9.79974 18.6874 9.81291L18.4624 9.90668C18.4496 9.91247 18.4371 9.91872 18.4248 9.92543L18.1685 10.0505C18.16 10.0565 18.1517 10.0627 18.1435 10.0692L17.881 10.2192C17.8544 10.2359 17.8294 10.2547 17.806 10.2755L17.6059 10.438C17.586 10.4534 17.5673 10.4701 17.5497 10.488L17.4184 10.6381C17.3974 10.6614 17.3787 10.6864 17.3621 10.7131L17.2871 10.8319C17.2495 10.8957 17.2265 10.9645 17.2184 11.0381L17.2059 11.1319C17.1957 11.2178 17.2061 11.3012 17.2371 11.382L17.2684 11.4632C17.306 11.5636 17.3685 11.6449 17.4559 11.707L17.5309 11.757C17.6155 11.8159 17.7093 11.8471 17.8122 11.8508L17.9685 11.8571C18.0149 11.8588 18.0607 11.8547 18.106 11.8445L18.3748 11.782C18.3961 11.7771 18.4169 11.7708 18.4373 11.7633L18.7812 11.6445C18.8234 11.6288 18.863 11.6079 18.8999 11.582L19.2125 11.3695C19.2324 11.3564 19.2512 11.3418 19.2688 11.3257L19.5 11.1132C19.5022 11.1111 19.5042 11.109 19.5063 11.1069L19.6563 10.9569L19.7814 10.8944C19.8798 10.8226 19.9024 10.7319 19.8494 10.6223C19.7963 10.5127 19.7112 10.4742 19.5938 10.5068L19.475 10.5631L19.2813 10.5693H18.9687C18.9499 10.5681 18.9312 10.5681 18.9124 10.5693L18.5374 10.6193C18.5098 10.6234 18.4827 10.6297 18.4561 10.6381L18.1185 10.7381L17.8935 10.7881L17.7747 10.8006C17.8778 10.8671 17.9903 10.8942 18.1123 10.8819L18.0373 10.8319C18.0778 10.94 18.1466 11.0254 18.2436 11.0882L18.2123 11.0069C18.2124 11.0739 18.2249 11.1385 18.2498 11.2007V11.1069C18.1845 11.1963 18.1511 11.2963 18.1498 11.407L18.181 11.3695L18.2436 11.3257L18.4436 11.2132C18.4457 11.2132 18.4478 11.2132 18.4498 11.2132L18.7061 11.0694L18.9499 10.9381C18.9541 10.9361 18.9583 10.934 18.9624 10.9319L19.175 10.8194C19.2188 10.7935 19.2584 10.7622 19.2938 10.7256L19.4563 10.5693C19.6259 10.3932 19.6522 10.1978 19.5352 9.98318C19.4183 9.76851 19.2398 9.68467 19 9.73165Z" fill="black"/>
<path d="M21.6131 11.1382L21.6068 11.1319C21.5679 11.0336 21.4967 10.9738 21.3932 10.9523C21.2897 10.9309 21.2006 10.9576 21.1259 11.0323C21.0511 11.107 21.0245 11.1961 21.0459 11.2996C21.0674 11.4031 21.1272 11.4743 21.2255 11.5132L21.2317 11.5195C21.3514 11.5668 21.4567 11.545 21.5476 11.454C21.6386 11.3631 21.6604 11.2578 21.6131 11.1382ZM20.9442 11.2007C20.9442 11.306 20.9814 11.3958 21.0559 11.4703C21.1303 11.5448 21.2202 11.582 21.3255 11.582C21.4308 11.582 21.5207 11.5448 21.5951 11.4703C21.6696 11.3958 21.7068 11.306 21.7068 11.2007C21.7068 11.0954 21.6696 11.0055 21.5951 10.931C21.5207 10.8566 21.4308 10.8193 21.3255 10.8193C21.2202 10.8193 21.1303 10.8566 21.0559 10.931C20.9814 11.0055 20.9442 11.0954 20.9442 11.2007ZM20.7566 11.1444C20.7566 11.2963 20.8103 11.426 20.9178 11.5334C21.0252 11.6408 21.1548 11.6945 21.3067 11.6945C21.4587 11.6945 21.5883 11.6408 21.6957 11.5334C21.8031 11.426 21.8568 11.2963 21.8568 11.1444C21.8568 10.9925 21.8031 10.8628 21.6957 10.7554C21.5883 10.648 21.4587 10.5943 21.3067 10.5943C21.1548 10.5943 21.0252 10.648 20.9178 10.7554C20.8103 10.8628 20.7566 10.9925 20.7566 11.1444ZM20.7379 10.8381L20.6691 10.9694C20.6238 11.049 20.5967 11.1345 20.5879 11.2257L20.5629 11.5195C20.5614 11.5445 20.5614 11.5695 20.5629 11.5945L20.5691 11.9633C20.57 11.9863 20.5721 12.0093 20.5754 12.0321L20.6254 12.3821C20.6281 12.4074 20.6322 12.4324 20.6379 12.4572L20.7129 12.7322C20.7424 12.8402 20.7965 12.934 20.8754 13.0135L20.9817 13.1323C21.2121 13.3717 21.4705 13.4071 21.7568 13.2386L21.9069 13.151C21.9876 13.1035 22.0543 13.041 22.1069 12.9635L22.3069 12.6697C22.3205 12.6516 22.333 12.6329 22.3444 12.6134L22.5945 12.1508C22.6125 12.1168 22.6271 12.0814 22.6382 12.0446L22.8133 11.4757C22.8369 11.4022 22.8432 11.3271 22.832 11.2507L22.7695 10.8443L22.907 10.5068C22.9368 10.3886 22.8955 10.306 22.7831 10.2589C22.6708 10.2118 22.5829 10.2402 22.5195 10.3443L22.3757 10.6818L22.0444 10.9131C21.998 10.946 21.9585 10.9855 21.9256 11.0319L21.5755 11.5195C21.5645 11.5336 21.5541 11.5482 21.5443 11.5632L21.3067 11.9758L21.2005 12.1008L21.1692 12.1133C21.3759 12.3682 21.628 12.4266 21.9256 12.2884L21.9194 12.2759L21.9006 12.1821L21.8694 11.9071L21.8631 11.5882L21.8756 11.3194L21.8881 11.1882C21.903 11.0425 21.8699 10.9087 21.7888 10.7867C21.7077 10.6648 21.5971 10.5825 21.457 10.5399C21.3169 10.4973 21.1793 10.504 21.044 10.5601C20.9087 10.6162 20.8067 10.7088 20.7379 10.8381Z" fill="black"/>
</g>
<defs>
<clipPath id="clip0_1_7421">
<rect width="29" height="31" fill="white"/>
</clipPath>
</defs>
</svg>
