<svg width="27" height="35" viewBox="0 0 27 35" fill="none" xmlns="http://www.w3.org/2000/svg">
<g clip-path="url(#clip0_1_7352)">
<path d="M16.8308 11.0377C16.8308 11.1516 16.8711 11.2488 16.9516 11.3294C17.0322 11.41 17.1295 11.4503 17.2434 11.4503C17.3573 11.4503 17.4546 11.41 17.5351 11.3294C17.6157 11.2488 17.656 11.1516 17.656 11.0377C17.656 10.9237 17.6157 10.8265 17.5351 10.7459C17.4546 10.6654 17.3573 10.6251 17.2434 10.6251C17.1295 10.6251 17.0322 10.6654 16.9516 10.7459C16.8711 10.8265 16.8308 10.9237 16.8308 11.0377ZM17.3747 11.469L17.3934 11.4628C17.5435 11.4225 17.6462 11.3298 17.7016 11.1846C17.757 11.0394 17.7421 10.9019 17.6569 10.7719C17.5718 10.6419 17.4516 10.5733 17.2964 10.5661C17.1412 10.5589 17.0152 10.6161 16.9183 10.7376L16.8996 10.7564C16.764 10.9275 16.7568 11.1039 16.8779 11.2855C16.999 11.4672 17.1646 11.5283 17.3747 11.469ZM17.0684 10.6063L16.9996 10.6376C16.9778 10.6485 16.957 10.661 16.9371 10.6751L16.7933 10.7689C16.7825 10.7768 16.7721 10.7851 16.762 10.7939L16.537 10.9689C16.5306 10.975 16.5243 10.9813 16.5182 10.9877L16.2057 11.2565C16.1993 11.2626 16.193 11.2688 16.1869 11.2752L15.8244 11.6315C15.8201 11.6356 15.816 11.6398 15.8119 11.644L15.3805 12.0816C15.3763 12.0878 15.3721 12.094 15.368 12.1004L14.8679 12.638C14.8637 12.6442 14.8595 12.6504 14.8554 12.6567L14.3178 13.2881L13.7115 13.9757L13.0676 14.7009C13.0655 14.7029 13.0634 14.705 13.0613 14.7071L12.4175 15.451C12.4133 15.4551 12.4091 15.4593 12.405 15.4635L11.7736 16.2199C11.7694 16.224 11.7652 16.2282 11.7611 16.2324L11.1485 16.9951C11.1442 17.0012 11.1401 17.0075 11.136 17.0138L10.5609 17.7827L9.98576 18.5391L9.40439 19.2955L8.82929 20.0331L8.26043 20.7583L7.14146 22.196C7.13934 22.2002 7.13726 22.2044 7.13521 22.2085L6.62887 22.8837C6.62677 22.8857 6.62469 22.8878 6.62262 22.8899L6.14752 23.5401L5.67869 24.1652L5.22235 24.7778C5.22025 24.7799 5.21817 24.7819 5.2161 24.784L4.78477 25.3654L4.38469 25.9155L4.00962 26.4219L3.63455 26.8969C3.63243 26.9011 3.63034 26.9053 3.6283 26.9094L3.27823 27.3658C3.27613 27.3679 3.27405 27.3699 3.27198 27.372L2.95317 27.7909C2.95105 27.795 2.94896 27.7992 2.94692 27.8034L2.66561 28.1909C2.6592 28.1992 2.65295 28.2075 2.64686 28.2159L2.40931 28.5785L2.19052 28.8973C2.18631 28.9014 2.18214 28.9056 2.17802 28.9098L1.98423 29.2036C1.97985 29.214 1.97568 29.2244 1.97173 29.2349L1.79045 29.5287C1.78614 29.537 1.78197 29.5453 1.77794 29.5537L1.62166 29.835C1.61518 29.8453 1.60893 29.8557 1.60291 29.8663L1.46538 30.1476C1.46107 30.1558 1.45691 30.1642 1.45288 30.1726L1.34036 30.4289L1.22784 30.6727L1.13407 30.8539L1.03405 31.0165C1.0042 31.0619 0.979198 31.1098 0.959037 31.1603L0.884023 31.354C0.867911 31.3946 0.855409 31.4363 0.846516 31.4791L0.809009 31.6603C0.795628 31.7243 0.79146 31.7889 0.796506 31.8541L0.81526 32.0104C0.819394 32.0685 0.831897 32.1248 0.852767 32.1792L0.896525 32.2855C0.938933 32.1701 0.936849 32.0554 0.890274 31.9417L0.846516 32.0604C0.816382 32.1785 0.82973 32.2915 0.886557 32.3994C0.943385 32.5072 1.02903 32.5821 1.14349 32.624C1.25796 32.6659 1.3717 32.664 1.48473 32.6184C1.59776 32.5728 1.68092 32.4951 1.73418 32.3855L1.77794 32.2667C1.64361 32.3188 1.55192 32.4125 1.50289 32.548L1.60291 32.5105C1.62881 32.4998 1.65381 32.4873 1.67792 32.473L1.8092 32.4042C1.83979 32.3877 1.86897 32.3689 1.89672 32.348L2.04674 32.2355C2.06863 32.2179 2.08946 32.1991 2.10926 32.1792L2.25928 32.0417C2.30407 32.0003 2.34366 31.9545 2.37806 31.9041L2.50933 31.7041C2.51802 31.6918 2.52635 31.6793 2.53434 31.6666L2.67186 31.4353C2.67617 31.427 2.68034 31.4187 2.68437 31.4103L2.81564 31.1603C2.82442 31.1459 2.83276 31.1313 2.84065 31.1165L2.95317 30.8727L3.07819 30.6226L3.22197 30.3664L3.37825 30.0975L3.55953 29.8225C3.56162 29.8225 3.5637 29.8225 3.56578 29.8225L3.77832 29.4974L4.00962 29.1536L4.28467 28.7785L4.59098 28.366L4.94105 27.9159L5.31612 27.4283C5.32037 27.4221 5.32454 27.4158 5.32862 27.4095L5.70994 26.8907C5.71204 26.8886 5.71412 26.8865 5.71619 26.8844L6.11002 26.3406L6.5351 25.7592C6.53719 25.7572 6.53928 25.7551 6.54135 25.753L6.99144 25.1341L7.46027 24.5027L7.93536 23.8589L8.43546 23.19L9.54192 21.7522C9.54192 21.7501 9.54192 21.748 9.54192 21.746L10.0983 21.0146L10.6671 20.2707L11.2485 19.5143C11.2527 19.5102 11.2569 19.506 11.261 19.5018L11.8299 18.7266L12.3925 17.9702L12.9926 17.2138L13.6052 16.4324L14.2116 15.6511C14.2137 15.649 14.2157 15.6469 14.2178 15.6448L14.8054 14.8759L15.368 14.1508L15.8869 13.5069C15.8869 13.5048 15.8869 13.5027 15.8869 13.5006L16.337 12.9318C16.3391 12.9276 16.3412 12.9235 16.3432 12.9193L16.7245 12.4317C16.7245 12.4296 16.7245 12.4275 16.7245 12.4254L17.0308 12.0254L17.2684 11.7128L17.4434 11.5065L17.5434 11.4002L17.5935 11.3502C17.7744 11.1666 17.7906 10.9694 17.6419 10.7588C17.4932 10.5481 17.302 10.4973 17.0684 10.6063Z" fill="black"/>
<path d="M1.58413 31.0602C1.58413 31.1862 1.62868 31.2938 1.71779 31.3829C1.8069 31.472 1.91445 31.5165 2.04047 31.5165C2.16648 31.5165 2.27404 31.472 2.36315 31.3829C2.45225 31.2938 2.49681 31.1862 2.49681 31.0602C2.49681 30.9342 2.45225 30.8266 2.36315 30.7375C2.27404 30.6484 2.16648 30.6039 2.04047 30.6039C1.91445 30.6039 1.8069 30.6484 1.71779 30.7375C1.62868 30.8266 1.58413 30.9342 1.58413 31.0602ZM2.29052 30.6726L2.27801 30.6601C2.09602 30.5373 1.91265 30.5352 1.72791 30.6539L1.67165 30.6914C1.64494 30.7079 1.61994 30.7266 1.59663 30.7477L1.49662 30.8477C1.43363 30.9059 1.3857 30.9747 1.35284 31.054L1.25907 31.2915C1.23818 31.3397 1.2236 31.3897 1.21531 31.4415L1.17155 31.8041C1.16572 31.8435 1.16364 31.8831 1.1653 31.9229L1.19031 32.3355C1.1941 32.3889 1.20452 32.441 1.22156 32.4917L1.35284 32.9043C1.3761 32.9775 1.41153 33.0441 1.45911 33.1044L1.72791 33.4419C1.78109 33.5082 1.84568 33.5603 1.9217 33.5982L2.27801 33.7795C2.31954 33.8008 2.36329 33.8154 2.40929 33.8232L2.67809 33.8732L2.87813 33.9795C3.04765 34.0576 3.17724 34.0149 3.2669 33.8511C3.35656 33.6874 3.32282 33.5552 3.16568 33.4544L2.9969 33.3669L2.89063 33.1606C2.89064 33.1585 2.89064 33.1564 2.89063 33.1544L2.70309 32.8168L2.54056 32.4792L2.4468 32.1792L2.42804 31.8916L2.45305 31.5791L2.47805 31.3353C2.48299 31.3021 2.48507 31.2688 2.4843 31.2352L2.4718 31.0915C2.44941 31.1585 2.44108 31.2273 2.4468 31.2978L2.46555 31.229C2.47269 31.2127 2.47894 31.196 2.4843 31.179V31.1602C2.52944 30.9541 2.46485 30.7916 2.29052 30.6726Z" fill="black"/>
<path d="M2.09673 32.2729C2.09673 32.3662 2.12969 32.4457 2.1956 32.5116C2.26151 32.5776 2.34108 32.6105 2.43429 32.6105C2.52751 32.6105 2.60708 32.5776 2.67299 32.5116C2.7389 32.4457 2.77186 32.3662 2.77186 32.2729C2.77186 32.1797 2.7389 32.1002 2.67299 32.0343C2.60708 31.9683 2.52751 31.9354 2.43429 31.9354C2.34108 31.9354 2.26151 31.9683 2.1956 32.0343C2.12969 32.1002 2.09673 32.1797 2.09673 32.2729ZM1.99046 32.2292L1.98421 32.2855C1.97621 32.3708 1.9908 32.452 2.02797 32.5292L2.09048 32.6668C2.10598 32.698 2.12473 32.7272 2.14674 32.7543L2.29677 32.9481C2.37532 33.0527 2.47951 33.1131 2.60933 33.1294L2.80937 33.1481L3.00315 33.2856C3.16568 33.3982 3.30321 33.3732 3.41573 33.2106C3.52825 33.0481 3.50325 32.9106 3.34072 32.798L3.15943 32.6793L3.10317 32.5105C3.08814 32.4678 3.0673 32.4283 3.04066 32.3917L2.91564 32.2167L2.85938 32.1104C2.85529 32.1062 2.85112 32.102 2.84687 32.0979L2.82187 32.0479C2.71537 31.8545 2.55425 31.7813 2.33853 31.8283C2.1228 31.8754 2.00678 32.009 1.99046 32.2292Z" fill="black"/>
<path d="M16.6308 10.7564C16.6308 10.8755 16.6729 10.9771 16.7571 11.0614C16.8413 11.1456 16.943 11.1877 17.0621 11.1877C17.1812 11.1877 17.2829 11.1456 17.3671 11.0614C17.4513 10.9771 17.4935 10.8755 17.4935 10.7564C17.4935 10.6373 17.4513 10.5356 17.3671 10.4514C17.2829 10.3672 17.1812 10.325 17.0621 10.325C16.943 10.325 16.8413 10.3672 16.7571 10.4514C16.6729 10.5356 16.6308 10.6373 16.6308 10.7564ZM16.5995 10.7439C16.5995 10.8716 16.6447 10.9806 16.735 11.071C16.8254 11.1613 16.9344 11.2065 17.0621 11.2065C17.1899 11.2065 17.2989 11.1613 17.3892 11.071C17.4795 10.9806 17.5247 10.8716 17.5247 10.7439C17.5247 10.6161 17.4795 10.5071 17.3892 10.4168C17.2989 10.3264 17.1899 10.2813 17.0621 10.2813C16.9344 10.2813 16.8254 10.3264 16.735 10.4168C16.6447 10.5071 16.5995 10.6161 16.5995 10.7439ZM16.562 10.7376C16.562 10.8723 16.6096 10.9872 16.7048 11.0824C16.8 11.1776 16.915 11.2252 17.0496 11.2252C17.1843 11.2252 17.2992 11.1776 17.3944 11.0824C17.4896 10.9872 17.5372 10.8723 17.5372 10.7376C17.5372 10.603 17.4896 10.488 17.3944 10.3928C17.2992 10.2976 17.1843 10.25 17.0496 10.25C16.915 10.25 16.8 10.2976 16.7048 10.3928C16.6096 10.488 16.562 10.603 16.562 10.7376ZM16.5058 10.7189C16.5058 10.8621 16.5564 10.9844 16.6577 11.0857C16.759 11.1871 16.8813 11.2377 17.0246 11.2377C17.1679 11.2377 17.2902 11.1871 17.3915 11.0857C17.4928 10.9844 17.5435 10.8621 17.5435 10.7189C17.5435 10.5756 17.4928 10.4533 17.3915 10.352C17.2902 10.2507 17.1679 10.2 17.0246 10.2C16.8813 10.2 16.759 10.2507 16.6577 10.352C16.5564 10.4533 16.5058 10.5756 16.5058 10.7189ZM17.3059 11.269L17.3559 11.2502C17.3687 11.2423 17.3812 11.234 17.3934 11.2252L17.4747 11.1815L17.5685 11.1377L17.7248 11.0877L17.9123 11.0564L18.0373 11.0502L18.0686 11.0564L18.1123 11.0877L18.1873 11.1877L18.2686 11.3377L18.3311 11.5128L18.3749 11.7316L18.4186 11.9566C18.4204 11.9692 18.4225 11.9817 18.4249 11.9941L18.4874 12.2254C18.506 12.2999 18.5372 12.3687 18.5812 12.4317L18.6749 12.5755C18.7623 12.6991 18.8814 12.7673 19.0323 12.78C19.1832 12.7927 19.312 12.7453 19.4188 12.638L19.5376 12.5192C19.6294 12.4289 19.6878 12.3205 19.7126 12.1941L19.7564 11.9566C19.7655 11.9006 19.7676 11.8443 19.7626 11.7878L19.7501 11.5378C19.7478 11.5083 19.7437 11.4792 19.7376 11.4503L19.6814 11.1877C19.6741 11.1493 19.6637 11.1118 19.6501 11.0752L19.5501 10.8126C19.5391 10.7869 19.5266 10.7619 19.5126 10.7376L19.3813 10.4813C19.36 10.4414 19.335 10.4039 19.3063 10.3688L19.125 10.1438C19.0864 10.0985 19.0426 10.0589 18.9937 10.025L18.775 9.86245C18.7064 9.81335 18.6314 9.77793 18.5499 9.75618L18.2999 9.68742C18.2365 9.6699 18.1719 9.66156 18.1061 9.66241L17.8248 9.66866C17.7869 9.66976 17.7494 9.67393 17.7122 9.68117L17.4372 9.73118C17.4097 9.7358 17.3826 9.74205 17.3559 9.74993L17.1121 9.82494C17.08 9.83517 17.0487 9.84767 17.0184 9.86245L16.8496 9.94997C16.8028 9.97216 16.759 9.99925 16.7183 10.0312L16.6245 10.1062C16.4324 10.2581 16.3469 10.4561 16.3682 10.7001L16.3745 10.7564C16.3847 10.8622 16.4191 10.9595 16.4775 11.0483C16.536 11.1372 16.6118 11.2072 16.7049 11.2585C16.7981 11.3097 16.8978 11.3363 17.0041 11.3382C17.1104 11.34 17.211 11.3169 17.3059 11.269ZM18.7624 12.4067L18.7312 12.538C18.6854 12.7297 18.7583 12.8484 18.95 12.8943C19.1417 12.9401 19.2605 12.8672 19.3063 12.6755L19.3376 12.5442C19.3831 12.3527 19.3101 12.234 19.1187 12.1883C18.9272 12.1425 18.8085 12.2153 18.7624 12.4067Z" fill="black"/>
<path d="M3.08441 33.0044C3.08449 33.1234 3.12664 33.225 3.21085 33.3092C3.29506 33.3933 3.39669 33.4354 3.51574 33.4354C3.6348 33.4354 3.73643 33.3933 3.82064 33.3092C3.90485 33.225 3.94699 33.1234 3.94708 33.0044C3.94699 32.8853 3.90485 32.7837 3.82064 32.6996C3.73643 32.6154 3.6348 32.5734 3.51574 32.5734C3.39669 32.5734 3.29506 32.6154 3.21085 32.6996C3.12664 32.7837 3.0845 32.8853 3.08441 33.0044ZM3.3032 32.6106L3.28445 32.6231C3.31039 32.6149 3.33539 32.6045 3.35947 32.5918L3.33446 32.5981C3.3685 32.5955 3.40184 32.5893 3.43448 32.5793H3.40947C3.47229 32.6014 3.53689 32.6097 3.60326 32.6043L3.58451 32.5981C3.61044 32.6131 3.63753 32.6256 3.66577 32.6356L3.64702 32.6231C3.57655 32.742 3.55908 32.8682 3.59462 33.0018C3.63016 33.1354 3.70806 33.2363 3.8283 33.3044L3.85331 33.2544C3.81039 33.2921 3.77497 33.3359 3.74704 33.3857L3.89082 33.2669C3.89083 33.2649 3.89083 33.2628 3.89082 33.2607L4.17837 33.0169C4.1826 33.0128 4.18677 33.0086 4.19087 33.0044L4.64096 32.5856L5.24732 32.0104C5.25155 32.0063 5.25572 32.0022 5.25983 31.9979L5.97246 31.2791L6.76011 30.4727L7.59152 29.6225L8.44793 28.7348C8.45002 28.7348 8.4521 28.7348 8.45419 28.7348L9.31685 27.8284C9.32108 27.8243 9.32524 27.8201 9.32935 27.8159L10.1545 26.9095L10.9359 26.0468C10.938 26.0427 10.9401 26.0385 10.9422 26.0343L11.661 25.2029C11.6632 25.1988 11.6653 25.1946 11.6673 25.1904L12.3362 24.3777C12.3404 24.3736 12.3446 24.3695 12.3487 24.3652L12.9675 23.5651C12.9696 23.5651 12.9717 23.5651 12.9738 23.5651L13.5677 22.7962C13.5698 22.7941 13.5718 22.792 13.5739 22.7899L14.1365 22.0335C14.1386 22.0315 14.1407 22.0294 14.1428 22.0273L14.6929 21.2834C14.695 21.2813 14.6971 21.2793 14.6991 21.2772L15.2242 20.5458C15.2263 20.5437 15.2284 20.5416 15.2305 20.5395L15.7181 19.8394C15.7223 19.8353 15.7265 19.8311 15.7306 19.8269L16.1682 19.1643C16.1724 19.1601 16.1765 19.156 16.1807 19.1517L16.562 18.5391L16.9371 17.9828L17.3059 17.4327L17.6934 16.9013L18.081 16.37L18.4436 15.8699C18.4479 15.8637 18.452 15.8574 18.4561 15.8511L18.7749 15.3885C18.7771 15.3823 18.7792 15.3761 18.7812 15.3698L19.0437 14.9572C19.0458 14.9551 19.0479 14.953 19.05 14.951L19.2812 14.5759C19.2834 14.5697 19.2855 14.5634 19.2875 14.5571L19.4813 14.2196L19.6688 13.8882C19.6709 13.8862 19.673 13.8841 19.6751 13.882L19.8376 13.5882L19.9626 13.3569C19.9693 13.3446 19.9755 13.3321 19.9814 13.3194L20.0626 13.1444C20.0955 13.077 20.1163 13.0062 20.1252 12.9318L20.1377 12.813C20.1536 12.6591 20.1161 12.5195 20.0251 12.3942L20.0064 12.3692C19.9391 12.2784 19.8515 12.2159 19.7438 12.1817L19.7188 12.1692C19.5339 12.1113 19.3609 12.1363 19.2 12.2442L19.1 12.3067C19.0253 12.3546 18.9628 12.415 18.9124 12.488L18.8062 12.638C18.7973 12.6523 18.7889 12.6669 18.7812 12.6818L18.6499 12.9131C18.6457 12.9172 18.6415 12.9213 18.6374 12.9256L18.4811 13.2194L18.2936 13.5444L18.106 13.8757L17.8872 14.2383L17.6372 14.6321L17.3309 15.0822L16.9808 15.5698L16.5932 16.1012C16.5912 16.1012 16.5891 16.1012 16.587 16.1012L16.1994 16.645C16.1951 16.6512 16.191 16.6575 16.1869 16.6638L15.8118 17.2201C15.8097 17.2222 15.8077 17.2243 15.8056 17.2264L15.4305 17.7952C15.4262 17.8014 15.4221 17.8077 15.418 17.814L15.0367 18.4266L14.6054 19.0767L14.1303 19.7644L13.6114 20.4895L13.0676 21.2396L12.5112 21.996L11.9361 22.7712L11.3235 23.5651L10.6796 24.3777L9.97948 25.2029L9.21683 26.0593L8.39792 26.9595L7.54151 27.8597L6.69135 28.7473L5.85994 29.5975C5.85786 29.5975 5.85577 29.5975 5.85369 29.5975L5.07854 30.4101L4.37841 31.1415L3.8033 31.7479L3.38447 32.198C3.37123 32.2119 3.35873 32.2265 3.34696 32.2417L3.12192 32.5418C3.11305 32.5539 3.10472 32.5665 3.09692 32.5793L2.9969 32.7356C2.98229 32.7595 2.96979 32.7845 2.95939 32.8106L2.94064 32.8606C2.90754 32.9381 2.89508 33.0188 2.90327 33.1026C2.91146 33.1865 2.93928 33.2632 2.98675 33.3328C3.03421 33.4024 3.09548 33.4564 3.17055 33.4946C3.24561 33.5329 3.32526 33.5507 3.40947 33.5482H3.43448C3.66945 33.5436 3.82156 33.429 3.89082 33.2044L3.89707 33.1857C3.85088 33.2367 3.81754 33.295 3.79705 33.3607L3.8158 33.3357C3.78787 33.3578 3.76287 33.3828 3.74079 33.4107L3.75954 33.392C3.81759 33.3506 3.86343 33.2985 3.89707 33.2357L3.90957 33.2169C4.01008 33.0221 3.98284 32.8473 3.82785 32.6923C3.67287 32.5373 3.49798 32.5101 3.3032 32.6106ZM19.8626 12.7943L19.8876 12.7568C19.9771 12.5984 19.9462 12.4687 19.7948 12.3678C19.6434 12.2669 19.5118 12.2882 19.4 12.4317L19.375 12.4692C19.2855 12.6276 19.3165 12.7573 19.4678 12.8582C19.6192 12.9591 19.7508 12.9378 19.8626 12.7943Z" fill="black"/>
<path d="M12.705 15.7573C12.705 15.8816 12.7489 15.9877 12.8368 16.0756C12.9247 16.1634 13.0308 16.2074 13.1551 16.2074C13.2793 16.2074 13.3854 16.1634 13.4733 16.0756C13.5612 15.9877 13.6051 15.8816 13.6051 15.7573C13.6051 15.633 13.5612 15.5269 13.4733 15.439C13.3854 15.3512 13.2793 15.3072 13.1551 15.3072C13.0308 15.3072 12.9247 15.3512 12.8368 15.439C12.7489 15.5269 12.705 15.633 12.705 15.7573ZM12.6425 15.7448C12.6425 15.8863 12.6925 16.0072 12.7926 16.1073C12.8927 16.2073 13.0135 16.2574 13.1551 16.2574C13.2966 16.2574 13.4174 16.2073 13.5175 16.1073C13.6176 16.0072 13.6677 15.8863 13.6677 15.7448C13.6677 15.6032 13.6176 15.4824 13.5175 15.3823C13.4174 15.2822 13.2966 15.2322 13.1551 15.2322C13.0135 15.2322 12.8927 15.2822 12.7926 15.3823C12.6925 15.4824 12.6425 15.6032 12.6425 15.7448ZM12.6612 16.0886L12.68 16.1136C12.7894 16.264 12.9353 16.3578 13.1175 16.3949L13.3238 16.4324C13.3671 16.4424 13.4108 16.4487 13.4551 16.4512L13.8239 16.4637L14.2615 16.4824L14.6991 16.5387L15.0867 16.6512L15.4117 16.8075L15.6493 16.9513L15.7806 17.0638L15.8118 17.1201L15.7868 17.2326C15.7451 17.4243 15.8201 17.541 16.0119 17.5826C16.2036 17.6243 16.3202 17.5493 16.3619 17.3576L16.3994 17.1826L16.5057 17.02C16.5319 16.9855 16.5527 16.948 16.5682 16.9075L16.6557 16.62C16.6988 16.4866 16.6988 16.3532 16.6557 16.2199L16.5432 15.8636C16.4835 15.6784 16.371 15.5347 16.2056 15.4322L15.8118 15.1884C15.7454 15.147 15.6746 15.1158 15.5993 15.0947L15.0867 14.9509C15.0477 14.9396 15.0081 14.9313 14.9679 14.9259L14.4366 14.8634C14.4054 14.8595 14.3742 14.8574 14.3428 14.8571L13.8614 14.8509C13.8342 14.8516 13.8072 14.8537 13.7802 14.8571L13.4051 14.8946C13.3341 14.9019 13.2653 14.9185 13.1988 14.9446L12.9988 15.0197C12.6918 15.1401 12.5397 15.3651 12.5424 15.6948V15.726C12.5433 15.8596 12.5829 15.9804 12.6612 16.0886Z" fill="black"/>
<path d="M14.2553 15.651C14.2553 15.777 14.2999 15.8846 14.389 15.9737C14.4781 16.0628 14.5856 16.1074 14.7116 16.1074C14.8377 16.1074 14.9452 16.0628 15.0343 15.9737C15.1234 15.8846 15.168 15.777 15.168 15.651C15.168 15.525 15.1234 15.4174 15.0343 15.3283C14.9452 15.2392 14.8377 15.1947 14.7116 15.1947C14.5856 15.1947 14.4781 15.2392 14.389 15.3283C14.2999 15.4174 14.2553 15.525 14.2553 15.651ZM14.2241 15.651C14.2241 15.7891 14.2729 15.907 14.3705 16.0046C14.4682 16.1023 14.5861 16.1511 14.7242 16.1511C14.8622 16.1511 14.9801 16.1023 15.0778 16.0046C15.1754 15.907 15.2242 15.7891 15.2242 15.651C15.2242 15.5129 15.1754 15.395 15.0778 15.2974C14.9801 15.1997 14.8622 15.1509 14.7242 15.1509C14.5861 15.1509 14.4682 15.1997 14.3705 15.2974C14.2729 15.395 14.2241 15.5129 14.2241 15.651ZM14.3178 16.0824L14.4303 16.2199C14.4621 16.2571 14.4976 16.2904 14.5366 16.3199L14.7929 16.5199C14.9315 16.6268 15.0878 16.6706 15.2618 16.6512L15.3305 16.645L15.4805 16.8387C15.6014 16.9929 15.7389 17.0096 15.8931 16.8888C16.0473 16.7679 16.064 16.6304 15.9431 16.4762L15.7869 16.2699L15.8119 16.1824C15.8751 15.9504 15.8251 15.7462 15.6618 15.5698L15.4493 15.3322C15.3758 15.2528 15.2883 15.1945 15.1867 15.1572L15.018 15.0947C14.7205 14.9933 14.4809 15.0708 14.2992 15.3272C14.1175 15.5835 14.1237 15.8353 14.3178 16.0824Z" fill="black"/>
<path d="M15.5062 1.01683L15.4999 1.01058C15.3144 0.922127 15.1498 0.951299 15.0061 1.0981L14.9748 1.12935L14.8748 1.21062C14.8442 1.23657 14.8171 1.26575 14.7935 1.29814L14.6122 1.53568C14.6058 1.54384 14.5995 1.55218 14.5935 1.56069L14.3122 1.96701L13.8996 2.51712L13.3808 3.17349L12.8056 3.81737L12.2305 4.37997L11.7304 4.82381L11.3116 5.12386L11.0241 5.30515L10.8615 5.38641L10.7615 5.41767C10.8299 5.41819 10.8966 5.40778 10.9615 5.38641H10.8865C10.9608 5.41578 11.0379 5.43037 11.1178 5.43017L11.0866 5.41767C11.0587 5.72852 11.1899 5.94106 11.4804 6.05529V6.03654C11.2788 6.14284 11.1684 6.30954 11.1491 6.53663L11.1928 6.51163C11.1292 6.52318 11.0688 6.54402 11.0116 6.57414L11.0866 6.56164C10.9866 6.52768 10.8845 6.51935 10.7803 6.53663L10.799 6.54914L10.8678 6.59289C10.8821 6.60174 10.8967 6.61008 10.9115 6.6179L11.1428 6.73667C11.1449 6.73877 11.147 6.74085 11.1491 6.74292L11.4116 6.88045L11.6742 7.05548L11.9055 7.28053L12.1305 7.59934L12.3118 7.94315L12.4368 8.24946L12.4993 8.4745L12.5243 8.61203L12.5306 8.65579L12.5243 8.68704C12.5339 8.64586 12.5401 8.60419 12.5431 8.56202L12.5368 8.61203C12.5443 8.58733 12.5506 8.56232 12.5556 8.53701L12.5493 8.56202C12.7509 8.79272 13.0018 8.87816 13.3023 8.81836C13.6027 8.75855 13.8018 8.5835 13.8996 8.29322L13.8871 8.28072C13.8873 8.47771 13.9519 8.65066 14.0809 8.79956V8.74955C14.0764 8.78484 14.0743 8.82026 14.0746 8.85582L14.0809 8.80582L14.0996 8.7308L14.1434 8.57452C14.1434 8.57244 14.1434 8.57035 14.1434 8.56827L14.1934 8.37448L14.2497 8.1932L14.3372 8.01191L14.5122 7.78687L14.806 7.50557L15.1748 7.22426L15.5062 6.99297L15.7187 6.8867L15.8062 6.8617L15.8437 6.85544L15.9 6.8617C15.9504 6.86249 16.0004 6.85832 16.05 6.84919L16.0875 6.84294C16.1708 6.83104 16.25 6.80604 16.3251 6.76793L16.3313 6.76168C16.6158 6.61429 16.7529 6.38049 16.7428 6.06026C16.7326 5.74003 16.5808 5.51541 16.2876 5.38641H16.2813L16.2626 5.37391C16.2462 5.36497 16.2295 5.35663 16.2125 5.34891H16.2063L16.2 5.34266L16.0813 5.23013C16.0673 5.21496 16.0527 5.20037 16.0375 5.18638L15.8187 5.01134C15.8166 5.01134 15.8146 5.01134 15.8125 5.01134L15.5562 4.8113L15.3499 4.59876L15.2249 4.34872L15.1873 3.93614L15.3186 3.27976C15.3214 3.26109 15.3235 3.24233 15.3249 3.2235L15.4186 2.49836C15.4241 2.45252 15.4241 2.40668 15.4186 2.36084L15.3749 1.98577L15.5687 1.72322C15.6643 1.59405 15.6476 1.48158 15.5186 1.3858C15.3895 1.29002 15.277 1.30664 15.1811 1.43566L14.9686 1.72322L14.5935 1.89825C14.4998 1.94034 14.4227 2.00285 14.3622 2.08579L13.9371 2.67965C13.8716 2.77013 13.8278 2.87015 13.8058 2.97971L13.6558 3.74235C13.6405 3.81675 13.6364 3.89176 13.6433 3.96739L13.7121 4.64252C13.721 4.74154 13.7481 4.83531 13.7933 4.92383L14.0496 5.40517C14.0815 5.46684 14.1211 5.5231 14.1684 5.57395L14.4872 5.90526C14.5143 5.93462 14.5434 5.96171 14.5747 5.98653L14.8623 6.21157L15.0623 6.3741L15.1936 6.48662C15.1998 6.49088 15.206 6.49505 15.2124 6.49913L15.3061 6.58664C15.3613 6.63269 15.4217 6.67019 15.4874 6.69916L15.5437 6.72417L15.5749 6.73667L15.6062 6.75543C15.7037 6.5714 15.7226 6.37963 15.663 6.1801C15.6034 5.98057 15.4823 5.83061 15.2999 5.73023L15.2936 5.73648C15.5393 5.69409 15.7206 5.56281 15.8375 5.34266L15.8 5.34891C15.8648 5.3551 15.9294 5.35302 15.9938 5.34266L15.8937 5.33015C15.8521 5.32673 15.8104 5.32673 15.7687 5.33015L15.6062 5.34266C15.5572 5.34843 15.5093 5.35885 15.4624 5.37391L15.2249 5.44268C15.1796 5.4553 15.1358 5.47197 15.0936 5.49268L14.7685 5.64896C14.7471 5.66048 14.7263 5.67298 14.706 5.68647L14.3059 5.93027C14.2865 5.94399 14.2678 5.95858 14.2497 5.97403L13.8308 6.28659C13.8069 6.30403 13.7839 6.32279 13.7621 6.34285L13.3933 6.69291C13.3639 6.72001 13.3368 6.74918 13.312 6.78043L13.0494 7.11799C13.018 7.15906 12.9909 7.20282 12.9682 7.24927L12.8181 7.55558C12.8009 7.58993 12.7864 7.62535 12.7744 7.66185L12.6931 7.91815C12.6888 7.92641 12.6846 7.93474 12.6806 7.94315L12.6244 8.13694L12.5744 8.29322C12.5698 8.30768 12.5656 8.32227 12.5618 8.33698L12.5306 8.462C12.5227 8.49082 12.5164 8.51999 12.5118 8.54952L12.4993 8.64328C12.4949 8.67857 12.4928 8.71399 12.4931 8.74955V8.79956C12.4898 9.04288 12.5794 9.245 12.7619 9.40593L12.7744 9.41843C12.9537 9.57633 13.1619 9.64022 13.399 9.61012C13.636 9.58002 13.8217 9.46611 13.9559 9.2684L13.9684 9.2434C14.0197 9.16852 14.0572 9.08725 14.0809 8.9996L14.0996 8.94959C14.1128 8.90038 14.1211 8.85037 14.1246 8.79956L14.1309 8.7058C14.1324 8.66187 14.1303 8.61811 14.1246 8.57452L14.1121 8.43074C14.1101 8.39714 14.1059 8.3638 14.0996 8.33072L14.0496 8.11818C14.046 8.10138 14.0418 8.08471 14.0371 8.06817L13.9496 7.76812C13.9407 7.74046 13.9303 7.71337 13.9184 7.68685L13.7621 7.30553C13.7507 7.28199 13.7382 7.25907 13.7246 7.23677L13.4995 6.81169C13.4827 6.78127 13.464 6.7521 13.4433 6.72417L13.137 6.30534C13.104 6.2596 13.0665 6.21793 13.0244 6.18032L12.6744 5.87401C12.6359 5.83849 12.5942 5.80724 12.5493 5.78024L12.1805 5.5677C12.1523 5.55124 12.1231 5.53665 12.093 5.52394L11.7805 5.39267C11.76 5.38339 11.7392 5.37505 11.7179 5.36766L11.4741 5.29265C11.3906 5.26663 11.3052 5.25621 11.2178 5.26139L11.0491 5.26764C10.9915 5.27078 10.9352 5.2812 10.8803 5.2989L10.7803 5.3364L10.7052 5.35516C10.6591 5.37092 10.6153 5.39176 10.574 5.41767L10.5302 5.44268C10.3058 5.57776 10.2057 5.77571 10.2302 6.03654V6.05529C10.2535 6.3113 10.3847 6.48634 10.624 6.58039L10.6552 6.59289C10.7295 6.62226 10.8066 6.63685 10.8865 6.63665H10.9615C11.0211 6.63665 11.0794 6.62832 11.1366 6.61165L11.2741 6.57414C11.3019 6.56559 11.329 6.55518 11.3554 6.54288L11.5867 6.43661C11.6148 6.42401 11.6419 6.40943 11.6679 6.39286L12.0055 6.18032C12.0161 6.17437 12.0265 6.16811 12.0367 6.16156L12.4931 5.83025C12.5104 5.81857 12.527 5.80607 12.5431 5.79274L13.0807 5.31765C13.0893 5.30955 13.0976 5.30121 13.1057 5.29265L13.7058 4.69253C13.7166 4.68248 13.727 4.67206 13.7371 4.66128L14.3247 3.9799C14.3356 3.9678 14.346 3.9553 14.3559 3.94239L14.8685 3.24851C14.8772 3.23836 14.8856 3.22795 14.8935 3.21725L15.2749 2.61714C15.2837 2.60496 15.292 2.59246 15.2999 2.57963L15.5374 2.1358C15.5521 2.10972 15.5646 2.08263 15.5749 2.05453L15.6687 1.76698C15.68 1.73652 15.6884 1.70527 15.6937 1.67321L15.7124 1.56069L15.7187 1.52943C15.7548 1.42067 15.7485 1.3144 15.6999 1.21062L15.6937 1.20437C15.6524 1.12064 15.5899 1.05813 15.5062 1.01683Z" fill="black"/>
<path d="M25.0206 13.4382C25.0206 13.547 25.059 13.6398 25.1359 13.7167C25.2128 13.7936 25.3057 13.832 25.4144 13.832C25.5232 13.832 25.616 13.7936 25.6929 13.7167C25.7698 13.6398 25.8082 13.547 25.8082 13.4382C25.8082 13.3294 25.7698 13.2366 25.6929 13.1597C25.616 13.0828 25.5232 13.0444 25.4144 13.0444C25.3057 13.0444 25.2128 13.0828 25.1359 13.1597C25.059 13.2366 25.0206 13.3294 25.0206 13.4382ZM24.9456 13.4445C24.9456 13.5687 24.9895 13.6748 25.0774 13.7627C25.1653 13.8506 25.2714 13.8945 25.3957 13.8945C25.5199 13.8945 25.626 13.8506 25.7139 13.7627C25.8018 13.6748 25.8457 13.5687 25.8457 13.4445C25.8457 13.3202 25.8018 13.2141 25.7139 13.1262C25.626 13.0383 25.5199 12.9944 25.3957 12.9944C25.2714 12.9944 25.1653 13.0383 25.0774 13.1262C24.9895 13.2141 24.9456 13.3202 24.9456 13.4445ZM25.1394 12.9506L24.9331 13.0131C24.8347 13.0411 24.7471 13.0891 24.6705 13.1569L24.3767 13.4194C24.3498 13.4426 24.3248 13.4676 24.3017 13.4945L23.9516 13.9133L23.5203 14.4321L23.039 14.9697L22.5701 15.4386L22.1825 15.8012L21.92 16.0074L21.7762 16.1012C21.8917 16.0899 21.998 16.0524 22.095 15.9887L22.0388 15.9949C21.9092 16.2423 21.9218 16.4822 22.0768 16.7145C22.2317 16.9469 22.4482 17.0509 22.7264 17.0264L22.7514 16.9826C22.687 17.0397 22.6349 17.1064 22.5951 17.1827L22.6014 17.1764H22.5951L22.6889 17.1452L22.8139 17.1139H22.8327L22.7702 17.0889L22.7827 17.1076L22.8764 17.2577L22.9764 17.4577L23.0515 17.6453L23.1015 17.8328L23.1327 18.0203L23.1577 18.1766L23.164 18.2891C23.163 18.312 23.163 18.335 23.164 18.3579L23.1765 18.4579C23.1765 18.46 23.1765 18.4621 23.1765 18.4642L23.1827 18.5204C23.1858 18.5456 23.1899 18.5706 23.1952 18.5954L23.2015 18.6204C23.2534 18.855 23.3826 19.0336 23.5893 19.1561C23.796 19.2787 24.0147 19.3064 24.2454 19.2393H24.2517C24.5736 19.1468 24.7674 18.9364 24.8331 18.6079L24.8393 18.5642C24.844 18.5476 24.8482 18.531 24.8518 18.5142V18.4892L24.8706 18.4329L24.9268 18.2891L25.0456 18.0766L25.2331 17.8265L25.4332 17.6202L25.5519 17.5327L25.5082 17.5452H25.5269C25.4218 17.497 25.3113 17.472 25.1956 17.4702L25.3081 17.5202C25.2418 17.4556 25.1668 17.4035 25.0831 17.3639L25.1519 17.4327C25.1088 17.326 25.0463 17.2322 24.9643 17.1514L24.9831 17.1952C25.0873 16.975 25.0936 16.752 25.0018 16.5263L24.9893 16.5513C25.3394 16.5509 25.5894 16.3925 25.7395 16.0762H25.702C25.8627 16.2303 26.0544 16.3074 26.2771 16.3075L26.2333 16.27L26.2021 16.2325L26.1333 16.1325L25.9895 15.9074L25.827 15.6324L25.6707 15.3011L25.5394 14.976L25.4894 14.7072L25.4832 14.4259C25.4809 14.2242 25.4119 14.0488 25.276 13.8998C25.14 13.7507 24.9718 13.6658 24.7711 13.645C24.5705 13.6242 24.3884 13.6728 24.2248 13.7909C24.0612 13.9089 23.9577 14.0664 23.9141 14.2634L23.8329 14.6134C23.8097 14.7259 23.8097 14.8385 23.8329 14.951L23.9079 15.3698C23.9178 15.4212 23.9324 15.4712 23.9516 15.5198L24.1204 15.9449C24.13 15.9662 24.1404 15.987 24.1517 16.0074L24.3392 16.395C24.3508 16.4164 24.3633 16.4372 24.3767 16.4575L24.5643 16.7701C24.5663 16.7743 24.5684 16.7784 24.5705 16.7826L24.7268 17.0326C24.7367 17.0476 24.7471 17.0621 24.758 17.0764L24.8768 17.2452C24.898 17.2737 24.9209 17.3008 24.9456 17.3264L25.0331 17.4265C25.0585 17.4533 25.0856 17.4783 25.1144 17.5015L25.1706 17.5452C25.3244 17.6739 25.5015 17.7385 25.702 17.739H25.7395C26.072 17.7374 26.3158 17.5894 26.4709 17.2952L26.4896 17.2702C26.6153 17.0294 26.6216 16.7856 26.5084 16.5388L26.4896 16.495C26.4494 16.4063 26.3952 16.3271 26.3271 16.2575L26.2583 16.1887C26.1794 16.1075 26.0877 16.045 25.9833 16.0012L25.8707 15.9574C25.7807 15.92 25.6869 15.8991 25.5894 15.8949L25.4144 15.8887C25.3053 15.8823 25.199 15.8969 25.0956 15.9324L24.8706 16.0137C24.7942 16.0408 24.7234 16.0783 24.658 16.1262L24.3892 16.3262C24.3511 16.3545 24.3157 16.3857 24.2829 16.42L24.0016 16.7138C23.9793 16.7376 23.9585 16.7626 23.9391 16.7888L23.6891 17.1202C23.6685 17.1481 23.6497 17.1773 23.6328 17.2077L23.4578 17.514C23.4362 17.5501 23.4174 17.5876 23.4015 17.6265L23.3078 17.864C23.298 17.8907 23.2897 17.9178 23.2828 17.9453L23.239 18.1016C23.2314 18.1284 23.2251 18.1555 23.2202 18.1829L23.2077 18.2579C23.2047 18.2807 23.2026 18.3036 23.2015 18.3266L23.1952 18.3704C23.314 18.4056 23.4345 18.4136 23.5568 18.3945C23.6792 18.3755 23.7915 18.3311 23.8939 18.2614C23.9963 18.1918 24.0788 18.1035 24.1415 17.9967C24.2041 17.8899 24.2408 17.7749 24.2517 17.6515H24.2454C24.3321 17.9431 24.5217 18.1307 24.8143 18.2141L24.8018 18.1891C24.8076 18.2401 24.818 18.2901 24.8331 18.3391L24.8268 18.2829C24.8249 18.2724 24.8228 18.262 24.8205 18.2516L24.8143 18.1891L24.808 18.0641C24.8073 18.0369 24.8052 18.0098 24.8018 17.9828L24.7705 17.7703C24.7687 17.7598 24.7666 17.7494 24.7643 17.739L24.7205 17.4952C24.7125 17.4591 24.7021 17.4237 24.6893 17.389L24.608 17.1264C24.5988 17.1009 24.5884 17.0759 24.5768 17.0514L24.4642 16.7951C24.4499 16.7606 24.4332 16.7273 24.4142 16.6951L24.2579 16.445C24.2288 16.4 24.1955 16.3583 24.1579 16.32L23.9641 16.1137C23.9062 16.0505 23.8395 15.9984 23.7641 15.9574L23.5328 15.8324C23.4752 15.8035 23.4147 15.7827 23.3515 15.7699L23.114 15.7136C23.0482 15.6978 22.9815 15.6916 22.9139 15.6949L22.6701 15.7074C22.6192 15.7103 22.5692 15.7186 22.5201 15.7324L22.3076 15.7886C22.2971 15.7926 22.2866 15.7967 22.2763 15.8012L22.1013 15.8574C22.0625 15.8688 22.025 15.8834 21.9888 15.9012L21.87 15.9637C21.815 15.9945 21.7649 16.032 21.72 16.0762L21.6512 16.1387C21.6052 16.1813 21.5656 16.2292 21.5324 16.2825L21.5074 16.3262C21.3539 16.5781 21.357 16.828 21.5165 17.076C21.6761 17.3241 21.9022 17.4305 22.195 17.3952L22.2513 17.389C22.3623 17.3757 22.4644 17.3382 22.5576 17.2764L22.7264 17.1639C22.7415 17.152 22.7561 17.1395 22.7702 17.1264L23.0765 16.8826C23.0893 16.8726 23.1018 16.8622 23.114 16.8513L23.5328 16.4638C23.5413 16.4577 23.5496 16.4515 23.5578 16.445L24.0517 15.9512C24.0603 15.941 24.0686 15.9306 24.0767 15.9199L24.5768 15.3636C24.581 15.3595 24.5851 15.3553 24.5893 15.3511L25.0331 14.826C25.0373 14.8218 25.0415 14.8177 25.0456 14.8135L25.3894 14.3946L25.6395 14.1008C25.6778 14.053 25.7091 14.0009 25.7332 13.9445L25.827 13.7508C25.9367 13.5244 25.9095 13.3159 25.7456 13.1252C25.5817 12.9344 25.3796 12.8762 25.1394 12.9506ZM25.0331 14.3696L25.1894 14.2008C25.2937 14.0608 25.2823 13.931 25.1551 13.8114C25.028 13.6917 24.8977 13.6882 24.7643 13.8008L24.608 13.9696C24.5037 14.1096 24.5151 14.2394 24.6423 14.359C24.7694 14.4787 24.8997 14.4822 25.0331 14.3696Z" fill="black"/>
<path d="M23.5448 2.26042C23.5448 2.3778 23.5863 2.47799 23.6693 2.56099C23.7523 2.644 23.8525 2.6855 23.9699 2.6855C24.0873 2.6855 24.1875 2.644 24.2705 2.56099C24.3535 2.47799 24.395 2.3778 24.395 2.26042C24.395 2.14303 24.3535 2.04284 24.2705 1.95984C24.1875 1.87684 24.0873 1.83533 23.9699 1.83533C23.8525 1.83533 23.7523 1.87684 23.6693 1.95984C23.5863 2.04284 23.5448 2.14303 23.5448 2.26042ZM23.4573 2.27292C23.4573 2.41274 23.5067 2.53209 23.6056 2.63096C23.7045 2.72983 23.8238 2.77926 23.9636 2.77926C24.1035 2.77926 24.2228 2.72983 24.3217 2.63096C24.4205 2.53209 24.47 2.41274 24.47 2.27292C24.47 2.13309 24.4205 2.01375 24.3217 1.91488C24.2228 1.81601 24.1035 1.76657 23.9636 1.76657C23.8238 1.76657 23.7045 1.81601 23.6056 1.91488C23.5067 2.01375 23.4573 2.13309 23.4573 2.27292ZM23.526 1.86034L23.3948 1.97286C23.3149 2.0408 23.2524 2.12207 23.2072 2.21666L23.051 2.54172L22.8384 3.00431L22.5509 3.52316L22.2383 4.017L21.9695 4.41083L21.7757 4.64212L21.6819 4.73589L21.6569 4.76089C21.5019 4.8807 21.4076 5.03714 21.3741 5.23022C21.3407 5.42329 21.3768 5.60233 21.4824 5.76735C21.5881 5.93236 21.7356 6.04005 21.925 6.09042C22.1144 6.14078 22.2959 6.1206 22.4696 6.02988L22.5634 5.97987L22.6259 5.95487L22.6696 5.94237L22.6134 5.94862H22.6321C22.5389 5.85997 22.4305 5.79746 22.3071 5.76108L22.4008 5.85485L22.4821 6.00488L22.6009 6.32369L22.7071 6.69876L22.7884 7.04883L22.8447 7.31763C22.8446 7.32388 22.8446 7.33013 22.8447 7.33638L22.8822 7.50516L22.9009 7.58643C22.9113 7.50485 22.9092 7.42358 22.8947 7.34263L22.8884 7.35514C22.9211 7.55318 23.0143 7.71669 23.168 7.84567C23.3218 7.97465 23.4991 8.03797 23.6998 8.03563C23.9005 8.03329 24.0762 7.96585 24.2269 7.83331C24.3776 7.70077 24.467 7.53513 24.495 7.33638L24.4887 7.28012C24.4854 7.33451 24.4875 7.38869 24.495 7.44265V7.4239L24.5075 7.39889L24.5637 7.26137L24.7013 7.06133L24.8826 6.82378L25.0201 6.67376L25.0576 6.64875L25.1013 6.63C24.9744 6.60909 24.8494 6.61742 24.7263 6.655L24.8638 6.68001C24.7622 6.60642 24.6497 6.5585 24.5262 6.53623L24.6138 6.59874C24.5698 6.54447 24.5198 6.49654 24.4637 6.45496L24.5137 6.51748C24.704 6.74298 24.9457 6.83883 25.2389 6.80503H25.2701C25.6338 6.76441 25.8672 6.56854 25.9703 6.21742L25.989 6.14866C26.0041 6.09961 26.0145 6.0496 26.0203 5.99863L26.0328 5.86735C26.0393 5.79833 26.0372 5.72957 26.0265 5.66106L26.0015 5.47978C25.9953 5.43093 25.9849 5.38301 25.9703 5.336L25.8953 5.11721C25.8848 5.08308 25.8723 5.04974 25.8577 5.01719L25.7202 4.73589C25.7162 4.72748 25.712 4.71915 25.7077 4.71088L25.5327 4.37332L25.3451 3.96699L25.1576 3.51065L25.0138 3.12308L24.9388 2.80427C24.875 2.58954 24.7466 2.42517 24.5538 2.31116C24.3609 2.19715 24.1551 2.16392 23.9361 2.21148C23.7172 2.25903 23.5437 2.37468 23.4155 2.55842C23.2873 2.74216 23.2388 2.94497 23.2698 3.16684L23.351 3.54191C23.3583 3.58437 23.3687 3.62604 23.3823 3.66693L23.5511 4.12327C23.5551 4.13167 23.5593 4.14001 23.5636 4.14828L23.7636 4.63587C23.7694 4.65063 23.7757 4.66521 23.7823 4.67963L23.9886 5.11721C23.9927 5.12352 23.9969 5.12977 24.0011 5.13596L24.1762 5.49228C24.1823 5.50073 24.1885 5.50907 24.1949 5.51729L24.3325 5.76733L24.3762 5.8736L24.37 5.82985L24.3762 5.77358L24.37 5.77984C24.6762 5.69284 24.8679 5.49488 24.9451 5.18597L24.9138 5.19222C25.1451 5.43681 25.4222 5.51182 25.7452 5.41727L25.6952 5.36726C25.6591 5.32799 25.6195 5.29257 25.5764 5.26099L25.4889 5.19848C25.3887 5.12804 25.2783 5.0822 25.1576 5.06095L25.0201 5.03594C24.9009 5.01176 24.7821 5.01384 24.6638 5.0422L24.4825 5.09221C24.383 5.11681 24.2914 5.15848 24.2074 5.21723L23.9886 5.37351C23.9431 5.40675 23.9014 5.44425 23.8636 5.48603L23.6386 5.72983C23.6188 5.74971 23.6 5.77054 23.5823 5.79234L23.3635 6.07989C23.3502 6.09813 23.3377 6.11689 23.326 6.13615L23.151 6.41746C23.1269 6.45535 23.1061 6.49494 23.0885 6.53623L22.9822 6.77378C22.9667 6.81241 22.9542 6.852 22.9447 6.89255L22.9009 7.06758C22.8867 7.12296 22.8783 7.17922 22.8759 7.23636L22.8697 7.35514C22.8642 7.44862 22.8747 7.5403 22.9009 7.63019L22.9197 7.68645C22.9838 7.88378 23.1057 8.03445 23.2852 8.13845C23.4648 8.24245 23.6561 8.27318 23.8592 8.23063C24.0622 8.18809 24.2251 8.08316 24.3479 7.91584C24.4706 7.74852 24.5217 7.56162 24.5012 7.35514L24.495 7.34263C24.4941 7.31753 24.492 7.29253 24.4887 7.26762L24.4637 7.17385C24.4638 7.1676 24.4638 7.16135 24.4637 7.1551L24.42 6.96756L24.3512 6.69251L24.2637 6.31744C24.2619 6.30489 24.2598 6.29238 24.2574 6.27993L24.1387 5.8611C24.1331 5.84212 24.1269 5.82336 24.1199 5.80484L23.9761 5.41102C23.9638 5.37668 23.9492 5.34334 23.9324 5.311L23.7636 4.99219C23.7193 4.90442 23.661 4.82732 23.5886 4.76089L23.3948 4.59211C23.2699 4.47945 23.1241 4.41277 22.9572 4.39207L22.7697 4.37332C22.6591 4.36058 22.5507 4.371 22.4446 4.40457L22.2821 4.45458C22.2631 4.46011 22.2443 4.46636 22.2258 4.47334L22.082 4.5296C22.0715 4.5356 22.061 4.54185 22.0508 4.54835L21.9257 4.60461C21.9173 4.60863 21.909 4.61279 21.9007 4.61711L21.7882 4.67338C21.6232 4.78864 21.5205 4.94489 21.4802 5.14213C21.4399 5.33936 21.4731 5.52336 21.5797 5.69412C21.6863 5.86488 21.8371 5.97545 22.032 6.02583C22.2269 6.07622 22.4124 6.05256 22.5884 5.95487L22.6446 5.91111C22.6736 5.88809 22.7006 5.86309 22.7259 5.8361L22.8759 5.68607C22.8912 5.67004 22.9058 5.65337 22.9197 5.63606L23.1572 5.3485C23.1658 5.34036 23.1741 5.33203 23.1822 5.3235L23.4948 4.90467C23.5034 4.89447 23.5117 4.88405 23.5198 4.87341L23.8699 4.35456C23.8833 4.33431 23.8958 4.31347 23.9074 4.29205L24.2137 3.7357C24.2273 3.7134 24.2398 3.69048 24.2512 3.66693L24.4637 3.17309C24.4767 3.13842 24.4871 3.10299 24.495 3.06682L24.5888 2.71675C24.6183 2.60265 24.6204 2.48804 24.595 2.37294L24.5575 2.20415C24.5324 2.09612 24.4825 2.0011 24.4079 1.91909C24.3332 1.83708 24.2432 1.77854 24.138 1.74347C24.0328 1.7084 23.9257 1.70126 23.8168 1.72207C23.7079 1.74287 23.6109 1.78896 23.526 1.86034ZM24.695 2.4542L24.6638 2.40419C24.5788 2.44209 24.5214 2.50512 24.4916 2.59327C24.4618 2.68142 24.4692 2.76634 24.5137 2.84803L24.72 2.75426C24.9159 2.66674 24.9701 2.52505 24.8826 2.32918C24.795 2.13331 24.6533 2.07913 24.4575 2.16665L24.2512 2.26042C24.3495 2.32981 24.4537 2.34023 24.5637 2.29167L24.5137 2.25416C24.4363 2.20173 24.351 2.17032 24.2581 2.15993C24.1651 2.14954 24.0751 2.16137 23.9879 2.1954C23.9008 2.22943 23.8266 2.28178 23.7653 2.35243C23.704 2.42307 23.6626 2.50393 23.6412 2.59499C23.6197 2.68604 23.6207 2.77686 23.6441 2.86744C23.6675 2.95801 23.7106 3.03796 23.7734 3.10727C23.8362 3.17659 23.9115 3.22732 23.9994 3.25947C24.0872 3.29163 24.1775 3.30151 24.2702 3.28912C24.3629 3.27674 24.4475 3.2435 24.5238 3.18942C24.6001 3.13533 24.6595 3.06661 24.7019 2.98323C24.7443 2.89986 24.7649 2.8114 24.7637 2.71787C24.7625 2.62433 24.7396 2.53644 24.695 2.4542Z" fill="black"/>
</g>
<defs>
<clipPath id="clip0_1_7352">
<rect width="27" height="35" fill="white"/>
</clipPath>
</defs>
</svg>
