<svg width="29" height="30" viewBox="0 0 29 30" fill="none" xmlns="http://www.w3.org/2000/svg">
<g clip-path="url(#clip0_1_7230)">
<path d="M15.4732 14.5067C15.4732 14.7067 15.5732 14.8068 15.7733 14.8068C15.9733 14.8068 16.0733 14.7067 16.0733 14.5067C16.0733 14.3067 15.9733 14.2067 15.7733 14.2067C15.5732 14.2067 15.4732 14.3067 15.4732 14.5067ZM15.9858 14.838L16.2921 14.6567C16.3161 14.6439 16.339 14.6293 16.3609 14.613L16.7922 14.2629C16.8098 14.2471 16.8264 14.2305 16.8422 14.2129L17.4548 13.5878C17.47 13.5738 17.4846 13.5592 17.4986 13.544L18.205 12.7064C18.2114 12.6981 18.2176 12.6898 18.2237 12.6814L19.0426 11.6437C19.0447 11.6437 19.0468 11.6437 19.0489 11.6437L20.0303 10.3934L21.1743 8.99941L22.3808 7.56164L23.581 6.18012L24.675 4.92988L25.6126 3.87969L26.3503 3.06703C26.359 3.05476 26.3673 3.04226 26.3753 3.02952L26.8566 2.42941C26.9143 2.35794 26.9581 2.27876 26.9879 2.19186L27.1317 1.76678C27.1624 1.67041 27.1687 1.57248 27.1504 1.47298L27.1254 1.3167C27.088 1.09459 26.9567 0.979988 26.7316 0.972882L26.5753 0.966631C26.4665 0.964138 26.3644 0.989143 26.269 1.04164L25.8752 1.24793C25.7916 1.29299 25.7187 1.35133 25.6564 1.42297L25.1563 1.99183L24.4187 2.79198L23.456 3.81092C23.4539 3.81299 23.4518 3.81508 23.4497 3.81717L22.312 5.03616C22.3078 5.04028 22.3036 5.04445 22.2995 5.04866L21.0805 6.42392C21.0742 6.43007 21.0679 6.43633 21.0618 6.44267L19.849 7.89295C19.8469 7.89502 19.8449 7.89711 19.8428 7.8992L18.6926 9.30572C18.6884 9.30984 18.6842 9.31401 18.6801 9.31822L17.6986 10.5872C17.6922 10.5954 17.686 10.6038 17.6799 10.6122L16.9047 11.6812C16.9005 11.6874 16.8963 11.6936 16.8922 11.6999L16.2671 12.6063C16.2562 12.6206 16.2458 12.6352 16.2358 12.6501L15.792 13.4065C15.783 13.4228 15.7746 13.4395 15.767 13.4565L15.5232 13.9504C15.5131 13.9747 15.5047 13.9998 15.4982 14.0254L15.3919 14.3692C15.3382 14.546 15.3839 14.6917 15.529 14.8062C15.674 14.9207 15.8263 14.9313 15.9858 14.838ZM26.6691 1.56674L26.6816 1.573C26.8441 1.65203 26.9649 1.61033 27.044 1.4479C27.1231 1.28547 27.0815 1.16463 26.9191 1.0854L26.9066 1.07915C26.7441 1.00005 26.6233 1.04174 26.5441 1.20422C26.465 1.36669 26.5066 1.48753 26.6691 1.56674Z" fill="black"/>
<path d="M26.1814 1.51051C26.1814 1.61927 26.2199 1.71209 26.2968 1.78899C26.3737 1.86589 26.4665 1.90434 26.5753 1.90434C26.684 1.90434 26.7768 1.86589 26.8537 1.78899C26.9306 1.71209 26.9691 1.61927 26.9691 1.51051C26.9691 1.40176 26.9306 1.30894 26.8537 1.23204C26.7768 1.15514 26.684 1.11669 26.5753 1.11669C26.4665 1.11669 26.3737 1.15514 26.2968 1.23204C26.2199 1.30894 26.1814 1.40176 26.1814 1.51051ZM26.8066 1.85433L26.8128 1.84808C26.8149 1.84602 26.817 1.84393 26.8191 1.84183H26.8253C26.9193 1.77484 26.9797 1.68524 27.0066 1.57303L27.0191 1.53552C27.0303 1.4882 27.0344 1.44028 27.0316 1.39174V1.32298C27.0124 1.38191 27.0041 1.44234 27.0066 1.50426L27.0316 1.42925C27.0597 1.33752 27.0638 1.24473 27.0439 1.15088C27.0239 1.05704 26.9825 0.973906 26.9196 0.901486C26.8567 0.829065 26.7802 0.776439 26.69 0.743608C26.5999 0.710777 26.5074 0.701858 26.4127 0.716851C26.3179 0.731844 26.2327 0.768869 26.1571 0.827926C26.0815 0.886982 26.025 0.960664 25.9875 1.04897C25.95 1.13728 25.9363 1.22914 25.9463 1.32455C25.9563 1.41995 25.9889 1.50695 26.0439 1.58553L26.0877 1.64179C26.0938 1.6482 26.1 1.65445 26.1064 1.66054L26.1439 1.7168C26.1995 1.78495 26.2683 1.83496 26.3502 1.86683L26.3877 1.88559C26.4661 1.9184 26.5474 1.92882 26.6315 1.91684H26.644C26.551 1.85335 26.4489 1.83043 26.3377 1.84808L26.344 1.85433C26.4982 1.95872 26.6524 1.95872 26.8066 1.85433ZM27.0691 0.829135L27.0378 0.779125C26.8823 0.528918 26.6572 0.408062 26.3627 0.416556L26.1877 0.422807C26.0859 0.425516 25.988 0.446353 25.8939 0.485319L25.5501 0.629096C25.5201 0.642013 25.4909 0.6566 25.4625 0.672855L24.9187 0.972912C24.9145 0.977037 24.9103 0.981204 24.9062 0.985414L24.1623 1.41675L23.2434 1.9356L22.2682 2.47945L21.368 2.97329C21.3468 2.98287 21.3259 2.99329 21.3055 3.00455L20.6179 3.44838C20.5628 3.48396 20.5128 3.52563 20.4678 3.57341L20.0865 3.97973C19.9596 4.113 19.9034 4.27137 19.9177 4.45482L19.9302 4.6111C20.0331 4.55066 20.0789 4.46106 20.0678 4.3423L19.899 4.44232C19.7365 4.5382 19.7032 4.66737 19.7991 4.82985C19.8949 4.99232 20.024 5.02568 20.1865 4.92991L20.3553 4.8299C20.2553 4.75385 20.1511 4.7476 20.0428 4.81114L20.1678 4.90491C20.3082 5.00852 20.4645 5.04602 20.6366 5.01743L21.1867 4.92991C21.2561 4.91782 21.3228 4.89698 21.3868 4.8674L22.1369 4.52984C22.1539 4.52204 22.1705 4.51371 22.1869 4.50483L23.0996 4.02349C23.108 4.01946 23.1163 4.01529 23.1246 4.01099L24.106 3.46089C24.1081 3.46089 24.1102 3.46089 24.1123 3.46089L25.0312 2.92953C25.0333 2.92746 25.0354 2.92538 25.0375 2.92328L25.7814 2.4857C25.7855 2.48365 25.7897 2.48157 25.7939 2.47945L26.3252 2.15439C26.3315 2.1503 26.3378 2.14613 26.344 2.14188L26.6628 1.94185C26.682 1.93011 26.7008 1.91761 26.719 1.90434L26.8253 1.81682L26.8441 1.80432C27.0101 1.70097 27.1151 1.55402 27.1591 1.36346C27.2031 1.17289 27.1731 0.994787 27.0691 0.829135Z" fill="black"/>
<path d="M26.7316 1.20418C26.7316 1.31293 26.77 1.40575 26.8469 1.48265C26.9238 1.55955 27.0166 1.598 27.1254 1.598C27.2341 1.598 27.327 1.55955 27.4039 1.48265C27.4808 1.40575 27.5192 1.31293 27.5192 1.20418C27.5192 1.09542 27.4808 1.0026 27.4039 0.9257C27.327 0.848801 27.2341 0.810351 27.1254 0.810351C27.0166 0.810351 26.9238 0.848801 26.8469 0.9257C26.77 1.0026 26.7316 1.09542 26.7316 1.20418ZM26.7003 1.20418C26.7003 1.31983 26.7412 1.41855 26.823 1.50033C26.9048 1.58211 27.0035 1.62301 27.1191 1.62301C27.2348 1.62301 27.3335 1.58211 27.4153 1.50033C27.4971 1.41855 27.538 1.31983 27.538 1.20418C27.538 1.08852 27.4971 0.9898 27.4153 0.908019C27.3335 0.826237 27.2348 0.785346 27.1191 0.785346C27.0035 0.785346 26.9048 0.826237 26.823 0.908019C26.7412 0.9898 26.7003 1.08852 26.7003 1.20418ZM26.6003 1.24793C26.6003 1.38431 26.6485 1.50071 26.7449 1.59713C26.8414 1.69356 26.9578 1.74178 27.0941 1.74178C27.2305 1.74178 27.3469 1.69356 27.4433 1.59713C27.5398 1.50071 27.588 1.38431 27.588 1.24793C27.588 1.11156 27.5398 0.995163 27.4433 0.898734C27.3469 0.802305 27.2305 0.75409 27.0941 0.75409C26.9578 0.75409 26.8414 0.802305 26.7449 0.898734C26.6485 0.995163 26.6003 1.11156 26.6003 1.24793ZM26.594 0.904119L26.4002 1.0854C26.3237 1.15469 26.2633 1.23596 26.219 1.3292L26.0064 1.78554C25.9891 1.82199 25.9745 1.8595 25.9627 1.89806L25.7251 2.6607C25.7206 2.67518 25.7164 2.68976 25.7126 2.70446L25.4501 3.76091C25.4447 3.78573 25.4406 3.81073 25.4376 3.83593L25.25 5.06116L25.0687 6.23638C25.0641 6.26956 25.062 6.3029 25.0625 6.3364L25.0687 7.31159C25.0687 7.31576 25.0687 7.31992 25.0687 7.32409L25.0875 8.00547L25 8.4493C24.9869 8.60979 25.0594 8.7051 25.2176 8.73523C25.3758 8.76535 25.4783 8.70339 25.5251 8.54932L25.6126 8.11174L25.8939 7.48662L26.294 6.59895C26.3038 6.57446 26.3122 6.54946 26.319 6.52394L26.6628 5.39247L27.0441 4.21725C27.0463 4.20895 27.0484 4.20061 27.0504 4.19224L27.3504 3.1483C27.3525 3.14415 27.3546 3.13998 27.3567 3.13579L27.5692 2.3669C27.5739 2.35036 27.5781 2.33369 27.5817 2.31689L27.688 1.82304C27.7044 1.7445 27.7085 1.66532 27.7005 1.5855L27.6755 1.32295C27.649 1.05807 27.5116 0.877557 27.2634 0.781419C27.0151 0.685281 26.792 0.726181 26.594 0.904119Z" fill="black"/>
<path d="M13.1602 16.3318C13.1601 16.444 13.1998 16.5398 13.2792 16.6191C13.3585 16.6985 13.4543 16.7382 13.5665 16.7382C13.6787 16.7382 13.7745 16.6985 13.8538 16.6191C13.9331 16.5398 13.9728 16.444 13.9728 16.3318C13.9728 16.2196 13.9331 16.1239 13.8538 16.0445C13.7745 15.9652 13.6787 15.9255 13.5665 15.9255C13.4543 15.9255 13.3585 15.9652 13.2792 16.0445C13.1998 16.1239 13.1601 16.2196 13.1602 16.3318ZM13.1226 16.3318C13.1226 16.4527 13.1654 16.5558 13.2508 16.6412C13.3363 16.7267 13.4394 16.7694 13.5602 16.7694C13.6811 16.7694 13.7842 16.7267 13.8696 16.6412C13.9551 16.5558 13.9978 16.4527 13.9978 16.3318C13.9978 16.211 13.9551 16.1079 13.8696 16.0224C13.7842 15.937 13.6811 15.8942 13.5602 15.8942C13.4394 15.8942 13.3363 15.937 13.2508 16.0224C13.1654 16.1079 13.1226 16.211 13.1226 16.3318ZM13.5727 15.8442L13.4665 15.8317C13.3519 15.8204 13.2436 15.8412 13.1414 15.8942L12.8601 16.0443C12.8175 16.067 12.7779 16.0941 12.7413 16.1255L12.2475 16.5444C12.2345 16.5564 12.222 16.5689 12.21 16.5819L10.5534 18.2072L9.4907 19.2636L8.27172 20.4201L6.98398 21.6328C6.98188 21.6349 6.97979 21.637 6.97772 21.6391L5.72749 22.8331C5.72539 22.8351 5.72331 22.8372 5.72123 22.8393L4.60852 23.9333C4.60426 23.9395 4.60009 23.9457 4.59602 23.952L3.65834 24.9335C3.64296 24.9494 3.62838 24.9661 3.61458 24.9835L2.9082 25.8774C2.89698 25.8936 2.88656 25.9102 2.87694 25.9274L2.37685 26.7026C2.3677 26.7167 2.35936 26.7313 2.35184 26.7463L2.07054 27.3214L1.77673 27.6527C1.66013 27.7861 1.66849 27.9111 1.8018 28.0277C1.93511 28.1444 2.06012 28.1361 2.17681 28.0028L2.46436 27.6715L3.00197 27.3277C3.01276 27.3198 3.02318 27.3115 3.03322 27.3027L3.76461 26.7463C3.77766 26.7344 3.79016 26.7218 3.80212 26.7088L4.63978 25.9399C4.64832 25.9318 4.65666 25.9234 4.66478 25.9149L5.62122 24.9522L6.72768 23.8708L7.97166 22.6768L9.25941 21.4578C9.2615 21.4557 9.26359 21.4536 9.26566 21.4516L10.4784 20.2763C10.4805 20.2763 10.4826 20.2763 10.4846 20.2763L11.5536 19.2199C11.5536 19.2178 11.5536 19.2157 11.5536 19.2136L13.1914 17.5633C13.1977 17.5592 13.204 17.5551 13.2102 17.5508L13.6477 17.0757C13.6681 17.0541 13.6868 17.0312 13.704 17.007L13.8853 16.7507C13.9134 16.7118 13.9363 16.6701 13.9541 16.6256L13.9916 16.5319C14.0523 16.3762 14.0392 16.2271 13.9523 16.0844C13.8654 15.9417 13.7389 15.8617 13.5727 15.8442Z" fill="black"/>
<path d="M3.75209 22.9769C3.75209 23.0874 3.79115 23.1817 3.86927 23.2598C3.94739 23.3379 4.04168 23.377 4.15216 23.377C4.26264 23.377 4.35694 23.3379 4.43506 23.2598C4.51318 23.1817 4.55224 23.0874 4.55224 22.9769C4.55224 22.8664 4.51318 22.7721 4.43506 22.694C4.35694 22.6159 4.26264 22.5768 4.15216 22.5768C4.04168 22.5768 3.94739 22.6159 3.86927 22.694C3.79115 22.7721 3.75209 22.8664 3.75209 22.9769ZM3.97088 22.5706L3.89586 22.6018C3.82617 22.6274 3.76366 22.6649 3.70833 22.7144L3.53329 22.8706C3.49582 22.9045 3.46248 22.942 3.43328 22.9832L3.18948 23.3332C3.17614 23.3514 3.16364 23.3702 3.15197 23.3895L2.83941 23.9271L2.42058 24.6272L1.92049 25.4149L1.38289 26.2213C1.38288 26.2234 1.38288 26.2254 1.38289 26.2275L0.901544 26.9714C0.895047 26.9817 0.888796 26.9921 0.88279 27.0027L0.51397 27.6278C0.507252 27.6422 0.501001 27.6568 0.495216 27.6716L0.238917 28.1779C0.226811 28.2043 0.216392 28.2314 0.207662 28.2592L0.0763865 28.628C0.0514677 28.6966 0.0389653 28.7675 0.0388794 28.8405L0.0451306 29.0531C0.0454175 29.1402 0.0672265 29.2215 0.110558 29.2971C0.153889 29.3727 0.213072 29.4326 0.288107 29.4768C0.363142 29.5211 0.44421 29.5439 0.531311 29.5452C0.618412 29.5466 0.700148 29.5263 0.77652 29.4844L0.957804 29.3844C1.02444 29.3491 1.08279 29.3032 1.13284 29.2469L1.38914 28.9468C1.40451 28.9308 1.4191 28.9141 1.43289 28.8968L1.76421 28.4342C1.76422 28.4321 1.76422 28.43 1.76421 28.4279L2.18304 27.8341C2.1873 27.8279 2.19146 27.8216 2.19554 27.8153L2.68313 27.0777L3.22074 26.265C3.22283 26.263 3.22491 26.2609 3.22699 26.2588L3.73958 25.4524C3.74384 25.4462 3.74801 25.4399 3.75209 25.4336L4.17717 24.721C4.1861 24.7046 4.19444 24.6879 4.20217 24.671L4.48348 24.1146C4.50634 24.0726 4.5251 24.0289 4.53974 23.9833L4.65851 23.577C4.67867 23.5054 4.68701 23.4325 4.68351 23.3582L4.67726 23.1207C4.67242 23.0294 4.64741 22.9439 4.60225 22.8644L4.55849 22.7894C4.42522 22.5483 4.22935 22.4754 3.97088 22.5706ZM0.232666 29.0593L0.220164 29.0906C0.153485 29.2573 0.203494 29.374 0.370192 29.4406C0.536891 29.5073 0.65358 29.4573 0.720259 29.2906L0.732761 29.2594C0.799186 29.0928 0.74914 28.9762 0.582623 28.9096C0.416107 28.843 0.299454 28.8929 0.232666 29.0593Z" fill="black"/>
<path d="M0.145141 29.2468C0.145142 29.3573 0.184201 29.4516 0.262321 29.5297C0.340441 29.6079 0.43474 29.6469 0.545218 29.6469C0.655696 29.6469 0.749995 29.6079 0.828114 29.5297C0.906234 29.4516 0.945294 29.3573 0.945294 29.2468C0.945294 29.1364 0.906234 29.0421 0.828114 28.9639C0.749995 28.8858 0.655696 28.8468 0.545218 28.8468C0.43474 28.8468 0.340441 28.8858 0.262321 28.9639C0.184201 29.0421 0.145142 29.1364 0.145141 29.2468ZM0.132639 29.2468C0.132639 29.3608 0.17292 29.458 0.253481 29.5386C0.334042 29.6191 0.431287 29.6594 0.545218 29.6594C0.659148 29.6594 0.756394 29.6191 0.836955 29.5386C0.917516 29.458 0.957796 29.3608 0.957796 29.2468C0.957796 29.1329 0.917516 29.0357 0.836955 28.9551C0.756394 28.8745 0.659148 28.8343 0.545218 28.8343C0.431287 28.8343 0.334042 28.8745 0.253481 28.9551C0.17292 29.0357 0.132639 29.1329 0.132639 29.2468ZM0.101383 29.2406C0.101383 29.3632 0.144715 29.4678 0.231379 29.5544C0.318043 29.6411 0.422656 29.6844 0.545218 29.6844C0.667779 29.6844 0.772392 29.6411 0.859056 29.5544C0.94572 29.4678 0.989052 29.3632 0.989052 29.2406C0.989052 29.118 0.94572 29.0134 0.859056 28.9268C0.772392 28.8401 0.667779 28.7968 0.545218 28.7968C0.422656 28.7968 0.318043 28.8401 0.231379 28.9268C0.144715 29.0134 0.101383 29.118 0.101383 29.2406ZM0.307672 29.6469L0.338928 29.6657C0.503549 29.7635 0.674415 29.776 0.851526 29.7032L1.41413 29.4719C1.44883 29.4579 1.48217 29.4413 1.51415 29.4219L2.008 29.1093L2.66437 28.703L3.45827 28.2279L4.30218 27.7216C4.31931 27.7119 4.33598 27.7014 4.35219 27.6903L5.10859 27.1464C5.13067 27.1313 5.15151 27.1147 5.1711 27.0964L5.70245 26.5776L6.2338 26.3463C6.35372 26.266 6.38567 26.1593 6.32966 26.0263C6.27365 25.8932 6.17502 25.8416 6.03376 25.8712L5.48991 26.1025L4.74602 26.1713C4.70335 26.1746 4.66167 26.183 4.62099 26.1963L3.73958 26.4963C3.7072 26.5085 3.67594 26.5231 3.64581 26.5401L2.77064 26.9964C2.75795 27.0023 2.74545 27.0085 2.73313 27.0152L1.93298 27.4965C1.92666 27.5006 1.92041 27.5047 1.91423 27.509L1.2641 27.9216C1.25779 27.9257 1.25154 27.9298 1.24535 27.9341L0.764009 28.2654C0.732976 28.286 0.703803 28.3089 0.676493 28.3342L0.232658 28.7593C0.0728022 28.9144 0.020709 29.0999 0.0763784 29.3156L0.0888808 29.3531C0.122115 29.4806 0.195046 29.5785 0.307672 29.6469Z" fill="black"/>
<path d="M16.3729 16.6385C16.3729 16.7473 16.4114 16.8401 16.4883 16.917C16.5652 16.9939 16.658 17.0323 16.7668 17.0323C16.8755 17.0323 16.9683 16.9939 17.0452 16.917C17.1221 16.8401 17.1606 16.7473 17.1606 16.6385C17.1606 16.5298 17.1221 16.4369 17.0452 16.36C16.9683 16.2831 16.8755 16.2447 16.7668 16.2447C16.658 16.2447 16.5652 16.2831 16.4883 16.36C16.4114 16.4369 16.3729 16.5298 16.3729 16.6385ZM16.598 16.2509L16.5792 16.2572C16.5013 16.2908 16.4388 16.3429 16.3917 16.4135L16.3729 16.426C16.1635 16.6154 16.1365 16.828 16.2919 17.0638C16.4472 17.2996 16.6533 17.3587 16.91 17.2411C17.1667 17.1235 17.2565 16.9289 17.1793 16.6573L17.1543 16.5822C17.1488 16.6419 17.155 16.7002 17.1731 16.7573L17.1793 16.7073C17.1801 16.6927 17.1801 16.6781 17.1793 16.6635V16.6448C17.1822 16.4933 17.1209 16.3751 16.9955 16.2901C16.8701 16.2052 16.7376 16.1921 16.598 16.2509ZM16.3667 16.3822L16.3042 16.426C16.1073 16.5448 15.9906 16.7177 15.9541 16.9448L15.9291 17.1136C15.9011 17.3042 15.9344 17.4834 16.0291 17.6512L16.1854 17.9325C16.2305 18.014 16.2867 18.087 16.3542 18.1513L16.7605 18.5389C16.7805 18.5585 16.8013 18.5773 16.823 18.5951L17.5044 19.1327L18.4421 19.9141C18.4442 19.9141 18.4462 19.9141 18.4483 19.9141L19.6173 20.8768L20.8863 22.0145L22.2303 23.2335L23.5243 24.4087L24.6808 25.4652C24.7084 25.4901 24.7376 25.513 24.7683 25.5339L25.8185 26.2528C25.8615 26.2814 25.9074 26.3043 25.956 26.3216L26.7312 26.6029L27.1437 26.9967C27.2729 27.1176 27.3979 27.1134 27.5188 26.9842C27.6397 26.855 27.6355 26.73 27.5063 26.6092L27.0875 26.2216L26.7499 25.4714C26.7287 25.4221 26.7016 25.3763 26.6686 25.3339L25.8872 24.34C25.8605 24.3064 25.8313 24.2752 25.7997 24.2462L24.6495 23.1835L23.3618 21.9958L22.0303 20.7705L20.7738 19.5953L19.6861 18.5326C19.674 18.5176 19.6615 18.5031 19.6486 18.4889L18.7171 17.6887C18.7089 17.6823 18.7006 17.6761 18.6921 17.6699L18.017 17.1136C18.0047 17.105 17.9922 17.0966 17.9795 17.0886L17.5294 16.7573L17.2731 16.5635C17.271 16.5614 17.2689 16.5593 17.2669 16.5572L17.1356 16.4572C17.1019 16.4334 17.0665 16.4126 17.0293 16.3947L16.9605 16.3572C16.758 16.2557 16.56 16.264 16.3667 16.3822Z" fill="black"/>
<path d="M22.5053 26.009C22.5053 26.1108 22.5413 26.1977 22.6133 26.2698C22.6853 26.3418 22.7722 26.3778 22.8741 26.3778C22.9759 26.3778 23.0629 26.3418 23.1349 26.2698C23.2069 26.1977 23.2429 26.1108 23.2429 26.009C23.2429 25.9071 23.2069 25.8202 23.1349 25.7482C23.0629 25.6762 22.9759 25.6401 22.8741 25.6401C22.7722 25.6401 22.6853 25.6762 22.6133 25.7482C22.5413 25.8202 22.5053 25.9071 22.5053 26.009ZM22.474 26.009C22.474 26.1177 22.5125 26.2105 22.5894 26.2874C22.6663 26.3643 22.7591 26.4028 22.8678 26.4028C22.9766 26.4028 23.0694 26.3643 23.1463 26.2874C23.2232 26.2105 23.2617 26.1177 23.2617 26.009C23.2617 25.9002 23.2232 25.8074 23.1463 25.7305C23.0694 25.6536 22.9766 25.6151 22.8678 25.6151C22.7591 25.6151 22.6663 25.6536 22.5894 25.7305C22.5125 25.8074 22.474 25.9002 22.474 26.009ZM22.3928 26.0027C22.3928 26.1391 22.441 26.2555 22.5374 26.3519C22.6338 26.4483 22.7502 26.4966 22.8866 26.4966C23.023 26.4966 23.1394 26.4483 23.2358 26.3519C23.3322 26.2555 23.3804 26.1391 23.3804 26.0027C23.3804 25.8663 23.3322 25.7499 23.2358 25.6535C23.1394 25.5571 23.023 25.5089 22.8866 25.5089C22.7502 25.5089 22.6338 25.5571 22.5374 25.6535C22.441 25.7499 22.3928 25.8663 22.3928 26.0027ZM22.6553 26.4966L22.8053 26.5903C22.8466 26.6179 22.8904 26.6409 22.9366 26.6591L23.2429 26.7654C23.2512 26.7697 23.2595 26.7739 23.2679 26.7779L23.7555 26.9404L24.4306 27.1842L25.2621 27.5218C25.2865 27.5335 25.3115 27.5439 25.3371 27.553L26.2997 27.8281C26.3101 27.8304 26.3205 27.8325 26.331 27.8343L27.2749 28.0594C27.2791 28.0594 27.2833 28.0594 27.2874 28.0594L28.0813 28.2281L28.6377 28.4719C28.7735 28.5058 28.8698 28.4587 28.9266 28.3309C28.9835 28.203 28.9538 28.1 28.8377 28.0218L28.2814 27.7781L27.6313 27.2967C27.6292 27.2946 27.6271 27.2925 27.625 27.2905L26.8436 26.7216C26.8314 26.7128 26.8189 26.7045 26.8061 26.6966L25.9559 26.1652C25.922 26.1437 25.8866 26.1249 25.8497 26.109L25.0058 25.7527C24.9954 25.7483 24.985 25.7441 24.9745 25.7402L24.2806 25.4839C24.2499 25.4736 24.2186 25.4652 24.1868 25.4589L23.668 25.3338C23.6207 25.3229 23.5728 25.3167 23.5242 25.3151L23.1929 25.3088C23.069 25.3046 22.9523 25.3317 22.8428 25.3901L22.6866 25.4776C22.5953 25.5284 22.5225 25.5985 22.4682 25.6877C22.4139 25.777 22.3852 25.8738 22.3819 25.9782C22.3787 26.0826 22.4015 26.1811 22.4502 26.2735C22.499 26.3659 22.5673 26.4402 22.6553 26.4966Z" fill="black"/>
<path d="M26.0373 23.1897C26.0373 23.2881 26.0721 23.3721 26.1416 23.4417C26.2112 23.5113 26.2952 23.546 26.3936 23.546C26.492 23.546 26.576 23.5113 26.6455 23.4417C26.7151 23.3721 26.7499 23.2881 26.7499 23.1897C26.7499 23.0913 26.7151 23.0073 26.6455 22.9378C26.576 22.8682 26.492 22.8334 26.3936 22.8334C26.2952 22.8334 26.2112 22.8682 26.1416 22.9378C26.0721 23.0073 26.0373 23.0913 26.0373 23.1897ZM25.981 23.196C25.981 23.3099 26.0213 23.4071 26.1019 23.4877C26.1824 23.5683 26.2797 23.6086 26.3936 23.6086C26.5075 23.6086 26.6048 23.5683 26.6853 23.4877C26.7659 23.4071 26.8062 23.3099 26.8062 23.196C26.8062 23.082 26.7659 22.9848 26.6853 22.9042C26.6048 22.8237 26.5075 22.7834 26.3936 22.7834C26.2797 22.7834 26.1824 22.8237 26.1019 22.9042C26.0213 22.9848 25.981 23.082 25.981 23.196ZM26.0873 22.8959L26.0685 22.9147C26.0621 22.9208 26.0559 22.927 26.0498 22.9334L26.006 22.9772C25.9746 23.0093 25.9475 23.0447 25.9248 23.0835L25.8685 23.1835C25.8377 23.2343 25.8148 23.2885 25.7997 23.346L25.7497 23.5648C25.737 23.6182 25.7307 23.6724 25.731 23.7273L25.7372 24.1774C25.7381 24.2389 25.7465 24.2993 25.7622 24.3587L25.9373 25.0526C25.9532 25.1117 25.9762 25.1679 26.006 25.2214L26.4624 26.059C26.4769 26.0874 26.4936 26.1145 26.5124 26.1403L27.175 27.0029C27.177 27.0051 27.1791 27.0071 27.1812 27.0092L27.8314 27.8094L28.3002 28.5032C28.3961 28.6408 28.5127 28.6616 28.6503 28.5657C28.7878 28.4699 28.8086 28.3532 28.7128 28.2157L28.2564 27.5406L27.8626 26.6279L27.5813 25.6277L27.3938 24.715C27.3919 24.7046 27.3898 24.6941 27.3875 24.6838L27.2125 23.9899C27.2106 23.9794 27.2085 23.969 27.2062 23.9586L27.075 23.521C27.0677 23.4998 27.0593 23.479 27.05 23.4585L26.9687 23.2522C26.9577 23.2285 26.9452 23.2056 26.9312 23.1835L26.8749 23.0835C26.8522 23.0447 26.8251 23.0093 26.7937 22.9772L26.7499 22.9334C26.7147 22.8983 26.6751 22.8691 26.6311 22.8459L26.6061 22.8334C26.4183 22.7309 26.2454 22.7518 26.0873 22.8959Z" fill="black"/>
<path d="M13.3039 12.3748L13.2976 12.3561C13.2688 12.2448 13.2035 12.1627 13.1017 12.1095C12.9998 12.0564 12.895 12.0498 12.7873 12.0899C12.6796 12.1299 12.6046 12.2033 12.5622 12.3101C12.5198 12.4169 12.524 12.5218 12.5749 12.6248C12.6258 12.7278 12.7065 12.7949 12.8171 12.8261C12.9277 12.8574 13.0316 12.8424 13.1288 12.7812L13.1476 12.7687C13.2942 12.6749 13.3463 12.5436 13.3039 12.3748ZM13.3039 12.2623L13.2601 12.131C13.2355 12.0518 13.1959 11.981 13.1413 11.9185L12.9601 11.7122C12.95 11.7014 12.9396 11.691 12.9288 11.6809L12.2537 11.0246C12.2436 11.0138 12.2332 11.0034 12.2224 10.9933L11.6911 10.537C11.6849 10.5306 11.6787 10.5244 11.6723 10.5182L10.9784 9.95562C10.9743 9.9535 10.9701 9.95141 10.9659 9.94937L10.1095 9.28049C10.1074 9.2784 10.1054 9.27631 10.1033 9.27424L9.09682 8.51785L8.00912 7.70519L6.93391 6.85503L5.93372 5.99237C5.93165 5.99027 5.92957 5.98819 5.92747 5.98612L5.0148 5.22972C5.00075 5.21855 4.98616 5.20813 4.97104 5.19847L4.25215 4.71087L3.85833 4.22953C3.74301 4.12495 3.6244 4.12107 3.5025 4.21788C3.38059 4.31469 3.35751 4.43109 3.43324 4.5671L3.83332 5.06719L4.21464 5.85484C4.22847 5.88564 4.24514 5.91481 4.26465 5.94236L4.97729 6.88629C4.99269 6.90814 5.00936 6.92898 5.0273 6.9488L5.95247 7.91148C5.96452 7.92444 5.97702 7.93694 5.98998 7.94899L7.04018 8.88042C7.0544 8.89135 7.06899 8.90177 7.08394 8.91167L8.15914 9.74933C8.16537 9.75149 8.17162 9.75358 8.1779 9.75558L9.17809 10.4995L10.0283 11.1558L10.7346 11.6997C10.7408 11.704 10.7471 11.7081 10.7534 11.7122L11.316 12.131C11.3282 12.1398 11.3407 12.1481 11.3535 12.156L12.1412 12.6624C12.1534 12.6712 12.1659 12.6795 12.1787 12.6874L12.4225 12.8187C12.5118 12.8687 12.6076 12.8937 12.71 12.8937L12.8475 12.8874C13.0093 12.8864 13.1379 12.8206 13.2333 12.6899C13.3287 12.5592 13.3522 12.4167 13.3039 12.2623Z" fill="black"/>
<path d="M2.62677 4.07948C2.62677 4.28785 2.73095 4.39204 2.93933 4.39204C3.1477 4.39204 3.25189 4.28785 3.25189 4.07948C3.25189 3.87111 3.1477 3.76692 2.93933 3.76692C2.73095 3.76692 2.62677 3.87111 2.62677 4.07948ZM2.51425 4.07323C2.51425 4.18716 2.55453 4.28441 2.63509 4.36497C2.71565 4.44553 2.81289 4.48581 2.92682 4.48581C3.04075 4.48581 3.138 4.44553 3.21856 4.36497C3.29912 4.28441 3.3394 4.18716 3.3394 4.07323C3.3394 3.9593 3.29912 3.86205 3.21856 3.78149C3.138 3.70093 3.04075 3.66065 2.92682 3.66065C2.81289 3.66065 2.71565 3.70093 2.63509 3.78149C2.55453 3.86205 2.51425 3.9593 2.51425 4.07323ZM2.47049 4.06073C2.47049 4.18329 2.51382 4.2879 2.60048 4.37457C2.68715 4.46123 2.79176 4.50456 2.91432 4.50456C3.03688 4.50456 3.1415 4.46123 3.22816 4.37457C3.31482 4.2879 3.35816 4.18329 3.35816 4.06073C3.35816 3.93817 3.31482 3.83355 3.22816 3.74689C3.1415 3.66023 3.03688 3.61689 2.91432 3.61689C2.79176 3.61689 2.68715 3.66023 2.60048 3.74689C2.51382 3.83355 2.47049 3.93817 2.47049 4.06073ZM2.42048 4.04197C2.42048 4.17489 2.46747 4.28835 2.56146 4.38233C2.65545 4.47632 2.7689 4.52332 2.90182 4.52332C3.03474 4.52332 3.14819 4.47632 3.24218 4.38233C3.33617 4.28835 3.38316 4.17489 3.38316 4.04197C3.38316 3.90906 3.33617 3.7956 3.24218 3.70161C3.14819 3.60763 3.03474 3.56063 2.90182 3.56063C2.7689 3.56063 2.65545 3.60763 2.56146 3.70161C2.46747 3.7956 2.42048 3.90906 2.42048 4.04197ZM2.37672 4.02322C2.37672 4.16477 2.42676 4.28559 2.52686 4.38568C2.62695 4.48577 2.74777 4.53582 2.88932 4.53582C3.03087 4.53582 3.15169 4.48577 3.25178 4.38568C3.35187 4.28559 3.40191 4.16477 3.40191 4.02322C3.40191 3.88167 3.35187 3.76085 3.25178 3.66076C3.15169 3.56067 3.03087 3.51062 2.88932 3.51062C2.74777 3.51062 2.62695 3.56067 2.52686 3.66076C2.42676 3.76085 2.37672 3.88167 2.37672 4.02322ZM2.27045 4.02947C2.27045 4.20037 2.33087 4.34624 2.45171 4.46708C2.57255 4.58792 2.71842 4.64834 2.88932 4.64834C3.06021 4.64834 3.20608 4.58792 3.32692 4.46708C3.44776 4.34624 3.50818 4.20037 3.50818 4.02947C3.50818 3.85858 3.44776 3.71271 3.32692 3.59187C3.20608 3.47102 3.06021 3.4106 2.88932 3.4106C2.71842 3.4106 2.57255 3.47102 2.45171 3.59187C2.33087 3.71271 2.27045 3.85858 2.27045 4.02947ZM2.19543 4.09823V4.25451C2.19681 4.34696 2.21348 4.43656 2.24544 4.52332L2.35171 4.84838C2.36113 4.87176 2.37155 4.89468 2.38297 4.91714L2.60176 5.41098L2.89557 6.09236C2.89556 6.09445 2.89556 6.09653 2.89557 6.09862L3.23938 6.88001C3.25525 6.91897 3.274 6.95647 3.29564 6.99254L3.74573 7.69267C3.78639 7.75548 3.8364 7.80966 3.89576 7.8552L4.3521 8.19902L4.55838 8.65535C4.63757 8.82205 4.76051 8.86581 4.9272 8.78663C5.0939 8.70745 5.13766 8.58451 5.05848 8.41781L4.85219 7.98022L4.93346 7.43012C4.94049 7.3673 4.9384 7.30479 4.9272 7.24258L4.80218 6.42368C4.79649 6.38558 4.78816 6.34808 4.77718 6.31116L4.53338 5.4985C4.52636 5.47101 4.51803 5.44392 4.50837 5.41724L4.22707 4.72961C4.21576 4.704 4.20326 4.679 4.18956 4.65459L3.93327 4.167C3.9135 4.12558 3.89058 4.08599 3.8645 4.04823L3.65821 3.77317C3.60087 3.69642 3.53211 3.63182 3.45192 3.57939L3.3144 3.49187C3.07363 3.33614 2.82719 3.32658 2.57508 3.46319C2.32297 3.59981 2.19643 3.81149 2.19543 4.09823Z" fill="black"/>
<path d="M2.32679 4.06699C2.32679 4.17747 2.36585 4.27177 2.44397 4.34989C2.52209 4.42801 2.61639 4.46707 2.72687 4.46707C2.83735 4.46707 2.93164 4.42801 3.00976 4.34989C3.08788 4.27177 3.12694 4.17747 3.12694 4.06699C3.12694 3.95651 3.08788 3.86221 3.00976 3.78409C2.93164 3.70597 2.83735 3.66691 2.72687 3.66691C2.61639 3.66691 2.52209 3.70597 2.44397 3.78409C2.36585 3.86221 2.32679 3.95651 2.32679 4.06699ZM2.30179 4.06699C2.30179 4.18437 2.34329 4.28457 2.42629 4.36757C2.50929 4.45057 2.60949 4.49207 2.72687 4.49207C2.84425 4.49207 2.94444 4.45057 3.02745 4.36757C3.11045 4.28457 3.15195 4.18437 3.15195 4.06699C3.15195 3.94961 3.11045 3.84942 3.02745 3.76641C2.94444 3.68341 2.84425 3.64191 2.72687 3.64191C2.60949 3.64191 2.50929 3.68341 2.42629 3.76641C2.34329 3.84942 2.30179 3.94961 2.30179 4.06699ZM2.22052 4.06699C2.22052 4.20509 2.26935 4.32296 2.367 4.42061C2.46465 4.51826 2.58252 4.56709 2.72062 4.56709C2.85871 4.56709 2.97659 4.51826 3.07424 4.42061C3.17189 4.32296 3.22071 4.20509 3.22071 4.06699C3.22071 3.92889 3.17189 3.81102 3.07424 3.71337C2.97659 3.61572 2.85871 3.5669 2.72062 3.5669C2.58252 3.5669 2.46465 3.61572 2.367 3.71337C2.26935 3.81102 2.22052 3.92889 2.22052 4.06699ZM2.18301 4.07324C2.18301 4.2217 2.2355 4.34841 2.34047 4.45338C2.44545 4.55836 2.57216 4.61084 2.72062 4.61084C2.86907 4.61084 2.99579 4.55836 3.10076 4.45338C3.20573 4.34841 3.25822 4.2217 3.25822 4.07324C3.25822 3.92479 3.20573 3.79807 3.10076 3.6931C2.99579 3.58813 2.86907 3.53564 2.72062 3.53564C2.57216 3.53564 2.44545 3.58813 2.34047 3.6931C2.2355 3.79807 2.18301 3.92479 2.18301 4.07324ZM2.20802 3.89821L2.20177 3.92321C2.12121 4.1417 2.1483 4.3459 2.28303 4.53583L2.38305 4.67336C2.48324 4.81065 2.61451 4.90442 2.77688 4.95466L3.1332 5.06718C3.16394 5.07743 3.1952 5.08577 3.22696 5.09219L3.80832 5.19846C3.82693 5.20329 3.84568 5.20746 3.86458 5.21096L4.67099 5.30473C4.69797 5.3082 4.72506 5.31029 4.75225 5.31098L5.70243 5.32973C5.72546 5.32878 5.74838 5.3267 5.7712 5.32348L6.76514 5.24847C6.77352 5.24658 6.78186 5.2445 6.79014 5.24221L7.77783 5.11094C7.78825 5.11135 7.79867 5.11135 7.80909 5.11094L8.62174 4.94216L9.24061 4.89215C9.41564 4.87965 9.49691 4.78588 9.4844 4.61084C9.4719 4.43581 9.37813 4.35455 9.2031 4.36705L8.59048 4.41081L7.77783 4.32329L6.8214 4.18576L5.88372 3.95447C5.8775 3.9523 5.87125 3.95021 5.86497 3.94822L4.93979 3.74193C4.91912 3.73692 4.89828 3.73276 4.87728 3.72943L4.07713 3.61691L3.49576 3.52939L3.13945 3.46688C3.04776 3.45021 2.95608 3.45021 2.86439 3.46688L2.70186 3.49813C2.59526 3.51835 2.49941 3.56211 2.41431 3.62941L2.39555 3.64191C2.30879 3.70959 2.24627 3.79503 2.20802 3.89821Z" fill="black"/>
<path d="M2.88939 4.41702C2.88939 4.52923 2.92906 4.625 3.0084 4.70434C3.08774 4.78368 3.18351 4.82335 3.29572 4.82335C3.40792 4.82335 3.50369 4.78368 3.58303 4.70434C3.66237 4.625 3.70204 4.52923 3.70204 4.41702C3.70204 4.30482 3.66237 4.20904 3.58303 4.1297C3.50369 4.05036 3.40792 4.01069 3.29572 4.01069C3.18351 4.01069 3.08774 4.05036 3.0084 4.1297C2.92906 4.20904 2.88939 4.30482 2.88939 4.41702ZM2.80812 4.42327C2.80812 4.55792 2.85573 4.67284 2.95094 4.76805C3.04614 4.86326 3.16107 4.91087 3.29572 4.91087C3.43036 4.91087 3.54529 4.86326 3.6405 4.76805C3.7357 4.67284 3.78331 4.55792 3.78331 4.42327C3.78331 4.28863 3.7357 4.1737 3.6405 4.07849C3.54529 3.98328 3.43036 3.93568 3.29572 3.93568C3.16107 3.93568 3.04614 3.98328 2.95094 4.07849C2.85573 4.1737 2.80812 4.28863 2.80812 4.42327ZM2.67685 4.46703C2.67691 4.63616 2.73674 4.78051 2.85635 4.90008C2.97597 5.01965 3.12034 5.07944 3.28946 5.07944C3.45859 5.07944 3.60296 5.01965 3.72258 4.90008C3.84219 4.78051 3.90202 4.63616 3.90208 4.46703C3.90202 4.2979 3.84219 4.15355 3.72258 4.03398C3.60296 3.91441 3.45859 3.85463 3.28946 3.85463C3.12034 3.85463 2.97597 3.91441 2.85635 4.03398C2.73674 4.15355 2.67691 4.2979 2.67685 4.46703ZM2.58933 4.34201L2.52057 4.54204C2.4882 4.63733 2.47361 4.73527 2.47681 4.83585L2.48306 5.22968C2.4845 5.26955 2.48867 5.30914 2.49556 5.34845L2.58933 5.92981C2.59241 5.955 2.59658 5.98 2.60183 6.00482L2.78937 6.74246C2.79619 6.77207 2.80452 6.80124 2.81437 6.82998L3.10193 7.62388C3.11586 7.66261 3.13252 7.70012 3.15194 7.7364L3.55201 8.48029C3.57326 8.52226 3.59827 8.56185 3.62703 8.59907L4.09587 9.17418C4.11671 9.19918 4.13963 9.2221 4.16463 9.24294L4.54595 9.57425L4.70848 9.93057C4.78997 10.0791 4.90799 10.1187 5.06252 10.0491C5.21705 9.97959 5.26574 9.86506 5.20858 9.70553L5.04605 9.34921L5.0523 8.84286C5.05435 8.81578 5.05435 8.78869 5.0523 8.7616L4.94603 8.02396C4.94154 7.99441 4.93529 7.96524 4.92728 7.93644L4.70848 7.11754C4.70852 7.11337 4.70852 7.1092 4.70848 7.10503L4.47719 6.30488L4.30841 5.611L4.20839 5.05464C4.20638 5.04837 4.20429 5.04212 4.20214 5.03589L4.12712 4.64832C4.10955 4.56683 4.08037 4.48973 4.03961 4.41702L3.93959 4.22949C3.78733 3.94392 3.54994 3.81457 3.22744 3.84145C2.90493 3.86833 2.69223 4.03518 2.58933 4.34201Z" fill="black"/>
<path d="M2.44557 4.68588C2.44557 4.79463 2.48402 4.88745 2.56092 4.96435C2.63782 5.04125 2.73065 5.0797 2.8394 5.0797C2.94815 5.0797 3.04098 5.04125 3.11788 4.96435C3.19477 4.88745 3.23322 4.79463 3.23322 4.68588C3.23322 4.57712 3.19477 4.4843 3.11788 4.4074C3.04098 4.3305 2.94815 4.29205 2.8394 4.29205C2.73065 4.29205 2.63782 4.3305 2.56092 4.4074C2.48402 4.4843 2.44557 4.57712 2.44557 4.68588ZM2.39556 4.69838C2.39556 4.82094 2.4389 4.92555 2.52556 5.01222C2.61222 5.09888 2.71684 5.14221 2.8394 5.14221C2.96196 5.14221 3.06657 5.09888 3.15324 5.01222C3.2399 4.92555 3.28323 4.82094 3.28323 4.69838C3.28323 4.57582 3.2399 4.4712 3.15324 4.38454C3.06657 4.29788 2.96196 4.25454 2.8394 4.25454C2.71684 4.25454 2.61222 4.29788 2.52556 4.38454C2.4389 4.4712 2.39556 4.57582 2.39556 4.69838ZM2.3018 4.72338C2.3018 4.87702 2.35611 5.00815 2.46475 5.11679C2.57338 5.22542 2.70452 5.27974 2.85815 5.27974C3.01179 5.27974 3.14292 5.22542 3.25156 5.11679C3.36019 5.00815 3.41451 4.87702 3.41451 4.72338C3.41451 4.56975 3.36019 4.43862 3.25156 4.32998C3.14292 4.22135 3.01179 4.16703 2.85815 4.16703C2.70452 4.16703 2.57338 4.22135 2.46475 4.32998C2.35611 4.43862 2.3018 4.56975 2.3018 4.72338ZM2.47683 5.29849L2.61436 5.41727C2.70381 5.49528 2.80591 5.54946 2.92066 5.5798L3.27698 5.66731C3.32414 5.68007 3.37206 5.68841 3.42076 5.69232L3.98962 5.72357C4.01046 5.72439 4.03129 5.72439 4.05213 5.72357L4.78977 5.71107C4.80019 5.71127 4.81061 5.71127 4.82103 5.71107L5.67744 5.66731C5.69836 5.66605 5.7192 5.66397 5.73995 5.66106L6.59011 5.54229C6.63936 5.53486 6.68729 5.52235 6.73389 5.50478L7.39027 5.26099L7.88411 5.14846L8.25918 5.17972C8.44672 5.19222 8.54674 5.10471 8.55924 4.91717C8.57174 4.72963 8.48422 4.62962 8.29669 4.61711L7.92162 4.59211L7.40902 4.42958L6.73389 4.17953C6.66935 4.15518 6.60267 4.14059 6.53385 4.13577L5.68369 4.07951C5.66077 4.07852 5.63785 4.07852 5.61493 4.07951L4.75851 4.09826C4.75643 4.09826 4.75435 4.09826 4.75226 4.09826L4.03963 4.12327L3.50828 4.10452L3.15821 4.08576C3.14571 4.08545 3.1332 4.08545 3.1207 4.08576L2.93942 4.07951C2.61573 4.07528 2.39646 4.22449 2.28161 4.52715C2.16676 4.8298 2.23183 5.08692 2.47683 5.29849Z" fill="black"/>
</g>
<defs>
<clipPath id="clip0_1_7230">
<rect width="29" height="30" fill="white"/>
</clipPath>
</defs>
</svg>
