<svg width="34" height="32" viewBox="0 0 34 32" fill="none" xmlns="http://www.w3.org/2000/svg">
<g clip-path="url(#clip0_1_7228)">
<path d="M17.2233 1.33186C17.2233 1.54856 17.3317 1.65692 17.5484 1.65692C17.7651 1.65692 17.8735 1.54856 17.8735 1.33186C17.8735 1.11515 17.7651 1.00679 17.5484 1.00679C17.3317 1.00679 17.2233 1.11515 17.2233 1.33186ZM17.4484 0.944281L17.4234 0.950532C17.4063 0.955719 17.3896 0.96197 17.3734 0.969286L17.3296 0.981788C17.2654 1.00733 17.2091 1.04484 17.1608 1.09431L17.0483 1.20683C17.0052 1.25141 16.9698 1.30142 16.942 1.35686L16.792 1.65692C16.7588 1.72223 16.7358 1.791 16.7233 1.86321L16.6295 2.39456C16.6269 2.41116 16.6248 2.42783 16.6232 2.44457L16.5357 3.21346C16.5356 3.2218 16.5356 3.23013 16.5357 3.23847L16.4607 4.23866C16.4585 4.24488 16.4565 4.25114 16.4545 4.25741L16.3919 5.45139C16.3919 5.45764 16.3919 5.46389 16.3919 5.47014L16.3482 6.76414C16.3482 6.76831 16.3482 6.77247 16.3482 6.77664L16.3357 8.09564L16.3169 9.37089C16.3169 9.37505 16.3169 9.37922 16.3169 9.38339L16.3107 10.5586C16.3107 10.5607 16.3107 10.5628 16.3107 10.5649L16.3169 11.6026C16.3167 11.613 16.3167 11.6234 16.3169 11.6338L16.3857 13.2341C16.3889 13.3066 16.4014 13.3775 16.4232 13.4467L16.5857 13.9593C16.6173 14.0537 16.6673 14.137 16.7358 14.2093L16.9483 14.4406C16.9602 14.4517 16.9727 14.4622 16.9858 14.4719L17.0608 14.5406L17.0733 14.5969C17.1151 14.7609 17.2187 14.8247 17.384 14.7884C17.5493 14.7521 17.6166 14.6508 17.5859 14.4844L17.5734 14.4469L17.6172 14.3843L17.786 14.128C17.8283 14.0665 17.8595 13.9999 17.8797 13.928L18.0172 13.4154C18.0358 13.35 18.0463 13.2833 18.0485 13.2154L18.0798 11.6151C18.08 11.6026 18.08 11.5901 18.0798 11.5776L18.061 10.5461L18.0423 9.37089L18.0235 8.10814L18.036 6.80165L18.0673 5.52015L18.1173 4.33243L18.1548 3.33224L18.1798 2.56334C18.1802 2.54875 18.1802 2.53417 18.1798 2.51958L18.1735 1.97573C18.1723 1.91637 18.164 1.85802 18.1485 1.80069L18.061 1.47563C18.0484 1.4253 18.0297 1.37737 18.0047 1.33186L17.9235 1.19433C17.9059 1.16284 17.885 1.13367 17.861 1.10681L17.8297 1.07556C17.7953 1.22045 17.8286 1.34755 17.9297 1.45688L17.936 1.43187C17.9537 1.36327 17.9533 1.29478 17.9347 1.22641C17.9161 1.15804 17.8817 1.0988 17.8316 1.04869C17.7815 0.998577 17.7222 0.964208 17.6539 0.945578C17.5855 0.926949 17.517 0.926517 17.4484 0.944281Z" fill="black"/>
<path d="M14.1665 10.6523C14.1665 10.7628 14.2056 10.8571 14.2837 10.9352C14.3618 11.0133 14.4561 11.0524 14.5666 11.0524C14.6771 11.0524 14.7714 11.0133 14.8495 10.9352C14.9276 10.8571 14.9667 10.7628 14.9667 10.6523C14.9667 10.5418 14.9276 10.4475 14.8495 10.3694C14.7714 10.2913 14.6771 10.2522 14.5666 10.2522C14.4561 10.2522 14.3618 10.2913 14.2837 10.3694C14.2056 10.4475 14.1665 10.5418 14.1665 10.6523ZM14.1353 10.6523C14.1353 10.7714 14.1774 10.8731 14.2616 10.9573C14.3458 11.0415 14.4475 11.0836 14.5666 11.0836C14.6857 11.0836 14.7874 11.0415 14.8716 10.9573C14.9558 10.8731 14.9979 10.7714 14.9979 10.6523C14.9979 10.5332 14.9558 10.4315 14.8716 10.3473C14.7874 10.2631 14.6857 10.221 14.5666 10.221C14.4475 10.221 14.3458 10.2631 14.2616 10.3473C14.1774 10.4315 14.1353 10.5332 14.1353 10.6523ZM14.004 10.6461C14.004 10.798 14.0577 10.9276 14.1651 11.035C14.2725 11.1425 14.4022 11.1962 14.5541 11.1962C14.706 11.1962 14.8357 11.1425 14.9431 11.035C15.0505 10.9276 15.1042 10.798 15.1042 10.6461C15.1042 10.4942 15.0505 10.3645 14.9431 10.2571C14.8357 10.1497 14.706 10.096 14.5541 10.096C14.4022 10.096 14.2725 10.1497 14.1651 10.2571C14.0577 10.3645 14.004 10.4942 14.004 10.6461ZM13.8977 10.6336C13.8977 10.8096 13.96 10.9599 14.0845 11.0844C14.209 11.2089 14.3593 11.2712 14.5353 11.2712C14.7114 11.2712 14.8617 11.2089 14.9862 11.0844C15.1107 10.9599 15.173 10.8096 15.173 10.6336C15.173 10.4575 15.1107 10.3072 14.9862 10.1827C14.8617 10.0582 14.7114 9.99594 14.5353 9.99594C14.3593 9.99594 14.209 10.0582 14.0845 10.1827C13.96 10.3072 13.8977 10.4575 13.8977 10.6336ZM13.8415 10.6086C13.8415 10.795 13.9074 10.9541 14.0392 11.0859C14.171 11.2178 14.3302 11.2837 14.5166 11.2837C14.703 11.2837 14.8621 11.2178 14.994 11.0859C15.1258 10.9541 15.1917 10.795 15.1917 10.6086C15.1917 10.4221 15.1258 10.263 14.994 10.1312C14.8621 9.99934 14.703 9.93343 14.5166 9.93343C14.3302 9.93343 14.171 9.99934 14.0392 10.1312C13.9074 10.263 13.8415 10.4221 13.8415 10.6086ZM13.7727 10.5961C13.7727 10.7997 13.8447 10.9736 13.9887 11.1176C14.1328 11.2617 14.3066 11.3337 14.5103 11.3337C14.714 11.3337 14.8879 11.2617 15.0319 11.1176C15.176 10.9736 15.248 10.7997 15.248 10.5961C15.248 10.3924 15.176 10.2185 15.0319 10.0745C14.8879 9.93043 14.714 9.85841 14.5103 9.85841C14.3066 9.85841 14.1328 9.93043 13.9887 10.0745C13.8447 10.2185 13.7727 10.3924 13.7727 10.5961ZM13.7227 10.6086V10.7148C13.7213 10.7909 13.7296 10.8659 13.7477 10.9399L13.8039 11.1899C13.8114 11.2132 13.8197 11.2361 13.829 11.2587L13.9415 11.6025C13.9415 11.6046 13.9415 11.6067 13.9415 11.6087L14.0978 12.0651C14.1085 12.0991 14.121 12.1324 14.1353 12.1651L14.3728 12.684C14.3826 12.703 14.393 12.7218 14.4041 12.7402L14.6916 13.2716C14.7032 13.295 14.7157 13.3179 14.7291 13.3403L15.0479 13.8467C15.0599 13.8637 15.0724 13.8804 15.0854 13.8967L15.4043 14.3343C15.4063 14.3384 15.4084 14.3426 15.4105 14.3468L15.6856 14.7093L15.8731 14.9656L15.9981 15.1594L16.1044 15.3282C16.1044 15.3303 16.1044 15.3324 16.1044 15.3345L16.1794 15.4532C16.2024 15.4881 16.2274 15.5214 16.2544 15.5532L16.3169 15.6283C16.3601 15.681 16.408 15.7289 16.4607 15.772L16.517 15.8158C16.519 15.8179 16.5211 15.82 16.5232 15.822L16.5607 15.8533C16.5386 15.8336 16.5157 15.8148 16.492 15.797L16.5232 15.822C16.469 15.6938 16.3919 15.5813 16.2919 15.4845L16.2982 15.5095L16.3107 15.5345C16.3144 15.3917 16.2894 15.2542 16.2357 15.1219L16.2294 15.1407C16.2267 15.2812 16.2517 15.4167 16.3044 15.547L16.3107 15.5532C16.4178 15.8155 16.6019 16.0015 16.8631 16.1112C17.1242 16.221 17.3859 16.2224 17.6482 16.1154C17.9105 16.0084 18.0966 15.8244 18.2065 15.5633C18.3164 15.3022 18.3179 15.0404 18.211 14.7781C18.0381 14.3513 17.7214 14.1378 17.2609 14.1378C16.8003 14.1378 16.4836 14.3513 16.3107 14.7781C16.2038 15.0404 16.2053 15.3022 16.3152 15.5633C16.4251 15.8244 16.6112 16.0084 16.8735 16.1154C17.1358 16.2224 17.3975 16.221 17.6586 16.1112C17.9198 16.0015 18.1039 15.8155 18.211 15.5532L18.2173 15.547C18.27 15.4167 18.295 15.2812 18.2923 15.1407L18.2861 15.1219C18.283 14.9404 18.235 14.7716 18.1423 14.6156L18.1298 14.5906C18.15 14.6469 18.175 14.7011 18.2048 14.7531L18.1985 14.7218C18.1477 14.5896 18.0727 14.4729 17.9735 14.3718L17.9485 14.3405C17.9265 14.3186 17.9036 14.2978 17.8797 14.278L17.8422 14.2467C17.822 14.2293 17.8012 14.2126 17.7797 14.1967L17.7234 14.153C17.7754 14.214 17.8338 14.2682 17.8985 14.3155L17.8797 14.2968L17.8422 14.2342L17.7297 14.0655C17.7277 14.0592 17.7256 14.0529 17.7234 14.0467L17.5672 13.8217C17.5592 13.8069 17.5509 13.7923 17.5422 13.7779L17.3296 13.4904C17.3255 13.4862 17.3213 13.482 17.3171 13.4779L17.0483 13.1215L16.7608 12.7277L16.4795 12.2714L16.2107 11.79L15.9794 11.3024C15.9715 11.2855 15.9631 11.2689 15.9544 11.2524L15.7231 10.8336C15.717 10.8231 15.7108 10.8126 15.7043 10.8023L15.523 10.4898C15.5025 10.4528 15.4796 10.4174 15.4543 10.3835L15.298 10.1897C15.2045 10.0699 15.0878 9.98035 14.9479 9.92093L14.8541 9.88342C14.7304 9.8306 14.6016 9.80977 14.4675 9.82095C14.3334 9.83213 14.2098 9.87401 14.0965 9.9466C13.9833 10.0192 13.8936 10.114 13.8274 10.2312C13.7613 10.3483 13.7264 10.4741 13.7227 10.6086ZM18.211 15.5157L18.2173 15.497C18.2107 15.5114 18.2044 15.526 18.1985 15.5407L18.211 15.5157C18.211 15.5137 18.211 15.5116 18.211 15.5095L18.2298 15.472C18.1709 15.5445 18.123 15.6237 18.086 15.7095L18.0923 15.7033L18.0735 15.7283L18.0985 15.7033C18.1268 15.6818 18.1539 15.6589 18.1798 15.6345L18.261 15.5532C18.2784 15.5351 18.2951 15.5164 18.3111 15.497L18.3861 15.4095C18.3991 15.3932 18.4116 15.3765 18.4236 15.3595L18.4861 15.2782L18.5236 15.2344L18.5298 15.2282L18.5674 15.1907C18.5825 15.1745 18.5971 15.1578 18.6111 15.1407L18.6986 15.0469C18.7115 15.0327 18.724 15.0181 18.7361 15.0031L18.8674 14.8406C18.8781 14.8284 18.8885 14.8159 18.8987 14.8031L19.0925 14.5406C19.0945 14.5385 19.0966 14.5364 19.0987 14.5343L19.3925 14.1217L19.8051 13.5591C19.8072 13.557 19.8093 13.555 19.8113 13.5529L20.2989 12.8715C20.3031 12.8674 20.3073 12.8632 20.3114 12.859L20.8178 12.1151C20.8288 12.0967 20.8392 12.0779 20.849 12.0588L21.2929 11.3087C21.3088 11.2823 21.3234 11.2552 21.3366 11.2274L21.9305 9.95843C21.9793 9.85326 22.0001 9.74283 21.993 9.62712L21.9743 9.30206V9.20204L21.993 9.17078C22.061 9.04348 22.039 8.93431 21.927 8.8433C21.815 8.75228 21.7036 8.75309 21.5929 8.84572L21.5554 8.88323L21.4429 8.92074L21.1303 9.00825C21.0104 9.03849 20.9062 9.09683 20.8178 9.18329L19.8301 10.1772C19.8081 10.1991 19.7873 10.222 19.7676 10.246L19.2175 10.9211C19.2068 10.9334 19.1963 10.9459 19.1862 10.9586L18.6549 11.6838C18.6549 11.6858 18.6549 11.6879 18.6549 11.69L18.1673 12.3651C18.1652 12.3651 18.1631 12.3651 18.161 12.3651L17.7547 12.934L17.4546 13.3403L17.2734 13.5841L17.1858 13.6966L17.1296 13.7592L17.0671 13.8217C17.0607 13.8299 17.0544 13.8382 17.0483 13.8467L16.9921 13.9092C16.9679 13.933 16.945 13.958 16.9233 13.9842L16.8858 14.0405L16.8358 14.0967L16.7983 14.1467L16.7733 14.1717L16.7295 14.2092C16.7146 14.2213 16.7 14.2338 16.6857 14.2467L16.6295 14.303C16.6055 14.3248 16.5825 14.3478 16.5607 14.3718L16.5295 14.4093C16.487 14.4578 16.4495 14.5099 16.4169 14.5656L16.3982 14.6031C16.3982 14.6052 16.3982 14.6072 16.3982 14.6093L16.3794 14.6343C16.3396 14.7036 16.3083 14.7765 16.2857 14.8531V14.8719C16.224 15.1288 16.2572 15.3728 16.3853 15.6038C16.5134 15.8349 16.7027 15.9924 16.9533 16.0761C17.2039 16.1599 17.4498 16.1481 17.6911 16.0405C17.9325 15.933 18.1058 15.7581 18.211 15.5157Z" fill="black"/>
<path d="M16.8795 19.0852C16.8795 19.1767 16.9119 19.2548 16.9766 19.3195C17.0413 19.3842 17.1194 19.4165 17.2108 19.4165C17.3023 19.4165 17.3804 19.3842 17.4451 19.3195C17.5098 19.2548 17.5422 19.1767 17.5422 19.0852C17.5422 18.9937 17.5098 18.9156 17.4451 18.8509C17.3804 18.7862 17.3023 18.7539 17.2108 18.7539C17.1194 18.7539 17.0413 18.7862 16.9766 18.8509C16.9119 18.9156 16.8795 18.9937 16.8795 19.0852ZM16.792 19.0727C16.792 19.1883 16.8329 19.2871 16.9147 19.3688C16.9965 19.4506 17.0952 19.4915 17.2108 19.4915C17.3265 19.4915 17.4252 19.4506 17.507 19.3688C17.5888 19.2871 17.6297 19.1883 17.6297 19.0727C17.6297 18.957 17.5888 18.8583 17.507 18.7765C17.4252 18.6948 17.3265 18.6539 17.2108 18.6539C17.0952 18.6539 16.9965 18.6948 16.9147 18.7765C16.8329 18.8583 16.792 18.957 16.792 19.0727ZM16.7545 19.0602C16.7545 19.1879 16.7997 19.297 16.89 19.3873C16.9803 19.4776 17.0894 19.5228 17.2171 19.5228C17.3448 19.5228 17.4539 19.4776 17.5442 19.3873C17.6345 19.297 17.6797 19.1879 17.6797 19.0602C17.6797 18.9324 17.6345 18.8234 17.5442 18.7331C17.4539 18.6428 17.3448 18.5976 17.2171 18.5976C17.0894 18.5976 16.9803 18.6428 16.89 18.7331C16.7997 18.8234 16.7545 18.9324 16.7545 19.0602ZM16.6983 19.0664C16.6983 19.2114 16.7495 19.3352 16.852 19.4377C16.9546 19.5403 17.0783 19.5915 17.2234 19.5915C17.3684 19.5915 17.4921 19.5403 17.5947 19.4377C17.6972 19.3352 17.7485 19.2114 17.7485 19.0664C17.7485 18.9214 17.6972 18.7977 17.5947 18.6951C17.4921 18.5926 17.3684 18.5413 17.2234 18.5413C17.0783 18.5413 16.9546 18.5926 16.852 18.6951C16.7495 18.7977 16.6983 18.9214 16.6983 19.0664ZM16.8795 18.6539L16.8358 18.6851C16.7759 18.7326 16.7259 18.7889 16.6857 18.8539L16.617 18.9539C16.5732 19.0237 16.5419 19.0987 16.5232 19.179L16.4795 19.3727C16.4749 19.3872 16.4707 19.4018 16.467 19.4165L16.4169 19.6916C16.412 19.7122 16.4078 19.7331 16.4044 19.7541L16.3607 20.1479C16.3605 20.1583 16.3605 20.1687 16.3607 20.1791L16.3169 20.723L16.2669 21.3919C16.2667 21.4044 16.2667 21.4169 16.2669 21.4294L16.2357 22.2045C16.2357 22.2066 16.2357 22.2087 16.2357 22.2108L16.2044 23.0609C16.2044 23.063 16.2044 23.0651 16.2044 23.0672L16.1794 23.9611L16.1356 24.8738L16.0981 25.7677L16.0544 26.6179C16.0543 26.6241 16.0543 26.6304 16.0544 26.6366L16.0231 27.4055C16.0231 27.4097 16.0231 27.4139 16.0231 27.418L16.0106 28.1057C16.0106 28.1098 16.0106 28.114 16.0106 28.1182V28.7308C16.0105 28.7412 16.0105 28.7516 16.0106 28.762L16.0231 29.3309L16.0356 29.8435C16.0353 29.8581 16.0353 29.8727 16.0356 29.8872L16.0669 30.3186C16.0682 30.3416 16.0702 30.3645 16.0731 30.3873L16.1169 30.6999C16.1227 30.74 16.1311 30.7796 16.1419 30.8187L16.2044 31.0312C16.2233 31.1032 16.2503 31.172 16.2857 31.2375L16.3607 31.375C16.5473 31.7127 16.8325 31.8605 17.216 31.8184C17.5996 31.7763 17.8458 31.5702 17.9547 31.2L17.9985 31.05C18.0198 30.9785 18.0323 30.9056 18.036 30.8312L18.0485 30.6061C18.0492 30.5853 18.0492 30.5645 18.0485 30.5436L18.0423 30.2311L18.036 29.7997C18.036 29.7976 18.036 29.7956 18.036 29.7935L18.0235 29.2871L18.011 28.7245V28.1307L18.0235 27.4618L18.0423 26.6991L18.0798 25.8552L18.111 24.9551C18.111 24.953 18.111 24.9509 18.111 24.9488L18.1423 24.0299C18.1423 24.0278 18.1423 24.0257 18.1423 24.0236L18.1673 23.1172L18.186 22.267C18.1882 22.2608 18.1903 22.2546 18.1923 22.2483V21.4731C18.1924 21.4648 18.1924 21.4565 18.1923 21.4481L18.1798 20.773C18.1798 20.7688 18.1798 20.7647 18.1798 20.7605L18.1673 20.2229C18.1662 20.1978 18.1642 20.1728 18.161 20.1479L18.1173 19.7541C18.113 19.7204 18.1068 19.687 18.0985 19.654L18.036 19.379C18.0278 19.345 18.0174 19.3116 18.0047 19.279L17.936 19.0914C17.9098 19.0237 17.8744 18.9612 17.8297 18.9039L17.7547 18.8039C17.7026 18.7377 17.6401 18.6835 17.5672 18.6414L17.5172 18.6101C17.2949 18.4826 17.0823 18.4972 16.8795 18.6539ZM16.4044 31.0937C16.4044 31.294 16.4752 31.4649 16.6168 31.6065C16.7584 31.7481 16.9293 31.8189 17.1296 31.8189C17.3298 31.8189 17.5007 31.7481 17.6423 31.6065C17.7839 31.4649 17.8547 31.294 17.8547 31.0937C17.8547 30.8935 17.7839 30.7226 17.6423 30.581C17.5007 30.4394 17.3298 30.3686 17.1296 30.3686C16.9293 30.3686 16.7584 30.4394 16.6168 30.581C16.4752 30.7226 16.4044 30.8935 16.4044 31.0937ZM16.5607 31.1937C16.5607 31.3526 16.6169 31.4881 16.7292 31.6004C16.8415 31.7127 16.977 31.7689 17.1358 31.7689C17.2946 31.7689 17.4302 31.7127 17.5425 31.6004C17.6548 31.4881 17.7109 31.3526 17.7109 31.1937C17.7109 31.0349 17.6548 30.8994 17.5425 30.7871C17.4302 30.6748 17.2946 30.6186 17.1358 30.6186C16.977 30.6186 16.8415 30.6748 16.7292 30.7871C16.6169 30.8994 16.5607 31.0349 16.5607 31.1937ZM16.7483 31.2375C16.7483 31.3463 16.7867 31.4391 16.8636 31.516C16.9405 31.5929 17.0333 31.6313 17.1421 31.6313C17.2508 31.6313 17.3437 31.5929 17.4206 31.516C17.4975 31.4391 17.5359 31.3463 17.5359 31.2375C17.5359 31.1287 17.4975 31.0359 17.4206 30.959C17.3437 30.8821 17.2508 30.8437 17.1421 30.8437C17.0333 30.8437 16.9405 30.8821 16.8636 30.959C16.7867 31.0359 16.7483 31.1287 16.7483 31.2375ZM17.3296 31.425L17.3421 31.4125C17.4178 31.294 17.4059 31.185 17.3065 31.0856C17.207 30.9862 17.0981 30.9743 16.9796 31.05L16.9671 31.0625C16.8914 31.181 16.9033 31.29 17.0027 31.3894C17.1021 31.4888 17.2111 31.5007 17.3296 31.425Z" fill="black"/>
<path d="M16.8233 19.379C16.8233 19.4911 16.863 19.5869 16.9423 19.6662C17.0217 19.7455 17.1174 19.7851 17.2296 19.7851C17.3418 19.7851 17.4375 19.7455 17.5169 19.6662C17.5962 19.5869 17.6359 19.4911 17.6359 19.379C17.6359 19.2668 17.5962 19.171 17.5169 19.0917C17.4375 19.0124 17.3418 18.9728 17.2296 18.9728C17.1174 18.9728 17.0217 19.0124 16.9423 19.0917C16.863 19.171 16.8233 19.2668 16.8233 19.379ZM16.7482 19.379C16.7482 19.5171 16.7971 19.6349 16.8947 19.7326C16.9924 19.8302 17.1102 19.8791 17.2483 19.8791C17.3864 19.8791 17.5043 19.8302 17.602 19.7326C17.6996 19.6349 17.7484 19.5171 17.7484 19.379C17.7484 19.2409 17.6996 19.123 17.602 19.0253C17.5043 18.9277 17.3864 18.8789 17.2483 18.8789C17.1102 18.8789 16.9924 18.9277 16.8947 19.0253C16.7971 19.123 16.7482 19.2409 16.7482 19.379ZM16.5795 19.379C16.5795 19.5654 16.6454 19.7245 16.7772 19.8563C16.909 19.9882 17.0682 20.0541 17.2546 20.0541C17.441 20.0541 17.6002 19.9882 17.732 19.8563C17.8638 19.7245 17.9297 19.5654 17.9297 19.379C17.9297 19.1925 17.8638 19.0334 17.732 18.9016C17.6002 18.7697 17.441 18.7038 17.2546 18.7038C17.0682 18.7038 16.909 18.7697 16.7772 18.9016C16.6454 19.0334 16.5795 19.1925 16.5795 19.379ZM16.4669 19.3852C16.467 19.6044 16.5446 19.7915 16.6996 19.9464C16.8546 20.1014 17.0417 20.1788 17.2608 20.1788C17.48 20.1788 17.6671 20.1014 17.8221 19.9464C17.9771 19.7915 18.0547 19.6044 18.0547 19.3852C18.0547 19.166 17.9771 18.979 17.8221 18.824C17.6671 18.6691 17.48 18.5916 17.2608 18.5916C17.0417 18.5916 16.8546 18.6691 16.6996 18.824C16.5446 18.979 16.467 19.166 16.4669 19.3852ZM16.7107 18.7288L16.6232 18.7976C16.5538 18.8514 16.4934 18.914 16.4419 18.9851L16.3044 19.1727C16.2959 19.1829 16.2875 19.1933 16.2794 19.2039L16.0669 19.5227C16.0648 19.5248 16.0627 19.5269 16.0606 19.529L15.7856 19.9478L15.4793 20.4104C15.4772 20.4125 15.4751 20.4146 15.473 20.4167L15.1542 20.9105C15.1521 20.9105 15.15 20.9105 15.1479 20.9105L14.8166 21.4231L14.5041 21.9044L14.2103 22.3295L13.9602 22.6796L13.7414 22.9609C13.735 22.9691 13.7288 22.9775 13.7227 22.9859L13.5351 23.2359C13.522 23.2543 13.5095 23.273 13.4976 23.2922L13.3664 23.4922C13.3145 23.5742 13.2749 23.6617 13.2476 23.7548L13.1976 23.9173C13.1336 24.1281 13.1395 24.3369 13.2152 24.5437C13.2909 24.7505 13.4212 24.9138 13.6061 25.0334C13.791 25.1531 13.9933 25.2051 14.213 25.1894C14.4327 25.1737 14.6256 25.0935 14.7916 24.9488L14.9166 24.8425C14.957 24.8079 14.9945 24.7704 15.0292 24.73L15.1854 24.5424C15.1983 24.5303 15.2108 24.5178 15.223 24.5049L15.4105 24.2549C15.4126 24.2528 15.4147 24.2507 15.4167 24.2486L15.6418 23.9486C15.6482 23.9403 15.6544 23.932 15.6605 23.9236L15.9293 23.5548C15.9379 23.5424 15.9463 23.5299 15.9543 23.5172L16.2482 23.0734C16.2524 23.0672 16.2566 23.061 16.2607 23.0547L16.5732 22.5546C16.5753 22.5546 16.5774 22.5546 16.5795 22.5546L16.9045 22.0357C16.9133 22.0193 16.9216 22.0026 16.9295 21.9857L17.2233 21.4731C17.2233 21.471 17.2233 21.4689 17.2233 21.4669L17.4921 20.9793C17.4943 20.9751 17.4963 20.9709 17.4984 20.9668L17.7297 20.5229C17.7339 20.5167 17.7381 20.5105 17.7422 20.5042L17.9172 20.1604C17.9312 20.1318 17.9437 20.1026 17.9547 20.0728L18.036 19.854C18.0545 19.8073 18.0691 19.7594 18.0797 19.7103L18.1048 19.5977C18.1875 19.1993 18.0562 18.8924 17.7108 18.6771C17.3654 18.4618 17.0321 18.479 16.7107 18.7288ZM13.1976 24.2736C13.1976 24.5205 13.2848 24.7312 13.4594 24.9057C13.6339 25.0803 13.8446 25.1676 14.0915 25.1676C14.3383 25.1676 14.549 25.0803 14.7236 24.9057C14.8981 24.7312 14.9854 24.5205 14.9854 24.2736C14.9854 24.0268 14.8981 23.8161 14.7236 23.6415C14.549 23.467 14.3383 23.3797 14.0915 23.3797C13.8446 23.3797 13.6339 23.467 13.4594 23.6415C13.2848 23.8161 13.1976 24.0268 13.1976 24.2736ZM13.4726 24.2486C13.4727 24.4195 13.5332 24.5653 13.654 24.686C13.7748 24.8068 13.9207 24.8672 14.0915 24.8672C14.2623 24.8672 14.4082 24.8068 14.529 24.686C14.6498 24.5653 14.7103 24.4195 14.7104 24.2486C14.7103 24.0778 14.6498 23.932 14.529 23.8112C14.4082 23.6905 14.2623 23.6301 14.0915 23.6301C13.9207 23.6301 13.7748 23.6905 13.654 23.8112C13.5332 23.932 13.4727 24.0778 13.4726 24.2486ZM14.404 24.3049L14.4666 24.1924C14.5447 24.0228 14.5019 23.8933 14.3382 23.8036C14.1745 23.7139 14.0422 23.7477 13.9415 23.9048L13.8789 24.0173C13.8008 24.1869 13.8436 24.3165 14.0073 24.4061C14.1711 24.4958 14.3033 24.462 14.404 24.3049Z" fill="black"/>
<path d="M16.8858 19.6103C16.8858 19.7243 16.9261 19.8215 17.0067 19.9021C17.0872 19.9826 17.1845 20.0229 17.2984 20.0229C17.4123 20.0229 17.5096 19.9826 17.5901 19.9021C17.6707 19.8215 17.711 19.7243 17.711 19.6103C17.711 19.4964 17.6707 19.3991 17.5901 19.3186C17.5096 19.238 17.4123 19.1977 17.2984 19.1977C17.1845 19.1977 17.0872 19.238 17.0067 19.3186C16.9261 19.3991 16.8858 19.4964 16.8858 19.6103ZM16.8483 19.5978C16.8483 19.7221 16.8923 19.8282 16.9801 19.9161C17.068 20.004 17.1741 20.0479 17.2984 20.0479C17.4227 20.0479 17.5288 20.004 17.6167 19.9161C17.7045 19.8282 17.7485 19.7221 17.7485 19.5978C17.7485 19.4735 17.7045 19.3674 17.6167 19.2796C17.5288 19.1917 17.4227 19.1477 17.2984 19.1477C17.1741 19.1477 17.068 19.1917 16.9801 19.2796C16.8923 19.3674 16.8483 19.4735 16.8483 19.5978ZM16.7733 19.5791C16.7733 19.7241 16.8246 19.8478 16.9271 19.9504C17.0296 20.0529 17.1534 20.1042 17.2984 20.1042C17.4434 20.1042 17.5672 20.0529 17.6697 19.9504C17.7722 19.8478 17.8235 19.7241 17.8235 19.5791C17.8235 19.4341 17.7722 19.3103 17.6697 19.2078C17.5672 19.1052 17.4434 19.054 17.2984 19.054C17.1534 19.054 17.0296 19.1052 16.9271 19.2078C16.8246 19.3103 16.7733 19.4341 16.7733 19.5791ZM16.6983 19.5541C16.6983 19.7198 16.7569 19.8612 16.8741 19.9784C16.9912 20.0956 17.1327 20.1542 17.2984 20.1542C17.4641 20.1542 17.6056 20.0956 17.7227 19.9784C17.8399 19.8612 17.8985 19.7198 17.8985 19.5541C17.8985 19.3883 17.8399 19.2469 17.7227 19.1297C17.6056 19.0125 17.4641 18.9539 17.2984 18.9539C17.1327 18.9539 16.9912 19.0125 16.8741 19.1297C16.7569 19.2469 16.6983 19.3883 16.6983 19.5541ZM16.6483 19.5291C16.6483 19.7103 16.7124 19.865 16.8405 19.9932C16.9687 20.1213 17.1234 20.1854 17.3046 20.1854C17.4859 20.1854 17.6406 20.1213 17.7688 19.9932C17.8969 19.865 17.961 19.7103 17.961 19.5291C17.961 19.3478 17.8969 19.1931 17.7688 19.0649C17.6406 18.9368 17.4859 18.8727 17.3046 18.8727C17.1234 18.8727 16.9687 18.9368 16.8405 19.0649C16.7124 19.1931 16.6483 19.3478 16.6483 19.5291ZM16.5608 19.5291C16.5608 19.7362 16.634 19.913 16.7805 20.0595C16.9269 20.206 17.1038 20.2792 17.3109 20.2792C17.518 20.2792 17.6949 20.206 17.8413 20.0595C17.9878 19.913 18.061 19.7362 18.061 19.5291C18.061 19.3219 17.9878 19.1451 17.8413 18.9986C17.6949 18.8522 17.518 18.7789 17.3109 18.7789C17.1038 18.7789 16.9269 18.8522 16.7805 18.9986C16.634 19.1451 16.5608 19.3219 16.5608 19.5291ZM16.5045 19.5541C16.5045 19.7819 16.5851 19.9764 16.7462 20.1375C16.9073 20.2987 17.1018 20.3792 17.3297 20.3792C17.5575 20.3792 17.752 20.2987 17.9131 20.1375C18.0742 19.9764 18.1548 19.7819 18.1548 19.5541C18.1548 19.3262 18.0742 19.1317 17.9131 18.9706C17.752 18.8095 17.5575 18.7289 17.3297 18.7289C17.1018 18.7289 16.9073 18.8095 16.7462 18.9706C16.5851 19.1317 16.5045 19.3262 16.5045 19.5541ZM16.492 19.7979L16.517 19.9291C16.5357 20.0122 16.5649 20.0913 16.6045 20.1667L16.6983 20.3542C16.7133 20.3863 16.73 20.4176 16.7483 20.448L16.9046 20.6918C16.9066 20.696 16.9087 20.7001 16.9108 20.7043L17.1234 21.0231C17.1334 21.0379 17.1438 21.0525 17.1546 21.0668L17.4234 21.4294C17.4255 21.4336 17.4276 21.4378 17.4297 21.4419L17.7485 21.8545C17.7526 21.8608 17.7567 21.867 17.761 21.8733L18.1173 22.3171L18.4861 22.7797C18.4882 22.7839 18.4903 22.788 18.4924 22.7922L18.8612 23.236C18.8694 23.2445 18.8777 23.2528 18.8862 23.261L19.2425 23.6673C19.2566 23.6845 19.2712 23.7012 19.2863 23.7174L19.6301 24.0612C19.6813 24.1132 19.7376 24.159 19.7989 24.1987L20.1302 24.4112C20.3627 24.5593 20.6107 24.5926 20.8741 24.5113L21.0429 24.4612C21.2957 24.3854 21.4395 24.2166 21.4742 23.9549L21.4992 23.7799C21.5254 23.5906 21.4941 23.4114 21.4054 23.2423L21.2241 22.8922C21.1987 22.844 21.1695 22.7981 21.1366 22.7547L20.8491 22.3671C20.839 22.3543 20.8285 22.3418 20.8178 22.3296L20.474 21.9108C20.4719 21.9087 20.4698 21.9066 20.4677 21.9045L20.1052 21.4732L19.7489 21.0168C19.7468 21.0147 19.7447 21.0127 19.7426 21.0106L19.3925 20.5855L19.0987 20.1854L18.8299 19.8291L18.6049 19.5228C18.5852 19.4968 18.5644 19.4718 18.5424 19.4478L18.3548 19.2353C18.3256 19.2019 18.2944 19.1707 18.2611 19.1415L18.0985 19.004C18.065 18.9744 18.0296 18.9473 17.9923 18.9227L17.8798 18.8477C17.5401 18.6294 17.2038 18.6343 16.8706 18.8623C16.5375 19.0904 16.4113 19.4023 16.492 19.7979ZM20.9928 24.2612L21.1679 24.3237C21.3387 24.3862 21.4554 24.3321 21.5179 24.1612C21.5805 23.9903 21.5263 23.8736 21.3554 23.8111L21.1804 23.7486C21.0097 23.6865 20.8932 23.7407 20.8308 23.9113C20.7684 24.0819 20.8224 24.1985 20.9928 24.2612Z" fill="black"/>
<path d="M21.2615 17.0282C21.2615 17.1421 21.3018 17.2394 21.3824 17.3199C21.4629 17.4005 21.5602 17.4408 21.6741 17.4408C21.7881 17.4408 21.8853 17.4005 21.9659 17.3199C22.0464 17.2394 22.0867 17.1421 22.0867 17.0282C22.0867 16.9142 22.0464 16.817 21.9659 16.7364C21.8853 16.6559 21.7881 16.6156 21.6741 16.6156C21.5602 16.6156 21.4629 16.6559 21.3824 16.7364C21.3018 16.817 21.2615 16.9142 21.2615 17.0282ZM21.2303 17.0219C21.2303 17.141 21.2724 17.2427 21.3566 17.3269C21.4408 17.4111 21.5425 17.4533 21.6616 17.4533C21.7807 17.4533 21.8824 17.4111 21.9666 17.3269C22.0508 17.2427 22.093 17.141 22.093 17.0219C22.093 16.9028 22.0508 16.8012 21.9666 16.7169C21.8824 16.6327 21.7807 16.5906 21.6616 16.5906C21.5425 16.5906 21.4408 16.6327 21.3566 16.7169C21.2724 16.8012 21.2303 16.9028 21.2303 17.0219ZM21.149 17.0094C21.1491 17.1423 21.1961 17.2557 21.2901 17.3497C21.384 17.4436 21.4975 17.4906 21.6304 17.4906C21.7633 17.4906 21.8767 17.4436 21.9707 17.3497C22.0646 17.2557 22.1117 17.1423 22.1117 17.0094C22.1117 16.8765 22.0646 16.7631 21.9707 16.6692C21.8767 16.5752 21.7633 16.5283 21.6304 16.5283C21.4975 16.5283 21.384 16.5752 21.2901 16.6692C21.1961 16.7631 21.1491 16.8765 21.149 17.0094ZM20.9552 16.9969C20.9552 17.1644 21.0144 17.3073 21.1328 17.4257C21.2512 17.5441 21.3942 17.6033 21.5616 17.6033C21.729 17.6033 21.872 17.5441 21.9904 17.4257C22.1088 17.3073 22.168 17.1644 22.168 16.9969C22.168 16.8295 22.1088 16.6866 21.9904 16.5682C21.872 16.4498 21.729 16.3906 21.5616 16.3906C21.3942 16.3906 21.2512 16.4498 21.1328 16.5682C21.0144 16.6866 20.9552 16.8295 20.9552 16.9969ZM21.9117 16.4093L21.8554 16.3718C21.697 16.2517 21.5189 16.2006 21.3209 16.2187C21.1229 16.2368 20.9569 16.3192 20.8229 16.466C20.6889 16.6128 20.6219 16.7856 20.6219 16.9844C20.6219 17.1832 20.6889 17.356 20.8229 17.5028C20.9569 17.6496 21.1229 17.7321 21.3209 17.7501C21.5189 17.7682 21.697 17.7172 21.8554 17.597L21.9117 17.5595C22.0022 17.4916 22.0727 17.4071 22.1233 17.3059C22.1739 17.2047 22.1992 17.0976 22.1992 16.9844C22.1992 16.8713 22.1739 16.7641 22.1233 16.6629C22.0727 16.5617 22.0022 16.4772 21.9117 16.4093ZM20.6864 17.5033L20.7302 17.5533C20.8527 17.713 21.011 17.8193 21.2053 17.8721L21.4866 17.9471C21.544 17.963 21.6023 17.9734 21.6616 17.9784L22.2305 18.0159C22.2596 18.0192 22.2887 18.0213 22.318 18.0221L23.1994 18.0096C23.2057 18.0097 23.2119 18.0097 23.2182 18.0096L24.3684 17.9721L25.6936 17.9284L27.0689 17.8846C27.071 17.8846 27.0731 17.8846 27.0752 17.8846L28.4067 17.8346C28.4087 17.8346 28.4108 17.8346 28.4129 17.8346L29.6381 17.7783L30.6883 17.7346C30.6946 17.7346 30.7008 17.7346 30.7071 17.7346L31.5385 17.6908L32.1699 17.6658C32.1866 17.6642 32.2033 17.6621 32.2199 17.6595L32.6637 17.622C32.7454 17.614 32.8246 17.5952 32.9013 17.5658L33.1513 17.472C33.421 17.3675 33.5856 17.1737 33.6452 16.8907L33.6514 16.8656C33.6672 16.791 33.6693 16.716 33.6577 16.6406V16.6093C33.6172 16.3285 33.4693 16.1264 33.2138 16.003L32.9763 15.8842C32.8849 15.8412 32.7891 15.8141 32.6887 15.8029L32.2511 15.7467C32.2179 15.7429 32.1846 15.7408 32.1511 15.7404L31.5135 15.7279C31.501 15.7277 31.4885 15.7277 31.476 15.7279L30.6321 15.7467C30.6279 15.7467 30.6237 15.7467 30.6196 15.7467L29.5631 15.7779C29.561 15.7779 29.559 15.7779 29.5569 15.7779L28.3316 15.8217L27.0064 15.8717L25.6311 15.9155L24.3059 15.9592L23.1557 15.9967L22.2742 16.0217C22.2533 16.0232 22.2325 16.0253 22.2117 16.028L21.6429 16.0842C21.6304 16.084 21.6179 16.084 21.6054 16.0842L21.3178 16.128C21.2122 16.1414 21.1122 16.1727 21.0177 16.2218L20.9552 16.253C20.8457 16.3103 20.7536 16.3881 20.6787 16.4864C20.6039 16.5847 20.5535 16.6943 20.5275 16.8151C20.5016 16.9359 20.5025 17.0565 20.5303 17.1769C20.5581 17.2973 20.6101 17.4061 20.6864 17.5033ZM33.1451 16.9969H33.2013C33.3764 16.9969 33.4639 16.9094 33.4639 16.7344C33.4639 16.5593 33.3764 16.4718 33.2013 16.4718H33.1451C32.97 16.4718 32.8825 16.5593 32.8825 16.7344C32.8825 16.9094 32.97 16.9969 33.1451 16.9969Z" fill="black"/>
<path d="M20.5802 16.8594C20.5802 16.9734 20.6205 17.0706 20.701 17.1512C20.7816 17.2317 20.8788 17.272 20.9928 17.272C21.1067 17.272 21.204 17.2317 21.2845 17.1512C21.3651 17.0706 21.4054 16.9734 21.4054 16.8594C21.4054 16.7455 21.3651 16.6482 21.2845 16.5677C21.204 16.4871 21.1067 16.4468 20.9928 16.4468C20.8788 16.4468 20.7816 16.4871 20.701 16.5677C20.6205 16.6482 20.5802 16.7455 20.5802 16.8594ZM20.5052 16.8782C20.5052 17.0042 20.5497 17.1117 20.6388 17.2009C20.728 17.29 20.8355 17.3345 20.9615 17.3345C21.0875 17.3345 21.1951 17.29 21.2842 17.2009C21.3733 17.1117 21.4179 17.0042 21.4179 16.8782C21.4179 16.7522 21.3733 16.6446 21.2842 16.5555C21.1951 16.4664 21.0875 16.4218 20.9615 16.4218C20.8355 16.4218 20.728 16.4664 20.6388 16.5555C20.5497 16.6446 20.5052 16.7522 20.5052 16.8782ZM20.3552 16.8969C20.3552 17.0523 20.4101 17.1849 20.5199 17.2948C20.6298 17.4046 20.7624 17.4595 20.9178 17.4595C21.0731 17.4595 21.2057 17.4046 21.3156 17.2948C21.4254 17.1849 21.4804 17.0523 21.4804 16.8969C21.4804 16.7416 21.4254 16.609 21.3156 16.4991C21.2057 16.3893 21.0731 16.3343 20.9178 16.3343C20.7624 16.3343 20.6298 16.3893 20.5199 16.4991C20.4101 16.609 20.3552 16.7416 20.3552 16.8969ZM20.2051 16.9157C20.2051 17.0987 20.2698 17.2548 20.3992 17.3842C20.5286 17.5136 20.6848 17.5783 20.8678 17.5783C21.0507 17.5783 21.2069 17.5136 21.3363 17.3842C21.4657 17.2548 21.5304 17.0987 21.5304 16.9157C21.5304 16.7327 21.4657 16.5765 21.3363 16.4471C21.2069 16.3178 21.0507 16.2531 20.8678 16.2531C20.6848 16.2531 20.5286 16.3178 20.3992 16.4471C20.2698 16.5765 20.2051 16.7327 20.2051 16.9157ZM20.1239 16.9157C20.1239 17.1159 20.1947 17.2868 20.3363 17.4284C20.4778 17.57 20.6488 17.6408 20.849 17.6408C21.0492 17.6408 21.2202 17.57 21.3618 17.4284C21.5033 17.2868 21.5741 17.1159 21.5741 16.9157C21.5741 16.7154 21.5033 16.5445 21.3618 16.4029C21.2202 16.2613 21.0492 16.1905 20.849 16.1905C20.6488 16.1905 20.4778 16.2613 20.3363 16.4029C20.1947 16.5445 20.1239 16.7154 20.1239 16.9157ZM21.0303 17.6346L21.1241 17.6158C21.1689 17.607 21.2126 17.5945 21.2553 17.5783L21.4554 17.497C21.5148 17.474 21.5711 17.4448 21.6242 17.4095L21.9055 17.2157C21.9203 17.2078 21.9349 17.1995 21.9492 17.1907L22.3243 16.9094C22.3371 16.8993 22.3496 16.8889 22.3618 16.8782L22.7931 16.5156C22.7952 16.5135 22.7973 16.5114 22.7994 16.5094L23.2557 16.1155L23.7058 15.728L24.1621 15.3591L24.5997 15.0341L24.9935 14.7528C24.9956 14.7507 24.9977 14.7486 24.9998 14.7465L25.2936 14.534C25.3516 14.4901 25.4037 14.4401 25.4499 14.384L25.5937 14.2214C25.8614 13.9062 25.8872 13.5723 25.6712 13.2196C25.4552 12.867 25.1459 12.7383 24.7435 12.8337L24.531 12.8837C24.4427 12.9047 24.3594 12.9381 24.2809 12.9837L23.9683 13.1712C23.9578 13.1773 23.9474 13.1835 23.9371 13.19L23.5245 13.4525C23.5053 13.4644 23.4866 13.4769 23.4683 13.49L23.0057 13.8338C22.9951 13.842 22.9847 13.8503 22.9744 13.8589L22.4931 14.2402C22.4825 14.2483 22.4721 14.2566 22.4618 14.2652L22.0055 14.6715C21.9992 14.6756 21.9929 14.6798 21.9867 14.684L21.5429 15.0903C21.5408 15.0924 21.5387 15.0945 21.5366 15.0966L21.1303 15.4717L20.7865 15.7842C20.778 15.7924 20.7697 15.8007 20.7615 15.8092L20.5114 16.0468C20.4743 16.0854 20.441 16.1271 20.4114 16.1718L20.2864 16.3468C20.236 16.4199 20.1985 16.4991 20.1739 16.5844L20.1426 16.6719C20.1046 16.8006 20.1008 16.9303 20.1312 17.061C20.1616 17.1917 20.2223 17.3064 20.3133 17.4051C20.4043 17.5038 20.5137 17.5736 20.6415 17.6145C20.7693 17.6554 20.8989 17.6621 21.0303 17.6346ZM24.3872 13.6151C24.3872 13.7929 24.45 13.9446 24.5758 14.0703C24.7015 14.1961 24.8532 14.2589 25.031 14.2589C25.2088 14.2589 25.3606 14.1961 25.4863 14.0703C25.6121 13.9446 25.6749 13.7929 25.6749 13.6151C25.6749 13.4373 25.6121 13.2855 25.4863 13.1598C25.3606 13.034 25.2088 12.9712 25.031 12.9712C24.8532 12.9712 24.7015 13.034 24.5758 13.1598C24.45 13.2855 24.3872 13.4373 24.3872 13.6151ZM24.8685 13.39L24.8123 13.4275C24.654 13.5317 24.627 13.663 24.7311 13.8213C24.8352 13.9796 24.9665 14.0067 25.1248 13.9026L25.1811 13.8651C25.3394 13.7609 25.3665 13.6296 25.2623 13.4713C25.1582 13.3129 25.0269 13.2858 24.8685 13.39Z" fill="black"/>
<path d="M20.5614 17.2657C20.5614 17.3814 20.6023 17.4801 20.6841 17.5619C20.7659 17.6437 20.8646 17.6846 20.9803 17.6846C21.0959 17.6846 21.1947 17.6437 21.2764 17.5619C21.3582 17.4801 21.3991 17.3814 21.3991 17.2657C21.3991 17.1501 21.3582 17.0514 21.2764 16.9696C21.1947 16.8878 21.0959 16.8469 20.9803 16.8469C20.8646 16.8469 20.7659 16.8878 20.6841 16.9696C20.6023 17.0514 20.5614 17.1501 20.5614 17.2657ZM20.5177 17.2657C20.5177 17.3917 20.5623 17.4993 20.6514 17.5883C20.7405 17.6774 20.848 17.7219 20.974 17.7219C21.1 17.7219 21.2075 17.6774 21.2966 17.5883C21.3857 17.4993 21.4303 17.3917 21.4304 17.2657C21.4303 17.1398 21.3857 17.0322 21.2966 16.9432C21.2075 16.8541 21.1 16.8096 20.974 16.8096C20.848 16.8096 20.7405 16.8541 20.6514 16.9432C20.5623 17.0322 20.5177 17.1398 20.5177 17.2657ZM20.3739 17.2782C20.3739 17.4405 20.4313 17.579 20.546 17.6938C20.6608 17.8085 20.7993 17.8659 20.9615 17.8659C21.1238 17.8659 21.2623 17.8085 21.377 17.6938C21.4918 17.579 21.5491 17.4405 21.5491 17.2782C21.5491 17.116 21.4918 16.9775 21.377 16.8627C21.2623 16.748 21.1238 16.6906 20.9615 16.6906C20.7993 16.6906 20.6608 16.748 20.546 16.8627C20.4313 16.9775 20.3739 17.116 20.3739 17.2782ZM20.2239 17.3033C20.2239 17.5052 20.2953 17.6776 20.4381 17.8204C20.5809 17.9632 20.7533 18.0346 20.9553 18.0346C21.1572 18.0346 21.3296 17.9632 21.4724 17.8204C21.6153 17.6776 21.6867 17.5052 21.6867 17.3033C21.6867 17.1013 21.6153 16.9289 21.4724 16.7861C21.3296 16.6433 21.1572 16.5719 20.9553 16.5719C20.7533 16.5719 20.5809 16.6433 20.4381 16.7861C20.2953 16.9289 20.2239 17.1013 20.2239 17.3033ZM20.1676 17.5158L20.1926 17.6283C20.2224 17.7752 20.2849 17.9065 20.3802 18.0221L20.5302 18.2034C20.5712 18.2541 20.6171 18.2999 20.6677 18.3409L20.949 18.5597C20.9633 18.5706 20.9779 18.581 20.9928 18.591L21.3741 18.866C21.3864 18.8747 21.3989 18.883 21.4116 18.8911L21.9117 19.2099C21.9179 19.2141 21.9242 19.2183 21.9305 19.2224L22.5181 19.5787C22.5222 19.5808 22.5264 19.5829 22.5306 19.5849L23.1619 19.9538C23.1863 19.9695 23.2113 19.9841 23.237 19.9975L23.9121 20.3101C23.9405 20.3242 23.9697 20.3367 23.9996 20.3476L24.631 20.5601C24.6778 20.5757 24.7257 20.5862 24.7747 20.5914L25.2936 20.6476L25.6499 20.7164L25.8812 20.8414C26.0255 20.8975 26.1359 20.8582 26.2123 20.7235C26.2887 20.5889 26.2659 20.474 26.1438 20.3788L25.9187 20.2538L25.6999 19.9788L25.4186 19.5474C25.3947 19.5115 25.3676 19.4782 25.3374 19.4474L24.8748 18.9661C24.8457 18.9345 24.8145 18.9053 24.781 18.8786L24.1934 18.4285C24.1752 18.4132 24.1564 18.3986 24.1371 18.3847L23.5183 17.9846C23.51 17.9782 23.5017 17.972 23.4933 17.9659L22.9119 17.6158L22.4368 17.3095L22.0805 17.0657L21.8117 16.8657C21.8035 16.8593 21.7951 16.853 21.7867 16.8469L21.5929 16.7094C21.4903 16.638 21.3778 16.5901 21.2553 16.5656L21.1428 16.5406C21.0068 16.5125 20.8722 16.5183 20.7391 16.5581C20.6061 16.5979 20.4904 16.667 20.3922 16.7652C20.294 16.8634 20.225 16.9791 20.1851 17.1121C20.1453 17.2452 20.1395 17.3798 20.1676 17.5158Z" fill="black"/>
<path d="M0.96996 17.6468C0.96996 17.7452 1.00475 17.8292 1.07432 17.8987C1.1439 17.9683 1.22788 18.0031 1.32628 18.0031C1.42467 18.0031 1.50866 17.9683 1.57823 17.8987C1.64781 17.8292 1.6826 17.7452 1.6826 17.6468C1.6826 17.5484 1.64781 17.4644 1.57823 17.3948C1.50866 17.3252 1.42467 17.2905 1.32628 17.2905C1.22788 17.2905 1.1439 17.3252 1.07432 17.3948C1.00475 17.4644 0.96996 17.5484 0.96996 17.6468ZM1.39504 18.4532L1.7076 18.5219C1.74471 18.5306 1.78222 18.5368 1.82012 18.5407L2.32647 18.5907C2.33893 18.593 2.35143 18.5951 2.36398 18.597L3.09536 18.6345L4.04555 18.697C4.04763 18.697 4.04971 18.697 4.0518 18.697L5.21452 18.7595C5.22698 18.7618 5.23948 18.7639 5.25203 18.7657L6.57728 18.7907C6.5877 18.7909 6.59811 18.7909 6.60853 18.7907L8.0088 18.7657C8.01922 18.7659 8.02964 18.7659 8.04006 18.7657L9.37781 18.7032C9.38823 18.7034 9.39865 18.7034 9.40907 18.7032L10.553 18.6157C10.5635 18.6159 10.5739 18.6159 10.5843 18.6157L11.4845 18.5157C11.497 18.5139 11.5095 18.5118 11.522 18.5094L12.1346 18.4219C12.1901 18.4124 12.2443 18.3978 12.2971 18.3782L12.6659 18.2531C12.8355 18.196 12.9707 18.0935 13.0715 17.9457C13.1723 17.7979 13.2184 17.6346 13.2096 17.4559C13.2009 17.2772 13.1392 17.1192 13.0245 16.9819C12.9098 16.8445 12.7652 16.7557 12.5909 16.7153L12.2159 16.6278C12.148 16.6116 12.0793 16.6033 12.0096 16.6028L11.3844 16.5966C11.3636 16.5959 11.3428 16.5959 11.3219 16.5966L10.4218 16.6466C10.4176 16.6486 10.4134 16.6507 10.4093 16.6528L9.27779 16.7279L7.96504 16.7904L6.59603 16.8154L5.30203 16.7904L4.15807 16.7341L3.20789 16.6841C3.18712 16.6813 3.16628 16.6793 3.14537 16.6778L2.41398 16.6841C2.38472 16.6848 2.35554 16.6869 2.32647 16.6903L1.82012 16.7404C1.76941 16.7445 1.7194 16.7528 1.67009 16.7654L1.36378 16.8529C1.18126 16.9025 1.0333 17.003 0.919912 17.1544C0.806519 17.3058 0.751669 17.4761 0.755363 17.6652C0.759056 17.8543 0.820512 18.0223 0.939731 18.1692C1.05895 18.316 1.21072 18.4107 1.39504 18.4532ZM12.1721 17.4905C12.1721 17.6182 12.2173 17.7273 12.3076 17.8176C12.3979 17.9079 12.5069 17.9531 12.6347 17.9531C12.7624 17.9531 12.8715 17.9079 12.9618 17.8176C13.0521 17.7273 13.0973 17.6182 13.0973 17.4905C13.0973 17.3628 13.0521 17.2537 12.9618 17.1634C12.8715 17.0731 12.7624 17.0279 12.6347 17.0279C12.5069 17.0279 12.3979 17.0731 12.3076 17.1634C12.2173 17.2537 12.1721 17.3628 12.1721 17.4905ZM12.7535 17.7593H12.791C12.9742 17.7592 13.0659 17.6675 13.0659 17.4842C13.0659 17.301 12.9742 17.2093 12.791 17.2092H12.7535C12.5702 17.2093 12.4785 17.301 12.4785 17.4842C12.4785 17.6675 12.5702 17.7592 12.7535 17.7593Z" fill="black"/>
<path d="M9.87159 14.6774C9.87159 14.7931 9.91248 14.8918 9.99426 14.9736C10.076 15.0554 10.1748 15.0963 10.2904 15.0963C10.4061 15.0963 10.5048 15.0554 10.5866 14.9736C10.6684 14.8918 10.7092 14.7931 10.7092 14.6774C10.7092 14.5618 10.6684 14.4631 10.5866 14.3813C10.5048 14.2995 10.4061 14.2586 10.2904 14.2586C10.1748 14.2586 10.076 14.2995 9.99426 14.3813C9.91248 14.4631 9.87159 14.5618 9.87159 14.6774ZM9.99661 15.8152L10.6342 16.4028C10.6424 16.4112 10.6508 16.4196 10.6592 16.4278L11.4094 17.0591C11.4196 17.0677 11.4301 17.076 11.4406 17.0841L12.1783 17.6655C12.1906 17.6741 12.2031 17.6825 12.2158 17.6905L12.8784 18.1656C12.8927 18.1764 12.9073 18.1868 12.9222 18.1969L13.466 18.5407C13.5155 18.5728 13.5676 18.5999 13.6223 18.6219L14.0411 18.7782C14.2459 18.8587 14.4481 18.8525 14.6475 18.7595L14.7725 18.6969C14.926 18.6229 15.0176 18.5021 15.0476 18.3344L15.0726 18.1969C15.1106 17.9974 15.0752 17.8119 14.9663 17.6405L14.7225 17.2654C14.683 17.2059 14.6371 17.1517 14.585 17.1029L14.1224 16.6591C14.1082 16.6461 14.0936 16.6336 14.0786 16.6216L13.4535 16.0965L12.7409 15.4963L12.0157 14.8712L11.3844 14.2961C11.1721 14.1286 10.9312 14.0558 10.6617 14.0778C10.3922 14.0997 10.1663 14.2105 9.98394 14.4101C9.80157 14.6098 9.7116 14.8448 9.71404 15.1151C9.71648 15.3855 9.81067 15.6188 9.99661 15.8152ZM14.5912 18.5844L14.6662 18.6219C14.8288 18.7011 14.9496 18.6594 15.0288 18.4969C15.108 18.3344 15.0663 18.2135 14.9038 18.1343L14.8288 18.0968C14.6663 18.0177 14.5455 18.0594 14.4663 18.2219C14.3871 18.3844 14.4288 18.5052 14.5912 18.5844Z" fill="black"/>
<path d="M14.2037 18.0906C14.2037 18.2028 14.2434 18.2986 14.3227 18.3779C14.4021 18.4572 14.4978 18.4969 14.61 18.4969C14.7222 18.4969 14.818 18.4572 14.8974 18.3779C14.9767 18.2986 15.0164 18.2028 15.0164 18.0906C15.0164 17.9784 14.9767 17.8826 14.8974 17.8033C14.818 17.7239 14.7222 17.6843 14.61 17.6843C14.4978 17.6843 14.4021 17.7239 14.3227 17.8033C14.2434 17.8826 14.2037 17.9784 14.2037 18.0906ZM14.1725 18.0968C14.1725 18.2142 14.214 18.3144 14.297 18.3974C14.38 18.4804 14.4802 18.5219 14.5975 18.5219C14.7149 18.5219 14.8151 18.4804 14.8981 18.3974C14.9811 18.3144 15.0226 18.2142 15.0226 18.0968C15.0226 17.9795 14.9811 17.8793 14.8981 17.7963C14.8151 17.7133 14.7149 17.6718 14.5975 17.6718C14.4802 17.6718 14.38 17.7133 14.297 17.7963C14.214 17.8793 14.1725 17.9795 14.1725 18.0968ZM14.8101 17.6655L14.7476 17.628C14.6781 17.5857 14.6031 17.5586 14.5225 17.5467L14.3662 17.528C14.3144 17.5199 14.2623 17.5178 14.21 17.5217L13.9537 17.5467C13.9157 17.5502 13.8782 17.5565 13.8411 17.5655L13.4848 17.653C13.4377 17.6637 13.3919 17.6783 13.3473 17.6968L12.9035 17.8905C12.878 17.8998 12.853 17.9102 12.8285 17.9218L12.3096 18.2094C12.2927 18.2172 12.276 18.2255 12.2596 18.2344L11.6532 18.6157C11.6427 18.6217 11.6323 18.628 11.622 18.6344L10.9531 19.0845C10.9489 19.0866 10.9447 19.0887 10.9406 19.0908L10.2467 19.5784C10.2318 19.5884 10.2172 19.5988 10.203 19.6096L9.55908 20.116C9.53291 20.1354 9.5079 20.1562 9.48407 20.1785L8.95272 20.6911C8.90923 20.7343 8.87173 20.7823 8.8402 20.8349L8.3651 21.6038L8.18382 21.7288C8.04445 21.8505 8.02694 21.9877 8.13128 22.1405C8.23562 22.2933 8.36983 22.3269 8.53389 22.2414L8.71517 22.1164L9.60909 21.9476C9.66763 21.9357 9.72389 21.9169 9.77787 21.8913L10.453 21.585C10.4786 21.5737 10.5036 21.5612 10.528 21.5475L11.2344 21.1287C11.2535 21.1189 11.2723 21.1085 11.2907 21.0974L11.9908 20.6223L12.6534 20.1722L13.2473 19.7847L13.7474 19.4596C13.7516 19.4575 13.7557 19.4555 13.7599 19.4533L14.16 19.1845C14.1749 19.1746 14.1895 19.1642 14.2037 19.1533L14.4975 18.9282C14.5082 18.9181 14.5187 18.9077 14.5288 18.897L14.7226 18.7282C14.7568 18.7 14.7881 18.6687 14.8163 18.6344L14.9101 18.5094C14.9342 18.4781 14.9551 18.4448 14.9726 18.4094L15.0101 18.3406C15.0699 18.2192 15.0806 18.0937 15.0422 17.9639C15.0037 17.8342 14.9264 17.7347 14.8101 17.6655Z" fill="black"/>
<path d="M8.79022 21.8417L8.81522 21.848C8.86899 21.8608 8.92317 21.8628 8.97775 21.8542L9.04027 21.8417L9.14029 21.8355C9.17213 21.8321 9.20338 21.8259 9.23405 21.8167L9.40909 21.7667C9.44594 21.7556 9.48137 21.741 9.51536 21.7229L9.77791 21.5917C9.80176 21.5785 9.82468 21.564 9.84667 21.5479L10.2155 21.3041C10.2219 21.298 10.2281 21.2917 10.2342 21.2853L10.6968 20.9415C10.6989 20.9415 10.701 20.9415 10.7031 20.9415L11.2407 20.5415C11.2407 20.5394 11.2407 20.5373 11.2407 20.5352L11.8095 20.1101C11.8291 20.0966 11.8479 20.082 11.8658 20.0664L12.3596 19.6038C12.3936 19.5723 12.4228 19.5369 12.4472 19.4975L12.7035 19.0849L13.0285 18.8599C13.1575 18.7524 13.174 18.6297 13.0783 18.4918C12.9825 18.3539 12.8618 18.3266 12.716 18.4098L12.3972 18.6348L11.9158 18.7224C11.8769 18.7305 11.8393 18.743 11.8033 18.7599L11.1782 19.0349C11.1477 19.0492 11.1185 19.0659 11.0907 19.0849L10.4968 19.4725C10.4883 19.4786 10.48 19.4848 10.4718 19.4913L9.92168 19.8851C9.91959 19.8872 9.9175 19.8892 9.91543 19.8913L9.45284 20.2351C9.44862 20.2393 9.44445 20.2434 9.44034 20.2477L9.09028 20.529C9.07512 20.5408 9.06054 20.5533 9.04652 20.5665L8.83398 20.779C8.7922 20.8176 8.75678 20.8614 8.72771 20.9103L8.64019 21.0728C8.63568 21.0831 8.63151 21.0935 8.62769 21.1041L8.60268 21.1603L8.58393 21.1791C8.5751 21.1891 8.56676 21.1995 8.55892 21.2103L8.54642 21.2353C8.47147 21.3514 8.45976 21.4735 8.51129 21.6017C8.56282 21.7298 8.6558 21.8098 8.79022 21.8417Z" fill="black"/>
<path d="M24.9186 19.9659C24.9186 20.0643 24.9534 20.1483 25.023 20.2179C25.0926 20.2874 25.1765 20.3222 25.2749 20.3222C25.3733 20.3222 25.4573 20.2874 25.5269 20.2179C25.5965 20.1483 25.6313 20.0643 25.6313 19.9659C25.6313 19.8675 25.5965 19.7835 25.5269 19.714C25.4573 19.6444 25.3733 19.6096 25.2749 19.6096C25.1765 19.6096 25.0926 19.6444 25.023 19.714C24.9534 19.7835 24.9186 19.8675 24.9186 19.9659ZM24.9124 19.9659C24.9124 20.066 24.9478 20.1515 25.0186 20.2223C25.0894 20.2931 25.1748 20.3285 25.2749 20.3285C25.3751 20.3285 25.4605 20.2931 25.5313 20.2223C25.6021 20.1515 25.6375 20.066 25.6375 19.9659C25.6375 19.8658 25.6021 19.7803 25.5313 19.7095C25.4605 19.6387 25.3751 19.6033 25.2749 19.6033C25.1748 19.6033 25.0894 19.6387 25.0186 19.7095C24.9478 19.7803 24.9124 19.8658 24.9124 19.9659ZM25.5312 19.6346L25.4125 19.4971C25.3987 19.4817 25.3841 19.4671 25.3687 19.4533L25.1624 19.272L24.8686 19.0032C24.8282 18.9672 24.7845 18.936 24.7373 18.9095L24.2685 18.6344C24.2643 18.6344 24.2602 18.6344 24.256 18.6344L23.7246 18.3344C23.7084 18.3233 23.6917 18.3129 23.6746 18.3031L23.0933 18.0343C22.9473 17.9657 22.7952 17.9469 22.6369 17.978L22.3369 18.0343L22.0368 17.7968C21.8939 17.7019 21.7688 17.7215 21.6616 17.8554C21.5545 17.9894 21.5629 18.1157 21.6868 18.2343L22.0056 18.4844L22.0556 18.8032C22.0855 19.0104 22.1855 19.175 22.3556 19.297L22.8807 19.6659C22.9087 19.6865 22.9378 19.7053 22.9682 19.7221L23.5058 20.0097C23.5263 20.0189 23.5472 20.0272 23.5684 20.0347L24.0685 20.2535C24.1328 20.2794 24.1995 20.2961 24.2685 20.3035L24.6686 20.3535C24.6707 20.3535 24.6727 20.3535 24.6748 20.3535L24.9561 20.3847C24.9748 20.3878 24.9935 20.3899 25.0124 20.391H25.1937C25.3881 20.3884 25.5249 20.2982 25.6042 20.1207C25.6834 19.9431 25.6591 19.7811 25.5312 19.6346Z" fill="black"/>
<path d="M25.2374 20.2785C25.2374 20.491 25.3437 20.5973 25.5562 20.5973C25.7688 20.5973 25.875 20.491 25.875 20.2785C25.875 20.0659 25.7688 19.9596 25.5562 19.9596C25.3437 19.9596 25.2374 20.0659 25.2374 20.2785ZM25.1437 20.2722C25.1437 20.381 25.1821 20.4738 25.259 20.5507C25.3359 20.6276 25.4287 20.666 25.5375 20.666C25.6462 20.666 25.7391 20.6276 25.816 20.5507C25.8929 20.4738 25.9313 20.381 25.9313 20.2722C25.9313 20.1635 25.8929 20.0706 25.816 19.9937C25.7391 19.9168 25.6462 19.8784 25.5375 19.8784C25.4287 19.8784 25.3359 19.9168 25.259 19.9937C25.1821 20.0706 25.1437 20.1635 25.1437 20.2722ZM25.9125 20.0472L25.8875 20.0034C25.8357 19.9067 25.7607 19.8337 25.6625 19.7846L25.55 19.7221L25.3624 19.6096L25.0561 19.3783C25.0541 19.3783 25.052 19.3783 25.0499 19.3783L24.6186 19.0657C24.591 19.0462 24.5618 19.0296 24.531 19.0157L23.9872 18.7532C23.9851 18.7532 23.983 18.7532 23.9809 18.7532L23.4933 18.5344L23.1495 18.2656C23.023 18.1818 22.9121 18.1989 22.8168 18.3171C22.7215 18.4352 22.7283 18.5472 22.837 18.6532L23.1808 18.922L23.5058 19.347C23.5079 19.3512 23.5099 19.3554 23.5121 19.3595L23.8997 19.8284C23.9221 19.8559 23.9471 19.8809 23.9747 19.9034L24.3935 20.2347C24.3996 20.2411 24.4059 20.2474 24.4123 20.2535L24.7436 20.4973C24.7617 20.5088 24.7805 20.5192 24.7998 20.5285L25.0249 20.6598C25.0567 20.6778 25.0901 20.6924 25.1249 20.7035L25.2687 20.7473C25.4299 20.7976 25.5799 20.7747 25.7188 20.6785L25.7625 20.6535C25.8623 20.5872 25.9266 20.4958 25.9553 20.3795C25.9841 20.2632 25.9699 20.1524 25.9125 20.0472Z" fill="black"/>
</g>
<defs>
<clipPath id="clip0_1_7228">
<rect width="34" height="32" fill="white"/>
</clipPath>
</defs>
</svg>
