<svg width="29" height="27" viewBox="0 0 29 27" fill="none" xmlns="http://www.w3.org/2000/svg">
<g clip-path="url(#clip0_1_7436)">
<path d="M6.04112 4.37875C6.04112 4.49946 6.08379 4.60248 6.16914 4.68783C6.25449 4.77318 6.35752 4.81586 6.47823 4.81586C6.59893 4.81586 6.70196 4.77318 6.78731 4.68783C6.87266 4.60248 6.91533 4.49946 6.91533 4.37875C6.91533 4.25805 6.87266 4.15502 6.78731 4.06967C6.70196 3.98432 6.59893 3.94164 6.47823 3.94164C6.35752 3.94164 6.25449 3.98432 6.16914 4.06967C6.08379 4.15502 6.04112 4.25805 6.04112 4.37875ZM6.60774 3.90926L6.53489 3.89308L6.39728 3.84451C6.37604 3.83774 6.35445 3.83234 6.33252 3.82832L6.13016 3.79594C6.1089 3.78921 6.08732 3.78382 6.0654 3.77975L5.83066 3.77166C5.77039 3.76713 5.71103 3.77253 5.65258 3.78785L5.36926 3.86879C5.30785 3.88579 5.25118 3.91277 5.19928 3.94974L4.8674 4.18448C4.83797 4.20604 4.81099 4.23033 4.78645 4.25733L4.36553 4.70254C4.3543 4.71289 4.34351 4.72368 4.33316 4.73491L3.87176 5.31772C3.86037 5.33074 3.84958 5.34423 3.83939 5.3582L3.3618 6.07862C3.34289 6.10963 3.3267 6.14201 3.31324 6.17575L2.93279 7.05806C2.91987 7.08697 2.90908 7.11665 2.90041 7.1471L2.63329 8.11846C2.62551 8.15044 2.62012 8.18282 2.6171 8.21559L2.48759 9.24361C2.48256 9.27579 2.47986 9.30817 2.47949 9.34074L2.50378 10.3526C2.50501 10.3963 2.51041 10.4394 2.51997 10.4821L2.72233 11.4291C2.73306 11.4795 2.74925 11.5281 2.7709 11.5749L3.16753 12.4248C3.19505 12.4837 3.23013 12.5376 3.27276 12.5867L3.87986 13.2828C3.92232 13.3329 3.97089 13.376 4.02556 13.4123L4.80264 13.9223C4.84835 13.9523 4.89692 13.9766 4.94835 13.9951L5.83066 14.3189C5.8675 14.333 5.90528 14.3438 5.94398 14.3513L6.87486 14.5132C6.92046 14.5205 6.96633 14.5232 7.01247 14.5213L7.93525 14.497C7.99567 14.4966 8.05503 14.4885 8.11333 14.4727L9.02802 14.2137C9.0731 14.1992 9.11627 14.1803 9.15754 14.157L10.1208 13.6633C10.1547 13.6469 10.187 13.628 10.2179 13.6066L11.1812 12.8862C11.2097 12.8665 11.2366 12.8449 11.2621 12.8214L12.1606 11.9391C12.1899 11.9115 12.2169 11.8818 12.2416 11.8501L12.9863 10.8706C13.0041 10.8446 13.0203 10.8176 13.0349 10.7897L13.6096 9.83451C13.6323 9.79301 13.6512 9.74984 13.6662 9.705L14.0224 8.76602C14.0415 8.71347 14.055 8.65951 14.0629 8.60413L14.2005 7.72182C14.2092 7.65437 14.2092 7.58691 14.2005 7.51946L14.1195 6.68571C14.1112 6.61012 14.0923 6.53727 14.0629 6.46716L13.7391 5.69008C13.7125 5.6232 13.6775 5.56114 13.6339 5.5039L13.0834 4.79967C13.0495 4.75802 13.0117 4.72025 12.9701 4.68635L12.2659 4.09544C12.2283 4.06186 12.1878 4.03218 12.1444 4.0064L11.3431 3.5612C11.2941 3.53413 11.2429 3.51255 11.1893 3.49644L10.3232 3.23741C10.2519 3.21616 10.179 3.20536 10.1046 3.20503L9.19801 3.19694C9.13216 3.19625 9.0674 3.20435 9.00374 3.22122L8.09715 3.45597C8.06092 3.46647 8.02584 3.47996 7.99192 3.49644L7.14198 3.88498C7.10813 3.89822 7.07575 3.91441 7.04485 3.93355L6.35681 4.41922C6.3201 4.44727 6.28772 4.47965 6.25967 4.51636L5.86304 5.00204L5.51497 5.30963C5.37843 5.46151 5.37861 5.61323 5.5155 5.76479C5.6524 5.91635 5.80332 5.93192 5.96827 5.8115L6.28395 5.52818L6.84248 5.31772C6.84793 5.31512 6.85332 5.31242 6.85867 5.30963L7.60337 4.99394L8.39665 4.7511L9.18992 4.66206L9.93462 4.7511L10.655 4.96966L11.3188 5.34201L11.9016 5.83578L12.3387 6.38621L12.5735 6.96093L12.6301 7.55993L12.5006 8.26416L12.1849 9.07362L11.675 9.94784L10.995 10.8706L10.2098 11.7286L9.38419 12.4248L8.55854 12.8781L7.80574 13.1047L7.03675 13.1371L6.25158 13.0076L5.50687 12.7162L4.8674 12.2953L4.38172 11.7448L4.04984 11.0568L3.86367 10.2473L3.83939 9.34884L3.93652 8.41796L4.17126 7.51946L4.49505 6.69381L4.83502 5.97339L5.20737 5.42295L5.54735 5.03441L5.75781 4.89681L5.87113 4.85633L6.01683 4.86443L6.2111 4.87252C6.2192 4.87271 6.22729 4.87271 6.23539 4.87252H6.38918C6.40268 4.87307 6.41617 4.87307 6.42966 4.87252L6.5106 4.86443C6.78808 4.85024 6.94088 4.70494 6.96899 4.42852C6.9971 4.15211 6.87668 3.97902 6.60774 3.90926Z" fill="black"/>
<path d="M5.1833 5.09104L5.22378 5.09914C5.25829 5.10822 5.29336 5.11361 5.32901 5.11533H5.45852C5.50506 5.11566 5.55093 5.11027 5.59613 5.09914L5.88753 5.03438L6.28417 4.93725L6.81841 4.8563L7.4417 4.78345C7.45802 4.78156 7.47421 4.77886 7.49026 4.77535L8.00022 4.67012L8.42114 4.72679C8.637 4.75377 8.75842 4.65933 8.7854 4.44347C8.81238 4.22762 8.71795 4.1062 8.50209 4.07922L8.06498 4.02256L7.55502 3.83638C7.5182 3.82382 7.48043 3.81573 7.4417 3.8121L6.81032 3.73924C6.77524 3.73593 6.74016 3.73593 6.70509 3.73924L6.13037 3.77972C6.0948 3.7819 6.05972 3.78729 6.02514 3.79591L5.60422 3.90923C5.58233 3.91339 5.56074 3.91879 5.53946 3.92542L5.26425 4.03874C5.20121 4.06351 5.14454 4.09859 5.09426 4.14397L5.01332 4.20873L5.00522 4.21683C4.83877 4.34181 4.77632 4.50628 4.81787 4.71024C4.85942 4.9142 4.98123 5.04113 5.1833 5.09104Z" fill="black"/>
<path d="M15.2848 16.2847L15.3172 16.2604C15.3227 16.2551 15.3281 16.2497 15.3334 16.2442L15.3577 16.2199L15.3658 16.2118C15.4805 16.1273 15.5543 16.0158 15.5872 15.8772C15.6201 15.7387 15.6044 15.6058 15.5399 15.4788C15.4755 15.3518 15.3776 15.2606 15.2463 15.2054C15.1151 15.1501 14.9815 15.1438 14.8456 15.1865C14.7097 15.2291 14.6037 15.3107 14.5275 15.4311C14.4514 15.5515 14.4232 15.6822 14.443 15.8233V15.8475C14.4416 15.8691 14.4416 15.8907 14.443 15.9123L14.4511 15.9528C14.4687 16.1586 14.5736 16.2997 14.7655 16.3761C14.9574 16.4525 15.1305 16.422 15.2848 16.2847ZM14.4754 15.4995L14.4673 15.5076C14.4731 15.4943 14.4785 15.4808 14.4834 15.4671L14.4754 15.4995L14.3944 15.6371C14.3425 15.7224 14.3074 15.8141 14.2892 15.9123L14.2082 16.398C14.1987 16.4624 14.196 16.5272 14.2001 16.5922L14.2325 17.3855C14.2363 17.4182 14.2417 17.4506 14.2487 17.4827L14.3944 18.454C14.3984 18.4839 14.4038 18.5136 14.4106 18.543L14.6696 19.5711C14.6785 19.6067 14.6893 19.6418 14.702 19.6763L15.0744 20.6962C15.0842 20.7209 15.095 20.7452 15.1067 20.7691L15.56 21.7647C15.5651 21.7783 15.5705 21.7918 15.5762 21.8052L16.0943 22.8332C16.1093 22.8608 16.1255 22.8878 16.1428 22.9141L16.758 23.9179C16.794 23.9752 16.8344 24.0292 16.8794 24.0798L17.6322 24.9459C17.6722 24.9923 17.7153 25.0355 17.7618 25.0754L18.5712 25.7715C18.6221 25.8136 18.6761 25.8514 18.7331 25.8849L19.583 26.4029C19.672 26.4581 19.7664 26.5013 19.8664 26.5324L20.7406 26.7914C20.8675 26.8284 20.997 26.8446 21.1291 26.84L22.0276 26.8157C22.1638 26.8133 22.296 26.789 22.4243 26.7429L23.3147 26.411C23.4186 26.3727 23.5158 26.3214 23.6061 26.2572L24.4641 25.642C24.5347 25.5921 24.5995 25.5354 24.6584 25.472L25.4354 24.6302C25.4867 24.575 25.5326 24.5156 25.573 24.4521L26.2287 23.416C26.2624 23.3642 26.2921 23.3103 26.3178 23.2541L26.8115 22.1209C26.8335 22.0735 26.8524 22.0249 26.8682 21.9752L27.2001 20.8095C27.2133 20.767 27.2241 20.7238 27.2324 20.68L27.4186 19.5792C27.4256 19.5443 27.431 19.5093 27.4348 19.4739L27.5077 18.543C27.5122 18.4699 27.5095 18.3971 27.4996 18.3245L27.4186 17.6284C27.3943 17.4289 27.3161 17.2535 27.1839 17.1022L26.941 16.827C26.8865 16.7628 26.8218 16.7115 26.7468 16.6732L26.6334 16.6165C26.6269 16.7639 26.6889 16.8718 26.8196 16.9403L26.8277 16.7784C26.7972 16.5933 26.6882 16.4963 26.5008 16.4873C26.3134 16.4784 26.1957 16.5646 26.1478 16.746L26.1397 16.9079C26.2787 16.8524 26.3515 16.7499 26.3582 16.6003L26.2368 16.6489C26.1507 16.681 26.0751 16.7295 26.0102 16.7946L25.7511 17.0536C25.6247 17.1842 25.541 17.338 25.5002 17.515L25.3383 18.2031C25.3325 18.2191 25.3271 18.2353 25.3221 18.2516L25.1602 19.134L24.9012 20.1215L24.5288 21.1657L24.0836 22.1613L23.5251 23.0275L22.918 23.6912L22.2947 24.1364L21.7443 24.3469L21.2505 24.3712L20.7163 24.2093L20.0849 23.8369L19.405 23.2622L18.7007 22.5013L18.0127 21.6433L17.4137 20.7772L16.9523 19.911L16.5719 19.0044L16.3047 18.0897L16.1428 17.1832L16.0376 16.4223C16.0316 16.3867 16.0235 16.3516 16.0133 16.317L15.8919 15.8395C15.8616 15.7288 15.8104 15.629 15.7381 15.5399L15.6167 15.3862C15.5968 15.3603 15.5752 15.3361 15.5519 15.3133L15.5034 15.2647C15.309 15.0837 15.0878 15.0406 14.8396 15.1352L14.8315 15.1433C14.6595 15.2088 14.5408 15.3275 14.4754 15.4995Z" fill="black"/>
<path d="M26.8844 15.6371C26.8844 15.7757 26.9334 15.894 27.0314 15.992C27.1294 16.0899 27.2477 16.1389 27.3863 16.1389C27.5248 16.1389 27.6431 16.0899 27.7411 15.992C27.8391 15.894 27.8881 15.7757 27.8881 15.6371C27.8881 15.4985 27.8391 15.3802 27.7411 15.2822C27.6431 15.1842 27.5248 15.1352 27.3863 15.1352C27.2477 15.1352 27.1294 15.1842 27.0314 15.2822C26.9334 15.3802 26.8844 15.4985 26.8844 15.6371ZM26.7549 15.6695C26.7549 15.846 26.8173 15.9968 26.9422 16.1216C27.067 16.2465 27.2178 16.3089 27.3944 16.3089C27.5709 16.3089 27.7217 16.2465 27.8465 16.1216C27.9714 15.9968 28.0338 15.846 28.0338 15.6695C28.0338 15.4929 27.9714 15.3421 27.8465 15.2173C27.7217 15.0924 27.5709 15.03 27.3944 15.03C27.2178 15.03 27.067 15.0924 26.9422 15.2173C26.8173 15.3421 26.7549 15.4929 26.7549 15.6695ZM26.6577 15.8071V16.0094C26.6593 16.0338 26.662 16.0581 26.6658 16.0823L26.6982 16.3656C26.7002 16.3846 26.7029 16.4035 26.7063 16.4223L26.7711 16.7784C26.8136 17.0047 26.9351 17.1747 27.1353 17.2884L27.1272 17.4826C27.1228 17.5832 27.1545 17.6707 27.2225 17.745C27.2904 17.8192 27.3747 17.8586 27.4753 17.8631C27.5759 17.8676 27.6633 17.8358 27.7376 17.7679C27.8119 17.6999 27.8513 17.6156 27.8557 17.515L27.8638 17.2965L27.88 17.2884C28.1033 17.1611 28.2274 16.9695 28.2524 16.7137L28.2848 16.3494C28.2902 16.2954 28.2902 16.2415 28.2848 16.1875L28.2524 15.9042C28.2483 15.8576 28.2402 15.8118 28.2281 15.7666L28.1633 15.5642C28.1082 15.3791 27.9988 15.2353 27.8353 15.1326C27.6717 15.0299 27.4946 14.9939 27.3039 15.0247C27.1133 15.0554 26.9565 15.1452 26.8335 15.2942C26.7105 15.4431 26.6519 15.614 26.6577 15.8071Z" fill="black"/>
<path d="M26.0117 10.6907V10.6503V10.5693C26.0178 10.4835 26.007 10.3999 25.9793 10.3184L25.9388 10.2051C25.867 9.99876 25.7294 9.85576 25.526 9.77605L25.3398 9.7032C25.1744 9.63933 25.0072 9.63394 24.838 9.68701L24.5709 9.76796C24.4313 9.81074 24.3126 9.88629 24.2147 9.99461L23.899 10.3346C23.8381 10.4022 23.7895 10.4777 23.7533 10.5612L23.47 11.2088C23.4456 11.2608 23.4267 11.3148 23.4133 11.3707L23.2272 12.2368C23.2166 12.2903 23.2112 12.3442 23.211 12.3987L23.1948 13.362C23.1921 13.4301 23.1975 13.4975 23.211 13.5643L23.4133 14.479C23.4267 14.5349 23.4456 14.5889 23.47 14.6409L23.8181 15.4099C23.8444 15.4675 23.8768 15.5214 23.9152 15.5718L24.3361 16.1384C24.3946 16.218 24.4648 16.2854 24.5466 16.3408L25.0322 16.6646C25.1546 16.7481 25.2895 16.7966 25.437 16.8103L25.9874 16.8507C26.1241 16.8633 26.2563 16.8444 26.384 16.7941L26.9911 16.5431C27.067 16.5126 27.1372 16.4721 27.2016 16.4217L27.8087 15.9441C27.8593 15.906 27.9052 15.8628 27.9463 15.8146L28.4563 15.1913C28.5102 15.1249 28.5534 15.052 28.5858 14.9728L28.8772 14.2605C28.9187 14.1593 28.9403 14.0541 28.9419 13.9448L28.9581 13.1839C28.9601 13.0811 28.9439 12.9813 28.9096 12.8844L28.6505 12.164C28.6227 12.0792 28.5823 12.0009 28.5291 11.9292L28.0758 11.3545C28.0114 11.269 27.9331 11.1988 27.8411 11.144L27.2825 10.8203C27.0761 10.6956 26.8575 10.6686 26.6269 10.7393L26.125 10.9012C25.9954 10.9427 25.8901 11.0183 25.8093 11.1279L25.5746 11.4354L25.2751 11.6783C25.1946 11.7453 25.1496 11.831 25.1402 11.9353C25.1307 12.0397 25.1595 12.1321 25.2265 12.2125C25.2936 12.293 25.3793 12.338 25.4836 12.3475C25.5879 12.3569 25.6803 12.3282 25.7608 12.2611L25.9631 12.0911L26.1574 12.1154L26.5055 12.2449L26.8616 12.4716L27.1207 12.8196L27.2502 13.2648L27.2178 13.7343L27.0316 14.1957L26.6674 14.6409L26.2222 14.989L25.9146 15.1185L25.7931 15.1104L25.6151 14.9971L25.3317 14.6166L25.0565 14.0257L24.8946 13.2891L24.9108 12.512L25.0646 11.7916L25.2589 11.2897L25.3803 11.1036L25.4775 11.0388C25.3455 11.0476 25.2241 11.0881 25.1132 11.1602L25.2508 11.1521L25.3156 11.1602C25.2608 11.1389 25.2041 11.1254 25.1456 11.1198L25.2265 11.1521C25.1908 11.1291 25.1531 11.1102 25.1132 11.0955L25.1537 11.1198C25.3314 11.2399 25.5162 11.252 25.7081 11.1561C25.9 11.0601 26.0012 10.905 26.0117 10.6907Z" fill="black"/>
<path d="M5.51874 1.08064L5.41351 1.06446C5.36458 1.06066 5.31601 1.06336 5.26781 1.07255L4.95212 1.12112C4.93295 1.12554 4.91406 1.13094 4.89545 1.13731L4.3693 1.27492C4.35563 1.27985 4.34214 1.28524 4.32883 1.2911L3.66507 1.51775C3.61102 1.53614 3.55975 1.56042 3.51128 1.5906L2.79895 2.02771C2.73926 2.06685 2.6853 2.11272 2.63706 2.16532L1.93283 2.89384C1.87646 2.94978 1.82789 3.01184 1.78713 3.08001L1.18813 4.13231C1.15856 4.18671 1.13427 4.24337 1.11527 4.3023L0.637693 5.69457C0.619808 5.74743 0.606317 5.8014 0.59722 5.85646L0.322004 7.51585C0.314803 7.55065 0.309406 7.58573 0.305815 7.62108L0.200585 9.45046C0.196485 9.50443 0.196485 9.55839 0.200585 9.61235L0.362477 11.4498C0.36852 11.5241 0.382011 11.5969 0.40295 11.6684L0.91291 13.3359C0.942068 13.4275 0.982541 13.5139 1.03433 13.5949L1.88426 14.9548C1.94615 15.0531 2.0217 15.1394 2.11091 15.2138L3.27653 16.2014C3.36243 16.2722 3.45687 16.3289 3.55984 16.3713L4.94402 16.9623C5.03262 16.9984 5.12436 17.0227 5.21924 17.0351L6.70055 17.2537C6.77019 17.2657 6.84034 17.2711 6.91101 17.2698L8.34375 17.2051C8.41195 17.2032 8.47941 17.1951 8.54612 17.1808L9.9303 16.857C9.9998 16.8418 10.0673 16.8202 10.1327 16.7923L11.4764 16.1933C11.5387 16.1663 11.598 16.1339 11.6544 16.0961L12.9496 15.2219C13.0012 15.1881 13.0498 15.1503 13.0953 15.1086L14.3176 13.9511C14.3684 13.9013 14.4143 13.8474 14.4552 13.7892L15.4913 12.3807C15.5317 12.3245 15.5667 12.2651 15.5965 12.2026L16.3817 10.5999C16.4077 10.5449 16.4293 10.4882 16.4464 10.4299L16.9645 8.73814C16.9835 8.67453 16.997 8.60977 17.005 8.54387L17.2154 6.86829C17.2263 6.77655 17.2263 6.68481 17.2154 6.59307L17.0374 5.00653C17.0221 4.8883 16.9897 4.77498 16.9402 4.66655L16.3169 3.25809C16.2628 3.13513 16.19 3.0245 16.0984 2.92621L14.9975 1.7525C14.9147 1.66238 14.8203 1.58683 14.7142 1.52585L13.2005 0.675915C13.099 0.616644 12.9911 0.573473 12.8767 0.546401L11.0797 0.149766C10.9756 0.127039 10.8704 0.118944 10.764 0.125482L8.90228 0.222617C8.82519 0.227457 8.74964 0.240948 8.67563 0.26309L6.98386 0.756861C6.95058 0.768177 6.9182 0.781668 6.88673 0.797334L5.48636 1.41252C5.45222 1.4284 5.41985 1.44729 5.38922 1.46919L4.41787 2.13294L3.69745 2.54577C3.6081 2.5972 3.55 2.6727 3.52317 2.77225C3.49633 2.87179 3.50861 2.96626 3.56 3.05564C3.6114 3.14502 3.68686 3.20315 3.78639 3.23003C3.88593 3.25692 3.9804 3.24469 4.0698 3.19334L4.75785 2.80479L5.85062 2.55386L7.28336 2.28674L8.92657 2.24627L10.6264 2.40006L12.1644 2.80479L13.3867 3.50903L14.2285 4.40753L14.7142 5.46792L14.868 6.72258L14.6899 8.15533L14.2366 9.66902L13.5486 11.0937L12.642 12.3564L11.5897 13.4087L10.4645 14.1777L9.31511 14.6958L8.14139 14.9791L6.9191 15.0357L5.68063 14.8496L4.56357 14.3963L3.65698 13.6354L2.97703 12.5507L2.53183 11.126L2.34565 9.46665L2.37803 7.77488L2.61278 6.2531L2.98513 4.98224L3.43843 4.01899L3.9241 3.29047L4.40978 2.78051L4.87926 2.42435L5.25971 2.21389L5.51064 2.14104L5.59968 2.11675C5.8672 2.03036 5.99002 1.84703 5.96812 1.56675C5.94623 1.28648 5.79643 1.12445 5.51874 1.08064Z" fill="black"/>
<path d="M15.3699 11.2879L15.3618 11.2636C15.3315 11.1717 15.2802 11.0934 15.208 11.0289L15.1351 10.956C15.1001 10.9275 15.0623 10.9032 15.0218 10.8832L14.8518 10.786C14.7986 10.7538 14.7419 10.7295 14.6818 10.7132L14.4066 10.6565C14.3773 10.6492 14.3476 10.6438 14.3176 10.6403L13.9452 10.608C13.8661 10.601 13.7879 10.6064 13.7105 10.6242L13.241 10.7294C13.1702 10.7444 13.1028 10.7687 13.0386 10.8022L12.5125 11.0936C12.4507 11.127 12.3941 11.1675 12.3425 11.2151L11.8325 11.6926C11.79 11.7346 11.7523 11.7805 11.7192 11.8303L11.2821 12.4373C11.2501 12.486 11.2231 12.5372 11.2011 12.5911L10.9097 13.263C10.8699 13.3534 10.8456 13.4479 10.8369 13.5463L10.7802 14.2182C10.7708 14.358 10.7924 14.4929 10.845 14.6229L11.0878 15.2543C11.1373 15.378 11.2101 15.4859 11.3064 15.5781L11.8325 16.0799C11.9111 16.155 12.0001 16.2144 12.0996 16.258L12.8201 16.5818C12.9236 16.6256 13.0315 16.6499 13.1438 16.6546L13.9209 16.6951C14.0489 16.7019 14.1731 16.683 14.2933 16.6384L15.0299 16.3713C15.1374 16.3324 15.2345 16.2757 15.3213 16.2013L15.9284 15.6752C16.006 15.6076 16.0708 15.5293 16.1227 15.4404L16.5436 14.7281C16.5932 14.642 16.6283 14.5502 16.6488 14.4529L16.8188 13.692C16.8482 13.5717 16.8536 13.4502 16.835 13.3278L16.7136 12.6316C16.6926 12.5098 16.6494 12.3965 16.5841 12.2916L16.2441 11.7331C16.1734 11.6161 16.0816 11.519 15.9689 11.4417L15.4994 11.1179C15.2823 10.9697 15.0449 10.9211 14.7871 10.9722L14.3338 11.0613C14.136 11.1001 13.9785 11.2016 13.8613 11.3656C13.7442 11.5296 13.6993 11.7115 13.7267 11.9112L13.7348 12.0002C13.8376 11.9228 13.8807 11.8203 13.8643 11.6926L13.5567 11.9355C13.4227 12.0738 13.415 12.2189 13.5336 12.3706C13.6521 12.5224 13.7948 12.55 13.9614 12.4535L14.269 12.2107C14.2174 12.1266 14.1431 12.0757 14.046 12.0579C13.949 12.0401 13.8614 12.0614 13.7833 12.1217L13.8238 12.1945C13.8887 12.3023 13.9751 12.3886 14.0828 12.4535L14.439 12.6721L14.7304 12.8825L14.8842 13.1335L14.9489 13.4654L14.8518 13.9025L14.5847 14.3558L14.2204 14.6715L13.8157 14.8253L13.4029 14.8091L12.9901 14.631L12.7229 14.3801L12.6177 14.1291L12.6339 13.8053L12.8039 13.3601L13.1277 12.8664L13.5 12.4454L13.8238 12.1864L14.1071 12.0731L14.3257 12.0245H14.528C14.5552 12.0235 14.5822 12.0208 14.609 12.0164L14.8032 11.9921C14.814 11.9924 14.8248 11.9924 14.8356 11.9921L14.9409 11.9679C14.9682 11.9645 14.9952 11.9591 15.0218 11.9517L15.0461 11.9436C15.1811 11.8975 15.2802 11.8105 15.3434 11.6826C15.4066 11.5547 15.4154 11.4231 15.3699 11.2879Z" fill="black"/>
</g>
<defs>
<clipPath id="clip0_1_7436">
<rect width="29" height="27" fill="white"/>
</clipPath>
</defs>
</svg>
