<svg width="21" height="43" viewBox="0 0 21 43" fill="none" xmlns="http://www.w3.org/2000/svg">
<g clip-path="url(#clip0_1_7242)">
<path d="M12.6976 25.3892C12.6976 25.5736 12.7898 25.6658 12.9742 25.6658C13.1586 25.6658 13.2508 25.5736 13.2508 25.3892C13.2508 25.2048 13.1586 25.1126 12.9742 25.1126C12.7898 25.1126 12.6976 25.2048 12.6976 25.3892ZM13.1586 25.6875L13.2075 25.6604C13.2207 25.6522 13.2334 25.6432 13.2454 25.6333L13.3539 25.5574C13.3557 25.5556 13.3575 25.5538 13.3593 25.5519L13.4949 25.4435C13.4986 25.4417 13.5022 25.4399 13.5058 25.438L13.663 25.3024L13.8854 25.1452C13.9121 25.1249 13.9356 25.1014 13.9559 25.0747L14.1403 24.8469L14.4007 24.7113C14.5091 24.6341 14.5335 24.536 14.474 24.417C14.4145 24.2979 14.3214 24.2586 14.1946 24.2991L13.918 24.4401L13.6142 24.4835C13.5658 24.4907 13.5206 24.507 13.4786 24.5323L13.2346 24.6787C13.2175 24.6883 13.2012 24.6992 13.1858 24.7113L13.0176 24.8523C13.0101 24.8592 13.0029 24.8665 12.9959 24.874L12.8712 24.9933C12.8675 24.9968 12.8639 25.0005 12.8603 25.0041L12.7736 25.0964L12.7302 25.1397C12.5957 25.2865 12.5898 25.4383 12.7124 25.5951C12.8351 25.7519 12.9838 25.7827 13.1586 25.6875Z" fill="black"/>
<path d="M13.3919 27.2658L13.4407 27.2387C13.4462 27.237 13.4516 27.2352 13.457 27.2333L13.598 27.1519L13.8258 27.0163C13.8276 27.0145 13.8294 27.0127 13.8312 27.0109L14.1295 26.8265C14.1313 26.8265 14.1331 26.8265 14.1349 26.8265L14.5092 26.5933C14.5092 26.5915 14.5092 26.5897 14.5092 26.5879L14.9539 26.3058C14.9796 26.2906 15.0031 26.2726 15.0244 26.2516L15.3661 25.8882L15.7349 25.6604C15.8613 25.5808 15.8848 25.4778 15.8053 25.3513C15.7258 25.2249 15.6228 25.2013 15.4963 25.2808L15.1329 25.5086L14.6556 25.6441C14.6269 25.6534 14.5998 25.6661 14.5742 25.6821L14.1187 25.9479C14.115 25.9496 14.1114 25.9514 14.1078 25.9533L13.7336 26.1865C13.7318 26.1883 13.7299 26.1901 13.7282 26.1919L13.4353 26.3872C13.4317 26.3871 13.428 26.3871 13.4244 26.3872L13.2075 26.539L13.0719 26.6312C13.0645 26.6364 13.0572 26.6418 13.0502 26.6475L13.0014 26.6855C12.8454 26.8218 12.8253 26.9759 12.9409 27.1477C13.0566 27.3196 13.2069 27.3589 13.3919 27.2658Z" fill="black"/>
<path d="M13.457 28.5566C13.457 28.6494 13.4899 28.7287 13.5555 28.7943C13.6212 28.8599 13.7004 28.8927 13.7932 28.8927C13.8861 28.8927 13.9653 28.8599 14.0309 28.7943C14.0966 28.7287 14.1294 28.6494 14.1295 28.5566C14.1295 28.4638 14.0966 28.3846 14.0309 28.319C13.9653 28.2533 13.8861 28.2205 13.7932 28.2205C13.7004 28.2205 13.6212 28.2533 13.5555 28.319C13.4899 28.3846 13.457 28.4638 13.457 28.5566ZM13.918 28.8929L13.9722 28.8766C14.0204 28.8596 14.0638 28.8343 14.1024 28.8007L14.2488 28.6759C14.2563 28.669 14.2635 28.6617 14.2705 28.6542L14.5146 28.4102C14.5221 28.4032 14.5293 28.396 14.5363 28.3885L14.8454 28.0251C14.8597 28.0082 14.8724 27.9901 14.8834 27.9709L15.1058 27.5858L15.3986 27.32C15.5107 27.2152 15.5143 27.1067 15.4095 26.9946C15.3046 26.8825 15.1961 26.8789 15.0841 26.9838L14.7966 27.2495L14.3953 27.461C14.3741 27.4718 14.3543 27.4844 14.3356 27.499L13.9614 27.7919C13.9499 27.8021 13.9391 27.813 13.9288 27.8244L13.6848 28.0685C13.6773 28.0755 13.67 28.0827 13.6631 28.0902L13.5383 28.2366C13.4854 28.2995 13.4546 28.3718 13.4461 28.4536L13.4353 28.5132C13.4217 28.6459 13.4673 28.7535 13.5721 28.8359C13.6769 28.9184 13.7922 28.9374 13.918 28.8929Z" fill="black"/>
<path d="M13.7878 25.1126L13.8638 25.1017C13.921 25.0945 13.9734 25.0746 14.021 25.0421L14.1946 24.9227L14.4766 24.7383L14.8237 24.5268C14.8522 24.5087 14.8775 24.487 14.8997 24.4617L15.122 24.2177L15.3553 24.0929C15.4925 24.017 15.5233 23.9103 15.4474 23.773C15.3715 23.6356 15.2648 23.6049 15.1275 23.6807L14.8942 23.8109L14.5634 23.8868C14.5271 23.8941 14.4927 23.9067 14.4604 23.9248L14.1078 24.1363C14.1023 24.138 14.0969 24.1398 14.0915 24.1417L13.8041 24.3316L13.6251 24.4509C13.5836 24.4781 13.5493 24.5124 13.5221 24.5539L13.4841 24.6136C13.4057 24.7274 13.4024 24.8434 13.4743 24.9615C13.5462 25.0796 13.6507 25.1299 13.7878 25.1126Z" fill="black"/>
<path d="M7.94548 4.92096C7.94548 5.01981 7.98043 5.10418 8.05032 5.17407C8.12022 5.24397 8.20459 5.27892 8.30344 5.27892C8.40229 5.27892 8.48666 5.24397 8.55656 5.17407C8.62645 5.10418 8.6614 5.01981 8.6614 4.92096C8.6614 4.82211 8.62645 4.73774 8.55656 4.66784C8.48666 4.59794 8.40229 4.563 8.30344 4.563C8.20459 4.563 8.12022 4.59794 8.05032 4.66784C7.98043 4.73774 7.94548 4.82211 7.94548 4.92096ZM7.94006 4.92096C7.94009 5.02128 7.97558 5.1069 8.04653 5.17783C8.11748 5.24875 8.20312 5.28422 8.30344 5.28422C8.40376 5.28422 8.4894 5.24875 8.56035 5.17783C8.6313 5.1069 8.66679 5.02128 8.66682 4.92096C8.66679 4.82064 8.6313 4.73501 8.56035 4.66409C8.4894 4.59316 8.40376 4.5577 8.30344 4.5577C8.20312 4.5577 8.11748 4.59316 8.04653 4.66409C7.97558 4.73501 7.94009 4.82064 7.94006 4.92096ZM8.2709 5.30604H8.29802C8.36679 5.31618 8.43368 5.30895 8.49869 5.28434L8.55835 5.25722C8.58921 5.24438 8.61813 5.22811 8.64513 5.20841L8.73191 5.14875C8.74519 5.13863 8.75784 5.12779 8.76987 5.11621L8.90004 5.00231L9.12241 4.80164L9.4424 4.51418C9.44423 4.51239 9.44603 4.51058 9.44783 4.50876L9.82748 4.16165L10.2071 3.80911C10.2146 3.80211 10.2218 3.79488 10.2288 3.78742L10.5543 3.44573C10.5579 3.44217 10.5615 3.43856 10.5651 3.43488L10.8146 3.14743L11.037 2.9359L11.2105 2.77862C11.2222 2.76667 11.233 2.75401 11.2431 2.74065L11.3515 2.61591C11.3755 2.58977 11.3954 2.56084 11.4112 2.52913L11.4492 2.44235L11.4763 2.39354C11.5211 2.30369 11.5276 2.21115 11.4958 2.11591C11.464 2.02067 11.4032 1.95059 11.3134 1.90569C11.2236 1.86078 11.1311 1.85419 11.0358 1.8859C10.9405 1.91761 10.8704 1.97835 10.8254 2.06812L10.7983 2.12236C10.8317 2.09299 10.8589 2.05864 10.8797 2.01931L10.8037 2.08439C10.8 2.08972 10.7964 2.09515 10.7929 2.10066L10.6844 2.21456L10.5217 2.35557L10.2776 2.55083L9.9685 2.7732C9.9611 2.7784 9.95387 2.78382 9.9468 2.78947L9.58342 3.08234C9.57412 3.08925 9.56508 3.09648 9.5563 3.10404L9.17665 3.45657C9.17482 3.45837 9.17302 3.46018 9.17122 3.462L8.79699 3.81996C8.79326 3.82531 8.78965 3.83073 8.78614 3.83623L8.48784 4.14538L8.27632 4.36775C8.2745 4.36954 8.27269 4.37135 8.2709 4.37317L8.157 4.50334C8.15326 4.50868 8.14965 4.5141 8.14615 4.51961L8.07565 4.59554C8.06791 4.60605 8.06068 4.6169 8.05395 4.62808L8.01599 4.68232C8.01021 4.69114 8.00478 4.70018 7.99972 4.70944L7.98344 4.73655C7.91374 4.8555 7.90995 4.97651 7.97207 5.09958C8.0342 5.22266 8.13381 5.29147 8.2709 5.30604Z" fill="black"/>
<path d="M8.28175 5.2898C8.28175 5.4742 8.37395 5.5664 8.55835 5.5664C8.74276 5.5664 8.83496 5.4742 8.83496 5.2898C8.83496 5.10539 8.74276 5.01319 8.55835 5.01319C8.37395 5.01319 8.28175 5.10539 8.28175 5.2898ZM8.27632 5.49047L8.29802 5.51759C8.33457 5.56972 8.38157 5.60949 8.43903 5.63691L8.52039 5.67488L8.67767 5.75081L8.91631 5.90809L9.24715 6.11961C9.25249 6.12336 9.25791 6.12698 9.26342 6.13046L9.6702 6.35825C9.68257 6.36433 9.69523 6.36975 9.70816 6.37453L10.1854 6.5752C10.203 6.58375 10.2211 6.59098 10.2397 6.59689L10.7658 6.73249C10.8047 6.74421 10.8445 6.74963 10.8851 6.74876L11.357 6.72164L11.742 6.79215C11.8842 6.80279 11.9684 6.73802 11.9945 6.59782C12.0205 6.45762 11.9653 6.36692 11.8288 6.32571L11.4546 6.25521L11.0532 6.02741C11.0324 6.01638 11.0107 6.00734 10.9881 6.00029L10.4837 5.83216L10.039 5.64233L9.6485 5.43624L9.31224 5.24641C9.30865 5.24454 9.30503 5.24273 9.30139 5.24098L9.03563 5.09997C9.02845 5.09794 9.02122 5.09613 9.01394 5.09455L8.83496 5.00777C8.82606 5.00379 8.81702 5.00018 8.80784 4.99692L8.71564 4.96438C8.67358 4.94914 8.63019 4.9419 8.58547 4.94268H8.55293C8.41357 4.94532 8.31248 5.00886 8.24965 5.13328C8.18683 5.2577 8.19572 5.37676 8.27632 5.49047Z" fill="black"/>
<path d="M12.1054 6.56976H12.1109C12.1683 6.58581 12.2261 6.58761 12.2844 6.57519L12.3224 6.56434C12.3371 6.56158 12.3515 6.55796 12.3658 6.55349L12.4851 6.5101C12.5057 6.50269 12.5256 6.49365 12.5448 6.48298L12.7671 6.35824L13.1034 6.16841C13.1089 6.16492 13.1143 6.16131 13.1197 6.15757L13.4993 5.91893C13.5067 5.91551 13.5139 5.91189 13.521 5.90808L13.879 5.65317C13.8845 5.64967 13.8899 5.64606 13.8952 5.64232L14.1827 5.42537C14.2552 5.37057 14.3058 5.30007 14.3346 5.21385L14.4376 4.90471C14.4631 4.82342 14.4492 4.74963 14.3956 4.68333C14.3421 4.61703 14.273 4.58777 14.1881 4.59556L13.8627 4.63352C13.7869 4.64274 13.7182 4.66986 13.6566 4.71488L13.3637 4.93182L13.0112 5.18673L12.6424 5.44165L12.3278 5.66401L12.1217 5.81045C12.1162 5.81394 12.1108 5.81755 12.1054 5.8213L12.0078 5.89723C11.9924 5.90879 11.9779 5.92144 11.9644 5.9352L11.9373 5.96774C11.8452 6.06559 11.8163 6.17949 11.8505 6.30943V6.31485C11.886 6.44935 11.971 6.53432 12.1054 6.56976Z" fill="black"/>
<path d="M10.6761 2.26322C10.7016 2.46576 10.8164 2.56703 11.0205 2.56703C11.2247 2.56703 11.3395 2.46576 11.3649 2.26322C11.3395 2.06068 11.2247 1.95941 11.0205 1.95941C10.8164 1.95941 10.7016 2.06068 10.6761 2.26322ZM11.11 1.89441L11.0992 1.88899C11.0474 1.87501 10.995 1.8714 10.9419 1.87814L10.9039 1.88356C10.8543 1.8897 10.8073 1.90416 10.7629 1.92695L10.6978 1.95949C10.6729 1.9717 10.6494 1.98617 10.6273 2.00288L10.5134 2.08966C10.4981 2.1014 10.4837 2.11405 10.47 2.12763L10.2748 2.3283C10.2654 2.33698 10.2563 2.34602 10.2477 2.35542L9.9602 2.71338C9.95457 2.72046 9.94915 2.72769 9.94393 2.73507L9.5697 3.23947L9.15208 3.79811C9.15206 3.79991 9.15206 3.80172 9.15208 3.80353L8.73988 4.36217L8.36565 4.87199L8.02938 5.31673L7.72566 5.69096C7.71811 5.69974 7.71088 5.70878 7.70396 5.71808L7.47075 6.03807C7.40414 6.13272 7.37703 6.23757 7.38939 6.35264L7.39482 6.42315L7.35143 6.46654C7.23227 6.58947 7.23412 6.71056 7.35697 6.82979C7.47982 6.94903 7.60091 6.94727 7.72023 6.8245L7.76905 6.77026H7.84498C7.97339 6.77296 8.08367 6.72957 8.17582 6.64009L8.45785 6.36349C8.46933 6.35138 8.48018 6.33872 8.49039 6.32552L8.81039 5.95129C8.816 5.94421 8.82143 5.93697 8.82666 5.9296L9.16835 5.47944C9.17017 5.47764 9.17198 5.47583 9.17377 5.47401L9.55343 4.95877C9.55344 4.95696 9.55344 4.95515 9.55343 4.95334L9.9602 4.38386L10.367 3.8198L10.7304 3.30998L11.0015 2.94117L11.1642 2.71338C11.1661 2.71159 11.1679 2.70978 11.1697 2.70796L11.2293 2.62118L11.251 2.59948C11.2647 2.58588 11.2773 2.57142 11.289 2.55609L11.3107 2.52355C11.3544 2.46739 11.3815 2.40412 11.392 2.33372V2.31745C11.419 2.09581 11.325 1.9548 11.11 1.89441Z" fill="black"/>
<path d="M10.8605 1.98123L10.687 2.6158C10.6759 2.65848 10.6704 2.70187 10.6707 2.74597L10.6598 3.85239C10.6596 3.86143 10.6596 3.87047 10.6598 3.87951L10.687 4.59543C10.6868 4.60266 10.6868 4.60989 10.687 4.61712L10.7521 5.33847C10.752 5.34208 10.752 5.3457 10.7521 5.34932L10.8334 6.02185C10.8349 6.03094 10.8367 6.03998 10.8388 6.04897L10.9365 6.61302C10.9427 6.64883 10.9535 6.68318 10.969 6.71607L11.1317 7.05776L11.1588 7.3181C11.1771 7.49147 11.2729 7.56912 11.4463 7.55106C11.6196 7.533 11.6974 7.43727 11.6795 7.26386L11.6524 7.00353L11.7337 6.63472C11.7409 6.6044 11.7445 6.57367 11.7446 6.54252L11.75 5.97303C11.7503 5.964 11.7503 5.95496 11.75 5.94592L11.7175 5.27881L11.6958 4.56289L11.6795 3.85239V2.75139C11.6802 2.70545 11.6748 2.66026 11.6632 2.6158L11.4897 1.98123C11.4469 1.81984 11.3421 1.73914 11.1751 1.73914C11.0081 1.73914 10.9033 1.81984 10.8605 1.98123Z" fill="black"/>
<path d="M10.8443 1.93782C10.8443 2.04415 10.8819 2.13492 10.9571 2.21011C11.0323 2.2853 11.1231 2.3229 11.2294 2.3229C11.3357 2.3229 11.4265 2.2853 11.5017 2.21011C11.5769 2.13492 11.6145 2.04415 11.6145 1.93782C11.6145 1.83148 11.5769 1.74072 11.5017 1.66553C11.4265 1.59034 11.3357 1.55274 11.2294 1.55274C11.1231 1.55274 11.0323 1.59034 10.9571 1.66553C10.8819 1.74072 10.8443 1.83148 10.8443 1.93782ZM10.8281 1.93239C10.8281 2.04322 10.8672 2.13782 10.9456 2.21619C11.024 2.29456 11.1186 2.33374 11.2294 2.33374C11.3402 2.33374 11.4348 2.29456 11.5132 2.21619C11.5916 2.13782 11.6308 2.04322 11.6308 1.93239C11.6308 1.82157 11.5916 1.72697 11.5132 1.6486C11.4348 1.57023 11.3402 1.53105 11.2294 1.53105C11.1186 1.53105 11.024 1.57023 10.9456 1.6486C10.8672 1.72697 10.8281 1.82157 10.8281 1.93239ZM10.7847 1.92697C10.7847 2.04978 10.8281 2.15461 10.9149 2.24145C11.0018 2.32829 11.1066 2.37171 11.2294 2.37171C11.3522 2.37171 11.457 2.32829 11.5439 2.24145C11.6307 2.15461 11.6741 2.04978 11.6741 1.92697C11.6741 1.80416 11.6307 1.69933 11.5439 1.61249C11.457 1.52565 11.3522 1.48223 11.2294 1.48223C11.1066 1.48223 11.0018 1.52565 10.9149 1.61249C10.8281 1.69933 10.7847 1.80416 10.7847 1.92697ZM10.7738 1.81307L10.7684 1.8185C10.7348 1.95898 10.7583 2.08915 10.8389 2.209L10.866 2.25239C10.8761 2.26741 10.887 2.28188 10.8986 2.29578L10.9636 2.37713C10.9724 2.38648 10.9814 2.39552 10.9908 2.40425L11.0938 2.51815C11.0991 2.52368 11.1046 2.5291 11.1101 2.53442L11.2511 2.67543L11.4247 2.87068L11.6416 3.15814L11.8965 3.54864L12.1785 4.02592L12.4714 4.53574C12.4714 4.53755 12.4714 4.53936 12.4714 4.54117L12.748 5.0076C12.7515 5.01309 12.7552 5.01851 12.7589 5.02387L13.0138 5.42522C13.0171 5.43437 13.0207 5.44341 13.0246 5.45234L13.2578 5.77233C13.2871 5.81543 13.3232 5.85159 13.3663 5.88081L13.5561 6.00013L13.6429 6.14114C13.7406 6.2893 13.8635 6.31459 14.0117 6.21699C14.1599 6.1194 14.1852 5.99649 14.0877 5.84826L14.0063 5.72352L13.9955 5.51742C13.9942 5.49177 13.9906 5.46646 13.9846 5.44149L13.8924 5.05641C13.8891 5.04726 13.8855 5.03822 13.8816 5.02929L13.7406 4.57371C13.7375 4.5591 13.7339 4.54463 13.7297 4.53032L13.529 4.02592C13.5224 4.01116 13.5152 3.99669 13.5073 3.98253L13.247 3.45644C13.2419 3.44543 13.2365 3.43458 13.2307 3.4239L12.9487 2.92492C12.9418 2.91384 12.9346 2.903 12.927 2.89238L12.6504 2.46934C12.637 2.45043 12.6225 2.43235 12.607 2.4151L12.3521 2.10595C12.3401 2.09088 12.3275 2.07642 12.3141 2.06256L12.0918 1.84562C12.0796 1.83423 12.0669 1.82339 12.0538 1.81307L11.8802 1.67206C11.8613 1.65633 11.8414 1.64187 11.8206 1.62867L11.6904 1.54732C11.6444 1.52045 11.5956 1.50056 11.544 1.48766L11.4409 1.46054C11.3843 1.44355 11.3264 1.43632 11.2674 1.43884L11.2186 1.44427C11.0772 1.45408 10.9614 1.51374 10.8714 1.62325L10.866 1.62867C10.8215 1.68326 10.7908 1.74473 10.7738 1.81307Z" fill="black"/>
<path d="M7.71486 5.11062C7.71486 5.21695 7.75245 5.30772 7.82764 5.38291C7.90283 5.4581 7.9936 5.49569 8.09993 5.49569C8.20627 5.49569 8.29704 5.4581 8.37223 5.38291C8.44742 5.30772 8.48501 5.21695 8.48501 5.11062C8.48501 5.00428 8.44742 4.91351 8.37223 4.83832C8.29704 4.76313 8.20627 4.72554 8.09993 4.72554C7.9936 4.72554 7.90283 4.76313 7.82764 4.83832C7.75245 4.91351 7.71486 5.00428 7.71486 5.11062ZM7.69316 5.10519C7.69316 5.21602 7.73235 5.31062 7.81071 5.38899C7.88908 5.46736 7.98368 5.50654 8.09451 5.50654C8.20534 5.50654 8.29994 5.46736 8.37831 5.38899C8.45668 5.31062 8.49586 5.21602 8.49586 5.10519C8.49586 4.99436 8.45668 4.89976 8.37831 4.82139C8.29994 4.74303 8.20534 4.70384 8.09451 4.70384C7.98368 4.70384 7.88908 4.74303 7.81071 4.82139C7.73235 4.89976 7.69316 4.99436 7.69316 5.10519ZM8.44705 4.88282L8.4362 4.86655C8.31928 4.6654 8.14753 4.59127 7.92095 4.64418L7.87757 4.65503C7.72335 4.69031 7.61126 4.77889 7.5413 4.92079L7.48706 5.03468C7.47393 5.06089 7.46308 5.088 7.45452 5.11604L7.37859 5.3818C7.37462 5.39253 7.37101 5.40338 7.36774 5.41434L7.25927 5.88077L7.10198 6.51534L6.90131 7.25838L6.63555 8.07192C6.63367 8.07732 6.63186 8.08274 6.63013 8.08819L6.36437 8.96682C6.36253 8.97042 6.36072 8.97404 6.35895 8.97767L6.09861 9.89969L5.79489 10.8814L5.46947 11.939L5.12778 13.0291C5.12777 13.0309 5.12777 13.0327 5.12778 13.0346L4.78609 14.1735L4.43355 15.3559C4.43174 15.3577 4.42993 15.3595 4.42813 15.3613L4.08102 16.5653C4.08099 16.569 4.08099 16.5726 4.08102 16.5762L3.76645 17.7585C3.76457 17.7639 3.76276 17.7694 3.76102 17.7748L3.47899 18.9517C3.47899 18.9536 3.47899 18.9554 3.47899 18.9572L3.20239 20.1504L2.90951 21.3544L2.60579 22.5314L2.27494 23.6595L1.91698 24.7496L1.27157 26.6859C1.26957 26.6949 1.26777 26.7039 1.26615 26.713L0.859374 28.1231C0.849738 28.1533 0.842506 28.184 0.837679 28.2153L0.772596 28.7143C0.771632 28.7324 0.771632 28.7505 0.772596 28.7685L0.761748 29.1157C0.759934 29.1844 0.774397 29.2494 0.805138 29.3109L0.826832 29.3597V29.3651C0.776211 29.5351 0.835871 29.6454 1.00581 29.696C1.17575 29.7466 1.28603 29.6869 1.33665 29.517L1.34208 29.5062L1.38547 29.479C1.4402 29.4478 1.48539 29.4062 1.52106 29.3543L1.71089 29.0614C1.71866 29.0491 1.72589 29.0364 1.73258 29.0235L1.97122 28.5787C1.98565 28.5543 1.9983 28.529 2.00919 28.5028L2.51901 27.1306C2.52089 27.1252 2.52269 27.1198 2.52443 27.1143L3.19154 25.1781C3.19338 25.1745 3.19519 25.1709 3.19696 25.1672L3.55492 24.0662C3.5568 24.0608 3.55861 24.0554 3.56035 24.05L3.89661 22.9002C3.89854 22.893 3.90035 22.8857 3.90204 22.8785L4.21118 21.6853C4.21121 21.6816 4.21121 21.678 4.21118 21.6744L4.50406 20.4649C4.50407 20.4631 4.50407 20.4613 4.50406 20.4595L4.79151 19.2663L5.06812 18.0948L5.37184 16.9233L5.70811 15.7301L6.05522 14.5532L6.39691 13.4142L6.73318 12.3295C6.73318 12.3277 6.73318 12.3259 6.73318 12.3241L7.05317 11.2664C7.05318 11.2646 7.05318 11.2628 7.05317 11.261L7.34605 10.2685C7.34798 10.2613 7.34979 10.2541 7.35147 10.2468L7.60096 9.31394C7.60305 9.30314 7.60486 9.29229 7.60638 9.2814L7.79621 8.38649C7.79628 8.38107 7.79628 8.37565 7.79621 8.37022L7.9535 7.52956L8.1379 6.7811L8.29519 6.13568C8.29704 6.13209 8.29884 6.12847 8.30061 6.12484L8.40908 5.65298C8.40923 5.64575 8.40923 5.63852 8.40908 5.63128L8.46332 5.3601C8.46537 5.35111 8.46717 5.34207 8.46874 5.33298L8.47959 5.22994L8.48501 5.20824C8.46278 5.24749 8.44651 5.28907 8.4362 5.33298L8.44705 5.31671C8.53055 5.17208 8.53055 5.02745 8.44705 4.88282Z" fill="black"/>
<path d="M11.4897 6.29842C11.4897 6.39128 11.5225 6.47054 11.5882 6.5362C11.6538 6.60186 11.7331 6.63469 11.826 6.63469C11.9188 6.63469 11.9981 6.60186 12.0637 6.5362C12.1294 6.47054 12.1622 6.39128 12.1622 6.29842C12.1622 6.20556 12.1294 6.12631 12.0637 6.06065C11.9981 5.99499 11.9188 5.96216 11.826 5.96216C11.7331 5.96216 11.6538 5.99499 11.5882 6.06065C11.5225 6.12631 11.4897 6.20556 11.4897 6.29842ZM11.4246 6.30385C11.4246 6.41318 11.4633 6.5065 11.5406 6.58381C11.6179 6.66112 11.7112 6.69977 11.8205 6.69977C11.9299 6.69977 12.0232 6.66112 12.1005 6.58381C12.1778 6.5065 12.2165 6.41318 12.2165 6.30385C12.2165 6.19451 12.1778 6.10119 12.1005 6.02388C12.0232 5.94657 11.9299 5.90792 11.8205 5.90792C11.7112 5.90792 11.6179 5.94657 11.5406 6.02388C11.4633 6.10119 11.4246 6.19451 11.4246 6.30385ZM11.8856 5.9025L11.8639 5.89707C11.6855 5.8658 11.5408 5.92184 11.43 6.06521L11.365 6.14656C11.3351 6.18453 11.3116 6.22611 11.2944 6.2713L11.2185 6.48283C11.2121 6.5006 11.2066 6.51868 11.2022 6.53706L11.0883 6.99265C11.0863 7.00164 11.0845 7.01068 11.0829 7.01977L10.9528 7.71942C10.951 7.71942 10.9491 7.71942 10.9473 7.71942L10.7792 8.63059C10.7791 8.63601 10.7791 8.64144 10.7792 8.64686L10.5948 9.76955C10.5948 9.77317 10.5948 9.77678 10.5948 9.7804L10.3941 11.1309C10.3923 11.1309 10.3905 11.1309 10.3887 11.1309L10.1663 12.6495L9.93311 14.2549C9.93308 14.2585 9.93308 14.2621 9.93311 14.2658L9.71617 15.8983C9.71614 15.9019 9.71614 15.9055 9.71617 15.9091L9.53719 17.5254C9.53716 17.529 9.53716 17.5326 9.53719 17.5362L9.39617 19.0874C9.39616 19.0892 9.39616 19.091 9.39617 19.0928L9.28228 20.5463C9.28224 20.5499 9.28224 20.5536 9.28228 20.5572L9.10872 23.1605L9.02194 24.3375L8.93516 25.4276C8.93513 25.4312 8.93513 25.4348 8.93516 25.4385L8.8755 26.4147C8.8753 26.4237 8.8753 26.4328 8.8755 26.4418L8.85923 27.2933C8.8591 27.3006 8.8591 27.3078 8.85923 27.315L8.87008 28.0635C8.86986 28.0725 8.86986 28.0816 8.87008 28.0906L8.95143 29.3218L8.96228 29.7991L8.95686 30.1896C8.95713 30.2114 8.95893 30.2331 8.96228 30.2546L8.99482 30.5204C9.00977 30.6527 9.07485 30.7521 9.19008 30.8187L9.25516 30.8512C9.27233 30.7375 9.23075 30.6526 9.13042 30.5963L9.11957 30.6723C9.09426 30.8386 9.16476 30.9344 9.33109 30.9597C9.49741 30.985 9.59323 30.9145 9.61854 30.7482L9.62939 30.6723C9.54162 30.7085 9.491 30.7735 9.47753 30.8675L9.54261 30.8404C9.65637 30.7943 9.7323 30.713 9.7704 30.5963L9.85718 30.3414C9.86797 30.3097 9.8752 30.2771 9.87888 30.2438L9.91684 29.8479C9.91701 29.8406 9.91701 29.8334 9.91684 29.8262L9.94396 29.3272C9.94581 29.3236 9.94762 29.32 9.94938 29.3164L9.98735 28.0689L10.009 27.3313L10.0579 26.4906L10.1284 25.5198L10.2151 24.4297C10.2152 24.4278 10.2152 24.426 10.2151 24.4242L10.3019 23.2473C10.3019 23.2455 10.3019 23.2437 10.3019 23.2419L10.4755 20.6385L10.5894 19.1904L10.7304 17.6501L10.9094 16.0447L11.1155 14.423L11.3487 12.8231L11.5711 11.3044L11.7663 9.95396L11.929 8.82042C11.9308 8.81862 11.9326 8.81681 11.9344 8.81499L12.0538 7.8984C12.0556 7.8948 12.0574 7.89118 12.0592 7.88755L12.1405 7.18248C12.1406 7.17705 12.1406 7.17163 12.1405 7.1662L12.1839 6.71062L12.2056 6.50452L12.2219 6.41774C12.2319 6.36351 12.2319 6.30927 12.2219 6.25503L12.2165 6.23334C12.1808 6.04848 12.0705 5.9382 11.8856 5.9025Z" fill="black"/>
<path d="M13.6701 5.16484C13.6701 5.37817 13.7767 5.48484 13.9901 5.48484C14.2034 5.48484 14.31 5.37817 14.31 5.16484C14.31 4.95151 14.2034 4.84485 13.9901 4.84485C13.7767 4.84485 13.6701 4.95151 13.6701 5.16484ZM13.6484 5.3384V5.34382V5.33298L13.6538 5.39264L13.6484 5.61501C13.648 5.62585 13.648 5.6367 13.6484 5.64755L13.6755 6.05975C13.6765 6.0761 13.6784 6.09237 13.6809 6.10856L13.7731 6.71058C13.773 6.71601 13.773 6.72143 13.7731 6.72685L13.925 7.52413C13.9249 7.52774 13.9249 7.53136 13.925 7.53498L14.1311 8.55462L14.3697 9.75867L14.9338 12.6169L15.2483 14.1681L15.5575 15.7843L15.8666 17.4223L16.1487 19.0114L16.4036 20.5246C16.4036 20.5264 16.4036 20.5282 16.4036 20.53L16.6476 21.9293C16.6494 21.933 16.6512 21.9366 16.6531 21.9402L16.9025 23.231C16.9043 23.2328 16.9062 23.2346 16.908 23.2364L17.1466 24.3971L17.3581 25.4547C17.3599 25.4565 17.3617 25.4583 17.3636 25.4601L17.5588 26.3713C17.5588 26.3749 17.5588 26.3785 17.5588 26.3821L17.7378 27.1523C17.7378 27.1541 17.7378 27.1559 17.7378 27.1577L17.9005 27.8411L18.0198 28.4865L18.1283 29.0939C18.1335 29.1216 18.1407 29.1487 18.15 29.1753L18.3127 29.6634C18.3258 29.7038 18.3439 29.7417 18.3669 29.7773L18.5513 30.0485C18.5884 30.1051 18.6372 30.1485 18.6978 30.1787L18.7846 30.2221L18.8117 30.2546C18.9146 30.3621 19.0242 30.3694 19.1404 30.2764C19.2566 30.1834 19.2736 30.0749 19.1913 29.9509L19.1317 29.875C19.1073 29.9567 19.1218 30.0308 19.1751 30.0973L19.2184 29.9509C19.2265 29.9261 19.2319 29.9008 19.2347 29.875L19.2618 29.5495C19.2626 29.5333 19.2626 29.517 19.2618 29.5007L19.2564 28.9909C19.2553 28.9599 19.2517 28.9291 19.2456 28.8987L19.1371 28.2858C19.1371 28.2822 19.1371 28.2786 19.1371 28.275L19.0123 27.6133C19.0107 27.606 19.0089 27.5988 19.0069 27.5916L18.8442 26.9028L18.6761 26.1326L18.4863 25.2269L18.2747 24.1747L18.0524 23.0086L17.8191 21.7232L17.5751 20.3239L17.3202 18.8107C17.3184 18.8089 17.3166 18.8071 17.3147 18.8053L17.0273 17.2108L16.7344 15.562C16.7326 15.5601 16.7308 15.5583 16.729 15.5565L16.409 13.9403C16.409 13.9385 16.409 13.9367 16.409 13.9349L16.0944 12.3837C16.0944 12.3819 16.0944 12.3801 16.0944 12.3783L15.487 9.5363L15.2483 8.33225C15.2484 8.32864 15.2484 8.32502 15.2483 8.3214L15.0314 7.30718L14.8741 6.51533C14.8742 6.50991 14.8742 6.50448 14.8741 6.49906L14.7385 5.90788C14.7355 5.89327 14.7319 5.87881 14.7277 5.86449L14.5975 5.47399C14.5918 5.45179 14.5846 5.43009 14.5758 5.40891L14.4673 5.19196C14.4656 5.1865 14.4638 5.18108 14.4619 5.17569L14.4023 5.0618C14.3862 5.03024 14.3663 5.00131 14.3426 4.97502L14.2992 4.9262C14.2923 4.91869 14.285 4.91146 14.2775 4.90451L14.2558 4.88282C14.0985 4.73355 13.9332 4.72396 13.7597 4.85407C13.5862 4.98417 13.5491 5.14561 13.6484 5.3384Z" fill="black"/>
<path d="M9.15751 26.7456C9.15751 26.9481 9.25875 27.0493 9.46123 27.0493C9.66372 27.0493 9.76496 26.9481 9.76496 26.7456C9.76496 26.5431 9.66372 26.4419 9.46123 26.4419C9.25875 26.4419 9.15751 26.5431 9.15751 26.7456ZM9.1087 26.5341L9.05446 26.6208C9.00812 26.6862 8.97919 26.7585 8.96768 26.8378L8.93514 27.109C8.9318 27.1324 8.92999 27.1559 8.92972 27.1795V27.6188C8.92968 27.6224 8.92968 27.626 8.92972 27.6296L8.93514 28.2588L8.94056 29.0778C8.94055 29.0796 8.94055 29.0814 8.94056 29.0832L8.96226 30.0215C8.96223 30.0251 8.96223 30.0287 8.96226 30.0323L9.00565 31.0086C9.00564 31.0104 9.00564 31.0122 9.00565 31.014L9.087 32.755C9.08686 32.7622 9.08686 32.7694 9.087 32.7767L9.14666 33.4275C9.14665 33.4293 9.14665 33.4311 9.14666 33.4329L9.19005 33.9048C9.1914 33.9322 9.19502 33.9593 9.2009 33.9862L9.26598 34.2248L9.27141 34.3495C9.2744 34.4664 9.31826 34.565 9.40298 34.6455C9.4877 34.726 9.58848 34.7647 9.7053 34.7617C9.82212 34.7587 9.92077 34.7149 10.0013 34.6302C10.0817 34.5454 10.1205 34.4447 10.1175 34.3278L10.1121 34.1977L10.1609 33.9536C10.1674 33.9232 10.171 33.8925 10.1717 33.8614V33.3841V32.7333C10.172 32.7243 10.172 32.7152 10.1717 32.7062L10.1121 30.9652L10.0795 29.9944L10.0578 29.0615L10.0416 28.2425C10.0416 28.2407 10.0416 28.2389 10.0416 28.2371L10.0253 27.6134C10.0253 27.6116 10.0253 27.6098 10.0253 27.608L10.0144 27.1632C10.0144 27.1378 10.0126 27.1125 10.009 27.0873L9.96021 26.8161C9.94551 26.7313 9.91116 26.6553 9.85716 26.5883L9.79207 26.507C9.70306 26.3944 9.58687 26.341 9.44349 26.3467C9.30011 26.3524 9.18851 26.4148 9.1087 26.5341Z" fill="black"/>
<path d="M9.6077 33.8343H9.60228C9.49657 33.8619 9.41703 33.9233 9.36364 34.0187L9.34194 34.0621L9.3094 34.1109C9.29357 34.1384 9.28091 34.1673 9.27144 34.1976L9.25516 34.2573C9.20149 34.4276 9.23403 34.5795 9.35279 34.7129L9.4233 34.7888C9.51255 34.8909 9.62463 34.9488 9.75956 34.9624L9.96566 34.9841C10.0241 34.9899 10.082 34.9863 10.1392 34.9732L10.5189 34.8864C10.5467 34.8796 10.5738 34.8705 10.6002 34.8593L11.1317 34.6478C11.1446 34.6429 11.1573 34.6374 11.1697 34.6315L11.8097 34.317C11.8133 34.3152 11.817 34.3134 11.8205 34.3115L12.5256 33.9427C12.5311 33.941 12.5365 33.9392 12.5419 33.9373L13.2741 33.5251C13.2796 33.5216 13.285 33.518 13.2904 33.5143L14.0334 33.0587C14.0352 33.0569 14.037 33.0551 14.0388 33.0533L14.7547 32.5977C14.7565 32.5977 14.7584 32.5977 14.7602 32.5977L15.4707 32.1367C15.4743 32.1349 15.4779 32.1331 15.4815 32.1312L16.1703 31.6756L16.7995 31.2689L17.331 30.9326L17.754 30.6831L18.0577 30.515L18.2801 30.3957L18.4211 30.3306L18.5296 30.2872C18.5848 30.2641 18.6355 30.2333 18.6815 30.195L18.7411 30.1462C18.9444 29.9829 19.0052 29.7774 18.9236 29.5298C18.8419 29.2822 18.6708 29.1532 18.4103 29.1428L18.3289 29.1374C18.2642 29.1361 18.2009 29.1452 18.1391 29.1645L18.0089 29.2025C17.9812 29.2096 17.954 29.2186 17.9276 29.2296L17.754 29.3109C17.7467 29.3144 17.7395 29.318 17.7323 29.3218L17.4937 29.4465C17.4882 29.4501 17.4828 29.4537 17.4774 29.4574L17.1574 29.6364C17.1483 29.6398 17.1392 29.6434 17.1303 29.6472L16.7072 29.913C16.6981 29.9181 16.689 29.9236 16.6801 29.9292L16.154 30.2926L15.5357 30.7157L14.8469 31.1712L14.1419 31.6377L13.4314 32.0878L12.6992 32.5543L11.9941 32.9773L11.3216 33.3461L10.7087 33.6444L10.2314 33.8397L9.9277 33.9156L9.79211 33.9265H9.7216C9.80249 33.9912 9.89469 34.0255 9.9982 34.0295L9.95481 33.9915C9.98165 34.0647 10.025 34.1262 10.085 34.1759V34.1651C10.0655 33.9885 9.96967 33.8782 9.79753 33.8343H9.79211C9.73064 33.8184 9.66917 33.8184 9.6077 33.8343ZM17.933 29.6797C17.933 29.819 17.9822 29.9379 18.0807 30.0364C18.1792 30.1349 18.2981 30.1841 18.4374 30.1841C18.5767 30.1841 18.6956 30.1349 18.7941 30.0364C18.8925 29.9379 18.9418 29.819 18.9418 29.6797C18.9418 29.5405 18.8925 29.4216 18.7941 29.3231C18.6956 29.2246 18.5767 29.1753 18.4374 29.1753C18.2981 29.1753 18.1792 29.2246 18.0807 29.3231C17.9822 29.4216 17.933 29.5405 17.933 29.6797ZM18.0035 29.6526C18.0035 29.7799 18.0485 29.8886 18.1385 29.9786C18.2285 30.0686 18.3372 30.1136 18.4645 30.1136C18.5918 30.1136 18.7005 30.0686 18.7905 29.9786C18.8805 29.8886 18.9255 29.7799 18.9255 29.6526C18.9255 29.5253 18.8805 29.4167 18.7905 29.3266C18.7005 29.2366 18.5918 29.1916 18.4645 29.1916C18.3372 29.1916 18.2285 29.2366 18.1385 29.3266C18.0485 29.4167 18.0035 29.5253 18.0035 29.6526ZM18.8604 29.7286L18.8659 29.7069C18.8928 29.602 18.8787 29.5031 18.8236 29.4099C18.7686 29.3167 18.6886 29.2567 18.5838 29.2297C18.479 29.2028 18.38 29.2168 18.2868 29.2719C18.1936 29.3269 18.1335 29.4068 18.1065 29.5116L18.1011 29.5333C18.0742 29.6381 18.0883 29.7371 18.1434 29.8303C18.1984 29.9235 18.2784 29.9835 18.3832 30.0105C18.488 30.0374 18.587 30.0234 18.6802 29.9683C18.7734 29.9133 18.8334 29.8334 18.8604 29.7286Z" fill="black"/>
<path d="M0.571925 29.7882C0.571926 29.8975 0.610581 29.9909 0.68789 30.0682C0.765199 30.1455 0.85852 30.1841 0.967851 30.1841C1.07718 30.1841 1.1705 30.1455 1.24781 30.0682C1.32512 29.9909 1.36378 29.8975 1.36378 29.7882C1.36378 29.6789 1.32512 29.5856 1.24781 29.5083C1.1705 29.4309 1.07718 29.3923 0.967851 29.3923C0.85852 29.3923 0.765199 29.4309 0.68789 29.5083C0.610581 29.5856 0.571926 29.6789 0.571925 29.7882ZM0.550231 29.7882C0.57828 30.0315 0.714775 30.1532 0.959715 30.1532C1.20466 30.1532 1.34115 30.0315 1.3692 29.7882C1.34115 29.5449 1.20466 29.4232 0.959715 29.4232C0.714775 29.4232 0.57828 29.5449 0.550231 29.7882ZM0.490571 29.7828C0.490571 29.9056 0.533991 30.0104 0.620832 30.0973C0.707673 30.1841 0.812498 30.2275 0.935309 30.2275C1.05812 30.2275 1.16295 30.1841 1.24979 30.0973C1.33663 30.0104 1.38005 29.9056 1.38005 29.7828C1.38005 29.66 1.33663 29.5552 1.24979 29.4683C1.16295 29.3815 1.05812 29.3381 0.935309 29.3381C0.812498 29.3381 0.707673 29.3815 0.620832 29.4683C0.533991 29.5552 0.490571 29.66 0.490571 29.7828ZM1.38547 29.7611V29.7286C1.31831 29.8167 1.28577 29.9161 1.28785 30.0269L1.32039 29.9835C1.26502 30.0156 1.21801 30.0572 1.17937 30.1082L1.2553 30.0648C1.12933 30.0323 1.01001 30.0486 0.897344 30.1136L0.978698 30.1353C0.909703 30.0078 0.804845 29.9264 0.664127 29.8913L0.71294 29.9835C0.714707 29.9871 0.716515 29.9907 0.718364 29.9943L0.783447 30.1082C0.790305 30.1193 0.797537 30.1302 0.805142 30.1408L0.89192 30.2763C0.925201 30.3257 0.964975 30.3691 1.01124 30.4065L1.16853 30.5367C1.19575 30.559 1.22468 30.5789 1.2553 30.5963L1.47225 30.7157L1.73258 30.9055L2.10682 31.1712C2.12095 31.1808 2.13541 31.1899 2.1502 31.1984L2.64376 31.4967C2.65268 31.5023 2.66172 31.5077 2.67087 31.5129L3.24036 31.8275C3.24215 31.8293 3.24396 31.8311 3.24578 31.8329L3.84238 32.1475L4.42271 32.4566C4.43168 32.4604 4.44072 32.4641 4.44983 32.4675L5.01931 32.7441L5.50744 32.9882L5.91964 33.216L6.26132 33.4329L6.84708 33.8288C6.85421 33.8344 6.86144 33.8398 6.86877 33.8451L7.11284 33.997C7.11824 33.9988 7.12366 34.0006 7.12911 34.0024L7.33521 34.1271L7.51961 34.241C7.52678 34.2448 7.53401 34.2484 7.5413 34.2519L7.72571 34.3603C7.75206 34.3746 7.77918 34.3873 7.80706 34.3983L8.00774 34.4797C8.04468 34.4954 8.08265 34.508 8.12163 34.5176L8.34943 34.5719C8.37803 34.579 8.40696 34.5844 8.4362 34.5881L8.68027 34.6153C8.68569 34.6153 8.69112 34.6153 8.69654 34.6153L8.93518 34.637C8.94419 34.6389 8.95322 34.6407 8.9623 34.6424L9.19551 34.6532C9.26499 34.6576 9.33369 34.6522 9.40161 34.637L9.57517 34.5936C9.85327 34.5224 10.0161 34.3453 10.0637 34.0623C10.1113 33.7792 10.0154 33.5585 9.77584 33.4004L9.62941 33.3027C9.538 33.2445 9.43857 33.2083 9.33111 33.1943L9.10331 33.1617L8.86467 33.1292C8.85744 33.1291 8.85021 33.1291 8.84298 33.1292L8.64773 33.1075L8.52298 33.0749L8.41451 33.0316L8.28977 32.9665L8.12163 32.858C8.1145 32.8524 8.10727 32.847 8.09994 32.8417L7.89384 32.7224L7.67147 32.5814L7.08029 32.1909C7.07492 32.1872 7.06949 32.1836 7.06402 32.18L6.69522 31.9468C6.68106 31.9373 6.6666 31.9283 6.65183 31.9197L6.20166 31.6811C6.19274 31.6755 6.1837 31.67 6.17455 31.6648L5.65388 31.4207C5.65208 31.4189 5.65027 31.4171 5.64845 31.4153L5.07897 31.155L4.50406 30.8729L3.91831 30.5638L3.35968 30.2655L2.87155 29.9835C2.85912 29.9758 2.84646 29.9686 2.83358 29.9618L2.42139 29.7557C2.4089 29.7499 2.39624 29.7444 2.38342 29.7394L2.06343 29.6038L1.83563 29.5008L1.70547 29.4357L1.62411 29.376L1.53733 29.3055C1.45984 29.241 1.37125 29.2013 1.27157 29.1862L1.17395 29.1699C1.12875 29.1637 1.08356 29.1637 1.03836 29.1699L0.957004 29.1808C0.882795 29.1882 0.814096 29.2117 0.750905 29.2513L0.680398 29.2947C0.633481 29.3273 0.593708 29.3671 0.561078 29.414L0.528536 29.4574C0.432115 29.5856 0.406805 29.7266 0.452605 29.8804L0.463452 29.913C0.54513 30.1737 0.720787 30.2819 0.990423 30.2375C1.26006 30.1931 1.39174 30.0343 1.38547 29.7611ZM9.47212 34.3929L9.56432 34.4146C9.67809 34.4414 9.78469 34.4241 9.88413 34.3627C9.98357 34.3012 10.0468 34.2136 10.0737 34.0999C10.1006 33.9862 10.0834 33.8795 10.0221 33.78C9.96079 33.6805 9.87328 33.6173 9.75957 33.5902L9.66737 33.5685C9.5536 33.5417 9.447 33.559 9.34756 33.6204C9.24812 33.6819 9.18494 33.7694 9.158 33.8832C9.13106 33.9969 9.14825 34.1035 9.20958 34.203C9.2709 34.3025 9.35841 34.3658 9.47212 34.3929Z" fill="black"/>
<path d="M4.10814 31.6865C4.10814 31.7928 4.14574 31.8836 4.22093 31.9588C4.29612 32.034 4.38689 32.0716 4.49322 32.0716C4.59956 32.0716 4.69032 32.034 4.76551 31.9588C4.84071 31.8836 4.8783 31.7928 4.8783 31.6865C4.8783 31.5802 4.84071 31.4894 4.76551 31.4142C4.69032 31.339 4.59956 31.3014 4.49322 31.3014C4.38689 31.3014 4.29612 31.339 4.22093 31.4142C4.14574 31.4894 4.10814 31.5802 4.10814 31.6865ZM4.0973 31.6757C4.0973 31.7865 4.13648 31.8811 4.21485 31.9595C4.29322 32.0378 4.38782 32.077 4.49865 32.077C4.60948 32.077 4.70407 32.0378 4.78244 31.9595C4.86081 31.8811 4.9 31.7865 4.9 31.6757C4.9 31.5648 4.86081 31.4702 4.78244 31.3919C4.70407 31.3135 4.60948 31.2743 4.49865 31.2743C4.38782 31.2743 4.29322 31.3135 4.21485 31.3919C4.13648 31.4702 4.0973 31.5648 4.0973 31.6757ZM4.42814 32.077L4.44983 32.0824C4.39336 32.0386 4.33009 32.0097 4.26001 31.9957L4.28712 32.0119C4.25596 31.9592 4.21618 31.914 4.1678 31.8763L4.20035 31.9306C4.19942 31.835 4.17411 31.7464 4.12441 31.6648V31.7841C4.12428 31.7914 4.12428 31.7986 4.12441 31.8058L4.13526 32.0933C4.13669 32.106 4.1385 32.1186 4.14069 32.1312L4.18407 32.6194C4.18404 32.623 4.18404 32.6266 4.18407 32.6302L4.25458 33.2865C4.25626 33.2937 4.25807 33.301 4.26001 33.3082L4.36305 34.0187C4.36445 34.0314 4.36626 34.044 4.36848 34.0566L4.50949 34.7129C4.5094 34.7183 4.5094 34.7238 4.50949 34.7292L4.64508 35.2661C4.65218 35.2886 4.66122 35.3103 4.6722 35.3312L4.81322 35.6458L4.83491 35.8573C4.85316 36.027 4.94716 36.1029 5.11691 36.0848C5.28666 36.0667 5.36261 35.9728 5.34473 35.8031L5.32304 35.597L5.40982 35.2715C5.4168 35.2521 5.42222 35.2322 5.42609 35.2119L5.48575 34.6641C5.48584 34.6587 5.48584 34.6532 5.48575 34.6478L5.53998 33.9807C5.54082 33.9626 5.54082 33.9445 5.53998 33.9265L5.53456 33.2106C5.53505 33.1961 5.53505 33.1816 5.53456 33.1672L5.48575 32.5109C5.48455 32.4946 5.48275 32.4783 5.48032 32.4621L5.40439 31.974C5.39667 31.9197 5.38221 31.8672 5.361 31.8167L5.24711 31.5509C5.20013 31.4444 5.12781 31.3594 5.03016 31.296L4.92711 31.2309C4.83508 31.1698 4.73384 31.1408 4.62339 31.1441L4.56915 31.1496C4.41718 31.153 4.29425 31.2144 4.20035 31.334L4.18407 31.3611C4.12139 31.4406 4.08885 31.531 4.08645 31.6323V31.654C4.08456 31.8885 4.19846 32.0295 4.42814 32.077Z" fill="black"/>
<path d="M14.7276 31.7841C14.7276 31.886 14.7636 31.9729 14.8357 32.0449C14.9077 32.1169 14.9946 32.1529 15.0964 32.1529C15.1983 32.1529 15.2852 32.1169 15.3572 32.0449C15.4292 31.9729 15.4653 31.886 15.4653 31.7841C15.4653 31.6823 15.4292 31.5953 15.3572 31.5233C15.2852 31.4513 15.1983 31.4153 15.0964 31.4153C14.9946 31.4153 14.9077 31.4513 14.8357 31.5233C14.7636 31.5953 14.7276 31.6823 14.7276 31.7841ZM14.6517 31.7841C14.6517 31.9024 14.6935 32.0034 14.7772 32.0871C14.8609 32.1707 14.9619 32.2126 15.0802 32.2126C15.1985 32.2126 15.2995 32.1707 15.3831 32.0871C15.4668 32.0034 15.5086 31.9024 15.5086 31.7841C15.5086 31.6658 15.4668 31.5648 15.3831 31.4811C15.2995 31.3975 15.1985 31.3556 15.0802 31.3556C14.9619 31.3556 14.8609 31.3975 14.7772 31.4811C14.6935 31.5648 14.6517 31.6658 14.6517 31.7841ZM14.7059 31.4641L14.6354 31.5292C14.5657 31.6016 14.5187 31.6866 14.4944 31.7841L14.4348 32.0173C14.4269 32.0476 14.4215 32.0784 14.4185 32.1095L14.386 32.5163C14.3835 32.5325 14.3817 32.5488 14.3805 32.5651L14.3751 33.1943C14.3748 33.2233 14.3766 33.2522 14.3805 33.281L14.4836 34.0187C14.4856 34.0406 14.4893 34.0623 14.4944 34.0837L14.6897 34.778V35.4017C14.6899 35.5642 14.7713 35.6454 14.9337 35.6454C15.0962 35.6454 15.1776 35.5642 15.1778 35.4017V34.778L15.3839 34.0892C15.3864 34.0748 15.3882 34.0603 15.3893 34.0458L15.5358 33.3136C15.539 33.2902 15.5408 33.2667 15.5412 33.2431L15.5954 32.6194C15.5956 32.6121 15.5956 32.6049 15.5954 32.5977L15.6117 32.1909C15.6122 32.1764 15.6122 32.162 15.6117 32.1475L15.6063 31.9143C15.6041 31.8217 15.5806 31.7349 15.5358 31.6539L15.4924 31.5672C15.4119 31.4223 15.2894 31.3391 15.1251 31.3176C14.9608 31.2961 14.8211 31.3449 14.7059 31.4641Z" fill="black"/>
<path d="M4.74814 35.0003C4.74814 35.1052 4.78521 35.1946 4.85934 35.2688C4.93347 35.3429 5.02296 35.38 5.1278 35.38C5.23264 35.38 5.32212 35.3429 5.39626 35.2688C5.47039 35.1946 5.50745 35.1052 5.50745 35.0003C5.50745 34.8955 5.47039 34.806 5.39626 34.7319C5.32212 34.6577 5.23264 34.6207 5.1278 34.6207C5.02296 34.6207 4.93347 34.6577 4.85934 34.7319C4.78521 34.806 4.74814 34.8955 4.74814 35.0003ZM4.90543 34.599L4.87289 34.6152C4.77904 34.6661 4.71034 34.7402 4.66679 34.8376L4.6234 34.9298C4.62149 34.9352 4.61969 34.9406 4.61798 34.9461L4.54205 35.1305L4.44442 35.3746L4.29798 35.6566L4.119 35.9603L3.9129 36.2478L3.66884 36.5352L3.41935 36.8172L3.15359 37.083L2.86072 37.3433C2.8589 37.3451 2.85709 37.3469 2.85529 37.3488L2.56784 37.6145C2.56599 37.6181 2.56418 37.6217 2.56242 37.6254L2.31835 37.8586C2.3128 37.8639 2.30738 37.8693 2.30208 37.8749L2.11768 38.0701C2.03832 38.1559 1.99493 38.2572 1.98751 38.3738L1.98209 38.4877C1.9725 38.6127 2.01312 38.7185 2.10397 38.8049C2.19482 38.8913 2.30244 38.9266 2.42683 38.9108L2.54072 38.8945C2.65191 38.8819 2.74773 38.8367 2.82817 38.7589L3.01258 38.5745L3.25122 38.3521L3.53867 38.0864L3.83155 37.8098C3.83704 37.8063 3.84247 37.8026 3.84782 37.7989L4.13527 37.506C4.14082 37.5007 4.14624 37.4953 4.15154 37.4898L4.4173 37.1915C4.4268 37.181 4.43584 37.1702 4.44442 37.1589L4.68848 36.8389C4.69411 36.8319 4.69953 36.8246 4.70475 36.8172L4.9217 36.4918C4.9255 36.4847 4.92912 36.4775 4.93255 36.4701L5.13322 36.1339C5.13906 36.1232 5.14448 36.1124 5.14949 36.1013L5.30678 35.7868C5.31262 35.7761 5.31804 35.7653 5.32305 35.7542L5.43152 35.4885C5.43343 35.4831 5.43524 35.4776 5.43695 35.4722L5.50203 35.2878L5.53457 35.1956C5.54881 35.157 5.55785 35.1172 5.56169 35.0763L5.56711 35.0437C5.58678 34.8633 5.52132 34.7225 5.37072 34.6213C5.22013 34.5201 5.06503 34.5126 4.90543 34.599ZM2.33462 38.3142H2.32378C2.15745 38.3142 2.07429 38.3973 2.07429 38.5637C2.07429 38.73 2.15745 38.8131 2.32378 38.8131H2.33462C2.50095 38.8131 2.58411 38.73 2.58411 38.5637C2.58411 38.3973 2.50095 38.3142 2.33462 38.3142Z" fill="black"/>
<path d="M14.9988 34.42C14.9988 34.5129 15.0316 34.5921 15.0973 34.6578C15.163 34.7234 15.2422 34.7563 15.3351 34.7563C15.4279 34.7563 15.5072 34.7234 15.5729 34.6578C15.6385 34.5921 15.6714 34.5129 15.6714 34.42C15.6714 34.3272 15.6385 34.2479 15.5729 34.1822C15.5072 34.1166 15.4279 34.0837 15.3351 34.0837C15.2422 34.0837 15.163 34.1166 15.0973 34.1822C15.0316 34.2479 14.9988 34.3272 14.9988 34.42ZM14.9663 34.3224L14.9337 34.4037C14.9027 34.4808 14.8936 34.5603 14.9066 34.6424L14.9337 34.8105C14.9376 34.8326 14.943 34.8543 14.95 34.8756L15.0205 35.1088C15.0205 35.1124 15.0205 35.116 15.0205 35.1197L15.1073 35.3746L15.1886 35.6674C15.1947 35.6878 15.2019 35.7076 15.2103 35.7271L15.3514 36.0688C15.3624 36.0932 15.375 36.1167 15.3893 36.1393L15.5954 36.4864C15.604 36.4994 15.613 36.5121 15.6225 36.5244L15.8883 36.904C15.8936 36.9114 15.899 36.9186 15.9046 36.9257L16.2083 37.3108C16.2203 37.3259 16.2329 37.3403 16.2463 37.3542L16.5717 37.6959C16.5969 37.7199 16.624 37.7416 16.653 37.761L17.0056 38.0213C17.0475 38.051 17.0927 38.0745 17.1412 38.0918L17.4991 38.2274C17.5116 38.2316 17.5243 38.2352 17.5371 38.2383L17.7757 38.3033L17.9222 38.4335C18.0547 38.5354 18.1757 38.5231 18.2851 38.3966C18.3945 38.2702 18.3892 38.1487 18.2693 38.0322L18.1283 37.9074L18.0306 37.6742C18.0257 37.6631 18.0203 37.6523 18.0144 37.6417L17.8354 37.3C17.8087 37.2538 17.7762 37.2122 17.7378 37.1752L17.4395 36.8606L17.1357 36.5407L16.8483 36.1881L16.5879 35.8356L16.3656 35.5156C16.3638 35.5156 16.362 35.5156 16.3602 35.5156L16.1541 35.2119L16.0022 34.9949L15.91 34.7888L15.8341 34.5827L15.7744 34.42C15.757 34.3704 15.7317 34.3252 15.6985 34.2844L15.6388 34.2139C15.594 34.1602 15.5389 34.1211 15.4734 34.0966C15.4079 34.0721 15.3407 34.0654 15.2716 34.0765C15.2026 34.0877 15.1409 34.1152 15.0864 34.159C15.0319 34.2029 14.9919 34.2573 14.9663 34.3224Z" fill="black"/>
<path d="M3.16986 38.2925V38.2816C3.165 38.2994 3.16138 38.3175 3.15902 38.3359L3.16444 38.3196C3.18671 38.204 3.16501 38.0973 3.09936 37.9996L3.07224 37.9616C2.99314 37.8391 2.88105 37.7704 2.73597 37.7555L2.68174 37.7501C2.55051 37.7366 2.43481 37.7728 2.33462 37.8586L2.28581 37.902C2.24652 37.9362 2.21398 37.976 2.18818 38.0213L2.1448 38.0972C2.12304 38.1347 2.10677 38.1745 2.09598 38.2165L2.06344 38.3304C2.04078 38.4172 2.04078 38.504 2.06344 38.5908L2.10683 38.7535C2.13135 38.8509 2.17836 38.9359 2.24784 39.0084L2.45394 39.2253C2.49569 39.2683 2.5427 39.3045 2.59496 39.3338L3.00173 39.567C3.01583 39.5766 3.0303 39.5857 3.04512 39.5941L3.65257 39.8816C3.65617 39.8834 3.65978 39.8852 3.66342 39.887L4.44442 40.2396C4.45162 40.2415 4.45885 40.2433 4.46611 40.245L5.38813 40.6192C5.3935 40.6229 5.39893 40.6265 5.4044 40.6301L6.39151 40.9934L7.33522 41.346L8.19216 41.6768L8.96231 41.986L9.64569 42.2951C9.6475 42.2951 9.64931 42.2951 9.65112 42.2951L10.2369 42.5554C10.251 42.5633 10.2655 42.5705 10.2803 42.5771L10.7738 42.7398C10.8298 42.7604 10.8877 42.7713 10.9474 42.7724L11.3053 42.767C11.3581 42.7661 11.4087 42.7553 11.4572 42.7344L11.5711 42.6856L11.6416 42.6965C11.804 42.7213 11.8978 42.6526 11.923 42.4903C11.9483 42.328 11.8798 42.234 11.7175 42.2083L11.6741 42.2029L11.6199 42.127C11.601 42.1009 11.5793 42.0774 11.5548 42.0565L11.2782 41.8287C11.2478 41.8053 11.2153 41.7854 11.1806 41.769L10.7196 41.5358C10.7178 41.534 10.716 41.5322 10.7141 41.5304L10.1447 41.2538L9.46671 40.9067L8.71825 40.5216C8.7006 40.5117 8.68252 40.5026 8.66401 40.4945L7.80165 40.1473C7.79625 40.1455 7.79083 40.1437 7.78538 40.1419L6.84167 39.7894L5.86541 39.4206L4.95424 39.0626L4.20036 38.7155L3.59291 38.4335L3.18071 38.2437L2.97461 38.1352L2.88783 38.0647C2.92131 38.135 2.96832 38.1947 3.02885 38.2437L2.98004 38.1352C2.93649 38.2567 2.94191 38.376 2.99631 38.4931L3.02343 38.4118C2.96858 38.4635 2.9288 38.525 2.90411 38.5962L2.95292 38.5528C2.84903 38.5619 2.75863 38.6017 2.68174 38.6721L2.70885 38.6667H2.73055C2.79445 38.6696 2.85591 38.6588 2.91495 38.6342L2.93122 38.6287C2.88223 38.631 2.83523 38.6418 2.79021 38.6613H2.80106C3.03429 38.6486 3.15723 38.5257 3.16986 38.2925Z" fill="black"/>
<path d="M10.5081 42.4633C10.5081 42.6513 10.6021 42.7453 10.7901 42.7453C10.9781 42.7453 11.0721 42.6513 11.0721 42.4633C11.0721 42.2753 10.9781 42.1813 10.7901 42.1813C10.6021 42.1813 10.5081 42.2753 10.5081 42.4633ZM10.866 42.8538L10.9311 42.8429C10.9439 42.8417 10.9565 42.8399 10.9691 42.8375L11.121 42.805C11.1394 42.8007 11.1574 42.7953 11.1752 42.7887L11.3921 42.7074C11.4032 42.7023 11.414 42.6969 11.4247 42.6911L11.7176 42.5555C11.723 42.5538 11.7284 42.552 11.7338 42.5501L12.1026 42.3602C12.1045 42.3584 12.1063 42.3566 12.1081 42.3548L12.6125 42.0945C12.6179 42.091 12.6234 42.0873 12.6287 42.0836L13.2416 41.7365C13.2434 41.7347 13.2452 41.7329 13.247 41.7311L13.8924 41.3514L14.5487 40.9772L15.1778 40.6301C15.1778 40.6283 15.1778 40.6265 15.1778 40.6247L15.7744 40.2938C15.7781 40.2921 15.7817 40.2903 15.7853 40.2884L16.3222 39.9738C16.3259 39.9721 16.3295 39.9703 16.3331 39.9684L16.7995 39.681C16.8013 39.6792 16.8031 39.6774 16.8049 39.6755L17.19 39.4315C17.237 39.4015 17.2786 39.3654 17.3148 39.323L17.6619 38.9216C17.7876 38.7743 17.799 38.6185 17.6961 38.4544C17.5931 38.2902 17.4479 38.2327 17.2605 38.2817L16.7453 38.4227C16.6914 38.4368 16.6408 38.4585 16.5934 38.4878L16.2138 38.7318L15.7527 39.0139L15.2266 39.323L14.6355 39.6593L14.0063 40.0118L13.3446 40.3806C13.3392 40.3841 13.3337 40.3877 13.3284 40.3915L12.683 40.7765L12.0809 41.1345C12.0773 41.1363 12.0737 41.1381 12.0701 41.1399L11.5874 41.4382L11.2294 41.6606L10.9582 41.8287C10.9413 41.8386 10.9251 41.8494 10.9094 41.8613L10.7359 42.0077C10.7247 42.0145 10.7139 42.0217 10.7033 42.0294L10.6057 42.1216L10.5732 42.1487C10.4145 42.2724 10.3738 42.4271 10.451 42.6128C10.5281 42.7986 10.6665 42.8789 10.866 42.8538ZM17.5371 38.8294L17.5642 38.8186C17.7125 38.7607 17.7577 38.6577 17.6998 38.5095C17.642 38.3612 17.5389 38.316 17.3907 38.3739L17.3636 38.3847C17.2153 38.4426 17.1701 38.5456 17.228 38.6939C17.2858 38.8421 17.3889 38.8873 17.5371 38.8294Z" fill="black"/>
<path d="M10.0687 37.6742L10.0308 37.9834C10.0294 38.0032 10.0294 38.0231 10.0308 38.043L10.0362 38.4932C10.036 38.5004 10.036 38.5076 10.0362 38.5149L10.0796 39.1657C10.0795 39.1711 10.0795 39.1766 10.0796 39.182L10.1501 39.9359C10.1518 39.9395 10.1536 39.9431 10.1555 39.9467L10.2477 40.6626L10.3182 41.2375L10.367 41.6606C10.379 41.7669 10.4268 41.8534 10.5105 41.9202C10.5942 41.9869 10.6892 42.0143 10.7955 42.0023C10.9018 41.9903 10.9884 41.9425 11.0551 41.8588C11.1218 41.7751 11.1492 41.6801 11.1372 41.5738L11.0884 41.1562L11.0396 40.5867L11.007 39.8762L10.9799 39.1223C10.98 39.1169 10.98 39.1115 10.9799 39.106L10.9365 38.4552C10.9366 38.4498 10.9366 38.4444 10.9365 38.4389L10.8877 37.9888C10.8855 37.9686 10.8819 37.9488 10.8769 37.9291L10.7955 37.6254C10.7486 37.4209 10.6206 37.3257 10.4113 37.3398C10.202 37.3539 10.0878 37.4653 10.0687 37.6742Z" fill="black"/>
<path d="M10.0199 34.1434L10.0145 34.2084C10.0135 34.2247 10.0135 34.241 10.0145 34.2573L10.0253 34.42L10.0416 34.702L10.0525 35.0979L10.047 35.5806L10.0199 36.1121L9.97111 36.6111L9.93315 37.007C9.92846 37.057 9.93389 37.1058 9.94942 37.1535L10.0091 37.327L9.99281 37.4138C9.97023 37.5626 10.0326 37.6524 10.1799 37.6832C10.3271 37.714 10.4203 37.6568 10.4592 37.5114L10.4864 37.4084L10.5948 37.2457C10.6248 37.203 10.6447 37.156 10.6545 37.1047L10.725 36.7196C10.7273 36.7088 10.7291 36.698 10.7304 36.687L10.7792 36.1772C10.7793 36.1718 10.7793 36.1664 10.7792 36.161L10.8118 35.6132C10.8137 35.6078 10.8155 35.6024 10.8172 35.5969L10.8226 35.0979C10.8227 35.0925 10.8227 35.0871 10.8226 35.0817L10.8118 34.6749C10.8118 34.6713 10.8118 34.6676 10.8118 34.664L10.7955 34.3766L10.7847 34.2084C10.7829 34.1864 10.7793 34.1647 10.7738 34.1434L10.7575 34.0783C10.7075 33.8687 10.5752 33.7734 10.3606 33.7923C10.146 33.8113 10.0324 33.9283 10.0199 34.1434Z" fill="black"/>
<path d="M9.81922 34.4363L9.77583 35.0275C9.77181 35.0891 9.78085 35.1488 9.80295 35.2065L9.96024 35.6349L9.97651 36.1122C9.98374 36.2821 10.0723 36.3635 10.2423 36.3563C10.4122 36.349 10.4936 36.2604 10.4863 36.0905L10.4646 35.6186L10.6002 35.1902C10.6182 35.1374 10.6254 35.0831 10.6219 35.0275L10.5785 34.4363C10.5785 34.3315 10.5415 34.242 10.4673 34.1678C10.3932 34.0937 10.3037 34.0566 10.1989 34.0566C10.094 34.0566 10.0046 34.0937 9.93042 34.1678C9.85629 34.242 9.81922 34.3315 9.81922 34.4363Z" fill="black"/>
<path d="M9.46131 29.3163L9.40707 29.3652C9.33532 29.4289 9.29374 29.5085 9.28233 29.6038L9.20097 30.298L9.14131 30.8675C9.1412 30.8729 9.1412 30.8783 9.14131 30.8838L9.0925 31.54C9.09249 31.5418 9.09249 31.5436 9.0925 31.5455L9.04911 32.2343C9.04906 32.2379 9.04906 32.2415 9.04911 32.2451L9.03284 32.8959C9.03083 32.9269 9.03263 32.9576 9.03826 32.9881L9.14131 33.4546L9.13046 33.7963C9.12696 33.9625 9.20832 34.0474 9.37453 34.051C9.54074 34.0546 9.62571 33.9733 9.62944 33.8071L9.64029 33.4709L9.77045 33.0098C9.77706 32.9831 9.78068 32.956 9.7813 32.9285L9.81927 32.2776L9.86266 31.5943L9.91147 30.9434L9.97113 30.3794L10.0416 29.6851C10.0497 29.5914 10.0262 29.5065 9.97113 29.4302L9.93316 29.3706C9.87911 29.2917 9.80459 29.2468 9.7096 29.2359C9.61461 29.225 9.53184 29.2518 9.46131 29.3163Z" fill="black"/>
<path d="M8.984 29.7557L8.93519 29.8587C8.91304 29.9051 8.90038 29.9539 8.89723 30.0052L8.87011 30.3631C8.87006 30.3667 8.87006 30.3703 8.87011 30.374L8.84299 30.9597C8.84298 30.9615 8.84298 30.9633 8.84299 30.9651L8.78333 32.3536C8.78328 32.3572 8.78328 32.3608 8.78333 32.3644L8.76706 33.3515C8.76256 33.4579 8.79633 33.5502 8.86834 33.6286C8.94035 33.707 9.02953 33.7484 9.13587 33.7529C9.2422 33.7574 9.33456 33.7236 9.41292 33.6516C9.49129 33.5796 9.53272 33.4904 9.53722 33.3841L9.6023 32.397C9.60412 32.3952 9.60593 32.3934 9.60772 32.3916L9.67823 31.0031C9.67828 30.9995 9.67828 30.9959 9.67823 30.9923L9.6945 30.4065C9.69461 30.4011 9.69461 30.3957 9.6945 30.3902L9.68908 30.0268C9.68892 29.968 9.67627 29.9119 9.65111 29.8587L9.6023 29.7557C9.54074 29.6249 9.43769 29.5595 9.29315 29.5595C9.14861 29.5595 9.04557 29.6249 8.984 29.7557Z" fill="black"/>
<path d="M9.22806 30.3035L9.09247 30.5096C9.05249 30.5707 9.02899 30.6376 9.02196 30.7103L8.98942 31.0574C8.98932 31.0628 8.98932 31.0682 8.98942 31.0737L8.9623 31.5238L8.93518 32.0174L8.87552 32.8852C8.87548 32.8888 8.87548 32.8924 8.87552 32.896L8.85925 33.216C8.85915 33.2214 8.85915 33.2268 8.85925 33.2323L8.85382 33.4655C8.85366 33.4727 8.85366 33.48 8.85382 33.4872L8.85925 33.6336L8.86467 33.7367C8.86501 33.783 8.87225 33.8282 8.88637 33.8723L8.90806 33.9319C8.92861 33.9934 8.96115 34.0476 9.00569 34.0946L9.02738 34.1217C9.12476 34.2234 9.24326 34.2652 9.38288 34.247C9.5225 34.2289 9.62637 34.1582 9.69449 34.035L9.71076 34.0079C9.73574 33.9619 9.75201 33.9131 9.75957 33.8614L9.77042 33.7963C9.77354 33.7766 9.77535 33.7567 9.77584 33.7367L9.78127 33.6336L9.78669 33.4872L9.79211 33.2594L9.80839 32.9448L9.86805 32.077C9.86806 32.0752 9.86806 32.0734 9.86805 32.0716L9.89516 31.5781C9.89521 31.5744 9.89521 31.5708 9.89516 31.5672L9.91143 31.1171C9.91363 31.1063 9.91543 31.0954 9.91686 31.0845L9.90601 30.7428C9.903 30.6578 9.87769 30.5801 9.83008 30.5096L9.69449 30.3035C9.64012 30.2183 9.56238 30.1756 9.46127 30.1756C9.36016 30.1756 9.28242 30.2183 9.22806 30.3035ZM9.6511 34.0946L9.65652 34.0892C9.73924 33.991 9.76817 33.8789 9.7433 33.7529L9.73788 33.7258L9.72703 33.6987L9.72161 33.6662C9.71671 33.6325 9.70767 33.5999 9.69449 33.5685L9.68364 33.5468C9.64086 33.6551 9.64448 33.7617 9.69449 33.8668V33.856C9.62773 33.6891 9.50449 33.6051 9.32479 33.6038C9.14509 33.6024 9.02064 33.6847 8.95145 33.8506L8.95687 33.8668C8.96452 33.8856 8.97356 33.9037 8.98399 33.9211L9.00026 33.9536C9.1005 34.1364 9.25076 34.1989 9.45106 34.141C9.65135 34.0832 9.74515 33.9502 9.73245 33.7421L9.72703 33.7041C9.72663 33.6748 9.72301 33.6459 9.71618 33.6173L9.71076 33.6011C9.66184 33.4344 9.55128 33.3394 9.37907 33.3163C9.20687 33.2932 9.07517 33.3555 8.98399 33.5035L8.97857 33.5143C8.90244 33.6425 8.89882 33.7726 8.96772 33.9048L8.97857 33.9265C8.97163 33.8806 8.95717 33.8372 8.93518 33.7963L8.9406 33.8289V33.856C8.9421 33.8651 8.94391 33.8741 8.94603 33.8831L8.95145 33.9102C9.07474 33.8098 9.12174 33.6814 9.09247 33.5251L9.08704 33.5306C8.99351 33.6052 8.9434 33.7023 8.93673 33.8218C8.93005 33.9413 8.96902 34.0434 9.05365 34.128C9.13828 34.2127 9.24035 34.2516 9.35984 34.2449C9.47934 34.2383 9.57643 34.1882 9.6511 34.0946ZM9.11958 33.856C9.11958 34.0223 9.20275 34.1055 9.36907 34.1055C9.5354 34.1055 9.61856 34.0223 9.61856 33.856C9.61856 33.6897 9.5354 33.6065 9.36907 33.6065C9.20275 33.6065 9.11958 33.6897 9.11958 33.856Z" fill="black"/>
<path d="M7.50333 32.9774C7.50333 33.0807 7.53987 33.1689 7.61294 33.242C7.68601 33.3151 7.77422 33.3516 7.87756 33.3516C7.9809 33.3516 8.06911 33.3151 8.14218 33.242C8.21525 33.1689 8.25179 33.0807 8.25179 32.9774C8.25179 32.874 8.21525 32.7858 8.14218 32.7127C8.06911 32.6397 7.9809 32.6031 7.87756 32.6031C7.77422 32.6031 7.68601 32.6397 7.61294 32.7127C7.53987 32.7858 7.50333 32.874 7.50333 32.9774ZM7.56841 32.7333L7.56299 32.7387C7.41683 32.9159 7.41683 33.0931 7.56299 33.2702L7.60638 33.3245C7.60993 33.3282 7.61355 33.3318 7.61723 33.3353L7.704 33.4329C7.7058 33.4348 7.7076 33.4366 7.70943 33.4384L7.85587 33.6065C7.86114 33.6121 7.86657 33.6175 7.87214 33.6228L8.08366 33.8289C8.08545 33.8307 8.08726 33.8325 8.08908 33.8343L8.34399 34.0838C8.35275 34.0914 8.36179 34.0986 8.37111 34.1055L8.66941 34.3495C8.67297 34.3532 8.67658 34.3568 8.68026 34.3604L8.99483 34.599C8.99662 34.6009 8.99843 34.6027 9.00025 34.6045L9.29855 34.8268L9.55889 35.0221C9.56774 35.0278 9.57678 35.0332 9.58601 35.0383L9.80838 35.1794C9.93819 35.26 10.072 35.2673 10.2097 35.2011L10.2911 35.1631C10.2068 35.103 10.1182 35.0958 10.0253 35.1414L10.1175 35.2065C10.2584 35.3072 10.3794 35.2872 10.4804 35.1465C10.5814 35.0058 10.5617 34.8848 10.4212 34.7834L10.329 34.7183C10.3189 34.819 10.355 34.8985 10.4375 34.957L10.4429 34.8702C10.4579 34.7372 10.4182 34.6233 10.3236 34.5285L10.1338 34.3495C10.1202 34.3359 10.1057 34.3233 10.0904 34.3116L9.83549 34.1163C9.8337 34.1145 9.8319 34.1127 9.83007 34.1109L9.53177 33.8885L9.22805 33.6607L8.94059 33.4275L8.69111 33.1997L8.49043 33.0045L8.33857 32.8526C8.33681 32.849 8.335 32.8454 8.33315 32.8418L8.23552 32.7496C8.22689 32.7401 8.21785 32.7311 8.2084 32.7224L8.15417 32.6791C8.07184 32.6126 7.97783 32.5819 7.87214 32.5869H7.86129C7.7415 32.5913 7.64387 32.6401 7.56841 32.7333Z" fill="black"/>
<path d="M7.8722 33.3027C7.8722 33.4016 7.90715 33.4859 7.97705 33.5558C8.04695 33.6257 8.13132 33.6607 8.23017 33.6607C8.32901 33.6607 8.41339 33.6257 8.48328 33.5558C8.55318 33.4859 8.58813 33.4016 8.58813 33.3027C8.58813 33.2039 8.55318 33.1195 8.48328 33.0496C8.41339 32.9797 8.32901 32.9447 8.23017 32.9447C8.13132 32.9447 8.04695 32.9797 7.97705 33.0496C7.90715 33.1195 7.8722 33.2039 7.8722 33.3027ZM7.82882 33.0098L7.80712 33.037C7.67779 33.2051 7.65248 33.3877 7.73119 33.5847L7.77458 33.6878C7.80037 33.7521 7.83653 33.81 7.88305 33.8613L8.0078 33.9969C8.01305 34.0043 8.01848 34.0115 8.02407 34.0186L8.21389 34.2085C8.21566 34.2121 8.21747 34.2157 8.21932 34.2193L8.46338 34.4525C8.47049 34.4581 8.47772 34.4635 8.48508 34.4688L8.75083 34.7129C8.75799 34.7166 8.76522 34.7202 8.77253 34.7237L9.03286 34.9406C9.03466 34.9425 9.03647 34.9443 9.03829 34.9461L9.26608 35.1305L9.43964 35.2769C9.44321 35.2806 9.44682 35.2842 9.45048 35.2878L9.59692 35.3962C9.60575 35.4037 9.61479 35.411 9.62404 35.4179L9.72709 35.4939C9.8464 35.5769 9.97837 35.6112 10.123 35.5969L10.1935 35.5915C10.2836 35.582 10.3662 35.5519 10.4414 35.5014C10.5165 35.451 10.5755 35.3858 10.6184 35.3061C10.6613 35.2263 10.683 35.1411 10.6837 35.0506C10.6843 34.96 10.6637 34.8746 10.622 34.7942L10.5894 34.7346C10.5563 34.6706 10.5129 34.6145 10.4593 34.5664L10.3617 34.4796C10.3563 34.4759 10.3509 34.4723 10.3454 34.4688L10.2044 34.3549C10.2026 34.3531 10.2008 34.3513 10.1989 34.3495L10.02 34.203C10.0164 34.2012 10.0128 34.1994 10.0091 34.1976L9.78133 34.0186L9.52642 33.8125L9.2715 33.5902L9.03829 33.3732L8.85388 33.1888L8.72372 33.0641L8.65321 32.9881C8.57503 32.9073 8.48102 32.8549 8.37118 32.8309L8.33864 32.8254C8.12953 32.7786 7.95958 32.8401 7.82882 33.0098ZM9.73794 35.0437C9.73794 35.1695 9.78242 35.2769 9.87138 35.3658C9.96033 35.4548 10.0677 35.4993 10.1935 35.4993C10.3193 35.4993 10.4267 35.4548 10.5157 35.3658C10.6046 35.2769 10.6491 35.1695 10.6491 35.0437C10.6491 34.9179 10.6046 34.8105 10.5157 34.7215C10.4267 34.6326 10.3193 34.5881 10.1935 34.5881C10.0677 34.5881 9.96033 34.6326 9.87138 34.7215C9.78242 34.8105 9.73794 34.9179 9.73794 35.0437ZM10.4701 35.022L10.481 34.9515C10.4824 34.8041 10.4102 34.7193 10.2644 34.6971C10.1187 34.6749 10.0245 34.7344 9.982 34.8756L9.97115 34.9461C9.96977 35.0935 10.0419 35.1783 10.1877 35.2005C10.3335 35.2227 10.4276 35.1632 10.4701 35.022Z" fill="black"/>
<path d="M9.21184 34.8701C9.21184 34.9705 9.24732 35.0561 9.31827 35.1271C9.38923 35.198 9.47488 35.2335 9.57522 35.2335C9.67557 35.2335 9.76122 35.198 9.83217 35.1271C9.90313 35.0561 9.93861 34.9705 9.93861 34.8701C9.93861 34.7698 9.90313 34.6841 9.83217 34.6132C9.76122 34.5422 9.67557 34.5067 9.57522 34.5067C9.47488 34.5067 9.38923 34.5422 9.31827 34.6132C9.24732 34.6841 9.21184 34.7698 9.21184 34.8701ZM9.18472 34.8701C9.18472 34.978 9.22285 35.07 9.2991 35.1463C9.37535 35.2225 9.46739 35.2606 9.57522 35.2606C9.68306 35.2606 9.7751 35.2225 9.85135 35.1463C9.9276 35.07 9.96573 34.978 9.96573 34.8701C9.96573 34.7623 9.9276 34.6703 9.85135 34.594C9.7751 34.5178 9.68306 34.4796 9.57522 34.4796C9.46739 34.4796 9.37535 34.5178 9.2991 34.594C9.22285 34.6703 9.18472 34.7623 9.18472 34.8701ZM9.59149 35.2986L9.71624 35.304C9.77357 35.3068 9.82962 35.2996 9.88437 35.2823L10.1772 35.1901C10.1995 35.1825 10.2212 35.1735 10.2423 35.163L10.6545 34.9732C10.6582 34.9696 10.6618 34.966 10.6654 34.9623L11.1752 34.7074C11.1788 34.7057 11.1824 34.7038 11.186 34.702L11.7826 34.3874C11.7994 34.3792 11.8156 34.3702 11.8315 34.3603L12.4443 33.9481C12.4807 33.9235 12.5133 33.8946 12.542 33.8613L12.9704 33.3732L13.4477 33.0966C13.592 33.0134 13.6227 32.8995 13.5396 32.7551C13.4566 32.6106 13.3428 32.5799 13.1982 32.6627L12.7209 32.9393L12.0809 33.0586C12.0454 33.0657 12.0111 33.0765 11.9779 33.0912L11.2999 33.3841C11.2871 33.389 11.2744 33.3944 11.262 33.4003L10.6654 33.7149L10.161 33.9752C10.1518 33.9804 10.1427 33.9858 10.1339 33.9915L9.74336 34.2193C9.72834 34.2294 9.71388 34.2403 9.69997 34.2518L9.45048 34.4308C9.4334 34.4424 9.41713 34.4551 9.40167 34.4688L9.30947 34.561C9.17255 34.6922 9.13796 34.8463 9.20567 35.0234C9.27339 35.2005 9.40199 35.2922 9.59149 35.2986Z" fill="black"/>
<path d="M8.09046 4.86195C8.09046 4.9707 8.12891 5.06353 8.20581 5.14043C8.28271 5.21733 8.37553 5.25577 8.48428 5.25577C8.59304 5.25577 8.68586 5.21733 8.76276 5.14043C8.83966 5.06353 8.87811 4.9707 8.87811 4.86195C8.87811 4.7532 8.83966 4.66037 8.76276 4.58347C8.68586 4.50657 8.59304 4.46812 8.48428 4.46812C8.37553 4.46812 8.28271 4.50657 8.20581 4.58347C8.12891 4.66037 8.09046 4.7532 8.09046 4.86195ZM8.14047 4.64941L8.10921 4.68692C8.10252 4.69707 8.09627 4.70749 8.09046 4.71817L8.0342 4.83069C8.02193 4.85277 8.01151 4.87569 8.00294 4.89946L7.92168 5.13075L7.8029 5.48707L7.62787 5.98716C7.62782 5.99133 7.62782 5.9955 7.62787 5.99967L7.15278 7.41869C7.14843 7.42693 7.14426 7.43526 7.14028 7.44369L6.90898 8.26885L6.69019 9.07525C6.6881 9.07732 6.68601 9.07941 6.68394 9.0815L6.4839 9.8379C6.48389 9.83998 6.48389 9.84206 6.4839 9.84415L6.29637 10.5818C6.29636 10.5839 6.29636 10.586 6.29637 10.588L5.94005 12.0446L5.76502 12.751L5.60874 13.4136C5.60661 13.4177 5.60453 13.4219 5.60249 13.4261L5.46496 14.0512L5.32743 14.6576L5.18366 15.2514L5.02113 15.8578L4.84609 16.4892C4.84392 16.4954 4.84183 16.5016 4.83984 16.5079L4.67731 17.158C4.67727 17.1622 4.67727 17.1664 4.67731 17.1705L4.52728 17.8144C4.52724 17.8186 4.52724 17.8228 4.52728 17.8269L4.40226 18.4395L4.27098 19.0084L4.12721 19.5773L3.96467 20.1524C3.96464 20.1565 3.96464 20.1607 3.96467 20.1649L3.80214 20.7462L3.63336 21.3526C3.63123 21.3567 3.62915 21.3609 3.62711 21.3651L3.47083 21.9777L3.2958 22.6028L3.11451 23.2342L2.92073 23.8781L2.72694 24.5094C2.72693 24.5115 2.72693 24.5136 2.72694 24.5157L2.53315 25.1533C2.53314 25.1554 2.53314 25.1575 2.53315 25.1596L2.35187 25.7847C2.34969 25.7909 2.34761 25.7972 2.34562 25.8034L2.18934 26.4161C2.1893 26.4202 2.1893 26.4244 2.18934 26.4286L2.04556 27.0224C2.04343 27.0266 2.04135 27.0307 2.03931 27.0349L1.92054 27.5788L1.81427 28.0601L1.59547 28.8915C1.59082 28.906 1.58665 28.9206 1.58297 28.9353L1.51421 29.2791C1.48244 29.4345 1.50327 29.5824 1.57672 29.7229L1.68299 29.923C1.76477 30.0769 1.89211 30.1651 2.065 30.1876C2.23789 30.21 2.38352 30.1572 2.5019 30.0292L2.65818 29.8667C2.73351 29.7859 2.7856 29.6921 2.81446 29.5854L2.90822 29.2478C2.90826 29.2437 2.90826 29.2395 2.90822 29.2353L3.12702 28.3914C3.12919 28.3852 3.13127 28.379 3.13327 28.3727L3.24579 27.8788C3.2458 27.8767 3.2458 27.8747 3.24579 27.8726L3.35831 27.3287L3.50209 26.7474L3.65212 26.1473L3.8334 25.5409L4.02719 24.9095L4.22097 24.2719C4.22099 24.2698 4.22099 24.2677 4.22097 24.2656L4.41476 23.6218C4.4148 23.6176 4.4148 23.6134 4.41476 23.6093L4.59604 22.9654C4.59606 22.9633 4.59606 22.9612 4.59604 22.9591L4.77108 22.3278C4.77112 22.3236 4.77112 22.3194 4.77108 22.3153L4.92111 21.7027L5.08989 21.1088L5.25242 20.5212L5.4212 19.9398C5.42353 19.9295 5.42562 19.919 5.42745 19.9086L5.57123 19.321C5.57127 19.3168 5.57127 19.3126 5.57123 19.3085L5.70251 18.7208L5.84003 18.1145L5.99006 17.4769L6.14634 16.8392L6.32137 16.2079L6.4839 15.589C6.48392 15.5869 6.48392 15.5848 6.4839 15.5827L6.63393 14.9764C6.63611 14.9702 6.63819 14.9639 6.64018 14.9576L6.77771 14.3388L6.90898 13.7199L7.06526 13.0573L7.2278 12.3571L7.58411 10.9006L7.75915 10.1692L7.95918 9.41907L8.17173 8.61266C8.17179 8.6085 8.17179 8.60433 8.17173 8.60016L8.37801 7.775C8.38036 7.76464 8.38244 7.75422 8.38427 7.74375L8.67182 6.27472C8.67182 6.27263 8.67182 6.27055 8.67182 6.26847L8.76559 5.75587L8.8531 5.4058C8.85553 5.39545 8.85761 5.38503 8.85936 5.37455L8.90937 5.137C8.91764 5.09354 8.91973 5.04978 8.91562 5.00573L8.90311 4.8807L8.89686 4.83694C8.87892 4.64227 8.77507 4.52141 8.58531 4.47437C8.39556 4.42732 8.24728 4.48567 8.14047 4.64941ZM1.85177 29.9042L1.87053 29.9855C1.9122 30.173 2.0268 30.246 2.21434 30.2043C2.40188 30.1626 2.47481 30.048 2.43313 29.8605L2.41438 29.7792C2.37265 29.5917 2.25806 29.5188 2.07059 29.5605C1.88311 29.6022 1.81018 29.7167 1.85177 29.9042Z" fill="black"/>
<path d="M14.0855 5.26202C14.0855 5.35869 14.1196 5.4412 14.188 5.50956C14.2564 5.57791 14.3389 5.61209 14.4355 5.61209C14.5322 5.61209 14.6147 5.57791 14.6831 5.50956C14.7514 5.4412 14.7856 5.35869 14.7856 5.26202C14.7856 5.16535 14.7514 5.08284 14.6831 5.01449C14.6147 4.94613 14.5322 4.91196 14.4355 4.91196C14.3389 4.91196 14.2564 4.94613 14.188 5.01449C14.1196 5.08284 14.0855 5.16535 14.0855 5.26202ZM14.8606 5.23077V5.20576C14.8577 5.17384 14.8514 5.14258 14.8419 5.11199L14.8294 5.06198L14.8106 4.99947C14.7191 5.11745 14.692 5.24873 14.7293 5.3933L14.7481 5.3808C14.843 5.25891 14.8739 5.12253 14.8408 4.97166C14.8077 4.82079 14.7225 4.70986 14.5854 4.63887C14.4482 4.56788 14.3084 4.56244 14.1662 4.62256C14.0239 4.68268 13.9304 4.78666 13.8857 4.9345C13.841 5.08235 13.8612 5.22071 13.9463 5.3496C14.0314 5.47849 14.1507 5.5514 14.3043 5.56833H14.3293C14.2658 5.38307 14.1366 5.28096 13.9417 5.26202L13.9604 5.32453C13.9624 5.33083 13.9645 5.33708 13.9667 5.34329L13.9917 5.39955C14.0396 5.52669 14.1271 5.61421 14.2542 5.6621L14.2793 5.66835C14.3483 5.69421 14.4193 5.70188 14.4922 5.69135C14.5652 5.68082 14.6311 5.65339 14.69 5.60906C14.7489 5.56473 14.7935 5.50898 14.8238 5.44178C14.8541 5.37459 14.8664 5.30425 14.8606 5.23077ZM13.8229 4.94946L13.7729 5.1245C13.7534 5.18979 13.7451 5.25647 13.7479 5.32453L13.7667 5.77462C13.7679 5.79346 13.77 5.81222 13.7729 5.83088L13.8729 6.56227C13.8728 6.56852 13.8728 6.57477 13.8729 6.58102L14.0292 7.51245C14.0291 7.5187 14.0291 7.52495 14.0292 7.53121L14.2292 8.58766C14.2313 8.58975 14.2334 8.59184 14.2355 8.59391L14.4605 9.70662L14.6856 10.8631C14.6856 10.8652 14.6856 10.8673 14.6856 10.8693L14.9294 12.0446C14.9294 12.0466 14.9294 12.0487 14.9294 12.0508L15.1669 13.1698L15.342 14.1825L15.492 15.1452C15.492 15.1472 15.492 15.1493 15.492 15.1514L15.6483 16.0891C15.6503 16.0954 15.6524 16.1016 15.6545 16.1078L15.8358 17.033C15.8357 17.0393 15.8357 17.0455 15.8358 17.0518L16.0296 17.9519C16.0316 17.9582 16.0337 17.9645 16.0358 17.9707L16.2421 18.8146C16.2421 18.8188 16.2421 18.8229 16.2421 18.8271L16.4484 19.6023C16.4505 19.6043 16.4526 19.6064 16.4547 19.6085L16.661 20.3586L16.8547 21.0838L17.0423 21.7777L17.2111 22.4653C17.2131 22.4674 17.2152 22.4695 17.2173 22.4716L17.3923 23.1529C17.3923 23.155 17.3923 23.1571 17.3923 23.1592L17.5674 23.8218C17.5713 23.8323 17.5755 23.8427 17.5799 23.8531L17.7612 24.4594C17.7632 24.4636 17.7653 24.4678 17.7674 24.4719L18.1612 25.6847C18.1633 25.6888 18.1654 25.693 18.1675 25.6972L18.3613 26.2723C18.3633 26.2765 18.3654 26.2806 18.3675 26.2848L18.5488 26.7849L18.6988 27.1787C18.6988 27.1808 18.6988 27.1829 18.6988 27.1849L18.8239 27.5163C18.8259 27.5225 18.828 27.5288 18.8301 27.535L18.9426 27.8226C18.9722 27.8933 19.0118 27.9579 19.0614 28.0164L19.2052 28.1851C19.253 28.243 19.3092 28.2909 19.374 28.3289L19.4677 28.3852C19.5856 28.4567 19.7117 28.4772 19.8462 28.447C19.9807 28.4167 20.0858 28.344 20.1616 28.2289L20.2241 28.1289C20.2656 28.0653 20.2948 27.9966 20.3116 27.9226L20.3617 27.71C20.3822 27.6278 20.3884 27.5444 20.3804 27.46L20.3429 27.1599C20.3387 27.1134 20.3303 27.0675 20.3179 27.0224L20.2179 26.6786C20.2159 26.6723 20.2138 26.6661 20.2116 26.6598L20.0866 26.2598L19.9303 25.7597C19.9283 25.7534 19.9262 25.7471 19.9241 25.7409L19.7365 25.1721L19.349 23.9718L19.1802 23.3905L19.0052 22.7341L18.8301 22.059C18.8301 22.0548 18.8301 22.0506 18.8301 22.0465L18.6426 21.3526L18.455 20.6587C18.4551 20.6566 18.4551 20.6545 18.455 20.6525L18.2488 19.9211L18.0487 19.1709L17.8424 18.4083L17.6424 17.5894L17.4486 16.708L17.2673 15.789C17.2673 15.7869 17.2673 15.7849 17.2673 15.7828L17.0735 14.8576C17.0717 14.8471 17.0696 14.8367 17.0673 14.8263L16.836 13.8762C16.834 13.8699 16.8319 13.8636 16.8297 13.8574L16.5609 12.8572L16.3046 11.7508C16.3046 11.7487 16.3046 11.7466 16.3046 11.7445L16.0296 10.5755L15.7733 9.43157L15.542 8.33136L15.342 7.28741L15.1857 6.36848L15.0732 5.64335C15.0696 5.62651 15.0655 5.60984 15.0606 5.59334L14.9544 5.15575C14.9472 5.11938 14.9368 5.08396 14.9231 5.04948L14.8481 4.88695C14.7487 4.64933 14.5704 4.53836 14.3133 4.55404C14.0562 4.56971 13.8927 4.70152 13.8229 4.94946ZM20.0116 27.9663V27.9226C20.0116 27.7476 19.9241 27.66 19.749 27.66C19.574 27.66 19.4865 27.7476 19.4865 27.9226V27.9663C19.4865 28.1414 19.574 28.2289 19.749 28.2289C19.9241 28.2289 20.0116 28.1414 20.0116 27.9663Z" fill="black"/>
<path d="M12.0976 1.5738C12.0976 1.78217 12.2018 1.88636 12.4101 1.88636C12.6185 1.88636 12.7227 1.78217 12.7227 1.5738C12.7227 1.36542 12.6185 1.26124 12.4101 1.26124C12.2018 1.26124 12.0976 1.36542 12.0976 1.5738ZM11.9851 1.38001L11.9788 1.39876C11.9187 1.5218 11.9083 1.6489 11.9476 1.78009L11.9788 1.89886C11.9931 1.94056 12.0119 1.98015 12.0351 2.01763L12.1726 2.27393C12.1786 2.28242 12.1849 2.29076 12.1914 2.29893L12.4101 2.64275L12.6602 3.03032L12.9165 3.42415C12.9185 3.42834 12.9206 3.43251 12.9227 3.43665L13.179 3.81172C13.179 3.81381 13.179 3.81589 13.179 3.81797L13.4228 4.17429C13.4249 4.17639 13.427 4.17847 13.4291 4.18054L13.6479 4.49935L13.8354 4.77441L13.9917 5.02445C13.9997 5.03513 14.008 5.04555 14.0167 5.05571L14.1605 5.262C14.1721 5.27929 14.1846 5.29596 14.198 5.31201L14.423 5.56831C14.6264 5.80508 14.8629 5.845 15.1327 5.68807C15.4025 5.53113 15.4848 5.30576 15.3795 5.01195L15.2669 4.68689C15.2579 4.66334 15.2475 4.64042 15.2357 4.61813L15.1232 4.39308C15.1135 4.37594 15.1031 4.35927 15.0919 4.34307L14.9294 4.08052C14.9235 4.06782 14.9173 4.05532 14.9106 4.04302L14.7043 3.76171C14.7043 3.75963 14.7043 3.75755 14.7043 3.75546L14.4793 3.43665C14.4752 3.43243 14.471 3.42826 14.4668 3.42415L14.2105 3.08658L13.9542 2.73027L13.7041 2.3552L13.4603 1.96762C13.4563 1.96129 13.4521 1.95504 13.4478 1.94887L13.2165 1.61756C13.2031 1.59795 13.1885 1.5792 13.1728 1.56129L12.979 1.3425C12.9153 1.26922 12.8382 1.21504 12.7477 1.17997L12.6289 1.13621C12.5219 1.09675 12.4136 1.09258 12.3039 1.12371L12.2851 1.12996C12.1481 1.16891 12.0481 1.25226 11.9851 1.38001Z" fill="black"/>
<path d="M4.39599 32.2299C4.39599 32.3334 4.43261 32.4219 4.50585 32.4951C4.57908 32.5683 4.66749 32.6049 4.77106 32.6049C4.87464 32.6049 4.96304 32.5683 5.03628 32.4951C5.10952 32.4219 5.14613 32.3334 5.14613 32.2299C5.14613 32.1263 5.10952 32.0379 5.03628 31.9647C4.96304 31.8914 4.87464 31.8548 4.77106 31.8548C4.66749 31.8548 4.57908 31.8914 4.50585 31.9647C4.43261 32.0379 4.39599 32.1263 4.39599 32.2299ZM5.20239 32.2174V32.1924C5.18154 32.2445 5.17112 32.2987 5.17114 32.3549L5.18364 32.3236C5.1306 32.3704 5.09101 32.4267 5.06487 32.4924L5.09612 32.4674C4.8997 32.3209 4.71008 32.3292 4.52727 32.4924L4.53977 32.5049C4.63927 32.2759 4.58926 32.0863 4.38974 31.9361L4.37724 31.9611C4.36637 31.9895 4.35803 32.0187 4.35223 32.0486L4.32723 32.1424C4.32485 32.1527 4.32277 32.1631 4.32098 32.1736L4.29597 32.3236C4.29118 32.3568 4.2891 32.3902 4.28972 32.4237V32.6425C4.28956 32.6508 4.28956 32.6591 4.28972 32.6675L4.30222 32.9488C4.30198 32.9592 4.30198 32.9696 4.30222 32.98L4.33348 33.3051L4.34598 33.6114V33.8864L4.32098 34.1427L4.27097 34.3928L4.2022 34.6616L4.12719 34.9304L4.03967 35.1804L3.94591 35.4117L3.84589 35.6243L3.73962 35.8056L3.64585 35.9743L3.56458 36.0994L3.48332 36.1931L3.38955 36.2931C3.38318 36.2993 3.37693 36.3055 3.3708 36.3119L3.27078 36.4182C3.26865 36.4223 3.26657 36.4265 3.26453 36.4307L3.17701 36.5307L3.08949 36.6307C3.08523 36.6369 3.08106 36.6431 3.07699 36.6495L2.98947 36.7557C2.98739 36.7557 2.98531 36.7557 2.98322 36.7557L2.90821 36.8495L2.75193 37.037L2.70817 37.087L2.67066 37.1246L2.6144 37.1746C2.64994 37.1525 2.68328 37.1275 2.71442 37.0996L2.66441 37.1308C2.64507 37.1424 2.62632 37.1549 2.60815 37.1683L2.56439 37.1996C2.43692 37.2959 2.35149 37.4209 2.30809 37.5746L2.30184 37.5934C2.2426 37.8059 2.27504 38.0033 2.39916 38.1857C2.52327 38.3681 2.69504 38.4707 2.91446 38.4936L2.92696 38.4998C3.01143 38.5085 3.09478 38.5022 3.17701 38.4811L3.20201 38.4748C3.25873 38.4606 3.31291 38.4397 3.36455 38.4123L3.3958 38.3998C3.5003 38.3438 3.58574 38.2667 3.6521 38.1685L3.67085 38.1435C3.70348 38.0987 3.73057 38.0508 3.75212 37.9997L3.75837 37.9747C3.83913 37.7729 3.83019 37.5751 3.73155 37.3814C3.63291 37.1877 3.47824 37.0642 3.26752 37.0108C3.0568 36.9574 2.86195 36.9924 2.68297 37.1157C2.50399 37.2391 2.40195 37.4087 2.37686 37.6247L2.37061 37.6497C2.45721 37.5437 2.50931 37.4228 2.52689 37.2871L2.50813 37.3121C2.56514 37.2715 2.61515 37.2235 2.65816 37.1683L2.63316 37.1871C2.71174 37.1661 2.78468 37.1328 2.85195 37.087L2.82694 37.0933C2.86073 37.0894 2.89407 37.0832 2.92696 37.0745L2.91446 37.0808C2.87013 37.1968 2.85703 37.3163 2.87515 37.4392C2.89328 37.562 2.94032 37.6726 3.01626 37.7709C3.09221 37.8692 3.18734 37.9426 3.30167 37.9911C3.416 38.0397 3.5349 38.0571 3.65835 38.0435L3.6646 38.0247C3.53926 38.1088 3.44966 38.2213 3.3958 38.3623L3.43331 38.3373L3.47082 38.3123C3.50395 38.2919 3.5352 38.269 3.56458 38.2435L3.62084 38.1935C3.62506 38.1894 3.62923 38.1852 3.63335 38.181L3.70211 38.1185C3.72444 38.0969 3.74528 38.074 3.76462 38.0497L3.83338 37.9622L4.00217 37.7684C4.00639 37.7643 4.01055 37.7601 4.01467 37.7559L4.08968 37.6559L4.17095 37.5621L4.25221 37.4684C4.26076 37.4602 4.26909 37.4519 4.27722 37.4434L4.33348 37.3621L4.40849 37.2871C4.41481 37.283 4.42106 37.2789 4.42725 37.2746L4.53352 37.1558C4.54436 37.1437 4.55478 37.1312 4.56477 37.1183L4.68355 36.9745C4.69907 36.9565 4.71366 36.9378 4.7273 36.9183L4.83983 36.7495C4.84856 36.7372 4.85689 36.7247 4.86483 36.712L4.97735 36.5182C4.97739 36.514 4.97739 36.5099 4.97735 36.5057L5.09612 36.2931C5.10486 36.2809 5.11319 36.2684 5.12113 36.2556L5.2399 36.0056C5.24678 35.9892 5.25303 35.9725 5.25866 35.9556L5.36493 35.6868C5.36716 35.6785 5.36925 35.6702 5.37118 35.6618L5.4712 35.3742C5.47597 35.3577 5.48014 35.341 5.4837 35.3242L5.56496 35.0242C5.565 35.02 5.565 35.0158 5.56496 35.0117L5.63998 34.7178C5.64462 34.7034 5.64878 34.6888 5.65248 34.6741L5.70874 34.3678C5.71158 34.3491 5.71367 34.3304 5.71499 34.3115L5.74625 33.9927C5.74759 33.9677 5.74759 33.9427 5.74625 33.9177V33.5926C5.74492 33.5738 5.74284 33.555 5.74 33.5364L5.70874 33.1926C5.70908 33.1801 5.70908 33.1676 5.70874 33.1551L5.65873 32.83C5.65536 32.8111 5.65119 32.7923 5.64623 32.7737L5.58372 32.4987C5.57894 32.4733 5.57269 32.4483 5.56496 32.4237L5.48995 32.2174C5.48144 32.1895 5.47102 32.1625 5.45869 32.1361L5.38993 32.0048C5.36942 31.9643 5.34441 31.9268 5.31492 31.8923L5.2524 31.8235C5.13584 31.692 4.98998 31.6336 4.81482 31.6485H4.78982C4.62444 31.6602 4.49941 31.7373 4.41474 31.8798L4.40849 31.8986C4.39328 31.9244 4.38078 31.9515 4.37099 31.9798L4.35223 32.0236C4.33723 32.0661 4.3289 32.1098 4.32723 32.1549V32.1861C4.32565 32.2613 4.34232 32.3321 4.37724 32.3987L4.38974 32.4174C4.49467 32.6159 4.65615 32.6883 4.87416 32.6347C5.09218 32.581 5.20159 32.4419 5.20239 32.2174ZM2.5769 37.6872C2.5769 37.8339 2.62877 37.9591 2.73252 38.0629C2.83628 38.1666 2.96152 38.2185 3.10825 38.2185C3.25497 38.2185 3.38022 38.1666 3.48397 38.0629C3.58772 37.9591 3.6396 37.8339 3.6396 37.6872C3.6396 37.5404 3.58772 37.4152 3.48397 37.3114C3.38022 37.2077 3.25497 37.1558 3.10825 37.1558C2.96152 37.1558 2.83628 37.2077 2.73252 37.3114C2.62877 37.4152 2.5769 37.5404 2.5769 37.6872ZM3.25202 37.9435L3.28328 37.931C3.43535 37.8422 3.4787 37.7161 3.4133 37.5526C3.34791 37.3892 3.22956 37.3277 3.05824 37.3684L3.02698 37.3809C2.87491 37.4696 2.83157 37.5957 2.89696 37.7592C2.96235 37.9227 3.0807 37.9841 3.25202 37.9435Z" fill="black"/>
<path d="M16.0171 32.2049C16.0171 32.305 16.0525 32.3905 16.1233 32.4613C16.1941 32.5321 16.2796 32.5675 16.3797 32.5675C16.4798 32.5675 16.5653 32.5321 16.6361 32.4613C16.7069 32.3905 16.7423 32.305 16.7423 32.2049C16.7423 32.1048 16.7069 32.0193 16.6361 31.9485C16.5653 31.8777 16.4798 31.8423 16.3797 31.8423C16.2796 31.8423 16.1941 31.8777 16.1233 31.9485C16.0525 32.0193 16.0171 32.1048 16.0171 32.2049ZM16.4047 31.8048L16.3859 31.7986C16.4485 31.848 16.5193 31.8771 16.5985 31.8861L16.5797 31.8674C16.4656 31.785 16.3406 31.762 16.2047 31.7986L16.1734 31.8048L16.1421 31.8111C16.1117 31.8206 16.0825 31.8331 16.0546 31.8486L16.0046 31.8736C16.0418 31.8633 16.0772 31.8487 16.1109 31.8298L16.0609 31.8486C16.1576 31.8821 16.2555 31.8863 16.3547 31.8611L16.3297 31.8486C16.271 31.8283 16.2105 31.8179 16.1484 31.8173H16.1046C15.9387 31.8169 15.7949 31.8732 15.6733 31.9861L15.592 32.0611C15.5005 32.1438 15.436 32.2438 15.3983 32.3612L15.3357 32.5487C15.319 32.6017 15.3086 32.6559 15.3045 32.7113L15.2857 32.9988C15.2829 33.0363 15.2829 33.0738 15.2857 33.1113L15.3107 33.4614C15.3119 33.4823 15.314 33.5032 15.317 33.5239L15.3795 33.9115C15.3845 33.9368 15.3907 33.9618 15.3983 33.9865L15.5045 34.3928C15.5064 34.4033 15.5085 34.4137 15.5108 34.4241L15.6421 34.8242C15.6458 34.8389 15.65 34.8535 15.6546 34.8679L15.8046 35.2555C15.812 35.2767 15.8203 35.2975 15.8296 35.318L15.9984 35.6681C16.0023 35.6786 16.0065 35.689 16.0109 35.6993L16.1797 36.0119C16.1876 36.0246 16.196 36.0371 16.2047 36.0494L16.3734 36.337C16.3815 36.3476 16.3898 36.358 16.3984 36.3682L16.5797 36.637C16.5878 36.6476 16.5961 36.6581 16.6047 36.6683L16.7798 36.9058C16.7859 36.9143 16.7921 36.9226 16.7985 36.9308L16.9736 37.1371C16.9796 37.1456 16.9859 37.1539 16.9923 37.1621L17.1173 37.2996L17.1986 37.4184L17.2861 37.5559L17.3924 37.7497C17.3945 37.7518 17.3965 37.7539 17.3986 37.756L17.5049 37.9435C17.5109 37.9541 17.5172 37.9645 17.5237 37.9748L17.6174 38.1248C17.6293 38.142 17.6418 38.1586 17.6549 38.1748L17.7362 38.2811C17.8042 38.37 17.8876 38.4408 17.9862 38.4936L18.055 38.5311C18.2485 38.6353 18.4491 38.6513 18.6566 38.5792C18.8642 38.5071 19.0117 38.3702 19.099 38.1686L19.1052 38.1623C19.1518 38.0544 19.1706 37.9419 19.1615 37.8247V37.8185C19.1551 37.7384 19.1364 37.6613 19.1052 37.5872L19.074 37.5122C19.0483 37.4495 19.0149 37.3911 18.9739 37.3371L18.9177 37.2621L18.8552 37.1621L18.7614 36.9933L18.6489 36.7933C18.641 36.7784 18.6327 36.7638 18.6239 36.7495L18.5113 36.5682C18.4997 36.549 18.4872 36.5302 18.4738 36.512L18.3488 36.3432C18.3349 36.3259 18.3204 36.3092 18.3051 36.2932L18.1675 36.1369L18.0175 35.9494L17.855 35.7431L17.6987 35.5118L17.5424 35.2555L17.3924 34.9742L17.2424 34.6679L17.1111 34.3241L16.9798 33.949L16.861 33.5927L16.786 33.2739L16.7485 32.9926L16.7423 32.755V32.5737C16.7423 32.5423 16.7402 32.5111 16.736 32.48L16.7235 32.3737C16.7172 32.3221 16.7047 32.2721 16.686 32.2237L16.6735 32.1924L16.6672 32.1737C16.6421 32.2728 16.6463 32.3708 16.6797 32.4675L16.6985 32.4175C16.6797 32.4511 16.6651 32.4865 16.6547 32.5237L16.6735 32.4925L16.6797 32.48C16.6798 32.4779 16.6798 32.4758 16.6797 32.4737L16.6923 32.4487C16.6943 32.4487 16.6964 32.4487 16.6985 32.4487L16.711 32.43C16.6787 32.4591 16.6516 32.4924 16.6297 32.53L16.6422 32.5175C16.772 32.397 16.8089 32.2527 16.7529 32.0847C16.6969 31.9167 16.5808 31.8234 16.4047 31.8048ZM19.1302 37.706V37.6935C19.1027 37.5788 19.0493 37.4779 18.9699 37.3907C18.8905 37.3036 18.795 37.241 18.6834 37.2029C18.5718 37.1649 18.458 37.1561 18.3419 37.1766C18.2258 37.1971 18.1218 37.2444 18.03 37.3184L18.0238 37.3246C18.0387 37.3148 18.0533 37.3044 18.0675 37.2934L18.0488 37.3059C18.1157 37.2862 18.1782 37.2571 18.2363 37.2184L18.2175 37.2246L18.18 37.2309C18.1674 37.2347 18.1549 37.2388 18.1425 37.2434L18.0863 37.2621C18.0335 37.279 17.9835 37.3019 17.9362 37.3309L17.855 37.3809C17.8529 37.3809 17.8508 37.3809 17.8487 37.3809L17.755 37.4434L17.6549 37.4872L17.5049 37.5434L17.2924 37.6184C17.2797 37.6223 17.2672 37.6264 17.2549 37.6309L16.9923 37.7372L16.661 37.8622C16.6589 37.8643 16.6568 37.8664 16.6547 37.8685L16.2734 38.0185C16.2713 38.0185 16.2693 38.0185 16.2672 38.0185L15.8733 38.1811C15.8452 38.1937 15.8182 38.2083 15.7921 38.2248L15.442 38.4311C15.4249 38.4407 15.4082 38.4512 15.392 38.4624L15.117 38.6561L14.8482 38.7999L14.5543 38.9562L14.248 39.1125L13.9417 39.2688L13.6292 39.4188L13.3416 39.5563L13.0853 39.6751C13.0768 39.6811 13.0685 39.6874 13.0603 39.6938L12.854 39.8001C12.7783 39.8416 12.7157 39.8979 12.6665 39.9689L12.5727 40.1064L12.4852 40.2189C12.3484 40.3959 12.3502 40.5715 12.4905 40.7456C12.6309 40.9198 12.802 40.9589 13.004 40.8628L13.0728 40.8316L13.1603 40.8253C13.2211 40.8204 13.2794 40.8058 13.3354 40.7815L13.5417 40.694C13.5458 40.692 13.55 40.6899 13.5542 40.6878L13.8105 40.569C13.8146 40.567 13.8188 40.5649 13.823 40.5628L14.1168 40.419C14.121 40.4169 14.1251 40.4149 14.1293 40.4127L14.4356 40.2502C14.4397 40.2503 14.4439 40.2503 14.4481 40.2502L14.7544 40.0877L15.0482 39.9314L15.3545 39.7814L15.617 39.6563L15.9234 39.5688C15.9402 39.5653 15.9569 39.5612 15.9734 39.5563L16.3547 39.4125C16.361 39.4105 16.3672 39.4085 16.3734 39.4063L16.761 39.2438L17.1298 39.1L17.4361 38.9875L17.6924 38.9187L17.9175 38.8562C17.9322 38.8525 17.9468 38.8483 17.9612 38.8437L18.155 38.7749C18.1828 38.7662 18.2099 38.7558 18.2363 38.7437L18.3988 38.6624C18.4225 38.6512 18.4454 38.6387 18.4676 38.6249L18.5801 38.5499L18.6551 38.4999C18.6067 38.5176 18.5609 38.5405 18.5176 38.5686L18.5489 38.5624L18.5676 38.5561C18.6177 38.5428 18.6656 38.524 18.7114 38.4999L18.7426 38.4811C18.7663 38.4699 18.7892 38.4574 18.8114 38.4436L18.8302 38.4311C18.754 38.4502 18.6831 38.4815 18.6176 38.5249L18.6301 38.5186C18.6578 38.4017 18.6551 38.2855 18.6218 38.17C18.5886 38.0545 18.5292 37.9546 18.4436 37.8702C18.358 37.7859 18.2572 37.728 18.1412 37.6965C18.0252 37.665 17.909 37.664 17.7925 37.6935V37.706C17.7681 37.8083 17.7672 37.9109 17.7899 38.0136C17.8125 38.1163 17.8565 38.209 17.9217 38.2916C17.9869 38.3742 18.0668 38.4384 18.1615 38.4843C18.2562 38.5302 18.3561 38.5531 18.4613 38.5531C18.5666 38.5531 18.6665 38.5302 18.7612 38.4843C18.8559 38.4384 18.9358 38.3742 19.001 38.2916C19.0662 38.209 19.1102 38.1163 19.1328 38.0136C19.1555 37.9109 19.1546 37.8083 19.1302 37.706ZM12.5415 40.444L12.4789 40.5315C12.3873 40.6607 12.406 40.7711 12.5352 40.8628C12.6644 40.9545 12.7748 40.9357 12.8665 40.8066L12.929 40.719C13.0207 40.5898 13.002 40.4794 12.8728 40.3877C12.7436 40.296 12.6331 40.3148 12.5415 40.444Z" fill="black"/>
<path d="M11.9663 40.5753C11.82 40.3762 11.6366 40.3325 11.4162 40.444L11.3975 40.4565C11.2608 40.5235 11.1799 40.632 11.155 40.7822C11.13 40.9324 11.1713 41.0612 11.2789 41.1689C11.3866 41.2765 11.5155 41.3178 11.6656 41.2929C11.8158 41.2679 11.9243 41.187 11.9913 41.0504L12.0038 41.0316C12.0578 40.9274 12.0682 40.8191 12.0351 40.7065C12.02 40.6587 11.9971 40.6149 11.9663 40.5753ZM11.0724 40.8753C11.0725 41.0168 11.1225 41.1376 11.2226 41.2377C11.3227 41.3377 11.4435 41.3877 11.585 41.3877C11.7265 41.3877 11.8473 41.3377 11.9474 41.2377C12.0475 41.1376 12.0976 41.0168 12.0976 40.8753C12.0976 40.7338 12.0475 40.613 11.9474 40.513C11.8473 40.4129 11.7265 40.3629 11.585 40.3629C11.4435 40.3629 11.3227 40.4129 11.2226 40.513C11.1225 40.613 11.0725 40.7338 11.0724 40.8753ZM11.3475 41.3817L11.41 41.4129C11.4805 41.4501 11.5555 41.4709 11.635 41.4754L11.7913 41.4817C11.8355 41.4827 11.8793 41.4786 11.9226 41.4692L12.1414 41.4254C12.156 41.4239 12.1706 41.4218 12.1851 41.4192L12.4852 41.3317C12.5197 41.3224 12.5531 41.3099 12.5852 41.2942L12.8978 41.1379C12.902 41.1338 12.9062 41.1296 12.9103 41.1254L13.2291 40.9503C13.2661 40.9303 13.2995 40.9053 13.3291 40.8753L13.4854 40.7065L13.6666 40.6503C13.8417 40.5919 13.9 40.4752 13.8417 40.3002C13.7833 40.1252 13.6666 40.0668 13.4916 40.1252L13.3041 40.1877L13.0728 40.1627C13.0353 40.1577 12.9978 40.1577 12.9603 40.1627L12.6102 40.2127L12.2789 40.2502C12.2515 40.2524 12.2244 40.2565 12.1976 40.2627L11.9101 40.3377L11.7475 40.369L11.635 40.3752C11.6844 40.3863 11.7345 40.3905 11.785 40.3877L11.71 40.3752C11.5762 40.3417 11.4483 40.3575 11.3266 40.4224C11.2048 40.4874 11.1206 40.5847 11.0738 40.7146C11.027 40.8444 11.0298 40.9731 11.0822 41.1008C11.1346 41.2285 11.223 41.3221 11.3475 41.3817Z" fill="black"/>
<path d="M5.21485 33.2554L5.11483 33.3116C5.05652 33.3433 5.00651 33.385 4.9648 33.4367L4.85853 33.5617C4.85415 33.5699 4.84998 33.5782 4.84603 33.5867L4.7085 33.7742C4.68924 33.8019 4.67257 33.8311 4.65849 33.8617L4.52722 34.1305C4.52021 34.1469 4.51396 34.1636 4.50846 34.1805L4.36469 34.5556C4.36011 34.568 4.35594 34.5805 4.35218 34.5931L4.20216 35.0932C4.20214 35.0953 4.20214 35.0974 4.20216 35.0995L4.03962 35.6308L3.8896 36.1184L3.75207 36.506L3.63955 36.7748L3.53328 36.9748L3.43326 37.1186L3.34574 37.2249L3.30198 37.2624L3.33324 37.2436H3.32699C3.3228 37.2457 3.31863 37.2477 3.31449 37.2499L3.22697 37.2749L3.20196 37.2811L3.1082 37.2874C3.10401 37.2894 3.09984 37.2915 3.09569 37.2936L3.03943 37.2999C3.0164 37.3007 2.99348 37.3028 2.97067 37.3061L2.92066 37.3186C2.91438 37.3206 2.90813 37.3227 2.90191 37.3249L2.8519 37.3374C2.79488 37.3508 2.7407 37.3717 2.68937 37.3999L2.64561 37.4249C2.60765 37.4463 2.57222 37.4713 2.53934 37.4999L2.50808 37.5312C2.47106 37.5608 2.43772 37.5942 2.40806 37.6312L2.38931 37.6562C2.36789 37.6859 2.34914 37.7171 2.33305 37.75L2.3143 37.7812C2.26492 37.8796 2.242 37.9838 2.24553 38.0938L2.25178 38.125L2.24553 38.1501C2.24517 38.1626 2.24517 38.1751 2.24553 38.1876V38.2376C2.2464 38.2606 2.24848 38.2835 2.25178 38.3063L2.25804 38.3501C2.258 38.3543 2.258 38.3584 2.25804 38.3626L2.27054 38.4064C2.28048 38.4764 2.30132 38.5431 2.33305 38.6064L2.3518 38.6439C2.36292 38.6676 2.37542 38.6905 2.38931 38.7127L2.42682 38.7689C2.45091 38.8028 2.478 38.834 2.50808 38.8627L2.57685 38.9315C2.63473 38.9901 2.70141 39.0359 2.77688 39.069L2.88941 39.1127C3.00422 39.1628 3.12299 39.1753 3.24572 39.1502L3.31449 39.1315C3.51668 39.0878 3.63962 38.9649 3.68331 38.7627L3.70206 38.6939C3.72714 38.5712 3.71463 38.4524 3.66455 38.3376L3.62079 38.2251C3.59504 38.1681 3.5617 38.116 3.52078 38.0688L3.48327 38.0188L3.48952 38.025C3.49947 38.0951 3.5203 38.1618 3.55203 38.2251L3.54578 38.1813C3.54374 38.1771 3.54166 38.173 3.53953 38.1688L3.53328 38.125C3.53417 38.1629 3.53833 38.2004 3.54578 38.2376V38.1876C3.54614 38.1751 3.54614 38.1626 3.54578 38.1501L3.53953 38.125L3.54578 38.0938C3.52787 38.1487 3.51745 38.2049 3.51452 38.2626L3.52703 38.2313C3.48193 38.2921 3.44859 38.3588 3.42701 38.4314L3.44576 38.4064C3.40358 38.4392 3.36608 38.4767 3.33324 38.5189L3.37075 38.4939C3.34005 38.5103 3.31088 38.529 3.28323 38.5501L3.32699 38.5251C3.26997 38.5386 3.21579 38.5594 3.16446 38.5876L3.21447 38.5751C3.22075 38.5731 3.227 38.5711 3.23322 38.5689L3.28323 38.5564C3.29376 38.5525 3.30418 38.5483 3.31449 38.5439L3.37075 38.5251C3.38548 38.5215 3.40007 38.5173 3.41451 38.5126L3.52703 38.4626L3.57704 38.4501L3.6458 38.4251L3.73957 38.4064C3.79744 38.3893 3.85161 38.3643 3.9021 38.3313L4.00212 38.2688C4.03832 38.2453 4.07166 38.2182 4.10214 38.1876L4.21466 38.0813C4.22998 38.0674 4.24457 38.0529 4.25842 38.0375L4.38969 37.8813C4.40558 37.8613 4.42016 37.8405 4.43345 37.8187L4.56472 37.6187C4.57367 37.6045 4.582 37.5899 4.58973 37.5749L4.721 37.3249C4.72769 37.3126 4.73394 37.3001 4.73976 37.2874L4.87728 36.9686C4.88411 36.9542 4.89036 36.9396 4.89604 36.9248L5.03981 36.5122C5.042 36.506 5.04408 36.4998 5.04607 36.4935L5.20235 35.9809C5.20239 35.9767 5.20239 35.9726 5.20235 35.9684L5.35863 35.437L5.5024 34.9432L5.62118 34.5681L5.70869 34.2868L5.78371 34.0743C5.78849 34.0599 5.79266 34.0453 5.79621 34.0305L5.83372 33.8742C5.84639 33.8293 5.85264 33.7834 5.85247 33.7367L5.84622 33.6179C5.84463 33.5435 5.82484 33.4742 5.78683 33.4101C5.74882 33.346 5.69752 33.2955 5.63292 33.2584C5.56832 33.2213 5.49877 33.2024 5.42428 33.2019C5.34978 33.2014 5.27997 33.2192 5.21485 33.2554ZM3.11445 38.9502L3.18321 39.0127C3.32491 39.1419 3.46035 39.1357 3.58954 38.994C3.71873 38.8523 3.71248 38.7168 3.57079 38.5876L3.50202 38.5251C3.36033 38.3959 3.22489 38.4022 3.09569 38.5439C2.9665 38.6856 2.97275 38.821 3.11445 38.9502Z" fill="black"/>
<path d="M2.66441 38.5377C2.66445 38.6498 2.70413 38.7456 2.78347 38.8249C2.8628 38.9042 2.95856 38.9438 3.07074 38.9438C3.18291 38.9438 3.27867 38.9042 3.358 38.8249C3.43734 38.7456 3.47702 38.6498 3.47706 38.5377C3.47703 38.4255 3.43734 38.3297 3.358 38.2504C3.27867 38.1711 3.18291 38.1315 3.07074 38.1315C2.95856 38.1315 2.8628 38.1711 2.78347 38.2504C2.70413 38.3297 2.66445 38.4255 2.66441 38.5377ZM2.62065 38.6002L2.6269 38.6314C2.63068 38.6768 2.6411 38.7205 2.65816 38.7627L2.68316 38.819C2.6993 38.8571 2.72014 38.8926 2.74567 38.9252L2.81444 39.019C2.83997 39.0518 2.86914 39.081 2.90195 39.1065L3.08324 39.2503C3.10118 39.264 3.11994 39.2765 3.1395 39.2878L3.45831 39.4816C3.48812 39.4993 3.51938 39.5139 3.55208 39.5253L4.01467 39.6941C4.04116 39.7029 4.06825 39.7092 4.09593 39.7129L4.49601 39.7754L4.80857 39.9379C4.97939 40.0253 5.10854 39.9836 5.19601 39.8128C5.28349 39.6421 5.24186 39.5129 5.07112 39.4253L4.76481 39.269L4.48976 38.969C4.47418 38.9531 4.45751 38.9386 4.43975 38.9252L4.05217 38.6189C4.03609 38.6076 4.01942 38.5971 4.00216 38.5877L3.68335 38.3876C3.67307 38.3831 3.66265 38.379 3.6521 38.3751L3.44581 38.2689C3.41783 38.2536 3.38866 38.2411 3.35829 38.2313L3.24577 38.2001C3.30298 38.2544 3.36966 38.2919 3.44581 38.3126L3.3958 38.2689C3.41765 38.3408 3.45515 38.4033 3.50832 38.4564L3.50207 38.4251C3.47206 38.3098 3.40657 38.2205 3.3056 38.1572C3.20464 38.0939 3.09571 38.0738 2.97882 38.097C2.86193 38.1202 2.76893 38.1804 2.69982 38.2775C2.63071 38.3746 2.60432 38.4821 2.62065 38.6002Z" fill="black"/>
<path d="M13.7291 2.87407L13.7166 2.84282C13.6986 2.79163 13.6715 2.74579 13.6354 2.70529L13.5791 2.64903L13.4853 2.51776C13.4833 2.51355 13.4812 2.50939 13.4791 2.50525L13.3416 2.32397L13.204 2.08642L13.054 1.80512C13.05 1.79877 13.0458 1.79252 13.0415 1.78637L12.8665 1.50506C12.8665 1.50298 12.8665 1.5009 12.8665 1.49881L12.7102 1.25502C12.6936 1.22839 12.6748 1.20338 12.6539 1.18L12.4914 0.992465L12.3726 0.86119L12.3226 0.792427L12.3101 0.773674V0.767422C12.2836 0.865357 12.2836 0.963293 12.3101 1.06123L12.3226 1.01747C12.1108 1.06994 11.9753 1.20122 11.9163 1.41129L11.9538 1.40504C11.8885 1.39776 11.8239 1.40193 11.76 1.41755L11.8038 1.4238C11.7412 1.38971 11.6745 1.36887 11.6037 1.36129H11.61L11.6412 1.39254C11.7681 1.5082 11.9128 1.53867 12.0755 1.48397C12.2382 1.42927 12.3352 1.31753 12.3664 1.14874L12.3851 1.04873C12.3883 1.03009 12.3904 1.01134 12.3914 0.992465L12.3976 0.929953C12.4076 0.795801 12.3721 0.674945 12.2914 0.567384L12.2664 0.529877C12.1436 0.362895 11.979 0.28788 11.7725 0.304834H11.735C11.4791 0.325517 11.3145 0.458876 11.2412 0.70491L11.2287 0.748669C11.1964 0.852253 11.1944 0.956439 11.2224 1.06123L11.2412 1.12999C11.258 1.18598 11.283 1.23808 11.3162 1.28627L11.3787 1.39254C11.3886 1.4055 11.399 1.418 11.4099 1.43005L11.5037 1.54882C11.5136 1.56178 11.524 1.57428 11.535 1.58633L11.6725 1.73636C11.6766 1.74059 11.6808 1.74476 11.685 1.74886L11.8538 1.92389L12.0476 2.11768L12.2413 2.35522L12.4476 2.60527L12.6414 2.83657L12.804 3.03035C12.808 3.03671 12.8121 3.04296 12.8165 3.04911L12.9415 3.19288C12.9515 3.20172 12.9619 3.21005 12.9727 3.21789L13.0477 3.2929C13.1134 3.35333 13.1905 3.38875 13.279 3.39917H13.3103C13.3783 3.40763 13.444 3.39893 13.5075 3.37308C13.571 3.34722 13.6241 3.30751 13.6668 3.25393C13.7095 3.20036 13.7364 3.13976 13.7475 3.07214C13.7586 3.00452 13.7525 2.93849 13.7291 2.87407ZM11.6975 1.26752L11.7225 1.41755C11.7517 1.59675 11.8559 1.67176 12.0351 1.64259C12.2143 1.61342 12.2893 1.50923 12.2601 1.33003L12.2351 1.18C12.2058 1.00092 12.1017 0.925964 11.9226 0.955119C11.7435 0.984273 11.6684 1.08841 11.6975 1.26752Z" fill="black"/>
</g>
<defs>
<clipPath id="clip0_1_7242">
<rect width="21" height="43" fill="white"/>
</clipPath>
</defs>
</svg>
