<svg width="26" height="34" viewBox="0 0 26 34" fill="none" xmlns="http://www.w3.org/2000/svg">
<g clip-path="url(#clip0_1_7419)">
<path d="M21.5226 27.9256L21.5289 28.0381C21.5296 28.057 21.5317 28.0758 21.5351 28.0944L21.5664 28.2694C21.5662 28.2757 21.5662 28.2819 21.5664 28.2882L21.6226 28.5382C21.6245 28.5466 21.6266 28.555 21.6289 28.5632L21.7102 28.8446L21.7789 29.1446C21.7833 29.166 21.7895 29.1868 21.7977 29.2071L21.8789 29.3947L21.8664 29.5697C21.854 29.7322 21.929 29.8197 22.0915 29.8322C22.254 29.8447 22.3415 29.7697 22.354 29.6072L22.3665 29.4197L22.4666 29.2196C22.4853 29.1778 22.4957 29.1341 22.4978 29.0883L22.5228 28.7695C22.5234 28.7422 22.5213 28.7152 22.5166 28.6883L22.4791 28.3882C22.4761 28.3692 22.472 28.3504 22.4666 28.332L22.3978 28.0819C22.388 28.0445 22.3735 28.0091 22.354 27.9756L22.2665 27.8256C22.2536 27.8055 22.239 27.7868 22.2228 27.7693L22.154 27.6818C22.045 27.549 21.9104 27.5135 21.7501 27.5754C21.5899 27.6373 21.514 27.754 21.5226 27.9256Z" fill="black"/>
<path d="M8.3514 0.982939C8.37834 1.18131 8.4919 1.2805 8.69209 1.2805C8.89229 1.2805 9.00585 1.18131 9.03278 0.982939C9.00585 0.784565 8.89229 0.685378 8.69209 0.685378C8.4919 0.685378 8.37834 0.784565 8.3514 0.982939ZM9.00778 0.820408V0.814157C9.01125 0.82689 9.01542 0.839393 9.02028 0.851664L9.01403 0.839161C8.95851 0.678973 8.84599 0.597708 8.67646 0.595365H8.65146C8.58656 0.595808 8.52613 0.612478 8.47018 0.645374L8.42642 0.670379C8.40622 0.683113 8.38747 0.697699 8.37016 0.714138L8.3139 0.764147C8.29806 0.777484 8.28347 0.79207 8.27014 0.807905L8.19512 0.895422C8.18581 0.909447 8.17747 0.924033 8.17012 0.93918L8.0826 1.08296C8.0574 1.1257 8.04073 1.17154 8.03259 1.22048L7.98883 1.44553C7.98061 1.49345 7.98061 1.54138 7.98883 1.5893L8.03259 1.86436C8.03899 1.89895 8.04941 1.93229 8.06385 1.96438L8.18887 2.24568C8.20571 2.2796 8.22655 2.31086 8.25138 2.33945L8.43892 2.57699C8.47421 2.61993 8.51588 2.65535 8.56394 2.68326L8.81399 2.83329C8.86467 2.86215 8.91885 2.88091 8.97652 2.88955L9.25157 2.93331C9.28677 2.93934 9.32219 2.94142 9.35784 2.93956L9.6329 2.92081C9.65823 2.9186 9.68323 2.91443 9.70791 2.90831L9.94546 2.8583C9.95175 2.85634 9.958 2.85425 9.96421 2.85204L10.1517 2.80204C10.2211 2.78161 10.2837 2.74827 10.3393 2.70202L10.4581 2.6145C10.5425 2.54688 10.6008 2.46145 10.6331 2.3582L10.6706 2.23943C10.6961 2.15964 10.7023 2.07837 10.6893 1.99563L10.6643 1.83935C10.6575 1.79397 10.645 1.75022 10.6268 1.70808L10.5518 1.53304C10.548 1.52249 10.5438 1.51207 10.5393 1.50179L10.433 1.2955C10.4236 1.27825 10.4131 1.26158 10.4018 1.24549L10.2705 1.04545C10.2608 1.03034 10.2504 1.01575 10.2393 1.00169L10.083 0.801654C10.0585 0.773781 10.0315 0.748776 10.0017 0.72664L9.82043 0.576611C9.78951 0.551913 9.75617 0.531075 9.72041 0.514099L9.53288 0.41408C9.47366 0.385045 9.41115 0.368375 9.34534 0.364071L9.17031 0.351569C8.97509 0.336203 8.82506 0.411218 8.72022 0.576611L8.65771 0.67663C8.57993 0.797193 8.56906 0.923514 8.62509 1.05559C8.68113 1.18767 8.77952 1.26764 8.92026 1.2955L9.03278 1.31425L9.11405 1.33301L9.17031 1.37051L9.27033 1.47678L9.3891 1.63306L9.49537 1.80184L9.58289 1.97063L9.62665 2.07065L9.63915 2.16441C9.66461 2.08463 9.67086 2.00336 9.6579 1.92062L9.62039 2.03939C9.68219 1.97728 9.72595 1.90435 9.75167 1.8206L9.69541 1.87686L9.6329 1.90811L9.50162 1.95187L9.31409 1.97063L9.17656 1.96438L9.07029 1.90811L8.95777 1.80184L8.8765 1.63306L8.83274 1.46428L8.82649 1.33301L8.84525 1.26424L8.8515 1.24549L8.8765 1.22048C8.84105 1.24024 8.80979 1.26525 8.78273 1.2955L8.82649 1.27049C8.76383 1.27203 8.70548 1.2887 8.65146 1.3205H8.67646C8.60534 1.21298 8.50532 1.1588 8.37641 1.15797L8.38266 1.17047C8.41902 1.22545 8.46695 1.26712 8.52644 1.2955H8.53269C8.68426 1.36789 8.81943 1.3447 8.9382 1.22592C9.05697 1.10715 9.08017 0.971979 9.00778 0.820408ZM8.68897 1.00169L8.67021 1.15797C8.64944 1.32045 8.72029 1.41211 8.88276 1.43294C9.04524 1.45377 9.13692 1.38295 9.15781 1.22048L9.17656 1.0642C9.1974 0.901673 9.12655 0.809989 8.96402 0.789152C8.80149 0.768315 8.7098 0.839161 8.68897 1.00169Z" fill="black"/>
<path d="M22.4351 22.6308C22.4351 22.8392 22.5393 22.9434 22.7477 22.9434C22.9561 22.9434 23.0602 22.8392 23.0602 22.6308C23.0602 22.4224 22.9561 22.3183 22.7477 22.3183C22.5393 22.3183 22.4351 22.4224 22.4351 22.6308ZM23.1165 22.5496L23.1103 22.5246C23.0898 22.3875 23.0169 22.2896 22.8915 22.2307L22.829 22.2057C22.7674 22.1776 22.7028 22.1651 22.6352 22.1682L22.4601 22.1745C22.4084 22.1766 22.3584 22.187 22.3101 22.2057L21.985 22.3308C21.9497 22.3459 21.9163 22.3646 21.885 22.387L21.4162 22.6996C21.3897 22.7163 21.3647 22.7351 21.3412 22.7558L20.7598 23.2997C20.7373 23.3211 20.7164 23.344 20.6973 23.3685L20.0784 24.1436C20.0626 24.1636 20.048 24.1844 20.0347 24.2061L19.4533 25.1438C19.4304 25.1814 19.4117 25.221 19.397 25.2626L19.0407 26.2628C19.0258 26.299 19.0154 26.3365 19.0095 26.3753L18.9157 27.2755L18.7094 27.9631C18.6785 28.1149 18.7371 28.2136 18.8852 28.2592C19.0333 28.3047 19.1372 28.256 19.197 28.1131L19.397 27.438L19.9096 26.7128L20.5098 25.8314C20.514 25.8273 20.5182 25.8232 20.5223 25.8189L21.1036 24.9125L21.6787 24.1624L22.1726 23.581L22.5414 23.2122L22.7602 23.0184L22.8602 22.9559L22.8915 22.9434C22.782 22.8891 22.6716 22.887 22.5602 22.9371L22.5852 22.9496C22.722 23.0149 22.851 23.0019 22.9721 22.9107C23.0932 22.8195 23.1414 22.6991 23.1165 22.5496Z" fill="black"/>
<path d="M21.7226 22.9497L21.6788 22.9684C21.6703 22.9723 21.662 22.9764 21.6538 22.9809L21.51 23.0559C21.4903 23.067 21.4715 23.0795 21.4538 23.0934L21.1724 23.306C21.1522 23.3233 21.1335 23.342 21.1162 23.3622L20.7161 23.7811C20.7004 23.7989 20.6858 23.8177 20.6724 23.8373L20.1973 24.4937C20.186 24.5099 20.1756 24.5265 20.166 24.5437L19.6659 25.4001C19.6591 25.4145 19.6529 25.4291 19.6472 25.4439L19.1783 26.3878C19.1691 26.4062 19.1608 26.4249 19.1533 26.4441L18.7845 27.4255C18.7749 27.448 18.7665 27.4709 18.7595 27.4943L18.5094 28.4695C18.5038 28.4942 18.4997 28.5192 18.4969 28.5445L18.3719 29.4822C18.3673 29.5153 18.3652 29.5487 18.3657 29.5822L18.3844 30.4511C18.3847 30.5106 18.393 30.5689 18.4094 30.6261L18.6282 31.3513C18.644 31.4026 18.6669 31.4505 18.697 31.495L19.047 32.0076C19.0615 32.0302 19.0782 32.0511 19.0971 32.0701L19.4409 32.3952L19.6909 32.6578C19.8035 32.7495 19.913 32.7459 20.0193 32.6469C20.1256 32.548 20.137 32.439 20.0535 32.3202L19.8472 32.0889L19.7347 31.7201L19.6722 31.1637V30.4386L19.6784 29.6134L19.7909 28.757L20.0222 27.8506L20.3598 26.9192L20.7724 25.994L21.2225 25.1501L21.6288 24.4687L21.9226 23.9749C21.9269 23.9687 21.9311 23.9624 21.9351 23.9561L22.0976 23.656C22.0997 23.654 22.1018 23.6519 22.1039 23.6498L22.1664 23.5248L22.1851 23.506C22.2945 23.3496 22.2881 23.1981 22.1661 23.0513C22.0441 22.9046 21.8963 22.8707 21.7226 22.9497Z" fill="black"/>
<path d="M19.0782 27.013L19.0282 27.0505C19.0024 27.0705 18.9795 27.0935 18.9594 27.1192L18.8594 27.2318C18.8573 27.2359 18.8552 27.2401 18.8532 27.2443L18.6844 27.463C18.6567 27.4976 18.6337 27.5351 18.6156 27.5756L18.4406 27.9694C18.4303 27.9959 18.422 28.023 18.4156 28.0507L18.2656 28.6008C18.2568 28.6336 18.2505 28.667 18.2468 28.7008L18.178 29.3634C18.1721 29.4176 18.1721 29.4718 18.178 29.5259L18.2531 30.2323C18.2581 30.2855 18.2685 30.3376 18.2843 30.3886L18.5094 31.0637C18.5241 31.1092 18.5429 31.153 18.5656 31.195L18.9094 31.8201C18.9312 31.8598 18.9562 31.8973 18.9845 31.9326L19.4158 32.4765C19.4475 32.5175 19.4829 32.555 19.5221 32.589L20.0222 33.0204C20.059 33.0533 20.0986 33.0824 20.1409 33.1079L20.691 33.4142C20.7443 33.4458 20.8006 33.4708 20.8598 33.4892L21.4037 33.6455C21.471 33.6651 21.5398 33.6755 21.61 33.6767L22.1288 33.683C22.2029 33.6849 22.2758 33.6766 22.3476 33.658L22.8289 33.5267C22.8925 33.5092 22.9529 33.4842 23.0102 33.4517L23.429 33.2141C23.4782 33.1877 23.524 33.1565 23.5666 33.1204L23.9229 32.8016C23.962 32.7675 23.9974 32.73 24.0292 32.689L24.323 32.3015C24.3547 32.2584 24.3818 32.2125 24.4042 32.1639L24.6293 31.7014C24.6492 31.6631 24.6658 31.6235 24.6793 31.5826L24.8356 31.0512C24.8442 31.0162 24.8505 30.9808 24.8543 30.945L24.9481 30.3386C24.9535 30.3138 24.9576 30.2888 24.9606 30.2636L24.9918 29.6197C24.9942 29.5843 24.9942 29.5489 24.9918 29.5134L24.9418 28.8571C24.9393 28.8277 24.9351 28.7985 24.9293 28.7695L24.8043 28.1069C24.7993 28.0816 24.793 28.0566 24.7856 28.0319L24.5918 27.363C24.5898 27.3547 24.5877 27.3463 24.5855 27.338L24.3667 26.6816C24.3648 26.6712 24.3628 26.6608 24.3605 26.6504L24.1167 26.0065C24.1128 25.9939 24.1086 25.9814 24.1042 25.969L23.8354 25.3439C23.8314 25.3334 23.8273 25.323 23.8229 25.3126L23.5416 24.7125C23.5375 24.7041 23.5334 24.6958 23.5291 24.6875L23.254 24.1562C23.25 24.1478 23.2458 24.1394 23.2415 24.1312L22.9915 23.6936L22.8414 23.3935L22.8039 23.2747L22.8164 23.1185C22.8166 23.1081 22.8166 23.0976 22.8164 23.0872L22.8227 22.8184C22.831 22.5698 22.7294 22.3801 22.5178 22.2493C22.3063 22.1185 22.0912 22.1123 21.8725 22.2308L21.6412 22.3558C21.4007 22.4826 21.2611 22.6806 21.2224 22.9497L21.1849 23.2497C21.1698 23.3573 21.1761 23.4635 21.2036 23.5686L21.2911 23.9061C21.3046 23.9601 21.3233 24.0122 21.3474 24.0624L21.5412 24.4437C21.5451 24.4542 21.5493 24.4646 21.5537 24.475L21.7975 24.9188L22.0663 25.4314L22.3413 26.0003L22.5976 26.5941L22.8352 27.2067L23.0477 27.8381L23.2415 28.457L23.3603 29.0383L23.4103 29.5885L23.379 30.1323L23.2978 30.6512L23.1728 31.07L23.0102 31.4013L22.8102 31.6701L22.5726 31.8826L22.3163 32.0264L22.035 32.1077L21.735 32.1014L21.3912 32.0014L20.9973 31.7764L20.6035 31.4388L20.2472 31.0012L19.9659 30.4949L19.7721 29.9385L19.6533 29.3322L19.5846 28.732L19.5783 28.2257L19.6096 27.8194C19.6097 27.8131 19.6097 27.8069 19.6096 27.8006L19.6158 27.5631L19.6408 27.463C19.6408 27.461 19.6408 27.4589 19.6408 27.4568L19.6596 27.3943C19.7009 27.2255 19.6489 27.0935 19.5036 26.9983C19.3583 26.903 19.2166 26.9079 19.0782 27.013ZM22.5289 22.8309L22.7664 22.7059C22.891 22.6197 22.918 22.5095 22.8472 22.3755C22.7765 22.2415 22.6704 22.2016 22.5289 22.2558L22.2913 22.3808C22.1667 22.4671 22.1398 22.5772 22.2105 22.7112C22.2813 22.8452 22.3874 22.8851 22.5289 22.8309Z" fill="black"/>
<path d="M21.6725 23.7185C21.6725 23.8221 21.7091 23.9105 21.7824 23.9837C21.8556 24.057 21.944 24.0936 22.0476 24.0936C22.1512 24.0936 22.2396 24.057 22.3128 23.9837C22.386 23.9105 22.4227 23.8221 22.4227 23.7185C22.4227 23.615 22.386 23.5266 22.3128 23.4533C22.2396 23.3801 22.1512 23.3435 22.0476 23.3435C21.944 23.3435 21.8556 23.3801 21.7824 23.4533C21.7091 23.5266 21.6725 23.615 21.6725 23.7185ZM21.7038 23.5497L21.6788 23.5935L21.6162 23.7123C21.6063 23.7325 21.598 23.7533 21.5912 23.7748L21.5287 23.9748C21.524 23.9872 21.5199 23.9997 21.5162 24.0123L21.46 24.2436C21.454 24.2662 21.4499 24.2892 21.4475 24.3124L21.4287 24.5312C21.4264 24.5669 21.4285 24.6023 21.435 24.6375L21.4662 24.825C21.4704 24.8485 21.4767 24.8714 21.485 24.8938L21.535 25.0438C21.5469 25.0795 21.5635 25.1129 21.585 25.1438L21.66 25.2438C21.6935 25.2904 21.7352 25.3279 21.785 25.3563L21.8475 25.3938C22.0239 25.4954 22.1843 25.4746 22.3289 25.3313L22.3851 25.2751C22.4311 25.2311 22.4645 25.179 22.4852 25.1188L22.5289 24.9875C22.5352 24.965 22.5393 24.9421 22.5414 24.9188L22.5602 24.7875C22.5757 24.6822 22.5517 24.5869 22.4882 24.5015C22.4247 24.4161 22.3404 24.3656 22.2351 24.3501C22.1298 24.3346 22.0345 24.3585 21.949 24.4219C21.8636 24.4854 21.8131 24.5697 21.7975 24.675L21.785 24.7562L21.7538 24.825C21.7996 24.7872 21.835 24.7413 21.86 24.6875L21.7975 24.7437C21.9373 24.7912 22.0644 24.7682 22.1789 24.675L22.1038 24.65C22.153 24.7187 22.2176 24.7666 22.2976 24.7937L22.2664 24.75L22.2789 24.6687L22.3414 24.4874C22.3438 24.4771 22.3459 24.4667 22.3476 24.4562L22.4039 24.2249C22.4039 24.2228 22.4039 24.2207 22.4039 24.2186L22.4539 24.0061C22.4632 23.9606 22.4653 23.9147 22.4602 23.8686L22.4477 23.731C22.4445 23.7141 22.4404 23.6974 22.4352 23.681L22.4227 23.6248C22.3762 23.454 22.2649 23.3594 22.0889 23.341C21.9129 23.3227 21.7845 23.3922 21.7038 23.5497ZM22.3976 24.5499L22.3726 24.4812C22.3014 24.3538 22.1973 24.3153 22.0603 24.3658C21.9234 24.4162 21.8691 24.513 21.8976 24.6562L21.9226 24.725C21.9938 24.8524 22.0979 24.8909 22.2349 24.8404C22.3718 24.7899 22.4261 24.6931 22.3976 24.5499Z" fill="black"/>
<path d="M9.80166 2.12071C9.80166 2.2191 9.83644 2.30309 9.90602 2.37266C9.97559 2.44224 10.0596 2.47702 10.158 2.47702C10.2564 2.47702 10.3404 2.44224 10.4099 2.37266C10.4795 2.30309 10.5143 2.2191 10.5143 2.12071C10.5143 2.02231 10.4795 1.93833 10.4099 1.86875C10.3404 1.79918 10.2564 1.76439 10.158 1.76439C10.0596 1.76439 9.97559 1.79918 9.90602 1.86875C9.83644 1.93833 9.80166 2.02231 9.80166 2.12071ZM10.4768 1.95192L10.4393 1.88316C10.4241 1.85358 10.4054 1.82649 10.383 1.8019L10.2642 1.67687C10.2372 1.64488 10.206 1.61779 10.1705 1.59561L9.91418 1.45183C9.87879 1.43178 9.84129 1.41719 9.80166 1.40807L9.40158 1.3143C9.36021 1.30611 9.31854 1.30402 9.27656 1.30805L8.68269 1.33931C8.6531 1.34056 8.62393 1.34472 8.59518 1.35181L7.78252 1.5706C7.75895 1.57714 7.73603 1.58548 7.71376 1.59561L6.73232 2.03944C6.70841 2.05012 6.68548 2.06262 6.66356 2.07695L5.5696 2.78333C5.55215 2.79479 5.53548 2.80729 5.51959 2.82084L4.37562 3.76477C4.36475 3.77473 4.35433 3.78515 4.34437 3.79603L3.19415 4.93999C3.17832 4.95778 3.16373 4.97653 3.15039 4.99625L2.1627 6.29025C2.14639 6.31208 2.13181 6.335 2.11894 6.35901L1.3813 7.69052C1.36408 7.71837 1.3495 7.74754 1.33754 7.77803L0.906213 9.06578C0.893432 9.10443 0.885097 9.14402 0.881208 9.18455L0.762435 10.3848C0.758122 10.433 0.760205 10.4809 0.768687 10.5286L0.956222 11.66C0.962194 11.7008 0.972612 11.7404 0.987478 11.7788L1.40006 12.7915C1.41492 12.829 1.43367 12.8644 1.45632 12.8978L2.07519 13.8042C2.09379 13.831 2.11463 13.856 2.1377 13.8792L2.92535 14.6731C2.94854 14.6961 2.97354 14.7169 3.00036 14.7356L3.90678 15.3732C3.93446 15.3925 3.96363 15.4092 3.9943 15.4232L5.05075 15.9108C5.08291 15.9265 5.11625 15.939 5.15077 15.9483L6.3635 16.2546C6.38823 16.2605 6.41323 16.2646 6.43852 16.2671L7.79502 16.4234C7.80961 16.424 7.8242 16.424 7.83878 16.4234L9.30781 16.4734C9.31615 16.4736 9.32448 16.4736 9.33282 16.4734L10.8831 16.4484C10.8873 16.4485 10.8914 16.4485 10.8956 16.4484L12.4834 16.4047L14.0275 16.4172L15.434 16.561L16.653 16.861L17.6969 17.3299L18.5783 17.9425L19.3347 18.7114L19.9786 19.624L20.4599 20.643L20.7787 21.6932L20.9538 22.6746L21.0163 23.556C21.0182 23.5644 21.0203 23.5728 21.0225 23.581L21.1101 24.3249L21.1538 24.9188C21.1537 24.925 21.1537 24.9313 21.1538 24.9376L21.1976 25.3189L21.1413 25.5439C21.1043 25.7062 21.1668 25.806 21.329 25.8434C21.4911 25.8808 21.5911 25.8185 21.6289 25.6564L21.6852 25.4126L21.8477 25.0438C21.8549 25.0296 21.8611 25.0151 21.8665 25.0001L22.0415 24.4187C22.0465 24.4023 22.0507 24.3856 22.054 24.3687L22.1978 23.6185C22.2052 23.573 22.2073 23.5271 22.204 23.481L22.1603 22.5683C22.1574 22.5452 22.1532 22.5223 22.1478 22.4996L21.9727 21.4494C21.9683 21.4219 21.9621 21.3948 21.954 21.3681L21.5914 20.2429C21.5832 20.2129 21.5728 20.1838 21.5601 20.1554L21.01 19.0677C20.9973 19.0416 20.9827 19.0166 20.9663 18.9927L20.2599 17.9987C20.2409 17.9741 20.2201 17.9512 20.1974 17.93L19.366 17.0861C19.3413 17.0585 19.3142 17.0335 19.2847 17.011L18.3158 16.3422C18.2861 16.3226 18.2548 16.306 18.222 16.2922L17.0843 15.7796C17.0519 15.7661 17.0186 15.7557 16.9843 15.7483L15.6715 15.4232C15.6447 15.4172 15.6176 15.413 15.5903 15.4107L14.115 15.267C14.0962 15.266 14.0775 15.266 14.0587 15.267L12.4772 15.2545C12.473 15.2544 12.4688 15.2544 12.4647 15.2545L10.8644 15.2982L9.33282 15.3107L7.89504 15.2732L6.60105 15.1357L5.47583 14.8481L4.51315 14.4168L3.68174 13.8479L2.9566 13.1353L2.394 12.3226L2.02518 11.4225L1.85639 10.4223L1.96266 9.35333L2.35649 8.17186L3.05037 6.91537L3.98805 5.66513L5.05075 4.52116L6.13846 3.60224L7.18241 2.91461L8.08883 2.45202L8.79521 2.21447L9.28281 2.17697L9.59537 2.22698L9.78915 2.30824L9.88917 2.3645L9.92043 2.39576C10.0721 2.52472 10.2258 2.52712 10.3814 2.40296C10.537 2.27881 10.5688 2.12846 10.4768 1.95192Z" fill="black"/>
<path d="M8.23269 1.76435C8.23269 1.86274 8.26747 1.94673 8.33705 2.0163C8.40662 2.08588 8.49061 2.12066 8.589 2.12066C8.6874 2.12066 8.77138 2.08588 8.84096 2.0163C8.91053 1.94673 8.94532 1.86274 8.94532 1.76435C8.94532 1.66595 8.91053 1.58197 8.84096 1.51239C8.77138 1.44282 8.6874 1.40803 8.589 1.40803C8.49061 1.40803 8.40662 1.44282 8.33705 1.51239C8.26747 1.58197 8.23269 1.66595 8.23269 1.76435ZM8.20768 1.76435C8.20768 1.86792 8.2443 1.95632 8.31754 2.02956C8.39077 2.1028 8.47918 2.13942 8.58275 2.13942C8.68633 2.13942 8.77473 2.1028 8.84797 2.02956C8.92121 1.95632 8.95782 1.86792 8.95782 1.76435C8.95782 1.66077 8.92121 1.57237 8.84797 1.49913C8.77473 1.42589 8.68633 1.38927 8.58275 1.38927C8.47918 1.38927 8.39077 1.42589 8.31754 1.49913C8.2443 1.57237 8.20768 1.66077 8.20768 1.76435ZM8.52649 2.15192L8.564 2.15817C8.58468 2.16182 8.60552 2.16391 8.62651 2.16442H8.68277H8.69527L8.74528 2.19568L8.88906 2.34571L9.12036 2.60826C9.13781 2.62831 9.15656 2.64706 9.17662 2.66452L9.52668 2.95832C9.54843 2.9766 9.57135 2.99327 9.59545 3.00833L10.0705 3.29589C10.0848 3.30481 10.0994 3.31315 10.1143 3.32089L10.6957 3.6147C10.706 3.61914 10.7164 3.62331 10.7269 3.6272L11.3895 3.92101C11.3958 3.92319 11.402 3.92527 11.4083 3.92726L12.1459 4.22106C12.1522 4.22324 12.1584 4.22533 12.1647 4.22731L12.9711 4.52112L13.8588 4.84618L14.8339 5.215L15.9279 5.64008L17.1156 6.13393L18.3346 6.69028L19.3973 7.20288L20.3787 7.75299L21.3164 8.41561L22.1791 9.21576L22.923 10.1722L23.5231 11.2849L23.9607 12.5351L24.2045 13.9479L24.242 15.492L24.067 17.111L23.7106 18.7176L23.2355 20.1991L22.7229 21.4431L22.2229 22.3933C22.2084 22.4216 22.1959 22.4508 22.1853 22.4808L21.929 23.1747C21.9173 23.2071 21.9089 23.2405 21.904 23.2747L21.8665 23.5185L21.7728 23.5622C21.6602 23.6367 21.6333 23.7346 21.6922 23.8561C21.7511 23.9775 21.8446 24.0171 21.9728 23.9748L22.1416 23.8936L22.4666 23.8436C22.557 23.8324 22.6383 23.7991 22.7104 23.7435L23.2918 23.2809C23.3577 23.2262 23.4119 23.1616 23.4543 23.0872L24.0294 22.137C24.0434 22.1127 24.0559 22.0877 24.067 22.062L24.6483 20.7742C24.6601 20.7498 24.6705 20.7248 24.6796 20.6992L25.1859 19.1552C25.1932 19.1325 25.1995 19.1096 25.2047 19.0864L25.5797 17.4048C25.5856 17.3759 25.5898 17.3467 25.5922 17.3173L25.7735 15.6045C25.7784 15.5671 25.7804 15.5296 25.7798 15.492L25.7173 13.8416C25.7162 13.8017 25.7121 13.7621 25.7048 13.7229L25.3922 12.2038C25.3831 12.1632 25.3706 12.1236 25.3547 12.0851L24.8296 10.7411C24.8159 10.7042 24.7992 10.6688 24.7796 10.6348L24.0732 9.45331C24.0567 9.42269 24.038 9.39352 24.0169 9.36579L23.1793 8.34685C23.1583 8.32008 23.1354 8.29508 23.1105 8.27184L22.1603 7.42792C22.1407 7.40782 22.1199 7.38907 22.0978 7.37166L21.0851 6.68403C21.0689 6.67284 21.0523 6.66242 21.0351 6.65278L20.0037 6.07767C19.9934 6.07112 19.983 6.06487 19.9724 6.05891L18.891 5.53381C18.8847 5.53163 18.8785 5.52955 18.8722 5.52756L17.6407 4.96496C17.6325 4.96061 17.6241 4.95644 17.6157 4.95245L16.4092 4.45236C16.4051 4.45023 16.4009 4.44814 16.3967 4.44611L15.2965 4.02728C15.2924 4.02515 15.2882 4.02306 15.284 4.02103L14.2963 3.65846L13.4087 3.33339L12.6085 3.03959L11.8834 2.75203L11.2395 2.47698L10.6769 2.20818L10.2143 1.95813L9.84549 1.73934L9.54544 1.55181C9.53524 1.54519 9.52482 1.53894 9.51418 1.53305L9.28289 1.40803C9.25094 1.3918 9.2176 1.3793 9.18287 1.37052L8.98908 1.32051C8.95034 1.30885 8.91075 1.3026 8.87031 1.30176H8.72653C8.68606 1.30244 8.64647 1.30869 8.60776 1.32051L8.51399 1.34552C8.45551 1.36329 8.40342 1.39246 8.35771 1.43303L8.32645 1.45804C8.20062 1.56973 8.16101 1.70641 8.20762 1.86807C8.25422 2.02974 8.36051 2.12436 8.52649 2.15192Z" fill="black"/>
</g>
<defs>
<clipPath id="clip0_1_7419">
<rect width="26" height="34" fill="white"/>
</clipPath>
</defs>
</svg>
