<svg width="36" height="30" viewBox="0 0 36 30" fill="none" xmlns="http://www.w3.org/2000/svg">
<g clip-path="url(#clip0_1_7358)">
<path d="M24.6661 1.78883L24.5598 1.75132C24.5557 1.7491 24.5516 1.74701 24.5473 1.74507L24.2785 1.66381L23.8535 1.54504C23.8514 1.545 23.8493 1.545 23.8472 1.54504L23.2596 1.40751C23.2555 1.40529 23.2513 1.4032 23.2471 1.40126L22.5032 1.26373C22.5012 1.26161 22.4991 1.25952 22.497 1.25748L21.5655 1.10745C21.5593 1.10724 21.553 1.10724 21.5468 1.10745L20.4966 1.00118C20.4924 1.0011 20.4882 1.0011 20.4841 1.00118L19.2901 0.926168C19.2818 0.925885 19.2734 0.925885 19.2651 0.926168L17.9836 0.913665C17.9731 0.915364 17.9627 0.917447 17.9523 0.919916L16.5958 1.01994C16.5811 1.02135 16.5666 1.02343 16.5521 1.02619L15.1893 1.26373C15.1724 1.26708 15.1558 1.27125 15.1393 1.27623L13.8078 1.63255C13.7909 1.63595 13.7743 1.64011 13.7578 1.64505L12.4013 2.1389C12.3821 2.14629 12.3634 2.15462 12.345 2.1639L10.951 2.85153C10.934 2.85915 10.9173 2.86749 10.901 2.87654L9.47572 3.7392C9.46295 3.74713 9.45044 3.75546 9.43822 3.76421L7.98169 4.7894C7.96883 4.7994 7.95633 4.80982 7.94418 4.82066L6.51266 5.98338C6.49759 5.99532 6.48301 6.00782 6.4689 6.02089L5.13115 7.28363C5.1137 7.29952 5.09703 7.31619 5.08114 7.33364L3.91216 8.65264C3.89443 8.67262 3.87776 8.69346 3.86215 8.71515L2.86822 10.0904C2.85226 10.1146 2.83767 10.1396 2.82446 10.1654L2.01805 11.5844C2.00171 11.6127 1.98712 11.6419 1.9743 11.672L1.36168 13.1347C1.3496 13.1633 1.33918 13.1925 1.33042 13.2223L0.886588 14.71C0.876182 14.7429 0.867847 14.7762 0.861583 14.8101L0.617787 16.3103C0.610811 16.3496 0.606644 16.3892 0.605285 16.4291L0.58028 17.9107C0.57793 17.9608 0.580014 18.0109 0.586531 18.0607L0.811574 19.4985C0.82033 19.5453 0.832833 19.5912 0.849081 19.636L1.31167 21.03C1.32862 21.0776 1.34946 21.1234 1.37418 21.1675L2.10557 22.5178C2.12577 22.5569 2.1487 22.5945 2.17433 22.6303L3.15577 23.9243C3.18052 23.9595 3.2076 23.9929 3.23704 24.0243L4.46852 25.262C4.49794 25.2913 4.5292 25.3183 4.56229 25.3433L6.04382 26.4748C6.07175 26.4974 6.10093 26.5182 6.13134 26.5373L7.82541 27.5437C7.85379 27.5599 7.88296 27.5745 7.91293 27.5875L9.78828 28.4377C9.82088 28.4521 9.85422 28.4646 9.8883 28.4752L11.9137 29.119C11.9446 29.127 11.9759 29.1332 12.0075 29.1378L14.1641 29.5754C14.1889 29.5806 14.2139 29.5848 14.2391 29.5879L16.4771 29.8379C16.502 29.8411 16.527 29.8431 16.5521 29.8442L18.8087 29.9067C18.8275 29.9073 18.8463 29.9073 18.865 29.9067L21.0779 29.8317C21.103 29.8306 21.128 29.8285 21.1529 29.8254L23.2846 29.5754C23.3119 29.5724 23.339 29.5683 23.3659 29.5629L25.4038 29.1503C25.4334 29.1435 25.4625 29.1351 25.4913 29.1253L27.3916 28.5314C27.4236 28.5207 27.4549 28.5082 27.4854 28.4939L29.1982 27.7188C29.237 27.7026 29.2746 27.6839 29.3107 27.6625L30.8173 26.7186C30.8619 26.6889 30.9036 26.6556 30.9423 26.6186L32.2176 25.4558C32.2538 25.4231 32.2871 25.3877 32.3176 25.3496L33.4053 23.9618C33.4331 23.9262 33.4582 23.8887 33.4803 23.8493L34.3867 22.2302C34.4058 22.1959 34.4225 22.1605 34.4367 22.124L35.1494 20.3049C35.1627 20.266 35.1731 20.2264 35.1806 20.1861L35.6307 18.2545C35.6405 18.2112 35.6468 18.1675 35.6495 18.1232L35.787 16.1353C35.7907 16.0916 35.7907 16.0478 35.787 16.004L35.5682 14.0287C35.5649 13.9907 35.5586 13.9532 35.5494 13.9161L35.0243 12.0158C35.0145 11.9814 35.002 11.9481 34.9868 11.9158L34.1554 10.1092C34.1447 10.0833 34.1322 10.0583 34.1179 10.0342L33.0302 8.34633C33.0189 8.32675 33.0064 8.308 32.9927 8.29007L31.6674 6.74603C31.6557 6.73277 31.6432 6.72027 31.6299 6.70852L30.1046 5.302C30.0967 5.2933 30.0883 5.28496 30.0796 5.277L28.4043 4.01426C28.3942 4.00751 28.3838 4.00126 28.3731 3.9955L26.5915 2.88904C26.5812 2.88444 26.5708 2.88027 26.5602 2.87654L24.7161 1.93261C24.7019 1.92559 24.6873 1.91933 24.6724 1.91386L22.7407 1.18247C22.7183 1.1746 22.6953 1.16835 22.672 1.16371L20.6904 0.707376C20.6533 0.698767 20.6158 0.694599 20.5778 0.694873L18.64 0.682371L17.0397 0.532343C16.9064 0.519953 16.8335 0.580386 16.821 0.713642C16.8085 0.846898 16.8689 0.919823 17.0022 0.932419L18.59 1.08245L20.4403 1.6388C20.4465 1.64102 20.4528 1.6431 20.4591 1.64505L22.4219 2.14515L24.3473 2.76402L26.1914 3.58917L27.948 4.65188L29.5733 5.89586L30.9923 7.32114L32.1613 8.90269L33.0865 10.5968L33.7491 12.3721L34.1304 14.2037L34.2304 16.0665L34.0304 17.9169L33.5616 19.7297L32.8552 21.4176L31.9738 22.9116L30.9611 24.1681L29.7733 25.212L28.3918 26.1122L26.804 26.8499L25.0037 27.4125L23.0471 27.8L20.9779 28.0313L18.8338 28.1188L16.6396 28.0438L14.4767 27.8063L12.4075 27.3937L10.4822 26.7811L8.70683 25.9684L7.11277 25.0058L5.73126 23.9243L4.58104 22.7678L3.66837 21.5738L2.97449 20.3611L2.51815 19.1296L2.2806 17.8544L2.29311 16.5166L2.50565 15.1226L2.89322 13.7224L3.46208 12.3283L4.18722 10.9656L5.11239 9.65283L6.2126 8.36508L7.48784 7.11485L8.84435 5.93337L10.2321 4.88942L11.5761 3.98925L12.8889 3.26411L14.1516 2.69525L15.4206 2.28893L16.7271 1.97012L18.0336 1.77008L19.2901 1.66381L20.4653 1.6138L21.5093 1.65131L22.4344 1.72007L23.1721 1.82634L23.7534 1.94511L24.166 2.05138L24.4286 2.1264L24.5286 2.1639C24.6494 2.20091 24.7315 2.16011 24.775 2.0415C24.8185 1.9229 24.7822 1.83868 24.6661 1.78883Z" fill="black"/>
<path d="M18.7524 4.00799H18.7212C18.7149 4.0077 18.7087 4.0077 18.7024 4.00799L18.6274 4.01424C18.6147 4.01513 18.6022 4.01722 18.5899 4.02049L18.4774 4.05175C18.4621 4.05631 18.4475 4.06256 18.4336 4.0705L18.3024 4.14552C18.289 4.15256 18.2765 4.16089 18.2648 4.17052L18.1273 4.2893C18.1045 4.30892 18.0858 4.33184 18.0711 4.35806L17.9585 4.54559C17.9395 4.58291 17.929 4.6225 17.9273 4.66437L17.9085 4.90191C17.9028 4.94661 17.907 4.99037 17.921 5.03319L18.0148 5.28323C18.033 5.32718 18.0601 5.36469 18.0961 5.39576L18.3211 5.60205C18.3488 5.62672 18.3801 5.64547 18.4149 5.65831L18.7774 5.78333C18.8016 5.79305 18.8266 5.7993 18.8525 5.80208L19.3025 5.83334C19.3192 5.83486 19.3359 5.83486 19.3526 5.83334L19.8276 5.77708C19.8426 5.77418 19.8572 5.77001 19.8714 5.76458L20.309 5.6333C20.3242 5.62841 20.3387 5.62216 20.3527 5.61455L20.7091 5.42701C20.727 5.41857 20.7436 5.40815 20.7591 5.39576L21.0216 5.16446C21.0413 5.14838 21.058 5.12963 21.0716 5.1082L21.2217 4.8519C21.2398 4.82099 21.2503 4.78765 21.2529 4.75188L21.2779 4.47058C21.2812 4.43148 21.275 4.39397 21.2592 4.35806L21.1404 4.08301C21.1287 4.05469 21.112 4.02968 21.0904 4.00799L20.8341 3.75794C20.8152 3.74221 20.7944 3.7297 20.7716 3.72044L20.4028 3.5329C20.3888 3.52526 20.3742 3.519 20.359 3.51415L19.9214 3.39538C19.9052 3.38956 19.8885 3.3854 19.8714 3.38287L19.4026 3.35162C19.3859 3.35006 19.3692 3.35006 19.3526 3.35162L18.915 3.40788C18.8936 3.40961 18.8728 3.41378 18.8525 3.42038L18.4899 3.55791C18.4622 3.56797 18.4372 3.58255 18.4149 3.60166L18.2023 3.7892C18.1957 3.79504 18.1894 3.80129 18.1836 3.80795L18.0523 3.95798C18.0359 3.9765 18.0234 3.99734 18.0148 4.02049L17.9648 4.15177C17.9278 4.27255 17.9686 4.35469 18.0872 4.39818C18.2058 4.44167 18.29 4.40537 18.3399 4.2893L18.3774 4.19553L18.4524 4.10176L18.6524 4.01424L18.99 3.94548L19.3963 3.88922L19.8151 3.90797L20.209 3.99549L20.534 4.13927L20.7341 4.3143L20.8091 4.48933L20.7966 4.65186L20.6841 4.82065L20.4653 4.99568L20.1465 5.14571L19.7526 5.25198L19.3275 5.28949L18.94 5.24573L18.6774 5.13946L18.5524 5.00818L18.4961 4.87066V4.72063L18.5274 4.57685L18.5837 4.48308L18.6399 4.43307L18.6899 4.41432L18.7274 4.40807H18.7524C18.8858 4.40807 18.9525 4.34139 18.9525 4.20803C18.9525 4.07467 18.8858 4.00799 18.7524 4.00799Z" fill="black"/>
<path d="M18.515 3.83923H18.5087C18.4732 3.83867 18.4398 3.84701 18.4087 3.86423L18.39 3.87674C18.3657 3.88915 18.3449 3.90582 18.3275 3.92675L18.2774 3.99551C18.2703 4.0054 18.2641 4.01582 18.2587 4.02676L18.1774 4.1893C18.1725 4.19943 18.1684 4.20984 18.1649 4.22055L18.0712 4.51436C18.066 4.52655 18.0619 4.53905 18.0587 4.55186L17.9961 4.93944C17.9942 4.95819 17.9942 4.97695 17.9961 4.9957L18.0149 5.40828C18.0165 5.41673 18.0186 5.42506 18.0211 5.43328L18.0774 5.81461C18.0773 5.81669 18.0773 5.81877 18.0774 5.82086L18.1337 6.13342C18.1356 6.13766 18.1377 6.14182 18.1399 6.14592L18.1962 6.36471C18.2296 6.49376 18.3108 6.54163 18.4399 6.50832C18.569 6.47501 18.617 6.3938 18.5838 6.26469L18.5275 6.05215L18.4775 5.77085L18.49 5.41453L18.5337 5.01445L18.5838 4.63313L18.6338 4.33932L18.665 4.17679L18.6838 4.10803C18.649 4.13581 18.6261 4.17123 18.615 4.2143L18.6275 4.19555C18.5831 4.19693 18.5435 4.21152 18.5087 4.23931H18.515C18.6483 4.23931 18.715 4.17263 18.715 4.03927C18.715 3.90591 18.6483 3.83923 18.515 3.83923Z" fill="black"/>
<path d="M18.1211 4.92689V4.93314C18.1219 4.92272 18.1219 4.9123 18.1211 4.90189L18.1148 4.93939L18.1023 5.02691C18.1023 5.02899 18.1023 5.03108 18.1023 5.03316L18.0773 5.18319C18.0768 5.19152 18.0768 5.19986 18.0773 5.20819L18.0648 5.41448C18.0662 5.43589 18.0703 5.45672 18.0773 5.477L18.1336 5.70204C18.1398 5.7288 18.1502 5.75381 18.1648 5.77705L18.2961 5.97084C18.3103 5.98995 18.327 6.00662 18.3461 6.02085L18.5462 6.17713C18.5689 6.19411 18.5939 6.20662 18.6212 6.21464L18.8712 6.28965C18.8895 6.29617 18.9082 6.30034 18.9275 6.30215L19.2275 6.31465C19.24 6.31573 19.2525 6.31573 19.265 6.31465L19.5839 6.27715C19.5859 6.27721 19.588 6.27721 19.5901 6.27715L19.8839 6.23339C19.8882 6.23145 19.8923 6.22937 19.8964 6.22714L20.1277 6.17713C20.2395 6.13767 20.2824 6.0601 20.2563 5.94443C20.2301 5.82877 20.1581 5.77714 20.0402 5.78955L19.8152 5.83331L19.5464 5.87707H19.2525L18.99 5.84582L18.8087 5.7833L18.6774 5.67078L18.5837 5.53326L18.5337 5.37072L18.5149 5.19569L18.5087 5.06442L18.5149 4.99565L18.5212 4.9644C18.522 4.95398 18.522 4.94356 18.5212 4.93314V4.92689C18.5212 4.79353 18.4545 4.72685 18.3211 4.72685C18.1878 4.72685 18.1211 4.79353 18.1211 4.92689Z" fill="black"/>
<path d="M21.3342 4.76439V4.75814C21.3343 4.7412 21.3322 4.72453 21.328 4.70813L21.3217 4.68312C21.3157 4.6582 21.3053 4.63528 21.2905 4.61436L21.2717 4.58936C21.2562 4.56909 21.2374 4.55242 21.2155 4.53935L21.1905 4.52684C21.1175 4.48123 21.0446 4.48123 20.9717 4.52684L20.9279 4.55185C20.8898 4.57884 20.8627 4.61426 20.8467 4.65812L20.8029 4.76439C20.7973 4.77857 20.7932 4.79316 20.7904 4.80815L20.7591 4.97693C20.7561 4.98927 20.754 5.00177 20.7529 5.01444L20.7466 5.21447C20.7457 5.22698 20.7457 5.23948 20.7466 5.25198L20.7779 5.45202C20.7776 5.45827 20.7776 5.46452 20.7779 5.47077L20.8091 5.62705C20.8109 5.6334 20.813 5.63965 20.8154 5.64581L20.8529 5.75833C20.8528 5.7625 20.8528 5.76666 20.8529 5.77083L20.8779 5.82709C20.9273 5.95761 21.0169 5.9972 21.1467 5.94586L21.1655 5.93961C21.2123 5.92131 21.2477 5.89006 21.2717 5.84584L21.2842 5.82084C21.312 5.77133 21.3182 5.71923 21.303 5.66456L21.2967 5.64581C21.2732 5.56698 21.2216 5.51727 21.1419 5.49667C21.0622 5.47607 20.993 5.49452 20.9342 5.55204L20.9092 5.58329C20.8803 5.61336 20.8615 5.64878 20.8529 5.68956L20.8342 5.76458L20.8154 5.83959C20.8125 5.84985 20.8104 5.86026 20.8091 5.87085L20.8029 5.94586C20.7904 6.07922 20.8508 6.15215 20.9842 6.16466C21.1175 6.17716 21.1905 6.11673 21.203 5.98337L21.2092 5.93336L21.2155 5.90211L21.2467 5.8521L21.2717 5.82084C21.1501 5.72836 21.0459 5.74503 20.9592 5.87085L20.9717 5.88335C21.019 5.78514 21.0002 5.70179 20.9154 5.6333L20.9029 5.65831C20.964 5.641 21.0077 5.60349 21.0342 5.54579L21.0154 5.55204C21.0522 5.68666 21.1377 5.73459 21.2717 5.69582L21.2592 5.65206L21.2467 5.55829L21.2342 5.40826V5.22698L21.2405 5.03944L21.253 4.88316L21.2655 4.8019L21.278 4.78314C21.1913 4.78668 21.1308 4.82835 21.0967 4.90817H21.1217C21.0783 4.84895 21.0199 4.82186 20.9467 4.8269L20.9654 4.85191C20.9594 4.82698 20.949 4.80406 20.9342 4.78314L20.9404 4.80815C20.9405 4.79121 20.9384 4.77454 20.9342 4.75814V4.76439C20.9342 4.89775 21.0008 4.96443 21.1342 4.96443C21.2676 4.96443 21.3342 4.89775 21.3342 4.76439Z" fill="black"/>
<path d="M16.8709 4.6956L16.7396 4.74561C16.6235 4.79546 16.5872 4.87968 16.6307 4.99829C16.6742 5.11689 16.7563 5.15769 16.8771 5.12068L17.0084 5.07067C17.1245 5.02083 17.1608 4.93661 17.1173 4.818C17.0738 4.6994 16.9917 4.6586 16.8709 4.6956Z" fill="black"/>
<path d="M16.2458 4.65809H16.2145C16.2124 4.65806 16.2104 4.65806 16.2083 4.65809L16.1458 4.65184C16.1374 4.65133 16.1291 4.65133 16.1208 4.65184L15.9957 4.66434C15.8624 4.67059 15.7988 4.7404 15.8051 4.87375C15.8113 5.00711 15.8811 5.07067 16.0145 5.06442H16.1458L16.2083 5.05817C16.2104 5.0582 16.2124 5.0582 16.2145 5.05817H16.2458C16.3791 5.05817 16.4458 4.99149 16.4458 4.85813C16.4458 4.72477 16.3791 4.65809 16.2458 4.65809Z" fill="black"/>
<path d="M15.977 5.03942C15.977 5.17278 16.0436 5.23946 16.177 5.23946C16.3104 5.23946 16.377 5.17278 16.377 5.03942C16.377 4.90606 16.3104 4.83938 16.177 4.83938C16.0436 4.83938 15.977 4.90606 15.977 5.03942ZM16.3958 4.95815C16.3685 4.8809 16.3157 4.83028 16.2373 4.8063C16.159 4.78232 16.0868 4.79469 16.021 4.84342C15.9551 4.89215 15.9221 4.95748 15.9221 5.03942C15.9221 5.12136 15.9551 5.18669 16.021 5.23542C16.0868 5.28415 16.159 5.29652 16.2373 5.27254C16.3157 5.24856 16.3685 5.19794 16.3958 5.12068C16.4155 5.06651 16.4155 5.01233 16.3958 4.95815ZM16.3645 5.08943L16.3708 5.07067C16.3899 4.95799 16.3453 4.88358 16.2368 4.84744C16.1284 4.8113 16.048 4.84404 15.9957 4.94565L15.9895 4.9644C15.9704 5.07708 16.015 5.15149 16.1234 5.18764C16.2319 5.22378 16.3122 5.19104 16.3645 5.08943Z" fill="black"/>
<path d="M17.3585 5.25196V5.23945C17.3543 5.25586 17.3522 5.27253 17.3522 5.28946L17.3647 5.23945L17.3835 5.18319C17.4209 5.05406 17.375 4.97075 17.2459 4.93326C17.1168 4.89578 17.0335 4.94158 16.9959 5.07067L16.9772 5.13318C16.9771 5.13527 16.9771 5.13735 16.9772 5.13943L16.9647 5.18944C16.9605 5.20585 16.9584 5.22252 16.9584 5.23945V5.25196C16.9584 5.38531 17.0251 5.45199 17.1584 5.45199C17.2918 5.45199 17.3585 5.38531 17.3585 5.25196Z" fill="black"/>
<path d="M17.4897 4.84562C17.4897 4.97898 17.5564 5.04565 17.6897 5.04565C17.8231 5.04565 17.8898 4.97898 17.8898 4.84562C17.8898 4.71226 17.8231 4.64558 17.6897 4.64558C17.5564 4.64558 17.4897 4.71226 17.4897 4.84562ZM17.8898 4.92063L17.896 4.91438C17.925 4.84416 17.9225 4.77508 17.8885 4.70714C17.8546 4.6392 17.8008 4.59576 17.7272 4.57682L17.7022 4.57056C17.6126 4.54486 17.5348 4.56499 17.4688 4.63094C17.4028 4.6969 17.3827 4.77471 17.4084 4.86437L17.4147 4.88937C17.4375 4.97764 17.4922 5.03599 17.5788 5.06441C17.6654 5.09284 17.7441 5.07825 17.8148 5.02065L17.821 5.0144C17.8523 4.98927 17.8752 4.95802 17.8898 4.92063ZM17.8022 4.87062L17.8085 4.85812C17.8668 4.73726 17.8356 4.64766 17.7147 4.58932C17.5939 4.53097 17.5043 4.56223 17.4459 4.68309L17.4397 4.69559C17.3816 4.81636 17.4129 4.90588 17.5336 4.96415C17.6543 5.02241 17.7438 4.99124 17.8022 4.87062Z" fill="black"/>
<path d="M17.6711 5.25819H17.6586C17.5842 5.26175 17.5281 5.29569 17.4905 5.36001C17.4528 5.42433 17.4506 5.48983 17.484 5.5565C17.5173 5.62317 17.571 5.66073 17.645 5.6692C17.7191 5.67766 17.7799 5.65318 17.8274 5.59575L17.8399 5.5895C17.8997 5.52154 17.9091 5.44722 17.868 5.36656C17.8269 5.28589 17.7613 5.24977 17.6711 5.25819ZM17.4148 5.47698C17.4148 5.63951 17.4961 5.72078 17.6586 5.72078C17.8212 5.72078 17.9024 5.63951 17.9024 5.47698C17.9024 5.31445 17.8212 5.23318 17.6586 5.23318C17.4961 5.23318 17.4148 5.31445 17.4148 5.47698ZM17.4273 5.47698C17.4273 5.62284 17.5003 5.69577 17.6461 5.69577C17.792 5.69577 17.8649 5.62284 17.8649 5.47698C17.8649 5.33112 17.792 5.25819 17.6461 5.25819C17.5003 5.25819 17.4273 5.33112 17.4273 5.47698ZM17.7961 5.61451L17.8087 5.60201C17.9045 5.50615 17.9045 5.4103 17.8087 5.31445C17.7128 5.2186 17.6169 5.2186 17.5211 5.31445L17.5086 5.32695C17.4127 5.4228 17.4127 5.51866 17.5086 5.61451C17.6044 5.71036 17.7003 5.71036 17.7961 5.61451Z" fill="black"/>
<path d="M17.7272 5.86462L17.721 5.87087C17.6809 5.87767 17.6455 5.89434 17.6147 5.92088L17.596 5.93338C17.497 6.02454 17.486 6.12531 17.5629 6.23568C17.6398 6.34606 17.7382 6.37065 17.8579 6.30944C17.9777 6.24823 18.0154 6.15413 17.971 6.02715L17.9648 6.00839C17.9553 5.98044 17.9407 5.95543 17.921 5.93338L17.9148 5.92713C17.8641 5.87076 17.8016 5.84993 17.7272 5.86462ZM17.6897 6.32095L17.7085 6.32721C17.7307 6.33544 17.7536 6.33961 17.7773 6.33971H17.796C17.9294 6.33971 17.996 6.27303 17.996 6.13967C17.996 6.00631 17.9294 5.93963 17.796 5.93963H17.7773C17.818 5.9827 17.868 6.00354 17.9273 6.00214L17.9085 5.98964C17.8639 5.93785 17.8074 5.91414 17.7391 5.91852C17.6709 5.9229 17.6179 5.95363 17.5802 6.01071C17.5425 6.06779 17.535 6.12858 17.5578 6.19308C17.5806 6.25757 17.6246 6.3002 17.6897 6.32095Z" fill="black"/>
<path d="M18.8087 6.35845C18.8087 6.49181 18.8754 6.55849 19.0087 6.55849C19.1421 6.55849 19.2088 6.49181 19.2088 6.35845C19.2088 6.22509 19.1421 6.15841 19.0087 6.15841C18.8754 6.15841 18.8087 6.22509 18.8087 6.35845ZM19.0588 6.1334L19.04 6.12715C18.9423 6.09773 18.8589 6.12065 18.79 6.19592L18.7775 6.20842C18.8085 6.28644 18.8653 6.33356 18.9477 6.34978C19.0301 6.36599 19.1005 6.34387 19.1588 6.28343V6.27718C19.0141 6.31751 18.9704 6.40711 19.0275 6.54598L19.0713 6.53348C19.2003 6.4959 19.2461 6.41257 19.2086 6.28348C19.1712 6.15438 19.0879 6.10853 18.9587 6.14591L18.915 6.15841C18.9679 6.24436 19.0429 6.27353 19.14 6.24593C19.0452 6.15904 18.9465 6.15447 18.844 6.23222C18.7415 6.30996 18.7193 6.40622 18.7775 6.52098L18.79 6.53348C18.9045 6.65596 19.0212 6.65804 19.14 6.53973L19.1588 6.52723C19.226 6.46496 19.2484 6.38942 19.2258 6.3006C19.2032 6.21177 19.1476 6.15604 19.0588 6.1334Z" fill="black"/>
<path d="M19.659 6.5772C19.659 6.71056 19.7256 6.77724 19.859 6.77724C19.9924 6.77724 20.059 6.71056 20.059 6.5772C20.059 6.44384 19.9924 6.37717 19.859 6.37717C19.7256 6.37717 19.659 6.44384 19.659 6.5772ZM19.6089 6.5772C19.6089 6.7439 19.6923 6.82725 19.859 6.82725C20.0257 6.82725 20.109 6.7439 20.109 6.5772C20.109 6.41051 20.0257 6.32716 19.859 6.32716C19.6923 6.32716 19.6089 6.41051 19.6089 6.5772ZM20.0715 6.37091L20.0653 6.36466C20.0079 6.29736 19.935 6.2637 19.8465 6.2637C19.758 6.2637 19.6851 6.29736 19.6277 6.36466L19.6215 6.37091C19.4946 6.5148 19.5003 6.65315 19.6388 6.78594C19.7773 6.91874 19.9157 6.91874 20.0542 6.78594C20.1927 6.65315 20.1984 6.5148 20.0715 6.37091ZM19.9965 6.68973L20.0653 6.65222L20.1528 6.61471C20.2777 6.56466 20.3152 6.47716 20.2652 6.3522C20.2152 6.22723 20.1278 6.18971 20.0028 6.23964L19.8965 6.2834L19.809 6.31465C19.7463 6.334 19.702 6.37385 19.6762 6.43421C19.6504 6.49456 19.6522 6.55409 19.6815 6.61281C19.7109 6.67152 19.7574 6.70866 19.8212 6.72423C19.885 6.7398 19.9434 6.7283 19.9965 6.68973Z" fill="black"/>
<path d="M20.6341 6.55849H20.6466C20.6549 6.559 20.6632 6.559 20.6716 6.55849L20.7028 6.55223C20.7091 6.55253 20.7153 6.55253 20.7216 6.55223L20.7591 6.53973C20.7697 6.53846 20.7801 6.53637 20.7903 6.53348L20.8216 6.52098C20.8447 6.51222 20.8655 6.49972 20.8841 6.48347L20.9091 6.47097L20.9591 6.44596C21.08 6.38762 21.1112 6.29802 21.0529 6.17716C20.9945 6.05631 20.9049 6.02505 20.7841 6.0834L20.7341 6.1084L20.7028 6.12715C20.6922 6.12843 20.6818 6.13051 20.6716 6.1334L20.6403 6.14591C20.6361 6.14785 20.6319 6.14993 20.6278 6.15216L20.6091 6.15841L20.5903 6.16466C20.6094 6.16526 20.6281 6.16317 20.6466 6.15841H20.6341C20.5007 6.15841 20.434 6.22509 20.434 6.35845C20.434 6.49181 20.5007 6.55849 20.6341 6.55849Z" fill="black"/>
<path d="M21.6155 5.90205L21.6093 5.8958C21.6129 5.90443 21.617 5.91276 21.6218 5.9208L21.6155 5.90205C21.6032 5.87048 21.5845 5.84339 21.5593 5.82078L21.5343 5.80203C21.509 5.77846 21.4799 5.76179 21.4467 5.75202L21.4217 5.74577C21.437 5.82788 21.485 5.87997 21.5655 5.90205L21.5593 5.8833V5.86454C21.5593 5.73118 21.4926 5.66451 21.3592 5.66451C21.2259 5.66451 21.1592 5.73118 21.1592 5.86454V5.90205C21.1584 5.91247 21.1584 5.92289 21.1592 5.93331L21.1654 5.97081C21.167 5.97928 21.1691 5.98762 21.1717 5.99582L21.1779 6.02082C21.1918 6.07698 21.2231 6.12074 21.2717 6.1521L21.303 6.1646C21.3394 6.18697 21.379 6.19739 21.4217 6.19586H21.4405C21.4074 6.17747 21.372 6.16914 21.3342 6.17085L21.3405 6.1771C21.4301 6.23197 21.5121 6.22225 21.5864 6.14795C21.6607 6.07364 21.6704 5.99167 21.6155 5.90205Z" fill="black"/>
<path d="M21.7843 5.12069V5.08944C21.7838 5.07463 21.7817 5.06004 21.778 5.04568L21.7593 4.98942C21.7537 4.96945 21.7453 4.95069 21.7343 4.93316L21.7093 4.8894L21.6968 4.84564C21.6968 4.84356 21.6968 4.84147 21.6968 4.83939L21.678 4.77688C21.6405 4.64769 21.5571 4.60185 21.428 4.63935C21.2988 4.67686 21.2529 4.76021 21.2904 4.8894L21.3092 4.94566L21.3279 5.02067L21.3467 5.09569C21.3517 5.11786 21.36 5.1387 21.3717 5.1582L21.3904 5.18946L21.3967 5.20196C21.4363 5.31052 21.5126 5.35295 21.6257 5.32924C21.7388 5.30552 21.7916 5.23601 21.7843 5.12069Z" fill="black"/>
<path d="M12.2826 8.6026V8.59635C12.2415 8.44709 12.1436 8.37207 11.9888 8.3713L11.8888 8.36505C11.7612 8.36505 11.6675 8.42131 11.6075 8.53383L11.5824 8.56509L11.4949 8.59635C11.3791 8.64824 11.3424 8.73398 11.3849 8.85359C11.4273 8.97319 11.5098 9.01663 11.6325 8.98392L11.7137 8.95266L11.745 8.97142C11.8029 8.99786 11.8633 9.00619 11.9263 8.99642L12.0263 8.98392C12.162 8.96616 12.2474 8.89115 12.2826 8.75888V8.75263C12.2968 8.70262 12.2968 8.65261 12.2826 8.6026Z" fill="black"/>
<path d="M9.10689 12.0283L9.08813 12.022C8.99408 11.9723 8.89772 11.9674 8.79906 12.0071C8.7004 12.0469 8.6344 12.1172 8.60105 12.2182C8.56771 12.3192 8.57884 12.4151 8.63446 12.5058C8.69007 12.5964 8.77045 12.6498 8.87559 12.6659H8.89435C9.09379 12.712 9.22588 12.6379 9.29062 12.4437C9.35535 12.2495 9.29411 12.111 9.10689 12.0283ZM9.00062 12.1283L8.97561 12.1158C8.85828 12.0831 8.77309 12.1216 8.72004 12.2313C8.66699 12.3409 8.68967 12.4316 8.78808 12.5033L8.81308 12.5159C8.93042 12.5485 9.01561 12.51 9.06866 12.4004C9.1217 12.2907 9.09902 12.2 9.00062 12.1283Z" fill="black"/>
<path d="M9.76323 14.6287C9.76323 14.7271 9.79801 14.8111 9.86759 14.8807C9.93716 14.9503 10.0212 14.985 10.1195 14.985C10.2179 14.985 10.3019 14.9503 10.3715 14.8807C10.4411 14.8111 10.4759 14.7271 10.4759 14.6287C10.4759 14.5303 10.4411 14.4463 10.3715 14.3768C10.3019 14.3072 10.2179 14.2724 10.1195 14.2724C10.0212 14.2724 9.93716 14.3072 9.86759 14.3768C9.79801 14.4463 9.76323 14.5303 9.76323 14.6287ZM10.1946 15.0101L10.2508 14.9975C10.3074 14.9879 10.3595 14.9671 10.4071 14.935L10.5071 14.8663C10.6699 14.7599 10.7182 14.6152 10.6522 14.4323C10.5861 14.2494 10.4565 14.169 10.2633 14.1911L10.1383 14.2036C10.0898 14.2098 10.0439 14.2244 10.0008 14.2474L9.95076 14.2724C9.75404 14.376 9.69057 14.5334 9.76034 14.7445C9.83011 14.9556 9.97485 15.0441 10.1946 15.0101ZM10.5009 14.7287L10.6259 14.6912C10.7632 14.6494 10.811 14.5599 10.7694 14.4225C10.7278 14.2852 10.6383 14.2372 10.5009 14.2787L10.3758 14.3162C10.2385 14.3579 10.1906 14.4475 10.2323 14.5849C10.2739 14.7223 10.3634 14.7703 10.5009 14.7287Z" fill="black"/>
<path d="M13.6391 14.5725L13.5953 14.585C13.5732 14.5928 13.5523 14.6032 13.5328 14.6162L13.4828 14.6538C13.3328 14.7663 13.314 14.8975 13.4265 15.0476C13.539 15.1976 13.6703 15.2164 13.8203 15.1038L13.8579 15.0788L13.8829 15.0601C14.0153 14.9699 14.0457 14.8531 13.974 14.7098C13.9024 14.5664 13.7907 14.5207 13.6391 14.5725ZM13.4328 14.81L13.4015 14.8538C13.345 14.9613 13.3655 15.0512 13.4631 15.1235C13.5607 15.1958 13.6527 15.1892 13.7391 15.1038L13.7703 15.0601C13.8269 14.9526 13.8063 14.8627 13.7087 14.7904C13.6111 14.7181 13.5191 14.7246 13.4328 14.81Z" fill="black"/>
<path d="M11.2449 17.4043C11.2449 17.5113 11.2827 17.6027 11.3584 17.6783C11.4341 17.754 11.5254 17.7919 11.6325 17.7919C11.7395 17.7919 11.8308 17.754 11.9065 17.6783C11.9822 17.6027 12.02 17.5113 12.02 17.4043C12.02 17.2973 11.9822 17.2059 11.9065 17.1302C11.8308 17.0546 11.7395 17.0167 11.6325 17.0167C11.5254 17.0167 11.4341 17.0546 11.3584 17.1302C11.2827 17.2059 11.2449 17.2973 11.2449 17.4043ZM11.4887 16.9167L11.3762 16.9355C11.1994 16.9618 11.067 17.0526 10.9788 17.208C10.8905 17.3633 10.8804 17.5236 10.9484 17.6889C11.0164 17.8541 11.1364 17.9609 11.3084 18.0092C11.4804 18.0575 11.6384 18.0288 11.7825 17.9231L11.8763 17.8544C12.1065 17.6958 12.1682 17.4873 12.0614 17.2289C11.9546 16.9705 11.7637 16.8665 11.4887 16.9167ZM10.9698 17.5168C10.9698 17.6256 11.0083 17.7184 11.0852 17.7953C11.1621 17.8722 11.2549 17.9106 11.3637 17.9106C11.4724 17.9106 11.5652 17.8722 11.6421 17.7953C11.719 17.7184 11.7575 17.6256 11.7575 17.5168C11.7575 17.4081 11.719 17.3152 11.6421 17.2383C11.5652 17.1614 11.4724 17.123 11.3637 17.123C11.2549 17.123 11.1621 17.1614 11.0852 17.2383C11.0083 17.3152 10.9698 17.4081 10.9698 17.5168ZM11.2574 17.3168L11.2199 17.323C11.074 17.348 11.0136 17.4335 11.0386 17.5793C11.0636 17.7252 11.149 17.7856 11.2949 17.7606L11.3324 17.7544C11.4783 17.7294 11.5387 17.6439 11.5137 17.4981C11.4887 17.3522 11.4033 17.2918 11.2574 17.3168Z" fill="black"/>
<path d="M10.7259 19.7235C10.7261 19.8166 10.7591 19.8961 10.825 19.9619C10.8909 20.0277 10.9704 20.0606 11.0635 20.0606C11.1566 20.0606 11.2361 20.0277 11.302 19.9619C11.3679 19.8961 11.4009 19.8166 11.4011 19.7235C11.4009 19.6304 11.3679 19.5509 11.302 19.4851C11.2361 19.4193 11.1566 19.3864 11.0635 19.3864C10.9704 19.3864 10.8909 19.4193 10.825 19.4851C10.7591 19.5509 10.7261 19.6304 10.7259 19.7235ZM10.7259 19.6547L10.7134 19.7173C10.6797 19.8177 10.6896 19.9136 10.743 20.0051C10.7964 20.0966 10.8751 20.1523 10.9791 20.1724C11.0831 20.1924 11.1769 20.1699 11.2604 20.1048C11.344 20.0397 11.3888 19.9543 11.3948 19.8485L11.4073 19.786C11.4254 19.692 11.4076 19.6053 11.3538 19.526C11.3001 19.4467 11.2263 19.398 11.1322 19.3799C11.0382 19.3618 10.9515 19.3795 10.8722 19.4332C10.7929 19.4869 10.7441 19.5607 10.7259 19.6547ZM10.8697 19.9673L10.9072 20.0673C10.9574 20.2045 11.0511 20.2481 11.1884 20.1982C11.3256 20.1483 11.3694 20.0546 11.3198 19.9173L11.2823 19.8173C11.2322 19.6799 11.1384 19.6363 11.0011 19.6862C10.8637 19.7362 10.8199 19.8299 10.8697 19.9673Z" fill="black"/>
<path d="M14.7829 23.0053C14.7829 23.1452 14.8324 23.2645 14.9313 23.3634C15.0301 23.4622 15.1495 23.5117 15.2893 23.5117C15.4291 23.5117 15.5485 23.4622 15.6473 23.3634C15.7462 23.2645 15.7956 23.1452 15.7956 23.0053C15.7956 22.8655 15.7462 22.7462 15.6473 22.6473C15.5485 22.5484 15.4291 22.499 15.2893 22.499C15.1495 22.499 15.0301 22.5484 14.9313 22.6473C14.8324 22.7462 14.7829 22.8655 14.7829 23.0053ZM14.6579 22.9803V23.0428C14.6395 23.31 14.7583 23.483 15.0142 23.5617L15.0768 23.5804C15.2387 23.6271 15.3919 23.6072 15.5365 23.5206C15.6811 23.434 15.771 23.3083 15.8063 23.1436C15.8416 22.9788 15.811 22.8273 15.7145 22.6891C15.6181 22.5509 15.4865 22.47 15.3196 22.4463C15.1528 22.4225 15.0038 22.4636 14.8727 22.5694C14.7415 22.6753 14.67 22.8122 14.6579 22.9803ZM14.808 23.1554C14.808 23.3596 14.9101 23.4617 15.1143 23.4617C15.3185 23.4617 15.4206 23.3596 15.4206 23.1554C15.4206 22.9512 15.3185 22.8491 15.1143 22.8491C14.9101 22.8491 14.808 22.9512 14.808 23.1554ZM14.908 23.2929L14.9267 23.3491C14.9815 23.4676 15.0707 23.5063 15.1945 23.465C15.3184 23.4237 15.3666 23.3392 15.3393 23.2116L15.3206 23.1554C15.2658 23.0369 15.1766 22.9983 15.0527 23.0395C14.9289 23.0808 14.8807 23.1653 14.908 23.2929Z" fill="black"/>
<path d="M16.2707 11.3719C16.2707 11.5553 16.3624 11.647 16.5458 11.647C16.7292 11.647 16.8209 11.5553 16.8209 11.3719C16.8209 11.1886 16.7292 11.0969 16.5458 11.0969C16.3624 11.0969 16.2707 11.1886 16.2707 11.3719ZM16.2332 11.3657C16.2332 11.5657 16.3333 11.6657 16.5333 11.6657C16.7333 11.6657 16.8334 11.5657 16.8334 11.3657C16.8334 11.1656 16.7333 11.0656 16.5333 11.0656C16.3333 11.0656 16.2332 11.1656 16.2332 11.3657ZM16.4895 11.1531L16.3895 11.1344C16.2562 11.1095 16.1771 11.1637 16.1521 11.2969C16.1271 11.4302 16.1813 11.5094 16.3145 11.5345L16.4145 11.5532C16.5478 11.5781 16.6269 11.5239 16.6519 11.3906C16.6769 11.2574 16.6228 11.1782 16.4895 11.1531Z" fill="black"/>
<path d="M18.1462 11.6595C18.1462 11.7561 18.1804 11.8386 18.2487 11.907C18.3171 11.9753 18.3996 12.0095 18.4963 12.0095C18.5929 12.0095 18.6754 11.9753 18.7438 11.907C18.8121 11.8386 18.8463 11.7561 18.8463 11.6595C18.8463 11.5628 18.8121 11.4803 18.7438 11.4119C18.6754 11.3436 18.5929 11.3094 18.4963 11.3094C18.3996 11.3094 18.3171 11.3436 18.2487 11.4119C18.1804 11.4803 18.1462 11.5628 18.1462 11.6595ZM18.4963 11.2094L18.3962 11.2031C18.2678 11.1942 18.1557 11.2327 18.0598 11.3187C17.964 11.4047 17.9136 11.512 17.9086 11.6407V11.6532V11.6469L17.8524 11.6782C17.77 11.7524 17.7563 11.8376 17.8113 11.9339C17.8663 12.0301 17.9467 12.0616 18.0524 12.0283L18.1024 12.0033L18.1337 12.0095C18.0929 11.9635 18.0429 11.9322 17.9837 11.9158L18.0149 11.9533C18.13 12.0916 18.2758 12.1437 18.4525 12.1095L18.5525 12.0908C18.8166 12.0471 18.94 11.8917 18.923 11.6246C18.9059 11.3576 18.7637 11.2191 18.4963 11.2094Z" fill="black"/>
<path d="M21.6655 18.9733L21.653 18.9608C21.5113 18.8192 21.3696 18.8193 21.228 18.9609C21.0863 19.1025 21.0863 19.2442 21.2279 19.3859L21.2404 19.3984C21.3821 19.5402 21.5238 19.5402 21.6655 19.3985C21.8073 19.2567 21.8073 19.115 21.6655 18.9733ZM21.6217 19.0608L21.603 19.0233C21.5404 18.8984 21.4467 18.8672 21.3217 18.9297C21.1967 18.9921 21.1655 19.0859 21.2279 19.2109L21.2466 19.2484C21.3092 19.3733 21.4029 19.4045 21.5279 19.3421C21.6529 19.2796 21.6841 19.1858 21.6217 19.0608Z" fill="black"/>
<path d="M20.0277 16.4478C20.0277 16.5531 20.0649 16.643 20.1394 16.7174C20.2138 16.7919 20.3037 16.8291 20.409 16.8291C20.5143 16.8291 20.6042 16.7919 20.6787 16.7174C20.7531 16.643 20.7903 16.5531 20.7903 16.4478C20.7903 16.3425 20.7531 16.2526 20.6787 16.1782C20.6042 16.1037 20.5143 16.0665 20.409 16.0665C20.3037 16.0665 20.2138 16.1037 20.1394 16.1782C20.0649 16.2526 20.0277 16.3425 20.0277 16.4478ZM20.6466 16.1165L20.5903 16.0665C20.5109 15.9871 20.415 15.9474 20.3028 15.9474C20.1905 15.9474 20.0946 15.9871 20.0152 16.0665C19.9358 16.1459 19.8961 16.2417 19.8961 16.354C19.8961 16.4663 19.9358 16.5622 20.0152 16.6416L20.0652 16.6979C20.1388 16.8071 20.2412 16.8681 20.3723 16.8808C20.5034 16.8934 20.6156 16.8532 20.7087 16.76C20.8019 16.6669 20.8421 16.5547 20.8295 16.4236C20.8168 16.2925 20.7558 16.1901 20.6466 16.1165ZM20.5028 16.2353L20.484 16.1165C20.4448 16.0064 20.3675 15.9602 20.252 15.9777C20.1365 15.9952 20.0763 16.0623 20.0715 16.179L20.0902 16.2978C20.1294 16.4078 20.2068 16.4541 20.3223 16.4366C20.4378 16.4191 20.498 16.352 20.5028 16.2353Z" fill="black"/>
<path d="M23.4409 13.266L23.4471 13.2597C23.4582 13.2522 23.4686 13.2439 23.4784 13.2347L23.5159 13.191C23.567 13.1387 23.5961 13.0762 23.6034 13.0034L23.6096 12.8659C23.6143 12.8069 23.6039 12.7506 23.5784 12.6971L23.5221 12.5846L23.5034 12.5033L23.5096 12.4221C23.5221 12.2887 23.4617 12.2158 23.3283 12.2033C23.195 12.1908 23.122 12.2512 23.1095 12.3846L23.1033 12.4658L23.0533 12.5659L22.9908 12.6971C22.959 12.7605 22.9485 12.8271 22.9595 12.8972L22.9845 13.0347C22.9987 13.1112 23.0362 13.1737 23.097 13.2222L23.1408 13.2597C23.1429 13.2598 23.145 13.2598 23.1471 13.2597L23.1533 13.266C23.2492 13.336 23.345 13.336 23.4409 13.266Z" fill="black"/>
<path d="M25.9038 11.2469L25.9163 11.2219C25.9257 11.202 25.932 11.1811 25.9351 11.1593L25.9413 11.1156L25.9601 11.0656L26.0163 10.9906C26.0953 10.8822 26.0807 10.7885 25.9724 10.7094C25.8642 10.6304 25.7705 10.6449 25.6913 10.753L25.6288 10.8405L25.56 10.9156C25.5368 10.9451 25.5222 10.9785 25.5162 11.0156L25.4975 11.0781C25.4869 11.1282 25.4932 11.1761 25.5162 11.2219L25.5287 11.2469C25.5655 11.3271 25.628 11.3672 25.7163 11.3672C25.8045 11.3672 25.867 11.3271 25.9038 11.2469Z" fill="black"/>
<path d="M27.3104 12.147C27.3104 12.3512 27.4125 12.4534 27.6167 12.4534C27.8209 12.4534 27.923 12.3512 27.923 12.147C27.923 11.9428 27.8209 11.8407 27.6167 11.8407C27.4125 11.8407 27.3104 11.9428 27.3104 12.147ZM27.2916 12.147C27.2916 12.3596 27.3979 12.4659 27.6104 12.4659C27.823 12.4659 27.9293 12.3596 27.9293 12.147C27.9293 11.9345 27.823 11.8282 27.6104 11.8282C27.3979 11.8282 27.2916 11.9345 27.2916 12.147ZM27.948 12.1345V12.072C27.9499 12.0339 27.9457 11.9963 27.9355 11.9595L27.9168 11.9095L27.9105 11.847C27.8516 11.8963 27.8286 11.9588 27.8417 12.0345L27.9355 11.9533C28.0209 11.8651 28.0232 11.7748 27.9423 11.6824C27.8615 11.59 27.7717 11.5803 27.673 11.6532L27.5792 11.7345C27.6316 11.7358 27.6774 11.7191 27.7167 11.6845H27.6417C27.5916 11.6805 27.5437 11.6888 27.4979 11.7095L27.4354 11.7407C27.2973 11.808 27.2306 11.9185 27.2354 12.072V12.1345C27.2354 12.2329 27.2702 12.3169 27.3397 12.3865C27.4093 12.4561 27.4933 12.4909 27.5917 12.4909C27.6901 12.4909 27.7741 12.4561 27.8436 12.3865C27.9132 12.3169 27.948 12.2329 27.948 12.1345Z" fill="black"/>
<path d="M28.4292 14.3287C28.4295 14.4827 28.5066 14.5597 28.6605 14.5597C28.8145 14.5597 28.8916 14.4827 28.8918 14.3287C28.8916 14.1747 28.8145 14.0977 28.6605 14.0977C28.5066 14.0977 28.4295 14.1747 28.4292 14.3287ZM28.3855 14.3349C28.3855 14.5058 28.4709 14.5912 28.6418 14.5912C28.8127 14.5912 28.8981 14.5058 28.8981 14.3349C28.8981 14.1641 28.8127 14.0786 28.6418 14.0786C28.4709 14.0786 28.3855 14.1641 28.3855 14.3349ZM28.6418 14.0349L28.598 14.0286C28.4725 14.0126 28.3702 14.054 28.2913 14.153C28.2123 14.2519 28.1947 14.3608 28.2382 14.4797C28.2818 14.5985 28.3657 14.6702 28.4899 14.6947C28.6141 14.7191 28.7189 14.6847 28.8043 14.5912L28.8356 14.56C28.9241 14.466 28.946 14.3585 28.9013 14.2374C28.8566 14.1163 28.7701 14.0488 28.6418 14.0349ZM28.2167 14.385C28.2167 14.5683 28.3084 14.66 28.4918 14.66C28.6751 14.66 28.7668 14.5683 28.7668 14.385C28.7668 14.2016 28.6751 14.1099 28.4918 14.1099C28.3084 14.1099 28.2167 14.2016 28.2167 14.385ZM28.4105 14.1912L28.3667 14.1974C28.2334 14.2183 28.1771 14.2954 28.1979 14.4287C28.2188 14.5621 28.2959 14.6183 28.4292 14.5975L28.473 14.5912C28.6062 14.5703 28.6624 14.4932 28.6416 14.36C28.6207 14.2268 28.5437 14.1705 28.4105 14.1912Z" fill="black"/>
<path d="M26.0539 16.354C26.0539 16.4576 26.0905 16.546 26.1637 16.6193C26.237 16.6925 26.3254 16.7291 26.429 16.7291C26.5325 16.7291 26.6209 16.6925 26.6942 16.6193C26.7674 16.546 26.804 16.4576 26.804 16.354C26.804 16.2505 26.7674 16.1621 26.6942 16.0888C26.6209 16.0156 26.5325 15.979 26.429 15.979C26.3254 15.979 26.237 16.0156 26.1637 16.0888C26.0905 16.1621 26.0539 16.2505 26.0539 16.354ZM26.6978 16.004L26.6665 15.979C26.4576 15.8169 26.2559 15.8254 26.0615 16.0045C25.867 16.1836 25.8419 16.3839 25.9863 16.6054C26.1307 16.8269 26.3241 16.8848 26.5665 16.7791L26.604 16.7604C26.6755 16.7289 26.7346 16.6818 26.7812 16.6191C26.8278 16.5564 26.856 16.4863 26.8656 16.4088C26.8752 16.3313 26.865 16.2564 26.8351 16.1842C26.8052 16.1121 26.7594 16.052 26.6978 16.004ZM25.9289 16.3103C25.9582 16.5437 26.0905 16.6604 26.3258 16.6604C26.5611 16.6604 26.6934 16.5437 26.7228 16.3103C26.6934 16.0768 26.5611 15.9601 26.3258 15.9601C26.0905 15.9601 25.9582 16.0768 25.9289 16.3103ZM26.479 16.1915L26.4602 16.1227C26.4227 15.9936 26.3393 15.9478 26.2102 15.9853C26.081 16.0228 26.0352 16.1061 26.0726 16.2353L26.0914 16.304C26.1289 16.4332 26.2123 16.479 26.3414 16.4415C26.4706 16.404 26.5164 16.3207 26.479 16.1915Z" fill="black"/>
<path d="M24.2536 18.5982C24.2536 18.707 24.292 18.7998 24.3689 18.8767C24.4458 18.9536 24.5387 18.992 24.6474 18.992C24.7562 18.992 24.849 18.9536 24.9259 18.8767C25.0028 18.7998 25.0412 18.707 25.0412 18.5982C25.0412 18.4895 25.0028 18.3966 24.9259 18.3197C24.849 18.2428 24.7562 18.2044 24.6474 18.2044C24.5387 18.2044 24.4458 18.2428 24.3689 18.3197C24.292 18.3966 24.2536 18.4895 24.2536 18.5982ZM24.2974 18.3294L24.2598 18.3669C24.0904 18.5394 24.0626 18.7323 24.1764 18.9456C24.2903 19.1589 24.4661 19.2432 24.7037 19.1983L24.7224 19.1921C24.7811 19.1829 24.8353 19.1621 24.885 19.1296L24.9037 19.1171C25.0154 19.0427 25.0852 18.94 25.1131 18.8088C25.1411 18.6776 25.1192 18.5553 25.0475 18.4419L25.0225 18.3919C24.9419 18.2639 24.8262 18.1933 24.6755 18.1803C24.5247 18.1673 24.3987 18.217 24.2974 18.3294ZM24.5974 19.0233L24.6724 19.0858C24.7808 19.1775 24.8808 19.1692 24.9725 19.0608C25.0642 18.9524 25.0558 18.8524 24.9475 18.7607L24.8725 18.6982C24.7641 18.6067 24.6641 18.6151 24.5725 18.7233C24.4809 18.8316 24.4892 18.9316 24.5974 19.0233Z" fill="black"/>
<path d="M24.8286 22.4052C24.8286 22.5122 24.8664 22.6036 24.9421 22.6793C25.0178 22.7549 25.1091 22.7928 25.2162 22.7928C25.3232 22.7928 25.4145 22.7549 25.4902 22.6793C25.5659 22.6036 25.6037 22.5122 25.6037 22.4052C25.6037 22.2982 25.5659 22.2068 25.4902 22.1311C25.4145 22.0555 25.3232 22.0176 25.2162 22.0176C25.1091 22.0176 25.0178 22.0555 24.9421 22.1311C24.8664 22.2068 24.8286 22.2982 24.8286 22.4052ZM24.7286 22.4114C24.7286 22.5375 24.7731 22.645 24.8622 22.7341C24.9513 22.8232 25.0589 22.8678 25.1849 22.8678C25.3109 22.8678 25.4185 22.8232 25.5076 22.7341C25.5967 22.645 25.6413 22.5375 25.6413 22.4114C25.6413 22.2854 25.5967 22.1779 25.5076 22.0888C25.4185 21.9997 25.3109 21.9551 25.1849 21.9551C25.0589 21.9551 24.9513 21.9997 24.8622 22.0888C24.7731 22.1779 24.7286 22.2854 24.7286 22.4114ZM24.7411 22.4239C24.7411 22.5379 24.7814 22.6351 24.8619 22.7157C24.9425 22.7962 25.0397 22.8365 25.1537 22.8365C25.2676 22.8365 25.3648 22.7962 25.4454 22.7157C25.526 22.6351 25.5662 22.5379 25.5662 22.4239C25.5662 22.31 25.526 22.2128 25.4454 22.1322C25.3648 22.0516 25.2676 22.0114 25.1537 22.0114C25.0397 22.0114 24.9425 22.0516 24.8619 22.1322C24.7814 22.2128 24.7411 22.31 24.7411 22.4239ZM25.1224 22.6427L25.1537 22.649C25.2782 22.6595 25.3534 22.6036 25.3794 22.4813C25.4053 22.359 25.3593 22.2774 25.2412 22.2364L25.2099 22.2302C25.0854 22.2197 25.0101 22.2756 24.9842 22.3979C24.9583 22.5201 25.0043 22.6017 25.1224 22.6427Z" fill="black"/>
<path d="M26.8102 22.6678C26.8102 22.8845 26.9186 22.9928 27.1353 22.9928C27.352 22.9928 27.4603 22.8845 27.4603 22.6678C27.4603 22.4511 27.352 22.3427 27.1353 22.3427C26.9186 22.3427 26.8102 22.4511 26.8102 22.6678ZM26.7727 22.6553C26.7727 22.7554 26.8081 22.8409 26.8789 22.9116C26.9497 22.9824 27.0352 23.0178 27.1353 23.0178C27.2354 23.0178 27.3209 22.9824 27.3916 22.9116C27.4624 22.8409 27.4978 22.7554 27.4978 22.6553C27.4978 22.5552 27.4624 22.4697 27.3916 22.3989C27.3209 22.3281 27.2354 22.2927 27.1353 22.2927C27.0352 22.2927 26.9497 22.3281 26.8789 22.3989C26.8081 22.4697 26.7727 22.5552 26.7727 22.6553ZM27.6291 22.699L27.6604 22.5678C27.694 22.446 27.681 22.3293 27.6216 22.2179C27.5621 22.1064 27.4725 22.0307 27.3526 21.9907C27.2328 21.9508 27.1156 21.9576 27.0012 22.0111C26.8867 22.0646 26.8064 22.1501 26.7602 22.2677L26.7102 22.3927C26.6484 22.5248 26.6462 22.6578 26.7038 22.7918C26.7613 22.9258 26.8593 23.0159 26.9976 23.062C27.136 23.1081 27.2683 23.0948 27.3948 23.0222C27.5212 22.9495 27.5993 22.8418 27.6291 22.699ZM27.4728 22.3927L27.5979 22.2177C27.6769 22.1052 27.6602 22.0094 27.5478 21.9302C27.4353 21.8511 27.3395 21.8677 27.2603 21.9801L27.1353 22.1552C27.0561 22.2677 27.0728 22.3636 27.1853 22.4427C27.2978 22.5219 27.3937 22.5052 27.4728 22.3927Z" fill="black"/>
<path d="M29.6734 20.2423H29.6796C29.787 20.2256 29.862 20.1673 29.9047 20.0673L29.9297 20.0048C29.9747 19.8926 29.958 19.7905 29.8797 19.6985L29.8484 19.661C29.8156 19.7382 29.826 19.809 29.8797 19.8735L29.9234 19.7735C29.9558 19.6579 29.9169 19.5763 29.8068 19.5286C29.6967 19.4809 29.6105 19.5083 29.5483 19.611L29.5046 19.711C29.5781 19.6996 29.6302 19.66 29.6609 19.5922L29.6109 19.5985C29.4719 19.6191 29.3885 19.6983 29.3608 19.836L29.3483 19.8985C29.3291 20.0004 29.3562 20.0879 29.4296 20.1611L29.4358 20.1673C29.5023 20.2325 29.5815 20.2575 29.6734 20.2423Z" fill="black"/>
<path d="M31.0861 17.6918C31.0861 17.8627 31.1716 17.9481 31.3424 17.9481C31.5133 17.9481 31.5987 17.8627 31.5987 17.6918C31.5987 17.521 31.5133 17.4355 31.3424 17.4355C31.1716 17.4355 31.0861 17.521 31.0861 17.6918ZM31.5737 17.5355L31.5675 17.523C31.4808 17.384 31.3662 17.3548 31.2237 17.4355L31.2049 17.4418C31.043 17.5334 31.009 17.6595 31.103 17.82C31.1969 17.9806 31.3234 18.0128 31.4826 17.9166C31.6418 17.8204 31.6722 17.6933 31.5737 17.5355ZM31.48 17.8043L31.5237 17.7793C31.6402 17.7126 31.6651 17.621 31.5985 17.5044C31.5319 17.3878 31.4403 17.3628 31.3237 17.4293L31.2799 17.4543C31.1632 17.521 31.1382 17.6126 31.2049 17.7293C31.2716 17.846 31.3633 17.871 31.48 17.8043Z" fill="black"/>
<path d="M32.749 16.8042C32.749 16.9917 32.8428 17.0855 33.0303 17.0855C33.2178 17.0855 33.3116 16.9917 33.3116 16.8042C33.3116 16.6166 33.2178 16.5229 33.0303 16.5229C32.8428 16.5229 32.749 16.6166 32.749 16.8042ZM32.6802 16.8042C32.6802 16.8991 32.7138 16.9801 32.7809 17.0473C32.8481 17.1144 32.9291 17.148 33.024 17.148C33.119 17.148 33.2 17.1144 33.2672 17.0473C33.3343 16.9801 33.3679 16.8991 33.3679 16.8042C33.3679 16.7092 33.3343 16.6282 33.2672 16.5611C33.2 16.4939 33.119 16.4603 33.024 16.4603C32.9291 16.4603 32.8481 16.4939 32.7809 16.5611C32.7138 16.6282 32.6802 16.7092 32.6802 16.8042ZM32.4364 16.7792C32.4364 16.938 32.4926 17.0735 32.6049 17.1858C32.7172 17.2981 32.8527 17.3543 33.0115 17.3543C33.1703 17.3543 33.3059 17.2981 33.4182 17.1858C33.5305 17.0735 33.5866 16.938 33.5866 16.7792C33.5866 16.6203 33.5305 16.4848 33.4182 16.3725C33.3059 16.2602 33.1703 16.2041 33.0115 16.2041C32.8527 16.2041 32.7172 16.2602 32.6049 16.3725C32.4926 16.4848 32.4364 16.6203 32.4364 16.7792ZM32.3114 16.7292C32.3114 16.919 32.3785 17.0811 32.5128 17.2154C32.6471 17.3496 32.8091 17.4168 32.999 17.4168C33.1889 17.4168 33.351 17.3496 33.4853 17.2154C33.6195 17.0811 33.6867 16.919 33.6867 16.7292C33.6867 16.5393 33.6195 16.3772 33.4853 16.2429C33.351 16.1087 33.1889 16.0415 32.999 16.0415C32.8091 16.0415 32.6471 16.1087 32.5128 16.2429C32.3785 16.3772 32.3114 16.5393 32.3114 16.7292ZM32.5427 16.6416C32.5427 16.7625 32.5854 16.8656 32.6709 16.9511C32.7563 17.0365 32.8594 17.0792 32.9803 17.0792C33.1011 17.0792 33.2043 17.0365 33.2897 16.9511C33.3751 16.8656 33.4179 16.7625 33.4179 16.6416C33.4179 16.5208 33.3751 16.4177 33.2897 16.3322C33.2043 16.2468 33.1011 16.2041 32.9803 16.2041C32.8594 16.2041 32.7563 16.2468 32.6709 16.3322C32.5854 16.4177 32.5427 16.5208 32.5427 16.6416ZM33.1803 16.5291L33.1741 16.4353C33.1657 16.2978 33.0928 16.2332 32.9553 16.2416C32.8177 16.2499 32.7532 16.3228 32.7615 16.4603L32.7677 16.5541C32.7761 16.6916 32.849 16.7562 32.9865 16.7479C33.1241 16.7396 33.1887 16.6666 33.1803 16.5291Z" fill="black"/>
<path d="M30.8923 11.3344C30.8923 11.4311 30.9265 11.5136 30.9949 11.5819C31.0632 11.6503 31.1457 11.6845 31.2424 11.6845C31.3391 11.6845 31.4216 11.6503 31.4899 11.5819C31.5583 11.5136 31.5925 11.4311 31.5925 11.3344C31.5925 11.2377 31.5583 11.1552 31.4899 11.0869C31.4216 11.0185 31.3391 10.9843 31.2424 10.9843C31.1457 10.9843 31.0632 11.0185 30.9949 11.0869C30.9265 11.1552 30.8923 11.2377 30.8923 11.3344ZM30.8611 11.3344C30.8611 11.438 30.8977 11.5264 30.9709 11.5996C31.0442 11.6729 31.1326 11.7095 31.2362 11.7095C31.3397 11.7095 31.4281 11.6729 31.5014 11.5996C31.5746 11.5264 31.6112 11.438 31.6112 11.3344C31.6112 11.2308 31.5746 11.1424 31.5014 11.0692C31.4281 10.996 31.3397 10.9593 31.2362 10.9593C31.1326 10.9593 31.0442 10.996 30.9709 11.0692C30.8977 11.1424 30.8611 11.2308 30.8611 11.3344ZM31.3674 11.1719L31.3424 11.1469C31.2466 11.0512 31.1508 11.0512 31.055 11.147C30.9592 11.2428 30.9592 11.3386 31.0549 11.4344L31.0799 11.4594C31.1757 11.5553 31.2716 11.5553 31.3674 11.4594C31.4633 11.3636 31.4633 11.2677 31.3674 11.1719Z" fill="black"/>
<path d="M30.1671 9.42773L30.1609 9.39647C30.1397 9.26289 30.0626 9.18371 29.9296 9.15892L29.8483 9.14642L29.7733 9.12142L29.7046 9.06516C29.6058 8.99224 29.516 9.00197 29.4352 9.09435C29.3544 9.18673 29.3566 9.27702 29.442 9.36521L29.517 9.43398L29.5733 9.52149C29.579 9.53022 29.5853 9.53856 29.592 9.5465L29.6546 9.62151C29.7402 9.73159 29.8485 9.76285 29.9796 9.71528L30.0109 9.70903C30.1418 9.65905 30.1939 9.56528 30.1671 9.42773Z" fill="black"/>
<path d="M16.3896 17.8669C16.3896 18.0257 16.4457 18.1612 16.558 18.2735C16.6703 18.3858 16.8059 18.442 16.9647 18.442C17.1235 18.442 17.2591 18.3858 17.3714 18.2735C17.4837 18.1612 17.5398 18.0257 17.5398 17.8669C17.5398 17.708 17.4837 17.5725 17.3714 17.4602C17.2591 17.3479 17.1235 17.2917 16.9647 17.2917C16.8059 17.2917 16.6703 17.3479 16.558 17.4602C16.4457 17.5725 16.3896 17.708 16.3896 17.8669ZM17.3648 17.398L17.321 17.3605C17.2012 17.255 17.0615 17.2005 16.902 17.1969C16.7424 17.1933 16.6004 17.2415 16.476 17.3415C16.3515 17.4415 16.2739 17.5698 16.2431 17.7264C16.2123 17.8831 16.2356 18.0312 16.3129 18.1709C16.3902 18.3105 16.5033 18.4089 16.6524 18.466C16.8015 18.5231 16.9514 18.5255 17.1022 18.4732L17.1522 18.4545C17.2569 18.4182 17.3457 18.3584 17.4185 18.275C17.4914 18.1916 17.5388 18.0956 17.5606 17.987C17.5825 17.8784 17.5759 17.7716 17.541 17.6665C17.506 17.5614 17.4473 17.4719 17.3648 17.398ZM16.2896 17.8168C16.2896 17.967 16.3427 18.0952 16.4489 18.2014C16.5551 18.3076 16.6832 18.3607 16.8334 18.3607C16.9836 18.3607 17.1118 18.3076 17.218 18.2014C17.3242 18.0952 17.3773 17.967 17.3773 17.8168C17.3773 17.6667 17.3242 17.5385 17.218 17.4323C17.1118 17.3261 16.9836 17.273 16.8334 17.273C16.6832 17.273 16.5551 17.3261 16.4489 17.4323C16.3427 17.5385 16.2896 17.6667 16.2896 17.8168ZM17.0397 17.7856L17.0522 17.7168C17.0772 17.571 17.0168 17.4855 16.8709 17.4605C16.7251 17.4355 16.6396 17.4959 16.6146 17.6418L16.6021 17.7106C16.5771 17.8564 16.6376 17.9419 16.7834 17.9669C16.9293 17.9919 17.0147 17.9314 17.0397 17.7856Z" fill="black"/>
<path d="M15.5144 18.9858C15.5144 19.1032 15.5559 19.2034 15.6389 19.2864C15.7219 19.3694 15.8221 19.4109 15.9395 19.4109C16.0569 19.4109 16.157 19.3694 16.24 19.2864C16.323 19.2034 16.3646 19.1032 16.3646 18.9858C16.3646 18.8685 16.323 18.7683 16.24 18.6853C16.157 18.6023 16.0569 18.5608 15.9395 18.5608C15.8221 18.5608 15.7219 18.6023 15.6389 18.6853C15.5559 18.7683 15.5144 18.8685 15.5144 18.9858ZM15.3394 18.9858C15.3394 19.1429 15.3949 19.277 15.506 19.3881C15.617 19.4992 15.7511 19.5547 15.9082 19.5547C16.0653 19.5547 16.1994 19.4992 16.3105 19.3881C16.4215 19.277 16.4771 19.1429 16.4771 18.9858C16.4771 18.8287 16.4215 18.6947 16.3105 18.5836C16.1994 18.4725 16.0653 18.417 15.9082 18.417C15.7511 18.417 15.617 18.4725 15.506 18.5836C15.3949 18.6947 15.3394 18.8287 15.3394 18.9858ZM15.4644 18.9733C15.4644 19.0907 15.5059 19.1909 15.5889 19.2739C15.6719 19.3569 15.7721 19.3984 15.8895 19.3984C16.0068 19.3984 16.107 19.3569 16.19 19.2739C16.273 19.1909 16.3145 19.0907 16.3145 18.9733C16.3145 18.856 16.273 18.7558 16.19 18.6728C16.107 18.5898 16.0068 18.5483 15.8895 18.5483C15.7721 18.5483 15.6719 18.5898 15.5889 18.6728C15.5059 18.7558 15.4644 18.856 15.4644 18.9733ZM16.0457 19.0984L16.0895 19.0608C16.1979 18.9692 16.2062 18.8691 16.1145 18.7608C16.0228 18.6524 15.9228 18.6441 15.8144 18.7358L15.7707 18.7733C15.6625 18.865 15.6542 18.965 15.7458 19.0732C15.8374 19.1815 15.9374 19.1899 16.0457 19.0984Z" fill="black"/>
<path d="M19.3901 20.8924C19.3901 21.027 19.4378 21.142 19.533 21.2372C19.6282 21.3324 19.7431 21.38 19.8777 21.38C20.0124 21.38 20.1273 21.3324 20.2225 21.2372C20.3177 21.142 20.3653 21.027 20.3653 20.8924C20.3653 20.7578 20.3177 20.6428 20.2225 20.5476C20.1273 20.4524 20.0124 20.4048 19.8777 20.4048C19.7431 20.4048 19.6282 20.4524 19.533 20.5476C19.4378 20.6428 19.3901 20.7578 19.3901 20.8924ZM19.3276 20.8987C19.3276 21.0471 19.3801 21.1738 19.4851 21.2788C19.5901 21.3838 19.7168 21.4363 19.8652 21.4363C20.0137 21.4363 20.1404 21.3838 20.2454 21.2788C20.3504 21.1738 20.4028 21.0471 20.4028 20.8987C20.4028 20.7502 20.3504 20.6235 20.2454 20.5185C20.1404 20.4135 20.0137 20.3611 19.8652 20.3611C19.7168 20.3611 19.5901 20.4135 19.4851 20.5185C19.3801 20.6235 19.3276 20.7502 19.3276 20.8987ZM19.4152 20.9049C19.4152 21.024 19.4573 21.1257 19.5415 21.2099C19.6257 21.2941 19.7274 21.3362 19.8465 21.3362C19.9656 21.3362 20.0673 21.2941 20.1515 21.2099C20.2357 21.1257 20.2778 21.024 20.2778 20.9049C20.2778 20.7858 20.2357 20.6841 20.1515 20.5999C20.0673 20.5157 19.9656 20.4736 19.8465 20.4736C19.7274 20.4736 19.6257 20.5157 19.5415 20.5999C19.4573 20.6841 19.4152 20.7858 19.4152 20.9049ZM19.8277 20.6924H19.8152C19.6694 20.6924 19.5964 20.7653 19.5964 20.9112C19.5964 21.057 19.6694 21.1299 19.8152 21.1299H19.8277C19.9736 21.1299 20.0465 21.057 20.0465 20.9112C20.0465 20.7653 19.9736 20.6924 19.8277 20.6924Z" fill="black"/>
<path d="M6.40044 14.8293H6.37544C6.16489 14.8814 6.08567 15.0126 6.13778 15.2232C6.18989 15.4337 6.3212 15.5129 6.53171 15.4607L6.55672 15.4482C6.71862 15.3723 6.77768 15.2476 6.7339 15.0743C6.69012 14.9009 6.57897 14.8193 6.40044 14.8293ZM6.23791 15.0106L6.14414 15.0606C6.02328 15.1273 5.9962 15.2211 6.06288 15.3419C6.12955 15.4628 6.22332 15.4899 6.34418 15.4232L6.43795 15.3732C6.5588 15.3065 6.58589 15.2127 6.51921 15.0919C6.45253 14.971 6.35877 14.9439 6.23791 15.0106Z" fill="black"/>
<path d="M5.04405 17.2485L4.98779 17.2423C4.8475 17.2412 4.72664 17.2891 4.62522 17.386L4.5252 17.4736C4.40579 17.5799 4.34644 17.713 4.34717 17.8729C4.34791 18.0327 4.40846 18.1653 4.52885 18.2705C4.64923 18.3757 4.78869 18.418 4.94723 18.3973C5.10577 18.3766 5.22973 18.3 5.3191 18.1674L5.39412 18.0612C5.44757 17.9861 5.47883 17.9028 5.48789 17.8111L5.49414 17.7549C5.50688 17.6211 5.46863 17.5041 5.37938 17.4037C5.29013 17.3033 5.17835 17.2515 5.04405 17.2485ZM4.60022 17.8861L4.55646 17.9987C4.49811 18.1487 4.54396 18.2529 4.69399 18.3112C4.84401 18.3696 4.9482 18.3237 5.00654 18.1737L5.0503 18.0612C5.10865 17.9111 5.06281 17.807 4.91278 17.7486C4.76275 17.6903 4.65856 17.7361 4.60022 17.8861Z" fill="black"/>
<path d="M6.98179 20.8492C6.98179 21.0184 7.0416 21.1628 7.16122 21.2824C7.28084 21.402 7.42524 21.4618 7.59441 21.4618C7.76358 21.4618 7.90797 21.402 8.02759 21.2824C8.14721 21.1628 8.20702 21.0184 8.20702 20.8492C8.20702 20.6801 8.14721 20.5357 8.02759 20.416C7.90797 20.2964 7.76358 20.2366 7.59441 20.2366C7.42524 20.2366 7.28084 20.2964 7.16122 20.416C7.0416 20.5357 6.98179 20.6801 6.98179 20.8492ZM6.99429 20.6242L6.97554 20.6679C6.88573 20.9169 6.9344 21.135 7.12154 21.3221C7.30868 21.5092 7.52673 21.5579 7.77569 21.4681L7.81945 21.4493C7.92285 21.4117 8.01083 21.3516 8.0834 21.2689C8.15596 21.1862 8.20416 21.0911 8.22798 20.9837C8.25181 20.8763 8.24834 20.7697 8.21755 20.6641C8.18677 20.5585 8.13248 20.4668 8.05468 20.389C7.97688 20.3112 7.88516 20.2569 7.77953 20.2261C7.67389 20.1953 7.56737 20.1918 7.45995 20.2157C7.35253 20.2395 7.25747 20.2877 7.17476 20.3602C7.09205 20.4328 7.0319 20.5208 6.99429 20.6242ZM7.08181 20.9242C7.08181 21.0572 7.1288 21.1706 7.22279 21.2646C7.31678 21.3586 7.43023 21.4056 7.56315 21.4056C7.69607 21.4056 7.80952 21.3586 7.90351 21.2646C7.9975 21.1706 8.04449 21.0572 8.04449 20.9242C8.04449 20.7913 7.9975 20.6779 7.90351 20.5839C7.80952 20.4899 7.69607 20.4429 7.56315 20.4429C7.43023 20.4429 7.31678 20.4899 7.22279 20.5839C7.1288 20.6779 7.08181 20.7913 7.08181 20.9242ZM7.67567 21.1555L7.78819 21.143C7.90735 21.1041 7.96001 21.0223 7.94616 20.8977C7.93232 20.7731 7.86299 20.7048 7.73818 20.693L7.62566 20.7055C7.50651 20.7444 7.45385 20.8262 7.46769 20.9508C7.48154 21.0754 7.55086 21.1437 7.67567 21.1555Z" fill="black"/>
<path d="M9.71356 23.4122C9.71356 23.5416 9.75933 23.6521 9.85088 23.7437C9.94243 23.8352 10.0529 23.881 10.1824 23.881C10.3119 23.881 10.4224 23.8352 10.5139 23.7437C10.6055 23.6521 10.6512 23.5416 10.6512 23.4122C10.6512 23.2827 10.6055 23.1722 10.5139 23.0806C10.4224 22.9891 10.3119 22.9433 10.1824 22.9433C10.0529 22.9433 9.94243 22.9891 9.85088 23.0806C9.75933 23.1722 9.71356 23.2827 9.71356 23.4122ZM9.83859 23.4684C9.83859 23.6476 9.92819 23.7372 10.1074 23.7372C10.2866 23.7372 10.3762 23.6476 10.3762 23.4684C10.3762 23.2892 10.2866 23.1996 10.1074 23.1996C9.92819 23.1996 9.83859 23.2892 9.83859 23.4684Z" fill="black"/>
<path d="M21.9978 25.6246L21.9665 25.5934C21.8154 25.4459 21.6343 25.3729 21.4232 25.3746C21.2121 25.3763 21.0322 25.452 20.8835 25.6019C20.7348 25.7518 20.6604 25.9323 20.6604 26.1435C20.6604 26.3546 20.7348 26.5351 20.8835 26.685C21.0322 26.8349 21.2121 26.9107 21.4232 26.9123C21.6343 26.914 21.8154 26.8411 21.9665 26.6936L21.9978 26.6623C22.1435 26.5201 22.2163 26.3471 22.2163 26.1435C22.2163 25.9398 22.1435 25.7669 21.9978 25.6246ZM20.81 26.156C20.81 26.301 20.8613 26.4247 20.9638 26.5273C21.0664 26.6298 21.1901 26.6811 21.3351 26.6811C21.4801 26.6811 21.6039 26.6298 21.7064 26.5273C21.809 26.4247 21.8602 26.301 21.8602 26.156C21.8602 26.011 21.809 25.8872 21.7064 25.7847C21.6039 25.6821 21.4801 25.6309 21.3351 25.6309C21.1901 25.6309 21.0664 25.6821 20.9638 25.7847C20.8613 25.8872 20.81 26.011 20.81 26.156ZM21.2039 25.9434L21.1663 25.9559C21.0263 26.0129 20.9796 26.1132 21.0263 26.257C21.0729 26.4008 21.1696 26.4546 21.3164 26.4185L21.3539 26.406C21.4939 26.3491 21.5406 26.2487 21.494 26.105C21.4473 25.9612 21.3506 25.9074 21.2039 25.9434Z" fill="black"/>
</g>
<defs>
<clipPath id="clip0_1_7358">
<rect width="36" height="30" fill="white"/>
</clipPath>
</defs>
</svg>
