<svg width="32" height="37" viewBox="0 0 32 37" fill="none" xmlns="http://www.w3.org/2000/svg">
<g clip-path="url(#clip0_1_7415)">
<path d="M15.0196 7.99949H14.7739L14.5613 7.99285C14.548 7.99202 14.5347 7.99202 14.5215 7.99285L14.1893 8.0327C14.1623 8.03406 14.1357 8.03849 14.1096 8.04598L13.638 8.21204C13.6171 8.22127 13.5972 8.23234 13.5783 8.24525L12.9805 8.584C12.9666 8.592 12.9533 8.60086 12.9406 8.61057L12.2764 9.10874C12.2598 9.12074 12.2443 9.13402 12.2299 9.14859L11.6321 9.75967C11.6201 9.77217 11.609 9.78545 11.5989 9.79952L11.1273 10.4372C11.1112 10.46 11.0979 10.4843 11.0874 10.5102L10.835 11.1014C10.8193 11.1397 10.8104 11.1796 10.8085 11.221L10.7885 11.739C10.785 11.7891 10.7916 11.8379 10.8085 11.8852L10.9612 12.297C10.9783 12.3394 11.0026 12.377 11.0343 12.4099L11.3133 12.7154C11.3421 12.7457 11.3754 12.7701 11.4129 12.7885L11.745 12.9612C11.7992 12.9892 11.8568 13.0025 11.9177 13.0011L12.303 12.9878C12.3517 12.9862 12.3982 12.9751 12.4424 12.9546L12.9008 12.7354C12.927 12.7229 12.9514 12.7074 12.9738 12.6889L13.5052 12.2438C13.5193 12.2338 13.5326 12.2227 13.5451 12.2106L14.1362 11.5663C14.1433 11.5578 14.1499 11.549 14.1561 11.5398L14.7672 10.7361C14.7743 10.7275 14.7809 10.7187 14.7871 10.7095L15.3252 9.81281C15.3277 9.80404 15.33 9.79519 15.3318 9.78624L15.7569 8.94268C15.7616 8.9362 15.766 8.92955 15.7702 8.92275L16.0558 8.23197C16.061 8.21895 16.0655 8.20567 16.0691 8.19211L16.2086 7.70723C16.2197 7.67038 16.2241 7.63274 16.2219 7.59432L16.2019 7.34191L16.2152 7.229C16.2284 7.0741 16.1575 6.99001 16.0027 6.97673C15.8478 6.96345 15.7636 7.03426 15.7503 7.18914L15.7436 7.26221L15.6241 7.44155C15.6104 7.46241 15.5994 7.48456 15.5908 7.50797L15.4115 7.97292L15.1525 8.65707L14.7473 9.4807L14.2292 10.3508L13.638 11.1213L13.0535 11.7191L12.562 12.111L12.2033 12.2704L11.9775 12.2837L11.7915 12.1907L11.5989 11.9848L11.4993 11.7058L11.5192 11.3272L11.7317 10.8291L12.1635 10.2512L12.7347 9.68661L13.3724 9.22165L13.9369 8.89619L14.3488 8.7102L14.6144 8.6305L14.7805 8.61057H15.0196C15.2233 8.61057 15.3252 8.50872 15.3252 8.30503C15.3252 8.10134 15.2233 7.99949 15.0196 7.99949Z" fill="black"/>
<path d="M14.8336 7.98617C14.8336 8.18543 14.9332 8.28506 15.1325 8.28506C15.3317 8.28506 15.4314 8.18543 15.4314 7.98617C15.4314 7.7869 15.3317 7.68727 15.1325 7.68727C14.9332 7.68727 14.8336 7.7869 14.8336 7.98617ZM15.2985 8.24521L15.3915 8.19207L15.6306 8.07916L16.089 7.92639L16.7133 7.77361L17.3908 7.74705L18.0418 7.87989L18.5665 8.15222L18.8787 8.48433L18.9584 8.74337L18.8986 8.92936L18.613 9.14191L18.0418 9.3146L17.351 9.39431L16.7133 9.38767L16.2218 9.3146L15.8897 9.15519C15.765 9.12051 15.6745 9.16142 15.6181 9.27791C15.5618 9.3944 15.5859 9.49076 15.6904 9.56701L16.0557 9.74635L16.5406 9.99211C16.5639 10.004 16.5882 10.0128 16.6137 10.0187L17.2779 10.1781C17.3193 10.1893 17.3613 10.1937 17.4041 10.1914L18.1547 10.1316C18.1864 10.1286 18.2174 10.1219 18.2477 10.1117L18.9252 9.88583C18.9713 9.87134 19.0133 9.8492 19.0514 9.81941L19.4831 9.48066C19.5475 9.4303 19.5918 9.36609 19.616 9.28803L19.7422 8.86293C19.7662 8.78544 19.7662 8.70795 19.7422 8.63046L19.5894 8.1655C19.5716 8.11029 19.5428 8.06159 19.503 8.01938L19.0779 7.57435C19.0523 7.5481 19.0235 7.52596 18.9916 7.50793L18.3739 7.14925C18.3365 7.12736 18.2967 7.11186 18.2543 7.10275L17.5104 6.94334C17.4709 6.93517 17.431 6.93296 17.3908 6.9367L16.627 7.00312C16.5999 7.00479 16.5734 7.00922 16.5473 7.0164L15.883 7.21567C15.8673 7.21909 15.8518 7.22352 15.8366 7.22896L15.3583 7.44815C15.3444 7.45606 15.3311 7.46492 15.3185 7.47472L15.0661 7.63413C15.0593 7.63831 15.0526 7.64274 15.0461 7.64741L14.9531 7.72048C14.7782 7.83561 14.7483 7.98063 14.8635 8.15554C14.9786 8.33045 15.1236 8.36034 15.2985 8.24521Z" fill="black"/>
<path d="M15.3119 8.66368H15.3052C15.2905 8.68873 15.2794 8.7153 15.272 8.74339L15.2388 8.8563C15.2323 8.87803 15.2279 8.90017 15.2255 8.92272L15.1923 9.30133C15.1906 9.32347 15.1906 9.34561 15.1923 9.36775L15.2388 10.0851C15.2385 10.094 15.2385 10.1028 15.2388 10.1117L15.3716 11.1014C15.3735 11.1125 15.3757 11.1236 15.3783 11.1346L15.6174 12.2903C15.6192 12.3015 15.6214 12.3125 15.624 12.3235L15.9495 13.4593L16.2285 14.4158L16.3746 15.1398C16.4056 15.2904 16.4964 15.3502 16.6469 15.3192C16.7975 15.2882 16.8573 15.1974 16.8263 15.0468L16.6735 14.3228L16.554 13.3398L16.461 12.1708C16.4611 12.1641 16.4611 12.1575 16.461 12.1508L16.3148 10.9818C16.3148 10.9796 16.3148 10.9774 16.3148 10.9752L16.1753 9.98547C16.1754 9.98326 16.1754 9.98105 16.1753 9.97883L16.0624 9.27476C16.0594 9.25452 16.055 9.2346 16.0491 9.21498L15.9362 8.84966C15.9295 8.82665 15.9207 8.80451 15.9097 8.78324L15.8565 8.67696C15.8544 8.67248 15.8522 8.66806 15.8499 8.66368H15.8432C15.7823 8.56483 15.6937 8.51541 15.5775 8.51541C15.4614 8.51541 15.3728 8.56483 15.3119 8.66368Z" fill="black"/>
<path d="M15.2455 8.86296L15.1592 8.94267C15.1081 8.99318 15.0727 9.05296 15.0529 9.122L14.92 9.5936C14.9119 9.62856 14.9075 9.66399 14.9068 9.69988L14.8403 10.6165C14.8402 10.6231 14.8402 10.6298 14.8403 10.6364L14.8071 11.8984C14.8082 11.9185 14.8104 11.9384 14.8138 11.9582L14.9333 13.3531C14.9333 13.3553 14.9333 13.3575 14.9333 13.3597L15.0662 14.6417L15.0728 15.6646C15.0728 15.8151 15.1481 15.8904 15.2987 15.8904C15.4492 15.8904 15.5245 15.8151 15.5245 15.6646L15.5178 14.6417L15.6507 13.3597L15.8234 11.9781C15.8261 11.965 15.8283 11.9517 15.83 11.9383L15.8898 10.6763L15.9363 9.75965C15.9373 9.72623 15.9351 9.69302 15.9297 9.66002L15.8566 9.17514C15.8487 9.11008 15.8266 9.0503 15.7902 8.9958L15.7238 8.90281C15.6678 8.82291 15.5912 8.7789 15.494 8.7708C15.3968 8.7627 15.3139 8.79342 15.2455 8.86296Z" fill="black"/>
<path d="M13.02 18.0394C13.02 18.2431 13.1219 18.3449 13.3256 18.3449C13.5292 18.3449 13.6311 18.2431 13.6311 18.0394C13.6311 17.8357 13.5292 17.7339 13.3256 17.7339C13.1219 17.7339 13.02 17.8357 13.02 18.0394ZM12.9868 18.0527C12.9868 18.1462 13.0199 18.2261 13.086 18.2922C13.1522 18.3584 13.232 18.3914 13.3256 18.3914C13.4191 18.3914 13.4989 18.3584 13.5651 18.2922C13.6312 18.2261 13.6643 18.1462 13.6643 18.0527C13.6643 17.9591 13.6312 17.8793 13.5651 17.8131C13.4989 17.747 13.4191 17.7139 13.3256 17.7139C13.232 17.7139 13.1522 17.747 13.086 17.8131C13.0199 17.8793 12.9868 17.9591 12.9868 18.0527ZM12.8805 18.0925C12.8805 18.2173 12.9246 18.3237 13.0128 18.4119C13.101 18.5001 13.2075 18.5442 13.3322 18.5442C13.4569 18.5442 13.5634 18.5001 13.6516 18.4119C13.7398 18.3237 13.7839 18.2173 13.7839 18.0925C13.7839 17.9678 13.7398 17.8613 13.6516 17.7732C13.5634 17.685 13.4569 17.6409 13.3322 17.6409C13.2075 17.6409 13.101 17.685 13.0128 17.7732C12.9246 17.8613 12.8805 17.9678 12.8805 18.0925ZM12.854 18.3981L12.927 18.5774C12.975 18.6959 13.0503 18.7934 13.1529 18.8697L13.4451 19.0889C13.4965 19.127 13.5518 19.158 13.6112 19.1819L14.116 19.3878C14.1696 19.4094 14.225 19.4249 14.282 19.4343L14.9927 19.5538C15.0498 19.5645 15.1074 19.5689 15.1654 19.5671L16.0953 19.5206C16.1379 19.5173 16.18 19.5106 16.2215 19.5007L17.271 19.2815C17.3329 19.2708 17.3927 19.2531 17.4504 19.2283L18.4467 18.77C18.5315 18.7301 18.6045 18.6748 18.6659 18.604L19.2437 17.9464L19.9146 17.601C20.0519 17.5302 20.0851 17.4261 20.0142 17.2888C19.9434 17.1516 19.8393 17.1183 19.7021 17.1892L19.0445 17.5279L18.1876 17.5014C18.1407 17.5009 18.0942 17.5053 18.0482 17.5147L16.9721 17.7073C16.9677 17.7072 16.9633 17.7072 16.9588 17.7073L15.9492 17.9066L15.1455 17.9597L14.5411 17.8933L14.0894 17.7803L13.7706 17.6807C13.7466 17.6727 13.7222 17.6661 13.6975 17.6608L13.5115 17.6209C13.2862 17.5731 13.0992 17.6371 12.9505 17.813C12.8017 17.9888 12.7695 18.1838 12.854 18.3981Z" fill="black"/>
<path d="M24.5109 3.75865L24.5242 3.66565C24.5304 3.63718 24.5326 3.6084 24.5308 3.57931L24.5043 3.39332L24.4843 3.16085L24.491 2.93501L24.5308 2.74903L24.584 2.58298C24.5863 2.57638 24.5885 2.56974 24.5906 2.56305L24.6371 2.41692C24.4139 2.44495 24.27 2.56672 24.2054 2.78224L24.2452 2.7756C24.341 2.7625 24.4289 2.72875 24.5089 2.67437C24.5889 2.61999 24.6525 2.55065 24.6999 2.46635C24.7473 2.38206 24.7735 2.29162 24.7784 2.19504C24.7834 2.09846 24.7665 2.00583 24.728 1.91715C24.6894 1.82847 24.6331 1.75301 24.5591 1.69077C24.485 1.62854 24.401 1.58602 24.3071 1.56324C24.2131 1.54045 24.1189 1.53978 24.0246 1.56121C23.9303 1.58264 23.8457 1.62394 23.7708 1.68511C23.6959 1.74628 23.6385 1.82092 23.5987 1.90903C23.5588 1.99715 23.5407 2.08953 23.5442 2.18617C23.5477 2.28282 23.5726 2.37362 23.6188 2.45859C23.665 2.54355 23.7277 2.6138 23.8068 2.66933L23.84 2.68925C23.8217 2.53855 23.7509 2.41899 23.6275 2.33057L23.6408 2.48999C23.6439 2.51019 23.6484 2.53012 23.6541 2.54977L23.7072 2.74903C23.7092 2.75573 23.7115 2.76237 23.7138 2.76896L23.7803 2.98815L23.84 3.23391L23.8799 3.47967L23.9131 3.66565C23.9178 3.69573 23.9266 3.72452 23.9397 3.752L23.9795 3.83171C24.0361 3.95997 24.1339 4.01454 24.2728 3.99545C24.4116 3.97635 24.491 3.89742 24.5109 3.75865ZM23.5079 2.25751L23.5279 2.38371L23.5677 2.78224C23.5677 2.78446 23.5677 2.78667 23.5677 2.78889L23.6673 3.63244C23.6692 3.648 23.6714 3.6635 23.674 3.67894L23.9264 5.2C23.9285 5.20667 23.9307 5.21331 23.933 5.21993L24.3714 7.45835C24.3735 7.46724 24.3757 7.47609 24.3781 7.48492L25.0157 10.2879C25.0197 10.3035 25.0241 10.319 25.029 10.3344L25.9058 13.3898C25.9077 13.401 25.9099 13.412 25.9124 13.423L26.9353 16.4652L27.6859 19.1685L28.1907 21.2608C28.2314 21.398 28.3213 21.4497 28.4604 21.416C28.5994 21.3823 28.6556 21.2951 28.6291 21.1545L28.1243 19.0689L27.5796 16.3124L27.1877 13.1308C27.1878 13.1264 27.1878 13.1219 27.1877 13.1175L26.7294 9.9691C26.7273 9.9602 26.7251 9.95135 26.7228 9.94253L26.2047 7.11295C26.2047 7.11074 26.2047 7.10852 26.2047 7.10631L25.7796 4.86789C25.7777 4.85234 25.7755 4.83684 25.7729 4.8214L25.4142 3.3269C25.4088 3.30003 25.4022 3.27346 25.3943 3.2472L25.122 2.44349C25.1126 2.41407 25.1015 2.38528 25.0888 2.35714L24.9161 1.98518C24.8973 1.94555 24.8752 1.90791 24.8497 1.87226L24.77 1.75935C24.6775 1.62706 24.5539 1.53765 24.3994 1.49113C24.2448 1.44462 24.0924 1.45099 23.9423 1.51026C23.7922 1.56952 23.6765 1.66893 23.5954 1.80849C23.5143 1.94804 23.4851 2.09771 23.5079 2.25751Z" fill="black"/>
<path d="M24.6306 9.01259C24.6306 9.21629 24.7324 9.31813 24.9361 9.31813C25.1398 9.31813 25.2417 9.21629 25.2417 9.01259C25.2417 8.8089 25.1398 8.70705 24.9361 8.70705C24.7324 8.70705 24.6306 8.8089 24.6306 9.01259ZM24.5708 9.01259C24.5708 9.11164 24.6058 9.19618 24.6759 9.26622C24.7459 9.33625 24.8304 9.37127 24.9295 9.37127C25.0285 9.37127 25.1131 9.33625 25.1831 9.26622C25.2531 9.19618 25.2882 9.11164 25.2882 9.01259C25.2882 8.91355 25.2531 8.82901 25.1831 8.75897C25.1131 8.68893 25.0285 8.65392 24.9295 8.65391C24.8304 8.65392 24.7459 8.68893 24.6759 8.75897C24.6058 8.82901 24.5708 8.91355 24.5708 9.01259ZM24.4579 8.94617L24.3582 9.27164C24.3379 9.34106 24.3291 9.41191 24.3317 9.48419L24.3582 10.4075C24.3609 10.4545 24.3676 10.501 24.3782 10.5469L24.7103 12.1477C24.7123 12.1588 24.7145 12.1699 24.7169 12.1809L25.2682 14.3596C25.2703 14.3685 25.2725 14.3773 25.2749 14.3861L25.9922 16.9168C25.9944 16.9212 25.9966 16.9257 25.9989 16.9301L26.7959 19.5471C26.7959 19.5515 26.7959 19.556 26.7959 19.5604L27.5996 22.0711C27.5996 22.0734 27.5996 22.0756 27.5996 22.0778L28.3303 24.3029C28.3345 24.3119 28.339 24.3207 28.3436 24.3295L29.0144 26.0963C29.0204 26.1121 29.027 26.1276 29.0344 26.1428L29.6122 27.3318L29.8978 28.1089L29.9975 28.5406C30.0382 28.6778 30.1281 28.7295 30.2672 28.6958C30.4062 28.6621 30.4624 28.5749 30.4359 28.4344L30.3296 27.996L30.1901 27.1723L30.0838 25.8572C30.0829 25.8349 30.0807 25.8128 30.0772 25.7908L29.7052 23.9376C29.7013 23.9219 29.6969 23.9065 29.6919 23.8911L29.0875 21.6328C29.0854 21.6261 29.0832 21.6194 29.0808 21.6128L28.3436 19.0888L27.5864 16.4651L26.9022 13.9411L26.3642 11.7757L25.9922 10.1949C25.9838 10.1565 25.9728 10.1188 25.959 10.082L25.6336 9.22514C25.6105 9.16535 25.5795 9.11 25.5406 9.05909L25.3347 8.78676C25.2093 8.62826 25.0472 8.56709 24.8484 8.60324C24.6496 8.63939 24.5194 8.7537 24.4579 8.94617Z" fill="black"/>
<path d="M21.2562 30.0418C21.2562 30.2455 21.358 30.3474 21.5617 30.3474C21.7654 30.3474 21.8673 30.2455 21.8673 30.0418C21.8673 29.8382 21.7654 29.7363 21.5617 29.7363C21.358 29.7363 21.2562 29.8382 21.2562 30.0418ZM21.1698 30.0418C21.1698 30.1519 21.2087 30.2458 21.2866 30.3237C21.3644 30.4015 21.4583 30.4404 21.5684 30.4404C21.6784 30.4404 21.7724 30.4015 21.8502 30.3237C21.928 30.2458 21.9669 30.1519 21.9669 30.0418C21.9669 29.9318 21.928 29.8379 21.8502 29.76C21.7724 29.6822 21.6784 29.6433 21.5684 29.6433C21.4583 29.6433 21.3644 29.6822 21.2866 29.76C21.2087 29.8379 21.1698 29.9318 21.1698 30.0418ZM21.0702 30.0684C21.0702 30.2152 21.1221 30.3404 21.2258 30.4442C21.3296 30.5479 21.4548 30.5998 21.6016 30.5998C21.7483 30.5998 21.8736 30.5479 21.9773 30.4442C22.0811 30.3404 22.133 30.2152 22.133 30.0684C22.133 29.9217 22.0811 29.7964 21.9773 29.6927C21.8736 29.5889 21.7483 29.537 21.6016 29.537C21.4548 29.537 21.3296 29.5889 21.2258 29.6927C21.1221 29.7964 21.0702 29.9217 21.0702 30.0684ZM21.1233 30.4669L21.2628 30.7061C21.3117 30.7963 21.3759 30.8738 21.4555 30.9385L21.854 31.2574C21.9052 31.2993 21.9605 31.3347 22.02 31.3636L22.7042 31.6825C22.7513 31.7046 22.8 31.7223 22.8503 31.7356L23.8068 31.9814C23.8547 31.9945 23.9034 32.0034 23.9529 32.0079L25.1286 32.1009C25.1819 32.1037 25.2351 32.1015 25.288 32.0943L26.5766 31.9614C26.6216 31.9562 26.6659 31.9473 26.7094 31.9349L27.9714 31.5961C28.0417 31.5761 28.1081 31.5473 28.1707 31.5098L29.2335 30.8987C29.32 30.8498 29.3931 30.7856 29.4526 30.7061L30.0637 29.8625L30.6017 29.1584C30.6017 29.1562 30.6017 29.154 30.6017 29.1518L31.0003 28.6204C31.0604 28.5062 31.0385 28.4107 30.9348 28.3338C30.8311 28.257 30.7334 28.264 30.6416 28.3547L30.263 28.8529L29.6187 29.3245L28.6755 29.6101C28.6688 29.6122 28.6622 29.6144 28.6556 29.6167L27.5264 29.9954L26.3507 30.2943L25.195 30.3939L24.1655 30.3142L23.3485 30.095L22.7108 29.8293L22.2525 29.6234C22.2159 29.6072 22.1783 29.5939 22.1396 29.5835L21.8673 29.5105C21.5863 29.4352 21.3566 29.5123 21.178 29.7419C20.9995 29.9715 20.9812 30.2132 21.1233 30.4669Z" fill="black"/>
<path d="M28.4033 24.9207C28.4033 25.1066 28.4963 25.1996 28.6823 25.1996C28.8683 25.1996 28.9613 25.1066 28.9613 24.9207C28.9613 24.7347 28.8683 24.6417 28.6823 24.6417C28.4963 24.6417 28.4033 24.7347 28.4033 24.9207ZM28.3568 24.9406C28.3568 25.0341 28.3899 25.114 28.456 25.1801C28.5222 25.2463 28.602 25.2793 28.6956 25.2793C28.7891 25.2793 28.8689 25.2463 28.9351 25.1801C29.0012 25.114 29.0343 25.0341 29.0343 24.9406C29.0343 24.847 29.0012 24.7672 28.9351 24.701C28.8689 24.6349 28.7891 24.6018 28.6956 24.6018C28.602 24.6018 28.5222 24.6349 28.456 24.701C28.3899 24.7672 28.3568 24.847 28.3568 24.9406ZM28.2771 24.8941L28.2173 25.1C28.1829 25.2167 28.1806 25.3341 28.2107 25.452L28.317 25.8971C28.3254 25.9333 28.3365 25.9687 28.3502 26.0033L28.5893 26.5812L28.8483 27.2056L29.0742 27.8366L29.2336 28.4144L29.3266 28.9193L29.3864 29.351C29.3925 29.3987 29.4035 29.4452 29.4196 29.4905L29.5192 29.7628C29.5234 29.7718 29.5278 29.7807 29.5325 29.7894L29.5856 29.9222C29.6647 29.817 29.678 29.7041 29.6255 29.5835L29.5657 29.6765C29.4877 29.7934 29.4895 29.9091 29.5713 30.0236C29.653 30.138 29.7618 30.1773 29.8978 30.1414L29.9974 30.1082L30.1369 30.0684C30.2225 30.0416 30.2956 29.9951 30.3561 29.9289L30.5554 29.723C30.6484 29.623 30.706 29.5057 30.7281 29.3709L30.8011 28.9259C30.8148 28.851 30.817 28.7757 30.8078 28.7001L30.7347 28.1421C30.7284 28.1061 30.7195 28.0706 30.7081 28.0358L30.5288 27.3982C30.5249 27.3826 30.5204 27.3671 30.5155 27.3517L30.2764 26.6808C30.2723 26.6674 30.2679 26.6541 30.2631 26.641L29.9974 25.9967C29.9953 25.99 29.9931 25.9834 29.9908 25.9768L29.7317 25.4122C29.7136 25.368 29.6915 25.3259 29.6653 25.286L29.3996 24.9074C29.3337 24.8149 29.2495 24.7441 29.1472 24.6948L28.9546 24.6018C28.8208 24.536 28.6854 24.5326 28.5484 24.5916C28.4115 24.6507 28.321 24.7515 28.2771 24.8941ZM29.8978 29.6831L29.8447 29.6233C29.7425 29.5212 29.6383 29.519 29.5321 29.6168C29.4258 29.7146 29.4193 29.8186 29.5126 29.9289L29.5657 29.9886C29.6678 30.0908 29.772 30.0929 29.8783 29.9952C29.9846 29.8974 29.9911 29.7934 29.8978 29.6831Z" fill="black"/>
<path d="M29.3398 29.2979H29.3332C29.2459 29.2851 29.1681 29.3067 29.1 29.3628C29.0318 29.4189 28.9956 29.491 28.9913 29.5792C28.987 29.6673 29.0161 29.7426 29.0785 29.805C29.1409 29.8674 29.2162 29.8965 29.3044 29.8922C29.3925 29.8879 29.4646 29.8517 29.5207 29.7835C29.5768 29.7154 29.5984 29.6376 29.5856 29.5503V29.5437C29.5643 29.4012 29.4823 29.3192 29.3398 29.2979ZM29.1605 29.4308L29.1406 29.444C29.0212 29.5238 29.0014 29.6234 29.081 29.7428C29.1606 29.8622 29.2602 29.8822 29.3797 29.8027L29.3996 29.7894C29.5192 29.7097 29.5391 29.6101 29.4594 29.4905C29.3797 29.371 29.2801 29.351 29.1605 29.4308Z" fill="black"/>
<path d="M17.6229 19.5937C17.6229 19.7929 17.7226 19.8926 17.9218 19.8926C18.1211 19.8926 18.2207 19.7929 18.2207 19.5937C18.2207 19.3944 18.1211 19.2948 17.9218 19.2948C17.7226 19.2948 17.6229 19.3944 17.6229 19.5937ZM18.1078 19.3612L18.0813 19.3346L18.0879 19.3413H18.0813C18.0056 19.2456 17.9072 19.2041 17.7859 19.2169C17.6646 19.2297 17.5769 19.2908 17.5229 19.4002C17.4689 19.5095 17.4737 19.6162 17.5373 19.7203C17.6009 19.8244 17.6936 19.8774 17.8156 19.8793H17.8421C17.8045 19.8603 17.7646 19.8492 17.7226 19.8461L17.7425 19.8594C17.7618 19.868 17.7817 19.8747 17.8023 19.8793L17.8421 19.8859C17.9935 19.9156 18.104 19.8617 18.1736 19.7241C18.2433 19.5865 18.2213 19.4656 18.1078 19.3612ZM17.3905 19.5272C17.3905 19.6446 17.432 19.7448 17.515 19.8278C17.598 19.9108 17.6982 19.9523 17.8156 19.9523C17.933 19.9523 18.0332 19.9108 18.1162 19.8278C18.1992 19.7448 18.2407 19.6446 18.2407 19.5272C18.2407 19.4099 18.1992 19.3097 18.1162 19.2267C18.0332 19.1436 17.933 19.1021 17.8156 19.1021C17.6982 19.1021 17.598 19.1436 17.515 19.2267C17.432 19.3097 17.3905 19.4099 17.3905 19.5272ZM17.6296 19.0224L17.6163 19.0291C17.3371 19.1309 17.2064 19.3302 17.2244 19.6269L17.2377 19.8992C17.2416 19.9466 17.2505 19.9931 17.2643 20.0387L17.4038 20.5568C17.4095 20.577 17.4162 20.5969 17.4237 20.6166L17.7226 21.407L18.1211 22.4631L18.5794 23.7915L19.0776 25.2528C19.0776 25.255 19.0776 25.2572 19.0776 25.2595L19.5757 26.6942C19.585 26.7215 19.596 26.7481 19.609 26.7739L20.1868 27.9363C20.189 27.9385 20.1912 27.9407 20.1935 27.9429L20.6451 28.8064L20.8577 29.4374C20.9145 29.5616 21.0074 29.6014 21.1365 29.5571C21.2656 29.5127 21.3144 29.4241 21.2828 29.2913L21.0702 28.6669L20.944 27.7038L20.7713 26.4152C20.7684 26.3906 20.764 26.3662 20.7581 26.3421L20.3861 24.8676C20.3841 24.8587 20.3818 24.8498 20.3795 24.841L19.9411 23.3598C19.939 23.3509 19.9368 23.342 19.9344 23.3332L19.4828 21.9849C19.4806 21.9804 19.4784 21.976 19.4761 21.9716L19.0776 20.8955C19.0755 20.8889 19.0733 20.8822 19.0709 20.8756L18.7588 20.0985C18.7547 20.0851 18.7503 20.0718 18.7455 20.0586L18.5196 19.5737C18.506 19.5461 18.4905 19.5195 18.4731 19.494L18.327 19.2682C18.1947 19.0615 18.0065 18.9708 17.7624 18.9959H17.7491C17.7082 18.9999 17.6684 19.0088 17.6296 19.0224Z" fill="black"/>
<path d="M17.1714 19.2217C17.1714 19.4254 17.2732 19.5272 17.4769 19.5272C17.6806 19.5272 17.7825 19.4254 17.7825 19.2217C17.7825 19.018 17.6806 18.9162 17.4769 18.9162C17.2732 18.9162 17.1714 19.018 17.1714 19.2217ZM17.3972 18.9162H17.3839C17.2613 18.9449 17.1772 19.018 17.1315 19.1354L17.0784 19.2748C17.062 19.3222 17.0531 19.3709 17.0518 19.421L17.0252 19.8594C17.0227 19.9153 17.0271 19.9706 17.0385 20.0254L17.2046 20.9155C17.2113 20.9492 17.2202 20.9824 17.2312 21.0151L17.6563 22.3103C17.6562 22.3148 17.6562 22.3192 17.6563 22.3236L18.2076 23.931C18.2097 23.9355 18.2119 23.9399 18.2142 23.9443L18.8253 25.6513C18.8274 25.658 18.8296 25.6647 18.8319 25.6713L19.4496 27.2521C19.4558 27.2678 19.4624 27.2833 19.4696 27.2986L20.0674 28.5806C20.0736 28.594 20.0802 28.6073 20.0873 28.6204L20.5655 29.5171C20.615 29.6082 20.6836 29.6813 20.7714 29.7363L21.1766 29.9953L21.3028 30.2544C21.3778 30.3576 21.4724 30.3807 21.5865 30.3237C21.7007 30.2666 21.739 30.1771 21.7013 30.0551L21.5818 29.8094L21.6748 29.351C21.6908 29.2615 21.6864 29.1729 21.6615 29.0854L21.4024 28.0957C21.3982 28.0867 21.3938 28.0779 21.3892 28.0691L20.9641 26.7207C20.9619 26.7141 20.9597 26.7074 20.9574 26.7008L20.4128 25.0934C20.4106 25.0912 20.4083 25.089 20.4061 25.0868L19.815 23.3797C19.815 23.3775 19.815 23.3753 19.815 23.3731L19.2437 21.7723C19.2416 21.7679 19.2393 21.7634 19.2371 21.759L18.7589 20.4771C18.7459 20.4405 18.7304 20.4051 18.7124 20.3708L18.274 19.5737C18.2476 19.5303 18.2166 19.4905 18.181 19.4542L17.8887 19.1221C17.8574 19.0882 17.822 19.0595 17.7825 19.0357L17.6629 18.9627C17.63 18.9414 17.5946 18.9259 17.5566 18.9162H17.5433C17.4946 18.9047 17.4459 18.9047 17.3972 18.9162Z" fill="black"/>
<path d="M15.3447 19.3479C15.3447 19.5472 15.4443 19.6468 15.6436 19.6468C15.8428 19.6468 15.9425 19.5472 15.9425 19.3479C15.9425 19.1486 15.8428 19.049 15.6436 19.049C15.4443 19.049 15.3447 19.1486 15.3447 19.3479ZM15.9358 19.4475L15.9425 19.4143C15.8651 19.4525 15.8119 19.5123 15.7831 19.5937L15.8163 19.5804C15.8231 19.5762 15.8297 19.5717 15.8362 19.5671L15.8628 19.5538C15.9983 19.4756 16.0669 19.3582 16.0687 19.2018V19.1619C16.0715 19.0335 16.0255 18.9259 15.9307 18.8392C15.836 18.7524 15.7248 18.7161 15.5971 18.7302H15.5772C15.4202 18.7494 15.305 18.8291 15.2318 18.9693L15.1587 19.0955C15.1414 19.1294 15.1281 19.1649 15.1188 19.2018L15.0259 19.5339C15.0162 19.5665 15.0096 19.5997 15.0059 19.6335L14.8332 21.4535C14.8308 21.4645 14.8285 21.4756 14.8266 21.4867L14.7535 23.1738C14.7535 23.176 14.7535 23.1782 14.7535 23.1805L14.6672 25.2927C14.6671 25.2971 14.6671 25.3015 14.6672 25.306L14.6207 27.551C14.6206 27.5577 14.6206 27.5643 14.6207 27.5709L14.6406 29.6167C14.6423 29.6301 14.6446 29.6434 14.6472 29.6566L14.7867 31.2574L14.8266 32.3799L14.8399 33.0574C14.8391 33.082 14.8414 33.1064 14.8465 33.1305L14.9196 33.4294L14.9262 33.5157C14.9351 33.6663 15.0148 33.7371 15.1653 33.7283C15.3159 33.7194 15.3867 33.6397 15.3779 33.4891L15.3712 33.4094L15.4377 33.1172C15.4396 33.0972 15.4396 33.0773 15.4377 33.0574L15.451 32.3865L15.5174 31.2706L15.7499 29.6898C15.7502 29.6787 15.7502 29.6677 15.7499 29.6566L15.9292 27.6241C15.9315 27.6175 15.9337 27.6108 15.9358 27.6042L16.0753 25.3657C16.0754 25.3613 16.0754 25.3569 16.0753 25.3524L16.175 23.2402C16.175 23.238 16.175 23.2358 16.175 23.2336L16.2347 21.5465C16.2356 21.5265 16.2356 21.5066 16.2347 21.4867L16.1484 19.6601C16.1466 19.6467 16.1444 19.6334 16.1417 19.6202L16.1019 19.2748C16.1019 19.2704 16.1019 19.266 16.1019 19.2616L16.0753 19.1154C16.0685 19.0566 16.0508 19.0012 16.0222 18.9494L16.0155 18.9361C15.9486 18.838 15.8568 18.7779 15.74 18.7558C15.6233 18.7338 15.5159 18.7562 15.4177 18.8232C15.3196 18.8901 15.2595 18.982 15.2375 19.0987C15.2154 19.2154 15.2379 19.3228 15.3048 19.421L15.3314 19.4475C15.3414 19.4638 15.3525 19.4793 15.3646 19.494L15.3912 19.514C15.3996 19.5233 15.4084 19.5321 15.4177 19.5405L15.4443 19.5605C15.4252 19.5022 15.392 19.4535 15.3447 19.4143L15.3513 19.4475C15.402 19.5825 15.4994 19.65 15.6436 19.65C15.7877 19.65 15.8852 19.5825 15.9358 19.4475Z" fill="black"/>
<path d="M14.9661 24.4558L14.9594 24.4956L14.893 24.6816C14.8876 24.6968 14.8832 24.7123 14.8797 24.7281L14.7602 25.2595C14.7562 25.2837 14.754 25.308 14.7535 25.3325L14.6738 26.2492C14.6737 26.2558 14.6737 26.2624 14.6738 26.2691L14.614 27.4846L14.5543 28.8396L14.4812 30.1216L14.4347 31.2042L14.3948 32.0412C14.3948 32.0434 14.3948 32.0456 14.3948 32.0478L14.3749 32.6257L14.355 32.9976C14.3542 33.0153 14.3542 33.0331 14.355 33.0508L14.3616 33.2633C14.3662 33.3406 14.3861 33.4136 14.4214 33.4825L14.4413 33.529C14.6548 33.6661 14.8579 33.6521 15.0506 33.487C15.2432 33.3218 15.2881 33.1233 15.1853 32.8914L15.1521 32.8648C15.1815 32.9688 15.2413 33.0507 15.3314 33.1105L15.3048 33.0242L15.3115 32.8714L15.3513 32.6522L15.3978 32.4131L15.4642 32.2006L15.5572 31.988C15.5618 31.9815 15.5663 31.9748 15.5705 31.9681L15.6436 31.7755L15.6967 31.6692C15.6416 31.5865 15.5694 31.523 15.4804 31.4789C15.3913 31.4347 15.2972 31.4157 15.1979 31.4219C15.0987 31.428 15.0076 31.4585 14.9247 31.5134C14.8418 31.5682 14.7781 31.6401 14.7336 31.729L14.7402 31.7423C14.7447 31.6216 14.7138 31.5109 14.6472 31.4101L14.6406 31.5828C14.6403 31.5939 14.6403 31.605 14.6406 31.6161L14.6472 31.8817C14.6488 31.9411 14.6598 31.9987 14.6805 32.0544L14.7734 32.3068C14.7941 32.3621 14.8251 32.4108 14.8664 32.453L14.9063 32.4928L14.8996 32.5659C14.8865 32.7164 14.9551 32.7982 15.1056 32.8115C15.256 32.8248 15.338 32.7562 15.3513 32.6057L15.358 32.5327L15.3978 32.5127C15.4548 32.4729 15.4991 32.4219 15.5307 32.36L15.6569 32.1209C15.6853 32.0709 15.7052 32.0178 15.7166 31.9614L15.7631 31.7024C15.7672 31.676 15.7694 31.6494 15.7698 31.6227L15.7764 31.45C15.7842 31.2389 15.7001 31.0751 15.524 30.9585L15.5107 30.9518C15.3132 30.8161 15.1118 30.8101 14.9066 30.9339C14.7014 31.0577 14.6127 31.2385 14.6406 31.4766L14.6539 31.6161L14.6805 31.8419C14.6804 31.8463 14.6804 31.8507 14.6805 31.8552L14.707 32.0876L14.7137 32.3002L14.6738 32.526L14.6273 32.7452L14.5808 32.9179L14.521 33.0176C14.6104 32.9785 14.679 32.9165 14.727 32.8316L14.6871 32.8449C14.4776 33.0406 14.4512 33.2584 14.6081 33.4984C14.7649 33.7384 14.975 33.8018 15.2384 33.6884L15.2783 33.6552C15.3754 33.57 15.4352 33.4637 15.4576 33.3364L15.4908 33.1238C15.4943 33.1018 15.4965 33.0797 15.4974 33.0574L15.5174 32.6788C15.5174 32.6766 15.5174 32.6744 15.5174 32.6722L15.5373 32.0876L15.5772 31.2574L15.6236 30.1747L15.6834 28.8928C15.6856 28.8928 15.6879 28.8928 15.6901 28.8928L15.7432 27.5377C15.7432 27.5355 15.7432 27.5333 15.7432 27.5311L15.7897 26.3156C15.79 26.3045 15.79 26.2934 15.7897 26.2824L15.7698 25.3591C15.7693 25.3346 15.7671 25.3102 15.7631 25.286L15.6635 24.748C15.661 24.7255 15.6565 24.7034 15.6502 24.6816L15.5838 24.4956L15.5772 24.4558C15.5425 24.2904 15.4406 24.2076 15.2716 24.2076C15.1026 24.2076 15.0007 24.2904 14.9661 24.4558Z" fill="black"/>
<path d="M20.6679 0.738387L20.5284 0.638754C20.5094 0.625877 20.4895 0.614807 20.4686 0.605543L20.2627 0.499268C20.239 0.48848 20.2147 0.479623 20.1896 0.472699L19.8575 0.366424C19.8378 0.360927 19.8179 0.356498 19.7977 0.35314L19.3527 0.260149C19.3417 0.257632 19.3306 0.255418 19.3195 0.253507L18.7217 0.160516C18.7107 0.158014 18.6996 0.1558 18.6885 0.153874L17.9446 0.0808101C17.9379 0.078494 17.9313 0.0762799 17.9246 0.0741679L16.9947 0.00110376C16.9748 0.000287909 16.9549 0.000287909 16.9349 0.00110376H15.7726C15.7482 -4.24002e-05 15.7238 -4.24002e-05 15.6995 0.00110376L14.3711 0.120663C14.351 0.122131 14.3311 0.124345 14.3113 0.127305L12.8766 0.366424C12.8609 0.370394 12.8454 0.374822 12.8301 0.379709L11.3223 0.71846C11.3067 0.722433 11.2912 0.726862 11.2758 0.731745L9.72816 1.16349C9.71022 1.16952 9.69251 1.17616 9.67503 1.18341L8.17389 1.71479C8.15819 1.72096 8.14269 1.7276 8.1274 1.73472L6.75246 2.33251C6.72982 2.34258 6.70768 2.35365 6.68604 2.36572L5.49045 3.01666C5.46301 3.03067 5.43644 3.04616 5.41074 3.06315L4.38784 3.76723C4.36235 3.78577 4.338 3.80569 4.31478 3.82701L3.45129 4.57757C3.42562 4.59826 3.40127 4.6204 3.37823 4.644L2.6808 5.41449C2.65652 5.44396 2.63438 5.47496 2.61438 5.50748L2.10957 6.24476C2.08445 6.28065 2.06231 6.31829 2.04315 6.35768L1.72432 7.04183C1.70506 7.08479 1.68956 7.12907 1.67783 7.17467L1.50513 7.79239C1.48883 7.84444 1.47775 7.89758 1.47192 7.95181L1.43207 8.50975C1.42552 8.58787 1.42995 8.66536 1.44535 8.74223L1.54498 9.23375C1.57585 9.37884 1.64005 9.50725 1.73761 9.619L2.083 10.0242C2.17595 10.1336 2.28886 10.2155 2.42175 10.2699L3.11254 10.5555C3.17905 10.5815 3.24768 10.5992 3.31845 10.6087L4.38784 10.7681C4.42314 10.7724 4.45856 10.7746 4.49412 10.7747L5.9089 10.8212C5.92883 10.8219 5.94876 10.8219 5.96868 10.8212L7.68237 10.7814C7.69344 10.7816 7.70451 10.7816 7.71558 10.7814L9.62853 10.6485C9.64182 10.6488 9.6551 10.6488 9.66838 10.6485L11.6943 10.4161C11.7165 10.4147 11.7386 10.4124 11.7607 10.4094L13.8131 10.0375C13.8377 10.0318 13.8621 10.0252 13.8862 10.0175L15.8988 9.4928C15.9212 9.487 15.9433 9.48036 15.9652 9.47287L17.8516 8.80865C17.8741 8.80067 17.8962 8.79182 17.918 8.78208L19.6117 8.03151C19.6343 8.02136 19.6565 8.01029 19.6782 7.9983L21.1727 7.17467C21.2 7.16055 21.2266 7.14505 21.2524 7.12818L22.4745 6.26469C22.5096 6.24051 22.5429 6.21394 22.5742 6.18498L23.4974 5.31486C23.5364 5.27818 23.5718 5.23832 23.6037 5.1953L24.2281 4.35174C24.2748 4.28807 24.3124 4.21944 24.341 4.14583L24.6465 3.34877C24.7002 3.20928 24.7179 3.06537 24.6997 2.91703L24.6133 2.17974C24.592 1.9964 24.5212 1.83477 24.4008 1.69486L23.876 1.08378C23.7922 0.987546 23.6926 0.912268 23.5771 0.857947L22.6406 0.406277C22.5646 0.368563 22.4849 0.341994 22.4015 0.326571L21.2059 0.120663C21.1399 0.108848 21.0735 0.104419 21.0066 0.107379L19.7313 0.173801C19.6067 0.181368 19.4894 0.214579 19.3793 0.273434L18.3829 0.804809C18.3694 0.810857 18.3561 0.817499 18.3431 0.824736L17.5859 1.31626L16.9748 1.59523C16.8242 1.66165 16.7822 1.77014 16.8486 1.9207C16.915 2.07125 17.0235 2.11332 17.1741 2.0469L17.7652 1.78121L18.5955 1.74136L19.6715 1.88084C19.7002 1.88451 19.729 1.88673 19.7579 1.88749L20.9601 1.91406L21.9631 2.09339L22.6273 2.41222L22.8598 2.67791L22.8863 2.91703L22.707 3.38862L22.2155 4.07277L21.3985 4.84326L20.2693 5.64032L18.8545 6.41082L17.2272 7.11489L15.4006 7.7459L13.4611 8.25071L11.4618 8.60938L9.48905 8.82858L7.61595 8.94814L5.94212 8.99463L4.58711 8.96806L3.66384 8.8485L3.23874 8.68909L3.14575 8.5961L3.1059 8.47654L3.12583 8.15771L3.25867 7.67948L3.51772 7.12153L3.94946 6.49052L4.58047 5.79309L5.37089 5.10231L6.32072 4.44473L7.44325 3.83365L8.75176 3.25578L10.2064 2.75097L11.7075 2.31923L13.1755 1.98048L14.5703 1.72143L15.8523 1.55538L16.9748 1.46239L17.8715 1.44246L18.6021 1.45574L19.1999 1.48231C19.2088 1.4825 19.2176 1.4825 19.2265 1.48231H19.6848C19.716 1.48264 19.747 1.48042 19.7778 1.47567L20.1232 1.42253C20.1622 1.416 20.1998 1.40493 20.2361 1.38932L20.4553 1.29633C20.4814 1.28364 20.5058 1.26814 20.5284 1.24984L20.6679 1.1502C20.7388 1.0999 20.7743 1.03127 20.7743 0.944295C20.7743 0.857323 20.7388 0.788687 20.6679 0.738387Z" fill="black"/>
<path d="M2.20914 7.94511L2.22907 7.91854C2.38272 7.75405 2.37907 7.59313 2.2181 7.43578C2.05714 7.27843 1.89618 7.27843 1.73522 7.43578C1.57426 7.59313 1.5706 7.75405 1.72426 7.91854L1.74419 7.94511C1.80622 8.01433 1.88371 8.04894 1.97666 8.04894C2.06961 8.04894 2.1471 8.01433 2.20914 7.94511ZM1.53164 7.61964C1.53168 7.73884 1.57385 7.84057 1.65814 7.92484C1.74244 8.0091 1.84418 8.05124 1.96338 8.05124C2.08257 8.05124 2.18432 8.0091 2.26861 7.92484C2.35291 7.84057 2.39508 7.73884 2.39512 7.61964C2.39508 7.50045 2.35291 7.39872 2.26861 7.31445C2.18432 7.23018 2.08257 7.18805 1.96338 7.18805C1.84418 7.18805 1.74244 7.23018 1.65814 7.31445C1.57385 7.39872 1.53168 7.50045 1.53164 7.61964ZM2.0298 7.06834L1.97002 7.05506C1.70973 7.00536 1.5149 7.09613 1.38551 7.32739L1.25931 7.55322C1.23568 7.59746 1.21796 7.64396 1.20617 7.69271L1.06004 8.23737C1.05307 8.27024 1.04864 8.30345 1.04676 8.337L0.94048 9.36654C0.936617 9.3952 0.934403 9.42398 0.933838 9.45289L0.947122 11.1666C0.946801 11.1799 0.946801 11.1931 0.947122 11.2064L1.09989 13.7305C1.09986 13.7349 1.09986 13.7393 1.09989 13.7437L1.3523 16.9386C1.35215 16.9475 1.35215 16.9564 1.3523 16.9652L1.74419 20.4656C1.74605 20.479 1.74826 20.4923 1.75083 20.5055L2.30877 23.9063C2.31087 23.913 2.31308 23.9196 2.31541 23.9262L2.91985 26.9351L3.41802 29.406C3.41799 29.4082 3.41799 29.4105 3.41802 29.4127L3.82983 31.2061L4.08224 32.3684C4.12579 32.4939 4.21252 32.5429 4.34244 32.5153C4.47236 32.4877 4.53175 32.4078 4.52062 32.2755L4.26822 31.1197L4.00917 29.3064L3.69699 26.8156L3.49772 23.7668L3.27189 20.3328C3.27193 20.3284 3.27193 20.3239 3.27189 20.3195L2.99956 16.8124L2.76044 13.6175L2.59439 11.1068C2.59447 11.1002 2.59447 11.0935 2.59439 11.0869L2.44826 9.37982C2.44604 9.37982 2.44383 9.37982 2.44162 9.37982L2.35527 8.3835L2.36855 7.89862L2.40176 7.68607C2.37942 7.7326 2.36392 7.78131 2.35527 7.83219L2.38184 7.77906C2.45195 7.63155 2.45076 7.48463 2.37827 7.33828C2.30578 7.19193 2.18962 7.10195 2.0298 7.06834Z" fill="black"/>
<path d="M1.80396 12.07L1.79068 12.0833C1.77904 12.0914 1.76797 12.1003 1.75747 12.1098L1.65119 12.2028C1.58787 12.2592 1.54359 12.3278 1.51835 12.4087L1.33237 13.0065C1.31453 13.0582 1.30346 13.1114 1.29916 13.1659L1.22609 14.5741C1.22493 14.5984 1.22493 14.6228 1.22609 14.6471L1.32573 16.9852C1.32779 16.9941 1.33 17.0029 1.33237 17.0118L1.57149 20.2067C1.57145 20.2111 1.57145 20.2155 1.57149 20.2199L1.89696 23.8067C1.89695 23.8089 1.89695 23.8111 1.89696 23.8134L2.23571 27.3536C2.23555 27.3625 2.23555 27.3714 2.23571 27.3802L2.65417 30.4489C2.6576 30.4691 2.66203 30.489 2.66745 30.5087L3.21211 32.8135L3.49772 34.401L3.63721 35.3508C3.65935 35.5014 3.7457 35.5656 3.89626 35.5435C4.04681 35.5213 4.11102 35.435 4.08888 35.2844L3.94939 34.3346L3.84312 32.7405L3.88297 30.3825C3.88355 30.367 3.88355 30.3515 3.88297 30.336L3.71692 27.2407C3.7148 27.2341 3.71258 27.2274 3.71027 27.2208L3.42466 23.6805L3.13905 20.0871L2.91985 16.8988L2.7538 14.5608C2.75194 14.5474 2.74972 14.5342 2.74716 14.5209L2.5811 13.1194C2.57863 13.0903 2.5742 13.0616 2.56782 13.0331L2.40176 12.4286C2.38776 12.3708 2.36341 12.3176 2.3287 12.2692L2.24235 12.1563C2.2198 12.1276 2.19323 12.1032 2.16264 12.0833L2.14936 12.07C2.03423 11.9911 1.9191 11.9911 1.80396 12.07Z" fill="black"/>
<path d="M3.72347 29.1603L3.6969 29.167C3.65951 29.1718 3.62409 29.1828 3.59062 29.2002L3.53749 29.2268C3.53524 29.2289 3.53303 29.2311 3.53084 29.2334L3.43785 29.2799C3.43783 29.2821 3.43783 29.2843 3.43785 29.2865L3.34486 29.3397C3.32375 29.3512 3.30383 29.3645 3.28508 29.3795L3.15888 29.4858C3.07326 29.5561 3.0157 29.6447 2.98618 29.7515L2.89984 30.077C2.89038 30.1207 2.88595 30.165 2.88655 30.2098L2.87327 30.7412C2.87232 30.7611 2.87232 30.781 2.87327 30.801L2.9264 31.505C2.9282 31.5184 2.93041 31.5317 2.93305 31.5449L3.03932 32.3752C3.04124 32.3863 3.04345 32.3974 3.04596 32.4084L3.20538 33.2519C3.21166 33.2837 3.22052 33.3147 3.23195 33.3449L3.48435 34.0423C3.49028 34.056 3.49692 34.0693 3.50428 34.0822L3.74339 34.5604L3.79653 34.939C3.8388 35.0598 3.92321 35.1109 4.04978 35.0922C4.17635 35.0736 4.24249 35.0004 4.2482 34.8726L4.19506 34.5007L4.28805 33.9693C4.29072 33.9583 4.29293 33.9472 4.2947 33.9361L4.36112 33.1988C4.36396 33.1656 4.36396 33.1324 4.36112 33.0992L4.28805 32.2423C4.2881 32.2379 4.2881 32.2335 4.28805 32.229L4.20171 31.3921L4.13528 30.6947C4.13539 30.688 4.13539 30.6814 4.13528 30.6748L4.06886 30.15C4.06685 30.1411 4.06464 30.1323 4.06222 30.1234L4.00244 29.7913C3.99788 29.7642 3.99124 29.7377 3.98251 29.7116L3.96259 29.6452L3.9493 29.7183V29.7249L3.96923 29.705L3.98916 29.6851C4.09027 29.5786 4.10767 29.46 4.04136 29.329C3.97505 29.198 3.86909 29.1418 3.72347 29.1603Z" fill="black"/>
<path d="M3.10585 32.5079L3.05272 32.6275C3.04685 32.6449 3.04242 32.6626 3.03943 32.6806L2.99294 32.86C2.98701 32.8907 2.98479 32.9217 2.98629 32.953V33.2452C2.98649 33.2812 2.99092 33.3166 2.99958 33.3515L3.08593 33.7301C3.08808 33.7346 3.09029 33.739 3.09257 33.7434L3.21877 34.2017C3.2275 34.2314 3.23857 34.2602 3.25198 34.2881L3.48446 34.7995C3.50098 34.8368 3.52091 34.8723 3.54424 34.9058L3.92284 35.4239C3.95001 35.4626 3.98101 35.4981 4.01583 35.5301L4.53392 35.9885C4.58741 36.0378 4.64719 36.0776 4.71326 36.108L5.42398 36.4202C5.50018 36.4542 5.57988 36.4741 5.6631 36.48L6.593 36.5331C6.66229 36.5388 6.73093 36.5343 6.79891 36.5198L7.89487 36.2608C7.96574 36.2453 8.03216 36.2187 8.09414 36.1811L9.13696 35.5301L10.1931 34.9191L11.0964 34.4674C11.2333 34.3964 11.2664 34.2924 11.1956 34.1554C11.1249 34.0184 11.021 33.9851 10.8839 34.0556L10.0004 34.5072L8.87792 34.8593L7.68232 34.9855C7.67789 34.9854 7.67347 34.9854 7.66904 34.9855L6.61957 35.1183L5.86236 35.0652L5.32435 34.8659L4.90589 34.5604L4.56049 34.1353L4.23503 33.7168L4.00255 33.3648L3.84978 33.0526L3.7435 32.8068L3.67708 32.6408C3.67717 32.6364 3.67717 32.6319 3.67708 32.6275L3.62394 32.5079C3.5772 32.391 3.49085 32.3325 3.3649 32.3325C3.23895 32.3325 3.1526 32.391 3.10585 32.5079Z" fill="black"/>
<path d="M6.63944 34.8195C6.63944 35.0099 6.73464 35.1051 6.92505 35.1051C7.11546 35.1051 7.21067 35.0099 7.21067 34.8195C7.21067 34.6291 7.11546 34.5339 6.92505 34.5339C6.73464 34.5339 6.63944 34.6291 6.63944 34.8195ZM6.87191 34.5206L6.84535 34.5272C6.73792 34.5421 6.6587 34.5974 6.60769 34.6931C6.55668 34.7888 6.55495 34.8853 6.60249 34.9828C6.65004 35.0803 6.72722 35.1384 6.83404 35.1571C6.94086 35.1758 7.03319 35.1474 7.11103 35.0719L7.1376 35.0519C7.26033 34.9486 7.28581 34.8251 7.21405 34.6816C7.14229 34.5381 7.02825 34.4844 6.87191 34.5206ZM6.48667 34.866C6.48667 34.9687 6.52298 35.0564 6.59561 35.129C6.66824 35.2016 6.75591 35.2379 6.85863 35.2379C6.96134 35.2379 7.04902 35.2016 7.12165 35.129C7.19428 35.0564 7.23059 34.9687 7.23059 34.866C7.23059 34.7632 7.19428 34.6756 7.12165 34.6029C7.04902 34.5303 6.96134 34.494 6.85863 34.494C6.75591 34.494 6.66824 34.5303 6.59561 34.6029C6.52298 34.6756 6.48667 34.7632 6.48667 34.866ZM6.35382 34.8925C6.35382 35.0228 6.39986 35.1339 6.49195 35.226C6.58403 35.3181 6.69519 35.3641 6.82542 35.3641C6.95565 35.3641 7.0668 35.3181 7.15889 35.226C7.25097 35.1339 7.29701 35.0228 7.29701 34.8925C7.29701 34.7623 7.25097 34.6511 7.15889 34.5591C7.0668 34.467 6.95565 34.4209 6.82542 34.4209C6.69519 34.4209 6.58403 34.467 6.49195 34.5591C6.39986 34.6511 6.35382 34.7623 6.35382 34.8925ZM6.23426 34.9191C6.23426 35.0897 6.29457 35.2353 6.41519 35.3559C6.53581 35.4765 6.68141 35.5368 6.85199 35.5368C7.02257 35.5368 7.16817 35.4765 7.28878 35.3559C7.4094 35.2353 7.46971 35.0897 7.46971 34.9191C7.46971 34.7485 7.4094 34.6029 7.28878 34.4823C7.16817 34.3617 7.02257 34.3014 6.85199 34.3014C6.68141 34.3014 6.53581 34.3617 6.41519 34.4823C6.29457 34.6029 6.23426 34.7485 6.23426 34.9191ZM6.63279 35.6497L6.89848 35.7959C6.96992 35.8333 7.0452 35.8599 7.12432 35.8756L7.64905 35.9819C7.69718 35.9927 7.74589 35.9994 7.79518 36.0018L8.54575 36.0151C8.58576 36.0157 8.62561 36.0135 8.66531 36.0084L9.63507 35.8955C9.65729 35.8942 9.67943 35.8919 9.70149 35.8889L10.8107 35.663C10.8196 35.6632 10.8284 35.6632 10.8373 35.663L11.9598 35.3973C11.9687 35.3953 11.9776 35.3931 11.9864 35.3907L12.9694 35.1317C12.9874 35.1256 13.0051 35.119 13.0226 35.1117L13.8329 34.8394C13.8988 34.8162 13.9608 34.7852 14.0189 34.7464L14.6101 34.3545C14.7146 34.2869 14.7965 34.1983 14.8558 34.0888L15.1016 33.6239C15.1063 33.6152 15.1107 33.6063 15.1149 33.5973L15.2876 33.2187L15.5068 32.9729C15.6083 32.8578 15.6016 32.7494 15.4867 32.6477C15.3717 32.546 15.2632 32.5525 15.1614 32.6674L14.9687 32.8932L14.6499 32.9862L14.1717 33.0128C14.1176 33.0157 14.0644 33.0246 14.0123 33.0394L13.3281 33.2386C13.3215 33.2408 13.3148 33.243 13.3082 33.2453L12.5178 33.491L11.5613 33.7434L10.4653 34.0025L9.40259 34.2084L8.51918 34.3147L7.88153 34.308L7.41657 34.235C7.39452 34.2319 7.37238 34.2296 7.35015 34.2283L7.05125 34.2017C6.86985 34.1887 6.70456 34.2342 6.55537 34.3382C6.40619 34.4423 6.30635 34.5816 6.25586 34.7564C6.20537 34.9311 6.21547 35.1022 6.28617 35.2698C6.35687 35.4373 6.47241 35.564 6.63279 35.6497Z" fill="black"/>
</g>
<defs>
<clipPath id="clip0_1_7415">
<rect width="32" height="37" fill="white"/>
</clipPath>
</defs>
</svg>
