<svg width="28" height="43" viewBox="0 0 28 43" fill="none" xmlns="http://www.w3.org/2000/svg">
<g clip-path="url(#clip0_1_7346)">
<path d="M13.1797 20.1726C13.1797 20.2831 13.2188 20.3774 13.2969 20.4555C13.375 20.5336 13.4693 20.5727 13.5798 20.5727C13.6903 20.5727 13.7846 20.5336 13.8627 20.4555C13.9408 20.3774 13.9799 20.2831 13.9799 20.1726C13.9799 20.0621 13.9408 19.9678 13.8627 19.8897C13.7846 19.8116 13.6903 19.7725 13.5798 19.7725C13.4693 19.7725 13.375 19.8116 13.2969 19.8897C13.2188 19.9678 13.1797 20.0621 13.1797 20.1726ZM13.9111 20.4352L13.9236 20.4227C13.901 20.4395 13.8802 20.4582 13.8611 20.4789L13.8736 20.4727C13.988 20.3772 14.0449 20.255 14.0442 20.106C14.0436 19.957 13.9857 19.8352 13.8706 19.7407C13.7554 19.6462 13.6247 19.6132 13.4785 19.6416C13.3322 19.67 13.2234 19.7496 13.1521 19.8804C13.0807 20.0112 13.0727 20.1458 13.128 20.2841C13.1832 20.4225 13.2817 20.5145 13.4235 20.5602L13.436 20.5664C13.4237 20.5617 13.4112 20.5575 13.3985 20.5539L13.411 20.5602C13.6095 20.6456 13.7762 20.6039 13.9111 20.4352ZM13.0297 20.0788C13.0298 20.2255 13.0817 20.3507 13.1855 20.4543C13.2892 20.558 13.4144 20.6098 13.5611 20.6098C13.7077 20.6098 13.8329 20.558 13.9367 20.4543C14.0404 20.3507 14.0923 20.2255 14.0924 20.0788C14.0923 19.9322 14.0404 19.807 13.9367 19.7034C13.8329 19.5997 13.7077 19.5479 13.5611 19.5479C13.4144 19.5479 13.2892 19.5997 13.1855 19.7034C13.0817 19.807 13.0298 19.9322 13.0297 20.0788ZM13.0547 19.7475L12.9422 19.9038C12.896 19.9648 12.8606 20.0315 12.8359 20.1038L12.6421 20.679C12.6281 20.7219 12.6177 20.7656 12.6109 20.8102L12.4234 21.9729C12.4211 21.9833 12.419 21.9937 12.4171 22.0042L12.1983 23.8108C12.1983 23.8129 12.1983 23.815 12.1983 23.817L11.9233 26.1862L11.5732 28.9368L11.1794 31.8248L10.7668 34.6004C10.7645 34.6107 10.7624 34.6211 10.7605 34.6316L10.2729 39.0074C10.2713 39.0345 10.2713 39.0616 10.2729 39.0887L10.2854 40.4015C10.2851 40.4119 10.2851 40.4223 10.2854 40.4327L10.3417 41.0578L10.2792 41.2766C10.2334 41.4475 10.2959 41.5558 10.4667 41.6017C10.6376 41.6475 10.746 41.585 10.7918 41.4141L10.8543 41.1766L11.1356 40.5952C11.1452 40.5771 11.1536 40.5583 11.1606 40.539L11.5857 39.3012C11.596 39.2726 11.6043 39.2435 11.6107 39.2137L12.4484 34.8879C12.4507 34.8755 12.4528 34.8629 12.4546 34.8504L12.8672 32.0686C12.8693 32.0665 12.8714 32.0645 12.8734 32.0624L13.2735 29.1681C13.2735 29.166 13.2735 29.1639 13.2735 29.1618L13.6361 26.405C13.6361 26.403 13.6361 26.4009 13.6361 26.3988L13.9361 24.0233L14.1549 22.2167C14.1551 22.2063 14.1551 22.1959 14.1549 22.1855L14.255 21.0103C14.2578 20.9707 14.2578 20.9311 14.255 20.8915L14.2237 20.2851C14.2196 20.2297 14.2092 20.1756 14.1924 20.1226L14.1362 19.9413C14.0657 19.6974 13.9056 19.5531 13.6557 19.5083C13.4058 19.4635 13.2055 19.5433 13.0547 19.7475Z" fill="black"/>
<path d="M14.2486 21.3541L14.2424 21.3478C14.2244 21.4965 14.2723 21.6194 14.3862 21.7166C14.3883 21.6916 14.3883 21.6666 14.3862 21.6416V21.5854C14.3862 21.5833 14.3862 21.5812 14.3862 21.5791L14.3799 21.4728V21.3103L14.3987 21.0665L14.4237 20.804L14.4612 20.5727L14.5174 20.3664C14.4042 20.4377 14.3292 20.5377 14.2924 20.6664L14.3737 20.6164C14.5379 20.5135 14.637 20.3666 14.6711 20.1758C14.7052 19.985 14.663 19.8129 14.5447 19.6594C14.4263 19.506 14.2705 19.4215 14.0773 19.4061C13.8841 19.3906 13.7169 19.4492 13.5756 19.5819C13.4343 19.7146 13.3653 19.8778 13.3687 20.0716C13.372 20.2654 13.4465 20.4262 13.5923 20.5539L13.6673 20.6227C13.6574 20.4765 13.597 20.3557 13.486 20.2601L13.5047 20.4664L13.486 20.7102L13.461 20.9915C13.461 20.9936 13.461 20.9957 13.461 20.9978L13.4422 21.2603C13.4408 21.2811 13.4408 21.302 13.4422 21.3228L13.4547 21.5166C13.4561 21.5462 13.4603 21.5754 13.4672 21.6041L13.4985 21.7166C13.5115 21.766 13.5324 21.8119 13.561 21.8542L13.5985 21.9042C13.6736 22.015 13.7776 22.0773 13.9107 22.0913C14.0438 22.1052 14.1585 22.0658 14.2549 21.9729L14.2611 21.9667C14.2547 21.9727 14.2484 21.979 14.2424 21.9854L14.2486 21.9792C14.342 21.8959 14.3887 21.7917 14.3887 21.6666C14.3887 21.5415 14.342 21.4373 14.2486 21.3541ZM13.2922 19.9538L13.2297 20.3039C13.2232 20.339 13.2191 20.3745 13.2172 20.4101L13.1797 21.3041C13.1788 21.327 13.1788 21.3499 13.1797 21.3728L13.2234 22.9856C13.2233 22.9961 13.2233 23.0065 13.2234 23.0169L13.3735 25.3486C13.3734 25.3528 13.3734 25.3569 13.3735 25.3611L13.5923 28.2304C13.5923 28.2325 13.5923 28.2346 13.5923 28.2366L13.8486 31.281C13.8486 31.2831 13.8486 31.2851 13.8486 31.2872L14.1049 34.1503C14.1049 34.1523 14.1049 34.1544 14.1049 34.1565L14.3362 36.5632C14.3379 36.5779 14.34 36.5924 14.3424 36.607L14.605 38.3948C14.6081 38.4179 14.6123 38.4408 14.6175 38.4636L14.8925 39.6138C14.9068 39.6755 14.9297 39.7339 14.9613 39.7888L15.2363 40.2639C15.2913 40.3571 15.3705 40.4196 15.4739 40.4515L15.5676 40.4827C15.7416 40.5366 15.8541 40.4762 15.9052 40.3014L15.924 40.2389C15.9511 40.0814 15.888 39.9802 15.7346 39.9353C15.5812 39.8904 15.4734 39.9416 15.4114 40.0889L15.3926 40.1514C15.3587 40.2858 15.4025 40.3863 15.5241 40.4529C15.6456 40.5195 15.7539 40.5024 15.8489 40.4015L15.9177 40.3264C15.96 40.277 15.9892 40.2207 16.0052 40.1577L16.1427 39.6263C16.1554 39.575 16.1617 39.5229 16.1615 39.47L16.1803 38.2948C16.1788 38.276 16.1768 38.2572 16.174 38.2385L16.074 36.4319C16.0741 36.4236 16.0741 36.4153 16.074 36.4069L15.8677 33.994L15.6239 31.1309L15.3676 28.0929L15.1613 25.2361L15.0363 22.9106L14.955 21.3041C14.9553 21.2916 14.9553 21.2791 14.955 21.2666L14.8738 20.3726C14.8707 20.3305 14.8644 20.2888 14.855 20.2476L14.7737 19.9038C14.7319 19.7289 14.6396 19.587 14.4966 19.478C14.3536 19.3691 14.1922 19.3176 14.0125 19.3237C13.8329 19.3297 13.6754 19.3919 13.54 19.5103C13.4047 19.6287 13.3221 19.7765 13.2922 19.9538Z" fill="black"/>
<path d="M10.5668 40.639C10.5668 40.7426 10.6034 40.831 10.6766 40.9042C10.7499 40.9774 10.8383 41.0141 10.9418 41.0141C11.0454 41.0141 11.1338 40.9774 11.2071 40.9042C11.2803 40.831 11.3169 40.7426 11.3169 40.639C11.3169 40.5354 11.2803 40.447 11.2071 40.3738C11.1338 40.3005 11.0454 40.2639 10.9418 40.2639C10.8383 40.2639 10.7499 40.3005 10.6766 40.3738C10.6034 40.447 10.5668 40.5354 10.5668 40.639ZM10.4292 40.639C10.4292 40.7805 10.4793 40.9014 10.5794 41.0015C10.6795 41.1015 10.8003 41.1516 10.9418 41.1516C11.0834 41.1516 11.2042 41.1015 11.3043 41.0015C11.4044 40.9014 11.4544 40.7805 11.4544 40.639C11.4544 40.4974 11.4044 40.3766 11.3043 40.2765C11.2042 40.1764 11.0834 40.1264 10.9418 40.1264C10.8003 40.1264 10.6795 40.1764 10.5794 40.2765C10.4793 40.3766 10.4292 40.4974 10.4292 40.639ZM10.3355 40.6327C10.3355 40.8001 10.3948 40.943 10.5132 41.0614C10.6315 41.1797 10.7744 41.2389 10.9418 41.2389C11.1092 41.2389 11.2521 41.1797 11.3705 41.0614C11.4889 40.943 11.5482 40.8001 11.5482 40.6327C11.5482 40.4653 11.4889 40.3225 11.3705 40.2041C11.2521 40.0858 11.1092 40.0266 10.9418 40.0266C10.7744 40.0266 10.6315 40.0858 10.5132 40.2041C10.3948 40.3225 10.3355 40.4653 10.3355 40.6327ZM10.573 41.2141L10.7043 41.3141C10.7978 41.3852 10.902 41.4331 11.0169 41.4579L11.3482 41.5267C11.3894 41.5362 11.431 41.5424 11.4732 41.5454L12.0108 41.5704C12.0652 41.5738 12.1194 41.5717 12.1733 41.5642L12.8547 41.4641C12.9218 41.4542 12.9864 41.4354 13.0485 41.4079L13.7111 41.1078C13.7174 41.1059 13.7237 41.1038 13.7299 41.1016L14.3612 40.8015C14.3676 40.7975 14.3739 40.7934 14.38 40.789L14.8738 40.514L15.2677 40.3889C15.4106 40.3291 15.4593 40.2252 15.4137 40.0771C15.3682 39.929 15.2695 39.8704 15.1176 39.9013L14.7301 40.0201L14.18 40.0389L13.5111 40.0451L12.8172 39.9701C12.7922 39.9689 12.7672 39.9689 12.7422 39.9701L12.0796 39.9639L11.592 39.9326L11.2732 39.8951C11.1999 39.887 11.127 39.8891 11.0544 39.9013L10.8918 39.9264C10.5764 39.975 10.3803 40.1543 10.3036 40.4641C10.2269 40.7739 10.3167 41.0239 10.573 41.2141Z" fill="black"/>
<path d="M10.9231 40.4139C10.9231 40.5209 10.961 40.6122 11.0366 40.6879C11.1123 40.7635 11.2036 40.8013 11.3106 40.8013C11.4176 40.8013 11.509 40.7635 11.5846 40.6879C11.6603 40.6122 11.6982 40.5209 11.6982 40.4139C11.6982 40.307 11.6603 40.2156 11.5846 40.14C11.509 40.0644 11.4176 40.0266 11.3106 40.0266C11.2036 40.0266 11.1123 40.0644 11.0366 40.14C10.961 40.2156 10.9231 40.307 10.9231 40.4139ZM10.8605 40.4202C10.8605 40.5428 10.9039 40.6474 10.9905 40.734C11.0772 40.8207 11.1818 40.864 11.3044 40.864C11.4269 40.864 11.5316 40.8207 11.6182 40.734C11.7049 40.6474 11.7482 40.5428 11.7482 40.4202C11.7482 40.2976 11.7049 40.193 11.6182 40.1064C11.5316 40.0197 11.4269 39.9764 11.3044 39.9764C11.1818 39.9764 11.0772 40.0197 10.9905 40.1064C10.9039 40.193 10.8605 40.2976 10.8605 40.4202ZM10.6543 40.4389C10.6543 40.6115 10.7154 40.7588 10.8374 40.8808C10.9595 41.0028 11.1068 41.0638 11.2794 41.0638C11.452 41.0638 11.5993 41.0028 11.7213 40.8808C11.8434 40.7588 11.9044 40.6115 11.9045 40.4389C11.9044 40.2664 11.8434 40.1191 11.7213 39.9971C11.5993 39.8751 11.452 39.814 11.2794 39.814C11.1068 39.814 10.9595 39.8751 10.8374 39.9971C10.7154 40.1191 10.6543 40.2664 10.6543 40.4389ZM11.3169 39.7076L11.2669 39.7013C10.9729 39.6704 10.7312 39.7683 10.5417 39.9951L10.4855 40.0639C10.3749 40.1965 10.3103 40.3486 10.2917 40.5202L10.2729 40.639C10.2566 40.7979 10.2816 40.95 10.348 41.0953L10.4167 41.2516C10.4633 41.3578 10.5279 41.4515 10.6105 41.5329L10.773 41.6954C10.8635 41.7836 10.9677 41.8503 11.0856 41.8955L11.3919 42.0142C11.4686 42.0435 11.5478 42.0623 11.6294 42.0705L12.1108 42.1205C12.1587 42.1243 12.2066 42.1243 12.2546 42.1205L12.8984 42.0893C12.9256 42.0884 12.9527 42.0863 12.9797 42.083L13.6923 41.9767C13.7154 41.9735 13.7383 41.9693 13.7611 41.9642L14.4362 41.808C14.4615 41.8028 14.4865 41.7966 14.5112 41.7892L15.0926 41.6079C15.1359 41.5927 15.1775 41.5739 15.2176 41.5517L15.6365 41.3329C15.7069 41.2953 15.7694 41.2473 15.824 41.1891L16.0365 40.964C16.1332 40.86 16.1853 40.7371 16.1928 40.5952L16.1991 40.5702L16.2241 40.5265C16.2377 40.5006 16.2481 40.4735 16.2553 40.4452L16.2866 40.3327C16.3 40.2856 16.3042 40.2376 16.2991 40.1889L16.2928 40.0889C16.291 40.0805 16.2889 40.0721 16.2866 40.0639L16.2741 39.9826C16.2615 39.9053 16.2303 39.8366 16.1803 39.7763L16.1241 39.7076C16.0592 39.6298 15.978 39.5777 15.8803 39.5513L15.7865 39.5263C15.7062 39.5022 15.625 39.498 15.5427 39.5138L15.4489 39.5388C15.4054 39.548 15.3637 39.5626 15.3239 39.5825L15.2551 39.6138C15.1528 39.6656 15.0757 39.7427 15.0238 39.8451L14.9926 39.9076C14.9651 39.965 14.9484 40.0255 14.9426 40.0889L14.9301 40.1701C14.9261 40.2077 14.9261 40.2452 14.9301 40.2827L14.9426 40.3577C14.9559 40.4882 15.01 40.5986 15.1051 40.689L15.1426 40.7265C15.3368 40.9078 15.5465 40.9281 15.7717 40.7873C15.997 40.6465 16.0707 40.4491 15.9928 40.1952L15.974 40.1451C15.9773 40.1878 15.9857 40.2295 15.999 40.2702L15.9928 40.2202V40.2389C15.8947 40.3078 15.828 40.3995 15.7927 40.514L15.8552 40.4702C15.806 40.4863 15.7601 40.5092 15.7177 40.539L15.8052 40.5077C15.8179 40.504 15.8304 40.4999 15.8427 40.4952L15.874 40.4827H15.899C15.8254 40.4484 15.7483 40.4359 15.6677 40.4452L15.7427 40.4765C15.7092 40.3627 15.6383 40.2814 15.5302 40.2327L15.5614 40.3327C15.5775 40.2654 15.5754 40.1988 15.5552 40.1326L15.5302 40.2452C15.5903 40.1932 15.6299 40.1286 15.649 40.0514L15.5427 40.1451C15.696 40.2144 15.8377 40.1956 15.9678 40.0889L15.8615 40.0326C15.7918 40.0018 15.7189 39.9851 15.6427 39.9826L15.3364 39.9639C15.2925 39.962 15.2487 39.964 15.2051 39.9701L14.7425 40.0264C14.7363 40.0284 14.73 40.0305 14.7238 40.0326L14.1362 40.1139L13.461 40.1952L12.7922 40.2639L12.2421 40.2764L11.9295 40.2452L11.8545 40.2202L11.8857 40.2452L11.8607 40.2139C11.8923 40.307 11.9381 40.3924 11.9983 40.4702L11.9608 40.3514C11.9449 40.4746 11.9553 40.5954 11.992 40.714L12.0045 40.6202C12.0111 40.5598 12.0111 40.4994 12.0045 40.4389L11.9983 40.3889C11.9788 40.2095 11.9052 40.0559 11.7776 39.9283C11.6499 39.8006 11.4964 39.7271 11.3169 39.7076ZM15.4489 40.764L15.4802 40.7703C15.7142 40.7842 15.8549 40.6764 15.9023 40.4468C15.9497 40.2172 15.8631 40.0624 15.6427 39.9826L15.6115 39.9764C15.3774 39.9624 15.2367 40.0703 15.1893 40.2999C15.142 40.5295 15.2285 40.6842 15.4489 40.764Z" fill="black"/>
<path d="M1.25897 33.6875C1.25897 33.798 1.29803 33.8923 1.37615 33.9704C1.45427 34.0485 1.54857 34.0876 1.65904 34.0876C1.76952 34.0876 1.86382 34.0485 1.94194 33.9704C2.02006 33.8923 2.05912 33.798 2.05912 33.6875C2.05912 33.577 2.02006 33.4827 1.94194 33.4046C1.86382 33.3265 1.76952 33.2874 1.65904 33.2874C1.54857 33.2874 1.45427 33.3265 1.37615 33.4046C1.29803 33.4827 1.25897 33.577 1.25897 33.6875ZM1.20896 33.675C1.20896 33.7976 1.25229 33.9022 1.33896 33.9889C1.42562 34.0755 1.53023 34.1189 1.65279 34.1189C1.77535 34.1189 1.87997 34.0755 1.96663 33.9889C2.0533 33.9022 2.09663 33.7976 2.09663 33.675C2.09663 33.5525 2.0533 33.4478 1.96663 33.3612C1.87997 33.2745 1.77535 33.2312 1.65279 33.2312C1.53023 33.2312 1.42562 33.2745 1.33896 33.3612C1.25229 33.4478 1.20896 33.5525 1.20896 33.675ZM1.09644 33.65C1.09644 33.8019 1.15014 33.9316 1.25756 34.039C1.36497 34.1464 1.49463 34.2001 1.64654 34.2001C1.79845 34.2001 1.92811 34.1464 2.03553 34.039C2.14294 33.9316 2.19665 33.8019 2.19665 33.65C2.19665 33.4981 2.14294 33.3684 2.03553 33.261C1.92811 33.1536 1.79845 33.0999 1.64654 33.0999C1.49463 33.0999 1.36497 33.1536 1.25756 33.261C1.15014 33.3684 1.09644 33.4981 1.09644 33.65ZM1.02142 33.625C1.02142 33.7976 1.08245 33.945 1.20452 34.067C1.32658 34.1891 1.47392 34.2501 1.64654 34.2501C1.81916 34.2501 1.96651 34.1891 2.08857 34.067C2.21063 33.945 2.27166 33.7976 2.27166 33.625C2.27166 33.4524 2.21063 33.305 2.08857 33.183C1.96651 33.0609 1.81916 32.9999 1.64654 32.9999C1.47392 32.9999 1.32658 33.0609 1.20452 33.183C1.08245 33.305 1.02142 33.4524 1.02142 33.625ZM1.52152 34.2939L1.74031 34.3501C1.77925 34.3616 1.81884 34.3699 1.85908 34.3752L2.34042 34.4252L3.16558 34.5252C3.18434 34.5258 3.20309 34.5258 3.22184 34.5252L4.49708 34.5814C4.50959 34.5818 4.52209 34.5818 4.53459 34.5814L6.03488 34.5752L7.56017 34.5877L8.83541 34.7627C9.00628 34.7877 9.10421 34.7148 9.12922 34.5439C9.15422 34.3731 9.08129 34.2751 8.91043 34.2501L7.62893 34.0751L6.1599 33.6813L4.73463 33.2374C4.7182 33.2305 4.70153 33.2243 4.68462 33.2187L3.44688 32.9311C3.41394 32.9228 3.3806 32.9165 3.34687 32.9124L2.51546 32.8249C2.49263 32.8218 2.46971 32.8197 2.44669 32.8186L1.9591 32.8124C1.86943 32.8098 1.78192 32.8223 1.69655 32.8499L1.48401 32.9186C1.14691 33.0311 0.983211 33.2649 0.992899 33.6202C1.00259 33.9754 1.17879 34.2 1.52152 34.2939Z" fill="black"/>
<path d="M1.76524 33.4187C1.76524 33.5102 1.79758 33.5883 1.86227 33.653C1.92697 33.7176 2.00506 33.75 2.09655 33.75C2.18804 33.75 2.26613 33.7176 2.33082 33.653C2.39551 33.5883 2.42786 33.5102 2.42786 33.4187C2.42786 33.3272 2.39551 33.2491 2.33082 33.1844C2.26613 33.1197 2.18804 33.0874 2.09655 33.0874C2.00506 33.0874 1.92697 33.1197 1.86227 33.1844C1.79758 33.2491 1.76524 33.3272 1.76524 33.4187ZM1.94652 33.0374L1.86525 33.0624C1.92701 33.069 1.98744 33.0627 2.04654 33.0436L1.97152 33.0374C1.83819 33.0184 1.71663 33.0479 1.60684 33.1259C1.49705 33.2039 1.42919 33.309 1.40326 33.4411C1.37732 33.5733 1.40044 33.6962 1.4726 33.81C1.54477 33.9237 1.64616 33.9969 1.77679 34.0297C1.90741 34.0625 2.03139 34.0459 2.14872 33.9798C2.26605 33.9136 2.34451 33.8162 2.3841 33.6875L2.40911 33.6125C2.35547 33.6653 2.31796 33.7278 2.29659 33.8L2.35285 33.7375C2.50455 33.5856 2.52653 33.4169 2.41879 33.2312C2.31105 33.0456 2.15363 32.981 1.94652 33.0374ZM1.22138 33.6062C1.22138 33.7771 1.2818 33.923 1.40264 34.0438C1.52349 34.1647 1.66935 34.2251 1.84025 34.2251C2.01115 34.2251 2.15701 34.1647 2.27786 34.0438C2.3987 33.923 2.45912 33.7771 2.45912 33.6062C2.45912 33.4353 2.3987 33.2895 2.27786 33.1686C2.15701 33.0478 2.01115 32.9874 1.84025 32.9874C1.66935 32.9874 1.52349 33.0478 1.40264 33.1686C1.2818 33.2895 1.22138 33.4353 1.22138 33.6062ZM1.38391 34.2313L1.5652 34.4001C1.65534 34.486 1.75953 34.5486 1.87776 34.5877L2.3841 34.7502C2.41284 34.7601 2.44201 34.7684 2.47162 34.7752L3.30928 34.9502C3.32376 34.9548 3.33834 34.9589 3.35304 34.9627L4.49701 35.1378C4.51154 35.1402 4.52612 35.1423 4.54076 35.144L5.88477 35.294C5.8931 35.2942 5.90144 35.2942 5.90977 35.294L7.27878 35.4066C7.28712 35.4067 7.29545 35.4067 7.30379 35.4066L8.55403 35.4691C8.56856 35.4715 8.58315 35.4736 8.59779 35.4753L9.62298 35.4691C9.67549 35.4701 9.72758 35.4659 9.77926 35.4566L10.5169 35.3128C10.596 35.296 10.669 35.2647 10.7357 35.219L11.0232 35.0315L11.242 35.0377C11.4379 35.0419 11.5379 34.9461 11.5421 34.7502C11.5463 34.5543 11.4504 34.4543 11.2545 34.4501H11.042L10.7795 34.2376C10.7175 34.1889 10.6488 34.1535 10.5732 34.1313L9.85427 33.9125C9.81122 33.9005 9.76746 33.8922 9.723 33.8875L8.70406 33.7562C8.69155 33.756 8.67905 33.756 8.66655 33.7562L7.41631 33.6562L6.06605 33.5437L4.74705 33.3937L3.64059 33.2249L2.81544 33.0749C2.81336 33.0728 2.81128 33.0707 2.80918 33.0686L2.28408 32.9748C2.24273 32.9675 2.20105 32.9634 2.15906 32.9623L1.90901 32.9561C1.56991 32.9467 1.33577 33.0989 1.20661 33.4126C1.07744 33.7263 1.13654 33.9992 1.38391 34.2313Z" fill="black"/>
<path d="M16.0555 34.5314C16.0555 34.6315 16.0909 34.717 16.1617 34.7878C16.2325 34.8586 16.3179 34.894 16.4181 34.894C16.5182 34.894 16.6036 34.8586 16.6744 34.7878C16.7452 34.717 16.7806 34.6315 16.7806 34.5314C16.7806 34.4313 16.7452 34.3458 16.6744 34.275C16.6036 34.2042 16.5182 34.1688 16.4181 34.1688C16.3179 34.1688 16.2325 34.2042 16.1617 34.275C16.0909 34.3458 16.0555 34.4313 16.0555 34.5314ZM15.9992 34.5314C15.9992 34.6436 16.0389 34.7394 16.1182 34.8187C16.1976 34.8981 16.2934 34.9377 16.4056 34.9377C16.5178 34.9377 16.6135 34.8981 16.6929 34.8187C16.7722 34.7394 16.8119 34.6436 16.8119 34.5314C16.8119 34.4192 16.7722 34.3234 16.6929 34.2441C16.6135 34.1648 16.5178 34.1251 16.4056 34.1251C16.2934 34.1251 16.1976 34.1648 16.1182 34.2441C16.0389 34.3234 15.9992 34.4192 15.9992 34.5314ZM15.7429 34.5439C15.7429 34.7062 15.8003 34.8447 15.915 34.9594C16.0298 35.0742 16.1683 35.1315 16.3305 35.1315C16.4928 35.1315 16.6313 35.0742 16.746 34.9594C16.8608 34.8447 16.9182 34.7062 16.9182 34.5439C16.9182 34.3816 16.8608 34.2431 16.746 34.1284C16.6313 34.0137 16.4928 33.9563 16.3305 33.9563C16.1683 33.9563 16.0298 34.0137 15.915 34.1284C15.8003 34.2431 15.7429 34.3816 15.7429 34.5439ZM15.5929 34.5564C15.5929 34.7515 15.6619 34.918 15.7998 35.0559C15.9377 35.1938 16.1042 35.2628 16.2993 35.2628C16.4944 35.2628 16.6608 35.1938 16.7988 35.0559C16.9367 34.918 17.0057 34.7515 17.0057 34.5564C17.0057 34.3613 16.9367 34.1949 16.7988 34.0569C16.6608 33.919 16.4944 33.85 16.2993 33.85C16.1042 33.85 15.9377 33.919 15.7998 34.0569C15.6619 34.1949 15.5929 34.3613 15.5929 34.5564ZM15.9617 35.2878L16.1618 35.4003C16.2379 35.4461 16.3192 35.4795 16.4056 35.5003L16.8869 35.6066C16.9302 35.6161 16.974 35.6223 17.0182 35.6254L17.8058 35.6879C17.8371 35.6895 17.8683 35.6895 17.8996 35.6879L19.0061 35.6629C19.0395 35.6626 19.0728 35.6605 19.1061 35.6566L20.5063 35.4628C20.5358 35.458 20.565 35.4517 20.5939 35.4441L22.1754 35.0753C22.1965 35.0698 22.2173 35.0635 22.2379 35.0565L23.8257 34.5627C23.8555 34.5538 23.8846 34.5434 23.9132 34.5314L25.3073 33.9313C25.3657 33.9074 25.4198 33.8761 25.4698 33.8375L26.3512 33.1311L27.1576 32.8561C27.3283 32.7977 27.3845 32.6831 27.3262 32.5123C27.2679 32.3416 27.1534 32.2853 26.9826 32.3435L26.1824 32.6248L25.0572 32.5873C25.0004 32.5846 24.9442 32.5888 24.8884 32.5998L23.4006 32.9186C23.3923 32.9185 23.384 32.9185 23.3756 32.9186L21.7691 33.3124L20.225 33.6312L18.8998 33.8125L17.8808 33.8438L17.137 33.8063L16.6494 33.7813C16.6139 33.7791 16.5785 33.7791 16.5431 33.7813L16.3118 33.7938C15.914 33.8167 15.6697 34.0221 15.5788 34.4101C15.4879 34.798 15.6156 35.0906 15.9617 35.2878Z" fill="black"/>
<path d="M0.840153 33.1562H0.833902C0.68855 33.1831 0.586976 33.2645 0.529181 33.4006C0.471387 33.5366 0.483273 33.6663 0.564841 33.7896C0.646409 33.9128 0.7611 33.9745 0.908916 33.9745C1.05673 33.9745 1.17142 33.9128 1.25299 33.7896C1.33456 33.6663 1.34645 33.5366 1.28865 33.4006C1.23086 33.2645 1.12928 33.1831 0.983931 33.1562H0.977679C0.931837 33.1483 0.885995 33.1483 0.840153 33.1562ZM0.465082 33.5688C0.465082 33.6965 0.510245 33.8055 0.600571 33.8959C0.690897 33.9862 0.79993 34.0314 0.92767 34.0314C1.05541 34.0314 1.16444 33.9862 1.25477 33.8959C1.34509 33.8055 1.39026 33.6965 1.39026 33.5688C1.39026 33.441 1.34509 33.332 1.25477 33.2417C1.16444 33.1513 1.05541 33.1062 0.92767 33.1062C0.79993 33.1062 0.690897 33.1513 0.600571 33.2417C0.510245 33.332 0.465082 33.441 0.465082 33.5688ZM0.552599 33.9876L0.61511 34.0626C0.755854 34.2176 0.930887 34.2968 1.14021 34.3002H1.40276C1.49243 34.3027 1.57995 34.2902 1.66531 34.2626L2.08414 34.1189C2.12061 34.1068 2.15603 34.0922 2.19041 34.0751L2.78427 33.7813C2.80132 33.7715 2.81799 33.7611 2.83428 33.75L3.58443 33.3062C3.59716 33.2982 3.60966 33.2899 3.62193 33.2812L4.5221 32.6748C4.53266 32.6688 4.54308 32.6626 4.55336 32.6561L5.55355 31.9059C5.56636 31.8959 5.57886 31.8855 5.59106 31.8747L6.61 31.012C6.62281 31.002 6.63531 30.9916 6.64751 30.9808L7.58519 30.0869C7.58944 30.0807 7.59361 30.0744 7.59769 30.0681L8.37909 29.2804C8.38767 29.2702 8.39601 29.2598 8.40409 29.2492L8.9542 28.6303C8.97402 28.6105 8.99278 28.5896 9.01046 28.5678L9.32927 28.1177C9.34258 28.0995 9.35509 28.0808 9.36678 28.0615L9.52931 27.7864C9.54052 27.7681 9.55094 27.7494 9.56056 27.7302L9.62933 27.5864C9.70064 27.439 9.72148 27.2848 9.69184 27.1238L9.67934 27.0738C9.64286 26.8807 9.54489 26.7268 9.3854 26.612C9.22592 26.4972 9.04885 26.4532 8.85418 26.4799L8.81667 26.4862C8.73799 26.4971 8.66297 26.52 8.59163 26.5549L8.56662 26.5612L8.55412 26.5674C8.60117 26.5593 8.64701 26.5468 8.69165 26.5299L8.66039 26.5362C8.78119 26.576 8.90413 26.5844 9.02921 26.5612L8.9917 26.5487C9.02985 26.5688 9.06944 26.5855 9.11048 26.5987L9.06047 26.5737C9.0321 26.5593 9.00293 26.5468 8.97295 26.5362L8.89169 26.5049C8.85518 26.4894 8.81767 26.4769 8.77916 26.4674L8.63539 26.4424C8.61059 26.437 8.58559 26.4328 8.56037 26.4299L8.33533 26.4049C8.3208 26.4024 8.30622 26.4003 8.29157 26.3986L7.95401 26.3799C7.94567 26.3798 7.93734 26.3798 7.929 26.3799L7.44766 26.3674L6.81004 26.3361L6.02239 26.2799L5.14097 26.2049L4.24705 26.1111L3.46565 25.9923L2.85304 25.836L2.43421 25.6673L2.19041 25.5172L2.09039 25.4297L2.03413 25.3484C2.05956 25.4224 2.09498 25.4911 2.1404 25.5547L2.10289 25.4485C2.05615 25.6151 2.06241 25.7797 2.12165 25.9423L2.13415 25.9048C1.92223 25.8508 1.72155 25.8785 1.53213 25.9878C1.3427 26.097 1.21831 26.2569 1.15896 26.4674L1.19647 26.4737C1.156 26.4556 1.11432 26.4411 1.07145 26.4299L1.10895 26.4487L1.12146 26.4549L1.15271 26.4737C1.21145 26.5109 1.27396 26.5401 1.34025 26.5612L1.41526 26.5862C1.51696 26.6194 1.62115 26.6319 1.72782 26.6237L1.80909 26.6174C1.87977 26.6119 1.94854 26.5973 2.01538 26.5737L2.17166 26.5237C2.19284 26.5162 2.21368 26.5079 2.23417 26.4987L2.48422 26.3799C2.50539 26.3724 2.52623 26.3641 2.54673 26.3549L2.91555 26.1486C2.93481 26.1369 2.95356 26.1244 2.97181 26.1111L3.47816 25.7798C3.49088 25.7718 3.50338 25.7634 3.51566 25.7548L4.16579 25.2797C4.17424 25.2736 4.18257 25.2673 4.19079 25.2609L4.97844 24.6358C4.98689 24.6297 4.99523 24.6235 5.00345 24.6171L5.89111 23.8607C5.89746 23.8545 5.90371 23.8483 5.90987 23.8419L6.88505 22.9542C6.8914 22.9481 6.89765 22.9418 6.90381 22.9355L7.89775 21.9666C7.90409 21.9604 7.91035 21.9541 7.9165 21.9478L8.83543 20.9976C8.84183 20.9894 8.84808 20.9811 8.85418 20.9726L9.59807 20.1412C9.60876 20.1311 9.61918 20.1206 9.62933 20.11L10.1794 19.4286C10.1858 19.4203 10.1921 19.412 10.1982 19.4036L10.5983 18.866C10.6004 18.8639 10.6024 18.8618 10.6045 18.8597L10.8921 18.4596C10.8985 18.4514 10.9047 18.4431 10.9108 18.4346L11.1046 18.1471L11.2234 17.972C11.2299 17.9618 11.2361 17.9513 11.2421 17.9408L11.2921 17.8533C11.3956 17.6859 11.4352 17.5047 11.4109 17.3094V17.2907C11.3923 17.1479 11.3404 17.0185 11.2551 16.9025C11.1698 16.7865 11.0618 16.6984 10.9311 16.6381C10.8003 16.5778 10.6631 16.5529 10.5195 16.5633C10.3759 16.5737 10.2438 16.6182 10.1232 16.6968L10.0857 16.7218C10.0815 16.7239 10.0773 16.7259 10.0732 16.7281L10.0044 16.7718C9.99805 16.778 9.9918 16.7842 9.98564 16.7906L9.92938 16.8343L9.89813 16.8531L9.86062 16.8718L9.76685 16.9156C9.76055 16.9197 9.75429 16.9238 9.7481 16.9281L9.62933 16.9844L9.4918 17.0469L9.29801 17.1156L9.02921 17.1969L8.6854 17.2907L8.26032 17.3844L7.73522 17.4782L7.15386 17.5595L6.57875 17.6032L6.03489 17.5907L5.58481 17.5282L5.25974 17.4282L5.05971 17.3344L4.95344 17.2532L4.85967 17.1656C4.90109 17.2425 4.95318 17.3113 5.01595 17.3719L4.95969 17.2719C4.97688 17.3695 5.01022 17.4611 5.05971 17.547L5.0472 17.4782C4.98573 17.625 4.96697 17.7772 4.99094 17.9345L5.01595 17.8845C4.92603 17.9676 4.85727 18.0655 4.80966 18.1783L4.85342 18.1346C4.77972 18.1727 4.71304 18.2207 4.65338 18.2784L4.71589 18.2408L4.79716 18.2096L4.91593 18.1658L5.08471 18.0971C5.09731 18.0932 5.10981 18.089 5.12222 18.0846L5.34726 17.9845C5.35145 17.9825 5.35561 17.9804 5.35976 17.9783L5.69108 17.8283C5.71232 17.8187 5.73316 17.8083 5.75359 17.797L6.22243 17.5407C6.23293 17.5367 6.24334 17.5326 6.25368 17.5282L6.8663 17.1594C6.87685 17.1533 6.88726 17.1471 6.89756 17.1406L7.6352 16.6655C7.64791 16.6575 7.66041 16.6492 7.6727 16.6405L8.48536 16.0592C8.49814 16.0491 8.51065 16.0387 8.52287 16.0279L9.38553 15.334C9.40052 15.322 9.4151 15.3095 9.42929 15.2965L10.2982 14.5026C10.3066 14.4965 10.315 14.4903 10.3232 14.4839L11.1796 13.64C11.186 13.6338 11.1922 13.6276 11.1984 13.6212L11.9923 12.7961C12.0008 12.7879 12.0091 12.7796 12.0173 12.7711L12.6737 12.0272C12.6822 12.019 12.6905 12.0107 12.6987 12.0022L13.1863 11.4083C13.1971 11.394 13.2075 11.3794 13.2175 11.3645L13.5363 10.927C13.5521 10.9027 13.5667 10.8777 13.5801 10.8519L13.7489 10.5581C13.7905 10.4875 13.8218 10.4124 13.8426 10.3331L13.8864 10.1643C13.9208 10.0294 13.9229 9.89392 13.8926 9.75798L13.8739 9.68922C13.8301 9.49103 13.7292 9.32819 13.5713 9.20068C13.4134 9.07318 13.2329 9.0089 13.03 9.00784H12.9862C12.8246 9.00764 12.6745 9.04932 12.5361 9.13286L12.4861 9.16412C12.4104 9.21214 12.3437 9.27048 12.2861 9.33915L12.2423 9.38291L12.2048 9.42667C12.2455 9.3946 12.283 9.35917 12.3173 9.3204L12.2611 9.36416C12.3097 9.3393 12.3555 9.31013 12.3986 9.27664L12.3673 9.29539L12.3111 9.31415C12.2984 9.3201 12.2859 9.32635 12.2736 9.3329L12.1548 9.38916L11.9485 9.47043C11.9464 9.47043 11.9444 9.47043 11.9423 9.47043L11.5859 9.62045L11.0796 9.82049L10.4045 10.0518L9.62933 10.2831L8.90419 10.4456L8.29157 10.5019L7.84774 10.4894L7.54143 10.4331L7.31013 10.3581L7.1476 10.2831L7.09759 10.2581L7.08509 10.2518C7.07067 10.5594 7.18527 10.8074 7.42891 10.9957V10.9645C7.22077 11.1314 7.11033 11.3481 7.09759 11.6146L7.12885 11.5896C7.05694 11.6204 6.99026 11.6599 6.92881 11.7084L6.96632 11.6896C6.99616 11.6787 7.02533 11.6661 7.05384 11.6521L7.07884 11.6396L7.10385 11.6208C7.13169 11.6076 7.15878 11.5931 7.18511 11.5771L7.25387 11.5333C7.20365 11.5539 7.15573 11.5789 7.1101 11.6083L7.23512 11.5521C7.25838 11.5447 7.2813 11.5363 7.30388 11.5271L7.49142 11.427L7.77897 11.2833C7.80243 11.2718 7.82535 11.2593 7.84774 11.2458L8.24781 10.9957C8.25836 10.9897 8.26878 10.9834 8.27907 10.977L8.84793 10.5956C8.8607 10.5855 8.8732 10.5751 8.88543 10.5644L9.60432 10.033C9.61929 10.021 9.63388 10.0085 9.64808 9.99553L10.4607 9.30789C10.4757 9.29584 10.4903 9.28334 10.5045 9.27039L11.3547 8.45148C11.3766 8.42958 11.3975 8.40666 11.4172 8.38272L12.2486 7.41378C12.2593 7.40155 12.2697 7.38905 12.2798 7.37628L13.1175 6.28232C13.1196 6.27817 13.1217 6.274 13.1237 6.26982L13.9864 5.10084C13.9885 5.09877 13.9906 5.09669 13.9927 5.09459L14.8116 3.95688C14.8179 3.95071 14.8242 3.94446 14.8303 3.93812L15.5242 2.92543C15.5328 2.91313 15.5412 2.90063 15.5492 2.88792L16.0555 2.06277C16.0767 2.02862 16.0955 1.99319 16.1118 1.9565L16.3806 1.33763C16.4537 1.17176 16.4683 1.00089 16.4244 0.82503L16.3556 0.537475C16.3438 0.488779 16.3251 0.442935 16.2993 0.399949L16.2431 0.312433C16.1755 0.415311 16.1735 0.519497 16.2368 0.624992L16.2868 0.549978C16.3763 0.391579 16.3454 0.261922 16.194 0.161006C16.0426 0.0600893 15.911 0.0813917 15.7992 0.224916L15.7492 0.29993C15.862 0.306639 15.9495 0.262881 16.0118 0.168655L15.9118 0.162404C15.859 0.158195 15.8069 0.162341 15.7555 0.174906L15.4679 0.243669C15.293 0.286421 15.1492 0.378104 15.0366 0.518722L14.6115 1.03757C14.5984 1.0538 14.5859 1.07047 14.574 1.08758L14.0177 1.87523L13.3113 2.86292L12.4799 3.98188L11.6047 5.1321L10.7858 6.1948L9.9919 7.11373L9.20425 7.89513L8.44785 8.54525L7.76647 9.0766L7.24137 9.46417L6.8788 9.70172L6.63501 9.85175L6.48498 9.93301L6.37871 9.98302C6.35086 9.9962 6.32377 10.0108 6.29744 10.0268L6.26619 10.0455L6.25993 10.0518C6.243 10.0596 6.22633 10.0679 6.20993 10.0768L6.17242 10.1018L6.13491 10.1205C6.09312 10.1444 6.05353 10.1715 6.01614 10.2018L5.98488 10.2268C5.74864 10.4162 5.63821 10.6621 5.65357 10.9645V10.9957C5.66685 11.2476 5.76896 11.456 5.95988 11.6208L6.02864 11.6833C6.07694 11.7243 6.12904 11.7598 6.18492 11.7896L6.3287 11.8709C6.35707 11.8871 6.38624 11.9017 6.41621 11.9146L6.66001 12.0084C6.67848 12.0174 6.69723 12.0257 6.71627 12.0334L7.03508 12.1397C7.07395 12.1528 7.11354 12.1633 7.15386 12.1709L7.59144 12.2522C7.63489 12.2596 7.67864 12.2638 7.72271 12.2647L8.29157 12.2835C8.33325 12.2864 8.37492 12.2864 8.4166 12.2835L9.13548 12.2022C9.16918 12.1979 9.20252 12.1916 9.2355 12.1834L10.0482 12.0022C10.067 11.9986 10.0858 11.9944 10.1044 11.9897L10.9233 11.7459C10.9402 11.7401 10.9569 11.7339 10.9733 11.7271L11.6797 11.4771C11.6923 11.4732 11.7048 11.469 11.7172 11.4646L12.2486 11.2458C12.2548 11.2438 12.2611 11.2417 12.2673 11.2395L12.6174 11.0895L12.8424 10.9895C12.8487 10.9875 12.855 10.9854 12.8612 10.9832L12.98 10.9332L13.055 10.9019C13.0917 10.8856 13.1271 10.8669 13.1612 10.8457L13.23 10.8082C13.2961 10.7723 13.3566 10.7285 13.4113 10.6769L13.4551 10.6269C13.4747 10.609 13.4934 10.5902 13.5113 10.5706L13.5488 10.5269L13.5863 10.4769C13.5182 10.5225 13.4578 10.5767 13.405 10.6394L13.4551 10.6019C13.2847 10.6038 13.1284 10.6518 12.9862 10.7457H13.03C13.0388 10.5009 12.9585 10.29 12.789 10.1132C12.6195 9.93633 12.4123 9.8471 12.1673 9.8455L12.1611 9.91426C12.2026 9.81634 12.2255 9.71423 12.2298 9.60795L12.1798 9.72047L12.061 9.92676L11.7922 10.3081L11.3359 10.8582L10.7045 11.5708L9.92313 12.3772L9.09172 13.1961L8.24156 13.9463L7.41641 14.6089L6.64126 15.1653L5.92862 15.6341L5.34101 15.9904L4.89718 16.253L4.59712 16.4155L4.42209 16.503L4.27831 16.5593C4.27412 16.5613 4.26996 16.5634 4.26581 16.5655L4.12828 16.628C4.10054 16.6391 4.07345 16.6516 4.04701 16.6655L3.94074 16.7281C3.93656 16.7301 3.93239 16.7322 3.92824 16.7343L3.84698 16.7781C3.77467 16.8206 3.71007 16.8727 3.65319 16.9343L3.60943 16.9781C3.52405 17.0686 3.46154 17.1728 3.42189 17.2907L3.40939 17.3407C3.35886 17.4858 3.34844 17.6337 3.37814 17.7845L3.39689 17.8533C3.41542 17.9394 3.44667 18.0207 3.49066 18.0971L3.54692 18.1971C3.58745 18.269 3.63746 18.3336 3.69695 18.3909L3.82822 18.5159C3.85769 18.5431 3.88895 18.5681 3.92199 18.5909L4.14078 18.7472C4.18029 18.7758 4.22196 18.8008 4.26581 18.8222L4.59087 18.9785C4.62733 18.9958 4.66484 19.0103 4.70339 19.0222L5.15347 19.1598C5.19657 19.1716 5.24033 19.1799 5.28475 19.1848L5.84736 19.266C5.88252 19.2725 5.91794 19.2766 5.95363 19.2785L6.59125 19.291C6.61635 19.2901 6.64135 19.288 6.66626 19.2848L7.31013 19.2348C7.32896 19.2333 7.34771 19.2312 7.3664 19.2285L7.98526 19.141C7.99568 19.1412 8.0061 19.1412 8.01652 19.141L8.57288 19.0347C8.58124 19.0328 8.58958 19.0307 8.59788 19.0285L9.06047 18.9285C9.07937 18.925 9.09812 18.9208 9.11673 18.916L9.49805 18.8097C9.50433 18.8077 9.51058 18.8056 9.5168 18.8035L9.81686 18.7097C9.83163 18.7038 9.84621 18.6976 9.86062 18.6909L10.0982 18.6034C10.115 18.5977 10.1317 18.5914 10.1482 18.5847L10.3295 18.5034C10.34 18.4994 10.3504 18.4953 10.3607 18.4909L10.492 18.4221L10.5983 18.3721C10.6088 18.3682 10.6192 18.364 10.6295 18.3596L10.7233 18.3096C10.7469 18.2961 10.7698 18.2816 10.792 18.2658L10.8671 18.2158C10.8776 18.2098 10.888 18.2036 10.8983 18.1971L10.9671 18.1471L11.0233 18.1096L11.0546 18.0846C11.0996 17.7257 10.9675 17.4524 10.6584 17.2645C10.3493 17.0767 10.0459 17.0854 9.7481 17.2907V17.3094C9.8227 17.1995 9.86854 17.0786 9.88563 16.9468L9.82936 17.0281L9.72309 17.1844L9.52306 17.4469L9.22925 17.8345C9.22716 17.8366 9.22507 17.8387 9.223 17.8408L8.83543 18.3659L8.31033 19.016L7.59144 19.8161L6.69127 20.7476L5.71608 21.6978L4.7659 22.5667L3.90324 23.3106L3.14059 23.9232L2.51547 24.392L2.05914 24.7233L1.73407 24.9171L1.52153 25.0296L1.39651 25.0921C1.49705 25.0851 1.5929 25.0601 1.68406 25.0171L1.6028 25.0234C1.70653 25.0575 1.8128 25.07 1.92161 25.0609H1.91536L1.85285 25.0234L1.79033 24.9859C1.68722 24.9283 1.57678 24.8949 1.45902 24.8859H1.42151C1.02389 24.8558 0.753008 25.0267 0.608859 25.3985L0.596357 25.436C0.521469 25.6298 0.521469 25.8235 0.596357 26.0173L0.633864 26.1173C0.656794 26.1749 0.685967 26.2291 0.721381 26.2799L0.827651 26.4299C0.86518 26.4854 0.908938 26.5354 0.958926 26.5799L1.17772 26.7737C1.21463 26.8065 1.25422 26.8357 1.29649 26.8612L1.65906 27.0738C1.6951 27.0955 1.73261 27.1142 1.77158 27.13L2.29668 27.3426C2.32919 27.3573 2.36253 27.3698 2.3967 27.3801L3.10308 27.5551C3.12985 27.5628 3.15693 27.569 3.18435 27.5739L4.02826 27.6989C4.04285 27.6993 4.05743 27.6993 4.07202 27.6989L4.99094 27.7927C4.99719 27.7927 5.00345 27.7927 5.0097 27.7927L5.90362 27.8552C5.90777 27.8573 5.91193 27.8594 5.91612 27.8614L6.71627 27.8989C6.72877 27.8992 6.74128 27.8992 6.75378 27.8989L7.41015 27.9052C7.41224 27.9052 7.41432 27.9052 7.41641 27.9052H7.904L8.22281 27.9114L8.40409 27.9239L8.52287 27.9364C8.46833 27.9152 8.41207 27.9006 8.35408 27.8927L8.4166 27.9177L8.4416 27.9302C8.46603 27.942 8.49104 27.9524 8.51661 27.9614L8.55412 27.9739C8.68368 28.0163 8.81495 28.0225 8.94795 27.9927L8.9792 27.9865C9.03556 27.974 9.08974 27.9552 9.14173 27.9302L9.18549 27.9114C9.19177 27.9094 9.19802 27.9074 9.20425 27.9052L9.25425 27.8802C9.18678 27.8921 9.12219 27.9129 9.06047 27.9427L9.09798 27.9364C9.12117 27.8158 9.11466 27.6968 9.07842 27.5795C9.04218 27.4621 8.98048 27.3602 8.89332 27.2736C8.80615 27.1871 8.70377 27.1261 8.58615 27.0908C8.46853 27.0554 8.3495 27.0497 8.22906 27.0738L8.21656 27.1238C8.26511 27.0465 8.29845 26.9632 8.31658 26.8737L8.26657 26.955L8.10404 27.1363L7.74147 27.5239C7.74147 27.5259 7.74147 27.528 7.74147 27.5301L7.18511 28.124L6.42872 28.8991L5.52229 29.768L4.54086 30.5994L3.57817 31.3246L2.72176 31.9122L2.00913 32.3435L1.47152 32.6311L1.0902 32.8061C1.08601 32.8082 1.08185 32.8102 1.0777 32.8124L0.846405 32.9186C0.738855 32.9695 0.649255 33.0424 0.577603 33.1374L0.521343 33.2124C0.432416 33.3285 0.390898 33.4596 0.396789 33.6057C0.40268 33.7518 0.454616 33.8791 0.552599 33.9876Z" fill="black"/>
<path d="M15.6429 0.63124C15.6429 0.736542 15.6802 0.826421 15.7546 0.900877C15.8291 0.975333 15.919 1.01256 16.0243 1.01256C16.1296 1.01256 16.2194 0.975333 16.2939 0.900877C16.3683 0.826421 16.4056 0.736542 16.4056 0.63124C16.4056 0.525944 16.3683 0.436064 16.2939 0.361608C16.2194 0.28715 16.1296 0.24992 16.0243 0.249917C15.919 0.24992 15.8291 0.28715 15.7546 0.361608C15.6802 0.436064 15.6429 0.525944 15.6429 0.63124ZM15.8555 0.26242L15.8242 0.274922C15.8047 0.283936 15.7859 0.294356 15.768 0.306178L15.7117 0.343685C15.583 0.423797 15.5127 0.539432 15.5008 0.690593C15.4889 0.841751 15.5403 0.96694 15.655 1.06616C15.7696 1.16538 15.9009 1.19827 16.0488 1.16482C16.1967 1.13137 16.301 1.04519 16.3618 0.906292L16.3868 0.850032C16.4009 0.819978 16.4113 0.788722 16.4181 0.756264L16.4243 0.718757C16.4555 0.556104 16.4065 0.422963 16.2773 0.319334C16.1481 0.215704 16.0075 0.196733 15.8555 0.26242ZM15.5554 0.287424L15.4617 0.356188C15.3401 0.442203 15.2525 0.554724 15.1991 0.693752L15.0991 0.962553C15.0684 1.03891 15.0496 1.11809 15.0428 1.2001L15.0178 1.65644C15.0128 1.71061 15.0128 1.76479 15.0178 1.81897L15.1053 2.50035C15.109 2.54035 15.1153 2.57994 15.1241 2.61912L15.3804 3.60681C15.3894 3.63648 15.3998 3.66566 15.4116 3.69432L15.8805 4.98832C15.8897 5.01587 15.9001 5.04296 15.9117 5.06959L16.5806 6.50736C16.5939 6.53513 16.6085 6.56222 16.6244 6.58862L17.4183 7.95138C17.4357 7.97942 17.4544 8.00651 17.4745 8.03265L18.2872 9.15786C18.3139 9.19532 18.3431 9.23075 18.3747 9.26413L19.1499 10.0705C19.1848 10.1067 19.2223 10.1401 19.2624 10.1706L19.9375 10.6832C19.9829 10.7164 20.0309 10.7456 20.0813 10.7707L20.6189 11.0457C20.6553 11.0648 20.6928 11.0815 20.7314 11.0957L21.119 11.2333C21.1678 11.252 21.2178 11.2666 21.269 11.277L21.5191 11.3208C21.5853 11.3322 21.652 11.3364 21.7191 11.3333H21.8441C21.9502 11.3282 22.0523 11.3053 22.1504 11.2645L22.1942 11.2458C22.3447 11.1843 22.4698 11.0895 22.5696 10.9612C22.6694 10.8329 22.7306 10.6883 22.7531 10.5273C22.7757 10.3663 22.7566 10.2105 22.6958 10.0597C22.6351 9.90893 22.5408 9.78335 22.413 9.68296L22.3942 9.67046C22.2235 9.5368 22.0297 9.4722 21.8129 9.47667H21.7629C21.6407 9.48033 21.524 9.50742 21.4128 9.55794L21.344 9.58294L21.3315 9.5892L21.3815 9.57669H21.3565C21.325 9.57924 21.2938 9.58341 21.2628 9.5892L21.1002 9.62045C21.0813 9.62403 21.0626 9.62819 21.044 9.63295L20.8314 9.68921C20.8146 9.69291 20.798 9.69708 20.7814 9.70172L20.5314 9.78298L20.2501 9.84549L19.9563 9.90175L19.6687 9.92676H19.3624L19.0936 9.90175L18.8373 9.83924L18.531 9.75173L18.2247 9.64546L17.9621 9.55794L17.7496 9.47667L17.6183 9.42041L17.5808 9.40166L17.5433 9.37665C17.6207 9.49188 17.7186 9.58565 17.8371 9.65796L17.8246 9.6392C17.4426 9.63672 17.1613 9.80384 16.9809 10.1406C16.8005 10.4773 16.8171 10.804 17.0307 11.1207H17.037C16.8548 10.9537 16.6402 10.8703 16.3931 10.8707L16.4118 10.8894C16.4337 10.9114 16.4567 10.9322 16.4806 10.952L16.5181 10.977C16.5202 10.9791 16.5223 10.9811 16.5244 10.9832L16.5619 11.0207L16.6181 11.0832L16.6869 11.1645L16.7932 11.302C16.7952 11.3041 16.7973 11.3062 16.7994 11.3083L16.9369 11.4771L17.337 12.0147C17.3451 12.0253 17.3535 12.0357 17.362 12.0459L17.7121 12.4647C17.7162 12.471 17.7203 12.4773 17.7246 12.4835L18.1747 13.0023C18.1828 13.0129 18.1911 13.0234 18.1997 13.0336L18.806 13.6712C18.8241 13.6886 18.8429 13.7053 18.8623 13.7212L19.5937 14.3901C19.608 14.4009 19.6226 14.4114 19.6374 14.4214L20.4126 15.0527C20.4289 15.0658 20.4455 15.0783 20.4626 15.0902L21.2315 15.6341C21.2479 15.645 21.2645 15.6554 21.2815 15.6654L21.9879 16.1092C22.0002 16.1178 22.0127 16.1262 22.0254 16.1342L22.6318 16.4655C22.6461 16.4742 22.6607 16.4826 22.6755 16.4905L23.1506 16.7218C23.1609 16.7283 23.1713 16.7345 23.1819 16.7406L23.5319 16.8968L23.7445 16.9906L23.8633 17.0469L23.9195 17.0781C23.8368 16.8308 23.6784 16.6495 23.4444 16.5343L23.4507 16.553C23.6065 16.5624 23.7555 16.5345 23.8974 16.4695C24.0394 16.4044 24.1577 16.3098 24.2524 16.1856C24.3471 16.0615 24.407 15.9223 24.4322 15.7682C24.4574 15.6141 24.4449 15.4631 24.3946 15.3153L24.3633 15.309C24.3467 15.3086 24.33 15.3086 24.3133 15.309H24.2633C24.2571 15.309 24.2508 15.309 24.2446 15.309L24.1696 15.3153C24.0803 15.3154 23.9928 15.3279 23.907 15.3528L23.8132 15.384C23.7659 15.3992 23.7201 15.4179 23.6757 15.4403L23.5632 15.4966C23.5219 15.5166 23.4823 15.5395 23.4444 15.5653L23.3006 15.6654C23.2836 15.6773 23.2669 15.6898 23.2506 15.7029L23.0756 15.8404C23.0714 15.8424 23.0672 15.8445 23.0631 15.8466L22.8693 16.0092L22.663 16.1529L22.4192 16.3092L22.1067 16.4593L21.6816 16.6405L21.1565 16.8281L20.6376 16.9844L20.1688 17.0594L19.8187 17.0719L19.5749 17.0281L19.4687 16.9844L19.4874 17.0031V16.9969C19.5329 17.0984 19.5933 17.1901 19.6687 17.2719L19.6374 17.2094C19.4623 17.356 19.3491 17.5406 19.2981 17.7633C19.2471 17.9859 19.2685 18.2014 19.3624 18.4096L19.3936 18.3909C19.1349 18.38 18.9056 18.4571 18.706 18.6222H18.7748C18.657 18.5717 18.534 18.5447 18.406 18.5409L18.481 18.5722C18.3908 18.4792 18.2866 18.4063 18.1684 18.3534L18.2309 18.4221C18.1862 18.3348 18.1299 18.2556 18.0621 18.1846L18.0809 18.2221L18.0934 18.2596C18.1091 18.3047 18.1278 18.3484 18.1497 18.3909L18.1872 18.4534L18.2184 18.5221C18.2205 18.5263 18.2226 18.5305 18.2247 18.5346L18.2747 18.6347C18.2863 18.6581 18.2988 18.681 18.3122 18.7034L18.381 18.8222L18.481 19.0035C18.485 19.0119 18.4892 19.0202 18.4935 19.0285L18.656 19.316C18.6658 19.3351 18.6762 19.3539 18.6873 19.3723L18.9311 19.7411C18.9449 19.7625 18.9595 19.7834 18.9748 19.8036L19.3436 20.285C19.3615 20.3066 19.3803 20.3274 19.3999 20.3475L19.9375 20.9476C19.9555 20.9671 19.9743 20.9858 19.9938 21.0039L20.7127 21.6852C20.7268 21.7003 20.7414 21.7149 20.7564 21.729L21.6191 22.4416C21.6293 22.4502 21.6397 22.4585 21.6503 22.4666L22.5568 23.1605C22.5671 23.167 22.5775 23.1732 22.588 23.1793L23.4319 23.7794C23.4503 23.7904 23.4691 23.8008 23.4882 23.8107L24.2196 24.2545C24.2359 24.2654 24.2526 24.2758 24.2696 24.2857L24.8509 24.5921C24.8551 24.5942 24.8593 24.5962 24.8634 24.5983L25.276 24.8108L25.5573 24.9546C25.5936 24.9758 25.6311 24.9946 25.6698 25.0109L25.8136 25.0609L25.8574 25.0796L25.8886 25.0984C25.8157 24.8309 25.6552 24.635 25.4073 24.5108L25.4135 24.5295C25.6632 24.2769 25.7424 23.9789 25.6511 23.6356L25.6261 23.6606C25.587 23.6992 25.5516 23.7409 25.5198 23.7856L25.5011 23.8107L25.4761 23.8482L25.4511 23.8732L25.4073 23.9169L25.3135 24.0044L25.2073 24.0857L25.0072 24.2107L24.6884 24.3858L24.2571 24.5795L23.7257 24.7796L23.1131 24.9671L22.4567 25.1234L21.8316 25.2422L21.2815 25.3172L20.8314 25.3609L20.4939 25.386C20.4645 25.3888 20.4353 25.393 20.4063 25.3985L20.1813 25.436C20.1346 25.4452 20.0887 25.4577 20.0438 25.4735L19.9313 25.511C19.736 25.5738 19.5755 25.6863 19.4499 25.8485L19.4312 25.8673C19.1679 26.207 19.1376 26.5663 19.3404 26.9452C19.5432 27.3241 19.8589 27.4982 20.2876 27.4676L20.3438 27.4613H20.3563H20.3251L20.2938 27.4488L20.2688 27.4363L20.2876 27.4551L20.3501 27.5114L20.4876 27.6864L20.7627 28.1052C20.7727 28.1201 20.7831 28.1347 20.7939 28.149L21.2503 28.7678C21.2642 28.7871 21.2788 28.8059 21.294 28.8241L21.9129 29.5617C21.9439 29.5974 21.9773 29.6307 22.0129 29.6618L22.8193 30.3807C22.8395 30.3982 22.8603 30.4148 22.8818 30.4307L23.7257 31.0745C23.74 31.0854 23.7546 31.0958 23.7695 31.1058L24.5509 31.6309C24.555 31.6351 24.5592 31.6393 24.5634 31.6434L25.1697 32.031L25.5511 32.3123L25.7386 32.5061L25.8699 32.6998L25.9449 32.8374L25.9511 32.8561L25.9574 32.8874C25.9696 32.7933 25.9676 32.6995 25.9511 32.6061L25.9449 32.6623C26.0618 32.5246 26.1327 32.3662 26.1574 32.1872L26.1387 32.206C26.4956 32.275 26.7915 32.1708 27.0264 31.8934L27.0076 31.8872C27.0303 31.8943 27.0532 31.9006 27.0764 31.9059L27.0451 31.8934C26.9855 31.8792 26.9251 31.8708 26.8638 31.8684L26.8013 31.8622C26.6865 31.854 26.574 31.8665 26.4637 31.8997L26.3262 31.9435C26.2965 31.9525 26.2674 31.9629 26.2387 31.9747L25.9949 32.0747C25.9886 32.0767 25.9824 32.0788 25.9762 32.081L25.6136 32.2373L25.1697 32.4185C24.925 32.5215 24.7542 32.6965 24.6572 32.9436L24.5821 33.1312L24.4259 33.2687L24.1383 33.3187C23.9743 33.3675 23.9072 33.4762 23.9372 33.6447C23.9671 33.8132 24.0675 33.8921 24.2383 33.8813L24.5321 33.8313L24.7759 33.9063L24.9635 34.0439C25.2248 34.2444 25.5124 34.2944 25.8261 34.1939L26.2887 34.0376C26.3205 34.0288 26.3518 34.0184 26.3825 34.0063L26.7513 33.8376C26.7534 33.8355 26.7555 33.8334 26.7576 33.8313L27.0013 33.725C27.0162 33.7171 27.0307 33.7088 27.0451 33.7L27.1764 33.6313C27.0438 33.6401 26.9188 33.6756 26.8013 33.7375L26.8638 33.7313C26.8015 33.7229 26.739 33.7208 26.6763 33.725L26.7075 33.7313C26.8079 33.7455 26.9079 33.7435 27.0076 33.725L27.0264 33.7188C27.1854 33.689 27.3271 33.6224 27.4514 33.5188L27.4702 33.5C27.6678 33.3353 27.7783 33.1248 27.8015 32.8686L27.8078 32.8124C27.8149 32.7285 27.8107 32.6451 27.7952 32.5623L27.7702 32.456C27.7658 32.4224 27.7596 32.389 27.7515 32.356L27.6952 32.181C27.6933 32.1705 27.6912 32.1601 27.689 32.1497L27.6015 31.8934C27.5768 31.8185 27.5435 31.7477 27.5014 31.6809L27.3077 31.3808C27.2714 31.3244 27.2298 31.2723 27.1826 31.2246L26.8701 30.9058C26.8349 30.8716 26.7974 30.8404 26.7576 30.812L26.295 30.4619C26.2766 30.4488 26.2579 30.4363 26.2387 30.4244L25.6261 30.0306L24.9009 29.5305L24.1571 28.9054L23.4632 28.199L22.8943 27.5176L22.4567 26.9237C22.4507 26.9132 22.4444 26.9028 22.438 26.8925L22.1067 26.4799C22.0908 26.4584 22.0742 26.4376 22.0567 26.4174L21.8254 26.1674C21.8074 26.1478 21.7886 26.1291 21.7691 26.1111L21.6003 25.9548C21.5669 25.9232 21.5315 25.894 21.494 25.8673L21.3565 25.7798C21.3244 25.757 21.2911 25.7361 21.2565 25.7173L21.1315 25.6485C21.0678 25.6141 21.0011 25.587 20.9314 25.5672L20.8002 25.5297C20.759 25.5187 20.7174 25.5104 20.6751 25.5047L20.5376 25.486C20.4672 25.4742 20.3964 25.47 20.3251 25.4735L20.2188 25.486C20.2626 25.4889 20.3063 25.4889 20.3501 25.486L20.2876 25.4797C20.2003 25.629 20.155 25.79 20.1518 25.9629C20.1485 26.1357 20.1877 26.2983 20.2694 26.4508C20.351 26.6032 20.4646 26.7259 20.6103 26.819C20.756 26.9121 20.9151 26.9637 21.0877 26.9738L21.1002 26.9488C20.8186 27.0144 20.606 27.1727 20.4626 27.4238L20.5439 27.4051L20.6876 27.3801L20.9877 27.3613C21.0023 27.3616 21.0169 27.3616 21.0315 27.3613L21.5066 27.3113C21.5191 27.3095 21.5316 27.3074 21.5441 27.3051L22.1317 27.2176C22.1442 27.2157 22.1567 27.2136 22.1692 27.2113L22.8443 27.0863C22.8653 27.0828 22.8861 27.0786 22.9068 27.0738L23.6195 26.8987C23.6384 26.893 23.6571 26.8868 23.6757 26.88L24.3446 26.6737C24.3635 26.668 24.3823 26.6618 24.4009 26.6549L24.9885 26.4237C25.016 26.4144 25.0431 26.404 25.0697 26.3924L25.5636 26.1548C25.5892 26.1414 25.6142 26.1268 25.6386 26.1111L26.0012 25.8923C26.0358 25.8735 26.0691 25.8526 26.1012 25.8298L26.3512 25.6297C26.3726 25.616 26.3935 25.6014 26.4137 25.586L26.5825 25.4297C26.6138 25.4004 26.643 25.3692 26.67 25.3359L26.7576 25.2297L26.8201 25.1672C26.8352 25.151 26.8498 25.1343 26.8638 25.1172L26.9263 25.0421L26.9826 24.9734C27.0051 24.9454 27.0259 24.9162 27.0451 24.8859L27.0826 24.8296C27.1286 24.7574 27.164 24.6803 27.1889 24.5983L27.2014 24.567C27.2673 24.3557 27.259 24.1473 27.1764 23.9419L27.1701 23.9232C27.096 23.7386 26.9751 23.5927 26.8076 23.4856L26.7826 23.4668L26.7325 23.4293L26.6013 23.3293C26.5597 23.2987 26.5159 23.2716 26.47 23.248L26.1887 23.0918C26.1866 23.0918 26.1845 23.0918 26.1824 23.0918L25.7699 22.873L25.2323 22.5792L24.5759 22.1416L23.7632 21.554L22.9006 20.8851L22.0879 20.1975L21.4315 19.5598L20.9439 19.016L20.6064 18.5784L20.3938 18.2783L20.2626 18.0346L20.1438 17.8283C20.1418 17.822 20.1397 17.8157 20.1375 17.8095L20.0688 17.7032L20.0375 17.6345C20.0355 17.6282 20.0334 17.622 20.0313 17.6157L19.9938 17.5532L19.975 17.5157L19.95 17.4469C19.9359 17.4063 19.9192 17.3667 19.9 17.3282L19.8437 17.2344C19.7956 17.144 19.7352 17.0627 19.6625 16.9906L19.5937 16.9281C19.4978 16.8331 19.3874 16.7602 19.2624 16.7093L19.1811 16.678C19.1085 16.6485 19.0335 16.6277 18.9561 16.6155L18.8873 16.6093C18.7066 16.5828 18.5316 16.6036 18.3622 16.6718L18.3247 16.6843C18.0853 16.7826 17.9089 16.948 17.7956 17.1807C17.6822 17.4133 17.6606 17.6542 17.7308 17.9033L17.7496 17.972C17.795 18.1361 17.8763 18.2798 17.9934 18.4034L18.0872 18.5034C18.1434 18.563 18.2059 18.6151 18.2747 18.6597L18.4622 18.7784C18.5252 18.8191 18.5919 18.8524 18.6623 18.8785L18.9561 18.9847C19.015 19.007 19.0754 19.0236 19.1374 19.0347L19.5624 19.1098C19.6287 19.1205 19.6954 19.1246 19.7625 19.1223L20.2876 19.1098C20.3358 19.109 20.3837 19.1048 20.4313 19.0973L21.0377 18.991C21.0778 18.985 21.1174 18.9767 21.1565 18.966L21.7691 18.7847C21.7965 18.7775 21.8236 18.7692 21.8504 18.7597L22.4192 18.5409C22.4425 18.5313 22.4655 18.5209 22.488 18.5096L22.9568 18.2846C22.9867 18.2714 23.0159 18.2568 23.0443 18.2408L23.4132 18.0158C23.4412 17.9984 23.4683 17.9796 23.4944 17.9595L23.7882 17.7407C23.8031 17.7307 23.8177 17.7203 23.832 17.7095L24.0695 17.5032C24.0845 17.4911 24.0991 17.4786 24.1133 17.4657L24.3008 17.2907L24.4134 17.1906L24.4634 17.1531L24.5071 17.1406C24.3915 17.1366 24.279 17.1533 24.1696 17.1906L24.2446 17.1969C24.2508 17.197 24.2571 17.197 24.2633 17.1969H24.3133C24.33 17.1973 24.3467 17.1973 24.3633 17.1969L24.3946 17.1906C24.5417 17.1837 24.6795 17.1443 24.808 17.0725C24.9365 17.0006 25.0423 16.9039 25.1252 16.7822C25.2082 16.6606 25.2596 16.5268 25.2795 16.3809C25.2995 16.235 25.2858 16.0924 25.2385 15.9529L25.2323 15.9342C25.1495 15.6868 24.9912 15.5055 24.7572 15.3903L24.6947 15.359C24.6782 15.3523 24.6615 15.3461 24.6446 15.3403L24.5134 15.2778L24.3071 15.1903L23.9945 15.0402L23.5569 14.8027L22.9881 14.4776L22.3192 14.0525L21.6003 13.5462L20.8627 12.9523L20.1813 12.321L19.6124 11.7271L19.1874 11.2333L18.856 10.8269L18.431 10.3018L18.2934 10.1268L18.1809 9.98302C18.1768 9.97672 18.1727 9.97047 18.1684 9.96427L18.0809 9.858C18.0648 9.84071 18.0482 9.82404 18.0309 9.80799L17.9684 9.73922L17.9184 9.68296C17.9102 9.67447 17.9019 9.66614 17.8934 9.65796L17.8309 9.59545C17.7962 9.55698 17.7587 9.52155 17.7183 9.48918L17.6683 9.45167C17.6383 9.42899 17.607 9.40815 17.5746 9.38916L17.537 9.3704C17.6013 9.43962 17.6742 9.49796 17.7558 9.54544L17.7371 9.52668C17.5486 9.32208 17.3152 9.21997 17.037 9.22038H17.0307C16.6487 9.21788 16.3674 9.38501 16.187 9.72174C16.0066 10.0585 16.0232 10.3852 16.2368 10.7019L16.2493 10.7207C16.3137 10.8163 16.3929 10.8976 16.4868 10.9645L16.5431 11.002C16.5922 11.0382 16.6443 11.0695 16.6994 11.0957L16.8057 11.1457L16.9744 11.227C16.9969 11.2383 17.0199 11.2488 17.0432 11.2583L17.2807 11.352C17.3014 11.359 17.3222 11.3652 17.3433 11.3708L17.6308 11.4646C17.6412 11.4668 17.6516 11.4689 17.6621 11.4708L17.9871 11.5646C18.0099 11.5696 18.0328 11.5738 18.0559 11.5771L18.4122 11.6521C18.4185 11.6522 18.4247 11.6522 18.431 11.6521L18.7873 11.7209C18.8164 11.7243 18.8455 11.7264 18.8748 11.7271L19.2499 11.7584C19.2748 11.7615 19.2998 11.7636 19.3249 11.7646H19.7062C19.7313 11.7636 19.7563 11.7615 19.7812 11.7584L20.1563 11.7271C20.1899 11.7248 20.2232 11.7206 20.2563 11.7146L20.6189 11.6458C20.6335 11.6441 20.6481 11.642 20.6626 11.6396L20.994 11.5521C21.0107 11.5484 21.0274 11.5442 21.044 11.5396L21.3128 11.4583L21.4815 11.4145L21.5816 11.3895L21.6753 11.377C21.7069 11.3724 21.7382 11.3662 21.7691 11.3583L21.8629 11.3333C21.901 11.3253 21.9386 11.3148 21.9754 11.302L22.0504 11.2708C22.0673 11.265 22.0839 11.2588 22.1004 11.252L22.1629 11.2208C22.0234 11.2172 21.89 11.2443 21.7629 11.302H21.8129C21.6805 11.2293 21.5388 11.1918 21.3878 11.1895L21.4065 11.1958C21.7458 11.0407 21.9234 10.7769 21.9392 10.4042C21.9549 10.0315 21.8003 9.75355 21.4753 9.57044L21.4315 9.5892C21.607 9.61549 21.7758 9.59257 21.9379 9.52043L21.8941 9.51418L21.7816 9.47667L21.5128 9.35165L21.1002 9.0891L20.5251 8.64527L19.8437 7.93888L19.0873 6.91369L18.3372 5.63219L17.6871 4.27568L17.2182 3.0442L16.9119 2.11902L16.7494 1.51266L16.6681 1.09383L16.6119 0.812524C16.594 0.722984 16.5607 0.639637 16.5119 0.562477L16.4493 0.468709C16.3533 0.316761 16.2172 0.222922 16.0411 0.187201C15.8649 0.151476 15.703 0.184884 15.5554 0.287424Z" fill="black"/>
</g>
<defs>
<clipPath id="clip0_1_7346">
<rect width="28" height="43" fill="white"/>
</clipPath>
</defs>
</svg>
