<svg width="36" height="32" viewBox="0 0 36 32" fill="none" xmlns="http://www.w3.org/2000/svg">
<g clip-path="url(#clip0_1_7243)">
<path d="M0.347483 3.14745L0.366236 3.21621C0.372164 3.24202 0.380499 3.26703 0.391241 3.29123L0.49126 3.52252C0.493274 3.52672 0.495358 3.53089 0.497511 3.53502L0.722554 4.00386C0.726639 4.00811 0.730807 4.01228 0.735056 4.01637L1.17264 4.83527C1.17852 4.84591 1.18477 4.85633 1.19139 4.86653L1.94779 6.04175C1.95174 6.0502 1.95591 6.05853 1.96029 6.06676L3.01049 7.54829C3.01453 7.55463 3.01869 7.56088 3.02299 7.56704L4.32324 9.22986C4.32527 9.23405 4.32735 9.23822 4.32949 9.24236L5.73601 10.9427C5.73807 10.9448 5.74016 10.9469 5.74226 10.9489L7.14253 12.5742C7.14662 12.5785 7.15079 12.5827 7.15503 12.5867L8.52404 14.0933C8.53402 14.1041 8.54444 14.1146 8.55529 14.1245L9.86179 15.3623C9.8832 15.381 9.90612 15.3977 9.93056 15.4123L11.137 16.1874L11.9309 16.8563C12.0393 16.948 12.1393 16.9397 12.231 16.8313C12.3227 16.723 12.3143 16.6229 12.206 16.5313L11.4183 15.8624L10.5619 14.7372C10.5522 14.7241 10.5417 14.7116 10.5307 14.6997L9.30544 13.3744L7.91767 11.8929L6.51741 10.2863L5.13589 8.59224L3.8794 6.91692L2.83546 5.44789L2.04155 4.29767C2.03949 4.29557 2.03741 4.29348 2.0353 4.29142L1.4977 3.54753L1.23515 3.1412L1.13513 2.94116C1.11769 2.91146 1.09685 2.88438 1.07262 2.8599L1.02886 2.80989C0.895728 2.65923 0.739081 2.62852 0.558922 2.71777C0.378763 2.80703 0.308283 2.95025 0.347483 3.14745Z" fill="black"/>
<path d="M1.36018 4.31644C1.36018 4.42519 1.39863 4.51802 1.47553 4.59492C1.55243 4.67181 1.64525 4.71026 1.75401 4.71026C1.86276 4.71026 1.95558 4.67181 2.03248 4.59492C2.10938 4.51802 2.14783 4.42519 2.14783 4.31644C2.14783 4.20769 2.10938 4.11486 2.03248 4.03796C1.95558 3.96106 1.86276 3.92261 1.75401 3.92261C1.64525 3.92261 1.55243 3.96106 1.47553 4.03796C1.39863 4.11486 1.36018 4.20769 1.36018 4.31644ZM2.12908 4.16016L2.11658 4.1289C2.10194 4.09518 2.08318 4.06392 2.06031 4.03514L2.04156 4.00388L2.01656 3.95387L1.96655 3.84135L1.91654 3.69757L1.88528 3.47878C1.88355 3.46622 1.88147 3.45372 1.87903 3.44127L1.82277 3.19123C1.81572 3.15075 1.8053 3.11116 1.79151 3.07245L1.71025 2.87241C1.70831 2.86404 1.70623 2.85571 1.704 2.84741L1.65399 2.73489L1.62273 2.64737C1.61751 2.74147 1.63002 2.83316 1.66024 2.92242L1.66649 2.82241C1.60626 2.92472 1.57292 3.03516 1.56647 3.15372L1.60398 3.08496L1.71025 2.97869L1.91029 2.7974L2.12283 2.64112L2.32286 2.5286L2.47289 2.47234L2.57916 2.45359L2.72294 2.47234L2.96049 2.5411L3.27305 2.66613L3.65437 2.85991L4.0732 3.10371L4.52953 3.39751L5.02338 3.74133L5.54848 4.15391L6.10483 4.6165L6.66744 5.11034L7.23005 5.61669C7.2342 5.61881 7.23837 5.62089 7.24255 5.62294L7.83642 6.13554C7.8385 6.13554 7.84058 6.13554 7.84267 6.13554L8.44903 6.66064C8.45315 6.66485 8.45732 6.66902 8.46153 6.67314L9.0804 7.17323C9.08452 7.17745 9.08869 7.18161 9.0929 7.18574L9.66801 7.63582C9.68019 7.64663 9.6927 7.65705 9.70552 7.66708L10.2619 8.0484C10.3143 8.08501 10.3705 8.11418 10.4307 8.13592L10.962 8.3297C10.9724 8.33212 10.9828 8.3342 10.9933 8.33596L11.3746 8.44223L11.5996 8.66102C11.7288 8.78592 11.8559 8.7838 11.9809 8.65467C12.1058 8.52555 12.1038 8.39847 11.9747 8.27344L11.7434 8.05465L11.5996 7.67958C11.5925 7.66031 11.5841 7.64156 11.5746 7.62332L11.3183 7.12322C11.2854 7.05863 11.2437 7.00028 11.1933 6.94819L10.7182 6.46685C10.7004 6.44715 10.6817 6.42839 10.662 6.41059L10.1056 5.94175C10.1035 5.94174 10.1014 5.94174 10.0993 5.94175L9.49923 5.4354L8.89912 4.9103L8.31151 4.40396L7.75515 3.89761C7.749 3.89126 7.74275 3.88501 7.7364 3.87886L7.16129 3.38501C7.15924 3.38083 7.15715 3.37666 7.15504 3.37251L6.58618 2.89742C6.5759 2.89093 6.56548 2.88468 6.55492 2.87867L5.99856 2.44733C5.99035 2.44092 5.98201 2.43467 5.97356 2.42858L5.44846 2.05976C5.43619 2.05108 5.42369 2.04274 5.41095 2.03476L4.92961 1.72845C4.91727 1.72187 4.90477 1.71562 4.8921 1.70969L4.43577 1.45339C4.41345 1.43978 4.39053 1.42728 4.367 1.41589L3.92317 1.2221C3.90063 1.21271 3.87771 1.20437 3.85441 1.1971L3.46058 1.06582C3.43589 1.05832 3.41088 1.05207 3.38557 1.04707L3.04175 0.965802C2.9903 0.954191 2.93821 0.947939 2.88547 0.947048L2.57916 0.940797C2.5222 0.940693 2.46594 0.946944 2.41038 0.959551L2.12908 1.02206C2.08862 1.0292 2.04903 1.03962 2.01031 1.05332L1.73525 1.16584C1.69851 1.1797 1.66309 1.19637 1.62898 1.21585L1.34143 1.39088C1.3177 1.4042 1.29478 1.41879 1.27267 1.43464L1.00386 1.64718C0.986659 1.65897 0.969989 1.67147 0.953854 1.68469L0.703807 1.90973C0.693073 1.91984 0.682654 1.93025 0.672551 1.94099L0.491266 2.12852C0.450357 2.17013 0.414934 2.21597 0.384996 2.26605L0.30373 2.40358C0.244488 2.50396 0.211149 2.61231 0.203711 2.72864L0.19746 2.82866C0.191418 2.9249 0.203921 3.01866 0.234967 3.10996L0.272475 3.22248C0.279661 3.24582 0.287996 3.26874 0.297479 3.29124L0.359991 3.43502C0.364062 3.44134 0.36823 3.44759 0.372494 3.45378L0.466261 3.65381C0.484378 3.68885 0.505216 3.72219 0.528773 3.75383L0.678802 3.96637C0.690524 3.98363 0.703027 4.0003 0.716309 4.01638L0.897594 4.22267C0.901699 4.2269 0.905866 4.23107 0.910096 4.23517L1.06638 4.40396C1.10502 4.44401 1.14877 4.47735 1.19765 4.50398L1.33518 4.58524C1.36312 4.60061 1.39229 4.61311 1.42269 4.62275L1.50396 4.654L1.54772 4.67276C1.55392 4.67499 1.56017 4.67707 1.56647 4.67901L1.59773 4.69151C1.76518 4.76128 1.91305 4.73203 2.04132 4.60376C2.1696 4.47548 2.19885 4.32761 2.12908 4.16016Z" fill="black"/>
<path d="M1.24139 2.77239C1.24143 2.8673 1.27502 2.9483 1.34215 3.0154C1.40928 3.08249 1.49029 3.11604 1.5852 3.11604C1.68011 3.11604 1.76113 3.08249 1.82826 3.0154C1.89539 2.9483 1.92897 2.8673 1.92902 2.77239C1.92898 2.67748 1.89539 2.59648 1.82826 2.52939C1.76113 2.46229 1.68011 2.42875 1.5852 2.42875C1.49029 2.42875 1.40928 2.46229 1.34215 2.52939C1.27502 2.59648 1.24143 2.67748 1.24139 2.77239ZM1.66022 2.36607L1.60396 2.34731C1.58947 2.34451 1.57489 2.34243 1.5602 2.34106L1.49144 2.32856C1.40102 2.31466 1.31351 2.32508 1.22889 2.35981L1.13512 2.40357C1.08028 2.42446 1.03027 2.45363 0.985089 2.49109L0.891321 2.57235C0.849824 2.60887 0.814401 2.65054 0.785051 2.69738L0.703786 2.8224C0.683669 2.8562 0.666999 2.89163 0.653776 2.92867L0.578762 3.12871C0.545088 3.21083 0.528419 3.29626 0.528752 3.38501L0.541255 3.72257C0.54404 3.79988 0.558627 3.8749 0.585013 3.94762L0.766298 4.46021C0.775168 4.4879 0.785586 4.51499 0.797554 4.54148L1.12887 5.22286C1.13851 5.24205 1.14892 5.2608 1.16012 5.27912L1.64146 6.09803C1.64747 6.10859 1.65372 6.11901 1.66022 6.12928L2.25408 7.04196C2.26195 7.05681 2.27029 7.07139 2.27909 7.08571L2.97297 8.01089C2.983 8.02371 2.99342 8.03622 3.00422 8.0484L3.76687 8.94857C3.77494 8.9592 3.78328 8.96962 3.79187 8.97982L4.56702 9.81123C4.57517 9.81975 4.5835 9.82809 4.59203 9.83624L5.35467 10.5801C5.36086 10.5844 5.36711 10.5886 5.37342 10.5926L6.09231 11.2615C6.09643 11.2657 6.1006 11.2699 6.10481 11.274L6.77369 11.8554C6.77781 11.8596 6.78198 11.8638 6.78619 11.8679L7.40506 12.3805L7.94891 12.8806L8.43026 13.3682L8.86159 13.8182L9.23666 14.2496L9.58048 14.6559L9.91179 15.0372L10.2431 15.4561L10.5807 15.8749C10.5827 15.8812 10.5847 15.8874 10.5869 15.8936L10.9057 16.2687C10.9157 16.2816 10.9261 16.2941 10.937 16.3062L11.2183 16.6C11.2244 16.6064 11.2307 16.6126 11.237 16.6188L11.4808 16.8563C11.51 16.8839 11.5413 16.909 11.5746 16.9313L11.8247 17.1001C11.9044 17.1547 11.9919 17.1901 12.0872 17.2064L12.306 17.2439C12.457 17.2699 12.59 17.2323 12.7052 17.1313C12.8203 17.0302 12.8748 16.9031 12.8686 16.7501L12.8623 16.5313C12.8567 16.4031 12.8171 16.2864 12.7436 16.1812L12.5748 15.9311C12.5559 15.9026 12.5351 15.8755 12.5123 15.8499L12.281 15.5998L12.0247 15.3185L11.7309 14.956L11.3996 14.5371L11.062 14.1121C11.0559 14.1036 11.0497 14.0952 11.0433 14.087L10.7057 13.6932C10.7036 13.6911 10.7015 13.689 10.6994 13.687L10.3494 13.2869C10.3432 13.2805 10.337 13.2743 10.3306 13.2681L9.93679 12.8368C9.93061 12.8325 9.92436 12.8284 9.91804 12.8243L9.46795 12.3555L8.96786 11.8491L8.44276 11.299C8.43864 11.2948 8.43447 11.2906 8.43026 11.2865L7.8489 10.7052C7.84083 10.6945 7.83249 10.6841 7.82389 10.6739L7.16752 10.0863L6.45488 9.43616L5.71724 8.71102L4.9671 7.91087L4.22946 7.04196L3.56058 6.14804L2.97297 5.28537L2.50413 4.50397L2.17282 3.8601L1.94777 3.39126C1.94778 3.38918 1.94778 3.38709 1.94777 3.38501L1.83525 3.15372L1.829 3.11621V3.10371L1.83525 3.0787V3.07245L1.854 3.04745C1.81809 3.07405 1.78684 3.1053 1.76024 3.14121L1.81025 3.10996C1.95319 3.00437 2.00709 2.86447 1.97196 2.69027C1.93683 2.51606 1.83291 2.408 1.66022 2.36607ZM12.3748 17.0814L12.481 17.2064C12.5738 17.2749 12.6643 17.2719 12.7523 17.1974C12.8404 17.1229 12.8583 17.0342 12.8061 16.9313L12.6998 16.8063C12.607 16.7378 12.5166 16.7408 12.4285 16.8153C12.3404 16.8898 12.3225 16.9785 12.3748 17.0814Z" fill="black"/>
<path d="M7.76174 16.9314V16.9252C7.75614 16.8765 7.74155 16.8306 7.71798 16.7877L7.69922 16.7439C7.7006 16.8036 7.71518 16.8599 7.74298 16.9127V16.8627C7.74118 16.7244 7.68323 16.6161 7.56915 16.5379C7.45507 16.4597 7.3332 16.4447 7.20356 16.4929C7.07391 16.5411 6.99143 16.632 6.95612 16.7658C6.92081 16.8995 6.94764 17.0193 7.0366 17.1252L7.06785 17.169L7.09286 17.2002C7.15901 17.282 7.24444 17.3279 7.34916 17.3378H7.35541C7.47245 17.3504 7.5726 17.3151 7.65585 17.2319C7.73909 17.1486 7.77439 17.0485 7.76174 16.9314ZM6.84281 16.8564C6.84281 16.9893 6.8898 17.1028 6.98379 17.1968C7.07778 17.2908 7.19123 17.3378 7.32415 17.3378C7.45707 17.3378 7.57052 17.2908 7.66451 17.1968C7.7585 17.1028 7.80549 16.9893 7.80549 16.8564C7.80549 16.7235 7.7585 16.6101 7.66451 16.5161C7.57052 16.4221 7.45707 16.3751 7.32415 16.3751C7.19123 16.3751 7.07778 16.4221 6.98379 16.5161C6.8898 16.6101 6.84281 16.7235 6.84281 16.8564ZM6.77405 16.9252V17.144C6.7743 17.2102 6.78472 17.2748 6.8053 17.3378L6.93658 17.7566C6.947 17.7867 6.9595 17.8158 6.97409 17.8441L7.26164 18.4255C7.27098 18.4469 7.2814 18.4677 7.2929 18.488L7.71173 19.1569C7.7233 19.1762 7.7358 19.195 7.74923 19.2131L8.28058 19.8883C8.29231 19.9055 8.30482 19.9222 8.31809 19.9383L8.94321 20.6009C8.95317 20.6138 8.96359 20.6263 8.97447 20.6384L9.66835 21.276C9.68616 21.2937 9.70492 21.3104 9.72461 21.326L10.4497 21.8574C10.4923 21.8901 10.5381 21.9172 10.5873 21.9386L11.2874 22.2262C11.4269 22.2832 11.5686 22.2894 11.7125 22.245L12.2751 22.0699C12.3584 22.0463 12.4292 22.0026 12.4876 21.9386L12.8315 21.5386L13.2003 21.201C13.3209 21.0885 13.325 20.9718 13.2126 20.8511C13.1002 20.7303 12.9836 20.7261 12.8627 20.8384L12.5501 21.1385L12.1813 21.176L11.7562 21.0572L11.1874 20.7759L10.5498 20.2821L9.91215 19.6757L9.33078 19.0381L8.84319 18.4067L8.45562 17.7879L8.16806 17.2377L7.96803 16.8564C7.95516 16.8304 7.94058 16.8054 7.92427 16.7814L7.79924 16.6064C7.64248 16.3799 7.43259 16.3076 7.16959 16.3894C6.90658 16.4712 6.77474 16.6498 6.77405 16.9252Z" fill="black"/>
<path d="M11.65 22.3574L11.6813 22.3762C11.6854 22.3783 11.6896 22.3804 11.6938 22.3824L11.7875 22.4324C11.8638 22.4736 11.945 22.4903 12.0313 22.4824L12.2439 22.4637C12.2892 22.4597 12.3329 22.4493 12.3752 22.4324L12.6815 22.3137C12.7214 22.2998 12.7589 22.281 12.794 22.2574L13.1566 21.9886C13.179 21.9716 13.1998 21.9529 13.2191 21.9323L13.5941 21.551C13.6153 21.5278 13.6341 21.5028 13.6504 21.476L13.9567 20.9947C13.9885 20.9447 14.0094 20.8905 14.0192 20.8321L14.1005 20.3383L14.2755 19.9445C14.3419 19.7945 14.3002 19.6863 14.1504 19.6197C14.0005 19.5531 13.8922 19.5947 13.8254 19.7444L13.6629 20.1195L13.3003 20.4383C13.2872 20.448 13.2747 20.4584 13.2628 20.4696L12.894 20.8821L12.5502 21.226L12.2439 21.451L12.0126 21.576L11.8313 21.651C11.8292 21.651 11.8271 21.651 11.825 21.651L11.725 21.6948C11.7101 21.7001 11.6955 21.7064 11.6813 21.7135L11.65 21.7323C11.5946 21.7649 11.551 21.809 11.5191 21.8648C11.4871 21.9206 11.4712 21.9806 11.4712 22.0449C11.4712 22.1091 11.4871 22.1691 11.5191 22.2249C11.551 22.2807 11.5946 22.3249 11.65 22.3574Z" fill="black"/>
<path d="M10.9623 15.7312C10.9623 15.8262 10.9959 15.9072 11.063 15.9743C11.1302 16.0415 11.2112 16.075 11.3062 16.075C11.4011 16.075 11.4821 16.0415 11.5493 15.9743C11.6164 15.9072 11.65 15.8262 11.65 15.7312C11.65 15.6363 11.6164 15.5552 11.5493 15.4881C11.4821 15.421 11.4011 15.3874 11.3062 15.3874C11.2112 15.3874 11.1302 15.421 11.063 15.4881C10.9959 15.5552 10.9623 15.6363 10.9623 15.7312ZM10.9311 15.725C10.9311 15.832 10.9689 15.9233 11.0446 15.999C11.1203 16.0747 11.2116 16.1125 11.3187 16.1125C11.4257 16.1125 11.517 16.0747 11.5927 15.999C11.6684 15.9233 11.7062 15.832 11.7062 15.725C11.7062 15.6179 11.6684 15.5266 11.5927 15.4509C11.517 15.3752 11.4257 15.3374 11.3187 15.3374C11.2116 15.3374 11.1203 15.3752 11.0446 15.4509C10.9689 15.5266 10.9311 15.6179 10.9311 15.725ZM10.9186 15.725C10.9186 15.8424 10.9601 15.9425 11.0431 16.0255C11.1261 16.1085 11.2263 16.15 11.3437 16.15C11.4611 16.15 11.5612 16.1085 11.6442 16.0255C11.7272 15.9425 11.7687 15.8424 11.7687 15.725C11.7687 15.6076 11.7272 15.5074 11.6442 15.4244C11.5612 15.3414 11.4611 15.2999 11.3437 15.2999C11.2263 15.2999 11.1261 15.3414 11.0431 15.4244C10.9601 15.5074 10.9186 15.6076 10.9186 15.725ZM10.9686 15.9813L11.0311 16.0875C11.0504 16.1234 11.0733 16.1567 11.0999 16.1876L11.2687 16.3751C11.288 16.3974 11.3088 16.4183 11.3312 16.4376L11.6125 16.6689L11.925 16.969L12.2251 17.319L12.4876 17.7379L12.7064 18.2442L12.8815 18.7568L13.0002 19.2256L13.069 19.5945L13.0878 19.8508L13.0627 20.0258L12.994 20.2196L12.8877 20.4384L12.7752 20.6197L12.6564 20.7884C12.6477 20.8007 12.6393 20.8132 12.6314 20.8259L12.5376 20.9697C12.3557 21.2595 12.3857 21.5254 12.6277 21.7674C12.8696 22.0093 13.1355 22.0393 13.4253 21.8574L13.5691 21.7636C13.6333 21.725 13.6895 21.677 13.7379 21.6198L13.8879 21.4323C13.9062 21.4084 13.9229 21.3834 13.9379 21.3573L14.0817 21.1197C14.0955 21.0975 14.108 21.0746 14.1192 21.051L14.2505 20.7697C14.2695 20.7274 14.2841 20.6836 14.2942 20.6384L14.363 20.3383C14.3759 20.2849 14.3822 20.2308 14.3817 20.1758L14.3755 19.8633C14.3744 19.8423 14.3723 19.8215 14.3692 19.8007L14.3255 19.4444C14.3242 19.4256 14.3222 19.4068 14.3192 19.3882L14.2255 18.9568C14.2236 18.9464 14.2216 18.9359 14.2192 18.9256L14.0817 18.4192C14.0781 18.4045 14.0739 18.3899 14.0692 18.3755L13.8754 17.8129C13.8697 17.798 13.8635 17.7835 13.8566 17.7691L13.6066 17.194C13.594 17.1658 13.5794 17.1387 13.5628 17.1127L13.2503 16.6189C13.2334 16.5925 13.2147 16.5675 13.194 16.5439L12.844 16.1375C12.832 16.1245 12.8195 16.112 12.8064 16.1L12.4564 15.7625C12.4424 15.7493 12.4278 15.7368 12.4126 15.725L12.1063 15.4812C12.066 15.4485 12.0222 15.4214 11.975 15.3999L11.7437 15.2999C11.6702 15.2666 11.5931 15.25 11.5125 15.2499L11.3937 15.2561C11.3081 15.2581 11.2283 15.2807 11.1545 15.3242C11.0807 15.3676 11.0221 15.4262 10.9788 15.5001C10.9355 15.574 10.9129 15.6537 10.9111 15.7394C10.9093 15.825 10.9285 15.9056 10.9686 15.9813ZM12.4939 21.3635C12.4939 21.4982 12.5415 21.6131 12.6367 21.7083C12.7319 21.8035 12.8468 21.8511 12.9815 21.8511C13.1161 21.8511 13.2311 21.8035 13.3263 21.7083C13.4215 21.6131 13.4691 21.4982 13.4691 21.3635C13.4691 21.2289 13.4215 21.114 13.3263 21.0188C13.2311 20.9236 13.1161 20.8759 12.9815 20.8759C12.8468 20.8759 12.7319 20.9236 12.6367 21.0188C12.5415 21.114 12.4939 21.2289 12.4939 21.3635ZM13.0377 21.1448L12.969 21.0947C12.8428 21.0336 12.7388 21.06 12.657 21.1739C12.5751 21.2877 12.5833 21.3947 12.6814 21.4948L12.7502 21.5448C12.8764 21.6059 12.9804 21.5796 13.0622 21.4657C13.144 21.3519 13.1359 21.2449 13.0377 21.1448Z" fill="black"/>
<path d="M3.711 17.6753C3.711 17.7789 3.74762 17.8673 3.82086 17.9405C3.8941 18.0138 3.9825 18.0504 4.08608 18.0504C4.18965 18.0504 4.27805 18.0138 4.35129 17.9405C4.42453 17.8673 4.46115 17.7789 4.46115 17.6753C4.46115 17.5717 4.42453 17.4833 4.35129 17.4101C4.27805 17.3369 4.18965 17.3002 4.08608 17.3002C3.9825 17.3002 3.8941 17.3369 3.82086 17.4101C3.74762 17.4833 3.711 17.5717 3.711 17.6753ZM3.62349 17.6441C3.62349 17.7718 3.66865 17.8808 3.75898 17.9712C3.8493 18.0615 3.95834 18.1066 4.08608 18.1066C4.21382 18.1066 4.32285 18.0615 4.41317 17.9712C4.5035 17.8808 4.54866 17.7718 4.54866 17.6441C4.54866 17.5163 4.5035 17.4073 4.41317 17.317C4.32285 17.2266 4.21382 17.1815 4.08608 17.1815C3.95834 17.1815 3.8493 17.2266 3.75898 17.317C3.66865 17.4073 3.62349 17.5163 3.62349 17.6441ZM4.4799 18.0066L4.59867 17.9066C4.62553 17.8857 4.65054 17.8628 4.67369 17.8378L4.82372 17.6628L5.05501 17.4628L5.36132 17.2252L5.69888 16.9939L6.0427 16.8251L6.34275 16.7376H6.54279L6.83035 16.8627C6.85699 16.8724 6.88408 16.8808 6.91161 16.8877L7.32419 17.0127L7.618 17.1627L7.78053 17.4878C7.86999 17.6298 7.98941 17.6626 8.13879 17.586C8.28817 17.5093 8.33128 17.3933 8.26812 17.2377L8.09309 16.8877L8.05558 16.4751C8.05295 16.439 8.04669 16.4036 8.03683 16.3688L7.90555 15.9125C7.83947 15.6855 7.69986 15.5209 7.48672 15.4186L7.05539 15.2061C6.93053 15.1474 6.79926 15.1224 6.66157 15.1311L6.18647 15.1561C6.11391 15.1589 6.04307 15.1714 5.97393 15.1936L5.5051 15.3561C5.46198 15.3692 5.4203 15.3859 5.38007 15.4061L4.94249 15.6437C4.90756 15.662 4.87422 15.6828 4.84247 15.7062L4.46115 16C4.41276 16.0345 4.369 16.0741 4.32987 16.1188L4.05482 16.4563C4.03442 16.4801 4.01566 16.5051 3.99856 16.5313L3.79852 16.8439C3.78962 16.8582 3.78129 16.8728 3.77352 16.8877L3.64849 17.1252C3.61355 17.19 3.59063 17.2587 3.57973 17.3315L3.55472 17.4815C3.51462 17.7402 3.60841 17.9342 3.83608 18.0634C4.06375 18.1926 4.27835 18.1737 4.4799 18.0066Z" fill="black"/>
<path d="M4.32361 16.6001C4.32367 16.7123 4.36336 16.808 4.44269 16.8873C4.52203 16.9666 4.61777 17.0062 4.72994 17.0062C4.84211 17.0062 4.93785 16.9666 5.01719 16.8873C5.09652 16.808 5.13621 16.7123 5.13627 16.6001C5.13621 16.4879 5.09652 16.3922 5.01719 16.3129C4.93785 16.2336 4.84211 16.194 4.72994 16.194C4.61777 16.194 4.52203 16.2336 4.44269 16.3129C4.36336 16.3922 4.32367 16.4879 4.32361 16.6001ZM5.01749 16.2875L4.99874 16.275C4.94333 16.2216 4.87826 16.1855 4.80353 16.1669C4.7288 16.1482 4.65441 16.1495 4.58038 16.1707C4.50634 16.1919 4.44256 16.2302 4.38903 16.2856C4.33551 16.341 4.29941 16.4061 4.28073 16.4808C4.26205 16.5555 4.26329 16.6299 4.28446 16.7039C4.30562 16.778 4.34388 16.8418 4.39922 16.8953C4.45457 16.9489 4.51959 16.985 4.5943 17.0038C4.66901 17.0225 4.74339 17.0213 4.81746 17.0002L4.84246 16.9939C4.9986 16.9499 5.09618 16.8491 5.1352 16.6916C5.17422 16.5341 5.13499 16.3994 5.01749 16.2875ZM4.51115 16.1688L4.44864 16.1875C4.22432 16.2662 4.09096 16.4225 4.04856 16.6564L3.9798 17.0252C3.96648 17.0978 3.9644 17.1707 3.97355 17.244L4.06106 17.9691C4.06452 18.0071 4.07078 18.0446 4.07982 18.0816L4.39238 19.2006C4.39943 19.226 4.40777 19.251 4.41738 19.2756L4.98624 20.7384C4.99868 20.7707 5.01327 20.8019 5.03 20.8322L5.91767 22.4262C5.92541 22.4411 5.93375 22.4557 5.94267 22.47L6.98037 24.0203C6.98245 24.0203 6.98454 24.0203 6.98662 24.0203L7.98056 25.4705C7.99003 25.4858 8.00044 25.5004 8.01182 25.5143L8.98075 26.602L9.64963 27.4334C9.76218 27.5748 9.88923 27.5893 10.0308 27.4769C10.1723 27.3645 10.187 27.2375 10.0747 27.0959L9.41208 26.2707L8.66819 25.0267L7.76802 23.5514L7.04288 21.8824L6.40526 20.2008L5.88016 18.7505L5.5676 17.6691L5.38006 16.9752C5.37476 16.9541 5.36851 16.9332 5.36131 16.9127L5.23629 16.5563C5.18999 16.4303 5.11081 16.3303 4.99874 16.2563L4.94248 16.2188C4.80713 16.1295 4.66335 16.1128 4.51115 16.1688Z" fill="black"/>
<path d="M5.27383 18.8317C5.27383 18.9457 5.31412 19.0429 5.39468 19.1235C5.47524 19.204 5.57248 19.2443 5.68641 19.2443C5.80034 19.2443 5.89759 19.204 5.97815 19.1235C6.05871 19.0429 6.09899 18.9457 6.09899 18.8317C6.09899 18.7178 6.05871 18.6206 5.97815 18.54C5.89759 18.4594 5.80034 18.4192 5.68641 18.4192C5.57248 18.4192 5.47524 18.4594 5.39468 18.54C5.31412 18.6206 5.27383 18.7178 5.27383 18.8317ZM5.14881 18.8192C5.14881 18.9591 5.19825 19.0784 5.29712 19.1773C5.39599 19.2761 5.51533 19.3256 5.65516 19.3256C5.79498 19.3256 5.91433 19.2761 6.0132 19.1773C6.11207 19.0784 6.1615 18.9591 6.1615 18.8192C6.1615 18.6794 6.11207 18.5601 6.0132 18.4612C5.91433 18.3623 5.79498 18.3129 5.65516 18.3129C5.51533 18.3129 5.39599 18.3623 5.29712 18.4612C5.19825 18.5601 5.14881 18.6794 5.14881 18.8192ZM5.46762 18.2066L5.41136 18.2191C5.1607 18.2761 5.00025 18.4282 4.93002 18.6755L4.87376 18.8692C4.84055 18.9849 4.83638 19.1016 4.86126 19.2193L4.97378 19.7569C4.98139 19.7952 4.9918 19.8327 5.00503 19.8694L5.34885 20.7821C5.3566 20.7991 5.36493 20.8157 5.37385 20.8321L5.93021 22.0261C5.93602 22.0409 5.94227 22.0555 5.94896 22.0699L6.6616 23.3951C6.67127 23.4143 6.68169 23.433 6.69286 23.4514L7.50551 24.7079C7.52097 24.7317 7.53764 24.7546 7.55552 24.7766L8.41193 25.8393C8.43146 25.8634 8.45229 25.8864 8.47444 25.9081L9.31836 26.727C9.34395 26.7517 9.37104 26.7746 9.39962 26.7958L10.1935 27.3896C10.2274 27.413 10.2628 27.4339 10.2998 27.4521L11.0874 27.8772C11.1528 27.9128 11.2216 27.9399 11.2937 27.9585L12.0939 28.1585C12.1699 28.1768 12.247 28.1852 12.3252 28.1835L13.0878 28.171C13.1729 28.1703 13.2563 28.1577 13.3379 28.1335L14.0568 27.9147C14.1295 27.8921 14.1982 27.8609 14.263 27.8209L14.9069 27.4334C14.9849 27.3859 15.0537 27.3276 15.1132 27.2583L15.5508 26.7457C15.6504 26.6285 15.7046 26.493 15.7133 26.3394L15.7321 26.0581L15.9634 25.8456C16.0967 25.7247 16.103 25.5976 15.9821 25.4642C15.8613 25.3309 15.7342 25.3246 15.6008 25.4455L15.382 25.6518L15.1195 25.6143C15.0038 25.5981 14.8912 25.6106 14.7819 25.6518L14.1505 25.8893C14.1337 25.8951 14.117 25.9013 14.1005 25.9081L13.4754 26.1956L12.9315 26.3582L12.4064 26.3707L11.7813 26.2206L11.0937 25.9518L10.3998 25.4955L9.63717 24.7766L8.84326 23.7889L8.05561 22.595L7.35548 21.3322L6.81788 20.182L6.45531 19.3006C6.45532 19.2985 6.45532 19.2964 6.45531 19.2943L6.24902 18.7942C6.24325 18.7794 6.237 18.7648 6.23027 18.7505L6.14275 18.5692C6.10848 18.7189 6.12515 18.8626 6.19276 19.0005L6.20526 18.9443C6.22984 18.8408 6.22764 18.738 6.19866 18.6357C6.16968 18.5334 6.1176 18.4446 6.04242 18.3695C5.96725 18.2943 5.87851 18.2422 5.77622 18.2132C5.67393 18.1842 5.57106 18.182 5.46762 18.2066Z" fill="black"/>
<path d="M27.6343 17.4377C27.6343 17.5448 27.6722 17.6361 27.7479 17.7118C27.8235 17.7875 27.9149 17.8253 28.0219 17.8253C28.1289 17.8253 28.2203 17.7875 28.296 17.7118C28.3717 17.6361 28.4095 17.5448 28.4095 17.4377C28.4095 17.3307 28.3717 17.2394 28.296 17.1637C28.2203 17.088 28.1289 17.0502 28.0219 17.0502C27.9149 17.0502 27.8235 17.088 27.7479 17.1637C27.6722 17.2394 27.6343 17.3307 27.6343 17.4377ZM27.4593 17.419C27.4593 17.5726 27.5136 17.7038 27.6223 17.8124C27.7309 17.921 27.862 17.9753 28.0157 17.9753C28.1693 17.9753 28.3004 17.921 28.4091 17.8124C28.5177 17.7038 28.572 17.5726 28.572 17.419C28.572 17.2654 28.5177 17.1342 28.4091 17.0256C28.3004 16.917 28.1693 16.8626 28.0157 16.8626C27.862 16.8626 27.7309 16.917 27.6223 17.0256C27.5136 17.1342 27.4593 17.2654 27.4593 17.419ZM28.4533 16.9251L28.3907 16.8626C28.2672 16.7347 28.1171 16.6597 27.9407 16.6376L27.7469 16.6126C27.6695 16.6036 27.5924 16.6057 27.5156 16.6188L27.2343 16.6688C27.1674 16.6797 27.1028 16.6985 27.0405 16.7251L26.6467 16.9001C26.6254 16.9097 26.6045 16.9201 26.5841 16.9314L26.059 17.2127C26.0377 17.2243 26.0168 17.2368 25.9965 17.2502L25.3714 17.6628C25.363 17.6689 25.3546 17.6751 25.3464 17.6815L24.6213 18.2066C24.6086 18.2146 24.5961 18.223 24.5838 18.2316L23.8086 18.8568C23.8044 18.8609 23.8002 18.8651 23.7961 18.8693L22.1958 20.1945L21.3957 20.8446C21.3936 20.8467 21.3915 20.8488 21.3894 20.8509L20.6018 21.5073C20.5933 21.5134 20.585 21.5196 20.5768 21.526L19.8579 22.1636C19.8472 22.1738 19.8368 22.1842 19.8266 22.1949L19.214 22.795C19.201 22.8092 19.1885 22.8238 19.1765 22.8388L18.6764 23.3951C18.6542 23.419 18.6334 23.444 18.6139 23.4701L18.2326 24.0077C18.2123 24.0338 18.1936 24.0609 18.1763 24.089L17.8762 24.6266C17.865 24.647 17.8546 24.6679 17.845 24.6891L17.6012 25.2142C17.5922 25.2327 17.5839 25.2514 17.5762 25.2705L17.3824 25.7831C17.378 25.7955 17.3738 25.808 17.3699 25.8206L17.2011 26.3144C17.1901 26.3535 17.1818 26.3931 17.1761 26.4332L17.0698 26.9646C17.0588 27.0287 17.0546 27.0933 17.0573 27.1583L17.0636 27.7209C17.0661 27.7909 17.0766 27.8597 17.0948 27.9272L17.2386 28.5086C17.2487 28.5469 17.2612 28.5844 17.2761 28.6211L17.5012 29.19C17.5103 29.2175 17.5208 29.2446 17.5324 29.2712L17.8012 29.7963C17.818 29.8308 17.8368 29.8641 17.8575 29.8964L18.1638 30.3652C18.1971 30.4145 18.2346 30.4603 18.2763 30.5027L18.6326 30.8715C18.6925 30.9324 18.7592 30.9845 18.8327 31.0278L19.2515 31.2779C19.3528 31.3369 19.4611 31.3765 19.5766 31.3966L20.0829 31.4904C20.1533 31.5024 20.2241 31.5065 20.2955 31.5029L20.8643 31.4842C20.9127 31.4815 20.9606 31.4752 21.0081 31.4654L21.6207 31.3529C21.6524 31.3461 21.6836 31.3378 21.7145 31.3279L22.3646 31.1404C22.3793 31.1365 22.3939 31.1324 22.4084 31.1278L23.0772 30.8966C23.0941 30.8908 23.1107 30.8845 23.1272 30.8778L23.8086 30.609C23.8276 30.6013 23.8464 30.5929 23.8649 30.584L24.59 30.2464C24.5942 30.2444 24.5984 30.2423 24.6025 30.2402L25.4089 29.8401C25.4152 29.8381 25.4214 29.836 25.4277 29.8339L26.2716 29.3963C26.2821 29.3902 26.2925 29.384 26.3028 29.3775L27.2155 28.8587C27.226 28.8547 27.2364 28.8505 27.2468 28.8462L28.2032 28.2586C28.2116 28.2545 28.2199 28.2503 28.2282 28.246L29.1659 27.6334C29.1807 27.6255 29.1953 27.6171 29.2096 27.6084L30.0911 26.9708C30.1104 26.9569 30.1291 26.9423 30.1473 26.927L30.9725 26.2207C30.9897 26.2067 31.0063 26.1921 31.0225 26.1769L31.7914 25.4268C31.8111 25.4068 31.8298 25.3859 31.8477 25.3643L32.5478 24.5578C32.5631 24.5396 32.5777 24.5209 32.5915 24.5016L33.2167 23.6514C33.2274 23.6392 33.2378 23.6267 33.2479 23.6139L33.798 22.7825C33.8067 22.7681 33.8151 22.7536 33.823 22.7388L34.2919 21.9386C34.3053 21.9162 34.3178 21.8933 34.3294 21.8698L34.7044 21.0947C34.7112 21.0782 34.7174 21.0615 34.7232 21.0447L35.017 20.332C35.0319 20.2953 35.0444 20.2578 35.0545 20.2195L35.2295 19.5569C35.2473 19.4914 35.2577 19.4247 35.2608 19.3569L35.2796 18.7943C35.2836 18.6739 35.2648 18.5572 35.2233 18.4442L35.0608 17.9941C35.0158 17.8688 34.9471 17.7584 34.8545 17.6628L34.5232 17.3127C34.4668 17.2568 34.4043 17.2089 34.3356 17.1689L33.8793 16.8876C33.8772 16.8876 33.8751 16.8876 33.873 16.8876L33.4042 16.6063L32.9854 16.35L32.604 16.0937C32.5857 16.0806 32.567 16.0681 32.5478 16.0562L32.1165 15.8062C32.0512 15.7687 31.9824 15.7396 31.9102 15.7187L31.3476 15.5561C31.2904 15.5381 31.2321 15.5256 31.1725 15.5186L30.4786 15.4499C30.435 15.4447 30.3913 15.4427 30.3474 15.4436L29.6535 15.4749C29.4226 15.4843 29.2226 15.5676 29.0534 15.7249L28.6908 16.0625C28.6437 16.1042 28.6042 16.1522 28.572 16.2063L28.4595 16.4188L28.2595 16.5126C28.0848 16.596 28.039 16.7252 28.1223 16.9C28.2055 17.0748 28.3346 17.1207 28.5095 17.0377L28.6595 16.9627L28.8221 17.0439C28.8303 17.0483 28.8386 17.0524 28.8471 17.0564L29.2972 17.2627C29.426 17.3227 29.5614 17.3518 29.7035 17.3502L30.3536 17.344L30.9162 17.3877L31.2975 17.494L31.6039 17.6628L31.9664 17.9066C31.9767 17.913 31.9871 17.9193 31.9977 17.9253L32.4353 18.1941C32.4415 18.1963 32.4477 18.1984 32.454 18.2004L32.9166 18.4754L33.2729 18.6942L33.3917 18.813L33.423 18.9068L33.4167 19.1881L33.2854 19.6882L33.0291 20.2883L32.6478 20.9759L32.1852 21.7386L31.6601 22.5325L31.0725 23.3326L30.4224 24.0765L29.7097 24.7766L28.9283 25.4268L28.0969 26.0269L27.1905 26.6082L26.2528 27.1708L25.3589 27.6647L24.54 28.0898L23.7524 28.4711L23.0585 28.7899L22.4334 29.04L21.802 29.2462L21.1956 29.415L20.6955 29.5275L20.3267 29.5463L20.0954 29.5025L19.9329 29.4088L19.7266 29.2025L19.4765 28.8399L19.2077 28.3961L19.0015 27.9647L18.8952 27.5709L18.8889 27.2021L18.9514 26.802L19.0702 26.3832L19.239 25.9331L19.4578 25.4705L19.7141 25.0142L20.0454 24.5641L20.4955 24.064L21.0769 23.4951L21.7707 22.87L22.5334 22.2262L23.3273 21.5698C23.3294 21.5677 23.3315 21.5656 23.3335 21.5635L24.9276 20.2195C24.9297 20.2174 24.9318 20.2154 24.9338 20.2133L25.6777 19.5756L26.3404 19.0505L26.903 18.663L27.3593 18.4067L27.6719 18.2629L27.9031 18.1879C27.9308 18.1789 27.9579 18.1685 27.9844 18.1566L28.1657 18.0754C28.2267 18.0474 28.2829 18.012 28.3345 17.9691L28.4032 17.9128C28.5535 17.7867 28.6335 17.6258 28.6434 17.4299C28.6534 17.234 28.59 17.0658 28.4533 16.9251Z" fill="black"/>
<path d="M13.0315 26.527C13.0315 26.6219 13.0651 26.703 13.1322 26.7701C13.1994 26.8372 13.2804 26.8708 13.3754 26.8708C13.4703 26.8708 13.5513 26.8372 13.6185 26.7701C13.6856 26.703 13.7192 26.6219 13.7192 26.527C13.7192 26.432 13.6856 26.351 13.6185 26.2839C13.5513 26.2167 13.4703 26.1832 13.3754 26.1832C13.2804 26.1832 13.1994 26.2167 13.1322 26.2839C13.0651 26.351 13.0315 26.432 13.0315 26.527ZM12.8127 26.5207C12.8127 26.6761 12.8677 26.8087 12.9775 26.9186C13.0874 27.0284 13.22 27.0833 13.3754 27.0833C13.5307 27.0833 13.6633 27.0284 13.7732 26.9186C13.883 26.8087 13.938 26.6761 13.938 26.5207C13.938 26.3654 13.883 26.2328 13.7732 26.1229C13.6633 26.0131 13.5307 25.9581 13.3754 25.9581C13.22 25.9581 13.0874 26.0131 12.9775 26.1229C12.8677 26.2328 12.8127 26.3654 12.8127 26.5207ZM12.719 26.5082C12.719 26.6878 12.7825 26.841 12.9094 26.9679C13.0363 27.0949 13.1896 27.1584 13.3691 27.1584C13.5486 27.1584 13.7019 27.0949 13.8288 26.9679C13.9558 26.841 14.0192 26.6878 14.0192 26.5082C14.0192 26.3287 13.9558 26.1755 13.8288 26.0485C13.7019 25.9216 13.5486 25.8581 13.3691 25.8581C13.1896 25.8581 13.0363 25.9216 12.9094 26.0485C12.7825 26.1755 12.719 26.3287 12.719 26.5082ZM13.0816 27.1021L13.1753 27.1521C13.2462 27.1906 13.3212 27.2177 13.4004 27.2334L13.6629 27.2834C13.6733 27.2857 13.6837 27.2877 13.6942 27.2896L14.1192 27.3584L14.6756 27.4834L15.382 27.6835C15.3924 27.6857 15.4028 27.6878 15.4132 27.6897L16.1821 27.8772C16.2069 27.8846 16.2319 27.8909 16.2572 27.896L17.0073 28.0085C17.055 28.0152 17.1029 28.0173 17.1511 28.0148L17.7887 27.9898C17.8118 27.9892 17.8347 27.9871 17.8575 27.9835L18.27 27.9148L18.5701 28.0273C18.7227 28.0689 18.8274 28.0158 18.8842 27.8682C18.9409 27.7206 18.8988 27.6111 18.7576 27.5397L18.4451 27.4209L18.1575 27.1084C18.1364 27.0855 18.1135 27.0646 18.0888 27.0458L17.5824 26.6583C17.5377 26.6237 17.4898 26.5946 17.4386 26.5707L16.751 26.2519C16.7244 26.2402 16.6973 26.2297 16.6697 26.2207L15.9196 25.9644C15.9092 25.96 15.8988 25.9559 15.8883 25.9519L15.1632 25.7331C15.1426 25.7261 15.1217 25.7198 15.1007 25.7143L14.4881 25.5768C14.4324 25.5653 14.3761 25.559 14.3193 25.5581L13.8629 25.5393C13.7302 25.5356 13.6031 25.5606 13.4816 25.6143L13.2316 25.7206C13.0845 25.7852 12.9679 25.8852 12.8815 26.0206L12.8253 26.1144C12.7155 26.2849 12.6861 26.4682 12.737 26.6644C12.7879 26.8606 12.9028 27.0065 13.0816 27.1021Z" fill="black"/>
<path d="M15.1882 26.6208C15.1882 26.733 15.2278 26.8288 15.3072 26.9081C15.3865 26.9874 15.4823 27.0271 15.5945 27.0271C15.7067 27.0271 15.8025 26.9874 15.8818 26.9081C15.9612 26.8288 16.0008 26.733 16.0008 26.6208C16.0008 26.5086 15.9612 26.4128 15.8818 26.3335C15.8025 26.2541 15.7067 26.2144 15.5945 26.2144C15.4823 26.2144 15.3865 26.2541 15.3072 26.3335C15.2278 26.4128 15.1882 26.5086 15.1882 26.6208ZM15.0256 26.6458C15.0256 26.8046 15.0818 26.9401 15.1941 27.0524C15.3064 27.1647 15.4419 27.2209 15.6008 27.2209C15.7596 27.2209 15.8951 27.1647 16.0074 27.0524C16.1197 26.9401 16.1759 26.8046 16.1759 26.6458C16.1759 26.487 16.1197 26.3514 16.0074 26.2391C15.8951 26.1268 15.7596 26.0707 15.6008 26.0707C15.4419 26.0707 15.3064 26.1268 15.1941 26.2391C15.0818 26.3514 15.0256 26.487 15.0256 26.6458ZM14.9506 27.0334L15.0069 27.1521C15.0937 27.3389 15.2292 27.4785 15.4132 27.571L15.6633 27.696C15.7251 27.7281 15.7897 27.7531 15.8571 27.771L16.2634 27.871C16.2737 27.8754 16.2841 27.8795 16.2946 27.8835L16.8072 27.9898C16.8689 28.0043 16.9314 28.0126 16.9948 28.0148L17.5699 28.0273C17.9418 28.0351 18.2064 27.8705 18.3638 27.5334L18.42 27.4084C18.2808 27.3852 18.1808 27.4373 18.12 27.5647L18.6076 27.6522C18.7749 27.6637 18.8736 27.5869 18.9036 27.4219C18.9336 27.2569 18.8683 27.1503 18.7076 27.1021L18.22 27.0146C18.2276 27.1633 18.3047 27.2509 18.4513 27.2772L18.445 27.1396C18.432 26.7778 18.259 26.5257 17.9262 26.3832L17.3948 26.1582C17.3325 26.1305 17.2679 26.1097 17.2011 26.0957L16.6885 25.9957C16.6802 25.9935 16.6718 25.9914 16.6635 25.9894L16.2446 25.9206C16.2136 25.9149 16.1823 25.9107 16.1509 25.9081L15.8758 25.8894C15.7828 25.8833 15.6911 25.8916 15.6008 25.9144L15.4695 25.9456C15.3564 25.9739 15.2547 26.025 15.1645 26.0988C15.0742 26.1726 15.004 26.2621 14.9538 26.3673C14.9036 26.4725 14.8783 26.5834 14.8777 26.7C14.8771 26.8165 14.9014 26.9277 14.9506 27.0334Z" fill="black"/>
<path d="M12.3181 8.34824C12.3182 8.46387 12.3591 8.56256 12.4409 8.64431C12.5226 8.72605 12.6213 8.76693 12.737 8.76693C12.8526 8.76693 12.9513 8.72605 13.0331 8.64431C13.1149 8.56256 13.1558 8.46387 13.1558 8.34824C13.1558 8.23261 13.1149 8.13393 13.0331 8.05218C12.9513 7.97043 12.8526 7.92956 12.737 7.92956C12.6213 7.92956 12.5226 7.97043 12.4409 8.05218C12.3591 8.13393 12.3182 8.23261 12.3181 8.34824ZM12.3119 8.34824C12.3119 8.4656 12.3535 8.56576 12.4365 8.64872C12.5194 8.73169 12.6196 8.77318 12.737 8.77318C12.8543 8.77318 12.9545 8.73169 13.0375 8.64872C13.1205 8.56576 13.162 8.4656 13.1621 8.34824C13.162 8.23089 13.1205 8.13073 13.0375 8.04776C12.9545 7.96479 12.8543 7.92331 12.737 7.92331C12.6196 7.92331 12.5194 7.96479 12.4365 8.04776C12.3535 8.13073 12.3119 8.23089 12.3119 8.34824ZM13.1058 8.1357L13.0933 8.1107C13.025 7.99437 12.9252 7.92113 12.7937 7.89097C12.6623 7.86082 12.5405 7.88322 12.4284 7.95816C12.3162 8.03311 12.249 8.13708 12.2266 8.27008C12.2042 8.40307 12.2337 8.52334 12.3151 8.63088C12.3965 8.73842 12.5042 8.79948 12.6383 8.81404C12.7724 8.82861 12.8907 8.79211 12.9933 8.70456L13.012 8.68581C13.1915 8.5277 13.2228 8.34434 13.1058 8.1357ZM12.0931 8.34824C12.0931 8.4967 12.1456 8.62341 12.2506 8.72838C12.3555 8.83336 12.4823 8.88584 12.6307 8.88584C12.7792 8.88584 12.9059 8.83336 13.0108 8.72838C13.1158 8.62341 13.1683 8.4967 13.1683 8.34824C13.1683 8.19979 13.1158 8.07307 13.0108 7.9681C12.9059 7.86313 12.7792 7.81064 12.6307 7.81064C12.4823 7.81064 12.3555 7.86313 12.2506 7.9681C12.1456 8.07307 12.0931 8.19979 12.0931 8.34824ZM12.5869 7.74188H12.5182C12.5533 7.74906 12.5887 7.75322 12.6245 7.75438L12.5995 7.74813C12.2678 7.84194 12.1087 8.06104 12.1222 8.40544C12.1357 8.74985 12.3115 8.95582 12.6495 9.02337L12.712 9.00462C12.7835 8.98648 12.8502 8.9573 12.912 8.9171L13.0683 8.80458C13.0746 8.80051 13.0809 8.79635 13.087 8.79208L13.3621 8.59204L13.7309 8.32324L14.1873 8.01068C14.1979 8.0026 14.2083 7.99427 14.2185 7.98567L14.7061 7.61685L15.2375 7.25428L15.8251 6.91047L16.4814 6.5729L17.1941 6.24159L17.9192 5.92903L18.6068 5.66023L19.257 5.44144L19.9321 5.24765L21.2949 4.87258L21.9262 4.7038L22.4638 4.58502L22.8952 4.51626L23.1952 4.50376L23.4203 4.52876L23.5953 4.57877L23.8016 4.7038L24.1204 4.92259L24.483 5.21014L24.883 5.57896L25.2831 5.97904L25.6582 6.38537L26.002 6.8042L26.3083 7.21678L26.5834 7.61685L26.8209 8.03568L27.0522 8.51077L27.3085 9.06713L27.5711 9.64224L27.8336 10.2361L28.0774 10.8612L28.3274 11.5113L28.5712 12.1927C28.5732 12.2032 28.5752 12.2136 28.5775 12.224L28.8525 12.9304C28.8566 12.9367 28.8608 12.9429 28.865 12.9491L29.1589 13.643C29.1589 13.6451 29.1589 13.6472 29.1589 13.6493L29.4402 14.3056L29.6777 14.9245L29.8777 15.4871C29.8919 15.5257 29.9086 15.5632 29.9278 15.5996L30.1465 16.0122C30.1787 16.0756 30.2183 16.1339 30.2653 16.1872L30.4779 16.4185C30.6696 16.6331 30.9035 16.6996 31.1795 16.6178C31.4555 16.536 31.6154 16.3529 31.6593 16.0685L31.7093 15.7559C31.7216 15.6812 31.7237 15.6062 31.7156 15.5309L31.6593 15.0745C31.6546 15.0152 31.6442 14.9568 31.6281 14.8995L31.4405 14.3181C31.4367 14.3034 31.4326 14.2889 31.428 14.2744L31.1842 13.6305C31.1803 13.6179 31.1762 13.6054 31.1717 13.593L30.8842 12.9179L30.5966 12.2365L30.3278 11.5489L30.0778 10.8675C30.0758 10.8591 30.0737 10.8508 30.0715 10.8425L29.809 10.1861C29.807 10.1798 29.8049 10.1736 29.8027 10.1673L29.5339 9.52346C29.5319 9.51719 29.5298 9.51094 29.5277 9.50471L29.2589 8.8921C29.2568 8.89 29.2547 8.88792 29.2526 8.88584L28.9901 8.29823C28.988 8.29405 28.9859 8.28988 28.9838 8.28573L28.715 7.72312C28.713 7.71894 28.7109 7.71477 28.7088 7.71062L28.4587 7.19802C28.4491 7.17679 28.4387 7.15595 28.4275 7.13551L28.1462 6.66667C28.1345 6.64533 28.122 6.6245 28.1087 6.60416L27.8023 6.16658C27.7943 6.15387 27.786 6.14137 27.7773 6.12907L27.4335 5.68523C27.4254 5.67463 27.4171 5.66421 27.4085 5.65398L27.0334 5.21014C27.0234 5.19736 27.0129 5.18486 27.0022 5.17264L26.5896 4.73505C26.5835 4.72871 26.5772 4.72246 26.5709 4.7163L26.1458 4.29122C26.1356 4.28055 26.1252 4.27013 26.1145 4.25996L25.6769 3.85989C25.6647 3.84913 25.6522 3.83871 25.6394 3.82863L25.2269 3.49732C25.2087 3.48199 25.1899 3.4674 25.1706 3.45356L24.8018 3.19726C24.7795 3.18164 24.7566 3.16705 24.733 3.1535L24.3954 2.96597C24.34 2.93259 24.2817 2.9055 24.2204 2.8847L23.8703 2.77843C23.8153 2.76054 23.759 2.74804 23.7016 2.74092L23.3265 2.70342C23.2746 2.69679 23.2225 2.69471 23.1702 2.69717L22.7451 2.72217C22.72 2.72528 22.6949 2.72945 22.6701 2.73467L22.17 2.80969C22.1469 2.81296 22.124 2.81713 22.1013 2.82219L21.5136 2.95346C21.5032 2.95536 21.4928 2.95745 21.4824 2.95972L20.826 3.13475C20.8219 3.13472 20.8177 3.13472 20.8135 3.13475L19.4445 3.52232C19.434 3.52629 19.4236 3.53046 19.4132 3.53482L18.7194 3.75987C18.7089 3.76384 18.6984 3.768 18.6881 3.77237L18.0005 4.02867C17.9921 4.03063 17.9838 4.03271 17.9755 4.03492L17.2628 4.32873C17.2544 4.33276 17.2461 4.33693 17.2378 4.34123L16.4939 4.66629C16.4855 4.67032 16.4772 4.67449 16.4689 4.67879L15.7375 5.03511C15.7206 5.0429 15.7039 5.05124 15.6875 5.06012L15.0062 5.44144C14.9913 5.44934 14.9767 5.45767 14.9624 5.46644L14.3498 5.86027C14.3349 5.87021 14.3203 5.88063 14.306 5.89152L13.7497 6.29785C13.7347 6.30779 13.7202 6.31821 13.7059 6.32911L13.2246 6.73543C13.2073 6.74933 13.1906 6.76391 13.1746 6.77919L12.7807 7.17302L12.4432 7.48558C12.4324 7.49568 12.422 7.50609 12.4119 7.51683L12.1869 7.75438L12.0869 7.8544L12.0681 7.8669C11.9718 8.17448 12.0562 8.41987 12.3214 8.60308C12.5865 8.78629 12.8459 8.77844 13.0995 8.57954L13.1058 8.55453C12.9713 8.63945 12.8817 8.75822 12.837 8.91085L12.8933 8.87334C13.1497 8.71266 13.2384 8.48625 13.1593 8.19412C13.0802 7.90198 12.8895 7.75124 12.5869 7.74188ZM30.6279 16.1997C30.6279 16.3137 30.6682 16.4109 30.7487 16.4915C30.8293 16.572 30.9265 16.6123 31.0405 16.6123C31.1544 16.6123 31.2516 16.572 31.3322 16.4915C31.4128 16.4109 31.453 16.3137 31.453 16.1997C31.453 16.0858 31.4128 15.9886 31.3322 15.908C31.2516 15.8274 31.1544 15.7872 31.0405 15.7872C30.9265 15.7872 30.8293 15.8274 30.7487 15.908C30.6682 15.9886 30.6279 16.0858 30.6279 16.1997ZM30.8154 16.3748L30.8217 16.4623C30.8346 16.6285 30.9241 16.7054 31.0904 16.693C31.2567 16.6805 31.3338 16.5911 31.3218 16.4248L31.3155 16.3373C31.303 16.1706 31.2134 16.0935 31.0467 16.106C30.88 16.1185 30.8029 16.2081 30.8154 16.3748Z" fill="black"/>
<path d="M26.796 18.5439L26.8147 18.5502C26.8311 18.5555 26.8478 18.5596 26.8648 18.5627L26.9398 18.5814C26.9623 18.5876 26.9852 18.5918 27.0085 18.5939L27.1461 18.6064C27.1838 18.6091 27.2213 18.607 27.2586 18.6002L27.4586 18.5627C27.4799 18.5579 27.5007 18.5516 27.5211 18.5439L27.7712 18.4627L28.0712 18.3814L28.4088 18.3064C28.43 18.3013 28.4508 18.295 28.4713 18.2876L28.8589 18.1626C28.8758 18.157 28.8925 18.1508 28.9089 18.1439L29.2715 17.9876L29.5715 17.8626L29.8028 17.7875L30.0091 17.7438L30.2216 17.7063C30.2713 17.6974 30.3192 17.6828 30.3654 17.6625L30.5029 17.6C30.5808 17.566 30.6465 17.516 30.7001 17.45C30.7536 17.3841 30.7891 17.3095 30.8065 17.2263C30.8239 17.1431 30.8212 17.0606 30.7985 16.9787C30.7759 16.8969 30.7357 16.8247 30.678 16.7623L30.578 16.6498C30.4964 16.5639 30.3985 16.5056 30.2842 16.4748L30.0716 16.4123C29.9922 16.3871 29.911 16.3767 29.8278 16.381L29.5715 16.3998C29.5137 16.4053 29.4575 16.4178 29.4027 16.4373L29.1089 16.5311C29.0833 16.54 29.0583 16.5504 29.0339 16.5623L28.7089 16.7123C28.6854 16.7215 28.6624 16.7319 28.6401 16.7436L28.3025 16.9499C28.2919 16.9558 28.2815 16.9621 28.2713 16.9686L27.9337 17.1937C27.923 17.2017 27.9126 17.21 27.9024 17.2187L27.6524 17.4125L27.4086 17.5437L27.1711 17.65C27.1605 17.6538 27.1501 17.658 27.1398 17.6625L26.9585 17.7625C26.9564 17.7646 26.9543 17.7667 26.9523 17.7688L26.8835 17.8063L26.8648 17.8125C26.8478 17.8156 26.8311 17.8198 26.8147 17.825L26.796 17.8313C26.6323 17.8937 26.5505 18.0125 26.5505 18.1876C26.5505 18.3628 26.6323 18.4816 26.796 18.5439ZM30.3217 17.5125L30.4092 17.5375C30.5076 17.5651 30.6013 17.5539 30.6904 17.5039C30.7795 17.4538 30.8379 17.3796 30.8655 17.2812C30.8931 17.1828 30.8819 17.089 30.8319 16.9999C30.7818 16.9108 30.7076 16.8525 30.6092 16.8249L30.5217 16.7999C30.4234 16.7724 30.3297 16.7837 30.2407 16.8337C30.1517 16.8838 30.0934 16.958 30.0658 17.0563C30.0382 17.1546 30.0494 17.2483 30.0993 17.3373C30.1493 17.4264 30.2234 17.4848 30.3217 17.5125Z" fill="black"/>
<path d="M26.8959 18.0251C26.8959 18.1322 26.9338 18.2235 27.0095 18.2992C27.0851 18.3749 27.1765 18.4127 27.2835 18.4127C27.3905 18.4127 27.4819 18.3749 27.5576 18.2992C27.6332 18.2235 27.6711 18.1322 27.6711 18.0251C27.6711 17.9181 27.6332 17.8267 27.5576 17.7511C27.4819 17.6754 27.3905 17.6376 27.2835 17.6376C27.1765 17.6376 27.0851 17.6754 27.0095 17.7511C26.9338 17.8267 26.8959 17.9181 26.8959 18.0251ZM27.2085 18.4502L27.296 18.4752C27.4377 18.5079 27.5711 18.487 27.6961 18.4127L27.9586 18.2564C27.9715 18.2486 27.984 18.2402 27.9962 18.2314L28.3837 17.9626L28.8151 17.6688L29.2026 17.45L29.5089 17.3375L29.834 17.3C29.8786 17.296 29.9224 17.2877 29.9653 17.275L30.2653 17.175C30.3146 17.1588 30.3604 17.1359 30.4029 17.1062L30.5841 16.9874C30.6155 16.9646 30.6426 16.9375 30.6654 16.9062L30.6967 16.8624L30.7342 16.8562C30.8588 16.8138 30.9081 16.728 30.8823 16.599C30.8565 16.4699 30.778 16.4098 30.6467 16.4186H30.6342L30.6154 16.4061C30.6094 16.3996 30.6031 16.3933 30.5966 16.3873L30.4216 16.256C30.4057 16.2425 30.389 16.23 30.3716 16.2185L30.0966 16.0623C29.9771 15.9907 29.8479 15.9594 29.709 15.9685L29.3026 15.9997C29.2359 16.0047 29.1713 16.0193 29.1089 16.0435L28.6775 16.2123C28.629 16.2299 28.5832 16.2528 28.54 16.281L28.1024 16.5811C28.0806 16.5965 28.0597 16.6132 28.0399 16.6311L27.6273 16.9999C27.6231 17.002 27.619 17.0041 27.6148 17.0062L27.271 17.3312C27.2668 17.3353 27.2626 17.3395 27.2585 17.3437L27.0397 17.5563C26.9678 17.6283 26.9199 17.7137 26.8959 17.8126L26.8709 17.9064C26.8417 18.0282 26.8601 18.1423 26.9262 18.2488C26.9923 18.3552 27.0864 18.4223 27.2085 18.4502Z" fill="black"/>
<path d="M7.88012 13.7558C7.88015 13.8507 7.91373 13.9317 7.98086 13.9988C8.04799 14.0659 8.12901 14.0995 8.22393 14.0995C8.31885 14.0995 8.39988 14.0659 8.46701 13.9988C8.53414 13.9317 8.56772 13.8507 8.56775 13.7558C8.56772 13.6609 8.53414 13.5798 8.46701 13.5127C8.39988 13.4456 8.31885 13.4121 8.22393 13.4121C8.12901 13.4121 8.04799 13.4456 7.98086 13.5127C7.91373 13.5798 7.88015 13.6609 7.88012 13.7558ZM7.82386 13.437L7.74259 13.537C7.63661 13.6589 7.58243 13.8006 7.58006 13.9621L7.57381 14.3871C7.57215 14.4505 7.5784 14.513 7.59256 14.5747L7.7676 15.2686C7.77257 15.2939 7.77882 15.3189 7.78635 15.3436L8.09891 16.2062C8.11819 16.2591 8.1432 16.3091 8.17392 16.3563L8.72403 17.1939C8.73186 17.2068 8.7402 17.2193 8.74903 17.2314L9.33665 17.9941C9.34832 18.0074 9.36082 18.0199 9.37415 18.0316L9.94926 18.5942L10.3368 19.063C10.4494 19.1962 10.5723 19.2066 10.7055 19.0942C10.8388 18.9817 10.8493 18.8588 10.7369 18.7255L10.3556 18.2754L10.0305 17.594L9.73672 16.7313L9.51168 15.7874C9.50618 15.7684 9.49993 15.7497 9.49293 15.7312L9.22412 14.881L9.04909 14.2059C9.04101 14.1718 9.03059 14.1385 9.01783 14.1058L8.8553 13.7183C8.81117 13.6081 8.74241 13.5164 8.64901 13.4432L8.549 13.362C8.43774 13.2749 8.31183 13.2386 8.17129 13.2531C8.03074 13.2677 7.91493 13.3289 7.82386 13.437Z" fill="black"/>
<path d="M8.70522 14.1871L8.53644 14.3809C8.45869 14.4713 8.41077 14.5755 8.39266 14.6934L8.3239 15.131C8.31277 15.2039 8.31277 15.2769 8.3239 15.3498L8.42392 16.0187C8.42635 16.0481 8.43052 16.0773 8.43642 16.1062L8.66771 16.9501C8.67492 16.9734 8.68326 16.9964 8.69272 17.0189L9.05529 17.9941C9.06107 18.0088 9.06732 18.0234 9.07404 18.0378L9.50537 19.0193C9.51321 19.0341 9.52155 19.0487 9.53038 19.063L10.0055 19.9694C10.0169 19.9909 10.0294 20.0117 10.043 20.0319L10.5431 20.7821C10.5834 20.8412 10.6313 20.8933 10.6868 20.9384L11.2432 21.401C11.3678 21.5061 11.5115 21.5582 11.6745 21.5572L12.1996 21.551C12.2272 21.5496 12.2542 21.5455 12.2809 21.5385L12.6997 21.4447L13.0435 21.3885C13.1778 21.3444 13.2342 21.2525 13.2127 21.1129C13.1912 20.9732 13.1098 20.9026 12.9685 20.9009L12.6935 20.9446L12.4497 20.8321L12.1934 20.4945C12.1873 20.4861 12.1811 20.4777 12.1746 20.4695L11.737 19.9444L11.2932 19.2568L10.8494 18.4004L10.4368 17.4627L10.093 16.5313L9.87419 15.7374L9.74292 15.0998C9.73934 15.0829 9.73518 15.0663 9.73042 15.0497L9.6179 14.6247C9.59259 14.5335 9.54884 14.4522 9.48662 14.3809L9.31784 14.1871C9.2379 14.0919 9.1358 14.0444 9.01153 14.0444C8.88726 14.0444 8.78516 14.0919 8.70522 14.1871Z" fill="black"/>
<path d="M8.84905 15.8562C8.84905 15.9511 8.88262 16.0322 8.94975 16.0993C9.01688 16.1664 9.09792 16.2 9.19286 16.2C9.28781 16.2 9.36884 16.1664 9.43598 16.0993C9.50311 16.0322 9.53668 15.9511 9.53668 15.8562C9.53668 15.7613 9.50311 15.6802 9.43598 15.6131C9.36884 15.5459 9.28781 15.5124 9.19286 15.5124C9.09792 15.5124 9.01688 15.5459 8.94975 15.6131C8.88262 15.6802 8.84905 15.7613 8.84905 15.8562ZM8.81779 15.7249L8.77403 15.8374C8.76661 15.8558 8.76036 15.8746 8.75528 15.8937L8.68652 16.1187C8.66694 16.184 8.65861 16.2507 8.66151 16.3188L8.68652 16.7251C8.68903 16.7781 8.69737 16.8302 8.71152 16.8814L8.8678 17.4377C8.87798 17.472 8.89049 17.5053 8.90531 17.5378L9.19912 18.1941C9.21189 18.2242 9.22647 18.2534 9.24287 18.2817L9.6617 18.9755C9.68231 19.0085 9.70523 19.0397 9.73047 19.0693L10.2681 19.7257C10.3052 19.7701 10.3469 19.8096 10.3931 19.8445L11.0182 20.3195C11.0809 20.3654 11.1496 20.3988 11.2245 20.4196L11.8559 20.6133C11.8987 20.6264 11.9424 20.6327 11.9871 20.6321L12.5185 20.6196L12.9436 20.6759C13.0978 20.6967 13.1853 20.63 13.2061 20.4758C13.227 20.3216 13.1603 20.2341 13.0061 20.2133L12.6248 20.1633L12.2872 19.8945L11.9184 19.4194L11.462 18.8068L10.9995 18.1379L10.6056 17.4878L10.2868 16.8751L10.0243 16.3625C10.0145 16.3454 10.0041 16.3288 9.99302 16.3125L9.78048 15.9687C9.76567 15.9425 9.749 15.9175 9.73047 15.8937L9.58044 15.7187L9.51167 15.6312C9.46718 15.5746 9.4116 15.5328 9.34491 15.5058C9.27823 15.4788 9.20924 15.4701 9.13794 15.4798C9.06664 15.4894 9.00243 15.5161 8.94531 15.5598C8.88819 15.6036 8.84568 15.6586 8.81779 15.7249Z" fill="black"/>
<path d="M10.9997 7.21636V7.21011C10.9665 7.06145 10.8792 6.95906 10.7376 6.90292C10.5961 6.84678 10.4623 6.8615 10.3363 6.94707C10.2103 7.03264 10.1473 7.15158 10.1473 7.30388C10.1473 7.45618 10.2103 7.57512 10.3363 7.66069C10.4623 7.74626 10.5961 7.76098 10.7376 7.70484C10.8792 7.6487 10.9665 7.54631 10.9997 7.39765V7.3914C11.0127 7.33305 11.0127 7.27471 10.9997 7.21636ZM10.0995 7.29763C10.0995 7.42537 10.1446 7.5344 10.235 7.62473C10.3253 7.71505 10.4343 7.76022 10.5621 7.76022C10.6898 7.76022 10.7988 7.71505 10.8892 7.62473C10.9795 7.5344 11.0247 7.42537 11.0247 7.29763C11.0247 7.16989 10.9795 7.06086 10.8892 6.97053C10.7988 6.8802 10.6898 6.83504 10.5621 6.83504C10.4343 6.83504 10.3253 6.8802 10.235 6.97053C10.1446 7.06086 10.0995 7.16989 10.0995 7.29763ZM10.012 7.29138C10.012 7.44328 10.0657 7.57295 10.1731 7.68036C10.2805 7.78777 10.4102 7.84148 10.5621 7.84148C10.714 7.84148 10.8436 7.78777 10.9511 7.68036C11.0585 7.57295 11.1122 7.44328 11.1122 7.29138C11.1122 7.13947 11.0585 7.00981 10.9511 6.90239C10.8436 6.79498 10.714 6.74127 10.5621 6.74127C10.4102 6.74127 10.2805 6.79498 10.1731 6.90239C10.0657 7.00981 10.012 7.13947 10.012 7.29138ZM10.187 7.79147L10.312 7.89774C10.3339 7.91581 10.3569 7.93248 10.3808 7.94775L10.6433 8.12279C10.6496 8.12496 10.6558 8.12704 10.6621 8.12904L11.0309 8.36033C11.0764 8.38672 11.1244 8.40756 11.1747 8.42284L11.631 8.57912C11.6414 8.58151 11.6518 8.5836 11.6623 8.58537L12.1124 8.70415C12.1145 8.70417 12.1165 8.70417 12.1186 8.70415L12.4624 8.78541L12.6875 8.92294C12.8333 9.01462 12.9521 8.98753 13.0438 8.84167C13.1355 8.69581 13.1084 8.57704 12.9625 8.48535L12.7375 8.34783L12.5249 8.07278C12.521 8.06641 12.5168 8.06016 12.5124 8.05402L12.2124 7.71021L11.9123 7.34139C11.8822 7.30676 11.8488 7.2755 11.8123 7.24762L11.4685 6.97882C11.4447 6.9584 11.4197 6.93965 11.3935 6.92256L11.1247 6.76003C11.0396 6.70932 10.9479 6.67806 10.8496 6.66626L10.6871 6.64751C10.3645 6.60564 10.138 6.73374 10.0077 7.03181C9.87743 7.32988 9.93719 7.5831 10.187 7.79147Z" fill="black"/>
<path d="M10.6746 7.30391C10.6746 7.41266 10.713 7.50549 10.7899 7.58239C10.8668 7.65929 10.9596 7.69774 11.0684 7.69774C11.1771 7.69774 11.27 7.65929 11.3469 7.58239C11.4238 7.50549 11.4622 7.41266 11.4622 7.30391C11.4622 7.19516 11.4238 7.10233 11.3469 7.02543C11.27 6.94854 11.1771 6.91009 11.0684 6.91009C10.9596 6.91009 10.8668 6.94854 10.7899 7.02543C10.713 7.10233 10.6746 7.19516 10.6746 7.30391ZM10.6058 7.30391C10.6058 7.4282 10.6497 7.53428 10.7376 7.62217C10.8255 7.71005 10.9316 7.754 11.0559 7.754C11.1802 7.754 11.2862 7.71005 11.3741 7.62217C11.462 7.53428 11.506 7.4282 11.506 7.30391C11.506 7.17962 11.462 7.07354 11.3741 6.98565C11.2862 6.89777 11.1802 6.85383 11.0559 6.85383C10.9316 6.85383 10.8255 6.89777 10.7376 6.98565C10.6497 7.07354 10.6058 7.17962 10.6058 7.30391ZM10.462 7.31641C10.462 7.47695 10.5188 7.61398 10.6323 7.7275C10.7458 7.84101 10.8828 7.89777 11.0434 7.89777C11.2039 7.89777 11.3409 7.84101 11.4545 7.7275C11.568 7.61398 11.6247 7.47695 11.6247 7.31641C11.6247 7.15587 11.568 7.01885 11.4545 6.90533C11.3409 6.79181 11.2039 6.73505 11.0434 6.73505C10.8828 6.73505 10.7458 6.79181 10.6323 6.90533C10.5188 7.01885 10.462 7.15587 10.462 7.31641ZM10.3495 7.36017V7.46644C10.3491 7.60239 10.3825 7.7295 10.4495 7.84776L10.5558 8.04155C10.5762 8.07663 10.5991 8.10997 10.6245 8.14157L10.8246 8.39787C10.8346 8.41069 10.845 8.42319 10.8558 8.43538L11.1246 8.73543C11.1348 8.74614 11.1452 8.75655 11.1559 8.76669L11.4497 9.06675C11.4618 9.07966 11.4743 9.09216 11.4872 9.10425L11.781 9.36055C11.8104 9.38789 11.8417 9.4129 11.8748 9.43557L12.1561 9.6231C12.1862 9.64184 12.2175 9.65851 12.2499 9.67311L12.4874 9.78563C12.6175 9.85049 12.755 9.87758 12.9 9.8669L12.9562 9.86065H12.9625C13.1483 9.89053 13.3192 9.85274 13.475 9.74726C13.6309 9.64178 13.7295 9.49724 13.7709 9.31363C13.8122 9.13003 13.7851 8.95717 13.6895 8.79505C13.5939 8.63293 13.4557 8.52555 13.275 8.47288L13.1625 8.44788C13.2625 8.5596 13.3854 8.63253 13.5313 8.66667L13.4188 8.54165C13.3659 8.48258 13.3055 8.43257 13.2375 8.39162L13.0313 8.26659L12.8187 8.12282L12.5874 7.91653L12.3249 7.64148L12.0686 7.36017L11.8623 7.12263C11.8446 7.1008 11.8259 7.07996 11.806 7.06011L11.6435 6.91009C11.5803 6.85242 11.5094 6.80658 11.4309 6.77256L11.3309 6.7288C11.2235 6.68164 11.1113 6.66269 10.9943 6.67196C10.8773 6.68123 10.7695 6.7176 10.6708 6.78109C10.5721 6.84458 10.4943 6.92763 10.4373 7.03025C10.3804 7.13286 10.3511 7.24283 10.3495 7.36017Z" fill="black"/>
<path d="M12.0745 27.3202C12.0746 27.422 12.1106 27.5089 12.1826 27.5809C12.2546 27.6529 12.3415 27.6889 12.4434 27.6889C12.5452 27.6889 12.6321 27.6529 12.7041 27.5809C12.7761 27.5089 12.8122 27.422 12.8122 27.3202C12.8122 27.2184 12.7761 27.1315 12.7041 27.0595C12.6321 26.9875 12.5452 26.9515 12.4434 26.9515C12.3415 26.9515 12.2546 26.9875 12.1826 27.0595C12.1106 27.1315 12.0746 27.2184 12.0745 27.3202ZM12.6247 26.9264L12.5934 26.9076C12.466 26.8241 12.3284 26.8012 12.1808 26.8389L12.1121 26.8576C12.0707 26.8675 12.0311 26.882 11.9933 26.9014L11.937 26.9326C11.7865 27.0094 11.6923 27.13 11.6542 27.2946C11.6162 27.4591 11.6479 27.6089 11.7494 27.7439C11.8509 27.879 11.986 27.951 12.1546 27.9602C12.3233 27.9693 12.4654 27.9123 12.5809 27.789L12.6059 27.7703L12.6309 27.7453C12.7093 27.6843 12.7656 27.6072 12.7997 27.514L12.8122 27.4827C12.8954 27.2482 12.8329 27.0627 12.6247 26.9264ZM11.5619 27.439C11.5619 27.6064 11.6211 27.7493 11.7395 27.8677C11.8579 27.9861 12.0009 28.0453 12.1683 28.0453C12.3358 28.0453 12.4787 27.9861 12.5971 27.8677C12.7155 27.7493 12.7747 27.6064 12.7747 27.439C12.7747 27.2715 12.7155 27.1286 12.5971 27.0102C12.4787 26.8918 12.3358 26.8326 12.1683 26.8326C12.0009 26.8326 11.8579 26.8918 11.7395 27.0102C11.6211 27.1286 11.5619 27.2715 11.5619 27.439ZM12.4059 28.0391L12.4996 28.0078C12.5102 28.0039 12.5206 27.9998 12.5309 27.9953L12.7247 27.9141C12.731 27.91 12.7372 27.9058 12.7434 27.9016L13.0435 27.764L13.4311 27.589C13.4311 27.5869 13.4311 27.5848 13.4311 27.5828L13.8249 27.4077L14.2 27.2702L14.5313 27.2077H14.8563L15.2064 27.2577L15.5877 27.3265C15.5961 27.3266 15.6044 27.3266 15.6127 27.3265L15.9003 27.3702L16.0753 27.439L16.2628 27.5703L16.4629 27.714C16.479 27.7253 16.4957 27.7357 16.5129 27.7453L16.6754 27.8391C16.7151 27.8606 16.7568 27.8773 16.8004 27.8891L16.938 27.9266C17.0843 27.9603 17.2225 27.9398 17.3528 27.8653C17.4831 27.7907 17.5707 27.6818 17.6157 27.5386C17.6607 27.3954 17.6512 27.2559 17.587 27.1202C17.5228 26.9845 17.421 26.8887 17.2818 26.8326L17.188 26.8014L17.1068 26.7576L16.9567 26.6451C16.9506 26.6408 16.9443 26.6366 16.938 26.6326L16.7004 26.4575C16.6923 26.4511 16.6839 26.4448 16.6754 26.4388L16.3941 26.2575C16.3819 26.2487 16.3694 26.2404 16.3566 26.2325L16.0441 26.0575C16.0003 26.0337 15.9544 26.0149 15.9065 26.0012L15.5315 25.8824C15.4926 25.8707 15.453 25.8624 15.4127 25.8574L15.0001 25.8012C14.9669 25.7967 14.9336 25.7946 14.9001 25.7949H14.4625C14.4139 25.7962 14.366 25.8025 14.3187 25.8137L13.8624 25.9137C13.8261 25.9213 13.7907 25.9317 13.7561 25.9449L13.3123 26.12C13.2975 26.1257 13.2829 26.132 13.2685 26.1387L12.8497 26.3325C12.8476 26.3325 12.8455 26.3325 12.8434 26.3325L12.4559 26.5201L12.1558 26.6701C12.141 26.6758 12.1264 26.6821 12.1121 26.6888L11.9308 26.7951C11.8799 26.8265 11.8341 26.864 11.7932 26.9076L11.7182 26.9764C11.4803 27.2239 11.4545 27.4918 11.6411 27.7801C11.8276 28.0684 12.0825 28.1547 12.4059 28.0391ZM16.7379 27.4015C16.7379 27.5292 16.7831 27.6382 16.8734 27.7286C16.9637 27.8189 17.0728 27.8641 17.2005 27.8641C17.3283 27.8641 17.4373 27.8189 17.5276 27.7286C17.6179 27.6382 17.6631 27.5292 17.6631 27.4015C17.6631 27.2737 17.6179 27.1647 17.5276 27.0744C17.4373 26.984 17.3283 26.9389 17.2005 26.9389C17.0728 26.9389 16.9637 26.984 16.8734 27.0744C16.7831 27.1647 16.7379 27.2737 16.7379 27.4015ZM16.9005 27.4327C16.9005 27.5346 16.9365 27.6215 17.0085 27.6935C17.0805 27.7655 17.1674 27.8015 17.2693 27.8015C17.3711 27.8015 17.4581 27.7655 17.5301 27.6935C17.6021 27.6215 17.6381 27.5346 17.6381 27.4327C17.6381 27.3309 17.6021 27.244 17.5301 27.1719C17.4581 27.0999 17.3711 27.0639 17.2693 27.0639C17.1674 27.0639 17.0805 27.0999 17.0085 27.1719C16.9365 27.244 16.9005 27.3309 16.9005 27.4327ZM17.113 27.6078L17.1318 27.6328C17.2318 27.7661 17.3485 27.7828 17.4818 27.6828C17.6152 27.5828 17.6319 27.4661 17.5318 27.3327L17.5131 27.3077C17.4131 27.1743 17.2964 27.1577 17.163 27.2577C17.0297 27.3577 17.013 27.4744 17.113 27.6078Z" fill="black"/>
<path d="M14.5 26.7201V26.7138C14.4317 26.7941 14.4031 26.8867 14.4142 26.9916C14.4253 27.0964 14.4727 27.1809 14.5563 27.2452L14.5625 27.2389C14.6474 27.1441 14.6797 27.0338 14.6594 26.9082C14.639 26.7825 14.5736 26.688 14.4631 26.6248C14.3526 26.5616 14.2381 26.5531 14.1194 26.5992C14.0008 26.6453 13.9221 26.729 13.8833 26.8503C13.8446 26.9716 13.8602 27.0854 13.9301 27.1918C14 27.2982 14.0983 27.3576 14.225 27.3702L14.2375 27.3764C14.3349 27.3863 14.4225 27.3613 14.5 27.3014V27.2952C14.5945 27.2226 14.6417 27.1268 14.6417 27.0076C14.6417 26.8885 14.5945 26.7926 14.5 26.7201ZM14.6375 27.2702L14.6625 27.2452C14.7747 27.1184 14.8268 26.9704 14.8188 26.8013L14.8126 26.7138C14.7832 26.7946 14.7707 26.878 14.7751 26.9639L14.8063 26.8701C14.7365 26.9376 14.6844 27.0168 14.65 27.1076L14.675 27.0889L14.6438 27.1014L14.7063 27.0889L14.8938 27.0701L15.1876 27.0764L15.5252 27.1014L15.819 27.1452L16.0315 27.2139L16.1816 27.2952L16.3128 27.4015L16.4254 27.5202L16.5254 27.664L16.6254 27.8078C16.688 27.8971 16.7672 27.968 16.863 28.0203L16.963 28.0828C17.1982 28.2112 17.4251 28.1979 17.6437 28.043C17.8623 27.8881 17.9501 27.6784 17.9069 27.414L17.8881 27.2952C17.876 27.2228 17.8531 27.1541 17.8194 27.0889L17.7319 26.9326C17.7242 26.9156 17.7159 26.8989 17.7069 26.8826L17.5881 26.6888C17.5677 26.6557 17.5448 26.6244 17.5193 26.5951L17.3443 26.4013C17.3266 26.3815 17.3078 26.3627 17.288 26.345L17.0755 26.1512C17.0333 26.1147 16.9874 26.0834 16.938 26.0574L16.6629 25.9012C16.617 25.8773 16.5691 25.8585 16.5191 25.8449L16.1878 25.7449C16.1551 25.7342 16.1217 25.7258 16.0878 25.7199L15.7127 25.6699C15.6899 25.6667 15.667 25.6646 15.644 25.6636L15.2564 25.6386C15.2397 25.638 15.2231 25.638 15.2064 25.6386L14.8563 25.6449C14.8164 25.6457 14.7768 25.6499 14.7375 25.6574L14.4687 25.7074C14.4195 25.7148 14.3716 25.7273 14.325 25.7449L14.1374 25.8262C14.0662 25.8549 14.0016 25.8945 13.9436 25.9449L13.8311 26.0449C13.772 26.0989 13.7241 26.1614 13.6873 26.2325L13.6248 26.3388C13.5888 26.4076 13.5659 26.4805 13.5561 26.5575L13.5436 26.6576C13.5284 26.7671 13.5409 26.8734 13.5811 26.9764L13.6123 27.0576C13.716 27.3264 13.9119 27.4597 14.1999 27.4577H14.2375C14.3986 27.4545 14.532 27.392 14.6375 27.2702ZM16.8379 27.6015C16.8379 27.7344 16.8849 27.8479 16.9789 27.9419C17.0729 28.0358 17.1864 28.0828 17.3193 28.0828C17.4522 28.0828 17.5657 28.0358 17.6597 27.9419C17.7536 27.8479 17.8006 27.7344 17.8006 27.6015C17.8006 27.4686 17.7536 27.3551 17.6597 27.2611C17.5657 27.1671 17.4522 27.1202 17.3193 27.1202C17.1864 27.1202 17.0729 27.1671 16.9789 27.2611C16.8849 27.3551 16.8379 27.4686 16.8379 27.6015ZM17.1005 27.7328L17.113 27.789C17.1506 27.9514 17.2506 28.0139 17.413 27.9764C17.5754 27.9389 17.638 27.839 17.6006 27.6765L17.5881 27.6202C17.5505 27.4579 17.4505 27.3954 17.2881 27.4329C17.1257 27.4704 17.0631 27.5703 17.1005 27.7328Z" fill="black"/>
<path d="M12.5684 8.57906C12.5684 8.68781 12.6068 8.78064 12.6837 8.85754C12.7606 8.93444 12.8535 8.97289 12.9622 8.97289C13.071 8.97289 13.1638 8.93444 13.2407 8.85754C13.3176 8.78064 13.356 8.68781 13.356 8.57906C13.356 8.47031 13.3176 8.37749 13.2407 8.30059C13.1638 8.22369 13.071 8.18524 12.9622 8.18524C12.8535 8.18524 12.7606 8.22369 12.6837 8.30059C12.6068 8.37749 12.5684 8.47031 12.5684 8.57906ZM12.6372 8.35402L12.6247 8.36652C12.6456 8.3477 12.6644 8.32686 12.6809 8.30401L12.6559 8.33527C12.5668 8.41862 12.5247 8.52124 12.5295 8.64313C12.5343 8.76501 12.5844 8.864 12.6797 8.94008C12.7751 9.01617 12.8827 9.04303 13.0026 9.02066C13.1226 8.9983 13.2133 8.93445 13.2748 8.82911L13.2873 8.80411L13.2998 8.7916C13.3602 8.70011 13.3794 8.60066 13.3574 8.49325C13.3355 8.38583 13.2787 8.30192 13.1873 8.2415C13.0958 8.18108 12.9963 8.16186 12.8889 8.18383C12.7815 8.2058 12.6976 8.26253 12.6372 8.35402ZM13.1498 9.0104L13.1935 8.97914C13.2336 8.95316 13.269 8.9219 13.2998 8.88537L13.4186 8.74159C13.4207 8.73953 13.4227 8.73745 13.4248 8.73534L13.6061 8.50405L13.9061 8.17899L14.3312 7.75391L14.8251 7.27256L15.3752 6.78497L15.969 6.31613L16.6004 5.87855L17.213 5.49098L17.7569 5.19717L18.207 4.95337C18.2112 4.95134 18.2153 4.94925 18.2195 4.94712L18.5695 4.74708L18.8508 4.59706L19.0759 4.47203C19.1899 4.41023 19.2628 4.31646 19.2947 4.19073L19.3134 4.10946C19.1846 4.12108 19.1054 4.18984 19.0759 4.31575L19.2009 4.30325C19.3801 4.28658 19.4614 4.18864 19.4447 4.00944C19.428 3.83024 19.3301 3.74898 19.1509 3.76565L19.0259 3.77815C19.087 3.85983 19.1682 3.89526 19.2697 3.88442L19.2197 3.82191C19.1222 3.688 18.9909 3.62758 18.8258 3.64062L18.5695 3.66563C18.5591 3.6653 18.5487 3.6653 18.5383 3.66563L18.2132 3.71564C18.2111 3.7177 18.209 3.71979 18.207 3.72189L17.8069 3.7844C17.7684 3.7913 17.7309 3.80172 17.6944 3.81566L17.213 4.00319C17.1874 4.01206 17.1624 4.02248 17.138 4.03445L16.5629 4.34076C16.5502 4.34661 16.5377 4.35286 16.5254 4.35951L15.8815 4.76584C15.8687 4.77375 15.8562 4.78208 15.844 4.79084L15.1939 5.25968C15.1831 5.26975 15.1727 5.28017 15.1626 5.29094L14.55 5.79728C14.5415 5.80539 14.5331 5.81372 14.525 5.82229L13.9624 6.34739C13.9494 6.35937 13.9369 6.37187 13.9249 6.3849L13.4498 6.91C13.4389 6.92208 13.4285 6.93458 13.4186 6.9475L13.0435 7.4351C13.0325 7.44716 13.0221 7.45966 13.0122 7.4726L12.7622 7.86643C12.7579 7.87259 12.7537 7.87884 12.7497 7.88518L12.5871 8.15398C12.5722 8.17996 12.5597 8.20705 12.5496 8.23525L12.4809 8.41028C12.4511 8.48935 12.4428 8.57062 12.4559 8.65408L12.4684 8.70409C12.4795 8.77883 12.5079 8.84633 12.5535 8.90657C12.5992 8.96681 12.6564 9.01243 12.7254 9.04341C12.7943 9.0744 12.8664 9.08696 12.9418 9.0811C13.0171 9.07524 13.0864 9.05167 13.1498 9.0104Z" fill="black"/>
<path d="M12.981 7.43507C12.981 7.54555 13.0201 7.63985 13.0982 7.71797C13.1763 7.79609 13.2706 7.83515 13.3811 7.83515C13.4916 7.83515 13.5859 7.79609 13.664 7.71797C13.7421 7.63985 13.7812 7.54555 13.7812 7.43507C13.7812 7.32459 13.7421 7.23029 13.664 7.15217C13.5859 7.07405 13.4916 7.03499 13.3811 7.03499C13.2706 7.03499 13.1763 7.07405 13.0982 7.15217C13.0201 7.23029 12.981 7.32459 12.981 7.43507ZM12.9748 7.44132C12.9748 7.55353 13.0145 7.6493 13.0938 7.72864C13.1731 7.80798 13.2689 7.84765 13.3811 7.84765C13.4933 7.84765 13.5891 7.80798 13.6684 7.72864C13.7478 7.6493 13.7874 7.55353 13.7874 7.44132C13.7874 7.32912 13.7478 7.23335 13.6684 7.15401C13.5891 7.07467 13.4933 7.03499 13.3811 7.03499C13.2689 7.03499 13.1731 7.07467 13.0938 7.15401C13.0145 7.23335 12.9748 7.32912 12.9748 7.44132ZM12.9498 7.44132C12.9498 7.56043 12.9919 7.6621 13.0761 7.74632C13.1603 7.83054 13.262 7.87265 13.3811 7.87265C13.5002 7.87265 13.6019 7.83054 13.6861 7.74632C13.7703 7.6621 13.8124 7.56043 13.8124 7.44132C13.8124 7.32221 13.7703 7.22055 13.6861 7.13632C13.6019 7.0521 13.5002 7.00999 13.3811 7.00999C13.262 7.00999 13.1603 7.0521 13.0761 7.13632C12.9919 7.22055 12.9498 7.32221 12.9498 7.44132ZM13.5374 7.95392L13.6687 7.92266C13.7167 7.9094 13.7626 7.89064 13.8062 7.8664L14.025 7.75388C14.042 7.74625 14.0587 7.73792 14.075 7.72888L14.4251 7.50383C14.4314 7.49977 14.4376 7.4956 14.4438 7.49133L14.9252 7.16002L15.519 6.75369L16.2066 6.30361L16.9255 5.84727L17.6194 5.42219L18.3133 5.04712L18.9634 4.69705L19.5385 4.4095L20.0199 4.1907L20.3699 4.04693L20.6012 3.97191L20.7388 3.94691L20.8638 3.9344C20.8679 3.93444 20.8721 3.93444 20.8763 3.9344L21.0451 3.91565C21.0681 3.9146 21.091 3.91251 21.1138 3.9094L21.2826 3.87189C21.3057 3.86878 21.3286 3.86461 21.3514 3.85939L21.5202 3.80938C21.625 3.78013 21.7188 3.73012 21.8015 3.65935L21.8952 3.57184C21.9806 3.49708 22.0424 3.4063 22.0807 3.29949C22.119 3.19267 22.1289 3.08329 22.1104 2.97134C22.092 2.85938 22.0475 2.75896 21.977 2.67008C21.9065 2.58119 21.8188 2.51504 21.7139 2.47163L21.5952 2.42162C21.5051 2.38428 21.4114 2.36552 21.3139 2.36536H21.1388C21.1116 2.36599 21.0845 2.36807 21.0576 2.37161L20.9075 2.39036L20.7575 2.39661L20.5825 2.40911C20.5405 2.40989 20.4988 2.41406 20.4575 2.42162L20.2324 2.47788C20.2093 2.481 20.1864 2.48517 20.1636 2.49038L19.8698 2.58415C19.8508 2.59173 19.832 2.60007 19.8136 2.60915L19.4198 2.77168C19.4113 2.7757 19.403 2.77987 19.3948 2.78419L18.8884 3.01548C18.8779 3.01942 18.8675 3.02359 18.8572 3.02798L18.2633 3.33429C18.257 3.33629 18.2508 3.33838 18.2445 3.34054L17.5882 3.70311C17.5797 3.70713 17.5714 3.71129 17.5632 3.71561L16.863 4.12819C16.8567 4.13019 16.8505 4.13228 16.8443 4.13444L16.1316 4.58453C16.1295 4.5866 16.1275 4.58868 16.1254 4.59078L15.4065 5.05337C15.398 5.05944 15.3897 5.0657 15.3815 5.07212L14.6939 5.54721C14.6875 5.55335 14.6812 5.5596 14.6751 5.56597L14.0937 6.00355C14.0896 6.00559 14.0854 6.00768 14.0812 6.0098L13.6249 6.36612C13.612 6.3761 13.5995 6.38652 13.5874 6.39737L13.2748 6.67243C13.2618 6.68443 13.2493 6.69693 13.2373 6.70993L13.0685 6.88497C13.0189 6.93651 12.9794 6.99486 12.9498 7.06L12.8935 7.18502C12.7972 7.39746 12.8239 7.5931 12.9737 7.77193C13.1234 7.95076 13.3113 8.01142 13.5374 7.95392ZM21.1138 3.09675C21.1138 3.21413 21.1553 3.31432 21.2383 3.39732C21.3213 3.48033 21.4215 3.52183 21.5389 3.52183C21.6563 3.52183 21.7565 3.48033 21.8395 3.39732C21.9225 3.31432 21.964 3.21413 21.964 3.09675C21.964 2.97936 21.9225 2.87917 21.8395 2.79617C21.7565 2.71317 21.6563 2.67166 21.5389 2.67166C21.4215 2.67166 21.3213 2.71317 21.2383 2.79617C21.1553 2.87917 21.1138 2.97936 21.1138 3.09675ZM21.3014 3.06549L21.2889 3.10925C21.2633 3.26973 21.3287 3.37229 21.4849 3.41693C21.6412 3.46157 21.7509 3.40902 21.814 3.25928L21.8265 3.21552C21.852 3.05504 21.7866 2.95248 21.6304 2.90784C21.4741 2.8632 21.3645 2.91575 21.3014 3.06549Z" fill="black"/>
<path d="M6.31095 3.87817C6.31095 3.99038 6.35062 4.08615 6.42996 4.16549C6.5093 4.24483 6.60508 4.2845 6.71728 4.2845C6.82949 4.2845 6.92526 4.24483 7.0046 4.16549C7.08394 4.08615 7.12361 3.99038 7.12361 3.87817C7.12361 3.76597 7.08394 3.6702 7.0046 3.59086C6.92526 3.51152 6.82949 3.47184 6.71728 3.47184C6.60508 3.47184 6.5093 3.51152 6.42996 3.59086C6.35062 3.6702 6.31095 3.76597 6.31095 3.87817ZM6.28595 3.88442C6.28595 4.00181 6.32745 4.102 6.41045 4.185C6.49345 4.268 6.59365 4.3095 6.71103 4.3095C6.82841 4.3095 6.92861 4.268 7.01161 4.185C7.09461 4.102 7.13611 4.00181 7.13611 3.88442C7.13611 3.76704 7.09461 3.66685 7.01161 3.58385C6.92861 3.50084 6.82841 3.45934 6.71103 3.45934C6.59365 3.45934 6.49345 3.50084 6.41045 3.58385C6.32745 3.66685 6.28595 3.76704 6.28595 3.88442ZM6.27345 3.80316V3.82191C6.24646 3.94714 6.2673 4.06383 6.33596 4.17198L6.34221 4.19073L6.35471 4.22199L6.39222 4.32201C6.39221 4.32409 6.39221 4.32617 6.39222 4.32826L6.44223 4.47204C6.45979 4.52055 6.48272 4.5664 6.51099 4.60956L6.61726 4.77834C6.6323 4.80443 6.64897 4.82944 6.66727 4.85336L7.02359 5.27844C7.03164 5.28909 7.03997 5.2995 7.04859 5.30969L7.27364 5.55349C7.28569 5.56644 7.29819 5.57895 7.31114 5.591L7.56119 5.82854C7.5713 5.83927 7.58172 5.84969 7.59245 5.8598L7.84875 6.07234C7.85493 6.0766 7.86119 6.08077 7.8675 6.08484L8.09879 6.27863C8.10088 6.27864 8.10296 6.27864 8.10505 6.27863L8.31133 6.44116C8.31747 6.44752 8.32373 6.45377 8.33009 6.45991L8.51762 6.59744C8.52381 6.6017 8.53006 6.60587 8.53638 6.60994L8.73016 6.74122C8.74249 6.74782 8.75499 6.75407 8.76767 6.75997L8.9427 6.87249L9.08648 6.96626L9.21151 7.06003L9.31152 7.14129L9.39904 7.21631C9.40316 7.22052 9.40733 7.22469 9.41154 7.22881L9.51156 7.31633C9.52962 7.33181 9.54837 7.3464 9.56782 7.36009L9.74911 7.48511L9.77411 7.50386L9.79912 7.54137L9.85538 7.61638L9.91164 7.7039C9.91371 7.706 9.91579 7.70808 9.91789 7.71015L9.97415 7.79767C9.98221 7.80831 9.99054 7.81873 9.99916 7.82892L10.0554 7.91019C10.0784 7.93916 10.1034 7.96625 10.1304 7.99146L10.2555 8.11648C10.3807 8.23896 10.5307 8.30564 10.7055 8.31652H10.7555C10.9105 8.32748 11.051 8.2876 11.1771 8.19687C11.3032 8.10614 11.3856 7.98558 11.4244 7.83518L11.4369 7.78517C11.476 7.62589 11.4615 7.47169 11.3932 7.32258L11.3244 7.1663C11.3103 7.13169 11.2936 7.09835 11.2744 7.06628L11.2181 6.98501L11.1681 6.90375C11.1661 6.89956 11.164 6.89539 11.1619 6.89125L11.0931 6.78498C11.089 6.78076 11.0848 6.77659 11.0806 6.77247L11.0118 6.6662C11.0002 6.64688 10.9877 6.62813 10.9743 6.60994L10.8868 6.50992C10.8621 6.47857 10.835 6.4494 10.8056 6.42241L10.7055 6.33489C10.6856 6.3171 10.6648 6.30043 10.643 6.28488L10.4617 6.15986L10.3992 6.1036C10.3951 6.09938 10.3909 6.09521 10.3867 6.09109L10.2805 6.00358C10.2763 5.99936 10.2722 5.99519 10.268 5.99107L10.1429 5.8848C10.1327 5.8783 10.1222 5.87205 10.1117 5.86605L9.96165 5.75353C9.94744 5.74259 9.93285 5.73217 9.91789 5.72227L9.74911 5.616L9.56782 5.49723L9.39279 5.37846L9.23026 5.25969L9.03022 5.10341L8.79268 4.91587L8.55513 4.72833L8.32384 4.51579L8.09879 4.29075C8.09465 4.28863 8.09048 4.28654 8.08629 4.2845L7.67996 3.90318C7.66988 3.89243 7.65946 3.88201 7.64871 3.87192L7.48618 3.74065C7.45495 3.71466 7.42161 3.69174 7.38616 3.67188L7.24863 3.59687C7.21843 3.58173 7.18718 3.56922 7.15486 3.55936L7.04234 3.52185C7.01983 3.5141 6.99691 3.50785 6.97358 3.5031L6.91107 3.4906L6.87356 3.4781C6.83709 3.46512 6.79958 3.45678 6.76104 3.45309H6.74229C6.48372 3.4328 6.32744 3.54949 6.27345 3.80316ZM10.3992 7.72891C10.3992 7.85492 10.4438 7.96248 10.5329 8.05158C10.622 8.14069 10.7296 8.18524 10.8556 8.18524C10.9816 8.18524 11.0891 8.14069 11.1782 8.05158C11.2674 7.96248 11.3119 7.85492 11.3119 7.72891C11.3119 7.60289 11.2674 7.49533 11.1782 7.40623C11.0891 7.31712 10.9816 7.27257 10.8556 7.27257C10.7296 7.27257 10.622 7.31712 10.5329 7.40623C10.4438 7.49533 10.3992 7.60289 10.3992 7.72891ZM10.7743 7.99771L10.8181 8.02271C10.9624 8.07876 11.0727 8.03947 11.1492 7.90483C11.2256 7.77019 11.2027 7.65529 11.0806 7.56012L11.0369 7.53512C10.8925 7.47907 10.7822 7.51836 10.7058 7.653C10.6293 7.78764 10.6522 7.90254 10.7743 7.99771Z" fill="black"/>
</g>
<defs>
<clipPath id="clip0_1_7243">
<rect width="36" height="32" fill="white"/>
</clipPath>
</defs>
</svg>
