<svg width="30" height="36" viewBox="0 0 30 36" fill="none" xmlns="http://www.w3.org/2000/svg">
<g clip-path="url(#clip0_1_7414)">
<path d="M5.79058 26.1058L5.79702 26.1445C5.80283 26.1711 5.81141 26.1969 5.82278 26.2217L5.85498 26.3055C5.86821 26.3378 5.88538 26.3678 5.9065 26.3956L6.00954 26.5309C6.02159 26.5446 6.03447 26.5575 6.04818 26.5695L6.21562 26.7369C6.22979 26.7508 6.24481 26.7637 6.2607 26.7756L6.52474 26.9752L6.85319 27.2393L7.25247 27.587L7.68395 28.0314L8.11543 28.5659L8.51472 29.152L8.83672 29.7122L9.06212 30.2146L9.16516 30.5752L9.15872 30.7233L9.12652 30.7749L8.95264 30.865L8.5598 30.9359L7.96731 30.8908L7.19451 30.6976L6.26714 30.3885L5.27537 30.0149L4.28361 29.6285C4.28148 29.6264 4.27933 29.6242 4.27717 29.6221L3.36912 29.2743L2.60919 28.9459C2.60075 28.9413 2.59216 28.937 2.58343 28.933L1.94587 28.6947C1.91673 28.6829 1.88667 28.6744 1.85571 28.669L1.3405 28.5981C1.27515 28.588 1.21075 28.5923 1.1473 28.611L0.75446 28.7269C0.674855 28.7493 0.606161 28.7901 0.548379 28.8493L0.271457 29.1391C0.191029 29.222 0.143802 29.3207 0.129776 29.4353L0.0718153 29.9312C0.0640029 30.0033 0.0704429 30.0742 0.0911354 30.1437L0.265017 30.762C0.277628 30.8026 0.294802 30.8413 0.316537 30.8779L0.70294 31.5799C0.721237 31.6122 0.742703 31.6422 0.76734 31.67L1.37914 32.3591C1.38721 32.3703 1.3958 32.381 1.40491 32.3913L2.05535 33.0031L2.51903 33.5827C2.62911 33.6893 2.74451 33.6954 2.86524 33.6011C2.98597 33.5068 3.00796 33.3933 2.9312 33.2607L2.46751 32.6811L2.06823 31.889C2.06825 31.8868 2.06825 31.8847 2.06823 31.8825L1.63675 31.0775L1.28898 30.4078L1.1473 29.9248L1.16018 29.635L1.20526 29.5448L1.32762 29.4997L1.68183 29.5512L2.26143 29.7638L3.00204 30.1051L3.89076 30.5301C3.89923 30.5347 3.90781 30.539 3.91652 30.543L4.90185 30.9487C4.90825 30.951 4.91469 30.9532 4.92117 30.9552L5.92582 31.3287C5.93008 31.3309 5.93437 31.3331 5.9387 31.3351L6.89183 31.6571C6.90665 31.6621 6.92168 31.6664 6.93691 31.67L7.77411 31.8697C7.79742 31.8757 7.82103 31.8799 7.84495 31.8825L8.54048 31.9469C8.58369 31.9504 8.62662 31.9482 8.66928 31.9405L9.2038 31.8568C9.26077 31.8466 9.31443 31.8273 9.3648 31.7988L9.71901 31.6056C9.79648 31.564 9.85874 31.506 9.90577 31.4317L10.0861 31.1484C10.1394 31.0638 10.1652 30.9715 10.1634 30.8715L10.1569 30.5044C10.1559 30.4537 10.1473 30.4043 10.1312 30.3563L9.98305 29.899C9.97782 29.8793 9.97138 29.86 9.96373 29.841L9.70613 29.2872C9.69816 29.2739 9.68957 29.261 9.68037 29.2486L9.3326 28.6496C9.32659 28.6387 9.32015 28.6279 9.31328 28.6174L8.8818 28.0121C8.87578 28.0011 8.86934 27.9904 8.86248 27.9799L8.3988 27.426C8.38875 27.4126 8.37802 27.3997 8.3666 27.3874L7.90291 26.9237C7.89466 26.9148 7.88608 26.9062 7.87715 26.8979L7.44567 26.5373C7.43942 26.5307 7.43298 26.5242 7.42635 26.518L7.07859 26.2539C7.07023 26.2472 7.06164 26.2408 7.05283 26.2346L6.78234 26.0543L6.5827 25.9191L6.47966 25.8482L6.44746 25.816L6.42814 25.7903C6.3017 25.6598 6.15707 25.6349 5.99425 25.7155C5.83143 25.7961 5.76354 25.9262 5.79058 26.1058Z" fill="black"/>
<path d="M6.85964 25.4666C6.85968 25.5751 6.89805 25.6677 6.97475 25.7443C7.05145 25.821 7.14403 25.8593 7.25248 25.8593C7.36094 25.8593 7.45352 25.821 7.53022 25.7443C7.60692 25.6677 7.64529 25.5751 7.64533 25.4666C7.64529 25.3582 7.60692 25.2656 7.53022 25.1889C7.45352 25.1123 7.36094 25.0739 7.25248 25.0739C7.14403 25.0739 7.05145 25.1123 6.97475 25.1889C6.89805 25.2656 6.85968 25.3582 6.85964 25.4666ZM7.58093 25.2412L7.57449 25.2284C7.43195 25.0224 7.25155 24.9808 7.03329 25.1038C6.81503 25.2267 6.75703 25.4025 6.8593 25.6312C6.96158 25.8598 7.13128 25.9338 7.36841 25.853L7.38129 25.8466C7.50682 25.8039 7.59036 25.7196 7.63189 25.5936C7.67342 25.4677 7.65643 25.3502 7.58093 25.2412ZM6.77592 25.4795C6.77597 25.6075 6.82125 25.7168 6.91179 25.8073C7.00232 25.8978 7.11159 25.943 7.2396 25.943C7.36762 25.943 7.47689 25.8978 7.56742 25.8073C7.65795 25.7168 7.70324 25.6075 7.70329 25.4795C7.70324 25.3515 7.65795 25.2422 7.56742 25.1517C7.47689 25.0612 7.36762 25.016 7.2396 25.016C7.11159 25.016 7.00232 25.0612 6.91179 25.1517C6.82125 25.2422 6.77597 25.3515 6.77592 25.4795ZM6.71796 25.6856L6.7566 25.8402C6.78479 25.9708 6.84705 26.0824 6.94336 26.175L7.16232 26.3811C7.20842 26.427 7.25995 26.4656 7.31688 26.497L7.72261 26.7096C7.75784 26.7277 7.79434 26.7427 7.83209 26.7546L8.45677 26.9672C8.48005 26.9748 8.50367 26.9813 8.52761 26.9865L9.31974 27.1668C9.34313 27.1723 9.36674 27.1766 9.39058 27.1797L10.2986 27.2892C10.3222 27.2904 10.3459 27.2904 10.3695 27.2892L11.3226 27.3085C11.3355 27.3089 11.3484 27.3089 11.3612 27.3085L12.2822 27.2763C12.2929 27.2744 12.3037 27.2723 12.3144 27.2698L13.1516 27.199C13.1666 27.1995 13.1816 27.1995 13.1966 27.199L13.9179 27.0831C13.9957 27.0708 14.0687 27.0451 14.1369 27.0058L14.6907 26.6967C14.6907 26.6945 14.6907 26.6924 14.6907 26.6902L15.1415 26.4326L15.5151 26.3103C15.6605 26.25 15.7096 26.1449 15.6622 25.9947C15.6147 25.8446 15.5142 25.7866 15.3605 25.8208L14.9999 25.9303L14.5233 25.911L13.9179 25.8208C13.8731 25.8139 13.828 25.8117 13.7827 25.8144L13.055 25.853C13.0528 25.853 13.0507 25.853 13.0485 25.853L12.2242 25.9174L11.3355 25.9432L10.4403 25.911L9.6031 25.7951L8.88182 25.6148L8.32153 25.428L7.95445 25.2541L7.69685 25.1189C7.67597 25.107 7.6545 25.0962 7.63245 25.0867L7.48433 25.0287C7.27138 24.9465 7.07825 24.9797 6.90494 25.1283C6.73164 25.2768 6.66931 25.4626 6.71796 25.6856Z" fill="black"/>
<path d="M4.04523 19.2649C4.04523 19.3645 4.08044 19.4495 4.15086 19.5199C4.22128 19.5903 4.30629 19.6255 4.40587 19.6255C4.50546 19.6255 4.59047 19.5903 4.66089 19.5199C4.73131 19.4495 4.76652 19.3645 4.76652 19.2649C4.76652 19.1653 4.73131 19.0803 4.66089 19.0099C4.59047 18.9395 4.50546 18.9042 4.40587 18.9042C4.30629 18.9042 4.22128 18.9395 4.15086 19.0099C4.08044 19.0803 4.04523 19.1653 4.04523 19.2649ZM4.24487 19.6255L4.26419 19.632C4.23806 19.6137 4.21015 19.5986 4.18047 19.5869L4.22555 19.6191L4.32215 19.7157L4.47027 19.8638L4.6184 20.0313L4.7472 20.1858L4.83092 20.2953C4.85517 20.325 4.88308 20.3508 4.91464 20.3726L4.95972 20.4048C5.11704 20.5121 5.27355 20.5109 5.42927 20.4013C5.58498 20.2917 5.63884 20.1447 5.59084 19.9604L5.57796 19.9153C5.56774 19.8789 5.55272 19.8445 5.53288 19.8123L5.4556 19.6899C5.43529 19.6611 5.41168 19.6354 5.38476 19.6126L5.23664 19.4645C5.22442 19.453 5.21154 19.4423 5.198 19.4323L4.99836 19.2906C4.98387 19.2811 4.96885 19.2725 4.95328 19.2649L4.75364 19.149C4.74109 19.1419 4.72821 19.1354 4.715 19.1296L4.56043 19.0652C4.53135 19.0533 4.5013 19.0447 4.47027 19.0395L4.43163 19.033C4.21598 19.0035 4.06758 19.0898 3.98644 19.2917C3.9053 19.4937 3.95281 19.6587 4.12895 19.7865L4.21911 19.8509C4.24146 19.8661 4.26507 19.879 4.28995 19.8896L4.50891 19.9862C4.52158 19.9911 4.53446 19.9954 4.54755 19.9991L4.85668 20.0957C4.86933 20.1006 4.88221 20.1049 4.89532 20.1085L5.2302 20.1794C5.26639 20.1867 5.30288 20.1888 5.33968 20.1858L5.64236 20.1665C5.68232 20.1638 5.72096 20.1552 5.75828 20.1407L6.00301 20.0441C6.04029 20.03 6.07464 20.0107 6.10605 19.9862L6.29281 19.8381C6.31155 19.8225 6.32873 19.8053 6.34433 19.7865L6.46025 19.6513C6.4863 19.6221 6.50776 19.5899 6.52465 19.5547L6.57617 19.4388C6.62589 19.3302 6.62803 19.2207 6.58261 19.1103L6.56973 19.0781C6.5095 18.9281 6.3992 18.843 6.23883 18.8228C6.07846 18.8026 5.95048 18.8576 5.85488 18.988L5.8098 19.0524C5.80287 19.0628 5.79643 19.0735 5.79048 19.0846L5.70032 19.2327C5.69355 19.241 5.68711 19.2496 5.681 19.2584L5.57796 19.4645L5.47492 19.6706L5.37188 19.8703L5.28172 20.0119L5.24308 20.057L5.27528 20.0441H5.25596L5.15292 20.0313L4.99836 20.0055C4.97706 20.0017 4.95559 19.9995 4.93396 19.9991L4.79872 20.0055C4.73565 20.0046 4.67555 20.0175 4.6184 20.0441L4.52823 20.0892C4.44604 20.1287 4.38378 20.1888 4.34147 20.2695L4.30927 20.3339C4.29533 20.3606 4.2846 20.3885 4.27707 20.4177L4.26419 20.4885C4.25639 20.518 4.2521 20.5481 4.25131 20.5787V20.6431C4.28433 20.5852 4.3015 20.5229 4.30283 20.4563L4.28351 20.4885C4.38018 20.5687 4.49019 20.597 4.61354 20.5734C4.7369 20.5497 4.82868 20.4828 4.88888 20.3726L4.876 20.3661C4.89709 20.4539 4.94217 20.5269 5.01124 20.5851L5.0048 20.5465C4.9658 20.6337 4.95721 20.7239 4.97904 20.8169L4.99836 20.7783C4.90853 20.826 4.84413 20.8969 4.80516 20.9908L4.85024 20.9651C4.74892 20.9426 4.65232 20.9554 4.56043 21.0037L4.64416 21.023L4.78584 21.081L5.0048 21.1776C5.00694 21.1776 5.00909 21.1776 5.01124 21.1776L5.24308 21.2806C5.25998 21.286 5.27715 21.2903 5.2946 21.2935L5.49424 21.3515C5.51748 21.3578 5.54109 21.3621 5.56508 21.3643L5.71964 21.3772C5.7911 21.3842 5.85979 21.3734 5.92573 21.345L6.00945 21.3064C6.10122 21.2666 6.16992 21.2022 6.21553 21.1132L6.24129 21.0617C6.27808 20.9861 6.29096 20.9067 6.27993 20.8234L6.27349 20.7783C6.25543 20.631 6.18029 20.5237 6.04809 20.4563L6.02877 20.4434C5.92218 20.3912 5.81312 20.3854 5.70158 20.4259C5.59004 20.4665 5.5102 20.541 5.46204 20.6495L5.42984 20.7203C5.42537 20.7267 5.42108 20.7331 5.41696 20.7397L5.37832 20.8427L5.33968 20.9135L5.28816 20.9651L5.21088 21.0037L5.11428 21.023L4.94684 21.0166L4.81804 21.0037L4.76652 20.9779C4.80738 21.1438 4.90828 21.2554 5.0692 21.3128L5.05632 21.2806C4.90492 21.2863 4.78377 21.3497 4.69287 21.4709C4.60197 21.5921 4.575 21.7262 4.61196 21.8731L4.67636 21.8667L4.8116 21.886L5.037 21.9375C5.04129 21.9376 5.04559 21.9376 5.04988 21.9375L5.30104 21.989C5.32235 21.9927 5.34382 21.9949 5.36544 21.9955L5.6166 22.0019C5.63378 22.0029 5.65095 22.0029 5.66812 22.0019L5.8742 21.989C5.88494 21.9894 5.89567 21.9894 5.9064 21.989L6.06741 21.9633C6.07389 21.9613 6.08033 21.9591 6.08673 21.9568L6.17045 21.9439C6.32238 21.9135 6.43236 21.8287 6.50041 21.6895C6.56846 21.5502 6.56783 21.4113 6.49854 21.2727C6.42924 21.1342 6.3185 21.0503 6.1663 21.0212C6.0141 20.9921 5.88024 21.0292 5.76472 21.1325L5.70032 21.184C5.76027 21.1652 5.81394 21.1351 5.86132 21.0939L5.75828 21.1261L5.66168 21.1325L5.48136 21.1067L5.25596 21.0423L5.01768 20.9779C5.00702 20.9754 4.99629 20.9733 4.98548 20.9715L4.79872 20.9329C4.77313 20.9286 4.74737 20.9264 4.72144 20.9264L4.61196 20.92C4.46388 20.9163 4.34085 20.97 4.24285 21.0811C4.14486 21.1922 4.10689 21.3209 4.12895 21.4674L4.13539 21.4996C4.16256 21.688 4.2656 21.8146 4.44451 21.8795L4.55399 21.9182C4.59183 21.9294 4.63048 21.9359 4.66992 21.9375L4.86312 21.9568C4.9039 21.9621 4.94469 21.9621 4.98548 21.9568L5.21088 21.9182C5.23962 21.9123 5.26753 21.9037 5.2946 21.8924L5.50712 21.8151C5.53393 21.8069 5.55969 21.7962 5.5844 21.7829L5.76472 21.667C5.79532 21.6491 5.82323 21.6276 5.84844 21.6026L5.98369 21.4674C6.01241 21.4365 6.03602 21.4022 6.05453 21.3643L6.13181 21.2162C6.1389 21.2037 6.14534 21.1908 6.15113 21.1776L6.19621 21.0617L6.22841 20.9973C6.01064 20.9537 5.85608 21.0331 5.76472 21.2355L5.78404 21.242C5.75424 21.0473 5.64261 20.9313 5.44916 20.8942L5.4556 20.9393C5.49515 20.8597 5.50803 20.776 5.49424 20.6881L5.46848 20.7397C5.55143 20.6981 5.61369 20.6358 5.65524 20.5529L5.57796 20.5915C5.64999 20.5964 5.71868 20.5835 5.78404 20.5529L5.681 20.54L5.5522 20.5078L5.359 20.4112L5.14648 20.3082C5.13804 20.3036 5.12945 20.2993 5.12072 20.2953L4.94684 20.218C4.91772 20.2061 4.88767 20.1976 4.85668 20.1923L4.73432 20.1665C4.62446 20.1428 4.52142 20.16 4.42519 20.218L4.38011 20.2502C4.2832 20.311 4.22095 20.3968 4.19335 20.5078L4.18047 20.5465C4.13953 20.7118 4.18246 20.8513 4.30927 20.9651L4.33503 20.9908C4.51349 21.1498 4.69381 21.152 4.876 20.9973L4.88888 20.9908C4.95501 20.934 4.99794 20.8632 5.01768 20.7783L5.02412 20.7461C5.03299 20.7123 5.03728 20.678 5.037 20.6431L5.04344 20.6302C4.98775 20.6793 4.94911 20.7394 4.92752 20.8105L4.97904 20.7654C4.93133 20.7832 4.8884 20.809 4.85024 20.8427L4.86956 20.8298H4.90176L5.03056 20.8556C5.03485 20.8556 5.03915 20.8556 5.04344 20.8556L5.19156 20.8749C5.22376 20.8787 5.25596 20.8787 5.28816 20.8749L5.42984 20.862C5.48482 20.8552 5.53634 20.8381 5.5844 20.8105L5.70676 20.7461C5.75434 20.7198 5.79513 20.6855 5.82912 20.6431L5.93861 20.5078C5.94814 20.4933 5.95673 20.4783 5.96437 20.4627L6.07385 20.2824C6.07832 20.2761 6.08261 20.2697 6.08673 20.2631L6.19621 20.057C6.19838 20.0549 6.20052 20.0527 6.20265 20.0506L6.31213 19.8381C6.31214 19.8359 6.31214 19.8338 6.31213 19.8316L6.40873 19.6449L6.46669 19.5418L6.49889 19.5032C6.4729 19.4357 6.432 19.379 6.37619 19.3331C6.32038 19.2872 6.25689 19.258 6.1857 19.2454C6.11452 19.2329 6.04486 19.2387 5.97673 19.2628C5.9086 19.287 5.85081 19.3263 5.80336 19.3808L5.81624 19.413C5.86008 19.3108 5.86223 19.2078 5.82268 19.1039L5.78404 19.1876L5.73896 19.2649L5.65524 19.3357L5.52644 19.3872L5.34612 19.3937L5.09496 19.3422L4.83736 19.2456L4.66992 19.1554L4.61196 19.1103C4.39573 19.0736 4.24421 19.1559 4.15739 19.3573C4.07058 19.5587 4.11476 19.7254 4.28995 19.8574L4.32859 19.8638C4.29951 19.8518 4.26945 19.8433 4.23843 19.8381L4.37367 19.8896L4.53467 19.9797L4.69568 20.0892L4.79228 20.1794L4.8438 20.2502C4.83213 20.2111 4.81495 20.1746 4.79228 20.1407L4.80516 20.1858C4.96248 20.2931 5.11899 20.292 5.27471 20.1823C5.43042 20.0727 5.48428 19.9257 5.43628 19.7415L5.3912 19.7093C5.41499 19.7413 5.4429 19.7692 5.47492 19.793L5.38476 19.6771C5.38056 19.6727 5.37627 19.6684 5.37188 19.6642L5.23664 19.5032C5.23452 19.501 5.23237 19.4989 5.2302 19.4967L5.07564 19.3164C5.07144 19.312 5.06715 19.3077 5.06276 19.3035L4.9082 19.1425C4.90607 19.1404 4.90393 19.1382 4.90176 19.1361L4.78584 19.0202C4.75556 18.989 4.72122 18.9632 4.6828 18.9429L4.61196 18.9042C4.49705 18.8471 4.38113 18.845 4.26419 18.8978L4.24487 18.9042C4.09292 18.9764 4.01695 19.0967 4.01695 19.2649C4.01695 19.4331 4.09292 19.5533 4.24487 19.6255ZM5.66168 21.2098L5.5844 21.3193C5.57758 21.3298 5.57114 21.3405 5.56508 21.3515L5.46848 21.5189L5.36544 21.6799L5.30104 21.7701L5.28816 21.7765H5.2946H5.24308L5.17224 21.7701L5.1014 21.7507C5.14029 21.7709 5.18108 21.7859 5.22376 21.7958L5.17868 21.7765C5.05477 21.7199 4.92832 21.7135 4.79932 21.7573C4.67033 21.801 4.57385 21.883 4.50988 22.0032C4.44592 22.1235 4.43185 22.2493 4.46769 22.3807C4.50352 22.5121 4.57952 22.6134 4.69568 22.6846L4.72144 22.6974C4.70474 22.6879 4.68757 22.6793 4.66992 22.6717L4.75364 22.7232C4.7579 22.7254 4.76219 22.7275 4.76652 22.7296L4.90176 22.8198C4.94974 22.8497 5.00126 22.8712 5.05632 22.8842L5.2624 22.9357C5.29843 22.944 5.33492 22.9483 5.37188 22.9486L5.63592 22.955C5.66185 22.9549 5.68761 22.9527 5.7132 22.9486L5.97725 22.91C5.98154 22.91 5.98583 22.91 5.99013 22.91L6.19621 22.8713C6.20917 22.8697 6.22205 22.8675 6.23485 22.8649L6.35077 22.8327C6.21186 22.6908 6.04656 22.6458 5.85488 22.6974L5.86776 22.7039C5.99294 22.6126 6.06201 22.4898 6.07498 22.3354C6.08796 22.181 6.04035 22.0484 5.93217 21.9375L5.84844 21.9955C5.83027 22.0094 5.8131 22.0244 5.79692 22.0405L5.66812 22.1629C5.66592 22.1672 5.66377 22.1715 5.66168 22.1758L5.52 22.311L5.40408 22.4141L5.30104 22.4785L5.20444 22.5171L5.12716 22.53H5.08208L5.06276 22.5236C4.98184 22.6728 4.9761 22.8249 5.04556 22.9798C5.11501 23.1348 5.23237 23.2317 5.39764 23.2706L5.40408 23.2513C5.18861 23.2417 5.02975 23.3318 4.92752 23.5218H5.0048L5.10784 23.5475L5.2624 23.6055L5.46204 23.6892C5.46419 23.6892 5.46633 23.6892 5.46848 23.6892L5.6488 23.76C5.69413 23.7799 5.74135 23.7928 5.79048 23.7987L5.97081 23.8116C6.01835 23.8163 6.06557 23.8142 6.11249 23.8051L6.26705 23.7729C6.31437 23.7646 6.35945 23.7496 6.40229 23.7278L6.55041 23.6506C6.57783 23.6359 6.60359 23.6187 6.62769 23.599L6.74361 23.5024C6.76185 23.4886 6.77903 23.4736 6.79513 23.4574L6.86597 23.3865C6.9549 23.2827 6.99356 23.1627 6.98194 23.0265C6.97031 22.8903 6.91188 22.7786 6.80665 22.6913C6.70141 22.6041 6.58079 22.5673 6.44479 22.5812C6.3088 22.595 6.19803 22.6552 6.11249 22.7618L6.08673 22.794L6.05453 22.8262L6.03521 22.8327H6.04809L6.00301 22.8198L5.86776 22.7554L5.66168 22.6652C5.65322 22.6607 5.64463 22.6564 5.63592 22.6524L5.43628 22.5751C5.4112 22.5644 5.38544 22.5559 5.359 22.5493L5.17868 22.5107C5.15325 22.5044 5.12749 22.5001 5.1014 22.4978L4.98548 22.4914C4.8084 22.4815 4.66457 22.5459 4.55399 22.6846L4.53467 22.7039C4.47923 22.7724 4.4437 22.85 4.42808 22.9367C4.41246 23.0234 4.41868 23.1086 4.44674 23.1921C4.47481 23.2756 4.52124 23.3472 4.58605 23.4069C4.65087 23.4667 4.72605 23.5071 4.8116 23.5282L4.88888 23.5475C4.92067 23.5549 4.95287 23.5592 4.98548 23.5604L5.1336 23.5733C5.17464 23.576 5.21543 23.5738 5.25596 23.5668L5.43628 23.5346C5.47396 23.5279 5.51045 23.5172 5.54576 23.5024L5.73896 23.4252C5.77326 23.4093 5.80546 23.39 5.83556 23.3672L6.00945 23.2513C6.02522 23.2393 6.04024 23.2264 6.05453 23.2126L6.21553 23.071C6.22224 23.0626 6.22868 23.054 6.23485 23.0452L6.38297 22.9035L6.49245 22.8005L6.55685 22.749C6.73792 22.6086 6.79719 22.4283 6.73468 22.2079C6.67216 21.9876 6.52702 21.8652 6.29925 21.8409H6.28637C6.19262 21.8287 6.10246 21.8415 6.01589 21.8795L5.95793 21.9053L5.83556 21.9311L5.63592 21.9504L5.46848 21.9375L5.39764 21.9182L5.33968 21.8795L5.2624 21.8216C5.23795 21.8043 5.21219 21.7893 5.18512 21.7765L5.15936 21.7636C5.042 21.7088 4.92116 21.6996 4.79683 21.7359C4.6725 21.7722 4.57564 21.8451 4.50626 21.9544C4.43688 22.0638 4.41225 22.1825 4.43237 22.3104C4.45249 22.4384 4.51235 22.5438 4.61196 22.6266L4.64416 22.6588C4.68892 22.6949 4.73829 22.7228 4.79228 22.7425L4.88888 22.7812C4.92445 22.7936 4.96094 22.8022 4.99836 22.8069L5.14004 22.8262C5.17204 22.8313 5.20424 22.8335 5.23664 22.8327L5.40408 22.8262C5.45469 22.8247 5.50406 22.8162 5.5522 22.8005L5.70676 22.7425C5.76256 22.7253 5.81408 22.6995 5.86132 22.6652L6.00301 22.5493C6.03633 22.5249 6.06639 22.497 6.09317 22.4656L6.21553 22.311C6.22924 22.2967 6.24212 22.2817 6.25417 22.2659L6.36365 22.0856C6.37297 22.071 6.38155 22.056 6.38941 22.0405L6.47957 21.8667C6.49489 21.8399 6.50778 21.812 6.51821 21.7829L6.55685 21.6606C6.63918 21.3878 6.55311 21.1873 6.29862 21.0592C6.04414 20.931 5.83182 20.9812 5.66168 21.2098ZM6.06097 22.8134L6.00301 22.9228C5.98425 22.9556 5.96923 22.9899 5.95793 23.0259L5.9064 23.2126C5.90424 23.2148 5.90209 23.2169 5.89996 23.2191L5.842 23.4252L5.8098 23.554L5.82268 23.5282L5.91284 23.4702L5.97081 23.4638L5.94505 23.4574L5.86132 23.4252C5.91101 23.4777 5.96897 23.5185 6.03521 23.5475L5.97081 23.4767C5.84876 23.7012 5.87452 23.9073 6.04809 24.0949L6.06741 24.0627C5.83717 24.0415 5.66544 24.1316 5.5522 24.3332L5.5844 24.3396L5.66168 24.359L5.8098 24.3976L5.97081 24.4427C5.98787 24.4457 6.00505 24.4478 6.02233 24.4491L6.20265 24.4813C6.22809 24.4875 6.25385 24.4918 6.27993 24.4942H6.44093L6.55685 24.5006C6.56329 24.5008 6.56973 24.5008 6.57617 24.5006H6.62125C6.86719 24.3561 6.95278 24.1461 6.878 23.8708C6.80322 23.5955 6.62318 23.4577 6.33789 23.4574L6.29281 23.4831C6.29066 23.4831 6.28851 23.4831 6.28637 23.4831L6.15757 23.5604L5.99657 23.657L5.842 23.7407L5.70032 23.8051L5.59728 23.8502C5.55837 23.8676 5.52187 23.889 5.4878 23.9146L5.46848 23.9275C5.22954 24.1021 5.16772 24.3256 5.28303 24.5982C5.39833 24.8707 5.60183 24.982 5.89352 24.9321L5.94505 24.9257L6.03521 24.9192L6.12537 24.9321L6.11893 24.9257L6.14469 24.945C6.10547 24.8761 6.05395 24.8182 5.99013 24.7711L5.99657 24.784L6.00301 24.7969C6.00299 24.799 6.00299 24.8012 6.00301 24.8033L6.01589 24.8613C6.05091 25.0124 6.13463 25.1283 6.26705 25.2091L6.29925 25.2284C6.34578 25.2549 6.39516 25.2743 6.44737 25.2863L6.47313 25.2928C6.61283 25.3152 6.74185 25.2877 6.86018 25.2101C6.97851 25.1325 7.05523 25.0252 7.09034 24.8881C7.12544 24.751 7.10975 24.6201 7.04328 24.4951C6.9768 24.3702 6.87692 24.2841 6.74361 24.2366L6.71785 24.2302C6.79608 24.3574 6.90771 24.439 7.05273 24.4749L7.03341 24.4427C7.04433 24.5066 7.0658 24.5667 7.09781 24.623L7.09137 24.565L7.07205 24.4749C7.06041 24.4205 7.04109 24.369 7.01409 24.3203L6.97545 24.2366C6.93583 24.1622 6.88216 24.1 6.81445 24.0498L6.70497 23.9726C6.65389 23.9352 6.59807 23.9073 6.53753 23.8888L6.38941 23.8438C6.34723 23.8323 6.30429 23.8259 6.26061 23.8244L6.08029 23.8116C6.06311 23.8108 6.04594 23.8108 6.02877 23.8116L5.8742 23.818H5.80336C5.55591 23.9634 5.47059 24.1744 5.54741 24.451C5.62424 24.7275 5.80615 24.8643 6.09317 24.8613L6.11249 24.8484C6.08109 24.8608 6.05104 24.8758 6.02233 24.8935L6.13825 24.8484C6.14257 24.8463 6.14686 24.8442 6.15113 24.842L6.31213 24.7711C6.32961 24.7655 6.34679 24.7591 6.36365 24.7518L6.54397 24.6552C6.55267 24.6511 6.56125 24.6468 6.56973 24.6423L6.73717 24.5328C6.73932 24.5329 6.74146 24.5329 6.74361 24.5328L6.87241 24.4556C6.89759 24.4382 6.9212 24.4188 6.94325 24.3976L6.98833 24.3654C7.21575 24.1676 7.25679 23.9366 7.11146 23.6725C6.96613 23.4085 6.74906 23.3196 6.46025 23.4058L6.42161 23.4187C6.4064 23.4224 6.39137 23.4267 6.37653 23.4316L6.35721 23.438H6.33145L6.22841 23.4187L6.09961 23.3865L5.97081 23.3414C5.95809 23.3367 5.94521 23.3324 5.93217 23.3286L5.8098 23.2964C5.78012 23.2895 5.75006 23.2852 5.71964 23.2835L5.64236 23.277C5.43222 23.2599 5.26907 23.3394 5.15292 23.5153L5.1336 23.5475C4.98372 23.7776 5.00089 23.9944 5.18512 24.198L5.24952 24.2688C5.29394 24.3169 5.34546 24.3556 5.40408 24.3847L5.53932 24.4556C5.58444 24.4772 5.63167 24.4923 5.681 24.5006L5.842 24.5328C5.92024 24.5457 5.99752 24.5415 6.07385 24.52L6.22197 24.4813C6.29318 24.4628 6.35758 24.4306 6.41517 24.3847L6.52465 24.2881C6.58021 24.2458 6.62529 24.1943 6.65989 24.1336L6.73073 23.9919C6.74359 23.967 6.75432 23.9412 6.76293 23.9146L6.82089 23.7278L6.89173 23.5282C6.8939 23.5261 6.89604 23.5239 6.89817 23.5218L6.95613 23.3414L6.99477 23.232C7.05257 23.103 7.05632 22.9725 7.00602 22.8405C6.95572 22.7085 6.8661 22.6135 6.73717 22.5558C6.60824 22.498 6.47775 22.4942 6.34572 22.5445C6.21368 22.5948 6.11876 22.6844 6.06097 22.8134Z" fill="black"/>
<path d="M10.0733 26.5356L10.0926 26.5292C10.1502 26.4977 10.1975 26.4548 10.2343 26.4004L10.2858 26.3231C10.2903 26.3168 10.2946 26.3104 10.2987 26.3038L10.4017 26.1364L10.5305 25.9303L10.6786 25.75L10.7624 25.6469L10.7946 25.6276C10.6282 25.4423 10.4415 25.4187 10.2343 25.5568L10.26 25.5825C10.3019 25.4261 10.2675 25.2887 10.157 25.1704V25.1832L10.1377 25.2154L10.0797 25.2992L9.97667 25.3893L9.80278 25.4924L9.5967 25.5632L9.35198 25.6018C9.32117 25.6078 9.29112 25.6164 9.26182 25.6276L9.05574 25.6984C8.98368 25.7214 8.91928 25.7579 8.86254 25.8079L8.7595 25.9045C8.60995 26.0403 8.55199 26.2077 8.58562 26.4068L8.61138 26.5614C8.63136 26.6874 8.68718 26.7947 8.77882 26.8834L8.97202 27.0637C8.99796 27.0877 9.02587 27.1092 9.05574 27.1281L9.38418 27.3407C9.40897 27.3555 9.43473 27.3684 9.46146 27.3793L9.8543 27.5596C9.87523 27.5696 9.89669 27.5781 9.91871 27.5854L10.2987 27.7013L10.6014 27.8365L10.8074 27.9331L10.904 27.9847C10.8747 27.8349 10.7931 27.7232 10.6593 27.6498V27.6691C10.8429 27.8044 11.0305 27.8103 11.2222 27.6867C11.4139 27.5631 11.486 27.3898 11.4386 27.1668L11.4064 27.141L11.3291 27.0702L11.181 26.8898L10.9942 26.6516L10.8525 26.4584L10.7688 26.3038C10.7569 26.4107 10.7762 26.5116 10.8268 26.6065L10.8396 26.497C10.6222 26.5663 10.502 26.7144 10.479 26.9414L10.5563 26.9156L10.7108 26.9092L11.0135 26.9027L11.3613 26.8963C11.3699 26.8965 11.3784 26.8965 11.387 26.8963L11.709 26.877C11.7375 26.873 11.7654 26.8665 11.7928 26.8576L12.0504 26.7997C12.0746 26.7929 12.0982 26.7843 12.1212 26.7739L12.308 26.7031C12.366 26.6786 12.4176 26.6442 12.4625 26.6L12.5398 26.5292C12.7258 26.3557 12.7602 26.156 12.6428 25.9303L12.6171 25.8788C12.5453 25.7411 12.4336 25.6553 12.2822 25.6212L12.192 25.6018C12.1666 25.5955 12.1409 25.5912 12.1148 25.589L11.9795 25.5825C11.9688 25.5822 11.9581 25.5822 11.9473 25.5825H11.8185C11.7657 25.5831 11.7141 25.5917 11.664 25.6083L11.5352 25.6469C11.4501 25.6755 11.3771 25.7228 11.3162 25.7886L11.2003 25.911C11.1789 25.9329 11.1596 25.9565 11.1423 25.9818L11.02 26.1686C11.0155 26.1749 11.0112 26.1813 11.0071 26.1879L10.8976 26.3682L10.8074 26.5099C10.834 26.4844 10.8576 26.4565 10.8783 26.4262L10.8396 26.4648C10.762 26.724 10.8385 26.9244 11.0689 27.0661C11.2994 27.2078 11.5128 27.1856 11.709 26.9993L11.7348 26.922L11.7928 26.8126L11.87 26.6966C11.7569 26.7321 11.6667 26.7986 11.5996 26.8963L11.6897 26.8641C11.6356 26.7456 11.549 26.66 11.4299 26.6072C11.3108 26.5544 11.1892 26.5477 11.065 26.5872L11.0972 26.658L11.1359 26.8126C11.1395 26.8278 11.1438 26.8428 11.1488 26.8576L11.226 27.1024C11.2334 27.1222 11.242 27.1415 11.2518 27.1603L11.3742 27.4244C11.382 27.4398 11.3906 27.4549 11.3999 27.4695L11.5545 27.7271C11.566 27.7473 11.5789 27.7666 11.5931 27.785L11.7734 28.0104C11.7875 28.0264 11.8025 28.0414 11.8185 28.0555L11.9924 28.2294C12.016 28.2534 12.0418 28.2749 12.0697 28.2938L12.2307 28.3968C12.2668 28.4211 12.3055 28.4404 12.3466 28.4548L12.469 28.4934C12.515 28.5088 12.5622 28.5173 12.6106 28.5192L12.6879 28.5256C12.865 28.53 13.0067 28.4613 13.113 28.3195L13.1258 28.3067C13.3065 28.0742 13.2957 27.8509 13.0936 27.6369L13.0486 27.5918C13.0383 27.5806 13.0276 27.5699 13.0164 27.5596L12.952 27.5017L12.8811 27.4179L12.8167 27.2956L12.7523 27.1217L12.7266 26.98V26.9607L12.733 26.9478C12.6094 26.9986 12.5193 27.0845 12.4625 27.2054L12.4883 27.1925H12.514L12.6493 27.2118C12.6557 27.212 12.6622 27.212 12.6686 27.2118L12.8554 27.2312C12.921 27.2372 12.9854 27.2308 13.0486 27.2118L13.2353 27.1603C13.2992 27.1416 13.3571 27.1116 13.4092 27.0702L13.596 26.922C13.6071 26.9139 13.6178 26.9053 13.6282 26.8963L13.8343 26.7031C13.8528 26.685 13.87 26.6657 13.8858 26.6451L14.0532 26.4262L14.1691 26.2845L14.2335 26.2201C14.0108 26.1466 13.8155 26.1917 13.6475 26.3553L13.6861 26.3682C13.6983 26.0791 13.5673 25.888 13.2933 25.795V25.8466L13.2675 25.9496L13.1967 26.1364L13.1194 26.3231L13.0421 26.4648L12.9713 26.5614C13.0464 26.5199 13.1086 26.4641 13.158 26.394L13.0743 26.439C13.2693 26.5775 13.4711 26.5882 13.6797 26.4712L13.6282 26.4326C13.6382 26.6239 13.7219 26.7742 13.8793 26.8834L13.8729 26.8319C13.6563 26.9531 13.5533 27.1377 13.5638 27.3857L13.5895 27.3729C13.3876 27.2709 13.188 27.2752 12.9906 27.3857L13.0099 27.3922L13.1065 27.463C13.115 27.4697 13.1235 27.4761 13.1323 27.4823L13.3191 27.6047C13.3357 27.6163 13.3529 27.627 13.3706 27.6369L13.5831 27.7528C13.5979 27.7598 13.6129 27.7663 13.6282 27.7721L13.8214 27.8559C13.8629 27.8734 13.9058 27.8863 13.9502 27.8945L14.1176 27.9267C14.1753 27.937 14.2332 27.9391 14.2915 27.9331L14.4267 27.9203C14.5239 27.9113 14.6141 27.8813 14.6972 27.8301L14.7874 27.7721C14.9212 27.6902 15.0114 27.5743 15.0579 27.4244L15.0901 27.3213C15.1137 27.2389 15.1202 27.1552 15.1094 27.0702L15.0901 26.922C15.0869 26.885 15.0804 26.8485 15.0707 26.8126L15.0192 26.6387C15.0151 26.63 15.0108 26.6214 15.0063 26.6129L14.9548 26.4455L14.9291 26.336V26.3038L14.9419 26.2458C14.8032 26.3304 14.7109 26.4506 14.665 26.6065L14.7294 26.5678C14.511 26.4269 14.2899 26.4226 14.0661 26.555L14.1369 26.6L14.24 26.6773C14.2644 26.6965 14.2902 26.7136 14.3173 26.7288L14.4525 26.7997C14.4815 26.8151 14.5115 26.828 14.5427 26.8383L14.6715 26.8834C14.7319 26.9045 14.7942 26.9152 14.8582 26.9156H14.9677C15.0637 26.9144 15.1539 26.8908 15.2382 26.8448L15.309 26.8061C15.4256 26.7452 15.5114 26.655 15.5666 26.5356L15.5988 26.4648C15.6313 26.3932 15.6485 26.318 15.6503 26.2394V26.175C15.6563 25.9581 15.5683 25.7907 15.3863 25.6727L15.3541 25.6534C15.0845 25.4806 14.8398 25.5107 14.6199 25.7435L14.5749 25.7886C14.5105 25.8571 14.4654 25.9365 14.4396 26.0269L14.4139 26.1106C14.3652 26.2762 14.3888 26.4308 14.4847 26.5743L14.5105 26.6194C14.5818 26.7283 14.6807 26.7982 14.8072 26.8292C14.9337 26.8602 15.0537 26.8439 15.1673 26.7804L15.2124 26.7546C15.2624 26.7292 15.3075 26.697 15.3477 26.658L15.3992 26.6L15.4378 26.5614C15.1881 26.4234 14.9605 26.4535 14.7552 26.6516L14.7874 26.6709C14.7836 26.4488 14.6849 26.2835 14.4911 26.175V26.2394C14.5296 26.1601 14.5489 26.0764 14.5491 25.9882L14.5105 26.0591C14.6208 25.9977 14.7024 25.9097 14.7552 25.795L14.6843 25.8337C14.7855 25.8327 14.88 25.8069 14.9677 25.7564H14.8582C14.9355 25.7938 15.0171 25.8132 15.1029 25.8144L15.0836 25.8015L15.0643 25.7822C15.0601 25.7778 15.0558 25.7735 15.0514 25.7693L14.9484 25.6534C14.9226 25.6273 14.8946 25.6037 14.8647 25.5825L14.7809 25.5246C14.5556 25.3548 14.3216 25.3419 14.079 25.4859L14.0146 25.5246C13.8799 25.6086 13.7897 25.7267 13.7441 25.8788L13.699 26.0269C13.6795 26.0854 13.6687 26.1455 13.6668 26.2072V26.4004C13.6662 26.4459 13.6705 26.491 13.6797 26.5356L13.7248 26.7482C13.7314 26.7767 13.74 26.8046 13.7505 26.8319L13.8214 27.0315L13.86 27.1474L13.8729 27.2312C13.9026 27.1408 13.9111 27.0485 13.8987 26.9542L13.8665 27.0573C13.9873 26.9744 14.0689 26.8627 14.1112 26.7224L14.0275 26.7804C14.1275 26.7705 14.2198 26.7383 14.3044 26.6838H14.2657H14.2529L14.1563 26.6451L14.021 26.5614L13.8793 26.4519L13.7441 26.3489C13.6948 26.311 13.6412 26.2809 13.5831 26.2587L13.5123 26.2265C13.2485 26.1262 13.0192 26.178 12.8243 26.3822C12.6295 26.5863 12.5883 26.8178 12.7008 27.0766L12.7137 27.1024C12.7516 27.1908 12.8074 27.2659 12.8811 27.3278L12.9262 27.36C13.0069 27.4278 13.0992 27.4708 13.2031 27.4888L13.274 27.4952C13.4334 27.5201 13.5772 27.4836 13.7055 27.3857L13.7763 27.3278C13.824 27.2914 13.8648 27.2485 13.8987 27.199L13.9824 27.0766C13.994 27.06 14.0048 27.0428 14.0146 27.0251L14.1176 26.8319C14.1221 26.8234 14.1264 26.8148 14.1305 26.8061L14.2335 26.5872C14.2357 26.5829 14.2379 26.5786 14.24 26.5743L14.3366 26.3489C14.3465 26.3279 14.3551 26.3065 14.3623 26.2845L14.4203 26.1042C14.4316 26.062 14.438 26.019 14.4396 25.9754L14.4525 25.8594C14.461 25.7189 14.4233 25.5921 14.3394 25.479C14.2555 25.3659 14.1451 25.2931 14.0081 25.2605L13.9631 25.2476C13.7153 25.1891 13.5157 25.2621 13.3641 25.4666L13.2869 25.5696C13.2725 25.5902 13.2597 25.6117 13.2482 25.634L13.1452 25.8208L13.0292 26.014L12.9133 26.1621L12.8489 26.2136H12.8554L12.7845 26.2072L12.6235 26.1814C12.6128 26.1811 12.6021 26.1811 12.5913 26.1814L12.4368 26.1621C12.3641 26.1557 12.2933 26.1642 12.2242 26.1879L12.1019 26.233C11.9717 26.2779 11.8751 26.3617 11.8121 26.4841L11.7477 26.6C11.7131 26.6667 11.6937 26.7376 11.6897 26.8126L11.6833 26.9993C11.6827 27.0406 11.687 27.0814 11.6962 27.1217L11.7348 27.3535C11.7399 27.3754 11.7463 27.3969 11.7541 27.4179L11.8378 27.6691C11.8475 27.7026 11.8604 27.7348 11.8765 27.7657L11.9924 27.9718C12.0093 27.9993 12.0286 28.0251 12.0504 28.0491L12.1727 28.1972C12.1995 28.2287 12.2295 28.2566 12.2629 28.2809L12.3402 28.3453L12.3659 28.3646C12.5016 28.1306 12.4715 27.9202 12.2758 27.7335L12.2629 27.7528C12.4518 27.745 12.5935 27.6591 12.6879 27.4952L12.6106 27.5017C12.6654 27.5175 12.7212 27.5239 12.7781 27.521L12.7201 27.5081L12.6622 27.4695L12.5591 27.36L12.4174 27.1796L12.2951 26.9671L12.1985 26.761L12.1405 26.5678L12.1019 26.3875C12.0922 26.3355 12.075 26.2862 12.0504 26.2394L11.986 26.1235C11.9224 26.01 11.8293 25.9318 11.7066 25.8889C11.5839 25.8459 11.4624 25.849 11.342 25.8981L11.2518 25.9303C11.1591 25.9685 11.084 26.0286 11.0264 26.1106L10.9234 26.2587C10.9142 26.2712 10.9056 26.2841 10.8976 26.2974L10.801 26.4712C10.789 26.4899 10.7783 26.5092 10.7688 26.5292L10.7302 26.6322C10.6355 26.891 10.7024 27.0975 10.9309 27.2515C11.1594 27.4056 11.3758 27.3902 11.5802 27.2054L11.6189 27.1668C11.6454 27.1413 11.669 27.1134 11.6897 27.083L11.7863 26.9414C11.7931 26.9309 11.7996 26.9201 11.8056 26.9092L11.9087 26.7353L11.9924 26.6L12.0375 26.555L11.9924 26.5872H11.9666H12.0246L12.0761 26.6C12.0042 26.4487 11.8862 26.3563 11.7219 26.3231L11.7477 26.3746C11.8996 26.2088 11.9275 26.0242 11.8314 25.8208L11.7734 25.8466L11.5996 25.8916L11.3484 25.9045L11.0135 25.8981L10.7044 25.8916C10.7022 25.8916 10.7001 25.8916 10.698 25.8916H10.4661C10.4205 25.8899 10.3754 25.8942 10.3309 25.9045L10.1956 25.9432C9.97082 26.001 9.84202 26.1448 9.80922 26.3746L9.79634 26.4841C9.7792 26.6032 9.80067 26.7148 9.86074 26.819L9.97023 26.9993C9.98154 27.0217 9.99442 27.0432 10.0089 27.0637L10.1892 27.2827C10.1934 27.2849 10.1977 27.287 10.2021 27.2891L10.4017 27.5339L10.5691 27.7335C10.5794 27.7447 10.5901 27.7554 10.6014 27.7657L10.7237 27.8881C10.7547 27.9183 10.7891 27.944 10.8268 27.9653L10.904 28.004C11.0205 28.0759 11.1454 28.0961 11.2786 28.0647C11.4118 28.0332 11.5144 27.9593 11.5864 27.8428C11.6584 27.7264 11.6787 27.6015 11.6473 27.4683C11.616 27.335 11.5421 27.2324 11.4257 27.1603L11.4128 27.1474C11.3963 27.1356 11.3791 27.1249 11.3613 27.1152L11.2518 27.0637C11.2433 27.0592 11.2347 27.0549 11.226 27.0508L11.0006 26.9478L10.7044 26.8126L10.3695 26.6L10.0089 26.3746L9.73194 26.1879L9.65466 26.117L9.64178 26.0848C9.5151 26.2582 9.49578 26.4428 9.58382 26.6387L9.66754 26.5163C9.57156 26.5583 9.49428 26.6227 9.4357 26.7095L9.63534 26.6258C9.65067 26.6201 9.66569 26.6136 9.68042 26.6065L9.93159 26.4777C9.9403 26.4736 9.94889 26.4693 9.95735 26.4648L10.2278 26.3102C10.2322 26.306 10.2365 26.3017 10.2407 26.2974L10.4919 26.1428C10.5149 26.1276 10.5364 26.1104 10.5563 26.0913L10.7237 25.9303C10.7477 25.909 10.7692 25.8853 10.7881 25.8594L10.8847 25.7178C10.8942 25.7032 10.9028 25.6882 10.9105 25.6727L10.9684 25.5696C10.9954 25.5148 11.0104 25.4568 11.0135 25.3958L11.02 25.3185C11.0341 25.1217 10.9526 24.98 10.7752 24.8934L10.743 24.8806C10.5894 24.807 10.4435 24.8199 10.3051 24.9192L10.2214 24.9772C10.1845 25.0022 10.1523 25.0323 10.1248 25.0673L10.0089 25.2283C10.0045 25.2325 10.0002 25.2368 9.99599 25.2412L9.8543 25.4602C9.84983 25.4665 9.84554 25.4729 9.84142 25.4795L9.70618 25.7049C9.70401 25.707 9.70187 25.7091 9.69974 25.7113L9.5967 25.8916C9.59668 25.8938 9.59668 25.8959 9.5967 25.8981L9.54518 25.9818C9.50242 26.0605 9.48739 26.1443 9.5001 26.233L9.50654 26.2523C9.52607 26.3852 9.5959 26.4816 9.71603 26.5417C9.83616 26.6018 9.95524 26.5998 10.0733 26.5356ZM15.2382 26.6966L15.2768 26.6644C15.3751 26.5745 15.4168 26.4633 15.402 26.3309C15.3871 26.1984 15.3218 26.0993 15.206 26.0333L15.1609 26.014C14.9389 25.8878 14.7536 25.9285 14.6051 26.1362C14.4565 26.344 14.4778 26.5325 14.6691 26.7018C14.8603 26.871 15.05 26.8693 15.2382 26.6966ZM15.2189 26.5678L15.2768 26.5292C15.4228 26.4348 15.4486 26.3145 15.3541 26.1686C15.2597 26.0226 15.1394 25.9968 14.9935 26.0913L14.9355 26.1299C14.7897 26.2244 14.764 26.3446 14.8584 26.4905C14.9528 26.6363 15.0729 26.6621 15.2189 26.5678Z" fill="black"/>
<path d="M14.6586 26.5035C14.6586 26.6102 14.6963 26.7013 14.7718 26.7767C14.8472 26.8522 14.9383 26.8899 15.045 26.8899C15.1517 26.8899 15.2428 26.8522 15.3182 26.7767C15.3937 26.7013 15.4314 26.6102 15.4314 26.5035C15.4314 26.3968 15.3937 26.3057 15.3182 26.2303C15.2428 26.1548 15.1517 26.1171 15.045 26.1171C14.9383 26.1171 14.8472 26.1548 14.7718 26.2303C14.6963 26.3057 14.6586 26.3968 14.6586 26.5035ZM14.6521 26.5035C14.6521 26.612 14.6905 26.7046 14.7672 26.7813C14.8439 26.858 14.9365 26.8963 15.045 26.8963C15.1535 26.8963 15.2461 26.858 15.3228 26.7813C15.3995 26.7046 15.4378 26.612 15.4378 26.5035C15.4378 26.395 15.3995 26.3024 15.3228 26.2257C15.2461 26.149 15.1535 26.1106 15.045 26.1106C14.9365 26.1106 14.8439 26.149 14.7672 26.2257C14.6905 26.3024 14.6521 26.395 14.6521 26.5035ZM14.5233 26.5099C14.5235 26.6485 14.5726 26.7668 14.6706 26.8648C14.7687 26.9628 14.887 27.0118 15.0257 27.0118C15.1643 27.0118 15.2826 26.9628 15.3807 26.8648C15.4788 26.7668 15.5279 26.6485 15.528 26.5099C15.5279 26.3713 15.4788 26.253 15.3807 26.155C15.2826 26.0571 15.1643 26.0081 15.0257 26.0081C14.887 26.0081 14.7687 26.0571 14.6706 26.155C14.5726 26.253 14.5235 26.3713 14.5233 26.5099ZM14.4396 26.5099C14.4398 26.6645 14.4945 26.7965 14.6039 26.9058C14.7133 27.015 14.8453 27.0697 14.9999 27.0697C15.1545 27.0697 15.2865 27.015 15.3959 26.9058C15.5053 26.7965 15.56 26.6645 15.5602 26.5099C15.56 26.3553 15.5053 26.2234 15.3959 26.1141C15.2865 26.0048 15.1545 25.9502 14.9999 25.9502C14.8453 25.9502 14.7133 26.0048 14.6039 26.1141C14.4945 26.2234 14.4398 26.3553 14.4396 26.5099ZM15.0965 27.096L15.1673 27.0831C15.1935 27.0783 15.2193 27.0719 15.2446 27.0638L15.4249 27.0122C15.4447 27.0046 15.464 26.996 15.4829 26.9865L15.7598 26.8706C15.7663 26.8685 15.7727 26.8664 15.7792 26.8641L16.1012 26.716L16.4554 26.5679L16.8289 26.4455C16.8609 26.4345 16.891 26.4194 16.919 26.4004L17.1316 26.2588L17.3183 26.233C17.49 26.2072 17.5629 26.1084 17.5372 25.9368C17.5114 25.7651 17.4127 25.6921 17.241 25.7178L17.0414 25.75L16.7838 25.6985C16.7497 25.6917 16.7154 25.6896 16.6808 25.692L16.2815 25.7178L15.8822 25.7371L15.5215 25.7436C15.5001 25.7424 15.4786 25.7424 15.4571 25.7436L15.1609 25.7822C15.1146 25.7879 15.0696 25.7987 15.0257 25.8144L14.8518 25.8788C14.7373 25.9199 14.6428 25.9886 14.5684 26.0849L14.5233 26.1364C14.3544 26.3521 14.3401 26.5776 14.4806 26.8129C14.6212 27.0481 14.8265 27.1425 15.0965 27.096Z" fill="black"/>
<path d="M4.48322 19.0716C4.48322 19.1783 4.52095 19.2694 4.5964 19.3449C4.67185 19.4203 4.76292 19.458 4.86962 19.458C4.97633 19.458 5.0674 19.4203 5.14285 19.3449C5.2183 19.2694 5.25603 19.1783 5.25603 19.0716C5.25603 18.9649 5.2183 18.8739 5.14285 18.7984C5.0674 18.723 4.97633 18.6852 4.86962 18.6852C4.76292 18.6852 4.67185 18.723 4.5964 18.7984C4.52095 18.8739 4.48322 18.9649 4.48322 19.0716ZM4.45102 19.0781C4.45102 19.1901 4.49063 19.2857 4.56986 19.365C4.64908 19.4442 4.74471 19.4838 4.85674 19.4838C4.96878 19.4838 5.06441 19.4442 5.14363 19.365C5.22286 19.2857 5.26247 19.1901 5.26247 19.0781C5.26247 18.966 5.22286 18.8704 5.14363 18.7912C5.06441 18.712 4.96878 18.6724 4.85674 18.6724C4.74471 18.6724 4.64908 18.712 4.56986 18.7912C4.49063 18.8704 4.45102 18.966 4.45102 19.0781ZM5.24315 19.3164L5.24959 19.3099C5.31559 19.2003 5.3392 19.0823 5.32043 18.9557L5.31399 18.9106V18.8591C5.29009 18.9191 5.27721 18.9813 5.27535 19.0459L5.30111 18.975C5.15978 19.0391 5.06317 19.1443 5.01131 19.2906L5.04995 19.2713C4.93703 19.247 4.82755 19.2577 4.7215 19.3035L4.77302 19.3164C4.73796 19.2994 4.70146 19.2866 4.66354 19.2777L4.7215 19.3035C4.79934 19.3388 4.88091 19.3538 4.96623 19.3486H5.01131C5.16286 19.3396 5.28522 19.2752 5.37839 19.1554L5.41059 19.1167C5.46406 19.0503 5.49841 18.9752 5.51363 18.8913L5.52651 18.8012C5.52656 18.7969 5.52656 18.7926 5.52651 18.7883L5.54583 18.6917C5.55324 18.6334 5.5511 18.5754 5.53939 18.5178L5.52007 18.4341C5.51218 18.3825 5.49716 18.3332 5.47499 18.286L5.46211 18.2602C5.39456 18.1367 5.29411 18.0524 5.16076 18.0073C5.02742 17.9623 4.89644 17.9683 4.76781 18.0255C4.63919 18.0827 4.54693 18.1758 4.49104 18.305C4.43514 18.4342 4.43039 18.5652 4.47678 18.6981L4.4961 18.7496C4.51885 18.809 4.55105 18.8626 4.5927 18.9106L4.68286 19.0137C4.7096 19.0452 4.73966 19.0731 4.77302 19.0974L4.91471 19.2004C4.93909 19.2178 4.96485 19.2329 4.99199 19.2455L5.15943 19.3228C5.20047 19.342 5.24341 19.3549 5.28823 19.3614L5.44279 19.3872C5.513 19.397 5.5817 19.3905 5.64887 19.3679L5.77123 19.3292C5.85049 19.3029 5.91703 19.2578 5.97087 19.194L6.03527 19.1167L6.08679 19.0588C6.16114 18.9853 6.20837 18.8973 6.22847 18.7947L6.2478 18.6917C6.24785 18.6874 6.24785 18.6831 6.2478 18.6788L6.25424 18.6273C6.27296 18.4823 6.23768 18.352 6.1484 18.2362C6.05912 18.1205 5.94199 18.0533 5.79701 18.0346C5.65204 18.0159 5.5217 18.0513 5.406 18.1406C5.2903 18.2299 5.22313 18.3471 5.20451 18.492L5.19807 18.5436C5.19321 18.5932 5.19536 18.6426 5.20451 18.6917L5.22383 18.7947C5.22856 18.8188 5.235 18.8424 5.24315 18.8656L5.27535 18.9557C5.36369 18.8303 5.38301 18.6951 5.33331 18.55L5.26891 18.6402C5.36416 18.6124 5.44144 18.5587 5.50075 18.4792L5.37839 18.5114C5.47353 18.5485 5.57013 18.5528 5.66819 18.5242L5.60379 18.4985L5.57159 18.4727L5.52651 18.4019L5.49431 18.3439L5.48787 18.3182C5.42265 18.1924 5.32335 18.1056 5.18996 18.0579C5.05656 18.0101 4.92475 18.0141 4.79453 18.0699C4.6643 18.1258 4.57048 18.2184 4.51307 18.348C4.45565 18.4775 4.45 18.6092 4.4961 18.7432L4.50898 18.769C4.49921 18.7355 4.48633 18.7033 4.47034 18.6724L4.4961 18.7561C4.50119 18.778 4.50763 18.7994 4.51542 18.8205L4.55406 18.9106C4.55226 18.8482 4.53938 18.7881 4.51542 18.7303V18.8205C4.6044 18.7216 4.64733 18.6057 4.64422 18.4727L4.61202 18.5114C4.71573 18.5825 4.83005 18.6108 4.95498 18.5961C5.07991 18.5814 5.18455 18.5274 5.26891 18.4341L5.24959 18.4148L5.22383 18.3954L5.18519 18.3632C5.06178 18.259 4.9201 18.2182 4.76014 18.2409L4.70862 18.2473C4.49481 18.2801 4.35098 18.3982 4.27714 18.6015L4.25138 18.6724C4.22971 18.7327 4.21897 18.795 4.21918 18.8591V18.9493C4.22111 19.0068 4.23185 19.0626 4.25138 19.1167L4.27714 19.2004C4.32936 19.3653 4.43635 19.4782 4.59812 19.5392C4.75989 19.6002 4.91479 19.586 5.06283 19.4967L5.06927 19.4902C5.14248 19.4475 5.20044 19.3896 5.24315 19.3164ZM5.33331 18.5822C5.33335 18.7013 5.37549 18.803 5.45974 18.8872C5.54399 18.9714 5.64567 19.0135 5.76479 19.0135C5.88391 19.0135 5.9856 18.9714 6.06984 18.8872C6.15409 18.803 6.19623 18.7013 6.19627 18.5822C6.19623 18.4631 6.15409 18.3614 6.06984 18.2772C5.9856 18.193 5.88391 18.1509 5.76479 18.1509C5.64567 18.1509 5.54399 18.193 5.45974 18.2772C5.37549 18.3614 5.33335 18.4631 5.33331 18.5822ZM5.61023 18.814L5.68107 18.9364C5.77566 19.0481 5.88649 19.0676 6.01356 18.995C6.14064 18.9224 6.18008 18.817 6.13187 18.6788L6.06103 18.5564C5.96645 18.4448 5.85562 18.4252 5.72854 18.4978C5.60147 18.5704 5.56203 18.6758 5.61023 18.814Z" fill="black"/>
<path d="M5.28821 24.4169C5.28825 24.5271 5.32725 24.6212 5.40521 24.6991C5.48317 24.777 5.57726 24.816 5.68749 24.816C5.79773 24.816 5.89182 24.777 5.96978 24.6991C6.04774 24.6212 6.08674 24.5271 6.08678 24.4169C6.08674 24.3066 6.04774 24.2126 5.96978 24.1346C5.89182 24.0567 5.79773 24.0177 5.68749 24.0177C5.57726 24.0177 5.48317 24.0567 5.40521 24.1346C5.32725 24.2126 5.28825 24.3066 5.28821 24.4169ZM5.01129 24.4169C5.01129 24.5858 5.07102 24.73 5.19048 24.8495C5.30994 24.9689 5.45415 25.0287 5.62309 25.0287C5.79204 25.0287 5.93624 24.9689 6.0557 24.8495C6.17517 24.73 6.2349 24.5858 6.2349 24.4169C6.2349 24.2479 6.17517 24.1037 6.0557 23.9843C5.93624 23.8648 5.79204 23.8051 5.62309 23.8051C5.45415 23.8051 5.30994 23.8648 5.19048 23.9843C5.07102 24.1037 5.01129 24.2479 5.01129 24.4169ZM5.03061 24.1077L5.01773 24.1335C4.88116 24.3778 4.89405 24.6139 5.05637 24.8419L5.11433 24.9192C5.15384 24.9759 5.20106 25.0253 5.25601 25.0673L5.38481 25.1639C5.42304 25.1919 5.46383 25.2156 5.50717 25.2348L5.72613 25.3314C5.76353 25.348 5.80217 25.3608 5.84205 25.37L6.11898 25.4344C6.13596 25.4394 6.15314 25.4437 6.1705 25.4473L6.44098 25.4859C6.49436 25.4953 6.54802 25.4974 6.60198 25.4924L6.83382 25.4602C6.89404 25.4538 6.952 25.4388 7.0077 25.4151L7.15582 25.3507C7.27428 25.2987 7.36659 25.2171 7.43275 25.106L7.47139 25.0351C7.54026 24.8962 7.55379 24.7522 7.51199 24.6029C7.47018 24.4536 7.38379 24.3375 7.2528 24.2546C7.12182 24.1717 6.97992 24.1433 6.82712 24.1694C6.67432 24.1955 6.5499 24.2694 6.45386 24.3911L6.40878 24.4619C6.51835 24.415 6.60637 24.342 6.67282 24.243L6.60842 24.2687L6.5569 24.2752L6.44098 24.2494L6.29286 24.1915L6.18338 24.1206L6.15118 24.082L6.11898 24.0433C6.13586 24.075 6.15518 24.105 6.17694 24.1335L6.16406 24.1077C6.03968 23.8869 5.85077 23.7765 5.59733 23.7765C5.3439 23.7765 5.15499 23.8869 5.03061 24.1077ZM6.4603 24.7067C6.4603 24.8383 6.50683 24.9506 6.59988 25.0436C6.69294 25.1367 6.80526 25.1832 6.93686 25.1832C7.06846 25.1832 7.18079 25.1367 7.27384 25.0436C7.3669 24.9506 7.41343 24.8383 7.41343 24.7067C7.41343 24.5751 7.3669 24.4627 7.27384 24.3697C7.18079 24.2766 7.06846 24.2301 6.93686 24.2301C6.80526 24.2301 6.69294 24.2766 6.59988 24.3697C6.50683 24.4627 6.4603 24.5751 6.4603 24.7067ZM6.80162 24.4619L6.74366 24.4813C6.57622 24.5371 6.52041 24.6487 6.57622 24.8161C6.63203 24.9836 6.74366 25.0394 6.9111 24.9836L6.96906 24.9643C7.1365 24.9085 7.19232 24.7968 7.1365 24.6294C7.08069 24.4619 6.96906 24.4061 6.80162 24.4619Z" fill="black"/>
<path d="M9.5966 23.4767C9.5966 23.5709 9.62992 23.6514 9.69657 23.718C9.76321 23.7847 9.84366 23.818 9.93792 23.818C10.0322 23.818 10.1126 23.7847 10.1793 23.718C10.2459 23.6514 10.2792 23.5709 10.2792 23.4767C10.2792 23.3824 10.2459 23.302 10.1793 23.2353C10.1126 23.1687 10.0322 23.1354 9.93792 23.1354C9.84366 23.1354 9.76321 23.1687 9.69657 23.2353C9.62992 23.302 9.5966 23.3824 9.5966 23.4767ZM9.75116 23.1225L9.62236 23.1676C9.58262 23.1835 9.54612 23.205 9.51287 23.232L9.28103 23.4123C9.25997 23.4299 9.24065 23.4492 9.22307 23.4703L8.88175 23.8502C8.87512 23.8565 8.86868 23.8629 8.86243 23.8695L8.42451 24.4105C8.42449 24.4126 8.42449 24.4148 8.42451 24.4169L7.96726 24.9965C7.95802 25.009 7.94944 25.0219 7.9415 25.0352L7.60662 25.5633L7.34902 25.9497C7.34685 25.9518 7.3447 25.9539 7.34258 25.9561L7.20734 26.1751C7.15157 26.2676 7.13654 26.3664 7.16226 26.4713L7.1687 26.5035C7.26639 26.7203 7.42783 26.7905 7.65302 26.7141C7.8782 26.6378 7.96363 26.4838 7.9093 26.2524L7.88998 26.2202C7.81023 26.3114 7.7952 26.4123 7.8449 26.5228L7.94794 26.4069C8.05823 26.2663 8.04627 26.1371 7.91206 26.0192C7.77785 25.9012 7.64813 25.906 7.5229 26.0334L7.41986 26.1493C7.55293 26.2204 7.66885 26.199 7.76762 26.0849L7.73542 26.0656C7.75553 26.1928 7.82208 26.2872 7.93506 26.349L7.92862 26.3168C7.87367 26.4016 7.85435 26.4939 7.87066 26.5937L7.99946 26.394L8.26351 26.0463L8.66923 25.5826C8.67369 25.5763 8.67798 25.5698 8.68211 25.5633L9.14579 24.9901L9.57728 24.4556L9.90572 24.0756C9.90789 24.0735 9.91003 24.0713 9.91216 24.0692L10.086 23.8631L10.1633 23.7987C10.3193 23.6483 10.3409 23.4805 10.2281 23.2955C10.1153 23.1104 9.95635 23.0528 9.75116 23.1225Z" fill="black"/>
<path d="M10.7558 23.979L10.7751 23.9597C10.7981 23.9343 10.8174 23.9064 10.8331 23.8759L10.8717 23.7987C10.8718 23.7965 10.8718 23.7944 10.8717 23.7922L10.9168 23.7085L10.9812 23.6248C10.9857 23.6185 10.99 23.612 10.9941 23.6055L11.0392 23.5346C11.1208 23.4083 11.1386 23.2735 11.0927 23.1303C11.0467 22.9871 10.9537 22.8879 10.8138 22.8327L10.7494 22.8069C10.57 22.7354 10.4026 22.7569 10.2471 22.8713L10.0281 23.0323C9.99493 23.0568 9.96487 23.0848 9.93794 23.116L9.61594 23.4895C9.60695 23.5 9.59837 23.5107 9.59018 23.5217L9.20377 24.0434C9.19709 24.0518 9.19065 24.0604 9.18445 24.0691L8.80449 24.6552C8.78984 24.6778 8.77696 24.7015 8.76585 24.726L8.49537 25.3121C8.48477 25.335 8.47618 25.3586 8.46961 25.3829L8.34725 25.8466L8.1476 26.1428C8.04886 26.2931 8.07462 26.4176 8.22489 26.5164C8.37515 26.6151 8.49966 26.5894 8.59841 26.4391L8.79161 26.1364L9.16513 25.8466C9.18596 25.8311 9.20528 25.8139 9.22309 25.7951L9.65458 25.3121C9.66591 25.2997 9.67664 25.2868 9.68678 25.2734L10.1054 24.7132L10.4853 24.1979L10.7816 23.8244L10.9233 23.657L10.9426 23.6377C10.876 23.4952 10.7658 23.4073 10.6121 23.3739C10.4585 23.3405 10.3217 23.3747 10.202 23.4767L10.2342 23.5539C10.2505 23.4647 10.2398 23.3788 10.202 23.2963L10.1827 23.3865L10.1569 23.4573L10.1311 23.5217C10.1162 23.5525 10.1055 23.5847 10.0989 23.6183L10.0925 23.6505C10.0604 23.8395 10.1303 23.9765 10.302 24.0615C10.4737 24.1465 10.625 24.119 10.7558 23.979Z" fill="black"/>
<path d="M6.89822 26.2201C6.89827 26.3179 6.93287 26.4014 7.00202 26.4705C7.07118 26.5396 7.15464 26.5742 7.25242 26.5742C7.3502 26.5742 7.43366 26.5396 7.50282 26.4705C7.57197 26.4014 7.60657 26.3179 7.60662 26.2201C7.60657 26.1224 7.57197 26.0389 7.50282 25.9698C7.43366 25.9007 7.3502 25.8661 7.25242 25.8661C7.15464 25.8661 7.07118 25.9007 7.00202 25.9698C6.93287 26.0389 6.89827 26.1224 6.89822 26.2201ZM7.4907 25.9046L7.45206 25.8788C7.43986 25.8673 7.42698 25.8565 7.41342 25.8466L7.37478 25.8209C7.35427 25.8082 7.3328 25.7975 7.31038 25.7887L7.2653 25.7693C7.25264 25.7644 7.23976 25.7601 7.22666 25.7565L7.18158 25.7436C7.10215 25.7192 7.02273 25.7192 6.9433 25.7436L6.90466 25.7565C6.8522 25.7726 6.80498 25.7984 6.76298 25.8337L6.7179 25.8724C6.69627 25.8918 6.67695 25.9132 6.65994 25.9368L6.61486 25.9947C6.60792 26.0052 6.60148 26.0159 6.59554 26.0269L6.5569 26.0913C6.53858 26.1175 6.52355 26.1454 6.51181 26.1751L6.49249 26.233C6.46588 26.3196 6.46803 26.4055 6.49893 26.4906L6.51181 26.5293C6.55327 26.6521 6.63484 26.7358 6.75654 26.7804L6.78874 26.7933C6.86962 26.8217 6.95119 26.8239 7.03346 26.7997L7.09786 26.7804C7.12696 26.7728 7.15487 26.7621 7.18158 26.7482L7.25242 26.7096C7.26818 26.6999 7.28321 26.6891 7.2975 26.6774L7.37478 26.6194C7.39075 26.6076 7.40578 26.5948 7.41986 26.5808L7.4907 26.5164C7.51539 26.4933 7.53685 26.4675 7.5551 26.4391L7.60018 26.3618C7.65322 26.2739 7.67039 26.1794 7.6517 26.0785L7.63882 26.0076C7.61229 25.8773 7.5393 25.7828 7.41986 25.7243L7.34902 25.6856C7.28633 25.6535 7.21978 25.6385 7.14938 25.6405L7.01414 25.647C6.95288 25.6493 6.89492 25.6643 6.84026 25.6921L6.71146 25.7629C6.65637 25.7892 6.60914 25.8257 6.56978 25.8724L6.47317 25.9947C6.42664 26.0559 6.39874 26.1246 6.38945 26.2008L6.37013 26.3554C6.36106 26.4116 6.36321 26.4674 6.37657 26.5228L6.42809 26.7031C6.43766 26.7439 6.45269 26.7826 6.47317 26.8191L6.58266 27.0058C6.61711 27.0649 6.66219 27.1143 6.7179 27.1539L6.93042 27.3021C6.97016 27.3299 7.01309 27.3514 7.05922 27.3665L7.3297 27.4566C7.36756 27.4677 7.4062 27.4742 7.44562 27.476L7.70322 27.5017C7.76451 27.5063 7.82462 27.4999 7.88354 27.4824L8.08963 27.4244C8.18895 27.3983 8.27267 27.3467 8.34079 27.2699L8.45027 27.1411C8.52524 27.054 8.56602 26.9531 8.57263 26.8384L8.58551 26.6516C8.59035 26.5833 8.58177 26.5168 8.55975 26.452L8.48247 26.233C8.46763 26.1942 8.4483 26.1577 8.42451 26.1235L8.28283 25.911C8.259 25.8753 8.23109 25.8431 8.19911 25.8144L7.98659 25.6212C7.95711 25.5939 7.92491 25.5703 7.88998 25.5504L7.61306 25.3958C7.55842 25.3665 7.50046 25.3472 7.43918 25.3379L7.11074 25.2799C7.04849 25.2694 6.98623 25.2694 6.92398 25.2799L6.60198 25.3314C6.53327 25.3433 6.46887 25.3669 6.40877 25.4023L6.17693 25.5311C6.09206 25.5782 6.02336 25.6426 5.97085 25.7243L5.84205 25.9239C5.77365 26.0298 5.74145 26.1457 5.74545 26.2717L5.75833 26.5421C5.7606 26.6501 5.7885 26.751 5.84205 26.8448L6.02237 27.1539C6.0543 27.2067 6.09294 27.2539 6.13829 27.2956L6.44097 27.5854C6.47656 27.6176 6.5152 27.6455 6.5569 27.6692L6.92398 27.8946C6.96484 27.9185 7.00778 27.9378 7.05278 27.9525L7.41986 28.0749C7.4701 28.0918 7.52162 28.1025 7.57442 28.1071L7.89642 28.1393C7.96796 28.1465 8.0388 28.1422 8.10895 28.1264L8.34723 28.0684C8.42377 28.0488 8.49461 28.0166 8.55975 27.9718L8.71431 27.8688C8.80301 27.8105 8.87385 27.7354 8.92683 27.6434L8.99767 27.521C9.07223 27.3882 9.09799 27.2465 9.07495 27.096L9.05563 26.9607C9.04585 26.8884 9.02438 26.8197 8.99123 26.7547L8.91395 26.6065C8.89581 26.5701 8.87434 26.5358 8.84955 26.5035L8.70143 26.3167C8.6782 26.2865 8.65244 26.2586 8.62415 26.233L8.39875 26.0334C8.37654 26.0123 8.35293 25.993 8.32791 25.9754L8.04455 25.7887C8.01384 25.7687 7.98164 25.7515 7.94795 25.7371L7.63238 25.6019C7.59107 25.5822 7.54813 25.5672 7.50358 25.5568L7.2009 25.4989C7.09247 25.4757 6.98513 25.48 6.8789 25.5117L6.64062 25.589C6.47885 25.6376 6.35434 25.7342 6.26709 25.8788L6.15761 26.0656C6.07435 26.2083 6.04859 26.3607 6.08033 26.5228L6.12541 26.7804C6.14425 26.8771 6.18289 26.9651 6.24133 27.0445L6.43453 27.315C6.48206 27.3816 6.54002 27.4374 6.60842 27.4824L6.9433 27.6949C7.0316 27.752 7.1282 27.7842 7.2331 27.7915L7.59374 27.8237C7.61736 27.8256 7.64097 27.8256 7.66458 27.8237L7.9093 27.8044L8.10251 27.8624C8.27853 27.9182 8.39446 27.8581 8.45027 27.682C8.50608 27.506 8.44598 27.3901 8.26995 27.3343L8.10251 27.2828L7.98015 27.1217L7.7805 26.8384C7.76296 26.8133 7.74364 26.7897 7.72254 26.7675L7.47782 26.5099L7.3941 26.3876L7.36834 26.2652C7.28336 26.4099 7.2576 26.5645 7.29106 26.7289L7.40054 26.5421C7.24657 26.5949 7.12851 26.6915 7.04634 26.8319L7.14938 26.7997L7.22022 26.8062L7.40054 26.877L7.60018 27.0058L7.74186 27.1346L7.78694 27.1926L7.80626 27.2505C7.82008 27.152 7.81149 27.0554 7.7805 26.9607V26.9672L7.77406 26.9736C7.85641 26.9176 7.92296 26.8468 7.97371 26.7611L7.91575 26.7997L7.89642 26.8062L7.76118 26.7933L7.53578 26.7225L7.27818 26.5743L7.07854 26.394L6.98194 26.2459L6.98838 26.2781L6.93042 26.4262L6.92398 26.4327L7.06566 26.4005L7.2331 26.4069L7.37478 26.4649L7.47782 26.5421L7.54222 26.6387L7.56154 26.6903L7.56798 26.6065L7.6517 26.5035L7.66458 26.4971H7.5551L7.40698 26.452L7.27174 26.3683L7.21378 26.3232L7.22666 26.3425L7.21378 26.4262L7.18802 26.4649H7.17514L7.22666 26.4584C7.16119 26.4375 7.09464 26.4332 7.02702 26.4455L7.11074 26.4713C7.07887 26.3183 6.98871 26.2174 6.84026 26.1686L6.85314 26.233C6.90387 26.1442 6.9189 26.0498 6.89822 25.9497L6.8789 25.9819L6.87246 25.9947L6.84026 26.0141L6.82738 26.0205L6.80162 26.0269C6.8957 26.0711 6.9923 26.0775 7.09142 26.0463L7.05922 26.0334C7.09606 26.1431 7.1669 26.2226 7.27174 26.2717L7.25886 26.233C7.23011 26.3189 7.23011 26.4048 7.25886 26.4906L7.2653 26.4713L7.27174 26.4649L7.29106 26.452C7.24146 26.467 7.19638 26.4906 7.15582 26.5228L7.19446 26.5099C7.1159 26.4912 7.03862 26.4955 6.96262 26.5228H6.9755L6.98194 26.5293L7.01414 26.5421L7.05278 26.5615C7.14348 26.6219 7.24227 26.6415 7.34916 26.6201C7.45604 26.5987 7.53972 26.5427 7.60018 26.452C7.66065 26.3613 7.68019 26.2625 7.65881 26.1556C7.63744 26.0487 7.5814 25.965 7.4907 25.9046Z" fill="black"/>
<path d="M7.58097 26.3876L7.57453 26.3811C7.50347 26.3296 7.42404 26.3038 7.33625 26.3039H7.29117C7.25164 26.305 7.213 26.3114 7.17525 26.3232L7.07221 26.3489C6.99906 26.37 6.93466 26.4065 6.87901 26.4584L6.71801 26.6065C6.69712 26.6243 6.6778 26.6436 6.66004 26.6645L6.42176 26.9672C6.40764 26.9857 6.39476 27.005 6.38312 27.0251L6.05468 27.5532C6.05242 27.5596 6.05027 27.5661 6.04824 27.5726L5.6232 28.3003C5.62318 28.3024 5.62318 28.3046 5.6232 28.3067L5.13375 29.1697L4.60567 30.0906L4.08403 30.9922C4.08186 30.9943 4.07972 30.9965 4.07759 30.9987L3.62678 31.7908L3.26614 32.4348C3.26394 32.4391 3.26179 32.4433 3.2597 32.4477L3.02142 32.9049C3.01925 32.907 3.01711 32.9092 3.01498 32.9114L2.89262 33.1561C2.87352 33.1909 2.8585 33.2274 2.84754 33.2656L2.8411 33.2913C2.778 33.5795 2.88213 33.7815 3.15349 33.8973C3.42484 34.0131 3.64271 33.9485 3.8071 33.7035L3.92302 33.5167C3.92746 33.5104 3.93175 33.5039 3.9359 33.4974L4.15487 33.111C4.15707 33.1067 4.15922 33.1024 4.16131 33.0981L4.46399 32.5185L4.83107 31.8165L5.23035 31.0502L5.67472 30.2838L6.11264 29.5432L6.51192 28.8928L6.89189 28.3647L7.19457 27.9396C7.19459 27.9375 7.19459 27.9353 7.19457 27.9332L7.41353 27.6305C7.4157 27.6284 7.41785 27.6262 7.41997 27.6241L7.54877 27.4309C7.41192 27.4383 7.30458 27.4984 7.22677 27.6112H7.28473C7.5528 27.5115 7.65681 27.3219 7.59676 27.0423C7.5367 26.7626 7.364 26.6324 7.07865 26.6516L7.00137 26.6838C6.89087 26.7267 6.80286 26.7976 6.73733 26.8963L6.53124 27.2055C6.522 27.2201 6.51341 27.2351 6.50548 27.2506L6.18992 27.8237C6.18532 27.8343 6.18102 27.8451 6.17704 27.8559L5.79064 28.6674C5.78838 28.6738 5.78623 28.6802 5.7842 28.6867L5.38492 29.5754C5.38266 29.5818 5.38051 29.5883 5.37848 29.5947L5.02427 30.4835L4.67651 31.2691L4.32875 31.9067L4.02607 32.3768L3.80066 32.7053L3.69762 32.847C3.61973 32.9601 3.59157 33.0844 3.61315 33.2201C3.63472 33.3557 3.70009 33.4652 3.80923 33.5486C3.91838 33.6319 4.04122 33.6662 4.17776 33.6513C4.31429 33.6364 4.42687 33.5765 4.51551 33.4716L4.56703 33.4072C4.57364 33.401 4.58008 33.3945 4.58635 33.3879L4.77955 33.1174C4.78172 33.1153 4.78386 33.1132 4.78599 33.111L5.12731 32.6344C5.12952 32.6302 5.13167 32.6259 5.13375 32.6216L5.56524 31.9775C5.56525 31.9754 5.56525 31.9733 5.56524 31.9711L6.0418 31.2434L6.51836 30.5092C6.52273 30.505 6.52703 30.5007 6.53124 30.4963L6.94341 29.8072C6.94785 29.8009 6.95214 29.7945 6.95629 29.7879L7.28473 29.1954C7.28927 29.187 7.29356 29.1784 7.29761 29.1697L7.53589 28.6867C7.54308 28.672 7.54952 28.6569 7.55521 28.6416L7.69045 28.2681C7.69817 28.2492 7.70461 28.2299 7.70977 28.2101L7.76773 27.959C7.80349 27.8005 7.76056 27.6674 7.63893 27.5597L7.60029 27.5339C7.56978 27.6439 7.59768 27.7362 7.68401 27.8108L7.70333 27.7464C7.7331 27.5872 7.67039 27.4842 7.51518 27.4377C7.35997 27.3911 7.25095 27.4425 7.18813 27.5919L7.16881 27.6563C7.31606 27.6693 7.41051 27.6049 7.45217 27.4631H7.40709C7.25486 27.4486 7.1325 27.5023 7.04001 27.6241L6.88545 27.8366C6.87602 27.8511 6.86743 27.8662 6.85969 27.8817L6.66004 28.223C6.65784 28.2273 6.65569 28.2316 6.6536 28.2359L6.40888 28.7124L6.074 29.2856L5.66184 29.9618L5.19171 30.6895L4.72159 31.4108L4.29011 32.0484L3.95522 32.5121L3.76202 32.7697L3.71694 32.8276C3.64501 32.9423 3.62185 33.066 3.64746 33.1989C3.67307 33.3318 3.74057 33.4381 3.84995 33.5178C3.95933 33.5975 4.08119 33.6292 4.21554 33.6129C4.34989 33.5966 4.46062 33.5366 4.54771 33.433L4.64431 33.2849L4.87615 32.9436C4.88299 32.9331 4.88943 32.9223 4.89547 32.9114L5.17883 32.4026C5.181 32.4005 5.18315 32.3983 5.18527 32.3961L5.55236 31.7264L5.9774 30.9471C5.97957 30.945 5.98171 30.9429 5.98384 30.9407L6.43464 30.0842C6.43915 30.0757 6.44344 30.0671 6.44752 30.0584L6.85969 29.1826L7.25253 28.384L7.55521 27.8108C7.55995 27.7981 7.56424 27.7852 7.56809 27.7722L7.72265 27.4309C7.76665 27.3295 7.77953 27.2243 7.76129 27.1153L7.74841 27.038C7.71729 26.9047 7.64357 26.8018 7.52725 26.7295C7.41093 26.6572 7.28609 26.6366 7.15271 26.6677C7.01933 26.6988 6.91649 26.7726 6.84418 26.8889C6.77188 27.0052 6.75128 27.1301 6.78241 27.2634L6.80173 27.3214C6.87474 27.2114 6.89191 27.0934 6.85325 26.9672L6.73089 27.1604L6.5248 27.4566L6.21568 27.8688L5.8164 28.3969L5.33984 29.028C5.33538 29.0343 5.33109 29.0408 5.32696 29.0473L4.84395 29.7686C4.83951 29.7749 4.83521 29.7814 4.83107 29.7879L4.36739 30.5543C4.36294 30.5606 4.35865 30.5671 4.35451 30.5736L3.9359 31.34L3.55594 32.0291L3.24682 32.5894L3.02142 32.9629L2.9055 33.1432C2.84827 33.4289 2.95398 33.6282 3.22263 33.741C3.49127 33.8538 3.70756 33.7898 3.8715 33.5489L3.87794 33.5232C3.85739 33.5642 3.84237 33.6071 3.83286 33.652L3.95522 33.4201L4.21927 32.9951C4.22143 32.9929 4.22358 32.9908 4.22571 32.9886L4.59923 32.3511L5.06291 31.5654C5.06293 31.5632 5.06293 31.5611 5.06291 31.5589L5.58456 30.6573C5.58672 30.6552 5.58887 30.6531 5.591 30.6509L6.11264 29.7235L6.60208 28.8606L7.02069 28.1264C7.0207 28.1243 7.0207 28.1221 7.02069 28.12L7.32337 27.5726C7.32557 27.5683 7.32772 27.564 7.32981 27.5597L7.50369 27.2248L7.60673 27.0509C7.60894 27.0466 7.61109 27.0424 7.61317 27.038L7.66469 26.9479L7.68401 26.9157C7.63909 26.9489 7.6026 26.9897 7.57453 27.038L7.58097 27.0316C7.68976 26.9518 7.74416 26.8445 7.74416 26.7096C7.74416 26.5747 7.68976 26.4674 7.58097 26.3876Z" fill="black"/>
<path d="M3.03424 33.0917L3.02136 33.0852C3.01513 33.0786 3.00869 33.0721 3.00204 33.0659L2.96984 33.0337C2.99086 33.0697 3.01662 33.1019 3.04712 33.1303L3.01492 33.0724L2.98272 33.0015C2.94543 32.9144 2.88961 32.8414 2.81528 32.7826L2.7058 32.6924C2.64043 32.6407 2.56744 32.6042 2.48683 32.5829L2.39023 32.5572C2.12293 32.4838 1.90182 32.5546 1.72691 32.7697L1.64319 32.8792C1.5429 33.0007 1.49138 33.1402 1.48863 33.2978V33.5425C1.48694 33.6433 1.50626 33.7399 1.54659 33.8323L1.68183 34.1285C1.70835 34.1892 1.7427 34.245 1.78487 34.296L2.02959 34.5858C2.06742 34.6319 2.11035 34.6727 2.15839 34.7081L2.49327 34.9464C2.54137 34.9806 2.59289 35.0085 2.64784 35.0301L3.02136 35.1783C3.08785 35.2033 3.15654 35.2184 3.22744 35.2233L3.59452 35.2555C3.6911 35.2635 3.78556 35.2528 3.87788 35.2233L4.16769 35.1267C4.28624 35.0901 4.38928 35.0279 4.47681 34.94L4.65069 34.7596C4.76889 34.637 4.83758 34.491 4.85677 34.3217L4.88897 34.0963C4.90597 33.958 4.88665 33.8249 4.83101 33.697L4.71509 33.4459C4.68547 33.378 4.64683 33.3158 4.59917 33.2591L4.36733 32.9822C4.33978 32.9496 4.30973 32.9196 4.27717 32.892L3.95516 32.6216C3.93656 32.6056 3.91724 32.5906 3.8972 32.5765L3.56232 32.3446C3.51985 32.3143 3.47477 32.2885 3.42708 32.2674L3.11152 32.1321C2.98571 32.078 2.85476 32.0587 2.71868 32.0741L2.45463 32.1063C2.255 32.1299 2.0897 32.2179 1.95875 32.3704L1.77843 32.5765C1.69245 32.6779 1.63664 32.7938 1.61099 32.9242L1.54659 33.2398C1.52282 33.3589 1.52711 33.477 1.55947 33.594L1.64963 33.9418C1.67301 34.0252 1.7095 34.1025 1.75911 34.1736L1.97807 34.4956C2.01506 34.5482 2.05799 34.5955 2.10687 34.6373L2.40311 34.8949C2.45375 34.941 2.50956 34.9797 2.57055 35.0108L2.899 35.1718C2.95463 35.1981 3.01259 35.2174 3.07288 35.2298L3.37556 35.2942C3.5082 35.3222 3.63915 35.3158 3.7684 35.2749L4.00669 35.204C4.13712 35.1628 4.24875 35.092 4.34157 34.9915L4.50901 34.8112C4.60265 34.7097 4.66491 34.5916 4.69577 34.457L4.75373 34.1929C4.78174 34.0775 4.78389 33.9616 4.76017 33.8452L4.68933 33.5167C4.66787 33.4245 4.63138 33.3386 4.57985 33.2591L4.38021 32.9436C4.34409 32.8844 4.30116 32.8308 4.25141 32.7826L3.96804 32.5121C3.9283 32.4756 3.88536 32.4434 3.83924 32.4155L3.53012 32.2223C3.47139 32.1865 3.40913 32.1586 3.34336 32.1386L3.06644 32.0548C2.94868 32.0166 2.82847 32.0058 2.7058 32.0226L2.49327 32.0548C2.26778 32.0863 2.08746 32.1936 1.95231 32.3768L1.83639 32.5378C1.73617 32.6785 1.6868 32.8352 1.68827 33.008V33.2656C1.68813 33.3632 1.7053 33.4576 1.73979 33.5489L1.85571 33.858C1.89023 33.9486 1.93961 34.0302 2.00383 34.1028L2.23567 34.3668C2.29291 34.4337 2.35946 34.4895 2.43531 34.5342L2.75088 34.7146C2.84518 34.7674 2.94607 34.7996 3.05356 34.8112L3.39488 34.8498C3.50884 34.8633 3.62047 34.8526 3.72976 34.8176L4.03889 34.7146C4.15349 34.6775 4.25438 34.6174 4.34157 34.5342L4.54765 34.3346C4.68475 34.2021 4.76417 34.0411 4.78593 33.8516L4.81813 33.6069C4.84114 33.3909 4.78532 33.1977 4.65069 33.0273L4.48969 32.8212C4.36551 32.6573 4.20236 32.5564 4.00024 32.5185L3.71688 32.4734C3.54612 32.4457 3.38537 32.4742 3.23463 32.5591C3.08388 32.644 2.97612 32.7667 2.91134 32.9271C2.84655 33.0875 2.83892 33.2506 2.88843 33.4164C2.93794 33.5822 3.03377 33.7144 3.17592 33.813L3.30472 33.9031L3.38844 34.0126C3.40964 33.7991 3.35383 33.608 3.221 33.4394L3.20168 33.6842C3.32989 33.5507 3.40288 33.3918 3.42064 33.2076L3.35624 33.272L3.40132 33.2591L3.35624 33.2334L3.30472 33.169L3.2854 33.1239V33.008C3.15639 33.1579 3.09199 33.3318 3.0922 33.5296L3.221 33.3815C3.00595 33.4026 2.82778 33.4949 2.68648 33.6584L2.72512 33.652L2.75088 33.6584L2.91188 33.7614L3.06644 33.9096L3.1566 34.0448L3.16948 34.0899L3.16304 34.2058C3.26839 34.0809 3.3285 33.9371 3.34336 33.7743L3.32404 33.8001L3.47216 33.7486L3.33048 33.6777L3.1888 33.5489L3.09864 33.4266L3.08576 33.375L3.07288 33.4394L3.11796 33.3879C2.92545 33.411 2.76445 33.4948 2.63495 33.6391L2.69936 33.6326L2.75088 33.652L2.9956 33.8194L3.23388 34.0255L3.36268 34.1736L3.35624 34.1607V34.1929C3.45984 34.0652 3.51565 33.9192 3.52368 33.755L3.49148 33.7936L3.52368 33.7808H3.42064L3.24032 33.7164L3.04712 33.5876L2.91188 33.433L2.85392 33.3235L2.84748 33.3042L2.85392 33.2784C2.66944 33.377 2.55996 33.5294 2.52547 33.7357L2.61563 33.6906C2.48625 33.672 2.36389 33.6935 2.24855 33.755L2.39023 33.7743C2.45285 33.7827 2.5151 33.7806 2.57699 33.7679L2.61563 33.7614H2.59631H2.60919C2.63032 33.7675 2.65179 33.7717 2.6736 33.7743L2.68648 33.7808C2.88078 33.8109 3.02223 33.7382 3.11082 33.5626C3.19941 33.3871 3.17389 33.2301 3.03424 33.0917ZM3.26608 32.8663L3.01492 32.892C2.84508 32.9405 2.76931 33.0525 2.78761 33.2282C2.8059 33.4039 2.90314 33.4979 3.07932 33.5103L3.33048 33.4845C3.50032 33.4361 3.57609 33.324 3.55779 33.1484C3.53949 32.9727 3.44226 32.8787 3.26608 32.8663Z" fill="black"/>
<path d="M7.73201 25.6697C7.73201 25.7658 7.76596 25.8477 7.83387 25.9157C7.90177 25.9836 7.98374 26.0175 8.07977 26.0175C8.17581 26.0175 8.25778 25.9836 8.32568 25.9157C8.39358 25.8477 8.42754 25.7658 8.42754 25.6697C8.42754 25.5737 8.39358 25.4917 8.32568 25.4238C8.25778 25.3559 8.17581 25.322 8.07977 25.322C7.98374 25.322 7.90177 25.3559 7.83387 25.4238C7.76596 25.4917 7.73201 25.5737 7.73201 25.6697ZM8.14418 25.3027H8.13774L8.08622 25.2833L7.95741 25.2318L7.79641 25.1352L7.59677 24.9807L7.35205 24.6973L7.03649 24.2658L6.7016 23.654L6.38604 22.849L6.122 21.8637L5.92236 20.814L5.81932 19.79L5.78068 18.8819V18.1349L5.79356 17.5939L5.81932 17.2397C5.82643 17.1348 5.79541 17.0427 5.72624 16.9635C5.65708 16.8843 5.57004 16.8411 5.46512 16.834C5.36019 16.8269 5.26812 16.8579 5.1889 16.9271C5.10967 16.9962 5.06651 17.0833 5.05939 17.1882L5.03363 17.5488C5.03361 17.551 5.03361 17.5531 5.03363 17.5553L5.00787 18.1091C5.0078 18.1134 5.0078 18.1177 5.00787 18.122L4.99499 18.8819C4.99483 18.8884 4.99483 18.8948 4.99499 18.9013L5.02075 19.8286C5.02073 19.8308 5.02073 19.8329 5.02075 19.8351L5.07227 20.8912C5.07202 20.8998 5.07202 20.9084 5.07227 20.917L5.18819 22.0182C5.1894 22.0355 5.19155 22.0527 5.19463 22.0698L5.42648 23.113C5.43006 23.1283 5.43435 23.1433 5.43936 23.1581L5.72916 24.0404C5.73716 24.0714 5.74789 24.1015 5.76136 24.1306L6.12844 24.8003C6.14158 24.8252 6.15661 24.8488 6.17352 24.8712L6.53416 25.3349C6.56518 25.3768 6.60167 25.4133 6.64364 25.4443L7.00429 25.7019C7.03064 25.7199 7.05855 25.7349 7.08801 25.747L7.38425 25.8758C7.3989 25.8831 7.41393 25.8896 7.42933 25.8952L7.66117 25.9724C7.66969 25.9749 7.67827 25.977 7.68693 25.9789L7.86081 26.0175C7.86293 26.0197 7.86508 26.0218 7.86725 26.024L7.96385 26.0433C8.01108 26.0522 8.05831 26.0522 8.10554 26.0433L8.14418 26.0368C8.34715 25.9986 8.44864 25.8763 8.44864 25.6697C8.44864 25.4632 8.34715 25.3409 8.14418 25.3027Z" fill="black"/>
<path d="M8.44698 24.5997C8.44698 24.7153 8.48785 24.814 8.56959 24.8957C8.65133 24.9775 8.74999 25.0183 8.86559 25.0183C8.98118 25.0183 9.07984 24.9775 9.16158 24.8957C9.24332 24.814 9.28419 24.7153 9.28419 24.5997C9.28419 24.4841 9.24332 24.3855 9.16158 24.3037C9.07984 24.222 8.98118 24.1811 8.86559 24.1811C8.74999 24.1811 8.65133 24.222 8.56959 24.3037C8.48785 24.3855 8.44698 24.4841 8.44698 24.5997ZM9.12963 24.9282L9.14251 24.9153L9.20691 24.8702L9.41299 24.735C9.43575 24.7194 9.45722 24.7022 9.47739 24.6834L9.86379 24.3292C9.8818 24.3152 9.89897 24.3001 9.91531 24.2842L10.5142 23.608C10.5209 23.5995 10.5273 23.5909 10.5336 23.5822L11.4223 22.4938L12.7103 20.974L14.3589 19.0226C14.359 19.0205 14.359 19.0184 14.3589 19.0162L16.291 16.6849L18.4355 14.096L20.6702 11.4105L22.8856 8.78941C22.8877 8.78728 22.8899 8.78513 22.892 8.78297L24.9593 6.27135C24.9659 6.26293 24.9724 6.25434 24.9786 6.24559L26.7432 3.86277L28.3016 2.066L29.4802 0.848831C29.5454 0.740282 29.5324 0.64212 29.4411 0.554347C29.3498 0.466574 29.2512 0.457401 29.1453 0.526829L27.9603 1.73756L26.2473 3.39909L24.0448 5.3955C24.029 5.40978 24.014 5.42481 23.9997 5.44058L21.8101 7.84272C21.8035 7.84904 21.7971 7.85548 21.7908 7.86204L19.5625 10.4767C19.5625 10.4788 19.5625 10.481 19.5625 10.4831L17.3149 13.1686L15.1704 15.7575L13.2384 18.0888C13.2362 18.091 13.2341 18.0931 13.2319 18.0953L11.6284 20.0853C11.6284 20.0874 11.6284 20.0895 11.6284 20.0917L10.3919 21.6566L9.50959 22.7579C9.50518 22.7642 9.50089 22.7707 9.49671 22.7772L8.95575 23.5049C8.94668 23.5175 8.93809 23.5304 8.92999 23.5436L8.64662 23.9879C8.632 24.0106 8.61912 24.0342 8.60798 24.0588L8.50494 24.297C8.49724 24.3159 8.4908 24.3353 8.48562 24.355L8.45986 24.4452C8.44819 24.4829 8.44175 24.5216 8.44054 24.5611V24.5868C8.43703 24.7665 8.5158 24.8963 8.67684 24.976C8.83789 25.0558 8.98882 25.0398 9.12963 24.9282Z" fill="black"/>
</g>
<defs>
<clipPath id="clip0_1_7414">
<rect width="30" height="36" fill="white"/>
</clipPath>
</defs>
</svg>
