<svg width="32" height="33" viewBox="0 0 32 33" fill="none" xmlns="http://www.w3.org/2000/svg">
<g clip-path="url(#clip0_1_7309)">
<path d="M1.32577 12.4913C1.32577 12.6052 1.36605 12.7024 1.44661 12.783C1.52718 12.8636 1.62442 12.9038 1.73835 12.9038C1.85228 12.9038 1.94953 12.8636 2.03009 12.783C2.11065 12.7024 2.15093 12.6052 2.15093 12.4913C2.15093 12.3773 2.11065 12.2801 2.03009 12.1995C1.94953 12.119 1.85228 12.0787 1.73835 12.0787C1.62442 12.0787 1.52718 12.119 1.44661 12.1995C1.36605 12.2801 1.32577 12.3773 1.32577 12.4913ZM1.23826 12.485C1.2383 12.6179 1.28532 12.7313 1.3793 12.8253C1.47328 12.9192 1.58671 12.9662 1.7196 12.9662C1.85248 12.9662 1.96592 12.9192 2.0599 12.8253C2.15388 12.7313 2.20089 12.6179 2.20094 12.485C2.20089 12.3521 2.15388 12.2387 2.0599 12.1448C1.96592 12.0508 1.85248 12.0038 1.7196 12.0038C1.58671 12.0038 1.47328 12.0508 1.3793 12.1448C1.28532 12.2387 1.2383 12.3521 1.23826 12.485ZM1.25701 12.0724L1.13199 12.1912C0.969949 12.3415 0.894935 12.5269 0.906943 12.7476L0.938199 13.3914C0.942609 13.4576 0.955111 13.5222 0.975707 13.5852L1.43829 15.048C1.44709 15.0777 1.45751 15.1069 1.46955 15.1355L2.63227 17.736C2.6439 17.7574 2.6564 17.7782 2.66978 17.7985L4.65766 21.393C4.66906 21.4165 4.68156 21.4394 4.69516 21.4617L7.43319 25.425C7.4392 25.4335 7.44545 25.4418 7.45194 25.45L10.2775 29.1319L12.4654 32.2138C12.562 32.2999 12.6632 32.3055 12.7687 32.2306C12.8743 32.1557 12.9024 32.0584 12.853 31.9387L10.6713 28.8569L8.35836 24.8561L6.09543 20.6178L4.20132 16.9921L3.01359 14.4604L2.48224 13.0789L2.28846 12.4913C2.28641 12.4871 2.28433 12.4829 2.28221 12.4788L2.22594 12.3162C2.1937 12.2205 2.14049 12.1383 2.0663 12.0697C1.99211 12.0011 1.90602 11.9545 1.80803 11.9298C1.71005 11.9052 1.61214 11.9055 1.51432 11.9308C1.4165 11.9561 1.33073 12.0033 1.25701 12.0724Z" fill="black"/>
<path d="M8.03959 4.35843C8.03959 4.46201 8.0762 4.55041 8.14944 4.62365C8.22268 4.69688 8.31108 4.7335 8.41466 4.7335C8.51823 4.7335 8.60663 4.69688 8.67987 4.62365C8.75311 4.55041 8.78973 4.46201 8.78973 4.35843C8.78973 4.25486 8.75311 4.16645 8.67987 4.09322C8.60663 4.01998 8.51823 3.98336 8.41466 3.98336C8.31108 3.98336 8.22268 4.01998 8.14944 4.09322C8.0762 4.16645 8.03959 4.25486 8.03959 4.35843ZM8.79598 4.25216L8.75222 4.06463C8.75054 4.05413 8.74846 4.04371 8.74597 4.03337L8.6272 3.66455L8.47717 3.19571L8.35215 2.70187C8.35221 2.6977 8.35221 2.69353 8.35215 2.68936L8.22712 2.23303C8.22515 2.22674 8.22307 2.22049 8.22087 2.21427L8.09585 1.8142L8.02708 1.48288L8.00833 1.20783L8.00208 1.02655C7.99522 0.666212 7.82021 0.430953 7.47707 0.320769C7.13393 0.210584 6.85468 0.299984 6.63932 0.588965L6.62682 0.607718C6.46892 0.816226 6.421 1.04752 6.48304 1.3016L6.62682 1.90797C6.63387 1.93545 6.64221 1.96254 6.65182 1.98923L7.17692 3.48952C7.1844 3.51275 7.19273 3.53567 7.20193 3.55828L8.51468 6.57135C8.52776 6.60331 8.54234 6.63457 8.55843 6.66512L10.9589 10.9659C10.9708 10.9851 10.9833 11.0039 10.9964 11.0222L14.2158 15.9981C14.2238 16.0109 14.2321 16.0234 14.2408 16.0357L17.8102 20.9116C17.8183 20.9201 17.8266 20.9285 17.8352 20.9366L21.1921 25.0561C21.2019 25.0691 21.2123 25.0816 21.2233 25.0936L24.1864 28.0942C24.1962 28.1053 24.2066 28.1157 24.2177 28.1255L26.5931 30.0383C26.6088 30.0504 26.6254 30.0608 26.6431 30.0696L28.456 31.0323C28.4777 31.0437 28.5007 31.0521 28.5247 31.0573L29.7687 31.3323C29.7872 31.337 29.8059 31.3391 29.825 31.3386L30.5564 31.2886C30.6935 31.2799 30.7579 31.207 30.7496 31.0698C30.7413 30.9326 30.6686 30.868 30.5314 30.876L29.8375 30.9197L28.6935 30.5447L26.9619 29.5507L24.699 27.5879L21.9735 24.4373L18.8979 20.1489L15.7098 15.0605L12.7592 9.96575L10.4463 5.64618L8.97726 2.74563L8.32089 1.32035C8.31493 1.30771 8.30868 1.2952 8.30214 1.28285L8.01458 0.726491C7.83058 0.375608 7.54302 0.231831 7.15192 0.295159H7.12691C7.00245 0.314566 6.88986 0.362099 6.78914 0.437758C6.68843 0.513417 6.61142 0.608313 6.55811 0.722448C6.50481 0.836582 6.48147 0.956546 6.4881 1.08234C6.49473 1.20813 6.53055 1.32498 6.59556 1.43288L6.67683 1.57665L6.8081 1.84545L6.98313 2.21427C6.98504 2.22265 6.98712 2.23099 6.98939 2.23928L7.19568 2.6331C7.20169 2.64161 7.20794 2.64995 7.21443 2.65811L7.44572 3.05818L7.67077 3.48952L7.8333 3.93335L7.96457 4.29592C7.96659 4.30012 7.96867 4.30429 7.97082 4.30842L8.03959 4.48346C8.13889 4.68986 8.29806 4.75957 8.5171 4.69259C8.73614 4.62562 8.8291 4.47881 8.79598 4.25216Z" fill="black"/>
<path d="M20.6046 5.79623C20.6046 5.89807 20.6406 5.98501 20.7126 6.05702C20.7846 6.12904 20.8715 6.16505 20.9734 6.16505C21.0752 6.16505 21.1622 6.12904 21.2342 6.05702C21.3062 5.98501 21.3422 5.89807 21.3422 5.79623C21.3422 5.69438 21.3062 5.60745 21.2342 5.53543C21.1622 5.46342 21.0752 5.42741 20.9734 5.42741C20.8715 5.42741 20.7846 5.46342 20.7126 5.53543C20.6406 5.60745 20.6046 5.69438 20.6046 5.79623ZM20.492 5.78372C20.492 5.90456 20.5348 6.0077 20.6202 6.09314C20.7056 6.17859 20.8088 6.22131 20.9296 6.22131C21.0505 6.22131 21.1536 6.17859 21.239 6.09314C21.3245 6.0077 21.3672 5.90456 21.3672 5.78372C21.3672 5.66289 21.3245 5.55975 21.239 5.47431C21.1536 5.38886 21.0505 5.34614 20.9296 5.34614C20.8088 5.34614 20.7056 5.38886 20.6202 5.47431C20.5348 5.55975 20.492 5.66289 20.492 5.78372ZM20.6733 5.29613L20.5796 5.33364C20.4212 5.39168 20.2977 5.49244 20.209 5.63592C20.1204 5.7794 20.0855 5.93494 20.1045 6.10254L20.1857 6.85268C20.193 6.93659 20.2117 7.01786 20.242 7.09647L20.8734 8.64052C20.8892 8.68349 20.908 8.72516 20.9296 8.76554L22.2549 11.0472C22.2723 11.0752 22.291 11.1023 22.3111 11.1285L24.2427 13.8103C24.2659 13.841 24.291 13.8701 24.3178 13.8978L26.6307 16.4045C26.6522 16.4269 26.6751 16.4478 26.6995 16.467L29.0249 18.3736L30.6877 20.0052C30.7955 20.0912 30.8981 20.0855 30.9956 19.988C31.0931 19.8905 31.0988 19.7879 31.0128 19.6801L29.3625 18.0486L27.6809 15.5731L25.7743 12.7476L23.9739 10.0095L22.6549 7.7716L21.8548 6.32758C21.8528 6.31921 21.8507 6.31088 21.8485 6.30257L21.461 5.65245C21.4112 5.56635 21.3467 5.49342 21.2672 5.43366L21.1797 5.37115C21.0244 5.25477 20.8556 5.22977 20.6733 5.29613Z" fill="black"/>
<path d="M1.41357 13.5107C1.41357 13.6246 1.45385 13.7219 1.53442 13.8024C1.61498 13.883 1.71222 13.9233 1.82615 13.9233C1.94008 13.9233 2.03733 13.883 2.11789 13.8024C2.19845 13.7219 2.23873 13.6246 2.23873 13.5107C2.23873 13.3968 2.19845 13.2995 2.11789 13.2189C2.03733 13.1384 1.94008 13.0981 1.82615 13.0981C1.71222 13.0981 1.61498 13.1384 1.53442 13.2189C1.45385 13.2995 1.41357 13.3968 1.41357 13.5107ZM1.36356 13.5044C1.36361 13.6304 1.40818 13.7379 1.49728 13.827C1.58638 13.9161 1.69392 13.9606 1.8199 13.9606C1.94588 13.9606 2.05343 13.9161 2.14252 13.827C2.23162 13.7379 2.27619 13.6304 2.27624 13.5044C2.27619 13.3784 2.23162 13.2709 2.14252 13.1819C2.05343 13.0928 1.94588 13.0483 1.8199 13.0483C1.69392 13.0483 1.58638 13.0928 1.49728 13.1819C1.40818 13.2709 1.36361 13.3784 1.36356 13.5044ZM2.26999 13.2106L2.25748 13.1856C2.21821 13.1215 2.1682 13.0674 2.10746 13.0231L2.05745 12.9856C2.08543 13.0183 2.11668 13.0474 2.15121 13.0731L2.11996 13.0356L2.08245 12.9793C2.09653 13.0583 2.1257 13.1312 2.16997 13.1981L2.15121 13.1044C2.14151 13.05 2.12484 12.9979 2.1012 12.9481L2.0887 12.9168C2.02063 12.7766 1.91529 12.6749 1.77267 12.6119C1.63006 12.549 1.48399 12.5395 1.33446 12.5837C1.18494 12.6279 1.06742 12.7151 0.981909 12.8455C0.896397 12.9758 0.863168 13.1184 0.882223 13.2731L0.900976 13.3919C0.905723 13.4173 0.911974 13.4423 0.91973 13.4669L1.0135 13.8232C1.01554 13.8274 1.01762 13.8316 1.01975 13.8357L1.20728 14.4734C1.20935 14.4755 1.21144 14.4775 1.21354 14.4796L1.50109 15.411L1.85741 16.5175C1.85945 16.5217 1.86153 16.5259 1.86366 16.53L2.22623 17.599C2.22622 17.601 2.22622 17.6031 2.22623 17.6052L2.53879 18.4866C2.53878 18.4887 2.53878 18.4908 2.53879 18.4929L2.77008 19.118C2.77007 19.1201 2.77007 19.1222 2.77008 19.1242L2.90136 19.4868C2.9149 19.5237 2.93157 19.5591 2.95137 19.5931L2.98887 19.6556C3.07414 19.7974 3.19516 19.8947 3.35195 19.9475C3.50874 20.0003 3.66396 19.996 3.81762 19.9347C3.97128 19.8734 4.0868 19.7696 4.16418 19.6234C4.24155 19.4772 4.26236 19.3233 4.22661 19.1618L4.1641 18.9117C4.16211 18.9054 4.16002 18.8992 4.15785 18.893L4.00782 18.3366L3.78903 17.5552C3.78696 17.5531 3.78487 17.551 3.78277 17.5489L3.50772 16.605C3.50773 16.6029 3.50773 16.6009 3.50772 16.5988L3.20141 15.6111C3.2015 15.6048 3.2015 15.5986 3.20141 15.5923L2.90136 14.6984L2.67631 13.9795C2.67632 13.9774 2.67632 13.9754 2.67631 13.9733L2.54504 13.5607C2.51858 13.4787 2.47899 13.4037 2.42627 13.3356L2.41376 13.3231C2.30548 13.1769 2.16277 13.0831 1.98561 13.0416C1.80846 13.0001 1.6389 13.0208 1.47694 13.1037C1.31498 13.1866 1.19904 13.312 1.12914 13.48C1.05923 13.648 1.05194 13.8187 1.10727 13.992L1.23229 14.3983C1.23228 14.4004 1.23228 14.4025 1.23229 14.4046L1.49484 15.2048L1.88866 16.43C1.89071 16.4342 1.89279 16.4383 1.89492 16.4425L2.43877 18.0178C2.44239 18.0346 2.44656 18.0513 2.45127 18.0678L3.1389 19.7056C3.14985 19.7334 3.16235 19.7605 3.17641 19.7869L3.95781 21.1996C3.97105 21.2234 3.98563 21.2463 4.00157 21.2684L4.76421 22.3124C4.77595 22.3276 4.78845 22.3422 4.80172 22.3561L5.40183 23.025C5.42952 23.0545 5.46078 23.0795 5.4956 23.1L5.91443 23.3626L6.10822 23.5063C6.2464 23.5924 6.36492 23.5707 6.4638 23.4414C6.56267 23.3121 6.5525 23.1921 6.43328 23.0813L6.28325 22.9625L6.11447 22.5687C6.11057 22.5602 6.10641 22.5518 6.10197 22.5437L5.70814 21.756L5.20179 20.5933L4.58293 19.1055L3.9203 17.4802L3.35769 15.9299L2.92636 14.7234L2.65756 13.942L2.53254 13.5482C2.247 13.4713 2.00254 13.5402 1.79917 13.7549C1.59581 13.9696 1.5402 14.2174 1.63237 14.4984H1.65112C1.55179 14.2968 1.39342 14.1676 1.17603 14.1108L1.35106 14.4796L1.62611 15.1422L1.93242 16.0174L2.24498 16.9926L2.53254 17.9115L2.73883 18.6679L2.8576 19.2055L2.91386 19.4556C3.00282 19.588 3.12353 19.6776 3.27601 19.7244C3.42848 19.7712 3.57868 19.7648 3.72662 19.7052C3.87456 19.6456 3.98722 19.546 4.0646 19.4065C4.14198 19.2671 4.16681 19.1188 4.13909 18.9617L4.03282 18.6679L3.81403 18.0428L3.51397 17.1614L3.15766 16.0987L2.79509 14.9922L2.48878 14.067L2.27624 13.4357C2.27425 13.4294 2.27216 13.4231 2.26999 13.4169L2.15121 13.0919L2.11996 12.9981C2.00982 12.9746 1.90109 12.9799 1.79377 13.014C1.68645 13.0481 1.59461 13.1066 1.51825 13.1893C1.4419 13.2721 1.39104 13.3684 1.36568 13.4781C1.34031 13.5878 1.34378 13.6966 1.37607 13.8045L1.40732 13.817C1.33111 13.7496 1.2436 13.7037 1.14477 13.6795L1.18853 13.7232L1.24479 13.7795L1.30105 13.842C1.34486 13.8878 1.39487 13.9253 1.45108 13.9545L1.50734 13.9858C1.66187 14.067 1.82023 14.0753 1.98243 14.0108L2.00744 13.9983C2.16354 13.9358 2.26817 13.8248 2.32134 13.6653C2.37451 13.5058 2.35739 13.3543 2.26999 13.2106Z" fill="black"/>
<path d="M3.66399 19.6806C3.66407 19.7876 3.70194 19.8789 3.7776 19.9545C3.85327 20.0301 3.94459 20.0679 4.05156 20.0679C4.15854 20.0679 4.24986 20.0301 4.32553 19.9545C4.40119 19.8789 4.43907 19.7876 4.43914 19.6806C4.43907 19.5736 4.40119 19.4823 4.32553 19.4067C4.24986 19.3311 4.15854 19.2933 4.05156 19.2933C3.94459 19.2933 3.85327 19.3311 3.7776 19.4067C3.70194 19.4823 3.66407 19.5736 3.66399 19.6806ZM3.63899 19.6806C3.63906 19.7927 3.67877 19.8885 3.7581 19.9677C3.83743 20.047 3.93316 20.0866 4.04531 20.0866C4.15746 20.0866 4.2532 20.047 4.33253 19.9677C4.41186 19.8885 4.45156 19.7927 4.45164 19.6806C4.45156 19.5684 4.41186 19.4727 4.33253 19.3935C4.2532 19.3142 4.15746 19.2745 4.04531 19.2745C3.93316 19.2745 3.83743 19.3142 3.7581 19.3935C3.67877 19.4727 3.63906 19.5684 3.63899 19.6806ZM3.56397 19.6681C3.56397 19.7958 3.60914 19.9049 3.69946 19.9952C3.78979 20.0855 3.89882 20.1307 4.02656 20.1307C4.1543 20.1307 4.26333 20.0855 4.35366 19.9952C4.44399 19.9049 4.48915 19.7958 4.48915 19.6681C4.48915 19.5404 4.44399 19.4313 4.35366 19.341C4.26333 19.2507 4.1543 19.2055 4.02656 19.2055C3.89882 19.2055 3.78979 19.2507 3.69946 19.341C3.60914 19.4313 3.56397 19.5404 3.56397 19.6681ZM3.42019 19.6681C3.42019 19.8286 3.47695 19.9657 3.59047 20.0792C3.70399 20.1927 3.84102 20.2495 4.00156 20.2495C4.16209 20.2495 4.29912 20.1927 4.41264 20.0792C4.52616 19.9657 4.58292 19.8286 4.58292 19.6681C4.58292 19.5076 4.52616 19.3705 4.41264 19.257C4.29912 19.1435 4.16209 19.0867 4.00156 19.0867C3.84102 19.0867 3.70399 19.1435 3.59047 19.257C3.47695 19.3705 3.42019 19.5076 3.42019 19.6681ZM3.30767 19.9494L3.40769 20.3932C3.42343 20.4673 3.44844 20.5382 3.48271 20.6058L3.93279 21.4747C3.9462 21.5004 3.96078 21.5254 3.97655 21.5497L4.77045 22.7624C4.77848 22.7751 4.78681 22.7876 4.79546 22.7999L5.79565 24.1877C5.80743 24.2069 5.81993 24.2257 5.83315 24.244L6.93962 25.5505C6.95704 25.5745 6.9758 25.5974 6.99588 25.6192L8.05858 26.6194L8.86498 27.3821L9.36508 27.8947C9.40135 27.9301 9.44303 27.9571 9.4901 27.9759L9.80891 28.1135L9.92143 28.1885C10.0608 28.2664 10.1724 28.2374 10.2562 28.1016C10.3401 27.9658 10.316 27.8531 10.184 27.7634L10.1152 27.7196L9.98395 27.4571C9.97025 27.4301 9.95358 27.4051 9.93394 27.3821L9.48385 26.8445L8.90874 25.938L8.20236 24.6815C8.1945 24.6667 8.18616 24.6521 8.17735 24.6378L7.25217 23.2C7.24805 23.1958 7.24388 23.1916 7.23967 23.1875L6.29574 21.7747L5.5331 20.5558C5.52694 20.5494 5.52069 20.5432 5.51434 20.537L4.97049 19.7244C4.9444 19.6844 4.91523 19.6469 4.88297 19.6118L4.57041 19.2805C4.31124 19.0129 4.01703 18.9662 3.68778 19.1406C3.35854 19.315 3.23184 19.5846 3.30767 19.9494Z" fill="black"/>
<path d="M5.94565 21.7623L5.92064 21.6748C5.91321 21.6445 5.90279 21.6153 5.88939 21.5872L5.81437 21.4247L5.73311 21.2622C5.69109 21.1727 5.63274 21.0956 5.55807 21.0309L5.47681 20.9621C5.23854 20.758 4.97307 20.7125 4.6804 20.8256C4.38773 20.9387 4.22187 21.1509 4.18281 21.4622L4.15781 21.6685C4.1386 21.8299 4.16361 21.9841 4.23282 22.1311L4.48287 22.6624C4.50272 22.7038 4.52564 22.7434 4.55163 22.7812L5.11424 23.6314C5.12234 23.642 5.13068 23.6524 5.13925 23.6626L5.9644 24.7941C5.96849 24.8004 5.97266 24.8067 5.9769 24.8129L6.95834 26.0943C6.96039 26.0985 6.96248 26.1027 6.96459 26.1069L7.96478 27.3633C7.97486 27.3761 7.98528 27.3886 7.99604 27.4008L8.92121 28.4448C8.93527 28.4599 8.94986 28.4745 8.96497 28.4886L9.73387 29.2449C9.74595 29.2579 9.75846 29.2704 9.77138 29.2825L10.3465 29.7763C10.3586 29.7871 10.3711 29.7976 10.384 29.8076L10.7528 30.0826C10.8107 30.1232 10.8732 30.1544 10.9403 30.1764L11.1404 30.2514C11.2947 30.3063 11.4487 30.3052 11.6022 30.248C11.7557 30.1908 11.8729 30.091 11.9538 29.9486C12.0347 29.8061 12.0603 29.6543 12.0306 29.4932C12.001 29.332 11.923 29.1993 11.7968 29.0949L11.6467 28.9761L11.3592 28.7011L10.8903 28.1697L10.2215 27.3508L9.3713 26.2569L8.38361 24.9941L7.40843 23.7251L6.59577 22.6062L6.02691 21.7935L5.73936 21.3434L5.66435 21.1997C5.50697 21.3128 5.4052 21.4634 5.35903 21.6516C5.31286 21.8399 5.33337 22.0205 5.42055 22.1936L5.50807 22.1311C5.3981 22.1489 5.29808 22.1906 5.20801 22.2561L5.33303 22.2374L5.46431 22.2436C5.46847 22.2437 5.47264 22.2437 5.47681 22.2436H5.56433C5.69143 22.2453 5.79446 22.1964 5.87339 22.0967C5.95233 21.9971 5.97642 21.8856 5.94565 21.7623ZM11.6655 29.0387L11.478 28.9386L11.1091 28.7011C11.1071 28.699 11.105 28.6969 11.1029 28.6948L10.6153 28.3885L10.209 27.9822C10.0881 27.8614 9.96725 27.8614 9.84639 27.9822C9.72553 28.1031 9.72553 28.2239 9.84639 28.3448L10.2465 28.7449L10.5403 29.2449L10.7466 29.5888L10.8028 29.7638C10.8345 29.8592 10.8866 29.9416 10.9593 30.011C11.0319 30.0804 11.1166 30.1288 11.2133 30.1562C11.31 30.1835 11.4075 30.1866 11.5057 30.1655C11.6039 30.1444 11.6915 30.1015 11.7685 30.0369C11.8454 29.9722 11.9027 29.8933 11.9404 29.8001C11.9781 29.707 11.9918 29.6104 11.9815 29.5105C11.9711 29.4105 11.938 29.3188 11.8821 29.2353C11.8262 29.1518 11.754 29.0863 11.6655 29.0387Z" fill="black"/>
<path d="M7.82108 25.5067L7.77107 25.4255C7.75578 25.4074 7.73911 25.3908 7.72106 25.3755L7.61479 25.2567L7.49602 25.1254C7.45277 25.3011 7.49027 25.4574 7.60854 25.5943L7.62105 25.5505C7.64677 25.4484 7.64808 25.3459 7.62497 25.2432C7.60185 25.1405 7.55681 25.0484 7.48983 24.9672C7.42284 24.8859 7.34113 24.8241 7.24469 24.7818C7.14825 24.7395 7.04745 24.7212 6.94229 24.727C6.83714 24.7327 6.73893 24.7619 6.64768 24.8145C6.55643 24.8671 6.48195 24.9374 6.42424 25.0255C6.36652 25.1136 6.33178 25.21 6.32002 25.3146C6.30825 25.4193 6.32073 25.5209 6.35745 25.6196C6.39417 25.7184 6.45117 25.8035 6.52847 25.875C6.60577 25.9465 6.69505 25.9968 6.79631 26.0257C6.89756 26.0547 6.9999 26.0592 7.10333 26.0394C7.20676 26.0195 7.30015 25.9774 7.3835 25.9131L7.42726 25.8818C7.25145 25.8265 7.09101 25.8557 6.94592 25.9693L7.12095 26.0256L7.28348 26.0756C7.29374 26.0802 7.30416 26.0843 7.31474 26.0881L7.40225 26.1069C7.57563 26.1476 7.71327 26.0949 7.81519 25.9488C7.91711 25.8028 7.91908 25.6554 7.82108 25.5067ZM6.35205 25.9006L6.6146 26.3069C6.63178 26.3351 6.65053 26.3622 6.67086 26.3882L7.25848 27.1008C7.26458 27.1092 7.27083 27.1176 7.27723 27.1258L8.08363 28.0447C8.0918 28.0532 8.10014 28.0616 8.10864 28.0697L9.04632 29.0574C9.05242 29.0659 9.05867 29.0742 9.06507 29.0824L9.95274 29.9388C9.95686 29.9431 9.96103 29.9472 9.96524 29.9513L10.6716 30.6077L11.1342 31.0578C11.1383 31.062 11.1425 31.0662 11.1467 31.0703L11.3968 31.2953C11.5794 31.4626 11.792 31.5209 12.0344 31.4704L12.0781 31.4641C12.367 31.4024 12.5419 31.2271 12.6026 30.938C12.6634 30.6489 12.574 30.418 12.3344 30.2451L12.2469 30.1826L12.0719 30.0201C12.0698 30.018 12.0677 30.0159 12.0656 30.0139L11.8406 29.8138C11.8137 29.7881 11.7845 29.7651 11.7531 29.7451L11.5218 29.6138C11.4787 29.5882 11.4329 29.5695 11.3843 29.5575L11.203 29.5138C11.0491 29.4771 10.9184 29.5167 10.8108 29.6327C10.7032 29.7486 10.6735 29.8819 10.7216 30.0326L10.7841 30.2139C10.7962 30.2534 10.8129 30.2909 10.8342 30.3264L10.9779 30.5452C10.9875 30.5624 10.9979 30.5791 11.0092 30.5952L11.178 30.8078L11.2655 30.939L11.278 30.9828C11.3265 31.1648 11.4321 31.303 11.595 31.3974C11.7579 31.4919 11.9304 31.515 12.1124 31.4667C12.2944 31.4184 12.4327 31.3128 12.5273 31.15C12.6219 30.9872 12.6451 30.8148 12.597 30.6327L12.5845 30.589C12.5512 30.4584 12.4866 30.3459 12.3907 30.2514L12.1594 30.0264L11.7343 29.57L11.1092 28.8511L10.3028 27.9135C10.3007 27.9114 10.2986 27.9093 10.2966 27.9072L9.39638 26.8883L8.58998 25.9756C8.58585 25.9714 8.58169 25.9672 8.57748 25.9631L7.95236 25.2755C7.94016 25.2647 7.92765 25.2543 7.91485 25.2442L7.57104 24.9066C7.42591 24.7716 7.25429 24.7009 7.05617 24.6944C6.85805 24.6879 6.68218 24.7473 6.52855 24.8726C6.37493 24.9978 6.28134 25.1582 6.2478 25.3535C6.21426 25.5489 6.24901 25.7312 6.35205 25.9006ZM11.153 29.6075L11.078 29.5513C10.9404 29.4471 10.8196 29.4637 10.7154 29.6013C10.6112 29.7388 10.6279 29.8597 10.7654 29.9638L10.8404 30.0201C10.9779 30.1241 11.0987 30.1074 11.2029 29.97C11.307 29.8326 11.2903 29.7117 11.153 29.6075Z" fill="black"/>
<path d="M10.1339 29.3325L10.1652 29.42C10.1864 29.4672 10.2155 29.5089 10.2527 29.545L10.4215 29.7138C10.4315 29.7226 10.4419 29.7309 10.4527 29.7388L10.7403 29.9826L11.1153 30.2951C11.1153 30.2972 11.1153 30.2993 11.1153 30.3014L11.5404 30.6577C11.5544 30.669 11.569 30.6794 11.5842 30.689L12.0218 30.964C12.0454 30.9793 12.0704 30.9918 12.0968 31.0015L12.4281 31.1266L12.6281 31.2953C12.7448 31.3912 12.8511 31.3808 12.9469 31.2641C13.0428 31.1474 13.0324 31.0411 12.9157 30.9453L12.7156 30.7827L12.5531 30.4764C12.5395 30.4494 12.5228 30.4244 12.5031 30.4014L12.1593 30.0201C12.1496 30.007 12.1391 29.9945 12.128 29.9826L11.7154 29.6138C11.7073 29.6072 11.699 29.601 11.6904 29.595L11.3029 29.2887C11.2967 29.2844 11.2905 29.2802 11.2841 29.2762L10.9778 29.0574C10.9717 29.0531 10.9654 29.0489 10.9591 29.0449L10.759 28.9136C10.7296 28.895 10.6984 28.8804 10.6652 28.8699L10.5777 28.8449C10.4299 28.7976 10.3038 28.8314 10.1993 28.9462C10.0948 29.0609 10.073 29.1897 10.1339 29.3325Z" fill="black"/>
<path d="M9.25886 28.501C9.25886 28.6046 9.29548 28.693 9.36872 28.7663C9.44195 28.8395 9.53036 28.8761 9.63393 28.8761C9.73751 28.8761 9.82591 28.8395 9.89915 28.7663C9.97239 28.693 10.009 28.6046 10.009 28.501C10.009 28.3975 9.97239 28.3091 9.89915 28.2358C9.82591 28.1626 9.73751 28.126 9.63393 28.126C9.53036 28.126 9.44195 28.1626 9.36872 28.2358C9.29548 28.3091 9.25886 28.3975 9.25886 28.501ZM9.19635 28.4885C9.19635 28.6025 9.23663 28.6997 9.31719 28.7803C9.39775 28.8608 9.495 28.9011 9.60893 28.9011C9.72286 28.9011 9.8201 28.8608 9.90067 28.7803C9.98123 28.6997 10.0215 28.6025 10.0215 28.4885C10.0215 28.3746 9.98123 28.2774 9.90067 28.1968C9.8201 28.1162 9.72286 28.076 9.60893 28.076C9.495 28.076 9.39775 28.1162 9.31719 28.1968C9.23663 28.2774 9.19635 28.3746 9.19635 28.4885ZM9.09633 28.3198L9.08383 28.3698C9.01793 28.5867 9.05961 28.7805 9.20885 28.9511L9.4714 29.2449C9.4853 29.2602 9.49989 29.2748 9.51516 29.2887L10.0403 29.77C10.0423 29.7721 10.0444 29.7742 10.0465 29.7763L10.7466 30.3951C10.7701 30.4179 10.7951 30.4387 10.8217 30.4577L11.6531 30.9953C11.6551 30.9974 11.6572 30.9994 11.6593 31.0015L12.3845 31.4704L12.9158 31.8517L13.2221 32.083C13.2322 32.0897 13.2427 32.096 13.2534 32.1017L13.3596 32.1642C13.5283 32.2661 13.6819 32.247 13.8204 32.1068C13.9589 31.9666 13.9762 31.8128 13.8722 31.6454L13.8347 31.5891C13.8113 31.5508 13.7821 31.5175 13.7472 31.4891L13.5847 31.3641L13.3471 31.1765C13.3471 31.1745 13.3471 31.1724 13.3471 31.1703L13.0408 30.939L12.6595 30.6264C12.6574 30.6264 12.6553 30.6264 12.6533 30.6264L12.1844 30.2576C12.1824 30.2555 12.1803 30.2534 12.1782 30.2514L11.6593 29.8513L11.1717 29.4637L10.8404 29.1574L10.7091 28.9636C10.5668 28.7469 10.3676 28.6593 10.1117 28.7007C9.85576 28.7421 9.69442 28.8881 9.62768 29.1387L9.62143 29.1762C9.55283 29.4379 9.61951 29.6588 9.82147 29.8388L10.184 30.1639C10.1902 30.1702 10.1964 30.1765 10.2028 30.1826L10.8404 30.7015C10.8584 30.7171 10.8771 30.7316 10.8967 30.7452L11.6968 31.2766L12.447 31.7704L13.0158 32.1642L13.2846 32.3893L13.3159 32.433C13.5307 32.5549 13.721 32.5244 13.8869 32.3414C14.0528 32.1584 14.0646 31.966 13.9223 31.7642L13.7847 31.6954L13.4409 31.4516L12.8971 31.0515L12.2594 30.5889L11.6281 30.1201C11.626 30.1201 11.6239 30.1201 11.6218 30.1201L11.0029 29.6763L10.4028 29.2262L9.80272 28.7261L9.16509 28.1197L8.49622 27.4446L7.84609 26.7882L7.27724 26.2256L6.83965 25.7818L6.53959 25.4755L6.39582 25.3067C6.11839 25.1793 5.88781 25.2375 5.70409 25.4813C5.52037 25.7251 5.52799 25.9628 5.72694 26.1943L5.75194 26.2069C5.70439 26.1598 5.65021 26.1223 5.58941 26.0943L5.77695 26.2756L6.07076 26.5819L6.39582 26.9382L6.67087 27.2571L6.8209 27.4446L6.83965 27.4821C6.93157 27.6098 7.05455 27.6896 7.2086 27.7215C7.36264 27.7535 7.50723 27.7292 7.64235 27.6486C7.77747 27.568 7.86758 27.4524 7.91268 27.3016C7.95777 27.1509 7.946 27.0048 7.87735 26.8632L7.78983 26.732L7.53979 26.3569C7.53979 26.3548 7.53979 26.3527 7.53979 26.3506L7.14596 25.7568L6.62086 24.9691L6.0645 24.0252L5.53315 22.9687L5.05806 21.8623L4.64548 20.7621L4.32667 19.7619L4.09538 18.9367L3.9391 18.3116L3.84533 17.9303L3.81408 17.8053C3.76481 17.6344 3.66238 17.506 3.50679 17.4201C3.35119 17.3341 3.18797 17.3157 3.01714 17.3648C2.8463 17.414 2.71785 17.5164 2.63179 17.6719C2.54573 17.8275 2.52724 17.9907 2.57634 18.1616L2.61385 18.2803C2.62064 18.3059 2.62898 18.3309 2.63885 18.3554L2.80138 18.7054L3.02643 19.3555L3.33273 20.2807C3.33471 20.287 3.33679 20.2933 3.33899 20.2995L3.73281 21.3309L4.10788 22.2999C4.10787 22.3019 4.10787 22.304 4.10788 22.3061L4.40794 23.0625L4.55172 23.5563C4.6055 23.4344 4.61384 23.3093 4.57672 23.1813L4.53296 23.2813C4.61816 23.5575 4.80504 23.7041 5.0936 23.7211C5.38216 23.7381 5.58494 23.6144 5.70194 23.3501L5.60192 23.05C5.60008 23.0395 5.59799 23.0291 5.59567 23.0187L5.32686 22.2999L4.93304 21.2059L4.49546 19.9057L4.07037 18.5866L3.70781 17.4052L3.42025 16.4487C3.41818 16.4466 3.4161 16.4446 3.414 16.4425L3.20771 15.7799L3.1327 15.4423V15.3673C2.96731 15.1431 2.75079 15.0697 2.48314 15.147C2.21549 15.2244 2.07152 15.402 2.05124 15.6798L2.17001 15.8424L2.45757 16.43L2.96391 17.4864C2.96589 17.4927 2.96798 17.499 2.97017 17.5052L3.73281 18.9805C3.73691 18.9847 3.74108 18.9889 3.74531 18.993L4.71425 20.7558L5.69568 22.6499C5.6977 22.6541 5.69979 22.6583 5.70194 22.6624L6.70838 24.469C6.71399 24.4818 6.72024 24.4943 6.72713 24.5065L7.72107 25.913L8.37744 26.982C8.46913 27.1279 8.5879 27.1549 8.73376 27.0633C8.87962 26.9716 8.90671 26.8528 8.81503 26.7069L8.15865 25.6442L7.43977 24.0939C7.43569 24.0897 7.43152 24.0855 7.42726 24.0814L6.47708 22.2498L5.5394 20.3432L4.7455 18.5054C4.74353 18.4991 4.74145 18.4928 4.73925 18.4866L4.04537 16.9801C4.0433 16.978 4.04122 16.9759 4.03912 16.9738L3.53277 15.9111C3.53279 15.9091 3.53279 15.907 3.53277 15.9049L3.22021 15.2735C3.204 15.2427 3.18524 15.2135 3.16395 15.186L3.02018 14.986C2.85789 14.7702 2.64635 14.6972 2.38556 14.767C2.12476 14.8367 1.9779 15.0056 1.94497 15.2735L1.92622 15.4298C1.92185 15.4715 1.92185 15.5131 1.92622 15.5548L1.97623 16.0112C1.97804 16.0216 1.98013 16.0321 1.98248 16.0424L2.10125 16.7613C2.10462 16.7802 2.10878 16.799 2.11375 16.8176L2.35755 17.7865C2.36147 17.797 2.36563 17.8074 2.37005 17.8178L2.73262 19.0055C2.73261 19.0076 2.73261 19.0096 2.73262 19.0117L3.1577 20.337C3.15974 20.3412 3.16183 20.3453 3.16395 20.3495L3.60779 21.6622C3.60978 21.6685 3.61187 21.6748 3.61404 21.681L4.01411 22.7749C4.01999 22.7876 4.02624 22.8001 4.03287 22.8125L4.33292 23.5251C4.3534 23.5695 4.37841 23.6112 4.40794 23.6501L4.58922 23.9064C4.7006 24.0383 4.8423 24.1116 5.01434 24.1262C5.18638 24.1408 5.3384 24.0924 5.4704 23.9811C5.6024 23.8698 5.67575 23.7282 5.69044 23.5562C5.70513 23.3841 5.65687 23.2321 5.54566 23.1L5.52065 23.075L5.32686 22.6999L5.02056 21.9498L4.68299 20.9996L4.38919 19.9557C4.3892 19.9536 4.3892 19.9515 4.38919 19.9494L4.11413 19.0242L3.9391 18.3429L3.85158 17.949C3.84826 17.9301 3.84409 17.9113 3.83908 17.8928L3.80157 17.774C3.74505 17.6146 3.64179 17.496 3.49178 17.418C3.34178 17.34 3.18532 17.3236 3.02241 17.3688C2.85951 17.4141 2.73391 17.5088 2.64562 17.653C2.55734 17.7972 2.53007 17.9521 2.56384 18.1178L2.59509 18.2428C2.59701 18.2512 2.59909 18.2595 2.60135 18.2678L2.70136 18.6367L2.87015 19.2618C2.8701 19.2659 2.8701 19.2701 2.87015 19.2743L3.11394 20.1182C3.11593 20.1245 3.11801 20.1307 3.12019 20.1369L3.45151 21.1621C3.45342 21.1705 3.4555 21.1789 3.45776 21.1871L3.87659 22.3124C3.88057 22.3208 3.88474 22.3291 3.88909 22.3374L4.37668 23.4876C4.38263 23.4982 4.38888 23.5086 4.39544 23.5188L4.93929 24.6128C4.94718 24.6256 4.95551 24.6381 4.9643 24.6503L5.53315 25.6317C5.5392 25.6402 5.54545 25.6486 5.55191 25.6567L6.08326 26.4569C6.08533 26.459 6.08741 26.4611 6.08951 26.4631L6.49584 27.057C6.49989 27.0633 6.50406 27.0696 6.50834 27.0758L6.77089 27.4383C6.78822 27.4605 6.80698 27.4813 6.82715 27.5008L6.93967 27.6134C7.06439 27.702 7.20281 27.7382 7.35495 27.722C7.50708 27.7059 7.6348 27.6413 7.73811 27.5285C7.84141 27.4157 7.89442 27.2828 7.89713 27.1298C7.89984 26.9768 7.85157 26.8421 7.75233 26.7257L7.71482 26.6944L7.54604 26.5069C7.54397 26.5048 7.54188 26.5027 7.53979 26.5007L7.24598 26.1693C7.2439 26.1693 7.24181 26.1693 7.23973 26.1693L6.90842 25.8068C6.90635 25.8047 6.90426 25.8026 6.90216 25.8005L6.59586 25.4817C6.59382 25.4775 6.59174 25.4734 6.5896 25.4692L6.40207 25.2817C6.2979 25.1794 6.17288 25.1252 6.027 25.1191H6.00199C5.75211 25.1091 5.57336 25.217 5.46573 25.4427C5.35809 25.6684 5.38682 25.8752 5.55191 26.0631L5.70819 26.2381C5.71435 26.2424 5.72061 26.2466 5.72694 26.2506L6.0395 26.5694C6.04157 26.5715 6.04365 26.5736 6.04575 26.5757L6.48959 27.0195L7.05844 27.5759L7.71482 28.226L8.40245 28.8949C8.40855 28.9013 8.4148 28.9075 8.4212 28.9136L9.10258 29.5137C9.10668 29.518 9.11085 29.5221 9.11509 29.5262L9.74646 30.0451C9.7546 30.0516 9.76294 30.0578 9.77146 30.0638L10.3903 30.5139C10.3986 30.5183 10.4069 30.5225 10.4153 30.5264L11.053 30.9453L11.7093 31.3703L12.3407 31.8204L12.8908 32.2142C12.8929 32.2163 12.895 32.2184 12.8971 32.2205L13.2784 32.483C13.2982 32.4972 13.3191 32.5097 13.3409 32.5206L13.5034 32.5956C13.7474 32.7211 13.9459 32.67 14.099 32.4423C14.2521 32.2146 14.2244 32.0114 14.016 31.8329L13.9223 31.7454C13.9161 31.7411 13.9099 31.7369 13.9035 31.7329L13.5722 31.4641L13.0471 31.014L12.4032 30.3951L11.7281 29.72C11.714 29.7069 11.6995 29.6944 11.6843 29.6825L11.0592 29.1512L10.6841 28.8386C10.5088 28.6926 10.3108 28.6488 10.0903 28.7073L10.0528 28.7136C9.75268 28.7938 9.60431 28.9892 9.60765 29.2998C9.61099 29.6104 9.76353 29.8026 10.0653 29.8763L10.2841 29.9326L10.6716 30.1514L11.178 30.5014L11.7031 30.8765L12.1719 31.2391L12.5407 31.5454L12.8345 31.7954C12.8386 31.7997 12.8428 31.8038 12.847 31.8079L13.0846 31.9955C13.0968 32.0024 13.1093 32.0086 13.1221 32.0142L13.2971 32.1267L13.3534 32.1642C13.4423 32.2177 13.5371 32.232 13.6378 32.207C13.7385 32.1819 13.8156 32.125 13.8691 32.0361C13.9226 31.9472 13.9369 31.8524 13.9119 31.7517C13.8868 31.651 13.8299 31.5739 13.741 31.5204L13.6534 31.4704L13.3721 31.2578L12.8971 30.8452L12.3094 30.2264L11.6656 29.4887C11.6518 29.4713 11.6373 29.4546 11.6218 29.4387L10.9342 28.8011C10.9301 28.7969 10.9259 28.7927 10.9217 28.7886L10.3966 28.3198C10.3786 28.3041 10.3599 28.2896 10.3403 28.276L10.0215 28.051C9.85866 27.9351 9.68155 27.9059 9.49016 27.9634L9.44015 27.9759C9.26281 28.0278 9.14821 28.1424 9.09633 28.3198Z" fill="black"/>
<path d="M8.04608 25.7256L8.06483 25.7943L8.1461 26.0756C8.16431 26.1484 8.19556 26.2151 8.23987 26.2757L8.6587 26.8195C8.67407 26.8414 8.69074 26.8622 8.70871 26.882L9.43384 27.6259C9.46955 27.6621 9.50914 27.6934 9.55262 27.7197L10.459 28.2761L11.1279 29.0012C11.2613 29.1138 11.3916 29.1102 11.5187 28.9906C11.6459 28.8709 11.6573 28.7411 11.553 28.6011L10.8904 27.8822L10.4215 26.932C10.3976 26.8867 10.3684 26.845 10.334 26.807L9.66514 26.0131C9.64574 25.9908 9.6249 25.97 9.60263 25.9506L9.08378 25.4943C9.03713 25.4524 8.98504 25.4191 8.9275 25.3943L8.67745 25.288L8.62744 25.263C8.47056 25.1735 8.32147 25.185 8.18015 25.2975C8.03884 25.4099 7.99415 25.5526 8.04608 25.7256Z" fill="black"/>
<path d="M7.0959 1.871L7.1084 1.83974C7.07472 1.87482 7.04763 1.91441 7.02714 1.95852L7.05839 1.92726C7.16676 1.81557 7.21367 1.68226 7.19912 1.52732C7.18457 1.37239 7.11366 1.25014 6.98639 1.16058C6.85913 1.07102 6.72012 1.04554 6.56937 1.08415C6.41862 1.12276 6.30896 1.21191 6.24041 1.35162C6.17186 1.49133 6.16845 1.63261 6.23016 1.77547C6.29188 1.91833 6.39709 2.01268 6.5458 2.05854L6.5833 2.07104C6.55014 2.04957 6.51472 2.0329 6.47703 2.02103L6.50204 2.03978C6.60594 2.10874 6.71787 2.12618 6.83782 2.09209C6.95777 2.05799 7.0438 1.9843 7.0959 1.871ZM6.29575 1.04584L6.25199 1.0771C6.00415 1.26327 5.90621 1.50915 5.95819 1.81474L6.0457 2.31483C6.05432 2.36174 6.06682 2.40758 6.08321 2.45236L6.43953 3.4588C6.44356 3.4672 6.44773 3.47554 6.45203 3.48381L7.0834 5.12162C7.08743 5.13002 7.0916 5.13836 7.0959 5.14662L7.98982 7.25953C7.99385 7.26793 7.99802 7.27626 8.00232 7.28453L9.07753 9.59122C9.07753 9.5933 9.07753 9.59539 9.07753 9.59747L10.1277 11.7916C10.1337 11.8002 10.14 11.8085 10.1465 11.8166L11.1217 13.5607L11.6655 14.9235C11.7322 15.086 11.8468 15.1339 12.0093 15.0673C12.1719 15.0006 12.2198 14.886 12.1531 14.7234L11.6093 13.3669L11.1217 11.4291C11.1199 11.4186 11.1178 11.4082 11.1154 11.3978L10.3715 9.08487C10.3716 9.0807 10.3716 9.07654 10.3715 9.07237L9.54637 6.66566C9.54441 6.65729 9.54233 6.64896 9.54012 6.64066L8.72121 4.49025C8.71916 4.48606 8.71708 4.4819 8.71496 4.47775L8.06484 2.84619C8.06484 2.8441 8.06484 2.84202 8.06484 2.83993L7.65851 1.85225C7.64745 1.82449 7.63494 1.79741 7.621 1.77098L7.37721 1.32715C7.25302 1.09265 7.05923 0.959291 6.79584 0.92707L6.73958 0.920819C6.5751 0.903791 6.42716 0.945465 6.29575 1.04584Z" fill="black"/>
<path d="M8.37732 6.50941C8.37732 6.62506 8.41821 6.72378 8.49999 6.80556C8.58177 6.88735 8.68049 6.92824 8.79615 6.92824C8.9118 6.92824 9.01052 6.88735 9.0923 6.80556C9.17408 6.72378 9.21497 6.62506 9.21498 6.50941C9.21497 6.39375 9.17408 6.29503 9.0923 6.21325C9.01052 6.13147 8.9118 6.09058 8.79615 6.09058C8.68049 6.09058 8.58177 6.13147 8.49999 6.21325C8.41821 6.29503 8.37732 6.39375 8.37732 6.50941ZM8.17103 6.50941C8.17103 6.66822 8.22717 6.80377 8.33947 6.91607C8.45177 7.02837 8.58732 7.08452 8.74614 7.08452C8.90495 7.08452 9.0405 7.02837 9.1528 6.91607C9.2651 6.80377 9.32124 6.66822 9.32125 6.50941C9.32124 6.3506 9.2651 6.21504 9.1528 6.10274C9.0405 5.99045 8.90495 5.9343 8.74614 5.9343C8.58732 5.9343 8.45177 5.99045 8.33947 6.10274C8.22717 6.21504 8.17103 6.3506 8.17103 6.50941ZM8.01475 6.39689L7.93973 6.69694C7.9015 6.85022 7.90567 7.00233 7.95223 7.15328L8.21478 8.00344C8.22368 8.03316 8.2341 8.06233 8.24604 8.09096L8.84615 9.49122C8.85202 9.50598 8.85827 9.52056 8.86491 9.53498L9.77758 11.3603C9.78548 11.3752 9.79381 11.3898 9.80259 11.4041L10.9341 13.3732L12.0155 15.2986L12.8907 16.9927C12.8927 16.9969 12.8948 17.001 12.8969 17.0052L13.5846 18.2366L13.9721 19.1056C14.0513 19.2352 14.1599 19.2684 14.2979 19.2049C14.436 19.1415 14.4816 19.0375 14.4347 18.893L14.0534 18.0304L13.5908 16.6926C13.5889 16.6863 13.5868 16.68 13.5846 16.6738L12.8782 14.9048L12.1093 12.8294L11.3154 10.6915C11.3094 10.6788 11.3032 10.6663 11.2966 10.6539L10.4965 8.78484C10.4965 8.78276 10.4965 8.78067 10.4965 8.77859L9.89635 7.39083L9.54629 6.57192C9.52036 6.5074 9.48702 6.44697 9.44627 6.39063L9.25873 6.14059C9.08135 5.90122 8.84675 5.81159 8.55494 5.87171C8.26314 5.93183 8.08307 6.10689 8.01475 6.39689Z" fill="black"/>
<path d="M11.1716 12.6543L11.1279 12.6918C10.907 12.8556 10.8237 13.0723 10.8778 13.3419L10.9904 13.867C11.0066 13.9439 11.0337 14.0169 11.0716 14.0858L11.603 15.0485C11.6197 15.0809 11.6384 15.1122 11.6592 15.1422L12.5782 16.3987C12.594 16.4182 12.6107 16.437 12.6282 16.455L13.8597 17.849C13.8735 17.8663 13.8881 17.883 13.9034 17.899L15.3224 19.2618C15.3382 19.2773 15.3549 19.2919 15.3724 19.3055L16.8602 20.4307L17.9292 21.5247C18.0417 21.6256 18.1524 21.6236 18.2612 21.5187C18.37 21.4138 18.376 21.3032 18.2792 21.1871L17.2165 20.0869L16.1913 18.5366C16.1873 18.5303 16.1831 18.524 16.1788 18.5179L15.0286 16.9176C15.0286 16.9155 15.0286 16.9134 15.0286 16.9113L13.9284 15.4173L13.0345 14.1608L12.4219 13.2606C12.4008 13.232 12.3779 13.2049 12.3531 13.1794L11.9968 12.7793C11.8511 12.6173 11.6698 12.5465 11.4529 12.5667L11.3967 12.573C11.3142 12.5794 11.2392 12.6065 11.1716 12.6543Z" fill="black"/>
<path d="M13.147 16.0174C13.147 16.1279 13.1861 16.2222 13.2642 16.3003C13.3423 16.3784 13.4366 16.4175 13.5471 16.4175C13.6576 16.4175 13.7519 16.3784 13.83 16.3003C13.9081 16.2222 13.9472 16.1279 13.9472 16.0174C13.9472 15.9069 13.9081 15.8126 13.83 15.7345C13.7519 15.6564 13.6576 15.6173 13.5471 15.6173C13.4366 15.6173 13.3423 15.6564 13.2642 15.7345C13.1861 15.8126 13.147 15.9069 13.147 16.0174ZM13.122 16.0236C13.122 16.141 13.1635 16.2412 13.2465 16.3242C13.3295 16.4072 13.4297 16.4487 13.5471 16.4487C13.6645 16.4487 13.7647 16.4072 13.8477 16.3242C13.9307 16.2412 13.9722 16.141 13.9722 16.0236C13.9722 15.9063 13.9307 15.8061 13.8477 15.7231C13.7647 15.6401 13.6645 15.5986 13.5471 15.5986C13.4297 15.5986 13.3295 15.6401 13.2465 15.7231C13.1635 15.8061 13.122 15.9063 13.122 16.0236ZM13.0407 16.2612L13.122 16.63C13.1401 16.7124 13.1714 16.7895 13.2158 16.8613L13.6471 17.5552C13.6644 17.5813 13.6832 17.6063 13.7034 17.6302L14.541 18.6929C14.5471 18.7014 14.5534 18.7097 14.5598 18.7179L15.7788 20.1557C15.7829 20.1599 15.787 20.1641 15.7913 20.1682L17.2665 21.8435C17.2786 21.8564 17.2912 21.8689 17.304 21.881L18.9481 23.5251C18.9639 23.5426 18.9806 23.5593 18.9981 23.5751L20.6297 24.8941L21.8487 25.9943L22.6488 26.8194C22.7613 26.9204 22.872 26.9183 22.9808 26.8134C23.0896 26.7085 23.0956 26.598 22.9989 26.4819L22.1987 25.6567L21.1798 24.3815L20.0296 22.6437C20.0177 22.6286 20.0052 22.614 19.9921 22.5999L18.5605 20.7683C18.5544 20.7598 18.5482 20.7515 18.5418 20.7433L17.0915 19.043L15.8725 17.6052C15.8705 17.6031 15.8684 17.601 15.8663 17.5989L14.9786 16.5737C14.9705 16.5631 14.9622 16.5527 14.9536 16.5425L14.3847 15.9486C14.3431 15.9078 14.2972 15.8724 14.2472 15.8424L13.9347 15.6423C13.7143 15.4993 13.4962 15.5025 13.2802 15.652C13.0642 15.8016 12.9844 16.0046 13.0407 16.2612Z" fill="black"/>
<path d="M13.5721 16.6363C13.5721 16.7433 13.6099 16.8347 13.6856 16.9103C13.7613 16.986 13.8526 17.0238 13.9597 17.0239C14.0667 17.0238 14.158 16.986 14.2337 16.9103C14.3094 16.8347 14.3472 16.7433 14.3472 16.6363C14.3472 16.5293 14.3094 16.4379 14.2337 16.3622C14.158 16.2865 14.0667 16.2487 13.9597 16.2487C13.8526 16.2487 13.7613 16.2865 13.6856 16.3622C13.6099 16.4379 13.5721 16.5293 13.5721 16.6363ZM13.4908 16.6425C13.4908 16.7668 13.5348 16.8729 13.6226 16.9608C13.7105 17.0487 13.8166 17.0926 13.9409 17.0926C14.0652 17.0926 14.1713 17.0487 14.2592 16.9608C14.347 16.8729 14.391 16.7668 14.391 16.6425C14.391 16.5182 14.347 16.4122 14.2592 16.3243C14.1713 16.2364 14.0652 16.1924 13.9409 16.1924C13.8166 16.1924 13.7105 16.2364 13.6226 16.3243C13.5348 16.4122 13.4908 16.5182 13.4908 16.6425ZM13.6346 16.2237L13.5846 16.255C13.4795 16.3179 13.4024 16.4054 13.3533 16.5175L13.297 16.6488C13.2304 16.809 13.2241 16.9715 13.2783 17.1364L13.4096 17.5615C13.432 17.6303 13.4632 17.6949 13.5033 17.7552L14.0347 18.5616C14.0485 18.581 14.063 18.5998 14.0784 18.6179L15.0661 19.8556C15.0762 19.8684 15.0866 19.8809 15.0974 19.8931L16.5039 21.4684C16.5216 21.4902 16.5404 21.5111 16.5602 21.531L18.2355 23.0688C18.2592 23.0892 18.2842 23.108 18.3105 23.125L20.0296 24.3252L21.3736 25.3567L22.305 26.1381C22.4223 26.2107 22.525 26.1939 22.613 26.0875C22.701 25.9812 22.6983 25.8772 22.6051 25.7755L21.6861 25.0004L20.5172 23.7939L19.2544 22.1373C19.2484 22.1267 19.2422 22.1163 19.2357 22.1061L17.7666 20.3745C17.7646 20.3703 17.7625 20.3661 17.7604 20.362L16.3789 18.7804L15.3849 17.574L14.7848 16.8238C14.7767 16.8132 14.7684 16.8028 14.7598 16.7926L14.4598 16.4612C14.4176 16.413 14.3696 16.3713 14.316 16.3362L14.191 16.255C14.2336 16.3854 14.3128 16.4875 14.4285 16.5613L14.4097 16.505C14.3544 16.3458 14.2475 16.2374 14.0891 16.1799C13.9307 16.1224 13.7792 16.137 13.6346 16.2237Z" fill="black"/>
<path d="M15.3725 19.268C15.3727 19.3732 15.4101 19.4629 15.4845 19.5372C15.5589 19.6115 15.6487 19.6486 15.7539 19.6486C15.859 19.6486 15.9488 19.6115 16.0232 19.5372C16.0977 19.4629 16.135 19.3732 16.1352 19.268C16.135 19.1629 16.0977 19.0732 16.0232 18.9989C15.9488 18.9246 15.859 18.8874 15.7539 18.8874C15.6487 18.8874 15.5589 18.9246 15.4845 18.9989C15.4101 19.0731 15.3727 19.1629 15.3725 19.268ZM15.2725 19.2493C15.2725 19.3736 15.3165 19.4796 15.4043 19.5675C15.4922 19.6554 15.5983 19.6994 15.7226 19.6994C15.8469 19.6994 15.953 19.6554 16.0409 19.5675C16.1287 19.4796 16.1727 19.3736 16.1727 19.2493C16.1727 19.125 16.1287 19.0189 16.0409 18.931C15.953 18.8431 15.8469 18.7992 15.7226 18.7992C15.5983 18.7992 15.4922 18.8431 15.4043 18.931C15.3165 19.0189 15.2725 19.125 15.2725 19.2493ZM15.0787 19.2493L15.0725 19.4493C15.0695 19.606 15.1111 19.7498 15.1975 19.8806L15.6413 20.5558C15.6639 20.591 15.6889 20.6243 15.7164 20.6558L16.7415 21.7998C16.7537 21.8126 16.7662 21.8251 16.7791 21.8373L18.3481 23.3813C18.3563 23.3877 18.3647 23.394 18.3731 23.4001L20.2797 25.1316C20.2859 25.138 20.2921 25.1442 20.2985 25.1504L22.2488 26.807C22.263 26.8179 22.2776 26.8284 22.2926 26.8382L24.0492 28.1197C24.0513 28.1197 24.0534 28.1197 24.0554 28.1197L25.3869 29.0574C25.389 29.0595 25.3911 29.0616 25.3932 29.0636L26.2621 29.6512C26.2818 29.6639 26.3027 29.6743 26.3246 29.6825L26.806 29.87C26.8121 29.8724 26.8184 29.8745 26.8247 29.8763L26.9998 29.9263C27.1454 29.9676 27.239 29.9155 27.2806 29.7699C27.3222 29.6243 27.2702 29.5306 27.1248 29.4887L26.9998 29.4575L26.6622 29.1449C26.6581 29.1406 26.654 29.1365 26.6497 29.1324L25.8558 28.4698L24.7118 27.3508L23.2115 25.7818C23.2074 25.7775 23.2032 25.7734 23.199 25.7693L21.3862 23.9689L19.5671 22.1498L18.023 20.5933L16.9541 19.4993C16.9479 19.493 16.9417 19.4867 16.9353 19.4806L16.354 18.9242C16.2962 18.8703 16.2316 18.8266 16.1602 18.7929L15.9789 18.6992C15.8829 18.6521 15.7815 18.6311 15.6748 18.636C15.568 18.641 15.469 18.6713 15.3778 18.7271C15.2866 18.7828 15.2144 18.8571 15.1613 18.9498C15.1082 19.0426 15.0806 19.1424 15.0787 19.2493Z" fill="black"/>
<path d="M20.3734 6.21557C20.3734 6.32087 20.4106 6.41075 20.4851 6.4852C20.5595 6.55966 20.6494 6.59689 20.7547 6.59689C20.86 6.59689 20.9499 6.55966 21.0244 6.4852C21.0988 6.41075 21.1361 6.32087 21.1361 6.21557C21.1361 6.11027 21.0988 6.02039 21.0244 5.94593C20.9499 5.87147 20.86 5.83424 20.7547 5.83424C20.6494 5.83424 20.5595 5.87147 20.4851 5.94593C20.4106 6.02039 20.3734 6.11027 20.3734 6.21557ZM21.1423 6.25933L21.1486 6.20306C21.1529 6.17825 21.155 6.15324 21.1548 6.12805L21.1486 6.00928C21.1472 5.97971 21.143 5.95053 21.1361 5.92176L21.0985 5.77173C21.0846 5.71567 21.0617 5.66357 21.0298 5.61545L20.9298 5.45292C20.9237 5.44651 20.9174 5.44026 20.911 5.43417L20.7797 5.25288L20.6547 5.04659L20.5297 4.82155L20.4297 4.60276L20.3672 4.44648L20.3609 4.39647L20.3672 4.37147C20.43 4.05246 20.3151 3.82225 20.0223 3.68085C19.7295 3.53945 19.4777 3.59254 19.2669 3.84011L19.2232 3.89638C19.0803 4.06536 19.0261 4.25915 19.0607 4.47774L19.1357 4.96533C19.1413 5.00345 19.1496 5.04095 19.1607 5.07785L19.4295 5.95927C19.4335 5.96768 19.4377 5.97601 19.442 5.98427L19.8546 7.19075C19.8586 7.19916 19.8628 7.20749 19.8671 7.21576L20.3984 8.59727C20.4004 8.60355 20.4025 8.6098 20.4047 8.61602L20.9673 9.97253L21.4361 11.1353L21.7674 12.0417L21.955 12.6793L22.0425 13.1106L22.0925 13.3607C22.0992 13.2979 22.0971 13.2354 22.0862 13.1731L22.08 13.2169C22.2066 13.5452 22.4445 13.6876 22.7936 13.6439C23.1428 13.6003 23.3383 13.4038 23.3802 13.0544L23.3115 12.8668L23.1489 12.3542L22.8801 11.4728C22.8801 11.4707 22.8801 11.4687 22.8801 11.4666L22.5113 10.2913L22.105 8.98484C22.105 8.98276 22.105 8.98068 22.105 8.97859L21.6862 7.6971C21.6841 7.695 21.682 7.69292 21.6799 7.69085L21.2861 6.52813C21.2861 6.52396 21.2861 6.51979 21.2861 6.51562L20.9298 5.52168C20.9298 5.51752 20.9298 5.51335 20.9298 5.50918L20.6235 4.69653C20.6214 4.69443 20.6193 4.69235 20.6172 4.69028L20.3734 4.05891L20.2171 3.60257C20.178 3.74141 20.1822 3.87893 20.2296 4.01515L20.2609 3.90263C20.2393 3.71836 20.162 3.56165 20.0288 3.43249C19.8956 3.30333 19.7366 3.23079 19.5518 3.21488C19.3669 3.19898 19.1979 3.24328 19.0446 3.34778C18.8913 3.45229 18.7883 3.59348 18.7356 3.77135L18.7669 4.09641C18.773 4.15611 18.7855 4.21446 18.8044 4.27145L19.0794 5.12161C19.0814 5.12788 19.0835 5.13414 19.0857 5.14036L19.567 6.52188C19.569 6.53024 19.571 6.53858 19.5733 6.54688L20.2671 8.35973C20.271 8.37233 20.2752 8.38483 20.2796 8.39723L21.1798 10.4164C21.1856 10.4311 21.1919 10.4457 21.1986 10.4601L22.1988 12.3667C22.2101 12.3883 22.2226 12.4091 22.2363 12.4292L23.2552 13.9295C23.2592 13.9359 23.2634 13.9421 23.2677 13.9483L24.0741 15.011L24.5492 15.7486C24.6409 15.8903 24.7576 15.9153 24.8993 15.8236C25.041 15.732 25.066 15.6153 24.9743 15.4736L24.5054 14.7484L23.9991 13.542L23.399 11.8416C23.3969 11.8374 23.3949 11.8333 23.3927 11.8291L22.6238 9.81625L21.8299 7.75961L21.1548 5.95927L20.6735 4.59026L20.3859 3.74635C20.3788 3.72094 20.3704 3.69594 20.3609 3.67133L20.2234 3.37128C19.8965 3.18646 19.5937 3.21992 19.315 3.47167C19.0363 3.72342 18.9724 4.02127 19.1232 4.36521L19.2232 4.42773C19.1623 4.28996 19.0664 4.18369 18.9356 4.10892L19.1294 4.54025L19.3607 5.16537C19.3607 5.16745 19.3607 5.16953 19.3607 5.17162L19.667 5.97802L20.0233 6.95946L20.4109 8.11593L20.8297 9.39117L21.2361 10.6852L21.5924 11.8666L21.8612 12.7481C21.8611 12.7522 21.8611 12.7564 21.8612 12.7606L22.03 13.2919C22.0338 13.3045 22.0379 13.317 22.0425 13.3294L22.1175 13.5295C22.2408 13.8475 22.4723 13.9902 22.8119 13.9574C23.1514 13.9245 23.3513 13.7402 23.4115 13.4044L23.4177 13.3669C23.4343 13.2815 23.4343 13.1961 23.4177 13.1106L23.3677 12.8481C23.3627 12.8248 23.3564 12.8019 23.349 12.7793L23.2052 12.3292C23.2032 12.325 23.2011 12.3209 23.1989 12.3167L22.9739 11.6416L22.6738 10.7039L22.305 9.49744C22.303 9.49325 22.3009 9.48909 22.2988 9.48494L21.8549 8.08467C21.8529 8.08258 21.8508 8.08049 21.8487 8.07842L21.3798 6.6719C21.3799 6.66774 21.3799 6.66357 21.3798 6.6594L20.9548 5.45917L20.6547 4.59026C20.649 4.57337 20.6428 4.55671 20.636 4.54025L20.4359 4.07766C20.362 3.90859 20.2411 3.78565 20.0734 3.70884L20.0046 3.67758C19.8659 3.61952 19.7245 3.61196 19.5804 3.6549C19.4363 3.69785 19.3222 3.78157 19.2379 3.90608C19.1536 4.03059 19.1183 4.16771 19.132 4.31743C19.1457 4.46716 19.2053 4.59561 19.3107 4.70278L19.3232 4.72153L19.367 4.79655L19.4545 5.00909C19.4583 5.01964 19.4625 5.03006 19.467 5.04034L19.5858 5.29039C19.5936 5.30325 19.6019 5.31575 19.6108 5.3279L19.7545 5.57795C19.7604 5.58858 19.7667 5.599 19.7733 5.6092L19.9358 5.83424C19.9379 5.83844 19.9399 5.84261 19.9421 5.84675L20.0921 6.04053C20.0941 6.04473 20.0962 6.0489 20.0984 6.05304L20.2171 6.20306C20.2269 6.21608 20.2374 6.22858 20.2484 6.24057L20.3484 6.34684L20.4234 6.42811L20.4609 6.46561C20.5725 6.58879 20.7078 6.62629 20.8669 6.57814C21.026 6.52998 21.1178 6.42371 21.1423 6.25933Z" fill="black"/>
<path d="M22.5676 13.2107C22.5676 13.3177 22.6054 13.4091 22.6811 13.4847C22.7568 13.5604 22.8481 13.5983 22.9552 13.5983C23.0622 13.5983 23.1535 13.5604 23.2292 13.4847C23.3049 13.4091 23.3427 13.3177 23.3427 13.2107C23.3427 13.1037 23.3049 13.0123 23.2292 12.9366C23.1535 12.8609 23.0622 12.8231 22.9552 12.8231C22.8481 12.8231 22.7568 12.8609 22.6811 12.9366C22.6054 13.0123 22.5676 13.1037 22.5676 13.2107ZM22.4676 13.1982C22.4676 13.3294 22.5139 13.4413 22.6067 13.5341C22.6995 13.6269 22.8115 13.6733 22.9427 13.6733C23.0738 13.6733 23.1858 13.6269 23.2786 13.5341C23.3714 13.4413 23.4177 13.3294 23.4177 13.1982C23.4177 13.067 23.3714 12.955 23.2786 12.8622C23.1858 12.7695 23.0738 12.7231 22.9427 12.7231C22.8115 12.7231 22.6995 12.7695 22.6067 12.8622C22.5139 12.955 22.4676 13.067 22.4676 13.1982ZM22.355 13.0606L22.3363 13.1544C22.2753 13.3942 22.3191 13.6129 22.4676 13.8108L22.7926 14.2359C22.8083 14.2575 22.825 14.2783 22.8426 14.2984L23.4865 14.9923C23.5004 15.0095 23.515 15.0262 23.5303 15.0423L24.4742 15.9049C24.4999 15.9276 24.527 15.9484 24.5555 15.9675L25.6869 16.7489L26.7559 17.474C26.76 17.4762 26.7642 17.4782 26.7684 17.4802L27.6373 18.0241L28.2249 18.4679C28.3466 18.5429 28.451 18.5237 28.538 18.4102C28.625 18.2967 28.6165 18.191 28.5125 18.0929L27.9311 17.6553L27.231 16.9301L26.3996 15.98L25.5994 14.8922C25.5875 14.8772 25.575 14.8626 25.5619 14.8485L24.7367 13.8796C24.7286 13.871 24.7203 13.8627 24.7117 13.8546L24.0679 13.1607C24.0443 13.1362 24.0193 13.1133 23.9929 13.0919L23.5865 12.7481C23.372 12.5667 23.1303 12.5167 22.8614 12.5981L22.7739 12.6231C22.5513 12.6895 22.4117 12.8354 22.355 13.0606Z" fill="black"/>
<path d="M23.9554 13.9733L23.9179 13.9421C23.9349 14.0062 23.9662 14.0625 24.0117 14.1108L23.9867 14.0171C23.9554 13.8934 23.8857 13.7979 23.7775 13.7304C23.6694 13.6629 23.5529 13.6423 23.4281 13.6686C23.3034 13.6949 23.2051 13.7607 23.1333 13.8661C23.0616 13.9715 23.0363 14.087 23.0576 14.2128C23.0789 14.3385 23.1408 14.4393 23.2432 14.5152C23.3457 14.5911 23.4601 14.6209 23.5866 14.6047L23.6741 14.5922C23.6324 14.5855 23.5907 14.5855 23.5491 14.5922L23.5991 14.5984C23.7811 14.6413 23.9184 14.5815 24.011 14.4191C24.1036 14.2566 24.085 14.1081 23.9554 13.9733ZM22.8302 14.0483C22.8302 14.2192 22.8906 14.3651 23.0114 14.4859C23.1323 14.6068 23.2782 14.6672 23.449 14.6672C23.6199 14.6672 23.7658 14.6068 23.8867 14.4859C24.0075 14.3651 24.0679 14.2192 24.0679 14.0483C24.0679 13.8774 24.0075 13.7316 23.8867 13.6107C23.7658 13.4899 23.6199 13.4295 23.449 13.4295C23.2782 13.4295 23.1323 13.4899 23.0114 13.6107C22.8906 13.7316 22.8302 13.8774 22.8302 14.0483ZM23.1052 14.7922L23.6553 15.2048C23.6574 15.2069 23.6595 15.209 23.6616 15.211L24.718 16.0049C24.746 16.0256 24.7751 16.0444 24.8056 16.0612L26.2371 16.8551L27.6373 17.724L28.7 18.5992C28.8112 18.6576 28.9067 18.6383 28.9864 18.5413C29.0661 18.4442 29.0665 18.3468 28.9876 18.2491L27.9249 17.374L26.8309 16.1487L25.7995 14.8797C25.7726 14.8483 25.7435 14.8191 25.712 14.7922L24.7305 13.9108C24.7049 13.8862 24.6778 13.8632 24.6493 13.842L24.0867 13.4482C23.9011 13.3127 23.6948 13.2626 23.4678 13.298C23.2407 13.3334 23.0595 13.4439 22.9239 13.6295C22.7884 13.8151 22.7384 14.0214 22.7738 14.2484C22.8092 14.4754 22.9197 14.6567 23.1052 14.7922Z" fill="black"/>
<path d="M24.9805 15.261C24.9805 15.3801 25.0226 15.4818 25.1068 15.566C25.191 15.6502 25.2927 15.6924 25.4118 15.6924C25.5309 15.6924 25.6326 15.6502 25.7168 15.566C25.801 15.4818 25.8432 15.3801 25.8432 15.261C25.8432 15.1419 25.801 15.0402 25.7168 14.956C25.6326 14.8718 25.5309 14.8297 25.4118 14.8297C25.2927 14.8297 25.191 14.8718 25.1068 14.956C25.0226 15.0402 24.9805 15.1419 24.9805 15.261ZM24.968 15.386L25.0055 15.6173C25.0307 15.7714 25.0995 15.9027 25.2118 16.0112L25.7681 16.5488C25.7842 16.5641 25.8008 16.5787 25.8182 16.5925L26.7996 17.3739C26.8455 17.4117 26.8955 17.443 26.9496 17.4677L28.1749 18.0053L29.1063 18.8304C29.2264 18.9275 29.338 18.9185 29.441 18.8036C29.5441 18.6886 29.5409 18.5767 29.4313 18.4679L28.4999 17.6427L27.8123 16.4925C27.7808 16.4417 27.7433 16.3959 27.6998 16.355L26.7996 15.4798C26.7797 15.462 26.7588 15.4453 26.7371 15.4298L26.137 14.9547C26.0074 14.8504 25.8595 14.7983 25.6931 14.7984L25.4556 14.8047C25.3024 14.8065 25.1767 14.866 25.0783 14.9834C24.9798 15.1007 24.9431 15.2349 24.968 15.386Z" fill="black"/>
</g>
<defs>
<clipPath id="clip0_1_7309">
<rect width="32" height="33" fill="white"/>
</clipPath>
</defs>
</svg>
