<svg width="37" height="30" viewBox="0 0 37 30" fill="none" xmlns="http://www.w3.org/2000/svg">
<g clip-path="url(#clip0_1_7407)">
<path d="M9.34797 14.6976C9.34797 14.9018 9.45007 15.0039 9.65428 15.0039C9.85848 15.0039 9.96059 14.9018 9.96059 14.6976C9.96059 14.4934 9.85848 14.3913 9.65428 14.3913C9.45007 14.3913 9.34797 14.4934 9.34797 14.6976ZM9.92933 14.9101L9.94183 14.8913C10.0225 14.7975 10.0558 14.6892 10.0419 14.5663L10.0294 14.4725C10.0231 14.4201 10.0085 14.3701 9.98559 14.3225L9.92308 14.185C9.89443 14.1283 9.85693 14.0783 9.81056 14.0349L9.63553 13.8662C9.59294 13.8235 9.54501 13.7881 9.49175 13.7599L9.21045 13.6224C9.17433 13.6042 9.13682 13.5896 9.09792 13.5786L8.7291 13.4786C8.68619 13.4658 8.64243 13.4575 8.59783 13.4536L8.15399 13.4161C8.11004 13.414 8.06628 13.4161 8.02272 13.4223L7.50387 13.4723C7.4549 13.4779 7.40697 13.4884 7.36009 13.5036L6.79123 13.6786C6.75023 13.6919 6.71064 13.7086 6.67246 13.7286L6.09735 14.0162C6.06924 14.0312 6.04215 14.0478 6.01609 14.0662L5.47223 14.435C5.44397 14.4521 5.41688 14.4708 5.39097 14.4913L4.89712 14.9289C4.87513 14.9485 4.8543 14.9694 4.83461 14.9914L4.38453 15.479C4.36682 15.499 4.35015 15.5198 4.33452 15.5415L3.92819 16.0916C3.91517 16.1057 3.90266 16.1203 3.89068 16.1353L3.50311 16.7479C3.4988 16.7562 3.49463 16.7645 3.49061 16.773L3.08428 17.4543C3.08002 17.4605 3.07586 17.4668 3.07178 17.4731L2.6842 18.1795C2.68211 18.1815 2.68002 18.1836 2.67795 18.1857L2.27788 18.9171C2.27357 18.9254 2.2694 18.9337 2.26537 18.9421L1.89655 19.6735C1.89434 19.6818 1.89225 19.6901 1.8903 19.6985L1.55899 20.4049C1.55461 20.4152 1.55044 20.4256 1.54649 20.4362L1.27769 21.0925C1.27089 21.109 1.26464 21.1257 1.25893 21.1425L1.05264 21.7426C1.04556 21.7632 1.03931 21.7841 1.03389 21.8052L0.88386 22.3803C0.881646 22.3886 0.879562 22.3969 0.877609 22.4053L0.752585 22.9741C0.7503 22.9845 0.748217 22.9949 0.746334 23.0054L0.646315 23.5555C0.644032 23.5659 0.641948 23.5763 0.640064 23.5868L0.56505 24.0993C0.56268 24.1118 0.560596 24.1243 0.558799 24.1369L0.51504 24.6182C0.511449 24.6473 0.509365 24.6764 0.508789 24.7057L0.51504 25.1558C0.514092 25.1976 0.516176 25.2393 0.521291 25.2808L0.590055 25.6997C0.59643 25.7485 0.606849 25.7964 0.62131 25.8434L0.752585 26.2435C0.768088 26.2866 0.786842 26.3283 0.808846 26.3685L1.00263 26.7374C1.0292 26.7883 1.06046 26.8363 1.0964 26.8811L1.3527 27.1999C1.37962 27.2333 1.4088 27.2646 1.44022 27.2937L1.76528 27.5938C1.79305 27.6185 1.82222 27.6414 1.85279 27.6625L2.24037 27.9438C2.27239 27.9668 2.30573 27.9876 2.34039 28.0063L2.80923 28.2689C2.83572 28.2827 2.86281 28.2952 2.89049 28.3064L3.42184 28.5377C3.43426 28.5421 3.44676 28.5463 3.45935 28.5502L4.02821 28.769C4.03648 28.7733 4.04482 28.7774 4.05321 28.7815L4.64083 28.9878C4.65531 28.9923 4.6699 28.9965 4.68458 29.0003L5.29095 29.1816C5.30958 29.1863 5.32833 29.1905 5.34721 29.1941L5.97858 29.3503C6.00549 29.3557 6.03258 29.3598 6.05985 29.3629L6.73497 29.4691C6.74123 29.4692 6.74748 29.4692 6.75373 29.4691L7.47887 29.5691C7.4934 29.5716 7.50799 29.5736 7.52262 29.5754L8.27902 29.6442L9.04791 29.7129C9.05625 29.713 9.06458 29.713 9.07292 29.7129L9.82931 29.7692C9.83556 29.7692 9.84182 29.7692 9.84807 29.7692L10.5857 29.8067C10.5878 29.8088 10.5899 29.8109 10.592 29.8129L11.3171 29.8379C11.3275 29.8381 11.3379 29.8381 11.3484 29.8379L12.0485 29.8504L12.7361 29.8567C12.7403 29.8567 12.7445 29.8567 12.7486 29.8567H13.4175C13.4237 29.8568 13.43 29.8568 13.4362 29.8567L14.0926 29.8442C14.101 29.8443 14.1093 29.8443 14.1176 29.8442L14.749 29.8192C14.7678 29.8176 14.7866 29.8155 14.8053 29.8129L15.3991 29.7504C15.4095 29.7506 15.42 29.7506 15.4304 29.7504L15.9867 29.6754C16.0161 29.6725 16.0453 29.6683 16.0743 29.6629L16.5931 29.5504C16.6036 29.5464 16.614 29.5422 16.6244 29.5379L17.1432 29.4066C17.1557 29.4048 17.1682 29.4027 17.1807 29.4004L17.6933 29.2441C17.7038 29.2422 17.7142 29.2401 17.7246 29.2378L18.2309 29.069C18.2372 29.067 18.2434 29.0649 18.2497 29.0628L18.7498 28.8878C18.7644 28.8839 18.779 28.8798 18.7935 28.8753L19.2811 28.6752C19.2895 28.6712 19.2978 28.667 19.3061 28.6627L19.7875 28.4502C19.8022 28.4443 19.8168 28.438 19.8312 28.4314L20.3126 28.1939C20.3273 28.188 20.3419 28.1817 20.3563 28.1751L20.8064 27.9251C20.8256 27.9132 20.8443 27.9007 20.8627 27.8876L21.2877 27.6125C21.3004 27.6045 21.3129 27.5961 21.3253 27.5875L21.7378 27.2937C21.7593 27.2779 21.7802 27.2612 21.8003 27.2437L22.2192 26.8936C22.2342 26.8795 22.2488 26.8649 22.2629 26.8499L22.6943 26.4435C22.7278 26.4123 22.759 26.379 22.788 26.3435L23.1819 25.8559C23.2115 25.8203 23.2386 25.7828 23.2631 25.7434L23.5944 25.1933C23.6238 25.1433 23.6488 25.0912 23.6694 25.037L23.9007 24.4619C23.9278 24.389 23.9466 24.314 23.957 24.2369L24.0508 23.6555C24.0617 23.5872 24.0659 23.5184 24.0633 23.4492L24.0383 22.8616C24.0353 22.8133 24.0291 22.7653 24.0195 22.7178L23.9132 22.1115C23.9081 22.0841 23.9018 22.057 23.8945 22.0302L23.7257 21.3863C23.7237 21.378 23.7216 21.3696 23.7195 21.3613L23.5319 20.6987C23.526 20.684 23.5197 20.6694 23.5132 20.6549L23.2944 19.9861C23.2848 19.9628 23.2743 19.9399 23.2631 19.9173L23.0006 19.2734C22.9892 19.2458 22.9767 19.2187 22.9631 19.1922L22.6443 18.5858C22.6343 18.5688 22.6239 18.5522 22.613 18.5358L22.2692 17.9544C22.2592 17.9375 22.2488 17.9208 22.2379 17.9044L21.8691 17.3481C21.8462 17.3111 21.8212 17.2757 21.7941 17.2418L21.3503 16.7292C21.3173 16.6913 21.2819 16.6559 21.244 16.6229L20.7001 16.1353C20.6625 16.1035 20.6229 16.0743 20.5814 16.0478L19.9312 15.6102C19.903 15.5901 19.8738 15.5713 19.8437 15.554L19.0811 15.1414C19.0666 15.1348 19.052 15.1286 19.0373 15.1226L18.2309 14.7288C18.2268 14.7267 18.2226 14.7246 18.2184 14.7226L17.412 14.3412C17.3976 14.3326 17.383 14.3242 17.3682 14.3162L16.5368 13.9662C16.5265 13.9618 16.5161 13.9577 16.5056 13.9537L15.6679 13.6286C15.6493 13.6239 15.6305 13.6198 15.6117 13.6161L14.7803 13.3411C14.7719 13.3389 14.7636 13.3368 14.7553 13.3348L13.9426 13.091C13.9281 13.0865 13.9135 13.0824 13.8988 13.0785L13.1174 12.8847C13.1133 12.8826 13.1091 12.8805 13.1049 12.8785L12.3735 12.7034C12.3528 12.6987 12.332 12.6945 12.311 12.6909L11.5984 12.5659C11.5673 12.5604 11.5361 12.5562 11.5046 12.5534L10.7795 12.4846C10.7399 12.4825 10.7003 12.4825 10.6607 12.4846L9.92933 12.4971C9.89808 12.4958 9.86682 12.4958 9.83556 12.4971L9.12918 12.5722C9.07859 12.577 9.02858 12.5853 8.97915 12.5972L8.33528 12.7534C8.28417 12.7642 8.23416 12.7788 8.18525 12.7972L7.6789 13.0035C7.57629 13.0473 7.4846 13.1078 7.40385 13.1848L7.1163 13.4473C7.02714 13.5295 6.96412 13.6283 6.92722 13.7437C6.89033 13.8592 6.88438 13.9763 6.90939 14.0949C6.9344 14.2135 6.98708 14.3182 7.06745 14.4089C7.14782 14.4997 7.24537 14.5646 7.36009 14.6038L7.72891 14.7288C7.81805 14.7595 7.90973 14.7762 8.00397 14.7788L8.54782 14.7976C8.58116 14.7992 8.6145 14.7992 8.64784 14.7976L9.30421 14.7538C9.30838 14.7538 9.31255 14.7538 9.31672 14.7538L9.9981 14.6976L10.6357 14.6913L11.2546 14.7538L11.8922 14.8601L12.5923 15.0289L13.3487 15.2102L14.1239 15.4352L14.9115 15.6852L15.7054 15.9853L16.4993 16.3166L17.2807 16.6854L18.0684 17.0668L18.7685 17.4418L19.3249 17.8107L19.7687 18.1982L20.125 18.5983L20.4438 19.0734L20.7564 19.6047L21.0439 20.1486L21.2877 20.705L21.494 21.3176L21.6816 21.9427L21.8316 22.5366L21.9316 23.0304L21.9504 23.443L21.8941 23.818L21.7441 24.2306L21.519 24.6495L21.2252 25.0308L20.8877 25.3683L20.5314 25.6684L20.1688 25.9247L19.7937 26.1685L19.3936 26.3873L18.9498 26.6061L18.5122 26.7999L18.0559 26.9811L17.5933 27.1437L17.1119 27.2937L16.6244 27.4312L16.143 27.5563L15.6804 27.6563L15.1741 27.725L14.6177 27.7876L14.0239 27.8188L13.3987 27.8438H12.7549L12.0672 27.8376H11.3796L10.667 27.8126L9.94183 27.7938L9.20419 27.7438L8.45405 27.6938L7.72266 27.6188L7.02253 27.5313L6.39116 27.425L5.80355 27.3062L5.24094 27.1499L4.68458 26.9686L4.14073 26.7686L3.64064 26.5686L3.22806 26.3748L2.9155 26.181L2.6717 25.981L2.50917 25.8059L2.39665 25.5996L2.29663 25.3308L2.23412 25.0308L2.20911 24.6807L2.22162 24.2869L2.27788 23.8305L2.37164 23.3054L2.47791 22.7678L2.61544 22.249L2.80298 21.6926L3.05302 21.0738L3.36558 20.3986L3.7219 19.6923L4.11573 18.9609L4.4908 18.267L4.87837 17.6044L5.24094 17.023L5.60351 16.5292L5.99733 16.0853L6.40991 15.6915L6.86625 15.3664L7.34759 15.1039L7.81018 14.9164L8.21651 14.8101L8.53532 14.7851L8.82287 14.8163L9.06667 14.8726L9.27921 14.9414L9.38548 14.9726L9.44174 14.9976C9.51921 15.0348 9.60048 15.0473 9.68554 15.0351L9.71054 15.0289C9.79794 15.0159 9.87087 14.9763 9.92933 14.9101ZM7.16006 13.8161L6.95377 13.8974C6.81313 13.9672 6.77164 14.0751 6.82928 14.2211C6.88692 14.3671 6.99093 14.4176 7.1413 14.3725L7.34759 14.2912C7.48822 14.2215 7.52972 14.1136 7.47208 13.9675C7.41444 13.8215 7.31043 13.771 7.16006 13.8161Z" fill="black"/>
<path d="M4.24703 16.5354C4.24703 16.7479 4.3533 16.8542 4.56584 16.8542C4.77838 16.8542 4.88465 16.7479 4.88465 16.5354C4.88465 16.3228 4.77838 16.2166 4.56584 16.2166C4.3533 16.2166 4.24703 16.3228 4.24703 16.5354ZM4.6096 16.8792L4.6471 16.8729C4.72342 16.865 4.79219 16.8379 4.85339 16.7917L4.97216 16.7042C4.97641 16.7001 4.98058 16.6959 4.98467 16.6917L5.19096 16.5229C5.19519 16.5188 5.19936 16.5146 5.20346 16.5104L5.54727 16.2041C5.5536 16.2 5.55986 16.1958 5.56603 16.1916L6.04112 15.7352C6.04325 15.7311 6.04533 15.7269 6.04737 15.7227L6.62873 15.1414C6.63083 15.1393 6.63291 15.1372 6.63498 15.1351L7.28511 14.46C7.28723 14.4558 7.28931 14.4517 7.29136 14.4475L7.98524 13.6973L8.72288 12.9159L9.47927 12.1345L10.2294 11.3844L10.9858 10.703L11.7109 10.0904L12.3861 9.5778L13.0049 9.14022L13.5676 8.75265L14.1177 8.37132C14.124 8.36725 14.1302 8.36309 14.1364 8.35882L14.674 7.965C14.6761 7.96293 14.6782 7.96084 14.6803 7.95875L15.2491 7.52741L15.843 7.07733L16.4744 6.61474L17.112 6.16465L17.7246 5.73957L18.2935 5.3645L18.8123 5.02069L19.2936 4.71438L19.7437 4.43933L20.1813 4.17678C20.1834 4.17678 20.1855 4.17678 20.1876 4.17678L20.6126 3.92048L21.0002 3.69543L21.3315 3.5079C21.3357 3.50585 21.3399 3.50377 21.344 3.50165L21.6378 3.32661C21.6399 3.32454 21.642 3.32246 21.6441 3.32036L21.9191 3.15158L22.1942 2.9953C22.2005 2.99123 22.2068 2.98706 22.2129 2.9828L22.4692 2.82652L22.688 2.70149L22.9068 2.58272C22.9068 2.58064 22.9068 2.57856 22.9068 2.57647L23.1194 2.46395C23.1299 2.45795 23.1404 2.45169 23.1506 2.4452L23.3319 2.33267L23.5319 2.2264C23.5382 2.2244 23.5445 2.22232 23.5507 2.22015L23.732 2.12013L23.8508 2.06387L23.9508 2.03887L24.0633 2.01386L24.2133 1.98886L24.3759 1.96385L24.5696 1.9576L24.7572 1.9451L24.9572 1.95135L25.1635 1.96385L25.3886 1.99511C25.3906 1.99511 25.3927 1.99511 25.3948 1.99511L25.9324 2.05762C25.9345 2.05762 25.9366 2.05762 25.9387 2.05762L26.2137 2.08888L26.495 2.12013L26.7576 2.15139L27.0076 2.19515L27.2764 2.24516L27.5827 2.30767L27.9015 2.37643C27.9057 2.3765 27.9099 2.3765 27.914 2.37643L28.2328 2.43894L28.5266 2.49521L28.8205 2.57022L29.133 2.65149L29.4331 2.7265L29.6894 2.80777L29.9082 2.88903L30.1082 2.9953L30.302 3.10782L30.4958 3.2516L30.6833 3.39538L30.8458 3.54541L31.0209 3.72669C31.025 3.7309 31.0292 3.73507 31.0334 3.73919L31.2272 3.92673L31.4147 4.12677L31.6147 4.33931L31.7898 4.53309L31.9586 4.72688L32.0961 4.88316L32.1836 5.01443L32.2711 5.16446L32.3399 5.31449L32.4086 5.48953L32.4899 5.72082C32.492 5.725 32.494 5.72917 32.4962 5.73332L32.5774 5.95836L32.6462 6.17716L32.7087 6.42095L32.7587 6.70226L32.8025 7.02732C32.8024 7.03357 32.8024 7.03982 32.8025 7.04607L32.8525 7.38364L32.8962 7.72745C32.8962 7.72954 32.8962 7.73162 32.8962 7.7337L32.94 8.04626L32.965 8.33382L32.9775 8.63387V8.94643C32.9774 8.95477 32.9774 8.9631 32.9775 8.97144L32.9837 9.2715C32.983 9.29233 32.983 9.31317 32.9837 9.33401L33.0088 9.59031C33.01 9.61331 33.0121 9.63623 33.015 9.65907L33.0525 9.87786C33.0545 9.88413 33.0566 9.89039 33.0588 9.89661L33.0963 10.0967L33.1275 10.3029L33.165 10.528C33.1669 10.5384 33.169 10.5489 33.1713 10.5592L33.215 10.8155C33.2204 10.8387 33.2267 10.8616 33.2338 10.8843L33.3026 11.1531C33.3579 11.3552 33.4705 11.5177 33.6401 11.6407L33.8027 11.7657C33.9727 11.8906 34.161 11.9312 34.3674 11.8874C34.5738 11.8436 34.7294 11.7301 34.8341 11.5469L34.9341 11.3719C35.026 11.2177 35.0677 11.051 35.0591 10.8718L35.0404 10.5967C35.0399 10.5654 35.0378 10.5341 35.0341 10.503L34.9904 10.2467C34.9904 10.2404 34.9904 10.2342 34.9904 10.2279L34.9466 10.0029L34.9154 9.78409C34.9119 9.76311 34.9077 9.74228 34.9029 9.72158L34.8591 9.5403L34.8278 9.37777L34.8091 9.19648L34.8028 8.94018V8.61512C34.803 8.60679 34.803 8.59845 34.8028 8.59012L34.7903 8.2463C34.7888 8.22748 34.7868 8.20873 34.7841 8.19004L34.7528 7.85873C34.753 7.84831 34.753 7.83789 34.7528 7.82747L34.7091 7.49616C34.7071 7.48988 34.705 7.48363 34.7028 7.4774L34.6466 7.12109C34.6466 7.11692 34.6466 7.11275 34.6466 7.10858L34.5841 6.75852C34.5841 6.75227 34.5841 6.74601 34.5841 6.73976L34.5153 6.39595C34.5153 6.39178 34.5153 6.38761 34.5153 6.38345L34.4465 6.05838C34.4448 6.04375 34.4427 6.02916 34.4403 6.01463L34.359 5.71457C34.3535 5.6935 34.3473 5.67266 34.3403 5.65206L34.2527 5.38951C34.2488 5.37901 34.2446 5.36859 34.2402 5.35825L34.1465 5.11445L34.059 4.87691C34.055 4.86641 34.0508 4.85599 34.0464 4.84565L33.9589 4.62686C33.9511 4.60993 33.9428 4.59326 33.9339 4.57685L33.8339 4.37056C33.8189 4.34043 33.8023 4.31126 33.7839 4.28305L33.6526 4.07676C33.6465 4.07041 33.6402 4.06416 33.6339 4.058L33.4963 3.85796C33.4771 3.82965 33.4563 3.80256 33.4338 3.7767L33.265 3.58291C33.2589 3.57657 33.2526 3.57031 33.2463 3.56416L33.0588 3.36412C33.0567 3.36412 33.0546 3.36412 33.0525 3.36412L32.8587 3.15783C32.8546 3.15362 32.8504 3.14945 32.8462 3.14533L32.6399 2.93904L32.4399 2.73275C32.4278 2.71986 32.4153 2.70736 32.4024 2.69524L32.1898 2.50771C32.1836 2.50346 32.1774 2.49929 32.1711 2.49521L31.9648 2.32017C31.9587 2.31382 31.9524 2.30757 31.946 2.30142L31.7273 2.12639C31.7231 2.12427 31.7189 2.12218 31.7148 2.12013L31.4897 1.9451C31.4795 1.93651 31.4691 1.92818 31.4585 1.9201L31.2209 1.75757C31.1987 1.74184 31.1758 1.72725 31.1521 1.71381L30.8958 1.57003C30.8814 1.56335 30.8669 1.5571 30.8521 1.55128L30.5895 1.42C30.563 1.40812 30.5359 1.3977 30.5083 1.38874L30.2207 1.28873C30.2043 1.28192 30.1876 1.27567 30.1707 1.26997L29.8707 1.18871C29.8624 1.18649 29.854 1.18441 29.8456 1.18246L29.5268 1.10119C29.5185 1.09897 29.5102 1.09689 29.5018 1.09494L29.1893 1.02618L28.883 0.957413C28.8705 0.95503 28.858 0.952946 28.8455 0.951162L28.5266 0.88865C28.5204 0.888575 28.5141 0.888575 28.5079 0.88865L28.1891 0.83864L27.889 0.78238L27.589 0.719868C27.5848 0.717745 27.5807 0.715662 27.5765 0.713616L27.2889 0.663607C27.2806 0.661386 27.2723 0.659302 27.2639 0.657356L26.9826 0.613597C26.9702 0.611209 26.9577 0.609125 26.9451 0.607346L26.6638 0.57609L26.3887 0.551086L26.1199 0.51983L25.5948 0.444815C25.5886 0.44474 25.5823 0.44474 25.5761 0.444815L25.3198 0.413559C25.3031 0.413022 25.2864 0.413022 25.2698 0.413559L25.026 0.401057C25.0197 0.400982 25.0135 0.400982 25.0072 0.401057L24.7697 0.394806C24.7468 0.393789 24.7238 0.393789 24.7009 0.394806L24.4821 0.407308L24.2633 0.419811C24.2466 0.421353 24.2299 0.423436 24.2133 0.426062L24.007 0.451066C23.9945 0.452844 23.982 0.454928 23.9695 0.457318L23.7882 0.488574C23.7736 0.490241 23.759 0.492326 23.7445 0.494825L23.5757 0.538583C23.5547 0.541893 23.5339 0.546061 23.5132 0.551086L23.3382 0.613597C23.3062 0.622003 23.275 0.632422 23.2444 0.644853L23.0569 0.738621C23.0442 0.744531 23.0317 0.750782 23.0193 0.757375L22.8131 0.869896L22.5943 0.988669C22.5837 0.994674 22.5733 1.00092 22.563 1.00742L22.363 1.12619L22.1629 1.23872L21.9379 1.36374C21.9358 1.36581 21.9337 1.3679 21.9316 1.36999L21.6941 1.50752C21.6857 1.51153 21.6774 1.5157 21.6691 1.52002L21.419 1.6763L21.144 1.83883C21.1377 1.84291 21.1314 1.84707 21.1252 1.85133L20.8502 2.02012L20.5689 2.1889L20.2438 2.37643L19.85 2.60148C19.8458 2.60352 19.8416 2.60561 19.8375 2.60773L19.4062 2.86403L18.9623 3.12658C18.956 3.13065 18.9498 3.13482 18.9436 3.13908L18.481 3.42663C18.4789 3.4287 18.4768 3.43079 18.4747 3.43288L17.9871 3.74544C17.985 3.74752 17.983 3.7496 17.9809 3.75169L17.4558 4.10176C17.4537 4.10383 17.4516 4.10592 17.4495 4.10801L16.8807 4.48934C16.8743 4.49548 16.8681 4.50173 16.8619 4.50809L16.2493 4.95192L15.6054 5.42076C15.6033 5.42283 15.6013 5.42492 15.5992 5.42701L14.9616 5.9021C14.9616 5.90419 14.9616 5.90627 14.9616 5.90836L14.3615 6.36469C14.3594 6.36676 14.3573 6.36885 14.3552 6.37094L13.7988 6.80228L13.28 7.1961L12.7486 7.57117L12.1798 7.965C12.1777 7.96707 12.1756 7.96915 12.1735 7.97125L11.5422 8.42133C11.5358 8.4254 11.5296 8.42957 11.5234 8.43384L10.8358 8.97144C10.8252 8.97742 10.8148 8.98367 10.8045 8.99019L10.0606 9.62156C10.0522 9.62763 10.0438 9.63388 10.0356 9.64032L9.26048 10.3467C9.25411 10.3528 9.24786 10.3591 9.24173 10.3655L8.47283 11.1344C8.46861 11.1385 8.46444 11.1426 8.46033 11.1469L7.69768 11.9408C7.69559 11.9428 7.6935 11.9449 7.69143 11.947L6.95379 12.7347C6.94952 12.7408 6.94536 12.7471 6.94129 12.7534L6.26616 13.5223C6.26406 13.5244 6.26198 13.5265 6.25991 13.5286L5.64729 14.2349L5.11594 14.8538C5.10949 14.862 5.10324 14.8703 5.09719 14.8788L4.69086 15.3914C4.67729 15.4095 4.66479 15.4282 4.65335 15.4477L4.40331 15.8352C4.39409 15.8515 4.38576 15.8681 4.3783 15.8853L4.25953 16.1228C4.24172 16.1607 4.22922 16.2003 4.22202 16.2416L4.19702 16.3853C4.17744 16.4875 4.19411 16.5834 4.24703 16.6729L4.26578 16.7042C4.34282 16.8363 4.45742 16.8946 4.6096 16.8792ZM34.0152 11.4907L34.059 11.672C34.1008 11.8425 34.207 11.907 34.3777 11.8654C34.5483 11.8238 34.613 11.7176 34.5715 11.5469L34.5278 11.3656C34.4859 11.1951 34.3797 11.1306 34.2091 11.1722C34.0384 11.2138 33.9738 11.32 34.0152 11.4907Z" fill="black"/>
<path d="M20.4564 26.6185L20.4815 26.6123C20.5072 26.6088 20.5322 26.6026 20.5565 26.5935L20.6627 26.5498C20.6824 26.5409 20.7011 26.5305 20.719 26.5185L20.9315 26.3872C20.9422 26.3814 20.9526 26.3752 20.9628 26.3685L21.3254 26.0997L21.8817 25.6808L22.6194 25.162L23.5008 24.5619C23.5029 24.5598 23.505 24.5577 23.507 24.5556L24.4635 23.8743C24.4656 23.8722 24.4676 23.8701 24.4697 23.868L25.4574 23.1429C25.4595 23.1408 25.4616 23.1387 25.4636 23.1366L26.4576 22.3927C26.4597 22.3907 26.4618 22.3886 26.4638 22.3865L27.4578 21.6176L28.433 20.8612C28.4372 20.8571 28.4414 20.8529 28.4455 20.8487L29.3519 20.1048C29.3625 20.0967 29.373 20.0884 29.3831 20.0798L30.1833 19.3484C30.1939 19.3403 30.2044 19.332 30.2146 19.3234L30.9209 18.6045C30.9272 18.6004 30.9335 18.5963 30.9397 18.592L31.5961 17.8856L32.2399 17.2042L32.8463 16.5479L33.4027 15.9602C33.4069 15.9541 33.4111 15.9478 33.4152 15.9415L33.8903 15.4101C33.8967 15.4019 33.9029 15.3936 33.909 15.3851L34.3153 14.8975C34.3218 14.8893 34.328 14.881 34.3341 14.8725L34.6842 14.4225C34.6884 14.4163 34.6926 14.41 34.6967 14.4037L35.003 13.9849C35.0094 13.9767 35.0156 13.9683 35.0217 13.9599L35.2843 13.566C35.2864 13.564 35.2884 13.5619 35.2905 13.5598L35.5406 13.1785C35.5427 13.1764 35.5447 13.1743 35.5468 13.1722L35.7844 12.8034C35.7865 12.7992 35.7886 12.7951 35.7906 12.7909L36.0032 12.4533L36.1907 12.1658C36.1995 12.1514 36.2078 12.1369 36.2157 12.122L36.3407 11.897C36.3597 11.8648 36.3763 11.8314 36.3907 11.797L36.447 11.6469C36.4747 11.5806 36.4934 11.5118 36.5033 11.4406L36.5095 11.3656C36.5508 11.0224 36.4257 10.7578 36.1344 10.5717L36.1219 10.5592C35.961 10.4558 35.7854 10.4134 35.5951 10.4321C35.4047 10.4508 35.2407 10.5265 35.103 10.6592L35.078 10.6842C35.021 10.7398 34.9731 10.8023 34.9342 10.8718L34.9029 10.928C34.8964 10.9404 34.8901 10.9529 34.8842 10.9655L34.8529 11.0281L34.8154 11.0968L34.7342 11.2093C34.7299 11.2155 34.7257 11.2218 34.7217 11.2281L34.6341 11.3719L34.5154 11.5344C34.4945 11.5644 34.4758 11.5956 34.4591 11.6282L34.3591 11.8157C34.2914 11.9451 34.2622 12.0826 34.2716 12.2283L34.2778 12.3721C34.2916 12.5846 34.3855 12.7523 34.5596 12.8752C34.7336 12.998 34.9231 13.0304 35.128 12.9722L35.2655 12.9347C35.3953 12.8972 35.5079 12.8305 35.6031 12.7346L35.7531 12.5909C35.7778 12.5653 35.8007 12.5382 35.8219 12.5096L35.9531 12.3408C35.9663 12.3246 35.9788 12.3079 35.9907 12.2908L36.0969 12.1345L36.1844 11.997C36.1908 11.9908 36.197 11.9846 36.2032 11.9782L36.272 11.8657C36.2879 11.8415 36.3024 11.8165 36.3157 11.7907L36.3532 11.7157L36.3782 11.6719C36.3262 11.7264 36.2824 11.7868 36.247 11.8532L36.272 11.8282C36.2041 11.7218 36.1165 11.6356 36.0092 11.5694C35.9018 11.5032 35.7853 11.4637 35.6599 11.4509C35.5344 11.4381 35.4124 11.4533 35.2938 11.4964C35.1753 11.5396 35.0721 11.6064 34.9842 11.6969L34.9967 11.7094C35.0443 11.4877 35.0067 11.2814 34.8842 11.0906L34.8779 11.1156L34.8529 11.1781L34.7779 11.3469L34.6279 11.6157L34.4279 11.9407L34.1966 12.297L33.9528 12.6784C33.9507 12.6804 33.9486 12.6825 33.9465 12.6846L33.6965 13.0722L33.4214 13.466L33.0901 13.9036L32.7025 14.3787L32.2462 14.8975L31.7023 15.4914L31.1022 16.1415L30.4646 16.8167C30.4604 16.8187 30.4562 16.8208 30.4521 16.8229L29.802 17.5293L29.1206 18.2544L28.3705 19.0171L27.5453 19.8297L26.6514 20.6424L25.7137 21.4363L24.7448 22.2052L23.7758 22.9491L22.8444 23.6555C22.8402 23.6575 22.836 23.6596 22.8319 23.6617L22.0005 24.3368C21.9984 24.3368 21.9963 24.3368 21.9942 24.3368L21.2941 24.9245C21.292 24.9245 21.2899 24.9245 21.2879 24.9245L20.7503 25.3808C20.7438 25.3869 20.7376 25.3931 20.7315 25.3995L20.4064 25.7059C20.3953 25.7178 20.3849 25.7303 20.3752 25.7434L20.2127 25.9371C20.1931 25.9602 20.1764 25.9852 20.1626 26.0122L20.1126 26.1122C20.0847 26.1672 20.0722 26.2256 20.0751 26.2872L20.0814 26.3185C20.0855 26.415 20.1253 26.4934 20.2007 26.5537C20.2762 26.6141 20.3614 26.6357 20.4564 26.6185ZM34.4841 12.4846C34.4841 12.5882 34.5207 12.6766 34.594 12.7498C34.6672 12.823 34.7556 12.8597 34.8592 12.8597C34.9628 12.8597 35.0512 12.823 35.1244 12.7498C35.1976 12.6766 35.2343 12.5882 35.2343 12.4846C35.2343 12.381 35.1976 12.2926 35.1244 12.2194C35.0512 12.1461 34.9628 12.1095 34.8592 12.1095C34.7556 12.1095 34.6672 12.1461 34.594 12.2194C34.5207 12.2926 34.4841 12.381 34.4841 12.4846ZM34.6029 12.5533L34.5529 12.6721C34.5205 12.7877 34.5594 12.8693 34.6695 12.917C34.7796 12.9647 34.8658 12.9373 34.928 12.8346L34.978 12.7159C35.0103 12.6003 34.9714 12.5187 34.8613 12.471C34.7512 12.4233 34.6651 12.4507 34.6029 12.5533Z" fill="black"/>
<path d="M33.884 10.0279L33.9278 9.99037C33.9413 9.97889 33.9538 9.96639 33.9653 9.95286L34.0028 9.91536L34.009 9.9091H34.0215C34.0876 9.89905 34.1501 9.87822 34.2091 9.84659L34.3216 9.79033C34.4052 9.74488 34.4761 9.68446 34.5341 9.60905L34.5779 9.55904L34.5904 9.54654C34.448 9.45417 34.2922 9.41557 34.1231 9.43073C33.9541 9.44588 33.8077 9.51158 33.684 9.6278L33.7402 9.66531C33.6878 9.59621 33.6252 9.53786 33.5527 9.49027L33.6215 9.57779L33.709 9.71532L33.834 9.98412C33.8361 9.98621 33.8381 9.9883 33.8402 9.99037L34.009 10.3342L34.1341 10.6467L34.2028 10.9468L34.2278 11.2656L34.2028 11.6219L34.1403 11.9595L34.0403 12.2783L33.9153 12.5784L33.7652 12.8659L33.5839 13.1535L33.3777 13.4473L33.1776 13.7161L32.9588 13.9849L32.7088 14.2849L32.4087 14.635L32.0774 15.0163L31.7086 15.4414L31.3023 15.8977L30.8709 16.3853C30.8667 16.3874 30.8626 16.3895 30.8584 16.3916L30.4271 16.8917L30.0083 17.3668C30.0062 17.3688 30.0041 17.3709 30.002 17.373L29.6144 17.8231L29.2269 18.2607L28.8268 18.6858L28.408 19.1046L27.9829 19.5047L27.5703 19.8798L27.164 20.2298L26.7701 20.5611L26.3826 20.8737C26.3805 20.8758 26.3784 20.8778 26.3763 20.8799L26.02 21.1737L25.6512 21.4551L24.8885 22.0364L24.5072 22.324L24.1321 22.6053L23.7758 22.8678C23.7737 22.8699 23.7717 22.872 23.7696 22.8741L23.432 23.1304C23.4278 23.1345 23.4236 23.1387 23.4195 23.1429L23.107 23.3867L22.7944 23.6117C22.7923 23.6138 22.7902 23.6159 22.7881 23.618L22.4881 23.8368L22.2005 24.0493C22.1921 24.0533 22.1838 24.0575 22.1755 24.0618L21.9005 24.2743L21.6192 24.4744C21.6086 24.4804 21.5982 24.4867 21.5879 24.4931L21.3254 24.6994C21.3232 24.7036 21.3212 24.7077 21.3191 24.7119L21.0753 24.9057L20.8628 25.0745C20.8607 25.0745 20.8586 25.0745 20.8565 25.0745L20.694 25.2058L20.569 25.2933C20.5669 25.2954 20.5648 25.2974 20.5627 25.2995L20.4689 25.3683L20.4064 25.4121C20.3591 25.4454 20.3153 25.4829 20.2752 25.5246L20.2502 25.5496C20.1015 25.7035 20.0187 25.8871 20.0019 26.1004C19.9851 26.3137 20.038 26.508 20.1607 26.6833C20.2834 26.8586 20.4479 26.9749 20.6541 27.0321C20.8603 27.0893 21.0611 27.0744 21.2566 26.9874L21.2879 26.9749C21.292 26.9728 21.2962 26.9707 21.3004 26.9686L21.4316 26.9123C21.4595 26.8992 21.4866 26.8846 21.5129 26.8686L21.7504 26.7311C21.761 26.725 21.7714 26.7188 21.7817 26.7123L22.1193 26.4935C22.1277 26.4895 22.136 26.4853 22.1443 26.481L22.5819 26.181C22.5839 26.1789 22.586 26.1768 22.5881 26.1747L23.1257 25.7996C23.1278 25.7976 23.1299 25.7955 23.132 25.7934L23.7571 25.3558L24.4385 24.8807C24.4405 24.8786 24.4426 24.8765 24.4447 24.8745L25.1636 24.3681C25.1657 24.366 25.1678 24.364 25.1698 24.3619L25.9137 23.8243C25.92 23.8202 25.9263 23.816 25.9325 23.8118L26.7139 23.2179C26.7202 23.2117 26.7265 23.2055 26.7326 23.1991L27.5328 22.549C27.537 22.547 27.5411 22.5449 27.5453 22.5428L28.3454 21.8676C28.3475 21.8656 28.3496 21.8635 28.3517 21.8614L29.1206 21.1925C29.1248 21.1905 29.1289 21.1884 29.1331 21.1863L29.8582 20.5424C29.8624 20.5383 29.8666 20.5341 29.8707 20.5299L30.5646 19.8798C30.571 19.8736 30.5772 19.8673 30.5834 19.861L31.2397 19.2109C31.2461 19.2047 31.2523 19.1985 31.2585 19.1921L31.8711 18.5482C31.8775 18.54 31.8838 18.5317 31.8899 18.5232L32.44 17.8981C32.4485 17.8879 32.4569 17.8775 32.465 17.8669L32.9713 17.2418C32.9777 17.2335 32.984 17.2252 32.9901 17.2167L33.4714 16.5791C33.4778 16.5709 33.4841 16.5626 33.4902 16.5541L33.9465 15.8977C33.9486 15.8936 33.9507 15.8894 33.9528 15.8852L34.3966 15.2414C34.3987 15.2393 34.4008 15.2372 34.4029 15.2351L34.8092 14.6163C34.8113 14.6142 34.8134 14.6121 34.8154 14.61L35.5593 13.4848C35.5636 13.4786 35.5677 13.4723 35.5718 13.466L35.8719 12.9784C35.8828 12.9621 35.8932 12.9454 35.9031 12.9284L36.1344 12.4908C36.1505 12.4624 36.1651 12.4333 36.1782 12.4033L36.347 11.9908C36.3618 11.954 36.3743 11.9165 36.3845 11.8782L36.4845 11.5094C36.4921 11.4805 36.4984 11.4514 36.5033 11.4219L36.5533 11.0843C36.5592 11.0512 36.5633 11.0179 36.5658 10.9843L36.5845 10.6717C36.585 10.6551 36.585 10.6384 36.5845 10.6217L36.5908 10.3592L36.597 10.1154C36.5992 10.1092 36.6012 10.1029 36.6033 10.0966L36.6095 9.83409C36.6099 9.81742 36.6099 9.80075 36.6095 9.78408L36.597 9.52153C36.5973 9.48182 36.5952 9.44222 36.5908 9.40276L36.547 9.12771C36.5427 9.09194 36.5364 9.05652 36.5283 9.02144L36.4595 8.75889C36.4521 8.73355 36.4438 8.70855 36.4345 8.68387L36.3407 8.40882L36.247 8.14002C36.2449 8.13584 36.2428 8.13167 36.2407 8.12752L36.1407 7.85246L36.0469 7.54616C36.0411 7.52932 36.0348 7.51265 36.0282 7.49615L35.8969 7.14608C35.8873 7.12277 35.8769 7.09985 35.8656 7.07732L35.6906 6.69599C35.6827 6.6791 35.6744 6.66243 35.6656 6.64598L35.4531 6.24591C35.449 6.23961 35.4448 6.23336 35.4405 6.22715L35.2093 5.81458L34.9905 5.40825L34.8029 4.99567L34.6404 4.55184L34.4779 4.03924C34.4628 3.98988 34.444 3.94195 34.4216 3.89546L34.1716 3.39537C34.0909 3.23667 33.9743 3.11164 33.8215 3.02029L33.4214 2.7765C33.3782 2.74996 33.3323 2.72913 33.2839 2.71399L33.0151 2.63272L32.8526 2.40143C32.745 2.27249 32.6223 2.25591 32.4844 2.35167C32.3465 2.44743 32.3192 2.5682 32.4025 2.71399L32.5525 2.93278L32.5025 3.17657C32.4999 3.19108 32.4978 3.20567 32.4962 3.22033L32.4337 3.68917C32.4218 3.7746 32.4218 3.86004 32.4337 3.94547L32.515 4.49557C32.5184 4.51864 32.5225 4.54156 32.5275 4.56434L32.6463 5.10819C32.6564 5.14853 32.6689 5.18813 32.6838 5.22696L32.8651 5.73331C32.8742 5.76295 32.8846 5.79212 32.8963 5.82083L33.1151 6.30217C33.1249 6.32124 33.1354 6.34 33.1464 6.35843L33.3839 6.81477C33.392 6.82535 33.4004 6.83577 33.4089 6.84602L33.6402 7.2461L33.834 7.60242L33.9965 7.92748L34.1153 8.21503L34.2091 8.50884C34.213 8.52142 34.2172 8.53392 34.2216 8.54635L34.3341 8.8339C34.3361 8.83808 34.3382 8.84225 34.3403 8.8464L34.4404 9.10895L34.5341 9.34025L34.5904 9.53403L34.6341 9.73407L34.6654 9.92161L34.6779 10.1029V10.3154L34.6717 10.5655L34.6529 10.8343L34.6216 11.0906L34.5529 11.3656L34.4404 11.6844L34.2591 12.047L34.0028 12.5033L33.2839 13.6161L32.8901 14.2287L32.4587 14.8725L32.0211 15.5102L31.5648 16.129L31.0772 16.7229L30.5459 17.323L29.9645 17.9481L29.3331 18.5733L28.6518 19.1984L27.9391 19.836L27.1765 20.4986L26.3888 21.1675L25.6137 21.8051L24.8573 22.3802L24.1259 22.9053L23.4133 23.4054L22.7256 23.8805C22.7235 23.8826 22.7215 23.8847 22.7194 23.8868L22.0943 24.3243L21.5629 24.6994L21.1378 24.9932L20.8315 25.1933L20.6377 25.3058L20.5315 25.3558C20.5613 25.3448 20.5905 25.3323 20.619 25.3183L20.5877 25.3308C20.3599 25.4118 20.1925 25.5608 20.0855 25.7777C19.9786 25.9946 19.9624 26.2181 20.0368 26.4482C20.1112 26.6783 20.2553 26.8499 20.469 26.963C20.6828 27.0762 20.9057 27.0989 21.1378 27.0311L21.1753 27.0186C21.2453 26.9995 21.3119 26.9724 21.3754 26.9373L21.4504 26.8936C21.4652 26.8857 21.4798 26.8773 21.4941 26.8686L21.5942 26.7998C21.6134 26.788 21.6321 26.7755 21.6504 26.7623L21.7942 26.656C21.7984 26.6519 21.8026 26.6477 21.8067 26.6435L21.9817 26.506L22.1943 26.3497C22.2071 26.3396 22.2196 26.3292 22.2318 26.3185L22.4631 26.1247L22.6944 25.9372L22.9694 25.7434C22.9778 25.7393 22.9862 25.7352 22.9944 25.7309L23.2632 25.5183L23.5508 25.3183C23.555 25.3162 23.5591 25.3142 23.5633 25.312L23.8696 25.087C23.8717 25.0849 23.8738 25.0828 23.8758 25.0807L24.1947 24.8432C24.2031 24.8371 24.2114 24.8308 24.2197 24.8244L24.5385 24.5744L24.8635 24.3306L25.2136 24.0743C25.2178 24.0702 25.222 24.066 25.2261 24.0618L25.6012 23.7805C25.6033 23.7805 25.6053 23.7805 25.6074 23.7805L25.9887 23.4804L26.7576 22.8928C26.7618 22.8908 26.766 22.8887 26.7701 22.8866L27.1452 22.5865C27.1473 22.5844 27.1494 22.5824 27.1515 22.5803L27.5203 22.2865C27.5224 22.2844 27.5245 22.2823 27.5265 22.2802L27.9141 21.9614C27.9183 21.9573 27.9225 21.9531 27.9266 21.9489L28.3329 21.6051C28.335 21.6051 28.3371 21.6051 28.3392 21.6051L28.7643 21.2425C28.7706 21.2364 28.7769 21.2301 28.783 21.2238L29.2081 20.8362C29.2081 20.8341 29.2081 20.832 29.2081 20.8299L29.6519 20.4236C29.6626 20.4134 29.673 20.403 29.6832 20.3924L30.1208 19.9548C30.125 19.9506 30.1292 19.9465 30.1333 19.9423L30.5521 19.4984C30.5606 19.4903 30.569 19.4819 30.5771 19.4734L30.9772 19.0233C30.9793 19.0213 30.9814 19.0192 30.9834 19.0171L31.371 18.567L31.7899 18.0919L32.2274 17.5981L32.6588 17.1105C32.663 17.1084 32.6671 17.1063 32.6713 17.1042L33.0713 16.6416L33.4464 16.2228C33.4507 16.2166 33.4548 16.2104 33.4589 16.2041L33.7902 15.8165C33.7944 15.8124 33.7986 15.8082 33.8027 15.804L34.0903 15.4477L34.3466 15.1414C34.3487 15.1414 34.3508 15.1414 34.3528 15.1414L34.5904 14.86C34.5968 14.8518 34.603 14.8435 34.6091 14.835L34.8404 14.5412C34.849 14.531 34.8573 14.5206 34.8654 14.51L35.0905 14.1974C35.0991 14.1851 35.1075 14.1726 35.1155 14.1599L35.328 13.8286C35.3436 13.8063 35.3582 13.7834 35.3718 13.7598L35.5593 13.4035C35.5707 13.381 35.5811 13.3581 35.5906 13.3348L35.7531 12.9534C35.7675 12.9208 35.7801 12.8875 35.7906 12.8534L35.9156 12.4408C35.9256 12.41 35.934 12.3788 35.9406 12.3471L36.0219 11.9032C36.0284 11.866 36.0326 11.8285 36.0344 11.7907L36.0657 11.3219C36.067 11.2759 36.0649 11.23 36.0594 11.1843L36.0219 10.728C36.0171 10.6815 36.0088 10.6357 35.9969 10.5905L35.8844 10.1529C35.8738 10.1038 35.8592 10.0558 35.8406 10.0091L35.6656 9.6028C35.6508 9.57056 35.6341 9.5393 35.6156 9.50903L35.4093 9.15271C35.3804 9.10366 35.347 9.05782 35.3093 9.01518L35.078 8.75263C35.0404 8.70873 34.9987 8.66914 34.953 8.63386L34.7467 8.48383C34.6999 8.44916 34.6499 8.41999 34.5966 8.39632L34.4654 8.33381C34.3557 8.28576 34.2411 8.26492 34.1215 8.27129H34.0528C33.6929 8.2862 33.4657 8.46748 33.3714 8.81515L33.3527 8.88391C33.3381 8.93713 33.3297 8.9913 33.3276 9.04644V9.16521C33.3239 9.23283 33.3301 9.29951 33.3464 9.36525L33.3777 9.48402C33.3928 9.53952 33.4158 9.59161 33.4464 9.6403L33.5027 9.72782C33.5047 9.63951 33.4818 9.55825 33.4339 9.48402V9.57779L33.4152 9.6403C33.4127 9.64856 33.4107 9.65689 33.4089 9.66531L33.3902 9.71532C33.3517 9.86017 33.3957 9.97268 33.5224 10.0528C33.649 10.133 33.7696 10.1247 33.884 10.0279Z" fill="black"/>
<path d="M4.90963 15.2789H4.90338C4.94379 15.2936 4.98546 15.2998 5.0284 15.2976H5.0159C4.82082 15.2194 4.67939 15.2758 4.59159 15.4668C4.5038 15.6577 4.55308 15.8018 4.73944 15.8989C4.9258 15.9961 5.07213 15.954 5.17843 15.7727L5.18468 15.7602C5.21298 15.712 5.22756 15.6599 5.22844 15.6039V15.5977C5.23023 15.5089 5.19974 15.4331 5.13696 15.3704C5.07417 15.3076 4.9984 15.2771 4.90963 15.2789ZM4.46579 15.6102C4.46579 15.7207 4.50485 15.815 4.58297 15.8931C4.66109 15.9712 4.75539 16.0103 4.86587 16.0103C4.97635 16.0103 5.07065 15.9712 5.14877 15.8931C5.22689 15.815 5.26595 15.7207 5.26595 15.6102C5.26595 15.4997 5.22689 15.4054 5.14877 15.3273C5.07065 15.2492 4.97635 15.2101 4.86587 15.2101C4.75539 15.2101 4.66109 15.2492 4.58297 15.3273C4.50485 15.4054 4.46579 15.4997 4.46579 15.6102ZM4.94088 16.0415L4.97214 16.0353C5.08513 16.0181 5.18099 15.9681 5.25969 15.8852L5.35971 15.779C5.36185 15.7748 5.36394 15.7707 5.36596 15.7665L5.5285 15.5852L5.8098 15.2976L6.20988 14.8976C6.21415 14.8914 6.21832 14.8851 6.22238 14.8788L6.70372 14.3725L7.23507 13.8036L7.82893 13.2035L8.49156 12.5909L9.2167 11.972L9.94809 11.3719C9.95231 11.3678 9.95648 11.3636 9.96059 11.3594L10.6107 10.7968C10.6258 10.7849 10.6404 10.7724 10.6545 10.7593L11.1546 10.2467C11.1632 10.2386 11.1715 10.2303 11.1796 10.2217L11.5609 9.78409C11.5609 9.782 11.5609 9.77992 11.5609 9.77784L11.8735 9.42152C11.8927 9.40044 11.9093 9.37752 11.9235 9.35275L12.0547 9.10271L12.211 8.99019C12.336 8.8985 12.3527 8.79015 12.261 8.66512C12.1693 8.5401 12.061 8.52343 11.936 8.61511L11.7797 8.72764L11.4984 8.7839C11.4655 8.79229 11.4342 8.80479 11.4046 8.8214L10.9795 9.0402C10.9732 9.04215 10.967 9.04423 10.9608 9.04645L10.4544 9.34025C10.446 9.34422 10.4377 9.34839 10.4294 9.35275L9.82306 9.73408C9.81239 9.7421 9.80197 9.75043 9.79181 9.75908L9.09793 10.2592C9.08734 10.2652 9.07693 10.2714 9.06667 10.2779L8.31653 10.8718C8.31016 10.8779 8.30391 10.8842 8.29777 10.8905L7.56013 11.5219C7.55382 11.526 7.54756 11.5302 7.54138 11.5344L6.85375 12.1658C6.84301 12.1759 6.83259 12.1863 6.82249 12.197L6.22238 12.8159C6.21375 12.8261 6.20541 12.8365 6.19737 12.8472L5.67227 13.441C5.66129 13.4552 5.65087 13.4698 5.64102 13.4848L5.22219 14.0474C5.21574 14.0556 5.20948 14.0639 5.20343 14.0724L4.89087 14.5475C4.88651 14.5557 4.88234 14.5641 4.87837 14.5725L4.66583 14.9163L4.52831 15.1289C4.51136 15.1547 4.49677 15.1818 4.48455 15.2101L4.42829 15.3476C4.36002 15.5084 4.37252 15.6626 4.46579 15.8102L4.48455 15.8415C4.59234 16.0093 4.74446 16.0759 4.94088 16.0415Z" fill="black"/>
<path d="M5.00944 26.6192L5.0407 26.5379C5.0452 26.5298 5.04937 26.5214 5.0532 26.5129L5.09696 26.3816C5.10176 26.3694 5.10592 26.3569 5.10946 26.3441L5.15322 26.1504C5.15707 26.1276 5.15915 26.1047 5.15947 26.0816L5.17823 25.8315C5.18037 25.8274 5.18246 25.8232 5.18448 25.819L5.19698 25.5252L5.25949 25.1502L5.35326 24.6563L5.50954 24.0625L5.74708 23.3623L6.0784 22.5559L6.54724 21.6495L7.1286 20.6743L7.84748 19.6866L8.69139 18.7427L9.56656 17.93L10.448 17.3674L11.2731 17.1549C11.3838 17.099 11.4237 17.0109 11.3928 16.8909C11.3619 16.7708 11.2845 16.7129 11.1606 16.7173L10.298 16.9361L9.21649 17.2111C9.18367 17.2197 9.15242 17.2322 9.12273 17.2487L8.01627 17.855C7.9706 17.8785 7.92892 17.9077 7.89124 17.9425L6.94731 18.8677C6.92448 18.8911 6.90364 18.9161 6.8848 18.9427L6.12216 19.9679C6.10881 19.984 6.09631 20.0006 6.08465 20.0179L5.47828 21.0306C5.47161 21.0429 5.46536 21.0554 5.45953 21.0681L4.97194 22.0121C4.96497 22.0285 4.95871 22.0451 4.95318 22.0621L4.60312 22.9122C4.59614 22.9286 4.58989 22.9453 4.58436 22.9622L4.35307 23.7061C4.34547 23.7287 4.33922 23.7516 4.33432 23.7749L4.20929 24.425C4.20559 24.4499 4.2035 24.4749 4.20304 24.5L4.17804 25.0314C4.17601 25.0585 4.17601 25.0856 4.17804 25.1127L4.22179 25.5065L4.2343 25.819C4.23603 25.8295 4.23811 25.8399 4.24055 25.8503L4.2718 26.1066C4.27419 26.1298 4.27835 26.1528 4.28431 26.1754L4.34057 26.3691C4.34258 26.3733 4.34466 26.3775 4.34682 26.3816L4.39058 26.5129C4.39441 26.5214 4.39858 26.5298 4.40308 26.5379L4.43433 26.6192C4.48831 26.7459 4.58416 26.8093 4.72189 26.8093C4.85962 26.8093 4.95547 26.7459 5.00944 26.6192Z" fill="black"/>
<path d="M8.56643 17.7175C8.56643 17.809 8.59878 17.8871 8.66347 17.9517C8.72817 18.0164 8.80626 18.0488 8.89775 18.0488C8.98924 18.0488 9.06733 18.0164 9.13202 17.9517C9.19671 17.8871 9.22906 17.809 9.22906 17.7175C9.22906 17.626 9.19671 17.5479 9.13202 17.4832C9.06733 17.4185 8.98924 17.3862 8.89775 17.3862C8.80626 17.3862 8.72817 17.4185 8.66347 17.4832C8.59878 17.5479 8.56643 17.626 8.56643 17.7175ZM8.56643 17.7175C8.56643 17.8107 8.59939 17.8903 8.6653 17.9562C8.73122 18.0221 8.81078 18.055 8.904 18.055C8.99721 18.055 9.07678 18.0221 9.14269 17.9562C9.20861 17.8903 9.24156 17.8107 9.24156 17.7175C9.24156 17.6243 9.20861 17.5447 9.14269 17.4788C9.07678 17.4129 8.99721 17.3799 8.904 17.3799C8.81078 17.3799 8.73122 17.4129 8.6653 17.4788C8.59939 17.5447 8.56643 17.6243 8.56643 17.7175ZM8.82898 18.0675L8.9165 18.0925C8.96964 18.1078 9.02382 18.114 9.07903 18.1113L9.30407 18.105C9.33988 18.1041 9.3753 18.0999 9.41035 18.0925L9.7104 18.03L10.0917 17.9738L10.5418 17.9675L11.0857 18.0613L11.7045 18.2551L12.3859 18.5301L13.0798 18.8177L13.7174 19.0802L14.255 19.324L14.6801 19.5803L15.0114 19.8804L15.299 20.2242L15.574 20.6368C15.5761 20.6389 15.5782 20.641 15.5803 20.643L15.8678 21.0619C15.9503 21.1847 16.0628 21.266 16.2054 21.3057L16.4054 21.3557L16.5117 21.6057C16.5742 21.7516 16.6784 21.7932 16.8243 21.7307C16.9701 21.6682 17.0118 21.564 16.9493 21.4182L16.8305 21.1556L16.9118 20.9556C16.9799 20.7912 16.9757 20.6287 16.8993 20.468L16.6805 20.0054C16.6679 19.9773 16.6533 19.9502 16.6367 19.9241L16.3429 19.4866C16.3312 19.4693 16.3187 19.4526 16.3054 19.4366L15.9678 19.0302C15.9469 19.0034 15.924 18.9784 15.8991 18.9552L15.4865 18.5926C15.4556 18.5644 15.4223 18.5393 15.3865 18.5176L14.8801 18.2176C14.8619 18.2062 14.8432 18.1958 14.8239 18.1863L14.2425 17.9175C14.2343 17.9132 14.2259 17.909 14.2175 17.905L13.5674 17.6362L12.8798 17.3424C12.8777 17.3424 12.8756 17.3424 12.8735 17.3424L12.1671 17.0548C12.1507 17.0479 12.134 17.0417 12.1171 17.0361L11.4357 16.8173C11.4051 16.8066 11.3738 16.7983 11.342 16.7923L10.6981 16.686C10.6587 16.6803 10.6191 16.6782 10.5793 16.6798L10.0292 16.686C9.98904 16.6886 9.94945 16.6948 9.91044 16.7048L9.46661 16.7985C9.41909 16.8079 9.37324 16.8224 9.32908 16.8423L9.02902 16.9861C8.9602 17.0182 8.89977 17.062 8.84774 17.1174L8.69771 17.2799C8.63736 17.3463 8.59777 17.4234 8.57894 17.5112L8.56018 17.5987C8.53584 17.7001 8.54961 17.796 8.60148 17.8865C8.65334 17.977 8.72918 18.0373 8.82898 18.0675Z" fill="black"/>
<path d="M10.9544 23.2498L10.9607 23.256C11.0209 23.3234 11.0962 23.3587 11.1865 23.3621C11.2768 23.3654 11.3545 23.3357 11.4195 23.2731C11.4846 23.2104 11.5171 23.1338 11.5171 23.0435C11.5171 22.9531 11.4846 22.8766 11.4195 22.8139C11.3545 22.7512 11.2768 22.7215 11.1865 22.7249C11.0962 22.7282 11.0209 22.7636 10.9607 22.8309L10.9544 22.8372C10.8336 22.9747 10.8336 23.1122 10.9544 23.2498ZM10.8732 23.1122L10.8794 23.1497C10.8891 23.2147 10.9141 23.273 10.9544 23.3248L10.9919 23.3685C11.028 23.4134 11.0718 23.4488 11.1232 23.4748L11.192 23.5123C11.2337 23.532 11.2774 23.5445 11.3232 23.5498L11.4045 23.5623C11.4839 23.5756 11.561 23.5672 11.6358 23.5373L11.7296 23.4936C11.7755 23.4756 11.8171 23.4506 11.8546 23.4185L11.9546 23.3248C11.9957 23.2893 12.0291 23.2476 12.0546 23.1998L12.1359 23.0372C12.1458 23.017 12.1542 22.9962 12.1609 22.9747L12.2297 22.7559C12.2398 22.7233 12.2461 22.69 12.2484 22.6559L12.2797 22.3558C12.2801 22.3286 12.278 22.3015 12.2734 22.2746L12.2422 21.937C12.2404 21.9096 12.2363 21.8825 12.2297 21.8557L12.1234 21.4869C12.1142 21.4544 12.1017 21.4231 12.0859 21.3932L11.8984 21.0431C11.881 21.0095 11.8602 20.9782 11.8358 20.9493L11.5733 20.6493C11.5456 20.6163 11.5144 20.5871 11.4795 20.5618L11.1545 20.3367C11.1231 20.3144 11.0898 20.2957 11.0544 20.2804L10.6919 20.1242C10.6278 20.0975 10.5612 20.0829 10.4918 20.0804L10.1043 20.0617C10.0247 20.0586 9.94755 20.0711 9.87297 20.0992L9.4854 20.2429C9.41317 20.2701 9.34857 20.3097 9.29161 20.3617L8.93529 20.6805C8.89943 20.7142 8.86817 20.7517 8.84153 20.793L8.53522 21.2431C8.5121 21.2807 8.49335 21.3202 8.47896 21.3619L8.26642 21.9058C8.25555 21.9363 8.24721 21.9676 8.24141 21.9995L8.12264 22.5684C8.11455 22.6076 8.11039 22.6472 8.11014 22.6872L8.10388 23.2623C8.10376 23.3044 8.10792 23.346 8.11639 23.3873L8.22266 23.9249C8.23389 23.9817 8.25264 24.0359 8.27892 24.0874L8.52897 24.575C8.5571 24.6302 8.59253 24.6802 8.63524 24.725L9.04156 25.1501C9.08723 25.1998 9.13932 25.2415 9.19784 25.2751L9.79171 25.6065C9.83168 25.6274 9.87335 25.6441 9.91673 25.6565L10.6919 25.9003C10.7307 25.9122 10.7703 25.9205 10.8106 25.9253L11.7421 26.0378C11.7711 26.0418 11.8003 26.0439 11.8296 26.044L12.7985 26.0315C12.8514 26.0318 12.9035 26.0255 12.9548 26.0128L13.8862 25.769C13.9163 25.761 13.9454 25.7505 13.9738 25.7377L14.8302 25.3502C14.8657 25.3329 14.8991 25.312 14.9302 25.2877L15.6491 24.7626C15.7067 24.7219 15.7547 24.6719 15.7928 24.6125L16.2304 23.9061C16.2456 23.8825 16.2581 23.8575 16.2679 23.8311L16.5055 23.1497L16.7493 22.6246C16.7795 22.5047 16.7386 22.4184 16.6266 22.3659C16.5145 22.3134 16.4221 22.3371 16.3492 22.4371L16.1117 22.931L15.6428 23.406L15.0114 23.8874L14.3363 24.3562L13.5987 24.6625L12.7673 24.7563L11.8796 24.7188L11.0357 24.6063L10.3668 24.4062L9.90423 24.1624L9.60417 23.8811L9.42289 23.5623L9.32912 23.1873L9.32287 22.7434L9.41038 22.2808L9.57291 21.8495L9.79171 21.5182L10.0105 21.3181L10.2043 21.2431L10.4106 21.2369L10.6419 21.2931L10.8669 21.4182L11.0732 21.612L11.2295 21.8432L11.3295 22.1058L11.3795 22.3558L11.3733 22.5434L11.3358 22.6747L11.3045 22.7372L11.3358 22.7184H11.3483H11.3232L11.292 22.7122C11.2753 22.711 11.2587 22.711 11.242 22.7122H11.2045C11.0999 22.7146 11.0142 22.756 10.9475 22.8366C10.8808 22.9172 10.856 23.009 10.8732 23.1122Z" fill="black"/>
<path d="M15.6366 21.0369C15.6366 21.2411 15.7387 21.3432 15.9429 21.3432C16.1471 21.3432 16.2492 21.2411 16.2492 21.0369C16.2492 20.8327 16.1471 20.7306 15.9429 20.7306C15.7387 20.7306 15.6366 20.8327 15.6366 21.0369ZM15.6303 21.0369C15.6303 21.2494 15.7366 21.3557 15.9491 21.3557C16.1617 21.3557 16.2679 21.2494 16.2679 21.0369C16.2679 20.8243 16.1617 20.7181 15.9491 20.7181C15.7366 20.7181 15.6303 20.8243 15.6303 21.0369ZM15.6678 21.2119L15.6741 21.2244V21.2182V21.2869C15.674 21.2911 15.674 21.2953 15.6741 21.2994L15.6928 21.5057C15.6947 21.5141 15.6968 21.5224 15.6991 21.5307L15.7303 21.787L15.7428 22.0933L15.7366 22.4496C15.737 22.4748 15.7391 22.4998 15.7428 22.5247L15.7804 22.8185L15.7741 23.081L15.7616 23.231L15.6803 23.3248C15.5845 23.4373 15.5928 23.5415 15.7053 23.6374C15.8179 23.7332 15.922 23.7249 16.0179 23.6124L16.1242 23.4936L16.293 23.3936C16.3319 23.3709 16.3653 23.3417 16.393 23.3061L16.5743 23.0748C16.5882 23.057 16.6007 23.0382 16.6118 23.0185L16.7743 22.731C16.8044 22.6781 16.8252 22.6218 16.8368 22.5622L16.9118 22.1996C16.9193 22.154 16.9214 22.1082 16.9181 22.0621L16.9056 21.712C16.9038 21.6609 16.8954 21.6109 16.8806 21.562L16.793 21.2869C16.7683 21.2096 16.7287 21.1408 16.6743 21.0806L16.5305 20.9244C16.4977 20.8875 16.4602 20.8562 16.418 20.8306L16.2992 20.7618C16.2563 20.737 16.2105 20.7204 16.1617 20.7118L16.0804 20.6993C16.0556 20.6947 16.0306 20.6926 16.0054 20.6931H15.9616C15.8313 20.6978 15.734 20.7569 15.6698 20.8704C15.6055 20.9839 15.6049 21.0977 15.6678 21.2119Z" fill="black"/>
</g>
<defs>
<clipPath id="clip0_1_7407">
<rect width="37" height="30" fill="white"/>
</clipPath>
</defs>
</svg>
