<svg width="28" height="40" viewBox="0 0 28 40" fill="none" xmlns="http://www.w3.org/2000/svg">
<g clip-path="url(#clip0_1_7343)">
<path d="M13.6275 28.796L13.5659 28.9399C13.561 28.9489 13.5564 28.958 13.5522 28.9673L13.47 29.2208C13.4618 29.2409 13.455 29.2615 13.4494 29.2825L13.3398 29.81C13.3337 29.8348 13.3291 29.86 13.3261 29.8854L13.2507 30.7897C13.2482 30.7988 13.246 30.8079 13.2439 30.8171L13.2028 31.9407C13.2027 31.9453 13.2027 31.9499 13.2028 31.9544L13.1754 33.126C13.1753 33.1283 13.1753 33.1306 13.1754 33.1329L13.1617 34.2153C13.1616 34.2199 13.1616 34.2245 13.1617 34.2291L13.1685 35.154C13.1705 35.1655 13.1728 35.1769 13.1754 35.1882L13.2233 35.9213C13.2224 35.9396 13.2224 35.9578 13.2233 35.9761L13.3055 36.5105C13.3095 36.5244 13.3141 36.5381 13.3192 36.5516L13.4015 36.8873C13.4558 37.1036 13.5944 37.209 13.8173 37.2033C14.0403 37.1977 14.1734 37.0855 14.2167 36.8668L14.2853 36.5379C14.2881 36.5243 14.2904 36.5106 14.2921 36.4968L14.3606 35.9624C14.3611 35.9487 14.3611 35.935 14.3606 35.9213L14.4086 35.1882C14.4088 35.1791 14.4088 35.17 14.4086 35.1608L14.436 34.2359L14.4634 33.1603L14.5045 31.9887L14.5456 30.8651C14.5456 30.8628 14.5456 30.8605 14.5456 30.8582L14.5593 29.9539C14.5611 29.9265 14.5611 29.8991 14.5593 29.8717L14.4976 29.3304C14.4943 29.3096 14.4897 29.289 14.4839 29.2688L14.4223 29.0153C14.4176 28.9895 14.4108 28.9644 14.4017 28.9399L14.3401 28.796C14.2758 28.6352 14.157 28.5547 13.9838 28.5547C13.8106 28.5547 13.6918 28.6352 13.6275 28.796ZM13.5933 37.0107L13.607 37.0655C13.649 37.2069 13.7417 37.2603 13.8852 37.2255C14.0286 37.1907 14.0866 37.1009 14.0592 36.9558L14.0455 36.901C14.0034 36.7596 13.9107 36.7062 13.7673 36.741C13.6239 36.7758 13.5659 36.8656 13.5933 37.0107Z" fill="black"/>
<path d="M13.5932 30.7075L13.5453 30.8308C13.5427 30.8399 13.5404 30.849 13.5384 30.8582L13.422 31.2488C13.4114 31.2846 13.4046 31.3211 13.4014 31.3584L13.3329 32.1326C13.3326 32.144 13.3326 32.1554 13.3329 32.1668L13.2918 33.2493C13.2918 33.2516 13.2918 33.2539 13.2918 33.2562L13.2644 34.5031C13.2644 34.5054 13.2644 34.5077 13.2644 34.5099L13.2438 35.7774C13.2438 35.7797 13.2438 35.782 13.2438 35.7843L13.2507 36.9216C13.2506 36.9262 13.2506 36.9307 13.2507 36.9353L13.2644 37.8465C13.2644 37.8488 13.2644 37.8511 13.2644 37.8534L13.2849 38.5248C13.2849 38.5271 13.2849 38.5293 13.2849 38.5316L13.3055 38.9701C13.3055 38.9724 13.3055 38.9747 13.3055 38.977L13.3192 39.2373C13.3184 39.2556 13.3184 39.2738 13.3192 39.2921L13.3397 39.4154C13.3564 39.5368 13.4044 39.6441 13.4836 39.7374L13.511 39.7717C13.6236 39.8924 13.7623 39.9587 13.9269 39.9705C14.0916 39.9822 14.2383 39.9364 14.3669 39.8329C14.4956 39.7295 14.5718 39.5961 14.5956 39.4327C14.6195 39.2693 14.5845 39.1197 14.4907 38.9838L14.4839 38.9633C14.4915 39.0799 14.5303 39.1849 14.6004 39.2784L14.5935 39.1893L14.6141 38.9359L14.662 38.4905C14.662 38.4882 14.662 38.486 14.662 38.4837L14.7237 37.9082C14.7239 37.899 14.7239 37.8899 14.7237 37.8808L14.7579 37.223C14.7581 37.2162 14.7581 37.2093 14.7579 37.2025L14.7648 36.5448L14.7922 35.9693C14.7923 35.9647 14.7923 35.9601 14.7922 35.9556L14.799 35.5308C14.7991 35.5262 14.7991 35.5216 14.799 35.5171L14.7922 35.2773C14.7997 35.1392 14.7573 35.0187 14.665 34.9158C14.5727 34.8128 14.4575 34.7576 14.3194 34.75C14.1814 34.7424 14.0609 34.7848 13.9579 34.877C13.8549 34.9693 13.7995 35.0844 13.7919 35.2225L13.7645 35.4623C13.7618 35.4736 13.7596 35.485 13.7577 35.4965L13.7371 35.9213L13.7097 36.49L13.648 37.1477C13.648 37.15 13.648 37.1522 13.648 37.1545L13.6001 37.8054L13.5453 38.3809C13.5453 38.3832 13.5453 38.3855 13.5453 38.3878L13.5179 38.8262L13.4905 39.0455L13.4631 39.1071C13.7316 39.1064 13.9143 38.9808 14.0112 38.7303H13.9906C14.1171 38.8999 14.2861 38.9844 14.4976 38.9838L14.4702 38.9496C14.4808 39.0686 14.5219 39.1759 14.5935 39.2716L14.5798 39.1619L14.5661 38.9084L14.5456 38.4768L14.525 37.8191L14.5113 36.9147L14.5181 35.7911L14.5387 34.5305C14.5387 34.5282 14.5387 34.5259 14.5387 34.5237L14.5524 33.2767C14.5524 33.2744 14.5524 33.2722 14.5524 33.2699V32.1874C14.5527 32.176 14.5527 32.1645 14.5524 32.1531L14.5113 31.3789C14.5104 31.3419 14.5058 31.3054 14.4976 31.2693L14.3948 30.8719L14.3606 30.7486C14.3099 30.5599 14.187 30.4603 13.9918 30.4498C13.7967 30.4394 13.6638 30.5253 13.5932 30.7075ZM13.8262 35.2704V35.4623L13.833 35.798C13.833 35.8003 13.833 35.8025 13.833 35.8048L13.8467 36.2159C13.8467 36.2182 13.8467 36.2205 13.8467 36.2228L13.8604 36.6064L13.8399 36.9695L13.8056 37.3395C13.8056 37.3441 13.8056 37.3486 13.8056 37.3532L13.7851 37.6958C13.7848 37.7049 13.7848 37.714 13.7851 37.7232L13.7782 38.0178C13.778 38.0269 13.778 38.0361 13.7782 38.0452L13.7919 38.2644C13.7944 38.3233 13.8058 38.3804 13.8262 38.4357L13.8536 38.5248C13.9378 38.7513 14.1004 38.8741 14.3412 38.8934C14.5821 38.9127 14.7621 38.8172 14.8813 38.607L14.9498 38.4837C14.9625 38.4638 14.9739 38.4433 14.984 38.422L15.1279 38.052C15.1303 38.0475 15.1325 38.0429 15.1348 38.0383L15.3471 37.4697C15.3472 37.4674 15.3472 37.4651 15.3471 37.4628L15.5801 36.7983C15.5825 36.7915 15.5848 36.7846 15.5869 36.7777L15.7856 36.1337C15.7883 36.1223 15.7905 36.1109 15.7925 36.0994L15.9227 35.5719C15.9281 35.5538 15.9327 35.5356 15.9364 35.5171L15.9912 35.1129C15.9943 35.0947 15.9966 35.0764 15.998 35.058L16.0117 34.7771C16.013 34.7543 16.013 34.7315 16.0117 34.7086L16.0049 34.5716C15.9932 34.3354 15.8813 34.1651 15.6692 34.0605C15.4571 33.956 15.2538 33.9711 15.0594 34.1057L15.0046 34.1468C14.9052 34.2143 14.8321 34.3034 14.7853 34.414L14.6963 34.6401C14.6912 34.6537 14.6867 34.6674 14.6826 34.6812L14.5524 35.0786C14.5524 35.0809 14.5524 35.0832 14.5524 35.0855L14.3948 35.5787C14.3925 35.581 14.3902 35.5833 14.388 35.5856L14.2441 36.072C14.2418 36.0766 14.2395 36.0811 14.2372 36.0857L14.1276 36.4968L14.0454 36.7709L14.0112 36.8942C14.0379 36.8489 14.0585 36.8009 14.0728 36.7503L14.066 36.7572C14.0241 36.9043 14.036 37.047 14.1016 37.1852C14.1672 37.3235 14.2702 37.4229 14.4106 37.4836C14.5511 37.5443 14.6941 37.5512 14.8397 37.5042C14.9853 37.4572 15.0974 37.3681 15.1759 37.2367L15.2033 37.134C15.2034 37.1271 15.2034 37.1203 15.2033 37.1134L15.2649 36.8805L15.354 36.5037C15.3566 36.4923 15.3589 36.4809 15.3609 36.4694L15.4499 35.9556C15.4527 35.9419 15.455 35.9282 15.4568 35.9145L15.5184 35.291C15.52 35.2659 15.52 35.2407 15.5184 35.2156L15.5047 34.5099C15.5055 34.4917 15.5055 34.4734 15.5047 34.4551L15.4157 33.6741C15.4157 33.6718 15.4157 33.6695 15.4157 33.6672L15.3129 32.8862L15.2238 32.2216L15.169 31.7558C15.1655 31.735 15.1609 31.7144 15.1553 31.6941L15.1279 31.5502C15.094 31.3839 15.0082 31.2512 14.8704 31.152C14.7327 31.0528 14.5796 31.0136 14.4111 31.0342C14.2427 31.0548 14.1035 31.1298 13.9938 31.2593C13.884 31.3887 13.8327 31.5382 13.8399 31.7078L13.8467 31.9613C13.8478 31.9842 13.8501 32.0071 13.8536 32.0298L13.9221 32.5848C13.922 32.5916 13.922 32.5985 13.9221 32.6053L14.0317 33.2699C14.0334 33.2859 14.0357 33.3019 14.0386 33.3178L14.1893 33.9413C14.1928 33.9621 14.1974 33.9826 14.203 34.003L14.3674 34.4688C14.3713 34.485 14.3759 34.501 14.3811 34.5168L14.4907 34.7703C14.6068 35.0377 14.8078 35.1428 15.0937 35.0855L15.1485 35.0718C15.3961 35.0239 15.54 34.8754 15.5801 34.6264L15.628 34.3318C15.6282 34.325 15.6282 34.3181 15.628 34.3113L15.6829 33.8385L15.7856 33.3452C15.792 33.3181 15.7966 33.2907 15.7993 33.263L15.8199 32.941C15.8277 32.8342 15.8107 32.7316 15.7689 32.633C15.7271 32.5345 15.6651 32.4509 15.583 32.3823C15.5008 32.3137 15.4075 32.2676 15.303 32.2441C15.1986 32.2206 15.0945 32.2223 14.9909 32.249L14.9292 32.2627C14.7514 32.3025 14.6137 32.3993 14.5161 32.5532C14.4185 32.707 14.3896 32.8728 14.4293 33.0506C14.469 33.2284 14.5658 33.3661 14.7196 33.4638C14.8734 33.5614 15.0392 33.5904 15.217 33.5508L15.2786 33.5371C15.2542 33.3493 15.1656 33.1994 15.013 33.0873C14.8605 32.9752 14.6909 32.9356 14.5044 32.9684L14.5456 33.2767L14.5798 33.7563L14.5593 34.1879L14.5113 34.4551C14.8018 34.4406 14.9708 34.2899 15.0183 34.003L14.9635 34.0098C14.989 34.1429 15.0552 34.2512 15.162 34.3346C15.2689 34.4179 15.39 34.4559 15.5253 34.4483L15.4773 34.1948L15.4225 33.7289C15.4227 33.7198 15.4227 33.7106 15.4225 33.7015L15.3197 33.0712L15.2238 32.4135L15.1622 31.8791L15.1416 31.6393C15.0865 31.4835 14.9866 31.3658 14.8419 31.2861C14.6971 31.2065 14.5442 31.185 14.3832 31.2218C14.2221 31.2585 14.0936 31.3442 13.9978 31.4788C13.902 31.6134 13.863 31.7628 13.881 31.927L13.9152 32.0161L14.0112 32.4135L14.1071 33.0575L14.2098 33.8111L14.2852 34.5579L14.2989 35.2088L14.251 35.7843L14.1824 36.257L14.1071 36.5927L14.0523 36.7777L14.0249 36.8531C13.9161 37.1252 13.9737 37.3559 14.1975 37.5451C14.4214 37.7343 14.6585 37.7525 14.9087 37.5999L14.9155 37.593C15.0425 37.5152 15.1292 37.4056 15.1759 37.2641L15.217 37.134C15.2194 37.1272 15.2217 37.1203 15.2238 37.1134L15.306 36.8394C15.3061 36.8371 15.3061 36.8348 15.306 36.8325L15.4225 36.4214L15.5664 35.9419L15.7171 35.4623L15.8473 35.0786L15.9295 34.8662C15.8722 34.9259 15.8288 34.9944 15.7993 35.0718L15.8404 35.0238C15.7855 34.7891 15.6416 34.6408 15.4088 34.5787C15.1759 34.5166 14.9772 34.5736 14.8128 34.7497L14.8265 34.8046L14.8196 34.9621L14.7648 35.3184L14.6552 35.8185L14.477 36.4351L14.2647 37.086L14.066 37.641L13.9426 37.9698L13.8947 38.0589C13.9854 38.278 14.1491 38.3947 14.3858 38.409C14.6225 38.4233 14.7991 38.3272 14.9155 38.1206L14.9087 38.1137L14.9018 37.9972L14.895 37.7232C14.895 37.7209 14.895 37.7186 14.895 37.7163L14.8881 37.3738C14.8882 37.3692 14.8882 37.3646 14.8881 37.3601L14.8676 36.9832C14.8677 36.9764 14.8677 36.9695 14.8676 36.9627L14.8333 36.579L14.8059 36.1817L14.7922 35.7774L14.7853 35.4417C14.7854 35.4372 14.7854 35.4326 14.7853 35.428L14.7716 35.2362C14.7669 35.1057 14.7167 34.996 14.621 34.907C14.5254 34.8181 14.4123 34.776 14.2818 34.7807C14.1513 34.7855 14.0415 34.8356 13.9526 34.9312C13.8636 35.0269 13.8215 35.1399 13.8262 35.2704ZM14.7305 33.1328L14.6689 33.496C14.6369 33.6969 14.7214 33.8134 14.9224 33.8454C15.1233 33.8774 15.2398 33.7929 15.2718 33.5919L15.3334 33.2288C15.3654 33.0278 15.2809 32.9113 15.08 32.8794C14.879 32.8474 14.7625 32.9319 14.7305 33.1328Z" fill="black"/>
<path d="M2.02118 6.37818C2.02118 6.49169 2.06131 6.58858 2.14158 6.66885C2.22184 6.74912 2.31873 6.78925 2.43225 6.78925C2.54576 6.78925 2.64266 6.74912 2.72292 6.66885C2.80319 6.58858 2.84332 6.49169 2.84332 6.37818C2.84332 6.26466 2.80319 6.16777 2.72292 6.0875C2.64266 6.00724 2.54576 5.9671 2.43225 5.9671C2.31873 5.9671 2.22184 6.00724 2.14158 6.0875C2.06131 6.16777 2.02118 6.26466 2.02118 6.37818ZM1.99377 6.37818C1.99377 6.49737 2.03591 6.5991 2.12019 6.68338C2.20447 6.76767 2.30621 6.80981 2.4254 6.80981C2.54459 6.80981 2.64633 6.76767 2.73061 6.68338C2.81489 6.5991 2.85703 6.49737 2.85703 6.37818C2.85703 6.25899 2.81489 6.15725 2.73061 6.07297C2.64633 5.98869 2.54459 5.94655 2.4254 5.94655C2.30621 5.94655 2.20447 5.98869 2.12019 6.07297C2.03591 6.15725 1.99377 6.25899 1.99377 6.37818ZM1.95951 6.37133C1.95951 6.49619 2.00366 6.60277 2.09196 6.69107C2.18025 6.77936 2.28683 6.82351 2.4117 6.82351C2.53656 6.82351 2.64314 6.77936 2.73144 6.69107C2.81973 6.60277 2.86388 6.49619 2.86388 6.37133C2.86388 6.24646 2.81973 6.13988 2.73144 6.05159C2.64314 5.96329 2.53656 5.91914 2.4117 5.91914C2.28683 5.91914 2.18025 5.96329 2.09196 6.05159C2.00366 6.13988 1.95951 6.24646 1.95951 6.37133ZM2.03488 6.62482L2.05543 6.65908C2.0425 6.61774 2.02423 6.57892 2.00062 6.54261L2.06228 6.73444C2.0685 6.74846 2.07535 6.76216 2.08284 6.77555L2.26097 7.20033C2.29131 7.26924 2.3347 7.32862 2.39114 7.37846L2.85703 7.78953L3.18589 8.35819C3.28184 8.52249 3.41199 8.5567 3.57634 8.46083C3.74069 8.36496 3.77497 8.23483 3.67918 8.07043L3.34346 7.50863L3.2407 6.90572C3.23123 6.85777 3.21524 6.81209 3.19274 6.7687L2.99405 6.35762C2.98032 6.33107 2.96433 6.30595 2.94609 6.28226L2.82277 6.11098C2.76922 6.03894 2.70071 5.98641 2.61723 5.9534L2.58298 5.9397C2.37281 5.85674 2.19715 5.90348 2.056 6.07992C1.91485 6.25635 1.90781 6.43799 2.03488 6.62482Z" fill="black"/>
<path d="M0.702015 4.38196C0.702015 4.49737 0.742818 4.59587 0.824423 4.67748C0.906028 4.75908 1.00453 4.79988 1.11994 4.79988C1.23535 4.79988 1.33385 4.75908 1.41546 4.67748C1.49706 4.59587 1.53787 4.49737 1.53787 4.38196C1.53787 4.26655 1.49706 4.16805 1.41546 4.08644C1.33385 4.00484 1.23535 3.96403 1.11994 3.96403C1.00453 3.96403 0.906028 4.00484 0.824423 4.08644C0.742818 4.16805 0.702015 4.26655 0.702015 4.38196ZM0.67461 4.36141C0.67461 4.48438 0.718088 4.58935 0.805045 4.6763C0.892001 4.76326 0.996966 4.80674 1.11994 4.80674C1.24292 4.80674 1.34788 4.76326 1.43484 4.6763C1.52179 4.58935 1.56527 4.48438 1.56527 4.36141C1.56527 4.23843 1.52179 4.13347 1.43484 4.04651C1.34788 3.95955 1.24292 3.91607 1.11994 3.91607C0.996966 3.91607 0.892001 3.95955 0.805045 4.04651C0.718088 4.13347 0.67461 4.23843 0.67461 4.36141ZM1.05143 4.82044L1.06513 4.82729L1.12679 4.85469L1.29122 4.97802L1.55157 5.32743L1.85988 5.92349L2.13392 6.67027L2.35316 7.49242L2.55185 8.33513C2.55761 8.35829 2.56446 8.38113 2.5724 8.40364L2.8259 9.15727C2.83703 9.19256 2.85074 9.22681 2.86701 9.26004L3.16846 9.8561C3.21506 9.94803 3.279 10.0257 3.3603 10.089L3.75082 10.3905C3.8005 10.4282 3.85531 10.4556 3.91525 10.4727L4.16189 10.5481L4.30577 10.6645C4.44983 10.7678 4.57901 10.7517 4.69331 10.6162C4.80761 10.4808 4.80175 10.3507 4.67573 10.2261L4.57297 10.1439L4.55926 9.95202C4.55776 9.93592 4.55547 9.91994 4.55241 9.90406L4.4702 9.41762C4.4637 9.38266 4.45457 9.3484 4.44279 9.31485L4.22355 8.69139L3.99746 7.96516L3.79878 7.13616C3.79659 7.12927 3.79431 7.12242 3.79193 7.1156L3.55213 6.25235C3.54414 6.22905 3.535 6.20622 3.52473 6.18384L3.20957 5.36169C3.19627 5.32618 3.18028 5.29192 3.16161 5.25892L2.76424 4.5875C2.73861 4.54557 2.70892 4.50675 2.67517 4.47103L2.2778 4.0394C2.21744 3.9728 2.14665 3.92027 2.06541 3.88182L1.7297 3.72424C1.61783 3.67471 1.50136 3.65872 1.38029 3.67628L1.17475 3.70369C1.01119 3.72535 0.881012 3.803 0.78423 3.93663L0.72942 4.01199C0.677296 4.08336 0.645685 4.16287 0.634588 4.25055C0.623492 4.33822 0.634294 4.42311 0.666995 4.50521C0.699696 4.58731 0.750214 4.65638 0.818551 4.71241C0.886887 4.76845 0.964513 4.80446 1.05143 4.82044Z" fill="black"/>
<path d="M2.21613 4.08736L2.24354 3.9846L2.27779 3.91608L2.3326 3.82017L2.44907 3.69684L2.71627 3.52556L3.19586 3.34058L3.86728 3.1967L4.59351 3.14189L5.25808 3.21041L5.82674 3.34058L6.31317 3.50501L6.64203 3.64203L6.82017 3.84757C6.94075 3.9513 7.06199 3.95206 7.18386 3.84984C7.30574 3.74762 7.3261 3.62811 7.24494 3.49131L7.03941 3.24466L6.82702 2.8884C6.80766 2.85809 6.78482 2.83069 6.75851 2.80618L6.35428 2.41566C6.30772 2.37225 6.2552 2.338 6.1967 2.31289L5.59379 2.05255C5.53906 2.02814 5.48196 2.01216 5.42251 2.00459L4.66888 1.91552C4.63254 1.90997 4.596 1.90769 4.55926 1.90867L3.73711 1.96348C3.70708 1.96587 3.6774 1.97044 3.64804 1.97718L2.88755 2.14161C2.85251 2.14778 2.81825 2.15692 2.78479 2.16902L2.20243 2.40881C2.14507 2.43284 2.09254 2.46481 2.04485 2.50473L1.70229 2.78563C1.63517 2.84028 1.58264 2.90651 1.54471 2.98431L1.41454 3.26522C1.39103 3.31307 1.37505 3.36331 1.36658 3.41594L1.33917 3.62148C1.33348 3.66487 1.33348 3.70826 1.33917 3.75165L1.35288 3.88183C1.3557 3.90501 1.36027 3.92785 1.36658 3.95034L1.40769 4.08736C1.46226 4.29522 1.597 4.39915 1.81191 4.39915C2.02681 4.39915 2.16155 4.29522 2.21613 4.08736Z" fill="black"/>
<path d="M9.45787 3.77222L9.46472 3.76537C9.48747 3.74701 9.50803 3.72646 9.52639 3.70371L9.54694 3.68316C9.62445 3.58963 9.6587 3.48229 9.64971 3.36115L9.64286 3.27208C9.63971 3.19954 9.62145 3.13102 9.58805 3.06655L9.51268 2.92952C9.5104 2.92951 9.50812 2.92951 9.50583 2.92952L9.40991 2.75139L9.314 2.55955L9.25234 2.36087L9.21808 2.17588L9.22493 2.06626L9.27974 1.94979L9.45102 1.76481L9.77303 1.57983L10.2184 1.40855L10.6842 1.33318H11.1296L11.5612 1.39484L11.9723 1.49076L12.3559 1.64834L12.7533 1.91554L13.1849 2.30606L13.6166 2.73084C13.6474 2.76069 13.6816 2.78581 13.7193 2.8062L14.2263 3.0871C14.2777 3.11575 14.3325 3.13402 14.3908 3.14191L15.0074 3.22412C15.0723 3.23347 15.1363 3.22891 15.1992 3.21042L15.8706 3.01174C15.8895 3.00636 15.9077 2.99951 15.9254 2.99118L16.5215 2.70343L17.0285 2.50474C17.149 2.4316 17.1841 2.32919 17.1338 2.1975C17.0834 2.06581 16.9889 2.01293 16.8504 2.03886L16.3571 2.22384L15.7405 2.29921L15.0964 2.31291L14.61 2.23755L14.2332 2.01831L13.8427 1.63464L13.4247 1.18245C13.4017 1.15941 13.3765 1.13886 13.3494 1.12079L12.8835 0.791934C12.8536 0.770111 12.8216 0.751841 12.7876 0.737124L12.3148 0.545289C12.2903 0.536471 12.2651 0.529619 12.2395 0.524736L11.7736 0.415116C11.7578 0.409751 11.7418 0.405183 11.7256 0.401413L11.2323 0.339752C11.2074 0.335562 11.1823 0.333279 11.157 0.332901H10.6363C10.6108 0.335539 10.5857 0.340107 10.5609 0.346603L10.006 0.442521C9.97565 0.44661 9.94596 0.453461 9.91691 0.463075L9.38251 0.661761C9.35408 0.67073 9.32668 0.682148 9.30029 0.696017L8.88237 0.942661C8.84731 0.963854 8.81534 0.988975 8.78645 1.01803L8.50555 1.29207C8.46594 1.3324 8.43397 1.37808 8.40963 1.4291L8.27261 1.70315C8.24239 1.76127 8.22412 1.82293 8.2178 1.88813L8.19725 2.16218C8.19455 2.20357 8.19683 2.24467 8.2041 2.2855L8.2452 2.56641C8.24979 2.59438 8.25664 2.62178 8.26576 2.64862L8.35482 2.91582C8.36259 2.93698 8.37172 2.95754 8.38223 2.97748L8.4987 3.21727C8.50717 3.23142 8.5163 3.24512 8.5261 3.25838L8.63572 3.44336C8.64819 3.46256 8.66189 3.48083 8.67683 3.49817L8.7796 3.6215C8.80199 3.64935 8.82711 3.67447 8.85496 3.69686L8.93033 3.75167C8.97208 3.78236 9.01775 3.8052 9.06735 3.82018L9.09476 3.83389C9.05763 3.80389 9.01652 3.78105 8.97144 3.76537L8.97829 3.77222C9.13815 3.8932 9.29801 3.8932 9.45787 3.77222Z" fill="black"/>
<path d="M4.73736 2.17587C4.73736 2.28938 4.77749 2.38627 4.85776 2.46654C4.93803 2.54681 5.03492 2.58694 5.14843 2.58694C5.26195 2.58694 5.35884 2.54681 5.43911 2.46654C5.51938 2.38627 5.55951 2.28938 5.55951 2.17587C5.55951 2.06235 5.51938 1.96546 5.43911 1.88519C5.35884 1.80493 5.26195 1.76479 5.14843 1.76479C5.03492 1.76479 4.93803 1.80493 4.85776 1.88519C4.77749 1.96546 4.73736 2.06235 4.73736 2.17587ZM4.73051 2.17587C4.73051 2.29127 4.77131 2.38978 4.85292 2.47139C4.93452 2.55299 5.03303 2.59379 5.14843 2.59379C5.26384 2.59379 5.36235 2.55299 5.44395 2.47139C5.52556 2.38978 5.56636 2.29127 5.56636 2.17587C5.56636 2.06046 5.52556 1.96195 5.44395 1.88035C5.36235 1.79874 5.26384 1.75794 5.14843 1.75794C5.03303 1.75794 4.93452 1.79874 4.85292 1.88035C4.77131 1.96195 4.73051 2.06046 4.73051 2.17587ZM5.57321 2.17587L5.56636 2.14161C5.55524 2.18431 5.55068 2.2277 5.55266 2.27178L5.56636 2.22383L5.64858 2.10736L5.86782 1.83331L6.18297 1.54555L6.65571 1.34002L7.38194 1.2441L8.34796 1.31946L9.24548 1.65517C9.39633 1.69087 9.49985 1.63648 9.55604 1.492C9.61222 1.34752 9.57265 1.23748 9.43731 1.16188L8.50554 0.81247L7.55322 0.380842C7.51814 0.364745 7.4816 0.353326 7.4436 0.346586L6.6009 0.209561C6.49257 0.190882 6.38752 0.202301 6.28574 0.243817L5.64172 0.504165C5.5633 0.53497 5.49479 0.580645 5.43619 0.641189L5.03882 1.05912C4.99937 1.10209 4.9674 1.15005 4.9429 1.20299L4.76477 1.57296C4.73487 1.63118 4.7166 1.69284 4.70996 1.75794L4.69625 1.99088C4.69487 2.01144 4.69487 2.03199 4.69625 2.05255L4.7031 2.17587C4.70487 2.22302 4.714 2.26869 4.73051 2.31289L4.74421 2.3403C4.83556 2.55577 4.99602 2.64074 5.22558 2.5952C5.45514 2.54967 5.57102 2.40989 5.57321 2.17587Z" fill="black"/>
<path d="M10.0745 2.53899C10.0745 2.64115 10.1106 2.72835 10.1829 2.80059C10.2551 2.87283 10.3423 2.90895 10.4445 2.90895C10.5466 2.90895 10.6338 2.87283 10.7061 2.80059C10.7783 2.72835 10.8144 2.64115 10.8144 2.53899C10.8144 2.43682 10.7783 2.34962 10.7061 2.27738C10.6338 2.20514 10.5466 2.16902 10.4445 2.16902C10.3423 2.16902 10.2551 2.20514 10.1829 2.27738C10.1106 2.34962 10.0745 2.43682 10.0745 2.53899ZM10.6226 2.88155L10.6706 2.86099L10.7322 2.84044H10.8076L10.9446 2.89525L11.2529 3.09394L11.7462 3.42965C11.7682 3.44277 11.791 3.45419 11.8147 3.4639L12.4999 3.78591C12.5285 3.80003 12.5582 3.81145 12.5889 3.82017L13.459 4.04626C13.4793 4.05208 13.4999 4.05664 13.5207 4.05996L14.4182 4.18328C14.4477 4.18823 14.4774 4.19051 14.5073 4.19014L15.3226 4.15588C15.3697 4.15424 15.4154 4.1451 15.4596 4.12847L16.0625 3.89553L16.5284 3.77906C16.6974 3.73795 16.7613 3.6329 16.7202 3.4639C16.6791 3.29491 16.5741 3.23096 16.4051 3.27207L15.9666 3.38169L15.3637 3.29262C15.3614 3.2926 15.3591 3.2926 15.3568 3.29262L14.5621 3.19671L13.7057 3.03913L12.9041 2.81989L12.2738 2.53899L11.7873 2.24438C11.7805 2.24195 11.7737 2.23967 11.7668 2.23753L11.3968 2.03199C11.3431 2.00299 11.286 1.98472 11.2255 1.97718L10.9378 1.94293C10.8728 1.93358 10.8089 1.93815 10.7459 1.95663L10.5404 2.02514C10.5167 2.03225 10.4939 2.04139 10.4719 2.05255L10.3417 2.12106C10.3172 2.13467 10.2944 2.15066 10.2732 2.16902L10.2047 2.22383C10.0085 2.36789 9.97573 2.54262 10.1062 2.74802C10.2368 2.95342 10.4089 2.99793 10.6226 2.88155Z" fill="black"/>
<path d="M19.2415 1.84703C19.2415 2.04343 19.3397 2.14163 19.5361 2.14163C19.7325 2.14163 19.8307 2.04343 19.8307 1.84703C19.8307 1.65063 19.7325 1.55243 19.5361 1.55243C19.3397 1.55243 19.2415 1.65063 19.2415 1.84703ZM19.036 1.85388C19.036 1.99199 19.0848 2.10988 19.1824 2.20753C19.2801 2.30519 19.398 2.35402 19.5361 2.35402C19.6742 2.35402 19.7921 2.30519 19.8897 2.20753C19.9874 2.10988 20.0362 1.99199 20.0362 1.85388C20.0362 1.71577 19.9874 1.59789 19.8897 1.50023C19.7921 1.40257 19.6742 1.35374 19.5361 1.35374C19.398 1.35374 19.2801 1.40257 19.1824 1.50023C19.0848 1.59789 19.036 1.71577 19.036 1.85388ZM18.988 1.9361L18.9948 2.05257C19.003 2.21557 19.0646 2.35487 19.1798 2.47049L19.3922 2.69658C19.4504 2.75399 19.5166 2.79966 19.5909 2.83361L20.0431 3.046C20.0807 3.06314 20.1195 3.07685 20.1596 3.0871L20.831 3.26524C20.8715 3.27582 20.9126 3.28267 20.9543 3.28579L21.7902 3.3406C21.8313 3.34432 21.8724 3.34432 21.9135 3.3406L22.8041 3.24468C22.8389 3.24051 22.8732 3.23366 22.9069 3.22413L23.7085 3.01174C23.727 3.00798 23.7452 3.00341 23.7633 2.99804L24.3936 2.77195L24.7704 2.63492L24.8458 2.62807L24.8595 2.63492L24.9554 2.73084L25.0856 2.96378L25.2363 3.36801L25.4076 3.86129L25.4556 4.34088L25.3596 4.77251C25.3383 4.92685 25.4037 5.02092 25.5558 5.05471C25.7079 5.08851 25.8069 5.03099 25.8529 4.88213L25.9557 4.4231L26.1338 3.9024C26.1362 3.90015 26.1384 3.89786 26.1407 3.89555L26.312 3.3543C26.3442 3.25507 26.3488 3.15459 26.3257 3.05285L26.2229 2.58011C26.2104 2.52228 26.1899 2.46747 26.1612 2.41568L25.9694 2.07312C25.9449 2.02824 25.9153 1.98713 25.8803 1.9498L25.6611 1.72371C25.617 1.67694 25.5668 1.63811 25.5104 1.60724L25.2637 1.47706C25.1699 1.42546 25.0694 1.40034 24.9623 1.4017L24.6334 1.4154C24.575 1.41633 24.5179 1.42547 24.4621 1.44281L24.0031 1.58668L23.3865 1.75796L22.6397 1.91554L21.845 1.9772L21.1256 1.90869L20.5706 1.75796L20.1801 1.58668L19.9198 1.45651C19.9041 1.449 19.8881 1.44215 19.8718 1.43596L19.7622 1.388C19.6732 1.35153 19.581 1.33874 19.4855 1.34963C19.3899 1.36052 19.3029 1.39374 19.2245 1.44929C19.146 1.50484 19.0858 1.57586 19.0437 1.66234C19.0017 1.74882 18.9832 1.84007 18.988 1.9361Z" fill="black"/>
<path d="M25.1883 2.03879L24.9759 2.28544C24.8827 2.38646 24.8279 2.50521 24.8115 2.6417L24.7498 3.21721C24.7498 3.21949 24.7498 3.22178 24.7498 3.22406L24.6676 4.11472C24.6651 4.12381 24.6629 4.13294 24.6608 4.14213L24.606 5.17666L24.4895 6.21805L24.3525 7.10871L24.1401 7.77328C24.1143 7.91937 24.1722 8.01466 24.3137 8.05913C24.4552 8.10361 24.5572 8.05857 24.6197 7.92401L24.8389 7.25259L25.2157 6.42359C25.2181 6.41907 25.2204 6.4145 25.2226 6.40989L25.6199 5.41646C25.6249 5.4052 25.6295 5.39378 25.6336 5.3822L25.9693 4.38877C25.9828 4.34629 25.9919 4.3029 25.9968 4.2586L26.1064 3.37479C26.1093 3.33825 26.1093 3.30171 26.1064 3.26517L26.0858 2.68966C26.0801 2.53494 26.0253 2.4002 25.9214 2.28544L25.709 2.03879C25.6396 1.96121 25.5528 1.92242 25.4487 1.92242C25.3445 1.92242 25.2578 1.96121 25.1883 2.03879Z" fill="black"/>
<path d="M21.1941 3.76534V3.8407L21.2147 4.08735C21.2147 4.08963 21.2147 4.09191 21.2147 4.0942L21.2489 4.53268C21.2488 4.53725 21.2488 4.54181 21.2489 4.54638L21.3106 5.13559L21.3517 5.87552L21.2969 6.72507L21.0776 7.68425L20.6529 8.73934L20.0362 9.90405L19.2895 11.0825L18.5153 12.2061L17.8301 13.2063L17.2478 14.0285C17.2455 14.0308 17.2432 14.033 17.2409 14.0353L16.8436 14.6109L16.4941 14.9192C16.3859 15.0391 16.3847 15.1601 16.4905 15.2822C16.5963 15.4043 16.7163 15.4203 16.8504 15.3302L17.2204 15.0082L17.8096 14.5903C17.8215 14.5818 17.8329 14.5727 17.8438 14.5629L18.5975 13.8846C18.6143 13.8719 18.6303 13.8582 18.6454 13.8435L19.447 12.9254C19.4593 12.91 19.4707 12.894 19.4813 12.8775L20.2692 11.7539C20.274 11.7449 20.2786 11.7357 20.2829 11.7265L21.0434 10.5138C21.0533 10.4983 21.0624 10.4823 21.0708 10.4659L21.6942 9.25318C21.7046 9.23317 21.7137 9.21261 21.7216 9.19152L22.1464 8.05422C22.1553 8.02733 22.1622 7.99992 22.167 7.972L22.3931 6.92376C22.3997 6.8967 22.4043 6.86929 22.4068 6.84155L22.4616 5.90978C22.4636 5.88237 22.4636 5.85497 22.4616 5.82756L22.3931 5.05337C22.3919 5.03269 22.3897 5.01214 22.3862 4.99171L22.2697 4.39565C22.2641 4.36046 22.255 4.3262 22.2423 4.29288L22.0779 3.88866C22.0681 3.86721 22.0567 3.84666 22.0437 3.827L21.9135 3.61461C21.8961 3.58691 21.8755 3.56179 21.8518 3.53925L21.797 3.48444C21.6796 3.37107 21.547 3.34884 21.3991 3.41776C21.2511 3.48668 21.1828 3.60254 21.1941 3.76534Z" fill="black"/>
<path d="M13.1871 19.5924V19.5787C13.195 19.5632 13.2018 19.5472 13.2076 19.5307L13.2145 19.4896L13.2282 19.428C13.2443 19.3767 13.2511 19.3241 13.2487 19.2704L13.2419 19.1676L13.235 19.0512C13.2329 19.0093 13.2261 18.9682 13.2145 18.9278L13.1734 18.784C13.1349 18.6589 13.0641 18.5561 12.961 18.4757L12.8034 18.3455C12.7733 18.3221 12.7413 18.3015 12.7075 18.2838L12.4814 18.1673C12.4084 18.1278 12.3308 18.1027 12.2485 18.092L11.9128 18.0509C11.8534 18.0433 11.794 18.0433 11.7346 18.0509L11.2824 18.1057C11.2594 18.1092 11.2365 18.1137 11.2139 18.1194L10.6658 18.2359L10.0424 18.3592L9.4189 18.4757L8.86395 18.551L8.45972 18.5716L8.23363 18.551L8.11031 18.5099L7.99384 18.4551C8.06916 18.5548 8.16279 18.6325 8.27474 18.688L8.22678 18.6195C8.04456 18.7508 7.93728 18.9276 7.90495 19.1499C7.87262 19.3722 7.92509 19.5722 8.06235 19.75L8.11031 19.7157C7.87199 19.6551 7.65275 19.6962 7.45259 19.8391L7.5211 19.8596L7.61702 19.9076L7.83626 20.0377L8.15827 20.2775L8.5762 20.5995C8.58518 20.6066 8.59432 20.6134 8.6036 20.6201L9.10374 20.9627C9.12366 20.9773 9.14421 20.991 9.1654 21.0038L9.74776 21.3258C9.77883 21.3416 9.8108 21.3553 9.84368 21.3669L10.5014 21.6204C10.5371 21.6344 10.5736 21.6459 10.611 21.6546L11.3235 21.8191C11.4028 21.836 11.4827 21.8405 11.5633 21.8328L12.2416 21.7711C12.3926 21.7611 12.5251 21.7063 12.639 21.6067L12.9815 21.2915L13.4337 21.1887C13.621 21.1431 13.6918 21.0266 13.6461 20.8393C13.6004 20.6521 13.484 20.5813 13.2967 20.6269L12.8856 20.7297L12.5088 20.5173C12.4589 20.4901 12.4064 20.4695 12.3512 20.4557L11.6867 20.2912L11.0358 20.12L10.474 19.9076L9.9807 19.6267L9.51482 19.3115L9.09689 19.0101L8.75433 18.7497C8.74091 18.7401 8.72721 18.731 8.71322 18.7223L8.43232 18.5442C8.40587 18.5265 8.37847 18.5106 8.3501 18.4962L8.13772 18.3934C8.08299 18.3663 8.0259 18.3458 7.96644 18.3318L7.82256 18.2975C7.5943 18.2458 7.38419 18.2869 7.19225 18.4208L7.14429 18.4551C6.96991 18.5763 6.86152 18.7409 6.81911 18.949C6.7767 19.1571 6.81202 19.351 6.92505 19.5307L6.97301 19.5993C7.04534 19.7154 7.14125 19.8067 7.26076 19.8733L7.42519 19.9692C7.47964 19.9987 7.53673 20.0215 7.59647 20.0377L7.85682 20.1131C7.90843 20.1275 7.96095 20.1366 8.01439 20.1405L8.38436 20.1679C8.41862 20.1701 8.45287 20.1701 8.48713 20.1679L8.98042 20.1474C9.01036 20.1445 9.04005 20.1399 9.06949 20.1337L9.67239 20.0377C9.69083 20.0338 9.7091 20.0293 9.7272 20.024L10.3644 19.8665C10.3804 19.8647 10.3964 19.8624 10.4123 19.8596L11.0221 19.6746L11.5428 19.5307L11.9265 19.4485L12.1183 19.4348L12.1731 19.4417L12.269 19.5033C12.2891 19.5136 12.3096 19.5227 12.3307 19.5307L12.4197 19.5719L12.4129 19.565L12.4266 19.5787L12.4403 19.6061L12.454 19.6198C12.4479 19.6057 12.4411 19.592 12.4334 19.5787V19.5924C12.494 19.7732 12.6196 19.8636 12.8103 19.8636C13.0009 19.8636 13.1266 19.7732 13.1871 19.5924Z" fill="black"/>
<path d="M14.2217 19.1402C14.2217 19.2442 14.2584 19.3331 14.332 19.4066C14.4056 19.4802 14.4944 19.517 14.5985 19.517C14.7025 19.517 14.7913 19.4802 14.8649 19.4066C14.9385 19.3331 14.9753 19.2442 14.9753 19.1402C14.9753 19.0361 14.9385 18.9473 14.8649 18.8737C14.7913 18.8002 14.7025 18.7634 14.5985 18.7634C14.4944 18.7634 14.4056 18.8002 14.332 18.8737C14.2584 18.9473 14.2217 19.0361 14.2217 19.1402ZM14.0778 19.1128C14.0778 19.2585 14.1293 19.3828 14.2323 19.4858C14.3353 19.5888 14.4597 19.6403 14.6053 19.6403C14.751 19.6403 14.8754 19.5888 14.9784 19.4858C15.0814 19.3828 15.1329 19.2585 15.1329 19.1128C15.1329 18.9671 15.0814 18.8428 14.9784 18.7397C14.8754 18.6367 14.751 18.5852 14.6053 18.5852C14.4597 18.5852 14.3353 18.6367 14.2323 18.7397C14.1293 18.8428 14.0778 18.9671 14.0778 19.1128ZM14.0161 19.0717C14.0161 19.2382 14.075 19.3803 14.1927 19.498C14.3104 19.6157 14.4525 19.6746 14.619 19.6746C14.7855 19.6746 14.9276 19.6157 15.0454 19.498C15.1631 19.3803 15.2219 19.2382 15.2219 19.0717C15.2219 18.9052 15.1631 18.7631 15.0454 18.6453C14.9276 18.5276 14.7855 18.4688 14.619 18.4688C14.4525 18.4688 14.3104 18.5276 14.1927 18.6453C14.075 18.7631 14.0161 18.9052 14.0161 19.0717ZM14.3587 19.6266L14.4683 19.6883C14.495 19.7015 14.5224 19.7129 14.5505 19.7225L14.7698 19.8048C14.7811 19.8073 14.7925 19.8096 14.804 19.8116L15.1603 19.9212C15.1783 19.9288 15.1965 19.9357 15.2151 19.9418L15.6947 20.0445C15.7083 20.0472 15.722 20.0495 15.7358 20.0514L16.325 20.1473C16.3386 20.15 16.3523 20.1523 16.3661 20.1542L17.0444 20.2227C17.0671 20.2261 17.0899 20.2284 17.1129 20.2295H17.8254C17.8598 20.2298 17.8941 20.2275 17.9282 20.2227L18.6476 20.1131C18.6825 20.1066 18.7168 20.0975 18.7503 20.0857L19.4218 19.8733C19.4546 19.8643 19.4866 19.8528 19.5177 19.839L20.0795 19.5581C20.1055 19.546 20.1306 19.5323 20.1548 19.517L20.5659 19.243C20.59 19.2262 20.6128 19.2079 20.6344 19.1881L20.9016 18.9552C20.9235 18.936 20.9441 18.9155 20.9633 18.8935L21.0935 18.7428C21.1684 18.6598 21.2187 18.5639 21.2442 18.4551L21.2579 18.3865C21.3201 18.112 21.2378 17.8915 21.0108 17.7249C20.7839 17.5584 20.5488 17.546 20.3056 17.6877L20.2713 17.7151C20.2002 17.7537 20.1385 17.804 20.0863 17.8659L20.0247 17.9481C20.0019 17.9738 19.9814 18.0012 19.963 18.0303L19.8945 18.1536C19.8782 18.1845 19.8645 18.2164 19.8534 18.2495L19.7986 18.4002C19.7873 18.4293 19.7782 18.459 19.7712 18.4893L19.7369 18.6606C19.7303 18.69 19.7258 18.7197 19.7232 18.7497L19.7095 18.9004L19.6958 19.0032L19.6547 19.1059L19.5656 19.2567L19.3943 19.4759L19.1546 19.7225L18.8737 19.9418L18.5585 20.1268L18.2365 20.2501L17.9282 20.3323L17.6062 20.3529L17.2431 20.3254L16.8525 20.2775C16.8298 20.2742 16.807 20.2719 16.784 20.2706L16.4072 20.2501C16.3201 20.2475 16.2356 20.2612 16.1537 20.2912L16.0235 20.3323L16.0304 20.3392L15.9961 20.2912C15.8774 20.145 15.7449 20.1313 15.5988 20.2501C15.4526 20.3688 15.4389 20.5013 15.5577 20.6475L15.633 20.7434L15.6673 20.8804C15.6672 20.885 15.6672 20.8895 15.6673 20.8941L15.7221 21.1065C15.7788 21.3118 15.9044 21.458 16.0989 21.545L16.4415 21.7025C16.5029 21.7294 16.5669 21.7477 16.6333 21.7574L17.0512 21.8259C17.0762 21.8294 17.1013 21.8317 17.1266 21.8327L17.5651 21.8601C17.5995 21.8602 17.6337 21.8579 17.6678 21.8533L18.1063 21.819C18.1528 21.8142 18.1985 21.805 18.2433 21.7916L18.6613 21.682C18.7088 21.6683 18.7544 21.65 18.7983 21.6272L19.1957 21.4216C19.2316 21.4039 19.2659 21.3834 19.2984 21.36L19.6752 21.0859C19.6967 21.0711 19.7173 21.0551 19.7369 21.038L20.0726 20.7365C20.0894 20.7213 20.1054 20.7053 20.1206 20.6886L20.4015 20.3734C20.4134 20.3602 20.4249 20.3465 20.4357 20.3323L20.655 20.0514C20.6753 20.0253 20.6935 19.9979 20.7098 19.9692L20.8468 19.7225C20.8688 19.6855 20.8871 19.6467 20.9016 19.6061L20.9701 19.38C20.986 19.3377 20.9974 19.2944 21.0044 19.2498L21.0249 19.058C21.0251 19.0488 21.0251 19.0397 21.0249 19.0306L21.0386 18.8798L21.0592 18.7702L21.0798 18.688L21.0935 18.6674L21.114 18.6332C21.001 18.6823 20.9097 18.7577 20.84 18.8593L20.8811 18.8387C20.9807 18.5748 20.9291 18.3447 20.7264 18.1485C20.5237 17.9524 20.292 17.9084 20.0315 18.0166L20.0041 18.0851C20.0713 18.0184 20.1215 17.9408 20.1548 17.8522L20.0315 17.9686L19.8123 18.1536L19.4697 18.3797L18.9833 18.5921L18.4009 18.7634L17.7843 18.8456L17.1608 18.8387L16.5305 18.7634L15.9756 18.6674L15.5234 18.5784L15.1877 18.4893C15.1831 18.487 15.1786 18.4847 15.174 18.4825L14.941 18.4277C14.9028 18.4174 14.864 18.4106 14.8246 18.4071L14.7012 18.4002C14.5479 18.3906 14.4086 18.4302 14.2833 18.5192C14.158 18.6082 14.0747 18.7267 14.0334 18.8747C13.992 19.0227 14.0019 19.1672 14.0629 19.3083C14.1239 19.4493 14.2225 19.5554 14.3587 19.6266Z" fill="black"/>
<path d="M14.6533 18.9689C14.6533 19.0749 14.6908 19.1653 14.7657 19.2402C14.8406 19.3151 14.931 19.3526 15.037 19.3526C15.1429 19.3526 15.2334 19.3151 15.3083 19.2402C15.3832 19.1653 15.4206 19.0749 15.4206 18.9689C15.4206 18.863 15.3832 18.7725 15.3083 18.6976C15.2334 18.6227 15.1429 18.5852 15.037 18.5852C14.931 18.5852 14.8406 18.6227 14.7657 18.6976C14.6908 18.7725 14.6533 18.863 14.6533 18.9689ZM14.6328 18.8319L14.5985 18.9141C14.547 19.0303 14.5401 19.149 14.5779 19.2704L14.6328 19.4416C14.6485 19.493 14.6714 19.5409 14.7013 19.5855L14.8588 19.8116C14.8913 19.8607 14.9301 19.9041 14.9753 19.9418L15.2494 20.1747C15.313 20.2265 15.3838 20.2654 15.4618 20.2912L15.9139 20.4419C16.012 20.4748 16.1125 20.4862 16.2154 20.4762L16.8663 20.4145C16.9274 20.4083 16.9867 20.3946 17.0444 20.3734L17.9008 20.0583C17.929 20.0462 17.9564 20.0325 17.983 20.0171L18.997 19.4896C19.0256 19.4731 19.053 19.4548 19.0792 19.4348L20.196 18.6606C20.2196 18.6458 20.2425 18.6298 20.2645 18.6126L21.4155 17.6192C21.4371 17.5997 21.4577 17.5792 21.4771 17.5576L22.5665 16.386C22.5858 16.3663 22.604 16.3458 22.6213 16.3243L23.5873 15.0637C23.6072 15.0374 23.6255 15.01 23.6421 14.9815L24.43 13.6729C24.4536 13.6357 24.4742 13.5969 24.4917 13.5564L25.0329 12.1862C25.0583 12.1266 25.0766 12.065 25.0877 12.0012L25.3001 10.5898C25.3089 10.5307 25.3112 10.4713 25.307 10.4117L25.2179 9.0072C25.2143 8.95371 25.2052 8.90118 25.1905 8.84962L24.8343 7.56844C24.8304 7.55225 24.8258 7.53627 24.8205 7.52048L24.4232 6.43799C24.4209 6.43799 24.4186 6.43799 24.4163 6.43799L24.108 5.61584L23.9573 5.03348C23.9116 4.86905 23.8066 4.80967 23.6421 4.85535C23.4777 4.90102 23.4183 5.00608 23.464 5.17051L23.6216 5.73916L23.7038 6.58871L23.7175 7.71917L23.6969 9.04146L23.6627 10.3843L23.4366 11.6381L22.9433 12.8644L22.2239 14.0771L21.3127 15.2829L20.285 16.4065L19.2299 17.4L18.216 18.1605L17.3116 18.688L16.6059 18.9621L16.14 19.0237L15.8249 18.9963L15.6262 18.9278L15.5234 18.8593L15.4343 18.7634C15.4172 18.7461 15.399 18.7301 15.3795 18.7154L15.311 18.6606C15.1976 18.5696 15.0703 18.5419 14.9293 18.5775C14.7882 18.6131 14.6894 18.6979 14.6328 18.8319Z" fill="black"/>
<path d="M4.56146 7.04778L4.56831 7.03408C4.55042 7.05316 4.53444 7.07371 4.52035 7.09574L4.56146 7.05463C4.57134 7.04143 4.58048 7.02773 4.58886 7.01353L4.67793 6.89705L4.83551 6.68467C4.83781 6.6824 4.8401 6.68012 4.84236 6.67782L5.08215 6.36951L5.3562 6.0201C5.36817 6.00685 5.37959 5.99315 5.39046 5.97899L5.63025 5.61587L5.86319 5.31442L6.13039 5.06777L6.50036 4.82798L6.95254 4.63615L7.39787 4.53338L7.70618 4.51967L7.83635 4.54023H7.8295L7.83635 4.54708C8.05997 4.74819 8.3089 4.78701 8.58314 4.66355H8.58999C8.87686 4.53735 9.00704 4.31811 8.98051 4.00583L8.97366 3.95787C8.8367 4.09961 8.77732 4.26861 8.79552 4.46486L8.84348 4.41691C8.75223 4.44913 8.6723 4.49937 8.60369 4.56763L8.63109 4.55393H8.6859L8.83663 4.57448L9.06272 4.67725L9.39843 4.95815L9.84376 5.4857L10.3645 6.23934L10.8715 7.16425L11.3784 8.21934L11.8238 9.35665L12.1389 10.3775L12.2417 11.2133C12.2883 11.3577 12.3869 11.4203 12.5373 11.401C12.6878 11.3817 12.7674 11.2963 12.7761 11.1448L12.6733 10.3021L12.6117 9.19907C12.612 9.18994 12.612 9.1808 12.6117 9.17167L12.4609 7.92474C12.4569 7.89218 12.45 7.8602 12.4404 7.82882L12.0978 6.67096C12.0851 6.63298 12.0692 6.59644 12.0499 6.56134L11.5429 5.57477C11.5308 5.54878 11.5171 5.52365 11.5018 5.4994L10.94 4.69096C10.9274 4.66965 10.9137 4.6491 10.8989 4.62929L10.3782 4.03324C10.3451 3.99728 10.3086 3.9653 10.2685 3.93732L9.80951 3.59476C9.75896 3.5572 9.70415 3.52751 9.64508 3.50569L9.24086 3.36181C9.2009 3.34625 9.15979 3.33483 9.11753 3.32756L8.80238 3.2796C8.76149 3.27331 8.72038 3.27103 8.67905 3.27275L8.46666 3.2796C8.3955 3.28421 8.32698 3.30019 8.26113 3.32756L8.15151 3.36867C8.06907 3.39937 7.99599 3.44504 7.93227 3.50569L7.88431 3.55365C7.86185 3.57721 7.8413 3.60233 7.82265 3.62901L7.79524 3.66327C7.68173 3.80516 7.635 3.96641 7.65507 4.14701C7.67514 4.32761 7.75612 4.47467 7.89801 4.58819C8.03991 4.7017 8.20115 4.74843 8.38175 4.72836C8.56236 4.70829 8.70941 4.62731 8.82293 4.48542L8.82978 4.47857C8.94194 4.34642 8.99672 4.19369 8.99411 4.02039C8.99151 3.84708 8.93216 3.69607 8.81608 3.56735L8.74071 3.48514C8.6836 3.42288 8.61737 3.37264 8.54203 3.33441L8.3776 3.25219C8.31267 3.21861 8.24416 3.19577 8.17206 3.18368L7.86376 3.13572C7.80467 3.12573 7.7453 3.12344 7.68562 3.12887L7.23344 3.17683C7.19865 3.18103 7.1644 3.18788 7.13067 3.19738L6.57572 3.33441C6.54523 3.34373 6.51554 3.35515 6.48666 3.36867L5.92485 3.60161C5.89139 3.61727 5.85942 3.63553 5.82894 3.65642L5.34935 3.95102C5.31511 3.97326 5.28314 3.99838 5.25343 4.02639L4.89717 4.35524C4.86741 4.38029 4.84 4.4077 4.81495 4.43746L4.53405 4.80743C4.51641 4.83149 4.50042 4.85661 4.48609 4.88279L4.26 5.28016C4.2441 5.30884 4.2304 5.33853 4.2189 5.36923L4.05447 5.79401C4.05445 5.79629 4.05445 5.79857 4.05447 5.80086L3.91744 6.17082C3.91743 6.17311 3.91743 6.17539 3.91744 6.17767L3.82152 6.43802C3.80914 6.46907 3.8 6.50104 3.79412 6.53394L3.77356 6.69837C3.76833 6.72783 3.76605 6.75752 3.76671 6.78744L3.77356 6.8491C3.77746 6.91502 3.79573 6.97668 3.82837 7.03408L3.83523 7.04778C3.91539 7.18846 4.03643 7.25881 4.19834 7.25881C4.36026 7.25881 4.4813 7.18846 4.56146 7.04778Z" fill="black"/>
<path d="M11.5087 7.26699H11.5155C11.4733 7.14935 11.3934 7.06942 11.2757 7.0272L11.2894 7.08201C11.2928 7.10058 11.2974 7.11885 11.3031 7.13682L11.3511 7.24644C11.3767 7.30654 11.4133 7.35907 11.4607 7.40402L11.6046 7.5479C11.6373 7.58035 11.6739 7.60776 11.7142 7.63011L11.9882 7.78084C12.0317 7.80325 12.0773 7.81924 12.1253 7.8288L12.5432 7.91786C12.5772 7.92355 12.6115 7.92583 12.646 7.92471L13.1941 7.93842C13.2239 7.93866 13.2536 7.93637 13.2831 7.93157L13.9409 7.8288C13.9711 7.82446 14.0008 7.81761 14.0299 7.80824L14.7562 7.5616C14.7944 7.54948 14.8309 7.53349 14.8658 7.51364L15.5372 7.10942C15.5688 7.09164 15.5985 7.07108 15.6263 7.04776L16.2086 6.53391C16.236 6.51107 16.2611 6.48595 16.284 6.45855L16.743 5.87619C16.7667 5.84622 16.7872 5.81425 16.8047 5.78028L17.1267 5.14311C17.144 5.10794 17.1577 5.0714 17.1678 5.03349L17.3528 4.38262C17.359 4.3578 17.3636 4.33268 17.3665 4.30726L17.4555 3.70435L17.5309 3.22476L17.6268 2.8959L17.6611 2.79999L17.757 2.77943C17.926 2.73832 17.9899 2.63327 17.9488 2.46427C17.9077 2.29528 17.8027 2.23133 17.6337 2.27244L17.4213 2.32725H17.2157C17.0638 2.32371 16.9428 2.38309 16.8526 2.50538L16.6265 2.82054C16.5967 2.86272 16.5739 2.9084 16.558 2.95756L16.3936 3.45085C16.3911 3.45993 16.3888 3.46906 16.3867 3.47826L16.2292 4.06747L16.051 4.65667L15.777 5.19792L15.3933 5.69121L14.8932 6.14339L14.304 6.51336L13.6942 6.77371L13.153 6.88333H12.7008L12.3788 6.82166L12.1664 6.73945L12.0294 6.65723L11.9471 6.60928L11.9129 6.58187C11.8337 6.52226 11.7447 6.49486 11.6457 6.49966H11.6251C11.5873 6.50354 11.5507 6.51268 11.5155 6.52706H11.5087C11.3317 6.58687 11.2432 6.7102 11.2432 6.89703C11.2432 7.08386 11.3317 7.20718 11.5087 7.26699Z" fill="black"/>
<path d="M16.8662 2.6424C16.8662 2.74078 16.901 2.82475 16.9706 2.89432C17.0402 2.96388 17.1241 2.99866 17.2225 2.99866C17.3209 2.99866 17.4049 2.96388 17.4744 2.89432C17.544 2.82475 17.5788 2.74078 17.5788 2.6424C17.5788 2.54402 17.544 2.46005 17.4744 2.39048C17.4049 2.32092 17.3209 2.28613 17.2225 2.28613C17.1241 2.28613 17.0402 2.32092 16.9706 2.39048C16.901 2.46005 16.8662 2.54402 16.8662 2.6424ZM17.0855 2.99866L17.1403 3.02607C17.1538 3.03125 17.1675 3.03582 17.1814 3.03977L17.3116 3.08773C17.3364 3.09397 17.3615 3.09854 17.3869 3.10143L17.6541 3.15624C17.6835 3.16277 17.7132 3.16733 17.7432 3.16994L18.1406 3.1905L18.5859 3.24531L19.0518 3.39603L19.5177 3.67693L19.9493 4.05375L20.3604 4.54704L20.7783 5.1157C20.7828 5.12262 20.7873 5.12947 20.792 5.13625L21.2099 5.65694C21.2459 5.70521 21.287 5.74861 21.3333 5.78712L21.806 6.15708C21.8782 6.21329 21.9581 6.2544 22.0458 6.28041L22.5596 6.43113C22.654 6.45955 22.7499 6.4664 22.8474 6.45169L23.327 6.37632C23.4102 6.3629 23.4856 6.33093 23.5531 6.28041L23.7929 6.09542L24.0738 6.05432C24.2473 6.02691 24.3204 5.92643 24.293 5.75286C24.2656 5.57929 24.1651 5.50622 23.9915 5.53362L23.7449 5.57473L23.512 5.43085C23.4942 5.42063 23.476 5.41149 23.4571 5.40345L23.0461 5.21161L22.6967 5.01293L22.3884 4.69777L22.0321 4.21818L21.6416 3.62212C21.6266 3.60078 21.6106 3.58023 21.5936 3.56046L21.1277 2.99866C21.1007 2.96424 21.071 2.93226 21.0387 2.90274L20.5043 2.43686C20.466 2.40318 20.4249 2.3735 20.3809 2.34779L19.778 1.99838C19.7218 1.96592 19.6624 1.9408 19.5999 1.92302L18.9764 1.73803C18.9114 1.72025 18.8452 1.71111 18.7777 1.71063L18.2296 1.69007C18.1599 1.6897 18.0914 1.69883 18.0241 1.71748L17.613 1.82025C17.542 1.83928 17.4758 1.86897 17.4143 1.90931L17.1883 2.05319C17.1359 2.08689 17.0902 2.12799 17.0512 2.17651L16.9622 2.28613C16.9302 2.32554 16.905 2.36893 16.8868 2.41631L16.8662 2.47112C16.8257 2.57421 16.8267 2.67691 16.8693 2.7792C16.9118 2.88149 16.9838 2.95464 17.0855 2.99866Z" fill="black"/>
<path d="M13.5785 19.1912C13.5785 19.2953 13.6153 19.3841 13.6889 19.4576C13.7625 19.5312 13.8513 19.568 13.9553 19.568C14.0594 19.568 14.1482 19.5312 14.2218 19.4576C14.2954 19.3841 14.3322 19.2953 14.3322 19.1912C14.3322 19.0871 14.2954 18.9983 14.2218 18.9247C14.1482 18.8512 14.0594 18.8144 13.9553 18.8144C13.8513 18.8144 13.7625 18.8512 13.6889 18.9247C13.6153 18.9983 13.5785 19.0871 13.5785 19.1912ZM13.3935 19.1912C13.3935 19.3331 13.4437 19.4542 13.544 19.5545C13.6444 19.6549 13.7655 19.705 13.9074 19.705C14.0493 19.705 14.1704 19.6549 14.2707 19.5545C14.3711 19.4542 14.4212 19.3331 14.4212 19.1912C14.4212 19.0493 14.3711 18.9282 14.2707 18.8279C14.1704 18.7275 14.0493 18.6774 13.9074 18.6774C13.7655 18.6774 13.6444 18.7275 13.544 18.8279C13.4437 18.9282 13.3935 19.0493 13.3935 19.1912ZM13.2565 19.1843C13.2565 19.3508 13.3154 19.4929 13.4331 19.6107C13.5508 19.7284 13.6929 19.7873 13.8594 19.7873C14.0259 19.7873 14.168 19.7284 14.2857 19.6107C14.4035 19.4929 14.4623 19.3508 14.4623 19.1843C14.4623 19.0179 14.4035 18.8757 14.2857 18.758C14.168 18.6403 14.0259 18.5814 13.8594 18.5814C13.6929 18.5814 13.5508 18.6403 13.4331 18.758C13.3154 18.8757 13.2565 19.0179 13.2565 19.1843ZM14.3664 18.7185L14.2705 18.5883C14.2101 18.5098 14.1371 18.4459 14.0513 18.3965L13.8389 18.2594C13.7868 18.23 13.732 18.2072 13.6744 18.1909L13.2634 18.0607C13.2409 18.0528 13.218 18.046 13.1949 18.0402L12.5988 17.9169L11.8452 17.7456L11.0162 17.4852L10.1187 17.0947L9.15263 16.5809L8.1592 15.9711L7.21372 15.2997L6.37787 14.5735L5.6859 13.7582L5.11725 12.8606L4.70617 11.9289L4.48008 10.9423V9.90777L4.68562 8.83897L4.98022 7.84554L5.25427 7.0645L5.48721 6.5164C5.52142 6.43298 5.53741 6.34619 5.53517 6.25605V6.24235L5.69275 6.22865C5.84804 6.21038 5.91656 6.1236 5.89829 5.9683C5.88002 5.81301 5.79323 5.74449 5.63794 5.76276L5.35704 5.79702L5.24057 5.72166C4.96017 5.54019 4.69754 5.56303 4.45267 5.79017L3.99364 6.21495C3.92442 6.28242 3.86961 6.36007 3.82921 6.44789L3.44554 7.23578C3.42953 7.26911 3.41583 7.30337 3.40443 7.33855L3.07558 8.38679C3.06453 8.41822 3.05539 8.45019 3.04817 8.48271L2.82208 9.67482C2.81252 9.72691 2.80795 9.77944 2.80838 9.8324V11.0382C2.80832 11.1006 2.81517 11.1623 2.82893 11.2232L3.08928 12.3742C3.10006 12.4283 3.11605 12.4808 3.13724 12.5318L3.60997 13.6006C3.62998 13.6389 3.65281 13.6754 3.67848 13.7102L4.31565 14.7036C4.33813 14.7398 4.36325 14.7741 4.39101 14.8064L5.18576 15.6902C5.2112 15.7196 5.23861 15.747 5.26797 15.7724L6.19289 16.5535C6.21473 16.573 6.23757 16.5912 6.2614 16.6083L7.27539 17.2934C7.28663 17.3005 7.29805 17.3074 7.30964 17.314L8.35788 17.9443C8.37138 17.9515 8.38509 17.9584 8.39899 17.9648L9.41297 18.4924C9.43313 18.5024 9.45369 18.5115 9.47463 18.5198L10.4544 18.924C10.4789 18.9368 10.504 18.9482 10.5297 18.9583L11.4272 19.2186C11.4476 19.224 11.4682 19.2286 11.4889 19.2323L12.2768 19.4036C12.2814 19.4037 12.2859 19.4037 12.2905 19.4036L12.8591 19.5132L13.1538 19.5954L13.2908 19.6776C13.293 19.6799 13.2953 19.6822 13.2976 19.6845L13.4347 19.7599C13.581 19.8461 13.738 19.8761 13.9058 19.8501C14.0736 19.824 14.2142 19.7476 14.3274 19.6211C14.4406 19.4945 14.5009 19.3464 14.5083 19.1768C14.5156 19.0071 14.4683 18.8543 14.3664 18.7185Z" fill="black"/>
<path d="M14.3675 19.5576C14.3675 19.656 14.4023 19.74 14.4718 19.8095C14.5414 19.8791 14.6254 19.9139 14.7238 19.9139C14.8221 19.9139 14.9061 19.8791 14.9757 19.8095C15.0452 19.74 15.08 19.656 15.08 19.5576C15.08 19.4592 15.0452 19.3752 14.9757 19.3057C14.9061 19.2361 14.8221 19.2013 14.7238 19.2013C14.6254 19.2013 14.5414 19.2361 14.4718 19.3057C14.4023 19.3752 14.3675 19.4592 14.3675 19.5576ZM14.3332 19.5507C14.3332 19.6586 14.3714 19.7506 14.4476 19.8269C14.5239 19.9031 14.6159 19.9413 14.7238 19.9413C14.8316 19.9413 14.9236 19.9031 14.9999 19.8269C15.0762 19.7506 15.1143 19.6586 15.1143 19.5507C15.1143 19.4429 15.0762 19.3509 14.9999 19.2746C14.9236 19.1984 14.8316 19.1602 14.7238 19.1602C14.6159 19.1602 14.5239 19.1984 14.4476 19.2746C14.3714 19.3509 14.3332 19.4429 14.3332 19.5507ZM14.2716 19.5233C14.2716 19.6425 14.3137 19.7443 14.398 19.8286C14.4823 19.9128 14.584 19.955 14.7032 19.955C14.8224 19.955 14.9241 19.9128 15.0084 19.8286C15.0927 19.7443 15.1348 19.6425 15.1348 19.5233C15.1348 19.4042 15.0927 19.3024 15.0084 19.2181C14.9241 19.1339 14.8224 19.0917 14.7032 19.0917C14.584 19.0917 14.4823 19.1339 14.398 19.2181C14.3137 19.3024 14.2716 19.4042 14.2716 19.5233ZM14.5593 19.0575L14.484 19.078C14.3256 19.1143 14.2069 19.2033 14.1277 19.3452L13.929 19.6946C13.8928 19.7591 13.8677 19.8276 13.8537 19.9002L13.6687 20.8593C13.6628 20.8842 13.6583 20.9093 13.655 20.9347L13.5042 22.6475C13.5042 22.6544 13.5042 22.6612 13.5042 22.6681L13.3535 24.9358C13.3535 24.9404 13.3535 24.945 13.3535 24.9495L13.237 27.4297C13.237 27.4365 13.237 27.4434 13.237 27.4502L13.2028 29.7591C13.2024 29.7728 13.2024 29.7865 13.2028 29.8002L13.2782 31.698C13.2791 31.7232 13.2813 31.7484 13.285 31.7734L13.4974 33.1505C13.5016 33.1808 13.5085 33.2104 13.5179 33.2395L13.792 34.0206L13.84 34.4933C13.8844 34.636 13.9809 34.6997 14.1296 34.6844C14.2782 34.6692 14.3598 34.5872 14.3743 34.4385L14.3332 33.9863L14.5182 33.1847C14.522 33.162 14.5243 33.1392 14.5251 33.1162L14.6552 31.7323C14.6579 31.7186 14.6602 31.7049 14.6621 31.6911L14.7238 29.8002L14.7991 27.4982L14.9156 25.0249L15.0526 22.7708L15.1759 21.058C15.1761 21.0489 15.1761 21.0398 15.1759 21.0306L15.2102 20.0509C15.2105 20.0165 15.2082 19.9822 15.2033 19.9481L15.1554 19.5439C15.1536 19.5301 15.1513 19.5164 15.1485 19.5028L15.128 19.4206C15.1007 19.2912 15.0313 19.1909 14.9198 19.1197C14.8084 19.0485 14.6882 19.0278 14.5593 19.0575Z" fill="black"/>
<path d="M15.0732 19.907C15.0732 20.1216 15.1805 20.229 15.3952 20.229C15.6098 20.229 15.7172 20.1216 15.7172 19.907C15.7172 19.6923 15.6098 19.585 15.3952 19.585C15.1805 19.585 15.0732 19.6923 15.0732 19.907ZM15.7035 20.1194L15.7377 20.0646L15.8816 19.8659C15.7695 19.8871 15.6805 19.9442 15.6144 20.0371L15.6829 20.0234C15.8251 19.9956 15.9351 19.9206 16.013 19.7985C16.0908 19.6764 16.1124 19.5451 16.0777 19.4044C16.043 19.2638 15.9628 19.1576 15.8371 19.0857C15.7113 19.0138 15.579 18.9987 15.4403 19.0402C15.3015 19.0817 15.1993 19.167 15.1336 19.2961C15.068 19.4252 15.0592 19.558 15.1074 19.6946L15.128 19.7631C15.1506 19.6802 15.1483 19.598 15.1211 19.5165L15.0594 19.7562C15.0594 19.7585 15.0594 19.7608 15.0594 19.7631L15.0457 19.8248C15.0083 20.017 15.0789 20.1531 15.2576 20.2332C15.4364 20.3132 15.585 20.2753 15.7035 20.1194ZM15.0937 19.263L15.0046 19.4479C14.9833 19.4941 14.9673 19.5421 14.9567 19.5918L14.8402 20.0988C14.8375 20.1124 14.8353 20.1261 14.8334 20.1399L14.6963 20.9347C14.6932 20.9551 14.691 20.9757 14.6895 20.9963L14.5867 22.0103C14.5866 22.0194 14.5866 22.0286 14.5867 22.0377L14.5114 23.2504C14.5089 23.2595 14.5066 23.2686 14.5045 23.2778L14.4634 24.6412C14.4632 24.6503 14.4632 24.6595 14.4634 24.6686L14.4565 26.0868C14.4565 26.0891 14.4565 26.0914 14.4565 26.0936L14.4702 27.4365L14.4839 28.5875L14.4771 29.4782L14.4497 30.1222L14.4154 30.5949C14.4154 30.5972 14.4154 30.5995 14.4154 30.6018L14.3949 30.9375L14.3743 31.1704C14.3743 31.175 14.3743 31.1795 14.3743 31.1841L14.3606 31.3143L14.3538 31.3554L14.3469 31.3965C14.3287 31.4852 14.3265 31.5742 14.3401 31.6637L14.3469 31.7185C14.3724 31.8981 14.4524 32.0488 14.5867 32.1707L14.6415 32.2187C14.7044 32.2766 14.7752 32.3223 14.8539 32.3557L14.9156 32.3831L14.9841 32.4105C14.9953 32.4177 15.0067 32.4245 15.0183 32.431L15.0937 32.4653C15.0155 32.3383 14.9082 32.2446 14.7717 32.1844L14.8197 32.2598C14.8082 32.1515 14.774 32.051 14.7169 31.9583L14.7306 32.0816L14.7443 32.2118C14.746 32.2279 14.7483 32.2439 14.7511 32.2598L14.758 32.3077V32.342C14.7832 32.271 14.7969 32.198 14.7991 32.1227L14.7648 32.2118C14.8023 32.1587 14.832 32.1016 14.8539 32.0405C14.9373 32.011 15.0126 31.9676 15.08 31.9103L15.0594 31.9172L15.0115 31.9241C14.9671 31.9315 14.9237 31.9429 14.8813 31.9583L14.7443 32.0131C14.6986 32.0317 14.6552 32.0545 14.6141 32.0816L14.5251 32.1364L14.4428 32.1775C14.5293 32.1664 14.6116 32.1413 14.6895 32.1022L14.5799 32.1159C14.5638 32.1177 14.5478 32.12 14.5319 32.1227L14.4154 32.1501C14.3994 32.152 14.3834 32.1542 14.3675 32.157L14.251 32.1912C14.1407 32.2187 14.0403 32.2667 13.9495 32.3351L13.8673 32.3968C13.5944 32.6081 13.4993 32.8812 13.5823 33.2163C13.6652 33.5514 13.8767 33.7486 14.2167 33.8081L14.3195 33.8287C14.4571 33.851 14.5919 33.8396 14.7237 33.7944L14.8402 33.7533C14.8927 33.7355 14.943 33.7127 14.9909 33.6848L15.0937 33.63C15.1957 33.5686 15.2802 33.4887 15.3472 33.3902L15.4089 33.3011C15.3476 33.3502 15.2951 33.4073 15.2513 33.4724L15.3404 33.4039L15.4157 33.3491L15.4842 33.308L15.5596 33.2806C15.5736 33.2719 15.5873 33.2628 15.6007 33.2532L15.6761 33.2189C15.7255 33.1923 15.7712 33.1603 15.8131 33.123L15.8747 33.0682C15.9189 33.0296 15.9577 32.9862 15.9912 32.938L16.0392 32.8695C16.0669 32.8263 16.0897 32.7806 16.1077 32.7325L16.1488 32.6434C16.1866 32.5464 16.2026 32.4459 16.1968 32.342V32.2324C16.196 32.2048 16.1938 32.1774 16.1899 32.1501L16.1694 32.0474L16.1625 31.9309C16.1625 31.9286 16.1625 31.9263 16.1625 31.9241L16.1488 31.8007C16.1363 31.6894 16.0997 31.5867 16.0392 31.4924L15.9912 31.4171C15.9167 31.2987 15.8162 31.2096 15.6898 31.1499L15.6144 31.1156C15.6054 31.1108 15.5962 31.1063 15.587 31.1019L15.4979 31.0608C15.563 31.128 15.6384 31.1806 15.724 31.2184L15.6555 31.1499C15.6942 31.2547 15.7536 31.346 15.8336 31.4239L15.8062 31.3554C15.8127 31.4164 15.8264 31.4758 15.8473 31.5335L15.8405 31.4787C15.8224 31.5602 15.8178 31.6424 15.8268 31.7254L15.8405 31.6637C15.8459 31.6433 15.8505 31.6228 15.8542 31.602V31.5541L15.8884 31.4445C15.8908 31.4376 15.8931 31.4308 15.8953 31.4239L15.9501 31.1841C15.9529 31.1682 15.9552 31.1522 15.957 31.1362L16.0186 30.7867C16.0244 30.7618 16.0289 30.7367 16.0323 30.7114L16.0666 30.2318C16.0666 30.2272 16.0666 30.2227 16.0666 30.2181L16.1077 29.5467C16.1078 29.5375 16.1078 29.5284 16.1077 29.5193L16.1282 28.608C16.1283 28.6012 16.1283 28.5943 16.1282 28.5875V27.4296V26.0868L16.1351 24.6823L16.1762 23.3394L16.231 22.1336L16.279 21.1128C16.279 21.1082 16.279 21.1037 16.279 21.0991L16.3064 20.2906C16.3066 20.2792 16.3066 20.2678 16.3064 20.2564L16.2995 19.7357C16.3003 19.6352 16.2797 19.5393 16.2379 19.4479L16.1488 19.263C16.0442 19.0391 15.8683 18.9272 15.6213 18.9272C15.3742 18.9272 15.1983 19.0391 15.0937 19.263ZM14.5251 32.8079L14.4839 32.7531C14.3606 32.5909 14.2179 32.5715 14.0557 32.6948C13.8936 32.8181 13.8742 32.9609 13.9975 33.123L14.0386 33.1778C14.162 33.3396 14.3046 33.3588 14.4665 33.2357C14.6285 33.1126 14.648 32.9699 14.5251 32.8079Z" fill="black"/>
<path d="M14.9566 25.5867C14.9566 25.6926 14.9941 25.783 15.069 25.8579C15.1439 25.9329 15.2344 25.9703 15.3403 25.9703C15.4463 25.9703 15.5367 25.9329 15.6116 25.8579C15.6865 25.783 15.724 25.6926 15.724 25.5867C15.724 25.4807 15.6865 25.3903 15.6116 25.3154C15.5367 25.2404 15.4463 25.203 15.3403 25.203C15.2344 25.203 15.1439 25.2404 15.069 25.3154C14.9941 25.3903 14.9566 25.4807 14.9566 25.5867ZM15.3883 26.0525H15.491C15.5071 26.0511 15.5231 26.0488 15.539 26.0457L15.7377 26.0251L16.0117 25.9977C16.067 25.9908 16.1195 25.9748 16.1693 25.9498L16.4571 25.8059C16.4891 25.7915 16.5188 25.7732 16.5461 25.7511L16.7174 25.6004L16.9024 25.5318C17.0714 25.4725 17.1262 25.3583 17.0668 25.1893C17.0075 25.0203 16.8933 24.9655 16.7243 25.0249L16.5598 25.0797L16.3543 25.0454C16.3339 25.0415 16.3134 25.0393 16.2926 25.0386L15.9706 25.0249C15.9524 25.0238 15.9341 25.0238 15.9158 25.0249L15.6418 25.0523C15.6304 25.0519 15.6189 25.0519 15.6075 25.0523L15.4088 25.0865C15.3926 25.0903 15.3766 25.0948 15.3609 25.1002L15.2581 25.1208C15.1401 25.1494 15.0469 25.214 14.9786 25.3144C14.9103 25.4149 14.8846 25.5253 14.9014 25.6456C14.9182 25.7659 14.9732 25.865 15.0664 25.9429C15.1596 26.0208 15.2669 26.0573 15.3883 26.0525Z" fill="black"/>
<path d="M12.2504 27.7516C12.2504 27.8519 12.2858 27.9375 12.3567 28.0084C12.4276 28.0793 12.5132 28.1147 12.6135 28.1147C12.7137 28.1147 12.7993 28.0793 12.8702 28.0084C12.9411 27.9375 12.9766 27.8519 12.9766 27.7516C12.9766 27.6513 12.9411 27.5658 12.8702 27.4949C12.7993 27.424 12.7137 27.3885 12.6135 27.3885C12.5132 27.3885 12.4276 27.424 12.3567 27.4949C12.2858 27.5658 12.2504 27.6513 12.2504 27.7516ZM12.634 27.3611H12.6066C12.5532 27.3557 12.5007 27.3603 12.449 27.3748L12.4011 27.3885C12.3231 27.4111 12.2559 27.4515 12.1994 27.5098C12.1428 27.568 12.1045 27.6365 12.0843 27.7151C12.0641 27.7937 12.0646 27.8722 12.0861 27.9505C12.1075 28.0287 12.1469 28.0966 12.2043 28.154C12.2616 28.2114 12.3295 28.2508 12.4078 28.2722C12.4861 28.2936 12.5645 28.2942 12.6431 28.274C12.7218 28.2538 12.7902 28.2154 12.8485 28.1589C12.9067 28.1024 12.9471 28.0351 12.9697 27.9572L12.9834 27.9092C12.9864 27.8956 12.9887 27.8819 12.9903 27.8681L12.9971 27.8475C13.0223 27.7283 12.9985 27.6199 12.9256 27.5222C12.8527 27.4246 12.7555 27.3709 12.634 27.3611ZM11.9626 27.8612C11.9626 28.005 12.0134 28.1278 12.1151 28.2294C12.2168 28.3311 12.3395 28.3819 12.4833 28.3819C12.6271 28.3819 12.7498 28.3311 12.8515 28.2294C12.9532 28.1278 13.004 28.005 13.004 27.8612C13.004 27.7175 12.9532 27.5947 12.8515 27.4931C12.7498 27.3914 12.6271 27.3405 12.4833 27.3405C12.3395 27.3405 12.2168 27.3914 12.1151 27.4931C12.0134 27.5947 11.9626 27.7175 11.9626 27.8612ZM12.7436 27.3542L12.7231 27.3474C12.428 27.1814 12.1654 27.2225 11.9352 27.4707L11.9146 27.4913C11.7152 27.7085 11.6797 27.9498 11.8082 28.2152C11.9368 28.4807 12.1481 28.6025 12.4422 28.5806L12.5655 28.5738C12.6499 28.5665 12.7298 28.5437 12.8053 28.5053L13.0656 28.3751C13.179 28.321 13.2658 28.2387 13.326 28.1284L13.4219 27.9503L13.7234 27.8475C13.8969 27.7882 13.954 27.6717 13.8947 27.4981C13.8353 27.3246 13.7188 27.2675 13.5452 27.3268L13.2506 27.4296L13.0794 27.3405C12.9959 27.296 12.9068 27.2732 12.8122 27.272H12.5176C12.5084 27.2718 12.4993 27.2718 12.4901 27.272L12.3668 27.2789C12.3189 27.3818 12.2993 27.4899 12.308 27.603C12.3166 27.7162 12.3524 27.8201 12.4154 27.9145C12.4783 28.009 12.5604 28.0819 12.6616 28.1335C12.7627 28.185 12.87 28.2084 12.9834 28.2038L12.9971 28.1764C13.0367 28.0869 13.055 27.9933 13.0519 27.8955V27.8749C13.0484 27.6426 12.9456 27.4691 12.7436 27.3542Z" fill="black"/>
<path d="M25.0103 4.39568C25.0103 4.59665 25.1108 4.69713 25.3117 4.69713C25.5127 4.69713 25.6132 4.59665 25.6132 4.39568C25.6132 4.19471 25.5127 4.09422 25.3117 4.09422C25.1108 4.09422 25.0103 4.19471 25.0103 4.39568ZM25.3049 4.73824H25.3186L25.3665 4.75194C25.3914 4.75659 25.4166 4.75887 25.4419 4.75879H25.5789L25.6406 4.76564L25.6543 4.77935L25.7639 4.97118L25.8941 5.35485L25.9832 5.83444L26.0585 6.33458L26.1065 6.76621L26.0928 7.15673L25.9489 7.60891L25.5995 8.20497L25.1267 8.87639C25.1055 8.90668 25.0873 8.93865 25.0719 8.97231L24.7773 9.63688L24.5512 10.0959L24.3114 10.3563C24.193 10.4841 24.1977 10.6074 24.3254 10.726C24.4531 10.8445 24.5764 10.8401 24.6951 10.7125L24.9418 10.4453L25.3802 10.1507C25.3849 10.1463 25.3895 10.1417 25.3939 10.137L25.9832 9.69854C26.0338 9.65975 26.0772 9.61407 26.1133 9.56151L26.5998 8.86954C26.6153 8.8454 26.629 8.82028 26.6409 8.79417L26.9903 8.1022C27.0121 8.05856 27.0281 8.01288 27.0382 7.96517L27.1684 7.36911C27.1765 7.32373 27.1788 7.27806 27.1753 7.23209L27.1616 6.7251C27.16 6.70901 27.1577 6.69302 27.1547 6.67714L27.0862 6.19755C27.0862 6.19527 27.0862 6.19299 27.0862 6.1907L27.0108 5.67686C27.0111 5.66772 27.0111 5.65859 27.0108 5.64945L26.9012 5.12191C26.8957 5.10092 26.8888 5.08037 26.8807 5.06025L26.7231 4.59436C26.7081 4.55047 26.6875 4.50936 26.6614 4.47104L26.449 4.14903C26.3983 4.07394 26.3321 4.01685 26.2504 3.97775L26.0243 3.86813C25.9327 3.82393 25.8368 3.81022 25.7365 3.82702L25.531 3.85443C25.4636 3.86559 25.402 3.89071 25.346 3.92979L25.2227 4.01886C25.2002 4.03502 25.1797 4.05329 25.161 4.07367L25.113 4.11478L25.0993 4.12848C24.9747 4.22833 24.938 4.35391 24.989 4.50521C25.04 4.65651 25.1453 4.73419 25.3049 4.73824Z" fill="black"/>
</g>
<defs>
<clipPath id="clip0_1_7343">
<rect width="28" height="40" fill="white"/>
</clipPath>
</defs>
</svg>
