<svg width="43" height="41" viewBox="0 0 43 41" fill="none" xmlns="http://www.w3.org/2000/svg">
<g clip-path="url(#clip0_1_7333)">
<path d="M13.6952 20.5794C13.6952 20.6795 13.7306 20.765 13.8013 20.8358C13.8721 20.9066 13.9576 20.942 14.0577 20.942C14.1578 20.942 14.2433 20.9066 14.3141 20.8358C14.3849 20.765 14.4203 20.6795 14.4203 20.5794C14.4203 20.4793 14.3849 20.3938 14.3141 20.323C14.2433 20.2522 14.1578 20.2168 14.0577 20.2168C13.9576 20.2168 13.8721 20.2522 13.8013 20.323C13.7306 20.3938 13.6952 20.4793 13.6952 20.5794ZM13.6952 20.3668L13.6702 20.4106C13.7045 20.3818 13.7337 20.3485 13.7577 20.3106L13.7389 20.3231C13.5485 20.4764 13.5047 20.6639 13.6076 20.8857L13.6264 20.9294C13.7357 21.1698 13.9212 21.2719 14.1827 21.2358L14.4328 21.1983C14.5177 21.1879 14.5969 21.1608 14.6703 21.117L15.2017 20.7857C15.2166 20.7779 15.2312 20.7696 15.2455 20.7607L16.0956 20.1293C16.0977 20.1293 16.0998 20.1293 16.1019 20.1293L17.2896 19.2354L18.6961 18.1789L20.1526 17.0725L21.5091 16.0598L22.6406 15.2159C22.6448 15.2118 22.649 15.2076 22.6531 15.2034L24.0096 14.1219C24.2049 13.9525 24.2272 13.7628 24.0764 13.5528C23.9255 13.3428 23.7387 13.3033 23.5158 13.4343L22.0592 14.372C22.053 14.3739 22.0467 14.376 22.0405 14.3782L20.8778 15.1846L19.4775 16.1285L17.9585 17.1475C17.9521 17.1515 17.9459 17.1557 17.9397 17.16L16.5207 18.2039L15.3267 19.0916L14.4766 19.7292C14.4745 19.7313 14.4724 19.7334 14.4703 19.7355L13.9765 20.1168C13.9658 20.1248 13.9553 20.1331 13.9452 20.1418L13.7702 20.3043L13.7452 20.3168C13.9124 20.3892 14.0687 20.3704 14.214 20.2606L14.189 20.2481C14.1355 20.4848 14.2209 20.6494 14.4453 20.7419L14.4578 20.6982C14.5034 20.4733 14.4209 20.3152 14.2106 20.2239C14.0002 20.1325 13.8284 20.1801 13.6952 20.3668Z" fill="black"/>
<path d="M14.4015 20.148C14.4015 20.2637 14.4424 20.3624 14.5242 20.4442C14.606 20.526 14.7047 20.5669 14.8203 20.5669C14.936 20.5669 15.0347 20.526 15.1165 20.4442C15.1983 20.3624 15.2392 20.2637 15.2392 20.148C15.2392 20.0324 15.1983 19.9337 15.1165 19.8519C15.0347 19.7701 14.936 19.7292 14.8203 19.7292C14.7047 19.7292 14.606 19.7701 14.5242 19.8519C14.4424 19.9337 14.4015 20.0324 14.4015 20.148ZM14.3452 20.148C14.3452 20.2741 14.3898 20.3816 14.4789 20.4707C14.568 20.5598 14.6756 20.6044 14.8016 20.6044C14.9276 20.6044 15.0352 20.5598 15.1243 20.4707C15.2134 20.3816 15.2579 20.2741 15.2579 20.148C15.2579 20.022 15.2134 19.9145 15.1243 19.8254C15.0352 19.7363 14.9276 19.6917 14.8016 19.6917C14.6756 19.6917 14.568 19.7363 14.4789 19.8254C14.3898 19.9145 14.3452 20.022 14.3452 20.148ZM14.5828 19.698L14.5328 19.7167C14.4752 19.7388 14.4231 19.77 14.3765 19.8105L14.3327 19.848C14.31 19.8692 14.2891 19.8921 14.2702 19.9168L14.239 19.948C14.1226 20.091 14.0788 20.2535 14.1077 20.4356L14.1265 20.5544C14.1264 20.5606 14.1264 20.5669 14.1265 20.5731L14.164 20.7669C14.1682 20.7986 14.1745 20.8298 14.1827 20.8607L14.289 21.192C14.3011 21.2284 14.3157 21.2638 14.3327 21.2983L14.564 21.8046C14.579 21.8347 14.5957 21.8639 14.614 21.8921L15.0266 22.561C15.0403 22.5825 15.0549 22.6033 15.0704 22.6235L15.658 23.4174C15.672 23.4346 15.6865 23.4513 15.7017 23.4674L16.4081 24.2926C16.4222 24.3077 16.4368 24.3223 16.4519 24.3363L17.202 25.099C17.2082 25.1053 17.2144 25.1116 17.2208 25.1177L17.9147 25.7741C17.9147 25.7762 17.9147 25.7783 17.9147 25.7804L18.471 26.3055L18.8774 26.693C18.8773 26.6951 18.8773 26.6972 18.8774 26.6993L19.1399 26.9493C19.1502 26.9558 19.1606 26.9621 19.1712 26.9681L19.3274 27.1119C19.3416 27.1249 19.3562 27.1374 19.3712 27.1494L19.4587 27.2056C19.7284 27.4105 20.016 27.4397 20.3214 27.2932L20.3464 27.2807C20.5122 27.2001 20.6359 27.0772 20.7174 26.9118C20.7989 26.7465 20.8211 26.5735 20.784 26.393L20.7777 26.3742C20.7562 26.2728 20.7166 26.1791 20.6589 26.0929L20.6464 26.0617C20.6039 26.0006 20.5539 25.9464 20.4964 25.8991L20.4777 25.8866V25.8804C20.1056 25.8805 19.8541 26.0547 19.7231 26.4029C19.5922 26.7511 19.6666 27.0479 19.9463 27.2932H19.9901C20.0384 27.2933 20.0863 27.2891 20.1338 27.2807L20.2464 27.2556C20.3021 27.2468 20.3563 27.2322 20.4089 27.2119L20.6402 27.1119C20.6745 27.0996 20.7079 27.085 20.7402 27.0681L21.1653 26.8181C21.1801 26.8102 21.1947 26.8019 21.209 26.7931L21.8717 26.3492C21.8738 26.3472 21.8759 26.3451 21.8779 26.343L22.7656 25.7304C22.7677 25.7304 22.7698 25.7304 22.7718 25.7304L23.772 25.024C23.7741 25.0219 23.7762 25.0198 23.7783 25.0177L24.8347 24.2738C24.8519 24.262 24.8686 24.2495 24.8847 24.2363L25.8787 23.4174C25.8851 23.4092 25.8914 23.4009 25.8974 23.3924L26.8039 22.5735C26.8124 22.5654 26.8208 22.5571 26.8289 22.5485L27.579 21.7921C27.5832 21.7901 27.5874 21.788 27.5915 21.7859L28.1791 21.1607C28.2004 21.1399 28.2192 21.117 28.2354 21.092L28.5417 20.5856L28.7855 20.2981C28.9022 20.1605 28.8918 20.0334 28.7542 19.9168C28.6167 19.8001 28.4896 19.8105 28.3729 19.948L28.1416 20.2231L27.6603 20.5356C27.6538 20.5417 27.6476 20.5479 27.6415 20.5544L26.9664 21.0607L26.085 21.6233L25.0535 22.2797L23.9596 22.9611C23.9511 22.9672 23.9428 22.9734 23.9346 22.9798L22.8656 23.705C22.8635 23.707 22.8614 23.7091 22.8594 23.7112L21.8529 24.4176L20.9778 25.0302L20.3464 25.4491L19.9963 25.6491L19.8963 25.6866L19.8713 25.6929C19.9112 25.6916 19.9508 25.6875 19.9901 25.6803H19.9463C19.5998 25.6804 19.3551 25.8383 19.2121 26.1538C19.069 26.4694 19.1117 26.7575 19.3399 27.0181H19.3462L19.3587 27.0369L19.3712 27.0556C19.4247 26.8013 19.3685 26.5742 19.2024 26.3742L19.1962 26.393C19.2576 26.5637 19.3645 26.6983 19.5168 26.7969C19.6691 26.8955 19.8357 26.9379 20.0165 26.924C20.1974 26.9102 20.3556 26.8429 20.4911 26.7223C20.6267 26.6016 20.7118 26.4523 20.7465 26.2742L20.7402 26.2492C20.6847 26.1031 20.5951 25.9822 20.4714 25.8866L20.4277 25.8491L20.3214 25.7429L20.0838 25.4928C20.0776 25.4886 20.0714 25.4844 20.0651 25.4803L19.6713 25.0802C19.6692 25.0802 19.6671 25.0802 19.665 25.0802L19.1212 24.5364L18.4648 23.8738L17.7646 23.1111L17.0895 22.3172L16.5332 21.5671L16.1081 20.9294C16.104 20.9231 16.0998 20.9169 16.0956 20.9107L15.7705 20.4544C15.7511 20.4281 15.7303 20.4031 15.708 20.3793L15.4767 20.123C15.436 20.0757 15.3901 20.0341 15.3392 19.998L15.1704 19.8917C15.1622 19.8853 15.1539 19.8791 15.1454 19.873L15.0391 19.8105C15.015 19.7963 14.99 19.7838 14.9641 19.773L14.9204 19.7542C14.9684 19.9263 15.0747 20.0471 15.2392 20.1168L15.2267 20.0668C15.1523 20.1923 15.1336 20.3257 15.1704 20.4669L15.2017 20.4168C15.3144 20.2116 15.2944 20.0202 15.1416 19.8427C14.9888 19.6653 14.8025 19.617 14.5828 19.698Z" fill="black"/>
<path d="M24.1533 13.3842C24.1533 13.5926 24.2574 13.6968 24.4658 13.6968C24.6742 13.6968 24.7784 13.5926 24.7784 13.3842C24.7784 13.1759 24.6742 13.0717 24.4658 13.0717C24.2574 13.0717 24.1533 13.1759 24.1533 13.3842ZM24.8596 13.278L24.8534 13.253V13.2592V13.2342C24.8602 13.0975 24.8201 12.9762 24.7332 12.8705C24.6463 12.7647 24.5351 12.7019 24.3997 12.6821C24.2643 12.6623 24.1397 12.6905 24.0262 12.7669C23.9126 12.8433 23.8394 12.948 23.8067 13.0809C23.774 13.2138 23.7903 13.3405 23.8555 13.4608C23.9206 13.5812 24.0178 13.664 24.147 13.7093L24.2158 13.7281C24.226 13.7326 24.2365 13.7368 24.247 13.7406L24.3095 13.7593C24.3158 13.7594 24.322 13.7594 24.3283 13.7593L24.3658 13.7718C24.4349 13.7875 24.5036 13.7856 24.5717 13.7659C24.6398 13.7463 24.699 13.7114 24.7491 13.6613C24.7992 13.6111 24.8341 13.552 24.8538 13.4839C24.8734 13.4157 24.8754 13.3471 24.8596 13.278ZM24.9034 13.0967L24.8972 13.0592C24.8856 12.8984 24.8223 12.7616 24.707 12.6489C24.5917 12.5362 24.4536 12.4758 24.2926 12.4679C24.1316 12.4599 23.9882 12.5064 23.8624 12.6072C23.7366 12.708 23.66 12.8379 23.6327 12.9968C23.6055 13.1557 23.6343 13.3036 23.7192 13.4406C23.8041 13.5777 23.9238 13.6693 24.0782 13.7155L24.1095 13.7281C24.2065 13.7584 24.3049 13.7643 24.4048 13.7457C24.5047 13.7271 24.5944 13.6861 24.6739 13.6229C24.7534 13.5597 24.8135 13.4815 24.8541 13.3883C24.8947 13.2952 24.9112 13.198 24.9034 13.0967ZM23.6469 13.3592L23.6782 13.453C23.6821 13.4635 23.6862 13.4739 23.6907 13.4843L23.7594 13.653C23.7823 13.7087 23.8115 13.7608 23.847 13.8093L24.0157 14.0406C24.0296 14.0579 24.0442 14.0746 24.0595 14.0906L24.3095 14.3844L24.6096 14.747L24.9409 15.1971L25.316 15.7847L25.7161 16.4661L26.1099 17.1475C26.112 17.1495 26.114 17.1516 26.1161 17.1537L26.485 17.7788C26.4891 17.783 26.4932 17.7872 26.4975 17.7913L26.8225 18.3227C26.8246 18.3269 26.8267 18.331 26.8288 18.3352L27.1101 18.779C27.1142 18.7853 27.1183 18.7916 27.1226 18.7978L27.3601 19.1353C27.3622 19.1395 27.3643 19.1437 27.3664 19.1478L27.5539 19.4104L27.6852 19.6042L27.779 19.7542C27.7889 19.7691 27.7993 19.7837 27.8102 19.798L27.8915 19.9042C27.907 19.928 27.9237 19.9509 27.9415 19.973L28.004 20.0355C28.0473 20.0825 28.0952 20.1242 28.1478 20.1605L28.204 20.2043C28.2718 20.2502 28.3448 20.2857 28.4228 20.3106L28.4791 20.3293C28.5299 20.3469 28.582 20.3595 28.6354 20.3668L28.6791 20.3731C28.7503 20.3808 28.8211 20.3787 28.8917 20.3668L28.9167 20.3606C28.998 20.3487 29.0751 20.3237 29.148 20.2856L29.1667 20.273C29.2042 20.2534 29.2397 20.2305 29.273 20.2043L29.3042 20.1793C29.3238 20.1657 29.3425 20.1511 29.3605 20.1355L29.4043 20.0855C29.5456 19.9612 29.6223 19.8051 29.6344 19.6172C29.6465 19.4294 29.5904 19.2647 29.4662 19.1233C29.342 18.9818 29.186 18.905 28.9982 18.8927C28.8104 18.8804 28.6457 18.9363 28.5041 19.0603L28.4541 19.1041C28.5461 19.0797 28.6294 19.038 28.7041 18.9791L28.6604 18.9853C28.7309 19.1397 28.843 19.253 28.9967 19.3251C29.1504 19.3972 29.3092 19.411 29.473 19.3666L29.4605 19.3416C29.35 19.5542 29.3458 19.7688 29.448 19.9855L29.4543 19.9667C29.4944 19.892 29.5214 19.8128 29.5355 19.7292L29.5418 19.6854C29.5581 19.5917 29.5581 19.4979 29.5418 19.4041L29.5293 19.3479C29.5073 19.2275 29.4614 19.1171 29.3918 19.0166L29.348 18.9603C29.3439 18.954 29.3397 18.9477 29.3355 18.9415L29.298 18.8853L29.2417 18.804L29.148 18.654C29.1399 18.6413 29.1316 18.6288 29.123 18.6165L28.9792 18.4164L28.7979 18.1601L28.5791 17.8226L28.3041 17.3975L27.979 16.8849L27.6227 16.266L27.2163 15.5847C27.2143 15.5805 27.2122 15.5763 27.2101 15.5722L26.7975 14.8845C26.7915 14.874 26.7852 14.8636 26.7788 14.8533L26.3724 14.2406C26.3567 14.219 26.3401 14.1982 26.3224 14.1781L25.9349 13.6968C25.9153 13.6727 25.8944 13.6498 25.8723 13.628L25.5098 13.2717C25.4938 13.2543 25.4772 13.2377 25.4598 13.2217L25.1535 12.9717C25.1413 12.9609 25.1288 12.9504 25.1159 12.9404L24.8847 12.7716C24.8724 12.7629 24.8599 12.7546 24.8471 12.7466L24.6909 12.6466C24.7359 12.7005 24.788 12.7463 24.8471 12.7841L24.7846 12.7091C24.6797 12.5899 24.549 12.5173 24.3924 12.4913C24.2358 12.4652 24.0886 12.4916 23.9507 12.5703C23.8129 12.6491 23.7154 12.7626 23.6584 12.9107C23.6013 13.0589 23.5975 13.2084 23.6469 13.3592ZM28.3853 19.5604C28.3853 19.7261 28.4439 19.8676 28.5611 19.9848C28.6783 20.1019 28.8197 20.1605 28.9854 20.1605C29.1511 20.1605 29.2926 20.1019 29.4098 19.9848C29.527 19.8676 29.5855 19.7261 29.5855 19.5604C29.5855 19.3947 29.527 19.2532 29.4098 19.1361C29.2926 19.0189 29.1511 18.9603 28.9854 18.9603C28.8197 18.9603 28.6783 19.0189 28.5611 19.1361C28.4439 19.2532 28.3853 19.3947 28.3853 19.5604ZM29.173 19.773L29.223 19.7479C29.3894 19.6645 29.431 19.5395 29.3477 19.373C29.2645 19.2065 29.1395 19.1648 28.9729 19.2479L28.9229 19.2729C28.7565 19.3563 28.7149 19.4813 28.7982 19.6478C28.8814 19.8143 29.0064 19.856 29.173 19.773Z" fill="black"/>
<path d="M27.2915 15.3221C27.2915 15.4309 27.3299 15.5237 27.4068 15.6006C27.4837 15.6775 27.5765 15.7159 27.6853 15.7159C27.794 15.7159 27.8869 15.6775 27.9638 15.6006C28.0407 15.5237 28.0791 15.4309 28.0791 15.3221C28.0791 15.2134 28.0407 15.1205 27.9638 15.0436C27.8869 14.9667 27.794 14.9283 27.6853 14.9283C27.5765 14.9283 27.4837 14.9667 27.4068 15.0436C27.3299 15.1205 27.2915 15.2134 27.2915 15.3221ZM27.2415 15.3284C27.2415 15.4492 27.2842 15.5523 27.3696 15.6378C27.4551 15.7232 27.5582 15.766 27.679 15.766C27.7999 15.766 27.903 15.7232 27.9885 15.6378C28.0739 15.5523 28.1166 15.4492 28.1166 15.3284C28.1166 15.2075 28.0739 15.1044 27.9885 15.0189C27.903 14.9335 27.7999 14.8908 27.679 14.8908C27.5582 14.8908 27.4551 14.9335 27.3696 15.0189C27.2842 15.1044 27.2415 15.2075 27.2415 15.3284ZM27.1539 15.3596C27.1539 15.4977 27.2028 15.6156 27.3004 15.7132C27.3981 15.8109 27.5159 15.8597 27.654 15.8597C27.7921 15.8597 27.91 15.8109 28.0077 15.7132C28.1053 15.6156 28.1541 15.4977 28.1541 15.3596C28.1541 15.2215 28.1053 15.1037 28.0077 15.006C27.91 14.9084 27.7921 14.8595 27.654 14.8595C27.5159 14.8595 27.3981 14.9084 27.3004 15.006C27.2028 15.1037 27.1539 15.2215 27.1539 15.3596ZM27.0164 15.4034C27.0164 15.5691 27.075 15.7105 27.1922 15.8277C27.3094 15.9449 27.4508 16.0035 27.6165 16.0035C27.7822 16.0035 27.9237 15.9449 28.0409 15.8277C28.1581 15.7105 28.2166 15.5691 28.2166 15.4034C28.2166 15.2377 28.1581 15.0962 28.0409 14.979C27.9237 14.8619 27.7822 14.8033 27.6165 14.8033C27.4508 14.8033 27.3094 14.8619 27.1922 14.979C27.075 15.0962 27.0164 15.2377 27.0164 15.4034ZM26.8726 15.4659C26.8726 15.661 26.9416 15.8275 27.0795 15.9654C27.2175 16.1033 27.384 16.1723 27.579 16.1723C27.7741 16.1723 27.9406 16.1033 28.0785 15.9654C28.2164 15.8275 28.2854 15.661 28.2854 15.4659C28.2854 15.2708 28.2164 15.1043 28.0785 14.9664C27.9406 14.8285 27.7741 14.7595 27.579 14.7595C27.384 14.7595 27.2175 14.8285 27.0795 14.9664C26.9416 15.1043 26.8726 15.2708 26.8726 15.4659ZM27.7916 16.241L27.8666 16.216C27.9797 16.1801 28.0797 16.1218 28.1666 16.041L28.3854 15.841C28.4006 15.8269 28.4152 15.8123 28.4292 15.7972L28.8105 15.3784C28.8126 15.3763 28.8147 15.3742 28.8168 15.3721L29.3044 14.8345C29.343 14.7903 29.3764 14.7424 29.4044 14.6907L29.7419 14.0844C29.7695 14.0372 29.7904 13.9872 29.8044 13.9344L29.9045 13.5405L30.167 13.3092C30.3043 13.1925 30.3146 13.0655 30.198 12.9281C30.0815 12.7907 29.9545 12.7802 29.817 12.8967L29.5419 13.1342L29.1356 13.1905C29.0578 13.2013 28.9849 13.2263 28.9168 13.2655L28.3167 13.6155C28.2548 13.6497 28.1986 13.6914 28.1479 13.7406L27.6353 14.2469C27.6223 14.2611 27.6098 14.2756 27.5978 14.2907L27.2227 14.7158L27.0289 14.9408C27.0135 14.9589 26.9989 14.9776 26.9852 14.9971L26.9352 15.0658C26.7144 15.3657 26.7137 15.6661 26.933 15.967C27.1523 16.2679 27.4385 16.3593 27.7916 16.241Z" fill="black"/>
<path d="M26.7413 16.4786C26.7413 16.5908 26.781 16.6865 26.8603 16.7659C26.9396 16.8452 27.0354 16.8849 27.1476 16.8849C27.2598 16.8849 27.3556 16.8452 27.4349 16.7659C27.5143 16.6865 27.554 16.5908 27.554 16.4786C27.554 16.3664 27.5143 16.2706 27.4349 16.1912C27.3556 16.1119 27.2598 16.0722 27.1476 16.0722C27.0354 16.0722 26.9396 16.1119 26.8603 16.1912C26.781 16.2706 26.7413 16.3664 26.7413 16.4786ZM27.1414 16.9724L27.2226 16.9787C27.293 16.9834 27.3617 16.9751 27.4289 16.9536L27.6165 16.8911C27.6535 16.8779 27.6889 16.8612 27.7227 16.8411L28.0165 16.6786C28.0427 16.6637 28.0677 16.647 28.0916 16.6286L28.5104 16.3098C28.5211 16.3018 28.5315 16.2934 28.5416 16.2848L29.123 15.7847C29.1272 15.7806 29.1314 15.7764 29.1355 15.7722L29.8731 15.097C29.8752 15.095 29.8773 15.0929 29.8794 15.0908L30.7358 14.2906L31.611 13.4655L32.4361 12.6966L33.2175 12.0215L33.9489 11.4276C33.951 11.4276 33.9531 11.4276 33.9552 11.4276L34.5928 10.9025C34.5949 10.9004 34.597 10.8983 34.599 10.8962L35.1366 10.4462C35.1409 10.442 35.145 10.4379 35.1491 10.4337L35.5992 10.0336C35.6078 10.0255 35.6161 10.0171 35.6242 10.0086L35.9618 9.66476C35.966 9.66065 35.9702 9.65649 35.9743 9.65226L36.2056 9.40846C36.2343 9.37563 36.2593 9.34021 36.2806 9.30219L36.3869 9.13341L36.4306 9.06465C36.5252 8.92006 36.5523 8.76378 36.5119 8.59581V8.57705C36.4907 8.48461 36.4499 8.40185 36.3894 8.32877C36.329 8.25569 36.2554 8.20006 36.1685 8.16188C36.0817 8.12371 35.991 8.10705 35.8962 8.11191C35.8015 8.11676 35.7129 8.14262 35.6305 8.18948L35.5617 8.22699C35.5401 8.23822 35.5193 8.25072 35.4992 8.26449L35.3617 8.36451C35.3575 8.36862 35.3533 8.37279 35.3492 8.37702L35.1179 8.5583C35.1158 8.56037 35.1137 8.56245 35.1116 8.56455L34.7678 8.8396L34.3115 9.19592L33.6926 9.67726L32.9175 10.2836L31.9923 10.99L31.0171 11.7214C31.015 11.7235 31.0129 11.7256 31.0109 11.7277L30.0794 12.4403C30.0773 12.4424 30.0752 12.4444 30.0732 12.4465L29.2793 13.0654C29.2729 13.0715 29.2666 13.0778 29.2605 13.0842L28.6542 13.5968C28.6342 13.6143 28.6154 13.633 28.5979 13.653L28.2291 14.0593C28.1708 14.1228 28.1292 14.1957 28.1041 14.2781L28.0228 14.5594C27.9721 14.7474 28.0223 14.9028 28.1733 15.0257C28.3243 15.1486 28.4867 15.1661 28.6604 15.0783L28.9167 14.947C28.9547 14.9281 28.9901 14.9051 29.023 14.8783L29.4418 14.5219L30.0419 14.0218L30.8233 13.403L31.7485 12.6903L32.7237 11.9527L33.6489 11.2463C33.6531 11.2443 33.6572 11.2422 33.6614 11.2401L34.4428 10.6274L35.0554 10.1461L35.5117 9.77728C35.5138 9.77729 35.5159 9.77729 35.518 9.77728L35.8618 9.50223L36.0806 9.33345L36.1743 9.26468L36.2056 9.24593C36.1364 9.08503 36.0193 8.97541 35.8542 8.91706C35.6891 8.85871 35.5291 8.8704 35.3742 8.95213L35.3804 8.97088C35.5148 8.78488 35.5357 8.58692 35.443 8.37702L35.4179 8.41452L35.3117 8.52079C35.3032 8.52684 35.2949 8.53309 35.2867 8.53955L35.0679 8.76459L34.7366 9.0709L34.299 9.46472L33.7676 9.90231L33.13 10.4274L32.3986 11.0275C32.3944 11.0316 32.3902 11.0358 32.3861 11.04L31.586 11.7214C31.5796 11.7275 31.5733 11.7338 31.5672 11.7402L30.7296 12.5153C30.7254 12.5173 30.7212 12.5194 30.7171 12.5216L29.8481 13.353L29.0042 14.1531L28.2791 14.8157L27.7165 15.3033L27.3102 15.6221L27.0476 15.8284C27.0158 15.8527 26.9866 15.8798 26.9601 15.9097L26.8351 16.0535C26.7958 16.0985 26.7645 16.1485 26.7413 16.2035L26.71 16.2723C26.6434 16.432 26.6554 16.5856 26.7462 16.7329C26.837 16.8803 26.9687 16.9601 27.1414 16.9724ZM28.1791 14.9908L28.2103 15.0283C28.3354 15.1781 28.4728 15.1905 28.6228 15.0656C28.7727 14.9407 28.7852 14.8032 28.6604 14.6532L28.6292 14.6157C28.5041 14.4659 28.3666 14.4534 28.2167 14.5784C28.0668 14.7033 28.0543 14.8408 28.1791 14.9908Z" fill="black"/>
<path d="M16.002 22.9488C16.002 23.061 16.0416 23.1568 16.121 23.2361C16.2003 23.3155 16.2961 23.3551 16.4083 23.3551C16.5205 23.3551 16.6163 23.3155 16.6956 23.2361C16.775 23.1568 16.8146 23.061 16.8146 22.9488C16.8146 22.8366 16.775 22.7408 16.6956 22.6615C16.6163 22.5822 16.5205 22.5425 16.4083 22.5425C16.2961 22.5425 16.2003 22.5822 16.121 22.6615C16.0416 22.7408 16.002 22.8366 16.002 22.9488ZM16.5958 23.3239L16.6208 23.3114C16.7327 23.2563 16.8085 23.1698 16.8484 23.0517C16.8883 22.9336 16.8805 22.8187 16.825 22.7071C16.7695 22.5955 16.6826 22.52 16.5644 22.4806C16.4461 22.4412 16.3313 22.4495 16.2199 22.5054C16.1086 22.5614 16.0334 22.6486 15.9945 22.767C15.9555 22.8854 15.9643 23.0002 16.0207 23.1114L16.0332 23.1364C16.0849 23.24 16.1657 23.3102 16.2756 23.3468C16.3855 23.3835 16.4923 23.3758 16.5958 23.3239ZM15.9145 22.8676C15.9145 23.0108 15.9651 23.1331 16.0664 23.2344C16.1677 23.3357 16.29 23.3864 16.4333 23.3864C16.5766 23.3864 16.6989 23.3357 16.8002 23.2344C16.9015 23.1331 16.9521 23.0108 16.9522 22.8676C16.9521 22.7243 16.9015 22.602 16.8002 22.5007C16.6989 22.3994 16.5766 22.3487 16.4333 22.3487C16.29 22.3487 16.1677 22.3994 16.0664 22.5007C15.9651 22.602 15.9145 22.7243 15.9145 22.8676ZM15.8769 22.8175C15.8769 22.9764 15.9331 23.1119 16.0454 23.2242C16.1577 23.3365 16.2932 23.3927 16.4521 23.3927C16.6109 23.3927 16.7464 23.3365 16.8587 23.2242C16.971 23.1119 17.0272 22.9764 17.0272 22.8175C17.0272 22.6587 16.971 22.5232 16.8587 22.4109C16.7464 22.2986 16.6109 22.2424 16.4521 22.2424C16.2932 22.2424 16.1577 22.2986 16.0454 22.4109C15.9331 22.5232 15.8769 22.6587 15.8769 22.8175ZM16.5396 22.1549L16.4583 22.1424C16.2984 22.1138 16.1463 22.1367 16.002 22.2112L15.7769 22.33C15.7299 22.3566 15.6861 22.3879 15.6457 22.4237L15.3018 22.7113C15.2955 22.7174 15.2892 22.7237 15.2831 22.73L14.8267 23.1426L14.3016 23.6177L13.7515 24.1053L13.2389 24.5616L12.7951 24.9492C12.7888 24.9554 12.7825 24.9616 12.7764 24.968L12.4638 25.2618C12.4596 25.2659 12.4554 25.2701 12.4513 25.2743L12.2513 25.4743C12.2361 25.4883 12.2215 25.5029 12.2075 25.5181L12.095 25.6493C12.0908 25.6535 12.0866 25.6576 12.0825 25.6618L12.0262 25.7306C11.9571 25.8142 11.9071 25.908 11.8762 26.0119L11.8699 26.0432C11.7736 26.3706 11.8539 26.6467 12.1109 26.8714C12.3679 27.0961 12.6522 27.1388 12.9639 26.9996L13.0514 26.9621C13.0838 26.9475 13.115 26.9308 13.1452 26.9121L13.4077 26.7433C13.4119 26.7412 13.4161 26.7392 13.4202 26.737L13.8953 26.4182C13.8974 26.4162 13.8995 26.4141 13.9016 26.412L14.5142 25.9932C14.5226 25.9891 14.5309 25.985 14.5392 25.9806L15.2081 25.4806C15.2102 25.4806 15.2122 25.4806 15.2143 25.4806L15.8769 24.9742L16.4833 24.5491L16.9709 24.2053C16.9794 24.1993 16.9877 24.193 16.9959 24.1866L17.3335 23.924C17.3463 23.9161 17.3588 23.9078 17.371 23.899L17.5648 23.724C17.6322 23.6644 17.6842 23.5935 17.721 23.5114L17.7648 23.4114C17.8056 23.3177 17.8226 23.2198 17.8158 23.1179C17.8091 23.0159 17.7793 22.9211 17.7266 22.8336C17.6738 22.7461 17.6039 22.6755 17.5169 22.6219C17.4298 22.5683 17.3354 22.5377 17.2335 22.53L17.1334 22.5237C17.0569 22.5184 16.9819 22.5267 16.9084 22.5487L16.6959 22.6113C16.6524 22.6235 16.6107 22.6401 16.5708 22.6613L16.3208 22.7988C16.1876 22.8707 16.0954 22.978 16.0442 23.1204C15.993 23.2629 15.9958 23.4043 16.0527 23.5446C16.1097 23.6848 16.2061 23.7882 16.3421 23.8548C16.4781 23.9213 16.6189 23.9339 16.7646 23.8928L17.0334 23.8177C17.0397 23.8178 17.0459 23.8178 17.0522 23.8177L17.2647 23.7552C17.1946 23.7521 17.1258 23.7604 17.0584 23.7802H17.1584C17.1982 23.6859 17.214 23.5876 17.2059 23.4856C17.1979 23.3835 17.1668 23.289 17.1128 23.202C17.0587 23.1151 16.9877 23.0454 16.8998 22.993C16.8119 22.9405 16.7168 22.9112 16.6146 22.9051L16.5708 23.0051C16.6382 22.9455 16.6903 22.8746 16.7271 22.7925L16.5458 22.9488L16.2458 23.1864L15.7707 23.5177L15.1706 23.9178L14.4579 24.3178L13.7328 24.7117C13.7286 24.7137 13.7244 24.7158 13.7203 24.7179L13.0702 25.0867C13.0618 25.0907 13.0534 25.0949 13.0452 25.0992L12.5701 25.3993L12.3638 25.5181L12.3325 25.5306C12.1634 25.8605 12.2041 26.1622 12.4544 26.4357C12.7047 26.7092 13.0016 26.7763 13.3452 26.637L13.364 26.6058C13.3275 26.6503 13.2963 26.6982 13.2702 26.7495L13.3202 26.687L13.4015 26.587L13.5703 26.4182L13.8641 26.1432L14.2954 25.7619L14.8142 25.3055C14.8163 25.3034 14.8184 25.3014 14.8205 25.2993L15.3643 24.7992C15.3685 24.7971 15.3727 24.795 15.3769 24.7929L15.8957 24.3053C15.8978 24.3053 15.8999 24.3053 15.902 24.3053L16.3458 23.8802C16.3479 23.8782 16.35 23.8761 16.352 23.874L16.6708 23.5614C16.6906 23.5437 16.7093 23.5249 16.7271 23.5052L16.8896 23.3114C16.9329 23.2601 16.9684 23.2038 16.9959 23.1426L17.0272 23.0676C17.1137 22.8724 17.1067 22.6806 17.006 22.4923C16.9054 22.304 16.7499 22.1915 16.5396 22.1549ZM16.2083 23.2114L15.977 23.3364C15.8541 23.434 15.8299 23.5519 15.9042 23.69C15.9786 23.8282 16.0904 23.8728 16.2395 23.824L16.4708 23.699C16.5937 23.6014 16.6179 23.4835 16.5435 23.3453C16.4691 23.2072 16.3574 23.1625 16.2083 23.2114Z" fill="black"/>
<path d="M7.98798 29.4189C7.98806 29.5345 8.02899 29.6331 8.11076 29.7148C8.19253 29.7965 8.29121 29.8374 8.40681 29.8374C8.52241 29.8374 8.6211 29.7965 8.70287 29.7148C8.78464 29.6331 8.82556 29.5345 8.82564 29.4189C8.82556 29.3033 8.78464 29.2046 8.70287 29.1229C8.6211 29.0412 8.52241 29.0003 8.40681 29.0003C8.29121 29.0003 8.19253 29.0412 8.11076 29.1229C8.02899 29.2046 7.98806 29.3033 7.98798 29.4189ZM8.38806 29H8.3693C8.3331 29.0019 8.29768 29.0081 8.26303 29.0188L8.21302 29.0375C8.17321 29.049 8.13571 29.0657 8.1005 29.0875L8.08175 29.1L8.063 29.1063C7.91019 29.1759 7.81884 29.2934 7.78896 29.4586C7.75908 29.6239 7.80352 29.7659 7.92226 29.8846C8.04101 30.0034 8.18301 30.0478 8.34826 30.0179C8.51352 29.9881 8.63097 29.8967 8.70062 29.7439L8.71937 29.7002C8.68882 29.734 8.66382 29.7715 8.64436 29.8127L8.68811 29.7689C8.69708 29.7568 8.70541 29.7443 8.71312 29.7314L8.74437 29.6939C8.75928 29.6701 8.77179 29.6451 8.78188 29.6189L8.78813 29.6064C8.81984 29.5393 8.83306 29.4687 8.8278 29.3947C8.82254 29.3206 8.79947 29.2527 8.75859 29.1907C8.71772 29.1288 8.66429 29.0808 8.5983 29.0468C8.5323 29.0129 8.46222 28.9973 8.38806 29ZM8.38806 30.1002L8.6131 30.0627C8.68958 30.0472 8.76042 30.0181 8.82564 29.9752L9.34449 29.6564C9.35952 29.6466 9.37411 29.6362 9.38825 29.6251L10.2259 28.9938C10.2301 28.9917 10.2343 28.9896 10.2384 28.9875L11.3324 28.1186L12.5201 27.1997L13.7266 26.2745L14.8705 25.4118L15.8395 24.6867L16.5709 24.1366C16.5729 24.1366 16.575 24.1366 16.5771 24.1366L17.0647 23.7678L17.3585 23.5427C17.3627 23.5386 17.3669 23.5345 17.371 23.5302L17.5148 23.4177C17.5573 23.3852 17.5948 23.3477 17.6273 23.3052L17.6586 23.2614C17.8413 23.0237 17.8455 22.783 17.671 22.5391C17.4966 22.2952 17.2674 22.2214 16.9834 22.3175L16.9334 22.3363C16.8825 22.3529 16.8346 22.3758 16.7897 22.405L16.6771 22.48C16.6643 22.4879 16.6518 22.4962 16.6396 22.505L16.4646 22.6363L16.202 22.8363C16.1957 22.8404 16.1895 22.8446 16.1833 22.8488L15.777 23.1802C15.7749 23.1822 15.7728 23.1843 15.7707 23.1864L15.1456 23.7178C15.1371 23.7238 15.1288 23.7301 15.1206 23.7365L14.2892 24.5117L13.2765 25.4056L12.2138 26.2933C12.2116 26.2974 12.2096 26.3016 12.2075 26.3058L11.2761 27.1184C11.2482 27.1429 11.2232 27.1699 11.2011 27.1997L10.651 27.9311L10.1509 28.3374C10.0011 28.4583 9.98662 28.5937 10.1074 28.7435C10.2281 28.8934 10.3635 28.9081 10.5135 28.7875L11.0198 28.3749L11.845 27.9873C11.8807 27.9703 11.914 27.9494 11.945 27.9248L12.9139 27.1497C12.9182 27.1456 12.9223 27.1414 12.9264 27.1372L13.9891 26.2432L15.0268 25.3681L15.9207 24.6679C15.9271 24.6639 15.9333 24.6597 15.9395 24.6554L16.5584 24.1241L16.9522 23.8053L17.2022 23.6115L17.3648 23.4927L17.4648 23.4177C17.4294 23.4353 17.3961 23.4562 17.3648 23.4802L17.4148 23.4552C17.5896 23.2034 17.5794 22.9594 17.3841 22.7231C17.1889 22.4868 16.9511 22.4307 16.6709 22.555L16.6396 22.5988C16.6803 22.5639 16.7157 22.5243 16.7459 22.48L16.6146 22.5926L16.3333 22.8113L15.852 23.1802C15.8499 23.1801 15.8478 23.1801 15.8457 23.1802L15.1268 23.7428L14.1642 24.4679L13.0077 25.3056C13.0056 25.3076 13.0035 25.3097 13.0014 25.3118L11.7825 26.2245C11.7804 26.2245 11.7783 26.2245 11.7762 26.2245L10.5697 27.1309C10.5676 27.1351 10.5655 27.1392 10.5635 27.1434L9.46951 27.9998L8.64436 28.6187L8.15676 28.9688C8.14171 28.9785 8.12713 28.989 8.113 29L7.94422 29.15C7.7339 29.3292 7.6872 29.5439 7.80412 29.7942C7.92104 30.0446 8.11569 30.1466 8.38806 30.1002Z" fill="black"/>
<path d="M0.486904 29.4435C0.486904 29.5402 0.521081 29.6227 0.589436 29.691C0.657791 29.7594 0.740302 29.7936 0.836971 29.7936C0.933639 29.7936 1.01615 29.7594 1.0845 29.691C1.15286 29.6227 1.18704 29.5402 1.18704 29.4435C1.18704 29.3468 1.15286 29.2643 1.0845 29.196C1.01615 29.1276 0.933639 29.0934 0.836971 29.0934C0.740302 29.0934 0.657791 29.1276 0.589436 29.196C0.521081 29.2643 0.486904 29.3468 0.486904 29.4435ZM1.23705 29.356L1.2308 29.3185C1.17541 29.4116 1.15666 29.5116 1.17453 29.6185L1.19329 29.5873C1.23693 29.5119 1.25985 29.4306 1.26205 29.3435V29.2935C1.25611 28.9894 1.10375 28.8088 0.804969 28.7518C0.50619 28.6948 0.298066 28.8066 0.180596 29.0872L0.168093 29.1122C0.105654 29.29 0.124407 29.4588 0.224354 29.6185L0.293117 29.7248L0.399387 29.9749L0.599425 30.4749C0.605333 30.4876 0.611584 30.5001 0.618179 30.5125L0.974497 31.2751C0.978521 31.2835 0.982688 31.2918 0.986999 31.3001L1.53085 32.3378C1.53679 32.3505 1.54304 32.363 1.54961 32.3753L2.29975 33.6693C2.30959 33.6863 2.32001 33.703 2.331 33.7193L3.26868 35.1071C3.28058 35.1242 3.29308 35.1409 3.30619 35.1571L4.35014 36.4823C4.3602 36.4951 4.37062 36.5076 4.3814 36.5198L5.42534 37.7013C5.43744 37.7142 5.44994 37.7267 5.46285 37.7388L6.43804 38.6953C6.44618 38.7038 6.45451 38.7121 6.46304 38.7203L7.28195 39.4579C7.29013 39.4644 7.29847 39.4706 7.30695 39.4767L7.95082 40.0018C7.95493 40.006 7.95909 40.0102 7.96333 40.0143L8.40716 40.3456C8.43471 40.3651 8.46388 40.3818 8.49468 40.3956L8.78848 40.5394C8.93018 40.608 9.07187 40.608 9.21356 40.5394L9.34484 40.4769C9.40722 40.4479 9.45849 40.4055 9.49867 40.3497C9.53885 40.2939 9.56277 40.2318 9.57044 40.1635C9.5781 40.0952 9.56852 40.0293 9.54171 39.966C9.51489 39.9027 9.47427 39.85 9.41985 39.808L9.30108 39.7142C9.29694 39.7121 9.29278 39.71 9.28858 39.708L9.06354 39.5454L8.74473 39.1891L8.25088 38.5577C8.24677 38.5535 8.2426 38.5493 8.23838 38.5452L7.5445 37.6888C7.54243 37.6867 7.54034 37.6846 7.53825 37.6826L6.66933 36.6386L5.68789 35.4259L4.6752 34.1194L3.75628 32.7691L2.98738 31.5314L2.42477 30.525C2.41678 30.5122 2.40845 30.4997 2.39977 30.4874L1.94968 29.7811C1.93067 29.7526 1.90983 29.7255 1.88717 29.6998L1.54336 29.281C1.52388 29.2588 1.50305 29.2379 1.48084 29.2185L1.2558 29.0122L1.14953 28.8996C1.05696 28.8028 0.944438 28.7445 0.811966 28.7246L0.786961 28.7184C0.640936 28.7128 0.512265 28.7573 0.400949 28.852C0.289632 28.9467 0.225012 29.0665 0.207087 29.2115C0.189162 29.3566 0.222658 29.4886 0.307574 29.6075C0.392489 29.7264 0.506443 29.8009 0.649435 29.8311L0.699444 29.8373C0.732784 29.8406 0.766124 29.8406 0.799464 29.8373L0.836971 29.8311C0.772235 29.8072 0.705556 29.7989 0.636933 29.8061L0.680691 29.8248C0.832903 29.8807 0.971009 29.8565 1.09501 29.752C1.21901 29.6475 1.26635 29.5155 1.23705 29.356ZM9.51362 40.1643L9.55738 40.0705C9.63192 39.9123 9.59017 39.7958 9.43213 39.7209C9.27408 39.6461 9.15747 39.6876 9.08229 39.8455L9.03853 39.9392C8.96352 40.0976 9.00519 40.2143 9.16355 40.2893C9.32192 40.3643 9.43861 40.3227 9.51362 40.1643Z" fill="black"/>
<path d="M9.03848 40.5144H9.04474C9.07438 40.5135 9.10355 40.5093 9.13225 40.5019L9.19476 40.4831C9.21627 40.4764 9.23711 40.4681 9.25728 40.4581L9.38855 40.3956C9.42718 40.3776 9.46261 40.3547 9.49482 40.3268L9.73237 40.1205C9.74326 40.1106 9.75368 40.1002 9.76362 40.0893L10.1574 39.6829C10.1617 39.6768 10.1659 39.6705 10.1699 39.6642L10.7201 39.0453L11.4202 38.2452L12.2516 37.345L13.2018 36.3823L14.1707 35.4196L15.9648 33.6318L16.6837 32.9067L17.215 32.3753C17.2193 32.3712 17.2234 32.367 17.2275 32.3628L17.5526 32.019C17.5568 32.0149 17.561 32.0107 17.5651 32.0065L17.7276 31.8252C17.7937 31.7506 17.8395 31.6652 17.8652 31.5689L17.8839 31.5001C17.9537 31.2286 17.8736 31.0125 17.6437 30.852C17.4137 30.6916 17.1834 30.6909 16.9525 30.85L16.8962 30.8938C16.8573 30.921 16.8219 30.9523 16.79 30.9875L16.6337 31.1626L16.3149 31.5001L15.8023 32.0377L15.0896 32.7566L13.3018 34.5507L12.3391 35.5197C12.3349 35.5238 12.3307 35.5279 12.3266 35.5322L11.3889 36.5261C11.3826 36.5301 11.3764 36.5343 11.3702 36.5386L10.5513 37.4763C10.547 37.4824 10.5428 37.4887 10.5388 37.495L9.86364 38.3264C9.86151 38.3306 9.85942 38.3347 9.85739 38.3389L9.3573 38.9953C9.35306 38.9994 9.34889 39.0036 9.34479 39.0078L9.02598 39.4642L8.8322 39.7017C8.82998 39.7079 8.82789 39.7142 8.82594 39.7205L8.74468 39.833L8.71342 39.8705C8.66009 39.9361 8.63092 40.0111 8.62591 40.0955V40.1018C8.61808 40.2188 8.65563 40.3188 8.73856 40.4017C8.82149 40.4846 8.92146 40.5222 9.03848 40.5144ZM16.79 31.3314C16.79 31.4677 16.8382 31.5841 16.9346 31.6806C17.031 31.777 17.1474 31.8252 17.2838 31.8252C17.4202 31.8252 17.5366 31.777 17.633 31.6806C17.7294 31.5841 17.7776 31.4677 17.7776 31.3314C17.7776 31.195 17.7294 31.0786 17.633 30.9822C17.5366 30.8857 17.4202 30.8375 17.2838 30.8375C17.1474 30.8375 17.031 30.8857 16.9346 30.9822C16.8382 31.0786 16.79 31.195 16.79 31.3314ZM17.1775 31.0876L17.1338 31.1001C16.9975 31.1617 16.9493 31.2647 16.9889 31.4089C17.0286 31.553 17.1227 31.6168 17.2713 31.6002L17.3151 31.5877C17.4513 31.526 17.4996 31.423 17.4599 31.2789C17.4203 31.1347 17.3261 31.0709 17.1775 31.0876Z" fill="black"/>
<path d="M1.77462 29.7748H1.78087C1.88348 29.699 1.94112 29.5976 1.95378 29.4707C1.96644 29.3437 1.92996 29.233 1.84435 29.1384C1.75874 29.0438 1.65215 28.9965 1.52458 28.9965C1.39701 28.9965 1.29041 29.0438 1.2048 29.1384C1.11919 29.233 1.08271 29.3437 1.09537 29.4707C1.10804 29.5976 1.16567 29.699 1.26828 29.7748H1.27453C1.44123 29.8988 1.60793 29.8988 1.77462 29.7748ZM1.99342 29.4685V29.456C2.01238 29.3037 1.9707 29.1703 1.86839 29.0559L1.84339 29.0309C1.77924 28.9559 1.70006 28.9038 1.60584 28.8746L1.56833 28.8684C1.42226 28.8292 1.28561 28.8505 1.1584 28.9323C1.03118 29.0141 0.95507 29.1295 0.930057 29.2787C0.905044 29.4278 0.939325 29.5618 1.0329 29.6806C1.12647 29.7994 1.24869 29.8642 1.39955 29.8748L1.43706 29.8811C1.36692 29.8427 1.29191 29.8218 1.21202 29.8185L1.24952 29.8373C1.39442 29.9158 1.54236 29.922 1.69336 29.856L1.70586 29.8498C1.87561 29.7784 1.97147 29.6513 1.99342 29.4685ZM1.43706 29.8998L1.49332 29.8936C1.57215 29.8901 1.64717 29.8713 1.71836 29.8373L1.93715 29.731C1.98193 29.7087 2.0236 29.6816 2.06218 29.6498L2.49351 29.2997C2.50199 29.2936 2.51032 29.2874 2.51852 29.2809L3.2249 28.6621L4.25635 27.7994L5.55034 26.7179L6.98812 25.5302L8.37588 24.3988L9.5386 23.4798L10.4075 22.8235C10.4096 22.8235 10.4117 22.8235 10.4138 22.8235L11.0139 22.3609C11.0202 22.3568 11.0265 22.3526 11.0326 22.3484L11.3827 22.0546L11.5577 21.942L11.6265 21.9108C11.58 21.7545 11.4828 21.6419 11.335 21.573C11.1872 21.5041 11.0385 21.5021 10.8889 21.567L10.9014 21.6107C10.9437 21.4975 10.9479 21.3829 10.9139 21.2669L10.8889 21.3294L10.8576 21.3982C10.8482 21.4165 10.8399 21.4352 10.8326 21.4544L10.8013 21.542C10.7885 21.5806 10.7802 21.6202 10.7763 21.6607L10.7701 21.7232C10.7594 21.8065 10.7677 21.8877 10.7951 21.967L10.8013 21.9858V21.9733V21.9983C10.8013 22.0276 10.8034 22.0568 10.8076 22.0858L10.8388 22.2859C10.8464 22.3439 10.861 22.4002 10.8826 22.4546L11.0576 22.8672C11.0636 22.8778 11.0699 22.8882 11.0764 22.8985L11.414 23.6049C11.418 23.6112 11.4222 23.6174 11.4265 23.6236L11.9453 24.6363C11.9604 24.6644 11.977 24.6915 11.9953 24.7176L12.7892 25.8928C12.7913 25.8928 12.7934 25.8928 12.7955 25.8928L13.6769 27.1743L14.5333 28.4933L15.2959 29.7435L15.9148 30.8125C15.9267 30.8296 15.9392 30.8463 15.9523 30.8625L16.4837 31.6251C16.5708 31.7499 16.6854 31.8395 16.8275 31.8939L17.2713 32.0627C17.4065 32.1122 17.5357 32.0997 17.6589 32.0252L17.7277 31.9815L17.8027 31.9689C17.9443 31.9397 18.0005 31.8543 17.9713 31.7127C17.9422 31.5711 17.8568 31.5148 17.7152 31.5439L17.6026 31.5689C17.5896 31.6436 17.6106 31.7071 17.6655 31.7594C17.7205 31.8116 17.785 31.8294 17.8589 31.8127L17.8714 31.7001C17.8777 31.665 17.8798 31.6295 17.8777 31.5939L17.8277 31.125C17.8178 31.0302 17.7907 30.9406 17.7464 30.8562L17.3213 30.0373C17.3153 30.0268 17.3091 30.0164 17.3026 30.0061L16.6775 28.9309C16.6754 28.9267 16.6733 28.9225 16.6712 28.9184L15.9023 27.6431C15.8982 27.6368 15.8941 27.6306 15.8898 27.6244L15.0209 26.2866C15.0168 26.2803 15.0126 26.2741 15.0084 26.2679L14.1207 24.9801L13.3206 23.8174L12.708 22.911L12.3704 22.2546C12.3664 22.2462 12.3622 22.2378 12.3579 22.2296L12.1328 21.8358C12.0905 21.7612 12.0364 21.6966 11.9703 21.642L11.814 21.5107C11.7923 21.4925 11.7693 21.4758 11.7453 21.4607L11.6828 21.4232L11.6328 21.3919C11.6723 21.4727 11.7285 21.5394 11.8015 21.592L11.7828 21.5482C11.7756 21.6472 11.7943 21.7409 11.839 21.8295L11.8453 21.767C11.8288 21.8115 11.8184 21.8573 11.814 21.9045L11.8265 21.8608L11.8578 21.8108C11.8623 21.8005 11.8665 21.7901 11.8703 21.7795L11.9141 21.6982C11.9761 21.5738 11.9886 21.4447 11.9516 21.3107L11.9391 21.2669C11.8973 21.1145 11.8064 21.0017 11.6663 20.9285C11.5262 20.8554 11.3816 20.8452 11.2327 20.8981L11.1202 20.9356C11.0965 20.9444 11.0736 20.9549 11.0514 20.9669L10.8076 21.0919L10.37 21.2919C10.3463 21.303 10.3234 21.3155 10.3012 21.3294L9.65737 21.7232C9.64459 21.7312 9.63209 21.7395 9.61987 21.7483L8.72595 22.3859C8.71963 22.3899 8.71338 22.3941 8.70719 22.3984L7.51947 23.2985C7.51528 23.3006 7.51111 23.3027 7.50697 23.3048L6.0942 24.4238C6.0921 24.4258 6.09002 24.4279 6.08795 24.43L4.63767 25.6115C4.63766 25.6136 4.63766 25.6157 4.63767 25.6177L3.33742 26.6992C3.33323 26.7012 3.32907 26.7033 3.32492 26.7054L2.29972 27.5869C2.2955 27.591 2.29134 27.5951 2.28722 27.5994L1.58084 28.237C1.56561 28.2509 1.55102 28.2655 1.53708 28.2807L1.16201 28.6933C1.12836 28.7296 1.09918 28.7692 1.07449 28.8121L0.955718 29.0246C0.935053 29.0604 0.918384 29.0979 0.905708 29.1372L0.886955 29.1934C0.860092 29.2787 0.854583 29.3653 0.870429 29.4533C0.886275 29.5412 0.921659 29.6205 0.976582 29.691C1.0315 29.7615 1.09967 29.8153 1.18108 29.8522C1.26249 29.8891 1.34782 29.905 1.43706 29.8998Z" fill="black"/>
<path d="M14.6458 19.7729C14.6458 19.9812 14.75 20.0854 14.9583 20.0854C15.1667 20.0854 15.2709 19.9812 15.2709 19.7729C15.2709 19.5645 15.1667 19.4603 14.9583 19.4603C14.75 19.4603 14.6458 19.5645 14.6458 19.7729ZM14.6145 19.5541L14.602 19.5728L14.552 19.6291C14.5409 19.641 14.5305 19.6535 14.5208 19.6666L14.427 19.7916C14.4203 19.8018 14.414 19.8122 14.4082 19.8229L14.3457 19.9229L14.327 19.9479C14.2588 20.0566 14.239 20.1736 14.2677 20.2987C14.2964 20.4238 14.3651 20.5205 14.4739 20.5886C14.5826 20.6568 14.6996 20.6766 14.8247 20.6479C14.9498 20.6192 15.0464 20.5505 15.1146 20.4417L15.1646 20.3605C15.1668 20.3543 15.1689 20.348 15.1709 20.3417L15.2834 20.1292C15.2881 20.1169 15.2923 20.1044 15.2959 20.0917L15.4334 19.7666L15.5897 19.3915C15.5941 19.3833 15.5983 19.375 15.6022 19.3665L15.7335 19.0102C15.7357 19.004 15.7378 18.9978 15.7397 18.9915L15.8273 18.6977C15.8321 18.6833 15.8362 18.6687 15.8398 18.6539L15.8835 18.4414C15.8895 18.4167 15.8937 18.3917 15.896 18.3663L15.9023 18.2476C15.9075 18.1571 15.8907 18.0709 15.8518 17.9891C15.813 17.9072 15.7568 17.8397 15.6834 17.7865C15.61 17.7334 15.5284 17.7011 15.4385 17.6897C15.3486 17.6784 15.2615 17.6893 15.1771 17.7225L15.1459 17.735C15.0186 17.7866 14.9248 17.8741 14.8646 17.9975L14.7896 18.1476C14.783 18.1578 14.7767 18.1682 14.7708 18.1788L14.652 18.4664C14.6499 18.4705 14.6478 18.4747 14.6458 18.4789L14.502 18.8477C14.502 18.8498 14.502 18.8519 14.502 18.8539L14.352 19.2415L14.2144 19.6103L14.1019 19.9041L14.0332 20.0542C14.0278 20.3485 14.1686 20.5286 14.4556 20.5942C14.7426 20.6599 14.9476 20.5591 15.0709 20.2917V20.2292C15.0495 20.2899 15.0391 20.3524 15.0396 20.4167L15.1584 20.1042C15.1584 20.1021 15.1584 20.1 15.1584 20.0979L15.3584 19.5603C15.3605 19.5583 15.3626 19.5562 15.3647 19.5541L15.8022 18.3288C15.8043 18.3288 15.8064 18.3288 15.8085 18.3288L15.946 17.935L16.0148 17.7975C15.9931 17.4731 15.8236 17.2759 15.5061 17.2059C15.1886 17.1359 14.9519 17.2435 14.7958 17.5287V17.5912L14.7333 17.8975C14.7333 17.8996 14.7333 17.9017 14.7333 17.9038L14.6208 18.4414C14.6155 18.462 14.6113 18.4828 14.6083 18.5039L14.552 19.0852C14.5486 19.1186 14.5486 19.1519 14.552 19.1853L14.602 19.6416L14.4895 20.0042C14.4356 20.1749 14.4939 20.2873 14.6646 20.3414C14.8353 20.3956 14.9478 20.3373 15.0021 20.1667L15.1209 19.7979L15.4147 19.4478C15.4366 19.4206 15.4553 19.3915 15.4709 19.3603L15.7397 18.8352C15.7543 18.809 15.7668 18.7819 15.7772 18.7539L15.9523 18.2351C15.9594 18.2166 15.9657 18.1979 15.971 18.1788L16.0648 17.7912C16.0731 17.75 16.0772 17.7083 16.0773 17.6662L16.0836 17.5287C16.0852 17.1886 15.9211 16.9773 15.5911 16.8948C15.2612 16.8123 15.0169 16.9215 14.8583 17.2224L14.7708 17.3974C14.7588 17.4218 14.7484 17.4468 14.7395 17.4724L14.5958 17.9038C14.5935 17.9121 14.5914 17.9204 14.5895 17.9288L14.2207 19.179C14.2186 19.179 14.2165 19.179 14.2144 19.179L14.0582 19.7354C14.0534 19.7498 14.0493 19.7644 14.0457 19.7791L13.9769 20.1104C13.9624 20.188 13.9645 20.2651 13.9832 20.3417L13.9957 20.398C14.0485 20.6503 14.2028 20.7929 14.4585 20.8259C14.7141 20.8588 14.8995 20.7599 15.0146 20.5293L15.1021 20.3605C15.1092 20.3441 15.1154 20.3274 15.1209 20.3105L15.2396 19.9979C15.2396 19.9958 15.2396 19.9937 15.2396 19.9917L15.3772 19.6291L15.5272 19.2478L15.6647 18.8852L15.7835 18.5976C15.7856 18.5956 15.7877 18.5935 15.7897 18.5914L15.846 18.4289C15.8143 18.471 15.7892 18.5169 15.771 18.5664L15.7897 18.5414C15.775 18.2967 15.6505 18.1381 15.4163 18.0657C15.1821 17.9933 14.9899 18.0539 14.8396 18.2476L14.8458 18.3288L14.8333 18.4726L14.7833 18.7227L14.6833 19.0477L14.552 19.404L14.4207 19.7229L14.327 19.9354C14.3249 19.9354 14.3228 19.9354 14.3207 19.9354L14.2832 20.0292C14.2444 20.1509 14.2542 20.2685 14.3128 20.382C14.3714 20.4955 14.4616 20.5717 14.5833 20.6105C14.705 20.6494 14.8226 20.6395 14.9361 20.5809C15.0496 20.5223 15.1258 20.4322 15.1646 20.3105L15.1709 20.2855L15.1959 20.1979L15.2396 20.0979L15.2834 20.0167C15.2856 20.0105 15.2877 20.0042 15.2897 19.9979L15.3147 19.9541C15.4066 19.7334 15.3488 19.5637 15.1412 19.4451C14.9336 19.3264 14.758 19.3628 14.6145 19.5541Z" fill="black"/>
<path d="M15.1271 17.4599C15.1271 17.5514 15.1595 17.6295 15.2242 17.6942C15.2888 17.7589 15.3669 17.7912 15.4584 17.7912C15.5499 17.7912 15.628 17.7589 15.6927 17.6942C15.7574 17.6295 15.7897 17.5514 15.7897 17.4599C15.7897 17.3684 15.7574 17.2903 15.6927 17.2256C15.628 17.1609 15.5499 17.1286 15.4584 17.1286C15.3669 17.1286 15.2888 17.1609 15.2242 17.2256C15.1595 17.2903 15.1271 17.3684 15.1271 17.4599ZM15.0521 17.4412V17.4662C15.1787 17.5151 15.299 17.5029 15.4131 17.4295C15.5272 17.356 15.5881 17.2516 15.596 17.1161L15.5897 17.1098C15.4626 17.0618 15.3409 17.073 15.2247 17.1434C15.1085 17.2138 15.0422 17.3164 15.0259 17.4513C15.0096 17.5862 15.0495 17.7017 15.1455 17.7978C15.2416 17.8939 15.3571 17.9338 15.492 17.9174C15.6269 17.9011 15.7295 17.8349 15.7999 17.7186C15.8703 17.6024 15.8815 17.4807 15.8335 17.3536L15.8273 17.3474C15.8295 17.3883 15.8378 17.4278 15.8523 17.4662V17.4412C15.8523 17.3307 15.8132 17.2364 15.7351 17.1583C15.657 17.0801 15.5627 17.0411 15.4522 17.0411C15.3417 17.0411 15.2474 17.0801 15.1693 17.1583C15.0912 17.2364 15.0521 17.3307 15.0521 17.4412ZM15.7397 17.8162L15.7585 17.8037L15.8585 17.7225C15.8671 17.7144 15.8755 17.7061 15.8835 17.6974L16.1023 17.5037L16.4836 17.1786L17.065 16.7035L17.8464 16.0721L18.7653 15.3533L19.7092 14.6594L20.5594 14.053L21.2408 13.5779L21.7909 13.2216C21.7993 13.2177 21.8077 13.2135 21.8159 13.2091L22.2535 12.8903C22.2577 12.8862 22.2619 12.882 22.266 12.8778L22.6035 12.6152C22.61 12.6092 22.6162 12.6029 22.6223 12.5965L22.8786 12.3714C22.8828 12.3673 22.887 12.3632 22.8911 12.3589L23.0911 12.1651L23.2537 12.0089C23.2601 12.0028 23.2664 11.9966 23.2724 11.9901L23.3849 11.8651C23.3914 11.859 23.3976 11.8528 23.4037 11.8463L23.4725 11.7588C23.4493 11.7773 23.4284 11.7981 23.4099 11.8213L23.4349 11.8026C23.5895 11.625 23.5869 11.4497 23.4271 11.2768C23.2674 11.1038 23.0929 11.0874 22.9036 11.2275L22.8848 11.2462C22.8804 11.2544 22.8762 11.2627 22.8723 11.2712L22.8411 11.3087C22.8151 11.3389 22.7943 11.3722 22.7786 11.4088L22.7661 11.44C22.6794 11.6572 22.7398 11.8198 22.9474 11.9276L22.9661 11.9401C23.0347 11.9766 23.1076 11.9912 23.1849 11.9839L23.2412 11.9776C23.2969 11.9722 23.349 11.9556 23.3974 11.9276L23.4725 11.8838C23.4809 11.88 23.4893 11.8758 23.4975 11.8713L23.71 11.7276L23.81 11.6651L23.8913 11.6213C23.8427 11.6273 23.7969 11.6419 23.7538 11.6651L23.7975 11.6588C23.8937 11.5152 23.8959 11.3703 23.8042 11.2238C23.7125 11.0774 23.5811 11.0161 23.4099 11.0399L23.3849 11.0774C23.3703 11.0992 23.3578 11.1221 23.3474 11.1462L23.3037 11.2587C23.2964 11.275 23.2901 11.2917 23.2849 11.3087L23.2412 11.4838C23.236 11.5002 23.2318 11.5168 23.2287 11.5338L23.1974 11.7838C23.1949 11.7942 23.1928 11.8046 23.1912 11.8151L23.1787 12.1089L23.1536 12.3964L23.1286 12.6277C23.1286 12.6298 23.1286 12.6319 23.1286 12.634L23.1099 12.759C23.0909 12.9332 23.1583 13.0625 23.3119 13.1468C23.4655 13.2312 23.6107 13.2186 23.7475 13.1091L23.7913 13.0778C23.8333 13.0431 23.8666 13.0014 23.8913 12.9528L23.9726 12.7903C23.9746 12.7903 23.9767 12.7903 23.9788 12.7903L24.0663 12.609L24.1351 12.5027C24.1564 12.2798 24.0617 12.1307 23.8508 12.0554C23.6399 11.9801 23.4721 12.0354 23.3474 12.2214L23.3412 12.2527C23.3469 12.2321 23.351 12.2113 23.3537 12.1902L23.2974 12.3902L23.1912 12.7278C23.189 12.7319 23.1869 12.7361 23.1849 12.7403L23.0724 13.1403L22.9599 13.4904L22.8473 13.7592C22.7697 13.9872 22.8419 14.1479 23.0638 14.2413C23.2858 14.3348 23.4511 14.2741 23.56 14.0593L23.6787 13.7717L23.8288 13.4216L23.9976 13.0341C24.002 13.0259 24.0062 13.0175 24.0101 13.0091L24.1351 12.6652C24.1398 12.6529 24.144 12.6404 24.1476 12.6277L24.2038 12.4152C24.2349 12.2987 24.2203 12.1883 24.1601 12.0839L24.1476 12.0589C24.0529 11.8944 23.9113 11.8234 23.7228 11.8458C23.5344 11.8683 23.4134 11.9705 23.3599 12.1526L23.3224 12.2777L23.2599 12.4527L23.1849 12.5965C23.2269 12.5617 23.2602 12.52 23.2849 12.4715L23.2474 12.5027C23.2291 12.6803 23.2992 12.8103 23.4577 12.8926C23.6162 12.9749 23.7628 12.9574 23.8975 12.8403L23.9038 12.7215L23.935 12.484L23.9788 12.1902L24.0226 11.9026L24.0601 11.6713L24.0913 11.54L24.1226 11.4463C24.1423 11.3982 24.1527 11.3482 24.1538 11.2962L24.1476 11.2525C24.1475 11.1063 24.0858 10.9938 23.9625 10.9153C23.8392 10.8367 23.7113 10.8282 23.5787 10.8899L23.5412 10.9087C23.5261 10.9161 23.5115 10.9244 23.4975 10.9337L23.4099 10.9837C23.4078 10.9857 23.4058 10.9878 23.4037 10.9899L23.2849 11.0649C23.2807 11.069 23.2765 11.0732 23.2724 11.0774L23.0661 11.2212L23.0036 11.2587C23.0598 11.2514 23.1119 11.2326 23.1599 11.2025L23.1036 11.2087C23.189 11.2801 23.2869 11.3092 23.3974 11.2962L23.3787 11.2837C23.3041 11.4618 23.3416 11.6118 23.4912 11.7338L23.5037 11.7026C23.4749 11.7342 23.452 11.7696 23.4349 11.8088L23.4537 11.7838H23.46C23.6217 11.6163 23.629 11.4422 23.482 11.2616C23.3349 11.081 23.1629 11.053 22.9661 11.1775L22.9411 11.1962C22.9609 11.1853 22.9797 11.1728 22.9974 11.1587L22.9036 11.2087C22.8909 11.2123 22.8784 11.2165 22.8661 11.2212L22.7223 11.3087C22.7024 11.3218 22.6836 11.3364 22.6661 11.3525L22.491 11.4963C22.4825 11.5022 22.4741 11.5085 22.466 11.515L22.2722 11.7026L22.0347 11.9088L21.7284 12.1464L21.2908 12.4089L20.7219 12.734C20.7177 12.7381 20.7135 12.7423 20.7094 12.7465L19.9905 13.1903C19.9863 13.1924 19.9822 13.1945 19.978 13.1966L19.0966 13.7717C19.0882 13.7757 19.0798 13.7798 19.0716 13.7842L18.1152 14.4843C18.111 14.4864 18.1068 14.4885 18.1027 14.4906L17.1713 15.2032C17.167 15.2073 17.1629 15.2115 17.1588 15.2157L16.3711 15.8533C16.369 15.8533 16.3669 15.8533 16.3649 15.8533L15.7835 16.3409C15.7793 16.343 15.7751 16.3451 15.771 16.3472L15.3897 16.6785C15.3766 16.6904 15.3641 16.7029 15.3522 16.716L15.1459 16.9348C15.089 16.992 15.0473 17.0587 15.0208 17.1348L14.9771 17.2724C14.9238 17.4288 14.9446 17.5747 15.0396 17.71L15.0646 17.7412C15.1424 17.8537 15.2492 17.9174 15.3851 17.9325C15.521 17.9476 15.6392 17.9089 15.7397 17.8162Z" fill="black"/>
<path d="M23.9539 11.3463C23.9539 11.5463 24.0539 11.6463 24.254 11.6463C24.454 11.6463 24.554 11.5463 24.554 11.3463C24.554 11.1462 24.454 11.0462 24.254 11.0462C24.0539 11.0462 23.9539 11.1462 23.9539 11.3463ZM24.6415 11.3775V11.3588C24.577 11.4298 24.5416 11.5131 24.5353 11.6088L24.5603 11.5776C24.6427 11.4879 24.6823 11.3821 24.6789 11.2604C24.6755 11.1386 24.6301 11.0352 24.5427 10.9503C24.4554 10.8653 24.3508 10.8228 24.2289 10.8228C24.1071 10.8228 24.0025 10.8653 23.9152 10.9503C23.8278 11.0352 23.7824 11.1386 23.779 11.2604C23.7756 11.3821 23.8152 11.4879 23.8976 11.5776L23.9226 11.6088C24.0138 11.7076 24.1263 11.7513 24.2602 11.7401H24.279C24.5035 11.7229 24.6243 11.602 24.6415 11.3775ZM23.7289 11.2213C23.7289 11.3611 23.7783 11.4804 23.8772 11.5793C23.976 11.6782 24.0954 11.7276 24.2352 11.7276C24.375 11.7276 24.4944 11.6782 24.5932 11.5793C24.6921 11.4804 24.7415 11.3611 24.7415 11.2213C24.7415 11.0814 24.6921 10.9621 24.5932 10.8632C24.4944 10.7643 24.375 10.7149 24.2352 10.7149C24.0954 10.7149 23.976 10.7643 23.8772 10.8632C23.7783 10.9621 23.7289 11.0814 23.7289 11.2213ZM23.7038 11.39L23.7351 11.4838C23.7547 11.5488 23.7839 11.6093 23.8226 11.6651L23.9664 11.8714C23.9871 11.9003 24.0101 11.9274 24.0352 11.9526L24.3227 12.2402C24.3347 12.2532 24.3472 12.2657 24.3602 12.2777L24.7791 12.6403C24.7932 12.6513 24.8078 12.6617 24.8228 12.6715L25.3417 13.0466C25.3478 13.0509 25.3541 13.0551 25.3604 13.0591L25.9043 13.4279C25.9084 13.4301 25.9126 13.4322 25.9168 13.4342L26.3731 13.7217L26.6482 14.053C26.7627 14.1609 26.8809 14.165 27.0026 14.0654C27.1244 13.9657 27.1438 13.8491 27.0607 13.7155L26.7857 13.3717L26.5481 12.8716C26.5406 12.8565 26.5323 12.8419 26.5231 12.8278L26.1731 12.2715C26.1578 12.2495 26.1412 12.2286 26.1231 12.2089L25.7167 11.7151C25.6991 11.6952 25.6803 11.6765 25.6605 11.6588L25.2604 11.29L24.9791 11.0087C24.9749 11.0066 24.9708 11.0045 24.9666 11.0025L24.7916 10.8337C24.7313 10.7766 24.6625 10.7329 24.5853 10.7024L24.4915 10.6649C24.2601 10.5728 24.0528 10.6111 23.8696 10.7797C23.6864 10.9484 23.6311 11.1518 23.7038 11.39Z" fill="black"/>
<path d="M25.5541 12.684C25.5541 12.7928 25.5926 12.8856 25.6695 12.9625C25.7464 13.0394 25.8392 13.0778 25.948 13.0778C26.0567 13.0778 26.1495 13.0394 26.2264 12.9625C26.3033 12.8856 26.3418 12.7928 26.3418 12.684C26.3418 12.5752 26.3033 12.4824 26.2264 12.4055C26.1495 12.3286 26.0567 12.2902 25.948 12.2902C25.8392 12.2902 25.7464 12.3286 25.6695 12.4055C25.5926 12.4824 25.5541 12.5752 25.5541 12.684ZM25.5166 12.6777C25.5166 12.7986 25.5594 12.9017 25.6448 12.9872C25.7302 13.0726 25.8334 13.1153 25.9542 13.1153C26.0751 13.1153 26.1782 13.0726 26.2636 12.9872C26.3491 12.9017 26.3918 12.7986 26.3918 12.6777C26.3918 12.5569 26.3491 12.4538 26.2636 12.3683C26.1782 12.2829 26.0751 12.2402 25.9542 12.2402C25.8334 12.2402 25.7302 12.2829 25.6448 12.3683C25.5594 12.4538 25.5166 12.5569 25.5166 12.6777ZM25.4166 12.7778L25.4354 12.934C25.4455 13.0279 25.4747 13.1154 25.5229 13.1966L25.6854 13.4779C25.6986 13.5017 25.7132 13.5246 25.7292 13.5467L26.0105 13.9155C26.0166 13.9219 26.0229 13.9281 26.0292 13.9342L26.3856 14.3656C26.3915 14.3762 26.3978 14.3866 26.4043 14.3968L26.8044 14.8282C26.8164 14.8412 26.8289 14.8537 26.8419 14.8657L27.2607 15.2532C27.2984 15.2898 27.3401 15.3211 27.3857 15.347L27.7796 15.5595C27.8094 15.5756 27.8406 15.5881 27.8733 15.5971L28.0921 15.6533L28.1921 15.7721C28.3016 15.8708 28.412 15.8719 28.5234 15.7754C28.6348 15.6788 28.6494 15.5694 28.5672 15.447L28.4672 15.3283L28.4297 15.1032C28.4264 15.0734 28.4201 15.0442 28.4109 15.0157L28.2609 14.5969C28.2422 14.5456 28.2172 14.4977 28.1859 14.4531L27.8608 13.9842C27.849 13.9691 27.8365 13.9545 27.8233 13.9405L27.4483 13.4842L27.0919 13.0528L26.7981 12.6965C26.7921 12.688 26.7858 12.6797 26.7794 12.6715L26.5543 12.434C26.5137 12.3901 26.4678 12.3526 26.4168 12.3214L26.2855 12.2339C26.084 12.1068 25.8822 12.1064 25.6802 12.2328C25.4782 12.3593 25.3903 12.5409 25.4166 12.7778Z" fill="black"/>
<path d="M28.4173 15.7909C28.4173 15.9826 28.5131 16.0785 28.7048 16.0785C28.8965 16.0785 28.9924 15.9826 28.9924 15.7909C28.9924 15.5992 28.8965 15.5033 28.7048 15.5033C28.5131 15.5033 28.4173 15.5992 28.4173 15.7909ZM28.311 15.7909C28.311 15.9048 28.3513 16.0021 28.4318 16.0826C28.5124 16.1632 28.6097 16.2035 28.7236 16.2035C28.8375 16.2035 28.9348 16.1632 29.0153 16.0826C29.0959 16.0021 29.1362 15.9048 29.1362 15.7909C29.1362 15.677 29.0959 15.5797 29.0153 15.4992C28.9348 15.4186 28.8375 15.3783 28.7236 15.3783C28.6097 15.3783 28.5124 15.4186 28.4318 15.4992C28.3513 15.5797 28.311 15.677 28.311 15.7909ZM28.2672 15.7784C28.2672 15.9079 28.313 16.0184 28.4046 16.1099C28.4961 16.2015 28.6066 16.2472 28.7361 16.2472C28.8656 16.2472 28.9761 16.2015 29.0676 16.1099C29.1591 16.0184 29.2049 15.9079 29.2049 15.7784C29.2049 15.6489 29.1591 15.5384 29.0676 15.4469C28.9761 15.3553 28.8656 15.3096 28.7361 15.3096C28.6066 15.3096 28.4961 15.3553 28.4046 15.4469C28.313 15.5384 28.2672 15.6489 28.2672 15.7784ZM28.8799 16.2722L28.8861 16.266C28.8775 16.0983 28.8056 15.9647 28.6704 15.8651C28.5351 15.7656 28.3862 15.7367 28.2235 15.7784V15.8096C28.2244 15.8306 28.2264 15.8514 28.2297 15.8722L28.2485 15.9847C28.2503 15.9952 28.2524 16.0056 28.2547 16.0159L28.2985 16.2222C28.3035 16.2434 28.3098 16.2643 28.3173 16.2847L28.411 16.5535C28.4167 16.5684 28.4229 16.583 28.4298 16.5973L28.5423 16.8598C28.5559 16.8927 28.5726 16.924 28.5923 16.9536L28.7423 17.1662C28.7608 17.1931 28.7816 17.2181 28.8048 17.2412L28.9424 17.3787C28.9812 17.4152 29.025 17.4444 29.0736 17.4662L29.1862 17.5225C29.1883 17.5225 29.1903 17.5225 29.1924 17.5225L29.2549 17.5537C29.3595 17.6009 29.4658 17.6051 29.5737 17.5662L29.6113 17.5537C29.6494 17.54 29.6848 17.5213 29.7175 17.4975L29.7488 17.4725C29.8305 17.4122 29.8847 17.333 29.9113 17.2349L29.9176 17.2162C29.9788 16.9995 29.9132 16.8328 29.7207 16.716C29.5283 16.5992 29.3501 16.618 29.1862 16.7723L29.1549 16.8036C29.117 16.8379 29.0857 16.8775 29.0611 16.9224L28.9861 17.0599C28.9768 17.0761 28.9685 17.0927 28.9611 17.1099L28.8549 17.3787C28.8504 17.3869 28.8463 17.3952 28.8424 17.4037L28.7236 17.7538C28.7213 17.762 28.7192 17.7704 28.7173 17.7788L28.6173 18.1351C28.6151 18.1413 28.613 18.1476 28.6111 18.1538L28.5423 18.4664L28.4923 18.6852L28.461 18.8165C28.4512 18.8576 28.447 18.8992 28.4485 18.9415V18.9602C28.4587 19.2065 28.585 19.3519 28.8274 19.3963C29.0699 19.4406 29.2395 19.3495 29.3362 19.1228L29.38 19.0228C29.3845 19.0125 29.3887 19.0021 29.3925 18.9915L29.4487 18.829L29.505 18.6914L29.5487 18.6227C29.679 18.4192 29.6699 18.2221 29.5215 18.0314C29.373 17.8407 29.1841 17.7836 28.9549 17.86L28.9236 17.8725C28.7973 17.9148 28.7014 17.994 28.6361 18.1101L28.5611 18.2414C28.5352 18.2865 28.5164 18.3344 28.5048 18.3851L28.461 18.5789C28.4068 18.8267 28.4939 19.0056 28.7224 19.1156C28.9509 19.2256 29.1451 19.1822 29.3049 18.9853L29.43 18.829C29.4491 18.8034 29.4658 18.7763 29.48 18.7477L29.555 18.6102C29.5413 18.6281 29.5288 18.6469 29.5175 18.6664L29.5362 18.6414C29.524 18.3979 29.4007 18.2424 29.1664 18.1747C28.9321 18.1071 28.7449 18.1731 28.6048 18.3726V18.4164L28.5798 18.5227L28.5235 18.6727L28.4923 18.754C28.4868 19.004 28.6058 19.1575 28.8493 19.2145C29.0929 19.2715 29.2677 19.1868 29.3737 18.9602V18.9415C29.3667 18.9703 29.3626 18.9994 29.3612 19.029L29.3925 18.8977C29.3925 18.8957 29.3925 18.8936 29.3925 18.8915L29.4425 18.6727L29.5175 18.3851L29.6113 18.0413L29.73 17.71L29.8238 17.46L29.8801 17.3162C29.8845 17.308 29.8886 17.2996 29.8926 17.2912L29.9051 17.2537C29.7857 17.1592 29.6529 17.1331 29.5067 17.1752C29.3604 17.2174 29.2619 17.3102 29.2112 17.4537L29.2237 17.4662C29.3136 17.2594 29.2698 17.0865 29.0924 16.9474L29.0799 16.9849C29.2037 16.9458 29.2912 16.8666 29.3425 16.7473L29.3049 16.7598C29.4101 16.8194 29.5205 16.8319 29.6363 16.7973L29.5737 16.7598C29.6129 16.8443 29.6734 16.9089 29.755 16.9536L29.7113 16.8598L29.655 16.7036C29.655 16.7015 29.655 16.6994 29.655 16.6973L29.5675 16.4535L29.4737 16.1847L29.38 15.9222L29.3112 15.7221C29.3094 15.7117 29.3073 15.7012 29.3049 15.6909L29.2612 15.5971L29.2549 15.5721C29.2022 15.435 29.1087 15.3367 28.9745 15.277C28.8403 15.2173 28.7046 15.2137 28.5675 15.2663C28.4304 15.3189 28.3319 15.4123 28.2721 15.5464C28.2122 15.6806 28.2085 15.8162 28.261 15.9534L28.2672 15.9659C28.3164 16.0867 28.3992 16.1762 28.5158 16.2345C28.6324 16.2928 28.7538 16.3054 28.8799 16.2722ZM28.6111 18.7602L28.5548 18.8977C28.4881 19.0603 28.536 19.1749 28.6986 19.2416C28.8611 19.3082 28.9757 19.2603 29.0424 19.0978L29.0987 18.9602C29.1653 18.7977 29.1174 18.6831 28.9549 18.6164C28.7923 18.5498 28.6777 18.5977 28.6111 18.7602Z" fill="black"/>
<path d="M26.848 10.4026C26.848 10.5062 26.8846 10.5946 26.9578 10.6678C27.0311 10.7411 27.1195 10.7777 27.2231 10.7777C27.3266 10.7777 27.415 10.7411 27.4883 10.6678C27.5615 10.5946 27.5981 10.5062 27.5981 10.4026C27.5981 10.2991 27.5615 10.2107 27.4883 10.1374C27.415 10.0642 27.3266 10.0276 27.2231 10.0276C27.1195 10.0276 27.0311 10.0642 26.9578 10.1374C26.8846 10.2107 26.848 10.2991 26.848 10.4026ZM27.6044 10.4839V10.4776L27.6106 10.4714L27.6356 10.4151C27.6635 10.3535 27.6781 10.2889 27.6794 10.2213V10.1588C27.6388 10.2328 27.6179 10.312 27.6169 10.3964L27.6294 10.3714C27.7066 10.2322 27.7201 10.0871 27.6698 9.93602C27.6196 9.78498 27.5219 9.67683 27.3768 9.61157C27.2316 9.54631 27.0858 9.54503 26.9395 9.60773C26.7932 9.67043 26.6937 9.77685 26.6408 9.92698C26.5879 10.0771 26.5989 10.2225 26.6736 10.363C26.7483 10.5035 26.8627 10.5938 27.0168 10.6339L27.0418 10.6402C26.9774 10.4912 26.867 10.3954 26.7105 10.3526L26.7355 10.4151C26.7562 10.4609 26.7833 10.5026 26.8167 10.5402L26.8667 10.5964C26.8688 10.6006 26.8708 10.6048 26.873 10.6089L26.9105 10.6464C26.8962 10.6218 26.8795 10.5989 26.8605 10.5777L26.8792 10.6027C26.9738 10.7505 27.1077 10.8102 27.2809 10.7818C27.454 10.7535 27.5619 10.6541 27.6044 10.4839ZM26.5604 10.0901C26.5604 10.2506 26.6172 10.3876 26.7307 10.5012C26.8442 10.6147 26.9813 10.6714 27.1418 10.6714C27.3023 10.6714 27.4394 10.6147 27.5529 10.5012C27.6664 10.3876 27.7232 10.2506 27.7232 10.0901C27.7232 9.92953 27.6664 9.79251 27.5529 9.67899C27.4394 9.56547 27.3023 9.50871 27.1418 9.50871C26.9813 9.50871 26.8442 9.56547 26.7307 9.67899C26.6172 9.79251 26.5604 9.92953 26.5604 10.0901ZM26.5167 9.96505L26.5104 9.9963C26.4729 10.1615 26.4958 10.3177 26.5792 10.4651L26.6167 10.5339C26.6349 10.5669 26.6557 10.5982 26.6792 10.6277L26.7667 10.7402L26.9105 10.9277L27.173 11.3216L27.6044 12.0154C27.6105 12.0239 27.6167 12.0322 27.6231 12.0404L28.267 12.9719C28.2751 12.9825 28.2834 12.9929 28.292 13.0031L29.0734 14.0346C29.0835 14.0474 29.0939 14.0599 29.1047 14.0721L29.9298 15.0348C29.94 15.0454 29.9504 15.0559 29.9611 15.066L30.7425 15.8849C30.7506 15.8955 30.7589 15.906 30.7675 15.9162L31.4301 16.5476C31.4442 16.5627 31.4588 16.5772 31.4739 16.5913L32.399 17.3602C32.4112 17.371 32.4237 17.3814 32.4365 17.3915L32.6991 17.579C32.7326 17.6049 32.768 17.6279 32.8054 17.6478L32.9742 17.729C33.1026 17.7933 33.238 17.8162 33.3805 17.7978L33.468 17.7853C33.6774 17.7564 33.8378 17.6523 33.9493 17.4727L33.9806 17.4227C34.0595 17.3008 34.0928 17.1674 34.0806 17.0226L34.0744 16.9601C34.0659 16.8657 34.0368 16.7782 33.9868 16.6976L33.9681 16.6663C33.9529 16.6443 33.9362 16.6235 33.9181 16.6038L33.8993 16.5788C33.9207 16.6242 33.9478 16.6659 33.9806 16.7038L33.9681 16.6726C33.9267 16.802 33.9329 16.9291 33.9868 17.0539L33.9993 17.0164C33.9836 17.0485 33.971 17.0818 33.9618 17.1164L33.9743 17.0852C34.0302 16.9597 34.0375 16.8315 33.9963 16.7005C33.955 16.5695 33.8755 16.4686 33.7578 16.3978C33.6401 16.327 33.5137 16.3041 33.3787 16.3291C33.2436 16.354 33.1338 16.4206 33.0492 16.5288L33.0304 16.5601C33.0051 16.5951 32.9843 16.6326 32.9679 16.6726L32.9554 16.7101C32.9353 16.7667 32.9249 16.825 32.9241 16.8851V16.9164C32.9448 16.8577 32.9552 16.7973 32.9554 16.7351L32.9491 16.7663C33.0112 16.706 33.057 16.6351 33.0867 16.5538L33.0554 16.5851C33.0939 16.5619 33.1293 16.5349 33.1617 16.5038L33.1054 16.535C33.2089 16.5272 33.3048 16.4959 33.393 16.4413L33.3305 16.4475C33.4507 16.5165 33.5799 16.5457 33.718 16.535L33.643 16.4913C33.6964 16.5544 33.7589 16.6064 33.8306 16.6476L33.7118 16.51L33.5055 16.26C33.4975 16.2473 33.4892 16.2348 33.4805 16.2225L32.6741 15.3348C32.6619 15.324 32.6494 15.3136 32.6366 15.3036L31.9927 14.6722L31.2363 13.8783L30.4424 12.9531L29.6798 11.9654L29.0422 11.059C29.038 11.0548 29.0339 11.0506 29.0296 11.0465L28.5483 10.3776C28.5201 10.3395 28.4888 10.3041 28.4545 10.2714L28.0857 9.92129C28.0422 9.8781 27.9943 9.84059 27.9419 9.80877L27.6981 9.66499C27.6488 9.63589 27.5967 9.61297 27.5419 9.59623L27.4669 9.57747C27.4486 9.56613 27.4299 9.55572 27.4106 9.54622L27.3793 9.53372C27.1997 9.45406 27.0221 9.45816 26.8463 9.54603C26.6706 9.63389 26.5607 9.77357 26.5167 9.96505ZM33.0242 16.8038C33.0242 16.9402 33.0724 17.0566 33.1688 17.153C33.2652 17.2495 33.3816 17.2977 33.518 17.2977C33.6544 17.2977 33.7708 17.2495 33.8672 17.153C33.9636 17.0566 34.0118 16.9402 34.0118 16.8038C34.0118 16.6675 33.9636 16.5511 33.8672 16.4546C33.7708 16.3582 33.6544 16.31 33.518 16.31C33.3816 16.31 33.2652 16.3582 33.1688 16.4546C33.0724 16.5511 33.0242 16.6675 33.0242 16.8038ZM33.1367 16.7663C33.1367 16.8768 33.1757 16.9711 33.2539 17.0492C33.332 17.1274 33.4263 17.1664 33.5368 17.1664C33.6472 17.1664 33.7415 17.1274 33.8197 17.0492C33.8978 16.9711 33.9368 16.8768 33.9368 16.7663C33.9368 16.6559 33.8978 16.5616 33.8197 16.4834C33.7415 16.4053 33.6472 16.3663 33.5368 16.3663C33.4263 16.3663 33.332 16.4053 33.2539 16.4834C33.1757 16.5616 33.1367 16.6559 33.1367 16.7663ZM33.7993 16.7976L33.8056 16.7726C33.8472 16.6017 33.7826 16.4955 33.6118 16.4538C33.4409 16.4121 33.3346 16.4767 33.293 16.6476L33.2867 16.6726C33.245 16.8434 33.3096 16.9497 33.4805 16.9914C33.6514 17.0331 33.7576 16.9685 33.7993 16.7976Z" fill="black"/>
<path d="M27.7608 9.99624L27.742 9.95874C27.7311 9.93694 27.7186 9.9161 27.7045 9.89622L27.6732 9.85872C27.6903 9.93722 27.7237 10.0081 27.7733 10.0713L27.7608 10.0212C27.6906 10.1425 27.6697 10.2717 27.6982 10.4088L27.7108 10.3838L27.8483 10.265C27.8568 10.259 27.8651 10.2528 27.8733 10.2463L28.2921 9.85247C28.2963 9.85043 28.3005 9.84834 28.3046 9.84622L28.986 9.17734L29.9549 8.27092L31.1677 7.17696L32.5117 6.00173L33.8182 4.87027L34.9684 3.90759L35.8936 3.13244L36.5749 2.57608C36.577 2.57608 36.5791 2.57608 36.5812 2.57608L37.025 2.21351L37.2688 2.02598L37.3626 1.95096C37.3316 1.84415 37.2776 1.75069 37.2005 1.67058C37.1234 1.59047 37.032 1.53292 36.9265 1.49795C36.8209 1.46297 36.7133 1.45458 36.6036 1.47279C36.4939 1.49099 36.3947 1.5337 36.3061 1.6009L36.3124 1.6134C36.4455 1.4352 36.4809 1.23933 36.4187 1.02579L36.3749 1.08205C36.3267 1.1465 36.2913 1.21735 36.2686 1.29459L36.2436 1.37585C36.2338 1.41488 36.2275 1.45447 36.2249 1.49463L36.2124 1.56339C36.2064 1.6307 36.2106 1.69738 36.2249 1.76343L36.2374 1.82594C36.2419 1.85342 36.2482 1.88051 36.2561 1.9072L36.2686 1.93846L36.2749 1.95721L36.2811 2.00097C36.285 2.0115 36.2892 2.02191 36.2936 2.03223L36.3061 2.08224C36.3308 2.17222 36.3725 2.25349 36.4312 2.32603L36.4749 2.37604C36.4994 2.40764 36.5265 2.43682 36.5562 2.46356L36.6187 2.51982L36.6875 2.58858L36.7875 2.71361L36.9625 3.00116L37.2688 3.53876C37.2709 3.54086 37.273 3.54295 37.2751 3.54502L37.7189 4.30141C37.7269 4.31207 37.7353 4.32249 37.7439 4.33267L38.3315 5.21408L38.9754 6.20802L39.6318 7.25822L40.2444 8.27092C40.2485 8.27514 40.2527 8.2793 40.2569 8.28342L40.8007 9.12733C40.8144 9.14684 40.8289 9.16559 40.8445 9.18359L41.3133 9.77745C41.3611 9.83541 41.4173 9.88334 41.4821 9.92123L41.8947 10.1713C41.9318 10.1938 41.9714 10.2105 42.0135 10.2213L42.201 10.2713L42.2823 10.3338C42.4137 10.428 42.5316 10.4133 42.6359 10.2897C42.7402 10.1661 42.7348 10.0475 42.6198 9.93373L42.5761 9.88997L42.5511 9.73995C42.5484 9.7188 42.5443 9.69797 42.5386 9.67743L42.4135 9.21485C42.4002 9.16678 42.3815 9.12094 42.3573 9.07732L41.9822 8.41469C41.9763 8.402 41.9701 8.3895 41.9635 8.37719L41.4259 7.53953L40.8132 6.53309C40.8112 6.53099 40.8091 6.5289 40.807 6.52683L40.1381 5.47038C40.136 5.46829 40.134 5.4662 40.1319 5.46413L39.4817 4.46394L38.9129 3.58252L38.4816 2.83863C38.4795 2.83653 38.4774 2.83445 38.4753 2.83238L38.1627 2.30103C38.1549 2.28614 38.1466 2.27155 38.1377 2.25727L37.9127 1.93221C37.8904 1.89876 37.8654 1.8675 37.8377 1.83844L37.6689 1.66966C37.6569 1.65667 37.6444 1.64416 37.6314 1.63215L37.5189 1.53213C37.5127 1.52576 37.5065 1.51951 37.5001 1.51338L37.4188 1.44462C37.4495 1.48846 37.4849 1.52805 37.5251 1.56339L37.4814 1.50713C37.4999 1.61303 37.5416 1.70888 37.6064 1.79468L37.6001 1.73842C37.5949 1.71728 37.5886 1.69644 37.5814 1.67591L37.5751 1.63215L37.5626 1.58839C37.5591 1.57156 37.5549 1.55489 37.5501 1.53838L37.5439 1.52588L37.5376 1.50088C37.5329 1.56398 37.5371 1.62649 37.5501 1.68841L37.5564 1.61965C37.5402 1.66846 37.5298 1.71847 37.5251 1.76968L37.5501 1.68841C37.4974 1.75193 37.4578 1.82278 37.4314 1.90095L37.4751 1.85094C37.533 1.7803 37.5747 1.70112 37.6001 1.6134L37.6064 1.6009C37.697 1.29038 37.6095 1.04269 37.3441 0.857829C37.0787 0.672972 36.816 0.676865 36.5562 0.869507L36.4562 0.944521L36.1999 1.13206C36.1935 1.13612 36.1873 1.14029 36.1811 1.14456L35.7248 1.50088C35.7206 1.50292 35.7164 1.505 35.7123 1.50713L35.0246 2.06348C35.0225 2.06555 35.0205 2.06764 35.0184 2.06974L34.087 2.84488C34.0849 2.84488 34.0828 2.84488 34.0807 2.84488L32.9242 3.81382C32.9221 3.81589 32.9201 3.81797 32.918 3.82007L31.6052 4.95153C31.6032 4.95152 31.6011 4.95152 31.599 4.95153L30.2487 6.13301C30.2445 6.13505 30.2404 6.13713 30.2362 6.13926L29.0235 7.24572C29.0172 7.24979 29.0109 7.25395 29.0047 7.25822L28.0358 8.18965C28.0294 8.19578 28.0232 8.20203 28.0171 8.2084L27.3544 8.90229C27.3392 8.9162 27.3246 8.93078 27.3107 8.94604L26.9544 9.39613C26.9249 9.43289 26.8999 9.47248 26.8793 9.5149L26.7543 9.76495C26.7312 9.81062 26.7145 9.85855 26.7043 9.90873L26.6856 10.0338C26.6404 10.2822 26.7259 10.4718 26.9419 10.6026L26.9856 10.6276C27.2095 10.7623 27.4179 10.7415 27.6107 10.5651L27.6482 10.5338C27.6864 10.4974 27.7177 10.4557 27.742 10.4088L27.7608 10.3713C27.8285 10.2463 27.8285 10.1213 27.7608 9.99624Z" fill="black"/>
<path d="M33.8369 17.5602C33.8369 17.6689 33.8753 17.7618 33.9522 17.8387C34.0291 17.9156 34.1219 17.954 34.2307 17.954C34.3394 17.954 34.4323 17.9156 34.5092 17.8387C34.5861 17.7618 34.6245 17.6689 34.6245 17.5602C34.6245 17.4514 34.5861 17.3586 34.5092 17.2817C34.4323 17.2048 34.3394 17.1664 34.2307 17.1664C34.1219 17.1664 34.0291 17.2048 33.9522 17.2817C33.8753 17.3586 33.8369 17.4514 33.8369 17.5602ZM33.8244 17.5602C33.8244 17.6724 33.864 17.7682 33.9434 17.8475C34.0227 17.9269 34.1185 17.9665 34.2307 17.9665C34.3429 17.9665 34.4387 17.9269 34.518 17.8475C34.5973 17.7682 34.637 17.6724 34.637 17.5602C34.637 17.448 34.5973 17.3522 34.518 17.2729C34.4387 17.1935 34.3429 17.1539 34.2307 17.1539C34.1185 17.1539 34.0227 17.1935 33.9434 17.2729C33.864 17.3522 33.8244 17.448 33.8244 17.5602ZM33.7869 17.5664C33.7869 17.6907 33.8308 17.7968 33.9187 17.8847C34.0066 17.9726 34.1127 18.0165 34.2369 18.0165C34.3612 18.0165 34.4673 17.9726 34.5552 17.8847C34.6431 17.7968 34.687 17.6907 34.687 17.5664C34.687 17.4422 34.6431 17.3361 34.5552 17.2482C34.4673 17.1603 34.3612 17.1164 34.2369 17.1164C34.1127 17.1164 34.0066 17.1603 33.9187 17.2482C33.8308 17.3361 33.7869 17.4422 33.7869 17.5664ZM33.7556 17.5727V17.5977C33.7485 17.8364 33.8527 18.0073 34.0682 18.1103L34.1432 18.1416C34.3078 18.2198 34.4724 18.2198 34.637 18.1416L34.7933 18.0603C34.849 18.033 34.8991 17.9975 34.9433 17.954L35.2496 17.6665C35.2583 17.6563 35.2667 17.6459 35.2746 17.6352L35.8122 17.0351C35.8143 17.033 35.8164 17.0309 35.8185 17.0288L36.5811 16.1474L37.5188 15.0972L38.569 13.9408C38.5712 13.9366 38.5732 13.9324 38.5753 13.9283L39.638 12.7155L40.6444 11.6091L41.4821 10.7276L42.0884 10.1213C42.114 10.0964 42.1369 10.0694 42.1572 10.04L42.4072 9.65869C42.5285 9.47089 42.513 9.29508 42.3609 9.13129C42.2088 8.96749 42.0346 8.93908 41.8384 9.04607L41.4446 9.26487C41.4006 9.29056 41.361 9.32182 41.3258 9.35863L40.7132 9.97125C40.709 9.97328 40.7048 9.97536 40.7007 9.9775L39.8568 10.8652C39.8568 10.8673 39.8568 10.8693 39.8568 10.8714L38.8253 11.9654L37.7126 13.1469C37.7105 13.151 37.7084 13.1552 37.7064 13.1594L36.6562 14.3221C36.6541 14.3221 36.652 14.3221 36.6499 14.3221L35.7185 15.3848C35.7164 15.3848 35.7143 15.3848 35.7122 15.3848L34.9433 16.2599L34.4245 16.8476L34.1932 17.0726L34.1057 17.1226C34.1788 17.1129 34.2476 17.09 34.312 17.0538L34.2307 17.0664C34.1546 17.0765 34.0838 17.1015 34.0182 17.1414L33.9994 17.1539C33.842 17.2492 33.7608 17.3888 33.7556 17.5727ZM42.0134 9.44615L42.0322 9.47116C42.1197 9.58784 42.2218 9.60243 42.3385 9.51491C42.4552 9.4274 42.4698 9.32529 42.3822 9.20861L42.3635 9.1836C42.2759 9.06714 42.1739 9.05261 42.0573 9.14003C41.9408 9.22745 41.9261 9.32949 42.0134 9.44615Z" fill="black"/>
<path d="M5.56857 28.9247C5.56861 29.0317 5.60646 29.123 5.68213 29.1986C5.75781 29.2743 5.84914 29.3121 5.95614 29.3121C6.06314 29.3121 6.15448 29.2743 6.23015 29.1986C6.30582 29.123 6.34368 29.0317 6.34372 28.9247C6.34368 28.8177 6.30582 28.7264 6.23015 28.6507C6.15448 28.5751 6.06314 28.5372 5.95614 28.5372C5.84914 28.5372 5.75781 28.5751 5.68213 28.6507C5.60646 28.7264 5.56861 28.8177 5.56857 28.9247ZM5.58107 29.0434L5.59982 29.0935C5.6047 29.1127 5.61095 29.1314 5.61858 29.1497L5.69359 29.306L5.81862 29.6436C5.82064 29.6478 5.82272 29.6519 5.82487 29.6561L6.07492 30.2687C6.08243 30.2858 6.09076 30.3024 6.09992 30.3187L6.57501 31.2189C6.58273 31.2338 6.59106 31.2484 6.60002 31.2626L7.3189 32.3816C7.32491 32.3901 7.33116 32.3984 7.33766 32.4066L8.18782 33.5693C8.19558 33.5822 8.20392 33.5947 8.21282 33.6068L9.11299 34.6133C9.12998 34.6338 9.14874 34.6525 9.16925 34.6695L10.0194 35.3259L10.6008 35.851C10.7282 35.944 10.8447 35.932 10.9504 35.8149C11.0561 35.6979 11.0563 35.5807 10.9508 35.4634L10.3882 34.9508L9.78187 34.0882C9.77981 34.0861 9.77772 34.084 9.77562 34.0819L8.98797 33.0067L8.24408 31.8127L7.61896 30.6625C7.61692 30.6583 7.61484 30.6541 7.61271 30.65L7.10011 29.7623C7.09056 29.7451 7.08014 29.7285 7.06885 29.7123L6.68128 29.181C6.67922 29.1789 6.67713 29.1768 6.67503 29.1747L6.44999 28.8747C6.43845 28.8593 6.42594 28.8447 6.41248 28.8309L6.2812 28.6934C6.27713 28.6891 6.27296 28.685 6.2687 28.6809L6.22494 28.6371C6.07695 28.4996 5.91753 28.4847 5.74667 28.5926C5.57582 28.7004 5.52062 28.8507 5.58107 29.0434Z" fill="black"/>
<path d="M8.35031 27.8932C8.35031 28.002 8.38876 28.0948 8.46565 28.1717C8.54255 28.2486 8.63538 28.2871 8.74413 28.2871C8.85288 28.2871 8.94571 28.2486 9.02261 28.1717C9.09951 28.0948 9.13796 28.002 9.13796 27.8932C9.13796 27.7845 9.09951 27.6917 9.02261 27.6148C8.94571 27.5379 8.85288 27.4994 8.74413 27.4994C8.63538 27.4994 8.54255 27.5379 8.46565 27.6148C8.38876 27.6917 8.35031 27.7845 8.35031 27.8932ZM8.3003 27.8932C8.3003 28.0175 8.34424 28.1236 8.43212 28.2115C8.52001 28.2994 8.62609 28.3433 8.75038 28.3433C8.87467 28.3433 8.98076 28.2994 9.06864 28.2115C9.15653 28.1236 9.20047 28.0175 9.20047 27.8932C9.20047 27.769 9.15653 27.6629 9.06864 27.575C8.98076 27.4871 8.87467 27.4432 8.75038 27.4432C8.62609 27.4432 8.52001 27.4871 8.43212 27.575C8.34424 27.6629 8.3003 27.769 8.3003 27.8932ZM8.41282 28.2246L8.45033 28.2621C8.45641 28.2685 8.46266 28.2747 8.46908 28.2808L8.51284 28.3933L8.68162 28.8122C8.68732 28.827 8.69357 28.8416 8.70037 28.8559L9.04419 29.5561C9.05003 29.5688 9.05628 29.5813 9.06294 29.5936L9.60054 30.525C9.60442 30.5355 9.60858 30.546 9.61305 30.5563L10.2569 31.5439C10.2703 31.5636 10.2849 31.5824 10.3007 31.6002L11.0258 32.4441C11.0466 32.4673 11.0695 32.4882 11.0946 32.5066L11.7822 33.038L12.2198 33.4881C12.3406 33.6087 12.4615 33.6087 12.5822 33.4879C12.703 33.3672 12.703 33.2463 12.5824 33.1255L12.1635 32.6942L11.7697 31.944C11.7658 31.9356 11.7616 31.9272 11.7572 31.919L11.1946 30.9751L10.6445 29.9624L10.2069 29.006C10.201 28.9954 10.1947 28.9849 10.1882 28.9747L9.83184 28.2871C9.8155 28.2563 9.79674 28.2272 9.77558 28.1996L9.50053 27.837C9.46349 27.7882 9.41973 27.7466 9.36925 27.712L9.18797 27.5869L9.1067 27.5244C9.07725 27.5044 9.04599 27.4877 9.01293 27.4744L8.96292 27.4557C8.72206 27.3448 8.52449 27.3972 8.37021 27.6128C8.21593 27.8285 8.23013 28.0324 8.41282 28.2246Z" fill="black"/>
<path d="M9.23169 25.7616C9.23169 25.8721 9.27075 25.9664 9.34887 26.0445C9.42699 26.1226 9.52129 26.1617 9.63177 26.1617C9.74224 26.1617 9.83654 26.1226 9.91466 26.0445C9.99278 25.9664 10.0318 25.8721 10.0318 25.7616C10.0318 25.6511 9.99278 25.5568 9.91466 25.4787C9.83654 25.4006 9.74224 25.3615 9.63177 25.3615C9.52129 25.3615 9.42699 25.4006 9.34887 25.4787C9.27075 25.5568 9.23169 25.6511 9.23169 25.7616ZM9.20669 25.7678C9.20669 25.887 9.2488 25.9886 9.33302 26.0728C9.41724 26.1571 9.51891 26.1992 9.63802 26.1992C9.75713 26.1992 9.85879 26.1571 9.94302 26.0728C10.0272 25.9886 10.0693 25.887 10.0693 25.7678C10.0693 25.6487 10.0272 25.5471 9.94302 25.4629C9.85879 25.3786 9.75713 25.3365 9.63802 25.3365C9.51891 25.3365 9.41724 25.3786 9.33302 25.4629C9.2488 25.5471 9.20669 25.6487 9.20669 25.7678ZM9.13167 25.8741L9.15042 26.0867C9.1596 26.1678 9.18253 26.2449 9.21919 26.318L9.45048 26.8055C9.4601 26.8247 9.47051 26.8435 9.48174 26.8618L9.94433 27.6432C9.95032 27.6538 9.95658 27.6642 9.96308 27.6745L10.6195 28.6809C10.6329 28.7025 10.6475 28.7234 10.6632 28.7434L11.5134 29.7686C11.5253 29.7817 11.5378 29.7942 11.5509 29.8061L12.4323 30.6688L13.0012 31.5314C13.097 31.6731 13.2158 31.696 13.3574 31.6001C13.4991 31.5043 13.522 31.3856 13.4262 31.2439L12.8636 30.3875L12.426 29.2373C12.4203 29.2245 12.414 29.212 12.4073 29.1998L11.8447 27.9933C11.8388 27.9806 11.8326 27.9681 11.8259 27.9558L11.2446 26.8993C11.2405 26.893 11.2363 26.8868 11.2321 26.8806L10.7695 26.0992C10.7525 26.0708 10.7338 26.0437 10.7132 26.0179L10.3819 25.5928C10.3069 25.4971 10.2132 25.4263 10.1006 25.3803L9.90057 25.299C9.80956 25.2626 9.71547 25.2509 9.6183 25.2637C9.52114 25.2765 9.43331 25.3122 9.35483 25.3709C9.27635 25.4296 9.21724 25.5038 9.17751 25.5934C9.13778 25.683 9.1225 25.7765 9.13167 25.8741Z" fill="black"/>
<path d="M31.3552 8.92708V8.93333L31.3364 8.96458L31.2802 9.0646C31.2219 9.16529 31.1969 9.27364 31.2051 9.38967L31.2301 9.77099C31.2368 9.84704 31.2555 9.91997 31.2864 9.98978L31.5677 10.6587C31.5848 10.7002 31.6056 10.7398 31.6302 10.7774L32.1803 11.5963C32.199 11.6251 32.2199 11.6522 32.2428 11.6776L32.9555 12.4465C32.9694 12.4598 32.984 12.4723 32.9992 12.484L33.7556 13.1341C33.7695 13.1455 33.7841 13.1559 33.7994 13.1654L34.4683 13.5967L34.9121 13.9718C35.0496 14.0843 35.1746 14.0718 35.2872 13.9343C35.3997 13.7968 35.3872 13.6717 35.2497 13.5592L34.8183 13.2029L34.3557 12.5778L33.7869 11.7964L33.293 10.9275L32.8617 10.0648L32.5304 9.41467C32.5098 9.37033 32.4848 9.32866 32.4554 9.28965L32.2178 8.99584C32.1724 8.93968 32.1182 8.89384 32.0553 8.85831L31.9428 8.78955C31.9787 8.84367 32.0246 8.88743 32.0803 8.92083L32.0428 8.87082C32.055 8.89523 32.0696 8.91815 32.0866 8.93958L32.0803 8.92708C32.0124 8.76703 31.8916 8.68701 31.7177 8.68701C31.5439 8.68701 31.423 8.76703 31.3552 8.92708Z" fill="black"/>
<path d="M33.2244 7.35177L33.2119 7.40178C33.2049 7.41604 33.1986 7.43062 33.1931 7.44554L33.1494 7.63933C33.1272 7.72178 33.1231 7.80513 33.1369 7.88937L33.2181 8.32696C33.2218 8.34169 33.226 8.35627 33.2307 8.37072L33.3932 9.02084C33.3988 9.03775 33.405 9.05442 33.4119 9.07085L33.687 9.89601C33.6992 9.92837 33.7138 9.95963 33.7307 9.98977L34.1496 10.8024C34.1761 10.8551 34.2095 10.903 34.2496 10.9462L34.8185 11.5463C34.8338 11.5643 34.8505 11.581 34.8685 11.5963L35.3873 11.9902L35.7061 12.3465C35.8234 12.4519 35.9406 12.4518 36.0576 12.3461C36.1747 12.2403 36.1867 12.1238 36.0937 11.9964L35.7874 11.6588L35.5623 11.0837L35.2998 10.3086C35.2978 10.3044 35.2957 10.3002 35.2935 10.2961L34.981 9.44592L34.6997 8.63327C34.6997 8.63118 34.6997 8.6291 34.6997 8.62701L34.4809 7.99564C34.4718 7.97212 34.4614 7.9492 34.4496 7.92688L34.2621 7.5268C34.2117 7.4213 34.1367 7.33795 34.0371 7.27676L33.8683 7.17049C33.8256 7.14406 33.7797 7.12531 33.7307 7.11423L33.6807 7.10172C33.4531 7.0473 33.301 7.13065 33.2244 7.35177Z" fill="black"/>
<path d="M35.1872 5.90767L35.0997 6.02019C34.9868 6.17554 34.9535 6.34641 34.9997 6.53279L35.0934 6.92661C35.1019 6.96949 35.1144 7.01117 35.1309 7.05164L35.3935 7.62675C35.4129 7.6664 35.4358 7.70391 35.4623 7.73927L35.9311 8.40815C35.9894 8.48923 36.0624 8.55383 36.1499 8.60193L36.825 8.97701L37.2876 9.58337C37.3984 9.70259 37.5185 9.71276 37.6478 9.61389C37.7771 9.51502 37.7987 9.39649 37.7127 9.25831L37.2563 8.65819L37.1188 7.9018C37.1054 7.83579 37.0825 7.77328 37.0501 7.71426L36.6562 6.99538L36.3562 6.43902C36.3501 6.43054 36.3439 6.42221 36.3374 6.41402L36.1249 6.0702C36.0347 5.91808 35.9034 5.82223 35.7311 5.78265L35.5935 5.75139C35.4235 5.71366 35.2881 5.76575 35.1872 5.90767Z" fill="black"/>
</g>
<defs>
<clipPath id="clip0_1_7333">
<rect width="43" height="41" fill="white"/>
</clipPath>
</defs>
</svg>
