<svg width="32" height="36" viewBox="0 0 32 36" fill="none" xmlns="http://www.w3.org/2000/svg">
<g clip-path="url(#clip0_1_7367)">
<path d="M8.9851 19.092L8.99103 19.0979C9 19.1106 9.0099 19.1224 9.02072 19.1335L9.05635 19.1692C9.09043 19.2034 9.13002 19.2291 9.17512 19.2464L9.32357 19.2998C9.32555 19.2998 9.32753 19.2998 9.32951 19.2998L9.57891 19.3889L9.88769 19.5136L10.2202 19.7095L10.5587 19.9233C10.5867 19.9408 10.6164 19.9547 10.6478 19.9649L10.9981 20.0777C11.0349 20.089 11.0725 20.0949 11.111 20.0955L11.4851 20.1074C11.493 20.1076 11.5009 20.1076 11.5088 20.1074L11.8948 20.0955L12.2748 20.0896C12.3132 20.0886 12.3508 20.0827 12.3877 20.0718L12.7558 19.9649L13.0943 19.8817L13.3853 19.8758C13.5238 19.8718 13.591 19.8005 13.5871 19.662C13.5831 19.5235 13.5119 19.4562 13.3734 19.4601L13.0943 19.4661L12.7677 19.377L12.4114 19.2464C12.3595 19.2283 12.306 19.2204 12.2511 19.2226L11.8651 19.2404C11.8492 19.2415 11.8333 19.2435 11.8176 19.2464L11.4732 19.2998L11.1941 19.2879L10.9447 19.2107L10.6418 19.0207C10.6399 19.0207 10.6379 19.0207 10.6359 19.0207L10.2855 18.801C10.2646 18.7892 10.2429 18.7793 10.2202 18.7713L9.86988 18.6347C9.84687 18.6246 9.82311 18.6167 9.79862 18.611L9.52547 18.5575C9.47559 18.5498 9.42611 18.5518 9.37701 18.5635L9.22856 18.5932C9.18381 18.6006 9.14224 18.6165 9.10386 18.6407L9.06229 18.6704C9.03445 18.69 9.0107 18.7138 8.99103 18.7416L8.9851 18.7476C8.9008 18.8624 8.9008 18.9772 8.9851 19.092Z" fill="black"/>
<path d="M17.9873 18.2428C17.9873 18.4249 18.0784 18.5159 18.2605 18.5159C18.4426 18.5159 18.5336 18.4249 18.5336 18.2428C18.5336 18.0607 18.4426 17.9696 18.2605 17.9696C18.0784 17.9696 17.9873 18.0607 17.9873 18.2428ZM18.5158 18.1003C18.3843 18.0278 18.2639 18.0431 18.1548 18.1462C18.0456 18.2493 18.0234 18.3686 18.0883 18.5041L18.1239 18.5219C18.159 18.5426 18.1966 18.5565 18.2367 18.5634L18.4268 18.5931C18.4327 18.5933 18.4386 18.5933 18.4446 18.5931L18.8424 18.6347C18.8523 18.6351 18.8622 18.6351 18.8721 18.6347L19.5313 18.6585L20.3863 18.6881C20.3903 18.6882 20.3943 18.6882 20.3982 18.6881L21.3424 18.6941C21.3444 18.6941 21.3463 18.6941 21.3483 18.6941L22.245 18.6822L23.0051 18.6881C23.0071 18.6882 23.009 18.6882 23.011 18.6881L23.5633 18.6822C23.5672 18.6823 23.5712 18.6823 23.5751 18.6822L23.9374 18.6644C23.9433 18.6646 23.9492 18.6646 23.9552 18.6644L24.1214 18.6466C24.2281 18.5339 24.2479 18.4076 24.1809 18.2676C24.1138 18.1277 24.003 18.064 23.8483 18.0765L23.6523 18.1834C23.6503 18.1854 23.6483 18.1873 23.6464 18.1893L23.1892 18.4447C23.1851 18.4485 23.1811 18.4525 23.1773 18.4566L22.5538 18.8425C22.5498 18.8444 22.5458 18.8464 22.5419 18.8485L21.7818 19.3532C21.7778 19.3551 21.7739 19.3571 21.7699 19.3592L20.9742 19.9411C20.9722 19.9431 20.9702 19.945 20.9683 19.947L20.232 20.5052C20.23 20.5072 20.228 20.5092 20.226 20.5112L19.6263 20.9803L19.1512 21.3187L18.789 21.5622L18.5574 21.6988L18.4208 21.7522C18.527 21.8143 18.6379 21.8242 18.7534 21.7819L18.6762 21.7344C18.6581 21.9054 18.7234 22.0341 18.8721 22.1204L18.8899 21.9719L19.0028 21.6275L19.2462 21.004L19.6263 20.1549L20.1251 19.1691L20.6654 18.1893L21.1524 17.3402C21.1544 17.3382 21.1563 17.3363 21.1583 17.3342L21.5087 16.6989L21.7165 16.3901L21.8174 16.3307C21.7684 16.2468 21.6969 16.1927 21.6029 16.1683C21.5088 16.144 21.42 16.1565 21.3365 16.206L21.4077 16.3248L21.473 16.6811L21.5562 17.3224L21.663 18.13L21.7699 19.0326L21.8531 19.9589L21.9125 20.8259L21.954 21.5503L21.96 22.0848L21.9481 22.352L21.9184 22.4292C22.0309 22.5134 22.1541 22.5342 22.288 22.4917C22.4219 22.4491 22.5105 22.361 22.5538 22.2273L22.5063 22.1917L22.3697 22.0076L22.1084 21.5919L21.764 21.0337L21.3543 20.3686C21.3523 20.3666 21.3503 20.3647 21.3483 20.3627L20.903 19.6858C20.8955 19.6755 20.8876 19.6656 20.8792 19.6561L20.4101 19.0504C20.3956 19.0332 20.3797 19.0174 20.3626 19.0029L19.8757 18.5575C19.8542 18.5366 19.8304 18.5188 19.8044 18.5041L19.3709 18.2784L19.1096 18.0706C19.005 18.0013 18.9131 18.0154 18.8338 18.1126C18.7546 18.2099 18.7594 18.3028 18.8484 18.3912L19.0978 18.5931L19.3353 18.9969C19.3425 19.0093 19.3504 19.0212 19.359 19.0326L19.751 19.5551L20.1963 20.1608L20.6357 20.8199L21.0395 21.485C21.0395 21.487 21.0395 21.489 21.0395 21.491L21.3958 22.0432C21.3978 22.0452 21.3998 22.0472 21.4018 22.0491L21.6809 22.4707C21.6847 22.4768 21.6886 22.4827 21.6927 22.4886L21.8768 22.738C21.9051 22.7753 21.9388 22.807 21.9778 22.833L22.0787 22.9042C22.194 22.9823 22.3171 22.9977 22.448 22.9503C22.5789 22.9029 22.6636 22.8124 22.7022 22.6786L22.7438 22.5479C22.7562 22.5073 22.7621 22.4657 22.7616 22.4232L22.7557 22.0848C22.7559 22.0769 22.7559 22.0689 22.7557 22.061L22.7141 21.5147L22.6725 20.7784C22.6706 20.7764 22.6686 20.7744 22.6666 20.7724L22.6013 19.8995C22.5993 19.8975 22.5973 19.8955 22.5953 19.8936L22.5122 18.9554C22.5102 18.9534 22.5083 18.9514 22.5063 18.9494L22.4053 18.0409C22.4034 18.0389 22.4014 18.0369 22.3994 18.035L22.2925 17.2274C22.2925 17.2254 22.2925 17.2234 22.2925 17.2214L22.1975 16.5742C22.1977 16.5662 22.1977 16.5583 22.1975 16.5504L22.1025 16.1229C22.0915 16.0753 22.0717 16.0318 22.0431 15.9922L21.9243 15.82C21.7956 15.6447 21.6392 15.615 21.4552 15.7309L21.2889 15.8319C21.2489 15.8568 21.2153 15.8884 21.188 15.9269L20.9148 16.3129C20.9128 16.3168 20.9108 16.3208 20.9089 16.3248L20.511 16.9483C20.507 16.9521 20.503 16.9561 20.4992 16.9601L20.0063 17.8152C20.0043 17.8172 20.0023 17.8192 20.0004 17.8212L19.4481 18.801C19.4481 18.8049 19.4481 18.8089 19.4481 18.8128L18.9315 19.8105C18.9274 19.8163 18.9234 19.8222 18.9196 19.8283L18.5277 20.6834C18.5256 20.6893 18.5236 20.6952 18.5218 20.7012L18.2605 21.3425C18.2563 21.3503 18.2523 21.3582 18.2486 21.3663L18.118 21.7641C18.1082 21.7951 18.1022 21.8267 18.1002 21.8591L18.0883 22.0491C18.0738 22.2253 18.1451 22.3539 18.3021 22.4351L18.3793 22.4707C18.4911 22.5268 18.604 22.5287 18.7177 22.4767L18.8899 22.4054C18.9065 22.3967 18.9223 22.3868 18.9374 22.3757L19.2047 22.2035C19.2087 22.1997 19.2127 22.1957 19.2165 22.1917L19.5847 21.9363C19.5908 21.9306 19.5968 21.9246 19.6025 21.9185L20.0657 21.5444L20.6654 21.0693L21.3958 20.5052L22.1797 19.9292L22.9219 19.4185L23.5336 19.0326L23.9789 18.7713L24.2105 18.6466C24.2391 18.6305 24.2649 18.6107 24.2877 18.5872L24.3233 18.5516C24.4302 18.4432 24.4534 18.3191 24.3929 18.1794C24.3324 18.0398 24.2261 17.9718 24.0739 17.9756L23.9077 17.9874L23.5514 17.9934L23.0051 17.9993L22.2569 17.9934L21.3661 17.9459L20.422 17.8924C20.418 17.8924 20.4141 17.8924 20.4101 17.8924L19.555 17.8627L18.9018 17.839C18.886 17.838 18.8701 17.838 18.8543 17.839L18.4564 17.8687C18.4466 17.8683 18.4367 17.8683 18.4268 17.8687L18.2367 17.8984C18.168 17.9094 18.1087 17.9391 18.0586 17.9874L18.0289 18.0171C17.9618 18.1687 17.9951 18.2934 18.1289 18.3913C18.2627 18.4892 18.3917 18.4832 18.5158 18.3734C18.563 18.2824 18.563 18.1913 18.5158 18.1003Z" fill="black"/>
<path d="M21.3899 15.3093L21.3602 15.2975C21.3356 15.2859 21.3099 15.2779 21.283 15.2737L21.1583 15.2499C21.1485 15.2475 21.1386 15.2455 21.1286 15.244L20.8851 15.2321C20.8773 15.2298 20.8694 15.2279 20.8614 15.2262H20.4992C20.4832 15.227 20.4673 15.229 20.4517 15.2321L20.0004 15.2975C19.976 15.3009 19.9522 15.3068 19.9291 15.3153L19.4065 15.5172C19.3837 15.5248 19.362 15.5347 19.3412 15.5469L18.7593 15.921C18.7401 15.9331 18.7223 15.9469 18.7058 15.9625L18.0883 16.5682C18.0755 16.5792 18.0636 16.5911 18.0526 16.6038L17.4885 17.3699C17.4747 17.3885 17.4628 17.4083 17.4529 17.4292L17.0313 18.3318C17.0179 18.3583 17.008 18.386 17.0016 18.415L16.8116 19.3948C16.8049 19.4344 16.8049 19.474 16.8116 19.5135L16.966 20.4933C16.9718 20.531 16.9837 20.5666 17.0016 20.6002L17.4707 21.485C17.4859 21.516 17.5057 21.5437 17.5301 21.5681L18.2961 22.2867C18.3141 22.3031 18.3339 22.317 18.3555 22.3282L19.27 22.827C19.2739 22.8291 19.2778 22.8311 19.2818 22.833L20.0835 23.2071C20.2062 23.2625 20.2953 23.2288 20.3507 23.1061C20.4061 22.9834 20.3725 22.8943 20.2498 22.8389L19.4659 22.4767L18.6761 21.8769L18.017 21.1584L17.6251 20.3449L17.5182 19.472L17.6904 18.5872L18.0705 17.7558L18.593 17.0373L19.1631 16.4851L19.6916 16.1585L20.1547 15.9803L20.5526 15.8853L20.8911 15.8497L21.1167 15.8378H21.2296C21.2375 15.8382 21.2454 15.8382 21.2533 15.8378H21.283C21.4255 15.829 21.5109 15.7546 21.5392 15.6146C21.5676 15.4746 21.5178 15.3729 21.3899 15.3093Z" fill="black"/>
<path d="M24.2997 21.4851L24.3828 21.3901C24.4023 21.3665 24.4181 21.3408 24.4304 21.3129L24.5847 20.9922C24.5991 20.9599 24.609 20.9262 24.6144 20.8913L24.7154 20.339C24.7198 20.3135 24.7217 20.2877 24.7213 20.2618L24.7273 19.5077C24.728 19.4798 24.726 19.452 24.7213 19.4245L24.5432 18.5397C24.537 18.5069 24.5271 18.4752 24.5135 18.4447L24.0919 17.5303C24.0793 17.5007 24.0635 17.473 24.0444 17.4471L23.3971 16.6217C23.3764 16.5949 23.3527 16.5711 23.3259 16.5505L22.4886 15.9091C22.4509 15.8799 22.4094 15.8581 22.3639 15.8438L21.396 15.541C21.3278 15.5179 21.2585 15.514 21.1881 15.5291L20.2736 15.7488C20.2717 15.7488 20.2697 15.7488 20.2677 15.7488L19.4898 15.9685C19.3473 16.0081 19.2958 16.0992 19.3354 16.2417C19.375 16.3842 19.4661 16.4357 19.6086 16.3961L20.3449 16.1882L21.1881 16.3011L22.061 16.5802L22.8092 17.1383L23.3674 17.8984L23.7118 18.7476L23.8722 19.5552L23.89 20.2381L23.8187 20.7666C23.8158 20.7823 23.8138 20.7981 23.8128 20.8141L23.8068 21.1703C23.806 21.1842 23.806 21.1981 23.8068 21.2119L23.8247 21.3426C23.8411 21.4579 23.905 21.5323 24.0166 21.5657C24.1282 21.5992 24.2225 21.5723 24.2997 21.4851Z" fill="black"/>
<path d="M5.76829 1.75703L5.73266 1.72734C5.58256 1.62527 5.44748 1.64231 5.32743 1.77845C5.20737 1.9146 5.20737 2.05075 5.32743 2.1869C5.44748 2.32305 5.58256 2.34009 5.73266 2.23802L5.76829 2.20833C5.84486 2.1526 5.88314 2.07738 5.88314 1.98268C5.88314 1.88798 5.84486 1.81276 5.76829 1.75703ZM5.16854 1.97674C5.16854 2.07513 5.20332 2.15911 5.27289 2.22868C5.34246 2.29824 5.42644 2.33303 5.52483 2.33303C5.62321 2.33303 5.70719 2.29824 5.77676 2.22868C5.84633 2.15911 5.88112 2.07513 5.88112 1.97674C5.88112 1.87835 5.84633 1.79438 5.77676 1.72481C5.70719 1.65524 5.62321 1.62045 5.52483 1.62045C5.42644 1.62045 5.34246 1.65524 5.27289 1.72481C5.20332 1.79438 5.16854 1.87835 5.16854 1.97674ZM5.07353 1.96486C5.07353 2.08621 5.11643 2.18978 5.20223 2.27558C5.28803 2.36139 5.39161 2.40429 5.51295 2.40429C5.63429 2.40429 5.73787 2.36139 5.82367 2.27558C5.90947 2.18978 5.95237 2.08621 5.95237 1.96486C5.95237 1.84352 5.90947 1.73995 5.82367 1.65415C5.73787 1.56834 5.63429 1.52544 5.51295 1.52544C5.39161 1.52544 5.28803 1.56834 5.20223 1.65415C5.11643 1.73995 5.07353 1.84352 5.07353 1.96486ZM5.67328 2.40429L5.76829 2.38053L5.95831 2.33303L6.32648 2.27365C6.33842 2.27204 6.35029 2.27006 6.36211 2.26771L6.91435 2.14301L7.61506 1.98862L8.45233 1.81641L9.44401 1.66796L10.6138 1.55513L11.944 1.48981L13.4166 1.46606L14.9724 1.52544L16.6173 1.65014L18.2919 1.84016L19.9605 2.07175L21.5994 2.33897L23.1968 2.59431C23.1987 2.59432 23.2007 2.59432 23.2027 2.59431L24.711 2.8259C24.713 2.82591 24.715 2.82591 24.7169 2.8259L26.1065 3.02779C26.1144 3.02795 26.1223 3.02795 26.1302 3.02779L27.3535 3.17031C27.3911 3.17417 27.4287 3.17417 27.4663 3.17031L28.3867 3.08124L29.028 3.09905L29.4378 3.17625C29.5684 3.2 29.6456 3.14656 29.6693 3.01592C29.6931 2.88528 29.6397 2.80808 29.509 2.78433L29.0993 2.71307L28.4877 2.4993L27.6444 2.11332C27.6043 2.09653 27.5627 2.08465 27.5197 2.07769L26.3143 1.83423C26.3084 1.83215 26.3024 1.83017 26.2965 1.82829L24.9129 1.59076L23.4046 1.33542L21.8072 1.0682L20.1624 0.800987C20.1565 0.798921 20.1505 0.796942 20.1446 0.795049L18.4641 0.557523C18.4601 0.557487 18.4561 0.557487 18.4522 0.557523L16.7539 0.355626C16.746 0.355482 16.738 0.355482 16.7301 0.355626L15.0615 0.219048C15.0516 0.218823 15.0417 0.218823 15.0318 0.219048L13.4463 0.159667C13.4344 0.159343 13.4226 0.159343 13.4107 0.159667L11.9083 0.183419C11.8965 0.183095 11.8846 0.183095 11.8727 0.183419L10.5188 0.284368C10.5109 0.284221 10.503 0.284221 10.4951 0.284368L9.29555 0.420945C9.28763 0.420796 9.27972 0.420796 9.2718 0.420945L8.2445 0.575337C8.23257 0.576976 8.22069 0.578955 8.20887 0.581275L7.35378 0.765358C7.34383 0.767097 7.33394 0.769077 7.32409 0.771296L6.62338 0.961317C6.61139 0.964911 6.59951 0.96887 6.58776 0.973193L6.04738 1.15728C6.02513 1.16388 6.00336 1.1718 5.98206 1.18103L5.63765 1.35323L5.42982 1.44825C5.41154 1.45512 5.39372 1.46303 5.37637 1.472L5.29324 1.52544C5.06922 1.67599 5.01077 1.87512 5.1179 2.12286C5.22503 2.37059 5.41016 2.4644 5.67328 2.40429Z" fill="black"/>
<path d="M8.18526 6.66785C8.18526 6.84204 8.27235 6.92913 8.44654 6.92913C8.62072 6.92913 8.70782 6.84204 8.70782 6.66785C8.70782 6.49366 8.62072 6.40657 8.44654 6.40657C8.27235 6.40657 8.18526 6.49366 8.18526 6.66785ZM8.63656 6.86975L8.6425 6.86381L8.67812 6.83412L8.77907 6.7688L8.95722 6.67973L9.23631 6.57878L9.53322 6.51346L9.78262 6.49564L9.99639 6.53127L10.2458 6.63222L10.5783 6.78068C10.5842 6.78282 10.5902 6.7848 10.5961 6.78661L11.0178 6.94694C11.0255 6.95122 11.0334 6.95518 11.0415 6.95882L11.5344 7.10134C11.5461 7.10396 11.558 7.10594 11.57 7.10727L12.1104 7.20822C12.13 7.21202 12.1498 7.214 12.1698 7.21416H12.7339H13.3039C13.3059 7.21416 13.3079 7.21416 13.3099 7.21416L13.8265 7.20228L14.2006 7.27948L14.4738 7.43387L14.7944 7.69515C14.8075 7.70613 14.8214 7.71603 14.836 7.72484L15.3229 8.02175C15.3508 8.03812 15.3805 8.04999 15.412 8.05738L16.1483 8.24146C16.1775 8.2494 16.2072 8.25336 16.2374 8.25334L17.1934 8.22958C17.2112 8.23097 17.2291 8.23097 17.2469 8.22958L18.292 8.03956C18.3041 8.03628 18.316 8.03232 18.3276 8.02769L19.3193 7.73672C19.3213 7.73672 19.3232 7.73672 19.3252 7.73672L20.1625 7.47544C20.1665 7.47553 20.1704 7.47553 20.1744 7.47544L20.7741 7.26167L21.1779 7.18447C21.3085 7.16065 21.3619 7.08346 21.3381 6.9529C21.3144 6.82234 21.2372 6.76889 21.1067 6.79255L20.691 6.87569L20.0556 6.95288C20.0456 6.9543 20.0357 6.95628 20.0259 6.95882L19.1708 7.16072L18.1673 7.38043L17.1519 7.55263L16.2611 7.57639L15.6139 7.43981L15.1982 7.18447L14.8835 6.90538C14.8618 6.88646 14.838 6.87062 14.8122 6.85787L14.4619 6.67973C14.4171 6.65689 14.3696 6.64501 14.3194 6.6441L13.8562 6.63222C13.8483 6.63189 13.8404 6.63189 13.8324 6.63222L13.298 6.66785L12.7576 6.65597L12.2291 6.5669L11.7125 6.46002L11.2434 6.32344L10.8515 6.16311L10.519 6.00872C10.5131 6.00657 10.5071 6.00459 10.5011 6.00278L10.2102 5.88995C10.1871 5.88142 10.1633 5.87548 10.1389 5.87214L9.85388 5.82463C9.81825 5.81883 9.78262 5.81883 9.74699 5.82463L9.43227 5.87808C9.41613 5.88082 9.4003 5.88478 9.38476 5.88995L9.05223 5.99684C9.04823 5.99873 9.04427 6.00071 9.04035 6.00278L8.73157 6.1156C8.72146 6.11904 8.71157 6.123 8.70188 6.12748L8.4881 6.23437C8.47341 6.24309 8.45956 6.25299 8.44654 6.26406L8.32777 6.34719C8.30477 6.36605 8.28498 6.38782 8.26839 6.41251L8.22683 6.46595C8.19396 6.50801 8.17417 6.55552 8.16744 6.60847V6.63222C8.15089 6.76241 8.20115 6.85714 8.31823 6.91642C8.43532 6.97571 8.54142 6.96015 8.63656 6.86975Z" fill="black"/>
<path d="M8.15552 10.3258L8.17333 10.2961C8.17967 10.2885 8.1856 10.2805 8.19115 10.2723L8.22678 10.2129L8.29209 10.1417L8.4168 10.0526L8.68401 9.93385L9.05218 9.81508L9.42034 9.73789L9.73507 9.72007L10.026 9.79133L10.3883 9.93385C10.4096 9.94154 10.4313 9.94748 10.4536 9.95166L10.9702 10.0585C10.984 10.0612 10.9978 10.0632 11.0118 10.0645L11.6175 10.1298C11.6274 10.1301 11.6373 10.1301 11.6471 10.1298L12.2588 10.1595L13.2089 10.2011L13.5058 10.2189L13.7196 10.2723L13.9868 10.403L14.3787 10.6286C14.3884 10.6349 14.3983 10.6409 14.4084 10.6464L14.9428 10.9018C14.9639 10.9115 14.9857 10.9194 15.0081 10.9255L15.691 11.1274C15.7181 11.1361 15.7459 11.1421 15.7742 11.1452L16.6174 11.2105C16.6352 11.2116 16.653 11.2116 16.6708 11.2105L17.6506 11.1749C17.6586 11.1732 17.6665 11.1712 17.6744 11.169L18.7135 11.0799C18.7275 11.0786 18.7414 11.0766 18.7551 11.074L19.7349 10.8899L20.5484 10.7533L21.1482 10.688L21.5401 10.6939C21.6707 10.6939 21.7361 10.6286 21.7361 10.498C21.7361 10.3673 21.6707 10.302 21.5401 10.302L21.1423 10.2961L20.5247 10.2664L19.6874 10.2308C19.6834 10.2307 19.6795 10.2307 19.6755 10.2308L18.6779 10.2248C18.666 10.2243 18.6542 10.2243 18.6423 10.2248L17.6031 10.3079L16.6589 10.3495L15.8811 10.2961L15.2813 10.1239L14.8003 9.88634L14.4203 9.64881C14.4068 9.64013 14.393 9.63221 14.3787 9.62506L14.058 9.47067C14.0333 9.45831 14.0075 9.44841 13.9808 9.44098L13.6899 9.36378C13.6627 9.35515 13.635 9.34921 13.6067 9.34597L13.2623 9.32222C13.2564 9.3221 13.2504 9.3221 13.2445 9.32222L12.2944 9.29253L11.7006 9.26284L11.1187 9.19752L10.608 9.12032C10.6021 9.11821 10.5961 9.11623 10.5902 9.11438L10.1745 9.06688C10.1725 9.06688 10.1705 9.06688 10.1686 9.06688L9.79445 9.03125C9.77861 9.03015 9.76278 9.03015 9.74694 9.03125L9.36096 9.04906C9.34283 9.0516 9.32502 9.05556 9.30752 9.06094L8.89185 9.15001C8.87573 9.15284 8.8599 9.1568 8.84434 9.16189L8.45242 9.3044C8.43391 9.31075 8.4161 9.31867 8.39898 9.32815L8.10801 9.49442C8.089 9.50451 8.07119 9.51638 8.05457 9.53005L7.88236 9.67851C7.86688 9.69292 7.85302 9.70875 7.8408 9.72601L7.74578 9.85071C7.72866 9.87256 7.71481 9.89631 7.70422 9.92197L7.66859 10.011C7.65323 10.0471 7.64531 10.0847 7.64484 10.1239L7.65077 10.1536C7.64678 10.2908 7.70973 10.3815 7.83963 10.4258C7.96953 10.4701 8.07483 10.4368 8.15552 10.3258Z" fill="black"/>
<path d="M9.30151 13.6808L9.31338 13.6749C9.29887 13.6817 9.28502 13.6896 9.27182 13.6987L9.30745 13.6808C9.32668 13.6688 9.34449 13.655 9.36089 13.6393L9.43808 13.5799L9.52716 13.5027L9.66373 13.4196L9.87751 13.3364L10.1388 13.3127L10.4357 13.4017L10.8157 13.669L11.2848 14.0965C11.2868 14.0985 11.2888 14.1005 11.2908 14.1024L11.8252 14.5775C11.8675 14.6156 11.915 14.6453 11.9677 14.6666L12.6981 14.9635C12.7365 14.9783 12.7761 14.9882 12.8169 14.9932L13.6839 15.1238C13.7155 15.1269 13.7472 15.1269 13.7789 15.1238L14.729 15.0822C14.7369 15.0805 14.7449 15.0785 14.7527 15.0763L15.7088 14.9813L16.5698 14.8922L17.223 14.8803L17.6624 14.916L17.9593 14.9694L18.2681 15.0526C18.303 15.0627 18.3387 15.0686 18.375 15.0704L18.8144 15.0882C18.9006 15.0934 18.9818 15.0755 19.0579 15.0347L19.4201 14.8328L19.8298 14.7853C19.988 14.7654 20.0572 14.6763 20.0374 14.5182C20.0176 14.36 19.9287 14.2907 19.7705 14.3103L19.3785 14.3578L19.0104 14.2034C18.9626 14.1852 18.9131 14.1753 18.8619 14.1737L18.4641 14.144L18.1969 14.0787L17.8821 13.9659C17.8416 13.9525 17.8 13.9446 17.7574 13.9421L17.2764 13.9065C17.2406 13.9045 17.205 13.9065 17.1696 13.9124L16.4807 14.0074L15.6197 14.1381L14.7052 14.2034L13.8086 14.15L13.0129 14.0134L12.33 13.7758L11.7421 13.4908L11.2492 13.1167L10.8098 12.7901C10.7776 12.7641 10.742 12.7443 10.7029 12.7307L10.2813 12.6001C10.2346 12.5866 10.1871 12.5826 10.1388 12.5882L9.75874 12.6179C9.72599 12.6215 9.69432 12.6294 9.66373 12.6417L9.37276 12.7545C9.35206 12.7626 9.33227 12.7725 9.31338 12.7842L9.1293 12.897C9.10783 12.9107 9.08804 12.9266 9.06992 12.9445L8.96303 13.0514C8.92419 13.0864 8.8945 13.128 8.87396 13.1761L8.83833 13.2652C8.80491 13.3511 8.80689 13.4362 8.84427 13.5205L8.86208 13.5621C8.85723 13.5478 8.85129 13.5339 8.84427 13.5205L8.85021 13.5324C8.87719 13.6307 8.93913 13.6959 9.03602 13.7277C9.1329 13.7596 9.2214 13.744 9.30151 13.6808Z" fill="black"/>
<path d="M10.2042 17.1368L10.1864 17.119C10.1461 17.0801 10.0986 17.0544 10.0439 17.0418L9.93108 17.0181C9.91148 17.0141 9.89168 17.0122 9.87169 17.0121H9.74699L9.66386 16.9943L9.61042 16.9706C9.52368 16.9336 9.43864 16.9372 9.3553 16.9813C9.27197 17.0253 9.22115 17.0936 9.20284 17.1861C9.18454 17.2786 9.20552 17.3611 9.26579 17.4336C9.32606 17.506 9.40332 17.5417 9.49759 17.5406H9.56291L9.64604 17.5525L9.74699 17.5941C9.76618 17.602 9.78597 17.608 9.80637 17.6119L9.9192 17.6356C9.93684 17.6392 9.95465 17.6412 9.97264 17.6416H10.0023C10.1359 17.6437 10.2274 17.5827 10.277 17.4587C10.3266 17.3347 10.3024 17.2274 10.2042 17.1368ZM9.56885 17.5525L9.67574 17.5288C9.6898 17.5255 9.70366 17.5216 9.7173 17.5169L9.93108 17.4337L10.2636 17.3387L10.703 17.2615L11.2731 17.2259L11.95 17.2437L12.6626 17.315L13.3515 17.4337L14.0343 17.6119C14.0383 17.6119 14.0423 17.6119 14.0462 17.6119L14.7588 17.7722C14.7744 17.7771 14.7902 17.7811 14.8063 17.7841L15.5664 17.8613L16.2493 17.9266L16.7718 18.0394C16.8901 18.0494 16.9616 17.9963 16.9862 17.8801C17.0109 17.764 16.9671 17.6865 16.855 17.6475L16.3324 17.5406L15.703 17.309L15.0141 17.0003C15.0082 16.9981 15.0023 16.9962 14.9963 16.9943L14.3134 16.7271C14.2998 16.7225 14.2859 16.7185 14.2719 16.7152L13.5771 16.5252C13.5634 16.5206 13.5496 16.5166 13.5355 16.5133L12.8111 16.3827C12.7993 16.3803 12.7874 16.3783 12.7754 16.3767L12.0272 16.2996C12.0154 16.2971 12.0036 16.2951 11.9916 16.2936L11.279 16.2758C11.2632 16.275 11.2474 16.275 11.2315 16.2758L10.614 16.3233C10.594 16.324 10.5742 16.326 10.5546 16.3292L10.0617 16.4302C10.0353 16.4359 10.0096 16.4438 9.98452 16.4539L9.62823 16.5965C9.59195 16.6118 9.55831 16.6316 9.52728 16.6558L9.33132 16.8043C9.26981 16.849 9.22429 16.9064 9.19475 16.9765L9.15318 17.0715C9.09777 17.2066 9.11779 17.3293 9.21323 17.4397C9.30867 17.5502 9.42721 17.5878 9.56885 17.5525Z" fill="black"/>
<path d="M5.16688 20.556C5.16688 20.746 5.26189 20.8411 5.45191 20.8411C5.64193 20.8411 5.73694 20.746 5.73694 20.556C5.73694 20.366 5.64193 20.271 5.45191 20.271C5.26189 20.271 5.16688 20.366 5.16688 20.556ZM5.76663 20.5976L5.77851 20.5382C5.77955 20.5224 5.77955 20.5065 5.77851 20.4907L5.78444 20.3838C5.78574 20.3457 5.78178 20.3081 5.77257 20.271L5.72506 20.0988C5.72083 20.0766 5.71489 20.0548 5.70725 20.0335L5.61818 19.8256L5.49348 19.5347L5.36877 19.1249L5.22032 18.5964L5.04218 17.9017L4.84028 17.0525L4.62057 16.043L4.40086 14.9029L4.21677 13.6084L4.02081 12.2248L3.86048 10.8056L3.79516 9.35074L3.86048 7.87808L4.09801 6.42917L4.55525 5.02183L5.19657 3.68574L5.80226 2.52187L6.60985 1.80929C6.72861 1.70636 6.73653 1.59551 6.6336 1.47675C6.53067 1.35799 6.41983 1.35007 6.30106 1.453L5.46378 2.18933L4.37117 2.98504C4.31162 3.02683 4.26214 3.0783 4.22271 3.13943L3.40918 4.44583C3.38449 4.48715 3.36469 4.53069 3.3498 4.57647L2.84506 6.06694C2.83476 6.09802 2.82684 6.12969 2.82131 6.16195L2.54815 7.69993C2.54244 7.72739 2.53848 7.7551 2.53628 7.78307L2.46502 9.32105C2.46413 9.34084 2.46413 9.36063 2.46502 9.38043L2.53034 10.8887C2.53175 10.9046 2.53373 10.9205 2.53628 10.9362L2.70254 12.3851C2.70438 12.3931 2.70636 12.401 2.70848 12.4089L2.92819 13.8044C2.92797 13.8142 2.92797 13.8241 2.92819 13.834L3.19541 15.1286L3.43294 16.2865C3.43476 16.2945 3.43674 16.3024 3.43888 16.3103L3.6764 17.3197C3.67971 17.3357 3.68367 17.3516 3.68828 17.3672L3.96143 18.2105C3.96681 18.2246 3.97275 18.2384 3.97925 18.252L4.25834 18.923C4.25829 18.927 4.25829 18.931 4.25834 18.9349L4.48993 19.4456C4.49189 19.4476 4.49387 19.4496 4.49587 19.4515L4.68589 19.8613L4.81653 20.1641C4.81845 20.1681 4.82042 20.1721 4.82246 20.176L4.91747 20.3838C4.92107 20.3939 4.92503 20.4038 4.92935 20.4135L5.01249 20.5679C5.03206 20.6009 5.05582 20.6306 5.08374 20.657L5.155 20.7342C5.17655 20.7549 5.2003 20.7727 5.22626 20.7876L5.27376 20.8232C5.37267 20.8838 5.47484 20.89 5.58029 20.8417C5.68575 20.7934 5.74786 20.712 5.76663 20.5976Z" fill="black"/>
<path d="M4.03266 3.75696C4.03266 3.95886 4.13361 4.05981 4.3355 4.05981C4.5374 4.05981 4.63835 3.95886 4.63835 3.75696C4.63835 3.55507 4.5374 3.45412 4.3355 3.45412C4.13361 3.45412 4.03266 3.55507 4.03266 3.75696ZM3.97921 3.74509C3.97921 3.84019 4.01284 3.92137 4.08009 3.98862C4.14734 4.05587 4.22852 4.0895 4.32363 4.0895C4.41873 4.0895 4.49991 4.05587 4.56716 3.98862C4.63441 3.92137 4.66804 3.84019 4.66804 3.74509C4.66804 3.64998 4.63441 3.5688 4.56716 3.50155C4.49991 3.4343 4.41873 3.40068 4.32363 3.40068C4.22852 3.40068 4.14734 3.4343 4.08009 3.50155C4.01284 3.5688 3.97921 3.64998 3.97921 3.74509ZM4.62647 3.94698L4.70961 3.84604C4.71164 3.84211 4.71362 3.83815 4.71554 3.83416L4.90557 3.57288L5.2381 3.11564L5.76066 2.53371L6.45542 1.93989L7.19175 1.3817L7.86276 0.960095L8.49221 0.823518C8.63068 0.791796 8.68409 0.70669 8.65244 0.568201C8.62078 0.429712 8.5357 0.376261 8.3972 0.407847L7.744 0.556301L6.9186 0.663188C6.87952 0.66751 6.84192 0.677407 6.80577 0.692879L5.93287 1.07886C5.89242 1.09573 5.85481 1.11751 5.82004 1.14418L5.0659 1.73799C5.04475 1.75431 5.02496 1.77212 5.00651 1.79144L4.43051 2.409C4.4135 2.42577 4.39766 2.44358 4.38301 2.46245L4.0386 2.94938C4.0011 2.9999 3.97338 3.05533 3.95546 3.11564L3.87233 3.42443C3.84442 3.52006 3.8464 3.61507 3.87827 3.70946L3.91983 3.82822C3.97347 3.97983 4.07959 4.06897 4.23819 4.09562C4.39679 4.12228 4.52622 4.07273 4.62647 3.94698Z" fill="black"/>
<path d="M3.56053 28.6777C3.56053 28.8756 3.6595 28.9746 3.85744 28.9746C4.05538 28.9746 4.15434 28.8756 4.15434 28.6777C4.15434 28.4797 4.05538 28.3808 3.85744 28.3808C3.6595 28.3808 3.56053 28.4797 3.56053 28.6777ZM3.55459 28.6777C3.55459 28.8796 3.65554 28.9805 3.85744 28.9805C4.05933 28.9805 4.16028 28.8796 4.16028 28.6777C4.16028 28.4758 4.05933 28.3748 3.85744 28.3748C3.65554 28.3748 3.55459 28.4758 3.55459 28.6777ZM4.15434 28.7489L4.16028 28.7133C4.1775 28.6548 4.18146 28.5954 4.17216 28.5352L4.14841 28.3986C4.14014 28.3354 4.12034 28.276 4.08903 28.2204L3.95839 28.0126C3.94758 27.9941 3.93571 27.9763 3.92276 27.9592L3.72086 27.6919C3.71145 27.6797 3.70155 27.6678 3.69117 27.6563L3.39426 27.3357L3.04985 26.9616L2.6995 26.5637L2.39665 26.1658L2.18288 25.7205L2.09381 25.2157L2.17694 24.5804L2.43822 23.8321L2.81232 23.0008L3.18049 22.2348L3.73274 21.7479C3.84754 21.6489 3.85546 21.542 3.75649 21.4272C3.65752 21.3124 3.55063 21.3045 3.43583 21.4034L2.85983 21.9082L2.10568 22.3714C2.06024 22.4005 2.02066 22.4361 1.98692 22.4783L1.38717 23.2027C1.34029 23.2597 1.30466 23.3231 1.28028 23.3927L0.977435 24.23C0.962403 24.2744 0.952506 24.3199 0.947744 24.3666L0.858672 25.1623C0.85015 25.2279 0.852129 25.2933 0.86461 25.3583L1.00713 26.0352C1.01844 26.087 1.03625 26.1365 1.06057 26.1837L1.33966 26.7478C1.35769 26.7857 1.37947 26.8213 1.40498 26.8547L1.76721 27.3119C1.77845 27.3263 1.79032 27.3402 1.80284 27.3535L2.18288 27.7573C2.19057 27.7654 2.19849 27.7733 2.20663 27.781L2.5748 28.1314L2.87764 28.4342C2.88154 28.4382 2.8855 28.4422 2.88952 28.4461L3.13298 28.6777C3.13884 28.6818 3.14478 28.6857 3.1508 28.6896L3.34082 28.8499C3.38997 28.8925 3.44539 28.9242 3.50709 28.9449L3.64366 28.9924C3.73612 29.0207 3.82717 29.0167 3.91682 28.9805L3.95245 28.9686C4.05651 28.9292 4.12381 28.856 4.15434 28.7489Z" fill="black"/>
<path d="M4.54625 21.6231C4.54625 21.825 4.6472 21.9259 4.8491 21.9259C5.051 21.9259 5.15194 21.825 5.15194 21.6231C5.15194 21.4212 5.051 21.3202 4.8491 21.3202C4.6472 21.3202 4.54625 21.4212 4.54625 21.6231ZM4.50469 21.6112C4.50469 21.703 4.53715 21.7814 4.60208 21.8463C4.66702 21.9113 4.74539 21.9437 4.83722 21.9437C4.92905 21.9437 5.00743 21.9113 5.07236 21.8463C5.13729 21.7814 5.16976 21.703 5.16976 21.6112C5.16976 21.5194 5.13729 21.441 5.07236 21.3761C5.00743 21.3111 4.92905 21.2787 4.83722 21.2787C4.74539 21.2787 4.66702 21.3111 4.60208 21.3761C4.53715 21.441 4.50469 21.5194 4.50469 21.6112ZM5.21726 21.5815V21.5281C5.21997 21.4308 5.19424 21.3417 5.14007 21.2609L5.06287 21.148C5.03725 21.1125 5.00756 21.0809 4.9738 21.053L4.80159 20.9105C4.75529 20.8705 4.70382 20.8388 4.6472 20.8155L4.35623 20.7027C4.30094 20.6801 4.24354 20.6662 4.18403 20.6611L3.78023 20.6314C3.73647 20.6286 3.69292 20.6306 3.64959 20.6374L3.1686 20.7086C3.11293 20.7169 3.05949 20.7328 3.00827 20.7561L2.50353 20.9877C2.43607 21.0202 2.37669 21.0638 2.32538 21.1183L1.86815 21.5815C1.75633 21.6975 1.70091 21.8361 1.70188 21.9972L1.69594 22.6385L1.47029 23.2858C1.44326 23.4218 1.49481 23.5137 1.62492 23.5617C1.75503 23.6096 1.85392 23.5731 1.92159 23.452L2.1413 22.8345L2.64011 22.4841C2.66315 22.4679 2.68492 22.45 2.70543 22.4307L3.10922 22.0447L3.44176 21.8784L3.77429 21.825L4.0712 21.8369L4.3206 21.8903L4.5225 21.9319L4.6472 21.9675C4.70189 21.9817 4.75731 21.9857 4.81347 21.9794L4.86691 21.9734C5.09866 21.9456 5.21545 21.8149 5.21726 21.5815Z" fill="black"/>
<path d="M3.04392 21.6944L3.03204 21.6707C3.01147 21.6295 2.98376 21.5939 2.94891 21.5638L2.88952 21.5103C2.86561 21.4916 2.83988 21.4757 2.81233 21.4628L2.70544 21.4094C2.62875 21.3707 2.54759 21.3548 2.46198 21.3619L2.29571 21.3738C2.22668 21.378 2.16136 21.3958 2.09975 21.4272L1.89191 21.5341C1.84821 21.5583 1.80862 21.588 1.77315 21.6232L1.54156 21.8488C1.49974 21.8873 1.46412 21.9308 1.43468 21.9795L1.21497 22.3536C1.18946 22.3987 1.16967 22.4462 1.15558 22.4961L0.995254 23.0246C0.983716 23.0634 0.975799 23.103 0.971501 23.1433L0.900243 23.7728C0.892581 23.8447 0.896539 23.9159 0.912119 23.9865L1.05464 24.6338C1.0638 24.6835 1.07964 24.731 1.10214 24.7763L1.41092 25.3523C1.41091 25.3543 1.41091 25.3563 1.41092 25.3583L1.69596 25.8808L1.86816 26.3084C1.93121 26.4232 2.02329 26.4556 2.14439 26.4058C2.2655 26.3559 2.30802 26.268 2.27196 26.1421L2.10569 25.7324L2.04631 25.1979L2.1235 24.5922L2.21257 23.939C2.21464 23.9331 2.21662 23.9272 2.21851 23.9212L2.28383 23.3274L2.39666 22.8524L2.50948 22.5079L2.59855 22.3239L2.652 22.2645L2.72326 22.2229L2.81233 22.1754C2.82463 22.1681 2.83651 22.1602 2.84796 22.1517L2.91328 22.1101C2.93725 22.095 2.95902 22.0771 2.9786 22.0566L2.99641 22.0388C3.09045 21.9348 3.10628 21.82 3.04392 21.6944Z" fill="black"/>
<path d="M1.74336 22.3001C1.74336 22.5059 1.84629 22.6089 2.05214 22.6089C2.258 22.6089 2.36092 22.5059 2.36092 22.3001C2.36092 22.0942 2.258 21.9913 2.05214 21.9913C1.84629 21.9913 1.74336 22.0942 1.74336 22.3001ZM1.70179 22.3001C1.70179 22.3935 1.73484 22.4733 1.80093 22.5394C1.86702 22.6055 1.9468 22.6386 2.04026 22.6386C2.13373 22.6386 2.21351 22.6055 2.2796 22.5394C2.34569 22.4733 2.37874 22.3935 2.37874 22.3001C2.37874 22.2066 2.34569 22.1268 2.2796 22.0607C2.21351 21.9947 2.13373 21.9616 2.04026 21.9616C1.9468 21.9616 1.86702 21.9947 1.80093 22.0607C1.73484 22.1268 1.70179 22.2066 1.70179 22.3001ZM2.09371 21.9141L2.01057 21.8903C1.89745 21.8632 1.78859 21.8751 1.68398 21.926L1.52958 21.9972C1.4743 22.0224 1.42482 22.056 1.38113 22.0982L1.19705 22.2823C1.15668 22.3228 1.12303 22.3684 1.0961 22.4188L0.912016 22.7514C0.885886 22.7983 0.866092 22.8478 0.852635 22.8998L0.721996 23.3927C0.712436 23.4317 0.706498 23.4713 0.704181 23.5115L0.662614 24.1409C0.660639 24.1706 0.660639 24.2003 0.662614 24.23L0.704181 24.9307C0.706402 24.9586 0.710361 24.9864 0.716057 25.0138L0.852635 25.7145C0.856798 25.7426 0.862736 25.7703 0.870449 25.7977L1.09016 26.4687C1.10015 26.4972 1.11202 26.5249 1.12579 26.5518L1.41082 27.1397C1.43343 27.1865 1.46114 27.23 1.49396 27.2703L1.89181 27.7632C1.93884 27.8205 1.99426 27.868 2.05808 27.9057L2.56876 28.2085C2.61473 28.2371 2.66421 28.2569 2.71721 28.2679L3.21008 28.3629L3.602 28.6064C3.70741 28.654 3.79012 28.6284 3.85015 28.5295C3.91017 28.4306 3.89475 28.3454 3.8039 28.2739L3.42979 28.0423L3.21602 27.6147C3.2141 27.6107 3.21212 27.6068 3.21008 27.6028L2.93099 27.0744C2.92555 27.0603 2.91961 27.0464 2.91317 27.0328L2.59845 26.528L2.34311 26.0114L2.15309 25.4235L2.04026 24.806L1.9987 24.1765L2.02245 23.6183L2.08777 23.173L2.15309 22.888L2.21247 22.7454L2.28373 22.6504C2.31107 22.6139 2.33284 22.5743 2.34905 22.5317L2.37874 22.4545C2.42132 22.3399 2.41411 22.2286 2.3571 22.1205C2.30008 22.0124 2.21229 21.9436 2.09371 21.9141Z" fill="black"/>
<path d="M4.28495 21.2906C4.28495 21.4569 4.36808 21.54 4.53435 21.54C4.70062 21.54 4.78375 21.4569 4.78375 21.2906C4.78375 21.1243 4.70062 21.0412 4.53435 21.0412C4.36808 21.0412 4.28495 21.1243 4.28495 21.2906ZM4.54623 20.9937L4.48685 20.9877C4.48097 20.9856 4.47503 20.9836 4.46903 20.9818L4.39777 20.9759L4.34433 20.9699L4.2612 20.9462L4.16619 20.9105L4.08305 20.863L3.98804 20.7977C3.98038 20.7914 3.97246 20.7855 3.96429 20.7799L3.88709 20.7383C3.90654 20.8537 3.96791 20.9388 4.07118 20.9937L4.06524 20.964C4.04659 20.8454 3.98694 20.7535 3.88628 20.6881C3.78563 20.6227 3.67736 20.6056 3.56146 20.6368C3.44556 20.668 3.36048 20.7371 3.3062 20.8441C3.25193 20.9512 3.24646 21.0606 3.28981 21.1726C3.33315 21.2845 3.41093 21.3617 3.52315 21.4043C3.63536 21.4468 3.7448 21.4406 3.85146 21.3856L3.88115 21.3678C3.78061 21.3321 3.68362 21.3401 3.59018 21.3915L3.66738 21.4212C3.68489 21.4266 3.7027 21.4305 3.72082 21.4331L3.82771 21.4569L3.94647 21.4865L4.07711 21.5222L4.184 21.5578C4.20146 21.5634 4.21927 21.5673 4.23744 21.5697L4.33245 21.5756C4.33637 21.5777 4.34033 21.5797 4.34433 21.5816L4.42746 21.5875H4.48685C4.65629 21.5753 4.74946 21.4846 4.76637 21.3156C4.78327 21.1465 4.70989 21.0392 4.54623 20.9937ZM3.37641 21.3737L3.49517 21.4806C3.53443 21.5166 3.57797 21.5463 3.62581 21.5697L4.00586 21.7538C4.02133 21.7624 4.03716 21.7703 4.05336 21.7775L4.68874 22.021C4.69465 22.0231 4.70059 22.025 4.70656 22.0269L5.56759 22.3238C5.57546 22.326 5.58338 22.3279 5.59134 22.3298L6.64239 22.6445C6.64633 22.6465 6.65029 22.6485 6.65427 22.6504L7.87753 22.9948C7.87951 22.9948 7.88149 22.9948 7.88347 22.9948L9.23737 23.363C9.24132 23.363 9.24528 23.363 9.24924 23.363L10.6566 23.7252L12.0224 24.0696C12.0263 24.0717 12.0303 24.0736 12.0342 24.0756L13.3109 24.3784C13.3129 24.3784 13.3149 24.3784 13.3169 24.3784L14.4986 24.6456C14.5025 24.6457 14.5065 24.6457 14.5104 24.6456L15.5971 24.8653C15.6011 24.8654 15.605 24.8654 15.609 24.8653L16.5829 25.0316L17.4736 25.186C17.4756 25.186 17.4775 25.186 17.4795 25.186L18.2812 25.3166L19.0175 25.477L19.7004 25.6551L20.3239 25.8333L20.8524 25.9877C20.8602 25.99 20.8681 25.9919 20.8761 25.9936L21.3096 26.0827C21.3253 26.086 21.3411 26.088 21.3571 26.0886L21.6362 26.1005L21.7906 26.148C21.9213 26.1876 22.0064 26.1421 22.046 26.0114C22.0855 25.8808 22.04 25.7957 21.9094 25.7561L21.749 25.7145L21.5175 25.572C21.4989 25.5597 21.4791 25.5498 21.4581 25.5423L21.0424 25.3998C21.0365 25.3976 21.0306 25.3956 21.0246 25.3938L20.4902 25.2395L19.8667 25.0613L19.1719 24.8713L18.4356 24.6694L17.6517 24.4378L16.7907 24.1765C16.7868 24.1745 16.7828 24.1725 16.7788 24.1706L15.8287 23.9034C15.8208 23.9012 15.8129 23.8992 15.805 23.8974L14.7302 23.6421C14.7282 23.6401 14.7262 23.6381 14.7242 23.6362L13.5485 23.3689L12.2836 23.0602L10.9297 22.6979L9.54615 22.2882C9.54418 22.2862 9.54221 22.2842 9.54021 22.2823L8.19225 21.8903L6.97493 21.54L5.94169 21.2193L5.09848 20.9224L4.46903 20.6849C4.45728 20.6805 4.44541 20.6766 4.4334 20.673L4.02961 20.5483C3.95174 20.5249 3.87257 20.519 3.79208 20.5305L3.63175 20.5543C3.4335 20.5824 3.30459 20.6921 3.24502 20.8833C3.18545 21.0744 3.22924 21.2379 3.37641 21.3737Z" fill="black"/>
<path d="M13.9878 24.0934C13.9878 24.2636 14.0729 24.3487 14.2431 24.3487C14.4134 24.3487 14.4985 24.2636 14.4985 24.0934C14.4985 23.9232 14.4134 23.8381 14.2431 23.8381C14.0729 23.8381 13.9878 23.9232 13.9878 24.0934ZM14.0472 24.3012L14.065 24.325C14.0816 24.3387 14.0994 24.3506 14.1184 24.3606L14.2372 24.4319C14.2542 24.4433 14.272 24.4532 14.2907 24.4616L14.6054 24.5863C14.619 24.5909 14.6329 24.5949 14.6469 24.5981L15.2051 24.7644C15.211 24.7665 15.217 24.7685 15.2229 24.7704L15.9949 24.9544L16.9213 25.1801L17.9426 25.4354C17.9446 25.4354 17.9466 25.4354 17.9486 25.4354L18.9937 25.6789C18.9996 25.681 19.0055 25.683 19.0115 25.6848L20.0032 25.8689L20.8761 26.0767C20.88 26.0768 20.884 26.0768 20.8879 26.0767L21.648 26.2311C21.65 26.2331 21.652 26.2351 21.654 26.2371L22.2596 26.3499L22.7288 26.4509C22.7464 26.4546 22.7642 26.4565 22.7822 26.4568L23.091 26.4627L23.2691 26.5102C23.3997 26.5456 23.4827 26.4981 23.5183 26.3676C23.5539 26.2372 23.5064 26.1541 23.376 26.1183L23.1919 26.0708L22.9128 25.9283C22.8976 25.9209 22.8817 25.915 22.8653 25.9105L22.4081 25.7798L21.8202 25.5839C21.8143 25.5837 21.8084 25.5837 21.8024 25.5839L21.0601 25.3701C21.0582 25.3701 21.0562 25.3701 21.0542 25.3701L20.1872 25.1266L19.2312 24.8238C19.2253 24.8217 19.2194 24.8197 19.2134 24.8179L18.1801 24.5328C18.1762 24.5328 18.1722 24.5328 18.1683 24.5328L17.1469 24.2775C17.1449 24.2755 17.143 24.2735 17.141 24.2716L16.2087 24.0518C16.2047 24.0498 16.2008 24.0478 16.1968 24.0459L15.4189 23.8915C15.4169 23.8895 15.415 23.8875 15.413 23.8856L14.8429 23.7787C14.8272 23.7758 14.8113 23.7738 14.7954 23.7727L14.451 23.749C14.4171 23.7463 14.3834 23.7483 14.35 23.7549L14.2194 23.7846C14.1606 23.7957 14.1091 23.8214 14.065 23.8618L14.0472 23.8856C13.9872 23.9419 13.9572 24.0111 13.9572 24.0934C13.9572 24.1757 13.9872 24.2449 14.0472 24.3012Z" fill="black"/>
<path d="M3.34804 28.5272C3.34804 28.7093 3.43909 28.8004 3.6212 28.8004C3.8033 28.8004 3.89435 28.7093 3.89435 28.5272C3.89435 28.3451 3.8033 28.2541 3.6212 28.2541C3.43909 28.2541 3.34804 28.3451 3.34804 28.5272ZM3.44305 28.7825L3.51431 28.8419C3.52908 28.8552 3.54492 28.8671 3.56182 28.8776L3.77559 29.0023C3.78335 29.0065 3.79127 29.0105 3.79934 29.0141L4.25064 29.2338C4.25262 29.2339 4.2546 29.2339 4.25658 29.2338L5.02854 29.5842C5.03052 29.5842 5.0325 29.5842 5.03448 29.5842L6.12116 30.0711C6.12508 30.0732 6.12904 30.0752 6.13304 30.0771L7.51662 30.6471L9.10805 31.3063C9.11394 31.3084 9.11988 31.3104 9.12586 31.3122L10.9251 31.9416C10.931 31.9437 10.937 31.9457 10.9429 31.9476L12.8253 32.5176C12.8313 32.5178 12.8372 32.5178 12.8431 32.5176L14.6721 33.0046L16.3704 33.4321L17.8371 33.7943L19.0604 34.1031C19.0624 34.1031 19.0643 34.1031 19.0663 34.1031L20.0402 34.3347C20.0421 34.3367 20.0441 34.3387 20.0461 34.3407L20.7706 34.495L21.2338 34.6257L21.501 34.7266C21.675 34.7935 21.7956 34.74 21.8628 34.5661C21.93 34.3922 21.8767 34.2716 21.7029 34.2041L21.4238 34.0972C21.4218 34.0972 21.4198 34.0972 21.4178 34.0972L20.9487 33.919L20.248 33.6578C20.2402 33.6555 20.2323 33.6535 20.2243 33.6518L19.2682 33.3609C19.2643 33.3588 19.2603 33.3568 19.2563 33.3549L18.0331 33.0343C18.0311 33.0342 18.0291 33.0342 18.0271 33.0343L16.5664 32.6602L14.8799 32.2207L13.0747 31.6982L11.2042 31.1162L9.40496 30.5165L7.78978 29.9524L6.41807 29.3882L5.31951 28.9369L4.55349 28.5925C4.55151 28.5925 4.54953 28.5925 4.54755 28.5925L4.09031 28.3847L3.86466 28.2837C3.8569 28.2795 3.84899 28.2755 3.84091 28.2719L3.75184 28.2422C3.58351 28.1771 3.45458 28.2228 3.36503 28.3796C3.27549 28.5363 3.30149 28.6706 3.44305 28.7825Z" fill="black"/>
<path d="M13.6685 32.3277C13.6685 32.5018 13.7555 32.5889 13.9297 32.5889C14.1039 32.5889 14.191 32.5018 14.191 32.3277C14.191 32.1535 14.1039 32.0664 13.9297 32.0664C13.7555 32.0664 13.6685 32.1535 13.6685 32.3277ZM13.7516 32.5652L13.8466 32.6424C13.8632 32.6579 13.881 32.6717 13.9 32.6839L14.2029 32.8621C14.2275 32.8763 14.2533 32.8882 14.2801 32.8977L14.8442 33.0996C14.8501 33.1017 14.856 33.1037 14.862 33.1056L15.7171 33.3728C15.7191 33.3728 15.7211 33.3728 15.7231 33.3728L16.8038 33.6994C16.8058 33.6994 16.8078 33.6994 16.8097 33.6994L18.0271 34.0438C18.031 34.0458 18.035 34.0478 18.0389 34.0497L19.2859 34.3823C19.2879 34.3823 19.2899 34.3823 19.2919 34.3823L20.4617 34.6851C20.4676 34.6852 20.4736 34.6852 20.4795 34.6851L21.4831 34.9048C21.4909 34.907 21.4988 34.909 21.5068 34.9108L22.2728 35.0414C22.2748 35.0414 22.2768 35.0414 22.2788 35.0414L22.8013 35.1186C22.8053 35.1187 22.8092 35.1187 22.8132 35.1186L23.1161 35.1602C23.2185 35.1782 23.3124 35.1574 23.3976 35.0976C23.4828 35.0379 23.5345 34.9568 23.5525 34.8543C23.5705 34.7519 23.5497 34.658 23.49 34.5728C23.4303 34.4876 23.3492 34.4359 23.2467 34.4179L22.9557 34.3526L22.4629 34.2219L21.7265 33.9903C21.7226 33.9883 21.7186 33.9863 21.7146 33.9844L20.723 33.7053C20.721 33.7053 20.719 33.7053 20.717 33.7053L19.5472 33.3965L18.3121 33.0581L17.1007 32.7018L16.02 32.3752C16.018 32.3752 16.016 32.3752 16.014 32.3752L15.153 32.1317C15.1451 32.1295 15.1372 32.1276 15.1292 32.1258L14.5414 31.9951C14.5042 31.9866 14.4666 31.9826 14.4285 31.9832L14.0782 31.9892C14.0457 31.991 14.0141 31.9969 13.9832 32.007L13.8644 32.0426C13.7478 32.0757 13.6767 32.1516 13.6511 32.27C13.6255 32.3885 13.659 32.4869 13.7516 32.5652ZM23.3714 35.0058L23.407 34.9939C23.5398 34.9417 23.5837 34.8479 23.5386 34.7125C23.4934 34.5771 23.4021 34.5284 23.2645 34.5663L23.2289 34.5782C23.0961 34.6304 23.0522 34.7242 23.0973 34.8596C23.1425 34.995 23.2338 35.0437 23.3714 35.0058Z" fill="black"/>
<path d="M19.1969 34.1982L19.2741 34.2397C19.2857 34.2444 19.2976 34.2484 19.3097 34.2516L19.6007 34.3526C19.6066 34.3547 19.6125 34.3567 19.6185 34.3585L20.147 34.507C20.149 34.507 20.1509 34.507 20.1529 34.507L20.8358 34.6851L21.5484 34.8751C21.5504 34.8751 21.5523 34.8751 21.5543 34.8751L22.1897 35.0414L22.6944 35.178L23.0448 35.2849L23.2229 35.3442L23.2526 35.362C23.4456 35.391 23.5719 35.3125 23.6316 35.1267C23.6912 34.9409 23.6342 34.8036 23.4605 34.7148L23.3714 34.7089L22.7657 34.5782L22.2372 34.4594C22.2352 34.4594 22.2333 34.4594 22.2313 34.4594L21.5543 34.3169C21.5523 34.3169 21.5504 34.3169 21.5484 34.3169L20.7586 34.1685L19.8738 34.0022C19.8738 34.0002 19.8738 33.9983 19.8738 33.9963L18.9059 33.8241L17.8727 33.6103L16.8038 33.3609L15.7231 33.0759L14.6779 32.7968L12.849 32.2742L12.0414 32.0426C12.0414 32.0406 12.0414 32.0387 12.0414 32.0367L11.2694 31.8229L10.5391 31.5557L9.82648 31.2707L9.16734 30.9916L8.56759 30.7362L8.04503 30.4928L7.5581 30.2612L7.1068 30.0296L6.69113 29.8099C6.68918 29.8079 6.6872 29.8059 6.6852 29.8039L6.31109 29.6139C6.30914 29.6119 6.30716 29.6099 6.30515 29.608L5.66977 29.3051L5.40849 29.1745L5.16503 29.0439C5.16305 29.0438 5.16107 29.0438 5.15909 29.0439L4.93938 28.931C4.9335 28.9289 4.92756 28.9269 4.92157 28.9251L4.73748 28.8479L4.59497 28.7826C4.58332 28.7779 4.57145 28.774 4.55934 28.7707L4.45839 28.7469L4.39901 28.7232C4.38736 28.7185 4.37549 28.7146 4.36338 28.7113L4.30994 28.6994C4.35135 28.7354 4.39885 28.7591 4.45245 28.7707L4.4287 28.7529C4.34735 28.6852 4.25495 28.6625 4.1515 28.6846C4.04805 28.7068 3.97306 28.7654 3.92654 28.8604C3.88002 28.9554 3.87974 29.0506 3.92569 29.1459C3.97165 29.2412 4.04629 29.3002 4.14961 29.3229L4.17336 29.3289L4.20899 29.3348L4.26837 29.3526C4.27229 29.3547 4.27625 29.3567 4.28025 29.3586L4.36932 29.3823L4.49402 29.4358L4.66622 29.507L4.88 29.608L5.12346 29.7327C5.12544 29.7327 5.12742 29.7327 5.1294 29.7327L5.39662 29.8633L6.02606 30.1721L6.40016 30.3621L6.81584 30.5818C6.81779 30.5838 6.81977 30.5858 6.82177 30.5878L7.28495 30.8194C7.28693 30.8194 7.28891 30.8194 7.29089 30.8194L7.78375 31.051L8.31225 31.2944L8.912 31.5676C8.91198 31.5695 8.91198 31.5715 8.912 31.5735L9.57114 31.8645C9.57312 31.8645 9.57509 31.8645 9.57707 31.8645L10.2956 32.1614C10.2976 32.1614 10.2995 32.1614 10.3015 32.1614L11.0497 32.4464L11.8098 32.7374C11.8177 32.7396 11.8256 32.7416 11.8336 32.7433L12.6412 32.9868C12.6431 32.9868 12.6451 32.9868 12.6471 32.9868L14.4879 33.4975L15.533 33.7884L16.6257 34.0675C16.6276 34.0695 16.6296 34.0715 16.6316 34.0735L17.7123 34.3169C17.7163 34.319 17.7202 34.321 17.7242 34.3229L18.7753 34.5248L19.7432 34.7029L20.628 34.8692L21.4177 35.0176L22.0888 35.1483L22.6232 35.2552L23.2408 35.3858C23.2525 35.3884 23.2644 35.3904 23.2764 35.3917L23.3833 35.4036C23.5739 35.4276 23.6978 35.3478 23.755 35.1644C23.8122 34.9811 23.7556 34.845 23.5852 34.7564L23.5317 34.7267C23.5108 34.7165 23.489 34.7086 23.4664 34.7029L23.2526 34.6317C23.2507 34.6317 23.2487 34.6317 23.2467 34.6317L22.8845 34.5248L22.3738 34.3823L21.7325 34.1982L21.0199 33.9963C21.0179 33.9963 21.0159 33.9963 21.014 33.9963L20.3311 33.8181C20.3291 33.8161 20.3271 33.8141 20.3251 33.8122L19.7907 33.6875C19.775 33.6844 19.7592 33.6824 19.7432 33.6816L19.4403 33.6519C19.4084 33.6489 19.3767 33.6509 19.3453 33.6578L19.2622 33.6756C19.1334 33.7036 19.0608 33.7829 19.0444 33.9138C19.0281 34.0446 19.0789 34.1394 19.1969 34.1982ZM4.03678 29.2933L4.08429 29.3229C4.09017 29.3251 4.09611 29.3271 4.1021 29.3289L4.22086 29.4001C4.22675 29.4023 4.23269 29.4043 4.23868 29.4061L4.46433 29.5248C4.47015 29.529 4.47609 29.5329 4.48214 29.5367L4.80874 29.6852C4.81266 29.6872 4.81662 29.6892 4.82062 29.6911L5.21847 29.8514C5.22043 29.8534 5.22241 29.8554 5.22441 29.8574L5.66977 30.0355L6.19233 30.2493L6.86334 30.5521L7.75406 30.9678C7.75799 30.9699 7.76195 30.9718 7.76594 30.9738L8.8645 31.4429C8.86846 31.4429 8.87241 31.4429 8.87637 31.4429L10.0818 31.9179C10.0838 31.9199 10.0858 31.9219 10.0878 31.9239L11.2991 32.3752C11.3011 32.3752 11.3031 32.3752 11.3051 32.3752L12.469 32.7849L13.5497 33.1709C13.5556 33.173 13.5615 33.175 13.5675 33.1768L14.5532 33.4737C14.5572 33.4758 14.5611 33.4777 14.5651 33.4797L15.4143 33.7053C15.4202 33.7054 15.4262 33.7054 15.4321 33.7053L16.1209 33.8538C16.1327 33.8563 16.1446 33.8583 16.1565 33.8597L16.7088 33.925L17.1542 33.9844L17.552 34.0438L17.9202 34.115L18.2943 34.1982L18.6921 34.2872C18.6941 34.2872 18.6961 34.2872 18.6981 34.2872L19.1375 34.3763C19.1415 34.3764 19.1454 34.3764 19.1494 34.3763L19.6244 34.4594C19.6284 34.4595 19.6323 34.4595 19.6363 34.4594L20.1351 34.5307L20.622 34.596L21.0852 34.6673C21.0872 34.6673 21.0892 34.6673 21.0911 34.6673L21.5246 34.7267L21.9166 34.792L22.2491 34.8573L22.5222 34.9107L22.736 34.9583C22.738 34.9583 22.74 34.9583 22.742 34.9583L22.9676 35.0058C22.9716 35.0058 22.9755 35.0058 22.9795 35.0058L23.2111 35.0473C23.215 35.0474 23.219 35.0474 23.2229 35.0473L23.4486 35.077C23.4663 35.0804 23.4841 35.0823 23.502 35.083L23.7099 35.077C23.7198 35.0775 23.7297 35.0775 23.7396 35.077L23.9118 35.0592C23.9729 35.0527 24.0263 35.029 24.0721 34.9879L24.0899 34.9701L24.1077 34.9642C24.2423 34.9563 24.3057 34.885 24.2977 34.7504C24.2898 34.6158 24.2186 34.5525 24.084 34.5604H24.0662L24.0483 34.5485C24.0197 34.5267 23.988 34.5108 23.9533 34.501L23.7871 34.4594L23.597 34.4001C23.5912 34.3979 23.5852 34.3959 23.5792 34.3941L23.3536 34.3407C23.3477 34.3386 23.3418 34.3366 23.3358 34.3347L23.1101 34.2932L22.8904 34.2457L22.6707 34.1982C22.6687 34.1982 22.6667 34.1982 22.6648 34.1982L22.3916 34.1447L22.0531 34.0794C22.0492 34.0793 22.0452 34.0793 22.0413 34.0794L21.6375 34.0141C21.6335 34.014 21.6295 34.014 21.6256 34.0141L21.1862 33.9547L20.717 33.8953L20.2301 33.83L19.7432 33.7587L19.2741 33.6756L18.8465 33.5865L18.4487 33.4975L18.0686 33.4143C18.0647 33.4143 18.0607 33.4143 18.0568 33.4143L17.6767 33.3431C17.6748 33.3411 17.6728 33.3391 17.6708 33.3371L17.267 33.2718C17.263 33.2718 17.2591 33.2718 17.2551 33.2718L16.8157 33.2124L16.2931 33.0937L15.6221 32.9215L14.7848 32.6899L13.805 32.393C13.8031 32.393 13.8011 32.393 13.7991 32.393L12.7065 32.0723L11.5545 31.6745L10.355 31.2291L9.1614 30.7422L8.07472 30.2671C8.07474 30.2651 8.07474 30.2632 8.07472 30.2612L7.16025 29.8752L6.47736 29.5842L5.94887 29.3586L5.5035 29.1745L5.11159 29.0082L4.79093 28.8598L4.5534 28.7529C4.54368 28.7485 4.53378 28.7445 4.52371 28.741L4.38713 28.6935C4.38125 28.6914 4.37531 28.6894 4.36932 28.6876L4.30994 28.6698C4.11972 28.6193 3.98513 28.6842 3.90616 28.8644C3.82719 29.0447 3.87073 29.1876 4.03678 29.2933Z" fill="black"/>
<path d="M23.2096 26.7966C23.2096 26.9866 23.3046 27.0816 23.4946 27.0816C23.6846 27.0816 23.7796 26.9866 23.7796 26.7966C23.7796 26.6066 23.6846 26.5116 23.4946 26.5116C23.3046 26.5116 23.2096 26.6066 23.2096 26.7966ZM23.2215 26.9213L23.2393 26.9569C23.2393 26.9589 23.2393 26.9609 23.2393 26.9629L23.2749 27.0401C23.2818 27.0545 23.2897 27.0684 23.2987 27.0816L23.3699 27.1945L23.4649 27.3489C23.4738 27.3635 23.4836 27.3773 23.4946 27.3904L23.6312 27.5508C23.6384 27.5612 23.6464 27.5711 23.6549 27.5805L23.7618 27.6755L23.8093 27.7883C23.8689 27.9038 23.9583 27.9355 24.0773 27.8834C24.1964 27.8313 24.2338 27.7442 24.1894 27.622L24.1419 27.5092L24.1359 27.3607C24.137 27.3367 24.135 27.313 24.13 27.2895L24.0706 27.0876C24.0639 27.0606 24.054 27.0349 24.0409 27.0104L23.9459 26.8501C23.9405 26.8399 23.9345 26.83 23.9281 26.8204L23.845 26.7075C23.8376 26.6972 23.8297 26.6873 23.8212 26.6779L23.7618 26.6125C23.7311 26.5815 23.6954 26.5577 23.6549 26.5413L23.6193 26.5235C23.4936 26.4694 23.3823 26.4907 23.2855 26.5875C23.1887 26.6843 23.1674 26.7956 23.2215 26.9213Z" fill="black"/>
<path d="M23.4175 26.9331C23.4175 27.1153 23.5085 27.2063 23.6906 27.2063C23.8727 27.2063 23.9638 27.1153 23.9638 26.9331C23.9638 26.751 23.8727 26.66 23.6906 26.66C23.5085 26.66 23.4175 26.751 23.4175 26.9331ZM23.3462 26.9569C23.3462 27.052 23.3798 27.1332 23.4471 27.2004C23.5143 27.2677 23.5955 27.3013 23.6906 27.3013C23.7857 27.3013 23.8669 27.2677 23.9342 27.2004C24.0014 27.1332 24.035 27.052 24.035 26.9569C24.035 26.8618 24.0014 26.7806 23.9342 26.7134C23.8669 26.6461 23.7857 26.6125 23.6906 26.6125C23.5955 26.6125 23.5143 26.6461 23.4471 26.7134C23.3798 26.7806 23.3462 26.8618 23.3462 26.9569ZM23.2987 26.8916L23.275 26.9807C23.2511 27.0588 23.2471 27.138 23.2631 27.2182L23.2987 27.4023C23.3001 27.4162 23.3021 27.4301 23.3047 27.4438L23.37 27.6754C23.3895 27.7413 23.4212 27.8006 23.465 27.8536L23.6194 28.0495C23.64 28.0764 23.6638 28.1002 23.6906 28.1208L23.7797 28.1861L23.8094 28.3227C23.849 28.4379 23.9285 28.4832 24.0478 28.4587C24.1672 28.4341 24.2223 28.361 24.2132 28.2395L24.1894 28.1089L24.2488 28.0139C24.2754 27.9718 24.2933 27.9263 24.3023 27.8773L24.3498 27.6338C24.366 27.5562 24.364 27.479 24.3438 27.4023L24.2785 27.1707C24.2734 27.1545 24.2674 27.1387 24.2607 27.1232L24.1894 26.945C24.1579 26.8645 24.1084 26.7972 24.041 26.7431L23.9638 26.6778C23.8464 26.5857 23.7166 26.5624 23.5745 26.6081C23.4324 26.6538 23.3405 26.7483 23.2987 26.8916Z" fill="black"/>
<path d="M23.2214 26.4997C23.2214 26.6818 23.3125 26.7728 23.4946 26.7728C23.6767 26.7728 23.7677 26.6818 23.7677 26.4997C23.7677 26.3176 23.6767 26.2265 23.4946 26.2265C23.3125 26.2265 23.2214 26.3176 23.2214 26.4997ZM23.1977 26.4997C23.1977 26.7055 23.3006 26.8085 23.5065 26.8085C23.7123 26.8085 23.8152 26.7055 23.8152 26.4997C23.8152 26.2938 23.7123 26.1909 23.5065 26.1909C23.3006 26.1909 23.1977 26.2938 23.1977 26.4997ZM23.168 26.3809L23.1502 26.4344C23.112 26.5314 23.1061 26.6304 23.1324 26.7313L23.1799 26.9154C23.1834 26.9274 23.1873 26.9393 23.1917 26.951L23.2867 27.2182C23.2937 27.2365 23.3016 27.2543 23.3105 27.2716L23.4589 27.5864L23.5955 27.8952L23.6846 28.1921C23.6865 28.1961 23.6885 28.2 23.6905 28.2039L23.7796 28.4593C23.7813 28.4673 23.7832 28.4752 23.7855 28.483L23.8449 28.6077L23.839 28.6968C23.8272 28.8353 23.8905 28.9105 24.029 28.9223C24.1675 28.9342 24.2427 28.8709 24.2547 28.7324L24.2606 28.6255L24.3319 28.483C24.3457 28.4508 24.3537 28.4171 24.3556 28.3821L24.3794 28.1149C24.3807 28.0971 24.3807 28.0792 24.3794 28.0614L24.3556 27.7408L24.3437 27.3785C24.3422 27.3666 24.3402 27.3547 24.3378 27.3429L24.2962 26.9866C24.2906 26.9395 24.2787 26.8939 24.2606 26.85L24.1537 26.5888C24.139 26.5466 24.1193 26.507 24.0943 26.47L23.9815 26.3215C23.8814 26.1852 23.7468 26.1199 23.5777 26.1256L23.5183 26.1315C23.347 26.138 23.2302 26.2212 23.168 26.3809Z" fill="black"/>
<path d="M20.1157 28.8809C20.1157 29.0353 20.1929 29.1125 20.3473 29.1125C20.5017 29.1125 20.5789 29.0353 20.5789 28.8809C20.5789 28.7265 20.5017 28.6493 20.3473 28.6493C20.1929 28.6493 20.1157 28.7265 20.1157 28.8809ZM20.1632 29.1006L20.187 29.1184C20.2236 29.1486 20.2652 29.1684 20.3117 29.1778L20.377 29.1956C20.3966 29.1997 20.4164 29.2016 20.4364 29.2016H20.6027C20.6066 29.2017 20.6106 29.2017 20.6145 29.2016L20.8936 29.1897C20.9016 29.19 20.9095 29.19 20.9174 29.1897L21.3034 29.1422C21.3054 29.1422 21.3073 29.1422 21.3093 29.1422L21.7784 29.0769L22.2891 29.0116L22.776 28.9462L23.2036 28.9047C23.2176 28.9037 23.2314 28.9017 23.2451 28.8987L23.5302 28.8215L23.7202 28.8334C23.8587 28.8412 23.9319 28.7759 23.9398 28.6374C23.9477 28.499 23.8824 28.4257 23.744 28.4177L23.5361 28.4059L23.2451 28.3287C23.2177 28.3227 23.19 28.3207 23.162 28.3227L22.7285 28.3405C22.7186 28.3401 22.7087 28.3401 22.6988 28.3405L22.206 28.4059L21.6953 28.4831C21.6933 28.483 21.6913 28.483 21.6894 28.4831L21.2262 28.5603L20.858 28.6078L20.5967 28.6196H20.4602H20.4245L20.4067 28.6137C20.2624 28.5782 20.157 28.627 20.0905 28.7599C20.024 28.8929 20.0483 29.0064 20.1632 29.1006Z" fill="black"/>
<path d="M20.5789 29.1956L20.7214 29.2253C20.7351 29.2282 20.749 29.2302 20.763 29.2313L20.9411 29.2372C20.9471 29.2374 20.953 29.2374 20.959 29.2372L21.2262 29.2313C21.2282 29.2313 21.2301 29.2313 21.2321 29.2313L21.6003 29.2134C21.6023 29.2135 21.6042 29.2135 21.6062 29.2134L22.0516 29.1837C22.0575 29.1839 22.0635 29.1839 22.0694 29.1837L22.5444 29.1303L23.0017 29.0947C23.0239 29.0932 23.0457 29.0893 23.067 29.0828L23.4114 28.9759L23.6786 28.9522C23.8132 28.9403 23.8746 28.867 23.8627 28.7325C23.8508 28.5979 23.7776 28.5365 23.643 28.5484L23.3758 28.5721L23.0136 28.5246C22.9979 28.5213 22.982 28.5193 22.966 28.5187L22.5029 28.5424L22.0278 28.5484L21.5825 28.5602C21.5785 28.5602 21.5745 28.5602 21.5706 28.5602L21.2024 28.5781C21.2004 28.578 21.1985 28.578 21.1965 28.5781L20.9293 28.5959C20.9253 28.5958 20.9213 28.5958 20.9174 28.5959L20.7392 28.6196C20.7333 28.6195 20.7274 28.6195 20.7214 28.6196L20.5789 28.6493C20.431 28.6803 20.3571 28.7714 20.3571 28.9225C20.3571 29.0736 20.431 29.1646 20.5789 29.1956Z" fill="black"/>
<path d="M24.4421 27.2728L24.4539 27.249C24.4635 27.2319 24.4714 27.2141 24.4777 27.1956L24.4955 27.1362C24.5252 27.0398 24.5212 26.9448 24.4836 26.8512L24.4242 26.7027C24.3686 26.5686 24.2756 26.4696 24.1452 26.4058L23.8661 26.2693C23.8278 26.2515 23.7882 26.2377 23.7473 26.2277L23.3554 26.1208C23.295 26.105 23.2337 26.0971 23.1713 26.097L22.6487 26.0911C22.5847 26.0894 22.5213 26.0953 22.4587 26.1089L21.8649 26.2514C21.8117 26.2642 21.7602 26.282 21.7105 26.3049L21.0811 26.5899C21.0377 26.6083 20.9961 26.63 20.9564 26.6552L20.3329 27.0768C20.2883 27.1068 20.2467 27.1404 20.2082 27.1778L19.6025 27.7538C19.5477 27.8074 19.5002 27.8667 19.46 27.9319L18.9849 28.698C18.9389 28.7704 18.9033 28.8476 18.878 28.9295L18.6049 29.844C18.5755 29.9469 18.5636 30.0519 18.5692 30.1587L18.6049 31.1564C18.61 31.2674 18.6337 31.3743 18.6761 31.477L19.074 32.4449C19.1164 32.5505 19.1758 32.6456 19.2521 32.73L20.0241 33.5732C20.1006 33.6586 20.1897 33.7279 20.2913 33.781L21.4017 34.3451C21.4917 34.3901 21.5867 34.4178 21.6868 34.4283L22.9516 34.5767C22.9673 34.5795 22.9832 34.5815 22.9991 34.5827L24.1808 34.6064L25.1249 34.7549C25.2457 34.7554 25.3163 34.6962 25.3367 34.5772C25.3571 34.4582 25.3102 34.3789 25.1962 34.3392L24.2639 34.1907L23.2722 33.6741L22.2865 32.9378L21.378 32.2312L20.7842 31.5661L20.511 30.9129L20.4873 30.2359L20.6773 29.5768L21.0217 28.977L21.4611 28.4723L21.9243 28.0863L22.4053 27.825L22.8744 27.6528L23.3019 27.546L23.6285 27.4984H23.8898C23.9528 27.4986 24.0142 27.4887 24.0739 27.4688L24.1867 27.4272H24.2164C24.1927 27.4246 24.1689 27.4246 24.1452 27.4272H24.1689C24.2929 27.434 24.384 27.3826 24.4421 27.2728Z" fill="black"/>
<path d="M22.1202 34.2382C22.1202 34.4283 22.2152 34.5233 22.4053 34.5233C22.5953 34.5233 22.6903 34.4283 22.6903 34.2382C22.6903 34.0482 22.5953 33.9532 22.4053 33.9532C22.2152 33.9532 22.1202 34.0482 22.1202 34.2382ZM22.1262 34.1373V34.1432C22.0803 34.2584 22.0921 34.3673 22.1618 34.4698L22.2212 34.547C22.2501 34.5893 22.2858 34.625 22.3281 34.6539L22.4765 34.7549C22.5079 34.7769 22.5416 34.7947 22.5775 34.8083L22.8328 34.8914C22.8542 34.8989 22.8759 34.9048 22.8981 34.9093L23.2247 34.9805C23.2346 34.9828 23.2445 34.9848 23.2544 34.9865L23.6463 35.0399C23.67 35.0434 23.6937 35.0454 23.7176 35.0458L24.163 35.0518C24.1948 35.0524 24.2265 35.0504 24.258 35.0458L24.7568 34.9686C24.7911 34.9636 24.8248 34.9557 24.8577 34.9449L25.3922 34.7608C25.4187 34.7507 25.4444 34.7388 25.4694 34.7252L26.0335 34.4461C26.0539 34.4353 26.0737 34.4234 26.0929 34.4105L26.657 34.0423C26.68 34.026 26.7017 34.0081 26.7223 33.9888L27.2627 33.5257C27.2863 33.5036 27.3081 33.4799 27.328 33.4544L27.8209 32.8844C27.8406 32.86 27.8584 32.8342 27.8743 32.8072L28.3019 32.1124C28.3198 32.0859 28.3356 32.0582 28.3494 32.0293L28.6997 31.2157C28.709 31.1924 28.7169 31.1687 28.7235 31.1445L29.0085 30.2062C29.0187 30.1751 29.0266 30.1435 29.0322 30.1112L29.1866 29.0839C29.19 29.0583 29.192 29.0326 29.1926 29.0067L29.2282 27.9497C29.2296 27.924 29.2296 27.8983 29.2282 27.8726L29.1451 26.8037C29.1435 26.7898 29.1415 26.7759 29.1391 26.7621L28.9729 25.6517C28.9712 25.6398 28.9692 25.6279 28.9669 25.6161L28.7353 24.4641C28.7354 24.4601 28.7354 24.4561 28.7353 24.4522L28.48 23.2586C28.4801 23.2547 28.4801 23.2507 28.48 23.2467L28.2009 22.0472C28.201 22.0433 28.201 22.0393 28.2009 22.0354L27.904 20.8358C27.902 20.8339 27.9 20.8319 27.8981 20.8299L27.5833 19.6126C27.5833 19.6106 27.5833 19.6086 27.5833 19.6066L27.2686 18.4012L26.948 17.1423L26.6451 15.8181L26.3898 14.4167L26.2057 12.95L26.1047 11.4476L26.0988 9.9334L26.2057 8.47262L26.4373 7.10684L26.7579 5.87765L27.1974 4.83253L27.714 4.03682L28.2306 3.56177L28.7235 3.38362L29.246 3.41331L29.8398 3.65678L30.3683 4.19715L30.7009 4.83847C30.7642 4.95723 30.8553 4.98494 30.974 4.9216C31.0928 4.85826 31.1205 4.76721 31.0572 4.64845L30.7068 3.98338C30.7048 3.98338 30.7028 3.98338 30.7009 3.98338L30.2971 3.23517C30.2897 3.22479 30.2818 3.21489 30.2733 3.20548L29.7983 2.55822C29.7318 2.47094 29.6467 2.40958 29.5429 2.37414L28.8422 2.1188C28.7109 2.07199 28.5783 2.06803 28.4444 2.10692L27.6902 2.32069C27.5924 2.34857 27.5053 2.39608 27.4289 2.46321L26.7342 3.07484C26.6885 3.11507 26.6489 3.1606 26.6154 3.21142L26.0038 4.11995C25.9808 4.15383 25.9611 4.18946 25.9444 4.22684L25.4456 5.3729C25.4335 5.40387 25.4236 5.43554 25.4159 5.46791L25.0596 6.77431C25.0524 6.79775 25.0465 6.8215 25.0418 6.84556L24.8162 8.2826C24.8133 8.3023 24.8114 8.3221 24.8102 8.34198L24.7093 9.86214C24.7087 9.87798 24.7087 9.89381 24.7093 9.90965L24.7033 11.4714C24.705 11.4833 24.707 11.4952 24.7093 11.507L24.7924 13.0628C24.794 13.0767 24.796 13.0906 24.7983 13.1044L24.9705 14.6067C24.9741 14.6207 24.978 14.6346 24.9824 14.6483L25.2378 16.0913C25.2415 16.1012 25.2455 16.1111 25.2496 16.121L25.5584 17.4689C25.5584 17.4729 25.5584 17.4768 25.5584 17.4808L25.8791 18.7516C25.879 18.7555 25.879 18.7595 25.8791 18.7634L26.2057 19.9748L26.5204 21.1803L26.8114 22.3738L27.0905 23.5615L27.3458 24.7431L27.5715 25.8773L27.7377 26.9462L27.8268 27.9497L27.803 28.9355L27.6902 29.8975L27.5002 30.7704L27.2033 31.4948L26.8292 32.1065L26.4076 32.6112L25.9325 33.0269L25.4337 33.3594L24.9468 33.6147L24.4896 33.7869L24.062 33.8879L23.6701 33.9413L23.3257 33.9592L23.0288 33.9473L22.7794 33.9235C22.7715 33.9213 22.7636 33.9194 22.7556 33.9176L22.5775 33.9057C22.5595 33.9065 22.5417 33.9085 22.524 33.9117L22.4231 33.9176C22.3232 33.9263 22.2421 33.9699 22.1796 34.0482L22.1737 34.0542C22.1534 34.0793 22.1376 34.1071 22.1262 34.1373Z" fill="black"/>
<path d="M28.2247 2.84324C28.2247 2.99763 28.3019 3.07483 28.4563 3.07483C28.6107 3.07483 28.6879 2.99763 28.6879 2.84324C28.6879 2.68885 28.6107 2.61165 28.4563 2.61165C28.3019 2.61165 28.2247 2.68885 28.2247 2.84324ZM28.1772 2.84324C28.1772 3.0293 28.2702 3.12233 28.4563 3.12233C28.6423 3.12233 28.7354 3.0293 28.7354 2.84324C28.7354 2.65718 28.6423 2.56415 28.4563 2.56415C28.2702 2.56415 28.1772 2.65718 28.1772 2.84324ZM28.2603 3.06889L28.2722 3.08077C28.2871 3.09386 28.3029 3.10574 28.3197 3.11639L28.3791 3.15202C28.4285 3.1837 28.4819 3.20547 28.5394 3.21734L28.676 3.24703L28.8601 3.31235L29.0798 3.45487L29.3292 3.73396L29.6142 4.18526C29.6181 4.19127 29.622 4.19721 29.6261 4.20308L29.9764 4.71376C29.9784 4.71376 29.9804 4.71376 29.9824 4.71376L30.2971 5.16506L30.4812 5.58667L30.5465 5.93702C30.585 6.04442 30.6604 6.08791 30.7727 6.0675C30.8849 6.04709 30.9402 5.97984 30.9384 5.86576L30.8672 5.49759L30.8256 5.0166V4.44654C30.8258 4.41045 30.8218 4.37482 30.8137 4.33965L30.6771 3.7399C30.6634 3.68318 30.6416 3.62974 30.6118 3.57957L30.3208 3.07483C30.2961 3.0315 30.2665 2.99191 30.2318 2.95606L29.8814 2.59384C29.8426 2.55401 29.7991 2.52036 29.7508 2.49289L29.4004 2.29693C29.3288 2.25446 29.2516 2.22873 29.1688 2.21973L28.8719 2.19598C28.774 2.18814 28.681 2.20595 28.5928 2.24942L28.4266 2.32662C28.3125 2.38202 28.2334 2.46911 28.189 2.5879L28.1653 2.65322C28.1262 2.75586 28.1301 2.85681 28.1772 2.95606L28.1831 2.96794C28.2022 3.00669 28.2279 3.04034 28.2603 3.06889Z" fill="black"/>
<path d="M25.891 6.56048C25.891 6.72675 25.9741 6.80988 26.1404 6.80988C26.3066 6.80988 26.3898 6.72675 26.3898 6.56048C26.3898 6.39421 26.3066 6.31108 26.1404 6.31108C25.9741 6.31108 25.891 6.39421 25.891 6.56048ZM25.8375 6.56048C25.8375 6.76238 25.9385 6.86332 26.1404 6.86332C26.3423 6.86332 26.4432 6.76238 26.4432 6.56048C26.4432 6.35858 26.3423 6.25763 26.1404 6.25763C25.9385 6.25763 25.8375 6.35858 25.8375 6.56048ZM25.8019 6.56642C25.8019 6.66316 25.8361 6.74574 25.9045 6.81415C25.9729 6.88256 26.0555 6.91677 26.1522 6.91677C26.249 6.91677 26.3316 6.88256 26.4 6.81415C26.4684 6.74574 26.5026 6.66316 26.5026 6.56642C26.5026 6.46967 26.4684 6.38709 26.4 6.31868C26.3316 6.25027 26.249 6.21607 26.1522 6.21607C26.0555 6.21607 25.9729 6.25027 25.9045 6.31868C25.8361 6.38709 25.8019 6.46967 25.8019 6.56642ZM25.986 6.91677L26.0632 6.96427C26.0986 6.98526 26.1362 7.00109 26.176 7.01178L26.3838 7.07116C26.4112 7.07743 26.4389 7.08139 26.467 7.08304L26.8173 7.11866C26.8272 7.11894 26.8371 7.11894 26.847 7.11866L27.3577 7.13648C27.3656 7.13666 27.3735 7.13666 27.3814 7.13648L28.0346 7.13054C28.0545 7.12969 28.0743 7.12771 28.094 7.1246L28.8422 7.02959C28.8482 7.02972 28.8541 7.02972 28.86 7.02959L29.5904 6.89895L30.208 6.85145L30.6771 6.86926C30.8117 6.87322 30.881 6.8079 30.8849 6.6733C30.8889 6.53871 30.8236 6.46943 30.689 6.46547L30.2199 6.44765L29.6023 6.36452L28.8779 6.20419C28.868 6.20185 28.8581 6.19987 28.8482 6.19825L28.1 6.09136C28.0822 6.08847 28.0644 6.08649 28.0465 6.08543L27.3933 6.06761C27.3894 6.06755 27.3854 6.06755 27.3814 6.06761L26.8708 6.06167C26.8589 6.06127 26.847 6.06127 26.8351 6.06167L26.4848 6.08543C26.4589 6.08543 26.4332 6.08741 26.4076 6.09136L26.1997 6.13887C26.169 6.14566 26.1393 6.15556 26.1107 6.16856L26.0216 6.21013C25.8742 6.27682 25.7964 6.39097 25.7882 6.55258C25.7801 6.71418 25.846 6.83558 25.986 6.91677Z" fill="black"/>
<path d="M30.1189 3.71024C30.1189 3.87651 30.2021 3.95964 30.3683 3.95964C30.5346 3.95964 30.6177 3.87651 30.6177 3.71024C30.6177 3.54397 30.5346 3.46084 30.3683 3.46084C30.2021 3.46084 30.1189 3.54397 30.1189 3.71024ZM30.1249 3.63898L30.1189 3.66274C30.1169 3.66665 30.1149 3.67061 30.113 3.67461L30.0952 3.75775C30.0868 3.79901 30.0848 3.84058 30.0892 3.88245L30.1071 4.09622C30.1095 4.11827 30.1134 4.14005 30.1189 4.16154L30.1902 4.47626C30.1902 4.47824 30.1902 4.48022 30.1902 4.4822L30.2733 4.84443L30.3565 5.21853L30.4218 5.56888L30.4693 5.85391C30.4827 5.92529 30.5104 5.99061 30.5524 6.04987L30.6593 6.20426C30.743 6.32394 30.8578 6.38134 31.0037 6.37647H31.0215C30.9849 6.24391 30.8978 6.17859 30.7603 6.18051L30.7781 6.24583C30.8389 6.39055 30.945 6.4418 31.0962 6.3996C31.2474 6.3574 31.3116 6.25864 31.2887 6.10332L31.2709 6.038C31.1095 6.09201 31.0521 6.20088 31.0987 6.3646L31.1165 6.35866C31.2484 6.31638 31.3355 6.22928 31.3778 6.09738L31.4372 5.91923C31.4571 5.85317 31.463 5.78587 31.455 5.71734L31.4253 5.42043C31.4257 5.40855 31.4257 5.39668 31.4253 5.3848L31.36 5.02851C31.3582 5.02054 31.3562 5.01263 31.3541 5.00476L31.2709 4.61878C31.2672 4.61076 31.2632 4.60284 31.2591 4.59503L31.1581 4.22686C31.1549 4.21083 31.151 4.195 31.1462 4.17936L31.0275 3.88245C31.0081 3.83006 30.9804 3.78255 30.9443 3.73993L30.8018 3.5796C30.7323 3.50049 30.6452 3.45497 30.5405 3.44303L30.4574 3.43115C30.3992 3.42561 30.3438 3.4355 30.2911 3.46084L30.2733 3.46678C30.1969 3.50092 30.1474 3.55832 30.1249 3.63898Z" fill="black"/>
<path d="M30.3743 4.50002C30.3743 4.67025 30.4594 4.75536 30.6297 4.75536C30.7999 4.75536 30.885 4.67025 30.885 4.50002C30.885 4.32979 30.7999 4.24468 30.6297 4.24468C30.4594 4.24468 30.3743 4.32979 30.3743 4.50002ZM30.3387 4.52377C30.3387 4.71775 30.4357 4.81474 30.6297 4.81474C30.8236 4.81474 30.9206 4.71775 30.9206 4.52377C30.9206 4.32979 30.8236 4.2328 30.6297 4.2328C30.4357 4.2328 30.3387 4.32979 30.3387 4.52377ZM30.2912 4.47033L30.2437 4.60097C30.2248 4.65686 30.2169 4.71426 30.2199 4.77318L30.2318 4.99883C30.2335 5.00878 30.2355 5.01868 30.2377 5.02852L30.2674 5.31355L30.2912 5.59264L30.3149 5.83611L30.3268 6.01425L30.3327 6.13895C30.3347 6.14095 30.3367 6.14293 30.3387 6.14489V6.18052V6.19239C30.3513 6.15375 30.3592 6.11416 30.3624 6.07363L30.3506 6.10926C30.3978 6.05907 30.4334 6.00167 30.4574 5.93705L30.4337 5.96081C30.4569 5.9448 30.4787 5.92698 30.499 5.90736L30.4753 5.92518C30.5632 5.91221 30.6424 5.87856 30.7128 5.82423L30.6831 5.83017H30.6712L30.6237 5.83611C30.6158 5.83593 30.6079 5.83593 30.6 5.83611L30.5168 5.84204C30.5109 5.84391 30.5049 5.84589 30.499 5.84798L30.3981 5.8658C30.1203 5.9093 29.9815 6.07161 29.9815 6.35272C29.9815 6.63384 30.1203 6.79614 30.3981 6.83965L30.499 6.85747C30.5305 6.86241 30.5622 6.86439 30.594 6.86341H30.6772C30.6931 6.86216 30.7089 6.86018 30.7247 6.85747L30.784 6.85153C30.796 6.84997 30.8079 6.84799 30.8197 6.84559L30.8553 6.83371C30.8653 6.83203 30.8752 6.83005 30.885 6.82778L30.9087 6.82184C30.9736 6.80577 31.0329 6.77806 31.0869 6.7387L31.1106 6.72089C31.1272 6.70994 31.143 6.69806 31.1581 6.68526L31.1819 6.66151C31.2475 6.59846 31.2931 6.52324 31.3185 6.43586L31.3304 6.40023C31.3393 6.36912 31.3452 6.33745 31.3482 6.30522L31.3541 6.25178C31.359 6.22029 31.361 6.18862 31.36 6.15677L31.3541 6.08551L31.3482 5.96081L31.3363 5.77079C31.3365 5.76287 31.3365 5.75495 31.3363 5.74703L31.3125 5.49763C31.3126 5.49367 31.3126 5.48971 31.3125 5.48575L31.2769 5.20072C31.2752 5.19077 31.2732 5.18087 31.271 5.17103L31.2235 4.886C31.2164 4.85538 31.2065 4.82568 31.1938 4.79693L31.1166 4.58316C31.0968 4.53277 31.0691 4.48725 31.0334 4.44658L30.9444 4.34563C30.8993 4.29433 30.8444 4.25759 30.7798 4.23543C30.7151 4.21326 30.6493 4.20858 30.5822 4.2214C30.515 4.23421 30.4555 4.26282 30.4036 4.30723C30.3517 4.35165 30.3142 4.40601 30.2912 4.47033ZM30.3802 6.13895H30.2971C30.1506 6.13895 30.0774 6.21219 30.0774 6.35866C30.0774 6.50514 30.1506 6.57837 30.2971 6.57837H30.3802C30.5267 6.57837 30.6 6.50514 30.6 6.35866C30.6 6.21219 30.5267 6.13895 30.3802 6.13895Z" fill="black"/>
</g>
<defs>
<clipPath id="clip0_1_7367">
<rect width="32" height="36" fill="white"/>
</clipPath>
</defs>
</svg>
