<svg width="40" height="38" viewBox="0 0 40 38" fill="none" xmlns="http://www.w3.org/2000/svg">
<g clip-path="url(#clip0_1_7223)">
<path d="M19.1887 15.2099C19.1888 15.3036 19.2219 15.3835 19.2882 15.4498C19.3545 15.516 19.4344 15.5491 19.5281 15.5491C19.6218 15.5491 19.7018 15.516 19.7681 15.4498C19.8343 15.3835 19.8675 15.3036 19.8676 15.2099C19.8675 15.1162 19.8343 15.0362 19.7681 14.97C19.7018 14.9037 19.6218 14.8706 19.5281 14.8706C19.4344 14.8706 19.3545 14.9037 19.2882 14.97C19.2219 15.0362 19.1888 15.1162 19.1887 15.2099ZM19.0326 15.1963C19.0326 15.3331 19.081 15.4499 19.1777 15.5467C19.2745 15.6435 19.3913 15.6918 19.5281 15.6918C19.665 15.6918 19.7818 15.6435 19.8785 15.5467C19.9753 15.4499 20.0237 15.3331 20.0237 15.1963C20.0237 15.0595 19.9753 14.9427 19.8785 14.8459C19.7818 14.7491 19.665 14.7008 19.5281 14.7008C19.3913 14.7008 19.2745 14.7491 19.1777 14.8459C19.081 14.9427 19.0326 15.0595 19.0326 15.1963ZM18.829 15.2574L18.7339 15.7054C18.7275 15.7368 18.7229 15.7685 18.7203 15.8005L18.6592 16.5811C18.659 16.5924 18.659 16.6037 18.6592 16.615L18.6253 17.6197L18.5914 18.7194C18.5914 18.7217 18.5914 18.7239 18.5914 18.7262L18.5642 19.7376C18.5642 19.7399 18.5642 19.7422 18.5642 19.7444L18.5506 20.5658L18.5235 21.1632C18.5235 21.1654 18.5235 21.1677 18.5235 21.1699L18.5099 21.5161L18.5031 21.618C18.5469 21.8051 18.6457 21.9565 18.7993 22.072C18.953 22.1874 19.1259 22.2402 19.3178 22.2301C19.5098 22.2201 19.6762 22.1497 19.817 22.0189C19.9579 21.888 20.0403 21.7272 20.0644 21.5365L20.0576 21.4822L20.0305 21.2107L20.0237 20.6744V19.9345L20.044 19.0724L20.0848 18.1424L20.1662 16.3503C20.1662 16.348 20.1662 16.3458 20.1662 16.3435L20.1866 15.6172L20.2138 15.0537C20.2138 15.0515 20.2138 15.0492 20.2138 15.047L20.2273 14.6804L20.2341 14.5107C20.2377 14.3325 20.1859 14.1721 20.0787 14.0297C19.9716 13.8873 19.8318 13.7931 19.6596 13.7472C19.4873 13.7014 19.3193 13.7135 19.1555 13.7838C18.9916 13.854 18.867 13.9674 18.7814 14.1238L18.7543 14.1645C18.7212 14.2336 18.6985 14.306 18.6864 14.3817L18.6321 14.6804C18.6294 14.6962 18.6271 14.712 18.6253 14.7279L18.5506 15.3253C18.5479 15.3411 18.5457 15.3569 18.5438 15.3728L18.4081 17.4704C18.408 17.4749 18.408 17.4794 18.4081 17.4839L18.3402 18.7669C18.3402 18.7692 18.3402 18.7714 18.3402 18.7737L18.2248 21.6926C18.2248 21.6949 18.2248 21.6972 18.2248 21.6994L18.2044 22.1203L18.1909 22.3104C18.322 22.3548 18.4562 22.3682 18.5934 22.3504C18.7307 22.3327 18.8571 22.2856 18.9726 22.2093C19.0881 22.133 19.1809 22.0351 19.251 21.9158C19.3212 21.7964 19.3615 21.6678 19.372 21.5297H19.3516C19.3824 21.9067 19.577 22.1556 19.9354 22.2764L19.9151 22.066L19.949 21.6315L20.0169 20.9324C20.0193 20.9233 20.0216 20.9143 20.0237 20.9052L20.0848 19.9684C20.0849 19.9616 20.0849 19.9549 20.0848 19.9481L20.1391 18.8552C20.1391 18.8529 20.1391 18.8506 20.1391 18.8484L20.173 17.7079C20.173 17.7057 20.173 17.7034 20.173 17.7012L20.207 16.6015C20.207 16.5992 20.207 16.5969 20.207 16.5947L20.2138 15.6307C20.2138 15.6285 20.2138 15.6262 20.2138 15.624L20.2205 14.884C20.2205 14.8818 20.2205 14.8795 20.2205 14.8773V14.3885L20.2341 14.1238C20.218 14.1838 20.209 14.2449 20.207 14.307L20.2205 14.2392C20.2745 14.0267 20.2489 13.8244 20.1435 13.6322C20.0382 13.4399 19.8814 13.3094 19.6733 13.2407C19.4652 13.1719 19.2616 13.1833 19.0624 13.2749C18.8633 13.3665 18.7221 13.5137 18.6389 13.7165L18.5914 13.8386C18.5603 13.9219 18.5422 14.0079 18.5371 14.0966L18.4556 15.2099C18.4551 15.228 18.4551 15.2461 18.4556 15.2642L18.442 16.2756C18.442 16.2779 18.442 16.2802 18.442 16.2824L18.4352 17.4636L18.4284 18.6787L18.4149 19.7784C18.4146 19.7919 18.4146 19.8055 18.4149 19.8191L18.442 20.6812C18.445 20.7791 18.4631 20.8741 18.4963 20.9663L18.6728 21.4483C18.79 21.76 19.0151 21.9183 19.3481 21.9233C19.6811 21.9283 19.9108 21.7767 20.0373 21.4686L20.2273 20.9867C20.2615 20.8993 20.2819 20.8088 20.2884 20.7151L20.3427 19.853C20.3431 19.8372 20.3431 19.8214 20.3427 19.8055L20.3563 18.699C20.3563 18.6968 20.3563 18.6945 20.3563 18.6922L20.3631 17.4771L20.3699 16.296C20.3699 16.2937 20.3699 16.2915 20.3699 16.2892V15.2778C20.3704 15.2597 20.3704 15.2416 20.3699 15.2235L20.302 14.1034C20.2976 14.0123 20.2795 13.9241 20.2477 13.8386L20.2002 13.7165C20.1083 13.5048 19.955 13.3565 19.7403 13.2718C19.5256 13.187 19.3124 13.1906 19.1006 13.2824C18.8889 13.3742 18.7406 13.5274 18.6557 13.7421C18.5709 13.9567 18.5743 14.1699 18.666 14.3817L18.7 14.4428C18.695 14.3308 18.6678 14.2245 18.6185 14.1238L18.6321 14.3885V14.8773C18.6321 14.8795 18.6321 14.8818 18.6321 14.884L18.6389 15.6104L18.6185 16.5675L18.5982 17.6604L18.5642 18.7873L18.5099 19.8598L18.442 20.7762L18.3606 21.4618L18.2995 21.8963L18.2384 22.1135C18.3677 22.0017 18.4559 21.8637 18.5031 21.6994L18.4895 21.7062C18.4408 22.1139 18.598 22.4135 18.9612 22.6051C19.3243 22.7967 19.6604 22.7573 19.9694 22.4869L19.9897 22.2832C19.9922 22.272 19.9945 22.2606 19.9965 22.2493L20.0305 21.808C20.0307 21.7967 20.0307 21.7854 20.0305 21.7741L20.173 18.8552L20.2273 17.5722L20.3224 15.4746C20.3232 15.452 20.3232 15.4294 20.3224 15.4067L20.302 14.8026C20.3011 14.7753 20.2988 14.7482 20.2952 14.7211L20.2545 14.4224C20.2443 14.3322 20.2195 14.2462 20.1798 14.1645L20.1527 14.1238C20.0713 13.9679 19.9508 13.8531 19.7912 13.7793C19.6316 13.7056 19.4661 13.6883 19.2947 13.7273C19.1232 13.7664 18.9816 13.8537 18.8697 13.9894C18.7578 14.125 18.699 14.2807 18.6932 14.4564V14.6261L18.6796 14.9927C18.6796 14.9949 18.6796 14.9972 18.6796 14.9994L18.666 15.5629L18.6321 16.2892L18.5642 18.0745C18.5642 18.079 18.5642 18.0836 18.5642 18.0881L18.5371 19.0249C18.537 19.0271 18.537 19.0294 18.5371 19.0317L18.5167 19.9141C18.5167 19.9186 18.5167 19.9232 18.5167 19.9277V20.6744L18.5099 21.2446L18.5031 21.5637L18.4963 21.6383C18.4663 21.8558 18.5176 22.052 18.6502 22.2269C18.7827 22.4019 18.9577 22.5044 19.1752 22.5344C19.3926 22.5644 19.5888 22.5131 19.7638 22.3806C19.9387 22.248 20.0412 22.073 20.0712 21.8556L20.0984 21.7198C20.1022 21.6905 20.1045 21.6611 20.1051 21.6315L20.1391 21.2582C20.1392 21.2514 20.1392 21.2446 20.1391 21.2378L20.1662 20.6337C20.1663 20.6292 20.1663 20.6246 20.1662 20.6201L20.1934 19.7851L20.2205 18.7737L20.2545 17.674L20.2884 16.6693C20.2885 16.6626 20.2885 16.6558 20.2884 16.649L20.2952 15.8683C20.2971 15.8367 20.2971 15.805 20.2952 15.7733L20.2409 15.3185C20.2157 15.1478 20.1391 15.0047 20.0109 14.8892C19.8828 14.7736 19.7325 14.7121 19.5602 14.7047C19.3878 14.6972 19.2328 14.7455 19.0952 14.8495C18.9575 14.9536 18.8688 15.0895 18.829 15.2574ZM19.6096 21.5772L19.6435 21.5365C19.7703 21.3826 19.7567 21.2424 19.6028 21.1156C19.4489 20.9889 19.3087 21.0025 19.1819 21.1564L19.148 21.1971C19.0214 21.351 19.035 21.4912 19.1888 21.6179C19.3426 21.7445 19.4829 21.731 19.6096 21.5772Z" fill="black"/>
<path d="M16.6228 18.2374C16.6228 18.3611 16.6665 18.4667 16.754 18.5542C16.8415 18.6417 16.9471 18.6854 17.0708 18.6854C17.1945 18.6854 17.3001 18.6417 17.3876 18.5542C17.4751 18.4667 17.5188 18.3611 17.5188 18.2374C17.5188 18.1137 17.4751 18.0081 17.3876 17.9206C17.3001 17.8331 17.1945 17.7894 17.0708 17.7894C16.9471 17.7894 16.8415 17.8331 16.754 17.9206C16.6665 18.0081 16.6228 18.1137 16.6228 18.2374ZM17.4713 18.0202L17.4102 17.898C17.3193 17.7182 17.1847 17.5816 17.0064 17.488C16.828 17.3945 16.639 17.3614 16.4395 17.3889L16.2087 17.4228C16.0939 17.4371 15.9853 17.471 15.8828 17.5247L15.7878 17.579C15.6358 17.661 15.5144 17.7755 15.4235 17.9224C15.3326 18.0693 15.2844 18.2291 15.2788 18.4017C15.2732 18.5743 15.311 18.7369 15.3922 18.8894C15.4734 19.0418 15.5871 19.1639 15.7335 19.2557L15.8557 19.3303C15.9641 19.4009 16.0817 19.4484 16.2087 19.4729L16.6024 19.534C16.6539 19.5449 16.706 19.5516 16.7585 19.5543L17.417 19.5611C17.4351 19.5616 17.4532 19.5616 17.4713 19.5611L18.3062 19.5272C18.3176 19.5274 18.3289 19.5274 18.3402 19.5272L19.2159 19.4593C19.2181 19.4593 19.2204 19.4593 19.2227 19.4593L20.044 19.3914C20.0531 19.3893 20.0622 19.387 20.0712 19.3846L20.7636 19.31C20.7681 19.31 20.7726 19.31 20.7772 19.31L21.2999 19.2421C21.3226 19.2406 21.3452 19.2383 21.3677 19.2353L21.6936 19.1742C21.7095 19.1701 21.7254 19.1656 21.7411 19.1606L21.8633 19.1335C22.0734 19.0814 22.2456 18.9705 22.3799 18.8008C22.5142 18.6311 22.5826 18.438 22.585 18.2215C22.5874 18.0051 22.5233 17.8106 22.3928 17.6379C22.2622 17.4652 22.0925 17.3506 21.8837 17.2939L21.8293 17.2803C21.7913 17.2711 21.7528 17.2643 21.7139 17.2599L21.4899 17.226C21.4787 17.2235 21.4673 17.2212 21.456 17.2192L21.0759 17.1852C21.0713 17.1852 21.0668 17.1852 21.0623 17.1852L20.5396 17.1377C20.5305 17.1376 20.5215 17.1376 20.5124 17.1377L19.8472 17.1038C19.8337 17.1012 19.8201 17.099 19.8065 17.097L18.9851 17.0902C18.9805 17.0902 18.976 17.0902 18.9715 17.0902H18.123C18.1184 17.0902 18.1139 17.0902 18.1094 17.0902L17.3423 17.097C17.3378 17.097 17.3333 17.097 17.3287 17.097L16.7314 17.1106L16.3648 17.1241L16.2426 17.1174C15.9809 17.0991 15.7463 17.1702 15.5389 17.3309C15.3315 17.4915 15.2039 17.7008 15.1561 17.9588C15.1084 18.2167 15.1525 18.4579 15.2887 18.6821C15.4248 18.9064 15.6184 19.0568 15.8693 19.1335L16.0118 19.1742C16.1 19.2042 16.1905 19.2223 16.2834 19.2285L16.7382 19.2557C16.7608 19.2564 16.7834 19.2564 16.806 19.2557H17.5256L18.4352 19.2692C18.4443 19.2693 18.4533 19.2693 18.4624 19.2692L19.4399 19.2557C19.4444 19.2557 19.4489 19.2557 19.4535 19.2557L20.4106 19.2353L21.2252 19.2149C21.2275 19.2149 21.2297 19.2149 21.232 19.2149L21.8293 19.1946L22.1688 19.2013L22.3385 19.2217C22.1793 19.0859 21.996 19.0045 21.7886 18.9773L21.8497 19.0316C21.9993 18.947 22.1208 18.8325 22.2142 18.6883C22.3077 18.5441 22.3626 18.3865 22.3788 18.2154C22.395 18.0443 22.3708 17.8792 22.3061 17.72C22.2414 17.5607 22.1436 17.4255 22.0126 17.3142L21.9312 17.3617C22.024 17.3398 22.1123 17.3059 22.1959 17.2599L22.0398 17.2939L21.7683 17.3346L21.3067 17.3753L20.7093 17.4025L20.0169 17.3889L19.2498 17.3482L18.4827 17.3006C18.4782 17.3006 18.4737 17.3006 18.4692 17.3006L17.77 17.2735C17.7655 17.2735 17.7609 17.2735 17.7564 17.2735L17.2066 17.2531C17.1862 17.2525 17.1658 17.2525 17.1455 17.2531L16.7721 17.2599C16.7676 17.2599 16.7631 17.2599 16.7585 17.2599L16.6431 17.2667C16.3555 17.2912 16.1187 17.4138 15.9326 17.6345C15.7465 17.8551 15.6656 18.1093 15.69 18.3969C15.7144 18.6845 15.8368 18.9214 16.0574 19.1076C16.2779 19.2939 16.532 19.3749 16.8196 19.3507L17.5935 19.2489C17.6163 19.2451 17.6389 19.2406 17.6614 19.2353L18.4692 19.0792C18.5154 19.0689 18.5607 19.0553 18.6049 19.0384L19.4603 18.7397L20.3291 18.5429C20.336 18.5408 20.3428 18.5385 20.3495 18.5361L21.0555 18.3257L21.6121 18.3189C21.8022 18.3189 21.8972 18.2238 21.8972 18.0338C21.8972 17.8437 21.8022 17.7487 21.6121 17.7487L21.0487 17.7555L20.3291 17.5857C20.3202 17.5832 20.3111 17.581 20.302 17.579L19.4127 17.4093L18.5167 17.192C18.4409 17.1736 18.3639 17.1646 18.2859 17.1649H17.4577C17.4123 17.1642 17.3671 17.1665 17.322 17.1717L16.5481 17.2735C16.2604 17.3035 16.0254 17.4308 15.8431 17.6555C15.6609 17.8802 15.5847 18.1364 15.6147 18.4241C15.6447 18.7118 15.772 18.9468 15.9967 19.1291C16.2214 19.3113 16.4776 19.3875 16.7653 19.3575L16.8671 19.3439L17.1998 19.3303L17.7225 19.3235L18.3877 19.3371L19.148 19.3711L19.9286 19.4118C19.9377 19.4119 19.9467 19.4119 19.9558 19.4118L20.7025 19.4254C20.7138 19.4256 20.7251 19.4256 20.7364 19.4254L21.3949 19.4118C21.4017 19.4119 21.4085 19.4119 21.4153 19.4118L21.9176 19.3914C21.9289 19.3916 21.9402 19.3916 21.9515 19.3914L22.2977 19.3711C22.348 19.3679 22.3978 19.3611 22.4471 19.3507L22.6575 19.3032C22.75 19.2834 22.8383 19.2517 22.9223 19.2081L23.0105 19.1606C23.1518 19.0868 23.2702 18.9861 23.3657 18.8586C23.4612 18.731 23.5245 18.589 23.5555 18.4327C23.5865 18.2763 23.5822 18.1209 23.5426 17.9666C23.503 17.8122 23.432 17.6739 23.3295 17.5518L23.2752 17.4907C23.1254 17.3136 22.9376 17.1982 22.7118 17.1445L22.4946 17.097C22.4276 17.0814 22.3597 17.0723 22.2909 17.0698L21.8701 17.0495C21.852 17.049 21.8339 17.049 21.8158 17.0495L21.1845 17.0563C21.1822 17.0563 21.1799 17.0563 21.1777 17.0563L20.3631 17.0766L19.4127 17.097H18.4488H17.5392C17.5369 17.097 17.5347 17.097 17.5324 17.097H16.806H16.3444C16.2968 17.0961 16.2493 17.0983 16.2019 17.1038L16.0526 17.1241C15.7742 17.1851 15.5581 17.3355 15.4044 17.5754C15.2506 17.8153 15.2042 18.0745 15.2651 18.3528C15.326 18.6312 15.4765 18.8472 15.7164 19.001C15.9563 19.1548 16.2154 19.2012 16.4938 19.1403L16.5413 19.1267L16.8332 19.0995L17.4102 19.0656L18.1501 19.0316L18.9783 19.0181L19.7725 19.0249L20.4038 19.052L20.9061 19.0859L21.2727 19.1199L21.4899 19.1403C21.4496 19.1308 21.4089 19.124 21.3677 19.1199L21.4221 19.1335C21.6437 19.094 21.828 18.9891 21.975 18.8187C22.1221 18.6483 22.1989 18.4505 22.2054 18.2256C22.212 18.0006 22.1469 17.7987 22.01 17.62C21.8732 17.4413 21.6953 17.3258 21.4764 17.2735L21.4017 17.2871L21.1302 17.3074L20.5939 17.3346C20.5871 17.3368 20.5803 17.339 20.5735 17.3414L19.8811 17.3957L19.0665 17.4636L18.2112 17.5179L17.4102 17.5518H16.8264L16.5888 17.5247L16.5617 17.5111C16.2762 17.7568 16.1699 18.0645 16.2426 18.4341C16.3153 18.8036 16.5303 19.0481 16.8875 19.1674L16.969 19.0927C16.829 19.1323 16.7046 19.2001 16.5956 19.2964L16.8196 19.2353C17.228 19.1222 17.4566 18.8552 17.5052 18.4343L17.5188 18.3053C17.532 18.2054 17.5161 18.1104 17.4713 18.0202Z" fill="black"/>
<path d="M30.2557 35.4222C30.2557 35.6394 30.3643 35.748 30.5815 35.748C30.7987 35.748 30.9073 35.6394 30.9073 35.4222C30.9073 35.2049 30.7987 35.0963 30.5815 35.0963C30.3643 35.0963 30.2557 35.2049 30.2557 35.4222ZM30.052 35.4086C30.052 35.5529 30.103 35.6761 30.2051 35.7782C30.3072 35.8803 30.4304 35.9313 30.5747 35.9313C30.719 35.9313 30.8422 35.8803 30.9443 35.7782C31.0464 35.6761 31.0974 35.5529 31.0974 35.4086C31.0974 35.2643 31.0464 35.1411 30.9443 35.039C30.8422 34.9369 30.719 34.8859 30.5747 34.8859C30.4304 34.8859 30.3072 34.9369 30.2051 35.039C30.103 35.1411 30.052 35.2643 30.052 35.4086ZM29.9027 35.395C29.9027 35.5768 29.967 35.732 30.0955 35.8606C30.2241 35.9892 30.3793 36.0535 30.5611 36.0535C30.743 36.0535 30.8982 35.9892 31.0267 35.8606C31.1553 35.732 31.2196 35.5768 31.2196 35.395C31.2196 35.2132 31.1553 35.058 31.0267 34.9294C30.8982 34.8008 30.743 34.7366 30.5611 34.7366C30.3793 34.7366 30.2241 34.8008 30.0955 34.9294C29.967 35.058 29.9027 35.2132 29.9027 35.395ZM29.8348 35.6462L29.8619 35.7276C29.9305 35.9337 30.0595 36.0898 30.2489 36.196L30.4729 36.325C30.5312 36.3567 30.5923 36.3816 30.6562 36.3997L31.0635 36.5219C31.108 36.5343 31.1533 36.5434 31.1992 36.549L31.7627 36.6305C31.7784 36.6331 31.7943 36.6354 31.8102 36.6373L32.4958 36.6984L33.2018 36.7594L33.8874 36.8341C33.8896 36.8341 33.8919 36.8341 33.8942 36.8341L34.4983 36.8952L34.9531 36.9427L35.245 36.997L35.4555 37.0378C35.4846 37.0438 35.514 37.0484 35.5437 37.0513L35.6727 37.0649C35.8212 37.0799 35.9638 37.0573 36.1003 36.997L36.1614 36.9699C36.508 36.8152 36.6755 36.5482 36.6638 36.1689V36.1281C36.6521 35.8109 36.5073 35.5756 36.2293 35.4222L36.1818 35.395C36.1619 35.3828 36.1416 35.3715 36.1207 35.3611L36.046 35.3339C36.013 35.318 35.9791 35.3045 35.9442 35.2932L35.8627 35.2728C35.8272 35.2612 35.791 35.2522 35.7541 35.2457L35.6591 35.2321C35.605 35.2243 35.5507 35.222 35.4962 35.2253L35.4079 35.2321C35.5193 35.2761 35.6347 35.2942 35.7541 35.2864L35.6727 35.2525C35.761 35.4406 35.9013 35.5741 36.0935 35.653V35.6394L36.08 35.5308L36.0868 35.1099L36.1071 34.4854L36.1479 33.7319L36.2022 32.8834L36.2768 32.0484L36.3447 31.2881L36.4262 30.65L36.4737 30.1952L36.5144 29.9373L36.5484 29.8287C36.4592 29.9292 36.3981 30.0446 36.3651 30.1749L36.399 30.1341C36.234 29.9446 36.0258 29.8499 35.7745 29.8499C35.5232 29.8499 35.315 29.9446 35.15 30.1341L35.1839 30.1749C35.1645 30.0052 35.0989 29.8559 34.9871 29.7268L34.9939 29.7811L34.9667 30.0662C34.9667 30.0708 34.9667 30.0753 34.9667 30.0798L34.926 30.7586C34.926 30.7609 34.926 30.7632 34.926 30.7654L34.8785 31.7362L34.8241 32.8562L34.7698 33.9355L34.7223 34.818C34.7222 34.8248 34.7222 34.8316 34.7223 34.8384L34.702 35.429L34.6816 35.7141C34.974 35.5596 35.1324 35.3175 35.1568 34.9877L35.1432 34.9945C35.1462 35.1503 35.187 35.2954 35.2656 35.4298C35.3443 35.5643 35.4508 35.671 35.5851 35.7499C35.7194 35.8289 35.8645 35.87 36.0202 35.8732C36.176 35.8765 36.3226 35.8416 36.4601 35.7684L36.4533 35.4833L36.4601 34.9266L36.528 34.0917L36.6298 33.0734C36.6298 33.0712 36.6298 33.0689 36.6298 33.0666L36.7181 32.0416L36.8063 31.1524L36.8878 30.4464L36.9692 29.9441L37.0371 29.6522L37.0846 29.53C37.1153 29.3152 37.0703 29.1177 36.9495 28.9375C36.8287 28.7572 36.6632 28.6405 36.4529 28.5873C36.2425 28.534 36.0414 28.558 35.8494 28.659C35.6574 28.7601 35.5238 28.9124 35.4487 29.1159V29.143C35.4455 29.1656 35.4433 29.1882 35.4419 29.2109L35.4283 29.5096C35.4282 29.5164 35.4282 29.5232 35.4283 29.53L35.4147 30.1409C35.4147 30.1454 35.4147 30.15 35.4147 30.1545V31.0098L35.3808 32.0484L35.3468 33.1685L35.2925 34.2546L35.2179 35.1778L35.1568 35.8973C35.1567 35.9019 35.1567 35.9064 35.1568 35.9109L35.1228 36.3589C35.1147 36.4623 35.1238 36.5641 35.15 36.6644L35.1907 36.807C35.2527 37.0373 35.3871 37.2121 35.5938 37.3312C35.8005 37.4504 36.0191 37.479 36.2495 37.4172C36.4799 37.3554 36.6548 37.2212 36.7741 37.0146C36.8934 36.808 36.9222 36.5894 36.8606 36.3589V36.3454V36.0603L36.881 35.4018L36.9149 34.5533C36.915 34.5487 36.915 34.5442 36.9149 34.5397L36.9421 33.6029C36.9429 33.5826 36.9429 33.5622 36.9421 33.5418L36.8946 32.6322L36.8742 31.8312L36.8538 31.2067C36.8543 31.1931 36.8543 31.1795 36.8538 31.1659L36.8131 30.7247C36.809 30.6902 36.8022 30.6563 36.7927 30.6229L36.7316 30.3717C36.711 30.2931 36.677 30.2207 36.6298 30.1545L36.5755 30.073C36.5136 29.984 36.4352 29.9131 36.3404 29.8606C36.2455 29.808 36.144 29.779 36.0356 29.7737C35.9273 29.7684 35.8234 29.7872 35.7238 29.8303C35.6243 29.8733 35.5393 29.9362 35.469 30.0187L35.3197 30.1884C35.2509 30.2685 35.2011 30.359 35.1703 30.46L35.0142 30.9691C35.0037 30.9957 34.9946 31.0229 34.9871 31.0505L34.8445 31.8244C34.8422 31.8312 34.8399 31.8379 34.8377 31.8448L34.6884 32.7612C34.686 32.7702 34.6837 32.7792 34.6816 32.7883L34.573 33.698L34.4712 34.4582L34.3965 35.0081L34.349 35.3339L34.3082 35.4833V35.49C34.4066 35.4402 34.4903 35.3723 34.5594 35.2864L34.4779 35.3271C34.619 35.3369 34.7525 35.3097 34.8785 35.2457L34.8106 35.2389L34.668 35.2117C34.6545 35.2091 34.6409 35.2068 34.6273 35.2049L34.3218 35.1642C34.2903 35.16 34.2586 35.1577 34.2268 35.1574L33.7584 35.1506C33.7471 35.1504 33.7358 35.1504 33.7245 35.1506L33.1475 35.1778C33.1407 35.1777 33.1339 35.1777 33.1271 35.1778L32.5094 35.2117C32.498 35.2137 32.4867 35.216 32.4754 35.2185L31.8848 35.2796C31.8757 35.2817 31.8667 35.284 31.8577 35.2864L31.3282 35.3611C31.3259 35.3611 31.3237 35.3611 31.3214 35.3611L30.9073 35.429L30.6562 35.4561L30.4932 35.4425L30.3032 35.4018L30.0995 35.3611C30.0593 35.351 30.0186 35.3442 29.9773 35.3407L29.8076 35.3339C29.7576 35.3314 29.7079 35.3336 29.6583 35.3407L29.5565 35.3543L29.4954 35.3611C29.5517 35.3694 29.6083 35.3717 29.6651 35.3679L29.6311 35.3611H29.6244C29.557 35.4754 29.5195 35.5988 29.5119 35.7312C29.5043 35.8637 29.5274 35.9906 29.5813 36.1118C29.6352 36.2331 29.7139 36.3353 29.8173 36.4184C29.9207 36.5015 30.0374 36.5564 30.1674 36.583L30.1742 36.5762C29.892 36.5972 29.677 36.7285 29.5293 36.9699H29.5633L29.7669 36.9767C29.7895 36.9775 29.8122 36.9775 29.8348 36.9767L30.276 36.9563L30.9209 36.9427H31.7016L32.5094 36.9699L33.2764 37.0174L33.9349 37.0717L34.4169 37.126L34.7766 37.2075C34.7811 37.2098 34.7857 37.212 34.7902 37.2143L35.0549 37.2686C35.073 37.2715 35.0911 37.2738 35.1093 37.2754L35.2518 37.2957C35.3013 37.3034 35.3511 37.3057 35.4011 37.3025L35.4622 37.2957C35.766 37.2653 35.9607 37.1036 36.0463 36.8106C36.1319 36.5176 36.0549 36.2765 35.8152 36.0874L35.8084 36.0806C35.7061 36.0021 35.5907 35.9569 35.4622 35.9449L35.3876 35.9381C35.2422 35.9232 35.1064 35.9526 34.9803 36.0263L34.9192 36.067L34.8445 36.101L34.6612 36.1349L34.2675 36.1621L33.6905 36.1892H33.0049L32.2718 36.1621L31.5929 36.101L31.0295 35.9992L30.6087 35.8838L30.3235 35.7887C30.409 35.8657 30.5063 35.9223 30.6154 35.9584L30.5204 35.877C30.404 35.943 30.309 36.032 30.2354 36.1437C30.1617 36.2555 30.1175 36.3779 30.1027 36.5109C30.0879 36.6439 30.1042 36.773 30.1515 36.8982C30.1988 37.0234 30.272 37.131 30.3711 37.2211L30.4322 37.1871L30.7037 37.1192L31.2467 36.9902C31.2836 36.9838 31.3198 36.9747 31.3554 36.9631L31.9799 36.7255C32.0081 36.714 32.0352 36.7005 32.0613 36.6848L32.5705 36.3929L33.1475 36.3997C33.3058 36.3997 33.385 36.3205 33.385 36.1621C33.385 36.0037 33.3058 35.9245 33.1475 35.9245L32.5705 35.9177L32.041 35.6394C31.9977 35.618 31.9524 35.6022 31.9052 35.5919L31.2467 35.4425C31.1663 35.423 31.0849 35.4162 31.0024 35.4222L30.4254 35.4697C30.3794 35.475 30.3341 35.484 30.2896 35.4968L29.9027 35.5919C29.8182 35.6134 29.739 35.6473 29.6651 35.6937L29.5225 35.7887C29.399 35.8657 29.3022 35.968 29.2322 36.0956C29.1621 36.2232 29.1278 36.3598 29.1292 36.5053C29.1306 36.6509 29.1675 36.7867 29.24 36.913C29.3124 37.0392 29.4111 37.1396 29.5361 37.2143L29.6447 37.2754C29.7068 37.3111 29.7724 37.3382 29.8416 37.3568L30.1538 37.4451C30.1784 37.453 30.2033 37.4598 30.2285 37.4654L30.7037 37.5537C30.7172 37.5563 30.7308 37.5586 30.7444 37.5605L31.3825 37.6487C31.3961 37.6491 31.4097 37.6491 31.4232 37.6487L32.1632 37.7098C32.1971 37.712 32.231 37.712 32.265 37.7098L33.0321 37.6691C33.0571 37.6681 33.0819 37.6658 33.1067 37.6623L33.8127 37.5537L34.4033 37.4586C34.4147 37.4567 34.426 37.4544 34.4372 37.4519L34.8717 37.3568C34.8762 37.3569 34.8807 37.3569 34.8852 37.3568L35.15 37.2957L35.2382 37.2821H35.2722L35.3401 37.2889C35.2207 37.1306 35.0623 37.0423 34.8649 37.0242L34.8717 37.031C35.1815 37.1181 35.4284 37.0296 35.6123 36.7656C35.7963 36.5015 35.7938 36.2393 35.6048 35.9788L35.5505 35.9584C35.6072 35.997 35.6683 36.0264 35.7338 36.0467L35.6048 35.9652C35.5789 35.9453 35.5517 35.9272 35.5233 35.9109L35.279 35.7955C35.246 35.7795 35.2121 35.7659 35.1771 35.7548L34.7902 35.6326C34.788 35.6303 34.7857 35.6281 34.7834 35.6258L34.2607 35.4629C34.2383 35.4574 34.2157 35.4529 34.1928 35.4493L33.5208 35.3C33.4939 35.2942 33.4667 35.2896 33.4393 35.2864L32.6519 35.1914C32.6315 35.1907 32.6112 35.1907 32.5908 35.1914L31.7559 35.1506C31.7423 35.1503 31.7287 35.1503 31.7151 35.1506H30.9141C30.9005 35.1503 30.887 35.1503 30.8734 35.1506L30.2081 35.1778C30.1991 35.1777 30.19 35.1777 30.181 35.1778L29.7262 35.2185C29.6735 35.2206 29.6215 35.2274 29.57 35.2389L29.3392 35.3C29.2496 35.3225 29.1659 35.3587 29.0881 35.4086L29.0202 35.4561C28.8336 35.5777 28.7153 35.747 28.6653 35.9641C28.6153 36.1812 28.6476 36.3852 28.7622 36.5762L28.769 36.583C28.9663 36.9073 29.2514 37.0341 29.6244 36.9631H29.6447C29.767 36.9388 29.8779 36.889 29.9773 36.8138L30.0181 36.7866C29.9576 36.8113 29.901 36.843 29.8484 36.8816H29.8552H29.8212L29.8552 36.8884L30.0045 36.9088L30.2353 36.9563C30.2689 36.9631 30.3029 36.9676 30.3371 36.9699L30.6154 36.9902C30.6563 36.9912 30.6971 36.989 30.7376 36.9835L31.077 36.9563C31.0929 36.9545 31.1088 36.9523 31.1246 36.9495L31.5522 36.8816L32.0613 36.807L32.6315 36.7391L33.2153 36.6984L33.7584 36.6848L34.1657 36.6916L34.4101 36.7255L34.573 36.7527C34.6066 36.7595 34.6406 36.764 34.6748 36.7662H34.7902C34.9187 36.7721 35.0408 36.7472 35.1568 36.6916L35.2382 36.6508C35.3497 36.5964 35.4424 36.5195 35.5165 36.42L35.5844 36.3318C35.6229 36.2814 35.6546 36.2271 35.6795 36.1689L35.7406 36.0195C35.7546 35.9842 35.7659 35.948 35.7745 35.9109L35.8356 35.6733C35.8416 35.6464 35.8461 35.6193 35.8492 35.5919L35.9035 35.2185C35.9035 35.2163 35.9035 35.214 35.9035 35.2117L35.9714 34.6619L36.0935 33.922L36.2497 33.0259L36.4126 32.1095L36.5484 31.3356C36.5484 31.3334 36.5484 31.3311 36.5484 31.3289L36.6298 30.8401L36.6773 30.6432C36.4887 30.5941 36.3107 30.6193 36.1432 30.719C35.9758 30.8187 35.8687 30.9631 35.822 31.1524L35.9238 31.1795C35.8538 30.9347 35.6954 30.7808 35.4487 30.7179L35.503 30.908L35.5369 31.261L35.5437 31.8312L35.4826 32.5779L35.3468 33.4604C35.3441 33.4761 35.3418 33.492 35.3401 33.5079L35.2586 34.4447C35.2583 34.4582 35.2583 34.4718 35.2586 34.4854L35.2247 35.3407C35.2246 35.343 35.2246 35.3452 35.2247 35.3475L35.2043 36.006L35.1839 36.3589L35.1703 36.4472C35.128 36.6575 35.1597 36.8559 35.2655 37.0425C35.3713 37.2291 35.5253 37.3583 35.7275 37.4299C35.9297 37.5016 36.1306 37.4983 36.3303 37.4199C36.53 37.3416 36.6796 37.2074 36.7792 37.0174L36.847 36.8884C36.907 36.785 36.9455 36.6741 36.9624 36.5558L37.0235 36.1078C37.026 36.0965 37.0283 36.0852 37.0303 36.0738L37.0982 35.3543C37.1005 35.3475 37.1028 35.3407 37.105 35.3339L37.1797 34.3904C37.1797 34.3836 37.1797 34.3768 37.1797 34.37L37.2475 33.2635C37.2475 33.2612 37.2475 33.259 37.2475 33.2567L37.3019 32.1231C37.3042 32.1141 37.3065 32.105 37.3086 32.0959L37.329 31.0438C37.3291 31.0347 37.3291 31.0256 37.329 31.0166V30.1545C37.3269 30.1431 37.3247 30.1318 37.3222 30.1206L37.3019 29.5096C37.2976 29.4545 37.2886 29.4002 37.2747 29.3467L37.2136 29.048C37.1559 28.7947 37.0147 28.6027 36.79 28.4722C36.5653 28.3417 36.3286 28.3142 36.08 28.3895L36.0528 28.3963C35.7346 28.4924 35.54 28.7028 35.469 29.0276L35.4215 29.2313C35.4215 29.2336 35.4215 29.2358 35.4215 29.2381L35.3401 29.6182C35.3376 29.6295 35.3353 29.6408 35.3333 29.6522L35.245 30.1952C35.2424 30.2087 35.2402 30.2223 35.2382 30.236L35.15 30.9691C35.1499 30.9736 35.1499 30.9781 35.15 30.9827L35.0617 31.8855C35.0617 31.89 35.0617 31.8945 35.0617 31.8991L34.9735 32.9173L34.8717 33.9355C34.8717 33.9378 34.8717 33.9401 34.8717 33.9423L34.797 34.7909L34.7087 35.3611C34.7063 35.3723 34.704 35.3837 34.702 35.395L34.6748 35.6869C34.6352 36.0364 34.7586 36.3133 35.0451 36.5175C35.3315 36.7217 35.6335 36.748 35.951 36.5965H35.9646C36.2722 36.4511 36.4419 36.209 36.4737 35.8702L36.5008 35.5647C36.5009 35.5579 36.5009 35.5511 36.5008 35.5444L36.5484 34.9334C36.5484 34.9311 36.5484 34.9289 36.5484 34.9266L36.6162 34.0509C36.6163 34.0442 36.6163 34.0374 36.6162 34.0306L36.6705 32.9512L36.7249 31.8312C36.7249 31.8267 36.7249 31.8221 36.7249 31.8176L36.7588 30.8469C36.7596 30.8243 36.7596 30.8016 36.7588 30.779L36.7316 30.1002C36.7303 30.0569 36.7258 30.0139 36.7181 29.9712L36.6502 29.6114L36.623 29.4825C36.6003 29.3442 36.546 29.2198 36.4601 29.1091L36.4262 29.0684C36.3477 28.9683 36.2512 28.8904 36.1369 28.8348C36.0225 28.7791 35.9017 28.7513 35.7745 28.7513C35.6473 28.7513 35.5265 28.7791 35.4121 28.8348C35.2978 28.8904 35.2013 28.9683 35.1228 29.0684L35.0889 29.1159C35.0072 29.2184 34.9529 29.3338 34.926 29.4621L34.8988 29.6114C34.8962 29.625 34.894 29.6385 34.892 29.6522L34.8445 29.9576C34.842 29.9689 34.8397 29.9802 34.8377 29.9916L34.7834 30.46L34.7155 31.1048C34.7132 31.1094 34.711 31.1139 34.7087 31.1184L34.6341 31.8923C34.634 31.8968 34.634 31.9013 34.6341 31.9059L34.5594 32.7544C34.5593 32.7612 34.5593 32.768 34.5594 32.7748L34.5051 33.6369C34.5051 33.6391 34.5051 33.6414 34.5051 33.6436L34.4644 34.4107C34.4643 34.4175 34.4643 34.4243 34.4644 34.4311L34.444 35.0692C34.4439 35.0782 34.4439 35.0873 34.444 35.0963L34.4508 35.5783C34.4515 35.6239 34.456 35.6692 34.4644 35.7141L34.5119 36.006C34.5278 36.0847 34.555 36.1594 34.5933 36.23L34.6612 36.3657C34.7489 36.5347 34.8801 36.6569 35.0549 36.7323L35.1364 36.773C35.2624 36.8271 35.3937 36.8475 35.5301 36.8341L35.6184 36.8273C35.5575 36.818 35.4964 36.8158 35.4351 36.8205L35.5301 36.8341C35.4731 36.8115 35.4143 36.7957 35.3536 36.7866L35.4351 36.8205C35.3707 36.7715 35.3006 36.7331 35.2247 36.7051L35.2857 36.7527C35.2505 36.547 35.151 36.3795 34.9871 36.2503L34.9939 36.3046C35.0476 36.1613 35.0611 36.0142 35.0346 35.8634L35.021 35.8973C35.2392 35.8027 35.3908 35.6443 35.4758 35.4222L35.4147 35.4493C35.5656 35.4655 35.7104 35.4429 35.8492 35.3814L35.7949 35.3746L35.6591 35.3339L35.3401 35.2321C35.3265 35.2295 35.313 35.2273 35.2993 35.2253L34.8241 35.0963C34.7994 35.0908 34.7746 35.0862 34.7495 35.0828L34.1453 34.9809C34.1318 34.9784 34.1182 34.9761 34.1046 34.9741L33.4122 34.8859C33.3986 34.8856 33.385 34.8856 33.3715 34.8859L32.6519 34.8248C32.6496 34.8248 32.6474 34.8248 32.6451 34.8248L31.9731 34.7773L31.43 34.723L31.0431 34.6755L30.8123 34.6347C30.7517 34.6235 30.6906 34.619 30.629 34.6212H30.5408C30.4187 34.6267 30.3042 34.6591 30.1973 34.7183C30.0904 34.7776 30.0023 34.8576 29.933 34.9582C29.8637 35.0589 29.8204 35.1697 29.8031 35.2907C29.7859 35.4116 29.7964 35.5302 29.8348 35.6462Z" fill="black"/>
<path d="M2.75186 29.4957L2.74507 29.489C2.6981 29.4643 2.64832 29.4484 2.59573 29.4414L2.56858 29.4347C2.30503 29.3865 2.12942 29.489 2.04176 29.7421C1.95409 29.9953 2.02871 30.1845 2.26561 30.3096C2.50251 30.4347 2.70079 30.3897 2.86047 30.1746L2.88083 30.1542C2.8271 30.1855 2.78184 30.2262 2.74507 30.2764L2.75186 30.2696C2.90463 30.1859 2.98102 30.0569 2.98102 29.8827C2.98102 29.7085 2.90463 29.5795 2.75186 29.4957ZM2.30383 29.4211L2.24953 29.4347C2.09955 29.4777 1.98415 29.5659 1.90333 29.6994L1.80829 29.8555C1.75403 29.9455 1.72235 30.0428 1.71326 30.1474L1.61143 31.3218C1.60907 31.3285 1.60681 31.3353 1.60465 31.3421L1.55713 32.2857L1.50961 33.2564C1.50957 33.261 1.50957 33.2655 1.50961 33.27L1.47567 34.1253L1.43494 34.7906L1.40779 35.2318L1.38742 35.4287C1.60359 35.6225 1.84677 35.6663 2.11698 35.5601C2.38719 35.4539 2.53546 35.2562 2.56179 34.9671L2.54821 34.9603C2.52066 35.2054 2.59986 35.4091 2.7858 35.5712L2.81295 35.3201L2.86726 34.8313C2.86727 34.829 2.86727 34.8268 2.86726 34.8245L2.94193 34.1253C2.94194 34.1231 2.94194 34.1208 2.94193 34.1185L3.03018 33.2496C3.03019 33.2474 3.03019 33.2451 3.03018 33.2429L3.11164 32.2925C3.11165 32.2902 3.11165 32.288 3.11164 32.2857L3.17273 31.3829C3.17278 31.3784 3.17278 31.3738 3.17273 31.3693L3.21346 30.5954C3.21347 30.5932 3.21347 30.5909 3.21346 30.5887L3.24061 29.9777C3.24066 29.9732 3.24066 29.9687 3.24061 29.9641L3.2474 29.5161L3.26098 29.2989L3.28134 29.2242C3.2757 29.0503 3.21417 28.8992 3.09677 28.7707C2.97936 28.6423 2.83431 28.5675 2.66161 28.5464C2.48891 28.5252 2.33009 28.5628 2.18515 28.659C2.04021 28.7553 1.94401 28.8871 1.89654 29.0545V29.0885L1.87618 29.4482C1.87609 29.455 1.87609 29.4618 1.87618 29.4686L1.8626 30.2357L1.82866 31.3014L1.78114 32.4826L1.72005 33.6298L1.65216 34.6412L1.59786 35.4762C1.59782 35.4807 1.59782 35.4852 1.59786 35.4898L1.56392 36.1211C1.56115 36.2214 1.57699 36.3187 1.61143 36.413L1.73362 36.7795C1.81601 37.0213 1.98412 37.1565 2.23794 37.185C2.49176 37.2136 2.68569 37.1191 2.81974 36.9017L3.0166 36.5759C3.07332 36.4838 3.10952 36.3842 3.12521 36.2772L3.22025 35.6459C3.22298 35.6301 3.22524 35.6143 3.22704 35.5984L3.29492 34.7634C3.29495 34.7589 3.29495 34.7544 3.29492 34.7498L3.3628 33.7316C3.36283 33.7271 3.36283 33.7226 3.3628 33.718L3.42389 32.564C3.42393 32.5595 3.42393 32.555 3.42389 32.5505L3.45784 31.3557C3.45788 31.3512 3.45788 31.3467 3.45784 31.3421L3.4782 30.2696C3.47897 30.2492 3.47897 30.2289 3.4782 30.2085L3.43747 29.4414C3.43518 29.4072 3.43066 29.3733 3.42389 29.3396L3.34922 28.9595C3.32411 28.8287 3.26754 28.7133 3.17952 28.6133L3.132 28.559C2.92329 28.3213 2.66948 28.2541 2.37055 28.3576C2.07163 28.4611 1.91362 28.6708 1.89654 28.9866L1.88975 29.1428C1.88971 29.1473 1.88971 29.1518 1.88975 29.1563L1.87618 29.4686C1.87607 29.4754 1.87607 29.4822 1.87618 29.489L1.86939 29.9302L1.84223 30.5276L1.8015 31.2946L1.74041 32.1839L1.65895 33.1139L1.5707 33.9692L1.47567 34.6548L1.40779 35.1436C1.40542 35.1503 1.40316 35.1571 1.401 35.1639L1.37385 35.4151C1.35263 35.6221 1.41146 35.8031 1.55034 35.9582L1.55713 35.9717C1.76191 36.2128 2.01456 36.284 2.3151 36.1855C2.61565 36.0869 2.77707 35.8799 2.79938 35.5644L2.81974 35.354L2.85368 34.8924C2.85594 34.8924 2.85821 34.8924 2.86047 34.8924L2.91478 34.2204C2.91479 34.2181 2.91479 34.2158 2.91478 34.2136L2.97587 33.3515C2.97588 33.3492 2.97588 33.3469 2.97587 33.3447L3.03696 32.374C3.03701 32.3694 3.03701 32.3649 3.03696 32.3604L3.08448 31.4168C3.08499 31.401 3.08499 31.3851 3.08448 31.3693L3.06412 30.1949C3.06229 30.1372 3.05323 30.0806 3.03696 30.0252L2.98945 29.8487C2.97642 29.8036 2.95831 29.7606 2.93514 29.7198L2.90799 29.6722C2.77239 29.4303 2.57101 29.3466 2.30383 29.4211ZM2.75186 36.7252V36.5487L2.81295 36.0871C2.81302 36.0826 2.81302 36.0781 2.81295 36.0736L2.88083 35.3608L2.96908 34.4579C2.97116 34.4331 2.97116 34.4082 2.96908 34.3833L2.89441 33.4058L2.97587 32.5505C2.99397 32.3649 2.91025 32.2631 2.72471 32.245C2.53916 32.2269 2.43734 32.3106 2.41923 32.4961L2.33778 33.3583L2.08661 34.3018C2.07997 34.3263 2.07544 34.3512 2.07303 34.3765L1.99836 35.2793L1.93048 35.9853L1.86939 36.4333L1.82866 36.5962C1.79599 36.7309 1.81859 36.8554 1.89646 36.97C1.97432 37.0846 2.08185 37.1514 2.21903 37.1706C2.35621 37.1898 2.47794 37.1549 2.58422 37.0661C2.6905 36.9772 2.74638 36.8636 2.75186 36.7252Z" fill="black"/>
<path d="M2.52105 29.7401C2.52105 29.8488 2.55949 29.9416 2.63637 30.0185C2.71325 30.0954 2.80605 30.1338 2.91477 30.1338C3.02349 30.1338 3.11629 30.0954 3.19317 30.0185C3.27005 29.9416 3.30849 29.8488 3.30849 29.7401C3.30849 29.6314 3.27005 29.5386 3.19317 29.4617C3.11629 29.3848 3.02349 29.3464 2.91477 29.3464C2.80605 29.3464 2.71325 29.3848 2.63637 29.4617C2.55949 29.5386 2.52105 29.6314 2.52105 29.7401ZM2.45996 29.7129C2.45996 29.8385 2.50436 29.9457 2.59317 30.0345C2.68198 30.1233 2.78918 30.1677 2.91477 30.1677C3.04036 30.1677 3.14756 30.1233 3.23637 30.0345C3.32518 29.9457 3.36958 29.8385 3.36958 29.7129C3.36958 29.5873 3.32518 29.4801 3.23637 29.3913C3.14756 29.3025 3.04036 29.2581 2.91477 29.2581C2.78918 29.2581 2.68198 29.3025 2.59317 29.3913C2.50436 29.4801 2.45996 29.5873 2.45996 29.7129ZM2.39886 29.679C2.39886 29.8196 2.44857 29.9396 2.54798 30.039C2.64739 30.1384 2.76739 30.1881 2.90798 30.1881C3.04857 30.1881 3.16857 30.1384 3.26798 30.039C3.36739 29.9396 3.4171 29.8196 3.4171 29.679C3.4171 29.5384 3.36739 29.4184 3.26798 29.319C3.16857 29.2196 3.04857 29.1699 2.90798 29.1699C2.76739 29.1699 2.64739 29.2196 2.54798 29.319C2.44857 29.4184 2.39886 29.5384 2.39886 29.679ZM2.40565 29.3599L2.27668 29.5296C2.22223 29.5968 2.1815 29.6715 2.15449 29.7537L2.01872 30.1949C2.00711 30.2305 1.99806 30.2667 1.99157 30.3035L1.87617 31.0366C1.87332 31.0547 1.87106 31.0728 1.86938 31.0909L1.76756 32.0956C1.76667 32.1182 1.76667 32.1409 1.76756 32.1635L1.74719 33.3311C1.74753 33.379 1.75205 33.4265 1.76077 33.4736L1.94405 34.5869C1.94855 34.6168 1.95534 34.6462 1.96442 34.6751L2.23595 35.4897L2.22916 36.155C2.22916 36.336 2.31967 36.4265 2.50069 36.4265C2.68171 36.4265 2.77222 36.336 2.77222 36.155L2.779 35.4965L3.0709 34.6955C3.07906 34.6733 3.08585 34.6507 3.09126 34.6276L3.34922 33.5347C3.35847 33.499 3.36525 33.4628 3.36958 33.4261L3.48498 32.2653C3.48747 32.254 3.48973 32.2427 3.49177 32.2314L3.55965 31.2267C3.55988 31.2154 3.55988 31.2041 3.55965 31.1928L3.57323 30.4528C3.57462 30.4257 3.57462 30.3985 3.57323 30.3714L3.53929 29.9098C3.53609 29.8685 3.5293 29.8277 3.51892 29.7876L3.46462 29.5772C3.40039 29.3365 3.24628 29.1912 3.0023 29.1411C2.75831 29.0911 2.55943 29.164 2.40565 29.3599Z" fill="black"/>
<path d="M2.04593 31.5458V31.5797L2.0052 31.8037C2.00495 31.8128 2.00495 31.8218 2.0052 31.8309L1.94411 32.3264C1.94405 32.3309 1.94405 32.3355 1.94411 32.34L1.88301 33.046L1.80834 33.8402C1.80833 33.8424 1.80833 33.8447 1.80834 33.847L1.74725 34.614C1.74723 34.6163 1.74723 34.6186 1.74725 34.6208L1.70652 35.2861L1.66579 35.8359L1.62506 36.25L1.59112 36.5215L1.56397 36.6573L1.5436 36.7048C1.492 36.8583 1.50554 37.0058 1.58422 37.1473C1.66291 37.2888 1.78105 37.3781 1.93865 37.4153C2.09624 37.4524 2.24184 37.4252 2.37543 37.3337C2.50902 37.2423 2.587 37.1163 2.60936 36.956L2.62293 36.8745L2.65008 36.7048C2.65258 36.6958 2.65485 36.6868 2.65687 36.6777L2.69081 36.379C2.69321 36.3722 2.69548 36.3655 2.6976 36.3586L2.73833 35.9242C2.73839 35.9196 2.73839 35.9151 2.73833 35.9106L2.77227 35.354C2.77229 35.3517 2.77229 35.3494 2.77227 35.3472L2.80621 34.6887L2.85373 33.9216L2.90804 33.1274L2.94877 32.4214C2.95128 32.4125 2.95354 32.4034 2.95556 32.3943L2.96234 31.892C2.96364 31.8716 2.96364 31.8512 2.96234 31.8309L2.93519 31.6069C2.93309 31.6 2.93083 31.5932 2.9284 31.5865V31.5458C2.9284 31.4239 2.88532 31.3199 2.79917 31.2338C2.71301 31.1476 2.60901 31.1045 2.48717 31.1045C2.36532 31.1045 2.26132 31.1476 2.17517 31.2338C2.08901 31.3199 2.04593 31.4239 2.04593 31.5458ZM1.36032 36.9153C1.36032 37.1102 1.42924 37.2766 1.56709 37.4145C1.70495 37.5523 1.87135 37.6212 2.0663 37.6212C2.26125 37.6212 2.42765 37.5523 2.5655 37.4145C2.70335 37.2766 2.77227 37.1102 2.77227 36.9153C2.77227 36.7203 2.70335 36.5539 2.5655 36.4161C2.42765 36.2782 2.26125 36.2093 2.0663 36.2093C1.87135 36.2093 1.70495 36.2782 1.56709 36.4161C1.42924 36.5539 1.36032 36.7203 1.36032 36.9153ZM1.7744 37.6144L1.91017 37.6891C1.97944 37.7218 2.05184 37.7444 2.12739 37.757L2.42607 37.8181C2.45749 37.8244 2.48917 37.8289 2.52111 37.8317L3.03023 37.8724C3.04149 37.8749 3.05281 37.8771 3.06417 37.8792L3.7973 37.9063C3.80409 37.9064 3.81087 37.9064 3.81766 37.9063L4.66619 37.9199C4.67072 37.92 4.67524 37.92 4.67977 37.9199L5.5283 37.9131H6.24785H6.77733L7.11675 37.9403C7.17358 37.9446 7.23015 37.9424 7.28645 37.9335L7.4901 37.8996C7.75439 37.8611 7.92541 37.7141 8.00317 37.4586C8.08093 37.2031 8.02078 36.9858 7.82272 36.8066L7.66659 36.6641C7.57062 36.5783 7.45974 36.5218 7.33397 36.4944L6.97419 36.4129C6.94729 36.4069 6.92013 36.4024 6.89273 36.3993L6.34289 36.3315C6.33162 36.329 6.32031 36.3267 6.30895 36.3247L5.59618 36.2704C5.58713 36.2702 5.57808 36.2702 5.56903 36.2704L4.7205 36.2296L3.87197 36.1821C3.8697 36.1821 3.86744 36.1821 3.86518 36.1821L3.13205 36.155L2.62972 36.1346C2.62293 36.1345 2.61614 36.1345 2.60936 36.1346L2.30388 36.121C2.23516 36.1194 2.16727 36.1262 2.10024 36.1414L1.9509 36.1753C1.60274 36.2588 1.40688 36.4783 1.36329 36.8336C1.31971 37.189 1.45675 37.4493 1.7744 37.6144ZM7.06923 37.0307L7.0285 37.0782C7.21427 37.1019 7.36587 37.0408 7.48331 36.8949L7.32718 36.8745L7.0285 36.7727L6.57369 36.5894L6.02384 36.3518C6.0216 36.3495 6.01934 36.3473 6.01705 36.345L5.4129 36.0939C5.40841 36.0915 5.40388 36.0893 5.39932 36.0871L4.79517 35.8563L4.23853 35.6187C4.20312 35.6065 4.16691 35.5974 4.12992 35.5915L3.6208 35.4694C3.59168 35.4629 3.56227 35.4584 3.53256 35.4558L3.17278 35.4218L2.9895 35.3811C2.8506 35.3549 2.71484 35.3662 2.5822 35.4151L2.5279 35.4286C2.18966 35.5462 2.0107 35.7837 1.99102 36.1412C1.97133 36.4988 2.12314 36.7545 2.44644 36.9085L2.65687 37.0103C2.72397 37.0424 2.79411 37.065 2.86731 37.0782L3.3357 37.1664C3.35589 37.1717 3.37625 37.1762 3.39679 37.18L4.06883 37.2479C4.07561 37.248 4.0824 37.248 4.08919 37.2479L4.86305 37.3158C4.86531 37.3158 4.86758 37.3158 4.86984 37.3158L5.65049 37.3701C5.66633 37.3705 5.68216 37.3705 5.698 37.3701L6.43792 37.3836C6.44471 37.3837 6.4515 37.3837 6.45829 37.3836L7.09638 37.3769C7.10543 37.377 7.11448 37.377 7.12353 37.3769L7.61229 37.3565C7.63047 37.3548 7.64857 37.3526 7.66659 37.3497L7.96528 37.3158C8.24987 37.2848 8.45804 37.1423 8.58979 36.8881L8.61016 36.8406C8.74983 36.5734 8.73657 36.314 8.57039 36.0624C8.4042 35.8109 8.17082 35.6969 7.87024 35.7205L7.68696 35.7341L7.27288 35.7477C7.26833 35.7499 7.2638 35.7522 7.2593 35.7545L6.64836 35.7816C6.64157 35.7815 6.63478 35.7815 6.62799 35.7816L5.93559 35.8359C5.9288 35.8358 5.92202 35.8358 5.91523 35.8359L5.25677 35.9038L4.74086 35.9581L4.49649 35.9649L4.44897 35.9513C4.25002 35.9569 4.07714 36.0269 3.93036 36.1613C3.78357 36.2957 3.69867 36.4617 3.67566 36.6594C3.65266 36.8571 3.69715 37.0382 3.80915 37.2028C3.92115 37.3673 4.07332 37.4751 4.26569 37.5262H4.35393C4.36298 37.5263 4.37203 37.5263 4.38109 37.5262L4.73407 37.499L5.2975 37.4651L6.03063 37.4515C6.07169 37.45 6.11242 37.4455 6.15282 37.438L6.94704 37.309C6.97694 37.3043 7.00635 37.2975 7.03529 37.2886L7.63265 37.0985L8.1825 37.2071C8.36048 37.2205 8.4658 37.1394 8.49844 36.9639C8.53109 36.7885 8.46198 36.6749 8.29111 36.6234L7.73448 36.5147L7.20499 36.1482C7.15636 36.1162 7.10431 36.0913 7.04886 36.0735L6.28858 35.8156C6.21169 35.7882 6.13249 35.7724 6.05099 35.768L5.2975 35.7409C5.26356 35.7389 5.22962 35.7389 5.19567 35.7409L4.61189 35.7884C4.58917 35.7898 4.56654 35.792 4.544 35.7952L4.19101 35.8563C3.99723 35.8875 3.83431 35.9758 3.70226 36.121L3.64117 36.1821C3.37567 36.4674 3.33829 36.78 3.52902 37.1198C3.71976 37.4597 4.00604 37.5906 4.38787 37.5126L4.55079 37.4855L4.91057 37.4176L5.42647 37.3429L6.06457 37.2615L6.72303 37.2071L7.30003 37.1868L7.61229 37.1936L7.7209 37.2275C7.91249 37.2262 8.08006 37.1621 8.22361 37.0352C8.36715 36.9082 8.45133 36.7498 8.47615 36.5598C8.50097 36.3698 8.46031 36.1951 8.35418 36.0356C8.24805 35.876 8.10258 35.771 7.91776 35.7205H7.85666C7.83394 35.7218 7.81131 35.7241 7.78878 35.7273L7.51725 35.7613L7.07602 35.7748L6.48544 35.768L5.77946 35.7137L4.99882 35.6526C4.99882 35.6504 4.99882 35.6481 4.99882 35.6459L4.23174 35.5915L3.59365 35.5305L3.19314 35.4626L3.00986 35.4151C2.99845 35.6047 3.04819 35.7766 3.15907 35.9308C3.26995 36.085 3.41708 36.1869 3.60044 36.2364L3.60723 36.1753C3.29996 36.2944 3.13705 36.5184 3.11847 36.8474L3.19314 36.8202L3.43073 36.827L3.93985 36.8609L4.49649 36.9085L5.05312 37.0578L5.63012 37.2818L6.18676 37.5126C6.189 37.5149 6.19126 37.5172 6.19355 37.5194L6.66872 37.7027C6.6754 37.7074 6.68219 37.7119 6.68909 37.7163L7.04886 37.8385C7.0821 37.8488 7.11604 37.8556 7.15069 37.8588L7.36112 37.886C7.46959 37.8988 7.57141 37.8785 7.66659 37.8249L7.7209 37.7977C7.85365 37.7159 7.93222 37.598 7.95661 37.444C7.98101 37.29 7.94273 37.1535 7.84177 37.0347C7.74081 36.9159 7.61236 36.856 7.45643 36.8552C7.30049 36.8544 7.17143 36.9129 7.06923 37.0307Z" fill="black"/>
<path d="M32.9537 2.0804C32.9537 2.19287 32.9935 2.28887 33.073 2.3684C33.1526 2.44793 33.2486 2.48769 33.361 2.48769C33.4735 2.48769 33.5695 2.44793 33.649 2.3684C33.7286 2.28887 33.7683 2.19287 33.7683 2.0804C33.7683 1.96793 33.7286 1.87193 33.649 1.7924C33.5695 1.71287 33.4735 1.6731 33.361 1.6731C33.2486 1.6731 33.1526 1.71287 33.073 1.7924C32.9935 1.87193 32.9537 1.96793 32.9537 2.0804ZM33.6869 1.80887L33.6801 1.79529C33.5823 1.67443 33.4557 1.61569 33.3003 1.61908C33.1449 1.62247 33.021 1.68666 32.9285 1.81167C32.8361 1.93667 32.8111 2.07397 32.8534 2.22355C32.8958 2.37313 32.989 2.47693 33.1333 2.53497C33.2775 2.593 33.4166 2.58274 33.5508 2.50417C33.6849 2.42561 33.762 2.30924 33.7819 2.15507V2.1347C33.7963 2.01265 33.7646 1.90404 33.6869 1.80887ZM33.714 1.75456L33.6869 1.72062C33.5584 1.54646 33.3864 1.44916 33.171 1.42873L33.0488 1.41515C32.9447 1.4062 32.8429 1.41752 32.7433 1.44909L32.6075 1.48982C32.5704 1.50079 32.5341 1.51437 32.4989 1.53055L32.3903 1.58486C32.2765 1.63752 32.1795 1.71203 32.0993 1.8084C32.019 1.90478 31.9633 2.01369 31.9322 2.13515C31.901 2.25662 31.8974 2.37889 31.9214 2.50198C31.9453 2.62507 31.9945 2.73708 32.0689 2.83802C32.1433 2.93896 32.2357 3.01907 32.3462 3.07835C32.4567 3.13764 32.5746 3.17037 32.6998 3.17655C32.8251 3.18273 32.9456 3.16176 33.0614 3.11364C33.1772 3.06552 33.2771 2.9949 33.361 2.90177L33.3746 2.88141L33.4085 2.86104C33.4578 2.82987 33.5031 2.79366 33.5443 2.75243L33.6258 2.66419C33.7647 2.52026 33.8326 2.34829 33.8294 2.14828V2.10755C33.829 1.97746 33.7905 1.8598 33.714 1.75456ZM32.3089 3.20046L32.4378 3.26834C32.5634 3.33397 32.6969 3.37017 32.8383 3.37695L33.1574 3.39732C33.1958 3.39954 33.2343 3.39954 33.2728 3.39732L33.7547 3.37016L34.3657 3.3498H35.0513L35.7641 3.39053L36.4225 3.43805C36.4338 3.43824 36.4452 3.43824 36.4565 3.43805L37.0199 3.4652C37.0403 3.46583 37.0606 3.46583 37.081 3.4652L37.5086 3.45162C37.5404 3.45097 37.5721 3.44871 37.6037 3.44483L37.8752 3.41089C37.9164 3.40695 37.9571 3.40016 37.9974 3.39053L38.1332 3.35659C38.2022 3.33767 38.2678 3.31052 38.33 3.27513L38.3708 3.24797C38.4955 3.17899 38.5961 3.08425 38.6723 2.96377C38.7486 2.84329 38.7912 2.71189 38.8001 2.56958C38.809 2.42728 38.7832 2.29159 38.7226 2.16251C38.662 2.03343 38.5742 1.92687 38.459 1.84281L38.4318 1.82244C38.3606 1.77415 38.2837 1.73794 38.201 1.71383L38.1196 1.68668C38.0731 1.67096 38.0256 1.65965 37.977 1.65274L37.8277 1.63237C37.8232 1.63233 37.8186 1.63233 37.8141 1.63237L37.5697 1.60522L37.1964 1.54413C37.1874 1.54168 37.1783 1.53941 37.1692 1.53734L36.6601 1.48303C36.6511 1.48058 36.6421 1.47832 36.633 1.47624L36.0288 1.42873C36.0198 1.42628 36.0108 1.42401 36.0017 1.42194L35.3636 1.39479C35.3477 1.39423 35.3319 1.39423 35.316 1.39479L34.6983 1.40836C34.6915 1.40826 34.6847 1.40826 34.6779 1.40836L34.1349 1.42873L33.7004 1.44909L33.3882 1.46267H33.1777H33.042H32.9605C33.0163 1.47597 33.0729 1.48276 33.1302 1.48303L33.1031 1.47624C32.9006 1.435 32.7132 1.47138 32.5409 1.58537C32.3686 1.69936 32.2618 1.85758 32.2206 2.06003C32.1794 2.26248 32.2157 2.44986 32.3297 2.62217C32.4437 2.79449 32.6019 2.90126 32.8044 2.9425L32.8383 2.94929C32.8789 2.9549 32.9196 2.95717 32.9605 2.95608H33.042C33.0647 2.95485 33.0873 2.95259 33.1099 2.94929L33.2524 2.93572C33.2569 2.93576 33.2615 2.93576 33.266 2.93572L33.4832 2.90856C33.4969 2.90669 33.5104 2.90442 33.5239 2.90177L33.8226 2.85426L34.2367 2.80674L34.7458 2.76601L35.3228 2.75243L35.927 2.77959L36.504 2.83389L36.9724 2.8882L37.2439 2.94929L37.2778 2.96966L37.2575 2.9425L37.2846 2.97644C37.2586 2.90103 37.2224 2.83088 37.176 2.76601L37.1828 2.79995C37.5067 2.88438 37.7818 2.80336 38.0083 2.55689C38.2347 2.31043 38.2922 2.02941 38.1807 1.71383L38.1332 1.70026L37.9974 1.66631C37.9861 1.66383 37.9748 1.66157 37.9635 1.65953L37.6919 1.59843C37.6695 1.59307 37.6468 1.58854 37.624 1.58486L37.2032 1.52376C37.1986 1.52373 37.1941 1.52373 37.1896 1.52376L36.6262 1.44909C36.6194 1.44676 36.6126 1.44449 36.6058 1.4423L35.9338 1.37442C35.9157 1.37167 35.8976 1.3694 35.8795 1.36763L35.1328 1.3269C35.1147 1.32642 35.0966 1.32642 35.0785 1.3269H34.3453C34.3295 1.32653 34.3136 1.32653 34.2978 1.3269L33.6597 1.36084C33.6393 1.36023 33.619 1.36023 33.5986 1.36084L33.1099 1.41515C33.0985 1.41722 33.0872 1.41948 33.0759 1.42194L32.7569 1.46946C32.7273 1.47262 32.6978 1.47714 32.6686 1.48303L32.5261 1.51697C32.1143 1.60891 31.8814 1.86412 31.8274 2.28258C31.7734 2.70104 31.9339 3.007 32.3089 3.20046ZM32.3632 2.73886L32.3835 2.75922C32.5205 2.8967 32.6857 2.97363 32.8791 2.99002L33.0216 3.0036C33.0375 3.00406 33.0533 3.00406 33.0691 3.0036L33.3882 3.01717C33.3972 3.01732 33.4063 3.01732 33.4153 3.01717L33.9312 3.01039L34.6033 3.03754L35.3703 3.10542L36.1714 3.20725L36.9316 3.30907C36.9452 3.3094 36.9588 3.3094 36.9724 3.30907L37.624 3.36337C37.6398 3.36609 37.6557 3.36836 37.6716 3.37016L38.1943 3.37695C38.2101 3.37741 38.2259 3.37741 38.2418 3.37695L38.6083 3.36337C38.6311 3.36207 38.6537 3.35981 38.6762 3.35659L38.907 3.32943C38.9367 3.32654 38.9661 3.32201 38.9953 3.31586L39.1039 3.2887C39.3236 3.23461 39.4911 3.11016 39.6062 2.91535L39.6266 2.8882C39.7386 2.69667 39.7676 2.4933 39.7135 2.27809C39.6594 2.06288 39.5376 1.89743 39.3483 1.78171L39.294 1.74777C39.2322 1.70974 39.1666 1.68032 39.0971 1.65953L39.0088 1.63237C38.8324 1.58271 38.6582 1.5895 38.4862 1.65274L38.3775 1.68668C38.1317 1.77491 37.9597 1.94009 37.8616 2.18222L37.7802 2.38587C37.754 2.45159 37.7359 2.51947 37.7259 2.58952L37.658 3.01717C37.652 3.04636 37.6475 3.07578 37.6444 3.10542L37.6105 3.79103C37.61 3.80687 37.61 3.82271 37.6105 3.83855V4.76854C37.6099 4.78664 37.6099 4.80474 37.6105 4.82285L37.6783 5.85466L37.7462 6.85253L37.7734 7.68748C37.7743 7.71249 37.7766 7.73738 37.7802 7.76215L37.8684 8.39346C37.8741 8.44233 37.8854 8.48985 37.9024 8.53601L38.0313 8.85506L38.0449 8.96367C38.065 9.21577 38.2014 9.34687 38.4541 9.35698C38.7068 9.36708 38.8533 9.2473 38.8934 8.99761L38.9206 8.86864L39.0564 8.53601C39.0734 8.48985 39.0847 8.44233 39.0903 8.39346L39.1786 7.76215C39.1824 7.73513 39.1847 7.70798 39.1853 7.6807L39.1989 6.84574L39.2804 5.86824C39.2804 5.86597 39.2804 5.86371 39.2804 5.86145L39.3618 4.83642C39.362 4.82511 39.362 4.8138 39.3618 4.80248L39.4026 3.87928L39.4297 3.22761L39.4704 2.90856L39.518 2.76601C39.4464 2.85536 39.3944 2.95493 39.3618 3.06469L39.4297 2.97644C39.2085 3.00682 39.0275 3.10864 38.8867 3.28192L38.9817 3.26834C38.9158 3.26274 38.8502 3.26501 38.7848 3.27513L38.8459 3.28192C38.8935 3.16332 38.9121 3.04035 38.9017 2.913C38.8914 2.78565 38.8532 2.66729 38.7872 2.5579C38.7211 2.44852 38.6342 2.3596 38.5263 2.29113C38.4185 2.22266 38.301 2.18183 38.1739 2.16864L38.1671 2.1958C38.4272 2.12777 38.6082 1.96938 38.7102 1.72062L38.6559 1.7342L38.5269 1.74777H38.2418L37.7734 1.70704L37.1421 1.63916L36.3954 1.53734C36.3908 1.5373 36.3863 1.5373 36.3818 1.53734L35.5604 1.43551C35.5537 1.43317 35.5469 1.4309 35.5401 1.42873L34.739 1.35406C34.7232 1.35361 34.7074 1.35361 34.6915 1.35406L33.9788 1.3269C33.9629 1.32646 33.9471 1.32646 33.9312 1.3269L33.395 1.33369C33.37 1.33484 33.3451 1.33711 33.3203 1.34048L33.0013 1.37442C32.9552 1.37964 32.91 1.38869 32.8655 1.40157L32.7297 1.4423C32.5966 1.48002 32.4812 1.54791 32.3835 1.64595L32.3632 1.66631C32.2174 1.81537 32.1445 1.99412 32.1445 2.20259C32.1445 2.41105 32.2174 2.5898 32.3632 2.73886ZM38.7577 8.90937L38.7645 8.80075C38.7779 8.61081 38.6897 8.50905 38.4997 8.49548C38.3098 8.48191 38.208 8.57009 38.1943 8.76003L38.1875 8.86864C38.174 9.05859 38.2623 9.16034 38.4522 9.17391C38.6422 9.18748 38.744 9.0993 38.7577 8.90937Z" fill="black"/>
<path d="M37.9363 3.41091C37.9363 3.52526 37.9768 3.62286 38.0576 3.70371C38.1385 3.78456 38.2361 3.82499 38.3504 3.82499C38.4648 3.82499 38.5624 3.78456 38.6432 3.70371C38.7241 3.62286 38.7645 3.52526 38.7645 3.41091C38.7645 3.29656 38.7241 3.19896 38.6432 3.11811C38.5624 3.03725 38.4648 2.99683 38.3504 2.99683C38.2361 2.99683 38.1385 3.03725 38.0576 3.11811C37.9768 3.19896 37.9363 3.29656 37.9363 3.41091ZM37.916 3.40412C37.916 3.52409 37.9584 3.62649 38.0432 3.71132C38.128 3.79615 38.2304 3.83857 38.3504 3.83857C38.4704 3.83857 38.5728 3.79615 38.6576 3.71132C38.7424 3.62649 38.7849 3.52409 38.7849 3.40412C38.7849 3.28415 38.7424 3.18175 38.6576 3.09692C38.5728 3.01209 38.4704 2.96967 38.3504 2.96967C38.2304 2.96967 38.128 3.01209 38.0432 3.09692C37.9584 3.18175 37.916 3.28415 37.916 3.40412ZM37.8413 3.01719L37.7734 3.10544C37.7111 3.18677 37.6681 3.27728 37.6444 3.37697L37.563 3.72996C37.5536 3.76567 37.5468 3.80187 37.5426 3.83857L37.4883 4.4563C37.4882 4.46309 37.4882 4.46987 37.4883 4.47666L37.4408 5.30483C37.4405 5.31614 37.4405 5.32746 37.4408 5.33877L37.4204 6.25518C37.4204 6.25745 37.4204 6.25971 37.4204 6.26197L37.4136 7.16481L37.3865 7.93867L37.3322 8.56997L37.2779 9.02478L37.2439 9.29631C37.2402 9.32335 37.2379 9.3505 37.2371 9.37777L37.2303 9.44566C37.2786 9.62124 37.378 9.7601 37.5288 9.86225C37.6795 9.96439 37.8454 10.0053 38.0263 9.98502C38.2073 9.96473 38.3599 9.88808 38.4843 9.75509C38.6087 9.62209 38.6749 9.46464 38.683 9.28274L38.6695 9.22164V8.94333L38.7849 7.59247L38.8799 6.70999L38.9681 5.82073L39.0767 5.0333L39.1718 4.40878L39.2668 3.95397C39.2693 3.94496 39.2715 3.93591 39.2736 3.92682L39.3143 3.67565C39.35 3.50056 39.3245 3.33487 39.2379 3.17858C39.1513 3.0223 39.0243 2.91288 38.8569 2.85032C38.6895 2.78777 38.5219 2.78707 38.354 2.84823C38.1861 2.9094 38.0582 3.01776 37.9703 3.17332L37.9567 3.19369C37.8995 3.29019 37.8656 3.39428 37.8549 3.50595L37.8141 3.87251C37.8112 3.89053 37.809 3.90863 37.8073 3.92682L37.7734 4.65316L37.7191 5.65103C37.7191 5.65329 37.7191 5.65555 37.7191 5.65782L37.658 6.78467C37.658 6.78919 37.658 6.79372 37.658 6.79824L37.6241 7.87078C37.624 7.87531 37.624 7.87983 37.6241 7.88436L37.6037 8.76683C37.6037 8.76909 37.6037 8.77136 37.6037 8.77362L37.5969 9.41171C37.5968 9.45967 37.6013 9.50719 37.6105 9.55427L37.6784 9.90047C37.707 10.0514 37.7795 10.1769 37.896 10.277C38.0125 10.3771 38.1474 10.43 38.3009 10.4357C38.4544 10.4414 38.5929 10.3986 38.7165 10.3074C38.84 10.2161 38.9216 10.0963 38.9613 9.94798L39.0496 9.60857C39.0638 9.55973 39.0728 9.50995 39.0767 9.45923L39.1107 8.82793L39.1718 7.95224L39.2397 6.8797C39.242 6.8752 39.2442 6.87067 39.2465 6.86612L39.294 5.73928L39.3483 4.73462C39.3484 4.72783 39.3484 4.72104 39.3483 4.71425L39.3686 3.98112C39.3691 3.96528 39.3691 3.94944 39.3686 3.9336L39.3551 3.56025C39.3461 3.31475 39.2421 3.12016 39.0428 2.97646L39.0224 2.96289C38.788 2.79173 38.54 2.76921 38.2786 2.89532C38.0172 3.02143 37.8804 3.2295 37.8684 3.51952L37.8549 3.77069L37.8345 4.23907L37.7734 4.87038L37.6784 5.66461C37.6783 5.66913 37.6783 5.67366 37.6784 5.67818L37.5833 6.57423C37.5811 6.57648 37.5788 6.57874 37.5765 6.58102L37.4951 7.47028L37.3661 8.83471L37.3254 9.10624L37.2982 9.16734C37.2232 9.33407 37.2115 9.50512 37.2633 9.68049C37.3151 9.85586 37.4177 9.99317 37.5713 10.0924C37.7248 10.1917 37.8922 10.2289 38.0733 10.2041C38.2545 10.1793 38.4057 10.0985 38.5269 9.96156L38.5676 9.90726C38.6578 9.80525 38.7166 9.68759 38.7441 9.55427L38.7984 9.27595C38.8035 9.26025 38.808 9.24442 38.812 9.22843L38.8731 8.75325C38.8757 8.73974 38.878 8.72616 38.8799 8.71253L38.9274 8.04728C38.9299 8.03601 38.9322 8.0247 38.9342 8.01334L38.9613 7.20554C38.9613 7.20327 38.9613 7.20101 38.9613 7.19875L38.9817 6.28912L39.0021 5.38629L39.0496 4.56491C39.0496 4.56265 39.0496 4.56038 39.0496 4.55812L39.0767 3.94039C39.0777 3.91776 39.0777 3.89514 39.0767 3.87251L39.0632 3.51273C39.057 3.3879 39.0208 3.2725 38.9546 3.16653L38.8935 3.0715C38.8375 2.98293 38.7644 2.91219 38.674 2.85927C38.5836 2.80636 38.4861 2.7772 38.3814 2.7718C38.2768 2.7664 38.1768 2.78537 38.0815 2.82869C37.9861 2.87202 37.906 2.93485 37.8413 3.01719ZM38.6423 9.42529L38.6084 9.39814V9.14018C38.6084 8.95011 38.5133 8.85508 38.3233 8.85508C38.1332 8.85508 38.0381 8.95011 38.0381 9.14018V9.39814L38.0042 9.42529C37.8921 9.51746 37.8314 9.63595 37.822 9.78076C37.8126 9.92557 37.8575 10.0509 37.9567 10.1568C38.056 10.2627 38.1781 10.3156 38.3233 10.3156C38.4684 10.3156 38.5905 10.2627 38.6898 10.1568C38.789 10.0509 38.8339 9.92557 38.8245 9.78076C38.8151 9.63595 38.7544 9.51746 38.6423 9.42529Z" fill="black"/>
<path d="M32.3564 2.07361L32.3497 2.06682C32.2584 1.99189 32.1539 1.95826 32.0361 1.96595C31.9183 1.97363 31.819 2.02055 31.7383 2.10671C31.6576 2.19286 31.6173 2.29497 31.6173 2.41302C31.6173 2.53108 31.6576 2.63318 31.7383 2.71934C31.819 2.80549 31.9183 2.85241 32.0361 2.86009C32.1539 2.86778 32.2584 2.83416 32.3497 2.75922L32.3564 2.75243C32.4626 2.66422 32.5157 2.55108 32.5157 2.41302C32.5157 2.27496 32.4626 2.16183 32.3564 2.07361ZM32.404 2.06682L32.3768 2.03967C32.3485 2.00658 32.3169 1.97717 32.2818 1.95142L32.241 1.92427C32.1551 1.86413 32.0601 1.82792 31.9559 1.81566L31.9084 1.80887C31.7264 1.78742 31.5629 1.83285 31.418 1.94515C31.2732 2.05746 31.1884 2.20444 31.1638 2.38609C31.1392 2.56774 31.1818 2.73196 31.2916 2.87876C31.4014 3.02556 31.5469 3.11283 31.7281 3.14058C31.9092 3.16833 32.0742 3.12859 32.2229 3.02137C32.3715 2.91415 32.4613 2.7702 32.4922 2.58952L32.499 2.56915V2.55557C32.4744 2.60062 32.4563 2.64814 32.4447 2.69813L32.4651 2.66419C32.5901 2.45019 32.5697 2.25107 32.404 2.06682ZM31.1142 2.67097L31.1278 2.73207C31.1784 2.96585 31.3073 3.14234 31.5147 3.26155L31.7591 3.39732C31.8067 3.4247 31.8565 3.44733 31.9084 3.4652L32.3904 3.62812C32.4083 3.6355 32.4264 3.64228 32.4447 3.64848L33.1439 3.83176C33.1641 3.837 33.1845 3.84152 33.205 3.84534L34.0331 4.00826C34.0646 4.01448 34.0963 4.01901 34.1282 4.02183L34.9631 4.08972C35.0039 4.09263 35.0446 4.09263 35.0853 4.08972L35.8524 4.0422L36.4905 4.00826C36.5064 4.00654 36.5222 4.00428 36.538 4.00147L36.9724 3.94716C37.0115 3.94385 37.05 3.93706 37.0878 3.9268L37.3322 3.84534C37.5595 3.77571 37.6953 3.62411 37.7395 3.39053L37.7463 3.3498C37.7786 3.19184 37.7424 3.05155 37.6377 2.92893L37.6038 2.89499C37.5081 2.78496 37.3882 2.71935 37.244 2.69813L36.9928 2.6574C36.9793 2.65471 36.9657 2.65244 36.9521 2.65061L36.5176 2.60988L35.9203 2.55557L35.2007 2.40623C35.1985 2.40623 35.1962 2.40623 35.1939 2.40623L34.3793 2.24332L33.5647 2.0804L32.8791 1.91748C32.8746 1.91745 32.8701 1.91745 32.8656 1.91748L32.37 1.80887C32.3408 1.80282 32.3114 1.79829 32.2818 1.79529L32.0035 1.76135C31.8729 1.74626 31.7462 1.7621 31.6233 1.80887L31.5622 1.83602C31.3946 1.90061 31.2683 2.01206 31.1833 2.17038C31.0984 2.3287 31.0753 2.49556 31.1142 2.67097ZM37.3662 2.95608L37.2915 2.91535C37.124 2.82484 36.9951 2.86331 36.9046 3.03075C36.8141 3.19819 36.8525 3.32717 37.02 3.41768L37.0946 3.45841C37.2621 3.54892 37.3911 3.51045 37.4816 3.34301C37.5721 3.17557 37.5336 3.04659 37.3662 2.95608Z" fill="black"/>
<path d="M32.3021 1.53053H32.2953L32.2682 1.53732C32.3725 1.64532 32.4992 1.69058 32.6483 1.67308L32.6415 1.6663C32.5248 1.54321 32.3824 1.49324 32.2143 1.51639C32.0463 1.53954 31.9227 1.62615 31.8436 1.77621C31.7645 1.92628 31.7629 2.07718 31.8387 2.22891C31.9146 2.38064 32.0363 2.46988 32.2038 2.49664C32.3713 2.52339 32.5148 2.47649 32.6341 2.35594C32.7535 2.23539 32.7989 2.09149 32.7705 1.92425V1.91067C32.6246 2.02009 32.5657 2.16491 32.594 2.34512L32.6212 2.32476C32.718 2.25088 32.7746 2.15359 32.7909 2.03286L32.7977 2.02607C32.82 1.88098 32.7793 1.75652 32.6755 1.65271C32.5717 1.5489 32.4472 1.50817 32.3021 1.53053ZM31.664 2.03286C31.664 2.19032 31.7197 2.32472 31.831 2.43606C31.9424 2.5474 32.0768 2.60307 32.2342 2.60307C32.3917 2.60307 32.5261 2.5474 32.6374 2.43606C32.7488 2.32472 32.8044 2.19032 32.8044 2.03286C32.8044 1.8754 32.7488 1.741 32.6374 1.62966C32.5261 1.51832 32.3917 1.46265 32.2342 1.46265C32.0768 1.46265 31.9424 1.51832 31.831 1.62966C31.7197 1.741 31.664 1.8754 31.664 2.03286ZM31.5758 2.07359C31.5758 2.24792 31.6374 2.39672 31.7607 2.51999C31.884 2.64326 32.0328 2.7049 32.2071 2.7049C32.3814 2.7049 32.5302 2.64326 32.6535 2.51999C32.7768 2.39672 32.8384 2.24792 32.8384 2.07359C32.8384 1.89926 32.7768 1.75046 32.6535 1.62719C32.5302 1.50392 32.3814 1.44228 32.2071 1.44228C32.0328 1.44228 31.884 1.50392 31.7607 1.62719C31.6374 1.75046 31.5758 1.89926 31.5758 2.07359ZM31.8677 2.73884L32.051 2.85424C32.1609 2.92519 32.2808 2.96818 32.4107 2.98321L32.9131 3.03752C32.9266 3.03784 32.9402 3.03784 32.9538 3.03752L33.7344 3.08504L34.6984 3.17329L35.7166 3.32263L36.6737 3.47197L37.4612 3.61452L38.0314 3.73671L38.4115 3.84532C38.4138 3.8476 38.416 3.84986 38.4183 3.85211L38.6423 3.9132L38.7102 3.94036L38.717 3.94714C38.8877 4.03169 39.0657 4.05219 39.2511 4.00865C39.4365 3.96512 39.5868 3.86752 39.702 3.71585C39.8172 3.56419 39.8709 3.39321 39.8631 3.20292C39.8553 3.01263 39.7878 2.84662 39.6606 2.7049L39.647 2.69132C39.503 2.52667 39.322 2.43616 39.1039 2.41979L39.0564 2.413C38.7259 2.39233 38.4747 2.52357 38.3029 2.80672L38.2147 2.94927C38.1626 3.03345 38.1264 3.12396 38.1061 3.2208L38.0314 3.60094C38.0258 3.62564 38.0212 3.65053 38.0178 3.67562L37.9431 4.3205C37.9408 4.32726 37.9385 4.33405 37.9364 4.34086L37.8549 5.20976L37.7667 6.16011C37.7666 6.16464 37.7666 6.16916 37.7667 6.17369L37.6988 7.07652C37.6962 7.09005 37.6939 7.10362 37.692 7.11725L37.6716 7.87754C37.6705 7.90243 37.6705 7.92732 37.6716 7.95221L37.6988 8.52921C37.7025 8.57044 37.7093 8.61117 37.7191 8.65139L37.7938 9.02475C37.8541 9.30919 38.0216 9.49926 38.2961 9.59496L38.3844 9.62211C38.6396 9.71279 38.8614 9.66074 39.0496 9.46598L39.1175 9.3981C39.2457 9.26279 39.3158 9.10213 39.3279 8.91614L39.3551 8.53599C39.3551 8.53373 39.3551 8.53147 39.3551 8.52921L39.3823 7.95221L39.423 7.19871L39.4909 6.31624L39.5791 5.37268L39.6606 4.51057L39.7285 3.88605L39.7828 3.53306L39.8099 3.3973C39.7209 3.50242 39.6621 3.62235 39.6334 3.75707L39.6606 3.72313C39.4921 3.57793 39.2971 3.51396 39.0754 3.53122C38.8537 3.54848 38.6709 3.64186 38.5269 3.81138L38.5405 3.82496C38.7209 3.88524 38.8998 3.88128 39.0773 3.81306C39.2548 3.74484 39.3903 3.62795 39.4838 3.4624C39.5773 3.29684 39.6075 3.12045 39.5744 2.93321C39.5412 2.74597 39.4523 2.59067 39.3076 2.46731L39.2736 2.46052C39.3024 2.47359 39.3318 2.4849 39.3619 2.49446L39.2329 2.43337L38.9953 2.32476C38.9645 2.30918 38.9328 2.2956 38.9003 2.28403L38.4862 2.15505C38.4706 2.14776 38.4547 2.14097 38.4387 2.13469L37.8277 1.98534C37.821 1.98299 37.8142 1.98073 37.8074 1.97856L37.0064 1.79527C36.9974 1.79286 36.9883 1.7906 36.9792 1.78848L36.0085 1.6052C35.9972 1.60271 35.9859 1.60045 35.9746 1.59841L34.936 1.44228C34.9179 1.43946 34.8998 1.43719 34.8816 1.4355L33.8906 1.34046C33.8748 1.33776 33.859 1.3355 33.843 1.33367L33.042 1.29973C33.0217 1.29902 33.0013 1.29902 32.9809 1.29973L32.4786 1.30652C32.4093 1.30945 32.3414 1.32076 32.275 1.34046L32.0645 1.40156C31.7619 1.49287 31.5875 1.69491 31.5415 2.00769C31.4954 2.32046 31.6042 2.56418 31.8677 2.73884ZM38.1875 9.00438C38.1875 9.12623 38.2306 9.23023 38.3168 9.31638C38.4029 9.40254 38.5069 9.44562 38.6288 9.44562C38.7506 9.44562 38.8546 9.40254 38.9408 9.31638C39.0269 9.23023 39.07 9.12623 39.07 9.00438C39.07 8.88254 39.0269 8.77854 38.9408 8.69238C38.8546 8.60622 38.7506 8.56315 38.6288 8.56315C38.5069 8.56315 38.4029 8.60622 38.3168 8.69238C38.2306 8.77854 38.1875 8.88254 38.1875 9.00438ZM38.941 8.88219L38.9546 8.7057C38.9682 8.51563 38.8799 8.4138 38.6899 8.40023C38.4998 8.38665 38.398 8.4749 38.3844 8.66497L38.3708 8.84146C38.3574 9.03141 38.4456 9.13317 38.6356 9.14674C38.8255 9.16031 38.9273 9.07212 38.941 8.88219Z" fill="black"/>
<path d="M1.32064 1.76157C1.32064 1.88154 1.36306 1.98394 1.44789 2.06877C1.53272 2.1536 1.63512 2.19601 1.75509 2.19601C1.87506 2.19601 1.97746 2.1536 2.06229 2.06877C2.14712 1.98394 2.18954 1.88154 2.18954 1.76157C2.18954 1.6416 2.14712 1.5392 2.06229 1.45437C1.97746 1.36953 1.87506 1.32712 1.75509 1.32712C1.63512 1.32712 1.53272 1.36953 1.44789 1.45437C1.36306 1.5392 1.32064 1.6416 1.32064 1.76157ZM1.24597 1.76157C1.24597 1.90028 1.29501 2.01868 1.3931 2.11677C1.49119 2.21485 1.60959 2.2639 1.7483 2.2639C1.88701 2.2639 2.00541 2.21485 2.1035 2.11677C2.20159 2.01868 2.25063 1.90028 2.25063 1.76157C2.25063 1.62285 2.20159 1.50445 2.1035 1.40636C2.00541 1.30828 1.88701 1.25924 1.7483 1.25924C1.60959 1.25924 1.49119 1.30828 1.3931 1.40636C1.29501 1.50445 1.24597 1.62285 1.24597 1.76157ZM1.25955 1.46288L1.16451 1.59865C1.11262 1.67067 1.07641 1.74987 1.0559 1.83624L0.954076 2.2639C0.94573 2.29066 0.938942 2.31781 0.933711 2.34535L0.838676 3.13958C0.838426 3.15089 0.838426 3.16221 0.838676 3.17352L0.736852 4.38183C0.736813 4.38635 0.736813 4.39088 0.736852 4.3954L0.655393 5.78699C0.655304 5.79378 0.655304 5.80057 0.655393 5.80736L0.601088 7.20573C0.600927 7.21478 0.600927 7.22384 0.601088 7.23289V8.46156C0.600826 8.47287 0.600826 8.48419 0.601088 8.4955L0.641817 9.45264C0.641636 9.46169 0.641636 9.47074 0.641817 9.47979L0.696123 10.1518C0.695922 10.1609 0.695922 10.1699 0.696123 10.179L0.743641 10.5659C0.75146 10.6279 0.769562 10.6867 0.797947 10.7424L0.852252 10.8374C0.923578 10.9779 1.03705 11.0602 1.19268 11.0845C1.3483 11.1088 1.48147 11.0649 1.59217 10.9528L1.66684 10.8714C1.73299 10.8041 1.77825 10.7249 1.80261 10.6338L1.89764 10.2604C1.9063 10.2338 1.91309 10.2066 1.91801 10.179L1.99268 9.50695C1.99523 9.49569 1.99749 9.48438 1.99946 9.47301L2.06735 8.51586C2.06739 8.51134 2.06739 8.50681 2.06735 8.50229L2.13523 7.27362L2.20311 5.87524L2.28457 4.49044L2.36603 3.28213C2.36607 3.27761 2.36607 3.27308 2.36603 3.26855L2.39997 2.46754C2.40124 2.44265 2.40124 2.41776 2.39997 2.39287L2.37961 1.95842C2.37529 1.89308 2.36171 1.82973 2.33888 1.76835L2.28457 1.61222C2.20691 1.38909 2.05118 1.26049 1.81739 1.22643C1.58359 1.19237 1.39765 1.27118 1.25955 1.46288ZM1.53786 10.5523L1.52429 10.4098C1.47706 10.2443 1.36776 10.1692 1.19638 10.1845C1.02499 10.1997 0.930651 10.2929 0.913347 10.4641L0.926923 10.6066C0.97415 10.7721 1.08345 10.8472 1.25484 10.832C1.42622 10.8167 1.52056 10.7235 1.53786 10.5523Z" fill="black"/>
<path d="M1.44965 1.71404C1.44965 1.81152 1.48411 1.89472 1.55304 1.96364C1.62196 2.03257 1.70516 2.06703 1.80264 2.06703C1.90011 2.06703 1.98331 2.03257 2.05224 1.96364C2.12117 1.89472 2.15563 1.81152 2.15563 1.71404C2.15563 1.61657 2.12117 1.53337 2.05224 1.46444C1.98331 1.39552 1.90011 1.36105 1.80264 1.36105C1.70516 1.36105 1.62196 1.39552 1.55304 1.46444C1.48411 1.53337 1.44965 1.61657 1.44965 1.71404ZM2.09453 2.03988L2.12169 2.01951C2.32288 1.85077 2.35598 1.65378 2.22099 1.42855C2.08601 1.20331 1.89668 1.13963 1.65301 1.2375C1.40934 1.33537 1.31667 1.51232 1.37498 1.76835L1.38177 1.80229C1.39749 1.87807 1.43106 1.94489 1.48249 2.00273C1.53392 2.06057 1.59635 2.10173 1.66978 2.12621C1.7432 2.15068 1.81784 2.15521 1.89369 2.1398C1.96954 2.12438 2.03649 2.09107 2.09453 2.03988ZM1.32067 1.61901C1.32067 1.76334 1.37171 1.88654 1.47377 1.98861C1.57583 2.09067 1.69903 2.1417 1.84337 2.1417C1.98771 2.1417 2.11091 2.09067 2.21297 1.98861C2.31503 1.88654 2.36606 1.76334 2.36606 1.61901C2.36606 1.47467 2.31503 1.35147 2.21297 1.24941C2.11091 1.14734 1.98771 1.09631 1.84337 1.09631C1.69903 1.09631 1.57583 1.14734 1.47377 1.24941C1.37171 1.35147 1.32067 1.47467 1.32067 1.61901ZM1.36819 1.28638L1.32067 1.35426C1.27896 1.4126 1.24728 1.47596 1.22564 1.54434L1.13739 1.83623C1.12861 1.86748 1.12182 1.89916 1.11703 1.93127L1.00842 2.549C1.00524 2.57153 1.00298 2.59416 1.00163 2.61688L0.91338 3.66227C0.911078 3.66677 0.908816 3.6713 0.906592 3.67584L0.818345 5.06064C0.818267 5.06743 0.818267 5.07422 0.818345 5.08101L0.743674 6.60157C0.743537 6.61062 0.743537 6.61968 0.743674 6.62873L0.723309 8.09499C0.723171 8.10404 0.723171 8.11309 0.723309 8.12214L0.736886 9.38475C0.736456 9.40059 0.736456 9.41643 0.736886 9.43227L0.804768 10.3826C0.806896 10.4191 0.811421 10.4553 0.818345 10.4912L0.947321 11.1158C0.972097 11.2411 1.0264 11.352 1.11024 11.4484L1.26637 11.6317C1.37773 11.7605 1.51849 11.8214 1.68864 11.8145C1.85879 11.8075 1.99409 11.7352 2.09453 11.5977L2.23709 11.3941C2.30627 11.2983 2.34926 11.192 2.36606 11.075L2.45431 10.4437C2.4584 10.4122 2.46066 10.3805 2.4611 10.3487L2.48825 9.39154C2.48826 9.38928 2.48826 9.38702 2.48825 9.38475L2.50183 8.12214L2.53577 6.66946L2.59686 5.16247L2.67153 3.78445C2.67161 3.77767 2.67161 3.77088 2.67153 3.76409L2.69869 2.7187C2.70046 2.68702 2.70046 2.65534 2.69869 2.62367L2.64438 1.99915C2.64116 1.94387 2.63211 1.88956 2.61723 1.83623L2.52898 1.54434C2.48436 1.39475 2.39838 1.27483 2.27103 1.18456L2.20315 1.13704C2.0674 1.04167 1.91787 1.00859 1.75456 1.0378C1.59125 1.06701 1.46246 1.14987 1.36819 1.28638ZM1.96556 11.2855L1.97235 11.109C1.9463 10.9497 1.85267 10.8663 1.69145 10.8588C1.53024 10.8513 1.42927 10.9256 1.38856 11.0818L1.38177 11.2583C1.40781 11.4176 1.50144 11.501 1.66266 11.5085C1.82387 11.516 1.92484 11.4416 1.96556 11.2855Z" fill="black"/>
<path d="M1.49036 1.38147C1.49036 1.49769 1.53145 1.59689 1.61363 1.67907C1.69581 1.76125 1.79501 1.80234 1.91123 1.80234C2.02745 1.80234 2.12665 1.76125 2.20883 1.67907C2.29101 1.59689 2.3321 1.49769 2.3321 1.38147C2.3321 1.26525 2.29101 1.16604 2.20883 1.08386C2.12665 1.00168 2.02745 0.960595 1.91123 0.960595C1.79501 0.960595 1.69581 1.00168 1.61363 1.08386C1.53145 1.16604 1.49036 1.26525 1.49036 1.38147ZM1.44963 1.37468C1.44963 1.50214 1.4947 1.61094 1.58483 1.70108C1.67496 1.79121 1.78376 1.83628 1.91123 1.83628C2.0387 1.83628 2.1475 1.79121 2.23763 1.70108C2.32776 1.61094 2.37283 1.50214 2.37283 1.37468C2.37283 1.24721 2.32776 1.13841 2.23763 1.04828C2.1475 0.958143 2.0387 0.913077 1.91123 0.913077C1.78376 0.913077 1.67496 0.958143 1.58483 1.04828C1.4947 1.13841 1.44963 1.24721 1.44963 1.37468ZM1.38854 1.3611C1.38854 1.50169 1.43824 1.62169 1.53765 1.7211C1.63707 1.82051 1.75707 1.87022 1.89765 1.87022C2.03824 1.87022 2.15824 1.82051 2.25766 1.7211C2.35707 1.62169 2.40677 1.50169 2.40677 1.3611C2.40677 1.22051 2.35707 1.10051 2.25766 1.0011C2.15824 0.901689 2.03824 0.851983 1.89765 0.851983C1.75707 0.851983 1.63707 0.901689 1.53765 1.0011C1.43824 1.10051 1.38854 1.22051 1.38854 1.3611ZM1.27993 1.32037C1.27993 1.48908 1.33957 1.63308 1.45887 1.75237C1.57816 1.87167 1.72216 1.93131 1.89087 1.93131C2.05957 1.93131 2.20357 1.87167 2.32287 1.75237C2.44216 1.63308 2.50181 1.48908 2.50181 1.32037C2.50181 1.15166 2.44216 1.00766 2.32287 0.88837C2.20357 0.769077 2.05957 0.70943 1.89087 0.70943C1.72216 0.70943 1.57816 0.769077 1.45887 0.88837C1.33957 1.00766 1.27993 1.15166 1.27993 1.32037ZM1.66685 1.92452L1.67364 1.93131C1.69606 1.93687 1.71869 1.9414 1.74153 1.94489L1.80262 1.96525C1.86295 1.97894 1.92404 1.98573 1.9859 1.98562H2.06057L2.22349 2.01277L2.55611 2.08744C2.56513 2.08984 2.57418 2.0921 2.58327 2.09423L3.07881 2.18248C3.0991 2.18539 3.11947 2.18765 3.1399 2.18927L3.75763 2.26394C3.77347 2.26432 3.78931 2.26432 3.80515 2.26394L4.51792 2.31824C4.52018 2.31825 4.52244 2.31825 4.5247 2.31824L5.25783 2.35897L5.93666 2.40649L6.52723 2.48116L7.0635 2.5762L7.51832 2.66444C7.52284 2.66448 7.52737 2.66448 7.53189 2.66444L7.88488 2.72554C7.9298 2.73347 7.97505 2.73799 8.02065 2.73911L8.27181 2.7459C8.37417 2.74766 8.47373 2.73182 8.57049 2.69838L8.70626 2.65087C9.01643 2.54169 9.19258 2.32404 9.23471 1.99792C9.27684 1.67181 9.16178 1.41654 8.88954 1.23212L8.77414 1.15745C8.71684 1.11847 8.65574 1.08679 8.59086 1.06242L8.35327 0.974171C8.34425 0.971769 8.3352 0.969506 8.32612 0.967383L7.98671 0.851983C7.97543 0.849511 7.96412 0.847248 7.95276 0.845195L7.50474 0.70943C7.48677 0.704378 7.46867 0.699853 7.45043 0.695853L6.90059 0.566877C6.87138 0.561006 6.84196 0.556481 6.81234 0.5533L6.17425 0.458265C6.14719 0.454874 6.12003 0.452611 6.09279 0.451477L5.38002 0.403959C5.3755 0.403928 5.37097 0.403928 5.36645 0.403959L4.6401 0.363229L3.94091 0.3225L3.32319 0.268194C3.31866 0.26816 3.31413 0.26816 3.30961 0.268194L2.81407 0.241041C2.78701 0.237593 2.75986 0.23533 2.73261 0.234253L2.37283 0.247829C2.34342 0.246368 2.314 0.246368 2.28458 0.247829L2.04021 0.281771C1.94276 0.292965 1.84999 0.320118 1.76189 0.363229L1.63291 0.424324C1.39102 0.544151 1.24394 0.736484 1.19168 1.00132L1.1781 1.06242C1.11284 1.3887 1.21693 1.64666 1.49036 1.83628L1.49715 1.84307C1.55003 1.8779 1.6066 1.90506 1.66685 1.92452ZM7.91882 1.89058C7.91882 2.06304 7.97979 2.21024 8.10174 2.33218C8.22368 2.45413 8.37089 2.5151 8.54334 2.5151C8.7158 2.5151 8.863 2.45413 8.98494 2.33218C9.10689 2.21024 9.16786 2.06304 9.16786 1.89058C9.16786 1.71813 9.10689 1.57093 8.98494 1.44898C8.863 1.32704 8.7158 1.26607 8.54334 1.26607C8.37089 1.26607 8.22368 1.32704 8.10174 1.44898C7.97979 1.57093 7.91882 1.71813 7.91882 1.89058ZM8.19714 1.86343C8.19714 1.9684 8.23425 2.058 8.30848 2.13223C8.38271 2.20646 8.47231 2.24357 8.57728 2.24357C8.68226 2.24357 8.77186 2.20646 8.84608 2.13223C8.92031 2.058 8.95742 1.9684 8.95742 1.86343C8.95742 1.75846 8.92031 1.66886 8.84608 1.59463C8.77186 1.5204 8.68226 1.48329 8.57728 1.48329C8.47231 1.48329 8.38271 1.5204 8.30848 1.59463C8.23425 1.66886 8.19714 1.75846 8.19714 1.86343ZM8.79451 1.69372L8.78093 1.67336C8.68589 1.52854 8.56597 1.50365 8.42115 1.59869C8.27634 1.69372 8.25145 1.81365 8.34648 1.95847L8.36006 1.97883C8.45509 2.12365 8.57502 2.14854 8.71984 2.0535C8.86465 1.95847 8.88954 1.83854 8.79451 1.69372Z" fill="black"/>
<path d="M1.8026 2.23673C1.8026 2.35857 1.84568 2.46257 1.93183 2.54873C2.01799 2.63489 2.12199 2.67797 2.24383 2.67797C2.36568 2.67797 2.46968 2.63489 2.55583 2.54873C2.64199 2.46257 2.68507 2.35857 2.68507 2.23673C2.68507 2.11489 2.64199 2.01089 2.55583 1.92473C2.46968 1.83857 2.36568 1.79549 2.24383 1.79549C2.12199 1.79549 2.01799 1.83857 1.93183 1.92473C1.84568 2.01089 1.8026 2.11489 1.8026 2.23673ZM1.78902 2.22994C1.78902 2.35366 1.83276 2.45926 1.92024 2.54674C2.00773 2.63422 2.11333 2.67797 2.23704 2.67797C2.36076 2.67797 2.46636 2.63422 2.55385 2.54674C2.64133 2.45926 2.68507 2.35366 2.68507 2.22994C2.68507 2.10622 2.64133 2.00062 2.55385 1.91314C2.46636 1.82566 2.36076 1.78192 2.23704 1.78192C2.11333 1.78192 2.00773 1.82566 1.92024 1.91314C1.83276 2.00062 1.78902 2.10622 1.78902 2.22994ZM1.69399 2.22315C1.69399 2.36749 1.74502 2.49069 1.84708 2.59275C1.94914 2.69482 2.07234 2.74585 2.21668 2.74585C2.36102 2.74585 2.48422 2.69482 2.58628 2.59275C2.68834 2.49069 2.73937 2.36749 2.73937 2.22315C2.73937 2.07882 2.68834 1.95561 2.58628 1.85355C2.48422 1.75149 2.36102 1.70046 2.21668 1.70046C2.07234 1.70046 1.94914 1.75149 1.84708 1.85355C1.74502 1.95561 1.69399 2.07882 1.69399 2.22315ZM1.6261 2.20958C1.62618 2.36511 1.68122 2.49785 1.79122 2.6078C1.90123 2.71775 2.034 2.77273 2.18953 2.77273C2.34506 2.77273 2.47783 2.71775 2.58783 2.6078C2.69783 2.49785 2.75287 2.36511 2.75295 2.20958C2.75287 2.05405 2.69783 1.9213 2.58783 1.81135C2.47783 1.7014 2.34506 1.64643 2.18953 1.64643C2.034 1.64643 1.90123 1.7014 1.79122 1.81135C1.68122 1.9213 1.62618 2.05405 1.6261 2.20958ZM1.53107 2.18921C1.53107 2.36917 1.59469 2.52277 1.72194 2.65001C1.84918 2.77726 2.00278 2.84088 2.18274 2.84088C2.36269 2.84088 2.51629 2.77726 2.64354 2.65001C2.77079 2.52277 2.83441 2.36917 2.83441 2.18921C2.83441 2.00926 2.77079 1.85566 2.64354 1.72841C2.51629 1.60116 2.36269 1.53754 2.18274 1.53754C2.00278 1.53754 1.84918 1.60116 1.72194 1.72841C1.59469 1.85566 1.53107 2.00926 1.53107 2.18921ZM2.01982 2.86125L2.12164 2.89519C2.17722 2.91045 2.23379 2.9195 2.29135 2.92234L2.52894 2.93592C2.56741 2.93861 2.60587 2.93861 2.64434 2.93592L3.072 2.90877C3.08109 2.90665 3.09014 2.90439 3.09915 2.90198L3.73046 2.84088C3.73273 2.83863 3.735 2.83637 3.73725 2.8341L4.55862 2.74585L5.51576 2.6576L6.47969 2.59651L7.36217 2.55578L8.14281 2.53541C8.14508 2.53542 8.14734 2.53542 8.1496 2.53541L8.79448 2.50826C8.81711 2.50928 8.83974 2.50928 8.86237 2.50826L9.3647 2.44038C9.40399 2.43484 9.44246 2.42579 9.4801 2.41322L9.83987 2.29782C9.86069 2.2924 9.88106 2.28561 9.90097 2.27746L10.0367 2.21637L10.1386 2.23673C10.3313 2.26165 10.4467 2.17884 10.4848 1.98829C10.5229 1.79774 10.4482 1.67691 10.2607 1.62579L10.1521 1.60542L10.0232 1.49002C9.99817 1.46677 9.97101 1.44641 9.9417 1.42893L9.61586 1.23886C9.56895 1.20992 9.51917 1.18729 9.46652 1.17098L8.97777 1.02842C8.93779 1.01598 8.89706 1.00693 8.85558 1.00127L8.21748 0.9266C8.20847 0.92418 8.19942 0.921917 8.19033 0.919811L7.4029 0.858717C7.38253 0.857984 7.36217 0.857984 7.3418 0.858717L6.44575 0.845141C6.42313 0.844263 6.4005 0.844263 6.37787 0.845141L5.39358 0.906235C5.38226 0.906016 5.37095 0.906016 5.35964 0.906235L4.38213 1.00806C4.37534 1.00798 4.36855 1.00798 4.36176 1.00806L3.54039 1.10988C3.53134 1.10974 3.52228 1.10974 3.51323 1.10988L2.88193 1.20492C2.87284 1.20703 2.86379 1.20929 2.85477 1.21171L2.4339 1.29316C2.40652 1.29633 2.37937 1.30086 2.35244 1.30674L2.11486 1.37462C2.02865 1.40172 1.94945 1.44245 1.87727 1.49681L1.78902 1.55791C1.54428 1.7397 1.4485 1.9807 1.50166 2.2809C1.55482 2.5811 1.72754 2.77455 2.01982 2.86125Z" fill="black"/>
</g>
<defs>
<clipPath id="clip0_1_7223">
<rect width="40" height="38" fill="white"/>
</clipPath>
</defs>
</svg>
