<svg width="40" height="37" viewBox="0 0 40 37" fill="none" xmlns="http://www.w3.org/2000/svg">
<g clip-path="url(#clip0_1_7170)">
<path d="M20.4966 2.03622L20.4903 2.02997C20.4414 1.97278 20.381 1.93319 20.309 1.91119L20.2653 1.89869C20.2102 1.88147 20.154 1.87522 20.0965 1.87994L19.9777 1.88619C19.9372 1.88986 19.8976 1.8982 19.859 1.91119L19.6527 1.97996C19.6204 1.98982 19.5891 2.00232 19.5589 2.01746L19.2901 2.16124C19.2663 2.17443 19.2434 2.18901 19.2213 2.205L18.8525 2.45505C18.8238 2.47604 18.7967 2.49896 18.7713 2.52381L18.3212 2.94264C18.3015 2.96047 18.2827 2.97923 18.2649 2.9989L17.7273 3.59276C17.7187 3.60299 17.7104 3.61341 17.7023 3.62402L17.0897 4.37416C17.0854 4.38036 17.0813 4.38661 17.0772 4.39292L16.4083 5.24308C16.4083 5.24516 16.4083 5.24725 16.4083 5.24933L15.7144 6.14325L14.9705 7.04967L14.2079 7.96235C14.2058 7.9665 14.2037 7.97067 14.2016 7.97485L13.4577 8.90002C13.4536 8.90208 13.4494 8.90416 13.4452 8.90628L12.7264 9.81895C12.7242 9.8231 12.7222 9.82727 12.7201 9.83145L12.0387 10.7191C12.0324 10.7253 12.0261 10.7315 12.02 10.7379L11.3948 11.6005C11.3885 11.6088 11.3822 11.6171 11.3761 11.6255L10.801 12.4695C10.7968 12.4736 10.7926 12.4778 10.7885 12.482L10.2446 13.3134C10.2425 13.3154 10.2405 13.3175 10.2384 13.3196L9.70077 14.151L9.15067 14.9887L8.61932 15.7888L8.10047 16.5765L7.57537 17.3516C7.57536 17.3537 7.57536 17.3558 7.57537 17.3579L7.07527 18.1143C7.07316 18.1184 7.07108 18.1226 7.06902 18.1268L6.60644 18.8582C6.60434 18.8602 6.60226 18.8623 6.60018 18.8644L6.15635 19.5708L5.68751 20.2897L5.21242 21.0211C5.21031 21.0252 5.20822 21.0294 5.20617 21.0336L4.76233 21.7275C4.76022 21.7316 4.75814 21.7358 4.75608 21.74L4.35601 22.3963C4.35389 22.4005 4.35181 22.4047 4.34976 22.4088L3.98719 23.0215L3.61837 23.6466C3.61628 23.6466 3.6142 23.6466 3.61211 23.6466L3.24329 24.278C3.24118 24.2821 3.2391 24.2863 3.23704 24.2905L2.86197 24.9406L2.49315 25.5719C2.48892 25.5782 2.48475 25.5844 2.48065 25.5907L2.15559 26.1908C2.14915 26.2011 2.1429 26.2115 2.13683 26.2221L1.85553 26.7847C1.84652 26.8052 1.83818 26.8261 1.83053 26.8472L1.60548 27.3723C1.59647 27.3929 1.58814 27.4137 1.58048 27.4348L1.41795 27.9224C1.41361 27.9327 1.40944 27.9432 1.40544 27.9537L1.26167 28.4225C1.25726 28.4349 1.2531 28.4474 1.24917 28.46L1.12414 28.9163C1.11682 28.9432 1.11057 28.9703 1.10539 28.9976L1.02412 29.4477C1.01459 29.4952 1.00834 29.5431 1.00537 29.5915L0.986615 30.0541C0.983523 30.1147 0.985606 30.1751 0.992866 30.2353L1.04913 30.6917C1.05883 30.773 1.07759 30.8522 1.10539 30.9292L1.28042 31.3981C1.30847 31.4706 1.34389 31.5394 1.38669 31.6043L1.68675 32.0857C1.71504 32.1296 1.74629 32.1713 1.78052 32.2107L2.21185 32.7233C2.24125 32.7564 2.2725 32.7877 2.30562 32.8171L2.88698 33.3672C2.92828 33.4037 2.97204 33.4371 3.01825 33.4672L3.7934 34.0048C3.82362 34.0272 3.85487 34.048 3.88717 34.0673L4.88111 34.6112C4.90761 34.6268 4.93469 34.6414 4.96237 34.6549L6.18135 35.205C6.20187 35.2161 6.22271 35.2265 6.24387 35.2363L7.60663 35.7614C7.6334 35.7707 7.66049 35.7791 7.68789 35.7864L9.08816 36.2115C9.14751 36.2292 9.20793 36.2417 9.26944 36.249L10.6385 36.4178C10.7547 36.4324 10.8693 36.4241 10.9823 36.3928L11.9825 36.1052L12.8701 36.2365C13.074 36.2653 13.1906 36.1777 13.2197 35.9739C13.2488 35.77 13.1615 35.6533 12.9576 35.6239L12.0887 35.4988L11.2886 34.8675C11.2292 34.8194 11.1646 34.7798 11.0948 34.7487L9.83205 34.1923C9.81962 34.1879 9.80712 34.1838 9.79454 34.1798L8.43803 33.6422L7.10653 33.1046L5.93756 32.5795L5.01863 32.0982L4.34976 31.6481L3.84966 31.2043L3.48084 30.8104L3.26205 30.4916L3.15578 30.2416L3.11827 30.029L3.12452 29.7352L3.18078 29.3789L3.2683 28.9788L3.38082 28.5663L3.53085 28.1412L3.72464 27.6723L3.98094 27.1597L4.28724 26.5846L4.64356 25.9658L5.01238 25.3156C5.01447 25.3136 5.01656 25.3115 5.01863 25.3094L5.3812 24.6655L5.73752 24.0467L6.08759 23.4403L6.47516 22.7964L6.90649 22.115L7.37533 21.3837L7.84417 20.6585C7.84628 20.6544 7.84837 20.6502 7.85042 20.646L8.30051 19.9271L8.75684 19.202L9.24444 18.4518L9.75704 17.6767L10.2759 16.889C10.278 16.887 10.2801 16.8849 10.2821 16.8828L10.8135 16.0764L11.3636 15.2387C11.3657 15.2346 11.3678 15.2304 11.3698 15.2262L11.9012 14.3948L12.4388 13.5697L12.9952 12.7445L13.6015 11.9006L14.2704 11.0192L14.9705 10.1003L15.7019 9.18133C15.7061 9.17927 15.7103 9.17719 15.7144 9.17508L16.4458 8.23115C16.4501 8.22495 16.4542 8.21869 16.4583 8.21239L17.1709 7.26221C17.1709 7.26013 17.1709 7.25805 17.1709 7.25596L17.8523 6.33704C17.8523 6.33495 17.8523 6.33287 17.8523 6.33079L18.4837 5.45562L19.0588 4.67422L19.5276 4.0241C19.5297 4.02202 19.5318 4.01994 19.5339 4.01785L19.8965 3.5115C19.8986 3.50943 19.9006 3.50734 19.9027 3.50525L20.1465 3.14268L20.3278 2.90513C20.3367 2.8909 20.3451 2.87631 20.3528 2.86138L20.4653 2.67384C20.4834 2.64204 20.498 2.6087 20.5091 2.57382L20.5528 2.4613C20.5634 2.42664 20.5697 2.39122 20.5716 2.35503L20.5778 2.31127C20.5747 2.3278 20.5726 2.34447 20.5716 2.36128V2.34878C20.597 2.23248 20.572 2.1283 20.4966 2.03622Z" fill="black"/>
<path d="M8.1005 34.8237C8.1005 34.9445 8.14322 35.0476 8.22867 35.1331C8.31411 35.2185 8.41725 35.2612 8.53808 35.2612C8.65892 35.2612 8.76206 35.2185 8.8475 35.1331C8.93295 35.0476 8.97567 34.9445 8.97567 34.8237C8.97567 34.7028 8.93295 34.5997 8.8475 34.5142C8.76206 34.4288 8.65892 34.3861 8.53808 34.3861C8.41725 34.3861 8.31411 34.4288 8.22867 34.5142C8.14322 34.5997 8.1005 34.7028 8.1005 34.8237ZM8.0755 34.8237C8.0755 34.9497 8.12005 35.0572 8.20915 35.1463C8.29826 35.2354 8.40582 35.28 8.53183 35.28C8.65785 35.28 8.76541 35.2354 8.85451 35.1463C8.94362 35.0572 8.98817 34.9497 8.98817 34.8237C8.98817 34.6976 8.94362 34.5901 8.85451 34.501C8.76541 34.4119 8.65785 34.3673 8.53183 34.3673C8.40582 34.3673 8.29826 34.4119 8.20915 34.501C8.12005 34.5901 8.0755 34.6976 8.0755 34.8237ZM7.91922 34.8049C7.91922 34.9689 7.9772 35.1089 8.09315 35.2248C8.20911 35.3408 8.34909 35.3988 8.51308 35.3988C8.67707 35.3988 8.81704 35.3408 8.933 35.2248C9.04896 35.1089 9.10694 34.9689 9.10694 34.8049C9.10694 34.6409 9.04896 34.5009 8.933 34.385C8.81704 34.269 8.67707 34.211 8.51308 34.211C8.34909 34.211 8.20911 34.269 8.09315 34.385C7.9772 34.5009 7.91922 34.6409 7.91922 34.8049ZM7.75043 34.7737C7.75043 34.9756 7.82184 35.148 7.96465 35.2908C8.10747 35.4336 8.27986 35.505 8.48182 35.505C8.68379 35.505 8.85618 35.4336 8.99899 35.2908C9.14181 35.148 9.21321 34.9756 9.21321 34.7737C9.21321 34.5717 9.14181 34.3993 8.99899 34.2565C8.85618 34.1137 8.68379 34.0423 8.48182 34.0423C8.27986 34.0423 8.10747 34.1137 7.96465 34.2565C7.82184 34.3993 7.75043 34.5717 7.75043 34.7737ZM7.78794 35.205L7.8192 35.2487C7.9217 35.4028 8.05922 35.5132 8.23178 35.5801L8.43181 35.6613C8.46046 35.6732 8.48963 35.6836 8.51933 35.6926L8.8819 35.7926C8.90253 35.7996 8.92336 35.8058 8.94441 35.8114L9.48201 35.9239C9.52536 35.933 9.56912 35.9392 9.61329 35.9426L10.3822 36.0051C10.403 36.0079 10.4238 36.0099 10.4447 36.0114L11.4449 36.0301C11.4553 36.0303 11.4657 36.0303 11.4761 36.0301L12.6826 36.0239C12.6889 36.024 12.6951 36.024 12.7014 36.0239L14.1016 35.9864L15.6644 35.9551C15.6686 35.9551 15.6728 35.9551 15.6769 35.9551L17.3523 35.8989C17.3627 35.899 17.3731 35.899 17.3835 35.8989L19.1776 35.7863C19.1818 35.7863 19.1859 35.7863 19.1901 35.7863L21.0592 35.6426C21.0613 35.6426 21.0634 35.6426 21.0655 35.6426L22.8783 35.4988L24.5411 35.38L26.0227 35.3113L27.3667 35.2675L28.6107 35.255H29.7484L30.7486 35.2612C30.7695 35.2598 30.7903 35.2577 30.8111 35.255L31.6612 35.2175C31.8463 35.2064 32.0151 35.148 32.1676 35.0425L32.6177 34.7361L32.874 34.5799L33.0865 34.5861C33.3032 34.5903 33.4137 34.484 33.4178 34.2673C33.422 34.0506 33.3157 33.9402 33.099 33.936H32.8927L32.6489 33.7672L32.2113 33.4359C32.0653 33.3234 31.9007 33.2567 31.7175 33.2359L30.8673 33.1421C30.8383 33.1388 30.8091 33.1367 30.7798 33.1358L29.7734 33.1171C29.7713 33.1171 29.7692 33.1171 29.7671 33.1171L28.6232 33.0921C28.6148 33.092 28.6065 33.092 28.5982 33.0921L27.3354 33.1046C27.3292 33.1045 27.3229 33.1045 27.3167 33.1046L25.9539 33.1358C25.9456 33.1358 25.9372 33.1358 25.9289 33.1358L24.4286 33.2046C24.4224 33.2045 24.4161 33.2045 24.4099 33.2046L22.7283 33.3109C22.722 33.3108 22.7158 33.3108 22.7095 33.3109L20.8904 33.4547L19.0276 33.5984L17.246 33.7235L15.5894 33.8172L14.0391 33.886L12.6576 33.9235L11.4699 33.9297L10.4822 33.9235L9.71331 33.911L9.18196 33.9047L8.81939 33.886C8.7923 33.8848 8.76521 33.8848 8.73812 33.886L8.51933 33.8922C8.33104 33.8982 8.16226 33.9586 8.01298 34.0735L7.96923 34.1048C7.79956 34.2361 7.69728 34.4076 7.66241 34.6193C7.62753 34.8309 7.66937 35.0262 7.78794 35.205Z" fill="black"/>
<path d="M19.4652 1.89869C19.4652 2.00226 19.5018 2.09067 19.575 2.16391C19.6483 2.23714 19.7367 2.27376 19.8402 2.27376C19.9438 2.27376 20.0322 2.23714 20.1055 2.16391C20.1787 2.09067 20.2153 2.00226 20.2153 1.89869C20.2153 1.79512 20.1787 1.70671 20.1055 1.63347C20.0322 1.56024 19.9438 1.52362 19.8402 1.52362C19.7367 1.52362 19.6483 1.56024 19.575 1.63347C19.5018 1.70671 19.4652 1.79512 19.4652 1.89869ZM20.1903 2.17374L20.2091 2.14874L20.2653 2.09873L20.4154 1.99871L20.6341 1.84868L20.8342 1.72991L20.9967 1.6799L21.103 1.67365L21.2655 1.71115L21.5343 1.82368L21.8469 1.9737C21.849 1.97371 21.851 1.97371 21.8531 1.9737L22.1844 2.13624L22.447 2.28001L22.6908 2.4613L22.9471 2.69259L23.2096 2.99265L23.4847 3.33646L23.7597 3.71154L24.0473 4.13036L24.3411 4.59295L24.6599 5.13056L24.9975 5.76193L25.3663 6.44956L25.7226 7.17469L26.0602 7.89358L26.379 8.59371L26.6728 9.26884C26.6768 9.27933 26.6809 9.28975 26.6853 9.3001L26.9979 9.94397C27.0039 9.95451 27.0102 9.96493 27.0166 9.97523L27.3542 10.6128C27.3583 10.6191 27.3624 10.6254 27.3667 10.6316L27.7292 11.2817L28.1043 11.9381L28.4669 12.582L28.7982 13.2258L29.1233 13.8947L29.4421 14.5886C29.4441 14.5928 29.4462 14.597 29.4483 14.6011L29.7859 15.3075C29.788 15.3096 29.79 15.3117 29.7921 15.3137L30.1547 16.0576C30.1588 16.066 30.1629 16.0744 30.1672 16.0826L30.561 16.8328C30.5631 16.837 30.5652 16.8411 30.5673 16.8453L31.0049 17.6454C31.0069 17.6496 31.009 17.6538 31.0111 17.6579L31.4675 18.4643L31.8988 19.2707L32.3051 20.0646L32.6927 20.8648C32.6968 20.8711 32.701 20.8774 32.7052 20.8836L33.099 21.6525C33.105 21.6651 33.1112 21.6776 33.1178 21.69L33.5428 22.4338C33.5528 22.4508 33.5632 22.4675 33.5741 22.4839L34.0242 23.1715C34.0262 23.1778 34.0283 23.184 34.0304 23.1902L34.468 23.8216L34.8306 24.403L35.1244 24.9531L35.3744 25.4969L35.587 26.0533C35.591 26.0617 35.5952 26.07 35.5995 26.0783L35.8245 26.6096L36.0308 27.0972L36.1934 27.5911L36.3496 28.1099L36.4809 28.6225C36.483 28.6246 36.4851 28.6267 36.4872 28.6288L36.6184 29.1289C36.6203 29.1393 36.6224 29.1497 36.6247 29.1601L36.7622 29.6102C36.7677 29.6313 36.774 29.6521 36.781 29.6727L36.9372 30.0728C36.9372 30.077 36.9372 30.0811 36.9372 30.0853L37.081 30.4291L37.181 30.7104L37.2436 30.9792L37.2936 31.2605L37.3186 31.4731V31.5293L37.3436 31.4481L37.3811 31.3793L37.4061 31.3605L37.3311 31.3981L37.0185 31.4731L36.4809 31.5481L35.7745 31.6231L34.9431 31.6856L34.0492 31.7419C34.0283 31.7433 34.0075 31.7454 33.9867 31.7481L32.3489 31.9544C32.0851 31.9806 31.868 32.0953 31.6978 32.2985C31.5275 32.5018 31.4526 32.7355 31.473 32.9999C31.4934 33.2642 31.6033 33.4837 31.8027 33.6584C32.0021 33.8331 32.2342 33.9131 32.4989 33.8985L34.143 33.8548C34.1617 33.8553 34.1805 33.8553 34.1992 33.8548L35.0931 33.786C35.0973 33.786 35.1015 33.786 35.1056 33.786L35.9621 33.711C35.9809 33.7094 35.9996 33.7073 36.0183 33.7047L36.756 33.5985C36.7854 33.5935 36.8146 33.5872 36.8435 33.5797L37.4373 33.4422C37.4798 33.4324 37.5215 33.4199 37.5624 33.4047L37.9812 33.2484C38.0153 33.2357 38.0487 33.2211 38.0812 33.2046L38.3688 33.0546C38.4486 33.0147 38.5215 32.9647 38.5876 32.9046L38.7751 32.7358C38.8473 32.668 38.9078 32.5909 38.9564 32.5045L39.0626 32.3232C39.1177 32.2276 39.1552 32.1255 39.1752 32.0169L39.2127 31.8169C39.2243 31.7486 39.2285 31.6798 39.2252 31.6106L39.2189 31.373C39.2184 31.3417 39.2163 31.3104 39.2127 31.2793L39.1752 30.9917C39.1718 30.9687 39.1677 30.9457 39.1627 30.923L39.0939 30.5979C39.087 30.5683 39.0786 30.5392 39.0689 30.5104L38.9689 30.1728C38.9596 30.1474 38.9491 30.1224 38.9376 30.0978L38.8001 29.7602L38.6626 29.4102L38.5313 29.0414L38.4063 28.635L38.2813 28.1599L38.1437 27.6286C38.1397 27.6202 38.1355 27.6119 38.1312 27.6036L37.9749 27.0535C37.9711 27.0388 37.967 27.0242 37.9624 27.0097L37.7812 26.4721C37.7753 26.4574 37.769 26.4428 37.7624 26.4284L37.5499 25.9033C37.5499 25.9012 37.5499 25.8991 37.5499 25.897L37.3311 25.3594L37.1123 24.7968C37.1064 24.7821 37.1001 24.7675 37.0935 24.753L36.8247 24.1529C36.8171 24.1318 36.8088 24.111 36.7997 24.0904L36.4747 23.484C36.4649 23.4649 36.4545 23.4462 36.4434 23.4278L36.0558 22.8089C36.0517 22.8047 36.0475 22.8005 36.0433 22.7964L35.6182 22.14L35.1994 21.4712L34.8056 20.7648L34.4243 20.0146L34.0367 19.2082C34.0346 19.2041 34.0326 19.1999 34.0304 19.1957L33.6179 18.3831C33.6179 18.381 33.6179 18.3789 33.6179 18.3768L33.1928 17.5517C33.1888 17.5412 33.1846 17.5308 33.1803 17.5204L32.7239 16.7015C32.7239 16.6994 32.7239 16.6973 32.7239 16.6953L32.2801 15.9076L31.8988 15.1887L31.5487 14.4573L31.2174 13.7572L30.8923 13.0633C30.8903 13.0612 30.8882 13.0591 30.8861 13.0571L30.5548 12.3632C30.5528 12.3569 30.5507 12.3507 30.5485 12.3444L30.2047 11.6693C30.1986 11.6609 30.1923 11.6525 30.186 11.6443L29.8234 10.9817C29.8193 10.9754 29.8151 10.9691 29.8109 10.9629L29.4421 10.319L29.0858 9.68142L28.7607 9.06881L28.4669 8.45619L28.1668 7.79356C28.1668 7.79148 28.1668 7.7894 28.1668 7.78731L27.848 7.08093C27.8459 7.07883 27.8439 7.07675 27.8418 7.07468L27.5042 6.33703C27.4982 6.3244 27.492 6.3119 27.4854 6.29953L27.1041 5.56189C27.1021 5.55562 27.1 5.54936 27.0979 5.54313L26.7228 4.843C26.7208 4.83673 26.7187 4.83048 26.7166 4.82425L26.354 4.17412C26.346 4.15932 26.3377 4.14474 26.329 4.13036L25.9727 3.57401C25.9628 3.55702 25.9523 3.54035 25.9414 3.524L25.6038 3.05516C25.5919 3.03808 25.5794 3.02141 25.5663 3.00515L25.235 2.59257C25.2329 2.59048 25.2309 2.58839 25.2288 2.58632L24.9037 2.205C24.9017 2.20082 24.8996 2.19665 24.8975 2.1925L24.5786 1.82368C24.5685 1.813 24.5581 1.80258 24.5474 1.79242L24.2223 1.45486C24.2064 1.4354 24.1898 1.41665 24.1723 1.39859L23.841 1.11104C23.8114 1.08392 23.7802 1.05891 23.7472 1.03603L23.4097 0.810983C23.3835 0.792845 23.3564 0.776175 23.3284 0.760974L22.9846 0.58594C22.9661 0.576945 22.9474 0.56861 22.9283 0.560935L22.572 0.404656C22.5658 0.4025 22.5595 0.400417 22.5533 0.398405L22.1969 0.254627C22.1642 0.24215 22.1309 0.231731 22.0969 0.223371L21.7406 0.123352C21.6914 0.110424 21.6414 0.102089 21.5906 0.0983474L21.2468 0.0670914C21.1578 0.0608034 21.0703 0.0691382 20.9842 0.0920962L20.6654 0.173362C20.5876 0.193191 20.5146 0.224447 20.4466 0.26713L20.1465 0.454665C20.0935 0.488041 20.0456 0.527632 20.0028 0.573438L19.7777 0.817234C19.7471 0.849961 19.72 0.885384 19.6965 0.923504L19.5464 1.1673C19.5172 1.21222 19.4943 1.26015 19.4777 1.31108L19.4152 1.51112C19.4098 1.53171 19.4056 1.55255 19.4027 1.57363L19.3777 1.69865C19.3733 1.72557 19.3712 1.75266 19.3714 1.77992L19.3652 1.84243C19.3604 2.06152 19.4597 2.2119 19.6631 2.29355C19.8665 2.3752 20.0422 2.33527 20.1903 2.17374ZM31.8613 32.642L31.4174 32.6358C31.2132 32.6316 31.1091 32.7316 31.1049 32.9358C31.1007 33.1401 31.2007 33.2442 31.4049 33.2484L31.8488 33.2547C32.053 33.2588 32.1572 33.1588 32.1613 32.9546C32.1655 32.7504 32.0655 32.6462 31.8613 32.642Z" fill="black"/>
</g>
<defs>
<clipPath id="clip0_1_7170">
<rect width="40" height="37" fill="white"/>
</clipPath>
</defs>
</svg>
