<svg width="38" height="41" viewBox="0 0 38 41" fill="none" xmlns="http://www.w3.org/2000/svg">
<g clip-path="url(#clip0_1_7166)">
<path d="M22.1735 2.63617C22.1735 2.73111 22.2071 2.81215 22.2742 2.87929C22.3414 2.94642 22.4224 2.97999 22.5173 2.97999C22.6123 2.97999 22.6933 2.94642 22.7604 2.87929C22.8276 2.81215 22.8611 2.73111 22.8611 2.63617C22.8611 2.54123 22.8276 2.46019 22.7604 2.39306C22.6933 2.32592 22.6123 2.29236 22.5173 2.29236C22.4224 2.29236 22.3414 2.32592 22.2742 2.39306C22.2071 2.46019 22.1735 2.54123 22.1735 2.63617ZM22.7236 2.22359L22.4923 2.02356C22.4559 1.99188 22.4163 1.96479 22.3736 1.94229L21.911 1.70475C21.8906 1.69331 21.8698 1.68289 21.8485 1.67349L21.1921 1.41094C21.1675 1.40135 21.1425 1.39301 21.1171 1.38593L20.2607 1.14214C20.2237 1.1312 20.1862 1.12286 20.1481 1.11713L19.0792 0.954602C19.0377 0.949465 18.996 0.947381 18.9542 0.948351H17.6727C17.6329 0.947758 17.5933 0.949841 17.5539 0.954602L16.0786 1.15464C16.0449 1.159 16.0116 1.16526 15.9786 1.17339L14.397 1.56722C14.3675 1.57412 14.3383 1.58245 14.3095 1.59222L12.6717 2.17358C12.642 2.18257 12.6129 2.19298 12.5842 2.20484L10.9401 2.98624C10.9057 3.00302 10.8723 3.02177 10.8401 3.0425L9.24606 4.03019C9.21112 4.05306 9.17778 4.07807 9.14604 4.1052L7.627 5.33044C7.59367 5.35962 7.56241 5.39087 7.53323 5.4242L6.09546 6.93699C6.06624 6.9686 6.03916 7.00194 6.01419 7.03701L4.68269 8.85611C4.66032 8.88418 4.63948 8.91336 4.62018 8.94362L3.4012 11.0253C3.38541 11.0517 3.37082 11.0788 3.35744 11.1065L2.26973 13.4007C2.2582 13.4274 2.24778 13.4545 2.23847 13.482L1.3258 15.8949C1.31395 15.9257 1.30353 15.957 1.29454 15.9887L0.613164 18.4392C0.600087 18.4823 0.589669 18.5261 0.581908 18.5705L0.206837 21.0272C0.197167 21.0914 0.193 21.156 0.194335 21.221L0.231842 23.6777C0.233664 23.7493 0.241999 23.8201 0.256847 23.8902L0.750691 26.3407C0.763557 26.409 0.782311 26.4757 0.806951 26.5407L1.76338 28.9599C1.79042 29.0298 1.82376 29.0964 1.8634 29.16L3.31993 31.4479C3.35522 31.5033 3.39481 31.5554 3.4387 31.6042L5.32656 33.7046C5.36538 33.7472 5.40706 33.7868 5.45159 33.8234L7.65826 35.6737C7.6979 35.7077 7.73958 35.7389 7.78328 35.7675L10.2275 37.3178C10.2717 37.3457 10.3176 37.3707 10.365 37.3928L12.978 38.618C13.0227 38.6395 13.0686 38.6583 13.1155 38.6743L15.8661 39.5745C15.9051 39.5868 15.9447 39.5973 15.9848 39.6057L18.7604 40.2058C18.7976 40.2138 18.8351 40.2201 18.8729 40.2246L21.6047 40.5684C21.6462 40.5726 21.6879 40.5747 21.7297 40.5746L24.3489 40.6309C24.4074 40.633 24.4658 40.631 24.524 40.6247L26.9369 40.3246C27.0201 40.3142 27.1014 40.2955 27.1807 40.2683L29.3436 39.5244C29.434 39.4929 29.5194 39.4512 29.5999 39.3994L31.4815 38.2054C31.5587 38.1571 31.6295 38.1009 31.6941 38.0367L33.2694 36.4551C33.3249 36.4015 33.3749 36.3431 33.4194 36.2801L34.7197 34.3547C34.7519 34.3108 34.7811 34.265 34.8072 34.2172L35.8949 32.0355C35.9158 31.9969 35.9345 31.9573 35.9511 31.9167L36.8326 29.5663C36.8496 29.5234 36.8642 29.4796 36.8763 29.435L37.5139 26.897C37.5278 26.8456 37.5382 26.7935 37.5452 26.7408L37.864 24.0402C37.8702 23.982 37.8723 23.9237 37.8703 23.8652L37.8015 21.0272C37.7997 20.9663 37.7935 20.9059 37.7827 20.8459L37.2764 17.9516C37.2689 17.903 37.2584 17.8551 37.2451 17.8078L36.37 14.9198C36.3593 14.8817 36.3468 14.8441 36.3325 14.8072L35.1822 12.0192C35.1693 11.9831 35.1547 11.9477 35.1385 11.9129L33.7507 9.27494C33.7315 9.2406 33.7106 9.20726 33.6882 9.17492L32.1192 6.75571C32.0903 6.71421 32.0591 6.67462 32.0254 6.63693L30.2813 4.56779C30.2288 4.50361 30.1705 4.44527 30.1063 4.39276L29.3374 3.78014C29.0681 3.56609 28.7626 3.47859 28.4208 3.51765C28.079 3.55671 27.8011 3.71089 27.587 3.98018C27.373 4.24947 27.2855 4.555 27.3246 4.89677C27.3636 5.23855 27.5178 5.51646 27.7871 5.73051L28.4622 6.26186L30.075 8.18098L31.5816 10.4814L32.9256 13.0131L34.0383 15.6887L34.8759 18.4454L35.3323 21.1772L35.4073 23.8465L35.1135 26.3782L34.5196 28.7661L33.6757 30.9916L32.6443 33.0482L31.4565 34.8173L30.0625 36.2301L28.4247 37.2678L26.5118 37.9179L24.3114 38.1867L21.8485 38.1242L19.2292 37.7929L16.5662 37.2178L13.947 36.3613L11.4652 35.2049L9.13979 33.7671L7.05189 32.0355L5.27655 30.0726L3.93255 27.9722L3.03863 25.7656L2.56354 23.5151L2.48227 21.2522L2.77608 18.9455L3.37619 16.5951L4.2201 14.2571L5.23279 12.0255L6.37676 10.0188L7.62075 8.281L8.95225 6.83697L10.3525 5.66175L11.834 4.69907L13.3718 3.92392L14.9034 3.33631L16.3912 2.92998L17.7602 2.71119L18.9292 2.66118L19.9106 2.75495L20.7545 2.91748L21.4421 3.04875C21.4587 3.05142 21.4754 3.0535 21.4921 3.055L22.011 3.11751C22.0566 3.12468 22.1024 3.12676 22.1485 3.12377L22.4548 3.09251C22.6719 3.07063 22.8126 2.9555 22.8771 2.7471C22.9416 2.53871 22.8904 2.3642 22.7236 2.22359Z" fill="black"/>
<path d="M28.2873 2.95499L28.1372 2.82996C28.0323 2.73974 27.9156 2.66889 27.7872 2.61742L25.4555 1.69225C25.317 1.6371 25.1732 1.60792 25.0241 1.60473L22.4111 1.54847C22.2321 1.54464 22.0613 1.58006 21.8985 1.65474L19.4293 2.7862C19.4035 2.79716 19.3785 2.80967 19.3543 2.82371L18.3479 3.44883C18.096 3.61503 18.0321 3.83568 18.1561 4.11077C18.2802 4.38586 18.4879 4.48402 18.7792 4.40526L19.8356 4.0802L22.3861 3.89266L24.7116 4.06145L26.712 4.88035L26.7432 4.90536C27.0129 5.11107 27.316 5.19282 27.6525 5.15063C27.989 5.10843 28.2625 4.95437 28.4731 4.68845C28.6836 4.42253 28.7708 4.12096 28.7346 3.78372C28.6985 3.44649 28.5493 3.17025 28.2873 2.95499Z" fill="black"/>
</g>
<defs>
<clipPath id="clip0_1_7166">
<rect width="38" height="41" fill="white"/>
</clipPath>
</defs>
</svg>
