<svg width="34" height="37" viewBox="0 0 34 37" fill="none" xmlns="http://www.w3.org/2000/svg">
<g clip-path="url(#clip0_1_7168)">
<path d="M18.424 3.35553C18.424 3.56807 18.5303 3.67434 18.7428 3.67434C18.9554 3.67434 19.0617 3.56807 19.0617 3.35553C19.0617 3.14299 18.9554 3.03672 18.7428 3.03672C18.5303 3.03672 18.424 3.14299 18.424 3.35553ZM18.8741 3.71185H18.8804C19.0456 3.65734 19.1457 3.54482 19.1804 3.37429L19.1867 3.31803C19.1917 3.30158 19.1959 3.28491 19.1992 3.26802L19.2054 3.1805C19.2097 3.12568 19.2055 3.0715 19.1929 3.01797L19.1679 2.88044C19.1577 2.83925 19.1431 2.79966 19.1242 2.76167L19.0429 2.59289C19.0321 2.56703 19.0196 2.54203 19.0054 2.51787L18.8929 2.33659C18.8831 2.32156 18.8726 2.30698 18.8616 2.29283L18.7178 2.1053C18.7097 2.09674 18.7014 2.0884 18.6928 2.08029L18.5303 1.8865C18.5018 1.8544 18.4705 1.82523 18.4365 1.79899L18.224 1.63021C18.1889 1.60159 18.1514 1.57659 18.1115 1.55519L17.8614 1.43017C17.839 1.41854 17.8161 1.40812 17.7927 1.39891L17.5551 1.30514C17.5346 1.29795 17.5137 1.29169 17.4926 1.28639L17.2613 1.21763C17.2365 1.21216 17.2115 1.20799 17.1863 1.20512L16.955 1.16137C16.9218 1.15703 16.8885 1.15495 16.855 1.15511L16.6299 1.14261C16.5816 1.14222 16.5337 1.14639 16.4862 1.15511L16.2486 1.18637C16.2168 1.19273 16.1856 1.20106 16.1548 1.21138L15.9048 1.28014C15.8858 1.28567 15.8671 1.29192 15.8485 1.29889L15.6047 1.38641C15.5942 1.39035 15.5838 1.39452 15.5735 1.39891L15.3109 1.51143C15.2983 1.51529 15.2858 1.51946 15.2734 1.52394L14.9921 1.66146C14.9795 1.66739 14.967 1.67364 14.9546 1.68021L14.6483 1.84275C14.6269 1.85434 14.6061 1.86684 14.5858 1.88025L14.2607 2.09904C14.2415 2.1108 14.2227 2.1233 14.2045 2.13655L13.8794 2.39285C13.871 2.39895 13.8626 2.4052 13.8544 2.4116L13.5231 2.69916L13.1793 2.98671L12.7917 3.28052L12.3291 3.62434C12.3228 3.62842 12.3166 3.63259 12.3104 3.63684L11.804 4.02441C11.7956 4.03052 11.7872 4.03677 11.779 4.04316L11.2477 4.48075L10.7101 4.92458C10.7016 4.93069 10.6933 4.93694 10.6851 4.94334L10.135 5.42468C10.1307 5.42881 10.1266 5.43297 10.1225 5.43718L9.56609 5.93728C9.56185 5.94348 9.55768 5.94973 9.55359 5.95603L8.99098 6.48738C8.98249 6.49556 8.97415 6.50389 8.96598 6.51239L8.44088 7.05624C8.43239 7.06441 8.42405 7.07275 8.41588 7.08124L7.90328 7.6501L7.40318 8.21271L6.89684 8.75031L6.40924 9.27541L5.9279 9.78176L5.45906 10.2694C5.45697 10.2714 5.45489 10.2735 5.45281 10.2756L5.00898 10.7569C5.00689 10.7569 5.00481 10.7569 5.00273 10.7569L4.57139 11.2258L4.15882 11.6821L3.75249 12.1135L3.37117 12.526C3.36907 12.5281 3.36699 12.5302 3.36491 12.5323L3.0086 12.9199C3.00648 12.924 3.0044 12.9282 3.00235 12.9324L2.67103 13.2949C2.66888 13.3012 2.6668 13.3074 2.66478 13.3137L2.35847 13.67C2.35214 13.6762 2.34588 13.6824 2.33972 13.6888L2.04591 14.0576C2.03298 14.0718 2.02047 14.0864 2.00841 14.1013L1.74586 14.4702C1.73941 14.4805 1.73316 14.4909 1.7271 14.5014L1.49581 14.8515C1.48942 14.8597 1.48317 14.868 1.47705 14.8765L1.27702 15.2015L1.08948 15.5078C1.08739 15.5099 1.0853 15.512 1.08323 15.5141L0.895694 15.8204C0.88698 15.8348 0.878645 15.8494 0.870689 15.8642L0.695656 16.183C0.68207 16.2074 0.669568 16.2324 0.658149 16.258L0.514371 16.5831C0.507546 16.6016 0.501295 16.6204 0.495618 16.6393L0.370594 16.9706C0.366084 16.9851 0.361916 16.9997 0.358092 17.0144L0.258073 17.3457C0.248548 17.3724 0.240213 17.3995 0.233068 17.427L0.170556 17.7395C0.166134 17.7519 0.161966 17.7644 0.158054 17.777L0.108044 18.0646C0.105143 18.0874 0.103059 18.1104 0.101793 18.1333L0.070537 18.4084C0.0702949 18.4209 0.0702949 18.4334 0.070537 18.4459L0.0517834 18.7147C0.0479733 18.7479 0.0458896 18.7813 0.0455322 18.8147L0.0580346 19.0898C0.0593012 19.1128 0.0613849 19.1357 0.0642858 19.1585L0.0955417 19.4336C0.0983769 19.463 0.102544 19.4921 0.108044 19.5211L0.170556 19.8212C0.175963 19.8443 0.182215 19.8672 0.18931 19.8899L0.276826 20.1962C0.285649 20.228 0.296067 20.2593 0.308082 20.29L0.433106 20.6088C0.440845 20.6278 0.44918 20.6466 0.458111 20.6651L0.595637 20.9589C0.608767 20.9888 0.623353 21.018 0.639395 21.0464L0.808177 21.3277C0.816302 21.3383 0.824637 21.3487 0.833182 21.359L1.01447 21.6403L1.2145 21.9466L1.4333 22.2841C1.44529 22.3012 1.45779 22.3179 1.4708 22.3341L1.72085 22.6717C1.73285 22.6888 1.74535 22.7054 1.75836 22.7217L2.03341 23.0468C2.05322 23.0706 2.07406 23.0936 2.09592 23.1155L2.40223 23.4219C2.42038 23.4392 2.43913 23.4559 2.45849 23.4719L2.80856 23.7782C2.8228 23.7911 2.83738 23.8036 2.85232 23.8157L3.23364 24.1032C3.24795 24.114 3.26254 24.1245 3.2774 24.1345L3.70248 24.4283C3.70453 24.4325 3.70662 24.4366 3.70873 24.4408L4.10881 24.7096L4.45887 24.9784L4.82769 25.3222L6.05918 26.4599L6.44675 26.8288L6.78431 27.1726L7.09062 27.5101L7.37193 27.8665L7.66573 28.2728L7.97204 28.7291C7.97412 28.7312 7.9762 28.7333 7.97829 28.7354L8.2971 29.198C8.30324 29.2064 8.30949 29.2147 8.31586 29.223L8.63467 29.6543C8.64473 29.6691 8.65515 29.6837 8.66592 29.698L8.98473 30.0856C8.9948 30.1005 9.00522 30.115 9.01599 30.1294L9.3348 30.4732C9.34093 30.4816 9.34719 30.49 9.35355 30.4982L9.65986 30.817C9.666 30.8254 9.67225 30.8338 9.67862 30.842L9.97242 31.1296C9.9786 31.1359 9.98485 31.1421 9.99118 31.1483L10.2725 31.4171C10.2787 31.4214 10.2849 31.4255 10.2912 31.4296L10.56 31.6734C10.56 31.6755 10.56 31.6776 10.56 31.6797L10.8413 31.9297C10.8455 31.9339 10.8496 31.9381 10.8538 31.9422L11.1539 32.1985C11.1581 32.2006 11.1622 32.2027 11.1664 32.2048L11.4852 32.4798L11.829 32.7674L12.1666 33.0612L12.8105 33.63C12.8166 33.6364 12.8229 33.6426 12.8292 33.6488L13.123 33.8988L13.4043 34.1426C13.4146 34.1512 13.425 34.1595 13.4356 34.1676L13.7169 34.3927C13.7372 34.408 13.7581 34.4226 13.7794 34.4365L14.067 34.6365C14.0793 34.6451 14.0918 34.6534 14.1045 34.6615L14.3795 34.8365C14.3918 34.8451 14.4044 34.8534 14.417 34.8615L14.6858 35.0178C14.692 35.022 14.6983 35.0262 14.7046 35.0303L14.9546 35.1741C14.9751 35.1851 14.996 35.1956 15.0171 35.2053L15.2547 35.3179L15.4735 35.4241L15.6985 35.5367C15.7047 35.5388 15.711 35.5409 15.7173 35.5429L15.9298 35.6492L16.1486 35.7555C16.1752 35.769 16.2023 35.7815 16.2299 35.793L16.4737 35.893C16.4984 35.9022 16.5234 35.9105 16.5487 35.918L16.8175 36.0055C16.8443 36.0148 16.8713 36.0232 16.8987 36.0305L17.1613 36.093C17.182 36.0978 17.2028 36.1019 17.2238 36.1055L17.4426 36.143L17.6426 36.193C17.6489 36.1952 17.6551 36.1973 17.6614 36.1993L17.8927 36.2493C17.9257 36.257 17.9591 36.2633 17.9927 36.268L18.2365 36.2993C18.303 36.3073 18.3697 36.3094 18.4365 36.3056L18.6928 36.2931C18.7347 36.2912 18.7764 36.287 18.8179 36.2806L19.0804 36.2368C19.1486 36.2262 19.2153 36.2095 19.2804 36.1868L19.5555 36.0868C19.5938 36.0742 19.6313 36.0596 19.668 36.043L19.9868 35.8867C20.0211 35.8697 20.0545 35.8509 20.0868 35.8305L20.4369 35.6179C20.4626 35.6022 20.4876 35.5856 20.5119 35.5679L20.8745 35.3054C20.9003 35.2876 20.9253 35.2689 20.9495 35.2491L21.3058 34.9365C21.3121 34.9324 21.3184 34.9283 21.3246 34.924L21.6809 34.599C21.6894 34.5908 21.6977 34.5824 21.7059 34.574L22.056 34.2427C22.0602 34.2385 22.0643 34.2344 22.0685 34.2302L22.3998 33.8988L22.7061 33.5925C22.7124 33.5864 22.7187 33.5801 22.7248 33.5738L23.0187 33.2675C23.0271 33.2593 23.0355 33.2509 23.0437 33.2425L23.3187 32.9362C23.3293 32.9259 23.3398 32.9155 23.35 32.9049L23.6125 32.5861C23.6254 32.5718 23.6379 32.5572 23.65 32.5423L23.9251 32.1798C23.9337 32.1674 23.942 32.1549 23.9501 32.1423L24.2376 31.7359C24.2376 31.7339 24.2376 31.7318 24.2376 31.7297L24.5252 31.3171L24.8002 30.9233L25.0753 30.5545L25.3879 30.1419L25.7379 29.698L26.1255 29.2417C26.1255 29.2396 26.1255 29.2375 26.1255 29.2355L26.5193 28.7604C26.53 28.7481 26.5404 28.7356 26.5506 28.7229L26.9194 28.2353L27.3257 27.7477L28.1196 26.7912C28.126 26.783 28.1322 26.7747 28.1384 26.7662L28.4822 26.3287L28.8323 25.9223C28.8365 25.9182 28.8406 25.914 28.8448 25.9098L29.1948 25.4973C29.1969 25.4931 29.199 25.4889 29.2011 25.4847L29.5386 25.0847C29.5472 25.0744 29.5555 25.064 29.5637 25.0534L29.87 24.6471C29.8807 24.6348 29.8911 24.6223 29.9012 24.6096L30.2075 24.1657L30.5326 23.7094C30.5326 23.7073 30.5326 23.7052 30.5326 23.7032L30.8576 23.2468C30.8577 23.2447 30.8577 23.2427 30.8576 23.2406L31.1515 22.8217C31.1557 22.8155 31.1599 22.8093 31.164 22.803L31.414 22.4279C31.4161 22.4217 31.4182 22.4154 31.4203 22.4092L31.6515 22.0466C31.6558 22.0404 31.6599 22.0341 31.6641 22.0278L31.8766 21.6778C31.8787 21.6736 31.8808 21.6695 31.8828 21.6653L32.0829 21.3277C32.0916 21.3133 32.0999 21.2987 32.1079 21.2839L32.2767 20.9714C32.2854 20.9549 32.2938 20.9383 32.3017 20.9214L32.4329 20.6276C32.4372 20.6214 32.4413 20.6151 32.4454 20.6088L32.558 20.3463L32.6705 20.1025L32.8018 19.8274C32.8039 19.8233 32.806 19.8191 32.808 19.8149L32.9393 19.5211C32.9482 19.5026 32.9565 19.4838 32.9643 19.4649L33.0831 19.1648C33.0923 19.1401 33.1006 19.1151 33.1081 19.0898L33.2018 18.7897C33.2126 18.7485 33.221 18.7069 33.2268 18.6647L33.2894 18.3334C33.2946 18.3065 33.2987 18.2794 33.3019 18.2521L33.3456 17.877C33.3462 17.8562 33.3462 17.8354 33.3456 17.8145L33.3706 17.377C33.3711 17.3582 33.3711 17.3394 33.3706 17.3207V16.8769C33.3714 16.8309 33.3694 16.785 33.3644 16.7393L33.3081 16.3143C33.3012 16.2635 33.2908 16.2135 33.2769 16.1642L33.1643 15.7641C33.1543 15.7217 33.1418 15.6801 33.1268 15.6391L32.9643 15.2453C32.9565 15.2263 32.9482 15.2076 32.9393 15.189L32.7393 14.7702C32.7352 14.7597 32.7311 14.7493 32.7268 14.739L32.4955 14.2951C32.4875 14.2782 32.4792 14.2616 32.4705 14.2451L32.2142 13.795C32.2081 13.7845 32.2018 13.7741 32.1954 13.7638L31.9016 13.2949C31.8915 13.2801 31.8811 13.2655 31.8703 13.2512L31.5515 12.7823C31.5495 12.7802 31.5474 12.7782 31.5453 12.7761L31.1952 12.276C31.1932 12.2718 31.1911 12.2676 31.189 12.2635L30.8139 11.7509C30.8118 11.7467 30.8097 11.7425 30.8076 11.7384L30.4201 11.2195C30.4119 11.209 30.4036 11.1985 30.3951 11.1883L29.9762 10.6632L29.5449 10.1256C29.5388 10.1171 29.5325 10.1088 29.5261 10.1006L29.0823 9.56297L28.6572 9.03787L28.2259 8.50026L27.7946 7.94391C27.7905 7.93761 27.7863 7.93136 27.7821 7.92515L27.3382 7.3813C27.3281 7.36857 27.3177 7.35607 27.307 7.34379L26.8444 6.8312C26.8188 6.80059 26.7918 6.77142 26.7631 6.74368L26.2755 6.29984C26.2593 6.28477 26.2426 6.27018 26.2255 6.25609L25.7379 5.86226C25.7317 5.85803 25.7255 5.85386 25.7192 5.84976L25.2503 5.48719L24.819 5.12462L24.3814 4.7683C24.3752 4.76198 24.369 4.75573 24.3627 4.74955L23.9313 4.40573L23.5188 4.07442C23.5105 4.06805 23.5022 4.0618 23.4937 4.05567L23.0749 3.73686C23.0646 3.72834 23.0542 3.72 23.0437 3.71185L22.6623 3.4368L22.3185 3.168L21.9747 2.88669C21.9726 2.8846 21.9705 2.88252 21.9685 2.88044L21.6246 2.59914C21.6103 2.58838 21.5957 2.57796 21.5809 2.56788L21.2246 2.30533C21.2163 2.30106 21.2079 2.2969 21.1996 2.29283L20.8307 2.03653C20.8204 2.03011 20.81 2.02386 20.7995 2.01778L20.4494 1.79274C20.4473 1.79064 20.4453 1.78856 20.4432 1.78649L20.1681 1.61145L19.9493 1.45517L19.718 1.27389L19.4742 1.08635C19.442 1.06379 19.4086 1.04296 19.3742 1.02384L19.1242 0.86756C19.1058 0.854503 19.087 0.842001 19.0679 0.830053L18.8491 0.71128C18.8205 0.697563 18.7913 0.685061 18.7616 0.673773L18.6178 0.611261L18.5053 0.555001C18.5032 0.552909 18.5011 0.550825 18.499 0.548749L18.3678 0.486238C17.9808 0.289158 17.6144 0.322067 17.2687 0.584966C16.923 0.847865 16.7935 1.19211 16.88 1.6177L16.9112 1.76148C16.9552 1.98762 17.0594 2.18141 17.2238 2.34284L17.3426 2.45536C17.4261 2.53643 17.5199 2.60311 17.6239 2.6554L17.7802 2.73041L17.9427 2.82418L18.1302 2.9367L18.3365 3.08673L18.5678 3.26802C18.5781 3.27654 18.5885 3.28487 18.5991 3.29302L18.8554 3.47431C18.8796 3.49409 18.9046 3.51284 18.9304 3.53057L19.2367 3.71185L19.5617 3.92439L19.8993 4.14944L20.2181 4.38698L20.5432 4.64328L20.887 4.92458C20.8952 4.93095 20.9036 4.9372 20.912 4.94334L21.2871 5.23714C21.2953 5.24351 21.3037 5.24976 21.3121 5.2559L21.7122 5.5497L22.106 5.84976L22.5123 6.17482C22.5144 6.17691 22.5165 6.179 22.5186 6.18107L22.9436 6.51864L23.375 6.87495C23.3771 6.87496 23.3791 6.87496 23.3812 6.87495L23.8313 7.24377C23.8375 7.2501 23.8437 7.25635 23.8501 7.26253L24.3252 7.63135L24.7752 7.99392L25.2003 8.38149L25.6129 8.83158L26.0255 9.33792L26.4443 9.88178C26.4484 9.88807 26.4526 9.89432 26.4568 9.90053L26.8944 10.4444C26.8985 10.4486 26.9027 10.4528 26.9069 10.4569L27.3445 10.9945C27.3486 11.0008 27.3527 11.007 27.357 11.0132L27.8071 11.5383L28.2321 12.0634C28.2342 12.0634 28.2363 12.0634 28.2384 12.0634L28.6572 12.576L29.0323 13.0636L29.3886 13.5575L29.7387 14.0451L30.045 14.4889L30.32 14.9202L30.5638 15.3328L30.7764 15.7329L30.9514 16.108L31.0827 16.4143L31.1577 16.6768L31.1952 16.9519V17.2832L31.1702 17.677L31.139 17.9896L31.0952 18.2209L31.0389 18.4209L30.9514 18.6522L30.8326 18.921L30.7076 19.1898L30.5888 19.4461C30.5867 19.4503 30.5846 19.4544 30.5826 19.4586L30.4638 19.7212L30.3388 19.9837L30.2013 20.2525L30.02 20.5588L29.8199 20.8901L29.6012 21.2339L29.3636 21.584L29.0761 21.9903L28.7572 22.4279L28.4259 22.8718C28.4196 22.88 28.4133 22.8883 28.4072 22.8968L28.1134 23.3156L27.8196 23.6844L27.5008 24.0782L27.1694 24.4721L26.8006 24.8846C26.7856 24.8988 26.771 24.9134 26.7569 24.9284L26.4068 25.3722L25.6066 26.3162C25.6066 26.3182 25.6066 26.3203 25.6066 26.3224L25.1816 26.8288C25.1816 26.8308 25.1816 26.8329 25.1816 26.835L24.7752 27.3226L24.3877 27.7914L23.9938 28.2603C23.9896 28.2665 23.9854 28.2727 23.9813 28.279L23.6125 28.7354C23.6062 28.7436 23.5999 28.7519 23.5938 28.7604L23.2687 29.1855C23.2645 29.1917 23.2603 29.1979 23.2562 29.2042L22.9686 29.5918C22.9665 29.5959 22.9645 29.6001 22.9624 29.6043L22.6686 30.0106C22.6644 30.0168 22.6602 30.0231 22.6561 30.0294L22.381 30.4357L22.106 30.817L21.8559 31.1421L21.6184 31.4234L21.3621 31.7047L21.0933 31.9922L20.7932 32.2923L20.4807 32.6049L20.1431 32.9237L19.8055 33.23L19.4992 33.4925L19.2117 33.6988L18.9429 33.8613L18.7428 33.9614L18.6241 33.9989L18.5115 34.0239H18.424L18.3303 34.0114L18.1615 33.9801L17.9489 33.9239C17.9406 33.9217 17.9323 33.9196 17.9239 33.9176L17.6864 33.8613C17.6698 33.8589 17.6531 33.8568 17.6364 33.8551L17.4488 33.8176L17.2926 33.7676L17.13 33.6988L16.9425 33.605C16.9383 33.6029 16.9342 33.6009 16.93 33.5988L16.7112 33.4925C16.707 33.4904 16.7029 33.4883 16.6987 33.4863L16.4799 33.3863L16.2736 33.28C16.2695 33.2779 16.2653 33.2758 16.2611 33.2737L16.0361 33.1612L15.8173 33.0424L15.5797 32.9049L15.3484 32.7549L15.1109 32.5923L14.8796 32.4048L14.6108 32.1735L14.317 31.9172L13.6669 31.3546C13.6628 31.3483 13.6586 31.3421 13.6544 31.3359L13.3043 31.0421C13.3022 31.04 13.3001 31.0379 13.2981 31.0358L12.948 30.742C12.9439 30.7378 12.9397 30.7336 12.9355 30.7295L12.6042 30.4669C12.6021 30.4649 12.6 30.4628 12.5979 30.4607L12.3041 30.2231L12.0416 30.0044L11.804 29.7856L11.5352 29.5293L11.2539 29.2605L10.9789 28.9729L10.6913 28.6478L10.3975 28.304L10.1037 27.9102L9.77863 27.4664L9.45982 27.0163C9.45983 27.0142 9.45983 27.0121 9.45982 27.01L9.14101 26.5662C9.12898 26.5492 9.11648 26.5325 9.10351 26.5162L8.7847 26.1161C8.77062 26.099 8.75603 26.0823 8.74094 26.0661L8.39087 25.6848C8.37875 25.6699 8.36625 25.6553 8.35336 25.641L7.97204 25.2722C7.96587 25.2659 7.95962 25.2596 7.95329 25.2535L7.54696 24.8721C7.53871 24.8658 7.53038 24.8595 7.52196 24.8534L6.25921 23.7344C6.24695 23.7237 6.23445 23.7133 6.22171 23.7032L5.80288 23.3593C5.78658 23.3463 5.76991 23.3338 5.75287 23.3218L5.32779 23.0218C5.31547 23.0132 5.30296 23.0048 5.29028 22.9968L4.87145 22.7155L4.47763 22.4467L4.13381 22.1841L3.83375 21.9278L3.58996 21.6778L3.35241 21.4027L3.11487 21.0964L2.87732 20.7839C2.87527 20.7797 2.87318 20.7755 2.87107 20.7714L2.64603 20.4838L2.46474 20.24L2.32097 20.0212L2.20844 19.8337L2.12718 19.6211L2.06467 19.3898L2.01466 19.171L1.98965 18.971L1.9834 18.7897L1.9959 18.6022L2.02716 18.3709L2.06467 18.1333L2.12093 17.877L2.20219 17.602L2.30221 17.3269L2.41473 17.0769L2.55851 16.8143L2.73354 16.5268L2.92733 16.2142L3.11487 15.9017L3.33366 15.5829L3.5712 15.2453L3.83375 14.9077L4.12756 14.5702L4.44012 14.2139L4.78393 13.8325L5.16526 13.4262L5.57158 12.9824C5.57577 12.9803 5.57993 12.9782 5.58409 12.9761L5.99041 12.5198L6.41549 12.0572C6.4197 12.0531 6.42387 12.0489 6.428 12.0447L6.85308 11.5633L7.30316 11.0633L7.77825 10.5444L8.2596 10.0193L8.77219 9.4692C8.7764 9.46507 8.78057 9.4609 8.7847 9.4567L9.29104 8.88159L9.78489 8.32523L10.285 7.80638L10.8163 7.28128L11.3602 6.78119C11.3602 6.7791 11.3602 6.77702 11.3602 6.77493L11.879 6.28734L12.3916 5.84976L12.9042 5.41843L13.3981 5.03085L13.8607 4.66203C13.8691 4.65593 13.8774 4.64968 13.8857 4.64328L14.2732 4.31197C14.2775 4.30784 14.2816 4.30367 14.2857 4.29946L14.6358 3.99316C14.6379 3.99108 14.64 3.989 14.6421 3.9869L14.9484 3.71185L15.2484 3.47431L15.5485 3.24926L15.7985 3.06798L16.0048 2.9367L16.2111 2.83043L16.3986 2.74292L16.5674 2.69291L16.7175 2.6554L16.8487 2.6429L16.9738 2.64915L17.1113 2.68041L17.2738 2.73667L17.4738 2.82418L17.6489 2.91795L17.7864 3.01172L17.9052 3.13049L18.0365 3.27427C18.0446 3.28284 18.0529 3.29118 18.0615 3.29927L18.199 3.4243C18.2071 3.43289 18.2154 3.44122 18.224 3.4493L18.3303 3.53682C18.3423 3.54781 18.3548 3.55823 18.3678 3.56807L18.4053 3.59308L18.4178 3.60558C18.5059 3.6934 18.6122 3.73716 18.7366 3.73686H18.7428C18.788 3.7357 18.8317 3.72737 18.8741 3.71185ZM17.0363 1.20512C17.0363 1.42263 17.1132 1.60828 17.267 1.76208C17.4208 1.91588 17.6064 1.99277 17.8239 1.99277C18.0414 1.99277 18.2271 1.91588 18.3809 1.76208C18.5347 1.60828 18.6116 1.42263 18.6116 1.20512C18.6116 0.987621 18.5347 0.80197 18.3809 0.648172C18.2271 0.494374 18.0414 0.417474 17.8239 0.417474C17.6064 0.417474 17.4208 0.494374 17.267 0.648172C17.1132 0.80197 17.0363 0.987621 17.0363 1.20512ZM18.1052 0.923821L18.099 0.65502C18.0946 0.442691 17.9862 0.338608 17.7739 0.342771C17.5616 0.346935 17.4574 0.455185 17.4613 0.667522L17.4676 0.936323C17.4718 1.14886 17.5801 1.25305 17.7927 1.24888C18.0052 1.24472 18.1094 1.13636 18.1052 0.923821Z" fill="black"/>
<path d="M0.0579649 19.3208C0.0579649 19.4348 0.0982454 19.532 0.178806 19.6126C0.259367 19.6931 0.356613 19.7334 0.470543 19.7334C0.584474 19.7334 0.68172 19.6931 0.762281 19.6126C0.842842 19.532 0.883122 19.4348 0.883122 19.3208C0.883122 19.2069 0.842842 19.1097 0.762281 19.0291C0.68172 18.9485 0.584474 18.9083 0.470543 18.9083C0.356613 18.9083 0.259367 18.9485 0.178806 19.0291C0.0982454 19.1097 0.0579649 19.2069 0.0579649 19.3208ZM0.258003 18.9458H0.251752C0.0877051 19.0372 0.00643963 19.1768 0.00795539 19.3646V19.4584C0.00794226 19.5051 0.0141936 19.5509 0.026709 19.5959L0.0829697 19.7959C0.0926235 19.8283 0.105126 19.8596 0.120477 19.8897L0.289259 20.2335C0.298487 20.2549 0.308906 20.2758 0.320515 20.296L0.645577 20.8086C0.658994 20.8303 0.67358 20.8511 0.689335 20.8711L1.24569 21.5525C1.25168 21.5631 1.25793 21.5735 1.26444 21.5838L1.98958 22.3902C1.99772 22.3987 2.00605 22.407 2.01459 22.4152L2.8585 23.2778C2.86262 23.2821 2.86678 23.2862 2.871 23.2903L3.77117 24.1655C3.77324 24.1676 3.77533 24.1697 3.77742 24.1718L4.70885 25.0532C4.70884 25.0553 4.70884 25.0573 4.70885 25.0594L5.64653 25.9346L6.51544 26.7848L7.29059 27.5662L7.95947 28.2538L8.52208 28.8789L9.04718 29.4728L9.53477 30.0416L9.98485 30.5605L10.3787 31.0168L10.71 31.4044C10.7162 31.4086 10.7224 31.4128 10.7287 31.4169L11.0288 31.7482C11.0428 31.7634 11.0574 31.778 11.0726 31.792L11.3476 32.042C11.3804 32.0726 11.4158 32.0996 11.4539 32.1233L11.7039 32.2733C11.7415 32.2964 11.7811 32.3151 11.8227 32.3296L11.9977 32.3858C12.0837 32.4144 12.1712 32.4207 12.2603 32.4046L12.304 32.3983C12.5171 32.3626 12.6485 32.2396 12.6981 32.0293C12.7476 31.819 12.6851 31.6503 12.5103 31.5232L12.4478 31.4794C12.4458 31.4773 12.4437 31.4752 12.4416 31.4731L12.2728 31.3544L11.9852 31.0856L11.5164 30.6042L10.8663 29.9166L10.0349 29.0602C10.0328 29.0581 10.0307 29.056 10.0286 29.0539L9.05968 28.0787C9.05968 28.0767 9.05968 28.0746 9.05968 28.0725L7.99698 27.0098C7.99489 27.0098 7.99281 27.0098 7.99073 27.0098L6.93427 25.9596L5.96534 24.9719C5.96326 24.9719 5.96117 24.9719 5.95909 24.9719L5.10268 24.1155L4.38379 23.3591L3.80243 22.684L3.36484 22.0776L2.99602 21.54L2.68972 21.0649L2.43342 20.6773L2.24588 20.3835L2.12086 20.1772C2.11501 20.1645 2.10876 20.152 2.1021 20.1397L2.01459 20.021C1.96569 19.9507 1.90526 19.8923 1.8333 19.8459L1.78329 19.8084C1.64672 19.7212 1.49828 19.6894 1.33796 19.7132C1.17764 19.7369 1.04478 19.8103 0.939383 19.9334L0.908127 19.971C0.777111 20.1228 0.727101 20.2979 0.758098 20.4961L0.783103 20.6461C0.793523 20.7071 0.812277 20.7655 0.839364 20.8211L0.983141 21.1274C0.992226 21.151 1.00264 21.1739 1.0144 21.1962L1.32696 21.7025C1.33664 21.7197 1.34706 21.7363 1.35821 21.7525L1.95208 22.5527C1.96217 22.5634 1.97258 22.5739 1.98333 22.584L2.94601 23.7154C2.95405 23.7261 2.96239 23.7365 2.97102 23.7467L4.26502 25.1032C4.27115 25.1096 4.2774 25.1158 4.28377 25.1219L5.72154 26.5285C5.72566 26.5327 5.72983 26.5368 5.73405 26.541L7.12181 27.835C7.12388 27.8371 7.12596 27.8391 7.12806 27.8412L8.34704 28.9539L9.40349 29.9229L10.2662 30.748C10.2682 30.748 10.2703 30.748 10.2724 30.748L11.5289 31.9232L11.8915 32.267C11.8997 32.2735 11.908 32.2797 11.9165 32.2858L12.1228 32.4671C12.2691 32.592 12.4379 32.6441 12.6291 32.6234L12.6791 32.6171C12.9445 32.5869 13.1153 32.4439 13.1916 32.1879C13.2679 31.932 13.2034 31.7188 12.9979 31.5482L12.9042 31.4669L12.6604 31.2293C12.6485 31.2163 12.636 31.2037 12.6229 31.1918L12.1853 30.8355C12.1812 30.8313 12.177 30.8271 12.1728 30.823L10.9663 29.8853L10.3662 29.4228L9.9411 28.9977C9.83691 28.8937 9.73276 28.8937 9.62866 28.9978C9.52455 29.1019 9.52451 29.206 9.62854 29.3102L10.0599 29.7353L10.5412 30.3229L11.4851 31.5107L11.8227 31.9607C11.8268 31.965 11.831 31.9691 11.8352 31.9732L12.0415 32.2233L12.0915 32.3171C12.2389 32.568 12.4549 32.6633 12.7396 32.6032C13.0243 32.5431 13.1833 32.3686 13.2167 32.0795L13.223 32.0295C13.244 31.8314 13.1877 31.6585 13.0542 31.5107L12.8667 31.3044C12.8605 31.3001 12.8542 31.2959 12.8479 31.2919L12.5041 30.9293C12.5 30.9251 12.4958 30.9209 12.4916 30.9168L11.2601 29.7166C11.256 29.7144 11.2518 29.7124 11.2476 29.7103L10.3787 28.8852C10.3766 28.8831 10.3745 28.881 10.3724 28.8789L9.30348 27.9037L8.07824 26.7973L6.70298 25.5095L5.27771 24.1217L4.00247 22.784L3.04603 21.6775L2.42717 20.9461L2.13961 20.5273L2.05209 20.346L2.03959 20.2835C1.91772 20.4367 1.87396 20.6097 1.90832 20.8024L1.93957 20.7649C1.80002 20.6805 1.64996 20.6526 1.48939 20.6811C1.32883 20.7096 1.19758 20.7876 1.09566 20.9149L1.14567 20.9461C1.09689 20.8833 1.03854 20.8313 0.970639 20.7899L1.04565 20.8774L1.15817 21.0649C1.16024 21.067 1.16233 21.0691 1.16443 21.0712L1.35821 21.3712L1.61451 21.765C1.61862 21.7693 1.62279 21.7734 1.62701 21.7775L1.95208 22.2464C1.95606 22.2548 1.96023 22.2632 1.96458 22.2714L2.36465 22.8027C2.37458 22.8157 2.385 22.8282 2.39591 22.8403L2.90851 23.4279L3.51487 24.128C3.52098 24.1344 3.52723 24.1406 3.53363 24.1468L4.27752 24.9156C4.28162 24.9199 4.28579 24.924 4.29002 24.9281L5.16519 25.7783C5.16726 25.7804 5.16934 25.7825 5.17144 25.7846L6.18413 26.7347L7.27184 27.7537C7.2739 27.7558 7.27599 27.7579 7.27809 27.7599L8.37205 28.7851C8.37413 28.7851 8.37621 28.7851 8.3783 28.7851L9.39099 29.7166L10.2537 30.5292L10.935 31.1856L11.4164 31.6544L11.6789 31.942L11.7852 32.0983C11.774 32.0423 11.7532 31.9902 11.7227 31.942L11.7352 32.0107C11.7671 32.1419 11.8408 32.2426 11.9561 32.3128C12.0715 32.383 12.1947 32.4021 12.3259 32.3702C12.4571 32.3383 12.5578 32.2646 12.628 32.1493C12.6982 32.0339 12.7173 31.9106 12.6854 31.7795L12.6729 31.7419C12.665 31.7119 12.6546 31.6827 12.6416 31.6544L12.5603 31.4856C12.5583 31.4815 12.5562 31.4773 12.5541 31.4731L12.4166 31.2168C12.4018 31.1886 12.3851 31.1615 12.3666 31.1356L12.1478 30.8293C12.1358 30.8142 12.1233 30.7996 12.1103 30.7855L11.8227 30.448L11.4976 30.0604C11.4956 30.0583 11.4935 30.0562 11.4914 30.0541L11.0976 29.5978L10.6412 29.0789L10.1536 28.5101C10.1516 28.5101 10.1495 28.5101 10.1474 28.5101L9.62854 27.91C9.62442 27.9057 9.62025 27.9016 9.61603 27.8975L9.04093 27.2598C9.03479 27.2535 9.02853 27.2472 9.02217 27.2411L8.34079 26.541L7.55939 25.7408C7.55528 25.7366 7.55111 25.7324 7.54689 25.7283L6.66547 24.8781C6.66343 24.874 6.66134 24.8698 6.65922 24.8656L5.72154 23.9842L4.79012 23.1091L3.8962 22.2464L3.05854 21.3962L2.32715 20.6148C2.3251 20.6106 2.32302 20.6065 2.3209 20.6023L1.70828 19.971L1.2832 19.5396L1.0394 19.2771L0.914378 19.127C0.906331 19.1184 0.897996 19.1101 0.889373 19.102L0.826861 19.0333C0.69834 18.899 0.544144 18.8553 0.364273 18.902L0.358022 18.9083C0.323167 18.9167 0.289827 18.9292 0.258003 18.9458Z" fill="black"/>
<path d="M4.60879 23.6279L4.64005 23.5654C4.71343 23.4228 4.71942 23.2774 4.65802 23.1293C4.59661 22.9811 4.48954 22.8826 4.33681 22.8338C4.18407 22.7849 4.03971 22.803 3.90372 22.8879C3.76773 22.9729 3.68824 23.0948 3.66523 23.2535C3.64222 23.4122 3.68384 23.5516 3.7901 23.6717C3.89635 23.7918 4.02964 23.8501 4.18996 23.8467H4.26498C4.42275 23.8416 4.53735 23.7686 4.60879 23.6279ZM3.67737 23.6904L3.88366 23.9529C3.91193 23.9891 3.94318 24.0224 3.97742 24.0529L4.76507 24.7593C4.76715 24.7614 4.76923 24.7635 4.77133 24.7656L6.07782 25.9158L7.74689 27.3911L9.54098 28.9789C9.54306 28.981 9.54514 28.9831 9.54723 28.9851L11.2351 30.4542C11.2371 30.4542 11.2392 30.4542 11.2413 30.4542L12.6728 31.6731L13.7543 32.5983C13.7564 32.6004 13.7584 32.6025 13.7605 32.6046L14.5294 33.2547C14.5336 33.2568 14.5377 33.2589 14.5419 33.2609L15.0358 33.6673C15.0576 33.6854 15.0806 33.7021 15.1045 33.7173L15.3733 33.8798C15.5787 34.0084 15.7794 34.0013 15.9752 33.8586C16.171 33.7159 16.2392 33.5271 16.1797 33.2922L16.1047 32.9921C16.082 32.9027 16.0424 32.8214 15.986 32.7484L15.6046 32.242C15.5839 32.2111 15.561 32.1819 15.5359 32.1545L14.817 31.4481C14.8088 31.4396 14.8005 31.4312 14.792 31.4231L13.7293 30.4604C13.7272 30.4583 13.7251 30.4562 13.723 30.4542L12.3103 29.2227L10.6287 27.7411L8.8471 26.1533L7.18428 24.6718C7.18016 24.6676 7.17599 24.6634 7.17178 24.6593L5.85278 23.5216C5.8367 23.5063 5.82003 23.4918 5.80277 23.4778L4.94636 22.8527C4.86832 22.7972 4.78289 22.7576 4.69006 22.7339L4.365 22.6464C4.05753 22.5606 3.81599 22.651 3.64039 22.9176C3.4648 23.1842 3.47712 23.4418 3.67737 23.6904ZM15.7797 33.1297L15.5796 33.0609C15.5734 33.0587 15.5672 33.0566 15.5609 33.0547L15.2983 32.9796L15.0733 32.7796C14.9441 32.6673 14.8233 32.6756 14.7109 32.8047C14.5984 32.9338 14.6067 33.0546 14.7357 33.1672L14.9733 33.3797L15.1295 33.6235C15.1541 33.6649 15.1854 33.7003 15.2233 33.7298L15.3921 33.8548C15.4943 33.938 15.6099 33.9666 15.739 33.9406C15.8682 33.9146 15.9638 33.8436 16.0259 33.7274C16.088 33.6112 16.0939 33.4923 16.0438 33.3705C15.9936 33.2487 15.9056 33.1684 15.7797 33.1297Z" fill="black"/>
<path d="M7.82815 26.1784C7.82815 26.3826 7.93025 26.4847 8.13446 26.4847C8.33866 26.4847 8.44076 26.3826 8.44076 26.1784C8.44076 25.9742 8.33866 25.8721 8.13446 25.8721C7.93025 25.8721 7.82815 25.9742 7.82815 26.1784ZM7.79064 26.4159L7.90941 26.6097C7.91877 26.6271 7.92919 26.6437 7.94067 26.6597L8.29699 27.1286C8.30102 27.1349 8.30519 27.1412 8.30949 27.1473L8.99712 27.9725C9.00323 27.9789 9.00949 27.9851 9.01587 27.9912L10.0598 29.1415C10.0679 29.15 10.0763 29.1584 10.0848 29.1665L11.4413 30.5105C11.4475 30.5168 11.4537 30.5231 11.4601 30.5292L12.9354 31.8795C12.9455 31.8881 12.9559 31.8965 12.9666 31.9045L14.3669 33.0422C14.373 33.0486 14.3793 33.0548 14.3856 33.061L15.5296 33.9111C15.5317 33.9132 15.5338 33.9153 15.5359 33.9174L16.3235 34.48C16.3337 34.4866 16.3441 34.4929 16.3548 34.4987L16.7924 34.7675C16.8633 34.8113 16.9404 34.8342 17.0236 34.8363L17.1424 34.8425C17.3399 34.8455 17.4742 34.7549 17.5454 34.5708C17.6165 34.3866 17.5781 34.2292 17.43 34.0987L17.3112 33.9986L17.0674 33.7673C17.0325 33.7349 16.9929 33.7099 16.9486 33.6923L16.6423 33.5611L16.3985 33.3485C16.2735 33.2405 16.1569 33.249 16.0488 33.3738C15.9406 33.4986 15.9488 33.6152 16.0735 33.7236L16.3173 33.9299L16.4673 34.2174C16.4854 34.2522 16.5083 34.2835 16.5361 34.3112L16.7298 34.5112L16.7736 34.5987C16.9472 34.7262 17.1187 34.7234 17.2879 34.5902C17.4572 34.4571 17.5004 34.2912 17.4175 34.0924L17.33 34.0111C17.3238 34.0068 17.3176 34.0026 17.3112 33.9986L16.8986 33.6986L16.1547 33.1172L15.1233 32.1795L13.8168 30.9356L12.3728 29.554L11.01 28.2225C11.0059 28.2204 11.0017 28.2183 10.9975 28.2163L9.87229 27.1536C9.87022 27.1515 9.86814 27.1494 9.86604 27.1473L9.07214 26.4222C9.06804 26.418 9.06387 26.4138 9.05963 26.4097L8.60955 26.0284C8.60153 26.0197 8.5932 26.0114 8.58454 26.0034L8.40326 25.8658C8.2193 25.7248 8.04108 25.7317 7.86861 25.8866C7.69614 26.0415 7.67015 26.2179 7.79064 26.4159Z" fill="black"/>
</g>
<defs>
<clipPath id="clip0_1_7168">
<rect width="34" height="37" fill="white"/>
</clipPath>
</defs>
</svg>
