<svg width="39" height="37" viewBox="0 0 39 37" fill="none" xmlns="http://www.w3.org/2000/svg">
<g clip-path="url(#clip0_1_7174)">
<path d="M19.446 1.07734C19.446 1.18264 19.4832 1.27252 19.5577 1.34698C19.6322 1.42144 19.722 1.45867 19.8273 1.45867C19.9326 1.45867 20.0225 1.42144 20.097 1.34698C20.1714 1.27252 20.2087 1.18264 20.2087 1.07734C20.2087 0.972045 20.1714 0.882166 20.097 0.807708C20.0225 0.733251 19.9326 0.696022 19.8273 0.696022C19.722 0.696022 19.6322 0.733251 19.5577 0.807708C19.4832 0.882166 19.446 0.972045 19.446 1.07734ZM19.4023 1.07734C19.4023 1.19645 19.4444 1.29812 19.5286 1.38234C19.6128 1.46656 19.7145 1.50868 19.8336 1.50868C19.9527 1.50868 20.0544 1.46656 20.1386 1.38234C20.2228 1.29812 20.2649 1.19645 20.2649 1.07734C20.2649 0.958235 20.2228 0.856569 20.1386 0.772346C20.0544 0.688124 19.9527 0.646012 19.8336 0.646012C19.7145 0.646012 19.6128 0.688124 19.5286 0.772346C19.4444 0.856569 19.4023 0.958235 19.4023 1.07734ZM19.321 1.07734C19.321 1.21889 19.371 1.33971 19.4711 1.43981C19.5712 1.5399 19.692 1.58994 19.8336 1.58994C19.9751 1.58994 20.096 1.5399 20.1961 1.43981C20.2961 1.33971 20.3462 1.21889 20.3462 1.07734C20.3462 0.935794 20.2961 0.814974 20.1961 0.714883C20.096 0.614792 19.9751 0.564747 19.8336 0.564747C19.692 0.564747 19.5712 0.614792 19.4711 0.714883C19.371 0.814974 19.321 0.935794 19.321 1.07734ZM20.2149 0.646012L20.1712 0.608505C20.0523 0.494776 19.9106 0.436432 19.7461 0.433472H19.6085C19.5686 0.433915 19.529 0.438083 19.4898 0.445974L19.2835 0.47723C19.2472 0.48459 19.2117 0.495009 19.1772 0.508486L18.8647 0.621007C18.8477 0.626567 18.8311 0.632818 18.8146 0.639761L18.4083 0.827297C18.402 0.831355 18.3957 0.835522 18.3896 0.839799L17.8707 1.0961C17.8623 1.10009 17.854 1.10425 17.8457 1.1086L17.2331 1.45867C17.2289 1.46071 17.2247 1.46279 17.2206 1.46492L16.5017 1.88375L15.6953 2.35884L14.0512 3.30902C14.0449 3.31309 14.0387 3.31726 14.0325 3.32152L13.3011 3.77786L12.5885 4.20294C12.58 4.20902 12.5717 4.21527 12.5635 4.22169L11.8821 4.67178C11.8693 4.67976 11.8568 4.6881 11.8446 4.69678L11.2194 5.16562C11.2109 5.17378 11.2026 5.18211 11.1944 5.19063L10.6256 5.65322C10.615 5.6613 10.6045 5.66963 10.5943 5.67822L10.063 6.15956C10.0609 6.16163 10.0588 6.16372 10.0567 6.16581L9.51913 6.65966C9.51491 6.66378 9.51075 6.66795 9.50662 6.67216L8.96277 7.20351C8.96068 7.20558 8.95859 7.20767 8.95652 7.20976L8.40016 7.75362L7.86256 8.28497L7.32496 8.78506L6.7811 9.27265L5.71215 10.2041C5.70794 10.2082 5.70377 10.2124 5.69965 10.2166L5.1683 10.7042C5.15985 10.7103 5.15151 10.7165 5.14329 10.7229L4.58069 11.2793C4.57647 11.2834 4.57231 11.2876 4.56818 11.2918L3.99307 11.8794C3.98886 11.8835 3.98469 11.8877 3.98057 11.8919L3.41171 12.5045C3.40313 12.5147 3.39479 12.5252 3.38671 12.5358L2.86786 13.1484C2.86365 13.1525 2.85948 13.1567 2.85536 13.1609L2.38027 13.7548L1.93018 14.3174L1.47384 14.88L1.01751 15.4238C1.00883 15.4361 1.0005 15.4486 0.992503 15.4613L0.61118 15.9802C0.543357 16.0701 0.497515 16.1701 0.473654 16.2802L0.379886 16.7303L0.311123 16.9929L0.186099 17.1304C0.0830731 17.2815 0.0998116 17.418 0.236315 17.5397C0.372818 17.6615 0.510275 17.6625 0.648687 17.543L0.76746 17.4055L1.03001 17.3179L1.47384 17.1679C1.57932 17.134 1.67309 17.0798 1.75515 17.0054L2.22399 16.5678C2.25059 16.5444 2.2756 16.5194 2.299 16.4928L2.75534 15.9489C2.75952 15.9469 2.76369 15.9448 2.76784 15.9427L3.23043 15.3738C3.23252 15.3717 3.23461 15.3697 3.23668 15.3676L3.68677 14.805C3.68677 14.8029 3.68677 14.8008 3.68677 14.7987L4.14935 14.2173L4.6557 13.6235L5.1933 13.0296L5.74341 12.4545L6.29976 11.9357L6.81861 11.4606L7.88757 10.5229C7.89175 10.5208 7.89592 10.5188 7.90007 10.5166L8.45017 10.0165C8.45229 10.0124 8.45437 10.0082 8.45642 10.004L9.00653 9.49145C9.01288 9.48529 9.01913 9.47904 9.02528 9.47269L9.56914 8.93509L10.1192 8.38499L10.6568 7.85989L11.1694 7.36604L11.682 6.8972L12.2196 6.44087L12.8198 5.97203L13.4511 5.48443L14.1012 5.00309L14.8076 4.5405L16.3954 3.50906L17.1831 3.01521L17.8895 2.59013L18.4771 2.24632L18.9647 1.99627L19.3272 1.82124L19.5835 1.73372L19.7086 1.70246L19.8023 1.68996C19.9037 1.68136 19.9974 1.6501 20.0836 1.59619L20.1274 1.56494C20.2872 1.46199 20.3761 1.31591 20.3941 1.1267C20.4121 0.9375 20.3524 0.777269 20.2149 0.646012Z" fill="black"/>
<path d="M12.0633 34.1086C12.0635 34.2242 12.1045 34.3228 12.1862 34.4044C12.268 34.4861 12.3666 34.5269 12.4822 34.5269C12.5977 34.5269 12.6964 34.4861 12.7781 34.4044C12.8599 34.3228 12.9008 34.2242 12.901 34.1086C12.9008 33.9931 12.8599 33.8945 12.7781 33.8129C12.6964 33.7312 12.5977 33.6904 12.4822 33.6904C12.3666 33.6904 12.268 33.7312 12.1862 33.8129C12.1045 33.8945 12.0635 33.9931 12.0633 34.1086ZM11.9383 34.1149C11.9383 34.2582 11.989 34.3805 12.0903 34.4818C12.1916 34.5831 12.3139 34.6337 12.4572 34.6337C12.6004 34.6337 12.7227 34.5831 12.824 34.4818C12.9254 34.3805 12.976 34.2582 12.976 34.1149C12.976 33.9716 12.9254 33.8493 12.824 33.748C12.7227 33.6467 12.6004 33.596 12.4572 33.596C12.3139 33.596 12.1916 33.6467 12.0903 33.748C11.989 33.8493 11.9383 33.9716 11.9383 34.1149ZM12.2134 33.5585L12.1571 33.5773C12.0625 33.611 11.9806 33.6643 11.9115 33.7371C11.8423 33.8099 11.7933 33.8944 11.7645 33.9906C11.7356 34.0868 11.73 34.1844 11.7477 34.2832C11.7654 34.3821 11.8045 34.4716 11.8649 34.5518C11.9253 34.6321 12.0006 34.6943 12.0907 34.7386C12.1809 34.7829 12.2762 34.8045 12.3766 34.8033C12.477 34.8021 12.5718 34.7783 12.6608 34.732C12.7499 34.6856 12.8237 34.6216 12.8822 34.54L12.9135 34.4962C13.0905 34.2528 13.0889 34.0106 12.9089 33.7694C12.7288 33.5283 12.497 33.458 12.2134 33.5585ZM11.6008 34.2087C11.6008 34.4089 11.6716 34.5798 11.8131 34.7214C11.9547 34.863 12.1257 34.9338 12.3259 34.9338C12.5261 34.9338 12.6971 34.863 12.8386 34.7214C12.9802 34.5798 13.051 34.4089 13.051 34.2087C13.051 34.0084 12.9802 33.8375 12.8386 33.6959C12.6971 33.5543 12.5261 33.4835 12.3259 33.4835C12.1257 33.4835 11.9547 33.5543 11.8131 33.6959C11.6716 33.8375 11.6008 34.0084 11.6008 34.2087ZM11.5195 34.2337C11.5195 34.4529 11.597 34.64 11.752 34.795C11.907 34.9501 12.0942 35.0276 12.3134 35.0276C12.5326 35.0276 12.7197 34.9501 12.8748 34.795C13.0298 34.64 13.1073 34.4529 13.1073 34.2337C13.1073 34.0144 13.0298 33.8273 12.8748 33.6723C12.7197 33.5173 12.5326 33.4398 12.3134 33.4398C12.0942 33.4398 11.907 33.5173 11.752 33.6723C11.597 33.8273 11.5195 34.0144 11.5195 34.2337ZM12.1509 35.0651L12.2009 35.0776C12.3085 35.1017 12.4168 35.1058 12.5259 35.0901L12.5884 35.0776H12.7072L13.0135 35.0901L13.5761 35.1338C13.5845 35.1339 13.5928 35.1339 13.6011 35.1338L14.395 35.1776C14.3992 35.1797 14.4034 35.1818 14.4075 35.1838L15.3952 35.2214C15.4119 35.2218 15.4286 35.2218 15.4452 35.2214L16.5454 35.2151C16.5538 35.2152 16.5621 35.2152 16.5705 35.2151L17.7144 35.1838C17.7165 35.1818 17.7186 35.1797 17.7207 35.1776L18.8521 35.1401L19.9398 35.1026L21.0025 35.0838L22.0277 35.0713C22.034 35.0714 22.0402 35.0714 22.0465 35.0713L23.0154 35.0338C23.03 35.0341 23.0446 35.0341 23.0592 35.0338L23.9531 34.9588C23.9761 34.9575 23.999 34.9554 24.0219 34.9526L24.7908 34.84C24.8418 34.8316 24.8918 34.8191 24.9408 34.8025L25.5534 34.6025C25.9058 34.4884 26.0954 34.2467 26.1223 33.8773L26.1348 33.7648C25.9872 33.7905 25.908 33.878 25.8972 34.0274L26.2911 33.9586C26.4551 33.9098 26.5221 33.8012 26.4922 33.6327C26.4622 33.4642 26.3618 33.3853 26.191 33.396L25.7972 33.4648C25.851 33.6165 25.9572 33.679 26.116 33.6523L26.0785 33.546C25.9618 33.2186 25.7305 33.0373 25.3846 33.0022L24.747 32.9334C24.7095 32.9312 24.672 32.9312 24.6345 32.9334L23.8593 32.9397C23.8531 32.9396 23.8468 32.9396 23.8406 32.9397L22.9467 32.9709L21.9902 32.9959L20.9775 33.0084C20.9734 33.0084 20.9692 33.0084 20.965 33.0084L19.8961 33.0272C19.8919 33.0272 19.8878 33.0272 19.8836 33.0272L18.7834 33.0522C18.7813 33.0543 18.7792 33.0564 18.7771 33.0584L17.6457 33.1022L16.5204 33.1397L15.4515 33.146L14.4888 33.1085L13.7012 33.0772C13.6824 33.0767 13.6636 33.0767 13.6449 33.0772L13.0635 33.0897C13.0153 33.0904 12.9674 33.0946 12.9198 33.1022L12.5634 33.1522C12.4947 33.1637 12.428 33.1825 12.3634 33.2085L12.1634 33.2835C12.0873 33.3137 12.0165 33.3533 11.9508 33.4023L11.8571 33.471C11.7094 33.5808 11.6052 33.7225 11.5445 33.8961L11.5257 33.9461C11.441 34.1886 11.4613 34.422 11.5866 34.6462C11.7119 34.8705 11.9 35.0101 12.1509 35.0651Z" fill="black"/>
<path d="M11.1882 34.0961C11.1882 34.2117 11.2291 34.3105 11.3108 34.3922C11.3926 34.474 11.4913 34.5149 11.607 34.5149C11.7227 34.5149 11.8214 34.474 11.9032 34.3922C11.9849 34.3105 12.0258 34.2117 12.0258 34.0961C12.0258 33.9804 11.9849 33.8817 11.9032 33.7999C11.8214 33.7181 11.7227 33.6773 11.607 33.6773C11.4913 33.6773 11.3926 33.7181 11.3108 33.7999C11.2291 33.8817 11.1882 33.9804 11.1882 34.0961ZM11.1819 34.1023V34.1211C11.185 34.3743 11.3121 34.5171 11.5631 34.5497C11.8142 34.5823 11.9735 34.4767 12.0412 34.2327C12.1088 33.9887 12.0266 33.8161 11.7945 33.7148L11.7758 33.7085C11.7098 33.68 11.641 33.6689 11.5694 33.6752C11.4978 33.6816 11.432 33.7046 11.3721 33.7444C11.3121 33.7841 11.2653 33.8357 11.2316 33.8992C11.1979 33.9627 11.1813 34.0304 11.1819 34.1023ZM11.1694 34.1398C11.1694 34.2728 11.2164 34.3862 11.3104 34.4802C11.4044 34.5742 11.5178 34.6212 11.6508 34.6212C11.7837 34.6212 11.8971 34.5742 11.9911 34.4802C12.0851 34.3862 12.1321 34.2728 12.1321 34.1398C12.1321 34.0069 12.0851 33.8935 11.9911 33.7995C11.8971 33.7055 11.7837 33.6585 11.6508 33.6585C11.5178 33.6585 11.4044 33.7055 11.3104 33.7995C11.2164 33.8935 11.1694 34.0069 11.1694 34.1398ZM11.1007 34.1648C11.1007 34.3306 11.1592 34.472 11.2764 34.5892C11.3936 34.7064 11.5351 34.765 11.7008 34.765C11.8665 34.765 12.0079 34.7064 12.1251 34.5892C12.2423 34.472 12.3009 34.3306 12.3009 34.1648C12.3009 33.9991 12.2423 33.8577 12.1251 33.7405C12.0079 33.6233 11.8665 33.5647 11.7008 33.5647C11.5351 33.5647 11.3936 33.6233 11.2764 33.7405C11.1592 33.8577 11.1007 33.9991 11.1007 34.1648ZM11.0569 34.3399L11.0694 34.3961C11.1152 34.5966 11.2215 34.7571 11.3882 34.8775L11.5132 34.9713C11.5431 34.9941 11.5744 35.015 11.607 35.0338L11.8133 35.1463C11.8476 35.1653 11.8831 35.1819 11.9196 35.1963L12.2509 35.3213C12.2937 35.337 12.3375 35.3495 12.3822 35.3588L12.8572 35.4713C12.88 35.4763 12.9029 35.4805 12.926 35.4838L13.5511 35.5839C13.5636 35.5862 13.5761 35.5883 13.5886 35.5901L14.32 35.6839C14.3284 35.684 14.3367 35.684 14.345 35.6839L15.1452 35.7652C15.1597 35.7675 15.1743 35.7696 15.1889 35.7714L16.0454 35.8214C16.0495 35.8214 16.0537 35.8214 16.0579 35.8214L16.9455 35.8652C16.9539 35.8653 16.9622 35.8653 16.9705 35.8652L17.9145 35.8902C17.9228 35.8903 17.9311 35.8903 17.9395 35.8902L18.8771 35.8964C18.8939 35.8947 18.9105 35.8927 18.9271 35.8902L19.9148 35.8464C19.9316 35.8447 19.9482 35.8427 19.9648 35.8402L21.0088 35.7464C21.0277 35.7427 21.0464 35.7386 21.0651 35.7339L22.109 35.5776C22.1153 35.5777 22.1215 35.5777 22.1278 35.5776L23.1029 35.4088C23.1071 35.4088 23.1113 35.4088 23.1154 35.4088L23.9781 35.2526L24.697 35.14L25.2596 35.065L25.7034 35.0463L26.0785 35.0588L26.4161 35.1025L26.7661 35.1525C26.7682 35.1525 26.7703 35.1525 26.7724 35.1525L27.085 35.1963C27.1036 35.201 27.1223 35.2051 27.1412 35.2088L27.41 35.2275C27.4516 35.2321 27.4932 35.2342 27.535 35.2338L27.7851 35.2275C27.8228 35.2254 27.8603 35.2213 27.8976 35.215L28.1414 35.1838C28.1645 35.1804 28.1874 35.1762 28.2102 35.1713L28.4727 35.115C28.5625 35.0955 28.6479 35.0643 28.729 35.0213L28.9666 34.8962C29.1239 34.8104 29.2469 34.6895 29.3354 34.5337L29.4542 34.3399C29.5128 34.2396 29.5467 34.1315 29.5559 34.0157C29.5651 33.8999 29.5487 33.7879 29.5067 33.6795C29.4647 33.5712 29.4013 33.4774 29.3165 33.3981C29.2316 33.3187 29.1337 33.2618 29.0228 33.2272L28.804 33.1584C28.6901 33.1216 28.5734 33.107 28.454 33.1146L28.1914 33.1334C28.1747 33.1351 28.158 33.1371 28.1414 33.1397L27.9289 33.1647H27.7913L27.5976 33.1522L27.3538 33.1271L27.0725 33.0896L26.7224 33.0334C26.712 33.0311 26.7016 33.0291 26.6911 33.0271L26.2911 32.9771C26.262 32.9738 26.2328 32.9717 26.2035 32.9709L25.7409 32.9521C25.7118 32.9509 25.6826 32.9509 25.6534 32.9521L25.1221 32.9709C25.0949 32.9719 25.0678 32.974 25.0408 32.9771L24.4219 33.0521C24.4094 33.054 24.3969 33.0561 24.3844 33.0584L23.6405 33.1772C23.6343 33.1771 23.628 33.1771 23.6218 33.1772L22.7466 33.3334L21.7839 33.5022L20.7775 33.6522L19.7836 33.746L18.8459 33.796L17.9457 33.8023L17.0205 33.7898L16.1579 33.7585L15.3265 33.7085L14.5451 33.6397L13.8137 33.571L13.1823 33.5147C13.1657 33.5122 13.149 33.5101 13.1323 33.5085L12.6635 33.4835L12.3509 33.4585L12.1446 33.4272C12.128 33.4246 12.1113 33.4226 12.0946 33.421L11.9383 33.4085C11.7472 33.3928 11.5721 33.4386 11.4132 33.546L11.3632 33.5772C11.0885 33.7621 10.9863 34.0163 11.0569 34.3399ZM29.2291 34.0711L29.4479 33.9398C29.6182 33.8355 29.6514 33.6981 29.5474 33.5275C29.4434 33.357 29.3061 33.3236 29.1353 33.4272L28.9166 33.5585C28.7462 33.6628 28.7131 33.8002 28.817 33.9707C28.921 34.1413 29.0584 34.1747 29.2291 34.0711Z" fill="black"/>
<path d="M28.179 33.9023C28.179 34.0128 28.218 34.1071 28.2962 34.1852C28.3743 34.2633 28.4686 34.3024 28.5791 34.3024C28.6895 34.3024 28.7838 34.2633 28.862 34.1852C28.9401 34.1071 28.9791 34.0128 28.9791 33.9023C28.9791 33.7918 28.9401 33.6975 28.862 33.6194C28.7838 33.5413 28.6895 33.5022 28.5791 33.5022C28.4686 33.5022 28.3743 33.5413 28.2962 33.6194C28.218 33.6975 28.179 33.7918 28.179 33.9023ZM28.1602 33.9086C28.1602 34.0242 28.2011 34.1229 28.2829 34.2047C28.3647 34.2865 28.4634 34.3274 28.5791 34.3274C28.6947 34.3274 28.7934 34.2865 28.8752 34.2047C28.957 34.1229 28.9979 34.0242 28.9979 33.9086C28.9979 33.7929 28.957 33.6942 28.8752 33.6124C28.7934 33.5306 28.6947 33.4897 28.5791 33.4897C28.4634 33.4897 28.3647 33.5306 28.2829 33.6124C28.2011 33.6942 28.1602 33.7929 28.1602 33.9086ZM28.1165 33.9211C28.1165 34.0523 28.1629 34.1642 28.2556 34.257C28.3484 34.3498 28.4604 34.3961 28.5916 34.3962C28.7228 34.3961 28.8347 34.3498 28.9275 34.257C29.0203 34.1642 29.0667 34.0523 29.0667 33.9211C29.0667 33.7899 29.0203 33.6779 28.9275 33.5851C28.8347 33.4924 28.7228 33.446 28.5916 33.446C28.4604 33.446 28.3484 33.4924 28.2556 33.5851C28.1629 33.6779 28.1165 33.7899 28.1165 33.9211ZM28.0165 33.9336C28.0165 34.0993 28.075 34.2407 28.1922 34.3579C28.3094 34.4751 28.4509 34.5337 28.6166 34.5337C28.7823 34.5337 28.9237 34.4751 29.0409 34.3579C29.1581 34.2407 29.2167 34.0993 29.2167 33.9336C29.2167 33.7678 29.1581 33.6264 29.0409 33.5092C28.9237 33.392 28.7823 33.3334 28.6166 33.3334C28.4509 33.3334 28.3094 33.392 28.1922 33.5092C28.075 33.6264 28.0165 33.7678 28.0165 33.9336ZM29.0229 34.4587L29.1167 34.3962C29.1597 34.3692 29.1993 34.338 29.2354 34.3024L29.373 34.1649C29.3929 34.1451 29.4117 34.1242 29.4292 34.1023L29.623 33.8523C29.6337 33.8422 29.6441 33.8318 29.6543 33.821L29.9481 33.396C29.9502 33.396 29.9522 33.396 29.9543 33.396L30.3857 32.7771L30.9733 31.9394L31.6922 30.9267C31.6942 30.9247 31.6963 30.9226 31.6984 30.9205L32.4923 29.7703C32.4944 29.7682 32.4965 29.7661 32.4986 29.764L33.305 28.57C33.3071 28.568 33.3091 28.5659 33.3112 28.5638L34.0989 27.3761C34.101 27.3719 34.1031 27.3677 34.1051 27.3636L34.8177 26.2446C34.8177 26.2425 34.8177 26.2404 34.8177 26.2383L35.4616 25.2132L36.0242 24.2942L36.5368 23.4628L36.9807 22.7502C36.9828 22.7481 36.9848 22.746 36.9869 22.7439L37.3557 22.1438C37.3578 22.1397 37.3599 22.1355 37.362 22.1313L37.6433 21.65C37.6497 21.6418 37.6559 21.6334 37.662 21.625L37.8621 21.2561C37.871 21.2398 37.8793 21.2231 37.8871 21.2061L38.0184 20.9311C38.0304 20.9025 38.0408 20.8733 38.0496 20.8436L38.1121 20.6685C38.1121 20.6665 38.1121 20.6644 38.1121 20.6623L38.1434 20.5748C38.2064 20.3521 38.1814 20.1397 38.0685 19.9377C37.9556 19.7357 37.7878 19.6032 37.5652 19.5402C37.3425 19.4772 37.1301 19.5021 36.9281 19.615C36.7261 19.728 36.5936 19.8958 36.5306 20.1184L36.5243 20.1434C36.5454 20.097 36.5621 20.0491 36.5743 19.9997L36.4431 20.2935L36.3118 20.531L36.093 20.9061L35.7054 21.4812L35.0615 22.3689L34.2051 23.5628L33.2174 24.9381L32.211 26.3509C32.2068 26.355 32.2026 26.3591 32.1985 26.3634L31.2921 27.7261C31.2831 27.7403 31.2748 27.7549 31.2671 27.7699L30.5669 29.0264C30.5625 29.0346 30.5583 29.0429 30.5544 29.0514L30.0856 30.0453L29.6793 30.6954C29.615 30.8411 29.6505 30.956 29.7857 31.0401C29.9209 31.1242 30.0397 31.1051 30.1419 30.983L30.5419 30.3391L31.2671 29.514C31.2671 29.5119 31.2671 29.5098 31.2671 29.5077L32.2048 28.4138C32.209 28.4097 32.2132 28.4055 32.2173 28.4013L33.2299 27.1198L34.3114 25.7758L35.3929 24.4943L36.3493 23.3691C36.3557 23.3608 36.362 23.3525 36.368 23.344L37.0494 22.4626C37.0581 22.4504 37.0664 22.4379 37.0744 22.4251L37.487 21.8188C37.4979 21.8045 37.5083 21.7899 37.5183 21.775L37.7558 21.3687C37.7624 21.3563 37.7686 21.3438 37.7746 21.3312L37.9246 21.0499C37.9313 21.0355 37.9375 21.0209 37.9433 21.0061L38.0871 20.6873C38.0418 20.7429 38.0043 20.8033 37.9746 20.8686L37.9934 20.8498C38.0808 20.658 38.094 20.4612 38.0329 20.2594C37.9717 20.0576 37.8516 19.9012 37.6723 19.7902C37.4931 19.6791 37.2995 19.6412 37.0916 19.6763C36.8837 19.7114 36.7134 19.8109 36.5806 19.9747L36.5493 20.0434L36.4743 20.1997C36.47 20.208 36.4658 20.2163 36.4618 20.2247L36.3493 20.4748L36.1743 20.8123L35.9117 21.2687L35.5491 21.8563L35.1053 22.5689C35.1032 22.571 35.1011 22.5731 35.0991 22.5752L34.5865 23.4066C34.5865 23.4086 34.5865 23.4107 34.5865 23.4128L34.0238 24.3255L33.3925 25.3444L32.6861 26.4509L31.8984 27.6199L31.092 28.8076C31.0899 28.8097 31.0879 28.8117 31.0858 28.8138L30.3044 29.9641L29.6043 30.983L29.0229 31.8207C29.0186 31.8269 29.0145 31.8331 29.0104 31.8394L28.5916 32.4708C28.5806 32.4871 28.5701 32.5038 28.5603 32.5208L28.3103 32.9771C28.2939 33.0054 28.2793 33.0346 28.2665 33.0646L28.1477 33.3647C28.1376 33.3934 28.1293 33.4225 28.1227 33.4522L28.0852 33.5835L28.0602 33.6335C27.9287 33.9333 27.9872 34.1898 28.2358 34.4028C28.4844 34.6159 28.7467 34.6345 29.0229 34.4587Z" fill="black"/>
<path d="M19.9461 1.06481C19.9461 1.17356 19.9845 1.26638 20.0614 1.34328C20.1383 1.42018 20.2312 1.45863 20.3399 1.45863C20.4487 1.45863 20.5415 1.42018 20.6184 1.34328C20.6953 1.26638 20.7337 1.17356 20.7337 1.06481C20.7337 0.956055 20.6953 0.86323 20.6184 0.786331C20.5415 0.709432 20.4487 0.670982 20.3399 0.670982C20.2312 0.670982 20.1383 0.709432 20.0614 0.786331C19.9845 0.86323 19.9461 0.956055 19.9461 1.06481ZM19.8898 1.06481C19.8898 1.18564 19.9326 1.28878 20.018 1.37423C20.1034 1.45967 20.2066 1.50239 20.3274 1.50239C20.4483 1.50239 20.5514 1.45967 20.6368 1.37423C20.7223 1.28878 20.765 1.18564 20.765 1.06481C20.765 0.943972 20.7223 0.840832 20.6368 0.755389C20.5514 0.669946 20.4483 0.627224 20.3274 0.627224C20.2066 0.627224 20.1034 0.669946 20.018 0.755389C19.9326 0.840832 19.8898 0.943972 19.8898 1.06481ZM19.8211 1.07731C19.8211 1.21195 19.8687 1.32688 19.9639 1.42209C20.0591 1.5173 20.174 1.5649 20.3087 1.5649C20.4433 1.5649 20.5582 1.5173 20.6534 1.42209C20.7487 1.32688 20.7963 1.21195 20.7963 1.07731C20.7963 0.942664 20.7487 0.827738 20.6534 0.732529C20.5582 0.637321 20.4433 0.589717 20.3087 0.589717C20.174 0.589717 20.0591 0.637321 19.9639 0.732529C19.8687 0.827738 19.8211 0.942664 19.8211 1.07731ZM20.1774 0.595968H20.1649C20.0355 0.626524 19.9313 0.695287 19.8523 0.802257L19.8336 0.821011C19.7622 0.915444 19.7226 1.02171 19.7148 1.13982V1.21484C19.7131 1.24192 19.7131 1.26901 19.7148 1.2961L19.7211 1.37737C19.7288 1.32759 19.7309 1.27758 19.7273 1.22734L19.7148 1.30235C19.7022 1.38607 19.7042 1.46942 19.7211 1.5524L19.7398 1.65242C19.7445 1.67986 19.7508 1.70695 19.7586 1.73368L19.8148 1.90247C19.8296 1.94792 19.8484 1.99168 19.8711 2.03374L20.0274 2.32755C20.0407 2.3533 20.0552 2.37831 20.0711 2.40256L20.3774 2.85265C20.3873 2.86967 20.3977 2.88634 20.4087 2.90266L20.8525 3.47777C20.8607 3.48627 20.869 3.4946 20.8775 3.50277L22.0653 4.92804L22.7279 5.71569L23.3968 6.5221L24.0656 7.34725L24.7345 8.19116L25.3846 9.02882C25.3908 9.03516 25.3971 9.04141 25.4034 9.04758L26.0535 9.83523C26.0576 9.84153 26.0618 9.84778 26.066 9.85398L26.7036 10.5854C26.7098 10.5938 26.716 10.6021 26.7224 10.6104L27.3538 11.2855C27.3599 11.2918 27.3662 11.2981 27.3725 11.3043L28.0164 11.9544L28.6728 12.617L29.3229 13.2921L29.9543 13.9548L30.5606 14.5924C30.5627 14.5945 30.5648 14.5966 30.5669 14.5986L31.1482 15.1987C31.1544 15.2051 31.1606 15.2113 31.167 15.2175L31.7358 15.7676C31.74 15.7718 31.7441 15.776 31.7483 15.7801L32.311 16.3052L32.8673 16.8303L33.4049 17.3679L33.9238 17.9118C33.9258 17.9159 33.9279 17.9201 33.93 17.9243L34.4176 18.4181L34.8427 18.8682C34.8448 18.8703 34.8468 18.8724 34.8489 18.8744L35.2115 19.2558C35.2177 19.26 35.224 19.2642 35.2303 19.2683L35.5491 19.5933C35.5532 19.5975 35.5574 19.6017 35.5616 19.6058L35.8366 19.8746C35.8428 19.8789 35.8491 19.883 35.8554 19.8871L36.0804 20.0934L36.2492 20.256L36.3805 20.3872C36.4842 20.4899 36.605 20.5649 36.743 20.6123L36.8306 20.6435C36.7302 20.538 36.6115 20.4609 36.4742 20.4122L36.493 20.4372C36.6503 20.6092 36.8451 20.706 37.0771 20.7278C37.3092 20.7495 37.5185 20.6906 37.705 20.5508C37.8916 20.4111 38.0071 20.2269 38.0515 19.998C38.0959 19.7692 38.0578 19.5552 37.937 19.3558L37.9183 19.3245C37.9383 19.379 37.9633 19.4311 37.9933 19.4808L37.962 19.3933C37.9147 19.2553 37.8397 19.1344 37.737 19.0307L37.5995 18.8932C37.5953 18.889 37.5912 18.8848 37.587 18.8807L37.4057 18.7057C37.3995 18.6993 37.3933 18.6931 37.3869 18.6869L37.1681 18.4869L36.9181 18.2368L36.6055 17.918C36.6055 17.9159 36.6055 17.9138 36.6055 17.9118L36.2367 17.5367L35.8179 17.0866C35.8117 17.0824 35.8054 17.0782 35.7991 17.0741L35.3115 16.574L34.7802 16.0302C34.776 16.0259 34.7719 16.0218 34.7677 16.0177L34.2113 15.4613C34.2052 15.455 34.1989 15.4487 34.1926 15.4425L33.6237 14.9049C33.6196 14.9028 33.6154 14.9007 33.6112 14.8987L33.0548 14.3861L32.5172 13.8547L31.9484 13.2671L31.3483 12.6358L30.7357 11.9669C30.7295 11.9626 30.7232 11.9585 30.7169 11.9544L30.0668 11.273C30.0626 11.2688 30.0585 11.2646 30.0543 11.2605L29.3916 10.5916L28.7603 9.954L28.1539 9.29762L27.5288 8.59749L26.8912 7.82234L26.2223 7.00344C26.2202 7.00134 26.2181 6.99926 26.216 6.99719L25.5222 6.15953C25.5181 6.15323 25.5139 6.14697 25.5097 6.14077L24.8033 5.33437L24.1094 4.54047L23.453 3.76532C23.4509 3.76323 23.4489 3.76114 23.4468 3.75907L22.2528 2.3463C22.2487 2.34209 22.2445 2.33792 22.2403 2.3338L21.7589 1.78995L21.4026 1.37737C21.3945 1.36675 21.3862 1.35633 21.3776 1.34611L21.1401 1.10857C21.1299 1.09786 21.1195 1.08744 21.1088 1.07731L20.99 0.964788L20.9275 0.902276C20.8876 0.86388 20.8439 0.83054 20.7963 0.802257L20.7463 0.76475L20.7212 0.752248L20.7025 0.733494C20.5902 0.633664 20.4589 0.583654 20.3087 0.583466H20.2837C20.3718 0.63794 20.4676 0.665029 20.5712 0.664731L20.5587 0.65848C20.4402 0.585172 20.3131 0.564335 20.1774 0.595968ZM36.2617 19.7996C36.2617 20.0396 36.3465 20.2444 36.5162 20.414C36.6859 20.5837 36.8907 20.6685 37.1306 20.6685C37.3706 20.6685 37.5754 20.5837 37.745 20.414C37.9147 20.2444 37.9995 20.0396 37.9995 19.7996C37.9995 19.5597 37.9147 19.3549 37.745 19.1852C37.5754 19.0155 37.3706 18.9307 37.1306 18.9307C36.8907 18.9307 36.6859 19.0155 36.5162 19.1852C36.3465 19.3549 36.2617 19.5597 36.2617 19.7996ZM36.4055 19.7684C36.4055 19.9548 36.4714 20.1139 36.6032 20.2458C36.735 20.3776 36.8942 20.4435 37.0806 20.4435C37.267 20.4435 37.4262 20.3776 37.558 20.2458C37.6898 20.1139 37.7557 19.9548 37.7557 19.7684C37.7557 19.5819 37.6898 19.4228 37.558 19.291C37.4262 19.1592 37.267 19.0932 37.0806 19.0932C36.8942 19.0932 36.735 19.1592 36.6032 19.291C36.4714 19.4228 36.4055 19.5819 36.4055 19.7684ZM36.6555 19.6809C36.6555 19.8726 36.7514 19.9684 36.9431 19.9684C37.1348 19.9684 37.2306 19.8726 37.2306 19.6809C37.2306 19.4891 37.1348 19.3933 36.9431 19.3933C36.7514 19.3933 36.6555 19.4891 36.6555 19.6809Z" fill="black"/>
<path d="M5.69395 15.9173C5.69395 16.0313 5.73423 16.1285 5.81479 16.2091C5.89535 16.2896 5.99259 16.3299 6.10653 16.3299C6.22046 16.3299 6.3177 16.2896 6.39826 16.2091C6.47882 16.1285 6.5191 16.0313 6.5191 15.9173C6.5191 15.8034 6.47882 15.7062 6.39826 15.6256C6.3177 15.5451 6.22046 15.5048 6.10653 15.5048C5.99259 15.5048 5.89535 15.5451 5.81479 15.6256C5.73423 15.7062 5.69395 15.8034 5.69395 15.9173ZM5.64394 15.8923C5.64394 16.0201 5.6891 16.1291 5.77943 16.2194C5.86975 16.3098 5.97879 16.3549 6.10653 16.3549C6.23427 16.3549 6.3433 16.3098 6.43362 16.2194C6.52395 16.1291 6.56911 16.0201 6.56911 15.8923C6.56911 15.7646 6.52395 15.6556 6.43362 15.5652C6.3433 15.4749 6.23427 15.4298 6.10653 15.4298C5.97879 15.4298 5.86975 15.4749 5.77943 15.5652C5.6891 15.6556 5.64394 15.7646 5.64394 15.8923ZM5.61268 15.8611C5.61268 16.0009 5.66212 16.1203 5.76099 16.2191C5.85986 16.318 5.9792 16.3674 6.11903 16.3674C6.25885 16.3674 6.3782 16.318 6.47707 16.2191C6.57594 16.1203 6.62537 16.0009 6.62537 15.8611C6.62537 15.7213 6.57594 15.6019 6.47707 15.503C6.3782 15.4042 6.25885 15.3547 6.11903 15.3547C5.9792 15.3547 5.85986 15.4042 5.76099 15.503C5.66212 15.6019 5.61268 15.7213 5.61268 15.8611ZM6.40658 16.3362L6.56286 16.2674C6.61232 16.2439 6.65816 16.2148 6.70039 16.1799L6.93793 15.9924C6.95302 15.9804 6.96761 15.9679 6.98169 15.9549L7.31926 15.6423C7.32562 15.6362 7.33187 15.6299 7.33801 15.6235L7.8131 15.161C7.81522 15.1568 7.8173 15.1526 7.81935 15.1485L8.44447 14.5108C8.44657 14.5088 8.44865 14.5067 8.45072 14.5046L9.22587 13.6857L10.126 12.7668L11.0887 11.7978L12.1264 10.7976L13.2454 9.74118L14.4519 8.62846L15.6771 7.5095C15.6792 7.50743 15.6813 7.50534 15.6833 7.50325L16.8148 6.4593C16.819 6.45517 16.8232 6.45101 16.8273 6.4468L17.7525 5.55913C17.7567 5.555 17.7609 5.55084 17.765 5.54663L18.4339 4.884C18.4424 4.87583 18.4507 4.86749 18.4589 4.859L18.8777 4.41516C18.926 4.36383 18.9677 4.30757 19.0027 4.24638L19.1528 3.99008C19.3485 3.65125 19.3141 3.33762 19.0497 3.04917C18.7853 2.76073 18.4758 2.69929 18.1213 2.86487L17.8525 2.99614C17.7568 3.03943 17.6714 3.09777 17.5962 3.17117L17.1649 3.60251C17.1628 3.60458 17.1607 3.60666 17.1586 3.60876L16.5023 4.27138L15.5958 5.15905L14.4769 6.19675L13.2516 7.31571C13.2495 7.31779 13.2475 7.31987 13.2454 7.32196L12.0389 8.44718C12.0347 8.4513 12.0305 8.45547 12.0264 8.45968L10.9137 9.52238C10.9095 9.52443 10.9053 9.52652 10.9012 9.52863L9.86349 10.5476C9.85715 10.5537 9.85089 10.56 9.84474 10.5663L8.8883 11.5603C8.88196 11.5664 8.87571 11.5727 8.86955 11.579L7.99438 12.5355C7.99013 12.5417 7.98597 12.5479 7.98188 12.5542L7.23799 13.4044C7.23798 13.4065 7.23798 13.4085 7.23799 13.4106L6.65663 14.0858C6.65453 14.0878 6.65245 14.0899 6.65038 14.092L6.2253 14.5983C6.2188 14.6086 6.21254 14.619 6.20654 14.6296L5.92524 14.9922C5.90955 15.0122 5.89496 15.0331 5.88148 15.0547L5.7252 15.311C5.69954 15.3524 5.6787 15.3962 5.66269 15.4423L5.60643 15.6048C5.5185 15.8502 5.57075 16.0608 5.76316 16.2367C5.95557 16.4126 6.17004 16.4457 6.40658 16.3362ZM17.9463 3.5525C17.9463 3.72339 18.0067 3.86926 18.1275 3.9901C18.2484 4.11094 18.3943 4.17136 18.5651 4.17136C18.736 4.17136 18.8819 4.11094 19.0028 3.9901C19.1236 3.86926 19.184 3.72339 19.184 3.5525C19.184 3.3816 19.1236 3.23573 19.0028 3.11489C18.8819 2.99405 18.736 2.93363 18.5651 2.93363C18.3943 2.93363 18.2484 2.99405 18.1275 3.11489C18.0067 3.23573 17.9463 3.3816 17.9463 3.5525ZM18.1401 3.64001C18.1401 3.7643 18.184 3.87039 18.2719 3.95827C18.3598 4.04616 18.4659 4.0901 18.5902 4.0901C18.7144 4.0901 18.8205 4.04616 18.9084 3.95827C18.9963 3.87039 19.0402 3.7643 19.0402 3.64001C19.0402 3.51573 18.9963 3.40964 18.9084 3.32176C18.8205 3.23387 18.7144 3.18993 18.5902 3.18993C18.4659 3.18993 18.3598 3.23387 18.2719 3.32176C18.184 3.40964 18.1401 3.51573 18.1401 3.64001ZM18.2963 3.70253L18.2401 3.86506C18.2166 4.01697 18.2775 4.11776 18.423 4.16743C18.5685 4.2171 18.6784 4.17466 18.7527 4.04009L18.8089 3.87756C18.8325 3.72565 18.7715 3.62486 18.626 3.57519C18.4805 3.52551 18.3707 3.56796 18.2963 3.70253Z" fill="black"/>
<path d="M6.36911 16.0174L6.36286 16.0111C6.282 15.9314 6.1848 15.8918 6.07125 15.8923C5.9577 15.8929 5.86088 15.9334 5.78078 16.0139C5.70068 16.0944 5.66063 16.1914 5.66063 16.3049C5.66063 16.4185 5.70068 16.5155 5.78078 16.596C5.86088 16.6764 5.9577 16.717 6.07125 16.7175C6.1848 16.718 6.282 16.6784 6.36286 16.5987L6.36911 16.5925C6.44861 16.5131 6.48836 16.4173 6.48836 16.3049C6.48836 16.1926 6.44861 16.0967 6.36911 16.0174ZM6.43162 16.0549V16.0486C6.34468 15.9169 6.22231 15.8486 6.06452 15.8438C5.90673 15.8391 5.78046 15.8998 5.68572 16.0261C5.59098 16.1524 5.56796 16.2906 5.61666 16.4407C5.66536 16.5909 5.76512 16.6893 5.91594 16.7359C6.06676 16.7826 6.20465 16.7576 6.3296 16.6612C6.45456 16.5647 6.51357 16.4376 6.50664 16.2799V16.2737C6.50162 16.1939 6.47661 16.121 6.43162 16.0549ZM5.54395 16.3362C5.54395 16.4743 5.59278 16.5921 5.69043 16.6898C5.78808 16.7874 5.90595 16.8363 6.04405 16.8363C6.18215 16.8363 6.30002 16.7874 6.39767 16.6898C6.49532 16.5921 6.54415 16.4743 6.54415 16.3362C6.54415 16.1981 6.49532 16.0802 6.39767 15.9826C6.30002 15.8849 6.18215 15.8361 6.04405 15.8361C5.90595 15.8361 5.78808 15.8849 5.69043 15.9826C5.59278 16.0802 5.54395 16.1981 5.54395 16.3362ZM5.48144 16.3799C5.48144 16.5336 5.53576 16.6647 5.6444 16.7733C5.75303 16.882 5.88417 16.9363 6.0378 16.9363C6.19143 16.9363 6.32257 16.882 6.4312 16.7733C6.53984 16.6647 6.59415 16.5336 6.59415 16.3799C6.59415 16.2263 6.53984 16.0952 6.4312 15.9865C6.32257 15.8779 6.19143 15.8236 6.0378 15.8236C5.88417 15.8236 5.75303 15.8779 5.6444 15.9865C5.53576 16.0952 5.48144 16.2263 5.48144 16.3799ZM5.48769 16.1674L5.45019 16.2549C5.42441 16.3067 5.40566 16.3608 5.39393 16.4174L5.37517 16.53C5.35997 16.6154 5.35997 16.7008 5.37517 16.7863L5.43768 17.1488C5.44579 17.1979 5.45829 17.2458 5.47519 17.2926L5.769 18.0803C5.77484 18.095 5.78109 18.1096 5.78775 18.124L6.32535 19.3493C6.32932 19.3598 6.33349 19.3702 6.33786 19.3805L7.09425 20.9183C7.09828 20.9267 7.10245 20.935 7.10675 20.9433L7.96317 22.5624C7.96524 22.5645 7.96732 22.5665 7.96942 22.5686L8.80082 24.1002L9.51346 25.4129L10.0698 26.4569C10.0698 26.4589 10.0698 26.461 10.0698 26.4631L10.4761 27.2195C10.4992 27.2638 10.5263 27.3054 10.5574 27.3445L10.9012 27.7571C10.9814 27.8547 11.0814 27.9235 11.2013 27.9634L11.3951 28.0322C11.5124 28.0715 11.6266 28.0637 11.7375 28.0088C11.8485 27.954 11.9239 27.868 11.9639 27.7508L12.0327 27.5508C12.0704 27.4332 12.0745 27.3144 12.0452 27.1945L11.9264 26.6694C11.9121 26.6107 11.8913 26.5545 11.8639 26.5006L11.4763 25.7317C11.4743 25.7275 11.4722 25.7234 11.4701 25.7192L10.9137 24.669C10.9137 24.6669 10.9137 24.6648 10.9137 24.6628L10.2073 23.35L9.41969 21.8122L8.62579 20.1807L7.9069 18.6366L7.3443 17.4239C7.34229 17.4176 7.3402 17.4114 7.33805 17.4051L6.96923 16.655C6.95108 16.618 6.93025 16.5826 6.90671 16.5487L6.69417 16.2424C6.67147 16.2113 6.64647 16.1821 6.61916 16.1549L6.56915 16.0986L6.53164 16.0486C6.46621 15.9632 6.38398 15.8994 6.28496 15.8573C6.18593 15.8152 6.08296 15.8003 5.97604 15.8124C5.86913 15.8246 5.77215 15.8623 5.68511 15.9256C5.59807 15.9888 5.53226 16.0695 5.48769 16.1674ZM11.8389 27.6258L11.8327 27.5946C11.7865 27.4437 11.6861 27.3834 11.5313 27.4136C11.3765 27.4438 11.3061 27.5375 11.3201 27.6946L11.3263 27.7258C11.3724 27.8767 11.4729 27.937 11.6277 27.9068C11.7825 27.8766 11.8529 27.7829 11.8389 27.6258Z" fill="black"/>
<path d="M9.90732 25.2503C9.90732 25.3556 9.94455 25.4455 10.019 25.52C10.0935 25.5944 10.1833 25.6317 10.2886 25.6317C10.3939 25.6317 10.4838 25.5944 10.5583 25.52C10.6327 25.4455 10.67 25.3556 10.67 25.2503C10.67 25.145 10.6327 25.0552 10.5583 24.9807C10.4838 24.9063 10.3939 24.869 10.2886 24.869C10.1833 24.869 10.0935 24.9063 10.019 24.9807C9.94455 25.0552 9.90732 25.145 9.90732 25.2503ZM9.85106 25.2441C9.85106 25.3632 9.89317 25.4649 9.9774 25.5491C10.0616 25.6333 10.1633 25.6754 10.2824 25.6754C10.4015 25.6754 10.5032 25.6333 10.5874 25.5491C10.6716 25.4649 10.7137 25.3632 10.7137 25.2441C10.7137 25.125 10.6716 25.0233 10.5874 24.9391C10.5032 24.8549 10.4015 24.8128 10.2824 24.8128C10.1633 24.8128 10.0616 24.8549 9.9774 24.9391C9.89317 25.0233 9.85106 25.125 9.85106 25.2441ZM9.74479 25.2253L9.73229 25.3879C9.72656 25.4828 9.74115 25.5745 9.77605 25.6629L9.95108 26.1068C9.96163 26.1368 9.97413 26.1659 9.98859 26.1943L10.4012 26.9382C10.4052 26.9466 10.4093 26.9549 10.4137 26.9632L10.97 27.8758C10.976 27.8864 10.9823 27.8968 10.9888 27.9071L11.5951 28.7948C11.6067 28.8141 11.6192 28.8329 11.6327 28.851L12.2265 29.5512C12.2455 29.5758 12.2663 29.5987 12.289 29.6199L12.7704 30.0325C12.7881 30.0466 12.8068 30.0591 12.8266 30.07L13.1079 30.2388L13.2142 30.3513C13.3348 30.4504 13.4512 30.4457 13.5634 30.3373C13.6756 30.2288 13.6842 30.1126 13.5893 29.9888L13.5018 29.895L13.4205 29.6137C13.4168 29.6031 13.4126 29.5927 13.408 29.5824L13.1892 28.9886C13.1836 28.9737 13.1773 28.9591 13.1704 28.9448L12.7704 28.1196C12.7646 28.1048 12.7584 28.0903 12.7516 28.0759L12.214 27.1445C12.214 27.1424 12.214 27.1403 12.214 27.1382L11.6702 26.213C11.6681 26.2088 11.666 26.2047 11.6639 26.2005L11.2201 25.4816C11.2068 25.4579 11.1922 25.435 11.1763 25.4129L10.8825 25.0378C10.8263 24.9647 10.7575 24.9063 10.6762 24.8628L10.5324 24.7878C10.4521 24.7453 10.3665 24.7245 10.2755 24.7254C10.1846 24.7263 10.0995 24.7489 10.02 24.793C9.94052 24.8372 9.87638 24.8976 9.82756 24.9743C9.77875 25.051 9.75116 25.1347 9.74479 25.2253Z" fill="black"/>
<path d="M13.2267 29.7513C13.2267 29.86 13.2651 29.9529 13.342 30.0298C13.4189 30.1067 13.5117 30.1451 13.6205 30.1451C13.7292 30.1451 13.8221 30.1067 13.899 30.0298C13.9759 29.9529 14.0143 29.86 14.0143 29.7513C14.0143 29.6425 13.9759 29.5497 13.899 29.4728C13.8221 29.3959 13.7292 29.3575 13.6205 29.3575C13.5117 29.3575 13.4189 29.3959 13.342 29.4728C13.2651 29.5497 13.2267 29.6425 13.2267 29.7513ZM13.2017 29.7513C13.2017 29.8652 13.2419 29.9625 13.3225 30.043C13.4031 30.1236 13.5003 30.1639 13.6142 30.1639C13.7282 30.1639 13.8254 30.1236 13.906 30.043C13.9865 29.9625 14.0268 29.8652 14.0268 29.7513C14.0268 29.6373 13.9865 29.5401 13.906 29.4595C13.8254 29.379 13.7282 29.3387 13.6142 29.3387C13.5003 29.3387 13.4031 29.379 13.3225 29.4595C13.2419 29.5401 13.2017 29.6373 13.2017 29.7513ZM13.8643 29.3762L13.833 29.3512C13.8662 29.4233 13.9141 29.4838 13.9768 29.5325L13.958 29.495C13.8985 29.3627 13.801 29.2708 13.6653 29.2194C13.5297 29.168 13.3957 29.1721 13.2634 29.2317C13.1312 29.2912 13.0394 29.3889 12.988 29.5246C12.9367 29.6602 12.9409 29.7942 13.0006 29.9264C13.0602 30.0586 13.1579 30.1504 13.2937 30.2016C13.4294 30.2529 13.5633 30.2486 13.6955 30.1889L13.7205 30.1826L13.7455 30.1701C13.912 30.1052 14.0085 29.9843 14.0349 29.8076C14.0614 29.6308 14.0045 29.487 13.8643 29.3762ZM12.8703 29.7013C12.8703 29.867 12.9289 30.0084 13.0461 30.1256C13.1633 30.2428 13.3047 30.3014 13.4705 30.3014C13.6362 30.3014 13.7776 30.2428 13.8948 30.1256C14.012 30.0084 14.0706 29.867 14.0706 29.7013C14.0706 29.5356 14.012 29.3941 13.8948 29.2769C13.7776 29.1597 13.6362 29.1012 13.4705 29.1012C13.3047 29.1012 13.1633 29.1597 13.0461 29.2769C12.9289 29.3941 12.8703 29.5356 12.8703 29.7013ZM13.1141 30.2451L13.2204 30.3201C13.2742 30.3614 13.3326 30.3947 13.3954 30.4202L13.6392 30.5202C13.684 30.5368 13.7298 30.5493 13.7768 30.5577L14.1831 30.6452C14.2038 30.6481 14.2247 30.6502 14.2456 30.6515L14.802 30.7202C14.8165 30.7227 14.8311 30.7248 14.8457 30.7265L15.5271 30.7702C15.5521 30.7713 15.5771 30.7713 15.6021 30.7702L16.4148 30.7515C16.4273 30.7517 16.4398 30.7517 16.4523 30.7515L17.3337 30.6952C17.3441 30.6954 17.3545 30.6954 17.3649 30.6952L18.2589 30.6077L19.1153 30.5264L19.9092 30.4514L20.6406 30.3952L21.3782 30.3389C21.3907 30.3392 21.4032 30.3392 21.4157 30.3389L22.1534 30.2514L22.8597 30.1639C22.8639 30.1639 22.8681 30.1639 22.8722 30.1639L23.5161 30.0763L24.0787 30.0138L24.5976 29.9888L25.0914 29.9701C25.1039 29.9703 25.1164 29.9703 25.1289 29.9701L25.5603 29.9326C25.6153 29.9296 25.6694 29.9213 25.7228 29.9076L26.0666 29.8075C26.1532 29.7828 26.2324 29.7432 26.3041 29.6888L26.5354 29.5137C26.5735 29.4851 26.6068 29.4518 26.6355 29.4137L26.7042 29.3262L26.8605 29.3012C27.0311 29.276 27.1039 29.178 27.0789 29.0074C27.0539 28.8368 26.9561 28.7639 26.7855 28.7886L26.648 28.8073L26.5729 28.7386C26.5571 28.7251 26.5404 28.7126 26.5229 28.7011L26.2854 28.5323C26.2311 28.4951 26.1727 28.4659 26.1104 28.4448L25.7728 28.326C25.7201 28.3059 25.6659 28.2913 25.6103 28.2822L25.1789 28.226C25.1436 28.2217 25.1082 28.2197 25.0727 28.2197L24.5726 28.2135C24.5559 28.213 24.5392 28.213 24.5226 28.2135L23.9725 28.2385C23.9558 28.238 23.9391 28.238 23.9224 28.2385L23.3223 28.301C23.3119 28.3008 23.3015 28.3008 23.2911 28.301L22.641 28.3885L21.9408 28.476L21.2157 28.5636L20.4968 28.6323L19.7654 28.6886C19.755 28.6884 19.7446 28.6884 19.7341 28.6886L18.934 28.7823C18.9319 28.7823 18.9298 28.7823 18.9277 28.7823L18.0776 28.8886L17.2024 28.9824L16.3585 29.0386L15.5834 29.0574L14.9395 29.0386L14.4019 29.0074L13.9893 28.9761C13.9706 28.9755 13.9518 28.9755 13.933 28.9761H13.6705C13.5936 28.9771 13.5185 28.9896 13.4455 29.0136L13.3204 29.0511C13.0561 29.1342 12.9003 29.3122 12.8531 29.5852C12.806 29.8583 12.893 30.0782 13.1141 30.2451Z" fill="black"/>
<path d="M33.193 19.4931C33.193 19.6001 33.2309 19.6914 33.3066 19.7671C33.3822 19.8428 33.4736 19.8806 33.5806 19.8806C33.6876 19.8806 33.779 19.8428 33.8547 19.7671C33.9303 19.6914 33.9682 19.6001 33.9682 19.4931C33.9682 19.386 33.9303 19.2947 33.8547 19.219C33.779 19.1433 33.6876 19.1055 33.5806 19.1055C33.4736 19.1055 33.3822 19.1433 33.3066 19.219C33.2309 19.2947 33.193 19.386 33.193 19.4931ZM33.1368 19.0055L32.993 19.1367C32.9589 19.1651 32.9276 19.1964 32.8992 19.2305L32.6117 19.5806C32.6075 19.5847 32.6033 19.5889 32.5992 19.5931L32.1241 20.2182C32.1198 20.2244 32.1157 20.2306 32.1116 20.2369L31.449 21.1496C31.4447 21.1558 31.4405 21.1621 31.4365 21.1684L30.6551 22.3311C30.6508 22.3352 30.6467 22.3394 30.6426 22.3436L29.7736 23.6939C29.7715 23.6959 29.7695 23.698 29.7674 23.7001L28.861 25.1254L27.9796 26.5006L27.2044 27.6946L26.5543 28.6698C26.5522 28.674 26.5501 28.6781 26.548 28.6823L26.0917 29.4012C25.9628 29.6045 25.9399 29.8191 26.0229 30.0451L26.0729 30.1951L25.9854 30.3139C25.8729 30.4639 25.8917 30.5952 26.0417 30.7077C26.1917 30.8202 26.323 30.8015 26.4355 30.6514L26.5293 30.5264H26.6981C26.9445 30.5306 27.1424 30.4348 27.2919 30.2389L27.8108 29.5637C27.8173 29.5535 27.8235 29.543 27.8295 29.5325L28.4984 28.5698C28.5005 28.5656 28.5026 28.5615 28.5047 28.5573L29.2986 27.3633C29.3007 27.3592 29.3028 27.355 29.3048 27.3508L30.1862 25.9755L31.0989 24.5565L31.9741 23.2125L32.7492 22.0498L33.3743 21.1184C33.3764 21.1163 33.3785 21.1142 33.3806 21.1121L33.8119 20.462C33.8162 20.4558 33.8203 20.4496 33.8244 20.4432L34.062 20.0619C34.0938 20.0109 34.1188 19.9567 34.137 19.8994L34.1995 19.7118C34.3027 19.3932 34.2149 19.1412 33.9359 18.9558C33.657 18.7704 33.3906 18.7869 33.1368 19.0055Z" fill="black"/>
<path d="M18.8902 3.25867C18.8902 3.35361 18.9238 3.43465 18.9909 3.50178C19.0581 3.56892 19.1391 3.60249 19.2341 3.60249C19.329 3.60249 19.41 3.56892 19.4772 3.50178C19.5443 3.43465 19.5779 3.35361 19.5779 3.25867C19.5779 3.16373 19.5443 3.08269 19.4772 3.01556C19.41 2.94842 19.329 2.91485 19.2341 2.91485C19.1391 2.91485 19.0581 2.94842 18.9909 3.01556C18.9238 3.08269 18.8902 3.16373 18.8902 3.25867ZM18.7965 3.19616L18.784 3.25867C18.77 3.33945 18.7763 3.41863 18.8027 3.49622L18.859 3.64624C18.8641 3.66536 18.8704 3.68412 18.8777 3.7025L19.0153 3.99006C19.0246 4.00942 19.035 4.02818 19.0465 4.04632L19.3403 4.49641C19.3444 4.50274 19.3486 4.50899 19.3528 4.51516L19.7779 5.14028C19.78 5.14447 19.782 5.14864 19.7842 5.15278L20.3343 5.90292C20.3343 5.90501 20.3343 5.90709 20.3343 5.90917L20.9656 6.77184C20.9698 6.77606 20.9739 6.78023 20.9781 6.78434L21.6908 7.71577C21.6948 7.72208 21.699 7.72834 21.7033 7.73452L22.4972 8.69721C22.5013 8.70352 22.5054 8.70977 22.5097 8.71596L23.3411 9.65989C23.3431 9.66408 23.3452 9.66824 23.3473 9.67239L24.2038 10.6101L25.0414 11.5227L25.8541 12.4104L26.598 13.2481L27.2606 14.0045C27.2627 14.0066 27.2647 14.0086 27.2668 14.0107L27.8732 14.6796C27.8773 14.6838 27.8815 14.688 27.8857 14.6921L28.4358 15.261C28.4399 15.2652 28.4441 15.2693 28.4483 15.2735L28.9297 15.7485L29.3297 16.1736L29.6861 16.5675L30.0174 16.9613L30.3424 17.3489C30.3581 17.3665 30.3748 17.3832 30.3924 17.3989L30.7238 17.7177C30.7358 17.7287 30.7483 17.7391 30.7613 17.7489L31.0613 17.9865L31.2864 18.1928C31.2905 18.1949 31.2947 18.197 31.2989 18.199L31.4864 18.3553C31.5756 18.4296 31.6777 18.4588 31.7927 18.4428L31.899 18.4303C31.8392 18.3731 31.7684 18.3502 31.6864 18.3615L31.7614 18.4303C31.8865 18.5465 32.0072 18.5422 32.1236 18.4174C32.24 18.2927 32.236 18.1719 32.1115 18.0552L32.0365 17.9865C32.0285 18.0707 32.0556 18.1416 32.1178 18.199L32.1303 18.0927C32.1407 17.9881 32.1136 17.8944 32.049 17.8114L31.899 17.6239C31.8969 17.6218 31.8948 17.6197 31.8927 17.6177L31.7177 17.3989L31.5489 17.0863C31.545 17.0779 31.5408 17.0695 31.5364 17.0613L31.2926 16.6675C31.2794 16.6457 31.2648 16.6248 31.2489 16.605L30.93 16.2111C30.9259 16.2069 30.9218 16.2027 30.9175 16.1986L30.5862 15.7986C30.5821 15.7943 30.578 15.7902 30.5737 15.7861L30.2174 15.386L29.8361 14.9359L29.411 14.4045L28.9109 13.7857C28.9109 13.7836 28.9109 13.7815 28.9109 13.7794L28.342 13.0855C28.3379 13.0834 28.3337 13.0813 28.3295 13.0793L27.6794 12.3104C27.6774 12.3083 27.6753 12.3062 27.6732 12.3041L26.9355 11.454C26.9314 11.4498 26.9272 11.4456 26.923 11.4415L26.1041 10.5476L25.2665 9.63488L24.4288 8.70346L23.6161 7.76578L22.8222 6.80935L22.0784 5.90292C22.0763 5.90083 22.0742 5.89874 22.0721 5.89667L21.3845 5.09027L20.7969 4.37138C20.7928 4.36716 20.7886 4.36299 20.7844 4.35888L20.2905 3.79002C20.2884 3.78792 20.2864 3.78584 20.2843 3.78377L19.9279 3.37744C19.9238 3.37321 19.9197 3.36904 19.9154 3.36494L19.7217 3.15865L19.6466 3.05238C19.6228 3.02204 19.5957 2.99495 19.5654 2.97112L19.5216 2.93361C19.3907 2.82214 19.2444 2.79567 19.0828 2.8542C18.9211 2.91274 18.8257 3.02672 18.7965 3.19616Z" fill="black"/>
<path d="M28.7672 14.8359C28.7672 14.9395 28.8038 15.0279 28.8771 15.1011C28.9503 15.1744 29.0387 15.211 29.1423 15.211C29.2458 15.211 29.3343 15.1744 29.4075 15.1011C29.4807 15.0279 29.5173 14.9395 29.5173 14.8359C29.5173 14.7323 29.4807 14.6439 29.4075 14.5707C29.3343 14.4975 29.2458 14.4608 29.1423 14.4608C29.0387 14.4608 28.9503 14.4975 28.8771 14.5707C28.8038 14.6439 28.7672 14.7323 28.7672 14.8359ZM28.7797 14.7109L28.7735 14.7422C28.7511 14.8028 28.7427 14.8653 28.7484 14.9297L28.7672 15.1172C28.7746 15.1901 28.7955 15.2588 28.8297 15.3235L29.0735 15.7861C29.0949 15.826 29.1199 15.8635 29.1485 15.8986L29.6861 16.555C29.6922 16.5635 29.6985 16.5718 29.7049 16.58L30.3613 17.3239C30.3654 17.3281 30.3695 17.3323 30.3738 17.3364L31.0114 18.024L31.5365 18.5991C31.5427 18.6034 31.5489 18.6076 31.5552 18.6116L31.9428 19.018C32.0519 19.1277 32.1832 19.1923 32.3366 19.2118L32.6054 19.2493C32.74 19.2684 32.8583 19.2332 32.9605 19.1436C33.0627 19.054 33.1131 18.9413 33.1118 18.8054L33.1055 18.5304C33.1042 18.3733 33.0542 18.2337 32.9555 18.1115L32.5929 17.6802C32.5909 17.676 32.5888 17.6719 32.5867 17.6677L32.0741 17.0738L31.4552 16.3612C31.4531 16.3612 31.451 16.3612 31.449 16.3612L30.7926 15.6173C30.7885 15.611 30.7843 15.6048 30.7801 15.5986L30.1987 14.9859C30.1632 14.946 30.1236 14.9106 30.08 14.8797L29.6424 14.5921C29.5903 14.5578 29.534 14.5328 29.4736 14.5171L29.2923 14.4671C29.2471 14.4555 29.2013 14.4513 29.1548 14.4546H29.1235C28.9508 14.4621 28.8362 14.5475 28.7797 14.7109ZM32.5742 19.0992L32.6117 19.1492C32.7159 19.2904 32.8388 19.3091 32.9802 19.2051C33.1216 19.1011 33.1405 18.9783 33.0368 18.8367L32.9993 18.7867C32.895 18.6455 32.7722 18.6269 32.6308 18.7308C32.4893 18.8348 32.4705 18.9576 32.5742 19.0992Z" fill="black"/>
<path d="M0.573692 16.2614L0.548687 16.2927C0.513639 16.3315 0.48655 16.3753 0.467422 16.424L0.448668 16.4677L0.411161 16.5177L0.354901 16.5928L0.323645 16.6303L0.292389 16.6678C0.264446 16.6944 0.239441 16.7236 0.217374 16.7553L0.161114 16.8428C0.102699 16.9279 0.067276 17.0217 0.0548434 17.1241L0.0360899 17.2991C0.0299622 17.3512 0.0299622 17.4033 0.0360899 17.4554L0.073597 17.718C0.0761568 17.7453 0.0803243 17.7724 0.0860994 17.7992L0.179867 18.1806C0.183581 18.1953 0.187748 18.2099 0.19237 18.2243L0.354901 18.7432C0.358636 18.7579 0.362804 18.7725 0.367403 18.7869L0.629953 19.4871C0.637719 19.504 0.646053 19.5207 0.654958 19.5371L1.03628 20.3872C1.04407 20.4042 1.05241 20.4208 1.06129 20.4372L1.58013 21.3937C1.5841 21.4042 1.58827 21.4146 1.59264 21.4249L2.1865 22.4251C2.18855 22.4293 2.19063 22.4335 2.19275 22.4376L2.81787 23.4753C2.82196 23.4816 2.82612 23.4879 2.83037 23.4941L3.48675 24.5318L4.14937 25.5632C4.14937 25.5653 4.14937 25.5674 4.14937 25.5695L4.81825 26.6009L5.46212 27.6261C5.4642 27.6282 5.46628 27.6303 5.46837 27.6324L6.1185 28.6263L6.74362 29.589C6.74362 29.5911 6.74362 29.5931 6.74362 29.5952L7.38749 30.5642L8.01886 31.5143L8.61897 32.4333L9.70043 34.0898C9.70653 34.0983 9.71278 34.1066 9.71918 34.1148L10.213 34.8212C10.2378 34.8545 10.2649 34.8858 10.2943 34.915L10.8006 35.4401C10.8501 35.4926 10.9063 35.5364 10.9694 35.5714L11.407 35.8027L11.6633 35.9402L11.7696 36.0715C11.881 36.1632 11.9934 36.1644 12.1068 36.0751C12.2201 35.9858 12.2453 35.8762 12.1822 35.7464L12.0884 35.6214L12.0384 35.3651L11.9884 34.89C11.9817 34.8208 11.965 34.7541 11.9384 34.6899L11.6633 34.0211C11.6471 33.9843 11.6284 33.9489 11.607 33.9148L11.1695 33.1772C11.1655 33.1667 11.1613 33.1562 11.157 33.1459L10.088 31.4831C10.0859 31.481 10.0838 31.4789 10.0818 31.4768L9.48789 30.5517C9.48581 30.5517 9.48372 30.5517 9.48164 30.5517L8.85652 29.5952L8.2189 28.6263L7.60003 27.6636L6.95616 26.6759L6.30603 25.6507L5.63716 24.613C5.63716 24.6109 5.63716 24.6089 5.63716 24.6068L4.97453 23.5816L4.32441 22.5501L3.69304 21.5249L3.10542 20.5373L2.56157 19.6058L2.11774 18.8057L1.78017 18.1681L1.55513 17.693L1.4051 17.3679L1.33009 17.1491L1.28008 16.9928C1.27424 16.9801 1.26799 16.9676 1.26132 16.9553L1.24257 16.9116V16.8866C1.22896 16.9553 1.22896 17.0241 1.24257 17.0928L1.26132 16.9928C1.2647 16.9721 1.26679 16.9513 1.26757 16.9303L1.27383 16.824C1.27395 16.8178 1.27395 16.8115 1.27383 16.8053L1.28008 16.7178L1.28633 16.649L1.29258 16.624C1.3318 16.4174 1.25751 16.2667 1.0697 16.1719C0.881893 16.0772 0.716556 16.1071 0.573692 16.2614Z" fill="black"/>
</g>
<defs>
<clipPath id="clip0_1_7174">
<rect width="39" height="37" fill="white"/>
</clipPath>
</defs>
</svg>
