<svg width="33" height="28" viewBox="0 0 33 28" fill="none" xmlns="http://www.w3.org/2000/svg">
<g clip-path="url(#clip0_1_7416)">
<path d="M23.1524 0.602272C23.1524 0.739798 23.2212 0.808561 23.3587 0.808561C23.4962 0.808561 23.565 0.739798 23.565 0.602272C23.565 0.464745 23.4962 0.395982 23.3587 0.395982C23.2212 0.395982 23.1524 0.464745 23.1524 0.602272ZM23.1461 0.59602C23.1461 0.741881 23.2191 0.814812 23.3649 0.814812C23.5108 0.814812 23.5837 0.741881 23.5837 0.59602C23.5837 0.450159 23.5108 0.377229 23.3649 0.377229C23.2191 0.377229 23.1461 0.450159 23.1461 0.59602ZM23.44 0.345973L23.3649 0.314717C23.3466 0.308618 23.3279 0.304451 23.3087 0.302214L23.1274 0.270959C23.1128 0.269869 23.0982 0.269869 23.0836 0.270959H22.7961C22.7919 0.270873 22.7877 0.270873 22.7836 0.270959L22.371 0.283461C22.3668 0.285455 22.3626 0.287539 22.3585 0.289712L21.7959 0.33347C21.7876 0.333178 21.7792 0.333178 21.7709 0.33347L21.052 0.439741C21.0415 0.441409 21.0311 0.443493 21.0207 0.445992L20.1706 0.652281C20.1664 0.652219 20.1622 0.652219 20.1581 0.652281L19.1641 0.914831L18.0514 1.22114L16.7949 1.5337L15.3822 1.88377L13.8756 2.24633L12.3191 2.62766C12.317 2.62764 12.3149 2.62764 12.3128 2.62766L10.725 3.04649C10.7167 3.04838 10.7083 3.05047 10.7 3.05274L9.08722 3.54033C9.07879 3.54431 9.07046 3.54847 9.06222 3.55283L7.43691 4.11544C7.4242 4.12128 7.4117 4.12754 7.3994 4.13419L5.80535 4.81557C5.79054 4.82131 5.77595 4.82756 5.76159 4.83433L4.29256 5.59697C4.2712 5.60634 4.25036 5.61676 4.23005 5.62823L2.96106 6.46589C2.93009 6.48652 2.90092 6.50945 2.87354 6.53465L1.8921 7.42857C1.85262 7.46224 1.8172 7.49975 1.78583 7.54109L1.14196 8.44752C1.09068 8.51791 1.05318 8.59501 1.02944 8.67881L0.785643 9.57273C0.754236 9.68634 0.750068 9.80095 0.773141 9.91655L0.948174 10.7667C0.969541 10.8714 1.01122 10.9672 1.0732 11.0543L1.62955 11.8419C1.67547 11.9043 1.72965 11.9585 1.79208 12.0044L2.69226 12.6983C2.73697 12.7328 2.7849 12.7619 2.83603 12.7858L4.01751 13.3359C4.05793 13.3541 4.09961 13.3687 4.14253 13.3797L5.57405 13.761C5.60698 13.7695 5.64032 13.7757 5.67407 13.7798L7.30563 13.9923C7.33884 13.9965 7.37218 13.9986 7.40565 13.9986H9.206C9.23947 13.9986 9.27281 13.9965 9.30602 13.9923L11.2439 13.7423C11.2713 13.7375 11.2984 13.7312 11.3251 13.7235L13.3505 13.2297C13.3716 13.2243 13.3925 13.2181 13.413 13.2109L15.4822 12.4983C15.497 12.4925 15.5116 12.4863 15.5259 12.4795L17.5763 11.6044C17.589 11.5985 17.6015 11.5922 17.6138 11.5856L19.5767 10.6104C19.5852 10.6044 19.5935 10.5981 19.6017 10.5917L21.4333 9.57898C21.4438 9.57506 21.4543 9.57089 21.4646 9.56648L23.1149 8.54753C23.1277 8.5396 23.1402 8.53126 23.1524 8.52253L24.5902 7.50984C24.6097 7.49622 24.6284 7.48163 24.6464 7.46608L25.8154 6.44713C25.8448 6.42232 25.8719 6.39523 25.8967 6.36587L26.7281 5.35943C26.7601 5.31873 26.7872 5.27497 26.8093 5.22815L27.2719 4.30298C27.3125 4.22007 27.3354 4.13256 27.3407 4.04043L27.3907 3.22152C27.3974 3.11075 27.3787 3.00448 27.3344 2.90271L27.0469 2.22758C27.0069 2.13314 26.9485 2.05188 26.8719 1.98378L26.2905 1.47744C26.2452 1.43703 26.1952 1.40369 26.1405 1.37742L25.3903 1.0211C25.3425 0.997989 25.2925 0.981319 25.2403 0.971092L24.3089 0.789807C24.2697 0.781596 24.2301 0.777428 24.1901 0.777305L23.1211 0.783556C23.0874 0.784547 23.0541 0.788714 23.0211 0.796058L21.8709 1.0336C21.8451 1.03953 21.8201 1.04787 21.7959 1.05861L20.6894 1.50244L19.683 1.80875C19.6787 1.81069 19.6746 1.81277 19.6705 1.815L18.9078 2.09005C18.7918 2.1399 18.7555 2.22412 18.799 2.34273C18.8424 2.46133 18.9246 2.50213 19.0454 2.46513L19.8018 2.19633L20.7957 1.91502L21.9647 1.85251L23.1024 1.84626L24.0901 1.94628L24.8902 2.15882L25.4653 2.47138L25.8342 2.8652L25.9967 3.29028L25.9717 3.82163L25.6154 4.54677L24.8715 5.44694L23.765 6.39087L22.3648 7.35356L20.7394 8.34125L18.9203 9.31643L16.9887 10.2604L14.9758 11.1043L12.963 11.7731L11.0126 12.2232L9.16224 12.4358H7.44941L5.91787 12.2545L4.60512 11.9044L3.56117 11.4231L2.80478 10.8542L2.3922 10.2916L2.26718 9.76652L2.4172 9.17265L2.92355 8.42876L3.79247 7.61611L4.98019 6.7972L6.36796 6.02205L7.90575 5.30942L9.46855 4.69055L11.0438 4.15295L12.6004 3.68411L14.1382 3.25278L15.6322 2.84645C15.6322 2.84437 15.6322 2.84228 15.6322 2.8402L17.0325 2.45262C17.0367 2.45268 17.0408 2.45268 17.045 2.45262L18.289 2.07755L19.4017 1.74624L20.3769 1.46494L21.2208 1.22739L21.9147 1.03985L22.4335 0.927333L22.8273 0.883575L23.1024 0.85857H23.2712C23.2901 0.858383 23.3089 0.856299 23.3274 0.852319L23.4024 0.833566C23.5246 0.805264 23.5905 0.728587 23.6002 0.603535C23.6098 0.478484 23.5564 0.39263 23.44 0.345973Z" fill="black"/>
<path d="M4.48015 6.59711C4.48015 6.77215 4.56766 6.85966 4.7427 6.85966C4.91773 6.85966 5.00524 6.77215 5.00524 6.59711C5.00524 6.42208 4.91773 6.33456 4.7427 6.33456C4.56766 6.33456 4.48015 6.42208 4.48015 6.59711ZM4.65518 6.34082L4.63017 6.35332L4.59892 6.35957L4.56766 6.36582C4.47244 6.37028 4.39788 6.41181 4.34396 6.49043C4.29005 6.56904 4.27817 6.65356 4.30831 6.74399C4.33845 6.83443 4.39868 6.89491 4.48897 6.92546C4.57927 6.956 4.66385 6.94449 4.7427 6.89092L4.77395 6.87842L4.80521 6.86592C4.81375 6.86217 4.82209 6.85801 4.83021 6.85341L4.85522 6.84091C5.02169 6.77413 5.07161 6.65748 5.005 6.49094C4.93839 6.32441 4.82178 6.27436 4.65518 6.34082ZM4.68018 7.0472L4.7802 7.01594C4.80383 7.00956 4.82675 7.00123 4.84897 6.99094L5.14902 6.84716L5.74289 6.57211C5.74708 6.57009 5.75125 6.568 5.75539 6.56586L6.64931 6.11577L7.83703 5.55317L9.28106 4.9218L10.9251 4.32168L12.6942 3.74032L14.5258 3.20897L16.3699 2.72138L18.139 2.3213L19.7706 2.04L21.1771 1.87122C21.1792 1.87124 21.1812 1.87124 21.1833 1.87122L22.271 1.72119L23.0274 1.66493L23.49 1.68368C23.6234 1.68785 23.6921 1.62325 23.6963 1.48989C23.7005 1.35653 23.6359 1.28777 23.5025 1.2836L23.0274 1.26485C23.0253 1.26482 23.0233 1.26482 23.0212 1.26485L22.246 1.2586C22.2439 1.25857 22.2419 1.25857 22.2398 1.2586L21.1333 1.27735C21.1228 1.27888 21.1124 1.28097 21.1021 1.2836L19.6893 1.46489C19.6851 1.4648 19.681 1.4648 19.6768 1.46489L18.0327 1.72744C18.0306 1.72949 18.0285 1.73157 18.0265 1.73369L16.2261 2.065C16.2219 2.067 16.2178 2.06908 16.2136 2.07125L14.3445 2.50259C14.3382 2.5045 14.332 2.50658 14.3258 2.50884L12.4817 3.02769C12.4775 3.02762 12.4733 3.02762 12.4692 3.02769L10.6876 3.57779C10.6834 3.5798 10.6792 3.58188 10.6751 3.58404L8.99976 4.15915C8.99339 4.16315 8.98714 4.16731 8.981 4.17165L7.49947 4.75927C7.49527 4.76128 7.4911 4.76337 7.48697 4.76552L6.26799 5.27811C6.26379 5.28013 6.25962 5.28222 6.25548 5.28436L5.34281 5.7157C5.33224 5.7195 5.32182 5.72366 5.31155 5.7282L4.73644 6.04701C4.73009 6.05102 4.72384 6.05519 4.71769 6.05951L4.43639 6.23455C4.40933 6.25057 4.38433 6.26932 4.36137 6.29081L4.29261 6.35957C4.13758 6.50498 4.11225 6.67028 4.21661 6.85544C4.32098 7.04061 4.4755 7.10453 4.68018 7.0472Z" fill="black"/>
<path d="M18.3453 1.80871H18.4078L18.6328 1.79621C18.6349 1.79624 18.637 1.79624 18.6391 1.79621L19.0892 1.7587C19.0913 1.75872 19.0933 1.75872 19.0954 1.7587L19.7831 1.68368C19.7872 1.68378 19.7914 1.68378 19.7956 1.68368L20.6707 1.55241L21.6209 1.41488L22.4836 1.32112L23.1524 1.2461C23.2899 1.22937 23.3503 1.15228 23.3336 1.01482C23.317 0.877361 23.2399 0.816928 23.1024 0.833522L22.4336 0.908537L21.5771 1.0023L20.6207 1.08982L19.7393 1.15858C19.7351 1.15848 19.731 1.15848 19.7268 1.15858L19.0392 1.2461C19.0328 1.24794 19.0266 1.25003 19.0204 1.25235L18.5766 1.33987C18.5702 1.34168 18.564 1.34377 18.5578 1.34612L18.3515 1.40238L18.3078 1.40863C18.1744 1.42113 18.114 1.49407 18.1265 1.62742C18.139 1.76078 18.2119 1.82121 18.3453 1.80871Z" fill="black"/>
<path d="M1.57952 10.2103L1.60452 10.1728L1.62953 10.129L1.64203 10.1165L1.67329 10.0915C1.80261 9.98651 1.873 9.85089 1.88446 9.68468C1.89593 9.51848 1.84482 9.37448 1.73114 9.25269C1.61746 9.1309 1.47732 9.07001 1.31072 9.07001C1.14412 9.07001 1.00397 9.1309 0.890295 9.25269C0.776616 9.37448 0.725507 9.51848 0.736969 9.68468C0.748432 9.85089 0.818824 9.98651 0.948147 10.0915L0.998156 10.129L1.04817 10.1728L1.09192 10.2228L1.12318 10.2541C1.1877 10.3242 1.26738 10.3547 1.36222 10.3456C1.45707 10.3365 1.5295 10.2914 1.57952 10.2103ZM0.710602 9.69146L0.716853 10.0415C0.716697 10.0499 0.716697 10.0582 0.716853 10.0665L0.779365 10.9792C0.781008 10.9939 0.783091 11.0084 0.785616 11.023L0.998156 12.617C0.999828 12.6317 1.00191 12.6462 1.00441 12.6608L1.37948 14.7362C1.38488 14.7573 1.39113 14.7781 1.39823 14.7987L2.02335 17.1804C2.03214 17.2081 2.04256 17.2352 2.05461 17.2617L2.97353 19.5933C2.97549 19.5996 2.97757 19.6059 2.97978 19.6121L3.89871 21.6812L4.51133 23.3441C4.56978 23.498 4.67602 23.5458 4.83003 23.4876C4.98404 23.4293 5.032 23.3231 4.97391 23.169L4.36755 21.5187L3.88621 19.3245L3.44862 16.8678C3.44662 16.8615 3.44454 16.8553 3.44237 16.8491L2.94853 14.4361L2.5422 12.367L2.22964 10.7854C2.22757 10.7833 2.22549 10.7812 2.22339 10.7792L2.04211 9.88525C2.03669 9.86622 2.03044 9.84746 2.02335 9.82899L1.92333 9.49768C1.87974 9.34788 1.79204 9.23125 1.66024 9.14778C1.52844 9.06431 1.38552 9.03488 1.23147 9.0595C1.07741 9.08411 0.950774 9.15661 0.851552 9.277C0.752329 9.39739 0.705345 9.53554 0.710602 9.69146Z" fill="black"/>
<path d="M14.0318 20.2497C14.0319 20.3446 14.0654 20.4256 14.1326 20.4927C14.1997 20.5598 14.2807 20.5934 14.3756 20.5934C14.4706 20.5934 14.5516 20.5598 14.6187 20.4927C14.6858 20.4256 14.7194 20.3446 14.7195 20.2497C14.7194 20.1548 14.6858 20.0738 14.6187 20.0067C14.5516 19.9396 14.4706 19.906 14.3756 19.906C14.2807 19.906 14.1997 19.9396 14.1326 20.0067C14.0654 20.0738 14.0319 20.1548 14.0318 20.2497ZM13.9756 20.2309C13.9756 20.3414 14.0146 20.4357 14.0927 20.5138C14.1709 20.592 14.2652 20.631 14.3756 20.631C14.4861 20.631 14.5804 20.592 14.6585 20.5138C14.7367 20.4357 14.7757 20.3414 14.7757 20.2309C14.7757 20.1205 14.7367 20.0262 14.6585 19.9481C14.5804 19.8699 14.4861 19.8309 14.3756 19.8309C14.2652 19.8309 14.1709 19.8699 14.0927 19.9481C14.0146 20.0262 13.9756 20.1205 13.9756 20.2309ZM13.8943 20.2122C13.8943 20.3468 13.9419 20.4618 14.0371 20.557C14.1323 20.6522 14.2473 20.6998 14.3819 20.6998C14.5165 20.6998 14.6315 20.6522 14.7267 20.557C14.8219 20.4618 14.8695 20.3468 14.8695 20.2122C14.8695 20.0776 14.8219 19.9626 14.7267 19.8674C14.6315 19.7722 14.5165 19.7246 14.3819 19.7246C14.2473 19.7246 14.1323 19.7722 14.0371 19.8674C13.9419 19.9626 13.8943 20.0776 13.8943 20.2122ZM13.788 20.2122C13.788 20.3814 13.8478 20.5258 13.9675 20.6454C14.0871 20.765 14.2315 20.8248 14.4007 20.8248C14.5698 20.8248 14.7142 20.765 14.8338 20.6454C14.9535 20.5258 15.0133 20.3814 15.0133 20.2122C15.0133 20.043 14.9535 19.8986 14.8338 19.779C14.7142 19.6594 14.5698 19.5996 14.4007 19.5996C14.2315 19.5996 14.0871 19.6594 13.9675 19.779C13.8478 19.8986 13.788 20.043 13.788 20.2122ZM13.863 20.7185L13.9881 20.8936C14.0474 20.9708 14.1182 21.0354 14.2006 21.0874L14.5319 21.2999C14.5754 21.3292 14.6212 21.3543 14.6695 21.3749L15.2196 21.6C15.2702 21.6197 15.3223 21.6343 15.3758 21.6437L16.1322 21.7875C16.1922 21.7984 16.2526 21.8025 16.3135 21.8L17.2199 21.775C17.2815 21.7714 17.342 21.7609 17.4012 21.7437L18.3889 21.4874C18.4521 21.4717 18.5125 21.4488 18.5702 21.4187L19.5704 20.8811C19.61 20.8592 19.6475 20.8342 19.6829 20.8061L20.6143 20.0872C20.6743 20.0405 20.7264 19.9864 20.7706 19.9246L21.4082 19.037C21.4334 19.0019 21.4542 18.9644 21.4707 18.9245L21.8146 18.1243L22.2459 17.5867C22.3458 17.4617 22.3332 17.3492 22.2083 17.2492C22.0833 17.1493 21.9709 17.1617 21.8708 17.2866L21.452 17.8117L20.6956 18.2056C20.6829 18.2113 20.6704 18.2176 20.6581 18.2243L19.7267 18.7869C19.7117 18.7968 19.6971 18.8073 19.6829 18.8182L18.7577 19.4621L17.8826 19.9246L17.0824 20.1309L16.3573 20.1434L15.7697 20.0372L15.3508 19.8621L15.057 19.6933C15.0287 19.677 14.9996 19.6624 14.9695 19.6496L14.7695 19.5621C14.4128 19.4141 14.1153 19.4921 13.8771 19.7961C13.6388 20.1 13.6342 20.4075 13.863 20.7185Z" fill="black"/>
<path d="M27.3906 3.72151V3.71526C27.4172 3.6344 27.4055 3.5595 27.3556 3.49055C27.3057 3.42161 27.2382 3.38713 27.1531 3.38713C27.0679 3.38713 27.0004 3.42161 26.9505 3.49055C26.9006 3.5595 26.8889 3.6344 26.9155 3.71526V3.72151C26.9446 3.84747 27.0238 3.91045 27.1531 3.91045C27.2823 3.91045 27.3615 3.84747 27.3906 3.72151ZM26.8155 3.62774C26.8155 3.84028 26.9218 3.94655 27.1343 3.94655C27.3469 3.94655 27.4531 3.84028 27.4531 3.62774C27.4531 3.4152 27.3469 3.30893 27.1343 3.30893C26.9218 3.30893 26.8155 3.4152 26.8155 3.62774ZM27.5406 3.60274L27.5469 3.56523C27.5503 3.43815 27.5093 3.32752 27.4239 3.23334C27.3385 3.13916 27.2324 3.08757 27.1056 3.07857C26.9788 3.06956 26.8665 3.10564 26.7686 3.18681C26.6708 3.26798 26.6146 3.3717 26.6 3.49799C26.5854 3.62428 26.6165 3.73809 26.6933 3.83941C26.7701 3.94073 26.8713 4.00145 26.9968 4.02157L27.0343 4.02782C27.1658 4.04876 27.2825 4.01642 27.3845 3.93082C27.4864 3.84522 27.5385 3.73586 27.5406 3.60274ZM26.5342 3.55898L26.5279 3.79027C26.5264 3.84075 26.5306 3.89076 26.5404 3.9403L26.653 4.53417C26.6548 4.54463 26.6569 4.55505 26.6592 4.56542L26.8905 5.54061C26.8926 5.54479 26.8946 5.54896 26.8968 5.55311L27.2218 6.85336C27.2218 6.85752 27.2218 6.86169 27.2218 6.86586L27.6219 8.39115C27.624 8.39533 27.626 8.3995 27.6282 8.40365L28.0845 10.0102C28.0845 10.0144 28.0845 10.0185 28.0845 10.0227L28.5408 11.573L28.9472 12.9545C28.9492 12.9608 28.9513 12.967 28.9534 12.9733L29.3222 14.1172C29.3519 14.2151 29.3977 14.3047 29.4598 14.386L29.9724 15.0362C29.9724 15.0382 29.9724 15.0403 29.9724 15.0424L30.2849 15.43L30.3537 15.7238C30.3957 15.8596 30.486 15.9121 30.6248 15.8813C30.7636 15.8504 30.8232 15.7646 30.8038 15.6238L30.735 15.3175L30.8288 14.8299C30.831 14.8237 30.8331 14.8174 30.835 14.8111L30.9663 13.9985C30.9849 13.8851 30.9808 13.7726 30.9538 13.6609L30.6662 12.4919C30.6644 12.4794 30.6623 12.4669 30.66 12.4544L30.2537 11.0729C30.2516 11.0708 30.2495 11.0687 30.2474 11.0667L29.7848 9.52262L29.316 7.92231L28.8784 6.40952C28.8784 6.40744 28.8784 6.40536 28.8784 6.40327L28.4908 5.11553C28.4852 5.09655 28.479 5.07779 28.4721 5.05927L28.1157 4.12159C28.1033 4.08934 28.0887 4.05808 28.072 4.02782L27.7844 3.49647C27.7391 3.41272 27.6787 3.34187 27.6032 3.28393L27.4156 3.14015C27.2381 3.00598 27.0488 2.98665 26.8478 3.08215C26.6468 3.17766 26.5423 3.3366 26.5342 3.55898Z" fill="black"/>
<path d="M4.11804 19.8874C4.29643 19.8549 4.39645 19.7486 4.4181 19.5686L4.4306 19.5123C4.41143 19.5498 4.39893 19.5894 4.3931 19.6311L4.4181 19.5873L4.45561 19.5311L4.50562 19.4561C4.54242 19.4022 4.56951 19.3439 4.58688 19.281L4.60564 19.2185C4.68483 18.9401 4.60783 18.7152 4.37463 18.5438C4.14142 18.3724 3.90378 18.366 3.66171 18.5246L3.61795 18.5496C3.44711 18.6583 3.34501 18.8125 3.31164 19.0122L3.26163 19.3248C3.25246 19.3744 3.24829 19.4244 3.24913 19.4748L3.27413 20.1312C3.27598 20.1669 3.28015 20.2023 3.28663 20.2375L3.44917 21.2001C3.45254 21.2211 3.45671 21.242 3.46167 21.2627L3.75547 22.4504C3.75913 22.4672 3.7633 22.4839 3.76798 22.5004L4.1618 23.7444C4.16912 23.7677 4.17745 23.7906 4.18681 23.8131L4.64314 24.9134C4.66345 24.9618 4.68846 25.0076 4.71816 25.0509L5.24951 25.8448C5.2611 25.8621 5.27361 25.8788 5.28702 25.8948L5.7246 26.4074C5.72867 26.4117 5.73283 26.4158 5.7371 26.4199L5.99965 26.7012L6.09342 26.8512C6.18286 26.9595 6.28764 26.9772 6.40774 26.9044C6.52784 26.8317 6.5606 26.7306 6.506 26.6012L6.42473 26.4636L6.36847 26.1198L6.29346 25.4572C6.29179 25.4446 6.2897 25.4321 6.28721 25.4197L6.11217 24.482C6.10762 24.4525 6.10137 24.4233 6.09342 24.3945L5.74335 23.2505L5.37453 22.0316L5.09323 20.8751L4.89319 19.9312C4.89118 19.9249 4.8891 19.9186 4.88694 19.9124L4.73691 19.2748C4.73505 19.2643 4.73296 19.2539 4.73066 19.2435L4.64314 18.9372C4.61929 18.8502 4.57969 18.771 4.52437 18.6997L4.49311 18.6622C4.38005 18.531 4.23715 18.459 4.06444 18.4461C3.89172 18.4333 3.73976 18.4835 3.60857 18.5965C3.47738 18.7096 3.40537 18.8525 3.39256 19.0252C3.37974 19.1979 3.42987 19.3499 3.54293 19.4811L3.59294 19.5311C3.61444 19.5516 3.63736 19.5703 3.66171 19.5873L3.70546 19.6248L3.72422 19.6436L3.74297 19.6749C3.73506 19.6157 3.71423 19.5615 3.68046 19.5123L3.69296 19.5686C3.71461 19.7486 3.81463 19.8549 3.99302 19.8874C4.03469 19.895 4.07637 19.895 4.11804 19.8874Z" fill="black"/>
<path d="M4.05567 17.9557L4.04942 17.937C4.04225 17.99 4.04642 18.0421 4.06192 18.0933L4.06817 18.0433C3.99107 18.1094 3.94523 18.1928 3.93064 18.2933L3.9494 18.2745C3.97758 18.2504 4.00258 18.2233 4.02441 18.1933L4.05567 18.1495C4.14479 18.0311 4.17844 17.8985 4.15661 17.7519C4.13479 17.6052 4.064 17.4882 3.94424 17.4009C3.82449 17.3135 3.69146 17.2818 3.54516 17.3057C3.39887 17.3297 3.28291 17.4022 3.19728 17.5232C3.11166 17.6442 3.0819 17.7777 3.108 17.9236C3.13409 18.0696 3.20827 18.1845 3.33053 18.2683L3.37429 18.2996C3.44794 18.3495 3.52921 18.3766 3.61808 18.3808L3.64309 18.3871C3.58449 18.3473 3.51989 18.3243 3.4493 18.3183L3.47431 18.3371L3.48056 18.3433C3.61952 18.456 3.76318 18.4624 3.91155 18.3624C4.05992 18.2624 4.10796 18.1268 4.05567 17.9557ZM3.05548 17.887L3.06798 18.0745C3.0698 18.085 3.07188 18.0954 3.07423 18.1058L3.13049 18.5621C3.13233 18.5726 3.13441 18.583 3.13674 18.5934L3.26177 19.356C3.26519 19.3749 3.26935 19.3937 3.27427 19.4123L3.53682 20.475C3.53882 20.4812 3.5409 20.4875 3.54307 20.4937L3.89939 21.7815C3.89931 21.7877 3.89931 21.794 3.89939 21.8002L4.30571 23.1317C4.30571 23.1338 4.30571 23.1359 4.30571 23.138L4.68704 24.357C4.68904 24.3632 4.69112 24.3695 4.69329 24.3757L5.04335 25.3696C5.04536 25.3759 5.04744 25.3822 5.04961 25.3884L5.33091 26.1135C5.33492 26.122 5.33909 26.1303 5.34341 26.1385L5.54345 26.6136C5.54545 26.6199 5.54753 26.6262 5.5497 26.6324L5.67473 26.9074C5.68071 26.918 5.68697 26.9284 5.69348 26.9387L5.75599 27.07C5.76557 27.0892 5.77599 27.1079 5.78725 27.1262L5.81225 27.17C5.9487 27.2797 6.10443 27.332 6.27944 27.327C6.45446 27.3219 6.6069 27.2607 6.73677 27.1432C6.86664 27.0258 6.94288 26.8803 6.96549 26.7067C6.9881 26.533 6.95167 26.3728 6.8562 26.2261L6.8437 26.2136L6.81869 26.1948C6.8105 26.1884 6.80216 26.1821 6.79369 26.1761L6.75618 26.151C6.62635 26.4792 6.70345 26.748 6.98747 26.9575L6.99998 26.9262C6.68977 26.9214 6.47723 27.0631 6.36236 27.3513H6.38111L6.51864 27.3888C6.5228 27.3888 6.52697 27.3888 6.53114 27.3888L6.91246 27.4826C6.93931 27.4883 6.9664 27.4924 6.99373 27.4951L7.56258 27.5763C7.59163 27.5802 7.6208 27.5823 7.6501 27.5826L8.36274 27.5888C8.44667 27.5891 8.52794 27.5745 8.60653 27.5451L9.28791 27.295L9.91928 27.12L10.4694 27.0887C10.6319 27.0804 10.709 26.995 10.7007 26.8324C10.6923 26.6699 10.6069 26.5928 10.4444 26.6011L9.90053 26.6324L9.26916 26.4886L8.59403 26.2511C8.54519 26.235 8.49518 26.2246 8.444 26.2198L7.74387 26.1385L7.18126 26.0698L6.79994 26.0135C6.7709 26.0096 6.74173 26.0075 6.71242 26.0073L6.48738 26.001C6.47905 26.0009 6.47071 26.0009 6.46238 26.001H6.36236C6.28013 26.0032 6.20095 26.0199 6.12481 26.051L6.09355 26.0635C5.93492 26.1271 5.81644 26.2348 5.73812 26.3867C5.6598 26.5386 5.64075 26.6976 5.68098 26.8637L5.69348 26.9074C5.70647 26.9596 5.72523 27.0096 5.74974 27.0575L5.76849 27.0887C5.78758 27.1305 5.8105 27.1701 5.83726 27.2075L5.85601 27.2263C5.95889 27.3616 6.09301 27.4489 6.25838 27.4883C6.42375 27.5276 6.58284 27.51 6.73563 27.4355C6.88842 27.361 7.00025 27.2465 7.0711 27.092C7.14195 26.9375 7.15575 26.778 7.1125 26.6136L7.1 26.5636C7.08857 26.5249 7.07398 26.4874 7.05624 26.4511L6.99998 26.3198L6.8812 26.051L6.69367 25.5884L6.43112 24.8821L6.09355 23.9006L5.70598 22.7004L5.31216 21.3814L4.96209 20.1061L4.68079 19.0559C4.68093 19.0476 4.68093 19.0393 4.68079 19.0309L4.46199 18.2871C4.45819 18.2744 4.45402 18.2619 4.44949 18.2495L4.29321 17.8182C4.2812 17.7858 4.26661 17.7545 4.24945 17.7244L4.15569 17.5557C4.0028 17.2785 3.77481 17.1856 3.47173 17.2768C3.16865 17.3681 3.0299 17.5715 3.05548 17.887Z" fill="black"/>
<path d="M7.08742 26.5199C7.08742 26.62 7.12282 26.7055 7.19361 26.7763C7.26441 26.8471 7.34987 26.8825 7.44999 26.8825C7.55011 26.8825 7.63557 26.8471 7.70636 26.7763C7.77716 26.7055 7.81256 26.62 7.81256 26.5199C7.81256 26.4198 7.77716 26.3343 7.70636 26.2635C7.63557 26.1927 7.55011 26.1573 7.44999 26.1573C7.34987 26.1573 7.26441 26.1927 7.19361 26.2635C7.12282 26.3343 7.08742 26.4198 7.08742 26.5199ZM6.81862 26.5199C6.81862 26.6856 6.87721 26.8271 6.99439 26.9443C7.11157 27.0614 7.25302 27.12 7.41873 27.12C7.58445 27.12 7.7259 27.0614 7.84308 26.9443C7.96026 26.8271 8.01885 26.6856 8.01885 26.5199C8.01885 26.3542 7.96026 26.2127 7.84308 26.0956C7.7259 25.9784 7.58445 25.9198 7.41873 25.9198C7.25302 25.9198 7.11157 25.9784 6.99439 26.0956C6.87721 26.2127 6.81862 26.3542 6.81862 26.5199ZM6.76861 26.5199C6.76861 26.6994 6.83208 26.8527 6.95903 26.9796C7.08597 27.1066 7.23921 27.17 7.41873 27.17C7.59826 27.17 7.75149 27.1066 7.87844 26.9796C8.00538 26.8527 8.06886 26.6994 8.06886 26.5199C8.06886 26.3404 8.00538 26.1871 7.87844 26.0602C7.75149 25.9333 7.59826 25.8698 7.41873 25.8698C7.23921 25.8698 7.08597 25.9333 6.95903 26.0602C6.83208 26.1871 6.76861 26.3404 6.76861 26.5199ZM7.15618 27.1888L7.35622 27.2888C7.42144 27.3236 7.4902 27.3486 7.56251 27.3638L7.99384 27.4513C8.02279 27.4571 8.05196 27.4613 8.08136 27.4638L8.75649 27.5264C8.77309 27.529 8.78976 27.531 8.8065 27.5326L9.69417 27.5576C9.71083 27.5581 9.72751 27.5581 9.74417 27.5576L10.7631 27.5264C10.7798 27.5269 10.7965 27.5269 10.8131 27.5264L11.8633 27.4263C11.8884 27.4254 11.9134 27.4233 11.9383 27.4201L12.9198 27.2388C12.9451 27.2337 12.9701 27.2275 12.9948 27.22L13.8575 26.9762C13.896 26.9644 13.9335 26.9498 13.97 26.9325L14.7076 26.6074C14.8267 26.5551 14.9268 26.478 15.0077 26.3761L15.4015 25.876C15.4058 25.8699 15.41 25.8636 15.414 25.8573L15.6891 25.476L15.9829 25.2884C16.1162 25.2009 16.1391 25.0905 16.0516 24.9571C15.9641 24.8238 15.8537 24.8008 15.7203 24.8883L15.439 25.0696L15.0077 25.1071L14.3951 25.1009C14.3072 25.1012 14.2218 25.1158 14.1388 25.1446L13.3886 25.3947L12.5822 25.626L11.6758 25.7885L10.6819 25.8885L9.71292 25.9198L8.86901 25.9073L8.23139 25.8635L7.80631 25.8135C7.77922 25.8121 7.75213 25.8121 7.72504 25.8135L7.5 25.8073C7.33041 25.8052 7.17848 25.856 7.04423 25.9596C6.90997 26.0633 6.82236 26.1974 6.7814 26.362C6.74044 26.5266 6.75497 26.6861 6.825 26.8406C6.89502 26.995 7.00541 27.1111 7.15618 27.1888Z" fill="black"/>
<path d="M16.0204 21.3877C16.0204 21.6044 16.1288 21.7127 16.3455 21.7127C16.5622 21.7127 16.6706 21.6044 16.6706 21.3877C16.6706 21.171 16.5622 21.0626 16.3455 21.0626C16.1288 21.0626 16.0204 21.171 16.0204 21.3877ZM16.0079 21.3877C16.0079 21.4843 16.0421 21.5669 16.1105 21.6352C16.1788 21.7036 16.2613 21.7377 16.358 21.7377C16.4547 21.7377 16.5372 21.7036 16.6055 21.6352C16.6739 21.5669 16.7081 21.4843 16.7081 21.3877C16.7081 21.291 16.6739 21.2085 16.6055 21.1401C16.5372 21.0718 16.4547 21.0376 16.358 21.0376C16.2613 21.0376 16.1788 21.0718 16.1105 21.1401C16.0421 21.2085 16.0079 21.291 16.0079 21.3877ZM15.9517 21.1126L15.9267 21.1564C15.8753 21.2299 15.8441 21.3112 15.8329 21.4002L15.8079 21.6002C15.8054 21.6315 15.8054 21.6627 15.8079 21.694L15.8204 22.0503C15.8216 22.0691 15.8237 22.0879 15.8267 22.1066L15.8892 22.5817C15.8892 22.5837 15.8892 22.5858 15.8892 22.5879L16.0267 23.5818C16.0283 23.5965 16.0304 23.6111 16.033 23.6256L16.108 23.9944C16.1254 24.0714 16.1566 24.1422 16.2017 24.207L16.333 24.407C16.4764 24.6151 16.6681 24.6797 16.9081 24.6008L16.9269 24.5945C17.0138 24.5664 17.0825 24.5143 17.1332 24.4383L17.1394 24.4195L17.2019 24.3757C17.2295 24.3533 17.2545 24.3283 17.2769 24.3007L17.3832 24.1757C17.4713 24.0661 17.5192 23.9411 17.527 23.8006L17.5457 23.6006C17.5539 23.4679 17.5269 23.3429 17.4645 23.2255L17.4082 23.113C17.2656 22.84 17.0405 22.7129 16.7331 22.7317L16.6518 22.7379C16.4336 22.7512 16.2586 22.8449 16.1267 23.0192L16.033 23.1443C15.9972 23.1927 15.968 23.2447 15.9454 23.3005L15.8642 23.5068C15.8485 23.5433 15.836 23.5808 15.8267 23.6193L15.7704 23.8569L15.7204 24.0694L15.6954 24.182L15.6829 24.2132L15.6704 24.232L15.6454 24.257L15.5266 24.3445L15.3453 24.4633C15.2339 24.5387 15.1526 24.6388 15.1015 24.7633L15.0453 24.8946C15.0309 24.9289 15.0205 24.9643 15.014 25.0009L15.0015 25.0571L14.989 25.0946C15.0789 25.0744 15.1372 25.0202 15.164 24.9321L15.0828 24.9509C14.9286 24.9884 14.8702 25.0842 14.9077 25.2384C14.9452 25.3926 15.0411 25.4509 15.1953 25.4134L15.2766 25.3947C15.2128 25.3209 15.1336 25.2959 15.039 25.3197L15.0703 25.3634C15.0743 25.3677 15.0785 25.3719 15.0828 25.3759L15.139 25.4322C15.172 25.4689 15.2095 25.5002 15.2516 25.526L15.3766 25.5947C15.5603 25.7031 15.752 25.7198 15.9517 25.6447L16.1642 25.5635C16.2034 25.5481 16.2409 25.5294 16.2767 25.5072L16.4643 25.4009C16.5149 25.3692 16.5607 25.3317 16.6018 25.2884L16.7331 25.1571C16.79 25.1004 16.8359 25.0358 16.8706 24.9634L16.9331 24.8258C16.956 24.7757 16.9727 24.7236 16.9831 24.6695L17.0144 24.5258C17.0169 24.5113 17.019 24.4967 17.0206 24.482L17.0331 24.357L17.0706 24.232L17.1394 24.0694L17.2019 23.9507L17.2644 23.8756C17.0551 23.8927 16.8863 23.9844 16.7581 24.1507L16.8394 24.1444C16.6862 23.8886 16.4612 23.774 16.1642 23.8006L16.2142 23.8819L16.283 24.0319C16.3117 24.0941 16.3492 24.1503 16.3955 24.2007L16.4768 24.2882L16.5205 24.3632C16.6611 24.2179 16.6778 24.0596 16.5706 23.8881L16.5143 23.9444C16.4314 24.0152 16.3857 24.1049 16.3772 24.2135C16.3686 24.3222 16.3998 24.4179 16.4705 24.5008C16.5413 24.5836 16.631 24.6293 16.7397 24.6379C16.8483 24.6464 16.944 24.6153 17.0269 24.5445L17.0394 24.532C17.1496 24.4552 17.2184 24.351 17.2457 24.2195L17.2957 23.9944C17.3072 23.9408 17.3114 23.8866 17.3082 23.8319L17.2832 23.4568C17.2819 23.438 17.2799 23.4192 17.2769 23.4006L17.1269 22.4066C17.1269 22.4045 17.1269 22.4024 17.1269 22.4004L17.0519 21.9253C17.05 21.9169 17.0479 21.9086 17.0456 21.9003L16.9706 21.5502C16.9646 21.5204 16.9562 21.4912 16.9456 21.4627L16.8769 21.2752C16.8492 21.2015 16.8075 21.1369 16.7518 21.0814L16.7143 21.0439C16.6041 20.9344 16.4717 20.8866 16.317 20.9006C16.1623 20.9145 16.0405 20.9852 15.9517 21.1126Z" fill="black"/>
<path d="M19.9462 20.1187C19.9462 20.2136 19.9798 20.2946 20.0469 20.3618C20.114 20.4289 20.1951 20.4625 20.29 20.4625C20.385 20.4625 20.466 20.4289 20.5331 20.3618C20.6003 20.2946 20.6338 20.2136 20.6338 20.1187C20.6338 20.0237 20.6003 19.9427 20.5331 19.8756C20.466 19.8084 20.385 19.7749 20.29 19.7749C20.1951 19.7749 20.114 19.8084 20.0469 19.8756C19.9798 19.9427 19.9462 20.0237 19.9462 20.1187ZM20.5151 19.6936L20.4776 19.6686C20.3279 19.5584 20.1633 19.5271 19.9837 19.5748L19.9212 19.5936C19.6287 19.6718 19.4662 19.8614 19.4336 20.1624L19.4024 20.4375C19.3928 20.5194 19.3969 20.6007 19.4149 20.6813L19.5274 21.1501C19.531 21.1669 19.5351 21.1836 19.5399 21.2001L19.7274 21.7815C19.7372 21.8179 19.7497 21.8533 19.7649 21.8878L20.04 22.4504C20.065 22.5023 20.0963 22.5503 20.1337 22.5941L20.4901 23.0005C20.5017 23.0158 20.5142 23.0304 20.5276 23.0442L20.8526 23.338C20.8644 23.3493 20.8769 23.3598 20.8901 23.3693L21.1402 23.5381L21.284 23.6693C21.3946 23.7453 21.4964 23.7349 21.5895 23.6383C21.6825 23.5416 21.6891 23.4395 21.609 23.3318L21.4965 23.2193L21.4152 22.9942L21.3465 22.6191L21.3027 22.1065C21.3014 22.0708 21.2972 22.0354 21.2902 22.0003L21.1464 21.3939C21.1408 21.377 21.1345 21.3603 21.1277 21.3439L20.9526 20.775L20.8339 20.325C20.8269 20.2995 20.8186 20.2745 20.8089 20.2499L20.7088 19.9936C20.7031 19.9788 20.6969 19.9642 20.6901 19.9499L20.6588 19.8874C20.5921 20.0476 20.5962 20.206 20.6713 20.3625L20.6901 20.325C20.7998 20.0679 20.7414 19.8575 20.5151 19.6936Z" fill="black"/>
<path d="M20.2275 21.5064C20.2275 21.5996 20.2605 21.6792 20.3264 21.7451C20.3923 21.811 20.4719 21.844 20.5651 21.844C20.6583 21.844 20.7379 21.811 20.8038 21.7451C20.8697 21.6792 20.9026 21.5996 20.9026 21.5064C20.9026 21.4132 20.8697 21.3336 20.8038 21.2677C20.7379 21.2018 20.6583 21.1688 20.5651 21.1688C20.4719 21.1688 20.3923 21.2018 20.3264 21.2677C20.2605 21.3336 20.2275 21.4132 20.2275 21.5064ZM20.2275 21.5064C20.2275 21.5996 20.2605 21.6792 20.3264 21.7451C20.3923 21.811 20.4719 21.844 20.5651 21.844C20.6583 21.844 20.7379 21.811 20.8038 21.7451C20.8697 21.6792 20.9026 21.5996 20.9026 21.5064C20.9026 21.4132 20.8697 21.3336 20.8038 21.2677C20.7379 21.2018 20.6583 21.1688 20.5651 21.1688C20.4719 21.1688 20.3923 21.2018 20.3264 21.2677C20.2605 21.3336 20.2275 21.4132 20.2275 21.5064ZM20.1838 21.4877C20.1838 21.5912 20.2204 21.6796 20.2936 21.7529C20.3669 21.8261 20.4553 21.8627 20.5588 21.8627C20.6624 21.8627 20.7508 21.8261 20.824 21.7529C20.8973 21.6796 20.9339 21.5912 20.9339 21.4877C20.9339 21.3841 20.8973 21.2957 20.824 21.2224C20.7508 21.1492 20.6624 21.1126 20.5588 21.1126C20.4553 21.1126 20.3669 21.1492 20.2936 21.2224C20.2204 21.2957 20.1838 21.3841 20.1838 21.4877ZM20.0525 21.4564C20.0525 21.5928 20.1007 21.7092 20.1971 21.8056C20.2936 21.902 20.41 21.9502 20.5463 21.9502C20.6827 21.9502 20.7991 21.902 20.8955 21.8056C20.992 21.7092 21.0402 21.5928 21.0402 21.4564C21.0402 21.32 20.992 21.2036 20.8955 21.1072C20.7991 21.0108 20.6827 20.9626 20.5463 20.9626C20.41 20.9626 20.2936 21.0108 20.1971 21.1072C20.1007 21.2036 20.0525 21.32 20.0525 21.4564ZM20.0525 21.2001L19.9962 21.3001C19.925 21.4243 19.8959 21.5576 19.9087 21.7002L19.94 22.019C19.9444 22.0831 19.9569 22.1456 19.9775 22.2065L20.1338 22.6316C20.1471 22.6726 20.1637 22.7122 20.1838 22.7504L20.4526 23.2192C20.4726 23.2566 20.4955 23.292 20.5213 23.3255L20.8839 23.7756C20.9175 23.817 20.955 23.8545 20.9964 23.8881L21.4653 24.2694C21.508 24.3035 21.5538 24.3327 21.6028 24.357L22.1716 24.6445C22.2217 24.6689 22.2738 24.6877 22.3279 24.7008L22.9718 24.8633C23.0312 24.8789 23.0916 24.8872 23.1531 24.8883L23.8782 24.8946C23.9396 24.8935 24.0001 24.8852 24.0595 24.8696L24.8471 24.682C24.89 24.6733 24.9316 24.6608 24.9722 24.6445L25.7911 24.2819C25.8192 24.2693 25.8463 24.2547 25.8723 24.2382L26.7038 23.7318C26.7123 23.7258 26.7206 23.7196 26.7288 23.7131L27.5602 23.138L28.3791 22.5566C28.3855 22.5527 28.3917 22.5485 28.3978 22.5441L29.0479 22.019L29.573 21.6814C29.6868 21.5951 29.705 21.4919 29.6275 21.3719C29.5501 21.2518 29.4486 21.2258 29.323 21.2939L28.8042 21.6314L28.0478 21.994L27.1601 22.4253L26.2474 22.7692L25.3472 23.0505L24.5283 23.263L23.8345 23.3693L23.2656 23.3568L22.7905 23.2317L22.3779 23.0192L22.0279 22.7379L21.7528 22.4003L21.534 22.0315L21.3715 21.6502C21.3639 21.6311 21.3556 21.6123 21.3465 21.5939L21.1902 21.3126C21.1356 21.2125 21.0606 21.1313 20.9652 21.0688L20.8651 21.0001C20.7261 20.9103 20.5763 20.8852 20.4156 20.9247C20.255 20.9643 20.1339 21.0561 20.0525 21.2001Z" fill="black"/>
<path d="M30.0793 13.0236L30.0605 13.0111C30.0185 12.9758 29.9706 12.9529 29.9168 12.9423L29.873 12.9361L29.8105 12.9236C29.7792 12.9192 29.748 12.9192 29.7167 12.9236L29.648 12.9298C29.5424 12.932 29.4562 12.9738 29.3892 13.0554C29.3222 13.137 29.298 13.2298 29.3164 13.3337C29.3349 13.4376 29.3896 13.5163 29.4805 13.5699C29.5715 13.6234 29.6669 13.633 29.7667 13.5987L29.7917 13.5925H29.8105C29.8294 13.592 29.8482 13.5899 29.8667 13.5862L29.9168 13.5799C29.9022 13.5789 29.8876 13.5789 29.873 13.5799H29.8918C30.0374 13.5763 30.1335 13.5054 30.18 13.3673C30.2265 13.2293 30.193 13.1147 30.0793 13.0236ZM29.1979 13.3111C29.1979 13.432 29.2406 13.5351 29.326 13.6206C29.4115 13.706 29.5146 13.7487 29.6355 13.7487C29.7563 13.7487 29.8594 13.706 29.9449 13.6206C30.0303 13.5351 30.073 13.432 30.073 13.3111C30.073 13.1903 30.0303 13.0872 29.9449 13.0017C29.8594 12.9163 29.7563 12.8736 29.6355 12.8736C29.5146 12.8736 29.4115 12.9163 29.326 13.0017C29.2406 13.0872 29.1979 13.1903 29.1979 13.3111ZM29.0791 13.2236L29.0291 13.3799C28.9876 13.4985 28.9793 13.6193 29.0041 13.7425L29.0791 14.0675C29.0879 14.1103 29.1004 14.152 29.1166 14.1926L29.3041 14.6552C29.3081 14.6657 29.3122 14.6761 29.3166 14.6864L29.5917 15.2865C29.5937 15.2928 29.5958 15.2991 29.5979 15.3053L29.9293 15.9742C29.9425 15.9979 29.9571 16.0209 29.973 16.0429L30.3918 16.6805L30.7607 17.2744L31.0107 17.8558C31.0127 17.86 31.0148 17.8641 31.017 17.8683L31.2295 18.2933L31.2983 18.6122C31.3403 18.748 31.4306 18.8005 31.5694 18.7696C31.7082 18.7388 31.7678 18.653 31.7484 18.5121L31.6733 18.1871L31.6358 17.6995C31.6347 17.6848 31.6327 17.6702 31.6296 17.6557L31.4983 17.0244L31.392 16.3055C31.3922 16.2971 31.3922 16.2888 31.392 16.2805L31.2358 15.5241C31.2285 15.4857 31.2181 15.4482 31.2045 15.4115L30.9357 14.7177C30.9318 14.7072 30.9276 14.6967 30.9232 14.6864L30.6606 14.0863L30.4606 13.63C30.4548 13.6152 30.4486 13.6006 30.4419 13.5862L30.2918 13.2861C30.2523 13.2097 30.2002 13.143 30.1355 13.0861L30.0168 12.9798C29.9442 12.9148 29.8606 12.8708 29.7659 12.8479C29.6713 12.8249 29.5768 12.8256 29.4825 12.8502C29.3882 12.8747 29.3054 12.92 29.2339 12.9862C29.1624 13.0524 29.1108 13.1315 29.0791 13.2236Z" fill="black"/>
<path d="M29.5979 13.6299V13.6237L29.6042 13.5987C29.5719 13.6393 29.5511 13.6852 29.5417 13.7362L29.5667 13.7049L29.5479 13.7174H29.5604L29.6542 13.7112C29.5745 13.6448 29.4828 13.6136 29.3791 13.6174L29.4104 13.6424L29.4854 13.83L29.6542 14.3301L29.8917 15.0302L30.148 15.8366L30.3918 16.668L30.5981 17.4432L30.7607 18.0995L30.8732 18.6434C30.8803 18.6778 30.8907 18.7111 30.9044 18.7434L31.067 19.1247C31.0854 19.1684 31.1104 19.208 31.142 19.2435L31.267 19.381L31.2733 19.5311C31.2774 19.6811 31.3545 19.754 31.5046 19.7498C31.6546 19.7457 31.7275 19.6686 31.7233 19.5186V19.356L31.8296 19.1935C31.8715 19.1288 31.8945 19.0579 31.8984 18.9809L31.9234 18.5621C31.9247 18.5178 31.9205 18.4741 31.9109 18.4308L31.8046 17.8745C31.8028 17.864 31.8007 17.8536 31.7984 17.8432L31.6233 17.1806C31.6214 17.1743 31.6193 17.1681 31.6171 17.1619L31.3858 16.3867C31.3859 16.3805 31.3859 16.3742 31.3858 16.368L31.1107 15.5303C31.1087 15.5282 31.1066 15.5261 31.1045 15.524L30.8294 14.7114C30.8274 14.7093 30.8253 14.7072 30.8232 14.7051L30.5731 14.0113C30.5713 14.0029 30.5692 13.9945 30.5669 13.9862L30.3543 13.4862C30.3382 13.448 30.3174 13.4125 30.2918 13.3799L30.098 13.1298C30.0647 13.089 30.0251 13.0557 29.9793 13.0298L29.848 12.9548C29.7432 12.8926 29.6327 12.8801 29.5167 12.9173L29.4167 12.9486C29.3262 12.9771 29.2554 13.0313 29.2041 13.1111L29.1479 13.2048L29.0853 13.2861C29.0832 13.2882 29.0811 13.2903 29.0791 13.2924L29.0291 13.3611C29.0023 13.401 28.9856 13.4448 28.9791 13.4924L28.9728 13.5299C28.9693 13.557 28.9693 13.5841 28.9728 13.6112V13.6299C28.9728 13.8383 29.077 13.9425 29.2854 13.9425C29.4938 13.9425 29.5979 13.8383 29.5979 13.6299Z" fill="black"/>
<path d="M31.1482 18.7184C31.1482 18.9309 31.2545 19.0372 31.467 19.0372C31.6796 19.0372 31.7859 18.9309 31.7859 18.7184C31.7859 18.5058 31.6796 18.3996 31.467 18.3996C31.2545 18.3996 31.1482 18.5058 31.1482 18.7184ZM31.067 18.7434C31.067 18.8539 31.106 18.9482 31.1841 19.0263C31.2623 19.1044 31.3566 19.1435 31.467 19.1435C31.5775 19.1435 31.6718 19.1044 31.7499 19.0263C31.8281 18.9482 31.8671 18.8539 31.8671 18.7434C31.8671 18.6329 31.8281 18.5386 31.7499 18.4605C31.6718 18.3824 31.5775 18.3433 31.467 18.3433C31.3566 18.3433 31.2623 18.3824 31.1841 18.4605C31.106 18.5386 31.067 18.6329 31.067 18.7434ZM30.9669 18.5308L30.8732 18.6746C30.844 18.7218 30.8211 18.7718 30.8044 18.8247L30.7169 19.0997L30.6169 19.4123L30.4669 19.7373L30.2231 20.0999L29.848 20.55L29.4229 21.0376L28.9603 21.4877L28.4727 21.869L27.9539 22.1878L27.4538 22.4566C27.4496 22.4566 27.4454 22.4566 27.4413 22.4566L27.0412 22.6816L26.7661 22.8317C26.762 22.8337 26.7578 22.8358 26.7536 22.8379L26.5974 22.9254C26.468 22.9988 26.3722 23.103 26.3098 23.238L26.2973 23.263C26.2355 23.3982 26.223 23.5378 26.2598 23.6818L26.2661 23.7068C26.3071 23.8649 26.3933 23.9926 26.5245 24.0899C26.6558 24.1871 26.803 24.2324 26.9662 24.2257L27.1475 24.2194C27.1918 24.2171 27.2355 24.2109 27.2787 24.2007L27.5851 24.1319C27.604 24.1284 27.6227 24.1243 27.6413 24.1194L28.0851 23.9881C28.1282 23.9748 28.1699 23.9582 28.2102 23.9381L28.7415 23.6756C28.7671 23.6643 28.7922 23.6518 28.8165 23.6381L29.3979 23.2817C29.4284 23.2628 29.4576 23.2419 29.4854 23.2192L30.0355 22.7692C30.0594 22.7516 30.0824 22.7329 30.1043 22.7129L30.6106 22.2003C30.6327 22.1785 30.6536 22.1556 30.6731 22.1315L31.1045 21.5877C31.1247 21.5638 31.1434 21.5388 31.1607 21.5127L31.4983 20.9688C31.5122 20.9445 31.5247 20.9195 31.5358 20.8938L31.7671 20.4187C31.7768 20.3942 31.7851 20.3691 31.7921 20.3437L31.9484 19.9124C31.9581 19.8878 31.9664 19.8628 31.9734 19.8373L32.0547 19.4685C32.0634 19.4356 32.0696 19.4023 32.0734 19.3685L32.0984 19.0747C32.1044 18.9777 32.0899 18.884 32.0547 18.7934L31.9921 18.6309C31.9076 18.4088 31.747 18.2862 31.5105 18.2632C31.274 18.2401 31.0928 18.3293 30.9669 18.5308ZM26.3973 23.4755C26.3973 23.6119 26.4455 23.7283 26.542 23.8247C26.6384 23.9212 26.7548 23.9694 26.8912 23.9694C27.0275 23.9694 27.1439 23.9212 27.2404 23.8247C27.3368 23.7283 27.385 23.6119 27.385 23.4755C27.385 23.3392 27.3368 23.2228 27.2404 23.1263C27.1439 23.0299 27.0275 22.9817 26.8912 22.9817C26.7548 22.9817 26.6384 23.0299 26.542 23.1263C26.4455 23.2228 26.3973 23.3392 26.3973 23.4755ZM27.3037 23.3693L27.2975 23.2755C27.2442 23.3242 27.2192 23.3846 27.2225 23.4568L27.31 23.3755C27.4014 23.2711 27.4 23.1679 27.3057 23.066C27.2114 22.9642 27.1086 22.9548 26.9974 23.038L26.9099 23.1192C26.975 23.1221 27.0312 23.1013 27.0787 23.0567L26.9849 23.0505C26.8895 23.0453 26.8067 23.0753 26.7368 23.1404C26.6668 23.2055 26.6309 23.2858 26.6292 23.3814C26.6274 23.477 26.6604 23.5586 26.728 23.6262C26.7956 23.6938 26.8772 23.7268 26.9728 23.725C27.0684 23.7233 27.1487 23.6875 27.2138 23.6175C27.2789 23.5475 27.3089 23.4647 27.3037 23.3693Z" fill="black"/>
<path d="M26.9975 22.5191L26.9725 22.5129C26.9378 22.5029 26.9024 22.4987 26.8663 22.5004H26.7913H26.7225H26.6537C26.6391 22.4994 26.6246 22.4994 26.61 22.5004L26.535 22.5066C26.4317 22.5133 26.3479 22.557 26.2835 22.638C26.2191 22.7189 26.1953 22.8104 26.212 22.9125C26.2287 23.0146 26.2804 23.0937 26.3673 23.1499C26.4541 23.2061 26.5475 23.2208 26.6475 23.1942L26.685 23.188L26.735 23.1817C26.7433 23.182 26.7517 23.182 26.76 23.1817L26.8475 23.1692L26.9163 23.163C26.9354 23.1605 26.9542 23.1563 26.9725 23.1505L26.9975 23.1442C27.1547 23.0993 27.2333 22.9951 27.2333 22.8317C27.2333 22.6682 27.1547 22.564 26.9975 22.5191ZM26.0724 22.8692C26.0724 22.9866 26.1139 23.0868 26.1969 23.1698C26.2799 23.2528 26.3801 23.2943 26.4975 23.2943C26.6148 23.2943 26.715 23.2528 26.798 23.1698C26.881 23.0868 26.9225 22.9866 26.9225 22.8692C26.9225 22.7518 26.881 22.6516 26.798 22.5686C26.715 22.4856 26.6148 22.4441 26.4975 22.4441C26.3801 22.4441 26.2799 22.4856 26.1969 22.5686C26.1139 22.6516 26.0724 22.7518 26.0724 22.8692ZM26.5537 22.4253L26.5287 22.4191C26.4057 22.392 26.2891 22.4089 26.179 22.4699C26.0688 22.5308 25.9925 22.6206 25.9501 22.7392C25.9077 22.8578 25.9098 22.9755 25.9564 23.0925C26.003 23.2095 26.0825 23.2965 26.1948 23.3535C26.3071 23.4104 26.4242 23.4232 26.5462 23.3916C26.6681 23.3601 26.7644 23.2922 26.835 23.188L26.8475 23.163C26.8917 23.0971 26.918 23.0247 26.9264 22.9457C26.9348 22.8668 26.9243 22.7905 26.8949 22.7168C26.8656 22.643 26.8207 22.5804 26.7604 22.5289C26.7 22.4773 26.6311 22.4428 26.5537 22.4253ZM25.8598 22.6879L25.8473 22.7129C25.7936 22.8568 25.795 23.0003 25.8514 23.1432C25.9078 23.2861 26.0049 23.3917 26.1424 23.4601C26.28 23.5285 26.4228 23.5421 26.5708 23.5008C26.7188 23.4595 26.834 23.374 26.9163 23.2443L26.9288 23.2192C27.0242 23.0689 27.048 22.908 27.0001 22.7365C26.9523 22.565 26.8486 22.4396 26.6892 22.3603C26.5297 22.2811 26.3672 22.2742 26.2016 22.3396C26.036 22.405 25.9221 22.5211 25.8598 22.6879ZM25.9036 22.9817C25.9036 23.1181 25.9518 23.2345 26.0482 23.3309C26.1447 23.4273 26.2611 23.4755 26.3974 23.4755C26.5338 23.4755 26.6502 23.4273 26.7466 23.3309C26.8431 23.2345 26.8913 23.1181 26.8913 22.9817C26.8913 22.8453 26.8431 22.7289 26.7466 22.6325C26.6502 22.5361 26.5338 22.4879 26.3974 22.4879C26.2611 22.4879 26.1447 22.5361 26.0482 22.6325C25.9518 22.7289 25.9036 22.8453 25.9036 22.9817ZM26.0286 22.8129L25.9724 22.8942C26.0349 22.8647 26.0849 22.821 26.1224 22.7629L26.0661 22.7879H26.0536L25.9724 22.7692C26.0258 22.8056 26.0841 22.8306 26.1474 22.8442L26.1161 22.8254C25.8969 22.6791 25.683 22.6865 25.4744 22.8477C25.2659 23.0089 25.2047 23.214 25.291 23.463L25.2972 23.4818C25.3981 23.7601 25.5961 23.8872 25.8911 23.8631L26.0661 23.8444C26.1153 23.8398 26.1632 23.8294 26.2099 23.8131L26.5537 23.7006C26.5707 23.6951 26.5873 23.6888 26.6037 23.6818L27.0976 23.4693C27.1348 23.454 27.1702 23.4352 27.2038 23.413L27.7414 23.0505C27.7737 23.0267 27.8028 22.9996 27.829 22.9692L28.2853 22.4816L28.7354 22.0753L29.1355 21.794C29.2328 21.7026 29.2431 21.6022 29.1666 21.4928C29.09 21.3834 28.9921 21.3588 28.8729 21.4189L28.4791 21.694L27.9477 21.9315L27.3101 22.0878C27.2953 22.0913 27.2808 22.0955 27.2664 22.1003L26.6537 22.3128C26.6389 22.3185 26.6243 22.3248 26.61 22.3316L26.1224 22.5441L25.7911 22.6691C25.7869 22.6712 25.7827 22.6733 25.7786 22.6754L25.616 22.7504C25.527 22.788 25.452 22.8442 25.391 22.9192L25.3785 22.9317C25.2739 23.2181 25.3529 23.4389 25.6155 23.594C25.8781 23.7491 26.1095 23.7117 26.3099 23.4818L26.3287 23.4443C26.2824 23.4914 26.247 23.5455 26.2224 23.6068L26.3037 23.5256C26.3037 23.5235 26.3037 23.5214 26.3037 23.5193L26.3662 23.4568L26.4099 23.4318L26.4599 23.4193C26.597 23.3855 26.6901 23.3024 26.7392 23.17C26.7883 23.0377 26.772 22.914 26.6901 22.799C26.6083 22.6839 26.4968 22.6279 26.3557 22.6309C26.2145 22.6338 26.1055 22.6945 26.0286 22.8129Z" fill="black"/>
<path d="M29.9043 12.1672L29.8981 12.1734C29.9069 12.1656 29.9152 12.1572 29.9231 12.1484L29.9043 12.1609C29.8349 12.2165 29.789 12.2873 29.7668 12.3735L29.723 12.5485C29.7072 12.6037 29.701 12.6599 29.7043 12.7173L29.7355 13.0861C29.7365 13.107 29.7386 13.1279 29.7418 13.1486L29.8418 13.68C29.8438 13.6862 29.8459 13.6925 29.8481 13.6987L29.9981 14.3676C30.0066 14.3954 30.017 14.4225 30.0294 14.4489L30.2982 15.1427C30.3127 15.1804 30.3314 15.2158 30.3544 15.249L30.7232 15.7804L30.867 16.343C30.9048 16.4884 30.9964 16.5425 31.1419 16.505C31.2875 16.4676 31.3417 16.3761 31.3046 16.2304L31.1671 15.6741L31.2671 15.0365C31.2723 14.9948 31.2723 14.9531 31.2671 14.9114L31.1983 14.1738C31.1942 14.1442 31.188 14.115 31.1796 14.0863L31.0233 13.4237C31.0195 13.411 31.0154 13.3985 31.0108 13.3861L30.8483 12.8736C30.8414 12.8501 30.8331 12.8272 30.8233 12.8048L30.6732 12.4672C30.647 12.4107 30.6116 12.3607 30.567 12.3172L30.4357 12.1922C30.3514 12.1066 30.2493 12.067 30.1294 12.0734L30.1044 12.0796C30.1713 12.1483 30.2525 12.1795 30.3482 12.1734L30.3419 12.1672C30.1961 12.0242 30.0502 12.0242 29.9043 12.1672Z" fill="black"/>
<path d="M11.0755 10.7601L11.0442 10.7288C10.9616 10.6495 10.8637 10.6182 10.7504 10.635L10.6817 10.6413C10.6796 10.6434 10.6775 10.6454 10.6754 10.6475L10.5691 10.66C10.5671 10.66 10.565 10.66 10.5629 10.66L10.4254 10.6851L10.2753 10.7101L10.1316 10.7226L10.0065 10.7163L9.88151 10.6788L9.75649 10.6225L9.65022 10.535L9.55645 10.4163L9.48769 10.2787L9.45643 10.1475V10.0287L9.48143 9.93491L9.52519 9.8724L9.56895 9.84114L9.63771 9.82239H9.71273L9.75024 9.84114L9.78774 9.8724L9.8315 9.92241L9.83775 9.94116L9.844 9.96617C9.84581 9.92595 9.84164 9.88636 9.8315 9.84739V9.89115C10.0527 9.86363 10.1693 9.73861 10.1816 9.51608L10.1691 9.52233C10.2579 9.68282 10.3934 9.75159 10.5754 9.72862L10.5566 9.69737C10.5626 9.7529 10.5792 9.80499 10.6066 9.85365L10.6004 9.82239L10.6129 9.77863L10.6504 9.66611L10.7192 9.54734L10.8004 9.45357L10.8817 9.39106L10.913 9.38481L10.8754 9.37856L10.8317 9.34105L10.8379 9.36605L10.8567 9.47857V9.65361L10.8317 9.8599C10.8307 9.87657 10.8307 9.89324 10.8317 9.90991L10.8379 10.1162C10.8368 10.1456 10.8388 10.1748 10.8442 10.2037L10.8754 10.31V10.3912C10.8631 10.6078 10.9652 10.7223 11.1818 10.7348C11.3983 10.7473 11.5129 10.6453 11.5256 10.4288L11.5318 10.3787L11.5693 10.31C11.5813 10.2921 11.5917 10.2733 11.6006 10.2537L11.6756 10.0662C11.6834 10.0458 11.6897 10.025 11.6944 10.0037L11.7444 9.77863C11.7495 9.7622 11.7537 9.74553 11.7569 9.72862L11.7819 9.49733C11.7849 9.45747 11.7828 9.41788 11.7756 9.37856L11.7444 9.16601C11.7364 9.11311 11.7197 9.0631 11.6944 9.01599L11.5943 8.84095C11.5544 8.76682 11.4982 8.70848 11.4256 8.66592L11.2755 8.5784C11.2076 8.54016 11.1347 8.52141 11.0567 8.52214H10.8692C10.8177 8.52138 10.7677 8.52972 10.7192 8.54715L10.5316 8.61591C10.4957 8.63012 10.4624 8.64888 10.4316 8.67217L10.2628 8.79719C10.232 8.82059 10.205 8.84768 10.1816 8.87846L10.0503 9.04099C10.0274 9.06978 10.0087 9.10103 9.99403 9.13476L9.90652 9.32855C9.90174 9.34085 9.89757 9.35335 9.89401 9.36605L9.83775 9.54734C9.83277 9.56169 9.8286 9.57628 9.82525 9.5911L9.79399 9.72237C9.78723 9.75752 9.78515 9.79294 9.78774 9.82864L9.79399 9.91616C9.79894 9.98902 9.82186 10.0557 9.86276 10.1162L9.88151 10.1475C9.95352 10.2556 10.0542 10.3155 10.1837 10.327C10.3131 10.3386 10.4229 10.2975 10.5129 10.2037L10.5191 10.1912C10.6004 10.1076 10.6379 10.0076 10.6317 9.89115V9.84739C10.6299 9.82199 10.6257 9.79699 10.6192 9.77238L10.5941 9.69737C10.5867 9.66914 10.5763 9.64205 10.5629 9.6161L10.5129 9.52233C10.501 9.49574 10.4864 9.47073 10.4691 9.44732L10.3879 9.3473C10.3624 9.31798 10.3332 9.29297 10.3003 9.27229L10.1753 9.19102C10.139 9.16545 10.0994 9.1467 10.0565 9.13476L9.88776 9.091C9.85908 9.08337 9.82991 9.0792 9.80024 9.0785H9.60646C9.57254 9.07807 9.5392 9.08223 9.50644 9.091L9.31265 9.14101C9.26967 9.1526 9.23007 9.17135 9.19388 9.19727L9.03135 9.30979C8.99666 9.3359 8.96749 9.36715 8.94383 9.40356L8.83131 9.57234C8.80551 9.6086 8.78676 9.64819 8.77505 9.69111L8.72504 9.89115C8.71838 9.92421 8.7163 9.95755 8.71879 9.99117L8.72504 10.2037C8.72451 10.2289 8.7266 10.2539 8.73129 10.2787L8.78755 10.4975C8.79319 10.5234 8.80153 10.5484 8.81256 10.5725L8.91258 10.7788C8.92617 10.8059 8.94284 10.8309 8.96259 10.8538L9.11261 11.0289C9.1293 11.0497 9.14805 11.0684 9.16887 11.0851L9.35016 11.2164C9.3714 11.2336 9.39432 11.2482 9.41892 11.2602L9.61271 11.3414C9.63276 11.3517 9.65359 11.3601 9.67522 11.3664L9.86901 11.4102C9.89172 11.4145 9.91464 11.4166 9.93777 11.4164L10.1253 11.4227C10.1378 11.4234 10.1503 11.4234 10.1628 11.4227L10.3378 11.4102C10.3462 11.4105 10.3545 11.4105 10.3629 11.4102L10.5316 11.3852C10.5358 11.3853 10.54 11.3853 10.5441 11.3852L10.6879 11.3602C10.6879 11.3581 10.6879 11.356 10.6879 11.3539L10.7942 11.3352C10.7984 11.3353 10.8025 11.3353 10.8067 11.3352L10.8754 11.3227C10.9407 11.3076 10.9969 11.2763 11.0442 11.2289L11.0755 11.1977C11.1386 11.1384 11.1702 11.0655 11.1702 10.9789C11.1702 10.8923 11.1386 10.8193 11.0755 10.7601ZM10.9755 10.5288L10.988 10.5725C11.0296 10.7267 11.1276 10.783 11.2818 10.7413C11.436 10.6996 11.4922 10.6017 11.4506 10.4475L11.4381 10.4038C11.3963 10.2497 11.2984 10.1935 11.1443 10.2352C10.9902 10.2768 10.934 10.3747 10.9755 10.5288Z" fill="black"/>
<path d="M10.1752 9.85436C10.1752 9.9562 10.2112 10.0431 10.2833 10.1152C10.3553 10.1872 10.4422 10.2232 10.544 10.2232C10.6459 10.2232 10.7328 10.1872 10.8048 10.1152C10.8769 10.0431 10.9129 9.9562 10.9129 9.85436C10.9129 9.75251 10.8769 9.66558 10.8048 9.59356C10.7328 9.52154 10.6459 9.48554 10.544 9.48554C10.4422 9.48554 10.3553 9.52154 10.2833 9.59356C10.2112 9.66558 10.1752 9.75251 10.1752 9.85436ZM10.4253 9.49179L10.4065 9.49804C10.385 9.50456 10.3641 9.51289 10.344 9.52304L10.2065 9.59806C10.1796 9.61189 10.1546 9.62856 10.1315 9.64807L10.094 9.67932C10.0625 9.70441 10.0354 9.73358 10.0127 9.76684L9.98769 9.80435C9.96467 9.84126 9.948 9.88085 9.93768 9.92312L9.92518 9.97938C9.91237 10.0266 9.9082 10.0745 9.91268 10.1232L9.91893 10.1732C9.92246 10.2097 9.9308 10.2451 9.94394 10.2794L9.96269 10.3232C9.99607 10.4052 10.0502 10.4698 10.1252 10.517L10.144 10.5357C10.3104 10.6429 10.4709 10.6345 10.6253 10.5107L10.6441 10.4982C10.7465 10.4192 10.8007 10.315 10.8066 10.1857V10.1169C10.807 10.1065 10.807 10.0961 10.8066 10.0857V9.97938C10.8053 9.94105 10.799 9.90354 10.7878 9.86686L10.7503 9.75434C10.7456 9.73304 10.7394 9.7122 10.7316 9.69183L10.6816 9.58555C10.6662 9.55423 10.6474 9.52506 10.6253 9.49804L10.5691 9.42928C10.5539 9.40914 10.5373 9.39039 10.519 9.37301L10.469 9.32926L10.444 9.30425C10.3017 9.1655 10.137 9.13008 9.95019 9.19798L9.91268 9.21048C9.71208 9.28474 9.60373 9.42852 9.58762 9.64182L9.58137 9.74183C9.57593 9.80552 9.58218 9.86803 9.60012 9.92937L9.65013 10.0794C9.65709 10.1008 9.66543 10.1216 9.67513 10.1419L9.7439 10.2919C9.75132 10.3091 9.75966 10.3257 9.7689 10.3419L9.85017 10.4795C9.87303 10.5162 9.90012 10.5496 9.93143 10.5795L10.0189 10.6608C10.0962 10.7354 10.1879 10.7813 10.294 10.7983L10.3753 10.8108C10.5264 10.8353 10.6618 10.7999 10.7816 10.7045L10.8504 10.6483C10.9319 10.582 10.9882 10.4987 11.0191 10.3982L11.0504 10.2919C11.0743 10.2163 11.0806 10.1392 11.0691 10.0606L11.0504 9.94187C11.0406 9.88458 11.0219 9.83041 10.9941 9.77934L10.9316 9.65432C10.8926 9.58432 10.8405 9.52598 10.7753 9.47928L10.6816 9.40427C10.6215 9.35902 10.5548 9.32776 10.4815 9.3105L10.3753 9.2855C10.2713 9.26134 10.1692 9.26759 10.069 9.30425L9.99394 9.32926C9.75629 9.41438 9.63752 9.58316 9.63763 9.8356V9.91062C9.63712 9.97974 9.64962 10.0464 9.67513 10.1107L9.71264 10.2044C9.73545 10.2597 9.76671 10.3097 9.80641 10.3545L9.90643 10.467C9.92377 10.4871 9.94253 10.5059 9.96269 10.5232L10.094 10.6358C10.108 10.6469 10.1226 10.6573 10.1377 10.667L10.2815 10.767C10.2996 10.7786 10.3184 10.789 10.3378 10.7983L10.4878 10.8733C10.514 10.8859 10.5411 10.8963 10.5691 10.9046L10.7066 10.9483C10.7513 10.9627 10.7972 10.971 10.8441 10.9733L10.9691 10.9796C11.0421 10.9836 11.1129 10.9732 11.1817 10.9483L11.2817 10.9108C11.3264 10.8935 11.3681 10.8705 11.4067 10.842L11.5005 10.7795C11.5431 10.7495 11.5806 10.7141 11.613 10.6733L11.688 10.5732C11.7096 10.5459 11.7284 10.5167 11.7443 10.4857L11.813 10.3545C11.8246 10.3363 11.835 10.3176 11.8443 10.2982L11.9006 10.1544C11.9114 10.1259 11.9197 10.0968 11.9256 10.0669L11.9568 9.91062C11.9613 9.88162 11.9634 9.85244 11.9631 9.8231L11.9693 9.66057C11.9714 9.63348 11.9714 9.60639 11.9693 9.5793L11.9506 9.42302C11.9489 9.41045 11.9468 9.39794 11.9443 9.38552L11.9193 9.24799C11.9174 9.23961 11.9153 9.23127 11.9131 9.22299L11.8881 9.11672C11.8802 9.08663 11.8698 9.05746 11.8568 9.0292L11.8318 8.97294C11.8187 8.93781 11.802 8.90447 11.7818 8.87292L11.763 8.84791C11.6191 8.64009 11.4258 8.57185 11.1832 8.64319C10.9407 8.71453 10.8151 8.87654 10.8066 9.12922V9.14797C10.8065 9.15422 10.8065 9.16047 10.8066 9.16673V9.22924C10.8058 9.24591 10.8058 9.26258 10.8066 9.27925L10.8379 9.5418L10.8566 9.72308C10.8566 9.72516 10.8566 9.72725 10.8566 9.72933L10.8816 9.92937L10.9004 10.1044C10.902 10.117 10.9041 10.1295 10.9066 10.1419L10.9316 10.2794C10.9315 10.2857 10.9315 10.2919 10.9316 10.2982L10.9566 10.4045C10.9625 10.4343 10.9708 10.4635 10.9816 10.492L11.0129 10.567C11.0149 10.5712 11.017 10.5754 11.0191 10.5795L11.0441 10.642L11.0629 10.692C11.0669 10.6984 11.0711 10.7046 11.0754 10.7108L11.0879 10.742L11.0942 10.7608C11.121 10.8421 11.1647 10.9129 11.2254 10.9733L11.2317 10.9796C11.3232 11.0717 11.4337 11.1238 11.563 11.1359H11.5692C11.6654 11.1435 11.7571 11.1268 11.8444 11.0857C11.9317 11.0445 12.003 10.9844 12.0582 10.9054C12.1135 10.8263 12.1455 10.7387 12.1542 10.6426C12.1629 10.5465 12.1471 10.4546 12.1068 10.367L12.1006 10.3545C12.0751 10.3011 12.0417 10.2532 12.0006 10.2107L11.9881 10.1982C11.9689 10.1756 11.9481 10.1548 11.9256 10.1357L11.9068 10.1232C11.8358 10.0705 11.7566 10.0372 11.6693 10.0231L11.6318 10.0169C11.6028 10.0124 11.5736 10.0104 11.5442 10.0106H11.4755C11.4375 10.0109 11.4 10.015 11.363 10.0231L11.2817 10.0419L11.2254 10.0481L11.2004 10.0544L11.1817 10.0481L11.1317 10.0356L11.0566 10.0169C11.036 10.0115 11.0152 10.0074 10.9941 10.0044L10.9316 9.99813L10.9129 9.99188L10.8879 9.98563C10.8817 9.98134 10.8754 9.97717 10.8691 9.97313L10.8191 9.96063C10.8807 10.018 10.9515 10.0597 11.0316 10.0857L11.0066 10.0669C11.0361 10.1136 11.0715 10.1553 11.1129 10.1919L11.1004 10.1732C11.0557 10.0979 10.9974 10.0354 10.9254 9.98563L10.9066 9.97938C10.9549 10.0691 11.0216 10.1421 11.1067 10.1982L11.1004 10.1919C11.0183 10.0338 10.8912 9.93169 10.7191 9.88561L10.7066 9.87936C10.6512 9.86524 10.5949 9.85898 10.5378 9.86061H10.519C10.645 10.0149 10.8075 10.0899 11.0066 10.0857L11.0004 10.0794C10.8541 9.90029 10.6666 9.82736 10.4378 9.86061H10.4253C10.2726 9.90666 10.1557 9.99836 10.0746 10.1357C9.99348 10.2731 9.96968 10.4198 10.0032 10.5757C10.0366 10.7317 10.1185 10.8556 10.2489 10.9476C10.3792 11.0396 10.5234 11.0753 10.6816 11.0546L10.6941 11.0483C10.9834 10.9626 11.1281 10.7688 11.1281 10.467C11.1281 10.1652 10.9834 9.97139 10.6941 9.88561L10.6816 9.87936C10.5234 9.85868 10.3792 9.89433 10.2489 9.98631C10.1185 10.0783 10.0366 10.2023 10.0032 10.3582C9.96968 10.5142 9.99348 10.6609 10.0746 10.7982C10.1557 10.9356 10.2726 11.0273 10.4253 11.0733H10.4378C10.3499 11.0018 10.2499 10.9581 10.1377 10.9421L10.144 10.9483C10.2532 11.0373 10.3782 11.0831 10.519 11.0858H10.5378C10.5949 11.0875 10.6512 11.0812 10.7066 11.0671L10.7191 11.0608C10.5797 10.9873 10.4339 10.9706 10.2815 11.0108L10.2878 11.0171C10.3661 11.0582 10.4494 11.0812 10.5378 11.0858H10.5566C10.6773 11.0928 10.7898 11.0657 10.8941 11.0046L10.9129 10.9921C10.8782 11.0035 10.8448 11.0181 10.8129 11.0358L10.8379 11.0296C10.7843 11.0326 10.7322 11.043 10.6816 11.0608H10.7316C10.678 11.0486 10.6238 11.0445 10.5691 11.0483L10.6191 11.0546L10.6753 11.0733C10.6978 11.0811 10.7208 11.0873 10.7441 11.0921L10.8129 11.0983L10.8879 11.1171C10.8962 11.1173 10.9045 11.1173 10.9129 11.1171L11.0066 11.1359C11.0294 11.1394 11.0523 11.1415 11.0754 11.1421H11.1754C11.1921 11.1429 11.2088 11.1429 11.2254 11.1421L11.3254 11.1359C11.3465 11.1329 11.3674 11.1287 11.388 11.1233L11.488 11.1046C11.4921 11.1046 11.4963 11.1046 11.5005 11.1046L11.5317 11.0983H11.5442C11.5132 11.0935 11.4819 11.0915 11.4505 11.0921L11.488 11.0983C11.4317 11.0645 11.3713 11.0416 11.3067 11.0296L11.3254 11.0421C11.2953 11.011 11.262 10.9839 11.2254 10.9608L11.2379 10.9733C11.2099 10.9217 11.1745 10.8759 11.1317 10.8358L11.1379 10.8483C11.2273 10.8395 11.3094 10.8103 11.3844 10.7608C11.4593 10.7112 11.5183 10.6471 11.5614 10.5683C11.6046 10.4895 11.6268 10.4052 11.6282 10.3154C11.6296 10.2256 11.6099 10.1407 11.5692 10.0606H11.563C11.6822 10.1806 11.826 10.2327 11.9943 10.2169L11.9881 10.2107C12.0069 10.2354 12.0278 10.2583 12.0506 10.2794L12.0256 10.2482C12.0398 10.2768 12.0565 10.3038 12.0756 10.3294L12.0506 10.2857L12.0318 10.2357C12.0279 10.2272 12.0237 10.2189 12.0193 10.2107L11.9943 10.1482L11.9818 10.1232L11.9693 10.0731L11.9506 9.97313L11.9318 9.81685C11.9319 9.8106 11.9319 9.80435 11.9318 9.7981L11.9068 9.60431L11.8881 9.42928C11.8882 9.42302 11.8882 9.41677 11.8881 9.41052L11.8568 9.19173V9.16673C11.8569 9.16047 11.8569 9.15422 11.8568 9.14797V9.12922C11.6978 8.93461 11.5007 8.88151 11.2654 8.96992C11.0302 9.05834 10.9168 9.22812 10.9254 9.47928L10.9441 9.50429C10.928 9.41834 10.8925 9.34124 10.8379 9.273L10.8504 9.33551C10.8503 9.33759 10.8503 9.33967 10.8504 9.34176L10.8691 9.44803L10.8879 9.5418L10.8941 9.64182L10.8879 9.74183L10.8754 9.80435L10.8441 9.87936L10.8191 9.93562L10.8129 9.94187L10.8316 9.92937L10.8003 9.94187C10.8781 9.94566 10.9531 9.93316 11.0254 9.90437H10.9691L10.9316 9.89186L10.8441 9.8481L10.7503 9.78559L10.6691 9.72308L10.6628 9.71683C10.6473 9.81348 10.6578 9.90724 10.6941 9.99813L10.7066 9.92312C10.4966 9.98929 10.3737 10.131 10.3378 10.3482L10.4128 10.3232C10.3179 10.3019 10.2241 10.3061 10.1315 10.3357L10.144 10.3419L10.0877 10.3044L10.0502 10.2544L10.0565 10.2732C10.0817 10.1815 10.0817 10.0898 10.0565 9.99813L10.0315 10.1044C10.1106 10.0373 10.1648 9.95396 10.194 9.85436L10.1252 9.91062C10.2784 9.93154 10.4138 9.89195 10.5315 9.79184L10.4503 9.77934C10.5265 9.85043 10.6161 9.89419 10.7191 9.91062L10.6816 9.87936L10.6566 9.8356L10.6191 9.75434L10.5941 9.66057L10.5753 9.5793C10.5772 9.60674 10.5814 9.63382 10.5878 9.66057V9.62306C10.4492 9.61747 10.3308 9.66373 10.2327 9.76183C10.1346 9.85993 10.0884 9.97829 10.094 10.1169H10.1377C10.0572 10.0464 9.96339 10.0089 9.85642 10.0044L9.88767 10.0294L9.90643 10.0544L9.93768 10.0982L9.96269 10.1544L9.96894 10.1732V10.1857C10.0318 10.1047 10.0609 10.013 10.0565 9.91062L10.044 9.92937C10.2322 9.99982 10.3885 9.95606 10.5128 9.7981L10.4878 9.78559C10.5341 9.8868 10.6091 9.95764 10.7128 9.99813L10.6941 9.95438C10.7004 9.99591 10.7129 10.0355 10.7316 10.0731L10.7253 10.0231C10.7161 10.0666 10.714 10.1103 10.7191 10.1544L10.7253 10.1294C10.6717 10.1733 10.6321 10.2275 10.6066 10.2919L10.6378 10.2732L10.7503 10.1857C10.7758 10.1676 10.7987 10.1468 10.8191 10.1232L10.8316 10.1044C10.9586 9.95836 10.9686 9.80471 10.8616 9.64344C10.7546 9.48217 10.6092 9.43162 10.4253 9.49179ZM10.0377 10.4857C10.0377 10.6342 10.0902 10.7609 10.1952 10.8659C10.3001 10.9708 10.4269 11.0233 10.5753 11.0233C10.7238 11.0233 10.8505 10.9708 10.9554 10.8659C11.0604 10.7609 11.1129 10.6342 11.1129 10.4857C11.1129 10.3373 11.0604 10.2106 10.9554 10.1056C10.8505 10.0006 10.7238 9.94812 10.5753 9.94812C10.4269 9.94812 10.3001 10.0006 10.1952 10.1056C10.0902 10.2106 10.0377 10.3373 10.0377 10.4857ZM10.6378 10.767L10.7441 10.7795C10.8968 10.7697 10.982 10.6888 10.9997 10.5368C11.0173 10.3848 10.953 10.2865 10.8066 10.2419L10.7003 10.2294C10.5476 10.2392 10.4624 10.3201 10.4448 10.4721C10.4271 10.6241 10.4914 10.7224 10.6378 10.767Z" fill="black"/>
<path d="M9.5188 10.617C9.5188 10.8046 9.61257 10.8983 9.80011 10.8983C9.98764 10.8983 10.0814 10.8046 10.0814 10.617C10.0814 10.4295 9.98764 10.3357 9.80011 10.3357C9.61257 10.3357 9.5188 10.4295 9.5188 10.617ZM9.60632 10.9233L9.65633 10.9608C9.6645 10.9653 9.67284 10.9695 9.68133 10.9733L9.76885 11.0296L9.88137 11.1109L10.0189 11.2171L10.1877 11.3609C10.1958 11.3675 10.2041 11.3738 10.2127 11.3797L10.4127 11.5297C10.4228 11.5365 10.4333 11.5427 10.444 11.5485L10.669 11.6797C10.6947 11.6954 10.7217 11.7079 10.7503 11.7172L10.9941 11.7923C11.0869 11.8185 11.1765 11.8101 11.2629 11.7672L11.3879 11.711L11.5067 11.7047C11.6734 11.7006 11.7546 11.6151 11.7505 11.4484C11.7463 11.2817 11.6609 11.2005 11.4942 11.2046L11.4192 11.2109L11.3504 11.1484C11.317 11.1188 11.2795 11.0958 11.2379 11.0796L11.0316 10.9984L10.8441 10.8921L10.669 10.7671L10.494 10.6358C10.486 10.6271 10.4777 10.6187 10.469 10.6108L10.3065 10.5108L10.1689 10.417L10.0689 10.3545C10.0607 10.35 10.0524 10.3458 10.0439 10.342L9.99389 10.3107C9.90948 10.2602 9.81941 10.2463 9.72368 10.269C9.62795 10.2918 9.55378 10.3448 9.50118 10.4279C9.44857 10.5111 9.43248 10.6008 9.45291 10.697C9.47333 10.7933 9.52447 10.8687 9.60632 10.9233Z" fill="black"/>
<path d="M11.338 9.09169C11.338 9.18836 11.3722 9.27087 11.4405 9.33923C11.5089 9.40758 11.5914 9.44176 11.688 9.44176C11.7847 9.44176 11.8672 9.40758 11.9356 9.33923C12.0039 9.27087 12.0381 9.18836 12.0381 9.09169C12.0381 8.99502 12.0039 8.91251 11.9356 8.84416C11.8672 8.7758 11.7847 8.74162 11.688 8.74162C11.5914 8.74162 11.5089 8.7758 11.4405 8.84416C11.3722 8.91251 11.338 8.99502 11.338 9.09169ZM11.3317 8.98542L11.3192 9.03543C11.3168 9.04369 11.3148 9.05203 11.313 9.06044L11.288 9.16045C11.2854 9.17078 11.2834 9.1812 11.2817 9.19171L11.2567 9.32924C11.2538 9.3437 11.2517 9.35829 11.2505 9.37299L11.2442 9.56053C11.2442 9.56261 11.2442 9.5647 11.2442 9.56678L11.238 9.81683C11.2378 9.82308 11.2378 9.82933 11.238 9.83558L11.2442 10.4795V10.817L11.238 11.1358C11.2379 11.1379 11.2379 11.14 11.238 11.1421L11.2317 11.3921L11.2255 11.5797C11.2185 11.6815 11.2487 11.7709 11.3158 11.8478C11.3829 11.9247 11.4674 11.9666 11.5693 11.9735C11.6711 11.9804 11.7605 11.9503 11.8374 11.8831C11.9143 11.816 11.9562 11.7315 11.9631 11.6297L11.9818 11.4359C11.982 11.4296 11.982 11.4234 11.9818 11.4171L11.9881 11.1608L12.0069 10.842C12.007 10.8358 12.007 10.8295 12.0069 10.8233V10.4795L12.0006 9.83558L12.0069 9.58554L12.0131 9.41675L12.0256 9.29798L12.0381 9.20421L12.0444 9.16671C12.0828 8.94282 11.9919 8.80288 11.7718 8.74688C11.5516 8.69088 11.405 8.77039 11.3317 8.98542ZM11.3442 11.6797L11.338 11.7297C11.3459 11.8679 11.4185 11.9458 11.5558 11.9634C11.6931 11.981 11.783 11.9239 11.8256 11.7922L11.8318 11.7422C11.8239 11.604 11.7513 11.5261 11.614 11.5085C11.4767 11.4909 11.3868 11.5479 11.3442 11.6797Z" fill="black"/>
<path d="M11.1254 8.97299L11.0879 9.06051C11.0733 9.09254 11.0628 9.12587 11.0566 9.16053L11.0316 9.31681C11.0267 9.34578 11.0246 9.37495 11.0254 9.40432L11.0379 9.66687L11.0441 9.98569V10.3045L11.0254 10.5983C11.0254 10.6004 11.0254 10.6025 11.0254 10.6046L11.0191 10.8483C11.0169 10.8546 11.0148 10.8608 11.0129 10.8671V11.0109L11.0066 11.0671L10.9941 11.0984L10.9816 11.1359C11.017 11.0996 11.0441 11.058 11.0629 11.0109L11.0441 11.0234C11.2204 11.1404 11.3809 11.1217 11.5255 10.9671L11.5067 10.9546C11.5346 11.0049 11.5721 11.0466 11.6192 11.0796L11.6005 11.0484C11.5819 11.0158 11.559 10.9866 11.5317 10.9609L11.4942 10.9296L11.4505 10.8859C11.4425 10.8771 11.4342 10.8688 11.4255 10.8609L11.3629 10.8108C11.353 10.802 11.3425 10.7936 11.3317 10.7858L11.2504 10.7358C11.2463 10.7337 11.2421 10.7316 11.2379 10.7296L11.1316 10.6671L10.9816 10.5733C10.9796 10.5712 10.9775 10.5691 10.9754 10.567L10.8191 10.4733L10.6628 10.3795C10.6546 10.375 10.6463 10.3709 10.6378 10.367L10.4878 10.2857C10.4796 10.2813 10.4713 10.2771 10.4628 10.2732L10.319 10.2107C10.1006 10.1226 9.93917 10.1841 9.83464 10.3951C9.73011 10.6061 9.77904 10.7718 9.98143 10.8921L10.1127 10.9671C10.1148 10.9671 10.1169 10.9671 10.119 10.9671L10.269 11.0546C10.2711 11.0547 10.2731 11.0547 10.2752 11.0546L10.4315 11.1422L10.594 11.2297C10.5961 11.2318 10.5982 11.2339 10.6003 11.2359L10.7441 11.3109L10.8441 11.3734C10.8462 11.3756 10.8482 11.3776 10.8503 11.3797L10.9129 11.4172L10.9379 11.436L10.9691 11.4672C10.9771 11.4759 10.9854 11.4843 10.9941 11.4922L11.0441 11.5297C11.0204 11.4934 10.9912 11.4622 10.9566 11.436L10.9754 11.4672C11.004 11.5152 11.0415 11.5548 11.0879 11.586L11.1066 11.5985C11.2167 11.673 11.3334 11.6855 11.4567 11.636L11.4755 11.6297C11.5405 11.605 11.5947 11.5654 11.638 11.511L11.6692 11.4735C11.697 11.4375 11.7179 11.398 11.7318 11.3547L11.7568 11.2797C11.7589 11.2756 11.761 11.2714 11.763 11.2672L11.7943 11.1547L11.8443 10.9859C11.8507 10.9612 11.8549 10.9362 11.8568 10.9109L11.8818 10.6671L11.9193 10.367C11.9194 10.3628 11.9194 10.3587 11.9193 10.3545L11.9443 10.0169C11.9445 10.0086 11.9445 10.0003 11.9443 9.99194L11.9506 9.66687C11.9513 9.65229 11.9513 9.6377 11.9506 9.62312L11.938 9.36057C11.934 9.32414 11.9256 9.28872 11.913 9.2543L11.863 9.09802C11.8506 9.05545 11.8318 9.01586 11.8068 8.97924L11.7443 8.90423C11.7057 8.85337 11.6571 8.81534 11.5984 8.79015C11.5398 8.76495 11.4787 8.75588 11.4153 8.76293C11.3519 8.76998 11.2943 8.79223 11.2426 8.82968C11.1909 8.86713 11.1519 8.9149 11.1254 8.97299ZM10.1877 10.2857L10.1127 10.242C9.96688 10.1588 9.85232 10.1901 9.76902 10.3358C9.68572 10.4816 9.71693 10.5962 9.86265 10.6796L9.93767 10.7233C10.0835 10.8067 10.1981 10.7754 10.2815 10.6296C10.3648 10.4837 10.3336 10.3691 10.1877 10.2857Z" fill="black"/>
</g>
<defs>
<clipPath id="clip0_1_7416">
<rect width="33" height="28" fill="white"/>
</clipPath>
</defs>
</svg>
