<svg width="35" height="35" viewBox="0 0 35 35" fill="none" xmlns="http://www.w3.org/2000/svg">
<g clip-path="url(#clip0_1_7387)">
<path d="M23.4795 28.4294C23.4795 28.5519 23.5228 28.6564 23.6093 28.7429C23.6959 28.8295 23.8004 28.8728 23.9228 28.8728C24.0452 28.8728 24.1497 28.8295 24.2363 28.7429C24.3229 28.6564 24.3661 28.5519 24.3661 28.4294C24.3661 28.307 24.3229 28.2025 24.2363 28.116C24.1497 28.0294 24.0452 27.9861 23.9228 27.9861C23.8004 27.9861 23.6959 28.0294 23.6093 28.116C23.5228 28.2025 23.4795 28.307 23.4795 28.4294ZM23.8761 28.935L23.9773 28.9505C24.0795 28.9661 24.178 28.9531 24.2728 28.9117L24.5217 28.795C24.5604 28.7784 24.5966 28.7577 24.6306 28.7328L25.0506 28.4217C25.0668 28.4095 25.0824 28.3966 25.0972 28.3828L25.6572 27.8617C25.6708 27.8494 25.6838 27.8364 25.6961 27.8228L26.3105 27.1384C26.3371 27.1097 26.3604 27.0785 26.3805 27.045L26.8861 26.1817C26.9016 26.1543 26.9146 26.1258 26.925 26.0962L27.2594 25.1473C27.271 25.1144 27.2787 25.0807 27.2827 25.0462L27.3839 24.1829L27.4927 23.5062C27.4961 23.3037 27.3978 23.1865 27.1978 23.1547C26.9978 23.1229 26.8679 23.2037 26.8083 23.3973L26.6994 24.0429L26.3883 24.7973L25.9683 25.6451L25.4472 26.4073L24.8717 27.0606L24.3506 27.5428L23.9773 27.8383L23.7906 27.955L23.7361 27.9861C23.5194 28.0958 23.4288 28.2707 23.4643 28.511C23.4997 28.7513 23.637 28.8926 23.8761 28.935Z" fill="black"/>
<path d="M30.1373 28.5383L30.1684 28.515C30.2301 28.4825 30.282 28.4385 30.3239 28.3828L30.4795 28.165C30.485 28.1548 30.4902 28.1444 30.4951 28.1339L30.775 27.6672C30.7834 27.6546 30.7911 27.6416 30.7984 27.6283L31.1328 26.9283C31.1445 26.9083 31.1548 26.8875 31.1639 26.8661L31.4517 26.0184C31.4582 25.998 31.4634 25.9772 31.4673 25.9561L31.6461 25.1162L31.9028 24.4551C31.9372 24.367 31.9354 24.2797 31.8974 24.1931C31.8594 24.1066 31.7964 24.0461 31.7084 24.0117C31.6203 23.9774 31.533 23.9792 31.4464 24.0171C31.3599 24.0551 31.2994 24.1181 31.265 24.2062L31.0162 24.8751L30.565 25.5906C30.5567 25.6032 30.5489 25.6162 30.5417 25.6295L30.1373 26.4384C30.1345 26.4461 30.1319 26.4539 30.1295 26.4617L29.8106 27.1617C29.8049 27.1744 29.7997 27.1874 29.7951 27.2006L29.6162 27.6983L29.5151 27.9239C29.4816 28.004 29.4712 28.0869 29.484 28.1728V28.2117C29.4922 28.2849 29.5175 28.3518 29.5597 28.4122C29.6019 28.4726 29.656 28.5193 29.722 28.5523C29.7879 28.5853 29.8577 28.6005 29.9314 28.598C30.0051 28.5956 30.0737 28.5756 30.1373 28.5383Z" fill="black"/>
<path d="M10.3135 9.13645L10.3213 9.03534C10.3232 8.99615 10.3206 8.95727 10.3135 8.91868L10.2591 8.64646L10.2124 8.21869L10.228 7.59648L10.4302 6.70205L10.998 5.48096L12.0324 3.96432L13.199 2.47102L14.4046 1.38993C14.5286 1.24346 14.5274 1.09802 14.401 0.953607C14.2746 0.80919 14.1306 0.788706 13.969 0.892158L12.7402 1.99658L11.2546 3.22545C11.2292 3.24665 11.2058 3.26998 11.1846 3.29545L9.96354 4.75764C9.92614 4.80012 9.89503 4.84678 9.8702 4.89764L9.24799 6.23539C9.22633 6.28273 9.21078 6.33198 9.20133 6.38317L9.00689 7.40982C8.99698 7.46391 8.99439 7.51836 8.99911 7.57315L9.06911 8.28869C9.07129 8.32286 9.07647 8.35656 9.08466 8.3898L9.20911 8.87201C9.21528 8.89588 9.22305 8.91922 9.23244 8.94201L9.3491 9.20645C9.37872 9.27891 9.4228 9.34113 9.48132 9.39312L9.5591 9.46311C9.70401 9.58556 9.86351 9.60909 10.0376 9.53371C10.2117 9.45833 10.3037 9.32591 10.3135 9.13645Z" fill="black"/>
<path d="M2.21082 6.33695L2.12527 6.46139C2.10083 6.49282 2.08009 6.52652 2.06304 6.5625L1.87638 7.00583C1.8705 7.02115 1.86532 7.03671 1.86083 7.05249L1.56528 7.93914C1.5589 7.95959 1.55372 7.98033 1.54972 8.00137L1.25417 9.45578C1.25092 9.47123 1.24833 9.48679 1.24639 9.50245L1.0364 11.5324C1.03314 11.5479 1.03054 11.5634 1.02862 11.5791L0.981953 14.0135C0.981276 14.029 0.981276 14.0446 0.981953 14.0601L1.17639 16.6734C1.17712 16.6995 1.17971 16.7255 1.18417 16.7512L1.75194 19.2634C1.75892 19.2981 1.76929 19.3318 1.78305 19.3645L2.66192 21.34L3.31524 22.8255C3.41894 23.0095 3.56747 23.0591 3.76084 22.9742C3.95421 22.8893 4.01827 22.7464 3.95301 22.5455L3.31524 21.0834L2.79414 19.0223L2.24971 16.5568L2.05527 14.0057L2.12527 11.6257L2.35859 9.65023L2.64637 8.25025L2.90303 7.41027L3.06636 7.00583L3.12858 6.88139C3.18542 6.7567 3.19335 6.62898 3.15235 6.49823C3.11135 6.36747 3.03193 6.26714 2.91408 6.19722C2.79622 6.12731 2.67009 6.1057 2.53569 6.13241C2.40128 6.15911 2.293 6.22729 2.21082 6.33695Z" fill="black"/>
<path d="M21.1731 14.0516C21.1731 14.1912 21.2224 14.3104 21.3211 14.4091C21.4198 14.5078 21.539 14.5572 21.6786 14.5572C21.8182 14.5572 21.9374 14.5078 22.0361 14.4091C22.1348 14.3104 22.1842 14.1912 22.1842 14.0516C22.1842 13.912 22.1348 13.7929 22.0361 13.6941C21.9374 13.5954 21.8182 13.5461 21.6786 13.5461C21.539 13.5461 21.4198 13.5954 21.3211 13.6941C21.2224 13.7929 21.1731 13.912 21.1731 14.0516ZM21.002 14.0361C21.002 14.2208 21.0673 14.3784 21.1979 14.509C21.3285 14.6396 21.4861 14.7049 21.6708 14.7049C21.8555 14.7049 22.0132 14.6396 22.1438 14.509C22.2744 14.3784 22.3397 14.2208 22.3397 14.0361C22.3397 13.8514 22.2744 13.6937 22.1438 13.5631C22.0132 13.4325 21.8555 13.3672 21.6708 13.3672C21.4861 13.3672 21.3285 13.4325 21.1979 13.5631C21.0673 13.6937 21.002 13.8514 21.002 14.0361ZM21.0253 14.0205C21.0253 14.1966 21.0876 14.3469 21.2122 14.4713C21.3367 14.5958 21.487 14.6581 21.6631 14.6581C21.8391 14.6581 21.9894 14.5958 22.1139 14.4713C22.2385 14.3469 22.3008 14.1966 22.3008 14.0205C22.3008 13.8444 22.2385 13.6942 22.1139 13.5697C21.9894 13.4452 21.8391 13.383 21.6631 13.383C21.487 13.383 21.3367 13.4452 21.2122 13.5697C21.0876 13.6942 21.0253 13.8444 21.0253 14.0205ZM21.9664 14.1605L21.9742 14.145C22.0527 13.9514 21.9991 13.807 21.8132 13.7117C21.6274 13.6164 21.4788 13.6571 21.3675 13.8338L21.3597 13.8494C21.2811 14.0429 21.3348 14.1873 21.5206 14.2827C21.7065 14.378 21.8551 14.3373 21.9664 14.1605Z" fill="black"/>
<path d="M21.8808 14.9227C21.8808 15.0644 21.9309 15.1854 22.0312 15.2857C22.1314 15.3859 22.2524 15.436 22.3941 15.436C22.5359 15.436 22.6569 15.3859 22.7571 15.2857C22.8573 15.1854 22.9075 15.0644 22.9075 14.9227C22.9075 14.7809 22.8573 14.66 22.7571 14.5597C22.6569 14.4595 22.5359 14.4094 22.3941 14.4094C22.2524 14.4094 22.1314 14.4595 22.0312 14.5597C21.9309 14.66 21.8808 14.7809 21.8808 14.9227ZM22.9619 15.0005L22.9697 14.9616C22.9697 14.9564 22.9697 14.9512 22.9697 14.946L22.9775 14.8916C22.9885 14.7351 22.9447 14.5958 22.8463 14.4737C22.7479 14.3516 22.6211 14.2793 22.4658 14.2569C22.3106 14.2344 22.1685 14.2678 22.0395 14.357C21.9105 14.4462 21.8291 14.5673 21.7953 14.7205L21.7875 14.7749C21.7685 14.9035 21.7893 15.0254 21.8497 15.1405L21.873 15.1871C22.0059 15.4321 22.2097 15.5311 22.4843 15.484C22.759 15.4369 22.9182 15.2757 22.9619 15.0005Z" fill="black"/>
<path d="M23.6357 13.8988C23.6357 14.0384 23.685 14.1575 23.7837 14.2563C23.8824 14.355 24.0016 14.4043 24.1412 14.4043C24.2808 14.4043 24.4 14.355 24.4987 14.2563C24.5974 14.1575 24.6467 14.0384 24.6467 13.8988C24.6467 13.7592 24.5974 13.64 24.4987 13.5413C24.4 13.4426 24.2808 13.3932 24.1412 13.3932C24.0016 13.3932 23.8824 13.4426 23.7837 13.5413C23.685 13.64 23.6357 13.7592 23.6357 13.8988ZM23.6045 13.8988C23.6045 14.0448 23.6562 14.1695 23.7594 14.2728C23.8627 14.376 23.9874 14.4277 24.1334 14.4277C24.2795 14.4277 24.4041 14.376 24.5074 14.2728C24.6107 14.1695 24.6623 14.0448 24.6623 13.8988C24.6623 13.7527 24.6107 13.6281 24.5074 13.5248C24.4041 13.4215 24.2795 13.3699 24.1334 13.3699C23.9874 13.3699 23.8627 13.4215 23.7594 13.5248C23.6562 13.6281 23.6045 13.7527 23.6045 13.8988ZM23.5657 13.9066C23.5657 14.0633 23.6211 14.1972 23.7319 14.308C23.8428 14.4189 23.9766 14.4743 24.1334 14.4743C24.2902 14.4743 24.424 14.4189 24.5349 14.308C24.6458 14.1972 24.7012 14.0633 24.7012 13.9066C24.7012 13.7498 24.6458 13.6159 24.5349 13.5051C24.424 13.3942 24.2902 13.3388 24.1334 13.3388C23.9766 13.3388 23.8428 13.3942 23.7319 13.5051C23.6211 13.6159 23.5657 13.7498 23.5657 13.9066ZM23.9312 14.5132L24.0245 14.5521C24.0602 14.5629 24.0965 14.5707 24.1334 14.5754L24.3667 14.6221C24.4338 14.6344 24.5012 14.637 24.569 14.6299L25.0434 14.5754C25.0616 14.5735 25.0798 14.5709 25.0978 14.5677L25.8834 14.4199C25.8938 14.4175 25.9042 14.4149 25.9145 14.4121L26.9334 14.171C26.9517 14.1665 26.9699 14.1614 26.9878 14.1554L28.1233 13.7977C28.1365 13.7929 28.1494 13.7877 28.1622 13.7821L29.3133 13.331C29.3318 13.3241 29.35 13.3163 29.3678 13.3077L30.3866 12.8021C30.4225 12.7849 30.4562 12.7642 30.4877 12.7399L31.1411 12.2188L31.6777 11.9621C31.8666 11.8641 31.9164 11.7184 31.8273 11.5252C31.7381 11.332 31.5949 11.2754 31.3977 11.3555L30.8611 11.6122L30.0444 11.7366C30.0155 11.7396 29.987 11.7448 29.9589 11.7522L28.8778 12.1021L27.7111 12.4755L26.5912 12.7866L25.6112 13.0199L24.849 13.1443L24.3823 13.2221C24.3614 13.2238 24.3407 13.2264 24.3201 13.2299L24.1023 13.2843L24.0245 13.2999C23.7079 13.3593 23.5373 13.5496 23.5126 13.8708C23.4879 14.1919 23.6274 14.4061 23.9312 14.5132Z" fill="black"/>
<path d="M23.3789 13.9143C23.3789 14.0453 23.4253 14.1572 23.5179 14.2498C23.6105 14.3425 23.7224 14.3888 23.8534 14.3888C23.9844 14.3888 24.0962 14.3425 24.1888 14.2498C24.2815 14.1572 24.3278 14.0453 24.3278 13.9143C24.3278 13.7833 24.2815 13.6715 24.1888 13.5789C24.0962 13.4862 23.9844 13.4399 23.8534 13.4399C23.7224 13.4399 23.6105 13.4862 23.5179 13.5789C23.4253 13.6715 23.3789 13.7833 23.3789 13.9143ZM23.3245 13.7977L23.2856 13.9143C23.278 13.945 23.2728 13.9761 23.27 14.0077L23.2234 14.2643C23.2179 14.3004 23.2153 14.3367 23.2156 14.3732L23.2234 14.8321C23.2237 14.866 23.2263 14.8997 23.2312 14.9332L23.3323 15.6332C23.3344 15.6488 23.337 15.6644 23.34 15.6799L23.5423 16.621C23.5486 16.6473 23.5564 16.6732 23.5656 16.6987L23.9078 17.7565C23.9104 17.7591 23.913 17.7617 23.9156 17.7643L24.2734 18.8298L24.6156 19.8176C24.6259 19.8473 24.6388 19.8758 24.6545 19.9031L25.0356 20.5798L25.2222 21.1009C25.2545 21.1889 25.3131 21.2526 25.3981 21.2921C25.4832 21.3316 25.5697 21.3352 25.6577 21.303C25.7458 21.2708 25.8095 21.2122 25.849 21.1271C25.8885 21.0421 25.8922 20.9556 25.86 20.8675L25.6811 20.362L25.6033 19.6076C25.6002 19.5812 25.595 19.5553 25.5878 19.5298L25.3467 18.5343L25.16 17.4609L25.02 16.3643C25.0178 16.3513 25.0152 16.3383 25.0122 16.3254L24.8334 15.3843L24.7011 14.6843C24.6954 14.6527 24.6876 14.6216 24.6778 14.591L24.53 14.1554C24.5254 14.1397 24.5202 14.1241 24.5145 14.1088L24.4211 13.8754C24.4163 13.8649 24.4111 13.8546 24.4056 13.8443L24.3511 13.7354C24.2456 13.5074 24.0674 13.401 23.8166 13.4162C23.5657 13.4314 23.4017 13.5585 23.3245 13.7977Z" fill="black"/>
<path d="M23.5034 14.7621C23.5034 14.8716 23.5421 14.9651 23.6196 15.0426C23.697 15.12 23.7905 15.1588 23.9001 15.1588C24.0096 15.1588 24.1031 15.12 24.1805 15.0426C24.258 14.9651 24.2967 14.8716 24.2967 14.7621C24.2967 14.6526 24.258 14.5591 24.1805 14.4816C24.1031 14.4042 24.0096 14.3654 23.9001 14.3654C23.7905 14.3654 23.697 14.4042 23.6196 14.4816C23.5421 14.5591 23.5034 14.6526 23.5034 14.7621ZM23.3712 14.7621C23.3712 14.9103 23.4236 15.0368 23.5284 15.1416C23.6332 15.2464 23.7597 15.2988 23.9078 15.2988C24.056 15.2988 24.1825 15.2464 24.2873 15.1416C24.3921 15.0368 24.4445 14.9103 24.4445 14.7621C24.4445 14.6139 24.3921 14.4874 24.2873 14.3826C24.1825 14.2778 24.056 14.2254 23.9078 14.2254C23.7597 14.2254 23.6332 14.2778 23.5284 14.3826C23.4236 14.4874 23.3712 14.6139 23.3712 14.7621ZM23.3012 14.7543C23.3012 14.9326 23.3642 15.0847 23.4903 15.2108C23.6163 15.3368 23.7685 15.3999 23.9467 15.3999C24.125 15.3999 24.2772 15.3368 24.4032 15.2108C24.5293 15.0847 24.5923 14.9326 24.5923 14.7543C24.5923 14.5761 24.5293 14.4239 24.4032 14.2979C24.2772 14.1718 24.125 14.1088 23.9467 14.1088C23.7685 14.1088 23.6163 14.1718 23.4903 14.2979C23.3642 14.4239 23.3012 14.5761 23.3012 14.7543ZM24.2812 15.4154L24.88 15.2132C24.8958 15.2059 24.9114 15.1981 24.9267 15.1899L25.4867 14.9643L26.2489 14.6765L27.2056 14.3421L28.2478 13.9999L29.2511 13.6655C29.2537 13.6655 29.2563 13.6655 29.2589 13.6655L30.0988 13.3699L30.7677 13.1444C30.7755 13.1419 30.7833 13.1393 30.7911 13.1366L31.281 12.9577C31.3075 12.9486 31.3334 12.9383 31.3588 12.9266L31.6933 12.771C31.7893 12.7229 31.8722 12.6581 31.9421 12.5766L32.0744 12.4288C32.1823 12.3036 32.2393 12.1584 32.2455 11.9933L32.2532 11.931C32.1887 12.022 32.1524 12.1231 32.1444 12.2344L32.191 12.1799C32.2263 12.1271 32.2522 12.0701 32.2688 12.0088L32.2766 11.9621C32.2922 11.9088 32.3 11.8544 32.2999 11.7988V11.7366C32.3005 11.721 32.3005 11.7055 32.2999 11.6899L32.2921 11.6588C32.2515 11.7507 32.2359 11.8466 32.2455 11.9466L32.261 11.9233C32.1514 11.9847 32.071 12.0729 32.0199 12.1877L32.0355 12.1799L32.0433 12.1721C31.9972 12.1822 31.9532 12.1978 31.911 12.2188L31.9421 12.211L31.981 12.2033C32.0128 12.1981 32.0439 12.1903 32.0744 12.1799L32.191 12.141L32.261 12.1255C32.2636 12.1255 32.2662 12.1255 32.2688 12.1255L32.3466 12.1021L32.401 12.0944C32.4036 12.0944 32.4062 12.0944 32.4088 12.0944L32.4555 12.0788H32.4632C32.4223 12.0691 32.3809 12.0639 32.3388 12.0633L32.3699 12.071C32.3232 12.0461 32.2739 12.0279 32.2221 12.0166L32.2455 12.0244C32.405 12.119 32.5717 12.134 32.7456 12.0696C32.9195 12.0052 33.0362 11.8851 33.0956 11.7095C33.155 11.5338 33.1351 11.3676 33.036 11.2108C32.9369 11.0541 32.7952 10.9649 32.611 10.9433L32.5799 10.9355C32.6029 10.9421 32.6263 10.9473 32.6499 10.9511L32.6188 10.9433C32.5677 10.931 32.5158 10.9258 32.4632 10.9277H32.4166C32.3958 10.9266 32.3751 10.9266 32.3544 10.9277L32.2921 10.9355C32.2711 10.9395 32.2504 10.9447 32.2299 10.9511L32.1599 10.9666C32.1573 10.9666 32.1547 10.9666 32.1521 10.9666L32.0899 10.9899L31.9966 11.0133L31.9033 11.0366C31.8768 11.0425 31.8508 11.0503 31.8255 11.0599L31.6777 11.1144C31.7177 11.1082 31.7566 11.0978 31.7944 11.0833L31.7477 11.0911C31.7399 11.0909 31.7321 11.0909 31.7244 11.0911L31.6855 11.1066C31.6341 11.1154 31.5848 11.1309 31.5377 11.1533L31.5222 11.1611L31.5144 11.1688C31.4431 11.2001 31.3809 11.2442 31.3277 11.301L31.3044 11.3166C31.2161 11.4138 31.1668 11.5279 31.1566 11.6588L31.1488 11.6899C31.1482 11.7055 31.1482 11.721 31.1488 11.7366V11.7988C31.174 11.7338 31.187 11.6664 31.1877 11.5966L31.1644 11.6433C31.3039 11.5785 31.4024 11.4748 31.4599 11.3322L31.3977 11.3633C31.5753 11.4555 31.7542 11.4581 31.9344 11.371L31.8721 11.3399C31.7794 11.2922 31.6808 11.2663 31.5766 11.2622L31.3822 11.2466C31.2923 11.2421 31.2041 11.2525 31.1177 11.2777L30.7677 11.3866C30.752 11.3913 30.7365 11.3965 30.7211 11.4022L30.2311 11.5733L29.5777 11.791L28.7378 12.0399C28.7352 12.0399 28.7326 12.0399 28.73 12.0399L27.7267 12.3433C27.7215 12.3458 27.7163 12.3484 27.7111 12.351L26.6534 12.6855C26.6455 12.688 26.6378 12.6905 26.63 12.6932L25.6656 13.0432C25.6578 13.0457 25.65 13.0483 25.6423 13.051L24.8567 13.3466C24.8383 13.3537 24.8202 13.3615 24.8023 13.3699L24.2423 13.6266C24.1871 13.6521 24.1353 13.6833 24.0867 13.7199L23.5812 14.1088C23.4403 14.2226 23.3518 14.3684 23.3159 14.5459C23.28 14.7235 23.3048 14.8921 23.3903 15.0518C23.4759 15.2115 23.6025 15.3256 23.7703 15.3941C23.938 15.4625 24.1083 15.4697 24.2812 15.4154ZM31.9188 11.5344C31.9188 11.7083 31.9803 11.8568 32.1033 11.9798C32.2263 12.1029 32.3748 12.1644 32.5488 12.1644C32.7228 12.1644 32.8713 12.1029 32.9943 11.9798C33.1173 11.8568 33.1788 11.7083 33.1788 11.5344C33.1788 11.3604 33.1173 11.2119 32.9943 11.0889C32.8713 10.9659 32.7228 10.9044 32.5488 10.9044C32.3748 10.9044 32.2263 10.9659 32.1033 11.0889C31.9803 11.2119 31.9188 11.3604 31.9188 11.5344ZM31.8721 11.4877L31.8488 11.6744C31.8381 11.7496 31.8381 11.8247 31.8488 11.8999L31.8955 12.2966C31.8979 12.307 31.9005 12.3174 31.9033 12.3277L32.0121 12.9732C32.0181 13.0048 32.0259 13.0359 32.0355 13.0666L32.261 13.8443L32.4555 14.7465L32.6655 15.7343C32.6673 15.7526 32.6699 15.7707 32.6732 15.7887L32.961 16.7454C32.9634 16.7532 32.966 16.761 32.9688 16.7687L33.2721 17.6554C33.2854 17.6965 33.3036 17.7354 33.3266 17.772L33.731 18.3943L33.9254 18.9076C34.0143 19.0832 34.1505 19.1356 34.3342 19.065C34.5179 18.9944 34.5838 18.8641 34.5321 18.6743L34.3377 18.1765L34.2754 17.4454C34.2741 17.4245 34.2715 17.4037 34.2677 17.3832L34.081 16.481L33.9332 15.5088C33.9333 15.5036 33.9333 15.4984 33.9332 15.4932L33.7699 14.5132L33.661 13.6188L33.6532 12.8255C33.653 12.789 33.6504 12.7527 33.6454 12.7166L33.5521 12.071C33.5475 12.029 33.5397 11.9875 33.5288 11.9466L33.4121 11.5577C33.3817 11.4545 33.3324 11.3611 33.2643 11.2777L33.1399 11.1377C32.9408 10.9008 32.692 10.8235 32.3937 10.9059C32.0954 10.9883 31.9215 11.1822 31.8721 11.4877Z" fill="black"/>
<path d="M25.23 21.0153C25.2301 21.1463 25.2765 21.258 25.3691 21.3506C25.4617 21.4432 25.5735 21.4895 25.7045 21.4895C25.8354 21.4895 25.9472 21.4432 26.0399 21.3506C26.1325 21.258 26.1789 21.1463 26.1789 21.0153C26.1789 20.8843 26.1325 20.7726 26.0399 20.68C25.9472 20.5874 25.8354 20.5411 25.7045 20.5411C25.5735 20.5411 25.4617 20.5874 25.3691 20.68C25.2765 20.7726 25.2301 20.8843 25.23 21.0153ZM25.1912 21.0075C25.1912 21.1493 25.2413 21.2703 25.3415 21.3705C25.4417 21.4707 25.5627 21.5209 25.7045 21.5209C25.8462 21.5209 25.9672 21.4707 26.0675 21.3705C26.1677 21.2703 26.2178 21.1493 26.2178 21.0075C26.2178 20.8658 26.1677 20.7448 26.0675 20.6446C25.9672 20.5443 25.8462 20.4942 25.7045 20.4942C25.5627 20.4942 25.4417 20.5443 25.3415 20.6446C25.2413 20.7448 25.1912 20.8658 25.1912 21.0075ZM25.3623 21.3964L25.51 21.5364C25.6809 21.691 25.8805 21.7533 26.1089 21.7231L26.5989 21.6686C26.6277 21.6651 26.6562 21.6599 26.6845 21.6531L27.4933 21.4586C27.5117 21.4541 27.5298 21.4489 27.5478 21.4431L28.6367 21.1009C28.6419 21.0983 28.6471 21.0957 28.6522 21.0931L29.8655 20.6886C29.876 20.6837 29.8864 20.6785 29.8966 20.6731L31.1099 20.1987C31.1365 20.1898 31.1624 20.1794 31.1877 20.1675L32.2221 19.6076C32.2301 19.6026 32.2378 19.5974 32.2455 19.592L33.0232 19.1176L33.6532 18.892C33.8146 18.8021 33.864 18.6702 33.8016 18.4963C33.7392 18.3225 33.6172 18.2522 33.4355 18.2854L32.8055 18.5031L31.9033 18.612C31.8928 18.6143 31.8824 18.6169 31.8721 18.6198L30.7211 18.822C30.6948 18.8258 30.6689 18.831 30.6433 18.8376L29.3989 19.2031C29.391 19.2056 29.3833 19.2082 29.3755 19.2109L28.1622 19.6153L27.0967 19.9498L26.3267 20.1442L25.8523 20.2531C25.6769 20.2924 25.5343 20.3831 25.4245 20.5253L25.3 20.6809C25.2154 20.79 25.1791 20.9133 25.1911 21.0508C25.203 21.1884 25.2601 21.3036 25.3623 21.3964Z" fill="black"/>
<path d="M19.7857 15.2133C19.7857 15.355 19.8358 15.476 19.9361 15.5762C20.0363 15.6765 20.1573 15.7266 20.299 15.7266C20.4408 15.7266 20.5618 15.6765 20.662 15.5762C20.7623 15.476 20.8124 15.355 20.8124 15.2133C20.8124 15.0715 20.7623 14.9505 20.662 14.8503C20.5618 14.7501 20.4408 14.6999 20.299 14.6999C20.1573 14.6999 20.0363 14.7501 19.9361 14.8503C19.8358 14.9505 19.7857 15.0715 19.7857 15.2133ZM19.7779 15.2133C19.778 15.3571 19.829 15.4798 19.9307 15.5815C20.0324 15.6832 20.1552 15.734 20.299 15.734C20.4429 15.734 20.5657 15.6832 20.6674 15.5815C20.7691 15.4798 20.8201 15.3571 20.8202 15.2133C20.8201 15.0694 20.7691 14.9467 20.6674 14.845C20.5657 14.7434 20.4429 14.6925 20.299 14.6925C20.1552 14.6925 20.0324 14.7434 19.9307 14.845C19.829 14.9467 19.778 15.0694 19.7779 15.2133ZM19.8402 14.8788L19.8168 14.9177C19.7113 15.0496 19.662 15.2 19.6691 15.3688L19.6768 15.5399C19.6799 15.6312 19.6981 15.7193 19.7313 15.8044L19.8791 16.1544C19.9086 16.2295 19.9475 16.2995 19.9957 16.3644L20.3613 16.831C20.3832 16.8582 20.4065 16.8842 20.4313 16.9088L20.9757 17.4688C20.9858 17.4794 20.9962 17.4898 21.0068 17.4999L21.6524 18.1065C21.66 18.1145 21.6678 18.1222 21.6757 18.1299L22.3835 18.7521C22.386 18.7521 22.3886 18.7521 22.3912 18.7521L23.0912 19.351L23.7134 19.911L24.2579 20.3932C24.2826 20.4154 24.3085 20.4361 24.3356 20.4554L24.779 20.7665C24.9299 20.8731 25.0975 20.9194 25.2817 20.9053C25.466 20.8912 25.6246 20.8201 25.7576 20.6918C25.8907 20.5636 25.9675 20.4076 25.9883 20.224C26.009 20.0404 25.9689 19.8712 25.8678 19.7165L25.5801 19.2654C25.5544 19.2269 25.5259 19.1906 25.4945 19.1565L25.0123 18.6121C25.0022 18.6015 24.9918 18.5911 24.9812 18.581L24.3823 17.9743C24.3696 17.9636 24.3567 17.9532 24.3434 17.9432L23.6512 17.321C23.6486 17.3184 23.646 17.3158 23.6434 17.3132L22.9512 16.6988L22.329 16.1077L21.7924 15.571C21.7872 15.5684 21.782 15.5658 21.7768 15.5633L21.3568 15.151C21.3158 15.1133 21.2718 15.0796 21.2246 15.0499L20.9135 14.8399C20.8392 14.7902 20.7588 14.7539 20.6724 14.731L20.509 14.6844C20.445 14.6698 20.3802 14.6646 20.3146 14.6688H20.2679C20.0935 14.674 19.9509 14.744 19.8402 14.8788ZM25.2534 20.6343L25.4012 20.7743C25.5587 20.8802 25.7023 20.8638 25.832 20.7252C25.9617 20.5866 25.9685 20.4422 25.8523 20.2921L25.7045 20.1521C25.547 20.0461 25.4034 20.0625 25.2737 20.2011C25.144 20.3398 25.1372 20.4841 25.2534 20.6343Z" fill="black"/>
<path d="M20.229 10.6245C20.229 10.7662 20.2791 10.8872 20.3793 10.9874C20.4796 11.0877 20.6005 11.1378 20.7423 11.1378C20.884 11.1378 21.005 11.0877 21.1053 10.9874C21.2055 10.8872 21.2556 10.7662 21.2556 10.6245C21.2556 10.4827 21.2055 10.3617 21.1053 10.2615C21.005 10.1613 20.884 10.1111 20.7423 10.1111C20.6005 10.1111 20.4796 10.1613 20.3793 10.2615C20.2791 10.3617 20.229 10.4827 20.229 10.6245ZM20.2056 10.6167C20.2056 10.7627 20.2573 10.8874 20.3605 10.9907C20.4638 11.0939 20.5885 11.1456 20.7345 11.1456C20.8806 11.1456 21.0052 11.0939 21.1085 10.9907C21.2118 10.8874 21.2634 10.7627 21.2634 10.6167C21.2634 10.4706 21.2118 10.346 21.1085 10.2427C21.0052 10.1394 20.8806 10.0878 20.7345 10.0878C20.5885 10.0878 20.4638 10.1394 20.3605 10.2427C20.2573 10.346 20.2056 10.4706 20.2056 10.6167ZM20.1279 10.6089C20.1279 10.77 20.1848 10.9075 20.2987 11.0214C20.4126 11.1353 20.5501 11.1922 20.7112 11.1922C20.8723 11.1922 21.0098 11.1353 21.1237 11.0214C21.2376 10.9075 21.2945 10.77 21.2945 10.6089C21.2945 10.4478 21.2376 10.3103 21.1237 10.1964C21.0098 10.0825 20.8723 10.0256 20.7112 10.0256C20.5501 10.0256 20.4126 10.0825 20.2987 10.1964C20.1848 10.3103 20.1279 10.4478 20.1279 10.6089ZM20.0423 10.64C20.0423 10.8204 20.1061 10.9744 20.2337 11.102C20.3612 11.2296 20.5152 11.2933 20.6956 11.2933C20.876 11.2933 21.03 11.2296 21.1576 11.102C21.2852 10.9744 21.3489 10.8204 21.3489 10.64C21.3489 10.4596 21.2852 10.3056 21.1576 10.1781C21.03 10.0505 20.876 9.9867 20.6956 9.9867C20.5152 9.9867 20.3612 10.0505 20.2337 10.1781C20.1061 10.3056 20.0423 10.4596 20.0423 10.64ZM19.9956 10.9511L20.0579 11.1767C20.0821 11.2601 20.1184 11.3379 20.1667 11.41L20.3845 11.7367C20.4207 11.7904 20.4621 11.8397 20.509 11.8844L20.9212 12.2889C20.9436 12.3082 20.967 12.3263 20.9912 12.3433L21.5589 12.7944C21.6003 12.8294 21.6443 12.8606 21.6912 12.8878L23.1456 13.6577C23.2138 13.6958 23.2864 13.7218 23.3634 13.7355L23.9078 13.8211L24.2811 14.1089C24.459 14.2268 24.6146 14.2025 24.7479 14.0358C24.8812 13.8692 24.8708 13.712 24.7167 13.5644L24.3433 13.2611L24.11 12.7555C24.0732 12.67 24.0213 12.5948 23.9545 12.53L22.7489 11.41C22.7314 11.3937 22.7132 11.3782 22.6945 11.3633L22.1345 10.9122L21.7067 10.57L21.4189 10.3134C21.4015 10.297 21.3833 10.2815 21.3645 10.2667L21.1778 10.1345C20.8868 9.92422 20.5936 9.92112 20.2982 10.1252C20.0029 10.3292 19.902 10.6045 19.9956 10.9511Z" fill="black"/>
<path d="M28.3177 8.41561C28.3177 8.55521 28.367 8.67437 28.4657 8.77308C28.5644 8.8718 28.6836 8.92116 28.8232 8.92116C28.9628 8.92116 29.082 8.8718 29.1807 8.77308C29.2794 8.67437 29.3288 8.55521 29.3288 8.41561C29.3288 8.27601 29.2794 8.15685 29.1807 8.05813C29.082 7.95942 28.9628 7.91006 28.8232 7.91006C28.6836 7.91006 28.5644 7.95942 28.4657 8.05813C28.367 8.15685 28.3177 8.27601 28.3177 8.41561ZM28.2866 8.40783C28.2866 8.55602 28.3389 8.68252 28.4437 8.78731C28.5485 8.89209 28.675 8.94449 28.8232 8.94449C28.9714 8.94449 29.0979 8.89209 29.2027 8.78731C29.3075 8.68252 29.3599 8.55602 29.3599 8.40783C29.3599 8.25964 29.3075 8.13315 29.2027 8.02836C29.0979 7.92357 28.9714 7.87117 28.8232 7.87117C28.675 7.87117 28.5485 7.92357 28.4437 8.02836C28.3389 8.13315 28.2866 8.25964 28.2866 8.40783ZM28.201 8.40005C28.2011 8.56749 28.2604 8.71039 28.3788 8.82875C28.4973 8.94711 28.6402 9.00629 28.8077 9.00629C28.9751 9.00629 29.118 8.94711 29.2365 8.82875C29.3549 8.71039 29.4142 8.56749 29.4143 8.40005C29.4142 8.23261 29.3549 8.08971 29.2365 7.97135C29.118 7.853 28.9751 7.79382 28.8077 7.79382C28.6402 7.79382 28.4973 7.853 28.3788 7.97135C28.2604 8.08971 28.2011 8.23261 28.201 8.40005ZM28.1543 8.39228C28.1543 8.56624 28.2158 8.71473 28.3389 8.83775C28.4619 8.96076 28.6104 9.02226 28.7843 9.02226C28.9583 9.02226 29.1068 8.96076 29.2298 8.83775C29.3528 8.71473 29.4143 8.56624 29.4143 8.39228C29.4143 8.21831 29.3528 8.06982 29.2298 7.94681C29.1068 7.82379 28.9583 7.76229 28.7843 7.76229C28.6104 7.76229 28.4619 7.82379 28.3389 7.94681C28.2158 8.06982 28.1543 8.21831 28.1543 8.39228ZM28.1232 8.40005C28.1232 8.58261 28.1878 8.73843 28.3169 8.86752C28.4459 8.99661 28.6018 9.06115 28.7843 9.06115C28.9669 9.06115 29.1227 8.99661 29.2518 8.86752C29.3809 8.73843 29.4454 8.58261 29.4454 8.40005C29.4454 8.2175 29.3809 8.06167 29.2518 7.93259C29.1227 7.8035 28.9669 7.73895 28.7843 7.73895C28.6018 7.73895 28.4459 7.8035 28.3169 7.93259C28.1878 8.06167 28.1232 8.2175 28.1232 8.40005ZM28.0532 8.43116V8.51672C28.0556 8.69575 28.1074 8.85909 28.2088 9.00671L28.3488 9.22448C28.3969 9.29715 28.4539 9.36197 28.5199 9.41892L28.8621 9.7067C28.8772 9.72015 28.8928 9.73311 28.9088 9.74558L29.4299 10.1422L30.0599 10.6089C30.0923 10.6317 30.126 10.6524 30.161 10.6711L30.8843 11.0833C30.9694 11.1322 31.0601 11.1659 31.1565 11.1844L31.8876 11.3244L32.4476 11.4567L32.8365 11.6667C33.035 11.7393 33.1843 11.6825 33.2842 11.4962C33.3842 11.3099 33.349 11.1542 33.1787 11.0289L32.8131 10.8267L32.4554 10.4145L32.0432 9.81558C32.0022 9.76088 31.9556 9.71163 31.9032 9.66781L31.2809 9.10782C31.2608 9.09143 31.2401 9.07588 31.2187 9.06115L30.5965 8.58672C30.5939 8.58411 30.5913 8.58152 30.5887 8.57894L30.0676 8.19783L29.7099 7.9334C29.6657 7.90083 29.619 7.87231 29.5699 7.84784L29.3365 7.73118C29.1429 7.63367 28.9407 7.61033 28.7299 7.66118L28.6521 7.67673C28.4771 7.7181 28.3336 7.80922 28.2218 7.95008C28.11 8.09095 28.0538 8.25131 28.0532 8.43116Z" fill="black"/>
<path d="M20.509 10.2588C20.509 10.3984 20.5584 10.5176 20.6571 10.6163C20.7558 10.715 20.875 10.7644 21.0146 10.7644C21.1542 10.7644 21.2733 10.715 21.372 10.6163C21.4707 10.5176 21.5201 10.3984 21.5201 10.2588C21.5201 10.1192 21.4707 10.0001 21.372 9.90137C21.2733 9.80265 21.1542 9.75329 21.0146 9.75329C20.875 9.75329 20.7558 9.80265 20.6571 9.90137C20.5584 10.0001 20.509 10.1192 20.509 10.2588ZM20.7501 9.80774V9.81552C20.6717 9.86106 20.6087 9.92236 20.5609 9.99941C20.5132 10.0765 20.4863 10.1602 20.4804 10.2507C20.4745 10.3411 20.4902 10.4277 20.5275 10.5103C20.5648 10.5929 20.6193 10.6619 20.6911 10.7173C20.7629 10.7726 20.8434 10.8079 20.9328 10.823C21.0222 10.8382 21.1099 10.8314 21.1959 10.8027C21.2818 10.7741 21.3561 10.7269 21.4185 10.6611C21.4809 10.5954 21.5242 10.5189 21.5484 10.4315C21.5726 10.3441 21.5748 10.2562 21.5551 10.1677C21.5353 10.0793 21.496 10.0006 21.437 9.93181C21.378 9.863 21.3062 9.8121 21.2218 9.77912C21.1374 9.74613 21.0501 9.73493 20.9601 9.74552H20.9523C20.8806 9.75228 20.8132 9.77302 20.7501 9.80774ZM20.5712 10.6555L20.6179 10.7177C20.7423 10.8985 20.9134 11.0022 21.1312 11.0288L21.4268 11.0677C21.476 11.0723 21.5253 11.0723 21.5745 11.0677L22.119 11.0366C22.1478 11.0329 22.1763 11.0277 22.2045 11.021L23.0523 10.8811C23.0653 10.8788 23.0783 10.8762 23.0912 10.8733L24.2189 10.6166C24.2268 10.6141 24.2345 10.6115 24.2423 10.6088L25.5178 10.29C25.5361 10.2854 25.5543 10.2802 25.5723 10.2744L26.8478 9.84663C26.8662 9.83956 26.8844 9.83178 26.9022 9.82329L28.0844 9.32552C28.0949 9.32062 28.1053 9.31543 28.1155 9.30997L29.1111 8.8122C29.1325 8.80324 29.1533 8.79287 29.1733 8.78109L29.8422 8.33776L30.3477 8.13555C30.5233 8.04671 30.5758 7.91046 30.5051 7.7268C30.4345 7.54313 30.3043 7.47716 30.1144 7.52889L29.6011 7.72333L28.8078 7.84777C28.7974 7.84746 28.787 7.84746 28.7766 7.84777L27.6878 8.08888C27.6826 8.0914 27.6774 8.094 27.6722 8.09666L26.4278 8.39221L25.1289 8.70331C25.1263 8.7033 25.1237 8.7033 25.1212 8.70331L23.8534 9.01442L22.7567 9.25553L21.9245 9.4033L21.3879 9.48885C21.3482 9.49626 21.3093 9.50663 21.2712 9.51997L20.9912 9.6133C20.8354 9.66472 20.7109 9.75805 20.6179 9.89329L20.5712 9.95551C20.4095 10.1888 20.4095 10.4222 20.5712 10.6555Z" fill="black"/>
<path d="M19.7391 11.55C19.7391 11.6896 19.7884 11.8088 19.8871 11.9075C19.9858 12.0062 20.105 12.0555 20.2446 12.0555C20.3842 12.0555 20.5034 12.0062 20.6021 11.9075C20.7008 11.8088 20.7501 11.6896 20.7501 11.55C20.7501 11.4104 20.7008 11.2912 20.6021 11.1925C20.5034 11.0938 20.3842 11.0444 20.2446 11.0444C20.105 11.0444 19.9858 11.0938 19.8871 11.1925C19.7884 11.2912 19.7391 11.4104 19.7391 11.55ZM19.8324 11.2156L19.8013 11.2544C19.7662 11.2971 19.7377 11.3438 19.7157 11.3944L19.6379 11.55C19.6102 11.6121 19.5921 11.6769 19.5835 11.7444L19.5291 12.1333C19.5265 12.1696 19.5265 12.2059 19.5291 12.2422V12.8877C19.5298 12.919 19.5324 12.9501 19.5368 12.9811L19.6457 13.8288C19.6478 13.8445 19.6504 13.86 19.6535 13.8755L19.8324 14.7855C19.8369 14.8013 19.842 14.8168 19.8479 14.8322L20.0735 15.5944L20.1124 16.2166C20.1188 16.3111 20.1577 16.3895 20.2291 16.4517C20.3005 16.514 20.3834 16.5419 20.4779 16.5355C20.5724 16.529 20.6508 16.4901 20.7131 16.4187C20.7753 16.3473 20.8033 16.2644 20.7968 16.1699L20.7501 15.5477L20.8901 14.7777C20.8903 14.7699 20.8903 14.7622 20.8901 14.7544L21.0146 13.8288C21.0146 13.8262 21.0146 13.8237 21.0146 13.8211L21.1079 12.9655C21.1142 12.9217 21.1168 12.8776 21.1157 12.8333L21.069 12.1878C21.0651 12.1295 21.0548 12.0725 21.0379 12.0167L20.929 11.6433C20.9106 11.5741 20.8821 11.5093 20.8435 11.4489L20.7424 11.3089C20.7077 11.2584 20.6663 11.2143 20.6179 11.1767L20.579 11.1378C20.4647 11.0471 20.335 11.0093 20.1899 11.0244C20.0447 11.0395 19.9256 11.1032 19.8324 11.2156Z" fill="black"/>
<path d="M26.3423 10.8966C26.3423 11.0341 26.3909 11.1514 26.488 11.2486C26.5852 11.3458 26.7026 11.3944 26.84 11.3944C26.9775 11.3944 27.0948 11.3458 27.192 11.2486C27.2892 11.1514 27.3378 11.0341 27.3378 10.8966C27.3378 10.7592 27.2892 10.6418 27.192 10.5446C27.0948 10.4474 26.9775 10.3989 26.84 10.3989C26.7026 10.3989 26.5852 10.4474 26.488 10.5446C26.3909 10.6418 26.3423 10.7592 26.3423 10.8966ZM26.3111 10.9044C26.3111 11.0504 26.3628 11.1751 26.466 11.2784C26.5693 11.3816 26.694 11.4333 26.84 11.4333C26.9861 11.4333 27.1107 11.3816 27.214 11.2784C27.3173 11.1751 27.3689 11.0504 27.3689 10.9044C27.3689 10.7584 27.3173 10.6337 27.214 10.5304C27.1107 10.4272 26.9861 10.3755 26.84 10.3755C26.694 10.3755 26.5693 10.4272 26.466 10.5304C26.3628 10.6337 26.3111 10.7584 26.3111 10.9044ZM26.3967 10.5388L26.3734 10.5622C26.293 10.6511 26.2437 10.7548 26.2256 10.8733L26.2178 10.92C26.2035 11.0092 26.2087 11.0974 26.2334 11.1844L26.2489 11.2311C26.3026 11.3922 26.4053 11.5108 26.5572 11.5867C26.7091 11.6627 26.8656 11.6738 27.0268 11.6201C27.1879 11.5664 27.3064 11.4636 27.3823 11.3117C27.4582 11.1598 27.4693 11.0033 27.4156 10.8422L27.4 10.7955C27.3953 10.7824 27.3901 10.7694 27.3845 10.7566L27.3611 10.71C27.3348 10.836 27.3478 10.9578 27.4 11.0755L27.4078 11.0444C27.4561 10.7569 27.35 10.548 27.0892 10.4177C26.8285 10.2873 26.5977 10.3277 26.3967 10.5388ZM26.6689 11.3711L26.7 11.3944C26.7752 11.4502 26.8591 11.4713 26.9517 11.4576C27.0443 11.4439 27.1185 11.3995 27.1744 11.3243C27.2302 11.2492 27.2513 11.1653 27.2376 11.0727C27.224 10.98 27.1796 10.9058 27.1045 10.85L27.0734 10.8266C26.9982 10.7708 26.9143 10.7498 26.8217 10.7634C26.7291 10.7771 26.6548 10.8215 26.599 10.8967C26.5432 10.9718 26.5221 11.0557 26.5357 11.1483C26.5494 11.241 26.5938 11.3152 26.6689 11.3711Z" fill="black"/>
<path d="M27.3766 18.301C27.3767 18.4405 27.4261 18.5596 27.5248 18.6582C27.6235 18.7569 27.7426 18.8062 27.8821 18.8062C28.0217 18.8062 28.1408 18.7569 28.2395 18.6582C28.3382 18.5596 28.3876 18.4405 28.3877 18.301C28.3876 18.1615 28.3382 18.0424 28.2395 17.9437C28.1408 17.8451 28.0217 17.7958 27.8821 17.7958C27.7426 17.7958 27.6235 17.8451 27.5248 17.9437C27.4261 18.0424 27.3767 18.1615 27.3766 18.301ZM27.361 18.301C27.3611 18.4448 27.412 18.5676 27.5138 18.6692C27.6155 18.7709 27.7383 18.8217 27.8821 18.8217C28.026 18.8217 28.1487 18.7709 28.2505 18.6692C28.3522 18.5676 28.4031 18.4448 28.4032 18.301C28.4031 18.1572 28.3522 18.0344 28.2505 17.9327C28.1487 17.8311 28.026 17.7802 27.8821 17.7802C27.7383 17.7802 27.6155 17.8311 27.5138 17.9327C27.412 18.0344 27.3611 18.1572 27.361 18.301ZM27.2288 18.3088C27.2288 18.4849 27.2911 18.6352 27.4156 18.7597C27.5401 18.8843 27.6905 18.9465 27.8666 18.9465C28.0427 18.9465 28.193 18.8843 28.3175 18.7597C28.4421 18.6352 28.5043 18.4849 28.5043 18.3088C28.5043 18.1326 28.4421 17.9823 28.3175 17.8578C28.193 17.7333 28.0427 17.671 27.8666 17.671C27.6905 17.671 27.5401 17.7333 27.4156 17.8578C27.2911 17.9823 27.2288 18.1326 27.2288 18.3088ZM28.5043 17.9199L28.4966 17.9043C28.3697 17.6957 28.1857 17.572 27.9446 17.5333C27.7035 17.4945 27.4901 17.5543 27.3042 17.7127C27.1183 17.8711 27.0254 18.0724 27.0254 18.3165C27.0254 18.5607 27.1183 18.762 27.3042 18.9204C27.4901 19.0787 27.7035 19.1386 27.9446 19.0998C28.1857 19.0611 28.3697 18.9374 28.4966 18.7288L28.5043 18.7132C28.6633 18.4488 28.6633 18.1843 28.5043 17.9199ZM27.7966 17.9743H27.7888C27.6943 17.9743 27.6136 18.0077 27.5468 18.0746C27.48 18.1414 27.4466 18.222 27.4466 18.3165C27.4466 18.411 27.48 18.4917 27.5468 18.5585C27.6136 18.6253 27.6943 18.6588 27.7888 18.6588H27.7966C27.8911 18.6588 27.9717 18.6253 28.0386 18.5585C28.1054 18.4917 28.1388 18.411 28.1388 18.3165C28.1388 18.222 28.1054 18.1414 28.0386 18.0746C27.9717 18.0077 27.8911 17.9743 27.7966 17.9743Z" fill="black"/>
<path d="M29.7799 15.6721C29.7799 15.816 29.8308 15.9388 29.9325 16.0406C30.0343 16.1423 30.1571 16.1932 30.301 16.1932C30.4449 16.1932 30.5677 16.1423 30.6695 16.0406C30.7712 15.9388 30.8221 15.816 30.8221 15.6721C30.8221 15.5282 30.7712 15.4054 30.6695 15.3036C30.5677 15.2019 30.4449 15.151 30.301 15.151C30.1571 15.151 30.0343 15.2019 29.9325 15.3036C29.8308 15.4054 29.7799 15.5282 29.7799 15.6721ZM29.6788 15.6721C29.6788 15.8418 29.7388 15.9866 29.8588 16.1066C29.9787 16.2265 30.1236 16.2865 30.2932 16.2865C30.4629 16.2865 30.6077 16.2265 30.7277 16.1066C30.8477 15.9866 30.9077 15.8418 30.9077 15.6721C30.9077 15.5024 30.8477 15.3576 30.7277 15.2376C30.6077 15.1177 30.4629 15.0577 30.2932 15.0577C30.1236 15.0577 29.9787 15.1177 29.8588 15.2376C29.7388 15.3576 29.6788 15.5024 29.6788 15.6721ZM31.0865 15.6021L31.0788 15.5865C31.0561 15.2204 30.8747 14.969 30.5343 14.8321L30.4954 14.8166C30.2765 14.7454 30.063 14.7589 29.8547 14.857C29.6465 14.9552 29.5002 15.1114 29.4158 15.3255C29.3313 15.5397 29.3317 15.7537 29.417 15.9675C29.5022 16.1813 29.6491 16.3369 29.8577 16.4343L29.8966 16.4499C30.2803 16.6016 30.607 16.5213 30.8765 16.2088L30.8843 16.1932C31.0324 16.0238 31.0998 15.8267 31.0865 15.6021Z" fill="black"/>
<path d="M9.85367 16.6287C9.85367 16.7769 9.90607 16.9034 10.0109 17.0082C10.1156 17.113 10.2421 17.1654 10.3903 17.1654C10.5385 17.1654 10.665 17.113 10.7698 17.0082C10.8746 16.9034 10.927 16.7769 10.927 16.6287C10.927 16.4805 10.8746 16.354 10.7698 16.2493C10.665 16.1445 10.5385 16.0921 10.3903 16.0921C10.2421 16.0921 10.1156 16.1445 10.0109 16.2493C9.90607 16.354 9.85367 16.4805 9.85367 16.6287ZM9.78367 16.6365C9.78367 16.804 9.8429 16.947 9.96136 17.0655C10.0798 17.1839 10.2228 17.2432 10.3903 17.2432C10.5579 17.2432 10.7008 17.1839 10.8193 17.0655C10.9378 16.947 10.997 16.804 10.997 16.6365C10.997 16.469 10.9378 16.326 10.8193 16.2075C10.7008 16.0891 10.5579 16.0298 10.3903 16.0298C10.2228 16.0298 10.0798 16.0891 9.96136 16.2075C9.8429 16.326 9.78367 16.469 9.78367 16.6365ZM9.51923 16.6987C9.51923 16.9393 9.60428 17.1446 9.77437 17.3147C9.94447 17.4848 10.1498 17.5698 10.3903 17.5698C10.6309 17.5698 10.8362 17.4848 11.0063 17.3147C11.1764 17.1446 11.2614 16.9393 11.2614 16.6987C11.2614 16.4582 11.1764 16.2529 11.0063 16.0828C10.8362 15.9127 10.6309 15.8276 10.3903 15.8276C10.1498 15.8276 9.94447 15.9127 9.77437 16.0828C9.60428 16.2529 9.51923 16.4582 9.51923 16.6987ZM9.44146 17.0876L9.47257 17.1887C9.51773 17.3505 9.59716 17.4933 9.71086 17.617C9.82455 17.7407 9.96012 17.8318 10.1176 17.8904C10.275 17.9491 10.4372 17.9688 10.6041 17.9495C10.771 17.9303 10.9244 17.8742 11.0644 17.7813C11.2044 17.6884 11.3157 17.5688 11.3983 17.4225C11.4809 17.2762 11.5257 17.1191 11.5329 16.9513C11.5401 16.7834 11.5088 16.6231 11.439 16.4703C11.3692 16.3175 11.2685 16.1888 11.137 16.0843L11.0514 16.0143C10.8794 15.8729 10.6823 15.7967 10.4599 15.7856C10.2376 15.7744 10.0338 15.8306 9.84855 15.9541C9.66331 16.0776 9.53307 16.2441 9.45782 16.4536C9.38257 16.6632 9.37712 16.8745 9.44146 17.0876ZM9.78367 16.9632C9.78367 17.1779 9.85961 17.3613 10.0115 17.5131C10.1633 17.665 10.3467 17.7409 10.5614 17.7409C10.7762 17.7409 10.9595 17.665 11.1114 17.5131C11.2633 17.3613 11.3392 17.1779 11.3392 16.9632C11.3392 16.7484 11.2633 16.5651 11.1114 16.4132C10.9595 16.2613 10.7762 16.1854 10.5614 16.1854C10.3467 16.1854 10.1633 16.2613 10.0115 16.4132C9.85961 16.5651 9.78367 16.7484 9.78367 16.9632ZM10.5459 17.3754L10.6237 17.3987C10.7224 17.4287 10.8174 17.4194 10.9084 17.3708C10.9995 17.3222 11.0601 17.2485 11.0901 17.1498C11.1202 17.051 11.111 16.9561 11.0624 16.865C11.0138 16.7739 10.9402 16.7133 10.8414 16.6832L10.7637 16.6598C10.6649 16.6299 10.57 16.6392 10.479 16.6878C10.388 16.7364 10.3274 16.8101 10.2974 16.9088C10.2673 17.0076 10.2766 17.1025 10.3251 17.1935C10.3736 17.2846 10.4472 17.3452 10.5459 17.3754Z" fill="black"/>
<path d="M14.2091 17.5387C14.2091 17.6912 14.263 17.8214 14.3708 17.9292C14.4786 18.037 14.6088 18.0909 14.7613 18.0909C14.9138 18.0909 15.0439 18.037 15.1518 17.9292C15.2596 17.8214 15.3135 17.6912 15.3135 17.5387C15.3135 17.3862 15.2596 17.2561 15.1518 17.1483C15.0439 17.0404 14.9138 16.9865 14.7613 16.9865C14.6088 16.9865 14.4786 17.0404 14.3708 17.1483C14.263 17.2561 14.2091 17.3862 14.2091 17.5387ZM14.0224 17.5543C14.0224 17.754 14.093 17.9245 14.2343 18.0658C14.3755 18.207 14.546 18.2776 14.7457 18.2776C14.9455 18.2776 15.116 18.207 15.2572 18.0658C15.3984 17.9245 15.4691 17.754 15.4691 17.5543C15.4691 17.3545 15.3984 17.1841 15.2572 17.0428C15.116 16.9016 14.9455 16.831 14.7457 16.831C14.546 16.831 14.3755 16.9016 14.2343 17.0428C14.093 17.1841 14.0224 17.3545 14.0224 17.5543ZM15.2668 16.8854L15.2435 16.8621C15.1637 16.7979 15.0755 16.7487 14.9791 16.7143L14.9324 16.6987C14.7325 16.6344 14.5343 16.6392 14.3378 16.7132C14.1413 16.7872 13.9892 16.9143 13.8814 17.0945C13.7736 17.2747 13.7337 17.4689 13.7615 17.677C13.7893 17.8851 13.8789 18.062 14.0302 18.2076L14.0613 18.2387C14.2267 18.3898 14.4213 18.4691 14.6452 18.4764C14.8691 18.4838 15.0685 18.4175 15.2435 18.2776L15.2668 18.2543C15.3691 18.1701 15.4485 18.0681 15.505 17.9483C15.5616 17.8285 15.5898 17.7023 15.5898 17.5698C15.5898 17.4374 15.5616 17.3112 15.505 17.1914C15.4485 17.0716 15.3691 16.9696 15.2668 16.8854ZM14.038 17.5232C14.038 17.6843 14.0949 17.8217 14.2088 17.9356C14.3227 18.0495 14.4602 18.1065 14.6213 18.1065C14.7824 18.1065 14.9199 18.0495 15.0338 17.9356C15.1477 17.8217 15.2046 17.6843 15.2046 17.5232C15.2046 17.3621 15.1477 17.2246 15.0338 17.1107C14.9199 16.9968 14.7824 16.9399 14.6213 16.9399C14.4602 16.9399 14.3227 16.9968 14.2088 17.1107C14.0949 17.2246 14.038 17.3621 14.038 17.5232ZM14.8857 17.7565L14.9013 17.741C14.9721 17.6701 15.0074 17.5845 15.0074 17.4843C15.0073 17.3842 14.9719 17.2987 14.9011 17.2278C14.8302 17.157 14.7447 17.1215 14.6446 17.1215C14.5444 17.1215 14.4589 17.1568 14.388 17.2276L14.3724 17.2432C14.3015 17.3141 14.2661 17.3996 14.2661 17.4998C14.2661 17.6001 14.3015 17.6856 14.3724 17.7565C14.4433 17.8274 14.5288 17.8628 14.6291 17.8628C14.7293 17.8628 14.8149 17.8274 14.8857 17.7565Z" fill="black"/>
<path d="M16.8768 17.9198C16.8768 18.0637 16.9277 18.1865 17.0295 18.2883C17.1312 18.3901 17.254 18.4409 17.3979 18.4409C17.5418 18.4409 17.6646 18.3901 17.7664 18.2883C17.8682 18.1865 17.919 18.0637 17.919 17.9198C17.919 17.7759 17.8682 17.6531 17.7664 17.5514C17.6646 17.4496 17.5418 17.3987 17.3979 17.3987C17.254 17.3987 17.1312 17.4496 17.0295 17.5514C16.9277 17.6531 16.8768 17.7759 16.8768 17.9198ZM16.8068 17.9276C16.8068 18.0822 16.8615 18.2142 16.9708 18.3236C17.0802 18.4329 17.2122 18.4876 17.3668 18.4876C17.5215 18.4876 17.6534 18.4329 17.7628 18.3236C17.8721 18.2142 17.9268 18.0822 17.9268 17.9276C17.9268 17.773 17.8721 17.641 17.7628 17.5316C17.6534 17.4223 17.5215 17.3676 17.3668 17.3676C17.2122 17.3676 17.0802 17.4223 16.9708 17.5316C16.8615 17.641 16.8068 17.773 16.8068 17.9276ZM17.2501 17.6165L17.219 17.6243C17.1289 17.6458 17.0595 17.696 17.011 17.775C16.9624 17.8539 16.9489 17.9385 16.9703 18.0287C16.9918 18.1188 17.042 18.1882 17.1209 18.2368C17.1999 18.2854 17.2844 18.299 17.3746 18.2776L17.4057 18.2698C17.4959 18.2483 17.5652 18.1981 17.6138 18.1191C17.6623 18.0402 17.6759 17.9556 17.6544 17.8654C17.6329 17.7753 17.5827 17.7059 17.5038 17.6573C17.4249 17.6087 17.3403 17.5951 17.2501 17.6165Z" fill="black"/>
<path d="M16.099 24.7875C16.099 24.9486 16.156 25.0861 16.2699 25.2C16.3838 25.3139 16.5213 25.3708 16.6824 25.3708C16.8434 25.3708 16.9809 25.3139 17.0948 25.2C17.2087 25.0861 17.2657 24.9486 17.2657 24.7875C17.2657 24.6264 17.2087 24.4889 17.0948 24.375C16.9809 24.2611 16.8434 24.2042 16.6824 24.2042C16.5213 24.2042 16.3838 24.2611 16.2699 24.375C16.156 24.4889 16.099 24.6264 16.099 24.7875ZM15.9746 24.7797C15.9746 24.9752 16.0437 25.142 16.1819 25.2802C16.3201 25.4184 16.4869 25.4875 16.6824 25.4875C16.8778 25.4875 17.0446 25.4184 17.1828 25.2802C17.321 25.142 17.3901 24.9752 17.3901 24.7797C17.3901 24.5843 17.321 24.4175 17.1828 24.2793C17.0446 24.1411 16.8778 24.072 16.6824 24.072C16.4869 24.072 16.3201 24.1411 16.1819 24.2793C16.0437 24.4175 15.9746 24.5843 15.9746 24.7797ZM17.5301 24.6709L17.5223 24.6397C17.5085 24.4958 17.4619 24.3633 17.3826 24.2423C17.3033 24.1214 17.2004 24.0258 17.0739 23.9556C16.9475 23.8855 16.8119 23.8488 16.6673 23.8455C16.5227 23.8423 16.3857 23.8728 16.2562 23.9372C16.1267 24.0017 16.0196 24.0925 15.9349 24.2098C15.8503 24.327 15.7978 24.4573 15.7774 24.6005C15.7571 24.7437 15.7712 24.8834 15.8198 25.0196C15.8684 25.1558 15.946 25.2729 16.0524 25.3708L16.0757 25.3942C16.3679 25.6737 16.695 25.7235 17.057 25.5434C17.4191 25.3634 17.5768 25.0725 17.5301 24.6709ZM15.959 24.6942C15.959 24.881 16.0251 25.0405 16.1572 25.1727C16.2894 25.3048 16.4488 25.3708 16.6357 25.3708C16.8226 25.3708 16.982 25.3048 17.1142 25.1727C17.2463 25.0405 17.3124 24.881 17.3124 24.6942C17.3124 24.5073 17.2463 24.3478 17.1142 24.2157C16.982 24.0836 16.8226 24.0175 16.6357 24.0175C16.4488 24.0175 16.2894 24.0836 16.1572 24.2157C16.0251 24.3478 15.959 24.5073 15.959 24.6942ZM16.9857 24.6709V24.6631C16.9857 24.5664 16.9515 24.4839 16.8832 24.4156C16.8148 24.3473 16.7323 24.3131 16.6357 24.3131C16.5391 24.3131 16.4566 24.3473 16.3882 24.4156C16.3199 24.4839 16.2857 24.5664 16.2857 24.6631V24.6709C16.2857 24.7675 16.3199 24.85 16.3882 24.9183C16.4566 24.9867 16.5391 25.0208 16.6357 25.0209C16.7323 25.0208 16.8148 24.9867 16.8832 24.9183C16.9515 24.85 16.9857 24.7675 16.9857 24.6709Z" fill="black"/>
<path d="M16.3869 28.5985C16.3869 28.7381 16.4362 28.8573 16.5349 28.956C16.6336 29.0547 16.7528 29.1041 16.8924 29.1041C17.032 29.1041 17.1512 29.0547 17.2499 28.956C17.3486 28.8573 17.398 28.7381 17.398 28.5985C17.398 28.4589 17.3486 28.3398 17.2499 28.241C17.1512 28.1423 17.032 28.093 16.8924 28.093C16.7528 28.093 16.6336 28.1423 16.5349 28.241C16.4362 28.3398 16.3869 28.4589 16.3869 28.5985ZM16.0446 28.6607C16.0448 28.8947 16.1276 29.0944 16.2932 29.2598C16.4587 29.4252 16.6584 29.5079 16.8924 29.5079C17.1264 29.5079 17.3261 29.4252 17.4917 29.2598C17.6572 29.0944 17.74 28.8947 17.7402 28.6607C17.74 28.4268 17.6572 28.2271 17.4917 28.0617C17.3261 27.8963 17.1264 27.8136 16.8924 27.8136C16.6584 27.8136 16.4587 27.8963 16.2932 28.0617C16.1276 28.2271 16.0448 28.4268 16.0446 28.6607ZM16.1535 28.6919C16.1535 28.9002 16.2272 29.078 16.3745 29.2253C16.5218 29.3726 16.6996 29.4463 16.908 29.4463C17.1163 29.4463 17.2941 29.3726 17.4414 29.2253C17.5887 29.078 17.6624 28.9002 17.6624 28.6919C17.6624 28.4835 17.5887 28.3057 17.4414 28.1584C17.2941 28.0111 17.1163 27.9374 16.908 27.9374C16.6996 27.9374 16.5218 28.0111 16.3745 28.1584C16.2272 28.3057 16.1535 28.4835 16.1535 28.6919ZM16.9546 29.0574H17.0013C17.0979 29.0574 17.1804 29.0232 17.2488 28.9549C17.3171 28.8866 17.3513 28.8041 17.3513 28.7074C17.3513 28.6108 17.3171 28.5283 17.2488 28.4599C17.1804 28.3916 17.0979 28.3574 17.0013 28.3574H16.9546C16.858 28.3574 16.7755 28.3916 16.7071 28.4599C16.6388 28.5283 16.6046 28.6108 16.6046 28.7074C16.6046 28.8041 16.6388 28.8866 16.7071 28.9549C16.7755 29.0232 16.858 29.0574 16.9546 29.0574Z" fill="black"/>
<path d="M18.6034 27.2453C18.6034 27.3784 18.6505 27.4921 18.7447 27.5863C18.8388 27.6804 18.9525 27.7275 19.0856 27.7275C19.2188 27.7275 19.3324 27.6804 19.4266 27.5863C19.5208 27.4921 19.5678 27.3784 19.5678 27.2453C19.5678 27.1121 19.5208 26.9985 19.4266 26.9043C19.3324 26.8101 19.2188 26.7631 19.0856 26.7631C18.9525 26.7631 18.8388 26.8101 18.7447 26.9043C18.6505 26.9985 18.6034 27.1121 18.6034 27.2453ZM18.3312 27.2608C18.3312 27.4692 18.4049 27.647 18.5522 27.7943C18.6995 27.9416 18.8773 28.0153 19.0856 28.0153C19.294 28.0153 19.4718 27.9416 19.6191 27.7943C19.7664 27.647 19.8401 27.4692 19.8401 27.2608C19.8401 27.0525 19.7664 26.8747 19.6191 26.7274C19.4718 26.5801 19.294 26.5064 19.0856 26.5064C18.8773 26.5064 18.6995 26.5801 18.5522 26.7274C18.4049 26.8747 18.3312 27.0525 18.3312 27.2608ZM19.8945 27.3931L19.9023 27.3697C19.9366 27.122 19.8715 26.9038 19.7072 26.7152C19.543 26.5266 19.3357 26.4323 19.0856 26.4323C18.8355 26.4323 18.6283 26.5266 18.464 26.7152C18.2997 26.9038 18.2347 27.122 18.269 27.3697L18.2768 27.3931C18.3148 27.5863 18.4099 27.7454 18.562 27.8705C18.7142 27.9956 18.8887 28.0581 19.0856 28.0581C19.2826 28.0581 19.4571 27.9956 19.6092 27.8705C19.7613 27.7454 19.8564 27.5863 19.8945 27.3931ZM19.6456 27.0742L19.6378 27.0353C19.5918 26.8942 19.5047 26.7864 19.3764 26.7118C19.2481 26.6372 19.1112 26.6149 18.9659 26.6448C18.8205 26.6746 18.7036 26.7491 18.615 26.8682C18.5265 26.9874 18.489 27.1208 18.5023 27.2686L18.5101 27.3075C18.5561 27.4486 18.6433 27.5564 18.7716 27.631C18.8999 27.7055 19.0367 27.7279 19.1821 27.698C19.3274 27.6682 19.4444 27.5937 19.5329 27.4745C19.6214 27.3554 19.659 27.222 19.6456 27.0742Z" fill="black"/>
<path d="M18.2924 23.9008C18.2924 24.0469 18.3441 24.1715 18.4473 24.2748C18.5506 24.3781 18.6753 24.4297 18.8213 24.4297C18.9674 24.4297 19.092 24.3781 19.1953 24.2748C19.2986 24.1715 19.3502 24.0469 19.3502 23.9008C19.3502 23.7548 19.2986 23.6301 19.1953 23.5269C19.092 23.4236 18.9674 23.372 18.8213 23.372C18.6753 23.372 18.5506 23.4236 18.4473 23.5269C18.3441 23.6301 18.2924 23.7548 18.2924 23.9008ZM18.1136 23.9008C18.1136 24.0963 18.1827 24.2631 18.3209 24.4013C18.4591 24.5395 18.6259 24.6086 18.8213 24.6086C19.0168 24.6086 19.1836 24.5395 19.3218 24.4013C19.46 24.2631 19.5291 24.0963 19.5291 23.9008C19.5291 23.7054 19.46 23.5386 19.3218 23.4004C19.1836 23.2622 19.0168 23.1931 18.8213 23.1931C18.6259 23.1931 18.4591 23.2622 18.3209 23.4004C18.1827 23.5386 18.1136 23.7054 18.1136 23.9008ZM18.0124 23.8775V23.9164C18.0008 24.1137 18.0552 24.2907 18.1758 24.4473C18.2964 24.6039 18.4535 24.7018 18.6473 24.7409C18.841 24.7801 19.0239 24.7509 19.1958 24.6534C19.3677 24.5558 19.4866 24.4139 19.5524 24.2275L19.568 24.1886C19.6488 23.9588 19.6289 23.7381 19.5084 23.5264C19.3879 23.3148 19.2082 23.185 18.9694 23.1373C18.7305 23.0895 18.5148 23.1401 18.3221 23.2892C18.1294 23.4382 18.0262 23.6343 18.0124 23.8775ZM18.448 24.072L18.4558 24.1186C18.473 24.2174 18.5225 24.2957 18.6046 24.3534C18.6866 24.4111 18.777 24.4313 18.8758 24.4142C18.9746 24.397 19.0528 24.3474 19.1105 24.2654C19.1682 24.1834 19.1885 24.093 19.1713 23.9942L19.1635 23.9475C19.1464 23.8487 19.0968 23.7705 19.0148 23.7128C18.9327 23.655 18.8423 23.6348 18.7435 23.652C18.6447 23.6691 18.5665 23.7187 18.5088 23.8007C18.4511 23.8828 18.4308 23.9732 18.448 24.072Z" fill="black"/>
<path d="M8.89692 25.4797C8.89692 25.6537 8.95842 25.8022 9.08144 25.9252C9.20445 26.0482 9.35294 26.1097 9.5269 26.1097C9.70087 26.1097 9.84936 26.0482 9.97237 25.9252C10.0954 25.8022 10.1569 25.6537 10.1569 25.4797C10.1569 25.3058 10.0954 25.1573 9.97237 25.0343C9.84936 24.9112 9.70087 24.8497 9.5269 24.8497C9.35294 24.8497 9.20445 24.9112 9.08144 25.0343C8.95842 25.1573 8.89692 25.3058 8.89692 25.4797ZM8.78803 25.4875C8.78803 25.6894 8.85941 25.8617 9.00216 26.0045C9.14492 26.1472 9.31724 26.2186 9.51913 26.2186C9.72101 26.2186 9.89334 26.1472 10.0361 26.0045C10.1788 25.8617 10.2502 25.6894 10.2502 25.4875C10.2502 25.2856 10.1788 25.1133 10.0361 24.9705C9.89334 24.8278 9.72101 24.7564 9.51913 24.7564C9.31724 24.7564 9.14492 24.8278 9.00216 24.9705C8.85941 25.1133 8.78803 25.2856 8.78803 25.4875ZM9.13025 24.6397L9.06802 24.6631C8.91954 24.72 8.79243 24.8078 8.6867 24.9265C8.58097 25.0453 8.50843 25.1817 8.4691 25.3358C8.42976 25.4898 8.42802 25.6443 8.46389 25.7992C8.49975 25.9541 8.5692 26.0921 8.67224 26.2132C8.77527 26.3343 8.90037 26.425 9.04754 26.4852C9.19471 26.5454 9.34748 26.5684 9.50585 26.5543C9.66422 26.5401 9.81049 26.4904 9.94465 26.405C10.0788 26.3197 10.1858 26.2083 10.2658 26.0708L10.3047 26.0086C10.5292 25.6177 10.4947 25.2512 10.2012 24.9091C9.9077 24.567 9.55071 24.4772 9.13025 24.6397ZM9.05247 25.4331L9.02914 25.4719C8.97544 25.5621 8.9615 25.6581 8.98732 25.7599C9.01314 25.8616 9.07115 25.9394 9.16136 25.993C9.25156 26.0467 9.34754 26.0607 9.44929 26.0349C9.55104 26.009 9.62877 25.951 9.68246 25.8608L9.70579 25.8219C9.75948 25.7317 9.77342 25.6358 9.7476 25.534C9.72179 25.4323 9.66378 25.3545 9.57357 25.3008C9.48337 25.2471 9.38739 25.2332 9.28564 25.259C9.18388 25.2848 9.10616 25.3429 9.05247 25.4331Z" fill="black"/>
<path d="M5.40266 16.2788C5.40266 16.4249 5.4543 16.5495 5.55757 16.6528C5.66084 16.7561 5.7855 16.8077 5.93154 16.8077C6.07759 16.8077 6.20225 16.7561 6.30552 16.6528C6.40879 16.5495 6.46042 16.4249 6.46042 16.2788C6.46042 16.1328 6.40879 16.0081 6.30552 15.9049C6.20225 15.8016 6.07759 15.75 5.93154 15.75C5.7855 15.75 5.66084 15.8016 5.55757 15.9049C5.4543 16.0081 5.40266 16.1328 5.40266 16.2788ZM5.56599 15.8744L5.55044 15.8977C5.46621 15.9714 5.40917 16.0621 5.37933 16.1699L5.36377 16.2322C5.43615 16.1599 5.48541 16.0744 5.51155 15.9755L5.46488 16.0222C5.34565 16.1396 5.28312 16.2819 5.27728 16.4491C5.27145 16.6163 5.3239 16.7626 5.43465 16.8881C5.54541 17.0135 5.68411 17.0837 5.85077 17.0986C6.01743 17.1135 6.16639 17.069 6.29764 16.9652C6.42889 16.8615 6.50648 16.7268 6.5304 16.5612C6.55433 16.3956 6.51804 16.2444 6.42153 16.1077L6.38265 16.0455C6.38515 16.1593 6.41885 16.263 6.48375 16.3566V16.2866C6.48156 16.2306 6.47119 16.1762 6.45264 16.1233L6.44487 16.0922C6.41403 16.0066 6.36485 15.9334 6.29732 15.8725C6.2298 15.8116 6.1519 15.7702 6.06364 15.7484C5.97538 15.7265 5.88718 15.7267 5.79903 15.749C5.71088 15.7714 5.6332 15.8131 5.56599 15.8744ZM5.17711 16.5666C5.17718 16.7684 5.24859 16.9407 5.39133 17.0834C5.53408 17.2261 5.70637 17.2974 5.90821 17.2974C6.11005 17.2974 6.28234 17.2261 6.42508 17.0834C6.56783 16.9407 6.63924 16.7684 6.63931 16.5666C6.63924 16.3648 6.56783 16.1925 6.42508 16.0498C6.28234 15.9071 6.11005 15.8358 5.90821 15.8358C5.70637 15.8358 5.53408 15.9071 5.39133 16.0498C5.24859 16.1925 5.17718 16.3648 5.17711 16.5666ZM6.02487 17.4377L6.14154 17.4299C6.28313 17.4165 6.41276 17.3698 6.53042 17.2899L6.77153 17.1188C6.79848 17.1021 6.82441 17.084 6.8493 17.0644L7.23041 16.7222C7.233 16.7222 7.23559 16.7222 7.23819 16.7222L7.7904 16.2322C7.79301 16.2296 7.7956 16.227 7.79818 16.2244L8.46705 15.61L9.22926 14.9333C9.23712 14.9282 9.2449 14.9231 9.25259 14.9177L9.99147 14.2178L10.6603 13.6267L11.2048 13.1444C11.21 13.1393 11.2152 13.1341 11.2203 13.1289L11.617 12.7633C11.7706 12.6203 11.8536 12.444 11.8659 12.2345L11.8814 11.9934C11.7707 12.0933 11.711 12.2177 11.7025 12.3667L11.8425 12.2422C11.9542 12.1413 12.0139 12.0156 12.0215 11.8653C12.0291 11.7149 11.9824 11.5839 11.8814 11.4723C11.7805 11.3606 11.6548 11.3009 11.5045 11.2933C11.3541 11.2857 11.2231 11.3324 11.1114 11.4334L10.9715 11.5578C11.1262 11.5688 11.261 11.5221 11.3759 11.4178L11.1348 11.4023C10.9311 11.3885 10.7496 11.4456 10.5903 11.5734L10.1704 11.9078C10.1624 11.9154 10.1546 11.9232 10.147 11.9311L9.59481 12.4056L8.91038 12.9967L8.12484 13.6578C8.12223 13.6603 8.11963 13.6629 8.11706 13.6655L7.33929 14.3344C7.33665 14.3396 7.33406 14.3448 7.33152 14.35L6.64708 14.9566C6.64707 14.9592 6.64707 14.9618 6.64708 14.9644L6.10265 15.4622L5.76043 15.7811L5.63599 15.8744L5.60488 15.8822C5.42323 15.9651 5.28993 16.0969 5.20498 16.2777C5.12004 16.4584 5.10359 16.6451 5.15564 16.8379C5.2077 17.0307 5.3159 17.1838 5.48026 17.2972C5.64463 17.4106 5.82616 17.4575 6.02487 17.4377Z" fill="black"/>
<path d="M7.18386 15.2289C7.18395 15.3534 7.22803 15.4597 7.3161 15.5477C7.40417 15.6357 7.51046 15.6797 7.63497 15.6797C7.75947 15.6797 7.86576 15.6357 7.95383 15.5477C8.0419 15.4597 8.08598 15.3534 8.08607 15.2289C8.08598 15.1044 8.0419 14.9981 7.95383 14.9101C7.86576 14.8221 7.75947 14.7781 7.63497 14.7781C7.51046 14.7781 7.40417 14.8221 7.3161 14.9101C7.22803 14.9981 7.18395 15.1044 7.18386 15.2289ZM7.0672 15.2289C7.0672 15.3814 7.12111 15.5115 7.22894 15.6194C7.33676 15.7272 7.46692 15.7811 7.61941 15.7811C7.7719 15.7811 7.90206 15.7272 8.00988 15.6194C8.11771 15.5115 8.17162 15.3814 8.17162 15.2289C8.17162 15.0764 8.11771 14.9462 8.00988 14.8384C7.90206 14.7306 7.7719 14.6767 7.61941 14.6767C7.46692 14.6767 7.33676 14.7306 7.22894 14.8384C7.12111 14.9462 7.0672 15.0764 7.0672 15.2289ZM7.02053 15.2211C7.02053 15.3865 7.079 15.5277 7.19594 15.6446C7.31288 15.7615 7.45404 15.82 7.61941 15.82C7.78479 15.82 7.92594 15.7615 8.04288 15.6446C8.15982 15.5277 8.21829 15.3865 8.21829 15.2211C8.21829 15.0557 8.15982 14.9146 8.04288 14.7976C7.92594 14.6807 7.78479 14.6222 7.61941 14.6222C7.45404 14.6222 7.31288 14.6807 7.19594 14.7976C7.079 14.9146 7.02053 15.0557 7.02053 15.2211ZM7.67385 15.8511H7.80607C7.92231 15.8457 8.0312 15.8146 8.13274 15.7578L8.39717 15.61C8.4269 15.5938 8.45542 15.5756 8.48273 15.5556L8.94939 15.2133C8.95726 15.2083 8.96504 15.2031 8.97272 15.1978L9.61826 14.6845C9.62086 14.6845 9.62345 14.6845 9.62604 14.6845L10.396 14.0623C10.3986 14.0597 10.4012 14.0571 10.4038 14.0545L11.2049 13.3934C11.2075 13.3934 11.2101 13.3934 11.2127 13.3934L11.9671 12.7712L12.6204 12.219C12.623 12.219 12.6256 12.219 12.6282 12.219L13.196 11.7367C13.2012 11.7342 13.2064 11.7316 13.2115 11.729L13.6782 11.3167C13.6861 11.3091 13.6939 11.3014 13.7015 11.2934L14.0593 10.9434C14.0938 10.9101 14.1249 10.8738 14.1526 10.8345L14.3471 10.5545C14.408 10.4676 14.4469 10.3716 14.4637 10.2668L14.4793 10.1112C14.4869 10.0674 14.4895 10.0234 14.4871 9.97899L14.4793 9.90899C14.4737 9.84065 14.4556 9.77584 14.4248 9.71455L14.4171 9.699C14.3505 9.56798 14.2473 9.4797 14.1076 9.43414C13.9679 9.38858 13.8325 9.39909 13.7015 9.46567C13.5705 9.53225 13.4822 9.6354 13.4367 9.77511C13.3911 9.91483 13.4016 10.0502 13.4682 10.1812L13.476 10.1968C13.6324 10.1475 13.7421 10.0471 13.8051 9.89578C13.8682 9.74442 13.8622 9.59587 13.7871 9.45011L13.7404 9.46567L13.6004 9.49678C13.5371 9.51422 13.4775 9.54014 13.4215 9.57455L13.1415 9.74566C13.0938 9.77452 13.0497 9.80823 13.0093 9.84677L12.6593 10.1812L12.2082 10.5779L11.6482 11.0523L10.9949 11.589L10.2405 12.2112L9.4316 12.8645L8.66161 13.4867L8.03163 13.9923L7.58052 14.3267C7.57265 14.3317 7.56487 14.3369 7.55719 14.3422L7.31608 14.5367C7.2552 14.5855 7.20334 14.6425 7.16053 14.7078L7.09053 14.8089C6.93708 15.0365 6.92739 15.27 7.06144 15.5095C7.1955 15.749 7.39963 15.8629 7.67385 15.8511Z" fill="black"/>
<path d="M13.5148 9.8234C13.5148 9.95441 13.5611 10.0662 13.6537 10.1589C13.7464 10.2515 13.8582 10.2978 13.9892 10.2978C14.1202 10.2978 14.2321 10.2515 14.3247 10.1589C14.4173 10.0662 14.4637 9.95441 14.4637 9.8234C14.4637 9.69239 14.4173 9.58056 14.3247 9.48792C14.2321 9.39528 14.1202 9.34896 13.9892 9.34896C13.8582 9.34896 13.7464 9.39528 13.6537 9.48792C13.5611 9.58056 13.5148 9.69239 13.5148 9.8234ZM13.4292 9.8234C13.4292 9.97589 13.4831 10.106 13.591 10.2139C13.6988 10.3217 13.829 10.3756 13.9814 10.3756C14.1339 10.3756 14.2641 10.3217 14.3719 10.2139C14.4797 10.106 14.5337 9.97589 14.5337 9.8234C14.5337 9.67091 14.4797 9.54075 14.3719 9.43293C14.2641 9.3251 14.1339 9.27119 13.9814 9.27119C13.829 9.27119 13.6988 9.3251 13.591 9.43293C13.4831 9.54075 13.4292 9.67091 13.4292 9.8234ZM13.3437 9.83118C13.3437 10.0008 13.4037 10.1457 13.5236 10.2656C13.6436 10.3856 13.7884 10.4456 13.9581 10.4456C14.1278 10.4456 14.2726 10.3856 14.3926 10.2656C14.5126 10.1457 14.5725 10.0008 14.5725 9.83118C14.5725 9.66151 14.5126 9.51668 14.3926 9.39671C14.2726 9.27673 14.1278 9.21674 13.9581 9.21674C13.7884 9.21674 13.6436 9.27673 13.5236 9.39671C13.4037 9.51668 13.3437 9.66151 13.3437 9.83118ZM13.3592 9.56674L13.3359 9.6134C13.2664 9.75975 13.2456 9.91271 13.2737 10.0723L13.3048 10.2589C13.3159 10.3232 13.334 10.3854 13.3592 10.4456L13.507 10.7878C13.525 10.8282 13.5458 10.8671 13.5692 10.9045L13.8648 11.41C13.8674 11.4126 13.87 11.4152 13.8726 11.4178L14.3003 12.1022L14.7981 12.9267L15.3503 13.8289C15.3528 13.8367 15.3554 13.8445 15.3581 13.8522L15.957 14.7855C15.9693 14.8041 15.9822 14.8223 15.9959 14.84L16.6414 15.7033C16.6537 15.7219 16.6667 15.7401 16.6803 15.7577L17.3414 16.5122C17.3587 16.5311 17.3769 16.5493 17.3958 16.5666L18.0336 17.1655C18.0485 17.1817 18.064 17.1973 18.0803 17.2122L18.6636 17.6788C18.681 17.6928 18.6991 17.7058 18.718 17.7177L19.1458 17.9899L19.348 18.3088C19.4735 18.4631 19.62 18.4867 19.7876 18.3796C19.9551 18.2726 19.9953 18.1297 19.908 17.951L19.698 17.6166L19.5736 17.1033C19.5643 17.0656 19.5514 17.0294 19.5347 16.9944L19.2236 16.3177C19.2099 16.2882 19.1943 16.2597 19.1769 16.2322L18.7102 15.4855C18.7052 15.4777 18.7 15.4699 18.6947 15.4622L18.1347 14.6455L17.5669 13.7667L17.0069 12.8489L16.4936 11.9311C16.4911 11.9259 16.4885 11.9207 16.4858 11.9156L15.9881 11.0756C15.9806 11.0625 15.9728 11.0495 15.9647 11.0367L15.5214 10.3678C15.5043 10.3437 15.4862 10.3203 15.467 10.2978L15.1092 9.83896C15.0781 9.80268 15.0444 9.76898 15.0081 9.73785L14.7359 9.48118C14.669 9.41725 14.5938 9.3654 14.5103 9.32563L14.3314 9.24786C14.2327 9.20234 14.129 9.17901 14.0203 9.17786H13.9659C13.6821 9.18028 13.4799 9.3099 13.3592 9.56674Z" fill="black"/>
<path d="M13.5215 23.6847C13.5215 23.8028 13.5632 23.9036 13.6468 23.9872C13.7303 24.0707 13.8311 24.1125 13.9492 24.1125C14.0674 24.1125 14.1682 24.0707 14.2517 23.9872C14.3352 23.9036 14.377 23.8028 14.377 23.6847C14.377 23.5666 14.3352 23.4657 14.2517 23.3822C14.1682 23.2987 14.0674 23.2569 13.9492 23.2569C13.8311 23.2569 13.7303 23.2987 13.6468 23.3822C13.5632 23.4657 13.5215 23.5666 13.5215 23.6847ZM13.397 23.6847C13.397 23.8372 13.4509 23.9673 13.5588 24.0752C13.6666 24.183 13.7968 24.2369 13.9492 24.2369C14.1017 24.2369 14.2319 24.183 14.3397 24.0752C14.4475 23.9673 14.5015 23.8372 14.5015 23.6847C14.5015 23.5322 14.4475 23.402 14.3397 23.2942C14.2319 23.1864 14.1017 23.1325 13.9492 23.1325C13.7968 23.1325 13.6666 23.1864 13.5588 23.2942C13.4509 23.402 13.397 23.5322 13.397 23.6847ZM13.327 23.6769C13.327 23.8466 13.387 23.9914 13.507 24.1114C13.627 24.2314 13.7718 24.2913 13.9415 24.2913C14.1111 24.2913 14.256 24.2314 14.3759 24.1114C14.4959 23.9914 14.5559 23.8466 14.5559 23.6769C14.5559 23.5072 14.4959 23.3624 14.3759 23.2424C14.256 23.1225 14.1111 23.0625 13.9415 23.0625C13.7718 23.0625 13.627 23.1225 13.507 23.2424C13.387 23.3624 13.327 23.5072 13.327 23.6769ZM14.3381 24.1902L14.4703 24.1047C14.4891 24.0926 14.5073 24.0796 14.5248 24.0658L14.7581 23.8791C14.7661 23.8715 14.7738 23.8637 14.7814 23.8558L15.1314 23.5525C15.1561 23.5305 15.1795 23.5072 15.2014 23.4825L15.637 23.008C15.637 23.0054 15.637 23.0028 15.637 23.0003L16.1736 22.4091L16.8114 21.7403L17.527 21.0403C17.5296 21.0377 17.5322 21.0351 17.5347 21.0325L18.2736 20.3014C18.2762 20.2988 18.2788 20.2962 18.2814 20.2936L18.9658 19.6014C18.9684 19.6014 18.971 19.6014 18.9736 19.6014L19.5802 18.9714C19.5908 18.9639 19.6012 18.9561 19.6114 18.9481L20.0625 18.4426C20.1308 18.3641 20.1827 18.276 20.218 18.1781L20.3502 17.8126C20.4348 17.5862 20.3984 17.3812 20.2411 17.1978C20.0839 17.0143 19.8869 16.947 19.6502 16.9959L19.2769 17.0737C19.1335 17.1024 19.0064 17.1646 18.8958 17.2604L18.3825 17.7037C18.369 17.7188 18.356 17.7343 18.3436 17.7503L17.7214 18.3648C17.7214 18.3674 17.7214 18.37 17.7214 18.3726L17.037 19.057L16.3059 19.7881L15.5748 20.5036C15.5721 20.5088 15.5695 20.514 15.567 20.5192L14.8981 21.1958C14.8901 21.206 14.8823 21.2164 14.8748 21.2269L14.3303 21.8336C14.314 21.8511 14.2985 21.8693 14.2837 21.888L13.8948 22.4014C13.8749 22.4288 13.8568 22.4573 13.8404 22.4869L13.607 22.8836C13.5989 22.8963 13.5911 22.9093 13.5837 22.9225L13.4515 23.1869L13.3892 23.3036C13.2191 23.6084 13.2615 23.88 13.5166 24.1183C13.7717 24.3567 14.0455 24.3806 14.3381 24.1902ZM19.9925 17.8203L20.078 17.8126C20.1725 17.804 20.2501 17.7632 20.3109 17.6903C20.3716 17.6174 20.3977 17.5337 20.3891 17.4392C20.3805 17.3447 20.3398 17.2671 20.2669 17.2064C20.194 17.1456 20.1103 17.1195 20.0158 17.1281L19.9302 17.1359C19.8357 17.1445 19.7581 17.1852 19.6974 17.2581C19.6366 17.331 19.6105 17.4147 19.6191 17.5092C19.6277 17.6037 19.6685 17.6814 19.7414 17.7421C19.8143 17.8029 19.898 17.8289 19.9925 17.8203Z" fill="black"/>
<path d="M14.2292 33.2046C14.2292 33.3442 14.2786 33.4633 14.3773 33.5621C14.476 33.6608 14.5952 33.7101 14.7348 33.7101C14.8744 33.7101 14.9935 33.6608 15.0922 33.5621C15.1909 33.4633 15.2403 33.3442 15.2403 33.2046C15.2403 33.065 15.1909 32.9458 15.0922 32.8471C14.9935 32.7484 14.8744 32.699 14.7348 32.699C14.5952 32.699 14.476 32.7484 14.3773 32.8471C14.2786 32.9458 14.2292 33.065 14.2292 33.2046ZM14.2214 33.2124C14.2214 33.3541 14.2715 33.4751 14.3718 33.5753C14.472 33.6756 14.593 33.7257 14.7348 33.7257C14.8765 33.7257 14.9975 33.6756 15.0977 33.5753C15.198 33.4751 15.2481 33.3541 15.2481 33.2124C15.2481 33.0706 15.198 32.9496 15.0977 32.8494C14.9975 32.7492 14.8765 32.699 14.7348 32.699C14.593 32.699 14.472 32.7492 14.3718 32.8494C14.2715 32.9496 14.2214 33.0706 14.2214 33.2124ZM14.1592 33.2279C14.1593 33.3825 14.214 33.5145 14.3233 33.6238C14.4326 33.7331 14.5646 33.7877 14.7192 33.7877C14.8738 33.7877 15.0058 33.7331 15.1151 33.6238C15.2244 33.5145 15.2791 33.3825 15.2792 33.2279C15.2791 33.0733 15.2244 32.9414 15.1151 32.8321C15.0058 32.7228 14.8738 32.6681 14.7192 32.6681C14.5646 32.6681 14.4326 32.7228 14.3233 32.8321C14.214 32.9414 14.1593 33.0733 14.1592 33.2279ZM14.0737 33.2435C14.0737 33.4174 14.1352 33.5658 14.2583 33.6888C14.3813 33.8118 14.5297 33.8732 14.7036 33.8732C14.8776 33.8732 15.026 33.8118 15.149 33.6888C15.272 33.5658 15.3336 33.4174 15.3336 33.2435C15.3336 33.0695 15.272 32.9211 15.149 32.7981C15.026 32.6752 14.8776 32.6137 14.7036 32.6137C14.5297 32.6137 14.3813 32.6752 14.2583 32.7981C14.1352 32.9211 14.0737 33.0695 14.0737 33.2435ZM14.2059 33.7101L14.237 33.749C14.4643 34.0078 14.7365 34.07 15.0536 33.9357L15.2092 33.8735C15.2704 33.8499 15.3274 33.8188 15.3803 33.7801L15.6758 33.5468C15.689 33.5394 15.702 33.5316 15.7147 33.5235L16.1892 33.1113C16.1971 33.1036 16.2049 33.0959 16.2125 33.0879L16.8269 32.4968L17.558 31.8046C17.5606 31.802 17.5632 31.7994 17.5658 31.7968L18.3514 31.0268C18.354 31.0243 18.3566 31.0217 18.3591 31.0191L19.1836 30.2024C19.1862 30.1998 19.1888 30.1972 19.1913 30.1946L19.9924 29.3858C19.995 29.3832 19.9976 29.3806 20.0002 29.378L20.6846 28.6547C20.7037 28.6375 20.7219 28.6193 20.7391 28.6002L21.2135 27.9936C21.2825 27.9009 21.324 27.7972 21.338 27.6825L21.3924 27.3558L21.5402 27.208C21.6068 27.1393 21.6393 27.0571 21.6378 26.9614C21.6363 26.8657 21.6011 26.7846 21.5324 26.718C21.4637 26.6515 21.3815 26.6189 21.2858 26.6204C21.1901 26.622 21.109 26.6571 21.0424 26.7258L20.8946 26.8814L20.568 26.9436C20.461 26.9637 20.3651 27.0078 20.2802 27.0758L19.6813 27.558C19.6624 27.5727 19.6443 27.5883 19.6269 27.6047L18.9113 28.3047C18.9087 28.3072 18.9061 28.3098 18.9036 28.3125L18.1025 29.1213L17.2858 29.9458L16.5081 30.7235L15.8003 31.4235L15.1936 31.9913L14.7425 32.3879L14.4703 32.6057L14.3536 32.6913L14.3303 32.7146C14.1664 32.8295 14.0721 32.9862 14.0473 33.1848C14.0224 33.3833 14.0753 33.5585 14.2059 33.7101Z" fill="black"/>
<path d="M19.2848 17.8204C19.2848 17.9406 19.3273 18.0433 19.4123 18.1283C19.4974 18.2134 19.6 18.2559 19.7203 18.2559C19.8406 18.2559 19.9432 18.2134 20.0283 18.1283C20.1133 18.0433 20.1559 17.9406 20.1559 17.8204C20.1559 17.7001 20.1133 17.5974 20.0283 17.5124C19.9432 17.4273 19.8406 17.3848 19.7203 17.3848C19.6 17.3848 19.4974 17.4273 19.4123 17.5124C19.3273 17.5974 19.2848 17.7001 19.2848 17.8204ZM19.4792 17.3537L19.4637 17.3615C19.3179 17.4348 19.2194 17.5488 19.1681 17.7037L19.1292 17.8281C19.1143 17.8711 19.1039 17.9152 19.0981 17.9604L19.067 18.217C19.0666 18.23 19.0666 18.243 19.067 18.2559L19.0359 18.707C19.0344 18.7355 19.0344 18.7641 19.0359 18.7926L19.067 19.4537C19.067 19.4563 19.067 19.4589 19.067 19.4614L19.1292 20.457C19.1292 20.4622 19.1292 20.4674 19.1292 20.4725L19.2148 21.7403L19.3237 23.1092C19.3236 23.1143 19.3236 23.1195 19.3237 23.1247L19.4481 24.4314C19.448 24.4365 19.448 24.4417 19.4481 24.4469L19.5803 25.6058C19.5803 25.6084 19.5803 25.611 19.5803 25.6136L19.697 26.5547L19.7748 27.2624L19.8292 27.7602C19.8419 27.8997 19.8885 28.0267 19.9692 28.1413L20.1092 28.3357C20.1745 28.4282 20.2585 28.4983 20.3611 28.5461C20.4637 28.5939 20.5715 28.6129 20.6843 28.6033C20.7971 28.5937 20.9 28.5567 20.9931 28.4923C21.0862 28.4279 21.1571 28.3446 21.2058 28.2424L21.3147 28.0246C21.3745 27.9018 21.4004 27.7721 21.3925 27.6357L21.3614 27.138C21.3617 27.125 21.3617 27.112 21.3614 27.0991L21.2836 26.3835L21.1981 25.4425L21.097 24.2836L20.9881 22.9847L20.9103 21.6314L20.8403 20.3637C20.8404 20.3559 20.8404 20.3481 20.8403 20.3403L20.7625 19.3448C20.7604 19.3292 20.7578 19.3136 20.7547 19.2981L20.6614 18.637C20.6531 18.5865 20.6401 18.5373 20.6225 18.4892L20.4747 18.0615C20.4701 18.0457 20.4649 18.0302 20.4592 18.0148L20.3581 17.7815C20.3373 17.7344 20.3114 17.6903 20.2803 17.6493L20.2025 17.5404C20.1142 17.4213 19.9975 17.3461 19.8525 17.3148H19.837C19.713 17.2846 19.5938 17.2976 19.4792 17.3537ZM20.9647 28.1646L20.9803 28.1257C21.0147 28.0377 21.0129 27.9504 20.9749 27.8638C20.9369 27.7772 20.8739 27.7168 20.7858 27.6824C20.6978 27.648 20.6105 27.6498 20.5239 27.6878C20.4374 27.7258 20.3769 27.7888 20.3425 27.8769L20.327 27.9157C20.2926 28.0038 20.2944 28.0911 20.3324 28.1777C20.3703 28.2642 20.4334 28.3247 20.5214 28.3591C20.6095 28.3934 20.6968 28.3916 20.7833 28.3537C20.8699 28.3157 20.9304 28.2527 20.9647 28.1646Z" fill="black"/>
<path d="M4.8748 16.6232C4.8748 16.7435 4.91732 16.8461 5.00237 16.9312C5.08741 17.0162 5.19007 17.0587 5.31034 17.0587C5.43062 17.0587 5.53328 17.0162 5.61832 16.9312C5.70337 16.8461 5.74589 16.7435 5.74589 16.6232C5.74589 16.5029 5.70337 16.4003 5.61832 16.3152C5.53328 16.2302 5.43062 16.1876 5.31034 16.1876C5.19007 16.1876 5.08741 16.2302 5.00237 16.3152C4.91732 16.4003 4.8748 16.5029 4.8748 16.6232ZM4.77369 16.6232C4.77374 16.7692 4.82539 16.8938 4.92866 16.997C5.03192 17.1003 5.15656 17.1519 5.30257 17.1519C5.44858 17.1519 5.57321 17.1003 5.67648 16.997C5.77974 16.8938 5.8314 16.7692 5.83145 16.6232C5.8314 16.4772 5.77974 16.3526 5.67648 16.2493C5.57321 16.1461 5.44858 16.0945 5.30257 16.0945C5.15656 16.0945 5.03192 16.1461 4.92866 16.2493C4.82539 16.3526 4.77374 16.4772 4.77369 16.6232ZM4.83591 16.211L4.76591 16.2887C4.66963 16.3873 4.60741 16.5039 4.57925 16.6387L4.5248 16.9187C4.51821 16.9444 4.51302 16.9703 4.50925 16.9965L4.4548 17.5487C4.45446 17.5617 4.45446 17.5747 4.4548 17.5876L4.42369 18.4509L4.36147 19.6254L4.27592 21.0642C4.27572 21.0746 4.27572 21.085 4.27592 21.0953L4.25259 22.6664C4.25254 22.6716 4.25254 22.6768 4.25259 22.682V24.1831C4.25239 24.1934 4.25239 24.2038 4.25259 24.2142L4.29925 25.5286C4.29846 25.5493 4.29846 25.5701 4.29925 25.5908L4.43147 26.6563C4.43678 26.7067 4.44715 26.7559 4.46258 26.8041L4.71147 27.5741C4.72235 27.6011 4.73531 27.627 4.75035 27.6519L4.97591 28.0952L5.03813 28.3985C5.09544 28.61 5.23142 28.6938 5.44607 28.6499C5.66073 28.606 5.75289 28.4755 5.72256 28.2585L5.66812 27.9785L5.76922 27.5119C5.76952 27.5015 5.76952 27.4911 5.76922 27.4808L5.89367 26.6797C5.89792 26.6513 5.90051 26.6228 5.90144 26.5941L5.93256 25.5208C5.93267 25.513 5.93267 25.5053 5.93256 25.4975V24.1831V22.682L5.94033 21.1109C5.94044 21.1031 5.94044 21.0953 5.94033 21.0876L5.90144 19.6565L5.90922 18.4976L5.93256 17.6576L5.97144 17.121C5.97194 17.1054 5.97194 17.0898 5.97144 17.0743L5.97922 16.7865C5.98027 16.6895 5.96213 16.5961 5.92478 16.5065L5.88589 16.4054C5.8444 16.3061 5.78176 16.2226 5.69798 16.1549C5.61421 16.0873 5.51938 16.0437 5.41351 16.0241C5.30764 16.0045 5.20349 16.0112 5.10105 16.0444C4.99861 16.0775 4.91023 16.1331 4.83591 16.211Z" fill="black"/>
<path d="M4.98377 27.7919C4.98377 27.9336 5.03389 28.0546 5.13412 28.1549C5.23435 28.2551 5.35534 28.3052 5.49709 28.3052C5.63884 28.3052 5.75984 28.2551 5.86007 28.1549C5.9603 28.0546 6.01042 27.9336 6.01042 27.7919C6.01042 27.6501 5.9603 27.5291 5.86007 27.4289C5.75984 27.3287 5.63884 27.2786 5.49709 27.2786C5.35534 27.2786 5.23435 27.3287 5.13412 27.4289C5.03389 27.5291 4.98377 27.6501 4.98377 27.7919ZM4.92155 27.7919C4.92155 27.9465 4.97622 28.0785 5.08557 28.1879C5.19491 28.2972 5.3269 28.3519 5.48154 28.3519C5.63618 28.3519 5.76817 28.2972 5.87751 28.1879C5.98686 28.0785 6.04153 27.9465 6.04153 27.7919C6.04153 27.6372 5.98686 27.5053 5.87751 27.3959C5.76817 27.2866 5.63618 27.2319 5.48154 27.2319C5.3269 27.2319 5.19491 27.2866 5.08557 27.3959C4.97622 27.5053 4.92155 27.6372 4.92155 27.7919ZM4.8671 27.8152C4.8671 27.9827 4.92633 28.1257 5.04479 28.2442C5.16325 28.3626 5.30624 28.4219 5.47376 28.4219C5.64128 28.4219 5.78427 28.3626 5.90273 28.2442C6.02119 28.1257 6.08042 27.9827 6.08042 27.8152C6.08042 27.6477 6.02119 27.5047 5.90273 27.3862C5.78427 27.2678 5.64128 27.2086 5.47376 27.2086C5.30624 27.2086 5.16325 27.2678 5.04479 27.3862C4.92633 27.5047 4.8671 27.6477 4.8671 27.8152ZM4.80488 27.8619C4.80488 28.0509 4.87171 28.2122 5.00535 28.3458C5.13899 28.4795 5.30031 28.5463 5.48932 28.5463C5.67832 28.5463 5.83964 28.4795 5.97328 28.3458C6.10693 28.2122 6.17375 28.0509 6.17375 27.8619C6.17375 27.6729 6.10693 27.5116 5.97328 27.3779C5.83964 27.2443 5.67832 27.1774 5.48932 27.1774C5.30031 27.1774 5.13899 27.2443 5.00535 27.3779C4.87171 27.5116 4.80488 27.6729 4.80488 27.8619ZM4.81266 28.3363L4.92933 28.5696C4.97526 28.6624 5.03489 28.7454 5.10821 28.8185L5.41154 29.1296C5.43853 29.1572 5.46704 29.1832 5.49709 29.2074L6.00264 29.6041L6.71818 30.1874C6.72078 30.1874 6.72337 30.1874 6.72596 30.1874L7.64372 30.9263C7.65888 30.9397 7.67443 30.9527 7.69039 30.9652L8.79481 31.7351C8.82489 31.7551 8.856 31.7732 8.88814 31.7896L10.0315 32.4118C10.0542 32.4259 10.0775 32.4388 10.1015 32.4507L11.1359 32.894C11.1762 32.9107 11.2177 32.9237 11.2603 32.9329L12.1159 33.1351C12.139 33.1393 12.1624 33.1419 12.1859 33.1429L12.7614 33.1896L13.0958 33.2984C13.1839 33.3263 13.2688 33.3189 13.3508 33.2763C13.4327 33.2338 13.4876 33.1686 13.5155 33.0806C13.5434 32.9926 13.5361 32.9076 13.4937 32.8256C13.4512 32.7437 13.386 32.6887 13.2981 32.6607L12.9792 32.5674L12.5592 32.2251L11.8825 31.6729C11.8698 31.6647 11.8569 31.657 11.8436 31.6496L10.9414 30.9963L9.92257 30.2107L8.87259 29.3863L7.9626 28.6474L7.25484 28.0641C7.24462 28.0561 7.23425 28.0483 7.22373 28.0408L6.70263 27.6519C6.68737 27.6411 6.67181 27.6307 6.65596 27.6208L6.28263 27.3719C6.23818 27.342 6.19152 27.3161 6.14264 27.2941L5.90931 27.193C5.55073 27.0413 5.23669 27.1059 4.96718 27.3869C4.69766 27.6679 4.64616 27.9844 4.81266 28.3363Z" fill="black"/>
<path d="M14.3558 32.0229L14.3635 31.9374C14.3663 31.9296 14.3689 31.9219 14.3713 31.914L14.3869 31.634C14.3869 31.6288 14.3869 31.6237 14.3869 31.6185L14.4024 31.074C14.4029 31.0611 14.4029 31.0481 14.4024 31.0352L14.3635 30.1874L14.3169 29.1296L14.2547 26.9363C14.2547 26.9337 14.2547 26.9312 14.2547 26.9286L14.2002 26.0108C14.2002 26.0082 14.2002 26.0056 14.2002 26.003L14.1613 25.3264C14.1614 25.3212 14.1614 25.316 14.1613 25.3108L14.1224 24.883C14.1189 24.8189 14.1059 24.7566 14.0835 24.6964L14.0135 24.533C13.9064 24.2385 13.6973 24.1103 13.3862 24.1484C13.0751 24.1865 12.9032 24.3614 12.8702 24.673L12.8469 24.8519C12.8412 24.9012 12.8412 24.9504 12.8469 24.9997L12.8858 25.4197L12.9402 26.0886L12.9947 26.9986L13.1347 29.1919L13.1969 30.2496C13.1969 30.2522 13.1969 30.2548 13.1969 30.2574L13.2669 31.1052C13.269 31.1182 13.2716 31.1312 13.2747 31.144L13.3524 31.6729L13.3836 31.9374L13.3913 32.0229C13.3913 32.1561 13.4384 32.2697 13.5326 32.3639C13.6267 32.458 13.7404 32.5051 13.8735 32.5051C14.0067 32.5051 14.1204 32.458 14.2145 32.3639C14.3087 32.2697 14.3558 32.1561 14.3558 32.0229ZM13.1113 24.7586V24.8597C13.1113 24.9521 13.144 25.0309 13.2093 25.0962C13.2746 25.1615 13.3534 25.1941 13.4458 25.1941C13.5381 25.1941 13.617 25.1615 13.6823 25.0962C13.7476 25.0309 13.7802 24.9521 13.7802 24.8597V24.7586C13.7802 24.6662 13.7476 24.5874 13.6823 24.5221C13.617 24.4568 13.5381 24.4242 13.4458 24.4242C13.3534 24.4242 13.2746 24.4568 13.2093 24.5221C13.144 24.5874 13.1113 24.6662 13.1113 24.7586Z" fill="black"/>
<path d="M4.74262 16.9031C4.74262 17.0427 4.79197 17.1619 4.89069 17.2606C4.9894 17.3593 5.10856 17.4087 5.24816 17.4087C5.38777 17.4087 5.50692 17.3593 5.60564 17.2606C5.70435 17.1619 5.75371 17.0427 5.75371 16.9031C5.75371 16.7635 5.70435 16.6444 5.60564 16.5457C5.50692 16.4469 5.38777 16.3976 5.24816 16.3976C5.10856 16.3976 4.9894 16.4469 4.89069 16.5457C4.79197 16.6444 4.74262 16.7635 4.74262 16.9031ZM4.68817 16.8954C4.68817 17.0478 4.74209 17.178 4.84991 17.2858C4.95774 17.3937 5.0879 17.4476 5.24039 17.4476C5.39287 17.4476 5.52303 17.3937 5.63086 17.2858C5.73868 17.178 5.7926 17.0478 5.7926 16.8954C5.7926 16.7429 5.73868 16.6127 5.63086 16.5049C5.52303 16.3971 5.39287 16.3431 5.24039 16.3431C5.0879 16.3431 4.95774 16.3971 4.84991 16.5049C4.74209 16.6127 4.68817 16.7429 4.68817 16.8954ZM4.6104 16.872C4.6104 17.0438 4.67114 17.1905 4.79264 17.312C4.91413 17.4335 5.06079 17.4942 5.23261 17.4942C5.40443 17.4942 5.55108 17.4335 5.67258 17.312C5.79407 17.1905 5.85482 17.0438 5.85482 16.872C5.85482 16.7002 5.79407 16.5535 5.67258 16.4321C5.55108 16.3106 5.40443 16.2498 5.23261 16.2498C5.06079 16.2498 4.91413 16.3106 4.79264 16.4321C4.67114 16.5535 4.6104 16.7002 4.6104 16.872ZM5.71482 17.2998L5.75371 17.2609C5.75906 17.2532 5.76424 17.2455 5.76926 17.2376L5.83149 17.1754C5.85148 17.1507 5.86963 17.1248 5.88593 17.0976L5.94815 17.012C5.78319 17.0563 5.65356 17.1496 5.55927 17.292L5.62149 17.2765C5.8098 17.2251 5.95436 17.1159 6.05518 16.9487C6.15599 16.7816 6.18519 16.6028 6.14278 16.4123C6.10037 16.2217 5.99807 16.0722 5.83588 15.9636C5.67369 15.855 5.49644 15.8174 5.30413 15.8508C5.11182 15.8842 4.95761 15.9793 4.84149 16.1362C4.72538 16.2931 4.67946 16.4684 4.70373 16.662L4.71151 16.7242C4.77606 16.5993 4.79939 16.4671 4.7815 16.3276L4.75039 16.3898L4.72706 16.4209C4.7029 16.4553 4.68216 16.4916 4.66484 16.5298L4.64151 16.5843C4.57496 16.7301 4.56363 16.8801 4.60753 17.0343C4.65144 17.1885 4.74009 17.3101 4.87349 17.399C5.00689 17.488 5.1532 17.523 5.31242 17.5043C5.47164 17.4855 5.60578 17.4173 5.71482 17.2998ZM4.86706 17.0509L4.90595 17.0976C4.87516 17.0327 4.83627 16.973 4.78928 16.9187L4.84373 17.0198C4.85963 17.0547 4.87778 17.0884 4.89817 17.1209L5.02261 17.3153C5.04627 17.3508 5.07219 17.3845 5.10039 17.4165L5.35705 17.7198C5.37451 17.7386 5.39265 17.7568 5.41149 17.7742L5.83149 18.2098C5.83406 18.2124 5.83666 18.215 5.83926 18.2176L6.40703 18.7698L7.05258 19.4231C7.05515 19.4257 7.05775 19.4283 7.06035 19.4309L7.76034 20.1075C7.768 20.1154 7.77577 20.1232 7.78367 20.1309L8.49922 20.792C8.5144 20.8054 8.52995 20.8183 8.54588 20.8308L9.2692 21.4219C9.28192 21.4326 9.29488 21.443 9.30809 21.4531L9.98474 21.9586C10.0098 21.9779 10.0358 21.9961 10.0625 22.013L10.6925 22.4019C10.7227 22.4217 10.7538 22.4399 10.7858 22.4564L11.3225 22.713C11.4454 22.7723 11.575 22.8034 11.7114 22.8064H12.0847C12.2068 22.8059 12.3213 22.7762 12.4282 22.7171C12.5351 22.6581 12.6213 22.5769 12.6866 22.4738C12.752 22.3706 12.7885 22.2581 12.7963 22.1362C12.804 22.0143 12.782 21.8981 12.7303 21.7875L12.5747 21.4608C12.5217 21.3479 12.4491 21.2494 12.3569 21.1653L11.9136 20.7686C11.8863 20.7437 11.8578 20.7204 11.828 20.6986L11.2447 20.2786L10.5914 19.7731L9.90697 19.2131L9.22254 18.5831L8.5381 17.922L7.89256 17.2765C7.87984 17.2658 7.86688 17.2554 7.85367 17.2454L7.26257 16.7087C7.25486 16.7034 7.24709 16.6982 7.23924 16.6931L6.78036 16.2965C6.74128 16.2622 6.6998 16.2311 6.65592 16.2031L6.30592 15.9932C6.23972 15.9535 6.16972 15.9224 6.09593 15.8998L5.87815 15.8298C5.82471 15.8142 5.77027 15.8038 5.71482 15.7987L5.62927 15.7909L5.59038 15.7832C5.23379 15.7236 4.96591 15.8509 4.78675 16.1649C4.60759 16.4789 4.63436 16.7742 4.86706 17.0509ZM12.1625 22.5341L12.2869 22.6041C12.4694 22.6691 12.6075 22.6168 12.7012 22.4473C12.7948 22.2777 12.7657 22.133 12.6136 22.013L12.4891 21.943C12.3067 21.8781 12.1686 21.9304 12.0749 22.0999C11.9812 22.2695 12.0104 22.4142 12.1625 22.5341Z" fill="black"/>
<path d="M11.4548 21.5776L11.447 21.5931C11.3745 21.7499 11.3771 21.9055 11.4548 22.0598L11.4936 22.1375L11.5403 22.2775C11.5509 22.3096 11.5639 22.3407 11.5792 22.3709L11.7036 22.5964C11.7309 22.6525 11.7646 22.7043 11.8048 22.752L12.0225 22.9853C12.0421 23.0072 12.0629 23.0279 12.0848 23.0475L12.3336 23.2731C12.3413 23.2784 12.3491 23.2836 12.357 23.2886L12.6136 23.5064C12.6162 23.509 12.6188 23.5116 12.6214 23.5142L12.8547 23.7086C12.8649 23.7167 12.8753 23.7244 12.8858 23.732L13.0414 23.8486L13.1425 23.9342C13.16 23.9505 13.1781 23.9661 13.197 23.9808L13.267 24.0275C13.3035 24.0569 13.3424 24.0828 13.3836 24.1053L13.4225 24.1208C13.7561 24.2861 14.0545 24.2371 14.3178 23.9739C14.581 23.7106 14.63 23.4122 14.4647 23.0786L14.4492 23.0398C14.4267 22.9986 14.4008 22.9597 14.3714 22.9231L14.3247 22.8531C14.2986 22.8197 14.2701 22.7886 14.2392 22.7598L14.1303 22.6431C14.1105 22.6239 14.0897 22.6057 14.068 22.5886L13.8969 22.4487L13.6714 22.262C13.6663 22.2567 13.6611 22.2515 13.6558 22.2464L13.3914 22.0364C13.3837 22.0311 13.3759 22.0259 13.3681 22.0209L13.0958 21.8109C13.071 21.7912 13.0451 21.7731 13.0181 21.7564L12.7458 21.6009C12.7281 21.5898 12.71 21.5794 12.6914 21.5698L12.4581 21.4609C12.4353 21.4492 12.412 21.4388 12.3881 21.4298L12.2481 21.3831L12.1703 21.3442C12.0697 21.2925 11.9635 21.2743 11.8514 21.2898L11.8281 21.2976C11.6541 21.3249 11.5297 21.4182 11.4548 21.5776ZM13.6092 22.6898H13.5936C13.7798 22.9071 14.0131 22.9875 14.2936 22.9309L14.2547 22.8842C14.2472 22.8736 14.2394 22.8632 14.2314 22.8531L14.2236 22.8453L14.2158 22.8375C14.1726 22.7749 14.1207 22.7205 14.0603 22.6742L14.0292 22.6509C13.8926 22.5504 13.7396 22.5038 13.5703 22.5109H13.5469C13.4461 22.5141 13.3502 22.5375 13.2592 22.5809L13.2436 22.5886C13.0905 22.6601 12.9764 22.7716 12.9014 22.9231L12.8936 22.9464C12.8545 23.0277 12.8311 23.1132 12.8236 23.2031L12.8158 23.2497C12.8152 23.2679 12.8152 23.286 12.8158 23.3042V23.4209C12.8155 23.4338 12.8155 23.4468 12.8158 23.4597L12.8236 23.6931C12.8235 23.6983 12.8235 23.7034 12.8236 23.7086L12.847 24.082L12.8625 24.6342L12.8547 25.4197C12.8543 25.4353 12.8543 25.4508 12.8547 25.4664L12.9014 26.4308C12.9013 26.4386 12.9013 26.4464 12.9014 26.4541L12.987 27.5041C12.9887 27.525 12.9913 27.5457 12.9947 27.5663L13.1658 28.5774C13.173 28.6172 13.1833 28.6561 13.197 28.6941L13.4847 29.5419C13.487 29.5523 13.4896 29.5627 13.4925 29.573L13.7336 30.1641L13.7803 30.5996C13.7911 30.6919 13.8329 30.7669 13.9058 30.8246C13.9787 30.8822 14.0613 30.9057 14.1536 30.895C14.2459 30.8842 14.3209 30.8424 14.3786 30.7696C14.4363 30.6967 14.4598 30.6142 14.4492 30.5218L14.3947 30.0863L14.5036 29.4563C14.5065 29.446 14.5091 29.4356 14.5114 29.4252L14.6047 28.5385C14.6083 28.4971 14.6083 28.4556 14.6047 28.4141L14.5425 27.3952C14.5426 27.39 14.5426 27.3849 14.5425 27.3797L14.4569 26.3375L14.3947 25.3808L14.3558 24.5953L14.3403 24.0275C14.3404 24.0197 14.3404 24.012 14.3403 24.0042L14.3169 23.6153C14.317 23.6101 14.317 23.6049 14.3169 23.5997L14.2936 23.3664C14.2915 23.3508 14.2889 23.3352 14.2858 23.3197L14.2703 23.2264V23.2031C14.259 23.2675 14.2564 23.3324 14.2625 23.3975L14.2703 23.3742C14.0612 23.4809 13.9342 23.6494 13.8892 23.8797L13.9047 23.872C13.778 23.8691 13.6587 23.8976 13.5469 23.9575H13.5703C13.4476 23.8675 13.3102 23.8208 13.1581 23.8175L13.1892 23.8408C13.1459 23.7782 13.0941 23.7238 13.0336 23.6775L13.0725 23.732C13.0979 23.7683 13.1264 23.802 13.1581 23.8331L13.2047 23.8797C13.1689 23.8071 13.1223 23.7423 13.0647 23.6853L13.0881 23.732C13.0765 23.6642 13.0557 23.5994 13.0258 23.5375V23.5609C13.0631 23.7676 13.1682 23.9303 13.3414 24.0492C13.5145 24.1681 13.7043 24.2077 13.9105 24.1681C14.1168 24.1285 14.2783 24.0215 14.3952 23.847C14.5121 23.6725 14.5495 23.4823 14.5076 23.2765C14.4656 23.0707 14.3567 22.9104 14.1809 22.7956C14.005 22.6807 13.8145 22.6454 13.6092 22.6898Z" fill="black"/>
<path d="M13.0491 26.2752C13.0491 26.417 13.0993 26.538 13.1995 26.6382C13.2997 26.7384 13.4207 26.7886 13.5625 26.7886C13.7042 26.7886 13.8252 26.7384 13.9254 26.6382C14.0257 26.538 14.0758 26.417 14.0758 26.2752C14.0758 26.1335 14.0257 26.0125 13.9254 25.9123C13.8252 25.812 13.7042 25.7619 13.5625 25.7619C13.4207 25.7619 13.2997 25.812 13.1995 25.9123C13.0993 26.0125 13.0491 26.1335 13.0491 26.2752ZM12.8547 26.3141L12.7925 26.703C12.7833 26.7623 12.7807 26.822 12.7847 26.8819L12.8158 27.4963C12.8157 27.5041 12.8157 27.5119 12.8158 27.5197L12.8858 28.243C12.8857 28.2482 12.8857 28.2533 12.8858 28.2585L12.9636 29.013L13.0336 29.7285L13.088 30.3585L13.1269 30.8796L13.1425 31.284L13.1503 31.5951V31.8207C13.1501 31.8285 13.1501 31.8362 13.1503 31.844L13.158 32.0385C13.1578 32.0488 13.1578 32.0592 13.158 32.0696L13.1736 32.2562C13.1736 32.2588 13.1736 32.2614 13.1736 32.264L13.1891 32.4507C13.1911 32.4689 13.1937 32.4871 13.1969 32.5051L13.2203 32.6451L13.228 32.7307C13.256 33.0202 13.3986 33.2328 13.6558 33.3684L13.6791 33.3762C13.8539 33.4661 14.0367 33.4874 14.2275 33.4401C14.4183 33.3927 14.5699 33.2885 14.6825 33.1273L14.6902 33.1118C14.7957 32.9625 14.845 32.7966 14.838 32.614L14.8302 32.5051C14.8287 32.4817 14.8261 32.4583 14.8224 32.4351L14.8069 32.2951L14.7913 32.1318C14.7913 32.1292 14.7913 32.1266 14.7913 32.124L14.7758 31.9529L14.768 31.7974V31.5874C14.7682 31.577 14.7682 31.5666 14.768 31.5562L14.7602 31.2374L14.7525 30.8174C14.75 30.8096 14.7474 30.8018 14.7447 30.794L14.7213 30.2496C14.7214 30.2418 14.7214 30.234 14.7213 30.2263L14.6669 29.5807C14.6669 29.5781 14.6669 29.5755 14.6669 29.5729L14.5969 28.8496L14.5191 28.0952L14.4647 27.3797C14.4621 27.377 14.4595 27.3745 14.4569 27.3719L14.4025 26.7574C14.3967 26.7072 14.3863 26.658 14.3713 26.6097L14.2625 26.2363C14.2157 26.0744 14.1236 25.9447 13.9862 25.8471C13.8488 25.7496 13.6959 25.7054 13.5276 25.7147C13.3593 25.724 13.2123 25.7847 13.0864 25.8968C12.9606 26.0089 12.8833 26.148 12.8547 26.3141ZM13.3525 32.6607C13.3525 32.8518 13.4201 33.015 13.5552 33.1501C13.6904 33.2853 13.8535 33.3529 14.0447 33.3529C14.2358 33.3529 14.399 33.2853 14.5342 33.1501C14.6693 33.015 14.7369 32.8518 14.7369 32.6607C14.7369 32.4695 14.6693 32.3064 14.5342 32.1712C14.399 32.036 14.2358 31.9685 14.0447 31.9685C13.8535 31.9685 13.6904 32.036 13.5552 32.1712C13.4201 32.3064 13.3525 32.4695 13.3525 32.6607ZM13.4458 32.5907C13.4458 32.756 13.5043 32.8972 13.6212 33.0141C13.7382 33.1311 13.8793 33.1895 14.0447 33.1895C14.2101 33.1895 14.3512 33.1311 14.4682 33.0141C14.5851 32.8972 14.6436 32.756 14.6436 32.5907C14.6436 32.4253 14.5851 32.2841 14.4682 32.1672C14.3512 32.0503 14.2101 31.9918 14.0447 31.9918C13.8793 31.9918 13.7382 32.0503 13.6212 32.1672C13.5043 32.2841 13.4458 32.4253 13.4458 32.5907ZM14.3713 32.5129V32.4507C14.3713 32.2329 14.2625 32.124 14.0447 32.124C13.8269 32.124 13.718 32.2329 13.718 32.4507V32.5129C13.718 32.7307 13.8269 32.8396 14.0447 32.8396C14.2625 32.8396 14.3713 32.7307 14.3713 32.5129Z" fill="black"/>
</g>
<defs>
<clipPath id="clip0_1_7387">
<rect width="35" height="35" fill="white"/>
</clipPath>
</defs>
</svg>
