<svg width="28" height="37" viewBox="0 0 28 37" fill="none" xmlns="http://www.w3.org/2000/svg">
<g clip-path="url(#clip0_1_7398)">
<path d="M1.07038 28.8077L1.12718 28.7438C1.12964 28.7391 1.132 28.7344 1.13428 28.7296L1.28337 28.545L1.56736 28.2042C1.5748 28.195 1.5819 28.1856 1.58866 28.1758L1.96494 27.6505C1.97236 27.6412 1.97946 27.6318 1.98624 27.6221L2.42642 26.9334C2.42893 26.9263 2.4313 26.9192 2.43352 26.9121L2.9021 26.1098C2.90449 26.1075 2.90686 26.1051 2.9092 26.1027L3.36358 25.265C3.36597 25.2626 3.36834 25.2602 3.37068 25.2579L3.77537 24.5053C3.7778 24.5006 3.78017 24.4959 3.78247 24.4911L4.07356 23.8947C4.07845 23.8877 4.08318 23.8806 4.08776 23.8734L4.27235 23.4616C4.27783 23.4453 4.28256 23.4287 4.28655 23.4119L4.37174 23.1563C4.39313 23.0991 4.40496 23.0399 4.40724 22.9789V22.8724C4.407 22.7757 4.3831 22.6853 4.33555 22.6012C4.288 22.5171 4.22288 22.45 4.14021 22.4C4.05754 22.3499 3.96792 22.3234 3.87134 22.3203C3.77475 22.3171 3.6836 22.3379 3.59788 22.3825L3.56238 22.4038C3.48124 22.4463 3.41498 22.5054 3.36358 22.5813L3.29969 22.6736C3.29725 22.6783 3.29488 22.683 3.29259 22.6878L3.20029 22.8298C3.19528 22.8391 3.19055 22.8485 3.18609 22.8582L3.0583 23.0853L2.84531 23.4687C2.84294 23.4687 2.84057 23.4687 2.83821 23.4687L2.51162 24.0793L2.07144 24.8745C2.06628 24.8861 2.06155 24.898 2.05724 24.91L1.63836 25.8187C1.63596 25.8211 1.6336 25.8234 1.63126 25.8258L1.24787 26.6991C1.24235 26.713 1.23762 26.7272 1.23367 26.7417L0.999382 27.4659L0.750892 27.9628C0.68624 28.1227 0.731481 28.2404 0.886616 28.3157C1.04175 28.3911 1.16217 28.3539 1.24787 28.2042L1.48926 27.7144L1.94364 27.1038C1.94875 27.0945 1.95348 27.085 1.95784 27.0754L2.46192 26.266L2.9944 25.4141C2.99692 25.407 2.99928 25.3999 3.0015 25.3928L3.44878 24.5976L3.78247 23.9941C3.78483 23.9941 3.7872 23.9941 3.78957 23.9941L3.99546 23.6107L4.11615 23.4048L4.18005 23.3054L4.22975 23.2415C4.12521 23.2722 4.03765 23.329 3.96706 23.4119L4.00256 23.4048C4.0276 23.3092 4.02706 23.2137 4.00095 23.1183C3.97483 23.023 3.92664 22.9405 3.85636 22.871C3.78608 22.8014 3.70313 22.7541 3.6075 22.729C3.51187 22.7039 3.41637 22.7043 3.32099 22.7304L3.29969 22.8014L3.22159 23.0001L3.037 23.3977L2.76011 23.987L2.37673 24.7325L1.92944 25.5631L1.48216 26.3583L1.07038 27.0683C1.06548 27.0753 1.06074 27.0824 1.05618 27.0896L0.757992 27.6647C0.753074 27.6716 0.74834 27.6787 0.743793 27.686L0.5592 28.0906L0.459804 28.2965L0.431406 28.3604C0.376162 28.4485 0.358869 28.5435 0.379528 28.6455C0.400187 28.7474 0.453111 28.8281 0.538301 28.8878C0.623491 28.9474 0.717501 28.9695 0.820331 28.954C0.923161 28.9385 1.00651 28.8898 1.07038 28.8077Z" fill="black"/>
<path d="M5.61421 36.0708C5.61421 36.1747 5.65094 36.2634 5.72442 36.3368C5.79789 36.4103 5.88658 36.447 5.99049 36.447C6.0944 36.447 6.18309 36.4103 6.25656 36.3368C6.33004 36.2634 6.36678 36.1747 6.36678 36.0708C6.36678 35.9668 6.33004 35.8782 6.25656 35.8047C6.18309 35.7312 6.0944 35.6945 5.99049 35.6945C5.88658 35.6945 5.79789 35.7312 5.72442 35.8047C5.65094 35.8782 5.61421 35.9668 5.61421 36.0708ZM5.60001 36.0708C5.60001 36.1805 5.63882 36.2743 5.71646 36.3519C5.79409 36.4295 5.8878 36.4683 5.99759 36.4683C6.10738 36.4683 6.20109 36.4295 6.27872 36.3519C6.35636 36.2743 6.39517 36.1805 6.39517 36.0708C6.39517 35.961 6.35636 35.8673 6.27872 35.7896C6.20109 35.712 6.10738 35.6732 5.99759 35.6732C5.8878 35.6732 5.79409 35.712 5.71646 35.7896C5.63882 35.8673 5.60001 35.961 5.60001 36.0708ZM6.10409 36.5464L6.19638 36.5322C6.3096 36.5139 6.40899 36.4666 6.49457 36.3902L6.70046 36.2127C6.71798 36.1971 6.73455 36.1806 6.75016 36.163L7.06965 35.8152C7.07692 35.8082 7.08402 35.8011 7.09095 35.7939L7.55953 35.2259C7.57778 35.2034 7.59434 35.1797 7.60922 35.1549L8.0991 34.3526L8.64578 33.4581C8.64818 33.4557 8.65055 33.4534 8.65288 33.451L9.12856 32.6487L9.55454 32.0594C9.62394 31.9161 9.59399 31.798 9.46469 31.705C9.33539 31.6121 9.21388 31.6214 9.10016 31.7328L8.67418 32.315L8.04941 33.0037L7.34654 33.7562L6.67206 34.3952C6.65454 34.4108 6.63798 34.4274 6.62237 34.4449L6.16088 34.9987L5.8556 35.3395C5.84582 35.3486 5.83635 35.3581 5.8272 35.3679L5.6568 35.5809C5.58028 35.6765 5.53768 35.7853 5.52901 35.9075L5.52191 36.0069C5.50832 36.17 5.56154 36.3072 5.68159 36.4184C5.80164 36.5297 5.94247 36.5724 6.10409 36.5464Z" fill="black"/>
<path d="M24.4135 12.4447C24.4135 12.5447 24.4488 12.63 24.5195 12.7007C24.5902 12.7714 24.6756 12.8068 24.7756 12.8068C24.8756 12.8068 24.9609 12.7714 25.0316 12.7007C25.1023 12.63 25.1377 12.5447 25.1377 12.4447C25.1377 12.3447 25.1023 12.2594 25.0316 12.1887C24.9609 12.118 24.8756 12.0826 24.7756 12.0826C24.6756 12.0826 24.5902 12.118 24.5195 12.1887C24.4488 12.2594 24.4135 12.3447 24.4135 12.4447ZM24.2502 12.4376C24.2502 12.5768 24.2994 12.6956 24.3978 12.794C24.4963 12.8925 24.6151 12.9417 24.7543 12.9417C24.8935 12.9417 25.0123 12.8925 25.1107 12.794C25.2091 12.6956 25.2583 12.5768 25.2583 12.4376C25.2583 12.2984 25.2091 12.1796 25.1107 12.0812C25.0123 11.9827 24.8935 11.9335 24.7543 11.9335C24.6151 11.9335 24.4963 11.9827 24.3978 12.0812C24.2994 12.1796 24.2502 12.2984 24.2502 12.4376ZM25.2442 11.9548L25.1661 11.8625C25.1036 11.788 25.0302 11.7265 24.946 11.6779L24.7117 11.543C24.6398 11.5044 24.564 11.476 24.4845 11.4578L24.023 11.3371C23.9624 11.3216 23.9009 11.3122 23.8384 11.3087L23.1 11.2732C23.0234 11.271 22.9477 11.2781 22.8728 11.2945L21.9996 11.472C21.9161 11.489 21.838 11.5198 21.7653 11.5643L21.1618 11.9264L20.4802 11.9406C20.3099 11.9454 20.2272 12.033 20.2319 12.2033C20.2366 12.3736 20.3241 12.4564 20.4944 12.4518L21.1618 12.4376L21.7653 12.7997C21.8273 12.8381 21.8935 12.8665 21.9641 12.8849L22.8302 13.105C22.8677 13.1144 22.9055 13.1215 22.9438 13.1263L23.668 13.2186C23.6917 13.2194 23.7153 13.2194 23.739 13.2186L24.2147 13.247C24.2646 13.2487 24.3143 13.2463 24.3638 13.2399L24.6336 13.2115C24.7389 13.1999 24.8383 13.1691 24.9318 13.1192L25.0312 13.0624C25.2327 12.9522 25.3552 12.7843 25.3986 12.5588C25.442 12.3332 25.3905 12.1319 25.2442 11.9548Z" fill="black"/>
<path d="M23.7958 15.1638C23.7958 15.2638 23.8312 15.3492 23.9019 15.4199C23.9726 15.4906 24.0579 15.5259 24.1579 15.5259C24.2579 15.5259 24.3433 15.4906 24.414 15.4199C24.4847 15.3492 24.52 15.2638 24.52 15.1638C24.52 15.0638 24.4847 14.9785 24.414 14.9078C24.3433 14.8371 24.2579 14.8017 24.1579 14.8017C24.0579 14.8017 23.9726 14.8371 23.9019 14.9078C23.8312 14.9785 23.7958 15.0638 23.7958 15.1638ZM23.7745 15.1638C23.7745 15.2677 23.8113 15.3564 23.8848 15.4299C23.9582 15.5034 24.0469 15.5401 24.1508 15.5401C24.2547 15.5401 24.3434 15.5034 24.4169 15.4299C24.4904 15.3564 24.5271 15.2677 24.5271 15.1638C24.5271 15.0599 24.4904 14.9712 24.4169 14.8978C24.3434 14.8243 24.2547 14.7875 24.1508 14.7875C24.0469 14.7875 23.9582 14.8243 23.8848 14.8978C23.8113 14.9712 23.7745 15.0599 23.7745 15.1638ZM23.5403 15.1638C23.5403 15.3207 23.5957 15.4545 23.7066 15.5655C23.8175 15.6764 23.9514 15.7318 24.1082 15.7318C24.2651 15.7318 24.3989 15.6764 24.5099 15.5655C24.6208 15.4545 24.6762 15.3207 24.6762 15.1638C24.6762 15.007 24.6208 14.8731 24.5099 14.7622C24.3989 14.6513 24.2651 14.5959 24.1082 14.5959C23.9514 14.5959 23.8175 14.6513 23.7066 14.7622C23.5957 14.8731 23.5403 15.007 23.5403 15.1638ZM24.2289 14.4539L24.023 14.3758C23.9882 14.3638 23.9527 14.3543 23.9165 14.3474L23.6113 14.2835C23.5433 14.2696 23.4746 14.2649 23.4054 14.2693L23.0149 14.2835C22.801 14.2954 22.6306 14.3877 22.5037 14.5604V14.5675L22.2907 14.5036C22.125 14.4562 22.0186 14.5154 21.9712 14.6811C21.9239 14.8467 21.9831 14.9532 22.1487 15.0005L22.3759 15.0644L22.383 15.0857C22.4226 15.3046 22.5409 15.4655 22.738 15.5685L23.093 15.746C23.1669 15.7845 23.245 15.8106 23.3273 15.8241L23.6397 15.8738C23.6703 15.878 23.701 15.8804 23.7319 15.8809L23.952 15.888C24.1348 15.8958 24.2979 15.8431 24.4414 15.7297C24.5849 15.6163 24.674 15.4699 24.7087 15.2903C24.7433 15.1107 24.7152 14.9416 24.6242 14.783C24.5332 14.6243 24.4014 14.5146 24.2289 14.4539Z" fill="black"/>
<path d="M23.8739 14.6953H23.8668C23.8763 14.6956 23.8857 14.6956 23.8952 14.6953H23.8739C23.8948 14.7018 23.9161 14.7065 23.9378 14.7095L23.9023 14.7024C23.7946 14.6675 23.6902 14.6757 23.5892 14.7269C23.4882 14.7781 23.42 14.8575 23.3845 14.965C23.349 15.0726 23.3565 15.177 23.4072 15.2783C23.4578 15.3796 23.5368 15.4483 23.6442 15.4844C23.7515 15.5205 23.8559 15.5135 23.9575 15.4635C24.0591 15.4134 24.1283 15.3348 24.165 15.2277L24.1792 15.1922C24.1981 15.1342 24.2028 15.075 24.1934 15.0147V14.9934C24.193 15.0029 24.193 15.0124 24.1934 15.0218V15.0147C24.1778 14.8173 24.0714 14.7108 23.8739 14.6953ZM24.165 14.9153L24.1508 14.894C24.0881 14.7574 23.9863 14.6627 23.8455 14.6101L23.7674 14.5746C23.7328 14.5617 23.6973 14.5522 23.6609 14.5462L23.5402 14.5249C23.526 14.5243 23.5118 14.5243 23.4976 14.5249L23.3556 14.5107L23.2562 14.4965L23.1923 14.4752L23.0504 14.39C23.0255 14.3735 22.9995 14.3593 22.9723 14.3474L22.7522 14.2622C22.736 14.2542 22.7194 14.2471 22.7025 14.2409L22.4753 14.177C22.4123 14.1593 22.3484 14.1545 22.2836 14.1628L22.0706 14.1912C22.0261 14.1963 21.9835 14.2081 21.9428 14.2267L21.815 14.2835L21.7227 14.3048C21.6267 14.3244 21.5516 14.3751 21.4976 14.4569C21.4436 14.5387 21.4263 14.6276 21.4459 14.7236C21.4655 14.8197 21.5162 14.8947 21.598 14.9488C21.6797 15.0029 21.7686 15.0201 21.8647 15.0005L21.9144 14.9934L21.9783 15.0147L22.1629 15.0857L22.3333 15.1567L22.4824 15.2561L22.6599 15.3839C22.6622 15.3839 22.6646 15.3839 22.667 15.3839L22.8232 15.4904C22.8392 15.5007 22.8558 15.5102 22.8729 15.5188L23.0149 15.5969C23.0683 15.6272 23.1251 15.6485 23.1852 15.6608L23.3343 15.6821C23.3577 15.6883 23.3814 15.693 23.4053 15.6963L23.526 15.7034C23.609 15.7088 23.6895 15.697 23.7674 15.6679L23.8455 15.6324C24.0292 15.5634 24.1428 15.4332 24.1863 15.2419L24.1934 15.2206C24.218 15.1157 24.2085 15.0139 24.165 14.9153Z" fill="black"/>
<path d="M24.4393 2.21806C24.4393 2.42159 24.5411 2.52335 24.7446 2.52335C24.9482 2.52335 25.0499 2.42159 25.0499 2.21806C25.0499 2.01454 24.9482 1.91278 24.7446 1.91278C24.5411 1.91278 24.4393 2.01454 24.4393 2.21806ZM24.3541 2.23226C24.3541 2.33029 24.3888 2.41396 24.4581 2.48328C24.5274 2.55259 24.6111 2.58725 24.7091 2.58725C24.8072 2.58725 24.8908 2.55259 24.9601 2.48328C25.0295 2.41396 25.0641 2.33029 25.0641 2.23226C25.0641 2.13424 25.0295 2.05057 24.9601 1.98125C24.8908 1.91194 24.8072 1.87728 24.7091 1.87728C24.6111 1.87728 24.5274 1.91194 24.4581 1.98125C24.3888 2.05057 24.3541 2.13424 24.3541 2.23226ZM24.6168 1.77078L24.3754 1.75658C24.3152 1.75493 24.2561 1.76203 24.198 1.77788L23.7507 1.88438C23.7242 1.8899 23.6982 1.89699 23.6726 1.90568L23.0265 2.15417C22.9598 2.17772 22.8983 2.21085 22.8419 2.25356L22.1887 2.77894L21.5001 3.24042L20.8398 3.48891C20.6883 3.54571 20.641 3.64984 20.6978 3.8013C20.7546 3.95276 20.8587 4.00009 21.0102 3.94329L21.6776 3.6877L22.5011 3.55991L23.3389 3.47471C23.4105 3.46667 23.4792 3.44773 23.5448 3.41791L24.1767 3.14103C24.1911 3.13443 24.2053 3.12733 24.2193 3.11973L24.6239 2.90674C24.6735 2.87983 24.7185 2.8467 24.7588 2.80734L24.9363 2.63695C25.0944 2.48462 25.1355 2.30548 25.0595 2.09951C24.9835 1.89354 24.836 1.78397 24.6168 1.77078Z" fill="black"/>
<path d="M24.3896 7.75587C24.3896 7.84997 24.4229 7.93029 24.4894 7.99684C24.556 8.06338 24.6363 8.09665 24.7304 8.09665C24.8245 8.09665 24.9048 8.06338 24.9714 7.99684C25.0379 7.93029 25.0712 7.84997 25.0712 7.75587C25.0712 7.66176 25.0379 7.58144 24.9714 7.51489C24.9048 7.44835 24.8245 7.41508 24.7304 7.41508C24.6363 7.41508 24.556 7.44835 24.4894 7.51489C24.4229 7.58144 24.3896 7.66176 24.3896 7.75587ZM24.1411 7.74877C24.1411 7.89385 24.1924 8.01768 24.295 8.12026C24.3976 8.22285 24.5214 8.27414 24.6665 8.27414C24.8116 8.27414 24.9354 8.22285 25.038 8.12026C25.1406 8.01768 25.1919 7.89385 25.1919 7.74877C25.1919 7.60369 25.1406 7.47985 25.038 7.37727C24.9354 7.27468 24.8116 7.22339 24.6665 7.22339C24.5214 7.22339 24.3976 7.27468 24.295 7.37727C24.1924 7.47985 24.1411 7.60369 24.1411 7.74877ZM24.6736 7.0246L24.3612 6.9323C24.2798 6.91044 24.197 6.90097 24.1127 6.9039L23.6228 6.9181C23.5943 6.91907 23.5659 6.92144 23.5376 6.9252L22.8987 7.0104C22.8256 7.018 22.7546 7.03457 22.6857 7.06009L21.9686 7.35118C21.8869 7.38258 21.8136 7.42755 21.7485 7.48608L21.2586 7.94046L20.5771 8.06825C20.4447 8.11501 20.3907 8.2075 20.4151 8.34574C20.4395 8.48398 20.5219 8.55241 20.6623 8.55103L21.3438 8.42324L21.9686 8.67173C22.0439 8.70166 22.122 8.71822 22.2029 8.72143L22.9768 8.74983C23.029 8.75214 23.0811 8.74975 23.133 8.74273L23.7719 8.65753C23.7743 8.65754 23.7767 8.65754 23.779 8.65753L24.2547 8.58653C24.313 8.57827 24.3698 8.56407 24.4251 8.54393L24.7304 8.43034C25.0683 8.30729 25.2301 8.06608 25.2155 7.70672C25.201 7.34735 25.0204 7.11998 24.6736 7.0246Z" fill="black"/>
<path d="M3.03847 2.33168L3.04557 2.35298C3.12096 2.55867 3.26207 2.6254 3.4689 2.55317C3.67572 2.48094 3.74461 2.34087 3.67556 2.13297C3.6065 1.92506 3.46751 1.85403 3.25857 1.91989L3.23727 1.92699C3.15263 1.95392 3.09074 2.00723 3.05158 2.08695C3.01242 2.16666 3.00806 2.24824 3.03847 2.33168ZM2.97458 2.45947L3.05267 2.69376C3.09155 2.81142 3.15781 2.91081 3.25147 2.99195L3.68455 3.36823C3.74174 3.41912 3.80563 3.45935 3.87624 3.48893L4.65721 3.80842L5.50207 4.2344L6.20494 4.75978C6.32704 4.82398 6.42915 4.80066 6.51126 4.68981C6.59338 4.57896 6.58593 4.47448 6.48893 4.37639L5.79316 3.85101L5.18259 3.14104L4.70691 2.45947C4.66606 2.39696 4.61636 2.34253 4.55781 2.29618L4.09633 1.94829C3.98616 1.86846 3.8631 1.82586 3.72715 1.8205L3.47866 1.8063C3.39606 1.80086 3.31704 1.81517 3.2416 1.84921C3.16615 1.88326 3.10315 1.93304 3.05258 1.99857C3.00201 2.0641 2.96982 2.13767 2.95601 2.21928C2.94219 2.30089 2.94838 2.38095 2.97458 2.45947Z" fill="black"/>
<path d="M1.10731 8.16052V8.17472C1.10344 8.16023 1.09871 8.14603 1.09311 8.13212L1.10731 8.18892C1.14008 8.35959 1.23474 8.48265 1.3913 8.5581L1.73919 8.72849C1.79785 8.75673 1.85938 8.77566 1.92378 8.78529L2.64795 8.89889C2.72131 8.91129 2.79468 8.91129 2.86804 8.89889L3.8265 8.72849L4.82756 8.71429L5.69372 8.79949C5.85929 8.81358 5.94917 8.73785 5.96336 8.57229C5.97755 8.40673 5.90187 8.3168 5.73632 8.30251L4.87726 8.21731L3.9046 8.00432L3.01003 7.63514C2.95093 7.60957 2.88939 7.593 2.82544 7.58544L2.09417 7.50734C2.03501 7.49914 1.97584 7.49914 1.91668 7.50734L1.53329 7.57834C1.37538 7.60297 1.25468 7.68344 1.17121 7.81973L1.14281 7.87653C1.22645 7.84528 1.29035 7.79085 1.3345 7.71323L1.3274 7.72033C1.11293 7.79651 1.03956 7.94323 1.10731 8.16052Z" fill="black"/>
<path d="M0.397264 13.819C0.397313 13.9268 0.435462 14.0188 0.511701 14.095C0.58794 14.1712 0.679956 14.2093 0.787748 14.2093C0.89554 14.2093 0.987555 14.1712 1.06379 14.095C1.14003 14.0188 1.17818 13.9268 1.17823 13.819C1.17818 13.7112 1.14003 13.6192 1.06379 13.543C0.987555 13.4668 0.89554 13.4287 0.787748 13.4287C0.679956 13.4287 0.58794 13.4668 0.511701 13.543C0.435462 13.6192 0.397316 13.7112 0.397264 13.819ZM0.297868 13.8119C0.297939 13.9569 0.349262 14.0807 0.451838 14.1832C0.554415 14.2858 0.678217 14.337 0.823246 14.337C0.968275 14.337 1.09208 14.2858 1.19465 14.1832C1.29723 14.0807 1.34855 13.9569 1.34862 13.8119C1.34855 13.6669 1.29723 13.5431 1.19465 13.4406C1.09208 13.338 0.968275 13.2868 0.823246 13.2868C0.678217 13.2868 0.554414 13.338 0.451838 13.4406C0.349262 13.5431 0.297939 13.6669 0.297868 13.8119ZM0.993639 14.5574L1.34862 14.5503C1.42594 14.5486 1.50167 14.5367 1.57582 14.5148L2.24319 14.316C2.29732 14.2997 2.34938 14.2784 2.39938 14.2521L3.29394 13.7835C3.32622 13.767 3.35699 13.7481 3.38624 13.7267L4.23821 13.0877L5.22507 12.8179C5.39044 12.7704 5.44949 12.664 5.40223 12.4985C5.35496 12.3331 5.24857 12.2739 5.08307 12.321L4.10331 12.5907L3.03836 12.5055C2.99576 12.5015 2.95316 12.5015 2.91056 12.5055L1.9024 12.612C1.84442 12.6182 1.78762 12.63 1.73201 12.6475L1.06464 12.8605C1.0053 12.8781 0.948505 12.9018 0.894243 12.9315L0.588956 13.1161C0.437283 13.2051 0.32857 13.3311 0.262814 13.4942C0.197058 13.6573 0.187949 13.8235 0.235486 13.9928C0.283023 14.1621 0.377311 14.2993 0.51835 14.4043C0.659388 14.5093 0.817818 14.5603 0.993639 14.5574Z" fill="black"/>
<path d="M2.25745 18.6752C2.25745 18.7791 2.29418 18.8678 2.36766 18.9413C2.44113 19.0147 2.52982 19.0515 2.63373 19.0515C2.73764 19.0515 2.82633 19.0147 2.89981 18.9413C2.97328 18.8678 3.01002 18.7791 3.01002 18.6752C3.01002 18.5713 2.97328 18.4826 2.89981 18.4091C2.82633 18.3356 2.73764 18.2989 2.63373 18.2989C2.52982 18.2989 2.44113 18.3356 2.36766 18.4091C2.29418 18.4826 2.25745 18.5713 2.25745 18.6752ZM2.91772 19.229L3.22301 19.1154C3.29275 19.0904 3.35665 19.0549 3.4147 19.0089L5.45942 17.3475C5.58376 17.2556 5.60802 17.1423 5.53222 17.0075C5.45641 16.8727 5.34695 16.8346 5.20383 16.8932L2.74023 17.8516C2.68689 17.8736 2.63719 17.902 2.59113 17.9368L2.32844 18.1285C2.2045 18.2224 2.12591 18.3452 2.09266 18.4971C2.05942 18.649 2.07949 18.7935 2.15289 18.9305C2.22628 19.0676 2.33539 19.1644 2.48023 19.2209C2.62507 19.2774 2.7709 19.2801 2.91772 19.229Z" fill="black"/>
<path d="M10.4558 31.1372C10.4558 31.2411 10.4926 31.3298 10.566 31.4032C10.6395 31.4767 10.7282 31.5135 10.8321 31.5135C10.936 31.5135 11.0247 31.4767 11.0982 31.4032C11.1717 31.3298 11.2084 31.2411 11.2084 31.1372C11.2084 31.0333 11.1717 30.9446 11.0982 30.8711C11.0247 30.7976 10.936 30.7609 10.8321 30.7609C10.7282 30.7609 10.6395 30.7976 10.566 30.8711C10.4926 30.9446 10.4558 31.0333 10.4558 31.1372ZM10.257 31.1372C10.257 31.2921 10.3118 31.4243 10.4213 31.5338C10.5308 31.6433 10.663 31.698 10.8179 31.698C10.9728 31.698 11.105 31.6433 11.2145 31.5338C11.324 31.4243 11.3788 31.2921 11.3788 31.1372C11.3788 30.9823 11.324 30.8501 11.2145 30.7406C11.105 30.6311 10.9728 30.5763 10.8179 30.5763C10.663 30.5763 10.5308 30.6311 10.4213 30.7406C10.3118 30.8501 10.257 30.9823 10.257 31.1372ZM10.186 31.1372C10.186 31.3058 10.2456 31.4497 10.3649 31.5689C10.4841 31.6881 10.628 31.7477 10.7966 31.7477C10.9652 31.7477 11.1091 31.6881 11.2283 31.5689C11.3476 31.4497 11.4072 31.3058 11.4072 31.1372C11.4072 30.9686 11.3476 30.8246 11.2283 30.7054C11.1091 30.5862 10.9652 30.5266 10.7966 30.5266C10.628 30.5266 10.4841 30.5862 10.3649 30.7054C10.2456 30.8246 10.186 30.9686 10.186 31.1372ZM10.8037 30.4556L10.6972 30.4485C10.5024 30.433 10.3297 30.4874 10.1789 30.6118L9.92334 30.8248C9.88106 30.8609 9.8432 30.9011 9.80975 30.9455L9.38376 31.4993C9.37897 31.5039 9.37424 31.5087 9.36957 31.5135L8.74479 32.3796C8.73994 32.3866 8.7352 32.3937 8.73059 32.4009L8.00642 33.4659C7.99052 33.491 7.97632 33.517 7.96382 33.544L7.40295 34.6586L6.89887 35.5461L6.41609 36.1354C6.33361 36.2686 6.35274 36.3852 6.47349 36.4852C6.59424 36.5851 6.71237 36.5821 6.82787 36.4762L7.31775 35.8869L8.07742 35.184L9.02168 34.3675C9.04983 34.3436 9.07586 34.3176 9.09978 34.2894L9.92334 33.3026C9.93067 33.2933 9.93777 33.2838 9.94464 33.2742L10.5907 32.4222L11.0167 31.8684C11.0191 31.8661 11.0214 31.8637 11.0238 31.8613L11.2013 31.6199L11.2439 31.5703C11.4307 31.3652 11.4731 31.1337 11.3712 30.8757C11.2694 30.6177 11.0802 30.4777 10.8037 30.4556Z" fill="black"/>
<path d="M5.55697 22.1845L5.57826 22.1632C5.47579 22.1665 5.38822 22.2044 5.31558 22.2767H5.37947C5.46132 22.2727 5.53705 22.249 5.60666 22.2058L5.74156 22.1206C5.7778 22.0985 5.81093 22.0725 5.84095 22.0425L5.96875 21.9076C5.74603 21.8376 5.55434 21.8873 5.39367 22.0567L5.45047 22.0709C5.60355 22.0489 5.73296 21.9816 5.8387 21.8687C5.94443 21.7559 6.00326 21.6224 6.01519 21.4682C6.02711 21.314 5.98951 21.173 5.90239 21.0453C5.81526 20.9175 5.69776 20.831 5.54987 20.7858L5.49307 20.7929C5.26344 20.8277 5.08358 20.9413 4.95349 21.1337L4.6411 21.6023C4.63132 21.6139 4.62186 21.6257 4.6127 21.6378L4.05183 22.5749L3.25666 23.8955C3.24665 23.9117 3.23718 23.9283 3.22826 23.9452L2.45439 25.4716C2.42197 25.5323 2.3983 25.5962 2.3834 25.6633L2.08521 27.1046L1.48173 28.1553C1.40147 28.2972 1.43227 28.4084 1.57414 28.4888C1.716 28.5692 1.8272 28.5385 1.90772 28.3967L2.51119 27.3459L3.61875 26.3733C3.66442 26.3332 3.70466 26.2882 3.73944 26.2384L4.7121 24.8397C4.72452 24.8236 4.73635 24.807 4.7476 24.79L5.54277 23.4695C5.54518 23.4648 5.54754 23.4601 5.54987 23.4553L6.09654 22.5039C6.11554 22.4696 6.13211 22.4341 6.14624 22.3974L6.35213 21.8792C6.42022 21.7113 6.42981 21.5401 6.38092 21.3657C6.33202 21.1913 6.23487 21.05 6.08944 20.942L6.04685 20.9065C5.79927 20.716 5.54472 20.7062 5.28318 20.877C5.02164 21.0478 4.92831 21.2848 5.00319 21.5881L5.01739 21.6449C5.07839 21.5223 5.09259 21.3945 5.05999 21.2615L4.98189 21.4248C4.96384 21.4587 4.94964 21.4942 4.93929 21.5313L4.89669 21.6804C4.87178 21.7765 4.87651 21.8712 4.91089 21.9644L4.93219 22.0212C4.94016 21.9579 4.93306 21.8964 4.91089 21.8366V21.865C4.89104 22.043 4.9614 22.1717 5.12197 22.2511C5.28254 22.3305 5.42754 22.3083 5.55697 22.1845Z" fill="black"/>
<path d="M17.2349 29.9555C17.2349 30.159 17.3367 30.2608 17.5402 30.2608C17.7437 30.2608 17.8455 30.159 17.8455 29.9555C17.8455 29.752 17.7437 29.6502 17.5402 29.6502C17.3367 29.6502 17.2349 29.752 17.2349 29.9555ZM17.4905 30.3318L17.5686 30.346C17.5967 30.3515 17.6251 30.3538 17.6538 30.3531H17.81C17.8517 30.3498 17.8919 30.3404 17.9307 30.3247L18.1792 30.2395C18.2145 30.2273 18.2476 30.2107 18.2786 30.1898L18.6122 29.9555C18.6296 29.9448 18.6462 29.933 18.6619 29.92L19.1163 29.494C19.1396 29.4747 19.1609 29.4534 19.1802 29.4301L19.6701 28.7769C19.6834 28.7565 19.6953 28.7352 19.7056 28.713L20.1884 27.8398C20.1935 27.8281 20.1983 27.8163 20.2026 27.8043L20.6712 26.789C20.6762 26.7797 20.6809 26.7702 20.6854 26.7606L21.1042 25.6957C21.1093 25.6863 21.114 25.6769 21.1184 25.6673L21.4521 24.6378C21.4577 24.6215 21.4624 24.6049 21.4663 24.5881L21.6651 23.6581L21.8355 22.8984C21.8356 22.8936 21.8356 22.8889 21.8355 22.8842L21.9491 22.2736C21.9517 22.2666 21.954 22.2595 21.9562 22.2523L22.013 21.7908C22.0159 21.7791 22.0183 21.7673 22.0201 21.7553L22.0272 21.45C22.0274 21.4429 22.0274 21.4358 22.0272 21.4287V21.2654C22.0262 21.1997 22.0096 21.1382 21.9775 21.0809L21.9562 21.0525C21.8866 20.9316 21.7821 20.8688 21.6426 20.8641C21.5032 20.8595 21.3947 20.9152 21.3172 21.0312L21.2817 21.0809C21.2633 21.1097 21.2491 21.1405 21.2391 21.1732L21.2036 21.2654L21.161 21.379L21.1042 21.521L21.0119 21.7198C21.0005 21.7427 20.991 21.7664 20.9835 21.7908L20.8913 22.16C20.8857 22.1763 20.8809 22.1929 20.8771 22.2097L20.7919 22.7777C20.7891 22.7894 20.7867 22.8013 20.7848 22.8132L20.7209 23.5658L20.5221 24.4816C20.5196 24.4863 20.5172 24.491 20.515 24.4958L20.3659 25.3691L20.1387 26.0578C20.0866 26.2234 20.1434 26.3323 20.3091 26.3843C20.4747 26.4364 20.5836 26.3796 20.6357 26.2139L20.8558 25.5253L21.2107 24.7088C21.2161 24.6972 21.2208 24.6854 21.2249 24.6733L21.516 23.7574L21.7716 23.0191C21.7784 22.9934 21.7831 22.9674 21.7858 22.941L21.8852 22.373C21.89 22.3448 21.8923 22.3164 21.8923 22.2878V21.9115C21.8928 21.8997 21.8928 21.8879 21.8923 21.876L21.8781 21.6914L21.8923 21.5991L21.9136 21.5068L21.9491 21.4074C21.9244 21.4399 21.9055 21.4754 21.8923 21.5139L21.9278 21.4642C21.9501 21.2736 21.8721 21.1426 21.6938 21.0713C21.5156 21 21.3687 21.041 21.2533 21.1945V21.2229C21.2533 21.2252 21.2533 21.2276 21.2533 21.23L21.232 21.3861L21.1894 21.6772L21.1184 22.1245L21.0048 22.7067L20.799 23.4238L20.4653 24.2899L20.089 25.3052L19.6843 26.3559L19.2441 27.3499L18.7897 28.1948L18.378 28.8479L18.0443 29.2881L17.7958 29.4869L17.6538 29.5721L17.5899 29.5863H17.5544C17.3293 29.5913 17.2071 29.706 17.1879 29.9304C17.1686 30.1547 17.2695 30.2885 17.4905 30.3318Z" fill="black"/>
<path d="M17.2206 29.6146H17.2135C17.0577 29.7472 17.029 29.9031 17.1275 30.0824C17.226 30.2617 17.373 30.3211 17.5685 30.2607L17.5827 30.2536C17.5703 30.2624 17.5584 30.2719 17.5472 30.282L17.5756 30.2607C17.5933 30.2479 17.6099 30.2337 17.6253 30.2181L17.675 30.1684C17.8112 30.029 17.8301 29.8752 17.7317 29.7069L17.7105 29.6785C17.6385 29.7708 17.6314 29.8679 17.6892 29.9696L17.7672 29.8702C17.8758 29.733 17.8615 29.6101 17.7244 29.5013C17.5874 29.3926 17.4644 29.4067 17.3555 29.5437L17.2774 29.643C17.4048 29.7025 17.5113 29.6765 17.5969 29.565L17.5614 29.5508C17.4005 29.4737 17.2561 29.4973 17.1283 29.6217L17.0999 29.6572L17.0857 29.6643C16.9965 29.7325 16.9468 29.8224 16.9366 29.9341V29.9483C16.918 30.0513 16.9385 30.1457 16.9981 30.2317C17.0577 30.3176 17.1389 30.3699 17.2419 30.3885C17.3448 30.4071 17.4392 30.3866 17.5252 30.327C17.6111 30.2674 17.6634 30.1862 17.6821 30.0832V30.0761C17.72 29.9359 17.6876 29.8145 17.5849 29.7118C17.4822 29.6091 17.3608 29.5767 17.2206 29.6146Z" fill="black"/>
<path d="M22.2827 20.4987V20.4845C22.2745 20.4672 22.2651 20.4506 22.2543 20.4348L22.2401 20.4135C22.1808 20.3272 22.0999 20.2735 21.9973 20.2524C21.8948 20.2312 21.7992 20.2485 21.7106 20.3042C21.622 20.3599 21.565 20.4385 21.5396 20.5401C21.5142 20.6416 21.5275 20.7378 21.5795 20.8287C21.6315 20.9196 21.7077 20.9798 21.8081 21.0094C21.9085 21.0389 22.0052 21.0296 22.0981 20.9814L22.1194 20.9672C22.0846 20.9743 22.0514 20.9861 22.02 21.0027H22.0342C22.1462 20.9772 22.2276 20.9129 22.2784 20.8098C22.3292 20.7068 22.3306 20.6031 22.2827 20.4987ZM21.4379 20.6052C21.4379 20.7267 21.4808 20.8305 21.5668 20.9164C21.6527 21.0024 21.7565 21.0453 21.878 21.0453C21.9996 21.0453 22.1033 21.0024 22.1893 20.9164C22.2752 20.8305 22.3182 20.7267 22.3182 20.6052C22.3182 20.4836 22.2752 20.3799 22.1893 20.2939C22.1033 20.208 21.9996 20.165 21.878 20.165C21.7565 20.165 21.6527 20.208 21.5668 20.2939C21.4808 20.3799 21.4379 20.4836 21.4379 20.6052ZM21.3598 20.5839C21.3598 20.7191 21.4076 20.8346 21.5032 20.9303C21.5989 21.0259 21.7144 21.0737 21.8496 21.0737C21.9849 21.0737 22.1004 21.0259 22.196 20.9303C22.2917 20.8346 22.3395 20.7191 22.3395 20.5839C22.3395 20.4486 22.2917 20.3331 22.196 20.2375C22.1004 20.1418 21.9849 20.094 21.8496 20.094C21.7144 20.094 21.5989 20.1418 21.5032 20.2375C21.4076 20.3331 21.3598 20.4486 21.3598 20.5839ZM21.3314 20.5768V20.6052C21.3338 20.6662 21.3456 20.7254 21.3669 20.7826L21.4166 20.9104C21.4331 20.9554 21.4544 20.998 21.4804 21.0382L21.6295 21.2725L21.8851 21.6843L22.2614 22.3659L22.7584 23.3172C22.7607 23.3196 22.7631 23.322 22.7655 23.3243L23.3548 24.4177C23.3594 24.4249 23.3641 24.432 23.369 24.439L24.0221 25.5466C24.0291 25.5538 24.0362 25.5609 24.0434 25.5679L24.7179 26.6115C24.7354 26.6341 24.7544 26.6554 24.7747 26.6754L25.4989 27.5274C25.4989 27.5297 25.4989 27.5321 25.4989 27.5345L26.1379 28.2515L26.5567 28.8479L26.8123 29.2952C26.8881 29.4277 26.9922 29.4561 27.1247 29.3804C27.2572 29.3047 27.2856 29.2005 27.2099 29.068L26.9543 28.6207L26.6277 27.9605L26.2941 27.0588C26.2918 27.054 26.2894 27.0493 26.287 27.0446L25.8681 26.008C25.8577 25.9836 25.8459 25.96 25.8326 25.937L25.2291 24.865L24.6398 23.7361L24.0789 22.6357C24.079 22.6333 24.079 22.6309 24.0789 22.6286L23.5891 21.6701C23.5824 21.6557 23.5753 21.6415 23.5678 21.6275L23.156 20.9388C23.1367 20.9089 23.1154 20.8805 23.0921 20.8536L22.7726 20.4561C22.7316 20.4044 22.6843 20.3595 22.6306 20.3212L22.3892 20.1508C22.32 20.1028 22.2442 20.0697 22.162 20.0514L22.0342 20.023C21.8194 19.9752 21.6372 20.032 21.4875 20.1934L21.4733 20.2076C21.3752 20.3111 21.3279 20.4342 21.3314 20.5768Z" fill="black"/>
<path d="M17.6396 29.6218C17.6396 29.7237 17.6756 29.8108 17.7477 29.8828C17.8198 29.9549 17.9068 29.991 18.0088 29.991C18.1107 29.991 18.1977 29.9549 18.2698 29.8828C18.3419 29.8108 18.378 29.7237 18.378 29.6218C18.378 29.5198 18.3419 29.4328 18.2698 29.3607C18.1977 29.2886 18.1107 29.2526 18.0088 29.2526C17.9068 29.2526 17.8198 29.2886 17.7477 29.3607C17.6756 29.4328 17.6396 29.5198 17.6396 29.6218ZM17.6893 29.4159L17.6822 29.4301C17.6286 29.5127 17.6097 29.6027 17.6254 29.6999L17.6325 29.7425C17.6418 29.7003 17.6442 29.6577 17.6396 29.6147L17.6325 29.6218L17.6254 29.636C17.5619 29.7737 17.55 29.9157 17.5899 30.062L17.6751 30.3673C17.6989 30.4543 17.7367 30.5348 17.7887 30.6086L18.1295 31.0985C18.1489 31.1283 18.1702 31.1567 18.1934 31.1837L18.7826 31.8298C18.7963 31.8445 18.8105 31.8587 18.8252 31.8724L19.5849 32.5824C19.6223 32.6168 19.6625 32.6476 19.7056 32.6747L20.6002 33.2568C20.6553 33.2936 20.7145 33.322 20.7777 33.342L21.6509 33.6047L22.3112 33.8887L22.7727 34.1443C22.9183 34.1979 23.0283 34.1565 23.1026 34.0203C23.1769 33.884 23.1521 33.7692 23.0283 33.6757L22.5881 33.4272L22.0769 32.9729L21.5515 32.2487C21.5339 32.2262 21.515 32.2049 21.4947 32.1848L20.7564 31.4038C20.747 31.3965 20.7376 31.3894 20.728 31.3825L19.9967 30.6725L19.4216 30.0549C19.4101 30.0427 19.3983 30.0308 19.3861 30.0194L18.953 29.6076C18.8921 29.549 18.8235 29.5017 18.7471 29.4656L18.4561 29.3307C18.3329 29.275 18.2051 29.2608 18.0727 29.2881L17.9946 29.3023C18.0603 29.3191 18.1266 29.3214 18.1934 29.3094L18.1224 29.2881C18.1752 29.3446 18.2391 29.3825 18.3141 29.4017L18.2857 29.3662C18.3 29.3893 18.3165 29.4106 18.3354 29.4301L18.3283 29.4159C18.2546 29.2976 18.1481 29.2384 18.0088 29.2384C17.8694 29.2384 17.7629 29.2976 17.6893 29.4159Z" fill="black"/>
<path d="M17.1211 16.3224C17.1211 16.526 17.2229 16.6277 17.4264 16.6277C17.63 16.6277 17.7317 16.526 17.7317 16.3224C17.7317 16.1189 17.63 16.0171 17.4264 16.0171C17.2229 16.0171 17.1211 16.1189 17.1211 16.3224ZM17.0501 16.2869L17.0288 16.4076C17.0252 16.4264 17.0228 16.4453 17.0217 16.4644L17.0146 16.7697C17.0161 16.7864 17.0185 16.803 17.0217 16.8194L17.0572 17.3235C17.0594 17.3306 17.0618 17.3377 17.0643 17.3448L17.1353 17.9909C17.1372 18.0028 17.1396 18.0146 17.1424 18.0264L17.2773 18.7079L17.398 19.3682C17.4036 19.3877 17.4107 19.4066 17.4193 19.425L17.5826 19.8936L17.6252 20.2557C17.6442 20.4308 17.7412 20.5089 17.9163 20.49C18.0914 20.471 18.1695 20.374 18.1506 20.1989L18.1151 19.8297L18.1506 19.3256C18.152 19.3067 18.152 19.2877 18.1506 19.2688L18.108 18.6014L18.0583 17.9057C18.0586 17.8962 18.0586 17.8867 18.0583 17.8773L17.9731 17.2312L17.9163 16.7342C17.9146 16.7199 17.9123 16.7057 17.9092 16.6916L17.8453 16.3934C17.8433 16.3839 17.8409 16.3744 17.8382 16.365L17.8027 16.2443C17.7398 16.0554 17.609 15.9665 17.4101 15.9778C17.2113 15.989 17.0913 16.0921 17.0501 16.2869Z" fill="black"/>
<path d="M17.0999 22.3785L17.1141 22.3288C17.1165 22.3264 17.1189 22.3241 17.1212 22.3217L17.1425 22.2365L17.2135 22.0945L17.3484 21.8247L17.5614 21.4484C17.5663 21.4414 17.571 21.4343 17.5756 21.4271L17.8525 20.8733C17.8548 20.8733 17.8572 20.8733 17.8596 20.8733L18.2004 20.1918L18.5909 19.4605L18.9813 18.7292C18.9862 18.7222 18.9909 18.7151 18.9955 18.7079L19.3008 18.0689L19.5493 17.5791L19.7339 17.2596L19.883 17.0892C19.9633 16.9933 19.9893 16.8844 19.9611 16.7626L19.954 16.72C19.872 16.7207 19.805 16.7528 19.753 16.8163C19.7011 16.8798 19.6829 16.9518 19.6984 17.0324H19.7481C19.9232 17.0324 20.0108 16.9448 20.0108 16.7697C20.0108 16.5946 19.9232 16.507 19.7481 16.507H19.6984C19.7429 16.5392 19.7926 16.5557 19.8475 16.5567L19.8049 16.5283C19.6392 16.4153 19.4831 16.4271 19.3363 16.5638L19.1446 16.7413L18.8393 17.0182C18.827 17.0271 18.8152 17.0365 18.8038 17.0466L18.4205 17.4655C18.413 17.4747 18.4059 17.4842 18.3992 17.4939L17.9519 18.0476C17.9364 18.0681 17.9222 18.0894 17.9093 18.1115L17.4762 18.8144C17.4687 18.826 17.4616 18.8379 17.4549 18.8499L17.0573 19.5883C17.0524 19.5953 17.0477 19.6024 17.0431 19.6096L16.7094 20.3054C16.7018 20.3193 16.6947 20.3335 16.6881 20.348L16.4609 20.923C16.4483 20.9577 16.4388 20.9932 16.4325 21.0295L16.3402 21.4555C16.332 21.4905 16.3273 21.526 16.326 21.562V21.8744C16.3254 21.9054 16.3277 21.9362 16.3331 21.9667L16.3686 22.1442V22.2294C16.3713 22.2635 16.3784 22.2966 16.3899 22.3288L16.4041 22.3785C16.4623 22.5422 16.5783 22.6241 16.752 22.6241C16.9258 22.6241 17.0417 22.5422 17.0999 22.3785Z" fill="black"/>
<path d="M17.9873 19.7089L18.0157 19.6876C18.0766 19.6464 18.1216 19.592 18.1506 19.5243L18.1932 19.4249L18.3281 19.2475L18.5553 18.9422C18.5602 18.9352 18.5649 18.9281 18.5695 18.9209L18.8322 18.5375L19.1162 18.1541L19.4357 17.792L19.7622 17.4867L20.0604 17.2666L20.2095 17.1743L20.3089 17.1672C20.2098 17.0717 20.0915 17.0267 19.9539 17.0323L20.032 17.1104L20.103 17.2524L20.174 17.4725L20.1385 17.7352C20.115 17.9055 20.1884 18.0024 20.3586 18.0261C20.5289 18.0497 20.6259 17.9764 20.6497 17.8062L20.6852 17.5222L20.8059 17.2666C20.8199 17.2348 20.8293 17.2017 20.8343 17.1672L20.8769 16.8974C20.8932 16.7748 20.8648 16.6636 20.7917 16.5638L20.6852 16.4076C20.5869 16.2671 20.452 16.1984 20.2805 16.2017L20.0533 16.2088C20.0025 16.208 19.9528 16.2151 19.9042 16.2301L19.5918 16.3366C19.5673 16.3466 19.5436 16.3584 19.5208 16.3721L19.1446 16.5638C19.1092 16.5816 19.076 16.6029 19.0452 16.6277L18.6618 16.94C18.6415 16.9577 18.6226 16.9766 18.605 16.9968L18.2358 17.3873C18.2204 17.4054 18.2062 17.4243 18.1932 17.4441L17.8879 17.863C17.8661 17.892 17.8471 17.9227 17.8311 17.9553L17.6323 18.3813C17.6177 18.411 17.6058 18.4417 17.5968 18.4736L17.4974 18.8428C17.4901 18.8707 17.4853 18.8991 17.4832 18.928L17.4619 19.1623L17.4335 19.283C17.4037 19.3997 17.425 19.5062 17.4974 19.6024L17.5187 19.6237C17.6483 19.7988 17.8045 19.8272 17.9873 19.7089Z" fill="black"/>
<path d="M19.9398 17.5436L19.954 17.5507C20.1369 17.6735 20.3011 17.6522 20.4465 17.4866C20.5919 17.3211 20.5919 17.1555 20.4465 16.99C20.3011 16.8244 20.1369 16.8031 19.954 16.9259L19.9398 16.933C19.8282 17.0042 19.7724 17.1059 19.7724 17.2383C19.7724 17.3707 19.8282 17.4724 19.9398 17.5436ZM19.7481 17.2525C19.7481 17.3819 19.7938 17.4923 19.8853 17.5838C19.9768 17.6753 20.0873 17.7211 20.2167 17.7211C20.3461 17.7211 20.4565 17.6753 20.548 17.5838C20.6395 17.4923 20.6852 17.3819 20.6852 17.2525C20.6852 17.1231 20.6395 17.0127 20.548 16.9212C20.4565 16.8297 20.3461 16.7839 20.2167 16.7839C20.0873 16.7839 19.9768 16.8297 19.8853 16.9212C19.7938 17.0127 19.7481 17.1231 19.7481 17.2525ZM19.6913 17.4016L19.7197 17.5649C19.7263 17.6158 19.7382 17.6655 19.7552 17.714L19.8404 17.9554L19.9327 18.3601C19.9453 18.4167 19.9642 18.4711 19.9895 18.5233L20.2167 18.9848L20.3729 19.5386L20.4723 20.0569L20.4581 20.4829C20.4534 20.6579 20.5386 20.7477 20.7137 20.7525C20.8887 20.7572 20.9786 20.6721 20.9834 20.4971L20.9905 20.064L21.097 19.5315L21.2461 18.9351L21.3952 18.4098C21.4299 18.2955 21.437 18.1795 21.4165 18.0619L21.3313 17.6004C21.3145 17.5067 21.2814 17.4191 21.2319 17.3377L21.0686 17.075C20.9734 16.9183 20.8385 16.8118 20.6639 16.7555L20.5078 16.7058C20.4038 16.6727 20.2983 16.667 20.1914 16.6885C20.0844 16.7101 19.9894 16.7563 19.9063 16.827C19.8233 16.8978 19.7627 16.9843 19.7244 17.0865C19.6862 17.1886 19.6751 17.2937 19.6913 17.4016Z" fill="black"/>
<path d="M20.6284 19.1623L20.6071 19.1836C20.6252 19.1685 20.6418 19.152 20.6568 19.1339L20.5858 19.1978C20.5415 19.2358 20.506 19.2807 20.4793 19.3327L20.3728 19.5456C20.3594 19.5661 20.3476 19.5874 20.3373 19.6095L20.2166 19.9858C20.2116 19.9951 20.2069 20.0046 20.2024 20.0142L20.0604 20.5396L19.9113 21.1076L19.7197 21.6543C19.7172 21.6589 19.7148 21.6637 19.7126 21.6685L19.5564 22.1725C19.5454 22.2024 19.5383 22.2332 19.5351 22.2648L19.5209 22.6269L19.4428 22.8683C19.3909 23.0339 19.4477 23.1427 19.6132 23.1947C19.7787 23.2467 19.8876 23.19 19.9397 23.0245L20.0107 22.7902L20.2166 22.4991C20.2305 22.479 20.2424 22.4577 20.2521 22.4352L20.4651 21.9453C20.4651 21.943 20.4651 21.9406 20.4651 21.9382L20.6852 21.3916L20.9408 20.8591C20.9433 20.8544 20.9456 20.8497 20.9479 20.8449L21.1609 20.3479C21.1665 20.3316 21.1712 20.315 21.1751 20.2982L21.2887 19.9148C21.3002 19.8778 21.3073 19.8399 21.31 19.8012L21.3242 19.5598C21.3279 19.4963 21.3184 19.4348 21.2958 19.3753L21.2603 19.2901C21.2655 19.312 21.2726 19.3333 21.2816 19.354L21.2745 19.3256C21.244 19.1733 21.1535 19.0782 21.003 19.0401C20.8524 19.0021 20.7276 19.0428 20.6284 19.1623Z" fill="black"/>
<path d="M19.7126 17.8063C19.7126 17.9063 19.748 17.9916 19.8187 18.0623C19.8894 18.133 19.9747 18.1684 20.0747 18.1684C20.1747 18.1684 20.26 18.133 20.3307 18.0623C20.4014 17.9916 20.4368 17.9063 20.4368 17.8063C20.4368 17.7063 20.4014 17.6209 20.3307 17.5502C20.26 17.4795 20.1747 17.4442 20.0747 17.4442C19.9747 17.4442 19.8894 17.4795 19.8187 17.5502C19.748 17.6209 19.7126 17.7063 19.7126 17.8063ZM19.6913 17.8063C19.6913 17.9102 19.7281 17.9989 19.8015 18.0723C19.875 18.1458 19.9637 18.1826 20.0676 18.1826C20.1715 18.1826 20.2602 18.1458 20.3337 18.0723C20.4072 17.9989 20.4439 17.9102 20.4439 17.8063C20.4439 17.7024 20.4072 17.6137 20.3337 17.5402C20.2602 17.4667 20.1715 17.43 20.0676 17.43C19.9637 17.43 19.875 17.4667 19.8015 17.5402C19.7281 17.6137 19.6913 17.7024 19.6913 17.8063ZM19.8972 17.4087L19.8049 17.4442C19.6961 17.4835 19.6109 17.5521 19.5493 17.6501L19.4144 17.8702C19.4011 17.8906 19.3892 17.9119 19.3789 17.9341L19.2085 18.3245C19.1887 18.3653 19.1745 18.4079 19.1659 18.4523L19.0807 18.9848C19.0804 18.9943 19.0804 19.0038 19.0807 19.0132L19.031 19.5457L18.9033 19.993C18.8559 20.1634 18.9175 20.2722 19.0878 20.3196C19.2582 20.3669 19.3671 20.3054 19.4144 20.135L19.5351 19.7019L19.8049 19.2546L20.096 18.8073C20.1094 18.7869 20.1212 18.7656 20.1315 18.7434L20.309 18.3671L20.4226 18.14C20.451 18.0816 20.4676 18.0201 20.4723 17.9554L20.4865 17.856C20.4922 17.7814 20.4797 17.71 20.449 17.6419C20.4184 17.5737 20.3733 17.517 20.3137 17.4718C20.2542 17.4266 20.1874 17.3984 20.1135 17.3872C20.0396 17.376 19.9675 17.3831 19.8972 17.4087Z" fill="black"/>
<path d="M19.1375 19.574L19.1162 19.6237C19.0971 19.6716 19.0876 19.7213 19.0878 19.7728L19.0949 19.9077C19.096 19.9268 19.0983 19.9458 19.102 19.9645L19.1304 20.1704C19.1362 20.2023 19.1457 20.2331 19.1588 20.2627L19.244 20.4828C19.2542 20.5028 19.2661 20.5217 19.2795 20.5396L19.3931 20.7242C19.4643 20.8357 19.5661 20.8925 19.6984 20.8946H19.7552L19.812 20.9301C19.9402 20.9999 20.0452 20.9744 20.1272 20.8536C20.2091 20.7329 20.194 20.6258 20.0818 20.5325L20.0747 20.5254V20.5183C20.0738 20.4715 20.0643 20.4266 20.0463 20.3834L19.9753 20.213L19.9327 20.0284L19.8972 19.8296C19.8972 19.8273 19.8972 19.8249 19.8972 19.8225L19.8688 19.6876C19.8579 19.6335 19.8366 19.5838 19.8049 19.5385L19.7765 19.4959C19.6912 19.3799 19.5771 19.3306 19.4342 19.348C19.2912 19.3655 19.1923 19.4408 19.1375 19.574Z" fill="black"/>
<path d="M14.3679 25.4436C14.368 25.5397 14.4019 25.6216 14.4699 25.6895C14.5378 25.7574 14.6198 25.7914 14.7158 25.7914C14.8119 25.7914 14.8938 25.7574 14.9618 25.6895C15.0297 25.6216 15.0637 25.5397 15.0637 25.4436C15.0637 25.3476 15.0297 25.2656 14.9618 25.1977C14.8938 25.1298 14.8119 25.0959 14.7158 25.0959C14.6198 25.0959 14.5378 25.1298 14.4699 25.1977C14.4019 25.2656 14.368 25.3476 14.3679 25.4436ZM14.3324 25.4436C14.3324 25.5475 14.3692 25.6362 14.4426 25.7097C14.5161 25.7832 14.6048 25.8199 14.7087 25.8199C14.8126 25.8199 14.9013 25.7832 14.9748 25.7097C15.0483 25.6362 15.085 25.5475 15.085 25.4436C15.085 25.3397 15.0483 25.251 14.9748 25.1776C14.9013 25.1041 14.8126 25.0673 14.7087 25.0673C14.6048 25.0673 14.5161 25.1041 14.4426 25.1776C14.3692 25.251 14.3324 25.3397 14.3324 25.4436ZM14.2685 25.4507C14.2685 25.5644 14.3087 25.6615 14.3891 25.7419C14.4696 25.8223 14.5666 25.8625 14.6803 25.8625C14.794 25.8625 14.8911 25.8223 14.9715 25.7419C15.0519 25.6615 15.0921 25.5644 15.0921 25.4507C15.0921 25.337 15.0519 25.24 14.9715 25.1596C14.8911 25.0791 14.794 25.0389 14.6803 25.0389C14.5666 25.0389 14.4696 25.0791 14.3891 25.1596C14.3087 25.24 14.2685 25.337 14.2685 25.4507ZM14.3537 25.1028L14.2472 25.1738C14.1571 25.2376 14.0909 25.3204 14.0484 25.4223L13.942 25.6566C13.9058 25.738 13.8869 25.8232 13.8852 25.9122V26.3169C13.8839 26.3794 13.891 26.4409 13.9065 26.5015L14.0484 27.0269C14.0603 27.0735 14.0769 27.1185 14.0981 27.1618L14.3963 27.7297C14.4279 27.7926 14.4682 27.8494 14.517 27.9001L14.9927 28.3829C15.0479 28.4402 15.1118 28.4852 15.1844 28.5178L15.7808 28.7805C15.7855 28.783 15.7902 28.7853 15.795 28.7876L16.3275 29.0006L16.7321 29.2278C16.8883 29.3129 17.009 29.2773 17.0941 29.1212C17.1793 28.9651 17.1438 28.8444 16.9877 28.7592L16.6114 28.5533L16.2778 28.177L15.9725 27.6445C15.9702 27.6398 15.9678 27.635 15.9654 27.6303L15.6246 27.0695L15.3761 26.5796L15.2483 26.1678L15.1986 25.8199C15.1964 25.8104 15.1941 25.8009 15.1915 25.7915L15.1418 25.5359C15.1396 25.5288 15.1372 25.5217 15.1347 25.5146L15.0992 25.3868C15.0807 25.3092 15.0451 25.2404 14.9924 25.1804C14.9397 25.1205 14.8761 25.0763 14.8015 25.0479C14.7269 25.0195 14.65 25.0101 14.5708 25.0198C14.4916 25.0296 14.4192 25.0572 14.3537 25.1028Z" fill="black"/>
<path d="M15.6957 28.0705L15.7028 28.1131L15.6886 28.2125C15.6762 28.3552 15.7141 28.483 15.8022 28.5959L15.9654 28.8089C16.0186 28.8741 16.0825 28.9262 16.1571 28.9651L16.4624 29.1355C16.5508 29.1844 16.6454 29.2105 16.7464 29.2136L17.1511 29.2207C17.2798 29.2217 17.3957 29.1838 17.499 29.1071L17.8469 28.8515C17.8517 28.8492 17.8564 28.8468 17.8611 28.8444L18.2019 28.5746L18.5355 28.39C18.6599 28.2981 18.6842 28.1847 18.6083 28.05C18.5325 27.9152 18.4231 27.8771 18.28 27.9356L17.9747 28.106L17.6339 28.1628L17.2931 28.0847L16.9736 27.9995L16.7038 27.8788L16.4695 27.7652C16.4064 27.736 16.3402 27.7194 16.2707 27.7155L16.1429 27.7084C16.1999 27.7422 16.2614 27.7611 16.3275 27.7652L16.2707 27.7297C16.1413 27.6488 16.0108 27.6473 15.8795 27.7251C15.7481 27.8029 15.6869 27.9181 15.6957 28.0705Z" fill="black"/>
<path d="M14.6216 3.87204C14.6216 4.0661 14.7187 4.16313 14.9127 4.16313C15.1068 4.16313 15.2038 4.0661 15.2038 3.87204C15.2038 3.67798 15.1068 3.58095 14.9127 3.58095C14.7187 3.58095 14.6216 3.67798 14.6216 3.87204ZM15.2322 3.86494V3.83654C15.2231 3.86664 15.2184 3.8974 15.218 3.92884L15.2251 3.90754L15.2606 3.83654L15.3884 3.64485L15.5801 3.33956L15.8428 2.96328L16.1126 2.58699L16.3327 2.27461C16.3377 2.2677 16.3424 2.2606 16.3469 2.25331L16.4534 2.06161L16.5599 1.97642C16.6829 1.87229 16.6924 1.75869 16.5883 1.63563C16.4841 1.51257 16.3705 1.5031 16.2475 1.60723L16.1339 1.70663L15.9209 1.82732C15.9003 1.83936 15.8814 1.85356 15.8641 1.86992L15.5872 2.13261C15.577 2.14382 15.5675 2.15566 15.5588 2.16811L15.2677 2.5302C15.2652 2.53488 15.2629 2.53961 15.2606 2.54439L14.9908 2.92068C14.9883 2.92536 14.986 2.93009 14.9837 2.93488L14.7707 3.24017C14.7656 3.24943 14.7609 3.2589 14.7565 3.26856L14.6429 3.47446C14.6285 3.49682 14.6167 3.52048 14.6074 3.54545L14.5719 3.66615C14.5601 3.70554 14.5553 3.74577 14.5577 3.78684L14.5648 3.85074C14.5683 3.90131 14.5825 3.94864 14.6074 3.99274L14.6216 4.02113C14.7038 4.16583 14.8254 4.21756 14.9866 4.17633C15.1478 4.13509 15.2297 4.0313 15.2322 3.86494Z" fill="black"/>
<path d="M15.8286 3.58097V3.56677C15.8388 3.527 15.8411 3.48676 15.8357 3.44608V3.42478L15.857 3.33958C15.8651 3.30933 15.8698 3.27856 15.8712 3.24728L15.8783 3.11239L15.8996 2.9704L15.9706 2.7787L16.1055 2.56571L16.2901 2.36692L16.3682 2.28882H16.3753L16.4676 2.35982C16.5852 2.42327 16.686 2.40301 16.77 2.29904C16.854 2.19508 16.8526 2.09228 16.7658 1.99064L16.5954 1.84864L16.4392 1.70665C16.3843 1.65804 16.3204 1.62965 16.2475 1.62145L16.0132 1.59305C15.8793 1.57667 15.761 1.61217 15.6583 1.69955L15.4098 1.91254C15.3743 1.94131 15.3435 1.97444 15.3175 2.01194L15.1329 2.30302C15.112 2.33649 15.0954 2.37199 15.0832 2.40952L14.9838 2.68641C14.9687 2.73497 14.9616 2.78467 14.9625 2.8355L14.9554 3.06269C14.9558 3.10872 14.9629 3.15368 14.9767 3.19759L15.0193 3.35378C15.0368 3.4118 15.0652 3.46387 15.1045 3.50997L15.1755 3.59517C15.1844 3.60514 15.1939 3.61461 15.2039 3.62357L15.2465 3.66617L15.2678 3.69457C15.2562 3.64708 15.2349 3.60448 15.2039 3.56677V3.58097C15.24 3.74931 15.3441 3.83348 15.5163 3.83348C15.6884 3.83348 15.7926 3.74931 15.8286 3.58097Z" fill="black"/>
<path d="M16.3825 1.94091C16.3825 2.13497 16.4795 2.232 16.6736 2.232C16.8677 2.232 16.9647 2.13497 16.9647 1.94091C16.9647 1.74685 16.8677 1.64982 16.6736 1.64982C16.4795 1.64982 16.3825 1.74685 16.3825 1.94091ZM16.3612 1.96221V2.00481L16.3825 2.34559C16.3858 2.37724 16.3929 2.40801 16.4038 2.43789L16.5103 2.77867C16.5141 2.79317 16.5189 2.80737 16.5245 2.82127L16.6949 3.19046L16.7659 3.56674C16.799 3.72767 16.8961 3.79157 17.057 3.75843C17.2179 3.7253 17.2818 3.62827 17.2487 3.46735L17.1777 3.09816L17.199 2.68638C17.1986 2.66486 17.1962 2.64356 17.1919 2.62248L17.1493 2.27459C17.1443 2.24017 17.1349 2.20704 17.1209 2.1752L16.986 1.85571C16.978 1.83831 16.9685 1.82175 16.9576 1.80601L16.9363 1.77051C16.849 1.63324 16.7282 1.59032 16.5739 1.64176C16.4196 1.6932 16.3487 1.80002 16.3612 1.96221Z" fill="black"/>
<path d="M16.3754 2.53726C16.3755 2.74064 16.4773 2.84234 16.6807 2.84234C16.884 2.84234 16.9858 2.74064 16.9859 2.53726C16.9858 2.33387 16.884 2.23218 16.6807 2.23218C16.4773 2.23218 16.3755 2.33387 16.3754 2.53726ZM16.3896 2.38816L16.3683 2.43076C16.3555 2.45805 16.346 2.48644 16.3399 2.51596L16.2973 2.67925C16.2944 2.69099 16.2921 2.70282 16.2902 2.71475L16.2334 3.08394C16.2284 3.1145 16.2261 3.14527 16.2263 3.17623L16.2192 3.8933C16.2205 3.91472 16.2228 3.93602 16.2263 3.9572L16.3328 5.03636C16.3369 5.07245 16.344 5.10795 16.3541 5.14285L16.702 6.4421L17.0285 7.94724L17.2912 9.58727L17.5113 11.2273C17.5136 11.2321 17.516 11.2368 17.5184 11.2415L17.7598 12.6259L17.8663 13.6767C17.8852 13.8613 17.987 13.9441 18.1716 13.9252C18.3562 13.9063 18.439 13.8045 18.4201 13.6199L18.3136 12.5691L18.2355 11.1563C18.2359 11.1468 18.2359 11.1374 18.2355 11.1279L18.0154 9.48787L17.7669 7.83364L17.6178 6.3143V4.97246C17.617 4.94628 17.6147 4.92025 17.6107 4.89436L17.4758 3.81521C17.4741 3.79855 17.4718 3.78198 17.4687 3.76551L17.3267 3.06264C17.32 3.03104 17.3105 3.00028 17.2983 2.97034L17.1563 2.61536C17.1466 2.59065 17.1347 2.56699 17.1208 2.54436L17.0356 2.40946C16.9951 2.34612 16.9407 2.29879 16.8724 2.26747L16.8298 2.24617C16.6375 2.15244 16.4908 2.19978 16.3896 2.38816Z" fill="black"/>
<path d="M17.206 8.94832V8.95542L17.1208 9.16131C17.0867 9.23569 17.0701 9.31379 17.0711 9.3956L17.0924 10.063C17.092 10.0748 17.092 10.0866 17.0924 10.0985L17.1776 11.0995L17.277 12.3988L17.3835 13.8045C17.3831 13.8164 17.3831 13.8282 17.3835 13.84L17.5539 15.1819C17.5558 15.1938 17.5582 15.2056 17.561 15.2174L17.7811 16.3675C17.781 16.3699 17.781 16.3722 17.7811 16.3746L17.9514 17.255L17.9869 17.8798C17.9964 18.0549 18.0887 18.1377 18.2638 18.1282C18.439 18.1188 18.5218 18.0265 18.5123 17.8514L18.4768 17.2266L18.5549 16.332C18.555 16.3273 18.555 16.3225 18.5549 16.3178L18.6259 15.1464C18.6263 15.1345 18.6263 15.1227 18.6259 15.1109L18.6046 13.7548C18.6048 13.7454 18.6048 13.7359 18.6046 13.7264L18.5265 12.3136C18.5266 12.3088 18.5266 12.3041 18.5265 12.2994L18.4271 11.0001C18.4272 10.993 18.4272 10.9859 18.4271 10.9788L18.3135 9.97778C18.3099 9.95622 18.3052 9.93492 18.2993 9.91388L18.1502 9.26071C18.1284 9.16925 18.0858 9.08879 18.0224 9.01932L17.8521 8.82762L17.8308 8.79213C17.7386 8.66659 17.617 8.6227 17.4659 8.66047C17.3149 8.69824 17.2282 8.79419 17.206 8.94832Z" fill="black"/>
<path d="M5.29663 21.336C5.29663 21.4321 5.3306 21.5141 5.39852 21.582C5.46645 21.6499 5.54845 21.6839 5.64452 21.6839C5.74058 21.6839 5.82258 21.6499 5.89051 21.582C5.95844 21.5141 5.9924 21.4321 5.9924 21.336C5.9924 21.2399 5.95844 21.1579 5.89051 21.09C5.82258 21.0221 5.74058 20.9881 5.64452 20.9881C5.54845 20.9881 5.46645 21.0221 5.39852 21.09C5.3306 21.1579 5.29663 21.2399 5.29663 21.336ZM5.24693 21.2863L5.23273 21.3786C5.23221 21.3904 5.23221 21.4023 5.23273 21.4141L5.21853 21.6271C5.21851 21.6295 5.21851 21.6318 5.21853 21.6342L5.20433 22.0176C5.2037 22.0318 5.2037 22.046 5.20433 22.0602L5.23273 22.7347C5.23533 22.7634 5.24006 22.7918 5.24693 22.8198L5.44572 23.8351C5.45142 23.8592 5.45852 23.8829 5.46702 23.9061L5.88591 25.2195C5.89027 25.2315 5.89501 25.2434 5.90011 25.255L6.49648 26.7389C6.50497 26.7583 6.51444 26.7772 6.52488 26.7957L7.29875 28.2511C7.32344 28.3002 7.35421 28.3452 7.39104 28.386L8.4489 29.5291C8.45791 29.539 8.46738 29.5485 8.4773 29.5575L9.47836 30.4236L10.2025 31.0981C10.335 31.2208 10.4627 31.216 10.5856 31.0837C10.7085 30.9513 10.7039 30.8236 10.5717 30.7005L9.85464 30.0473L9.10917 29.0179L8.3779 27.6831L7.63244 26.2419L7.05736 24.8149L6.65268 23.5298L6.35449 22.543C6.35226 22.5358 6.34989 22.5287 6.34739 22.5217L6.1344 21.8969L6.0492 21.5845L6.0421 21.4283V21.3502C6.05092 21.2404 6.01964 21.1436 5.94824 21.0597C5.87685 20.9758 5.78626 20.9295 5.67647 20.9207C5.56668 20.9119 5.46985 20.9431 5.38597 21.0145C5.3021 21.0859 5.25576 21.1765 5.24693 21.2863Z" fill="black"/>
<path d="M5.70125 22.7559L5.69415 22.7772C5.69407 22.782 5.69407 22.7867 5.69415 22.7914L5.67285 22.905L5.60895 23.2174C5.59799 23.2641 5.59325 23.3114 5.59475 23.3594L5.61605 23.97C5.61936 24.0109 5.62646 24.0511 5.63735 24.0907L5.82904 24.9071C5.83609 24.941 5.84556 24.9741 5.85744 25.0065L6.24793 25.9863C6.25636 26.008 6.26583 26.0293 6.27632 26.0502L6.823 27.1151C6.83181 27.1321 6.84127 27.1487 6.8514 27.1648L7.51167 28.2298C7.52242 28.2517 7.53425 28.273 7.54717 28.2937L8.28554 29.238C8.30087 29.2602 8.31743 29.2815 8.33524 29.3019L9.10201 30.0757C9.16171 30.136 9.23034 30.1833 9.3079 30.2177L10.1244 30.5798C10.1383 30.5853 10.1525 30.59 10.167 30.594L10.8201 30.7999L11.2674 30.9774C11.4382 31.0286 11.5563 30.9713 11.6218 30.8054C11.6873 30.6396 11.6401 30.517 11.4804 30.4378L11.0615 30.2816L10.6284 29.8911L10.1315 29.2025C10.1162 29.1802 10.0996 29.1589 10.0818 29.1386L9.3718 28.3718L8.71152 27.4559L8.09385 26.4336L7.56847 25.4183L7.17799 24.4811L6.8798 23.7073C6.87745 23.7049 6.87508 23.7025 6.8727 23.7002L6.65261 23.1322C6.64596 23.1201 6.63886 23.1083 6.63131 23.0967L6.50352 22.834L6.48932 22.763L6.48222 22.7559C6.441 22.5407 6.31083 22.4331 6.09173 22.4331C5.87263 22.4331 5.74247 22.5407 5.70125 22.7559Z" fill="black"/>
<path d="M10.0037 28.4428C10.0037 28.5389 10.0377 28.6209 10.1056 28.6888C10.1735 28.7567 10.2555 28.7907 10.3516 28.7907C10.4477 28.7907 10.5297 28.7567 10.5976 28.6888C10.6655 28.6209 10.6995 28.5389 10.6995 28.4428C10.6995 28.3467 10.6655 28.2647 10.5976 28.1968C10.5297 28.1289 10.4477 28.0949 10.3516 28.0949C10.2555 28.0949 10.1735 28.1289 10.1056 28.1968C10.0377 28.2647 10.0037 28.3467 10.0037 28.4428ZM9.97533 28.5493L9.98953 28.6061C9.98951 28.6085 9.98951 28.6108 9.98953 28.6132L10.0321 28.7481C10.0319 28.7552 10.0319 28.7623 10.0321 28.7694L10.1173 29.0108C10.1215 29.0228 10.1263 29.0347 10.1315 29.0463L10.2735 29.3658C10.2852 29.3909 10.2994 29.4146 10.3161 29.4368L10.4794 29.6711L10.5504 29.9196C10.617 30.0574 10.7242 30.1064 10.872 30.0664C11.0198 30.0265 11.0877 29.9302 11.0758 29.7776L11.0119 29.522L11.0332 29.2309C11.0356 29.1951 11.0333 29.1596 11.0261 29.1244L10.9551 28.7836C10.9491 28.7518 10.9396 28.721 10.9267 28.6913L10.8202 28.457C10.8087 28.4295 10.7945 28.4035 10.7776 28.3789L10.7137 28.2937L10.6995 28.2724C10.5918 28.0684 10.4302 28.0076 10.2147 28.09C9.99925 28.1724 9.91945 28.3255 9.97533 28.5493Z" fill="black"/>
<path d="M10.6853 30.3455L10.7279 30.7857C10.7434 30.9249 10.8206 31.004 10.9594 31.023C11.0981 31.042 11.1937 30.9866 11.2461 30.8567L11.4165 30.4449C11.4672 30.3284 11.4613 30.2147 11.399 30.104C11.3366 29.9933 11.2425 29.9294 11.1165 29.9122C10.9906 29.8951 10.8828 29.9316 10.7932 30.0217C10.7035 30.1117 10.6676 30.2197 10.6853 30.3455Z" fill="black"/>
<path d="M5.39591 21.5348C5.39591 21.627 5.42849 21.7056 5.49365 21.7708C5.55881 21.8359 5.63746 21.8685 5.7296 21.8685C5.82175 21.8685 5.9004 21.8359 5.96555 21.7708C6.03071 21.7056 6.06329 21.627 6.06329 21.5348C6.06329 21.4427 6.03071 21.364 5.96555 21.2989C5.9004 21.2337 5.82175 21.2011 5.7296 21.2011C5.63746 21.2011 5.55881 21.2337 5.49365 21.2989C5.42849 21.364 5.39591 21.4427 5.39591 21.5348ZM5.6586 21.9182H5.6799C5.76799 21.9347 5.85319 21.9253 5.93549 21.8898L6.05619 21.8401C6.06832 21.8335 6.08015 21.8264 6.09169 21.8188L6.27628 21.7194L6.52477 21.6129L6.82296 21.5135L7.00755 21.4567L7.18504 21.5419C7.34597 21.6129 7.46193 21.5679 7.53293 21.407C7.60392 21.2461 7.55896 21.1301 7.39803 21.0591L7.16374 20.9597L6.97915 20.7893C6.90615 20.7246 6.82096 20.6891 6.72356 20.6828L6.38987 20.6615C6.31375 20.6562 6.24038 20.6681 6.16978 20.697L5.87869 20.8177C5.85162 20.8273 5.82559 20.8391 5.8006 20.8532L5.60181 20.981C5.52598 21.0265 5.46682 21.0881 5.42431 21.1656L5.36752 21.2792C5.28654 21.4325 5.29364 21.5816 5.38881 21.7265L5.39591 21.7407C5.45776 21.8379 5.54532 21.8971 5.6586 21.9182Z" fill="black"/>
<path d="M7.80989 20.9384C7.80989 21.0384 7.84524 21.1238 7.91594 21.1945C7.98664 21.2652 8.07199 21.3005 8.17197 21.3005C8.27196 21.3005 8.3573 21.2652 8.428 21.1945C8.49871 21.1238 8.53406 21.0384 8.53406 20.9384C8.53406 20.8385 8.49871 20.7531 8.428 20.6824C8.3573 20.6117 8.27196 20.5764 8.17197 20.5764C8.07199 20.5764 7.98664 20.6117 7.91594 20.6824C7.84524 20.7531 7.80989 20.8385 7.80989 20.9384ZM8.27137 20.4557L8.25007 20.4486C7.97612 20.3926 7.76786 20.4849 7.62529 20.7255L7.4833 20.9597L7.24191 21.3573C7.23681 21.369 7.23208 21.3808 7.22771 21.3928L6.95082 21.9253C6.93357 21.9571 6.91937 21.9903 6.90822 22.0247L6.74493 22.5856C6.73924 22.6019 6.73451 22.6184 6.73073 22.6353L6.65973 23.0542L6.48934 23.3381C6.39953 23.4896 6.43032 23.6102 6.5817 23.7001C6.73309 23.79 6.85376 23.7593 6.94372 23.6079L7.12122 23.3239L7.4478 23.0613C7.46274 23.0503 7.47694 23.0385 7.4904 23.0258L7.89508 22.6069C7.92429 22.5788 7.95032 22.548 7.97318 22.5146L8.29267 22.0105C8.30004 22.0012 8.30714 21.9918 8.31397 21.9821L8.54116 21.5703C8.55427 21.5497 8.5661 21.5284 8.57666 21.5064L8.67605 21.2579C8.78302 20.9983 8.73096 20.7758 8.51986 20.5906L8.50566 20.5693C8.43784 20.5102 8.35974 20.4723 8.27137 20.4557Z" fill="black"/>
<path d="M7.48323 21.6626C7.48323 21.7645 7.51928 21.8515 7.59136 21.9236C7.66345 21.9957 7.75047 22.0318 7.85242 22.0318C7.95436 22.0318 8.04138 21.9957 8.11347 21.9236C8.18556 21.8515 8.2216 21.7645 8.2216 21.6626C8.2216 21.5606 8.18556 21.4736 8.11347 21.4015C8.04138 21.3294 7.95436 21.2934 7.85242 21.2934C7.75047 21.2934 7.66345 21.3294 7.59136 21.4015C7.51928 21.4736 7.48323 21.5606 7.48323 21.6626ZM7.46193 21.6626C7.46193 21.7684 7.49936 21.8588 7.57422 21.9337C7.64908 22.0085 7.73945 22.046 7.84532 22.046C7.95119 22.046 8.04155 22.0085 8.11641 21.9337C8.19127 21.8588 8.2287 21.7684 8.2287 21.6626C8.2287 21.5567 8.19127 21.4663 8.11641 21.3915C8.04155 21.3166 7.95119 21.2792 7.84532 21.2792C7.73945 21.2792 7.64908 21.3166 7.57422 21.3915C7.49936 21.4663 7.46193 21.5567 7.46193 21.6626ZM7.73172 21.2224L7.66072 21.2366C7.51365 21.2647 7.39769 21.3404 7.31284 21.4638L7.15665 21.6981C7.14104 21.7184 7.12684 21.7397 7.11405 21.762L6.90816 22.1809C6.88473 22.2283 6.86817 22.278 6.85846 22.3299L6.67387 23.3168C6.64996 23.4464 6.69621 23.5422 6.81261 23.604C6.92901 23.6658 7.03422 23.6506 7.12825 23.5582L7.83112 22.834C7.86778 22.7957 7.89854 22.7531 7.92341 22.7062L8.1435 22.2944C8.15137 22.2782 8.15847 22.2616 8.1648 22.2447L8.2784 21.9892C8.33251 21.8576 8.33488 21.725 8.2855 21.5916L8.2642 21.5206C8.17432 21.2647 7.99682 21.1653 7.73172 21.2224Z" fill="black"/>
<path d="M8.05842 18.4535C8.05842 18.6712 8.16729 18.7801 8.38501 18.7801C8.60273 18.7801 8.7116 18.6712 8.7116 18.4535C8.7116 18.2358 8.60273 18.1269 8.38501 18.1269C8.16729 18.1269 8.05842 18.2358 8.05842 18.4535ZM8.03712 18.3399L8.02293 18.3683C8.01558 18.3939 8.01085 18.4199 8.00873 18.4464L7.99453 18.5458C7.98521 18.6216 7.99467 18.695 8.02293 18.7659L8.09392 18.9363C8.1093 18.9797 8.13059 19.0199 8.15782 19.057L8.29981 19.2345C8.31287 19.252 8.32707 19.2686 8.34241 19.2842L8.50571 19.4333C8.53394 19.4582 8.56471 19.4795 8.598 19.4972L8.77549 19.6037C8.9049 19.6781 9.0398 19.6899 9.18018 19.6392L9.34347 19.5824C9.56953 19.5063 9.66655 19.3501 9.63456 19.1138L9.62746 19.0996L9.71266 18.9931C9.78536 18.8735 9.76625 18.771 9.65531 18.6857C9.54436 18.6003 9.44042 18.6081 9.34347 18.7091L9.20148 18.8866C9.30894 18.9296 9.39887 18.9059 9.47127 18.8156L9.36477 18.7659C9.33709 18.7559 9.3087 18.7488 9.27957 18.7446L9.17308 18.7233L9.10208 18.6878L9.00978 18.6026L8.90329 18.4819L8.81809 18.3541C8.79241 18.3163 8.76164 18.2831 8.7258 18.2547L8.6477 18.1908C8.64087 18.1835 8.63377 18.1764 8.6264 18.1695L8.5909 18.1482C8.48955 18.0813 8.38149 18.0677 8.26672 18.1074C8.15195 18.1472 8.07542 18.2247 8.03712 18.3399Z" fill="black"/>
<path d="M8.88192 17.2394C8.88192 17.443 8.98368 17.5447 9.18721 17.5447C9.39074 17.5447 9.4925 17.443 9.4925 17.2394C9.4925 17.0359 9.39074 16.9342 9.18721 16.9342C8.98368 16.9342 8.88192 17.0359 8.88192 17.2394ZM8.73283 17.1471L8.71153 17.2252C8.69252 17.311 8.69489 17.3962 8.71863 17.4808L8.76123 17.6725C8.7857 17.7624 8.83066 17.8405 8.89612 17.9068L9.06651 18.0843L9.19431 18.2547L9.25111 18.4677C9.29377 18.638 9.40025 18.7018 9.57056 18.6593C9.74087 18.6167 9.80478 18.5102 9.76229 18.3399L9.70549 18.1198L9.73389 17.9068L9.79778 17.6654C9.82354 17.5622 9.8188 17.4605 9.78359 17.3601L9.71259 17.1755C9.68309 17.0927 9.63576 17.0217 9.57059 16.9626L9.5067 16.9058C9.44442 16.8514 9.37284 16.8157 9.29195 16.7987C9.21107 16.7816 9.13117 16.7854 9.05225 16.81C8.97334 16.8346 8.90546 16.877 8.8486 16.937C8.79175 16.997 8.75316 17.067 8.73283 17.1471Z" fill="black"/>
<path d="M10.1609 27.6676C10.1609 27.7715 10.1976 27.8602 10.2711 27.9337C10.3446 28.0072 10.4333 28.0439 10.5372 28.0439C10.6411 28.0439 10.7298 28.0072 10.8032 27.9337C10.8767 27.8602 10.9135 27.7715 10.9135 27.6676C10.9135 27.5637 10.8767 27.475 10.8032 27.4016C10.7298 27.3281 10.6411 27.2914 10.5372 27.2914C10.4333 27.2914 10.3446 27.3281 10.2711 27.4016C10.1976 27.475 10.1609 27.5637 10.1609 27.6676ZM10.1538 27.6605C10.1844 27.8858 10.3134 27.9985 10.5407 27.9985C10.7681 27.9985 10.8971 27.8858 10.9277 27.6605C10.8971 27.4352 10.7681 27.3226 10.5407 27.3226C10.3134 27.3226 10.1844 27.4352 10.1538 27.6605ZM10.1396 27.6605C10.1396 27.7703 10.1784 27.864 10.256 27.9417C10.3337 28.0193 10.4274 28.0581 10.5372 28.0581C10.647 28.0581 10.7407 28.0193 10.8183 27.9417C10.8959 27.864 10.9348 27.7703 10.9348 27.6605C10.9348 27.5507 10.8959 27.457 10.8183 27.3794C10.7407 27.3018 10.647 27.263 10.5372 27.263C10.4274 27.263 10.3337 27.3018 10.256 27.3794C10.1784 27.457 10.1396 27.5507 10.1396 27.6605ZM10.1254 27.6676C10.1254 27.7872 10.1677 27.8892 10.2523 27.9738C10.3368 28.0583 10.4389 28.1006 10.5585 28.1006C10.678 28.1006 10.7801 28.0583 10.8647 27.9738C10.9492 27.8892 10.9915 27.7872 10.9916 27.6676C10.9915 27.5481 10.9492 27.446 10.8647 27.3615C10.7801 27.277 10.678 27.2347 10.5585 27.2347C10.4389 27.2347 10.3368 27.277 10.2523 27.3615C10.1677 27.446 10.1254 27.5481 10.1254 27.6676ZM10.1041 27.8167L10.1254 27.9516C10.1494 28.0677 10.2015 28.1695 10.2816 28.2569L10.4733 28.4699C10.5075 28.5072 10.5454 28.5403 10.5869 28.5693L10.8993 28.7965C10.948 28.8291 11.0001 28.8551 11.0555 28.8746L11.4956 29.045C11.585 29.0784 11.6773 29.0926 11.7725 29.0876L12.305 29.0592C12.3921 29.0545 12.4749 29.0332 12.5535 28.9953L13.1215 28.7184C13.1761 28.6927 13.2258 28.6596 13.2706 28.619L13.8243 28.1007C13.8568 28.0711 13.8852 28.0379 13.9095 28.0013L14.3781 27.263C14.3917 27.2426 14.4035 27.2213 14.4136 27.1991L14.7757 26.3258C14.7819 26.3072 14.7866 26.2883 14.7899 26.269L15.0029 25.4028L15.1946 24.7071C15.2089 24.5617 15.1458 24.4689 15.0053 24.4288C14.8648 24.3886 14.7623 24.4341 14.6976 24.5651L14.5059 25.2395L14.1012 25.9992L13.6326 26.7447L13.1073 27.2985L12.6032 27.625L12.1985 27.7457L11.9003 27.7244L11.6305 27.6108L11.3678 27.4333C11.3631 27.4309 11.3584 27.4286 11.3536 27.4262L11.1122 27.2772C11.0125 27.2142 10.9036 27.1811 10.7857 27.1778L10.6437 27.1707C10.4711 27.1673 10.3295 27.2318 10.2189 27.3643C10.1083 27.4967 10.07 27.6475 10.1041 27.8167Z" fill="black"/>
<path d="M13.9876 18.4877C13.9876 18.5858 14.0222 18.6694 14.0915 18.7388C14.1609 18.8081 14.2445 18.8427 14.3426 18.8427C14.4406 18.8427 14.5243 18.8081 14.5936 18.7388C14.6629 18.6694 14.6975 18.5858 14.6975 18.4877C14.6975 18.3897 14.6629 18.3061 14.5936 18.2367C14.5243 18.1674 14.4406 18.1328 14.3426 18.1328C14.2445 18.1328 14.1609 18.1674 14.0915 18.2367C14.0222 18.3061 13.9876 18.3897 13.9876 18.4877ZM13.9663 18.4806C13.9663 18.5846 14.003 18.6732 14.0765 18.7467C14.15 18.8202 14.2386 18.8569 14.3426 18.8569C14.4465 18.8569 14.5352 18.8202 14.6086 18.7467C14.6821 18.6732 14.7188 18.5846 14.7188 18.4806C14.7188 18.3767 14.6821 18.288 14.6086 18.2146C14.5352 18.1411 14.4465 18.1044 14.3426 18.1044C14.2386 18.1044 14.15 18.1411 14.0765 18.2146C14.003 18.288 13.9663 18.3767 13.9663 18.4806ZM13.9166 18.4806C13.9166 18.5963 13.9575 18.6951 14.0393 18.7768C14.1211 18.8586 14.2198 18.8995 14.3355 18.8995C14.4511 18.8995 14.5499 18.8586 14.6316 18.7768C14.7134 18.6951 14.7543 18.5963 14.7543 18.4806C14.7543 18.365 14.7134 18.2662 14.6316 18.1845C14.5499 18.1027 14.4511 18.0618 14.3355 18.0618C14.2198 18.0618 14.1211 18.1027 14.0393 18.1845C13.9575 18.2662 13.9166 18.365 13.9166 18.4806ZM13.8598 18.4097L13.803 18.5871C13.7949 18.6222 13.7902 18.6577 13.7888 18.6936L13.7462 19.1622C13.7457 19.1764 13.7457 19.1906 13.7462 19.2048L13.7391 20.0284C13.7372 20.0568 13.7372 20.0852 13.7391 20.1136L13.8811 21.2566L13.9734 22.563V23.8622L13.9592 24.9911L13.9379 25.8856L13.9095 26.5317C13.9067 26.5577 13.9067 26.5838 13.9095 26.6098L13.9734 26.9719L13.9379 27.1565C13.9288 27.3095 13.9995 27.4006 14.15 27.4299C14.3004 27.4592 14.4001 27.4012 14.449 27.2559L14.4845 27.0429L14.6265 26.6808C14.6396 26.6441 14.6467 26.6062 14.6478 26.5672L14.6904 25.9211C14.6905 25.9164 14.6905 25.9117 14.6904 25.9069L14.7117 25.0053L14.7259 23.8693C14.726 23.867 14.726 23.8646 14.7259 23.8622L14.733 22.5701L14.8679 21.2637L15.0312 20.1207C15.0346 20.0828 15.0346 20.0449 15.0312 20.0071L14.9957 19.1835C14.9945 19.1621 14.9921 19.1408 14.9886 19.1196L14.9247 18.6581C14.9173 18.6065 14.9031 18.5568 14.8821 18.509L14.804 18.3387C14.7071 18.1246 14.5414 18.0264 14.3071 18.044C14.0727 18.0616 13.9236 18.1835 13.8598 18.4097Z" fill="black"/>
<path d="M13.7959 19.7231L13.7888 19.7302C13.7516 19.7787 13.7279 19.8332 13.7178 19.8935L13.7036 19.9716L13.6326 20.1916C13.6189 20.238 13.6118 20.2853 13.6113 20.3336L13.59 20.8448C13.5886 20.8685 13.5886 20.8922 13.59 20.9158L13.6397 21.6684C13.6396 21.6731 13.6396 21.6779 13.6397 21.6826L13.7249 22.641L13.7888 23.7202L13.8243 24.8278L13.8172 25.8714L13.7746 26.7589L13.7391 27.3979L13.5758 27.8096C13.5446 27.9469 13.5942 28.042 13.7246 28.0949C13.8549 28.1479 13.9568 28.1143 14.0302 27.9942L14.2148 27.5611L14.5413 26.979C14.5555 26.9565 14.5673 26.9328 14.5768 26.908L14.8537 26.0489C14.8628 26.0234 14.8699 25.9974 14.875 25.9708L15.0383 24.9201C15.0427 24.8918 15.045 24.8634 15.0454 24.8349L15.0809 23.706C15.0792 23.6893 15.0768 23.6728 15.0738 23.6563L15.017 22.5559C15.0172 22.5464 15.0172 22.5369 15.017 22.5275L14.9176 21.5619C14.9178 21.5524 14.9178 21.543 14.9176 21.5335L14.8111 20.788C14.8064 20.7567 14.7993 20.7259 14.7898 20.6957L14.6407 20.2058C14.6281 20.1582 14.6092 20.1133 14.5839 20.071L14.4561 19.8793L14.4277 19.8083C14.4167 19.7805 14.4025 19.7545 14.3851 19.7302L14.378 19.7231C14.3041 19.6283 14.2071 19.581 14.087 19.581C13.9668 19.581 13.8698 19.6283 13.7959 19.7231Z" fill="black"/>
<path d="M7.05302 18.2471C7.05302 18.46 7.15951 18.5665 7.37251 18.5665C7.5855 18.5665 7.69199 18.46 7.69199 18.2471C7.69199 18.0341 7.5855 17.9276 7.37251 17.9276C7.15951 17.9276 7.05302 18.0341 7.05302 18.2471ZM7.73459 18.3819L7.78429 18.2897L7.86949 18.169L8.03278 17.9773C8.03517 17.9749 8.03754 17.9726 8.03988 17.9702L8.23157 17.7359L8.40906 17.5371L8.57236 17.4022L8.70725 17.3454L8.78535 17.3383L8.90604 17.3809L9.16873 17.5726L9.53792 17.9986L9.9781 18.6588C9.98045 18.6612 9.98281 18.6636 9.9852 18.6659L10.4609 19.3333L10.7804 20.1427L11.0573 20.8881L11.1567 21.4916C11.185 21.6715 11.2892 21.7472 11.469 21.7188C11.6489 21.6904 11.7246 21.5863 11.6962 21.4064L11.5897 20.7817L11.5329 19.9723C11.5316 19.9556 11.5293 19.939 11.5258 19.9226L11.3483 19.0138L11.185 18.1619C11.1751 18.0976 11.1562 18.036 11.1283 17.9773L10.7449 17.2389C10.7211 17.1932 10.6927 17.1506 10.6597 17.1111L10.2266 16.5786C10.1815 16.5236 10.1294 16.4763 10.0704 16.4366L9.63731 16.1526C9.52354 16.0761 9.39811 16.0358 9.26103 16.0319L8.88474 16.0177C8.77212 16.0139 8.66563 16.0375 8.56526 16.0887L8.28127 16.2378C8.2407 16.2572 8.20283 16.2808 8.16767 16.3088L7.92628 16.5147C7.90865 16.5302 7.89208 16.5468 7.87659 16.5644L7.65649 16.8058C7.64101 16.8238 7.62681 16.8427 7.6139 16.8626L7.4364 17.1253C7.42331 17.1434 7.41148 17.1624 7.40091 17.1821L7.25891 17.459C7.25058 17.4775 7.24348 17.4964 7.23761 17.5158L7.14532 17.7714L7.07432 17.9489L7.03172 18.0483C6.94831 18.272 7.01444 18.435 7.23013 18.5374C7.44582 18.6398 7.61397 18.588 7.73459 18.3819Z" fill="black"/>
<path d="M7.48611 17.7075C7.48611 17.8075 7.52146 17.8928 7.59216 17.9635C7.66286 18.0342 7.7482 18.0696 7.84819 18.0696C7.94818 18.0696 8.03352 18.0342 8.10422 17.9635C8.17492 17.8928 8.21028 17.8075 8.21028 17.7075C8.21028 17.6075 8.17492 17.5221 8.10422 17.4514C8.03352 17.3807 7.94818 17.3454 7.84819 17.3454C7.7482 17.3454 7.66286 17.3807 7.59216 17.4514C7.52146 17.5221 7.48611 17.6075 7.48611 17.7075ZM7.5003 17.5442L7.47901 17.5726C7.47076 17.5886 7.46366 17.6052 7.45771 17.6223L7.43641 17.6862C7.43394 17.6909 7.43158 17.6956 7.42931 17.7004L7.40091 17.7998C7.39401 17.823 7.38928 17.8467 7.38671 17.8708L7.36541 18.027C7.36539 18.0293 7.36539 18.0317 7.36541 18.0341L7.34411 18.2186L7.28021 18.46C7.26087 18.5274 7.25377 18.596 7.25891 18.6659L7.29441 19.1061C7.29968 19.1496 7.30915 19.1922 7.32281 19.2339L7.48611 19.809C7.49537 19.843 7.5072 19.8762 7.5216 19.9084L7.84109 20.5758C7.85917 20.611 7.88047 20.6441 7.90499 20.6751L8.33807 21.2715L8.65046 21.9602C8.66066 21.9801 8.67249 21.9991 8.68596 22.017L9.04804 22.5424L9.25393 22.9755C9.33997 23.1042 9.45302 23.1355 9.5931 23.0696C9.73317 23.0037 9.78104 22.8966 9.73671 22.7483L9.53792 22.3152L9.38173 21.7046C9.37842 21.6853 9.37368 21.6664 9.36753 21.6478L9.09064 20.9662L9.00544 20.2421C9.00272 20.2133 8.99799 20.1849 8.99124 20.1569L8.79955 19.4398C8.79529 19.4254 8.79055 19.4112 8.78535 19.3972L8.59366 18.8363C8.58764 18.8147 8.58054 18.7934 8.57236 18.7724L8.38777 18.3748C8.37023 18.3371 8.34893 18.3016 8.32387 18.2683L8.20318 18.098L8.17478 18.0128V17.9631L8.18188 17.9276L8.20318 17.8708C8.2032 17.8684 8.2032 17.866 8.20318 17.8637L8.21738 17.8282C8.26569 17.6113 8.18657 17.462 7.98002 17.3802C7.77347 17.2984 7.61356 17.353 7.5003 17.5442Z" fill="black"/>
<path d="M8.02581 19.9368V19.9581C8.02561 19.9652 8.02561 19.9723 8.02581 19.9794L8.0542 20.1143C8.05402 20.1214 8.05402 20.1285 8.0542 20.1356L8.1252 20.4338C8.12873 20.453 8.13346 20.4719 8.1394 20.4906L8.30979 20.9591C8.31421 20.9688 8.31894 20.9782 8.32399 20.9875L8.57958 21.5555C8.59147 21.5806 8.60567 21.6042 8.62218 21.6265L8.97717 22.1164L9.17596 22.6134C9.25289 22.7519 9.3649 22.7917 9.512 22.7329C9.65909 22.674 9.71274 22.5679 9.67294 22.4146L9.47415 21.9176L9.39605 21.3212C9.39102 21.2969 9.38392 21.2733 9.37475 21.2502L9.19726 20.661C9.1932 20.6465 9.18847 20.6323 9.18306 20.6184L8.99846 20.164C8.9921 20.1494 8.985 20.1352 8.97717 20.1214L8.84227 19.8516C8.83576 19.8394 8.82866 19.8276 8.82097 19.8161L8.74998 19.7096L8.74288 19.6954C8.63293 19.5258 8.48219 19.4732 8.29063 19.5377C8.09907 19.6022 8.0108 19.7352 8.02581 19.9368Z" fill="black"/>
<path d="M10.6384 20.5758C10.6384 20.6797 10.6751 20.7684 10.7486 20.8418C10.8221 20.9153 10.9108 20.9521 11.0147 20.9521C11.1186 20.9521 11.2073 20.9153 11.2807 20.8418C11.3542 20.7684 11.3909 20.6797 11.3909 20.5758C11.3909 20.4719 11.3542 20.3832 11.2807 20.3097C11.2073 20.2362 11.1186 20.1995 11.0147 20.1995C10.9108 20.1995 10.8221 20.2362 10.7486 20.3097C10.6751 20.3832 10.6384 20.4719 10.6384 20.5758ZM10.6171 20.5048L10.5745 20.7107C10.5645 20.76 10.5621 20.8097 10.5674 20.8598L10.6029 21.1579C10.6039 21.1794 10.6063 21.2007 10.61 21.2218L10.7165 21.6691C10.7238 21.6959 10.7333 21.722 10.7449 21.7472L10.9437 22.2371L11.2561 23.1459C11.3056 23.2984 11.409 23.3588 11.5662 23.3269C11.7234 23.295 11.7952 23.1992 11.7814 23.0394L11.7033 22.0809L11.7104 21.5555C11.7105 21.5269 11.7081 21.4985 11.7033 21.4703L11.6181 21.016C11.6168 20.9969 11.6145 20.978 11.611 20.9592L11.5258 20.6752C11.5158 20.638 11.5016 20.6025 11.4832 20.5687L11.3767 20.3841C11.2824 20.2204 11.1419 20.1534 10.9554 20.1831C10.7688 20.2127 10.6561 20.3199 10.6171 20.5048Z" fill="black"/>
<path d="M9.4883 17.0401C9.4883 17.1323 9.52088 17.2109 9.58603 17.2761C9.65119 17.3413 9.72984 17.3738 9.82199 17.3738C9.91413 17.3738 9.99278 17.3413 10.0579 17.2761C10.1231 17.2109 10.1557 17.1323 10.1557 17.0401C10.1557 16.948 10.1231 16.8694 10.0579 16.8042C9.99278 16.739 9.91413 16.7065 9.82199 16.7065C9.72984 16.7065 9.65119 16.739 9.58603 16.8042C9.52088 16.8694 9.4883 16.948 9.4883 17.0401ZM10.0421 16.7491L10.0279 16.742C10.0544 16.7901 10.0899 16.8304 10.1344 16.8627L10.1273 16.8556V16.8414L10.1131 16.7207L10.0918 16.4651V16.0888L10.0989 15.5634C10.0989 15.561 10.0989 15.5587 10.0989 15.5563V14.8534L10.1202 14.0015L10.1486 13.0572C10.1486 13.0548 10.1486 13.0525 10.1486 13.0501L10.1628 12.0775C10.163 12.0704 10.163 12.0633 10.1628 12.0562L10.1202 11.2326L10.1699 10.6078C10.1841 10.4374 10.106 10.3451 9.93558 10.3309C9.76519 10.3167 9.67289 10.3948 9.65869 10.5652L9.609 11.19L9.4457 11.9994C9.44274 12.0111 9.44038 12.0229 9.4386 12.0349L9.33921 13.0004C9.33912 13.0051 9.33912 13.0099 9.33921 13.0146L9.28241 13.9589C9.28233 13.9636 9.28233 13.9683 9.28241 13.9731L9.24691 14.8321C9.24683 14.8369 9.24683 14.8416 9.24691 14.8463V15.5563C9.24659 15.5658 9.24659 15.5752 9.24691 15.5847L9.28241 16.1172C9.28233 16.1219 9.28233 16.1267 9.28241 16.1314L9.32501 16.5219C9.32492 16.5266 9.32492 16.5313 9.32501 16.5361L9.36051 16.7988C9.36277 16.8035 9.36514 16.8083 9.36761 16.813L9.3889 16.9692C9.39362 16.9935 9.40072 17.0172 9.4102 17.0401L9.4386 17.1253C9.44964 17.1531 9.46384 17.1791 9.4812 17.2034L9.5025 17.2389C9.55291 17.3138 9.62154 17.3635 9.70839 17.388H9.72259C9.91813 17.4483 10.0616 17.387 10.1532 17.204C10.2447 17.0209 10.2076 16.8693 10.0421 16.7491Z" fill="black"/>
<path d="M9.13336 16.4722C9.13336 16.5741 9.1694 16.6611 9.24149 16.7332C9.31358 16.8053 9.4006 16.8414 9.50254 16.8414C9.60449 16.8414 9.69151 16.8053 9.7636 16.7332C9.83569 16.6611 9.87173 16.5741 9.87173 16.4722C9.87173 16.3702 9.83569 16.2832 9.7636 16.2111C9.69151 16.139 9.60449 16.103 9.50254 16.103C9.4006 16.103 9.31358 16.139 9.24149 16.2111C9.1694 16.2832 9.13336 16.3702 9.13336 16.4722ZM9.87883 16.458V16.4225C9.85449 16.4767 9.84266 16.5335 9.84333 16.5929L9.87173 16.529L9.95693 16.3657C9.97966 16.3205 9.99622 16.2732 10.0066 16.2237L10.0989 15.7906C10.1041 15.7766 10.1089 15.7624 10.1131 15.748L10.2125 15.0309C10.2149 15.0286 10.2173 15.0262 10.2196 15.0238L10.3545 14.037L10.5391 12.8229L10.7521 11.4953L10.9864 10.1463C10.9891 10.1346 10.9914 10.1227 10.9935 10.1108L11.1568 8.79739L11.3059 7.60464L11.5686 6.60358C11.571 6.60125 11.5733 6.59888 11.5757 6.59648L11.7532 5.82261L11.9448 5.32563C12.0064 5.16944 11.959 5.06058 11.8029 4.99904C11.6467 4.93751 11.5378 4.98485 11.4763 5.14104L11.2846 5.65222L10.9367 6.36929C10.931 6.38317 10.9263 6.39737 10.9225 6.41189L10.5888 7.40585L10.1273 8.5347C10.1222 8.54636 10.1174 8.55819 10.1131 8.5702L9.71554 9.83395C9.70734 9.85488 9.70024 9.87618 9.69424 9.89784L9.41735 11.2468C9.4173 11.2515 9.4173 11.2563 9.41735 11.261L9.17596 12.5957C9.17591 12.6005 9.17591 12.6052 9.17596 12.6099L8.97717 13.824C8.97706 13.8311 8.97706 13.8382 8.97717 13.8453L8.84227 14.8392C8.8415 14.8582 8.8415 14.8771 8.84227 14.896L8.80677 15.6131C8.8035 15.651 8.8035 15.6888 8.80677 15.7267L8.86357 16.1669C8.87389 16.2595 8.90465 16.3447 8.95587 16.4225L9.06946 16.5929C9.09013 16.6216 9.1138 16.6477 9.14046 16.671L9.20436 16.7278C9.22624 16.7469 9.2499 16.7634 9.27535 16.7775L9.31085 16.7988C9.37061 16.8316 9.43458 16.8474 9.50276 16.8461C9.57093 16.8448 9.63425 16.8266 9.69272 16.7915C9.75119 16.7564 9.79704 16.7091 9.83027 16.6496C9.86349 16.59 9.87968 16.5262 9.87883 16.458Z" fill="black"/>
<path d="M11.1425 9.00325L11.1567 8.98195C11.1683 8.96159 11.1778 8.94029 11.1851 8.91805L11.2277 8.79736L11.3697 8.54177C11.3803 8.52584 11.3898 8.50927 11.3981 8.49207L11.5969 8.00929C11.6028 7.99064 11.6075 7.97171 11.6111 7.95249L11.7957 7.28512C11.7983 7.27807 11.8006 7.27097 11.8028 7.26382L11.9732 6.48995C11.9732 6.48758 11.9732 6.48522 11.9732 6.48285L12.1507 5.63799C12.1534 5.62859 12.1557 5.61913 12.1578 5.60959L12.2856 4.71502L12.4134 3.85596C12.4134 3.85359 12.4134 3.85123 12.4134 3.84886L12.5199 3.06079C12.52 3.05606 12.52 3.05133 12.5199 3.04659L12.5838 2.35792L12.6335 1.79704L12.669 1.37106C12.6703 1.3545 12.6703 1.33793 12.669 1.32136L12.6477 1.05157L12.6832 0.895381C12.7116 0.739188 12.6477 0.646891 12.4915 0.618493C12.3353 0.590092 12.243 0.65399 12.2146 0.810185L12.1862 0.966378L12.0797 1.22197C12.0702 1.24248 12.0631 1.26378 12.0584 1.28587L11.9874 1.71185C11.9849 1.71652 11.9826 1.72126 11.9803 1.72605L11.9022 2.27982L11.7957 2.9543L11.6679 3.72107L11.4691 4.55173L11.2348 5.4108C11.2324 5.41549 11.23 5.42022 11.2277 5.425L11.0219 6.26986L10.8444 7.04373L10.6811 7.7111C10.6784 7.7205 10.676 7.72996 10.674 7.7395L10.5817 8.25068C10.5791 8.25772 10.5768 8.26482 10.5746 8.27198L10.5391 8.59146L10.5036 8.73346C10.5032 8.74293 10.5032 8.75239 10.5036 8.76186L10.4965 8.78316C10.4712 8.972 10.5488 9.09714 10.7291 9.15857C10.9095 9.22001 11.0473 9.16823 11.1425 9.00325Z" fill="black"/>
<path d="M12.0371 4.83574L12.0797 4.77895C12.1161 4.73529 12.1397 4.68559 12.1507 4.62985L12.1933 4.43106L12.2501 4.11867L12.3282 3.70689L12.4276 3.21701L12.5199 2.71293L12.6193 2.23725L12.7187 1.85387L12.811 1.59828L12.8962 1.48468L12.9601 1.49888L13.0808 1.54148L13.1802 1.65507C13.2843 1.77319 13.3955 1.78023 13.5137 1.6762C13.6319 1.57217 13.6391 1.461 13.5352 1.34269L13.4145 1.20069L13.308 1.0303C13.2772 0.984073 13.237 0.948574 13.1873 0.923804L13.0027 0.831507C12.9079 0.779676 12.8109 0.774942 12.7116 0.817308L12.5341 0.895405C12.4801 0.919441 12.4351 0.954939 12.3992 1.0019L12.2288 1.21489C12.2075 1.24313 12.191 1.2739 12.1791 1.30719L12.0584 1.61958C12.0552 1.63363 12.0528 1.64783 12.0513 1.66217L11.9377 2.06686C11.9375 2.07396 11.9375 2.08106 11.9377 2.08816L11.8383 2.57094C11.8358 2.57562 11.8335 2.58035 11.8312 2.58514L11.746 3.09631L11.6608 3.57909L11.5827 3.99088C11.5827 3.99324 11.5827 3.99561 11.5827 3.99798L11.5259 4.31036L11.4975 4.51626C11.4885 4.57189 11.4932 4.62632 11.5117 4.67955L11.533 4.74345C11.5687 4.85365 11.6436 4.91919 11.7575 4.94006C11.8715 4.96092 11.9647 4.92615 12.0371 4.83574Z" fill="black"/>
<path d="M12.8038 1.49178C12.8038 1.70004 12.908 1.80417 13.1162 1.80417C13.3245 1.80417 13.4286 1.70004 13.4286 1.49178C13.4286 1.28352 13.3245 1.17939 13.1162 1.17939C12.908 1.17939 12.8038 1.28352 12.8038 1.49178ZM12.8109 1.59117L12.8251 1.64087C12.8387 1.6771 12.8576 1.71023 12.8819 1.74027L12.9245 1.80417L12.96 1.97456C12.96 1.97929 12.96 1.98403 12.96 1.98876L13.0452 2.38634C13.0494 2.40072 13.0541 2.41492 13.0594 2.42894L13.2227 2.98982C13.2316 3.024 13.2434 3.05713 13.2582 3.08921L13.5848 3.72109L13.7765 4.45946L13.8262 5.14103C13.8357 5.30196 13.9209 5.37769 14.0818 5.36822C14.2427 5.35875 14.3184 5.27356 14.309 5.11263L14.2593 4.40976L14.2877 3.62169L14.38 2.89042C14.3904 2.80071 14.3809 2.71314 14.3516 2.62773L14.1599 2.07395C14.1358 2.00582 14.1003 1.94428 14.0534 1.88936L13.7907 1.57697C13.7615 1.54397 13.7284 1.51557 13.6913 1.49178L13.5138 1.37108L13.4286 1.28589C13.3876 1.23979 13.3379 1.20666 13.2795 1.18649L13.2298 1.17229C13.1009 1.13146 12.9887 1.15884 12.8931 1.25444C12.7975 1.35005 12.7701 1.46229 12.8109 1.59117Z" fill="black"/>
<path d="M13.7765 3.77789H13.7836C13.8654 3.82665 13.9517 3.83683 14.0425 3.80843C14.1334 3.78004 14.1985 3.72253 14.238 3.6359L14.2451 3.6217C14.2853 3.51707 14.2737 3.41854 14.2102 3.32613C14.1468 3.23372 14.059 3.18751 13.9469 3.18751C13.8348 3.18751 13.747 3.23372 13.6835 3.32613C13.6201 3.41854 13.6085 3.51707 13.6487 3.6217L13.6558 3.6359C13.8128 3.54016 13.8554 3.40763 13.7836 3.23832H13.7765C13.6732 3.2986 13.6216 3.38853 13.6216 3.50811C13.6216 3.62768 13.6732 3.71761 13.7765 3.77789ZM13.6487 3.27381L13.5848 3.35191C13.5319 3.41897 13.4987 3.4947 13.4854 3.5791L13.4357 3.92699C13.4342 3.95065 13.4342 3.97432 13.4357 3.99798L13.4215 4.65116C13.4235 4.66306 13.4259 4.6749 13.4286 4.68666L13.4712 5.63802C13.4728 5.65469 13.4752 5.67125 13.4783 5.68772L13.6416 6.83787L13.6913 8.13711C13.6913 8.13948 13.6913 8.14185 13.6913 8.14421L13.7765 9.40086L13.7481 10.4161C13.7435 10.5817 13.824 10.6668 13.9895 10.6715C14.155 10.6762 14.2402 10.5958 14.2451 10.4303L14.2735 9.40796L14.3942 8.15841C14.3966 8.15373 14.399 8.149 14.4013 8.14421L14.4652 6.83787L14.6143 5.68062C14.6184 5.65475 14.6208 5.62871 14.6214 5.60252L14.6143 4.65116C14.6123 4.63925 14.6099 4.62742 14.6072 4.61566L14.5575 3.96249C14.5548 3.92147 14.5477 3.88124 14.5362 3.84179L14.4368 3.5081C14.4081 3.41439 14.3561 3.33629 14.2806 3.27381L14.2025 3.21702C14.1184 3.14748 14.0222 3.11828 13.9137 3.12941C13.8052 3.14054 13.7169 3.18867 13.6487 3.27381Z" fill="black"/>
<path d="M13.8121 7.38449L13.7908 7.50519L13.6985 7.93827C13.6948 7.95704 13.6924 7.97597 13.6914 7.99507L13.6275 8.87543C13.6274 8.88016 13.6274 8.8849 13.6275 8.88963L13.5778 10.1321C13.5778 10.1344 13.5778 10.1368 13.5778 10.1392L13.5494 11.7082L13.5139 13.405L13.4784 15.0593L13.4429 16.5928C13.4427 16.5999 13.4427 16.607 13.4429 16.6141L13.4571 17.9631C13.457 17.9678 13.457 17.9725 13.4571 17.9773L13.5281 19.0564L13.4926 19.8161C13.4833 19.9863 13.5638 20.0761 13.734 20.0856C13.9042 20.0951 13.9941 20.0147 14.0038 19.8445L14.0393 19.0777L14.1954 18.0057C14.1957 17.9986 14.1957 17.9915 14.1954 17.9844L14.309 16.6425C14.3092 16.6354 14.3092 16.6283 14.309 16.6212L14.3729 15.0877C14.373 15.0829 14.373 15.0782 14.3729 15.0735L14.4084 13.4192L14.4439 11.7224L14.4723 10.1534L14.5078 8.91803C14.5078 8.91566 14.5078 8.91329 14.5078 8.91093L14.5149 8.03056C14.5157 8.01636 14.5157 8.00217 14.5149 7.98797L14.4794 7.54068L14.4723 7.41999C14.4564 7.22652 14.3515 7.12457 14.1577 7.11415C13.9638 7.10373 13.8486 7.19384 13.8121 7.38449Z" fill="black"/>
<path d="M11.3879 30.7318C11.3879 30.8371 11.4251 30.9269 11.4996 31.0013C11.574 31.0758 11.6639 31.113 11.7692 31.113C11.8745 31.113 11.9643 31.0758 12.0388 31.0013C12.1132 30.9269 12.1505 30.8371 12.1505 30.7318C12.1505 30.6265 12.1132 30.5367 12.0388 30.4622C11.9643 30.3878 11.8745 30.3506 11.7692 30.3506C11.6639 30.3506 11.574 30.3878 11.4996 30.4622C11.4251 30.5367 11.3879 30.6265 11.3879 30.7318ZM12.0317 30.4442L12.013 30.4317C11.9993 30.4182 11.9847 30.4057 11.9692 30.3942L11.9255 30.363C11.9073 30.3532 11.8886 30.3449 11.8692 30.338L11.7879 30.3005C11.7522 30.2827 11.7147 30.2702 11.6754 30.2629L11.5816 30.2504C11.5358 30.2433 11.49 30.2433 11.4441 30.2504L11.3441 30.2692C11.3164 30.2729 11.2893 30.2791 11.2628 30.288L11.1753 30.3192L11.1066 30.3442L11.0815 30.3505C10.9597 30.3861 10.8638 30.457 10.794 30.563L10.7877 30.5693C10.6534 30.7674 10.6478 30.9691 10.771 31.1744C10.8942 31.3797 11.0748 31.4697 11.3128 31.4444L11.4129 31.4319C11.4761 31.4254 11.5365 31.4087 11.5941 31.3819L11.7504 31.3131C11.7859 31.2957 11.8193 31.2749 11.8504 31.2506L12.0442 31.1131C12.0735 31.0927 12.1005 31.0698 12.1255 31.0443L12.3505 30.8006C12.3735 30.7773 12.3943 30.7523 12.4131 30.7255L12.6318 30.4067C12.6457 30.3867 12.6582 30.3658 12.6694 30.3442L12.8506 29.9879C12.8626 29.9657 12.873 29.9428 12.8819 29.9191L13.0069 29.5566C13.0116 29.5442 13.0157 29.5317 13.0194 29.5191L13.1069 29.2065C13.1155 29.1695 13.1197 29.132 13.1194 29.094L13.1319 28.8439C13.1373 28.769 13.1227 28.6981 13.0882 28.6314L13.0694 28.6064L13.0757 28.5939C13.1215 28.423 13.059 28.3147 12.8881 28.2688C12.7173 28.223 12.6089 28.2855 12.5631 28.4564L12.5443 28.4689C12.4952 28.4955 12.4536 28.531 12.4193 28.5751L12.2568 28.7752C12.2406 28.7949 12.226 28.8157 12.213 28.8377L12.0567 29.119L11.8692 29.4378L11.6692 29.7629L11.4754 30.0379L11.3128 30.2192L11.2066 30.3005L11.1503 30.3255L11.1066 30.338C11.0483 30.3542 10.9942 30.3792 10.944 30.413L10.9378 30.4192C10.9526 30.5059 10.9872 30.5838 11.0416 30.6529C11.096 30.722 11.1636 30.7739 11.2444 30.8086C11.3252 30.8434 11.4094 30.8567 11.497 30.8486C11.5845 30.8405 11.6648 30.812 11.7379 30.763L11.7317 30.7193C11.6695 30.8219 11.6487 30.9324 11.6692 31.0506L11.7129 30.9756C11.634 31.0136 11.5715 31.0699 11.5254 31.1444L11.5629 31.1319L11.5941 31.1256L11.6442 31.1131H11.6754L11.6942 31.1194C11.7254 31.1231 11.7567 31.1231 11.7879 31.1194H11.8067C11.9759 31.1048 12.0874 31.0169 12.1411 30.8558C12.1949 30.6946 12.1584 30.5574 12.0317 30.4442Z" fill="black"/>
</g>
<defs>
<clipPath id="clip0_1_7398">
<rect width="28" height="37" fill="white"/>
</clipPath>
</defs>
</svg>
