<svg width="38" height="40" viewBox="0 0 38 40" fill="none" xmlns="http://www.w3.org/2000/svg">
<g clip-path="url(#clip0_1_7381)">
<path d="M7.16433 5.39484C7.16433 5.49646 7.20026 5.5832 7.27211 5.65505C7.34397 5.72691 7.43071 5.76284 7.53233 5.76284C7.63395 5.76284 7.72069 5.72691 7.79255 5.65505C7.86441 5.5832 7.90034 5.49646 7.90034 5.39484C7.90034 5.29321 7.86441 5.20648 7.79255 5.13462C7.72069 5.06276 7.63395 5.02683 7.53233 5.02683C7.43071 5.02683 7.34397 5.06276 7.27211 5.13462C7.20026 5.20648 7.16433 5.29321 7.16433 5.39484ZM7.85945 5.6061L7.89352 5.55839C7.9067 5.53896 7.91806 5.51852 7.92759 5.49706L7.9753 5.39484C7.98019 5.38592 7.98473 5.37684 7.98893 5.36758L8.02982 5.24491L8.07752 5.14269L8.13886 5.04728L8.19338 4.97231L8.21382 4.95187L8.27515 4.92461C8.27974 4.92242 8.28428 4.92015 8.28878 4.91779L8.4796 4.81557C8.48886 4.81137 8.49794 4.80682 8.50686 4.80194L9.24968 4.33171C9.37882 4.25188 9.41384 4.14204 9.35475 4.0022C9.29566 3.86235 9.19249 3.81091 9.04524 3.84786L8.19338 4.05912C8.18421 4.06108 8.17512 4.06335 8.16612 4.06593L7.96167 4.12727C7.94303 4.13285 7.92486 4.13966 7.90715 4.14771L7.77767 4.20905C7.73149 4.23126 7.6906 4.26079 7.655 4.29764L7.56641 4.38623C7.54865 4.40523 7.53275 4.42568 7.5187 4.44757L7.43692 4.57024C7.42351 4.59192 7.41215 4.61464 7.40285 4.63838L7.34151 4.78831C7.33916 4.79281 7.33689 4.79736 7.3347 4.80194L7.27337 4.95187C7.27329 4.95641 7.27329 4.96096 7.27337 4.9655L7.22566 5.1018L7.19159 5.20402C7.19157 5.20629 7.19157 5.20856 7.19159 5.21083L7.17114 5.26535C7.1036 5.47734 7.16953 5.63269 7.36892 5.7314C7.56831 5.83011 7.73182 5.78834 7.85945 5.6061Z" fill="black"/>
<path d="M9.16792 3.88197C9.16792 4.08188 9.26787 4.18183 9.46777 4.18183C9.66768 4.18183 9.76763 4.08188 9.76763 3.88197C9.76763 3.68207 9.66768 3.58212 9.46777 3.58212C9.26787 3.58212 9.16792 3.68207 9.16792 3.88197ZM9.8017 4.09323L9.80852 4.08642L9.82215 4.06598C9.87949 3.97842 9.89898 3.88312 9.88062 3.78009C9.86226 3.67705 9.81105 3.59435 9.727 3.53199C9.64295 3.46962 9.54895 3.4446 9.44502 3.4569C9.34108 3.4692 9.25553 3.51549 9.18836 3.59575L9.16792 3.62301C9.1196 3.68527 9.09234 3.75569 9.08614 3.83427V3.85471C9.06997 4.0569 9.15809 4.19006 9.35051 4.2542C9.54293 4.31834 9.69333 4.26468 9.8017 4.09323ZM9.48822 4.10686L9.52911 4.11368C9.71084 4.14548 9.8176 4.07052 9.84941 3.88879C9.88121 3.70706 9.80625 3.60029 9.62452 3.56849L9.58363 3.56167C9.4019 3.52987 9.29513 3.60483 9.26333 3.78656C9.23152 3.9683 9.30649 4.07506 9.48822 4.10686Z" fill="black"/>
<path d="M7.45739 6.32853L7.47102 6.34216C7.50121 6.40939 7.54664 6.46391 7.60732 6.50572L7.66184 6.53979C7.70544 6.56982 7.75314 6.59027 7.80495 6.60113L7.9208 6.62157C7.97532 6.6331 8.02984 6.6331 8.08436 6.62157L8.24792 6.58068C8.27357 6.5763 8.29856 6.56948 8.32288 6.56024L8.52051 6.47165C8.53221 6.46539 8.54357 6.45858 8.55459 6.4512L8.74541 6.34216C8.74999 6.33998 8.75454 6.33771 8.75904 6.33535L8.93622 6.22631C8.94791 6.22004 8.95926 6.21322 8.9703 6.20587L9.14748 6.06957L9.3383 5.95371C9.35239 5.94531 9.36602 5.93623 9.37919 5.92646L9.57682 5.78334C9.66012 5.72277 9.71691 5.64326 9.74719 5.54482L9.78808 5.42215C9.67772 5.43884 9.60503 5.50017 9.57001 5.60616L9.74719 5.5789C9.89353 5.53084 9.95498 5.43069 9.93156 5.27846C9.90814 5.12623 9.81943 5.04919 9.66541 5.04734L9.60408 5.05415L9.59727 5.04734C9.45409 4.93103 9.29734 4.90831 9.12704 4.97919L8.89533 5.07459C8.81297 5.1083 8.74482 5.16055 8.69089 5.23134L8.54777 5.42215L8.42511 5.5789L8.31607 5.66067L8.17296 5.74927L8.02303 5.81742L7.97532 5.82423H7.94125C7.98373 5.84857 8.02916 5.86448 8.07755 5.87194L8.02303 5.83786C7.96624 5.80434 7.90491 5.78617 7.83903 5.78334H7.81858C7.75171 5.78044 7.68845 5.79418 7.6288 5.82456C7.56916 5.85495 7.52085 5.89804 7.48388 5.95384C7.44691 6.00965 7.42607 6.07093 7.42135 6.1377C7.41663 6.20447 7.42864 6.26808 7.45739 6.32853Z" fill="black"/>
<path d="M35.2179 13.7081C35.2179 13.9216 35.3247 14.0283 35.5382 14.0283C35.7516 14.0283 35.8584 13.9216 35.8585 13.7081C35.8584 13.4947 35.7516 13.3879 35.5382 13.3879C35.3247 13.3879 35.2179 13.4947 35.2179 13.7081ZM35.8039 13.5173L35.7971 13.5105V13.5037C35.6749 13.3563 35.5318 13.332 35.3678 13.4308C35.2038 13.5296 35.1583 13.6675 35.2315 13.8444L35.2451 13.8717C35.2577 13.8988 35.2736 13.9238 35.2928 13.9467L35.361 14.0216C35.3632 14.0239 35.3655 14.0262 35.3678 14.0284L35.4768 14.1511L35.6131 14.3147C35.6216 14.3265 35.6307 14.3379 35.6404 14.3487L35.8244 14.5395C35.8375 14.5495 35.8511 14.5586 35.8653 14.5668L36.0902 14.744C36.1074 14.7568 36.1256 14.7682 36.1447 14.7781L36.3832 14.9075C36.3921 14.9125 36.4012 14.917 36.4105 14.9212L36.6354 15.0234L36.7035 15.0575L36.6626 14.9961V15.0234L36.6422 15.1665C36.6345 15.2048 36.6322 15.2434 36.6354 15.2824L36.649 15.4187C36.666 15.572 36.7455 15.6787 36.8875 15.739L36.942 15.7662C36.9939 15.7903 37.0484 15.8016 37.1056 15.8003L37.1942 15.7935C37.1353 15.7588 37.0717 15.7429 37.0034 15.7458L37.0783 15.7935C37.0741 15.6709 37.0196 15.5778 36.9148 15.5141V15.5618L36.8807 15.6299L36.7853 15.7662L36.7035 15.8821C36.5661 16.0667 36.5865 16.2318 36.7647 16.3774C36.9429 16.523 37.1088 16.5101 37.2623 16.3387L37.3577 16.2365C37.382 16.2121 37.4024 16.1848 37.4191 16.1547L37.5077 15.9911C37.5224 15.9653 37.5337 15.938 37.5417 15.9093L37.5894 15.7253C37.5999 15.6897 37.6045 15.6534 37.6031 15.6163L37.5963 15.48C37.5912 15.3842 37.5526 15.3047 37.4804 15.2415L37.4123 15.1801C37.3776 15.1523 37.3389 15.1318 37.2964 15.1188L37.2146 15.0847C37.2497 15.2064 37.3269 15.2881 37.4463 15.3301L37.4259 15.2687C37.4123 15.3329 37.4146 15.3965 37.4327 15.4596L37.46 15.3233C37.46 15.321 37.46 15.3187 37.46 15.3164L37.494 15.1256C37.5017 15.0873 37.504 15.0487 37.5008 15.0098L37.4804 14.8258C37.4712 14.7244 37.4303 14.6381 37.3577 14.5668L37.2419 14.4578C37.1965 14.416 37.1443 14.3865 37.0851 14.3692L36.9284 14.3215L36.758 14.2397L36.574 14.1102L36.3628 13.9398L36.1515 13.7763C36.1471 13.7716 36.1425 13.7671 36.1379 13.7626L35.9675 13.64L35.8448 13.5378L35.7699 13.4696L35.7494 13.4492C35.5809 13.341 35.434 13.365 35.3086 13.5212C35.1833 13.6773 35.1917 13.826 35.3337 13.9671H35.3405L35.3473 13.9739C35.4978 14.0823 35.6386 14.0709 35.7698 13.9397C35.9009 13.8086 35.9123 13.6678 35.8039 13.5173ZM36.7921 15.9707L36.7717 15.9911C36.6582 16.1047 36.6582 16.2183 36.7717 16.3318C36.8853 16.4453 36.9988 16.4453 37.1124 16.3319L37.1328 16.3114C37.2463 16.1978 37.2463 16.0843 37.1328 15.9708C37.0192 15.8572 36.9057 15.8572 36.7921 15.9707Z" fill="black"/>
<path d="M34.2366 14.5941C34.2366 14.7803 34.3298 14.8734 34.516 14.8734C34.7022 14.8734 34.7953 14.7803 34.7954 14.5941C34.7953 14.4079 34.7022 14.3148 34.516 14.3148C34.3298 14.3148 34.2366 14.4079 34.2366 14.5941ZM34.7409 14.3351L34.7204 14.3215C34.6841 14.2905 34.6432 14.2678 34.5978 14.2533L34.5637 14.2397C34.488 14.2169 34.413 14.2192 34.3388 14.2465L34.3047 14.2602C34.1395 14.3208 34.0622 14.4389 34.073 14.6145V14.6486C34.0813 14.7713 34.1381 14.8644 34.2434 14.928L34.3047 14.9689C34.2761 14.9064 34.2329 14.8564 34.1752 14.819L34.2093 14.8871L34.2434 14.9962C34.2434 14.9984 34.2434 15.0007 34.2434 15.003L34.3047 15.1597C34.3172 15.1911 34.3331 15.2206 34.3524 15.2483L34.4478 15.3983C34.4836 15.4516 34.529 15.4948 34.5841 15.5277L34.7749 15.6436C34.7966 15.657 34.8194 15.6683 34.8431 15.6777L35.0816 15.7663L35.2315 15.8412L35.2997 15.923L35.3678 16.1206C35.3749 16.1463 35.384 16.1713 35.3951 16.1956L35.5314 16.4409C35.6833 16.6773 35.8875 16.7383 36.1441 16.6238C36.4007 16.5093 36.4918 16.3166 36.4173 16.0457L36.3219 15.7799C36.309 15.7488 36.2931 15.7192 36.2742 15.6913L36.1243 15.446C36.0903 15.3918 36.0471 15.3464 35.9948 15.3097L35.7631 15.1461C35.7436 15.1331 35.7231 15.1217 35.7018 15.112L35.436 14.9825C35.4248 14.9775 35.4135 14.973 35.4019 14.9689L35.1838 14.8939L35.1293 14.8531L35.1021 14.8122L35.0544 14.6895C35.0311 14.6322 34.997 14.5822 34.9521 14.5396L34.8499 14.4442C34.8011 14.3981 34.7443 14.3663 34.6795 14.3488L34.6318 14.3351L34.6046 14.3215C34.5964 14.467 34.6555 14.576 34.7818 14.6486V14.6145C34.6482 14.6733 34.5778 14.7755 34.5705 14.9212L34.6046 14.9076C34.5431 14.9012 34.4841 14.9103 34.4274 14.9348H34.4615C34.4796 14.9362 34.4978 14.9362 34.516 14.9348H34.5364C34.6906 14.9273 34.7926 14.8505 34.8424 14.7044C34.8922 14.5583 34.8584 14.4352 34.7409 14.3351ZM36.0561 16.5909L36.2265 16.6454C36.3687 16.6729 36.4621 16.6178 36.5066 16.48C36.5512 16.3423 36.5078 16.2429 36.3764 16.182L36.2061 16.1274C36.0639 16.0999 35.9705 16.155 35.9259 16.2928C35.8814 16.4306 35.9248 16.5299 36.0561 16.5909Z" fill="black"/>
<path d="M13.5462 11.9204V11.9068C13.5543 11.8385 13.5452 11.7727 13.519 11.7092L13.4781 11.6138C13.4739 11.6045 13.4693 11.5954 13.4645 11.5865L13.369 11.382L13.2396 11.1026L13.1101 10.8096L12.9874 10.4143L12.8852 9.86233L12.817 9.15358L12.783 8.31535L12.8034 7.38853L12.9124 6.40718L13.0828 5.43266L13.2668 4.59443L13.4304 3.98109L13.5258 3.68123L13.6076 3.57219C13.7498 3.38351 13.7348 3.20824 13.5627 3.04637C13.3906 2.88451 13.2147 2.88032 13.0351 3.03382L12.8784 3.17012C12.834 3.21044 12.7999 3.25815 12.7761 3.31323L12.6126 3.68123C12.6019 3.70097 12.5928 3.72142 12.5853 3.74257L12.415 4.37635C12.4125 4.38311 12.4103 4.38992 12.4081 4.39679L12.2173 5.24865C12.2149 5.25541 12.2126 5.26223 12.2105 5.2691L12.0401 6.27089C12.0397 6.28224 12.0397 6.2936 12.0401 6.30496L11.9447 7.32038C11.9443 7.33174 11.9443 7.34309 11.9447 7.35445L11.9243 8.30854C11.924 8.31762 11.924 8.32671 11.9243 8.3358L11.9584 9.20129C11.9605 9.20816 11.9627 9.21497 11.9652 9.22173L12.0401 9.96455C12.0417 9.97829 12.044 9.99192 12.047 10.0054L12.1628 10.5983C12.1664 10.6145 12.171 10.6304 12.1764 10.646L12.3127 11.0822C12.3168 11.0937 12.3213 11.1051 12.3264 11.1163L12.4627 11.4366C12.4649 11.4412 12.4671 11.4457 12.4695 11.4502L12.6058 11.7432C12.6098 11.7548 12.6144 11.7662 12.6194 11.7773L12.7353 11.9749C12.7489 11.9993 12.7648 12.022 12.783 12.0431L12.8511 12.1181C12.9426 12.2256 13.0585 12.271 13.1987 12.2544H13.2123C13.4139 12.2333 13.5252 12.122 13.5462 11.9204ZM13.26 3.54493L13.3486 3.60627C13.4896 3.68507 13.6058 3.65792 13.6973 3.52484C13.7888 3.39176 13.7725 3.27352 13.6485 3.17012L13.5599 3.10878C13.4189 3.02998 13.3027 3.05713 13.2112 3.19021C13.1197 3.32329 13.136 3.44153 13.26 3.54493Z" fill="black"/>
<path d="M13.2737 2.98607C13.2737 3.09898 13.3136 3.19536 13.3935 3.2752C13.4733 3.35504 13.5697 3.39496 13.6826 3.39496C13.7955 3.39496 13.8919 3.35504 13.9717 3.2752C14.0516 3.19536 14.0915 3.09898 14.0915 2.98607C14.0915 2.87316 14.0516 2.77678 13.9717 2.69694C13.8919 2.6171 13.7955 2.57718 13.6826 2.57718C13.5697 2.57718 13.4733 2.6171 13.3935 2.69694C13.3136 2.77678 13.2737 2.87316 13.2737 2.98607ZM13.4168 3.32L13.4372 3.34045C13.4768 3.37006 13.5199 3.39278 13.5667 3.40859L13.6349 3.43585L13.7575 3.48356L13.9347 3.55171L14.2141 3.70845L14.7866 4.12416C14.8166 4.14737 14.8484 4.16781 14.882 4.18549L15.6385 4.55349C15.643 4.55584 15.6475 4.55811 15.6521 4.56031L16.3336 4.86016L16.797 5.22817C16.9276 5.29981 17.0394 5.27749 17.1324 5.16119C17.2254 5.0449 17.2227 4.93093 17.1241 4.81927L16.6607 4.45127L16.2109 3.85838C16.2087 3.85608 16.2064 3.85381 16.2041 3.85156L15.6793 3.19052C15.6469 3.15226 15.6106 3.11819 15.5703 3.08829L14.991 2.62488C14.945 2.58878 14.895 2.55925 14.8411 2.53629L14.4663 2.37273C14.3658 2.33044 14.2613 2.31454 14.1528 2.32503L13.9211 2.33866C13.7884 2.34961 13.6726 2.39959 13.5735 2.48858L13.4781 2.57718C13.4664 2.58578 13.455 2.59487 13.4441 2.60444L13.3964 2.65896C13.3757 2.68212 13.3575 2.70711 13.3418 2.73392L13.3214 2.75437C13.1839 2.97146 13.2157 3.16001 13.4168 3.32Z" fill="black"/>
<path d="M13.4167 3.36766L13.4099 3.38129C13.3801 3.40935 13.3552 3.44115 13.3349 3.4767L13.2941 3.53804C13.2787 3.56842 13.2674 3.60022 13.26 3.63344L13.1986 3.83108C13.1985 3.83789 13.1985 3.84471 13.1986 3.85152L13.1101 4.23997C13.1076 4.24672 13.1053 4.25354 13.1032 4.26041L12.9942 4.87375C12.9941 4.8783 12.9941 4.88284 12.9942 4.88738L12.8783 5.65746C12.8738 5.68224 12.8715 5.70723 12.8715 5.73243L12.892 6.46844L12.7966 7.07496C12.7694 7.25664 12.8466 7.3611 13.0283 7.38835C13.21 7.4156 13.3144 7.3384 13.3418 7.15674L13.4304 6.55021L13.6689 5.84828C13.675 5.82819 13.6795 5.80774 13.6825 5.78695L13.812 5.01687L13.921 4.41716L14.0028 4.04234L14.0437 3.87878L14.0641 3.83789C14.0789 3.80061 14.088 3.76199 14.0914 3.72204L14.0982 3.70841C14.1247 3.51781 14.0519 3.37947 13.8798 3.29341C13.7077 3.20735 13.5533 3.2321 13.4167 3.36766Z" fill="black"/>
<path d="M16.9128 4.81245C16.9128 4.91784 16.95 5.00779 17.0245 5.08231C17.099 5.15683 17.189 5.19409 17.2944 5.19409C17.3998 5.19409 17.4897 5.15683 17.5642 5.08231C17.6388 5.00779 17.676 4.91784 17.676 4.81245C17.676 4.70707 17.6388 4.61712 17.5642 4.5426C17.4897 4.46808 17.3998 4.43082 17.2944 4.43082C17.189 4.43082 17.099 4.46808 17.0245 4.5426C16.95 4.61712 16.9128 4.70707 16.9128 4.81245ZM16.8855 4.81245C16.8855 4.92536 16.9254 5.02174 17.0053 5.10158C17.0851 5.18142 17.1815 5.22135 17.2944 5.22135C17.4073 5.22135 17.5037 5.18142 17.5835 5.10158C17.6634 5.02174 17.7033 4.92536 17.7033 4.81245C17.7033 4.69954 17.6634 4.60316 17.5835 4.52332C17.5037 4.44348 17.4073 4.40356 17.2944 4.40356C17.1815 4.40356 17.0851 4.44348 17.0053 4.52332C16.9254 4.60316 16.8855 4.69954 16.8855 4.81245ZM17.4648 5.28268L17.5874 5.2486C17.6516 5.22932 17.7107 5.19979 17.7646 5.16001L17.9963 4.98964C18.0056 4.98309 18.0147 4.97627 18.0236 4.96919L18.3575 4.6966C18.3644 4.6922 18.3712 4.68765 18.378 4.68297L18.7732 4.3286C18.7802 4.32195 18.787 4.31513 18.7937 4.30815L19.2434 3.86518C19.2504 3.85853 19.2572 3.85172 19.2639 3.84474L19.7477 3.31999L20.2452 2.78843L20.6746 2.34546L20.9949 2.03198C21.0419 1.98595 21.0805 1.9337 21.1107 1.87524L21.2129 1.68442L21.2606 1.60264C21.3325 1.49528 21.348 1.38032 21.3072 1.25774C21.2663 1.13517 21.1849 1.05251 21.063 1.00975L20.9472 0.968858C20.8694 0.942044 20.7899 0.935229 20.7086 0.948414L20.4633 0.996118C20.3432 1.01721 20.2387 1.06946 20.1498 1.15286L19.8159 1.45953C19.8065 1.46833 19.7974 1.47742 19.7886 1.48679L19.3593 1.94339C19.3547 1.94786 19.3501 1.9524 19.3457 1.95702L18.855 2.50902L18.3848 3.01332L17.9554 3.44266L17.5806 3.78341L17.2603 4.056C17.2557 4.06047 17.2511 4.06501 17.2467 4.06963L17.0354 4.26045C16.964 4.32468 16.9117 4.40192 16.8787 4.49215L16.8378 4.60801C16.7662 4.80609 16.8021 4.98228 16.9455 5.13656C17.0889 5.29084 17.262 5.33955 17.4648 5.28268ZM20.8177 1.5822L20.8722 1.66398C20.9676 1.80936 21.088 1.83435 21.2334 1.73894C21.3788 1.64353 21.4038 1.52314 21.3084 1.37775L21.2538 1.29597C21.1584 1.15059 21.038 1.1256 20.8926 1.22101C20.7473 1.31642 20.7223 1.43681 20.8177 1.5822Z" fill="black"/>
<path d="M18.9573 3.32001L18.9709 3.3132L19.0323 3.25868C19.0391 3.25658 19.046 3.25431 19.0527 3.25187L19.2163 3.10875L19.4889 2.92475L19.9114 2.73393L20.5179 2.57038L21.2744 2.49541L22.1262 2.51586L22.9508 2.60445L23.5982 2.73393L24.0412 2.95883L24.3206 3.23824L24.4228 3.60624C24.4683 3.7698 24.5728 3.82886 24.7363 3.78343C24.8999 3.73799 24.9589 3.6335 24.9135 3.46994L24.7908 3.0406C24.7908 3.03833 24.7908 3.03606 24.7908 3.03379L24.6273 2.52949C24.6106 2.47575 24.5833 2.42805 24.5455 2.38638L24.123 1.92978C24.0718 1.87217 24.0105 1.82901 23.939 1.8003L23.2302 1.53452C23.1928 1.51896 23.1542 1.5076 23.1144 1.50044L22.2489 1.37096C22.2284 1.36986 22.208 1.36986 22.1876 1.37096L21.2744 1.33688C21.2492 1.33753 21.2242 1.3398 21.1994 1.3437L20.3544 1.41866C20.315 1.42154 20.2764 1.42835 20.2385 1.43911L19.557 1.65037C19.5061 1.66642 19.4584 1.68913 19.4139 1.71852L18.9437 2.01837C18.9034 2.04306 18.867 2.07259 18.8346 2.10697L18.5689 2.40682C18.5455 2.43188 18.525 2.45914 18.5075 2.4886L18.3849 2.70667C18.3707 2.73277 18.3594 2.76003 18.3508 2.78845L18.3167 2.88386C18.2977 2.94412 18.2932 3.00546 18.3031 3.06786L18.3099 3.10875C18.3337 3.26331 18.42 3.36484 18.5687 3.41335C18.7173 3.46187 18.8469 3.43075 18.9573 3.32001Z" fill="black"/>
<path d="M24.2933 3.70165C24.2933 3.79574 24.3266 3.87606 24.3931 3.94259C24.4596 4.00913 24.54 4.04239 24.6341 4.04239C24.7281 4.04239 24.8085 4.00913 24.875 3.94259C24.9415 3.87606 24.9748 3.79574 24.9748 3.70165C24.9748 3.60755 24.9415 3.52724 24.875 3.46071C24.8085 3.39417 24.7281 3.3609 24.6341 3.3609C24.54 3.3609 24.4596 3.39417 24.3931 3.46071C24.3266 3.52724 24.2933 3.60755 24.2933 3.70165ZM24.6749 3.34727H24.6613C24.7174 3.48556 24.8196 3.56279 24.968 3.57898L24.9612 3.57217C24.9127 3.44528 24.8221 3.36766 24.6893 3.3393C24.5564 3.31094 24.442 3.34478 24.346 3.44082C24.2499 3.53686 24.2161 3.65129 24.2444 3.78412C24.2728 3.91694 24.3504 4.00758 24.4773 4.05602L24.4841 4.06284C24.6803 4.1387 24.8325 4.08646 24.9407 3.90609L24.9475 3.89247C25.0156 3.7791 25.0201 3.66329 24.9609 3.54503C24.9018 3.42676 24.8065 3.36085 24.6749 3.34727ZM24.2183 3.70165C24.2183 3.81456 24.2583 3.91094 24.3381 3.99078C24.418 4.07062 24.5143 4.11054 24.6272 4.11054C24.7402 4.11054 24.8365 4.07062 24.9164 3.99078C24.9962 3.91094 25.0361 3.81456 25.0361 3.70165C25.0361 3.58874 24.9962 3.49236 24.9164 3.41252C24.8365 3.33268 24.7402 3.29276 24.6272 3.29276C24.5143 3.29276 24.418 3.33268 24.3381 3.41252C24.2583 3.49236 24.2183 3.58874 24.2183 3.70165ZM24.2661 4.0015L24.3683 4.16506C24.3705 4.16964 24.3728 4.17418 24.3751 4.17869L24.5455 4.43766L24.7431 4.81247L24.968 5.30315C24.9874 5.34745 25.0124 5.38834 25.0429 5.42581L25.4178 5.86878C25.4262 5.88063 25.4353 5.89199 25.445 5.90286L25.779 6.22316L25.9698 6.52301C26.0639 6.64701 26.1764 6.66681 26.3073 6.5824C26.4381 6.49798 26.4665 6.38732 26.3923 6.25041L26.2151 5.96419L26.1197 5.52122C26.1175 5.51664 26.1152 5.51209 26.1129 5.50759L25.963 4.94877C25.9561 4.92077 25.947 4.89351 25.9357 4.86699L25.704 4.35588C25.6978 4.34195 25.6909 4.32832 25.6835 4.31499L25.4655 3.91291C25.4569 3.90117 25.4478 3.88982 25.4382 3.87884L25.2542 3.59943C25.2275 3.55865 25.1957 3.5223 25.1588 3.49039L25.0089 3.3609C24.793 3.1825 24.5791 3.18474 24.367 3.36762C24.155 3.55049 24.1213 3.76179 24.2661 4.0015Z" fill="black"/>
<path d="M26.3719 7.14997L26.3174 7.20449C26.2776 7.24588 26.2481 7.29358 26.2288 7.34761L26.1266 7.64065C26.0889 7.74603 26.0941 7.84929 26.142 7.95042C26.1899 8.05155 26.2665 8.12094 26.3719 8.15858C26.4773 8.19621 26.5805 8.19108 26.6817 8.14318C26.7828 8.09527 26.8522 8.01863 26.8898 7.91324L26.9921 7.6202C27.0028 7.58923 27.0096 7.55743 27.0125 7.52479L27.0193 7.44301C27.0375 7.26424 26.9647 7.13781 26.801 7.06372C26.6373 6.98962 26.4943 7.01837 26.3719 7.14997Z" fill="black"/>
<path d="M25.8312 8.98916C25.8312 9.10019 25.8705 9.19496 25.949 9.27347C26.0275 9.35198 26.1223 9.39124 26.2333 9.39124C26.3443 9.39124 26.4391 9.35198 26.5176 9.27347C26.5961 9.19496 26.6354 9.10019 26.6354 8.98916C26.6354 8.87813 26.5961 8.78336 26.5176 8.70485C26.4391 8.62634 26.3443 8.58708 26.2333 8.58708C26.1223 8.58708 26.0275 8.62634 25.949 8.70485C25.8705 8.78336 25.8312 8.87813 25.8312 8.98916ZM25.9334 8.69612L25.9062 8.72338C25.8792 8.75215 25.8565 8.78395 25.838 8.81879L25.7494 8.96872C25.7389 8.98853 25.7298 9.00897 25.7222 9.03005L25.5859 9.38442L25.3474 9.96369C25.3344 9.99673 25.3253 10.0308 25.3201 10.0659L25.2111 10.727L24.9589 11.2926C24.9115 11.4527 24.9641 11.5669 25.1165 11.6351C25.2689 11.7033 25.389 11.6663 25.4768 11.5243L25.729 10.9587L26.1515 10.4407C26.1758 10.4114 26.1963 10.3796 26.2129 10.3453L26.4786 9.77969C26.484 9.76401 26.4885 9.74811 26.4923 9.73198L26.6217 9.37079C26.6351 9.33551 26.6442 9.29916 26.649 9.26176L26.6695 9.08457C26.6804 8.9933 26.6645 8.90697 26.6217 8.8256L26.6013 8.79153C26.5355 8.66579 26.4323 8.59288 26.2918 8.57281C26.1513 8.55274 26.0318 8.59384 25.9334 8.69612Z" fill="black"/>
<path d="M24.4206 10.7201V10.7269V10.8223C24.4204 10.8498 24.4227 10.877 24.4274 10.9041L24.4751 11.1835C24.4772 11.1904 24.4795 11.1972 24.4819 11.2039L24.5773 11.6742C24.5853 11.7072 24.5967 11.739 24.6114 11.7696L24.8431 12.2875L24.9044 12.8668C24.9503 13.0207 25.0532 13.0901 25.2131 13.0749C25.373 13.0597 25.4609 12.9721 25.4769 12.8123L25.4224 12.2262L25.5314 11.6605C25.5433 11.5992 25.5433 11.5379 25.5314 11.4765L25.436 11.0063C25.4312 10.9808 25.4244 10.9558 25.4156 10.9313L25.3202 10.6656C25.3037 10.6212 25.281 10.5803 25.252 10.5429L25.1839 10.4475L25.1634 10.4202C25.0352 10.2532 24.8734 10.209 24.6781 10.2879C24.4827 10.3667 24.3969 10.5108 24.4206 10.7201Z" fill="black"/>
<path d="M3.42325 17.6955L3.40281 17.7296C3.36624 17.7833 3.34352 17.8424 3.33466 17.9068L3.32103 18.0022C3.32057 18.0136 3.32057 18.0249 3.32103 18.0363L3.31421 18.1658C3.31069 18.2268 3.31978 18.2858 3.34147 18.3429L3.40281 18.4997C3.41815 18.5389 3.43859 18.5753 3.46414 18.6087L3.62088 18.82C3.64504 18.8504 3.6723 18.8776 3.70266 18.9018L4.02978 19.1744C4.03424 19.179 4.03879 19.1835 4.04341 19.188L4.47274 19.5219L4.9566 19.9104C5.03112 19.9697 5.11517 20.0083 5.20875 20.0262L5.68579 20.1148L6.04698 20.4147C6.18493 20.506 6.30583 20.4873 6.4097 20.3585C6.51356 20.2297 6.50624 20.1076 6.38773 19.9922L6.03335 19.6991L5.85617 19.2425C5.82017 19.1482 5.76338 19.0686 5.68579 19.004L5.20194 18.6155C5.1866 18.6034 5.1707 18.592 5.15423 18.5815L4.70445 18.2748C4.68471 18.2622 4.66427 18.2508 4.64312 18.2407L4.26148 18.0499C4.25697 18.0476 4.25243 18.0453 4.24785 18.0431L4.12519 17.9886L4.16607 18.0499V18.0363C4.16653 18.0249 4.16653 18.0136 4.16607 18.0022L4.15245 17.9068C4.14913 17.8883 4.14459 17.8701 4.13882 17.8523L4.132 17.8114C4.0871 17.6486 3.98135 17.5537 3.81474 17.5264C3.64813 17.4992 3.51763 17.5556 3.42325 17.6955Z" fill="black"/>
<path d="M12.5383 8.53944H12.5178C12.4878 8.54083 12.4583 8.54538 12.4292 8.55307L12.3883 8.5667C12.3651 8.57163 12.3423 8.57844 12.3202 8.58714L12.2589 8.6144C12.2247 8.62854 12.1929 8.64671 12.1634 8.66892L12.1089 8.71663C12.0231 8.78321 11.9686 8.86953 11.9454 8.97559L11.9317 9.03693C11.8996 9.18047 11.9292 9.30995 12.0203 9.42538L12.1089 9.53441C12.1344 9.56797 12.164 9.5975 12.1975 9.62301L12.4156 9.77975C12.4178 9.78204 12.4201 9.78432 12.4224 9.78656L12.77 10.0183C12.7873 10.031 12.8055 10.0424 12.8245 10.0523L13.2606 10.2568L13.6082 10.5703C13.7471 10.6717 13.8741 10.6586 13.9894 10.531C14.1046 10.4034 14.1048 10.2756 13.9898 10.1478L13.6423 9.82745L13.3629 9.42538C13.3453 9.39807 13.3248 9.37308 13.3015 9.35041L12.9949 9.06419C12.9839 9.05456 12.9726 9.04547 12.9608 9.03693L12.7904 8.91426L12.7359 8.84611C12.7388 8.95424 12.7752 9.04965 12.8449 9.13234L12.8381 9.06419C12.7963 9.13577 12.7759 9.21301 12.7768 9.29589L12.8177 9.23456C12.7791 9.26762 12.7473 9.30624 12.7223 9.35041L12.7632 9.30952L12.7836 9.29589H12.7904C12.9603 9.17742 13.0125 9.01994 12.947 8.82344C12.8815 8.62694 12.7453 8.53228 12.5383 8.53944Z" fill="black"/>
<path d="M31.7154 13.7768C31.7154 13.886 31.7539 13.9791 31.8311 14.0563C31.9083 14.1335 32.0015 14.1721 32.1106 14.1721C32.2198 14.1721 32.3129 14.1335 32.3901 14.0563C32.4673 13.9791 32.5059 13.886 32.5059 13.7768C32.5059 13.6677 32.4673 13.5745 32.3901 13.4973C32.3129 13.4201 32.2198 13.3816 32.1106 13.3816C32.0015 13.3816 31.9083 13.4201 31.8311 13.4973C31.7539 13.5745 31.7154 13.6677 31.7154 13.7768ZM32.3764 13.477L32.3628 13.4633C32.3102 13.4135 32.2489 13.3794 32.1788 13.3611L32.1515 13.3543C31.9853 13.3147 31.8445 13.3579 31.729 13.4838L31.6608 13.5587C31.6405 13.5797 31.6223 13.6024 31.6063 13.6269L31.4632 13.8722L31.1565 14.3425C31.1517 14.3514 31.1472 14.3605 31.1429 14.3697L30.6931 15.1739C30.6884 15.1806 30.6838 15.1874 30.6795 15.1943L30.2502 16.0802L29.7731 16.7822C29.6686 16.9321 29.6913 17.0593 29.8413 17.1638C29.9912 17.2683 30.1184 17.2456 30.2229 17.0957L30.7068 16.3869L31.361 15.6577C31.3707 15.6468 31.3798 15.6355 31.3882 15.6237L31.9402 14.8876C31.9475 14.8766 31.9544 14.8652 31.9607 14.8536L32.2674 14.3697C32.2751 14.3542 32.2819 14.3383 32.2878 14.322L32.4173 14.063C32.429 14.0366 32.438 14.0094 32.4446 13.9813L32.4718 13.8859C32.4052 13.9426 32.3597 14.013 32.3355 14.0971L32.356 14.0835C32.2891 14.1008 32.23 14.1326 32.1788 14.1789L32.206 14.1721C32.3612 14.13 32.4579 14.0309 32.4962 13.8748C32.5345 13.7186 32.4945 13.586 32.3764 13.477Z" fill="black"/>
<path d="M3.36876 17.9548V17.9616C3.37065 18.0736 3.41163 18.1687 3.49173 18.247C3.57182 18.3254 3.66787 18.3642 3.77989 18.3636C3.89191 18.363 3.98752 18.323 4.06673 18.2438C4.14594 18.1646 4.18586 18.069 4.18648 17.957C4.18711 17.845 4.14827 17.7489 4.06995 17.6688C3.99163 17.5887 3.89647 17.5477 3.78447 17.5459H3.77766C3.66395 17.5439 3.56689 17.5832 3.48647 17.6636C3.40605 17.744 3.36682 17.841 3.36876 17.9548ZM3.34832 18.241L3.45736 18.5272C3.48906 18.6104 3.53676 18.6831 3.60047 18.7453L4.02299 19.1474C4.0686 19.1932 4.12085 19.2296 4.17973 19.2564L4.73855 19.5017L5.17471 19.972C5.27948 20.0767 5.38639 20.079 5.49543 19.9786C5.60448 19.8783 5.61115 19.7716 5.51545 19.6585L5.0793 19.1951L4.90211 18.609C4.88914 18.5658 4.87097 18.5249 4.84759 18.4863L4.54092 17.9888C4.50545 17.9342 4.46229 17.8865 4.41144 17.8457L4.17973 17.6481C3.9709 17.4828 3.75807 17.4775 3.54125 17.6321C3.32442 17.7868 3.26011 17.9897 3.34832 18.241Z" fill="black"/>
<path d="M4.35242 35.8649L4.37287 35.8717C4.35963 35.8641 4.346 35.8573 4.33198 35.8512L4.40013 35.8921L4.58413 36.0898C4.62551 36.1344 4.67321 36.1707 4.72724 36.1988L5.28606 36.485C5.31245 36.4985 5.33971 36.5098 5.36784 36.5191L6.31511 36.8326C6.3441 36.8417 6.37363 36.8485 6.4037 36.853L7.71216 37.0779L9.22506 37.3709C9.23642 37.3714 9.24778 37.3714 9.25914 37.3709L10.6766 37.5277L11.7875 37.7185C11.9419 37.7256 12.0331 37.6532 12.0611 37.5012C12.0891 37.3491 12.0297 37.2489 11.8829 37.2006L10.772 37.0029L9.40225 36.6145C9.39998 36.6145 9.39771 36.6145 9.39544 36.6145L7.92342 36.2329L6.71037 35.749C6.7036 35.7466 6.69678 35.7443 6.68993 35.7422L5.74266 35.4151C5.73589 35.4127 5.72907 35.4104 5.72221 35.4083L5.1225 35.2243C5.09134 35.2145 5.05953 35.2077 5.0271 35.2038L4.7545 35.1766L4.67954 35.1493C4.65945 35.1431 4.63901 35.1386 4.6182 35.1357L4.59776 35.1289C4.49818 35.1014 4.40282 35.112 4.31168 35.1606C4.22054 35.2092 4.15864 35.2825 4.12597 35.3805C4.09331 35.4785 4.09885 35.5743 4.14259 35.6678C4.18634 35.7614 4.25628 35.8271 4.35242 35.8649Z" fill="black"/>
<path d="M3.77309 32.0008C3.77309 32.1081 3.81102 32.1996 3.88687 32.2755C3.96272 32.3513 4.05427 32.3893 4.16154 32.3893C4.26881 32.3893 4.36037 32.3513 4.43622 32.2755C4.51206 32.1996 4.54999 32.1081 4.54999 32.0008C4.54999 31.8935 4.51206 31.802 4.43622 31.7261C4.36037 31.6503 4.26881 31.6124 4.16154 31.6124C4.05427 31.6124 3.96272 31.6503 3.88687 31.7261C3.81102 31.802 3.77309 31.8935 3.77309 32.0008ZM3.87532 31.7282L3.85487 31.7487C3.8742 31.7366 3.89238 31.7229 3.90939 31.7078L3.81398 31.7759C3.78319 31.7996 3.75593 31.8269 3.7322 31.8577L3.55502 32.0826C3.53651 32.1083 3.52061 32.1356 3.50731 32.1644L3.32331 32.5255C3.31261 32.5476 3.30352 32.5703 3.29605 32.5937L3.16657 32.9958C3.1507 33.0422 3.14162 33.0899 3.13931 33.1389L3.12568 33.4933C3.1234 33.5796 3.14157 33.6614 3.1802 33.7386L3.30968 34.0044C3.3313 34.047 3.35856 34.0856 3.39146 34.1202L3.54139 34.2838L3.60272 34.3656L3.60954 34.4882L3.58228 34.8222C3.5816 34.8381 3.5816 34.854 3.58228 34.8699V35.2856C3.58282 35.3247 3.58736 35.3633 3.59591 35.4014L3.67768 35.7831C3.70356 35.9084 3.7649 36.0129 3.86169 36.0965L4.11384 36.3078C4.1956 36.3801 4.29101 36.4188 4.40006 36.4237H4.56362L4.70673 36.5054C4.85297 36.5564 4.96451 36.5147 5.04135 36.3802C5.11819 36.2458 5.09751 36.1285 4.97933 36.0284L4.88392 35.9739L4.86347 35.8717C4.86148 35.8625 4.85921 35.8534 4.85666 35.8444L4.7817 35.5377L4.71355 35.2174L4.69992 34.8562C4.7008 34.8381 4.7008 34.8199 4.69992 34.8017L4.65221 34.4269C4.64674 34.3725 4.63312 34.3203 4.61132 34.2702L4.48866 34.0044C4.47207 33.9701 4.45163 33.9383 4.42732 33.909L4.28421 33.725L4.20243 33.5887L4.16154 33.4592L4.16836 33.2479L4.27058 32.9276L4.41369 32.5733C4.41611 32.5665 4.41838 32.5597 4.42051 32.5528L4.51591 32.287C4.52725 32.2515 4.53406 32.2152 4.53636 32.178L4.54317 32.0826L4.54999 32.0621C4.5786 31.872 4.50676 31.7343 4.33446 31.6491C4.16217 31.5638 4.00912 31.5902 3.87532 31.7282Z" fill="black"/>
<path d="M27.5844 35.485L27.6185 35.4919C27.6662 35.4998 27.7139 35.4998 27.7616 35.4919L27.8638 35.4714C27.9063 35.4656 27.9472 35.4543 27.9865 35.4373L28.7906 35.0625C28.8022 35.0584 28.8135 35.0538 28.8247 35.0489L29.7311 34.5446C29.7334 34.5446 29.7356 34.5446 29.7379 34.5446L30.9169 33.8767C30.9333 33.8686 30.9492 33.8595 30.9646 33.8495L32.1231 33.0249L33.2339 32.4797C33.3975 32.3979 33.4384 32.2752 33.3566 32.1117C33.2748 31.9481 33.1522 31.9072 32.9886 31.989L31.8778 32.541L30.5284 33.0112C30.5099 33.0169 30.4917 33.0238 30.4739 33.0317L29.2609 33.6382C29.254 33.6403 29.2472 33.6426 29.2404 33.645L28.3272 34.1357C28.3203 34.1401 28.3135 34.1446 28.3068 34.1493L27.5435 34.5991C27.4987 34.6288 27.46 34.6652 27.4277 34.7081L27.3595 34.7831C27.3223 34.8276 27.295 34.8776 27.2777 34.933L27.2709 34.9603C27.2341 35.077 27.2471 35.188 27.3098 35.2931C27.3726 35.3982 27.4641 35.4622 27.5844 35.485Z" fill="black"/>
<path d="M32.7774 28.3363L32.7638 28.3431C32.7592 28.3453 32.7547 28.3475 32.7502 28.3499L32.7365 28.3567C32.7575 28.3515 32.778 28.3447 32.7979 28.3363L32.7706 28.3431C32.7124 28.359 32.6602 28.3862 32.6139 28.4248L32.6002 28.4317C32.5583 28.466 32.5242 28.5069 32.498 28.5543L32.4912 28.5611C32.4287 28.6744 32.4194 28.7919 32.4632 28.9137C32.5069 29.0354 32.589 29.1201 32.7093 29.1677L32.757 29.1881C32.7921 29.2019 32.8285 29.211 32.866 29.2154L32.9955 29.2358L33.1659 29.2631L33.2817 29.3244L33.3431 29.3926L33.3771 29.522L33.3703 29.7674C33.3701 29.7765 33.3701 29.7855 33.3703 29.7946V30.1081C33.371 30.167 33.3824 30.2238 33.4044 30.2785L33.5475 30.6124C33.5589 30.6387 33.5725 30.6636 33.5884 30.6874L33.8269 31.0622L34.0314 31.4302L34.0995 31.8118C34.1058 31.8422 34.1149 31.8718 34.1268 31.9004L34.1949 32.0913L34.0927 32.2753C34.0018 32.4388 34.0382 32.566 34.2017 32.6569C34.3653 32.7478 34.4925 32.7114 34.5834 32.5478L34.7265 32.2821L34.9377 32.0844C35.0746 31.9516 35.1201 31.7925 35.074 31.6074L34.965 31.1508C34.953 31.0973 34.9326 31.0474 34.9037 31.0009L34.6174 30.5715L34.3925 30.2172L34.3108 30.0127V29.8014L34.3312 29.488C34.3324 29.4369 34.3256 29.3869 34.3108 29.338L34.229 29.0382C34.2042 28.9526 34.1588 28.8799 34.0927 28.8201L33.8814 28.6225C33.8322 28.5757 33.7754 28.5417 33.7111 28.5203L33.4385 28.4317C33.4161 28.4253 33.3934 28.4208 33.3703 28.418L33.1318 28.3771L32.9887 28.3567C32.9819 28.3565 32.9751 28.3565 32.9682 28.3567L32.9137 28.3499C32.9869 28.4758 33.096 28.5462 33.2408 28.5611L33.234 28.5543C33.1148 28.7019 33.1012 28.8586 33.1931 29.0246L33.1999 29.0109C33.1088 29.0333 33.0339 29.081 32.9751 29.154L33.0023 29.1472C33.0406 29.1387 33.0769 29.1251 33.1114 29.1063L33.125 29.0995C33.2115 29.051 33.2729 28.9806 33.309 28.8883L33.3158 28.8746C33.3816 28.706 33.3505 28.5576 33.2225 28.4296C33.0944 28.3015 32.9461 28.2704 32.7774 28.3363Z" fill="black"/>
<path d="M24.6831 36.6817L24.6899 36.6749C24.6969 36.6706 24.7037 36.666 24.7104 36.6613L24.7989 36.5999L25.092 36.4023C25.1037 36.3937 25.1151 36.3846 25.1261 36.3751L25.644 35.9525L26.4413 35.3392C26.4459 35.337 26.4505 35.3347 26.455 35.3324L27.4908 34.4805C27.5026 34.4719 27.5139 34.4628 27.5249 34.4533L28.6289 33.3901C28.6337 33.3835 28.6382 33.3766 28.6425 33.3697L29.5694 32.3611L30.3667 31.6523C30.5075 31.5297 30.5166 31.3979 30.394 31.2571C30.2713 31.1162 30.1395 31.1072 29.9987 31.2298L29.2014 31.9454L28.0837 32.7359C28.0791 32.7381 28.0746 32.7404 28.0701 32.7427L26.8502 33.6627C26.8457 33.6649 26.8411 33.6672 26.8366 33.6695L25.7939 34.5078L24.9966 35.1347C24.992 35.137 24.9875 35.1392 24.9829 35.1416L24.465 35.5777C24.4343 35.6041 24.407 35.6336 24.3832 35.6663L24.172 35.9525C24.1384 35.9957 24.1134 36.0435 24.097 36.0956L24.0698 36.2047C24.0562 36.2538 24.0516 36.3038 24.0561 36.3546V36.3682C24.0617 36.4398 24.0845 36.5053 24.1245 36.5649C24.1646 36.6244 24.2167 36.6702 24.2809 36.7023C24.3451 36.7344 24.4131 36.7486 24.4847 36.745C24.5564 36.7413 24.6225 36.7202 24.6831 36.6817Z" fill="black"/>
<path d="M4.35924 30.0856C4.35924 30.1929 4.39716 30.2845 4.47301 30.3603C4.54886 30.4362 4.64042 30.4741 4.74768 30.4741C4.85495 30.4741 4.94651 30.4362 5.02236 30.3603C5.09821 30.2845 5.13613 30.1929 5.13613 30.0856C5.13613 29.9784 5.09821 29.8868 5.02236 29.811C4.94651 29.7351 4.85495 29.6972 4.74768 29.6972C4.64042 29.6972 4.54886 29.7351 4.47301 29.811C4.39716 29.8868 4.35924 29.9784 4.35924 30.0856ZM4.39331 29.888L4.37287 29.9289C4.36244 29.9464 4.35336 29.9646 4.34561 29.9834L4.31153 30.0652C4.3028 30.0873 4.29598 30.1101 4.29109 30.1333L4.26383 30.2833C4.25351 30.3258 4.24896 30.369 4.2502 30.4128L4.26383 30.7262C4.27142 30.8318 4.30323 30.9295 4.35924 31.0193L4.69998 31.5917C4.72003 31.6254 4.74275 31.6572 4.76813 31.6871L5.46325 32.5186C5.48244 32.5403 5.50288 32.5607 5.52458 32.5799L6.55363 33.5476C6.583 33.5777 6.61481 33.6049 6.64904 33.6294L7.97794 34.4881C8.02891 34.5208 8.08343 34.5458 8.1415 34.563L9.54536 34.9992L10.6562 35.5035C10.8383 35.5522 10.9684 35.4907 11.0465 35.3191C11.1245 35.1474 11.0853 35.009 10.9288 34.9038L9.8384 34.3995L8.73439 33.4726C8.72998 33.4657 8.72543 33.4589 8.72076 33.4522L7.5009 32.4981L6.51955 31.5713L5.82444 30.7739L5.38828 30.2696C5.35734 30.2365 5.32327 30.207 5.28606 30.181L5.09524 30.0379L5.04754 29.9766C5.02322 30.099 5.04821 30.2103 5.1225 30.3105L5.14295 30.2219C5.1459 30.2084 5.14817 30.1948 5.14976 30.181V30.1402C5.17101 29.9237 5.07846 29.7811 4.87213 29.7123C4.66579 29.6435 4.50619 29.7021 4.39331 29.888Z" fill="black"/>
<path d="M27.201 12.3875C27.201 12.4967 27.2396 12.5898 27.3168 12.667C27.394 12.7442 27.4871 12.7828 27.5963 12.7828C27.7054 12.7828 27.7986 12.7442 27.8758 12.667C27.953 12.5898 27.9916 12.4967 27.9916 12.3875C27.9916 12.2784 27.953 12.1852 27.8758 12.108C27.7986 12.0308 27.7054 11.9923 27.5963 11.9923C27.4871 11.9923 27.394 12.0308 27.3168 12.108C27.2396 12.1852 27.201 12.2784 27.201 12.3875ZM27.8689 12.0059L27.8416 11.9854C27.6099 11.805 27.3782 11.805 27.1465 11.9854L26.9216 12.1626C26.8863 12.1909 26.8545 12.2227 26.8262 12.258L26.4582 12.701C26.441 12.7205 26.4251 12.7409 26.4105 12.7623L25.9471 13.4915C25.9077 13.5548 25.8804 13.623 25.8653 13.696L25.654 14.6841L25.1702 15.5428C25.0794 15.7063 25.1158 15.8335 25.2793 15.9244C25.4428 16.0152 25.57 15.9789 25.6609 15.8154L26.1311 14.9567L26.8807 14.2957C26.922 14.2617 26.9584 14.2231 26.9898 14.1798L27.4736 13.4643L27.8007 13.0009C27.803 12.9986 27.8053 12.9963 27.8076 12.994L27.9643 12.7555C28.0487 12.634 28.0805 12.5 28.0597 12.3534L28.0529 12.3194C28.0339 12.19 27.9726 12.0855 27.8689 12.0059Z" fill="black"/>
<path d="M28.3937 14.064C28.3937 14.175 28.4329 14.2698 28.5114 14.3483C28.5899 14.4268 28.6847 14.466 28.7957 14.466C28.9068 14.466 29.0015 14.4268 29.08 14.3483C29.1586 14.2698 29.1978 14.175 29.1978 14.064C29.1978 13.9529 29.1586 13.8582 29.08 13.7796C29.0015 13.7011 28.9068 13.6619 28.7957 13.6619C28.6847 13.6619 28.5899 13.7011 28.5114 13.7796C28.4329 13.8582 28.3937 13.9529 28.3937 14.064ZM28.8162 13.6142L28.7003 13.6005C28.5552 13.5829 28.4234 13.617 28.3051 13.7028L27.9575 13.9481C27.9108 13.9832 27.8699 14.0241 27.8348 14.0708L27.3237 14.7114C27.2959 14.7495 27.2732 14.7903 27.2556 14.834L26.8603 15.7132L26.2742 16.4287C26.1516 16.5787 26.1652 16.7149 26.3151 16.8376C26.465 16.9603 26.6013 16.9467 26.724 16.7967L27.3033 16.0743L28.0938 15.536C28.1232 15.5158 28.1504 15.4931 28.1756 15.4678L28.7548 14.8886C28.7718 14.8713 28.7877 14.8531 28.8025 14.834L29.0683 14.5001C29.1102 14.449 29.142 14.3922 29.1637 14.3297L29.1978 14.2139C29.2415 14.0763 29.2246 13.9467 29.1471 13.8249C29.0696 13.7031 28.9593 13.6329 28.8162 13.6142Z" fill="black"/>
<path d="M26.7435 9.40882C26.7435 9.51797 26.7821 9.61114 26.8593 9.68832C26.9365 9.7655 27.0296 9.80409 27.1388 9.80409C27.2479 9.80409 27.3411 9.7655 27.4183 9.68832C27.4955 9.61114 27.5341 9.51797 27.5341 9.40882C27.5341 9.29967 27.4955 9.20651 27.4183 9.12933C27.3411 9.05215 27.2479 9.01356 27.1388 9.01356C27.0296 9.01356 26.9365 9.05215 26.8593 9.12933C26.7821 9.20651 26.7435 9.29967 26.7435 9.40882ZM27.3841 9.73594L27.4455 9.69505L27.6431 9.57919L28.0247 9.39519L28.5699 9.23845L29.0401 9.22482L29.3059 9.3543L29.4763 9.58601L29.6194 9.9472L29.7693 10.3084C29.792 10.3645 29.8216 10.4167 29.8579 10.4651L30.0692 10.7514C30.0936 10.7856 30.1208 10.8174 30.151 10.8468L30.444 11.1194L30.7234 11.4328L30.9824 11.8213L31.2005 12.237L31.3095 12.5641V12.8776L31.2141 13.3546C31.1956 13.4556 31.2001 13.5556 31.2277 13.6545L31.2959 13.9271L31.1187 14.1997C31.0231 14.3691 31.0576 14.5058 31.222 14.6096C31.3865 14.7135 31.5247 14.6859 31.6366 14.5268L31.8274 14.2201L32.1205 14.0975C32.2892 14.0286 32.4096 13.9105 32.4817 13.7431L32.6997 13.2388C32.7385 13.1449 32.7567 13.0473 32.7543 12.9457V12.4414C32.7534 12.3693 32.7421 12.2989 32.7202 12.2302L32.5634 11.7327C32.5487 11.6925 32.5305 11.6539 32.5089 11.6168L32.25 11.1194C32.2342 11.0862 32.216 11.0544 32.1954 11.024L31.8615 10.5742C31.8389 10.5426 31.8139 10.5131 31.7865 10.4856L31.4253 10.138C31.4209 10.1334 31.4163 10.1289 31.4117 10.1244L31.1528 9.87905L31.0369 9.72231L30.9347 9.44971L30.7916 9.00674C30.7663 8.93269 30.7299 8.86454 30.6825 8.8023L30.3486 8.35252C30.28 8.25881 30.1937 8.18611 30.0896 8.13444L29.5104 7.85503C29.3981 7.80184 29.28 7.77913 29.156 7.78688L28.42 7.82095C28.3495 7.82665 28.2813 7.84255 28.2155 7.86866L27.5409 8.11399C27.4625 8.14414 27.392 8.1873 27.3296 8.24348L26.9412 8.58422C26.8673 8.6505 26.8128 8.73001 26.7776 8.82274L26.6822 9.07489C26.634 9.20301 26.6363 9.33022 26.689 9.45653L26.7231 9.54512C26.7779 9.67469 26.873 9.75899 27.0081 9.79801C27.1433 9.83703 27.2687 9.81634 27.3841 9.73594Z" fill="black"/>
<path d="M3.70633 18.0773C3.70633 18.1865 3.74492 18.2797 3.8221 18.3568C3.89928 18.434 3.99245 18.4726 4.1016 18.4726C4.21075 18.4726 4.30391 18.434 4.38109 18.3568C4.45827 18.2797 4.49686 18.1865 4.49686 18.0773C4.49686 17.9682 4.45827 17.875 4.38109 17.7978C4.30391 17.7207 4.21075 17.6821 4.1016 17.6821C3.99245 17.6821 3.89928 17.7207 3.8221 17.7978C3.74492 17.875 3.70633 17.9682 3.70633 18.0773ZM4.42871 17.8456L4.40145 17.8047L4.34012 17.7025C4.33574 17.6956 4.3312 17.6888 4.32649 17.6821L4.19701 17.4844L4.06752 17.1914L3.95848 16.6258L3.91078 15.733L3.99256 14.6495L4.25834 13.5523L4.68086 12.5777L5.2465 11.8554L5.90754 11.4533L6.51407 11.3374L6.90933 11.426L7.03881 11.5214L7.08652 11.6168C7.14885 11.7366 7.23745 11.832 7.3523 11.9031L7.37956 11.9235C7.475 11.9837 7.57882 12.0197 7.69102 12.0317C7.80321 12.0437 7.91231 12.0304 8.0183 11.9917C8.1243 11.953 8.21637 11.893 8.2945 11.8116C8.37263 11.7302 8.42883 11.6357 8.46312 11.5282L8.53127 11.3102L8.71527 10.9013L9.00831 10.3697L9.33543 9.87222L9.62847 9.57918L9.91469 9.49059L10.4258 9.51103L11.2504 9.67459C11.3314 9.69272 11.4132 9.69726 11.4957 9.68822L12.1909 9.59963L12.8042 9.92674C12.9585 9.98584 13.0742 9.94234 13.1513 9.79624C13.2284 9.65014 13.199 9.53008 13.0632 9.43607L12.4362 9.10214L12.0137 8.50243C11.9296 8.38452 11.8206 8.2982 11.6866 8.24347L10.8483 7.89591C10.7439 7.8512 10.6348 7.82848 10.5212 7.82776L9.79202 7.83457C9.62211 7.8368 9.46764 7.88678 9.32861 7.9845L8.82431 8.33206C8.76462 8.37425 8.71237 8.42423 8.66757 8.48199L8.25186 8.99992C8.24214 9.01546 8.23305 9.03136 8.2246 9.04762L7.82934 9.62689C7.8246 9.63587 7.82005 9.64496 7.81571 9.65415L7.47496 10.2198C7.46771 10.2332 7.4609 10.2468 7.45452 10.2607L7.216 10.7173C7.20297 10.7438 7.19161 10.7711 7.18192 10.799L7.08652 11.0444C7.17613 11.1239 7.27908 11.178 7.39536 11.2067C7.51165 11.2355 7.62795 11.2355 7.74427 11.207C7.8606 11.1784 7.96363 11.1244 8.05336 11.0451C8.14309 10.9658 8.20926 10.8701 8.25186 10.7582L8.23142 10.7377C8.26729 10.796 8.31045 10.8482 8.3609 10.8945L8.21097 10.6627C8.15949 10.5789 8.09361 10.5084 8.01334 10.4515L7.62489 10.1789C7.54585 10.1253 7.45953 10.0889 7.36593 10.0699L6.67081 9.91993C6.58717 9.90246 6.50312 9.90018 6.41866 9.91311L5.52591 10.0562C5.43582 10.0721 5.35177 10.1039 5.27376 10.1516L4.38782 10.6764C4.3054 10.7239 4.23498 10.7853 4.17656 10.8604L3.48144 11.7599C3.43773 11.8184 3.40366 11.882 3.37922 11.9508L2.94988 13.0888C2.93345 13.1353 2.92209 13.183 2.91581 13.232L2.72499 14.4586C2.72173 14.479 2.71946 14.4994 2.71818 14.52L2.65684 15.6921C2.65475 15.7217 2.65475 15.7512 2.65684 15.7807L2.74544 16.7553C2.74804 16.7968 2.75485 16.8377 2.76588 16.8779L2.96351 17.5253C2.97805 17.5734 2.99849 17.6189 3.02485 17.6616L3.24974 18.0296C3.27776 18.0756 3.31183 18.1165 3.35196 18.1523L3.57004 18.3431C3.63514 18.4009 3.7101 18.4395 3.79493 18.459L3.93123 18.4862C3.99208 18.5013 4.05342 18.5036 4.11523 18.493L4.17656 18.4794C4.32001 18.4495 4.41881 18.3665 4.47298 18.2303C4.52715 18.0941 4.51239 17.9659 4.42871 17.8456Z" fill="black"/>
<path d="M7.59768 15.6853L7.63857 15.7602C7.65252 15.7822 7.66842 15.8026 7.68627 15.8216L7.89753 16.0601C7.90422 16.0648 7.91104 16.0694 7.91798 16.0737L8.34731 16.5099C8.36612 16.5299 8.38656 16.5481 8.40865 16.5644L9.03562 17.0142L9.51947 17.5934C9.63305 17.7297 9.75799 17.7411 9.89429 17.6275C10.0306 17.5139 10.0419 17.389 9.92837 17.2527L9.4377 16.6666L9.08332 15.9783C9.06004 15.9349 9.03051 15.8963 8.99473 15.8625L8.55858 15.4331C8.53398 15.4072 8.50672 15.3845 8.4768 15.365L8.2042 15.2014C8.17631 15.1842 8.14678 15.1706 8.11561 15.1605L8.04064 15.1333C7.87628 15.0838 7.74038 15.126 7.63294 15.2598C7.52551 15.3937 7.51375 15.5355 7.59768 15.6853Z" fill="black"/>
<path d="M10.4191 14.7857L10.3918 14.8675C10.3679 14.9459 10.3633 15.0254 10.3782 15.106L10.4463 15.4536C10.4578 15.5179 10.4782 15.5793 10.5076 15.6376L10.8348 16.2714C10.8453 16.2901 10.8567 16.3082 10.8688 16.3259L11.4004 17.1505C11.4442 17.2195 11.4987 17.2785 11.564 17.3277L12.334 17.8933L12.8179 18.6702C12.9133 18.8201 13.036 18.8474 13.1859 18.752C13.3358 18.6566 13.3631 18.5339 13.2677 18.384L12.7838 17.6139L12.6339 16.6735C12.6215 16.5964 12.5965 16.5237 12.5589 16.4554L12.0955 15.6035C12.083 15.5824 12.0693 15.5619 12.0546 15.5422L11.6457 14.9561C11.5919 14.8754 11.5238 14.8095 11.4413 14.7585L11.1346 14.5745C11.0503 14.5254 10.9595 14.5027 10.862 14.5063H10.7802C10.5922 14.512 10.4718 14.6051 10.4191 14.7857Z" fill="black"/>
<path d="M25.4279 21.7618L25.4143 21.755C25.3519 21.7456 25.2906 21.7501 25.2303 21.7686L25.1826 21.7823C25.0296 21.8188 24.9256 21.9106 24.8705 22.0579C24.8154 22.2051 24.8335 22.3427 24.9249 22.4706C25.0163 22.5986 25.1406 22.6603 25.2977 22.6559C25.4549 22.6516 25.5755 22.583 25.6596 22.4501L25.6869 22.4024C25.6718 22.4195 25.6581 22.4377 25.646 22.4569L25.6596 22.4433C25.7703 22.3241 25.7995 22.1875 25.7471 22.0334C25.6948 21.8794 25.5884 21.7888 25.4279 21.7618ZM24.6851 22.2116C24.6851 22.3697 24.741 22.5046 24.8528 22.6164C24.9645 22.7282 25.0995 22.7841 25.2575 22.7841C25.4156 22.7841 25.5505 22.7282 25.6623 22.6164C25.7741 22.5046 25.83 22.3697 25.83 22.2116C25.83 22.0535 25.7741 21.9186 25.6623 21.8068C25.5505 21.695 25.4156 21.6392 25.2575 21.6392C25.0995 21.6392 24.9645 21.695 24.8528 21.8068C24.741 21.9186 24.6851 22.0535 24.6851 22.2116ZM25.6324 22.7364L25.8164 22.6341C25.8209 22.6319 25.8255 22.6296 25.83 22.6273L26.1844 22.4092C26.1889 22.407 26.1935 22.4047 26.198 22.4024L26.825 22.0003L27.6905 21.496L28.774 20.944L29.8917 20.4397L30.8457 20.0922L31.5204 19.9354C31.3355 19.8331 31.1402 19.8058 30.9343 19.8537L31.1729 19.9831C31.3217 19.7845 31.3701 19.5638 31.318 19.3211C31.2659 19.0783 31.1312 18.897 30.9139 18.7769L30.7299 19.0154L30.3414 19.3221L29.9803 19.6083C29.8649 19.7004 29.7831 19.8163 29.7349 19.9559L29.6804 20.099C29.6114 20.2997 29.6251 20.4946 29.7217 20.6836C29.8182 20.8727 29.968 20.9981 30.1711 21.0599L30.5118 21.1621C30.5186 21.1645 30.5254 21.1668 30.5323 21.1689L31.1524 21.3325L31.8135 21.6119L32.3382 21.9867L32.6312 22.3888L32.7403 22.8522L32.6721 23.4042L32.3586 23.9971C32.3586 23.9994 32.3586 24.0017 32.3586 24.0039L32.1065 24.4878L31.9634 24.7059C31.8757 24.8405 31.8507 24.9859 31.8884 25.142L31.9293 25.326C31.9429 25.3788 31.9633 25.4288 31.9906 25.4759L32.0997 25.6872L32.1201 26.0007L32.0043 26.614C31.9911 26.6841 31.9888 26.7545 31.9975 26.8253L32.0656 27.3296L31.793 27.7794C31.728 27.9407 31.7698 28.0664 31.9186 28.1564C32.0674 28.2465 32.1982 28.2253 32.3109 28.0929L32.604 27.6158L33.0606 27.3023C33.209 27.2031 33.3044 27.0668 33.3468 26.8934L33.5035 26.2051C33.5327 26.076 33.5259 25.9488 33.4831 25.8235L33.3127 25.3124C33.2891 25.2452 33.255 25.1839 33.2105 25.1284L32.9856 24.8285L32.8766 24.6854C32.7255 24.9028 32.7277 25.1186 32.8834 25.3328L33.0061 25.1556L33.3945 24.8285C33.4593 24.7726 33.5115 24.7067 33.5512 24.6309L33.9329 23.929C33.9523 23.8918 33.9682 23.8532 33.9806 23.8131L34.2259 23.0362C34.2636 22.9153 34.2704 22.7926 34.2464 22.6682L34.1033 21.9186C34.0795 21.7975 34.0295 21.6885 33.9533 21.5915L33.4763 20.9781C33.4195 20.9042 33.3513 20.8428 33.2718 20.7941L32.5563 20.3511C32.5234 20.3326 32.4894 20.3167 32.4541 20.3034L31.6703 19.9695C31.648 19.9616 31.6252 19.9548 31.6022 19.9491L30.9548 19.7514L30.6413 19.6424C30.5289 19.8446 30.5134 20.0539 30.5947 20.2704C30.6761 20.4869 30.8256 20.6342 31.0434 20.7123L31.1115 20.5829C30.98 20.6529 30.8778 20.7528 30.8049 20.8827L31.2137 20.6646C31.2445 20.6484 31.274 20.6302 31.3023 20.6101L31.793 20.2626C31.8637 20.2132 31.925 20.1541 31.977 20.0854L32.2223 19.7583C32.3663 19.566 32.4159 19.3518 32.3711 19.1158C32.3264 18.8798 32.2018 18.6987 31.9975 18.5725L31.7726 18.4293C31.5871 18.3135 31.3872 18.2771 31.1729 18.3203L30.4437 18.4702C30.4067 18.4769 30.3704 18.486 30.3346 18.4975L29.2988 18.8519C29.2757 18.86 29.2529 18.8691 29.2306 18.8791L28.0653 19.3971C28.0515 19.4013 28.0379 19.4058 28.0244 19.4107L26.8931 19.9831C26.8792 19.9918 26.8656 20.0009 26.8522 20.0104L25.9527 20.5283C25.9316 20.5411 25.9112 20.5547 25.8913 20.5692L25.2644 21.0054C25.1969 21.0534 25.1378 21.1102 25.0872 21.1757L24.8282 21.5029C24.7856 21.5595 24.7515 21.6208 24.726 21.6869L24.651 21.8777C24.5359 22.1792 24.5998 22.4362 24.8427 22.6487C25.0856 22.8613 25.3488 22.8905 25.6324 22.7364Z" fill="black"/>
<path d="M22.8996 30.8733C22.8996 30.9824 22.9382 31.0756 23.0153 31.1528C23.0925 31.23 23.1857 31.2685 23.2948 31.2685C23.404 31.2685 23.4971 31.23 23.5743 31.1528C23.6515 31.0756 23.6901 30.9824 23.6901 30.8733C23.6901 30.7641 23.6515 30.671 23.5743 30.5938C23.4971 30.5166 23.404 30.478 23.2948 30.478C23.1857 30.478 23.0925 30.5166 23.0153 30.5938C22.9382 30.671 22.8996 30.7641 22.8996 30.8733ZM23.2199 31.2754L23.2539 31.2822C23.3739 31.3088 23.4852 31.2883 23.5879 31.2208L23.6833 31.1527C23.7275 31.125 23.7661 31.0909 23.7991 31.0505L24.0445 30.7302C24.0595 30.7107 24.0731 30.6902 24.0854 30.6688L24.4943 29.9601C24.4966 29.9556 24.4989 29.951 24.5011 29.9465L25.0735 28.8833C25.0837 28.8657 25.0928 28.8475 25.1008 28.8288L25.571 27.609L26.1912 26.6004C26.2642 26.4475 26.2281 26.3275 26.0828 26.2403C25.9375 26.1531 25.8146 26.1777 25.7141 26.3141L25.1008 27.3227L24.2489 28.3177C24.2314 28.3369 24.2155 28.3574 24.2012 28.379L23.5606 29.4013C23.5558 29.4102 23.5513 29.4193 23.547 29.4285L23.1517 30.1441C23.1411 30.1662 23.132 30.1889 23.1245 30.2122L22.9814 30.5871C22.979 30.5916 22.9767 30.5961 22.9745 30.6007L22.9405 30.6893L22.9336 30.7029C22.8782 30.8221 22.8799 30.9406 22.9387 31.0582C22.9975 31.1758 23.0912 31.2482 23.2199 31.2754Z" fill="black"/>
<path d="M25.0938 32.2499H25.1006C25.1874 32.2413 25.2647 32.2095 25.3324 32.1545L25.4618 32.0523C25.4894 32.0299 25.5144 32.0049 25.5368 31.9773L25.8707 31.5684L26.5454 30.7779L27.5881 29.5853C27.5927 29.5808 27.5973 29.5763 27.6017 29.5717L28.7807 28.1269L30.0823 26.9752C30.2017 26.8566 30.2053 26.7346 30.0929 26.6092C29.9805 26.4839 29.8589 26.4741 29.728 26.5799L28.4195 27.7316L26.8998 28.822C26.8779 28.8386 26.8574 28.8567 26.8384 28.8765L25.7004 29.9806C25.6831 29.9999 25.6672 30.0204 25.6527 30.0419L24.9984 30.8733C24.9834 30.8928 24.9698 30.9133 24.9575 30.9346L24.6918 31.3981C24.6516 31.4725 24.6311 31.552 24.6304 31.6366L24.6236 31.8001C24.6195 31.9156 24.6556 32.0168 24.7319 32.1036C24.8081 32.1904 24.9038 32.2392 25.0189 32.2499H25.0257C25.0484 32.2518 25.0711 32.2518 25.0938 32.2499Z" fill="black"/>
<path d="M16.7593 14.4154C16.7593 14.5208 16.7966 14.6108 16.8711 14.6853C16.9456 14.7598 17.0356 14.7971 17.1409 14.7971C17.2463 14.7971 17.3363 14.7598 17.4108 14.6853C17.4853 14.6108 17.5226 14.5208 17.5226 14.4154C17.5226 14.31 17.4853 14.2201 17.4108 14.1456C17.3363 14.0711 17.2463 14.0338 17.1409 14.0338C17.0356 14.0338 16.9456 14.0711 16.8711 14.1456C16.7966 14.2201 16.7593 14.31 16.7593 14.4154ZM16.7457 14.4154L16.732 14.6608C16.7316 14.6721 16.7316 14.6835 16.732 14.6948V15.2673C16.7324 15.2947 16.7347 15.322 16.7389 15.3491L16.9161 16.4667C16.9197 16.4874 16.9242 16.5078 16.9297 16.528L17.3249 18.1432L17.7611 20.174L18.0337 22.4229C18.0337 22.4252 18.0337 22.4275 18.0337 22.4297L18.3199 24.5628C18.3218 24.5742 18.324 24.5856 18.3267 24.5969L18.6675 26.2733L18.7697 27.4932C18.7833 27.6704 18.8787 27.7522 19.0559 27.7385C19.2331 27.7249 19.3149 27.6295 19.3013 27.4523L19.199 26.2256L19.2604 24.5219C19.2608 24.5105 19.2608 24.4992 19.2604 24.4878L19.1854 22.3343C19.1859 22.3207 19.1859 22.3071 19.1854 22.2934L18.9264 20.0104C18.9265 20.0059 18.9265 20.0014 18.9264 19.9968L18.6402 17.9046C18.6385 17.8887 18.6362 17.8728 18.6334 17.8569L18.2858 16.2146C18.2787 16.1844 18.2696 16.1549 18.2586 16.126L17.8838 15.0628C17.8776 15.0466 17.8708 15.0307 17.8633 15.0151L17.618 14.4904L17.5158 14.2655C17.4296 14.0691 17.2812 13.9915 17.0707 14.0324C16.8603 14.0734 16.7519 14.2011 16.7457 14.4154Z" fill="black"/>
<path d="M21.5911 13.9315L21.4956 14.2178C21.4897 14.2379 21.4851 14.2583 21.482 14.2791L21.3389 15.1241C21.3388 15.1309 21.3388 15.1378 21.3389 15.1446L21.1617 16.637C21.1613 16.6484 21.1613 16.6598 21.1617 16.6711L21.0595 18.7428L20.9164 21.1689C20.9161 21.178 20.9161 21.1871 20.9164 21.1962L20.9505 23.6427L20.9096 25.6804C20.9051 25.853 20.9891 25.9415 21.1617 25.9461C21.3343 25.9506 21.4229 25.8666 21.4275 25.694L21.4684 23.6564L21.6796 21.2235C21.6796 21.2212 21.6796 21.2189 21.6796 21.2166L21.85 18.8042L22.1022 16.7529C22.1022 16.7506 22.1022 16.7483 22.1022 16.7461L22.2657 15.2536L22.3679 14.4086C22.3707 14.3973 22.3729 14.3859 22.3748 14.3745L22.3884 14.0746C22.3979 13.8373 22.2858 13.6977 22.0521 13.6557C21.8183 13.6138 21.6646 13.7057 21.5911 13.9315Z" fill="black"/>
<path d="M6.06683 25.953L6.06002 25.9598C5.93869 26.0708 5.89326 26.2071 5.92372 26.3687L5.96461 26.5936C5.98905 26.7176 6.04811 26.8221 6.1418 26.907L6.53706 27.2819C6.54808 27.2914 6.55944 27.3005 6.57114 27.3091L7.25944 27.8679C7.26608 27.8749 7.2729 27.8817 7.27988 27.8884L8.28849 28.6244C8.29511 28.6314 8.30193 28.6382 8.30893 28.6448L9.56287 29.4558L10.7214 30.2327L11.5869 30.9346C11.7148 31.0138 11.8267 30.9954 11.9227 30.8795C12.0186 30.7636 12.0157 30.6502 11.914 30.5394L11.0417 29.8374L10.0263 28.8697L8.95634 27.8339C8.94964 27.8292 8.94282 27.8246 8.9359 27.8202L7.99545 26.9956C7.99324 26.9911 7.99096 26.9865 7.98863 26.982L7.30714 26.4232L6.91188 26.0688C6.85953 26.0215 6.80047 25.9852 6.73469 25.9598L6.51662 25.8712C6.40114 25.8283 6.28756 25.8329 6.17587 25.8848L6.16906 25.8916C6.13186 25.9069 6.09779 25.9273 6.06683 25.953Z" fill="black"/>
<path d="M10.5033 24.9853L10.4896 25.0057C10.3463 25.2376 10.3622 25.4579 10.5373 25.6668L11.3142 26.6141C11.3269 26.633 11.3405 26.6512 11.3551 26.6686L12.1593 27.4523C12.1764 27.4694 12.1946 27.4853 12.2138 27.5L13.236 28.2701L14.1424 29.0061L14.8171 29.6603C14.9398 29.7784 15.0602 29.7762 15.1783 29.6535C15.2964 29.5308 15.2941 29.4104 15.1715 29.2923L14.4968 28.6449L13.754 27.7521L13.018 26.7231C13.0095 26.7091 13.0004 26.6954 12.9907 26.6822L12.2615 25.8235C12.2527 25.8142 12.2436 25.8051 12.2343 25.7963L11.3824 24.9103C11.1923 24.7135 10.9743 24.6749 10.7282 24.7945L10.7077 24.8081C10.6221 24.847 10.554 24.9061 10.5033 24.9853Z" fill="black"/>
<path d="M17.9306 34.9876C17.9306 35.0817 17.9639 35.162 18.0304 35.2285C18.097 35.2951 18.1773 35.3283 18.2714 35.3283C18.3655 35.3283 18.4458 35.2951 18.5123 35.2285C18.5789 35.162 18.6121 35.0817 18.6121 34.9876C18.6121 34.8935 18.5789 34.8132 18.5123 34.7466C18.4458 34.6801 18.3655 34.6468 18.2714 34.6468C18.1773 34.6468 18.097 34.6801 18.0304 34.7466C17.9639 34.8132 17.9306 34.8935 17.9306 34.9876ZM18.5167 35.3147L18.5644 35.2806C18.5124 35.2942 18.4647 35.3169 18.4213 35.3488L18.5031 35.3215C18.6387 35.2897 18.7437 35.2149 18.8182 35.0972C18.8927 34.9795 18.9153 34.8526 18.886 34.7164C18.8567 34.5803 18.7839 34.4739 18.6676 34.3972C18.5514 34.3205 18.4249 34.2956 18.2882 34.3223C18.1515 34.349 18.0437 34.4198 17.9649 34.5346C17.8861 34.6495 17.8588 34.7754 17.8829 34.9126L17.8966 35.0012C17.9384 34.9193 17.952 34.833 17.9375 34.7422L17.9102 34.7968C17.8089 34.9895 17.841 35.1566 18.0066 35.298C18.1722 35.4394 18.3422 35.4449 18.5167 35.3147ZM19.021 35.0285L19.096 34.899C19.1959 34.7281 19.2231 34.5464 19.1778 34.3538L19.1369 34.1766C19.1049 34.0414 19.0413 33.9233 18.9461 33.8222L18.7757 33.6382C18.7327 33.5918 18.685 33.5509 18.6326 33.5156L18.3736 33.3452C18.2877 33.2878 18.1946 33.2469 18.0942 33.2225L17.7194 33.1339C17.6003 33.1037 17.4799 33.0969 17.3582 33.1135L16.8811 33.1816C16.7964 33.1938 16.7147 33.2165 16.6358 33.2498L16.1383 33.461C16.063 33.4936 15.9926 33.5345 15.9271 33.5837L15.4568 33.9313C15.344 34.0156 15.2509 34.1178 15.1774 34.2379L14.8503 34.7695C14.7542 34.9266 14.6997 35.0969 14.6868 35.2806L14.6391 35.9553C14.6257 36.1343 14.653 36.307 14.7208 36.4732L15.0139 37.2024C15.0753 37.3505 15.1639 37.48 15.2796 37.5909L15.9543 38.2451C16.0337 38.3215 16.1223 38.3851 16.2201 38.4359L17.181 38.9402C17.2506 38.9773 17.3233 39.0068 17.3991 39.0288L18.4895 39.3423C18.572 39.3654 18.656 39.379 18.7416 39.3832L19.8388 39.4377C19.9374 39.4435 20.035 39.4367 20.1318 39.4172L21.1473 39.206C21.2523 39.1837 21.3523 39.1474 21.4471 39.0969L22.2853 38.654C22.3972 38.5976 22.4971 38.5249 22.5852 38.4359L23.2054 37.7817C23.2963 37.6873 23.369 37.5805 23.4234 37.4614L23.7914 36.6504C23.8401 36.5439 23.8719 36.4326 23.8868 36.3165L23.9891 35.4782C24.0064 35.348 24.0019 35.2185 23.9754 35.0898L23.8051 34.3061C23.7751 34.1642 23.7206 34.0324 23.6415 33.9108L23.2054 33.2498C23.1325 33.1417 23.0439 33.0486 22.9396 32.9704L22.2853 32.4729C22.1706 32.383 22.0434 32.3171 21.9037 32.2753L21.0382 32.0299C20.92 31.9973 20.7996 31.9836 20.677 31.989L19.6821 32.0231C19.5945 32.0248 19.5081 32.0361 19.4231 32.0572L18.4009 32.3366C18.328 32.3548 18.2576 32.3798 18.1896 32.4115L17.29 32.8409C17.2228 32.8735 17.1592 32.9121 17.0992 32.9567L16.3973 33.4747C16.284 33.5576 16.1886 33.6575 16.1111 33.7745L15.6954 34.4015C15.595 34.5553 15.5336 34.7234 15.5114 34.9058L15.4228 35.5941C15.396 35.8036 15.4233 36.0057 15.5045 36.2006L15.7908 36.8889C15.8497 37.0328 15.9337 37.16 16.0429 37.2706L16.6903 37.9112C16.7581 37.9794 16.833 38.0385 16.9152 38.0883L17.8148 38.6335C17.8799 38.6719 17.948 38.7037 18.0192 38.7289L19.0483 39.0969C19.1256 39.1258 19.2051 39.1462 19.2868 39.1583L20.309 39.3014C20.4044 39.3132 20.4998 39.3132 20.5953 39.3014L21.5357 39.1992C21.6293 39.1875 21.7202 39.1648 21.8083 39.131L22.5648 38.8584C22.6651 38.8191 22.7583 38.7669 22.8442 38.7017L23.3689 38.3201C23.4972 38.2256 23.6017 38.1098 23.6824 37.9725L23.955 37.5091C24.0537 37.3383 24.1059 37.1543 24.1117 36.9571L24.1322 36.446C24.1393 36.263 24.1053 36.0881 24.03 35.9212L23.7914 35.3965C23.7367 35.2774 23.6641 35.1707 23.5734 35.0762L23.0895 34.5719C23.0261 34.5044 22.9557 34.4454 22.8782 34.3947L22.2104 33.9585C22.1582 33.9247 22.1037 33.8951 22.0468 33.8699L21.2631 33.5224C21.2144 33.5008 21.1644 33.4826 21.1132 33.4679L20.2818 33.2293C20.1995 33.2042 20.1154 33.1883 20.0296 33.1816L19.1573 33.1271C19.0682 33.1216 18.9796 33.1261 18.8915 33.1407L18.026 33.2839C17.9171 33.301 17.8126 33.3328 17.7126 33.3793L16.9697 33.7268C16.8473 33.7851 16.7383 33.8624 16.6426 33.9585L16.152 34.4492C15.9658 34.6344 15.8545 34.857 15.818 35.1171L15.7431 35.6691C15.697 35.9982 15.7765 36.2935 15.9816 36.555L16.3837 37.0661C16.4908 37.2049 16.6226 37.3139 16.7789 37.3932L17.5967 37.8021C17.673 37.8404 17.7525 37.8699 17.8352 37.8907L18.8779 38.1633C18.9452 38.1785 19.0134 38.1875 19.0824 38.1906L20.125 38.2655C20.2187 38.2723 20.3119 38.2677 20.4044 38.2519L21.2904 38.0952C21.4256 38.0722 21.5528 38.0268 21.672 37.9589L22.2785 37.6181C22.4684 37.5097 22.616 37.3598 22.7215 37.1683L22.9873 36.6845C23.1221 36.4379 23.163 36.1767 23.11 35.9008L23.0077 35.3419C22.9698 35.1372 22.8835 34.9555 22.7488 34.7968L22.299 34.272C22.2097 34.1673 22.1052 34.081 21.9855 34.013L21.2767 33.6178C21.166 33.5531 21.0479 33.5076 20.9224 33.4815L20.0978 33.3247C19.9619 33.2985 19.8256 33.2962 19.6889 33.3179L18.9052 33.4406C18.7325 33.4666 18.5735 33.5279 18.4281 33.6246L17.8761 33.9994C17.6681 34.1407 17.5205 34.3293 17.4332 34.5651L17.2628 35.0353C17.1313 35.3856 17.1609 35.7218 17.3514 36.0439L17.6035 36.4732C17.729 36.679 17.9016 36.8312 18.1215 36.9298L18.7007 37.1956C18.8203 37.2486 18.9452 37.2804 19.0755 37.291L19.7638 37.3523C19.8644 37.3609 19.9643 37.3563 20.0637 37.3387L20.6634 37.2365C20.8289 37.208 20.9811 37.1467 21.12 37.0525L21.4471 36.8276C21.8157 36.5772 21.986 36.2296 21.9582 35.7849L21.9378 35.4919C21.9166 35.1522 21.7757 34.8728 21.5153 34.6536L21.195 34.3811C21.0657 34.2734 20.9204 34.1962 20.7588 34.1493L20.2818 34.013C20.1482 33.9737 20.0119 33.9578 19.8729 33.9653L19.4163 33.9926C19.2243 34.002 19.0449 34.0542 18.8779 34.1493L18.6189 34.3061C18.4002 34.4332 18.2383 34.6118 18.1332 34.842C18.0281 35.0721 17.9992 35.3115 18.0465 35.56L18.0806 35.7304C18.1676 36.1931 18.4357 36.4952 18.8847 36.6368L19.1982 36.739C19.3091 36.7742 19.4226 36.7923 19.539 36.7935H19.9683C20.0773 36.7927 20.1841 36.7768 20.2886 36.7458L20.6839 36.6368C20.8289 36.5943 20.9606 36.5261 21.0791 36.4323L21.2563 36.296C21.6142 36.0141 21.7598 35.6478 21.693 35.1971C21.6262 34.7464 21.3807 34.4381 20.9564 34.272L20.8065 34.2107C20.4678 34.0808 20.1384 34.1013 19.8184 34.272L19.5185 34.4288C19.2953 34.5441 19.1312 34.7158 19.026 34.9439C18.9207 35.172 18.8967 35.4084 18.9538 35.653C19.011 35.8976 19.1372 36.0989 19.3326 36.2568C19.5279 36.4147 19.7512 36.4959 20.0024 36.5005L20.2136 36.5073L20.2409 36.5141C20.3835 36.3618 20.479 36.1841 20.5273 35.981C20.5756 35.7779 20.5703 35.5763 20.5115 35.376C20.4527 35.1758 20.3481 35.0033 20.1976 34.8586C20.0472 34.7139 19.8708 34.6161 19.6684 34.5651L19.5117 34.7218C19.7073 34.6616 19.8754 34.5571 20.016 34.4083L19.8115 34.4696H19.8047L19.7161 34.4356C19.7367 34.9242 19.9707 35.2672 20.4181 35.4646L20.4113 35.2874C19.9491 35.517 19.7288 35.8895 19.7502 36.4051L19.7843 36.3846H19.7911L19.8865 36.4119L20.0637 36.5346C20.0083 36.2113 19.847 35.9546 19.5798 35.7645L19.6275 36.0575C20.0037 35.7699 20.1514 35.3928 20.0705 34.9262L19.9751 35.0012L19.8047 35.0353L19.4844 35.0012L19.4435 34.9876L19.389 34.8854C19.2605 35.223 19.2832 35.5501 19.4572 35.8667L19.4981 35.7508L19.5253 35.7304L19.8524 35.6827L20.2954 35.7645L20.6566 35.9621L20.7656 36.0916L20.7384 35.9348L20.8338 35.7577L20.6907 35.8394L20.1455 35.9348L19.3481 35.8803L18.5372 35.6691L18.0669 35.4305L18.1351 35.5191L18.0806 35.8394L18.1555 35.7645L18.5644 35.5805L19.1437 35.4851L19.757 35.5191L20.3908 35.6963L21.0178 35.9757L21.5016 36.2824L21.747 36.5414L21.7879 36.63L21.7947 36.5754L21.7879 36.5823L21.5902 36.7254L21.1336 36.8957L20.4862 36.9639L19.7366 36.8617L18.9324 36.5618L18.2578 36.1529L17.8829 35.7713L17.808 35.5805L17.8216 35.4782L17.9715 35.2465L18.4213 34.9126L19.1164 34.5719L19.907 34.3606L20.5953 34.3265L21.0655 34.456L21.3722 34.6877L21.5766 35.0012L21.6584 35.3897L21.6039 35.8667L21.3994 36.3369L21.045 36.7117L20.5203 36.9912L19.8115 37.1411L18.9869 37.1002L18.1419 36.8685L17.4332 36.4868L17.0447 36.1052L16.9289 35.8394L16.9425 35.635L17.0379 35.4101L17.2083 35.2193L17.4536 35.0762L17.7194 34.9808L17.8557 34.9603L17.8897 34.9671L17.8352 34.9399L17.808 34.899L17.8489 34.9808C17.9625 35.2231 18.153 35.3497 18.4205 35.3605C18.6879 35.3714 18.8881 35.2607 19.021 35.0285ZM19.539 35.2465L19.2664 35.3965C19.1836 35.4416 19.1288 35.5095 19.1022 35.5999C19.0756 35.6904 19.0849 35.7771 19.1301 35.8599C19.1752 35.9427 19.243 35.9974 19.3335 36.024C19.424 36.0506 19.5107 36.0413 19.5935 35.9962L19.8661 35.8462C19.9488 35.8011 20.0035 35.7332 20.0301 35.6428C20.0566 35.5523 20.0474 35.4657 20.0022 35.3829C19.9571 35.3001 19.8893 35.2454 19.7988 35.2188C19.7084 35.1922 19.6217 35.2014 19.539 35.2465Z" fill="black"/>
<path d="M4.17135 30.4489C4.17135 30.5542 4.20861 30.6442 4.28313 30.7187C4.35765 30.7932 4.4476 30.8305 4.55299 30.8305C4.65837 30.8305 4.74832 30.7932 4.82284 30.7187C4.89736 30.6442 4.93462 30.5542 4.93462 30.4489C4.93462 30.3435 4.89736 30.2535 4.82284 30.179C4.74832 30.1045 4.65837 30.0672 4.55299 30.0672C4.4476 30.0672 4.35765 30.1045 4.28313 30.179C4.20861 30.2535 4.17135 30.3435 4.17135 30.4489ZM4.0555 30.4489C4.0555 30.5806 4.10207 30.693 4.19522 30.7862C4.28837 30.8793 4.40081 30.9259 4.53254 30.9259C4.66427 30.9259 4.77671 30.8793 4.86986 30.7862C4.96301 30.693 5.00958 30.5806 5.00958 30.4489C5.00958 30.3171 4.96301 30.2047 4.86986 30.1115C4.77671 30.0184 4.66427 29.9718 4.53254 29.9718C4.40081 29.9718 4.28837 30.0184 4.19522 30.1115C4.10207 30.2047 4.0555 30.3171 4.0555 30.4489ZM4.94143 30.0332L4.86647 29.9514C4.81445 29.89 4.75312 29.84 4.68247 29.8015L4.45076 29.6788L4.00098 29.4266L3.33994 28.9973L2.5903 28.3771L1.96333 27.6957L1.65666 27.0005V26.3122L1.94289 25.6784L2.39948 25.215L2.82201 25.0378L3.0946 25.0719L3.29223 25.2287L3.45579 25.4944L3.51031 25.7262V25.8556C3.70534 25.8595 3.87378 25.7945 4.01563 25.6606C4.15748 25.5267 4.23211 25.3623 4.2395 25.1673L4.1032 25.1605C4.24441 25.338 4.42841 25.4289 4.65521 25.4331L4.55299 25.3036L4.47802 25.0378L4.49165 24.4995L4.72336 23.7498L5.17314 22.9457L5.75922 22.2642L6.36574 21.8349L6.89049 21.6713L7.32664 21.6917L7.74235 21.8212C7.74913 21.8236 7.75594 21.8259 7.7628 21.828L8.11717 21.9303C8.18447 21.9475 8.25262 21.9521 8.32162 21.9439L8.56695 21.9234C8.66968 21.9127 8.76055 21.8741 8.83955 21.8076L9.08488 21.5963L9.30296 21.4328L9.35066 21.426L9.47333 21.4737L9.88222 21.7735L10.3797 22.1552L10.6523 22.7208C10.7483 22.8462 10.8677 22.8751 11.0105 22.8075C11.1532 22.7399 11.2065 22.6292 11.1702 22.4755L10.8908 21.8757L10.7886 21.2283C10.7794 21.1687 10.7612 21.1119 10.7341 21.058L10.4615 20.5196C10.3626 20.3221 10.2059 20.1971 9.99126 20.1448L9.60963 20.0494C9.33602 19.9826 9.10658 20.0553 8.92133 20.2674L8.68281 20.54C8.67581 20.5467 8.669 20.5535 8.66236 20.5605L8.43747 20.8535L8.22621 21.0034C8.38644 21.0586 8.53637 21.0381 8.67599 20.9421L8.56014 20.9012L8.37614 20.7377C8.32767 20.6905 8.27315 20.6519 8.21258 20.6218L7.73554 20.4037C7.65766 20.3677 7.57588 20.3472 7.4902 20.3424L6.84279 20.3015C6.76165 20.2964 6.68215 20.3054 6.60427 20.3288L5.86144 20.5605C5.79568 20.5808 5.73435 20.6103 5.67744 20.6491L4.90055 21.167C4.85252 21.2002 4.80936 21.2388 4.77106 21.2828L4.06913 22.0666C4.03517 22.1042 4.00563 22.1451 3.98054 22.1892L3.45579 23.1229C3.43007 23.1683 3.40963 23.216 3.39446 23.266L3.11505 24.1792C3.09611 24.2368 3.08475 24.2958 3.08097 24.3564L3.05371 25.0992C3.05064 25.1683 3.05745 25.2365 3.07416 25.3036L3.20364 25.8147C3.22689 25.9094 3.26778 25.9957 3.32631 26.0737L3.51712 26.319C3.66421 26.5133 3.85957 26.6087 4.1032 26.6053L4.2395 26.5985C4.43181 26.5948 4.59597 26.525 4.73198 26.389C4.86799 26.253 4.9378 26.0888 4.94143 25.8965L4.94825 25.658C4.94976 25.5862 4.94068 25.5158 4.92099 25.4467L4.80514 25.0242C4.7887 24.9692 4.76599 24.917 4.73699 24.8675L4.46439 24.3972C4.41712 24.3146 4.35578 24.2442 4.28039 24.186L3.81016 23.8248C3.70876 23.7489 3.59518 23.7035 3.46942 23.6885L2.81519 23.6067C2.70344 23.5921 2.59441 23.6034 2.48808 23.6408L1.73844 23.9066C1.64966 23.9388 1.57016 23.9865 1.49992 24.0497L0.797985 24.6767C0.715772 24.7493 0.652167 24.8356 0.607169 24.9356L0.205091 25.842C0.163998 25.9377 0.143554 26.0377 0.143757 26.1419L0.130127 27.1505C0.130379 27.2598 0.153099 27.3643 0.198276 27.4639L0.620799 28.4248C0.657288 28.5088 0.707264 28.5838 0.770726 28.6497L1.53399 29.4403C1.57517 29.4819 1.6206 29.5183 1.67029 29.5493L2.55623 30.1286C2.57176 30.1383 2.58767 30.1474 2.60393 30.1558L3.35357 30.5511L3.81016 30.8169C3.82356 30.8242 3.83718 30.831 3.85105 30.8373L4.08957 30.9532C4.16465 30.9914 4.24415 31.0141 4.32809 31.0213L4.44395 31.0281C4.71296 31.0498 4.90782 30.94 5.02852 30.6986C5.14921 30.4572 5.12019 30.2354 4.94143 30.0332Z" fill="black"/>
</g>
<defs>
<clipPath id="clip0_1_7381">
<rect width="38" height="40" fill="white"/>
</clipPath>
</defs>
</svg>
