<svg width="39" height="40" viewBox="0 0 39 40" fill="none" xmlns="http://www.w3.org/2000/svg">
<g clip-path="url(#clip0_1_7373)">
<path d="M25.8972 3.11806C25.8972 3.22163 25.9338 3.31004 26.0071 3.38327C26.0803 3.45651 26.1687 3.49313 26.2723 3.49313C26.3758 3.49313 26.4642 3.45651 26.5375 3.38327C26.6107 3.31004 26.6473 3.22163 26.6473 3.11806C26.6473 3.01448 26.6107 2.92608 26.5375 2.85284C26.4642 2.7796 26.3758 2.74299 26.2723 2.74299C26.1687 2.74299 26.0803 2.7796 26.0071 2.85284C25.9338 2.92608 25.8972 3.01448 25.8972 3.11806ZM25.8972 3.11806C25.8972 3.22336 25.9344 3.31324 26.0089 3.38769C26.0833 3.46215 26.1732 3.49938 26.2785 3.49938C26.3838 3.49938 26.4737 3.46215 26.5482 3.38769C26.6226 3.31324 26.6598 3.22336 26.6598 3.11806C26.6598 3.01276 26.6226 2.92288 26.5482 2.84842C26.4737 2.77396 26.3838 2.73673 26.2785 2.73673C26.1732 2.73673 26.0833 2.77396 26.0089 2.84842C25.9344 2.92288 25.8972 3.01276 25.8972 3.11806ZM25.9472 2.89927L25.916 2.94302C25.8828 2.99287 25.8599 3.04705 25.8472 3.10556L25.8159 3.24933C25.8136 3.25762 25.8116 3.26595 25.8097 3.27434L25.7722 3.51188C25.7694 3.52847 25.7673 3.54514 25.7659 3.56189L25.7347 3.88695C25.7335 3.90987 25.7335 3.9328 25.7347 3.95572V4.3933C25.7347 4.39538 25.7347 4.39747 25.7347 4.39955L25.7472 4.9059L25.7159 5.46225L25.6409 6.02486L25.4846 6.55621L25.2721 7.05006L24.9908 7.47514L24.6907 7.78144L24.4094 7.97523L24.1969 8.06275L24.0093 8.08775L23.8593 8.07525L23.7718 8.05025L23.7655 8.04399L23.8031 8.0815L23.7968 8.06275L23.7343 7.96273C23.7175 7.93027 23.6988 7.89901 23.678 7.86896L23.6155 7.7877C23.5873 7.74958 23.5561 7.71416 23.5217 7.68143L23.4655 7.63142C23.5021 7.6914 23.5458 7.74558 23.5968 7.79395L23.5905 7.77519C23.5426 7.66608 23.4731 7.57312 23.3821 7.49631C23.291 7.41951 23.1876 7.36673 23.072 7.33797C22.9563 7.30922 22.8403 7.30744 22.7238 7.33263C22.6074 7.35782 22.5024 7.40741 22.409 7.48139L22.4028 7.48764C22.2728 7.58809 22.1853 7.71728 22.1402 7.87521V7.88146C22.1003 8.02585 22.1024 8.16963 22.1465 8.3128L22.1652 8.36281C22.1652 8.28166 22.1527 8.20248 22.1277 8.12526V8.19402V8.26279C22.1261 8.31948 22.1303 8.37574 22.1402 8.43157L22.159 8.53159C22.1665 8.57193 22.177 8.61152 22.1902 8.65036L22.2278 8.76288C22.2455 8.81725 22.2684 8.86935 22.2965 8.91916L22.3653 9.05044C22.4001 9.11181 22.4417 9.16807 22.4903 9.21922L22.6153 9.34424C22.6724 9.40569 22.737 9.45778 22.8091 9.50052L22.9966 9.61304C23.0503 9.64402 23.1065 9.66902 23.1654 9.68806L23.428 9.76932C23.495 9.79225 23.5637 9.80684 23.6343 9.81308L23.9656 9.83184C24.0283 9.83649 24.0908 9.83441 24.1531 9.82558L24.5344 9.77557C24.608 9.76384 24.6788 9.74301 24.747 9.71306L25.1596 9.53803C25.2316 9.50751 25.2983 9.46792 25.3596 9.41926L25.7659 9.09419C25.807 9.06024 25.8445 9.02273 25.8784 8.98167L26.266 8.53159C26.2933 8.50216 26.3183 8.4709 26.341 8.43782L26.6911 7.88146C26.718 7.83979 26.7409 7.79603 26.7599 7.75019L27.0037 7.13132C27.0217 7.09084 27.0362 7.04916 27.0474 7.0063L27.1912 6.35617C27.1975 6.3231 27.2017 6.28976 27.2037 6.25615L27.2662 5.60603C27.2676 5.57894 27.2676 5.55185 27.2662 5.52477L27.26 4.9059C27.2587 4.88497 27.2567 4.86414 27.2537 4.84339L27.2037 4.31829C27.2 4.2824 27.1938 4.24698 27.1849 4.21202L27.0787 3.78693C27.0708 3.7528 27.0604 3.71946 27.0474 3.68692L26.9286 3.38686C26.9228 3.37414 26.9166 3.36164 26.9099 3.34935L26.7974 3.13056L26.7349 2.99928C26.6893 2.90588 26.6206 2.83503 26.5286 2.78674L26.4848 2.76174C26.264 2.64475 26.0848 2.69059 25.9472 2.89927ZM22.1215 8.10026V8.13776C22.1946 8.02342 22.23 7.8984 22.2278 7.76269L22.2027 7.79395C22.2613 7.75006 22.3113 7.69797 22.3528 7.63767L22.3278 7.65642C22.4298 7.63433 22.5215 7.59057 22.6028 7.52515L22.5716 7.5314C22.6221 7.53295 22.6721 7.52878 22.7216 7.5189L22.6716 7.51264C22.7147 7.52325 22.7585 7.52951 22.8029 7.5314L22.7341 7.5189C22.6341 7.49587 22.5341 7.49587 22.434 7.5189L22.3403 7.5439C22.2692 7.56008 22.2025 7.58717 22.1402 7.62517L22.0215 7.70018C21.9855 7.72404 21.9522 7.75113 21.9214 7.78144L21.7964 7.89397C21.7689 7.921 21.7439 7.95017 21.7214 7.98148L21.6026 8.13776C21.5789 8.16929 21.5581 8.20263 21.5401 8.23778L21.4276 8.46282C21.3989 8.51835 21.378 8.5767 21.3651 8.63786L21.2963 8.98792C21.2838 9.04988 21.2796 9.11239 21.2838 9.17546L21.3151 9.62555C21.3172 9.66989 21.3235 9.71365 21.3338 9.75682L21.4714 10.2569C21.4844 10.3091 21.5032 10.3591 21.5276 10.4069L21.7777 10.8695C21.8342 10.9775 21.9134 11.0651 22.0152 11.1321L22.4215 11.3884C22.6521 11.5351 22.8813 11.533 23.1092 11.3821L23.2905 11.2571L23.6155 11.2634C23.7989 11.2675 23.8927 11.1779 23.8968 10.9946C23.901 10.8112 23.8114 10.7174 23.628 10.7133L23.3842 10.707L23.328 10.5882C23.3048 10.5386 23.2756 10.4927 23.2404 10.4507L22.9841 10.1444L22.8154 9.81933L22.7216 9.46302L22.7028 9.1442L22.7278 8.93792L22.7591 8.8504L22.7841 8.81289L22.7966 8.80039L22.8591 8.75663C22.7968 8.77521 22.7385 8.8023 22.6841 8.8379L22.7779 8.81289C22.6827 8.79893 22.589 8.80518 22.4966 8.83164L22.5653 8.8379C22.6004 8.84491 22.6358 8.84907 22.6716 8.8504L22.7216 8.84415C22.7595 8.8432 22.797 8.83903 22.8341 8.83164H22.8654C22.9589 8.8126 23.0443 8.77509 23.1217 8.71912L23.1404 8.70662L23.1592 8.69412C23.069 8.71049 22.9857 8.74383 22.9091 8.79414L22.9404 8.78789C23.1263 8.75786 23.2763 8.66786 23.3903 8.51787C23.5042 8.36787 23.5507 8.19928 23.5298 8.01207C23.5089 7.82487 23.4263 7.6707 23.282 7.54957C23.1378 7.42844 22.9717 7.37376 22.7837 7.38553C22.5957 7.3973 22.4376 7.47228 22.3096 7.61046C22.1816 7.74864 22.1189 7.9119 22.1215 8.10026Z" fill="black"/>
<path d="M21.8402 9.20676C21.8402 9.30861 21.8762 9.39554 21.9482 9.46756C22.0202 9.53957 22.1071 9.57558 22.209 9.57558C22.3108 9.57558 22.3978 9.53957 22.4698 9.46756C22.5418 9.39554 22.5778 9.30861 22.5778 9.20676C22.5778 9.10491 22.5418 9.01798 22.4698 8.94596C22.3978 8.87395 22.3108 8.83794 22.209 8.83794C22.1071 8.83794 22.0202 8.87395 21.9482 8.94596C21.8762 9.01798 21.8402 9.10491 21.8402 9.20676ZM22.5465 8.98172L22.534 8.96296L22.5215 8.93796C22.4565 8.83651 22.3655 8.77161 22.2484 8.74328C22.1313 8.71495 22.0206 8.73104 21.9165 8.79157C21.8123 8.85209 21.7435 8.94023 21.7101 9.056C21.6767 9.17176 21.688 9.283 21.7439 9.38972C21.7998 9.49643 21.8849 9.56898 21.9991 9.60737C22.1133 9.64576 22.225 9.63933 22.334 9.58808L22.3653 9.57558C22.3085 9.57707 22.2544 9.58958 22.2027 9.61309H22.2277C22.3855 9.60562 22.5 9.53138 22.5712 9.39036C22.6424 9.24935 22.6342 9.11313 22.5465 8.98172ZM21.8902 8.72542L21.7964 8.76293C21.6501 8.82794 21.5459 8.93421 21.4838 9.08174L21.3776 9.32553C21.351 9.38758 21.3344 9.45218 21.3276 9.51932L21.29 9.9194C21.2826 9.98637 21.2847 10.0531 21.2963 10.1194L21.3838 10.5883C21.4023 10.6827 21.4377 10.7702 21.4901 10.8508L21.7714 11.2947C21.8217 11.3728 21.8842 11.4394 21.9589 11.4947L22.4403 11.851C22.5126 11.9044 22.5917 11.944 22.6778 11.9698L23.3404 12.1698C23.3935 12.186 23.4477 12.1964 23.503 12.2011L24.3031 12.2698C24.3448 12.2731 24.3865 12.2731 24.4281 12.2698L25.2783 12.2011C25.3184 12.1977 25.3579 12.1915 25.3971 12.1823L26.2472 11.9885C26.2769 11.9818 26.306 11.9735 26.3348 11.9635L27.1099 11.6885C27.1576 11.6718 27.2035 11.651 27.2474 11.626L27.9476 11.2259C28.0096 11.1895 28.0658 11.1458 28.1163 11.0946L28.704 10.5195C28.823 10.4019 28.8939 10.2602 28.9165 10.0944L28.9978 9.49431L29.3853 9.01297C29.4976 8.87131 29.4829 8.74428 29.3414 8.63188C29.1999 8.51948 29.0728 8.53399 28.9603 8.67541L28.5914 9.14425L28.0226 9.27552C27.9375 9.29481 27.8583 9.32815 27.785 9.37554L27.1224 9.80687L26.4973 10.1507L25.8222 10.3882L25.0658 10.5758L24.3281 10.6695L23.6843 10.6508L23.2342 10.5258L22.9529 10.3257L22.7778 10.0944L22.6841 9.83188L22.6528 9.53807L22.6403 9.29428C22.6393 9.24771 22.6331 9.20187 22.6216 9.15675L22.5965 9.05673C22.553 8.90616 22.4603 8.79759 22.3184 8.73103C22.1765 8.66448 22.0338 8.66261 21.8902 8.72542Z" fill="black"/>
<path d="M26.8037 4.84966C26.8038 4.95316 26.8404 5.04149 26.9137 5.11464C26.9869 5.18779 27.0752 5.22436 27.1787 5.22436C27.2822 5.22436 27.3706 5.18779 27.4438 5.11464C27.5171 5.04149 27.5537 4.95316 27.5538 4.84966C27.5537 4.74616 27.5171 4.65783 27.4438 4.58468C27.3706 4.51153 27.2822 4.47495 27.1787 4.47495C27.0752 4.47495 26.9869 4.51153 26.9137 4.58468C26.8404 4.65783 26.8038 4.74616 26.8037 4.84966ZM27.46 4.58086L27.4288 4.5496C27.3964 4.51385 27.3589 4.48468 27.3163 4.46209L27.2225 4.41208C27.1909 4.39342 27.1576 4.37883 27.1225 4.36832L26.9975 4.33706C26.8919 4.30785 26.7878 4.31201 26.6849 4.34956L26.4849 4.42458C26.3733 4.46683 26.2816 4.53559 26.2098 4.63087L25.9723 4.94968C25.9078 5.03377 25.864 5.12754 25.841 5.23098L25.7285 5.78109C25.7162 5.83457 25.71 5.88875 25.7097 5.94362L25.716 6.58749C25.7174 6.64682 25.7257 6.70517 25.741 6.76252L25.8973 7.39389C25.9155 7.46922 25.9447 7.54007 25.9848 7.60643L26.3036 8.13153C26.3571 8.22048 26.4259 8.29549 26.5099 8.35658L27.01 8.71915C27.1005 8.78452 27.2005 8.82828 27.31 8.85042L27.9414 8.97544C28.0497 8.9983 28.1581 8.9983 28.2665 8.97544L28.9416 8.82542C29.0306 8.80631 29.114 8.77297 29.1916 8.7254L29.8418 8.31907C29.9125 8.2744 29.975 8.22022 30.0293 8.15654L30.5731 7.53142C30.6149 7.48141 30.6504 7.42723 30.6794 7.36889L31.067 6.61875C31.0961 6.56501 31.119 6.50875 31.1357 6.44996L31.3483 5.64356C31.3691 5.56998 31.3795 5.49497 31.3795 5.41852L31.367 4.63712C31.3638 4.53061 31.3408 4.42851 31.2983 4.33081L31.0295 3.67444C30.9755 3.5456 30.8943 3.43725 30.7857 3.34937L30.2668 2.93054C30.1482 2.8325 30.0127 2.77207 29.8605 2.74926L29.2041 2.65549C29.0746 2.63609 28.9475 2.64651 28.8228 2.68675L28.1727 2.89929C28.0508 2.94108 27.9445 3.00775 27.8539 3.09933L27.3413 3.59317C27.2257 3.70765 27.1548 3.84518 27.1287 4.00575L27.0162 4.65587C27.0159 4.66629 27.0159 4.67671 27.0162 4.68713L26.9537 5.31225L26.8412 5.8311C26.8105 5.99752 26.8778 6.09888 27.0431 6.13517C27.2084 6.17145 27.3119 6.1076 27.3538 5.94362L27.46 5.46853L27.7664 5.06845L28.254 4.77464C28.2581 4.7726 28.2623 4.77052 28.2665 4.76839L28.7728 4.44333L29.1479 4.33081L29.3979 4.36832L29.5792 4.51209L29.7105 4.82465L29.7167 5.32475L29.5479 5.93111L29.2479 6.52498L28.8416 7.00632L28.4227 7.30638L28.0602 7.40014L27.7664 7.35014L27.5163 7.18135L27.3288 6.8938L27.21 6.46872L27.1975 5.97487L27.26 5.47478L27.31 5.13721L27.36 4.97468C27.2586 5.04189 27.1899 5.13357 27.1537 5.24974L27.185 5.23723H27.1787L27.2163 5.23098C27.3756 5.21468 27.4835 5.13152 27.5397 4.98151C27.596 4.83149 27.5694 4.69794 27.46 4.58086Z" fill="black"/>
<path d="M26.1348 2.7305C26.1348 2.83062 26.1702 2.91608 26.241 2.98688C26.3118 3.05767 26.3972 3.09307 26.4973 3.09307C26.5975 3.09307 26.6829 3.05767 26.7537 2.98688C26.8245 2.91608 26.8599 2.83062 26.8599 2.7305C26.8599 2.63038 26.8245 2.54492 26.7537 2.47413C26.6829 2.40333 26.5975 2.36793 26.4973 2.36793C26.3972 2.36793 26.3118 2.40333 26.241 2.47413C26.1702 2.54492 26.1348 2.63038 26.1348 2.7305ZM26.0848 2.718C26.0848 2.82848 26.1238 2.92278 26.2019 3.0009C26.2801 3.07902 26.3744 3.11808 26.4848 3.11808C26.5953 3.11808 26.6896 3.07902 26.7677 3.0009C26.8458 2.92278 26.8849 2.82848 26.8849 2.718C26.8849 2.60752 26.8458 2.51322 26.7677 2.4351C26.6896 2.35698 26.5953 2.31792 26.4848 2.31792C26.3744 2.31792 26.2801 2.35698 26.2019 2.4351C26.1238 2.51322 26.0848 2.60752 26.0848 2.718ZM26.6224 3.09932L26.6536 3.08682C26.6771 3.08005 26.7 3.07171 26.7224 3.06182L26.8286 3.00556C26.8502 2.99426 26.871 2.98176 26.8912 2.96805L27.0474 2.85553L27.3537 2.7055C27.4868 2.64133 27.5868 2.5434 27.6538 2.41169L27.6976 2.31792H27.9914C28.1706 2.31376 28.2581 2.22207 28.2539 2.04287C28.2497 1.86367 28.1581 1.77615 27.9789 1.78032L27.6538 1.78657L27.5538 1.6803C27.3524 1.45504 27.1106 1.39669 26.8286 1.50527L26.4661 1.64905C26.3444 1.69514 26.2443 1.77015 26.166 1.87409L26.0285 2.06788C25.9111 2.22631 25.8756 2.40135 25.9222 2.59298L25.9472 2.7055C25.9927 2.89489 26.1074 3.022 26.291 3.08682L26.3223 3.09932C26.4223 3.13469 26.5223 3.13469 26.6224 3.09932Z" fill="black"/>
<path d="M25.991 2.4492C25.991 2.54932 26.0264 2.63478 26.0972 2.70557C26.168 2.77637 26.2535 2.81177 26.3536 2.81177C26.4537 2.81177 26.5392 2.77637 26.61 2.70557C26.6808 2.63478 26.7161 2.54932 26.7161 2.4492C26.7161 2.34908 26.6808 2.26362 26.61 2.19282C26.5392 2.12203 26.4537 2.08663 26.3536 2.08663C26.2535 2.08663 26.168 2.12203 26.0972 2.19282C26.0264 2.26362 25.991 2.34908 25.991 2.4492ZM26.6099 2.7305L26.6349 2.7055L26.7036 2.66174C26.7448 2.6373 26.7823 2.60813 26.8162 2.57422L26.9412 2.44295L27.085 2.31792L27.2975 2.1929L27.5663 2.09913L27.9664 2.10538C28.0498 2.10678 28.1311 2.09428 28.2102 2.06788L28.404 2.00536L28.679 2.26791C28.8207 2.40525 28.9603 2.40312 29.0977 2.26152C29.2351 2.11992 29.2331 1.98036 29.0916 1.84283L28.7478 1.51777L28.6978 1.23647C28.665 1.06519 28.5816 0.923739 28.4477 0.812102C28.3137 0.700465 28.1595 0.643966 27.9851 0.642604L27.4538 0.636353C27.3584 0.637176 27.2668 0.65593 27.1787 0.692613L26.7287 0.867647C26.66 0.897469 26.5974 0.93706 26.5411 0.986419L26.2473 1.22396C26.1907 1.27048 26.1428 1.32466 26.1035 1.3865L25.9535 1.63029C25.8978 1.71611 25.8645 1.80988 25.8535 1.9116L25.8347 2.12414C25.823 2.24984 25.8501 2.36653 25.916 2.4742L25.9723 2.57422C25.9782 2.58277 25.9845 2.59111 25.991 2.59923L26.0285 2.65549C26.095 2.75197 26.1863 2.8077 26.3025 2.82269C26.4186 2.83768 26.5211 2.80695 26.6099 2.7305Z" fill="black"/>
<path d="M30.0354 6.60001C30.0648 6.83346 30.1971 6.95018 30.4324 6.95018C30.6677 6.95018 30.8 6.83346 30.8293 6.60001C30.8 6.36657 30.6677 6.24985 30.4324 6.24985C30.1971 6.24985 30.0648 6.36657 30.0354 6.60001ZM29.9292 6.60627C29.9292 6.74609 29.9786 6.86544 30.0775 6.96431C30.1764 7.06318 30.2957 7.11261 30.4355 7.11261C30.5753 7.11261 30.6947 7.06318 30.7936 6.96431C30.8924 6.86544 30.9419 6.74609 30.9419 6.60627C30.9419 6.46644 30.8924 6.3471 30.7936 6.24822C30.6947 6.14935 30.5753 6.09992 30.4355 6.09992C30.2957 6.09992 30.1764 6.14935 30.0775 6.24822C29.9786 6.3471 29.9292 6.46644 29.9292 6.60627ZM29.8167 6.49374L29.7104 6.80005C29.7104 6.80214 29.7104 6.80422 29.7104 6.8063L29.5291 7.35016C29.5209 7.37892 29.5147 7.40809 29.5103 7.43767L29.3728 8.13156L29.2415 8.78793L28.9102 9.28178C28.8316 9.42375 28.86 9.53931 28.9957 9.62845C29.1313 9.71759 29.2487 9.69788 29.3478 9.56933L29.6854 9.06298L30.2042 8.61915C30.2269 8.60014 30.2477 8.5793 30.2667 8.55664L30.7168 8.00653C30.7685 7.94473 30.8081 7.87596 30.8356 7.80024L31.0294 7.26264C31.0517 7.1978 31.0642 7.13112 31.0669 7.0626L31.0856 6.74379C31.0893 6.58424 31.0411 6.44227 30.9411 6.31786C30.8412 6.19345 30.7129 6.11581 30.5563 6.08496C30.3998 6.05411 30.2516 6.07728 30.112 6.15447C29.9723 6.23166 29.8738 6.34475 29.8167 6.49374Z" fill="black"/>
<path d="M28.904 8.33158C28.904 8.44033 28.9424 8.53316 29.0193 8.61006C29.0962 8.68696 29.1891 8.7254 29.2978 8.72541C29.4066 8.7254 29.4994 8.68696 29.5763 8.61006C29.6532 8.53316 29.6916 8.44033 29.6916 8.33158C29.6916 8.22283 29.6532 8.13 29.5763 8.0531C29.4994 7.9762 29.4066 7.93776 29.2978 7.93776C29.1891 7.93776 29.0962 7.9762 29.0193 8.0531C28.9424 8.13 28.904 8.22283 28.904 8.33158ZM29.6479 8.52537L29.6854 8.46911L29.7479 8.37534C29.7523 8.36711 29.7564 8.35877 29.7604 8.35033L29.7979 8.29407L29.8354 8.25657C29.5932 8.18046 29.3828 8.23255 29.204 8.41285L29.3478 8.4566C29.2602 8.34797 29.1498 8.27296 29.0165 8.23156L29.1603 8.40659L29.3728 8.82542L29.6229 9.70059L29.8417 10.9883L29.9729 12.4324L30.0167 13.8201L29.9667 15.0641L29.7979 16.2206L29.5104 17.352L29.1415 18.4335L28.7852 19.3899L28.5039 20.1463C28.4936 20.1771 28.4853 20.2083 28.4789 20.2401L28.3351 20.8402C28.3177 20.9164 28.3114 20.9935 28.3164 21.0715L28.3476 21.7029C28.3536 21.8165 28.3807 21.9249 28.4289 22.0279L28.7602 22.7468C28.7788 22.7816 28.7996 22.8149 28.8227 22.8468L29.2916 23.5782C29.3633 23.6924 29.4571 23.7841 29.5729 23.8533L30.2042 24.2221L30.6731 24.5097L30.9419 24.816C31.0752 24.966 31.2169 24.9743 31.367 24.841C31.517 24.7076 31.5253 24.5659 31.392 24.4159L31.1294 24.1283L30.9731 23.647L30.8356 22.9531C30.8179 22.8717 30.7887 22.7946 30.7481 22.7218L30.3418 21.9717L30.048 21.3528L29.9479 20.9715L29.9917 20.6152L30.2542 19.9588L30.6418 19.0024C30.6464 18.9879 30.6506 18.9733 30.6543 18.9586L31.0356 17.8334C31.0426 17.8149 31.0488 17.7961 31.0544 17.7771L31.3607 16.5769C31.3684 16.5501 31.3746 16.523 31.3795 16.4956L31.5607 15.2579C31.5665 15.229 31.5707 15.1998 31.5732 15.1704L31.617 13.8576C31.6177 13.8389 31.6177 13.8201 31.617 13.8014L31.5732 12.3573C31.5735 12.3448 31.5735 12.3323 31.5732 12.3198L31.4482 10.8133C31.4467 10.7966 31.4446 10.7799 31.442 10.7633L31.2357 9.39428C31.2303 9.35407 31.222 9.31448 31.2107 9.27551L30.9044 8.28782C30.8823 8.21682 30.8511 8.15014 30.8106 8.08778L30.473 7.56268C30.3731 7.40774 30.2356 7.30147 30.0605 7.24387L29.7729 7.14385C29.5927 7.08383 29.4177 7.09633 29.2478 7.18136L29.1103 7.25012C28.9975 7.30695 28.91 7.3903 28.8477 7.50017L28.779 7.61894C28.7143 7.73381 28.6893 7.85675 28.7039 7.98776L28.7164 8.12529C28.7258 8.19857 28.7487 8.26733 28.7852 8.33158L28.8415 8.4441C28.8651 8.48592 28.8943 8.52343 28.929 8.55662L28.9853 8.61288C29.0838 8.70906 29.2013 8.74814 29.3378 8.73011C29.4743 8.71208 29.5777 8.64383 29.6479 8.52537Z" fill="black"/>
<path d="M30.8232 5.90613C30.8232 6.01143 30.8604 6.10131 30.9349 6.17577C31.0093 6.25023 31.0992 6.28746 31.2045 6.28746C31.3098 6.28746 31.3997 6.25023 31.4742 6.17577C31.5486 6.10131 31.5858 6.01143 31.5858 5.90613C31.5858 5.80083 31.5486 5.71095 31.4742 5.6365C31.3997 5.56204 31.3098 5.52481 31.2045 5.52481C31.0992 5.52481 31.0093 5.56204 30.9349 5.6365C30.8604 5.71095 30.8232 5.80083 30.8232 5.90613ZM31.4921 5.64358C31.4167 5.56035 31.323 5.5166 31.2108 5.51231L31.1858 5.50606C31.1112 5.50184 31.0406 5.51651 30.9738 5.55009C30.9071 5.58366 30.8532 5.63164 30.8122 5.69404C30.7711 5.75644 30.7484 5.82492 30.744 5.89948C30.7396 5.97404 30.7541 6.04472 30.7875 6.11152C30.8209 6.17833 30.8687 6.23233 30.931 6.27354C30.9933 6.31474 31.0617 6.33765 31.1363 6.34225C31.2108 6.34685 31.2816 6.33254 31.3485 6.29931C31.4153 6.26608 31.4695 6.21837 31.5108 6.15618L31.5233 6.13743C31.5875 6.04417 31.6083 5.94207 31.5858 5.83112C31.5722 5.75982 31.5409 5.69731 31.4921 5.64358ZM30.7107 5.94364C30.7107 6.0662 30.754 6.17081 30.8407 6.25748C30.9273 6.34414 31.032 6.38747 31.1545 6.38747C31.2771 6.38747 31.3817 6.34414 31.4684 6.25748C31.555 6.17081 31.5983 6.0662 31.5983 5.94364C31.5983 5.82108 31.555 5.71647 31.4684 5.6298C31.3817 5.54314 31.2771 5.49981 31.1545 5.49981C31.032 5.49981 30.9273 5.54314 30.8407 5.6298C30.754 5.71647 30.7107 5.82108 30.7107 5.94364ZM30.7669 6.2687L30.817 6.33121C30.8341 6.35352 30.8528 6.37436 30.8732 6.39373L30.9982 6.5125L31.192 6.71879L31.4296 7.04385L31.6984 7.50019L31.9609 8.0753L32.211 8.70667L32.4235 9.36304L32.561 10.1507L32.586 11.1696L32.4735 12.3449L32.286 13.5451L32.0734 14.6078L31.8296 15.5142L31.5671 16.3019L31.267 17.0333L30.9732 17.7271C30.9687 17.7395 30.9646 17.752 30.9607 17.7646L30.7294 18.4085C30.7193 18.4372 30.711 18.4663 30.7044 18.496L30.5669 19.0961C30.5555 19.1455 30.5492 19.1955 30.5481 19.2462L30.5419 19.79C30.5388 19.8576 30.5451 19.9243 30.5607 19.9901L30.6982 20.4839C30.7304 20.6027 30.7909 20.7048 30.8795 20.7902L31.167 21.0653L31.3858 21.2778L31.4858 21.4841C31.5739 21.5992 31.6834 21.6257 31.8144 21.5637C31.9453 21.5016 31.9942 21.4001 31.9609 21.2591L31.8734 21.0653L31.8859 20.834L31.9859 20.4964C32.0051 20.429 32.0134 20.3602 32.0109 20.2901L31.9984 19.8088L32.0172 19.3587L32.1297 18.8649L32.3422 18.2835L32.6298 17.6021C32.6299 17.5979 32.6299 17.5938 32.6298 17.5896L32.9361 16.8332C32.9433 16.8127 32.9495 16.7918 32.9549 16.7707L33.2112 15.933C33.2159 15.9165 33.2201 15.8999 33.2237 15.883L33.4487 14.9329C33.4509 14.9246 33.453 14.9162 33.455 14.9078L33.6737 13.8076C33.6761 13.7973 33.6781 13.7868 33.68 13.7764L33.8613 12.5386C33.864 12.5221 33.866 12.5054 33.8675 12.4886L33.9738 11.2509C33.9754 11.2238 33.9754 11.1967 33.9738 11.1696L33.9363 10.0569C33.9349 10.0212 33.9307 9.98575 33.9238 9.95065L33.755 9.07549C33.7504 9.04801 33.7442 9.02093 33.7363 8.99422L33.505 8.26908C33.5013 8.25436 33.4971 8.23977 33.4925 8.22532L33.2299 7.55645C33.2242 7.54164 33.2179 7.52706 33.2112 7.51269L32.9236 6.90007C32.9109 6.87199 32.8963 6.8449 32.8798 6.81881L32.561 6.31246C32.5339 6.27151 32.5027 6.234 32.4673 6.19994L32.1234 5.86237C32.0841 5.82327 32.0403 5.78993 31.9922 5.76236L31.6921 5.59357C31.6622 5.57619 31.6309 5.56161 31.5983 5.54981L31.4108 5.4873C31.3579 5.47058 31.3038 5.46225 31.2483 5.4623H31.1733C30.9628 5.45762 30.8103 5.54927 30.7156 5.73724C30.6208 5.92521 30.638 6.10236 30.7669 6.2687Z" fill="black"/>
<path d="M31.3419 21.3778C31.3419 21.4866 31.3804 21.5794 31.4573 21.6563C31.5342 21.7332 31.627 21.7716 31.7357 21.7716C31.8445 21.7716 31.9373 21.7332 32.0142 21.6563C32.0911 21.5794 32.1296 21.4866 32.1296 21.3778C32.1296 21.2691 32.0911 21.1762 32.0142 21.0993C31.9373 21.0224 31.8445 20.984 31.7357 20.984C31.627 20.984 31.5342 21.0224 31.4573 21.0993C31.3804 21.1762 31.3419 21.2691 31.3419 21.3778ZM31.2544 21.3778C31.2544 21.5038 31.2989 21.6114 31.388 21.7005C31.4772 21.7896 31.5847 21.8342 31.7107 21.8342C31.8367 21.8342 31.9443 21.7896 32.0334 21.7005C32.1225 21.6114 32.1671 21.5038 32.1671 21.3778C32.1671 21.2518 32.1225 21.1442 32.0334 21.0551C31.9443 20.966 31.8367 20.9215 31.7107 20.9215C31.5847 20.9215 31.4772 20.966 31.388 21.0551C31.2989 21.1442 31.2544 21.2518 31.2544 21.3778ZM31.942 20.934L31.8795 20.8965C31.7131 20.7849 31.5339 20.7578 31.3419 20.8152L31.1544 20.8777C30.9908 20.9263 30.8596 21.0201 30.7605 21.159L30.548 21.4653C30.4984 21.5343 30.4609 21.6093 30.4355 21.6904L30.298 22.1467C30.2772 22.2182 30.2668 22.2911 30.2667 22.3655L30.2542 22.8781C30.2529 22.9568 30.2633 23.0339 30.2855 23.1094L30.423 23.5657C30.4551 23.6759 30.5092 23.7738 30.5855 23.8595L30.8606 24.1596C30.967 24.2799 31.0983 24.3591 31.2544 24.3971L31.6607 24.4909C31.7931 24.5215 31.9244 24.5174 32.0545 24.4784L32.5296 24.3346C32.634 24.3045 32.7278 24.2545 32.8109 24.1846L33.261 23.797C33.3205 23.7444 33.3705 23.684 33.4111 23.6157L33.7736 23.0344C33.8128 22.9699 33.842 22.9011 33.8611 22.8281L34.0424 22.1592C34.0678 22.0604 34.0741 21.9604 34.0612 21.8592L33.9924 21.2903C33.9692 21.0758 33.8754 20.8987 33.7111 20.7589L33.386 20.4839C33.2382 20.3607 33.0681 20.2979 32.8757 20.2956C32.6832 20.2932 32.5116 20.3518 32.3609 20.4714L32.0795 20.6902C32.01 20.7444 31.9559 20.8111 31.917 20.8902L31.792 21.1465L31.5107 21.3528C31.3796 21.4684 31.3656 21.5968 31.4686 21.738C31.5716 21.8792 31.6982 21.905 31.8483 21.8154L32.0795 21.6466L32.2171 21.6779L32.3921 21.7779L32.4296 21.8154L32.4546 21.9404L32.3734 22.353L32.1608 22.7218L31.942 22.9094L31.817 22.9469H31.8295L31.8483 22.9656L31.8107 22.8218L31.8358 22.5218L31.942 22.1655L32.0608 21.8467C32.063 21.8404 32.065 21.8342 32.067 21.8279L32.1296 21.6341C32.14 21.6055 32.1483 21.5764 32.1546 21.5466L32.1671 21.4778C32.2126 21.2467 32.1376 21.0654 31.942 20.934Z" fill="black"/>
<path d="M32.8673 14.9016C32.8673 15.0017 32.9027 15.0871 32.9735 15.1579C33.0443 15.2287 33.1298 15.2641 33.2299 15.2641C33.33 15.2641 33.4155 15.2287 33.4863 15.1579C33.5571 15.0871 33.5925 15.0017 33.5925 14.9016C33.5925 14.8014 33.5571 14.716 33.4863 14.6452C33.4155 14.5744 33.33 14.539 33.2299 14.539C33.1298 14.539 33.0443 14.5744 32.9735 14.6452C32.9027 14.716 32.8673 14.8014 32.8673 14.9016ZM32.736 14.8328C32.736 14.9692 32.7843 15.0856 32.8807 15.182C32.9771 15.2784 33.0935 15.3266 33.2299 15.3266C33.3663 15.3266 33.4827 15.2784 33.5791 15.182C33.6755 15.0856 33.7237 14.9692 33.7237 14.8328C33.7237 14.6964 33.6755 14.58 33.5791 14.4836C33.4827 14.3872 33.3663 14.339 33.2299 14.339C33.0935 14.339 32.9771 14.3872 32.8807 14.4836C32.7843 14.58 32.736 14.6964 32.736 14.8328ZM32.661 14.7265L32.6235 14.8766C32.6145 14.9094 32.6082 14.9427 32.6048 14.9766L32.5798 15.2891C32.5794 15.3016 32.5794 15.3141 32.5798 15.3266L32.5735 15.758C32.5728 15.7746 32.5728 15.7913 32.5735 15.808L32.5985 16.2956C32.5997 16.3144 32.6018 16.3332 32.6048 16.3518L32.6798 16.8394C32.6842 16.8669 32.6904 16.894 32.6985 16.9207L32.8361 17.377C32.8448 17.4027 32.8552 17.4277 32.8673 17.452L33.0736 17.9021C33.0756 17.9063 33.0777 17.9105 33.0799 17.9146L33.3174 18.396L33.5674 19.0023L33.7862 19.74L33.9613 20.5651L34.0488 21.4278V22.2905L33.9925 23.1031L33.905 23.7908C33.9047 23.8012 33.9047 23.8116 33.905 23.822L33.8675 24.3659C33.8615 24.429 33.8657 24.4916 33.88 24.5534L33.9675 24.8847L33.98 24.9785L33.9425 25.0847C33.9184 25.1493 33.9059 25.2159 33.905 25.2848V25.7099C33.9061 25.7308 33.9082 25.7516 33.9113 25.7724L33.9738 26.4225C33.9771 26.4414 33.9813 26.4602 33.9863 26.4788L34.1301 27.2227C34.1435 27.2867 34.1664 27.3471 34.1988 27.4039L34.5301 27.9978C34.5359 28.0085 34.5422 28.0189 34.5489 28.0291L34.8239 28.4416L34.949 28.773C35.0218 28.9152 35.133 28.9583 35.2826 28.9022C35.4323 28.8461 35.4878 28.7405 35.4491 28.5854L35.3303 28.2729L35.3365 27.7978L35.3615 27.1289C35.3642 27.0955 35.3642 27.0622 35.3615 27.0289L35.2678 26.2787C35.2679 26.2725 35.2679 26.2662 35.2678 26.26L35.174 25.6161C35.1723 25.6035 35.1702 25.591 35.1678 25.5786L35.0802 25.166C35.0597 25.0703 35.018 24.9848 34.9552 24.9097L34.9052 24.8472L34.9115 24.8597L34.999 24.6097C35.0099 24.5791 35.0182 24.5478 35.024 24.5159L35.124 23.972C35.1241 23.9658 35.1241 23.9595 35.124 23.9533L35.2303 23.2469C35.2305 23.2365 35.2305 23.2261 35.2303 23.2156L35.3115 22.3717C35.3122 22.3551 35.3122 22.3384 35.3115 22.3217L35.324 21.4028C35.3232 21.3798 35.3211 21.3568 35.3178 21.334L35.224 20.4026C35.2213 20.3774 35.2172 20.3523 35.2115 20.3276L35.0115 19.4462C35.0082 19.4272 35.004 19.4085 34.999 19.3899L34.7489 18.6085C34.7417 18.5872 34.7334 18.5664 34.7239 18.546L34.4426 17.9021C34.4369 17.8873 34.4307 17.8727 34.4239 17.8584L34.1676 17.377L33.9863 16.9832L33.8738 16.6206L33.8237 16.2081L33.7987 15.758L33.805 15.3516L33.8175 15.0453C33.8177 15.037 33.8177 15.0287 33.8175 15.0203V14.8641C33.8151 14.717 33.7647 14.5889 33.6662 14.4798C33.5676 14.3706 33.4454 14.3074 33.2993 14.29C33.1533 14.2726 33.0196 14.3055 32.8983 14.3885C32.7769 14.4715 32.6978 14.5842 32.661 14.7265Z" fill="black"/>
<path d="M33.6049 12.1135C33.6049 12.2171 33.6415 12.3055 33.7148 12.3788C33.788 12.452 33.8764 12.4886 33.98 12.4886C34.0836 12.4886 34.172 12.452 34.2452 12.3788C34.3184 12.3055 34.3551 12.2171 34.3551 12.1135C34.3551 12.01 34.3184 11.9216 34.2452 11.8483C34.172 11.7751 34.0836 11.7385 33.98 11.7385C33.8764 11.7385 33.788 11.7751 33.7148 11.8483C33.6415 11.9216 33.6049 12.01 33.6049 12.1135ZM33.5549 12.1135C33.5549 12.2275 33.5952 12.3247 33.6757 12.4053C33.7563 12.4858 33.8536 12.5261 33.9675 12.5261C34.0814 12.5261 34.1787 12.4858 34.2592 12.4053C34.3398 12.3247 34.3801 12.2275 34.3801 12.1135C34.3801 11.9996 34.3398 11.9024 34.2592 11.8218C34.1787 11.7412 34.0814 11.701 33.9675 11.701C33.8536 11.701 33.7563 11.7412 33.6757 11.8218C33.5952 11.9024 33.5549 11.9996 33.5549 12.1135ZM34.0425 11.6447L34.0237 11.6384C33.8855 11.6107 33.7567 11.6343 33.6372 11.7091C33.5177 11.7839 33.4403 11.8896 33.4049 12.026L33.3736 12.1385C33.3657 12.1631 33.3594 12.1881 33.3549 12.2136L33.3361 12.4198C33.3263 12.4977 33.3305 12.5748 33.3486 12.6511L33.4361 13.0012C33.4428 13.0288 33.4512 13.0559 33.4611 13.0825L33.6424 13.5513C33.6445 13.5534 33.6466 13.5555 33.6487 13.5576L33.8987 14.1889L34.1925 14.9828L34.5426 15.908C34.5464 15.9206 34.5506 15.9331 34.5551 15.9455L34.9927 16.9457C34.9985 16.9605 35.0047 16.9751 35.0114 16.9895L35.5615 18.0522C35.5615 18.0543 35.5615 18.0563 35.5615 18.0584L36.1179 19.1086L36.5367 20.1463L36.7743 21.159L36.843 22.0654L36.7618 22.8093L36.5242 23.497L36.1867 24.2221L35.8303 24.9535C35.8282 24.9556 35.8262 24.9576 35.8241 24.9597L35.5053 25.6286C35.5008 25.641 35.4966 25.6535 35.4928 25.6661L35.2677 26.2162C35.2479 26.2626 35.2333 26.3105 35.224 26.36L35.1552 26.7538C35.138 26.8465 35.1422 26.9382 35.1677 27.0289L35.224 27.2102C35.269 27.3661 35.3682 27.4706 35.5216 27.5235C35.6751 27.5764 35.8176 27.5553 35.9491 27.4602L36.0991 27.3477C36.1575 27.3085 36.2075 27.2605 36.2492 27.2039L36.4742 26.8726C36.4954 26.8428 36.5142 26.8116 36.5305 26.7788L36.7868 26.2475C36.7868 26.2454 36.7868 26.2433 36.7868 26.2412L37.1056 25.5786L37.4682 24.841C37.4725 24.8327 37.4766 24.8244 37.4807 24.816L37.8245 24.0471C37.8338 24.0266 37.8421 24.0058 37.8495 23.9845L38.1183 23.1906C38.1304 23.1497 38.1387 23.1081 38.1433 23.0656L38.2746 22.178C38.2807 22.1344 38.2827 22.0906 38.2808 22.0467L38.2308 21.009C38.2285 20.9647 38.2223 20.9209 38.212 20.8777L37.9495 19.7587C37.9397 19.7224 37.9272 19.6869 37.912 19.6525L37.4556 18.5273C37.4462 18.5059 37.4358 18.4851 37.4244 18.4647L36.8618 17.377C36.8597 17.3749 36.8576 17.3729 36.8555 17.3708L36.3054 16.3393L35.8866 15.3892L35.5553 14.4765L35.2677 13.6763C35.2637 13.6679 35.2596 13.6596 35.2552 13.6513L34.9989 13.0137C34.993 13.001 34.9868 12.9885 34.9802 12.9762L34.7614 12.5199C34.7486 12.4918 34.734 12.4647 34.7176 12.4386L34.5238 12.1448C34.518 12.1321 34.5117 12.1196 34.5051 12.1073L34.4301 12.0073L34.4176 11.976C34.3929 11.913 34.3575 11.8567 34.3113 11.8072L34.305 11.7947C34.2338 11.7162 34.1463 11.6662 34.0425 11.6447ZM35.6053 27.4227L35.6303 27.429C35.8012 27.4706 35.9074 27.406 35.9491 27.2352C35.9908 27.0643 35.9262 26.958 35.7553 26.9164L35.7303 26.9101C35.5596 26.8687 35.4535 26.9333 35.4119 27.104C35.3702 27.2746 35.4347 27.3808 35.6053 27.4227Z" fill="black"/>
<path d="M35.624 26.4288C35.624 26.5272 35.6588 26.6112 35.7284 26.6807C35.798 26.7503 35.8819 26.7851 35.9803 26.7851C36.0787 26.7851 36.1627 26.7503 36.2323 26.6807C36.3019 26.6112 36.3367 26.5272 36.3367 26.4288C36.3367 26.3304 36.3019 26.2464 36.2323 26.1768C36.1627 26.1073 36.0787 26.0725 35.9803 26.0725C35.8819 26.0725 35.798 26.1073 35.7284 26.1768C35.6588 26.2464 35.624 26.3304 35.624 26.4288ZM35.5803 26.4288C35.5803 26.5375 35.6187 26.6304 35.6956 26.7073C35.7725 26.7842 35.8653 26.8226 35.9741 26.8226C36.0828 26.8226 36.1757 26.7842 36.2526 26.7073C36.3295 26.6304 36.3679 26.5375 36.3679 26.4288C36.3679 26.32 36.3295 26.2272 36.2526 26.1503C36.1757 26.0734 36.0828 26.035 35.9741 26.035C35.8653 26.035 35.7725 26.0734 35.6956 26.1503C35.6187 26.2272 35.5803 26.32 35.5803 26.4288ZM36.2679 26.085L36.2054 26.0162C36.1491 25.9553 36.0824 25.9094 36.0053 25.8787L35.8491 25.8224C35.8047 25.8044 35.7589 25.7919 35.7115 25.7849L35.5178 25.7599C35.3389 25.7348 35.1743 25.7723 35.0239 25.8724L34.7676 26.0475C34.665 26.1177 34.5837 26.2073 34.5238 26.3163L34.3175 26.6913C34.2795 26.7602 34.2524 26.8331 34.2363 26.9101L34.1362 27.3852C34.1187 27.4679 34.1145 27.5513 34.1237 27.6353L34.1863 28.1354C34.1971 28.2418 34.2284 28.3418 34.28 28.4354L34.5363 28.8918C34.6026 29.0062 34.6922 29.0979 34.8051 29.1668L35.2615 29.4544C35.3764 29.5254 35.5014 29.5629 35.6365 29.5669L36.2054 29.5856C36.2755 29.5882 36.3442 29.5799 36.4117 29.5606L36.9618 29.3981C37.0319 29.3783 37.0965 29.347 37.1556 29.3043L37.6119 28.9668C37.6917 28.9087 37.7542 28.8357 37.7994 28.748L38.0495 28.2541C38.0926 28.1697 38.1155 28.0801 38.1182 27.9853L38.1308 27.4602C38.1345 27.3648 38.1178 27.2732 38.0807 27.1852L37.8932 26.7539C37.8308 26.6108 37.7307 26.5025 37.5931 26.4288L37.2556 26.2475C37.1006 26.1745 36.9413 26.1632 36.7776 26.2137C36.6139 26.2643 36.4887 26.3634 36.4018 26.5111C36.315 26.6587 36.2893 26.8164 36.3248 26.984C36.3602 27.1516 36.4475 27.2853 36.5867 27.3852L36.7742 27.504L36.843 27.6228L36.8493 27.8353L36.743 28.0604L36.5429 28.2104L36.3054 28.2416L36.0304 28.1416L35.8303 27.9853L35.7365 27.8103L35.7115 27.5853L35.7678 27.329L35.8866 27.0664L36.0116 26.8726L36.1116 26.7351C35.9697 26.7684 35.8551 26.8434 35.7678 26.9601L35.9303 26.9226C35.9784 26.9121 36.0243 26.8954 36.0679 26.8726L36.1491 26.8289C36.2863 26.7545 36.3671 26.6402 36.3917 26.4862C36.4163 26.3321 36.3751 26.1984 36.2679 26.085ZM36.4992 26.5663L36.2054 26.6663C36.0265 26.7249 35.9662 26.8436 36.0245 27.0225C36.0827 27.2015 36.2014 27.2619 36.3804 27.2039L36.6742 27.1039C36.8532 27.0455 36.9135 26.9267 36.8552 26.7477C36.797 26.5687 36.6783 26.5082 36.4992 26.5663Z" fill="black"/>
<path d="M26.1345 3.50553L26.1407 3.46802C26.1248 3.50183 26.1144 3.53726 26.1095 3.57429L26.172 3.43677L26.2282 3.343C26.2493 3.30965 26.266 3.27423 26.2783 3.23673L26.322 3.08045C26.3539 2.97209 26.3539 2.86374 26.322 2.75539L26.2595 2.5491C26.2279 2.43526 26.1695 2.33732 26.0845 2.25529L25.8594 2.04275C25.8022 1.98804 25.7377 1.94428 25.6656 1.91148L25.3031 1.74894C25.2686 1.73363 25.2332 1.72113 25.1968 1.71144L24.7405 1.58641C24.7137 1.57862 24.6866 1.57236 24.6592 1.56766L24.1091 1.48014C24.0697 1.47494 24.0301 1.47285 23.9903 1.47389H23.3527C23.2958 1.47399 23.2395 1.48024 23.1839 1.49265L22.44 1.65518C22.3838 1.66803 22.3296 1.68678 22.2775 1.71144L21.4523 2.09276C21.3791 2.12652 21.3124 2.17027 21.2523 2.22403L20.4271 2.96168C20.3169 3.06067 20.2419 3.18153 20.2021 3.32424L19.8833 4.43696L19.2707 5.39964C19.2064 5.54533 19.2418 5.66021 19.3771 5.74429C19.5123 5.82836 19.6311 5.80933 19.7333 5.68719L20.3271 4.75577L21.3086 4.19316C21.339 4.1764 21.3682 4.15765 21.3961 4.1369L22.215 3.51178L22.8839 3.18047L23.4777 3.03044L23.9966 2.99293L24.4529 3.01794L24.8217 3.0867L25.0968 3.18672L25.3031 3.29299L25.4156 3.368L25.4343 3.38676L25.4156 3.343V3.42426C25.4147 3.43885 25.4147 3.45344 25.4156 3.46802L25.4218 3.50553C25.4589 3.70255 25.5777 3.80106 25.7782 3.80106C25.9786 3.80106 26.0974 3.70255 26.1345 3.50553Z" fill="black"/>
<path d="M22.1274 3.25548C22.1274 3.3556 22.1628 3.44106 22.2336 3.51186C22.3044 3.58265 22.3898 3.61805 22.49 3.61805C22.5901 3.61805 22.6755 3.58265 22.7463 3.51186C22.8171 3.44106 22.8525 3.3556 22.8525 3.25548C22.8525 3.15536 22.8171 3.0699 22.7463 2.99911C22.6755 2.92831 22.5901 2.89291 22.49 2.89291C22.3898 2.89291 22.3044 2.92831 22.2336 2.99911C22.1628 3.0699 22.1274 3.15536 22.1274 3.25548ZM22.0961 3.25548C22.0961 3.36078 22.1334 3.45066 22.2078 3.52512C22.2823 3.59957 22.3722 3.6368 22.4775 3.6368C22.5828 3.6368 22.6726 3.59957 22.7471 3.52512C22.8215 3.45066 22.8588 3.36078 22.8588 3.25548C22.8588 3.15018 22.8215 3.0603 22.7471 2.98585C22.6726 2.91139 22.5828 2.87416 22.4775 2.87416C22.3722 2.87416 22.2823 2.91139 22.2078 2.98585C22.1334 3.0603 22.0961 3.15018 22.0961 3.25548ZM22.7775 2.99293L22.74 2.94917C22.7098 2.91033 22.6743 2.87699 22.6337 2.84915L22.5212 2.77414C22.4802 2.7476 22.4364 2.72676 22.3899 2.71163L22.1774 2.64286C22.1347 2.62797 22.0909 2.61755 22.0461 2.61161L21.7023 2.5741C21.6504 2.56656 21.5983 2.56447 21.546 2.56785L21.0834 2.61161C21.0347 2.61555 20.9868 2.62389 20.9397 2.63661L20.3896 2.79289C20.351 2.80471 20.3135 2.81929 20.277 2.83665L19.6832 3.0992C19.644 3.11708 19.6065 3.13792 19.5707 3.16171L18.958 3.55554C18.9155 3.58312 18.876 3.61438 18.8393 3.64931L18.2767 4.18066C18.2367 4.22074 18.2013 4.2645 18.1704 4.31193L17.6703 5.03082C17.6489 5.06487 17.6302 5.1003 17.614 5.13709L17.1827 6.01226C17.1712 6.0347 17.1608 6.05762 17.1514 6.08102L16.7889 7.0312C16.7793 7.0558 16.771 7.08081 16.7639 7.10621L16.4951 8.07515C16.4899 8.09789 16.4858 8.12081 16.4826 8.14391L16.3013 9.10034C16.2951 9.13343 16.2909 9.16677 16.2888 9.20036L16.2263 10.1443C16.2234 10.1839 16.2234 10.2235 16.2263 10.2631L16.3075 11.1945C16.3109 11.2345 16.3171 11.2741 16.3263 11.3133L16.5326 12.1947C16.5448 12.2442 16.5615 12.2921 16.5826 12.3385L16.9139 13.1074C16.9479 13.1877 16.9937 13.2607 17.0514 13.3261L17.5515 13.8888C17.6794 14.0338 17.8399 14.113 18.0329 14.1263L18.5079 14.1576L18.9268 14.4201C19.0822 14.5078 19.2075 14.4762 19.3028 14.3253C19.3981 14.1744 19.3728 14.0477 19.2268 13.945L18.858 13.7075L18.7767 13.2886C18.7662 13.2257 18.7474 13.1652 18.7205 13.1074L18.4017 12.4635L18.1329 11.7634L17.9516 10.9945L17.8766 10.1818L17.9266 9.35039L18.0891 8.48148L18.3392 7.5813L18.6705 6.70614L19.0643 5.91849L19.4769 5.30587L19.9145 4.88704L20.4083 4.56823L20.9084 4.34319L21.4085 4.17441L21.8461 4.03063C21.8651 4.02512 21.8838 4.01887 21.9023 4.01188L22.2274 3.87435C22.2532 3.86343 22.2782 3.85093 22.3024 3.83684L22.4962 3.72432C22.5046 3.72036 22.513 3.71619 22.5212 3.71182L22.6337 3.6368C22.6536 3.62363 22.6723 3.60904 22.69 3.59305L22.7338 3.55554C22.8141 3.4822 22.8584 3.39131 22.8669 3.28289C22.8753 3.17446 22.8455 3.07781 22.7775 2.99293Z" fill="black"/>
<path d="M23.0527 7.50005C23.0527 7.60708 23.0905 7.69843 23.1662 7.77411C23.2419 7.84979 23.3332 7.88763 23.4403 7.88763C23.5473 7.88763 23.6386 7.84979 23.7143 7.77411C23.79 7.69843 23.8278 7.60708 23.8278 7.50005C23.8278 7.39303 23.79 7.30168 23.7143 7.226C23.6386 7.15032 23.5473 7.11248 23.4403 7.11248C23.3332 7.11248 23.2419 7.15032 23.1662 7.226C23.0905 7.30168 23.0527 7.39303 23.0527 7.50005ZM23.0277 7.50005C23.0277 7.61398 23.068 7.71123 23.1485 7.79179C23.2291 7.87235 23.3263 7.91263 23.4403 7.91263C23.5542 7.91263 23.6514 7.87235 23.732 7.79179C23.8125 7.71123 23.8528 7.61398 23.8528 7.50005C23.8528 7.38612 23.8125 7.28888 23.732 7.20832C23.6514 7.12775 23.5542 7.08747 23.4403 7.08747C23.3263 7.08747 23.2291 7.12775 23.1485 7.20832C23.068 7.28888 23.0277 7.38612 23.0277 7.50005ZM23.8716 7.46255V7.44379C23.8407 7.50909 23.8261 7.57785 23.8278 7.65008L23.8466 7.62508C23.8243 7.65422 23.8055 7.68547 23.7903 7.71884L23.8216 7.67509C23.874 7.60394 23.9073 7.52476 23.9216 7.43754L23.9403 7.32502C23.956 7.22979 23.9498 7.13602 23.9216 7.04372L23.8716 6.88119C23.8485 6.80606 23.8131 6.7373 23.7653 6.6749L23.6278 6.49986C23.6142 6.48035 23.5996 6.46159 23.584 6.4436L23.4027 6.25607C23.383 6.23611 23.3622 6.21736 23.3402 6.19981L23.1027 5.99977C23.0438 5.95091 22.9792 5.91132 22.9089 5.88099L22.5713 5.73722C22.5211 5.71335 22.469 5.6946 22.4151 5.68096L21.99 5.59344C21.922 5.57899 21.8532 5.57274 21.7837 5.57469L21.3086 5.58094C21.2028 5.58377 21.1007 5.60461 21.0023 5.64345L20.4959 5.83724C20.4072 5.87241 20.3259 5.92033 20.2521 5.98101L19.7708 6.37484C19.7142 6.42291 19.6642 6.47709 19.6208 6.53737L19.2019 7.09998C19.1625 7.15263 19.1292 7.20889 19.1019 7.26876L18.7769 7.98765C18.7562 8.03418 18.7395 8.0821 18.7269 8.13142L18.5018 8.98158C18.489 9.03296 18.4806 9.08505 18.4768 9.13786L18.4018 10.063C18.3941 10.1404 18.3962 10.2175 18.408 10.2943L18.5643 11.1883C18.5834 11.2971 18.6209 11.3992 18.6768 11.4946L19.1082 12.2447C19.1707 12.353 19.252 12.4447 19.352 12.5198L20.0521 13.0386C20.1567 13.1188 20.2734 13.173 20.4022 13.2011L21.2711 13.3824C21.3351 13.3956 21.3997 13.3997 21.4649 13.3949L22.2775 13.3387L22.9464 13.3324L23.459 13.4012C23.6338 13.4217 23.7316 13.3446 23.7524 13.1698C23.7732 12.9951 23.6962 12.8972 23.5215 12.8761L23.0339 12.8136L22.4588 12.576L21.8274 12.1197C21.8254 12.1197 21.8233 12.1197 21.8212 12.1197L21.1273 11.6321L20.621 11.1945L20.3459 10.7132L20.2396 10.0943L20.2959 9.36291L20.4709 8.66903L20.7272 8.11267L21.021 7.71259L21.3086 7.4688L21.5649 7.35628L21.8149 7.33127L22.1338 7.35628L22.4213 7.40629L22.6276 7.45629L22.7339 7.5063L22.8026 7.56257L22.8901 7.65008C22.9059 7.66771 22.9225 7.68438 22.9402 7.70009L23.0214 7.76885C23.0542 7.79588 23.0896 7.8188 23.1277 7.83762L23.1715 7.86262C23.1917 7.8724 23.2125 7.88073 23.234 7.88763L23.259 7.89388C23.2447 7.88686 23.2301 7.88061 23.2152 7.87512L23.234 7.88763C23.3048 7.92219 23.3796 7.93683 23.4583 7.93154C23.537 7.92626 23.6091 7.90174 23.6747 7.858C23.7403 7.81426 23.7907 7.7571 23.8258 7.68651C23.861 7.61592 23.8762 7.54126 23.8716 7.46255Z" fill="black"/>
<path d="M20.4021 11.8509C20.4022 11.9561 20.4395 12.046 20.5139 12.1204C20.5884 12.1948 20.6782 12.232 20.7834 12.232C20.8887 12.232 20.9785 12.1948 21.053 12.1204C21.1274 12.046 21.1647 11.9561 21.1648 11.8509C21.1647 11.7456 21.1274 11.6558 21.053 11.5814C20.9785 11.507 20.8887 11.4698 20.7834 11.4698C20.6782 11.4698 20.5884 11.507 20.5139 11.5814C20.4395 11.6558 20.4022 11.7456 20.4021 11.8509ZM20.3584 11.8947C20.3584 12.012 20.3999 12.1122 20.4829 12.1952C20.5659 12.2782 20.6661 12.3197 20.7834 12.3197C20.9008 12.3197 21.001 12.2782 21.084 12.1952C21.167 12.1122 21.2085 12.012 21.2085 11.8947C21.2085 11.7773 21.167 11.6771 21.084 11.5941C21.001 11.5111 20.9008 11.4696 20.7834 11.4696C20.6661 11.4696 20.5659 11.5111 20.4829 11.5941C20.3999 11.6771 20.3584 11.7773 20.3584 11.8947ZM20.2333 11.9572L20.2146 12.1259C20.1946 12.3107 20.2405 12.4774 20.3521 12.626L20.5334 12.8761C20.5961 12.961 20.6732 13.0298 20.7647 13.0824L21.121 13.2887C21.1765 13.3188 21.2349 13.3418 21.296 13.3574L21.7899 13.495C21.845 13.5117 21.9012 13.5222 21.9587 13.5262L22.5338 13.5575C22.5798 13.5595 22.6257 13.5575 22.6713 13.5512L23.2777 13.47C23.3179 13.4648 23.3575 13.4564 23.3964 13.4449L24.0028 13.2637C24.0393 13.2518 24.0748 13.2372 24.1091 13.2199L24.6592 12.9636C24.6918 12.9471 24.7231 12.9284 24.753 12.9073L25.2093 12.6073C25.2355 12.5901 25.2605 12.5713 25.2843 12.551L25.6469 12.2385C25.6938 12.1997 25.7355 12.1559 25.7719 12.1072L26.0094 11.7759C26.0479 11.7236 26.0792 11.6674 26.1032 11.6071L26.222 11.3008C26.2826 11.1418 26.2868 10.9814 26.2345 10.8194L26.1657 10.6007C26.1339 10.5035 26.0803 10.4203 26.0051 10.3511C25.9298 10.2818 25.8424 10.2354 25.7429 10.2118C25.6434 10.1882 25.5445 10.1905 25.4462 10.2185C25.3478 10.2466 25.2626 10.2968 25.1905 10.3694L25.028 10.5319C24.9951 10.5665 24.966 10.604 24.9405 10.6444L24.778 10.8945L24.5967 11.132L24.3279 11.3633L23.9591 11.6133L23.5152 11.8196L23.0151 11.9634L22.54 12.0322L22.1212 12.0072L21.7836 11.9134L21.5336 11.7821L21.3211 11.6321C21.2857 11.6057 21.2482 11.5827 21.2085 11.5633L21.046 11.4946C20.9618 11.4558 20.8733 11.4384 20.7807 11.4423C20.688 11.4463 20.6014 11.4712 20.5208 11.5171C20.4402 11.563 20.3746 11.6247 20.3239 11.7024C20.2732 11.78 20.243 11.8649 20.2333 11.9572ZM25.8219 10.4819L25.7656 10.3444C25.6959 10.2037 25.588 10.1622 25.4419 10.2199C25.2959 10.2775 25.2455 10.3815 25.2906 10.5319L25.3468 10.6694C25.4166 10.8101 25.5245 10.8515 25.6705 10.7939C25.8165 10.7363 25.867 10.6323 25.8219 10.4819Z" fill="black"/>
<path d="M26.9096 10.263C26.9096 10.3666 26.9462 10.455 27.0194 10.5283C27.0927 10.6015 27.1811 10.6381 27.2846 10.6381C27.3882 10.6381 27.4766 10.6015 27.5499 10.5283C27.6231 10.455 27.6597 10.3666 27.6597 10.263C27.6597 10.1595 27.6231 10.0711 27.5499 9.99783C27.4766 9.92459 27.3882 9.88797 27.2846 9.88797C27.1811 9.88797 27.0927 9.92459 27.0194 9.99783C26.9462 10.0711 26.9096 10.1595 26.9096 10.263ZM26.8971 10.2693C26.8972 10.3762 26.9351 10.4675 27.0108 10.543C27.0864 10.6186 27.1777 10.6563 27.2846 10.6563C27.3916 10.6563 27.4828 10.6186 27.5585 10.543C27.6342 10.4675 27.6721 10.3762 27.6722 10.2693C27.6721 10.1624 27.6342 10.0711 27.5585 9.99558C27.4828 9.92003 27.3916 9.88225 27.2846 9.88225C27.1777 9.88225 27.0864 9.92003 27.0108 9.99558C26.9351 10.0711 26.8972 10.1624 26.8971 10.2693ZM26.8408 10.3068C26.8408 10.4294 26.8841 10.534 26.9708 10.6206C27.0575 10.7073 27.1621 10.7506 27.2846 10.7506C27.4072 10.7506 27.5118 10.7073 27.5985 10.6206C27.6851 10.534 27.7285 10.4294 27.7285 10.3068C27.7285 10.1842 27.6851 10.0796 27.5985 9.99296C27.5118 9.9063 27.4072 9.86297 27.2846 9.86297C27.1621 9.86297 27.0575 9.9063 26.9708 9.99296C26.8841 10.0796 26.8408 10.1842 26.8408 10.3068ZM26.772 10.1693L26.6908 10.3631C26.6577 10.4453 26.6411 10.5307 26.6408 10.6194L26.6283 11.0444L26.6095 11.6008L26.5095 12.2384L26.3282 12.8573L26.0719 13.4136L25.7468 13.9075L25.4093 14.3388L25.053 14.6951L24.6966 15.0202C24.6537 15.0593 24.6162 15.1031 24.5841 15.1515L24.4341 15.3765L24.3841 15.4203L24.2778 15.4015C24.0988 15.3768 23.9968 15.4539 23.9718 15.6329C23.9469 15.8118 24.0239 15.9139 24.2028 15.9391L24.3653 15.9579L24.5216 16.0641C24.5585 16.0887 24.5981 16.1074 24.6404 16.1204L24.9592 16.2204C25.1371 16.2764 25.31 16.2639 25.478 16.1829L25.9281 15.9704C26.002 15.935 26.0687 15.8892 26.1282 15.8329L26.547 15.439C26.5741 15.4117 26.5991 15.3825 26.622 15.3515L27.0096 14.8577C27.0327 14.8279 27.0535 14.7966 27.0721 14.7639L27.4159 14.17C27.43 14.1437 27.4425 14.1166 27.4534 14.0888L27.7347 13.4199C27.7469 13.3914 27.7574 13.3622 27.766 13.3324L27.9723 12.601C27.9805 12.5701 27.9868 12.5389 27.991 12.5072L28.0973 11.7821C28.1013 11.751 28.1034 11.7197 28.1035 11.6883L28.116 11.0819C28.117 11.0315 28.1128 10.9815 28.1035 10.9319L28.016 10.5006C27.9956 10.3922 27.9519 10.2943 27.8848 10.2068L27.7597 10.038C27.6248 9.8624 27.4475 9.78919 27.228 9.81837C27.0084 9.84755 26.8565 9.96452 26.772 10.1693Z" fill="black"/>
<path d="M17.883 13.6633C17.883 13.7738 17.9221 13.8681 18.0002 13.9462C18.0783 14.0243 18.1726 14.0634 18.2831 14.0634C18.3936 14.0634 18.4879 14.0243 18.566 13.9462C18.6441 13.8681 18.6832 13.7738 18.6832 13.6633C18.6832 13.5528 18.6441 13.4585 18.566 13.3804C18.4879 13.3023 18.3936 13.2632 18.2831 13.2632C18.1726 13.2632 18.0783 13.3023 18.0002 13.3804C17.9221 13.4585 17.883 13.5528 17.883 13.6633ZM18.6082 13.9258L18.6207 13.9071C18.6048 13.9226 18.5902 13.9393 18.5769 13.9571L18.6019 13.9321L18.6332 13.9071C18.6438 13.9012 18.6542 13.895 18.6644 13.8883L18.6957 13.8571C18.8094 13.6178 18.7626 13.4158 18.5553 13.2509C18.3479 13.086 18.1405 13.086 17.933 13.2507L17.908 13.2945C17.9057 13.3027 17.9036 13.3111 17.9018 13.3195L17.8268 13.4883L17.6892 13.7821L17.4642 14.1946L17.1579 14.7385C17.1511 14.7529 17.1449 14.7674 17.1391 14.7823L16.8203 15.4636C16.8182 15.4678 16.8161 15.4719 16.8141 15.4761L16.4578 16.2638L16.0639 17.1452C16.0618 17.1473 16.0597 17.1494 16.0577 17.1515L15.6388 18.0891C15.6367 18.0954 15.6346 18.1016 15.6326 18.1079L15.22 19.0893C15.2179 19.0914 15.2158 19.0935 15.2138 19.0956L14.7949 20.1083L14.3636 21.146C14.3614 21.1522 14.3594 21.1584 14.3574 21.1647L13.9573 22.2087C13.9552 22.2128 13.9531 22.217 13.951 22.2212L13.5947 23.2026L13.2446 24.134L12.9071 25.053L12.5633 25.9719L12.2194 26.8783L11.8694 27.7535L11.4756 28.6286L11.088 29.4976C11.0859 29.5017 11.0838 29.5059 11.0817 29.5101L10.7317 30.3227C10.7271 30.3372 10.7229 30.3518 10.7192 30.3665L10.4379 31.1291C10.3913 31.2593 10.3788 31.3926 10.4003 31.5292L10.5254 32.3293L10.4754 32.4419C10.4048 32.6209 10.459 32.7458 10.638 32.8166C10.817 32.8874 10.942 32.8333 11.013 32.6544L11.0567 32.5419L11.6943 32.048C11.8009 31.9661 11.8822 31.864 11.9381 31.7417L12.2757 31.0041C12.2779 30.9979 12.2799 30.9916 12.282 30.9853L12.632 30.1727L13.0071 29.2913C13.0071 29.2871 13.0071 29.2829 13.0071 29.2788L13.3759 28.3786C13.3759 28.3765 13.3759 28.3744 13.3759 28.3723L13.7322 27.4722C13.7344 27.468 13.7364 27.4638 13.7385 27.4597L14.0823 26.547L14.4261 25.6218C14.4282 25.6197 14.4303 25.6177 14.4324 25.6156L14.7699 24.6966L15.1075 23.759C15.1096 23.759 15.1117 23.759 15.1137 23.759L15.4638 22.7775L15.8576 21.7461L16.2702 20.7084L16.6765 19.6894L17.0766 18.6955L17.4579 17.7391C17.4601 17.7328 17.4622 17.7266 17.4642 17.7203L17.7955 16.8201L18.1018 16.0012C18.1061 15.995 18.1103 15.9888 18.1143 15.9825L18.3519 15.2698C18.3565 15.2554 18.3607 15.2408 18.3644 15.2261L18.5269 14.6197L18.6457 14.1696L18.7519 13.8758L18.8207 13.7133C18.823 13.705 18.8251 13.6967 18.827 13.6883L18.8457 13.6445C18.8725 13.5197 18.8542 13.402 18.7908 13.2912C18.7274 13.1804 18.6351 13.1049 18.514 13.0648C18.3928 13.0247 18.2737 13.0302 18.1567 13.0812C18.0397 13.1323 17.9548 13.2159 17.9018 13.332L17.8893 13.3695C17.8707 13.4308 17.8645 13.4933 17.8705 13.557V13.607V13.6445C17.8792 13.6096 17.8833 13.5742 17.883 13.5383L17.8768 13.5633C17.8252 13.7795 17.899 13.9369 18.0982 14.0357C18.2973 14.1344 18.4673 14.0978 18.6082 13.9258Z" fill="black"/>
<path d="M24.2593 16.2075L24.3593 16.145C24.5053 16.0453 24.5892 15.9079 24.6111 15.7325C24.633 15.5572 24.5855 15.4032 24.4685 15.2708C24.3516 15.1383 24.2047 15.0721 24.028 15.0721C23.8513 15.0721 23.7045 15.1383 23.5875 15.2708C23.4706 15.4032 23.423 15.5572 23.4449 15.7325C23.4668 15.9079 23.5508 16.0453 23.6967 16.145L23.7967 16.2075C23.9509 16.3119 24.1051 16.3119 24.2593 16.2075ZM23.3779 15.6011C23.3779 15.7824 23.442 15.9371 23.5701 16.0653C23.6983 16.1934 23.853 16.2575 24.0343 16.2575C24.2155 16.2575 24.3702 16.1934 24.4984 16.0653C24.6266 15.9371 24.6907 15.7824 24.6907 15.6011C24.6907 15.4199 24.6266 15.2652 24.4984 15.137C24.3702 15.0088 24.2155 14.9447 24.0343 14.9447C23.853 14.9447 23.6983 15.0088 23.5701 15.137C23.442 15.2652 23.3779 15.4199 23.3779 15.6011ZM23.9593 14.8635H23.928C23.6912 14.8902 23.5099 15.0048 23.3842 15.2073L23.3029 15.3386C23.2896 15.3568 23.2771 15.3755 23.2654 15.3948L23.1341 15.6511C23.1297 15.6615 23.1255 15.6719 23.1216 15.6824L22.9341 16.0825L22.6653 16.6326C22.6653 16.6347 22.6653 16.6367 22.6653 16.6388L21.44 19.1581L20.9399 20.1957C20.9378 20.1978 20.9358 20.1999 20.9337 20.202L20.4523 21.2147L19.896 22.2961C19.8939 22.3003 19.8918 22.3045 19.8897 22.3087L18.8395 24.4528C18.8374 24.457 18.8353 24.4611 18.8333 24.4653L18.3957 25.3842C18.3935 25.3905 18.3915 25.3967 18.3895 25.403L18.0206 26.2219C18.0185 26.226 18.0164 26.2302 18.0144 26.2344L17.7081 26.9595C17.7059 26.9678 17.7038 26.9762 17.7018 26.9845L17.4455 27.6472L17.208 28.2598L16.9892 28.8099L16.7891 29.2975L16.6016 29.7413L16.4141 30.1539L16.1015 30.854L15.9827 31.0978L15.889 31.2916L15.8077 31.4604C15.7759 31.5262 15.7529 31.5949 15.7389 31.6667L15.7077 31.8167C15.7014 31.8498 15.6972 31.8831 15.6952 31.9167L15.6889 32.0293C15.6821 32.1324 15.6967 32.2324 15.7327 32.3293L15.7515 32.3856C15.8572 32.6692 16.0614 32.8088 16.3641 32.8044H16.4203C16.5179 32.8046 16.6116 32.7858 16.7016 32.7481L16.8079 32.6981C16.8884 32.6643 16.9613 32.6185 17.0267 32.5606L17.1392 32.4543C17.2009 32.3975 17.253 32.3329 17.2955 32.2605L17.3893 32.098C17.3979 32.0857 17.4063 32.0732 17.4143 32.0605L17.5205 31.8605C17.5205 31.8584 17.5205 31.8563 17.5205 31.8542L17.6518 31.6042C17.6584 31.5918 17.6646 31.5793 17.6706 31.5667L17.9831 30.8603C17.9852 30.8582 17.9873 30.8561 17.9894 30.854L18.1769 30.4414C18.1791 30.4352 18.1812 30.429 18.1832 30.4227L18.377 29.9664C18.377 29.9643 18.377 29.9622 18.377 29.9601L18.5832 29.46C18.5875 29.4538 18.5917 29.4476 18.5957 29.4413L18.8083 28.8849C18.8104 28.8849 18.8124 28.8849 18.8145 28.8849L19.0458 28.2723L19.3084 27.6284L19.6084 26.9158L19.9648 26.1156L20.3961 25.2092C20.3961 25.2071 20.3961 25.205 20.3961 25.203L21.4213 23.0463C21.4234 23.0401 21.4255 23.0338 21.4275 23.0275L21.9276 21.9211L22.409 20.9021L22.9028 19.8644C22.9049 19.8624 22.907 19.8603 22.9091 19.8582L24.0968 17.3202L24.3593 16.7513C24.3637 16.741 24.3679 16.7306 24.3718 16.7201L24.5469 16.3075C24.549 16.3034 24.5511 16.2992 24.5531 16.295L24.6594 16.0262C24.6695 15.9975 24.6778 15.9684 24.6844 15.9387L24.7219 15.7887C24.7456 15.6982 24.7519 15.6065 24.7407 15.5136V15.4886C24.7178 15.2951 24.6303 15.1375 24.4781 15.0158C24.326 14.8941 24.153 14.8433 23.9593 14.8635ZM16.3078 31.9042H16.2828C16.0911 31.9042 15.9952 32.0001 15.9952 32.1918C15.9952 32.3835 16.0911 32.4793 16.2828 32.4793H16.3078C16.4995 32.4793 16.5954 32.3835 16.5954 32.1918C16.5954 32.0001 16.4995 31.9042 16.3078 31.9042Z" fill="black"/>
<path d="M16.1082 32.6423C16.1082 32.7442 16.1443 32.8311 16.2163 32.9031C16.2883 32.9752 16.3752 33.0112 16.4771 33.0112C16.5789 33.0112 16.6658 32.9752 16.7379 32.9031C16.8099 32.8311 16.8459 32.7442 16.8459 32.6423C16.8459 32.5405 16.8099 32.4536 16.7379 32.3816C16.6658 32.3095 16.5789 32.2735 16.4771 32.2735C16.3752 32.2735 16.2883 32.3095 16.2163 32.3816C16.1443 32.4536 16.1082 32.5405 16.1082 32.6423ZM16.0707 32.6423C16.0707 32.7511 16.1092 32.8439 16.1861 32.9208C16.263 32.9977 16.3558 33.0362 16.4646 33.0362C16.5733 33.0362 16.6661 32.9977 16.743 32.9208C16.8199 32.8439 16.8584 32.7511 16.8584 32.6423C16.8584 32.5336 16.8199 32.4408 16.743 32.3639C16.6661 32.287 16.5733 32.2485 16.4646 32.2485C16.3558 32.2485 16.263 32.287 16.1861 32.3639C16.1092 32.4408 16.0707 32.5336 16.0707 32.6423ZM15.9895 32.6298C15.9895 32.7558 16.0341 32.8634 16.1232 32.9524C16.2123 33.0415 16.3198 33.086 16.4458 33.086C16.5718 33.086 16.6793 33.0415 16.7684 32.9524C16.8575 32.8634 16.9021 32.7558 16.9021 32.6298C16.9021 32.5039 16.8575 32.3963 16.7684 32.3073C16.6793 32.2182 16.5718 32.1737 16.4458 32.1737C16.3198 32.1737 16.2123 32.2182 16.1232 32.3073C16.0341 32.3963 15.9895 32.5039 15.9895 32.6298ZM16.9146 32.6674L16.9209 32.6236C16.8263 32.7096 16.77 32.8158 16.7521 32.9424L16.7646 32.9299C16.8388 32.8644 16.893 32.7852 16.9271 32.6924L16.9334 32.6611C16.8806 32.7223 16.841 32.791 16.8146 32.8674L16.8709 32.8111C16.9314 32.7465 16.9793 32.6736 17.0147 32.5923L17.1397 32.3298C17.1441 32.3195 17.1482 32.309 17.1522 32.2985L17.3335 31.8422L17.5773 31.2671C17.6078 31.1929 17.6266 31.1158 17.6335 31.0358L17.696 30.4169C17.6961 30.4128 17.6961 30.4086 17.696 30.4044L17.7273 29.9231L17.9336 29.5855C18.0251 29.4397 17.998 29.321 17.8522 29.2293C17.7065 29.1377 17.5877 29.1647 17.496 29.3105L17.2835 29.6543L16.8709 29.9231C16.8556 29.9348 16.841 29.9473 16.8271 29.9606L16.3458 30.3544C16.2684 30.4195 16.2059 30.4966 16.1583 30.5857L15.8582 31.1358C15.8414 31.1682 15.8268 31.2015 15.8144 31.2358L15.6332 31.6984C15.6116 31.7572 15.597 31.8176 15.5894 31.8797L15.5519 32.1673C15.5156 32.4155 15.5844 32.6302 15.7582 32.8111L15.8269 32.8799C15.9983 33.0561 16.2046 33.1207 16.4458 33.0737L16.4646 33.0674C16.4267 33.0682 16.3892 33.0724 16.352 33.0799H16.377C16.3958 33.0808 16.4146 33.0808 16.4333 33.0799L16.4521 33.0737C16.3544 33.0201 16.2502 32.9992 16.1395 33.0112L16.1833 33.0362C16.3361 33.1182 16.49 33.1202 16.6449 33.0421C16.7998 32.9639 16.8897 32.839 16.9146 32.6674Z" fill="black"/>
<path d="M11.3444 30.9796L11.2819 31.1421C11.2591 31.2006 11.2508 31.261 11.2569 31.3234L11.2631 31.3734V31.4297L11.2569 31.4547C11.3309 31.4051 11.383 31.3385 11.4131 31.2546L11.3444 31.3047C11.4765 31.3382 11.5995 31.3173 11.7132 31.2421L11.6819 31.2296C11.651 31.2228 11.6198 31.2186 11.5882 31.2171L11.5194 31.2109C11.5661 31.227 11.614 31.2374 11.6632 31.2421L11.6069 31.2234L11.5319 31.1859L11.4131 31.1296L11.2006 30.9608L10.8318 30.6233L10.3379 30.0982L9.76907 29.4105L9.19397 28.5666L8.68762 27.5664L8.24378 26.3975L7.88747 25.091L7.66242 23.747L7.55615 22.4092L7.54365 21.1215C7.54373 21.1152 7.54373 21.109 7.54365 21.1027L7.50614 19.9275L7.59366 19.0211L7.84371 18.3772C7.9144 18.1939 7.85812 18.0668 7.67486 17.996C7.4916 17.9252 7.36452 17.9814 7.2936 18.1647L7.0373 18.8335L6.59972 19.6962C6.59292 19.7084 6.58667 19.7209 6.58097 19.7337L6.12463 20.8464C6.09639 20.9104 6.07764 20.9771 6.06837 21.0465L5.92459 22.3592C5.91864 22.4049 5.91656 22.4507 5.91834 22.4967L6.01211 23.9032C6.01305 23.9283 6.01514 23.9533 6.01836 23.9783L6.25591 25.4035C6.25873 25.4308 6.2629 25.4579 6.26841 25.4848L6.63098 26.8663C6.63999 26.8939 6.6504 26.921 6.66223 26.9476L7.13107 28.2041C7.14372 28.2362 7.15831 28.2675 7.17483 28.2978L7.73119 29.373C7.7479 29.4055 7.76665 29.4368 7.78745 29.4668L8.41257 30.3795C8.42806 30.4033 8.44473 30.4262 8.46258 30.4482L9.08769 31.1859C9.09783 31.1966 9.10825 31.207 9.11895 31.2171L9.6503 31.7797C9.67205 31.8019 9.69497 31.8227 9.71906 31.8423L10.1504 32.2048C10.2003 32.2468 10.2545 32.2822 10.3129 32.3111L10.6442 32.4799C10.7194 32.5178 10.7985 32.5428 10.8818 32.5549L11.1006 32.5861C11.1994 32.6019 11.2973 32.5977 11.3944 32.5736L11.5382 32.5299C11.6811 32.4931 11.7999 32.4181 11.8945 32.3048L11.9507 32.2298C12.032 32.1339 12.0799 32.0234 12.0945 31.8985L12.1008 31.8298C12.114 31.6923 12.0806 31.5673 12.0007 31.4547L11.982 31.4297C11.9951 31.4861 12.0181 31.5382 12.0508 31.586V31.561V31.5359C12.0516 31.5214 12.0516 31.5068 12.0508 31.4922V31.4297V31.3609C12.0516 31.3463 12.0516 31.3317 12.0508 31.3172L12.0445 31.2484C12.0411 31.2118 12.0328 31.1764 12.0195 31.1421L11.957 30.9796C11.9006 30.8429 11.7985 30.7745 11.6507 30.7745C11.5028 30.7745 11.4007 30.8429 11.3444 30.9796Z" fill="black"/>
<path d="M15.8639 32.3173C15.8639 32.4261 15.9024 32.5189 15.9793 32.5958C16.0562 32.6727 16.149 32.7111 16.2578 32.7112C16.3665 32.7111 16.4593 32.6727 16.5362 32.5958C16.6131 32.5189 16.6516 32.4261 16.6516 32.3173C16.6516 32.2086 16.6131 32.1157 16.5362 32.0388C16.4593 31.9619 16.3665 31.9235 16.2578 31.9235C16.149 31.9235 16.0562 31.9619 15.9793 32.0388C15.9024 32.1157 15.8639 32.2086 15.8639 32.3173ZM15.8389 32.2673L15.8327 32.3236C15.8305 32.3298 15.8284 32.336 15.8264 32.3423L15.8202 32.4236L15.8077 32.5174C15.7934 32.6104 15.7997 32.7021 15.8264 32.7924L15.8764 32.9487C15.9185 33.0849 15.9935 33.1995 16.1015 33.2925L16.314 33.48C16.3815 33.5381 16.4566 33.584 16.5391 33.6176L16.8954 33.7676C16.942 33.7864 16.9899 33.801 17.0392 33.8114L17.5518 33.9176C17.5785 33.9252 17.6056 33.9314 17.633 33.9364L18.2831 34.0114C18.3101 34.0147 18.3372 34.0168 18.3644 34.0176L19.1708 34.0364C19.1958 34.0375 19.2208 34.0375 19.2458 34.0364L20.1585 33.9864C20.1815 33.9852 20.2044 33.9831 20.2273 33.9801L21.2337 33.8426C21.2589 33.8395 21.2839 33.8354 21.3087 33.8301L22.3839 33.5926C22.4114 33.5856 22.4385 33.5772 22.4652 33.5676L23.5841 33.1925C23.6161 33.1818 23.6474 33.1693 23.6779 33.155L24.7969 32.6361C24.8359 32.6181 24.8735 32.5973 24.9094 32.5736L26.0284 31.8297C26.0663 31.8036 26.1017 31.7744 26.1346 31.7422L27.1848 30.7545C27.2049 30.7349 27.2236 30.714 27.2411 30.692L28.1538 29.5856C28.1581 29.5794 28.1623 29.5732 28.1663 29.5668L28.9352 28.5416L29.6228 27.804C29.7433 27.6748 29.7391 27.5498 29.6101 27.4291C29.481 27.3084 29.3561 27.3125 29.2352 27.4414L28.5601 28.179L27.5474 28.9292L26.3597 29.6981L25.1594 30.4482L24.0467 31.0858L22.9965 31.5547L21.9588 31.8922L20.9586 32.111L20.0272 32.2361L19.1833 32.2798L18.4394 32.2673L17.8393 32.2111L17.383 32.1423L17.0392 32.061C17.035 32.061 17.0308 32.061 17.0267 32.061L16.7453 31.9985C16.7123 31.9921 16.679 31.9879 16.6453 31.986L16.4828 31.9735C16.462 31.9725 16.4411 31.9725 16.4203 31.9735H16.3265C16.3887 31.9985 16.4533 32.011 16.5203 32.011L16.439 31.9798C16.4833 32.0188 16.5333 32.0479 16.5891 32.0673L16.5516 32.036C16.4292 31.9186 16.2873 31.8861 16.126 31.9384C15.9647 31.9908 15.869 32.1004 15.8389 32.2673Z" fill="black"/>
<path d="M8.18084 13.9697C8.18084 14.0663 8.21502 14.1488 8.28337 14.2172C8.35173 14.2855 8.43424 14.3197 8.53091 14.3197C8.62757 14.3197 8.71009 14.2855 8.77844 14.2172C8.8468 14.1488 8.88097 14.0663 8.88097 13.9697C8.88097 13.873 8.8468 13.7905 8.77844 13.7221C8.71009 13.6538 8.62757 13.6196 8.53091 13.6196C8.43424 13.6196 8.35173 13.6538 8.28337 13.7221C8.21502 13.7905 8.18084 13.873 8.18084 13.9697ZM8.58717 14.351L8.60592 14.3447C8.54698 14.3241 8.48655 14.3179 8.42464 14.326L8.43714 14.3322C8.55216 14.3706 8.66265 14.3604 8.7686 14.3014C8.87456 14.2423 8.94148 14.1538 8.96938 14.0358C8.99728 13.9178 8.97707 13.8087 8.90875 13.7085C8.84043 13.6083 8.74624 13.5496 8.62619 13.5325C8.50613 13.5153 8.39929 13.5453 8.30566 13.6224C8.21202 13.6994 8.16208 13.7985 8.15584 13.9196V13.9321C8.18859 13.8783 8.20735 13.82 8.2121 13.7571L8.19959 13.7759C8.11444 13.9152 8.11748 14.0525 8.20872 14.1879C8.29995 14.3233 8.4261 14.3776 8.58717 14.351ZM8.11208 13.9384C8.11208 14.0696 8.15846 14.1816 8.25123 14.2743C8.34399 14.3671 8.45597 14.4135 8.58717 14.4135C8.71836 14.4135 8.83034 14.3671 8.92311 14.2743C9.01587 14.1816 9.06226 14.0696 9.06226 13.9384C9.06226 13.8072 9.01587 13.6952 8.92311 13.6025C8.83034 13.5097 8.71836 13.4633 8.58717 13.4633C8.45597 13.4633 8.34399 13.5097 8.25123 13.6025C8.15846 13.6952 8.11208 13.8072 8.11208 13.9384ZM8.56841 13.4633H8.51215C8.39449 13.4674 8.2903 13.507 8.19959 13.5821L8.04957 13.7071C8.00533 13.7451 7.96782 13.7889 7.93704 13.8384L7.69325 14.2135C7.68179 14.2316 7.67137 14.2504 7.66199 14.2697L7.32443 14.9636C7.31785 14.9738 7.3116 14.9842 7.30567 14.9948L6.91185 15.9513C6.90738 15.9616 6.90321 15.972 6.89935 15.9825L6.50552 17.1078C6.50325 17.116 6.50117 17.1244 6.49927 17.1328L6.1367 18.3392C6.13457 18.3434 6.13248 18.3475 6.13045 18.3517L5.81164 19.5582C5.8116 19.5624 5.8116 19.5666 5.81164 19.5707L5.54284 20.7084C5.54065 20.7147 5.53856 20.7209 5.53659 20.7272L5.3303 21.7524C5.32802 21.7607 5.32594 21.769 5.32405 21.7774L5.19277 22.6213C5.18027 22.704 5.18653 22.7853 5.21152 22.8651L5.3553 23.3277L5.32405 23.6527C5.30748 23.8402 5.39291 23.9423 5.58036 23.9589C5.7678 23.9756 5.8699 23.8902 5.88665 23.7028L5.91791 23.3964L6.18046 23.0089C6.21951 22.9515 6.2466 22.889 6.26172 22.8213L6.44301 21.9837L6.65555 20.9647L6.92435 19.8395L7.23691 18.6643L7.60573 17.4891L8.00581 16.3889L8.38713 15.4574L8.70594 14.7948L8.91223 14.4135C8.92158 14.3952 8.92992 14.3764 8.93723 14.3572L9.01225 14.1759C9.01675 14.1657 9.02092 14.1552 9.02475 14.1447L9.03725 14.0947C9.08912 13.9367 9.06549 13.791 8.96638 13.6575C8.86727 13.5241 8.73461 13.4593 8.56841 13.4633Z" fill="black"/>
<path d="M0.373147 20.9523C0.373148 21.0593 0.410987 21.1506 0.486666 21.2263C0.562344 21.302 0.653696 21.3398 0.760721 21.3398C0.867747 21.3398 0.959099 21.302 1.03478 21.2263C1.11046 21.1506 1.14829 21.0593 1.14829 20.9523C1.14829 20.8452 1.11046 20.7539 1.03478 20.6782C0.959099 20.6025 0.867747 20.5647 0.760721 20.5647C0.653696 20.5647 0.562344 20.6025 0.486666 20.6782C0.410987 20.7539 0.373148 20.8452 0.373147 20.9523ZM1.06078 21.2273L1.07328 21.2211L1.09203 21.2023C1.11035 21.185 1.12702 21.1663 1.14204 21.1461L1.1733 21.1085C1.18441 21.0966 1.19483 21.0841 1.20456 21.071L1.24206 21.0085L1.31708 20.9023L1.52962 20.6835C1.53833 20.6733 1.54666 20.6629 1.55462 20.6522L1.92969 20.2021C1.92971 20.2 1.92971 20.198 1.92969 20.1959L2.44854 19.5582L3.10492 18.8144L3.84256 18.0205L4.61145 17.2766L5.34909 16.6327L6.06173 16.1201L6.7181 15.72L7.31197 15.42L7.79956 15.2262L8.16213 15.1324L8.45594 15.1199H8.68098C8.74546 15.1213 8.80797 15.1109 8.86851 15.0886L8.99979 15.0449C9.13583 14.9946 9.22237 14.8993 9.25942 14.759C9.29646 14.6188 9.26827 14.4932 9.17482 14.3823L9.08731 14.276C9.01428 14.1893 8.9226 14.1331 8.81225 14.1072L8.56846 14.0509C8.52547 14.0393 8.48171 14.0331 8.43718 14.0322L8.07461 14.0384C8.05156 14.0391 8.02864 14.0412 8.00585 14.0447L7.54326 14.1072C7.52219 14.1102 7.50136 14.1144 7.48075 14.1197L6.90564 14.2697C6.8801 14.2765 6.85509 14.2848 6.83063 14.2947L6.168 14.5635C6.14217 14.5744 6.11717 14.5869 6.09299 14.6011L5.3741 15.0136C5.35696 15.0233 5.34029 15.0337 5.32409 15.0449L4.56144 15.5887C4.54417 15.6004 4.5275 15.6129 4.51143 15.6262L3.73629 16.3014C3.72551 16.3114 3.7151 16.3219 3.70503 16.3326L2.92363 17.114C2.91725 17.1202 2.911 17.1264 2.90488 17.1328L2.15474 17.9517C2.14836 17.9578 2.14211 17.9641 2.13598 17.9704L1.48586 18.7456C1.47729 18.7537 1.46896 18.762 1.46085 18.7706L0.960759 19.4395C0.944397 19.4634 0.92981 19.4884 0.917001 19.5145L0.635697 20.0271C0.615268 20.0607 0.598598 20.0962 0.585688 20.1334L0.49192 20.4459L0.44191 20.5959L0.410655 20.671C0.394332 20.7175 0.385997 20.7654 0.38565 20.8147L0.379399 20.8647C0.393961 20.8243 0.402296 20.7826 0.404403 20.7397L0.391901 20.7835C0.404757 20.7595 0.415176 20.7345 0.423157 20.7085L0.404403 20.7397C0.288366 20.9501 0.326779 21.1269 0.519639 21.2702C0.7125 21.4135 0.89288 21.3992 1.06078 21.2273ZM8.84351 14.9136L8.87477 14.9261C9.03726 14.9927 9.15184 14.9448 9.2185 14.7823C9.28515 14.6198 9.23726 14.5052 9.0748 14.4385L9.04355 14.426C8.88109 14.3595 8.76655 14.4075 8.69992 14.5699C8.63329 14.7323 8.68116 14.8469 8.84351 14.9136Z" fill="black"/>
<path d="M0.379402 20.6522C0.379402 20.7644 0.419072 20.8602 0.498413 20.9395C0.577753 21.0189 0.673525 21.0585 0.785729 21.0585C0.897934 21.0585 0.993706 21.0189 1.07305 20.9395C1.15239 20.8602 1.19206 20.7644 1.19206 20.6522C1.19206 20.54 1.15239 20.4442 1.07305 20.3649C0.993706 20.2855 0.897934 20.2459 0.785729 20.2459C0.673525 20.2459 0.577753 20.2855 0.498413 20.3649C0.419072 20.4442 0.379402 20.54 0.379402 20.6522ZM0.341895 20.6522C0.341895 20.773 0.384617 20.8762 0.47006 20.9616C0.555504 21.0471 0.658643 21.0898 0.779478 21.0898C0.900314 21.0898 1.00345 21.0471 1.0889 20.9616C1.17434 20.8762 1.21706 20.773 1.21706 20.6522C1.21706 20.5314 1.17434 20.4282 1.0889 20.3428C1.00345 20.2573 0.900314 20.2146 0.779478 20.2146C0.658643 20.2146 0.555504 20.2573 0.47006 20.3428C0.384617 20.4282 0.341895 20.5314 0.341895 20.6522ZM0.335644 20.5334L0.323141 20.5709C0.31273 20.6056 0.306479 20.6411 0.304388 20.6772V20.7272C0.303485 20.7439 0.303485 20.7606 0.304388 20.7772L0.310639 20.8335C0.310709 20.8587 0.312792 20.8837 0.31689 20.9085L0.329392 20.9585C0.329498 20.9205 0.325331 20.883 0.31689 20.846V20.9148C0.318402 20.9659 0.326737 21.0159 0.341895 21.0648L0.385653 21.2148C0.411997 21.3141 0.459923 21.4017 0.529431 21.4774L0.704464 21.6586C0.741676 21.6993 0.78335 21.7347 0.829488 21.7649L1.11704 21.9462C1.15852 21.9718 1.20228 21.9927 1.24832 22.0087L1.64214 22.1462C1.66473 22.1537 1.68765 22.16 1.71091 22.165L2.17974 22.2838C2.22699 22.2952 2.27491 22.3015 2.32352 22.3025L2.80486 22.3088C2.88253 22.3122 2.95754 22.2997 3.02991 22.2713L3.2612 22.1775L3.48624 22.2463C3.64115 22.2683 3.74334 22.2052 3.79282 22.0567C3.8423 21.9083 3.79845 21.7964 3.66128 21.7212L3.41748 21.6399L3.2612 21.4274C3.21054 21.361 3.14803 21.3089 3.07366 21.2711L2.64858 21.046C2.60284 21.0217 2.55491 21.003 2.50481 20.9898L2.06097 20.871L1.73591 20.7585L1.51087 20.6397L1.32958 20.5209C1.3134 20.5097 1.29674 20.4993 1.27957 20.4897L1.14205 20.4209C1.07735 20.3867 1.00859 20.3658 0.935758 20.3584L0.866995 20.3521C0.909334 20.3685 0.953093 20.3789 0.99827 20.3834L0.954511 20.3647C1.00284 20.4925 1.09036 20.5821 1.21706 20.6335L1.19831 20.5772C1.20033 20.629 1.21075 20.679 1.22956 20.7272V20.7022V20.6835C1.24286 20.4133 1.11611 20.2558 0.849311 20.211C0.58251 20.1662 0.411287 20.2737 0.335644 20.5334Z" fill="black"/>
<path d="M27.8219 29.8977C27.8219 30.106 27.9261 30.2102 28.1344 30.2102C28.3428 30.2102 28.447 30.106 28.447 29.8977C28.447 29.6893 28.3428 29.5851 28.1344 29.5851C27.9261 29.5851 27.8219 29.6893 27.8219 29.8977ZM27.7031 29.8914C27.7031 30.0105 27.7452 30.1122 27.8294 30.1964C27.9137 30.2806 28.0153 30.3227 28.1344 30.3227C28.2536 30.3227 28.3552 30.2806 28.4394 30.1964C28.5237 30.1122 28.5658 30.0105 28.5658 29.8914C28.5658 29.7723 28.5237 29.6706 28.4394 29.5864C28.3552 29.5022 28.2536 29.4601 28.1344 29.4601C28.0153 29.4601 27.9137 29.5022 27.8294 29.5864C27.7452 29.6706 27.7031 29.7723 27.7031 29.8914ZM27.5968 29.8727C27.5968 30.0211 27.6493 30.1478 27.7543 30.2528C27.8593 30.3578 27.986 30.4103 28.1344 30.4103C28.2829 30.4103 28.4096 30.3578 28.5146 30.2528C28.6196 30.1478 28.672 30.0211 28.672 29.8727C28.672 29.7242 28.6196 29.5975 28.5146 29.4925C28.4096 29.3875 28.2829 29.3351 28.1344 29.3351C27.986 29.3351 27.8593 29.3875 27.7543 29.4925C27.6493 29.5975 27.5968 29.7242 27.5968 29.8727ZM27.4968 29.8664C27.4968 30.0408 27.5585 30.1896 27.6818 30.3129C27.805 30.4361 27.9538 30.4978 28.1282 30.4978C28.3025 30.4978 28.4514 30.4361 28.5746 30.3129C28.6979 30.1896 28.7596 30.0408 28.7596 29.8664C28.7596 29.6921 28.6979 29.5432 28.5746 29.42C28.4514 29.2967 28.3025 29.235 28.1282 29.235C27.9538 29.235 27.805 29.2967 27.6818 29.42C27.5585 29.5432 27.4968 29.6921 27.4968 29.8664ZM28.2407 30.5228L28.3032 30.5165C28.4042 30.4984 28.4959 30.4588 28.5783 30.3978L28.7783 30.254C28.8094 30.2335 28.8386 30.2106 28.8658 30.1852L29.1909 29.8539C29.211 29.8342 29.2297 29.8134 29.2472 29.7914L29.6785 29.235C29.6895 29.2209 29.6999 29.2063 29.7097 29.1913L30.1786 28.4661C30.185 28.458 30.1913 28.4496 30.1973 28.4411L30.6724 27.6285C30.679 27.6182 30.6852 27.6078 30.6912 27.5972L31.11 26.7908C31.1165 26.7806 31.1228 26.7702 31.1288 26.7596L31.4538 26.0469C31.4561 26.0386 31.4582 26.0303 31.4601 26.0219L31.6976 25.4468C31.702 25.4386 31.7061 25.4302 31.7101 25.4218L31.8664 24.9842C31.8707 24.976 31.8749 24.9676 31.8789 24.9592L31.9602 24.7029C32.0051 24.5605 32.003 24.4188 31.9539 24.2778L31.9414 24.2403C31.8444 23.9562 31.6461 23.8044 31.3465 23.7848C31.047 23.7653 30.8306 23.89 30.6974 24.1591L30.6037 24.3466C30.5597 24.4352 30.5368 24.529 30.5349 24.6279L30.5287 24.9905C30.5283 25.0009 30.5283 25.0113 30.5287 25.0217L30.5474 25.3718L30.3974 25.7031C30.3402 25.8626 30.3889 25.9772 30.5434 26.0467C30.698 26.1163 30.816 26.0767 30.8975 25.9282L31.0413 25.5968L31.3163 25.3906C31.3205 25.3865 31.3247 25.3823 31.3288 25.3781L31.6101 25.153C31.6605 25.1135 31.7043 25.0677 31.7414 25.0155L31.8602 24.8405C31.7744 24.573 31.5926 24.419 31.3147 24.3784C31.0367 24.3379 30.8185 24.4336 30.6599 24.6654L30.6724 24.7029C30.7152 24.5675 30.7152 24.432 30.6724 24.2966L30.5974 24.5341L30.4411 24.9405L30.2161 25.4968L29.8973 26.1845L29.4972 26.9596L29.0409 27.741L28.5908 28.4349L28.197 28.9475L27.9344 29.2288L27.7781 29.3601C27.878 29.3373 27.9676 29.2935 28.0469 29.2288L27.9844 29.2413C27.8223 29.29 27.6978 29.3869 27.6107 29.532C27.5235 29.6771 27.4966 29.8326 27.5298 29.9986C27.563 30.1645 27.6477 30.2977 27.7839 30.3982C27.9201 30.4986 28.0724 30.5401 28.2407 30.5228Z" fill="black"/>
<path d="M3.13671 22.1274C3.13671 22.231 3.17332 22.3194 3.24656 22.3926C3.3198 22.4659 3.4082 22.5025 3.51178 22.5025C3.61535 22.5025 3.70376 22.4659 3.77699 22.3926C3.85023 22.3194 3.88685 22.231 3.88685 22.1274C3.88685 22.0238 3.85023 21.9354 3.77699 21.8622C3.70376 21.789 3.61535 21.7524 3.51178 21.7524C3.4082 21.7524 3.3198 21.789 3.24656 21.8622C3.17332 21.9354 3.13671 22.0238 3.13671 22.1274ZM3.06169 22.1024C3.06169 22.2267 3.10563 22.3328 3.19352 22.4207C3.2814 22.5086 3.38749 22.5525 3.51178 22.5525C3.63607 22.5525 3.74215 22.5086 3.83004 22.4207C3.91792 22.3328 3.96186 22.2267 3.96186 22.1024C3.96186 21.9781 3.91792 21.872 3.83004 21.7842C3.74215 21.6963 3.63607 21.6523 3.51178 21.6523C3.38749 21.6523 3.2814 21.6963 3.19352 21.7842C3.10563 21.872 3.06169 21.9781 3.06169 22.1024ZM3.78683 21.6898L3.76183 21.6711C3.62522 21.575 3.47728 21.552 3.31799 21.6023L3.27423 21.6148C3.15625 21.6506 3.06248 21.7193 2.99293 21.8211L2.91166 21.9461C2.88512 21.9872 2.86429 22.0309 2.84915 22.0774L2.73663 22.3962C2.71919 22.4491 2.70877 22.5032 2.70537 22.5588L2.65536 23.2526C2.65231 23.2901 2.65231 23.3277 2.65536 23.3652L2.75538 24.4404C2.75633 24.4634 2.75841 24.4863 2.76163 24.5091L3.03044 25.8781C3.03242 25.8844 3.03451 25.8907 3.03669 25.8969L3.37425 27.4284C3.37629 27.4326 3.37837 27.4368 3.3805 27.4409L3.76808 29.0287C3.77006 29.035 3.77214 29.0413 3.77433 29.0475L4.21191 30.604C4.21677 30.6273 4.22302 30.6503 4.23066 30.6728L4.79327 32.0418C4.80057 32.059 4.8089 32.0757 4.81828 32.0918L5.39339 33.1233L5.7122 33.9234C5.77989 34.0648 5.88638 34.1061 6.03168 34.0472C6.17698 33.9883 6.22468 33.8845 6.17478 33.7359L5.86223 32.9482L5.65594 31.7918C5.65392 31.7876 5.65183 31.7834 5.64968 31.7793L5.34963 30.329C5.34783 30.3185 5.34574 30.3081 5.34338 30.2977L4.9308 28.7412L4.56198 27.1721L4.28693 25.6656L4.13065 24.3091L4.04313 23.2464L3.99312 22.5588C3.99169 22.542 3.9896 22.5253 3.98687 22.5087L3.94936 22.2399L3.95561 22.1524C3.92035 22.2168 3.89952 22.2856 3.8931 22.3587L3.91185 22.3212C3.8482 22.3679 3.79819 22.4262 3.76183 22.4962L3.78683 22.4775C3.92023 22.3801 3.98694 22.2488 3.98694 22.0837C3.98694 21.9185 3.92023 21.7872 3.78683 21.6898Z" fill="black"/>
<path d="M3.36173 22.5962L3.34298 22.6087C3.27889 22.6646 3.23514 22.7333 3.2117 22.815L3.17419 22.94C3.17175 22.9504 3.16967 22.9608 3.16794 22.9713L3.10543 23.2651C3.09877 23.2939 3.0946 23.3231 3.09293 23.3526L3.06792 23.909C3.06749 23.9215 3.06749 23.934 3.06792 23.9465L3.08668 24.7904C3.08663 24.7946 3.08663 24.7987 3.08668 24.8029L3.13669 25.8843C3.13638 25.8948 3.13638 25.9052 3.13669 25.9156L3.26171 27.1158C3.2616 27.1221 3.2616 27.1283 3.26171 27.1346L3.43674 28.3286C3.43664 28.3348 3.43664 28.3411 3.43674 28.3473L3.63678 29.4663C3.63876 29.4726 3.64084 29.4788 3.64303 29.485L3.86182 30.4852C3.86173 30.4915 3.86173 30.4977 3.86182 30.504L4.08687 31.4229C4.09065 31.4355 4.09482 31.448 4.09937 31.4604L4.36817 32.3043C4.37009 32.3127 4.37218 32.321 4.37442 32.3293L4.67448 33.1482C4.67829 33.1608 4.68246 33.1734 4.68698 33.1857L5.02455 33.9671C5.03221 33.9841 5.04055 34.0008 5.04955 34.0171L5.43087 34.7235C5.44044 34.7428 5.45086 34.7615 5.46213 34.7798L5.87471 35.4049C5.89178 35.4312 5.91054 35.4562 5.93097 35.4799L6.39981 36.0175C6.43881 36.0606 6.48257 36.0981 6.53108 36.13L7.08744 36.5114C7.14661 36.5526 7.2112 36.5817 7.28123 36.5989L7.85008 36.7364L8.33143 36.949L8.68774 37.1615C8.81186 37.219 8.90826 37.1886 8.97695 37.0703C9.04563 36.952 9.02425 36.8532 8.91279 36.7739L8.56897 36.5739L8.21265 36.2301L7.9251 35.7362C7.91011 35.7121 7.89344 35.6892 7.87509 35.6675L7.46251 35.1361C7.4584 35.1319 7.45423 35.1277 7.45001 35.1236L7.01868 34.6048L6.65611 34.0359L6.29979 33.3733L5.96222 32.6294L5.62466 31.8542L5.3121 31.0478L5.01204 30.1789L4.74324 29.2287L4.51195 28.1535L4.33692 26.9908L4.21189 25.8218L4.16188 24.7591L4.14313 23.9215L4.13063 23.3651C4.13036 23.34 4.12828 23.315 4.12437 23.2901L4.07437 22.99C4.0723 22.9879 4.07022 22.9859 4.06811 22.9838L4.04311 22.8525C4.02514 22.7555 3.9793 22.6743 3.90558 22.6087L3.88683 22.5962C3.7118 22.448 3.53676 22.448 3.36173 22.5962Z" fill="black"/>
<path d="M5.7685 34.311C5.7685 34.4249 5.80878 34.5221 5.88934 34.6027C5.9699 34.6833 6.06715 34.7235 6.18108 34.7235C6.29501 34.7235 6.39226 34.6833 6.47282 34.6027C6.55338 34.5221 6.59366 34.4249 6.59366 34.311C6.59366 34.197 6.55338 34.0998 6.47282 34.0192C6.39226 33.9387 6.29501 33.8984 6.18108 33.8984C6.06715 33.8984 5.9699 33.9387 5.88934 34.0192C5.80878 34.0998 5.7685 34.197 5.7685 34.311ZM5.69349 34.2985L5.68099 34.3422C5.67917 34.3672 5.67917 34.3922 5.68099 34.4172V34.511C5.68051 34.5424 5.68259 34.5737 5.68724 34.6048L5.71849 34.8236C5.71976 34.8424 5.72184 34.8612 5.72474 34.8798L5.81226 35.2361C5.81997 35.2724 5.83038 35.3078 5.84352 35.3424L6.0373 35.8175C6.05731 35.868 6.08231 35.916 6.11232 35.9613L6.43738 36.4551C6.47177 36.5055 6.51136 36.5513 6.55615 36.5926L7.03749 37.049C7.08147 37.0898 7.12939 37.1252 7.18127 37.1553L7.81264 37.5366C7.88105 37.5771 7.95398 37.6062 8.03143 37.6241L8.85659 37.8241C8.87317 37.827 8.88984 37.8291 8.9066 37.8304L9.74426 37.9554L10.4444 38.2805C10.6029 38.3448 10.7179 38.2994 10.7896 38.1441C10.8613 37.9888 10.8212 37.8717 10.6694 37.7929L9.9818 37.4678L9.37544 36.8802C9.36927 36.8759 9.36302 36.8717 9.35669 36.8677L8.72532 36.2988C8.70724 36.2834 8.68848 36.2688 8.66905 36.2551L8.1127 35.8425L7.71262 35.4612L7.39381 35.0549L7.11251 34.6548C7.11044 34.6527 7.10835 34.6506 7.10626 34.6485L6.89372 34.3485C6.87276 34.3217 6.84984 34.2967 6.82495 34.2735L6.66867 34.1109C6.63481 34.0771 6.5973 34.0479 6.55615 34.0234L6.50614 33.9922C6.35794 33.8637 6.19209 33.8341 6.00859 33.9033C5.8251 33.9725 5.72007 34.1042 5.69349 34.2985Z" fill="black"/>
<path d="M6.10617 34.7923C6.10617 34.8889 6.14035 34.9714 6.2087 35.0398C6.27706 35.1081 6.35957 35.1423 6.45624 35.1423C6.55291 35.1423 6.63542 35.1081 6.70377 35.0398C6.77213 34.9714 6.8063 34.8889 6.8063 34.7923C6.8063 34.6956 6.77213 34.6131 6.70377 34.5447C6.63542 34.4764 6.55291 34.4422 6.45624 34.4422C6.35957 34.4422 6.27706 34.4764 6.2087 34.5447C6.14035 34.6131 6.10617 34.6956 6.10617 34.7923ZM6.10617 34.561L6.08117 34.5922C5.9783 34.734 5.95955 34.8861 6.0249 35.0486L6.07491 35.1798C6.09707 35.2355 6.12832 35.2855 6.16868 35.3299L6.34372 35.5299C6.35758 35.5432 6.37217 35.5557 6.38747 35.5674L6.70628 35.8612C6.71244 35.8655 6.7187 35.8697 6.72504 35.8737L7.21263 36.28C7.23231 36.2982 7.25314 36.3148 7.27514 36.33L8.06279 36.8239C8.081 36.8353 8.09976 36.8457 8.11905 36.8551L9.26302 37.424C9.27737 37.4308 9.29196 37.4371 9.30678 37.4428L10.7883 38.0241C10.8208 38.0373 10.8541 38.0478 10.8883 38.0554L12.6012 38.4054C12.6198 38.4086 12.6385 38.4107 12.6574 38.4117L14.314 38.5305L15.6517 38.7243C15.8038 38.721 15.8905 38.6441 15.912 38.4935C15.9335 38.343 15.8718 38.2449 15.7268 38.1992L14.4078 38.0054L12.8575 37.474L11.2384 36.8614L9.78812 36.2863L8.66916 35.7549L7.85025 35.3361L7.33765 35.0548L7.0626 34.8298L6.91883 34.6797L6.85006 34.5922C6.8101 34.5354 6.7601 34.4896 6.70003 34.4547L6.66878 34.4359C6.44477 34.3135 6.25724 34.3552 6.10617 34.561Z" fill="black"/>
<path d="M7.06888 35.6424C7.06893 35.7442 7.10496 35.8311 7.17697 35.9031C7.24898 35.9751 7.33589 36.0111 7.4377 36.0111C7.53951 36.0111 7.62642 35.9751 7.69843 35.9031C7.77044 35.8311 7.80647 35.7442 7.80652 35.6424C7.80647 35.5406 7.77044 35.4537 7.69843 35.3817C7.62642 35.3098 7.53951 35.2738 7.4377 35.2738C7.33589 35.2738 7.24898 35.3098 7.17697 35.3817C7.10496 35.4537 7.06893 35.5406 7.06888 35.6424ZM7.02512 35.6612V35.7299C7.02456 35.7747 7.03081 35.8184 7.04387 35.8612L7.08138 35.9987C7.09592 36.0507 7.11884 36.0986 7.15014 36.1425L7.30017 36.3551C7.31862 36.3821 7.33945 36.4071 7.36268 36.4301L7.694 36.7489C7.71571 36.7672 7.73863 36.7839 7.76276 36.7989L8.33162 37.2052C8.35935 37.2262 8.38853 37.245 8.41913 37.2615L9.31306 37.7116C9.34142 37.7259 9.37059 37.7385 9.40057 37.7491L10.6196 38.1804C10.636 38.1872 10.6527 38.1935 10.6696 38.1992L12.1698 38.6117C12.1864 38.6165 12.203 38.6206 12.2199 38.6242L13.9264 38.968C13.9492 38.9733 13.9721 38.9775 13.9952 38.9806L15.8643 39.1931C15.9018 39.1961 15.9393 39.1961 15.9768 39.1931L17.971 39.1056C17.9751 39.1056 17.9793 39.1056 17.9835 39.1056L19.9713 38.9555C19.9838 38.9561 19.9963 38.9561 20.0088 38.9555L21.7217 38.6617L23.0469 38.493C23.2053 38.4721 23.274 38.3825 23.2532 38.2242C23.2324 38.0658 23.1428 37.997 22.9844 38.0179L21.6717 38.1867L19.9526 38.1741L17.996 38.0929L16.0581 37.7866C16.056 37.7866 16.0539 37.7866 16.0518 37.7866L14.2077 37.499L12.5449 37.1552L11.0884 36.7551L9.88816 36.3613L8.96299 36.0175L8.32537 35.7862L7.96905 35.6174L7.83777 35.5299L7.80652 35.4924L7.78776 35.4549C7.67974 35.2814 7.52709 35.2213 7.3298 35.2747C7.13252 35.3281 7.03096 35.4569 7.02512 35.6612Z" fill="black"/>
<path d="M7.65021 36.38C7.65021 36.4888 7.68866 36.5816 7.76556 36.6585C7.84246 36.7354 7.93528 36.7738 8.04403 36.7738C8.15279 36.7738 8.24561 36.7354 8.32251 36.6585C8.39941 36.5816 8.43786 36.4888 8.43786 36.38C8.43786 36.2713 8.39941 36.1784 8.32251 36.1015C8.24561 36.0246 8.15279 35.9862 8.04403 35.9862C7.93528 35.9862 7.84246 36.0246 7.76556 36.1015C7.68866 36.1784 7.65021 36.2713 7.65021 36.38ZM7.60645 36.38C7.60645 36.4974 7.64795 36.5976 7.73095 36.6806C7.81396 36.7636 7.91415 36.8051 8.03153 36.8051C8.14891 36.8051 8.24911 36.7636 8.33211 36.6806C8.41511 36.5976 8.45661 36.4974 8.45661 36.38C8.45661 36.2626 8.41511 36.1624 8.33211 36.0794C8.24911 35.9964 8.14891 35.9549 8.03153 35.9549C7.91415 35.9549 7.81396 35.9964 7.73095 36.0794C7.64795 36.1624 7.60645 36.2626 7.60645 36.38ZM7.55644 36.38C7.5565 36.5077 7.60169 36.6167 7.69201 36.707C7.78233 36.7972 7.89133 36.8424 8.01903 36.8424C8.14673 36.8424 8.25573 36.7972 8.34605 36.707C8.43637 36.6167 8.48156 36.5077 8.48162 36.38C8.48156 36.2523 8.43637 36.1433 8.34605 36.0531C8.25573 35.9628 8.14673 35.9177 8.01903 35.9177C7.89133 35.9177 7.78233 35.9628 7.69201 36.0531C7.60169 36.1433 7.5565 36.2523 7.55644 36.38ZM7.47518 36.4113C7.47518 36.558 7.52705 36.6832 7.6308 36.787C7.73456 36.8907 7.8598 36.9426 8.00653 36.9426C8.15326 36.9426 8.2785 36.8907 8.38225 36.787C8.486 36.6832 8.53788 36.558 8.53788 36.4113C8.53788 36.2645 8.486 36.1393 8.38225 36.0355C8.2785 35.9318 8.15326 35.8799 8.00653 35.8799C7.8598 35.8799 7.73456 35.9318 7.6308 36.0355C7.52705 36.1393 7.47518 36.2645 7.47518 36.4113ZM7.41892 36.6738L7.47518 36.8551C7.51764 37.0074 7.60099 37.1324 7.72522 37.2302L8.05029 37.4802C8.09497 37.5147 8.1429 37.5439 8.19406 37.5677L8.80043 37.8428C8.83088 37.8573 8.86214 37.8698 8.8942 37.8803L9.84438 38.1866C9.86908 38.1941 9.89408 38.2003 9.91939 38.2054L11.2947 38.5054C11.3071 38.5078 11.3196 38.5099 11.3322 38.5117L13.1137 38.8055C13.1262 38.8079 13.1387 38.8099 13.1513 38.8117L15.2579 39.0555C15.2662 39.0577 15.2745 39.0598 15.2829 39.0618L17.5646 39.2556C17.5771 39.2559 17.5896 39.2559 17.6021 39.2556L19.94 39.3493C19.9588 39.35 19.9776 39.35 19.9963 39.3493L22.2967 39.2806C22.3177 39.2793 22.3385 39.2772 22.3593 39.2743L24.5847 39.0243C24.6863 39.0139 24.7821 38.9847 24.8722 38.9368L26.9164 37.824L28.8793 37.1114C29.0209 37.0614 29.0668 36.9655 29.0168 36.8238C28.9668 36.6822 28.8709 36.6363 28.7292 36.6863L26.7789 37.3927L24.4722 37.4677C24.4533 37.4691 24.4346 37.4712 24.4159 37.474L22.2217 37.7053L19.9776 37.7615L17.6834 37.6678L15.4329 37.474L13.3575 37.2239L11.6135 36.9364L10.2882 36.6488L9.38179 36.38L8.81918 36.1737L8.50037 36.0112C8.48599 36.0045 8.4714 35.9982 8.45661 35.9924L8.28158 35.9174C8.03629 35.814 7.81356 35.85 7.61339 36.0255C7.41322 36.201 7.3484 36.4171 7.41892 36.6738Z" fill="black"/>
<path d="M23.8715 37.6304C23.8715 37.7426 23.9112 37.8383 23.9905 37.9177C24.0699 37.997 24.1656 38.0367 24.2778 38.0367C24.39 38.0367 24.4858 37.997 24.5651 37.9177C24.6445 37.8383 24.6842 37.7426 24.6842 37.6304C24.6842 37.5182 24.6445 37.4224 24.5651 37.343C24.4858 37.2637 24.39 37.224 24.2778 37.224C24.1656 37.224 24.0699 37.2637 23.9905 37.343C23.9112 37.4224 23.8715 37.5182 23.8715 37.6304ZM23.8215 37.6741C23.8215 37.8001 23.866 37.9077 23.9552 37.9968C24.0443 38.0859 24.1518 38.1305 24.2778 38.1305C24.4038 38.1305 24.5114 38.0859 24.6005 37.9968C24.6896 37.9077 24.7342 37.8001 24.7342 37.6741C24.7342 37.5481 24.6896 37.4406 24.6005 37.3514C24.5114 37.2623 24.4038 37.2178 24.2778 37.2178C24.1518 37.2178 24.0443 37.2623 23.9552 37.3514C23.866 37.4406 23.8215 37.5481 23.8215 37.6741ZM23.7965 37.7116C23.7965 37.8497 23.8453 37.9676 23.943 38.0653C24.0406 38.1629 24.1585 38.2117 24.2966 38.2117C24.4347 38.2117 24.5526 38.1629 24.6502 38.0653C24.7479 37.9676 24.7967 37.8497 24.7967 37.7116C24.7967 37.5735 24.7479 37.4557 24.6502 37.358C24.5526 37.2604 24.4347 37.2115 24.2966 37.2115C24.1585 37.2115 24.0406 37.2604 23.943 37.358C23.8453 37.4557 23.7965 37.5735 23.7965 37.7116ZM23.7965 37.9429L23.8215 38.0054C23.8832 38.1817 23.9999 38.3068 24.1716 38.3805L24.3028 38.4305C24.381 38.4621 24.4623 38.4788 24.5466 38.4805L24.7592 38.4868C24.7989 38.4881 24.8385 38.486 24.8779 38.4805L25.1655 38.4368C25.1928 38.4342 25.2199 38.43 25.2468 38.4243L25.6093 38.3305C25.622 38.3267 25.6345 38.3225 25.6468 38.318L26.0469 38.1867C26.049 38.1867 26.0511 38.1867 26.0532 38.1867L26.4657 38.0492C26.4762 38.0473 26.4866 38.0453 26.497 38.0429L26.8908 37.8867C26.9185 37.8778 26.9456 37.8674 26.9721 37.8554L27.3472 37.6554C27.3707 37.644 27.3936 37.6315 27.4159 37.6179L27.8348 37.3428C27.8588 37.3254 27.8817 37.3066 27.9035 37.2866L28.3974 36.874C28.4103 36.8619 28.4228 36.8494 28.4349 36.8365L28.9537 36.3426C28.9622 36.3345 28.9706 36.3261 28.9787 36.3176L29.4851 35.7863C29.4915 35.7781 29.4977 35.7697 29.5038 35.7613L29.9789 35.2299C29.9853 35.2217 29.9916 35.2134 29.9977 35.2049L30.4415 34.6673C30.4479 34.6612 30.4541 34.6549 30.4603 34.6485L30.8478 34.1422C30.8521 34.136 30.8563 34.1298 30.8603 34.1234L31.1916 33.6671L31.4792 33.2795L31.7418 32.9295L31.9855 32.6044C31.9877 32.6003 31.9898 32.5961 31.9918 32.5919L32.2106 32.2919L32.4231 32.0168L32.6232 31.7542C32.8247 31.4975 32.8539 31.2224 32.7107 30.9291L32.6357 30.7728L32.8857 30.3477C32.9771 30.1936 32.9458 30.0707 32.7918 29.9792C32.6378 29.8876 32.5149 29.9188 32.4231 30.0727L32.1793 30.4915H32.0106C31.7565 30.4888 31.5502 30.5868 31.3917 30.7853L31.1791 31.0479C31.177 31.052 31.1749 31.0562 31.1729 31.0604L30.9541 31.3479C30.952 31.35 30.9499 31.3521 30.9478 31.3542L30.7228 31.6605L30.479 31.9793L30.2102 32.3356C30.2081 32.3377 30.206 32.3398 30.204 32.3419L29.9164 32.7357C29.9164 32.7378 29.9164 32.7399 29.9164 32.7419L29.5913 33.192L29.2163 33.6796L28.7912 34.1922L28.3349 34.7111L27.8535 35.2237L27.3597 35.6987L26.9221 36.0801L26.572 36.3301L26.2532 36.5177L25.9219 36.6927L25.5781 36.8302L25.2155 36.9552L24.8967 37.049L24.6592 37.0928L24.4716 37.124C24.4528 37.1253 24.434 37.1274 24.4154 37.1303L24.2778 37.1615C24.2502 37.1681 24.2231 37.1764 24.1966 37.1865L24.1341 37.2115C23.9876 37.2671 23.8815 37.366 23.8158 37.5083C23.7502 37.6505 23.7437 37.7954 23.7965 37.9429Z" fill="black"/>
<path d="M31.2728 31.6792C31.2728 31.8418 31.3541 31.923 31.5166 31.923C31.6792 31.923 31.7604 31.8418 31.7604 31.6792C31.7604 31.5167 31.6792 31.4354 31.5166 31.4354C31.3541 31.4354 31.2728 31.5167 31.2728 31.6792ZM31.2228 31.6792C31.2228 31.8709 31.3187 31.9668 31.5104 31.9668C31.7021 31.9668 31.7979 31.8709 31.7979 31.6792C31.7979 31.4875 31.7021 31.3917 31.5104 31.3917C31.3187 31.3917 31.2228 31.4875 31.2228 31.6792ZM31.2291 31.4104H31.2228L31.2166 31.4167L31.1666 31.4354C31.158 31.4414 31.1497 31.4477 31.1416 31.4542L31.1228 31.4604C31.0488 31.4988 30.9882 31.5522 30.9409 31.6209C30.8937 31.6895 30.8654 31.7652 30.8559 31.848C30.8465 31.9308 30.8572 32.0109 30.8878 32.0884C30.9185 32.1659 30.9655 32.2316 31.029 32.2856L31.054 32.3043C31.1738 32.4055 31.3114 32.4451 31.4666 32.4231L31.5479 32.4106C31.6259 32.4004 31.6988 32.3754 31.7667 32.3356L31.9355 32.2356C31.9791 32.207 32.0187 32.1737 32.0542 32.1356L32.298 31.898C32.331 31.8634 32.3601 31.8259 32.3855 31.7855L32.6668 31.3667C32.6734 31.3564 32.6796 31.346 32.6856 31.3354L32.9982 30.8103C33.0003 30.8041 33.0024 30.7978 33.0044 30.7916L33.317 30.2227C33.3235 30.2124 33.3297 30.202 33.3357 30.1914L33.617 29.6163C33.6236 29.604 33.6299 29.5915 33.6358 29.5788L33.8733 29.0162C33.8755 29.01 33.8776 29.0037 33.8796 28.9975L34.0734 28.5036C34.0802 28.4872 34.0865 28.4705 34.0921 28.4536L34.2109 28.0598C34.273 27.8599 34.2501 27.6703 34.1421 27.4909L34.0546 27.3471C33.9202 27.1213 33.7285 27.0505 33.4795 27.1346L33.317 27.1909C33.1238 27.2577 32.9862 27.3848 32.9044 27.5722L32.7356 27.9473C32.7335 27.9514 32.7314 27.9556 32.7294 27.9598L32.5293 28.4411L32.2855 28.9725L32.0167 29.5288L31.7167 30.0727L31.4166 30.5915C31.4145 30.5957 31.4124 30.5998 31.4104 30.604L31.1666 31.0416C31.1549 31.064 31.1445 31.0869 31.1353 31.1104L30.9978 31.4292C30.9957 31.4333 30.9936 31.4375 30.9915 31.4417L30.9228 31.623C30.9124 31.6494 30.9041 31.6765 30.8978 31.7042L30.879 31.7855C30.9685 31.7111 31.0269 31.6174 31.054 31.5042L31.029 31.5229C31.118 31.6315 31.2324 31.6919 31.3722 31.7042C31.512 31.7165 31.6352 31.6769 31.7417 31.5855L31.7292 31.5667C31.6782 31.7304 31.7074 31.8784 31.8167 32.0105L31.8354 31.948C31.8403 31.9336 31.8445 31.9191 31.8479 31.9043L31.8542 31.8418C31.8293 31.8846 31.8126 31.9304 31.8042 31.9793L31.8354 31.9293C31.9462 31.7348 31.9166 31.5649 31.7466 31.4194C31.5765 31.2739 31.404 31.2709 31.2291 31.4104ZM33.9296 27.5722L33.9483 27.5284C33.9889 27.379 33.9383 27.2734 33.7964 27.2115C33.6544 27.1497 33.5426 27.1845 33.4607 27.3159L33.442 27.3596C33.4014 27.509 33.4521 27.6147 33.594 27.6765C33.7359 27.7384 33.8478 27.7036 33.9296 27.5722Z" fill="black"/>
<path d="M32.9982 28.1535C32.9982 28.264 33.0372 28.3583 33.1154 28.4364C33.1935 28.5145 33.2878 28.5536 33.3983 28.5536C33.5087 28.5536 33.603 28.5145 33.6812 28.4364C33.7593 28.3583 33.7983 28.264 33.7983 28.1535C33.7983 28.0431 33.7593 27.9488 33.6812 27.8706C33.603 27.7925 33.5087 27.7535 33.3983 27.7535C33.2878 27.7535 33.1935 27.7925 33.1154 27.8706C33.0372 27.9488 32.9982 28.0431 32.9982 28.1535ZM32.8982 28.1598C32.8982 28.2962 32.9464 28.4126 33.0428 28.509C33.1392 28.6054 33.2556 28.6536 33.392 28.6536C33.5284 28.6536 33.6448 28.6054 33.7412 28.509C33.8376 28.4126 33.8859 28.2962 33.8859 28.1598C33.8859 28.0234 33.8376 27.907 33.7412 27.8106C33.6448 27.7142 33.5284 27.6659 33.392 27.6659C33.2556 27.6659 33.1392 27.7142 33.0428 27.8106C32.9464 27.907 32.8982 28.0234 32.8982 28.1598ZM32.7919 28.1723C32.7919 28.3345 32.8493 28.4731 32.964 28.5878C33.0787 28.7025 33.2172 28.7599 33.3795 28.7599C33.5418 28.7599 33.6803 28.7025 33.795 28.5878C33.9097 28.4731 33.9671 28.3345 33.9671 28.1723C33.9671 28.01 33.9097 27.8715 33.795 27.7568C33.6803 27.642 33.5418 27.5847 33.3795 27.5847C33.2172 27.5847 33.0787 27.642 32.964 27.7568C32.8493 27.8715 32.7919 28.01 32.7919 28.1723ZM32.7356 28.1223V28.1598C32.705 28.4258 32.7925 28.6446 32.9982 28.8162L33.142 28.9349C33.164 28.9528 33.1869 28.9695 33.2107 28.9849L33.4858 29.16C33.4899 29.1642 33.4941 29.1684 33.4983 29.1725L33.8608 29.3975C33.891 29.4163 33.9222 29.433 33.9546 29.4475L34.4047 29.6476C34.4705 29.6783 34.5392 29.6991 34.611 29.7101L35.0736 29.7663C35.1678 29.7784 35.2595 29.768 35.3486 29.7351L35.5299 29.6726L35.7362 29.7663C35.8946 29.8414 36.0113 29.7997 36.0863 29.6413C36.1613 29.483 36.1196 29.3663 35.9612 29.2912L35.7612 29.1975L35.7049 29.0162C35.6786 28.9363 35.637 28.8655 35.5799 28.8037L35.2736 28.4598C35.231 28.4121 35.1831 28.3704 35.1298 28.3348L34.7173 28.0598C34.7111 28.0555 34.7048 28.0513 34.6985 28.0473L34.3359 27.8222C34.3277 27.8179 34.3193 27.8137 34.3109 27.8097L34.0359 27.6472C33.9766 27.6141 33.9141 27.5891 33.8483 27.5722L33.6671 27.5222C33.4387 27.4591 33.2282 27.4966 33.0357 27.6347L33.0107 27.6597C32.8505 27.7731 32.7588 27.9273 32.7356 28.1223Z" fill="black"/>
</g>
<defs>
<clipPath id="clip0_1_7373">
<rect width="39" height="40" fill="white"/>
</clipPath>
</defs>
</svg>
