<svg width="43" height="35" viewBox="0 0 43 35" fill="none" xmlns="http://www.w3.org/2000/svg">
<g clip-path="url(#clip0_1_7399)">
<path d="M8.3363 21.071C8.33634 21.1763 8.37359 21.2661 8.44804 21.3405C8.52249 21.415 8.61235 21.4522 8.71763 21.4522C8.8229 21.4522 8.91276 21.415 8.98722 21.3405C9.06167 21.2661 9.09891 21.1763 9.09895 21.071C9.09891 20.9657 9.06167 20.8759 8.98722 20.8014C8.91276 20.727 8.8229 20.6898 8.71763 20.6898C8.61235 20.6898 8.52249 20.727 8.44804 20.8014C8.37359 20.8759 8.33634 20.9657 8.3363 21.071ZM9.00518 21.3523L9.11145 21.2648C9.20655 21.1862 9.27323 21.0883 9.31149 20.971L9.43026 20.6209C9.4462 20.5699 9.45662 20.5178 9.46152 20.4646L9.53028 19.852L9.6303 18.9143C9.63636 18.8581 9.63636 18.8018 9.6303 18.7456L9.49277 17.5391L9.43651 16.3013L9.57404 15.2449C9.56564 15.1031 9.49095 15.0234 9.34998 15.0057C9.20901 14.9881 9.117 15.047 9.07394 15.1824L8.93017 16.2326L8.5551 17.414L8.11751 18.5518C8.09308 18.6122 8.07641 18.6747 8.0675 18.7393L7.95498 19.6707C7.95079 19.7039 7.94871 19.7373 7.94873 19.7707L7.95498 20.3896C7.95583 20.4598 7.96624 20.5286 7.98624 20.5959L8.09251 20.9522C8.12926 21.0775 8.19803 21.1817 8.2988 21.2648L8.40507 21.3523C8.60511 21.5189 8.80514 21.5189 9.00518 21.3523Z" fill="black"/>
<path d="M18.5945 28.3536L18.6258 28.3161C18.6656 28.2664 18.6906 28.2102 18.7008 28.1473L18.7383 27.8973C18.7414 27.8807 18.7435 27.8641 18.7445 27.8473L18.7633 27.2972C18.7634 27.293 18.7634 27.2888 18.7633 27.2847V26.2845C18.7634 26.2803 18.7634 26.2761 18.7633 26.272L18.7195 24.7279L18.6633 23.1151L18.7258 21.7336C18.7341 21.5711 18.657 21.4856 18.4945 21.4773C18.332 21.469 18.2465 21.5461 18.2382 21.7086L18.1757 23.0964L17.9944 24.6967C17.9943 24.7008 17.9943 24.705 17.9944 24.7092L17.8694 26.247C17.8669 26.2573 17.8648 26.2677 17.8631 26.2782L17.8506 27.2784C17.8518 27.2952 17.8539 27.3119 17.8569 27.3284L17.9069 27.8785C17.9104 27.9062 17.9167 27.9333 17.9256 27.9598L18.0006 28.1973C18.02 28.2637 18.0554 28.32 18.1069 28.3661L18.1444 28.3974C18.2119 28.4556 18.2901 28.4804 18.3788 28.4718C18.4676 28.4632 18.5395 28.4238 18.5945 28.3536Z" fill="black"/>
<path d="M34.5412 22.8651C34.5412 22.9652 34.5766 23.0506 34.6474 23.1214C34.7182 23.1922 34.8037 23.2276 34.9038 23.2276C35.0039 23.2276 35.0894 23.1922 35.1602 23.1214C35.2309 23.0506 35.2663 22.9652 35.2663 22.8651C35.2663 22.7649 35.2309 22.6795 35.1602 22.6087C35.0894 22.5379 35.0039 22.5025 34.9038 22.5025C34.8037 22.5025 34.7182 22.5379 34.6474 22.6087C34.5766 22.6795 34.5412 22.7649 34.5412 22.8651ZM35.3976 22.9338L35.4351 22.765L35.5289 22.365C35.5347 22.3402 35.5388 22.3152 35.5414 22.29L35.6414 21.4898C35.6434 21.4606 35.6434 21.4315 35.6414 21.4023L35.6227 20.1896C35.6223 20.1644 35.6202 20.1394 35.6164 20.1145L35.3976 18.7205L35.4539 17.4203C35.4622 17.2578 35.3851 17.1724 35.2226 17.1641C35.0601 17.1557 34.9747 17.2328 34.9663 17.3953L34.91 18.6955L34.5537 20.0583C34.5483 20.0789 34.5442 20.0997 34.5412 20.1208L34.3724 21.3273C34.3689 21.3522 34.3668 21.3772 34.3662 21.4023L34.3474 22.2087C34.3461 22.2316 34.3461 22.2545 34.3474 22.2775L34.3912 22.69L34.4037 22.8651C34.4061 22.9946 34.452 23.1063 34.5413 23.2002C34.6306 23.2941 34.7399 23.3455 34.8692 23.3545C34.9984 23.3634 35.1138 23.3275 35.2151 23.2468C35.3165 23.1661 35.3773 23.0618 35.3976 22.9338Z" fill="black"/>
<path d="M11.5245 12.5131C11.5245 12.6046 11.5568 12.6827 11.6215 12.7474C11.6862 12.8121 11.7643 12.8444 11.8558 12.8444C11.9473 12.8444 12.0254 12.8121 12.0901 12.7474C12.1547 12.6827 12.1871 12.6046 12.1871 12.5131C12.1871 12.4216 12.1547 12.3435 12.0901 12.2788C12.0254 12.2141 11.9473 12.1818 11.8558 12.1818C11.7643 12.1818 11.6862 12.2141 11.6215 12.2788C11.5568 12.3435 11.5245 12.4216 11.5245 12.5131ZM11.5057 12.5131C11.5057 12.6115 11.5405 12.6955 11.6101 12.7651C11.6797 12.8346 11.7636 12.8694 11.862 12.8694C11.9604 12.8694 12.0444 12.8346 12.114 12.7651C12.1836 12.6955 12.2184 12.6115 12.2184 12.5131C12.2184 12.4147 12.1836 12.3307 12.114 12.2612C12.0444 12.1916 11.9604 12.1568 11.862 12.1568C11.7636 12.1568 11.6797 12.1916 11.6101 12.2612C11.5405 12.3307 11.5057 12.4147 11.5057 12.5131ZM11.512 12.6131L11.5182 12.6381C11.5241 12.594 11.522 12.5502 11.512 12.5069L11.5057 12.5194C11.617 12.6235 11.7441 12.6489 11.8868 12.5955C12.0296 12.5422 12.1089 12.4397 12.1246 12.2881L12.1183 12.2818C12.1358 12.3096 12.1567 12.3346 12.1808 12.3568L12.1683 12.3318C12.1414 12.2921 12.1081 12.2587 12.0683 12.2318L12.0496 12.213C11.9174 12.116 11.7799 12.1077 11.637 12.188L11.6182 12.2005C11.559 12.2319 11.511 12.2756 11.4745 12.3318L11.4495 12.3756C11.408 12.4426 11.3872 12.5156 11.3869 12.5944L11.3807 12.8132C11.3795 12.8708 11.3879 12.9271 11.4057 12.9819L11.5995 13.5946C11.6079 13.6224 11.6183 13.6495 11.6307 13.6758L12.1933 14.826C12.1974 14.8324 12.2016 14.8386 12.2058 14.8448L13.131 16.5701C13.1389 16.5829 13.1473 16.5954 13.156 16.6076L14.4875 18.733C14.4936 18.7415 14.4999 18.7498 14.5063 18.758L16.1503 21.1397C16.1584 21.1504 16.1667 21.1608 16.1754 21.171L18.0695 23.6215C18.0775 23.6321 18.0859 23.6425 18.0945 23.6527L20.1136 26.0157C20.1217 26.0263 20.13 26.0367 20.1386 26.0469L22.139 28.1911C22.1471 28.1996 22.1555 28.2079 22.164 28.2161L24.0456 30.0477C24.0517 30.0561 24.0579 30.0645 24.0644 30.0727L25.7147 31.573C25.7249 31.5816 25.7353 31.5899 25.7459 31.598L27.1274 32.7357C27.1591 32.7611 27.1924 32.784 27.2275 32.8045L28.4402 33.5296C28.4968 33.5638 28.5572 33.5888 28.6215 33.6046L29.5466 33.8234L30.103 34.1547C30.2571 34.246 30.3799 34.2147 30.4715 34.0607C30.563 33.9068 30.5319 33.7839 30.3781 33.6921L29.8342 33.3671L29.3029 32.6044C29.2788 32.5706 29.2517 32.5393 29.2216 32.5107L28.2151 31.523C28.2031 31.5101 28.1905 31.4976 28.1776 31.4855L26.8274 30.329L25.1771 28.8537L23.2892 27.0659L21.2576 25.003L19.2384 22.69L17.3443 20.2771L15.669 17.9579L14.3188 15.8825L13.3123 14.2259L12.6934 13.1195C12.6875 13.1089 12.6813 13.0984 12.6747 13.0882L12.3246 12.5506C12.3065 12.5214 12.2857 12.4943 12.2621 12.4693L12.1371 12.3381V12.3318C12.0608 12.4677 12.065 12.6011 12.1496 12.7319L12.1621 12.7131C12.036 12.7308 11.9422 12.7954 11.8808 12.9069L11.8995 12.9007C11.8222 12.8539 11.7389 12.8372 11.6495 12.8507L11.6745 12.8632C11.6523 12.839 11.6273 12.8182 11.5995 12.8007L11.6057 12.8069C11.7259 12.9368 11.8667 12.9653 12.028 12.8926C12.1893 12.8198 12.2611 12.6954 12.2434 12.5194L12.2371 12.5069C12.2362 12.49 12.2341 12.4734 12.2309 12.4568L12.2246 12.4318C12.2064 12.3258 12.1522 12.2435 12.0619 12.1849C11.9717 12.1263 11.8744 12.1103 11.7702 12.1368C11.6659 12.1633 11.5881 12.2239 11.5368 12.3185C11.4856 12.4131 11.4773 12.5113 11.512 12.6131Z" fill="black"/>
<path d="M6.08585 27.5785C6.08585 27.6855 6.12369 27.7768 6.19937 27.8525C6.27505 27.9282 6.3664 27.966 6.47343 27.966C6.58045 27.966 6.67181 27.9282 6.74748 27.8525C6.82316 27.7768 6.861 27.6855 6.861 27.5785C6.861 27.4714 6.82316 27.3801 6.74748 27.3044C6.67181 27.2287 6.58045 27.1909 6.47343 27.1909C6.3664 27.1909 6.27505 27.2287 6.19937 27.3044C6.12369 27.3801 6.08585 27.4714 6.08585 27.5785ZM6.01709 27.5722C6.01709 27.6948 6.06042 27.7994 6.14709 27.886C6.23375 27.9727 6.33836 28.016 6.46093 28.016C6.58349 28.016 6.6881 27.9727 6.77476 27.886C6.86143 27.7994 6.90476 27.6948 6.90476 27.5722C6.90476 27.4496 6.86143 27.345 6.77476 27.2584C6.6881 27.1717 6.58349 27.1284 6.46093 27.1284C6.33836 27.1284 6.23375 27.1717 6.14709 27.2584C6.06042 27.345 6.01709 27.4496 6.01709 27.5722ZM6.80474 27.8973L6.861 27.841C6.8865 27.8161 6.90942 27.789 6.92977 27.7597L7.04854 27.5847L7.24858 27.2972L7.6424 26.8283L8.30503 26.0844L9.28021 25.0967L10.5805 23.859L12.1495 22.4962L13.9436 21.0147L15.9877 19.3956L18.1569 17.7328L20.3386 16.1138L22.439 14.626L24.4769 13.2882C24.4789 13.2882 24.481 13.2882 24.4831 13.2882L26.3585 12.0442C26.3627 12.0422 26.3668 12.0401 26.371 12.038L27.8462 10.9878L29.0652 10.4815C29.1861 10.4151 29.2203 10.3181 29.1678 10.1907C29.1153 10.0632 29.0227 10.0184 28.8902 10.0564L27.6587 10.569L25.9021 11.0566C25.8721 11.0645 25.8429 11.0749 25.8146 11.0878L23.783 12.0505C23.7571 12.0636 23.7321 12.0781 23.708 12.0943L21.6451 13.4195C21.6367 13.4235 21.6283 13.4277 21.6201 13.432L19.4884 14.9198C19.4821 14.9218 19.4759 14.9239 19.4697 14.926L17.2755 16.5389C17.2713 16.543 17.2671 16.5471 17.263 16.5514L15.0813 18.2142C15.0771 18.2162 15.073 18.2183 15.0688 18.2204L13.0122 19.8457C13.008 19.8478 13.0038 19.8499 12.9997 19.852L11.1868 21.3335C11.1805 21.3397 11.1742 21.3459 11.1681 21.3523L9.58027 22.7338C9.57181 22.7399 9.56347 22.7461 9.55527 22.7525L8.23001 24.009C8.21707 24.0211 8.20457 24.0336 8.19251 24.0465L7.22982 25.0842C7.21432 25.1023 7.19974 25.121 7.18606 25.1405L6.5672 25.9531C6.55394 25.9693 6.54144 25.9859 6.52969 26.0032L6.17962 26.5595C6.1655 26.5837 6.153 26.6087 6.14212 26.6345L5.98584 26.9783C5.9563 27.0398 5.93754 27.1044 5.92957 27.1721L5.91082 27.3847C5.89666 27.5098 5.92167 27.6264 5.98584 27.7347L6.02959 27.8035C6.11395 27.9397 6.23564 28.0173 6.39464 28.0366C6.55365 28.0558 6.69035 28.0094 6.80474 27.8973Z" fill="black"/>
<path d="M27.29 10.744C27.29 10.8442 27.3254 10.9296 27.3962 11.0004C27.467 11.0712 27.5524 11.1066 27.6525 11.1066C27.7527 11.1066 27.8381 11.0712 27.9089 11.0004C27.9797 10.9296 28.0151 10.8442 28.0151 10.744C28.0151 10.6439 27.9797 10.5585 27.9089 10.4877C27.8381 10.4169 27.7527 10.3815 27.6525 10.3815C27.5524 10.3815 27.467 10.4169 27.3962 10.4877C27.3254 10.5585 27.29 10.6439 27.29 10.744ZM27.1337 10.7378C27.1337 10.8742 27.1819 10.9906 27.2783 11.087C27.3748 11.1834 27.4912 11.2316 27.6275 11.2316C27.7639 11.2316 27.8803 11.1834 27.9767 11.087C28.0732 10.9906 28.1214 10.8742 28.1214 10.7378C28.1214 10.6014 28.0732 10.485 27.9767 10.3886C27.8803 10.2922 27.7639 10.244 27.6275 10.244C27.4912 10.244 27.3748 10.2922 27.2783 10.3886C27.1819 10.485 27.1337 10.6014 27.1337 10.7378ZM28.0214 10.2189L27.9651 10.1627C27.8871 10.0893 27.7975 10.0351 27.6963 10.0002L27.6463 9.98765C27.2697 10.0722 27.07 10.3071 27.0471 10.6923C27.0243 11.0776 27.1948 11.3345 27.5588 11.4629L27.665 11.4379C27.6818 11.4343 27.6985 11.4302 27.715 11.4254L28.0651 11.3317C28.082 11.326 28.0987 11.3197 28.1151 11.3129L28.6902 11.1129L29.3904 10.8691C29.4009 10.8651 29.4113 10.861 29.4216 10.8566L30.0967 10.5878C30.1405 10.5711 30.1822 10.5503 30.2218 10.5253L30.7281 10.2002C30.7503 10.1852 30.7711 10.1685 30.7906 10.1502L31.0282 9.93139L31.2782 9.91264C31.4408 9.90013 31.5158 9.81262 31.5033 9.65009C31.4908 9.48756 31.4032 9.41254 31.2407 9.42504L30.9719 9.4438L30.6594 9.30627C30.5981 9.27674 30.5335 9.26007 30.4656 9.25626L29.8655 9.23751C29.7979 9.23409 29.7312 9.24034 29.6654 9.25626L28.959 9.43755C28.9443 9.44127 28.9297 9.44543 28.9153 9.45005L28.2089 9.68134L27.6463 9.85638L27.315 9.94389L27.2087 9.9689C27.0219 10.0413 26.8844 10.1675 26.7963 10.3474C26.7081 10.5273 26.6926 10.7133 26.7498 10.9053C26.807 11.0973 26.9217 11.2444 27.094 11.3468C27.2662 11.4491 27.4503 11.4795 27.6463 11.4379L27.6963 11.4254C27.7684 11.4002 27.8351 11.3648 27.8963 11.3192L27.9588 11.2754C28.1323 11.1479 28.2254 10.9768 28.2382 10.7618C28.2509 10.5469 28.1786 10.366 28.0214 10.2189Z" fill="black"/>
<path d="M30.4092 8.4436C30.4092 8.64781 30.5113 8.74991 30.7155 8.74991C30.9197 8.74991 31.0218 8.64781 31.0218 8.4436C31.0218 8.2394 30.9197 8.1373 30.7155 8.1373C30.5113 8.1373 30.4092 8.2394 30.4092 8.4436ZM30.3592 8.33108L30.3279 8.41235C30.3226 8.42874 30.3185 8.44541 30.3154 8.46236L30.2717 8.64364C30.2694 8.64984 30.2673 8.6561 30.2654 8.6624L30.1966 8.99996C30.1905 9.02463 30.1863 9.04964 30.1841 9.07497L30.1654 9.65634C30.1633 9.66047 30.1612 9.66464 30.1591 9.66884V10.5065L30.0966 11.6442L29.9341 13.1633C29.9309 13.1861 29.9289 13.209 29.9278 13.232L29.7966 19.9145C29.7966 19.9166 29.7966 19.9187 29.7966 19.9208L29.7841 22.29C29.7841 22.2921 29.7841 22.2942 29.7841 22.2962L29.7903 24.5154V26.497L29.7216 28.1036L29.4903 29.2601C29.4763 29.4172 29.5467 29.5108 29.7015 29.541C29.8563 29.5712 29.9568 29.5109 30.0029 29.3601L30.2404 28.1974L30.6717 26.6221C30.6742 26.6117 30.6763 26.6013 30.678 26.5908L31.0656 24.6404C31.071 24.6177 31.0751 24.5948 31.0781 24.5717L31.2781 22.365C31.2807 22.3484 31.2828 22.3317 31.2844 22.315L31.3469 19.9458C31.3469 19.9416 31.3469 19.9375 31.3469 19.9333L31.4031 13.2508C31.4023 13.2257 31.4002 13.2007 31.3969 13.1758L31.2593 11.6442L31.1843 10.5002L31.1718 9.66259C31.1698 9.66048 31.1677 9.6584 31.1656 9.65634L31.1468 9.07497C31.1461 9.054 31.144 9.03316 31.1406 9.01246L31.0843 8.6874L31.0656 8.54362L31.0718 8.48736C31.0862 8.27593 30.9899 8.14751 30.7828 8.10211C30.5758 8.05672 30.4346 8.13304 30.3592 8.33108Z" fill="black"/>
<path d="M29.9404 24.7842L29.9153 24.8405C29.8921 24.8836 29.8775 24.9294 29.8716 24.978L29.8528 25.1531C29.8503 25.1634 29.8483 25.1738 29.8466 25.1843L29.8403 25.4844L29.8091 25.897L29.7091 26.4908L29.5528 27.341C29.5502 27.3555 29.5481 27.3701 29.5465 27.3847L29.4215 28.4724L29.2777 29.6727C29.2765 29.6956 29.2765 29.7185 29.2777 29.7414L29.259 30.8792C29.2602 30.8959 29.2623 30.9126 29.2652 30.9292L29.3402 31.8168L29.234 32.467C29.2288 32.6156 29.2994 32.7027 29.4459 32.7284C29.5924 32.754 29.6885 32.696 29.7341 32.5545L29.8466 31.8981L30.1842 31.0667C30.1913 31.0504 30.1976 31.0337 30.2029 31.0167L30.5155 29.9227C30.5259 29.8942 30.5342 29.865 30.5405 29.8352L30.703 28.635C30.7052 28.6267 30.7073 28.6184 30.7093 28.61L30.8093 27.5098C30.8134 27.4807 30.8154 27.4516 30.8155 27.4222L30.7718 26.5596C30.7703 26.5449 30.7682 26.5303 30.7655 26.5158L30.6842 25.9032L30.653 25.4844L30.6467 25.1843C30.6467 25.1822 30.6467 25.1802 30.6467 25.1781L30.6405 25.003C30.636 24.9451 30.6193 24.8909 30.5905 24.8405L30.5655 24.7842C30.5008 24.656 30.3966 24.5918 30.2529 24.5918C30.1092 24.5918 30.0051 24.656 29.9404 24.7842Z" fill="black"/>
<path d="M8.47376 10.8628L8.48001 10.8503C8.48018 10.844 8.48018 10.8378 8.48001 10.8315L8.49876 10.6878L8.54252 10.2939C8.54277 10.2856 8.54277 10.2773 8.54252 10.2689L8.58003 9.53754L8.6738 8.46234C8.67479 8.44567 8.67479 8.429 8.6738 8.41233L8.64254 7.13709L8.78007 5.95561C8.79667 5.79313 8.72374 5.70356 8.56127 5.6869C8.39879 5.67023 8.30919 5.74313 8.29247 5.9056L8.15495 7.08083L7.84864 8.32481C7.84288 8.34533 7.83871 8.36617 7.83614 8.38733L7.72987 9.46878C7.72962 9.47712 7.72962 9.48545 7.72987 9.49379L7.70486 10.2314C7.70226 10.2585 7.70226 10.2856 7.70486 10.3127L7.76112 10.694C7.76351 10.7152 7.76768 10.736 7.77363 10.7565L7.81738 10.8878C7.81394 10.8751 7.80977 10.8626 7.80488 10.8503L7.81113 10.8628C7.84664 11.0447 7.95708 11.1357 8.14245 11.1357C8.32781 11.1357 8.43825 11.0447 8.47376 10.8628Z" fill="black"/>
<path d="M20.5011 4.71793V4.71167C20.5033 4.69084 20.5033 4.67 20.5011 4.64916V4.5679L20.5386 4.2991C20.5387 4.29285 20.5387 4.28659 20.5386 4.28034L20.5948 3.73024C20.595 3.72399 20.595 3.71774 20.5948 3.71148L20.6323 2.88008C20.633 2.86757 20.633 2.85507 20.6323 2.84257L20.5761 1.79862L20.6761 0.817183C20.6886 0.679657 20.6261 0.604643 20.4886 0.592139C20.351 0.579637 20.276 0.642149 20.2635 0.779676L20.1635 1.75486L19.9134 2.77381C19.9099 2.7924 19.9078 2.81115 19.9072 2.83007L19.8322 3.65522C19.8311 3.67189 19.8311 3.68856 19.8322 3.70523L19.8447 4.26159C19.8461 4.27421 19.8482 4.28671 19.8509 4.2991L19.8947 4.59915C19.8947 4.60124 19.8947 4.60332 19.8947 4.6054L19.9134 4.71167V4.71793C19.9134 4.9138 20.0114 5.01173 20.2073 5.01173C20.4031 5.01173 20.5011 4.9138 20.5011 4.71793Z" fill="black"/>
<path d="M22.9329 17.139L22.9641 17.039C22.9666 17.0287 22.9687 17.0183 22.9704 17.0078L23.0642 16.6139C23.0697 16.5934 23.0738 16.5725 23.0767 16.5514L23.1517 15.7638C23.1539 15.7576 23.1559 15.7513 23.1579 15.745L23.2267 14.6636C23.2291 14.6532 23.2311 14.6428 23.2329 14.6323L23.2517 13.3571C23.2522 13.3446 23.2522 13.3321 23.2517 13.3196L23.1704 12.0506L23.3204 10.9816C23.3135 10.8506 23.2451 10.7763 23.115 10.7588C22.985 10.7412 22.8993 10.7946 22.8579 10.9191L22.7016 11.9943L22.3265 13.207C22.3182 13.2315 22.312 13.2565 22.3078 13.282L22.114 14.5448C22.1132 14.5615 22.1132 14.5781 22.114 14.5948L22.0452 15.6763C22.0443 15.695 22.0443 15.7138 22.0452 15.7325L22.089 16.5264C22.0893 16.5623 22.0934 16.5977 22.1015 16.6327L22.2077 17.0203C22.2097 17.0266 22.2117 17.0328 22.214 17.039L22.2452 17.139C22.3005 17.304 22.4151 17.3865 22.5891 17.3865C22.763 17.3865 22.8776 17.304 22.9329 17.139Z" fill="black"/>
<path d="M33.2973 6.73078L33.4536 6.43073C33.49 6.36013 33.5087 6.28511 33.5098 6.20568L33.5161 5.71184C33.5161 5.70976 33.5161 5.70767 33.5161 5.70559V4.96795C33.5164 4.95753 33.5164 4.94711 33.5161 4.93669L33.4473 3.9365L33.4848 2.78003L33.6661 1.73608C33.6686 1.61946 33.6125 1.55041 33.4979 1.52891C33.3832 1.50741 33.306 1.55146 33.266 1.66107L33.0785 2.71752L32.7722 3.85524C32.7701 3.85729 32.768 3.85938 32.7659 3.86149L32.5221 4.84292C32.5125 4.87563 32.5063 4.90897 32.5034 4.94294L32.4659 5.68058C32.467 5.69945 32.469 5.7182 32.4721 5.73685L32.4971 6.23069C32.5031 6.31397 32.5281 6.39107 32.5722 6.46198L32.7472 6.74954C32.8123 6.85263 32.9058 6.9021 33.0276 6.89795C33.1495 6.8938 33.2394 6.83807 33.2973 6.73078Z" fill="black"/>
<path d="M6.56091 27.1846C6.56091 27.2796 6.59448 27.3606 6.66161 27.4278C6.72874 27.4949 6.80978 27.5285 6.90472 27.5285C6.99967 27.5285 7.0807 27.4949 7.14784 27.4278C7.21497 27.3606 7.24854 27.2796 7.24854 27.1846C7.24854 27.0897 7.21497 27.0087 7.14784 26.9415C7.0807 26.8744 6.99967 26.8408 6.90472 26.8408C6.80978 26.8408 6.72874 26.8744 6.66161 26.9415C6.59448 27.0087 6.56091 27.0897 6.56091 27.1846ZM6.81721 27.5472L6.84221 27.5535C6.87323 27.5591 6.90449 27.5612 6.93598 27.5597H7.01099C7.06491 27.5584 7.117 27.548 7.16727 27.5285L7.34856 27.466C7.35276 27.4639 7.35692 27.4618 7.36106 27.4597L7.67987 27.3222C7.68196 27.3222 7.68404 27.3222 7.68612 27.3222L8.17997 27.1096L8.88635 26.8033L9.84903 26.3845L11.0993 25.8844L12.6496 25.303L14.5124 24.6529L16.6941 23.9903L19.2071 23.3277L21.9888 22.7025L25.0019 22.1899L28.1713 21.7024L31.3844 21.296L34.5287 20.9772L37.4355 20.7084C37.4418 20.7085 37.448 20.7085 37.4543 20.7084L39.9673 20.4209C39.9777 20.4191 39.9882 20.417 39.9985 20.4146L41.8926 20.0833L42.1552 20.077C42.3177 20.0729 42.3969 19.9895 42.3927 19.827C42.3886 19.6645 42.3052 19.5853 42.1427 19.5895L41.8739 19.5957L39.9548 19.4207C39.9381 19.4198 39.9214 19.4198 39.9048 19.4207L37.373 19.4519C37.3584 19.4535 37.3438 19.4556 37.3293 19.4582L34.4162 19.6895C34.41 19.6894 34.4037 19.6894 34.3975 19.6895L31.2406 20.0333C31.2344 20.0332 31.2281 20.0332 31.2219 20.0333L27.9962 20.4771C27.99 20.477 27.9837 20.477 27.9775 20.4771L24.8081 21.021C24.7998 21.0208 24.7915 21.0208 24.7831 21.021L21.7763 21.6648C21.7721 21.6669 21.7679 21.669 21.7638 21.6711L18.9695 22.3275C18.9632 22.3294 18.957 22.3315 18.9508 22.3337L16.4253 23.0276C16.419 23.0296 16.4127 23.0317 16.4065 23.0339L14.2124 23.7402C14.2103 23.7402 14.2082 23.7402 14.2061 23.7402L12.3308 24.3904C12.3266 24.3924 12.3224 24.3945 12.3183 24.3966L10.7555 24.9842C10.7513 24.9842 10.7471 24.9842 10.743 24.9842L9.48021 25.4906C9.47811 25.4926 9.47603 25.4947 9.47396 25.4968L8.50503 25.9032C8.50294 25.9032 8.50086 25.9032 8.49878 25.9032L7.79239 26.2095L7.29855 26.422C7.29647 26.422 7.29438 26.422 7.2923 26.422L6.97974 26.5658C6.95126 26.5778 6.92417 26.5924 6.89847 26.6095L6.74219 26.7096C6.65598 26.7708 6.59764 26.8521 6.56716 26.9534L6.54216 27.0159C6.51669 27.0897 6.51252 27.1647 6.52965 27.2409L6.5359 27.2659C6.57102 27.4183 6.66478 27.5121 6.81721 27.5472Z" fill="black"/>
<path d="M10.2993 12.5007C10.2993 12.7132 10.4056 12.8195 10.6181 12.8195C10.8307 12.8195 10.9369 12.7132 10.9369 12.5007C10.9369 12.2881 10.8307 12.1819 10.6181 12.1819C10.4056 12.1819 10.2993 12.2881 10.2993 12.5007ZM10.2556 12.5007C10.2556 12.5956 10.2891 12.6767 10.3563 12.7438C10.4234 12.8109 10.5044 12.8445 10.5994 12.8445C10.6943 12.8445 10.7754 12.8109 10.8425 12.7438C10.9096 12.6767 10.9432 12.5956 10.9432 12.5007C10.9432 12.4057 10.9096 12.3247 10.8425 12.2576C10.7754 12.1904 10.6943 12.1569 10.5994 12.1569C10.5044 12.1569 10.4234 12.1904 10.3563 12.2576C10.2891 12.3247 10.2556 12.4057 10.2556 12.5007ZM10.1868 12.5007C10.1868 12.6094 10.2252 12.7023 10.3021 12.7792C10.379 12.8561 10.4719 12.8945 10.5806 12.8945C10.6894 12.8945 10.7822 12.8561 10.8591 12.7792C10.936 12.7023 10.9744 12.6094 10.9744 12.5007C10.9744 12.3919 10.936 12.2991 10.8591 12.2222C10.7822 12.1453 10.6894 12.1069 10.5806 12.1069C10.4719 12.1069 10.379 12.1453 10.3021 12.2222C10.2252 12.2991 10.1868 12.3919 10.1868 12.5007ZM10.5431 12.982L11.312 13.1321C11.3203 13.1343 11.3286 13.1364 11.337 13.1383L12.2247 13.2633C12.2309 13.2634 12.2372 13.2634 12.2434 13.2633L13.5749 13.4134L15.3378 13.6572L17.5132 14.0385L19.9949 14.5761L22.7079 15.2762L25.5897 16.1014L28.559 17.0015L31.5409 17.9267L34.4477 18.8394L37.1482 19.7021C37.1523 19.7021 37.1565 19.7021 37.1607 19.7021L39.5674 20.4209C39.5777 20.4233 39.5882 20.4254 39.5986 20.4272L41.5303 20.871L41.9116 21.0211C42.0492 21.0536 42.1437 21.004 42.195 20.8722C42.2462 20.7403 42.2101 20.6399 42.0866 20.571L41.7115 20.4209L39.955 19.477C39.9388 19.4678 39.9221 19.4594 39.905 19.452L37.5733 18.5206C37.561 18.5139 37.5485 18.5077 37.5358 18.5018L34.8415 17.6204C34.8394 17.6183 34.8373 17.6162 34.8352 17.6142L31.9284 16.7015C31.9264 16.7015 31.9243 16.7015 31.9222 16.7015L28.9341 15.7763L25.9586 14.8636C25.9544 14.8636 25.9502 14.8636 25.946 14.8636L23.058 14.0322C23.0497 14.03 23.0414 14.0279 23.033 14.026L20.295 13.3321C20.2867 13.3298 20.2783 13.3278 20.27 13.3258L17.7632 12.8007C17.7549 12.7985 17.7466 12.7964 17.7382 12.7945L15.5441 12.4194C15.5357 12.4192 15.5274 12.4192 15.5191 12.4194L13.7312 12.1881C13.725 12.1859 13.7188 12.1839 13.7125 12.1819L12.3747 12.0506C12.3622 12.0502 12.3497 12.0502 12.3372 12.0506L11.4433 12.0131C11.4309 12.0106 11.4184 12.0085 11.4058 12.0068L10.6306 12.0256C10.5041 12.0227 10.3937 12.0634 10.2993 12.1476C10.2048 12.2318 10.1519 12.3369 10.1403 12.4629C10.1288 12.5889 10.1618 12.7019 10.2394 12.8019C10.317 12.9019 10.4182 12.9619 10.5431 12.982Z" fill="black"/>
<path d="M34.8352 10.6128L34.7414 10.4628C34.727 10.4401 34.7104 10.4193 34.6914 10.4003L34.4226 10.119C34.4108 10.1077 34.3983 10.0973 34.3851 10.0877L33.8913 9.70638C33.8737 9.69206 33.855 9.67956 33.835 9.66888L33.0223 9.2563C33.0061 9.24879 32.9895 9.24254 32.9723 9.23754L31.7408 8.83747C31.7224 8.83192 31.7036 8.82776 31.6846 8.82497L29.9718 8.53116C29.9531 8.52784 29.9344 8.52576 29.9155 8.52491L27.7463 8.41864C27.7317 8.41791 27.7172 8.41791 27.7026 8.41864L25.1083 8.52491C25.0978 8.52662 25.0874 8.5287 25.0771 8.53116L22.114 8.88748C22.1057 8.88725 22.0973 8.88725 22.089 8.88748L18.8571 9.46259C18.8488 9.46445 18.8404 9.46654 18.8321 9.46884L15.4565 10.2565C15.4438 10.2602 15.4313 10.2644 15.419 10.269L12.0496 11.3254C12.0369 11.3292 12.0244 11.3333 12.0121 11.3379L8.8865 12.5694C8.86744 12.5748 8.84868 12.581 8.83023 12.5882L6.14847 13.9447C6.12919 13.9542 6.11044 13.9646 6.09221 13.9759L3.86679 15.4262C3.8333 15.4484 3.80204 15.4734 3.77302 15.5012L2.14146 17.0578C2.09154 17.1056 2.04987 17.1598 2.01644 17.2203L1.09751 18.8769C1.05053 18.9585 1.02136 19.046 1.01 19.1394L0.828711 20.8835C0.819444 20.9815 0.829863 21.0774 0.859967 21.1711L1.41007 22.9777C1.43188 23.0468 1.46314 23.1114 1.50384 23.1714L2.75408 25.0468C2.77973 25.087 2.8089 25.1246 2.84159 25.1593L4.64194 26.9784C4.66943 27.0035 4.6986 27.0264 4.72945 27.0472L7.02364 28.7788C7.04373 28.7944 7.06457 28.809 7.08615 28.8225L9.84918 30.4853C9.86749 30.4966 9.88624 30.507 9.90544 30.5166L12.9873 32.0231C13.0077 32.0324 13.0286 32.0407 13.0498 32.0481L16.3254 33.3046C16.348 33.312 16.371 33.3182 16.3942 33.3234L19.7511 34.2673C19.7797 34.2774 19.8089 34.2857 19.8386 34.2923L23.2205 34.8237C23.2556 34.8303 23.291 34.8345 23.3267 34.8362L26.6836 34.8987C26.7192 34.8991 26.7546 34.897 26.7899 34.8924L30.0655 34.4924C30.1102 34.4856 30.1539 34.4752 30.1968 34.4611L33.2536 33.5484C33.3012 33.5338 33.347 33.5151 33.3912 33.4922L36.0792 32.1232C36.1304 32.0969 36.1783 32.0657 36.2229 32.0294L38.4296 30.2603C38.4835 30.2183 38.5314 30.1704 38.5734 30.1165L40.1987 27.9911C40.228 27.952 40.253 27.9103 40.2737 27.8661L41.3677 25.5469C41.3775 25.5245 41.3858 25.5016 41.3927 25.4781L42.1678 23.0902C42.1767 23.0595 42.183 23.0282 42.1866 22.9964L42.5429 20.5584C42.5498 20.5149 42.5518 20.4712 42.5492 20.4272L42.3804 18.0205C42.377 17.9561 42.3645 17.8936 42.3429 17.8329L41.5052 15.57C41.4821 15.5001 41.4488 15.4355 41.4052 15.3762L39.8486 13.3883C39.8089 13.3382 39.7631 13.2944 39.7111 13.2571L37.5044 11.638C37.4637 11.6077 37.42 11.5827 37.3732 11.563L34.6414 10.4628C34.6292 10.4559 34.6167 10.4496 34.6039 10.444L31.6096 9.59386C31.5993 9.59124 31.5888 9.58915 31.5783 9.58761L28.4965 9.05626C28.4944 9.05623 28.4923 9.05623 28.4902 9.05626L25.8897 8.70619C25.7439 8.68536 25.6605 8.74787 25.6397 8.89373C25.6188 9.03959 25.6814 9.12294 25.8272 9.14378L28.4215 9.49384L31.4408 10.1815L34.3163 11.2067L36.7793 12.6632L38.8109 14.301L40.2425 16.1576L41.0676 18.2268L41.3302 20.4709L41.0614 22.7901L40.3237 25.0593L39.0547 27.1284L37.3544 29.0163L35.254 30.6854L32.7035 31.9981L29.7842 32.9045L26.6461 33.3734L23.4018 33.3171L20.1199 32.8045L16.8318 31.8919L13.6186 30.6604L10.5993 29.1788L7.89881 27.5535L5.69214 25.8657L3.97306 24.1341L2.79784 22.4213L2.27899 20.871L2.38526 19.4145L3.16666 17.9705L4.66694 16.5077L6.76734 15.0512L9.36159 13.6821L12.4184 12.4006L15.7378 11.3067L19.0572 10.4315L22.2453 9.78765L25.1646 9.41258L27.7213 9.30006L29.8592 9.38757L31.5408 9.60011L32.7348 9.90642L33.4912 10.2752L33.9163 10.6253L34.1538 10.9004C34.1579 10.9046 34.162 10.9088 34.1663 10.9129L34.2851 11.0379C34.4303 11.1857 34.5849 11.1962 34.7488 11.0695C34.9128 10.9428 34.9416 10.7906 34.8352 10.6128Z" fill="black"/>
</g>
<defs>
<clipPath id="clip0_1_7399">
<rect width="43" height="35" fill="white"/>
</clipPath>
</defs>
</svg>
