<svg width="25" height="34" viewBox="0 0 25 34" fill="none" xmlns="http://www.w3.org/2000/svg">
<g clip-path="url(#clip0_1_7391)">
<path d="M6.26916 8.28686C6.26916 8.40678 6.31156 8.50914 6.39636 8.59394C6.48116 8.67873 6.58352 8.72113 6.70344 8.72113C6.82336 8.72113 6.92572 8.67873 7.01052 8.59394C7.09532 8.50914 7.13772 8.40678 7.13772 8.28686C7.13772 8.16694 7.09532 8.06458 7.01052 7.97978C6.92572 7.89498 6.82336 7.85258 6.70344 7.85258C6.58352 7.85258 6.48116 7.89498 6.39636 7.97978C6.31156 8.06458 6.26916 8.16694 6.26916 8.28686ZM6.24362 8.28686C6.24362 8.41207 6.28789 8.51895 6.37643 8.60748C6.46497 8.69602 6.57184 8.74029 6.69705 8.74029C6.82227 8.74029 6.92914 8.69602 7.01768 8.60748C7.10622 8.51895 7.15049 8.41207 7.15049 8.28686C7.15049 8.16165 7.10622 8.05477 7.01768 7.96623C6.92914 7.87769 6.82227 7.83342 6.69705 7.83342C6.57184 7.83342 6.46497 7.87769 6.37643 7.96623C6.28789 8.05477 6.24362 8.16165 6.24362 8.28686ZM6.11589 8.28686C6.11589 8.435 6.16827 8.56144 6.27302 8.66619C6.37777 8.77094 6.50421 8.82332 6.65235 8.82332C6.80049 8.82332 6.92693 8.77094 7.03168 8.66619C7.13643 8.56144 7.18881 8.435 7.18881 8.28686C7.18881 8.13872 7.13643 8.01227 7.03168 7.90752C6.92693 7.80278 6.80049 7.7504 6.65235 7.7504C6.50421 7.7504 6.37777 7.80278 6.27302 7.90752C6.16827 8.01227 6.11589 8.13872 6.11589 8.28686ZM7.21435 8.13358L7.18881 7.9867C7.17708 7.92266 7.15792 7.86092 7.13133 7.80149L7.02276 7.55242C7.00786 7.51729 6.99083 7.48323 6.97167 7.45024L6.78646 7.13092L6.56933 6.75412L6.35219 6.35178L6.17337 5.94305L6.03925 5.51516L5.96262 5.18945L5.95623 5.02341L5.99455 4.87013L6.1606 4.57636L6.47353 4.17402L6.83117 3.8036L7.20158 3.49706L7.55283 3.26076L7.86577 3.10749L8.10845 3.03085L8.24256 3.01808L8.34475 3.03085L8.47886 3.08194L8.696 3.22883L9.01532 3.51622L9.37934 3.88663L9.70505 4.2762L9.95412 4.63384L10.1202 4.99786L10.2479 5.48323L10.3181 6.14103L10.3373 6.93294L10.299 7.77595L10.1968 8.59341L10.0116 9.37255L9.71144 10.1453L9.31548 10.9308L8.84289 11.7164L8.29366 12.4827L7.70611 13.2235L7.12494 13.9197L6.55017 14.5647L5.98816 15.1586L5.43255 15.7015L4.8897 16.1741L4.34686 16.5828L3.79763 16.9213L3.30587 17.1767L2.9163 17.3108L2.64169 17.3747L2.48841 17.3875L2.43094 17.3811L2.36707 17.3683C2.51685 17.478 2.6829 17.5504 2.86521 17.5855L2.80135 17.5408C2.81939 17.936 2.98757 18.251 3.30587 18.4859V18.4412C2.97505 18.7044 2.81965 19.0472 2.83967 19.4694L2.89076 19.4311C2.80169 19.4724 2.71867 19.5235 2.64169 19.5844L2.71833 19.5461C2.59837 19.5633 2.48342 19.5973 2.37346 19.6483L2.48203 19.6355C2.32996 19.6003 2.17668 19.5939 2.02221 19.6163L2.16909 19.6483C2.19027 19.6531 2.21156 19.6573 2.23296 19.661L2.44371 19.6994C2.4522 19.7016 2.46072 19.7037 2.46926 19.7057L2.7311 19.7441L3.06319 19.7952C3.06958 19.7952 3.07596 19.7952 3.08235 19.7952L3.43999 19.8462L4.44904 20.0698C4.4787 20.075 4.5085 20.0793 4.53845 20.0825L5.25373 20.1911C5.28133 20.1941 5.30901 20.1962 5.33675 20.1975L6.21807 20.2741C6.22446 20.2742 6.23085 20.2742 6.23723 20.2741L7.2846 20.3444L8.45332 20.4466L9.69228 20.5615C9.70927 20.564 9.7263 20.5661 9.74337 20.5679L10.9887 20.6382C11.0057 20.6406 11.0227 20.6427 11.0398 20.6445L12.2596 20.6637C12.2745 20.664 12.2894 20.664 12.3043 20.6637L13.4539 20.6445C13.4603 20.6446 13.4666 20.6446 13.473 20.6445L14.5204 20.6126L15.4337 20.5871L16.1936 20.5743L16.7812 20.5807L17.2218 20.5998L17.5539 20.6509L17.8733 20.734L18.2117 20.8361C18.2181 20.8383 18.2245 20.8404 18.2309 20.8425L18.5183 20.9319C18.6226 20.962 18.7291 20.979 18.8376 20.983L19.0547 20.9958C19.2398 21.0036 19.4186 20.9738 19.5912 20.9064L19.7509 20.8425C20.2001 20.6659 20.4683 20.3402 20.5555 19.8654L20.5747 19.7696C20.6319 19.4624 20.577 19.1767 20.4099 18.9126C20.2428 18.6485 20.0083 18.4765 19.7062 18.3965L19.6167 18.371C19.4397 18.3248 19.2609 18.3163 19.0803 18.3454L18.9079 18.371C19.0338 18.3869 19.1594 18.3848 19.2847 18.3646L19.1889 18.3518L19.0356 18.3007L18.6907 18.1794C18.6612 18.1698 18.6314 18.1613 18.6013 18.1539L18.1798 18.0325C18.1293 18.0189 18.0782 18.0082 18.0265 18.0006L17.5603 17.9303C17.5117 17.9212 17.4628 17.9149 17.4134 17.9112L16.8834 17.8856C16.8685 17.8854 16.8536 17.8854 16.8387 17.8856L16.2064 17.8792C16.1915 17.879 16.1766 17.879 16.1617 17.8792L15.3826 17.892C15.3804 17.892 15.3783 17.892 15.3762 17.892L14.4501 17.9176C14.4459 17.9176 14.4416 17.9176 14.4374 17.9176L13.4028 17.9495L12.2852 17.9686L11.1101 17.9495L9.9158 17.8856L8.696 17.7771C8.69387 17.777 8.69174 17.777 8.68961 17.7771L7.50174 17.6749C7.4911 17.6747 7.48045 17.6747 7.46981 17.6749L6.42244 17.6046L5.57943 17.5408L4.89609 17.4577L3.82956 17.3236C3.80832 17.321 3.78704 17.3188 3.7657 17.3172L3.37612 17.2853L3.08235 17.247L2.86521 17.2214L2.68001 17.1831C2.61663 17.1718 2.55277 17.1654 2.48841 17.164L2.34153 17.1576C2.24259 17.1544 2.14466 17.1629 2.04775 17.1831L1.94557 17.2087C1.88251 17.2209 1.82078 17.2379 1.76036 17.2598L1.68373 17.2853C1.52201 17.3471 1.37938 17.4386 1.25584 17.5599L1.20475 17.6046C0.967981 17.8334 0.842382 18.1123 0.82795 18.4412V18.4859C0.804474 18.9516 0.985422 19.3156 1.37079 19.578L1.44104 19.6163C1.55689 19.6951 1.68249 19.7526 1.81784 19.7888L1.95834 19.8271C2.03797 19.8479 2.11887 19.8607 2.20103 19.8654L2.42455 19.8782C2.48218 19.88 2.53965 19.8779 2.59698 19.8718L2.92269 19.8462C2.97431 19.8409 3.0254 19.8324 3.07596 19.8207L3.51663 19.7313C3.57084 19.7199 3.62406 19.705 3.67629 19.6866L4.21913 19.495C4.26265 19.4803 4.30522 19.4633 4.34686 19.4439L4.96634 19.1437C5.00577 19.1245 5.04409 19.1032 5.08129 19.0799L5.71993 18.6775C5.75055 18.6596 5.78036 18.6405 5.80934 18.6201L6.42883 18.1475C6.46201 18.1235 6.49394 18.0979 6.52462 18.0708L7.11217 17.528C7.12295 17.5196 7.1336 17.5111 7.1441 17.5024L7.74442 16.9149C7.75748 16.9024 7.77025 16.8896 7.78274 16.8766L8.37029 16.2507C8.37675 16.2444 8.38313 16.238 8.38945 16.2315L8.98977 15.5546C8.99841 15.5462 9.00693 15.5377 9.01532 15.529L9.62203 14.8074C9.62852 14.7989 9.63491 14.7904 9.64119 14.7818L10.2607 14.0027C10.2739 13.986 10.2867 13.969 10.299 13.9516L10.8993 13.115C10.9174 13.088 10.9345 13.0603 10.9504 13.032L11.4677 12.1698C11.4835 12.1448 11.4984 12.1192 11.5124 12.0932L11.9595 11.2118C11.9761 11.1763 11.991 11.1402 12.0042 11.1033L12.3618 10.1964C12.3802 10.1442 12.3951 10.0909 12.4065 10.0367L12.6364 9.1107C12.6476 9.06436 12.6561 9.01753 12.662 8.9702L12.7769 8.0314C12.7803 7.99955 12.7824 7.96762 12.7833 7.93561L12.828 7.00319C12.8289 6.97552 12.8289 6.94784 12.828 6.92017L12.8088 6.03246C12.8081 5.99831 12.806 5.96425 12.8025 5.93028L12.7258 5.13198C12.718 5.06711 12.7053 5.00325 12.6875 4.94038L12.5087 4.25704C12.4895 4.18448 12.4639 4.11423 12.432 4.04629L12.1638 3.48428C12.1347 3.42185 12.1006 3.36224 12.0616 3.30546L11.7168 2.80733C11.6949 2.77428 11.6715 2.74234 11.6465 2.71153L11.2506 2.24532C11.2401 2.23449 11.2295 2.22384 11.2186 2.21339L10.8163 1.76634C10.784 1.73251 10.7499 1.70058 10.7141 1.67055L10.299 1.30013C10.2508 1.25789 10.1997 1.21958 10.1457 1.18518L9.73698 0.923336C9.67222 0.880823 9.6041 0.844633 9.53262 0.814768L9.13666 0.655108C9.04419 0.615904 8.9484 0.588229 8.84927 0.572084L8.45332 0.514607C8.34503 0.498229 8.23646 0.4961 8.12761 0.50822L7.71249 0.552925C7.62773 0.56148 7.54471 0.57851 7.46342 0.604016L7.00999 0.750904C6.94381 0.773233 6.87994 0.800907 6.8184 0.833927L6.35219 1.07661C6.31492 1.09607 6.27873 1.11735 6.24362 1.14047L5.77103 1.44702C5.72641 1.47623 5.68383 1.50816 5.6433 1.54282L5.1707 1.94516C5.13703 1.97535 5.1051 2.00729 5.07491 2.04096L4.62786 2.51355C4.58584 2.55962 4.54753 2.60858 4.5129 2.66044L4.13611 3.20328C4.09634 3.2641 4.06228 3.32797 4.03392 3.39487L3.79124 3.93133C3.74978 4.02129 3.71998 4.11496 3.70183 4.21233L3.61881 4.69131C3.59874 4.8014 3.59448 4.9121 3.60604 5.02341L3.65713 5.47046C3.6661 5.55997 3.68526 5.64725 3.7146 5.7323L3.88065 6.1985C3.89406 6.23113 3.90896 6.26307 3.92536 6.2943L4.15527 6.79244C4.16704 6.81849 4.17981 6.84403 4.19358 6.86908L4.4682 7.34806C4.49308 7.39042 4.52075 7.43086 4.55122 7.4694L4.86416 7.87813C4.87659 7.89124 4.88936 7.90401 4.90247 7.91645L5.19625 8.26131C5.22959 8.30035 5.26578 8.33654 5.30482 8.36988L5.59859 8.61895C5.6594 8.66786 5.72539 8.7083 5.79657 8.74029L6.03925 8.86163C6.1768 8.92807 6.32155 8.95362 6.47353 8.93827L6.61403 8.91911C6.80885 8.89964 6.9657 8.81213 7.08458 8.65657C7.20347 8.501 7.24672 8.32668 7.21435 8.13358ZM18.5694 19.4758C18.5694 19.7351 18.661 19.9564 18.8443 20.1397C19.0277 20.323 19.2489 20.4146 19.5082 20.4146C19.7674 20.4146 19.9887 20.323 20.172 20.1397C20.3553 19.9564 20.447 19.7351 20.447 19.4758C20.447 19.2166 20.3553 18.9953 20.172 18.812C19.9887 18.6287 19.7674 18.537 19.5082 18.537C19.2489 18.537 19.0277 18.6287 18.8443 18.812C18.661 18.9953 18.5694 19.2166 18.5694 19.4758ZM19.8083 19.6547L19.8658 19.6036C20.0029 19.4575 20.0056 19.309 19.874 19.1581C19.7424 19.0071 19.5949 18.9896 19.4315 19.1054L19.3741 19.1565C19.237 19.3026 19.2343 19.451 19.3659 19.602C19.4975 19.753 19.645 19.7705 19.8083 19.6547Z" fill="black"/>
<path d="M20.4597 5.01061C20.4597 5.12172 20.499 5.21655 20.5776 5.29511C20.6562 5.37367 20.751 5.41295 20.8621 5.41296C20.9732 5.41295 21.068 5.37367 21.1466 5.29511C21.2252 5.21655 21.2644 5.12172 21.2644 5.01061C21.2644 4.89951 21.2252 4.80467 21.1466 4.72611C21.068 4.64755 20.9732 4.60827 20.8621 4.60827C20.751 4.60827 20.6562 4.64755 20.5776 4.72611C20.499 4.80467 20.4597 4.89951 20.4597 5.01061ZM20.8174 5.42573L20.8238 5.43211C20.9036 5.44286 20.9812 5.43403 21.0566 5.40561C21.132 5.37719 21.1961 5.3326 21.249 5.27182C21.3019 5.21104 21.3372 5.14136 21.3549 5.06276C21.3726 4.98417 21.3707 4.90608 21.349 4.82849C21.3273 4.7509 21.2885 4.6831 21.2326 4.62508C21.1767 4.56706 21.1104 4.52578 21.0337 4.50122C20.9569 4.47667 20.879 4.47179 20.7998 4.48657C20.7206 4.50136 20.6496 4.53404 20.5869 4.58463C20.5242 4.63522 20.4773 4.69765 20.4461 4.77193C20.4149 4.84621 20.4032 4.92344 20.4109 5.00363C20.4187 5.08382 20.445 5.15736 20.4899 5.22426C20.5348 5.29117 20.5929 5.34342 20.6641 5.38102L20.6705 5.38741C20.7172 5.40887 20.7662 5.42165 20.8174 5.42573ZM20.3001 4.88927C20.3001 5.05328 20.3581 5.19327 20.474 5.30925C20.59 5.42522 20.73 5.48321 20.894 5.48321C21.058 5.48321 21.198 5.42522 21.314 5.30925C21.43 5.19327 21.488 5.05328 21.488 4.88927C21.488 4.72526 21.43 4.58527 21.314 4.46929C21.198 4.35332 21.058 4.29533 20.894 4.29533C20.73 4.29533 20.59 4.35332 20.474 4.46929C20.3581 4.58527 20.3001 4.72526 20.3001 4.88927ZM20.1851 4.82541C20.1851 5.02469 20.2556 5.19479 20.3965 5.3357C20.5374 5.47661 20.7075 5.54707 20.9068 5.54707C21.1061 5.54707 21.2762 5.47661 21.4171 5.3357C21.558 5.19479 21.6285 5.02469 21.6285 4.82541C21.6285 4.62612 21.558 4.45603 21.4171 4.31511C21.2762 4.1742 21.1061 4.10374 20.9068 4.10374C20.7075 4.10374 20.5374 4.1742 20.3965 4.31511C20.2556 4.45603 20.1851 4.62612 20.1851 4.82541ZM21.2261 4.07181L21.207 4.06542C21.077 4.00536 20.9408 3.98194 20.7982 3.99517L20.7663 4.00156C20.5474 4.02102 20.365 4.11289 20.2191 4.27717C20.0732 4.44146 20.0034 4.63342 20.0099 4.85307C20.0164 5.07271 20.0974 5.26022 20.2527 5.4156C20.4081 5.57097 20.5956 5.65191 20.8153 5.6584C21.0349 5.66489 21.2269 5.59518 21.3912 5.44925C21.5555 5.30332 21.6473 5.12092 21.6668 4.90204L21.6732 4.87011C21.581 4.99114 21.5278 5.12738 21.5135 5.27884L21.5263 5.25968C21.5981 5.16465 21.6458 5.05878 21.6694 4.94205C21.693 4.82532 21.6902 4.70923 21.6611 4.59376C21.6319 4.4783 21.5792 4.37482 21.5029 4.28333C21.4267 4.19184 21.3344 4.12133 21.2261 4.07181ZM19.9872 4.48693L19.8914 4.67852C19.854 4.75167 19.8264 4.8283 19.8083 4.90843L19.7125 5.34909C19.7073 5.37448 19.7031 5.40002 19.6998 5.42573L19.5848 6.18571C19.5846 6.19848 19.5846 6.21126 19.5848 6.22403L19.4635 7.3161C19.4634 7.32249 19.4634 7.32888 19.4635 7.33526L19.3294 8.78498C19.3293 8.79349 19.3293 8.80201 19.3294 8.81052L19.2016 10.6051C19.2015 10.6157 19.2015 10.6264 19.2016 10.637L19.1186 12.7062C19.1164 12.7126 19.1143 12.719 19.1122 12.7254L19.0547 14.8968L18.9973 17.0234C18.9973 17.0277 18.9973 17.032 18.9973 17.0362L18.9717 19.0415L18.9398 20.9128L18.9015 22.7009L18.8568 24.3997C18.8546 24.404 18.8525 24.4082 18.8504 24.4125L18.8248 25.9516C18.8247 25.9623 18.8247 25.9729 18.8248 25.9836L18.8376 27.3119L18.8504 28.4296V29.3492L18.8312 30.1156L18.8184 30.7287L18.7865 31.1949C18.7865 31.197 18.7865 31.1991 18.7865 31.2013L18.7674 31.4631L18.7482 31.5908C18.7805 31.5081 18.804 31.423 18.8184 31.3354L18.7865 31.412C18.9357 31.5703 19.1139 31.6826 19.321 31.749C19.5282 31.8153 19.7384 31.8274 19.9518 31.7853C20.1652 31.7431 20.3551 31.6519 20.5214 31.5118C20.6878 31.3717 20.8099 31.2 20.8876 30.9969L20.8493 30.965C20.9045 31.1743 21.0067 31.3573 21.1559 31.5142L21.1367 31.4375L21.1175 31.2332L21.092 30.767L21.0856 30.0964L21.0792 29.2215L21.0728 28.1294L21.092 26.8393L21.1239 25.3769L21.1559 23.8441C21.1559 23.8399 21.1559 23.8356 21.1559 23.8313L21.1942 20.6509L21.2325 18.9841C21.2325 18.9819 21.2325 18.9798 21.2325 18.9777L21.2708 17.2789L21.3091 15.6184C21.3092 15.6099 21.3092 15.6014 21.3091 15.5929V14.0665C21.3092 14.0601 21.3092 14.0538 21.3091 14.0474L21.29 12.6232L21.2708 11.2693L21.2964 9.97285L21.3475 8.75304L21.3986 7.63542L21.4752 6.60721L21.5454 5.70034L21.6029 5.00423C21.6055 4.98512 21.6076 4.96596 21.6093 4.94675L21.6285 4.47415C21.6321 4.37307 21.6236 4.27301 21.6029 4.17399L21.5582 3.9377C21.4963 3.6336 21.3413 3.38836 21.0931 3.20197C20.845 3.01558 20.5663 2.935 20.257 2.96023C19.9477 2.98547 19.6857 3.11015 19.4711 3.33429C19.2564 3.55844 19.1432 3.82556 19.1314 4.13567L19.125 4.37197L19.1058 4.81902L19.0547 5.50237L18.9845 6.41562C18.9845 6.41775 18.9845 6.41988 18.9845 6.42201L18.9079 7.46938C18.9078 7.47789 18.9078 7.48641 18.9079 7.49492L18.844 8.63809C18.8439 8.64448 18.8439 8.65086 18.844 8.65725L18.8057 9.88982C18.8056 9.89834 18.8056 9.90685 18.8057 9.91537L18.7801 11.2437C18.7799 11.2565 18.7799 11.2693 18.7801 11.2821L18.7993 12.6551L18.8184 14.0729V15.5801L18.7929 17.2278L18.7546 18.9266L18.7163 20.5998L18.6524 23.793L18.6205 25.3258L18.5885 26.7882C18.5885 26.7904 18.5885 26.7925 18.5885 26.7946L18.5694 28.1038C18.5694 28.1081 18.5694 28.1124 18.5694 28.1166L18.563 29.2215C18.563 29.2257 18.563 29.23 18.563 29.2342L18.5694 30.1156C18.5693 30.1219 18.5693 30.1283 18.5694 30.1347L18.5885 30.8308C18.5883 30.8436 18.5883 30.8564 18.5885 30.8692L18.6141 31.3928C18.6139 31.4056 18.6139 31.4184 18.6141 31.4312L18.6396 31.7696C18.6452 31.8191 18.6537 31.8681 18.6652 31.9165L18.6971 32.0826C18.7338 32.2622 18.8062 32.4262 18.9142 32.5743L18.9398 32.619C19.2267 33.0159 19.6136 33.1879 20.1005 33.1353C20.5874 33.0826 20.9285 32.8318 21.1239 32.3827L21.1623 32.3061C21.2165 32.1838 21.2506 32.056 21.2644 31.9229L21.2836 31.7313C21.2862 31.7122 21.2883 31.6931 21.29 31.6738L21.3028 31.3545L21.3347 30.8692C21.3349 30.8564 21.3349 30.8436 21.3347 30.8308L21.3602 30.1858C21.3605 30.1709 21.3605 30.156 21.3602 30.1411L21.3538 29.3556C21.3539 29.3471 21.3539 29.3386 21.3538 29.33L21.3283 28.3912L21.3028 27.2736L21.29 25.9772L21.3155 24.4572L21.3538 22.7648C21.3538 22.7627 21.3538 22.7606 21.3538 22.7584L21.3922 20.9638C21.3922 20.9596 21.3922 20.9553 21.3922 20.9511L21.4113 19.0735C21.4113 19.0713 21.4113 19.0692 21.4113 19.0671L21.4241 17.0681L21.4433 14.9479L21.488 12.7893L21.5518 10.7264C21.5518 10.7243 21.5518 10.7222 21.5518 10.7201L21.6093 8.92548L21.654 7.47576C21.654 7.47363 21.654 7.47151 21.654 7.46938L21.6859 6.38369L21.7306 5.63009C21.7308 5.62158 21.7308 5.61306 21.7306 5.60455L21.7434 5.15111C21.745 5.11918 21.745 5.08725 21.7434 5.05532L21.7306 4.84457C21.7196 4.63558 21.6459 4.45178 21.5093 4.29315C21.3728 4.13453 21.2021 4.03419 20.9971 3.99214C20.7921 3.95009 20.5956 3.9751 20.4077 4.06717C20.2197 4.15924 20.0796 4.29916 19.9872 4.48693ZM19.2527 4.14206C19.2527 4.43834 19.3575 4.69123 19.567 4.90073C19.7765 5.11023 20.0294 5.21498 20.3256 5.21498C20.6219 5.21498 20.8748 5.11023 21.0843 4.90073C21.2938 4.69123 21.3985 4.43834 21.3986 4.14206C21.3985 3.84578 21.2938 3.59289 21.0843 3.38339C20.8748 3.1739 20.6219 3.06915 20.3256 3.06915C20.0294 3.06915 19.7765 3.1739 19.567 3.38339C19.3575 3.59289 19.2527 3.84578 19.2527 4.14206ZM19.5465 4.2187C19.5465 4.42327 19.6188 4.59788 19.7635 4.74254C19.9081 4.88719 20.0827 4.95952 20.2873 4.95952C20.4919 4.95952 20.6665 4.88719 20.8112 4.74254C20.9558 4.59788 21.0281 4.42327 21.0281 4.2187C21.0281 4.01413 20.9558 3.83951 20.8112 3.69486C20.6665 3.5502 20.4919 3.47788 20.2873 3.47788C20.0827 3.47788 19.9081 3.5502 19.7635 3.69486C19.6188 3.83951 19.5465 4.01413 19.5465 4.2187ZM19.968 4.28895L19.9425 4.42306C19.919 4.60437 19.9969 4.71295 20.1762 4.7488C20.3555 4.78466 20.4691 4.71439 20.5172 4.53802L20.5428 4.4039C20.5662 4.2226 20.4883 4.11402 20.309 4.07816C20.1298 4.04231 20.0161 4.11257 19.968 4.28895Z" fill="black"/>
<path d="M1.84979 18.5306C1.84979 18.6435 1.8897 18.7398 1.96951 18.8196C2.04931 18.8995 2.14565 18.9394 2.25852 18.9394C2.37139 18.9394 2.46773 18.8995 2.54754 18.8196C2.62735 18.7398 2.66725 18.6435 2.66725 18.5306C2.66725 18.4178 2.62735 18.3214 2.54754 18.2416C2.46773 18.1618 2.37139 18.1219 2.25852 18.1219C2.14565 18.1219 2.04931 18.1618 1.96951 18.2416C1.8897 18.3214 1.84979 18.4178 1.84979 18.5306ZM2.41818 18.1411L2.39902 18.1347C2.35829 18.1158 2.31572 18.103 2.27129 18.0964L2.21382 18.09C2.06419 18.0718 1.93104 18.1104 1.81437 18.2059C1.6977 18.3013 1.63342 18.4241 1.62154 18.5744C1.60965 18.7246 1.65382 18.8561 1.75404 18.9686C1.85427 19.0812 1.97969 19.1403 2.13031 19.1459C2.28093 19.1515 2.41039 19.1018 2.51867 18.997C2.62696 18.8922 2.68074 18.7644 2.68002 18.6137V18.5562C2.67955 18.5216 2.67529 18.4876 2.66725 18.454L2.66086 18.4348C2.62959 18.2959 2.5487 18.198 2.41818 18.1411ZM1.44106 18.6775C1.44106 18.8592 1.50528 19.0142 1.63373 19.1427C1.76217 19.2711 1.91721 19.3353 2.09886 19.3353C2.28051 19.3353 2.43555 19.2711 2.56399 19.1427C2.69244 19.0142 2.75666 18.8592 2.75666 18.6775C2.75666 18.4959 2.69244 18.3408 2.56399 18.2124C2.43555 18.0839 2.28051 18.0197 2.09886 18.0197C1.91721 18.0197 1.76217 18.0839 1.63373 18.2124C1.50528 18.3408 1.44106 18.4959 1.44106 18.6775ZM1.31972 18.7158C1.31979 18.9292 1.39527 19.1113 1.54615 19.2621C1.69703 19.4129 1.87914 19.4883 2.09247 19.4883C2.30581 19.4883 2.48792 19.4129 2.6388 19.2621C2.78968 19.1113 2.86516 18.9292 2.86523 18.7158C2.86516 18.5025 2.78968 18.3204 2.6388 18.1696C2.48792 18.0188 2.30581 17.9434 2.09247 17.9434C1.87914 17.9434 1.69703 18.0188 1.54615 18.1696C1.39527 18.3204 1.31979 18.5025 1.31972 18.7158ZM1.53047 19.3609L1.65181 19.4758C1.73334 19.5606 1.827 19.6288 1.93281 19.6802L2.23298 19.8207C2.30669 19.855 2.38333 19.8805 2.46289 19.8973L2.96102 20.0059C3.00112 20.0145 3.04156 20.0209 3.08237 20.0251L3.70823 20.0825C3.73158 20.0854 3.755 20.0875 3.77848 20.0889L4.50015 20.1208C4.51292 20.1211 4.52569 20.1211 4.53847 20.1208H5.31122L6.12868 20.1272C6.13933 20.1274 6.14997 20.1274 6.16061 20.1272L7.01639 20.1081L7.92965 20.0889L8.82374 20.0698L9.67952 20.0634H10.4842C10.4885 20.0634 10.4927 20.0634 10.497 20.0634L11.2506 20.057C11.2698 20.0553 11.2889 20.0532 11.3081 20.0506L12.0297 20.0123C12.0532 20.0108 12.0766 20.0087 12.1 20.0059L12.8216 19.9229C12.8323 19.9209 12.8429 19.9188 12.8536 19.9165L13.5752 19.8143L14.2458 19.7377L14.8908 19.693L16.0723 19.6163L16.5449 19.6099L16.9792 19.6355L17.4901 19.7185C17.4986 19.7186 17.5071 19.7186 17.5156 19.7185L18.0968 19.8015C18.1413 19.8082 18.186 19.8125 18.2309 19.8143L18.8185 19.8271C18.8589 19.8291 18.8994 19.8291 18.9398 19.8271L19.521 19.7824C19.566 19.7784 19.6107 19.772 19.6551 19.7632L20.1788 19.6674C20.2153 19.6605 20.2515 19.652 20.2873 19.6419L20.7344 19.5205C20.7733 19.5096 20.8116 19.4968 20.8493 19.4822L21.1942 19.3481C21.2114 19.3421 21.2284 19.3357 21.2453 19.3289L21.5071 19.214L21.6796 19.1437L21.769 19.1182L21.8648 19.0926L21.9542 19.0735L22.0244 19.0671L22.1011 19.0543C22.1075 19.0544 22.1138 19.0544 22.1202 19.0543L22.1522 19.0479H22.1713C22.1798 19.048 22.1884 19.048 22.1969 19.0479H22.2543H22.3054C22.3161 19.0459 22.3268 19.0438 22.3374 19.0415H22.3501H22.3438L22.4843 19.0543C22.4991 19.0567 22.514 19.0589 22.529 19.0607L22.612 19.0671C22.6439 19.0683 22.6759 19.0683 22.7078 19.0671H22.7844C22.6981 19.0492 22.6108 19.0406 22.5226 19.0415L22.5928 19.0543C22.6266 19.0621 22.6607 19.0685 22.695 19.0735L22.7461 19.0799L22.7908 19.0862C22.685 19.0362 22.5743 19.0021 22.4587 18.9841L22.5098 19.0032C22.6533 18.7008 22.669 18.3918 22.5568 18.0764C22.4446 17.761 22.2373 17.5314 21.935 17.3875L21.9095 17.4449C22.0552 17.3283 22.168 17.1857 22.248 17.0171L22.1202 17.1192L21.8903 17.2853C21.8751 17.2977 21.8602 17.3105 21.8456 17.3236L21.571 17.5344C21.558 17.5468 21.5452 17.5596 21.5327 17.5727L21.2964 17.777C21.279 17.7915 21.2619 17.8064 21.2453 17.8217L21.0601 18.0069C21.0537 18.0111 21.0473 18.0154 21.0409 18.0197L20.9771 18.09L20.9004 18.1474C21.0297 18.1051 21.1489 18.0434 21.2581 17.9622L21.0537 18.0261L20.7982 18.0964L20.5045 18.1794L20.2554 18.2432L20.0638 18.2816L19.8914 18.3071L19.7126 18.3263L19.4443 18.339C19.4294 18.3388 19.4145 18.3388 19.3996 18.339L19.0037 18.371C18.993 18.3708 18.9824 18.3708 18.9717 18.371L18.5055 18.4157L17.9755 18.454L17.4262 18.4859L16.9792 18.5051L16.6279 18.4987L16.3022 18.4668C16.1049 18.4492 15.9133 18.4748 15.7274 18.5434L15.5103 18.6264C15.3466 18.6874 15.2045 18.7811 15.0841 18.9076C14.9636 19.034 14.8768 19.1805 14.8238 19.3469C14.7709 19.5133 14.757 19.683 14.7822 19.8558C14.8074 20.0286 14.8691 20.1872 14.9675 20.3316L15.0952 20.5232C15.3083 20.837 15.6021 21.0243 15.9765 21.0852L16.3342 21.1427C16.3933 21.1531 16.4529 21.1595 16.513 21.1618L16.9536 21.1682C16.9792 21.169 17.0047 21.169 17.0303 21.1682L17.5476 21.1554C17.5625 21.1536 17.5774 21.1514 17.5923 21.1491L18.1543 21.1107C18.1671 21.1109 18.1798 21.1109 18.1926 21.1107L18.7354 21.0596L19.2144 21.0149L19.5848 20.983L19.8594 20.9702C19.8872 20.969 19.9149 20.9669 19.9425 20.9639L20.1915 20.9383C20.2193 20.9349 20.247 20.9307 20.2746 20.9255L20.5172 20.8872C20.543 20.8816 20.5685 20.8752 20.5939 20.8681L20.8557 20.8106C20.8707 20.8066 20.8856 20.8023 20.9004 20.7978L21.1878 20.7212C21.2093 20.7153 21.2306 20.7089 21.2517 20.702L21.5455 20.6062C21.6001 20.5884 21.6533 20.5671 21.7051 20.5423L21.967 20.4146C22.0084 20.3976 22.0489 20.3784 22.0883 20.3571L22.2927 20.2294C22.3513 20.1935 22.4067 20.1531 22.4587 20.1081L22.6056 19.9803C22.6415 19.9503 22.6755 19.9184 22.7078 19.8846L22.8164 19.7696L22.9632 19.6227L23.1612 19.4439L23.4039 19.2459C23.4125 19.2396 23.421 19.2332 23.4294 19.2268L23.6594 19.0288C23.6905 19.0026 23.7203 18.9749 23.7488 18.9457L23.8765 18.8116C23.984 18.6998 24.067 18.5721 24.1256 18.4285L24.1511 18.371C24.269 18.0813 24.2741 17.7896 24.1664 17.496C24.0587 17.2023 23.8663 16.9831 23.5891 16.8382L23.538 16.8127C23.5007 16.7915 23.4624 16.7723 23.4231 16.7552L23.3528 16.7297C23.2945 16.7081 23.2349 16.691 23.174 16.6786L23.0974 16.6594C23.0741 16.6545 23.0506 16.6502 23.0271 16.6466L22.9569 16.6339C22.8998 16.6234 22.8424 16.617 22.7844 16.6147H22.7525L22.6375 16.5956C22.6248 16.5932 22.612 16.5911 22.5992 16.5892L22.5354 16.5828C22.495 16.5787 22.4546 16.5765 22.414 16.5764H22.3374C22.3268 16.5741 22.3161 16.572 22.3054 16.57H22.2288C22.1882 16.5701 22.1478 16.5723 22.1075 16.5764L22.0947 16.5828H22.0819C22.0179 16.58 21.954 16.5821 21.8903 16.5892L21.7945 16.6019L21.6923 16.6147C21.6731 16.6164 21.654 16.6185 21.6349 16.6211L21.5199 16.6466C21.5178 16.6466 21.5157 16.6466 21.5135 16.6466L21.3794 16.6722C21.3602 16.6739 21.341 16.676 21.3219 16.6786L21.1559 16.7169C21.1192 16.7259 21.083 16.7365 21.0473 16.7488L20.8557 16.8127C20.8298 16.8225 20.8043 16.8331 20.7791 16.8446L20.562 16.934L20.3193 17.0298L20.0255 17.132L19.6679 17.2406L19.2719 17.3108L18.8121 17.3491L18.3523 17.3428L17.8477 17.2789L17.2921 17.1959C17.2624 17.1927 17.2326 17.1905 17.2027 17.1895L16.6599 17.1512C16.6237 17.1496 16.5875 17.1496 16.5513 17.1512L15.9957 17.1576C15.9786 17.1593 15.9616 17.1615 15.9446 17.1639L14.7312 17.2406L14.0542 17.2853C14.0329 17.2869 14.0116 17.289 13.9903 17.2917L13.2751 17.3747C13.2666 17.3746 13.258 17.3746 13.2495 17.3747L12.5279 17.4769L11.8509 17.5535L11.1931 17.5918L10.4778 17.5982L9.67313 17.6046C9.66462 17.6045 9.6561 17.6045 9.64759 17.6046L8.77904 17.6174C8.77265 17.6173 8.76627 17.6173 8.75988 17.6174L7.8594 17.6493L6.94614 17.6812L6.09036 17.7132L5.27929 17.7451C5.27077 17.745 5.26226 17.745 5.25374 17.7451L4.48738 17.7834L3.80403 17.8154H3.21648L2.73111 17.7898C2.7077 17.789 2.68428 17.789 2.66086 17.7898L2.32877 17.7962C2.22572 17.7997 2.12567 17.8189 2.02861 17.8537L1.86895 17.9112C1.72644 17.9609 1.60473 18.0418 1.50383 18.1541C1.40292 18.2663 1.33531 18.3959 1.30099 18.5429C1.26667 18.6899 1.2699 18.836 1.31067 18.9814C1.35144 19.1267 1.42471 19.2532 1.53047 19.3609ZM15.9893 19.2459L15.8552 19.131C15.7626 19.0633 15.6593 19.0359 15.5454 19.0488C15.4314 19.0618 15.3369 19.1116 15.2619 19.1983C15.1868 19.2851 15.1511 19.3857 15.1547 19.5003C15.1582 19.615 15.2001 19.7132 15.2804 19.7951L15.4145 19.9101C15.5071 19.9778 15.6104 20.0052 15.7243 19.9922C15.8383 19.9793 15.9328 19.9294 16.0078 19.8427C16.0828 19.756 16.1186 19.6553 16.115 19.5407C16.1115 19.4261 16.0696 19.3278 15.9893 19.2459Z" fill="black"/>
</g>
<defs>
<clipPath id="clip0_1_7391">
<rect width="25" height="34" fill="white"/>
</clipPath>
</defs>
</svg>
