<svg width="34" height="34" viewBox="0 0 34 34" fill="none" xmlns="http://www.w3.org/2000/svg">
<path d="M26.3143 23.936H26.2988C26.3456 23.9401 26.3921 23.9376 26.4382 23.9283L26.3685 23.9205C26.2941 23.9162 26.2219 23.9265 26.1517 23.9515L25.9504 24.0212C25.9185 24.0317 25.8875 24.0446 25.8575 24.0599L25.5479 24.2225C25.4525 24.2705 25.3699 24.335 25.3001 24.416L24.975 24.8031C24.9431 24.842 24.9147 24.8833 24.8898 24.927L24.5724 25.4689C24.5338 25.5325 24.5029 25.5996 24.4795 25.6702L24.2473 26.4056C24.2226 26.4839 24.2071 26.5638 24.2008 26.6456L24.1311 27.5359C24.1226 27.6266 24.1252 27.7169 24.1389 27.8069L24.2937 28.7127C24.3128 28.8181 24.3464 28.9188 24.3943 29.0146L24.7892 29.843C24.836 29.9392 24.8953 30.0269 24.9672 30.1062L25.5479 30.7565C25.6401 30.8623 25.7485 30.9474 25.873 31.012L26.6085 31.3836C26.8773 31.5185 27.1509 31.5288 27.4291 31.4146L28.002 31.19C28.0261 31.1787 28.0494 31.1658 28.0717 31.1513L28.5904 30.8649L29.0936 30.6791C29.179 30.647 29.2406 30.5894 29.2784 30.5063C29.3161 30.4231 29.319 30.3389 29.2869 30.2534C29.2549 30.1679 29.1973 30.1063 29.1142 30.0685C29.0311 30.0307 28.9468 30.0278 28.8613 30.0598L28.4356 30.2223L28.0872 30.1294L27.7698 29.7965C27.7572 29.7833 27.7443 29.7704 27.7311 29.7578L27.1814 29.2546L26.7556 28.7437L26.4769 28.1708L26.3453 27.505L26.3298 26.7618L26.384 26.1269L26.5079 25.6469L26.6704 25.2289C26.6826 25.1985 26.693 25.1676 26.7014 25.136L26.7788 24.8341L26.8407 24.6715C26.8466 24.6562 26.8518 24.6407 26.8562 24.625L26.8795 24.5476C26.8822 24.5399 26.8848 24.5322 26.8872 24.5244V24.5089C26.9051 24.4288 26.9025 24.3493 26.8796 24.2704C26.8567 24.1916 26.8162 24.1232 26.7581 24.0651C26.7 24.0071 26.6316 23.9666 26.5528 23.9436C26.4739 23.9207 26.3944 23.9182 26.3143 23.936Z" fill="black"/>
<path d="M26.3608 25.6934C26.3608 25.8237 26.407 25.935 26.4992 26.0271C26.5914 26.1192 26.7027 26.1653 26.833 26.1653C26.9633 26.1653 27.0746 26.1192 27.1668 26.0271C27.259 25.935 27.3052 25.8237 27.3053 25.6934C27.3052 25.563 27.259 25.4518 27.1668 25.3597C27.0746 25.2675 26.9633 25.2215 26.833 25.2215C26.7027 25.2215 26.5914 25.2675 26.4992 25.3597C26.407 25.4518 26.3608 25.563 26.3608 25.6934ZM26.2988 25.6934C26.2988 25.8323 26.348 25.951 26.4462 26.0492C26.5445 26.1475 26.6631 26.1966 26.802 26.1966C26.941 26.1966 27.0596 26.1475 27.1579 26.0492C27.2561 25.951 27.3053 25.8323 27.3053 25.6934C27.3053 25.5544 27.2561 25.4358 27.1579 25.3376C27.0596 25.2393 26.941 25.1902 26.802 25.1902C26.6631 25.1902 26.5445 25.2393 26.4462 25.3376C26.348 25.4358 26.2988 25.5544 26.2988 25.6934ZM26.7633 25.0508L26.5698 25.0276C26.3747 25.0059 26.1941 25.0472 26.0279 25.1515L25.6563 25.3837C25.5671 25.4403 25.4896 25.51 25.424 25.5927L25.0059 26.096C24.9741 26.1376 24.9457 26.1815 24.9208 26.2276L24.5105 26.9243C24.4721 26.9907 24.4411 27.0604 24.4176 27.1334L24.1389 27.9927C24.108 28.0884 24.0899 28.1865 24.0847 28.2869L24.0305 29.1849C24.025 29.2974 24.0353 29.4083 24.0615 29.5178L24.255 30.3849C24.2825 30.511 24.329 30.6297 24.3943 30.741L24.8589 31.5229C24.9275 31.6375 25.0127 31.7382 25.1143 31.8249L25.8111 32.4287C25.9046 32.5087 26.0079 32.5732 26.1208 32.6223L26.9646 32.9939C27.0566 33.0339 27.1521 33.0623 27.2511 33.079L28.1336 33.2261C28.2336 33.2437 28.3343 33.2489 28.4356 33.2416L29.2639 33.1797C29.3897 33.1704 29.511 33.142 29.6278 33.0945L30.34 32.8003C30.4736 32.7456 30.5923 32.6682 30.6961 32.5681L31.1761 32.0958C31.329 31.947 31.4218 31.7672 31.4548 31.5565C31.4878 31.3457 31.4543 31.1462 31.3542 30.9578L31.3465 30.9346L31.5323 30.6326C31.5814 30.5535 31.5953 30.4687 31.5741 30.378C31.553 30.2873 31.5028 30.2174 31.4238 30.1683C31.3447 30.1191 31.2598 30.1051 31.1692 30.1263C31.0785 30.1474 31.0086 30.1975 30.9594 30.2765L30.6729 30.741C30.8481 30.8205 30.9874 30.7792 31.091 30.6171L30.8897 30.5242C30.6826 30.4371 30.471 30.4241 30.2549 30.4855L29.6433 30.6559L29.0394 30.7797L28.4433 30.7875L27.824 30.6791L27.2743 30.4313L26.8485 30.083L26.5543 29.6185L26.3995 29.0688L26.384 28.434L26.5001 27.745L26.7091 27.1334L26.9646 26.6611L27.1814 26.3282C27.2089 26.2839 27.2321 26.2375 27.2511 26.1889L27.3285 26.0108C27.3705 25.9097 27.3878 25.8045 27.3803 25.6952C27.3727 25.5859 27.3412 25.4841 27.2856 25.3897C27.23 25.2953 27.1563 25.2183 27.0644 25.1587C26.9725 25.0991 26.8722 25.0631 26.7633 25.0508Z" fill="black"/>
<path d="M3.28017 21.4663L3.31888 21.567L3.46597 21.9773C3.46853 21.9799 3.47111 21.9825 3.47372 21.985L3.79113 22.8676C3.79363 22.8728 3.79621 22.8779 3.79887 22.8831L4.34079 24.2301C4.35171 24.2569 4.36462 24.2827 4.3795 24.3075L5.30077 25.8869L5.96656 27.4817C6.0647 27.6277 6.19451 27.6658 6.356 27.596C6.51749 27.5261 6.57864 27.4054 6.53946 27.2339L5.88141 25.6469L5.4169 23.874C5.41264 23.8557 5.40748 23.8376 5.40142 23.8198L4.89046 22.465C4.88576 22.4519 4.8806 22.439 4.87498 22.4263L4.48015 21.5747C4.46718 21.5449 4.45169 21.5166 4.43369 21.4895L4.17822 21.1102C4.17566 21.1076 4.17308 21.105 4.17047 21.1024L4.09306 21.0018C3.92588 20.7826 3.7226 20.7413 3.48322 20.8781C3.24384 21.0149 3.17615 21.211 3.28017 21.4663Z" fill="black"/>
<path d="M13.3754 18.8186L13.3444 18.9192C13.3191 19.0147 13.3191 19.1102 13.3444 19.2057L13.4373 19.5695C13.458 19.6478 13.4916 19.72 13.538 19.7863L13.9251 20.3437C13.978 20.425 14.0451 20.4921 14.1264 20.545L14.8773 21.0018L15.4734 21.714C15.6249 21.8542 15.7791 21.8573 15.9362 21.7234C16.0932 21.5895 16.1144 21.4367 15.9999 21.265L15.4192 20.5682L15.1405 19.7398C15.1197 19.6705 15.0888 19.6059 15.0476 19.5463L14.6451 18.9966C14.6111 18.9532 14.5723 18.9145 14.5289 18.8805L14.2502 18.6405C14.2104 18.6059 14.1665 18.5775 14.1186 18.5554L14.018 18.5089C13.886 18.449 13.7548 18.4505 13.6242 18.5134C13.4937 18.5763 13.4108 18.678 13.3754 18.8186Z" fill="black"/>
<path d="M18.5624 24.0675C18.5624 24.1766 18.6009 24.2696 18.678 24.3467C18.7551 24.4238 18.8482 24.4624 18.9572 24.4624C19.0662 24.4624 19.1593 24.4238 19.2364 24.3467C19.3135 24.2696 19.352 24.1766 19.352 24.0675C19.352 23.9585 19.3135 23.8655 19.2364 23.7884C19.1593 23.7113 19.0662 23.6727 18.9572 23.6727C18.8482 23.6727 18.7551 23.7113 18.678 23.7884C18.6009 23.8655 18.5624 23.9585 18.5624 24.0675ZM18.6011 24.3772L18.7404 24.5862C18.7476 24.5995 18.7554 24.6124 18.7637 24.625L19.0888 25.0353L19.5301 25.6469L20.0798 26.5139C20.0823 26.5191 20.0849 26.5243 20.0875 26.5294L20.7688 27.5591C20.7852 27.5861 20.8032 27.6119 20.823 27.6365L21.6591 28.6042C21.6846 28.6355 21.713 28.6639 21.7442 28.6894L22.6268 29.3707L23.2229 30.0519C23.3585 30.1742 23.4952 30.1756 23.6331 30.056C23.7711 29.9365 23.7892 29.8009 23.6874 29.6494L23.1068 28.9758L22.65 27.9694C22.6452 27.9589 22.64 27.9486 22.6345 27.9384L22.0307 26.8081C22.0188 26.7868 22.0059 26.7662 21.992 26.7462L21.2952 25.7165C21.2808 25.6951 21.2653 25.6744 21.2488 25.6546L20.5752 24.8572C20.5677 24.8493 20.5599 24.8415 20.552 24.834L20.0101 24.2611C19.9978 24.2476 19.9849 24.2347 19.9714 24.2224L19.5765 23.8663C19.5501 23.8429 19.5217 23.8223 19.4914 23.8043L19.2746 23.6805C19.0479 23.539 18.8417 23.5643 18.656 23.7564C18.4703 23.9485 18.452 24.1555 18.6011 24.3772Z" fill="black"/>
<path d="M24.8951 19.1128C24.8951 19.2411 24.9405 19.3506 25.0312 19.4413C25.1219 19.532 25.2314 19.5773 25.3596 19.5773C25.4879 19.5773 25.5974 19.532 25.6881 19.4413C25.7788 19.3506 25.8241 19.2411 25.8241 19.1128C25.8241 18.9846 25.7788 18.8751 25.6881 18.7844C25.5974 18.6937 25.4879 18.6483 25.3596 18.6483C25.2314 18.6483 25.1219 18.6937 25.0312 18.7844C24.9405 18.8751 24.8951 18.9846 24.8951 19.1128ZM24.8409 19.0741L24.8177 19.2444C24.7954 19.3951 24.8212 19.5371 24.8951 19.6702L25.0964 20.0418C25.1281 20.0987 25.1668 20.1503 25.2125 20.1967L25.6383 20.638C25.6819 20.6858 25.7309 20.7271 25.7854 20.7618L26.4745 21.1721C26.5346 21.2088 26.5991 21.2346 26.668 21.2496L27.4422 21.4121L28.077 21.807C28.2346 21.8813 28.3596 21.8446 28.4519 21.6968C28.5443 21.549 28.5225 21.4206 28.3867 21.3115L27.7518 20.9244L27.3183 20.2818C27.2972 20.2541 27.274 20.2283 27.2486 20.2044L26.6835 19.6238C26.6835 19.6212 26.6835 19.6186 26.6835 19.616L26.2577 19.198L25.9867 18.8961C25.9134 18.8154 25.8256 18.756 25.7235 18.718L25.5687 18.6561C25.4086 18.595 25.2542 18.6072 25.1057 18.6925C24.9571 18.7779 24.8689 18.9051 24.8409 19.0741Z" fill="black"/>
<path d="M22.9365 12.7026C22.9365 12.8331 22.9826 12.9444 23.0748 13.0366C23.167 13.1288 23.2783 13.1749 23.4087 13.1749C23.5391 13.1749 23.6504 13.1288 23.7426 13.0366C23.8348 12.9444 23.881 12.8331 23.881 12.7026C23.881 12.5722 23.8348 12.4609 23.7426 12.3687C23.6504 12.2765 23.5391 12.2304 23.4087 12.2304C23.2783 12.2304 23.167 12.2765 23.0748 12.3687C22.9826 12.4609 22.9365 12.5722 22.9365 12.7026ZM22.921 12.7026C22.921 12.8459 22.9716 12.9681 23.0729 13.0694C23.1742 13.1707 23.2964 13.2213 23.4397 13.2213C23.5829 13.2213 23.7052 13.1707 23.8064 13.0694C23.9077 12.9681 23.9584 12.8459 23.9584 12.7026C23.9584 12.5594 23.9077 12.4372 23.8064 12.3359C23.7052 12.2346 23.5829 12.1839 23.4397 12.1839C23.2964 12.1839 23.1742 12.2346 23.0729 12.3359C22.9716 12.4372 22.921 12.5594 22.921 12.7026ZM23.1919 13.291L23.4629 13.4768C23.4949 13.5001 23.5284 13.5207 23.5635 13.5388L24.1287 13.802L24.988 14.22C25.0255 14.2387 25.0642 14.2542 25.1042 14.2665L26.2577 14.5994L27.3415 15.0252L28.1854 15.4974C28.3711 15.6005 28.5156 15.5592 28.6188 15.3735C28.7219 15.1878 28.6807 15.0433 28.495 14.94L27.6435 14.4755L26.7222 13.771L25.8319 12.9659C25.7893 12.927 25.7428 12.8935 25.6925 12.8652L24.8564 12.4007C24.824 12.3829 24.7904 12.3674 24.7558 12.3543L24.1751 12.122C24.0976 12.0936 24.0176 12.0781 23.9351 12.0756L23.6177 12.0601C23.2823 12.0483 23.0597 12.201 22.95 12.5182C22.8403 12.8354 22.9209 13.093 23.1919 13.291Z" fill="black"/>
<path d="M27.2796 7.82531C27.2796 7.9493 27.3234 8.05514 27.4111 8.14282C27.4988 8.23049 27.6046 8.27433 27.7286 8.27433C27.8526 8.27433 27.9584 8.23049 28.0461 8.14282C28.1338 8.05514 28.1776 7.9493 28.1776 7.82531C28.1776 7.70132 28.1338 7.59548 28.0461 7.5078C27.9584 7.42013 27.8526 7.37629 27.7286 7.37629C27.6046 7.37629 27.4988 7.42013 27.4111 7.5078C27.3234 7.59548 27.2796 7.70132 27.2796 7.82531ZM27.2563 7.82531C27.2563 7.95999 27.304 8.07495 27.3992 8.17019C27.4944 8.26542 27.6094 8.31304 27.7441 8.31304C27.8787 8.31304 27.9937 8.26542 28.0889 8.17019C28.1842 8.07495 28.2318 7.95999 28.2318 7.82531C28.2318 7.69063 28.1842 7.57567 28.0889 7.48043C27.9937 7.3852 27.8787 7.33758 27.7441 7.33758C27.6094 7.33758 27.4944 7.3852 27.3992 7.48043C27.304 7.57567 27.2563 7.69063 27.2563 7.82531ZM27.2486 8.03434L27.2873 8.15046C27.3245 8.25533 27.3839 8.34565 27.4654 8.42143L27.7286 8.6769C27.7529 8.69935 27.7788 8.71999 27.806 8.73884L28.3092 9.1027C28.3551 9.13453 28.4041 9.16034 28.4563 9.18012L29.2382 9.48979L29.9969 9.79946L30.5853 10.1711C30.7505 10.2444 30.8823 10.2051 30.9805 10.0534C31.0787 9.90157 31.0605 9.76533 30.9259 9.64463L30.3453 9.27302L29.7724 8.70787L29.2227 8.08853C29.2034 8.06656 29.1828 8.04591 29.1608 8.0266L28.6963 7.62402C28.6742 7.60452 28.651 7.58645 28.6266 7.56983L28.3247 7.3608C28.1589 7.24735 27.9783 7.2138 27.7828 7.26016L27.6666 7.28339C27.4998 7.32237 27.3748 7.41669 27.2915 7.56636C27.2081 7.71603 27.1938 7.87202 27.2486 8.03434Z" fill="black"/>
<path d="M9.76494 23.0526L9.66429 22.8203C9.65712 22.8071 9.64938 22.7942 9.64107 22.7816L9.33914 22.2087L8.78947 21.1791L7.95336 19.592L6.885 17.5327L5.6618 15.1405L4.46182 12.6941L3.29282 10.2632L2.2709 8.04129C2.2663 8.02816 2.26114 8.01526 2.25542 8.00258L1.29544 6.33036L0.738033 5.09942C0.641279 4.95563 0.513716 4.91893 0.355344 4.98932C0.196972 5.05971 0.138733 5.17899 0.180626 5.34715L0.738033 6.58584L1.38834 8.40515C1.39294 8.41828 1.3981 8.43118 1.40383 8.44386L2.42574 10.6657C2.42572 10.6683 2.42572 10.6709 2.42574 10.6735L3.587 13.1121C3.58958 13.1121 3.59217 13.1121 3.59475 13.1121L4.77924 15.5663L5.93276 17.9972C5.93531 17.9998 5.93789 18.0024 5.9405 18.0049L6.9779 20.0875C6.9804 20.0927 6.98298 20.0978 6.98564 20.103L7.82949 21.69C7.83205 21.6926 7.83463 21.6952 7.83724 21.6978L8.39464 22.7197C8.40201 22.7303 8.40975 22.7406 8.41787 22.7507L8.75851 23.2926C8.77456 23.3174 8.79262 23.3406 8.8127 23.3623L8.98302 23.5558C9.05258 23.6636 9.15004 23.731 9.27541 23.7581C9.40077 23.7852 9.51738 23.764 9.62524 23.6946C9.73309 23.6252 9.80065 23.5278 9.82793 23.4025C9.8552 23.2772 9.8342 23.1605 9.76494 23.0526Z" fill="black"/>
<path d="M13.5661 20.6139L13.4887 20.5132C13.4838 20.5053 13.4786 20.4976 13.4732 20.49L13.2023 20.1649L12.6062 19.4758L11.6384 18.2991L10.2836 16.6191L8.68883 14.5753L7.03209 12.3689L5.476 10.2322L4.14441 8.35093C4.13948 8.34303 4.13432 8.33529 4.12893 8.3277L3.02186 6.9187L2.36381 5.85808C2.25024 5.67754 2.10316 5.64402 1.92258 5.75753C1.742 5.87103 1.70844 6.0181 1.82188 6.19871L2.47993 7.25934L3.32379 8.85414C3.33092 8.86741 3.33866 8.88031 3.34701 8.89285L4.60892 10.8283C4.61387 10.8362 4.61904 10.8439 4.6244 10.8515L6.17276 12.996C6.17531 12.9986 6.17789 13.0012 6.1805 13.0037L7.82949 15.2179C7.83199 15.2231 7.83457 15.2282 7.83724 15.2334L9.43978 17.2849C9.44234 17.2875 9.44492 17.2901 9.44752 17.2927L10.8178 18.9649C10.8229 18.9702 10.828 18.9753 10.8333 18.9804L11.8552 20.1262C11.8578 20.1288 11.8603 20.1313 11.863 20.1339L12.49 20.7997L12.7687 21.1016C12.7899 21.1246 12.8131 21.1453 12.8384 21.1636L12.9391 21.241C13.1458 21.3908 13.3395 21.3755 13.5201 21.1949C13.7007 21.0143 13.716 20.8207 13.5661 20.6139Z" fill="black"/>
<path d="M22.2448 22.201L22.1519 22.0772C22.1493 22.0745 22.1467 22.072 22.1441 22.0694L21.788 21.6204L21.0216 20.614L19.7674 18.965L18.0255 16.6037L16.0436 13.778L14.0075 10.7819L12.0643 7.9252C12.0643 7.92262 12.0643 7.92004 12.0643 7.91746L8.867 3.28014C8.86444 3.27753 8.86186 3.27495 8.85926 3.2724L7.76767 1.76275C7.75355 1.74352 7.73807 1.72545 7.72122 1.70856L6.90833 0.880191L6.49802 0.384718C6.36381 0.224924 6.21676 0.212077 6.05687 0.346175C5.89699 0.480273 5.88404 0.627311 6.01803 0.78729L6.4206 1.26728L6.97801 2.27371C6.98279 2.28422 6.98795 2.29454 6.99349 2.30468L8.02314 3.84529L11.0966 8.56777C11.0992 8.57037 11.1018 8.57295 11.1044 8.57551L13.0243 11.4477C13.0269 11.4477 13.0295 11.4477 13.0321 11.4477L15.0759 14.4438C15.0785 14.4464 15.081 14.449 15.0836 14.4515L17.0733 17.2773C17.0783 17.2825 17.0835 17.2877 17.0888 17.2927L18.8539 19.6462C18.8589 19.6541 18.864 19.6618 18.8694 19.6695L20.2009 21.2643C20.2059 21.2721 20.2111 21.2799 20.2164 21.2875L21.0835 22.2165L21.4629 22.65C21.4679 22.6553 21.4731 22.6605 21.4783 22.6655L21.5867 22.7739C21.7795 22.9374 21.9712 22.9361 22.1618 22.7701C22.3525 22.6042 22.3801 22.4145 22.2448 22.201Z" fill="black"/>
<path d="M23.5065 17.3392L23.3672 17.2618L22.833 16.8592C22.8279 16.8565 22.8227 16.854 22.8175 16.8515L21.6485 16.0386L19.9531 14.7147L17.9092 12.9806L15.7416 11.0297L13.628 9.00906L11.77 7.19748L10.4849 5.67235C10.3507 5.51274 10.2037 5.49994 10.0439 5.63396C9.88408 5.76797 9.87109 5.91496 10.0049 6.07493L11.3055 7.6078L12.939 9.63614C12.9463 9.64679 12.9541 9.65711 12.9623 9.66711L14.9906 11.7884C15.0006 11.7965 15.011 11.8042 15.0216 11.8116L17.1815 13.7935C17.1891 13.7988 17.1969 13.804 17.2047 13.809L19.2641 15.5431C19.2717 15.5485 19.2794 15.5536 19.2873 15.5586L21.0214 16.8824C21.029 16.8878 21.0368 16.893 21.0447 16.8979L22.2292 17.7031C22.2489 17.7174 22.2695 17.7303 22.2911 17.7418L22.9182 18.0514C22.9208 18.0514 22.9233 18.0514 22.9259 18.0514L23.0885 18.1289C23.1953 18.1723 23.3028 18.1743 23.4111 18.1349C23.5194 18.0955 23.6005 18.0249 23.6545 17.923C23.7084 17.8211 23.7212 17.7143 23.6929 17.6026C23.6646 17.4909 23.6025 17.4031 23.5065 17.3392Z" fill="black"/>
<path d="M15.0294 4.26333C15.0294 4.37023 15.0672 4.46146 15.1428 4.53705C15.2184 4.61263 15.3096 4.65042 15.4165 4.65042C15.5234 4.65042 15.6146 4.61263 15.6902 4.53705C15.7658 4.46146 15.8036 4.37023 15.8036 4.26333C15.8036 4.15644 15.7658 4.0652 15.6902 3.98962C15.6146 3.91404 15.5234 3.87625 15.4165 3.87625C15.3096 3.87625 15.2184 3.91404 15.1428 3.98962C15.0672 4.0652 15.0294 4.15644 15.0294 4.26333ZM14.9752 4.16269L14.9597 4.20914C14.9409 4.28983 14.9435 4.36983 14.9675 4.44914L14.9985 4.573C15.0076 4.60799 15.0205 4.64153 15.0372 4.67365L15.1688 4.92138C15.1884 4.95743 15.2116 4.99097 15.2384 5.02203L15.7494 5.60266C15.7905 5.65001 15.8369 5.6913 15.8888 5.72653L17.1429 6.57812C17.1677 6.59528 17.1935 6.61076 17.2203 6.62457L19.1635 7.57681C19.1661 7.57683 19.1687 7.57683 19.1713 7.57681L21.339 8.61421L23.2047 9.64386C23.3762 9.72846 23.5086 9.68729 23.6019 9.52038C23.6951 9.35346 23.6608 9.21914 23.4989 9.11742L21.6331 8.09551L19.6513 6.76392L17.9558 5.44782C17.9507 5.44258 17.9456 5.43742 17.9403 5.43234L16.7171 4.54204C16.685 4.5213 16.6515 4.50324 16.6165 4.48784L15.9429 4.14721L15.7881 4.06205L15.7649 4.02334C15.7816 4.09238 15.8126 4.15431 15.8578 4.20914L15.8423 4.16269C15.7826 3.94127 15.6381 3.83057 15.4088 3.83057C15.1794 3.83057 15.0349 3.94127 14.9752 4.16269Z" fill="black"/>
<path d="M17.1816 4.82075H17.1894C17.2466 4.89923 17.3215 4.95342 17.4139 4.98333L17.4836 4.99881C17.4861 5.00143 17.4887 5.00401 17.4913 5.00656L17.6539 5.05301L18.0255 5.23107L18.8229 5.67235C18.8229 5.67493 18.8229 5.67751 18.8229 5.68009L20.1932 6.4233L22.0512 7.43747C22.0639 7.44306 22.0768 7.44822 22.0899 7.45295L24.2963 8.46713C24.304 8.46988 24.3117 8.47247 24.3195 8.47487L26.5647 9.40388L28.5775 10.2168C28.5902 10.2226 28.6031 10.2277 28.6162 10.2322L30.2807 10.7509L31.4342 11.1845C31.5944 11.2117 31.7028 11.1492 31.7593 10.9969C31.8159 10.8446 31.7746 10.7265 31.6355 10.6426L30.4897 10.2013L28.9259 9.43485C28.9208 9.43216 28.9156 9.42958 28.9104 9.42711L26.9208 8.57551L24.7686 7.51489L22.6628 6.3304L20.8125 5.293C20.8099 5.29299 20.8074 5.29299 20.8048 5.293L19.4345 4.54979C19.4119 4.53809 19.3887 4.52777 19.3648 4.51882L18.4977 4.18593C18.4529 4.16712 18.4065 4.15421 18.3584 4.14722L17.8861 4.09303C17.8681 4.09204 17.85 4.09204 17.8319 4.09303H17.6229C17.6074 4.09225 17.5919 4.09225 17.5765 4.09303L17.499 4.10077C17.3701 4.11537 17.2669 4.17472 17.1894 4.27883H17.1816C17.0411 4.45947 17.0411 4.64011 17.1816 4.82075Z" fill="black"/>
<path d="M18.7067 6.91875C18.7067 7.03206 18.7467 7.12877 18.8269 7.20889C18.907 7.28901 19.0037 7.32907 19.117 7.32907C19.2303 7.32907 19.327 7.28901 19.4071 7.20889C19.4873 7.12877 19.5273 7.03206 19.5273 6.91875C19.5273 6.80545 19.4873 6.70874 19.4071 6.62862C19.327 6.5485 19.2303 6.50844 19.117 6.50844C19.0037 6.50844 18.907 6.5485 18.8269 6.62862C18.7467 6.70874 18.7067 6.80545 18.7067 6.91875ZM18.7377 7.25939L18.9235 7.55358C18.9585 7.61268 19.0024 7.66429 19.0551 7.70841L19.6434 8.18066C19.6679 8.20063 19.6937 8.21869 19.7209 8.23485L20.7815 8.86194C20.8016 8.87339 20.8222 8.88371 20.8434 8.8929L22.3376 9.57418C22.3477 9.57965 22.3581 9.58481 22.3685 9.58966L24.1182 10.2632L25.8291 11.0064C25.8368 11.0092 25.8445 11.0118 25.8523 11.0141L28.5929 12.067L29.3903 12.4154C29.571 12.4928 29.7 12.4412 29.7774 12.2606C29.8548 12.0799 29.8032 11.9509 29.6226 11.8735L28.8329 11.5251L26.2007 10.209C26.1982 10.2064 26.1956 10.2038 26.193 10.2013L24.4898 9.42709L22.8485 8.55227L21.4241 7.76261L20.3867 7.14326L19.7673 6.73295C19.7475 6.7188 19.7268 6.70589 19.7054 6.69424L19.3957 6.53941C19.1657 6.41629 18.9627 6.451 18.7868 6.64355C18.6108 6.83611 18.5944 7.04138 18.7377 7.25939Z" fill="black"/>
<path d="M29.1591 13.683C29.1591 13.8134 29.2053 13.9246 29.2975 14.0168C29.3897 14.109 29.5009 14.155 29.6313 14.155C29.7617 14.155 29.873 14.109 29.9652 14.0168C30.0574 13.9246 30.1035 13.8134 30.1036 13.683C30.1035 13.5526 30.0574 13.4414 29.9652 13.3492C29.873 13.2571 29.7617 13.211 29.6313 13.211C29.5009 13.211 29.3897 13.2571 29.2975 13.3492C29.2053 13.4414 29.1591 13.5526 29.1591 13.683ZM29.0739 13.652C29.074 13.8016 29.1269 13.9293 29.2327 14.0351C29.3385 14.1408 29.4662 14.1937 29.6158 14.1937C29.7654 14.1937 29.8931 14.1408 29.9989 14.0351C30.1047 13.9293 30.1577 13.8016 30.1577 13.652C30.1577 13.5024 30.1047 13.3748 29.9989 13.269C29.8931 13.1633 29.7654 13.1104 29.6158 13.1104C29.4662 13.1104 29.3385 13.1633 29.2327 13.269C29.1269 13.3748 29.074 13.5024 29.0739 13.652ZM30.2352 13.9153L30.2507 13.8843C30.3827 13.6146 30.3801 13.3462 30.2429 13.0792L30.181 12.963C30.0124 12.6291 29.7415 12.4511 29.3681 12.4288L29.2133 12.4211C28.8166 12.402 28.507 12.5569 28.2842 12.8856L28.052 13.2185C27.9518 13.3665 27.8898 13.5291 27.8662 13.7062L27.7733 14.3565C27.7572 14.4675 27.7572 14.5785 27.7733 14.6894L27.8972 15.5256C27.9119 15.63 27.9403 15.7307 27.9823 15.8275L28.3539 16.6559C28.3921 16.7473 28.4411 16.8324 28.501 16.9113L29.0662 17.6236C29.1391 17.7166 29.2243 17.7966 29.3216 17.8636L30.0184 18.3358C30.1095 18.3988 30.2076 18.4478 30.3126 18.4829L30.9706 18.6997C31.2091 18.7783 31.449 18.7834 31.6906 18.7152L32.2558 18.5603C32.5467 18.4776 32.7789 18.3125 32.9525 18.0649L33.3009 17.5694C33.4366 17.3763 33.514 17.1621 33.5332 16.9268L33.5951 16.1991C33.6097 16.042 33.5968 15.8871 33.5564 15.7346L33.3164 14.883C33.2921 14.7917 33.2586 14.704 33.2157 14.6198L32.7822 13.7837C32.7444 13.7126 32.7005 13.6455 32.6506 13.5824L32.1164 12.9011C32.0408 12.8013 31.953 12.7135 31.8532 12.6379L31.2958 12.2276C31.0812 12.0703 30.8412 11.9826 30.5758 11.9643L30.0571 11.9256C29.699 11.8993 29.379 11.9974 29.0971 12.2198L28.6481 12.5759C28.4299 12.7475 28.2751 12.9642 28.1836 13.2262L27.9359 13.9385C27.8807 14.0991 27.8549 14.2642 27.8584 14.434L27.8817 15.3088C27.8832 15.4626 27.909 15.6123 27.9591 15.7578L28.261 16.6017C28.3155 16.7514 28.3929 16.8882 28.4933 17.012L29.0197 17.6778C29.1302 17.8158 29.2618 17.9294 29.4145 18.0184L30.0571 18.39C30.2508 18.5043 30.4598 18.5688 30.6842 18.5836L31.3113 18.6223C31.6048 18.6425 31.8783 18.578 32.1319 18.4287L32.6661 18.1113C32.8742 17.9858 33.0393 17.8181 33.1616 17.6081L33.5332 16.981C33.6183 16.8338 33.675 16.6764 33.7035 16.5088L33.8506 15.6726C33.8812 15.5105 33.8838 15.3479 33.8583 15.1849L33.7035 14.2714C33.6775 14.1191 33.6284 13.9746 33.5564 13.8378L33.1228 13.0017C33.0449 12.8528 32.9442 12.7212 32.8209 12.6069L32.2016 12.0263C32.0378 11.8751 31.8494 11.7667 31.6364 11.7011L30.9397 11.4766C30.6343 11.3803 30.3298 11.3829 30.0261 11.4843L29.3913 11.7011C29.1051 11.797 28.8703 11.9647 28.6868 12.2043L28.2455 12.785C28.0991 12.9736 28.0036 13.1852 27.9591 13.4198L27.8043 14.2714C27.7698 14.4546 27.7698 14.6378 27.8043 14.8211L27.9823 15.7423C28.0137 15.9127 28.073 16.0727 28.1604 16.2223L28.6404 17.0197C28.7374 17.1829 28.8613 17.3223 29.012 17.4378L29.67 17.941C29.8522 18.0815 30.0561 18.1744 30.2816 18.2197L30.9939 18.359C31.2371 18.4065 31.4771 18.3936 31.7138 18.3203L32.3564 18.1268C32.6184 18.0438 32.8404 17.8993 33.0222 17.6932L33.4635 17.1978C33.6379 17.0064 33.754 16.7844 33.8119 16.532L33.9667 15.8197C34.0189 15.5778 34.0112 15.3378 33.9435 15.0998L33.7267 14.3178C33.6719 14.1241 33.5815 13.9486 33.4557 13.7914L32.9293 13.1256C32.792 12.9515 32.6243 12.8147 32.4261 12.7153L31.7371 12.3747C31.5704 12.2828 31.3926 12.226 31.2036 12.2042C31.0146 12.1825 30.8285 12.1974 30.6454 12.249C30.4622 12.3006 30.2957 12.3851 30.1459 12.5023C29.9961 12.6196 29.8741 12.7609 29.78 12.9263C29.6858 13.0916 29.6266 13.2687 29.6023 13.4574C29.578 13.6461 29.5903 13.8323 29.6395 14.0162C29.6886 14.2 29.7707 14.3676 29.8859 14.519C30.0012 14.6705 30.1408 14.7944 30.3048 14.8907L30.7384 15.1694L30.9397 15.4172L30.9861 15.572L30.9939 15.5101L31.0945 15.4017L31.1874 15.3785H31.1951L31.0403 15.2623L30.8545 14.9372L30.7771 14.5423L30.8235 14.2946L30.7848 14.3488L30.5294 14.4417L30.4519 14.4185L30.661 14.6043L30.8932 15.0223L30.9861 15.4714L30.9474 15.781L30.901 15.8507L31.0558 15.7578L31.2029 15.7655L31.0945 15.7036L30.8777 15.4249L30.7306 15.0223L30.7229 14.6198L30.7771 14.4572L30.9397 14.2946C30.5472 14.2862 30.2117 14.4204 29.9332 14.6972L30.0339 14.7049L30.1113 14.7514L30.4597 15.1694L30.7771 15.7578L30.9397 16.292V16.4546L31.0171 16.3307L31.1642 16.261L31.0945 16.2533L30.7771 16.0365L30.421 15.5875L30.181 15.0301L30.0958 14.4727L30.1268 14.0236L30.1965 13.6985C30.1209 13.8124 30.0693 13.9363 30.0416 14.0701L30.1268 13.9462C29.7584 13.9283 29.4719 14.0728 29.2674 14.3798L29.3991 14.3875C29.6034 14.3968 29.7892 14.3426 29.9565 14.2249L29.9874 14.2017C30.0946 14.1275 30.1772 14.032 30.2352 13.9153ZM30.3436 13.234L29.8868 13.412C29.7774 13.4623 29.7 13.543 29.6545 13.6544C29.609 13.7658 29.6077 13.8777 29.6507 13.9901C29.6936 14.1025 29.7691 14.185 29.8773 14.2377C29.9854 14.2905 30.097 14.2991 30.2119 14.2636L30.6687 14.0856C30.778 14.0354 30.8555 13.9546 30.901 13.8432C30.9465 13.7318 30.9478 13.62 30.9048 13.5076C30.8619 13.3952 30.7864 13.3126 30.6782 13.2599C30.5701 13.2072 30.4585 13.1985 30.3436 13.234Z" fill="black"/>
<path d="M26.1177 26.0336C26.1177 26.1362 26.154 26.2238 26.2266 26.2964C26.2991 26.3689 26.3867 26.4052 26.4893 26.4052C26.5919 26.4052 26.6795 26.3689 26.7521 26.2964C26.8246 26.2238 26.8609 26.1362 26.8609 26.0336C26.8609 25.931 26.8246 25.8434 26.7521 25.7709C26.6795 25.6983 26.5919 25.662 26.4893 25.662C26.3867 25.662 26.2991 25.6983 26.2266 25.7709C26.154 25.8434 26.1177 25.931 26.1177 26.0336ZM25.8313 26.0336C25.8313 26.2025 25.891 26.3467 26.0104 26.4661C26.1298 26.5855 26.274 26.6452 26.4429 26.6452C26.6118 26.6452 26.7559 26.5855 26.8753 26.4661C26.9948 26.3467 27.0545 26.2025 27.0545 26.0336C27.0545 25.8647 26.9948 25.7206 26.8753 25.6012C26.7559 25.4817 26.6118 25.422 26.4429 25.422C26.274 25.422 26.1298 25.4817 26.0104 25.6012C25.891 25.7206 25.8313 25.8647 25.8313 26.0336ZM26.4119 25.244L26.1874 25.213C26.0052 25.1853 25.8297 25.2085 25.661 25.2827L25.2971 25.4452C25.1128 25.5273 24.9632 25.6512 24.8481 25.8169L24.4687 26.3433C24.3888 26.4593 24.332 26.5858 24.2984 26.7226L24.0739 27.5742C24.0517 27.6684 24.0414 27.7639 24.0429 27.8607L24.0352 28.8594C24.0349 28.9509 24.0452 29.0412 24.0661 29.1303L24.2907 30.0981C24.313 30.1926 24.3465 30.2829 24.3913 30.369L24.8171 31.1974C24.8686 31.297 24.9331 31.3873 25.0106 31.4683L25.599 32.0877C25.6685 32.1596 25.7459 32.2215 25.8313 32.2735L26.4816 32.6761C26.5988 32.7502 26.7253 32.8018 26.8609 32.8309L27.5035 32.9625C27.6997 33.0019 27.8932 32.9916 28.0841 32.9315L28.657 32.7535C28.8451 32.694 29.0076 32.5933 29.1448 32.4515L29.6247 31.9638C29.7284 31.8553 29.8084 31.7314 29.8647 31.5922L30.1899 30.8103C30.2217 30.7328 30.2449 30.6528 30.2596 30.5703L30.4531 29.5329C30.4645 29.4637 30.4696 29.394 30.4686 29.3239V28.1549C30.4683 28.0925 30.4631 28.0306 30.4531 27.9691L30.2673 26.8001C30.2555 26.7288 30.2374 26.6591 30.2131 26.591L29.857 25.5846C29.8123 25.464 29.7504 25.353 29.6712 25.2517L29.1215 24.5317C29.0028 24.376 28.8557 24.2547 28.6802 24.1679L27.9835 23.8195C27.7429 23.7006 27.49 23.6619 27.2248 23.7034L26.4893 23.8195C26.2431 23.8567 26.0264 23.9574 25.839 24.1214L25.1964 24.6788C25.0831 24.7786 24.9902 24.8947 24.9177 25.0272L24.43 25.9098C24.3779 26.008 24.3392 26.1112 24.3139 26.2194L24.0584 27.2568C24.0263 27.3839 24.0134 27.513 24.0197 27.6439L24.0816 28.7123C24.0872 28.8395 24.1104 28.9633 24.1513 29.0839L24.4997 30.0748C24.5427 30.1969 24.602 30.3105 24.6777 30.4155L25.2661 31.2284C25.3435 31.3316 25.4338 31.422 25.5371 31.4993L26.2803 32.0722C26.4002 32.164 26.5318 32.2337 26.6751 32.2812L27.457 32.5445C27.6128 32.5971 27.7728 32.6204 27.937 32.6141L28.6493 32.5832C28.8615 32.5737 29.0602 32.5169 29.2454 32.4128L29.8105 32.1032C30.0133 31.9906 30.1759 31.8357 30.2983 31.6387L30.6544 31.0735C30.7514 30.916 30.8134 30.7456 30.8402 30.5626L30.9563 29.7961C30.9749 29.6671 30.9749 29.5381 30.9563 29.409L30.8402 28.5574C30.8241 28.4398 30.7931 28.3263 30.7473 28.2168L30.3989 27.3729C30.3545 27.2677 30.2977 27.1697 30.2286 27.0788L29.6789 26.3433C29.6157 26.2574 29.5435 26.18 29.4622 26.111L28.7654 25.5381C28.6669 25.4531 28.5585 25.3834 28.4402 25.3291L27.6583 24.9885C27.5177 24.9252 27.3706 24.8865 27.217 24.8724L26.4506 24.8104C26.2317 24.7916 26.0201 24.8226 25.8158 24.9033L25.1423 25.1743C24.9187 25.2626 24.7303 25.3994 24.5771 25.5846L24.0894 26.173C23.9459 26.3486 23.8504 26.5473 23.8029 26.7691L23.6171 27.6284C23.5786 27.8029 23.5734 27.9784 23.6016 28.1549L23.7642 29.1536C23.7842 29.2882 23.8229 29.4172 23.8803 29.5406L24.3603 30.5393C24.4125 30.6455 24.477 30.7436 24.5539 30.8335L25.2816 31.7006C25.3484 31.7812 25.4232 31.8535 25.5061 31.9174L26.35 32.5522C26.45 32.6287 26.5584 32.6907 26.6751 32.738L27.4725 33.0477C27.6688 33.1272 27.8727 33.1607 28.0841 33.1483L28.7886 33.1019C29.0496 33.0825 29.2871 32.9973 29.5009 32.8464L30.066 32.4593C30.2309 32.3433 30.3651 32.1988 30.4686 32.0258L30.8712 31.3677C30.9561 31.2282 31.0155 31.0785 31.0492 30.9187L31.235 30.0439C31.2604 29.9159 31.2681 29.7869 31.2583 29.6568L31.1963 28.72C31.1845 28.5645 31.1484 28.4148 31.0879 28.271L30.7318 27.4039C30.6659 27.2398 30.573 27.0927 30.4531 26.9626L29.8105 26.2736C29.6941 26.1493 29.5599 26.0486 29.408 25.9717L28.5486 25.5304C28.4473 25.4794 28.3415 25.4407 28.2312 25.4143L27.3332 25.1898C27.2084 25.1603 27.082 25.1474 26.9538 25.1511L26.1487 25.1588C25.9692 25.1634 25.7963 25.1996 25.63 25.2672L25.0029 25.5072C24.7584 25.605 24.5545 25.7572 24.3913 25.9639L24.0042 26.4439C23.8419 26.6495 23.7412 26.8817 23.7023 27.1407L23.6016 27.8142C23.5714 28.0067 23.5792 28.1977 23.6249 28.3871L23.8184 29.1845C23.8505 29.3151 23.8996 29.4389 23.9655 29.5561L24.4223 30.3768C24.4789 30.4748 24.546 30.5651 24.6236 30.6477L25.2971 31.3909C25.378 31.4793 25.4683 31.5567 25.5681 31.6232L26.3732 32.1574C26.4748 32.2251 26.5832 32.2792 26.6984 32.3199L27.4648 32.5986C27.6301 32.6573 27.8004 32.6857 27.9757 32.6838L28.5951 32.6761C28.9187 32.6732 29.2103 32.5752 29.4699 32.3819L29.857 32.0954C30.1591 31.8676 30.3475 31.5683 30.4221 31.1974L30.5305 30.6709C30.5763 30.4536 30.5737 30.2368 30.5228 30.0206L30.337 29.2697C30.3163 29.182 30.2879 29.0968 30.2518 29.0142L29.8493 28.0929C29.8262 28.0425 29.8004 27.9934 29.7718 27.9458L29.2222 27.0013C29.2005 26.9642 29.1773 26.9281 29.1525 26.893L28.5641 26.0491C28.526 25.9974 28.4847 25.9484 28.4402 25.902L27.8674 25.2749C27.7737 25.1726 27.6678 25.0849 27.5499 25.0117L27.0312 24.6943C26.7337 24.5105 26.4111 24.4382 26.0635 24.4775L25.6377 24.524C25.1969 24.5732 24.846 24.777 24.5848 25.1356L24.2984 25.5381C24.1484 25.7419 24.0555 25.969 24.0197 26.2194L23.9345 26.862C23.9109 27.0471 23.9212 27.2304 23.9655 27.4117L24.1513 28.2013C24.1835 28.343 24.2351 28.4772 24.3061 28.6039L24.7629 29.3858C24.8342 29.5121 24.9219 29.6256 25.0261 29.7264L25.6997 30.3768C25.8 30.4694 25.911 30.5468 26.0326 30.609L26.799 31.0193C26.9565 31.1064 27.1242 31.1632 27.3022 31.1896L28.0299 31.2825C28.3146 31.3224 28.5881 31.2836 28.8506 31.1664L29.4235 30.9032C29.7103 30.775 29.9348 30.5762 30.097 30.3071L30.4299 29.7419C30.5652 29.5181 30.6374 29.2756 30.6467 29.0142L30.6699 28.24C30.6764 28.0573 30.6506 27.8792 30.5925 27.7058L30.2983 26.8465C30.243 26.686 30.163 26.5389 30.0583 26.4052L29.4854 25.662C29.3732 25.5163 29.239 25.3951 29.0828 25.2982L28.3861 24.8646C28.1398 24.7105 27.8714 24.6331 27.5809 24.6324H26.8764C26.5298 24.6352 26.2201 24.7436 25.9474 24.9575L25.3977 25.3756C25.1737 25.5494 25.0111 25.7687 24.91 26.0336L24.639 26.7536C24.5659 26.943 24.5324 27.1391 24.5384 27.342L24.5694 28.2013C24.5728 28.344 24.5961 28.4833 24.639 28.6194L24.9255 29.5174C24.9684 29.6467 25.0278 29.768 25.1035 29.8813L25.6377 30.6942C25.698 30.787 25.7677 30.8722 25.8468 30.9496L26.5048 31.5845C26.6218 31.696 26.7534 31.7864 26.8996 31.8554L27.6041 32.1961C27.8067 32.296 28.0209 32.3476 28.2467 32.3509H28.897C29.2008 32.3529 29.4795 32.2703 29.7331 32.1032L30.2673 31.747C30.4933 31.5977 30.6662 31.4016 30.786 31.1587L31.1266 30.4619C31.2151 30.2783 31.2641 30.0848 31.2737 29.8813L31.3202 28.8826C31.3306 28.7118 31.3126 28.544 31.266 28.3794L30.9331 27.2336C30.8851 27.0746 30.8129 26.9275 30.7163 26.7923L29.9809 25.7394C29.8748 25.5896 29.7458 25.4631 29.5938 25.3601L28.5873 24.6711C28.3969 24.5414 28.1879 24.4588 27.9603 24.4233L26.8764 24.253C26.609 24.2101 26.3483 24.2359 26.0945 24.3304L25.1887 24.6711C24.9005 24.7788 24.6657 24.9569 24.4842 25.2053L23.9345 25.9639C23.7616 26.1993 23.6636 26.4625 23.6404 26.7536L23.5629 27.7678C23.5475 27.9828 23.5758 28.1918 23.6481 28.3949L24.0507 29.5484C24.0932 29.669 24.15 29.7826 24.221 29.889L24.9952 31.058C25.0475 31.1384 25.1068 31.2133 25.1732 31.2825L26.1642 32.3045C26.2327 32.3762 26.3076 32.4408 26.3887 32.498L27.4029 33.2025C27.5478 33.302 27.7052 33.3742 27.8751 33.4193L28.7267 33.6438C29.1446 33.7578 29.5394 33.7036 29.9112 33.4812L30.4841 33.1251C30.826 32.9196 31.0531 32.6254 31.1654 32.2425L31.4131 31.3832C31.4655 31.2007 31.4836 31.0149 31.4673 30.8258L31.3666 29.6413C31.355 29.5086 31.3266 29.3795 31.2815 29.2542L30.8479 28.0542C30.8068 27.9393 30.7526 27.8309 30.6854 27.7291L30.0738 26.8001C29.9249 26.5717 29.7288 26.3963 29.4854 26.2736L28.7809 25.9252C28.517 25.7934 28.2393 25.7502 27.9478 25.7957C27.6563 25.8412 27.405 25.967 27.1938 26.173L26.9306 26.4285C26.7246 26.6303 26.6216 26.8755 26.6216 27.1639C26.6216 27.4524 26.7246 27.6975 26.9306 27.8994L27.1861 28.1549L27.6274 28.5807L28.0299 29.2232L28.3164 30.0826L28.3783 30.818L28.3706 30.8413L28.866 30.5316L28.928 30.5471L28.2699 30.0671L27.4725 29.2465L26.8842 28.3716L26.6674 27.6981L26.6829 27.4271L26.7061 27.4039L26.8067 27.3652L27.1706 27.4117L27.6661 27.7368L28.0996 28.3407L28.3009 28.9987L28.2854 29.44L28.2622 29.471L28.4557 29.3471H28.5951L28.4248 29.2697L28.0686 28.9136L27.7435 28.3949L27.5732 27.8916L27.5654 27.5665L27.5809 27.5278L27.3796 27.6826H27.1551L27.2558 27.7446L27.5112 28.0774L27.6428 28.4413V28.542L27.7435 28.3716L27.9835 28.2555L27.9603 28.2478L27.6274 28.0697L27.2635 27.7213L27.0312 27.3033L26.9616 26.9859L26.9538 27.0168L27.008 26.9472C26.5793 26.9926 26.2335 27.1861 25.9706 27.5278L26.3964 27.4813C26.105 27.3058 25.7902 27.2361 25.4519 27.2723L25.7848 27.4736L26.1487 27.8762L26.6596 28.5807L27.1319 29.4013L27.4648 30.1213L27.5345 30.4L27.4958 30.5935C27.7755 30.3678 27.951 30.0788 28.0222 29.7264L27.6506 30.0284C27.9751 30.0147 28.2642 29.9064 28.5177 29.7032L28.1848 29.7187L27.8596 29.6026L27.3564 29.2619L26.9074 28.782L26.6364 28.2942L26.559 27.9845L26.4584 28.1084H26.4661L26.8377 28.1007L27.4029 28.2245L27.8751 28.4491L28.1615 28.7587L28.3396 29.1768L28.3783 29.6645L28.2932 30.1135L28.1693 30.3148L28.1848 30.3071H28.1925L27.8828 30.191L27.3332 29.7729L26.8222 29.1613L26.5125 28.511L26.4274 27.9768L26.4893 27.6826L26.5358 27.6362L26.5667 27.6207L26.7913 27.6284L27.1706 27.791L27.5887 28.1239L27.9448 28.5961L28.177 29.1226L28.2467 29.6103L28.208 29.9045L28.1925 29.9277L28.2157 29.92L28.0841 29.9277L27.759 29.8039L27.3332 29.4787L26.9693 28.9755L26.7293 28.3562L26.6751 27.6362L26.7913 26.9549L27.0622 26.4517L27.2635 26.2736L27.2558 26.2814L27.3409 26.3123L27.6196 26.653L27.9138 27.342L28.0841 28.271L28.0996 29.2387L27.968 30.0361L27.7745 30.5006L27.6661 30.6168H27.6738L27.5345 30.5858L27.1861 30.369L26.8222 29.9819L26.5358 29.4323L26.3809 28.7355V27.9923L26.5203 27.3575L26.6984 26.9317L26.8532 26.6762L26.9616 26.5059C27.0404 26.3904 27.0863 26.2631 27.0994 26.124C27.1125 25.9848 27.0912 25.8512 27.0354 25.7231C26.9796 25.5949 26.8962 25.4883 26.7854 25.4031C26.6746 25.3179 26.5501 25.2649 26.4119 25.244ZM27.0312 27.3342L26.9151 27.6981C26.8852 27.7922 26.8929 27.883 26.9383 27.9707C26.9836 28.0584 27.0533 28.1172 27.1474 28.1471C27.2414 28.1771 27.3323 28.1693 27.42 28.124C27.5077 28.0786 27.5665 28.0089 27.5964 27.9149L27.7125 27.551C27.7424 27.457 27.7347 27.3661 27.6893 27.2785C27.6439 27.1909 27.5742 27.1321 27.4802 27.1022C27.3862 27.0722 27.2953 27.0799 27.2077 27.1252C27.12 27.1706 27.0612 27.2402 27.0312 27.3342Z" fill="black"/>
<path d="M12.8791 24.756C12.8791 24.88 12.9229 24.9858 13.0106 25.0735C13.0983 25.1612 13.2041 25.205 13.3281 25.205C13.4521 25.205 13.558 25.1612 13.6456 25.0735C13.7333 24.9858 13.7772 24.88 13.7772 24.756C13.7772 24.632 13.7333 24.5262 13.6456 24.4385C13.558 24.3508 13.4521 24.307 13.3281 24.307C13.2041 24.307 13.0983 24.3508 13.0106 24.4385C12.9229 24.5262 12.8791 24.632 12.8791 24.756ZM13.8081 24.6321L13.8004 24.6011C13.7593 24.4245 13.657 24.2972 13.4934 24.2191C13.3297 24.141 13.1664 24.1415 13.0032 24.2206C12.8401 24.2997 12.7386 24.4277 12.6986 24.6046C12.6587 24.7815 12.6954 24.9407 12.8087 25.0822C12.922 25.2238 13.0693 25.2945 13.2506 25.2942C13.4319 25.294 13.579 25.223 13.692 25.0811L13.7152 25.0579C13.8144 24.9309 13.8453 24.7889 13.8081 24.6321ZM13.4133 24.0437L13.2275 23.9586C13.0046 23.856 12.7775 23.8457 12.5462 23.9276L12.1282 24.0747C11.9916 24.1213 11.8703 24.1935 11.7643 24.2915L11.2611 24.7715C11.1955 24.834 11.1387 24.9037 11.0908 24.9805L10.6185 25.7237C10.5771 25.7923 10.5436 25.8646 10.5179 25.9405L10.1927 26.8308C10.1606 26.9185 10.14 27.0088 10.1308 27.1017L10.0456 28.023C10.0365 28.1162 10.0391 28.2091 10.0534 28.3017L10.1772 29.1456C10.1963 29.251 10.2298 29.3517 10.2779 29.4475L10.5953 30.1288C10.6577 30.2616 10.7428 30.3777 10.8508 30.4772L11.3385 30.9262C11.479 31.0547 11.6416 31.1425 11.8262 31.1894L12.4765 31.3597C12.6216 31.3988 12.7687 31.4091 12.9178 31.3907L13.6378 31.29C13.7597 31.2724 13.8758 31.2363 13.9862 31.1817L14.7062 30.841C14.7988 30.7954 14.884 30.7387 14.9616 30.6707L15.5732 30.1443C15.6425 30.0868 15.7045 30.0223 15.759 29.9507L16.239 29.2927C16.2943 29.2206 16.3408 29.1431 16.3784 29.0604L16.6958 28.3172C16.7329 28.2274 16.7587 28.1345 16.7732 28.0385L16.9048 27.2566C16.9221 27.1485 16.9247 27.0402 16.9126 26.9314L16.8197 26.1418C16.807 26.0183 16.776 25.8996 16.7268 25.7856L16.4248 25.0811C16.3686 24.9576 16.2937 24.8467 16.2003 24.7482L15.7049 24.2063C15.5825 24.0739 15.4379 23.9733 15.2713 23.9044L14.6287 23.6412C14.4245 23.5576 14.2129 23.5292 13.9939 23.556L13.2894 23.6334C13.094 23.6564 12.9133 23.721 12.7475 23.827L12.1049 24.245C11.9796 24.3243 11.8712 24.4224 11.7798 24.5392L11.2688 25.205C11.1996 25.2931 11.1429 25.3886 11.0985 25.4915L10.7501 26.3198C10.7155 26.4023 10.6897 26.4875 10.6727 26.5753L10.5024 27.4888C10.4828 27.5886 10.475 27.6892 10.4792 27.7908L10.5101 28.6888C10.5168 28.8192 10.5426 28.9456 10.5875 29.0682L10.8508 29.8191C10.9136 29.9918 11.0091 30.1441 11.1372 30.2759L11.594 30.7481C11.7975 30.962 12.0452 31.091 12.3372 31.1352L12.9798 31.2281C13.1973 31.2588 13.4089 31.2356 13.6146 31.1584L14.3346 30.8952C14.4712 30.8415 14.595 30.7666 14.7062 30.6707L15.372 30.121C15.4501 30.0569 15.5197 29.9846 15.581 29.9043L16.1152 29.1843C16.1657 29.1188 16.2096 29.0491 16.2468 28.9752L16.6339 28.1933C16.6696 28.1186 16.698 28.0412 16.719 27.9611L16.9281 27.1792C16.9542 27.0854 16.9697 26.9899 16.9745 26.8927L17.0055 26.196C17.0122 26.0316 16.989 25.8716 16.9358 25.716L16.7423 25.1508C16.6695 24.94 16.5508 24.7594 16.3861 24.6089L16.0068 24.2605C15.8164 24.0874 15.5945 23.9791 15.341 23.9354L14.8146 23.8425C14.6515 23.8144 14.4889 23.817 14.3268 23.8502L13.7307 23.9741C13.6056 24.0007 13.4869 24.0446 13.3746 24.1057L12.7785 24.4231C12.6642 24.4828 12.561 24.5576 12.4688 24.6476L11.9424 25.1663C11.8537 25.2538 11.7788 25.3519 11.7178 25.4605L11.323 26.165C11.2724 26.2584 11.2337 26.3564 11.2069 26.4592L10.9979 27.2101C10.959 27.3495 10.9435 27.4914 10.9514 27.6359L10.9901 28.3017C11.0058 28.5452 11.0832 28.7671 11.2224 28.9675L11.5088 29.3856C11.7208 29.6964 12.0124 29.8822 12.3836 29.943L12.8946 30.0281C13.1253 30.0647 13.3498 30.0414 13.5681 29.9585L14.2184 29.7107C14.3289 29.6704 14.4321 29.6162 14.5281 29.5481L15.1784 29.0759C15.2458 29.0251 15.3077 28.9683 15.3642 28.9056L15.9139 28.3172C15.9747 28.2555 16.0289 28.1884 16.0765 28.1159L16.4635 27.4888C16.5293 27.3798 16.5784 27.2637 16.6106 27.1404L16.7732 26.5443C16.8317 26.3256 16.8343 26.1063 16.781 25.8863L16.6726 25.4063C16.5993 25.1026 16.4393 24.8548 16.1926 24.6631L15.8287 24.3766C15.593 24.1891 15.3247 24.091 15.0236 24.0825L14.4817 24.0747C14.2881 24.071 14.1023 24.1071 13.9242 24.1831L13.3204 24.4308C13.1997 24.4818 13.0887 24.5489 12.9875 24.6321L12.4146 25.0966C12.3528 25.1483 12.296 25.2051 12.2443 25.2669L11.7488 25.8476C11.7067 25.8939 11.668 25.943 11.6327 25.9947L11.2301 26.6218C11.1848 26.6905 11.1461 26.7627 11.114 26.8385L10.874 27.4192C10.8007 27.5978 10.7672 27.7836 10.7733 27.9766L10.7811 28.3714C10.7899 28.6891 10.8973 28.9691 11.1032 29.2113C11.3092 29.4535 11.5682 29.6044 11.8804 29.6643L12.1978 29.7185C12.5074 29.7779 12.8016 29.734 13.0804 29.5868L13.6455 29.2849C13.7283 29.2413 13.8057 29.1897 13.8778 29.1301L14.5126 28.6036C14.5595 28.5628 14.6034 28.5189 14.6442 28.472L15.1552 27.9146C15.2466 27.8148 15.3214 27.7038 15.3797 27.5817L15.5732 27.1792C15.7257 26.8583 15.7492 26.5283 15.6436 26.1891C15.5379 25.8499 15.3313 25.5916 15.0236 25.414L14.8765 25.3289C14.3799 25.0402 13.8948 25.0582 13.421 25.3831L13.1268 25.5921C12.8696 25.773 12.7002 26.0153 12.6187 26.3191C12.5372 26.6229 12.5626 26.9175 12.6948 27.2028C12.827 27.4882 13.0353 27.698 13.3198 27.8323C13.6042 27.9665 13.8986 27.994 14.203 27.9146L14.5513 27.8217C14.2249 27.6314 13.8791 27.585 13.5139 27.6824L13.661 27.7675C13.8087 27.4487 13.8299 27.1216 13.7246 26.7864C13.6193 26.4511 13.4149 26.195 13.1114 26.0179L12.9952 26.2501L12.701 26.5908L12.252 26.9624L11.803 27.2101C12.1272 27.2769 12.4343 27.2304 12.7243 27.0708L12.4146 27.0088C12.4187 27.326 12.5215 27.607 12.7229 27.852C12.9244 28.0969 13.1803 28.252 13.4907 28.3172V28.2011L13.5759 27.9843L13.8623 27.543L14.2184 27.1327L14.5513 26.8617L14.7216 26.7843H14.5513L14.5823 26.8076C14.4973 26.505 14.327 26.2625 14.0713 26.0798L14.11 26.2114L14.0946 26.2811L13.8933 26.6295L13.5294 27.0166L13.1191 27.3108L12.972 27.3727L12.8172 27.3417C13.0251 27.6485 13.3116 27.8343 13.6765 27.8991L13.5991 27.783V27.7056L13.6997 27.3185L13.932 26.9159L14.1952 26.6527L14.4507 26.5211L14.6133 26.4824L14.5204 26.4669L14.3655 26.3353L14.3733 26.343L14.3655 26.6527L14.2262 27.1637L13.9552 27.7288L13.5914 28.232L13.212 28.5495L13.0107 28.6269L13.1423 28.6424L13.1888 28.6965L13.0804 28.3869L13.0572 27.8295L13.181 27.2024L13.4133 26.645L13.692 26.2811L13.9242 26.134L14.0636 26.1108L14.1565 26.134L14.2959 26.2734L14.4429 26.5985L14.4971 27.0475L14.4197 27.5275L14.2262 28.0153L13.9165 28.4566L13.5217 28.8049L13.1114 29.0217L12.7939 29.0682L12.6314 29.0372L12.5075 28.9365L12.3604 28.6346L12.2753 28.0927L12.3294 27.4424L12.5694 26.7611L12.9101 26.1418L13.2585 25.6773L13.5294 25.3753C13.5401 25.3627 13.5504 25.3498 13.5604 25.3366L13.692 25.174C13.7613 25.0843 13.8077 24.984 13.8311 24.8731C13.8546 24.7622 13.8527 24.6517 13.8256 24.5416C13.7984 24.4315 13.7487 24.3328 13.6764 24.2455C13.6041 24.1582 13.5164 24.0909 13.4133 24.0437ZM12.8791 26.9082C12.8791 27.1113 12.9509 27.2846 13.0945 27.4283C13.2381 27.5719 13.4115 27.6437 13.6146 27.6437C13.8177 27.6437 13.991 27.5719 14.1346 27.4283C14.2782 27.2846 14.35 27.1113 14.35 26.9082C14.35 26.7051 14.2782 26.5318 14.1346 26.3881C13.991 26.2445 13.8177 26.1727 13.6146 26.1727C13.4115 26.1727 13.2381 26.2445 13.0945 26.3881C12.9509 26.5318 12.8791 26.7051 12.8791 26.9082ZM13.0881 27.0321L13.0262 27.2256C12.9921 27.3325 13.0007 27.4358 13.0521 27.5355C13.1035 27.6352 13.1826 27.7022 13.2895 27.7364C13.3963 27.7706 13.4996 27.762 13.5994 27.7106C13.6991 27.6593 13.7661 27.5802 13.8004 27.4733L13.8623 27.2798C13.8965 27.1729 13.8878 27.0696 13.8364 26.9699C13.785 26.8702 13.7059 26.8032 13.599 26.769C13.4922 26.7348 13.3889 26.7434 13.2891 26.7948C13.1894 26.8461 13.1224 26.9252 13.0881 27.0321Z" fill="black"/>
</svg>
