<svg width="33" height="30" viewBox="0 0 33 30" fill="none" xmlns="http://www.w3.org/2000/svg">
<g clip-path="url(#clip0_1_7394)">
<path d="M6.61916 29.3946L6.58165 28.9945L6.52539 28.3756L6.43787 27.3129L6.32535 25.8939L6.28784 24.1686L6.45037 22.1119L6.83795 19.7865L7.45682 17.3423L8.30698 14.8418L9.4947 12.2475L11.1013 9.55953L13.0516 6.9903L15.1333 4.78988L17.2024 3.12706L19.1715 2.08311L21.0344 1.67678L22.841 1.90808L24.5788 2.82075L26.1479 4.37105L27.3731 6.38393L28.1545 8.67187L28.4358 11.0848L28.2795 13.4853L27.7732 15.7607L27.048 17.8174L26.2416 19.5489L25.4165 20.8867L24.5351 21.8619L23.5349 22.5558L22.3909 22.9933L21.1969 23.1371L20.028 22.9621L18.884 22.4682L17.7713 21.6556L16.7398 20.5804L15.8959 19.2801L15.3646 17.7736L15.2458 16.0858L15.6021 14.2604L16.4085 12.4101L17.5837 10.7535L18.9152 9.54703L20.0717 9.04069L20.8844 9.14696L21.6095 9.75332L22.3409 10.5285L22.5909 11.5474C22.6551 11.6927 22.7641 11.7456 22.918 11.7063C23.0718 11.6669 23.142 11.5681 23.1285 11.4099L22.866 10.3409L22.7035 9.19071C22.6853 9.04525 22.6249 8.92023 22.5222 8.81564L21.6783 7.97173C21.5636 7.85787 21.4261 7.79119 21.2657 7.77169L20.053 7.61541C19.9227 7.59899 19.7976 7.61774 19.6779 7.67168L18.2401 8.3093C18.1731 8.34135 18.1126 8.38302 18.0588 8.43432L16.5836 9.75957C16.5462 9.79351 16.5129 9.83101 16.4835 9.87209L15.202 11.6412C15.1749 11.6805 15.152 11.7222 15.1333 11.7662L14.2456 13.7478C14.2256 13.7963 14.211 13.8463 14.2018 13.8979L13.8018 15.8982C13.789 15.9623 13.7848 16.0269 13.7893 16.092L13.9205 17.9736C13.9243 18.0399 13.9368 18.1045 13.9581 18.1674L14.5582 19.849C14.5769 19.9041 14.6019 19.9562 14.6332 20.0053L15.5646 21.4305C15.5887 21.4663 15.6158 21.4996 15.6459 21.5306L16.7586 22.7058C16.7893 22.738 16.8226 22.7672 16.8586 22.7933L18.0901 23.6935C18.133 23.7256 18.1788 23.7527 18.2276 23.7747L19.5216 24.3499C19.5836 24.3775 19.6482 24.3963 19.7154 24.4061L21.0782 24.6061C21.1425 24.6168 21.2071 24.6189 21.2719 24.6124L22.6535 24.4436C22.716 24.4348 22.7765 24.4181 22.8347 24.3936L24.1412 23.8873C24.1944 23.866 24.2444 23.839 24.2913 23.806L25.4352 23.0246C25.4835 22.9923 25.5272 22.9548 25.5665 22.9121L26.5479 21.8181C26.5783 21.7852 26.6054 21.7498 26.6292 21.7118L27.5044 20.2741C27.5205 20.2499 27.5351 20.2249 27.5481 20.1991L28.3795 18.3987C28.3912 18.3763 28.4016 18.3534 28.4108 18.33L29.1484 16.1983C29.1565 16.1695 29.1628 16.1403 29.1672 16.1108L29.6735 13.7291C29.6804 13.694 29.6846 13.6585 29.686 13.6228L29.8173 11.1036C29.8211 11.0619 29.8211 11.0202 29.8173 10.9786L29.486 8.43432C29.4804 8.38738 29.47 8.34154 29.4548 8.29679L28.6046 5.88384C28.5886 5.83778 28.5677 5.79402 28.5421 5.75256L27.2168 3.6209C27.1902 3.57765 27.159 3.53806 27.1231 3.50213L25.4415 1.81431C25.3984 1.77236 25.3505 1.73694 25.2977 1.70804L23.3973 0.626585C23.3251 0.585786 23.248 0.558698 23.1661 0.545319L21.1219 0.207755C21.0319 0.193084 20.9423 0.195168 20.8531 0.214006L18.7652 0.657841C18.6974 0.67167 18.6328 0.694591 18.5714 0.726604L16.446 1.83932C16.4016 1.86221 16.3599 1.88929 16.321 1.92058L14.1581 3.65841C14.1291 3.6814 14.1021 3.7064 14.0768 3.73343L11.9702 6.03386C11.9523 6.05377 11.9357 6.07461 11.9202 6.09638L9.97604 8.77814C9.96491 8.79436 9.95449 8.81103 9.94479 8.82815L8.31323 11.5912C8.30173 11.6115 8.29131 11.6323 8.28197 11.6537L7.06924 14.3104C7.05966 14.3329 7.05133 14.3558 7.04424 14.3792L6.18157 16.9422C6.17466 16.9586 6.1684 16.9753 6.16282 16.9922L5.54395 19.4864C5.53878 19.5071 5.53461 19.5279 5.53145 19.5489L5.16888 21.9306C5.16597 21.9493 5.16389 21.9681 5.16263 21.9869L5.0251 24.1123C5.02427 24.1311 5.02427 24.1498 5.0251 24.1686L5.08761 25.9439C5.08695 25.9606 5.08695 25.9772 5.08761 25.9939L5.25015 27.4317C5.25169 27.4464 5.25377 27.4609 5.2564 27.4754L5.45643 28.5194C5.45999 28.5342 5.46416 28.5487 5.46894 28.5632L5.63147 29.1695C5.63342 29.1758 5.63551 29.1821 5.63772 29.1883L5.76274 29.5696C5.79167 29.6826 5.85559 29.7701 5.95448 29.832C6.05337 29.8939 6.15997 29.9132 6.27428 29.8898C6.38859 29.8664 6.47908 29.8069 6.54575 29.7112C6.61242 29.6154 6.63689 29.5099 6.61916 29.3946Z" fill="black"/>
<path d="M7.75066 29.232L7.77566 29.2133C7.85698 29.1527 7.91116 29.0735 7.93819 28.9757L7.9882 28.7569C7.99041 28.7507 7.9925 28.7445 7.99445 28.7382L8.10072 28.2506L8.26326 27.463L8.51955 26.3877L8.83837 25.0562L9.20093 23.5185C9.2031 23.5122 9.20518 23.506 9.20719 23.4997L9.57601 21.7431L10.0073 19.824L10.5449 17.7799L11.2326 15.7045L12.0952 13.6853L13.0954 11.76C13.0976 11.7537 13.0997 11.7475 13.1017 11.7412L13.9768 9.96587L14.8395 8.65937L15.6397 7.85297C15.7472 7.71631 15.7395 7.5865 15.6165 7.46354C15.4936 7.34058 15.3637 7.33286 15.2271 7.44039L14.4144 8.2593L13.2204 9.35951C13.214 9.36559 13.2078 9.37184 13.2017 9.37826L11.7952 10.8223C11.7492 10.8695 11.7096 10.9216 11.6764 10.9786L10.5699 12.8789C10.5513 12.9092 10.5347 12.9404 10.5199 12.9727L9.62602 15.0543C9.61442 15.0789 9.604 15.1039 9.59476 15.1294L8.89463 17.2673C8.88773 17.2858 8.88148 17.3046 8.87587 17.3235L8.34452 19.4114C8.34206 19.426 8.33998 19.4405 8.33827 19.4552L7.94444 21.4055C7.94216 21.4159 7.94008 21.4263 7.93819 21.4368L7.65064 23.2121C7.65061 23.2163 7.65061 23.2205 7.65064 23.2246L7.4256 24.7874C7.42559 24.7895 7.42559 24.7916 7.4256 24.7937L7.25056 26.1565L7.10053 27.2567C7.10036 27.265 7.10036 27.2733 7.10053 27.2817L7.03177 28.0943C7.03099 28.111 7.03099 28.1277 7.03177 28.1443V28.6444C7.03251 28.6654 7.03459 28.6862 7.03802 28.7069L7.06928 28.9257C7.08669 29.0444 7.14295 29.1402 7.23806 29.2133L7.26307 29.232C7.4256 29.357 7.58813 29.357 7.75066 29.232Z" fill="black"/>
<path d="M20.8531 12.7226C20.8531 12.9393 20.9614 13.0477 21.1781 13.0477C21.3948 13.0477 21.5032 12.9393 21.5032 12.7226C21.5032 12.5059 21.3948 12.3975 21.1781 12.3975C20.9614 12.3975 20.8531 12.5059 20.8531 12.7226ZM21.5469 12.6351L21.5344 12.5788C21.5318 12.5577 21.5277 12.5368 21.5219 12.5163L21.4782 12.3975C21.4639 12.3597 21.4451 12.3243 21.4219 12.2913L21.3031 12.1162C21.2802 12.0795 21.2531 12.0462 21.2219 12.0162L20.9906 11.8099C20.9561 11.7803 20.9186 11.7553 20.8781 11.7349L20.5655 11.5661C20.4611 11.5133 20.3507 11.4925 20.2342 11.5036L19.7966 11.5411C19.6665 11.5528 19.5498 11.5986 19.4465 11.6786L18.9277 12.0725C18.8497 12.1346 18.7872 12.2096 18.7402 12.2975L18.2901 13.1039C18.2597 13.1593 18.2367 13.2177 18.2213 13.2789L17.94 14.3917C17.9286 14.441 17.9224 14.491 17.9213 14.5417L17.865 15.8044C17.8628 15.8505 17.8649 15.8963 17.8712 15.942L18.0525 17.1859C18.0598 17.2373 18.0723 17.2873 18.09 17.336L18.4964 18.4424C18.5156 18.4953 18.5406 18.5453 18.5714 18.5925L19.1465 19.4739C19.1883 19.5356 19.2383 19.5898 19.2965 19.6364L20.0467 20.2553C20.1248 20.3191 20.2123 20.3649 20.3092 20.3928L21.2281 20.6616C21.3371 20.6933 21.4476 20.6996 21.5594 20.6804L22.5659 20.5053C22.6573 20.4903 22.7427 20.459 22.8222 20.4116L23.8286 19.7927C23.887 19.7564 23.9391 19.7126 23.9849 19.6614L24.8601 18.6987C24.9036 18.6498 24.939 18.5957 24.9663 18.5362L25.5227 17.3297C25.5326 17.3095 25.541 17.2887 25.5477 17.2672L25.9165 15.9857L26.2666 14.923C26.3208 14.7605 26.2666 14.6521 26.1041 14.5979C25.9415 14.5438 25.8332 14.5979 25.779 14.7605L25.4352 15.7982L24.7663 16.8734L23.9099 17.7923L23.0285 18.5987L22.1908 19.0863L21.4844 19.1988L20.8718 19.0238L20.3217 18.5675L19.8591 17.8548L19.5153 16.8984L19.3465 15.7982L19.3965 14.6792L19.6341 13.7228L19.9716 13.0664L20.2404 12.7663L20.3405 12.7288L20.4217 12.7476L20.5905 12.8414L20.7405 12.9476C20.7677 12.9696 20.7968 12.9883 20.8281 13.0039L20.9468 13.0539C20.9571 13.0585 20.9675 13.0626 20.9781 13.0664L21.0343 13.0852C21.1779 13.1338 21.3067 13.1081 21.4206 13.0081C21.5345 12.9081 21.5766 12.7837 21.5469 12.6351Z" fill="black"/>
<path d="M13.0141 20.2365H12.9953C12.8751 20.2686 12.7855 20.3394 12.7265 20.4491L12.6703 20.5428C12.6441 20.5919 12.6274 20.644 12.6202 20.6991L12.589 20.9367C12.583 20.9804 12.583 21.0242 12.589 21.0679L12.6515 21.5555C12.6566 21.5897 12.6649 21.623 12.6765 21.6556L12.9266 22.4057C12.9395 22.4429 12.9562 22.4783 12.9766 22.512L13.5079 23.4309C13.5244 23.4596 13.5432 23.4866 13.5642 23.5122L14.3768 24.4686C14.403 24.5007 14.4322 24.5299 14.4643 24.5561L15.5521 25.4125C15.5889 25.4419 15.6285 25.4669 15.6708 25.4875L17.0336 26.1314C17.0738 26.1503 17.1154 26.1649 17.1586 26.1752L18.7402 26.5627C18.7792 26.5727 18.8188 26.579 18.8589 26.5815L20.6093 26.669C20.6619 26.6716 20.714 26.6674 20.7655 26.6565L22.5846 26.2689C22.6038 26.264 22.6226 26.2577 22.6409 26.2502L24.26 25.6751L25.5602 25.2125C25.708 25.1361 25.7545 25.0194 25.6997 24.8623C25.6449 24.7053 25.5359 24.6428 25.3727 24.6749L24.0974 25.1312L22.4471 25.4L20.6593 25.4438L18.9965 25.3L17.5212 24.9374L16.2709 24.3623L15.2582 23.6184L14.4956 22.7683L13.9705 21.9494L13.6704 21.293L13.5392 20.9054L13.5267 20.7554L13.5329 20.6866C13.5376 20.6196 13.5272 20.555 13.5017 20.4928L13.4892 20.4741C13.3992 20.2581 13.2408 20.179 13.0141 20.2365Z" fill="black"/>
<path d="M1.11804 14.0229C1.11804 14.1368 1.15832 14.2341 1.23888 14.3146C1.31944 14.3952 1.41669 14.4355 1.53062 14.4355C1.64455 14.4355 1.7418 14.3952 1.82236 14.3146C1.90292 14.2341 1.9432 14.1368 1.9432 14.0229C1.9432 13.909 1.90292 13.8117 1.82236 13.7312C1.7418 13.6506 1.64455 13.6103 1.53062 13.6103C1.41669 13.6103 1.31944 13.6506 1.23888 13.7312C1.15832 13.8117 1.11804 13.909 1.11804 14.0229ZM1.11179 13.9041L1.08053 14.0229C1.07611 14.0311 1.07194 14.0394 1.06803 14.0479L0.999268 14.3292C0.991973 14.36 0.987806 14.3913 0.986766 14.423L0.968012 14.9106C0.966392 14.9335 0.966392 14.9564 0.968012 14.9793L1.04303 15.6482C1.04557 15.6714 1.04974 15.6943 1.05553 15.717L1.23681 16.4734C1.24063 16.4839 1.24479 16.4943 1.24932 16.5046L1.48061 17.236C1.49009 17.2685 1.5026 17.2997 1.51812 17.3298L1.84318 17.9174C1.88774 17.9968 1.94817 18.0614 2.02446 18.1112L2.4558 18.3987C2.59106 18.4856 2.73692 18.5106 2.89338 18.4737L3.44973 18.3487C3.55266 18.3257 3.64226 18.2778 3.71854 18.2049L4.43117 17.5298C4.45664 17.5049 4.47956 17.4778 4.49993 17.4485L5.3876 16.2233C5.39676 16.2071 5.40509 16.1904 5.41261 16.1733L6.40655 14.4667C6.41093 14.4585 6.4151 14.4502 6.41905 14.4417L7.50051 12.3351C7.50261 12.333 7.50469 12.3309 7.50676 12.3288L8.66323 9.97212L9.88846 7.55291L11.1887 5.24622C11.1887 5.24414 11.1887 5.24206 11.1887 5.23997L12.2952 3.21459L13.3329 1.78931C13.4369 1.64348 13.416 1.51851 13.2702 1.41439C13.1245 1.31028 12.9995 1.33107 12.8953 1.47676L11.8576 2.90828L10.4261 4.73988C10.4148 4.75385 10.4044 4.76843 10.3948 4.78363L9.0258 7.06532C9.01928 7.07346 9.01303 7.08179 9.00704 7.09032L7.75681 9.51579C7.75472 9.51579 7.75264 9.51579 7.75055 9.51579L6.57533 11.86L5.46887 13.9229L4.45618 15.5794L3.60601 16.7359L3.04341 17.2735L2.85587 17.3173L2.7246 17.236L2.44954 16.8234L2.18699 16.1983L2.01196 15.5107L1.9432 14.8981L1.93695 14.4542L1.94945 14.1917L1.96195 14.0854C1.98632 13.8269 1.87153 13.6705 1.61756 13.6164C1.36359 13.5622 1.195 13.6581 1.11179 13.9041Z" fill="black"/>
<path d="M27.5913 0.94572L27.6163 0.970725C27.5994 0.904732 27.5661 0.848471 27.5163 0.801942L27.5476 0.920715C27.5605 0.970156 27.5813 1.016 27.6101 1.05824L27.8226 1.3833C27.8343 1.39857 27.8468 1.41315 27.8601 1.42706L28.3602 2.03343L29.1041 2.9586L29.9793 4.22759L30.8107 5.79039L31.4545 7.58448L31.8359 9.45984L32.0609 11.2539L32.1609 12.7417L32.0609 13.8357C32.0442 14.0065 32.1213 14.1003 32.2922 14.117C32.4631 14.1336 32.5568 14.0565 32.5735 13.8857L32.6798 12.773L32.8611 11.2664C32.8621 11.2498 32.8621 11.2331 32.8611 11.2164L32.8548 9.37858C32.8552 9.34922 32.8532 9.32005 32.8486 9.29106L32.5047 7.34694C32.5003 7.32148 32.494 7.29648 32.486 7.27192L31.8546 5.39032C31.8443 5.36222 31.8318 5.33513 31.8171 5.30905L30.9732 3.66499C30.962 3.64335 30.9495 3.62251 30.9357 3.60248L30.0293 2.28973C30.0194 2.27678 30.009 2.26427 29.998 2.25222L29.2229 1.32079C29.2129 1.30996 29.2025 1.29954 29.1916 1.28954L28.6478 0.720677C28.6162 0.686877 28.5807 0.657705 28.5415 0.63316L28.2102 0.433122C28.1486 0.396084 28.0819 0.375247 28.0101 0.37061L27.8851 0.364359C27.8768 0.364061 27.8685 0.364061 27.8601 0.364359H27.8289C27.6757 0.362503 27.5702 0.432456 27.5123 0.574217C27.4544 0.715977 27.4807 0.839812 27.5913 0.94572Z" fill="black"/>
</g>
<defs>
<clipPath id="clip0_1_7394">
<rect width="33" height="30" fill="white"/>
</clipPath>
</defs>
</svg>
