<svg width="39" height="39" viewBox="0 0 39 39" fill="none" xmlns="http://www.w3.org/2000/svg">
<g clip-path="url(#clip0_1_7384)">
<path d="M32.8523 36.8597C32.881 37.0769 33.0049 37.1855 33.224 37.1855C33.4431 37.1855 33.567 37.0769 33.5957 36.8597C33.567 36.6425 33.4431 36.5339 33.224 36.5339C33.0049 36.5339 32.881 36.6425 32.8523 36.8597ZM33.2078 37.2669L33.3113 37.2799C33.339 37.2848 33.3671 37.287 33.3953 37.2863L33.6539 37.2669C33.6604 37.2649 33.6668 37.2628 33.6732 37.2605L34.1128 37.2088C34.1214 37.209 34.13 37.209 34.1387 37.2088L34.7204 37.1118C34.7357 37.1082 34.7508 37.1039 34.7657 37.0989L35.4509 36.9179C35.4596 36.916 35.4682 36.9138 35.4767 36.9114L36.1555 36.6981C36.1577 36.696 36.1598 36.6938 36.1619 36.6916L36.7502 36.4912C36.7523 36.4912 36.7545 36.4912 36.7566 36.4912L37.1962 36.3361C37.1962 36.3339 37.1962 36.3318 37.1962 36.3296L37.4871 36.2262L37.6616 36.168C37.6793 36.1626 37.6965 36.1562 37.7133 36.1486L37.8232 36.1034C37.8718 36.0811 37.9149 36.0509 37.9525 36.0129L37.9978 35.9676C38.1268 35.8409 38.1613 35.6922 38.1012 35.5216L38.0883 35.4958C38.0396 35.3579 37.9447 35.2696 37.8038 35.2307L37.7392 35.2113C37.7285 35.2088 37.7177 35.2066 37.7069 35.2049L37.6487 35.1919L37.6681 35.1984L37.7004 35.2307L37.681 35.1855L37.6358 34.9916L37.5905 34.5132L37.5582 33.647L37.5905 32.3089C37.5906 32.3046 37.5906 32.3003 37.5905 32.296L37.597 30.8674L37.7651 29.6457C37.7909 29.4647 37.7133 29.3613 37.5323 29.3354C37.3514 29.3096 37.2479 29.3871 37.2221 29.5681L37.054 30.8028L36.7566 32.212C36.7537 32.2269 36.7515 32.242 36.7502 32.2572L36.6338 33.6147C36.632 33.6384 36.632 33.6621 36.6338 33.6858L36.6985 34.5714C36.6996 34.5887 36.7018 34.606 36.7049 34.6231L36.8019 35.1338C36.8034 35.1468 36.8056 35.1597 36.8084 35.1726L36.8859 35.444C36.8927 35.4663 36.9013 35.4879 36.9118 35.5087L36.9829 35.6574C37.0047 35.6987 37.0327 35.7354 37.0669 35.7673L37.1445 35.8448C37.1831 35.8865 37.2283 35.9188 37.2802 35.9418L37.3772 35.9806C37.4003 35.9892 37.424 35.9956 37.4483 36L37.5259 36.0129L37.5647 36.0258C37.6009 35.9161 37.5932 35.8095 37.5415 35.7061C37.4898 35.6027 37.4092 35.5326 37.2996 35.4958L37.2867 35.5216C37.3834 35.4698 37.4502 35.3922 37.4871 35.2889L37.4289 35.3018C37.4268 35.3018 37.4246 35.3018 37.4225 35.3018L37.235 35.3471C37.2307 35.3492 37.2263 35.3513 37.2221 35.3535L36.9118 35.4376C36.9053 35.4396 36.8988 35.4417 36.8924 35.444L36.4528 35.5798C36.4507 35.5798 36.4485 35.5798 36.4464 35.5798L35.8581 35.7673L35.1923 35.9806L34.52 36.168L33.9577 36.3102L33.5375 36.3943L33.2983 36.4395L33.2078 36.4525C32.9806 36.4931 32.867 36.6288 32.867 36.8597C32.867 37.0905 32.9806 37.2263 33.2078 37.2669Z" fill="black"/>
<path d="M28.3297 4.26705C28.3297 4.37237 28.3669 4.46226 28.4414 4.53673C28.5158 4.6112 28.6057 4.64843 28.7111 4.64843C28.8164 4.64843 28.9063 4.6112 28.9807 4.53673C29.0552 4.46226 29.0924 4.37237 29.0924 4.26705C29.0924 4.16173 29.0552 4.07184 28.9807 3.99737C28.9063 3.9229 28.8164 3.88566 28.7111 3.88566C28.6057 3.88566 28.5158 3.9229 28.4414 3.99737C28.3669 4.07184 28.3297 4.16173 28.3297 4.26705ZM28.2844 4.26705C28.2844 4.38129 28.3248 4.4788 28.4056 4.55958C28.4864 4.64036 28.5839 4.68075 28.6981 4.68075C28.8124 4.68075 28.9099 4.64036 28.9907 4.55958C29.0714 4.4788 29.1118 4.38129 29.1118 4.26705C29.1118 4.15281 29.0714 4.0553 28.9907 3.97451C28.9099 3.89373 28.8124 3.85334 28.6981 3.85334C28.5839 3.85334 28.4864 3.89373 28.4056 3.97451C28.3248 4.0553 28.2844 4.15281 28.2844 4.26705ZM28.4202 3.91152L28.3814 3.93738C28.186 4.06943 28.1019 4.25258 28.1293 4.48683L28.1681 4.79711C28.1763 4.89373 28.2043 4.98423 28.2521 5.0686L28.543 5.55342C28.5733 5.60567 28.61 5.65307 28.6529 5.69563L29.2217 6.24508C29.2552 6.27907 29.2918 6.30924 29.3316 6.33558L30.1267 6.83978C30.1516 6.85656 30.1774 6.87165 30.2043 6.88503L31.1222 7.31167C31.1412 7.32119 31.1606 7.32981 31.1804 7.33752L32.0724 7.66073C32.0789 7.66299 32.0853 7.66514 32.0918 7.6672L32.8675 7.92576C32.8718 7.92797 32.8761 7.93012 32.8804 7.93223L33.4751 8.11322L33.863 8.2619L34.1086 8.38472L34.2832 8.48168C34.3179 8.50304 34.3545 8.52028 34.3931 8.53339L34.49 8.55925C34.6196 8.59898 34.7459 8.59028 34.8688 8.53316C34.9917 8.47604 35.0797 8.38515 35.1329 8.26049C35.1861 8.13582 35.1908 8.00936 35.147 7.8811C35.1032 7.75284 35.0221 7.65569 34.9037 7.58963L34.8197 7.53791L34.6452 7.44095L34.3801 7.27935L33.9858 7.03371C33.967 7.02186 33.9476 7.01109 33.9276 7.00139L33.3588 6.72343C33.3418 6.71624 33.3246 6.70977 33.3071 6.70404L32.5508 6.41315L31.6846 6.06408L30.8248 5.66331L30.1267 5.21082L29.6548 4.75832L29.3769 4.35108C29.3748 4.34675 29.3726 4.34244 29.3704 4.33815L29.1894 4.07959C29.0979 3.95241 28.9751 3.87484 28.8209 3.84688L28.7692 3.84041C28.6432 3.81669 28.5269 3.84039 28.4202 3.91152ZM34.2056 8.06797C34.2056 8.19828 34.2517 8.30951 34.3438 8.40165C34.4359 8.49379 34.5472 8.53986 34.6775 8.53986C34.8078 8.53986 34.919 8.49379 35.0111 8.40165C35.1033 8.30951 35.1494 8.19828 35.1494 8.06797C35.1494 7.93767 35.1033 7.82644 35.0111 7.7343C34.919 7.64216 34.8078 7.59609 34.6775 7.59609C34.5472 7.59609 34.4359 7.64216 34.3438 7.7343C34.2517 7.82644 34.2056 7.93767 34.2056 8.06797ZM34.2573 8.13908L34.2638 8.17787V8.24251L34.2573 8.34593C34.2581 8.36547 34.2603 8.38487 34.2638 8.40411L34.2767 8.50754C34.2807 8.55234 34.2914 8.59543 34.309 8.63682L34.3607 8.73378C34.3627 8.7403 34.3649 8.74676 34.3672 8.75318L34.4254 8.8566L34.4965 9.01821L34.6258 9.3802C34.6278 9.38671 34.6299 9.39317 34.6322 9.39959L34.8779 9.98783C34.8799 9.99434 34.882 10.0008 34.8843 10.0072L35.2722 10.8346C35.2743 10.839 35.2764 10.8433 35.2786 10.8476L35.8152 11.8883C35.8249 11.9041 35.8357 11.9192 35.8475 11.9335L36.565 12.9613L37.108 13.9116C37.1943 14.062 37.3127 14.0942 37.4633 14.0082C37.6139 13.9221 37.6463 13.8037 37.5605 13.653L37.0175 12.7092L36.5521 11.5522C36.5504 11.5413 36.5482 11.5305 36.5456 11.5198L36.0414 10.4856L35.7311 9.66462L35.5501 9.06992C35.5464 9.05681 35.5421 9.04388 35.5372 9.03113L35.3885 8.66268C35.3729 8.61862 35.3514 8.57768 35.3239 8.53986L35.1946 8.37179C35.1732 8.34775 35.1495 8.3262 35.1235 8.30715L35.0783 8.26836L35.1106 8.31361V8.32008L35.1041 8.24251V8.17787L35.1106 8.13908C35.1107 8.02119 35.0691 7.92054 34.9858 7.83714C34.9024 7.75373 34.8018 7.71203 34.6839 7.71203C34.566 7.71203 34.4654 7.75373 34.3821 7.83714C34.2988 7.92054 34.2572 8.02119 34.2573 8.13908Z" fill="black"/>
<path d="M27.541 2.60579C27.541 2.70575 27.5763 2.79107 27.647 2.86175C27.7177 2.93244 27.803 2.96778 27.903 2.96778C28.0029 2.96778 28.0883 2.93244 28.1589 2.86175C28.2296 2.79107 28.265 2.70575 28.265 2.60579C28.265 2.50582 28.2296 2.4205 28.1589 2.34982C28.0883 2.27914 28.0029 2.24379 27.903 2.24379C27.803 2.24379 27.7177 2.27914 27.647 2.34982C27.5763 2.4205 27.541 2.50582 27.541 2.60579ZM27.5087 2.71568V2.72861L27.5216 2.80618C27.5212 2.81695 27.5212 2.82772 27.5216 2.8385L27.5604 3.05828C27.5653 3.08029 27.5717 3.10184 27.5798 3.12292L27.7155 3.53016C27.7228 3.55013 27.7315 3.56952 27.7414 3.58834L28.0193 4.13779C28.0305 4.16038 28.0435 4.18192 28.0581 4.20243L28.4783 4.77774C28.4938 4.79865 28.5111 4.81804 28.53 4.83592L29.0601 5.34659C29.0872 5.37236 29.1174 5.39391 29.1506 5.41123L29.7 5.70858L30.0879 5.99947C30.2301 6.10712 30.355 6.08986 30.4627 5.9477C30.5704 5.80554 30.5532 5.68058 30.4111 5.57284L30.0297 5.28841L29.6548 4.81006C29.6526 4.80789 29.6505 4.80573 29.6483 4.8036L29.2023 4.24768L28.8532 3.69823L28.6011 3.1811L28.446 2.79971C28.4421 2.78878 28.4378 2.778 28.433 2.76739L28.3361 2.567C28.334 2.56266 28.3318 2.55835 28.3296 2.55407L28.2844 2.4765L28.2779 2.45711C28.1786 2.22843 28.0109 2.1538 27.7746 2.23323C27.5383 2.31266 27.4496 2.47347 27.5087 2.71568Z" fill="black"/>
<path d="M3.42156 30.6918L3.42802 30.7047C3.44213 30.7569 3.46583 30.8043 3.49913 30.8469L3.58962 30.9697L3.77709 31.2218L4.09383 31.6679L4.52693 32.2755L5.03113 33.0577L5.56766 33.9691L6.09125 34.8935L6.49203 35.7855L6.7506 36.5677L6.89927 37.1883L6.99624 37.6084C6.99777 37.6215 6.99992 37.6344 7.0027 37.6472L7.07381 37.8605C7.09709 37.929 7.13587 37.9872 7.19016 38.0351L7.2548 38.0932C7.38916 38.2136 7.53784 38.2351 7.70083 38.1579L7.76547 38.1256C7.81876 38.0989 7.86401 38.0622 7.90122 38.0157L7.9594 37.9446C7.97921 37.9227 7.99645 37.899 8.01111 37.8735L8.02404 37.8411L8.04343 37.8282C7.99674 37.8506 7.9558 37.8807 7.92061 37.9187L7.99818 37.8799C7.92809 37.8758 7.8613 37.8888 7.79779 37.9187L7.94647 37.9252L8.21796 37.9704L8.74156 38.0868C8.74798 38.0891 8.75445 38.0912 8.76095 38.0932L9.69826 38.2613C9.73684 38.2671 9.77562 38.2692 9.81461 38.2678L11.2044 38.2548C11.2109 38.255 11.2173 38.255 11.2238 38.2548L12.8851 38.1773C12.8872 38.1773 12.8894 38.1773 12.8916 38.1773L14.4688 38.0738L15.7358 38.1256C15.9211 38.1342 16.018 38.0458 16.0267 37.8605C16.0353 37.6752 15.9469 37.5783 15.7616 37.5696L14.4882 37.5179L12.9239 37.3046C12.9196 37.3045 12.9153 37.3045 12.9109 37.3046L11.2561 37.1236C11.2518 37.1235 11.2475 37.1235 11.2432 37.1236L9.8534 37.0137C9.83616 37.013 9.81892 37.013 9.80168 37.0137L8.85145 37.0267C8.84714 37.0266 8.84283 37.0266 8.83852 37.0267L8.2826 37.046C8.27829 37.046 8.27399 37.046 8.26968 37.046L7.9594 37.0654C7.93971 37.0684 7.92031 37.0727 7.90122 37.0784L7.73961 37.1107C7.70115 37.1184 7.66452 37.1313 7.62972 37.1495L7.55215 37.1883C7.50489 37.2126 7.46395 37.2449 7.42934 37.2852L7.37762 37.3434C7.35421 37.371 7.33482 37.4011 7.31944 37.4339L7.30005 37.4662L7.2742 37.505C7.32509 37.4775 7.36819 37.4409 7.40348 37.3951L7.33884 37.4274C7.47691 37.5548 7.6299 37.5764 7.79779 37.4921L7.73315 37.4339C7.75741 37.5 7.7962 37.556 7.84951 37.602L7.7784 37.408L7.6879 37.0073C7.68792 37.0051 7.68792 37.0029 7.6879 37.0008L7.53276 36.3608C7.53063 36.3587 7.52848 36.3565 7.5263 36.3544L7.30652 35.5205C7.30438 35.5183 7.30223 35.5162 7.30005 35.514L7.01563 34.525C7.01383 34.5142 7.01168 34.5034 7.00916 34.4927L6.62778 33.4714C6.62044 33.4493 6.61182 33.4278 6.60192 33.4067L6.12358 32.45C6.11194 32.4277 6.09902 32.4062 6.08479 32.3854L5.56766 31.5838C5.55952 31.5706 5.5509 31.5577 5.5418 31.545L5.07638 30.9374C5.05284 30.9092 5.02699 30.8834 4.99881 30.8598L4.59157 30.4914C4.54579 30.448 4.49408 30.4135 4.43643 30.388L4.13908 30.2651C4.1017 30.2493 4.06292 30.2385 4.02272 30.2328L3.87405 30.2134C3.88687 30.2162 3.8998 30.2184 3.91283 30.2199L3.8999 30.2134C3.75415 30.1724 3.62774 30.2055 3.52068 30.3125C3.41362 30.4196 3.38058 30.546 3.42156 30.6918Z" fill="black"/>
<path d="M2.19006 12.7264L2.28056 12.6682C2.32843 12.642 2.36937 12.6075 2.40338 12.5648L2.51327 12.4161C2.52242 12.4058 2.53104 12.395 2.53912 12.3838L2.72658 12.08C2.73131 12.0694 2.73562 12.0586 2.73951 12.0476L3.04333 11.4594C3.04791 11.4509 3.05222 11.4423 3.05626 11.4335L3.48289 10.4639C3.48511 10.4596 3.48727 10.4553 3.48936 10.451L3.9871 9.19695C3.98939 9.19053 3.99155 9.18407 3.99356 9.17756L4.47191 7.82008C4.47204 7.81362 4.47204 7.80715 4.47191 7.80069L4.85976 6.54664C4.86228 6.53594 4.86443 6.52517 4.86622 6.51432L5.11832 5.44774C5.11834 5.44558 5.11834 5.44343 5.11832 5.44127L5.30578 4.60739L5.448 3.99976L5.53849 3.61838L5.59667 3.4697L5.62253 3.43738C5.39158 3.32878 5.20196 3.37834 5.05368 3.58606L5.09893 3.60545C5.052 3.53354 4.98951 3.47967 4.91147 3.44385L4.96965 3.52788C4.97173 3.53222 4.97389 3.53653 4.97611 3.54081L5.03429 3.62484C5.0424 3.63602 5.05102 3.6468 5.06015 3.65716L5.11186 3.71534C5.13115 3.73914 5.1527 3.76069 5.1765 3.77998L5.20882 3.80584C5.21517 3.81032 5.22164 3.81463 5.22821 3.81877L5.24761 3.8317C5.33286 3.61422 5.27899 3.43969 5.086 3.3081V3.32103C5.11009 3.28919 5.12948 3.25472 5.14418 3.2176L5.13125 3.23053C5.12447 3.23891 5.11801 3.24753 5.11186 3.25639L5.09893 3.27578C5.05163 3.34849 5.02793 3.42821 5.02783 3.51495V3.52788C5.02919 3.70548 5.10892 3.83477 5.267 3.91573L5.30578 3.93512C5.32853 3.94801 5.35223 3.95878 5.37689 3.96744L5.51264 4.00623C5.56109 4.02114 5.61065 4.02761 5.66131 4.02562L6.02977 4.01269C6.07157 4.01167 6.11251 4.0052 6.15259 3.9933L6.97354 3.73473C6.98229 3.73069 6.99091 3.72638 6.99939 3.7218L8.3698 3.19174C8.37855 3.18771 8.38717 3.1834 8.39565 3.17882L10.0828 2.40958L11.7441 1.85366C11.9165 1.79764 11.9746 1.68344 11.9186 1.51106C11.8626 1.33868 11.7484 1.28051 11.576 1.33653L9.90827 1.89891L8.10477 2.33201C8.08946 2.33553 8.07437 2.33984 8.05952 2.34494L6.68265 2.83621L5.90049 3.08185L5.64192 3.1271L5.58374 3.11417C5.62071 3.13257 5.65949 3.14549 5.7001 3.15296L5.66131 3.13357C5.66138 3.31597 5.74326 3.44741 5.90695 3.52788V3.51495C5.856 3.58891 5.83014 3.67079 5.82938 3.76059L5.84231 3.7412C5.80436 3.77039 5.77203 3.80487 5.74535 3.84462L5.75828 3.8317C5.80209 3.79969 5.83872 3.76091 5.86817 3.71534L5.87463 3.70241C5.9394 3.59896 5.95788 3.48782 5.93006 3.36898C5.90225 3.25014 5.83637 3.15874 5.73242 3.09478L5.71303 3.08185C5.72931 3.09605 5.74655 3.10898 5.76474 3.12064L5.75181 3.10771L5.73888 3.09478L5.71303 3.04953L5.66778 2.97843C5.66177 2.96738 5.6553 2.95661 5.64838 2.94611L5.61606 2.90732C5.52738 2.78691 5.4083 2.72471 5.25881 2.7207C5.10932 2.7167 4.98708 2.77244 4.89208 2.88793L4.82744 2.9655C4.80075 2.99911 4.7792 3.03574 4.76279 3.07539L4.6723 3.3081C4.66758 3.31871 4.66327 3.32948 4.65937 3.34042L4.53008 3.7412C4.52538 3.75181 4.52107 3.76259 4.51716 3.77352L4.36202 4.38115C4.36196 4.38546 4.36196 4.38977 4.36202 4.39408L4.17456 5.22795L3.92245 6.28161L3.56693 7.52273L3.10151 8.86081L2.62316 10.1019L2.21592 11.0586L1.94442 11.6663L1.79575 11.983L1.71818 12.1381C1.70735 12.161 1.69873 12.1847 1.69232 12.2092L1.66 12.3127C1.61435 12.4697 1.65597 12.5985 1.78487 12.6991C1.91377 12.7997 2.04884 12.8088 2.19006 12.7264Z" fill="black"/>
<path d="M22.5536 36.1701C22.5536 36.2808 22.5928 36.3752 22.671 36.4535C22.7493 36.5317 22.8437 36.5709 22.9544 36.5709C23.0651 36.5709 23.1595 36.5317 23.2378 36.4535C23.3161 36.3752 23.3552 36.2808 23.3552 36.1701C23.3552 36.0594 23.3161 35.965 23.2378 35.8867C23.1595 35.8085 23.0651 35.7693 22.9544 35.7693C22.8437 35.7693 22.7493 35.8085 22.671 35.8867C22.5928 35.965 22.5536 36.0594 22.5536 36.1701ZM22.5342 36.1572C22.5342 36.2732 22.5753 36.3722 22.6573 36.4543C22.7393 36.5363 22.8384 36.5773 22.9544 36.5773C23.0704 36.5773 23.1695 36.5363 23.2515 36.4543C23.3336 36.3722 23.3746 36.2732 23.3746 36.1572C23.3746 36.0411 23.3336 35.9421 23.2515 35.8601C23.1695 35.778 23.0704 35.737 22.9544 35.737C22.8384 35.737 22.7393 35.778 22.6573 35.8601C22.5753 35.9421 22.5342 36.0411 22.5342 36.1572ZM22.4631 36.1442C22.4631 36.2799 22.5111 36.3957 22.607 36.4916C22.703 36.5876 22.8187 36.6355 22.9544 36.6355C23.0901 36.6355 23.2059 36.5876 23.3018 36.4916C23.3977 36.3957 23.4457 36.2799 23.4457 36.1442C23.4457 36.0086 23.3977 35.8928 23.3018 35.7969C23.2059 35.7009 23.0901 35.653 22.9544 35.653C22.8187 35.653 22.703 35.7009 22.607 35.7969C22.5111 35.8928 22.4631 36.0086 22.4631 36.1442ZM22.4179 36.2541L22.4437 36.4028C22.4506 36.4519 22.4635 36.4993 22.4825 36.545L22.5924 36.7842C22.607 36.8159 22.6242 36.8461 22.6441 36.8747L22.851 37.1785C22.863 37.1965 22.8759 37.2137 22.8898 37.2302L23.1419 37.5276C23.1522 37.5388 23.163 37.5495 23.1742 37.5599L23.4263 37.812C23.4366 37.8232 23.4474 37.834 23.4586 37.8443L23.6784 38.0253C23.6867 38.0342 23.6953 38.0428 23.7043 38.0512L23.937 38.2192L23.9693 38.2386C24.2244 38.3274 24.4198 38.2551 24.5555 38.0216C24.6913 37.7881 24.6575 37.5825 24.4541 37.4048L24.4476 37.3983C24.483 37.4275 24.5218 37.4512 24.564 37.4694L24.5381 37.45C24.5656 37.4968 24.6001 37.5378 24.6416 37.5728L24.6157 37.5276C24.6009 37.6386 24.6225 37.742 24.6803 37.8379L24.6868 37.7926C24.6099 37.8698 24.5646 37.9624 24.5511 38.0706L24.5834 38.0318L24.6997 37.9413C24.7041 37.9371 24.7084 37.9327 24.7127 37.9284L24.9195 37.7538L25.1781 37.534L25.4754 37.3013C25.499 37.2818 25.5205 37.2602 25.5401 37.2367L25.7792 36.9523C25.802 36.9266 25.8214 36.8986 25.8374 36.8682L25.9344 36.6678L26.0637 36.5644C26.1718 36.4452 26.1758 36.3225 26.0757 36.1965C25.9756 36.0704 25.8552 36.0465 25.7146 36.1249L25.5853 36.2218L25.372 36.2671C25.3336 36.2749 25.297 36.2879 25.2621 36.3058L24.9324 36.4739C24.905 36.4887 24.8791 36.506 24.8549 36.5256L24.5575 36.7648C24.5509 36.7711 24.5444 36.7776 24.5381 36.7842L24.2796 37.0104C24.2706 37.0187 24.262 37.0274 24.2537 37.0363L24.0792 37.2108L23.9628 37.3078C23.9493 37.3179 23.9364 37.3287 23.924 37.3401L23.8723 37.3918C23.8006 37.4662 23.7575 37.5546 23.743 37.6569L23.7366 37.7021C23.7209 37.807 23.7381 37.9061 23.7883 37.9995L23.8077 38.0253V38.0382L23.8141 38.0447C24.0119 38.204 24.2125 38.2077 24.416 38.0559C24.6195 37.9041 24.6732 37.7108 24.5769 37.4759L24.5446 37.45C24.5714 37.4915 24.6037 37.5281 24.6416 37.5599L24.4864 37.3207C24.4727 37.3003 24.4576 37.2809 24.4412 37.2625L24.2666 37.0492L24.0404 36.7777C24.0383 36.7756 24.0361 36.7734 24.0339 36.7713L23.8012 36.4933L23.6396 36.2541L23.5491 36.0537C23.547 36.0537 23.5448 36.0537 23.5426 36.0537L23.478 35.918C23.4166 35.7932 23.322 35.7035 23.1941 35.6489C23.0662 35.5943 22.9359 35.5881 22.8034 35.6301C22.6708 35.6721 22.568 35.7523 22.4949 35.8706C22.4218 35.9889 22.3961 36.1168 22.4179 36.2541Z" fill="black"/>
<path d="M9.19091 30.5174C9.19091 30.6316 9.2313 30.7292 9.31208 30.8099C9.39286 30.8907 9.49037 30.9311 9.60461 30.9311C9.71886 30.9311 9.81637 30.8907 9.89715 30.8099C9.97793 30.7292 10.0183 30.6316 10.0183 30.5174C10.0183 30.4032 9.97793 30.3056 9.89715 30.2249C9.81637 30.1441 9.71886 30.1037 9.60461 30.1037C9.49037 30.1037 9.39286 30.1441 9.31208 30.2249C9.2313 30.3056 9.19091 30.4032 9.19091 30.5174ZM9.19091 30.4657V30.4915C9.20757 30.4522 9.21834 30.4112 9.22323 30.3687L9.19737 30.4334C9.16107 30.5183 9.14814 30.6066 9.15859 30.6984L9.17798 30.8665C9.17778 30.8751 9.17778 30.8837 9.17798 30.8923L9.21677 31.1315L9.22323 31.4612L9.17798 31.9266L9.10041 32.4631L8.99698 32.9609L8.90002 33.3552L8.82892 33.6396C8.82326 33.6609 8.81895 33.6824 8.81599 33.7042L8.79659 33.8788C8.78006 34.0098 8.80807 34.1304 8.88063 34.2408L8.93234 34.3183C9.05052 34.4921 9.21428 34.5697 9.42362 34.551L9.5529 34.5381C9.58343 34.5363 9.6136 34.532 9.6434 34.5252L9.84379 34.4735L10.1088 34.4088L10.445 34.3313C10.4668 34.3283 10.4883 34.324 10.5096 34.3183L10.8005 34.2084L11.1172 34.1632C11.1895 34.1528 11.2542 34.1248 11.3112 34.0792L11.4469 33.9693L11.615 33.9628C11.7615 33.9585 11.8326 33.8831 11.8283 33.7366C11.824 33.59 11.7486 33.5189 11.602 33.5232L11.434 33.5297L11.2853 33.4263C11.2165 33.3816 11.1411 33.36 11.0591 33.3616H10.7229L10.3868 33.3228C10.3545 33.3198 10.3221 33.3198 10.2898 33.3228L9.94722 33.3487C9.91668 33.3504 9.88651 33.3547 9.85672 33.3616L9.58522 33.4263L9.41069 33.4715L9.31373 33.478C9.43802 33.6407 9.60178 33.7096 9.805 33.6848L9.74683 33.6137C9.73284 33.7554 9.76947 33.8826 9.85672 33.9951L9.86965 33.8594L9.93429 33.6137L10.0377 33.213C10.0377 33.2108 10.0377 33.2086 10.0377 33.2065L10.167 32.6894C10.1692 32.6851 10.1714 32.6808 10.1735 32.6764L10.2898 32.1076C10.2949 32.0905 10.2993 32.0733 10.3027 32.0559L10.3545 31.5452C10.3587 31.5173 10.3608 31.4893 10.3609 31.4612L10.348 31.0604C10.3458 31.0321 10.3415 31.004 10.3351 30.9764L10.2834 30.7049C10.2717 30.6358 10.248 30.5711 10.2122 30.5109L10.1153 30.3623C10.0394 30.2404 9.93171 30.1628 9.79208 30.1295L9.7339 30.1166C9.71465 30.1132 9.69525 30.111 9.67572 30.1102L9.6434 30.1037C9.53127 30.0923 9.4312 30.1218 9.34319 30.1922C9.25518 30.2626 9.20442 30.3538 9.19091 30.4657Z" fill="black"/>
<path d="M2.61069 20.6631L2.55897 20.7665L2.44908 20.9798L2.28748 21.3095C2.2853 21.3116 2.28315 21.3138 2.28101 21.316L2.10648 21.6844L1.91902 22.0076L1.75095 22.2533L1.60874 22.4084L1.46007 22.5312L1.29846 22.6476C1.29407 22.6518 1.28976 22.6561 1.28553 22.6605L1.14332 22.7769C1.13675 22.781 1.13029 22.7853 1.12393 22.7898L1.01404 22.8803C1.00728 22.8887 1.00082 22.8973 0.994646 22.9061L0.930005 22.9708C0.885974 23.0137 0.851499 23.0632 0.826578 23.1195L0.800721 23.1841C0.76202 23.2735 0.751246 23.3662 0.768401 23.4621L0.787793 23.5396C0.79347 23.5706 0.802089 23.6008 0.81365 23.6301L0.858899 23.74C0.869505 23.767 0.882433 23.7929 0.897684 23.8176L0.994646 23.9663C1.01311 23.9966 1.03466 24.0246 1.05929 24.0503L1.24675 24.2378C1.27586 24.2676 1.30818 24.2935 1.34371 24.3153L1.65399 24.4963C1.70048 24.5236 1.75004 24.5429 1.80267 24.5545L2.2293 24.645C2.26566 24.6518 2.30229 24.6539 2.33919 24.6515L2.71411 24.6321L3.02439 24.7226C3.18427 24.7524 3.28758 24.6895 3.33432 24.5337C3.38106 24.3779 3.32946 24.2685 3.17953 24.2054L2.88218 24.1149L2.61069 23.8822C2.5905 23.8652 2.56895 23.8501 2.54604 23.837L2.17759 23.6107C2.17122 23.6063 2.16476 23.602 2.15819 23.5978L1.86731 23.4427L1.75742 23.3651L1.73156 23.3263V23.3198L1.7251 23.3004C1.71671 23.3522 1.71671 23.4039 1.7251 23.4556L1.73802 23.3909C1.66642 23.4608 1.62117 23.5448 1.60228 23.643L1.66045 23.5913L1.75095 23.5073L1.86731 23.4103L2.02245 23.3069C2.0358 23.2989 2.04872 23.2903 2.06123 23.2811L2.24223 23.1324C2.25832 23.1183 2.27341 23.1032 2.28748 23.0871L2.47494 22.8867C2.49152 22.8685 2.5066 22.8491 2.52019 22.8286L2.72058 22.5377C2.73002 22.5231 2.73864 22.508 2.74643 22.4924L2.94682 22.1304C2.95406 22.1157 2.96053 22.1006 2.96621 22.0852L3.12782 21.6973C3.13253 21.6867 3.13684 21.676 3.14075 21.665L3.2571 21.3095C3.26169 21.301 3.266 21.2924 3.27003 21.2836L3.32821 21.0509C3.32827 21.0466 3.32827 21.0423 3.32821 21.038L3.35406 20.9281C3.39123 20.7073 3.30435 20.5593 3.09343 20.4841C2.88252 20.4089 2.7216 20.4685 2.61069 20.6631Z" fill="black"/>
<path d="M34.6272 18.7665C34.6272 18.8718 34.6644 18.9617 34.7389 19.0362C34.8134 19.1106 34.9032 19.1479 35.0086 19.1479C35.1139 19.1479 35.2038 19.1106 35.2782 19.0362C35.3527 18.9617 35.3899 18.8718 35.3899 18.7665C35.3899 18.6612 35.3527 18.5713 35.2782 18.4968C35.2038 18.4223 35.1139 18.3851 35.0086 18.3851C34.9032 18.3851 34.8134 18.4223 34.7389 18.4968C34.6644 18.5713 34.6272 18.6612 34.6272 18.7665ZM35.4223 18.9539L35.4417 18.9152C35.4003 18.9503 35.3658 18.9913 35.3382 19.038L35.3512 19.0251L35.3835 19.0121C35.3021 19.0168 35.2267 19.0405 35.1572 19.0832L35.2154 19.0768C35.1187 19.0004 35.0088 18.9659 34.8857 18.9733L34.931 19.0057C34.8981 18.9339 34.8507 18.8736 34.7888 18.8247L34.8276 18.9087C34.8446 18.948 34.8662 18.9846 34.8922 19.0186L34.9827 19.1285C35.0142 19.1702 35.0509 19.2069 35.0926 19.2384L35.2671 19.3677C35.2878 19.382 35.3094 19.3949 35.3318 19.4064L35.92 19.7296C35.9327 19.7366 35.9456 19.743 35.9588 19.749L36.3208 19.9106C36.3356 19.9177 36.3507 19.9242 36.366 19.93L36.7345 20.0658C36.7557 20.0735 36.7772 20.08 36.7991 20.0852L37.1353 20.1627C37.148 20.1675 37.161 20.1718 37.1741 20.1757L37.4262 20.2145L37.5748 20.2468L37.6718 20.2726C37.6043 20.1982 37.5224 20.1465 37.4262 20.1175L37.4649 20.1627C37.5181 19.9699 37.4771 19.7997 37.3421 19.6521L37.3292 19.7038C37.3739 19.6477 37.4062 19.5852 37.4262 19.5163L37.3744 19.581L37.2775 19.6909C37.2753 19.693 37.2732 19.6952 37.271 19.6973L37.0965 19.8977C37.0897 19.9083 37.0832 19.9191 37.0771 19.93L36.8638 20.2145C36.8471 20.2371 36.832 20.2608 36.8185 20.2856L36.5987 20.6799C36.5893 20.6967 36.5807 20.714 36.5729 20.7316L36.3596 21.2164C36.349 21.2438 36.3404 21.2718 36.3337 21.3004L36.1786 21.8564C36.166 21.8943 36.1573 21.933 36.1527 21.9727L36.1139 22.5351C36.112 22.5588 36.112 22.5825 36.1139 22.6062L36.1527 23.0264L36.0752 23.3431C36.0672 23.4922 36.1356 23.5848 36.2804 23.621C36.4252 23.6572 36.5292 23.6076 36.5923 23.4724L36.6699 23.1621L36.9155 22.8324C36.9248 22.82 36.9334 22.807 36.9413 22.7937L37.2322 22.3088C37.2417 22.292 37.2503 22.2748 37.2581 22.2571L37.5037 21.7335C37.5059 21.7293 37.5081 21.7249 37.5102 21.7206L37.717 21.2487L37.9045 20.8544L38.0596 20.5441L38.1631 20.3502L38.2342 20.2532C38.2364 20.2511 38.2385 20.249 38.2406 20.2468L38.2924 20.1692C38.3363 20.1086 38.3665 20.0419 38.3829 19.9688L38.3958 19.9171C38.433 19.7464 38.3963 19.5935 38.2859 19.4582L38.2471 19.4129C38.2118 19.37 38.1709 19.3334 38.1243 19.303L38.0273 19.2384C37.9796 19.2044 37.9279 19.1786 37.8722 19.1608L37.6912 19.1156C37.6805 19.1109 37.6698 19.1066 37.6589 19.1026L37.4132 19.0509L37.1288 18.9669L36.8056 18.8311L36.463 18.6695L35.8683 18.3722C35.8619 18.3699 35.8554 18.3677 35.8489 18.3657L35.655 18.2752C35.6528 18.2752 35.6507 18.2752 35.6485 18.2752L35.5386 18.23L35.4869 18.1976C35.4743 18.1906 35.4613 18.1841 35.4481 18.1782L35.3964 18.1524C35.3036 18.1087 35.2066 18.0957 35.1055 18.1136L35.0473 18.1265C34.99 18.1362 34.9361 18.1556 34.8857 18.1847L34.8211 18.2235C34.7983 18.2368 34.7768 18.2519 34.7565 18.2687L34.7112 18.3075C34.6148 18.3891 34.5588 18.4925 34.5431 18.6178L34.5367 18.6566C34.4875 18.9248 34.5922 19.1022 34.8506 19.189C35.1091 19.2758 35.2996 19.1974 35.4223 18.9539Z" fill="black"/>
<path d="M20.831 13.7075C20.831 13.8128 20.8682 13.9027 20.9427 13.9772C21.0171 14.0516 21.107 14.0889 21.2124 14.0889C21.3177 14.0889 21.4076 14.0516 21.482 13.9772C21.5565 13.9027 21.5937 13.8128 21.5937 13.7075C21.5937 13.6022 21.5565 13.5123 21.482 13.4378C21.4076 13.3633 21.3177 13.3261 21.2124 13.3261C21.107 13.3261 21.0171 13.3633 20.9427 13.4378C20.8682 13.5123 20.831 13.6022 20.831 13.7075ZM20.9603 14.0242L20.9796 14.0436C20.9554 13.9758 20.9166 13.9176 20.8633 13.8691L20.8892 13.9337C20.8892 13.8827 20.8805 13.8331 20.8633 13.7851V13.8368L20.8051 13.979L20.6047 14.3345L20.3074 14.8258L19.9325 15.3946L19.5252 16.0023C19.523 16.0044 19.5209 16.0066 19.5187 16.0087L19.118 16.6164C19.1158 16.6206 19.1136 16.625 19.1115 16.6293L18.756 17.2175C18.7538 17.2218 18.7516 17.2261 18.7495 17.2305L18.4457 17.767C18.4435 17.7691 18.4414 17.7713 18.4392 17.7735L18.1742 18.2518L17.948 18.6461L17.7411 18.9564L17.5536 19.1956L17.3791 19.4024L17.2175 19.5899C17.2109 19.5962 17.2044 19.6026 17.1981 19.6093L17.0753 19.7709C17.0686 19.7793 17.0621 19.7879 17.0559 19.7967L16.9654 19.926C16.9531 19.9468 16.9423 19.9683 16.9331 19.9907L16.8878 20.0812C16.8832 20.0918 16.8788 20.1026 16.8749 20.1135L16.8491 20.1652C16.8051 20.2757 16.8008 20.3878 16.8361 20.5013L16.8426 20.5272C16.9052 20.7288 17.041 20.8452 17.2498 20.8762L17.2886 20.8827C17.3057 20.8858 17.323 20.8879 17.3403 20.8892L17.4308 20.8956L17.4114 20.8892L17.405 20.8827L17.4567 20.928C17.4731 20.9419 17.4904 20.9549 17.5084 20.9667L17.6312 21.0443C17.6698 21.0688 17.7107 21.0881 17.754 21.1025L17.9156 21.1542L18.0772 21.2124C18.09 21.2172 18.1029 21.2215 18.116 21.2253L18.2841 21.277C18.2884 21.2771 18.2927 21.2771 18.297 21.277L18.4522 21.3158C18.5738 21.3475 18.688 21.3303 18.7948 21.2641L18.8271 21.2447C18.7209 21.1405 18.6045 21.1275 18.478 21.2059L18.5621 21.29C18.6952 21.4022 18.8233 21.3967 18.9465 21.2736C19.0696 21.1505 19.075 21.0223 18.9628 20.8892L18.8788 20.8051C18.8107 20.9284 18.8257 21.0404 18.924 21.1413L18.9434 21.109C19.0136 20.9829 19.02 20.8536 18.9628 20.7211L18.8982 20.5724C18.8759 20.52 18.8457 20.4726 18.8077 20.4302L18.6913 20.3009C18.6301 20.2336 18.5568 20.184 18.4716 20.1523L18.297 20.0876C18.2697 20.0768 18.2417 20.0682 18.213 20.0618L18.0449 20.0294C18.0364 20.0271 18.0277 20.0249 18.0191 20.023L17.9221 20.0036L17.8898 19.9971L17.8251 19.9583C17.7821 19.9368 17.7368 19.9217 17.6894 19.9131L17.5989 19.8937C17.5753 19.8899 17.5516 19.8877 17.5278 19.8872L17.4244 19.8808H17.4114C17.4564 20.1103 17.5943 20.2439 17.8251 20.2815L17.8187 20.2557C17.7893 20.3402 17.7828 20.4263 17.7993 20.5143L17.8057 20.5013L17.8187 20.4755L17.8769 20.3914L17.9932 20.2492L18.1548 20.0682C18.1548 20.0661 18.1548 20.0639 18.1548 20.0618L18.3358 19.8484C18.3401 19.8464 18.3445 19.8442 18.3487 19.842L18.5556 19.5834C18.565 19.5688 18.5736 19.5537 18.5814 19.5382L18.8077 19.1956C18.8144 19.1872 18.8209 19.1785 18.8271 19.1697L19.0598 18.756C19.062 18.7539 19.0641 18.7517 19.0663 18.7495L19.3313 18.2647L19.6286 17.7411L19.9777 17.1594L20.3526 16.5453L20.7469 15.9312L21.1283 15.3494C21.1328 15.343 21.1371 15.3366 21.1413 15.33L21.4386 14.8193C21.448 14.8047 21.4567 14.7896 21.4645 14.7741L21.6519 14.3733C21.6628 14.3482 21.6714 14.3224 21.6778 14.2957L21.7424 14.0372C21.7559 13.9862 21.7602 13.9345 21.7553 13.882L21.7424 13.7463C21.7354 13.6736 21.7117 13.6068 21.6713 13.5459L21.6325 13.4812C21.5498 13.3562 21.4334 13.2915 21.2835 13.2873H21.2511C21.0532 13.2802 20.9179 13.3687 20.8452 13.553C20.7725 13.7372 20.8108 13.8943 20.9603 14.0242Z" fill="black"/>
<path d="M19.5965 22.7056L19.6029 22.725C19.6125 22.7566 19.6254 22.7868 19.6417 22.8155L19.674 22.8737L19.7387 22.9836L19.8162 23.171L19.8938 23.4167L19.9585 23.6688L19.9843 23.8886L19.9908 24.1083V24.3023C19.9908 24.3044 19.9908 24.3066 19.9908 24.3087L19.9972 24.4509C19.9964 24.4682 19.9964 24.4854 19.9972 24.5027L20.0037 24.5802C20.022 24.7459 20.1017 24.873 20.2429 24.9616L20.2558 24.9681C20.363 25.0364 20.4794 25.0608 20.605 25.0411C20.7307 25.0214 20.834 24.9626 20.9152 24.8647L20.9216 24.8517L20.9604 24.8129L21.0444 24.7289L21.1931 24.5996C21.202 24.5913 21.2107 24.5827 21.219 24.5738L21.387 24.4057C21.5026 24.2879 21.5457 24.1479 21.5163 23.9855L21.5034 23.895C21.402 23.961 21.361 24.0536 21.3806 24.173L21.5357 24.076C21.6639 23.9718 21.6836 23.85 21.5946 23.7107C21.5056 23.5714 21.3869 23.5381 21.2384 23.6106L21.0832 23.7076C21.1793 23.7619 21.2741 23.7597 21.3676 23.7011L21.2836 23.6559C21.1207 23.563 20.9591 23.5652 20.7988 23.6623L20.5984 23.7916C20.5757 23.805 20.5541 23.8201 20.5338 23.8369L20.3722 23.9791C20.3537 23.995 20.3364 24.0123 20.3205 24.0308L20.2235 24.1407L20.1718 24.1988C20.2612 24.1706 20.3366 24.121 20.398 24.0502L20.3786 24.0566C20.3009 24.2539 20.3343 24.4302 20.4789 24.5853C20.6235 24.7404 20.7969 24.7862 20.9992 24.7224L21.0057 24.703C21.0307 24.6363 21.0415 24.5674 21.038 24.4962V24.4316V24.3217L21.0444 24.1342C21.0471 24.1214 21.0492 24.1084 21.0509 24.0954L21.0444 23.8369C21.0439 23.813 21.0417 23.7893 21.038 23.7657L20.9992 23.4878C20.9962 23.466 20.9919 23.4444 20.9863 23.4231L20.9087 23.1323C20.9029 23.1169 20.8965 23.1018 20.8893 23.087L20.7859 22.809C20.7748 22.7843 20.7619 22.7606 20.7471 22.7379L20.6243 22.5182C20.6057 22.4878 20.5842 22.4598 20.5596 22.4341L20.4497 22.3113C20.3664 22.2194 20.263 22.1676 20.1395 22.1562L20.0619 22.1497C19.9265 22.1367 19.8102 22.1776 19.7128 22.2725L19.7064 22.2855C19.5852 22.4034 19.5485 22.5435 19.5965 22.7056Z" fill="black"/>
<path d="M26.1381 15.0003L26.1575 15.0132C26.2224 15.0707 26.2978 15.1052 26.3837 15.1166L26.429 15.1231C26.4311 15.1231 26.4333 15.1231 26.4354 15.1231H26.4807L26.5518 15.1425C26.5792 15.1515 26.6072 15.1579 26.6358 15.1619L26.7974 15.1748C26.8498 15.1786 26.9015 15.1743 26.9526 15.1619L27.1723 15.1166C27.2058 15.1091 27.2381 15.0983 27.2693 15.0843L27.5149 14.9744C27.5421 14.9616 27.568 14.9465 27.5925 14.9292L27.8123 14.7805C27.84 14.7636 27.8659 14.7442 27.8899 14.7223L28.0515 14.5478C28.0678 14.5316 28.0828 14.5144 28.0967 14.4961L28.2131 14.3345C28.2175 14.3303 28.2218 14.3259 28.226 14.3216L28.2971 14.2181L28.3553 14.1535C28.2329 14.1677 28.1317 14.2216 28.0515 14.3151L28.0967 14.3086C28.004 14.0864 27.8381 13.9894 27.599 14.0177L27.6119 14.0565L27.6313 14.147C27.6365 14.1668 27.643 14.1862 27.6507 14.2052L27.7218 14.3991C27.7313 14.4192 27.742 14.4386 27.7541 14.4573L27.8705 14.6771C27.8783 14.6926 27.8869 14.7077 27.8963 14.7223L28.0709 14.9744C28.1073 15.0268 28.1525 15.0699 28.2066 15.1037L28.3811 15.2136L28.4587 15.4205C28.5278 15.5926 28.6484 15.6443 28.8206 15.5754C28.9929 15.5065 29.0446 15.3859 28.9758 15.2136L28.8853 14.9938L28.9112 14.774C28.9243 14.687 28.9135 14.6029 28.8789 14.5219L28.7561 14.244C28.752 14.2352 28.7477 14.2266 28.7431 14.2181L28.6332 14.0048L28.5621 13.8497L28.5169 13.7398C28.5112 13.7244 28.5047 13.7093 28.4975 13.6945L28.4652 13.6234C28.3605 13.4137 28.1924 13.3275 27.961 13.3649L27.9157 13.3713C27.8 13.3919 27.7052 13.4479 27.6313 13.5394L27.5667 13.617L27.4632 13.7268C27.4611 13.729 27.4589 13.7311 27.4568 13.7333L27.3533 13.8561L27.2305 13.9596L27.0689 14.0565L26.8944 14.1341L26.7392 14.1729L26.6035 14.1987L26.5001 14.2117C26.4782 14.2144 26.4567 14.2188 26.4354 14.2246L26.3643 14.2504C26.3154 14.2643 26.2701 14.2858 26.2286 14.3151L26.1898 14.3409C26.1308 14.3833 26.0855 14.4371 26.054 14.5025L26.0411 14.5155C25.9468 14.7024 25.9791 14.864 26.1381 15.0003Z" fill="black"/>
<path d="M30.6048 9.99061C30.6048 10.1013 30.6439 10.1957 30.7222 10.274C30.8004 10.3523 30.8949 10.3914 31.0056 10.3914C31.1162 10.3914 31.2107 10.3523 31.289 10.274C31.3672 10.1957 31.4063 10.1013 31.4063 9.99061C31.4063 9.87993 31.3672 9.78547 31.289 9.70721C31.2107 9.62896 31.1162 9.58983 31.0056 9.58983C30.8949 9.58983 30.8004 9.62896 30.7222 9.70721C30.6439 9.78547 30.6048 9.87993 30.6048 9.99061ZM31.025 9.58336H31.0056C31.0633 9.61802 31.1258 9.63741 31.193 9.64154L31.1801 9.62861C31.059 9.55624 30.9319 9.54331 30.7987 9.58983L30.7599 9.60276C30.6527 9.6404 30.5687 9.7072 30.5078 9.80315L30.469 9.85486C30.4043 9.95304 30.3763 10.0608 30.385 10.1781L30.3915 10.2492C30.4073 10.4507 30.5043 10.5994 30.6823 10.6952L30.8052 10.7598C30.854 10.7868 30.9057 10.8062 30.9603 10.818L31.1801 10.8633C31.212 10.8704 31.2444 10.8747 31.2771 10.8762L31.5615 10.8827C31.5895 10.8848 31.6175 10.8848 31.6455 10.8827L31.9493 10.8439C31.9912 10.8398 32.0322 10.8312 32.0721 10.818L32.376 10.7146C32.4222 10.6965 32.4652 10.6728 32.5052 10.6435L32.7444 10.4819C32.7796 10.4597 32.812 10.4338 32.8414 10.4043L33.0224 10.2104C33.0338 10.198 33.0445 10.185 33.0547 10.1716L33.2098 9.97121C33.2143 9.96484 33.2186 9.95838 33.2228 9.95182L33.3456 9.77082C33.3477 9.77084 33.3499 9.77084 33.352 9.77082L33.3973 9.69972L33.4038 9.69325C33.3773 9.48879 33.2682 9.34877 33.0764 9.2732C32.8846 9.19764 32.7093 9.22561 32.5505 9.35712L32.557 9.42176C32.5623 9.37867 32.5623 9.33557 32.557 9.29248L32.5376 9.44762C32.5376 9.44977 32.5376 9.45193 32.5376 9.45408L32.5117 9.67386C32.5111 9.68895 32.5111 9.70403 32.5117 9.71911L32.5052 9.97121C32.5037 9.99492 32.5037 10.0186 32.5052 10.0423L32.5376 10.3526C32.5391 10.3678 32.5412 10.3829 32.544 10.3978L32.6151 10.7728C32.617 10.7836 32.6191 10.7944 32.6216 10.8051L32.738 11.2447C32.7501 11.2877 32.7674 11.3287 32.7897 11.3675L33.0094 11.7747C33.0347 11.8212 33.067 11.8622 33.1064 11.8975L33.365 12.1238L33.5072 12.3888C33.5978 12.5175 33.7132 12.5459 33.8532 12.474C33.9932 12.4021 34.0373 12.2918 33.9855 12.1432L33.8563 11.8911L33.8692 11.5679C33.8692 11.5418 33.8671 11.516 33.8627 11.4903L33.7981 11.0313C33.7962 11.0205 33.7941 11.0097 33.7916 10.999L33.7011 10.5595L33.63 10.2039L33.5912 9.93889L33.5848 9.74497L33.5977 9.54458C33.5977 9.54242 33.5977 9.54027 33.5977 9.53811L33.6041 9.38298C33.6082 9.32844 33.6039 9.27457 33.5912 9.22137L33.5718 9.15673C33.5475 9.06872 33.5033 8.99228 33.439 8.92743C33.3747 8.86257 33.2987 8.81761 33.2109 8.79252C33.1231 8.76744 33.0348 8.76546 32.946 8.78657C32.8572 8.80768 32.7792 8.84919 32.7121 8.91109L32.6539 8.9628C32.6298 8.98655 32.6083 9.0124 32.5893 9.04037L32.4988 9.16319L32.3889 9.30541L32.2596 9.44762L32.1174 9.56397L31.9558 9.66093L31.7554 9.72558L31.5615 9.75143L31.3676 9.74497L31.2318 9.71265L31.1542 9.68679L31.1154 9.6674C31.1537 9.83397 31.2506 9.95248 31.4063 10.0229L31.3999 9.98414L31.3934 9.97768V9.97121C31.2491 10.0576 31.1823 10.1847 31.193 10.3526L31.2189 10.3397C31.3927 10.2356 31.4544 10.0854 31.4041 9.88917C31.3538 9.69294 31.2274 9.591 31.025 9.58336Z" fill="black"/>
<path d="M7.68373 7.84968C7.68373 7.94964 7.71907 8.03496 7.78976 8.10565C7.86044 8.17633 7.94576 8.21167 8.04572 8.21167C8.14568 8.21167 8.23101 8.17633 8.30169 8.10565C8.37237 8.03496 8.40772 7.94964 8.40772 7.84968C8.40772 7.74972 8.37237 7.66439 8.30169 7.59371C8.23101 7.52303 8.14568 7.48768 8.04572 7.48768C7.94576 7.48768 7.86044 7.52303 7.78976 7.59371C7.71907 7.66439 7.68373 7.74972 7.68373 7.84968ZM8.42064 7.70747L8.40772 7.66222C8.40729 7.71335 8.41591 7.76291 8.43357 7.81089V7.79796V7.78504L8.47236 7.72686C8.364 7.75664 8.27997 7.81913 8.22026 7.91432L8.27843 7.89493C8.16623 7.68196 7.99386 7.60655 7.7613 7.66868L7.80009 7.74625C7.80727 7.66231 7.79218 7.58259 7.75484 7.50708L7.74191 7.64282L7.65141 7.90139L7.4187 8.45084C7.41419 8.45936 7.40988 8.46798 7.40577 8.4767L7.08256 9.3429C7.07798 9.35356 7.07367 9.36434 7.06964 9.37522L6.71411 10.4612C6.71178 10.4698 6.70963 10.4784 6.70764 10.4871L6.36504 11.67C6.36263 11.6807 6.36047 11.6915 6.35858 11.7023L6.09355 12.8206C6.09138 12.8228 6.08922 12.8249 6.08708 12.8271L5.88023 13.7644C5.88019 13.7687 5.88019 13.773 5.88023 13.7773L5.74448 14.4496C5.74444 14.4539 5.74444 14.4582 5.74448 14.4625L5.66691 14.8762C5.64968 14.9748 5.65615 15.0717 5.68631 15.1671L5.73155 15.3093C5.77233 15.4541 5.85687 15.5657 5.98517 15.6441C6.11346 15.7226 6.25133 15.747 6.39877 15.7173C6.5462 15.6877 6.66391 15.6119 6.75189 15.4899C6.83988 15.3679 6.87468 15.2323 6.85632 15.0831L6.84339 15.0055C6.8315 15.0612 6.82935 15.1172 6.83693 15.1736L6.8951 14.9215L7.01146 14.553C7.02262 14.5106 7.02693 14.4675 7.02439 14.4237V13.9583L7.12781 13.4994C7.15679 13.3249 7.0848 13.2191 6.91185 13.182C6.7389 13.145 6.62989 13.212 6.58482 13.383L6.48786 13.8226L6.25515 14.2169C6.24213 14.2396 6.23136 14.2633 6.22283 14.288L6.10648 14.5918L5.98366 14.7469C6.14214 14.7492 6.27142 14.6888 6.37151 14.5659H6.29394C6.25524 14.7428 6.29188 14.9024 6.40387 15.0447C6.51585 15.187 6.66236 15.2601 6.84339 15.2641L6.87571 15.1219L6.96621 14.7146L7.12781 14.0553L7.36052 13.1374L7.6708 12.0449L8.01987 10.8749L8.36247 9.78893C8.36488 9.7782 8.36704 9.76743 8.36893 9.7566L8.61457 8.87101C8.62106 8.84116 8.62537 8.81099 8.6275 8.78052L8.70507 8.16642C8.70906 8.14072 8.71121 8.11486 8.71153 8.08885L8.70507 7.73332C8.70362 7.70275 8.69931 7.67258 8.69214 7.64282L8.65335 7.4489C8.64236 7.39081 8.62082 7.33694 8.58871 7.2873L8.537 7.21619C8.46026 7.10179 8.35353 7.03612 8.21682 7.0192C8.08011 7.00227 7.96059 7.03992 7.85826 7.13216L7.80655 7.1774C7.75744 7.22279 7.72081 7.27666 7.69666 7.33901L7.65787 7.44244C7.65294 7.45516 7.64863 7.46809 7.64495 7.48122L7.61262 7.59758C7.59937 7.63965 7.59291 7.68275 7.59323 7.72686V7.81089C7.5966 7.87519 7.61384 7.93552 7.64495 7.99189L7.66434 8.03067C7.78569 8.24602 7.96003 8.30513 8.18733 8.20799C8.41463 8.11085 8.49241 7.94401 8.42064 7.70747Z" fill="black"/>
<path d="M8.12329 9.9893L8.14914 9.94406C8.16779 9.90718 8.18072 9.86839 8.18793 9.8277L8.21378 9.6467L8.25903 9.37521L8.3366 9.052L8.46589 8.71586L8.64688 8.35387L8.8602 8.03713C8.86459 8.0329 8.8689 8.02859 8.87313 8.0242L9.02827 7.77856C9.10715 7.65361 9.12655 7.52001 9.08645 7.37778L9.07352 7.34546C9.02073 7.15257 8.89725 7.03222 8.70307 6.9844C8.50889 6.93658 8.34364 6.98583 8.20732 7.13215L8.11682 7.22911C8.10996 7.23964 8.1035 7.25042 8.09743 7.26143L8.01339 7.36486L7.89704 7.46828C8.04729 7.46898 8.17657 7.41727 8.28489 7.31314H8.27843C7.99035 7.43467 7.8768 7.64876 7.93778 7.95541C7.99875 8.26206 8.18556 8.41643 8.49821 8.41851L8.54346 8.39912C8.54779 8.39702 8.5521 8.39487 8.55638 8.39266L8.64042 8.36034L8.75031 8.32155C8.76784 8.31587 8.78508 8.30941 8.80202 8.30216L8.93777 8.23752L9.17694 8.14055L9.55833 7.99188L10.069 7.79795L10.5991 7.5911C10.6189 7.58348 10.6383 7.57486 10.6572 7.56524L11.1291 7.32607C11.1612 7.30961 11.1913 7.29022 11.2196 7.26789L11.504 7.05458L11.7432 6.96408C11.8443 6.91956 11.9165 6.84655 11.96 6.74506C12.0035 6.64357 12.0065 6.54089 11.9691 6.43702C11.9316 6.33315 11.8637 6.25604 11.7655 6.20567C11.6672 6.1553 11.565 6.14522 11.4588 6.17545L11.2196 6.25948L10.8641 6.27241C10.8227 6.27215 10.7817 6.27646 10.7413 6.28534L10.2306 6.41462C10.2131 6.42032 10.1958 6.42678 10.1789 6.43402L9.6359 6.61501C9.63156 6.61712 9.62725 6.61927 9.62297 6.62148L9.1123 6.8154C9.10797 6.81751 9.10366 6.81966 9.09937 6.82187L8.71152 6.97701C8.69619 6.98288 8.6811 6.98934 8.66627 6.9964L8.4271 7.11275C8.40477 7.12437 8.38322 7.1373 8.36246 7.15154L8.22671 7.24204C8.20893 7.25194 8.1917 7.26272 8.175 7.27436L8.10389 7.33253L8.06511 7.35193L8.04572 7.36486C8.22494 7.49805 8.41671 7.5196 8.62103 7.4295L8.61456 7.42303C8.52635 7.67932 8.59099 7.88832 8.80849 8.05006L8.84081 7.95956L8.87959 7.91431L8.9507 7.83028C8.84862 7.73475 8.72771 7.68887 8.58796 7.69265C8.4482 7.69642 8.32994 7.74876 8.23318 7.84967L8.25903 7.87552C8.34019 7.66691 8.29925 7.48591 8.13621 7.33253L8.03279 7.5911L7.87765 7.95956L7.69019 8.3668C7.68788 8.37321 7.68572 8.37968 7.68372 8.38619L7.53505 8.77404C7.52719 8.79297 7.52072 8.81236 7.51565 8.83222L7.43162 9.19421C7.42905 9.2049 7.42689 9.21568 7.42516 9.22653L7.37991 9.51096C7.37984 9.51527 7.37984 9.51958 7.37991 9.52388L7.36051 9.70488C7.35452 9.75266 7.35668 9.80006 7.36698 9.84709L7.37991 9.89234C7.42235 10.072 7.53509 10.1737 7.71811 10.1976C7.90112 10.2215 8.03618 10.152 8.12329 9.9893Z" fill="black"/>
<path d="M2.37024 21.5731L2.33145 21.6119C2.31939 21.6283 2.30861 21.6455 2.29913 21.6636L2.19571 21.8187L1.99532 22.1355L1.7109 22.588L1.40062 23.0469L1.12266 23.4412L0.922268 23.6998L0.838234 23.8161C0.6902 24.0089 0.701162 24.1922 0.871121 24.3659C1.04108 24.5396 1.22404 24.5546 1.42001 24.4108L1.4394 24.3915C1.44156 24.3915 1.44371 24.3915 1.44586 24.3915L1.54929 24.3139C1.55364 24.3118 1.55795 24.3097 1.56222 24.3074L1.68504 24.2105C1.68944 24.2062 1.69375 24.2019 1.69797 24.1975L1.81432 24.0941C1.83059 24.0802 1.84568 24.0651 1.85957 24.0489L1.9436 23.9519C1.95791 23.9357 1.97083 23.9184 1.98239 23.9002L2.02764 23.8226C2.04033 23.802 2.05111 23.7805 2.05996 23.758L2.08582 23.6933C2.11043 23.6308 2.11905 23.5662 2.11167 23.4994L2.10521 23.4735C2.10536 23.4671 2.10536 23.4606 2.10521 23.4542V23.4348L2.09874 23.3507C2.09917 23.34 2.09917 23.3292 2.09874 23.3184L2.09228 23.2861V23.2732C2.08243 23.3113 2.07812 23.3501 2.07935 23.3895L2.08582 23.3701C2.11548 23.2515 2.09802 23.1402 2.03345 23.0364C1.96888 22.9325 1.87683 22.8677 1.75731 22.8418C1.63779 22.8159 1.52716 22.8369 1.42541 22.9047C1.32366 22.9725 1.26175 23.0666 1.23967 23.1869C1.21759 23.3072 1.24206 23.4171 1.31309 23.5166C1.38411 23.6162 1.48009 23.6751 1.601 23.6933H1.6204C1.56112 23.5426 1.45123 23.4564 1.29072 23.4348L1.30365 23.4606C1.29854 23.4294 1.28992 23.3993 1.2778 23.3701L1.28426 23.4089L1.29072 23.5059C1.29203 23.5211 1.29419 23.5362 1.29719 23.5511L1.30365 23.5899C1.30925 23.5511 1.30925 23.5123 1.30365 23.4735L1.29719 23.4994C1.31317 23.4643 1.32394 23.4277 1.32951 23.3895L1.31012 23.4283L1.29072 23.4606L1.25194 23.5123L1.16791 23.5834L1.08387 23.6545L0.999838 23.7063C1.09182 23.718 1.17801 23.7008 1.2584 23.6545L1.23255 23.6481C1.18844 23.708 1.1621 23.7749 1.15353 23.8488C1.14496 23.9227 1.15529 23.9938 1.18451 24.0623C1.21374 24.1307 1.25801 24.1873 1.31733 24.2322C1.37664 24.2771 1.44319 24.3043 1.51697 24.3139L1.601 24.1975L1.79493 23.939C1.79954 23.9305 1.80384 23.9219 1.80786 23.9131L2.07935 23.5059L2.38963 23.034C2.39179 23.034 2.39394 23.034 2.3961 23.034L2.68698 22.5815C2.68916 22.5794 2.69132 22.5772 2.69345 22.575L2.89384 22.2583C2.89386 22.2561 2.89386 22.254 2.89384 22.2518L2.9908 22.0967C2.99298 22.0945 2.99513 22.0924 2.99726 22.0902L3.02312 22.0385C3.12045 21.8331 3.07658 21.6644 2.8915 21.5325C2.70642 21.4006 2.53267 21.4141 2.37024 21.5731ZM1.20669 23.3249L1.21315 23.4089C1.22805 23.5583 1.29485 23.679 1.41354 23.7709L1.62686 23.9325C1.66257 23.9612 1.70136 23.9849 1.74322 24.0036L2.15692 24.1781C2.20264 24.1963 2.25004 24.2071 2.29913 24.2105L2.78395 24.2492L3.22997 24.4496C3.39804 24.5229 3.51871 24.4755 3.59197 24.3074C3.66523 24.1394 3.61782 24.0187 3.44975 23.9454L3.01666 23.758L2.68052 23.4089C2.66438 23.3926 2.64714 23.3775 2.62881 23.3637L2.27328 23.0922C2.26073 23.083 2.2478 23.0744 2.23449 23.0663L2.01471 22.9176C1.95685 22.8817 1.89436 22.858 1.82725 22.8465L1.74322 22.8271C1.59341 22.8007 1.46274 22.8392 1.35121 22.9426C1.23969 23.0461 1.19151 23.1735 1.20669 23.3249Z" fill="black"/>
<path d="M13.702 19.1296L13.6955 19.1231C13.6055 19.0603 13.5062 19.037 13.3976 19.0532C13.289 19.0694 13.2008 19.1208 13.1331 19.2072L13.0814 19.2718C13.0672 19.2881 13.0542 19.3053 13.0426 19.3235L12.9521 19.4787C12.9499 19.4829 12.9477 19.4872 12.9456 19.4916L12.797 19.7825C12.7899 19.7951 12.7834 19.808 12.7776 19.8213L12.5901 20.2673C12.5822 20.2884 12.5757 20.3099 12.5707 20.3319L12.4091 20.946C12.4069 20.9503 12.4048 20.9546 12.4027 20.9589L12.254 21.6248L12.1118 22.2453L11.9696 22.7495L11.8209 23.1244L11.6787 23.3895L11.5429 23.6093C11.5334 23.6238 11.5248 23.6389 11.5171 23.6545L11.446 23.8096L11.3813 23.8937L11.3361 23.9454L11.2908 23.9777C11.2701 23.991 11.2507 24.0061 11.2326 24.023L11.1809 24.0747C11.1718 24.085 11.1631 24.0958 11.1551 24.107L11.1163 24.1522C11.1042 24.1687 11.0934 24.1859 11.084 24.204L11.0581 24.2492C11.041 24.2799 11.0281 24.3122 11.0193 24.3462L10.9999 24.3979C10.9927 24.4254 10.9884 24.4535 10.987 24.4819V24.5336C10.9842 24.5706 10.9863 24.6072 10.9935 24.6435L11.0064 24.6823C11.0038 24.6604 10.9995 24.6389 10.9935 24.6177L10.9999 24.6435C11.0062 24.7515 11.0471 24.8442 11.1228 24.9215L11.2326 25.0378C11.2655 25.069 11.3021 25.0949 11.3425 25.1154L11.4783 25.193C11.4868 25.1975 11.4954 25.2019 11.5041 25.2059L11.7045 25.3029C11.7067 25.305 11.7088 25.3072 11.711 25.3093L11.9502 25.4192L12.2087 25.555C12.2418 25.5704 12.2762 25.5811 12.3122 25.5873L12.5125 25.6325L12.6418 25.736C12.7735 25.8063 12.8864 25.7835 12.9805 25.6677C13.0746 25.5519 13.0738 25.4367 12.978 25.3223L12.8487 25.2124L12.7647 25.0314C12.7426 24.977 12.7103 24.9296 12.6677 24.8892L12.4414 24.6888C12.4272 24.6748 12.4121 24.6619 12.3962 24.65L12.1699 24.4948C12.1532 24.4852 12.136 24.4765 12.1182 24.469L11.9308 24.372L11.7886 24.2945C11.7677 24.2842 11.7461 24.2756 11.7239 24.2686L11.5688 24.2104L11.5429 24.204C11.5914 24.3112 11.6711 24.3845 11.7821 24.4237L11.7692 24.385C11.7705 24.4366 11.7813 24.4861 11.8015 24.5336V24.4819C11.7922 24.518 11.7878 24.5546 11.7886 24.5918L11.8015 24.5401C11.781 24.5745 11.7659 24.6111 11.7562 24.65L11.7627 24.6435L11.795 24.6112L11.8532 24.5659C11.8692 24.5541 11.8843 24.5412 11.8985 24.5272L11.9825 24.4367C11.9825 24.4345 11.9825 24.4324 11.9825 24.4302L12.0924 24.3138L12.2346 24.1716C12.251 24.1555 12.2661 24.1383 12.2798 24.1199L12.4479 23.9001C12.4626 23.8796 12.4755 23.8581 12.4867 23.8355L12.6483 23.5317C12.6554 23.5191 12.6618 23.5061 12.6677 23.4929L12.8358 23.0727C12.8405 23.0621 12.8448 23.0513 12.8487 23.0404L13.0232 22.5103C13.0232 22.5082 13.0232 22.506 13.0232 22.5039L13.2171 21.8833C13.2195 21.8748 13.2217 21.8661 13.2236 21.8575L13.3917 21.2046C13.3917 21.2024 13.3917 21.2003 13.3917 21.1981L13.5468 20.584C13.5469 20.5797 13.5469 20.5754 13.5468 20.5711L13.6502 20.1121L13.7278 19.8536L13.7925 19.7308C13.7925 19.7286 13.7925 19.7264 13.7925 19.7243L13.8312 19.6532C13.857 19.5979 13.87 19.5397 13.87 19.4787V19.4722C13.8758 19.3277 13.8198 19.2135 13.702 19.1296Z" fill="black"/>
<path d="M14.1674 15.5743L14.1932 15.529C14.217 15.4908 14.2342 15.4499 14.245 15.4062L14.2708 15.3157C14.2709 15.3114 14.2709 15.3071 14.2708 15.3028L14.3096 15.1347L14.3807 14.8761C14.3832 14.8654 14.3854 14.8547 14.3872 14.8438L14.4583 14.4948C14.4606 14.4862 14.4628 14.4776 14.4647 14.4689L14.5229 14.0746C14.5252 14.0682 14.5274 14.0617 14.5294 14.0552L14.5811 13.6286C14.5812 13.6221 14.5812 13.6156 14.5811 13.6092L14.6199 13.189C14.6199 13.1868 14.6199 13.1847 14.6199 13.1825L14.6457 12.8011C14.6479 12.7969 14.6501 12.7926 14.6522 12.7882L14.6651 12.4844C14.6649 12.4584 14.6628 12.4325 14.6587 12.4068L14.6393 12.2C14.6352 12.1714 14.6288 12.1434 14.6199 12.1159L14.5876 11.9996C14.5736 11.9487 14.5521 11.9013 14.5229 11.8574L14.4841 11.7992C14.482 11.797 14.4798 11.7949 14.4777 11.7927L14.4518 11.7539C14.4292 11.7229 14.4034 11.6949 14.3742 11.6699H14.3678C14.1737 11.4994 13.9712 11.4886 13.7601 11.6376L13.7537 11.6441C13.5896 11.7596 13.5206 11.9169 13.5468 12.1159L13.5533 12.1547L13.5598 12.1935C13.5617 12.2022 13.5638 12.2108 13.5662 12.2194L13.5727 12.284C13.5788 12.3128 13.5874 12.3408 13.5985 12.368L13.6244 12.4327L13.6503 12.4973L13.6632 12.5361V12.549C13.6986 12.7014 13.7856 12.8138 13.9243 12.8862C14.063 12.9586 14.205 12.9658 14.3503 12.9077C14.4955 12.8496 14.5934 12.7465 14.6439 12.5984C14.6945 12.4503 14.68 12.3089 14.6005 12.1741L14.5876 12.1483L14.5682 12.1095L14.5488 12.0642L14.5423 12.0448V12.0384L14.5358 12.0061C14.5338 12.0017 14.5316 11.9974 14.5294 11.9931L14.5229 11.9543C14.4426 12.0676 14.4146 12.1926 14.4389 12.3293L14.4453 12.3228C14.3409 12.2037 14.2095 12.1482 14.0513 12.1562C13.8932 12.1642 13.7681 12.2326 13.6761 12.3616V12.368C13.6782 12.3702 13.6804 12.3724 13.6826 12.3745L13.702 12.4004C13.6913 12.3329 13.6676 12.2705 13.6309 12.2129L13.6373 12.2775L13.6309 12.4262L13.6115 12.7171L13.5727 13.092L13.5339 13.5057L13.4822 13.9259L13.4305 14.3202C13.4303 14.3288 13.4303 14.3375 13.4305 14.3461L13.3982 14.7016C13.3955 14.7145 13.3933 14.7274 13.3917 14.7404V15.0184C13.3916 15.0227 13.3916 15.027 13.3917 15.0313V15.2123C13.3909 15.2274 13.3909 15.2424 13.3917 15.2575L13.4046 15.3545C13.4132 15.4175 13.4347 15.4757 13.4693 15.529L13.4951 15.5743C13.5741 15.6959 13.6862 15.7568 13.8312 15.7568C13.9763 15.7568 14.0884 15.6959 14.1674 15.5743ZM14.4841 12.019L14.4712 12.0061C14.4449 12.1966 14.5052 12.3539 14.6522 12.4779L14.6587 12.465C14.5184 12.4516 14.3932 12.4888 14.2829 12.5765C14.1727 12.6642 14.1083 12.7778 14.0898 12.9175L14.1221 12.924C14.0613 12.892 13.9966 12.8726 13.9282 12.8658L13.9929 12.8981C14.0824 12.9431 14.1772 12.9625 14.2773 12.9563L14.426 12.9498C14.4744 12.9471 14.5218 12.9385 14.5682 12.924L14.8267 12.8399C14.8602 12.8299 14.8925 12.817 14.9237 12.8011L15.3115 12.5943C15.3366 12.5789 15.3603 12.5617 15.3826 12.5426L15.8675 12.1806C15.8786 12.1725 15.8894 12.1639 15.8998 12.1547L16.3911 11.7152L16.9211 11.4178C17.0474 11.3194 17.071 11.2006 16.992 11.0614C16.913 10.9221 16.7989 10.8815 16.6496 10.9395L16.126 11.2304L15.4925 11.3984C15.4904 11.3984 15.4882 11.3984 15.4861 11.3984L14.9043 11.5536C14.88 11.5606 14.8563 11.5692 14.8332 11.5794L14.4389 11.7346L14.2062 11.8186C14.1997 11.8206 14.1932 11.8228 14.1868 11.8251L14.064 11.8703L14.0122 11.8897C14.0498 11.885 14.0864 11.8764 14.1221 11.8638L14.0898 11.8703C13.9393 11.8819 13.8167 11.9465 13.722 12.0642C13.6274 12.1819 13.5905 12.3155 13.6115 12.465L13.6179 12.4779C13.6362 12.6123 13.6974 12.7228 13.8016 12.8096C13.9057 12.8964 14.0255 12.9367 14.1609 12.9304H14.1803C14.4136 12.917 14.5673 12.7994 14.6412 12.5777C14.7151 12.356 14.6627 12.1697 14.4841 12.019Z" fill="black"/>
<path d="M22.0731 13.2084L22.0537 13.1826C21.9599 13.0196 21.8198 12.9506 21.6335 12.9757L21.5883 12.9822C21.5664 12.9848 21.5448 12.9891 21.5236 12.9951L21.4913 13.0016C21.478 13.0074 21.4651 13.0138 21.4525 13.021L21.4267 13.0274C21.2547 13.0968 21.1621 13.2239 21.1487 13.4088V13.4799C21.1427 13.5586 21.1556 13.634 21.1875 13.7062L21.2327 13.8096C21.2508 13.8518 21.2745 13.8906 21.3038 13.9259L21.4202 14.0552C21.4499 14.0926 21.4844 14.125 21.5236 14.1522L21.7175 14.2815C21.7461 14.2997 21.7763 14.3148 21.808 14.3267L22.0795 14.4366C22.0944 14.4416 22.1095 14.4459 22.1248 14.4495L22.4286 14.54C22.4307 14.5422 22.4329 14.5444 22.4351 14.5465L22.9393 14.6887C22.9414 14.6909 22.9436 14.693 22.9457 14.6952L23.0815 14.7275L23.159 14.7533C23.1322 14.7378 23.1042 14.7249 23.075 14.7146L23.1009 14.734C23.2757 14.6378 23.3616 14.49 23.3587 14.2905C23.3558 14.091 23.2655 13.9458 23.0879 13.8548L23.075 13.8613C23.1442 13.8533 23.2088 13.8318 23.2689 13.7967L23.2431 13.8031H23.2495L23.2689 13.8096L23.2366 13.7837L23.1332 13.6738C23.1249 13.6649 23.1163 13.6563 23.1073 13.648L22.9457 13.5058C22.9275 13.4892 22.9081 13.4741 22.8876 13.4605L22.6936 13.3312C22.669 13.3159 22.6431 13.3029 22.6161 13.2924L22.3963 13.202C22.3899 13.1997 22.3834 13.1975 22.3769 13.1955L22.1571 13.1179C22.1528 13.1179 22.1485 13.1179 22.1442 13.1179L21.9438 13.0533C21.9417 13.0511 21.9395 13.0489 21.9373 13.0468L21.7693 12.9951L21.627 12.9498L21.543 12.9175C21.4802 12.8952 21.4156 12.8866 21.3491 12.8917L21.3103 12.8981C21.0739 12.9159 20.9317 13.0409 20.8837 13.2731L20.8707 13.3506C20.8682 13.3613 20.8661 13.3721 20.8643 13.3829L20.8384 13.5704C20.8344 13.5961 20.8322 13.622 20.832 13.648V13.9906L20.8255 14.4754C20.8244 14.4948 20.8244 14.5142 20.8255 14.5336L20.8707 15.0507C20.8738 15.0704 20.8781 15.0898 20.8837 15.1089L20.9742 15.529L20.916 15.8781C20.8858 16.0634 20.9634 16.1712 21.1487 16.2013C21.334 16.2315 21.4417 16.1539 21.4719 15.9686L21.5301 15.6131L21.724 15.2188C21.7402 15.19 21.7532 15.1599 21.7628 15.1283L21.8985 14.6241C21.9066 14.5879 21.9109 14.5512 21.9115 14.5142L21.9438 14.0294C21.9453 14.0057 21.9453 13.982 21.9438 13.9583L21.9179 13.6092C21.9136 13.5603 21.9028 13.5129 21.8856 13.467L21.8274 13.286C21.8253 13.2838 21.8231 13.2817 21.821 13.2795L21.7951 13.202C21.6569 13.2354 21.5547 13.3151 21.4886 13.441C21.4224 13.5668 21.4147 13.6962 21.4654 13.829L21.5042 13.8225C21.4496 13.8174 21.3957 13.8217 21.3426 13.8354H21.4008L21.5107 13.8678L21.6788 13.913L21.8662 13.9712L22.0537 14.0358L22.1894 14.1069L22.3122 14.2039L22.4415 14.3396L22.5773 14.4754C22.5953 14.4942 22.6147 14.5114 22.6355 14.5271L22.7518 14.6176C22.7859 14.6418 22.8225 14.6612 22.8617 14.6758L22.9716 14.7275C22.9967 14.7383 23.0226 14.7469 23.0492 14.7533L23.1461 14.7727C23.1674 14.7785 23.1889 14.7828 23.2108 14.7857L23.2689 14.7921C23.3547 14.7983 23.4366 14.7832 23.5146 14.7469L23.534 14.7404C23.7243 14.653 23.821 14.5046 23.824 14.2952C23.827 14.0858 23.7346 13.9347 23.5469 13.8419L23.521 13.829C23.498 13.8185 23.4743 13.8099 23.4499 13.8031L23.3659 13.7773C23.3616 13.775 23.3573 13.7729 23.353 13.7708L23.2108 13.732C23.2086 13.732 23.2065 13.732 23.2043 13.732L22.7066 13.5898L22.4286 13.5122L22.2024 13.4217L22.0925 13.3571L22.0472 13.3118L22.002 13.2472L21.9632 13.189C21.9694 13.264 21.9931 13.3329 22.0343 13.3959V13.37C21.8623 13.4548 21.7848 13.5927 21.8016 13.7837L21.8339 13.7708C21.791 13.7774 21.75 13.7903 21.7111 13.8096L21.7563 13.8031C21.8884 13.7815 21.9875 13.7126 22.0537 13.5963L22.0731 13.5704C22.1427 13.4497 22.1427 13.3291 22.0731 13.2084Z" fill="black"/>
<path d="M25.7526 21.5449C25.7526 21.6377 25.7854 21.7169 25.8511 21.7825C25.9167 21.8482 25.9959 21.881 26.0887 21.881C26.1816 21.881 26.2608 21.8482 26.3264 21.7825C26.3921 21.7169 26.4249 21.6377 26.4249 21.5449C26.4249 21.452 26.3921 21.3728 26.3264 21.3072C26.2608 21.2415 26.1816 21.2087 26.0887 21.2087C25.9959 21.2087 25.9167 21.2415 25.8511 21.3072C25.7854 21.3728 25.7526 21.452 25.7526 21.5449ZM25.6944 21.5384C25.6944 21.6491 25.7336 21.7435 25.8118 21.8218C25.8901 21.9 25.9845 21.9392 26.0952 21.9392C26.2059 21.9392 26.3003 21.9 26.3786 21.8218C26.4569 21.7435 26.496 21.6491 26.496 21.5384C26.496 21.4277 26.4569 21.3333 26.3786 21.255C26.3003 21.1767 26.2059 21.1376 26.0952 21.1376C25.9845 21.1376 25.8901 21.1767 25.8118 21.255C25.7336 21.3333 25.6944 21.4277 25.6944 21.5384ZM25.5651 21.5319C25.5651 21.6801 25.6175 21.8066 25.7223 21.9113C25.8271 22.0161 25.9535 22.0685 26.1017 22.0685C26.2498 22.0685 26.3763 22.0161 26.481 21.9113C26.5858 21.8066 26.6382 21.6801 26.6382 21.5319C26.6382 21.3838 26.5858 21.2573 26.481 21.1526C26.3763 21.0478 26.2498 20.9954 26.1017 20.9954C25.9535 20.9954 25.8271 21.0478 25.7223 21.1526C25.6175 21.2573 25.5651 21.3838 25.5651 21.5319ZM25.5522 21.3574L25.4553 21.616C25.4444 21.6455 25.4358 21.6757 25.4294 21.7065L25.3712 21.9844C25.3684 22.0016 25.3662 22.0188 25.3648 22.0361L25.3195 22.4175C25.3168 22.4325 25.3147 22.4476 25.313 22.4628L25.2872 22.9411C25.2871 22.9476 25.2871 22.954 25.2872 22.9605L25.2743 23.4841C25.2719 23.4927 25.2698 23.5013 25.2678 23.51L25.2743 24.0206C25.2742 24.0249 25.2742 24.0293 25.2743 24.0336L25.2936 24.7769L25.2872 24.8998L25.2678 24.9644C25.3225 24.8901 25.3613 24.8082 25.3841 24.7188L25.3324 24.7899C25.4303 24.7399 25.5122 24.6709 25.5781 24.583L25.5134 24.6153C25.6069 24.607 25.6952 24.5811 25.7785 24.5378L25.7138 24.5442C25.7885 24.5607 25.864 24.565 25.9401 24.5572L25.9142 24.5507L25.8625 24.5313C25.8582 24.5291 25.8539 24.527 25.8496 24.5248L25.6686 24.4602C25.6348 24.4489 25.6003 24.4403 25.5651 24.4343L25.2678 24.3762L24.8541 24.2727C24.8306 24.2671 24.8069 24.2628 24.783 24.2598L24.2335 24.1822C24.2207 24.1796 24.2077 24.1775 24.1947 24.1758L23.5548 24.1305L22.8761 24.0594C22.8653 24.0591 22.8545 24.0591 22.8437 24.0594L22.2102 24.0336C22.1844 24.0314 22.1585 24.0314 22.1327 24.0336L21.6285 24.0982C21.6111 24.0993 21.5939 24.1014 21.5768 24.1047L21.2406 24.1952C21.2117 24.2007 21.1836 24.2093 21.1566 24.221L20.9691 24.318C20.9157 24.3445 20.8704 24.3811 20.8334 24.4279L20.7687 24.5184C20.7252 24.5715 20.6972 24.6318 20.6847 24.6994L20.6718 24.7769C20.667 24.8204 20.6691 24.8635 20.6782 24.9062L20.6847 24.9709C20.6918 25.0116 20.7047 25.0504 20.7235 25.0872L20.7364 25.1131C20.8398 25.3233 21.0036 25.3944 21.2277 25.3264L21.2406 25.3199C21.4549 25.2543 21.5518 25.11 21.5315 24.8868L21.525 24.848C21.5228 24.824 21.5185 24.8003 21.5121 24.7769L21.4992 24.7188C21.4806 24.6529 21.4483 24.5948 21.4022 24.5442L21.3247 24.4602C21.305 24.4387 21.2835 24.4193 21.26 24.402L21.1566 24.3309L21.0919 24.2727L21.0273 24.1628L20.9303 23.8849C20.9264 23.874 20.9221 23.8632 20.9174 23.8526L20.7493 23.4453C20.74 23.4231 20.7292 23.4015 20.717 23.3807L20.4714 22.954L20.2128 22.508L19.993 22.062L19.8379 21.616C19.834 21.6029 19.8297 21.59 19.825 21.5772L19.6634 21.2087C19.6522 21.1799 19.6393 21.1519 19.6246 21.1247L19.5018 20.9178C19.4353 20.8049 19.3448 20.7166 19.2303 20.6528L19.1656 20.614C18.9987 20.5203 18.8224 20.4965 18.6366 20.5426C18.4508 20.5888 18.3061 20.6923 18.2025 20.8532L18.1572 20.9243C18.1042 21.0077 18.0697 21.0982 18.0538 21.1958L18.0344 21.2928C18.0343 21.2971 18.0343 21.3014 18.0344 21.3057L18.0215 21.3768C18.0159 21.4176 18.0137 21.4585 18.015 21.4996L18.0215 21.5384C18.2181 21.528 18.3835 21.4507 18.5176 21.3065C18.6517 21.1624 18.7169 20.9919 18.7131 20.795H18.7067C18.8238 21.1418 19.0651 21.3055 19.4307 21.2863L19.4113 21.241C19.4184 21.2829 19.4292 21.3239 19.4436 21.3639L19.4307 21.3057C19.4287 21.2949 19.4266 21.2841 19.4242 21.2734L19.4177 21.241V21.2023C19.4111 21.2583 19.4111 21.3143 19.4177 21.3703L19.4242 21.2992L19.4565 21.1635C19.4565 21.1613 19.4565 21.1592 19.4565 21.157L19.5082 20.9178L19.5858 20.627L19.6957 20.2714L19.8444 19.7995L20.0448 19.1919L20.2904 18.5067L20.5683 17.8215L20.8528 17.2074L21.1113 16.7097L21.3505 16.3412L21.5832 16.0503L21.8095 15.8047L22.0163 15.6108L22.3137 15.3522C22.3158 15.3501 22.318 15.3479 22.3201 15.3457L22.3977 15.2746C22.4281 15.249 22.4561 15.221 22.4817 15.1906L22.5205 15.1453C22.5227 15.1411 22.5249 15.1367 22.527 15.1324L22.5464 15.1066C22.4976 15.144 22.4545 15.1871 22.4171 15.2358L22.43 15.2229C22.4076 15.2368 22.3861 15.2519 22.3654 15.2682L22.3912 15.2552C22.3414 15.2714 22.294 15.293 22.249 15.3199L22.2878 15.3069C22.3211 15.2964 22.3534 15.2835 22.3848 15.2682L22.3912 15.2617H22.3977L22.4753 15.2488L22.6498 15.2165L22.9019 15.1906L23.2898 15.1971L23.8457 15.2876L24.5503 15.4556L25.2807 15.6689L25.9659 15.8823L26.5218 16.0568L26.9097 16.2055C26.9351 16.2155 26.9609 16.2241 26.9873 16.2313L27.2652 16.3024C27.2695 16.3046 27.2738 16.3068 27.2781 16.3089L27.4333 16.3412C27.4862 16.3558 27.5401 16.3644 27.5949 16.3671H27.6725C27.9085 16.3711 28.1024 16.2827 28.2542 16.102L28.2736 16.0826C28.4064 15.923 28.4624 15.7398 28.4417 15.5332L28.4352 15.4879C28.4313 15.4397 28.4227 15.3923 28.4094 15.3457L28.3964 15.294C28.399 15.3489 28.4076 15.4027 28.4223 15.4556V15.4104C28.1644 15.5636 28.0459 15.7899 28.0668 16.0891L28.0862 16.0762C27.8295 15.9044 27.5688 15.8979 27.304 16.0568L27.3234 16.0697L27.3622 16.1085L27.5238 16.3865L27.847 17.007L28.3253 17.9508C28.3275 17.953 28.3296 17.9551 28.3318 17.9573L28.933 19.1143C28.9371 19.123 28.9414 19.1317 28.9459 19.1402L29.6117 20.3167C29.6138 20.321 29.616 20.3253 29.6182 20.3296L30.2452 21.3897L30.7429 22.2365L31.0855 22.8442L31.2795 23.1932L31.37 23.3807C31.374 23.3915 31.3784 23.4023 31.3829 23.413L31.4217 23.4906C31.5054 23.6542 31.6296 23.7767 31.7943 23.8582C31.959 23.9397 32.1318 23.9641 32.3126 23.9313C32.4935 23.8986 32.6467 23.8152 32.7724 23.6811C32.8981 23.547 32.9715 23.3887 32.9925 23.2062V23.1932C33.0079 23.0772 32.9993 22.963 32.9666 22.8506L32.9601 22.8442L32.9537 22.8118C32.9494 22.777 32.9429 22.7425 32.9343 22.7084L32.9149 22.6502C32.8721 22.5173 32.8006 22.4022 32.7004 22.3049C32.6002 22.2076 32.4831 22.1395 32.3489 22.1007C32.2148 22.0618 32.0794 22.0567 31.9427 22.0853C31.806 22.1139 31.6841 22.1729 31.5768 22.2624L31.5445 22.2882C31.4465 22.3702 31.3711 22.4693 31.3182 22.5856L31.1954 22.8571L30.9175 23.4906C30.9152 23.497 30.9131 23.5035 30.911 23.51L30.5038 24.4667C30.5015 24.4752 30.4993 24.4839 30.4973 24.4925L30.0513 25.6561C30.0512 25.6604 30.0512 25.6647 30.0513 25.669L29.6182 26.8713C29.616 26.8756 29.6138 26.8799 29.6117 26.8843L29.2303 27.9961C29.2281 28.0025 29.2259 28.009 29.2239 28.0155L28.933 28.9269C28.9307 28.9334 28.9286 28.9398 28.9265 28.9463L28.7326 29.6057C28.7304 29.6121 28.7282 29.6186 28.7261 29.6251L28.6098 30.0517C28.6097 30.0582 28.6097 30.0646 28.6098 30.0711L28.5516 30.3038C28.5466 30.323 28.5423 30.3424 28.5387 30.362L28.5193 30.446C28.6397 30.5024 28.7663 30.5291 28.8993 30.5262C29.0322 30.5234 29.1576 30.4912 29.2754 30.4297C29.3933 30.3683 29.4915 30.2838 29.5699 30.1765C29.6483 30.0691 29.6989 29.95 29.7216 29.819H29.7151C29.8039 29.9565 29.9224 30.0599 30.0707 30.1293L30.0383 30.0776C29.959 29.9564 29.8556 29.8616 29.7281 29.7931L29.6182 29.735C29.521 29.6826 29.4176 29.6502 29.3079 29.638L28.9782 29.5992C28.9203 29.5911 28.8621 29.5889 28.8037 29.5927L28.0151 29.6638C27.9978 29.6655 27.9805 29.6676 27.9633 29.6703L26.6317 29.8707C26.6296 29.8707 26.6274 29.8707 26.6253 29.8707L24.9575 30.1357L23.3156 30.3684L21.984 30.5042L21.0596 30.53L20.4908 30.4977L20.2193 30.4589L20.1159 30.4395C20.2446 30.6138 20.4148 30.7237 20.6265 30.7692L20.6071 30.7434C20.4633 30.7723 20.3353 30.8341 20.2231 30.9286C20.1109 31.0231 20.0283 31.1387 19.9753 31.2755C19.9223 31.4122 19.9054 31.5533 19.9246 31.6988C19.9439 31.8442 19.9968 31.9761 20.0835 32.0944H20.09H20.1029C20.1644 32.09 20.2247 32.0793 20.2839 32.0621L20.3227 32.0491C20.6668 31.9435 20.8672 31.7129 20.9239 31.3575L20.9303 31.3187C20.9653 31.1028 20.9244 30.9024 20.8075 30.7175L20.7817 30.6787C20.7451 30.6196 20.702 30.5658 20.6524 30.5171L20.5813 30.4525C20.5813 30.4503 20.5813 30.4482 20.5813 30.446L20.452 30.3297L20.2193 30.0905L19.8185 29.6768C19.8039 29.6633 19.7888 29.6504 19.7733 29.638L19.1527 29.0756C19.1402 29.0623 19.1272 29.0493 19.1139 29.0368L18.2606 28.3581L16.1986 26.6903C16.1964 26.6882 16.1943 26.686 16.1921 26.6839L14.2787 25.1713L13.6323 24.6347L13.2057 24.2663L12.973 24.0465L12.8695 23.956C12.7003 23.7973 12.4996 23.7199 12.2677 23.7237C12.0357 23.7274 11.8377 23.8113 11.6737 23.9754L11.6607 23.9883C11.5256 24.1218 11.4437 24.2823 11.415 24.4701C11.3864 24.6578 11.4165 24.8355 11.5056 25.0032L11.5444 25.0743L11.5961 25.1648C11.6134 25.1984 11.6328 25.2307 11.6543 25.2618L11.706 25.3264L11.7318 25.3716C11.7197 25.3517 11.7068 25.3323 11.6931 25.3135L11.706 25.3329C11.8334 25.5294 12.0112 25.6539 12.2395 25.7062C12.4679 25.7585 12.6821 25.7238 12.8824 25.6023C13.0826 25.4808 13.2122 25.3067 13.2712 25.08C13.3302 24.8533 13.3019 24.6381 13.1863 24.4343L13.1798 24.4214C13.1992 24.5301 13.238 24.6314 13.2962 24.7252L13.2897 24.6671L13.2703 24.5313L13.2574 24.2146L13.2768 23.6457L13.3285 22.7019L13.4642 21.3703L13.7422 19.7737L14.143 18.1124L14.6343 16.5933L15.132 15.3457L15.5522 14.4278L15.8366 13.846C15.8484 13.8228 15.8592 13.7991 15.8689 13.7749L15.9917 13.4582C16.0129 13.4016 16.028 13.3434 16.037 13.2837L16.0564 13.1608C16.0767 13.0331 16.0688 12.907 16.0327 12.7828C15.9966 12.6585 15.9357 12.5479 15.85 12.4509C15.7643 12.354 15.662 12.2799 15.5431 12.2288C15.4242 12.1777 15.3001 12.1544 15.1708 12.1589H15.132C14.8363 12.1679 14.6058 12.2951 14.4403 12.5403L14.3886 12.6114C14.372 12.6386 14.3569 12.6666 14.3434 12.6954L14.2981 12.773C14.3351 12.7288 14.3675 12.6814 14.3951 12.6308L14.3498 12.689C14.4399 12.6341 14.5175 12.5651 14.5825 12.4821L14.5438 12.508C14.6759 12.4951 14.7987 12.4541 14.9122 12.3851L14.854 12.3916C14.9036 12.3958 14.9532 12.3958 15.0027 12.3916L14.9445 12.3851C15.1018 12.6049 15.3151 12.7256 15.5845 12.7471L15.5522 12.7019C15.4217 13.0033 15.4519 13.2878 15.6427 13.5552L15.6685 13.5034L15.759 13.3677L16.0305 13.0445L16.5994 12.5015L17.4979 11.7711L18.655 10.9695L19.8314 10.2261L20.8398 9.64434L21.5574 9.23064C21.5617 9.22852 21.566 9.22636 21.5703 9.22417L22.0099 8.95914C22.0253 8.94885 22.0404 8.93807 22.0551 8.92682L22.2814 8.77168C22.3155 8.74811 22.3478 8.72226 22.3783 8.69411L22.4623 8.61654C22.6517 8.44265 22.7465 8.22718 22.7468 7.97013V7.93134C22.7482 7.66975 22.652 7.4511 22.4582 7.27539C22.2644 7.09967 22.0374 7.02528 21.7771 7.05222L21.7254 7.05868C21.598 7.07367 21.4794 7.11461 21.3699 7.1815L21.26 7.24614C21.231 7.2618 21.203 7.27904 21.176 7.29785L21.0338 7.40128C21.0136 7.41766 20.9942 7.4349 20.9756 7.45299L20.8463 7.56935C20.8307 7.58388 20.8156 7.59897 20.8011 7.6146L20.7041 7.71802C20.6533 7.77286 20.6102 7.83319 20.5748 7.89902L20.5231 7.98306C20.5113 8.00628 20.5005 8.02998 20.4908 8.05416L20.4714 8.09941C20.4645 8.11431 20.458 8.1294 20.452 8.14466L20.4455 8.17052C20.3981 8.29678 20.3803 8.42708 20.3924 8.56143C20.4045 8.69578 20.4451 8.82085 20.5143 8.93663C20.5836 9.05241 20.6745 9.14741 20.7871 9.22164C20.8997 9.29588 21.0229 9.34197 21.1566 9.35992L21.1954 9.36639C21.2686 9.37555 21.3419 9.37555 21.4152 9.36639L21.525 9.35346C21.4456 9.34043 21.3659 9.33828 21.2859 9.34699L21.5057 9.38578L21.984 9.49567L22.8825 9.74777L24.2335 10.1679C24.24 10.1702 24.2464 10.1723 24.2529 10.1744L25.9336 10.6528C25.9422 10.655 25.9508 10.6572 25.9595 10.6592L27.7694 11.1311C27.7759 11.1333 27.7823 11.1355 27.7888 11.1376L29.4695 11.5383L30.8593 11.8616C30.8614 11.8637 30.8636 11.8659 30.8658 11.868L31.8742 12.0943L32.5077 12.2623C32.5417 12.2728 32.5761 12.2814 32.6111 12.2882L32.9537 12.3399C33.0661 12.3568 33.1781 12.3547 33.2898 12.3334L33.4126 12.314C33.5567 12.2874 33.6886 12.2319 33.8083 12.1474C33.928 12.0629 34.0245 11.9573 34.0979 11.8305C34.1712 11.7036 34.2147 11.5673 34.2282 11.4214C34.2418 11.2755 34.2242 11.1335 34.1754 10.9954L34.156 10.9372C34.0865 10.7374 33.9659 10.5758 33.794 10.4524L33.7035 10.3877C33.6314 10.3365 33.5538 10.2956 33.4708 10.2649L33.3674 10.2261C33.2984 10.1988 33.2273 10.1794 33.1541 10.1679L33.0765 10.1615C32.9949 10.1492 32.913 10.1471 32.8309 10.155L32.7921 10.1615C32.8905 10.1807 32.9897 10.185 33.0894 10.1744L33.0765 10.1679C32.8421 10.1183 32.6186 10.1488 32.4061 10.2594C32.1936 10.3701 32.0404 10.5357 31.9467 10.7562C31.853 10.9768 31.84 11.2019 31.9079 11.4317C31.9757 11.6615 32.1088 11.8436 32.3073 11.9779H32.3137C32.2388 11.8287 32.1333 11.7059 31.997 11.6094L32.0099 11.6353C31.9975 11.5175 31.9651 11.4055 31.913 11.2992L31.9194 11.3444C31.9313 11.4573 31.9614 11.565 32.0099 11.6676L32.0293 11.7129L32.1004 11.9197L32.2749 12.592C32.2769 12.605 32.279 12.6179 32.2814 12.6308L32.6434 13.8525C32.6475 13.8634 32.6518 13.8741 32.6563 13.8848L33.1476 15.3716L33.6647 16.9295L34.1108 18.3516L34.4663 19.541L34.7055 20.4266L34.8541 21.0213C34.8627 21.0607 34.8735 21.0994 34.8865 21.1376L35.0157 21.4802C35.0274 21.5088 35.0404 21.5368 35.0545 21.5643L35.1192 21.7065C35.2662 22.0208 35.5096 22.2125 35.8496 22.2818L35.9078 22.2947C36.3463 22.3833 36.6954 22.2454 36.955 21.881L37.0002 21.8164C37.0709 21.7177 37.1226 21.61 37.1554 21.4931L37.1618 21.4738L37.1683 21.4608L37.1812 21.435C36.8136 21.4375 36.5291 21.5926 36.328 21.9004H36.3603C36.3353 21.6369 36.225 21.416 36.0294 21.2377C35.8338 21.0594 35.6036 20.97 35.339 20.9696L35.3454 21.0471C35.355 20.9762 35.3572 20.9051 35.3519 20.8338L35.326 21.0083L35.2678 21.4544L35.1062 22.4175L34.7895 24.0142C34.7873 24.0185 34.7852 24.0228 34.783 24.0271L34.4146 26.031C34.4146 26.0331 34.4146 26.0353 34.4146 26.0375L34.0397 28.1189C34.0397 28.1211 34.0397 28.1232 34.0397 28.1254L33.7229 29.9741C33.7229 29.9784 33.7229 29.9827 33.7229 29.9871L33.4967 31.4286C33.4966 31.435 33.4966 31.4415 33.4967 31.448L33.3545 32.4628C33.3543 32.4736 33.3543 32.4844 33.3545 32.4951L33.2834 33.1222L33.251 33.4518L33.2316 33.5747C33.2934 33.8171 33.4247 34.0127 33.6258 34.1616C33.8269 34.3104 34.0523 34.379 34.3022 34.3672C34.5521 34.3555 34.7702 34.2661 34.9564 34.099C35.1426 33.932 35.255 33.7249 35.2937 33.4777V33.4712C35.2862 33.5781 35.2948 33.6837 35.3196 33.788L35.326 33.7298V33.7363V33.7427L35.3454 33.6781C35.3498 33.6717 35.3541 33.6652 35.3583 33.6587L35.3777 33.6005C35.2968 33.6928 35.2344 33.7963 35.1903 33.9108L35.2097 33.8849C34.9422 33.9102 34.7181 34.0223 34.5374 34.2211H34.5568C34.3257 33.9613 34.0369 33.8471 33.6906 33.8785L33.7035 33.8979C33.8527 33.5054 33.7881 33.152 33.5096 32.8377L33.5031 32.8507C33.7066 32.7278 33.8509 32.5554 33.9362 32.3335L33.9039 32.3529C34.0423 32.3337 34.1716 32.2885 34.2918 32.2172L34.1754 32.2366C34.1581 32.2383 34.1409 32.2405 34.1237 32.243L33.8328 32.3012C33.789 32.3092 33.7459 32.32 33.7035 32.3335L32.986 32.5727C32.9752 32.5747 32.9644 32.5769 32.9537 32.5792L31.635 33.064C31.6328 33.064 31.6307 33.064 31.6285 33.064L29.7862 33.7557L27.7694 34.4926C27.7651 34.4947 27.7608 34.4969 27.7565 34.499L25.9465 35.1842C25.94 35.1863 25.9336 35.1885 25.9271 35.1907L24.5438 35.7466C24.5395 35.7487 24.5352 35.7509 24.5309 35.7531L23.6518 36.1215C23.6298 36.1316 23.6083 36.1423 23.5871 36.1539L23.1669 36.3672C23.1382 36.381 23.1102 36.396 23.0829 36.4124L22.9601 36.49C22.5761 36.7273 22.4173 37.0691 22.4837 37.5156C22.5501 37.9621 22.8016 38.243 23.238 38.3581L23.3027 38.3711C23.4767 38.4189 23.6512 38.4211 23.8263 38.3775L24.0073 38.3258C24.0116 38.3258 24.0159 38.3258 24.0202 38.3258L24.2529 38.2612C24.2703 38.2573 24.2875 38.253 24.3046 38.2483L24.5309 38.1707C24.5549 38.1629 24.5786 38.1543 24.602 38.1448L24.7765 38.0673C24.8164 38.0524 24.8552 38.0352 24.8929 38.0155L24.9834 37.9638C25.1627 37.8605 25.2985 37.7161 25.3906 37.5307L25.41 37.4919C25.5529 37.2041 25.5594 36.9132 25.4294 36.6193L25.41 36.5805C25.3553 36.4526 25.2778 36.3406 25.1773 36.2444L25.1191 36.1926C25.0711 36.1489 25.0194 36.1101 24.964 36.0763L24.8735 36.0181C24.7656 35.9512 24.6492 35.9059 24.5244 35.8824L24.3887 35.863C24.3673 35.858 24.3457 35.8537 24.324 35.85L24.1947 35.8371L24.0978 35.8177L23.8198 35.7014L23.1346 35.3976C23.1218 35.3908 23.1089 35.3844 23.0958 35.3782L21.8935 34.9063C21.8722 34.8969 21.8507 34.8883 21.8289 34.8804L20.0448 34.3051C20.034 34.3028 20.0232 34.3006 20.0124 34.2986L17.9245 33.7104C17.9181 33.7082 17.9116 33.706 17.9051 33.7039L15.8301 33.148L14.0072 32.6568L12.5657 32.2495L11.5444 31.9522L10.9044 31.7712C10.8937 31.7667 10.883 31.7624 10.8721 31.7582L10.5295 31.6742C10.4912 31.6633 10.4524 31.6547 10.4132 31.6483L10.2903 31.6354C10.0751 31.6063 9.87092 31.6415 9.67785 31.741C9.48478 31.8406 9.33766 31.9864 9.23649 32.1786C9.13532 32.3709 9.09838 32.5747 9.12565 32.7902C9.15292 33.0057 9.23949 33.1939 9.38535 33.3549L9.40475 33.3743C9.47627 33.4538 9.55815 33.5206 9.65038 33.5747L9.70856 33.607L9.7732 33.6522C9.69145 33.4902 9.57509 33.3587 9.42414 33.2579L9.44999 33.3096C9.60938 33.1515 9.70694 32.9617 9.74269 32.74C9.77844 32.5184 9.74551 32.3075 9.64392 32.1073L9.59867 32.1525C9.73524 32.1026 9.85591 32.0272 9.96066 31.9263L9.87663 31.9586C9.94318 31.9456 10.0078 31.9262 10.0706 31.9004L9.99298 31.9134C10.2225 32.0712 10.4746 32.1273 10.7493 32.0814L10.6523 32.0168C10.7159 32.0942 10.7891 32.161 10.8721 32.2172L10.7428 32.0556L10.5037 31.713L10.0641 30.989C10.0641 30.9868 10.0641 30.9847 10.0641 30.9825L9.37889 29.8642C9.36265 29.8398 9.34541 29.8161 9.32718 29.7931L8.37048 28.4874C8.35424 28.4629 8.33701 28.4392 8.31877 28.4163L7.18754 27.1105C7.17495 27.0972 7.16202 27.0843 7.14875 27.0717L5.99813 25.8758C5.99386 25.8715 5.98955 25.8672 5.98521 25.8629L4.97033 24.8416L4.18817 23.9819L3.65164 23.2837L3.27672 22.7601C3.26644 22.7426 3.25567 22.7253 3.2444 22.7084L3.00523 22.4111C2.94495 22.3372 2.876 22.2725 2.79837 22.2171L2.67556 22.1266C2.45939 21.9707 2.21861 21.905 1.9532 21.9296C1.68779 21.9542 1.46315 22.0629 1.2793 22.2559L1.23405 22.2947C0.945479 22.5977 0.8636 22.949 0.98841 23.3484L1.02073 23.4518C1.0419 23.5215 1.06991 23.5882 1.10477 23.6522L1.16294 23.7491L1.19526 23.8202C1.27368 23.9736 1.38271 24.1008 1.52237 24.2017C1.66202 24.3025 1.81698 24.3661 1.98724 24.3923C2.15751 24.4186 2.32441 24.4046 2.48796 24.3505C2.65151 24.2963 2.79376 24.2079 2.91473 24.0853L2.95351 24.0465C3.09992 23.8975 3.19472 23.7208 3.23794 23.5164L3.29612 23.2773L3.45126 22.7472L3.82618 21.8164L4.41441 20.4783L5.15779 18.8364C5.16001 18.8299 5.16216 18.8235 5.16426 18.817L5.93996 17.0135C5.94438 17.0049 5.94869 16.9963 5.95288 16.9876L6.70273 15.1453C6.70275 15.141 6.70275 15.1367 6.70273 15.1324L7.41378 13.3548L8.0602 11.8098L8.61612 10.6075L9.02336 9.80595L9.26253 9.40517L9.37242 9.26296C9.06475 9.29706 8.81695 9.43712 8.62905 9.68313L8.69369 9.67666C8.69274 9.52311 8.66067 9.37636 8.59748 9.23641C8.53428 9.09646 8.4454 8.97536 8.33084 8.87311C8.21627 8.77087 8.08588 8.69627 7.93967 8.64934C7.79347 8.6024 7.64403 8.58716 7.49135 8.60361V8.68765C7.50487 8.61718 7.51133 8.54608 7.51075 8.47433L7.49135 8.59069L7.47843 8.64886L7.45903 8.69411L7.42671 8.77815C7.4244 8.78889 7.42224 8.79966 7.42025 8.81047L7.40086 8.86218L7.38793 8.8945C7.28303 9.17295 7.29176 9.44779 7.41413 9.71902C7.5365 9.99025 7.73677 10.1787 8.01495 10.2843L8.04727 10.2972C8.39711 10.4298 8.72678 10.391 9.03629 10.1809L9.23668 10.0451C9.26121 10.0267 9.28491 10.0073 9.30778 9.98694L9.85077 9.54738C9.85294 9.54524 9.85509 9.54308 9.85724 9.54092L10.7945 8.76522L12.0486 7.73095L13.4448 6.5868L14.8734 5.48143L16.2309 4.5118L17.4397 3.7361L18.4352 3.17372L19.1462 2.82466L19.547 2.68244L19.8056 2.64366C19.669 2.60973 19.5311 2.60326 19.3919 2.62427L19.5923 2.67598C19.4557 2.54748 19.2962 2.4613 19.1139 2.41741L19.1979 2.49498C19.1945 2.19646 19.0847 1.94436 18.8683 1.73868V1.82271C18.919 1.69168 18.9427 1.55593 18.9394 1.41547L18.9135 1.47365L18.8941 1.52536C18.8572 1.61686 18.8335 1.71167 18.823 1.80978L18.8166 1.84857C18.7866 2.1191 18.8512 2.36474 19.0105 2.58548L19.0363 2.62427L19.101 2.72123C19.1093 2.73435 19.1179 2.74728 19.1268 2.76001L19.2884 2.97333C19.3088 3.00021 19.3303 3.02607 19.3531 3.0509L19.6698 3.3935C19.6904 3.41598 19.712 3.43753 19.7345 3.45814L20.2969 3.97528L21.0726 4.71219C21.0768 4.71654 21.0811 4.72085 21.0855 4.72512L22.0163 5.57839C22.0269 5.58939 22.0376 5.60017 22.0486 5.61071L23.0377 6.45105C23.0462 6.45764 23.0548 6.46411 23.0635 6.47044L24.0202 7.23321C24.0266 7.23759 24.0331 7.2419 24.0396 7.24614L24.8799 7.88609C24.8842 7.88828 24.8885 7.89043 24.8929 7.89256L25.5716 8.40323L26.0306 8.74583L26.2503 8.93975L26.3538 9.04964C26.3051 8.91957 26.234 8.80321 26.1405 8.70058L26.1663 8.77168C26.1538 8.70079 26.1344 8.63184 26.1081 8.56483L26.1146 8.58422C26.1525 8.81766 26.2563 9.01679 26.4259 9.18161C26.5955 9.34644 26.7975 9.44448 27.0319 9.47573C27.2664 9.50699 27.487 9.4653 27.6939 9.35067C27.9007 9.23604 28.053 9.07106 28.1508 8.85572L28.1702 8.8234C28.1794 8.80426 28.188 8.78487 28.1961 8.76522L28.2155 8.70704C28.3072 8.44391 28.2978 8.18443 28.1873 7.9286C28.0769 7.67277 27.8945 7.488 27.6401 7.37428C27.3857 7.26056 27.1264 7.24786 26.8621 7.33618C26.5978 7.4245 26.3982 7.59056 26.2633 7.83438L26.231 7.89256C26.2084 7.93647 26.189 7.98172 26.1728 8.0283L26.1598 8.06062C26.1118 8.33716 26.1642 8.59314 26.317 8.82856C26.4699 9.06398 26.6824 9.21603 26.9545 9.2847C27.2267 9.35338 27.4859 9.32035 27.7321 9.18563C27.9783 9.05091 28.1459 8.85044 28.2348 8.58422L28.2413 8.56483C28.269 8.38375 28.2518 8.20707 28.1896 8.03477L28.1637 7.96366C28.1154 7.82599 28.0421 7.70317 27.944 7.59521L27.8017 7.44007C27.7618 7.3978 27.7187 7.35901 27.6725 7.32371L27.3686 7.07807C27.3601 7.07148 27.3515 7.06501 27.3428 7.05868L26.845 6.69669L26.1663 6.18602L25.3389 5.559L24.4081 4.81562L23.4514 3.99467L22.5399 3.15433L21.7578 2.42388C21.7514 2.41733 21.7449 2.41087 21.7384 2.40449L21.1954 1.91967L20.9497 1.64818L20.8334 1.4995L20.7752 1.41547C20.7709 1.41112 20.7666 1.40681 20.7623 1.40254L20.73 1.35729C20.6662 1.66078 20.7243 1.93874 20.9045 2.19117L20.9174 2.15238C20.8825 2.22694 20.8567 2.30451 20.8398 2.38509L20.8657 2.32692C20.8831 2.28901 20.8981 2.25023 20.9109 2.21056L20.9368 2.13945C20.9702 2.03651 20.9874 1.93093 20.9885 1.82271V1.73868C20.9951 1.41624 20.8787 1.1469 20.6395 0.930657L20.5554 0.853087C20.4143 0.724881 20.2506 0.640847 20.0641 0.600985L19.8573 0.5622C19.7395 0.537719 19.621 0.53341 19.5018 0.549272L19.1398 0.594521C19.0735 0.605612 19.0088 0.62285 18.9458 0.646234L18.3899 0.833695C18.3503 0.846504 18.3115 0.861587 18.2736 0.878944L17.4785 1.26033C17.4566 1.27037 17.435 1.28115 17.4138 1.29265L16.3602 1.88735C16.3426 1.89763 16.3254 1.90841 16.3085 1.91967L15.048 2.72123C15.0348 2.7317 15.0218 2.74247 15.0092 2.75355L13.6129 3.74903C13.602 3.75744 13.5912 3.76606 13.5806 3.77489L12.1197 4.89319C12.1131 4.89957 12.1067 4.90603 12.1003 4.91258L10.6846 6.0632C10.6825 6.06534 10.6803 6.0675 10.6782 6.06966L9.42414 7.11039L8.4933 7.87963L7.98909 8.28687L7.82749 8.39676C8.18657 8.54629 8.52701 8.51181 8.84883 8.29333L8.81651 8.28041C8.68315 8.55769 8.67063 8.84032 8.77895 9.12831C8.88726 9.4163 9.08293 9.62063 9.36596 9.74131L9.39182 9.69606C9.39403 9.68961 9.39619 9.68315 9.39828 9.67666L9.4306 9.61202C9.43503 9.60346 9.43934 9.59484 9.44353 9.58617L9.48232 9.4892C9.49768 9.44903 9.5106 9.40809 9.5211 9.36639L9.55989 9.24357C9.5622 9.23283 9.56436 9.22205 9.56635 9.21125L9.60513 9.0755C9.60761 9.06046 9.60976 9.04538 9.6116 9.03025L9.63746 8.90097C9.65314 8.83072 9.66176 8.75961 9.66331 8.68765V8.60361C9.66392 8.4508 9.63363 8.30437 9.57242 8.16435C9.51122 8.02432 9.42433 7.90263 9.31176 7.79929C9.19919 7.69594 9.07053 7.61975 8.92579 7.57072C8.78105 7.52168 8.63258 7.50399 8.48037 7.51764L8.41573 7.5241C8.10017 7.55288 7.84592 7.69293 7.65296 7.94427L7.50428 8.13819C7.47879 8.1692 7.45509 8.20152 7.43318 8.23516L7.14229 8.71997C7.12848 8.74319 7.11555 8.76689 7.10351 8.79108L6.67041 9.65081C6.66592 9.66151 6.66161 9.67229 6.65748 9.68313L6.08863 10.9178C6.08191 10.9306 6.07545 10.9435 6.06924 10.9566L5.41636 12.5338C5.41198 12.5402 5.40767 12.5467 5.40343 12.5532L4.71177 14.3438L3.96839 16.1731L3.19915 17.9637L2.4687 19.6056L1.84814 20.9502C1.84134 20.9651 1.83487 20.9802 1.82875 20.9954L1.42797 21.9909C1.41586 22.0206 1.40508 22.0507 1.39565 22.0814L1.21466 22.6955C1.20433 22.7295 1.19571 22.764 1.1888 22.7989L1.13709 23.0769C1.2907 22.9212 1.38766 22.7359 1.42797 22.521L1.38919 22.5597C1.48578 22.6766 1.60194 22.7689 1.73766 22.8366C1.87338 22.9043 2.01699 22.9415 2.1685 22.9483C2.32 22.955 2.46636 22.9308 2.60758 22.8755C2.7488 22.8202 2.87273 22.7387 2.97937 22.6308L2.92119 22.5597C2.95635 22.6336 2.99945 22.7026 3.05048 22.7666L3.03755 22.7343L3.03108 22.7084C2.80209 23.0032 2.74391 23.3286 2.85655 23.6845L2.88887 23.6393C2.65662 23.4676 2.39742 23.4012 2.11127 23.4402C1.82511 23.4791 1.59304 23.6122 1.41504 23.8396L1.42797 23.8526L1.57018 24.0271L1.94511 24.5378C1.95351 24.5487 1.96213 24.5595 1.97096 24.5701L2.5592 25.307C2.57372 25.3247 2.5888 25.342 2.60445 25.3587L3.43186 26.2702C3.44232 26.2834 3.4531 26.2963 3.46418 26.3089L4.49845 27.3367L5.62968 28.5003L6.70919 29.7479L7.60771 30.9955L8.26705 32.0814C8.2692 32.0836 8.27135 32.0858 8.27352 32.0879L8.73894 32.8313C8.75122 32.8511 8.76415 32.8705 8.77772 32.8895L9.06215 33.2902C9.08607 33.3241 9.11193 33.3564 9.13972 33.3872L9.30778 33.5682C9.36744 33.6327 9.43424 33.6888 9.50817 33.7363L9.60513 33.8009C9.8286 33.9469 10.0721 33.9986 10.3356 33.956L10.4132 33.9431C10.4819 33.9305 10.5487 33.9111 10.6135 33.8849L10.6976 33.8526C10.8371 33.8015 10.9599 33.724 11.066 33.6199L11.1113 33.5747C11.2681 33.4164 11.3637 33.2271 11.3982 33.007C11.4327 32.7869 11.3996 32.5775 11.2987 32.3788L11.2729 32.3271C11.1847 32.1532 11.0576 32.0153 10.8915 31.9134L10.801 31.8552C10.7882 31.8485 10.7753 31.842 10.7622 31.8358L10.6717 31.7841C10.7653 31.9373 10.8903 32.058 11.0466 32.1461L11.0272 32.1138C10.5864 32.035 10.2404 32.181 9.98924 32.5517C9.73804 32.9224 9.73067 33.2978 9.96713 33.6781L10.0447 33.691L10.3291 33.7686L10.9561 33.9496C10.9583 33.9518 10.9604 33.9539 10.9626 33.956L11.9904 34.2534C11.9926 34.2534 11.9947 34.2534 11.9969 34.2534L13.4513 34.6606C13.4556 34.6628 13.4599 34.665 13.4642 34.6671L15.2936 35.1519L17.3686 35.7078L19.4307 36.2896L21.1695 36.8391L22.3201 37.2851L23.0118 37.5824C23.0182 37.5868 23.0247 37.5911 23.0312 37.5954L23.4126 37.7505C23.4753 37.7763 23.5399 37.7957 23.6065 37.8087L23.8327 37.8539C23.8627 37.8596 23.8929 37.8639 23.9232 37.8669L24.0525 37.8798L24.143 37.8927C24.053 37.8463 23.9582 37.814 23.8586 37.7958L23.9556 37.8475C23.8753 37.7602 23.7826 37.6891 23.6776 37.6342L23.7293 37.6923C23.6899 37.513 23.608 37.3557 23.4837 37.2204L23.4901 37.2592C23.5996 37.0408 23.6276 36.8124 23.5742 36.574L23.5548 36.6128C23.7342 36.5095 23.8699 36.3651 23.962 36.1797L23.9362 36.1991L23.8457 36.2314L23.6711 36.2961L23.5225 36.3349L23.3932 36.3607C23.4969 36.3743 23.6004 36.3721 23.7035 36.3543L23.6388 36.3413C23.4559 36.4573 23.3229 36.6153 23.2399 36.8154C23.1569 37.0155 23.1389 37.2212 23.186 37.4327C23.233 37.6441 23.3366 37.8228 23.4966 37.9688C23.6567 38.1147 23.8441 38.2014 24.059 38.2289L24.1236 38.1901L24.4727 38.022L25.313 37.6729L26.6964 37.1493L28.4999 36.4641L30.5102 35.7143L32.359 35.0291L33.6647 34.5443L34.3047 34.331L34.5245 34.2857L34.6344 34.2663C34.7563 34.2436 34.8705 34.2006 34.977 34.137L35.0093 34.1177C35.2445 33.9765 35.3997 33.7739 35.4747 33.51V33.4906C35.5942 33.074 35.4929 32.7206 35.1709 32.4305L35.1515 32.4176C34.9826 32.2635 34.7843 32.1752 34.5568 32.1525H34.5374C34.1081 32.1128 33.7806 32.2766 33.5548 32.6438L33.5355 32.6697C33.5189 32.6991 33.5038 32.7293 33.4902 32.7602L33.4643 32.8184C33.4575 32.8333 33.4511 32.8484 33.445 32.8636L33.4062 32.9541C33.3945 32.9774 33.3837 33.0011 33.3739 33.0252L33.3286 33.1545C33.3211 33.1801 33.3147 33.206 33.3092 33.2321L33.2769 33.3549C33.272 33.3742 33.2677 33.3935 33.264 33.4131L33.2446 33.51C33.247 33.4971 33.2491 33.4842 33.251 33.4712V33.4777C33.2231 33.7496 33.2907 33.9952 33.4539 34.2144C33.617 34.4337 33.8328 34.569 34.1013 34.6203C34.3697 34.6717 34.6202 34.6255 34.8528 34.4819C35.0853 34.3383 35.2388 34.135 35.3131 33.872L35.3325 33.7363C35.3354 33.7126 35.3376 33.6889 35.339 33.6652L35.3648 33.329L35.423 32.7214L35.5523 31.7388L35.7785 30.3167L36.0953 28.4809L36.4573 26.4059L36.8386 24.4085L37.136 22.7924C37.1382 22.786 37.1404 22.7795 37.1425 22.7731L37.3041 21.7776C37.3088 21.7604 37.3131 21.7432 37.317 21.7259L37.3687 21.254C37.3688 21.2475 37.3688 21.241 37.3687 21.2346L37.3881 21.0471C37.3927 20.9911 37.3927 20.9351 37.3881 20.8791L37.3816 20.8015C37.363 20.5329 37.2554 20.3065 37.0589 20.1225C36.8624 19.9384 36.6295 19.8458 36.3603 19.8448H36.328C36.0266 19.8459 35.7745 19.958 35.5717 20.1809L35.52 20.2391C35.4646 20.3002 35.4172 20.367 35.3777 20.4395L35.3325 20.5235C35.3159 20.553 35.3008 20.5831 35.2872 20.614L35.242 20.7175C35.2375 20.7282 35.2332 20.7389 35.2291 20.7498L35.1967 20.8403C35.2417 20.7734 35.2783 20.7023 35.3066 20.627L35.2614 20.6916C35.7217 20.8014 36.0858 20.6614 36.3538 20.2714L36.2957 20.2585C36.4278 20.5936 36.6691 20.8026 37.0196 20.8855L37.0002 20.8338L36.9485 20.5752C36.9434 20.5448 36.9369 20.5146 36.9291 20.4847L36.7675 19.8836L36.5219 18.9721C36.5198 18.9635 36.5177 18.9549 36.5154 18.9463L36.1534 17.7375C36.1513 17.7331 36.1492 17.7288 36.147 17.7245L35.6945 16.283C35.6945 16.2766 35.6945 16.2701 35.6945 16.2636L35.1774 14.6993C35.1752 14.6993 35.173 14.6993 35.1709 14.6993L34.6731 13.2126L34.2724 12.0038C34.2703 11.9973 34.2681 11.9908 34.2659 11.9844L34.0203 11.2927C34.0161 11.2819 34.0118 11.2711 34.0073 11.2604L33.8974 10.963C33.8893 10.9455 33.8807 10.9283 33.8716 10.9113L33.8263 10.8144C33.8416 10.8996 33.8674 10.9815 33.9039 11.06L33.8974 11.0147C33.8803 10.9199 33.8502 10.8294 33.8069 10.7433L33.794 10.7174C33.7696 10.6699 33.7416 10.6247 33.71 10.5816V10.5752C33.541 10.606 33.3899 10.6757 33.2567 10.7843C33.1236 10.8928 33.0249 11.0268 32.9606 11.1861C32.8964 11.3454 32.8745 11.5104 32.8951 11.6809C32.9157 11.8515 32.9762 12.0065 33.0765 12.146L33.0894 12.1395C33.1002 12.1375 33.111 12.1354 33.1217 12.133L33.1605 12.1266C33.0222 12.0996 32.8843 12.1018 32.7468 12.133L32.8244 12.146C32.7739 12.1267 32.7222 12.1116 32.6693 12.1007L32.7727 12.1395C32.7005 12.0883 32.623 12.0474 32.54 12.0167L32.6305 12.0813C32.5622 11.8695 32.4372 11.6992 32.2556 11.5707L32.2749 11.6288C32.559 11.5617 32.7729 11.4011 32.9166 11.1471C33.0603 10.893 33.0877 10.627 32.9989 10.3489L32.8761 10.3748C33.0019 10.3943 33.1269 10.39 33.251 10.3619L32.9278 10.3166L32.2943 10.2003L31.2859 9.98048L29.9026 9.67666L28.2413 9.27589L26.4507 8.81047L24.7959 8.33212L23.4384 7.91195C23.4256 7.90736 23.4127 7.90305 23.3997 7.89902L22.4623 7.65985C22.4137 7.64509 22.3641 7.63432 22.3137 7.62753L21.7771 7.57581C21.7297 7.5721 21.6823 7.5721 21.6349 7.57581L21.3699 7.58874C21.3526 7.59039 21.3354 7.59254 21.3182 7.59521L21.2083 7.60813C21.3003 7.62718 21.3929 7.63149 21.4863 7.62106L21.4475 7.6146C21.4175 7.84552 21.4703 8.05559 21.606 8.24482C21.7417 8.43406 21.9237 8.5515 22.1521 8.59715V8.57129C22.1226 8.64413 22.1032 8.71954 22.0939 8.79754L22.1004 8.78461L22.1262 8.73936C22.0727 8.79584 22.0274 8.85833 21.9905 8.92682L22.0551 8.84925L22.1327 8.78461L22.1973 8.7329L22.262 8.70058C22.1493 8.7167 22.0437 8.75333 21.9452 8.81047L21.9969 8.804C21.9974 8.67587 21.9711 8.55349 21.918 8.43686C21.865 8.32023 21.79 8.21999 21.6931 8.13614C21.5962 8.05229 21.4862 7.99249 21.3632 7.95672C21.2402 7.92096 21.1153 7.9125 20.9885 7.93134V7.97013C21.1778 7.79624 21.2726 7.58077 21.2729 7.32371L21.2342 7.35603L21.079 7.45946L20.6653 7.71156L19.9543 8.13819L18.9394 8.73936C18.935 8.74363 18.9307 8.74793 18.9265 8.75229L17.7112 9.5086C17.7025 9.5149 17.6938 9.52136 17.6853 9.52799L16.483 10.3554C16.4631 10.3676 16.4437 10.3805 16.4248 10.3942L15.4681 11.1699C15.4503 11.1843 15.4331 11.1994 15.4164 11.2151L14.7959 11.8098C14.7732 11.8303 14.7516 11.8518 14.7312 11.8745L14.3951 12.2688C14.374 12.2957 14.3546 12.3237 14.3369 12.3528L14.1688 12.6049C14.1359 12.6517 14.1079 12.7013 14.0848 12.7536L14.0331 12.8764C13.9074 13.1768 13.9398 13.459 14.13 13.7232L14.1624 13.7685C14.3077 13.971 14.5038 14.0895 14.7506 14.124L14.8088 14.1305C14.8885 14.1415 14.9682 14.1415 15.048 14.1305L15.1061 14.124C15.2565 14.1034 15.3922 14.0474 15.5134 13.9559L15.5522 13.9301C15.6163 13.8798 15.6724 13.8216 15.7202 13.7555L15.7655 13.6974C15.8002 13.6529 15.8304 13.6055 15.856 13.5552L15.8754 13.5099L15.9012 13.4711C15.5627 13.4608 15.3063 13.6008 15.132 13.8913H15.1708C15.2119 13.6326 15.1487 13.4025 14.9811 13.2012C14.8135 12.9998 14.5988 12.8959 14.3369 12.8894V12.9152L14.2529 13.1156L13.9878 13.6844C13.9856 13.6887 13.9835 13.693 13.9814 13.6974L13.5483 14.6476C13.5437 14.6583 13.5394 14.6691 13.5353 14.6799L13.0182 15.9792C13.0111 15.9984 13.0046 16.0178 12.9988 16.0374L12.4881 17.6147C12.4808 17.6359 12.4744 17.6575 12.4688 17.6793L12.0551 19.3988C12.0525 19.4138 12.0503 19.4289 12.0486 19.444L11.7512 21.0988C11.7461 21.1202 11.7418 21.1418 11.7383 21.1635L11.5961 22.5403C11.5957 22.5554 11.5957 22.5705 11.5961 22.5856L11.5444 23.5617C11.5443 23.5681 11.5443 23.5746 11.5444 23.5811L11.525 24.1887C11.5243 24.2081 11.5243 24.2275 11.525 24.2469L11.5379 24.6283C11.5391 24.6521 11.5412 24.6758 11.5444 24.6994L11.5702 24.9062C11.5759 24.9478 11.5845 24.9887 11.5961 25.029L11.6155 25.1131C11.6229 25.1393 11.6315 25.1652 11.6413 25.1906L11.6478 25.2036C11.7798 25.3679 11.9493 25.4703 12.1561 25.5109C12.3629 25.5515 12.5585 25.5208 12.7428 25.4186C12.9272 25.3165 13.057 25.167 13.1322 24.9701C13.2074 24.7732 13.2103 24.5752 13.141 24.3762L13.1281 24.3568C13.1493 24.393 13.173 24.4274 13.1992 24.4602L13.1669 24.4085C13.1496 24.3749 13.1302 24.3426 13.1087 24.3115L13.0764 24.2727L13.0505 24.2275L13.0182 24.1758C12.8822 24.3119 12.8009 24.4752 12.7746 24.6658C12.7482 24.8564 12.782 25.0357 12.876 25.2036L12.8889 25.1906C12.7197 25.032 12.519 24.9546 12.2871 24.9583C12.0551 24.9621 11.8571 25.046 11.6931 25.21L11.7965 25.307C11.7965 25.3092 11.7965 25.3113 11.7965 25.3135L12.0421 25.5397C12.0464 25.5441 12.0507 25.5484 12.0551 25.5526L12.4946 25.9405C12.5031 25.9471 12.5117 25.9536 12.5205 25.9599L13.1798 26.5093C13.1862 26.5137 13.1927 26.518 13.1992 26.5223L15.1126 28.0349L17.1553 29.7156C17.1574 29.7156 17.1596 29.7156 17.1617 29.7156L17.9956 30.3878L18.5903 30.9179L18.9846 31.3122C18.9868 31.3144 18.9889 31.3165 18.9911 31.3187L19.2367 31.5643C19.241 31.5665 19.2453 31.5687 19.2497 31.5708L19.3854 31.7001C19.3959 31.7111 19.4067 31.7219 19.4177 31.7324L19.4888 31.7906C19.4368 31.6908 19.3678 31.6046 19.282 31.532L19.3078 31.5772C19.3404 31.3869 19.3123 31.2059 19.2238 31.0342L19.2173 31.073C19.534 30.9602 19.7215 30.7383 19.7797 30.4072L19.7409 30.4202C19.8051 30.4121 19.8676 30.397 19.9284 30.3749L19.8638 30.3814C19.8154 30.3881 19.768 30.3989 19.7215 30.4137L19.6698 30.4266C19.5334 30.4664 19.4141 30.5358 19.3121 30.6348C19.21 30.7337 19.137 30.8508 19.093 30.986C19.049 31.1211 19.0392 31.2588 19.0635 31.3988C19.0878 31.5389 19.1434 31.6651 19.2303 31.7776L19.2497 31.8035C19.371 31.9616 19.5283 32.065 19.7215 32.1138L19.8573 32.1461C19.8914 32.1547 19.9258 32.1611 19.9607 32.1655L20.3033 32.2107C20.3248 32.2137 20.3463 32.2158 20.368 32.2172L21.0014 32.2495C21.023 32.2503 21.0445 32.2503 21.0661 32.2495L22.0551 32.2237C22.0767 32.2245 22.0982 32.2245 22.1197 32.2237L23.5031 32.0879C23.5161 32.086 23.529 32.0839 23.5419 32.0814L25.2096 31.8423C25.2161 31.8423 25.2225 31.8423 25.229 31.8423L26.8968 31.5643L28.1961 31.3704L28.8683 31.3057L29.114 31.3316C29.02 31.2853 28.9209 31.2573 28.8166 31.2476L28.9265 31.2993C28.8441 31.1622 28.7321 31.0566 28.5904 30.9825L28.6227 31.0342C28.7348 31.222 28.8953 31.348 29.1043 31.4123C29.3133 31.4766 29.5169 31.4626 29.7151 31.3704H29.7216C29.9575 31.2595 30.1105 31.0785 30.1806 30.8274L30.1999 30.7434C30.2044 30.7348 30.2087 30.7262 30.2129 30.7175L30.2646 30.4977L30.3809 30.084L30.5619 29.4311L30.8528 28.5455L31.2277 27.4466L31.6544 26.2572L32.0875 25.1066L32.4624 24.1564L32.7339 23.5358C32.7383 23.5294 32.7426 23.523 32.7468 23.5164L32.8567 23.2449C32.7369 23.3374 32.6486 23.4538 32.5917 23.594L32.624 23.5681C32.5791 23.442 32.5081 23.3328 32.4109 23.2405C32.3138 23.1483 32.2011 23.0831 32.0727 23.0448C31.9444 23.0064 31.8143 22.9992 31.6825 23.0231C31.5507 23.047 31.4314 23.0994 31.3247 23.1803L31.3441 23.2385C31.3358 23.1877 31.3228 23.1382 31.3053 23.0898L31.3182 23.1674C31.3262 23.2203 31.3392 23.272 31.357 23.3225L31.3764 23.3807C31.3707 23.3167 31.3578 23.2542 31.3376 23.1932V23.2062C31.4269 23.389 31.5647 23.5215 31.7509 23.6035C31.9371 23.6855 32.1278 23.6977 32.323 23.6401C32.5182 23.5825 32.6717 23.4687 32.7835 23.2987C32.8954 23.1288 32.9392 22.9428 32.9149 22.7407L32.8826 22.6761L32.7921 22.4757C32.7805 22.4492 32.7676 22.4233 32.7533 22.3981L32.54 22.0232C32.5378 22.021 32.5357 22.0189 32.5335 22.0167L32.1715 21.4027L31.6673 20.5494L31.0403 19.4957L30.3874 18.3386L29.7992 17.1945L29.3079 16.2507C29.3017 16.2398 29.2952 16.229 29.2885 16.2184L28.92 15.5914C28.8925 15.5427 28.8601 15.4975 28.8231 15.4556L28.5257 15.1389C28.4943 15.1033 28.4598 15.071 28.4223 15.0419L28.2413 14.9062C28.2047 14.8789 28.1659 14.8552 28.125 14.8351L28.028 14.7898C27.7615 14.6601 27.5094 14.6838 27.2717 14.8609L27.2588 14.8738C27.0769 15.0068 26.9778 15.1857 26.9614 15.4104V15.4556C26.957 15.5208 26.9613 15.5855 26.9743 15.6495L26.9808 15.7077C26.9897 15.6341 26.9875 15.5609 26.9743 15.4879L26.9679 15.5332C27.1216 15.4024 27.2078 15.2365 27.2264 15.0355L27.207 15.0548C27.3828 15.0517 27.538 14.9935 27.6725 14.8803H27.5949C27.6605 14.8981 27.7273 14.9067 27.7953 14.9062L27.6401 14.8674C27.638 14.8674 27.6358 14.8674 27.6337 14.8674L27.3751 14.7963L26.9743 14.6799L26.399 14.4989C26.3969 14.4989 26.3947 14.4989 26.3926 14.4989L25.6944 14.2856C25.6923 14.2856 25.6901 14.2856 25.688 14.2856L24.9317 14.0658C24.9189 14.0612 24.9059 14.0568 24.8929 14.0529L24.1495 13.8848C24.1303 13.8797 24.1109 13.8754 24.0913 13.8719L23.4578 13.7814C23.4237 13.7746 23.3892 13.7703 23.3544 13.7685H22.8696C22.8393 13.7687 22.8091 13.7709 22.7791 13.7749L22.4623 13.8202C22.4559 13.8201 22.4494 13.8201 22.443 13.8202L22.2361 13.8525C22.2253 13.8544 22.2145 13.8566 22.2038 13.859L22.081 13.8848C22.0636 13.8885 22.0463 13.8928 22.0292 13.8978L21.9388 13.9236C21.8964 13.9349 21.8555 13.95 21.8159 13.9689L21.7513 14.0012C21.7198 14.0162 21.6897 14.0334 21.6608 14.0529L21.6285 14.0788C21.6763 14.0601 21.7216 14.0364 21.7642 14.0077L21.7384 14.0141C21.621 14.0633 21.524 14.1387 21.4475 14.2404L21.4345 14.2533C21.4323 14.2576 21.4302 14.2619 21.4281 14.2662L21.4087 14.2921C21.4248 14.2735 21.4399 14.2541 21.4539 14.2339L21.4345 14.2598L21.3893 14.2985L21.0919 14.5506C21.0809 14.5589 21.0701 14.5676 21.0596 14.5765L20.8269 14.7963C20.8203 14.8026 20.8139 14.8091 20.8075 14.8157L20.536 15.0936C20.5248 15.1062 20.514 15.1191 20.5037 15.1324L20.2193 15.475C20.2006 15.4976 20.1833 15.5214 20.1676 15.5461L19.8961 15.9728C19.8869 15.9875 19.8783 16.0026 19.8702 16.018L19.5858 16.5545C19.579 16.5651 19.5726 16.5759 19.5664 16.5869L19.2626 17.2268C19.2579 17.2396 19.2536 17.2525 19.2497 17.2656L18.9523 17.9766C18.9477 17.9873 18.9434 17.9981 18.9394 18.009L18.6873 18.7071C18.685 18.7135 18.6829 18.72 18.6808 18.7265L18.474 19.347C18.474 19.3492 18.474 19.3514 18.474 19.3535L18.3188 19.8383C18.3166 19.8448 18.3144 19.8512 18.3124 19.8577L18.2025 20.2326C18.2003 20.2369 18.1981 20.2412 18.196 20.2456L18.112 20.5623C18.1119 20.5688 18.1119 20.5752 18.112 20.5817L18.0473 20.8338C18.0472 20.8403 18.0472 20.8467 18.0473 20.8532L18.0085 21.0277C18.0034 21.0469 17.9991 21.0663 17.9956 21.0859L17.9827 21.1893C17.978 21.2367 17.978 21.2841 17.9827 21.3315L17.9891 21.4027C17.9897 21.4308 17.9918 21.4588 17.9956 21.4867L18.0021 21.5125V21.5255C18.0054 21.5648 18.0118 21.6036 18.0215 21.6418L18.0344 21.6871C18.1186 22.0415 18.3427 22.2268 18.7067 22.243H18.7131C18.9149 22.2503 19.0896 22.1851 19.2373 22.0475C19.3851 21.9099 19.4624 21.7402 19.4694 21.5384L19.4759 21.5061V21.4608L19.4824 21.3833C19.4206 21.4801 19.384 21.5857 19.3725 21.7L19.4177 21.6289C19.2515 21.5425 19.0779 21.5234 18.8969 21.5718C18.7159 21.6201 18.5749 21.7232 18.474 21.881L18.5451 21.9133C18.4758 21.802 18.3832 21.7158 18.2671 21.6548L18.3835 21.8422L18.5645 22.1848C18.5725 22.2002 18.5811 22.2153 18.5903 22.2301L18.8683 22.6567L19.1656 23.1221C19.1678 23.1243 19.1699 23.1264 19.1721 23.1286L19.4694 23.5811C19.4758 23.5877 19.4822 23.5942 19.4888 23.6005L19.7797 24.0012C19.7819 24.0034 19.784 24.0056 19.7862 24.0077L20.0448 24.3438L20.2387 24.6218L20.3615 24.8157C20.3833 24.8493 20.4092 24.8795 20.4391 24.9062L20.5748 25.0161C20.5909 25.0325 20.6081 25.0476 20.6265 25.0614L20.7493 25.1389L20.814 25.1842L20.8334 25.1971C20.8124 25.1126 20.7693 25.0415 20.7041 24.9838L20.717 25.0226C20.8653 24.9128 20.917 24.7684 20.8722 24.5895L20.8592 24.6024C20.9166 24.7168 21.0074 24.7891 21.1318 24.8192C21.2562 24.8493 21.37 24.8266 21.4733 24.7511L21.4604 24.7252C21.4681 24.7544 21.4789 24.7824 21.4927 24.8093L21.4863 24.7963V24.7705C21.4441 24.8353 21.4226 24.9065 21.4216 24.9838L21.4863 24.8933C21.4167 24.9247 21.3607 24.9721 21.3182 25.0355L21.4539 24.9709L21.706 24.9321L22.165 24.9515L22.7662 24.9967L23.3932 25.1131L23.9685 25.2941L24.4792 25.4815C24.4813 25.4815 24.4835 25.4815 24.4856 25.4815L24.8799 25.6237L25.145 25.7466C25.1493 25.7488 25.1536 25.7509 25.1579 25.753L25.3066 25.8177L25.3648 25.85C25.4061 25.8715 25.4492 25.8887 25.494 25.9017L25.5651 25.9276C25.6603 25.9565 25.7573 25.9651 25.856 25.9534L25.9207 25.947C25.9997 25.9381 26.0751 25.9165 26.1469 25.8823L26.2116 25.85C26.3206 25.7997 26.4111 25.7264 26.4831 25.6302L26.5348 25.5591C26.5919 25.4788 26.6307 25.3905 26.6511 25.2941L26.6834 25.1583C26.6952 25.1095 26.7016 25.0599 26.7028 25.0097V24.7899C26.7035 24.7726 26.7035 24.7554 26.7028 24.7382L26.6576 23.9883L26.6511 23.5035L26.6576 22.9993L26.6705 22.5274L26.6899 22.159L26.7028 21.8745C26.7057 21.8574 26.7078 21.8401 26.7093 21.8228L26.7028 21.5513C26.6937 21.2257 26.5285 21.0357 26.2072 20.9816C25.8859 20.9275 25.6676 21.0527 25.5522 21.3574ZM26.2827 8.29333C26.2827 8.55395 26.3748 8.7764 26.5591 8.96068C26.7434 9.14496 26.9658 9.2371 27.2264 9.2371C27.487 9.2371 27.7095 9.14496 27.8938 8.96068C28.0781 8.7764 28.1702 8.55395 28.1702 8.29333C28.1702 8.03272 28.0781 7.81027 27.8938 7.62599C27.7095 7.44171 27.487 7.34957 27.2264 7.34957C26.9658 7.34957 26.7434 7.44171 26.5591 7.62599C26.3748 7.81027 26.2827 8.03272 26.2827 8.29333ZM26.5283 8.31919C26.5283 8.50662 26.5946 8.6666 26.7271 8.79913C26.8596 8.93166 27.0196 8.99793 27.207 8.99793C27.3945 8.99793 27.5545 8.93166 27.687 8.79913C27.8195 8.6666 27.8858 8.50662 27.8858 8.31919C27.8858 8.13176 27.8195 7.97178 27.687 7.83925C27.5545 7.70672 27.3945 7.64045 27.207 7.64045C27.0196 7.64045 26.8596 7.70672 26.7271 7.83925C26.5946 7.97178 26.5283 8.13176 26.5283 8.31919ZM26.9291 8.19637L26.8774 8.26101C26.7529 8.4161 26.7681 8.55601 26.923 8.68074C27.0778 8.80548 27.2178 8.79055 27.3428 8.63594L27.3945 8.57129C27.5189 8.41621 27.5037 8.2763 27.3489 8.15156C27.1941 8.02683 27.0541 8.04176 26.9291 8.19637Z" fill="black"/>
<path d="M25.7332 6.93585H25.7203C25.6009 6.97549 25.5156 7.05283 25.4646 7.16788C25.4136 7.28294 25.4136 7.39802 25.4644 7.51314C25.5153 7.62826 25.6004 7.70572 25.7198 7.74552C25.8392 7.78531 25.9537 7.77442 26.0635 7.71283C26.1732 7.65124 26.2422 7.55912 26.2704 7.43648C26.2987 7.31384 26.2769 7.20083 26.2051 7.09746L26.1987 7.09099C26.0825 6.92221 25.9274 6.8705 25.7332 6.93585ZM25.3131 7.38188C25.3131 7.53004 25.3654 7.6565 25.4702 7.76126C25.575 7.86602 25.7014 7.9184 25.8496 7.9184C25.9977 7.9184 26.1242 7.86602 26.229 7.76126C26.3337 7.6565 26.3861 7.53004 26.3861 7.38188C26.3861 7.23372 26.3337 7.10726 26.229 7.0025C26.1242 6.89774 25.9977 6.84535 25.8496 6.84535C25.7014 6.84535 25.575 6.89774 25.4702 7.0025C25.3654 7.10726 25.3131 7.23372 25.3131 7.38188ZM25.3195 7.76973L25.4617 8.04122C25.4836 8.0847 25.5094 8.12564 25.5393 8.16404L25.9336 8.65532C25.946 8.67092 25.9589 8.686 25.9724 8.70057L26.6124 9.3793C26.6287 9.39745 26.6459 9.41468 26.6641 9.43102L27.4139 10.0774C27.4304 10.0913 27.4477 10.1043 27.4656 10.1162L28.209 10.6204C28.2153 10.6249 28.2218 10.6292 28.2284 10.6334L28.8231 10.9824L29.1916 11.2862C29.3294 11.398 29.4543 11.385 29.5663 11.2473C29.6782 11.1095 29.6653 10.9846 29.5277 10.8725L29.1657 10.5816L28.7649 10.0451L28.2607 9.31466C28.2586 9.31466 28.2564 9.31466 28.2543 9.31466L27.6854 8.50018C27.6812 8.49581 27.6768 8.4915 27.6725 8.48725L27.123 7.74387C27.1147 7.73286 27.1061 7.72209 27.0972 7.71155L26.6899 7.22028C26.6395 7.16164 26.5813 7.11208 26.5154 7.0716L26.2568 6.91C25.9729 6.73147 25.7074 6.75556 25.4602 6.98227C25.213 7.20898 25.1661 7.47147 25.3195 7.76973Z" fill="black"/>
</g>
<defs>
<clipPath id="clip0_1_7384">
<rect width="39" height="39" fill="white"/>
</clipPath>
</defs>
</svg>
