<svg width="32" height="40" viewBox="0 0 32 40" fill="none" xmlns="http://www.w3.org/2000/svg">
<g clip-path="url(#clip0_1_7388)">
<path d="M24.7164 21.7933C24.7164 21.9968 24.8182 22.0986 25.0218 22.0986C25.2253 22.0986 25.3271 21.9968 25.3271 21.7933C25.3271 21.5897 25.2253 21.4879 25.0218 21.4879C24.8182 21.4879 24.7164 21.5897 24.7164 21.7933ZM24.7991 21.4879L24.7355 21.5261C24.6695 21.5673 24.6186 21.6224 24.5828 21.6915L24.5001 21.8378C24.4833 21.8702 24.4706 21.9041 24.462 21.9396L24.3984 22.1877C24.3916 22.2148 24.3874 22.2424 24.3856 22.2704L24.3666 22.5821C24.3649 22.6251 24.3691 22.6675 24.3793 22.7093L24.4493 23.0337C24.4631 23.1014 24.4907 23.1629 24.532 23.2182L24.7228 23.4663C24.7876 23.5522 24.8725 23.6073 24.9773 23.6317L25.2444 23.6889C25.3394 23.7105 25.4305 23.6999 25.518 23.6571L25.7979 23.5172C25.8572 23.4869 25.906 23.4445 25.9442 23.39L26.1923 23.0528C26.2217 23.0122 26.2429 22.9677 26.2559 22.9192L26.3704 22.4866C26.3896 22.4097 26.3875 22.3334 26.364 22.2576L26.2623 21.9014C26.1994 21.6845 26.0552 21.57 25.8297 21.5579L25.4798 21.5388C25.3418 21.5319 25.2251 21.5786 25.1299 21.6787L24.8755 21.9459L24.532 22.1686C24.4011 22.2694 24.3811 22.3889 24.4718 22.5269C24.5625 22.6649 24.6801 22.6939 24.8246 22.6139L25.1172 22.423L25.3971 22.4358L25.5052 22.4612L25.5116 22.4676L25.4798 22.6584L25.3526 22.8302L25.3399 22.8365L25.3907 22.862L25.3399 22.7729L25.3017 22.5757L25.3144 22.3531L25.3462 22.1304L25.378 21.965C25.3814 21.9461 25.3836 21.927 25.3844 21.9078V21.8251C25.3902 21.6716 25.3266 21.5565 25.1935 21.4799C25.0604 21.4032 24.929 21.4059 24.7991 21.4879Z" fill="black"/>
<path d="M17.2099 33.8396V33.8459L17.1717 34.0304C17.1717 34.0325 17.1717 34.0347 17.1717 34.0368L17.0699 34.5711C17.0655 34.5985 17.0634 34.6261 17.0635 34.6538L17.0508 35.6208C17.0508 35.625 17.0508 35.6292 17.0508 35.6335L17.0572 36.9567C17.0574 36.9823 17.0595 37.0077 17.0635 37.033L17.2926 38.4198L17.2798 39.6602C17.2799 39.8341 17.3668 39.921 17.5406 39.921C17.7145 39.921 17.8014 39.8341 17.8015 39.6602L17.8142 38.4261L18.0686 37.0394C18.073 37.012 18.0751 36.9844 18.075 36.9567L18.0941 35.6335C18.0941 35.6292 18.0941 35.625 18.0941 35.6208L18.0814 34.6538C18.0809 34.6304 18.0787 34.607 18.075 34.5839L17.9923 34.0622L17.9796 33.8714L17.9732 33.8396C17.9732 33.7342 17.936 33.6442 17.8614 33.5697C17.7869 33.4951 17.6969 33.4579 17.5915 33.4579C17.4861 33.4579 17.3962 33.4951 17.3216 33.5697C17.2471 33.6442 17.2099 33.7342 17.2099 33.8396Z" fill="black"/>
<path d="M30.0566 25.6476L30.0439 25.654C29.9993 25.7126 29.9718 25.7783 29.9612 25.8512L29.8531 26.5446C29.8485 26.5741 29.8464 26.6038 29.8467 26.6336L29.8531 27.3779C29.8529 27.3864 29.8529 27.3949 29.8531 27.4034L29.9103 28.3194C29.9126 28.3452 29.9168 28.3706 29.9231 28.3957L30.1139 29.2354L30.1075 29.967C30.1075 30.1536 30.2008 30.2469 30.3874 30.2469C30.574 30.2469 30.6673 30.1536 30.6673 29.967L30.6737 29.2418L30.8773 28.4085C30.8842 28.3792 30.8885 28.3495 30.89 28.3194L30.9472 27.4034C30.9478 27.3885 30.9478 27.3737 30.9472 27.3588L30.9282 26.6145C30.9282 26.5868 30.926 26.5592 30.9218 26.5318L30.8009 25.8385C30.7884 25.7702 30.7608 25.7087 30.7182 25.654L30.7055 25.6476C30.6227 25.5429 30.5146 25.4905 30.3811 25.4905C30.2476 25.4905 30.1394 25.5429 30.0566 25.6476Z" fill="black"/>
<path d="M0.527553 24.3781C0.527553 24.4958 0.569165 24.5962 0.652388 24.6795C0.735611 24.7627 0.836071 24.8043 0.953766 24.8043C1.07146 24.8043 1.17192 24.7627 1.25514 24.6795C1.33837 24.5962 1.37998 24.4958 1.37998 24.3781C1.37998 24.2604 1.33837 24.1599 1.25514 24.0767C1.17192 23.9935 1.07146 23.9519 0.953766 23.9519C0.836071 23.9519 0.735611 23.9935 0.652388 24.0767C0.569165 24.1599 0.527553 24.2604 0.527553 24.3781ZM0.521192 24.2509L0.406686 24.5435C0.384713 24.6009 0.37199 24.6602 0.368518 24.7216L0.323988 25.6058C0.323715 25.6164 0.323715 25.627 0.323988 25.6376L0.317627 27.0117C0.319243 27.0439 0.323484 27.0757 0.33035 27.1071L0.578444 28.6275L0.55936 30.0143C0.555119 30.2136 0.65266 30.3154 0.851984 30.3196C1.05131 30.3239 1.15309 30.2263 1.15733 30.027L1.17642 28.6339L1.4754 27.1262C1.47948 27.0988 1.4816 27.0712 1.48176 27.0435L1.5581 25.6695C1.55849 25.6567 1.55849 25.644 1.5581 25.6313L1.55174 24.747C1.55141 24.6699 1.53656 24.5957 1.50721 24.5244L1.37998 24.2318C1.29685 24.0417 1.15159 23.949 0.944192 23.9536C0.736792 23.9582 0.595792 24.0573 0.521192 24.2509Z" fill="black"/>
<path d="M8.37114 36.7256L8.28844 36.8528C8.23462 36.9315 8.20494 37.0184 8.19938 37.1136L8.18029 37.5653C8.17769 37.6401 8.19041 37.7122 8.21846 37.7816L8.44111 38.3668L8.4602 39.0475C8.46444 39.2298 8.55774 39.3189 8.7401 39.3147C8.92246 39.3104 9.01152 39.2171 9.00728 39.0348L8.98819 38.3541L9.20448 37.7752C9.22694 37.7136 9.23754 37.65 9.23629 37.5844L9.22993 37.1327C9.22888 37.0569 9.21192 36.9848 9.17903 36.9164L9.11542 36.7765C9.04453 36.6246 8.92549 36.543 8.75829 36.5315C8.59109 36.5201 8.46204 36.5848 8.37114 36.7256Z" fill="black"/>
<path d="M5.305 21.3883C5.30521 21.6044 5.41335 21.7124 5.62943 21.7124C5.8455 21.7124 5.95365 21.6044 5.95386 21.3883C5.95365 21.1722 5.8455 21.0642 5.62943 21.0642C5.41335 21.0642 5.30521 21.1722 5.305 21.3883ZM5.21594 21.3883C5.21594 21.5007 5.25568 21.5967 5.33518 21.6762C5.41468 21.7557 5.51064 21.7954 5.62307 21.7954C5.73549 21.7954 5.83145 21.7557 5.91095 21.6762C5.99045 21.5967 6.03019 21.5007 6.03019 21.3883C6.03019 21.2759 5.99045 21.1799 5.91095 21.1004C5.83145 21.0209 5.73549 20.9812 5.62307 20.9812C5.51064 20.9812 5.41468 21.0209 5.33518 21.1004C5.25568 21.1799 5.21594 21.2759 5.21594 21.3883ZM5.41314 20.9875L5.35589 21.013C5.26941 21.0501 5.19944 21.1073 5.14596 21.1847L5.07599 21.2929C5.04144 21.3415 5.016 21.3945 4.99965 21.4519L4.94876 21.6555C4.92688 21.7351 4.92264 21.8157 4.93603 21.8972L4.98693 22.1707C4.99748 22.2288 5.01657 22.284 5.04418 22.3361L5.19049 22.616C5.2346 22.6997 5.29609 22.7675 5.37497 22.8196L5.6167 22.9786C5.68259 23.0217 5.75468 23.0471 5.83299 23.055L6.08745 23.0868C6.17873 23.0974 6.26567 23.0826 6.34826 23.0423L6.59636 22.915C6.67974 22.8762 6.74759 22.8189 6.79992 22.7433L7.00349 22.4379C7.05077 22.3684 7.08045 22.2921 7.09255 22.2089L7.14344 21.8018C7.1563 21.7224 7.15206 21.6439 7.13072 21.5664L7.01621 21.1911C6.97936 21.0659 6.90726 20.9663 6.79992 20.8921L6.55183 20.7203C6.42435 20.6312 6.2849 20.6045 6.13349 20.6401C5.98208 20.6757 5.86919 20.7619 5.79482 20.8985L5.73757 21.0002C5.81098 20.9784 5.86612 20.9338 5.90297 20.8667L5.65487 20.943C5.48572 21.0027 5.42767 21.1183 5.48071 21.2897C5.53375 21.461 5.64694 21.5236 5.82027 21.4774L6.06836 21.401C6.0033 21.2477 5.89091 21.1947 5.73121 21.242L5.77574 21.3438C5.79731 21.3975 5.82699 21.4462 5.8648 21.4901L5.98566 21.63L6.03656 21.7891L6.01747 21.999L5.9475 22.1517L5.99839 22.1071L6.18923 22.1453L6.18287 22.1326L6.10653 21.9099L6.04928 21.6746L6.03019 21.56V21.5282L6.03656 21.4774C6.06611 21.3012 6.01065 21.1579 5.87016 21.0475C5.72968 20.9371 5.57734 20.9171 5.41314 20.9875Z" fill="black"/>
<path d="M4.80877 14.9442L4.80241 14.9505C4.80683 14.9443 4.81107 14.9379 4.81513 14.9315L4.76424 14.9951C4.72745 15.045 4.702 15.1001 4.68791 15.1605L4.63065 15.3895C4.61368 15.4477 4.60732 15.5071 4.61157 15.5676L4.64974 15.9366C4.65385 15.9757 4.66233 16.0139 4.67518 16.0511L4.81513 16.4646C4.83095 16.5077 4.85216 16.548 4.87875 16.5854L5.11412 16.9353C5.15584 16.998 5.20885 17.0488 5.27315 17.088L5.57214 17.2725C5.65825 17.3245 5.75155 17.3479 5.85204 17.3424L6.16375 17.3297C6.2644 17.3223 6.35346 17.2863 6.43093 17.2216L6.71083 16.9989C6.75564 16.9615 6.79168 16.9169 6.81897 16.8653L7.02254 16.4964C7.04962 16.4466 7.06658 16.3936 7.07343 16.3373L7.13068 15.8984C7.13741 15.8355 7.13105 15.7741 7.1116 15.7139L6.98437 15.2813C6.9656 15.2222 6.93592 15.1692 6.89531 15.1223L6.64085 14.8106C6.5877 14.7462 6.52196 14.6996 6.44365 14.6706L6.11922 14.5561C5.89951 14.4769 5.72139 14.532 5.58486 14.7215L5.48944 14.8551L5.33677 14.9569C5.18409 15.0629 5.16077 15.1923 5.26679 15.345C5.37282 15.4976 5.50216 15.521 5.65484 15.4149L5.69937 15.3831L5.72481 15.3958C5.75113 15.4113 5.77869 15.424 5.80751 15.434L6.0238 15.5103L6.15739 15.6439L6.23372 15.8857L6.20192 16.1529L6.10014 16.3373L6.03016 16.3755H6.01108L5.91565 16.3055L5.7757 16.0765L5.66756 15.7648L5.62303 15.4467C5.62125 15.4361 5.61913 15.4255 5.61667 15.4149L5.57214 15.1859C5.56631 15.1575 5.55783 15.13 5.54669 15.1032L5.51489 15.0269C5.50485 15.0001 5.49212 14.9747 5.47672 14.9505L5.47036 14.9442C5.39078 14.8278 5.28052 14.7697 5.13956 14.7697C4.99861 14.7697 4.88835 14.8278 4.80877 14.9442Z" fill="black"/>
<path d="M6.96527 9.51154C6.96527 9.61519 7.00191 9.70365 7.07519 9.77694C7.14848 9.85022 7.23695 9.88687 7.34059 9.88687C7.44423 9.88687 7.53269 9.85022 7.60598 9.77694C7.67927 9.70365 7.71591 9.61519 7.71591 9.51154C7.71591 9.4079 7.67927 9.31944 7.60598 9.24615C7.53269 9.17287 7.44423 9.13622 7.34059 9.13622C7.23695 9.13622 7.14848 9.17287 7.07519 9.24615C7.00191 9.31944 6.96527 9.4079 6.96527 9.51154ZM7.00343 9.26981L6.95254 9.33343C6.92914 9.36264 6.91006 9.39445 6.89529 9.42885L6.83168 9.59424C6.81647 9.62894 6.80587 9.66499 6.79987 9.70239L6.75534 10.0205C6.74777 10.0692 6.74777 10.118 6.75534 10.1668L6.81259 10.5485C6.82027 10.5974 6.83511 10.644 6.85712 10.6884L7.03524 11.0446C7.06195 11.1003 7.09799 11.1491 7.14338 11.191L7.42329 11.4454C7.48914 11.5045 7.56548 11.5427 7.6523 11.5599L8.00217 11.6363C8.09157 11.653 8.17851 11.6445 8.26299 11.6108L8.58742 11.4963C8.6637 11.4669 8.72731 11.4203 8.77826 11.3563L9.00091 11.0892C9.05148 11.0277 9.08328 10.9577 9.09633 10.8792L9.15995 10.5166C9.16949 10.4521 9.16525 10.3885 9.14722 10.3258L9.0518 9.95048C9.03615 9.89469 9.0107 9.8438 8.97547 9.79781L8.74646 9.4861C8.68623 9.40502 8.60778 9.34988 8.51108 9.3207L8.20574 9.22528C8.07219 9.18522 7.9492 9.20643 7.83678 9.2889L7.69046 9.39704L7.51235 9.46065C7.34307 9.5202 7.28807 9.63466 7.34735 9.80403C7.40663 9.9734 7.521 10.0286 7.69046 9.96956L7.78589 9.9314L7.86858 9.98229L8.06579 10.1095L8.19938 10.2749L8.25663 10.4658L8.23754 10.6057L8.18029 10.663L8.10396 10.682L7.98309 10.6566L7.86222 10.5421L7.76044 10.3194L7.70319 10.0268L7.6841 9.77236L7.69046 9.67694L7.70319 9.6515C7.79544 9.42952 7.73604 9.26097 7.52501 9.14587C7.31398 9.03076 7.14012 9.07207 7.00343 9.26981Z" fill="black"/>
<path d="M11.5073 6.31809C11.5073 6.4147 11.5415 6.49717 11.6098 6.56549C11.6781 6.63381 11.7606 6.66796 11.8572 6.66796C11.9538 6.66796 12.0363 6.63381 12.1046 6.56549C12.1729 6.49717 12.2071 6.4147 12.2071 6.31809C12.2071 6.22147 12.1729 6.13901 12.1046 6.07069C12.0363 6.00237 11.9538 5.96821 11.8572 5.96821C11.7606 5.96821 11.6781 6.00237 11.6098 6.07069C11.5415 6.13901 11.5073 6.22147 11.5073 6.31809ZM11.7363 5.95549L11.7173 5.96185C11.6434 5.98635 11.5819 6.02876 11.5328 6.08908L11.4755 6.15269C11.4495 6.1836 11.4283 6.21753 11.4119 6.25447L11.3292 6.45804C11.3021 6.51656 11.2872 6.57805 11.2847 6.64252V7.01784C11.2843 7.07227 11.2928 7.12528 11.3101 7.17688L11.4374 7.59037C11.4589 7.64951 11.4907 7.70252 11.5328 7.7494L11.8063 8.08019C11.8594 8.14599 11.9252 8.19476 12.0035 8.22651L12.347 8.3601C12.4446 8.39894 12.5443 8.4053 12.646 8.37918L12.9641 8.29648C13.0719 8.2676 13.1588 8.20823 13.2249 8.11836L13.4157 7.87027C13.4785 7.78983 13.5125 7.69865 13.5175 7.59673L13.5303 7.24685C13.5337 7.15894 13.5147 7.07625 13.473 6.99876L13.3012 6.68069C13.2545 6.59167 13.1867 6.52381 13.0977 6.47712L12.8114 6.33081C12.6993 6.27414 12.5827 6.2629 12.4618 6.2971C12.3409 6.3313 12.2475 6.40191 12.1816 6.50893L12.0862 6.65524L11.8763 6.80792C11.7279 6.91394 11.7067 7.04117 11.8127 7.1896C11.9187 7.33803 12.0459 7.35924 12.1944 7.25321L12.3152 7.16415L12.3661 7.19596L12.5188 7.2723L12.5633 7.34227L12.557 7.41225L12.5633 7.39953H12.5697L12.487 7.36136L12.347 7.19596L12.2643 6.93514L12.2516 6.6298C12.2496 6.62552 12.2474 6.62128 12.2452 6.61707L12.2325 6.41987L12.2389 6.36262C12.2281 6.39572 12.2217 6.42964 12.2198 6.4644L12.2262 6.44532C12.2759 6.29413 12.2445 6.16227 12.1319 6.04973C12.0194 5.9372 11.8875 5.90579 11.7363 5.95549Z" fill="black"/>
<path d="M16.7491 5.69466L16.7364 5.71374C16.7115 5.75524 16.6945 5.79977 16.6855 5.84733L16.6664 5.97456C16.6597 6.01034 16.6576 6.04639 16.66 6.0827L16.6855 6.35624C16.6884 6.38874 16.6948 6.42054 16.7046 6.45166L16.8191 6.82698C16.8322 6.87009 16.8513 6.91038 16.8763 6.94785L17.1244 7.31681C17.1693 7.38013 17.2265 7.4289 17.2962 7.46312L17.7033 7.67305C17.7771 7.71139 17.8556 7.72835 17.9387 7.72394L18.4539 7.69213C18.5241 7.6884 18.5899 7.66931 18.6511 7.63488L19.1537 7.34862C19.1975 7.32359 19.2357 7.29178 19.2682 7.2532L19.6181 6.83971C19.663 6.78556 19.6927 6.72407 19.7071 6.65523L19.7962 6.24174C19.8268 6.11239 19.8035 5.99365 19.7262 5.8855L19.4972 5.57379C19.4324 5.48683 19.3476 5.42958 19.2428 5.40203L18.7975 5.28116C18.6934 5.25146 18.5916 5.25782 18.4921 5.30025L18.1232 5.46565L17.7542 5.52926C17.603 5.57687 17.5405 5.67883 17.5666 5.83513C17.5926 5.99144 17.6848 6.0676 17.8432 6.06362L18.174 6.00636L18.5048 6.14631C18.5195 6.15131 18.5343 6.15555 18.5494 6.15904L18.8674 6.25446L18.9056 6.29263L18.8929 6.38169L18.683 6.62978L18.3204 6.78882L18.015 6.80154L17.8178 6.69976L17.6715 6.48347L17.5697 6.19084L17.5125 5.94275C17.5104 5.93847 17.5083 5.93423 17.5061 5.93003L17.4743 5.80916C17.4656 5.77574 17.4529 5.74393 17.4361 5.71374L17.4234 5.69466C17.349 5.56403 17.2366 5.49872 17.0862 5.49872C16.9359 5.49872 16.8235 5.56403 16.7491 5.69466Z" fill="black"/>
<path d="M22.1118 8.30289L22.0799 8.38558C22.0711 8.41041 22.0648 8.43586 22.0609 8.46192L22.0163 8.72274C22.0083 8.76485 22.0061 8.80726 22.01 8.84997L22.0609 9.29526C22.063 9.32105 22.0673 9.3465 22.0736 9.3716L22.2135 9.87415C22.2282 9.92899 22.2516 9.97989 22.2835 10.0268L22.557 10.4212C22.6144 10.5076 22.6908 10.5712 22.7861 10.6121L23.1677 10.7647C23.2668 10.8054 23.3686 10.8138 23.4731 10.7902L23.8739 10.6948C23.9612 10.6754 24.0376 10.6351 24.1029 10.5739L24.4337 10.2622C24.495 10.2037 24.5374 10.1337 24.5609 10.0523L24.7008 9.57517C24.7227 9.49938 24.7248 9.42304 24.7072 9.34615L24.5991 8.85633C24.5818 8.782 24.5479 8.71626 24.4973 8.65912L24.1728 8.27744C24.1175 8.21392 24.0496 8.16939 23.9693 8.14385L23.5367 8.0039C23.4455 7.97351 23.3543 7.97351 23.2632 8.0039L22.926 8.12477L22.627 8.18202C22.4513 8.22993 22.3814 8.34316 22.4171 8.52173C22.4528 8.70029 22.5609 8.7779 22.7415 8.75455L22.9769 8.71002L23.2377 8.80544L23.5558 8.95175L23.7403 9.15531L23.7912 9.40977L23.7085 9.63242L23.5622 9.75328L23.4349 9.77237L23.3141 9.70875L23.1359 9.48611L22.9896 9.11078L22.9196 8.71638C22.9176 8.7121 22.9155 8.70786 22.9133 8.70365L22.8624 8.44284C22.8575 8.42328 22.8511 8.40419 22.8433 8.38558L22.8115 8.30289C22.7495 8.14323 22.6329 8.0634 22.4616 8.0634C22.2904 8.0634 22.1737 8.14323 22.1118 8.30289Z" fill="black"/>
<path d="M25.2352 14.1235L25.197 14.219C25.1825 14.258 25.174 14.2983 25.1715 14.3398L25.1461 14.6134C25.1453 14.6433 25.1474 14.673 25.1525 14.7024L25.197 15.1032C25.2009 15.1313 25.2072 15.1589 25.2161 15.1859L25.3433 15.6185C25.3567 15.6615 25.3758 15.7018 25.4006 15.7393L25.6168 16.0765C25.6671 16.1559 25.735 16.2153 25.8204 16.2546L26.1194 16.3946C26.2279 16.4437 26.3382 16.4479 26.4502 16.4073L26.7619 16.2991C26.8268 16.275 26.8819 16.2369 26.9273 16.1846L27.2263 15.8538C27.2551 15.8214 27.2784 15.7853 27.2962 15.7457L27.538 15.2304C27.5618 15.1799 27.5766 15.1269 27.5825 15.0714L27.6461 14.4543C27.6547 14.372 27.6463 14.2914 27.6207 14.2126L27.4489 13.6846C27.4085 13.5604 27.3364 13.4586 27.2326 13.3793L26.8828 13.1184C26.7934 13.0506 26.693 13.0096 26.5817 12.9954C26.4703 12.9812 26.3629 12.9958 26.2593 13.039C26.1558 13.0823 26.0699 13.1485 26.0018 13.2377C25.9336 13.3268 25.8922 13.427 25.8777 13.5383L25.8649 13.6274L25.6105 13.8754C25.4748 14.0112 25.4748 14.1469 25.6105 14.2826C25.7462 14.4183 25.8819 14.4183 26.0176 14.2826L26.3357 13.9645C26.2024 13.8494 26.0731 13.8536 25.9476 13.9772L26.0876 14.0981C26.0999 14.1092 26.1126 14.1198 26.1257 14.1299L26.3611 14.3017L26.5074 14.5816L26.5774 15.0205L26.5138 15.3895L26.3993 15.5294H26.4184L26.3738 15.4976L26.2339 15.2686L26.113 14.9314L26.0558 14.5752L26.0049 14.3017C26.0013 14.2735 25.995 14.2459 25.9858 14.219L25.9476 14.1235C25.8849 13.9604 25.7661 13.8789 25.5914 13.8789C25.4166 13.8789 25.2979 13.9604 25.2352 14.1235Z" fill="black"/>
<path d="M13.9832 17.6583L13.8815 17.9001C13.8607 17.9533 13.8501 18.0084 13.8497 18.0655L13.8306 18.568C13.832 18.583 13.8341 18.5978 13.8369 18.6126L14.0087 21.1062C14.0384 21.2499 14.1266 21.3226 14.2733 21.3244C14.42 21.3261 14.5099 21.2555 14.543 21.1126L14.7784 18.6253C14.7812 18.6105 14.7834 18.5957 14.7848 18.5807L14.7784 18.0782C14.7796 18.0167 14.769 17.9573 14.7466 17.9001L14.6448 17.6583C14.5851 17.509 14.4749 17.4343 14.314 17.4343C14.1532 17.4343 14.0429 17.509 13.9832 17.6583Z" fill="black"/>
<path d="M17.0748 21.577V21.6215L17.0302 21.9459C17.03 21.9544 17.03 21.9629 17.0302 21.9714L16.9857 22.7157C16.9857 22.7178 16.9857 22.7199 16.9857 22.722L16.9412 23.8989C16.9415 23.9224 16.9436 23.9457 16.9475 23.9689L17.1193 25.4383L17.1002 26.8442C17.1002 27.0011 17.1787 27.0796 17.3356 27.0796C17.4925 27.0796 17.5709 27.0011 17.5709 26.8442L17.59 25.4447L17.8381 23.9943C17.8415 23.9754 17.8436 23.9563 17.8445 23.9371L17.889 22.7602C17.889 22.7581 17.889 22.756 17.889 22.7538L17.9081 22.0096C17.9091 21.9926 17.9091 21.9756 17.9081 21.9587L17.8826 21.6342C17.8806 21.6321 17.8784 21.63 17.8763 21.6279V21.577C17.8763 21.4663 17.8372 21.3718 17.7589 21.2936C17.6806 21.2153 17.5862 21.1762 17.4755 21.1762C17.3649 21.1762 17.2704 21.2153 17.1921 21.2936C17.1139 21.3718 17.0748 21.4663 17.0748 21.577Z" fill="black"/>
<path d="M21.5917 29.5608C21.5918 29.6574 21.6259 29.7398 21.6942 29.8081C21.7626 29.8764 21.845 29.9105 21.9416 29.9105C22.0382 29.9105 22.1207 29.8764 22.189 29.8081C22.2573 29.7398 22.2915 29.6574 22.2915 29.5608C22.2915 29.4642 22.2573 29.3817 22.189 29.3134C22.1207 29.2451 22.0382 29.211 21.9416 29.211C21.845 29.211 21.7626 29.2451 21.6942 29.3134C21.6259 29.3817 21.5918 29.4642 21.5917 29.5608ZM21.5218 29.5544C21.5218 29.6703 21.5627 29.7693 21.6447 29.8513C21.7267 29.9333 21.8257 29.9743 21.9416 29.9743C22.0575 29.9743 22.1565 29.9333 22.2385 29.8513C22.3205 29.7693 22.3615 29.6703 22.3615 29.5544C22.3615 29.4385 22.3205 29.3395 22.2385 29.2575C22.1565 29.1755 22.0575 29.1345 21.9416 29.1345C21.8257 29.1345 21.7267 29.1755 21.6447 29.2575C21.5627 29.3395 21.5218 29.4385 21.5218 29.5544ZM21.4963 29.5353C21.4963 29.66 21.5404 29.7665 21.6286 29.8547C21.7168 29.9429 21.8232 29.987 21.948 29.987C22.0727 29.987 22.1791 29.9429 22.2673 29.8547C22.3555 29.7665 22.3996 29.66 22.3996 29.5353C22.3996 29.4106 22.3555 29.3041 22.2673 29.2159C22.1791 29.1278 22.0727 29.0837 21.948 29.0837C21.8232 29.0837 21.7168 29.1278 21.6286 29.2159C21.5404 29.3041 21.4963 29.4106 21.4963 29.5353ZM21.4518 29.4971C21.4518 29.6377 21.5015 29.7576 21.6008 29.857C21.7002 29.9564 21.8202 30.0061 21.9607 30.0061C22.1012 30.0061 22.2212 29.9564 22.3205 29.857C22.4199 29.7576 22.4696 29.6377 22.4696 29.4971C22.4696 29.3566 22.4199 29.2367 22.3205 29.1373C22.2212 29.0379 22.1012 28.9882 21.9607 28.9882C21.8202 28.9882 21.7002 29.0379 21.6008 29.1373C21.5015 29.2367 21.4518 29.3566 21.4518 29.4971ZM22.2151 29.987L22.2342 29.9806C22.3602 29.7187 22.3228 29.4827 22.1221 29.2726C21.9214 29.0625 21.6873 29.0143 21.42 29.1282L21.4009 29.16C21.3887 29.1848 21.3781 29.2102 21.3691 29.2363L21.3118 29.3954C21.3007 29.4286 21.2923 29.4626 21.2864 29.4971L21.2228 29.8216C21.2172 29.8468 21.2129 29.8722 21.21 29.8979L21.1782 30.3559C21.1779 30.3687 21.1779 30.3814 21.1782 30.3941L21.1655 30.9094C21.1654 30.9179 21.1654 30.9263 21.1655 30.9348V31.4437C21.1654 31.4522 21.1654 31.4607 21.1655 31.4692L21.1846 31.9018C21.1866 31.9081 21.1888 31.9145 21.191 31.9208L21.21 32.2389L21.2228 32.4616C21.2227 32.4679 21.2227 32.4743 21.2228 32.4806L21.2355 32.6206C21.2355 32.6248 21.2355 32.6291 21.2355 32.6333L21.2482 32.716C21.2596 32.8253 21.2935 32.9271 21.35 33.0214L21.3754 33.0595C21.5431 33.3405 21.7891 33.4592 22.1134 33.4158H22.1261H22.1452H22.2151L22.4251 33.4476C22.4441 33.4504 22.4632 33.4525 22.4823 33.4539L22.8831 33.4857C22.9085 33.487 22.934 33.487 22.9594 33.4857L23.4938 33.473C23.5065 33.4733 23.5192 33.4733 23.532 33.473L24.1108 33.4285C24.1407 33.4281 24.1703 33.4259 24.1999 33.4221L24.7343 33.3203C24.7822 33.3124 24.8289 33.2997 24.8742 33.2822L25.2686 33.1231L25.5549 33.0023L25.8539 32.8878C25.9628 32.8455 26.0196 32.7659 26.0241 32.6491C26.0287 32.5323 25.9783 32.4486 25.8729 32.3979L25.574 32.258C25.5718 32.258 25.5697 32.258 25.5676 32.258L25.2877 32.1308C25.2772 32.1262 25.2666 32.1219 25.2559 32.118L24.8551 31.9654C24.7956 31.9422 24.7342 31.9273 24.6706 31.9208L24.1299 31.8763C24.0918 31.8735 24.0536 31.8735 24.0154 31.8763L23.4429 31.9081L22.9531 31.9208L22.5968 31.9018L22.3742 31.8763C22.3146 31.8715 22.2552 31.8736 22.1961 31.8827L22.0434 31.8954C21.975 31.9055 21.9093 31.9246 21.8462 31.9526L21.7698 31.9845C21.8314 31.9749 21.8907 31.958 21.948 31.9336L21.9034 31.9399C22.0789 32.181 22.3143 32.2807 22.6096 32.2389L22.5841 32.2007C22.5929 32.3489 22.6417 32.4825 22.7304 32.6015L22.7241 32.5188C22.7219 32.4867 22.7176 32.4549 22.7113 32.4234L22.6923 32.3089L22.6732 32.1244L22.6477 31.8254L22.6286 31.4183L22.6223 30.9285L22.6286 30.4323L22.6477 29.9806C22.6479 29.9721 22.6479 29.9636 22.6477 29.9552V29.6244C22.6473 29.5967 22.6451 29.5691 22.6414 29.5417L22.6223 29.3763C22.6138 29.3004 22.5926 29.2283 22.5587 29.16L22.5396 29.1282C22.4309 29.0231 22.3012 28.9648 22.1506 28.9531C21.9999 28.9414 21.8628 28.9791 21.7392 29.0661C21.6156 29.1532 21.534 29.2696 21.4942 29.4154C21.4545 29.5612 21.4658 29.703 21.5281 29.8407L21.5408 29.8534C21.7343 30.0558 21.9591 30.1003 22.2151 29.987Z" fill="black"/>
<path d="M26.2482 29.4907C26.2482 29.5979 26.2861 29.6894 26.3619 29.7651C26.4377 29.8409 26.5291 29.8788 26.6363 29.8788C26.7434 29.8788 26.8349 29.8409 26.9107 29.7651C26.9865 29.6894 27.0243 29.5979 27.0243 29.4907C27.0243 29.3836 26.9865 29.2921 26.9107 29.2164C26.8349 29.1406 26.7434 29.1027 26.6363 29.1027C26.5291 29.1027 26.4377 29.1406 26.3619 29.2164C26.2861 29.2921 26.2482 29.3836 26.2482 29.4907ZM26.2228 29.4717C26.2228 29.5876 26.2638 29.6866 26.3458 29.7685C26.4278 29.8505 26.5267 29.8915 26.6427 29.8915C26.7586 29.8915 26.8576 29.8505 26.9395 29.7685C27.0215 29.6866 27.0625 29.5876 27.0625 29.4717C27.0625 29.3557 27.0215 29.2568 26.9395 29.1748C26.8576 29.0928 26.7586 29.0518 26.6427 29.0518C26.5267 29.0518 26.4278 29.0928 26.3458 29.1748C26.2638 29.2568 26.2228 29.3557 26.2228 29.4717ZM26.032 29.3572C26.032 29.5346 26.0947 29.686 26.2201 29.8115C26.3456 29.9369 26.497 29.9997 26.6745 29.9997C26.8519 29.9997 27.0033 29.9369 27.1288 29.8115C27.2542 29.686 27.317 29.5346 27.317 29.3572C27.317 29.1797 27.2542 29.0283 27.1288 28.9028C27.0033 28.7774 26.8519 28.7147 26.6745 28.7147C26.497 28.7147 26.3456 28.7774 26.2201 28.9028C26.0947 29.0283 26.032 29.1797 26.032 29.3572ZM26.8399 29.9997H26.8589C26.8736 29.8763 26.8594 29.7563 26.8164 29.6397C26.7734 29.5232 26.7062 29.4227 26.615 29.3384C26.5237 29.2541 26.4183 29.195 26.2987 29.1613C26.1791 29.1277 26.0584 29.1229 25.9365 29.1472L25.9302 29.1727C25.9292 29.196 25.9292 29.2193 25.9302 29.2427L25.9238 29.3826L25.9111 29.6816C25.9111 29.6858 25.9111 29.6901 25.9111 29.6943L25.9047 30.146C25.9046 30.1545 25.9046 30.1629 25.9047 30.1714L25.9175 30.6931C25.9172 30.7037 25.9172 30.7143 25.9175 30.7249L25.9429 31.2274C25.9447 31.2402 25.9468 31.2529 25.9493 31.2656L25.9938 31.7109C25.9938 31.7151 25.9938 31.7194 25.9938 31.7236L26.0383 32.0798C26.0404 32.0862 26.0425 32.0926 26.0447 32.0989L26.0829 32.3661C26.0896 32.4115 26.1002 32.4561 26.1147 32.4997L26.1528 32.6269L26.1719 32.6905C26.1686 32.6691 26.1643 32.6479 26.1592 32.6269V32.6587C26.1838 32.8376 26.2623 32.9884 26.3947 33.1111C26.5272 33.2338 26.6835 33.3005 26.8638 33.3114C27.044 33.3222 27.2072 33.2746 27.3534 33.1687C27.4996 33.0627 27.5956 32.9224 27.6414 32.7478L27.6478 32.7287C27.6809 32.6015 27.6809 32.4742 27.6478 32.347L27.635 32.3025C27.6014 32.1678 27.5356 32.0511 27.4378 31.9526L27.3933 31.9081C27.2985 31.8123 27.1861 31.7466 27.0561 31.7109L26.9862 31.6918C26.9422 31.6814 26.8977 31.6751 26.8526 31.6727L26.7572 31.66C26.7423 31.6595 26.7275 31.6595 26.7126 31.66H26.6045C26.5833 31.6591 26.5621 31.6591 26.5409 31.66L26.4264 31.6663L26.2928 31.6727H26.121C26.1146 31.6747 26.1083 31.6769 26.1019 31.6791L25.8984 31.6854C25.892 31.6854 25.8856 31.6854 25.8793 31.6854L25.6821 31.6982C25.4678 31.7053 25.2875 31.7871 25.141 31.9436C24.9945 32.1001 24.9248 32.2854 24.9318 32.4997C24.9388 32.7139 25.0206 32.8943 25.177 33.0409C25.3334 33.1874 25.5187 33.2573 25.733 33.2503H25.9302C25.9685 33.251 26.0067 33.2489 26.0447 33.244L26.2355 33.2185L26.4073 33.1994C26.4094 33.1973 26.4115 33.1952 26.4136 33.1931L26.5345 33.1804L26.6108 33.174H26.6808L26.7508 33.1804C26.6987 33.1662 26.6457 33.1577 26.5918 33.1549L26.6617 33.174C26.5669 33.0783 26.4545 33.0125 26.3246 32.9768L26.3691 33.0213C26.3323 32.9046 26.2708 32.8028 26.1846 32.716L26.1974 32.7605C26.2643 32.5931 26.2707 32.4235 26.2164 32.2516L26.2101 32.2707C26.3046 32.6201 26.5325 32.806 26.8938 32.8285C27.2551 32.851 27.5043 32.6947 27.6414 32.3597L27.635 32.3279C27.6382 32.3515 27.6424 32.3748 27.6478 32.3979L27.6287 32.3025C27.6243 32.3688 27.6285 32.4345 27.6414 32.4997L27.6541 32.3279C27.659 32.277 27.659 32.2261 27.6541 32.1753L27.6287 31.9081L27.5969 31.5518L27.5523 31.1256L27.5332 30.6612V30.1587L27.5396 29.7198C27.5399 29.707 27.5399 29.6943 27.5396 29.6816L27.5269 29.3826C27.526 29.3571 27.5239 29.3316 27.5205 29.3063L27.5078 29.1727C27.4809 28.9628 27.3855 28.7911 27.2215 28.6574L27.2025 28.6383C27.0417 28.496 26.8542 28.4314 26.64 28.4445C26.4257 28.4575 26.2474 28.5444 26.1051 28.7051C25.9628 28.8659 25.8982 29.0534 25.9112 29.2676C25.9243 29.4819 26.0112 29.6602 26.1719 29.8025L26.191 29.8152C26.3753 29.9891 26.5916 30.0505 26.8399 29.9997ZM25.0778 32.4615C25.0778 32.5968 25.1256 32.7122 25.2212 32.8079C25.3169 32.9035 25.4323 32.9513 25.5676 32.9513C25.7028 32.9513 25.8183 32.9035 25.9139 32.8079C26.0096 32.7122 26.0574 32.5968 26.0574 32.4615C26.0574 32.3263 26.0096 32.2108 25.9139 32.1152C25.8183 32.0195 25.7028 31.9717 25.5676 31.9717C25.4323 31.9717 25.3169 32.0195 25.2212 32.1152C25.1256 32.2108 25.0778 32.3263 25.0778 32.4615ZM25.5421 32.188L25.4531 32.1498C25.292 32.0821 25.1775 32.1287 25.1097 32.2898C25.0419 32.4509 25.0885 32.5654 25.2495 32.6333L25.3386 32.6714C25.4997 32.7393 25.6142 32.6927 25.6821 32.5315C25.7499 32.3703 25.7033 32.2558 25.5421 32.188Z" fill="black"/>
<path d="M12.1769 28.9246L12.1833 28.9055C12.1918 28.8828 12.1982 28.8594 12.2023 28.8355L12.2151 28.7528L12.2405 28.5811C12.2595 28.47 12.2489 28.3619 12.2087 28.2566L12.0878 27.9322C12.08 27.9149 12.0716 27.8979 12.0624 27.8813L11.8525 27.4296C11.8446 27.4124 11.8361 27.3954 11.827 27.3788L11.5153 26.8317L11.1527 26.1574L10.771 25.3304L10.4275 24.3571L10.1413 23.2502L9.91224 22.0797L9.77865 20.8774L9.81046 19.6051L9.98858 18.2629L10.3003 16.9206L10.7774 15.5847L11.4326 14.2679L12.2087 13.0338L13.0802 11.9778L14.0217 11.1508L15.0332 10.5847L16.0764 10.2857H17.1706L18.3411 10.5783L19.4925 11.1572L20.5358 12.0351L21.42 13.161L22.1261 14.4778L22.6159 15.9346L22.8768 17.4677L22.9531 18.969L22.8513 20.3558L22.5905 21.6662L22.2152 22.9194C22.213 22.9236 22.2109 22.9279 22.2088 22.9321L21.878 24.1154C21.8596 24.1798 21.8511 24.2455 21.8526 24.3126L21.878 25.235L21.6045 25.9156C21.5537 26.0669 21.6022 26.1725 21.7501 26.2324C21.898 26.2924 22.0063 26.2504 22.0752 26.1065L22.3615 25.4194L22.9976 24.7451C23.0526 24.6851 23.095 24.6173 23.1249 24.5416L23.5892 23.4092C23.5994 23.3822 23.6078 23.3546 23.6147 23.3265L23.9836 22.0352C23.9885 22.0184 23.9927 22.0014 23.9964 21.9843L24.2763 20.6039C24.2826 20.5723 24.2869 20.5405 24.289 20.5084L24.3971 19.0262C24.399 18.9966 24.399 18.9669 24.3971 18.9372L24.3208 17.3468C24.3182 17.319 24.3139 17.2915 24.3081 17.2641L24.0409 15.6356C24.0364 15.6055 24.03 15.5758 24.0218 15.5466L23.5447 13.9626C23.5312 13.9208 23.5143 13.8805 23.4938 13.8417L22.775 12.3913C22.7503 12.3415 22.7206 12.2948 22.6859 12.2514L21.7063 11.0109C21.6738 10.9713 21.6377 10.9352 21.5981 10.9027L20.4276 9.91036C20.394 9.87965 20.3579 9.85208 20.3195 9.82766L19.0472 9.08338C18.9949 9.05183 18.9398 9.02638 18.8818 9.00704L17.5459 8.58083C17.4609 8.55481 17.374 8.54208 17.2851 8.54266L15.9619 8.52994C15.8799 8.52924 15.7993 8.53984 15.7202 8.56175L14.4543 8.91798C14.3829 8.93699 14.3151 8.96456 14.2507 9.00068L13.0802 9.66863C13.0302 9.69794 12.9836 9.73186 12.9403 9.77041L11.8652 10.6928C11.8282 10.726 11.7943 10.762 11.7634 10.801L10.8092 11.9524C10.7862 11.9807 10.7649 12.0104 10.7456 12.0414L9.90588 13.3582C9.88958 13.385 9.87474 13.4126 9.86135 13.4409L9.16796 14.8404C9.15338 14.8715 9.14066 14.9033 9.12979 14.9359L8.61452 16.3672C8.6021 16.3984 8.5915 16.4302 8.58271 16.4626L8.24556 17.9003C8.23981 17.9297 8.23557 17.9594 8.23283 17.9893L8.04835 19.4206C8.04239 19.4522 8.03815 19.484 8.03563 19.5161L8.01018 20.8965C8.00954 20.9369 8.01166 20.9772 8.01654 21.0174L8.16286 22.3151C8.16747 22.3472 8.17383 22.379 8.18194 22.4105L8.46184 23.6319C8.46873 23.662 8.47721 23.6917 8.48729 23.721L8.87533 24.8596C8.87935 24.8703 8.88359 24.8809 8.88806 24.8914L9.28882 25.922C9.29461 25.9392 9.30097 25.9561 9.30791 25.9729L9.7214 26.8444C9.73121 26.8639 9.74182 26.883 9.75321 26.9016L10.1476 27.595C10.1577 27.6103 10.1683 27.6251 10.1794 27.6396L10.5357 28.1739C10.5475 28.1936 10.5602 28.2127 10.5738 28.2312L10.8855 28.6192C10.909 28.6466 10.9345 28.6721 10.9619 28.6956L11.2227 28.9309C11.2924 28.9963 11.373 29.043 11.4644 29.0709L11.6235 29.1154L11.6871 29.1409C11.6496 29.1072 11.6072 29.0817 11.5598 29.0645L11.5726 29.0772C11.6718 29.1665 11.7861 29.1947 11.9154 29.162C12.0448 29.1294 12.132 29.0502 12.1769 28.9246Z" fill="black"/>
<path d="M21.2482 26.7872C21.2482 26.8838 21.2824 26.9662 21.3507 27.0345C21.419 27.1028 21.5015 27.1369 21.5981 27.1369C21.6946 27.1369 21.7771 27.1028 21.8454 27.0345C21.9137 26.9662 21.9479 26.8838 21.9479 26.7872C21.9479 26.6906 21.9137 26.6081 21.8454 26.5398C21.7771 26.4716 21.6946 26.4374 21.5981 26.4374C21.5015 26.4374 21.419 26.4716 21.3507 26.5398C21.2824 26.6081 21.2482 26.6906 21.2482 26.7872ZM21.7889 27.1307L21.8016 27.1243C21.9495 27.0456 22.0279 26.9226 22.037 26.7554L22.0434 26.6981C22.0434 26.5734 21.9993 26.4669 21.9111 26.3787C21.8229 26.2905 21.7164 26.2465 21.5917 26.2465C21.467 26.2465 21.3605 26.2905 21.2723 26.3787C21.1841 26.4669 21.14 26.5734 21.14 26.6981L21.1464 26.7554C21.1606 26.9939 21.2857 27.1317 21.5217 27.1689L21.5344 27.1752C21.6242 27.1887 21.709 27.1739 21.7889 27.1307ZM21.1655 26.2846L21.0955 26.3673C20.9893 26.4874 20.9299 26.6274 20.9174 26.7872L20.8792 27.1943C20.8787 27.2113 20.8787 27.2282 20.8792 27.2452L20.8665 27.8432C20.8663 27.8538 20.8663 27.8644 20.8665 27.875L20.8856 28.5238C20.8867 28.6069 20.9015 28.6875 20.9301 28.7656L21.1146 29.2427L21.2227 29.5671L21.2355 29.7643V29.8597C21.2756 30.0733 21.404 30.1715 21.6206 30.1542C21.8373 30.137 21.9485 30.0197 21.9543 29.8025L21.9479 29.7452C21.9381 29.6528 21.8978 29.5765 21.8271 29.5162L21.7953 29.4908V29.3381C21.791 29.1981 21.7189 29.1303 21.579 29.1345C21.439 29.1388 21.3712 29.2109 21.3754 29.3508L21.3818 29.5035L21.35 29.5289C21.2898 29.5887 21.2559 29.6608 21.2482 29.7452L21.2418 29.8025C21.2476 30.0197 21.3589 30.137 21.5755 30.1542C21.7922 30.1715 21.9205 30.0733 21.9607 29.8597V29.7579C21.9607 29.7558 21.9607 29.7537 21.9607 29.7516L21.967 29.5544L22.0688 29.2618L22.2724 28.8101C22.3061 28.7372 22.3273 28.6609 22.336 28.5811L22.3996 27.9386C22.4032 27.9111 22.4053 27.8836 22.406 27.8559V27.2579C22.4064 27.2217 22.4043 27.1857 22.3996 27.1498L22.3423 26.7426C22.3095 26.5203 22.1971 26.3507 22.0052 26.2337L21.9098 26.1765C21.789 26.1019 21.6584 26.0748 21.518 26.0952C21.3775 26.1156 21.26 26.1787 21.1655 26.2846Z" fill="black"/>
<path d="M21.4009 26.221L21.4263 26.6091C21.4681 26.7633 21.5688 26.8351 21.7282 26.8245C21.8877 26.8138 21.9779 26.7293 21.9989 26.5709L21.9734 26.1828C21.9316 26.0286 21.831 25.9568 21.6715 25.9674C21.5121 25.9781 21.4218 26.0626 21.4009 26.221Z" fill="black"/>
<path d="M26.3309 28.7846C26.3309 28.8883 26.3676 28.9767 26.4409 29.05C26.5142 29.1233 26.6026 29.16 26.7063 29.16C26.8099 29.16 26.8984 29.1233 26.9717 29.05C27.0449 28.9767 27.0816 28.8883 27.0816 28.7846C27.0816 28.681 27.0449 28.5925 26.9717 28.5192C26.8984 28.446 26.8099 28.4093 26.7063 28.4093C26.6026 28.4093 26.5142 28.446 26.4409 28.5192C26.3676 28.5925 26.3309 28.681 26.3309 28.7846ZM26.3055 28.791C26.3055 28.8999 26.344 28.9929 26.421 29.0699C26.498 29.1469 26.591 29.1854 26.6999 29.1854C26.8088 29.1854 26.9018 29.1469 26.9788 29.0699C27.0558 28.9929 27.0943 28.8999 27.0943 28.791C27.0943 28.6821 27.0558 28.5891 26.9788 28.5121C26.9018 28.4351 26.8088 28.3966 26.6999 28.3966C26.591 28.3966 26.498 28.4351 26.421 28.5121C26.344 28.5891 26.3055 28.6821 26.3055 28.791ZM26.4518 28.4538L26.4136 28.4793C26.3452 28.5219 26.2917 28.5786 26.2532 28.6494C26.2147 28.7202 26.1961 28.7959 26.1976 28.8765C26.199 28.9571 26.2203 29.0321 26.2614 29.1015C26.3024 29.1709 26.3579 29.2256 26.4279 29.2657C26.4979 29.3057 26.5731 29.3259 26.6538 29.3262C26.7344 29.3266 26.8098 29.3069 26.8801 29.2674C26.9504 29.2279 27.0063 29.1736 27.0479 29.1045C27.0895 29.0355 27.1113 28.9606 27.1134 28.8801V28.8355C27.1193 28.6624 27.0473 28.5325 26.8972 28.446C26.7472 28.3594 26.5987 28.362 26.4518 28.4538ZM26.1528 28.9055C26.1528 29.0443 26.2019 29.1627 26.3 29.2609C26.3981 29.359 26.5166 29.408 26.6554 29.408C26.7942 29.408 26.9126 29.359 27.0107 29.2609C27.1089 29.1627 27.1579 29.0443 27.1579 28.9055C27.1579 28.7667 27.1089 28.6483 27.0107 28.5501C26.9126 28.452 26.7942 28.4029 26.6554 28.4029C26.5166 28.4029 26.3981 28.452 26.3 28.5501C26.2019 28.6483 26.1528 28.7667 26.1528 28.9055ZM26.8971 29.4017L27.018 29.3572C27.1222 29.3107 27.207 29.2407 27.2724 29.1472L27.4569 28.8991C27.4657 28.8888 27.4742 28.8782 27.4824 28.8673L27.7495 28.4348C27.7561 28.4264 27.7625 28.418 27.7686 28.4093L28.1185 27.7795C28.1229 27.7732 28.1271 27.7669 28.1312 27.7604L28.5384 26.978C28.5427 26.9717 28.5469 26.9653 28.5511 26.9589L28.99 26.0365C28.9944 26.0281 28.9987 26.0196 29.0027 26.0111L29.448 24.9423C29.4524 24.9361 29.4566 24.9297 29.4608 24.9233L29.9188 23.7082C29.9233 23.6978 29.9275 23.6871 29.9315 23.6764L30.3768 22.2833C30.3813 22.2728 30.3856 22.2622 30.3895 22.2515L30.803 20.6611C30.8053 20.6527 30.8074 20.6442 30.8094 20.6357L31.1974 18.9117C31.1999 18.8991 31.202 18.8864 31.2038 18.8736L31.5091 17.0733C31.5155 17.0396 31.5198 17.0057 31.5218 16.9715L31.5918 15.0695C31.5934 15.0398 31.5934 15.0101 31.5918 14.9804L31.4519 12.9957C31.4492 12.9657 31.4449 12.9361 31.4391 12.9066L31.0956 10.8837C31.089 10.8514 31.0805 10.8196 31.0702 10.7882L30.4977 8.80349C30.4843 8.75761 30.4673 8.71308 30.4468 8.6699L29.5689 6.79329C29.5437 6.74177 29.514 6.693 29.4798 6.64698L28.2775 4.96757C28.2382 4.91406 28.1937 4.86528 28.1439 4.82126L26.6108 3.43447C26.5658 3.39157 26.517 3.3534 26.4645 3.31997L24.6388 2.21309C24.592 2.18574 24.5432 2.16241 24.4925 2.14311L22.4632 1.33521C22.4279 1.3204 22.3919 1.30768 22.3551 1.29705L20.2049 0.718159C20.1693 0.707706 20.1333 0.699227 20.0968 0.692713L17.8894 0.342836C17.8325 0.333881 17.7752 0.329642 17.7176 0.330114L15.453 0.342836C15.3757 0.3429 15.2993 0.351369 15.2239 0.368282L12.902 0.902639C12.8314 0.920702 12.7636 0.946147 12.6985 0.978976L10.3511 2.09858C10.2997 2.12384 10.2509 2.15353 10.2048 2.18764L7.95924 3.8098C7.92086 3.83666 7.88482 3.86635 7.85109 3.89886L5.91723 5.80727C5.88478 5.83878 5.85509 5.87271 5.82817 5.90906L4.32052 7.98923C4.3019 8.01357 4.28493 8.03902 4.26963 8.06557L3.08641 10.273C3.06856 10.3056 3.05372 10.3395 3.04188 10.3748L2.25306 12.7984C2.24369 12.8297 2.23732 12.8615 2.23398 12.8939L1.93499 15.2476L1.6869 17.1496C1.66172 17.336 1.74231 17.4419 1.92868 17.4674C2.11505 17.4928 2.22106 17.4123 2.2467 17.226L2.48844 15.3494L3.22636 13.142L4.19965 10.8646L5.46557 8.82894L7.09409 6.98413L9.03431 5.24747L11.2099 3.79707L13.4237 2.84923L15.5611 2.4421L17.6604 2.42937L19.7469 2.69655L21.7889 3.20546L23.7037 3.94975L25.4085 4.92304L26.8208 6.15079L27.934 7.67116L28.7992 9.3951L29.3908 11.2399L29.7407 13.1674L29.8997 15.0758L29.9188 16.9206L29.8234 18.6827L29.5371 20.3558L29.1363 21.908L28.7101 23.2693L28.2712 24.4589L27.8259 25.5022L27.3997 26.3991L27.0053 27.1688L26.6681 27.7795L26.4136 28.1994L26.2546 28.4602C26.2215 28.5095 26.1961 28.5625 26.1783 28.6192L26.1465 28.7465C26.0854 28.9696 26.1421 29.1573 26.3164 29.3094C26.4907 29.4616 26.6842 29.4923 26.8971 29.4017Z" fill="black"/>
<path d="M2.49472 12.0478C2.49473 12.1603 2.53448 12.2562 2.61397 12.3357C2.69347 12.4152 2.78943 12.455 2.90185 12.455C3.01428 12.455 3.11024 12.4152 3.18974 12.3357C3.26923 12.2562 3.30898 12.1603 3.30898 12.0478C3.30898 11.9354 3.26923 11.8394 3.18974 11.7599C3.11024 11.6804 3.01428 11.6407 2.90185 11.6407C2.78943 11.6407 2.69347 11.6804 2.61397 11.7599C2.53448 11.8394 2.49473 11.9354 2.49472 12.0478ZM2.87005 11.6343H2.82552C2.72892 11.6427 2.64411 11.6787 2.57106 11.7425L2.44383 11.8506C2.41842 11.8695 2.3951 11.8907 2.37386 11.9142L2.13212 12.2196C2.11031 12.2475 2.09123 12.2772 2.07487 12.3086L1.74408 12.9384C1.71944 12.985 1.70035 13.0338 1.68683 13.0847L1.41329 14.128C1.40113 14.1697 1.39264 14.2121 1.38784 14.2552L1.26697 15.6802C1.26354 15.7334 1.26566 15.7864 1.27334 15.8392L1.49599 17.5568C1.49958 17.6023 1.50806 17.6468 1.52143 17.6904L2.13849 19.427L2.46928 21.0301C2.515 21.2006 2.62423 21.2677 2.79697 21.2316C2.96971 21.1954 3.04284 21.0901 3.01636 20.9156L2.68557 19.3253L2.73646 17.4995L2.79371 15.782L2.88913 14.4015L3.04817 13.371L3.16267 12.684L3.22628 12.3595L3.27081 12.245C3.27847 12.2264 3.28483 12.2073 3.2899 12.1878L3.29626 12.1496C3.33108 12.0137 3.30376 11.8916 3.21431 11.7835C3.12487 11.6753 3.01011 11.6256 2.87005 11.6343Z" fill="black"/>
<path d="M1.98587 14.4397C1.98587 14.5363 2.02003 14.6188 2.08835 14.6871C2.15667 14.7554 2.23913 14.7896 2.33575 14.7896C2.43237 14.7896 2.51483 14.7554 2.58315 14.6871C2.65147 14.6188 2.68563 14.5363 2.68563 14.4397C2.68563 14.3431 2.65147 14.2606 2.58315 14.1923C2.51483 14.124 2.43237 14.0898 2.33575 14.0898C2.23913 14.0898 2.15667 14.124 2.08835 14.1923C2.02003 14.2606 1.98587 14.3431 1.98587 14.4397ZM1.9159 14.4334C1.9159 14.5493 1.95689 14.6483 2.03887 14.7302C2.12085 14.8122 2.21981 14.8532 2.33575 14.8532C2.45169 14.8532 2.55065 14.8122 2.63263 14.7302C2.71461 14.6483 2.7556 14.5493 2.7556 14.4334C2.7556 14.3174 2.71461 14.2185 2.63263 14.1365C2.55065 14.0545 2.45169 14.0135 2.33575 14.0135C2.21981 14.0135 2.12085 14.0545 2.03887 14.1365C1.95689 14.2185 1.9159 14.3174 1.9159 14.4334ZM2.62201 14.7769L2.64746 14.7578C2.80575 14.5221 2.78408 14.3044 2.58244 14.1045C2.38081 13.9047 2.16287 13.8849 1.92862 14.0453L1.88409 14.1089C1.86145 14.1409 1.84236 14.1748 1.82684 14.2107L1.69961 14.5097C1.68273 14.5509 1.67001 14.5933 1.66144 14.6369L1.52149 15.3049C1.51163 15.3468 1.50527 15.3892 1.50241 15.4321L1.46424 16.4817C1.46305 16.5072 1.46305 16.5326 1.46424 16.5581L1.54057 17.9067C1.54202 17.9258 1.54414 17.9449 1.54694 17.9639L1.7505 19.5098C1.75354 19.5354 1.75778 19.5608 1.76322 19.5861L2.14491 21.2401C2.15054 21.2594 2.1569 21.2785 2.16399 21.2973L2.6729 22.9322C2.6767 22.9472 2.68094 22.962 2.68563 22.9767L3.25179 24.4653C3.26305 24.4915 3.27577 24.5169 3.28996 24.5416L3.90701 25.7503C3.92039 25.7745 3.93523 25.7979 3.95154 25.8203L4.5686 26.7172C4.59029 26.752 4.61574 26.7838 4.64493 26.8126L5.20474 27.3152L5.49736 27.7478C5.59914 27.9004 5.72637 27.9259 5.87905 27.8241C6.03172 27.7223 6.05716 27.5951 5.95538 27.4424L5.66912 27.0226L5.50372 26.3037C5.49825 26.2864 5.49189 26.2695 5.48464 26.2528L5.1284 25.2223C5.12629 25.2202 5.12417 25.218 5.12204 25.2159L4.65766 23.95L4.14875 22.4742L3.69073 20.8775L3.37902 19.268L3.18181 17.7731L3.09275 16.4754L3.06731 15.4385C3.06575 15.4214 3.06362 15.4045 3.06095 15.3876L2.99733 14.7133C2.99332 14.6679 2.98484 14.6234 2.97189 14.5797L2.87647 14.268C2.86667 14.235 2.85395 14.2032 2.8383 14.1725L2.80649 14.1089C2.72518 14.0024 2.61853 13.9374 2.48654 13.9141C2.35454 13.8908 2.23209 13.9152 2.11918 13.9874C2.00627 14.0597 1.93274 14.1606 1.89858 14.2902C1.86443 14.4198 1.87868 14.5439 1.94134 14.6624L1.96043 14.6815C2.04017 14.7833 2.14405 14.8435 2.27207 14.8619C2.40009 14.8804 2.51674 14.852 2.62201 14.7769Z" fill="black"/>
<path d="M3.74162 24.1154L3.73526 24.1281C3.71582 24.1749 3.70522 24.2237 3.70346 24.2744V24.408C3.70146 24.4443 3.70358 24.4803 3.70982 24.5161L3.77343 24.8342C3.77948 24.8646 3.78796 24.8943 3.79888 24.9233L3.977 25.4004C3.97893 25.4089 3.98105 25.4174 3.98336 25.4258L4.26326 26.0874C4.26326 26.0895 4.26326 26.0916 4.26326 26.0938L4.56861 26.8126C4.57278 26.8169 4.57702 26.8212 4.58133 26.8253L4.90576 27.5314C4.9118 27.5422 4.91816 27.5528 4.92484 27.5633L5.24927 28.1549C5.25332 28.1634 5.25756 28.1719 5.262 28.1803L5.54826 28.651C5.55033 28.6553 5.55245 28.6596 5.55462 28.6638L5.76455 28.9882C5.76662 28.9925 5.76874 28.9967 5.77091 29.0009L5.91086 29.2109C5.91293 29.2151 5.91505 29.2194 5.91722 29.2236L5.99356 29.3317C6.01418 29.3635 6.0375 29.3932 6.06353 29.4208L6.09534 29.4526C6.3034 29.6618 6.53923 29.7001 6.80282 29.5675C7.06642 29.4349 7.17623 29.2227 7.13225 28.931L7.12589 28.8928C7.11302 28.8009 7.08122 28.716 7.03047 28.6383L6.96049 28.5238C6.95434 28.5152 6.94798 28.5067 6.94141 28.4984L6.78873 28.2948L6.58517 27.9958L6.31163 27.5569L5.99992 26.9907L5.68185 26.3164L5.37014 25.6167C5.36803 25.6145 5.36592 25.6124 5.36378 25.6103L5.07116 24.9551C5.06712 24.9465 5.06288 24.938 5.05843 24.9296L4.82942 24.4716C4.81023 24.4329 4.7869 24.3968 4.75945 24.3635L4.54952 24.109C4.53566 24.0932 4.52082 24.0783 4.50499 24.0645L4.40321 23.9754C4.38366 23.9564 4.36245 23.9394 4.3396 23.9245L4.32687 23.9182C4.21971 23.8545 4.10708 23.8426 3.98897 23.8824C3.87086 23.9222 3.78841 23.9999 3.74162 24.1154ZM5.92994 29.02C5.92995 29.1799 5.98646 29.3163 6.0995 29.4293C6.21253 29.5424 6.34898 29.5989 6.50883 29.5989C6.66869 29.5989 6.80513 29.5424 6.91817 29.4293C7.0312 29.3163 7.08772 29.1799 7.08772 29.02C7.08772 28.8602 7.0312 28.7237 6.91817 28.6107C6.80513 28.4976 6.66869 28.4411 6.50883 28.4411C6.34898 28.4411 6.21253 28.4976 6.0995 28.6107C5.98646 28.7237 5.92995 28.8602 5.92994 29.02ZM6.37524 28.5047L6.33707 28.5175C6.45294 28.6439 6.59501 28.6906 6.76329 28.6574L6.72512 28.6129C6.74381 28.6846 6.77774 28.7482 6.8269 28.8037L6.82054 28.7592C6.79253 28.653 6.73527 28.5661 6.64878 28.4984L6.60425 28.4666C6.51223 28.3963 6.40832 28.3623 6.29254 28.3648H6.26074C6.19678 28.3656 6.13529 28.3783 6.07626 28.403L6.04445 28.4157C5.96938 28.4467 5.90577 28.4934 5.85361 28.5556L5.82816 28.5874L5.79635 28.6256C5.76165 28.6657 5.73408 28.7102 5.71366 28.7592L5.68821 28.8228C5.58518 29.0678 5.64409 29.2642 5.86494 29.412C6.08579 29.5598 6.28982 29.5394 6.47702 29.3508L6.52155 29.2999C6.53497 29.2879 6.54769 29.2752 6.55972 29.2617L6.59153 29.2236C6.59585 29.2194 6.60009 29.2152 6.60425 29.2109L6.6297 29.179C6.54271 29.2118 6.47061 29.2648 6.41341 29.3381L6.44522 29.3254C6.38169 29.3241 6.32019 29.3347 6.26074 29.3572H6.29254C6.23514 29.3356 6.17576 29.3249 6.11442 29.3254L6.16532 29.3444C6.18193 29.3517 6.19889 29.3581 6.21621 29.3635L6.26074 29.3699C6.21923 29.3437 6.1747 29.3247 6.12715 29.3126L6.17804 29.3444C6.15816 29.2077 6.0903 29.1017 5.97447 29.0264L5.98083 29.0645C6.00124 29.2016 6.06743 29.3109 6.17942 29.3925C6.29141 29.4741 6.41576 29.5036 6.55247 29.481C6.68918 29.4585 6.79744 29.3905 6.87724 29.2773C6.95705 29.164 6.98457 29.0392 6.95983 28.9029C6.93508 28.7665 6.86544 28.6594 6.75091 28.5814C6.63639 28.5034 6.51116 28.4778 6.37524 28.5047ZM5.85361 28.9628L5.80908 29.0455C5.72426 29.2024 5.76031 29.3232 5.91722 29.4081C6.07414 29.4929 6.195 29.4568 6.27982 29.2999L6.32435 29.2172C6.40917 29.0603 6.37312 28.9394 6.21621 28.8546C6.05929 28.7698 5.93843 28.8058 5.85361 28.9628Z" fill="black"/>
<path d="M4.68035 29.2234C4.68035 29.3411 4.72196 29.4415 4.80519 29.5248C4.88841 29.608 4.98887 29.6496 5.10657 29.6496C5.22426 29.6496 5.32472 29.608 5.40794 29.5248C5.49117 29.4415 5.53278 29.3411 5.53278 29.2234C5.53278 29.1057 5.49117 29.0052 5.40794 28.922C5.32472 28.8388 5.22426 28.7972 5.10657 28.7972C4.98887 28.7972 4.88841 28.8388 4.80519 28.922C4.72196 29.0052 4.68035 29.1057 4.68035 29.2234ZM4.65491 29.2234C4.65491 29.3481 4.699 29.4546 4.7872 29.5427C4.87539 29.6309 4.98184 29.675 5.10657 29.675C5.23129 29.675 5.33775 29.6309 5.42594 29.5427C5.51413 29.4546 5.55823 29.3481 5.55823 29.2234C5.55823 29.0987 5.51413 28.9922 5.42594 28.904C5.33775 28.8158 5.23129 28.7717 5.10657 28.7717C4.98184 28.7717 4.87539 28.8158 4.7872 28.904C4.699 28.9922 4.65491 29.0987 4.65491 29.2234ZM4.61038 29.2297C4.61038 29.365 4.6582 29.4805 4.75384 29.5761C4.84949 29.6717 4.96494 29.7196 5.10021 29.7196C5.23547 29.7196 5.35092 29.6717 5.44657 29.5761C5.54221 29.4805 5.59003 29.365 5.59003 29.2297C5.59003 29.0945 5.54221 28.979 5.44657 28.8834C5.35092 28.7877 5.23547 28.7399 5.10021 28.7399C4.96494 28.7399 4.84949 28.7877 4.75384 28.8834C4.6582 28.979 4.61038 29.0945 4.61038 29.2297ZM4.59765 29.0007L4.5404 29.1089C4.50084 29.1782 4.47539 29.2525 4.46407 29.3315L4.4259 29.6114C4.42311 29.6283 4.42099 29.6453 4.41954 29.6623L4.40045 30.0504L4.36864 30.5275L4.33048 31.0236L4.29231 31.4626C4.29205 31.4732 4.29205 31.4838 4.29231 31.4944L4.27322 31.8697C4.27279 31.9147 4.27703 31.9592 4.28595 32.0033L4.33048 32.2832C4.35336 32.4114 4.41274 32.5195 4.5086 32.6076L4.61674 32.7031C4.60954 32.5866 4.56289 32.4891 4.47679 32.4104L4.48315 32.5313C4.49018 32.6508 4.53841 32.7502 4.62784 32.8297C4.71727 32.9092 4.82172 32.9455 4.94117 32.9384C5.06062 32.9314 5.1601 32.8832 5.23959 32.7937C5.31909 32.7043 5.35533 32.5999 5.3483 32.4804L5.34194 32.3595C5.25443 32.4501 5.21414 32.5582 5.22107 32.684L5.32285 32.5822C5.3905 32.5113 5.43715 32.4286 5.4628 32.3341L5.53278 32.0606C5.54557 32.019 5.55405 31.9766 5.55823 31.9333L5.57731 31.5707L5.61548 31.1318C5.61549 31.1297 5.61549 31.1276 5.61548 31.1254L5.65365 30.6292L5.69818 30.1458C5.69834 30.1373 5.69834 30.1288 5.69818 30.1203L5.71726 29.7196C5.71743 29.7111 5.71743 29.7026 5.71726 29.6941V29.4142C5.71613 29.3254 5.69704 29.2405 5.66001 29.1598L5.60912 29.0453C5.514 28.8324 5.35001 28.7209 5.11714 28.7107C4.88427 28.7004 4.71111 28.7971 4.59765 29.0007Z" fill="black"/>
<path d="M4.97932 29.0834C4.97932 29.1958 5.01907 29.2918 5.09857 29.3713C5.17807 29.4508 5.27403 29.4905 5.38645 29.4905C5.49888 29.4905 5.59484 29.4508 5.67434 29.3713C5.75383 29.2918 5.79358 29.1958 5.79358 29.0834C5.79358 28.971 5.75383 28.875 5.67434 28.7955C5.59484 28.716 5.49888 28.6762 5.38645 28.6762C5.27403 28.6762 5.17807 28.716 5.09857 28.7955C5.01907 28.875 4.97932 28.971 4.97932 29.0834ZM4.93479 29.0834C4.93479 29.2081 4.97889 29.3146 5.06708 29.4027C5.15527 29.4909 5.26173 29.535 5.38645 29.535C5.51118 29.535 5.61763 29.4909 5.70582 29.4027C5.79402 29.3146 5.83811 29.2081 5.83811 29.0834C5.83811 28.9587 5.79402 28.8522 5.70582 28.764C5.61763 28.6758 5.51118 28.6317 5.38645 28.6317C5.26173 28.6317 5.15527 28.6758 5.06708 28.764C4.97889 28.8522 4.93479 28.9587 4.93479 29.0834ZM4.87118 29.0897C4.87118 29.232 4.92149 29.3535 5.0221 29.4541C5.12271 29.5547 5.24416 29.605 5.38645 29.605C5.52874 29.605 5.65019 29.5547 5.75081 29.4541C5.85142 29.3535 5.90173 29.232 5.90173 29.0897C5.90173 28.9475 5.85142 28.826 5.75081 28.7254C5.65019 28.6248 5.52874 28.5745 5.38645 28.5745C5.24416 28.5745 5.12271 28.6248 5.0221 28.7254C4.92149 28.826 4.87118 28.9475 4.87118 29.0897ZM4.84573 28.8671L4.77576 29.0007C4.74336 29.065 4.72216 29.1329 4.71215 29.2042L4.66762 29.4969C4.66524 29.5074 4.66312 29.518 4.66125 29.5287L4.61036 29.9803L4.54675 30.5083L4.41952 31.5007C4.41951 31.5028 4.41951 31.5049 4.41952 31.5071L4.38135 31.8633C4.38134 31.8654 4.38134 31.8675 4.38135 31.8697L4.34955 32.1305C4.34731 32.1623 4.34731 32.1941 4.34955 32.2259L4.35591 32.3977C4.35807 32.4517 4.36656 32.5047 4.38135 32.5567L4.41316 32.6648C4.43089 32.7327 4.45846 32.7963 4.49586 32.8557L4.54675 32.932C4.55282 32.9428 4.55919 32.9534 4.56583 32.9638L4.62309 33.0338L4.69942 33.1356C4.72926 33.1774 4.76319 33.2156 4.80121 33.2501L4.94116 33.371C4.97667 33.4022 5.01484 33.4298 5.05566 33.4537L5.27195 33.5809C5.31847 33.6073 5.36724 33.6285 5.41826 33.6445L5.72997 33.7463C5.77772 33.7616 5.82649 33.7722 5.87628 33.7781L6.30249 33.829C6.3215 33.8318 6.34059 33.8339 6.35975 33.8353L6.84957 33.8608C6.86654 33.8613 6.8835 33.8613 6.90047 33.8608L7.43482 33.8544C7.46888 33.8544 7.50281 33.8523 7.5366 33.8481L8.09005 33.7654C8.12439 33.7612 8.15832 33.7549 8.19183 33.7463L8.70074 33.6L9.11423 33.4918C9.2899 33.4445 9.42773 33.3448 9.52772 33.1928L9.66767 32.9766C9.68235 32.9543 9.69507 32.931 9.70584 32.9066L9.71856 32.8875L9.75037 32.8748C9.90275 32.8106 9.95623 32.6989 9.9108 32.5399C9.86537 32.3809 9.761 32.3144 9.5977 32.3404L9.57225 32.3468L9.55317 32.3341C9.53893 32.3226 9.52409 32.312 9.50864 32.3022L9.28599 32.175C9.14077 32.0937 8.98597 32.0661 8.82161 32.0923L8.4272 32.1496L7.92465 32.1814C7.91193 32.1811 7.8992 32.1811 7.88648 32.1814L7.36485 32.2386L6.87502 32.2577H6.42972L6.06076 32.2259L5.84447 32.1941L5.75541 32.1559L5.65999 32.0987L5.5773 32.0414L5.5264 32.0033C5.56952 32.0697 5.62253 32.1269 5.68544 32.175L5.63455 32.0987C5.65487 32.1647 5.68456 32.2262 5.72361 32.2832L5.71725 32.2577L5.71088 32.2195L5.72997 32.0033L5.76814 31.6597L5.89537 30.6801C5.89538 30.678 5.89538 30.6758 5.89537 30.6737L5.95898 30.1394C5.95899 30.1372 5.95899 30.1351 5.95898 30.133L6.00987 29.6813C6.0132 29.6581 6.01532 29.6348 6.01623 29.6114V29.3124C6.01693 29.2564 6.01057 29.2013 5.99715 29.147L5.96534 29.0007C5.90353 28.7257 5.73267 28.5714 5.45277 28.538C5.17287 28.5046 4.97052 28.6143 4.84573 28.8671Z" fill="black"/>
<path d="M10.6538 29.0198C10.6539 29.1339 10.6943 29.2312 10.775 29.3119C10.8557 29.3925 10.9531 29.4329 11.0672 29.4329C11.1813 29.4329 11.2788 29.3925 11.3595 29.3119C11.4402 29.2312 11.4806 29.1339 11.4807 29.0198C11.4806 28.9057 11.4402 28.8083 11.3595 28.7276C11.2788 28.647 11.1813 28.6067 11.0672 28.6067C10.9531 28.6067 10.8557 28.647 10.775 28.7276C10.6943 28.8083 10.6539 28.9057 10.6538 29.0198ZM10.5138 29.0007C10.5138 29.1535 10.5678 29.284 10.6759 29.392C10.784 29.5001 10.9144 29.5541 11.0672 29.5541C11.2201 29.5541 11.3505 29.5001 11.4586 29.392C11.5667 29.284 11.6207 29.1535 11.6207 29.0007C11.6207 28.8479 11.5667 28.7174 11.4586 28.6093C11.3505 28.5013 11.2201 28.4472 11.0672 28.4472C10.9144 28.4472 10.784 28.5013 10.6759 28.6093C10.5678 28.7174 10.5138 28.8479 10.5138 29.0007ZM10.342 28.7271L10.2593 28.9116C10.2305 28.9727 10.2093 29.0363 10.1957 29.1025L10.1258 29.4842C10.1202 29.5115 10.1159 29.5391 10.113 29.5669L10.0685 30.0758C10.0677 30.097 10.0677 30.1182 10.0685 30.1394L10.0621 30.6674C10.0608 30.6949 10.0608 30.7225 10.0621 30.7501L10.1003 31.2208C10.1018 31.24 10.1039 31.2591 10.1067 31.2781L10.1639 31.6598C10.1678 31.6747 10.172 31.6896 10.1766 31.7043L10.2339 31.9842C10.2432 32.0276 10.256 32.07 10.2721 32.1114L10.3866 32.4168C10.4025 32.4565 10.4216 32.4947 10.4438 32.5313L10.4756 32.5949C10.4595 32.5256 10.434 32.4598 10.3993 32.3977L10.4057 32.4295C10.6268 32.4002 10.7998 32.2932 10.9247 32.1084C11.0496 31.9236 11.0844 31.7232 11.0291 31.5071L11.01 31.5134C11.1291 31.5603 11.2521 31.5751 11.379 31.558L11.3408 31.5452C11.2492 31.5069 11.1538 31.4878 11.0545 31.488L11.0036 31.4944C10.9367 31.4938 10.871 31.5023 10.8064 31.5198L10.7301 31.5452C10.7216 31.5472 10.7131 31.5493 10.7046 31.5516L10.5965 31.5898C10.5922 31.5919 10.588 31.594 10.5838 31.5961L10.4566 31.6407L10.2975 31.6788L10.0621 31.7297C10.0537 31.7296 10.0452 31.7296 10.0367 31.7297L9.78224 31.7933C9.77373 31.7953 9.76524 31.7974 9.7568 31.7997L9.53415 31.857C9.33739 31.9083 9.1826 32.0186 9.06977 32.1877L9.01888 32.2577C8.86613 32.4836 8.85765 32.7147 8.99343 32.9511L9.03796 33.0275C9.22705 33.3644 9.51119 33.4958 9.89039 33.4219L10.113 33.3773C10.17 33.3663 10.2251 33.3493 10.2784 33.3264L10.5265 33.2247C10.5351 33.2206 10.5436 33.2163 10.552 33.2119L10.7873 33.0974C10.7895 33.0974 10.7916 33.0974 10.7937 33.0974L10.9782 33.002L11.0991 32.9511L11.1372 32.9384L11.1627 32.932C11.0492 32.9001 10.9347 32.8959 10.8192 32.9193L10.87 32.932C10.812 32.8982 10.7505 32.8727 10.6856 32.8557L10.7174 32.8748C10.8076 32.9296 10.9052 32.9636 11.01 32.9766L11.0291 32.9829C11.3147 33.0182 11.5437 32.9206 11.7161 32.6903L11.7352 32.6649C11.805 32.5737 11.8516 32.4719 11.8751 32.3595L11.8879 32.2895C11.9005 32.2243 11.9047 32.1586 11.9006 32.0923L11.8815 31.7615C11.8806 31.736 11.8784 31.7105 11.8751 31.6852L11.8306 31.418L11.7924 31.0872L11.7797 30.6737L11.7861 30.1966L11.8306 29.7259L11.8688 29.3569C11.8765 29.2912 11.8765 29.2255 11.8688 29.1597L11.8433 28.9625C11.8228 28.7867 11.7511 28.635 11.6284 28.5074C11.5057 28.3798 11.3569 28.3023 11.182 28.2749C11.0072 28.2475 10.8418 28.2757 10.6859 28.3596C10.5301 28.4436 10.4154 28.5661 10.342 28.7271ZM9.68046 32.3849L9.61685 32.3086C9.49174 32.1979 9.36485 32.1958 9.2362 32.3024C9.10754 32.409 9.08599 32.5341 9.17155 32.6776L9.23516 32.7539C9.36027 32.8646 9.48716 32.8667 9.61581 32.7601C9.74447 32.6535 9.76602 32.5285 9.68046 32.3849Z" fill="black"/>
</g>
<defs>
<clipPath id="clip0_1_7388">
<rect width="32" height="40" fill="white"/>
</clipPath>
</defs>
</svg>
