<svg width="40" height="39" viewBox="0 0 40 39" fill="none" xmlns="http://www.w3.org/2000/svg">
<g clip-path="url(#clip0_1_7396)">
<path d="M7.33445 22.7991C7.33445 23.0002 7.43501 23.1008 7.63614 23.1008C7.83726 23.1008 7.93782 23.0002 7.93782 22.7991C7.93782 22.598 7.83726 22.4974 7.63614 22.4974C7.43501 22.4974 7.33445 22.598 7.33445 22.7991ZM7.32517 22.7991C7.32517 23.0033 7.42728 23.1054 7.63149 23.1054C7.83571 23.1054 7.93782 23.0033 7.93782 22.7991C7.93782 22.5949 7.83571 22.4928 7.63149 22.4928C7.42728 22.4928 7.32517 22.5949 7.32517 22.7991ZM7.29268 22.7944C7.29268 23.0141 7.40252 23.124 7.62221 23.124C7.8419 23.124 7.95175 23.0141 7.95175 22.7944C7.95175 22.5748 7.8419 22.4649 7.62221 22.4649C7.40252 22.4649 7.29268 22.5748 7.29268 22.7944ZM7.21377 22.7759C7.21377 22.8823 7.25138 22.9731 7.32661 23.0483C7.40183 23.1235 7.49263 23.1611 7.59901 23.1611C7.70538 23.1611 7.79618 23.1235 7.8714 23.0483C7.94663 22.9731 7.98424 22.8823 7.98424 22.7759C7.98424 22.6695 7.94663 22.5787 7.8714 22.5035C7.79618 22.4283 7.70538 22.3906 7.59901 22.3906C7.49263 22.3906 7.40183 22.4283 7.32661 22.5035C7.25138 22.5787 7.21377 22.6695 7.21377 22.7759ZM7.98424 22.9151L8.02137 22.8316L8.18381 22.5763L8.55512 22.0518C8.5567 22.0487 8.55824 22.0457 8.55976 22.0425L9.09352 21.2674C9.09352 21.2659 9.09352 21.2643 9.09352 21.2628L9.75259 20.2788C9.75413 20.2788 9.75568 20.2788 9.75723 20.2788L10.472 19.1881L11.2517 18.0371L12.0129 16.9231L12.6859 15.9624L13.2197 15.2198L13.5863 14.7185L13.8045 14.4493L13.9112 14.3333C13.8629 14.3646 13.8196 14.4017 13.7813 14.4447L13.8184 14.4168C13.8051 14.3078 13.7661 14.2088 13.7015 14.12C13.6368 14.0312 13.5547 13.9636 13.4551 13.9173C13.3555 13.8711 13.2509 13.8519 13.1413 13.8598C13.0317 13.8678 12.931 13.9018 12.8391 13.962L12.8437 13.9991C12.8609 13.9239 12.864 13.8481 12.853 13.7717L12.8391 13.8367C12.8933 13.7658 12.9304 13.6869 12.9505 13.5999L12.8762 13.7021C12.8747 13.7036 12.8731 13.7051 12.8716 13.7067L12.7323 13.8877C12.726 13.8953 12.7198 13.903 12.7138 13.9109L12.4956 14.2312C12.4909 14.2357 12.4863 14.2404 12.4817 14.2451L12.1568 14.7417C12.1552 14.7448 12.1537 14.7479 12.1522 14.751L11.6741 15.4983L11.0011 16.5426L10.1889 17.8096L9.32558 19.0999L8.5412 20.2463C8.53803 20.2509 8.53494 20.2556 8.53191 20.2603L7.94246 21.1793C7.94089 21.1823 7.93934 21.1854 7.93782 21.1885L7.54795 21.8337C7.5228 21.8758 7.50423 21.9207 7.49225 21.9683L7.38086 22.3814C7.36177 22.4571 7.36641 22.5314 7.39479 22.6041L7.42263 22.6784L7.41799 22.6831C7.37158 22.8037 7.40871 22.8873 7.52939 22.9337C7.65006 22.9801 7.7336 22.943 7.78002 22.8223L7.80787 22.748C7.7392 22.7626 7.69278 22.8028 7.66863 22.8687L7.81251 22.8362C7.87554 22.823 7.93124 22.7952 7.9796 22.7527L8.30449 22.4742C8.33237 22.4491 8.35712 22.4213 8.37875 22.3906L8.82432 21.7826L9.46947 20.9008C9.47104 20.8977 9.47259 20.8946 9.47411 20.8915L10.2678 19.7497C10.2693 19.7482 10.2709 19.7466 10.2724 19.7451L11.1589 18.4594L12.0129 17.2156C12.0129 17.214 12.0129 17.2125 12.0129 17.2109L12.7091 16.1759C12.7107 16.1713 12.7123 16.1666 12.7138 16.162L13.1918 15.4101L13.5074 14.9181L13.7163 14.621L13.837 14.4632L13.9112 14.3751C13.9379 14.3433 13.9611 14.3093 13.9808 14.2729L14.0087 14.2172C13.995 14.2382 13.9826 14.2598 13.9716 14.2822L13.9901 14.2544C14.1682 14.0112 14.1716 13.7656 14.0004 13.5175C13.8292 13.2695 13.5984 13.1855 13.3079 13.2658L13.2614 13.2797C13.1373 13.3118 13.0321 13.3752 12.9458 13.47L12.8298 13.5999C12.8217 13.6105 12.814 13.6214 12.8066 13.6324L12.5699 13.9295C12.5651 13.9356 12.5605 13.9418 12.556 13.948L12.18 14.4679L11.637 15.2151C11.6354 15.2167 11.6339 15.2182 11.6323 15.2198L10.9593 16.1898C10.9562 16.1913 10.9531 16.1929 10.9501 16.1945L10.1935 17.313C10.1919 17.3161 10.1904 17.3192 10.1889 17.3223L9.41841 18.4873C9.41684 18.4904 9.41529 18.4935 9.41377 18.4966L8.71293 19.6058C8.70977 19.6104 8.70668 19.6151 8.70364 19.6198L8.10027 20.6316C8.09711 20.6362 8.09402 20.6408 8.09099 20.6455L7.63149 21.4717C7.62659 21.4808 7.62195 21.4901 7.61757 21.4995L7.32981 22.089C7.32814 22.0951 7.32659 22.1013 7.32517 22.1075L7.18593 22.4231C7.16191 22.4795 7.14954 22.5383 7.1488 22.5995L7.14415 22.7202C7.13997 22.9579 7.2537 23.1037 7.48535 23.1575C7.71699 23.2112 7.88329 23.1304 7.98424 22.9151Z" fill="black"/>
<path d="M13.5399 14.0501L13.5538 14.0408C13.571 14.027 13.5865 14.0115 13.6003 13.9944L13.6374 13.9526L13.6884 13.8969L13.7534 13.8505L13.7998 13.8273H13.8648L14.0412 13.8505L14.4125 13.9062C14.4371 13.9095 14.4619 13.911 14.4868 13.9109H15.1087L15.9256 13.9155L16.9559 13.9434L18.1302 13.9898C18.1333 13.9898 18.1364 13.9898 18.1395 13.9898L19.3926 14.0083C19.3988 14.0084 19.405 14.0084 19.4112 14.0083L20.7015 13.9851C20.7139 13.9856 20.7263 13.9856 20.7386 13.9851L22.015 13.8691C22.0464 13.8675 22.0773 13.8629 22.1078 13.8552L23.2171 13.5256L24.1593 13.4699C24.2606 13.4428 24.3086 13.3769 24.3035 13.2722C24.2984 13.1675 24.2442 13.1065 24.1407 13.0893L23.1985 13.1404L22.0614 12.9269C22.0338 12.9214 22.006 12.9183 21.9779 12.9176L20.6969 12.9083C20.6938 12.9083 20.6907 12.9083 20.6876 12.9083L19.4066 12.9223L18.1673 12.8944L16.9977 12.848C16.9946 12.848 16.9915 12.848 16.9884 12.848L15.9488 12.8202C15.9441 12.8201 15.9395 12.8201 15.9348 12.8202L15.1087 12.8155C15.1056 12.8155 15.1025 12.8155 15.0994 12.8155L14.4775 12.8248C14.4463 12.8252 14.4153 12.8283 14.3846 12.8341L14.018 12.9037C13.9843 12.911 13.9518 12.9218 13.9205 12.9362L13.7302 13.0151C13.6952 13.0293 13.6627 13.0479 13.6327 13.0708L13.4981 13.1775L13.3635 13.275C13.3448 13.2902 13.3277 13.3073 13.3125 13.3261L13.2197 13.4282C13.2095 13.4399 13.2002 13.4523 13.1918 13.4653L13.1315 13.5581C13.113 13.5854 13.0991 13.6148 13.0897 13.6463L13.0711 13.7113C13.0486 13.7948 13.0594 13.8737 13.1036 13.948L13.1129 13.9666C13.1575 14.0412 13.2225 14.0869 13.3078 14.1036C13.3931 14.1203 13.4705 14.1024 13.5399 14.0501Z" fill="black"/>
<path d="M18.3995 13.2611C18.3995 13.4498 18.4939 13.5442 18.6826 13.5442C18.8714 13.5442 18.9657 13.4498 18.9657 13.2611C18.9657 13.0724 18.8714 12.978 18.6826 12.978C18.4939 12.978 18.3995 13.0724 18.3995 13.2611ZM18.3809 13.2657C18.3809 13.4638 18.4799 13.5628 18.678 13.5628C18.876 13.5628 18.975 13.4638 18.975 13.2657C18.975 13.0677 18.876 12.9687 18.678 12.9687C18.4799 12.9687 18.3809 13.0677 18.3809 13.2657ZM18.2927 13.2797C18.2927 13.3835 18.3294 13.4721 18.4028 13.5455C18.4763 13.6189 18.5649 13.6556 18.6687 13.6556C18.7725 13.6556 18.8611 13.6189 18.9345 13.5455C19.0079 13.4721 19.0446 13.3835 19.0446 13.2797C19.0446 13.1759 19.0079 13.0872 18.9345 13.0138C18.8611 12.9404 18.7725 12.9037 18.6687 12.9037C18.5649 12.9037 18.4763 12.9404 18.4028 13.0138C18.3294 13.0872 18.2927 13.1759 18.2927 13.2797ZM18.1813 13.3214C18.1813 13.4509 18.2271 13.5614 18.3186 13.6529C18.4102 13.7444 18.5207 13.7902 18.6501 13.7902C18.7796 13.7902 18.8901 13.7444 18.9816 13.6529C19.0731 13.5614 19.1189 13.4509 19.1189 13.3214C19.1189 13.192 19.0731 13.0815 18.9816 12.99C18.8901 12.8984 18.7796 12.8527 18.6501 12.8527C18.5207 12.8527 18.4102 12.8984 18.3186 12.99C18.2271 13.0815 18.1813 13.192 18.1813 13.3214ZM18.1024 13.456L18.1117 13.5303C18.1397 13.7346 18.2434 13.8878 18.4227 13.9898L18.6037 14.0919C18.6777 14.133 18.7566 14.1593 18.8404 14.1708L19.2488 14.2311C19.2842 14.237 19.3198 14.2401 19.3556 14.2404L20.0472 14.2358C20.0642 14.2349 20.0813 14.2333 20.0982 14.2311L21.0636 14.1569C21.0698 14.157 21.076 14.157 21.0822 14.1569L22.21 14.0408L23.31 13.9295L24.2476 13.8598L24.9438 13.832L25.4311 13.8366L25.7003 13.8413L25.8535 13.8691L25.9695 13.8877C25.9772 13.8894 25.985 13.8909 25.9927 13.8923L26.0438 13.9016C26.1232 13.9129 26.2021 13.9098 26.2805 13.8923L26.299 13.8877C26.5661 13.8306 26.7332 13.6697 26.8003 13.405L26.8049 13.3864C26.7784 13.4349 26.7583 13.486 26.7446 13.5396V13.5349L26.7539 13.521C26.7068 13.5632 26.6666 13.6112 26.6332 13.6649L26.6657 13.6371C26.5355 13.6554 26.421 13.708 26.3223 13.7949L26.3687 13.7856C26.3313 13.7855 26.2941 13.7886 26.2573 13.7949H26.313L26.3501 13.7995L26.4012 13.8134L26.4847 13.8552L26.61 13.9387L26.7725 14.0873L27.0185 14.3611L27.3805 14.8252L27.8957 15.5307C27.9017 15.537 27.9079 15.5432 27.9142 15.5493L28.6336 16.4683C28.6382 16.473 28.6429 16.4776 28.6476 16.4822L29.4969 17.5033C29.5044 17.5128 29.5122 17.522 29.5201 17.5311L30.453 18.5569C30.4561 18.56 30.4592 18.5631 30.4623 18.5662L31.386 19.5594L32.24 20.5109C32.243 20.514 32.2461 20.5171 32.2492 20.5202L33.0383 21.3695C33.053 21.3858 33.0684 21.4012 33.0847 21.4159L33.818 22.0564C33.8663 22.0988 33.9204 22.1313 33.9805 22.1539L34.5746 22.3721L34.9087 22.6969C35.0046 22.7895 35.099 22.7879 35.1917 22.6921C35.2844 22.5963 35.2829 22.502 35.1872 22.4092L34.8623 22.0936L34.6674 21.4948C34.6521 21.4469 34.6305 21.402 34.6024 21.3602L34.0547 20.5573C34.0473 20.5462 34.0396 20.5354 34.0315 20.5248L33.3168 19.6105C33.3123 19.6026 33.3076 19.5949 33.3028 19.5872L32.4674 18.6079C32.4628 18.6017 32.4582 18.5955 32.4535 18.5894L31.5391 17.5729L30.6201 16.5565L29.794 15.5493L29.1071 14.6349L28.5826 13.9248C28.5751 13.9138 28.5674 13.9029 28.5594 13.8923L28.1649 13.4096C28.1379 13.3778 28.1086 13.3484 28.0767 13.3214L27.7518 13.0383C27.7239 13.016 27.6945 12.9959 27.6636 12.978L27.399 12.8109C27.3944 12.8077 27.3898 12.8046 27.3851 12.8016L27.1763 12.6763C27.1308 12.649 27.0829 12.6274 27.0324 12.6113L26.8467 12.551C26.8299 12.5457 26.8129 12.541 26.7957 12.5371L26.6332 12.4953C26.6072 12.489 26.5809 12.4844 26.5543 12.4814L26.4336 12.4674C26.4027 12.4653 26.3718 12.4653 26.3408 12.4674H26.2573C26.2069 12.4695 26.1574 12.4773 26.1087 12.4906L26.0623 12.4999C25.9672 12.5257 25.8821 12.5706 25.8071 12.6345L25.7746 12.6577C25.7046 12.7159 25.6489 12.7855 25.6075 12.8666L25.5889 12.8991C25.6024 12.8796 25.6148 12.8595 25.626 12.8387L25.6121 12.8619C25.5716 12.9235 25.5422 12.9901 25.5239 13.0615L25.5193 13.0801C25.7637 13.0108 25.9169 12.853 25.9788 12.6067L25.9602 12.6113C26.0678 12.635 26.1745 12.6319 26.2805 12.602L26.2294 12.5927C26.2263 12.5912 26.2232 12.5896 26.2201 12.5881L26.1134 12.5695L25.9231 12.5231C25.9216 12.5216 25.92 12.52 25.9185 12.5185L25.6028 12.4442C25.5647 12.4348 25.526 12.4286 25.4868 12.4257L24.9809 12.3932C24.9561 12.3919 24.9314 12.3919 24.9066 12.3932L24.178 12.421C24.1687 12.4208 24.1594 12.4208 24.1501 12.421L23.194 12.4999C23.1878 12.4998 23.1816 12.4998 23.1754 12.4999L22.0615 12.6113C22.06 12.6113 22.0584 12.6113 22.0569 12.6113L20.9383 12.7366L19.9961 12.8202L19.3556 12.848L18.975 12.8295L18.7708 12.8155C18.76 12.8153 18.7491 12.8153 18.7383 12.8155H18.664C18.4921 12.8138 18.3495 12.8776 18.2362 13.0069C18.1229 13.1361 18.0783 13.2858 18.1024 13.456Z" fill="black"/>
<path d="M7.68256 22.0565C7.68256 22.2607 7.78467 22.3628 7.98889 22.3628C8.19311 22.3628 8.29522 22.2607 8.29522 22.0565C8.29522 21.8522 8.19311 21.7501 7.98889 21.7501C7.78467 21.7501 7.68256 21.8522 7.68256 22.0565ZM7.64079 22.0704C7.64084 22.1626 7.67348 22.2414 7.73873 22.3066C7.80397 22.3718 7.88272 22.4044 7.97497 22.4044C8.06722 22.4044 8.14596 22.3718 8.21121 22.3066C8.27645 22.2414 8.3091 22.1626 8.30914 22.0704C8.3091 21.9781 8.27645 21.8994 8.21121 21.8342C8.14596 21.769 8.06722 21.7364 7.97497 21.7364C7.88272 21.7364 7.80397 21.769 7.73873 21.8342C7.67348 21.8994 7.64084 21.9781 7.64079 22.0704ZM7.97033 21.7084L7.90999 21.7037C7.84404 21.6948 7.77906 21.6994 7.71505 21.7176L7.64543 21.7408C7.58076 21.7606 7.52197 21.7916 7.46906 21.8337L7.40408 21.8847C7.24548 22.0104 7.16812 22.1744 7.17201 22.3767L7.17666 22.6041C7.17833 22.6742 7.19071 22.7422 7.21379 22.8084L7.34839 23.1982C7.35641 23.2219 7.36569 23.2451 7.37623 23.2678L7.64079 23.8294C7.64926 23.8484 7.65855 23.867 7.66864 23.8851L8.09564 24.6278C8.11365 24.6586 8.13376 24.688 8.15598 24.7159L8.83361 25.57C8.85502 25.5978 8.87823 25.6241 8.90323 25.6489L9.84543 26.5539C9.86881 26.5771 9.89356 26.5988 9.91969 26.6189L11.1032 27.5007C11.1227 27.5156 11.1428 27.5296 11.1636 27.5425L12.5003 28.3594C12.52 28.3695 12.5401 28.3788 12.5606 28.3872L13.9855 29.0974C14.0052 29.1075 14.0253 29.1168 14.0458 29.1252L15.4986 29.6961C15.5169 29.703 15.5355 29.7092 15.5543 29.7147L16.956 30.1463C16.9713 30.1499 16.9868 30.153 17.0024 30.1556L18.2973 30.4712C18.3249 30.4776 18.3527 30.4822 18.3809 30.4851L19.5226 30.6197C19.5536 30.6226 19.5845 30.6226 19.6154 30.6197L20.4323 30.5594L21.0032 30.7404C21.1022 30.7579 21.1667 30.7186 21.1969 30.6228C21.227 30.5269 21.1965 30.4578 21.1053 30.4155L20.5298 30.2345L19.88 29.7332C19.8511 29.7113 19.8202 29.6927 19.7872 29.6775L18.7475 29.1948C18.7248 29.1843 18.7016 29.175 18.6779 29.167L17.4155 28.7446L16.0463 28.2666L14.6492 27.7003L13.28 27.018L12.0037 26.2337L10.8897 25.3936L9.99395 24.5581L9.33952 23.7923L8.89395 23.1472L8.61547 22.6552L8.44838 22.3024C8.4425 22.2914 8.43631 22.2806 8.42982 22.27L8.32307 22.0704C8.30807 22.0428 8.29105 22.0165 8.27201 21.9915L8.22096 21.9265C8.22023 22.0491 8.25736 22.159 8.33235 22.256V22.1818C8.33262 22.1725 8.33262 22.1632 8.33235 22.1539L8.32771 22.0936C8.31861 21.8631 8.19948 21.7347 7.97033 21.7084Z" fill="black"/>
<path d="M18.418 29.5615C18.418 29.7378 18.5062 29.826 18.6825 29.826C18.8589 29.826 18.9471 29.7378 18.9471 29.5615C18.9471 29.3851 18.8589 29.2969 18.6825 29.2969C18.5062 29.2969 18.418 29.3851 18.418 29.5615ZM18.3809 29.5568C18.3809 29.7641 18.4845 29.8678 18.6918 29.8678C18.8991 29.8678 19.0028 29.7641 19.0028 29.5568C19.0028 29.3495 18.8991 29.2459 18.6918 29.2459C18.4845 29.2459 18.3809 29.3495 18.3809 29.5568ZM18.3344 29.5522C18.3344 29.6598 18.3725 29.7517 18.4486 29.8279C18.5248 29.904 18.6167 29.9421 18.7243 29.9421C18.832 29.9421 18.9239 29.904 19 29.8279C19.0761 29.7517 19.1142 29.6598 19.1142 29.5522C19.1142 29.4445 19.0761 29.3526 19 29.2765C18.9239 29.2004 18.832 29.1623 18.7243 29.1623C18.6167 29.1623 18.5248 29.2004 18.4486 29.2765C18.3725 29.3526 18.3344 29.4445 18.3344 29.5522ZM18.3437 29.8121L18.4041 29.9235C18.4381 29.9879 18.483 30.0436 18.5387 30.0906L18.7243 30.2484C18.7601 30.2776 18.7988 30.3024 18.8403 30.3226L19.2024 30.5037C19.2367 30.5208 19.2723 30.5347 19.3091 30.5454L19.8661 30.7079C19.8981 30.7165 19.9306 30.7227 19.9636 30.7264L20.683 30.8286C20.7107 30.8318 20.7386 30.8333 20.7665 30.8332L21.6808 30.8425C21.6979 30.8431 21.7149 30.8431 21.7319 30.8425L22.7669 30.7775C22.784 30.7766 22.801 30.775 22.818 30.7729L23.9133 30.6197C23.932 30.6174 23.9506 30.6143 23.969 30.6104L25.0829 30.3644C25.1001 30.3604 25.1172 30.3558 25.134 30.3505L26.2247 30.021C26.2404 30.0169 26.2558 30.0122 26.2711 30.007L27.2922 29.6172C27.3064 29.6114 27.3203 29.6053 27.334 29.5986L28.2391 29.1855C28.2501 29.1796 28.2609 29.1735 28.2716 29.167L29.0606 28.7492C29.0797 28.7394 29.0983 28.7286 29.1163 28.7167L29.7661 28.2805C29.7927 28.2627 29.8175 28.2426 29.8403 28.2201L30.3462 27.7189C30.3494 27.7158 30.3525 27.7127 30.3555 27.7096L30.8243 27.199L31.2931 26.8463C31.3921 26.772 31.4045 26.6854 31.3302 26.5864C31.2559 26.4874 31.1693 26.475 31.0703 26.5492L30.6061 26.8973L29.9842 27.1573L29.3251 27.3754C29.3174 27.3768 29.3096 27.3783 29.3019 27.38L28.5686 27.6585C28.5655 27.66 28.5624 27.6616 28.5593 27.6632L27.7332 27.9927L26.8142 28.3408L25.807 28.7075L24.7627 29.0231L23.7045 29.2551L22.6602 29.3897L21.6669 29.4501H20.799L20.1306 29.4037L19.6294 29.3201L19.3138 29.2273L19.1281 29.1437C19.0748 29.1196 19.0191 29.1041 18.961 29.0973L18.8403 29.088C18.6422 29.0652 18.4868 29.136 18.374 29.3005C18.2612 29.465 18.2511 29.6355 18.3437 29.8121Z" fill="black"/>
<path d="M34.672 22.3071C34.672 22.4958 34.7664 22.5902 34.9551 22.5902C35.1439 22.5902 35.2383 22.4958 35.2383 22.3071C35.2383 22.1183 35.1439 22.024 34.9551 22.024C34.7664 22.024 34.672 22.1183 34.672 22.3071ZM34.6535 22.3071C34.6535 22.5051 34.7525 22.6041 34.9505 22.6041C35.1485 22.6041 35.2475 22.5051 35.2475 22.3071C35.2475 22.1091 35.1485 22.01 34.9505 22.01C34.7525 22.01 34.6535 22.1091 34.6535 22.3071ZM34.8298 22.01L34.802 22.0193C34.7563 22.0352 34.7161 22.06 34.6813 22.0936L34.6488 22.1214C34.5834 22.1868 34.5508 22.2657 34.5508 22.3581C34.5508 22.4506 34.5834 22.5295 34.6488 22.5949C34.7142 22.6602 34.7931 22.6929 34.8855 22.6929C34.978 22.6929 35.0569 22.6602 35.1222 22.5949L35.1501 22.5624C35.166 22.5453 35.1799 22.5267 35.1919 22.5067L35.2058 22.4835C35.2866 22.3554 35.2799 22.232 35.1857 22.1134C35.0915 21.9948 34.9729 21.9603 34.8298 22.01ZM34.4724 22.3953C34.4724 22.5029 34.5105 22.5948 34.5866 22.671C34.6628 22.7471 34.7547 22.7851 34.8623 22.7851C34.97 22.7851 35.0619 22.7471 35.138 22.671C35.2141 22.5948 35.2522 22.5029 35.2522 22.3953C35.2522 22.2876 35.2141 22.1957 35.138 22.1196C35.0619 22.0435 34.97 22.0054 34.8623 22.0054C34.7547 22.0054 34.6628 22.0435 34.5866 22.1196C34.5105 22.1957 34.4724 22.2876 34.4724 22.3953ZM34.7741 21.959L34.6952 21.9683C34.591 21.9822 34.4982 22.0224 34.4167 22.0889L34.2125 22.2514C34.1929 22.2673 34.1744 22.2843 34.1568 22.3025L33.8366 22.632C33.8287 22.6395 33.8209 22.6473 33.8134 22.6552L33.3585 23.1704L32.7459 23.8248L32.0218 24.5489L31.2931 25.2543L30.6387 25.8763L30.0771 26.3915L29.6269 26.7999L29.2602 27.0877L28.9632 27.2919C28.9537 27.2994 28.9444 27.3071 28.9353 27.3151L28.7543 27.4497C28.5065 27.6416 28.4454 27.8812 28.571 28.1684C28.6965 28.4556 28.9139 28.5734 29.2231 28.5218L29.4459 28.4894C29.5269 28.4757 29.6027 28.4478 29.6733 28.4058L30.0028 28.2109C30.0203 28.2008 30.0374 28.19 30.0539 28.1784L30.467 27.8813C30.4813 27.871 30.4952 27.8602 30.5087 27.8489L30.9961 27.4404C31.0023 27.4359 31.0085 27.4312 31.0146 27.4265L31.5855 26.9067C31.5902 26.9021 31.5949 26.8974 31.5995 26.8927L32.2585 26.2662C32.2601 26.2646 32.2616 26.2631 32.2632 26.2615L32.9965 25.5421C32.9996 25.539 33.0027 25.5359 33.0058 25.5328L33.7345 24.7856C33.7408 24.7795 33.747 24.7733 33.753 24.767L34.3703 24.0894C34.3784 24.0788 34.3861 24.0679 34.3935 24.0569L34.8345 23.5138C34.8494 23.496 34.8633 23.4774 34.8762 23.4581L35.1222 23.0683C35.1401 23.0401 35.1555 23.0107 35.1686 22.9801L35.2754 22.7434C35.3144 22.6527 35.3283 22.5583 35.3172 22.4603L35.3079 22.3814C35.2934 22.2489 35.2338 22.1413 35.1293 22.0586C35.0248 21.9759 34.9064 21.9427 34.7741 21.959ZM29.5665 28.0206L29.599 27.8813L29.6965 27.6307L29.9982 27.3986C30.1003 27.3213 30.1127 27.2316 30.0353 27.1294C29.958 27.0273 29.8682 27.015 29.7661 27.0923L29.4598 27.329L29.1628 27.3754C29.1581 27.3769 29.1534 27.3784 29.1488 27.3801L28.9771 27.4126C28.8531 27.4365 28.7522 27.4982 28.6744 27.5978C28.5966 27.6973 28.5611 27.8101 28.5678 27.9362C28.5746 28.0623 28.6219 28.1707 28.7098 28.2614C28.7977 28.3521 28.9046 28.4028 29.0305 28.4134C29.1563 28.424 29.2702 28.392 29.3721 28.3174C29.4739 28.2427 29.5388 28.1438 29.5665 28.0206Z" fill="black"/>
<path d="M7.71454 18.8242L7.75632 18.7639L7.89556 18.5875C7.89883 18.5814 7.90193 18.5752 7.90484 18.5689L8.15547 18.2208C8.16228 18.2088 8.16846 18.1964 8.17404 18.1837L8.50357 17.6082C8.50681 17.6021 8.5099 17.5959 8.51286 17.5896L8.93986 16.7495L9.47825 15.6774L10.1234 14.4382L10.8196 13.1664L11.4833 11.9736C11.4849 11.9721 11.4864 11.9705 11.488 11.969L12.0403 10.9479L12.4487 10.1728L12.7318 9.64829L12.8896 9.36981L12.9825 9.2677C12.9328 9.09192 12.8188 8.98411 12.6405 8.94427C12.4623 8.90442 12.3132 8.95344 12.1934 9.09133L12.2074 9.14238C12.2638 9.0306 12.2746 8.91457 12.2399 8.79428L12.1285 9.02171L11.8546 9.53226L11.3766 10.3909C11.3734 10.397 11.3703 10.4032 11.3673 10.4095L10.7778 11.5791C10.7746 11.5852 10.7715 11.5914 10.7685 11.5977L10.1512 12.9576L9.5061 14.3221C9.50609 14.3237 9.50609 14.3252 9.5061 14.3268L8.91665 15.5799L8.43395 16.5964L8.08121 17.3297L7.85378 17.7706L7.74239 17.9609C7.68844 18.0622 7.67671 18.1681 7.70719 18.2787C7.73767 18.3892 7.80201 18.4742 7.90021 18.5335C7.99841 18.5928 8.10354 18.6101 8.21559 18.5856C8.32765 18.5611 8.41591 18.5014 8.48037 18.4065L8.60104 18.2069C8.6077 18.1964 8.61389 18.1855 8.61961 18.1744L8.85167 17.7196C8.85326 17.7165 8.8548 17.7134 8.85631 17.7103L9.2137 16.9677L9.6964 15.9466C9.69641 15.945 9.69641 15.9435 9.6964 15.9419L10.2812 14.6981L10.9588 13.3614L11.7015 12.0804C11.7015 12.0788 11.7015 12.0773 11.7015 12.0757L12.3512 10.9339C12.3545 10.9278 12.3575 10.9216 12.3605 10.9154L12.8107 10.0382C12.8158 10.026 12.8205 10.0136 12.8247 10.001L13.0567 9.45799C13.0714 9.42359 13.0823 9.38801 13.0892 9.35124L13.1356 9.09597C13.1775 8.87551 13.1017 8.70842 12.9082 8.59471L12.8664 8.5715C12.6394 8.43819 12.4429 8.47378 12.277 8.67825L12.1656 8.82213C12.1502 8.83963 12.1363 8.85819 12.1238 8.87783L11.9382 9.19808C11.935 9.20266 11.9319 9.20731 11.9289 9.212L11.6504 9.74576C11.6488 9.74729 11.6473 9.74884 11.6458 9.7504L11.242 10.5209L10.6989 11.542L10.0491 12.7441L9.35294 14.0251C9.35293 14.0266 9.35293 14.0282 9.35294 14.0297L8.69387 15.2643C8.69231 15.2658 8.69076 15.2674 8.68923 15.269L8.13227 16.3365C8.13068 16.3395 8.12914 16.3426 8.12762 16.3457L7.71454 17.1858C7.71136 17.1904 7.70827 17.1951 7.70526 17.1998L7.43142 17.8078C7.42632 17.8184 7.42168 17.8292 7.4175 17.8403L7.27362 18.2441C7.27181 18.2517 7.27027 18.2595 7.26898 18.2673L7.204 18.4808L7.18079 18.555C7.12376 18.721 7.17357 18.8434 7.33024 18.9224C7.48691 19.0015 7.61501 18.9687 7.71454 18.8242ZM7.73775 18.1744C7.73775 18.2693 7.77128 18.3502 7.83835 18.4173C7.90541 18.4844 7.98637 18.5179 8.08121 18.5179C8.17605 18.5179 8.25701 18.4844 8.32407 18.4173C8.39114 18.3502 8.42467 18.2693 8.42467 18.1744C8.42467 18.0796 8.39114 17.9986 8.32407 17.9316C8.25701 17.8645 8.17605 17.831 8.08121 17.831C7.98637 17.831 7.90541 17.8645 7.83835 17.9316C7.77128 17.9986 7.73775 18.0796 7.73775 18.1744ZM8.29471 18.1002L8.34113 17.9377C8.37826 17.8078 8.33184 17.7242 8.20189 17.6871C8.07193 17.65 7.98838 17.6964 7.95125 17.8263L7.90484 17.9888C7.86771 18.1187 7.91412 18.2023 8.04408 18.2394C8.17404 18.2765 8.25758 18.2301 8.29471 18.1002Z" fill="black"/>
<path d="M12.4905 8.53901C12.4905 8.69682 12.5694 8.77572 12.7272 8.77572C12.885 8.77572 12.9639 8.69682 12.9639 8.53901C12.9639 8.38121 12.885 8.3023 12.7272 8.3023C12.5694 8.3023 12.4905 8.38121 12.4905 8.53901ZM12.4301 8.53901C12.4301 8.73704 12.5292 8.83606 12.7272 8.83606C12.9252 8.83606 13.0242 8.73704 13.0242 8.53901C13.0242 8.34098 12.9252 8.24197 12.7272 8.24197C12.5292 8.24197 12.4301 8.34098 12.4301 8.53901ZM12.3466 8.54365C12.3466 8.64619 12.3829 8.73371 12.4554 8.80621C12.5279 8.87871 12.6154 8.91496 12.7179 8.91496C12.8204 8.91496 12.908 8.87871 12.9805 8.80621C13.053 8.73371 13.0892 8.64619 13.0892 8.54365C13.0892 8.44112 13.053 8.3536 12.9805 8.2811C12.908 8.2086 12.8204 8.17235 12.7179 8.17235C12.6154 8.17235 12.5279 8.2086 12.4554 8.2811C12.3829 8.3536 12.3466 8.44112 12.3466 8.54365ZM12.3791 8.82213L12.4209 8.87783C12.5031 8.98497 12.6114 9.04531 12.7458 9.05884L13.0103 9.08669C13.0289 9.08774 13.0474 9.08774 13.066 9.08669L13.5766 9.08205C13.5843 9.08222 13.592 9.08222 13.5998 9.08205L14.3841 9.04028L15.4099 8.9985L16.6213 8.96602L17.9162 8.93817L19.2251 8.9196L20.5339 8.90568L21.8567 8.89175C21.866 8.89202 21.8753 8.89202 21.8846 8.89175L23.1981 8.80357L24.493 8.78964L25.6905 8.785C25.6966 8.78524 25.7028 8.78524 25.709 8.785L26.6512 8.72002L27.3196 8.72467C27.4341 8.72467 27.4913 8.66742 27.4913 8.55294C27.4913 8.43845 27.4341 8.38121 27.3196 8.38121L26.6559 8.37657L25.7137 8.29302C25.7106 8.29296 25.7075 8.29296 25.7044 8.29302L24.5116 8.23268L23.2213 8.12593L21.9217 7.931C21.9124 7.92918 21.9032 7.92763 21.8938 7.92636L20.5757 7.8196C20.5664 7.81937 20.5571 7.81937 20.5478 7.8196L19.2436 7.76855C19.2359 7.76839 19.2282 7.76839 19.2204 7.76855H17.9069C17.9007 7.76845 17.8945 7.76845 17.8884 7.76855L16.5888 7.81496C16.5826 7.81486 16.5764 7.81486 16.5702 7.81496L15.3542 7.89387C15.3526 7.89386 15.3511 7.89386 15.3495 7.89387L14.3145 7.97277C14.3114 7.97274 14.3083 7.97274 14.3052 7.97277L13.5209 8.05167L13.0196 8.10273L12.7597 8.12129C12.7346 8.12393 12.7098 8.12857 12.6854 8.13522L12.6158 8.14914C12.5453 8.16541 12.4831 8.19765 12.4292 8.24587C12.3753 8.29409 12.3364 8.35231 12.3124 8.42054C12.2884 8.48877 12.2823 8.55856 12.2941 8.62991C12.306 8.70126 12.3343 8.76533 12.3791 8.82213Z" fill="black"/>
<path d="M26.2011 8.61792C26.2011 8.79119 26.2877 8.87783 26.461 8.87783C26.6343 8.87783 26.7209 8.79119 26.7209 8.61792C26.7209 8.44464 26.6343 8.358 26.461 8.358C26.2877 8.358 26.2011 8.44464 26.2011 8.61792ZM26.1454 8.60863C26.1678 8.79067 26.2706 8.88169 26.454 8.88169C26.6374 8.88169 26.7403 8.79067 26.7627 8.60863C26.7403 8.4266 26.6374 8.33558 26.454 8.33558C26.2706 8.33558 26.1678 8.4266 26.1454 8.60863ZM26.0526 8.59471C26.0526 8.70237 26.0906 8.79426 26.1668 8.87039C26.2429 8.94652 26.3348 8.98458 26.4424 8.98458C26.5501 8.98458 26.642 8.94652 26.7181 8.87039C26.7942 8.79426 26.8323 8.70237 26.8323 8.59471C26.8323 8.48705 26.7942 8.39516 26.7181 8.31903C26.642 8.2429 26.5501 8.20484 26.4424 8.20484C26.3348 8.20484 26.2429 8.2429 26.1668 8.31903C26.0906 8.39516 26.0526 8.48705 26.0526 8.59471ZM25.9922 8.58079C25.9922 8.70639 26.0366 8.8136 26.1254 8.90241C26.2143 8.99123 26.3215 9.03564 26.4471 9.03564C26.5727 9.03564 26.6799 8.99123 26.7687 8.90241C26.8575 8.8136 26.9019 8.70639 26.9019 8.58079C26.9019 8.45518 26.8575 8.34797 26.7687 8.25916C26.6799 8.17034 26.5727 8.12593 26.4471 8.12593C26.3215 8.12593 26.2143 8.17034 26.1254 8.25916C26.0366 8.34797 25.9922 8.45518 25.9922 8.58079ZM25.9876 8.39977L25.9783 8.42298C25.909 8.59293 25.9183 8.75847 26.0062 8.9196L26.0943 9.08669C26.1081 9.11254 26.1235 9.13729 26.1407 9.16095L26.3589 9.45336C26.3664 9.46286 26.3741 9.47214 26.3821 9.48121L26.7488 9.91749C26.7533 9.92376 26.7579 9.92995 26.7627 9.93606L27.2732 10.5162C27.2763 10.5193 27.2794 10.5224 27.2825 10.5255L27.9369 11.231L28.6331 12.0293L29.3015 12.8555L29.9002 13.6677L30.3969 14.3871C30.4014 14.3934 30.406 14.3996 30.4108 14.4057L30.8285 14.9626L31.107 15.3339L31.2091 15.5939L31.2555 15.7331C31.311 15.8766 31.4142 15.9331 31.565 15.9027C31.7159 15.8723 31.7891 15.7801 31.7846 15.6263L31.7707 15.4639C31.7696 15.4545 31.7681 15.4453 31.7661 15.436L31.6964 15.1251L31.6361 14.6377C31.6333 14.6142 31.6286 14.591 31.6222 14.5681L31.4319 13.8998C31.4215 13.8628 31.4076 13.8272 31.3901 13.793L30.991 13.004C30.9783 12.9815 30.9644 12.9598 30.9492 12.939L30.3783 12.085C30.3681 12.0691 30.3573 12.0536 30.3458 12.0386L29.6682 11.1846C29.6592 11.1735 29.6499 11.1626 29.6403 11.1521L28.9209 10.3491C28.9179 10.3445 28.9148 10.3398 28.9116 10.3352L28.2433 9.63437L27.7281 9.06813L27.3521 8.65041C27.3506 8.6473 27.3491 8.6442 27.3475 8.64112L27.1015 8.37193C27.0787 8.34669 27.0539 8.32348 27.0272 8.30231L26.8741 8.18163C26.6974 8.04438 26.5056 8.01808 26.2986 8.10273L26.2753 8.11201C26.1382 8.16669 26.0423 8.26261 25.9876 8.39977ZM31.6082 15.5474L31.585 15.5335C31.4816 15.4757 31.3987 15.4971 31.3365 15.598C31.2742 15.6988 31.2921 15.7825 31.3901 15.8491L31.4133 15.863C31.5168 15.9209 31.5996 15.8994 31.6619 15.7986C31.7242 15.6977 31.7063 15.614 31.6082 15.5474Z" fill="black"/>
<path d="M20.5247 20.1934C20.5247 20.3914 20.6237 20.4905 20.8218 20.4905C21.0198 20.4905 21.1188 20.3914 21.1188 20.1934C21.1188 19.9954 21.0198 19.8964 20.8218 19.8964C20.6237 19.8964 20.5247 19.9954 20.5247 20.1934ZM20.5062 20.1934C20.5062 20.4007 20.6098 20.5044 20.8171 20.5044C21.0244 20.5044 21.1281 20.4007 21.1281 20.1934C21.1281 19.9861 21.0244 19.8824 20.8171 19.8824C20.6098 19.8824 20.5062 19.9861 20.5062 20.1934ZM21.1327 19.9567L21.1095 19.9196C20.9895 19.7416 20.824 19.672 20.6129 19.7107L20.4922 19.7339C20.4059 19.7499 20.3285 19.7855 20.2602 19.8407L20.0977 19.9706C20.05 20.0088 20.0098 20.0536 19.977 20.1052L19.8285 20.3466C19.807 20.3833 19.79 20.422 19.7775 20.4626L19.6754 20.7597C19.667 20.787 19.6608 20.8149 19.6568 20.8432L19.6104 21.1356C19.5981 21.2086 19.5997 21.2813 19.615 21.3537L19.6661 21.609C19.6899 21.7169 19.7394 21.8113 19.8146 21.8921L19.977 22.0732C20.0479 22.1505 20.133 22.2062 20.2323 22.2402L20.4551 22.3145C20.5534 22.3486 20.6539 22.3579 20.7568 22.3423L20.9889 22.3052C21.1196 22.2855 21.2341 22.2314 21.3323 22.1428L21.518 21.971C21.6081 21.8891 21.6715 21.7901 21.7083 21.674L21.7918 21.3955C21.8182 21.314 21.829 21.2304 21.8243 21.1449L21.8011 20.8339C21.7976 20.7688 21.7852 20.7053 21.764 20.6436L21.6572 20.3466C21.6319 20.276 21.5963 20.211 21.5505 20.1516L21.3741 19.9242C21.2751 19.7983 21.1483 19.7148 20.9935 19.6736L20.7707 19.6132C20.5528 19.5542 20.3517 19.5897 20.1673 19.72L19.9446 19.8778C19.8491 19.9462 19.7748 20.0329 19.7218 20.1377L19.5547 20.458C19.5157 20.534 19.4909 20.6145 19.4804 20.6993L19.434 21.0892C19.4244 21.167 19.4275 21.2444 19.4433 21.3213L19.5175 21.674C19.5386 21.7813 19.582 21.8788 19.6475 21.9664L19.8285 22.2031C19.935 22.3437 20.0742 22.4334 20.2462 22.4723L20.5015 22.528C20.6583 22.563 20.8099 22.5475 20.9564 22.4816L21.2302 22.3609C21.3253 22.3184 21.4073 22.2581 21.4762 22.1799L21.7222 21.8968C21.7754 21.8357 21.8171 21.7676 21.8475 21.6926L22.0099 21.3027C22.037 21.2371 22.054 21.169 22.061 21.0985L22.0981 20.6947C22.1063 20.6016 22.097 20.5103 22.0703 20.4208L21.9728 20.082C21.9294 19.9354 21.849 19.8132 21.7315 19.7154L21.5087 19.5251C21.377 19.415 21.2253 19.3562 21.0538 19.3487L20.7939 19.3348C20.6248 19.3268 20.4701 19.3701 20.3298 19.4647L20.0838 19.6272C19.9827 19.6947 19.9023 19.7813 19.8424 19.8871L19.6614 20.2073C19.6261 20.2687 19.5998 20.3336 19.5825 20.4023L19.4804 20.8061C19.4628 20.8809 19.4566 20.9567 19.4619 21.0335L19.4804 21.4373C19.4867 21.5278 19.5083 21.6144 19.5454 21.6972L19.6939 22.0407C19.7494 22.171 19.8345 22.2778 19.9492 22.3609L20.2045 22.5419C20.3494 22.6438 20.5103 22.6902 20.6872 22.6812L20.9796 22.6672C21.1254 22.6602 21.2584 22.6153 21.3787 22.5326L21.6479 22.347C21.7476 22.2774 21.8265 22.1892 21.8846 22.0824L22.0517 21.7807C22.1135 21.668 22.146 21.5473 22.1492 21.4187L22.1585 21.0845C22.1609 20.9503 22.1315 20.8234 22.0703 20.704L21.931 20.4255C21.8554 20.2762 21.7441 20.1617 21.5969 20.082L21.3602 19.9521C21.1482 19.8358 20.9285 19.8188 20.7011 19.901L20.469 19.9845C20.1358 20.1064 19.9734 20.3447 19.9817 20.6993V20.8432C19.9873 21.0926 20.108 21.2582 20.3437 21.3398L20.4783 21.3862C20.5265 21.4037 20.576 21.4161 20.6268 21.4234L20.7197 21.4373L20.6129 21.377L20.5572 21.2748V21.2516L20.5711 21.2191L20.6686 21.1449L20.8682 21.1356L21.0074 21.2284L21.0028 21.2238L20.9981 21.066L21.0445 20.8757L21.0863 20.8014L20.9842 20.871L20.7429 20.8664L20.6268 20.7736L20.6222 20.7643L20.6175 20.8757L20.5526 21.0381L20.4922 21.1078L20.5851 21.066L20.5572 21.0613C20.6644 21.2001 20.8037 21.2883 20.9749 21.3259L20.896 21.2191L20.8775 21.1495L20.9007 21.0056L20.9285 20.9499L21.0028 20.8989C20.7927 20.8489 20.5993 20.8861 20.4226 21.0103L20.3808 20.9685L20.4226 21.0613L20.4319 21.1542L20.4273 21.1727L20.4829 21.1078L20.6036 21.0613L20.7197 21.0845L20.7754 21.131L20.7707 21.1217V21.0103L20.8171 20.8432L20.9007 20.69L20.9564 20.6158L20.9981 20.5833C21.0572 20.5381 21.1036 20.4824 21.1374 20.4162L21.1559 20.3791C21.2297 20.2338 21.2219 20.093 21.1327 19.9567ZM20.1813 20.9639L20.1163 21.1588C20.0699 21.3011 20.1178 21.3955 20.2602 21.4419C20.4025 21.4883 20.4969 21.4404 20.5433 21.298L20.6083 21.1031C20.6547 20.9608 20.6067 20.8664 20.4644 20.82C20.322 20.7736 20.2277 20.8215 20.1813 20.9639Z" fill="black"/>
<path d="M20.9188 13.4444C20.9191 13.6329 21.0135 13.7272 21.202 13.7272C21.3904 13.7272 21.4848 13.6329 21.4851 13.4444C21.4848 13.256 21.3904 13.1617 21.202 13.1617C21.0135 13.1617 20.9191 13.256 20.9188 13.4444ZM20.8724 13.4398C20.8724 13.644 20.9745 13.7461 21.1787 13.7461C21.383 13.7461 21.4851 13.644 21.4851 13.4398C21.4851 13.2356 21.383 13.1335 21.1787 13.1335C20.9745 13.1335 20.8724 13.2356 20.8724 13.4398ZM21.369 13.1428L21.2716 13.0499C21.2101 12.9935 21.1389 12.9548 21.0581 12.9339L20.7982 12.8596C20.7768 12.8537 20.7551 12.849 20.7332 12.8457L20.3944 12.7993C20.3866 12.7991 20.3789 12.7991 20.3712 12.7993L19.9674 12.7529C19.9627 12.7528 19.9581 12.7528 19.9534 12.7529L19.4939 12.7111C19.4707 12.7098 19.4475 12.7098 19.4243 12.7111L18.9091 12.7204C18.8764 12.7211 18.8439 12.7242 18.8117 12.7297L18.2176 12.8318C18.1765 12.8374 18.1363 12.8467 18.0969 12.8596L17.4239 13.1056C17.387 13.1181 17.3514 13.1336 17.3171 13.152L16.5838 13.5698C16.5529 13.5876 16.5235 13.6077 16.4956 13.6301L15.7484 14.2242C15.7237 14.2443 15.7005 14.2659 15.6788 14.2892L14.9361 15.055C14.9144 15.0784 14.8943 15.1032 14.8758 15.1293L14.175 16.0714C14.1542 16.1011 14.1356 16.132 14.1193 16.1643L13.5112 17.2875C13.4953 17.3175 13.4814 17.3484 13.4695 17.3803L12.9961 18.6288C12.982 18.6682 12.9712 18.7084 12.9636 18.7495L12.6804 20.0908C12.6717 20.1368 12.6671 20.1833 12.6665 20.2301L12.6294 21.6178C12.6282 21.6661 12.6313 21.714 12.6387 21.7617L12.8429 23.1402C12.8493 23.1796 12.8586 23.2182 12.8707 23.2562L13.2745 24.5883C13.2873 24.6266 13.3028 24.6637 13.321 24.6997L13.915 25.9575C13.9361 26.0014 13.9609 26.0432 13.9893 26.0828L14.7737 27.2014C14.8114 27.2544 14.8548 27.3023 14.9037 27.3453L15.9062 28.2318C15.9716 28.2896 16.0443 28.336 16.1243 28.371L17.3821 28.9233C17.4504 28.9537 17.5216 28.9738 17.5956 28.9837L19.0112 29.1739C19.0891 29.1843 19.1665 29.1812 19.2433 29.1647L20.6264 28.8769C20.6438 28.8734 20.6608 28.8688 20.6775 28.863L21.8564 28.4545L22.8079 28.2039C22.9159 28.1759 22.956 28.1078 22.9282 27.9998C22.9004 27.8917 22.8324 27.8515 22.7243 27.879L21.7914 28.1296L20.5893 28.0972L19.2619 27.8372L17.9901 27.4799L16.9412 26.9136L16.0918 26.1571L15.391 25.1731L14.8387 24.036L14.4442 22.8292L14.2539 21.5807L14.2631 20.3276L14.4813 19.1115L14.8944 17.9605L15.4374 16.9022L16.0361 16.0065L16.672 15.2871L17.3311 14.7533L17.9669 14.3774L18.5332 14.1499L19.0484 14.0293L19.4986 13.9643L19.9163 13.9457H20.3062C20.3093 13.9457 20.3124 13.9457 20.3155 13.9457H20.6589C20.6745 13.9448 20.6899 13.9433 20.7053 13.9411L20.9745 13.9179C21.0589 13.9096 21.1363 13.8818 21.2066 13.8343L21.3226 13.7554C21.4281 13.6851 21.4856 13.5868 21.4952 13.4604C21.5048 13.334 21.4627 13.2281 21.369 13.1428Z" fill="black"/>
<path d="M23.4437 12.8829L23.4391 12.8782C23.3858 12.8531 23.3301 12.8454 23.272 12.855L23.2581 12.8597L23.2117 12.8643C23.1829 12.8662 23.155 12.8724 23.1281 12.8829L23.0539 12.9154C22.9948 12.9408 22.9514 12.9825 22.9239 13.0407L22.9054 13.0825C22.9635 13.071 23.0053 13.0385 23.0307 12.985L22.9518 12.9989C22.8343 13.0206 22.7863 13.0902 22.808 13.2078C22.8296 13.3253 22.8992 13.3732 23.0167 13.3517L23.0956 13.3377C23.0527 13.2792 22.9955 13.256 22.9239 13.2681L22.9518 13.3099C22.9925 13.361 23.0451 13.392 23.1096 13.4027L23.1885 13.4213C23.2117 13.4241 23.2349 13.4241 23.2581 13.4213H23.3138C23.3295 13.4195 23.345 13.4164 23.3602 13.412L23.3834 13.4073C23.4026 13.4031 23.4212 13.3969 23.4391 13.3888L23.4437 13.3841C23.5485 13.3334 23.6008 13.2499 23.6008 13.1335C23.6008 13.0171 23.5485 12.9336 23.4437 12.8829Z" fill="black"/>
<path d="M22.6082 12.9989L22.5943 12.9896C22.45 12.8861 22.3185 12.9004 22.2 13.0327C22.0814 13.1649 22.0814 13.2971 22.2 13.4293C22.3185 13.5615 22.45 13.5759 22.5943 13.4723L22.6082 13.463C22.6888 13.4067 22.7291 13.3293 22.7291 13.231C22.7291 13.1326 22.6888 13.0553 22.6082 12.9989ZM22.0187 13.2403C22.0187 13.3377 22.0532 13.4208 22.122 13.4897C22.1909 13.5586 22.2741 13.593 22.3715 13.593C22.4689 13.593 22.552 13.5586 22.6209 13.4897C22.6898 13.4208 22.7242 13.3377 22.7242 13.2403C22.7242 13.1429 22.6898 13.0597 22.6209 12.9908C22.552 12.922 22.4689 12.8875 22.3715 12.8875C22.2741 12.8875 22.1909 12.922 22.122 12.9908C22.0532 13.0597 22.0187 13.1429 22.0187 13.2403ZM22.4875 12.8736L22.4411 12.855C22.3278 12.7999 22.2112 12.7917 22.0914 12.8305C21.9715 12.8694 21.8818 12.9443 21.8224 13.0555C21.763 13.1666 21.7504 13.2828 21.7847 13.404C21.819 13.5253 21.8906 13.6177 21.9994 13.6812C22.1082 13.7448 22.2238 13.7617 22.3463 13.7321C22.4687 13.7024 22.5638 13.6344 22.6314 13.528L22.6592 13.4863C22.7276 13.379 22.7446 13.2641 22.7103 13.1416C22.6759 13.019 22.6017 12.9297 22.4875 12.8736ZM21.6846 13.2913C21.6846 13.4349 21.7353 13.5574 21.8368 13.6589C21.9383 13.7604 22.0608 13.8111 22.2044 13.8111C22.3479 13.8111 22.4705 13.7604 22.572 13.6589C22.6735 13.5574 22.7242 13.4349 22.7242 13.2913C22.7242 13.1478 22.6735 13.0252 22.572 12.9237C22.4705 12.8222 22.3479 12.7715 22.2044 12.7715C22.0608 12.7715 21.9383 12.8222 21.8368 12.9237C21.7353 13.0252 21.6846 13.1478 21.6846 13.2913ZM22.1394 13.8483L22.2322 13.8622C22.2675 13.8685 22.3031 13.8716 22.339 13.8715L22.5246 13.8668C22.537 13.8672 22.5494 13.8672 22.5618 13.8668L22.8727 13.8436L23.2348 13.8158L23.62 13.8529L24.0563 13.969L24.5761 14.1964L25.1702 14.5166L25.7829 14.8833L26.3073 15.2592L26.7065 15.6166L26.9803 15.9926L27.1892 16.4521L27.347 17.0183L27.4445 17.7052L27.4816 18.5128V19.4179L27.4677 20.3415L27.4027 21.2466L27.2634 22.0913L27.0267 22.8571L26.6879 23.5348L26.2702 24.1103L25.7875 24.6023L25.2213 25.0664L24.5715 25.5166L23.8567 25.9436L23.1002 26.3335L22.3993 26.6816C22.3113 26.725 22.237 26.7853 22.1765 26.8626L21.912 27.2014L21.4803 27.2339C21.3597 27.2432 21.304 27.3082 21.3133 27.4288C21.3225 27.5495 21.3875 27.6052 21.5082 27.5959L21.9584 27.5588L22.3343 27.8002C22.4607 27.8806 22.5984 27.9131 22.7474 27.8976L23.5365 27.8187C23.6016 27.8127 23.665 27.7988 23.7267 27.7769L24.5529 27.4753C24.5946 27.4599 24.6348 27.4413 24.6736 27.4196L25.4487 26.9926C25.4742 26.9784 25.499 26.9629 25.5229 26.9461L26.2284 26.4634C26.2492 26.4489 26.2693 26.4334 26.2888 26.417L26.9153 25.9018C26.9398 25.8815 26.963 25.8598 26.985 25.8369L27.5419 25.266C27.5726 25.2326 27.6004 25.197 27.6255 25.1592L28.1128 24.4677C28.1414 24.4265 28.1662 24.3832 28.1871 24.3377L28.5677 23.5255C28.5867 23.4834 28.6022 23.4401 28.6141 23.3955L28.8601 22.4997C28.8684 22.4661 28.8746 22.4321 28.8786 22.3976L29.0179 21.4554C29.0203 21.4338 29.0218 21.4122 29.0225 21.3905L29.0829 20.4297C29.0831 20.4189 29.0831 20.408 29.0829 20.3972L29.1061 19.4457C29.1062 19.4365 29.1062 19.4272 29.1061 19.4179L29.0968 18.485C29.0959 18.4664 29.0943 18.4478 29.0921 18.4293L29.0225 17.566C29.0205 17.5427 29.0174 17.5194 29.0132 17.4964L28.8833 16.7259C28.8771 16.6976 28.8694 16.6698 28.8601 16.6424L28.6698 15.974C28.6577 15.9325 28.6422 15.8923 28.6234 15.8533L28.3449 15.2685C28.3229 15.2226 28.2966 15.1793 28.266 15.1386L27.89 14.6419C27.8597 14.6014 27.8256 14.5643 27.7879 14.5306L27.2959 14.0896C27.2752 14.0714 27.2535 14.0544 27.231 14.0386L26.6415 13.6209C26.6264 13.6095 26.611 13.5986 26.5951 13.5884L25.9453 13.1985C25.9331 13.192 25.9207 13.1858 25.9082 13.1799L25.2677 12.8365C25.2464 12.8262 25.2248 12.8169 25.2027 12.8086L24.5947 12.558C24.5498 12.538 24.5034 12.5225 24.4554 12.5116L23.8938 12.4002C23.8356 12.3884 23.7768 12.3838 23.7175 12.3863L23.2116 12.4095C23.1741 12.4111 23.1369 12.4158 23.1002 12.4234L22.6824 12.5116C22.6589 12.5165 22.6357 12.5227 22.6128 12.5301L22.3204 12.6276C22.2968 12.634 22.2736 12.6417 22.2508 12.6508L22.0837 12.7297C22.063 12.7394 22.0429 12.7502 22.0234 12.7622L21.9445 12.8086C21.7166 12.9416 21.627 13.1378 21.6756 13.3971C21.7242 13.6565 21.8788 13.8069 22.1394 13.8483Z" fill="black"/>
<path d="M20.7655 28.3524C20.7655 28.5164 20.8475 28.5984 21.0115 28.5984C21.1755 28.5984 21.2575 28.5164 21.2575 28.3524C21.2575 28.1884 21.1755 28.1064 21.0115 28.1064C20.8475 28.1064 20.7655 28.1884 20.7655 28.3524ZM20.668 28.3524C20.668 28.4473 20.7016 28.5282 20.7686 28.5953C20.8357 28.6623 20.9167 28.6959 21.0115 28.6959C21.1063 28.6959 21.1873 28.6623 21.2544 28.5953C21.3214 28.5282 21.355 28.4473 21.355 28.3524C21.355 28.2576 21.3214 28.1766 21.2544 28.1095C21.1873 28.0425 21.1063 28.0089 21.0115 28.0089C20.9167 28.0089 20.8357 28.0425 20.7686 28.1095C20.7016 28.1766 20.668 28.2576 20.668 28.3524ZM20.5427 28.357C20.5427 28.4827 20.5871 28.5899 20.676 28.6787C20.7648 28.7675 20.872 28.8119 20.9976 28.8119C21.1232 28.8119 21.2304 28.7675 21.3192 28.6787C21.408 28.5899 21.4524 28.4827 21.4524 28.357C21.4524 28.2314 21.408 28.1242 21.3192 28.0354C21.2304 27.9466 21.1232 27.9022 20.9976 27.9022C20.872 27.9022 20.7648 27.9466 20.676 28.0354C20.5871 28.1242 20.5427 28.2314 20.5427 28.357ZM20.4685 28.371C20.4686 28.5119 20.5185 28.6321 20.6182 28.7317C20.7178 28.8312 20.8381 28.881 20.979 28.881C21.1199 28.881 21.2402 28.8312 21.3398 28.7317C21.4395 28.6321 21.4894 28.5119 21.4896 28.371C21.4894 28.2301 21.4395 28.1099 21.3398 28.0103C21.2402 27.9107 21.1199 27.8609 20.979 27.8609C20.8381 27.8609 20.7178 27.9107 20.6182 28.0103C20.5185 28.1099 20.4686 28.2301 20.4685 28.371ZM20.6123 28.8165L20.6541 28.849C20.7518 28.9329 20.8648 28.9808 20.9929 28.9929L21.1786 29.0115C21.2126 29.0142 21.2467 29.0142 21.2807 29.0115L21.6056 28.9929C21.6322 28.9899 21.6585 28.9852 21.6845 28.979L22.1533 28.8954C22.172 28.8916 22.1906 28.8869 22.209 28.8815L22.8077 28.7144C22.8297 28.7093 22.8513 28.7031 22.8727 28.6959L23.5874 28.4174C23.6145 28.4067 23.6408 28.3943 23.6663 28.3803L24.4739 27.944C24.5013 27.9303 24.5276 27.9148 24.5528 27.8976L25.3697 27.2988C25.3841 27.2886 25.398 27.2777 25.4115 27.2663L26.1587 26.6212C26.1856 26.5985 26.2104 26.5738 26.233 26.5469L26.776 25.8925C26.8131 25.8465 26.8409 25.7954 26.8596 25.7393L27.0406 25.2195L27.3237 24.9178C27.4135 24.8219 27.4104 24.7291 27.3144 24.6393C27.2185 24.5496 27.1257 24.5527 27.036 24.6486L26.7621 24.9457L26.2469 25.1081C26.2023 25.1223 26.1605 25.1424 26.1216 25.1684L25.4115 25.6372C25.402 25.6447 25.3927 25.6524 25.3836 25.6604L24.6085 26.2406L23.8102 26.7697L23.0583 27.1596L22.4085 27.4149L21.8562 27.568L21.4153 27.6748L21.0997 27.7444C21.0857 27.747 21.0717 27.7501 21.0579 27.7537L20.8769 27.8094C20.7941 27.8338 20.7198 27.874 20.6541 27.93L20.6123 27.9625C20.4811 28.0746 20.4155 28.217 20.4155 28.3895C20.4155 28.5621 20.4811 28.7044 20.6123 28.8165Z" fill="black"/>
<path d="M12.1027 8.42664L12.1631 8.45448C12.19 8.465 12.2178 8.47119 12.2466 8.47305L12.3441 8.48233C12.3549 8.48292 12.3658 8.48292 12.3766 8.48233L12.5344 8.47769C12.5421 8.47795 12.5499 8.47795 12.5576 8.47769L12.7989 8.45448C12.8193 8.45286 12.8394 8.44977 12.8593 8.4452L13.2352 8.35238C13.2557 8.3475 13.2759 8.34132 13.2956 8.33381L13.8293 8.12495L14.5812 7.83254L15.5466 7.51693L16.6373 7.23845L17.7605 7.02959C17.7621 7.0296 17.7636 7.0296 17.7652 7.02959L18.8327 6.82073L19.8167 6.74183L20.6799 6.7604L21.3715 6.79753L21.8635 6.83466C21.865 6.83467 21.8666 6.83467 21.8681 6.83466L22.1652 6.85322C22.1667 6.85324 22.1683 6.85324 22.1698 6.85322L22.2951 6.85786C22.4498 6.86405 22.5303 6.78979 22.5365 6.63508C22.5427 6.48037 22.4684 6.39992 22.3137 6.39373L22.193 6.38909L21.896 6.37052L21.404 6.33339C21.4024 6.33338 21.4009 6.33338 21.3994 6.33339L20.7031 6.29162L19.8213 6.24057L18.8095 6.17095C18.8079 6.17093 18.8064 6.17093 18.8048 6.17095L17.7002 6.11525C17.6724 6.11271 17.6445 6.11271 17.6167 6.11525L16.4656 6.27305C16.4469 6.27508 16.4283 6.27818 16.4099 6.28234L15.2867 6.56546C15.2773 6.56828 15.268 6.57137 15.2589 6.57474L14.2656 6.88571C14.2562 6.88853 14.247 6.89163 14.2378 6.89499L13.4719 7.1874C13.4594 7.19155 13.447 7.19619 13.4348 7.20132L12.915 7.44731C12.8925 7.45651 12.8708 7.46734 12.85 7.4798L12.5297 7.69795C12.5219 7.70234 12.5141 7.70698 12.5065 7.71187L12.3255 7.85111L12.2373 7.90681L12.1724 7.93465C12.1693 7.9346 12.1662 7.9346 12.1631 7.93465L12.1027 7.9625C11.9988 8.00492 11.9468 8.08227 11.9468 8.19457C11.9468 8.30687 11.9988 8.38422 12.1027 8.42664ZM22.3276 6.45871L22.2719 6.45407C22.1606 6.44487 22.1003 6.49593 22.091 6.60724C22.0817 6.71856 22.1328 6.77889 22.2441 6.78824L22.2998 6.79288C22.4111 6.80213 22.4714 6.75107 22.4807 6.63972C22.49 6.52836 22.439 6.46803 22.3276 6.45871Z" fill="black"/>
<path d="M16.0525 7.41482L16.0293 7.40554C16.0614 7.44962 16.1031 7.48056 16.1546 7.49836L16.1175 7.45195C16.1091 7.43893 16.0998 7.42655 16.0897 7.41482L16.02 7.3452C15.9778 7.3006 15.9283 7.26656 15.8715 7.24309L15.7601 7.19668C15.6837 7.16469 15.6042 7.15298 15.5217 7.16153C15.4393 7.17009 15.3639 7.19787 15.2957 7.24488C15.2274 7.29189 15.1746 7.35238 15.1372 7.42635C15.0998 7.50032 15.0824 7.57872 15.085 7.66157C15.0876 7.74442 15.1098 7.82158 15.1518 7.89306C15.1938 7.96453 15.2503 8.02159 15.3214 8.06422C15.3925 8.10685 15.4695 8.12984 15.5523 8.13321C15.6351 8.13658 15.7137 8.1199 15.788 8.08317L15.8994 8.03212C15.9368 8.01384 15.9708 7.99063 16.0015 7.9625L16.0757 7.89288C16.0838 7.88552 16.0916 7.87779 16.0989 7.86967L16.1361 7.82326C16.0941 7.83882 16.0585 7.86357 16.0293 7.89752L16.0525 7.88824C16.1647 7.8492 16.2208 7.7703 16.2208 7.65153C16.2208 7.53276 16.1647 7.45386 16.0525 7.41482ZM15.3378 8.18064L15.4445 8.21777C15.5137 8.24145 15.5849 8.25228 15.658 8.25026L16.0293 8.23634C16.0432 8.2368 16.0572 8.2368 16.0711 8.23634L16.7487 8.16672C16.758 8.16691 16.7673 8.16691 16.7766 8.16672L17.793 8.02284L19.0462 7.85111L20.3829 7.74436L21.831 7.73971L23.1909 7.7722C23.1955 7.77225 23.2002 7.77225 23.2048 7.7722L24.4162 7.78149C24.4224 7.78157 24.4286 7.78157 24.4348 7.78149L25.3955 7.76756C25.4017 7.76765 25.4079 7.76765 25.4141 7.76756L26.0964 7.73971C26.1057 7.7399 26.115 7.7399 26.1242 7.73971L26.5559 7.70258C26.5856 7.69986 26.615 7.69522 26.6441 7.68866L26.8761 7.64225C26.9468 7.62654 27.0134 7.60024 27.0757 7.56334L27.1917 7.49372C27.2724 7.44758 27.3405 7.38724 27.396 7.31271L27.4377 7.25237C27.5317 7.12364 27.5735 6.97976 27.563 6.82073L27.5584 6.76503C27.5401 6.46869 27.39 6.27375 27.1082 6.18022L27.0061 6.14773C26.9443 6.12738 26.8809 6.11655 26.8158 6.11525L26.5698 6.1106C26.5512 6.1098 26.5327 6.1098 26.5141 6.1106L26.1335 6.13381C26.1289 6.13531 26.1242 6.13685 26.1196 6.13845L25.5998 6.18022L24.9593 6.23592L24.1981 6.28233L23.2884 6.33803C23.2853 6.33801 23.2822 6.33801 23.2791 6.33803L22.2951 6.40765C22.2936 6.40764 22.292 6.40764 22.2905 6.40765L21.3483 6.48191C21.3452 6.48189 21.3421 6.48189 21.339 6.48191L20.5407 6.55153L19.9512 6.60259C19.9497 6.60258 19.9482 6.60258 19.9466 6.60259L19.6078 6.63043C19.5684 6.63473 19.5297 6.64247 19.4918 6.65364L19.45 6.66757C19.2883 6.71878 19.1637 6.81708 19.0764 6.96246C18.989 7.10784 18.9606 7.26395 18.9913 7.43078C19.0219 7.59761 19.1039 7.73343 19.2373 7.83825C19.3706 7.94308 19.522 7.99068 19.6913 7.98106L19.9837 7.95322C19.9868 7.95169 19.9899 7.95015 19.993 7.94858L20.6196 7.87895L21.4875 7.80005L22.4854 7.73043L23.488 7.68402L24.4301 7.67938L25.2749 7.6933L25.985 7.72579L26.5141 7.76292L26.8622 7.79541C26.8668 7.79546 26.8715 7.79546 26.8761 7.79541L27.0664 7.80933C27.1417 7.81548 27.216 7.80929 27.2892 7.79077L27.3728 7.76756C27.6589 7.69192 27.8245 7.50782 27.8694 7.21524L27.8787 7.16419C27.8958 7.04801 27.8835 6.93507 27.8415 6.82537L27.8137 6.74647C27.8009 6.71272 27.7854 6.68023 27.7673 6.649L27.7162 6.56081C27.7103 6.54981 27.7041 6.53898 27.6976 6.52832L27.6373 6.44014C27.6232 6.41754 27.6077 6.39588 27.5909 6.37516L27.5398 6.31482C27.5612 6.42423 27.6076 6.5217 27.6791 6.60723L27.6698 6.56546C27.5666 6.55311 27.4662 6.56485 27.3686 6.60068C27.2711 6.63651 27.187 6.69252 27.1163 6.76872C27.0456 6.84491 26.996 6.933 26.9676 7.03297C26.9392 7.13295 26.935 7.23393 26.955 7.33592L26.9829 7.34056C26.8886 7.26608 26.7818 7.22121 26.6626 7.20596L26.723 7.25702C26.6869 7.20252 26.6436 7.15456 26.593 7.11313L26.6533 7.20596L26.7508 7.38697L26.9179 7.80469C26.9194 7.8109 26.9209 7.81709 26.9225 7.82326L27.1964 8.45448C27.2035 8.47025 27.2113 8.48572 27.2196 8.50089L27.6141 9.24815C27.6171 9.25439 27.6202 9.26057 27.6234 9.26672L28.0272 9.97684C28.0386 9.99602 28.051 10.0146 28.0643 10.0325L28.5563 10.738C28.5681 10.7525 28.5805 10.7664 28.5934 10.7798L29.1736 11.476C29.1868 11.4921 29.2007 11.5076 29.2154 11.5224L29.8512 12.1443C29.8645 12.1589 29.8784 12.1729 29.893 12.1861L30.5103 12.6874C30.5562 12.7258 30.6072 12.7551 30.6635 12.7756L31.1554 12.9519L31.42 13.2768C31.4986 13.3576 31.5818 13.3625 31.6695 13.2918C31.7572 13.2211 31.77 13.1387 31.7078 13.0448L31.4386 12.7106L31.3365 12.1954C31.3223 12.1208 31.2929 12.0527 31.2483 11.9912L30.7795 11.346C30.772 11.3365 30.7643 11.3272 30.7563 11.3182L30.1947 10.6313L29.6517 9.94899L29.1922 9.28064L28.8069 8.60765L28.4263 7.88824L28.1525 7.28022L27.9622 6.84858C27.9527 6.82474 27.9419 6.80154 27.9297 6.77896L27.7858 6.53297C27.7703 6.50863 27.7533 6.48543 27.7348 6.46335L27.6373 6.33803C27.5941 6.2817 27.5431 6.23374 27.4841 6.19415L27.4145 6.15238C27.3476 6.10794 27.2748 6.077 27.1964 6.05955L27.1685 6.05491C27.0588 6.0315 26.9504 6.03619 26.8431 6.06896C26.7358 6.10174 26.6432 6.15848 26.5654 6.2392C26.4875 6.31992 26.4341 6.41446 26.4051 6.52283C26.3762 6.63121 26.3754 6.73979 26.4027 6.84858L26.412 6.89035C26.4252 6.93892 26.4437 6.98533 26.4677 7.02959L26.5048 7.10385C26.5121 7.11649 26.5199 7.12886 26.528 7.14098L26.5652 7.20596L26.593 7.2663C26.5819 7.20812 26.5633 7.15242 26.5373 7.09921L26.5559 7.18275C26.604 7.06256 26.6163 6.93879 26.593 6.81145L26.5698 6.8625C26.8155 6.81656 26.9841 6.67732 27.0757 6.44478L26.9922 6.46335C27.0498 6.46752 27.107 6.46443 27.1639 6.45406L26.9829 6.44014L26.6301 6.40765C26.6255 6.4076 26.6209 6.4076 26.6162 6.40765L26.0685 6.37052C26.0639 6.37047 26.0593 6.37047 26.0546 6.37052L25.3306 6.33803C25.3228 6.3379 25.3151 6.3379 25.3074 6.33803L24.4441 6.32411C24.4379 6.32402 24.4317 6.32402 24.4255 6.32411L23.4601 6.33803C23.4524 6.3379 23.4446 6.3379 23.4369 6.33803L22.4158 6.38444C22.4096 6.3859 22.4034 6.38745 22.3972 6.38908L21.3808 6.46335C21.3761 6.4633 21.3715 6.4633 21.3669 6.46335L20.485 6.55153C20.4835 6.55153 20.4819 6.55153 20.4804 6.55153L19.8538 6.61651L19.566 6.64436C19.4156 6.70883 19.3036 6.81415 19.23 6.96031C19.1565 7.10647 19.1386 7.25916 19.1764 7.41837C19.2142 7.57758 19.2988 7.70594 19.4302 7.80343C19.5616 7.90092 19.709 7.94466 19.8723 7.93465L19.9141 7.92073C19.8534 7.92661 19.7946 7.94053 19.7377 7.9625L20.0719 7.93001L20.6521 7.87895L21.455 7.80933L22.3972 7.72579L23.3719 7.64689L24.277 7.59119C24.2785 7.58965 24.2801 7.58811 24.2816 7.58655L25.0521 7.5355C25.0552 7.53552 25.0583 7.53552 25.0614 7.5355L25.7112 7.47516C25.7127 7.47516 25.7142 7.47516 25.7158 7.47516L26.231 7.42874L26.5652 7.4009L26.7694 7.41482C26.6891 7.37392 26.604 7.35071 26.5141 7.3452L26.6116 7.39626C26.6302 7.10595 26.5095 6.89555 26.2495 6.76503L26.2449 6.82073C26.3841 6.70081 26.4599 6.5492 26.4723 6.36588L26.412 6.41229C26.4944 6.38499 26.5687 6.34321 26.6348 6.28698L26.5559 6.31482L26.412 6.33803L26.0314 6.36588L25.3677 6.39373L24.4209 6.40765L23.2234 6.38908L21.8496 6.3566C21.8418 6.35647 21.8341 6.35647 21.8264 6.3566L20.3458 6.3798C20.3303 6.37928 20.3148 6.37928 20.2994 6.3798L18.9162 6.49584C18.9054 6.49712 18.8945 6.49867 18.8837 6.50048L17.612 6.66757C17.6027 6.66892 17.5934 6.67047 17.5842 6.67221L16.5724 6.84394C16.5677 6.84543 16.5631 6.84698 16.5584 6.84858L15.8901 6.97389L15.5234 7.04816C15.4666 7.059 15.4125 7.07756 15.361 7.10385L15.2589 7.15491C15.0379 7.26723 14.9369 7.44697 14.9559 7.69411C14.9749 7.94125 15.1022 8.10343 15.3378 8.18064Z" fill="black"/>
<path d="M28.7651 8.56588C28.7651 8.73606 28.8502 8.82115 29.0204 8.82115C29.1906 8.82115 29.2757 8.73606 29.2757 8.56588C29.2757 8.39569 29.1906 8.3106 29.0204 8.3106C28.8502 8.3106 28.7651 8.39569 28.7651 8.56588ZM28.7001 8.57516C28.7001 8.77938 28.8023 8.88149 29.0065 8.88149C29.2107 8.88149 29.3128 8.77938 29.3128 8.57516C29.3128 8.37094 29.2107 8.26883 29.0065 8.26883C28.8023 8.26883 28.7001 8.37094 28.7001 8.57516ZM28.6027 8.50554L28.5423 8.66334C28.5087 8.75084 28.501 8.84058 28.5191 8.93254L28.5748 9.22959C28.5782 9.24998 28.5829 9.27009 28.5888 9.28992L28.7326 9.74013L28.909 10.376C28.9118 10.3869 28.9149 10.3977 28.9183 10.4085L29.1875 11.2254C29.1904 11.2332 29.1935 11.2409 29.1968 11.2486L29.5449 12.1722C29.5492 12.1832 29.5539 12.194 29.5588 12.2047L29.9719 13.1376C29.9817 13.1583 29.9925 13.1784 30.0044 13.1979L30.4778 14.0334C30.4942 14.0627 30.5127 14.0905 30.5335 14.1169L31.0626 14.7853C31.0824 14.8102 31.1041 14.8334 31.1276 14.8549L31.6335 15.319C31.6989 15.3796 31.7747 15.4214 31.8609 15.4443L32.2322 15.5418L32.4411 15.7089C32.5874 15.8116 32.717 15.7936 32.8297 15.6548C32.9425 15.5161 32.9336 15.3856 32.8031 15.2633L32.6128 15.1102L32.5107 14.7713C32.4941 14.7163 32.4693 14.6653 32.4364 14.6182L32.0465 14.0612L31.6056 13.3836L31.1786 12.576L30.7795 11.6802L30.4174 10.7752C30.416 10.7689 30.4144 10.7628 30.4128 10.7566L30.0693 9.96756C30.0623 9.95176 30.0545 9.93629 30.0461 9.92115L29.7352 9.34098L29.5495 8.94182L29.4567 8.68191C29.4488 8.66116 29.4395 8.64105 29.4288 8.62157L29.3546 8.46841C29.2735 8.31026 29.1442 8.23558 28.9666 8.24434C28.7891 8.25311 28.6678 8.34017 28.6027 8.50554Z" fill="black"/>
<path d="M30.7747 13.4997V13.5461C30.77 13.6172 30.7917 13.6791 30.8397 13.7317L30.9001 13.7967L30.9326 13.922C30.9605 14.0333 31.0301 14.075 31.1414 14.0472C31.2527 14.0194 31.2945 13.9498 31.2667 13.8385L31.2389 13.7178L31.2667 13.6435C31.2763 13.6117 31.2794 13.5792 31.276 13.5461V13.4997C31.276 13.3326 31.1925 13.249 31.0254 13.249C30.8583 13.249 30.7747 13.3326 30.7747 13.4997Z" fill="black"/>
<path d="M8.06455 28.2532C8.06455 28.4543 8.16511 28.5548 8.36624 28.5548C8.56736 28.5548 8.66792 28.4543 8.66792 28.2532C8.66792 28.052 8.56736 27.9515 8.36624 27.9515C8.16511 27.9515 8.06455 28.052 8.06455 28.2532ZM7.99957 28.2578C7.99957 28.3565 8.03446 28.4407 8.10424 28.5105C8.17403 28.5803 8.25826 28.6152 8.35695 28.6152C8.45564 28.6152 8.53988 28.5803 8.60966 28.5105C8.67944 28.4407 8.71434 28.3565 8.71434 28.2578C8.71434 28.1591 8.67944 28.0749 8.60966 28.0051C8.53988 27.9353 8.45564 27.9004 8.35695 27.9004C8.25826 27.9004 8.17403 27.9353 8.10424 28.0051C8.03446 28.0749 7.99957 28.1591 7.99957 28.2578ZM7.94387 27.9283L7.62362 28.165C7.60239 28.1807 7.58228 28.1977 7.56328 28.216L7.02489 28.7498C7.01857 28.7558 7.01238 28.762 7.00632 28.7683L6.27299 29.562C6.25089 29.5852 6.23078 29.6099 6.21265 29.6363L5.51181 30.6806L4.8481 31.6692L4.19831 32.3979C4.11883 32.4992 4.12745 32.5923 4.22417 32.6773C4.3209 32.7623 4.41439 32.7589 4.50464 32.6671L5.14979 31.943L6.06877 31.1958L7.06666 30.4439C7.0879 30.4282 7.10801 30.4112 7.127 30.3928L7.89746 29.6316C7.90534 29.6256 7.91308 29.6194 7.92067 29.6131L8.43121 29.0561C8.4515 29.0343 8.47006 29.0111 8.48691 28.9865L8.70969 28.6523C8.88023 28.4018 8.85537 28.1724 8.63514 27.9641C8.4149 27.7559 8.18448 27.744 7.94387 27.9283Z" fill="black"/>
<path d="M12.5992 31.2236C12.5992 31.4186 12.6967 31.516 12.8916 31.516C13.0866 31.516 13.184 31.4186 13.184 31.2236C13.184 31.0287 13.0866 30.9312 12.8916 30.9312C12.6967 30.9312 12.5992 31.0287 12.5992 31.2236ZM12.5389 31.2515C12.5389 31.3476 12.5729 31.4297 12.6408 31.4976C12.7088 31.5656 12.7909 31.5996 12.887 31.5996C12.9831 31.5996 13.0652 31.5656 13.1331 31.4976C13.2011 31.4297 13.2351 31.3476 13.2351 31.2515C13.2351 31.1554 13.2011 31.0733 13.1331 31.0053C13.0652 30.9374 12.9831 30.9034 12.887 30.9034C12.7909 30.9034 12.7088 30.9374 12.6408 31.0053C12.5729 31.0733 12.5389 31.1554 12.5389 31.2515ZM12.4878 31.0519L12.2836 31.2886C12.2554 31.3185 12.2306 31.3509 12.2094 31.3861L11.9123 31.9291C11.9092 31.9322 11.9061 31.9353 11.903 31.9384L11.4667 32.7646C11.45 32.7958 11.4361 32.8283 11.425 32.862L11.0908 33.9063C11.0815 33.9366 11.0753 33.9676 11.0722 33.9992L10.9562 34.997L10.6731 35.7907C10.6299 35.9082 10.667 35.9887 10.7845 36.032C10.902 36.0752 10.9825 36.0382 11.0258 35.9207L11.3089 35.127L11.9123 34.3333C11.9189 34.3227 11.9251 34.3119 11.9309 34.3008L12.5203 33.3726C12.5287 33.3574 12.5365 33.342 12.5435 33.3262L12.9705 32.5C12.9754 32.4908 12.9801 32.4816 12.9845 32.4722L13.2397 31.9059C13.2632 31.8541 13.2787 31.7999 13.2861 31.7435L13.3279 31.4325C13.3576 31.1971 13.2643 31.0304 13.0482 30.9325C12.8321 30.8345 12.6453 30.8744 12.4878 31.0519Z" fill="black"/>
<path d="M21.7229 32.9888C21.723 33.1682 21.8127 33.2579 21.9921 33.2579C22.1715 33.2579 22.2612 33.1682 22.2613 32.9888C22.2612 32.8094 22.1715 32.7197 21.9921 32.7197C21.8127 32.7197 21.723 32.8094 21.7229 32.9888ZM21.6626 32.8124L21.5233 33.012C21.4739 33.0819 21.443 33.1593 21.4305 33.244L21.347 33.8799C21.3422 33.9044 21.3392 33.9292 21.3377 33.9542L21.3284 34.9103C21.3281 34.9462 21.3312 34.9817 21.3377 35.017L21.5465 36.1077C21.5509 36.1314 21.557 36.1546 21.5651 36.1774L21.941 37.2263C21.941 37.2278 21.941 37.2294 21.941 37.2309L22.2752 38.1221L22.4887 38.7951C22.531 38.899 22.6055 38.9337 22.7122 38.8991C22.819 38.8645 22.859 38.7927 22.8322 38.6837L22.6233 38.02L22.4794 37.1056L22.4377 36.0196L22.4516 34.9288L22.4887 33.982C22.4887 33.9789 22.4887 33.9758 22.4887 33.9727L22.5027 33.3276C22.5038 33.2447 22.4868 33.1658 22.4516 33.0909L22.3495 32.8727C22.3192 32.8085 22.275 32.7561 22.2168 32.7155C22.1585 32.6749 22.0941 32.6515 22.0234 32.6453C21.9526 32.6391 21.8851 32.6509 21.8207 32.6807C21.7563 32.7105 21.7036 32.7544 21.6626 32.8124Z" fill="black"/>
<path d="M28.8362 31.4025C28.8362 31.4999 28.8706 31.583 28.9395 31.6519C29.0084 31.7208 29.0915 31.7552 29.1889 31.7552C29.2863 31.7552 29.3695 31.7208 29.4384 31.6519C29.5072 31.583 29.5417 31.4999 29.5417 31.4025C29.5417 31.3051 29.5072 31.2219 29.4384 31.153C29.3695 31.0842 29.2863 31.0497 29.1889 31.0497C29.0915 31.0497 29.0084 31.0842 28.9395 31.153C28.8706 31.2219 28.8362 31.3051 28.8362 31.4025ZM29.1425 31.0126H29.0868C28.9529 31.0184 28.8446 31.074 28.7619 31.1797L28.683 31.2818C28.573 31.4219 28.5405 31.5782 28.5856 31.7506L28.6784 32.1265C28.6927 32.1807 28.7144 32.2317 28.7434 32.2797L29.0868 32.8598C29.1019 32.8859 29.1189 32.9107 29.1379 32.9341L29.7181 33.6303C29.7268 33.6431 29.7361 33.6555 29.7459 33.6674L30.4653 34.3915C30.4668 34.393 30.4684 34.3946 30.47 34.3961L31.1615 35.0738L31.6256 35.7328C31.6968 35.8318 31.7819 35.8458 31.8809 35.7746C31.9799 35.7034 31.9939 35.6183 31.9227 35.5193L31.4586 34.8649L31.0455 33.9877C31.0424 33.9845 31.0393 33.9814 31.0362 33.9784L30.5674 33.0687C30.5631 33.0593 30.5584 33.05 30.5535 33.0409L30.0894 32.2658L29.7552 31.6995L29.5835 31.37C29.5678 31.3388 29.5492 31.3094 29.5278 31.2818L29.4489 31.1797C29.4183 31.3152 29.4462 31.4374 29.5324 31.5463L29.5417 31.4906C29.5712 31.3644 29.5444 31.2516 29.4613 31.1521C29.3782 31.0526 29.272 31.0061 29.1425 31.0126Z" fill="black"/>
<path d="M33.1898 29.1189C33.1898 29.3077 33.2842 29.402 33.4729 29.402C33.6617 29.402 33.7561 29.3077 33.7561 29.1189C33.7561 28.9302 33.6617 28.8358 33.4729 28.8358C33.2842 28.8358 33.1898 28.9302 33.1898 29.1189ZM33.1109 29.0122L33.0924 29.0679C33.0285 29.2826 33.0795 29.4651 33.2455 29.6155L33.5101 29.8569C33.5414 29.8854 33.5754 29.9102 33.6122 29.9311L34.1691 30.2421C34.2004 30.259 34.2328 30.2729 34.2666 30.2839L35.181 30.5949C35.2322 30.6117 35.2848 30.6209 35.3388 30.6227L36.5223 30.6738L37.6919 30.7295L38.6527 30.8733C38.764 30.8888 38.8275 30.8408 38.8429 30.7294C38.8584 30.6181 38.8104 30.5547 38.6991 30.5392L37.7476 30.3999L36.6569 30.0472L35.6033 29.5506C35.5896 29.5438 35.5757 29.5376 35.5615 29.532L34.6936 29.2071L34.1691 28.9286L33.8582 28.7569C33.6864 28.6623 33.5147 28.6623 33.343 28.7569L33.2919 28.7847C33.2016 28.8366 33.1412 28.9124 33.1109 29.0122Z" fill="black"/>
<path d="M35.1026 15.8861C35.1026 16.0439 35.1815 16.1228 35.3393 16.1228C35.4971 16.1228 35.576 16.0439 35.576 15.8861C35.576 15.7283 35.4971 15.6494 35.3393 15.6494C35.1815 15.6494 35.1026 15.7283 35.1026 15.8861ZM35.6549 15.8954V15.8907C35.5792 15.959 35.539 16.0441 35.5342 16.146L35.5714 16.1135C35.5794 16.1061 35.5872 16.0983 35.5946 16.0903L35.7988 15.8722L36.3279 15.3895L37.1958 14.6236C37.2055 14.6163 37.2148 14.6086 37.2237 14.6004L38.1102 13.649L39.0292 12.9249C39.1251 12.8506 39.1359 12.7655 39.0617 12.6696C38.9874 12.5737 38.9023 12.5629 38.8064 12.6371L37.8828 13.3612L36.7549 14.011C36.7404 14.0193 36.7265 14.0286 36.7131 14.0388L35.7942 14.7489C35.7862 14.7549 35.7785 14.7611 35.771 14.7675L35.2233 15.2641C35.2048 15.2797 35.1878 15.2967 35.1722 15.3152L34.9773 15.5565C34.8582 15.7063 34.8489 15.8625 34.9494 16.0253L34.9773 16.0671C35.0525 16.1897 35.162 16.2479 35.3057 16.2416C35.4495 16.2354 35.5535 16.1679 35.6178 16.0392V16.03C35.6399 15.9878 35.6523 15.9429 35.6549 15.8954Z" fill="black"/>
<path d="M33.1301 9.28143C33.1301 9.38136 33.1655 9.46666 33.2362 9.5373C33.3069 9.60795 33.3922 9.64327 33.4921 9.64327C33.592 9.64327 33.6774 9.60795 33.748 9.5373C33.8187 9.46666 33.8541 9.38136 33.8541 9.28143C33.8541 9.18149 33.8187 9.0962 33.748 9.02555C33.6774 8.9549 33.592 8.91958 33.4921 8.91958C33.3922 8.91958 33.3069 8.9549 33.2362 9.02555C33.1655 9.0962 33.1301 9.18149 33.1301 9.28143ZM33.8309 9.44852L33.8959 9.33712L34.1512 9.00295C34.1544 8.99836 34.1574 8.99372 34.1605 8.98902L34.6571 8.30675C34.6586 8.30521 34.6602 8.30366 34.6617 8.3021L35.3486 7.33206C35.3534 7.32598 35.3581 7.31979 35.3626 7.3135L36.1377 6.10211C36.1443 6.09154 36.1505 6.08071 36.1562 6.06962L36.8478 4.77469L37.5208 3.70718L38.087 2.93671C38.1371 2.84975 38.1215 2.77684 38.0402 2.71798C37.959 2.65912 37.8848 2.66705 37.8178 2.74178L37.2562 3.51224L36.4486 4.48692L35.4415 5.55907C35.4317 5.56946 35.4224 5.58028 35.4136 5.59156L34.5364 6.72869C34.5316 6.73477 34.527 6.74096 34.5225 6.74726L33.8356 7.7173C33.8292 7.72485 33.823 7.73258 33.817 7.7405L33.3714 8.45527C33.359 8.4761 33.3481 8.49776 33.3389 8.52025L33.1579 8.93797C33.1457 8.96483 33.1364 8.99268 33.1301 9.02151L33.1022 9.17468C33.0589 9.3935 33.1416 9.54214 33.3505 9.62061C33.5593 9.69908 33.7194 9.64172 33.8309 9.44852Z" fill="black"/>
<path d="M27.3704 4.21344C27.3705 4.3681 27.4479 4.44543 27.6025 4.44543C27.7572 4.44543 27.8345 4.3681 27.8346 4.21344C27.8345 4.05878 27.7572 3.98145 27.6025 3.98145C27.4479 3.98145 27.3705 4.05878 27.3704 4.21344ZM27.9042 4.14382L27.9088 3.9396C27.909 3.93341 27.909 3.92723 27.9088 3.92104L27.9042 3.57758C27.9043 3.57139 27.9043 3.5652 27.9042 3.55901L27.8671 3.08095C27.8671 3.07941 27.8671 3.07786 27.8671 3.07631L27.8253 2.50079C27.8223 2.46568 27.8145 2.43164 27.8021 2.39868L27.5839 1.80923L27.4633 1.21978L27.4029 0.723154C27.3906 0.621044 27.3333 0.576178 27.2312 0.588555C27.1291 0.600932 27.0842 0.658175 27.0966 0.760285L27.1616 1.25691L27.1755 1.851L27.0688 2.46366C27.0645 2.4898 27.0629 2.5161 27.0641 2.54256L27.0827 3.12273C27.0841 3.12895 27.0856 3.13514 27.0873 3.14129L27.1291 3.61935C27.1299 3.63336 27.1314 3.64728 27.1337 3.66112L27.1987 3.99994C27.2021 4.0173 27.2067 4.03432 27.2126 4.05099L27.2823 4.24129C27.3415 4.40828 27.4586 4.47806 27.6337 4.45063C27.8087 4.4232 27.8989 4.32093 27.9042 4.14382Z" fill="black"/>
<path d="M19.2413 4.59683C19.2413 4.79486 19.3403 4.89388 19.5384 4.89388C19.7364 4.89388 19.8354 4.79486 19.8354 4.59683C19.8354 4.3988 19.7364 4.29979 19.5384 4.29979C19.3403 4.29979 19.2413 4.3988 19.2413 4.59683ZM19.9189 4.55506L19.9143 4.4808C19.9124 4.46204 19.9093 4.44347 19.905 4.4251L19.8772 4.2673C19.8736 4.24846 19.869 4.2299 19.8633 4.2116L19.7704 3.90527C19.763 3.87984 19.7537 3.85509 19.7426 3.83101L19.5152 3.34831C19.5019 3.31922 19.4865 3.29137 19.4687 3.26477L19.051 2.64747C19.0436 2.63638 19.0359 2.62555 19.0278 2.61498L18.4569 1.89093C18.4269 1.8542 18.3929 1.82171 18.3548 1.79346L17.5797 1.19473L16.9021 0.633128L16.4519 0.113298C16.3798 0.053426 16.3081 0.0538714 16.2368 0.114634C16.1654 0.175397 16.1536 0.246118 16.2012 0.3268L16.6514 0.851271L17.0831 1.59853L17.4869 2.48038C17.5013 2.5113 17.5183 2.5407 17.5379 2.56857L18.0624 3.32511C18.0624 3.32665 18.0624 3.3282 18.0624 3.32975L18.4894 3.93776C18.4909 3.94087 18.4925 3.94396 18.4941 3.94705L18.8097 4.37869L18.9953 4.6386C18.9997 4.64647 19.0044 4.6542 19.0092 4.66181L19.1114 4.78713C19.153 4.8404 19.2041 4.88217 19.2645 4.91244L19.3295 4.94493C19.3947 4.97734 19.4637 4.9913 19.5364 4.98681C19.6091 4.98233 19.6758 4.95999 19.7365 4.91981C19.7973 4.87963 19.844 4.82697 19.8765 4.76183C19.9091 4.69669 19.9232 4.62777 19.9189 4.55506Z" fill="black"/>
<path d="M10.0206 6.12378C10.0206 6.21606 10.0533 6.29483 10.1185 6.36008C10.1838 6.42533 10.2625 6.45796 10.3548 6.45796C10.4471 6.45796 10.5259 6.42533 10.5911 6.36008C10.6564 6.29483 10.689 6.21606 10.689 6.12378C10.689 6.0315 10.6564 5.95273 10.5911 5.88748C10.5259 5.82223 10.4471 5.7896 10.3548 5.7896C10.2625 5.7896 10.1838 5.82223 10.1185 5.88748C10.0533 5.95273 10.0206 6.0315 10.0206 6.12378ZM10.7772 6.33728L10.8004 6.29551C10.9205 6.08363 10.9066 5.88095 10.7586 5.68749L10.6519 5.54361C10.6124 5.49412 10.566 5.45235 10.5126 5.4183L10.2156 5.21872C10.2065 5.21226 10.1972 5.20607 10.1877 5.20015L9.81641 4.98201C9.80137 4.972 9.7859 4.96272 9.77 4.95416L9.1759 4.67568C9.15926 4.66713 9.14224 4.65939 9.12485 4.65247L8.24764 4.33686C8.21895 4.32532 8.18956 4.31604 8.15945 4.30902L7.08266 4.10016C7.02899 4.08871 6.97484 4.08562 6.92021 4.09087L5.9641 4.20226L5.16579 4.03982C5.05164 4.02875 4.98331 4.07944 4.96082 4.1919C4.93833 4.30436 4.9819 4.37744 5.09153 4.41112L5.88519 4.56893L6.69743 5.07948C6.73407 5.10112 6.77275 5.11814 6.81346 5.13053L7.85312 5.47863C7.85467 5.47864 7.85622 5.47864 7.85776 5.47863L8.71641 5.75247L9.25945 5.99382L9.59827 6.18876L9.86282 6.35585L9.97422 6.44867C10.0309 6.49536 10.0943 6.52939 10.1645 6.55078L10.2109 6.56007C10.4581 6.63433 10.6469 6.56007 10.7772 6.33728Z" fill="black"/>
<path d="M5.61292 13.5731C5.61292 13.6807 5.65099 13.7726 5.72711 13.8488C5.80324 13.9249 5.89514 13.963 6.0028 13.963C6.11046 13.963 6.20235 13.9249 6.27848 13.8488C6.3546 13.7726 6.39267 13.6807 6.39267 13.5731C6.39267 13.4654 6.3546 13.3735 6.27848 13.2974C6.20235 13.2213 6.11046 13.1832 6.0028 13.1832C5.89514 13.1832 5.80324 13.2213 5.72711 13.2974C5.65099 13.3735 5.61292 13.4654 5.61292 13.5731ZM6.38803 13.3132L6.34161 13.2343C6.32241 13.1975 6.2992 13.1635 6.27199 13.1322L6.12811 12.979C6.08386 12.9301 6.0328 12.8899 5.97495 12.8583L5.61756 12.6634C5.58627 12.6467 5.55378 12.6328 5.5201 12.6216L4.9028 12.4127C4.87245 12.4026 4.84151 12.3949 4.80997 12.3895L3.89563 12.2364C3.85576 12.2287 3.81553 12.2256 3.77495 12.2271L2.84204 12.2828L2.0066 12.06C1.89152 12.0493 1.81934 12.0998 1.79006 12.2116C1.76077 12.3234 1.79892 12.4028 1.90449 12.4499L2.73529 12.6727L3.51504 13.1971C3.54575 13.2176 3.57824 13.2346 3.61251 13.2482L4.47115 13.587C4.48338 13.592 4.49576 13.5967 4.50828 13.6009L5.12558 13.8005L5.51081 13.9305C5.51698 13.9321 5.52317 13.9337 5.52938 13.9351L5.7336 13.9954C5.75038 14.0009 5.7674 14.0056 5.78465 14.0094L5.87284 14.0279C6.07702 14.0701 6.24007 14.0066 6.36197 13.8374C6.48388 13.6683 6.49256 13.4936 6.38803 13.3132Z" fill="black"/>
<path d="M5.26158 23.1414L5.12234 23.0532C5.01981 22.9902 4.90842 22.9608 4.78817 22.965L4.35652 22.9836C4.35498 22.9835 4.35343 22.9835 4.35188 22.9836L3.65568 23.0114C3.65413 23.0114 3.65259 23.0114 3.65104 23.0114L2.76454 23.0625L1.81307 23.0903C1.77369 23.0921 1.73502 23.0983 1.69704 23.1089L0.963704 23.2945L0.364971 23.2063C0.213398 23.1847 0.126786 23.2497 0.105134 23.4013C0.083482 23.5529 0.148435 23.6395 0.299992 23.6612L0.908008 23.7494L1.59493 24.0836C1.65216 24.1116 1.7125 24.1286 1.77594 24.1346L2.73205 24.2321C2.75217 24.2331 2.77228 24.2331 2.79239 24.2321L3.68817 24.2274C3.69745 24.2276 3.70674 24.2276 3.71602 24.2274L4.41222 24.1903C4.41531 24.1903 4.41841 24.1903 4.4215 24.1903L4.85315 24.1578C4.96967 24.1499 5.07487 24.1112 5.16876 24.0418L5.30336 23.9443C5.36721 23.8955 5.416 23.8346 5.44973 23.7617C5.48346 23.6887 5.49823 23.6121 5.49406 23.5318C5.48988 23.4516 5.46724 23.3769 5.42612 23.3078C5.385 23.2388 5.33016 23.1833 5.26158 23.1414Z" fill="black"/>
<path d="M26.9435 7.24892L26.9185 7.24267C26.8919 7.23562 26.8648 7.23145 26.8373 7.23017H26.7873C26.7789 7.22992 26.7706 7.22992 26.7622 7.23017H26.6935C26.7461 7.24857 26.8003 7.25691 26.856 7.25518L26.8185 7.24267C26.7526 7.51466 26.8505 7.70012 27.1123 7.79903L27.1186 7.77402C27.1114 7.79036 27.1052 7.80703 27.0998 7.82403L27.1186 7.78653C27.0841 7.82799 27.057 7.87383 27.0373 7.92405L27.0748 7.87404C27.0345 7.90216 26.999 7.9355 26.9685 7.97406L27.0185 7.94281C26.8719 7.90728 26.7365 7.93229 26.6122 8.01782H26.631L26.6685 8.03657C26.691 8.04425 26.7139 8.0505 26.7372 8.05533L26.8498 8.08658C26.8643 8.08922 26.8789 8.09131 26.8935 8.09283L27.0561 8.12409C27.0954 8.13025 27.135 8.13233 27.1748 8.13034L27.3749 8.12409C27.3916 8.12273 27.4083 8.12065 27.4249 8.11784L27.6499 8.09283C27.6604 8.09104 27.6708 8.08895 27.6812 8.08658L27.9187 8.04908C27.9292 8.04728 27.9396 8.04519 27.95 8.04283L28.1875 7.98031C28.1959 7.97841 28.2042 7.97633 28.2125 7.97406L28.4376 7.91155C28.4481 7.90769 28.4585 7.90352 28.4688 7.89905L28.6251 7.84279L28.7376 7.81153C28.7775 7.79759 28.815 7.77884 28.8501 7.75527L28.9002 7.73027C28.7803 7.69762 28.6678 7.71429 28.5626 7.78028L28.6063 7.79278C28.5514 7.71085 28.4764 7.65668 28.3813 7.63025L28.4001 7.65525C28.496 7.79683 28.6278 7.85114 28.7956 7.81818C28.9634 7.78522 29.065 7.68507 29.1002 7.51773L29.1064 7.48647C29.1194 7.42345 29.1174 7.36094 29.1002 7.29893L29.0877 7.25518C29.0856 7.25307 29.0835 7.25099 29.0814 7.24892L29.0689 7.19891C29.0244 7.04638 28.9285 6.94011 28.7814 6.8801L28.6564 6.83009C28.5921 6.80474 28.5254 6.79224 28.4563 6.79259H28.275C28.2352 6.79051 28.1956 6.79259 28.1563 6.79884L27.9312 6.84885C27.9271 6.8488 27.9229 6.8488 27.9187 6.84885L27.6937 6.90511L27.4936 6.94262L27.3186 6.96137L27.1873 6.96762L27.0811 6.94887L26.9685 6.93636C26.8956 6.92223 26.8227 6.92223 26.7497 6.93636L26.6747 6.95512C26.4911 6.99517 26.3619 7.10144 26.2872 7.27393L26.2684 7.32394C26.3085 7.27947 26.3398 7.22947 26.3622 7.17391L26.3247 7.21767C26.3087 7.23538 26.2942 7.25413 26.2809 7.27393L26.2434 7.32394C26.2033 7.3808 26.1762 7.44331 26.1621 7.51147L26.1559 7.55523C26.1088 7.77879 26.1817 7.95174 26.3747 8.07408L26.3934 8.08658C26.5791 8.20698 26.7604 8.20073 26.9373 8.06783L26.9685 8.04283C26.9914 8.02404 27.0123 8.00321 27.031 7.98031L27.0811 7.92405C27.1004 7.90085 27.1171 7.87585 27.1311 7.84904L27.1561 7.80528C27.1732 7.77368 27.1857 7.74034 27.1936 7.70526L27.1998 7.68026C27.2522 7.4546 27.1668 7.31083 26.9435 7.24892ZM28.8314 7.0989H28.8126C28.823 7.10143 28.8334 7.10351 28.8439 7.10515L28.8064 7.09264C28.7766 7.07793 28.7453 7.06751 28.7126 7.06139H28.6876C28.516 7.03353 28.3909 7.09722 28.3125 7.25244C28.2341 7.40767 28.257 7.54611 28.3813 7.66775L28.4001 7.68651C28.4226 7.70852 28.4476 7.72728 28.4751 7.74277L28.5126 7.76152C28.5044 7.75704 28.4961 7.75287 28.4876 7.74902L28.5001 7.75527C28.592 7.81137 28.6898 7.82466 28.7933 7.79513C28.8969 7.76561 28.9729 7.70278 29.0215 7.60664C29.07 7.5105 29.0754 7.412 29.0376 7.31114C28.9999 7.21029 28.9311 7.13954 28.8314 7.0989ZM28.6939 7.16766L28.6751 7.16141C28.5283 7.12533 28.4316 7.17917 28.385 7.32294C28.3384 7.46671 28.3851 7.56706 28.5251 7.624L28.5438 7.63025C28.6906 7.66633 28.7873 7.61248 28.8339 7.46871C28.8806 7.32494 28.8339 7.22459 28.6939 7.16766Z" fill="black"/>
<path d="M28.3125 7.34893C28.3127 7.53634 28.4064 7.63004 28.5938 7.63004C28.7812 7.63004 28.875 7.53634 28.8751 7.34893C28.875 7.16152 28.7812 7.06782 28.5938 7.06782C28.4064 7.06782 28.3127 7.16152 28.3125 7.34893ZM28.2313 7.34893C28.2313 7.44905 28.2667 7.53451 28.3375 7.60531C28.4083 7.6761 28.4937 7.7115 28.5938 7.7115C28.694 7.7115 28.7794 7.6761 28.8502 7.60531C28.921 7.53451 28.9564 7.44905 28.9564 7.34893C28.9564 7.24881 28.921 7.16335 28.8502 7.09256C28.7794 7.02176 28.694 6.98636 28.5938 6.98636C28.4937 6.98636 28.4083 7.02176 28.3375 7.09256C28.2667 7.16335 28.2313 7.24881 28.2313 7.34893ZM28.2063 7.34268C28.2063 7.44793 28.2436 7.53775 28.318 7.61214C28.3925 7.68654 28.4823 7.72374 28.5876 7.72374C28.6928 7.72374 28.7827 7.68654 28.8571 7.61214C28.9316 7.53775 28.9688 7.44793 28.9689 7.34268C28.9688 7.23743 28.9316 7.14761 28.8571 7.07321C28.7827 6.99882 28.6928 6.96162 28.5876 6.96162C28.4823 6.96162 28.3925 6.99882 28.318 7.07321C28.2436 7.14761 28.2063 7.23743 28.2063 7.34268ZM28.1563 7.33643C28.1563 7.45381 28.1978 7.554 28.2808 7.63701C28.3638 7.72001 28.464 7.76151 28.5813 7.76151C28.6987 7.76151 28.7989 7.72001 28.8819 7.63701C28.9649 7.554 29.0064 7.45381 29.0064 7.33643C29.0064 7.21905 28.9649 7.11885 28.8819 7.03585C28.7989 6.95285 28.6987 6.91135 28.5813 6.91135C28.464 6.91135 28.3638 6.95285 28.2808 7.03585C28.1978 7.11885 28.1563 7.21905 28.1563 7.33643ZM28.1062 7.33018C28.1062 7.4631 28.1532 7.57655 28.2472 7.67054C28.3412 7.76452 28.4547 7.81152 28.5876 7.81152C28.7205 7.81152 28.834 7.76452 28.928 7.67054C29.0219 7.57655 29.0689 7.4631 29.0689 7.33018C29.0689 7.19726 29.0219 7.0838 28.928 6.98982C28.834 6.89583 28.7205 6.84884 28.5876 6.84884C28.4547 6.84884 28.3412 6.89583 28.2472 6.98982C28.1532 7.0838 28.1062 7.19726 28.1062 7.33018ZM28.15 6.95511L28.1125 6.99261C27.9841 7.13996 27.93 7.31082 27.95 7.50521L27.9812 7.77401C27.9845 7.81202 27.9907 7.84953 28 7.88653L28.1188 8.33662C28.1267 8.37072 28.1372 8.40406 28.15 8.43664L28.4126 9.04925C28.4183 9.06406 28.4245 9.07865 28.4313 9.09301L28.8001 9.8119L29.194 10.6746C29.1939 10.6766 29.1939 10.6787 29.194 10.6808L29.6128 11.5747C29.6149 11.5768 29.6169 11.5789 29.619 11.581L30.0004 12.3749C30.0146 12.4034 30.0313 12.4305 30.0504 12.4562L30.4567 13.0063C30.4797 13.0392 30.5068 13.0684 30.538 13.0938L30.838 13.3188L30.9568 13.5064C31.0465 13.6384 31.1592 13.6625 31.295 13.5786C31.4309 13.4947 31.4598 13.3831 31.3819 13.2438L31.2694 13.0625L31.2256 12.7062C31.2244 12.6766 31.2203 12.6474 31.2131 12.6187L31.0006 11.9748C30.9938 11.9513 30.9854 11.9284 30.9755 11.906L30.6005 11.1184L30.2192 10.2307L29.8753 9.38057L29.669 8.61792L29.5065 7.9803C29.5046 7.97193 29.5025 7.96359 29.5003 7.9553L29.369 7.50521C29.3654 7.48839 29.3613 7.47172 29.3565 7.4552L29.2565 7.1989C29.175 6.97893 29.0208 6.83932 28.7939 6.78007L28.7376 6.76757C28.5032 6.70931 28.3073 6.77182 28.15 6.95511Z" fill="black"/>
<path d="M28.9689 7.93029L28.9814 7.89278C29.0031 7.82193 29.0031 7.75109 28.9814 7.68024L28.9626 7.63023C28.94 7.70316 28.94 7.77609 28.9626 7.84902L28.9751 7.81777C29.0112 7.70877 29.0026 7.60343 28.9493 7.50172C28.8961 7.40002 28.8144 7.33293 28.7043 7.30045C28.5942 7.26797 28.4892 7.28 28.3893 7.33653C28.2894 7.39306 28.225 7.47688 28.1961 7.58799C28.1672 7.6991 28.1827 7.80367 28.2424 7.90169C28.3022 7.99971 28.3881 8.06133 28.5 8.08657L28.5313 8.09907C28.4766 8.02346 28.4036 7.97553 28.3125 7.95529L28.3438 7.99905C28.373 8.03737 28.4084 8.06862 28.45 8.09282L28.4813 8.11157C28.5725 8.17021 28.6688 8.18064 28.7704 8.14287C28.872 8.1051 28.9382 8.03424 28.9689 7.93029ZM28.1062 7.67399C28.1062 7.8 28.1508 7.90756 28.2399 7.99667C28.329 8.08577 28.4365 8.13033 28.5626 8.13033C28.6886 8.13033 28.7961 8.08577 28.8852 7.99667C28.9743 7.90756 29.0189 7.8 29.0189 7.67399C29.0189 7.54798 28.9743 7.44042 28.8852 7.35131C28.7961 7.26221 28.6886 7.21765 28.5626 7.21765C28.4365 7.21765 28.329 7.26221 28.2399 7.35131C28.1508 7.44042 28.1062 7.54798 28.1062 7.67399ZM28.0812 7.4677L28.0562 7.53021C28.0321 7.57993 28.0154 7.63202 28.0062 7.68649L27.9749 7.84902C27.962 7.93067 27.964 8.01194 27.9812 8.09282L28.05 8.39913C28.0562 8.43093 28.0646 8.46219 28.075 8.4929L28.2375 8.96173C28.2395 8.96801 28.2416 8.97426 28.2437 8.98049L28.475 9.61186C28.4771 9.61604 28.4792 9.62021 28.4813 9.62436L28.7626 10.3307L29.0314 11.0121C29.0334 11.0184 29.0355 11.0247 29.0376 11.0309L29.2814 11.606C29.2923 11.6339 29.3048 11.6609 29.3189 11.6873L29.5565 12.0936C29.6212 12.2052 29.7108 12.2906 29.8253 12.3499L29.9191 12.3999L29.9441 12.4436C30.0028 12.5559 30.0925 12.6309 30.2134 12.6687C30.3342 12.7066 30.4507 12.6961 30.5629 12.6374C30.6751 12.5787 30.7502 12.489 30.788 12.3681C30.8258 12.2473 30.8154 12.1308 30.7567 12.0186L30.7505 12.0123L30.7755 11.9373C30.8078 11.8159 30.8057 11.695 30.7692 11.5747L30.638 11.1184C30.634 11.1079 30.6299 11.0975 30.6254 11.0871L30.4192 10.4995C30.4171 10.4953 30.415 10.4912 30.4129 10.487L30.1566 9.80565L29.9191 9.09926C29.915 9.09085 29.9109 9.08251 29.9066 9.07426L29.669 8.44289C29.6614 8.4238 29.6531 8.40504 29.644 8.38662L29.4377 7.93654C29.4169 7.89238 29.3919 7.85071 29.3627 7.81152L29.1752 7.56147C29.1477 7.52271 29.1164 7.48729 29.0814 7.4552L28.9564 7.34893C28.9349 7.32842 28.912 7.30966 28.8876 7.29267L28.8314 7.25516C28.6999 7.17014 28.5588 7.14897 28.4082 7.19166C28.2575 7.23434 28.1486 7.32635 28.0812 7.4677Z" fill="black"/>
<path d="M28.1937 7.68651V7.67401C28.2056 7.58059 28.1848 7.49516 28.1312 7.41771L28.1062 7.3802C28.0871 7.34988 28.0642 7.32279 28.0374 7.29893L27.9687 7.24892C27.9646 7.24466 27.9604 7.24049 27.9562 7.23642L27.8812 7.18016L27.8124 7.11765C27.7986 7.10418 27.784 7.09168 27.7686 7.08014L27.6874 7.02388C27.6434 6.99258 27.5955 6.96966 27.5436 6.95512L27.4623 6.93011C27.4235 6.91874 27.384 6.91249 27.3436 6.91136H27.2873C27.324 6.92221 27.3615 6.92846 27.3998 6.93011L27.3811 6.92386C27.2291 6.87986 27.0899 6.90537 26.9635 7.0004C26.837 7.09542 26.7738 7.22202 26.7738 7.3802C26.7738 7.53838 26.837 7.66498 26.9635 7.76C27.0899 7.85503 27.2291 7.88054 27.3811 7.83654L27.3998 7.83029C27.3615 7.83194 27.324 7.83819 27.2873 7.84904H27.2935L27.331 7.85529C27.3455 7.85807 27.3601 7.86015 27.3748 7.86154L27.4686 7.86779L27.5186 7.87404L27.5498 7.88655L27.5936 7.91155C27.6076 7.92085 27.6222 7.92919 27.6374 7.93656L27.6811 7.95531C27.6729 7.95083 27.6646 7.94666 27.6561 7.94281L27.6624 7.94906C27.7724 8.01252 27.8844 8.01612 27.9982 7.95985C28.1121 7.90358 28.1773 7.81247 28.1937 7.68651ZM26.7372 7.3677C26.7372 7.5127 26.7885 7.63647 26.891 7.739C26.9935 7.84153 27.1173 7.8928 27.2623 7.8928C27.4073 7.8928 27.5311 7.84153 27.6336 7.739C27.7361 7.63647 27.7874 7.5127 27.7874 7.3677C27.7874 7.22269 27.7361 7.09893 27.6336 6.9964C27.5311 6.89386 27.4073 6.8426 27.2623 6.8426C27.1173 6.8426 26.9935 6.89386 26.891 6.9964C26.7885 7.09893 26.7372 7.22269 26.7372 7.3677ZM27.2435 7.9178L27.3498 7.9303C27.3788 7.93448 27.408 7.93657 27.4373 7.93656L27.6061 7.92405H27.7999H27.9874L28.1312 7.9303L28.2187 7.93656L28.2687 7.94281C28.5776 7.98129 28.7901 7.85615 28.9062 7.56741C29.0224 7.27866 28.9558 7.04122 28.7063 6.8551L28.6563 6.81759C28.5687 6.75234 28.4708 6.71275 28.3625 6.69882L28.2437 6.68632C28.2126 6.68188 28.1814 6.67979 28.15 6.68007L27.9874 6.68632H27.7874C27.7811 6.68622 27.7749 6.68622 27.7686 6.68632L27.5623 6.69882C27.5498 6.69844 27.5373 6.69844 27.5248 6.69882L27.3498 6.71757C27.2777 6.72414 27.209 6.74289 27.1435 6.77383L27.0497 6.82384C26.7954 6.95457 26.6932 7.16072 26.743 7.44232C26.7929 7.72391 26.9598 7.8824 27.2435 7.9178ZM27.8436 7.09264L27.8311 7.1114C28.0782 7.14208 28.2615 7.04832 28.3812 6.83009L28.3125 6.82384C28.366 6.84974 28.4223 6.86641 28.4813 6.87385L28.4 6.83635C28.3918 6.83196 28.3834 6.8278 28.375 6.82384L28.2875 6.78634C28.2813 6.78414 28.275 6.78206 28.2687 6.78009L28.1687 6.73633C28.1543 6.73155 28.1397 6.72738 28.125 6.72382L28.0062 6.69257L27.8687 6.65506L27.7499 6.6113C27.7334 6.60639 27.7167 6.60222 27.6999 6.5988L27.5811 6.5738C27.5707 6.57143 27.5603 6.56934 27.5498 6.56754L27.4498 6.54879C27.4353 6.54615 27.4207 6.54407 27.4061 6.54254L27.3373 6.53629C27.1087 6.51341 26.9295 6.59676 26.7997 6.78634L26.7872 6.80509C26.6811 6.95669 26.6536 7.12141 26.7048 7.29924C26.756 7.47707 26.8668 7.602 27.0372 7.67401L27.0935 7.69276C27.1277 7.70871 27.1631 7.72121 27.1998 7.73027L27.331 7.76152L27.5061 7.80528L27.7186 7.86154L27.9312 7.94906L28.15 8.04283L28.3437 8.12409C28.4663 8.17888 28.5914 8.18513 28.7188 8.14284L28.8376 8.09909C28.9423 8.06226 29.0185 7.99374 29.0661 7.89351C29.1138 7.79329 29.1189 7.69094 29.0814 7.58649L29.0376 7.47397C29.0028 7.37748 28.9444 7.2983 28.8626 7.23642L28.7001 7.10515C28.6819 7.09362 28.6632 7.0832 28.6438 7.07389L28.4375 6.94887C28.4252 6.94215 28.4127 6.9359 28.4 6.93011L28.1562 6.80509C28.1319 6.7929 28.1069 6.78248 28.0812 6.77383L27.8436 6.69257C27.8313 6.68798 27.8188 6.68381 27.8061 6.68007L27.6124 6.63006C27.6061 6.62787 27.5999 6.62578 27.5936 6.62381L27.5123 6.60505C27.4136 6.75408 27.3889 6.91452 27.4382 7.08636C27.4874 7.25819 27.5934 7.38115 27.7561 7.45521L27.7686 7.43646C27.5369 7.41644 27.3577 7.50396 27.231 7.69901H27.2685L27.331 7.71151C27.3558 7.71732 27.3808 7.72149 27.4061 7.72401L27.5311 7.73652C27.5353 7.73656 27.5394 7.73656 27.5436 7.73652L27.6561 7.74277L27.7499 7.75527L27.8124 7.77402L27.8749 7.79278L27.9437 7.82403L28.0249 7.86154C28.0552 7.87481 28.0865 7.88523 28.1187 7.8928L28.1875 7.9053C28.1169 7.84273 28.0356 7.80105 27.9437 7.78028L27.9624 7.79278C28.0867 7.90564 28.2324 7.95469 28.3997 7.93992C28.5669 7.92516 28.7018 7.85134 28.8043 7.71845C28.9069 7.58556 28.9442 7.43636 28.9161 7.27085C28.888 7.10535 28.8036 6.97678 28.663 6.88516C28.5223 6.79353 28.3706 6.76832 28.2079 6.80953C28.0452 6.85074 27.9237 6.94511 27.8436 7.09264ZM28.7876 8.00532L28.8688 8.01782C29.0313 8.0427 29.125 7.97392 29.15 7.81151C29.175 7.64909 29.1063 7.55533 28.9439 7.53023L28.8626 7.51773C28.7001 7.49272 28.6063 7.56148 28.5813 7.72401C28.5563 7.88655 28.625 7.98031 28.7876 8.00532Z" fill="black"/>
<path d="M20.88 13.9064C20.88 14.0031 20.9141 14.0856 20.9825 14.154C21.0509 14.2223 21.1334 14.2565 21.23 14.2565C21.3267 14.2565 21.4092 14.2223 21.4776 14.154C21.5459 14.0856 21.5801 14.0031 21.5801 13.9064C21.5801 13.8098 21.5459 13.7273 21.4776 13.6589C21.4092 13.5905 21.3267 13.5564 21.23 13.5564C21.1334 13.5564 21.0509 13.5905 20.9825 13.6589C20.9141 13.7273 20.88 13.8098 20.88 13.9064ZM20.7862 13.8939C20.7862 14.0165 20.8295 14.1211 20.9162 14.2078C21.0029 14.2944 21.1075 14.3378 21.23 14.3378C21.3526 14.3378 21.4572 14.2944 21.5439 14.2078C21.6305 14.1211 21.6739 14.0165 21.6739 13.8939C21.6739 13.7714 21.6305 13.6668 21.5439 13.5801C21.4572 13.4934 21.3526 13.4501 21.23 13.4501C21.1075 13.4501 21.0029 13.4934 20.9162 13.5801C20.8295 13.6668 20.7862 13.7714 20.7862 13.8939ZM20.6674 13.8877C20.6675 14.0481 20.7243 14.1851 20.8378 14.2985C20.9513 14.4119 21.0883 14.4686 21.2488 14.4686C21.4092 14.4686 21.5462 14.4119 21.6597 14.2985C21.7732 14.1851 21.83 14.0481 21.8301 13.8877C21.83 13.7272 21.7732 13.5903 21.6597 13.4769C21.5462 13.3634 21.4092 13.3067 21.2488 13.3067C21.0883 13.3067 20.9513 13.3634 20.8378 13.4769C20.7243 13.5903 20.6675 13.7272 20.6674 13.8877ZM20.7799 14.294L20.8362 14.369C20.9471 14.5172 21.0929 14.611 21.2738 14.6503L21.4988 14.6941C21.5626 14.7084 21.6272 14.7147 21.6926 14.7128L22.0302 14.7003C22.094 14.6975 22.1565 14.6871 22.2177 14.6691L22.9741 14.4503C23.1173 14.4073 23.2308 14.3239 23.3147 14.2002C23.3987 14.0766 23.4342 13.9403 23.4214 13.7914C23.4085 13.6424 23.3502 13.5143 23.2463 13.4068C23.1424 13.2993 23.0162 13.2367 22.8678 13.2188L22.0802 13.1313C22.0364 13.1276 21.9927 13.1276 21.9489 13.1313L21.6114 13.15C21.6009 13.1519 21.5905 13.154 21.5801 13.1563L21.3551 13.175C21.2478 13.1866 21.1478 13.22 21.055 13.2751L20.9737 13.3251C20.8034 13.4253 20.6988 13.5724 20.6601 13.7662C20.6213 13.96 20.6613 14.1359 20.7799 14.294ZM23.1491 14.094L23.4117 14.0877C23.5519 14.0536 23.6203 13.9644 23.6169 13.8201C23.6135 13.6759 23.5409 13.59 23.3992 13.5626L23.1366 13.5689C22.9964 13.603 22.928 13.6922 22.9314 13.8365C22.9349 13.9807 23.0074 14.0666 23.1491 14.094Z" fill="black"/>
<path d="M18.0729 13.9626C18.0729 14.1668 18.175 14.2689 18.3792 14.2689C18.5834 14.2689 18.6855 14.1668 18.6855 13.9626C18.6855 13.7584 18.5834 13.6563 18.3792 13.6563C18.175 13.6563 18.0729 13.7584 18.0729 13.9626ZM18.6667 13.7126L18.6292 13.6563C18.6272 13.6563 18.6251 13.6563 18.623 13.6563L18.598 13.6125L18.5792 13.5813C18.521 13.4636 18.4305 13.3816 18.3077 13.3352C18.1848 13.2888 18.0627 13.2905 17.9412 13.3403C17.8197 13.3901 17.7315 13.4747 17.6767 13.5939C17.6218 13.7132 17.6149 13.8352 17.6561 13.9599C17.6973 14.0845 17.7754 14.1784 17.8906 14.2415C18.0057 14.3046 18.1269 14.32 18.2542 14.2877L18.3229 14.2752C18.2542 14.2587 18.1854 14.2587 18.1166 14.2752L18.1917 14.2939L18.2542 14.3064C18.4263 14.3483 18.563 14.2965 18.6641 14.151C18.7652 14.0054 18.7661 13.8593 18.6667 13.7126ZM17.4228 13.7751C17.4228 13.9512 17.485 14.1014 17.6095 14.2259C17.734 14.3505 17.8843 14.4127 18.0604 14.4127C18.2365 14.4127 18.3867 14.3505 18.5112 14.2259C18.6357 14.1014 18.698 13.9512 18.698 13.7751C18.698 13.599 18.6357 13.4487 18.5112 13.3242C18.3867 13.1997 18.2365 13.1375 18.0604 13.1375C17.8843 13.1375 17.734 13.1997 17.6095 13.3242C17.485 13.4487 17.4228 13.599 17.4228 13.7751ZM18.4167 13.175L18.3667 13.1375C18.291 13.0804 18.2077 13.0387 18.1166 13.0124L18.0604 12.9999L18.0104 12.9812C18.0524 13.0039 18.0962 13.0227 18.1416 13.0374L18.1291 13.0312L18.1104 13.0187C18.174 13.1234 18.2573 13.2088 18.3604 13.275L18.3292 13.2312L18.3042 13.1812C18.1968 12.9873 18.0385 12.8539 17.8291 12.7811L17.7416 12.7499C17.6627 12.7216 17.5814 12.705 17.4978 12.6999L17.404 12.6936C17.2997 12.6881 17.1976 12.7006 17.0977 12.7311L17.0414 12.7499C16.8942 12.7937 16.7671 12.8708 16.6601 12.9812L16.6414 12.9937C16.4811 13.1593 16.398 13.3573 16.392 13.5877C16.386 13.8181 16.4587 14.0202 16.6101 14.1939L16.6414 14.2314C16.6593 14.251 16.678 14.2698 16.6976 14.2877L16.7726 14.3564C16.8241 14.4046 16.8803 14.4463 16.9414 14.4815L17.0852 14.569C17.1016 14.5778 17.1183 14.5862 17.1352 14.594L17.3665 14.7128C17.3911 14.7243 17.4161 14.7347 17.4415 14.744L17.7478 14.869C17.7643 14.8758 17.781 14.882 17.7978 14.8878L18.1917 15.0128L18.6417 15.1691L19.1168 15.3316C19.1189 15.3337 19.121 15.3358 19.1231 15.3379L19.5982 15.4942C19.6044 15.4963 19.6107 15.4984 19.6169 15.5004L20.0358 15.6379C20.042 15.6401 20.0482 15.6422 20.0545 15.6442L20.4171 15.7505C20.4192 15.7505 20.4212 15.7505 20.4233 15.7505L20.7296 15.838C20.7359 15.8401 20.7421 15.8422 20.7484 15.8442L20.9984 15.9067C21.0109 15.9091 21.0234 15.9112 21.0359 15.913L21.2485 15.963C21.263 15.9654 21.2776 15.9675 21.2922 15.9692L21.4923 16.0068C21.5233 16.0125 21.5546 16.0167 21.5861 16.0193L21.7923 16.0318C21.8298 16.034 21.8674 16.034 21.9049 16.0318L22.1174 16.0193C22.1404 16.018 22.1633 16.016 22.1862 16.013L22.405 15.9818C22.4322 15.9788 22.4593 15.9746 22.4862 15.9692L22.6613 15.9317L23.0613 15.8755C23.0634 15.8734 23.0655 15.8713 23.0676 15.8692L23.2676 15.8442C23.2676 15.8421 23.2676 15.8401 23.2676 15.838L23.4364 15.813C23.451 15.8113 23.4656 15.8092 23.4802 15.8067L23.6302 15.7755C23.7019 15.7613 23.7706 15.7384 23.8365 15.7067L23.974 15.6379L24.1115 15.5692C24.1264 15.5613 24.141 15.553 24.1553 15.5442L24.2616 15.4817C24.2636 15.4817 24.2657 15.4817 24.2678 15.4817L24.3428 15.4316C24.3897 15.4048 24.4335 15.3735 24.4741 15.3379L24.5241 15.2941C24.6785 15.1639 24.7699 14.9988 24.7983 14.7989C24.8266 14.5989 24.7848 14.4149 24.6728 14.2469C24.5608 14.0789 24.407 13.9695 24.2115 13.9188C24.016 13.8681 23.8285 13.889 23.6489 13.9814L23.5864 14.0126C23.5843 14.0126 23.5823 14.0126 23.5802 14.0126L23.5177 14.0439L23.4677 14.0626L23.4302 14.0751L23.3801 14.0814L23.2676 14.0876C23.2593 14.0875 23.251 14.0875 23.2426 14.0876L23.0738 14.1001C23.0655 14.1021 23.0571 14.1042 23.0488 14.1064L22.855 14.1251L22.43 14.1564L22.2362 14.1689L22.0486 14.1814H21.9299L21.8236 14.1627L21.6548 14.1251L21.4673 14.0814C21.4631 14.0793 21.459 14.0772 21.4548 14.0751L21.2297 14.0251L20.9547 13.9376C20.9526 13.9376 20.9505 13.9376 20.9484 13.9376L20.5921 13.8376L20.1858 13.7126L19.7294 13.5563C19.7274 13.5563 19.7253 13.5563 19.7232 13.5563L19.2481 13.3938L18.7918 13.2375C18.7897 13.2354 18.7876 13.2333 18.7855 13.2312L18.4042 13.1062L18.1291 13.0062L17.9104 12.9124C17.902 12.9102 17.8937 12.9081 17.8853 12.9062L17.7291 12.8437C17.7044 12.8342 17.6794 12.8259 17.6541 12.8186L17.5603 12.7874C17.6589 12.875 17.7714 12.9375 17.8978 12.9749L17.8603 12.9437C17.7843 13.1206 17.7676 13.303 17.8102 13.4908C17.8528 13.6786 17.9466 13.8359 18.0916 13.9626L18.1041 13.9439C17.7621 13.9787 17.5225 14.1537 17.3853 14.469H17.4228H17.4478H17.4915C17.5674 14.4725 17.6424 14.4663 17.7166 14.4502L17.7853 14.4377C17.6556 14.3989 17.5243 14.3926 17.3915 14.419L17.454 14.4377C17.397 14.403 17.3366 14.3759 17.2727 14.3564L17.3227 14.3877C17.343 14.4012 17.3638 14.4137 17.3853 14.4252L17.4353 14.4502C17.5184 14.4906 17.6059 14.5156 17.6978 14.5252L17.7603 14.5315C17.8124 14.5367 17.8645 14.5367 17.9166 14.5315L17.9791 14.5252C18.0759 14.5155 18.1676 14.4885 18.2542 14.444L18.3167 14.419C18.4303 14.3614 18.5226 14.2798 18.5936 14.1741C18.6646 14.0683 18.7052 13.952 18.7154 13.825C18.7256 13.698 18.7042 13.5767 18.651 13.461C18.5978 13.3452 18.5197 13.2499 18.4167 13.175ZM23.2551 14.6815C23.2551 14.8921 23.3296 15.0719 23.4785 15.2208C23.6274 15.3697 23.8072 15.4441 24.0178 15.4441C24.2284 15.4441 24.4081 15.3697 24.557 15.2208C24.706 15.0719 24.7804 14.8921 24.7804 14.6815C24.7804 14.4709 24.706 14.2911 24.557 14.1422C24.4081 13.9933 24.2284 13.9189 24.0178 13.9189C23.8072 13.9189 23.6274 13.9933 23.4785 14.1422C23.3296 14.2911 23.2551 14.4709 23.2551 14.6815ZM24.049 13.9751H24.024C24.081 13.9932 24.1393 14.0036 24.199 14.0064L24.1428 13.9876C24.112 13.9792 24.0807 13.9729 24.049 13.9689L23.9615 13.9501C23.9469 13.9497 23.9323 13.9497 23.9177 13.9501L23.774 13.9314C23.7698 13.9313 23.7656 13.9313 23.7615 13.9314L23.5802 13.9189C23.5698 13.9186 23.5593 13.9186 23.5489 13.9189L23.3614 13.9064L23.1801 13.8939L22.9238 13.8501L22.5737 13.7876L22.1362 13.6938L21.6423 13.5563L21.0797 13.3813L20.4983 13.2C20.4963 13.1979 20.4942 13.1958 20.4921 13.1937L19.917 13.0187C19.9087 13.0165 19.9003 13.0144 19.892 13.0124L19.3106 12.8499C19.2736 12.8392 19.2361 12.8308 19.1981 12.8249L18.5855 12.7374C18.5523 12.7335 18.5189 12.7314 18.4855 12.7311L17.8478 12.7061C17.8291 12.7056 17.8103 12.7056 17.7916 12.7061L17.1477 12.7186C17.1247 12.7199 17.1018 12.722 17.0789 12.7249L16.4851 12.7874C16.4705 12.7871 16.4559 12.7871 16.4413 12.7874L15.9287 12.8624C15.914 12.8662 15.8995 12.8704 15.885 12.8749L15.4724 12.9499C15.464 12.9519 15.4557 12.954 15.4474 12.9562L15.1536 13.0187L14.9848 13.0499L14.8723 13.0624L14.716 13.0687H14.6285C14.7166 13.0914 14.8062 13.1018 14.8973 13.1L14.866 13.0937C14.9681 13.1695 15.0807 13.2236 15.2036 13.2562L15.1848 13.2437C15.2424 13.3177 15.3091 13.3823 15.3849 13.4375L15.3661 13.4188C15.401 13.5206 15.451 13.6144 15.5161 13.7001L15.5036 13.6563C15.4398 13.4708 15.3315 13.3166 15.1786 13.1937L15.1598 13.1812C15.223 13.285 15.3022 13.3746 15.3974 13.45L15.3786 13.425C15.2938 13.2832 15.1813 13.1686 15.0411 13.0812L15.0161 13.0624C15.0517 13.0921 15.0892 13.1192 15.1286 13.1437L15.1161 13.1375C14.907 12.9613 14.666 12.8816 14.3931 12.8983C14.1202 12.915 13.8907 13.0235 13.7046 13.2237C13.5185 13.424 13.4271 13.6609 13.4305 13.9342C13.4339 14.2076 13.5311 14.4421 13.7221 14.6377L13.7408 14.6627C13.8228 14.7476 13.9165 14.8164 14.0221 14.869L14.1284 14.919C14.1846 14.9473 14.243 14.9702 14.3034 14.9878L14.5347 15.0566C14.5759 15.0675 14.6175 15.0758 14.6597 15.0816L15.0911 15.1566C15.0952 15.1566 15.0994 15.1566 15.1036 15.1566L15.7224 15.2504L16.5038 15.3816L17.3978 15.5317L18.3417 15.6942C18.3438 15.6942 18.3459 15.6942 18.3479 15.6942L19.2731 15.8442C19.2773 15.8463 19.2814 15.8484 19.2856 15.8505L20.1545 15.9818L20.9422 16.0943C20.9526 16.0965 20.963 16.0986 20.9734 16.1005L21.6798 16.1818C21.6902 16.184 21.7006 16.1861 21.7111 16.188L22.3362 16.2443C22.3819 16.2494 22.4277 16.2515 22.4737 16.2506L23.0488 16.2255C23.0866 16.2234 23.1241 16.2192 23.1614 16.213L23.699 16.1318C23.739 16.1257 23.7786 16.1174 23.8177 16.1068L24.2866 15.9755C24.3183 15.9666 24.3496 15.9561 24.3803 15.9442L24.7742 15.7942C24.7804 15.7922 24.7867 15.7901 24.7929 15.788L25.118 15.6567L25.393 15.5442C25.3951 15.5442 25.3972 15.5442 25.3993 15.5442L25.6493 15.4441L25.9056 15.3441C25.9098 15.3421 25.914 15.34 25.9181 15.3379L26.1557 15.2379L26.387 15.1503C26.3891 15.1483 26.3911 15.1462 26.3932 15.1441L26.637 15.0503C26.6517 15.0444 26.6663 15.0382 26.6808 15.0316L26.8933 14.9378L27.1059 14.844C27.1184 14.8401 27.1309 14.8359 27.1434 14.8315L27.3496 14.7315L27.5434 14.644L27.706 14.5815L27.831 14.5377C27.7605 14.5473 27.6917 14.564 27.6247 14.5877L27.6747 14.5815C27.9102 14.4818 28.0846 14.3173 28.1977 14.0879C28.3109 13.8585 28.3353 13.6201 28.2711 13.3725C28.2068 13.125 28.0695 12.9285 27.8591 12.7831C27.6487 12.6377 27.4164 12.5787 27.1621 12.6061L27.1184 12.6186L27.0496 12.6436L26.9183 12.6749L26.7183 12.7186C26.6994 12.7223 26.6807 12.7264 26.662 12.7311L26.4432 12.7936C26.4136 12.8027 26.3844 12.8131 26.3557 12.8249L26.1307 12.9124C26.0944 12.9249 26.0589 12.9395 26.0244 12.9562L25.8244 13.0687C25.6419 13.172 25.5106 13.3205 25.4305 13.5142C25.3504 13.7079 25.3385 13.9058 25.3947 14.1077C25.4509 14.3097 25.5634 14.4729 25.7321 14.5974C25.9008 14.7218 26.0899 14.7811 26.2994 14.7753L26.5245 14.7628L26.762 14.7565C26.7662 14.7545 26.7704 14.7524 26.7745 14.7503L26.9996 14.7378C27.0268 14.7368 27.0538 14.7347 27.0808 14.7315L27.2934 14.7003C27.3207 14.6951 27.3478 14.6889 27.3747 14.6815L27.5622 14.6377C27.5938 14.6309 27.6251 14.6225 27.656 14.6127L27.806 14.5627C27.8313 14.5554 27.8563 14.547 27.881 14.5377L27.956 14.5065C28.1906 14.404 28.3632 14.2373 28.4737 14.0064C28.5842 13.7755 28.6057 13.5365 28.5383 13.2895C28.4709 13.0426 28.3309 12.8477 28.1184 12.705C27.9059 12.5622 27.6725 12.5064 27.4184 12.5373L27.3684 12.5436C27.3045 12.5523 27.242 12.5669 27.1809 12.5874L27.0308 12.6374C27.014 12.6432 26.9973 12.6494 26.9808 12.6561L26.7745 12.7374C26.7598 12.7433 26.7452 12.7495 26.7308 12.7561L26.5182 12.8499L26.2994 12.9374C26.2974 12.9395 26.2953 12.9416 26.2932 12.9437L26.0932 13.0312L25.8869 13.1062L25.6493 13.2C25.6472 13.2 25.6452 13.2 25.6431 13.2L25.3993 13.2937C25.3972 13.2937 25.3951 13.2937 25.393 13.2937L25.143 13.3875C25.143 13.3896 25.143 13.3917 25.143 13.3938L24.8867 13.4875L24.6366 13.5813C24.6282 13.5854 24.6199 13.5895 24.6116 13.5938L24.3303 13.7063L24.0178 13.8313L23.6739 13.9626L23.2989 14.0689L22.8988 14.1376L22.4612 14.1502L21.9174 14.1001L21.2422 14.0189L20.4733 13.9001C20.4713 13.9001 20.4692 13.9001 20.4671 13.9001L19.6044 13.7688L18.6917 13.6188L17.7541 13.4563C17.7499 13.4562 17.7457 13.4562 17.7416 13.4563L16.8476 13.3062L16.0537 13.175C16.0496 13.1749 16.0454 13.1749 16.0412 13.175L15.4161 13.0812C15.4078 13.079 15.3995 13.0769 15.3911 13.0749L15.0098 13.0312L14.9223 13.0062L14.9035 12.9999C14.924 13.0111 14.9448 13.0215 14.966 13.0312L14.9348 13.0187C14.6828 12.9579 14.4424 12.9882 14.2134 13.1098C13.9845 13.2313 13.8247 13.4135 13.7339 13.6563C13.6432 13.8991 13.6443 14.1415 13.7374 14.3834C13.8305 14.6253 13.9921 14.8059 14.2221 14.9253H14.2409C14.1524 14.876 14.0586 14.8406 13.9596 14.819L13.9909 14.8378C13.9214 14.7612 13.8423 14.6966 13.7533 14.644L13.7721 14.669C13.8486 14.75 13.9362 14.8167 14.0346 14.869L14.0471 14.8753L14.0784 14.894C14.0426 14.8665 14.0051 14.8415 13.9659 14.819L13.9846 14.8378C14.0167 14.8606 14.0501 14.8814 14.0846 14.9003L14.1034 14.9128C14.2364 14.9923 14.3802 15.0381 14.5347 15.0503H14.5722C14.6753 15.06 14.7774 15.0538 14.8785 15.0316L14.8973 15.0253L15.0161 15.0128C15.0349 15.0113 15.0536 15.0092 15.0723 15.0066L15.2411 14.9878C15.2684 14.9848 15.2954 14.9806 15.3224 14.9753L15.5474 14.9253L15.8537 14.8565L16.2538 14.7753L16.7414 14.6815L17.2852 14.6002L17.8478 14.544L18.3979 14.5565L18.948 14.6127L19.4919 14.7003L20.0483 14.8315C20.0503 14.8315 20.0524 14.8315 20.0545 14.8315L20.6546 14.9691C20.6588 14.9712 20.6629 14.9733 20.6671 14.9753L21.2547 15.0941C21.2651 15.0964 21.2755 15.0985 21.286 15.1003L21.8298 15.1941C21.834 15.1941 21.8382 15.1941 21.8423 15.1941L22.3174 15.2691C22.3216 15.2692 22.3258 15.2692 22.3299 15.2691L22.6988 15.3191C22.7008 15.3191 22.7029 15.3191 22.705 15.3191L22.9926 15.3566C23.005 15.359 23.0175 15.3611 23.0301 15.3629L23.2614 15.3754C23.2883 15.379 23.3154 15.3811 23.3426 15.3816L23.5489 15.3691C23.5761 15.3686 23.6032 15.3665 23.6302 15.3629L23.7927 15.3379L23.8927 15.3316H23.9615C23.9223 15.324 23.8827 15.3198 23.8427 15.3191L23.9052 15.3316C23.8007 15.1069 23.6257 14.9778 23.3801 14.9441L23.3926 14.9628C23.4649 15.1171 23.5786 15.2295 23.7336 15.3C23.8886 15.3706 24.0481 15.3824 24.2118 15.3356C24.3756 15.2887 24.5046 15.1944 24.5989 15.0525C24.6932 14.9106 24.7302 14.7551 24.71 14.586C24.6897 14.4169 24.617 14.2745 24.492 14.1589C24.3669 14.0432 24.2192 13.982 24.049 13.9751ZM25.3993 13.9189C25.3993 14.1018 25.464 14.258 25.5934 14.3874C25.7227 14.5168 25.8789 14.5815 26.0619 14.5815C26.2449 14.5815 26.4011 14.5168 26.5304 14.3874C26.6598 14.258 26.7245 14.1018 26.7245 13.9189C26.7245 13.7359 26.6598 13.5797 26.5304 13.4503C26.4011 13.3209 26.2449 13.2562 26.0619 13.2562C25.8789 13.2562 25.7227 13.3209 25.5934 13.4503C25.464 13.5797 25.3993 13.7359 25.3993 13.9189ZM25.8494 13.7001L25.7743 13.7251C25.6035 13.7834 25.5472 13.898 25.6056 14.0689C25.6639 14.2398 25.7785 14.296 25.9494 14.2377L26.0244 14.2127C26.1951 14.1542 26.2513 14.0396 26.193 13.8689C26.1347 13.6982 26.0201 13.6419 25.8494 13.7001Z" fill="black"/>
</g>
<defs>
<clipPath id="clip0_1_7396">
<rect width="40" height="39" fill="white"/>
</clipPath>
</defs>
</svg>
