<svg width="34" height="42" viewBox="0 0 34 42" fill="none" xmlns="http://www.w3.org/2000/svg">
<g clip-path="url(#clip0_1_7293)">
<path d="M14.4014 34.3014C14.4613 34.2408 14.4926 34.1679 14.4952 34.0826V34.0576C14.4785 34.0976 14.4701 34.1393 14.4701 34.1826L14.4826 34.1451C14.4084 34.1793 14.3543 34.2335 14.3201 34.3077L14.3514 34.2952C14.564 34.198 14.6253 34.0415 14.5352 33.8257C14.4451 33.6099 14.2907 33.5435 14.0721 33.6264C13.8535 33.7093 13.7819 33.8614 13.8575 34.0826L13.87 34.1201C13.8831 34.0585 13.8789 33.9981 13.8575 33.9388L13.8513 33.9764C13.8458 34.0032 13.8437 34.0303 13.845 34.0576V34.0826C13.8476 34.1679 13.8788 34.2408 13.9388 34.3014C14.0024 34.3659 14.0795 34.3981 14.1701 34.3981C14.2607 34.3981 14.3377 34.3659 14.4014 34.3014ZM13.8638 33.7388L13.82 33.8138C13.7711 33.8901 13.744 33.9734 13.7388 34.0639L13.7263 34.3764C13.7257 34.391 13.7257 34.4056 13.7263 34.4202L13.7388 34.9265L13.7575 35.5454L13.7325 36.1955L13.6762 36.7581L13.595 37.1645L13.495 37.4333L13.3949 37.6333C13.3263 37.7683 13.3126 37.9088 13.3537 38.0546C13.3948 38.2004 13.4799 38.3129 13.609 38.3922C13.7381 38.4714 13.877 38.4964 14.0256 38.4671C14.1743 38.4378 14.2933 38.362 14.3826 38.2397L14.5327 38.0396C14.5702 37.9899 14.5993 37.9358 14.6202 37.8771L14.7452 37.5395C14.7564 37.5069 14.7647 37.4736 14.7702 37.4395L14.8577 36.9519C14.8609 36.9312 14.863 36.9104 14.864 36.8894L14.9077 36.2768C14.908 36.2664 14.908 36.256 14.9077 36.2455L14.9202 35.5642C14.9205 35.5537 14.9205 35.5433 14.9202 35.5329L14.9015 34.8953C14.9016 34.889 14.9016 34.8828 14.9015 34.8765L14.864 34.3639C14.8619 34.3237 14.8557 34.2841 14.8452 34.2452L14.7577 33.9451C14.718 33.8099 14.6368 33.7078 14.5139 33.6388L14.4389 33.595C14.3394 33.5372 14.2338 33.5222 14.1221 33.5501C14.0105 33.578 13.9244 33.6409 13.8638 33.7388ZM13.445 37.9771C13.445 38.079 13.481 38.1659 13.553 38.2379C13.625 38.3099 13.7119 38.3459 13.8138 38.3459C13.9156 38.3459 14.0025 38.3099 14.0746 38.2379C14.1466 38.1659 14.1826 38.079 14.1826 37.9771C14.1826 37.8753 14.1466 37.7883 14.0746 37.7163C14.0025 37.6443 13.9156 37.6083 13.8138 37.6083C13.7119 37.6083 13.625 37.6443 13.553 37.7163C13.481 37.7883 13.445 37.8753 13.445 37.9771ZM13.87 37.8083L13.8325 37.7833C13.7033 37.6958 13.595 37.7167 13.5075 37.8458C13.4199 37.975 13.4408 38.0834 13.57 38.1709L13.6075 38.1959C13.7367 38.2834 13.845 38.2626 13.9325 38.1334C14.0201 38.0042 13.9992 37.8959 13.87 37.8083Z" fill="black"/>
<path d="M14.1701 34.614C14.1702 34.8306 14.2785 34.9389 14.4951 34.9389C14.7117 34.9389 14.8201 34.8306 14.8202 34.614C14.8201 34.3974 14.7117 34.2891 14.4951 34.2891C14.2785 34.2891 14.1702 34.3974 14.1701 34.614ZM14.0263 34.5765C14.0263 34.706 14.0721 34.8165 14.1636 34.908C14.2552 34.9996 14.3657 35.0453 14.4951 35.0453C14.6246 35.0453 14.7351 34.9996 14.8267 34.908C14.9182 34.8165 14.964 34.706 14.964 34.5765C14.964 34.447 14.9182 34.3365 14.8267 34.245C14.7351 34.1534 14.6246 34.1077 14.4951 34.1077C14.3657 34.1077 14.2552 34.1534 14.1636 34.245C14.0721 34.3365 14.0263 34.447 14.0263 34.5765ZM13.9138 34.5578C13.9138 34.7183 13.9705 34.8553 14.0841 34.9688C14.1976 35.0824 14.3346 35.1391 14.4951 35.1391C14.6557 35.1391 14.7927 35.0824 14.9062 34.9688C15.0197 34.8553 15.0765 34.7183 15.0765 34.5578C15.0765 34.3972 15.0197 34.2602 14.9062 34.1467C14.7927 34.0331 14.6557 33.9764 14.4951 33.9764C14.3346 33.9764 14.1976 34.0331 14.0841 34.1467C13.9705 34.2602 13.9138 34.3972 13.9138 34.5578ZM13.8263 34.489L13.7637 34.7765C13.7537 34.8198 13.7475 34.8635 13.745 34.9078L13.72 35.4517C13.72 35.4558 13.72 35.46 13.72 35.4642L13.7012 36.2081L13.6575 37.0582L13.6012 37.8834C13.6011 37.8896 13.6011 37.8959 13.6012 37.9021L13.5762 38.5898C13.5761 38.6232 13.5781 38.6566 13.5825 38.6898L13.6325 39.1774C13.6677 39.5122 13.8523 39.7008 14.1863 39.7432C14.5203 39.7856 14.7462 39.6491 14.864 39.3337L15.0327 38.8711C15.0464 38.8323 15.0568 38.7927 15.064 38.7523L15.189 38.0772C15.1923 38.0523 15.1944 38.0273 15.1953 38.0022L15.2703 37.177C15.2705 37.1666 15.2705 37.1562 15.2703 37.1457L15.314 36.2768C15.3142 36.2664 15.3142 36.256 15.314 36.2456L15.3203 35.4892C15.321 35.4704 15.321 35.4517 15.3203 35.4329L15.2828 34.8891C15.279 34.8403 15.2707 34.7924 15.2578 34.7453L15.1828 34.464C15.0866 34.1144 14.8573 33.943 14.4948 33.9497C14.1323 33.9563 13.9095 34.1361 13.8263 34.489ZM13.8513 39.3774C13.8513 39.4793 13.8873 39.5662 13.9593 39.6382C14.0313 39.7102 14.1182 39.7462 14.2201 39.7462C14.3219 39.7462 14.4089 39.7102 14.4809 39.6382C14.5529 39.5662 14.5889 39.4793 14.5889 39.3774C14.5889 39.2756 14.5529 39.1886 14.4809 39.1166C14.4089 39.0446 14.3219 39.0086 14.2201 39.0086C14.1182 39.0086 14.0313 39.0446 13.9593 39.1166C13.8873 39.1886 13.8513 39.2756 13.8513 39.3774ZM14.2013 39.2336H14.1951C14.0367 39.2336 13.9575 39.3128 13.9575 39.4712C13.9575 39.6295 14.0367 39.7087 14.1951 39.7087H14.2013C14.3597 39.7087 14.4389 39.6295 14.4389 39.4712C14.4389 39.3128 14.3597 39.2336 14.2013 39.2336Z" fill="black"/>
<path d="M17.1581 34.2201C17.1581 34.4285 17.2623 34.5327 17.4707 34.5327C17.6791 34.5327 17.7833 34.4285 17.7833 34.2201C17.7833 34.0118 17.6791 33.9076 17.4707 33.9076C17.2623 33.9076 17.1581 34.0118 17.1581 34.2201ZM17.0769 34.2264C17.0769 34.3351 17.1153 34.428 17.1922 34.5049C17.2691 34.5818 17.3619 34.6202 17.4707 34.6202C17.5795 34.6202 17.6723 34.5818 17.7492 34.5049C17.8261 34.428 17.8645 34.3351 17.8645 34.2264C17.8645 34.1176 17.8261 34.0248 17.7492 33.9479C17.6723 33.871 17.5795 33.8326 17.4707 33.8326C17.3619 33.8326 17.2691 33.871 17.1922 33.9479C17.1153 34.0248 17.0769 34.1176 17.0769 34.2264ZM17.1206 33.8888L17.0331 33.9701C16.9136 34.0734 16.8386 34.2026 16.8081 34.3577L16.7456 34.7202C16.7392 34.7533 16.735 34.7866 16.7331 34.8202L16.7018 35.4204C16.7014 35.4349 16.7014 35.4495 16.7018 35.4641V36.2393C16.7018 36.2413 16.7018 36.2434 16.7018 36.2455V37.0582C16.7032 37.077 16.7053 37.0958 16.7081 37.1144L16.7643 37.8708C16.7657 37.8897 16.7678 37.9084 16.7706 37.9271L16.8643 38.5272C16.8712 38.5677 16.8816 38.6073 16.8956 38.646L17.0331 39.0398C17.0942 39.2121 17.2109 39.3288 17.3832 39.3899L17.4895 39.4336C17.6134 39.4809 17.728 39.4643 17.8333 39.3836L17.927 39.3086C18.0409 39.2206 18.1117 39.106 18.1396 38.9648L18.2208 38.5522C18.2262 38.5295 18.2303 38.5066 18.2333 38.4834L18.2896 37.8771C18.2897 37.8708 18.2897 37.8646 18.2896 37.8583L18.3334 37.1019C18.3358 37.0874 18.3379 37.0728 18.3396 37.0582V36.2455C18.3397 36.2393 18.3397 36.233 18.3396 36.2268L18.3271 35.4516C18.3279 35.4308 18.3279 35.4099 18.3271 35.3891L18.2709 34.7827C18.2647 34.7359 18.2542 34.6901 18.2396 34.6452L18.1396 34.2951C18.0976 34.1495 18.0163 34.0307 17.8958 33.9388L17.802 33.8638C17.568 33.6859 17.3409 33.6942 17.1206 33.8888ZM17.5707 39.4086L17.5895 39.4149C17.7199 39.4402 17.8055 39.3896 17.8464 39.2632C17.8873 39.1368 17.8475 39.0457 17.727 38.9898L17.7082 38.9835C17.5778 38.9583 17.4922 39.0088 17.4513 39.1352C17.4104 39.2616 17.4502 39.3527 17.5707 39.4086Z" fill="black"/>
<path d="M20.015 34.6577C20.015 34.8744 20.1234 34.9828 20.3401 34.9828C20.5568 34.9828 20.6651 34.8744 20.6651 34.6577C20.6651 34.441 20.5568 34.3327 20.3401 34.3327C20.1234 34.3327 20.015 34.441 20.015 34.6577ZM19.8025 34.5702L19.7274 34.8265C19.7089 34.8855 19.6985 34.946 19.6962 35.0078L19.6837 35.5454C19.6824 35.5704 19.6824 35.5954 19.6837 35.6204L19.7399 36.3956C19.7398 36.4039 19.7398 36.4122 19.7399 36.4206L19.8337 37.277C19.8336 37.2832 19.8336 37.2895 19.8337 37.2957L19.9462 38.0959C19.9461 38.1042 19.9461 38.1126 19.9462 38.1209L20.0588 38.7835C20.0711 38.8578 20.094 38.9286 20.1275 38.9961L20.3338 39.4086C20.4726 39.6768 20.6908 39.7853 20.9884 39.7341C21.286 39.6829 21.4554 39.5078 21.4965 39.2086L21.5528 38.7523C21.5602 38.6832 21.5581 38.6145 21.5465 38.546L21.4465 37.8834L21.334 37.102L21.2402 36.2643L21.1715 35.5016C21.1686 35.4764 21.1644 35.4514 21.159 35.4266L21.0589 34.8953C21.0451 34.8225 21.0201 34.7537 20.9839 34.689L20.8527 34.4577C20.7287 34.2381 20.5413 34.1417 20.2906 34.1685C20.0398 34.1954 19.8771 34.3293 19.8025 34.5702ZM20.7214 39.4837L20.7589 39.6337C20.8148 39.7444 20.9028 39.7843 21.0229 39.7534C21.143 39.7225 21.2009 39.6451 21.1965 39.5212L21.159 39.3711C21.103 39.2605 21.015 39.2206 20.8949 39.2514C20.7748 39.2823 20.717 39.3597 20.7214 39.4837Z" fill="black"/>
<path d="M17.427 34.3202C17.427 34.5327 17.5332 34.639 17.7458 34.639C17.9583 34.639 18.0646 34.5327 18.0646 34.3202C18.0646 34.1076 17.9583 34.0014 17.7458 34.0014C17.5332 34.0014 17.427 34.1076 17.427 34.3202ZM17.2519 34.3014C17.2519 34.4343 17.2989 34.5478 17.3929 34.6418C17.4869 34.7358 17.6003 34.7828 17.7333 34.7828C17.8662 34.7828 17.9796 34.7358 18.0736 34.6418C18.1676 34.5478 18.2146 34.4343 18.2146 34.3014C18.2146 34.1685 18.1676 34.0551 18.0736 33.9611C17.9796 33.8671 17.8662 33.8201 17.7333 33.8201C17.6003 33.8201 17.4869 33.8671 17.3929 33.9611C17.2989 34.0551 17.2519 34.1685 17.2519 34.3014ZM17.0894 34.2764C17.0895 34.4507 17.1512 34.5994 17.2745 34.7226C17.3977 34.8458 17.5465 34.9074 17.7208 34.9074C17.895 34.9074 18.0438 34.8458 18.1671 34.7226C18.2903 34.5994 18.352 34.4507 18.3521 34.2764C18.352 34.1022 18.2903 33.9534 18.1671 33.8303C18.0438 33.7071 17.895 33.6455 17.7208 33.6455C17.5465 33.6455 17.3977 33.7071 17.2745 33.8303C17.1512 33.9534 17.0895 34.1022 17.0894 34.2764ZM17.0144 34.1201L16.9206 34.4014C16.9064 34.4443 16.896 34.4881 16.8894 34.5327L16.8018 35.1141C16.7992 35.1307 16.7972 35.1474 16.7956 35.1641L16.7206 35.9955C16.7185 35.9997 16.7164 36.0038 16.7143 36.008L16.6456 36.9457C16.6453 36.9582 16.6453 36.9707 16.6456 36.9832L16.6206 37.9084C16.6197 37.9292 16.6197 37.95 16.6206 37.9709L16.6581 38.746C16.6623 38.817 16.6769 38.8858 16.7018 38.9523L16.8894 39.4649C16.9183 39.5432 16.9641 39.6099 17.0269 39.6649L17.1769 39.7962L17.2082 39.9338C17.2506 40.0583 17.3363 40.1077 17.4653 40.0819C17.5944 40.0561 17.6545 39.9775 17.6457 39.8462L17.627 39.74L17.7333 39.6087C17.7645 39.5707 17.7895 39.5291 17.8083 39.4837L18.0146 38.9773C18.0347 38.9289 18.0493 38.8789 18.0583 38.8273L18.1896 38.0584C18.1921 38.0439 18.1942 38.0293 18.1959 38.0146L18.2959 37.0957C18.2959 37.0895 18.2959 37.0832 18.2959 37.077L18.3709 36.1393C18.373 36.1372 18.3751 36.1351 18.3771 36.133L18.4334 35.2954C18.4335 35.287 18.4335 35.2787 18.4334 35.2704L18.4584 34.6828C18.4593 34.643 18.4572 34.6034 18.4522 34.564L18.4209 34.2702C18.4012 34.1019 18.3312 33.9582 18.2108 33.839C18.0904 33.7198 17.946 33.6513 17.7776 33.6333C17.6091 33.6153 17.4535 33.6519 17.3107 33.743C17.1679 33.8341 17.0691 33.9598 17.0144 34.1201Z" fill="black"/>
<path d="M22.728 34.8391C22.728 35.0391 22.8281 35.1391 23.0281 35.1391C23.2281 35.1391 23.3282 35.0391 23.3282 34.8391C23.3282 34.639 23.2281 34.539 23.0281 34.539C22.8281 34.539 22.728 34.639 22.728 34.8391ZM22.6405 34.8391C22.6405 34.9461 22.6784 35.0374 22.754 35.1131C22.8297 35.1888 22.9211 35.2266 23.0281 35.2266C23.1351 35.2266 23.2265 35.1888 23.3022 35.1131C23.3778 35.0374 23.4157 34.9461 23.4157 34.8391C23.4157 34.732 23.3778 34.6407 23.3022 34.565C23.2265 34.4893 23.1351 34.4515 23.0281 34.4515C22.9211 34.4515 22.8297 34.4893 22.754 34.565C22.6784 34.6407 22.6405 34.732 22.6405 34.8391ZM22.7093 34.4077L22.628 34.464C22.474 34.5716 22.3781 34.7175 22.3405 34.9016L22.2654 35.2704C22.2598 35.2973 22.2557 35.3243 22.2529 35.3517L22.1904 35.933C22.1902 35.9434 22.1902 35.9539 22.1904 35.9643L22.1467 36.6957C22.1465 36.704 22.1465 36.7123 22.1467 36.7207L22.1217 37.5271C22.121 37.5458 22.121 37.5646 22.1217 37.5833L22.1529 38.4022C22.1539 38.455 22.1602 38.5071 22.1717 38.5585L22.3592 39.3087C22.3741 39.3682 22.397 39.4245 22.428 39.4774L22.7343 39.9963L22.8906 40.4589L22.9468 40.8214C22.9872 40.9387 23.0687 40.9885 23.1915 40.971C23.3142 40.9535 23.3785 40.8828 23.3844 40.7589L23.3344 40.3964L23.3844 39.9338L23.5907 39.3712C23.6062 39.3265 23.6166 39.2806 23.622 39.2336L23.722 38.471C23.7255 38.444 23.7275 38.4169 23.7282 38.3897L23.747 37.5708C23.747 37.5687 23.747 37.5667 23.747 37.5646L23.7595 36.7707L23.7907 36.0455C23.7911 36.031 23.7911 36.0164 23.7907 36.0018L23.7845 35.4142C23.7834 35.3912 23.7814 35.3682 23.7782 35.3454L23.7345 34.9703C23.7134 34.757 23.6155 34.5882 23.4407 34.464L23.3594 34.4077C23.1427 34.2568 22.926 34.2568 22.7093 34.4077Z" fill="black"/>
<path d="M17.5649 2.89559L17.5712 2.86434C17.5774 2.82842 17.5754 2.793 17.5649 2.75807L17.5336 2.67055C17.5307 2.6556 17.5266 2.64101 17.5211 2.62679L17.4524 2.48926C17.4452 2.47399 17.4369 2.4594 17.4274 2.44551L17.2961 2.25797C17.2845 2.24452 17.272 2.23202 17.2586 2.22046L17.0461 1.98917C17.0288 1.97076 17.0101 1.95409 16.9898 1.93916L16.6647 1.70787C16.6449 1.69367 16.6241 1.68117 16.6022 1.67036L16.1709 1.45782C16.1506 1.44806 16.1298 1.43972 16.1084 1.43281L15.6083 1.27028C15.5858 1.26247 15.5629 1.25622 15.5395 1.25153L14.9394 1.13901C14.9166 1.13556 14.8937 1.13348 14.8706 1.13276L14.1643 1.089C14.1267 1.08577 14.0892 1.08577 14.0517 1.089L13.2516 1.17652C13.2264 1.17933 13.2013 1.1835 13.1766 1.18902L12.3389 1.3703C12.3071 1.37659 12.2759 1.38493 12.2451 1.39531L11.4075 1.70162C11.3862 1.71108 11.3653 1.7215 11.345 1.73287L10.5261 2.12044C10.5048 2.12992 10.4839 2.14034 10.4636 2.1517L9.65715 2.62054C9.64009 2.63033 9.62342 2.64075 9.60714 2.6518L8.85074 3.1769C8.82922 3.1905 8.80838 3.20508 8.78823 3.22065L8.14436 3.75826C8.13145 3.77035 8.11895 3.78285 8.10685 3.79576L7.49423 4.37087C7.48123 4.38503 7.46872 4.39961 7.45673 4.41463L6.88162 5.0335C6.87084 5.0457 6.86042 5.0582 6.85036 5.07101L6.31901 5.72113C6.31035 5.73341 6.30201 5.74592 6.29401 5.75864L5.80016 6.43377C5.79595 6.43789 5.79178 6.44206 5.78766 6.44627L5.30632 7.12765L4.81247 7.81528C4.81039 7.81528 4.80831 7.81528 4.80622 7.81528L4.32488 8.50291C4.31632 8.51315 4.30798 8.52356 4.29988 8.53417L3.84979 9.22805C3.83885 9.24439 3.82843 9.26106 3.81853 9.27806L3.42471 9.96569C3.42042 9.97396 3.41625 9.9823 3.41221 9.99069L3.04964 10.6533C3.04529 10.6637 3.04112 10.6741 3.03714 10.6846L2.70582 11.3535C2.70582 11.3555 2.70582 11.3576 2.70582 11.3597L2.36201 12.0661C2.35989 12.0702 2.35781 12.0744 2.35576 12.0786L2.00569 12.8412C2.00141 12.8495 1.99724 12.8578 1.99319 12.8662L1.64312 13.6726C1.63653 13.6871 1.63028 13.7017 1.62437 13.7164L1.31181 14.5478C1.30512 14.5643 1.29887 14.581 1.29305 14.5978L1.02425 15.4355C1.01956 15.4541 1.01539 15.4729 1.01175 15.4917L0.79921 16.3106C0.794518 16.3293 0.790351 16.348 0.786707 16.3669L0.630428 17.1608C0.625488 17.1836 0.62132 17.2065 0.617925 17.2296L0.524157 17.9922C0.521562 18.0109 0.519478 18.0297 0.517906 18.0485L0.461645 18.7861C0.461018 18.807 0.461018 18.8278 0.461645 18.8486L0.449143 19.5988C0.448918 19.6113 0.448918 19.6238 0.449143 19.6363L0.474148 20.3739C0.473642 20.3927 0.473642 20.4114 0.474148 20.4302L0.530409 21.1428C0.530309 21.1512 0.530309 21.1595 0.530409 21.1678L0.599172 21.8242C0.601028 21.8367 0.603111 21.8492 0.605423 21.8617L0.69294 22.4681C0.694714 22.4827 0.696798 22.4973 0.699191 22.5118L0.805461 23.1057C0.807236 23.1203 0.80932 23.1349 0.811712 23.1494L0.942987 23.7246C0.948162 23.7519 0.954413 23.779 0.961741 23.8058L1.13677 24.3684C1.14942 24.4047 1.164 24.4401 1.18053 24.4747L1.39932 24.9873C1.42668 25.051 1.46002 25.1115 1.49934 25.1686L1.7869 25.5749C1.92574 25.7767 2.11328 25.9101 2.3495 25.975L2.73083 26.075C3.02629 26.1562 3.2813 26.0875 3.49586 25.8687C3.71042 25.6499 3.77422 25.3936 3.68726 25.0998L3.58099 24.7185C3.56623 24.667 3.54748 24.617 3.52473 24.5685L3.31844 24.1434L3.1309 23.6933L2.98088 23.2057L2.8496 22.6994L2.75583 22.1555L2.67457 21.5867L2.6058 20.9678L2.54954 20.2927L2.53704 19.5988V18.8986L2.5808 18.2235L2.67457 17.5234L2.81209 16.7857L2.99963 16.0231L3.23717 15.2417L3.53098 14.4478L3.84979 13.6476L4.17485 12.8787C4.17486 12.8767 4.17486 12.8746 4.17485 12.8725L4.46866 12.1536L4.74371 11.5097L5.06252 10.8784L5.43759 10.2095L5.86267 9.5156L6.29401 8.80922L6.73784 8.11534L7.20043 7.44021L7.67552 6.77758L8.16311 6.13996L8.68821 5.53359L9.21956 4.97099L9.80718 4.47089L10.5011 3.95204L11.2387 3.49571L11.9888 3.11438L12.7577 2.79557L13.5079 2.55803L14.2455 2.3955L14.8769 2.29548H15.3957L15.8333 2.38299L16.2522 2.50177L16.5897 2.63929L16.8398 2.76432L17.0085 2.87059L17.1273 2.9581L17.1961 3.00811C17.2169 3.02455 17.2398 3.03706 17.2648 3.04562L17.2898 3.05812C17.4433 3.10841 17.5349 3.05423 17.5649 2.89559ZM3.28718 25.6812L3.62475 25.7187C3.77033 25.735 3.85143 25.6704 3.86807 25.5248C3.8847 25.3793 3.82026 25.2981 3.67476 25.2811L3.33719 25.2436C3.19162 25.2273 3.11051 25.2919 3.09388 25.4374C3.07725 25.583 3.14168 25.6642 3.28718 25.6812Z" fill="black"/>
<path d="M12.8578 2.2142C12.8578 2.38089 12.9412 2.46424 13.1079 2.46424C13.2746 2.46424 13.3579 2.38089 13.3579 2.2142C13.3579 2.0475 13.2746 1.96415 13.1079 1.96415C12.9412 1.96415 12.8578 2.0475 12.8578 2.2142ZM12.7891 2.19544C12.7891 2.39548 12.8891 2.4955 13.0891 2.4955C13.2892 2.4955 13.3892 2.39548 13.3892 2.19544C13.3892 1.9954 13.2892 1.89539 13.0891 1.89539C12.8891 1.89539 12.7891 1.9954 12.7891 2.19544ZM13.4329 2.28296L13.4579 2.2267C13.4754 2.17393 13.4838 2.11975 13.4829 2.06417L13.4892 1.97665C13.3792 2.08243 13.3229 2.21162 13.3204 2.36422L13.3579 2.32672C13.1805 2.31467 13.0284 2.37093 12.9016 2.4955L12.9766 2.50175C12.9954 2.50256 13.0141 2.50256 13.0329 2.50175H13.2517C13.2747 2.50079 13.2976 2.4987 13.3204 2.4955L13.6955 2.45174C13.708 2.44998 13.7205 2.4479 13.733 2.44549L14.2331 2.36422L14.7957 2.27046L15.3771 2.17044L15.9834 2.08292L16.596 2.00166L17.2087 1.92039L17.7838 1.87038L18.3464 1.83912L18.8965 1.81412L19.4153 1.80787L19.9029 1.82037L20.328 1.85163L20.7343 1.91414L21.1594 1.9829C21.1656 1.98506 21.1719 1.98715 21.1782 1.98915L21.6533 2.05167C21.6553 2.05376 21.6574 2.05584 21.6595 2.05792L22.1658 2.12043L22.6659 2.19544L23.141 2.28921L23.5724 2.39548L23.9662 2.53926L24.3288 2.72054L24.6976 2.97059L25.1039 3.28315L25.5165 3.61446L25.9041 3.97078L26.2979 4.3521L26.673 4.74593L27.0355 5.15226L27.3731 5.55858L27.7169 5.97741L28.042 6.38999L28.3483 6.80257L28.6546 7.21515L28.9484 7.63398L29.2359 8.06531L29.511 8.49664L29.7548 8.94048L29.9673 9.40932L30.1549 9.92817L30.3111 10.497L30.4362 11.1096L30.5549 11.7598L30.6612 12.4849L30.7675 13.3288L30.8863 14.2477C30.8863 14.2498 30.8863 14.2519 30.8863 14.254L31.0175 15.2292L31.1551 16.2231L31.2738 17.167L31.3551 18.0172L31.3676 18.7799L31.3176 19.4737L31.1926 20.1801C31.1903 20.1905 31.1883 20.2009 31.1863 20.2114L31.08 20.949C31.0695 21.0153 31.0653 21.082 31.0675 21.1491L31.1051 21.8304C31.1117 21.9747 31.1534 22.1081 31.2301 22.2305L31.4114 22.5181L31.4426 22.8619L31.3676 23.1682C31.3344 23.2973 31.3823 23.3785 31.5114 23.4118C31.6405 23.4451 31.7218 23.3973 31.7552 23.2682L31.8302 22.9619L32.0115 22.6743L32.299 22.5243C32.4327 22.4598 32.541 22.366 32.6241 22.243L32.9929 21.6742C33.0356 21.6113 33.071 21.5446 33.0992 21.4741L33.3617 20.774C33.3863 20.7111 33.405 20.6465 33.418 20.5802L33.5618 19.8238C33.568 19.7844 33.5722 19.7448 33.5743 19.705L33.6368 18.8986C33.6393 18.8549 33.6393 18.8111 33.6368 18.7673L33.6055 17.9109C33.6062 17.888 33.6062 17.8651 33.6055 17.8422L33.5118 16.9295C33.51 16.9149 33.5079 16.9003 33.5055 16.8857L33.368 15.9168C33.366 15.9084 33.3639 15.9001 33.3617 15.8918L33.1992 14.9041L33.0492 13.9414L32.9116 13.035C32.9117 13.0288 32.9117 13.0225 32.9116 13.0163L32.7679 12.1661C32.7661 12.1515 32.764 12.1369 32.7616 12.1223L32.6053 11.3784C32.6053 11.3743 32.6053 11.3701 32.6053 11.3659L32.4553 10.6908C32.4534 10.6804 32.4513 10.6699 32.4491 10.6596L32.2865 10.0157C32.2828 9.99891 32.2786 9.98224 32.274 9.96567L32.0802 9.3343C32.073 9.30686 32.0647 9.27977 32.0552 9.25304L31.8177 8.66542C31.8047 8.63341 31.7901 8.60215 31.7739 8.57166L31.4989 8.04031C31.489 8.02332 31.4785 8.00665 31.4676 7.9903L31.1738 7.5027C31.1658 7.49001 31.1574 7.4775 31.1488 7.4652L30.8425 7.00886C30.8404 7.00468 30.8384 7.00051 30.8362 6.99636L30.5299 6.55252C30.5258 6.54622 30.5217 6.53997 30.5174 6.53377L30.1986 6.09619C30.1945 6.08988 30.1904 6.08363 30.1861 6.07743L29.8611 5.6586C29.859 5.65233 29.857 5.64608 29.8548 5.63985L29.5235 5.22727C29.5214 5.22726 29.5193 5.22726 29.5172 5.22727L29.1797 4.80219C29.1736 4.79375 29.1673 4.78542 29.1609 4.77718L28.7984 4.35835C28.7942 4.35415 28.7901 4.34998 28.7859 4.34585L28.417 3.93327C28.4109 3.92483 28.4047 3.9165 28.3983 3.90827L28.0045 3.49569C27.9962 3.4893 27.9879 3.48305 27.9795 3.47694L27.5731 3.07686C27.565 3.06836 27.5566 3.06003 27.5481 3.05186L27.1168 2.65803C27.1065 2.65157 27.0961 2.64532 27.0855 2.63928L26.648 2.27046C26.6397 2.26406 26.6314 2.25781 26.6229 2.2517L26.1729 1.90164C26.1646 1.89734 26.1563 1.89317 26.1479 1.88913L25.7103 1.57032C25.688 1.55465 25.6651 1.54007 25.6415 1.52657L25.1914 1.25776C25.1631 1.2415 25.1339 1.22691 25.1039 1.21401L24.6351 1.00772C24.6085 0.995888 24.5814 0.98547 24.5538 0.97646L24.0662 0.820181C24.0497 0.815492 24.033 0.811325 24.0162 0.807678L23.5224 0.682654C23.5079 0.678085 23.4933 0.673917 23.4786 0.670152L22.9597 0.576384C22.9452 0.57391 22.9306 0.571826 22.916 0.570133L22.3909 0.495119C22.3846 0.495047 22.3784 0.495047 22.3721 0.495119L21.8595 0.432607L21.3907 0.376346L20.9594 0.320085C20.9365 0.31702 20.9136 0.314936 20.8906 0.313834L20.4468 0.301332C20.4322 0.300923 20.4176 0.300923 20.403 0.301332L19.9279 0.307583C19.9258 0.307574 19.9238 0.307574 19.9217 0.307583L19.4028 0.320085C19.4007 0.320077 19.3987 0.320077 19.3966 0.320085L18.8527 0.338839C18.8486 0.338803 18.8444 0.338803 18.8402 0.338839L18.2714 0.363844C18.2672 0.363808 18.263 0.363808 18.2589 0.363844L17.6775 0.407602C17.6754 0.407593 17.6733 0.407593 17.6712 0.407602L17.0711 0.45136C17.0628 0.453298 17.0544 0.455382 17.0461 0.457612L16.421 0.526375C16.4168 0.526337 16.4127 0.526337 16.4085 0.526375L15.7834 0.60764C15.7813 0.607634 15.7792 0.607634 15.7771 0.60764L15.1645 0.688906C15.1541 0.690768 15.1436 0.692852 15.1333 0.695157L14.5456 0.801427C14.5436 0.801421 14.5415 0.801421 14.5394 0.801427L13.9768 0.901446C13.9684 0.903384 13.9601 0.905468 13.9518 0.907697L13.4642 1.01397C13.4537 1.01582 13.4433 1.01791 13.4329 1.02022L13.0641 1.11399C13.0232 1.12501 12.9836 1.1396 12.9453 1.15774L12.7453 1.24526C12.5653 1.32705 12.4466 1.46249 12.389 1.65159L12.3702 1.7266C12.2982 1.95715 12.3482 2.15719 12.5203 2.32672L12.5578 2.36422C12.5918 2.39608 12.6293 2.42317 12.6703 2.44549L12.7453 2.48925C12.8036 2.52286 12.8661 2.54369 12.9328 2.55176L12.9891 2.55801C13.2101 2.58427 13.3581 2.49258 13.4329 2.28296Z" fill="black"/>
<path d="M2.61831 22.5556L2.6058 22.5618L2.62456 22.5556H2.61205C2.54912 22.5451 2.48661 22.5471 2.42452 22.5618L2.26824 22.5993C2.19558 22.6178 2.1289 22.6491 2.0682 22.6931L1.86816 22.8306C1.7887 22.8879 1.7241 22.9588 1.67438 23.0432L1.49309 23.337C1.46139 23.3903 1.43639 23.4465 1.41808 23.5058L1.28055 23.9308C1.26591 23.9778 1.25549 24.0258 1.2493 24.0746L1.18053 24.5747C1.17268 24.6202 1.16852 24.6661 1.16803 24.7122L1.18053 25.2248C1.1817 25.2668 1.18587 25.3085 1.19303 25.3499L1.2743 25.8249C1.28171 25.8674 1.29213 25.909 1.30556 25.95L1.43683 26.3625C1.45739 26.4259 1.48448 26.4863 1.5181 26.5438L1.71813 26.8814C1.75065 26.9352 1.78816 26.9852 1.83066 27.0314L2.0807 27.3127C2.10634 27.3393 2.13343 27.3643 2.16197 27.3877L2.44327 27.6378C2.47129 27.6602 2.50047 27.6811 2.53079 27.7003L2.8496 27.9253L3.18091 28.1566C3.19933 28.1677 3.21808 28.1781 3.23717 28.1879L3.58724 28.4067C3.60771 28.4178 3.62855 28.4283 3.64975 28.4379L4.04358 28.638C4.0661 28.6493 4.08903 28.6597 4.11234 28.6692L4.52492 28.8505C4.5353 28.8528 4.54572 28.8549 4.55617 28.8568L4.98751 29.0256C4.98958 29.0276 4.99167 29.0297 4.99376 29.0318L5.42509 29.1943C5.43751 29.1987 5.45001 29.2029 5.4626 29.2068L5.90643 29.3569C5.92299 29.3615 5.93966 29.3656 5.95644 29.3694L6.41278 29.4944C6.42313 29.4987 6.43355 29.5029 6.44403 29.5069L6.88162 29.6132L7.27544 29.7319L7.63176 29.8632L7.93182 30.0132L8.21312 30.1945L8.47567 30.4196L8.71322 30.6821L8.94451 30.9947L9.1508 31.4073L9.33834 31.9261L9.48211 32.5637L9.58213 33.2826L9.63214 34.0578L9.66965 34.8579L9.7009 35.6268C9.70059 35.6414 9.70059 35.656 9.7009 35.6706L9.76342 36.402C9.76342 36.4061 9.76342 36.4103 9.76342 36.4145L9.82593 37.0771C9.82917 37.1022 9.83333 37.1273 9.83843 37.1521L9.93845 37.746C9.94324 37.7775 9.94949 37.8088 9.9572 37.8397L10.0947 38.3461C10.1201 38.4458 10.1597 38.5396 10.2135 38.6274L10.4448 38.99C10.5476 39.1534 10.6872 39.2742 10.8636 39.3525L11.1637 39.4838C11.4471 39.6083 11.7105 39.575 11.954 39.3839C12.1975 39.1927 12.2925 38.9448 12.2389 38.6399L12.1764 38.3148C12.1727 38.298 12.1685 38.2814 12.1639 38.2648L12.0701 37.846C12.0681 37.8418 12.066 37.8376 12.0639 37.8335L11.9451 37.3709L11.8638 36.852L11.8013 36.2332L11.7513 35.5268L11.72 34.7704L11.6825 33.9577C11.6827 33.9473 11.6827 33.9369 11.6825 33.9265L11.6263 33.1013C11.6229 33.0783 11.6187 33.0553 11.6138 33.0326L11.5012 32.2324C11.4983 32.2031 11.4942 32.1739 11.4887 32.1449L11.32 31.4073C11.3099 31.3669 11.2974 31.3273 11.2825 31.2885L11.0449 30.6509C11.029 30.6079 11.0102 30.5662 10.9886 30.5258L10.7136 29.9945C10.6898 29.9487 10.6627 29.9049 10.6323 29.8632L10.3135 29.4381C10.2886 29.4031 10.2615 29.3697 10.2323 29.3381L9.89469 28.988C9.8653 28.9569 9.83404 28.9277 9.80092 28.9005L9.43835 28.613C9.41234 28.5907 9.38525 28.5699 9.35709 28.5505L8.97577 28.3067C8.94554 28.2862 8.91428 28.2675 8.882 28.2504L8.48192 28.0504C8.44938 28.034 8.41604 28.0194 8.3819 28.0066L7.94432 27.8441C7.92782 27.8374 7.91115 27.8311 7.89431 27.8253L7.44422 27.6878C7.42359 27.6809 7.40275 27.6746 7.38171 27.669L6.93163 27.5628L6.51905 27.4503L6.11897 27.3127L5.70639 27.1627L5.29382 26.9939L4.91874 26.8439L4.58743 26.6751L4.26862 26.4876L3.94356 26.2813C3.93943 26.2771 3.93526 26.2729 3.93106 26.2688L3.62475 26.0812L3.3997 25.925L3.24342 25.7749L3.11215 25.5999L2.99963 25.3624L2.92461 25.0623L2.89336 24.6747L2.90586 24.2371L2.94337 23.8121L2.97462 23.4745C2.97486 23.4641 2.97486 23.4537 2.97462 23.4432L2.98713 23.2244L3.00588 23.0932C3.01067 23.0642 3.01275 23.035 3.01213 23.0057L3.03088 22.9682C3.09915 22.8356 3.08058 22.7167 2.97518 22.6113C2.86978 22.5059 2.75082 22.4873 2.61831 22.5556ZM11.8076 39.3588H12.1264L12.3889 39.4338C12.5387 39.4751 12.6344 39.4209 12.676 39.2711C12.7176 39.1214 12.6636 39.0256 12.5139 38.9837L12.2701 38.9212L12.0576 38.7212C11.9625 38.6318 11.8513 38.6015 11.7241 38.6301C11.5968 38.6588 11.5093 38.7339 11.4617 38.8553C11.4141 38.9768 11.4272 39.0913 11.5011 39.1988C11.5749 39.3063 11.6771 39.3596 11.8076 39.3588Z" fill="black"/>
<path d="M10.0698 31.0947C10.0698 31.2656 10.1552 31.351 10.3261 31.351C10.497 31.351 10.5824 31.2656 10.5824 31.0947C10.5824 30.9238 10.497 30.8384 10.3261 30.8384C10.1552 30.8384 10.0698 30.9238 10.0698 31.0947ZM9.851 30.8884C9.851 31.0196 9.89738 31.1316 9.99015 31.2243C10.0829 31.3171 10.1949 31.3635 10.3261 31.3635C10.4573 31.3635 10.5693 31.3171 10.662 31.2243C10.7548 31.1316 10.8012 31.0196 10.8012 30.8884C10.8012 30.7572 10.7548 30.6452 10.662 30.5525C10.5693 30.4597 10.4573 30.4133 10.3261 30.4133C10.1949 30.4133 10.0829 30.4597 9.99015 30.5525C9.89738 30.6452 9.851 30.7572 9.851 30.8884ZM9.75723 30.7509L9.68847 30.9822C9.67348 31.0248 9.66306 31.0686 9.65721 31.1135L9.60095 31.6135C9.60071 31.624 9.60071 31.6344 9.60095 31.6448L9.55719 32.3199C9.55502 32.3262 9.55293 32.3324 9.55094 32.3387L9.51968 33.1201C9.51936 33.1326 9.51936 33.1451 9.51968 33.1576L9.52593 33.9953C9.52562 34.0078 9.52562 34.0203 9.52593 34.0328L9.57594 34.8829C9.57772 34.8955 9.5798 34.908 9.5822 34.9204L9.66971 35.7518C9.67098 35.7728 9.67306 35.7936 9.67596 35.8143L9.81974 36.6082C9.82416 36.6399 9.83042 36.6711 9.83849 36.702L10.0635 37.4459C10.0751 37.4866 10.0897 37.5262 10.1073 37.5647L10.4324 38.2398C10.4597 38.2977 10.4931 38.3518 10.5324 38.4023L10.9825 38.9837C11.0145 39.0244 11.05 39.0619 11.0887 39.0962L11.6326 39.5838C11.6677 39.6161 11.7052 39.6452 11.7451 39.6713L12.3577 40.0652C12.3956 40.0911 12.4352 40.114 12.4765 40.1339L13.1641 40.4402C13.2107 40.4609 13.2586 40.4775 13.3079 40.4902L14.0956 40.6965C14.1306 40.7049 14.166 40.7111 14.2018 40.7153L15.0707 40.8341C15.0874 40.8366 15.104 40.8387 15.1208 40.8403L16.0772 40.9216C16.0834 40.9216 16.0897 40.9216 16.0959 40.9216L17.1399 40.9903C17.142 40.9903 17.1441 40.9903 17.1461 40.9903L18.2401 41.0528C18.2422 41.0528 18.2443 41.0528 18.2463 41.0528L19.3466 41.1091C19.357 41.1093 19.3674 41.1093 19.3778 41.1091L20.4343 41.1279C20.4488 41.1282 20.4634 41.1282 20.478 41.1279L21.447 41.0904C21.529 41.0871 21.6081 41.0705 21.6845 41.0403L22.4034 40.7653L22.9847 40.5903L23.4348 40.5715C23.5846 40.5629 23.6553 40.4837 23.647 40.334C23.6387 40.1842 23.5596 40.1134 23.4098 40.1214L22.9722 40.1464L22.4034 40.0026L21.7095 39.7026C21.6536 39.6764 21.5952 39.6576 21.5345 39.6463L20.5718 39.5025C20.5635 39.5003 20.5552 39.4982 20.5468 39.4963L19.4966 39.365C19.4924 39.365 19.4882 39.365 19.4841 39.365L18.3901 39.2463C18.3818 39.244 18.3735 39.242 18.3651 39.24L17.2712 39.1525C17.267 39.1525 17.2628 39.1525 17.2587 39.1525L16.221 39.0837L15.302 39.0025L14.5019 38.8837L13.808 38.7212L13.2329 38.5024L12.7328 38.2148L12.3015 37.8397L11.9326 37.3834L11.6388 36.852L11.4138 36.2332L11.2513 35.5143L11.12 34.7329L11.02 33.914L10.9575 33.1138L10.9387 32.3699L10.9512 31.7011L10.9575 31.1885C10.9586 31.1401 10.9545 31.0921 10.945 31.0447L10.8949 30.8071C10.8347 30.5084 10.6523 30.3515 10.348 30.3365C10.0436 30.3214 9.84669 30.4596 9.75723 30.7509Z" fill="black"/>
<path d="M20.7717 40.8216C20.7717 41.0174 20.8696 41.1154 21.0655 41.1154C21.2614 41.1154 21.3593 41.0174 21.3593 40.8216C21.3593 40.6257 21.2614 40.5277 21.0655 40.5277C20.8696 40.5277 20.7717 40.6257 20.7717 40.8216ZM20.7467 40.8278C20.7467 41.0403 20.853 41.1466 21.0655 41.1466C21.2781 41.1466 21.3843 41.0403 21.3843 40.8278C21.3843 40.6153 21.2781 40.509 21.0655 40.509C20.853 40.509 20.7467 40.6153 20.7467 40.8278ZM20.728 40.9716L20.7405 41.0028C20.7767 41.0997 20.8393 41.1747 20.928 41.2279L21.0218 41.2904C21.0647 41.3161 21.1106 41.3349 21.1593 41.3467L21.3281 41.3842C21.3445 41.3891 21.3612 41.3933 21.3781 41.3967L21.5906 41.4279C21.6472 41.4343 21.7035 41.4322 21.7594 41.4217L22.0345 41.3779C22.0794 41.3725 22.1232 41.3621 22.1657 41.3467L22.497 41.2091C22.5185 41.1999 22.5393 41.1895 22.5596 41.1779L22.9471 40.9653C22.971 40.9523 22.9939 40.9377 23.0159 40.9216L23.4285 40.6153C23.4554 40.5944 23.4804 40.5715 23.5035 40.5465L23.9036 40.1277C23.9239 40.1061 23.9427 40.0832 23.9598 40.0589L24.3411 39.5338C24.3548 39.5137 24.3673 39.4929 24.3786 39.4713L24.7225 38.8587C24.7315 38.8424 24.7399 38.8257 24.7475 38.8087L25.0288 38.1648C25.0357 38.1484 25.042 38.1317 25.0475 38.1148L25.2788 37.4584C25.2892 37.4298 25.2976 37.4007 25.3038 37.3709L25.4476 36.652C25.45 36.6396 25.4521 36.6271 25.4539 36.6145L25.5539 35.8456C25.5543 35.831 25.5543 35.8164 25.5539 35.8018L25.6039 35.033C25.6045 35.0163 25.6045 34.9996 25.6039 34.9829L25.5976 34.2516C25.5977 34.2453 25.5977 34.2391 25.5976 34.2328L25.5726 33.5827L25.5664 33.0138L25.5914 32.52L25.6351 32.0824L25.6914 31.7323L25.7539 31.4635L25.8039 31.2947L25.8414 31.1822C25.9032 30.9937 25.8915 30.8099 25.8063 30.6308C25.721 30.4517 25.5858 30.3267 25.4006 30.2558C25.2153 30.1848 25.0311 30.1876 24.8481 30.2639C24.665 30.3403 24.5336 30.4693 24.4537 30.6509L24.3974 30.7821C24.3846 30.8148 24.3742 30.8481 24.3661 30.8822L24.3099 31.0885C24.3054 31.1008 24.3012 31.1133 24.2974 31.126L24.2286 31.4323C24.2261 31.4468 24.224 31.4614 24.2224 31.476L24.1661 31.8698C24.1637 31.8823 24.1616 31.8948 24.1599 31.9074L24.1098 32.3887C24.1074 32.4011 24.1054 32.4137 24.1036 32.4262L24.0786 32.9638C24.078 32.9805 24.078 32.9971 24.0786 33.0138L24.0848 33.6139C24.0848 33.6202 24.0848 33.6264 24.0848 33.6327L24.1098 34.2891C24.1098 34.2932 24.1098 34.2974 24.1098 34.3016L24.1536 35.0267L24.1849 35.7643L24.1661 36.4582L24.0473 37.0896L23.8535 37.6835L23.5972 38.2773L23.2909 38.8337L22.9596 39.3088L22.6346 39.6713L22.3095 39.9339L21.9907 40.1214L21.7156 40.2464L21.5031 40.3215L21.3593 40.359L21.228 40.3715C21.1896 40.3754 21.1521 40.3837 21.1155 40.3965L21.003 40.4402C20.9628 40.4536 20.9253 40.4724 20.8905 40.4965L20.8592 40.5215C20.7015 40.6383 20.6578 40.7883 20.728 40.9716ZM24.5349 30.8634C24.5349 31.0378 24.5966 31.1866 24.7198 31.3099C24.8431 31.4331 24.9919 31.4948 25.1663 31.4948C25.3406 31.4948 25.4895 31.4331 25.6127 31.3099C25.736 31.1866 25.7977 31.0378 25.7977 30.8634C25.7977 30.6891 25.736 30.5402 25.6127 30.417C25.4895 30.2937 25.3406 30.232 25.1663 30.232C24.9919 30.232 24.8431 30.2937 24.7198 30.417C24.5966 30.5402 24.5349 30.6891 24.5349 30.8634ZM25.4226 31.0572L25.4351 31.0447C25.5893 30.8905 25.5893 30.7363 25.4351 30.5821C25.2809 30.4279 25.1267 30.4279 24.9725 30.5821L24.96 30.5946C24.8064 30.7488 24.8065 30.9029 24.9604 31.0568C25.1143 31.2107 25.2684 31.2108 25.4226 31.0572Z" fill="black"/>
<path d="M24.8287 32.1199C24.8287 32.2824 24.91 32.3637 25.0725 32.3637C25.2351 32.3637 25.3163 32.2824 25.3163 32.1199C25.3163 31.9574 25.2351 31.8761 25.0725 31.8761C24.91 31.8761 24.8287 31.9574 24.8287 32.1199ZM24.7412 32.1324C24.7412 32.3491 24.8496 32.4575 25.0663 32.4575C25.283 32.4575 25.3913 32.3491 25.3913 32.1324C25.3913 31.9157 25.283 31.8073 25.0663 31.8073C24.8496 31.8073 24.7412 31.9157 24.7412 32.1324ZM24.5599 32.1574C24.5599 32.2938 24.6081 32.4102 24.7046 32.5066C24.801 32.603 24.9174 32.6512 25.0538 32.6512C25.1901 32.6512 25.3065 32.603 25.403 32.5066C25.4994 32.4102 25.5476 32.2938 25.5476 32.1574C25.5476 32.021 25.4994 31.9046 25.403 31.8082C25.3065 31.7118 25.1901 31.6636 25.0538 31.6636C24.9174 31.6636 24.801 31.7118 24.7046 31.8082C24.6081 31.9046 24.5599 32.021 24.5599 32.1574ZM25.4789 32.5512L25.5289 32.495C25.5904 32.4272 25.6362 32.3501 25.6664 32.2637L25.7414 32.0574L25.8477 31.7573L26.029 31.351L26.2853 30.8071L26.6353 30.182L27.0729 29.4756L27.5855 28.7442L28.1606 28.0441L28.7545 27.3815L29.3046 26.7751L29.8172 26.225L30.261 25.7499C30.3385 25.6649 30.3927 25.567 30.4235 25.4561L30.5548 25.006C30.5704 24.9529 30.5767 24.8988 30.5736 24.8435L30.5611 24.6372L30.6673 24.4809C30.7507 24.3601 30.7319 24.258 30.6111 24.1746C30.4902 24.0913 30.3881 24.11 30.3048 24.2309L30.211 24.3747L30.0235 24.3997C29.9937 24.4032 29.9645 24.4094 29.936 24.4184L29.4984 24.5685C29.4025 24.6006 29.317 24.6506 29.2421 24.7185L28.7732 25.1498L28.2044 25.6312C28.2002 25.6353 28.196 25.6394 28.1919 25.6437L27.573 26.1875C27.5535 26.2033 27.5348 26.22 27.5167 26.2375L26.8916 26.9001C26.8785 26.9164 26.866 26.933 26.8541 26.9502L26.2415 27.6878C26.2284 27.704 26.2159 27.7207 26.204 27.7378L25.6601 28.513C25.6514 28.5273 25.643 28.5419 25.6351 28.5567L25.1726 29.3006C25.1616 29.3169 25.1511 29.3336 25.1413 29.3506L24.785 30.0257C24.7685 30.0561 24.7539 30.0874 24.7412 30.1195L24.5162 30.7196C24.5025 30.7605 24.492 30.8021 24.4849 30.8446L24.3849 31.3135C24.3799 31.3341 24.3757 31.355 24.3724 31.376L24.3349 31.7261C24.3262 31.7821 24.3241 31.8383 24.3286 31.8948L24.3599 32.1136C24.3778 32.2889 24.4528 32.4347 24.5849 32.5512L24.6412 32.6012C24.7644 32.7081 24.9074 32.7567 25.0702 32.747C25.233 32.7373 25.3692 32.672 25.4789 32.5512Z" fill="black"/>
<path d="M32.0302 20.1614C32.0302 20.3489 32.124 20.4427 32.3115 20.4427C32.499 20.4427 32.5928 20.3489 32.5928 20.1614C32.5928 19.9739 32.499 19.8801 32.3115 19.8801C32.124 19.8801 32.0302 19.9739 32.0302 20.1614ZM31.8739 20.1864C31.8739 20.3072 31.9166 20.4104 32.0021 20.4958C32.0875 20.5813 32.1907 20.624 32.3115 20.624C32.4323 20.624 32.5355 20.5813 32.6209 20.4958C32.7064 20.4104 32.7491 20.3072 32.7491 20.1864C32.7491 20.0656 32.7064 19.9624 32.6209 19.877C32.5355 19.7915 32.4323 19.7488 32.3115 19.7488C32.1907 19.7488 32.0875 19.7915 32.0021 19.877C31.9166 19.9624 31.8739 20.0656 31.8739 20.1864ZM31.8052 19.8926L31.6551 20.0676C31.6117 20.1211 31.5762 20.1794 31.5489 20.2427L31.3426 20.6803C31.3217 20.7267 31.305 20.7746 31.2926 20.824L31.1113 21.5242L30.8675 22.3681L30.5549 23.2745L30.1611 24.1934L29.7048 25.0873L29.2109 25.9438L28.6858 26.7689L28.2045 27.5003L27.6794 28.1504C27.6794 28.1525 27.6794 28.1546 27.6794 28.1567L27.1855 28.7818C27.1302 28.8508 27.0906 28.9279 27.0668 29.0131L26.9605 29.4194L26.6229 29.6132C26.4896 29.6924 26.4625 29.7987 26.5417 29.932C26.6208 30.0654 26.7271 30.0925 26.8605 30.0133L27.2168 29.807L27.6606 29.832C27.7954 29.8397 27.9204 29.8084 28.0357 29.7382L28.7108 29.3256C28.7606 29.2953 28.8064 29.2598 28.8483 29.2194L29.4797 28.6068C29.4994 28.5889 29.5181 28.5701 29.536 28.5505L30.1361 27.8441C30.1587 27.8162 30.1795 27.787 30.1986 27.7566L30.755 26.9252C30.7659 26.9089 30.7763 26.8922 30.7862 26.8752L31.3051 25.9813C31.3139 25.9648 31.3222 25.9482 31.3301 25.9313L31.7989 24.9873C31.81 24.9689 31.8204 24.9502 31.8302 24.9311L32.2365 23.9434C32.2435 23.9228 32.2497 23.9019 32.2552 23.8809L32.5741 22.9182C32.5811 22.8976 32.5873 22.8767 32.5928 22.8557L32.8179 21.9742C32.8225 21.9577 32.8267 21.941 32.8304 21.9242L32.9679 21.2054C32.9793 21.1518 32.9855 21.0976 32.9866 21.0428L32.9804 20.5552C32.9811 20.4874 32.9728 20.4207 32.9554 20.3552L32.8929 20.1301C32.8241 19.8876 32.6665 19.7394 32.4202 19.6856C32.1738 19.6318 31.9688 19.7008 31.8052 19.8926Z" fill="black"/>
<path d="M14.9715 12.7221H14.9848C15.0853 12.6824 15.1501 12.6106 15.1792 12.5065C15.2084 12.4024 15.1903 12.3073 15.125 12.2212C15.0596 12.1351 14.973 12.0921 14.8649 12.0921C14.7568 12.0921 14.6701 12.1351 14.6048 12.2212C14.5395 12.3073 14.5214 12.4024 14.5505 12.5065C14.5796 12.6106 14.6445 12.6824 14.745 12.7221H14.7583C14.8294 12.7499 14.9004 12.7499 14.9715 12.7221ZM14.3719 12.3491C14.3719 12.4742 14.4161 12.5809 14.5046 12.6694C14.593 12.7578 14.6998 12.8021 14.8249 12.8021C14.95 12.8021 15.0568 12.7578 15.1452 12.6694C15.2337 12.5809 15.2779 12.4742 15.2779 12.3491C15.2779 12.224 15.2337 12.1172 15.1452 12.0287C15.0568 11.9403 14.95 11.8961 14.8249 11.8961C14.6998 11.8961 14.593 11.9403 14.5046 12.0287C14.4161 12.1172 14.3719 12.224 14.3719 12.3491ZM15.1713 11.8694L15.0581 11.7428C14.9879 11.6629 14.9035 11.6029 14.8049 11.563L14.5584 11.4697C14.4498 11.4238 14.3365 11.4038 14.2187 11.4097L13.8057 11.4431C13.7136 11.4486 13.6248 11.4686 13.5392 11.503L12.9929 11.7295C12.9341 11.7547 12.8786 11.7858 12.8264 11.8228L12.2201 12.2425C12.1825 12.2687 12.147 12.2976 12.1135 12.3291L11.4807 12.9153C11.4472 12.9464 11.4161 12.9798 11.3874 13.0153L10.7878 13.7547C10.7614 13.7865 10.7369 13.8198 10.7145 13.8547L10.135 14.774C10.1129 14.8084 10.0929 14.8439 10.075 14.8806L9.55538 15.9598C9.54056 15.9903 9.52724 16.0213 9.51541 16.0531L9.08239 17.2189C9.06943 17.2538 9.05833 17.2894 9.04908 17.3255L8.74929 18.5046C8.73759 18.5485 8.72871 18.5929 8.72264 18.6379L8.57608 19.8104C8.5699 19.8635 8.56768 19.9168 8.56942 19.9703L8.59607 21.0228C8.59789 21.0948 8.60677 21.1658 8.62272 21.236L8.82257 22.1087C8.83979 22.1918 8.86644 22.2717 8.90251 22.3485L9.23561 23.0281C9.28184 23.1183 9.33957 23.2005 9.40882 23.2745L9.86182 23.7742C9.91196 23.8311 9.96747 23.8822 10.0284 23.9274L10.528 24.2871C10.5906 24.332 10.6572 24.3698 10.7279 24.4004L11.2475 24.6269C11.331 24.6622 11.4176 24.6867 11.5073 24.7002L12.0269 24.7868C12.1539 24.807 12.2805 24.8048 12.4067 24.7801L12.9529 24.6735C13.0505 24.6552 13.1437 24.6241 13.2327 24.5803L13.8123 24.2871C13.8783 24.2557 13.9405 24.2179 13.9988 24.1739L14.5851 23.7076C14.6202 23.6807 14.6535 23.6519 14.685 23.621L15.2446 23.048C15.268 23.0246 15.2902 23.0002 15.3112 22.9748L15.8442 22.3219C15.8654 22.2962 15.8854 22.2695 15.9041 22.2419L16.3838 21.5158C16.4056 21.4836 16.4256 21.4503 16.4438 21.4159L16.8635 20.6031C16.8754 20.5813 16.8865 20.5591 16.8968 20.5365L17.2898 19.6372C17.297 19.6196 17.3036 19.6018 17.3098 19.5839L17.6629 18.6246C17.6678 18.6069 17.6723 18.5892 17.6762 18.5713L17.9693 17.6119C17.9773 17.5834 17.984 17.5545 17.9893 17.5253L18.1758 16.5993C18.1851 16.5598 18.1917 16.5198 18.1958 16.4794L18.2558 15.6334C18.2571 15.5866 18.2548 15.5399 18.2491 15.4935L18.1892 14.714C18.1857 14.6691 18.1791 14.6247 18.1692 14.5808L18.0093 13.8946C17.9993 13.8492 17.986 13.8048 17.9693 13.7614L17.7428 13.1885C17.7138 13.1148 17.6761 13.046 17.6296 12.9819L17.3165 12.5489C17.2621 12.4726 17.1977 12.406 17.1233 12.3491L16.7236 12.0426C16.6539 11.99 16.5784 11.9478 16.497 11.916L16.0174 11.7295C15.953 11.7022 15.8863 11.6823 15.8175 11.6696L15.2779 11.583C15.2051 11.5702 15.1319 11.5658 15.0581 11.5696L14.4519 11.6096C14.3677 11.6149 14.2856 11.6304 14.2054 11.6562L13.5458 11.8628C13.4587 11.8896 13.3765 11.9274 13.2994 11.976L12.6265 12.409C12.5792 12.4409 12.5348 12.4765 12.4933 12.5156L11.7871 13.1418C11.7408 13.1848 11.6986 13.2314 11.6605 13.2817L11.0143 14.1078C10.9825 14.148 10.9537 14.1902 10.9277 14.2344L10.3681 15.187C10.3485 15.2216 10.3307 15.2571 10.3148 15.2936L9.85516 16.3262C9.84044 16.3567 9.82711 16.3878 9.81519 16.4195L9.45545 17.4654C9.44797 17.4896 9.44131 17.514 9.43546 17.5387L9.16233 18.5579C9.15437 18.5887 9.14771 18.6198 9.14234 18.6512L8.96913 19.6172C8.95929 19.6812 8.95485 19.7456 8.95581 19.8104L8.94915 20.6764C8.94924 20.7595 8.95813 20.8417 8.9758 20.9229L9.12902 21.649C9.15559 21.7693 9.2 21.8825 9.26226 21.9888L9.58869 22.5684C9.65264 22.6792 9.73258 22.7769 9.82852 22.8615L10.2948 23.2679C10.3737 23.3372 10.4603 23.395 10.5547 23.4411L11.0943 23.7076C11.1732 23.7456 11.2554 23.7745 11.3408 23.7942L11.9203 23.9274C11.9796 23.9409 12.0396 23.9498 12.1002 23.9541L12.6798 24.0007C12.7511 24.005 12.8221 24.0027 12.893 23.994L13.4392 23.9341C13.5279 23.9262 13.6145 23.9084 13.6991 23.8808L14.2187 23.6942C14.2928 23.6702 14.3639 23.6391 14.4319 23.601L14.9582 23.2879C15.0172 23.2528 15.0727 23.2128 15.1247 23.1679L15.6577 22.7083C15.6905 22.679 15.7216 22.6479 15.7509 22.615L16.2972 22.0288C16.3304 21.9951 16.3615 21.9596 16.3905 21.9222L16.8901 21.2293C16.9223 21.1848 16.9511 21.1381 16.9767 21.0894L17.3964 20.31C17.4197 20.2625 17.4397 20.2137 17.4564 20.1634L17.7695 19.3174C17.7959 19.2504 17.8159 19.1816 17.8294 19.1109L17.9826 18.1982C17.9921 18.1364 17.9966 18.0742 17.996 18.0117L18.0026 17.0524C18.0025 17.0123 18.0003 16.9723 17.996 16.9324L17.896 15.9465C17.8931 15.913 17.8886 15.8797 17.8827 15.8466L17.7028 14.9206C17.6964 14.8779 17.6875 14.8357 17.6762 14.794L17.423 13.9879C17.3992 13.9137 17.3681 13.8426 17.3298 13.7747L16.9834 13.1552C16.921 13.0392 16.8411 12.9371 16.7435 12.8487L16.2839 12.449C16.1379 12.3169 15.9691 12.2281 15.7776 12.1825L15.198 12.0559C14.9884 12.0097 14.7819 12.0208 14.5784 12.0893L13.8989 12.3158C13.7618 12.3615 13.6374 12.4303 13.5259 12.5223L12.7797 13.1352C12.7046 13.1958 12.638 13.2646 12.5799 13.3417L11.8337 14.3543C11.799 14.4009 11.768 14.4497 11.7405 14.5009L11.0476 15.7999C11.0254 15.8388 11.0054 15.8787 10.9877 15.9198L10.4281 17.3188C10.4179 17.3495 10.409 17.3806 10.4014 17.4121L10.0017 18.7112C9.98829 18.7527 9.97719 18.7949 9.96841 18.8377L9.76856 19.9236C9.75794 19.9787 9.75128 20.0342 9.74857 20.0902L9.7086 20.9096C9.7026 21.0338 9.71592 21.156 9.74857 21.276L9.88847 21.7889C9.98575 22.1426 10.2012 22.3958 10.5347 22.5484L10.8811 22.7083C11.2043 22.8573 11.5285 22.8595 11.8537 22.7149L12.4133 22.4685C12.5207 22.4188 12.6184 22.3544 12.7064 22.2753L13.4326 21.649C13.4835 21.6042 13.5301 21.5554 13.5725 21.5025L14.3586 20.5298C14.3902 20.4895 14.4191 20.4474 14.4452 20.4033L15.1514 19.2374C15.1847 19.1843 15.2136 19.1287 15.238 19.0709L15.7776 17.7585C15.8032 17.6959 15.8232 17.6315 15.8375 17.5653L16.1107 16.3129C16.1345 16.2075 16.1434 16.101 16.1373 15.9931L16.0707 15.0405C16.0559 14.7994 15.9737 14.584 15.8242 14.3943L15.4445 13.9213C15.1427 13.5444 14.7563 13.409 14.2853 13.5149L13.7057 13.6415C13.4621 13.6979 13.2578 13.82 13.0928 14.0079L12.4999 14.6807C12.4305 14.7595 12.3727 14.8461 12.3267 14.9405L11.8204 15.9665C11.7906 16.0265 11.7662 16.0887 11.7471 16.153L11.4007 17.3388C11.3826 17.3977 11.3693 17.4577 11.3607 17.5187L11.2142 18.6712C11.2054 18.742 11.2032 18.8131 11.2075 18.8844L11.2608 19.8237C11.2702 19.9755 11.3079 20.1198 11.3741 20.2567L11.6339 20.803C11.8358 21.2263 12.1711 21.4462 12.6398 21.4625L13.0595 21.4758C13.3844 21.4876 13.6642 21.381 13.8989 21.1561L14.4252 20.6498C14.5061 20.5752 14.575 20.4909 14.6317 20.3966L15.1514 19.4906C15.1851 19.4353 15.214 19.3776 15.238 19.3174L15.631 18.2515C15.6514 18.1928 15.667 18.1328 15.6776 18.0716L15.8775 17.0657C15.8963 16.9619 15.9007 16.8575 15.8908 16.7526L15.8309 16.0131C15.808 15.7361 15.6992 15.4985 15.5044 15.3003L15.2113 15.0005C15.0384 14.8232 14.8299 14.7132 14.586 14.6703C14.3421 14.6274 14.1086 14.6597 13.8856 14.7673L13.4193 14.9872C13.2482 15.0699 13.1061 15.1876 12.9929 15.3403L12.5266 15.9665C12.4698 16.0429 12.4231 16.125 12.3867 16.213L12.0669 16.9924C12.0278 17.0844 12.0012 17.1799 11.987 17.2789L11.887 18.0183C11.863 18.1879 11.8764 18.3544 11.927 18.518L12.0869 19.0109C12.1998 19.3677 12.4329 19.6075 12.7864 19.7304L13.1195 19.8437C13.4283 19.9526 13.7236 19.9238 14.0055 19.7571L14.3186 19.5705C14.6962 19.3514 14.8431 19.0276 14.7594 18.5992C14.6757 18.1708 14.4178 17.9261 13.9855 17.8651L13.9256 17.8584L13.8856 17.8185C13.9371 18.0629 14.057 18.2672 14.2453 18.4314L14.1854 18.1316L14.2387 17.7452L14.4585 17.2322L14.6717 16.9524L14.8982 16.8392C14.7227 16.668 14.5139 16.5634 14.2716 16.5255C14.0294 16.4875 13.7986 16.5233 13.5791 16.6327L13.8789 16.9258C13.8571 16.6391 13.7438 16.3949 13.5392 16.193L13.5858 16.7859L13.4392 17.5453L13.1195 18.4247L12.7264 19.0909L12.3067 19.4839C12.6383 19.5034 12.9248 19.399 13.1661 19.1708L12.7464 19.1442C12.9409 19.5602 13.2673 19.7823 13.7257 19.8104L13.5658 19.4639L13.5325 18.8644L13.6658 17.9117L13.9589 16.9058L14.3519 16.1064L14.5984 15.8266L14.8116 15.7799C14.505 15.4056 14.1164 15.2746 13.6458 15.3869L13.7923 15.5668L13.8256 15.9865L13.6125 16.9657L13.1261 18.0916L12.4933 19.1175L11.8204 19.9369L11.3008 20.3766L10.9011 20.5565C11.2221 20.7033 11.5441 20.7055 11.867 20.5632L11.5206 20.4033C11.6179 20.7569 11.8333 21.0101 12.1668 21.1627L12.0736 20.8363L12.1069 20.2834L12.2867 19.3374L12.6398 18.1516L13.1595 16.8525L13.779 15.68L14.3919 14.8473L14.8582 14.4476L15.0314 14.3876L15.0115 14.3809L15.0847 14.4476L15.2779 14.7873L15.4778 15.4135L15.631 16.2196L15.7109 17.0857L15.691 17.8917L15.5577 18.6112L15.3112 19.2841L14.9648 19.917L14.5451 20.4899L14.0988 20.9695L13.6791 21.3093L13.3327 21.5158L13.0529 21.6157L12.7398 21.649L12.3667 21.6291L12.0069 21.5358L11.7205 21.4026L11.5273 21.2227L11.3741 20.9695L11.2808 20.5498L11.2741 19.897L11.3941 19.0642L11.6139 18.1449L11.9337 17.1856L12.34 16.2463L12.813 15.3802L13.346 14.6474L13.8789 14.1011L14.3519 13.768L14.7783 13.5948L15.158 13.5349L15.4711 13.5615L15.7176 13.6415L15.8975 13.7747L16.064 13.9946L16.2239 14.3809L16.3372 14.9139L16.3771 15.5534L16.3105 16.2663L16.1373 17.0857L15.8508 17.9584L15.4911 18.8244L15.0714 19.6238L14.6184 20.3433L14.1654 20.9962L13.6857 21.5624L13.1994 22.0488L12.7464 22.3952L12.4 22.5684L12.1735 22.615L11.9803 22.5817L11.7005 22.4618L11.3874 22.2353L11.1143 21.9355L10.9011 21.5158L10.7612 20.8629L10.7279 19.9836L10.8478 18.9643L11.1143 17.8984L11.494 16.8125L11.947 15.8066L12.4333 14.9339L12.913 14.2344L13.4059 13.6948L13.8723 13.3017L14.292 13.0419L14.5784 12.8953L14.7117 12.8487L14.8116 12.8354C15.0457 12.8075 15.2039 12.6831 15.2862 12.4621C15.3684 12.2412 15.3302 12.0436 15.1713 11.8694ZM14.6517 18.6912L14.685 18.5313L14.7916 18.418C14.8928 18.286 14.8836 18.1622 14.764 18.0466C14.6444 17.931 14.5204 17.926 14.3919 18.0316L14.312 18.1183H14.1854C14.056 18.115 13.9433 18.1568 13.8472 18.2435C13.7512 18.3303 13.6982 18.4382 13.6883 18.5673C13.6784 18.6963 13.7143 18.811 13.796 18.9114C13.8777 19.0118 13.9828 19.0702 14.1112 19.0868C14.2395 19.1033 14.3559 19.0733 14.4604 18.9969C14.5648 18.9204 14.6286 18.8185 14.6517 18.6912Z" fill="black"/>
<path d="M23.6452 15.7133L23.6252 15.6667L23.5853 15.5401L23.5453 15.3536C23.5432 15.3469 23.541 15.3402 23.5386 15.3336L23.4853 15.1271L23.4454 14.9272C23.4374 14.8886 23.4263 14.8508 23.412 14.814L23.3454 14.6474C23.3044 14.5415 23.2426 14.4496 23.1599 14.3717C23.0773 14.2938 22.9819 14.2375 22.8738 14.2027C22.7657 14.168 22.6554 14.1582 22.5428 14.1734C22.4303 14.1886 22.3265 14.2273 22.2314 14.2894C22.1364 14.3516 22.0594 14.4312 22.0003 14.5282C21.9413 14.6252 21.9061 14.7302 21.8946 14.8432C21.8831 14.9562 21.8965 15.0662 21.9347 15.1731C21.973 15.28 22.0324 15.3735 22.113 15.4535L22.2396 15.5801C22.2762 15.6155 22.3162 15.6466 22.3595 15.6734L22.546 15.7933C22.5674 15.808 22.5896 15.8213 22.6126 15.8332L22.8258 15.9332C22.8539 15.9446 22.8827 15.9535 22.9124 15.9598L23.1056 16.0131L23.2188 16.0464L23.2455 16.0598C23.3606 16.1263 23.4683 16.116 23.5688 16.029C23.6692 15.9419 23.6947 15.8367 23.6452 15.7133ZM21.8132 14.6341L21.6999 14.9339C21.6671 15.0175 21.6471 15.1041 21.64 15.1937L21.58 15.9398C21.578 15.9754 21.578 16.0109 21.58 16.0464L21.6133 17.1257C21.6143 17.1546 21.6165 17.1835 21.62 17.2123L21.7799 18.438C21.7828 18.4693 21.7872 18.5004 21.7932 18.5313L22.0597 19.7038C22.0716 19.7516 22.0872 19.7983 22.1063 19.8437L22.4927 20.8363C22.5175 20.8995 22.5486 20.9595 22.586 21.0162L23.059 21.7357C23.111 21.8136 23.1732 21.8825 23.2455 21.9422L23.7252 22.3419C23.9064 22.4934 24.1151 22.569 24.3514 22.5684H24.8244C25.123 22.5687 25.3695 22.4554 25.5638 22.2286L25.9902 21.7357C26.0706 21.6406 26.1306 21.534 26.1701 21.4159L26.5032 20.4366C26.5207 20.3866 26.534 20.3355 26.5431 20.2834L26.7763 18.9177C26.7808 18.8801 26.783 18.8423 26.783 18.8044L26.8629 17.2389C26.8655 17.1989 26.8655 17.159 26.8629 17.119L26.7363 15.5401C26.7336 15.4907 26.7269 15.4419 26.7163 15.3936L26.3699 13.9812C26.357 13.9263 26.3393 13.873 26.3166 13.8214L25.8303 12.7222C25.7931 12.6371 25.7442 12.5594 25.6837 12.489L25.1108 11.8361C24.972 11.6757 24.7988 11.5736 24.5912 11.5297L24.0049 11.4098C23.7104 11.35 23.4462 11.4144 23.2122 11.603L22.6526 12.0493C22.5291 12.151 22.4358 12.2753 22.3728 12.4224L21.9464 13.3883C21.9152 13.4612 21.893 13.5367 21.8798 13.6148L21.6466 14.9406C21.6389 14.9869 21.6345 15.0335 21.6333 15.0805L21.5867 16.5661C21.5868 16.6039 21.589 16.6417 21.5934 16.6793L21.7066 18.1916C21.7117 18.2433 21.7206 18.2944 21.7333 18.3448L22.0464 19.7238C22.0627 19.788 22.0849 19.8502 22.113 19.9103L22.5993 21.0295C22.6293 21.1026 22.667 21.1714 22.7125 21.236L23.3121 22.0488C23.3924 22.1585 23.4901 22.2496 23.6052 22.3219L24.2648 22.7283C24.4544 22.847 24.6609 22.9003 24.8843 22.8882L25.5438 22.8482C25.7619 22.8354 25.9573 22.7621 26.1301 22.6284L26.723 22.1687C26.839 22.0793 26.9322 21.9705 27.0028 21.8423L27.4691 20.9829C27.513 20.905 27.5463 20.8228 27.5691 20.7364L27.8622 19.5572C27.878 19.4893 27.8869 19.4204 27.8888 19.3507L27.9554 17.985C27.957 17.9202 27.9526 17.8558 27.9421 17.7918L27.7356 16.3662C27.7267 16.298 27.7111 16.2314 27.689 16.1663L27.2093 14.8273C27.1898 14.7696 27.1654 14.7141 27.136 14.6608L26.4898 13.5282C26.4554 13.4688 26.4154 13.4132 26.3699 13.3617L25.6504 12.529C25.5708 12.4349 25.4776 12.3571 25.3706 12.2958L24.6445 11.8961C24.4366 11.7794 24.2145 11.7372 23.9783 11.7695L23.2921 11.8628C23.0467 11.8974 22.8379 12.004 22.6659 12.1825L22.053 12.8088C21.9599 12.9042 21.8867 13.013 21.8332 13.1352L21.3469 14.2411C21.3171 14.3121 21.2949 14.3853 21.2802 14.4609L20.9871 15.8799C20.9719 15.9479 20.963 16.0167 20.9605 16.0864L20.9405 17.612C20.9395 17.6881 20.9462 17.7636 20.9605 17.8385L21.2203 19.2841C21.2363 19.3645 21.2608 19.4422 21.2936 19.5173L21.7999 20.7364C21.8345 20.8217 21.8789 20.9017 21.9331 20.9762L22.5993 21.8756C22.6722 21.974 22.7588 22.0584 22.8591 22.1287L23.5786 22.635C23.7559 22.7626 23.9535 22.8337 24.1715 22.8482L24.8577 22.8882C25.1157 22.9016 25.3511 22.835 25.5638 22.6883L26.1367 22.2953C26.284 22.1962 26.4017 22.0696 26.4898 21.9155L26.9295 21.1294C26.9793 21.0434 27.017 20.9523 27.0428 20.8563L27.3226 19.7571C27.3393 19.6937 27.3504 19.6293 27.3559 19.5639L27.4558 18.2848C27.4604 18.2135 27.4582 18.1425 27.4491 18.0716L27.2959 16.7659C27.2883 16.7003 27.275 16.6359 27.2559 16.5727L26.8962 15.3736C26.8761 15.3043 26.8495 15.2377 26.8163 15.1737L26.2966 14.1944C26.2498 14.1066 26.192 14.0267 26.1234 13.9546L25.5105 13.3084C25.3835 13.175 25.2325 13.0795 25.0575 13.0219L24.4047 12.8088C24.1438 12.7222 23.8862 12.7311 23.6319 12.8354L23.0057 13.0952C22.8101 13.1767 22.6502 13.3032 22.526 13.4749L21.9797 14.2211C21.91 14.3171 21.8568 14.4214 21.8199 14.5342L21.4535 15.6667C21.4255 15.7512 21.4078 15.8378 21.4002 15.9265L21.2936 17.2589C21.2858 17.3457 21.2881 17.4324 21.3002 17.5187L21.4868 18.8244C21.4992 18.9114 21.5214 18.9958 21.5534 19.0776L21.9931 20.1968C22.0303 20.2899 22.0792 20.3765 22.1396 20.4566L22.7192 21.2427C22.8344 21.3946 22.9787 21.5101 23.1522 21.5891L23.7918 21.8889C24.0824 22.0256 24.3777 22.0367 24.6778 21.9222L25.2774 21.6957C25.4918 21.613 25.665 21.4775 25.797 21.2893L26.2966 20.5832C26.3659 20.4893 26.4192 20.3872 26.4565 20.2767L26.7763 19.2508C26.8039 19.1685 26.8216 19.0841 26.8296 18.9976L26.9162 17.8718C26.9209 17.7891 26.9164 17.707 26.9029 17.6253L26.763 16.6327C26.747 16.5164 26.7137 16.4054 26.663 16.2996L26.3433 15.6467C26.2295 15.4141 26.0563 15.2409 25.8236 15.1271L25.4106 14.9206C25.0286 14.7327 24.6577 14.7526 24.2981 14.9805L23.885 15.2403C23.7134 15.3492 23.5802 15.4936 23.4853 15.6734L23.1855 16.2529C23.1254 16.3662 23.0855 16.4861 23.0656 16.6127L22.9524 17.3255C22.9367 17.4343 22.9367 17.5431 22.9524 17.6519L23.0456 18.3381C23.0637 18.4769 23.1059 18.6079 23.1722 18.7312L23.4387 19.2175C23.5443 19.4094 23.6931 19.5582 23.885 19.6638L24.2248 19.8504C24.5666 20.0382 24.913 20.0471 25.264 19.877L25.5905 19.7171C25.8185 19.6061 25.9895 19.4374 26.1034 19.2108L26.3166 18.7845C26.381 18.6541 26.4188 18.5164 26.4299 18.3714L26.4765 17.8251C26.4871 17.6967 26.476 17.5701 26.4432 17.4454L26.31 16.9658C26.2518 16.7476 26.1386 16.5633 25.9702 16.4128L25.7237 16.193C25.3765 15.8821 24.9857 15.811 24.5512 15.9798L24.2714 16.0931C23.9663 16.2092 23.7509 16.4179 23.6252 16.7193L23.4653 17.099C23.442 17.1596 23.4242 17.2218 23.412 17.2855L23.3055 17.7519C23.2641 17.9488 23.2774 18.142 23.3454 18.3314L23.512 18.8178C23.5793 19.0105 23.6992 19.1615 23.8717 19.2708L24.1315 19.4307L24.3447 19.7504L24.458 20.1102C24.5165 20.2592 24.6217 20.3084 24.7736 20.2577C24.9255 20.2071 24.9802 20.1046 24.9376 19.9503L24.8244 19.6105L24.8577 19.2908L25.0242 19.0842C25.0867 19.0102 25.1355 18.928 25.1708 18.8378L25.3506 18.3581C25.358 18.3361 25.3647 18.3139 25.3706 18.2915L25.4572 18.0117L25.5971 17.8251C25.3787 17.9041 25.2011 18.0373 25.0642 18.2249L25.3506 18.1183C25.0178 17.853 24.6514 17.793 24.2514 17.9384L24.5113 18.1449C24.4455 17.9136 24.3189 17.7227 24.1315 17.572L24.2115 17.8585L24.2048 17.9784L24.0982 18.1849C24.3342 18.0775 24.5118 17.9087 24.6312 17.6786L24.3047 17.8251C24.6356 18.0073 24.9731 18.0207 25.3173 17.8651L25.2774 17.8451L25.2374 17.5254L25.2974 17.1456L25.3773 16.9991L25.5239 16.9058C25.144 16.7278 24.7776 16.7523 24.4246 16.9791L24.4979 17.0124L24.5645 17.1456L24.6711 17.8251L24.6045 18.6912L24.3714 19.4173L24.1715 19.6905L24.3247 19.6372L24.3647 19.6572L24.0449 19.2308L23.7185 18.3781L23.5719 17.3188L23.6519 16.2396L23.925 15.3936L24.1782 15.0272L24.1382 15.0471L24.1115 15.0405L24.4246 15.3603L24.8177 16.1064L25.1042 17.099L25.2107 18.2049L25.1175 19.2841L24.891 20.1368L24.6378 20.5632L24.6112 20.5832H24.6245L24.3047 20.37L23.8384 19.7438L23.432 18.7578L23.2055 17.532L23.2255 16.2196L23.452 15.0005L23.7851 14.1678L23.9983 13.928L23.965 13.9346L24.2048 14.0612L24.7378 14.6541L25.2907 15.6134L25.6971 16.7592L25.8769 17.985L25.817 19.1442L25.5705 20.0902L25.264 20.6298L25.1042 20.7564H25.1175L24.9043 20.6165L24.4779 20.0702L24.0849 19.1509L23.7851 17.9251L23.6119 16.5461L23.6319 15.207L23.8184 14.0612L24.0982 13.3883L24.1249 13.3684L23.925 13.335L24.1915 13.6215L24.5912 14.5075L24.8976 15.7533L24.9976 17.1923L24.891 18.6379L24.6578 19.8703L24.398 20.6031L24.378 20.6231H24.6845L24.5845 20.5432L24.2514 20.0369L23.9183 19.2042L23.6785 18.1449L23.5253 17.0057L23.472 15.9665L23.4387 15.227C23.4377 15.2003 23.4354 15.1736 23.432 15.1471L23.3921 14.834C23.3704 14.6466 23.2933 14.4859 23.1606 14.3518C23.028 14.2177 22.8681 14.1388 22.681 14.1151C22.4939 14.0914 22.3194 14.128 22.1575 14.2248C21.9956 14.3216 21.8809 14.4581 21.8132 14.6341Z" fill="black"/>
<path d="M18.6421 24.3205C18.6421 24.5203 18.7421 24.6203 18.9419 24.6203C19.1418 24.6203 19.2417 24.5203 19.2417 24.3205C19.2417 24.1206 19.1418 24.0207 18.9419 24.0207C18.7421 24.0207 18.6421 24.1206 18.6421 24.3205ZM18.4822 24.2472C18.4822 24.3741 18.5271 24.4825 18.6169 24.5722C18.7066 24.662 18.815 24.7069 18.9419 24.7069C19.0688 24.7069 19.1772 24.662 19.2669 24.5722C19.3567 24.4825 19.4016 24.3741 19.4016 24.2472C19.4016 24.1203 19.3567 24.0119 19.2669 23.9222C19.1772 23.8324 19.0688 23.7875 18.9419 23.7875C18.815 23.7875 18.7066 23.8324 18.6169 23.9222C18.5271 24.0119 18.4822 24.1203 18.4822 24.2472ZM18.3623 24.2006C18.3623 24.3588 18.4183 24.4938 18.5301 24.6057C18.642 24.7175 18.777 24.7735 18.9352 24.7735C19.0935 24.7735 19.2285 24.7175 19.3404 24.6057C19.4522 24.4938 19.5082 24.3588 19.5082 24.2006C19.5082 24.0424 19.4522 23.9073 19.3404 23.7954C19.2285 23.6836 19.0935 23.6276 18.9352 23.6276C18.777 23.6276 18.642 23.6836 18.5301 23.7954C18.4183 23.9073 18.3623 24.0424 18.3623 24.2006ZM19.0485 23.5277L18.9952 23.521C18.7674 23.4754 18.5697 23.5331 18.4023 23.6943L18.2824 23.8142C18.2659 23.8311 18.2504 23.8489 18.2358 23.8675L18.0226 24.114C18.0134 24.1248 18.0045 24.1359 17.9959 24.1473L17.7095 24.5337C17.695 24.5552 17.6817 24.5774 17.6695 24.6003L17.3697 25.1066C17.3602 25.124 17.3513 25.1418 17.3431 25.1599L17.0499 25.7395C17.0453 25.7483 17.0409 25.7571 17.0366 25.7661L16.7901 26.3257C16.783 26.341 16.7763 26.3566 16.7701 26.3723L16.5903 26.8453C16.5857 26.8541 16.5812 26.863 16.5769 26.872L16.457 27.225C16.4522 27.2383 16.4478 27.2516 16.4437 27.265L16.3771 27.4982C16.3316 27.6617 16.336 27.8238 16.3904 27.9845L16.4171 28.0711C16.4591 28.1987 16.5282 28.3095 16.6243 28.4034C16.7204 28.4973 16.8327 28.5638 16.9613 28.6029C17.0898 28.642 17.2202 28.6493 17.3523 28.6248C17.4844 28.6003 17.6035 28.5468 17.7095 28.4642L17.8494 28.3576C17.9071 28.3132 17.9582 28.2621 18.0026 28.2043L18.2358 27.8912C18.2526 27.8676 18.2681 27.8432 18.2824 27.818L18.5822 27.3183C18.5891 27.3074 18.5958 27.2963 18.6022 27.285L18.9352 26.6588C18.9424 26.6434 18.949 26.6279 18.9552 26.6122L19.2617 25.966C19.2665 25.9527 19.2709 25.9394 19.275 25.926L19.5282 25.3064C19.5354 25.2889 19.5421 25.2711 19.5481 25.2531L19.7213 24.7335C19.7295 24.705 19.7362 24.6761 19.7413 24.6469L19.8346 24.2072C19.8481 24.1458 19.8547 24.0836 19.8546 24.0207V23.7076C19.8539 23.5417 19.8094 23.3885 19.7213 23.2479L19.6014 23.068C19.4011 22.7505 19.1146 22.615 18.7421 22.6617L18.4889 22.695C18.3165 22.7175 18.1633 22.7841 18.0292 22.8948L17.6495 23.2013C17.5833 23.2556 17.5255 23.3177 17.4763 23.3878L17.0699 23.9674C17.0422 24.0077 17.0178 24.0499 16.9966 24.094L16.6103 24.8734C16.5979 24.8995 16.5868 24.9262 16.5769 24.9534L16.2572 25.7994C16.2445 25.8299 16.2334 25.861 16.2239 25.8927L16.0173 26.6988C16.0064 26.7338 15.9975 26.7693 15.9907 26.8054L15.8974 27.4715C15.8937 27.5025 15.8915 27.5336 15.8908 27.5648L15.8708 28.0445C15.8657 28.1534 15.879 28.2599 15.9108 28.3642L15.984 28.5907C16.0257 28.7236 16.0934 28.8415 16.1872 28.9445C16.2809 29.0474 16.392 29.1259 16.5203 29.1798C16.6487 29.2337 16.7825 29.2581 16.9216 29.2529C17.0608 29.2478 17.1924 29.2136 17.3164 29.1503L17.4696 29.0704C17.6185 28.9934 17.7384 28.8846 17.8294 28.744L18.0759 28.3642C18.101 28.3259 18.1232 28.2859 18.1425 28.2443L18.4223 27.6381C18.4322 27.614 18.4411 27.5896 18.4489 27.5648L18.7154 26.832C18.7202 26.8166 18.7247 26.801 18.7287 26.7854L18.9552 26.0392C18.9657 26.0086 18.9746 25.9775 18.9819 25.946L19.1085 25.2798C19.1163 25.2335 19.1208 25.1868 19.1218 25.1399L19.1418 24.6269C19.1475 24.5014 19.1298 24.3792 19.0885 24.2605L18.9819 23.9607C18.8432 23.5566 18.5612 23.3345 18.1358 23.2945L17.9293 23.2746C17.595 23.2433 17.3152 23.3521 17.0899 23.601L16.8368 23.8808C16.7759 23.9473 16.7248 24.0205 16.6835 24.1006L16.4104 24.6203C16.398 24.6486 16.3869 24.6775 16.3771 24.7069L16.1306 25.3131C16.1208 25.3372 16.1119 25.3616 16.104 25.3864L15.9174 25.9793C15.9098 26.0035 15.9032 26.0279 15.8974 26.0526L15.7775 26.5722C15.7673 26.6206 15.7606 26.6694 15.7575 26.7187L15.7176 27.1584C15.7108 27.2364 15.713 27.3141 15.7242 27.3916L15.7709 27.718C15.7866 27.828 15.82 27.9324 15.8708 28.0311L15.9641 28.211C16.0643 28.4081 16.2139 28.5548 16.4129 28.6512C16.6119 28.7476 16.8198 28.7741 17.0366 28.7306L17.1699 28.704C17.4352 28.6522 17.644 28.5145 17.7961 28.2909L17.9693 28.0378C17.9945 27.9972 18.0168 27.955 18.0359 27.9112L18.2358 27.4982C18.2453 27.4785 18.2542 27.4585 18.2624 27.4382L18.4489 26.9852C18.4593 26.9546 18.4682 26.9235 18.4756 26.892L18.5955 26.4856C18.6198 26.4029 18.6331 26.3185 18.6355 26.2324V25.9593C18.6464 25.5598 18.4776 25.2622 18.1292 25.0666L17.9959 25C17.6545 24.8082 17.3169 24.8149 16.9833 25.02L16.7502 25.1599C16.6845 25.2018 16.6246 25.2506 16.5703 25.3064L16.2838 25.5862C16.258 25.6116 16.2335 25.6382 16.2105 25.6662L15.9374 26.0059C15.9281 26.0212 15.9192 26.0368 15.9108 26.0526L15.6643 26.3857C15.6502 26.4052 15.6369 26.4251 15.6243 26.4456L15.4444 26.7387C15.4248 26.771 15.407 26.8044 15.3911 26.8387L15.2779 27.0785C15.2445 27.1511 15.22 27.2266 15.2046 27.305L15.1646 27.4915C15.1398 27.6132 15.1376 27.7354 15.158 27.8579L15.178 27.9778C15.2186 28.2226 15.3341 28.4247 15.5244 28.5841L15.5976 28.644C15.8272 28.8336 16.0892 28.9069 16.3838 28.8639L16.4903 28.8505C16.6128 28.8341 16.7282 28.7963 16.8368 28.7373L16.9567 28.6707C17.0673 28.6088 17.1628 28.5288 17.2431 28.4308L17.3564 28.2909C17.4278 28.2047 17.4834 28.1092 17.5229 28.0045L17.5962 27.818C17.6358 27.715 17.658 27.6084 17.6628 27.4982L17.6695 27.2983C17.6728 27.199 17.6617 27.1013 17.6362 27.0052L17.5895 26.832C17.5616 26.7172 17.5149 26.6107 17.4496 26.5122L17.383 26.4123C17.1987 26.142 16.9433 25.9954 16.6169 25.9726H16.5436C16.1696 25.945 15.872 26.0826 15.6509 26.3857L15.5843 26.4789C15.515 26.5744 15.4639 26.6787 15.4311 26.792L15.3845 26.9519C15.3683 27.0087 15.3572 27.0664 15.3512 27.1251L15.3312 27.3183C15.3193 27.4234 15.3237 27.5277 15.3445 27.6314L15.3911 27.8379C15.4211 27.9792 15.4789 28.108 15.5643 28.2243L15.6776 28.3842C15.853 28.6239 16.0884 28.7594 16.3838 28.7906L16.5703 28.8106C16.806 28.8364 17.0236 28.7854 17.2231 28.6574L17.4496 28.5108C17.5481 28.4457 17.6325 28.3658 17.7028 28.271L17.9226 27.9845C17.9731 27.9207 18.0153 27.8519 18.0492 27.778L18.2158 27.3849C18.238 27.3331 18.2557 27.2798 18.2691 27.225L18.3823 26.7787C18.3871 26.7633 18.3916 26.7477 18.3956 26.7321L18.4889 26.2591C18.4916 26.2414 18.4938 26.2236 18.4956 26.2058L18.5555 25.7728C18.5581 25.7573 18.5603 25.7417 18.5622 25.7261L18.6022 25.373C18.6024 25.3597 18.6024 25.3464 18.6022 25.3331L18.6155 25.0799C18.6181 25.0377 18.6181 24.9955 18.6155 24.9534L18.6022 24.7868C18.5927 24.6329 18.5505 24.4885 18.4756 24.3538L18.4223 24.2605C18.282 24.0103 18.0732 23.8482 17.7961 23.7742L17.7095 23.7542C17.3573 23.6607 17.0442 23.734 16.7701 23.9741L16.6169 24.1073C16.5534 24.1648 16.4979 24.2292 16.4504 24.3005L16.2239 24.6203C16.202 24.6524 16.182 24.6857 16.1639 24.7202L15.9108 25.1932C15.8989 25.215 15.8878 25.2372 15.8774 25.2598L15.6376 25.7861C15.6228 25.8165 15.6095 25.8476 15.5976 25.8794L15.4311 26.379C15.4148 26.4225 15.4015 26.4669 15.3911 26.5122L15.3045 26.9519C15.2885 27.0311 15.2818 27.111 15.2845 27.1917L15.2912 27.5448C15.2961 27.6696 15.3228 27.7895 15.3711 27.9046L15.4844 28.1777C15.5292 28.2884 15.5914 28.3883 15.6709 28.4775L15.8441 28.6707C15.918 28.7506 16.0024 28.8173 16.0973 28.8705L16.2705 28.9705C16.4131 29.0514 16.5664 29.0958 16.7302 29.1037L16.8834 29.117C17.1326 29.1295 17.3569 29.0606 17.5562 28.9105L17.6895 28.8106C17.7845 28.7379 17.8644 28.6513 17.9293 28.5508L18.0492 28.3709C18.0769 28.3283 18.1013 28.2839 18.1225 28.2377L18.2224 28.0245C18.2345 28.0005 18.2456 27.9761 18.2557 27.9512L18.3423 27.718L18.4289 27.4782L18.5155 27.265L18.6155 27.0585L18.7554 26.812C18.7786 26.769 18.7986 26.7246 18.8153 26.6788L18.9286 26.379C18.9456 26.3334 18.9589 26.2868 18.9686 26.2391L19.0352 25.926C19.0787 25.7175 19.0454 25.5221 18.9352 25.3397L18.8486 25.1998C18.7365 25.0142 18.5722 24.9276 18.3557 24.94L18.1891 24.9534C18.0353 24.9624 17.8954 25.0113 17.7694 25.0999L17.5096 25.2864C17.4817 25.3072 17.4551 25.3294 17.4297 25.3531L17.1898 25.5662C17.1229 25.6273 17.0651 25.6962 17.0166 25.7728L16.8501 26.0326C16.8331 26.0607 16.8176 26.0896 16.8034 26.1192L16.6635 26.3857C16.654 26.4054 16.6451 26.4253 16.6369 26.4456L16.5236 26.7054C16.519 26.7164 16.5146 26.7275 16.5103 26.7387L16.4171 26.9852C16.4148 26.9919 16.4125 26.9985 16.4104 27.0052L16.3371 27.1917L16.2905 27.2917L16.2172 27.4049C16.3086 27.3357 16.3863 27.2535 16.4504 27.1584L16.3171 27.2584C16.5589 27.266 16.7766 27.1972 16.97 27.0518L16.8168 27.0452C16.9671 27.1328 17.1292 27.1794 17.3031 27.1851L17.2698 27.1718L17.3231 27.225L17.3564 27.2983V27.265L17.4097 27.0052L17.5496 26.5988L17.7561 26.1392L17.9626 25.7395L18.0892 25.5596L18.1558 25.493C17.8626 25.4776 17.6095 25.5708 17.3964 25.7728L17.483 25.7794C17.2988 25.4619 17.0234 25.2931 16.6569 25.2731L16.7102 25.3664C16.6967 25.2167 16.6523 25.0768 16.5769 24.9467L16.5836 25.0466L16.5769 25.1865L16.537 25.493L16.4837 25.8927L16.4037 26.3057L16.3171 26.6521L16.2239 26.8853L16.1906 26.9253L16.1306 26.9652C16.3663 26.9911 16.5839 26.94 16.7835 26.812L16.5969 26.792C16.7718 27.0438 17.0116 27.1859 17.3164 27.2184L17.2098 27.0585C17.2339 27.2034 17.2872 27.3367 17.3697 27.4582L17.3564 27.3849V27.4316L17.3764 27.3583C17.3115 27.448 17.2626 27.5457 17.2298 27.6514L17.2964 27.5581C16.9021 27.5177 16.5912 27.6598 16.3638 27.9845L16.437 27.9912C16.2621 27.7234 16.0156 27.5724 15.6976 27.5382L15.7575 27.6381C15.7297 27.5383 15.6875 27.4451 15.631 27.3583L15.6376 27.3849L15.6443 27.2917L15.6243 27.3516C15.7024 27.2536 15.7601 27.1448 15.7975 27.0252L15.6843 27.1651C15.801 27.1006 15.9009 27.0162 15.984 26.9119L15.8641 26.9852C15.9993 26.9687 16.1258 26.9265 16.2439 26.8586L16.1373 26.872C16.3524 27.0432 16.5967 27.1142 16.8701 27.0851L16.7968 27.0252C16.8398 27.2785 16.9619 27.485 17.1632 27.6447L17.1432 27.5248C17.1135 27.6528 17.1091 27.7816 17.1299 27.9112L17.1499 27.8313L17.1898 27.7447L17.3231 27.5315L17.5229 27.245L17.7494 26.9719L17.9093 26.8054L18.0492 26.7187C17.7219 26.571 17.4066 26.5932 17.1032 26.7854L17.2365 26.852C17.231 26.4297 17.0355 26.1321 16.6502 25.9593V26.0925L16.5903 26.3057L16.4437 26.6721L16.2971 26.9852L16.1639 27.1784C16.4253 27.1267 16.6319 26.9912 16.7835 26.772L16.6502 26.7987C16.7409 27.0159 16.8903 27.1796 17.0982 27.2898C17.3061 27.4 17.5254 27.4317 17.7561 27.3849L17.7428 27.3516L17.7361 27.2783L17.7761 26.9852L17.876 26.5522L18.0359 26.0326L18.2424 25.5063L18.4289 25.1332L18.6022 24.9334C18.3032 24.9411 18.0567 25.0588 17.8627 25.2864L18.0692 25.2798C17.8866 24.8802 17.5757 24.687 17.1365 24.7002L17.1898 24.8201L17.1965 25.0466L17.1232 25.5662L16.93 26.2191L16.6902 26.8853L16.457 27.3916L16.2439 27.718C16.3893 27.6421 16.507 27.5355 16.5969 27.3983L16.4437 27.4782C16.4827 27.6147 16.5491 27.7363 16.6428 27.8429C16.7366 27.9496 16.8487 28.031 16.9791 28.0871C17.1095 28.1433 17.2457 28.1688 17.3876 28.1637C17.5295 28.1585 17.6634 28.1232 17.7894 28.0578L17.7694 27.9778L17.7827 27.698L17.8693 27.1384L18.0625 26.4323L18.349 25.6728L18.6821 24.98L18.9819 24.507L19.0885 24.3938H19.1085C18.8605 24.0932 18.5497 23.9977 18.1758 24.1073L18.3157 24.2738C18.2997 24.0874 18.2309 23.923 18.1092 23.7809L18.1292 24.0007L18.0892 24.2805L17.956 24.7202L17.7361 25.2864L17.4563 25.8993L17.1432 26.4856L16.8767 26.9319L16.7302 27.1251L16.6769 27.1718C16.7286 27.291 16.8043 27.3924 16.904 27.4759C17.0036 27.5595 17.1167 27.6163 17.2431 27.6464C17.3696 27.6766 17.4961 27.6768 17.6227 27.6472C17.7493 27.6176 17.8626 27.5613 17.9626 27.4782L17.9226 27.3916C17.8842 27.5684 17.902 27.7394 17.9759 27.9046L18.0159 27.7047L18.1158 27.4049L18.2824 26.9652L18.5089 26.4389L18.7887 25.8727L19.0485 25.3464C19.0486 25.342 19.0486 25.3375 19.0485 25.3331L19.255 24.9001C19.2573 24.8934 19.2596 24.8868 19.2617 24.8801L19.3749 24.6269L19.4216 24.5536L19.4282 24.5403C19.4945 24.4529 19.5356 24.3549 19.5514 24.2463C19.5673 24.1377 19.556 24.0321 19.5174 23.9294C19.4789 23.8266 19.418 23.7396 19.3346 23.6682C19.2513 23.5968 19.1559 23.55 19.0485 23.5277ZM18.7287 25.2998L18.802 25.0932C18.8553 24.9422 18.8065 24.8401 18.6554 24.7868C18.5044 24.7335 18.4023 24.7824 18.349 24.9334L18.2757 25.1399C18.2227 25.2908 18.2715 25.3928 18.4224 25.4461C18.5732 25.4993 18.6753 25.4505 18.7287 25.2998Z" fill="black"/>
<path d="M21.8332 23.8608C21.8332 24.0651 21.9354 24.1672 22.1397 24.1672C22.344 24.1672 22.4461 24.0651 22.4461 23.8608C22.4461 23.6565 22.344 23.5543 22.1397 23.5543C21.9354 23.5543 21.8332 23.6565 21.8332 23.8608ZM21.7733 23.8341C21.7732 23.9335 21.8084 24.0182 21.8786 24.0885C21.9489 24.1587 22.0337 24.1939 22.133 24.1939C22.2323 24.1939 22.3171 24.1587 22.3874 24.0885C22.4576 24.0182 22.4927 23.9335 22.4927 23.8341C22.4927 23.7348 22.4576 23.65 22.3874 23.5797C22.3171 23.5095 22.2323 23.4744 22.133 23.4744C22.0337 23.4744 21.9489 23.5095 21.8786 23.5797C21.8084 23.65 21.7732 23.7348 21.7733 23.8341ZM21.6733 23.7742C21.6733 23.8974 21.7169 24.0026 21.8041 24.0898C21.8912 24.1769 21.9964 24.2205 22.1197 24.2205C22.2429 24.2205 22.3481 24.1769 22.4353 24.0898C22.5224 24.0026 22.566 23.8974 22.566 23.7742C22.566 23.6509 22.5224 23.5457 22.4353 23.4585C22.3481 23.3714 22.2429 23.3278 22.1197 23.3278C21.9964 23.3278 21.8912 23.3714 21.8041 23.4585C21.7169 23.5457 21.6733 23.6509 21.6733 23.7742ZM21.5268 23.6942C21.5268 23.8506 21.582 23.9841 21.6926 24.0946C21.8032 24.2052 21.9367 24.2605 22.093 24.2605C22.2494 24.2605 22.3829 24.2052 22.4934 24.0946C22.604 23.9841 22.6593 23.8506 22.6593 23.6942C22.6593 23.5378 22.604 23.4044 22.4934 23.2938C22.3829 23.1832 22.2494 23.128 22.093 23.128C21.9367 23.128 21.8032 23.1832 21.6926 23.2938C21.582 23.4044 21.5268 23.5378 21.5268 23.6942ZM21.3669 23.6276C21.3669 23.8134 21.4326 23.972 21.5639 24.1034C21.6953 24.2348 21.8539 24.3004 22.0397 24.3004C22.2255 24.3004 22.3841 24.2348 22.5155 24.1034C22.6469 23.972 22.7126 23.8134 22.7126 23.6276C22.7126 23.4418 22.6469 23.2832 22.5155 23.1518C22.3841 23.0204 22.2255 22.9548 22.0397 22.9548C21.8539 22.9548 21.6953 23.0204 21.5639 23.1518C21.4326 23.2832 21.3669 23.4418 21.3669 23.6276ZM21.2736 23.3478L21.1537 23.601C21.1172 23.6839 21.095 23.7705 21.0871 23.8608L21.0338 24.3804C21.0296 24.4136 21.0274 24.4469 21.0271 24.4803L21.0338 25.1598C21.0349 25.1844 21.0372 25.2088 21.0404 25.2331L21.1204 25.9726C21.1233 26.0017 21.1278 26.0305 21.1337 26.0592L21.2803 26.7454C21.2854 26.7746 21.2921 26.8034 21.3003 26.832L21.4868 27.4115C21.4977 27.448 21.511 27.4835 21.5268 27.5181L21.7266 27.9312C21.7557 27.9908 21.7912 28.0463 21.8332 28.0977L22.0197 28.3309C22.2102 28.567 22.4567 28.6736 22.7592 28.6507L22.9258 28.6373C23.2205 28.6145 23.4448 28.4768 23.5986 28.2243L23.7252 28.0111C23.7802 27.9224 23.8179 27.827 23.8384 27.7247L23.9117 27.3316C23.922 27.2743 23.9264 27.2166 23.925 27.1584L23.9184 26.6121C23.9167 26.5718 23.9123 26.5319 23.905 26.4922L23.8051 25.8393C23.8007 25.8034 23.794 25.7679 23.7851 25.7328L23.5853 25.0599C23.5743 25.0235 23.561 24.988 23.5453 24.9533L23.2855 24.3537C23.2702 24.317 23.2524 24.2815 23.2322 24.2472L22.9524 23.7941C22.8939 23.7006 22.8207 23.6207 22.7326 23.5543L22.4661 23.3545C22.1982 23.1533 21.9073 23.1111 21.5934 23.2279L21.3602 23.3145C21.1131 23.4038 20.9355 23.5681 20.8273 23.8075L20.6807 24.1406C20.6424 24.2279 20.618 24.3189 20.6074 24.4137L20.5475 24.9267C20.5414 24.9753 20.5392 25.0242 20.5408 25.0732L20.5675 25.7527C20.5682 25.7839 20.5704 25.815 20.5741 25.846L20.6674 26.5655C20.6718 26.6036 20.6785 26.6414 20.6874 26.6787L20.8606 27.3449C20.8701 27.3766 20.8812 27.4077 20.8939 27.4382L21.0871 27.9645C21.1056 28.0129 21.1278 28.0595 21.1537 28.1044L21.3402 28.4441C21.4081 28.5645 21.497 28.6666 21.6067 28.7506L21.7666 28.8772C22.1391 29.1648 22.5255 29.1848 22.9258 28.9371L23.059 28.8572C23.2902 28.715 23.4412 28.5129 23.512 28.2509L23.5919 27.9578C23.6136 27.8748 23.6247 27.7904 23.6253 27.7047L23.6319 27.2183C23.634 27.1806 23.634 27.1428 23.6319 27.1051L23.5653 26.4855C23.5625 26.452 23.5581 26.4187 23.552 26.3856L23.4121 25.6861C23.4063 25.6614 23.3997 25.637 23.3921 25.6128L23.2056 24.9267C23.1978 24.8996 23.1889 24.873 23.1789 24.8467L22.9591 24.2472C22.9453 24.213 22.9298 24.1797 22.9124 24.1472L22.6859 23.6876C22.6385 23.5963 22.5785 23.5141 22.5061 23.4411L22.2995 23.2279C22.0394 22.9588 21.7263 22.8633 21.3602 22.9414L21.187 22.9747C20.8635 23.0447 20.6303 23.229 20.4875 23.5277L20.3543 23.8008C20.3125 23.8878 20.2836 23.9788 20.2677 24.0739L20.1944 24.5403C20.185 24.5976 20.1806 24.6554 20.1811 24.7135V25.3464C20.1812 25.3842 20.1834 25.422 20.1877 25.4596L20.2743 26.1858C20.2791 26.2216 20.2858 26.2572 20.2943 26.2923L20.4609 27.0252C20.4681 27.0589 20.477 27.0922 20.4875 27.1251L20.694 27.7646C20.706 27.7941 20.7193 27.823 20.734 27.8512L20.9472 28.3442C20.9677 28.395 20.9921 28.4439 21.0205 28.4908L21.227 28.8105C21.284 28.8988 21.3528 28.9765 21.4335 29.0437L21.6134 29.1969C21.8142 29.3639 22.0451 29.4439 22.3062 29.4368L22.4394 29.4301C22.7333 29.4243 22.9798 29.3133 23.1789 29.097L23.2788 28.9837C23.4018 28.8499 23.4839 28.6944 23.5253 28.5174L23.5653 28.3309C23.5882 28.2345 23.5971 28.1367 23.5919 28.0378L23.5786 27.7979C23.5768 27.7555 23.5724 27.7133 23.5653 27.6714L23.5053 27.3649C23.5 27.3357 23.4933 27.3069 23.4854 27.2783L23.3921 26.9519L23.3121 26.5855C23.3082 26.5676 23.3038 26.5498 23.2988 26.5322L23.1856 26.1591C23.1733 26.1136 23.1577 26.0691 23.1389 26.0259L23.0057 25.7261C22.9797 25.6698 22.9486 25.6165 22.9124 25.5662L22.7592 25.353C22.6133 25.1501 22.4179 25.0235 22.173 24.9733L22.0197 24.94C21.6702 24.8669 21.3828 24.9689 21.1575 25.2459C20.9322 25.523 20.891 25.8252 21.0338 26.1525L21.1004 26.299C21.1228 26.3502 21.1494 26.399 21.1803 26.4456L21.2736 26.5855L21.3469 26.752L21.4202 27.0185L21.4801 27.3383L21.5201 27.6514L21.5334 27.8646V27.9312L21.5134 28.0178C21.6152 27.8984 21.6862 27.7629 21.7266 27.6114L21.6267 27.7247C21.9548 27.7339 22.2257 27.614 22.4394 27.3649L22.3062 27.3582C22.4875 27.5029 22.694 27.5784 22.9258 27.5848L22.8725 27.5448L22.8058 27.4382L22.646 27.0718L22.4661 26.5189L22.3195 25.886L22.2462 25.2664L22.2396 24.7601L22.2662 24.5136L22.3262 24.3804C22.0035 24.4589 21.7748 24.6498 21.64 24.9533L21.8132 24.9067C21.5432 24.6319 21.2212 24.5408 20.8473 24.6335L20.9405 24.7268L21.0738 24.9999L21.2603 25.5062L21.4135 26.1058L21.5268 26.7254L21.5734 27.245V27.5648L21.5268 27.7513C21.746 27.6013 21.8859 27.397 21.9465 27.1384L21.8132 27.2317C22.1967 27.489 22.5786 27.4868 22.9591 27.225L22.9524 27.2183L22.8991 27.1384L22.7392 26.772L22.586 26.2257L22.4794 25.5995L22.4328 25.0399L22.4594 24.7401L22.546 24.5336C22.3332 24.6381 22.1822 24.8002 22.093 25.0199L22.3195 24.9133C22.0431 24.7631 21.7633 24.7564 21.4801 24.8934L21.5867 24.9533L21.7266 25.1465L21.9398 25.6062L22.1063 26.1658L22.1863 26.6987L22.1929 27.0984L22.1596 27.2583L22.113 27.3449C22.4109 27.319 22.6352 27.1768 22.7859 26.9186L22.6193 26.9319C22.8109 27.1423 23.0486 27.2355 23.3321 27.2117L23.2056 27.0718L23.079 26.8253L22.9258 26.3523L22.7925 25.7527L22.7192 25.0932L22.7059 24.4803L22.7326 23.9873L22.7459 23.7075C22.7537 23.5235 22.7023 23.3578 22.5916 23.2106C22.481 23.0633 22.3362 22.9678 22.1572 22.9241C21.9783 22.8804 21.8058 22.8983 21.6397 22.978C21.4736 23.0576 21.3516 23.1809 21.2736 23.3478ZM21.0538 25.7594C21.0538 25.947 21.1201 26.1072 21.2528 26.2399C21.3855 26.3726 21.5456 26.4389 21.7333 26.4389C21.9209 26.4389 22.0811 26.3726 22.2138 26.2399C22.3464 26.1072 22.4128 25.947 22.4128 25.7594C22.4128 25.5718 22.3464 25.4116 22.2138 25.2789C22.0811 25.1462 21.9209 25.0799 21.7333 25.0799C21.5456 25.0799 21.3855 25.1462 21.2528 25.2789C21.1201 25.4116 21.0538 25.5718 21.0538 25.7594ZM21.4601 25.6661L21.4335 25.7128C21.3786 25.8471 21.4143 25.9498 21.5408 26.0209C21.6673 26.092 21.7736 26.0693 21.8599 25.9526L21.8865 25.906C21.9414 25.7717 21.9057 25.6689 21.7792 25.5978C21.6527 25.5267 21.5464 25.5495 21.4601 25.6661Z" fill="black"/>
</g>
<defs>
<clipPath id="clip0_1_7293">
<rect width="34" height="42" fill="white"/>
</clipPath>
</defs>
</svg>
