<svg width="32" height="30" viewBox="0 0 32 30" fill="none" xmlns="http://www.w3.org/2000/svg">
<g clip-path="url(#clip0_1_7220)">
<path d="M1.63865 12.2679C1.63865 12.3783 1.67771 12.4726 1.75583 12.5508C1.83395 12.6289 1.92825 12.6679 2.03873 12.6679C2.14921 12.6679 2.24351 12.6289 2.32163 12.5508C2.39975 12.4726 2.4388 12.3783 2.43881 12.2679C2.4388 12.1574 2.39975 12.0631 2.32163 11.985C2.24351 11.9068 2.14921 11.8678 2.03873 11.8678C1.92825 11.8678 1.83395 11.9068 1.75583 11.985C1.67771 12.0631 1.63865 12.1574 1.63865 12.2679ZM1.53238 12.2804C1.53238 12.4167 1.5806 12.5331 1.67703 12.6296C1.77346 12.726 1.88986 12.7742 2.02623 12.7742C2.1626 12.7742 2.279 12.726 2.37543 12.6296C2.47186 12.5331 2.52007 12.4167 2.52007 12.2804C2.52007 12.144 2.47186 12.0276 2.37543 11.9312C2.279 11.8347 2.1626 11.7865 2.02623 11.7865C1.88986 11.7865 1.77346 11.8347 1.67703 11.9312C1.5806 12.0276 1.53238 12.144 1.53238 12.2804ZM1.40736 12.2991C1.40742 12.4665 1.46664 12.6094 1.58503 12.7278C1.70342 12.8461 1.84632 12.9053 2.01372 12.9053C2.18113 12.9053 2.32402 12.8461 2.44242 12.7278C2.56081 12.6094 2.62003 12.4665 2.62009 12.2991C2.62003 12.1317 2.56081 11.9888 2.44242 11.8705C2.32402 11.7521 2.18113 11.693 2.01372 11.693C1.84632 11.693 1.70342 11.7521 1.58503 11.8705C1.46664 11.9888 1.40742 12.1317 1.40736 12.2991ZM1.22607 12.3116C1.22615 12.5256 1.30186 12.7083 1.4532 12.8596C1.60455 13.0109 1.78722 13.0865 2.00122 13.0865C2.21522 13.0865 2.39789 13.0109 2.54924 12.8596C2.70059 12.7083 2.7763 12.5256 2.77637 12.3116C2.7763 12.0976 2.70059 11.915 2.54924 11.7637C2.39789 11.6124 2.21522 11.5367 2.00122 11.5367C1.78722 11.5367 1.60455 11.6124 1.4532 11.7637C1.30186 11.915 1.22615 12.0976 1.22607 12.3116ZM1.24483 12.3116C1.2449 12.5222 1.31939 12.7019 1.46829 12.8507C1.6172 12.9996 1.79693 13.074 2.00747 13.074C2.21802 13.074 2.39775 12.9996 2.54665 12.8507C2.69556 12.7019 2.77005 12.5222 2.77012 12.3116C2.77005 12.1011 2.69556 11.9214 2.54665 11.7725C2.39775 11.6237 2.21802 11.5492 2.00747 11.5492C1.79693 11.5492 1.6172 11.6237 1.46829 11.7725C1.31939 11.9214 1.2449 12.1011 1.24483 12.3116ZM1.52613 12.2804C1.52613 12.4236 1.57679 12.5459 1.6781 12.6472C1.77941 12.7486 1.9017 12.7992 2.04498 12.7992C2.18826 12.7992 2.31055 12.7486 2.41186 12.6472C2.51317 12.5459 2.56383 12.4236 2.56383 12.2804C2.56383 12.1371 2.51317 12.0148 2.41186 11.9135C2.31055 11.8122 2.18826 11.7615 2.04498 11.7615C1.9017 11.7615 1.77941 11.8122 1.6781 11.9135C1.57679 12.0148 1.52613 12.1371 1.52613 12.2804ZM2.29503 12.4929L2.36379 12.4429C2.50513 12.3133 2.52006 12.1704 2.4086 12.0144C2.29713 11.8583 2.15717 11.8261 1.98872 11.9178L1.91996 11.9678C1.77862 12.0974 1.76368 12.2403 1.87515 12.3963C1.98662 12.5524 2.12658 12.5846 2.29503 12.4929Z" fill="black"/>
<path d="M27.9622 12.899C27.9622 13.0112 28.0019 13.107 28.0812 13.1863C28.1606 13.2656 28.2563 13.3052 28.3685 13.3052C28.4807 13.3052 28.5764 13.2656 28.6558 13.1863C28.7351 13.107 28.7748 13.0112 28.7748 12.899C28.7748 12.7869 28.7351 12.6911 28.6558 12.6118C28.5764 12.5325 28.4807 12.4929 28.3685 12.4929C28.2563 12.4929 28.1606 12.5325 28.0812 12.6118C28.0019 12.6911 27.9622 12.7869 27.9622 12.899ZM27.8559 12.9116C27.8559 13.0514 27.9053 13.1707 28.0042 13.2696C28.1031 13.3685 28.2224 13.4179 28.3622 13.4179C28.5021 13.4179 28.6214 13.3685 28.7203 13.2696C28.8192 13.1707 28.8686 13.0514 28.8686 12.9116C28.8686 12.7717 28.8192 12.6524 28.7203 12.5535C28.6214 12.4546 28.5021 12.4052 28.3622 12.4052C28.2224 12.4052 28.1031 12.4546 28.0042 12.5535C27.9053 12.6524 27.8559 12.7717 27.8559 12.9116ZM27.7184 12.9366C27.7184 13.1126 27.7806 13.2629 27.9051 13.3874C28.0296 13.5119 28.1799 13.5742 28.356 13.5742C28.5321 13.5742 28.6824 13.5119 28.8069 13.3874C28.9314 13.2629 28.9936 13.1126 28.9936 12.9366C28.9936 12.7605 28.9314 12.6102 28.8069 12.4857C28.6824 12.3612 28.5321 12.2989 28.356 12.2989C28.1799 12.2989 28.0296 12.3612 27.9051 12.4857C27.7806 12.6102 27.7184 12.7605 27.7184 12.9366ZM27.8309 12.5177L27.7996 12.549C27.7168 12.6421 27.6622 12.7496 27.6357 12.8714C27.6093 12.9932 27.6145 13.1137 27.6512 13.2328C27.688 13.3519 27.7516 13.4543 27.8422 13.54C27.9327 13.6257 28.0384 13.6837 28.1593 13.7139C28.2802 13.7442 28.4008 13.7428 28.521 13.7097C28.6412 13.6767 28.7455 13.6163 28.834 13.5285C28.9225 13.4407 28.9838 13.3369 29.0178 13.2169C29.0518 13.097 29.0541 12.9765 29.0249 12.8553L29.0124 12.8115C28.9465 12.5425 28.7792 12.3745 28.5104 12.3077C28.2416 12.2408 28.0151 12.3109 27.8309 12.5177ZM28.1185 13.0116L28.1122 13.0366C28.0748 13.1782 28.1269 13.2678 28.2685 13.3053C28.4101 13.3428 28.4997 13.2907 28.5373 13.1491L28.5435 13.1241C28.581 12.9824 28.5289 12.8929 28.3872 12.8554C28.2456 12.8179 28.156 12.8699 28.1185 13.0116Z" fill="black"/>
<path d="M6.60196 28.1894C6.60196 28.2912 6.63797 28.3781 6.70999 28.4502C6.78201 28.5222 6.86894 28.5582 6.97079 28.5582C7.07263 28.5582 7.15956 28.5222 7.23158 28.4502C7.3036 28.3781 7.33961 28.2912 7.33961 28.1894C7.33961 28.0875 7.3036 28.0006 7.23158 27.9286C7.15956 27.8565 7.07263 27.8205 6.97079 27.8205C6.86894 27.8205 6.78201 27.8565 6.70999 27.9286C6.63797 28.0006 6.60196 28.0875 6.60196 28.1894ZM6.53945 28.1831C6.53945 28.2988 6.58034 28.3975 6.66213 28.4793C6.74391 28.561 6.84263 28.6019 6.95828 28.6019C7.07394 28.6019 7.17266 28.561 7.25444 28.4793C7.33622 28.3975 7.37711 28.2988 7.37711 28.1831C7.37711 28.0674 7.33622 27.9687 7.25444 27.8869C7.17266 27.8052 7.07394 27.7643 6.95828 27.7643C6.84263 27.7643 6.74391 27.8052 6.66213 27.8869C6.58034 27.9687 6.53945 28.0674 6.53945 28.1831ZM6.46444 28.1769C6.46444 28.3029 6.50899 28.4104 6.5981 28.4995C6.6872 28.5886 6.79476 28.6332 6.92078 28.6332C7.04679 28.6332 7.15435 28.5886 7.24345 28.4995C7.33256 28.4104 7.37711 28.3029 7.37711 28.1769C7.37711 28.0508 7.33256 27.9433 7.24345 27.8542C7.15435 27.7651 7.04679 27.7205 6.92078 27.7205C6.79476 27.7205 6.6872 27.7651 6.5981 27.8542C6.50899 27.9433 6.46444 28.0508 6.46444 28.1769ZM6.31441 28.1706C6.31441 28.3242 6.36873 28.4554 6.47736 28.564C6.586 28.6726 6.71713 28.727 6.87077 28.727C7.0244 28.727 7.15553 28.6726 7.26417 28.564C7.3728 28.4554 7.42712 28.3242 7.42712 28.1706C7.42712 28.017 7.3728 27.8858 7.26417 27.7772C7.15553 27.6686 7.0244 27.6142 6.87077 27.6142C6.71713 27.6142 6.586 27.6686 6.47736 27.7772C6.36873 27.8858 6.31441 28.017 6.31441 28.1706ZM6.02686 28.1644C6.02686 28.3732 6.1007 28.5515 6.2484 28.6992C6.39609 28.8469 6.57438 28.9207 6.78325 28.9207C6.99212 28.9207 7.17041 28.8469 7.3181 28.6992C7.4658 28.5515 7.53964 28.3732 7.53964 28.1644C7.53964 27.9555 7.4658 27.7772 7.3181 27.6295C7.17041 27.4818 6.99212 27.408 6.78325 27.408C6.57438 27.408 6.39609 27.4818 6.2484 27.6295C6.1007 27.7772 6.02686 27.9555 6.02686 28.1644ZM6.07061 28.1706C6.07061 28.3691 6.1408 28.5386 6.28117 28.6789C6.42154 28.8193 6.59099 28.8895 6.7895 28.8895C6.98802 28.8895 7.15746 28.8193 7.29783 28.6789C7.4382 28.5386 7.50839 28.3691 7.50839 28.1706C7.50839 27.9721 7.4382 27.8026 7.29783 27.6623C7.15746 27.5219 6.98802 27.4517 6.7895 27.4517C6.59099 27.4517 6.42154 27.5219 6.28117 27.6623C6.1408 27.8026 6.07061 27.9721 6.07061 28.1706ZM6.802 28.4644L6.90827 28.4894C7.09164 28.5311 7.20416 28.4602 7.24584 28.2769C7.28751 28.0935 7.21667 27.981 7.0333 27.9393L6.92703 27.9143C6.74366 27.8726 6.63114 27.9435 6.58946 28.1268C6.54779 28.3102 6.61863 28.4227 6.802 28.4644Z" fill="black"/>
<path d="M23.9367 28.1452C23.9367 28.2574 23.9764 28.3531 24.0558 28.4324C24.1351 28.5117 24.2308 28.5514 24.343 28.5514C24.4552 28.5514 24.551 28.5117 24.6303 28.4324C24.7096 28.3531 24.7493 28.2574 24.7493 28.1452C24.7493 28.033 24.7096 27.9373 24.6303 27.858C24.551 27.7787 24.4552 27.739 24.343 27.739C24.2308 27.739 24.1351 27.7787 24.0558 27.858C23.9764 27.9373 23.9367 28.033 23.9367 28.1452ZM23.6116 28.1452C23.6116 28.3385 23.68 28.5036 23.8167 28.6403C23.9534 28.777 24.1184 28.8453 24.3118 28.8453C24.5051 28.8453 24.6701 28.777 24.8068 28.6403C24.9435 28.5036 25.0119 28.3385 25.0119 28.1452C25.0119 27.9519 24.9435 27.7868 24.8068 27.6501C24.6701 27.5134 24.5051 27.4451 24.3118 27.4451C24.1184 27.4451 23.9534 27.5134 23.8167 27.6501C23.68 27.7868 23.6116 27.9519 23.6116 28.1452ZM24.5243 28.2015L24.5368 28.1702C24.591 28.0327 24.5493 27.9368 24.4118 27.8827C24.2743 27.8285 24.1784 27.8701 24.1242 28.0077L24.1117 28.0389C24.0576 28.1764 24.0993 28.2723 24.2368 28.3264C24.3743 28.3806 24.4701 28.3389 24.5243 28.2015Z" fill="black"/>
<path d="M16.0603 2.02199C16.0603 2.1411 16.1024 2.24277 16.1867 2.32699C16.2709 2.41121 16.3725 2.45333 16.4917 2.45333C16.6108 2.45333 16.7124 2.41121 16.7967 2.32699C16.8809 2.24277 16.923 2.1411 16.923 2.02199C16.923 1.90288 16.8809 1.80122 16.7967 1.717C16.7124 1.63277 16.6108 1.59066 16.4917 1.59066C16.3725 1.59066 16.2709 1.63277 16.1867 1.717C16.1024 1.80122 16.0603 1.90288 16.0603 2.02199ZM15.7853 2.01574C15.7853 2.21081 15.8542 2.3773 15.9922 2.51523C16.1301 2.65316 16.2966 2.72213 16.4917 2.72213C16.6867 2.72213 16.8532 2.65316 16.9911 2.51523C17.1291 2.3773 17.198 2.21081 17.198 2.01574C17.198 1.82068 17.1291 1.65418 16.9911 1.51625C16.8532 1.37832 16.6867 1.30936 16.4917 1.30936C16.2966 1.30936 16.1301 1.37832 15.9922 1.51625C15.8542 1.65418 15.7853 1.82068 15.7853 2.01574ZM16.9605 2.62836L16.9792 2.61586C17.1771 2.46978 17.2882 2.27439 17.3127 2.02968C17.3371 1.78497 17.2669 1.57145 17.1018 1.38911C16.9368 1.20677 16.7313 1.1156 16.4854 1.1156C16.2395 1.1156 16.034 1.20677 15.869 1.38911C15.7039 1.57145 15.6337 1.78497 15.6581 2.02968C15.6826 2.27439 15.7937 2.46978 15.9916 2.61586L16.0103 2.62836C16.327 2.86207 16.6438 2.86207 16.9605 2.62836ZM15.7665 1.90947C15.7665 2.10971 15.8373 2.28063 15.9789 2.42222C16.1205 2.56381 16.2914 2.63461 16.4917 2.63461C16.6919 2.63461 16.8628 2.56381 17.0044 2.42222C17.146 2.28063 17.2168 2.10971 17.2168 1.90947C17.2168 1.70923 17.146 1.53831 17.0044 1.39672C16.8628 1.25513 16.6919 1.18433 16.4917 1.18433C16.2914 1.18433 16.1205 1.25513 15.9789 1.39672C15.8373 1.53831 15.7665 1.70923 15.7665 1.90947ZM16.7917 2.072L16.8042 2.05325C16.8577 1.97384 16.8753 1.88715 16.857 1.79316C16.8387 1.69917 16.7899 1.62542 16.7104 1.57191C16.631 1.5184 16.5443 1.50079 16.4504 1.5191C16.3564 1.53741 16.2826 1.58627 16.2291 1.66568L16.2166 1.68443C16.1631 1.76384 16.1455 1.85053 16.1638 1.94452C16.1821 2.03851 16.231 2.11226 16.3104 2.16577C16.3898 2.21928 16.4765 2.23689 16.5705 2.21858C16.6644 2.20027 16.7382 2.15141 16.7917 2.072Z" fill="black"/>
<path d="M11.2901 9.84835C11.2902 9.96053 11.3298 10.0563 11.4092 10.1356C11.4885 10.2149 11.5843 10.2545 11.6964 10.2545C11.8086 10.2545 11.9044 10.2149 11.9837 10.1356C12.063 10.0563 12.1027 9.96053 12.1028 9.84835C12.1027 9.73618 12.063 9.64043 11.9837 9.56113C11.9044 9.48182 11.8086 9.44217 11.6964 9.44217C11.5843 9.44217 11.4885 9.48182 11.4092 9.56113C11.3298 9.64043 11.2902 9.73618 11.2901 9.84835ZM11.2589 9.84835C11.2589 9.96746 11.301 10.0691 11.3852 10.1534C11.4694 10.2376 11.5711 10.2797 11.6902 10.2797C11.8093 10.2797 11.911 10.2376 11.9952 10.1534C12.0794 10.0691 12.1215 9.96746 12.1215 9.84835C12.1215 9.72924 12.0794 9.62758 11.9952 9.54336C11.911 9.45913 11.8093 9.41702 11.6902 9.41702C11.5711 9.41702 11.4694 9.45913 11.3852 9.54336C11.301 9.62758 11.2589 9.72924 11.2589 9.84835ZM11.0963 9.83585C11.0963 9.99466 11.1525 10.1302 11.2648 10.2425C11.3771 10.3548 11.5126 10.411 11.6714 10.411C11.8302 10.411 11.9658 10.3548 12.0781 10.2425C12.1904 10.1302 12.2465 9.99466 12.2465 9.83585C12.2465 9.67704 12.1904 9.54148 12.0781 9.42919C11.9658 9.31689 11.8302 9.26074 11.6714 9.26074C11.5126 9.26074 11.3771 9.31689 11.2648 9.42919C11.1525 9.54148 11.0963 9.67704 11.0963 9.83585ZM10.94 9.82335C10.94 10.0167 11.0084 10.1817 11.1451 10.3184C11.2818 10.4551 11.4468 10.5235 11.6402 10.5235C11.8335 10.5235 11.9985 10.4551 12.1352 10.3184C12.272 10.1817 12.3403 10.0167 12.3403 9.82335C12.3403 9.63001 12.272 9.46499 12.1352 9.32828C11.9985 9.19157 11.8335 9.12322 11.6402 9.12322C11.4468 9.12322 11.2818 9.19157 11.1451 9.32828C11.0084 9.46499 10.94 9.63001 10.94 9.82335ZM10.84 9.80459C10.8401 10.0134 10.914 10.1916 11.0617 10.3393C11.2093 10.4869 11.3876 10.5607 11.5964 10.5607C11.8052 10.5607 11.9835 10.4869 12.1312 10.3393C12.2789 10.1916 12.3527 10.0134 12.3528 9.80459C12.3527 9.59577 12.2789 9.41755 12.1312 9.26991C11.9835 9.12228 11.8052 9.04846 11.5964 9.04846C11.3876 9.04846 11.2093 9.12228 11.0617 9.26991C10.914 9.41755 10.8401 9.59577 10.84 9.80459ZM11.8402 9.94837L11.8527 9.92962C11.9652 9.75875 11.9361 9.61706 11.7652 9.50454C11.5943 9.39202 11.4526 9.42119 11.3401 9.59205L11.3276 9.61081C11.2151 9.78167 11.2443 9.92337 11.4151 10.0359C11.586 10.1484 11.7277 10.1192 11.8402 9.94837Z" fill="black"/>
<path d="M22.0298 10.192C22.0298 10.3024 22.0688 10.3967 22.1469 10.4749C22.2251 10.553 22.3194 10.592 22.4298 10.592C22.5403 10.592 22.6346 10.553 22.7127 10.4749C22.7909 10.3967 22.8299 10.3024 22.8299 10.192C22.8299 10.0815 22.7909 9.98718 22.7127 9.90906C22.6346 9.83094 22.5403 9.79188 22.4298 9.79188C22.3194 9.79188 22.2251 9.83094 22.1469 9.90906C22.0688 9.98718 22.0298 10.0815 22.0298 10.192ZM22.0298 10.192C22.0298 10.3042 22.0694 10.3999 22.1488 10.4793C22.2281 10.5586 22.3239 10.5983 22.4361 10.5983C22.5483 10.5983 22.6441 10.5586 22.7234 10.4793C22.8027 10.3999 22.8424 10.3042 22.8424 10.192C22.8424 10.0798 22.8027 9.98398 22.7234 9.90464C22.6441 9.8253 22.5483 9.78563 22.4361 9.78563C22.3239 9.78563 22.2281 9.8253 22.1488 9.90464C22.0694 9.98398 22.0298 10.0798 22.0298 10.192ZM22.9049 10.1169V10.1107C22.8766 9.95127 22.7898 9.83561 22.6447 9.76371C22.4996 9.69182 22.3551 9.69287 22.211 9.76688L22.1985 9.77313C22.0795 9.83358 21.9993 9.92727 21.9578 10.0542C21.9163 10.1811 21.9258 10.3041 21.9862 10.4231C22.0466 10.5422 22.1403 10.6225 22.2671 10.664C22.394 10.7055 22.517 10.6961 22.6361 10.6358L22.6486 10.6295C22.7911 10.5574 22.8765 10.4428 22.9049 10.2857V10.2795C22.9143 10.2253 22.9143 10.1711 22.9049 10.1169Z" fill="black"/>
<path d="M8.7276 18.5186C8.7276 18.629 8.76666 18.7233 8.84478 18.8014C8.9229 18.8796 9.0172 18.9186 9.12768 18.9186C9.23816 18.9186 9.33246 18.8796 9.41058 18.8014C9.4887 18.7233 9.52776 18.629 9.52776 18.5186C9.52776 18.4081 9.4887 18.3138 9.41058 18.2357C9.33246 18.1575 9.23816 18.1185 9.12768 18.1185C9.0172 18.1185 8.9229 18.1575 8.84478 18.2357C8.76666 18.3138 8.7276 18.4081 8.7276 18.5186ZM8.64634 18.5186C8.64634 18.648 8.69211 18.7585 8.78366 18.8501C8.87521 18.9416 8.98571 18.9874 9.11518 18.9874C9.24464 18.9874 9.35515 18.9416 9.4467 18.8501C9.53824 18.7585 9.58402 18.648 9.58402 18.5186C9.58402 18.3891 9.53824 18.2786 9.4467 18.187C9.35515 18.0955 9.24464 18.0497 9.11518 18.0497C8.98571 18.0497 8.87521 18.0955 8.78366 18.187C8.69211 18.2786 8.64634 18.3891 8.64634 18.5186ZM8.49631 18.5123C8.49631 18.678 8.5549 18.8195 8.67208 18.9366C8.78926 19.0538 8.93071 19.1124 9.09642 19.1124C9.26214 19.1124 9.40359 19.0538 9.52077 18.9366C9.63795 18.8195 9.69654 18.678 9.69654 18.5123C9.69654 18.3466 9.63795 18.2051 9.52077 18.088C9.40359 17.9708 9.26214 17.9122 9.09642 17.9122C8.93071 17.9122 8.78926 17.9708 8.67208 18.088C8.5549 18.2051 8.49631 18.3466 8.49631 18.5123ZM9.57777 18.106L9.56526 18.0872C9.57493 18.1044 9.58534 18.121 9.59652 18.1372L9.58402 18.1122C9.49952 17.9633 9.37536 17.8638 9.21153 17.8139C9.0477 17.7641 8.88919 17.7774 8.73601 17.854C8.58283 17.9306 8.47705 18.0494 8.41866 18.2104C8.36028 18.3714 8.36532 18.5304 8.4338 18.6873L8.4463 18.7123C8.48795 18.8276 8.55671 18.9235 8.65259 18.9999L8.67134 19.0124C8.79931 19.118 8.94615 19.1668 9.11187 19.1589C9.27759 19.151 9.41911 19.0884 9.53642 18.971C9.65373 18.8537 9.71635 18.7122 9.72427 18.5465C9.73219 18.3808 9.68336 18.2339 9.57777 18.106ZM8.58383 18.4435C8.58383 18.5696 8.62838 18.6771 8.71748 18.7662C8.80659 18.8553 8.91415 18.8999 9.04016 18.8999C9.16618 18.8999 9.27374 18.8553 9.36284 18.7662C9.45195 18.6771 9.4965 18.5696 9.4965 18.4435C9.4965 18.3175 9.45195 18.21 9.36284 18.1209C9.27374 18.0318 9.16618 17.9872 9.04016 17.9872C8.91415 17.9872 8.80659 18.0318 8.71748 18.1209C8.62838 18.21 8.58383 18.3175 8.58383 18.4435ZM9.17769 18.6748L9.19019 18.6686C9.33096 18.5774 9.36383 18.4567 9.28882 18.3067C9.2138 18.1567 9.09758 18.1106 8.94014 18.1685L8.92764 18.1747C8.78688 18.266 8.754 18.3866 8.82902 18.5366C8.90403 18.6866 9.02026 18.7327 9.17769 18.6748Z" fill="black"/>
<path d="M21.8986 19.6626C21.8986 19.7696 21.9365 19.861 22.0121 19.9367C22.0878 20.0123 22.1792 20.0502 22.2862 20.0502C22.3932 20.0502 22.4846 20.0123 22.5603 19.9367C22.6359 19.861 22.6738 19.7696 22.6738 19.6626C22.6738 19.5556 22.6359 19.4642 22.5603 19.3885C22.4846 19.3129 22.3932 19.275 22.2862 19.275C22.1792 19.275 22.0878 19.3129 22.0121 19.3885C21.9365 19.4642 21.8986 19.5556 21.8986 19.6626ZM22.0549 19.6626C22.0549 19.8418 22.1445 19.9314 22.3237 19.9314C22.5029 19.9314 22.5925 19.8418 22.5925 19.6626C22.5925 19.4834 22.5029 19.3938 22.3237 19.3938C22.1445 19.3938 22.0549 19.4834 22.0549 19.6626Z" fill="black"/>
<path d="M15.7848 23.9071C15.7848 24.002 15.8184 24.083 15.8855 24.1501C15.9526 24.2172 16.0337 24.2508 16.1286 24.2508C16.2235 24.2508 16.3045 24.2172 16.3717 24.1501C16.4388 24.083 16.4724 24.002 16.4724 23.9071C16.4724 23.8122 16.4388 23.7312 16.3717 23.6641C16.3045 23.5969 16.2235 23.5634 16.1286 23.5634C16.0337 23.5634 15.9526 23.5969 15.8855 23.6641C15.8184 23.7312 15.7848 23.8122 15.7848 23.9071ZM15.691 23.9008C15.691 24.0217 15.7337 24.1248 15.8192 24.2103C15.9046 24.2957 16.0078 24.3384 16.1286 24.3384C16.2494 24.3384 16.3526 24.2957 16.438 24.2103C16.5235 24.1248 16.5662 24.0217 16.5662 23.9008C16.5662 23.78 16.5235 23.6769 16.438 23.5914C16.3526 23.506 16.2494 23.4633 16.1286 23.4633C16.0078 23.4633 15.9046 23.506 15.8192 23.5914C15.7337 23.6769 15.691 23.78 15.691 23.9008ZM16.5662 24.1446V24.1321C16.6506 23.9845 16.6615 23.8316 16.5991 23.6734C16.5367 23.5152 16.4242 23.411 16.2617 23.3608C16.0993 23.3106 15.9476 23.3332 15.8068 23.4286C15.6661 23.5239 15.5888 23.6564 15.5752 23.8259C15.5616 23.9954 15.6166 24.1385 15.7404 24.2551C15.8641 24.3718 16.0102 24.4183 16.1786 24.3947H16.1911C16.3576 24.3735 16.4826 24.2901 16.5662 24.1446ZM15.616 23.8571C15.616 23.99 15.663 24.1035 15.757 24.1974C15.851 24.2914 15.9644 24.3384 16.0973 24.3384C16.2303 24.3384 16.3437 24.2914 16.4377 24.1974C16.5317 24.1035 16.5787 23.99 16.5787 23.8571C16.5787 23.7242 16.5317 23.6107 16.4377 23.5167C16.3437 23.4227 16.2303 23.3757 16.0973 23.3757C15.9644 23.3757 15.851 23.4227 15.757 23.5167C15.663 23.6107 15.616 23.7242 15.616 23.8571ZM15.9035 23.6758L15.8973 23.682C15.7765 23.8029 15.7765 23.9237 15.8974 24.0446C16.0182 24.1654 16.139 24.1654 16.2599 24.0446L16.2661 24.0384C16.3869 23.9175 16.3869 23.7967 16.2661 23.6759C16.1452 23.555 16.0244 23.555 15.9035 23.6758Z" fill="black"/>
<path d="M8.77117 17.7004C8.77117 17.9129 8.87745 18.0192 9.08999 18.0192C9.30253 18.0192 9.4088 17.9129 9.4088 17.7004C9.4088 17.4878 9.30253 17.3816 9.08999 17.3816C8.87745 17.3816 8.77117 17.4878 8.77117 17.7004ZM8.67116 17.6941C8.67116 17.8098 8.71205 17.9085 8.79383 17.9903C8.87561 18.0721 8.97433 18.1129 9.08999 18.1129C9.20564 18.1129 9.30436 18.0721 9.38614 17.9903C9.46792 17.9085 9.50881 17.8098 9.50882 17.6941C9.50881 17.5785 9.46792 17.4797 9.38614 17.398C9.30436 17.3162 9.20564 17.2753 9.08999 17.2753C8.97433 17.2753 8.87561 17.3162 8.79383 17.398C8.71205 17.4797 8.67116 17.5785 8.67116 17.6941ZM8.6149 17.6941C8.61489 17.8253 8.66128 17.9373 8.75405 18.0301C8.84681 18.1228 8.95879 18.1692 9.08999 18.1692C9.22118 18.1692 9.33316 18.1228 9.42593 18.0301C9.51869 17.9373 9.56508 17.8253 9.56508 17.6941C9.56508 17.5629 9.51869 17.4509 9.42593 17.3582C9.33316 17.2654 9.22118 17.219 9.08999 17.219C8.95879 17.219 8.84681 17.2654 8.75405 17.3582C8.66128 17.4509 8.61489 17.5629 8.6149 17.6941ZM9.26502 17.2003L9.25252 17.194C9.05976 17.1189 8.88265 17.146 8.72117 17.2753L8.67741 17.3128C8.64773 17.335 8.62064 17.36 8.59614 17.3878L8.53363 17.4628C8.52231 17.4789 8.51189 17.4956 8.50237 17.5128L8.40235 17.6566C8.38528 17.6845 8.37069 17.7137 8.3586 17.7441L8.25233 17.9817C8.25014 17.9879 8.24805 17.9941 8.24607 18.0004L8.12105 18.3067L7.96477 18.6756C7.96033 18.6859 7.95616 18.6963 7.95227 18.7068L7.80849 19.1256C7.80639 19.1277 7.80431 19.1298 7.80224 19.1319L7.65221 19.5695L7.48968 20.0196C7.48758 20.0216 7.4855 20.0237 7.48343 20.0258L7.3209 20.4821C7.31647 20.4925 7.31231 20.5029 7.3084 20.5134L7.17087 20.976C7.16863 20.9843 7.16655 20.9926 7.16462 21.001L7.04585 21.4573C7.04367 21.4636 7.04159 21.4698 7.0396 21.4761L6.93958 21.9199C6.93734 21.9282 6.93525 21.9365 6.93333 21.9449L6.85206 22.3638C6.85202 22.3679 6.85202 22.3721 6.85206 22.3763L6.7833 22.7576L6.72078 23.1076C6.71869 23.1097 6.7166 23.1118 6.71453 23.1139L6.65827 23.4452C6.65819 23.4515 6.65819 23.4577 6.65827 23.464L6.60826 23.7953L6.55825 24.1266C6.55822 24.1308 6.55822 24.1349 6.55825 24.1391L6.46449 24.8142L6.42073 25.1205C6.42069 25.1247 6.42069 25.1289 6.42073 25.133L6.33946 25.7519L6.26445 26.327L6.22069 26.5896C6.22054 26.5979 6.22054 26.6062 6.22069 26.6146L6.18943 26.8771L6.12067 27.371C6.12059 27.3772 6.12059 27.3835 6.12067 27.3897L6.09567 27.571L6.07691 27.7273L6.05191 27.8711C6.04936 27.8856 6.04728 27.9002 6.04566 27.9148L6.0269 28.0398C6.02008 28.118 6.02633 28.1951 6.04566 28.2711L6.06441 28.3586C6.13558 28.6529 6.32122 28.8199 6.62133 28.8598C6.92145 28.8996 7.14422 28.7867 7.28964 28.5212L7.3334 28.4462C7.36661 28.383 7.38953 28.3163 7.40216 28.2461L7.42717 28.1211C7.42941 28.1128 7.43149 28.1045 7.43342 28.0961L7.45842 27.9461C7.45851 27.9398 7.45851 27.9336 7.45842 27.9273L7.47718 27.7585L7.50843 27.5585L7.5772 27.0584C7.57724 27.0542 7.57724 27.0501 7.5772 27.0459L7.60845 26.7771L7.63971 26.5145L7.71472 25.9269L7.79599 25.3143L7.83975 25.0018L7.93352 24.3329L7.98352 23.9953L8.03353 23.6765L8.0898 23.3514L8.14606 23.0014L8.21482 22.6201L8.29608 22.22L8.38985 21.7949L8.50237 21.3511L8.6274 20.8885L8.74617 20.4259L8.87119 19.9758L9.01497 19.5382C9.0171 19.5341 9.01918 19.5299 9.02122 19.5257L9.14625 19.1006C9.14838 19.0965 9.15046 19.0923 9.1525 19.0881L9.25877 18.7068L9.35254 18.3942L9.42755 18.1567C9.42982 18.1484 9.4319 18.1401 9.4338 18.1317L9.46506 18.0254L9.48381 18.0004C9.44143 18.0385 9.406 18.0823 9.37754 18.1317L9.4213 18.0942C9.45818 18.059 9.48944 18.0195 9.51507 17.9754L9.52132 17.9629C9.60645 17.8236 9.62301 17.6766 9.571 17.5218C9.519 17.3671 9.417 17.2599 9.26502 17.2003ZM6.20819 28.2524C6.20824 28.3922 6.25769 28.5115 6.35655 28.6103C6.45542 28.7091 6.57474 28.7585 6.71453 28.7585C6.85432 28.7585 6.97365 28.7091 7.07251 28.6103C7.17138 28.5115 7.22083 28.3922 7.22088 28.2524C7.22083 28.1126 7.17138 27.9933 7.07251 27.8944C6.97365 27.7956 6.85432 27.7462 6.71453 27.7462C6.57474 27.7462 6.45542 27.7956 6.35655 27.8944C6.25769 27.9933 6.20824 28.1126 6.20819 28.2524ZM6.89582 28.4712L6.92082 28.4524C7.03539 28.3405 7.04492 28.2202 6.9494 28.0917C6.85389 27.9631 6.73601 27.9375 6.59576 28.0148L6.57076 28.0336C6.45619 28.1455 6.44667 28.2658 6.54218 28.3943C6.63769 28.5229 6.75557 28.5485 6.89582 28.4712Z" fill="black"/>
<path d="M6.24561 28.3461C6.24561 28.4531 6.28345 28.5445 6.35913 28.6202C6.4348 28.6959 6.52616 28.7337 6.63318 28.7337C6.74021 28.7337 6.83156 28.6959 6.90724 28.6202C6.98292 28.5445 7.02076 28.4531 7.02076 28.3461C7.02076 28.2391 6.98292 28.1477 6.90724 28.0721C6.83156 27.9964 6.74021 27.9586 6.63318 27.9586C6.52616 27.9586 6.4348 27.9964 6.35913 28.0721C6.28345 28.1477 6.24561 28.2391 6.24561 28.3461ZM6.14559 28.3461C6.14559 28.4756 6.19136 28.5861 6.28291 28.6776C6.37446 28.7692 6.48496 28.815 6.61443 28.815C6.7439 28.815 6.8544 28.7692 6.94595 28.6776C7.03749 28.5861 7.08327 28.4756 7.08327 28.3461C7.08327 28.2167 7.03749 28.1062 6.94595 28.0146C6.8544 27.9231 6.7439 27.8773 6.61443 27.8773C6.48496 27.8773 6.37446 27.9231 6.28291 28.0146C6.19136 28.1062 6.14559 28.2167 6.14559 28.3461ZM6.08933 28.3461C6.08933 28.4859 6.13876 28.6053 6.23763 28.7042C6.3365 28.803 6.45585 28.8525 6.59568 28.8525C6.7355 28.8525 6.85485 28.803 6.95372 28.7042C7.05259 28.6053 7.10202 28.4859 7.10202 28.3461C7.10202 28.2063 7.05259 28.087 6.95372 27.9881C6.85485 27.8892 6.7355 27.8398 6.59568 27.8398C6.45585 27.8398 6.3365 27.8892 6.23763 27.9881C6.13876 28.087 6.08933 28.2063 6.08933 28.3461ZM6.04557 28.3336C6.04557 28.4803 6.09745 28.6056 6.2012 28.7093C6.30495 28.8131 6.43019 28.865 6.57692 28.865C6.72365 28.865 6.84889 28.8131 6.95264 28.7093C7.0564 28.6056 7.10827 28.4803 7.10827 28.3336C7.10827 28.1869 7.0564 28.0617 6.95264 27.9579C6.84889 27.8541 6.72365 27.8023 6.57692 27.8023C6.43019 27.8023 6.30495 27.8541 6.2012 27.9579C6.09745 28.0617 6.04557 28.1869 6.04557 28.3336ZM5.9643 28.3274C5.9643 28.4914 6.02228 28.6313 6.13824 28.7473C6.2542 28.8633 6.39418 28.9212 6.55817 28.9212C6.72216 28.9212 6.86213 28.8633 6.97809 28.7473C7.09405 28.6313 7.15203 28.4914 7.15203 28.3274C7.15203 28.1634 7.09405 28.0234 6.97809 27.9074C6.86213 27.7915 6.72216 27.7335 6.55817 27.7335C6.39418 27.7335 6.2542 27.7915 6.13824 27.9074C6.02228 28.0234 5.9643 28.1634 5.9643 28.3274ZM5.90804 28.3149C5.90804 28.4892 5.96969 28.638 6.09297 28.7613C6.21625 28.8846 6.36507 28.9462 6.53941 28.9462C6.71376 28.9462 6.86258 28.8846 6.98586 28.7613C7.10914 28.638 7.17078 28.4892 7.17078 28.3149C7.17078 28.1405 7.10914 27.9917 6.98586 27.8684C6.86258 27.7451 6.71376 27.6835 6.53941 27.6835C6.36507 27.6835 6.21625 27.7451 6.09297 27.8684C5.96969 27.9917 5.90804 28.1405 5.90804 28.3149ZM6.2081 28.9212L6.23936 28.94C6.41232 29.0333 6.5936 29.0541 6.78321 29.0025L7.15203 28.9025C7.16254 28.8985 7.17296 28.8944 7.18329 28.89L7.45834 28.8025L7.77715 28.7024L8.16472 28.5899C8.16681 28.5899 8.16889 28.5899 8.17098 28.5899L8.57105 28.4711L8.96488 28.3524L9.33995 28.2461C9.35472 28.2403 9.36931 28.234 9.38371 28.2274L9.74627 28.0961C9.75464 28.0941 9.76298 28.092 9.77128 28.0898L10.1338 27.946C10.1552 27.9366 10.176 27.9261 10.1964 27.9148L10.5214 27.746C10.5235 27.746 10.5256 27.746 10.5277 27.746L10.8277 27.5897L11.1153 27.4522L11.4153 27.3272L12.0405 27.0771C12.0489 27.0731 12.0572 27.0689 12.0655 27.0646L12.3468 26.9459L12.6218 26.8271C12.6239 26.825 12.626 26.8229 12.6281 26.8208L12.8969 26.7021C12.9011 26.7 12.9052 26.6979 12.9094 26.6958L13.1907 26.5645C13.1949 26.5625 13.199 26.5604 13.2032 26.5583L13.4845 26.4208C13.4887 26.4187 13.4928 26.4166 13.497 26.4145L13.747 26.2832C13.7619 26.2754 13.7765 26.267 13.7908 26.2582L13.9908 26.1332L14.1721 26.0332L14.3597 25.9332C14.3681 25.9291 14.3764 25.925 14.3847 25.9207L14.5784 25.8019L14.7535 25.7019C14.7749 25.6903 14.7957 25.6778 14.816 25.6644L14.9473 25.5706L15.0598 25.4893C15.0661 25.4853 15.0723 25.4811 15.0785 25.4768L15.1848 25.3956C15.1911 25.3915 15.1974 25.3873 15.2036 25.3831L15.3098 25.3018C15.3271 25.2879 15.3438 25.2733 15.3598 25.258L15.4599 25.1643C15.4641 25.1601 15.4682 25.156 15.4724 25.1518L15.5349 25.0893L15.5849 25.0517L15.7349 24.9392C15.7477 24.9292 15.7602 24.9188 15.7724 24.908L15.8349 24.8517C15.8712 24.8213 15.9045 24.7879 15.935 24.7517L15.9662 24.7079C16.0908 24.5474 16.1467 24.3658 16.134 24.163C16.1212 23.9602 16.043 23.787 15.8993 23.6433C15.7557 23.4997 15.5825 23.4215 15.3797 23.4087C15.1769 23.396 14.9953 23.4519 14.8347 23.5765L14.791 23.6077C14.776 23.6197 14.7614 23.6322 14.7472 23.6452L14.716 23.6765L14.5972 23.764C14.5799 23.7779 14.5633 23.7925 14.5472 23.8078L14.4659 23.8765C14.4485 23.8925 14.4319 23.9091 14.4159 23.9265L14.3472 24.0015L14.2721 24.0703L14.1971 24.1328L14.1346 24.1891L14.0408 24.2453C14.0192 24.261 13.9983 24.2776 13.9783 24.2954L13.8596 24.3891L13.747 24.4766L13.597 24.5642L13.4095 24.6704C13.4032 24.6724 13.3969 24.6745 13.3907 24.6767L13.2094 24.7892L13.0094 24.9017L12.7781 25.0267L12.5218 25.1518L12.2593 25.2768L11.9967 25.3893L11.7217 25.5081C11.7175 25.5101 11.7133 25.5122 11.7091 25.5143L11.4466 25.6331L10.8277 25.8769C10.8236 25.8768 10.8194 25.8768 10.8152 25.8769L10.4902 26.0144C10.4754 26.0202 10.4608 26.0265 10.4464 26.0332L10.1338 26.1895C10.1297 26.1915 10.1255 26.1936 10.1213 26.1957L9.80254 26.3582L9.50873 26.5145L9.20242 26.6333L8.87111 26.7583L8.52104 26.8646L8.12722 26.9834L7.73339 27.1021L7.34582 27.2147C7.33954 27.2167 7.33329 27.2187 7.32706 27.2209L6.9895 27.3272C6.98109 27.3312 6.97276 27.3354 6.9645 27.3397L6.68944 27.4335C6.66601 27.4427 6.64309 27.4532 6.62068 27.4647L6.27686 27.621C6.11493 27.6966 5.99615 27.8154 5.92055 27.9773L5.90179 28.0148C5.82388 28.1826 5.81453 28.354 5.87374 28.5293C5.93295 28.7045 6.04441 28.8351 6.2081 28.9212ZM14.5909 24.1891C14.5909 24.3997 14.6654 24.5794 14.8143 24.7284C14.9632 24.8773 15.143 24.9517 15.3536 24.9517C15.5642 24.9517 15.7439 24.8773 15.8929 24.7284C16.0418 24.5794 16.1162 24.3997 16.1162 24.1891C16.1162 23.9785 16.0418 23.7987 15.8929 23.6498C15.7439 23.5009 15.5642 23.4264 15.3536 23.4264C15.143 23.4264 14.9632 23.5009 14.8143 23.6498C14.6654 23.7987 14.5909 23.9785 14.5909 24.1891ZM14.691 24.1828C14.691 24.371 14.7575 24.5316 14.8905 24.6646C15.0236 24.7977 15.1842 24.8642 15.3723 24.8642C15.5605 24.8642 15.7211 24.7977 15.8542 24.6646C15.9872 24.5316 16.0537 24.371 16.0537 24.1828C16.0537 23.9947 15.9872 23.8341 15.8542 23.701C15.7211 23.568 15.5605 23.5015 15.3723 23.5015C15.1842 23.5015 15.0236 23.568 14.8905 23.701C14.7575 23.8341 14.691 23.9947 14.691 24.1828ZM14.8973 24.1703C14.8973 24.3136 14.9479 24.4359 15.0492 24.5372C15.1505 24.6385 15.2728 24.6892 15.4161 24.6892C15.5594 24.6892 15.6817 24.6385 15.783 24.5372C15.8843 24.4359 15.935 24.3136 15.935 24.1703C15.935 24.0271 15.8843 23.9048 15.783 23.8034C15.6817 23.7021 15.5594 23.6515 15.4161 23.6515C15.2728 23.6515 15.1505 23.7021 15.0492 23.8034C14.9479 23.9048 14.8973 24.0271 14.8973 24.1703ZM15.5599 24.5329L15.6099 24.5204C15.8388 24.4457 15.9241 24.2916 15.8657 24.0579C15.8073 23.8243 15.6595 23.7284 15.4224 23.7703L15.3723 23.7828C15.1434 23.8574 15.0581 24.0116 15.1165 24.2452C15.175 24.4788 15.3227 24.5747 15.5599 24.5329Z" fill="black"/>
<path d="M15.9729 24.1077C15.9729 24.2078 16.0083 24.2933 16.0791 24.3641C16.1499 24.4349 16.2353 24.4703 16.3355 24.4703C16.4356 24.4703 16.521 24.4349 16.5918 24.3641C16.6626 24.2933 16.698 24.2078 16.698 24.1077C16.698 24.0076 16.6626 23.9221 16.5918 23.8513C16.521 23.7805 16.4356 23.7451 16.3355 23.7451C16.2353 23.7451 16.1499 23.7805 16.0791 23.8513C16.0083 23.9221 15.9729 24.0076 15.9729 24.1077ZM16.1167 23.8014L16.1104 23.8076C16.0061 23.8724 15.9468 23.9659 15.9327 24.0879C15.9187 24.2099 15.9551 24.3144 16.0419 24.4012C16.1288 24.4881 16.2332 24.5245 16.3553 24.5104C16.4773 24.4963 16.5707 24.4371 16.6355 24.3327L16.6418 24.3265C16.7719 24.153 16.7603 23.9896 16.6069 23.8362C16.4536 23.6829 16.2902 23.6713 16.1167 23.8014ZM15.9041 24.1265C15.9041 24.2438 15.9456 24.344 16.0286 24.427C16.1116 24.51 16.2118 24.5515 16.3292 24.5515C16.4466 24.5515 16.5468 24.51 16.6298 24.427C16.7128 24.344 16.7543 24.2438 16.7543 24.1265C16.7543 24.0091 16.7128 23.9089 16.6298 23.8259C16.5468 23.7429 16.4466 23.7014 16.3292 23.7014C16.2118 23.7014 16.1116 23.7429 16.0286 23.8259C15.9456 23.9089 15.9041 24.0091 15.9041 24.1265ZM15.8604 24.264L15.8791 24.3578C15.8981 24.4525 15.9397 24.5358 16.0041 24.6078L16.1354 24.7641C16.1435 24.7727 16.1518 24.781 16.1604 24.7891L16.4042 25.0391C16.4144 25.0478 16.4248 25.0562 16.4355 25.0641L16.798 25.3829C16.8022 25.3872 16.8063 25.3913 16.8105 25.3954L17.2419 25.7455C17.2439 25.7476 17.246 25.7497 17.2481 25.7518L17.7357 26.1331L18.2483 26.5457L18.7734 26.9958C18.7755 26.9979 18.7776 26.9999 18.7797 27.002L19.311 27.4396C19.3192 27.446 19.3275 27.4523 19.336 27.4583L19.8611 27.8584C19.8734 27.8672 19.8859 27.8755 19.8986 27.8834L20.43 28.2272C20.4422 28.236 20.4547 28.2443 20.4675 28.2522L21.0051 28.5586C21.0195 28.5653 21.0341 28.5715 21.0489 28.5773L21.5552 28.8211C21.5816 28.8332 21.6087 28.8436 21.6365 28.8524L22.1053 29.0149C22.144 29.0289 22.1835 29.0393 22.2241 29.0461L22.6242 29.1024C22.7316 29.117 22.8358 29.1045 22.9367 29.0649L23.193 28.9649C23.2707 28.9347 23.3353 28.8867 23.3868 28.8211L23.3993 28.8086H23.4556C23.6181 28.8128 23.7014 28.7336 23.7056 28.5711C23.7098 28.4085 23.6306 28.3252 23.4681 28.321H23.4306L23.4243 28.3148C23.3997 28.2699 23.3685 28.2303 23.3305 28.196L23.1243 28.0147C23.0772 27.9735 23.0251 27.9402 22.968 27.9147L22.6117 27.7521L22.1741 27.5459L21.6927 27.3021L21.1676 27.0145L20.6363 26.7082L20.0987 26.3706L19.5486 25.9956L19.0047 25.6017L18.4921 25.1892C18.4901 25.1871 18.488 25.185 18.4859 25.1829L17.9983 24.8016C17.9962 24.8016 17.9941 24.8016 17.992 24.8016L17.5607 24.4578L17.1856 24.164C17.1754 24.1574 17.165 24.1511 17.1544 24.1452L16.8793 23.9577L16.7355 23.8389C16.7157 23.8228 16.6949 23.8082 16.673 23.7951L16.5855 23.7451C16.4033 23.6377 16.2261 23.6455 16.0541 23.7686C15.8821 23.8917 15.8175 24.0568 15.8604 24.264Z" fill="black"/>
<path d="M16.498 23.9576C16.498 24.0595 16.534 24.1464 16.6061 24.2184C16.6781 24.2905 16.765 24.3265 16.8669 24.3265C16.9687 24.3265 17.0556 24.2905 17.1277 24.2184C17.1997 24.1464 17.2357 24.0595 17.2357 23.9576C17.2357 23.8558 17.1997 23.7689 17.1277 23.6969C17.0556 23.6248 16.9687 23.5888 16.8669 23.5888C16.765 23.5888 16.6781 23.6248 16.6061 23.6969C16.534 23.7689 16.498 23.8558 16.498 23.9576ZM16.8106 23.5826H16.8043C16.6845 23.5993 16.5933 23.6594 16.5307 23.7629C16.4681 23.8664 16.4572 23.9751 16.498 24.0889L16.5043 24.1014L16.523 24.1827C16.5264 24.1975 16.5306 24.2121 16.5355 24.2264L16.5981 24.4015C16.6051 24.4208 16.6134 24.4396 16.6231 24.4577L16.7543 24.7203C16.7671 24.7444 16.7816 24.7673 16.7981 24.7891L17.0356 25.1204C17.0417 25.1268 17.048 25.133 17.0544 25.1391L17.367 25.5329C17.3711 25.5372 17.3752 25.5414 17.3795 25.5454L17.742 25.9705L18.1233 26.4394C18.1254 26.4415 18.1275 26.4436 18.1296 26.4456L18.5422 26.9332C18.5654 26.9581 18.5904 26.981 18.6172 27.002L19.111 27.4333C19.1311 27.449 19.1519 27.4636 19.1735 27.4771L19.7237 27.8521C19.7379 27.8631 19.7524 27.8735 19.7674 27.8834L20.3363 28.2147C20.3465 28.2212 20.357 28.2275 20.3675 28.2335L20.9239 28.521C20.9321 28.5253 20.9405 28.5295 20.9489 28.5335L21.4677 28.7836C21.4719 28.7836 21.4761 28.7836 21.4802 28.7836L21.9803 29.0211C21.9968 29.028 22.0134 29.0342 22.0303 29.0399L22.5242 29.2274C22.5468 29.2348 22.5697 29.241 22.593 29.2462L23.0805 29.3837C23.1012 29.3888 23.122 29.3929 23.1431 29.3962L23.6181 29.4837C23.6327 29.4862 23.6473 29.4883 23.6619 29.49L24.087 29.54C24.1202 29.5445 24.1535 29.5466 24.187 29.5462L24.5496 29.5337C24.614 29.5306 24.6765 29.5181 24.7371 29.4962L24.9934 29.4087C25.0605 29.3873 25.1209 29.354 25.1747 29.3087L25.2997 29.1961L25.381 29.1211C25.3068 29.1123 25.2422 29.1331 25.1872 29.1836L25.2872 29.1961C25.4496 29.2169 25.5413 29.146 25.5621 28.9836C25.5829 28.8212 25.5121 28.7295 25.3497 28.7086L25.2497 28.696C25.2913 28.7541 25.3476 28.7875 25.4185 28.7961L25.356 28.7086C25.3464 28.6954 25.336 28.6829 25.3247 28.671L25.2122 28.5523C25.1675 28.5029 25.1155 28.4633 25.0559 28.4335L24.8121 28.3147C24.7645 28.2897 24.7145 28.2709 24.6621 28.2585L24.3058 28.1897L23.9057 28.1084L23.4869 27.9897L23.0368 27.8396L22.5804 27.6646L22.0991 27.4458L21.599 27.202L21.0552 26.9207L20.4988 26.6144L19.9362 26.2893L19.3986 25.958L18.9298 25.633L18.5297 25.2579L18.1796 24.8578L17.8608 24.4765C17.8567 24.4723 17.8525 24.4681 17.8483 24.464L17.5795 24.1577C17.5715 24.1491 17.5631 24.1407 17.5545 24.1327L17.3357 23.9264C17.3336 23.9243 17.3316 23.9222 17.3294 23.9201L17.2232 23.8201L17.1857 23.7701C17.1962 23.7921 17.2087 23.813 17.2232 23.8326L17.2107 23.8014C17.199 23.8775 17.2094 23.9504 17.2419 24.0202V24.0139C17.2629 23.8871 17.228 23.7783 17.1371 23.6874C17.0462 23.5965 16.9374 23.5616 16.8106 23.5826Z" fill="black"/>
<path d="M23.1926 19.7943L23.1989 19.7881C23.3486 19.6137 23.3402 19.4474 23.1736 19.2891C23.0071 19.1307 22.8405 19.1307 22.674 19.2891C22.5075 19.4474 22.499 19.6137 22.6488 19.7881L22.655 19.7943C22.727 19.8738 22.8166 19.9136 22.9238 19.9136C23.0311 19.9136 23.1207 19.8738 23.1926 19.7943ZM22.5237 19.538C22.5237 19.6451 22.5616 19.7364 22.6373 19.8121C22.7129 19.8878 22.8043 19.9256 22.9113 19.9256C23.0183 19.9256 23.1097 19.8878 23.1854 19.8121C23.2611 19.7364 23.2989 19.6451 23.2989 19.538C23.2989 19.431 23.2611 19.3396 23.1854 19.264C23.1097 19.1883 23.0183 19.1505 22.9113 19.1505C22.8043 19.1505 22.7129 19.1883 22.6373 19.264C22.5616 19.3396 22.5237 19.431 22.5237 19.538ZM22.4675 19.5193C22.4675 19.6418 22.5108 19.7464 22.5975 19.8331C22.6841 19.9198 22.7888 19.9631 22.9113 19.9631C23.0339 19.9631 23.1385 19.9198 23.2252 19.8331C23.3118 19.7464 23.3552 19.6418 23.3552 19.5193C23.3552 19.3967 23.3118 19.2921 23.2252 19.2054C23.1385 19.1188 23.0339 19.0754 22.9113 19.0754C22.7888 19.0754 22.6841 19.1188 22.5975 19.2054C22.5108 19.2921 22.4675 19.3967 22.4675 19.5193ZM22.3987 19.5005C22.3988 19.642 22.4489 19.7628 22.5489 19.8628C22.649 19.9629 22.7698 20.0129 22.9113 20.0129C23.0528 20.0129 23.1736 19.9629 23.2737 19.8628C23.3738 19.7628 23.4238 19.642 23.4239 19.5005C23.4238 19.359 23.3738 19.2383 23.2737 19.1382C23.1736 19.0382 23.0528 18.9882 22.9113 18.9882C22.7698 18.9882 22.649 19.0382 22.5489 19.1382C22.4489 19.2383 22.3988 19.359 22.3987 19.5005ZM22.33 19.488C22.33 19.652 22.3879 19.792 22.5039 19.9079C22.6199 20.0239 22.7598 20.0819 22.9238 20.0819C23.0878 20.0819 23.2278 20.0239 23.3437 19.9079C23.4597 19.792 23.5177 19.652 23.5177 19.488C23.5177 19.324 23.4597 19.1841 23.3437 19.0681C23.2278 18.9521 23.0878 18.8942 22.9238 18.8942C22.7598 18.8942 22.6199 18.9521 22.5039 19.0681C22.3879 19.1841 22.33 19.324 22.33 19.488ZM22.2987 19.363L22.2799 19.4318C22.2665 19.4979 22.2623 19.5645 22.2674 19.6318L22.2799 19.7881C22.2842 19.8455 22.2946 19.9017 22.3112 19.9569L22.38 20.2132C22.3921 20.2496 22.4067 20.285 22.4237 20.3194L22.5738 20.6632L22.755 21.1258L22.9613 21.7447L23.1739 22.4636L23.3614 23.2075L23.4864 23.9076L23.5677 24.5202L23.599 25.0891L23.624 25.6017C23.6262 25.6332 23.6303 25.6645 23.6365 25.6954L23.7115 26.1143C23.7228 26.18 23.7436 26.2425 23.774 26.3018L23.8928 26.5269L23.9428 26.7456C23.9491 26.7673 23.9575 26.7881 23.9678 26.8082L24.0115 26.9019L23.999 26.9644C23.9925 27.1061 24.059 27.1897 24.1984 27.2154C24.3378 27.2411 24.4297 27.1866 24.4741 27.052L24.4866 26.9707L24.5679 26.8769C24.5797 26.8611 24.5901 26.8444 24.5991 26.8269L24.7117 26.6144L24.8742 26.4018C24.9249 26.338 24.9624 26.2671 24.9867 26.1893L25.1055 25.7767C25.1214 25.7257 25.1318 25.6736 25.1367 25.6204L25.1743 25.1016C25.1761 25.0703 25.1761 25.0391 25.1743 25.0078L25.143 24.4077C25.1414 24.391 25.1394 24.3743 25.1367 24.3577L25.0617 23.6951C25.0603 23.6762 25.0582 23.6575 25.0555 23.6388L24.918 22.8949L24.7742 22.101C24.7724 22.0885 24.7703 22.076 24.7679 22.0635L24.5929 21.3009C24.5876 21.2777 24.5814 21.2548 24.5741 21.2321L24.3678 20.582C24.3603 20.5608 24.352 20.54 24.3428 20.5195L24.1428 20.0194C24.1332 19.9981 24.1228 19.9773 24.1115 19.9569L23.9303 19.6005C23.912 19.5636 23.8912 19.5282 23.8678 19.4943L23.7115 19.2755C23.6781 19.232 23.6406 19.1924 23.599 19.1567L23.4802 19.0442C23.4155 18.9851 23.3426 18.9393 23.2614 18.9067L23.1926 18.8817C23.0014 18.808 22.8155 18.8197 22.635 18.9169C22.4546 19.0141 22.3425 19.1628 22.2987 19.363Z" fill="black"/>
<path d="M23.4552 21.0509L23.4615 21.0634C23.4753 20.985 23.4649 20.91 23.4302 20.8383L23.4114 20.9446C23.4088 20.957 23.4067 20.9695 23.4052 20.9821L23.3864 21.2384C23.3838 21.2508 23.3818 21.2633 23.3802 21.2759V21.7447C23.3813 21.7636 23.3834 21.7824 23.3864 21.801L23.4552 22.5074C23.4552 22.5095 23.4552 22.5116 23.4552 22.5136L23.5615 23.4263L23.6552 24.414L23.749 25.3767L23.8178 26.2268C23.8178 26.2289 23.8178 26.231 23.8178 26.2331L23.8803 26.9207C23.8821 26.9502 23.8863 26.9794 23.8928 27.0082L24.0116 27.4771L24.1303 28.0834L24.1491 28.2772C24.1511 28.2814 24.1532 28.2856 24.1553 28.2897L24.1741 28.421C24.2142 28.6304 24.3403 28.7246 24.5524 28.7036C24.7646 28.6826 24.8698 28.5654 24.868 28.3522L24.8617 28.221C24.8618 28.2168 24.8618 28.2126 24.8617 28.2085L24.843 28.0397L24.918 27.4333L24.9805 26.9395C24.9849 26.9105 24.987 26.8813 24.9867 26.852L24.9617 26.1643C24.9598 26.1559 24.9578 26.1476 24.9555 26.1393L24.8867 25.2829C24.8867 25.2808 24.8867 25.2787 24.8867 25.2767L24.8055 24.3077C24.8034 24.3056 24.8013 24.3035 24.7992 24.3015L24.6992 23.3075C24.6992 23.3034 24.6992 23.2992 24.6992 23.295L24.5929 22.3824C24.5911 22.3719 24.589 22.3615 24.5867 22.3511L24.4554 21.6447C24.4506 21.6214 24.4444 21.5985 24.4366 21.576L24.2929 21.1321C24.2894 21.1173 24.2852 21.1027 24.2804 21.0884L24.1741 20.8571L24.1366 20.7571C24.0998 20.6717 24.0394 20.6092 23.9553 20.5695L23.9428 20.5633C23.7881 20.4937 23.6508 20.5189 23.5308 20.6389C23.4109 20.7588 23.3857 20.8961 23.4552 21.0509ZM24.3241 28.5648L24.3429 28.596C24.4263 28.7334 24.5367 28.7604 24.6741 28.6772C24.8115 28.5939 24.8386 28.4835 24.7554 28.346L24.7367 28.3147C24.6533 28.1772 24.5429 28.1501 24.4054 28.2335C24.2679 28.3168 24.2408 28.4273 24.3241 28.5648Z" fill="black"/>
<path d="M24.0991 23.37C24.0991 23.4684 24.1339 23.5524 24.2035 23.622C24.273 23.6916 24.357 23.7264 24.4554 23.7264C24.5538 23.7264 24.6378 23.6916 24.7074 23.622C24.777 23.5524 24.8117 23.4684 24.8117 23.37C24.8117 23.2716 24.777 23.1877 24.7074 23.1181C24.6378 23.0485 24.5538 23.0137 24.4554 23.0137C24.357 23.0137 24.273 23.0485 24.2035 23.1181C24.1339 23.1877 24.0991 23.2716 24.0991 23.37ZM24.1179 23.2513L24.0428 23.4638C24.0277 23.5084 24.0194 23.5542 24.0178 23.6013L24.0053 23.9389C24.0033 23.966 24.0033 23.9931 24.0053 24.0202L24.0679 24.5203C24.0678 24.5223 24.0678 24.5244 24.0679 24.5265L24.1491 25.1329C24.149 25.1391 24.149 25.1454 24.1491 25.1516L24.2616 25.8205C24.2616 25.8226 24.2616 25.8247 24.2616 25.8268L24.3742 26.5019C24.3762 26.5061 24.3783 26.5102 24.3804 26.5144L24.5054 27.1395C24.509 27.1543 24.5131 27.1689 24.5179 27.1833L24.6617 27.6959C24.6638 27.698 24.6659 27.7 24.668 27.7021L24.7742 28.0584L24.8117 28.296L24.8242 28.4585C24.8312 28.5551 24.8713 28.6351 24.9445 28.6986C25.0178 28.762 25.1027 28.7902 25.1993 28.7833C25.2959 28.7764 25.376 28.7364 25.4394 28.6632C25.5029 28.59 25.5312 28.5051 25.5244 28.4085L25.5119 28.2397L25.5056 27.9834L25.5244 27.5958C25.527 27.5834 25.5291 27.5709 25.5306 27.5583L25.5181 27.027C25.5171 27.0081 25.515 26.9894 25.5119 26.9707L25.4244 26.3331C25.4244 26.331 25.4244 26.3289 25.4244 26.3268L25.3181 25.6517L25.2118 24.9891L25.1306 24.389L25.0618 23.8889C25.0597 23.8615 25.0556 23.8344 25.0493 23.8076L24.9493 23.4826C24.9366 23.4381 24.9178 23.3965 24.893 23.3575L24.768 23.17C24.6833 23.0466 24.5667 22.9942 24.4182 23.0128C24.2697 23.0314 24.1696 23.1108 24.1179 23.2513Z" fill="black"/>
<path d="M23.1986 19.8502C23.1987 19.9503 23.2341 20.0358 23.3049 20.1065C23.3757 20.1773 23.4611 20.2127 23.5612 20.2127C23.6613 20.2127 23.7468 20.1773 23.8175 20.1065C23.8883 20.0358 23.9238 19.9503 23.9238 19.8502C23.9237 19.7501 23.8883 19.6647 23.8175 19.5939C23.7468 19.5232 23.6613 19.4878 23.5612 19.4878C23.4611 19.4878 23.3757 19.5232 23.3049 19.5939C23.2341 19.6647 23.1987 19.7501 23.1986 19.8502ZM23.1111 19.8502C23.1112 19.9658 23.1521 20.0645 23.2339 20.1462C23.3156 20.228 23.4143 20.2688 23.53 20.2688C23.6456 20.2688 23.7443 20.228 23.826 20.1462C23.9078 20.0645 23.9487 19.9658 23.9488 19.8502C23.9487 19.7346 23.9078 19.6359 23.826 19.5542C23.7443 19.4725 23.6456 19.4316 23.53 19.4316C23.4143 19.4316 23.3156 19.4725 23.2339 19.5542C23.1521 19.6359 23.1112 19.7346 23.1111 19.8502ZM23.4237 20.2941H23.4362C23.4962 20.3077 23.5566 20.3098 23.6175 20.3003L23.655 20.2941L23.68 20.2878L23.755 20.2941C23.8303 20.2951 23.9032 20.2826 23.9738 20.2566L24.1613 20.194C24.174 20.1903 24.1865 20.1861 24.1988 20.1815L24.4426 20.0753C24.4468 20.0732 24.451 20.0711 24.4551 20.069L24.7302 19.9502C24.7386 19.9462 24.7469 19.9421 24.7552 19.9377L25.049 19.794C25.0553 19.7899 25.0616 19.7857 25.0678 19.7815L25.3741 19.6252C25.3889 19.6174 25.4035 19.609 25.4178 19.6002L25.7304 19.4064C25.7497 19.3948 25.7685 19.3823 25.7866 19.3689L26.0992 19.1313C26.1188 19.1157 26.1376 19.099 26.1555 19.0813L26.4618 18.8C26.4771 18.784 26.4917 18.7674 26.5055 18.75L26.8181 18.4062C26.8267 18.396 26.8351 18.3856 26.8431 18.3749L27.1682 17.9686C27.1745 17.9625 27.1808 17.9562 27.1869 17.9499L27.5057 17.5185C27.5078 17.5165 27.5099 17.5144 27.512 17.5123L27.8245 17.0809C27.8266 17.081 27.8287 17.081 27.8308 17.0809L28.1246 16.6746L28.6809 15.9432L28.931 15.6244C28.9445 15.6063 28.957 15.5876 28.9685 15.5682L29.1623 15.2556L29.3498 14.9743C29.3542 14.9661 29.3583 14.9577 29.3623 14.9493L29.5249 14.6742C29.5291 14.6701 29.5332 14.666 29.5374 14.6617L29.6811 14.4054C29.6902 14.3892 29.6986 14.3725 29.7061 14.3554L29.9124 13.9053L29.9937 13.7428L30.075 13.6053C30.0815 13.5951 30.0878 13.5847 30.0937 13.574L30.1625 13.449C30.1962 13.3864 30.2171 13.3197 30.225 13.249L30.2312 13.1614L30.2437 13.0989C30.219 13.144 30.2023 13.192 30.1937 13.2427L30.2312 13.1802C30.2414 13.158 30.2497 13.135 30.2562 13.1114L30.275 13.0677C30.331 12.9291 30.3206 12.7958 30.2437 12.6676L30.2375 12.6551C30.1739 12.5497 30.0825 12.4817 29.9632 12.4513C29.8439 12.4209 29.7312 12.4367 29.6249 12.4988L29.5999 12.5176C29.3701 12.6431 29.3035 12.8275 29.4001 13.0708C29.4967 13.3142 29.6716 13.4027 29.9249 13.3365L29.9562 13.3302C29.8589 13.0888 29.6839 12.9992 29.4311 13.0614L29.4373 13.0739C29.4906 12.9561 29.4927 12.8373 29.4436 12.7176L29.4373 12.7364L29.4123 12.7739C29.4886 12.7347 29.549 12.6784 29.5936 12.6051L29.5186 12.6426C29.5165 12.6447 29.5144 12.6468 29.5123 12.6489L29.4186 12.6989C29.3366 12.7424 29.2699 12.8028 29.2185 12.8801L29.1373 12.9989L29.031 13.1552C29.0289 13.1593 29.0268 13.1635 29.0248 13.1677L28.9122 13.349L28.6372 13.7803C28.6307 13.7885 28.6245 13.7968 28.6184 13.8053L28.4809 14.0491L28.3309 14.2929L28.1496 14.5367L27.9245 14.8055C27.9224 14.8076 27.9204 14.8097 27.9183 14.8118L27.6557 15.1243L27.0681 15.8307L26.7368 16.2058C26.726 16.2179 26.7155 16.2304 26.7056 16.2433L26.3805 16.6621C26.3805 16.6642 26.3805 16.6663 26.3805 16.6684L26.0617 17.0934L25.7491 17.4748L25.4741 17.7873L25.2178 18.0311L24.9615 18.2249L24.6989 18.3937L24.4114 18.5437L24.1238 18.7C24.1089 18.7078 24.0943 18.7161 24.0801 18.725L23.8175 18.8875C23.8047 18.8955 23.7922 18.9038 23.78 18.9125L23.5675 19.0688C23.5568 19.0768 23.5464 19.0852 23.5362 19.0938L23.3862 19.2251C23.3242 19.2756 23.2742 19.3361 23.2362 19.4064L23.2174 19.4376V19.4439C23.1851 19.4777 23.158 19.5152 23.1361 19.5564L23.1111 19.5939C23.0557 19.699 23.0411 19.8094 23.0674 19.9252V19.9377C23.1075 20.1352 23.2263 20.2539 23.4237 20.2941ZM29.6311 12.7739L29.5999 12.8051C29.4916 12.9135 29.4917 13.0218 29.6 13.1301C29.7082 13.2384 29.8166 13.2384 29.9249 13.1302L29.9562 13.0989C30.0644 12.9906 30.0644 12.8823 29.9561 12.774C29.8478 12.6657 29.7395 12.6657 29.6311 12.7739Z" fill="black"/>
<path d="M24.1863 19.9127L24.1925 19.919C24.2785 19.9559 24.366 19.9601 24.4551 19.9315L24.5301 19.9065L24.7051 19.8627C24.7243 19.8577 24.743 19.8514 24.7614 19.844L25.0365 19.7377C25.0646 19.7275 25.0917 19.715 25.1177 19.7002L25.4553 19.4939C25.4704 19.4842 25.485 19.4738 25.499 19.4626L25.8741 19.1813C25.8805 19.1752 25.8868 19.169 25.8929 19.1626L26.2992 18.8313C26.3099 18.8233 26.3203 18.815 26.3305 18.8063L26.7493 18.4187C26.7557 18.4126 26.7619 18.4063 26.768 18.3999L27.1806 17.9749C27.1827 17.9728 27.1848 17.9707 27.1869 17.9686L27.6119 17.531C27.6206 17.5209 27.629 17.5105 27.637 17.4998L28.012 17.0559C28.0252 17.0419 28.0377 17.0273 28.0495 17.0122L28.3683 16.5558C28.377 16.5457 28.3853 16.5353 28.3933 16.5246L28.6621 16.0807C28.6687 16.0705 28.6749 16.0601 28.6809 16.0495L28.9184 15.6119C28.9228 15.6037 28.927 15.5953 28.9309 15.5869L29.1372 15.1493C29.1416 15.1411 29.1458 15.1327 29.1497 15.1243L29.3248 14.7117L29.4873 14.3429C29.4894 14.3408 29.4915 14.3388 29.4936 14.3367L29.6186 14.0304C29.6346 13.994 29.6471 13.9565 29.6561 13.9178L29.6936 13.7303L29.7436 13.6303C29.8022 13.4816 29.801 13.3335 29.7399 13.1858C29.6789 13.0381 29.5752 12.9323 29.4288 12.8684C29.2824 12.8044 29.1343 12.8002 28.9845 12.8558C28.8347 12.9114 28.7251 13.0112 28.6559 13.1552L28.6121 13.2615L28.5059 13.4177C28.4816 13.4511 28.4608 13.4866 28.4434 13.524L28.3121 13.8303L28.1496 14.2054C28.1495 14.2075 28.1495 14.2096 28.1496 14.2116L27.9808 14.6055L27.7745 15.0055L27.5494 15.4244L27.2994 15.8432L27.0056 16.2808L26.6805 16.7309L26.318 17.1685L25.9366 17.5685L25.5366 17.9499L25.1552 18.2812L24.7989 18.5812C24.7968 18.5833 24.7947 18.5854 24.7927 18.5875L24.4989 18.8438C24.4836 18.8555 24.469 18.868 24.4551 18.8813L24.2551 19.0938C24.2464 19.1018 24.2381 19.1102 24.2301 19.1188L24.1113 19.2626C24.1092 19.2647 24.1071 19.2667 24.105 19.2689L24.0488 19.3439C24.1061 19.3184 24.154 19.2809 24.1925 19.2313L24.1863 19.2376C24.0395 19.3022 23.9661 19.4147 23.9661 19.5752C23.9661 19.7356 24.0395 19.8481 24.1863 19.9127Z" fill="black"/>
<path d="M16.3477 2.24071C16.3477 2.45742 16.456 2.56577 16.6727 2.56577C16.8894 2.56577 16.9978 2.45742 16.9978 2.24071C16.9978 2.024 16.8894 1.91565 16.6727 1.91565C16.456 1.91565 16.3477 2.024 16.3477 2.24071ZM16.629 1.88439H16.604C16.553 1.889 16.5051 1.90359 16.4602 1.92815L16.4227 1.9469L16.3414 1.98441L16.3102 1.99066C16.2911 1.99361 16.2724 1.99778 16.2539 2.00316L16.1289 2.04067C16.0775 2.0536 16.0296 2.07444 15.9851 2.10318L15.8226 2.20945C15.8097 2.21723 15.7972 2.22556 15.7851 2.23446L15.5663 2.40949C15.562 2.41359 15.5579 2.41776 15.5538 2.42199L15.2537 2.67829C15.2408 2.68818 15.2283 2.69859 15.2162 2.70955L14.8724 3.06587C14.8638 3.07396 14.8555 3.08229 14.8474 3.09087L14.4536 3.53471C14.4471 3.54289 14.4408 3.55122 14.4348 3.55971L14.0222 4.07856C14.0158 4.08468 14.0096 4.09093 14.0035 4.09731L13.5784 4.67867C13.5741 4.68485 13.5699 4.6911 13.5659 4.69743L13.1471 5.3163C13.1406 5.32448 13.1344 5.33281 13.1283 5.3413L12.7532 5.96017C12.7443 5.97443 12.736 5.98901 12.7282 6.00393L12.4157 6.59779C12.4134 6.60608 12.4113 6.61442 12.4094 6.62279L12.1406 7.1854C12.1338 7.19975 12.1276 7.21434 12.1219 7.22916L11.9156 7.77926C11.9023 7.81172 11.8919 7.84506 11.8843 7.87928L11.778 8.41063L11.6655 8.86697L11.5468 9.26705C11.5445 9.27533 11.5424 9.28366 11.5405 9.29205L11.4592 9.62962C11.4495 9.67074 11.4453 9.71241 11.4467 9.75464L11.453 10.0109C11.4535 10.0679 11.4661 10.122 11.4905 10.1735L11.5155 10.2172L11.5092 10.2422C11.476 10.3914 11.5323 10.489 11.678 10.535C11.8238 10.5811 11.9259 10.5335 11.9843 10.3923L11.9968 10.361L12.0468 10.3297C12.0887 10.3032 12.1241 10.2699 12.1531 10.2297L12.3094 10.0172C12.33 9.98583 12.3467 9.95249 12.3594 9.91717L12.4907 9.59836C12.4953 9.58602 12.4995 9.57352 12.5032 9.56085L12.6282 9.16703L12.7907 8.7607L13.0408 8.29811C13.0497 8.28387 13.0581 8.26928 13.0658 8.25435L13.3033 7.71675L13.5534 7.17915L13.8534 6.61654L14.216 6.02893L14.6223 5.42882L15.0412 4.85996L15.435 4.33486C15.435 4.33277 15.435 4.33069 15.435 4.32861L15.7913 3.85352C15.7934 3.84937 15.7955 3.84521 15.7976 3.84101L16.0851 3.44094L16.2977 3.15338L16.4539 2.97835L16.5852 2.85333C16.5984 2.84151 16.6109 2.82901 16.6227 2.81582L16.7102 2.7158C16.7239 2.70001 16.7364 2.68334 16.7477 2.66579L16.7727 2.62203L16.8228 2.57202L16.829 2.56577C16.8117 2.57284 16.795 2.58117 16.779 2.59078L16.804 2.58453C17.0104 2.51088 17.0871 2.36774 17.0339 2.1551C16.9808 1.94246 16.8458 1.85222 16.629 1.88439Z" fill="black"/>
<path d="M0.869684 13.2177C0.869684 13.3299 0.909354 13.4257 0.988694 13.5051C1.06803 13.5844 1.16381 13.6241 1.27601 13.6241C1.38822 13.6241 1.48399 13.5844 1.56333 13.5051C1.64267 13.4257 1.68234 13.3299 1.68234 13.2177C1.68234 13.1055 1.64267 13.0098 1.56333 12.9304C1.48399 12.8511 1.38822 12.8114 1.27601 12.8114C1.16381 12.8114 1.06803 12.8511 0.988694 12.9304C0.909354 13.0098 0.869684 13.1055 0.869684 13.2177ZM1.4573 13.6116L1.58232 13.5678C1.59719 13.5622 1.61178 13.556 1.62608 13.549L1.80111 13.4615C1.8272 13.4488 1.8522 13.4342 1.87613 13.4178L2.09492 13.274C2.09911 13.272 2.10327 13.2699 2.10742 13.2677L2.34496 13.099L2.63252 12.9239L2.96383 12.7551L3.3389 12.5739L3.75148 12.3863L4.22032 12.1925L4.76418 11.9863L5.34554 11.7862L5.95815 11.5924L6.56452 11.4049C6.56661 11.4028 6.5687 11.4007 6.57077 11.3986L7.14588 11.2111L7.68348 11.0423L8.19608 10.911L8.73993 10.7985L9.29004 10.6923L9.79638 10.6297L10.2527 10.5797L10.6465 10.5547C10.6612 10.5531 10.6758 10.551 10.6903 10.5485L11.0091 10.511C11.0766 10.5022 11.1412 10.4834 11.2029 10.4547L11.4092 10.3547C11.5359 10.2967 11.6297 10.205 11.6905 10.0796L11.7343 9.98587C11.8025 9.8376 11.7879 9.69799 11.6905 9.56704L11.6342 9.48578C11.5544 9.37911 11.4502 9.30827 11.3217 9.27323L11.1029 9.21072C11.0538 9.19661 11.0038 9.18828 10.9529 9.18572L10.6403 9.16696C10.6195 9.16602 10.5986 9.16602 10.5778 9.16696L10.1715 9.17947C10.1694 9.17946 10.1673 9.17946 10.1652 9.17947L9.68386 9.20447C9.67969 9.20444 9.67553 9.20444 9.67136 9.20447L9.12751 9.23573C9.12126 9.23565 9.115 9.23565 9.10875 9.23573L8.52739 9.28574C8.50438 9.28679 8.48146 9.28887 8.45863 9.29199L7.88977 9.39201C7.86876 9.39532 7.84792 9.39948 7.82726 9.40451L7.27715 9.54829C7.2646 9.55006 7.2521 9.55215 7.23965 9.55454L6.67704 9.73582C6.66867 9.73777 6.66033 9.73985 6.65203 9.74207L6.08318 9.93586C6.07267 9.9398 6.06225 9.94397 6.05192 9.94836L5.46431 10.1797L4.86419 10.4047L4.26408 10.6172C4.25989 10.6193 4.25572 10.6214 4.25158 10.6235L3.69522 10.836C3.69103 10.8381 3.68687 10.8402 3.68272 10.8423L3.18888 11.0486C3.17408 11.0543 3.1595 11.0606 3.14512 11.0673L2.71378 11.2736C2.70747 11.2777 2.70122 11.2819 2.69503 11.2861L2.31371 11.4862C2.2855 11.501 2.25841 11.5177 2.23244 11.5362L1.90113 11.7675C1.88601 11.7793 1.87143 11.7918 1.85737 11.805L1.56982 12.0425C1.55693 12.0525 1.54442 12.0629 1.53231 12.0738L1.30727 12.2926C1.28474 12.3139 1.2639 12.3369 1.24476 12.3613L1.08222 12.5676C1.06088 12.5951 1.04212 12.6243 1.02596 12.6551L0.938447 12.8302C0.918562 12.87 0.903976 12.9117 0.894688 12.9552L0.863432 13.0802C0.819259 13.256 0.864728 13.4044 0.999839 13.5253C1.13495 13.6462 1.28744 13.6749 1.4573 13.6116ZM11.528 10.0484L11.6155 10.0359C11.7822 10.0109 11.853 9.91502 11.828 9.74833C11.803 9.58163 11.7072 9.51078 11.5405 9.53578L11.4529 9.54829C11.2863 9.57334 11.2155 9.66919 11.2405 9.83583C11.2655 10.0025 11.3613 10.0733 11.528 10.0484Z" fill="black"/>
<path d="M2.02585 13.9492C2.02585 14.1409 2.12171 14.2368 2.31341 14.2368C2.50511 14.2368 2.60096 14.1409 2.60096 13.9492C2.60096 13.7575 2.50511 13.6617 2.31341 13.6617C2.12171 13.6617 2.02585 13.7575 2.02585 13.9492ZM1.91958 13.9555C1.91958 14.0642 1.95803 14.1571 2.03493 14.234C2.11183 14.3109 2.20466 14.3493 2.31341 14.3493C2.42216 14.3493 2.51499 14.3109 2.59189 14.234C2.66878 14.1571 2.70723 14.0642 2.70723 13.9555C2.70723 13.8467 2.66878 13.7539 2.59189 13.677C2.51499 13.6001 2.42216 13.5617 2.31341 13.5617C2.20466 13.5617 2.11183 13.6001 2.03493 13.677C1.95803 13.7539 1.91958 13.8467 1.91958 13.9555ZM1.93209 14.1555L1.96334 14.2243C1.97551 14.2507 1.99009 14.2757 2.0071 14.2993L2.10087 14.4306C2.10086 14.4327 2.10086 14.4348 2.10087 14.4368L2.2509 14.6369C2.26592 14.659 2.28258 14.6799 2.30091 14.6994L2.53845 14.9432C2.55222 14.9586 2.5668 14.9732 2.58221 14.9869L2.93853 15.2745C2.95251 15.2877 2.96709 15.3002 2.98229 15.312L3.45738 15.6308C3.46555 15.6373 3.47389 15.6435 3.48238 15.6496L4.05749 15.9871C4.06164 15.9893 4.0658 15.9913 4.06999 15.9934L4.70136 16.3497C4.70754 16.354 4.71379 16.3581 4.72012 16.3622L5.37649 16.706C5.38474 16.7104 5.39307 16.7145 5.4015 16.7185L6.04537 17.0248C6.05568 17.0293 6.0661 17.0334 6.07663 17.0373L6.68924 17.2874C6.71371 17.2973 6.73872 17.3057 6.76426 17.3124L7.33937 17.4624C7.36615 17.4685 7.39324 17.4727 7.42063 17.4749L7.93948 17.5312C7.94776 17.5335 7.9561 17.5356 7.96449 17.5374L8.43332 17.5624C8.43541 17.5625 8.43749 17.5625 8.43958 17.5624L8.85841 17.5812C8.89657 17.5829 8.93408 17.5788 8.97093 17.5687L9.22723 17.4937L9.40226 17.4999C9.56479 17.5083 9.65022 17.4312 9.65856 17.2686C9.66689 17.1061 9.5898 17.0207 9.42726 17.0123L9.25848 16.9998L9.02719 16.8936C9.00713 16.8833 8.98629 16.8749 8.96468 16.8686L8.58335 16.7685L8.18328 16.6123L7.72069 16.3997L7.17684 16.1497C7.17477 16.1476 7.17268 16.1455 7.17058 16.1434L6.57672 15.8871L5.95785 15.5871L5.32023 15.2432L4.69511 14.8932C4.69304 14.8911 4.69096 14.889 4.68886 14.8869L4.10125 14.5681C4.09918 14.566 4.0971 14.5639 4.095 14.5619L3.5949 14.2931L3.20733 14.0868L2.95103 13.918L2.78225 13.8055L2.69473 13.7117L2.63847 13.6617C2.46551 13.4884 2.2787 13.4719 2.07806 13.6122C1.87741 13.7525 1.82875 13.9336 1.93209 14.1555Z" fill="black"/>
<path d="M7.45813 16.9374C7.45812 17.0358 7.49291 17.1197 7.56249 17.1893C7.63206 17.2589 7.71605 17.2937 7.81444 17.2937C7.91284 17.2937 7.99682 17.2589 8.0664 17.1893C8.13597 17.1197 8.17076 17.0358 8.17076 16.9374C8.17076 16.839 8.13597 16.755 8.0664 16.6854C7.99682 16.6158 7.91284 16.581 7.81444 16.581C7.71605 16.581 7.63206 16.6158 7.56249 16.6854C7.49291 16.755 7.45812 16.839 7.45813 16.9374ZM7.43937 16.9374C7.43937 17.0392 7.47538 17.1261 7.5474 17.1982C7.61941 17.2702 7.70634 17.3062 7.80819 17.3062C7.91004 17.3062 7.99697 17.2702 8.06899 17.1982C8.141 17.1261 8.17701 17.0392 8.17701 16.9374C8.17701 16.8355 8.141 16.7486 8.06899 16.6766C7.99697 16.6046 7.91004 16.5685 7.80819 16.5685C7.70634 16.5685 7.61941 16.6046 7.5474 16.6766C7.47538 16.7486 7.43937 16.8355 7.43937 16.9374ZM7.40186 16.9499C7.40186 17.0621 7.44153 17.1578 7.52087 17.2372C7.60021 17.3165 7.69599 17.3562 7.80819 17.3562C7.9204 17.3562 8.01617 17.3165 8.09551 17.2372C8.17485 17.1578 8.21452 17.0621 8.21452 16.9499C8.21452 16.8377 8.17485 16.7419 8.09551 16.6626C8.01617 16.5832 7.9204 16.5435 7.80819 16.5435C7.69599 16.5435 7.60021 16.5832 7.52087 16.6626C7.44153 16.7419 7.40186 16.8377 7.40186 16.9499ZM7.35811 16.8936L7.35186 16.9436C7.31902 17.1143 7.3607 17.2644 7.47688 17.3937L7.5644 17.4812C7.58725 17.5065 7.61225 17.5294 7.63941 17.55L7.80819 17.675C7.81436 17.6793 7.82061 17.6835 7.82695 17.6875L8.07074 17.85C8.12987 17.8902 8.19447 17.9172 8.26453 17.9313L8.53958 17.9876L8.77088 18.0626L8.95216 18.2064C9.08135 18.3064 9.19596 18.2918 9.29598 18.1626C9.39599 18.0334 9.38141 17.9188 9.25222 17.8188L9.07718 17.6813L8.96466 17.4687L8.85214 17.2062C8.8244 17.1398 8.78481 17.0814 8.73337 17.0311L8.52083 16.8311C8.49396 16.8052 8.46479 16.7823 8.43331 16.7623L8.25203 16.6498C8.23783 16.6408 8.22324 16.6325 8.20827 16.6248L8.09575 16.5685C8.03439 16.5393 7.96979 16.5227 7.90196 16.5185L7.85195 16.5123C7.73316 16.5039 7.62664 16.5361 7.53239 16.6089C7.43813 16.6817 7.38004 16.7766 7.35811 16.8936Z" fill="black"/>
<path d="M0.700583 13.6367L0.756844 13.7867C0.795747 13.889 0.854092 13.9786 0.931877 14.0555L1.20693 14.3306C1.23601 14.3602 1.26727 14.3873 1.3007 14.4119L1.73828 14.7244C1.7662 14.7451 1.79537 14.7639 1.8258 14.7807L2.41341 15.0995C2.4196 15.1038 2.42585 15.1079 2.43216 15.112L3.11354 15.4496L3.79492 15.7996L4.4513 16.1622L5.07016 16.4998C5.09044 16.5113 5.11127 16.5217 5.13268 16.531L5.70779 16.7623L6.22664 16.9936C6.24082 17.0008 6.2554 17.0071 6.27039 17.0124L6.69547 17.1436L6.98303 17.2999C7.1215 17.3682 7.22839 17.335 7.30371 17.2002C7.37903 17.0654 7.35132 16.957 7.22057 16.8748L6.93927 16.7248L6.63921 16.4122C6.63923 16.4102 6.63923 16.4081 6.63921 16.406L6.25164 16.0122L5.88907 15.5371C5.8664 15.5078 5.8414 15.4807 5.81406 15.4558L5.30146 14.9807C5.27404 14.9556 5.24486 14.9327 5.21394 14.912L4.58882 14.4869C4.56858 14.4734 4.54774 14.4609 4.52631 14.4494L3.83243 14.0743C3.82624 14.07 3.81999 14.0659 3.81368 14.0618L3.1448 13.7242L2.60094 13.4304L2.21962 13.1679L1.95082 12.9366C1.93865 12.9258 1.92615 12.9153 1.91331 12.9053L1.78204 12.8116C1.497 12.6098 1.21567 12.6149 0.938052 12.8267C0.660429 13.0385 0.581273 13.3085 0.700583 13.6367Z" fill="black"/>
<path d="M11.0907 9.07948C11.0907 9.18823 11.1292 9.28105 11.2061 9.35795C11.283 9.43485 11.3758 9.4733 11.4845 9.4733C11.5933 9.4733 11.6861 9.43485 11.763 9.35795C11.8399 9.28105 11.8784 9.18823 11.8784 9.07948C11.8784 8.97072 11.8399 8.8779 11.763 8.801C11.6861 8.7241 11.5933 8.68565 11.4845 8.68565C11.3758 8.68565 11.283 8.7241 11.2061 8.801C11.1292 8.8779 11.0907 8.97072 11.0907 9.07948ZM11.6971 8.74191L11.6783 8.72941C11.4747 8.59569 11.2929 8.6206 11.1328 8.80415C10.9727 8.9877 10.9727 9.17125 11.1328 9.3548C11.2929 9.53835 11.4747 9.56327 11.6783 9.42954L11.6971 9.41704C11.8172 9.33657 11.8772 9.22405 11.8772 9.07948C11.8772 8.93491 11.8172 8.82238 11.6971 8.74191ZM10.9469 9.07948C10.9469 9.21585 10.9952 9.33225 11.0916 9.42868C11.188 9.52511 11.3044 9.57332 11.4408 9.57332C11.5772 9.57332 11.6936 9.52511 11.79 9.42868C11.8864 9.33225 11.9346 9.21585 11.9346 9.07948C11.9346 8.94311 11.8864 8.82671 11.79 8.73028C11.6936 8.63385 11.5772 8.58563 11.4408 8.58563C11.3044 8.58563 11.188 8.63385 11.0916 8.73028C10.9952 8.82671 10.9469 8.94311 10.9469 9.07948ZM11.7658 9.47955L11.7784 9.4733L11.8409 9.44205C11.9009 9.4156 11.9551 9.38018 12.0034 9.33578L12.1472 9.19825C12.1773 9.16964 12.2044 9.13839 12.2284 9.10448L12.391 8.87319C12.3931 8.86904 12.3952 8.86488 12.3972 8.86069L12.6035 8.56063C12.6078 8.55445 12.612 8.5482 12.616 8.54188L12.8473 8.1668L13.1099 7.75423L13.3787 7.3354C13.3808 7.33125 13.3829 7.32708 13.3849 7.32289L13.6412 6.91031C13.6501 6.89607 13.6585 6.88148 13.6662 6.86656L13.885 6.44148C13.8894 6.43324 13.8935 6.4249 13.8975 6.41647L14.1163 5.94763C14.1163 5.94555 14.1163 5.94346 14.1163 5.94138L14.3413 5.44754L14.5726 4.94744L14.7852 4.4911L14.9915 4.08478L15.204 3.6972L15.4165 3.34089L15.6603 2.99082L15.9291 2.6345L16.1979 2.30944C16.2 2.30737 16.2021 2.30529 16.2042 2.30319L16.4292 2.02814L16.623 1.80309C16.6316 1.79501 16.6399 1.78667 16.648 1.77809L16.7856 1.60305C16.8018 1.58119 16.8164 1.55827 16.8293 1.53429L16.9043 1.41552L16.9356 1.35926L16.9731 1.32175L17.0106 1.28424L17.0481 1.25299C17.0545 1.24898 17.0607 1.24481 17.0669 1.24049L17.1106 1.20298C17.1772 1.14557 17.2231 1.07472 17.2481 0.990438L17.2606 0.95293C17.3168 0.766802 17.2689 0.613015 17.1171 0.491569C16.9653 0.370122 16.8048 0.357211 16.6355 0.452835L16.598 0.471589C16.5735 0.486084 16.5506 0.502754 16.5293 0.521598L16.5105 0.540352L16.498 0.546603L16.4355 0.571608C16.4312 0.575697 16.4271 0.579864 16.423 0.58411L16.3417 0.621617L16.2355 0.671627C16.2333 0.673693 16.2313 0.675777 16.2292 0.677878L16.0854 0.746641C16.0449 0.767105 16.0074 0.79211 15.9729 0.821655L15.8041 0.971684C15.7934 0.979664 15.783 0.987999 15.7729 0.996689L15.5541 1.21548C15.5477 1.22159 15.5414 1.22784 15.5353 1.23423L15.279 1.50929C15.2726 1.51746 15.2663 1.52579 15.2603 1.53429L14.979 1.87186C14.9726 1.87797 14.9663 1.88422 14.9602 1.89061L14.6789 2.26568C14.6746 2.27185 14.6705 2.27811 14.6664 2.28443L14.4039 2.65951C14.3952 2.66965 14.3868 2.68007 14.3788 2.69076L14.1476 3.07208C14.1432 3.08032 14.139 3.08866 14.1351 3.09709L13.91 3.50342C13.9057 3.51166 13.9015 3.51999 13.8975 3.52842L13.685 3.95975C13.685 3.96184 13.685 3.96392 13.685 3.966L13.4662 4.42859C13.4641 4.43066 13.462 4.43274 13.4599 4.43484L13.2286 4.93494C13.2286 4.93702 13.2286 4.93911 13.2286 4.94119L13.0036 5.43503L12.7973 5.88512L12.5848 6.27269L12.341 6.66027L12.0784 7.06034L11.7909 7.44792C11.7866 7.45203 11.7825 7.45619 11.7784 7.46042L11.5283 7.82299C11.5241 7.8271 11.5199 7.83127 11.5158 7.83549L11.3158 8.1418C11.307 8.15401 11.2987 8.16651 11.2908 8.17931L11.1532 8.4231C11.144 8.44145 11.1357 8.46021 11.1282 8.47936L11.047 8.6669C11.0339 8.69728 11.0235 8.72854 11.0157 8.76067L10.9845 8.87944C11.0064 8.83987 11.0231 8.79819 11.0345 8.75442L11.0032 8.81068C10.8844 9.05158 10.926 9.26059 11.1279 9.43771C11.3299 9.61482 11.5425 9.62877 11.7658 9.47955ZM17.0231 0.984186L17.0294 0.977935C17.1376 0.869581 17.1375 0.76126 17.0293 0.652971C16.921 0.544681 16.8126 0.544649 16.7043 0.652873L16.698 0.659125C16.5897 0.767479 16.5897 0.875833 16.698 0.984187C16.8064 1.09254 16.9147 1.09254 17.0231 0.984186Z" fill="black"/>
<path d="M16.473 1.3905C16.473 1.48544 16.5066 1.56648 16.5737 1.63361C16.6408 1.70074 16.7219 1.73431 16.8168 1.73431C16.9118 1.73431 16.9928 1.70074 17.0599 1.63361C17.1271 1.56648 17.1606 1.48544 17.1606 1.3905C17.1606 1.29555 17.1271 1.21452 17.0599 1.14738C16.9928 1.08025 16.9118 1.04668 16.8168 1.04668C16.7219 1.04668 16.6408 1.08025 16.5737 1.14738C16.5066 1.21452 16.473 1.29555 16.473 1.3905ZM16.4167 1.3905C16.4167 1.49925 16.4552 1.59207 16.5321 1.66897C16.609 1.74587 16.7018 1.78432 16.8106 1.78432C16.9193 1.78432 17.0121 1.74587 17.089 1.66897C17.1659 1.59207 17.2044 1.49925 17.2044 1.3905C17.2044 1.28174 17.1659 1.18892 17.089 1.11202C17.0121 1.03512 16.9193 0.996672 16.8106 0.996672C16.7018 0.996672 16.609 1.03512 16.5321 1.11202C16.4552 1.18892 16.4167 1.28174 16.4167 1.3905ZM16.4042 1.50302L16.4667 1.75932C16.4785 1.80097 16.4952 1.84056 16.5168 1.87809L16.598 2.02812C16.6021 2.03445 16.6062 2.0407 16.6105 2.04687L16.698 2.20315C16.7041 2.21165 16.7103 2.21999 16.7168 2.22816L16.8168 2.37818L16.9231 2.55322L17.0481 2.75326C17.054 2.76595 17.0602 2.77845 17.0669 2.79076L17.2231 3.00955C17.2291 3.02013 17.2354 3.03055 17.2419 3.04081L17.592 3.4909L17.7482 3.70344L17.892 3.94723L18.0358 4.22854L18.1858 4.53485L18.3296 4.8474C18.3336 4.85582 18.3378 4.86415 18.3421 4.87241L18.5046 5.17872C18.5086 5.18923 18.5127 5.19965 18.5171 5.20997L18.6734 5.48503C18.6815 5.49567 18.6898 5.50609 18.6984 5.51628L18.861 5.76633C18.865 5.77474 18.8691 5.78308 18.8735 5.79133L19.0485 6.03513L19.2173 6.31643L19.4298 6.68525L19.6611 7.09783C19.6631 7.10202 19.6652 7.10619 19.6674 7.11034L19.9112 7.53542C19.9132 7.5417 19.9152 7.54795 19.9174 7.55417L20.1675 7.9605C20.1734 7.97108 20.1797 7.9815 20.1862 7.99175L20.4363 8.35432C20.4404 8.35854 20.4445 8.36271 20.4488 8.36682L20.6863 8.69814L20.9113 9.0232L21.1301 9.33576C21.1362 9.34423 21.1425 9.35257 21.1489 9.36076L21.5302 9.84836C21.6389 9.9879 21.7805 10.0712 21.9553 10.0984L22.0803 10.1234C21.9948 10.0054 21.8802 9.93458 21.7365 9.91087L21.8053 10.0046C21.8972 10.1029 22.0102 10.1582 22.1443 10.1706C22.2783 10.1829 22.3995 10.1493 22.5079 10.0695C22.6163 9.98983 22.6846 9.88416 22.7127 9.75256C22.7409 9.62095 22.7218 9.49661 22.6554 9.37952L22.5867 9.28575C22.5504 9.4428 22.5796 9.58658 22.6742 9.71708L22.7054 9.58581C22.742 9.42385 22.7212 9.26966 22.6429 9.12322L22.3491 8.57937C22.3356 8.55775 22.3211 8.53692 22.3054 8.51685L22.0866 8.20429C22.0845 8.20011 22.0824 8.19594 22.0803 8.19179L21.849 7.86673C21.8449 7.86251 21.8407 7.85834 21.8365 7.85423L21.599 7.53542L21.3677 7.2041L21.1301 6.82903L20.8988 6.4102L20.6801 6.00387L20.4863 5.62255C20.4803 5.61198 20.474 5.60156 20.4675 5.5913L20.2862 5.27249C20.2727 5.25088 20.2582 5.23004 20.2425 5.20997L20.0674 4.96618L19.9237 4.74739L19.7924 4.50359L19.6486 4.22229L19.4986 3.90973C19.4965 3.90554 19.4944 3.90137 19.4923 3.89722L19.336 3.57841C19.332 3.5721 19.3278 3.56585 19.3235 3.55966L19.161 3.25335C19.1531 3.24059 19.1447 3.22809 19.136 3.21584L18.961 2.92829C18.9511 2.91331 18.9407 2.89873 18.9297 2.88453L18.7484 2.63448C18.7404 2.62383 18.7321 2.61341 18.7234 2.60323L18.3546 2.15314C18.3427 2.13805 18.3302 2.12346 18.3171 2.10938L18.1358 1.92185C18.1181 1.90201 18.0994 1.88325 18.0796 1.86559L17.8983 1.71556C17.8921 1.71128 17.8858 1.70712 17.8795 1.70306L17.7232 1.58428L17.592 1.46551C17.5859 1.45912 17.5796 1.45287 17.5732 1.44676L17.4482 1.34674L17.3419 1.24672C17.3262 1.23108 17.3095 1.21649 17.2919 1.20296L17.0794 1.04668C16.9156 0.924212 16.749 0.920242 16.5795 1.03477C16.4101 1.1493 16.3517 1.30538 16.4042 1.50302Z" fill="black"/>
<path d="M16.5792 1.29671C16.5792 1.40201 16.6165 1.49188 16.6909 1.56634C16.7654 1.6408 16.8553 1.67803 16.9606 1.67803C17.0659 1.67803 17.1557 1.6408 17.2302 1.56634C17.3046 1.49188 17.3419 1.40201 17.3419 1.29671C17.3419 1.19141 17.3046 1.10153 17.2302 1.02707C17.1557 0.952614 17.0659 0.915385 16.9606 0.915385C16.8553 0.915385 16.7654 0.952614 16.6909 1.02707C16.6165 1.10153 16.5792 1.19141 16.5792 1.29671ZM16.5542 1.29046C16.5542 1.40266 16.5939 1.49843 16.6732 1.57777C16.7526 1.65711 16.8484 1.69678 16.9606 1.69678C17.0728 1.69678 17.1685 1.65711 17.2479 1.57777C17.3272 1.49843 17.3669 1.40266 17.3669 1.29046C17.3669 1.17825 17.3272 1.08248 17.2479 1.00314C17.1685 0.923799 17.0728 0.884129 16.9606 0.884129C16.8484 0.884129 16.7526 0.923799 16.6732 1.00314C16.5939 1.08248 16.5542 1.17825 16.5542 1.29046ZM17.3981 1.14043L17.3856 1.10292C17.3765 1.16837 17.3807 1.23297 17.3981 1.29671L17.4044 1.2592C17.2977 1.33946 17.2351 1.44573 17.2169 1.57801L17.2544 1.54675C17.0709 1.45404 16.8979 1.47071 16.7355 1.59676L16.798 1.62802C16.7489 1.55845 16.6863 1.50427 16.6105 1.46549L16.6793 1.55301C16.6908 1.57036 16.7033 1.58703 16.7168 1.60302L16.8418 1.74679C16.8499 1.75537 16.8582 1.7637 16.8668 1.7718L17.2356 2.14062C17.2356 2.1427 17.2356 2.14479 17.2356 2.14687L17.4481 2.34691L17.6544 2.5782L17.892 2.89076L18.1608 3.29709L18.4608 3.77218L18.7546 4.25352L19.0172 4.71611L19.261 5.16619L19.7173 6.02886C19.7173 6.03094 19.7173 6.03303 19.7173 6.03511L19.9549 6.46644L20.1737 6.89777C20.1777 6.90409 20.1819 6.91034 20.1862 6.91653L20.4112 7.3166C20.4152 7.32502 20.4194 7.33335 20.4237 7.34161L20.6363 7.69167L20.8363 8.01674C20.8383 8.02302 20.8404 8.02927 20.8425 8.03549L21.0176 8.29804L21.1676 8.53559L21.2989 8.77938L21.4302 9.03568L21.5489 9.27323C21.5529 9.28164 21.5571 9.28998 21.5614 9.29823L21.6865 9.51077C21.6904 9.52129 21.6945 9.53171 21.699 9.54203L21.8302 9.75457C21.8343 9.76088 21.8385 9.76714 21.8427 9.77332L21.974 9.96711L22.0803 10.1359L22.1678 10.2859C22.1792 10.3074 22.1917 10.3283 22.2053 10.3484L22.2991 10.4735C22.3987 10.6117 22.5316 10.6997 22.6978 10.7373C22.864 10.7749 23.0218 10.7528 23.1713 10.6709C23.3207 10.589 23.4243 10.4679 23.482 10.3076C23.5398 10.1473 23.5372 9.98795 23.4743 9.82958L23.418 9.6858C23.4041 9.65112 23.3874 9.61778 23.368 9.58579L23.2805 9.42951L23.1742 9.24197L23.0555 9.03568C23.0515 9.02726 23.0473 9.01893 23.043 9.01068L22.9242 8.81689L22.8179 8.61685C22.8179 8.61477 22.8179 8.61268 22.8179 8.6106L22.6929 8.38556L22.5741 8.13551C22.5701 8.12919 22.5659 8.12294 22.5616 8.11676L22.4178 7.84795C22.4102 7.83096 22.4018 7.81429 22.3928 7.79794L22.2303 7.53539C22.2283 7.53121 22.2262 7.52704 22.2241 7.52289L22.0428 7.25409L21.8427 6.94778L21.6427 6.61022L21.4302 6.2414L21.2364 5.83507L21.0426 5.39124C21.0387 5.38072 21.0345 5.3703 21.0301 5.35998L20.5987 4.47856C20.5927 4.46799 20.5865 4.45757 20.58 4.44731L20.3299 3.99097C20.3279 3.98678 20.3258 3.98262 20.3237 3.97847L20.0486 3.49713C20.0446 3.49081 20.0404 3.48456 20.0361 3.47837L19.7236 2.98453C19.7215 2.98034 19.7195 2.97617 19.7173 2.97203L19.4048 2.49068C19.395 2.4736 19.3846 2.45693 19.3735 2.44067L19.0485 2.0281C19.0273 2.00148 19.0044 1.97647 18.9797 1.95308L18.6671 1.64677C18.661 1.6404 18.6547 1.63415 18.6484 1.62802L18.3796 1.38422C18.3694 1.37558 18.359 1.36724 18.3483 1.35922L18.1108 1.16543C18.1046 1.16116 18.0983 1.15699 18.092 1.15293L17.6794 0.84037C17.6388 0.80998 17.595 0.784975 17.5482 0.765356L17.3731 0.690342C17.2951 0.657835 17.2138 0.643249 17.1293 0.646583H17.0231C16.974 0.648111 16.926 0.656446 16.8793 0.671588L16.8105 0.690342C16.6806 0.731429 16.5848 0.812694 16.523 0.934138L16.5042 0.977897C16.4838 1.01754 16.4693 1.05922 16.4605 1.10292L16.4542 1.14043C16.4268 1.28051 16.456 1.40762 16.5417 1.52175L16.5667 1.55301C16.7262 1.75173 16.9201 1.79445 17.1484 1.68118C17.3767 1.5679 17.4599 1.38765 17.3981 1.14043ZM22.4866 10.3984L22.5241 10.4672C22.589 10.57 22.6802 10.6368 22.7978 10.6677C22.9153 10.6986 23.0276 10.6853 23.1346 10.6276C23.2417 10.57 23.3146 10.4836 23.3536 10.3685C23.3925 10.2533 23.3869 10.1404 23.3368 10.0296L23.2993 9.96086C23.2344 9.85806 23.1432 9.79121 23.0256 9.76032C22.9081 9.72942 22.7958 9.74279 22.6887 9.80042C22.5817 9.85805 22.5087 9.94444 22.4698 10.0596C22.4309 10.1747 22.4365 10.2877 22.4866 10.3984Z" fill="black"/>
<path d="M22.1303 10.0984C22.1304 10.2001 22.1665 10.287 22.2385 10.3589C22.3105 10.4308 22.3974 10.4667 22.4991 10.4667C22.6009 10.4667 22.6877 10.4308 22.7597 10.3589C22.8317 10.287 22.8678 10.2001 22.8679 10.0984C22.8678 9.99664 22.8317 9.90982 22.7597 9.83792C22.6877 9.76603 22.6009 9.73008 22.4991 9.73008C22.3974 9.73008 22.3105 9.76603 22.2385 9.83792C22.1665 9.90982 22.1304 9.99664 22.1303 10.0984ZM22.1115 10.0921C22.1115 10.1974 22.1488 10.2873 22.2232 10.3618C22.2977 10.4362 22.3876 10.4735 22.4929 10.4735C22.5982 10.4735 22.688 10.4362 22.7625 10.3618C22.837 10.2873 22.8742 10.1974 22.8742 10.0921C22.8742 9.98684 22.837 9.89696 22.7625 9.8225C22.688 9.74805 22.5982 9.71082 22.4929 9.71082C22.3876 9.71082 22.2977 9.74805 22.2232 9.8225C22.1488 9.89696 22.1115 9.98684 22.1115 10.0921ZM22.0115 10.0671C22.0253 10.187 22.0773 10.2871 22.1674 10.3674C22.2575 10.4477 22.3628 10.4878 22.4835 10.4878C22.6042 10.4878 22.7095 10.4477 22.7996 10.3674C22.8897 10.2871 22.9416 10.187 22.9555 10.0671C22.9416 9.94726 22.8897 9.84718 22.7996 9.76689C22.7095 9.6866 22.6042 9.64645 22.4835 9.64645C22.3628 9.64645 22.2575 9.6866 22.1674 9.76689C22.0773 9.84718 22.0253 9.94726 22.0115 10.0671ZM21.8803 10.0296C21.8803 10.1919 21.9376 10.3304 22.0524 10.4451C22.1671 10.5599 22.3056 10.6172 22.4679 10.6172C22.6301 10.6172 22.7686 10.5599 22.8834 10.4451C22.9981 10.3304 23.0555 10.1919 23.0555 10.0296C23.0555 9.86736 22.9981 9.72886 22.8834 9.61412C22.7686 9.49939 22.6301 9.44202 22.4679 9.44202C22.3056 9.44202 22.1671 9.49939 22.0524 9.61412C21.9376 9.72886 21.8803 9.86736 21.8803 10.0296ZM21.8115 9.99212C21.8115 10.1699 21.8744 10.3217 22.0001 10.4474C22.1258 10.5731 22.2776 10.636 22.4554 10.636C22.6332 10.636 22.7849 10.5731 22.9106 10.4474C23.0364 10.3217 23.0992 10.1699 23.0992 9.99212C23.0992 9.81432 23.0364 9.66256 22.9106 9.53683C22.7849 9.41111 22.6332 9.34825 22.4554 9.34825C22.2776 9.34825 22.1258 9.41111 22.0001 9.53683C21.8744 9.66256 21.8115 9.81432 21.8115 9.99212ZM22.2241 10.5985L22.2491 10.611C22.2898 10.6252 22.3315 10.6356 22.3741 10.6422L22.4429 10.6485L22.5866 10.6923C22.5929 10.6944 22.5991 10.6965 22.6054 10.6985L22.8804 10.7673C22.8908 10.7717 22.9012 10.7758 22.9117 10.7798L23.2555 10.8485L23.6618 10.9423L24.1369 11.0548L24.6433 11.1736L25.1309 11.3049L25.5685 11.4424L25.9498 11.5924L26.2561 11.755L26.5311 11.9425L26.7999 12.155L27.0625 12.3676C27.0625 12.3697 27.0625 12.3717 27.0625 12.3738L27.3063 12.5739C27.3104 12.576 27.3146 12.5781 27.3188 12.5801L27.5438 12.7677C27.562 12.783 27.5807 12.7976 27.6001 12.8114L27.8251 12.9614C27.8762 12.9948 27.9304 13.0219 27.9877 13.0427L28.2002 13.124C28.5107 13.2415 28.7746 13.1747 28.9917 12.9234C29.2088 12.6722 29.2367 12.4015 29.0754 12.1113L28.9629 11.9112C28.9321 11.8524 28.8946 11.7982 28.8503 11.7487L28.6628 11.5549C28.6546 11.5464 28.6463 11.5381 28.6378 11.5299L28.4252 11.3299C28.4152 11.3171 28.4048 11.3046 28.394 11.2924L28.1564 11.0923L27.8939 10.861C27.8837 10.8525 27.8733 10.8441 27.8626 10.836L27.5688 10.5922C27.5447 10.5742 27.5197 10.5576 27.4938 10.5422L27.1563 10.3172C27.1359 10.3059 27.115 10.2955 27.0937 10.2859L26.7062 10.0734C26.6797 10.0595 26.6527 10.047 26.6249 10.0359L26.1748 9.8546C26.1563 9.84769 26.1375 9.84144 26.1186 9.83584L25.631 9.67331C25.6165 9.66875 25.6019 9.66459 25.5872 9.66081L25.0684 9.52328C25.0621 9.52321 25.0559 9.52321 25.0496 9.52328L24.5308 9.39826C24.5287 9.39616 24.5266 9.39408 24.5245 9.39201L24.0432 9.27949C24.0349 9.27728 24.0265 9.27519 24.0182 9.27323L23.6056 9.19197C23.5704 9.18557 23.535 9.1814 23.4993 9.17947L23.143 9.15446C23.1013 9.15127 23.0596 9.15127 23.018 9.15446L22.7367 9.17947C22.7178 9.18087 22.6991 9.18295 22.6804 9.18572L22.4866 9.21697C22.4593 9.21962 22.4322 9.22378 22.4054 9.22948L22.2991 9.26073C22.0513 9.32837 21.8888 9.48465 21.8115 9.72957L21.8052 9.76083C21.7511 9.93403 21.7646 10.1018 21.8458 10.2641C21.9269 10.4264 22.053 10.5379 22.2241 10.5985ZM28.1064 12.5926C28.1064 12.7273 28.154 12.8422 28.2493 12.9374C28.3445 13.0326 28.4594 13.0802 28.594 13.0802C28.7287 13.0802 28.8436 13.0326 28.9388 12.9374C29.034 12.8422 29.0816 12.7273 29.0816 12.5926C29.0816 12.458 29.034 12.343 28.9388 12.2478C28.8436 12.1526 28.7287 12.105 28.594 12.105C28.4594 12.105 28.3445 12.1526 28.2493 12.2478C28.154 12.343 28.1064 12.458 28.1064 12.5926ZM28.5128 12.8989L28.5878 12.9802C28.7131 13.0943 28.8375 13.0934 28.9611 12.9775C29.0848 12.8616 29.0937 12.7375 28.9879 12.6051L28.9128 12.5239C28.7876 12.4097 28.6631 12.4106 28.5395 12.5265C28.4159 12.6424 28.407 12.7666 28.5128 12.8989Z" fill="black"/>
<path d="M24.5245 10.7861C24.5245 10.8897 24.5611 10.9781 24.6344 11.0513C24.7076 11.1245 24.796 11.1612 24.8996 11.1612C25.0032 11.1612 25.0916 11.1245 25.1648 11.0513C25.238 10.9781 25.2747 10.8897 25.2747 10.7861C25.2747 10.6825 25.238 10.5941 25.1648 10.5209C25.0916 10.4476 25.0032 10.411 24.8996 10.411C24.796 10.411 24.7076 10.4476 24.6344 10.5209C24.5611 10.5941 24.5245 10.6825 24.5245 10.7861ZM24.3432 10.8736L24.3495 10.8986C24.3756 11.0877 24.4631 11.2419 24.612 11.3612L24.7371 11.455C24.7648 11.4778 24.794 11.4987 24.8246 11.5175L25.0434 11.6488C25.0537 11.6531 25.0641 11.6573 25.0746 11.6613L25.3809 11.8238C25.4094 11.8379 25.4386 11.8504 25.4684 11.8613L25.8935 12.0238C25.8956 12.0238 25.8977 12.0238 25.8998 12.0238L26.3936 12.2051L26.9187 12.4052L27.4626 12.6239C27.4709 12.6262 27.4792 12.6282 27.4876 12.6302L28.0377 12.8365C28.0439 12.8386 28.0502 12.8407 28.0564 12.8427L28.5753 13.0178C28.5815 13.0199 28.5878 13.022 28.594 13.024L29.0504 13.1678C29.0587 13.17 29.067 13.1721 29.0754 13.1741L29.4442 13.2741L29.7005 13.3616L29.913 13.4491L30.0818 13.5179C30.3753 13.6315 30.6278 13.5719 30.8393 13.3389C31.0508 13.1059 31.0859 12.8488 30.9445 12.5677L30.8632 12.4052C30.8182 12.316 30.7578 12.2389 30.6819 12.1739L30.4881 12.0113C30.4436 11.9749 30.3957 11.9436 30.3444 11.9176L30.0631 11.7675C30.0268 11.748 29.9893 11.7314 29.9505 11.7175L29.5692 11.5862C29.563 11.5841 29.5567 11.582 29.5505 11.58L29.1129 11.4425L28.619 11.2674L28.0877 11.0611L27.5501 10.8361C27.5439 10.8339 27.5376 10.8319 27.5313 10.8299L26.9937 10.6236C26.9896 10.6214 26.9854 10.6194 26.9812 10.6173L26.4874 10.436C26.4832 10.4339 26.4791 10.4318 26.4749 10.4298L26.0561 10.2797L25.7372 10.1672C25.7046 10.1547 25.6712 10.1443 25.6372 10.136L25.3934 10.0797C25.2984 10.0576 25.2025 10.0534 25.1059 10.0672L24.9558 10.0922C24.6804 10.1301 24.4908 10.2781 24.387 10.536L24.3807 10.5611C24.3405 10.6619 24.328 10.7661 24.3432 10.8736ZM29.913 12.9928C29.913 13.1378 29.9643 13.2615 30.0668 13.3641C30.1694 13.4666 30.2931 13.5179 30.4381 13.5179C30.5831 13.5179 30.7069 13.4666 30.8094 13.3641C30.912 13.2615 30.9632 13.1378 30.9632 12.9928C30.9632 12.8478 30.912 12.724 30.8094 12.6215C30.7069 12.5189 30.5831 12.4677 30.4381 12.4677C30.2931 12.4677 30.1694 12.5189 30.0668 12.6215C29.9643 12.724 29.913 12.8478 29.913 12.9928ZM30.2756 13.2241L30.3131 13.2866C30.4048 13.4406 30.5278 13.4718 30.6818 13.3802C30.8359 13.2885 30.8672 13.1657 30.7757 13.0115L30.7382 12.949C30.6465 12.7948 30.5236 12.7636 30.3694 12.8552C30.2152 12.9469 30.1839 13.0699 30.2756 13.2241Z" fill="black"/>
<path d="M27.225 12.3113C27.225 12.4149 27.2616 12.5033 27.3349 12.5765C27.4081 12.6498 27.4965 12.6864 27.6001 12.6864C27.7037 12.6864 27.7921 12.6498 27.8653 12.5765C27.9385 12.5033 27.9752 12.4149 27.9752 12.3113C27.9752 12.2078 27.9385 12.1194 27.8653 12.0461C27.7921 11.9729 27.7037 11.9363 27.6001 11.9363C27.4965 11.9363 27.4081 11.9729 27.3349 12.0461C27.2616 12.1194 27.225 12.2078 27.225 12.3113ZM27.1938 12.3113C27.1938 12.427 27.2346 12.5257 27.3164 12.6075C27.3982 12.6893 27.4969 12.7302 27.6126 12.7302C27.7282 12.7302 27.827 12.6893 27.9087 12.6075C27.9905 12.5257 28.0314 12.427 28.0314 12.3113C28.0314 12.1957 27.9905 12.097 27.9087 12.0152C27.827 11.9334 27.7282 11.8925 27.6126 11.8925C27.4969 11.8925 27.3982 11.9334 27.3164 12.0152C27.2346 12.097 27.1938 12.1957 27.1938 12.3113ZM27.3438 12.7177L27.4688 12.8114C27.5178 12.8517 27.5719 12.883 27.6313 12.9052L27.9126 13.0115C27.9168 13.0136 27.9209 13.0157 27.9251 13.0177L28.3377 13.1552C28.3419 13.1574 28.346 13.1595 28.3502 13.1615L28.8191 13.3053C28.8211 13.3053 28.8232 13.3053 28.8253 13.3053L29.2817 13.449L29.6755 13.5866L29.9755 13.7178L30.2131 13.8304C30.2193 13.8326 30.2255 13.8346 30.2318 13.8366L30.3756 13.9054L30.4631 13.9616C30.4226 13.9039 30.3725 13.8559 30.3131 13.8179L30.3631 13.8866C30.346 13.8185 30.3169 13.756 30.2756 13.6991L30.2881 13.7491C30.4146 13.6083 30.4563 13.4458 30.4131 13.2615L30.3756 13.299C30.415 13.2723 30.4504 13.241 30.4819 13.2053L30.3944 13.2678C30.3838 13.2737 30.3733 13.2799 30.3631 13.2865L30.2193 13.399C30.204 13.4129 30.1894 13.4275 30.1756 13.4428L29.9755 13.6303C29.967 13.6364 29.9587 13.6426 29.9505 13.6491L29.7192 13.8991L29.4379 14.1742L29.1254 14.4867L28.7691 14.8306C28.7691 14.8326 28.7691 14.8347 28.7691 14.8368L28.3815 15.2119L27.9877 15.6057L27.5501 16.012L27.0875 16.4184L26.5811 16.8059L26.056 17.206L25.4934 17.5873L24.9371 17.9562L24.4307 18.2687L23.9931 18.525C23.9911 18.525 23.989 18.525 23.9869 18.525L23.6493 18.7188C23.6343 18.7286 23.6197 18.739 23.6056 18.7501L23.3868 18.9063C23.3847 18.9084 23.3826 18.9105 23.3805 18.9126L23.243 19.0126C23.188 19.0528 23.1443 19.1028 23.1117 19.1626L23.0867 19.2126C23.2539 19.2322 23.3768 19.1676 23.4555 19.0189L23.3993 19.0126C23.2975 19.0007 23.2064 19.0264 23.126 19.0899C23.0455 19.1534 22.9993 19.236 22.9872 19.3377C22.9751 19.4395 23.0008 19.5306 23.0641 19.6111C23.1275 19.6917 23.21 19.738 23.3118 19.7502L23.368 19.7565C23.3046 19.6689 23.2192 19.6189 23.1117 19.6065L23.143 19.644C23.2151 19.747 23.313 19.8095 23.4368 19.8315L23.6056 19.8628C23.6472 19.8677 23.6889 19.8677 23.7306 19.8628L23.9931 19.8503C24.0466 19.8468 24.0987 19.8363 24.1494 19.819L24.5182 19.694C24.5462 19.6834 24.5733 19.6709 24.5995 19.6565L25.0621 19.4314C25.077 19.4237 25.0916 19.4153 25.1059 19.4064L25.631 19.0939C25.6394 19.0878 25.6478 19.0816 25.656 19.0751L26.2311 18.7063C26.2353 18.7022 26.2395 18.698 26.2436 18.6938L26.8187 18.3C26.8293 18.294 26.8397 18.2878 26.8499 18.2812L27.3938 17.8686C27.398 17.8645 27.4022 17.8604 27.4063 17.8561L27.9251 17.4373C27.9315 17.4312 27.9378 17.4249 27.9439 17.4186L28.4252 16.9935C28.4295 16.9894 28.4336 16.9852 28.4377 16.981L28.8878 16.5559C28.892 16.5539 28.8962 16.5518 28.9003 16.5496L29.3067 16.1496C29.3088 16.1475 29.3108 16.1454 29.3129 16.1433L29.688 15.7557C29.6922 15.7516 29.6964 15.7475 29.7005 15.7432L30.038 15.3807L30.3444 15.0619L30.6257 14.7743C30.6257 14.7722 30.6257 14.7701 30.6257 14.768L30.8632 14.518L31.0507 14.318C31.0733 14.2966 31.0941 14.2737 31.1132 14.2492L31.2133 14.0992C31.2417 14.0583 31.2646 14.0145 31.282 13.9679L31.3195 13.8679C31.3302 13.8394 31.3386 13.8102 31.3445 13.7804L31.357 13.7304C31.3726 13.646 31.3684 13.5627 31.3445 13.4803L31.332 13.4303C31.3077 13.3422 31.264 13.2651 31.2008 13.199L31.1445 13.1365L31.0445 13.0302C31.0307 13.0148 31.0161 13.0002 31.0007 12.9865L30.8444 12.8614C30.8172 12.8379 30.788 12.8171 30.7569 12.7989L30.5131 12.6551C30.4909 12.6433 30.468 12.6329 30.4444 12.6239L30.1131 12.4864C30.1007 12.4818 30.0882 12.4776 30.0756 12.4739L29.6505 12.3363C29.6463 12.3342 29.6422 12.3321 29.638 12.3301L29.1629 12.1863L28.7003 12.0488L28.294 11.9175C28.2877 11.9153 28.2815 11.9132 28.2752 11.9113L27.9814 11.83C27.9325 11.8149 27.8825 11.8066 27.8314 11.805H27.6751C27.4301 11.7997 27.2659 11.9123 27.1823 12.1426C27.0987 12.3729 27.1525 12.5646 27.3438 12.7177Z" fill="black"/>
<path d="M29.4129 13.7616C29.4133 13.9571 29.5112 14.0548 29.7067 14.0548C29.9022 14.0548 30.0002 13.9571 30.0005 13.7616C30.0002 13.5661 29.9022 13.4684 29.7067 13.4684C29.5112 13.4684 29.4133 13.5661 29.4129 13.7616ZM29.2129 13.7366C29.2129 13.873 29.2611 13.9894 29.3575 14.0858C29.454 14.1822 29.5704 14.2305 29.7067 14.2305C29.8431 14.2305 29.9595 14.1822 30.0559 14.0858C30.1524 13.9894 30.2006 13.873 30.2006 13.7366C30.2006 13.6002 30.1524 13.4838 30.0559 13.3874C29.9595 13.291 29.8431 13.2428 29.7067 13.2428C29.5704 13.2428 29.454 13.291 29.3575 13.3874C29.2611 13.4838 29.2129 13.6002 29.2129 13.7366ZM29.3942 13.2178L29.3067 13.2678C29.251 13.3002 29.201 13.3398 29.1566 13.3865L28.9441 13.6116C28.9376 13.6198 28.9314 13.6281 28.9253 13.6366L28.5503 14.0742C28.5301 14.0959 28.5113 14.1189 28.494 14.1429L28.0314 14.8368C28.0087 14.8724 27.99 14.9099 27.9752 14.9493L27.6626 15.7432L27.125 16.3496C27.0129 16.4788 27.0213 16.5995 27.1503 16.7118C27.2793 16.8241 27.4 16.8159 27.5126 16.6872L28.0502 16.0871L28.8066 15.6995C28.8444 15.6803 28.8798 15.6574 28.9128 15.6307L29.5567 15.0994C29.5937 15.0673 29.627 15.0319 29.6567 14.9931L30.0193 14.543C30.0399 14.5172 30.0587 14.4902 30.0756 14.4618L30.2318 14.1929C30.2956 14.085 30.3269 13.9683 30.3256 13.8429V13.7429C30.324 13.6328 30.2951 13.5304 30.2389 13.4358C30.1827 13.3412 30.1066 13.2668 30.0107 13.2128C29.9148 13.1587 29.8119 13.1321 29.7018 13.133C29.5917 13.1339 29.4892 13.1622 29.3942 13.2178Z" fill="black"/>
<path d="M8.98988 18.2936C9.05281 18.2618 9.10282 18.216 9.13991 18.156L9.14616 18.1498C9.13743 18.1577 9.1291 18.1661 9.12116 18.1748L9.14616 18.1435C9.16006 18.1279 9.17256 18.1112 9.18367 18.0935L9.18992 18.081L9.20867 18.0623C9.1414 18.083 9.08305 18.1184 9.03364 18.1685L9.07115 18.156C9.28229 18.0927 9.39481 17.951 9.40871 17.7309L9.41496 17.6747C9.42941 17.4588 9.33981 17.3025 9.14616 17.2058L9.12116 17.1933C9.02393 17.1446 8.92183 17.13 8.81485 17.1496L8.78359 17.1558C8.74698 17.1622 8.71155 17.1726 8.67732 17.1871L8.61481 17.2184C8.55694 17.2427 8.50485 17.276 8.45853 17.3184L8.296 17.4684C8.2355 17.5237 8.18757 17.5883 8.15222 17.6622L7.93968 18.0873C7.93028 18.1077 7.92194 18.1285 7.91468 18.1498L7.68338 18.7874C7.67871 18.8018 7.67454 18.8164 7.67088 18.8312L7.44584 19.6063C7.4414 19.6166 7.43723 19.627 7.43333 19.6376L7.23955 20.4815C7.23745 20.4835 7.23536 20.4856 7.2333 20.4877L7.05201 21.3066C7.052 21.3087 7.052 21.3108 7.05201 21.3129L6.88948 22.0755C6.88944 22.0797 6.88944 22.0839 6.88948 22.088L6.75195 22.7819L6.63318 23.4195C6.63317 23.4216 6.63317 23.4237 6.63318 23.4258L6.52691 24.0196C6.52675 24.028 6.52675 24.0363 6.52691 24.0447L6.44565 24.601L6.36438 25.1324C6.36412 25.1428 6.36412 25.1532 6.36438 25.1636L6.30812 25.6825C6.30795 25.6908 6.30795 25.6991 6.30812 25.7075L6.27686 26.2076C6.27685 26.2096 6.27685 26.2117 6.27686 26.2138L6.26436 26.6389L6.21435 27.2828C6.21322 27.3036 6.21322 27.3244 6.21435 27.3453L6.2206 27.6141C6.22017 27.6266 6.22017 27.6391 6.2206 27.6516L6.24561 27.8891C6.24735 27.8996 6.24943 27.91 6.25186 27.9204L6.28311 28.1142L6.29562 28.2267L6.28311 28.3142C6.28198 28.3309 6.28198 28.3476 6.28311 28.3642V28.4392V28.4705C6.28311 28.5723 6.31912 28.6593 6.39114 28.7313C6.46316 28.8033 6.55009 28.8393 6.65193 28.8393C6.75378 28.8393 6.84071 28.8033 6.91273 28.7313C6.98475 28.6593 7.02076 28.5723 7.02076 28.4705V28.4392V28.3955L7.03326 28.333L7.07702 28.2267L7.15828 28.0517C7.16525 28.0374 7.17151 28.0228 7.17703 28.0079L7.26455 27.7829C7.27233 27.7604 7.27858 27.7374 7.28331 27.7141L7.33957 27.4515C7.34513 27.4289 7.3493 27.406 7.35207 27.3828L7.41458 26.7389L7.47084 26.3263L7.55211 25.8512C7.5522 25.845 7.5522 25.8387 7.55211 25.8325L7.62712 25.3136L7.69588 24.7823L7.77715 24.2322L7.88342 23.6508L8.00219 23.0195L8.13972 22.3318L8.28975 21.5754L8.47728 20.7815L8.69607 19.9689L8.92737 19.2187L9.15241 18.5999L9.31494 18.156C9.3358 18.0995 9.3483 18.0411 9.35245 17.981L9.3712 17.756C9.37445 17.7119 9.37236 17.6682 9.36495 17.6247L9.35245 17.5497C9.22451 17.5778 9.12421 17.6464 9.05155 17.7554C8.97889 17.8644 8.95416 17.9833 8.97738 18.1123L9.00863 18.106C8.90473 18.0549 8.79638 18.0424 8.68357 18.0685L8.70858 18.081C8.66895 17.9446 8.5856 17.8445 8.45853 17.781L8.47728 17.8372C8.49815 17.908 8.53357 17.9705 8.58355 18.0248L8.60856 18.0498C8.60312 17.9519 8.5677 17.8665 8.50229 17.7935V17.8747C8.52991 17.8174 8.54241 17.757 8.53979 17.6934L8.50854 17.756C8.52868 17.731 8.54535 17.7039 8.55855 17.6747L8.53354 17.7059C8.5068 17.7379 8.48597 17.7733 8.47103 17.8122V17.8247C8.39038 18.0355 8.4508 18.1918 8.65232 18.2936C8.76484 18.3515 8.87736 18.3515 8.98988 18.2936Z" fill="black"/>
<path d="M2.03854 13.4801L2.16981 13.4051C2.18038 13.3991 2.19079 13.3928 2.20107 13.3863L2.56364 13.1675L2.96996 12.9425L3.42005 12.7112L3.88889 12.4799L4.38898 12.2548L4.92034 12.0236L5.48919 11.7798C5.49129 11.7777 5.49337 11.7756 5.49545 11.7735L6.08306 11.5172C6.09146 11.5132 6.0998 11.509 6.10806 11.5047L6.65817 11.2359L7.18952 10.9921L7.69586 10.7671L8.13345 10.592L8.52102 10.467L8.85233 10.392L9.16489 10.3545L9.4837 10.3357C9.50044 10.3342 9.51711 10.3321 9.53371 10.3295L9.85252 10.292C9.87143 10.2885 9.89019 10.2843 9.90879 10.2795L10.2213 10.2232C10.234 10.2194 10.2465 10.2152 10.2589 10.2107L10.8152 10.0794L11.0653 10.0169C11.0778 10.0152 11.0903 10.0131 11.1028 10.0107L11.3403 9.94191C11.3529 9.93812 11.3654 9.93395 11.3778 9.92941L11.5591 9.86064C11.6274 9.83809 11.6899 9.80475 11.7466 9.76063L11.8279 9.68561L11.9092 9.6356C11.9479 9.60522 11.9812 9.5698 12.0092 9.52933L12.0529 9.47932C11.9695 9.50313 11.9007 9.54898 11.8467 9.61685L11.9092 9.59809L11.9592 9.59184C12.1858 9.55045 12.2897 9.41494 12.2707 9.18532C12.2517 8.95569 12.127 8.83907 11.8967 8.83545H11.8529L11.7966 8.8292C11.8586 8.89352 11.9336 8.93311 12.0217 8.94797L11.9717 8.89796C11.9172 8.84057 11.8526 8.79889 11.7779 8.77294L11.7029 8.74793L11.6091 8.70417C11.5317 8.66882 11.4504 8.65007 11.3653 8.64791L11.1715 8.64166C11.1611 8.64142 11.1507 8.64142 11.1403 8.64166L10.8965 8.64791C10.8881 8.64776 10.8798 8.64776 10.8715 8.64791L10.6089 8.66042C10.6006 8.66027 10.5922 8.66027 10.5839 8.66042L10.0151 8.71668L9.69624 8.74168L9.38994 8.76043L9.05237 8.77919C9.03773 8.78086 9.02314 8.78295 9.00861 8.78544L8.63354 8.82295C8.61884 8.82669 8.60425 8.83086 8.58978 8.83545L8.17095 8.90421C8.15205 8.9077 8.1333 8.91187 8.11469 8.91671L7.65211 9.02924C7.62234 9.038 7.59317 9.04842 7.56459 9.06049L7.08325 9.24178C7.06418 9.24941 7.04543 9.25774 7.02699 9.26678L6.50814 9.50433L5.96428 9.75437C5.9601 9.75642 5.95593 9.75851 5.95178 9.76063L5.41418 10.0232L4.83907 10.267L4.27021 10.5108C4.26604 10.5107 4.26188 10.5107 4.25771 10.5108L3.72011 10.7483C3.71592 10.7504 3.71175 10.7524 3.7076 10.7546L3.20126 10.9859C3.19285 10.9899 3.18452 10.9941 3.17625 10.9984L2.68866 11.2359C2.6781 11.2419 2.66768 11.2482 2.6574 11.2547L2.18857 11.511C2.17801 11.517 2.16759 11.5232 2.15731 11.5297L1.73848 11.786C1.71695 11.7996 1.69611 11.8142 1.67597 11.8298L1.3259 12.0861C1.2849 12.1178 1.24739 12.1532 1.21338 12.1923L1.11336 12.2986C0.990996 12.4364 0.926958 12.5973 0.921247 12.7815C0.915537 12.9656 0.969479 13.1302 1.08307 13.2753C1.19667 13.4204 1.34354 13.5122 1.5237 13.5508C1.70386 13.5894 1.87547 13.5659 2.03854 13.4801ZM12.0592 9.42931L12.103 9.41056C12.2209 9.33132 12.2516 9.2265 12.1952 9.0961C12.1389 8.96571 12.0414 8.91633 11.9029 8.94797L11.8592 8.96672C11.7412 9.04596 11.7105 9.15078 11.7669 9.28118C11.8233 9.41158 11.9207 9.46095 12.0592 9.42931Z" fill="black"/>
</g>
<defs>
<clipPath id="clip0_1_7220">
<rect width="32" height="30" fill="white"/>
</clipPath>
</defs>
</svg>
