<svg width="30" height="33" viewBox="0 0 30 33" fill="none" xmlns="http://www.w3.org/2000/svg">
<g clip-path="url(#clip0_1_7221)">
<path d="M2.60498 14.4799C2.60498 14.5749 2.63855 14.6559 2.70568 14.7231C2.77282 14.7902 2.85386 14.8238 2.9488 14.8238C3.04374 14.8238 3.12478 14.7902 3.19191 14.7231C3.25905 14.6559 3.29261 14.5749 3.29261 14.4799C3.29261 14.385 3.25905 14.304 3.19191 14.2368C3.12478 14.1697 3.04374 14.1361 2.9488 14.1361C2.85386 14.1361 2.77282 14.1697 2.70568 14.2368C2.63855 14.304 2.60498 14.385 2.60498 14.4799ZM3.29261 14.58L3.29886 14.5612C3.36611 14.3463 3.2964 14.1942 3.08974 14.1049C2.88308 14.0156 2.72453 14.069 2.61408 14.2652C2.50363 14.4614 2.54019 14.6246 2.72376 14.755L2.73626 14.7675C2.83674 14.839 2.94541 14.8551 3.06228 14.8157C3.17914 14.7763 3.25592 14.6977 3.29261 14.58ZM3.34887 14.4549L3.35513 14.3924C3.36168 14.3239 3.35334 14.2572 3.33012 14.1924L3.29261 14.0861C3.28164 14.0512 3.26706 14.0179 3.24886 13.9861L3.18009 13.8673C3.16655 13.8497 3.15196 13.8331 3.13633 13.8173L3.06132 13.7173C3.03704 13.6874 3.00996 13.6603 2.98005 13.636L2.91129 13.586L2.88629 13.5548C2.80745 13.5995 2.74337 13.6599 2.69404 13.7359C2.64471 13.8119 2.61569 13.895 2.60698 13.9852C2.59827 14.0755 2.61085 14.1626 2.64473 14.2467C2.6786 14.3307 2.72995 14.4022 2.79877 14.4612L2.81127 14.4549C2.71073 14.4545 2.61696 14.4795 2.52997 14.53H2.58623C2.61347 14.5299 2.64056 14.5278 2.66749 14.5237L2.74251 14.5175C2.75508 14.5158 2.76758 14.5137 2.78002 14.5112L2.86128 14.4925C2.79842 14.484 2.73591 14.486 2.67375 14.4987L2.69875 14.505L2.78002 14.5362C2.85485 14.5634 2.93195 14.5738 3.01131 14.5675L3.13008 14.5612L3.2176 14.5675C3.41926 14.5751 3.55262 14.4835 3.61768 14.2924L3.63643 14.2237C3.67956 14.0965 3.66289 13.9777 3.58642 13.8673L3.4989 13.7423C3.45241 13.6793 3.39198 13.6355 3.31762 13.611L3.26136 13.5923L3.2176 13.5173C3.13007 13.3798 3.01756 13.3548 2.88008 13.4423C2.7426 13.5298 2.71758 13.6423 2.80502 13.7798L2.84878 13.8423L2.83628 13.8861C2.82982 13.9257 2.82982 13.9653 2.83628 14.0049L2.85503 14.1549C2.88985 14.0836 2.90235 14.0086 2.89254 13.9298L2.86128 13.9924C2.96497 14.0698 3.07951 14.0926 3.20492 14.0606C3.33034 14.0286 3.41999 13.9537 3.4739 13.8361L3.39263 13.7736C3.41944 13.8624 3.46945 13.9353 3.54266 13.9924L3.50515 13.8611C3.46441 13.7292 3.38523 13.6271 3.26761 13.5548L3.13633 13.4798C3.06721 13.4363 2.9922 13.4093 2.91129 13.3985L2.81127 13.386C2.74384 13.3781 2.67716 13.3823 2.61123 13.3985L2.54247 13.411L2.53622 13.4172H2.52997C2.45405 13.4169 2.38112 13.4315 2.31118 13.461L2.29867 13.4673C2.20764 13.5051 2.13202 13.5631 2.0718 13.6412C2.01159 13.7193 1.97474 13.8071 1.96124 13.9048C1.94775 14.0025 1.9594 14.097 1.99618 14.1885C2.03297 14.28 2.09004 14.3563 2.1674 14.4174L2.20491 14.4487C2.21503 14.4574 2.22544 14.4657 2.23616 14.4737L2.31743 14.5237C2.32764 14.5303 2.33806 14.5366 2.34868 14.5425L2.4362 14.5987L2.52372 14.6612C2.53391 14.6679 2.54433 14.6741 2.55497 14.68L2.64874 14.7362C2.66096 14.7431 2.67346 14.7493 2.68625 14.755L2.74251 14.7863C2.8737 14.8529 3.00386 14.8509 3.13299 14.7804C3.26212 14.7098 3.33408 14.6013 3.34887 14.4549Z" fill="black"/>
<path d="M2.87383 13.2735C2.87383 13.3719 2.90862 13.4559 2.9782 13.5255C3.04777 13.5951 3.13176 13.6298 3.23015 13.6298C3.32855 13.6298 3.41253 13.5951 3.48211 13.5255C3.55168 13.4559 3.58647 13.3719 3.58647 13.2735C3.58647 13.1751 3.55168 13.0911 3.48211 13.0216C3.41253 12.952 3.32855 12.9172 3.23015 12.9172C3.13176 12.9172 3.04777 12.952 2.9782 13.0216C2.90862 13.0911 2.87383 13.1751 2.87383 13.2735ZM2.84258 13.286C2.84258 13.3948 2.88103 13.4876 2.95793 13.5645C3.03482 13.6414 3.12765 13.6798 3.2364 13.6798C3.34515 13.6798 3.43798 13.6414 3.51488 13.5645C3.59178 13.4876 3.63023 13.3948 3.63023 13.286C3.63023 13.1773 3.59178 13.0844 3.51488 13.0075C3.43798 12.9306 3.34515 12.8922 3.2364 12.8922C3.12765 12.8922 3.03482 12.9306 2.95793 13.0075C2.88103 13.0844 2.84258 13.1773 2.84258 13.286ZM2.93009 13.6673L3.01761 13.7486C3.12435 13.8509 3.25146 13.9071 3.39893 13.9174L3.78651 13.9361C3.80932 13.9394 3.83224 13.9415 3.85527 13.9424L4.58041 13.9049C4.59083 13.9051 4.60124 13.9051 4.61166 13.9049L5.78689 13.7924C5.78897 13.7924 5.79105 13.7924 5.79314 13.7924L7.46221 13.6111L9.46259 13.4236C9.65757 13.4045 9.81728 13.3193 9.9417 13.1679C10.0661 13.0166 10.1188 12.8434 10.0999 12.6484C10.0809 12.4534 9.99575 12.2937 9.84448 12.1692C9.69321 12.0447 9.52007 11.9919 9.32506 12.0108L7.32468 12.1983C7.32051 12.1983 7.31635 12.1983 7.31218 12.1983L5.63686 12.3921L4.46789 12.5296C4.46579 12.5317 4.46371 12.5338 4.46164 12.5359L3.74275 12.6234C3.72809 12.625 3.71351 12.6271 3.69899 12.6296L3.32392 12.7047C3.22163 12.723 3.12995 12.7647 3.04887 12.8297L2.9551 12.9047C2.83622 13.0018 2.77427 13.127 2.76924 13.2803C2.76422 13.4337 2.81783 13.5627 2.93009 13.6673Z" fill="black"/>
<path d="M22.4776 12.3983L23.3528 12.3296L24.8593 12.2233C24.8614 12.2212 24.8635 12.2192 24.8656 12.2171L26.122 12.1108C26.1262 12.1108 26.1304 12.1108 26.1345 12.1108L27.1535 12.0045C27.1556 12.0045 27.1577 12.0045 27.1597 12.0045L27.9599 11.9108C27.9661 11.9108 27.9724 11.9108 27.9786 11.9108L28.5538 11.8295C28.5579 11.8295 28.5621 11.8295 28.5663 11.8295L28.9601 11.767C28.979 11.7636 28.9978 11.7594 29.0163 11.7545L29.2476 11.6982C29.2624 11.6945 29.2769 11.6904 29.2914 11.6857L29.4164 11.6482C29.3396 11.6459 29.2646 11.6564 29.1914 11.6795H29.2289C29.2764 11.4693 29.2338 11.2793 29.101 11.1096C28.9683 10.9398 28.7942 10.8526 28.5788 10.8481L28.5725 10.8918C28.6103 10.8295 28.6374 10.7628 28.6538 10.6918L28.6163 10.748L28.5788 10.8105L28.535 10.8731C28.5678 10.8406 28.5969 10.8052 28.6225 10.7668L28.5788 10.8105C28.6318 10.7795 28.6797 10.742 28.7225 10.698L28.735 10.6918L28.6225 10.723C28.6162 10.7271 28.6099 10.7313 28.6038 10.7355L28.3787 10.8105C28.3618 10.8162 28.3451 10.8224 28.3287 10.8293L27.9974 10.9793C27.9718 10.9883 27.9468 10.9988 27.9224 11.0106L27.441 11.2919C27.4196 11.3034 27.3988 11.3159 27.3785 11.3294L26.7222 11.7982C26.7115 11.8063 26.7011 11.8146 26.6909 11.8232L25.8595 12.4796C25.851 12.4878 25.8426 12.4961 25.8345 12.5046L24.8405 13.3548C24.832 13.3629 24.8237 13.3713 24.8155 13.3798L23.6528 14.4675C23.6507 14.4696 23.6486 14.4716 23.6466 14.4737L22.2588 15.7927L21.7962 16.2241C21.6115 16.3967 21.5149 16.6093 21.5063 16.862C21.4978 17.1147 21.5798 17.3334 21.7525 17.5181C21.9251 17.7028 22.1377 17.7994 22.3904 17.8079C22.6431 17.8165 22.8617 17.7345 23.0465 17.5618L23.509 17.1305C23.5133 17.1264 23.5174 17.1222 23.5215 17.118L24.9031 15.7802C24.9051 15.7802 24.9072 15.7802 24.9093 15.7802L26.0408 14.6675C26.045 14.6634 26.0492 14.6592 26.0533 14.655L26.9597 13.7361L27.7098 13.0485L28.3037 12.5484L28.71 12.2358L28.9413 12.0795L29.0726 12.017L29.1789 11.9858C29.1915 11.982 29.204 11.9778 29.2164 11.9733L29.2789 11.9483C29.3497 11.9214 29.4143 11.8839 29.4727 11.8357L29.5102 11.7982C29.5208 11.7902 29.5313 11.7819 29.5414 11.7732L29.5852 11.7295C29.6319 11.6851 29.6715 11.6351 29.704 11.5794L29.7352 11.5294L29.7727 11.4669C29.7749 11.4628 29.7769 11.4586 29.779 11.4544L29.8165 11.3919C29.8416 11.3524 29.8625 11.3107 29.879 11.2669L29.8915 11.2231C29.9286 11.1173 29.9389 11.0089 29.9225 10.8979C29.906 10.787 29.8647 10.6862 29.7985 10.5957C29.7323 10.5051 29.6489 10.4352 29.5481 10.3859C29.4474 10.3365 29.341 10.3135 29.2289 10.3167H29.1914C29.1362 10.3185 29.082 10.3268 29.0288 10.3417L28.9101 10.373L28.7163 10.423L28.36 10.4792L27.7974 10.5605L27.0097 10.6543L26.0033 10.7605L24.7593 10.8606L23.259 10.9668L22.3776 11.0168C22.1776 11.019 22.0098 11.0936 21.8744 11.2408C21.7389 11.388 21.6784 11.5613 21.6929 11.7608C21.7073 11.9603 21.7922 12.1231 21.9474 12.2492C22.1026 12.3753 22.2794 12.4251 22.4776 12.3983Z" fill="black"/>
<path d="M13.7509 23.7568L12.957 24.5257C12.9549 24.5257 12.9528 24.5257 12.9508 24.5257L11.788 25.6571C11.786 25.6592 11.7839 25.6613 11.7818 25.6634L10.7628 26.6761C10.7586 26.6802 10.7545 26.6844 10.7503 26.6886L9.88768 27.5763C9.88559 27.5783 9.8835 27.5804 9.88143 27.5825L9.13754 28.3639C9.1312 28.3701 9.12495 28.3763 9.11879 28.3827L8.49367 29.0703C8.49157 29.0724 8.48949 29.0745 8.48742 29.0765L7.51848 30.158L7.17467 30.5206L6.89961 30.7831L6.66832 30.9769C6.65113 30.9909 6.63446 31.0055 6.61831 31.0207L6.44953 31.1832C6.3014 31.3264 6.2142 31.5002 6.18793 31.7045C6.16167 31.9089 6.20209 32.0991 6.30919 32.2751C6.4163 32.4511 6.56663 32.5744 6.7602 32.645C6.95377 32.7156 7.14819 32.718 7.34345 32.6522L7.56849 32.5772C7.66871 32.5428 7.76039 32.4928 7.84354 32.4272L8.10609 32.2146C8.12777 32.1968 8.14861 32.1781 8.16861 32.1584L8.48742 31.8583C8.49808 31.8482 8.5085 31.8377 8.51867 31.8271L8.88749 31.4395C8.89174 31.4333 8.8959 31.427 8.89999 31.4207L9.88143 30.3268C9.88352 30.3268 9.8856 30.3268 9.88768 30.3268L10.5003 29.6392L11.2317 28.8703L12.0819 27.9951L13.0945 26.9886L14.251 25.8634L15.0387 25.0945C15.1995 24.9127 15.2773 24.7005 15.2722 24.4578C15.267 24.2152 15.1803 24.0064 15.012 23.8315C14.8437 23.6567 14.6383 23.5621 14.3961 23.5477C14.1538 23.5333 13.9387 23.603 13.7509 23.7568ZM6.20573 31.8396C6.20573 32.0398 6.27653 32.2107 6.41812 32.3523C6.55971 32.4939 6.73063 32.5647 6.93087 32.5647C7.13111 32.5647 7.30203 32.4939 7.44362 32.3523C7.58521 32.2107 7.65601 32.0398 7.65601 31.8396C7.65601 31.6393 7.58521 31.4684 7.44362 31.3268C7.30203 31.1852 7.13111 31.1144 6.93087 31.1144C6.73063 31.1144 6.55971 31.1852 6.41812 31.3268C6.27653 31.4684 6.20573 31.6393 6.20573 31.8396ZM7.16216 31.8146L7.21842 31.6645C7.24688 31.5214 7.19262 31.4245 7.05564 31.3741C6.91867 31.3236 6.81457 31.3621 6.74333 31.4895L6.68707 31.6395C6.65862 31.7827 6.71288 31.8795 6.84985 31.93C6.98682 31.9805 7.09093 31.942 7.16216 31.8146Z" fill="black"/>
<path d="M16.9828 2.41515C16.9828 2.52217 17.0206 2.61352 17.0963 2.6892C17.172 2.76488 17.2633 2.80272 17.3703 2.80272C17.4774 2.80272 17.5687 2.76488 17.6444 2.6892C17.7201 2.61352 17.7579 2.52217 17.7579 2.41515C17.7579 2.30812 17.7201 2.21677 17.6444 2.14109C17.5687 2.06541 17.4774 2.02757 17.3703 2.02757C17.2633 2.02757 17.172 2.06541 17.0963 2.14109C17.0206 2.21677 16.9828 2.30812 16.9828 2.41515ZM16.939 2.40264C16.939 2.52175 16.9811 2.62342 17.0653 2.70764C17.1496 2.79186 17.2512 2.83398 17.3703 2.83398C17.4895 2.83398 17.5911 2.79186 17.6753 2.70764C17.7596 2.62342 17.8017 2.52175 17.8017 2.40264C17.8017 2.28353 17.7596 2.18187 17.6753 2.09765C17.5911 2.01342 17.4895 1.97131 17.3703 1.97131C17.2512 1.97131 17.1496 2.01342 17.0653 2.09765C16.9811 2.18187 16.939 2.28353 16.939 2.40264ZM16.8265 2.39014C16.8265 2.53687 16.8784 2.66211 16.9821 2.76586C17.0859 2.86962 17.2111 2.92149 17.3578 2.92149C17.5046 2.92149 17.6298 2.86962 17.7336 2.76586C17.8373 2.66211 17.8892 2.53687 17.8892 2.39014C17.8892 2.24341 17.8373 2.11817 17.7336 2.01442C17.6298 1.91067 17.5046 1.85879 17.3578 1.85879C17.2111 1.85879 17.0859 1.91067 16.9821 2.01442C16.8784 2.11817 16.8265 2.24341 16.8265 2.39014ZM17.2703 1.78378L17.1766 1.79003C17.0113 1.80291 16.8696 1.86751 16.7515 1.98381L16.5514 2.1776C16.5024 2.22608 16.4607 2.28025 16.4264 2.34013L16.1014 2.89024C16.0927 2.9025 16.0843 2.91501 16.0764 2.92774L15.5513 3.95294C15.5447 3.96529 15.5384 3.97779 15.5325 3.99045L14.8136 5.5845C14.8071 5.59479 14.8009 5.60521 14.7949 5.61575L13.9572 7.7099C13.9529 7.71817 13.9487 7.72651 13.9447 7.73491L13.032 10.1854C13.0299 10.1895 13.0278 10.1937 13.0258 10.1979L12.7445 10.998C12.6782 11.2202 12.6977 11.4346 12.803 11.6412C12.9084 11.8478 13.0704 11.9895 13.2892 12.0663C13.508 12.1431 13.7231 12.1339 13.9345 12.0385C14.1458 11.9431 14.2951 11.788 14.3823 11.5731L14.6573 10.7792L15.5638 8.34752L16.4014 6.27213L17.0765 4.66557L17.5266 3.60287L17.7704 3.01526C17.7824 2.98877 17.7928 2.96168 17.8017 2.93399L17.8829 2.65894C17.8853 2.64857 17.8874 2.63815 17.8892 2.62769L17.908 2.53392C17.93 2.4394 17.9295 2.34498 17.9067 2.25066C17.8838 2.15634 17.8409 2.07221 17.7781 1.99826C17.7152 1.92431 17.6391 1.86846 17.5497 1.83069C17.4603 1.79293 17.3672 1.77729 17.2703 1.78378Z" fill="black"/>
<path d="M8.56243 23.3379L8.43116 23.7692C8.42904 23.7733 8.42695 23.7775 8.4249 23.7817L7.96857 25.357C7.96629 25.3674 7.96421 25.3778 7.96232 25.3883L7.59975 26.801C7.59765 26.8031 7.59557 26.8052 7.5935 26.8073L7.29969 28.0325L7.04964 29.064L6.8496 29.8641L6.68707 30.4767C6.68701 30.483 6.68701 30.4892 6.68707 30.4955L6.5808 30.9268C6.57834 30.9413 6.57626 30.9559 6.57455 30.9706L6.51829 31.2581C6.49927 31.3669 6.50135 31.4752 6.52454 31.5832L6.54955 31.7145C6.61977 32.046 6.82016 32.2493 7.15072 32.3242C7.48128 32.3992 7.74973 32.3022 7.95607 32.0333L8.03108 31.927C8.102 31.8351 8.152 31.733 8.18111 31.6207L8.24987 31.3394L8.35614 30.9143L8.52492 30.3017C8.52499 30.2954 8.52499 30.2892 8.52492 30.2829L8.72496 29.4765C8.72706 29.4745 8.72914 29.4724 8.73121 29.4703L8.97501 28.4451L9.27507 27.2261L9.63764 25.8321L10.0877 24.2818L10.219 23.863C10.2933 23.6337 10.2752 23.4119 10.1649 23.1976C10.0547 22.9833 9.88464 22.8398 9.65491 22.7669C9.42517 22.6941 9.2035 22.7135 8.9899 22.8251C8.77631 22.9368 8.63382 23.1077 8.56243 23.3379ZM6.60581 31.5457C6.60581 31.7407 6.67477 31.9072 6.8127 32.0452C6.95063 32.1831 7.11713 32.2521 7.31219 32.2521C7.50725 32.2521 7.67375 32.1831 7.81168 32.0452C7.94961 31.9072 8.01858 31.7407 8.01858 31.5457C8.01858 31.3506 7.94961 31.1841 7.81168 31.0462C7.67375 30.9083 7.50725 30.8393 7.31219 30.8393C7.11713 30.8393 6.95063 30.9083 6.8127 31.0462C6.67477 31.1841 6.60581 31.3506 6.60581 31.5457ZM7.58724 31.4269L7.606 31.2394C7.59181 31.0964 7.51322 31.0179 7.37023 31.004C7.22723 30.99 7.13495 31.0518 7.0934 31.1894L7.07465 31.3769C7.08883 31.5199 7.16742 31.5983 7.31042 31.6123C7.45342 31.6262 7.54569 31.5644 7.58724 31.4269Z" fill="black"/>
<path d="M17.3266 3.02156L17.3141 2.99655L17.2891 2.92154C17.2839 2.90447 17.2777 2.8878 17.2703 2.87153L17.2328 2.79651L17.2266 2.77776V2.76526C17.2202 2.59933 17.1548 2.46144 17.0303 2.35157C16.9058 2.2417 16.7608 2.19395 16.5954 2.20829C16.43 2.22264 16.2954 2.29464 16.1917 2.42431C16.088 2.55397 16.0472 2.70107 16.0696 2.86561C16.0919 3.03015 16.1703 3.1611 16.3048 3.25844C16.4393 3.35579 16.5882 3.38935 16.7515 3.35912L16.8015 3.35287C16.7067 3.31336 16.6087 3.30294 16.5077 3.32161L16.5827 3.35287L16.6702 3.40913C16.6824 3.41601 16.6949 3.42226 16.7077 3.42789L16.8015 3.47789L16.8453 3.5029C17.0002 3.58453 17.1395 3.56343 17.2633 3.43963C17.3871 3.31582 17.4082 3.17646 17.3266 3.02156ZM16.0826 2.4777L16.0264 2.56522C15.9642 2.66482 15.9287 2.77317 15.9201 2.89028L15.9013 3.09657C15.8994 3.12783 15.8994 3.15908 15.9013 3.19034L15.9138 3.49665C15.9148 3.53864 15.919 3.58031 15.9263 3.62167L16.0076 4.0155C16.0094 4.02804 16.0115 4.04055 16.0139 4.053L16.1451 4.59686C16.1451 4.60103 16.1451 4.60519 16.1451 4.60936L16.3327 5.347C16.3347 5.34909 16.3368 5.35118 16.3389 5.35325L16.589 6.30343C16.591 6.3097 16.5931 6.31596 16.5952 6.32219L16.9328 7.50366C16.9348 7.50784 16.9369 7.51201 16.939 7.51616L17.3579 8.89768C17.3598 8.90604 17.3619 8.91437 17.3641 8.92268L17.8705 10.4605C17.8705 10.4626 17.8705 10.4646 17.8705 10.4667L18.258 11.6294C18.3565 11.9077 18.5383 12.1116 18.8037 12.2409C19.069 12.3703 19.3416 12.388 19.6215 12.2942C19.9013 12.2003 20.1081 12.0218 20.2418 11.7586C20.3755 11.4955 20.3977 11.2232 20.3084 10.9418L19.9208 9.78534L19.4145 8.24755C19.4124 8.24337 19.4104 8.2392 19.4083 8.23505L18.9394 6.86604L18.5456 5.70957C18.5436 5.7033 18.5415 5.69705 18.5393 5.69082L18.2018 4.77189C18.1998 4.76562 18.1977 4.75937 18.1955 4.75314L17.9205 4.0405C17.9164 4.0321 17.9123 4.02377 17.908 4.0155L17.6954 3.5029C17.6876 3.48597 17.6793 3.4693 17.6704 3.45289L17.4954 3.09657L17.3641 2.82777C17.3602 2.81726 17.356 2.80684 17.3516 2.79651L17.2578 2.61523C17.2364 2.57534 17.2114 2.53783 17.1828 2.50271L17.1203 2.42769C17.0565 2.34664 16.9777 2.28472 16.8839 2.24192C16.79 2.19912 16.6916 2.1802 16.5886 2.18516C16.4856 2.19013 16.3894 2.21842 16.3001 2.27005C16.2108 2.32168 16.1383 2.3909 16.0826 2.4777Z" fill="black"/>
<path d="M21.4086 20.9937L21.8087 22.1251C21.8108 22.1272 21.8128 22.1293 21.8149 22.1314L22.3713 23.6504C22.3733 23.6567 22.3754 23.663 22.3775 23.6692L22.9214 25.0695C22.9234 25.0757 22.9255 25.082 22.9276 25.0882L23.4402 26.3322C23.4442 26.3427 23.4484 26.3531 23.4527 26.3634L23.9278 27.4387C23.9278 27.4407 23.9278 27.4428 23.9278 27.4449L24.3342 28.3513C24.3402 28.3619 24.3465 28.3723 24.3529 28.3826L24.6905 29.0765C24.7058 29.1064 24.7224 29.1356 24.7405 29.164L25.2093 29.9329C25.3246 30.1206 25.485 30.254 25.6907 30.333L25.8407 30.3892C26.0575 30.4726 26.2712 30.465 26.4816 30.3666C26.692 30.2682 26.8347 30.109 26.9097 29.8891L26.9659 29.7391C27.0411 29.5138 27.0349 29.2909 26.9472 29.0702L26.6096 28.2263C26.6 28.203 26.5896 28.1801 26.5783 28.1575L26.2533 27.4762L25.8532 26.5947L25.4031 25.5258L24.9093 24.2943L24.3842 22.9065L23.8341 21.4L23.4402 20.2748C23.341 19.9943 23.1571 19.7899 22.8886 19.6618C22.62 19.5336 22.3455 19.5192 22.065 19.6184C21.7845 19.7177 21.5801 19.9016 21.452 20.1701C21.3238 20.4386 21.3094 20.7132 21.4086 20.9937ZM25.9282 29.6328L25.9157 29.6641C25.8532 29.8141 25.897 29.9204 26.047 29.9829C26.197 30.0454 26.3033 30.0016 26.3658 29.8516L26.3783 29.8204C26.4408 29.6703 26.3971 29.5641 26.247 29.5015C26.097 29.439 25.9907 29.4828 25.9282 29.6328Z" fill="black"/>
<path d="M2.44249 13.9674C2.44249 14.1591 2.53834 14.2549 2.73004 14.2549C2.92174 14.2549 3.01759 14.1591 3.01759 13.9674C3.01759 13.7756 2.92174 13.6798 2.73004 13.6798C2.53834 13.6798 2.44249 13.7756 2.44249 13.9674ZM2.35497 13.9423C2.35497 14.0425 2.39037 14.1279 2.46116 14.1987C2.53196 14.2695 2.61742 14.3049 2.71754 14.3049C2.81766 14.3049 2.90312 14.2695 2.97391 14.1987C3.04471 14.1279 3.08011 14.0425 3.08011 13.9423C3.08011 13.8422 3.04471 13.7568 2.97391 13.686C2.90312 13.6152 2.81766 13.5798 2.71754 13.5798C2.61742 13.5798 2.53196 13.6152 2.46116 13.686C2.39037 13.7568 2.35497 13.8422 2.35497 13.9423ZM2.2362 13.9048C2.2362 14.0309 2.28075 14.1384 2.36985 14.2275C2.45896 14.3166 2.56652 14.3612 2.69253 14.3612C2.81855 14.3612 2.92611 14.3166 3.01521 14.2275C3.10432 14.1384 3.14887 14.0309 3.14887 13.9048C3.14887 13.7788 3.10432 13.6713 3.01521 13.5822C2.92611 13.4931 2.81855 13.4485 2.69253 13.4485C2.56652 13.4485 2.45896 13.4931 2.36985 13.5822C2.28075 13.6713 2.2362 13.7788 2.2362 13.9048ZM2.12367 13.8736C2.12367 14.0238 2.17677 14.152 2.28297 14.2581C2.38916 14.3643 2.51735 14.4174 2.66753 14.4174C2.81771 14.4174 2.9459 14.3643 3.05209 14.2581C3.15828 14.152 3.21138 14.0238 3.21138 13.8736C3.21138 13.7234 3.15828 13.5952 3.05209 13.489C2.9459 13.3828 2.81771 13.3297 2.66753 13.3297C2.51735 13.3297 2.38916 13.3828 2.28297 13.489C2.17677 13.5952 2.12367 13.7234 2.12367 13.8736ZM2.94258 13.361L2.93008 13.3547C2.80689 13.2787 2.67379 13.2519 2.53079 13.2743C2.38778 13.2966 2.26922 13.3628 2.1751 13.4728C2.08099 13.5827 2.03393 13.7101 2.03393 13.8548C2.03393 13.9996 2.08099 14.1269 2.1751 14.2369C2.26922 14.3469 2.38778 14.413 2.53079 14.4354C2.67379 14.4577 2.80689 14.4309 2.93008 14.3549L2.94258 14.3487C3.02796 14.2956 3.09507 14.2252 3.14392 14.1374C3.19276 14.0495 3.21719 13.9553 3.21719 13.8548C3.21719 13.7543 3.19276 13.6601 3.14392 13.5723C3.09507 13.4845 3.02796 13.414 2.94258 13.361ZM2.02366 13.8548C2.02366 14.0275 2.08469 14.1748 2.20675 14.2969C2.32881 14.4189 2.47615 14.4799 2.64877 14.4799C2.8214 14.4799 2.96874 14.4189 3.0908 14.2969C3.21286 14.1748 3.27389 14.0275 3.27389 13.8548C3.27389 13.6822 3.21286 13.5349 3.0908 13.4128C2.96874 13.2907 2.8214 13.2297 2.64877 13.2297C2.47615 13.2297 2.32881 13.2907 2.20675 13.4128C2.08469 13.5349 2.02366 13.6822 2.02366 13.8548ZM2.10492 14.2362L2.12993 14.2799C2.14356 14.2994 2.15815 14.3182 2.17368 14.3362L2.2612 14.4487C2.27487 14.4682 2.28946 14.4869 2.30496 14.505L2.52375 14.7362C2.53762 14.7535 2.5522 14.7702 2.56751 14.7863L2.98009 15.1551C2.98624 15.1614 2.99249 15.1677 2.99884 15.1738L3.60521 15.6802L4.33034 16.3178C4.33243 16.3178 4.33451 16.3178 4.3366 16.3178L5.18051 17.0429C5.1805 17.045 5.1805 17.0471 5.18051 17.0492L6.10568 17.8368L7.10587 18.6995C7.11203 18.7058 7.11828 18.7121 7.12463 18.7183L8.23734 19.6122C8.23942 19.6122 8.24151 19.6122 8.24359 19.6122L8.8312 20.081C9.02709 20.2111 9.2412 20.2579 9.47351 20.2214C9.70583 20.1849 9.89524 20.0746 10.0418 19.8907C10.1883 19.7067 10.2533 19.4975 10.237 19.2629C10.2206 19.0283 10.1271 18.8301 9.95642 18.6682L9.3688 18.1994C9.36673 18.1973 9.36465 18.1952 9.36255 18.1932L8.23734 17.3117L7.20589 16.4991L6.26196 15.7489L5.4118 15.0426C5.40973 15.0405 5.40764 15.0384 5.40555 15.0363L4.65541 14.4237C4.64921 14.4194 4.64296 14.4153 4.63665 14.4112L4.00528 13.9298C3.99909 13.9256 3.99284 13.9214 3.98653 13.9173L3.54269 13.586C3.52838 13.5772 3.5138 13.5689 3.49894 13.561L3.23639 13.3922L3.13012 13.3235C3.03177 13.2565 2.92341 13.2169 2.80505 13.2047L2.75504 13.1985C2.47293 13.1686 2.25657 13.2739 2.10596 13.5143C1.95534 13.7547 1.955 13.9953 2.10492 14.2362Z" fill="black"/>
<path d="M15.2699 25.2132L16.1826 25.7884C16.1888 25.7905 16.1951 25.7926 16.2013 25.7946L17.0952 26.3322L17.9392 26.8448L18.7518 27.3574C18.758 27.3596 18.7643 27.3616 18.7706 27.3637L19.602 27.87C19.6102 27.8743 19.6186 27.8785 19.627 27.8825L20.4209 28.3326C20.425 28.3326 20.4292 28.3326 20.4334 28.3326L21.1773 28.7514C21.1794 28.7514 21.1814 28.7514 21.1835 28.7514L21.8649 29.1202C21.8649 29.1223 21.8649 29.1244 21.8649 29.1265L22.465 29.4516C22.4692 29.4537 22.4733 29.4558 22.4775 29.4578L22.9651 29.7141C22.9815 29.723 22.9982 29.7313 23.0151 29.7391L23.3902 29.9079L23.6903 30.0454L23.9591 30.1829L24.2279 30.3517L24.4842 30.5268L24.6779 30.6705L24.7905 30.758C24.8047 30.7689 24.8193 30.7793 24.8342 30.7893L24.903 30.8331C24.9292 30.8511 24.9563 30.8678 24.9842 30.8831L25.0218 30.9018C25.0014 30.8885 24.9806 30.876 24.9592 30.8643C25.1791 30.9716 25.4057 30.9884 25.6391 30.9147C25.8724 30.841 26.0482 30.697 26.1665 30.4829C26.2849 30.2687 26.3131 30.0432 26.2514 29.8065C26.1896 29.5697 26.0548 29.3868 25.8469 29.2578L25.8219 29.2453C25.7111 29.1927 25.5944 29.1636 25.4718 29.1577H25.4218C25.2069 29.1508 25.0137 29.2122 24.8421 29.3419C24.6706 29.4715 24.5588 29.6407 24.5069 29.8493C24.4549 30.058 24.4742 30.2598 24.5649 30.4548C24.6556 30.6498 24.7974 30.7946 24.9905 30.8893L25.0155 30.9018H25.0218C25.3374 31.0692 25.6458 31.0567 25.9469 30.8643C26.2555 30.6693 26.3986 30.3896 26.3761 30.0252C26.3536 29.6608 26.1772 29.4008 25.8469 29.2453L25.8094 29.2265C25.8377 29.2448 25.8668 29.2614 25.8969 29.2765L25.8407 29.239L25.7406 29.1765L25.5594 29.039C25.5491 29.0325 25.5386 29.0263 25.5281 29.0202L25.2468 28.8327C25.2305 28.8217 25.2138 28.8113 25.1968 28.8014L24.878 28.6139C24.8636 28.6052 24.849 28.5968 24.8342 28.5889L24.5029 28.4201C24.4865 28.4113 24.4698 28.4029 24.4529 28.3951L24.1403 28.2576L23.809 28.1013L23.3464 27.845C23.3444 27.8429 23.3423 27.8408 23.3402 27.8387L22.7401 27.5137C22.738 27.5137 22.7359 27.5137 22.7338 27.5137L22.0587 27.1511L21.3148 26.7448L20.5334 26.3072L19.727 25.8071L18.9143 25.2883C18.9102 25.2861 18.906 25.2841 18.9018 25.282L18.0517 24.7632L17.1703 24.2131L16.2576 23.6442C16.0409 23.5078 15.8078 23.468 15.5582 23.5248C15.3086 23.5815 15.1156 23.7182 14.9792 23.9349C14.8428 24.1515 14.803 24.3846 14.8598 24.6343C14.9166 24.8839 15.0533 25.0769 15.2699 25.2132ZM24.4904 30.0517C24.4904 30.283 24.5722 30.4804 24.7357 30.644C24.8993 30.8075 25.0967 30.8893 25.3281 30.8893C25.5594 30.8893 25.7568 30.8075 25.9204 30.644C26.0839 30.4804 26.1657 30.283 26.1657 30.0517C26.1657 29.8204 26.0839 29.6229 25.9204 29.4593C25.7568 29.2958 25.5594 29.214 25.3281 29.214C25.0967 29.214 24.8993 29.2958 24.7357 29.4593C24.5722 29.6229 24.4904 29.8204 24.4904 30.0517ZM24.7592 30.0454C24.7592 30.1904 24.8105 30.3142 24.913 30.4167C25.0155 30.5192 25.1393 30.5705 25.2843 30.5705C25.4293 30.5705 25.5531 30.5192 25.6556 30.4167C25.7581 30.3142 25.8094 30.1904 25.8094 30.0454C25.8094 29.9004 25.7581 29.7766 25.6556 29.6741C25.5531 29.5716 25.4293 29.5203 25.2843 29.5203C25.1393 29.5203 25.0155 29.5716 24.913 29.6741C24.8105 29.7766 24.7592 29.9004 24.7592 30.0454ZM25.3343 29.8204L25.2781 29.7891C25.152 29.7376 25.0557 29.7711 24.9889 29.8898C24.9222 30.0085 24.9435 30.1083 25.053 30.1892L25.1093 30.2204C25.2353 30.272 25.3317 30.2384 25.3984 30.1198C25.4652 30.0011 25.4438 29.9013 25.3343 29.8204Z" fill="black"/>
<path d="M9.37506 12.0111C9.37506 12.1044 9.40802 12.1839 9.47393 12.2498C9.53984 12.3158 9.61941 12.3487 9.71263 12.3487C9.80584 12.3487 9.88541 12.3158 9.95132 12.2498C10.0172 12.1839 10.0502 12.1044 10.0502 12.0111C10.0502 11.9179 10.0172 11.8384 9.95132 11.7725C9.88541 11.7065 9.80584 11.6736 9.71263 11.6736C9.61941 11.6736 9.53984 11.7065 9.47393 11.7725C9.40802 11.8384 9.37506 11.9179 9.37506 12.0111ZM9.74388 12.3737L9.81264 12.3675L9.93767 12.3612L10.1065 12.3675L10.3315 12.3862C10.3336 12.3862 10.3357 12.3862 10.3377 12.3862L10.6441 12.4112C10.6565 12.4139 10.669 12.416 10.6816 12.4175L11.0379 12.4112C11.0505 12.4098 11.063 12.4077 11.0754 12.405L11.463 12.3612C11.5069 12.3563 11.5486 12.3438 11.588 12.3237L11.8693 12.1737L12.1318 12.1174C12.2734 12.0736 12.3289 11.9793 12.2983 11.8343C12.2678 11.6893 12.179 11.6253 12.0318 11.6423L11.7818 11.6923L11.4755 11.6486C11.4548 11.6447 11.434 11.6426 11.4129 11.6423L11.0441 11.6486L10.7066 11.6236L10.4003 11.5986C10.3899 11.5961 10.3795 11.594 10.369 11.5923H10.1252C10.1063 11.593 10.0875 11.5951 10.0689 11.5986L9.88141 11.6236C9.87932 11.6236 9.87724 11.6236 9.87516 11.6236L9.74388 11.6423L9.67512 11.6548C9.45816 11.6956 9.36019 11.8259 9.38121 12.0457C9.40223 12.2654 9.52312 12.3748 9.74388 12.3737Z" fill="black"/>
<path d="M14.1134 7.73532C14.1134 7.92285 14.2072 8.01662 14.3947 8.01662C14.5823 8.01662 14.676 7.92285 14.676 7.73532C14.676 7.54778 14.5823 7.45401 14.3947 7.45401C14.2072 7.45401 14.1134 7.54778 14.1134 7.73532ZM13.9509 7.70406C13.9509 7.82662 13.9942 7.93124 14.0809 8.0179C14.1675 8.10457 14.2722 8.1479 14.3947 8.1479C14.5173 8.1479 14.6219 8.10457 14.7086 8.0179C14.7952 7.93124 14.8386 7.82662 14.8386 7.70406C14.8386 7.5815 14.7952 7.47689 14.7086 7.39022C14.6219 7.30356 14.5173 7.26023 14.3947 7.26023C14.2722 7.26023 14.1675 7.30356 14.0809 7.39022C13.9942 7.47689 13.9509 7.5815 13.9509 7.70406ZM13.8696 7.67281C13.8696 7.81781 13.9209 7.94158 14.0234 8.04411C14.126 8.14664 14.2497 8.19791 14.3947 8.19791C14.5397 8.19791 14.6635 8.14664 14.766 8.04411C14.8686 7.94158 14.9198 7.81781 14.9198 7.67281C14.9198 7.5278 14.8686 7.40404 14.766 7.30151C14.6635 7.19897 14.5397 7.14771 14.3947 7.14771C14.2497 7.14771 14.126 7.19897 14.0234 7.30151C13.9209 7.40404 13.8696 7.5278 13.8696 7.67281ZM13.8321 7.6478C13.8321 7.80144 13.8864 7.93257 13.9951 8.04121C14.1037 8.14984 14.2348 8.20416 14.3885 8.20416C14.5421 8.20416 14.6732 8.14984 14.7819 8.04121C14.8905 7.93257 14.9448 7.80144 14.9448 7.6478C14.9448 7.49417 14.8905 7.36303 14.7819 7.2544C14.6732 7.14576 14.5421 7.09145 14.3885 7.09145C14.2348 7.09145 14.1037 7.14576 13.9951 7.2544C13.8864 7.36303 13.8321 7.49417 13.8321 7.6478ZM14.0259 7.17896L13.9696 7.21647C13.8787 7.28155 13.81 7.3649 13.7634 7.46652L13.6883 7.64155C13.6768 7.66184 13.6664 7.68268 13.6571 7.70406L13.457 8.31668C13.4526 8.327 13.4485 8.33741 13.4445 8.34793L13.3445 8.70425C13.3422 8.71462 13.3401 8.72504 13.3383 8.73551L13.2508 9.11058C13.2487 9.11265 13.2466 9.11473 13.2445 9.11683L13.1632 9.49815C13.1611 9.50022 13.1591 9.50231 13.157 9.50441L13.082 9.87323C13.0799 9.87321 13.0778 9.87321 13.0757 9.87323L13.007 10.2295L12.9382 10.5296L12.8819 10.7609L12.8444 10.9047L12.8132 11.0047L12.7882 11.0735C12.7835 11.0879 12.7793 11.1025 12.7757 11.1172L12.7632 11.161C12.8247 11.087 12.8685 11.0036 12.8944 10.9109L12.8819 10.9297C12.9892 10.8839 13.0788 10.8152 13.1507 10.7234L13.1445 10.7296C13.3343 10.8371 13.5302 10.8496 13.7321 10.7671L13.6883 10.7359C13.6619 10.7237 13.6348 10.7133 13.6071 10.7046L13.5633 10.6796C13.5367 10.6696 13.5097 10.6613 13.482 10.6546L13.4133 10.6359C13.3703 10.6232 13.3266 10.6149 13.282 10.6109L13.1882 10.6046C13.1695 10.6038 13.1507 10.6038 13.132 10.6046H13.0195C13.0007 10.6038 12.982 10.6038 12.9632 10.6046L12.8319 10.6171C12.8298 10.6171 12.8278 10.6171 12.8257 10.6171L12.6819 10.6359L12.5256 10.6484C12.5193 10.6504 12.5131 10.6525 12.5069 10.6546L12.3256 10.6734C12.3193 10.6754 12.313 10.6775 12.3068 10.6796L12.1193 10.7046L11.9192 10.7296L11.6254 10.7484L11.2316 10.7796L10.7065 10.7984L10.0814 10.8297C10.0563 10.8304 10.0313 10.8325 10.0064 10.8359L9.29375 10.9484C9.19525 10.9647 9.10565 11.0022 9.02495 11.061L8.53736 11.411L7.93724 11.4798C7.76638 11.5006 7.69136 11.5965 7.7122 11.7673C7.73304 11.9382 7.82889 12.0132 7.99975 11.9924L8.59362 11.9174L9.14372 12.1549C9.21764 12.1863 9.29474 12.203 9.37502 12.2049L10.0877 12.2299C10.1043 12.2305 10.121 12.2305 10.1377 12.2299L10.7628 12.2112C10.7669 12.2112 10.7711 12.2112 10.7753 12.2112L11.3066 12.1799C11.3129 12.18 11.3191 12.18 11.3254 12.1799L11.7317 12.1424C11.7338 12.1424 11.7359 12.1424 11.738 12.1424L12.0443 12.1174C12.061 12.1159 12.0777 12.1138 12.0943 12.1112L12.3193 12.0736L12.5194 12.0424L12.6944 12.0174L12.8444 11.9986C12.8486 11.9966 12.8528 11.9945 12.8569 11.9924L12.982 11.9736L13.057 11.9674H13.1132L13.1945 11.9736C13.1475 11.9601 13.0995 11.9518 13.0507 11.9486L13.1007 11.9611H13.107L13.132 11.9736C13.1361 11.9758 13.1403 11.9778 13.1445 11.9799L13.1507 11.9861C13.3108 12.0499 13.4718 12.0526 13.6339 11.9942C13.796 11.9358 13.9183 11.831 14.0009 11.6798L14.0134 11.6611C14.0342 11.6211 14.0509 11.5794 14.0634 11.536L14.0822 11.4923C14.0649 11.5244 14.0503 11.5578 14.0384 11.5923L14.0759 11.5235C14.091 11.4912 14.1035 11.4578 14.1134 11.4235L14.1509 11.3047L14.2072 11.1422C14.2123 11.1216 14.2165 11.1007 14.2197 11.0797L14.2759 10.8297L14.3447 10.5233C14.3468 10.5213 14.3489 10.5192 14.351 10.5171L14.4197 10.1608L14.501 9.80446L14.5948 9.42314L14.676 9.06057L14.7698 8.72301C14.772 8.71679 14.774 8.71053 14.776 8.70425L14.9323 8.07913C14.9411 8.04628 14.9474 8.01294 14.9511 7.97911L14.9698 7.78533C14.9737 7.73507 14.9717 7.68506 14.9636 7.6353L14.9511 7.56654C14.9356 7.46531 14.8964 7.37433 14.8334 7.29361C14.7704 7.21288 14.6917 7.15274 14.5972 7.11317C14.5028 7.07361 14.4047 7.05968 14.303 7.0714C14.2012 7.08311 14.1089 7.11897 14.0259 7.17896Z" fill="black"/>
<path d="M1.33605 12.6925C1.33605 12.88 1.42981 12.9738 1.61735 12.9738C1.80489 12.9738 1.89865 12.88 1.89865 12.6925C1.89865 12.505 1.80489 12.4112 1.61735 12.4112C1.42981 12.4112 1.33605 12.505 1.33605 12.6925ZM1.24853 12.6925C1.24853 12.7961 1.28515 12.8845 1.35839 12.9577C1.43162 13.031 1.52003 13.0676 1.6236 13.0676C1.72717 13.0676 1.81558 13.031 1.88882 12.9577C1.96205 12.8845 1.99867 12.7961 1.99867 12.6925C1.99867 12.5889 1.96205 12.5005 1.88882 12.4273C1.81558 12.3541 1.72717 12.3174 1.6236 12.3174C1.52003 12.3174 1.43162 12.3541 1.35839 12.4273C1.28515 12.5005 1.24853 12.5889 1.24853 12.6925ZM1.23603 12.8238L1.24853 12.855C1.30128 13.0222 1.41172 13.1305 1.57984 13.1801L1.72362 13.2239C1.74817 13.2319 1.77317 13.2382 1.79863 13.2426L2.04868 13.2801C2.06733 13.2832 2.08608 13.2852 2.10494 13.2864L2.50502 13.3051C2.52377 13.306 2.54253 13.306 2.56128 13.3051L3.13014 13.2739C3.14271 13.2722 3.15521 13.2701 3.16764 13.2676L3.91154 13.1801C3.93685 13.1778 3.96185 13.1736 3.98655 13.1676L4.88672 12.9238L5.76814 12.6988L6.50578 12.5987C6.67665 12.5737 6.74958 12.4758 6.72457 12.3049C6.69957 12.1341 6.60163 12.0611 6.43077 12.0861L5.69938 12.1924L4.80546 12.1862L3.87403 12.1424C3.86569 12.1422 3.85736 12.1422 3.84902 12.1424L3.09888 12.1362C3.0968 12.1361 3.09471 12.1361 3.09263 12.1362L2.52377 12.1424C2.51752 12.1423 2.51127 12.1423 2.50502 12.1424L2.10494 12.1612C2.09446 12.163 2.08405 12.165 2.07369 12.1674L1.82364 12.1924C1.80268 12.1933 1.78184 12.1954 1.76113 12.1987L1.61735 12.2299C1.49935 12.2552 1.4035 12.3156 1.32979 12.4112L1.31104 12.4362C1.21955 12.5525 1.19454 12.6817 1.23603 12.8238Z" fill="black"/>
<path d="M18.745 9.19828C18.745 9.41082 18.8512 9.51709 19.0638 9.51709C19.2763 9.51709 19.3826 9.41082 19.3826 9.19828C19.3826 8.98573 19.2763 8.87946 19.0638 8.87946C18.8512 8.87946 18.745 8.98573 18.745 9.19828ZM18.695 9.20453C18.695 9.30637 18.731 9.39331 18.803 9.46532C18.875 9.53734 18.9619 9.57335 19.0638 9.57335C19.1656 9.57335 19.2525 9.53734 19.3246 9.46532C19.3966 9.39331 19.4326 9.30637 19.4326 9.20453C19.4326 9.10268 19.3966 9.01575 19.3246 8.94373C19.2525 8.87171 19.1656 8.83571 19.0638 8.83571C18.9619 8.83571 18.875 8.87171 18.803 8.94373C18.731 9.01575 18.695 9.10268 18.695 9.20453ZM18.6387 9.21703C18.6387 9.33269 18.6796 9.4314 18.7614 9.51319C18.8431 9.59497 18.9419 9.63586 19.0575 9.63586C19.1732 9.63586 19.2719 9.59497 19.3537 9.51319C19.4355 9.4314 19.4763 9.33269 19.4763 9.21703C19.4763 9.10137 19.4355 9.00265 19.3537 8.92087C19.2719 8.83909 19.1732 8.7982 19.0575 8.7982C18.9419 8.7982 18.8431 8.83909 18.7614 8.92087C18.6796 9.00265 18.6387 9.10137 18.6387 9.21703ZM18.6387 9.00449L18.6012 9.067C18.5898 9.08307 18.5794 9.09974 18.5699 9.11701L18.5199 9.22328C18.4969 9.269 18.4802 9.31693 18.4699 9.36706L18.4387 9.53584C18.4255 9.60427 18.4234 9.67303 18.4324 9.74213L18.4699 9.99843C18.4733 10.0174 18.4774 10.0361 18.4824 10.0547L18.5512 10.386C18.5564 10.4071 18.5627 10.428 18.5699 10.4485L18.6762 10.7986C18.6819 10.8134 18.6882 10.828 18.695 10.8423L18.8262 11.1737C18.8301 11.1842 18.8343 11.1946 18.8387 11.2049L18.9638 11.4862C18.9658 11.4904 18.9679 11.4946 18.97 11.4987L19.07 11.7175L19.145 11.8738L19.17 11.9363L19.1763 11.9425C19.1845 11.9745 19.1949 12.0058 19.2075 12.0363L19.2201 12.0613C19.2965 12.2482 19.4292 12.3771 19.6182 12.4481C19.8072 12.5191 19.992 12.5095 20.1726 12.4192C20.3532 12.3289 20.4717 12.1869 20.5283 11.9931C20.5849 11.7993 20.5614 11.6157 20.4578 11.4425L20.4453 11.4174C20.4558 11.4475 20.4683 11.4767 20.4828 11.505L20.464 11.455C20.4565 11.4358 20.4482 11.4171 20.439 11.3987L20.389 11.2924L20.314 11.1361L20.214 10.9174L20.0952 10.6548L19.9764 10.361L19.8764 10.0484L19.7889 9.73588C19.7855 9.71695 19.7814 9.69819 19.7764 9.67962L19.6826 9.43582C19.6692 9.39889 19.6525 9.36346 19.6326 9.32955L19.5451 9.17952C19.5355 9.16232 19.5251 9.14565 19.5139 9.12951L19.4451 9.03574C19.461 9.09928 19.4881 9.15762 19.5264 9.21078L19.5076 9.13576C19.452 8.93534 19.3214 8.81959 19.1157 8.78852C18.91 8.75745 18.751 8.82944 18.6387 9.00449ZM19.7389 12.4739L19.8452 12.4927C19.901 12.5032 19.9572 12.5073 20.014 12.5052L20.1952 12.4989C20.2162 12.4977 20.237 12.4956 20.2577 12.4927L20.5641 12.4551L20.9954 12.4239L21.5893 12.3926C21.5913 12.3926 21.5934 12.3926 21.5955 12.3926L22.3144 12.3489C22.3165 12.3489 22.3186 12.3489 22.3206 12.3489L23.1333 12.2989C23.1375 12.2989 23.1416 12.2989 23.1458 12.2989L24.0085 12.2364L24.8586 12.1738L25.6713 12.1551L26.4152 12.1426C26.4235 12.1428 26.4318 12.1428 26.4402 12.1426L27.1091 12.0988C27.1153 12.099 27.1216 12.099 27.1278 12.0988L27.7342 12.0301L28.2843 11.9738C28.3235 11.9694 28.361 11.959 28.3968 11.9425L28.8031 11.7613L29.1469 11.6675C29.3051 11.6216 29.3613 11.5195 29.3155 11.3612C29.2697 11.203 29.1677 11.1467 29.0094 11.1924L28.6969 11.2799L28.278 11.2487C28.2634 11.2478 28.2489 11.2478 28.2343 11.2487L27.7217 11.2612L27.1778 11.1674L26.5464 11.0111C26.53 11.0062 26.5133 11.002 26.4964 10.9986L25.765 10.8736C25.7505 10.871 25.7359 10.8689 25.7213 10.8673L24.8961 10.7861C24.8815 10.7856 24.867 10.7856 24.8524 10.7861L23.9835 10.7486C23.971 10.7483 23.9585 10.7483 23.946 10.7486L23.077 10.7548C23.0708 10.7547 23.0645 10.7547 23.0583 10.7548L22.2456 10.7798C22.2415 10.7798 22.2373 10.7798 22.2331 10.7798L21.5142 10.8173L20.9079 10.8486C20.8995 10.8485 20.8912 10.8485 20.8829 10.8486L20.4203 10.8923C20.4015 10.8938 20.3827 10.8958 20.364 10.8986L20.0452 10.9424C20.0069 10.95 19.9694 10.9604 19.9327 10.9736L19.7577 11.0236C19.6627 11.0546 19.5773 11.1026 19.5014 11.1674L19.4138 11.2362C19.1836 11.4279 19.1065 11.6686 19.1826 11.9584C19.2587 12.2482 19.4441 12.4201 19.7389 12.4739Z" fill="black"/>
<path d="M26.3588 12.2738C26.3588 12.3722 26.3936 12.4562 26.4632 12.5258C26.5328 12.5954 26.6168 12.6302 26.7152 12.6302C26.8135 12.6302 26.8975 12.5954 26.9671 12.5258C27.0367 12.4562 27.0715 12.3722 27.0715 12.2738C27.0715 12.1754 27.0367 12.0915 26.9671 12.0219C26.8975 11.9523 26.8135 11.9175 26.7152 11.9175C26.6168 11.9175 26.5328 11.9523 26.4632 12.0219C26.3936 12.0915 26.3588 12.1754 26.3588 12.2738ZM26.6214 11.8488L26.5651 11.8613C26.5042 11.8727 26.4479 11.8956 26.3963 11.93L26.2526 12.0238C26.2282 12.0384 26.2052 12.0551 26.1838 12.0738L25.9463 12.3114C25.9399 12.3154 25.9337 12.3195 25.9275 12.3239L25.5524 12.7177C25.5481 12.7238 25.544 12.7301 25.5399 12.7364L25.0648 13.274C25.0627 13.2782 25.0606 13.2823 25.0586 13.2865L24.5272 13.9367C24.5251 13.9387 24.523 13.9408 24.521 13.9429L23.9584 14.643L23.4083 15.3182L22.8644 15.937L22.3581 16.4621L21.9267 16.881L21.5829 17.1685L21.3391 17.3311L21.1954 17.4123L21.1266 17.4436C21.3156 17.6414 21.5344 17.6831 21.783 17.5686L21.7642 17.5498C21.673 17.6634 21.631 17.7929 21.6381 17.9383C21.6453 18.0837 21.6998 18.2085 21.8017 18.3125L21.8267 18.275C21.7944 18.301 21.7652 18.3302 21.7392 18.3625L21.758 18.35L21.7642 18.3438H21.7767H21.7705L21.8017 18.3375C21.7288 18.3234 21.6559 18.3234 21.5829 18.3375L21.6267 18.3438C21.5826 18.3235 21.5368 18.3089 21.4892 18.3L21.5204 18.3125C21.49 18.1036 21.3795 17.9535 21.1891 17.8624V17.8812C21.2168 18.064 21.308 18.2059 21.4629 18.3069C21.6177 18.4079 21.7844 18.4343 21.9628 18.3859C22.1413 18.3376 22.2719 18.2307 22.3545 18.0654C22.4372 17.9 22.4444 17.7314 22.376 17.5597C22.3076 17.3879 22.1865 17.2704 22.0128 17.2071C21.839 17.1438 21.6708 17.156 21.5079 17.2435L21.4954 17.2498C21.5839 17.2455 21.6672 17.2226 21.7455 17.181H21.7142C21.6847 17.183 21.6555 17.1872 21.6267 17.1935L21.5829 17.1998C21.5808 17.2018 21.5787 17.2039 21.5767 17.206L21.5142 17.2185C21.4973 17.222 21.4806 17.2261 21.4642 17.231L21.4016 17.2498C21.3669 17.2612 21.3336 17.2758 21.3016 17.2936L21.2391 17.3248C21.237 17.3248 21.2349 17.3248 21.2329 17.3248L21.1641 17.3623C21.1378 17.377 21.1128 17.3937 21.0891 17.4123L21.0328 17.4561C21.0008 17.4801 20.9716 17.5072 20.9453 17.5373L20.914 17.5749C20.8152 17.6904 20.7693 17.8242 20.7766 17.9761C20.7838 18.1281 20.8421 18.2569 20.9516 18.3625L20.9703 18.3813C21.1605 18.5646 21.3751 18.6 21.6142 18.4875L21.7079 18.4438C21.7362 18.4314 21.7633 18.4168 21.7892 18.4L21.9642 18.2812C21.9865 18.264 22.0073 18.2453 22.0268 18.225L22.2768 17.9937L22.6331 17.6624C22.6395 17.6563 22.6458 17.65 22.6519 17.6436L23.0957 17.1998C23.0979 17.1956 23.0999 17.1915 23.102 17.1873L23.6208 16.6434C23.625 16.6393 23.6292 16.6352 23.6333 16.6309L24.1897 15.9996C24.1939 15.9955 24.1981 15.9913 24.2022 15.9871L24.7648 15.2994C24.7669 15.2974 24.769 15.2953 24.771 15.2932L25.3336 14.593L25.8587 13.9492L26.3213 13.4053L26.6714 12.9927L26.8839 12.7427C26.8927 12.7326 26.901 12.7222 26.9089 12.7114L26.9965 12.5927L27.0215 12.5677C27.1663 12.4145 27.1875 12.2458 27.085 12.0615C26.9824 11.8773 26.8279 11.8064 26.6214 11.8488ZM21.1516 17.7999C21.1516 17.9811 21.2157 18.1359 21.3438 18.264C21.472 18.3922 21.6267 18.4563 21.808 18.4563C21.9892 18.4563 22.1439 18.3922 22.2721 18.264C22.4003 18.1359 22.4643 17.9811 22.4643 17.7999C22.4643 17.6186 22.4003 17.4639 22.2721 17.3358C22.1439 17.2076 21.9892 17.1435 21.808 17.1435C21.6267 17.1435 21.472 17.2076 21.3438 17.3358C21.2157 17.4639 21.1516 17.6186 21.1516 17.7999ZM21.1391 17.8937L21.1453 17.9687C21.1868 17.8618 21.2014 17.7514 21.1891 17.6374L21.1703 17.6811C21.1449 17.7435 21.1282 17.8081 21.1203 17.8749L21.1141 17.9874C21.1103 18.0165 21.1082 18.0457 21.1078 18.0749V18.2812C21.1085 18.3084 21.1106 18.3355 21.1141 18.3625L21.1578 18.7876C21.1613 18.8065 21.1655 18.8252 21.1703 18.8438L21.2954 19.519C21.2997 19.5506 21.306 19.5819 21.3141 19.6127L21.6017 20.5254C21.6109 20.5489 21.6213 20.5718 21.6329 20.5942L22.0643 21.5944C22.0662 21.6007 22.0683 21.6069 22.0705 21.6131L22.5269 22.5633C22.5408 22.5921 22.5575 22.6192 22.5769 22.6446L23.077 23.3009L23.3333 23.8698C23.4 24.0197 23.5083 24.0613 23.6582 23.9947C23.8082 23.928 23.8499 23.8197 23.7833 23.6698L23.527 23.1072L23.4208 22.2945C23.4194 22.2798 23.4173 22.2652 23.4145 22.2507L23.177 21.2443L22.9832 20.1941L22.8394 19.2564C22.8394 19.2523 22.8394 19.2481 22.8394 19.2439L22.7269 18.5875L22.6769 18.175C22.675 18.1645 22.6729 18.1541 22.6706 18.1437L22.6331 17.9374C22.6279 17.8972 22.6196 17.8576 22.6081 17.8187L22.5706 17.7186C22.5184 17.5625 22.4246 17.4374 22.2893 17.3436L22.2518 17.3186C22.2841 17.3534 22.3195 17.3846 22.3581 17.4123L22.3143 17.3623C22.092 17.1253 21.8328 17.0737 21.5366 17.2076C21.2405 17.3415 21.108 17.5702 21.1391 17.8937Z" fill="black"/>
<path d="M21.8518 17.2373C21.8518 17.3288 21.8842 17.4069 21.9488 17.4716C22.0135 17.5363 22.0916 17.5687 22.1831 17.5687C22.2746 17.5687 22.3527 17.5363 22.4174 17.4716C22.4821 17.4069 22.5144 17.3288 22.5144 17.2373C22.5144 17.1459 22.4821 17.0678 22.4174 17.0031C22.3527 16.9384 22.2746 16.906 22.1831 16.906C22.0916 16.906 22.0135 16.9384 21.9488 17.0031C21.8842 17.0678 21.8518 17.1459 21.8518 17.2373ZM21.8643 17.2311C21.8643 17.3936 21.9456 17.4749 22.1081 17.4749C22.2706 17.4749 22.3519 17.3936 22.3519 17.2311C22.3519 17.0686 22.2706 16.9873 22.1081 16.9873C21.9456 16.9873 21.8643 17.0686 21.8643 17.2311Z" fill="black"/>
<path d="M21.4266 17.0247C21.4266 17.1197 21.4602 17.2007 21.5273 17.2679C21.5945 17.335 21.6755 17.3686 21.7705 17.3686C21.8654 17.3686 21.9464 17.335 22.0136 17.2679C22.0807 17.2007 22.1143 17.1197 22.1143 17.0247C22.1143 16.9298 22.0807 16.8488 22.0136 16.7816C21.9464 16.7145 21.8654 16.6809 21.7705 16.6809C21.6755 16.6809 21.5945 16.7145 21.5273 16.7816C21.4602 16.8488 21.4266 16.9298 21.4266 17.0247ZM22.083 16.8059L22.0518 16.7497C22.0198 16.6933 21.9781 16.6454 21.9267 16.6059L21.8392 16.5371C21.829 16.5305 21.8186 16.5243 21.808 16.5184L21.7204 16.4559C21.6342 16.3976 21.5391 16.3644 21.4353 16.3561C21.3316 16.3479 21.2324 16.3657 21.138 16.4095C21.0436 16.4534 20.9661 16.5176 20.9054 16.6023C20.8448 16.6869 20.8089 16.781 20.7978 16.8845C20.7866 16.988 20.8016 17.0875 20.8428 17.1832C20.884 17.2788 20.9461 17.3581 21.029 17.421C21.1119 17.484 21.2049 17.5225 21.3081 17.5365C21.4113 17.5506 21.5112 17.5384 21.6079 17.4998L21.6767 17.4748L21.758 17.4498C21.8201 17.432 21.8764 17.4028 21.9267 17.3623L21.9767 17.3248C22.1608 17.1823 22.1962 17.0093 22.083 16.8059ZM20.6077 16.9372C20.6077 17.1288 20.6755 17.2924 20.811 17.4279C20.9465 17.5634 21.11 17.6311 21.3016 17.6311C21.4932 17.6311 21.6568 17.5634 21.7923 17.4279C21.9278 17.2924 21.9955 17.1288 21.9955 16.9372C21.9955 16.7456 21.9278 16.5821 21.7923 16.4466C21.6568 16.3111 21.4932 16.2433 21.3016 16.2433C21.11 16.2433 20.9465 16.3111 20.811 16.4466C20.6755 16.5821 20.6077 16.7456 20.6077 16.9372ZM21.4641 16.2183H21.4516C21.3295 16.182 21.206 16.1762 21.081 16.2008C20.956 16.2254 20.8439 16.2777 20.7447 16.3575C20.6454 16.4374 20.5704 16.5358 20.5197 16.6526C20.469 16.7695 20.4483 16.8914 20.4577 17.0185L20.464 17.1185C20.4682 17.1651 20.4766 17.2109 20.489 17.256L20.539 17.4498C20.5472 17.4838 20.5576 17.5172 20.5702 17.5498L20.6765 17.8124C20.6823 17.8272 20.6886 17.8417 20.6953 17.8561L20.839 18.1625L21.0016 18.5375L21.1766 18.9439L21.3454 19.3939L21.5204 19.8628C21.5224 19.8711 21.5244 19.8795 21.5267 19.8878L21.7017 20.3066C21.7057 20.3171 21.7098 20.3275 21.7142 20.3379L21.883 20.7067C21.8889 20.7194 21.8952 20.7319 21.9017 20.7442L22.0705 21.063L22.1955 21.3131L22.2893 21.5318L22.3643 21.7131C22.3785 21.7497 22.3951 21.7852 22.4143 21.8194L22.4643 21.8944L22.4768 21.9319C22.4989 21.9827 22.526 22.0306 22.5581 22.0757L22.5769 22.107C22.6878 22.2681 22.838 22.3728 23.0276 22.421C23.2172 22.4693 23.3992 22.4492 23.5737 22.3608C23.7481 22.2724 23.872 22.1375 23.9451 21.956C24.0183 21.7746 24.0227 21.5916 23.9584 21.4068V21.4006L23.9396 21.3506C23.931 21.3208 23.9205 21.2916 23.9084 21.263L23.8709 21.1943C23.8454 21.1406 23.8142 21.0906 23.7771 21.0443L23.7208 20.9692C23.7167 20.965 23.7125 20.9609 23.7083 20.9567L23.6396 20.8755C23.6644 20.9758 23.7103 21.0654 23.7771 21.1443L23.7521 21.0443L23.7396 20.9005C23.7376 20.8942 23.7355 20.8879 23.7333 20.8817L23.7083 20.6379C23.705 20.619 23.7008 20.6002 23.6958 20.5817L23.6396 20.3066C23.633 20.279 23.6246 20.2519 23.6146 20.2254L23.5208 19.944L23.4333 19.6752L23.3583 19.3939L23.202 18.6438C23.2021 18.6355 23.2021 18.6271 23.202 18.6188L23.0957 18.1875C23.0939 18.177 23.0918 18.1666 23.0895 18.1562L22.9707 17.7499C22.9667 17.7415 22.9625 17.7331 22.9582 17.7249L22.8457 17.3936C22.8437 17.3852 22.8417 17.3769 22.8394 17.3686L22.7456 17.1248C22.7345 17.1011 22.722 17.0782 22.7081 17.056L22.6331 16.8997C22.5693 16.7802 22.4776 16.6885 22.3581 16.6247L22.2893 16.5872C22.1978 16.5372 22.0999 16.5121 21.9957 16.5116C21.8914 16.5112 21.7933 16.5355 21.7014 16.5846C21.6094 16.6337 21.5347 16.7018 21.4771 16.7887C21.4195 16.8756 21.386 16.9709 21.3766 17.0748L21.3704 17.156C21.3625 17.2525 21.375 17.3463 21.4079 17.4373L21.4704 17.5999C21.4704 17.604 21.4704 17.6082 21.4704 17.6124L21.5642 17.8436L21.6642 18.15L21.7767 18.5313L21.8767 18.9376L22.0455 19.694C22.0473 19.7045 22.0494 19.7149 22.0518 19.7253L22.1393 20.0441C22.1431 20.0567 22.1472 20.0692 22.1518 20.0816L22.2455 20.3691C22.2476 20.3733 22.2497 20.3775 22.2518 20.3816L22.3456 20.6504L22.4143 20.888L22.4581 21.0693L22.4706 21.1818V21.2068L22.4643 21.2193C22.4591 21.242 22.4549 21.2649 22.4518 21.2881L22.4331 21.3818C22.4147 21.4777 22.4147 21.5735 22.4331 21.6694L22.4393 21.7131L22.4456 21.7381C22.4831 21.6284 22.4956 21.5159 22.4831 21.4006V21.4068C22.6404 21.7112 22.8899 21.8515 23.2317 21.8276C23.5736 21.8037 23.8012 21.6301 23.9146 21.3068L23.9021 21.2693C23.9151 21.3503 23.9401 21.4274 23.9771 21.5006L23.9646 21.4193L23.9459 21.2818C23.9384 21.2414 23.928 21.2018 23.9146 21.163L23.8584 20.963C23.8475 20.9331 23.835 20.9039 23.8208 20.8755L23.7146 20.6317C23.7106 20.6212 23.7065 20.6108 23.7021 20.6004L23.5708 20.3191C23.5668 20.3107 23.5626 20.3024 23.5583 20.2941L23.3958 19.9878L23.2457 19.6502L23.077 19.2627L22.9082 18.8063L22.7331 18.3375C22.7274 18.3206 22.7212 18.304 22.7144 18.2875L22.5206 17.8687C22.5186 17.8624 22.5165 17.8561 22.5143 17.8499L22.3331 17.4686C22.327 17.458 22.3208 17.4476 22.3143 17.4373L22.1643 17.1498L22.058 16.9247L21.9892 16.7559C21.9872 16.7518 21.9851 16.7476 21.983 16.7434L21.9455 16.6497C21.9275 16.6126 21.9066 16.5772 21.883 16.5434L21.8767 16.5309C21.7779 16.3757 21.6403 16.2715 21.4641 16.2183ZM21.4892 17.1123C21.4892 17.2452 21.5361 17.3586 21.6301 17.4526C21.7241 17.5466 21.8376 17.5936 21.9705 17.5936C22.1034 17.5936 22.2169 17.5466 22.3109 17.4526C22.4048 17.3586 22.4518 17.2452 22.4518 17.1123C22.4518 16.9793 22.4048 16.8659 22.3109 16.7719C22.2169 16.6779 22.1034 16.6309 21.9705 16.6309C21.8376 16.6309 21.7241 16.6779 21.6301 16.7719C21.5361 16.8659 21.4892 16.9793 21.4892 17.1123ZM21.5517 17.1435C21.5517 17.2557 21.5913 17.3515 21.6707 17.4308C21.75 17.5102 21.8458 17.5498 21.958 17.5498C22.0702 17.5498 22.166 17.5102 22.2453 17.4308C22.3246 17.3515 22.3643 17.2557 22.3643 17.1435C22.3643 17.0313 22.3246 16.9355 22.2453 16.8562C22.166 16.7769 22.0702 16.7372 21.958 16.7372C21.8458 16.7372 21.75 16.7769 21.6707 16.8562C21.5913 16.9355 21.5517 17.0313 21.5517 17.1435ZM21.7017 17.2185V17.2935C21.7017 17.4602 21.785 17.5436 21.9517 17.5436C22.1184 17.5436 22.2018 17.4602 22.2018 17.2935V17.2185C22.2018 17.0518 22.1184 16.9685 21.9517 16.9685C21.785 16.9685 21.7017 17.0518 21.7017 17.2185Z" fill="black"/>
<path d="M21.4017 17.9562C21.4017 18.0563 21.4371 18.1418 21.5079 18.2126C21.5787 18.2834 21.6641 18.3188 21.7642 18.3188C21.8644 18.3188 21.9498 18.2834 22.0206 18.2126C22.0914 18.1418 22.1268 18.0563 22.1268 17.9562C22.1268 17.8561 22.0914 17.7706 22.0206 17.6998C21.9498 17.629 21.8644 17.5936 21.7642 17.5936C21.6641 17.5936 21.5787 17.629 21.5079 17.6998C21.4371 17.7706 21.4017 17.8561 21.4017 17.9562ZM21.3517 17.9437C21.3517 18.0542 21.3907 18.1485 21.4688 18.2266C21.547 18.3047 21.6413 18.3438 21.7517 18.3438C21.8622 18.3438 21.9565 18.3047 22.0346 18.2266C22.1128 18.1485 22.1518 18.0542 22.1518 17.9437C22.1518 17.8332 22.1128 17.7389 22.0346 17.6608C21.9565 17.5827 21.8622 17.5436 21.7517 17.5436C21.6413 17.5436 21.547 17.5827 21.4688 17.6608C21.3907 17.7389 21.3517 17.8332 21.3517 17.9437ZM21.2141 17.9062C21.2141 18.0512 21.2654 18.175 21.3679 18.2775C21.4705 18.38 21.5942 18.4313 21.7392 18.4313C21.8842 18.4313 22.008 18.38 22.1105 18.2775C22.2131 18.175 22.2643 18.0512 22.2643 17.9062C22.2643 17.7612 22.2131 17.6374 22.1105 17.5349C22.008 17.4324 21.8842 17.3811 21.7392 17.3811C21.5942 17.3811 21.4705 17.4324 21.3679 17.5349C21.2654 17.6374 21.2141 17.7612 21.2141 17.9062ZM22.2581 18.1812L22.3081 18.1062C22.34 18.0552 22.365 18.0011 22.3831 17.9437L22.4019 17.8937L22.4581 17.7999L22.6769 17.5061L23.0457 17.0685L23.5396 16.5122C23.5622 16.4864 23.583 16.4593 23.6021 16.4309L24.0647 15.7558C24.0924 15.7167 24.1153 15.6751 24.1334 15.6308L24.3835 14.9931L24.8773 14.5868C24.9706 14.4851 24.9733 14.3811 24.8853 14.2748C24.7973 14.1685 24.6946 14.1516 24.5773 14.2242L24.0772 14.6306L23.4021 14.7993C23.3351 14.8161 23.2725 14.8432 23.2145 14.8806L22.5269 15.3182C22.4717 15.3537 22.4217 15.3953 22.3769 15.4432L21.858 15.9933C21.8429 16.0073 21.8283 16.0219 21.8143 16.0371L21.4329 16.5059C21.4077 16.5355 21.3848 16.5668 21.3642 16.5997L21.1516 16.956C21.1106 17.0264 21.0815 17.1014 21.0641 17.181L21.0078 17.4186C20.9878 17.5054 20.9837 17.5929 20.9953 17.6811L21.0204 17.8249C21.0377 17.9556 21.0877 18.0723 21.1704 18.175L21.2266 18.2437C21.2922 18.3216 21.3718 18.3806 21.4653 18.4207C21.5589 18.4608 21.6565 18.4778 21.7581 18.4717C21.8597 18.4655 21.9545 18.4369 22.0425 18.3857C22.1305 18.3346 22.2024 18.2664 22.2581 18.1812Z" fill="black"/>
<path d="M9.01196 18.5063L9.01821 18.4938C8.91146 18.5214 8.83228 18.5839 8.78066 18.6813L8.79316 18.6751C8.91262 18.6439 8.99845 18.5724 9.05063 18.4605C9.10282 18.3486 9.10246 18.2369 9.04957 18.1253C8.99668 18.0138 8.91041 17.9428 8.79075 17.9123C8.6711 17.8819 8.5614 17.9031 8.46165 17.9758C8.3619 18.0486 8.30823 18.1466 8.30064 18.2698C8.29304 18.393 8.33428 18.4969 8.42434 18.5813L8.4306 18.5938C8.41123 18.5563 8.38622 18.5229 8.35558 18.4938L8.36183 18.5063C8.43137 18.636 8.53972 18.7009 8.68689 18.7009C8.83407 18.7009 8.94242 18.636 9.01196 18.5063ZM8.2118 18.25C8.2118 18.3881 8.26063 18.506 8.35828 18.6036C8.45593 18.7013 8.5738 18.7501 8.7119 18.7501C8.85 18.7501 8.96787 18.7013 9.06552 18.6036C9.16317 18.506 9.21199 18.3881 9.21199 18.25C9.21199 18.1119 9.16317 17.994 9.06552 17.8964C8.96787 17.7987 8.85 17.7499 8.7119 17.7499C8.5738 17.7499 8.45593 17.7987 8.35828 17.8964C8.26063 17.994 8.2118 18.1119 8.2118 18.25ZM8.48061 18.8189L8.51186 18.8314C8.43279 18.6752 8.31194 18.5648 8.14929 18.5001L8.1743 18.5376L8.21806 18.6376C8.23769 18.6771 8.26062 18.7146 8.28682 18.7501L8.38059 18.8814C8.40512 18.9148 8.43221 18.9461 8.46185 18.9751L8.62438 19.1377C8.65543 19.1676 8.68876 19.1947 8.7244 19.2189L8.9682 19.3877C8.99034 19.4035 9.01326 19.4181 9.03696 19.4315L9.32452 19.5878C9.33685 19.5944 9.34935 19.6006 9.36202 19.6065L9.64958 19.744C9.6558 19.7462 9.66205 19.7483 9.66833 19.7503L9.90588 19.8628C9.91827 19.8673 9.93077 19.8715 9.94338 19.8753L10.1184 19.9441L10.2372 19.9878C10.2496 19.9923 10.2621 19.9965 10.2747 20.0003L10.3497 20.0253C10.36 20.0297 10.3705 20.0339 10.381 20.0378L10.4185 20.0441C10.5935 20.0916 10.7638 20.0784 10.9294 20.0044C11.095 19.9304 11.2185 19.8124 11.2999 19.6503L11.3124 19.6315C11.4104 19.431 11.4187 19.2268 11.3374 19.0189L11.3249 18.9939C11.291 18.9009 11.241 18.8175 11.1749 18.7438L11.1436 18.7126C11.0707 18.6345 10.9852 18.5741 10.8873 18.5313L10.8436 18.5126C10.7757 18.4815 10.7049 18.4606 10.631 18.45H10.5998C10.531 18.4409 10.4622 18.4409 10.3935 18.45L10.331 18.4563C10.1393 18.4829 9.9768 18.5663 9.84336 18.7063L9.69334 18.8626C9.62737 18.9291 9.57319 19.0041 9.5308 19.0877L9.32452 19.5252C9.30819 19.5557 9.2936 19.5869 9.28076 19.619L8.9807 20.4567C8.96525 20.4975 8.95275 20.5391 8.94319 20.5817L8.68689 21.8507C8.68131 21.8776 8.67714 21.9046 8.67439 21.932L8.52436 23.4572L8.24306 25.02C8.24299 25.0242 8.24299 25.0284 8.24306 25.0325L8.03677 26.4641L7.77422 27.558C7.73671 27.7206 7.79923 27.8206 7.96176 27.8581C8.12429 27.8956 8.22431 27.8331 8.26181 27.6705L8.51811 26.5766L8.9932 25.2138L9.4933 23.7198L10.1622 22.3508C10.1665 22.3425 10.1707 22.3342 10.1747 22.3258L10.6935 21.1381C10.7002 21.1236 10.7064 21.109 10.7123 21.0943L11.0248 20.2566C11.0293 20.2442 11.0334 20.2317 11.0373 20.2191L11.1874 19.7565C11.1972 19.7278 11.2055 19.6986 11.2124 19.669L11.2561 19.4565C11.2611 19.4358 11.2653 19.415 11.2686 19.394L11.2749 19.3315C11.0534 19.4606 10.9263 19.6523 10.8936 19.9066L10.9186 19.8878C10.6843 19.791 10.4572 19.8056 10.2372 19.9316L10.2809 19.9503C10.2124 19.8886 10.1353 19.8407 10.0497 19.8065L10.0809 19.8378C10.099 19.8533 10.1177 19.8678 10.1372 19.8816L10.1622 19.9003C10.2213 19.5909 10.1254 19.3408 9.87462 19.1502L9.86837 19.1689C10.0598 19.182 10.2317 19.1303 10.384 19.0136C10.5364 18.897 10.6312 18.7445 10.6685 18.5563L10.631 18.5501C10.6957 18.5738 10.7624 18.5883 10.8311 18.5938L10.806 18.5813L10.7373 18.5501C10.7169 18.5387 10.6961 18.5283 10.6748 18.5188L10.5185 18.4563L10.2997 18.3625L10.0372 18.2375L9.80586 18.1125L9.64333 18L9.55581 17.9187L9.48705 17.8312C9.44175 17.7759 9.38965 17.7279 9.33077 17.6874L9.237 17.6249C9.11504 17.5394 8.9796 17.4956 8.83067 17.4936H8.78066C8.62091 17.4913 8.47748 17.5386 8.35037 17.6354C8.22326 17.7322 8.13957 17.8579 8.09928 18.0125L8.09303 18.0437C8.05248 18.2031 8.06898 18.3563 8.14253 18.5034C8.21608 18.6505 8.32877 18.7557 8.48061 18.8189Z" fill="black"/>
<path d="M10.0997 19.9128C10.0997 20.0164 10.1363 20.1048 10.2095 20.178C10.2827 20.2512 10.3712 20.2879 10.4747 20.2879C10.5783 20.2879 10.6667 20.2512 10.7399 20.178C10.8132 20.1048 10.8498 20.0164 10.8498 19.9128C10.8498 19.8092 10.8132 19.7208 10.7399 19.6476C10.6667 19.5743 10.5783 19.5377 10.4747 19.5377C10.3712 19.5377 10.2827 19.5743 10.2095 19.6476C10.1363 19.7208 10.0997 19.8092 10.0997 19.9128ZM10.0559 19.8753C10.056 19.9909 10.0969 20.0895 10.1787 20.1712C10.2604 20.253 10.3591 20.2938 10.4747 20.2938C10.5903 20.2938 10.689 20.253 10.7708 20.1712C10.8526 20.0895 10.8935 19.9909 10.8936 19.8753C10.8935 19.7597 10.8526 19.661 10.7708 19.5793C10.689 19.4976 10.5903 19.4567 10.4747 19.4567C10.3591 19.4567 10.2604 19.4976 10.1787 19.5793C10.0969 19.661 10.056 19.7597 10.0559 19.8753ZM10.0246 19.844C10.0246 19.9683 10.0686 20.0744 10.1565 20.1623C10.2444 20.2502 10.3504 20.2941 10.4747 20.2941C10.599 20.2941 10.7051 20.2502 10.793 20.1623C10.8809 20.0744 10.9248 19.9683 10.9248 19.844C10.9248 19.7197 10.8809 19.6136 10.793 19.5258C10.7051 19.4379 10.599 19.3939 10.4747 19.3939C10.3504 19.3939 10.2444 19.4379 10.1565 19.5258C10.0686 19.6136 10.0246 19.7197 10.0246 19.844ZM9.99964 19.4564L9.93712 19.5252C9.88186 19.5904 9.84018 19.6633 9.8121 19.744L9.73084 19.969L9.59331 20.3629C9.59114 20.3691 9.58906 20.3753 9.58706 20.3816L9.36202 21.063C9.35985 21.0692 9.35777 21.0755 9.35576 21.0818L9.0307 22.1632C9.02306 22.19 9.01681 22.2171 9.01195 22.2445L8.71189 23.7823C8.70704 23.7988 8.70287 23.8154 8.69939 23.8323L8.52436 25.4638L8.06802 26.8328C8.0445 26.9848 8.10548 27.0855 8.25095 27.1352C8.39642 27.1849 8.50631 27.1424 8.58062 27.0079L9.0432 25.6326L9.86836 24.2136C9.87744 24.1973 9.88578 24.1806 9.89337 24.1636L10.5435 22.7383C10.5585 22.7038 10.571 22.6683 10.581 22.632L10.9061 21.5443C10.9111 21.5237 10.9152 21.5028 10.9186 21.4818L11.0686 20.7817C11.0733 20.7652 11.0775 20.7485 11.0811 20.7317L11.1374 20.3191C11.1415 20.288 11.1436 20.2567 11.1436 20.2253L11.1499 19.9878C11.1519 19.8732 11.1269 19.7648 11.0748 19.6627L11.0373 19.5815C10.9894 19.4884 10.9224 19.412 10.8365 19.3523C10.7505 19.2925 10.6556 19.2564 10.5516 19.2439C10.4477 19.2313 10.3469 19.2439 10.2492 19.2815C10.1515 19.3191 10.0683 19.3774 9.99964 19.4564Z" fill="black"/>
<path d="M0.986037 12.7365C0.986037 12.8366 1.02143 12.9221 1.09223 12.9929C1.16303 13.0637 1.24849 13.0991 1.34861 13.0991C1.44873 13.0991 1.53418 13.0637 1.60498 12.9929C1.67578 12.9221 1.71117 12.8366 1.71117 12.7365C1.71117 12.6364 1.67578 12.5509 1.60498 12.4801C1.53418 12.4093 1.44873 12.3739 1.34861 12.3739C1.24849 12.3739 1.16303 12.4093 1.09223 12.4801C1.02143 12.5509 0.986037 12.6364 0.986037 12.7365ZM0.973534 12.7365C0.973534 12.8401 1.01015 12.9285 1.08339 13.0017C1.15663 13.075 1.24503 13.1116 1.34861 13.1116C1.45218 13.1116 1.54058 13.075 1.61382 13.0017C1.68706 12.9285 1.72368 12.8401 1.72368 12.7365C1.72368 12.6329 1.68706 12.5445 1.61382 12.4713C1.54058 12.3981 1.45218 12.3614 1.34861 12.3614C1.24503 12.3614 1.15663 12.3981 1.08339 12.4713C1.01015 12.5445 0.973534 12.6329 0.973534 12.7365ZM1.24234 13.3179L1.39862 13.3804C1.47556 13.4071 1.55474 13.4196 1.63616 13.4179H1.97372C1.98623 13.4182 1.99873 13.4182 2.01123 13.4179L2.53633 13.3804C2.53842 13.3804 2.5405 13.3804 2.54258 13.3804L3.31773 13.3304L4.28041 13.2929L5.41188 13.2804C5.41396 13.2804 5.41605 13.2804 5.41813 13.2804L6.66837 13.2491C6.68093 13.2474 6.69343 13.2453 6.70588 13.2429L7.99362 13.1491C8.00827 13.1475 8.02286 13.1454 8.03738 13.1428L9.30637 12.9741C9.3295 12.9711 9.35242 12.9669 9.37513 12.9616L10.5191 12.6865C10.5403 12.6814 10.5611 12.6752 10.5816 12.6678L11.513 12.3239L12.2757 12.0926C12.2928 12.0876 12.3095 12.0814 12.3257 12.0739L12.8258 11.8426L13.1696 11.7488C13.3237 11.7071 13.3799 11.6092 13.3382 11.4551C13.2966 11.301 13.1987 11.2447 13.0446 11.2862L12.707 11.38L12.1632 11.3988C12.1505 11.4002 12.138 11.4023 12.1257 11.405L11.3505 11.5113L10.3691 11.53C10.3607 11.5319 10.3524 11.534 10.3441 11.5363L9.16884 11.6051C9.16468 11.605 9.16051 11.605 9.15634 11.6051L7.88735 11.7113L6.61836 11.7988L5.38062 11.8301L4.24916 11.8551C4.24291 11.855 4.23666 11.855 4.2304 11.8551L3.24897 11.8926C3.2385 11.8945 3.22808 11.8965 3.21771 11.8989L2.43006 11.9676L1.91121 12.0114C1.89663 12.0109 1.88204 12.0109 1.86745 12.0114L1.53614 12.0614C1.48922 12.067 1.44337 12.0775 1.39862 12.0926L1.24234 12.1552C0.978768 12.2593 0.846985 12.4531 0.846985 12.7365C0.846985 13.0199 0.978768 13.2137 1.24234 13.3179Z" fill="black"/>
<path d="M16.489 1.62185H16.5015C16.6002 1.59716 16.6752 1.5409 16.7265 1.45307L16.7515 1.40931C16.7636 1.39147 16.774 1.37272 16.7828 1.35305L16.8016 1.30929L16.8078 1.29679L16.8328 1.27178C16.8392 1.26777 16.8454 1.2636 16.8516 1.25928L16.8828 1.22177C16.976 1.1257 17.0242 1.01077 17.0273 0.876966C17.0305 0.743165 16.9878 0.62609 16.8992 0.525736C16.8107 0.425382 16.6998 0.368444 16.5667 0.354921C16.4335 0.341398 16.3135 0.374887 16.2065 0.455387C16.0996 0.535887 16.0343 0.641988 16.0104 0.773689C15.9866 0.905391 16.0107 1.02766 16.0827 1.14051L16.1077 1.17802L16.1389 1.24053C16.1365 1.1712 16.1177 1.10661 16.0827 1.04674V1.103V1.1155L16.0764 1.12801C16.0214 1.2622 16.0402 1.38514 16.1327 1.49683L16.1389 1.50308C16.231 1.61522 16.3477 1.65481 16.489 1.62185ZM16.0327 0.584153L15.9826 0.67167C15.9483 0.725996 15.9233 0.784341 15.9076 0.846703L15.8451 1.10925C15.845 1.1155 15.845 1.12176 15.8451 1.12801L15.7514 1.58434L15.5513 2.40325C15.5487 2.41776 15.5467 2.43235 15.5451 2.44701L15.345 3.62848L14.9575 5.00375L14.5824 6.28524L14.1761 7.27293C14.1262 7.42156 14.1739 7.52533 14.3192 7.58423C14.4645 7.64313 14.5709 7.60188 14.6386 7.46046L15.045 6.46652L15.6451 5.27255C15.6472 5.26842 15.6493 5.26425 15.6513 5.26004L16.2639 3.94104L16.7828 2.83458C16.8016 2.79439 16.8162 2.75271 16.8266 2.70956L17.0266 1.8719C17.0322 1.84714 17.0364 1.82213 17.0391 1.79688L17.0954 1.32805C17.098 1.2947 17.098 1.26136 17.0954 1.22803L17.0829 0.959225C17.0806 0.901459 17.0701 0.845198 17.0516 0.790443L17.0203 0.690424C16.9437 0.471873 16.7903 0.350211 16.5601 0.325436C16.3298 0.300661 16.154 0.386901 16.0327 0.584153Z" fill="black"/>
<path d="M16.4702 1.03427C16.4702 1.12922 16.5038 1.21025 16.5709 1.27739C16.638 1.34452 16.7191 1.37809 16.814 1.37809C16.909 1.37809 16.99 1.34452 17.0571 1.27739C17.1243 1.21025 17.1578 1.12922 17.1578 1.03427C17.1578 0.939332 17.1243 0.858294 17.0571 0.79116C16.99 0.724026 16.909 0.690458 16.814 0.690458C16.7191 0.690458 16.638 0.724026 16.5709 0.79116C16.5038 0.858294 16.4702 0.939332 16.4702 1.03427ZM16.4577 1.03427C16.4577 1.13439 16.4931 1.21985 16.5639 1.29065C16.6347 1.36144 16.7202 1.39684 16.8203 1.39684C16.9204 1.39684 17.0059 1.36144 17.0767 1.29065C17.1474 1.21985 17.1828 1.13439 17.1828 1.03427C17.1828 0.934153 17.1474 0.848695 17.0767 0.777899C17.0059 0.707103 16.9204 0.671705 16.8203 0.671704C16.7202 0.671705 16.6347 0.707103 16.5639 0.777899C16.4931 0.848695 16.4577 0.934153 16.4577 1.03427ZM16.4452 1.02177C16.4452 1.12707 16.4824 1.21695 16.5569 1.29141C16.6314 1.36587 16.7212 1.40309 16.8265 1.40309C16.9318 1.40309 17.0217 1.36587 17.0962 1.29141C17.1706 1.21695 17.2079 1.12707 17.2079 1.02177C17.2079 0.916472 17.1706 0.826594 17.0962 0.752136C17.0217 0.677678 16.9318 0.640448 16.8265 0.640448C16.7212 0.640448 16.6314 0.677678 16.5569 0.752136C16.4824 0.826594 16.4452 0.916472 16.4452 1.02177ZM16.3514 0.996766C16.3514 1.12969 16.3984 1.24314 16.4924 1.33713C16.5864 1.43111 16.6999 1.47811 16.8328 1.47811C16.9657 1.47811 17.0792 1.43111 17.1731 1.33713C17.2671 1.24314 17.3141 1.12969 17.3141 0.996766C17.3141 0.863848 17.2671 0.750394 17.1731 0.656407C17.0792 0.562419 16.9657 0.515425 16.8328 0.515424C16.6999 0.515425 16.5864 0.562419 16.4924 0.656407C16.3984 0.750394 16.3514 0.863848 16.3514 0.996766ZM16.4077 0.727965L16.3702 0.784226C16.3261 0.851187 16.2969 0.924117 16.2827 1.00302L16.2389 1.22806C16.2351 1.25502 16.2331 1.28211 16.2327 1.30933L16.2077 1.75941C16.2067 1.78025 16.2067 1.80109 16.2077 1.82192L16.2327 2.58457C16.2322 2.59915 16.2322 2.61374 16.2327 2.62833L16.3327 3.65977C16.335 3.68921 16.3392 3.71838 16.3452 3.74729L16.6015 4.86625C16.6033 4.87673 16.6054 4.88715 16.6077 4.89751L16.9328 6.04148C16.9327 6.04564 16.9327 6.04981 16.9328 6.05398L17.2704 7.07292L17.4266 7.90433C17.4672 8.01739 17.5466 8.06318 17.6647 8.04169C17.7829 8.02021 17.8411 7.94941 17.8392 7.82932L17.6892 7.00416L17.6767 5.93521V4.75373L17.7142 3.61601C17.7147 3.60143 17.7147 3.58684 17.7142 3.57226L17.6704 2.53456C17.6706 2.52622 17.6706 2.51789 17.6704 2.50955L17.6204 1.75316C17.6197 1.72804 17.6176 1.70304 17.6142 1.67815L17.5392 1.24056C17.5287 1.17957 17.5099 1.12122 17.4829 1.06553L17.3891 0.85924C17.3424 0.760953 17.2736 0.681772 17.1828 0.621695L17.1266 0.584188C17.0075 0.504916 16.8777 0.479311 16.7374 0.507375C16.5971 0.535439 16.4872 0.608969 16.4077 0.727965Z" fill="black"/>
</g>
<defs>
<clipPath id="clip0_1_7221">
<rect width="30" height="33" fill="white"/>
</clipPath>
</defs>
</svg>
