<svg width="33" height="33" viewBox="0 0 33 33" fill="none" xmlns="http://www.w3.org/2000/svg">
<g clip-path="url(#clip0_1_7410)">
<path d="M1.10862 28.1408L1.09612 28.1971C1.0928 28.2157 1.09072 28.2345 1.08987 28.2534L1.07112 28.4096C1.06709 28.4537 1.06917 28.4975 1.07737 28.5409L1.13988 28.8535C1.14629 28.8921 1.15671 28.9296 1.17113 28.966L1.38368 29.4661C1.40129 29.5015 1.42213 29.5348 1.44619 29.5661L1.87752 30.21C1.88731 30.225 1.89773 30.2396 1.90878 30.2537L2.49014 30.9664C2.50196 30.9816 2.51446 30.9961 2.52764 31.0101L3.17152 31.6728C3.18924 31.6906 3.208 31.7073 3.22778 31.7228L3.8529 32.2104C3.87847 32.2313 3.90555 32.2501 3.93416 32.2666L4.44051 32.5417C4.51667 32.5833 4.59793 32.6083 4.6843 32.6167L5.05938 32.6542C5.28966 32.6778 5.48136 32.6028 5.63448 32.4292L5.84703 32.1854C5.9575 32.0604 6.01585 31.9145 6.02206 31.7478L6.04081 31.2602C6.04252 31.1902 6.03419 31.1214 6.01581 31.0539L5.83452 30.3663C5.8251 30.3277 5.8126 30.2902 5.79702 30.2537L5.4282 29.4473C5.41557 29.4172 5.40098 29.388 5.38444 29.3598L4.87184 28.5409C4.85471 28.5147 4.83595 28.4897 4.81558 28.4659L4.20921 27.7283C4.1843 27.699 4.15721 27.6719 4.12795 27.647L3.47157 27.0656C3.43301 27.032 3.39134 27.0028 3.34655 26.9781L2.69643 26.6093C2.6411 26.5787 2.58276 26.5558 2.52139 26.5405L1.96504 26.403C1.84418 26.3715 1.72332 26.3715 1.60247 26.403L1.20239 26.5155C0.849057 26.6119 0.674024 26.8432 0.677291 27.2094V27.572C0.675652 27.7144 0.721494 27.8394 0.814817 27.9471L1.05861 28.2221L1.20864 28.6597C1.28392 28.7969 1.39577 28.8407 1.54421 28.7912C1.69265 28.7418 1.75583 28.6396 1.73374 28.4847L1.60872 28.0971L1.70874 27.9033L1.75875 27.847L1.79625 27.8345L2.07756 27.9033L2.57765 28.1909L3.13401 28.6847L3.66536 29.3473L4.1217 30.0912L4.45301 30.8101L4.60929 31.3477L4.61554 31.5352L4.55303 31.6353C4.77434 31.6124 4.94313 31.5062 5.05938 31.3165L4.85309 31.3352L4.54678 31.2039L4.02168 30.7851L3.44032 30.1725L2.89646 29.4849L2.45263 28.866C2.45059 28.8618 2.44851 28.8576 2.44638 28.8535L2.11506 28.4159L1.94628 28.1971L1.92128 28.1408C1.88124 27.9135 1.7458 27.7998 1.51495 27.7998C1.2841 27.7998 1.14866 27.9135 1.10862 28.1408Z" fill="black"/>
<path d="M7.54686 12.2569L7.54061 12.2507C7.5204 12.2423 7.49956 12.2361 7.4781 12.2319L7.44059 12.2257C7.43642 12.2256 7.43225 12.2256 7.42809 12.2257L7.34682 12.2132C7.26177 12.201 7.1805 12.2135 7.10303 12.2507L6.92799 12.3319C6.85358 12.3671 6.79107 12.4171 6.74046 12.482L6.51541 12.7695C6.47426 12.8226 6.44301 12.8809 6.42165 12.9446L6.24036 13.4822C6.22325 13.5329 6.21283 13.585 6.20911 13.6384L6.15284 14.4698C6.14651 14.5397 6.15276 14.6085 6.1716 14.6761L6.44665 15.5826L6.45915 16.514C6.46338 16.6806 6.54881 16.7619 6.71545 16.7577C6.88209 16.7535 6.96336 16.6681 6.95925 16.5015L6.953 15.5888L7.27181 14.7136C7.28279 14.6831 7.29112 14.6518 7.29681 14.6199L7.44684 13.801L7.55936 13.2696L7.64688 12.932C7.64693 12.9279 7.64693 12.9237 7.64688 12.9195L7.69689 12.732C7.69936 12.7217 7.70145 12.7113 7.70314 12.7008L7.71564 12.6195C7.65696 12.6738 7.62153 12.7405 7.60937 12.8195L7.63438 12.7883C7.59945 12.8036 7.5682 12.8244 7.54061 12.8508L7.54686 12.8445C7.67689 12.7898 7.7419 12.6918 7.7419 12.5507C7.7419 12.4096 7.67689 12.3117 7.54686 12.2569Z" fill="black"/>
<path d="M6.80913 13.9823C6.80923 14.178 6.90716 14.2759 7.10294 14.2759C7.29871 14.2759 7.39665 14.178 7.39675 13.9823C7.39665 13.7865 7.29871 13.6886 7.10294 13.6886C6.90716 13.6886 6.80923 13.7865 6.80913 13.9823ZM7.32798 13.751L7.30923 13.7322C7.30135 13.7234 7.29301 13.7151 7.28422 13.7072L7.25297 13.6885C7.24686 13.6841 7.24061 13.6799 7.23421 13.676L7.20296 13.651L7.1717 13.6322C7.1151 13.5932 7.05259 13.5703 6.98417 13.5634L6.90915 13.5572C6.82656 13.5481 6.74737 13.5606 6.67161 13.5947L6.57159 13.6447C6.51766 13.6694 6.46973 13.7028 6.42781 13.7447L6.30279 13.8698C6.25806 13.9155 6.22264 13.9676 6.19652 14.026L6.05274 14.3261C6.03254 14.3701 6.01796 14.416 6.00898 14.4636L5.90271 15.0325C5.89369 15.0779 5.88953 15.1237 5.89021 15.17L5.90896 16.0702C5.90915 16.0995 5.91123 16.1287 5.91521 16.1577L6.0965 17.3267C6.09949 17.3498 6.10366 17.3727 6.109 17.3954L6.47157 18.7332C6.47641 18.7585 6.48266 18.7835 6.49032 18.8082L7.04668 20.246C7.05944 20.274 7.07403 20.3011 7.09044 20.3272L7.88434 21.7775C7.90697 21.8201 7.93406 21.8597 7.9656 21.8963L9.06581 23.1528L10.0097 24.2405L10.6974 25.1094C10.8033 25.2181 10.9153 25.2248 11.0334 25.1295C11.1516 25.0343 11.1688 24.9234 11.0849 24.7968L10.4098 23.9467L9.69718 22.7214L9.03456 21.2149C9.03257 21.2086 9.03049 21.2024 9.02831 21.1961L8.32192 19.7209L7.79057 18.3394L7.4405 17.0704L7.25297 15.9827L7.20296 15.1325L7.19671 14.6011L7.21546 14.3573L7.23421 14.2886L7.26547 14.2323C7.27507 14.2141 7.28341 14.1954 7.29048 14.1761L7.31548 14.1136L7.33423 14.0823C7.23163 14.1134 7.1587 14.178 7.11544 14.2761L7.15295 14.2698C7.07618 14.2331 6.99699 14.2268 6.9154 14.2511L6.94666 14.2698C6.94874 14.2698 6.95083 14.2698 6.95291 14.2698L6.97792 14.2823C7.14162 14.347 7.27189 14.3058 7.36872 14.1588C7.46555 14.0118 7.45197 13.8759 7.32798 13.751Z" fill="black"/>
<path d="M8.6158 22.1213L8.63455 22.1963C8.63453 22.1984 8.63453 22.2005 8.63455 22.2026L8.69706 22.4339L8.78458 22.9277C8.79711 23.003 8.82212 23.0738 8.85959 23.1403L9.30343 23.9091C9.31871 23.9331 9.33538 23.956 9.35344 23.9779L10.0723 24.9406C10.0823 24.9535 10.0927 24.966 10.1036 24.9781L11.0038 26.0221C11.0197 26.0375 11.0364 26.052 11.0538 26.0658L12.079 27.041C12.0929 27.0543 12.1075 27.0668 12.1227 27.0785L13.1854 27.9037L14.0668 28.61L14.6732 29.1852C14.7838 29.2611 14.8857 29.2507 14.9787 29.1541C15.0718 29.0574 15.0783 28.9553 14.9983 28.8476L14.3981 28.2725L13.6855 27.4161L12.9104 26.3221C12.9083 26.3179 12.9062 26.3137 12.9041 26.3096L12.0602 25.1781C12.0561 25.1718 12.052 25.1656 12.0477 25.1594L11.1913 24.0842L10.4849 23.134C10.4829 23.1298 10.4808 23.1256 10.4787 23.1215L9.9348 22.4214C9.89691 22.3735 9.85315 22.3319 9.80352 22.2963L9.4097 22.0025L9.24091 21.84C9.23489 21.8335 9.22864 21.8273 9.22216 21.8213L9.15965 21.7775C9.03367 21.6715 8.90112 21.6625 8.76198 21.7505C8.62283 21.8385 8.57411 21.9621 8.6158 22.1213Z" fill="black"/>
<path d="M13.573 28.5288L13.6668 28.6288C13.6749 28.6354 13.6832 28.6416 13.6918 28.6476L13.9294 28.8663C13.9543 28.8881 13.9814 28.9069 14.0106 28.9226L14.4607 29.1789C14.4848 29.1914 14.5098 29.2018 14.5357 29.2102L15.1483 29.4352C15.1668 29.4405 15.1856 29.4446 15.2046 29.4477L15.936 29.6227C15.9566 29.6283 15.9774 29.6324 15.9985 29.6352L16.7987 29.7165C16.8278 29.7193 16.857 29.7193 16.8862 29.7165L17.6738 29.6352C17.6843 29.6336 17.6947 29.6315 17.7051 29.629L18.3552 29.4977L18.8615 29.454C19.0154 29.4412 19.0861 29.3578 19.0736 29.2039C19.0611 29.0501 18.9779 28.9792 18.824 28.9914L18.3302 29.0289L17.6926 28.9414L16.9237 28.7976C16.9216 28.7976 16.9195 28.7976 16.9174 28.7976L16.1485 28.6663L15.4546 28.4975L14.8608 28.2975L14.3857 28.1162C14.3815 28.1161 14.3774 28.1161 14.3732 28.1162L14.0856 28.0162L13.9856 27.9662C13.8098 27.8861 13.6648 27.9239 13.5506 28.0797C13.4363 28.2355 13.4438 28.3852 13.573 28.5288Z" fill="black"/>
<path d="M16.711 29.4414L16.7548 29.4665C16.7589 29.4686 16.7631 29.4707 16.7673 29.4727L16.9048 29.554C16.9422 29.5746 16.9817 29.5892 17.0236 29.5977L17.2924 29.6602C17.3317 29.6678 17.3713 29.6698 17.4111 29.6665L17.78 29.6477C17.8894 29.6413 17.9832 29.5996 18.0613 29.5227L18.3176 29.2664L18.6676 29.1101C18.8091 29.0475 18.8486 28.9455 18.7862 28.8039C18.7237 28.6624 18.6217 28.6228 18.4801 28.6851L18.155 28.8288L17.8237 28.7788C17.7948 28.7738 17.7656 28.7717 17.7362 28.7726L17.3861 28.7913L17.1361 28.7726C17.098 28.7716 17.0605 28.7758 17.0236 28.7851L16.8923 28.8101L16.8673 28.8163C16.7021 28.8259 16.5995 28.911 16.5594 29.0715C16.5193 29.2319 16.5698 29.3553 16.711 29.4414Z" fill="black"/>
<path d="M8.20946 12.4195V12.3945C8.20812 12.3819 8.20604 12.3694 8.20321 12.357L8.19695 12.3007C8.19619 12.2839 8.19411 12.2672 8.1907 12.2507L8.1657 12.1632L8.14069 12.0757C8.13604 12.0564 8.12979 12.0376 8.12194 12.0194L8.07818 11.9319C8.07618 11.9277 8.0741 11.9235 8.07193 11.9194L8.04067 11.8631C7.99995 11.7648 7.92933 11.698 7.8288 11.663C7.72827 11.6279 7.63148 11.6362 7.53841 11.6879C7.44534 11.7396 7.38713 11.8174 7.3638 11.9213C7.34046 12.0252 7.3598 12.1204 7.42181 12.2069L7.45306 12.2632C7.45512 12.2653 7.4572 12.2674 7.45931 12.2695L7.50932 12.3445C7.51482 12.3574 7.52108 12.3699 7.52808 12.382L7.56558 12.4195L7.57809 12.4507L7.59059 12.4945C7.59544 12.5117 7.60169 12.5284 7.60934 12.5445L7.62184 12.5633C7.69831 12.705 7.81477 12.7568 7.97122 12.7185C8.12766 12.6802 8.20708 12.5805 8.20946 12.4195ZM7.52808 11.6944L7.49057 11.7131C7.32728 11.8106 7.2481 11.9543 7.25302 12.1444L7.25928 12.4758C7.25956 12.5137 7.26373 12.5512 7.27178 12.5883L7.4093 13.1696C7.4112 13.178 7.41328 13.1863 7.41556 13.1946L7.63435 13.976C7.63632 13.9823 7.63841 13.9886 7.6406 13.9948L7.92815 14.9075C7.93174 14.9222 7.9359 14.9368 7.94066 14.9512L8.31573 15.8826C8.3213 15.8975 8.32755 15.9121 8.33448 15.9264L8.75956 16.7766L9.12213 17.5017C9.12913 17.519 9.13746 17.5357 9.14713 17.5517L9.49095 18.0331L9.67849 18.3894C9.74936 18.5268 9.85353 18.5601 9.99101 18.4893C10.1285 18.4185 10.1618 18.3143 10.0911 18.1768L9.90978 17.8268L9.7785 17.2642C9.77484 17.2535 9.77067 17.2431 9.766 17.2329L9.5097 16.4828L9.28466 15.5763C9.28471 15.5722 9.28471 15.568 9.28466 15.5638L9.02211 14.5887C9.02008 14.5845 9.01799 14.5803 9.01586 14.5762L8.74081 13.6572C8.74082 13.6551 8.74082 13.6531 8.74081 13.651L8.50326 12.8758L8.34073 12.307C8.33392 12.2835 8.32559 12.2606 8.31573 12.2382L8.1782 11.9319C8.10856 11.7803 7.99187 11.6887 7.82813 11.6568L7.78438 11.6506C7.69355 11.6336 7.60812 11.6482 7.52808 11.6944Z" fill="black"/>
<path d="M7.9843 14.3886L7.97805 14.4073L7.90929 14.5761C7.87986 14.6506 7.86945 14.7277 7.87803 14.8074L7.93429 15.3638C7.93885 15.413 7.94927 15.4609 7.96555 15.5075L8.29061 16.3952C8.29449 16.4057 8.29866 16.4161 8.30311 16.4265L8.84071 17.6829C8.84667 17.6935 8.85292 17.704 8.85947 17.7142L9.56585 19.1395C9.5753 19.1588 9.58572 19.1775 9.59711 19.1957L10.4973 20.6022C10.5032 20.6129 10.5094 20.6233 10.516 20.6335L11.4787 21.915C11.4846 21.9236 11.4909 21.9319 11.4975 21.94L12.4351 22.984L13.0915 23.8341C13.179 23.9466 13.2791 23.9591 13.3916 23.8716C13.5041 23.7841 13.5166 23.6841 13.4291 23.5716L12.779 22.7277L12.1288 21.5087L11.4162 20.0834L10.6911 18.5831L10.0034 17.1641L9.44083 15.9389L9.09701 15.0762C9.08624 15.0503 9.07374 15.0253 9.05951 15.0012L8.7782 14.5136C8.75317 14.4691 8.72191 14.4295 8.68443 14.3948L8.53441 14.2635C8.54901 14.2841 8.56568 14.3029 8.58442 14.3198L8.55941 14.2885C8.48003 14.1792 8.37379 14.1361 8.24068 14.1593C8.10757 14.1824 8.02211 14.2589 7.9843 14.3886Z" fill="black"/>
<path d="M11.8414 22.1025L11.9289 22.2776C11.9342 22.2925 11.9405 22.3071 11.9476 22.3213L12.2102 22.7214C12.2161 22.73 12.2224 22.7383 12.2289 22.7464L12.679 23.3465L13.2791 24.1217C13.2812 24.1238 13.2833 24.1259 13.2854 24.1279L13.9918 25.0093C13.9978 25.0158 14.0041 25.022 14.0105 25.0281L14.8107 25.9033C14.8224 25.9165 14.8349 25.929 14.8482 25.9408L15.7108 26.6972C15.7208 26.7061 15.7312 26.7144 15.7421 26.7222L16.5548 27.2785L17.1361 27.7599C17.2535 27.8325 17.3561 27.8156 17.4441 27.7093C17.5321 27.603 17.5295 27.499 17.4362 27.3973L16.8673 26.9222L16.2359 26.1783C16.2359 26.1762 16.2359 26.1741 16.2359 26.1721L15.4796 25.3094L14.6919 24.4217L13.9668 23.5716L13.3604 22.8152L12.9041 22.2276C12.898 22.2211 12.8918 22.2149 12.8853 22.2088L12.5727 21.8525C12.5611 21.8391 12.5486 21.8266 12.5352 21.815L12.3915 21.69C12.2487 21.5602 12.1002 21.5531 11.9459 21.6689C11.7916 21.7846 11.7567 21.9292 11.8414 22.1025Z" fill="black"/>
<path d="M15.6922 26.4596L15.7172 26.4909L15.8047 26.6409C15.8205 26.6681 15.8393 26.6931 15.8609 26.7159L16.1172 26.9847C16.1271 26.9957 16.1376 27.0061 16.1485 27.016L16.5548 27.366L17.0549 27.7849C17.0669 27.796 17.0794 27.8064 17.0924 27.8161L17.6675 28.2037L18.1989 28.56C18.2166 28.5722 18.2354 28.5826 18.2552 28.5913L18.7052 28.7851L18.999 28.9726C19.1246 29.0406 19.2261 29.0146 19.3036 28.8946C19.381 28.7746 19.3628 28.6714 19.2491 28.585L18.9615 28.3975L18.6365 28.0474C18.6284 28.0408 18.6201 28.0345 18.6115 28.0287L18.1426 27.6098L17.655 27.1285C17.649 27.1221 17.6427 27.1158 17.6363 27.1097L17.1424 26.6847C17.1384 26.6804 17.1342 26.6762 17.1299 26.6722L16.7174 26.3346C16.7092 26.328 16.7009 26.3218 16.6924 26.3158L16.3923 26.1033C16.3726 26.0889 16.3518 26.0764 16.3298 26.0658L16.186 25.997L16.1673 25.9845C16.0119 25.8847 15.8689 25.9001 15.7383 26.0307C15.6078 26.1613 15.5924 26.3042 15.6922 26.4596Z" fill="black"/>
<path d="M17.3486 27.6286C17.3486 27.7236 17.3822 27.8046 17.4493 27.8717C17.5164 27.9389 17.5975 27.9724 17.6924 27.9724C17.7874 27.9724 17.8684 27.9389 17.9355 27.8717C18.0027 27.8046 18.0362 27.7236 18.0362 27.6286C18.0362 27.5337 18.0027 27.4526 17.9355 27.3855C17.8684 27.3184 17.7874 27.2848 17.6924 27.2848C17.5975 27.2848 17.5164 27.3184 17.4493 27.3855C17.3822 27.4526 17.3486 27.5337 17.3486 27.6286ZM17.3423 27.7599L17.3673 27.8349C17.3869 27.8993 17.4203 27.9556 17.4674 28.0037L17.5861 28.1225C17.6017 28.1384 17.6183 28.153 17.6362 28.1662L17.8487 28.3225C17.8568 28.3291 17.8651 28.3353 17.8737 28.3413L18.155 28.5225C18.1711 28.532 18.1878 28.5404 18.205 28.5476L18.5238 28.6976C18.5259 28.6976 18.528 28.6976 18.5301 28.6976L18.8176 28.8289L19.0364 28.9289C19.0526 28.9363 19.0693 28.9426 19.0864 28.9476L19.2365 28.9976C19.4334 29.0711 19.577 29.0128 19.6672 28.8229C19.7573 28.633 19.7117 28.485 19.5303 28.3788L19.399 28.2913C19.385 28.2819 19.3704 28.2736 19.3552 28.2663L19.1427 28.1662L18.8926 28.0225L18.6176 27.8287L18.3425 27.6411L18.155 27.5036L18.0362 27.3973C18.0024 27.3683 17.9649 27.3454 17.9237 27.3286L17.8487 27.2973C17.6997 27.2319 17.5651 27.2541 17.445 27.3639C17.3249 27.4736 17.2907 27.6056 17.3423 27.7599ZM19.5553 28.5225L19.549 28.5163C19.4365 28.4038 19.324 28.4038 19.2115 28.5163C19.0989 28.6288 19.0989 28.7413 19.2115 28.8539L19.2177 28.8601C19.3302 28.9725 19.4427 28.9724 19.5551 28.86C19.6676 28.7476 19.6676 28.6351 19.5553 28.5225Z" fill="black"/>
<path d="M3.43338 27.0284L3.42088 27.0347C3.43599 27.0273 3.45058 27.0189 3.46464 27.0097L3.43964 27.0222C3.51506 27.0249 3.5859 27.0083 3.65218 26.9722H3.62717C3.49582 26.9653 3.38359 27.0083 3.29049 27.1012C3.19739 27.1941 3.15414 27.3063 3.16073 27.4376C3.16732 27.569 3.22159 27.6763 3.32353 27.7594C3.42547 27.8425 3.54144 27.8741 3.67144 27.8541C3.80145 27.8341 3.90258 27.7691 3.97485 27.6592C4.04712 27.5493 4.06667 27.4308 4.0335 27.3035L4.02725 27.2785C3.97754 27.3744 3.96712 27.4744 3.99599 27.5785L4.00849 27.5535C4.04295 27.4913 4.05962 27.4246 4.0585 27.3535V27.341C4.05601 27.1816 3.98346 27.0662 3.84085 26.9949C3.69824 26.9236 3.56242 26.9348 3.43338 27.0284ZM3.10207 27.4347C3.10207 27.5694 3.14968 27.6843 3.24488 27.7795C3.34009 27.8747 3.45502 27.9223 3.58966 27.9223C3.72431 27.9223 3.83924 27.8747 3.93444 27.7795C4.02965 27.6843 4.07726 27.5694 4.07726 27.4347C4.07726 27.3001 4.02965 27.1852 3.93444 27.09C3.83924 26.9948 3.72431 26.9472 3.58966 26.9472C3.45502 26.9472 3.34009 26.9948 3.24488 27.09C3.14968 27.1852 3.10207 27.3001 3.10207 27.4347ZM3.0083 27.441C3.0083 27.5981 3.06384 27.7322 3.17492 27.8432C3.28599 27.9543 3.42008 28.0099 3.57716 28.0099C3.73425 28.0099 3.86833 27.9543 3.97941 27.8432C4.09048 27.7322 4.14602 27.5981 4.14602 27.441C4.14602 27.2839 4.09048 27.1498 3.97941 27.0388C3.86833 26.9277 3.73425 26.8721 3.57716 26.8721C3.42008 26.8721 3.28599 26.9277 3.17492 27.0388C3.06384 27.1498 3.0083 27.2839 3.0083 27.441ZM3.94598 27.9786L4.11476 27.8786C4.14993 27.8607 4.18327 27.8398 4.21478 27.8161L4.50234 27.5785L4.95242 27.2097C4.95874 27.2056 4.96499 27.2015 4.97118 27.1972L5.54004 26.6909C5.54636 26.6868 5.55261 26.6826 5.55879 26.6784L6.20891 26.0657C6.21318 26.0596 6.21735 26.0533 6.22141 26.047L6.89654 25.3719C6.90292 25.3657 6.90917 25.3595 6.9153 25.3531L7.55292 24.6592C7.55714 24.6551 7.56131 24.6509 7.56542 24.6467L8.09052 24.0341C8.10128 24.024 8.1117 24.0136 8.12178 24.0028L8.5031 23.4965C8.51658 23.4784 8.52908 23.4596 8.54061 23.4402L8.7719 23.0652C8.77626 23.0569 8.78042 23.0486 8.7844 23.0402L8.92193 22.7839C8.94288 22.7461 8.95954 22.7065 8.97194 22.6651L9.0157 22.5151C9.05432 22.3694 9.03913 22.2295 8.97012 22.0955C8.90112 21.9615 8.7961 21.8679 8.65506 21.8147C8.51402 21.7615 8.37334 21.7624 8.23303 21.8175C8.09271 21.8726 7.98895 21.9676 7.92174 22.1025L7.87173 22.2025L7.75921 22.3713L7.49666 22.6713C7.49456 22.6734 7.49248 22.6755 7.49041 22.6776L7.07783 23.1527L6.55273 23.7465L5.92761 24.4154L5.26498 25.0718L4.62736 25.6782L4.07726 26.172L3.64593 26.5346L3.35837 26.7596C3.33869 26.7752 3.31993 26.7919 3.30211 26.8096L3.16458 26.9472C3.04182 27.0607 2.97308 27.2007 2.95837 27.3673C2.94366 27.5339 2.98679 27.6838 3.08777 27.8171C3.18874 27.9503 3.32139 28.0324 3.48571 28.0634C3.65004 28.0943 3.80346 28.0661 3.94598 27.9786ZM7.98425 22.265C7.98425 22.391 8.0288 22.4986 8.11791 22.5877C8.20701 22.6768 8.31457 22.7214 8.44059 22.7214C8.5666 22.7214 8.67416 22.6768 8.76327 22.5877C8.85237 22.4986 8.89692 22.391 8.89692 22.265C8.89692 22.139 8.85237 22.0314 8.76327 21.9423C8.67416 21.8532 8.5666 21.8087 8.44059 21.8087C8.31457 21.8087 8.20701 21.8532 8.11791 21.9423C8.0288 22.0314 7.98425 22.139 7.98425 22.265ZM8.39058 21.9775H8.33432C8.16345 21.9775 8.07802 22.0629 8.07802 22.2338C8.07802 22.4046 8.16345 22.4901 8.33432 22.4901H8.39058C8.56144 22.4901 8.64688 22.4046 8.64688 22.2338C8.64688 22.0629 8.56144 21.9775 8.39058 21.9775Z" fill="black"/>
<path d="M4.60231 29.2789C4.60231 29.3842 4.63954 29.474 4.71399 29.5485C4.78845 29.623 4.87833 29.6602 4.98363 29.6602C5.08893 29.6602 5.17881 29.623 5.25326 29.5485C5.32772 29.474 5.36495 29.3842 5.36495 29.2789C5.36495 29.1736 5.32772 29.0837 5.25326 29.0092C5.17881 28.9348 5.08893 28.8975 4.98363 28.8975C4.87833 28.8975 4.78845 28.9348 4.71399 29.0092C4.63954 29.0837 4.60231 29.1736 4.60231 29.2789ZM4.45228 29.2789C4.45228 29.4204 4.50232 29.5412 4.60241 29.6413C4.70251 29.7414 4.82333 29.7915 4.96488 29.7915C5.10643 29.7915 5.22725 29.7414 5.32734 29.6413C5.42743 29.5412 5.47747 29.4204 5.47747 29.2789C5.47747 29.1373 5.42743 29.0165 5.32734 28.9164C5.22725 28.8163 5.10643 28.7663 4.96488 28.7663C4.82333 28.7663 4.70251 28.8163 4.60241 28.9164C4.50232 29.0165 4.45228 29.1373 4.45228 29.2789ZM5.00238 29.9165L5.04614 29.9102C5.17465 29.9016 5.29133 29.86 5.39621 29.7852L5.52748 29.6914C5.54025 29.6835 5.55276 29.6752 5.56499 29.6664L5.84004 29.4414C5.84641 29.4353 5.85266 29.429 5.8588 29.4226L6.27763 29.0538L6.84023 28.5662L7.50911 27.9974C7.50912 27.9953 7.50912 27.9932 7.50911 27.9911L8.23425 27.3723L8.97189 26.7596C8.97398 26.7576 8.97607 26.7555 8.97814 26.7534L9.62826 26.2033C9.63674 26.1972 9.64507 26.191 9.65327 26.1845L10.1471 25.7219C10.1769 25.6953 10.204 25.6661 10.2284 25.6344L10.4972 25.2719C10.6112 25.1208 10.6362 24.9561 10.5722 24.778L10.5409 24.703C10.4451 24.7794 10.418 24.8753 10.4597 24.9906L10.5659 24.9093C10.6694 24.8024 10.6753 24.6904 10.5838 24.5732C10.4922 24.456 10.3821 24.4347 10.2534 24.5092L10.1471 24.5905C10.2508 24.6645 10.3529 24.6624 10.4534 24.5842L10.3909 24.5405C10.2318 24.4231 10.0609 24.4023 9.87831 24.478L9.45948 24.653C9.41771 24.6697 9.37812 24.6905 9.34071 24.7155L8.78435 25.0968C8.77369 25.1049 8.76327 25.1132 8.7531 25.1218L8.07797 25.6407C8.0716 25.6468 8.06535 25.6531 8.05921 25.6594L7.31532 26.2658L6.57143 26.8784C6.56935 26.8784 6.56726 26.8784 6.56518 26.8784L5.89005 27.4473C5.88583 27.4514 5.88167 27.4556 5.87755 27.4598L5.31494 27.9536C5.31075 27.9557 5.30659 27.9577 5.30244 27.9599L4.88986 28.3412C4.87238 28.357 4.85571 28.3737 4.83985 28.3912L4.60231 28.6475C4.59145 28.6596 4.58103 28.6721 4.57105 28.685L4.47103 28.81C4.38327 28.9221 4.33535 29.0492 4.32725 29.1914L4.321 29.2351C4.30941 29.4279 4.37188 29.5925 4.50843 29.7291C4.64497 29.8656 4.80963 29.9281 5.00238 29.9165Z" fill="black"/>
<path d="M10.3159 20.2896C10.3159 20.3914 10.3519 20.4784 10.424 20.5504C10.496 20.6224 10.5829 20.6584 10.6847 20.6584C10.7866 20.6584 10.8735 20.6224 10.9455 20.5504C11.0176 20.4784 11.0536 20.3914 11.0536 20.2896C11.0536 20.1877 11.0176 20.1008 10.9455 20.0288C10.8735 19.9568 10.7866 19.9208 10.6847 19.9208C10.5829 19.9208 10.496 19.9568 10.424 20.0288C10.3519 20.1008 10.3159 20.1877 10.3159 20.2896ZM10.9911 20.0645L10.9848 20.0583C10.9972 20.099 11.0159 20.1365 11.0411 20.1708L11.0348 20.152C11.0068 20.2305 11.0047 20.3097 11.0286 20.3896L11.0348 20.3708L11.0661 20.3146L11.1598 20.1833L11.3536 19.952L11.7037 19.5769C11.7124 19.5689 11.7207 19.5606 11.7287 19.5519L12.1975 18.9581C12.1996 18.956 12.2017 18.9539 12.2038 18.9518L12.8039 18.1579C12.8039 18.1558 12.8039 18.1538 12.8039 18.1517L13.4978 17.214L14.2604 16.2013L15.0481 15.1511L15.867 14.1134L16.6921 13.132L17.4735 12.2255C17.4735 12.2235 17.4735 12.2214 17.4735 12.2193L18.1549 11.4316L18.7238 10.8003L19.1551 10.3377L19.4552 10.0126C19.4573 10.0106 19.4594 10.0085 19.4614 10.0064L19.6427 9.80008C19.647 9.79602 19.6511 9.79185 19.6552 9.78758L19.7552 9.66255C19.7695 9.64501 19.7821 9.62626 19.7927 9.60629L19.8302 9.52503C19.8441 9.49924 19.8545 9.47215 19.8615 9.44376L19.874 9.4C19.8894 9.34166 19.8894 9.28331 19.874 9.22497L19.8615 9.19996C19.8302 9.08649 19.7594 9.00939 19.649 8.96867L19.6302 8.96242C19.5755 8.94183 19.5193 8.93558 19.4614 8.94367L19.4177 8.94992C19.4114 8.95182 19.4051 8.95391 19.3989 8.95617H19.3739C19.4348 9.11343 19.5495 9.18636 19.7177 9.17496L19.7115 9.15621C19.5633 9.25887 19.5216 9.39431 19.5864 9.56253L19.5989 9.55628L19.6052 9.55003L19.624 9.53753C19.6508 9.52613 19.6758 9.51154 19.699 9.49377L19.7365 9.46251C19.7407 9.45845 19.7449 9.45429 19.749 9.45001L19.8615 9.34999C19.8636 9.34794 19.8657 9.34585 19.8677 9.34374L19.9178 9.29373L19.949 9.26873L19.9865 9.24997C20.0259 9.22514 20.0592 9.19388 20.0865 9.15621L20.1115 9.12495C20.0976 9.14052 20.0851 9.15719 20.074 9.17496L20.0865 9.16246C20.2029 9.05384 20.2341 8.92465 20.1803 8.77488V8.76238C20.155 8.69019 20.1113 8.63184 20.049 8.58735L20.0365 8.5811C20.0132 8.5636 19.9882 8.54901 19.9615 8.53734L19.9428 8.53109L19.9303 8.52484C19.8024 8.47012 19.6804 8.48106 19.5643 8.55765C19.4482 8.63424 19.3902 8.74208 19.3902 8.88115C19.3902 9.02023 19.4482 9.12807 19.5643 9.20466C19.6804 9.28125 19.8024 9.29219 19.9303 9.23747L19.9428 9.23122L19.9615 9.22497C19.9882 9.2133 20.0132 9.19871 20.0365 9.18121L20.049 9.17496C19.9922 9.08971 19.9134 9.03787 19.8126 9.01944C19.7118 9.001 19.6198 9.02159 19.5364 9.08119L19.5427 9.09369C19.6681 8.95384 19.6785 8.8059 19.5739 8.64986L19.5614 8.66236C19.5593 8.66649 19.5572 8.67066 19.5552 8.67486L19.5302 8.70612C19.5281 8.70818 19.526 8.71026 19.5239 8.71237L19.4927 8.75613L19.4489 8.79989L19.3989 8.8499L19.2926 8.93741L19.2864 8.94367V8.94992C19.2801 8.95182 19.2738 8.9539 19.2676 8.95617L19.2364 8.97492C19.2343 8.97698 19.2322 8.97906 19.2301 8.98117L19.2114 8.99368C19.067 9.08367 19.017 9.21078 19.0613 9.375L19.0676 9.39375C19.1111 9.54886 19.2132 9.63221 19.3739 9.6438H19.3927C19.4135 9.6457 19.4343 9.6457 19.4552 9.6438L19.4989 9.63755C19.5031 9.63762 19.5073 9.63762 19.5114 9.63755L19.5552 9.6313C19.5082 9.61684 19.4602 9.61267 19.4114 9.61879L19.4302 9.62505C19.4014 9.49289 19.3222 9.40746 19.1926 9.36875L19.1989 9.39375C19.2187 9.33183 19.2208 9.26932 19.2051 9.20622V9.21872L19.1864 9.24997L19.1114 9.34374L18.9363 9.53753L18.6425 9.85009L18.2049 10.3127C18.2028 10.3127 18.2008 10.3127 18.1987 10.3127L17.6111 10.9378L16.8984 11.7067C16.8963 11.7067 16.8943 11.7067 16.8922 11.7067L16.0858 12.6006C16.0837 12.6027 16.0816 12.6048 16.0795 12.6069L15.2356 13.5883C15.2335 13.5924 15.2314 13.5966 15.2294 13.6008L14.3917 14.6322C14.3896 14.6364 14.3875 14.6405 14.3855 14.6448L13.5853 15.6887L12.8164 16.6951L12.0975 17.6141L11.4849 18.4017C11.4828 18.4038 11.4807 18.4059 11.4787 18.408L11.0223 19.0081C11.0179 19.0163 11.0137 19.0246 11.0098 19.0331L10.7223 19.4644L10.5347 19.7395L10.4285 19.8958C10.4241 19.9019 10.4199 19.9081 10.4159 19.9145L10.3659 20.0083C10.3498 20.0359 10.3373 20.065 10.3284 20.0958L10.3097 20.152C10.2843 20.234 10.2864 20.3153 10.3159 20.3958L10.3284 20.4146C10.3555 20.4839 10.3992 20.5401 10.4597 20.5834L10.466 20.5896C10.6394 20.7198 10.8029 20.7081 10.9562 20.5548C11.1096 20.4014 11.1212 20.238 10.9911 20.0645ZM19.8427 9.28123L19.9678 9.26248C20.0253 9.25343 20.0795 9.23468 20.1303 9.20622L20.3928 9.06869C20.408 9.05903 20.4226 9.04861 20.4366 9.03743L20.8867 8.73113L21.5868 8.24978L22.512 7.62466L23.631 6.89953L24.8499 6.09937L26.1189 5.28672L27.3879 4.46781C27.3921 4.4658 27.3963 4.46372 27.4004 4.46156L28.5757 3.64891L29.6634 2.94877L30.626 2.38617L31.4012 1.94858L31.9701 1.62352L32.3389 1.41723L32.5389 1.32347C32.6535 1.2465 32.682 1.14526 32.6247 1.01975C32.5673 0.894239 32.472 0.849617 32.3389 0.885882L32.1263 0.985901L31.7388 1.16719C31.7346 1.16709 31.7304 1.16709 31.7263 1.16719L31.1449 1.47349C31.1428 1.47349 31.1407 1.47349 31.1386 1.47349L30.3572 1.91108C30.3552 1.91108 30.3531 1.91108 30.351 1.91108L29.3821 2.46743L28.2381 3.0988L26.9753 3.77393C26.9732 3.77599 26.9712 3.77808 26.9691 3.78018L25.6626 4.52407C25.6605 4.52614 25.6584 4.52822 25.6563 4.53033L24.3561 5.29922C24.354 5.30129 24.3519 5.30337 24.3498 5.30547L23.1059 6.06812C23.1059 6.0702 23.1059 6.07229 23.1059 6.07437L21.9681 6.78075L21.018 7.38712C21.0159 7.38919 21.0138 7.39127 21.0117 7.39337L20.2991 7.86221C20.2927 7.86624 20.2865 7.87041 20.2803 7.87471L19.8365 8.19352C19.8257 8.20146 19.8153 8.20979 19.8052 8.21853L19.5802 8.41231C19.5405 8.44653 19.5071 8.48612 19.4802 8.53109L19.4177 8.63736C19.3288 8.79125 19.3334 8.94234 19.4313 9.09063C19.5292 9.23892 19.6663 9.30245 19.8427 9.28123Z" fill="black"/>
<path d="M13.5852 23.4902C13.5852 23.5972 13.6231 23.6886 13.6987 23.7643C13.7744 23.84 13.8658 23.8778 13.9728 23.8778C14.0798 23.8778 14.1712 23.84 14.2469 23.7643C14.3225 23.6886 14.3604 23.5972 14.3604 23.4902C14.3604 23.3832 14.3225 23.2918 14.2469 23.2162C14.1712 23.1405 14.0798 23.1026 13.9728 23.1026C13.8658 23.1026 13.7744 23.1405 13.6987 23.2162C13.6231 23.2918 13.5852 23.3832 13.5852 23.4902ZM13.5665 23.4777C13.5665 23.5934 13.6074 23.6921 13.6891 23.7739C13.7709 23.8557 13.8696 23.8965 13.9853 23.8965C14.101 23.8965 14.1997 23.8557 14.2815 23.7739C14.3632 23.6921 14.4041 23.5934 14.4041 23.4777C14.4041 23.3621 14.3632 23.2633 14.2815 23.1816C14.1997 23.0998 14.101 23.0589 13.9853 23.0589C13.8696 23.0589 13.7709 23.0998 13.6891 23.1816C13.6074 23.2633 13.5665 23.3621 13.5665 23.4777ZM14.1603 23.8903L14.2166 23.8715C14.247 23.8619 14.2762 23.8494 14.3041 23.834L14.6542 23.6402C14.6737 23.6289 14.6924 23.6164 14.7104 23.6027L15.123 23.3089C15.1294 23.3028 15.1357 23.2966 15.1418 23.2902L15.7044 22.8338C15.7107 22.8319 15.7169 22.8298 15.7231 22.8276L16.492 22.165C16.4963 22.1609 16.5004 22.1567 16.5045 22.1525L17.511 21.2585C17.5152 21.2565 17.5193 21.2544 17.5235 21.2523L18.6549 20.2083L19.9114 19.0456C19.9135 19.0456 19.9156 19.0456 19.9177 19.0456L21.1617 17.8766C21.1638 17.8767 21.1658 17.8767 21.1679 17.8766L22.3431 16.7639C22.3431 16.7619 22.3431 16.7598 22.3431 16.7577L23.3871 15.7575L24.2748 14.9198L24.9874 14.251L25.5438 13.7446L25.9376 13.3883C25.9418 13.3842 25.946 13.38 25.9501 13.3758L26.1876 13.1445C26.203 13.1307 26.2176 13.1161 26.2314 13.1007L26.3377 12.9757C26.3734 12.934 26.4026 12.8882 26.4252 12.8382L26.4377 12.8007C26.5411 12.5445 26.4868 12.3279 26.2747 12.1509C26.0626 11.9739 25.8398 11.9592 25.6063 12.1068L25.5688 12.1318C25.5469 12.145 25.5261 12.1596 25.5062 12.1756L25.4812 12.1943L25.4562 12.2131L25.4187 12.2381C25.2989 12.3261 25.225 12.4431 25.1969 12.5891C25.1688 12.7352 25.1941 12.8713 25.2728 12.9974C25.3515 13.1236 25.4625 13.2063 25.606 13.2453C25.7494 13.2844 25.887 13.2696 26.0188 13.2008L26.0689 13.1695C26.0795 13.1636 26.0899 13.1573 26.1001 13.1507L26.1626 13.107C26.1757 13.0951 26.1882 13.0826 26.2001 13.0695L26.2251 13.0507L26.2314 13.0445C26.336 12.9482 26.396 12.8294 26.4115 12.6881C26.427 12.5468 26.3942 12.4178 26.3129 12.3011C26.2317 12.1844 26.1222 12.1088 25.9843 12.0742C25.8464 12.0397 25.7141 12.0547 25.5875 12.1193L25.5563 12.1381C25.5455 12.146 25.5351 12.1544 25.525 12.1631L25.4 12.2693C25.3892 12.2794 25.3787 12.2898 25.3687 12.3006L25.1374 12.5256L24.7561 12.8882L24.1997 13.3945C24.1997 13.3966 24.1997 13.3987 24.1997 13.4008L23.4809 14.0634L22.5807 14.8886C22.5786 14.8906 22.5765 14.8927 22.5744 14.8948L21.5242 15.8888L20.3365 16.989L19.0863 18.1454L17.8235 19.2957L16.6858 20.3209L15.6731 21.2085C15.671 21.2106 15.6689 21.2127 15.6669 21.2148L14.9042 21.8899C14.9021 21.8899 14.9001 21.8899 14.898 21.8899L14.3666 22.3775C14.3624 22.3816 14.3582 22.3858 14.3541 22.39L13.9853 22.7401C13.9722 22.752 13.9597 22.7645 13.9478 22.7776L13.6915 23.0839C13.664 23.1164 13.6411 23.1518 13.6227 23.1902L13.5915 23.2464C13.5053 23.4319 13.5299 23.6012 13.6653 23.7544C13.8007 23.9077 13.9657 23.953 14.1603 23.8903ZM25.3125 12.7382C25.3125 12.84 25.3485 12.9269 25.4205 12.999C25.4925 13.071 25.5794 13.107 25.6813 13.107C25.7831 13.107 25.8701 13.071 25.9421 12.999C26.0141 12.9269 26.0501 12.84 26.0501 12.7382C26.0501 12.6363 26.0141 12.5494 25.9421 12.4774C25.8701 12.4054 25.7831 12.3693 25.6813 12.3693C25.5794 12.3693 25.4925 12.4054 25.4205 12.4774C25.3485 12.5494 25.3125 12.6363 25.3125 12.7382ZM25.5813 12.5319L25.5625 12.5381C25.4166 12.5881 25.3687 12.6861 25.4187 12.8319C25.4687 12.9778 25.5667 13.0257 25.7125 12.9757L25.7313 12.9695C25.8772 12.9195 25.9251 12.8215 25.8751 12.6757C25.8251 12.5298 25.7271 12.4819 25.5813 12.5319Z" fill="black"/>
<path d="M25.3187 13.0695C25.3187 13.2737 25.4208 13.3758 25.625 13.3758C25.8292 13.3758 25.9313 13.2737 25.9313 13.0695C25.9313 12.8653 25.8292 12.7632 25.625 12.7632C25.4208 12.7632 25.3187 12.8653 25.3187 13.0695ZM25.4812 12.7757L25.4624 12.7882L25.4374 12.8007C25.3281 12.8394 25.2567 12.9143 25.2232 13.0253C25.1897 13.1363 25.2077 13.2382 25.2773 13.331C25.3469 13.4238 25.4396 13.4696 25.5556 13.4685C25.6716 13.4674 25.7634 13.4198 25.8313 13.3258L25.85 13.307L25.8688 13.2883C25.9985 13.1549 26.0072 13.014 25.895 12.8656C25.7828 12.7172 25.6449 12.6872 25.4812 12.7757ZM25.1749 13.1257C25.1749 13.2293 25.2115 13.3177 25.2847 13.3909C25.358 13.4642 25.4464 13.5008 25.5499 13.5008C25.6535 13.5008 25.7419 13.4642 25.8152 13.3909C25.8884 13.3177 25.925 13.2293 25.925 13.1257C25.925 13.0222 25.8884 12.9338 25.8152 12.8605C25.7419 12.7873 25.6535 12.7507 25.5499 12.7507C25.4464 12.7507 25.358 12.7873 25.2847 12.8605C25.2115 12.9338 25.1749 13.0222 25.1749 13.1257ZM25.875 13.3695L25.9688 13.2633C25.9776 13.2532 25.9859 13.2428 25.9938 13.232L26.1813 12.982C26.1856 12.9779 26.1897 12.9737 26.1938 12.9695L26.5126 12.5131C26.5147 12.5111 26.5168 12.509 26.5189 12.5069L26.9877 11.8255C26.9898 11.8234 26.9919 11.8213 26.994 11.8192L27.5941 10.9191C27.6006 10.9109 27.6068 10.9026 27.6128 10.8941L28.2755 9.8001C28.2776 9.79803 28.2796 9.79595 28.2817 9.79385L28.9693 8.59987C28.9693 8.59779 28.9693 8.59571 28.9693 8.59362L29.6695 7.36214C29.6737 7.35803 29.6779 7.35387 29.682 7.34963L30.3259 6.1369L30.9447 4.99294L31.5073 3.96149L32.3512 2.37994L32.6325 1.87359L32.8138 1.54853C32.8257 1.52843 32.8361 1.50759 32.8451 1.48602L32.9076 1.31098C32.99 1.07679 32.9256 0.894447 32.7144 0.763952C32.5032 0.633457 32.3113 0.657438 32.1387 0.835895L32.0137 0.973421C31.9922 0.998622 31.9734 1.02571 31.9574 1.05469L31.7636 1.3735C31.7614 1.37971 31.7593 1.38596 31.7574 1.39225L31.4761 1.90485L30.6259 3.48015L30.0508 4.49284L29.3882 5.60555C29.3861 5.60555 29.384 5.60555 29.3819 5.60555L28.6818 6.78703L27.9629 8.00601L27.2503 9.18748L26.5876 10.2752C26.5876 10.2794 26.5876 10.2835 26.5876 10.2877L26.0375 11.2191C26.0375 11.2212 26.0375 11.2233 26.0375 11.2254L25.625 11.938C25.6184 11.9482 25.6121 11.9586 25.6062 11.9693L25.3562 12.4694C25.354 12.4756 25.3519 12.4818 25.3499 12.4881L25.2186 12.7819C25.2081 12.8062 25.1998 12.8312 25.1936 12.8569L25.1561 12.9945C25.09 13.2127 25.158 13.3745 25.3601 13.48C25.5623 13.5854 25.7339 13.5486 25.875 13.3695ZM32.1387 1.29848L32.1575 1.32974C32.191 1.22824 32.1827 1.1303 32.1325 1.03593L32.1012 1.1422C32.099 1.14633 32.0969 1.1505 32.0949 1.15471L32.0637 1.27348C32.043 1.34016 32.043 1.40684 32.0637 1.47352L32.0824 1.51727V1.51102L32.0699 1.53603C32.0123 1.64528 32.0358 1.73281 32.1403 1.79862C32.2448 1.86443 32.3339 1.84774 32.4075 1.74857L32.4325 1.71731L32.445 1.70481L32.495 1.69231C32.5616 1.66964 32.6157 1.63005 32.6576 1.57353L32.7326 1.47977C32.7443 1.46395 32.7548 1.44728 32.7638 1.42976L32.8138 1.33599C32.7312 1.36992 32.6687 1.42619 32.6263 1.50477L32.6576 1.49227C32.7659 1.44919 32.8423 1.37374 32.8867 1.26592C32.931 1.15809 32.9299 1.05075 32.8833 0.943879C32.8367 0.837008 32.7587 0.763174 32.6495 0.722375C32.5403 0.681579 32.433 0.686247 32.3277 0.736384C32.2225 0.78652 32.1512 0.866846 32.1141 0.977364C32.0769 1.08788 32.0851 1.19492 32.1387 1.29848Z" fill="black"/>
<path d="M19.4363 9.19998V9.20623C19.347 9.35485 19.3685 9.48528 19.5006 9.5975C19.6328 9.70973 19.765 9.70973 19.8972 9.5975C20.0293 9.48528 20.0508 9.35485 19.9614 9.20623V9.19998C19.9019 9.10096 19.8144 9.05145 19.6989 9.05145C19.5834 9.05145 19.4959 9.10096 19.4363 9.19998ZM19.3426 9.37502C19.3426 9.46996 19.3761 9.551 19.4433 9.61813C19.5104 9.68526 19.5915 9.71883 19.6864 9.71883C19.7813 9.71883 19.8624 9.68526 19.9295 9.61813C19.9966 9.551 20.0302 9.46996 20.0302 9.37502C20.0302 9.28007 19.9966 9.19904 19.9295 9.1319C19.8624 9.06477 19.7813 9.0312 19.6864 9.0312C19.5915 9.0312 19.5104 9.06477 19.4433 9.1319C19.3761 9.19904 19.3426 9.28007 19.3426 9.37502ZM19.2426 9.39377C19.2426 9.50943 19.2835 9.60815 19.3652 9.68993C19.447 9.77171 19.5457 9.8126 19.6614 9.8126C19.777 9.8126 19.8758 9.77171 19.9575 9.68993C20.0393 9.60815 20.0802 9.50943 20.0802 9.39377C20.0802 9.27811 20.0393 9.1794 19.9575 9.09761C19.8758 9.01583 19.777 8.97494 19.6614 8.97494C19.5457 8.97494 19.447 9.01583 19.3652 9.09761C19.2835 9.1794 19.2426 9.27811 19.2426 9.39377ZM19.155 9.41877C19.155 9.55169 19.202 9.66515 19.296 9.75914C19.39 9.85312 19.5035 9.90012 19.6364 9.90012C19.7693 9.90012 19.8828 9.85312 19.9767 9.75914C20.0707 9.66515 20.1177 9.55169 20.1177 9.41877C20.1177 9.28586 20.0707 9.1724 19.9767 9.07842C19.8828 8.98443 19.7693 8.93743 19.6364 8.93743C19.5035 8.93743 19.39 8.98443 19.296 9.07842C19.202 9.1724 19.155 9.28586 19.155 9.41877ZM19.5551 9.96888L19.6301 9.98138C19.7589 10.0007 19.8818 9.98189 19.999 9.92512L20.2553 9.8001C20.2723 9.79245 20.2889 9.78411 20.3053 9.77509L20.7241 9.51879C20.7325 9.51479 20.7408 9.51062 20.7491 9.50629L21.3555 9.11872C21.3576 9.11665 21.3596 9.11456 21.3617 9.11247L22.1306 8.60612L23.0245 8.03101L24.0372 7.41839L25.1562 6.77452L26.3627 6.11189L27.5504 5.49303L28.6443 4.93042L29.6008 4.43658C29.6071 4.4325 29.6133 4.42833 29.6195 4.42407L30.4259 3.98024C30.4344 3.97623 30.4427 3.97206 30.4509 3.96774L31.1198 3.56141C31.1325 3.55551 31.145 3.54926 31.1573 3.54266L31.6762 3.18009C31.6889 3.17213 31.7014 3.16379 31.7137 3.15508L32.095 2.86128C32.124 2.83831 32.1511 2.8133 32.1763 2.78626L32.3951 2.55497C32.4127 2.53711 32.4294 2.51836 32.4451 2.49871L32.5513 2.35493L32.6076 2.28617C32.5428 2.32406 32.4865 2.37198 32.4388 2.42994L32.4826 2.39869L32.5013 2.39244C32.6507 2.31648 32.7512 2.19886 32.8031 2.03957C32.855 1.88028 32.843 1.72598 32.767 1.57666C32.6911 1.42734 32.5734 1.32674 32.4141 1.27487C32.2549 1.22299 32.1005 1.23503 31.9512 1.31098L31.9387 1.31723C31.9127 1.33 31.8877 1.34459 31.8637 1.36099L31.8325 1.37974C31.7526 1.43382 31.6901 1.50346 31.6449 1.58865C31.5997 1.67384 31.5771 1.76465 31.5771 1.86109C31.5771 1.95752 31.5997 2.04833 31.6449 2.13352C31.6901 2.21871 31.7526 2.28835 31.8325 2.34243L31.8637 2.36118C31.8877 2.37758 31.9127 2.39217 31.9387 2.40494L31.9512 2.41119C32.1005 2.48693 32.2547 2.49884 32.4139 2.44692C32.573 2.395 32.6906 2.29444 32.7665 2.14523C32.8423 1.99602 32.8544 1.84182 32.8027 1.68262C32.7509 1.52341 32.6505 1.40579 32.5013 1.32973L32.4826 1.31723C32.365 1.25382 32.24 1.2309 32.1075 1.24847L32.0512 1.25472C31.9814 1.26235 31.9148 1.2811 31.8512 1.31098L31.7512 1.36099C31.7491 1.36306 31.747 1.36514 31.7449 1.36724L31.5762 1.44851C31.5547 1.45992 31.5338 1.47242 31.5136 1.48601L31.2448 1.6548C31.2299 1.66468 31.2153 1.6751 31.2011 1.68605L30.8323 1.95485L30.3322 2.29242L29.6945 2.67374L28.9006 3.10507L27.9567 3.59267L26.8628 4.15527L25.6563 4.78039C25.6542 4.78246 25.6521 4.78455 25.65 4.78664L24.4248 5.44927C24.4206 5.45131 24.4164 5.4534 24.4123 5.45552L23.2746 6.11189C23.2662 6.11591 23.2578 6.12008 23.2496 6.1244L22.2369 6.75577C22.2306 6.75984 22.2243 6.76401 22.2181 6.76827L21.318 7.35588C21.3116 7.35995 21.3054 7.36412 21.2992 7.36838L20.5366 7.89348C20.5323 7.8976 20.5282 7.90177 20.5241 7.90599L19.9427 8.32482C19.932 8.33286 19.9216 8.3412 19.9114 8.34982L19.5301 8.65613C19.5058 8.6754 19.4828 8.69624 19.4614 8.71864L19.2676 8.91868C19.1696 9.02254 19.1133 9.14548 19.0988 9.2875L19.0863 9.36251C19.0712 9.50987 19.109 9.64213 19.1996 9.75931C19.2902 9.87649 19.4087 9.94635 19.5551 9.96888ZM31.6199 1.84858C31.6199 1.98323 31.6675 2.09816 31.7627 2.19336C31.8579 2.28857 31.9729 2.33618 32.1075 2.33618C32.2422 2.33618 32.3571 2.28857 32.4523 2.19336C32.5475 2.09816 32.5951 1.98323 32.5951 1.84858C32.5951 1.71394 32.5475 1.59901 32.4523 1.5038C32.3571 1.4086 32.2422 1.36099 32.1075 1.36099C31.9729 1.36099 31.8579 1.4086 31.7627 1.5038C31.6675 1.59901 31.6199 1.71394 31.6199 1.84858ZM31.7387 1.83608C31.7387 2.04862 31.845 2.15489 32.0575 2.15489C32.27 2.15489 32.3763 2.04862 32.3763 1.83608C32.3763 1.62354 32.27 1.51727 32.0575 1.51727C31.845 1.51727 31.7387 1.62354 31.7387 1.83608ZM32.0512 1.62979L32.02 1.62354C31.8867 1.59866 31.8076 1.65284 31.7826 1.7861C31.7576 1.91936 31.8117 1.99853 31.945 2.02362L31.9762 2.02987C32.1095 2.05475 32.1886 2.00056 32.2136 1.86731C32.2386 1.73405 32.1845 1.65488 32.0512 1.62979Z" fill="black"/>
<path d="M10.1283 19.8145C10.1283 19.9181 10.165 20.0065 10.2382 20.0797C10.3114 20.153 10.3998 20.1896 10.5034 20.1896C10.607 20.1896 10.6954 20.153 10.7686 20.0797C10.8419 20.0065 10.8785 19.9181 10.8785 19.8145C10.8785 19.7109 10.8419 19.6225 10.7686 19.5493C10.6954 19.476 10.607 19.4394 10.5034 19.4394C10.3998 19.4394 10.3114 19.476 10.2382 19.5493C10.165 19.6225 10.1283 19.7109 10.1283 19.8145ZM10.1221 19.8145C10.1221 19.9198 10.1593 20.0097 10.2338 20.0841C10.3082 20.1586 10.3981 20.1958 10.5034 20.1958C10.6087 20.1958 10.6986 20.1586 10.773 20.0841C10.8475 20.0097 10.8847 19.9198 10.8847 19.8145C10.8847 19.7092 10.8475 19.6193 10.773 19.5449C10.6986 19.4704 10.6087 19.4332 10.5034 19.4332C10.3981 19.4332 10.3082 19.4704 10.2338 19.5449C10.1593 19.6193 10.1221 19.7092 10.1221 19.8145ZM10.1033 19.8208C10.1033 19.933 10.143 20.0287 10.2223 20.1081C10.3017 20.1874 10.3975 20.2271 10.5097 20.2271C10.6219 20.2271 10.7176 20.1874 10.797 20.1081C10.8763 20.0287 10.916 19.933 10.916 19.8208C10.916 19.7085 10.8763 19.6128 10.797 19.5334C10.7176 19.4541 10.6219 19.4144 10.5097 19.4144C10.3975 19.4144 10.3017 19.4541 10.2223 19.5334C10.143 19.6128 10.1033 19.7085 10.1033 19.8208ZM10.0783 19.8208C10.0783 19.9416 10.1211 20.0447 10.2065 20.1302C10.2919 20.2156 10.3951 20.2583 10.5159 20.2583C10.6367 20.2583 10.7399 20.2156 10.8253 20.1302C10.9108 20.0447 10.9535 19.9416 10.9535 19.8208C10.9535 19.6999 10.9108 19.5968 10.8253 19.5113C10.7399 19.4259 10.6367 19.3832 10.5159 19.3832C10.3951 19.3832 10.2919 19.4259 10.2065 19.5113C10.1211 19.5968 10.0783 19.6999 10.0783 19.8208ZM10.0346 19.802C10.0346 19.9401 10.0834 20.058 10.181 20.1556C10.2787 20.2533 10.3966 20.3021 10.5347 20.3021C10.6728 20.3021 10.7906 20.2533 10.8883 20.1556C10.9859 20.058 11.0348 19.9401 11.0348 19.802C11.0348 19.6639 10.9859 19.546 10.8883 19.4484C10.7906 19.3507 10.6728 19.3019 10.5347 19.3019C10.3966 19.3019 10.2787 19.3507 10.181 19.4484C10.0834 19.546 10.0346 19.6639 10.0346 19.802ZM10.9222 20.2271L11.0535 20.1396C11.0948 20.1105 11.1323 20.0771 11.166 20.0395L11.3786 19.8083C11.3828 19.8021 11.387 19.7958 11.3911 19.7895L11.6911 19.4457C11.6933 19.4415 11.6953 19.4374 11.6974 19.4332L12.0787 18.9831L12.5288 18.4455L13.0664 17.8204L13.6978 17.1077L14.4417 16.3076L15.2793 15.4324L16.1732 14.5197C16.1753 14.5177 16.1774 14.5156 16.1795 14.5135L17.0547 13.6008C17.0567 13.6008 17.0588 13.6008 17.0609 13.6008L17.8548 12.7569C17.8612 12.7508 17.8674 12.7445 17.8736 12.7382L18.5674 11.9568C18.5695 11.9547 18.5716 11.9526 18.5737 11.9505L19.2301 11.1941L19.8614 10.4877L20.424 9.87511L20.8929 9.38127L21.243 9.02495C21.2683 8.99767 21.2912 8.9685 21.3117 8.93743L21.4993 8.66863C21.5813 8.54488 21.6145 8.4092 21.5988 8.26157C21.5832 8.11394 21.5223 7.98822 21.4162 7.8844C21.3101 7.78058 21.1831 7.72246 21.0351 7.71005C20.8872 7.69764 20.7523 7.73378 20.6303 7.81847L20.3615 8.01226C20.3324 8.03504 20.3053 8.06004 20.2803 8.08727L19.9302 8.44359L19.4489 8.94368C19.4447 8.94572 19.4405 8.94781 19.4364 8.94993L18.8613 9.56255C18.8592 9.56462 18.8571 9.56671 18.855 9.5688L18.2049 10.2689C18.2049 10.271 18.2049 10.2731 18.2049 10.2752L17.5297 11.0128L16.8171 11.7692L16.017 12.5944L15.1355 13.4945L14.2291 14.3947C14.227 14.3968 14.2249 14.3989 14.2229 14.401L13.3665 15.2699C13.3622 15.274 13.3581 15.2782 13.354 15.2824L12.5913 16.0825C12.5892 16.0846 12.5871 16.0867 12.5851 16.0888L11.9287 16.8014C11.9245 16.8055 11.9203 16.8097 11.9162 16.8139L11.3723 17.4391C11.3637 17.4493 11.3554 17.4597 11.3473 17.4703L10.9035 18.0204C10.8948 18.0327 10.8864 18.0452 10.8785 18.0579L10.5347 18.5393C10.5282 18.5495 10.5219 18.5599 10.5159 18.5705L10.2721 18.9581C10.2657 18.9663 10.2594 18.9746 10.2534 18.9831L10.0971 19.2581C10.0584 19.3224 10.0313 19.3911 10.0158 19.4644L9.99081 19.6207C9.94003 19.8848 10.0273 20.0902 10.2527 20.237C10.4781 20.3837 10.7013 20.3804 10.9222 20.2271ZM20.7429 8.18729C20.7429 8.29086 20.7795 8.37927 20.8527 8.45251C20.926 8.52574 21.0144 8.56236 21.1179 8.56236C21.2215 8.56236 21.3099 8.52574 21.3831 8.45251C21.4564 8.37927 21.493 8.29086 21.493 8.18729C21.493 8.08372 21.4564 7.99531 21.3831 7.92207C21.3099 7.84884 21.2215 7.81222 21.1179 7.81222C21.0144 7.81222 20.926 7.84884 20.8527 7.92207C20.7795 7.99531 20.7429 8.08372 20.7429 8.18729ZM21.0742 7.94349L21.0554 7.94974C20.9181 7.9957 20.8724 8.08735 20.9182 8.22471C20.9639 8.36207 21.0555 8.40794 21.1929 8.36232L21.2117 8.35607C21.349 8.31011 21.3948 8.21846 21.349 8.0811C21.3032 7.94375 21.2116 7.89788 21.0742 7.94349Z" fill="black"/>
<path d="M11.6849 21.4649C11.685 21.5702 11.7222 21.66 11.7967 21.7344C11.8711 21.8089 11.961 21.8461 12.0663 21.8461C12.1715 21.8461 12.2614 21.8089 12.3359 21.7344C12.4103 21.66 12.4476 21.5702 12.4476 21.4649C12.4476 21.3596 12.4103 21.2698 12.3359 21.1953C12.2614 21.1209 12.1715 21.0837 12.0663 21.0837C11.961 21.0837 11.8711 21.1209 11.7967 21.1953C11.7222 21.2698 11.685 21.3596 11.6849 21.4649ZM11.6662 21.4649C11.6662 21.5736 11.7046 21.6665 11.7815 21.7434C11.8584 21.8203 11.9513 21.8587 12.06 21.8587C12.1688 21.8587 12.2616 21.8203 12.3385 21.7434C12.4154 21.6665 12.4538 21.5736 12.4538 21.4649C12.4538 21.3561 12.4154 21.2633 12.3385 21.1864C12.2616 21.1095 12.1688 21.0711 12.06 21.0711C11.9513 21.0711 11.8584 21.1095 11.7815 21.1864C11.7046 21.2633 11.6662 21.3561 11.6662 21.4649ZM12.4476 21.5524V21.5399L12.4601 21.5024C12.4413 21.5339 12.4267 21.5672 12.4163 21.6024L12.4726 21.5086L12.6164 21.3211L12.9289 20.9523L13.4228 20.3834L14.1042 19.627L14.9543 18.7206L15.917 17.7079L16.9359 16.6452C16.9402 16.6412 16.9444 16.637 16.9484 16.6327L17.8236 15.6075L18.605 14.8574C18.7133 14.7532 18.7153 14.647 18.6112 14.5386C18.507 14.4303 18.4008 14.4282 18.2925 14.5323L17.5111 15.2825L16.4671 16.1389C16.4606 16.1449 16.4544 16.1511 16.4484 16.1576L15.3856 17.1828C15.3835 17.1849 15.3815 17.187 15.3794 17.1891L14.398 18.1893L13.5353 19.0832C13.5332 19.0852 13.5311 19.0873 13.529 19.0894L12.8289 19.8396L12.3038 20.3897C12.3017 20.3917 12.2996 20.3938 12.2976 20.3959L11.9662 20.771C11.962 20.7751 11.9578 20.7793 11.9537 20.7835L11.785 20.9898C11.7713 21.0056 11.7587 21.0222 11.7475 21.0398L11.6787 21.1523C11.6304 21.2311 11.6096 21.3165 11.6162 21.4086L11.6224 21.4586C11.6311 21.631 11.7144 21.7519 11.8725 21.8212L11.8912 21.8275C12.0066 21.8802 12.1211 21.8784 12.2348 21.8222C12.3485 21.766 12.4194 21.6761 12.4476 21.5524Z" fill="black"/>
</g>
<defs>
<clipPath id="clip0_1_7410">
<rect width="33" height="33" fill="white"/>
</clipPath>
</defs>
</svg>
