<svg width="26" height="48" viewBox="0 0 26 48" fill="none" xmlns="http://www.w3.org/2000/svg">
<g clip-path="url(#clip0_1_7272)">
<path d="M2.38154 15.7329C2.38154 15.8434 2.4206 15.9377 2.49872 16.0158C2.57684 16.0939 2.67114 16.133 2.78162 16.133C2.8921 16.133 2.9864 16.0939 3.06451 16.0158C3.14263 15.9377 3.18169 15.8434 3.18169 15.7329C3.18169 15.6224 3.14263 15.5281 3.06451 15.45C2.9864 15.3719 2.8921 15.3328 2.78162 15.3328C2.67114 15.3328 2.57684 15.3719 2.49872 15.45C2.4206 15.5281 2.38154 15.6224 2.38154 15.7329ZM2.35654 15.7329C2.38741 15.9898 2.53223 16.1183 2.791 16.1183C3.04976 16.1183 3.19458 15.9898 3.22545 15.7329C3.19458 15.476 3.04976 15.3475 2.791 15.3475C2.53223 15.3475 2.38741 15.476 2.35654 15.7329ZM2.30653 15.7204C2.30653 15.8602 2.35596 15.9796 2.45483 16.0784C2.5537 16.1773 2.67305 16.2267 2.81287 16.2267C2.9527 16.2267 3.07205 16.1773 3.17092 16.0784C3.26979 15.9796 3.31922 15.8602 3.31922 15.7204C3.31922 15.5806 3.26979 15.4612 3.17092 15.3624C3.07205 15.2635 2.9527 15.214 2.81287 15.214C2.67305 15.214 2.5537 15.2635 2.45483 15.3624C2.35596 15.4612 2.30653 15.5806 2.30653 15.7204ZM2.55658 16.208L2.63784 16.258C2.6639 16.2745 2.69099 16.2891 2.71911 16.3018L2.89414 16.3768C2.93831 16.398 2.98415 16.4147 3.03167 16.4268L3.37548 16.5018C3.42078 16.512 3.46662 16.5183 3.51301 16.5205L4.07561 16.5518C4.09854 16.5528 4.12146 16.5528 4.14438 16.5518L4.93203 16.5268C4.94245 16.527 4.95287 16.527 4.96328 16.5268L5.98848 16.458L7.20121 16.3643L8.52021 16.2767L9.91423 16.1955L11.3145 16.133L12.6585 16.0892L13.8775 16.0955L14.9964 16.1142L16.0466 16.158C16.0508 16.158 16.055 16.158 16.0591 16.158L17.0406 16.183C17.0448 16.183 17.0489 16.183 17.0531 16.183L17.9658 16.1892C17.9678 16.1892 17.9699 16.1892 17.972 16.1892H18.8034L19.5098 16.1955L20.0974 16.2205L20.5788 16.2705L21.0226 16.3205L21.4102 16.3705L21.7477 16.433L22.0665 16.508L22.3603 16.5831C22.3686 16.5853 22.377 16.5874 22.3854 16.5893L22.6479 16.6456C22.7803 16.6756 22.9115 16.6714 23.0417 16.6331L23.248 16.5706C23.5018 16.4957 23.6556 16.3288 23.7094 16.0697C23.7632 15.8107 23.6886 15.5963 23.4856 15.4266L23.323 15.2891C23.2506 15.2262 23.1693 15.1782 23.0792 15.1453L22.8229 15.0578C22.8085 15.0511 22.7939 15.0448 22.7792 15.039L22.4791 14.9515C22.477 14.9515 22.475 14.9515 22.4729 14.9515L22.1416 14.8577C22.1312 14.8554 22.1208 14.8534 22.1103 14.8515L21.7352 14.7577C21.7146 14.7527 21.6937 14.7486 21.6727 14.7452L21.2539 14.6764C21.2476 14.6764 21.2414 14.6764 21.2351 14.6764L20.7788 14.6139C20.7684 14.6116 20.758 14.6096 20.7475 14.6077L20.2349 14.5577C20.2224 14.5574 20.2099 14.5574 20.1974 14.5577L19.5786 14.5202C19.5661 14.5199 19.5536 14.5199 19.5411 14.5202L18.8097 14.5139C18.8076 14.5139 18.8055 14.5139 18.8034 14.5139H17.9783L17.0781 14.4952L16.1092 14.4702L15.059 14.4264C15.0527 14.4263 15.0465 14.4263 15.0402 14.4264L13.9087 14.4014C13.9025 14.3992 13.8963 14.3972 13.89 14.3951L12.646 14.4014C12.6377 14.4013 12.6293 14.4013 12.621 14.4014L11.2582 14.4452C11.2541 14.4451 11.2499 14.4451 11.2457 14.4452L9.83296 14.5077C9.83088 14.5077 9.82879 14.5077 9.82671 14.5077L8.42644 14.5764C8.42228 14.5764 8.41811 14.5764 8.41394 14.5764L7.08244 14.6639C7.07827 14.6639 7.0741 14.6639 7.06994 14.6639L5.8572 14.7577L4.84451 14.839L4.06311 14.889L3.49425 14.9327C3.47124 14.9338 3.44832 14.9359 3.42549 14.939L3.08168 14.9953C3.04579 14.9989 3.01037 15.0051 2.97541 15.014L2.80037 15.0703C2.74275 15.0878 2.68858 15.1128 2.63784 15.1453L2.55658 15.1953C2.47 15.2504 2.40202 15.3229 2.35264 15.4128C2.30326 15.5028 2.27856 15.599 2.27856 15.7016C2.27856 15.8042 2.30326 15.9005 2.35264 15.9905C2.40202 16.0804 2.47 16.1529 2.55658 16.208ZM23.2293 16.2142L23.3543 16.2205C23.5292 16.2287 23.6208 16.1454 23.6292 15.9704C23.6375 15.7955 23.5542 15.7038 23.3793 15.6954L23.2543 15.6891C23.0793 15.6809 22.9877 15.7643 22.9794 15.9392C22.971 16.1141 23.0543 16.2058 23.2293 16.2142Z" fill="black"/>
<path d="M3.13168 16.2643C3.13178 16.4809 3.24014 16.5892 3.45674 16.5892C3.67334 16.5892 3.7817 16.4809 3.7818 16.2643C3.7817 16.0477 3.67334 15.9394 3.45674 15.9394C3.24014 15.9394 3.13179 16.0477 3.13168 16.2643ZM3.02541 16.2643C3.02541 16.3816 3.06691 16.4818 3.14991 16.5648C3.23291 16.6478 3.33311 16.6893 3.45049 16.6893C3.56787 16.6893 3.66807 16.6478 3.75107 16.5648C3.83407 16.4818 3.87557 16.3816 3.87557 16.2643C3.87557 16.1469 3.83407 16.0467 3.75107 15.9637C3.66807 15.8807 3.56787 15.8392 3.45049 15.8392C3.33311 15.8392 3.23291 15.8807 3.14991 15.9637C3.06691 16.0467 3.02541 16.1469 3.02541 16.2643ZM3.88182 16.158L3.87557 16.1267C3.84357 15.9797 3.76222 15.869 3.63151 15.7945C3.50081 15.72 3.36407 15.7065 3.22129 15.7539C3.07851 15.8013 2.97701 15.8939 2.9168 16.0318C2.85658 16.1696 2.8576 16.307 2.91986 16.444C2.98212 16.5809 3.08498 16.6721 3.22845 16.7173C3.37192 16.7626 3.50844 16.747 3.63803 16.6706L3.66303 16.6581C3.85778 16.5447 3.93071 16.378 3.88182 16.158ZM2.76286 16.208C2.76286 16.3685 2.81962 16.5056 2.93314 16.6191C3.04665 16.7326 3.18368 16.7894 3.34422 16.7894C3.50476 16.7894 3.64179 16.7326 3.7553 16.6191C3.86882 16.5056 3.92558 16.3685 3.92558 16.208C3.92558 16.0475 3.86882 15.9104 3.7553 15.7969C3.64179 15.6834 3.50476 15.6266 3.34422 15.6266C3.18368 15.6266 3.04665 15.6834 2.93314 15.7969C2.81962 15.9104 2.76286 16.0475 2.76286 16.208ZM3.94433 16.0205L3.93808 15.9892C3.88401 15.7629 3.75065 15.6024 3.53801 15.5079L3.46299 15.4766C3.33354 15.4168 3.1981 15.396 3.05667 15.4141L2.90039 15.4391C2.85146 15.4449 2.80353 15.4553 2.75661 15.4704L2.55032 15.5391C2.51826 15.5496 2.487 15.5621 2.45655 15.5766L2.21275 15.6892C2.18253 15.704 2.15336 15.7207 2.12524 15.7392L1.88144 15.8954C1.87513 15.8995 1.86888 15.9037 1.86269 15.9079L1.63139 16.0705L1.39385 16.2143C1.37448 16.228 1.35572 16.2426 1.33759 16.258L1.08129 16.4456C1.03818 16.4793 0.998586 16.5168 0.962517 16.5581L0.737474 16.8081C0.685702 16.865 0.641943 16.9275 0.606199 16.9957L0.437417 17.327C0.407995 17.3849 0.385074 17.4454 0.368653 17.5083L0.262383 17.9083C0.24873 17.9638 0.240395 18.0201 0.237378 18.0771L0.206123 18.5022C0.200091 18.5626 0.200091 18.623 0.206123 18.6835L0.262383 19.1148C0.269494 19.1831 0.28408 19.2498 0.306142 19.3148L0.45617 19.7212C0.473252 19.7687 0.494089 19.8146 0.518682 19.8587L0.724971 20.2338C0.755435 20.2873 0.790858 20.3373 0.831242 20.3838L1.10004 20.6964C1.13285 20.7325 1.16827 20.7658 1.20631 20.7964L1.52512 21.0714C1.58059 21.1203 1.64102 21.162 1.70641 21.1965L2.12524 21.409C2.17544 21.4346 2.22753 21.4554 2.28152 21.4715L2.80662 21.6278C2.83744 21.6378 2.86869 21.6461 2.90039 21.6528L3.55051 21.7778C3.57335 21.7808 3.59627 21.7828 3.61927 21.7841L4.40692 21.8716C4.42561 21.8742 4.44437 21.8763 4.46318 21.8778L5.41336 21.9278C5.42795 21.9282 5.44254 21.9282 5.45712 21.9278L6.55733 21.9403C6.56567 21.9405 6.574 21.9405 6.58234 21.9403L7.80132 21.9153C7.8034 21.9153 7.80549 21.9153 7.80757 21.9153L9.08906 21.8841C9.09115 21.8841 9.09323 21.8841 9.09531 21.8841L10.3893 21.8341L11.6583 21.7903C11.6625 21.7903 11.6666 21.7903 11.6708 21.7903L12.9023 21.7341C12.9085 21.7341 12.9148 21.7341 12.921 21.7341L14.14 21.6528L15.334 21.5715L16.4405 21.4903L17.4469 21.4215C17.4552 21.4216 17.4636 21.4216 17.4719 21.4215L18.4158 21.334C18.4179 21.334 18.42 21.334 18.4221 21.334L19.3223 21.2402C19.3306 21.2382 19.339 21.2362 19.3473 21.234L20.1474 21.1339L20.8225 21.0527L21.3914 20.9902C21.4019 20.9883 21.4123 20.9862 21.4227 20.9839L21.9165 20.9152C21.929 20.9133 21.9416 20.9112 21.954 20.9089L22.3853 20.8276L22.7417 20.7651C22.7458 20.7631 22.75 20.761 22.7542 20.7589L23.0355 20.7089L23.2543 20.6776L23.4418 20.6526C23.4712 20.6498 23.5003 20.6456 23.5293 20.6401L23.7043 20.6026C23.7254 20.597 23.7462 20.5908 23.7669 20.5838L23.9356 20.5338C23.9893 20.5196 24.0414 20.5008 24.0919 20.4776L24.2357 20.4088C24.3336 20.3609 24.4211 20.2984 24.4982 20.2213L24.617 20.1025C24.7023 20.0149 24.769 19.9148 24.8171 19.8024L24.9046 19.6212C24.9249 19.5745 24.9416 19.5266 24.9546 19.4774L25.0233 19.2086C25.0254 19.2065 25.0275 19.2044 25.0296 19.2023L25.1171 18.8773C25.1216 18.8628 25.1258 18.8482 25.1296 18.8335L25.2109 18.4647C25.216 18.4398 25.2202 18.4148 25.2234 18.3897L25.2859 17.9896C25.2952 17.921 25.2972 17.8523 25.2921 17.7833L25.2671 17.3832C25.2599 17.2542 25.2286 17.1313 25.1734 17.0144L24.9983 16.6518C24.9488 16.5514 24.8842 16.4618 24.8046 16.383L24.517 16.0892C24.4182 15.99 24.3036 15.915 24.1732 15.8642L23.8231 15.7267C23.6266 15.6491 23.4274 15.6412 23.2254 15.7029C23.0234 15.7646 22.8626 15.8825 22.743 16.0566C22.6234 16.2308 22.5711 16.4232 22.5861 16.6339C22.601 16.8446 22.68 17.0277 22.8229 17.1832L23.0792 17.4582C23.0833 17.4645 23.0875 17.4708 23.0917 17.477L23.273 17.6583L23.2918 17.702L23.298 17.8083L23.2605 18.0771L23.198 18.3834L23.1167 18.6897L23.0605 18.8898L23.0417 18.9148C23.1404 18.8548 23.2258 18.7798 23.298 18.6897L23.2668 18.7085L23.2543 18.7147L23.1605 18.7335L22.998 18.7522C22.9896 18.7542 22.9813 18.7563 22.973 18.7585L22.7229 18.796C22.7145 18.798 22.7062 18.8001 22.6979 18.8022L22.3978 18.8585C22.3937 18.8585 22.3895 18.8585 22.3853 18.8585L22.0228 18.9273L21.6039 19.0085L21.1164 19.1023L20.5662 19.1961L19.9036 19.2961L19.116 19.4024L18.2408 19.4961L17.3094 19.5836L16.3154 19.6524L15.209 19.7212L14.015 19.8024L12.8085 19.8837L11.5895 19.94L10.3268 19.9837L9.03905 20.0212L7.76381 20.0525L6.56358 20.0775L5.49463 20.065L4.58821 20.015L3.86307 19.9337L3.29421 19.8274L2.89413 19.7087L2.64409 19.5836L2.4628 19.4274L2.29402 19.2336L2.16274 19.0085L2.06898 18.7585L2.02522 18.5147L2.03772 18.2771L2.10023 18.0521L2.18775 17.8521L2.31277 17.677L2.45655 17.502L2.60033 17.3645L2.78786 17.2269L2.98165 17.0957L3.17544 16.9832L3.36297 16.8831L3.48175 16.8206L3.53801 16.7956C3.59673 16.7697 3.65091 16.7363 3.70054 16.6956L3.72554 16.6706C3.93128 16.4986 4.00421 16.2819 3.94433 16.0205ZM23.3105 16.1267L23.0917 16.058C22.8876 15.9956 22.7543 16.0665 22.6918 16.2706C22.6294 16.4747 22.7001 16.608 22.9042 16.6706L23.123 16.7394C23.3272 16.8019 23.4605 16.731 23.5231 16.5268C23.5856 16.3226 23.5147 16.1893 23.3105 16.1267Z" fill="black"/>
<path d="M6.95741 21.3027C6.95741 21.4218 6.99952 21.5235 7.08374 21.6077C7.16797 21.6919 7.26963 21.734 7.38874 21.734C7.50785 21.734 7.60952 21.6919 7.69374 21.6077C7.77796 21.5235 7.82007 21.4218 7.82007 21.3027C7.82007 21.1836 7.77796 21.0819 7.69374 20.9977C7.60952 20.9135 7.50785 20.8714 7.38874 20.8714C7.26963 20.8714 7.16797 20.9135 7.08374 20.9977C6.99952 21.0819 6.95741 21.1836 6.95741 21.3027ZM6.8949 21.3027C6.8949 21.4356 6.94189 21.5491 7.03588 21.6431C7.12987 21.7371 7.24332 21.7841 7.37624 21.7841C7.50916 21.7841 7.62261 21.7371 7.7166 21.6431C7.81059 21.5491 7.85758 21.4356 7.85758 21.3027C7.85758 21.1698 7.81059 21.0563 7.7166 20.9623C7.62261 20.8684 7.50916 20.8214 7.37624 20.8214C7.24332 20.8214 7.12987 20.8684 7.03588 20.9623C6.94189 21.0563 6.8949 21.1698 6.8949 21.3027ZM6.84489 21.2965C6.84489 21.438 6.89493 21.5588 6.99502 21.6589C7.09511 21.759 7.21594 21.8091 7.35749 21.8091C7.49904 21.8091 7.61986 21.759 7.71995 21.6589C7.82004 21.5588 7.87008 21.438 7.87008 21.2965C7.87008 21.1549 7.82004 21.0341 7.71995 20.934C7.61986 20.8339 7.49904 20.7839 7.35749 20.7839C7.21594 20.7839 7.09511 20.8339 6.99502 20.934C6.89493 21.0341 6.84489 21.1549 6.84489 21.2965ZM6.76987 21.2902C6.76987 21.4456 6.8248 21.5782 6.93466 21.688C7.04451 21.7979 7.17712 21.8528 7.33248 21.8528C7.48784 21.8528 7.62045 21.7979 7.7303 21.688C7.84016 21.5782 7.89509 21.4456 7.89509 21.2902C7.89509 21.1348 7.84016 21.0022 7.7303 20.8924C7.62045 20.7825 7.48784 20.7276 7.33248 20.7276C7.17712 20.7276 7.04451 20.7825 6.93466 20.8924C6.8248 21.0022 6.76987 21.1348 6.76987 21.2902ZM6.69486 21.2965C6.69498 21.4655 6.75484 21.6098 6.87444 21.7294C6.99404 21.8489 7.13839 21.9087 7.30748 21.9087C7.47656 21.9087 7.62091 21.8489 7.74051 21.7294C7.86012 21.6098 7.91998 21.4655 7.92009 21.2965C7.91998 21.1274 7.86012 20.9831 7.74051 20.8635C7.62091 20.744 7.47656 20.6843 7.30748 20.6843C7.13839 20.6843 6.99404 20.744 6.87444 20.8635C6.75484 20.9831 6.69498 21.1274 6.69486 21.2965ZM6.82613 20.8401L6.77612 20.8839C6.65225 20.9997 6.57723 21.1414 6.55108 21.309L6.52608 21.4715C6.52313 21.4922 6.52104 21.5131 6.51983 21.534L6.49482 21.8091C6.49482 21.8111 6.49482 21.8132 6.49482 21.8153L6.46982 22.2091C6.46979 22.2133 6.46979 22.2175 6.46982 22.2216L6.44481 22.7467L6.41981 23.3719L6.38855 24.047L6.35104 24.7346L6.32604 25.4285C6.32603 25.4306 6.32603 25.4327 6.32604 25.4347L6.29478 26.1536L6.26978 26.8913C6.26975 26.8954 6.26975 26.8996 6.26978 26.9038L6.25102 27.6602C6.25102 27.6623 6.25102 27.6643 6.25102 27.6664L6.23852 28.4228L6.21352 29.1792C6.2134 29.1875 6.2134 29.1959 6.21352 29.2042V29.9356L6.20727 30.6607L6.19476 31.3734C6.19476 31.3755 6.19476 31.3775 6.19476 31.3796L6.18226 32.086L6.16976 32.7674C6.16975 32.7695 6.16975 32.7716 6.16976 32.7736L6.15726 33.4675L6.14475 34.1739C6.14475 34.176 6.14475 34.1781 6.14475 34.1802L6.1385 34.8615L6.13225 35.5117C6.13219 35.5179 6.13219 35.5242 6.13225 35.5304V36.1493C6.13219 36.1555 6.13219 36.1618 6.13225 36.168L6.15101 36.7557C6.15097 36.7598 6.15097 36.764 6.15101 36.7682L6.17601 37.3183C6.17594 37.3245 6.17594 37.3308 6.17601 37.337L6.21352 37.8559L6.24477 38.3622L6.27603 38.8435L6.29478 39.3124C6.29629 39.3312 6.29837 39.35 6.30103 39.3686L6.35104 39.8375C6.35449 39.8585 6.35866 39.8793 6.36355 39.9L6.44481 40.3563C6.44672 40.3668 6.4488 40.3772 6.45106 40.3876L6.54483 40.8377C6.54481 40.8418 6.54481 40.846 6.54483 40.8502L6.6511 41.3003C6.65806 41.3298 6.66639 41.359 6.67611 41.3878L6.81988 41.8254C6.82544 41.8464 6.83169 41.8673 6.83864 41.8879L7.01367 42.313C7.02141 42.332 7.02975 42.3507 7.03867 42.3692L7.23246 42.7693L7.42625 43.1819C7.43215 43.1966 7.4384 43.2112 7.445 43.2256L7.67005 43.6445C7.68338 43.6722 7.69797 43.6993 7.7138 43.7257L7.96385 44.1196C7.98496 44.1521 8.00788 44.1834 8.03261 44.2133L8.32642 44.5696C8.35561 44.603 8.38687 44.6342 8.42019 44.6634L8.73275 44.9635C8.76065 44.988 8.78982 45.0109 8.82026 45.0322L9.15158 45.276C9.18168 45.2986 9.21294 45.3194 9.24535 45.3385L9.58291 45.5386C9.63109 45.5655 9.6811 45.5884 9.73294 45.6073L10.1018 45.7449C10.1466 45.7626 10.1924 45.7772 10.2393 45.7886L10.6394 45.8824C10.6477 45.8825 10.656 45.8825 10.6644 45.8824L11.0707 45.9637L11.5208 46.0699C11.5332 46.0722 11.5457 46.0743 11.5583 46.0762L12.0209 46.1637C12.0292 46.1659 12.0375 46.168 12.0459 46.1699L12.5522 46.2512C12.5833 46.2568 12.6146 46.2609 12.646 46.2637L13.1711 46.3012C13.2002 46.3045 13.2294 46.3066 13.2586 46.3075L13.815 46.3012C13.8822 46.3013 13.9489 46.295 14.015 46.2825L14.5901 46.1699C14.7054 46.1463 14.8137 46.1046 14.9152 46.0449L15.484 45.7199C15.587 45.6608 15.6766 45.5858 15.7528 45.4948L16.2217 44.926C16.3218 44.8059 16.3822 44.6683 16.403 44.5134L16.478 43.932L16.8968 43.4257C17.026 43.2673 17.0114 43.1235 16.853 42.9943C16.6947 42.8651 16.5509 42.8797 16.4217 43.0381L16.0216 43.5194L15.4778 43.607C15.4133 43.6161 15.3508 43.6328 15.2902 43.657L14.6401 43.9195L14.1275 44.0883L13.7087 44.1633L13.2774 44.1696L12.846 44.1383L12.4022 44.0695L11.9521 43.9883C11.948 43.9862 11.9438 43.9841 11.9396 43.982L11.4708 43.9008C11.4645 43.9007 11.4583 43.9007 11.452 43.9008L11.0582 43.8383L10.7581 43.7757L10.5081 43.682L10.2518 43.5632L10.033 43.4194L9.83921 43.2444L9.62667 42.9818L9.40788 42.6505L9.19534 42.2817L8.98905 41.9004L8.80776 41.5378L8.65148 41.1502L8.48895 40.7439L8.35142 40.3626L8.25141 40L8.18264 39.5999L8.12638 39.1561L8.07637 38.6935C8.07638 38.6914 8.07638 38.6894 8.07637 38.6873L8.02011 38.2184L7.97635 37.7308L7.93885 37.2245L7.91384 36.6931L7.89509 36.118L7.88259 35.5242L7.88884 34.874L7.89509 34.1989L7.90759 33.4925C7.90762 33.4884 7.90762 33.4842 7.90759 33.48V32.7861V32.0985C7.90762 32.0943 7.90762 32.0902 7.90759 32.086L7.89509 31.3859V30.6732L7.90134 29.9481L7.91384 29.2167C7.91385 29.2146 7.91385 29.2125 7.91384 29.2105V28.4478L7.92634 27.6977L7.9451 26.9475L7.9701 26.2099L7.98886 25.491C7.98893 25.4848 7.98893 25.4785 7.98886 25.4723L8.00136 24.7846L8.01386 24.1157L8.04512 23.4469C8.04515 23.4427 8.04515 23.4385 8.04512 23.4344L8.07012 22.8092C8.07025 22.8009 8.07025 22.7926 8.07012 22.7842V22.2591C8.07064 22.2425 8.07064 22.2258 8.07012 22.2091L8.04512 21.8153C8.04512 21.8132 8.04512 21.8111 8.04512 21.8091L8.02011 21.534C8.02012 21.5319 8.02012 21.5298 8.02011 21.5278L8.00761 21.359C7.99804 21.2472 7.9647 21.143 7.90759 21.0464L7.87633 20.9902C7.76526 20.8034 7.60218 20.6947 7.38711 20.664C7.17204 20.6333 6.98505 20.692 6.82613 20.8401Z" fill="black"/>
<path d="M18.9597 21.2839C18.9597 21.391 18.9975 21.4823 19.0732 21.558C19.1489 21.6337 19.2403 21.6715 19.3473 21.6715C19.4543 21.6715 19.5457 21.6337 19.6213 21.558C19.697 21.4823 19.7349 21.391 19.7349 21.2839C19.7349 21.1769 19.697 21.0856 19.6213 21.0099C19.5457 20.9342 19.4543 20.8964 19.3473 20.8964C19.2403 20.8964 19.1489 20.9342 19.0732 21.0099C18.9975 21.0856 18.9597 21.1769 18.9597 21.2839ZM19.7349 21.5152L19.7411 21.509C19.7678 21.4641 19.7865 21.4162 19.7974 21.3652L19.8036 21.3402C19.8242 21.2418 19.8158 21.146 19.7786 21.0526L19.7661 21.0151C19.7508 21.1049 19.7592 21.1924 19.7911 21.2777L19.7974 21.2652C19.8125 21.1766 19.806 21.0896 19.778 21.0042C19.7499 20.9188 19.7036 20.8449 19.6389 20.7825C19.5743 20.7201 19.4988 20.6764 19.4125 20.6514C19.3261 20.6265 19.239 20.6231 19.151 20.6413C19.063 20.6595 18.9843 20.6972 18.915 20.7544C18.8457 20.8116 18.7938 20.8817 18.7592 20.9647C18.7247 21.0476 18.7115 21.1338 18.7196 21.2233C18.7278 21.3128 18.7564 21.3952 18.8055 21.4705C18.8545 21.5459 18.9183 21.6054 18.9968 21.6491C19.0753 21.6928 19.1595 21.7156 19.2493 21.7176C19.3392 21.7195 19.4243 21.7004 19.5046 21.6602C19.585 21.62 19.6513 21.5633 19.7036 21.4902L19.7099 21.484C19.5967 21.3757 19.4623 21.3298 19.3066 21.3463C19.1508 21.3627 19.029 21.4357 18.941 21.5652L18.9722 21.5965C19.0597 21.6802 19.1639 21.726 19.2848 21.734H19.3035C19.3392 21.7359 19.3746 21.7338 19.4098 21.7278H19.4223C19.5587 21.7043 19.6629 21.6335 19.7349 21.5152ZM19.116 20.6025L19.0722 20.6088C18.857 20.6518 18.6986 20.7705 18.5971 20.9651L18.5409 21.0651C18.5125 21.1208 18.4917 21.1791 18.4784 21.2402L18.4409 21.4027C18.4386 21.4131 18.4365 21.4235 18.4346 21.434L18.3971 21.6465C18.3913 21.6754 18.3871 21.7046 18.3846 21.734L18.3658 22.0341C18.3655 22.0487 18.3655 22.0632 18.3658 22.0778L18.3596 22.4842C18.3596 22.4883 18.3596 22.4925 18.3596 22.4967L18.3658 23.0218L18.3533 23.7094L18.3346 24.5846C18.3346 24.5887 18.3346 24.5929 18.3346 24.5971L18.3283 25.6598C18.3281 25.6723 18.3281 25.6848 18.3283 25.6973L18.3658 26.885C18.3658 26.8892 18.3658 26.8933 18.3658 26.8975L18.4159 28.1352L18.4596 29.3605L18.4909 30.4982L18.5159 31.5734L18.5284 32.6048L18.5221 33.6113L18.5096 34.5927L18.4909 35.5366L18.4596 36.4431C18.4596 36.4472 18.4596 36.4514 18.4596 36.4556L18.4409 37.3182L18.4159 38.1184L18.3846 38.8623L18.3346 39.5687L18.2721 40.2375L18.1783 40.8814L18.0595 41.519L17.9345 42.1191L17.8032 42.6442L17.672 43.0943L17.5469 43.4381L17.4032 43.7382L17.2656 43.9883L17.1469 44.1508L17.0343 44.2696L16.9156 44.3508L16.753 44.4383L16.5155 44.5384L16.2404 44.6446L16.0029 44.7259L15.8029 44.7697L15.5591 44.8009L15.2715 44.8197L15.0527 44.8322L14.9589 44.8197L14.9089 44.8009L14.8402 44.7634L14.7026 44.6446L14.5026 44.4633C14.4823 44.446 14.4615 44.4293 14.4401 44.4133L14.2213 44.2446C14.1854 44.2152 14.1479 44.1881 14.1088 44.1633L13.89 44.032C13.8879 44.032 13.8858 44.032 13.8837 44.032L13.665 43.9007C13.5378 43.823 13.4003 43.7751 13.2524 43.757L13.0586 43.7382C12.8212 43.709 12.61 43.7702 12.4251 43.9219C12.2401 44.0735 12.1387 44.2686 12.1209 44.5071L12.1084 44.7071C12.0951 44.8862 12.1263 45.057 12.2022 45.2197L12.3147 45.4573C12.3456 45.5257 12.3831 45.5903 12.4272 45.6511L12.5835 45.8511C12.6332 45.9176 12.6895 45.978 12.7523 46.0324L12.9586 46.2137L13.1774 46.4012C13.1815 46.4075 13.1856 46.4138 13.1899 46.42L13.4212 46.6138C13.4724 46.6537 13.5265 46.6891 13.5837 46.72L13.84 46.8763C13.9209 46.9242 14.0063 46.9617 14.0963 46.9888L14.3838 47.0701C14.4554 47.0917 14.5283 47.1063 14.6026 47.1138L14.9089 47.1389C14.9734 47.1464 15.038 47.1485 15.1027 47.1451L15.4215 47.1201C15.4509 47.1171 15.48 47.1129 15.5091 47.1076L15.8404 47.0576C15.8698 47.0525 15.899 47.0462 15.9279 47.0388L16.2467 46.9638C16.2509 46.9638 16.255 46.9638 16.2592 46.9638L16.5718 46.8826C16.6034 46.8756 16.6346 46.8672 16.6655 46.8575L16.9781 46.745C16.9991 46.7394 17.0199 46.7331 17.0406 46.7263L17.3532 46.595L17.6532 46.47C17.6874 46.455 17.7207 46.4383 17.7532 46.42L18.0345 46.2699C18.0849 46.2424 18.1328 46.2112 18.1783 46.1762L18.4284 45.9886C18.4753 45.9526 18.5191 45.913 18.5596 45.8699L18.7909 45.6323C18.8324 45.5875 18.8699 45.5396 18.9034 45.4885L19.1035 45.1947C19.1213 45.1684 19.138 45.1413 19.1535 45.1135L19.341 44.7759C19.3545 44.7514 19.367 44.7264 19.3785 44.7009L19.5536 44.3258C19.5675 44.2951 19.58 44.2639 19.5911 44.232L19.7474 43.8007C19.7542 43.7801 19.7605 43.7592 19.7661 43.7382L19.9161 43.2381C19.9184 43.2256 19.9205 43.2131 19.9224 43.2006L20.0662 42.638C20.0684 42.6276 20.0705 42.6172 20.0724 42.6067L20.2162 41.9691C20.2187 41.9525 20.2207 41.9358 20.2225 41.9191L20.3412 41.244C20.3435 41.2336 20.3455 41.2232 20.3475 41.2127L20.4475 40.5251C20.45 40.5085 20.452 40.4918 20.4537 40.4751L20.5163 39.7687C20.5185 39.7583 20.5206 39.7479 20.5225 39.7374L20.5725 38.9998C20.5729 38.9831 20.5729 38.9665 20.5725 38.9498L20.5913 38.1809C20.5913 38.1788 20.5913 38.1767 20.5913 38.1746L20.6038 37.362L20.6225 36.5056L20.6413 35.5929C20.6413 35.5908 20.6413 35.5887 20.6413 35.5867L20.66 34.6302L20.685 33.6488C20.6851 33.6404 20.6851 33.6321 20.685 33.6238L20.6788 32.5986C20.6788 32.5944 20.6788 32.5902 20.6788 32.5861L20.6663 31.5421C20.6664 31.5317 20.6664 31.5213 20.6663 31.5109L20.6288 30.4357C20.6288 30.4315 20.6288 30.4273 20.6288 30.4232L20.5725 29.2792L20.5288 28.0602C20.5288 28.0581 20.5288 28.0561 20.5288 28.054L20.4787 26.81C20.4787 26.8058 20.4787 26.8016 20.4787 26.7975L20.4162 25.6098C20.4144 25.5972 20.4123 25.5847 20.41 25.5722L20.3162 24.5158C20.3164 24.5054 20.3164 24.495 20.3162 24.4845L20.2099 23.6219L20.1349 22.928C20.135 22.9217 20.135 22.9155 20.1349 22.9092L20.0662 22.3779L20.0099 21.9778C20.0071 21.9505 20.0029 21.9234 19.9974 21.8965L19.9349 21.6277L19.9099 21.5027V21.409C19.9118 21.365 19.9097 21.3212 19.9036 21.2777L19.8786 21.1652C19.8616 21.0702 19.8262 20.9827 19.7724 20.9026L19.7474 20.8651C19.5949 20.6381 19.3844 20.5506 19.116 20.6025ZM13.0773 44.1758L12.9648 44.0133C12.8398 43.8341 12.6877 43.807 12.5085 43.932C12.3293 44.057 12.3022 44.2091 12.4272 44.3883L12.5397 44.5509C12.6648 44.7301 12.8169 44.7572 12.9961 44.6321C13.1753 44.5071 13.2024 44.355 13.0773 44.1758Z" fill="black"/>
<path d="M8.26379 27.5789V27.5726C8.1792 27.471 8.07085 27.423 7.93873 27.4288H7.91373L7.87622 27.4226C7.74632 27.4108 7.63036 27.4455 7.52834 27.5268C7.42632 27.6081 7.36653 27.7133 7.34898 27.8426C7.33142 27.9718 7.36097 28.0892 7.43762 28.1947C7.51427 28.3003 7.61676 28.3647 7.7451 28.3879C7.87344 28.4112 7.99202 28.3869 8.10086 28.315C8.20969 28.2431 8.27859 28.1436 8.30755 28.0164L8.32006 27.9539C8.30289 27.9877 8.29038 28.0231 8.28255 28.0602L8.30755 28.0164C8.3347 27.9634 8.34929 27.9072 8.35131 27.8477V27.8414C8.35622 27.7425 8.32705 27.655 8.26379 27.5789ZM7.21359 27.9414C7.21359 28.0951 7.26791 28.2262 7.37655 28.3348C7.48518 28.4435 7.61632 28.4978 7.76995 28.4978C7.92358 28.4978 8.05472 28.4435 8.16335 28.3348C8.27199 28.2262 8.32631 28.0951 8.32631 27.9414C8.32631 27.7878 8.27199 27.6567 8.16335 27.548C8.05472 27.4394 7.92358 27.3851 7.76995 27.3851C7.61632 27.3851 7.48518 27.4394 7.37655 27.548C7.26791 27.6567 7.21359 27.7878 7.21359 27.9414ZM7.10107 27.9414C7.10113 28.114 7.16219 28.2613 7.28424 28.3833C7.4063 28.5053 7.55361 28.5663 7.72619 28.5663C7.89877 28.5663 8.04609 28.5053 8.16814 28.3833C8.29019 28.2613 8.35125 28.114 8.35131 27.9414C8.35125 27.7688 8.29019 27.6216 8.16814 27.4995C8.04609 27.3775 7.89877 27.3165 7.72619 27.3165C7.55361 27.3165 7.4063 27.3775 7.28424 27.4995C7.16219 27.6216 7.10113 27.7688 7.10107 27.9414ZM8.33881 28.129L8.35756 28.0915L8.43883 28.0164L8.59511 27.8977L8.78889 27.7914L9.00143 27.7164L9.27649 27.6789L9.5953 27.6664L9.8891 27.6851L10.1829 27.7414L10.458 27.8164L10.683 27.9039L10.8768 28.0227L11.1018 28.1727C11.1039 28.1748 11.106 28.1769 11.1081 28.179L11.3644 28.354C11.3867 28.3696 11.4096 28.3842 11.4331 28.3978L11.6957 28.5415C11.7121 28.5504 11.7288 28.5587 11.7457 28.5665L12.0083 28.6978C12.0206 28.7044 12.0331 28.7106 12.0458 28.7166L12.2771 28.8103C12.3056 28.8243 12.3348 28.8368 12.3646 28.8479L12.5771 28.9104C12.6263 28.9249 12.6763 28.9353 12.7271 28.9416L12.9334 28.9729C12.9937 28.9808 13.0541 28.9829 13.1147 28.9791L13.3523 28.9666C13.3987 28.9617 13.4446 28.9534 13.4898 28.9416L13.7523 28.8916C13.7777 28.8843 13.8027 28.876 13.8274 28.8666L14.0837 28.7916C14.109 28.7843 14.134 28.776 14.1587 28.7666L14.4087 28.6666C14.4235 28.6607 14.438 28.6544 14.4525 28.6478L14.6963 28.5353C14.7263 28.5202 14.7555 28.5035 14.7838 28.4853L15.0213 28.3478C15.0362 28.3378 15.0508 28.3273 15.0651 28.3165L15.2901 28.1665C15.3007 28.1604 15.3111 28.1542 15.3214 28.1477L15.5152 28.0039L15.7027 27.8789L15.9027 27.7726L16.1215 27.6664L16.3591 27.5851L16.6154 27.5289L16.9467 27.4913C16.9572 27.4894 16.9676 27.4874 16.978 27.4851L17.3593 27.4351C17.3952 27.429 17.4307 27.4207 17.4655 27.4101L17.7969 27.3226C17.9083 27.2898 18.0062 27.2336 18.0907 27.1538L18.2282 27.0288L18.2407 27.0163L18.3095 27.0413C18.4677 27.0869 18.5698 27.0307 18.6156 26.8724C18.6614 26.7142 18.6052 26.6121 18.447 26.5662L18.372 26.5474L18.3532 26.5037C18.3477 26.4887 18.3415 26.4742 18.3345 26.4599L18.2407 26.2849C18.1738 26.1586 18.0779 26.0607 17.9531 25.9911L17.6531 25.8223C17.5687 25.776 17.4791 25.7448 17.3843 25.7285L17.0092 25.6597C16.9388 25.6474 16.868 25.6432 16.7967 25.6472L16.4091 25.6722C16.3586 25.6745 16.3086 25.6807 16.2591 25.691L15.9027 25.7723C15.8689 25.7788 15.8356 25.7871 15.8027 25.7973L15.4714 25.9098C15.4482 25.9172 15.4252 25.9256 15.4027 25.9348L15.1088 26.0598C15.081 26.0731 15.054 26.0877 15.0276 26.1036L14.765 26.2474C14.7416 26.2589 14.7187 26.2714 14.6963 26.2849L14.4587 26.4411C14.4438 26.4511 14.4293 26.4616 14.415 26.4724L14.2274 26.6099L14.0336 26.7412L13.8586 26.8475L13.6836 26.9287L13.4898 27.01L13.3023 27.0663L13.171 27.0975L13.0835 27.1038L13.0272 27.0975L12.9334 27.0663L12.7709 27.0038L12.5646 26.91L12.3521 26.7912L12.1333 26.6599L11.902 26.4974C11.8605 26.4666 11.8168 26.4395 11.7707 26.4161L11.4707 26.2724C11.436 26.2577 11.4006 26.2452 11.3644 26.2349L11.0143 26.1161C10.9937 26.1091 10.9729 26.1028 10.9518 26.0973L10.5892 26.0098C10.5623 26.0044 10.5353 26.0002 10.508 25.9973L10.1266 25.9348C10.0747 25.9281 10.0226 25.926 9.97037 25.9285L9.5828 25.941C9.53013 25.9425 9.47804 25.9488 9.42652 25.9598L9.02644 26.0473C8.97932 26.0579 8.93347 26.0725 8.88891 26.0911L8.52009 26.2411C8.50101 26.2487 8.48226 26.257 8.46383 26.2661L8.13252 26.4349C8.11108 26.4464 8.09024 26.4589 8.07001 26.4724L7.79496 26.6474C7.7619 26.6679 7.73065 26.6908 7.70119 26.7162L7.4949 26.8975C7.4605 26.9279 7.42925 26.9612 7.40113 26.9975L7.2636 27.1725C7.23468 27.2096 7.20967 27.2492 7.18859 27.2913L7.11983 27.4288C7.09335 27.4847 7.07459 27.543 7.06357 27.6039L7.03856 27.7039C7.02183 27.7848 7.01975 27.866 7.03231 27.9477L7.04481 28.0102C7.09656 28.3563 7.29669 28.5454 7.6452 28.5774C7.99372 28.6094 8.22492 28.4599 8.33881 28.129Z" fill="black"/>
<path d="M8.05754 28.8041C8.05754 29.0125 8.16172 29.1167 8.37009 29.1167C8.57847 29.1167 8.68265 29.0125 8.68265 28.8041C8.68265 28.5957 8.57847 28.4915 8.37009 28.4915C8.16172 28.4915 8.05754 28.5957 8.05754 28.8041ZM8.75767 28.8354L8.76392 28.7979C8.74805 28.8338 8.73764 28.8714 8.73266 28.9104L8.74517 28.8791L8.76392 28.8541C8.77056 28.8439 8.77681 28.8335 8.78267 28.8229L8.81393 28.7603C8.82594 28.7382 8.83636 28.7152 8.84519 28.6916L8.85769 28.6666C8.89085 28.5784 8.90214 28.4875 8.89158 28.3939C8.88102 28.3003 8.84975 28.2142 8.79778 28.1356C8.74581 28.057 8.67882 27.9946 8.5968 27.9482C8.51478 27.9018 8.42671 27.8767 8.33259 27.8727H8.28258C8.14917 27.8674 8.02623 27.9007 7.91376 27.9727L7.81999 28.0352C7.72454 28.094 7.64744 28.1711 7.5887 28.2665L7.49493 28.4228C7.45611 28.4852 7.42694 28.5519 7.40741 28.6228L7.3449 28.8729C7.33179 28.9221 7.32345 28.9721 7.31989 29.0229L7.30114 29.3855C7.29828 29.4062 7.29619 29.4271 7.29489 29.448L7.30114 30.0106C7.30247 30.0315 7.30455 30.0523 7.30739 30.0731L7.38241 30.8795L7.45742 31.7484L7.51993 32.5361C7.52182 32.5465 7.5239 32.5569 7.52618 32.5673L7.6012 33.1612C7.60489 33.1991 7.61114 33.2366 7.61995 33.2737L7.70747 33.5925C7.81452 33.9927 8.07499 34.201 8.48887 34.2176H8.59514C9.0017 34.2331 9.27467 34.0498 9.41404 33.6675L9.53282 33.3425C9.54798 33.3059 9.56048 33.2683 9.57032 33.2299L9.69535 32.6111C9.69751 32.6049 9.69959 32.5986 9.7016 32.5923L9.85788 31.7422C9.86009 31.7339 9.86218 31.7255 9.86413 31.7172L10.0142 30.7482C10.0143 30.7399 10.0143 30.7316 10.0142 30.7232L10.1329 29.773C10.1353 29.7606 10.1374 29.7481 10.1392 29.7355L10.2017 28.9354C10.2022 28.9187 10.2022 28.902 10.2017 28.8854L10.2079 28.2915C10.2089 28.2686 10.2089 28.2457 10.2079 28.2227L10.1829 27.8477C10.1746 27.7089 10.135 27.5797 10.0642 27.4601L10.0017 27.3601C9.92717 27.2349 9.82787 27.1341 9.70377 27.0578C9.57967 26.9815 9.44495 26.9383 9.2996 26.9284C9.15426 26.9184 9.0149 26.9427 8.88154 27.0013C8.74817 27.06 8.63603 27.1462 8.54513 27.2601L8.37009 27.4726C8.30101 27.5592 8.24892 27.6551 8.21381 27.7602L7.99502 28.4165C7.98278 28.4493 7.97236 28.4826 7.96377 28.5166L7.72622 29.5918C7.72379 29.6063 7.72171 29.6209 7.71997 29.6355L7.50743 30.917C7.50463 30.9378 7.50255 30.9586 7.50118 30.9795L7.37616 32.2298C7.37527 32.2527 7.37527 32.2756 7.37616 32.2985L7.35115 33.3612C7.35005 33.3862 7.35005 33.4112 7.35115 33.4362L7.40741 34.2426C7.40813 34.2698 7.41022 34.2969 7.41366 34.3239L7.50118 34.8615C7.51436 34.9335 7.53728 35.0023 7.56994 35.0678L7.68871 35.3303C7.76619 35.4947 7.88799 35.6136 8.0541 35.6872C8.22021 35.7607 8.39013 35.771 8.56388 35.7179L8.6514 35.6867C8.87322 35.6198 9.02533 35.4781 9.10774 35.2616L9.23276 34.9365C9.2425 34.912 9.25083 34.887 9.25776 34.8615L9.42029 34.2176C9.42261 34.2073 9.42469 34.1968 9.42655 34.1864L9.61408 33.28C9.61412 33.2758 9.61412 33.2716 9.61408 33.2675L9.80787 32.2235C9.80787 32.2214 9.80787 32.2193 9.80787 32.2173L10.0017 31.1358L10.1704 30.1731L10.3017 29.4605L10.4455 29.0041C10.4885 28.7816 10.4512 28.5734 10.3336 28.3796C10.2161 28.1858 10.0486 28.0566 9.83135 27.992C9.61408 27.9274 9.40325 27.9441 9.19887 28.0421C8.99449 28.1402 8.84951 28.2942 8.76392 28.504L8.65765 28.8791C8.65034 28.9039 8.64409 28.9289 8.6389 28.9541L8.48262 29.7418C8.48259 29.746 8.48259 29.7501 8.48262 29.7543L8.28883 30.8232C8.28671 30.8274 8.28463 30.8316 8.28258 30.8357L8.07629 32.0797C8.07414 32.086 8.07205 32.0922 8.07004 32.0985L7.86375 33.4362C7.86374 33.4383 7.86374 33.4404 7.86375 33.4425L7.67621 34.7177L7.48868 35.8054L7.33865 36.6181L7.25113 37.0244L7.24488 37.0557C7.19967 37.2821 7.23805 37.4933 7.36002 37.6894C7.48199 37.8854 7.65452 38.0132 7.87761 38.0727C8.1007 38.1321 8.31394 38.1072 8.51732 37.998C8.72071 37.8887 8.85917 37.7246 8.9327 37.5058L8.98896 37.187L9.15149 36.4806L9.42029 35.4116L9.78286 34.0426L10.2017 32.5423L10.6143 31.1108L10.9893 29.9356L11.2519 29.1604L11.3957 28.8229C11.4558 28.578 11.425 28.3451 11.3032 28.1243C11.1815 27.9034 11.0011 27.753 10.762 27.6731C10.5229 27.5931 10.2883 27.6047 10.0582 27.7078C9.82811 27.811 9.66341 27.9785 9.56407 28.2102L9.53907 28.3103C9.53906 28.3123 9.53906 28.3144 9.53907 28.3165L9.38904 28.9104C9.38664 28.9249 9.38455 28.9395 9.38279 28.9541L9.15774 30.0356L8.86394 31.5109C8.86179 31.5171 8.85971 31.5234 8.85769 31.5296L8.55763 33.2049C8.55552 33.2091 8.55343 33.2133 8.55138 33.2174L8.27633 34.8678C8.27421 34.8719 8.27213 34.8761 8.27008 34.8803L8.05128 36.3305C8.04909 36.3388 8.047 36.3472 8.04503 36.3555L7.90126 37.4933C7.89906 37.5016 7.89697 37.5099 7.895 37.5183L7.81999 38.3372C7.81732 38.3559 7.81524 38.3746 7.81374 38.3934L7.79499 38.8435L7.78248 38.956C7.75243 39.1942 7.81094 39.4081 7.95802 39.5978C8.1051 39.7874 8.2977 39.8974 8.53582 39.9276C8.77393 39.9578 8.98788 39.8994 9.17765 39.7524C9.36742 39.6055 9.47747 39.4129 9.50781 39.1748L9.53282 39.006L9.62658 38.4684L9.82037 37.4808L10.1267 36.118L10.508 34.5364L10.8956 32.9674L11.2769 31.6109L11.602 30.617L11.877 30.0356C11.7463 30.1285 11.6463 30.2473 11.577 30.3919L11.7145 30.2919C11.7897 29.8626 11.6424 29.5326 11.2724 29.3022C10.9025 29.0717 10.5414 29.0849 10.1892 29.3417L10.1079 29.798L9.87038 30.8545L9.49531 32.4048L9.05773 34.1926C9.0577 34.1968 9.0577 34.201 9.05773 34.2051L8.6389 36.0117C8.63678 36.0159 8.6347 36.02 8.63264 36.0242L8.27633 37.687C8.27626 37.6933 8.27626 37.6995 8.27633 37.7058L8.00127 39.0936C7.99908 39.1019 7.997 39.1102 7.99502 39.1186L7.81999 40.1688C7.81779 40.1771 7.81571 40.1854 7.81374 40.1938L7.71372 40.9002C7.71361 40.9085 7.71361 40.9168 7.71372 40.9252L7.66371 41.3127C7.63692 41.5383 7.68484 41.7467 7.80749 41.9379L7.84499 41.9941C8.0504 42.3128 8.34197 42.4558 8.71972 42.4232C9.09746 42.3905 9.36016 42.1996 9.50781 41.8503L9.63283 41.5565C9.63995 41.5338 9.6462 41.5109 9.65159 41.4878L9.88913 40.7751C9.89125 40.771 9.89333 40.7668 9.89538 40.7626L10.2705 39.5562C10.2725 39.5541 10.2746 39.552 10.2767 39.5499L10.7768 37.8933C10.7768 37.8913 10.7768 37.8892 10.7768 37.8871L11.3582 35.9367L11.9333 33.9551L12.4459 32.2048L12.8334 30.8733L13.0772 30.0919L13.1523 29.8918C13.2334 29.6329 13.2111 29.3832 13.0854 29.1427C12.9596 28.9023 12.7673 28.7415 12.5084 28.6603C12.2494 28.5792 11.9998 28.6015 11.7593 28.7272C11.5188 28.8529 11.358 29.0453 11.2769 29.3042L11.1706 29.6855L10.9081 30.6732C10.9081 30.6753 10.9081 30.6774 10.9081 30.6795L10.5205 32.161C10.5205 32.1652 10.5205 32.1693 10.5205 32.1735L10.0767 33.9551C10.0746 33.9572 10.0725 33.9592 10.0704 33.9613L9.63909 35.8054C9.63697 35.8096 9.63489 35.8138 9.63283 35.8179L9.25151 37.537C9.24942 37.5391 9.24734 37.5412 9.24526 37.5433L8.92645 39.0186C8.92644 39.0206 8.92644 39.0227 8.92645 39.0248L8.6764 40.2125C8.6764 40.2146 8.6764 40.2167 8.6764 40.2188L8.50137 41.0939C8.49918 41.1023 8.49709 41.1106 8.49512 41.119L8.4076 41.6315L8.37009 41.7878C8.3455 42.0331 8.40618 42.2551 8.55212 42.4538C8.69805 42.6524 8.89173 42.7767 9.13314 42.8266C9.37455 42.8765 9.60163 42.8392 9.81436 42.7146C10.0271 42.5901 10.1708 42.4103 10.2455 42.1754L10.2705 42.0254L10.383 41.5315L10.6143 40.6251L10.9643 39.2498L11.4582 37.3995L12.0833 35.2366L12.7272 33.0862L13.2835 31.2671L13.6899 29.9356L13.9274 29.2604L13.9712 29.1792C14.033 28.9297 14.0046 28.6909 13.8857 28.4629C13.7669 28.235 13.5875 28.0749 13.3475 27.9827C13.1075 27.8905 12.8671 27.8893 12.6262 27.9792C12.3853 28.069 12.2044 28.2273 12.0833 28.454L11.952 29.0291L11.627 30.3544C11.627 30.3565 11.627 30.3586 11.627 30.3607L11.1706 32.2798C11.1684 32.2881 11.1664 32.2964 11.1644 32.3048L10.6893 34.5052C10.6872 34.5073 10.6851 34.5094 10.683 34.5114L10.2392 36.6744C10.2392 36.6764 10.2392 36.6785 10.2392 36.6806L9.85163 38.6185L9.50781 40.2563L9.22651 41.5628C9.22432 41.5711 9.22223 41.5794 9.22026 41.5878L9.03897 42.5442L8.9077 43.1506L8.84519 43.4194C8.85718 43.6521 8.94351 43.8529 9.10419 44.0217C9.26487 44.1904 9.46114 44.2866 9.693 44.31C9.92486 44.3334 10.1364 44.2785 10.3276 44.1452C10.5188 44.012 10.6435 43.8326 10.7018 43.6069L10.6955 43.5632C10.6797 43.6395 10.6734 43.7166 10.6768 43.7945L10.758 43.4256L10.9643 42.663L11.3269 41.4065L11.8583 39.6624L12.4959 37.537L13.1835 35.2678L13.8399 33.1362L14.3962 31.3546L14.8401 30.0168L15.1526 29.1792L15.3277 28.8354C15.4389 28.5713 15.4405 28.3065 15.3324 28.0411C15.2244 27.7757 15.0383 27.5874 14.7743 27.4761C14.5103 27.3647 14.2455 27.3631 13.9801 27.471C13.7146 27.579 13.5262 27.765 13.4148 28.029L13.3648 28.179C13.3648 28.1811 13.3648 28.1832 13.3648 28.1852L13.1398 28.8854C13.1355 28.8937 13.1313 28.902 13.1273 28.9104L12.7897 30.0543C12.7874 30.0647 12.7854 30.0752 12.7834 30.0856L12.3709 31.6234C12.3708 31.6276 12.3708 31.6317 12.3709 31.6359L11.8958 33.5175C11.8957 33.5217 11.8957 33.5258 11.8958 33.53L11.3957 35.6367L10.8956 37.7371C10.8956 37.7412 10.8956 37.7454 10.8956 37.7496L10.4705 39.6312C10.4705 39.6353 10.4705 39.6395 10.4705 39.6437L10.1517 41.1377C10.1496 41.1398 10.1475 41.1419 10.1454 41.144L9.93914 42.1879L9.81412 42.7443C9.79501 42.8372 9.78876 42.9309 9.79537 43.0256L9.80162 43.1193C9.81369 43.3669 9.90371 43.5818 10.0717 43.7641C10.2396 43.9463 10.4464 44.0536 10.6922 44.0859C10.9379 44.1181 11.1654 44.0679 11.3747 43.9351C11.584 43.8023 11.7264 43.6179 11.802 43.3819L11.9208 43.0193C11.9229 43.0131 11.925 43.0068 11.927 43.0006L12.1958 42.1566C12.198 42.1483 12.2001 42.14 12.2021 42.1316L12.5896 40.8001L13.6961 36.9869L14.3587 34.774L15.0214 32.5923L15.6027 30.6857L16.0528 29.2229L16.3529 28.2978L16.5154 27.9289C16.5263 27.6713 16.4531 27.4403 16.2958 27.236C16.1385 27.0316 15.934 26.9018 15.6822 26.8463C15.4303 26.7909 15.1901 26.8228 14.9616 26.9422C14.733 27.0616 14.5696 27.2405 14.4713 27.4789L14.465 27.6101L14.2775 28.4665L13.8774 30.1981C13.8774 30.2002 13.8774 30.2023 13.8774 30.2044L13.3523 32.5486C13.3522 32.5548 13.3522 32.5611 13.3523 32.5673L12.8084 35.2178L12.2646 37.8121C12.2625 37.8162 12.2604 37.8204 12.2583 37.8246L11.8145 40.0875C11.8124 40.0917 11.8103 40.0958 11.8082 40.1L11.4832 41.8566L11.2644 43.0443L11.1206 43.6944L11.0706 43.907C11.0079 44.1686 11.0447 44.4153 11.1811 44.6472C11.3174 44.879 11.5152 45.0312 11.7743 45.1035C12.0333 45.1758 12.2813 45.1482 12.518 45.0205C12.7548 44.8928 12.9141 44.7008 12.996 44.4446L13.0585 44.257C13.0607 44.2487 13.0628 44.2404 13.0647 44.232L13.2335 43.6819C13.2356 43.6778 13.2377 43.6736 13.2398 43.6694L14.0274 40.9439C14.0295 40.9418 14.0316 40.9398 14.0337 40.9377L14.6525 38.7623C14.6525 38.7602 14.6525 38.7581 14.6525 38.756L15.3464 36.2993L16.0278 33.9113L16.6404 31.8234L17.153 30.1919L17.5343 29.0854L17.7844 28.4978C17.6307 28.613 17.5161 28.7588 17.4406 28.9354L17.5406 28.8541C17.6096 28.3787 17.438 28.0176 17.0258 27.7708C16.6135 27.5241 16.2142 27.5435 15.8278 27.8289L15.759 28.254L15.4965 29.2854L15.0214 30.9983C15.0192 31.0066 15.0171 31.0149 15.0151 31.0233L14.44 33.2612C14.4379 33.2654 14.4358 33.2695 14.4337 33.2737L13.8461 35.6992C13.8461 35.7033 13.8461 35.7075 13.8461 35.7117L13.3023 38.0121C13.3023 38.0142 13.3023 38.0163 13.3023 38.0184L12.5021 41.5253L12.2333 42.6505C12.2311 42.6609 12.229 42.6713 12.2271 42.6817L12.0771 43.4319L11.9895 43.8195L11.9708 43.882C11.9127 44.1702 11.9627 44.4383 12.1208 44.6862C12.2789 44.9341 12.5009 45.0925 12.7867 45.1614C13.0725 45.2304 13.3423 45.1906 13.596 45.042C13.8497 44.8934 14.0165 44.6776 14.0962 44.3946L14.1462 44.1695L14.2962 43.5944L14.615 42.5505C14.615 42.5484 14.615 42.5463 14.615 42.5442L15.0714 41.0064C15.0735 41.0044 15.0755 41.0023 15.0776 41.0002L15.6527 39.006C15.6548 39.004 15.6569 39.0019 15.659 38.9998L16.9655 34.3427L17.5656 32.2548L18.0532 30.5857L18.397 29.4417L18.6158 28.8416C18.4089 28.979 18.263 29.1645 18.1782 29.398L18.2595 29.3417C18.3132 28.8642 18.1349 28.5001 17.7248 28.2497C17.3147 27.9992 16.9095 28.0069 16.5091 28.2728L16.4654 28.7041L16.2966 29.5855L16.0028 30.967C16.0028 30.9691 16.0028 30.9712 16.0028 30.9733L15.6152 32.8299C15.6152 32.832 15.6152 32.834 15.6152 32.8361L15.1714 35.0428L14.7088 37.337L14.29 39.4624L13.9337 41.2377L13.6649 42.5505L13.4898 43.4069L13.3835 43.8382L13.3398 43.9757C13.3989 44.2218 13.5263 44.4251 13.7218 44.5856C13.9174 44.7462 14.1416 44.8316 14.3944 44.8418C14.6472 44.8519 14.8776 44.7849 15.0854 44.6405C15.2932 44.4962 15.4365 44.3037 15.5152 44.0633L15.4839 43.9382C15.4564 44.0912 15.4606 44.2433 15.4965 44.3946L15.5777 43.9445L15.759 43.1131L16.0903 41.8191C16.0925 41.8108 16.0946 41.8024 16.0966 41.7941L16.5091 40.0312C16.5091 40.0271 16.5091 40.0229 16.5091 40.0187L16.978 37.9121C16.9801 37.91 16.9822 37.9079 16.9842 37.9058L17.4656 35.6554L17.9407 33.5113L18.347 31.7109L18.6721 30.3794L18.8971 29.5292L19.0346 29.1292C18.7722 29.1079 18.5309 29.1695 18.3108 29.3139C18.0907 29.4583 17.9381 29.6551 17.8531 29.9043L17.9032 29.9106C17.9252 29.7534 17.9151 29.5983 17.873 29.4453C17.8308 29.2923 17.76 29.1539 17.6606 29.0302C17.5611 28.9065 17.4412 28.8076 17.3009 28.7336C17.1605 28.6595 17.0112 28.6163 16.853 28.6041L16.8029 28.9791L16.6654 29.7418L16.4279 30.992C16.4257 30.9983 16.4237 31.0045 16.4216 31.0108L16.0966 32.8861C16.0965 32.8945 16.0965 32.9028 16.0966 32.9111L15.7465 35.2241C15.7465 35.2282 15.7465 35.2324 15.7465 35.2366L15.4027 37.6558L15.0714 39.8375L14.8088 41.5503L14.5963 42.7318L14.4588 43.4319L14.3587 43.7945C14.5083 43.6495 14.6104 43.4766 14.665 43.2756L14.6088 43.3256C14.5774 43.5647 14.6182 43.7908 14.7313 44.0038C14.8445 44.2168 15.0089 44.3772 15.2246 44.4851C15.4403 44.5929 15.6673 44.6282 15.9056 44.5909C16.1439 44.5536 16.3492 44.4507 16.5216 44.2821L16.5592 44.0258L16.7217 43.3756L17.053 42.2254C17.0551 42.2233 17.0572 42.2213 17.0592 42.2192L17.4968 40.6751L17.9969 38.8935C17.997 38.8873 17.997 38.881 17.9969 38.8748L18.497 37.0057C18.497 37.0015 18.497 36.9973 18.497 36.9932L18.9409 35.2366L19.2909 33.8363L19.5097 33.0862C19.4704 32.8185 19.3517 32.5925 19.1537 32.4081C18.9557 32.2237 18.7218 32.1214 18.452 32.1012C18.1823 32.081 17.9357 32.1472 17.7125 32.3C17.4892 32.4528 17.3381 32.6586 17.2593 32.9174L17.278 33.0487C17.2928 32.9424 17.2928 32.8361 17.278 32.7299L17.128 33.7801L16.8467 35.5116L16.5091 37.5558C16.5091 37.5579 16.5091 37.5599 16.5091 37.562L16.1903 39.5874L15.9153 41.3753C15.9132 41.3794 15.9111 41.3836 15.909 41.3878L15.709 42.8005L15.559 43.8007L15.4652 44.4196C15.463 44.43 15.4609 44.4404 15.4589 44.4508L15.4214 44.7571C15.4186 44.78 15.4166 44.8029 15.4152 44.8259L15.4089 44.9322C15.3907 45.2195 15.4714 45.4757 15.651 45.7007C15.8305 45.9258 16.0624 46.0613 16.3466 46.1074H16.3716C16.8032 46.1784 17.1553 46.043 17.4281 45.7011L17.4656 45.6511C17.5139 45.5908 17.5556 45.5262 17.5906 45.4573L17.6469 45.3448C17.6656 45.3082 17.6823 45.2707 17.6969 45.2322L17.7781 45.0134C17.7826 44.9989 17.7868 44.9844 17.7906 44.9697L17.9157 44.5884L18.0844 44.0883L18.2907 43.4694C18.2907 43.4652 18.2907 43.4611 18.2907 43.4569L18.5158 42.7505L18.7346 42.1191L18.8971 41.7441C18.6879 41.3258 18.3496 41.1233 17.8821 41.1365C17.4146 41.1497 17.0883 41.371 16.903 41.8003L16.9217 41.8503C16.9628 41.6123 16.9294 41.3852 16.8217 41.169L16.7404 41.6315C16.7404 41.6378 16.7404 41.6441 16.7404 41.6503L16.6342 42.3442C16.6316 42.3629 16.6295 42.3816 16.6279 42.4004L16.5654 43.0631C16.5503 43.2218 16.5753 43.3739 16.6404 43.5194L16.7592 43.7882C16.8221 43.929 16.9245 44.0295 17.0665 44.0897C17.2085 44.1498 17.3519 44.1535 17.4968 44.1008L17.7781 44.0008C18.0099 43.9155 18.1787 43.7613 18.2845 43.5382L18.572 42.9318C18.5891 42.8931 18.6037 42.8535 18.6158 42.813L18.8346 42.1504C18.8436 42.1298 18.8519 42.109 18.8596 42.0879L18.9784 41.6315C19.0619 41.3175 19.0161 41.0237 18.8408 40.7501L18.8096 40.7126C18.5707 40.3373 18.2296 40.1689 17.7863 40.2074C17.3431 40.2459 17.0361 40.4705 16.8655 40.8814L16.6967 41.294C16.6901 41.3084 16.6839 41.323 16.6779 41.3377L16.4279 42.0129C16.4236 42.0212 16.4194 42.0295 16.4154 42.0379L16.1716 42.7568C16.1695 42.7588 16.1674 42.7609 16.1653 42.763L15.959 43.3819C15.9569 43.3881 15.9548 43.3944 15.9528 43.4006L15.8028 43.882L15.6715 44.2383C15.6715 44.2425 15.6715 44.2466 15.6715 44.2508L15.6152 44.4071L15.5902 44.4571C15.623 44.4114 15.6522 44.3634 15.6777 44.3133L15.6402 44.3633C15.8741 44.442 16.1083 44.4432 16.343 44.3669C16.5776 44.2906 16.7663 44.1519 16.9092 43.9507L16.8842 43.9382C16.8683 44.1915 16.9313 44.4233 17.0731 44.6337C17.2149 44.8441 17.4062 44.9894 17.6469 45.0697V45.0197L17.6906 44.7696C17.6906 44.7655 17.6906 44.7613 17.6906 44.7571L17.7844 44.1383L17.9344 43.1318C17.9344 43.1298 17.9344 43.1277 17.9344 43.1256L18.1407 41.7191L18.4158 39.9437L18.7533 37.9308C18.7533 37.9288 18.7533 37.9267 18.7533 37.9246L19.0971 35.8867L19.4034 34.1551C19.4057 34.1447 19.4078 34.1343 19.4097 34.1239L19.566 33.0612C19.5826 32.9486 19.5826 32.8361 19.566 32.7236L19.5472 32.5923C19.5061 32.3231 19.3849 32.0967 19.1838 31.9131C18.9827 31.7295 18.7462 31.6294 18.4744 31.6128C18.2026 31.5962 17.9557 31.6669 17.7338 31.8247C17.5118 31.9826 17.3641 32.1926 17.2905 32.4548L17.078 33.2362C17.0759 33.2424 17.0738 33.2487 17.0718 33.255L16.7154 34.674L16.2716 36.4243L15.784 38.2809L15.2839 40.05L14.8463 41.594C14.8463 41.5982 14.8463 41.6024 14.8463 41.6065L14.5275 42.7818C14.5253 42.7922 14.5232 42.8026 14.5213 42.813L14.3462 43.5444C14.3381 43.5816 14.3318 43.6191 14.3275 43.6569L14.2837 43.982C14.2236 44.4513 14.3917 44.8152 14.788 45.0736C15.1844 45.332 15.5851 45.339 15.9903 45.0947L16.0466 45.0635C16.2956 44.9128 16.4623 44.6982 16.5467 44.4196L16.6654 44.0258C16.6755 43.9907 16.6838 43.9553 16.6904 43.9195L16.8467 43.1693C16.8469 43.1589 16.8469 43.1485 16.8467 43.1381L17.0592 41.9316C17.0614 41.9254 17.0635 41.9191 17.0655 41.9129L17.3343 40.1875L17.6719 38.0059L18.0594 35.5866L18.4345 33.28L18.7471 31.4046C18.7471 31.4004 18.7471 31.3963 18.7471 31.3921L18.9471 30.1419L19.0784 29.348C19.0784 29.3417 19.0784 29.3355 19.0784 29.3292L19.1409 28.9291C19.1675 28.7547 19.1546 28.5832 19.1022 28.4147C19.0499 28.2461 18.9633 28.0975 18.8425 27.9689C18.7218 27.8402 18.579 27.7444 18.4141 27.6814C18.2493 27.6184 18.0789 27.5947 17.9032 27.6101L17.8531 27.6164C17.3547 27.6566 17.0234 27.9129 16.8592 28.3853L16.7092 28.8229C16.6998 28.8496 16.6915 28.8767 16.6842 28.9041L16.4466 29.798C16.4445 29.8064 16.4424 29.8147 16.4404 29.8231L16.1091 31.1796C16.109 31.1858 16.109 31.1921 16.1091 31.1983L15.7027 33.0112C15.7027 33.0132 15.7027 33.0153 15.7027 33.0174L15.2402 35.1741L14.7588 37.4245L14.2962 39.5186L13.8836 41.2752L13.5711 42.588C13.5689 42.5984 13.5668 42.6088 13.5648 42.6192L13.3773 43.4944C13.3748 43.511 13.3728 43.5277 13.371 43.5444L13.2898 44.0195C13.2776 44.0962 13.2734 44.1733 13.2773 44.2508L13.2835 44.3821C13.2939 44.6377 13.381 44.8639 13.5448 45.0604C13.7086 45.257 13.9153 45.3835 14.1648 45.4399C14.4144 45.4962 14.6554 45.4708 14.8878 45.3637C15.1202 45.2566 15.296 45.0898 15.4152 44.8634L15.5027 44.6946C15.5459 44.6152 15.5792 44.5319 15.6027 44.4446L15.7277 43.9445C15.7323 43.9279 15.7365 43.9112 15.7402 43.8945L15.9278 43.0193C15.9278 43.0172 15.9278 43.0151 15.9278 43.0131L16.1966 41.6941C16.1966 41.692 16.1966 41.6899 16.1966 41.6878L16.5529 39.9187C16.5529 39.9166 16.5529 39.9146 16.5529 39.9125L16.9717 37.7871L17.4343 35.4991L17.8907 33.305C17.8928 33.3008 17.8948 33.2966 17.8969 33.2925L18.2595 31.4296C18.2595 31.4275 18.2595 31.4254 18.2595 31.4234L18.522 30.0168L18.6971 29.0729C18.7024 29.0439 18.7065 29.0147 18.7096 28.9854L18.7596 28.5166C18.8118 28.0296 18.6261 27.6631 18.2025 27.4173C17.7789 27.1714 17.3687 27.1919 16.9717 27.4789L16.8905 27.5414C16.698 27.6801 16.5626 27.8613 16.4841 28.0852L16.2653 28.7166C16.2608 28.7332 16.2566 28.7498 16.2528 28.7666L15.9028 29.9481C15.9007 29.9522 15.8986 29.9564 15.8965 29.9606L15.4214 31.6359L14.8276 33.73C14.8255 33.7321 14.8234 33.7342 14.8213 33.7363L13.5211 38.3997L12.9522 40.3876L12.5021 41.9191C12.5 41.9233 12.4979 41.9274 12.4959 41.9316L12.1958 42.9943C12.1936 43.0047 12.1915 43.0151 12.1896 43.0256L12.027 43.6507C12.0249 43.6569 12.0228 43.6632 12.0208 43.6694L11.9645 43.9132C11.886 44.205 11.9221 44.4817 12.0728 44.7436C12.2236 45.0054 12.4448 45.1756 12.7366 45.2541C13.0283 45.3327 13.3051 45.2966 13.5669 45.1458C13.8287 44.9951 13.9989 44.7738 14.0774 44.4821L14.1024 44.3946C14.1045 44.3904 14.1066 44.3863 14.1087 44.3821L14.2275 43.9695C14.2299 43.9529 14.232 43.9362 14.2337 43.9195L14.415 43.1693C14.4171 43.1652 14.4192 43.161 14.4212 43.1568L14.6775 42.0254L15.4902 38.5247L16.0341 36.2368L16.6404 33.8238L17.2155 31.5859C17.2177 31.5776 17.2198 31.5692 17.2218 31.5609L17.6281 29.8168C17.6302 29.8106 17.6323 29.8043 17.6344 29.798L17.8719 28.7041C17.8768 28.6813 17.881 28.6584 17.8844 28.6353L17.9594 28.1602C17.9918 27.9371 17.9577 27.7246 17.8571 27.5228C17.7565 27.3209 17.6075 27.1658 17.4098 27.0572C17.2122 26.9486 17.0012 26.906 16.777 26.9294C16.5527 26.9528 16.3551 27.038 16.1841 27.185L16.0841 27.2663C15.9528 27.3801 15.8549 27.5176 15.7903 27.6789L15.5402 28.304C15.5332 28.3267 15.5269 28.3496 15.5215 28.3728L15.1401 29.5292C15.138 29.5334 15.1359 29.5376 15.1339 29.5417L14.615 31.1983C14.6128 31.2066 14.6108 31.215 14.6088 31.2233L14.0024 33.33C14.0024 33.3321 14.0024 33.3341 14.0024 33.3362L13.3335 35.7304L12.6397 38.1871L12.0208 40.3626C12.0208 40.3667 12.0208 40.3709 12.0208 40.3751L11.2706 43.1131C11.2706 43.1172 11.2706 43.1214 11.2706 43.1256L11.1269 43.6882C11.1269 43.6903 11.1269 43.6924 11.1269 43.6944L11.0769 43.8882C11.0266 44.151 11.0741 44.3947 11.2194 44.6194C11.3647 44.844 11.5674 44.9873 11.8277 45.0492C12.088 45.1112 12.3336 45.0746 12.5645 44.9394C12.7953 44.8043 12.9475 44.6081 13.021 44.3508L13.071 44.1383L13.2273 43.4694C13.2273 43.4652 13.2273 43.4611 13.2273 43.4569L13.4898 42.2692L13.8836 40.5313L14.3962 38.2809C14.3984 38.2768 14.4004 38.2726 14.4025 38.2684L14.9588 35.6742L15.5277 33.0237C15.5277 33.0216 15.5277 33.0195 15.5277 33.0174L16.0216 30.667L16.3841 28.9229L16.5842 27.9602C16.6003 27.8776 16.6065 27.7942 16.6029 27.7101L16.5967 27.4789C16.5906 27.2246 16.5044 27.0013 16.3381 26.809C16.1718 26.6166 15.9633 26.4991 15.7126 26.4564C15.4619 26.4138 15.2262 26.4557 15.0056 26.5822C14.785 26.7087 14.6298 26.8909 14.54 27.1288L14.3775 27.5539C14.3707 27.5724 14.3645 27.5912 14.3587 27.6101L14.0524 28.5916C14.0503 28.5936 14.0482 28.5957 14.0462 28.5978L13.6023 30.0793L13.021 31.986L12.3584 34.1739L11.6957 36.3931C11.6957 36.3972 11.6957 36.4014 11.6957 36.4056L10.6018 40.225L10.2142 41.5565L9.97665 42.3817L9.85788 42.713C9.79503 42.9812 9.83393 43.2337 9.97459 43.4705C10.1152 43.7073 10.3183 43.8622 10.5839 43.9354C10.8495 44.0085 11.1032 43.9793 11.3453 43.8478C11.5873 43.7164 11.75 43.5194 11.8333 43.2569L11.852 43.1818L11.977 42.638C11.977 42.6359 11.977 42.6338 11.977 42.6317L12.2083 41.6003L12.5646 40.1188C12.5667 40.1167 12.5688 40.1146 12.5709 40.1125L13.0085 38.2372L13.5086 36.1368L14.0087 34.0301L14.4588 32.161L14.8588 30.6482L15.1901 29.523L15.3964 28.8229C15.4267 28.7209 15.4412 28.6167 15.4402 28.5103V28.354C15.4406 28.1021 15.3599 27.8795 15.1982 27.6863C15.0364 27.4931 14.8315 27.3745 14.5834 27.3306C14.3353 27.2867 14.1021 27.3277 13.8839 27.4536C13.6656 27.5796 13.5134 27.7609 13.4273 27.9977L13.271 28.4165C13.2689 28.4207 13.2668 28.4249 13.2648 28.429L12.9397 29.348C12.9376 29.3542 12.9355 29.3604 12.9335 29.3667L12.4834 30.7232C12.4812 30.7295 12.4791 30.7357 12.4771 30.742L11.9145 32.5361C11.9145 32.5382 11.9145 32.5402 11.9145 32.5423L11.2581 34.6802C11.2581 34.6823 11.2581 34.6844 11.2581 34.6865L10.5705 36.9619C10.5705 36.964 10.5705 36.9661 10.5705 36.9682L9.94539 39.0936C9.94325 39.0998 9.94116 39.106 9.93914 39.1123L9.4578 40.8752C9.45569 40.8793 9.4536 40.8835 9.45155 40.8877L9.12649 42.1692C9.12437 42.1733 9.12229 42.1775 9.12024 42.1817L8.92645 42.9818C8.92202 42.9942 8.91785 43.0067 8.91395 43.0193L8.83893 43.4131C8.82864 43.4626 8.82239 43.5127 8.82018 43.5632L8.81393 43.6069C8.80579 43.845 8.87749 44.0559 9.02905 44.2397C9.1806 44.4235 9.37401 44.5341 9.60928 44.5714C9.84455 44.6088 10.0627 44.5636 10.2637 44.4358C10.4648 44.308 10.5983 44.1296 10.6643 43.9007L10.7455 43.6257C10.7477 43.6195 10.7498 43.6132 10.7518 43.6069L10.9143 42.9818L11.1644 42.0316C11.1666 42.0212 11.1687 42.0108 11.1706 42.0004L11.4769 40.6876C11.4791 40.6814 11.4812 40.6751 11.4832 40.6689L11.827 39.0248C11.827 39.0227 11.827 39.0206 11.827 39.0186L12.2146 37.0807L12.6709 34.9303L13.1523 32.7486L13.6148 30.842L13.9399 29.5105C13.9421 29.5022 13.9442 29.4938 13.9462 29.4855L14.0712 28.9041C14.1271 28.6574 14.0955 28.4225 13.9764 28.1993C13.8574 27.9762 13.6799 27.8191 13.4438 27.7282C13.2078 27.6372 12.9708 27.6345 12.7328 27.7201C12.4947 27.8056 12.3137 27.9586 12.1896 28.179L12.1021 28.3353C12.0687 28.395 12.0416 28.4576 12.0208 28.5228L11.7645 29.3105C11.7623 29.3188 11.7602 29.3271 11.7582 29.3355L11.3519 30.6857C11.3519 30.6899 11.3519 30.694 11.3519 30.6982L10.8331 32.5298L10.2204 34.699L9.59533 36.8806C9.59527 36.8869 9.59527 36.8931 9.59533 36.8994L9.10148 38.7623C9.10148 38.7643 9.10148 38.7664 9.10148 38.7685L8.75142 40.15C8.75141 40.1521 8.75141 40.1542 8.75142 40.1563L8.52012 41.0752C8.51793 41.0835 8.51584 41.0918 8.51387 41.1002L8.3951 41.6315C8.39284 41.6419 8.39076 41.6524 8.38885 41.6628L8.35759 41.8378C8.32562 42.0823 8.37958 42.306 8.51947 42.509C8.65936 42.712 8.84921 42.842 9.08903 42.8992C9.32884 42.9563 9.55694 42.9258 9.77333 42.8077C9.98973 42.6896 10.1388 42.5143 10.2204 42.2817L10.2767 42.0941C10.2811 42.0817 10.2853 42.0692 10.2892 42.0566L10.4205 41.5253C10.4227 41.5149 10.4248 41.5045 10.4267 41.494L10.6143 40.6189L10.8643 39.4374L11.1831 37.9684L11.5707 36.2618L12.002 34.4302L12.4459 32.6548L12.8334 31.1796C12.8335 31.1775 12.8335 31.1754 12.8334 31.1733L13.0835 30.1856L13.1835 29.7918C13.2551 29.5294 13.2235 29.2801 13.0886 29.0439C12.9538 28.8077 12.7551 28.6538 12.4928 28.5822C12.2304 28.5106 11.9811 28.5422 11.7449 28.6771C11.5087 28.8119 11.3548 29.0106 11.2831 29.2729L11.2144 29.498C11.2144 29.5001 11.2144 29.5022 11.2144 29.5042L10.9768 30.3231C10.9747 30.3273 10.9726 30.3315 10.9706 30.3356L10.6018 31.6797L10.1017 33.4237L9.53282 35.4054L8.96396 37.3495L8.46386 38.9998L8.10129 40.1938L7.87 40.8689L7.76373 41.144C7.91788 41.5438 8.20922 41.7453 8.63776 41.7483C9.06631 41.7514 9.36049 41.5541 9.52031 41.1565L9.49531 41.0939C9.47304 41.2524 9.48971 41.4065 9.54532 41.5565L9.59533 41.1815L9.72035 40.5063L9.91414 39.4686L10.2017 38.0996L10.558 36.4431L10.9706 34.6552L11.4082 32.8736C11.4082 32.8715 11.4082 32.8695 11.4082 32.8674L11.7832 31.3108C11.7854 31.3067 11.7874 31.3025 11.7895 31.2983L12.0395 30.2106C12.0456 30.1754 12.0498 30.14 12.052 30.1044L12.1083 29.6168C12.1412 29.3806 12.0935 29.1621 11.9651 28.9612C11.8367 28.7602 11.6584 28.6251 11.4303 28.5558C11.2021 28.4865 10.9788 28.4997 10.7604 28.5952C10.5419 28.6908 10.3807 28.8458 10.2767 29.0604L10.2017 29.2104C10.182 29.2509 10.1653 29.2926 10.1517 29.3355L9.92664 29.9981C9.92449 30.0043 9.9224 30.0106 9.92039 30.0168L9.58283 31.0858C9.57846 31.0961 9.57429 31.1065 9.57032 31.117L9.18275 32.5048C9.18054 32.5131 9.17846 32.5214 9.1765 32.5298L8.78267 34.1114C8.78264 34.1155 8.78264 34.1197 8.78267 34.1239L8.41385 35.7179C8.41379 35.7242 8.41379 35.7304 8.41385 35.7367L8.12005 37.1182C8.11793 37.1223 8.11585 37.1265 8.1138 37.1307L7.91376 38.1371C7.91369 38.1434 7.91369 38.1496 7.91376 38.1559L7.81374 38.7247C7.81138 38.7372 7.8093 38.7497 7.80749 38.7623L7.78248 38.9498C7.75243 39.1879 7.81094 39.4018 7.95802 39.5915C8.1051 39.7812 8.2977 39.8911 8.53582 39.9213C8.77393 39.9515 8.98788 39.8931 9.17765 39.7462C9.36742 39.5992 9.47747 39.4067 9.50781 39.1686L9.52031 39.0623L9.62033 38.6247C9.623 38.606 9.62508 38.5873 9.62658 38.5685L9.75786 37.7683L9.95165 36.6368L10.2017 35.2053L10.508 33.5675L10.8268 31.9047L11.1269 30.4419L11.3582 29.3667C11.3604 29.3584 11.3624 29.3501 11.3644 29.3417L11.4769 28.7416C11.5047 28.5969 11.5006 28.4531 11.4644 28.3103L11.4394 28.2102C11.3846 28.003 11.2732 27.8327 11.1053 27.6994C10.9375 27.5661 10.7464 27.4962 10.5321 27.4897C10.3178 27.4832 10.1229 27.5414 9.94724 27.6643C9.77161 27.7872 9.65013 27.9505 9.58283 28.154L9.4578 28.5353C9.45554 28.5457 9.45346 28.5561 9.45155 28.5666L9.21401 29.3917C9.21398 29.3959 9.21398 29.4001 9.21401 29.4042L8.88269 30.6044L8.47636 32.0547C8.47636 32.0568 8.47636 32.0589 8.47636 32.061L8.05754 33.5675C8.05542 33.5717 8.05333 33.5758 8.05128 33.58L7.69497 34.9615C7.69493 34.9657 7.69493 34.9699 7.69497 34.974L7.42616 36.0617C7.42396 36.07 7.42188 36.0784 7.41991 36.0867L7.26363 36.8181C7.25871 36.8388 7.25454 36.8597 7.25113 36.8806L7.20112 37.2182C7.16565 37.4488 7.21459 37.6599 7.34793 37.8514C7.48128 38.0429 7.66226 38.162 7.89087 38.2087C8.11949 38.2554 8.33269 38.2169 8.53047 38.0931C8.72826 37.9693 8.85608 37.7943 8.91395 37.5683L8.93895 37.487C8.9435 37.4725 8.94767 37.4579 8.95146 37.4433L9.05147 36.9619C9.05154 36.9557 9.05154 36.9494 9.05147 36.9432L9.2015 36.1117L9.40154 35.0115L9.63283 33.7363L9.88913 32.411C9.88917 32.4069 9.88917 32.4027 9.88913 32.3985L10.1142 31.1608C10.1142 31.1587 10.1142 31.1566 10.1142 31.1546L10.308 30.0856C10.3101 30.0814 10.3122 30.0773 10.3142 30.0731L10.4455 29.2792C10.4488 29.2522 10.4509 29.2251 10.4517 29.1979L10.483 28.8104C10.4761 28.5795 10.3915 28.3819 10.2292 28.2175C10.0669 28.0531 9.87036 27.966 9.63958 27.9562C9.40881 27.9463 9.20556 28.0163 9.02985 28.1663C8.85414 28.3162 8.75299 28.5059 8.72641 28.7353V29.2167L8.6389 29.9418L8.51387 30.8983L8.35134 31.9735L8.18881 33.0112L8.02628 33.8988L7.88875 34.4802L7.78248 34.7552C7.94798 34.7827 8.10353 34.7548 8.24911 34.6714C8.3947 34.588 8.49754 34.468 8.55763 34.3114L8.47011 34.2989C8.51503 34.6603 8.71715 34.8708 9.07648 34.9303L9.04522 34.674L9.02647 34.1926L9.06398 33.4362L9.14524 32.4173L9.32028 31.2233L9.56407 29.9981L9.82037 28.9666L9.98915 28.3478L10.0767 28.1227C9.96301 28.0539 9.84011 28.0127 9.70796 27.9991C9.5758 27.9855 9.44708 28.0008 9.32179 28.045C9.1965 28.0892 9.08666 28.158 8.99228 28.2515C8.8979 28.345 8.82803 28.4542 8.78267 28.5791L8.88269 28.6416C8.83809 28.3815 8.70264 28.1835 8.47636 28.0477L8.53263 28.354L8.53888 28.8604L8.50137 29.6105L8.40135 30.5169L8.25757 31.4484L8.09504 32.261L7.95752 32.7924L7.84499 33.0674C8.2553 33.0997 8.5366 32.9247 8.68891 32.5423L8.58889 32.5361C8.69483 32.9127 8.9428 33.1169 9.33278 33.1487L9.25776 32.8861L9.189 32.3735L9.12024 31.6109L9.06398 30.7545L9.02022 29.9543C9.02059 29.9397 9.02059 29.9252 9.02022 29.9106L8.96396 29.3542C8.96207 29.3438 8.95999 29.3333 8.95771 29.323L8.91395 28.9979L8.90145 28.7854V28.6166C8.90148 28.6124 8.90148 28.6082 8.90145 28.6041L8.89519 28.4853V28.4353C8.75155 28.4616 8.63404 28.5317 8.54267 28.6456C8.45129 28.7595 8.40836 28.8895 8.41385 29.0354H8.43886C8.30457 28.9015 8.14412 28.8514 7.95752 28.8854L7.98877 28.9166L8.02628 28.9604C8.00964 28.9172 7.98672 28.8776 7.95752 28.8416L7.98252 28.9104C7.98445 28.9167 7.98654 28.9229 7.98877 28.9291L8.00753 28.9604C8.0911 29.1433 8.23209 29.2183 8.43049 29.1852C8.62888 29.1521 8.73794 29.0355 8.75767 28.8354ZM17.0905 43.4069L16.9842 43.4256C16.7996 43.4761 16.7246 43.5954 16.7592 43.7836C16.7937 43.9719 16.9063 44.0567 17.0968 44.0383L17.203 44.0195C17.3876 43.9691 17.4627 43.8498 17.4281 43.6615C17.3935 43.4733 17.281 43.3884 17.0905 43.4069Z" fill="black"/>
<path d="M16.9592 28.354C16.9592 28.4559 16.9952 28.5428 17.0672 28.6148C17.1392 28.6868 17.2261 28.7228 17.328 28.7229C17.4298 28.7228 17.5168 28.6868 17.5888 28.6148C17.6608 28.5428 17.6968 28.4559 17.6968 28.354C17.6968 28.2522 17.6608 28.1653 17.5888 28.0932C17.5168 28.0212 17.4298 27.9852 17.328 27.9852C17.2261 27.9852 17.1392 28.0212 17.0672 28.0932C16.9952 28.1653 16.9592 28.2522 16.9592 28.354ZM16.9217 28.3353C16.9217 28.4492 16.9619 28.5465 17.0425 28.627C17.1231 28.7076 17.2203 28.7479 17.3342 28.7479C17.4482 28.7479 17.5454 28.7076 17.626 28.627C17.7065 28.5465 17.7468 28.4492 17.7468 28.3353C17.7468 28.2213 17.7065 28.1241 17.626 28.0435C17.5454 27.963 17.4482 27.9227 17.3342 27.9227C17.2203 27.9227 17.1231 27.963 17.0425 28.0435C16.9619 28.1241 16.9217 28.2213 16.9217 28.3353ZM17.378 28.7979H17.403H17.4218C17.5283 28.8112 17.6325 28.8008 17.7343 28.7666L17.8406 28.7354C17.9171 28.7086 17.988 28.6711 18.0531 28.6228L18.1594 28.5478C18.2258 28.4999 18.2842 28.4437 18.3344 28.379L18.4032 28.2853C18.4095 28.2791 18.4158 28.2729 18.4219 28.2665L18.472 28.1978C18.3138 28.2604 18.1846 28.3604 18.0844 28.4978L18.1719 28.4603C18.0987 28.4701 18.0279 28.4889 17.9594 28.5166L18.0469 28.5041H18.1469C18.2082 28.502 18.2686 28.4937 18.3282 28.4791L18.4407 28.4478C18.6436 28.3976 18.8082 28.2892 18.9345 28.1227L18.9846 28.0602C19.1175 27.8892 19.18 27.6954 19.1721 27.4789L19.1658 27.4101C19.1525 27.1067 19.0191 26.8712 18.7658 26.7037L18.7283 26.6787C18.6196 26.6064 18.5008 26.5601 18.3719 26.5399C18.243 26.5196 18.1158 26.5272 17.9902 26.5626C17.8646 26.5981 17.7522 26.6582 17.6529 26.7428C17.5536 26.8275 17.4766 26.9291 17.4218 27.0475L17.3843 27.1288C17.3395 27.224 17.3124 27.3241 17.303 27.4289L17.2905 27.5976C17.2905 27.5997 17.2905 27.6018 17.2905 27.6039L17.2717 27.8102C17.2688 27.8519 17.2688 27.8935 17.2717 27.9352L17.2842 28.129C17.3039 28.4789 17.4777 28.7155 17.8059 28.8388C18.134 28.962 18.4206 28.8984 18.6657 28.6478L18.8033 28.5103C18.9655 28.3455 19.051 28.1476 19.0596 27.9164L19.0658 27.7539L19.0846 27.6226C19.0467 27.7043 19.0217 27.7897 19.0096 27.8789L19.0471 27.7977C18.9384 27.7254 18.8197 27.6791 18.6907 27.6588C18.5618 27.6385 18.4346 27.6461 18.309 27.6816C18.1834 27.717 18.071 27.7771 17.9717 27.8618C17.8724 27.9465 17.7954 28.0481 17.7406 28.1665L17.7781 28.1915C17.7396 27.9261 17.6083 27.7199 17.3843 27.5726L17.3968 27.6414C17.5287 27.4504 17.5788 27.24 17.5468 27.01L17.4968 27.0788C17.6928 27.0183 17.8491 26.9037 17.9656 26.735L17.9156 26.7475L17.8843 26.7537L17.7906 26.76C17.6813 26.7676 17.5772 26.7947 17.478 26.8412L17.3905 26.8787C17.2507 26.9445 17.1361 27.0403 17.0467 27.1663L16.9967 27.2351C16.9272 27.3316 16.8793 27.4379 16.8529 27.5539L16.8279 27.6664C16.8256 27.6768 16.8235 27.6872 16.8216 27.6977L16.7966 27.8289C16.7786 27.9203 16.7765 28.0119 16.7904 28.104L16.8091 28.2103C16.8214 28.2826 16.8443 28.3513 16.8779 28.4165L16.8842 28.429L16.8904 28.4478C16.9671 28.6841 17.1296 28.8008 17.378 28.7979ZM17.8156 27.9602L17.6593 28.0477C17.4928 28.1395 17.4553 28.2686 17.5469 28.4352C17.6386 28.6018 17.7677 28.6393 17.9344 28.5478L18.0906 28.4603C18.2572 28.3686 18.2946 28.2394 18.203 28.0728C18.1114 27.9062 17.9822 27.8687 17.8156 27.9602Z" fill="black"/>
<path d="M10.9268 28.8979C10.9268 29.0083 10.9659 29.1026 11.044 29.1808C11.1221 29.2589 11.2164 29.2979 11.3269 29.2979C11.4374 29.2979 11.5317 29.2589 11.6098 29.1808C11.6879 29.1026 11.727 29.0083 11.727 28.8979C11.727 28.7874 11.6879 28.6931 11.6098 28.615C11.5317 28.5368 11.4374 28.4978 11.3269 28.4978C11.2164 28.4978 11.1221 28.5368 11.044 28.615C10.9659 28.6931 10.9268 28.7874 10.9268 28.8979ZM10.4705 28.8979C10.4705 29.105 10.5437 29.2818 10.6902 29.4283C10.8367 29.5748 11.0135 29.648 11.2206 29.648C11.4278 29.648 11.6046 29.5748 11.7511 29.4283C11.8975 29.2818 11.9708 29.105 11.9708 28.8979C11.9708 28.6907 11.8975 28.5139 11.7511 28.3674C11.6046 28.2209 11.4278 28.1477 11.2206 28.1477C11.0135 28.1477 10.8367 28.2209 10.6902 28.3674C10.5437 28.5139 10.4705 28.6907 10.4705 28.8979ZM10.383 28.9104C10.383 29.1296 10.4605 29.3167 10.6155 29.4717C10.7705 29.6267 10.9576 29.7043 11.1769 29.7043C11.3961 29.7043 11.5832 29.6267 11.7382 29.4717C11.8933 29.3167 11.9708 29.1296 11.9708 28.9104C11.9708 28.6911 11.8933 28.504 11.7382 28.349C11.5832 28.194 11.3961 28.1165 11.1769 28.1165C10.9576 28.1165 10.7705 28.194 10.6155 28.349C10.4605 28.504 10.383 28.6911 10.383 28.9104ZM10.4892 29.4292L10.5142 29.4605C10.745 29.7729 11.0513 29.8938 11.4332 29.823L11.627 29.7918C11.6803 29.7816 11.7324 29.767 11.7832 29.748L12.027 29.6542L12.2958 29.5792C12.5504 29.5154 12.7452 29.3708 12.8801 29.1456C13.015 28.9204 13.0505 28.6805 12.9866 28.4259C12.9227 28.1713 12.7782 27.9765 12.553 27.8416C12.3278 27.7068 12.0879 27.6713 11.8332 27.7351L11.5332 27.7976C11.4754 27.8091 11.4191 27.8258 11.3644 27.8477L11.0894 27.9602C11.0681 27.9698 11.0473 27.9803 11.0268 27.9914L10.8518 28.0789C10.671 28.1677 10.5335 28.3011 10.4392 28.479L10.4205 28.5165C10.253 28.8351 10.2759 29.1393 10.4892 29.4292ZM11.5957 28.6916C11.5957 28.8694 11.6586 29.0211 11.7843 29.1469C11.91 29.2726 12.0618 29.3354 12.2396 29.3354C12.4174 29.3354 12.5691 29.2726 12.6949 29.1469C12.8206 29.0211 12.8834 28.8694 12.8834 28.6916C12.8834 28.5138 12.8206 28.362 12.6949 28.2363C12.5691 28.1106 12.4174 28.0477 12.2396 28.0477C12.0618 28.0477 11.91 28.1106 11.7843 28.2363C11.6586 28.362 11.5957 28.5138 11.5957 28.6916ZM12.1083 28.9229L12.1708 29.0416C12.2728 29.1788 12.3995 29.2078 12.5509 29.1285C12.7023 29.0491 12.7506 28.9285 12.6959 28.7666L12.6334 28.6478C12.5314 28.5106 12.4047 28.4817 12.2533 28.561C12.1019 28.6403 12.0536 28.7609 12.1083 28.9229Z" fill="black"/>
<path d="M11.4461 11.8637C11.4461 11.9621 11.4809 12.0461 11.5505 12.1157C11.6201 12.1852 11.7041 12.22 11.8024 12.22C11.9008 12.22 11.9848 12.1852 12.0544 12.1157C12.124 12.0461 12.1588 11.9621 12.1588 11.8637C12.1588 11.7653 12.124 11.6813 12.0544 11.6118C11.9848 11.5422 11.9008 11.5074 11.8024 11.5074C11.7041 11.5074 11.6201 11.5422 11.5505 11.6118C11.4809 11.6813 11.4461 11.7653 11.4461 11.8637ZM11.4149 11.8762C11.4149 11.985 11.4533 12.0778 11.5302 12.1547C11.6071 12.2316 11.6999 12.27 11.8087 12.27C11.9174 12.27 12.0103 12.2316 12.0872 12.1547C12.1641 12.0778 12.2025 11.985 12.2025 11.8762C12.2025 11.7675 12.1641 11.6746 12.0872 11.5977C12.0103 11.5208 11.9174 11.4824 11.8087 11.4824C11.6999 11.4824 11.6071 11.5208 11.5302 11.5977C11.4533 11.6746 11.4149 11.7675 11.4149 11.8762ZM11.3024 11.9262C11.3024 12.0712 11.3536 12.195 11.4561 12.2975C11.5587 12.4001 11.6824 12.4513 11.8275 12.4513C11.9725 12.4513 12.0962 12.4001 12.1988 12.2975C12.3013 12.195 12.3526 12.0712 12.3526 11.9262C12.3526 11.7812 12.3013 11.6575 12.1988 11.5549C12.0962 11.4524 11.9725 11.4011 11.8275 11.4011C11.6824 11.4011 11.5587 11.4524 11.4561 11.5549C11.3536 11.6575 11.3024 11.7812 11.3024 11.9262ZM11.6712 12.5138L11.7212 12.5326C11.9858 12.6204 12.213 12.562 12.4026 12.3576L12.5213 12.2263C12.5571 12.1902 12.5884 12.1507 12.6151 12.1075L12.7776 11.82C12.782 11.8117 12.7861 11.8034 12.7901 11.7949L13.0214 11.3636C13.0359 11.3353 13.0484 11.3061 13.0589 11.2761L13.2652 10.7135C13.282 10.6688 13.2945 10.623 13.3027 10.576L13.4215 9.89459C13.4297 9.84911 13.4339 9.80327 13.434 9.75706L13.4403 9.01317C13.4388 8.97537 13.4346 8.93786 13.4278 8.90065L13.3152 8.11925C13.3116 8.0813 13.3054 8.04379 13.2965 8.00673L13.0652 7.23158C13.0567 7.19969 13.0462 7.16844 13.0339 7.13781L12.7151 6.38767C12.7009 6.3511 12.6842 6.31568 12.6651 6.2814L12.2713 5.61252C12.2576 5.59106 12.243 5.57022 12.2275 5.55001L11.8149 4.9749C11.8108 4.97069 11.8067 4.96652 11.8024 4.9624L11.4711 4.51856L11.2773 4.16224L11.1773 3.89344L11.1711 3.73091L11.2398 3.51212L11.4649 3.1558L11.8587 2.67446C11.8764 2.6523 11.8931 2.62938 11.9087 2.6057L12.2963 2.03684C12.3265 1.99381 12.3515 1.94797 12.3713 1.89931L12.5338 1.49299L12.9152 1.2867C13.086 1.19501 13.1256 1.06374 13.0339 0.892872C12.9422 0.722006 12.811 0.682415 12.6401 0.774099L12.24 0.992891L11.7899 0.942881C11.6914 0.935093 11.5956 0.947596 11.5024 0.980389L10.846 1.19293C10.7248 1.23316 10.6164 1.29567 10.521 1.38046L10.0084 1.8368C9.9405 1.8975 9.88216 1.96626 9.83332 2.04309L9.50201 2.55569C9.45387 2.62983 9.41636 2.70902 9.38949 2.79323L9.22696 3.31208C9.19194 3.42409 9.17736 3.53869 9.1832 3.6559L9.20195 4.13724C9.20842 4.26846 9.23967 4.39348 9.29572 4.51231L9.50826 4.9749C9.54064 5.04198 9.58023 5.10449 9.62703 5.16243L9.95835 5.58752C9.96652 5.59601 9.97486 5.60435 9.98335 5.61252L10.3709 6.08136L10.7898 6.60646L11.2023 7.17532L11.5274 7.78168L11.7337 8.4193L11.8462 9.08193L11.8587 9.71955L11.7899 10.3197L11.6774 10.8448L11.5586 11.2261L11.4461 11.4511L11.3649 11.5887C11.3345 11.6397 11.3116 11.6939 11.2961 11.7512L11.2836 11.8012C11.2444 11.9525 11.2621 12.0967 11.3367 12.234C11.4114 12.3713 11.5229 12.4646 11.6712 12.5138Z" fill="black"/>
</g>
<defs>
<clipPath id="clip0_1_7272">
<rect width="26" height="48" fill="white"/>
</clipPath>
</defs>
</svg>
