<svg width="43" height="43" viewBox="0 0 43 43" fill="none" xmlns="http://www.w3.org/2000/svg">
<g clip-path="url(#clip0_1_7164)">
<path d="M23.4532 1.75153L23.4345 1.72659L23.3472 1.63932C23.2899 1.58298 23.2234 1.54142 23.1477 1.51464L22.8859 1.41489C22.8494 1.40099 22.812 1.3906 22.7737 1.38372L22.356 1.31514C22.3374 1.3102 22.3187 1.30604 22.2999 1.30268L21.7575 1.25904L21.1216 1.1967L20.4047 1.12189C20.4005 1.12186 20.3964 1.12186 20.3922 1.12189L19.5693 1.04708C19.5652 1.04705 19.561 1.04705 19.5569 1.04708L18.6217 0.984738C18.6197 0.984732 18.6176 0.984732 18.6155 0.984738L17.5744 0.922397C17.5661 0.922275 17.5578 0.922275 17.5495 0.922397L16.4149 0.891227C16.4045 0.89104 16.3941 0.89104 16.3837 0.891227L15.1992 0.903695C15.1868 0.903428 15.1743 0.903428 15.1618 0.903695L13.9711 0.959802C13.9565 0.961515 13.942 0.963593 13.9275 0.966036L12.7305 1.08448C12.7201 1.0843 12.7098 1.0843 12.6994 1.08448L11.5024 1.2528C11.4899 1.25461 11.4774 1.25669 11.465 1.25904L10.2743 1.471C10.2576 1.4726 10.241 1.47468 10.2244 1.47723L9.05242 1.75777C9.03149 1.76118 9.01071 1.76534 8.99008 1.77023L7.93028 2.10064C7.90066 2.10954 7.87157 2.11993 7.84301 2.13181L6.86426 2.55573C6.82769 2.57208 6.79236 2.59078 6.75828 2.61184L5.92914 3.11056C5.88966 3.1347 5.85226 3.16172 5.81693 3.19161L5.12494 3.77138C5.07648 3.81249 5.03285 3.85821 4.99403 3.90853L4.42049 4.63168C4.3866 4.67875 4.35751 4.72863 4.33322 4.7813L3.86566 5.69148C3.84933 5.72181 3.83478 5.75298 3.82202 5.78499L3.41057 6.87595C3.40385 6.89239 3.39762 6.90902 3.39187 6.92582L3.01159 8.16641C3.00716 8.17879 3.00301 8.19125 2.99912 8.20381L2.63754 9.56908C2.63528 9.57943 2.63321 9.58982 2.63131 9.60025L2.3009 11.0653C2.29871 11.0735 2.29663 11.0819 2.29467 11.0902L2.00167 12.63C1.99947 12.6383 1.99739 12.6466 1.99543 12.655L1.72737 14.2571C1.72725 14.2654 1.72725 14.2737 1.72737 14.2821L1.4967 15.9154C1.49459 15.9195 1.49252 15.9237 1.49047 15.9278L1.29098 17.5736C1.29087 17.582 1.29087 17.5903 1.29098 17.5986L1.12889 19.2569C1.12872 19.2672 1.12872 19.2776 1.12889 19.288L1.01668 20.9525C1.01662 20.9588 1.01662 20.965 1.01668 20.9712L0.948105 22.6295C0.948076 22.6337 0.948076 22.6378 0.948105 22.642L0.898232 24.2815C0.898168 24.2878 0.898168 24.294 0.898232 24.3002L0.885764 25.8712C0.885735 25.8754 0.885735 25.8795 0.885764 25.8837L0.898232 27.3799C0.898118 27.3882 0.898118 27.3965 0.898232 27.4048L0.941871 28.8199C0.941757 28.8283 0.941757 28.8366 0.941871 28.8449L1.02915 30.1852C1.02889 30.1977 1.02889 30.2101 1.02915 30.2226L1.16006 31.4757C1.16188 31.4882 1.16396 31.5006 1.1663 31.5131L1.32838 32.6851C1.33035 32.6934 1.33242 32.7017 1.33462 32.71L1.52164 33.8072C1.52354 33.8176 1.52562 33.828 1.52787 33.8384L1.74607 34.8919C1.74797 34.9024 1.75004 34.9128 1.7523 34.9231L1.99543 35.9143C2.00106 35.9332 2.0073 35.9519 2.01413 35.9704L2.31337 36.9243C2.32208 36.956 2.33247 36.9872 2.34454 37.0178L2.74352 37.9279C2.75991 37.9645 2.77861 37.9998 2.79963 38.0339L3.29836 38.8631C3.32254 38.9025 3.34955 38.9399 3.3794 38.9753L3.99657 39.7171C4.02701 39.7551 4.06026 39.7904 4.09632 39.8231L4.85064 40.4839C4.884 40.5135 4.91933 40.5405 4.95662 40.565L5.82316 41.126C5.86112 41.1497 5.90061 41.1705 5.94161 41.1884L6.95153 41.6497C6.98799 41.6667 7.02539 41.6812 7.06375 41.6933L8.20458 42.0487C8.23327 42.0584 8.26236 42.0667 8.29186 42.0736L9.55738 42.3417C9.58421 42.347 9.61123 42.3512 9.63842 42.3542L11.0162 42.5162C11.0348 42.5189 11.0535 42.521 11.0723 42.5225L12.5684 42.6097C12.5851 42.6102 12.6017 42.6102 12.6183 42.6097L14.1893 42.616C14.2018 42.6162 14.2142 42.6162 14.2267 42.616L15.8351 42.5599C15.8434 42.56 15.8517 42.56 15.86 42.5599L17.4684 42.4664C17.4747 42.4664 17.4809 42.4664 17.4871 42.4664L19.1018 42.3354C19.1039 42.3354 19.1059 42.3354 19.108 42.3354L20.7164 42.1921C20.7185 42.1921 20.7206 42.1921 20.7226 42.1921L22.2749 42.0424L23.7649 41.924L25.2049 41.818L26.6076 41.712C26.6201 41.7123 26.6326 41.7123 26.645 41.712L28.0041 41.5624C28.0145 41.5605 28.0249 41.5584 28.0352 41.5562L29.3568 41.3629C29.3673 41.361 29.3777 41.3589 29.388 41.3567L30.6535 41.126C30.6619 41.1241 30.6702 41.122 30.6785 41.1198L31.8879 40.8704C31.8983 40.8685 31.9087 40.8665 31.9191 40.8642L33.0537 40.5961C33.062 40.5942 33.0703 40.5921 33.0786 40.5899L34.1696 40.2969C34.1927 40.2915 34.2155 40.2853 34.2381 40.2782L35.2792 39.9104C35.3003 39.9028 35.3211 39.8945 35.3416 39.8855L36.3515 39.4553C36.377 39.4439 36.4019 39.4315 36.4263 39.4179L37.3926 38.8942C37.4271 38.8755 37.4604 38.8548 37.4923 38.8319L38.3651 38.2085C38.3956 38.1873 38.4246 38.1645 38.4524 38.1399L39.2129 37.4417C39.2393 37.4181 39.2642 37.3932 39.2878 37.3669L39.9486 36.6188C39.9706 36.5949 39.9914 36.57 40.0109 36.544L40.572 35.7523C40.59 35.7261 40.6066 35.6991 40.6218 35.6712L41.1019 34.8296C41.1156 34.8032 41.1281 34.7762 41.1393 34.7486L41.5445 33.8384C41.5558 33.8159 41.5662 33.7931 41.5757 33.7698L41.8998 32.8534C41.9092 32.8288 41.9175 32.8039 41.9248 32.7786L42.1741 31.831C42.1791 31.8083 42.1833 31.7854 42.1866 31.7624L42.3674 30.7899C42.3721 30.7713 42.3763 30.7526 42.3799 30.7338L42.5045 29.7675C42.5048 29.7551 42.5048 29.7426 42.5045 29.7301L42.5856 28.7825C42.5879 28.7701 42.59 28.7576 42.5918 28.7451L42.6292 27.8287C42.6316 27.8142 42.6337 27.7997 42.6355 27.7851L42.6292 26.9123C42.6296 26.8978 42.6296 26.8832 42.6292 26.8687L42.5918 26.0208C42.592 26.0105 42.592 26.0001 42.5918 25.9897L42.5232 25.1481L42.4547 24.2441C42.4547 24.242 42.4547 24.24 42.4547 24.2379L42.3736 23.2778L42.2926 22.2742L42.2053 21.1957L42.1243 20.0735L42.0495 18.9077L41.9746 17.6298C41.9747 17.6235 41.9747 17.6173 41.9746 17.6111L41.8749 16.3019C41.8731 16.2873 41.8711 16.2728 41.8687 16.2583L41.719 14.9616C41.7173 14.947 41.7152 14.9324 41.7128 14.9179L41.5009 13.6337C41.499 13.6212 41.4969 13.6087 41.4946 13.5963L41.2328 12.2996C41.2289 12.2871 41.2247 12.2746 41.2203 12.2622L40.9086 10.9967C40.9032 10.9736 40.8969 10.9508 40.8899 10.9281L40.4785 9.66882C40.4713 9.64146 40.463 9.61445 40.4535 9.58778L39.9548 8.39084C39.9416 8.36105 39.9271 8.33196 39.9112 8.30356L39.3252 7.20012C39.3117 7.17457 39.2971 7.14964 39.2815 7.12532L38.6394 6.12163C38.6222 6.0916 38.6035 6.0625 38.5833 6.03435L37.8726 5.13664C37.8493 5.10617 37.8244 5.07708 37.7978 5.04936L37.0248 4.2701C36.9936 4.23674 36.9603 4.20557 36.925 4.17659L36.0772 3.50954C36.0394 3.48196 35.9999 3.45702 35.9588 3.43474L35.0174 2.8799C34.9792 2.85661 34.9398 2.83583 34.899 2.81756L33.8766 2.38117C33.8479 2.36952 33.8188 2.35913 33.7893 2.35L32.6921 1.98219C32.6593 1.9702 32.6261 1.95981 32.5923 1.95102L31.3767 1.67672C31.352 1.66961 31.327 1.66338 31.3019 1.65802L29.9553 1.44606C29.9346 1.44339 29.9138 1.44131 29.893 1.43983L28.428 1.29021C28.4135 1.28784 28.3989 1.28576 28.3843 1.28397L26.8258 1.19046C26.8175 1.19037 26.8092 1.19037 26.8009 1.19046L25.2174 1.12812L23.7337 1.05955L22.4245 0.928631L21.265 0.735375C21.2113 0.727013 21.1573 0.722857 21.1029 0.722906L20.1055 0.716672C20.0552 0.715882 20.0053 0.720038 19.9558 0.729141L19.3636 0.841354L18.9272 0.660566C18.8377 0.624414 18.7485 0.625206 18.6596 0.662942C18.5708 0.700678 18.5083 0.764304 18.4721 0.853822C18.436 0.94334 18.4368 1.03253 18.4745 1.12139C18.5122 1.21025 18.5759 1.27276 18.6654 1.30891L19.1142 1.4897L19.5195 1.96972C19.57 2.02849 19.6282 2.07837 19.694 2.11934L20.5356 2.65547C20.6324 2.71611 20.7363 2.75974 20.8473 2.78639L22.0193 3.07939C22.0645 3.09061 22.1102 3.09893 22.1565 3.10433L23.528 3.26018C23.5528 3.26311 23.5778 3.26519 23.6028 3.26641L25.1239 3.33499C25.126 3.335 25.1281 3.335 25.1301 3.33499L26.7011 3.39733L28.2285 3.49084L29.6436 3.63423L30.9403 3.82125L32.0811 4.06438L33.0973 4.36985L34.0199 4.74389L34.8491 5.21768L35.5909 5.78499L36.2767 6.47074L36.925 7.28117L37.5297 8.21005L38.0846 9.23244L38.5584 10.3421L38.9511 11.5266L39.2566 12.736L39.5184 13.9828L39.7304 15.2234L39.8862 16.4827L39.9922 17.7544L40.067 19.02C40.067 19.022 40.067 19.0241 40.067 19.0262L40.1418 20.2044C40.1438 20.2107 40.1459 20.2169 40.1481 20.2231L40.2353 21.3515C40.2353 21.3557 40.2353 21.3598 40.2353 21.364L40.3351 22.4425C40.3371 22.4466 40.3392 22.4508 40.3413 22.4549L40.4411 23.4586L40.5346 24.4062L40.6156 25.3039L40.6842 26.1331L40.7341 26.9435L40.7403 27.7664L40.6967 28.6392L40.6218 29.5493L40.5034 30.4657L40.3351 31.3822L40.1044 32.2549L39.8052 33.1028L39.4374 33.9319L39.001 34.6925L38.496 35.4094L37.9038 36.0827L37.2243 36.7061L36.445 37.2609L35.566 37.7409L34.6247 38.1524L33.6459 38.5015L32.6048 38.782L31.5014 39.0376L30.3107 39.2807L29.0701 39.5052L27.7796 39.6984L26.4518 39.8418L25.0678 39.9478L23.6277 40.0538C23.6256 40.0538 23.6236 40.0538 23.6215 40.0538L22.1191 40.1722C22.1149 40.1722 22.1108 40.1722 22.1066 40.1722L20.5481 40.3218C20.546 40.3218 20.5439 40.3218 20.5418 40.3218L18.9459 40.4777L17.35 40.6086L15.7603 40.7021L14.1831 40.7582L12.6557 40.752L11.2094 40.6709L9.88779 40.5151L8.70955 40.272L7.66222 39.9478L6.76451 39.5488L6.01019 39.0563L5.36184 38.489L4.83194 37.8531L4.40179 37.1362L4.04645 36.3258L3.77215 35.4468L3.53525 34.5054L3.32329 33.483L3.1425 32.4108L2.97418 31.2699L2.8495 30.0481L2.76222 28.7451L2.71859 27.3549L2.70612 25.8775L2.71859 24.3189L2.75599 22.6981L2.83703 21.0647L2.94925 19.4189L3.11133 17.7856L3.30459 16.1585L3.53525 14.5439L3.79708 12.9667L4.08385 11.4518L4.41426 10.0117L4.7509 8.6776L5.11871 7.48689L5.49899 6.47074L5.90421 5.67901L6.35929 5.093L6.9266 4.61921L7.64352 4.18906L8.51629 3.80878L9.50128 3.49708L10.6234 3.21031L11.7642 2.99835L12.9238 2.83003L14.0833 2.71158L15.2366 2.64924L16.4024 2.6243L17.5245 2.61807L18.5469 2.63054L19.4633 2.66794L20.2862 2.70535C20.2987 2.70772 20.3111 2.7098 20.3237 2.71158H21.0468C21.0551 2.71172 21.0634 2.71172 21.0717 2.71158L21.7139 2.68664C21.7159 2.68665 21.718 2.68665 21.7201 2.68664L22.2687 2.66171C22.277 2.66186 22.2853 2.66186 22.2936 2.66171L22.7238 2.6243C22.7511 2.62193 22.7781 2.61777 22.8048 2.61184L23.0791 2.54326C23.1391 2.52994 23.1952 2.50708 23.2474 2.47469L23.3347 2.42481L23.341 2.41858C23.4682 2.35544 23.5437 2.25381 23.5673 2.11369C23.5908 1.97356 23.5528 1.85284 23.4532 1.75153Z" fill="black"/>
<path d="M15.5144 23.8108L15.4706 23.7733C15.4665 23.7711 15.4623 23.769 15.4581 23.767L15.3769 23.7045C15.3967 23.8096 15.4488 23.895 15.5331 23.9608L15.5144 23.842C15.4637 23.9433 15.4491 24.0496 15.4706 24.1608L15.5019 24.1046C15.5303 24.0449 15.549 23.9824 15.5581 23.917L15.5706 23.817C15.5902 23.6936 15.5798 23.5727 15.5394 23.4544L15.4956 23.3419C15.4611 23.2421 15.409 23.1525 15.3393 23.0731L15.2893 23.0169C15.2035 22.9195 15.1005 22.8465 14.9803 22.7978C14.86 22.749 14.7352 22.7297 14.6059 22.7399C14.4765 22.75 14.3563 22.7885 14.2451 22.8554C14.1339 22.9222 14.0435 23.0104 13.9739 23.1199C13.9043 23.2294 13.8629 23.3487 13.8495 23.4778C13.8362 23.6068 13.8524 23.7321 13.8982 23.8535C13.9439 23.9749 14.0144 24.0797 14.1096 24.1678C14.2048 24.256 14.3146 24.3183 14.4392 24.3546L14.4892 24.3796C14.5761 24.4222 14.6678 24.4472 14.7642 24.4546L14.8643 24.4671C14.9429 24.473 15.02 24.4646 15.0956 24.4421L15.1581 24.4234C15.0779 24.4082 14.9987 24.4123 14.9205 24.4359L14.9955 24.4484L15.0518 24.4734C15.1078 24.4967 15.1662 24.5071 15.2268 24.5046L15.2831 24.4984C15.4618 24.4921 15.5797 24.4041 15.6367 24.2346C15.6937 24.0651 15.653 23.9238 15.5144 23.8108ZM13.8328 23.2169L13.8078 23.2857C13.7209 23.4693 13.6959 23.661 13.7328 23.8608L13.7828 24.1046C13.8034 24.2079 13.8388 24.3058 13.8891 24.3984L14.1516 24.886C14.167 24.9159 14.1836 24.9451 14.2016 24.9735L14.6955 25.7111C14.7075 25.7281 14.72 25.7448 14.733 25.7611L15.4331 26.6988C15.4452 26.7137 15.4578 26.7283 15.4706 26.7426L16.3208 27.7803C16.333 27.7931 16.3455 27.8056 16.3583 27.8178L17.2647 28.8117C17.2689 28.8159 17.273 28.8201 17.2772 28.8242L18.0836 29.6681L18.7087 30.337L19.1213 30.8058L19.3776 31.1184L19.5089 31.2934L19.5652 31.3747C19.6389 31.4818 19.7285 31.5735 19.834 31.6498L19.8715 31.6748C20.0141 31.7762 20.1719 31.8411 20.3447 31.8693C20.5174 31.8975 20.6876 31.8863 20.8552 31.8355C21.0227 31.7848 21.1705 31.6997 21.2986 31.5803C21.4267 31.461 21.5219 31.3195 21.5843 31.1559L21.603 31.1122C21.6123 31.0874 21.6206 31.0624 21.628 31.0371L21.6531 30.9496L21.6968 30.8184L21.8281 30.5433L22.1594 29.9557L22.7658 28.9117L23.7847 27.2989L25.2287 25.0923L26.8978 22.5668L28.5356 20.1413C28.5377 20.1392 28.5398 20.1372 28.5419 20.1351L29.9046 18.0909C29.9427 18.034 29.9739 17.9736 29.9984 17.9096L30.5797 16.4031L31.3486 15.6405C31.4699 15.499 31.4656 15.3614 31.3358 15.2277C31.2059 15.0941 31.0685 15.0858 30.9236 15.2029L30.1297 15.9905L28.7044 16.7907C28.6086 16.8444 28.5253 16.9132 28.4543 16.997L26.8665 18.8723C26.8491 18.8925 26.8324 18.9134 26.8165 18.9348L25.085 21.2978C25.0785 21.3081 25.0723 21.3185 25.0662 21.329L23.3534 23.8358C23.3491 23.842 23.345 23.8482 23.3409 23.8545L21.8906 26.0674C21.8864 26.0737 21.8822 26.0799 21.8781 26.0862L20.8466 27.724C20.8402 27.7343 20.834 27.7447 20.8279 27.7553L20.2028 28.8242C20.1985 28.8325 20.1943 28.8408 20.1903 28.8492L19.8402 29.4806C19.8291 29.5011 19.8187 29.5219 19.8089 29.5431L19.6339 29.9182C19.6202 29.9468 19.6077 29.976 19.5964 30.0057L19.5214 30.2182C19.5122 30.2429 19.5038 30.268 19.4964 30.2933L19.4651 30.3995C19.4908 30.3429 19.5116 30.2846 19.5276 30.2245L19.5089 30.2682C19.6416 30.3857 19.7936 30.4674 19.9647 30.5135C20.1359 30.5595 20.3083 30.565 20.482 30.53C20.6558 30.495 20.8127 30.4232 20.9526 30.3145C21.0926 30.2058 21.2011 30.0716 21.278 29.9119L21.2467 29.8869C21.296 29.9557 21.3522 30.0183 21.4155 30.0745L21.3405 29.9682C21.3364 29.9619 21.3322 29.9556 21.328 29.9494L21.178 29.7431C21.1698 29.7326 21.1615 29.7222 21.153 29.7119L20.8779 29.3681C20.8658 29.3532 20.8533 29.3386 20.8404 29.3243L20.3966 28.8242C20.3884 28.8158 20.38 28.8074 20.3716 28.7992L19.7339 28.1178C19.7339 28.1158 19.7339 28.1137 19.7339 28.1116L18.9338 27.2677L18.0461 26.305L17.2272 25.3173L16.5333 24.4109L16.002 23.6982C15.9879 23.6811 15.9733 23.6645 15.9582 23.6482L15.6019 23.2294C15.5482 23.1659 15.4878 23.1097 15.4206 23.0606L15.2206 22.9168C15.1867 22.8915 15.1513 22.8686 15.1143 22.8481L15.0518 22.8106C14.8281 22.6898 14.5956 22.6696 14.3544 22.75C14.1132 22.8304 13.9393 22.9861 13.8328 23.2169Z" fill="black"/>
</g>
<defs>
<clipPath id="clip0_1_7164">
<rect width="43" height="43" fill="white"/>
</clipPath>
</defs>
</svg>
