<svg width="35" height="31" viewBox="0 0 35 31" fill="none" xmlns="http://www.w3.org/2000/svg">
<g clip-path="url(#clip0_1_7162)">
<path d="M17.1533 19.2177C17.1533 19.3281 17.1923 19.4224 17.2704 19.5006C17.3486 19.5787 17.4429 19.6177 17.5533 19.6177C17.6638 19.6177 17.7581 19.5787 17.8362 19.5006C17.9144 19.4224 17.9534 19.3281 17.9534 19.2177C17.9534 19.1072 17.9144 19.0129 17.8362 18.9348C17.7581 18.8566 17.6638 18.8176 17.5533 18.8176C17.4429 18.8176 17.3486 18.8566 17.2704 18.9348C17.1923 19.0129 17.1533 19.1072 17.1533 19.2177ZM17.2783 18.8863L17.2345 18.9176C17.1049 19.0019 17.035 19.1212 17.025 19.2756C17.0151 19.4299 17.069 19.5573 17.1867 19.6576C17.3044 19.7579 17.4387 19.7908 17.5895 19.7564C17.7403 19.7221 17.847 19.6341 17.9097 19.4927L17.9284 19.4427C18.0241 19.2387 17.9863 19.0635 17.8152 18.917C17.644 18.7705 17.465 18.7603 17.2783 18.8863ZM16.922 19.3364C16.922 19.4849 16.9745 19.6116 17.0794 19.7166C17.1844 19.8215 17.3111 19.874 17.4596 19.874C17.608 19.874 17.7347 19.8215 17.8397 19.7166C17.9447 19.6116 17.9972 19.4849 17.9972 19.3364C17.9972 19.188 17.9447 19.0613 17.8397 18.9563C17.7347 18.8513 17.608 18.7988 17.4596 18.7988C17.3111 18.7988 17.1844 18.8513 17.0794 18.9563C16.9745 19.0613 16.922 19.188 16.922 19.3364ZM17.9847 19.5927L18.0284 19.5052L18.2222 19.1802C18.2222 19.1781 18.2222 19.176 18.2222 19.1739L18.6598 18.4363L19.3974 17.2048L20.4539 15.5107L21.8479 13.4353L23.5232 11.1099L25.3611 8.76567L27.2239 6.60276L28.9618 4.75241L30.437 3.28338C30.4413 3.27926 30.4454 3.27509 30.4495 3.27088L31.4872 2.20192C31.5178 2.16912 31.5448 2.1337 31.5685 2.09565L31.9873 1.43928C31.9917 1.43313 31.9958 1.42688 31.9998 1.42052L32.1311 1.18298C32.0651 1.13218 31.9912 1.11495 31.9095 1.13129C31.8278 1.14763 31.7662 1.19195 31.7248 1.26424L31.7748 1.30175C31.9207 1.41427 32.0498 1.3976 32.1624 1.25174C32.2749 1.10588 32.2582 0.976689 32.1124 0.864167L32.0624 0.82666C32.0107 0.787218 31.9523 0.768464 31.8873 0.770399H31.6123C31.5604 0.771923 31.5104 0.782342 31.4622 0.801655L30.7433 1.07671C30.6779 1.10093 30.6175 1.13427 30.5621 1.17673L29.3931 2.09565C29.3714 2.11127 29.3506 2.12794 29.3306 2.14566L27.8178 3.59594C27.8093 3.60409 27.8009 3.61243 27.7928 3.62094L26.0112 5.4838C26.0027 5.49195 25.9943 5.50029 25.9862 5.5088L24.0921 7.69672C24.0835 7.70694 24.0752 7.71735 24.0671 7.72797L22.198 10.0972C22.1916 10.1054 22.1853 10.1137 22.1792 10.1222L20.4851 12.4726C20.4766 12.4808 20.4683 12.4891 20.4601 12.4976L19.0661 14.6043C19.0618 14.6125 19.0577 14.6209 19.0536 14.6293L17.9972 16.3546C17.9884 16.3689 17.9801 16.3835 17.9722 16.3984L17.3033 17.6736C17.2894 17.698 17.2769 17.723 17.2658 17.7486L16.947 18.5488C16.9313 18.5852 16.9188 18.6228 16.9095 18.6613L16.8282 19.0614C16.8104 19.1422 16.8084 19.2235 16.8219 19.3052L16.847 19.4302C16.8998 19.7157 17.07 19.879 17.3574 19.9201C17.6449 19.9612 17.854 19.852 17.9847 19.5927Z" fill="black"/>
<path d="M30.5745 1.70184C30.5745 1.81231 30.6135 1.90661 30.6917 1.98473C30.7698 2.06285 30.8641 2.10191 30.9746 2.10191C31.085 2.10191 31.1793 2.06285 31.2574 1.98473C31.3356 1.90661 31.3746 1.81231 31.3746 1.70184C31.3746 1.59136 31.3356 1.49706 31.2574 1.41894C31.1793 1.34082 31.085 1.30176 30.9746 1.30176C30.8641 1.30176 30.7698 1.34082 30.6917 1.41894C30.6135 1.49706 30.5745 1.59136 30.5745 1.70184ZM30.537 1.70184C30.537 1.82094 30.5791 1.92261 30.6633 2.00683C30.7475 2.09106 30.8492 2.13317 30.9683 2.13317C31.0874 2.13317 31.1891 2.09106 31.2733 2.00683C31.3575 1.92261 31.3996 1.82094 31.3996 1.70184C31.3996 1.58273 31.3575 1.48106 31.2733 1.39684C31.1891 1.31261 31.0874 1.2705 30.9683 1.2705C30.8492 1.2705 30.7475 1.31261 30.6633 1.39684C30.5791 1.48106 30.537 1.58273 30.537 1.70184ZM30.3932 1.70809C30.3932 1.86517 30.4487 1.99925 30.5598 2.11033C30.6709 2.22141 30.805 2.27695 30.962 2.27695C31.1191 2.27695 31.2532 2.22141 31.3643 2.11033C31.4754 1.99925 31.5309 1.86517 31.5309 1.70809C31.5309 1.551 31.4754 1.41692 31.3643 1.30584C31.2532 1.19477 31.1191 1.13923 30.962 1.13923C30.805 1.13923 30.6709 1.19477 30.5598 1.30584C30.4487 1.41692 30.3932 1.551 30.3932 1.70809ZM30.2994 1.5018L30.2619 1.60807C30.1789 1.84251 30.1956 2.06964 30.3119 2.28945L30.4932 2.62076C30.5116 2.65761 30.5325 2.69304 30.5557 2.72703L30.9058 3.21462C30.9322 3.25228 30.9614 3.28771 30.9933 3.32089L31.5184 3.8585C31.5757 3.9162 31.6403 3.96412 31.7122 4.00227L32.3311 4.33359L32.8124 4.72116L33.1125 5.13999C33.2208 5.29403 33.3521 5.3169 33.5062 5.20862C33.6603 5.10033 33.6832 4.9691 33.575 4.81493L33.2687 4.38985L33.0312 3.80849L32.8749 3.1146C32.8585 3.03771 32.8314 2.96478 32.7936 2.89581L32.4186 2.24569C32.4033 2.21772 32.3867 2.19063 32.3686 2.16442L32.0185 1.67683C31.9992 1.64855 31.9784 1.62146 31.956 1.59557L31.6997 1.32051C31.557 1.16225 31.3799 1.07056 31.1683 1.04546L31.0558 1.03296C30.8905 1.01311 30.737 1.04706 30.5954 1.1348C30.4539 1.22254 30.3552 1.34487 30.2994 1.5018Z" fill="black"/>
<path d="M16.0655 30.3135C16.0655 30.4205 16.1034 30.5118 16.179 30.5875C16.2547 30.6631 16.346 30.701 16.453 30.701C16.56 30.701 16.6514 30.6631 16.727 30.5875C16.8027 30.5118 16.8406 30.4205 16.8406 30.3135C16.8406 30.2065 16.8027 30.1152 16.727 30.0395C16.6514 29.9639 16.56 29.9261 16.453 29.9261C16.346 29.9261 16.2547 29.9639 16.179 30.0395C16.1034 30.1152 16.0655 30.2065 16.0655 30.3135ZM15.9967 30.3135C15.9967 30.4361 16.04 30.5407 16.1267 30.6274C16.2134 30.714 16.318 30.7573 16.4405 30.7574C16.5631 30.7573 16.6677 30.714 16.7544 30.6274C16.841 30.5407 16.8844 30.4361 16.8844 30.3135C16.8844 30.191 16.841 30.0863 16.7544 29.9997C16.6677 29.913 16.5631 29.8697 16.4405 29.8697C16.318 29.8697 16.2134 29.913 16.1267 29.9997C16.04 30.0863 15.9967 30.191 15.9967 30.3135ZM16.303 29.8634L16.2843 29.8697C16.1912 29.8947 16.112 29.9427 16.0467 30.0135L16.0217 30.0385C15.9195 30.1576 15.881 30.2945 15.9061 30.4495C15.9313 30.6044 16.0112 30.7221 16.1459 30.8027C16.2805 30.8833 16.4221 30.8981 16.5705 30.8471C16.7189 30.7961 16.8215 30.6974 16.8781 30.5511L16.8906 30.5198C16.9318 30.3994 16.9276 30.2807 16.8781 30.1635L16.8719 30.1447C16.7644 29.8847 16.5748 29.791 16.303 29.8634ZM16.203 30.9199L16.228 30.9261C16.4638 31.0126 16.6743 30.9709 16.8594 30.8011L17.0656 30.6136C17.081 30.5976 17.0956 30.5809 17.1094 30.5636L17.5157 30.101C17.5312 30.0829 17.5458 30.0641 17.5595 30.0447L18.1721 29.2071C18.1764 29.2009 18.1805 29.1946 18.1846 29.1883L19.0285 27.9631C19.0349 27.9548 19.0412 27.9465 19.0473 27.9381L20.0787 26.319C20.0808 26.3149 20.0829 26.3107 20.085 26.3065L21.2727 24.3936L22.5917 22.2745L24.0232 19.9803L25.5048 17.6236L27.005 15.3294L28.4928 13.179L29.9431 11.2849L31.2308 9.72835L32.3373 8.49061L33.2375 7.51542L33.9189 6.80904C33.9209 6.80697 33.923 6.80488 33.9251 6.80279L34.3689 6.33395C34.4212 6.28061 34.467 6.22227 34.5065 6.15892L34.6627 5.89012C34.7792 5.68807 34.8182 5.47203 34.7797 5.242C34.7412 5.01198 34.634 4.82041 34.4581 4.66732C34.2821 4.51422 34.0776 4.43451 33.8444 4.42817C33.6113 4.42183 33.4027 4.49032 33.2187 4.63363L32.9749 4.82741C32.9395 4.85643 32.9062 4.88769 32.8749 4.92118L32.4373 5.39002L31.7559 6.10891C31.7517 6.11304 31.7476 6.11721 31.7434 6.12141L30.8308 7.1091C30.8266 7.11323 30.8224 7.1174 30.8183 7.1216L29.6931 8.37184C29.6845 8.38209 29.6762 8.39251 29.668 8.40309L28.349 9.9909C28.3406 9.99909 28.3322 10.0074 28.324 10.0159L26.8363 11.9288C26.8255 11.9431 26.815 11.9577 26.805 11.9725L25.2922 14.1542C25.2858 14.1624 25.2796 14.1708 25.2735 14.1792L23.7607 16.4984C23.7564 16.5046 23.7523 16.5108 23.7482 16.5171L22.2729 18.8801C22.2708 18.8822 22.2687 18.8842 22.2666 18.8863L20.8476 21.193C20.8455 21.1951 20.8434 21.1972 20.8414 21.1993L19.5536 23.3434C19.5536 23.3455 19.5536 23.3476 19.5536 23.3497L18.4034 25.2813C18.3992 25.2875 18.395 25.2938 18.3909 25.3001L17.4407 26.9629C17.4364 26.9711 17.4323 26.9795 17.4282 26.9879L16.7218 28.2944C16.7197 28.2965 16.7177 28.2985 16.7156 28.3006L16.2342 29.2258C16.2252 29.2442 16.2168 29.263 16.2092 29.2821L15.9717 29.8447C15.9651 29.857 15.9588 29.8695 15.9529 29.8822L15.8592 30.1447C15.7898 30.3429 15.8148 30.5284 15.9342 30.7011L15.9467 30.7198C16.0115 30.8129 16.0969 30.8796 16.203 30.9199ZM33.0062 5.34626C33.0062 5.57412 33.0867 5.76861 33.2479 5.92974C33.409 6.09086 33.6035 6.17142 33.8313 6.17142C34.0592 6.17142 34.2537 6.09086 34.4148 5.92974C34.5759 5.76861 34.6565 5.57412 34.6565 5.34626C34.6565 5.1184 34.5759 4.92391 34.4148 4.76279C34.2537 4.60167 34.0592 4.5211 33.8313 4.5211C33.6035 4.5211 33.409 4.60167 33.2479 4.76279C33.0867 4.92391 33.0062 5.1184 33.0062 5.34626ZM33.2687 5.62131L33.3 5.69633C33.3855 5.60882 33.4042 5.5088 33.3562 5.39627L33.2062 5.55255C33.077 5.68591 33.0791 5.81719 33.2125 5.94638C33.3458 6.07557 33.4771 6.07348 33.6063 5.94012L33.7563 5.78384C33.6389 5.72893 33.5347 5.74769 33.4438 5.84011L33.5188 5.87761C33.6661 5.9437 33.8105 5.93804 33.9522 5.86063C34.0939 5.78322 34.1767 5.66469 34.2006 5.50504C34.2245 5.3454 34.1801 5.2078 34.0674 5.09225C33.9547 4.9767 33.8182 4.92892 33.658 4.94891C33.4978 4.9689 33.3773 5.04874 33.2964 5.18845C33.2155 5.32816 33.2063 5.47244 33.2687 5.62131Z" fill="black"/>
<path d="M31.5123 2.06438C31.5122 2.17831 31.5525 2.27555 31.6331 2.35611C31.7137 2.43668 31.8109 2.47696 31.9248 2.47696C32.0388 2.47696 32.136 2.43668 32.2166 2.35611C32.2971 2.27555 32.3374 2.17831 32.3374 2.06438C32.3374 1.95045 32.2971 1.8532 32.2166 1.77264C32.136 1.69208 32.0388 1.6518 31.9248 1.6518C31.8109 1.6518 31.7137 1.69208 31.6331 1.77264C31.5525 1.8532 31.5122 1.95045 31.5123 2.06438ZM31.4622 2.03937C31.4622 2.16366 31.5062 2.26975 31.5941 2.35763C31.682 2.44552 31.788 2.48946 31.9123 2.48946C32.0366 2.48946 32.1427 2.44552 32.2306 2.35763C32.3185 2.26975 32.3624 2.16366 32.3624 2.03937C32.3624 1.91509 32.3185 1.809 32.2306 1.72111C32.1427 1.63323 32.0366 1.58929 31.9123 1.58929C31.788 1.58929 31.682 1.63323 31.5941 1.72111C31.5062 1.809 31.4622 1.91509 31.4622 2.03937ZM32.3062 2.32693L32.3312 2.29567C32.4435 2.15882 32.4854 2.00302 32.4568 1.8283C32.4283 1.65358 32.3391 1.51918 32.1891 1.42512C32.0391 1.33106 31.8793 1.30923 31.7096 1.35964C31.5399 1.41004 31.4179 1.51559 31.3436 1.67627C31.2693 1.83696 31.2678 1.99828 31.3393 2.16023C31.4108 2.32219 31.531 2.42985 31.6998 2.48321L31.731 2.49571C31.9612 2.57038 32.1529 2.51412 32.3062 2.32693ZM31.2434 1.86434C31.2434 2.04732 31.3081 2.2035 31.4375 2.33289C31.5669 2.46227 31.7231 2.52697 31.9061 2.52697C32.0891 2.52697 32.2452 2.46227 32.3746 2.33289C32.504 2.2035 32.5687 2.04732 32.5687 1.86434C32.5687 1.68136 32.504 1.52518 32.3746 1.39579C32.2452 1.26641 32.0891 1.20171 31.9061 1.20171C31.7231 1.20171 31.5669 1.26641 31.4375 1.39579C31.3081 1.52518 31.2434 1.68136 31.2434 1.86434ZM31.2872 2.14564L31.3685 2.32693C31.3777 2.35243 31.3881 2.37744 31.3997 2.40194L31.6248 2.80827C31.6307 2.82092 31.637 2.83342 31.6435 2.84578L32.0123 3.45214C32.0164 3.45844 32.0206 3.4647 32.0248 3.4709L32.4749 4.17103C32.4907 4.1926 32.5074 4.21344 32.5249 4.23354L33.0313 4.87741C33.1062 4.97449 33.1979 5.05159 33.3063 5.10871L33.8689 5.39626L34.2253 5.5838L34.4003 5.81509C34.5129 5.96476 34.6441 5.98341 34.7939 5.87104C34.9437 5.75868 34.9625 5.6275 34.8504 5.47753L34.6816 5.25248L34.6253 4.85866L34.5316 4.23354C34.5166 4.12937 34.4832 4.03143 34.4316 3.93973L34.0252 3.23335C34.0173 3.21853 34.009 3.20395 34.0002 3.18959L33.5501 2.48946L33.1688 1.88934C33.1461 1.85426 33.1211 1.82092 33.0938 1.78933L32.8 1.43926C32.6961 1.32053 32.569 1.23718 32.4187 1.18921L32.2311 1.12045C31.9182 1.01483 31.6499 1.08351 31.4262 1.32647C31.2025 1.56943 31.1562 1.84249 31.2872 2.14564Z" fill="black"/>
<path d="M3.18803 15.0231C3.18804 15.1318 3.22648 15.2247 3.30338 15.3016C3.38028 15.3785 3.47311 15.4169 3.58186 15.4169C3.69061 15.4169 3.78344 15.3785 3.86034 15.3016C3.93724 15.2247 3.97568 15.1318 3.97568 15.0231C3.97568 14.9143 3.93724 14.8215 3.86034 14.7446C3.78344 14.6677 3.69061 14.6293 3.58186 14.6293C3.47311 14.6293 3.38028 14.6677 3.30338 14.7446C3.22648 14.8215 3.18804 14.9143 3.18803 15.0231ZM3.14428 15.0293C3.14428 15.1485 3.18639 15.2501 3.27061 15.3343C3.35483 15.4186 3.4565 15.4607 3.57561 15.4607C3.69472 15.4607 3.79639 15.4186 3.88061 15.3343C3.96483 15.2501 4.00694 15.1485 4.00694 15.0293C4.00694 14.9102 3.96483 14.8086 3.88061 14.7243C3.79639 14.6401 3.69472 14.598 3.57561 14.598C3.4565 14.598 3.35483 14.6401 3.27061 14.7243C3.18639 14.8086 3.14428 14.9102 3.14428 15.0293ZM3.05051 15.0418C3.05051 15.1817 3.09995 15.301 3.19882 15.3999C3.29769 15.4988 3.41703 15.5482 3.55685 15.5482C3.69668 15.5482 3.81603 15.4988 3.9149 15.3999C4.01377 15.301 4.0632 15.1817 4.0632 15.0418C4.0632 14.902 4.01377 14.7827 3.9149 14.6838C3.81603 14.5849 3.69668 14.5355 3.55685 14.5355C3.41703 14.5355 3.29769 14.5849 3.19882 14.6838C3.09995 14.7827 3.05051 14.902 3.05051 15.0418ZM2.93174 15.0356C2.93174 15.2048 2.99155 15.3492 3.11117 15.4688C3.23079 15.5884 3.37518 15.6482 3.54435 15.6482C3.71352 15.6482 3.85792 15.5884 3.97754 15.4688C4.09716 15.3492 4.15697 15.2048 4.15697 15.0356C4.15697 14.8664 4.09716 14.722 3.97754 14.6024C3.85792 14.4828 3.71352 14.423 3.54435 14.423C3.37518 14.423 3.23079 14.4828 3.11117 14.6024C2.99155 14.722 2.93174 14.8664 2.93174 15.0356ZM3.57561 15.6982H3.72564L4.06945 15.7045L4.73833 15.7857L5.88855 16.0795L7.55762 16.6109L9.51424 17.2673C9.51839 17.2694 9.52256 17.2715 9.52674 17.2735L11.4959 17.9174C11.5021 17.9195 11.5083 17.9216 11.5146 17.9236L13.3087 18.4675C13.3416 18.4778 13.3749 18.4861 13.4087 18.4925L14.8965 18.7613L15.9467 18.9551L16.5906 19.2614C16.7418 19.3024 16.8511 19.2521 16.9183 19.1106C16.9855 18.9691 16.9555 18.8526 16.8281 18.7613L16.1843 18.4487L15.3341 17.7861C15.3259 17.7796 15.3176 17.7734 15.3091 17.7674L14.0589 16.911C14.0135 16.8793 13.9656 16.8522 13.9151 16.8297L12.196 16.0795C12.1836 16.073 12.1711 16.0668 12.1585 16.0608L10.2206 15.3169C10.2103 15.3126 10.1999 15.3084 10.1894 15.3044L8.22649 14.623C8.21205 14.6164 8.19746 14.6102 8.18274 14.6043L6.46366 14.0979C6.42264 14.0849 6.38096 14.0745 6.33863 14.0667L5.08214 13.8604C5.02003 13.8502 4.95752 13.846 4.89461 13.8479L4.11321 13.8666C3.98193 13.869 3.85691 13.8982 3.73814 13.9541L3.37557 14.1292C3.19737 14.2179 3.06818 14.3533 2.988 14.5355L2.91923 14.6793C2.86976 14.7909 2.84975 14.9076 2.85921 15.0293C2.86866 15.151 2.90645 15.2632 2.97256 15.3658C3.03868 15.4684 3.12519 15.5492 3.23211 15.6082C3.33903 15.6671 3.45353 15.6971 3.57561 15.6982Z" fill="black"/>
<path d="M12.6023 17.7924C12.6023 17.896 12.6389 17.9844 12.7122 18.0576C12.7854 18.1308 12.8738 18.1675 12.9774 18.1675C13.0809 18.1675 13.1693 18.1308 13.2426 18.0576C13.3158 17.9844 13.3524 17.896 13.3524 17.7924C13.3524 17.6888 13.3158 17.6004 13.2426 17.5272C13.1693 17.4539 13.0809 17.4173 12.9774 17.4173C12.8738 17.4173 12.7854 17.4539 12.7122 17.5272C12.6389 17.6004 12.6023 17.6888 12.6023 17.7924ZM12.5898 17.7799C12.5898 17.8869 12.6276 17.9783 12.7033 18.0539C12.779 18.1296 12.8703 18.1675 12.9774 18.1675C13.0844 18.1675 13.1757 18.1296 13.2514 18.0539C13.3271 17.9783 13.3649 17.8869 13.3649 17.7799C13.3649 17.6729 13.3271 17.5815 13.2514 17.5058C13.1757 17.4302 13.0844 17.3923 12.9774 17.3923C12.8703 17.3923 12.779 17.4302 12.7033 17.5058C12.6276 17.5815 12.5898 17.6729 12.5898 17.7799ZM12.346 17.7611C12.346 17.9372 12.4083 18.0875 12.5328 18.212C12.6573 18.3365 12.8075 18.3988 12.9836 18.3988C13.1597 18.3988 13.31 18.3365 13.4345 18.212C13.559 18.0875 13.6212 17.9372 13.6212 17.7611C13.6212 17.5851 13.559 17.4348 13.4345 17.3103C13.31 17.1858 13.1597 17.1235 12.9836 17.1235C12.8075 17.1235 12.6573 17.1858 12.5328 17.3103C12.4083 17.4348 12.346 17.5851 12.346 17.7611ZM12.5023 18.3362L12.6586 18.4925C12.7346 18.5711 12.8221 18.6336 12.9211 18.6801L13.3274 18.8613C13.366 18.8787 13.4056 18.8933 13.4462 18.9051L14.0276 19.0739C14.0928 19.0943 14.1595 19.1068 14.2276 19.1114L14.8777 19.1427C14.8819 19.1427 14.8861 19.1427 14.8902 19.1427L15.4778 19.1614L15.9154 19.1927L16.2092 19.3489C16.3634 19.4281 16.4801 19.3906 16.5593 19.2364C16.6385 19.0822 16.601 18.9655 16.4468 18.8864L16.1405 18.7301L15.8217 18.405C15.8155 18.4007 15.8093 18.3965 15.8029 18.3925L15.3653 17.9799C15.3473 17.9643 15.3286 17.9498 15.3091 17.9362L14.7965 17.5486C14.7457 17.5115 14.6915 17.4802 14.6339 17.4548L14.0838 17.1985C14.0612 17.1893 14.0383 17.1809 14.0151 17.1735L13.5962 17.0172C13.4849 16.9779 13.3703 16.9612 13.2524 16.9672L13.0274 16.9735C12.6823 16.9919 12.4477 17.1624 12.3235 17.4848C12.1992 17.8072 12.2588 18.091 12.5023 18.3362Z" fill="black"/>
<path d="M14.434 18.5863C14.434 18.6899 14.4706 18.7783 14.5438 18.8515C14.6171 18.9248 14.7055 18.9614 14.8091 18.9614C14.9126 18.9614 15.001 18.9248 15.0743 18.8515C15.1475 18.7783 15.1841 18.6899 15.1841 18.5863C15.1841 18.4827 15.1475 18.3943 15.0743 18.3211C15.001 18.2479 14.9126 18.2112 14.8091 18.2112C14.7055 18.2112 14.6171 18.2479 14.5438 18.3211C14.4706 18.3943 14.434 18.4827 14.434 18.5863ZM14.409 18.5801C14.409 18.6888 14.4474 18.7816 14.5243 18.8585C14.6012 18.9354 14.694 18.9739 14.8028 18.9739C14.9116 18.9739 15.0044 18.9354 15.0813 18.8585C15.1582 18.7816 15.1966 18.6888 15.1966 18.5801C15.1966 18.4713 15.1582 18.3785 15.0813 18.3016C15.0044 18.2247 14.9116 18.1862 14.8028 18.1862C14.694 18.1862 14.6012 18.2247 14.5243 18.3016C14.4474 18.3785 14.409 18.4713 14.409 18.5801ZM14.334 18.5676C14.334 18.6935 14.3786 18.801 14.4677 18.8901C14.5568 18.9792 14.6643 19.0237 14.7903 19.0237C14.9163 19.0237 15.0238 18.9792 15.1129 18.8901C15.202 18.801 15.2466 18.6935 15.2466 18.5676C15.2466 18.4416 15.202 18.3341 15.1129 18.245C15.0238 18.156 14.9163 18.1115 14.7903 18.1115C14.6643 18.1115 14.5568 18.156 14.4677 18.245C14.3786 18.3341 14.334 18.4416 14.334 18.5676ZM14.384 18.8489L14.4465 18.9426C14.4834 18.995 14.5272 19.0409 14.5778 19.0802L14.8278 19.2739C14.8686 19.3076 14.9123 19.3368 14.9591 19.3615L15.3967 19.5803C15.3987 19.5824 15.4008 19.5844 15.4029 19.5865L15.903 19.8366C15.9294 19.8505 15.9565 19.863 15.9843 19.8741L16.4969 20.0616C16.5517 20.0807 16.6079 20.0932 16.6657 20.0991L17.0782 20.1491L17.3908 20.1991C17.4412 20.2063 17.4912 20.2042 17.5408 20.1929L17.6909 20.1616C17.6268 20.1012 17.5518 20.0803 17.4658 20.0991L17.5533 20.1804C17.6722 20.2639 17.7811 20.2524 17.8801 20.1461C17.979 20.0398 17.9826 19.9304 17.8909 19.8178L17.8721 19.7928L17.8596 19.7303C17.8505 19.6716 17.8297 19.6174 17.7971 19.5678L17.6221 19.2927C17.618 19.2864 17.6139 19.2801 17.6096 19.2739L17.3595 18.9301C17.3158 18.868 17.2637 18.8138 17.2033 18.7676L16.7657 18.4425C16.7265 18.4117 16.6848 18.3846 16.6407 18.3613L16.1406 18.1112C16.0944 18.088 16.0465 18.0692 15.9968 18.055L15.5217 17.9237C15.4233 17.8956 15.3233 17.8872 15.2216 17.8987L14.9028 17.9362C14.7668 17.9525 14.648 18.0066 14.5465 18.0987L14.4652 18.1675C14.3678 18.2546 14.3114 18.363 14.2959 18.4928C14.2804 18.6226 14.3098 18.7413 14.384 18.8489Z" fill="black"/>
<path d="M12.7774 17.3923C12.806 17.614 12.9321 17.7249 13.1556 17.7249C13.3792 17.7249 13.5052 17.614 13.5338 17.3923C13.5052 17.1706 13.3792 17.0597 13.1556 17.0597C12.9321 17.0597 12.806 17.1706 12.7774 17.3923ZM12.7399 17.386C12.7399 17.5017 12.7808 17.6004 12.8626 17.6822C12.9444 17.764 13.0431 17.8049 13.1587 17.8049C13.2744 17.8049 13.3731 17.764 13.4549 17.6822C13.5367 17.6004 13.5776 17.5017 13.5776 17.386C13.5776 17.2704 13.5367 17.1717 13.4549 17.0899C13.3731 17.0081 13.2744 16.9672 13.1587 16.9672C13.0431 16.9672 12.9444 17.0081 12.8626 17.0899C12.7808 17.1717 12.7399 17.2704 12.7399 17.386ZM12.8024 17.7174L12.9212 17.8736C12.9699 17.9382 13.0282 17.9924 13.0962 18.0362L13.4713 18.2737C13.4955 18.2897 13.5205 18.3043 13.5463 18.3175L14.1339 18.6113L14.8153 18.9613L15.4967 19.3427C15.507 19.3471 15.5174 19.3512 15.5279 19.3552L16.1843 19.6802C16.2284 19.7017 16.2743 19.7184 16.3218 19.7302L16.8845 19.8803C16.9052 19.8837 16.926 19.8858 16.947 19.8865L17.2783 19.924L17.4658 20.0741C17.5923 20.1579 17.7033 20.1407 17.7985 20.0226C17.8938 19.9044 17.8871 19.7924 17.7784 19.6865L17.5783 19.5302L17.4408 19.2176C17.4305 19.1915 17.418 19.1665 17.4033 19.1426L17.0782 18.6613C17.0397 18.6045 16.9939 18.5545 16.9407 18.5113L16.3719 18.0487C16.3441 18.0258 16.3149 18.005 16.2843 17.9862L15.6092 17.5736C15.5909 17.5624 15.5721 17.552 15.5529 17.5423L14.8591 17.186C14.8406 17.177 14.8219 17.1686 14.8028 17.161L14.1839 16.9047C14.1276 16.8811 14.0692 16.8645 14.0089 16.8547L13.5713 16.7859C13.4561 16.7675 13.3436 16.7779 13.2338 16.8172L13.0525 16.886C12.8808 16.9464 12.7687 17.0639 12.7163 17.2382C12.6639 17.4125 12.6926 17.5722 12.8024 17.7174Z" fill="black"/>
<path d="M0.999799 18.2424C0.999799 18.3408 1.03459 18.4248 1.10416 18.4944C1.17374 18.564 1.25772 18.5987 1.35612 18.5987C1.45451 18.5987 1.5385 18.564 1.60807 18.4944C1.67765 18.4248 1.71243 18.3408 1.71243 18.2424C1.71243 18.144 1.67765 18.06 1.60807 17.9905C1.5385 17.9209 1.45451 17.8861 1.35612 17.8861C1.25772 17.8861 1.17374 17.9209 1.10416 17.9905C1.03459 18.06 0.999799 18.144 0.999799 18.2424ZM1.59991 18.6988L1.7937 18.6362C1.88649 18.605 1.96775 18.5549 2.0375 18.4862L2.38131 18.1487C2.4087 18.1215 2.43371 18.0924 2.45633 18.0611L2.88141 17.4923C2.89012 17.48 2.89846 17.4675 2.90641 17.4548L3.35025 16.7734C3.35451 16.7672 3.35867 16.761 3.36275 16.7546L3.75657 16.1108L4.07538 15.5982L4.31293 15.2669L4.45046 15.0793L4.48796 15.0293C4.43366 14.9124 4.35433 14.8162 4.25 14.7405C4.14566 14.6649 4.0295 14.6194 3.90153 14.6041C3.77356 14.5888 3.64997 14.6057 3.53075 14.6546C3.41153 14.7036 3.31177 14.7785 3.23147 14.8793L3.25648 14.9293C3.28862 14.7779 3.27195 14.632 3.20647 14.4917L3.16271 14.7105C3.15092 14.7577 3.14467 14.8056 3.14396 14.8543L3.15021 15.1543L3.13145 15.4606L2.98768 15.7357C2.94674 15.8749 2.99009 15.979 3.11774 16.048C3.24538 16.117 3.35623 16.0962 3.45027 15.9857L3.60029 15.7107L3.83784 15.5357L4.09414 15.3856C4.14007 15.3576 4.18175 15.3243 4.21916 15.2856L4.38169 15.1293C4.34583 15.1533 4.31249 15.1804 4.28167 15.2106L4.32543 15.1793C4.47395 15.0713 4.56937 14.9279 4.61168 14.7492C4.65398 14.5704 4.63298 14.3995 4.54866 14.2363C4.46434 14.0731 4.33705 13.9571 4.16679 13.8882C3.99652 13.8193 3.82436 13.8142 3.6503 13.8728L3.56904 13.8978C3.44528 13.9457 3.34109 14.0207 3.25648 14.1229L3.0877 14.3167C3.06977 14.3387 3.0531 14.3616 3.03769 14.3854L2.80014 14.7418C2.79364 14.752 2.78739 14.7624 2.78139 14.773L2.45633 15.3044C2.4542 15.3085 2.45212 15.3127 2.45007 15.3169L2.0625 15.9732L1.64367 16.6609C1.64158 16.6629 1.63949 16.665 1.63742 16.6671L1.27485 17.2797C1.27268 17.286 1.2706 17.2922 1.2686 17.2985L1.03731 17.7236C1.01736 17.7575 1.00069 17.7929 0.987296 17.8298L0.924784 18.0236C0.852952 18.2328 0.895225 18.4156 1.0516 18.5719C1.20798 18.7283 1.39075 18.7706 1.59991 18.6988Z" fill="black"/>
<path d="M1.27488 18.3488C1.27488 18.4575 1.31333 18.5503 1.39023 18.6272C1.46713 18.7041 1.55995 18.7426 1.6687 18.7426C1.77745 18.7426 1.87028 18.7041 1.94718 18.6272C2.02408 18.5503 2.06253 18.4575 2.06253 18.3488C2.06253 18.24 2.02408 18.1472 1.94718 18.0703C1.87028 17.9934 1.77745 17.9549 1.6687 17.9549C1.55995 17.9549 1.46713 17.9934 1.39023 18.0703C1.31333 18.1472 1.27488 18.24 1.27488 18.3488ZM1.26238 18.3425C1.26241 18.4547 1.3021 18.5504 1.38144 18.6297C1.46077 18.709 1.55653 18.7487 1.6687 18.7487C1.78088 18.7487 1.87664 18.709 1.95597 18.6297C2.0353 18.5504 2.07499 18.4547 2.07503 18.3425C2.07499 18.2303 2.0353 18.1346 1.95597 18.0553C1.87664 17.976 1.78088 17.9363 1.6687 17.9363C1.55653 17.9363 1.46077 17.976 1.38144 18.0553C1.3021 18.1346 1.26241 18.2303 1.26238 18.3425ZM1.22487 18.3175C1.22487 18.4401 1.2682 18.5447 1.35486 18.6313C1.44153 18.718 1.54614 18.7613 1.6687 18.7613C1.79126 18.7613 1.89588 18.718 1.98254 18.6313C2.06921 18.5447 2.11254 18.4401 2.11254 18.3175C2.11254 18.1949 2.06921 18.0903 1.98254 18.0037C1.89588 17.917 1.79126 17.8737 1.6687 17.8737C1.54614 17.8737 1.44153 17.917 1.35486 18.0037C1.2682 18.0903 1.22487 18.1949 1.22487 18.3175ZM1.14985 18.2738C1.14985 18.4153 1.1999 18.5361 1.29999 18.6362C1.40008 18.7363 1.5209 18.7863 1.66245 18.7863C1.804 18.7863 1.92482 18.7363 2.02491 18.6362C2.125 18.5361 2.17505 18.4153 2.17505 18.2738C2.17505 18.1322 2.125 18.0114 2.02491 17.9113C1.92482 17.8112 1.804 17.7612 1.66245 17.7612C1.5209 17.7612 1.40008 17.8112 1.29999 17.9113C1.1999 18.0114 1.14985 18.1322 1.14985 18.2738ZM1.09359 18.23C1.09359 18.3888 1.14974 18.5244 1.26204 18.6367C1.37434 18.749 1.50989 18.8051 1.6687 18.8051C1.82751 18.8051 1.96307 18.749 2.07537 18.6367C2.18766 18.5244 2.24381 18.3888 2.24381 18.23C2.24381 18.0712 2.18766 17.9356 2.07537 17.8233C1.96307 17.711 1.82751 17.6549 1.6687 17.6549C1.50989 17.6549 1.37434 17.711 1.26204 17.8233C1.14974 17.9356 1.09359 18.0712 1.09359 18.23ZM1.57494 18.8364L1.72496 18.8676C1.76409 18.8768 1.80368 18.8831 1.84374 18.8864L2.12504 18.9114L2.51886 18.9676L3.13773 19.1239L4.11917 19.5177L5.53819 20.2866L7.22601 21.3806L9.05136 22.8309L10.8204 24.4874L12.427 26.1065L13.7585 27.5193C13.7745 27.5346 13.7912 27.5492 13.8085 27.563L14.8775 28.5007L15.4901 29.2133L15.7589 29.7259C15.8436 29.8363 15.9479 29.8597 16.0716 29.7961C16.1954 29.7324 16.237 29.634 16.1965 29.5009L15.9214 28.9695L15.5213 28.0694L14.9462 26.7379C14.9262 26.6893 14.9012 26.6435 14.8712 26.6003L13.7335 25.0125C13.718 24.9888 13.7013 24.9659 13.6835 24.9438L12.1582 23.2184C12.1384 23.1966 12.1175 23.1758 12.0957 23.1559L10.2953 21.4494C10.2773 21.4319 10.2585 21.4153 10.2391 21.3993L8.35748 19.8866C8.33328 19.8687 8.30827 19.852 8.28246 19.8365L6.54463 18.6863C6.52428 18.673 6.50344 18.6605 6.48212 18.6488L4.98808 17.8174C4.95165 17.7983 4.91415 17.7817 4.87556 17.7674L3.78786 17.3361C3.73112 17.3138 3.67277 17.2971 3.61282 17.2861L2.86893 17.1423C2.79443 17.1289 2.71941 17.1247 2.64389 17.1298L2.16255 17.161C2.0653 17.1662 1.97153 17.1871 1.88124 17.2236L1.59994 17.3423C1.43395 17.4097 1.30476 17.5201 1.21237 17.6736L1.13735 17.8112C1.08188 17.906 1.0507 18.0082 1.04379 18.1179C1.03688 18.2275 1.05499 18.3329 1.09812 18.4339C1.14124 18.5349 1.20478 18.6209 1.28874 18.6917C1.37269 18.7626 1.46809 18.8108 1.57494 18.8364Z" fill="black"/>
<path d="M13.8023 26.8191C13.8023 27.0275 13.9065 27.1316 14.1149 27.1316C14.3232 27.1316 14.4274 27.0275 14.4274 26.8191C14.4274 26.6107 14.3232 26.5065 14.1149 26.5065C13.9065 26.5065 13.8023 26.6107 13.8023 26.8191ZM13.7523 26.8191C13.7523 26.9209 13.7883 27.0079 13.8603 27.0799C13.9323 27.1519 14.0193 27.1879 14.1211 27.1879C14.223 27.1879 14.3099 27.1519 14.3819 27.0799C14.4539 27.0079 14.4899 26.9209 14.4899 26.8191C14.4899 26.7172 14.4539 26.6303 14.3819 26.5583C14.3099 26.4863 14.223 26.4503 14.1211 26.4503C14.0193 26.4503 13.9323 26.4863 13.8603 26.5583C13.7883 26.6303 13.7523 26.7172 13.7523 26.8191ZM13.7023 26.9129L13.7148 27.1004C13.724 27.1965 13.7532 27.2861 13.8023 27.3692L14.0523 27.8005C14.0584 27.809 14.0647 27.8173 14.0711 27.8255L14.4524 28.4256C14.5316 28.5487 14.6379 28.6404 14.7712 28.7007L15.2838 28.9382L15.5839 29.4633C15.6832 29.6006 15.807 29.6284 15.9555 29.5468C16.1039 29.4651 16.1468 29.3456 16.084 29.1883L15.7839 28.6444L15.8152 28.0693C15.826 27.901 15.7843 27.7468 15.6902 27.6067L15.2901 27.0191C15.2543 26.9679 15.2126 26.9221 15.1651 26.8816L14.7962 26.5565C14.6838 26.4568 14.5525 26.4027 14.4024 26.394L14.2086 26.3815C14.0612 26.3752 13.9367 26.4255 13.8349 26.5323C13.7331 26.6391 13.6889 26.7659 13.7023 26.9129Z" fill="black"/>
</g>
<defs>
<clipPath id="clip0_1_7162">
<rect width="35" height="31" fill="white"/>
</clipPath>
</defs>
</svg>
