<svg width="43" height="41" viewBox="0 0 43 41" fill="none" xmlns="http://www.w3.org/2000/svg">
<g clip-path="url(#clip0_1_7163)">
<path d="M19.686 3.87821L19.479 3.68413C19.3723 3.58626 19.2494 3.51726 19.1103 3.47711L18.0946 3.17305C18.008 3.1477 17.9196 3.13476 17.8293 3.13424L16.5614 3.10836C16.4849 3.10841 16.4094 3.11703 16.3349 3.13424L14.8664 3.43829C14.7998 3.45142 14.7351 3.47083 14.6723 3.49652L13.0809 4.16933C13.0387 4.18612 12.9977 4.20553 12.958 4.22755L11.2695 5.21735C11.2336 5.23909 11.1991 5.26281 11.166 5.28852L9.42571 6.59532C9.39651 6.61766 9.36848 6.64138 9.34161 6.66648L7.58196 8.28381C7.55484 8.30844 7.52896 8.33432 7.50433 8.36144L5.78349 10.2958C5.75827 10.3248 5.73454 10.355 5.71233 10.3863L4.07559 12.6441C4.05241 12.6754 4.03085 12.7077 4.0109 12.7412L2.62 15.1219C2.59844 15.1596 2.57903 15.1984 2.56177 15.2383L1.48787 17.6837C1.46759 17.7301 1.45034 17.7775 1.43611 17.826L0.698611 20.3167C0.681355 20.374 0.668417 20.4322 0.659796 20.4914L0.303983 23.0274C0.295621 23.0983 0.293464 23.1695 0.297514 23.2409L0.388085 25.7704C0.392625 25.8425 0.403407 25.9136 0.420431 25.9838L0.944445 28.4551C0.961861 28.5397 0.987739 28.6217 1.02208 28.701L2.06364 31.0364C2.09892 31.1163 2.14205 31.1918 2.19302 31.2628L3.71978 33.3977C3.76791 33.4632 3.82182 33.5236 3.88151 33.5788L5.93228 35.5131C5.98477 35.5609 6.04083 35.6041 6.10049 35.6425L8.5847 37.3116C8.63434 37.3454 8.6861 37.3756 8.73997 37.4022L11.5024 38.7478C11.5588 38.7758 11.6171 38.7995 11.677 38.819L14.8211 39.8152C14.8679 39.8287 14.9154 39.8395 14.9634 39.8476L18.3404 40.5074C18.3789 40.5157 18.4178 40.5222 18.4569 40.5269L21.8856 40.8633C21.9351 40.8683 21.9847 40.8704 22.0344 40.8697L25.3984 40.8115C25.457 40.8112 25.5152 40.8069 25.5731 40.7986L28.7237 40.3198C28.7917 40.3101 28.8586 40.295 28.9242 40.2746L31.7966 39.3494C31.8751 39.3243 31.9506 39.2919 32.023 39.2524L34.5525 37.8809C34.6211 37.8436 34.6858 37.8005 34.7466 37.7515L36.9397 35.9854C37.0006 35.9365 37.0567 35.8826 37.1079 35.8237L38.9193 33.7276C38.9704 33.667 39.0157 33.6023 39.0552 33.5335L40.4849 31.1205C40.5229 31.0564 40.5552 30.9895 40.5819 30.9199L41.6299 28.1705C41.6515 28.1113 41.6688 28.0509 41.6817 27.9893L42.361 24.9811C42.3763 24.9193 42.3871 24.8568 42.3933 24.7935L42.6392 21.6365C42.6452 21.5784 42.6473 21.5202 42.6456 21.4618L42.4774 18.2983C42.4754 18.2353 42.4689 18.1728 42.458 18.1107L41.8499 15.0572C41.8361 14.9866 41.8167 14.9176 41.7917 14.8502L40.7242 11.9907C40.7008 11.9282 40.6727 11.8678 40.6401 11.8096L39.1457 9.14423C39.1112 9.08518 39.0724 9.02912 39.0293 8.97602L37.1402 6.5565C37.0951 6.49851 37.0455 6.4446 36.9914 6.39477L34.7466 4.33753C34.6864 4.28205 34.6217 4.23246 34.5525 4.18873L32.0101 2.59728C31.9401 2.55393 31.8668 2.51727 31.7901 2.4873L29.0148 1.38105C28.9269 1.3457 28.8364 1.31983 28.7431 1.30342L25.7931 0.785875C25.6989 0.769339 25.604 0.762869 25.5084 0.766467L22.4161 0.889384C22.3309 0.892064 22.2468 0.902846 22.1638 0.921731L19.0844 1.63982C19.0041 1.65783 18.9265 1.6837 18.8515 1.71746L16.115 2.97897C16.0791 2.99596 16.0446 3.01536 16.0115 3.0372L13.9284 4.37634L12.2657 5.17207C12.1746 5.22138 12.1131 5.29533 12.0811 5.39392C12.0492 5.49251 12.0557 5.58849 12.1007 5.68186C12.1457 5.77523 12.2166 5.84018 12.3136 5.87671C12.4106 5.91324 12.5068 5.91126 12.6021 5.87075L14.2389 5.0815L16.639 4.57689L19.5761 4.02053L22.5843 3.52886L25.4502 3.47711L28.1414 3.95584L30.6839 4.95211L33.0193 6.41418L35.1024 8.30322L36.8621 10.5481L38.2788 13.0193L39.2557 15.6782L39.825 18.5377L39.9932 21.52L39.7603 24.4959L39.1263 27.3165L38.1495 29.8719L36.8491 32.1038L35.1994 34.0317L33.2069 35.649L30.8844 36.917L28.232 37.7774L25.2691 38.2367L22.0667 38.282L18.7674 37.9715L15.5263 37.3375L12.5439 36.393L9.94326 35.125L7.60784 33.5723L5.71233 31.8062L4.31496 29.8913L3.37044 27.7888L2.85289 25.5569L2.74938 23.2473L3.04697 20.899L3.70037 18.5635L4.69665 16.2475L6.00345 13.9639L7.56255 11.7837L9.18635 9.91407L10.836 8.33556L12.4534 7.06111L13.9995 6.09718L15.4292 5.45025L16.6972 5.12031L17.7323 5.06856L18.5733 5.25617L18.7674 5.32733C18.9623 5.4044 19.1595 5.41049 19.3588 5.34562C19.5581 5.28074 19.7139 5.15979 19.8261 4.98275C19.9384 4.80571 19.9813 4.61321 19.9549 4.40526C19.9285 4.19731 19.8389 4.02163 19.686 3.87821Z" fill="black"/>
<path d="M12.5894 22.1771C12.5894 22.2807 12.626 22.3691 12.6992 22.4424C12.7725 22.5156 12.8609 22.5522 12.9645 22.5522C13.068 22.5522 13.1564 22.5156 13.2297 22.4424C13.3029 22.3691 13.3395 22.2807 13.3395 22.1771C13.3395 22.0736 13.3029 21.9852 13.2297 21.9119C13.1564 21.8387 13.068 21.8021 12.9645 21.8021C12.8609 21.8021 12.7725 21.8387 12.6992 21.9119C12.626 21.9852 12.5894 22.0736 12.5894 22.1771ZM13.4708 22.1334L13.4833 21.9771C13.4868 21.9248 13.4847 21.8727 13.4771 21.8208L13.4583 21.6645L13.4646 21.5583C13.4773 21.3949 13.4493 21.239 13.3803 21.0904C13.3113 20.9418 13.2104 20.8197 13.0774 20.724C12.9444 20.6283 12.7966 20.5714 12.6337 20.5532C12.4709 20.535 12.3141 20.5579 12.1633 20.622C12.0126 20.686 11.8871 20.7828 11.7871 20.9126C11.6871 21.0423 11.6253 21.1882 11.6018 21.3504C11.5783 21.5125 11.596 21.67 11.655 21.8228C11.714 21.9756 11.8067 22.1041 11.933 22.2084L12.083 22.3334C12.0932 22.3441 12.1036 22.3545 12.1143 22.3647L12.3143 22.5084C12.4081 22.577 12.5123 22.6208 12.6269 22.6397L12.7832 22.671C12.9548 22.7011 13.1093 22.6625 13.2466 22.5551C13.3838 22.4478 13.4586 22.3072 13.4708 22.1334ZM11.5767 21.8021L11.7017 22.1584C11.7156 22.2032 11.7322 22.247 11.7517 22.2897L12.1331 23.0711C12.1518 23.1097 12.1726 23.1472 12.1956 23.1836L12.8957 24.2838C12.9171 24.3162 12.94 24.3474 12.9645 24.3776L13.9271 25.609C13.9469 25.6349 13.9678 25.6599 13.9897 25.6841L15.0899 26.8655C15.108 26.8849 15.1267 26.9037 15.1461 26.9218L16.2338 27.9345C16.242 27.945 16.2503 27.9555 16.2588 27.9657L17.1965 28.7784C17.2027 28.7847 17.2089 28.791 17.2153 28.7971L17.9467 29.4035C17.9529 29.4077 17.9591 29.4119 17.9654 29.416L18.4655 29.8223L18.7656 30.0724C18.7839 30.0875 18.8026 30.1021 18.8218 30.1161L18.9969 30.2474C19.0112 30.2582 19.0258 30.2686 19.0406 30.2787L19.1031 30.3224C19.2517 30.4217 19.4144 30.4839 19.5913 30.5089C19.7683 30.534 19.9419 30.5195 20.1121 30.4653C20.2824 30.4112 20.4326 30.3228 20.5625 30.2002C20.6925 30.0776 20.7895 29.9329 20.8535 29.7661L20.866 29.7348C20.9849 29.4241 20.9745 29.1178 20.8347 28.8159L20.8097 28.7596C20.8036 28.7491 20.7974 28.7387 20.791 28.7284L20.7659 28.6784L20.7347 28.6096C20.7333 28.789 20.7708 28.9599 20.8472 29.1222V29.0847L20.9472 28.7284L21.4223 27.4969L22.385 25.2902L23.804 22.2897L25.5669 18.9453L27.436 15.6634C27.4494 15.641 27.4619 15.6181 27.4735 15.5946L28.805 12.7691L30.299 10.9375C30.3576 10.865 30.3821 10.7824 30.3723 10.6897C30.3625 10.5969 30.3213 10.5212 30.2489 10.4626C30.1764 10.4039 30.0938 10.3794 30.0011 10.3892C29.9083 10.3989 29.8326 10.44 29.7739 10.5124L28.2736 12.3565L25.9544 14.4819C25.9055 14.5274 25.8617 14.5774 25.8232 14.6319L23.6227 17.72C23.6 17.7543 23.5792 17.7898 23.5602 17.8263L21.6849 21.1644C21.6716 21.187 21.6591 21.2099 21.6474 21.2332L20.1971 24.2713C20.1906 24.2857 20.1843 24.3003 20.1783 24.315L19.2157 26.5717C19.209 26.5883 19.2028 26.6049 19.1969 26.6217L18.7031 27.9345C18.6883 27.9755 18.6758 28.0171 18.6655 28.0595L18.5218 28.6346C18.4964 28.733 18.4839 28.833 18.4843 28.9347V29.1222C18.4855 29.2902 18.5209 29.4507 18.5905 29.6036L18.628 29.6848C18.645 29.7212 18.6637 29.7566 18.6843 29.7911L18.7281 29.8598C18.7064 29.8102 18.6814 29.7623 18.653 29.7161L18.6781 29.7723C18.6846 29.6014 18.6555 29.4368 18.5905 29.2785L18.5843 29.3097C18.7624 29.3862 18.9481 29.4166 19.1412 29.4012C19.3344 29.3858 19.5129 29.3262 19.6766 29.2225C19.8403 29.1187 19.9704 28.9828 20.0669 28.8147C20.1634 28.6466 20.2151 28.4657 20.2221 28.272L20.1533 28.2408C20.2291 28.2964 20.3103 28.3423 20.3971 28.3783L20.2346 28.2595L19.9345 28.0157L19.4282 27.6094L18.7093 27.0156L17.7966 26.2279L16.7652 25.2652L15.7337 24.1338L14.8148 22.971L14.1084 21.9396L13.6521 21.227C13.6272 21.1899 13.6001 21.1544 13.5708 21.1207L13.3333 20.8269C13.178 20.6329 12.9785 20.5119 12.7347 20.4639C12.491 20.4159 12.2604 20.4522 12.0432 20.5728C11.826 20.6934 11.6733 20.8698 11.5851 21.1021C11.497 21.3344 11.4942 21.5677 11.5767 21.8021Z" fill="black"/>
</g>
<defs>
<clipPath id="clip0_1_7163">
<rect width="43" height="41" fill="white"/>
</clipPath>
</defs>
</svg>
