<svg width="39" height="33" viewBox="0 0 39 33" fill="none" xmlns="http://www.w3.org/2000/svg">
<g clip-path="url(#clip0_1_7257)">
<path d="M2.11902 15.402C2.11902 15.5091 2.15685 15.6004 2.23253 15.6761C2.30821 15.7518 2.39956 15.7896 2.50659 15.7896C2.61361 15.7896 2.70497 15.7518 2.78065 15.6761C2.85632 15.6004 2.89416 15.5091 2.89416 15.402C2.89416 15.295 2.85632 15.2037 2.78065 15.128C2.70497 15.0523 2.61361 15.0145 2.50659 15.0145C2.39956 15.0145 2.30821 15.0523 2.23253 15.128C2.15685 15.2037 2.11902 15.295 2.11902 15.402ZM2.01275 15.402C2.01275 15.5349 2.05974 15.6484 2.15373 15.7424C2.24771 15.8364 2.36117 15.8834 2.49409 15.8834C2.62701 15.8834 2.74046 15.8364 2.83445 15.7424C2.92843 15.6484 2.97543 15.5349 2.97543 15.402C2.97543 15.2691 2.92843 15.1557 2.83445 15.0617C2.74046 14.9677 2.62701 14.9207 2.49409 14.9207C2.36117 14.9207 2.24771 14.9677 2.15373 15.0617C2.05974 15.1557 2.01275 15.2691 2.01275 15.402ZM1.93773 15.4083C1.93773 15.5602 1.99144 15.6898 2.09885 15.7973C2.20627 15.9047 2.33593 15.9584 2.48784 15.9584C2.63974 15.9584 2.7694 15.9047 2.87682 15.7973C2.98423 15.6898 3.03794 15.5602 3.03794 15.4083C3.03794 15.2564 2.98423 15.1267 2.87682 15.0193C2.7694 14.9119 2.63974 14.8582 2.48784 14.8582C2.33593 14.8582 2.20627 14.9119 2.09885 15.0193C1.99144 15.1267 1.93773 15.2564 1.93773 15.4083ZM2.019 15.7834L2.07526 15.8646C2.09412 15.8913 2.11495 15.9163 2.13777 15.9396L2.20028 16.0021L2.26904 16.0959C2.28992 16.1247 2.31284 16.1518 2.33781 16.1772L2.50659 16.346C2.52624 16.368 2.54707 16.3888 2.5691 16.4085L2.88166 16.6585C2.89386 16.6693 2.90636 16.6797 2.91917 16.6898L3.45677 17.0773C3.46906 17.086 3.48156 17.0943 3.49428 17.1024L4.38195 17.6712C4.39018 17.6776 4.39851 17.6839 4.40695 17.69L5.68219 18.4589C5.69249 18.4653 5.70291 18.4716 5.71345 18.4776L7.36376 19.384C7.36999 19.3862 7.37624 19.3883 7.38252 19.3903L9.23287 20.3592C9.23495 20.3592 9.23704 20.3592 9.23912 20.3592L11.1332 21.3344C11.1353 21.3344 11.1374 21.3344 11.1395 21.3344L12.9836 22.2783L14.7527 23.1723C14.7547 23.1744 14.7568 23.1764 14.7589 23.1785L16.403 23.9787C16.4113 23.9809 16.4196 23.983 16.428 23.9849L17.9158 24.6538C17.924 24.6581 17.9324 24.6623 17.9408 24.6663L19.2035 25.1726C19.23 25.1847 19.2571 25.1952 19.2848 25.2039L20.2412 25.4539C20.3068 25.4718 20.3735 25.478 20.4413 25.4727L20.9851 25.4289C21.0243 25.4246 21.0618 25.4142 21.0976 25.3977L21.2914 25.3164L21.3477 25.3039C21.4808 25.2663 21.5286 25.1809 21.4912 25.0477C21.4537 24.9145 21.3684 24.8666 21.2352 24.9038L21.1664 24.9226C21.2224 24.9856 21.2912 25.0064 21.3727 24.9851L21.2164 24.8163C21.2064 24.8074 21.196 24.7991 21.1851 24.7913L20.7726 24.435C20.7416 24.4086 20.7083 24.3857 20.6725 24.3662L19.8036 23.8974C19.7914 23.8887 19.7789 23.8803 19.7661 23.8724L18.5471 23.3035L17.1094 22.5784L15.5153 21.7095L13.7837 20.7656L11.9646 19.7716C11.9626 19.7695 11.9605 19.7674 11.9584 19.7654L10.0893 18.7589L8.27019 17.7525L6.63863 16.8211C6.63654 16.821 6.63446 16.821 6.63237 16.8211L5.33838 16.0897L4.41945 15.5708C4.4051 15.5621 4.39052 15.5537 4.3757 15.5458L3.77558 15.2583C3.75108 15.2466 3.72608 15.2362 3.70057 15.227L3.3255 15.0832C3.30492 15.0761 3.28408 15.0698 3.26298 15.0645L3.03169 15.002C3.01114 14.9947 2.9903 14.9885 2.96918 14.9832L2.89416 14.9707V14.9769L2.85666 14.9457C2.73727 14.8597 2.60427 14.8227 2.45764 14.8346C2.31102 14.8464 2.18569 14.9044 2.08167 15.0084C1.97765 15.1124 1.91972 15.2377 1.90786 15.3843C1.896 15.531 1.93305 15.664 2.019 15.7834Z" fill="black"/>
<path d="M21.0414 25.2664L20.9976 25.2789C20.9955 25.281 20.9934 25.2831 20.9914 25.2852L20.9039 25.3227L20.7851 25.3665L20.6413 25.4227C20.6307 25.4263 20.6202 25.4305 20.6101 25.4352L20.4725 25.504C20.4479 25.5158 20.4249 25.5304 20.4038 25.5477L20.2912 25.6415C20.2802 25.6513 20.2698 25.6617 20.26 25.6728L20.185 25.754C20.1762 25.762 20.1679 25.7703 20.16 25.779L20.1287 25.8165C20.0493 25.9197 20.0229 26.035 20.0494 26.1624C20.0759 26.2898 20.1461 26.385 20.26 26.4479L20.3413 26.4979C20.4441 26.5536 20.5524 26.5682 20.6663 26.5417L20.9351 26.4854C20.9762 26.4778 21.0158 26.4653 21.0539 26.4479L21.5415 26.2104C21.5608 26.201 21.5796 26.1906 21.5977 26.1791L22.4167 25.6665C22.423 25.6604 22.4293 25.6542 22.4354 25.6478L23.6294 24.8226L25.1422 23.7537L26.9175 22.4847C26.9196 22.4847 26.9217 22.4847 26.9238 22.4847L28.8804 21.0781L30.862 19.6466L32.7561 18.3026L34.4814 17.0899L35.9505 16.0647C35.9526 16.0626 35.9547 16.0605 35.9567 16.0584L37.0819 15.2583C37.0861 15.2562 37.0903 15.2542 37.0944 15.252L37.8508 14.6894C37.8636 14.6815 37.8761 14.6731 37.8883 14.6644L38.2759 14.3394C38.3377 14.2873 38.3898 14.2268 38.4322 14.1581L38.5135 14.0331C38.6999 13.7411 38.6815 13.4627 38.4584 13.1978C38.2352 12.9328 37.9639 12.8675 37.6446 13.0016L37.507 13.0579C37.4586 13.0781 37.4127 13.1031 37.3695 13.1329L36.9507 13.4204C36.9401 13.4264 36.9297 13.4327 36.9194 13.4392L36.1693 14.0018L35.0628 14.8144C35.0607 14.8144 35.0586 14.8144 35.0566 14.8144L33.6125 15.8772L31.9185 17.1336L30.0431 18.5089L28.0677 19.9592C28.0656 19.9592 28.0636 19.9592 28.0615 19.9592L26.1299 21.4032C26.1278 21.4053 26.1257 21.4074 26.1236 21.4095L24.3858 22.7285L22.923 23.8474L21.7603 24.7038L20.9851 25.2602L20.5475 25.554L20.3788 25.6603L20.36 25.6665C20.4726 25.7664 20.6018 25.7976 20.7476 25.7603L20.7101 25.729C20.6329 25.8981 20.6642 26.044 20.8038 26.1666L20.8351 26.0978L20.8914 26.0166L20.9851 25.9041C20.9873 25.8999 20.9894 25.8958 20.9914 25.8916L21.0789 25.779L21.1414 25.7103L21.2039 25.6665L21.2289 25.6478C21.3165 25.5743 21.3351 25.4862 21.2846 25.3836C21.2342 25.281 21.1531 25.2419 21.0414 25.2664ZM37.2257 13.708V13.7267L37.1882 13.8205L36.9882 13.933C36.8715 13.9997 36.8465 14.0914 36.9132 14.2081C36.9798 14.3248 37.0715 14.3498 37.1882 14.2831L37.3883 14.1643L37.4758 14.1768L37.4883 14.1831C37.6463 14.2904 37.8166 14.3164 37.9994 14.261C38.1822 14.2056 38.3095 14.0895 38.3814 13.9125C38.4533 13.7356 38.4431 13.5635 38.3507 13.3964C38.2583 13.2292 38.1181 13.129 37.93 13.0957C37.742 13.0624 37.5759 13.1084 37.4317 13.2337C37.2876 13.359 37.2189 13.5171 37.2257 13.708Z" fill="black"/>
<path d="M2.26283 15.8584V15.8521C2.05991 15.7348 1.88309 15.7659 1.73238 15.9454C1.58166 16.1249 1.58166 16.3044 1.73238 16.484C1.88309 16.6635 2.05991 16.6946 2.26283 16.5772V16.571C2.32458 16.5328 2.37314 16.4821 2.4085 16.4187C2.44385 16.3553 2.46153 16.2873 2.46153 16.2147C2.46153 16.1421 2.44385 16.0741 2.4085 16.0107C2.37314 15.9473 2.32458 15.8965 2.26283 15.8584ZM2.47537 16.1584L2.46912 16.1459C2.44644 15.987 2.36432 15.8697 2.22275 15.794C2.08118 15.7184 1.93804 15.7152 1.7933 15.7847C1.64857 15.8541 1.56142 15.9677 1.53184 16.1255C1.50225 16.2832 1.54234 16.4207 1.65209 16.5378C1.76183 16.655 1.89639 16.7039 2.05575 16.6847C2.21512 16.6654 2.33415 16.5859 2.41285 16.446L2.41911 16.4397C2.46988 16.3524 2.48863 16.2586 2.47537 16.1584ZM1.56894 15.8896L1.49393 15.9771C1.44557 16.0346 1.41014 16.0992 1.38766 16.1709L1.3189 16.396C1.31128 16.4185 1.30503 16.4414 1.30014 16.4647L1.21888 16.8898C1.21613 16.9064 1.21405 16.9231 1.21263 16.9398L1.14386 17.5837C1.14177 17.5858 1.13968 17.5878 1.13761 17.5899L1.0626 18.4151L0.962578 19.3215L0.875062 20.1967C0.875022 20.2008 0.875022 20.205 0.875062 20.2092L0.806299 20.9593L0.756289 21.5282C0.756279 21.5303 0.756279 21.5324 0.756289 21.5344L0.725033 21.9095L0.712531 22.072C0.69937 22.2278 0.736265 22.3706 0.823215 22.5005C0.910166 22.6303 1.02814 22.7189 1.17715 22.766C1.32616 22.8132 1.47359 22.8087 1.61944 22.7525C1.7653 22.6964 1.87765 22.6008 1.95652 22.4659L1.98152 22.4221C2.02258 22.3499 2.04967 22.2728 2.06279 22.1908L2.1003 21.9095C2.10242 21.9054 2.1045 21.9012 2.10655 21.897L2.16281 21.3969C2.16498 21.3907 2.16706 21.3844 2.16906 21.3782L2.23782 20.6718C2.23786 20.6676 2.23786 20.6634 2.23782 20.6593L2.30658 19.7528C2.3089 19.7425 2.31099 19.7321 2.31284 19.7216L2.35034 18.6964C2.35038 18.6922 2.35038 18.6881 2.35034 18.6839L2.36284 17.6775C2.36308 17.667 2.36308 17.6566 2.36284 17.6462L2.34409 16.8085C2.34275 16.7897 2.34067 16.7709 2.33784 16.7523L2.28158 16.1772C2.25021 15.8856 2.09602 15.6919 1.81899 15.5958L1.68147 15.5458C1.5108 15.4868 1.35869 15.518 1.22513 15.6396L1.11886 15.7396C0.958944 15.8857 0.88393 16.067 0.893815 16.2834L0.91882 16.8585L0.950076 17.6712L0.937574 18.6526L0.900067 19.6591L0.837555 20.5405L0.768792 21.2406L0.718782 21.7407C0.718698 21.747 0.718698 21.7532 0.718782 21.7595L0.700028 22.0408C0.693793 22.1168 0.700044 22.1919 0.718782 22.2658L0.731284 22.3096C0.774961 22.4678 0.864695 22.5929 1.00049 22.6851C1.13628 22.7772 1.28573 22.8143 1.44886 22.7965C1.61198 22.7786 1.74986 22.71 1.86249 22.5906C1.97512 22.4713 2.03563 22.3297 2.04403 22.1658L2.05029 21.997L2.06904 21.6282L2.11905 21.0718L2.18781 20.328L2.27533 19.4528L2.36284 18.5526C2.36288 18.5485 2.36288 18.5443 2.36284 18.5401L2.43786 17.7087C2.4379 17.7045 2.4379 17.7004 2.43786 17.6962L2.48162 17.0523C2.48199 17.0398 2.48199 17.0273 2.48162 17.0148L2.48787 16.5835V16.3459C2.48829 16.3334 2.48829 16.3209 2.48787 16.3084L2.48162 16.1959C2.46791 15.9626 2.35028 15.8088 2.12875 15.7345C1.90721 15.6601 1.72061 15.7118 1.56894 15.8896ZM1.3189 15.6583L1.27514 15.6896C1.12103 15.7979 1.09814 15.9292 1.20645 16.0833C1.31477 16.2375 1.44602 16.2604 1.6002 16.1522L1.64396 16.1209C1.79803 16.0125 1.82091 15.8813 1.71261 15.7272C1.60431 15.573 1.47307 15.5501 1.3189 15.6583Z" fill="black"/>
<path d="M38.0634 14.8273L38.0759 14.796L38.0822 14.7585C38.0896 14.7362 38.0937 14.7133 38.0947 14.6898V14.6398C38.0938 14.625 38.0917 14.6104 38.0884 14.596L38.0822 14.5648C38.0626 14.4557 38.0007 14.3824 37.8965 14.3449C37.7923 14.3074 37.6979 14.3244 37.6133 14.396L37.5445 14.4522C37.482 14.5074 37.4445 14.5761 37.432 14.6585L37.3758 15.0461C37.3732 15.0564 37.3711 15.0668 37.3695 15.0773L37.3258 15.84L37.207 16.9027L37.057 18.0467L36.9007 19.0781L36.7757 19.8595L36.6944 20.3096L36.6631 20.4096C36.6472 20.56 36.7134 20.6505 36.8615 20.6809C37.0097 20.7113 37.1061 20.6542 37.1507 20.5096L37.1695 20.2783L37.2445 19.7095L37.3633 18.8531C37.3633 18.851 37.3633 18.8489 37.3633 18.8468L37.4695 17.8404C37.4696 17.8383 37.4696 17.8362 37.4695 17.8341L37.5508 16.8777C37.5508 16.8756 37.5508 16.8735 37.5508 16.8714L37.6071 16.0838C37.6071 16.0796 37.6071 16.0755 37.6071 16.0713L37.6196 15.5587C37.6213 15.5246 37.6172 15.4913 37.6071 15.4587L37.5445 15.2899V15.2774C37.5445 15.144 37.4779 15.0773 37.3445 15.0773C37.2112 15.0773 37.1445 15.144 37.1445 15.2774V15.3211C37.1574 15.2934 37.1637 15.2642 37.1632 15.2336L37.0695 15.4274C37.0543 15.4612 37.0459 15.4967 37.0445 15.5337L37.0069 16.0463C37.0069 16.0484 37.0069 16.0505 37.0069 16.0525L36.9694 16.8402L36.9194 17.7904L36.8382 18.7906L36.7569 19.6532L36.6819 20.2221L36.6506 20.4534C36.6298 20.6201 36.7027 20.7138 36.8694 20.7347C37.0361 20.7555 37.1299 20.6826 37.1507 20.5159L37.1632 20.4034L37.2507 19.947L37.3883 19.1594C37.3883 19.1573 37.3883 19.1552 37.3883 19.1531L37.5571 18.1217L37.7383 16.9777L37.9259 15.9213L38.0634 15.1586C38.0637 15.1503 38.0637 15.1419 38.0634 15.1336L38.1072 14.746C38.112 14.7061 38.1099 14.6665 38.1009 14.6273L38.0822 14.5397C37.9727 14.4949 37.8734 14.5113 37.7842 14.589C37.6951 14.6667 37.6652 14.7628 37.6946 14.8773L37.7258 14.8898C37.6985 14.8568 37.6651 14.8318 37.6258 14.8148L37.6446 14.8336L37.6571 14.8523C37.6493 14.8321 37.6389 14.8133 37.6258 14.796L37.6383 14.8273C37.6734 14.928 37.7442 14.9784 37.8509 14.9784C37.9575 14.9784 38.0283 14.928 38.0634 14.8273Z" fill="black"/>
<path d="M37.4696 16.3338L37.4821 16.0275L37.5196 15.6837L37.6321 15.3024L37.7884 14.9648C37.8049 14.9308 37.8174 14.8954 37.8259 14.8585L37.8634 14.6647C37.8791 14.5239 37.8446 14.3967 37.7597 14.2832C37.6748 14.1697 37.5626 14.1006 37.4231 14.0758C37.2835 14.051 37.1544 14.0773 37.0357 14.1547C36.9169 14.232 36.8407 14.3396 36.807 14.4772L36.7882 14.6147C36.7851 14.6334 36.783 14.6521 36.782 14.671L36.7694 15.1086C36.7694 15.1128 36.7694 15.1169 36.7694 15.1211V15.7837C36.7694 15.7858 36.7694 15.7879 36.7694 15.79L36.7757 16.5401C36.7757 16.5422 36.7757 16.5443 36.7757 16.5464L36.7945 17.234L36.8007 17.8091L36.807 18.2279C36.8058 18.2446 36.8058 18.2613 36.807 18.2779L36.8507 18.5405C36.8823 18.7348 36.9966 18.8292 37.1934 18.8237C37.3902 18.8182 37.4989 18.7175 37.5196 18.5217L37.5446 18.2592C37.545 18.2488 37.545 18.2383 37.5446 18.2279L37.5508 17.8091L37.5696 17.2402L37.6009 16.5589L37.6571 15.8275L37.7259 15.1961L37.8009 14.846L37.8322 14.771C37.7935 14.5029 37.64 14.3509 37.3715 14.3149C37.1031 14.2788 36.9149 14.3851 36.807 14.6335L36.8382 14.8273C36.8408 14.8505 36.8449 14.8734 36.8507 14.896L36.957 15.2524L37.0132 15.6587L37.032 16.015C37.032 16.0171 37.032 16.0192 37.032 16.0213L37.0445 16.3338C37.0445 16.4755 37.1153 16.5464 37.257 16.5464C37.3987 16.5464 37.4696 16.4755 37.4696 16.3338ZM37.4071 18.478L37.3883 18.4342C37.3821 18.4758 37.3883 18.5154 37.4071 18.553L37.4258 18.4342C37.4467 18.3009 37.3904 18.2238 37.257 18.2029C37.1237 18.1821 37.0466 18.2383 37.0257 18.3717L37.007 18.4905C37.0483 18.4586 37.0733 18.4169 37.082 18.3655L37.0445 18.3967C36.93 18.4888 36.9144 18.5954 36.9977 18.7164C37.0809 18.8374 37.186 18.861 37.313 18.7871C37.4399 18.7131 37.4713 18.6101 37.4071 18.478Z" fill="black"/>
<path d="M20.5786 26.0855L20.4099 26.3918C20.3672 26.4699 20.3422 26.5532 20.3348 26.6418L20.2911 27.0857C20.2878 27.1085 20.2857 27.1314 20.2848 27.1544L20.2973 27.8296C20.2972 27.8358 20.2972 27.8421 20.2973 27.8483L20.3286 28.686C20.3286 28.6881 20.3286 28.6901 20.3286 28.6922L20.3724 29.5611C20.3722 29.5695 20.3722 29.5778 20.3724 29.5861L20.4411 30.3113L20.4724 30.7551V30.8801C20.4724 31.0355 20.5273 31.1681 20.6372 31.278C20.747 31.3878 20.8796 31.4427 21.035 31.4427C21.1903 31.4427 21.3229 31.3878 21.4328 31.278C21.5427 31.1681 21.5976 31.0355 21.5976 30.8801L21.5913 30.6926C21.5914 30.6884 21.5914 30.6843 21.5913 30.6801L21.5726 30.1988C21.5726 30.1946 21.5726 30.1904 21.5726 30.1863L21.5288 29.4736C21.5288 29.4715 21.5288 29.4695 21.5288 29.4674L21.4538 28.611L21.3913 27.7608L21.3788 27.0419C21.3793 27.0273 21.3793 27.0127 21.3788 26.9982L21.335 26.5231C21.3335 26.4873 21.3294 26.4519 21.3225 26.4168L21.2788 26.2418C21.2376 26.0617 21.1411 25.9192 20.9892 25.8141C20.8372 25.7091 20.6697 25.6692 20.4868 25.6945C20.3038 25.7197 20.1533 25.8034 20.0354 25.9455C19.9175 26.0877 19.8632 26.2511 19.8723 26.4355L19.8785 26.5356C19.8785 26.567 19.8806 26.5982 19.8848 26.6293L19.9473 26.9544L20.016 27.517L20.1098 28.2671C20.1135 28.301 20.1197 28.3343 20.1286 28.3672L20.3411 29.1048C20.3446 29.1196 20.3488 29.1342 20.3536 29.1486L20.5661 29.7049L20.5849 30.1738C20.5932 30.3655 20.6932 30.4571 20.8849 30.4488C21.0767 30.4405 21.1683 30.3405 21.16 30.1487L21.1475 29.6799L21.2975 29.0985C21.3005 29.082 21.3025 29.0653 21.3038 29.0485L21.4163 28.2859C21.4223 28.2444 21.4244 28.2027 21.4226 28.1609L21.3975 27.4045C21.3961 27.3877 21.394 27.3711 21.3913 27.3545L21.3288 26.7731C21.3288 26.771 21.3288 26.7689 21.3288 26.7669L21.2975 26.4793V26.4355C21.2522 26.2659 21.1571 26.1314 21.0123 26.032C20.8675 25.9327 20.7078 25.8924 20.5332 25.9111C20.3586 25.9298 20.211 26.003 20.0905 26.1308C19.9701 26.2586 19.9057 26.4102 19.8973 26.5856L19.941 26.7606L20.0598 27.2232L20.2348 27.8983L20.3536 28.7172L20.4161 29.5424L20.4474 30.2425L20.4661 30.7239C20.4661 30.7259 20.4661 30.728 20.4661 30.7301L20.4724 30.9176C20.4775 31.073 20.5369 31.2038 20.6504 31.31C20.7639 31.4162 20.8984 31.4667 21.0537 31.4615C21.2091 31.4563 21.3399 31.397 21.4461 31.2835C21.5523 31.1699 21.6028 31.0355 21.5976 30.8801V30.7426L21.6038 30.28L21.6351 29.5549C21.6352 29.5486 21.6352 29.5424 21.6351 29.5361L21.6413 28.6672C21.6414 28.6651 21.6414 28.6631 21.6413 28.661L21.6351 27.8233C21.6351 27.8212 21.6351 27.8191 21.6351 27.8171V27.1419C21.6338 27.1231 21.6317 27.1043 21.6288 27.0857L21.5851 26.6418C21.5777 26.5532 21.5527 26.4699 21.5101 26.3918L21.3413 26.0855C21.2576 25.9369 21.1305 25.8625 20.96 25.8625C20.7894 25.8625 20.6623 25.9369 20.5786 26.0855Z" fill="black"/>
<path d="M20.4537 31.8678C20.4537 31.9869 20.4958 32.0886 20.58 32.1728C20.6643 32.257 20.7659 32.2992 20.885 32.2992C21.0041 32.2992 21.1058 32.257 21.19 32.1728C21.2743 32.0886 21.3164 31.9869 21.3164 31.8678C21.3164 31.7487 21.2743 31.647 21.19 31.5628C21.1058 31.4786 21.0041 31.4365 20.885 31.4365C20.7659 31.4365 20.6643 31.4786 20.58 31.5628C20.4958 31.647 20.4537 31.7487 20.4537 31.8678ZM21.2914 32.0554L21.3101 32.0241L21.3289 31.9803L21.3726 31.9178L21.4351 31.8303L21.5477 31.7303L21.6664 31.6303L21.8227 31.5365L22.1103 31.3927C22.1166 31.3887 22.1228 31.3845 22.129 31.3802L22.5603 31.1427C22.5709 31.1367 22.5814 31.1305 22.5916 31.1239L23.1605 30.7614C23.1625 30.7614 23.1646 30.7614 23.1667 30.7614L23.8981 30.2925L24.7795 29.7487L25.7672 29.1298L26.8362 28.4609L27.9551 27.7608L29.1241 27.0482L30.3368 26.3168L31.5433 25.5791C31.5475 25.5792 31.5516 25.5792 31.5558 25.5791L32.706 24.8602C32.7081 24.8582 32.7102 24.8561 32.7123 24.854L33.7312 24.1976C33.7354 24.1956 33.7396 24.1935 33.7437 24.1914L34.6314 23.61C34.6356 23.6059 34.6398 23.6017 34.6439 23.5975L35.394 23.0849C35.3983 23.0808 35.4024 23.0766 35.4065 23.0724L36.0129 22.6473L36.4692 22.3223C36.4713 22.3223 36.4734 22.3223 36.4755 22.3223L36.7881 22.0972C36.814 22.0797 36.839 22.061 36.8631 22.041L37.0381 21.8847C37.0552 21.8727 37.0719 21.8602 37.0881 21.8472L37.1381 21.7972L37.1069 21.8159C37.034 21.8408 36.9652 21.8741 36.9006 21.9159L36.9193 21.9097L36.9381 21.9034C36.9787 21.8915 37.0183 21.8769 37.0569 21.8597L37.0756 21.8534C37.2929 21.7537 37.4492 21.5942 37.5445 21.3749C37.6398 21.1556 37.6498 20.9325 37.5744 20.7056C37.4991 20.4787 37.3576 20.3059 37.15 20.1872C36.9425 20.0685 36.7218 20.0342 36.488 20.0843L36.4692 20.0906C36.3889 20.1055 36.3118 20.1305 36.238 20.1656L36.2255 20.1781L36.2067 20.1844C36.1855 20.194 36.1646 20.2044 36.1442 20.2156L36.1129 20.2344C36.0425 20.272 35.9779 20.3178 35.9191 20.3719L35.8879 20.4031L35.8066 20.4719C35.8003 20.4781 35.794 20.4843 35.7879 20.4907L35.6316 20.6344L35.3753 20.8532L34.9502 21.172L34.3563 21.5909L33.625 22.1035L32.7498 22.6723L31.7308 23.3287L30.5994 24.0601L29.4117 24.8227L28.2114 25.5791L27.0487 26.3105C27.0445 26.3146 27.0403 26.3188 27.0362 26.323L25.9297 27.0482C25.9276 27.0502 25.9256 27.0523 25.9235 27.0544L24.8795 27.7608C24.8732 27.7649 24.867 27.769 24.8608 27.7733L23.9106 28.4547L23.0667 29.0673C23.0667 29.0694 23.0667 29.0715 23.0667 29.0735L22.3666 29.5861C22.3623 29.5903 22.3582 29.5944 22.3541 29.5986L21.8165 30.0112C21.808 30.0173 21.7996 30.0235 21.7915 30.03L21.4164 30.3488C21.3943 30.3661 21.3735 30.3849 21.3539 30.405L21.1288 30.6488C21.1131 30.6667 21.0985 30.6854 21.0851 30.7051L20.9475 30.9051L20.8225 31.0677C20.8204 31.0718 20.8183 31.076 20.8163 31.0802L20.7037 31.2427C20.7037 31.2448 20.7037 31.2469 20.7037 31.249L20.6037 31.3927C20.6016 31.3969 20.5995 31.401 20.5975 31.4052L20.535 31.5053C20.5205 31.5271 20.508 31.55 20.4975 31.574L20.4725 31.6428C20.4612 31.6711 20.4529 31.7003 20.4474 31.7303L20.4412 31.7678C20.405 32.0184 20.5068 32.1842 20.7466 32.2653C20.9864 32.3464 21.168 32.2764 21.2914 32.0554ZM36.6755 20.0906H36.663C36.4127 20.0906 36.1991 20.1791 36.0221 20.3561C35.8451 20.5331 35.7566 20.7467 35.7566 20.997C35.7566 21.2473 35.8451 21.461 36.0221 21.6379C36.1991 21.8149 36.4127 21.9034 36.663 21.9034H36.6755C36.9258 21.9034 37.1395 21.8149 37.3165 21.6379C37.4935 21.461 37.582 21.2473 37.582 20.997C37.582 20.7467 37.4935 20.5331 37.3165 20.3561C37.1395 20.1791 36.9258 20.0906 36.6755 20.0906Z" fill="black"/>
<path d="M2.17523 23.2412L2.20023 23.3037C2.2332 23.3876 2.28737 23.4543 2.36276 23.5037L2.55655 23.6413L2.86911 23.8601L3.25668 24.1351L3.67551 24.4477C3.68168 24.452 3.68793 24.4561 3.69427 24.4602L4.15686 24.7852L4.62569 25.104C4.62776 25.1061 4.62985 25.1082 4.63195 25.1103L5.07578 25.4041L5.50711 25.7167L5.97595 26.0792C5.9801 26.0814 5.98426 26.0834 5.98845 26.0855L6.55106 26.4981C6.56527 26.509 6.57986 26.5194 6.59482 26.5293L7.2762 26.9606C7.29452 26.9718 7.31327 26.9823 7.33246 26.9919L8.12011 27.4045L8.95152 27.8421C8.9536 27.8421 8.95569 27.8421 8.95777 27.8421L9.80793 28.2796L10.6518 28.7235C10.656 28.7235 10.6602 28.7235 10.6643 28.7235L11.4832 29.1361C11.4874 29.1382 11.4916 29.1403 11.4958 29.1423L12.2459 29.5049C12.248 29.5049 12.2501 29.5049 12.2521 29.5049L12.9523 29.8362L13.6087 30.1488C13.6128 30.1509 13.617 30.153 13.6212 30.155L14.2338 30.4301C14.2441 30.4345 14.2545 30.4386 14.265 30.4426L14.8026 30.6551C14.8089 30.6573 14.8151 30.6594 14.8214 30.6614L15.284 30.8301C15.2881 30.8323 15.2923 30.8343 15.2965 30.8364L15.7341 30.9864C15.7382 30.9885 15.7424 30.9906 15.7466 30.9927L16.2279 31.1489C16.2341 31.1511 16.2404 31.1532 16.2467 31.1552L16.7593 31.3052L17.2593 31.4928C17.2614 31.4928 17.2635 31.4928 17.2656 31.4928L17.7469 31.6615C17.7552 31.6638 17.7636 31.6659 17.7719 31.6678L18.2283 31.8116L18.6909 31.9616L19.1722 32.1366L20.0224 32.4679C20.047 32.4757 20.072 32.4819 20.0974 32.4867L20.3724 32.5617L20.535 32.5992C20.8497 32.6693 21.0717 32.5567 21.201 32.2614C21.3304 31.966 21.2625 31.7265 20.9976 31.5428L20.8538 31.4553C20.8416 31.4465 20.8291 31.4381 20.8163 31.4302L20.56 31.2927C20.5397 31.2812 20.5189 31.2708 20.4975 31.2615L19.6536 30.9176C19.6453 30.9154 19.6369 30.9133 19.6285 30.9114L19.1347 30.7239C19.1264 30.7216 19.1181 30.7195 19.1097 30.7176L18.6284 30.5613C18.6263 30.5613 18.6242 30.5613 18.6221 30.5613L18.172 30.4176L17.7094 30.2613L17.2281 30.0737L16.753 29.8424C16.7406 29.8379 16.7281 29.8338 16.7155 29.8299L16.2467 29.6362C16.2384 29.6318 16.2301 29.6277 16.2217 29.6237L15.7903 29.4674L15.3652 29.2986L14.8651 29.061L14.2588 28.7797L13.6087 28.4609C13.6066 28.4609 13.6045 28.4609 13.6024 28.4609L12.9085 28.1296L12.1646 27.767L11.3582 27.3607L10.5143 26.9169C10.5122 26.9169 10.5101 26.9169 10.5081 26.9169L9.6579 26.4793L8.83275 26.0542L8.0576 25.6354C8.05553 25.6333 8.05344 25.6312 8.05135 25.6291L7.33871 25.2478C7.33454 25.2478 7.33038 25.2478 7.32621 25.2478L6.70734 24.9228L6.17599 24.654L5.7134 24.4039L5.26957 24.1289L4.80073 23.8225C4.79456 23.8183 4.78831 23.8141 4.78197 23.81L4.30063 23.5225C4.28837 23.5158 4.27586 23.5095 4.26313 23.5037L3.78178 23.2662C3.77765 23.2641 3.77348 23.262 3.76928 23.2599L3.3442 23.0599L3.01289 22.8911L2.80035 22.7786C2.71568 22.7337 2.62608 22.7191 2.53155 22.7348L2.46903 22.7411C2.35061 22.7572 2.26114 22.8167 2.2006 22.9197C2.14007 23.0228 2.13161 23.1299 2.17523 23.2412ZM20.2537 32.0679C20.2537 32.2008 20.3007 32.3142 20.3947 32.4081C20.4887 32.5021 20.6021 32.549 20.735 32.549C20.8679 32.549 20.9813 32.5021 21.0753 32.4081C21.1693 32.3142 21.2163 32.2008 21.2164 32.0679C21.2163 31.935 21.1693 31.8216 21.0753 31.7276C20.9813 31.6337 20.8679 31.5867 20.735 31.5867C20.6021 31.5867 20.4887 31.6337 20.3947 31.7276C20.3007 31.8216 20.2537 31.935 20.2537 32.0679ZM20.3287 32.0554C20.3287 32.1589 20.3653 32.2473 20.4385 32.3206C20.5118 32.3938 20.6002 32.4304 20.7038 32.4304C20.8073 32.4304 20.8957 32.3938 20.969 32.3206C21.0422 32.2473 21.0788 32.1589 21.0788 32.0554C21.0788 31.9518 21.0422 31.8634 20.969 31.7901C20.8957 31.7169 20.8073 31.6803 20.7038 31.6803C20.6002 31.6803 20.5118 31.7169 20.4385 31.7901C20.3653 31.8634 20.3287 31.9518 20.3287 32.0554ZM20.7163 31.7928L20.6225 31.7553C20.4739 31.7054 20.3701 31.7531 20.3112 31.8984C20.2523 32.0437 20.2935 32.1502 20.435 32.2179L20.5287 32.2554C20.6774 32.3053 20.7811 32.2576 20.84 32.1123C20.8989 31.967 20.8577 31.8605 20.7163 31.7928Z" fill="black"/>
<path d="M19.0284 30.8613L18.9722 30.8051C18.9497 30.7829 18.9247 30.7642 18.8972 30.7488L18.6221 30.58C18.6159 30.5778 18.6097 30.5757 18.6034 30.5738L18.0345 30.2675C18.0324 30.2654 18.0303 30.2633 18.0282 30.2612L17.2093 29.8486L16.2467 29.3673C16.2425 29.3672 16.2383 29.3672 16.2342 29.3673L15.184 28.8672L14.0712 28.3358L12.9085 27.7482L11.7333 27.1294L10.6081 26.498C10.606 26.498 10.6039 26.498 10.6018 26.498L9.54538 25.9291C9.54331 25.927 9.54122 25.925 9.53913 25.9229L8.60145 25.429C8.59938 25.4269 8.5973 25.4249 8.5952 25.4228L7.75754 24.9852L7.03865 24.5726L6.45104 24.1476C6.44486 24.1433 6.43861 24.1391 6.43228 24.135L5.89468 23.7725C5.88236 23.7659 5.86986 23.7596 5.85717 23.7537L5.40709 23.4849L5.05702 23.2599L4.78197 23.0536L4.52567 22.8411L4.29438 22.6285L4.09434 22.4347L3.93181 22.2722C3.92368 22.2637 3.91535 22.2553 3.9068 22.2472L3.76303 22.1222C3.73189 22.0942 3.69855 22.0692 3.66301 22.0472L3.52548 21.9596C3.49547 21.9406 3.46422 21.924 3.43171 21.9096L3.30044 21.8534C3.28195 21.8463 3.26319 21.8401 3.24418 21.8346L3.13166 21.7971C3.12336 21.7949 3.11503 21.7928 3.10665 21.7909L3.01913 21.7596C2.92873 21.7346 2.83705 21.7283 2.74408 21.7408L2.68782 21.7471C2.56823 21.7596 2.45988 21.8012 2.36276 21.8721L2.33776 21.8909C2.27555 21.9378 2.22346 21.994 2.18148 22.0597L2.16897 22.0784C2.29147 22.0296 2.38941 21.9504 2.46278 21.8409H2.45653H2.45028C2.482 21.837 2.51326 21.8307 2.54404 21.8221L2.51279 21.8284C2.50022 21.8301 2.48772 21.8322 2.47528 21.8346H2.46278H2.45028C2.43771 21.8363 2.42521 21.8384 2.41277 21.8409L2.37526 21.8471C2.35842 21.8506 2.34175 21.8548 2.32525 21.8596L2.28775 21.8721C2.22566 21.8884 2.16732 21.9134 2.11271 21.9471L2.08146 21.9659C1.99595 22.0205 1.92719 22.0913 1.87517 22.1784L1.85016 22.2159C1.8411 22.2322 1.83276 22.2489 1.82516 22.2659L1.81266 22.2972C1.876 22.2405 1.92601 22.1738 1.96268 22.0972L1.93768 22.1222C2.10654 22.1295 2.25449 22.0774 2.38151 21.9659L2.3315 21.9596C2.28521 21.9588 2.23936 21.963 2.19398 21.9721L2.14397 21.9846C1.84545 22.0386 1.67459 22.2157 1.63137 22.516L1.62512 22.5598C1.60455 22.7131 1.63653 22.8547 1.72107 22.9843C1.80561 23.1139 1.92221 23.2003 2.07087 23.2433C2.21954 23.2863 2.36423 23.2756 2.50495 23.2112C2.64566 23.1468 2.7483 23.0442 2.81285 22.9036L2.8316 22.8598C2.57936 22.8784 2.40224 23.0034 2.30025 23.2349H2.33776L2.38151 23.2286C2.49693 23.2244 2.6032 23.1911 2.70032 23.1286L2.72533 23.1161C2.7946 23.0712 2.85295 23.0149 2.90036 22.9473L2.91912 22.9223L2.94412 22.8911C2.86513 22.9353 2.79845 22.9937 2.74408 23.0661L2.77534 23.0473C2.74505 23.0597 2.71588 23.0743 2.68782 23.0911L2.72533 23.0723C2.67594 23.0792 2.62801 23.0917 2.58155 23.1099L2.62531 23.1036C2.63787 23.1019 2.65038 23.0998 2.66282 23.0974H2.67532H2.68782C2.71321 23.0926 2.73821 23.0864 2.76284 23.0786L2.79409 23.0723C2.8397 23.0605 2.88346 23.0439 2.92537 23.0223H2.93162L2.93787 23.0161C2.84244 23.0122 2.75076 23.0288 2.66282 23.0661H2.68157C2.6328 23.0497 2.58279 23.0393 2.53154 23.0348L2.5628 23.0473C2.52305 23.0243 2.48138 23.0055 2.43777 22.9911L2.48778 23.0223C2.51013 23.034 2.53305 23.0444 2.55655 23.0536L2.63781 23.0911L2.68157 23.1099L2.75033 23.1536C2.75448 23.1557 2.75865 23.1578 2.76284 23.1599L2.8566 23.2286L2.95662 23.3099L3.1004 23.4474L3.28794 23.6412C3.29407 23.6476 3.30032 23.6538 3.30669 23.66L3.54423 23.8913C3.55832 23.9043 3.57291 23.9168 3.58799 23.9288L3.8693 24.1663C3.87948 24.1749 3.8899 24.1833 3.90055 24.1913L4.21936 24.4289C4.23356 24.4398 4.24814 24.4502 4.26312 24.4601L4.64444 24.7039C4.6547 24.7104 4.66512 24.7167 4.6757 24.7227L5.14454 24.9852C5.15678 24.9939 5.16928 25.0023 5.18205 25.0102L5.76341 25.2915C5.76959 25.2958 5.77584 25.3 5.78216 25.304L6.45104 25.6041L7.19493 26.0104C7.19907 26.0125 7.20324 26.0146 7.20743 26.0167L8.05759 26.4605L9.00152 26.9481C9.00361 26.9481 9.00569 26.9481 9.00777 26.9481L10.0767 27.4919C10.0788 27.494 10.0809 27.4961 10.083 27.4982L11.2457 28.067L12.4397 28.6609C12.4417 28.663 12.4438 28.6651 12.4459 28.6672L13.6274 29.236C13.6336 29.2403 13.6398 29.2445 13.6462 29.2485L14.7839 29.7486C14.786 29.7486 14.788 29.7486 14.7901 29.7486L15.8591 30.205C15.8612 30.205 15.8632 30.205 15.8653 30.205L16.8593 30.6113L17.6969 30.9676L18.2783 31.2239L18.5533 31.3614C18.5771 31.3748 18.6021 31.3852 18.6284 31.3927L18.7096 31.4114C18.8703 31.4507 18.992 31.3988 19.075 31.2557C19.1579 31.1127 19.1424 30.9812 19.0284 30.8613ZM2.10021 22.9786L2.23148 23.1411C2.35886 23.2636 2.49119 23.2692 2.62846 23.1579C2.76574 23.0466 2.78761 22.916 2.69407 22.766L2.5628 22.6035C2.43542 22.481 2.30309 22.4754 2.16582 22.5867C2.02855 22.698 2.00668 22.8286 2.10021 22.9786Z" fill="black"/>
<path d="M14.303 14.5084C14.303 14.6835 14.3905 14.771 14.5656 14.771C14.7406 14.771 14.8281 14.6835 14.8281 14.5084C14.8281 14.3334 14.7406 14.2459 14.5656 14.2459C14.3905 14.2459 14.303 14.3334 14.303 14.5084ZM14.1467 14.5147C14.1467 14.6286 14.187 14.7259 14.2676 14.8064C14.3481 14.887 14.4454 14.9273 14.5593 14.9273C14.6732 14.9273 14.7705 14.887 14.851 14.8064C14.9316 14.7259 14.9719 14.6286 14.9719 14.5147C14.9719 14.4007 14.9316 14.3035 14.851 14.2229C14.7705 14.1424 14.6732 14.1021 14.5593 14.1021C14.4454 14.1021 14.3481 14.1424 14.2676 14.2229C14.187 14.3035 14.1467 14.4007 14.1467 14.5147ZM14.4093 14.0958L14.3843 14.1083C14.2572 14.1451 14.161 14.2209 14.0957 14.3359C14.0303 14.4509 14.0144 14.5723 14.0479 14.7003C14.0814 14.8282 14.1548 14.9263 14.2681 14.9945C14.3814 15.0627 14.5024 15.0817 14.6312 15.0514C14.7599 15.0212 14.8598 14.9503 14.9309 14.8387C15.0019 14.7271 15.0239 14.6066 14.9969 14.4772L14.9906 14.4459C14.9632 14.3141 14.8918 14.2134 14.7764 14.1439C14.661 14.0745 14.5387 14.0584 14.4093 14.0958ZM13.9592 14.5897C13.9592 14.7399 14.0123 14.8681 14.1185 14.9743C14.2247 15.0804 14.3529 15.1335 14.503 15.1335C14.6532 15.1335 14.7814 15.0804 14.8876 14.9743C14.9938 14.8681 15.0469 14.7399 15.0469 14.5897C15.0469 14.4395 14.9938 14.3113 14.8876 14.2051C14.7814 14.0989 14.6532 14.0458 14.503 14.0458C14.3529 14.0458 14.2247 14.0989 14.1185 14.2051C14.0123 14.3113 13.9592 14.4395 13.9592 14.5897ZM14.5656 15.1585L14.6218 15.1523C14.7769 15.1397 14.9102 15.0793 15.0219 14.971L15.1344 14.8585C15.1592 14.8352 15.1821 14.8102 15.2032 14.7835L15.372 14.5584C15.3806 14.5482 15.3889 14.5378 15.397 14.5272L15.6408 14.1646L16.0033 13.6458C16.0054 13.6437 16.0075 13.6416 16.0096 13.6395L16.4847 12.9519L17.0535 12.158L17.6849 11.2953L18.36 10.4139L19.0852 9.50122L19.8478 8.58855L20.6605 7.69463L21.4856 6.86322L22.3108 6.09432L23.1797 5.36919L24.0549 4.70656L24.9175 4.1252L25.7989 3.63135L26.6554 3.22503L27.4243 2.94372L28.0931 2.79369L28.6807 2.74994L29.1996 2.79995L29.7435 2.93747L30.2936 3.15001L30.8249 3.45007L31.3438 3.84389L31.8626 4.33774L32.3815 4.93785L32.8753 5.62548L33.3254 6.36312L33.7067 7.12577L34.0318 7.96968L34.3193 8.88235L34.5944 9.77627L34.8319 10.5889C34.8319 10.591 34.8319 10.5931 34.8319 10.5952L35.0507 11.3203L35.2445 11.9579C35.2445 11.9621 35.2445 11.9663 35.2445 11.9704L35.4258 12.5456L35.5821 13.0394C35.584 13.0478 35.5861 13.0561 35.5883 13.0644L35.7321 13.477C35.7341 13.4853 35.7361 13.4937 35.7383 13.502L35.8696 13.8458C35.8755 13.8605 35.8817 13.8751 35.8884 13.8896L36.0134 14.1771C36.0298 14.2138 36.0486 14.2492 36.0697 14.2834L36.1947 14.5022C36.2352 14.5666 36.2831 14.625 36.3385 14.6772L36.4697 14.8085C36.7357 15.0719 37.0395 15.127 37.3811 14.9739C37.7226 14.8207 37.8835 14.5572 37.8637 14.1834L37.8512 13.9958C37.8491 13.9345 37.8408 13.8741 37.8262 13.8145L37.7575 13.5707C37.7506 13.5412 37.7422 13.512 37.7325 13.4832L37.6262 13.1957L37.5074 12.8581L37.3699 12.458L37.2136 11.9892L37.0511 11.4266L36.8636 10.789C36.8636 10.7848 36.8636 10.7806 36.8636 10.7765L36.6448 10.0576L36.4072 9.24492C36.4072 9.24076 36.4072 9.23659 36.4072 9.23242L36.1322 8.326C36.1301 8.32182 36.128 8.31765 36.1259 8.3135L35.8321 7.36957C35.8263 7.35272 35.8201 7.33605 35.8134 7.31956L35.4633 6.40063C35.4523 6.37083 35.4397 6.34166 35.4258 6.31312L35.0132 5.47546C34.9996 5.45191 34.985 5.42899 34.9694 5.40669L34.4819 4.60654C34.4701 4.58523 34.4576 4.56439 34.4443 4.54403L33.9067 3.79389C33.8909 3.77235 33.8743 3.75151 33.8567 3.73137L33.2816 3.0625C33.26 3.03627 33.2371 3.01127 33.2129 2.98748L32.6127 2.42487C32.5849 2.40024 32.5557 2.37732 32.5252 2.35611L31.9064 1.89352C31.8743 1.87061 31.841 1.84978 31.8063 1.83101L31.1625 1.46844C31.1222 1.44665 31.0805 1.4279 31.0374 1.41218L30.3686 1.15588C30.3319 1.14102 30.2943 1.12852 30.256 1.11838L29.5872 0.955845C29.5378 0.943441 29.4878 0.935106 29.4371 0.93084L28.7683 0.880831C28.7162 0.876474 28.6641 0.876474 28.612 0.880831L27.8806 0.943343C27.8278 0.947236 27.7757 0.95557 27.7243 0.968347L26.9304 1.18089C26.8986 1.18961 26.8673 1.20003 26.8366 1.21214L25.9802 1.54346C25.9569 1.55292 25.934 1.56334 25.9115 1.57471L24.9863 2.01855C24.9672 2.0283 24.9484 2.03871 24.93 2.0498L23.9986 2.58741C23.9794 2.5992 23.9606 2.6117 23.9423 2.62491L23.0297 3.25003C23.017 3.25805 23.0045 3.26638 22.9922 3.27504L22.092 3.97517C22.0814 3.98327 22.071 3.9916 22.0607 4.00017L21.1606 4.75657C21.1499 4.76673 21.1395 4.77714 21.1293 4.78782L20.2729 5.58798C20.2644 5.59614 20.2561 5.60448 20.2479 5.61298L19.3977 6.46939C19.3892 6.47756 19.3809 6.4859 19.3727 6.4944L18.5351 7.41332C18.5266 7.42149 18.5182 7.42983 18.5101 7.43833L17.7224 8.37601C17.716 8.38423 17.7098 8.39257 17.7037 8.40101L16.9723 9.32619C16.9681 9.33031 16.9639 9.33448 16.9598 9.33869L16.2846 10.2451C16.2782 10.2533 16.272 10.2617 16.2659 10.2701L15.647 11.1578C15.6406 11.166 15.6344 11.1743 15.6283 11.1828L15.0907 12.0142C15.082 12.0265 15.0737 12.039 15.0657 12.0517L14.6468 12.7831C14.6424 12.7934 14.6383 12.8038 14.6343 12.8144L14.3405 13.3832C14.334 13.3935 14.3278 13.4039 14.3218 13.4145L14.1405 13.8208C14.1384 13.8229 14.1363 13.825 14.1342 13.827L14.0217 14.0896C14.0098 14.114 13.9994 14.139 13.9905 14.1646L13.9467 14.3209C13.9134 14.4302 13.9092 14.5407 13.9342 14.6522L13.9467 14.7085C13.9802 14.8496 14.0555 14.9628 14.1728 15.0481C14.2901 15.1333 14.421 15.1702 14.5656 15.1585ZM36.8636 14.4834L36.9011 14.5459C37.0045 14.6674 37.1244 14.6869 37.2609 14.6042C37.3974 14.5216 37.4358 14.4063 37.3762 14.2584L37.3386 14.1959C37.2352 14.0744 37.1153 14.0549 36.9788 14.1376C36.8423 14.2202 36.8039 14.3355 36.8636 14.4834Z" fill="black"/>
<path d="M1.11885 15.8334C1.11885 15.9335 1.15425 16.019 1.22504 16.0898C1.29584 16.1606 1.3813 16.196 1.48142 16.196C1.58154 16.196 1.667 16.1606 1.73779 16.0898C1.80859 16.019 1.84399 15.9335 1.84399 15.8334C1.84399 15.7333 1.80859 15.6478 1.73779 15.577C1.667 15.5062 1.58154 15.4708 1.48142 15.4708C1.3813 15.4708 1.29584 15.5062 1.22504 15.577C1.15425 15.6478 1.11885 15.7333 1.11885 15.8334ZM1.80023 16.096L1.80648 16.0897C1.82935 16.0609 1.8481 16.0297 1.86274 15.9959L1.87524 15.9647L1.93151 15.8834L2.08779 15.6834L2.35659 15.3458C2.35869 15.3437 2.36077 15.3417 2.36284 15.3396L2.74416 14.852C2.74624 14.852 2.74833 14.852 2.75041 14.852L3.21925 14.2456C3.22133 14.2456 3.22342 14.2456 3.2255 14.2456L3.7631 13.533L4.35697 12.7578L4.98834 11.9577L5.63846 11.145L6.28858 10.3574L6.92621 9.58221L7.55132 8.83832L8.14519 8.15694L8.7078 7.56933L9.2579 7.05673L9.78925 6.60665L10.2893 6.21907L10.7394 5.90651L11.1395 5.68147L11.4896 5.53769L11.7959 5.45643L12.0772 5.44392L12.3522 5.47518L12.6648 5.58145L13.0149 5.75023L13.3962 5.95027L13.7775 6.18156L14.1276 6.43786L14.4526 6.75667L14.7652 7.13175L15.0403 7.51307L15.2965 7.89439L15.5278 8.26946L15.7466 8.62578L15.9404 8.9821L16.1155 9.32591L16.2717 9.64472C16.2777 9.65529 16.284 9.66571 16.2905 9.67598L16.528 10.1073C16.627 10.2731 16.7688 10.3841 16.9535 10.4404C17.1382 10.4967 17.3179 10.4836 17.4925 10.4011C17.6671 10.3187 17.7913 10.1883 17.8652 10.0099C17.9391 9.83152 17.9434 9.65145 17.8783 9.46969L17.697 9.0071C17.6911 8.99443 17.6848 8.98193 17.6783 8.9696L17.5282 8.63828C17.5242 8.62987 17.52 8.62154 17.5157 8.61328L17.3344 8.25696C17.3304 8.24855 17.3263 8.24022 17.3219 8.23196L17.1156 7.85688C17.1136 7.85061 17.1116 7.84436 17.1094 7.83813L16.8844 7.45681C16.8803 7.4505 16.8761 7.44425 16.8718 7.43805L16.6218 7.05048C16.6198 7.04629 16.6177 7.04213 16.6156 7.03798L16.3467 6.63165C16.3408 6.61898 16.3346 6.60648 16.328 6.59414L16.0217 6.17531C16.0077 6.16015 15.9931 6.14557 15.9779 6.13156L15.6216 5.71273C15.6001 5.68838 15.5772 5.66545 15.5528 5.64396L15.1403 5.27514C15.1128 5.2501 15.0836 5.22718 15.0528 5.20638L14.6152 4.91882C14.5989 4.90776 14.5822 4.89734 14.5652 4.88757L14.1276 4.64377C14.1072 4.63238 14.0864 4.62196 14.0651 4.61252L13.6337 4.42498C13.6173 4.41812 13.6006 4.41187 13.5837 4.40623L13.1649 4.2562C13.1242 4.24196 13.0825 4.23154 13.0399 4.22494L12.6085 4.15618C12.5734 4.1492 12.538 4.14503 12.5023 4.14368H12.1022C12.0792 4.14454 12.0562 4.14663 12.0334 4.14993L11.6334 4.19369C11.6016 4.19759 11.5704 4.20384 11.5396 4.21244L11.127 4.31871C11.0971 4.32698 11.0679 4.33739 11.0395 4.34997L10.6144 4.53125C10.593 4.54051 10.5722 4.55093 10.5519 4.56251L10.0893 4.81881C10.0722 4.82844 10.0555 4.83886 10.0393 4.85006L9.55171 5.18763C9.54102 5.19563 9.5306 5.20397 9.52045 5.21263L8.99535 5.62521C8.99112 5.62932 8.98696 5.63349 8.98285 5.63771L8.43274 6.1003C8.42425 6.10634 8.41592 6.1126 8.40774 6.11905L7.83263 6.65666C7.82184 6.66671 7.81143 6.67713 7.80137 6.68791L7.22626 7.30053C7.21988 7.30665 7.21363 7.3129 7.20751 7.31928L6.60114 8.02567C6.59905 8.02774 6.59696 8.02982 6.59489 8.03192L5.96977 8.78831C5.96976 8.79039 5.96976 8.79248 5.96977 8.79456L5.33215 9.57596L4.68828 10.3824L4.03816 11.195C4.03814 11.1971 4.03814 11.1992 4.03816 11.2013L3.40054 12.0077C3.39631 12.0118 3.39214 12.0159 3.38803 12.0202L2.80042 12.8078C2.79832 12.8099 2.79624 12.812 2.79417 12.8141L2.26907 13.533C2.2625 13.5432 2.25625 13.5536 2.25032 13.5642L1.83774 14.2081C1.83344 14.2143 1.82928 14.2205 1.82524 14.2268L1.51268 14.7582C1.50606 14.7684 1.49981 14.7788 1.49392 14.7895L1.30014 15.177C1.29348 15.1872 1.28723 15.1976 1.28138 15.2083L1.18136 15.4521L1.1251 15.5834C1.11511 15.6035 1.10678 15.6244 1.1001 15.6459L1.08134 15.7146C1.04218 15.8525 1.06718 15.9775 1.15636 16.0897L1.16261 16.096C1.24395 16.1989 1.35022 16.2504 1.48142 16.2504C1.61262 16.2504 1.71889 16.1989 1.80023 16.096ZM16.6656 9.84476C16.6656 10.0036 16.7217 10.1391 16.834 10.2514C16.9463 10.3637 17.0819 10.4199 17.2407 10.4199C17.3995 10.4199 17.535 10.3637 17.6473 10.2514C17.7596 10.1391 17.8158 10.0036 17.8158 9.84476C17.8158 9.68595 17.7596 9.5504 17.6473 9.4381C17.535 9.3258 17.3995 9.26965 17.2407 9.26965C17.0819 9.26965 16.9463 9.3258 16.834 9.4381C16.7217 9.5504 16.6656 9.68595 16.6656 9.84476ZM17.5095 9.99479L17.5157 9.98229C17.5623 9.83615 17.517 9.72878 17.3798 9.66018C17.2426 9.59158 17.1296 9.61977 17.0406 9.74474L17.0344 9.75725C16.9878 9.90338 17.0331 10.0108 17.1703 10.0794C17.3075 10.148 17.4205 10.1198 17.5095 9.99479Z" fill="black"/>
</g>
<defs>
<clipPath id="clip0_1_7257">
<rect width="39" height="33" fill="white"/>
</clipPath>
</defs>
</svg>
