<svg width="40" height="33" viewBox="0 0 40 33" fill="none" xmlns="http://www.w3.org/2000/svg">
<g clip-path="url(#clip0_1_7260)">
<path d="M2.1819 14.6731L2.17565 14.6669C2.14075 14.6059 2.09282 14.558 2.03187 14.5231L2.00061 14.5043C1.90841 14.4513 1.81047 14.4367 1.70681 14.4606L1.66305 14.4731C1.74096 14.5015 1.82014 14.5056 1.90059 14.4856L1.87559 14.4793C1.75602 14.4347 1.63926 14.4411 1.52532 14.4986C1.41137 14.5561 1.33686 14.6462 1.30177 14.769C1.26668 14.8917 1.28229 15.0076 1.34861 15.1166C1.41493 15.2257 1.51064 15.2928 1.63574 15.3182C1.76084 15.3435 1.87514 15.3188 1.97862 15.244C2.08211 15.1693 2.14153 15.0686 2.15689 14.9419V14.9232C1.99917 14.9783 1.90957 15.0888 1.88809 15.2545L1.93185 15.2357C1.95574 15.2274 1.97867 15.217 2.00061 15.2045L2.03187 15.1857C2.09282 15.1508 2.14075 15.1029 2.17565 15.0419L2.1819 15.0357C2.25011 14.9148 2.25011 14.794 2.1819 14.6731ZM1.21921 14.9107C1.21921 15.0453 1.26682 15.1602 1.36203 15.2554C1.45724 15.3506 1.57216 15.3983 1.70681 15.3983C1.84145 15.3983 1.95638 15.3506 2.05159 15.2554C2.1468 15.1602 2.1944 15.0453 2.1944 14.9107C2.1944 14.776 2.1468 14.6611 2.05159 14.5659C1.95638 14.4707 1.84145 14.4231 1.70681 14.4231C1.57216 14.4231 1.45724 14.4707 1.36203 14.5659C1.26682 14.6611 1.21921 14.776 1.21921 14.9107ZM1.21921 15.1545L1.24422 15.2107C1.27881 15.2944 1.33091 15.3653 1.4005 15.4233L1.48802 15.492C1.50785 15.508 1.52869 15.5226 1.55053 15.5358L1.69431 15.6233L1.90059 15.7483C1.91471 15.7594 1.92929 15.7698 1.94435 15.7796L2.23191 15.9234C2.23605 15.9255 2.24022 15.9276 2.24441 15.9296L2.60073 16.0984L3.09457 16.3734L3.79471 16.786L4.66362 17.3111L5.64506 17.8987L6.67025 18.5113L7.69545 19.1427L8.71439 19.7991L9.77084 20.468C9.77291 20.4701 9.775 20.4721 9.77709 20.4742L10.8648 21.1556C10.8689 21.1577 10.8731 21.1598 10.8773 21.1618L11.9463 21.8057C11.9483 21.8078 11.9504 21.8099 11.9525 21.812L12.9464 22.3996L13.8716 22.9434L14.7218 23.4435L15.5032 23.9249L16.2096 24.3812L16.8347 24.7938L17.3848 25.1751L17.8911 25.5314L18.3537 25.869C18.3599 25.8733 18.3662 25.8774 18.3725 25.8815L18.8351 26.1941C18.8453 26.2006 18.8557 26.2068 18.8663 26.2128L19.3227 26.4879C19.3309 26.4922 19.3393 26.4964 19.3477 26.5004L19.779 26.7442C19.7934 26.7509 19.808 26.7571 19.8228 26.7629L20.2041 26.9442C20.2082 26.9463 20.2124 26.9484 20.2166 26.9505L20.5479 27.1067L20.8855 27.2755L21.248 27.4756C21.2644 27.4845 21.281 27.4929 21.298 27.5006L21.6731 27.6756C21.7034 27.6905 21.7347 27.703 21.7669 27.7131L22.0732 27.8006C22.0856 27.8031 22.0981 27.8052 22.1107 27.8069L22.292 27.8506C22.5546 27.9126 22.7479 27.8238 22.872 27.5841C22.996 27.3444 22.9569 27.1353 22.7546 26.9567L22.6295 26.8442L22.4233 26.6254C22.4073 26.61 22.3907 26.5954 22.3732 26.5816L22.0607 26.3128C22.0313 26.2874 22 26.2644 21.9669 26.2441L21.5918 26.019C21.5775 26.0102 21.563 26.0018 21.5481 25.994L21.1855 25.8127C21.1814 25.8106 21.1772 25.8085 21.173 25.8065L20.8354 25.644L20.4791 25.4627L20.0791 25.2376L19.6477 24.9626L19.2101 24.6688L18.7601 24.3375C18.7559 24.3332 18.7518 24.3291 18.7476 24.325L18.235 23.9624C18.2329 23.9624 18.2308 23.9624 18.2287 23.9624L17.6661 23.5748C17.664 23.5727 17.6619 23.5706 17.6598 23.5686L17.0285 23.1435C17.0243 23.1414 17.0202 23.1393 17.016 23.1372L16.2971 22.6746C16.2929 22.6725 16.2888 22.6704 16.2846 22.6684L15.4907 22.1808C15.4865 22.1787 15.4824 22.1766 15.4782 22.1745L14.6218 21.6682L13.6966 21.1243L12.7027 20.543L11.6462 19.8991L10.5522 19.224L9.49579 18.5614C9.49372 18.5593 9.49164 18.5572 9.48954 18.5551L8.45184 17.9237C8.4477 17.9216 8.44353 17.9195 8.43934 17.9175L7.39539 17.3049L6.36394 16.6922L5.37626 16.1109C5.37211 16.1088 5.36794 16.1067 5.36375 16.1046L4.48234 15.6045C4.47414 15.5981 4.46581 15.5918 4.45733 15.5858L3.71969 15.2107C3.70533 15.2039 3.69074 15.1977 3.67593 15.192L3.13208 14.9607C3.12379 14.9584 3.11545 14.9563 3.10707 14.9544L2.72575 14.8106L2.42569 14.6919C2.42153 14.6918 2.41736 14.6918 2.41319 14.6919L2.2069 14.6169L2.10063 14.5668L2.06938 14.5481L2.05062 14.5356C1.83569 14.3515 1.61472 14.344 1.38773 14.5129C1.16073 14.6819 1.10456 14.8957 1.21921 15.1545ZM22.0732 27.3568C22.0732 27.469 22.1129 27.5648 22.1922 27.6441C22.2715 27.7234 22.3673 27.7631 22.4795 27.7631C22.5917 27.7631 22.6875 27.7234 22.7668 27.6441C22.8462 27.5648 22.8858 27.469 22.8858 27.3568C22.8858 27.2446 22.8462 27.1488 22.7668 27.0695C22.6875 26.9901 22.5917 26.9505 22.4795 26.9505C22.3673 26.9505 22.2715 26.9901 22.1922 27.0695C22.1129 27.1488 22.0732 27.2446 22.0732 27.3568ZM22.7358 27.3068L22.7296 27.2755C22.6865 27.1476 22.5987 27.0965 22.4662 27.1223C22.3337 27.1481 22.2715 27.2283 22.2795 27.363L22.2857 27.3943C22.3288 27.5222 22.4166 27.5733 22.5491 27.5475C22.6816 27.5217 22.7438 27.4415 22.7358 27.3068Z" fill="black"/>
<path d="M21.1293 27.7694C21.1293 27.8626 21.1623 27.9422 21.2282 28.0081C21.2941 28.074 21.3737 28.107 21.4669 28.107C21.5601 28.107 21.6396 28.074 21.7056 28.0081C21.7715 27.9422 21.8044 27.8626 21.8044 27.7694C21.8044 27.6762 21.7715 27.5966 21.7056 27.5307C21.6396 27.4648 21.5601 27.4318 21.4669 27.4318C21.3737 27.4318 21.2941 27.4648 21.2282 27.5307C21.1623 27.5966 21.1293 27.6762 21.1293 27.7694ZM21.0605 27.7694C21.0605 27.8799 21.0996 27.9742 21.1777 28.0523C21.2558 28.1304 21.3501 28.1695 21.4606 28.1695C21.5711 28.1695 21.6654 28.1304 21.7435 28.0523C21.8216 27.9742 21.8607 27.8799 21.8607 27.7694C21.8607 27.6589 21.8216 27.5646 21.7435 27.4865C21.6654 27.4084 21.5711 27.3693 21.4606 27.3693C21.3501 27.3693 21.2558 27.4084 21.1777 27.4865C21.0996 27.5646 21.0605 27.6589 21.0605 27.7694ZM20.9668 27.7569C20.9668 27.8881 21.0132 28.0001 21.1059 28.0928C21.1987 28.1856 21.3107 28.232 21.4419 28.232C21.5731 28.232 21.685 28.1856 21.7778 28.0928C21.8706 28.0001 21.917 27.8881 21.917 27.7569C21.917 27.6257 21.8706 27.5137 21.7778 27.4209C21.685 27.3282 21.5731 27.2818 21.4419 27.2818C21.3107 27.2818 21.1987 27.3282 21.1059 27.4209C21.0132 27.5137 20.9668 27.6257 20.9668 27.7569ZM21.917 27.9319C21.7694 27.8313 21.6102 27.8072 21.4395 27.8599C21.2688 27.9125 21.1508 28.0219 21.0855 28.1882L21.0981 28.2007C21.2235 28.285 21.361 28.3163 21.5106 28.2945L21.6794 28.2695C21.7377 28.2628 21.794 28.2482 21.8482 28.2257L22.192 28.0694C22.2026 28.0635 22.213 28.0572 22.2233 28.0507L22.7609 27.7694C22.7736 27.7635 22.7861 27.7573 22.7984 27.7506L23.4798 27.3318C23.4946 27.324 23.5092 27.3156 23.5235 27.3068L24.3049 26.7567C24.3155 26.7486 24.326 26.7403 24.3362 26.7317L25.2176 26.0503L26.2053 25.2877L27.243 24.5L28.3244 23.7186L29.4621 22.931L30.6374 22.1558L31.8188 21.4057L32.9941 20.7055L34.138 20.0367C34.1401 20.0367 34.1422 20.0367 34.1443 20.0367L35.207 19.4053L36.1447 18.8364L36.9511 18.3676L37.5887 17.9863L38.07 17.7112L38.4076 17.5237L38.6201 17.4112L38.7577 17.3424C38.7789 17.3328 38.7998 17.3224 38.8202 17.3111L38.9139 17.2549C38.9354 17.2412 38.9563 17.2266 38.9765 17.2111L39.0452 17.1611C39.0761 17.1381 39.1052 17.1131 39.1327 17.0861L39.2015 17.0173C39.2078 17.0133 39.2141 17.0091 39.2203 17.0048L39.2765 16.9423C39.2984 16.9226 39.3192 16.9017 39.339 16.8798L39.364 16.8423L39.3703 16.8298L39.389 16.8111C39.4086 16.7932 39.4274 16.7744 39.4453 16.7548L39.4703 16.7173C39.5088 16.6707 39.5422 16.6207 39.5703 16.5673L39.5828 16.536C39.6921 16.3318 39.7159 16.1182 39.6543 15.895C39.5927 15.6718 39.4627 15.5005 39.2642 15.3813C39.0657 15.262 38.8535 15.2276 38.6275 15.278C38.4015 15.3284 38.224 15.4498 38.095 15.6421L38.0763 15.6733C38.0581 15.6995 38.0415 15.7266 38.0263 15.7546L38.0013 15.7921C38.066 15.7316 38.1201 15.6629 38.1638 15.5858L38.1263 15.6171C38.0972 15.6444 38.0701 15.6736 38.045 15.7046L38.02 15.7421C38.0158 15.7462 38.0116 15.7504 38.0075 15.7546L38.0013 15.7609L37.9888 15.7734C37.9845 15.7796 37.9804 15.7858 37.9763 15.7921L37.9638 15.8046L37.9888 15.7859L37.9388 15.8109L37.8137 15.8796C37.8116 15.8817 37.8096 15.8838 37.8075 15.8859L37.5762 16.0109L37.2261 16.2047C37.2219 16.2088 37.2177 16.213 37.2136 16.2172L36.726 16.4985C36.7239 16.4985 36.7219 16.4985 36.7198 16.4985L36.0759 16.8798L35.2695 17.3549L34.3256 17.9175L33.2629 18.5489L32.1189 19.2115C32.1147 19.2136 32.1105 19.2156 32.1064 19.2178L30.9249 19.9366C30.9207 19.9387 30.9166 19.9408 30.9124 19.9429L29.7122 20.6993C29.708 20.7013 29.7038 20.7034 29.6997 20.7055L28.4995 21.4869C28.4932 21.491 28.4869 21.4952 28.4807 21.4994L27.3305 22.2996C27.3242 22.3037 27.3179 22.3079 27.3117 22.3121L26.224 23.1123C26.2156 23.1184 26.2072 23.1246 26.199 23.131L25.1613 23.9437C25.155 23.9477 25.1488 23.9519 25.1426 23.9562L24.1799 24.7563C24.1778 24.7584 24.1757 24.7605 24.1736 24.7626L23.3235 25.4877C23.3214 25.4898 23.3193 25.4919 23.3172 25.494L22.5983 26.1128L22.0045 26.6067L21.5606 26.9317L21.2668 27.113C21.2583 27.1191 21.25 27.1253 21.2418 27.1318L21.0981 27.2255C20.902 27.3574 20.8166 27.5408 20.8418 27.7756L20.848 27.7944C20.8763 28.0196 20.9971 28.1708 21.2105 28.2481C21.4238 28.3254 21.6135 28.2867 21.7794 28.132H21.7857C21.8448 28.0754 21.8886 28.0087 21.917 27.9319ZM37.97 16.1484C37.97 16.3694 38.0481 16.558 38.2044 16.7142C38.3606 16.8705 38.5492 16.9486 38.7702 16.9486C38.9911 16.9486 39.1797 16.8705 39.336 16.7142C39.4922 16.558 39.5703 16.3694 39.5703 16.1484C39.5703 15.9275 39.4922 15.7389 39.336 15.5826C39.1797 15.4264 38.9911 15.3483 38.7702 15.3483C38.5492 15.3483 38.3606 15.4264 38.2044 15.5826C38.0481 15.7389 37.97 15.9275 37.97 16.1484ZM38.5264 15.9796L38.3826 16.0609C38.2284 16.1484 38.1951 16.2693 38.2826 16.4235C38.3701 16.5777 38.4909 16.611 38.6451 16.5235L38.7889 16.4422C38.9431 16.3547 38.9765 16.2339 38.8889 16.0797C38.8014 15.9255 38.6806 15.8921 38.5264 15.9796Z" fill="black"/>
<path d="M21.2043 27.3192C21.2043 27.4142 21.2379 27.4952 21.305 27.5624C21.3721 27.6295 21.4532 27.6631 21.5481 27.6631C21.6431 27.6631 21.7241 27.6295 21.7912 27.5624C21.8584 27.4952 21.8919 27.4142 21.8919 27.3192C21.8919 27.2243 21.8584 27.1433 21.7912 27.0761C21.7241 27.009 21.6431 26.9754 21.5481 26.9754C21.4532 26.9754 21.3721 27.009 21.305 27.0761C21.2379 27.1433 21.2043 27.2243 21.2043 27.3192ZM21.1418 27.2755C21.1418 27.3877 21.1815 27.4835 21.2608 27.5628C21.3401 27.6421 21.4359 27.6818 21.5481 27.6818C21.6603 27.6818 21.7561 27.6421 21.8354 27.5628C21.9148 27.4835 21.9544 27.3877 21.9544 27.2755C21.9544 27.1633 21.9148 27.0675 21.8354 26.9882C21.7561 26.9088 21.6603 26.8692 21.5481 26.8692C21.4359 26.8692 21.3401 26.9088 21.2608 26.9882C21.1815 27.0675 21.1418 27.1633 21.1418 27.2755ZM21.0543 26.9129L20.9668 27.0317C20.9183 27.1 20.885 27.175 20.8667 27.2567L20.7792 27.6443C20.7735 27.6691 20.7694 27.6941 20.7667 27.7193L20.7042 28.3569C20.7019 28.3673 20.6998 28.3777 20.698 28.3882L20.6604 29.1571C20.6598 29.1738 20.6598 29.1904 20.6604 29.2071L20.6855 29.9447C20.6872 29.9573 20.6892 29.9698 20.6917 29.9822L20.748 30.5886C20.7495 30.6033 20.7516 30.6179 20.7542 30.6324L20.8167 31.0387C20.8217 31.062 20.8279 31.0849 20.8355 31.1075L20.8855 31.3013C20.9279 31.4677 21.0229 31.5949 21.1705 31.6827C21.3182 31.7705 21.4753 31.7932 21.6418 31.751C21.8083 31.7087 21.9355 31.6138 22.0234 31.4662C22.1113 31.3185 22.1341 31.1615 22.092 30.9949L22.0482 30.8137L21.9857 30.4448L21.9232 29.8822L21.8982 29.1946L21.9357 28.4757L22.0107 27.8818L22.0857 27.513C22.0857 27.5109 22.0857 27.5089 22.0857 27.5068L22.1107 27.3693C22.1752 27.0569 22.061 26.8375 21.7683 26.7111C21.4755 26.5846 21.2375 26.6519 21.0543 26.9129ZM21.9794 30.8137L21.9169 30.7199L21.8732 30.3573L21.8544 29.751C21.8545 29.7468 21.8545 29.7426 21.8544 29.7385L21.8169 29.0571C21.817 29.0529 21.817 29.0487 21.8169 29.0446L21.7544 28.4007C21.7525 28.3944 21.7504 28.3881 21.7482 28.3819L21.6794 27.8193L21.6231 27.3943L21.6169 27.1005L21.6294 26.9567L21.6544 26.9067C21.6993 26.809 21.717 26.7067 21.7075 26.5996C21.698 26.4926 21.6626 26.3949 21.6012 26.3067C21.5398 26.2185 21.4605 26.1514 21.3634 26.1053C21.2663 26.0593 21.1642 26.0404 21.057 26.0486C20.9499 26.0569 20.8518 26.0912 20.7629 26.1515C20.674 26.2119 20.606 26.2904 20.5588 26.3869C20.5116 26.4835 20.4915 26.5854 20.4985 26.6926C20.5054 26.7999 20.5386 26.8983 20.5979 26.9879L20.6417 27.0567L20.7042 27.2192L20.7855 27.5193L20.8605 27.9381L20.9355 28.4882L21.0043 29.1258L21.0668 29.7885L21.0855 30.3823L21.0543 30.7386L21.0043 30.8387C20.9357 30.9599 20.9145 31.0888 20.9406 31.2256C20.9668 31.3624 21.034 31.4744 21.1425 31.5618C21.2509 31.6491 21.3747 31.691 21.5139 31.6875C21.6531 31.6839 21.7746 31.6357 21.8785 31.5429C21.9823 31.4501 22.0437 31.3348 22.0628 31.1968C22.0819 31.0589 22.0541 30.9312 21.9794 30.8137ZM20.4417 26.6816V26.9567C20.4413 26.9692 20.4413 26.9817 20.4417 26.9942L20.4729 27.563C20.4728 27.5672 20.4728 27.5714 20.4729 27.5755L20.5229 28.3694C20.5229 28.3736 20.5229 28.3778 20.5229 28.3819L20.6542 30.1198C20.6558 30.1344 20.6579 30.149 20.6604 30.1635L20.7542 30.8449C20.7573 30.866 20.7615 30.8868 20.7667 30.9074L20.8917 31.3888C20.8992 31.421 20.9096 31.4523 20.923 31.4825L21.0418 31.7326C21.0903 31.8302 21.1653 31.899 21.2668 31.9389L21.3356 31.9701C21.4324 32.0096 21.5281 32.007 21.6227 31.9622C21.7172 31.9174 21.7799 31.8451 21.8107 31.7451L21.8357 31.6763C21.8403 31.6661 21.8444 31.6556 21.8482 31.6451L21.9107 31.3763C21.9138 31.3576 21.9159 31.3389 21.9169 31.32L21.9794 30.8324C21.9824 30.8138 21.9845 30.795 21.9857 30.7762L22.0045 30.0885C22.0049 30.0739 22.0049 30.0593 22.0045 30.0448L21.9357 28.3007C21.9357 28.2986 21.9357 28.2965 21.9357 28.2944L21.8982 27.4943C21.8983 27.4859 21.8983 27.4776 21.8982 27.4693L21.8544 26.9004C21.8509 26.8645 21.8446 26.8291 21.8357 26.7941L21.7794 26.5316C21.7462 26.3585 21.6586 26.2198 21.5167 26.1153C21.3748 26.0108 21.2163 25.9684 21.0412 25.988C20.866 26.0077 20.7209 26.0842 20.6056 26.2175C20.4904 26.3508 20.4357 26.5055 20.4417 26.6816ZM21.7419 31.6888L21.7794 31.5888C21.812 31.4512 21.7624 31.3567 21.6305 31.3054C21.4987 31.2542 21.3983 31.2903 21.3293 31.4138L21.2918 31.5138C21.2593 31.6514 21.3089 31.7459 21.4407 31.7971C21.5725 31.8484 21.6729 31.8123 21.7419 31.6888Z" fill="black"/>
<path d="M21.3294 26.6942L21.3044 26.7254C21.2895 26.747 21.277 26.77 21.2668 26.7942L21.1856 26.988C21.1783 27.0042 21.172 27.0209 21.1668 27.038L21.0481 27.4443C21.0419 27.469 21.0377 27.494 21.0356 27.5193L20.9605 28.1507C20.9568 28.1734 20.9547 28.1964 20.9543 28.2194L20.9793 28.9758C20.98 28.9947 20.9821 29.0135 20.9855 29.0321L21.1043 29.7197L21.0918 30.3011C21.0878 30.4676 21.1691 30.553 21.3356 30.5571C21.5021 30.5613 21.5876 30.4801 21.5919 30.3136L21.5982 29.7322L21.7669 29.0571C21.7694 29.0468 21.7715 29.0364 21.7732 29.0258L21.8982 28.282C21.8983 28.2757 21.8983 28.2695 21.8982 28.2632L21.9732 27.6318C21.9755 27.6236 21.9776 27.6152 21.9795 27.6068L22.0045 27.188C22.0075 27.1715 22.0096 27.1548 22.0107 27.138L21.9982 26.9254C21.997 26.8891 21.9908 26.8537 21.9795 26.8192L21.967 26.7817C21.9177 26.6433 21.8203 26.5642 21.6748 26.5442C21.5292 26.5242 21.4141 26.5742 21.3294 26.6942Z" fill="black"/>
<path d="M1.39428 14.3043C1.39433 14.4165 1.43402 14.5122 1.51336 14.5915C1.59269 14.6708 1.68844 14.7104 1.8006 14.7104C1.91277 14.7104 2.00852 14.6708 2.08785 14.5915C2.16718 14.5122 2.20688 14.4165 2.20693 14.3043C2.20687 14.1921 2.16718 14.0964 2.08785 14.0171C2.00852 13.9378 1.91277 13.8982 1.8006 13.8982C1.68844 13.8982 1.59269 13.9378 1.51336 14.0171C1.43402 14.0964 1.39433 14.1921 1.39428 14.3043ZM1.88187 13.8792L1.85061 13.873C1.79888 13.8618 1.74679 13.8597 1.69433 13.8667L1.61307 13.873C1.58098 13.8782 1.54972 13.8865 1.5193 13.898L1.46929 13.9167H1.45054C1.24521 13.9431 1.09727 14.0494 1.0067 14.2355L0.9942 14.273C0.930233 14.4059 0.916547 14.5437 0.953142 14.6866C0.989737 14.8294 1.06802 14.9437 1.18799 15.0294L1.25675 15.0794C1.38259 15.1676 1.5222 15.2072 1.67558 15.1982L1.89437 15.1857C1.95189 15.1821 2.00815 15.1716 2.06315 15.1545L2.38822 15.0607C2.42706 15.047 2.46457 15.0304 2.50074 15.0107L2.95707 14.7856C2.97836 14.7761 2.9992 14.7657 3.01959 14.7544L3.5947 14.4043C3.60315 14.3982 3.61148 14.392 3.6197 14.3856L4.36359 13.898C4.36569 13.8959 4.36777 13.8938 4.36984 13.8917L5.28252 13.2791C5.28461 13.277 5.28669 13.2749 5.28877 13.2728L6.32021 12.5665C6.32231 12.5644 6.32439 12.5623 6.32646 12.5602L7.45168 11.7788C7.45377 11.7767 7.45586 11.7747 7.45793 11.7726L8.60815 10.9599L9.75837 10.1598L10.9273 9.39086L12.1026 8.63446L13.2715 7.89682L14.4405 7.18419L15.5532 6.50906L16.5784 5.88394C16.5805 5.88394 16.5826 5.88394 16.5847 5.88394L17.4911 5.33384L18.3162 4.84624L19.0476 4.42116L19.6915 4.05859L20.3041 3.72103L20.8542 3.41472C20.8648 3.40867 20.8752 3.40242 20.8855 3.39597L21.3856 3.09591C21.3877 3.09176 21.3898 3.08759 21.3918 3.08341L21.8482 2.8021C21.8566 2.79806 21.8649 2.79389 21.8732 2.7896L22.2858 2.5083C22.2921 2.5042 22.2983 2.50004 22.3045 2.4958L22.6858 2.22699C22.69 2.22494 22.6942 2.22286 22.6983 2.22074L22.9859 2.01445C23.2034 1.85737 23.3335 1.64639 23.3762 1.38151C23.4189 1.11664 23.3618 0.875449 23.2047 0.657946C23.0476 0.440442 22.8366 0.31033 22.5717 0.267608C22.3069 0.224886 22.0657 0.282068 21.8482 0.439154L21.5669 0.639192L21.1918 0.907994L20.798 1.18305L20.3791 1.45185L19.904 1.73315L19.3664 2.03321L18.7601 2.36452C18.7559 2.36657 18.7517 2.36866 18.7476 2.37077L18.0912 2.73959C18.087 2.74372 18.0828 2.74789 18.0787 2.75209L17.3411 3.17718C17.3411 3.17926 17.3411 3.18134 17.3411 3.18343L16.5097 3.67102C16.5055 3.67307 16.5013 3.67516 16.4972 3.67727L15.5782 4.22738C15.5761 4.22945 15.574 4.23153 15.572 4.23363L14.5468 4.85875L13.4403 5.53387C13.4382 5.53387 13.4362 5.53387 13.4341 5.53387L12.2588 6.25901C12.2568 6.26109 12.2547 6.26317 12.2526 6.26526L11.0711 7.00915C11.0669 7.01121 11.0628 7.01329 11.0586 7.01541L9.87714 7.77805C9.87294 7.78218 9.86877 7.78635 9.86464 7.79055L8.69567 8.58445C8.68937 8.58855 8.68311 8.59272 8.67691 8.59696L7.52044 9.40961C7.51624 9.41374 7.51207 9.41791 7.50794 9.42211L6.36397 10.2535C6.35767 10.2576 6.35142 10.2618 6.34522 10.266L5.25751 11.0912C5.25542 11.0933 5.25333 11.0953 5.25126 11.0974L4.26357 11.8601L3.40091 12.5102L2.68827 13.0228L2.14442 13.4041L1.73809 13.6854L1.46304 13.8605L1.28175 13.973C1.27327 13.979 1.26494 13.9853 1.25675 13.9917L1.18799 14.0417C1.42345 14.2105 1.65891 14.2105 1.89437 14.0417L1.86312 14.023C1.85985 14.2226 1.93903 14.3809 2.10066 14.4981V14.4356C2.02038 14.5291 1.97871 14.6374 1.97564 14.7606L2.0444 14.6794C2.05304 14.6713 2.06137 14.663 2.0694 14.6544L2.10691 14.6044L2.11941 14.5918C2.16961 14.5335 2.20214 14.4665 2.217 14.391C2.23186 14.3155 2.22711 14.2412 2.20277 14.1682C2.17843 14.0951 2.13765 14.0329 2.08044 13.9813C2.02324 13.9298 1.95704 13.8958 1.88187 13.8792Z" fill="black"/>
<path d="M38.8639 16.5923V16.5798C38.864 16.5736 38.864 16.5673 38.8639 16.5611L38.8576 16.5173C38.8168 16.5847 38.8001 16.6576 38.8076 16.7361L38.8389 16.6798C38.8433 16.6717 38.8475 16.6633 38.8514 16.6548L38.8889 16.5861C38.9131 16.5345 38.9277 16.4803 38.9326 16.4235L38.9451 16.3235C38.9509 16.2711 38.9488 16.219 38.9389 16.1673L38.9326 16.1172C38.8923 15.9058 38.7694 15.7682 38.5639 15.7044C38.3583 15.6407 38.1791 15.6845 38.0262 15.8359L37.9762 15.8859C37.8913 15.9693 37.8371 16.0694 37.8137 16.186L37.7512 16.4798C37.7452 16.5066 37.741 16.5337 37.7387 16.5611L37.7011 17.1299C37.7011 17.1341 37.7011 17.1383 37.7011 17.1424L37.6636 17.9176C37.6636 17.9197 37.6636 17.9218 37.6636 17.9238L37.6261 18.7677C37.6261 18.7698 37.6261 18.7719 37.6261 18.774L37.6011 19.5366C37.6011 19.5387 37.6011 19.5408 37.6011 19.5429L37.5886 20.143C37.5885 20.1493 37.5885 20.1555 37.5886 20.1618L37.5949 20.5743C37.5943 20.5889 37.5943 20.6035 37.5949 20.6181L37.6136 20.8369V20.8806C37.7398 21.078 37.9157 21.1452 38.1414 21.0823C38.367 21.0195 38.4828 20.871 38.4888 20.6369L38.4825 20.6306L38.4575 20.3931L38.4388 19.8242L38.4263 19.0928L38.4138 18.3239L38.4263 17.6113L38.47 16.9987L38.5263 16.5361L38.5638 16.2735C38.5763 16.1921 38.568 16.113 38.5388 16.036L38.5326 16.011C38.4377 15.7624 38.26 15.6651 37.9995 15.719C37.739 15.7729 37.6146 15.9327 37.6261 16.1985L37.6449 16.4798C37.6453 16.5008 37.6474 16.5216 37.6511 16.5423L37.7387 16.9737L37.6636 17.455C37.6428 17.5967 37.7032 17.678 37.8449 17.6988C37.9866 17.7196 38.0679 17.6592 38.0887 17.5175L38.1637 17.0424L38.3825 16.6611C38.3893 16.651 38.3955 16.6405 38.4013 16.6298L38.5201 16.3673C38.486 16.138 38.3542 16.0064 38.1249 15.9725C37.8956 15.9385 37.7314 16.0264 37.6324 16.236V16.261C37.6413 16.2155 37.6434 16.1696 37.6386 16.1235L37.5949 16.3985C37.5927 16.4048 37.5906 16.411 37.5886 16.4173L37.5324 16.8986C37.5321 16.907 37.5321 16.9153 37.5324 16.9236L37.4886 17.5613C37.4884 17.5696 37.4884 17.5779 37.4886 17.5863L37.4761 18.3177C37.476 18.3239 37.476 18.3302 37.4761 18.3364L37.4886 19.1116L37.5136 19.8492C37.5135 19.8555 37.5135 19.8617 37.5136 19.868L37.5574 20.4556C37.5572 20.4618 37.5572 20.4681 37.5574 20.4743L37.5949 20.8306C37.5966 20.8411 37.5987 20.8515 37.6011 20.8619L37.6199 20.9744C37.6339 21.0571 37.6674 21.1309 37.7205 21.1959C37.7736 21.2608 37.8393 21.3084 37.9175 21.3385C37.9958 21.3687 38.0764 21.3775 38.1593 21.3649C38.2423 21.3524 38.3167 21.3202 38.3825 21.2682L38.445 21.2182C38.5213 21.1567 38.5755 21.0796 38.6076 20.9869L38.6888 20.7556C38.701 20.719 38.7094 20.6815 38.7138 20.6431L38.7701 20.2305C38.7726 20.2181 38.7747 20.2056 38.7764 20.193L38.8139 19.5929L38.8639 18.8303L38.9139 17.9863L38.9639 17.2112C38.9639 17.207 38.9639 17.2029 38.9639 17.1987L38.9889 16.6298C38.9904 16.6048 38.9904 16.5798 38.9889 16.5548L38.9639 16.261C38.9601 16.2096 38.9497 16.1596 38.9326 16.111L38.9076 16.0422C38.6999 15.8593 38.4813 15.8451 38.2518 15.9998C38.0223 16.1545 37.9533 16.3624 38.045 16.6236V16.6298L38.0825 16.6736C38.1094 16.7092 38.1406 16.7405 38.1762 16.7674L38.245 16.8111C38.2471 16.8132 38.2491 16.8153 38.2513 16.8174L38.295 16.8486L38.3263 16.8674C38.3798 16.9084 38.4403 16.9313 38.5076 16.9361H38.5201C38.6173 16.9419 38.7004 16.9104 38.7692 16.8415C38.8381 16.7726 38.8697 16.6896 38.8639 16.5923Z" fill="black"/>
<path d="M21.3793 31.7765L21.2668 31.7328C21.1381 31.6846 21.0172 31.6996 20.9043 31.7779C20.7913 31.8562 20.7348 31.9641 20.7348 32.1016C20.7348 32.239 20.7913 32.3469 20.9043 32.4252C21.0172 32.5035 21.1381 32.5186 21.2668 32.4704L21.3793 32.4266C21.526 32.368 21.5994 32.2596 21.5994 32.1016C21.5994 31.9435 21.526 31.8352 21.3793 31.7765ZM20.8542 32.3891L20.8729 32.4079C20.9569 32.4884 21.0569 32.5321 21.173 32.5392L21.3293 32.5517C21.4112 32.5567 21.4904 32.5442 21.5668 32.5141L21.8856 32.3954C21.9048 32.388 21.9236 32.3797 21.9419 32.3704L22.4607 32.1141C22.4649 32.112 22.4691 32.11 22.4732 32.1078L23.1796 31.739C23.1817 31.739 23.1838 31.739 23.1859 31.739L24.0485 31.2764C24.0506 31.2764 24.0527 31.2764 24.0548 31.2764L25.03 30.7388C25.0321 30.7367 25.0342 30.7347 25.0362 30.7326L26.0864 30.1449L27.1929 29.5198L28.3181 28.876L29.4621 28.2321L30.6248 27.582L31.7875 26.9568L32.894 26.3567C32.8961 26.3547 32.8982 26.3526 32.9002 26.3505L33.8942 25.8004C33.8984 25.7983 33.9025 25.7962 33.9067 25.7941L34.7318 25.3128C34.7402 25.3088 34.7486 25.3046 34.7568 25.3003L35.4445 24.8689C35.4487 24.8669 35.4528 24.8648 35.457 24.8627L36.0571 24.4689L36.6697 24.1126L37.2636 23.7812L37.8012 23.4874L38.2388 23.2499C38.2408 23.2478 38.2429 23.2457 38.245 23.2436L38.4013 23.1561C38.5539 23.0442 38.6503 22.8959 38.6907 22.711C38.731 22.5261 38.705 22.351 38.6129 22.1858C38.5207 22.0205 38.3854 21.9065 38.2069 21.8436C38.0285 21.7808 37.8515 21.7848 37.6761 21.8559L37.5199 21.9371L37.0885 22.1747L36.5447 22.4685C36.5426 22.4685 36.5405 22.4685 36.5384 22.4685L35.9321 22.8061C35.9279 22.8081 35.9237 22.8102 35.9196 22.8123L35.2882 23.1811C35.2798 23.1851 35.2714 23.1893 35.2632 23.1936L34.6443 23.5812L33.9567 24.0063L33.1503 24.4751L32.1688 25.019L31.0624 25.6191L29.8997 26.238C29.8955 26.24 29.8913 26.2421 29.8872 26.2442L28.7182 26.8881C28.7161 26.8902 28.714 26.8922 28.7119 26.8943L27.568 27.5382C27.5638 27.5402 27.5596 27.5423 27.5555 27.5445L26.4365 28.2008L25.3363 28.8384L24.2986 29.4511C24.2944 29.4531 24.2902 29.4552 24.2861 29.4573L23.3359 30.0324C23.3317 30.0365 23.3275 30.0407 23.3234 30.0449L22.5045 30.57C22.5003 30.5721 22.4961 30.5742 22.492 30.5763L21.8294 31.0139L21.348 31.3264C21.3417 31.3305 21.3355 31.3346 21.3293 31.3389L21.048 31.539C21.0085 31.5657 20.9731 31.5969 20.9417 31.6327L20.8417 31.7578C20.7496 31.864 20.7121 31.987 20.7292 32.1266L20.7354 32.1453C20.7467 32.2404 20.7863 32.3216 20.8542 32.3891Z" fill="black"/>
<path d="M37.9012 18.8928C37.9012 19.1095 38.0095 19.2178 38.2262 19.2178C38.443 19.2178 38.5513 19.1095 38.5513 18.8928C38.5513 18.6761 38.443 18.5677 38.2262 18.5677C38.0095 18.5677 37.9012 18.6761 37.9012 18.8928ZM38.5013 19.0741L38.5201 19.0366C38.5292 19.0246 38.5375 19.0121 38.5451 18.999L38.5826 18.9115L38.6388 18.8178L38.7013 18.724C38.5866 18.7495 38.4949 18.8099 38.4263 18.9053L38.4763 18.8928C38.7223 18.7307 38.7881 18.5139 38.6735 18.2424C38.5589 17.971 38.3577 17.8669 38.07 17.9301L38.0325 17.9551C37.8971 18.046 37.8117 18.171 37.7762 18.3302L37.7011 18.6677C37.696 18.6884 37.6918 18.7092 37.6886 18.7302L37.6136 19.3241C37.6135 19.3324 37.6135 19.3408 37.6136 19.3491L37.5511 20.1118C37.549 20.1159 37.5469 20.1201 37.5449 20.1243L37.4949 20.9369C37.4948 20.9432 37.4948 20.9494 37.4949 20.9557L37.4699 21.6808L37.4386 22.2684C37.4384 22.2788 37.4384 22.2893 37.4386 22.2997V22.3247C37.4386 22.5111 37.5045 22.6702 37.6363 22.8021C37.7682 22.9339 37.9273 22.9998 38.1137 22.9998C38.3002 22.9998 38.4593 22.9339 38.5911 22.8021C38.7229 22.6702 38.7889 22.5111 38.7889 22.3247V22.3122L38.8076 21.7371L38.8451 21.0182L38.8889 20.218L38.9514 19.4554C38.9514 19.4533 38.9514 19.4512 38.9514 19.4491L38.9951 18.8553C38.9963 18.8323 38.9963 18.8094 38.9951 18.7865L38.9826 18.4364C38.9711 18.1913 38.8544 18.0162 38.6326 17.9113L38.5888 17.8926C38.3575 17.7844 38.154 17.823 37.9783 18.0082C37.8026 18.1934 37.7748 18.3987 37.8949 18.624L37.9199 18.674C37.9122 18.614 37.8935 18.5578 37.8637 18.5052L37.8762 18.6177V18.7365C37.8753 18.7511 37.8753 18.7657 37.8762 18.7803L37.8887 18.8803C37.8905 18.9036 37.8947 18.9265 37.9012 18.949L37.9137 18.9865C37.9513 19.1223 38.0398 19.2005 38.1791 19.2212C38.3184 19.242 38.4258 19.1929 38.5013 19.0741Z" fill="black"/>
<path d="M38.7076 22.3372L38.7138 22.0809C38.7139 22.0788 38.7139 22.0767 38.7138 22.0746L38.7201 21.5933L38.7388 20.9807L38.7701 20.243C38.7701 20.241 38.7701 20.2389 38.7701 20.2368L38.7951 19.4179C38.7972 19.4179 38.7993 19.4179 38.8014 19.4179L38.8201 18.574C38.8201 18.5719 38.8201 18.5698 38.8201 18.5677L38.8326 17.7801C38.8327 17.7759 38.8327 17.7717 38.8326 17.7676V17.1049L38.8389 16.5798L38.8451 16.2235L38.8576 16.0297L38.8701 15.936C38.7194 15.649 38.4845 15.5344 38.1656 15.5921C37.8466 15.6498 37.6668 15.8395 37.6261 16.161L37.6574 16.2298C37.6594 16.234 37.6615 16.2381 37.6636 16.2423L37.8074 16.5048L38.0012 16.8862L37.995 17.3925C37.995 17.5508 38.0742 17.6299 38.2325 17.6299C38.3908 17.6299 38.47 17.5508 38.47 17.3925L38.4763 16.8862L38.6701 16.4986C38.6744 16.4924 38.6786 16.4862 38.6826 16.4798L38.8076 16.1985C38.8289 16.1483 38.8435 16.0962 38.8514 16.0422L38.8639 15.9672C38.8835 15.7964 38.8428 15.6414 38.7417 15.5023C38.6406 15.3631 38.5059 15.2765 38.3373 15.2423C38.1688 15.2081 38.0109 15.2354 37.8636 15.3241C37.7163 15.4129 37.6184 15.5397 37.5699 15.7047L37.5449 15.811C37.5382 15.844 37.534 15.8773 37.5324 15.911L37.5136 16.1423C37.5112 16.1547 37.5091 16.1672 37.5074 16.1798L37.5011 16.5548C37.5011 16.559 37.5011 16.5632 37.5011 16.5673L37.4949 17.0924C37.4949 17.0945 37.4949 17.0966 37.4949 17.0987V17.7613L37.4824 18.5427L37.4636 19.3866L37.4449 20.1993C37.4448 20.2035 37.4448 20.2076 37.4449 20.2118L37.4386 20.9432L37.4198 21.562C37.4197 21.5704 37.4197 21.5787 37.4198 21.5871L37.4261 22.0621L37.4198 22.3059C37.4154 22.4838 37.4746 22.6372 37.5972 22.766C37.7199 22.8949 37.8702 22.9615 38.0481 22.9658C38.226 22.9701 38.3793 22.9109 38.5081 22.7882C38.6369 22.6654 38.7034 22.5151 38.7076 22.3372Z" fill="black"/>
<path d="M1.01894 19.5555C1.01894 19.6695 1.05922 19.7667 1.13978 19.8473C1.22034 19.9278 1.31758 19.9681 1.43151 19.9681C1.54544 19.9681 1.64269 19.9278 1.72325 19.8473C1.80381 19.7667 1.84409 19.6695 1.84409 19.5555C1.84409 19.4416 1.80381 19.3444 1.72325 19.2638C1.64269 19.1832 1.54544 19.143 1.43151 19.143C1.31758 19.143 1.22034 19.1832 1.13978 19.2638C1.05922 19.3444 1.01894 19.4416 1.01894 19.5555ZM0.993931 19.5555C0.993931 19.6746 1.03604 19.7763 1.12027 19.8605C1.20449 19.9448 1.30615 19.9869 1.42526 19.9869C1.54437 19.9869 1.64604 19.9448 1.73026 19.8605C1.81448 19.7763 1.8566 19.6746 1.8566 19.5555C1.8566 19.4364 1.81448 19.3348 1.73026 19.2505C1.64604 19.1663 1.54437 19.1242 1.42526 19.1242C1.30615 19.1242 1.20449 19.1663 1.12027 19.2505C1.03604 19.3348 0.993931 19.4364 0.993931 19.5555ZM0.918917 19.5555C0.918917 19.6902 0.966521 19.8051 1.06173 19.9003C1.15694 19.9955 1.27186 20.0431 1.40651 20.0431C1.54115 20.0431 1.65608 19.9955 1.75129 19.9003C1.8465 19.8051 1.8941 19.6902 1.8941 19.5555C1.8941 19.4209 1.8465 19.306 1.75129 19.2108C1.65608 19.1155 1.54115 19.0679 1.40651 19.0679C1.27186 19.0679 1.15694 19.1155 1.06173 19.2108C0.966521 19.306 0.918917 19.4209 0.918917 19.5555ZM1.43151 19.0492L1.38776 19.0429C1.30674 19.0339 1.22756 19.0422 1.15021 19.0679L1.1127 19.0804C1.27523 19.2817 1.47943 19.3422 1.72532 19.2617L1.70657 19.243C1.68134 19.4134 1.72301 19.5655 1.83159 19.6993L1.83784 19.6618L1.8691 19.5305C1.87156 19.5181 1.87364 19.5056 1.87535 19.493L1.91911 19.1742C1.92124 19.1701 1.92332 19.1659 1.92536 19.1617L2.05663 18.074C2.05678 18.0657 2.05678 18.0573 2.05663 18.049L2.11915 17.3676L2.18791 16.705C2.18791 16.7029 2.18791 16.7008 2.18791 16.6987L2.24417 16.0924L2.31293 15.5985L2.37544 15.236L2.42545 15.0172L2.44421 14.9422C2.49199 14.7555 2.47143 14.5766 2.38252 14.4056C2.29361 14.2347 2.15902 14.1151 1.97874 14.047C1.79847 13.9789 1.61845 13.9796 1.4387 14.0491C1.25895 14.1186 1.12528 14.2392 1.03769 14.4108L1.00643 14.4608C1.00211 14.4691 0.997946 14.4774 0.993931 14.4858L0.93767 14.6108C0.933179 14.6232 0.929011 14.6357 0.925168 14.6484L0.862656 14.8046C0.858259 14.815 0.854091 14.8254 0.850154 14.8359L0.787642 15.0047C0.761822 15.0839 0.74932 15.1652 0.750135 15.2485V15.4735C0.745949 15.6652 0.808461 15.8319 0.93767 15.9736L1.05644 16.0924L1.13771 16.2487L1.13146 16.48C1.12736 16.6716 1.22113 16.7695 1.41276 16.7737C1.6044 16.7778 1.70233 16.6841 1.70657 16.4925L1.71282 16.2674L1.80033 16.1424L1.91911 16.0424C2.01784 15.9636 2.09077 15.8657 2.1379 15.7486L2.22542 15.536C2.23015 15.5195 2.23431 15.5028 2.23792 15.486L2.28793 15.3422L2.33169 15.2235L2.3817 15.1109C2.38609 15.1006 2.39026 15.0902 2.3942 15.0797L2.4192 15.0234C2.46159 14.8272 2.43075 14.6433 2.32668 14.4716C2.22261 14.2999 2.07379 14.1875 1.88021 14.1343C1.68663 14.0812 1.50126 14.1018 1.3241 14.1962C1.14694 14.2906 1.02647 14.433 0.962675 14.6233L0.950173 14.7171C0.947869 14.7275 0.945786 14.7379 0.943922 14.7484L0.918917 14.9984C0.916794 15.0026 0.91471 15.0067 0.912666 15.0109L0.875158 15.411L0.818898 15.9298C0.816728 15.9361 0.814644 15.9423 0.812647 15.9486L0.762637 16.5675L0.700125 17.2363C0.700089 17.2405 0.700089 17.2447 0.700125 17.2488L0.656367 17.9365C0.654131 17.9448 0.652047 17.9531 0.650116 17.9615L0.612609 19.0554C0.612122 19.07 0.612122 19.0846 0.612609 19.0992L0.61886 19.418C0.619905 19.439 0.621989 19.4598 0.625111 19.4805L0.643864 19.6306C0.654448 19.7254 0.685704 19.813 0.737632 19.8931L0.768888 19.9369C0.852417 20.0621 0.967116 20.1432 1.11298 20.1803C1.25885 20.2173 1.39837 20.2008 1.53153 20.1306L1.55029 20.1181C1.57194 20.107 1.59277 20.0945 1.6128 20.0806L1.64405 20.0556C1.69194 20.0226 1.73361 19.983 1.76908 19.9369L1.79408 19.8994C1.85005 19.8228 1.88343 19.7374 1.89423 19.6433C1.90502 19.5491 1.89182 19.4583 1.85463 19.3711C1.81744 19.2839 1.76111 19.2116 1.68566 19.1542C1.6102 19.0968 1.52549 19.0618 1.43151 19.0492Z" fill="black"/>
<path d="M1.11265 20.6245C1.11268 20.7177 1.14565 20.7973 1.21156 20.8632C1.27747 20.9291 1.35702 20.962 1.45021 20.962C1.5434 20.962 1.62296 20.9291 1.68886 20.8632C1.75477 20.7973 1.78774 20.7177 1.78778 20.6245C1.78774 20.5314 1.75477 20.4518 1.68886 20.3859C1.62296 20.32 1.5434 20.2871 1.45021 20.2871C1.35702 20.2871 1.27747 20.32 1.21156 20.3859C1.14565 20.4518 1.11268 20.5314 1.11265 20.6245ZM1.75652 20.4183L1.74402 20.3995C1.75321 20.4281 1.76571 20.4552 1.78152 20.4808L1.76902 20.4495C1.76909 20.4453 1.76909 20.4412 1.76902 20.437L1.75652 20.4058C1.74842 20.3818 1.738 20.3589 1.72526 20.337L1.70651 20.3057C1.70252 20.2994 1.69836 20.2931 1.69401 20.287L1.669 20.2495C1.66493 20.2452 1.66076 20.241 1.6565 20.237L1.61274 20.1682C1.46447 20.335 1.45405 20.5101 1.58149 20.6933L1.58774 20.6871C1.38724 20.588 1.21429 20.6234 1.06889 20.7933L1.15641 20.8371C1.27597 20.8904 1.39569 20.8907 1.51556 20.8381C1.63543 20.7855 1.71621 20.6971 1.75788 20.573C1.79956 20.4489 1.78849 20.3297 1.72469 20.2154C1.66088 20.1011 1.56522 20.0291 1.43771 19.9994L1.33769 19.9807C1.13841 19.9464 0.98894 20.0173 0.889289 20.1932C0.789638 20.3691 0.805747 20.5338 0.937614 20.6871L0.943865 20.6933C0.984171 20.739 1.0321 20.7745 1.08764 20.7996L1.16891 20.8371C1.17304 20.8392 1.17721 20.8413 1.18141 20.8433L1.19391 20.8496L1.20641 20.8558C1.18261 20.829 1.15552 20.8061 1.12515 20.7871L1.1439 20.8121C1.12931 20.7802 1.11055 20.7511 1.08764 20.7246L1.10014 20.7558C1.10923 20.7733 1.11964 20.79 1.1314 20.8058L1.15015 20.8246C1.29277 20.9823 1.45239 21.002 1.62902 20.8836C1.80565 20.7652 1.84815 20.6101 1.75652 20.4183ZM1.1064 20.8808L1.26268 20.9996C1.27677 21.0107 1.29135 21.0211 1.30643 21.0309L1.62524 21.2372C1.63142 21.2415 1.63767 21.2456 1.644 21.2497L2.13784 21.5435C2.14406 21.5457 2.15031 21.5477 2.1566 21.5497L2.80672 21.9123C2.8088 21.9123 2.81089 21.9123 2.81297 21.9123L3.60062 22.3436L4.48204 22.8437L5.40096 23.3938L6.33864 23.9502L7.31383 24.5315C7.31383 24.5336 7.31383 24.5357 7.31383 24.5378L8.27651 25.1067L9.27045 25.713C9.27253 25.713 9.27462 25.713 9.2767 25.713L10.2769 26.3006C10.281 26.3028 10.2852 26.3048 10.2894 26.3069L11.3521 26.907L12.4336 27.5009L13.5025 28.1072C13.5066 28.1094 13.5108 28.1114 13.515 28.1135L14.5965 28.7011C14.5985 28.7032 14.6006 28.7053 14.6027 28.7073L15.6529 29.2512C15.6529 29.2533 15.6529 29.2554 15.6529 29.2574L16.5968 29.7388L17.397 30.1451L18.0721 30.4889L18.6285 30.8015L19.1036 31.0953C19.1056 31.0974 19.1077 31.0995 19.1098 31.1015L19.5474 31.3578L19.935 31.5954L20.31 31.8267C20.3282 31.8381 20.347 31.8486 20.3663 31.8579L20.6789 32.008C20.683 32.008 20.6872 32.008 20.6914 32.008L20.9227 32.1142C20.988 32.1451 21.0568 32.1618 21.129 32.1642H21.279C21.5155 32.174 21.672 32.0668 21.7483 31.8427C21.8246 31.6186 21.7661 31.4382 21.5728 31.3016L21.4478 31.2141C21.4337 31.2029 21.4191 31.1925 21.404 31.1828L21.204 31.0703L20.9539 30.8827C20.9458 30.8763 20.9374 30.87 20.9289 30.864L20.5726 30.6265L20.2038 30.3576C20.1955 30.3533 20.1872 30.3491 20.1788 30.3451L19.7537 30.0638C19.7495 30.0617 19.7454 30.0596 19.7412 30.0576L19.2598 29.7575C19.2516 29.7532 19.2433 29.749 19.2348 29.745L18.6597 29.42C18.6536 29.4157 18.6473 29.4115 18.641 29.4075L17.9596 29.0574L17.1657 28.6386L16.228 28.151C16.228 28.1489 16.228 28.1468 16.228 28.1447L15.1716 27.6071L14.0776 27.0445L12.9837 26.4819L11.9147 25.8943L10.8583 25.3067L9.86431 24.7253L8.87662 24.119L7.92019 23.5314L6.95751 22.9375C6.95543 22.9375 6.95334 22.9375 6.95126 22.9375L6.00733 22.3749L5.0884 21.8185C5.08634 21.8164 5.08425 21.8143 5.08215 21.8123L4.19448 21.2997C4.18827 21.2975 4.18202 21.2954 4.17573 21.2934L3.38183 20.8621L2.73171 20.512L2.23161 20.2307C2.22337 20.2264 2.21504 20.2222 2.20661 20.2182L1.86279 20.0494C1.83853 20.0372 1.81353 20.0268 1.78778 20.0182L1.60024 19.9557C1.31534 19.8587 1.10204 19.943 0.960331 20.2085C0.818621 20.474 0.867309 20.6981 1.1064 20.8808ZM21.0227 31.6704C21.0496 31.8688 21.1632 31.968 21.3634 31.968C21.5636 31.968 21.6771 31.8688 21.7041 31.6704C21.6771 31.472 21.5636 31.3728 21.3634 31.3728C21.1632 31.3728 21.0496 31.472 21.0227 31.6704ZM21.5478 31.4891L21.504 31.4141C21.4231 31.3046 21.3233 31.2833 21.2046 31.35C21.086 31.4167 21.0524 31.5131 21.1039 31.6391L21.1477 31.7142C21.2286 31.8236 21.3284 31.845 21.4471 31.7783C21.5658 31.7115 21.5993 31.6151 21.5478 31.4891Z" fill="black"/>
<path d="M23.2547 1.78347L23.2484 1.77096C23.1959 1.65723 23.1087 1.58577 22.9868 1.55658C22.865 1.5274 22.7549 1.5516 22.6565 1.62919C22.5582 1.70678 22.509 1.80821 22.509 1.9335C22.509 2.05878 22.5582 2.16022 22.6565 2.2378C22.7549 2.31539 22.865 2.33959 22.9868 2.31041C23.1087 2.28122 23.1959 2.20976 23.2484 2.09603L23.2547 2.08352C23.3011 1.9835 23.3011 1.88349 23.2547 1.78347ZM23.2234 1.7022L23.2109 1.68345C23.2224 1.73734 23.2433 1.78735 23.2734 1.83348L23.2672 1.81472C23.2407 1.67996 23.1689 1.57675 23.0517 1.5051C22.9345 1.43344 22.81 1.41654 22.6779 1.45438C22.5459 1.49222 22.4492 1.57256 22.3878 1.6954C22.3263 1.81824 22.3201 1.94382 22.369 2.07214C22.418 2.20047 22.5063 2.29 22.6339 2.34074C22.7615 2.39148 22.8872 2.38701 23.0109 2.32732L23.0234 2.32107C23.0544 2.30773 23.0836 2.29106 23.1109 2.27106L23.1296 2.25231C23.3247 2.09686 23.3559 1.91349 23.2234 1.7022ZM22.3982 2.15854L22.4295 2.20855C22.4335 2.2149 22.4377 2.22115 22.442 2.2273L22.5108 2.33357L22.6483 2.54611C22.6615 2.56789 22.6761 2.58873 22.6921 2.60862L23.0234 3.0087C23.0429 3.03087 23.0637 3.0517 23.0859 3.07121L23.7485 3.69008C23.7546 3.69644 23.7609 3.7027 23.7673 3.70883L24.7925 4.5965C24.7945 4.5986 24.7966 4.60068 24.7987 4.60275L26.0927 5.70921C26.1048 5.72007 26.1173 5.73049 26.1302 5.74047L27.5992 6.84068L29.0183 7.92213L30.1622 8.82856L30.9311 9.54744C31.0423 9.63058 31.145 9.62122 31.2393 9.51936C31.3337 9.4175 31.3351 9.31434 31.2437 9.20988L30.4748 8.49099L29.4808 7.42204L28.2806 6.09679L27.0616 4.72153C27.0477 4.70629 27.0331 4.6917 27.0179 4.67777L25.7739 3.51505C25.7677 3.50868 25.7615 3.50243 25.7551 3.49629L24.7299 2.60237C24.7198 2.59164 24.7094 2.58122 24.6987 2.57112L23.9798 2.01476C23.952 1.99381 23.9229 1.97506 23.8923 1.9585L23.4359 1.70845C23.4237 1.70176 23.4112 1.69551 23.3984 1.6897L23.1859 1.58968L23.1234 1.55217L23.1171 1.54592C22.9104 1.38201 22.7067 1.38561 22.5059 1.55672C22.3051 1.72784 22.2692 1.92844 22.3982 2.15854Z" fill="black"/>
<path d="M23.0921 2.53365L23.0984 2.5274C23.1713 2.43363 23.1922 2.32945 23.1609 2.21484L23.1484 2.18358C23.1466 2.22175 23.1508 2.25926 23.1609 2.2961L23.1672 2.15858C23.1716 2.0838 23.1574 2.0127 23.1248 1.94528C23.0921 1.87786 23.0451 1.82268 22.9837 1.77976C22.9223 1.73683 22.8544 1.71161 22.7799 1.70409C22.7053 1.69658 22.6337 1.70772 22.565 1.73752C22.4962 1.76732 22.4392 1.81199 22.3937 1.87154C22.3483 1.93108 22.3202 1.99793 22.3096 2.07208C22.299 2.14623 22.3071 2.21827 22.334 2.28818C22.3609 2.35809 22.4032 2.41699 22.4608 2.46489L22.567 2.55865C22.5447 2.51759 22.5156 2.48217 22.4795 2.45238L22.4983 2.48364C22.5056 2.49882 22.5139 2.5134 22.5233 2.5274L22.5295 2.53365C22.6009 2.62539 22.6946 2.67126 22.8108 2.67126C22.9271 2.67126 23.0208 2.62539 23.0921 2.53365ZM22.2732 2.37737L22.3733 2.5399C22.3987 2.5784 22.4279 2.61382 22.4608 2.64617L22.9046 3.09626C22.9167 3.10922 22.9292 3.12172 22.9421 3.13376L23.861 3.93392C23.8631 3.93392 23.8652 3.93392 23.8673 3.93392L25.2863 5.14665C25.2884 5.14874 25.2905 5.15083 25.2926 5.1529L29.0745 8.30975C29.0786 8.31398 29.0828 8.31815 29.087 8.32225L30.9811 9.81003L32.594 11.0853C32.596 11.0874 32.5981 11.0895 32.6002 11.0915L33.8504 12.048L34.6631 12.7543C34.7756 12.8544 34.8819 12.8481 34.9819 12.7356C35.0819 12.6231 35.0757 12.5168 34.9632 12.4168L34.1505 11.7041L33.0315 10.5977C33.0295 10.5956 33.0274 10.5935 33.0253 10.5914L31.5375 9.17866L29.8184 7.49084C29.8164 7.48874 29.8143 7.48666 29.8122 7.48459L26.2427 4.08394C26.2366 4.07758 26.2304 4.07133 26.224 4.06519L24.83 2.82746C24.8238 2.82319 24.8175 2.81902 24.8112 2.81495L23.8798 2.03355C23.8579 2.01554 23.8349 1.99887 23.811 1.98354L23.2859 1.63973C23.2038 1.58633 23.1142 1.55299 23.0171 1.53971L22.8296 1.51471C22.5924 1.48443 22.4091 1.56975 22.2795 1.77067C22.1499 1.97159 22.1478 2.17382 22.2732 2.37737Z" fill="black"/>
<path d="M22.5108 1.93354C22.5108 2.03021 22.545 2.11272 22.6134 2.18108C22.6817 2.24943 22.7642 2.28361 22.8609 2.28361C22.9576 2.28361 23.0401 2.24943 23.1084 2.18108C23.1768 2.11272 23.211 2.03021 23.211 1.93354C23.211 1.83687 23.1768 1.75436 23.1084 1.68601C23.0401 1.61765 22.9576 1.58347 22.8609 1.58347C22.7642 1.58347 22.6817 1.61765 22.6134 1.68601C22.545 1.75436 22.5108 1.83687 22.5108 1.93354ZM23.0609 1.63348L23.0297 1.61473C23.0584 1.67942 23.1022 1.73152 23.1609 1.77101L23.1422 1.72725L23.1172 1.64599C23.1101 1.62667 23.1018 1.60792 23.0922 1.58973L23.0359 1.4772C22.9603 1.33586 22.8435 1.25214 22.6854 1.22603C22.5272 1.19992 22.3897 1.24164 22.2727 1.35119C22.1557 1.46074 22.105 1.59527 22.1207 1.75478C22.1363 1.91429 22.2122 2.03639 22.3483 2.12108L22.4546 2.18359C22.4921 2.20372 22.5317 2.2183 22.5733 2.22735L22.6671 2.25235L22.7171 2.2711C22.7335 2.27644 22.7502 2.28061 22.7671 2.28361L22.7984 2.28986C22.9888 2.3198 23.1198 2.2453 23.1913 2.06635C23.2629 1.8874 23.2194 1.74311 23.0609 1.63348ZM22.042 1.87103L22.1107 2.02731C22.1404 2.09424 22.18 2.15466 22.2295 2.20859L22.7046 2.73369C22.7186 2.74888 22.7332 2.76346 22.7484 2.77745L23.8423 3.78389C23.8464 3.78811 23.8506 3.79227 23.8548 3.7964L25.5614 5.30918C25.5614 5.31127 25.5614 5.31335 25.5614 5.31543L27.6743 7.17829C27.6784 7.1825 27.6826 7.18667 27.6868 7.19079L29.9372 9.10991C29.9393 9.112 29.9414 9.11409 29.9435 9.11616L32.0689 10.904L33.9067 12.4793C33.9109 12.4814 33.9151 12.4835 33.9192 12.4855L35.4508 13.7358C35.4549 13.7379 35.4591 13.74 35.4633 13.742L36.6573 14.661C36.6593 14.6631 36.6614 14.6652 36.6635 14.6672L37.4887 15.2673L37.9138 15.7237C38.0136 15.798 38.1093 15.793 38.2008 15.7085C38.2923 15.6241 38.305 15.5291 38.2388 15.4236L37.8137 14.9548L37.2136 14.1234C37.2078 14.1127 37.2016 14.1022 37.1949 14.0921L36.2259 12.9481C36.2159 12.9373 36.2055 12.9269 36.1947 12.9169L34.8069 11.5104C34.8009 11.5019 34.7946 11.4935 34.7882 11.4854L33.0066 9.84755C33.0025 9.84333 32.9983 9.83916 32.9941 9.83504L30.9124 7.99094L28.6995 6.02807L26.6053 4.14646L24.9113 2.61492C24.9031 2.60851 24.8947 2.60225 24.8863 2.59617L23.7423 1.63973C23.7222 1.6241 23.7014 1.60951 23.6798 1.59598L23.0984 1.20215C23.002 1.13689 22.8957 1.09938 22.7796 1.08963L22.6171 1.07713C22.5168 1.06761 22.4208 1.0836 22.329 1.1251C22.2372 1.1666 22.1617 1.22814 22.1026 1.30972C22.0435 1.3913 22.0086 1.48216 21.9978 1.58232C21.9869 1.68247 22.0017 1.77871 22.042 1.87103Z" fill="black"/>
<path d="M20.835 2.64596C20.835 2.7409 20.8686 2.82194 20.9357 2.88908C21.0029 2.95621 21.0839 2.98978 21.1789 2.98978C21.2738 2.98978 21.3548 2.95621 21.422 2.88908C21.4891 2.82194 21.5227 2.7409 21.5227 2.64596C21.5227 2.55102 21.4891 2.46998 21.422 2.40285C21.3548 2.33571 21.2738 2.30215 21.1789 2.30215C21.0839 2.30215 21.0029 2.33571 20.9357 2.40285C20.8686 2.46998 20.835 2.55102 20.835 2.64596ZM20.9476 2.38341L20.9351 2.38966C20.8535 2.45947 20.8099 2.548 20.8043 2.65524C20.7987 2.76249 20.8329 2.85506 20.9069 2.93294C20.9808 3.01082 21.0715 3.04976 21.1789 3.04976C21.2863 3.04976 21.3769 3.01082 21.4509 2.93294C21.5248 2.85506 21.559 2.76249 21.5534 2.65524C21.5479 2.548 21.5043 2.45947 21.4227 2.38966L21.4102 2.38341C21.256 2.25568 21.1018 2.25568 20.9476 2.38341ZM20.735 2.68347C20.735 2.8043 20.7777 2.90744 20.8632 2.99289C20.9486 3.07833 21.0518 3.12105 21.1726 3.12105C21.2934 3.12105 21.3966 3.07833 21.482 2.99289C21.5675 2.90744 21.6102 2.8043 21.6102 2.68347C21.6102 2.56263 21.5675 2.45949 21.482 2.37405C21.3966 2.28861 21.2934 2.24589 21.1726 2.24589C21.0518 2.24589 20.9486 2.28861 20.8632 2.37405C20.7777 2.45949 20.735 2.56263 20.735 2.68347ZM20.7475 2.40217L20.7225 2.43967C20.6293 2.57099 20.6022 2.71477 20.6413 2.871L20.6788 3.01478C20.6891 3.05394 20.7037 3.09144 20.7225 3.1273L20.8538 3.38985C20.8715 3.42318 20.8924 3.45444 20.9163 3.48362L21.2351 3.88995C21.2524 3.91208 21.2712 3.93291 21.2914 3.95246L21.904 4.53382C21.9198 4.55137 21.9365 4.56804 21.954 4.58383L22.8917 5.30897C22.9019 5.31761 22.9123 5.32594 22.9229 5.33397L24.2357 6.22789C24.2596 6.24629 24.2846 6.26295 24.3107 6.2779L25.911 7.09056L27.3988 7.92822L28.5178 8.72837C28.6344 8.81151 28.7344 8.7948 28.8176 8.67823C28.9009 8.56166 28.8843 8.46169 28.7678 8.3783L27.6426 7.57815L26.3673 6.44669L25.0546 5.2152C25.0368 5.19745 25.018 5.18078 24.9983 5.16519L23.7231 4.21501C23.721 4.21291 23.7189 4.21083 23.7168 4.20876L22.7604 3.51488C22.7604 3.51279 22.7604 3.51071 22.7604 3.50863L22.0978 3.02728L21.7727 2.73973L21.6602 2.6022L21.6289 2.53969L21.6227 2.51469C21.5518 2.32771 21.4172 2.22147 21.2189 2.19597C21.0205 2.17047 20.8634 2.2392 20.7475 2.40217Z" fill="black"/>
<path d="M21.5227 3.5961C21.5227 3.69622 21.5581 3.78168 21.6289 3.85247C21.6997 3.92327 21.7851 3.95867 21.8853 3.95867C21.9854 3.95867 22.0708 3.92327 22.1416 3.85247C22.2124 3.78168 22.2478 3.69622 22.2478 3.5961C22.2478 3.49598 22.2124 3.41052 22.1416 3.33972C22.0708 3.26893 21.9854 3.23353 21.8853 3.23353C21.7851 3.23353 21.6997 3.26893 21.6289 3.33972C21.5581 3.41052 21.5227 3.49598 21.5227 3.5961ZM21.4602 3.57735C21.4602 3.68782 21.4992 3.78212 21.5773 3.86024C21.6555 3.93836 21.7498 3.97742 21.8602 3.97742C21.9707 3.97742 22.065 3.93836 22.1431 3.86024C22.2213 3.78212 22.2603 3.68782 22.2603 3.57735C22.2603 3.46687 22.2213 3.37257 22.1431 3.29445C22.065 3.21633 21.9707 3.17727 21.8602 3.17727C21.7498 3.17727 21.6555 3.21633 21.5773 3.29445C21.4992 3.37257 21.4602 3.46687 21.4602 3.57735ZM21.3226 3.54609C21.3226 3.68419 21.3715 3.80206 21.4691 3.89971C21.5668 3.99736 21.6846 4.04618 21.8227 4.04618C21.9608 4.04618 22.0787 3.99736 22.1764 3.89971C22.274 3.80206 22.3228 3.68419 22.3228 3.54609C22.3228 3.40799 22.274 3.29012 22.1764 3.19247C22.0787 3.09482 21.9608 3.04599 21.8227 3.04599C21.6846 3.04599 21.5668 3.09482 21.4691 3.19247C21.3715 3.29012 21.3226 3.40799 21.3226 3.54609ZM21.4102 3.98367L21.7165 4.39C21.7411 4.42145 21.7682 4.45062 21.7977 4.47752L22.6917 5.31518C22.7019 5.32378 22.7123 5.33212 22.7229 5.34018L24.2545 6.62793C24.2606 6.63429 24.2668 6.64054 24.2732 6.64668L26.2736 8.21573C26.2798 8.22 26.286 8.22417 26.2923 8.22823L28.4928 9.83479C28.4948 9.83689 28.4969 9.83897 28.499 9.84104L30.5994 11.3351C30.6015 11.3351 30.6036 11.3351 30.6057 11.3351L32.431 12.5978L33.7375 13.623C33.8583 13.7187 33.9666 13.7061 34.0624 13.5854C34.1582 13.4646 34.1457 13.3563 34.0251 13.2604L32.7186 12.2352L31.0557 10.76L29.1366 9.04714L27.1425 7.19678C27.1404 7.19677 27.1383 7.19677 27.1363 7.19678L25.2484 5.49021C25.2442 5.48809 25.2401 5.486 25.2359 5.48396L23.7169 4.17121C23.7066 4.1626 23.6962 4.15427 23.6856 4.1462L22.7229 3.39606C22.6969 3.37757 22.6699 3.3609 22.6416 3.34605L22.2041 3.08975C21.918 2.93135 21.6664 2.9744 21.4493 3.21889C21.2321 3.46339 21.2191 3.71831 21.4102 3.98367Z" fill="black"/>
<path d="M25.1233 6.09034C25.1233 6.18528 25.1569 6.26632 25.224 6.33345C25.2912 6.40058 25.3722 6.43415 25.4671 6.43415C25.5621 6.43415 25.6431 6.40058 25.7102 6.33345C25.7774 6.26632 25.8109 6.18528 25.8109 6.09034C25.8109 5.99539 25.7774 5.91436 25.7102 5.84722C25.6431 5.78009 25.5621 5.74652 25.4671 5.74652C25.3722 5.74652 25.2912 5.78009 25.224 5.84722C25.1569 5.91436 25.1233 5.99539 25.1233 6.09034ZM25.1671 6.43415L25.4484 6.80297C25.4656 6.8252 25.4843 6.84604 25.5046 6.86548L26.336 7.67814C26.3461 7.68891 26.3565 7.69933 26.3673 7.70939L27.8363 8.97839C27.8404 8.98261 27.8446 8.98678 27.8488 8.99089L29.7304 10.5412C29.7406 10.5498 29.751 10.5582 29.7617 10.5662L31.8183 12.0727L33.6874 13.448L35.1877 14.5857L36.2692 15.3984C36.2692 15.4004 36.2692 15.4025 36.2692 15.4046L36.9693 15.911C36.9867 15.9255 37.0055 15.938 37.0256 15.9485L37.4132 16.1235L37.5569 16.2173C37.6819 16.3004 37.786 16.2795 37.8693 16.1546C37.9525 16.0297 37.9318 15.9256 37.807 15.8422L37.6757 15.7547L37.3944 15.4421C37.3812 15.4261 37.3667 15.4115 37.3506 15.3984L36.6568 14.8858L35.5941 14.0669L34.1438 12.8854L32.4247 11.3413L30.5744 9.591C30.5662 9.58454 30.5578 9.57829 30.5493 9.57225L28.699 7.9782C28.6969 7.9761 28.6948 7.97401 28.6927 7.97194L27.2112 6.72171C27.2011 6.71093 27.1907 6.70051 27.18 6.69045L26.2423 6.00282C26.2186 5.98416 26.1936 5.96749 26.1673 5.95281L25.7547 5.74027C25.536 5.63304 25.3479 5.67237 25.1905 5.85825C25.0331 6.04413 25.0253 6.2361 25.1671 6.43415Z" fill="black"/>
<path d="M33.0749 11.7289L33.0124 11.6476C33.0029 11.6343 32.9925 11.6218 32.9811 11.6101L32.7873 11.4226C32.7853 11.4205 32.7832 11.4184 32.7811 11.4163L32.531 11.185L32.3247 10.9475L32.1685 10.7537C32.0771 10.6413 31.959 10.5843 31.8142 10.5829C31.6693 10.5814 31.5501 10.6359 31.4565 10.7465C31.3628 10.857 31.3287 10.9836 31.354 11.1262C31.3793 11.2689 31.4549 11.376 31.5809 11.4476L31.7996 11.5664L32.0747 11.7351L32.3373 11.9289L32.5373 12.0977C32.5413 12.102 32.5455 12.1061 32.5498 12.1102L32.6311 12.1727C32.777 12.2744 32.9129 12.2624 33.0387 12.1366C33.1646 12.0108 33.1766 11.8749 33.0749 11.7289ZM31.4808 11.4101L31.8122 11.6914C31.8183 11.6978 31.8245 11.704 31.8309 11.7101L32.5936 12.3102L33.6688 13.1729C33.6708 13.175 33.6729 13.1771 33.675 13.1792L34.8877 14.1106C34.8939 14.1149 34.9002 14.119 34.9065 14.1231L36.0567 14.9357C36.0588 14.9378 36.0609 14.9399 36.063 14.942L36.9881 15.5734C36.9923 15.5755 36.9964 15.5776 37.0006 15.5796L37.6383 15.9922C37.6465 15.9966 37.6548 16.0008 37.6633 16.0047L37.9946 16.1922L38.0571 16.236C38.1794 16.2994 38.3074 16.3142 38.441 16.2803C38.5746 16.2465 38.6801 16.1725 38.7575 16.0585C38.8348 15.9444 38.8645 15.819 38.8466 15.6824C38.8287 15.5457 38.7676 15.4323 38.6635 15.3421L38.5572 15.2733L38.3009 15.092L37.9008 14.7795L37.3257 14.2919C37.3236 14.2919 37.3215 14.2919 37.3194 14.2919L36.5881 13.6855C36.586 13.6834 36.5839 13.6813 36.5818 13.6793L35.7879 13.0354L35.0315 12.4353C35.0274 12.431 35.0232 12.4269 35.019 12.4228L34.3939 11.9602L34.0001 11.6414L33.8875 11.5163C33.7571 11.4324 33.6153 11.4023 33.462 11.4261C33.3087 11.4499 33.1826 11.5216 33.0838 11.6411C32.985 11.7607 32.9383 11.898 32.9437 12.053C32.9492 12.208 33.0054 12.3417 33.1124 12.454L33.3062 12.5728L33.8 12.9166L34.5064 13.448L35.2816 14.0356C35.2836 14.0377 35.2857 14.0398 35.2878 14.0418L36.038 14.5919C36.04 14.594 36.0421 14.5961 36.0442 14.5982L36.7256 15.0858C36.7277 15.0879 36.7297 15.09 36.7318 15.092L37.3069 15.4921C37.3151 15.4986 37.3235 15.5048 37.332 15.5109L37.782 15.7922C37.7923 15.7987 37.8027 15.805 37.8133 15.8109L38.1196 15.9734C38.1258 15.9756 38.1321 15.9777 38.1384 15.9797L38.2634 16.0422C38.5437 16.1699 38.771 16.1066 38.9451 15.8525C39.1193 15.5984 39.0962 15.3637 38.876 15.1483L38.8322 15.1045C38.8054 15.0786 38.7762 15.0557 38.7447 15.0358L38.5259 14.9045L38.1696 14.6794L37.6758 14.3544L37.0444 13.9168L36.2943 13.3854L35.5504 12.8416C35.5483 12.8395 35.5462 12.8374 35.5441 12.8353L34.9065 12.3853L34.4439 12.0539L34.2376 11.8852C34.1044 11.8246 33.9676 11.8152 33.8273 11.8568C33.687 11.8985 33.5776 11.981 33.4989 12.1045C33.4203 12.2279 33.3918 12.362 33.4134 12.5067C33.4349 12.6515 33.5013 12.7714 33.6125 12.8666L33.6938 12.9104L34.1563 13.2167L34.9878 13.8043L36.0004 14.5482C36.0066 14.5525 36.0129 14.5566 36.0192 14.5607L37.0381 15.2483L37.8758 15.8359L38.4884 16.2547L38.8072 16.4735C38.9552 16.5773 39.1115 16.5919 39.2761 16.5173L39.2886 16.511C39.3648 16.4753 39.4274 16.4232 39.4763 16.3547C39.5252 16.2861 39.5542 16.21 39.5631 16.1263C39.5721 16.0425 39.5599 15.962 39.5266 15.8847C39.4932 15.8073 39.4431 15.7431 39.3761 15.6921L39.051 15.4421L38.4259 14.9607L37.5695 14.2669L36.5756 13.4542C36.5735 13.4521 36.5714 13.45 36.5693 13.448L35.5629 12.6353C35.5608 12.6332 35.5587 12.6311 35.5566 12.6291L34.6502 11.9227L33.9063 11.3476C33.9042 11.3476 33.9021 11.3476 33.9 11.3476L33.3187 10.9037L32.9186 10.5912C32.8266 10.5194 32.7224 10.4881 32.6061 10.4974L32.5123 10.5036L32.4873 10.4849C32.3706 10.3809 32.2602 10.3872 32.1561 10.5038C32.052 10.6204 32.0582 10.7308 32.1747 10.835L32.1935 10.8537V10.9412C32.1914 11.0681 32.2352 11.1764 32.3247 11.2663L32.6811 11.6226C32.6891 11.6313 32.6974 11.6396 32.7061 11.6476L33.2562 12.1352C33.2623 12.1416 33.2685 12.1479 33.2749 12.154L34.0063 12.7416C34.0084 12.7416 34.0105 12.7416 34.0126 12.7416L34.919 13.4542L35.9317 14.2481L36.9381 15.0483L37.8133 15.7359C37.8153 15.7401 37.8174 15.7443 37.8195 15.7484L38.4572 16.2235C38.4633 16.2278 38.4696 16.232 38.4759 16.236L38.8135 16.4673C38.924 16.2243 38.8698 16.0263 38.651 15.8734L38.6447 15.8859C38.7662 15.9691 38.8979 15.991 39.0398 15.9518C39.1817 15.9125 39.2834 15.8259 39.3448 15.6921L39.0323 15.4796L38.4447 15.0483L37.6445 14.4294L36.7006 13.6542C36.6944 13.65 36.6882 13.6458 36.6818 13.6417L35.6754 12.8728C35.6712 12.8707 35.6671 12.8686 35.6629 12.8666L34.8315 12.2602C34.8273 12.2581 34.8232 12.256 34.819 12.254L34.3189 11.9102C34.2911 11.891 34.262 11.8743 34.2314 11.8602L34.1126 11.8101C33.9754 11.7509 33.8359 11.7448 33.6942 11.7919C33.5524 11.839 33.4443 11.9274 33.3699 12.057C33.2955 12.1866 33.2737 12.3245 33.3045 12.4707C33.3353 12.6169 33.4109 12.7343 33.5312 12.8228L33.7625 12.9791L34.2314 13.3229C34.2355 13.3251 34.2397 13.3272 34.2439 13.3292L34.8815 13.773L35.6316 14.3106C35.6337 14.3127 35.6358 14.3148 35.6379 14.3169L36.3943 14.842C36.3963 14.8441 36.3984 14.8462 36.4005 14.8482L37.0444 15.2858C37.0506 15.2901 37.0568 15.2943 37.0632 15.2983L37.5695 15.6234C37.5716 15.6234 37.5737 15.6234 37.5757 15.6234L37.9446 15.8484C37.9487 15.8506 37.9529 15.8526 37.9571 15.8547L38.1384 15.9609L38.1571 15.9734C38.2779 16.0453 38.4073 16.0676 38.5452 16.0404C38.6831 16.0131 38.7942 15.9432 38.8785 15.8308C38.9629 15.7183 38.9988 15.5921 38.9864 15.4521C38.974 15.312 38.9163 15.1941 38.8135 15.0983L38.701 15.0233L38.4259 14.8232L38.0008 14.5169L37.4257 14.1106L36.7506 13.6292L36.0192 13.0729L35.2503 12.479L34.5377 11.9289C34.5315 11.9246 34.5252 11.9205 34.5189 11.9164L34.0001 11.5476C33.9839 11.5364 33.9672 11.526 33.9501 11.5163L33.7375 11.3976C33.5968 11.3035 33.4435 11.2729 33.2775 11.3059C33.1115 11.3388 32.9814 11.4257 32.8874 11.5664C32.7933 11.707 32.7627 11.8604 32.7957 12.0264C32.8286 12.1924 32.9155 12.3224 33.0561 12.4165L33.2249 12.5478C33.227 12.5478 33.2291 12.5478 33.2312 12.5478L33.6875 12.8916L34.3189 13.3604L35.0878 13.9293L35.8817 14.5544L36.6193 15.1483L37.2007 15.6296C37.2048 15.6339 37.2089 15.638 37.2132 15.6421L37.6383 15.9672C37.6484 15.9759 37.6588 15.9842 37.6695 15.9922L37.9446 16.1797C37.9568 16.1865 37.9693 16.1927 37.9821 16.1985L38.0946 16.261C38.2239 16.2959 38.349 16.2846 38.4699 16.2271C38.5909 16.1696 38.6786 16.0797 38.7331 15.9574C38.7877 15.8351 38.7959 15.7098 38.7578 15.5814C38.7198 15.453 38.6446 15.3524 38.5322 15.2796L38.4822 15.2608L38.1821 15.1045L37.582 14.717L36.7006 14.0606L35.6066 13.1917L34.4189 12.2352L33.3437 11.3726C33.3355 11.3661 33.3272 11.3598 33.3187 11.3538L32.5248 10.785C32.4953 10.7632 32.464 10.7445 32.431 10.7287L32.0372 10.5474C31.9201 10.4943 31.7998 10.4859 31.6765 10.5222C31.5531 10.5585 31.4565 10.6306 31.3868 10.7387C31.3171 10.8468 31.2912 10.9645 31.309 11.0919C31.3269 11.2192 31.3841 11.3253 31.4808 11.4101Z" fill="black"/>
</g>
<defs>
<clipPath id="clip0_1_7260">
<rect width="40" height="33" fill="white"/>
</clipPath>
</defs>
</svg>
