<svg width="39" height="35" viewBox="0 0 39 35" fill="none" xmlns="http://www.w3.org/2000/svg">
<g clip-path="url(#clip0_1_7256)">
<path d="M1.67842 16.1895C1.67846 16.3017 1.71815 16.3974 1.79749 16.4768C1.87682 16.5561 1.97258 16.5957 2.08475 16.5957C2.19693 16.5957 2.29268 16.5561 2.37202 16.4768C2.45135 16.3974 2.49104 16.3017 2.49108 16.1895C2.49104 16.0774 2.45135 15.9816 2.37202 15.9023C2.29268 15.823 2.19693 15.7833 2.08475 15.7833C1.97258 15.7833 1.87682 15.823 1.79749 15.9023C1.71815 15.9816 1.67846 16.0774 1.67842 16.1895ZM1.73469 16.4708L1.76594 16.5146C1.77568 16.5277 1.7861 16.5402 1.7972 16.5521L1.84721 16.6021L1.90972 16.7021C1.92327 16.7197 1.93786 16.7364 1.95348 16.7521L2.09725 16.9272C2.10729 16.938 2.11771 16.9484 2.12851 16.9584L2.34105 17.171C2.34718 17.1773 2.35343 17.1836 2.3598 17.1897L2.62235 17.4335C2.62849 17.4399 2.63474 17.4461 2.64111 17.4523L2.94117 17.7086C2.94731 17.7149 2.95356 17.7212 2.95992 17.7273L3.31624 18.0211C3.32243 18.0254 3.32868 18.0295 3.33499 18.0336L3.78508 18.3774C3.7933 18.3838 3.80164 18.3901 3.81008 18.3962L4.37894 18.8025L5.03531 19.2714C5.03947 19.2735 5.04363 19.2756 5.04782 19.2776L5.74795 19.7652C5.75003 19.7652 5.75212 19.7652 5.7542 19.7652L6.49809 20.2778C6.50224 20.2799 6.50641 20.282 6.51059 20.2841L7.28574 20.8092C7.28989 20.8113 7.29406 20.8134 7.29824 20.8154L8.09215 21.328C8.09835 21.3323 8.1046 21.3364 8.1109 21.3405L8.89855 21.8281C8.90063 21.8281 8.90272 21.8281 8.9048 21.8281L9.65494 22.2907L10.3863 22.7345C10.3905 22.7345 10.3947 22.7345 10.3988 22.7345L11.0927 23.1534L11.7866 23.5722L12.4555 23.9973L13.1056 24.4286L14.3058 25.2162L14.8497 25.5788C14.8518 25.5788 14.8538 25.5788 14.8559 25.5788L15.3685 25.9164L15.8436 26.2289L16.3187 26.5415L16.8001 26.8541C16.8063 26.8583 16.8125 26.8625 16.8188 26.8666L17.2876 27.1604C17.2918 27.1625 17.296 27.1646 17.3001 27.1666L17.7377 27.4292C17.7439 27.4334 17.7502 27.4376 17.7565 27.4417L18.1566 27.673C18.1586 27.673 18.1607 27.673 18.1628 27.673L18.5254 27.8793L18.8379 28.0543C18.8462 28.0586 18.8545 28.0628 18.8629 28.0668L19.1192 28.2043C19.1357 28.2132 19.1523 28.2215 19.1693 28.2293L19.3693 28.3168C19.3898 28.3259 19.4107 28.3343 19.4318 28.3418L19.5756 28.3981C19.5941 28.405 19.6129 28.4112 19.6318 28.4169L19.7381 28.4419C19.7505 28.4463 19.763 28.4505 19.7756 28.4544L19.8631 28.4731C19.8838 28.478 19.9047 28.4822 19.9256 28.4856L20.0194 28.5044C20.0796 28.5128 20.1401 28.5149 20.2007 28.5106H20.282C20.3071 28.5097 20.3321 28.5076 20.357 28.5044L20.4195 28.4919C20.5431 28.4757 20.6564 28.4325 20.7593 28.3621C20.8622 28.2918 20.9437 28.2019 21.0036 28.0926C21.0635 27.9832 21.0954 27.8663 21.0993 27.7417C21.1033 27.617 21.0788 27.4983 21.0259 27.3854L20.9946 27.3291C20.9482 27.2264 20.8836 27.1368 20.8008 27.0603L20.7383 27.0041C20.7201 26.9887 20.7014 26.9741 20.682 26.9603L20.607 26.9041C20.5601 26.8678 20.5101 26.8365 20.457 26.8103L20.3757 26.7728C20.3412 26.7559 20.3058 26.7414 20.2695 26.729L20.2007 26.704L20.1257 26.6728L19.9694 26.5915L19.7381 26.4665L19.4443 26.2915C19.4402 26.2893 19.436 26.2873 19.4318 26.2852L19.0755 26.0789L18.6817 25.8476L18.2566 25.5913L17.8002 25.31L17.3252 25.0037L16.8563 24.6911C16.8542 24.6891 16.8522 24.687 16.8501 24.6849L16.3687 24.3786L15.8686 24.0473L15.3248 23.6847C15.3248 23.6826 15.3248 23.6805 15.3248 23.6785L14.137 22.8846L13.4807 22.447C13.4745 22.4427 13.4682 22.4386 13.4619 22.4345L12.7743 21.9969C12.7702 21.9927 12.766 21.9885 12.7618 21.9844L12.0617 21.5593C12.0596 21.5572 12.0575 21.5551 12.0554 21.5531L11.3553 21.1342L10.6239 20.6904L9.87374 20.2403L9.09234 19.759L8.31094 19.2526L7.53579 18.74L6.78565 18.2462L6.07301 17.7711C6.07302 17.769 6.07302 17.7669 6.07301 17.7648L5.40413 17.321C5.39998 17.3189 5.39582 17.3168 5.39163 17.3147L4.80402 16.9334C4.7877 16.9224 4.77103 16.912 4.75401 16.9022L4.25392 16.6271C4.23556 16.616 4.21681 16.6056 4.19765 16.5959L3.77882 16.4083C3.77468 16.4062 3.77051 16.4041 3.76632 16.4021L3.41626 16.252L3.10995 16.102C3.09353 16.0951 3.07686 16.0888 3.05994 16.0833L2.78489 15.9707C2.77054 15.9639 2.75596 15.9577 2.74113 15.952L2.51608 15.8895C2.49563 15.882 2.47479 15.8757 2.45357 15.8707L2.36606 15.8582L2.3598 15.852H2.35355C2.14975 15.7072 1.95945 15.7232 1.78268 15.9C1.6059 16.0767 1.5899 16.267 1.73469 16.4708ZM19.7631 27.7355C19.7631 27.9012 19.8217 28.0426 19.9389 28.1598C20.0561 28.277 20.1975 28.3356 20.3632 28.3356C20.5289 28.3356 20.6704 28.277 20.7876 28.1598C20.9048 28.0426 20.9633 27.9012 20.9633 27.7355C20.9633 27.5698 20.9048 27.4283 20.7876 27.3111C20.6704 27.194 20.5289 27.1354 20.3632 27.1354C20.1975 27.1354 20.0561 27.194 19.9389 27.3111C19.8217 27.4283 19.7631 27.5698 19.7631 27.7355ZM20.6008 27.5792L20.5883 27.5604C20.4924 27.4149 20.3716 27.39 20.2259 27.4857C20.0802 27.5815 20.0552 27.7022 20.1507 27.848L20.1632 27.8668C20.2591 28.0123 20.3799 28.0372 20.5256 27.9415C20.6712 27.8457 20.6963 27.725 20.6008 27.5792Z" fill="black"/>
<path d="M20.0944 28.1293C20.0944 28.2312 20.1304 28.3181 20.2024 28.3901C20.2744 28.4621 20.3614 28.4981 20.4632 28.4981C20.5651 28.4981 20.652 28.4621 20.724 28.3901C20.796 28.3181 20.832 28.2312 20.832 28.1293C20.832 28.0275 20.796 27.9405 20.724 27.8685C20.652 27.7965 20.5651 27.7605 20.4632 27.7605C20.3614 27.7605 20.2744 27.7965 20.2024 27.8685C20.1304 27.9405 20.0944 28.0275 20.0944 28.1293ZM20.0631 27.9855L20.0506 28.023C20.0392 28.0513 20.0309 28.0805 20.0256 28.1106L20.0131 28.1731C20.0307 28.1373 20.0432 28.0998 20.0506 28.0606L20.0256 28.1106C19.9631 28.2502 19.9631 28.3898 20.0256 28.5294L20.0569 28.5982C20.1263 28.751 20.2409 28.8531 20.4007 28.9045L20.5382 28.9482C20.6612 28.9858 20.7841 28.9858 20.907 28.9482L21.1633 28.8795C21.2112 28.8657 21.2571 28.847 21.3009 28.8232L21.6572 28.6294C21.6743 28.6197 21.691 28.6093 21.7072 28.5982L22.1698 28.2919C22.1761 28.2878 22.1823 28.2836 22.1885 28.2793L22.7574 27.873C22.768 27.8649 22.7784 27.8566 22.7887 27.848L23.4388 27.3354C23.4409 27.3333 23.443 27.3313 23.445 27.3292L24.1514 26.7603L24.9016 26.1852L25.6892 25.6038L26.4769 25.0225L27.2332 24.4786L27.9584 23.966L28.671 23.4722L29.3774 22.9783L30.0588 22.5095L30.7339 22.0532L31.4028 21.6093L32.0592 21.1905L32.6905 20.7967L33.8658 20.0715C33.8699 20.0695 33.8741 20.0674 33.8783 20.0653L34.4096 19.7277L34.9035 19.4214C34.9076 19.4194 34.9118 19.4173 34.916 19.4152L35.3723 19.1214L35.8099 18.8401C35.8162 18.836 35.8224 18.8318 35.8286 18.8275L36.2287 18.5587L36.585 18.3212L36.8913 18.1274L37.1539 17.9586C37.1623 17.9546 37.1706 17.9504 37.1789 17.9461L37.4102 17.7899C37.4186 17.7858 37.4269 17.7816 37.4352 17.7773L37.6602 17.6148C37.6623 17.6127 37.6644 17.6107 37.6665 17.6086L37.8853 17.4523C37.8895 17.4482 37.8937 17.444 37.8978 17.4398L38.0978 17.2898C38.1041 17.2857 38.1104 17.2815 38.1166 17.2773L38.2228 17.196L38.2916 17.1522L38.3791 17.1022C38.5984 16.9771 38.7412 16.7927 38.8078 16.5492C38.8743 16.3057 38.845 16.0743 38.7198 15.8551C38.5947 15.6359 38.4103 15.493 38.1668 15.4265C37.9233 15.36 37.6919 15.3893 37.4727 15.5144L37.3852 15.5644C37.3767 15.5705 37.3684 15.5768 37.3602 15.5832L37.2352 15.6582C37.2095 15.6716 37.1844 15.6862 37.1601 15.702L37.0039 15.8207C37.0018 15.8228 36.9997 15.8249 36.9976 15.827L36.7976 15.977C36.7955 15.977 36.7934 15.977 36.7913 15.977L36.5975 16.127L36.385 16.2708L36.1662 16.4208L35.9224 16.5771L35.6036 16.7709C35.593 16.779 35.5826 16.7874 35.5723 16.7959L35.216 17.0335L34.8222 17.2898L34.3846 17.5648C34.3825 17.5669 34.3804 17.569 34.3784 17.5711L33.922 17.8586L33.4344 18.1649L32.8968 18.5025L31.7216 19.2214C31.7174 19.2234 31.7133 19.2255 31.7091 19.2276L31.0715 19.6277L30.4026 20.0528C30.3963 20.0569 30.39 20.061 30.3838 20.0653L29.7087 20.5154C29.7066 20.5154 29.7046 20.5154 29.7025 20.5154L29.0211 20.9717C29.0211 20.9738 29.0211 20.9759 29.0211 20.978L28.321 21.4468C28.3189 21.4489 28.3168 21.451 28.3147 21.453L27.6083 21.9469C27.6062 21.949 27.6041 21.9511 27.6021 21.9531L26.8957 22.4532C26.8936 22.4532 26.8915 22.4532 26.8894 22.4532L26.158 22.9783C26.156 22.9783 26.1539 22.9783 26.1518 22.9783L25.3891 23.5347C25.385 23.5367 25.3808 23.5388 25.3766 23.5409L24.5952 24.1348C24.5868 24.143 24.5784 24.1513 24.5702 24.1598L23.8013 24.7787C23.7928 24.7869 23.7845 24.7952 23.7763 24.8037L23.0512 25.4351C23.0491 25.4371 23.047 25.4392 23.045 25.4413L22.3636 26.0602C22.3615 26.0602 22.3594 26.0602 22.3573 26.0602L21.7447 26.6228C21.7405 26.6269 21.7363 26.6311 21.7322 26.6353L21.2384 27.1041L20.8508 27.4542L20.5632 27.6855L20.3819 27.8168L20.2819 27.873C20.3556 27.8615 20.4244 27.8365 20.4882 27.798L20.4132 27.8105C20.4888 27.8347 20.5659 27.8409 20.6445 27.8293L20.5882 27.8105C20.6381 27.9503 20.734 28.0419 20.8758 28.0856L20.857 28.0293C20.8585 28.0744 20.8668 28.1181 20.882 28.1606V28.1231C20.8707 27.8954 20.7526 27.7628 20.5279 27.725C20.3031 27.6873 20.1482 27.7741 20.0631 27.9855ZM37.2414 16.2896C37.2414 16.4915 37.3128 16.6639 37.4556 16.8067C37.5984 16.9495 37.7708 17.021 37.9728 17.021C38.1748 17.021 38.3471 16.9495 38.49 16.8067C38.6328 16.6639 38.7042 16.4915 38.7042 16.2896C38.7042 16.0876 38.6328 15.9152 38.49 15.7724C38.3471 15.6296 38.1748 15.5582 37.9728 15.5582C37.7708 15.5582 37.5984 15.6296 37.4556 15.7724C37.3128 15.9152 37.2414 16.0876 37.2414 16.2896ZM38.1416 16.5271L38.1666 16.5146C38.3073 16.4234 38.3402 16.3028 38.2652 16.1527C38.1902 16.0027 38.074 15.9566 37.9165 16.0145L37.8915 16.027C37.7508 16.1182 37.7179 16.2389 37.7929 16.3889C37.8679 16.5389 37.9841 16.585 38.1416 16.5271Z" fill="black"/>
<path d="M20.8633 28.5919C20.8633 28.692 20.8987 28.7775 20.9695 28.8483C21.0403 28.9191 21.1258 28.9545 21.2259 28.9545C21.326 28.9545 21.4115 28.9191 21.4822 28.8483C21.553 28.7775 21.5884 28.692 21.5884 28.5919C21.5884 28.4918 21.553 28.4063 21.4822 28.3355C21.4115 28.2647 21.326 28.2293 21.2259 28.2293C21.1258 28.2293 21.0403 28.2647 20.9695 28.3355C20.8987 28.4063 20.8633 28.4918 20.8633 28.5919ZM21.6322 28.5482L21.6259 28.4919C21.6259 28.4898 21.6259 28.4877 21.6259 28.4856V28.4231L21.6197 28.4606L21.6447 28.4169C21.725 28.262 21.7405 28.101 21.6911 27.9337C21.6417 27.7664 21.5413 27.6395 21.3898 27.553C21.2383 27.4665 21.078 27.4446 20.9089 27.4872C20.7397 27.5297 20.6089 27.625 20.5164 27.7728C20.4239 27.9207 20.3955 28.08 20.4312 28.2507C20.4669 28.4215 20.5568 28.556 20.7008 28.6544L20.7883 28.7107L20.8195 28.7544C20.8356 28.7814 20.8544 28.8064 20.8758 28.8295L20.9133 28.867C21.0489 29.0071 21.2058 29.0376 21.3841 28.9586C21.5623 28.8795 21.645 28.7427 21.6322 28.5482ZM20.3695 27.9855L20.3257 28.1856C20.3186 28.2228 20.3144 28.2603 20.3132 28.2981L20.2882 28.7482C20.286 28.7544 20.2839 28.7607 20.2819 28.7669L20.2632 29.3983C20.2632 29.4004 20.2632 29.4025 20.2632 29.4046L20.2444 30.1047L20.2194 30.7611C20.2194 30.7673 20.2194 30.7736 20.2194 30.7798L20.2069 31.3299L20.2007 31.7613C20.2001 31.7779 20.2001 31.7946 20.2007 31.8113L20.2194 32.1363C20.2272 32.2991 20.2835 32.4428 20.3882 32.5677L20.4945 32.6989C20.6183 32.8453 20.7761 32.9153 20.9678 32.9089C21.1594 32.9025 21.3121 32.8221 21.4259 32.6677L21.5259 32.5302C21.6135 32.4134 21.6614 32.2821 21.6697 32.1363L21.6885 31.8113C21.6886 31.8029 21.6886 31.7946 21.6885 31.7863L21.6947 31.3612L21.7072 30.8173L21.7322 30.1547C21.7322 30.1526 21.7322 30.1505 21.7322 30.1485L21.751 29.4421L21.7697 28.8107C21.7698 28.8045 21.7698 28.7982 21.7697 28.7919L21.7635 28.3419C21.7646 28.3189 21.7646 28.296 21.7635 28.2731L21.7447 28.0606C21.7328 27.8858 21.6644 27.7369 21.5397 27.6139C21.415 27.4909 21.2652 27.4246 21.0903 27.4151C20.9153 27.4056 20.7592 27.4551 20.6218 27.5638C20.4845 27.6726 20.4004 27.8131 20.3695 27.9855ZM21.1634 32.5864L21.1821 32.5677C21.2906 32.4389 21.2853 32.315 21.1663 32.1959C21.0472 32.0769 20.9233 32.0716 20.7945 32.1801L20.7758 32.1988C20.6673 32.3276 20.6725 32.4515 20.7916 32.5706C20.9107 32.6897 21.0346 32.6949 21.1634 32.5864Z" fill="black"/>
<path d="M1.03494 17.0212C1.03498 17.1369 1.07589 17.2355 1.15767 17.3173C1.23944 17.399 1.33814 17.4399 1.45377 17.4399C1.5694 17.4399 1.6681 17.399 1.74988 17.3173C1.83165 17.2355 1.87256 17.1369 1.8726 17.0212C1.87256 16.9056 1.83165 16.8069 1.74988 16.7252C1.6681 16.6434 1.5694 16.6025 1.45377 16.6025C1.33814 16.6025 1.23944 16.6434 1.15767 16.7252C1.07589 16.8069 1.03498 16.9056 1.03494 17.0212ZM0.984933 17.0087C0.984933 17.1382 1.03071 17.2487 1.12225 17.3402C1.2138 17.4318 1.32431 17.4776 1.45377 17.4776C1.58324 17.4776 1.69375 17.4318 1.78529 17.3402C1.87684 17.2487 1.92261 17.1382 1.92261 17.0087C1.92261 16.8793 1.87684 16.7688 1.78529 16.6772C1.69375 16.5857 1.58324 16.5399 1.45377 16.5399C1.32431 16.5399 1.2138 16.5857 1.12225 16.6772C1.03071 16.7688 0.984933 16.8793 0.984933 17.0087ZM0.91617 16.9962C0.91617 17.143 0.968046 17.2682 1.0718 17.3719C1.17555 17.4757 1.30079 17.5276 1.44752 17.5276C1.59425 17.5276 1.71949 17.4757 1.82324 17.3719C1.927 17.2682 1.97887 17.143 1.97887 16.9962C1.97887 16.8495 1.927 16.7243 1.82324 16.6205C1.71949 16.5167 1.59425 16.4649 1.44752 16.4649C1.30079 16.4649 1.17555 16.5167 1.0718 16.6205C0.968046 16.7243 0.91617 16.8495 0.91617 16.9962ZM0.816151 17.0025C0.816151 17.1734 0.876572 17.3192 0.997413 17.4401C1.11825 17.5609 1.26412 17.6213 1.43502 17.6213C1.60591 17.6213 1.75178 17.5609 1.87262 17.4401C1.99347 17.3192 2.05389 17.1734 2.05389 17.0025C2.05389 16.8316 1.99347 16.6857 1.87262 16.5649C1.75178 16.444 1.60591 16.3836 1.43502 16.3836C1.26412 16.3836 1.11825 16.444 0.997413 16.5649C0.876572 16.6857 0.816151 16.8316 0.816151 17.0025ZM1.18497 16.3711L1.14746 16.3836C1.0492 16.4177 0.961688 16.4697 0.884914 16.5399L0.828653 16.5899C0.765848 16.6482 0.713754 16.7149 0.672374 16.7899L0.603611 16.9087C0.567921 16.9719 0.540833 17.0386 0.522345 17.1087L0.453582 17.3775C0.441007 17.4268 0.432672 17.4769 0.428577 17.5276L0.384819 18.0214C0.382032 18.0422 0.379948 18.063 0.378568 18.0839L0.366065 18.8403L0.347312 19.778C0.347201 19.7863 0.347201 19.7947 0.347312 19.803L0.359814 20.7657C0.359752 20.7719 0.359752 20.7782 0.359814 20.7844L0.384819 21.6596C0.386053 21.6826 0.388136 21.7055 0.39107 21.7284L0.459833 22.4348C0.462566 22.4641 0.466734 22.4933 0.472336 22.5223L0.578606 23.0286C0.598901 23.1223 0.634324 23.2098 0.684876 23.2912L0.847407 23.56C0.993881 23.7989 1.20664 23.9054 1.48568 23.8793C1.76472 23.8533 1.95412 23.7093 2.05389 23.4475L2.16641 23.1599C2.19601 23.0791 2.21268 22.9958 2.21642 22.9098L2.24767 22.391C2.25035 22.3723 2.25243 22.3536 2.25392 22.3347L2.24767 21.6284C2.24768 21.6263 2.24768 21.6242 2.24767 21.6221L2.23517 20.7532V19.7968L2.24142 18.8653C2.24145 18.8612 2.24145 18.857 2.24142 18.8528V18.0964C2.24153 18.0881 2.24153 18.0798 2.24142 18.0714L2.22267 17.5713C2.22181 17.5441 2.21973 17.5171 2.21642 17.4901L2.17891 17.215C2.17702 17.2046 2.17494 17.1941 2.17266 17.1838L2.15391 17.0462C2.15028 17.0294 2.14611 17.0128 2.1414 16.9962L2.12265 16.9212C2.10904 16.8603 2.0882 16.8019 2.06014 16.7462L2.04138 16.7087C1.95994 16.5544 1.83805 16.4452 1.67571 16.3812C1.51338 16.3172 1.3498 16.3139 1.18497 16.3711ZM1.16622 23.4725L1.19122 23.5725C1.23706 23.76 1.35375 23.8309 1.54129 23.785C1.72882 23.7392 1.79967 23.6225 1.75383 23.4349L1.72882 23.3349C1.68291 23.1475 1.56624 23.0767 1.37879 23.1225C1.19135 23.1683 1.12049 23.285 1.16622 23.4725Z" fill="black"/>
<path d="M37.9538 16.746C37.9538 16.8479 37.9898 16.9348 38.0618 17.0068C38.1338 17.0788 38.2208 17.1149 38.3226 17.1149C38.4244 17.1149 38.5114 17.0788 38.5834 17.0068C38.6554 16.9348 38.6914 16.8479 38.6914 16.746C38.6914 16.6442 38.6554 16.5573 38.5834 16.4852C38.5114 16.4132 38.4244 16.3772 38.3226 16.3772C38.2208 16.3772 38.1338 16.4132 38.0618 16.4852C37.9898 16.5573 37.9538 16.6442 37.9538 16.746ZM37.9413 16.746C37.9413 16.8513 37.9786 16.9411 38.053 17.0155C38.1275 17.09 38.2173 17.1272 38.3226 17.1272C38.4279 17.1272 38.5177 17.09 38.5922 17.0155C38.6666 16.9411 38.7039 16.8513 38.7039 16.746C38.7039 16.6408 38.6666 16.5509 38.5922 16.4765C38.5177 16.4021 38.4279 16.3649 38.3226 16.3649C38.2173 16.3649 38.1275 16.4021 38.053 16.4765C37.9786 16.5509 37.9413 16.6408 37.9413 16.746ZM37.91 16.7398C37.91 16.852 37.9497 16.9478 38.029 17.0271C38.1084 17.1064 38.2041 17.1461 38.3163 17.1461C38.4286 17.1461 38.5243 17.1064 38.6037 17.0271C38.683 16.9478 38.7227 16.852 38.7227 16.7398C38.7227 16.6276 38.683 16.5318 38.6037 16.4525C38.5243 16.3731 38.4286 16.3335 38.3163 16.3335C38.2041 16.3335 38.1084 16.3731 38.029 16.4525C37.9497 16.5318 37.91 16.6276 37.91 16.7398ZM38.1226 16.3335L38.0725 16.3522C37.949 16.4034 37.8573 16.4889 37.7975 16.6085L37.71 16.7898C37.6847 16.8373 37.6659 16.8874 37.6537 16.9398L37.4537 17.9275C37.448 17.9544 37.4438 17.9814 37.4412 18.0088L37.3662 18.8464C37.3661 18.8506 37.3661 18.8548 37.3662 18.8589L37.2912 19.8341C37.289 19.8403 37.2869 19.8466 37.2849 19.8529L37.2411 20.8406C37.2382 20.8781 37.2382 20.9156 37.2411 20.9531L37.3287 21.8032C37.3357 21.8781 37.3566 21.949 37.3912 22.0158L37.6287 22.4659L37.6037 22.8597C37.5954 23.0181 37.6704 23.1014 37.8288 23.1097C37.9871 23.1181 38.0705 23.0431 38.0788 22.8847L38.0976 22.4971L38.3851 22.072C38.4241 22.0124 38.4512 21.9478 38.4664 21.8783L38.6664 21.0406C38.6729 21.0075 38.6771 20.9742 38.6789 20.9406L38.7664 19.9591L38.8539 18.984C38.854 18.9798 38.854 18.9756 38.8539 18.9715L38.9165 18.1275C38.918 18.1005 38.918 18.0734 38.9165 18.0463L38.879 17.0398C38.8768 16.9888 38.8685 16.9388 38.8539 16.8898L38.7977 16.696C38.7717 16.6124 38.728 16.5395 38.6664 16.4772L38.6352 16.446C38.4901 16.2908 38.3193 16.2533 38.1226 16.3335Z" fill="black"/>
<path d="M19.8445 33.1556C19.8445 33.2643 19.8829 33.3571 19.9598 33.434C20.0367 33.5109 20.1295 33.5494 20.2383 33.5494C20.347 33.5494 20.4399 33.5109 20.5168 33.434C20.5937 33.3571 20.6321 33.2643 20.6321 33.1556C20.6321 33.0468 20.5937 32.954 20.5168 32.8771C20.4399 32.8002 20.347 32.7617 20.2383 32.7617C20.1295 32.7617 20.0367 32.8002 19.9598 32.8771C19.8829 32.954 19.8445 33.0468 19.8445 33.1556ZM19.8257 33.1618C19.8257 33.2757 19.866 33.373 19.9465 33.4535C20.0271 33.5341 20.1243 33.5744 20.2383 33.5744C20.3522 33.5744 20.4495 33.5341 20.53 33.4535C20.6106 33.373 20.6509 33.2757 20.6509 33.1618C20.6509 33.0479 20.6106 32.9506 20.53 32.8701C20.4495 32.7895 20.3522 32.7492 20.2383 32.7492C20.1243 32.7492 20.0271 32.7895 19.9465 32.8701C19.866 32.9506 19.8257 33.0479 19.8257 33.1618ZM19.8695 32.918L19.8507 32.943C19.7998 33.0163 19.7727 33.0976 19.7694 33.1868V33.2118C19.7626 33.3407 19.8022 33.4532 19.8882 33.5494L19.9132 33.5744C19.999 33.6687 20.1053 33.7229 20.232 33.7369L20.3383 33.7494C20.3973 33.7547 20.4557 33.7505 20.5133 33.7369L20.7259 33.6932C20.7713 33.6837 20.8151 33.6691 20.8571 33.6494L21.2135 33.4806C21.235 33.4693 21.2559 33.4568 21.276 33.4431L21.8073 33.118C21.8201 33.1101 21.8326 33.1018 21.8448 33.093L22.545 32.5804L23.4201 31.9428L24.4328 31.2364L25.508 30.4863L26.6207 29.7487L27.771 29.011L28.9524 28.2609L30.1839 27.4982L31.3904 26.7481C31.3946 26.746 31.3988 26.744 31.4029 26.7418L32.4969 26.0354C32.4989 26.0355 32.501 26.0355 32.5031 26.0354L33.4533 25.4103L34.2847 24.879L35.0161 24.4039L35.6912 23.9851C35.6933 23.9851 35.6954 23.9851 35.6975 23.9851L36.2476 23.635C36.2497 23.6329 36.2518 23.6308 36.2538 23.6287L36.6664 23.3599C36.6706 23.3579 36.6748 23.3558 36.6789 23.3537L36.9477 23.1724L37.1102 23.0724C37.1166 23.0662 37.1229 23.06 37.129 23.0536L37.2103 22.9974C37.2275 22.9856 37.2441 22.9731 37.2603 22.9599L37.2915 22.9349C37.4353 22.8039 37.5149 22.6415 37.5303 22.4477C37.5457 22.2538 37.4926 22.0809 37.3713 21.929C37.2499 21.777 37.0929 21.6872 36.9005 21.6593C36.708 21.6315 36.532 21.6733 36.3726 21.7846L36.3601 21.7971L36.2976 21.8409L36.1413 21.9409L35.8663 22.116C35.8642 22.118 35.8621 22.1201 35.86 22.1222L35.4537 22.391L34.9036 22.7411L34.2347 23.1662L33.4908 23.6412C33.4887 23.6412 33.4866 23.6412 33.4845 23.6412L32.6531 24.1851C32.6511 24.1851 32.649 24.1851 32.6469 24.1851L31.703 24.8165C31.7009 24.8165 31.6988 24.8165 31.6967 24.8165L30.6153 25.5479C30.6132 25.5499 30.6111 25.552 30.609 25.5541L29.4463 26.3668L28.2523 27.1732L27.0771 27.9233L25.9144 28.6547C25.9123 28.6547 25.9102 28.6547 25.9081 28.6547L24.7829 29.3861C24.7787 29.3881 24.7745 29.3902 24.7704 29.3923L23.6764 30.1362C23.6743 30.1362 23.6723 30.1362 23.6702 30.1362L22.6512 30.8489C22.647 30.8509 22.6429 30.853 22.6387 30.8551L21.7573 31.4927C21.7552 31.4927 21.7531 31.4927 21.7511 31.4927L21.0509 32.0116C21.0488 32.0137 21.0468 32.0157 21.0447 32.0178L20.5508 32.3992L20.2445 32.6305L20.082 32.7492C20.0778 32.7533 20.0736 32.7575 20.0695 32.7617L19.982 32.8242C19.9571 32.843 19.9342 32.8638 19.9132 32.8868L19.8882 32.9118C20.1149 33.0721 20.3211 33.0491 20.5071 32.843L20.4883 32.8305C20.4589 33.0173 20.5214 33.1652 20.6759 33.2743L20.6821 33.2431C20.7162 33.009 20.6235 32.8481 20.4039 32.7603C20.1843 32.6725 20.0062 32.725 19.8695 32.918ZM36.1726 22.3597C36.1726 22.5427 36.2373 22.6989 36.3666 22.8283C36.496 22.9577 36.6522 23.0224 36.8352 23.0224C37.0182 23.0224 37.1743 22.9577 37.3037 22.8283C37.4331 22.6989 37.4978 22.5427 37.4978 22.3597C37.4978 22.1768 37.4331 22.0206 37.3037 21.8912C37.1743 21.7618 37.0182 21.6971 36.8352 21.6971C36.6522 21.6971 36.496 21.7618 36.3666 21.8912C36.2373 22.0206 36.1726 22.1768 36.1726 22.3597ZM36.4351 22.3472C36.4351 22.4629 36.476 22.5616 36.5578 22.6434C36.6396 22.7252 36.7383 22.7661 36.8539 22.7661C36.9696 22.7661 37.0683 22.7252 37.1501 22.6434C37.2319 22.5616 37.2728 22.4629 37.2728 22.3472C37.2728 22.2316 37.2319 22.1329 37.1501 22.0511C37.0683 21.9693 36.9696 21.9284 36.8539 21.9284C36.7383 21.9284 36.6396 21.9693 36.5578 22.0511C36.476 22.1329 36.4351 22.2316 36.4351 22.3472ZM36.9477 22.5535L36.9665 22.5473C37.1123 22.4973 37.1602 22.3993 37.1102 22.2535C37.0602 22.1076 36.9623 22.0597 36.8164 22.1097L36.7977 22.116C36.6518 22.166 36.6039 22.2639 36.6539 22.4098C36.7039 22.5556 36.8018 22.6035 36.9477 22.5535Z" fill="black"/>
<path d="M0.847124 22.7161L0.840873 22.7223C0.749414 22.7865 0.694498 22.8737 0.676127 22.984C0.657756 23.0942 0.681416 23.1945 0.747105 23.2849L0.765858 23.3099L0.797114 23.3537C0.801331 23.2597 0.776327 23.1743 0.7221 23.0974V23.1474C0.719643 23.1851 0.721725 23.2227 0.728351 23.2599L0.747105 23.3662C0.768161 23.4667 0.814004 23.5542 0.884631 23.6287L0.928389 23.6725C0.93249 23.6767 0.936658 23.6809 0.940892 23.685L1.02216 23.7663C1.04693 23.7938 1.07402 23.8188 1.10342 23.8413L1.2722 23.96C1.28646 23.969 1.30104 23.9773 1.31596 23.985L1.58476 24.1476L1.95358 24.3726L2.41617 24.6727L3.00378 25.0602L3.66016 25.4916C3.66634 25.4959 3.67259 25.5 3.67891 25.5041L4.36029 25.9229L5.01667 26.3417C5.02081 26.3439 5.02498 26.346 5.02917 26.348L5.65429 26.7356C5.65429 26.7377 5.65429 26.7397 5.65429 26.7418L6.2544 27.1044L6.82326 27.4545L7.38587 27.817L7.94222 28.1733C7.94431 28.1733 7.94639 28.1733 7.94848 28.1733L8.48608 28.5172L9.01743 28.8547C9.01951 28.8547 9.0216 28.8547 9.02368 28.8547L9.55503 29.1923L10.1051 29.5424C10.1093 29.5445 10.1135 29.5466 10.1176 29.5486L10.699 29.9112L11.3241 30.2925L11.968 30.6926C11.9701 30.6926 11.9722 30.6926 11.9742 30.6926L12.6244 31.0926C12.6264 31.0926 12.6285 31.0926 12.6306 31.0926L13.2745 31.4802C13.2766 31.4823 13.2786 31.4844 13.2807 31.4865L13.9059 31.8428L14.506 32.2054L15.0623 32.5554L15.5749 32.8805C15.577 32.8826 15.5791 32.8847 15.5812 32.8867L16.0438 33.1743C16.0479 33.1764 16.0521 33.1785 16.0563 33.1805L16.4563 33.4118C16.4625 33.4161 16.4688 33.4203 16.4751 33.4243L16.8127 33.6119C16.8168 33.614 16.821 33.6161 16.8252 33.6181L17.094 33.7619C17.0981 33.764 17.1023 33.7661 17.1065 33.7682L17.344 33.8869C17.3523 33.8913 17.3606 33.8954 17.369 33.8994L17.6003 33.9995L17.8379 34.112L18.0942 34.2432L18.3505 34.3683C18.3567 34.3704 18.3629 34.3725 18.3692 34.3745L18.5692 34.4683C18.5734 34.4684 18.5776 34.4684 18.5817 34.4683L18.7193 34.5308C18.7255 34.533 18.7317 34.5351 18.738 34.5371L18.8318 34.5746C18.9 34.6025 18.9708 34.6192 19.0443 34.6246H19.1068C19.2559 34.634 19.3934 34.5985 19.5194 34.5183L19.5507 34.4933C19.8425 34.3022 19.9337 34.041 19.8244 33.7098C19.7151 33.3785 19.4863 33.223 19.1381 33.2431L19.1006 33.2493C19.1525 33.2574 19.2045 33.2594 19.2569 33.2556L19.2006 33.2493C19.2492 33.2674 19.2992 33.2799 19.3506 33.2868L19.2756 33.2556L19.1569 33.2056L18.9693 33.1118L18.7255 32.9868L18.463 32.8555C18.4589 32.8513 18.4547 32.8471 18.4505 32.843L18.2004 32.7242C18.1942 32.722 18.188 32.72 18.1817 32.718L17.9691 32.6242L17.7566 32.5117L17.494 32.3679L17.169 32.1929L16.7877 31.9616L16.3376 31.6803L15.825 31.3552L15.2624 30.9989C15.2582 30.9968 15.2541 30.9947 15.2499 30.9926L14.6372 30.6176L14.0121 30.2425L13.3745 29.8612L12.7306 29.4611L12.093 29.0548C12.0909 29.0548 12.0888 29.0548 12.0868 29.0548L11.4616 28.6734L10.8928 28.3171L10.3489 27.9608C10.3448 27.9587 10.3406 27.9566 10.3364 27.9545L9.80508 27.617L9.27373 27.2794L8.72987 26.9356L8.17977 26.5793C8.17769 26.5793 8.1756 26.5793 8.17352 26.5793L7.60466 26.2167C7.59844 26.2146 7.59219 26.2125 7.58591 26.2105L7.0108 25.8604L6.40443 25.4978C6.39821 25.4957 6.39196 25.4936 6.38568 25.4916L5.74806 25.1353L5.08543 24.7414L4.4103 24.3289L3.76018 23.91C3.75811 23.9079 3.75602 23.9058 3.75393 23.9038L3.15381 23.5287C3.14562 23.5223 3.13729 23.516 3.12881 23.51L2.64122 23.2287C2.63297 23.2243 2.62463 23.2201 2.61621 23.2161L2.21613 23.0161C2.21202 23.0119 2.20786 23.0077 2.20363 23.0036L1.90983 22.8661C1.88549 22.854 1.86049 22.8436 1.83481 22.8348L1.63477 22.7723C1.60215 22.7611 1.56881 22.7528 1.53475 22.7473L1.47849 22.7411H1.47224C1.43586 22.7266 1.39835 22.7162 1.35972 22.7098L1.25345 22.6973C1.2073 22.6926 1.16146 22.6947 1.11593 22.7036L1.07217 22.7098C1.14951 22.7478 1.23078 22.7603 1.31596 22.7473L1.26595 22.7223C1.3014 22.7619 1.34308 22.7931 1.39098 22.8161L1.36597 22.7848C1.34353 22.7609 1.31853 22.7401 1.29096 22.7223L1.28471 22.7161C1.13885 22.6163 0.992985 22.6163 0.847124 22.7161ZM18.563 33.9057C18.563 34.0818 18.6252 34.232 18.7498 34.3565C18.8743 34.4811 19.0245 34.5433 19.2006 34.5433C19.3767 34.5433 19.527 34.4811 19.6515 34.3565C19.776 34.232 19.8382 34.0818 19.8382 33.9057C19.8382 33.7296 19.776 33.5793 19.6515 33.4548C19.527 33.3303 19.3767 33.2681 19.2006 33.2681C19.0245 33.2681 18.8743 33.3303 18.7498 33.4548C18.6252 33.5793 18.563 33.7296 18.563 33.9057ZM18.6568 33.8682C18.6568 34.0201 18.7105 34.1497 18.8179 34.2572C18.9253 34.3646 19.055 34.4183 19.2069 34.4183C19.3588 34.4183 19.4884 34.3646 19.5959 34.2572C19.7033 34.1497 19.757 34.0201 19.757 33.8682C19.757 33.7163 19.7033 33.5866 19.5959 33.4792C19.4884 33.3718 19.3588 33.3181 19.2069 33.3181C19.055 33.3181 18.9253 33.3718 18.8179 33.4792C18.7105 33.5866 18.6568 33.7163 18.6568 33.8682ZM18.7443 33.8307C18.7443 33.9567 18.7888 34.0642 18.8779 34.1533C18.967 34.2425 19.0746 34.287 19.2006 34.287C19.3266 34.287 19.4342 34.2425 19.5233 34.1533C19.6124 34.0642 19.657 33.9567 19.657 33.8307C19.657 33.7047 19.6124 33.5971 19.5233 33.508C19.4342 33.4189 19.3266 33.3743 19.2006 33.3743C19.0746 33.3743 18.967 33.4189 18.8779 33.508C18.7888 33.5971 18.7443 33.7047 18.7443 33.8307ZM19.3882 33.4431L19.2569 33.3618C19.1255 33.2803 19.0193 33.3053 18.9381 33.4368L18.8568 33.5681C18.8 33.6591 18.7837 33.7568 18.808 33.8612C18.8323 33.9657 18.89 34.0462 18.9811 34.1027C19.0722 34.1593 19.1699 34.1753 19.2743 34.1507C19.3787 34.1262 19.459 34.0683 19.5153 33.977C19.5716 33.8858 19.5874 33.788 19.5625 33.6837C19.5377 33.5794 19.4796 33.4992 19.3882 33.4431Z" fill="black"/>
<path d="M18.8005 34.4058C18.8005 34.499 18.8335 34.5786 18.8994 34.6445C18.9653 34.7104 19.0449 34.7433 19.1381 34.7433C19.2313 34.7433 19.3109 34.7104 19.3768 34.6445C19.4427 34.5786 19.4756 34.499 19.4756 34.4058C19.4756 34.3126 19.4427 34.233 19.3768 34.1671C19.3109 34.1012 19.2313 34.0682 19.1381 34.0682C19.0449 34.0682 18.9653 34.1012 18.8994 34.1671C18.8335 34.233 18.8005 34.3126 18.8005 34.4058ZM18.8755 34.8746L18.9068 34.8871C19.021 34.9552 19.1439 34.9802 19.2756 34.9621L19.4194 34.9434C19.4853 34.9329 19.5478 34.912 19.6069 34.8809L19.8507 34.7558C19.8791 34.7413 19.9062 34.7246 19.932 34.7058L20.3258 34.4183C20.3365 34.4103 20.3469 34.4019 20.3571 34.3933L20.8947 33.9557C20.9032 33.9476 20.9116 33.9393 20.9197 33.9307L21.526 33.3681C21.5649 33.3332 21.5983 33.2936 21.626 33.2493L22.0011 32.6179L22.5137 32.2304C22.6147 32.1226 22.6206 32.0099 22.5315 31.8922C22.4423 31.7745 22.3322 31.7497 22.2012 31.8178L21.6886 32.2116L20.9822 32.4367C20.9309 32.4526 20.883 32.4756 20.8384 32.5054L20.1508 32.9743C20.1401 32.9823 20.1297 32.9906 20.1195 32.9993L19.5882 33.4243L19.2193 33.6994L19.0005 33.8369C18.992 33.843 18.9837 33.8492 18.9755 33.8557L18.8568 33.9432C18.8297 33.9639 18.8047 33.9868 18.7818 34.012L18.7567 34.037C18.6387 34.1636 18.5918 34.3127 18.6161 34.4842C18.6404 34.6556 18.7269 34.7858 18.8755 34.8746Z" fill="black"/>
<path d="M1.54108 16.6089L1.57859 16.5589C1.59005 16.5429 1.60046 16.5262 1.60985 16.5089L1.62235 16.4839L1.67236 16.4276C1.68578 16.4116 1.69828 16.395 1.70987 16.3776L1.84114 16.1901C1.85006 16.1758 1.85839 16.1612 1.86615 16.1463L2.04743 15.8463C2.05406 15.834 2.06031 15.8215 2.06618 15.8088L2.28498 15.3774C2.28707 15.3754 2.28916 15.3733 2.29123 15.3712L2.57878 14.7898L3.01011 14.0209L3.56022 13.0395L4.22284 11.908L4.96048 10.689L5.77314 9.4513L6.62955 8.23857L7.54848 7.0821L8.51741 5.97564L9.5176 4.9817L10.5115 4.09403L11.518 3.33764L12.4994 2.70001L13.4496 2.22492L14.3123 1.89986L15.0812 1.76234L15.7938 1.75608L16.4814 1.80609C16.5549 1.81141 16.6278 1.80724 16.7002 1.79359L17.2941 1.68107C17.3774 1.66505 17.4545 1.63379 17.5254 1.5873L17.7629 1.43727L18.013 1.47478C18.1865 1.47583 18.286 1.39055 18.3116 1.21893C18.3371 1.04731 18.2668 0.936723 18.1005 0.887169L17.8504 0.849662L17.6629 0.63087C17.6067 0.56537 17.54 0.513277 17.4629 0.474591L16.9253 0.20579C16.8366 0.160121 16.7429 0.130949 16.644 0.118273L15.9188 0.0370074C15.8794 0.0321879 15.8398 0.0301042 15.8 0.0307562L14.9811 0.0495098C14.9329 0.0496247 14.8849 0.0537921 14.8374 0.0620121L13.9247 0.237045C13.8799 0.246049 13.8362 0.258551 13.7934 0.274553L12.812 0.63087C12.78 0.641527 12.7487 0.654029 12.7182 0.668378L11.6868 1.19348C11.6611 1.20475 11.6361 1.21726 11.6118 1.23098L10.5616 1.90611C10.5423 1.91788 10.5236 1.93038 10.5053 1.94362L9.44884 2.75002C9.4316 2.76396 9.41493 2.77855 9.39883 2.79378L8.36113 3.71896C8.34824 3.73107 8.33574 3.74358 8.32362 3.75647L7.29218 4.79416C7.27918 4.80833 7.26668 4.82291 7.25467 4.83792L6.26073 5.98189C6.25215 5.99211 6.24382 6.00253 6.23573 6.01314L5.2918 7.20712C5.28313 7.2194 5.27479 7.2319 5.26679 7.24463L4.37912 8.48237C4.37265 8.49265 4.3664 8.50307 4.36037 8.51362L3.54146 9.77636C3.53506 9.78458 3.52881 9.79292 3.52271 9.80137L2.77882 11.0391C2.77241 11.0473 2.76616 11.0557 2.76007 11.0641L2.11619 12.2206C2.10742 12.2349 2.09908 12.2495 2.09119 12.2643L1.6036 13.2895C1.59928 13.2978 1.59511 13.3061 1.59109 13.3145L1.22852 14.1397C1.2264 14.1438 1.22432 14.148 1.22227 14.1522L0.972225 14.7711C0.96536 14.7875 0.959109 14.8042 0.953472 14.8211L0.803443 15.2837C0.796202 15.3042 0.789951 15.325 0.78469 15.3462L0.703424 15.69C0.697489 15.7168 0.693322 15.7439 0.690922 15.7713L0.672168 16.0025C0.668441 16.0401 0.668441 16.0776 0.672168 16.1151L0.684671 16.2463C0.689809 16.2893 0.700227 16.331 0.715927 16.3714L0.747183 16.4526C0.761417 16.4904 0.780171 16.5259 0.803443 16.5589L0.84095 16.6089C0.925421 16.7315 1.04211 16.7929 1.19102 16.7929C1.33992 16.7929 1.45661 16.7315 1.54108 16.6089Z" fill="black"/>
<path d="M20.8323 7.93853C20.8323 8.04038 20.8683 8.12731 20.9403 8.19932C21.0123 8.27134 21.0992 8.30735 21.2011 8.30735C21.3029 8.30735 21.3899 8.27134 21.4619 8.19932C21.5339 8.12731 21.5699 8.04038 21.5699 7.93853C21.5699 7.83668 21.5339 7.74975 21.4619 7.67773C21.3899 7.60572 21.3029 7.56971 21.2011 7.56971C21.0992 7.56971 21.0123 7.60572 20.9403 7.67773C20.8683 7.74975 20.8323 7.83668 20.8323 7.93853ZM20.7385 7.95103C20.7385 8.0805 20.7843 8.191 20.8758 8.28255C20.9674 8.3741 21.0779 8.41987 21.2073 8.41987C21.3368 8.41987 21.4473 8.3741 21.5389 8.28255C21.6304 8.191 21.6762 8.0805 21.6762 7.95103C21.6762 7.82156 21.6304 7.71106 21.5389 7.61951C21.4473 7.52796 21.3368 7.48219 21.2073 7.48219C21.0779 7.48219 20.9674 7.52796 20.8758 7.61951C20.7843 7.71106 20.7385 7.82156 20.7385 7.95103ZM20.6947 7.86977L20.651 8.01354C20.6343 8.07924 20.6281 8.14592 20.6322 8.21358L20.6447 8.50114C20.6457 8.52416 20.6478 8.54708 20.651 8.5699L20.701 8.90121L20.7323 9.22002L20.7448 9.48257L20.726 9.68261L20.6572 9.9014L20.5135 10.2015L20.3259 10.5453L20.1071 10.9016L19.8633 11.2517L19.5945 11.6017L19.3007 11.9643L18.9507 12.3519L18.5881 12.7644C18.5838 12.7706 18.5797 12.7769 18.5756 12.7832L18.2255 13.202C18.2146 13.2162 18.2041 13.2308 18.1943 13.2458L17.888 13.6771C17.8791 13.6914 17.8708 13.706 17.863 13.7209L17.5942 14.1647C17.5827 14.185 17.5723 14.2059 17.5629 14.2272L17.3504 14.6836C17.3385 14.708 17.3281 14.733 17.3191 14.7586L17.1628 15.2149C17.1548 15.2437 17.1485 15.2729 17.1441 15.3024L17.0441 15.7838C17.0388 15.8065 17.0346 15.8294 17.0315 15.8525L16.9753 16.3589C16.9732 16.3901 16.9732 16.4214 16.9753 16.4526L16.9878 16.984C16.989 17.0049 16.991 17.0258 16.994 17.0465L17.0566 17.5841C17.0595 17.6242 17.0658 17.6638 17.0753 17.7029L17.2253 18.2155C17.2407 18.2678 17.2616 18.3178 17.2878 18.3655L17.5316 18.8156C17.5692 18.8879 17.6171 18.9525 17.6754 19.0094L18.0567 19.3657C18.1076 19.4129 18.1639 19.4525 18.2255 19.4845L18.7131 19.7408C18.7649 19.7677 18.8191 19.7886 18.8756 19.8033L19.482 19.9721C19.5109 19.9779 19.5401 19.9821 19.5695 19.9846L20.2759 20.0971C20.2926 20.0976 20.3093 20.0976 20.3259 20.0971L21.1073 20.1659C21.1115 20.1659 21.1157 20.1659 21.1198 20.1659L21.9387 20.2159L22.7576 20.2721L23.4828 20.3284L24.0641 20.4284L24.4455 20.5722L24.6893 20.7597L24.8768 21.0223L25.0268 21.4223L25.1518 21.9349C25.1539 21.937 25.156 21.9391 25.1581 21.9412L25.2894 22.4663C25.323 22.5986 25.3918 22.709 25.4957 22.7976L25.6207 22.9101L25.6019 23.1414C25.6166 23.2881 25.6972 23.3684 25.8439 23.3823C25.9906 23.3963 26.085 23.3327 26.127 23.1914L26.1583 22.9351L26.3083 22.8164C26.4571 22.7027 26.5405 22.5527 26.5584 22.3663L26.6084 21.8287C26.6145 21.7572 26.6104 21.6864 26.5959 21.6161L26.4771 21.0473C26.4696 21.009 26.4592 20.9714 26.4458 20.9348L26.2521 20.4034C26.2296 20.3456 26.2004 20.2914 26.1645 20.2409L25.8582 19.797C25.8129 19.7323 25.7587 19.676 25.6957 19.6283L25.2706 19.3032C25.2113 19.2582 25.1467 19.2228 25.0768 19.1969L24.5267 18.9906C24.4821 18.9738 24.4362 18.9613 24.3892 18.9531L23.7078 18.8344C23.6851 18.8291 23.6622 18.825 23.6391 18.8219L22.8764 18.7593C22.8722 18.7593 22.8681 18.7593 22.8639 18.7593L22.0388 18.7031C22.0367 18.701 22.0346 18.6989 22.0325 18.6968L21.2323 18.6531L20.4885 18.5718L19.8446 18.478L19.3632 18.3343L19.0194 18.1655L18.7944 17.9592L18.6256 17.6841L18.4943 17.3216L18.4256 16.8965L18.4131 16.4589L18.4568 16.0338L18.5381 15.64L18.6694 15.2587L18.8506 14.8648L19.0819 14.4773L19.3507 14.096L19.6696 13.7021L20.0259 13.302L20.3759 12.9082C20.378 12.9062 20.3801 12.9041 20.3822 12.902L20.7072 12.5332C20.7181 12.521 20.7285 12.5085 20.7385 12.4956L21.0261 12.1206C21.0325 12.1124 21.0387 12.104 21.0448 12.0956L21.3074 11.7205C21.3137 11.7144 21.32 11.7081 21.3261 11.7017L21.5699 11.3204C21.5788 11.3061 21.5871 11.2915 21.5949 11.2767L21.8075 10.8953C21.8162 10.8831 21.8245 10.8706 21.8325 10.8578L22.0075 10.489C22.0221 10.4586 22.0346 10.4274 22.045 10.3952L22.1513 10.0577C22.1678 10.0047 22.1782 9.9505 22.1825 9.89515L22.2138 9.56384C22.2181 9.518 22.2181 9.47215 22.2138 9.42631L22.1825 9.095C22.1799 9.06767 22.1757 9.04059 22.17 9.01373L22.095 8.66992C22.095 8.66783 22.095 8.66575 22.095 8.66367L22.02 8.31985C22.0133 8.29225 22.005 8.26516 21.995 8.23859L21.895 7.96353C21.8636 7.87617 21.8156 7.79907 21.7512 7.73224L21.6449 7.61972C21.5734 7.54824 21.4888 7.49931 21.3912 7.47293C21.2936 7.44656 21.1959 7.44624 21.0981 7.47198C21.0003 7.49771 20.9154 7.54609 20.8434 7.6171C20.7714 7.68811 20.7218 7.77233 20.6947 7.86977Z" fill="black"/>
<path d="M21.051 8.41355C21.051 8.51194 21.0858 8.59592 21.1554 8.6655C21.225 8.73508 21.309 8.76986 21.4073 8.76986C21.5057 8.76986 21.5897 8.73508 21.6593 8.6655C21.7289 8.59592 21.7637 8.51194 21.7637 8.41355C21.7637 8.31515 21.7289 8.23116 21.6593 8.16159C21.5897 8.09201 21.5057 8.05723 21.4073 8.05723C21.309 8.05723 21.225 8.09201 21.1554 8.16159C21.0858 8.23116 21.051 8.31515 21.051 8.41355ZM21.6636 8.76361V8.75736L21.6824 8.74486C21.6448 8.7568 21.6093 8.77347 21.5761 8.79487L21.6386 8.77611C21.5795 8.76869 21.5211 8.77285 21.4636 8.78862L21.5449 8.80112C21.4791 8.74706 21.4041 8.71373 21.3198 8.7011L21.3886 8.75736L21.4324 8.80112L21.4949 8.93239L21.5824 9.15744L21.6449 9.45124L21.6824 9.80131V10.1576L21.6449 10.5452L21.5761 10.9328L21.4761 11.2891L21.3573 11.6329L21.2198 11.9705L21.0948 12.2893L20.9635 12.5893L20.8385 12.8769L20.726 13.1457L20.6009 13.4082C20.5966 13.4144 20.5925 13.4207 20.5884 13.427L20.4822 13.6958C20.4801 13.6979 20.478 13.7 20.4759 13.7021L20.3697 13.9646C20.3675 13.9708 20.3654 13.9771 20.3634 13.9834L20.2634 14.2459C20.2586 14.2603 20.2544 14.2749 20.2509 14.2897L20.1759 14.5522C20.1709 14.5687 20.1668 14.5854 20.1634 14.6022L20.1134 14.871C20.1105 14.8876 20.1084 14.9043 20.1071 14.921L20.0821 15.1836C20.0796 15.196 20.0775 15.2085 20.0758 15.2211L20.0696 15.4899C20.0684 15.5107 20.0684 15.5316 20.0696 15.5524L20.0883 15.8025C20.0908 15.8277 20.095 15.8527 20.1009 15.8775L20.1446 16.0963C20.1543 16.1396 20.1689 16.1813 20.1884 16.2213L20.2759 16.4026C20.2964 16.4431 20.3214 16.4806 20.3509 16.5151L20.4572 16.6464C20.4966 16.6934 20.5424 16.733 20.5947 16.7651L20.7385 16.8527C20.7815 16.8796 20.8274 16.9005 20.876 16.9152L21.0573 16.9714C21.0819 16.9794 21.1069 16.9856 21.1323 16.9902L21.3573 17.0277C21.3761 17.0286 21.3948 17.0286 21.4136 17.0277L21.7012 17.0464C21.7116 17.0467 21.722 17.0467 21.7324 17.0464H22.0637L22.4513 17.0527C22.4534 17.0527 22.4555 17.0527 22.4575 17.0527H22.8701L23.3265 17.0589C23.3306 17.059 23.3348 17.059 23.339 17.0589L23.8016 17.0527H24.2391C24.2412 17.0527 24.2433 17.0527 24.2454 17.0527L24.6705 17.0464H25.0893L25.4769 17.0527L25.8269 17.0902L26.1395 17.1652L26.4646 17.309L26.7834 17.509L27.0897 17.7466L27.3772 18.0466L27.6335 18.3842L27.8461 18.7968L28.0274 19.2531L28.1711 19.7219C28.1732 19.7261 28.1753 19.7303 28.1774 19.7345L28.3212 20.1595C28.3264 20.1786 28.3327 20.1974 28.3399 20.2158L28.4899 20.5284C28.4955 20.5432 28.5018 20.5578 28.5087 20.5721L28.6462 20.8034L28.7587 21.0034C28.7825 21.0472 28.8138 21.0847 28.8525 21.116L28.8838 21.141V21.1722C28.9005 21.3388 28.9922 21.4138 29.1588 21.3971C29.3254 21.3804 29.4004 21.2888 29.3839 21.1222L29.3776 21.066L29.4089 21.0034C29.4341 20.9565 29.4487 20.9065 29.4526 20.8534L29.4776 20.6221C29.4788 20.6034 29.4788 20.5846 29.4776 20.5659L29.4651 20.2846C29.4639 20.2678 29.4618 20.2511 29.4589 20.2345L29.4089 19.8907C29.4059 19.8697 29.4017 19.8488 29.3964 19.8282L29.2713 19.3969C29.2713 19.3948 29.2713 19.3927 29.2713 19.3906L29.1213 18.8968C29.1179 18.8799 29.1137 18.8633 29.1088 18.8468L28.9088 18.3404C28.9014 18.3212 28.8931 18.3025 28.8838 18.2842L28.6337 17.8091C28.6193 17.7806 28.6026 17.7535 28.5837 17.7278L28.2712 17.3215C28.2575 17.304 28.2429 17.2873 28.2274 17.2715L27.8898 16.9214C27.8722 16.9035 27.8534 16.8868 27.8336 16.8714L27.471 16.5839C27.4511 16.5679 27.4303 16.5533 27.4085 16.5401L27.0272 16.3088C27.0031 16.2945 26.9781 16.282 26.9522 16.2713L26.5396 16.1025C26.509 16.0915 26.4778 16.0832 26.4458 16.0775L26.0395 15.9837C26.0148 15.9779 25.9898 15.9737 25.9645 15.9712L25.5519 15.94C25.5415 15.9397 25.5311 15.9397 25.5206 15.94L25.1018 15.9337C25.0976 15.9337 25.0935 15.9337 25.0893 15.9337H24.6642C24.6621 15.9337 24.6601 15.9337 24.658 15.9337L24.2329 15.94H23.7953C23.7932 15.94 23.7911 15.94 23.7891 15.94L23.3327 15.9462L22.8826 15.94C22.8805 15.94 22.8785 15.94 22.8764 15.94H22.4638L22.0825 15.9337L21.7637 15.9212L21.5136 15.9025L21.3573 15.8712L21.2761 15.8462L21.2698 15.84L21.2323 15.7774L21.2073 15.6712L21.1948 15.4961L21.2011 15.2711L21.2198 15.0523L21.2636 14.821L21.3136 14.5835L21.3886 14.3584L21.4886 14.1146L21.5949 13.8583L21.7137 13.602C21.7159 13.5958 21.7179 13.5896 21.7199 13.5833L21.8387 13.3082L21.9637 13.0144L22.095 12.7081C22.0971 12.704 22.0992 12.6998 22.1012 12.6956L22.2263 12.3705L22.37 12.0267C22.3723 12.0184 22.3744 12.0101 22.3763 12.0017L22.5076 11.6267C22.5098 11.6184 22.5119 11.61 22.5138 11.6017L22.6326 11.2016C22.6353 11.1871 22.6373 11.1725 22.6388 11.1578L22.7264 10.7265C22.7289 10.7141 22.731 10.7016 22.7326 10.689L22.7889 10.2576C22.7924 10.2349 22.7945 10.2119 22.7951 10.1889V9.77005C22.794 9.75119 22.7919 9.73244 22.7889 9.71379L22.7451 9.30747C22.7444 9.28441 22.7424 9.26149 22.7389 9.2387L22.6513 8.87613C22.6445 8.83967 22.634 8.80424 22.6201 8.76986L22.4888 8.48856C22.466 8.44052 22.4369 8.39677 22.4013 8.35728L22.245 8.16975C22.212 8.13308 22.1745 8.10182 22.1325 8.07598L21.9825 7.98221C21.9399 7.95419 21.894 7.93335 21.8449 7.9197L21.7262 7.88845C21.6666 7.87217 21.6061 7.86801 21.5449 7.87594L21.4636 7.88845C21.4084 7.89546 21.3563 7.91213 21.3073 7.93845L21.2448 7.96971C21.2026 7.99278 21.1651 8.02195 21.1323 8.05723L21.1073 8.08848C21.0914 8.10404 21.0769 8.12071 21.0635 8.13849L21.051 8.151C20.8992 8.3534 20.9128 8.54406 21.0917 8.72296C21.2706 8.90186 21.4612 8.91541 21.6636 8.76361Z" fill="black"/>
<path d="M16.6439 1.03091C16.6439 1.14829 16.6854 1.24849 16.7685 1.33149C16.8515 1.41449 16.9516 1.45599 17.069 1.45599C17.1864 1.45599 17.2866 1.41449 17.3696 1.33149C17.4526 1.24849 17.4941 1.14829 17.4941 1.03091C17.4941 0.913528 17.4526 0.813335 17.3696 0.730333C17.2866 0.647331 17.1864 0.60583 17.069 0.60583C16.9516 0.60583 16.8515 0.647331 16.7685 0.730333C16.6854 0.813335 16.6439 0.913528 16.6439 1.03091ZM16.6064 1.04341C16.6064 1.16943 16.651 1.27699 16.7401 1.36609C16.8292 1.4552 16.9368 1.49975 17.0628 1.49975C17.1888 1.49975 17.2964 1.4552 17.3855 1.36609C17.4746 1.27699 17.5191 1.16943 17.5191 1.04341C17.5191 0.917399 17.4746 0.809839 17.3855 0.720734C17.2964 0.631629 17.1888 0.587076 17.0628 0.587076C16.9368 0.587076 16.8292 0.631629 16.7401 0.720734C16.651 0.809839 16.6064 0.917399 16.6064 1.04341ZM16.5502 1.05592C16.5502 1.19574 16.5996 1.31509 16.6985 1.41396C16.7974 1.51283 16.9167 1.56226 17.0565 1.56226C17.1963 1.56226 17.3157 1.51283 17.4146 1.41396C17.5134 1.31509 17.5629 1.19574 17.5629 1.05592C17.5629 0.916092 17.5134 0.796745 17.4146 0.697874C17.3157 0.599004 17.1963 0.549569 17.0565 0.549569C16.9167 0.549569 16.7974 0.599004 16.6985 0.697874C16.5996 0.796745 16.5502 0.916092 16.5502 1.05592ZM16.6627 0.587076L16.6502 0.599579C16.5329 0.692261 16.4558 0.811034 16.4189 0.955896L16.4127 0.993404C16.3745 1.13911 16.3807 1.28289 16.4314 1.42474L16.4689 1.52475C16.4874 1.57281 16.5103 1.61865 16.5377 1.66228L16.6565 1.86232C16.687 1.91386 16.7224 1.96178 16.7627 2.0061L17.0253 2.28115L17.3628 2.66247L17.7817 3.16257L18.263 3.79394C18.2671 3.80024 18.2713 3.80649 18.2755 3.81269L18.8131 4.49407C18.8233 4.50477 18.8337 4.51518 18.8444 4.52533L19.4132 5.1692L19.9508 5.77556L20.3259 6.29441L20.5072 6.757C20.5741 6.92743 20.6928 6.97937 20.8633 6.91281C21.0339 6.84625 21.086 6.72764 21.0198 6.55696L20.8322 6.08812L20.701 5.4255L20.5384 4.61284C20.5339 4.58535 20.5277 4.55826 20.5197 4.53158L20.2509 3.71892C20.2346 3.66902 20.2137 3.6211 20.1884 3.57515L19.7758 2.81875C19.7589 2.78636 19.7402 2.75511 19.7195 2.72498L19.2507 2.06236C19.2348 2.04292 19.2181 2.02417 19.2007 2.0061L18.7569 1.47475C18.7448 1.45977 18.7323 1.44518 18.7193 1.43099L18.3568 1.04341C18.3238 1.00938 18.2884 0.978123 18.2505 0.949645L17.9442 0.7121C17.8753 0.659352 17.8003 0.617677 17.7192 0.587076L17.5066 0.505811C17.4323 0.47546 17.3552 0.456707 17.2753 0.44955L17.169 0.443299C17.0906 0.439214 17.0135 0.447549 16.9378 0.468304L16.9002 0.474555C16.9594 0.476123 17.0178 0.469872 17.0753 0.455801H17.0628C16.9138 0.45186 16.7804 0.495618 16.6627 0.587076Z" fill="black"/>
<path d="M18.0442 2.55C18.0442 2.66393 18.0845 2.76117 18.1651 2.84173C18.2456 2.9223 18.3429 2.96258 18.4568 2.96258C18.5707 2.96258 18.668 2.9223 18.7485 2.84173C18.8291 2.76117 18.8694 2.66393 18.8694 2.55C18.8694 2.43607 18.8291 2.33882 18.7485 2.25826C18.668 2.1777 18.5707 2.13742 18.4568 2.13742C18.3429 2.13742 18.2456 2.1777 18.1651 2.25826C18.0845 2.33882 18.0442 2.43607 18.0442 2.55ZM18.0567 2.40622L18.038 2.44998C18.0187 2.50677 18.0104 2.56511 18.013 2.62501V2.78129C18.0127 2.83212 18.0189 2.88213 18.0317 2.93132L18.113 3.23763C18.1234 3.26771 18.1359 3.29688 18.1505 3.32515L18.3443 3.77523C18.3536 3.79659 18.3641 3.81743 18.3755 3.83774L18.7006 4.41285L19.0882 5.10673C19.0902 5.11092 19.0923 5.11509 19.0944 5.11924L19.5258 5.86938L19.9446 6.58202C19.9486 6.59043 19.9527 6.59877 19.9571 6.60702L20.3384 7.20088C20.3586 7.23414 20.3815 7.26539 20.4072 7.29465L20.7697 7.69473C20.8117 7.73985 20.8596 7.77736 20.9135 7.80725L21.1323 7.93852L21.2198 8.0573C21.2889 8.15042 21.3808 8.2055 21.4955 8.22254C21.6102 8.23958 21.7141 8.2136 21.8073 8.14458C21.9004 8.07556 21.9556 7.98372 21.9727 7.86904C21.9898 7.75437 21.9639 7.65042 21.895 7.5572L21.8137 7.45093L21.7699 7.20713C21.7626 7.1619 21.7501 7.11814 21.7324 7.07586L21.5136 6.57576C21.5043 6.55438 21.4939 6.53354 21.4824 6.51325L21.1386 5.90064L20.726 5.18175C20.726 5.17967 20.726 5.17758 20.726 5.1755L20.3009 4.42535L19.9133 3.73772L19.5883 3.15636C19.5824 3.14367 19.5761 3.13117 19.5695 3.11886L19.307 2.70628C19.2882 2.67756 19.2674 2.65047 19.2444 2.62501L19.0319 2.38747C18.9788 2.32886 18.9162 2.28302 18.8444 2.24994L18.7006 2.18118C18.6783 2.17109 18.6554 2.16276 18.6318 2.15617L18.5881 2.14367C18.4787 2.11002 18.3727 2.11855 18.2702 2.16923C18.1676 2.21992 18.0964 2.29891 18.0567 2.40622Z" fill="black"/>
<path d="M21.7825 8.26356C21.7825 8.36368 21.8179 8.44914 21.8887 8.51993C21.9595 8.59073 22.0449 8.62613 22.145 8.62613C22.2452 8.62613 22.3306 8.59073 22.4014 8.51993C22.4722 8.44914 22.5076 8.36368 22.5076 8.26356C22.5076 8.16344 22.4722 8.07798 22.4014 8.00718C22.3306 7.93639 22.2452 7.90099 22.145 7.90099C22.0449 7.90099 21.9595 7.93639 21.8887 8.00718C21.8179 8.07798 21.7825 8.16344 21.7825 8.26356ZM21.7137 8.25731C21.7137 8.37642 21.7558 8.47808 21.84 8.56231C21.9243 8.64653 22.0259 8.68864 22.145 8.68864C22.2641 8.68864 22.3658 8.64653 22.45 8.56231C22.5343 8.47808 22.5764 8.37642 22.5764 8.25731C22.5764 8.1382 22.5343 8.03653 22.45 7.95231C22.3658 7.86809 22.2641 7.82598 22.145 7.82598C22.0259 7.82598 21.9243 7.86809 21.84 7.95231C21.7558 8.03653 21.7137 8.1382 21.7137 8.25731ZM22.3513 8.65738L22.4388 8.61988C22.5199 8.58404 22.5887 8.53194 22.6451 8.4636L22.8139 8.25731C22.8203 8.25119 22.8266 8.24494 22.8327 8.23855L23.0952 7.88849L23.4828 7.38839L24.0016 6.75702L24.6518 6.03188L25.3832 5.30675L26.152 4.66287L26.8709 4.08776C26.8983 4.06515 26.9233 4.04015 26.9459 4.01275L27.3648 3.52516L27.8149 3.33137C27.9627 3.24803 28.0026 3.12865 27.9343 2.97323C27.8661 2.81781 27.7513 2.76632 27.5898 2.81877L27.121 3.01881L26.4584 3.09382C26.385 3.10304 26.3163 3.12596 26.2521 3.16259L25.4394 3.60642C25.4039 3.62616 25.3705 3.64908 25.3394 3.67519L24.5392 4.33156C24.5218 4.34529 24.5051 4.35987 24.4892 4.37532L23.7266 5.13171C23.718 5.13982 23.7097 5.14815 23.7016 5.15672L23.0327 5.90686C23.0218 5.91897 23.0114 5.93147 23.0014 5.94437L22.4888 6.60699C22.4867 6.61114 22.4846 6.61531 22.4826 6.6195L22.1013 7.13834C22.0881 7.15235 22.0756 7.16694 22.0638 7.1821L21.8387 7.56343C21.8218 7.59141 21.8072 7.62058 21.795 7.65094L21.6949 7.89474C21.6511 8.00463 21.6428 8.11715 21.6699 8.2323L21.6887 8.33232C21.7245 8.47782 21.8096 8.58356 21.9441 8.64955C22.0786 8.71553 22.2144 8.71815 22.3513 8.65738Z" fill="black"/>
<path d="M22.5073 7.52613C22.5073 7.74284 22.6156 7.8512 22.8324 7.8512C23.0491 7.8512 23.1574 7.74284 23.1574 7.52613C23.1574 7.30943 23.0491 7.20107 22.8324 7.20107C22.6156 7.20107 22.5073 7.30943 22.5073 7.52613ZM23.1324 7.81369L23.2824 7.70742C23.2845 7.70535 23.2866 7.70327 23.2887 7.70117L23.5387 7.50738C23.5472 7.50135 23.5556 7.4951 23.5637 7.48863L23.8888 7.21358L24.2826 6.88851C24.2889 6.88444 24.2952 6.88027 24.3014 6.87601L24.7327 6.48844L25.1891 6.08836L25.6266 5.74455L26.033 5.4945L26.4518 5.30696L26.8894 5.16318L27.3395 5.05691L27.7208 4.9944L28.0396 5.00065L28.3647 5.05691L28.721 5.16944L29.1085 5.35072L29.5399 5.60077L30.0025 5.91958L30.4838 6.28215L30.9652 6.71973L31.434 7.20732L31.9028 7.74493L32.3154 8.30753L32.7155 8.93265L33.1093 9.67654L33.4719 10.4767L33.8282 11.3394L34.1533 12.1833L34.4471 12.9897L34.7034 13.7773L34.9472 14.5525C34.9527 14.5714 34.959 14.5902 34.9659 14.6087L35.2347 15.2964C35.2543 15.3491 35.2793 15.3991 35.3097 15.4464L35.6348 15.934C35.7828 16.156 35.9891 16.2497 36.2537 16.2153L36.3849 16.1965C36.3289 16.1101 36.2497 16.0726 36.1474 16.084L36.2787 16.2903C36.3732 16.3864 36.4774 16.3982 36.5911 16.3259C36.7049 16.2535 36.7382 16.1541 36.6912 16.0278L36.56 15.8215C36.4698 15.9154 36.4594 16.0175 36.5287 16.1278L36.6225 16.0403C36.7777 15.8885 36.8402 15.7051 36.81 15.4902L36.7287 14.9088C36.726 14.8815 36.7219 14.8544 36.7162 14.8275L36.535 14.1086C36.533 14.1003 36.5309 14.0919 36.5287 14.0836L36.3099 13.296C36.3079 13.2897 36.3058 13.2835 36.3037 13.2772L36.0536 12.4646C36.0516 12.4583 36.0495 12.452 36.0474 12.4458L35.7661 11.6082C35.764 11.604 35.7619 11.5998 35.7598 11.5957L35.4535 10.733C35.4515 10.7267 35.4494 10.7205 35.4473 10.7142L35.1097 9.81407C35.1039 9.79721 35.0977 9.78054 35.0909 9.76406L34.7096 8.92015C34.7039 8.90329 34.6976 8.88662 34.6909 8.87014L34.272 8.07624C34.2623 8.05711 34.2519 8.03835 34.2408 8.01998L33.8094 7.33235C33.7978 7.311 33.7853 7.29016 33.7719 7.26984L33.3156 6.65722C33.3016 6.64001 33.287 6.62334 33.2718 6.60721L32.7717 6.02585C32.7617 6.01306 32.7512 6.00056 32.7405 5.98834L32.2279 5.45699C32.2119 5.43966 32.1952 5.42299 32.1779 5.40698L31.6403 4.93189C31.6261 4.91891 31.6115 4.90641 31.5965 4.89438L31.0714 4.48806C31.0552 4.47497 31.0385 4.46247 31.0214 4.45055L30.5088 4.11298C30.4905 4.09977 30.4718 4.08727 30.4526 4.07548L29.9462 3.79417C29.9219 3.77835 29.8969 3.76377 29.8712 3.75042L29.3899 3.54413C29.3573 3.5296 29.3239 3.5171 29.2898 3.50662L28.821 3.36909C28.7861 3.35854 28.7507 3.35021 28.7147 3.34409L28.2584 3.27533C28.2087 3.26681 28.1587 3.26264 28.1084 3.26282L27.6458 3.26907C27.5996 3.26956 27.5538 3.27373 27.5082 3.28158L27.0206 3.36909C26.9975 3.37439 26.9745 3.38064 26.9519 3.38785L26.4393 3.51912C26.416 3.52647 26.3931 3.5348 26.3705 3.54413L25.8579 3.72541C25.8302 3.73648 25.8031 3.74898 25.7767 3.76292L25.2703 4.00671C25.24 4.02364 25.2108 4.04239 25.1828 4.06298L24.6952 4.37553C24.6668 4.39469 24.6397 4.41552 24.6139 4.43805L24.1451 4.84437C24.1212 4.86187 24.0982 4.88063 24.0763 4.90063L23.645 5.35697C23.6273 5.37696 23.6106 5.3978 23.595 5.41948L23.2387 5.87582C23.2301 5.88601 23.2217 5.89643 23.2137 5.90708L22.9199 6.32591C22.9062 6.34605 22.8937 6.36689 22.8824 6.38842L22.6761 6.76974C22.6671 6.78396 22.6588 6.79855 22.6511 6.8135L22.526 7.1073C22.5184 7.12773 22.5122 7.14857 22.5073 7.16982L22.4573 7.3511C22.4002 7.55035 22.4572 7.70855 22.6281 7.82571C22.7991 7.94286 22.9672 7.93885 23.1324 7.81369Z" fill="black"/>
<path d="M34.6846 12.5521C34.6846 12.6522 34.72 12.7377 34.7908 12.8085C34.8615 12.8793 34.947 12.9147 35.0471 12.9147C35.1472 12.9147 35.2327 12.8793 35.3035 12.8085C35.3743 12.7377 35.4097 12.6522 35.4097 12.5521C35.4097 12.452 35.3743 12.3665 35.3035 12.2958C35.2327 12.225 35.1472 12.1896 35.0471 12.1896C34.947 12.1896 34.8615 12.225 34.7908 12.2958C34.72 12.3665 34.6846 12.452 34.6846 12.5521ZM34.6971 12.4396L34.6783 12.4959C34.6606 12.5509 34.6543 12.6071 34.6596 12.6647L34.6783 12.8897C34.6814 12.9324 34.6897 12.9741 34.7033 13.0147L34.8471 13.421C34.8544 13.4403 34.8627 13.459 34.8721 13.4773L35.516 14.7776C35.5199 14.786 35.5241 14.7943 35.5285 14.8026L35.9348 15.5527C35.9387 15.5611 35.9429 15.5695 35.9473 15.5777L36.3599 16.2403C36.3657 16.251 36.372 16.2614 36.3786 16.2716L36.735 16.7779C36.7485 16.7935 36.7631 16.8081 36.7787 16.8217L37.06 17.128C37.1034 17.1749 37.1555 17.2082 37.2163 17.228L37.3601 17.2718L37.4038 17.3093C37.5189 17.3927 37.6227 17.3805 37.7152 17.2726C37.8077 17.1646 37.804 17.0602 37.7039 16.9592L37.6976 16.953V16.8592C37.6946 16.8157 37.6842 16.774 37.6664 16.7342L37.5038 16.3529C37.502 16.3445 37.4999 16.3361 37.4976 16.3278L37.2225 15.7715L36.885 15.0651L36.5224 14.2962C36.5204 14.292 36.5183 14.2878 36.5162 14.2837L35.8723 12.9835C35.8626 12.9684 35.8522 12.9538 35.841 12.9397L35.616 12.5771C35.5963 12.5454 35.5734 12.5163 35.5472 12.4896L35.3909 12.3271C35.3432 12.2781 35.287 12.2427 35.2222 12.2208L35.1659 12.2021C35.0683 12.1693 34.9736 12.1761 34.8817 12.2227C34.7899 12.2692 34.7283 12.3415 34.6971 12.4396Z" fill="black"/>
<path d="M36.0224 13.5523V13.5398C36.0275 13.4357 35.9945 13.3456 35.9233 13.2695C35.8521 13.1933 35.7643 13.1544 35.6601 13.1527C35.5559 13.151 35.4669 13.187 35.3932 13.2607C35.3195 13.3344 35.2835 13.4234 35.2852 13.5276C35.287 13.6318 35.3259 13.7195 35.402 13.7908C35.4781 13.862 35.5682 13.895 35.6723 13.8898H35.6848C35.8989 13.8788 36.0114 13.7663 36.0224 13.5523ZM36.0411 13.6085L36.0474 13.5773C35.9812 13.3487 35.8291 13.2344 35.591 13.2344C35.353 13.2344 35.2009 13.3487 35.1347 13.5773L35.1847 13.7773C35.1978 13.8235 35.2166 13.8673 35.241 13.9086L35.4535 14.2837L35.7598 14.8338C35.7791 14.8696 35.802 14.903 35.8286 14.9338L36.2849 15.4526L36.6725 15.9277L36.9038 16.3591C36.9861 16.4681 37.0872 16.49 37.2072 16.4245C37.3271 16.3591 37.3635 16.2623 37.3164 16.134L37.0913 15.7089L36.9413 15.1213L36.7913 14.4462C36.7802 14.4003 36.7635 14.3566 36.7413 14.3149L36.4537 13.7461C36.4444 13.7267 36.4339 13.708 36.4224 13.6898L36.1849 13.3272C36.1434 13.2646 36.0913 13.2125 36.0286 13.171L35.8536 13.0522C35.6254 13.0692 35.4835 13.1887 35.428 13.4107C35.3725 13.6327 35.4415 13.8049 35.6348 13.9274L35.6598 13.9211C35.858 13.9036 35.9851 13.7994 36.0411 13.6085Z" fill="black"/>
</g>
<defs>
<clipPath id="clip0_1_7256">
<rect width="39" height="35" fill="white"/>
</clipPath>
</defs>
</svg>
