<svg width="36" height="40" viewBox="0 0 36 40" fill="none" xmlns="http://www.w3.org/2000/svg">
<g clip-path="url(#clip0_1_7204)">
<path d="M33.1433 8.46905C33.1433 8.57491 33.1807 8.66526 33.2556 8.74012C33.3304 8.81497 33.4208 8.8524 33.5266 8.8524C33.6325 8.8524 33.7229 8.81497 33.7977 8.74012C33.8726 8.66526 33.91 8.57491 33.91 8.46905C33.91 8.36319 33.8726 8.27284 33.7977 8.19798C33.7229 8.12313 33.6325 8.0857 33.5266 8.0857C33.4208 8.0857 33.3304 8.12313 33.2556 8.19798C33.1807 8.27284 33.1433 8.36319 33.1433 8.46905ZM33.1269 8.4581C33.1269 8.56845 33.166 8.66264 33.244 8.74066C33.3221 8.81867 33.4163 8.85768 33.5266 8.85768C33.637 8.85768 33.7312 8.81867 33.8093 8.74066C33.8873 8.66264 33.9264 8.56845 33.9264 8.4581C33.9264 8.34774 33.8873 8.25355 33.8093 8.17554C33.7312 8.09752 33.637 8.05852 33.5266 8.05852C33.4163 8.05852 33.3221 8.09752 33.244 8.17554C33.166 8.25355 33.1269 8.34774 33.1269 8.4581ZM33.0119 8.37595C33.0119 8.51659 33.0616 8.63664 33.161 8.73608C33.2605 8.83553 33.3805 8.88526 33.5212 8.88526C33.6618 8.88526 33.7818 8.83553 33.8813 8.73608C33.9807 8.63664 34.0305 8.51659 34.0305 8.37595C34.0305 8.23531 33.9807 8.11527 33.8813 8.01582C33.7818 7.91637 33.6618 7.86665 33.5212 7.86665C33.3805 7.86665 33.2605 7.91637 33.161 8.01582C33.0616 8.11527 33.0119 8.23531 33.0119 8.37595ZM33.9593 8.72096L34.0469 8.63882C34.1535 8.54231 34.2283 8.42549 34.2714 8.28833L34.3152 8.14047C34.3191 8.12959 34.3228 8.11864 34.3262 8.10761L34.3426 8.04189C34.4012 7.82594 34.3814 7.61744 34.2832 7.41638C34.185 7.21533 34.0327 7.07152 33.8264 6.98497C33.6201 6.89842 33.4108 6.89056 33.1985 6.9614C32.9863 7.03223 32.8237 7.16421 32.7107 7.35734L32.634 7.47782C32.5708 7.58479 32.5306 7.69979 32.5135 7.82284L32.4478 8.31023C32.4451 8.3339 32.4432 8.35763 32.4423 8.38143L32.3875 9.21932C32.3875 9.22479 32.3875 9.23027 32.3875 9.23574L32.3383 10.2817C32.3381 10.2909 32.3381 10.3 32.3383 10.3091L32.3164 11.3442C32.3162 11.3551 32.3162 11.3661 32.3164 11.377L32.3328 12.2532C32.3328 12.2551 32.3328 12.2569 32.3328 12.2587L32.3437 12.8556C32.3454 12.8648 32.3473 12.8739 32.3492 12.883L32.3602 13.1076C32.3953 13.3533 32.5105 13.5526 32.706 13.7055C32.9014 13.8585 33.1226 13.9225 33.3696 13.8975C33.6165 13.8725 33.8204 13.7655 33.9812 13.5765C34.1421 13.3875 34.2151 13.1691 34.2002 12.9214L34.1783 12.7516L34.1126 12.193L34.0195 11.3168L33.9428 10.3091L33.8716 9.38908L33.8333 8.80311C33.8264 8.69447 33.8009 8.59042 33.7566 8.49096L33.7183 8.40333C33.5714 8.23873 33.3887 8.14188 33.17 8.11278C32.9513 8.08368 32.7496 8.12936 32.5648 8.24983C32.38 8.37029 32.2568 8.53643 32.1951 8.74825C32.1335 8.96006 32.1484 9.16637 32.2397 9.36718L32.393 9.53695L32.6066 10.0024L32.6121 10.6815C32.6121 10.8714 32.707 10.9663 32.8969 10.9663C33.0867 10.9663 33.1816 10.8714 33.1816 10.6815L33.1761 9.99696L33.3843 9.55338L33.5376 9.40004C33.4821 9.03739 33.2799 8.79938 32.931 8.68601C32.5821 8.57265 32.2787 8.64636 32.0206 8.90716L32.0261 8.96193L32.0644 9.50956C32.0644 9.51139 32.0644 9.51321 32.0644 9.51504L32.1247 10.4406L32.2014 11.4646C32.2013 11.4665 32.2013 11.4683 32.2014 11.4701L32.2725 12.3682C32.2724 12.3774 32.2724 12.3865 32.2725 12.3956L32.3383 12.9761C32.3398 12.9889 32.3416 13.0017 32.3437 13.0145L32.3711 13.1952C32.4014 13.4492 32.517 13.6554 32.718 13.8137C32.9191 13.9719 33.1466 14.0359 33.4007 14.0057C33.6547 13.9754 33.8609 13.8598 34.0192 13.6588C34.1774 13.4577 34.2414 13.2302 34.2112 12.9761L34.1893 12.7844L34.1838 12.2313L34.1893 11.377L34.2221 10.3694L34.2824 9.3398L34.3371 8.50738C34.3371 8.50556 34.3371 8.50373 34.3371 8.50191L34.37 8.01451C34.3708 7.9926 34.3708 7.9707 34.37 7.94879V7.80641C34.0839 7.53584 33.7605 7.47929 33.3996 7.63677C33.0387 7.79425 32.8602 8.06985 32.864 8.46357L32.9133 8.50738C32.868 8.40785 32.806 8.32023 32.7271 8.24452L32.7873 8.3869C32.8399 8.49938 32.9147 8.59431 33.0119 8.67168L33.105 8.74287C33.2306 8.84494 33.3743 8.8939 33.5362 8.88975C33.698 8.8856 33.839 8.82934 33.9593 8.72096Z" fill="black"/>
<path d="M2.64533 7.26969C2.64533 7.45589 2.73842 7.54899 2.92462 7.54899C3.11082 7.54899 3.20392 7.45589 3.20392 7.26969C3.20392 7.0835 3.11082 6.9904 2.92462 6.9904C2.73842 6.9904 2.64533 7.0835 2.64533 7.26969ZM2.49199 7.24779C2.49199 7.35969 2.53155 7.45521 2.61068 7.53434C2.68981 7.61347 2.78533 7.65304 2.89724 7.65304C3.00915 7.65304 3.10467 7.61347 3.1838 7.53434C3.26293 7.45521 3.30249 7.35969 3.30249 7.24779C3.30249 7.13588 3.26293 7.04036 3.1838 6.96123C3.10467 6.8821 3.00915 6.84253 2.89724 6.84253C2.78533 6.84253 2.68981 6.8821 2.61068 6.96123C2.53155 7.04036 2.49199 7.13588 2.49199 7.24779ZM2.30579 7.20398C2.30579 7.35067 2.35765 7.47587 2.46138 7.5796C2.56511 7.68332 2.69031 7.73519 2.837 7.73519C2.98369 7.73519 3.1089 7.68332 3.21262 7.5796C3.31635 7.47587 3.36821 7.35067 3.36821 7.20398C3.36821 7.05729 3.31635 6.93208 3.21262 6.82835C3.1089 6.72463 2.98369 6.67277 2.837 6.67277C2.69031 6.67277 2.56511 6.72463 2.46138 6.82835C2.35765 6.93208 2.30579 7.05729 2.30579 7.20398ZM3.39011 7.04516L3.37916 6.97397C3.36579 7.05429 3.36579 7.13461 3.37916 7.21493L3.38464 7.17659C3.40526 7.0544 3.39822 6.93382 3.36354 6.81486C3.32885 6.6959 3.26998 6.59043 3.18692 6.49847C3.10386 6.40651 3.00491 6.33724 2.89008 6.29066C2.77525 6.24408 2.65601 6.22485 2.53235 6.23296C2.4087 6.24108 2.29299 6.27573 2.18523 6.33691C2.07748 6.3981 1.98843 6.47971 1.9181 6.58173C1.84777 6.68376 1.80318 6.79601 1.78434 6.91849C1.7655 7.04097 1.77429 7.16143 1.8107 7.27988C1.84711 7.39833 1.90751 7.50292 1.99189 7.59367C2.07628 7.68442 2.17622 7.75224 2.29172 7.79715C2.40721 7.84205 2.52672 7.85955 2.65024 7.84964C2.77376 7.83973 2.88895 7.80341 2.99581 7.74066L3.02867 7.71876C2.97695 7.73519 2.92767 7.7571 2.88081 7.78447L2.952 7.76257C3.10344 7.71332 3.22065 7.62074 3.30365 7.48483C3.38664 7.34893 3.41547 7.20237 3.39011 7.04516ZM2.43722 7.85019L2.67271 7.89948C2.70537 7.90495 2.73822 7.9086 2.77128 7.91043L3.39559 7.96519C3.4229 7.9682 3.45028 7.97003 3.47774 7.97067H4.55659C4.56754 7.97085 4.57849 7.97085 4.58944 7.97067L6.12831 7.92138C6.13196 7.9214 6.13561 7.9214 6.13926 7.92138L8.0779 7.83924L10.3177 7.76804L12.7383 7.71328L15.1698 7.69137L17.5247 7.6859L19.7098 7.69137L21.6758 7.70233L23.4173 7.72423L24.978 7.75161L26.4183 7.78995C26.4202 7.78995 26.422 7.78995 26.4238 7.78995L27.7655 7.81733C27.7674 7.81734 27.7692 7.81734 27.771 7.81733L29.0087 7.83924L30.1587 7.86662L31.2266 7.89948C31.2284 7.89948 31.2303 7.89948 31.2321 7.89948L32.1905 7.92138L32.9955 7.93781C32.9973 7.93782 32.9991 7.93782 33.001 7.93781L33.6143 7.94876L34.0196 7.95972C34.0396 7.96031 34.0597 7.96031 34.0798 7.95972L34.3043 7.95424C34.3208 7.95282 34.3372 7.95099 34.3536 7.94876L34.4522 7.94329C34.7313 7.91238 34.9586 7.7873 35.134 7.56806C35.3095 7.34883 35.3817 7.09967 35.3507 6.82059C35.3197 6.54151 35.1945 6.31428 34.9752 6.13891C34.7559 5.96353 34.5067 5.89139 34.2277 5.9225L34.1893 5.92798L34.036 5.93345H33.6362H33.0283L32.2343 5.91702L31.2759 5.89512L30.2135 5.87321L29.0634 5.83488C29.058 5.83483 29.0525 5.83483 29.047 5.83488L27.8039 5.81297L26.4676 5.78559L25.0219 5.75821L23.4556 5.71987C23.452 5.71985 23.4483 5.71985 23.4447 5.71987L21.6977 5.69797C21.6959 5.69796 21.694 5.69796 21.6922 5.69797L19.7207 5.68702C19.7189 5.68701 19.7171 5.68701 19.7152 5.68702L17.5247 5.69249C17.5229 5.69249 17.521 5.69249 17.5192 5.69249L15.1589 5.69797C15.1571 5.69796 15.1552 5.69796 15.1534 5.69797L12.7109 5.71987C12.7073 5.71985 12.7036 5.71985 12.7 5.71987L10.2685 5.77464C10.2648 5.77462 10.2612 5.77462 10.2575 5.77464L8.00671 5.84583C8.00306 5.84581 7.99941 5.84581 7.99576 5.84583L6.05164 5.92798C6.04981 5.92797 6.04799 5.92797 6.04616 5.92798L4.51277 5.99917C4.50728 6.00095 4.50181 6.00277 4.49635 6.00465L3.42297 6.06489C3.41382 6.06658 3.40469 6.0684 3.39559 6.07036L2.77128 6.12513C2.73822 6.12696 2.70537 6.13061 2.67271 6.13608L2.43722 6.18537C2.23878 6.22499 2.07539 6.32304 1.94706 6.47951C1.81874 6.63599 1.75458 6.81541 1.75458 7.01778C1.75458 7.22014 1.81874 7.39957 1.94706 7.55604C2.07539 7.71252 2.23878 7.81057 2.43722 7.85019ZM33.9484 6.00465L33.8991 6.02655C33.8269 6.05884 33.7593 6.099 33.6965 6.14703L33.5979 6.2237C33.5323 6.27496 33.4739 6.33337 33.4226 6.39895L33.2912 6.56324C33.2586 6.60479 33.2294 6.6486 33.2036 6.69467L33.0557 6.96301C33.0307 7.00526 33.0088 7.04907 32.99 7.09445L32.8476 7.47232C32.8375 7.49752 32.8284 7.52307 32.8202 7.54899L32.6833 8.01448C32.6771 8.03621 32.6717 8.05811 32.6669 8.0802L32.5464 8.59498C32.5419 8.61858 32.5383 8.64231 32.5355 8.66617L32.4533 9.18095C32.4401 9.26084 32.4364 9.34116 32.4424 9.42191L32.4807 9.88741C32.4951 10.0938 32.5717 10.2738 32.7104 10.4273C32.8492 10.5808 33.0205 10.6751 33.2244 10.7101C33.4284 10.7452 33.6214 10.7136 33.8034 10.6152C33.9855 10.5169 34.1178 10.3729 34.2003 10.1831L34.392 9.75597C34.4203 9.69427 34.4422 9.63038 34.4577 9.5643L34.5727 9.055C34.5727 9.05134 34.5727 9.04769 34.5727 9.04404L34.6767 8.5676L34.7972 8.16782L34.9013 7.87757L34.9779 7.72423L35.0546 7.60923C34.9739 7.67353 34.9045 7.74837 34.8465 7.83376L34.9451 7.75709C34.8665 7.79167 34.7935 7.83548 34.726 7.88852L34.7753 7.86662C35.0324 7.75244 35.2115 7.56409 35.3125 7.30157C35.4136 7.03905 35.407 6.77925 35.2928 6.52217C35.1787 6.26508 34.9903 6.08601 34.7278 5.98496C34.4653 5.88391 34.2055 5.89047 33.9484 6.00465ZM33.0283 10.1722L32.9955 10.457C33.0029 10.6252 33.0903 10.7189 33.2577 10.7378C33.425 10.7568 33.5311 10.685 33.576 10.5227L33.6088 10.2379C33.6014 10.0696 33.514 9.97599 33.3467 9.95704C33.1793 9.93809 33.0732 10.0098 33.0283 10.1722Z" fill="black"/>
<path d="M13.3954 6.69472C13.3954 6.78697 13.428 6.86571 13.4933 6.93093C13.5585 6.99616 13.6372 7.02878 13.7295 7.02878C13.8217 7.02878 13.9005 6.99616 13.9657 6.93093C14.0309 6.86571 14.0635 6.78697 14.0635 6.69472C14.0635 6.60247 14.0309 6.52373 13.9657 6.4585C13.9005 6.39327 13.8217 6.36066 13.7295 6.36066C13.6372 6.36066 13.5585 6.39327 13.4933 6.4585C13.428 6.52373 13.3954 6.60247 13.3954 6.69472ZM13.3461 6.69472C13.3461 6.80058 13.3836 6.89093 13.4584 6.96579C13.5333 7.04064 13.6236 7.07807 13.7295 7.07807C13.8353 7.07807 13.9257 7.04064 14.0005 6.96579C14.0754 6.89093 14.1128 6.80058 14.1128 6.69472C14.1128 6.58886 14.0754 6.4985 14.0005 6.42365C13.9257 6.3488 13.8353 6.31137 13.7295 6.31137C13.6236 6.31137 13.5333 6.3488 13.4584 6.42365C13.3836 6.4985 13.3461 6.58886 13.3461 6.69472ZM13.2092 6.70019C13.2092 6.84688 13.2611 6.97209 13.3648 7.07582C13.4685 7.17954 13.5937 7.2314 13.7404 7.2314C13.8871 7.2314 14.0123 7.17954 14.116 7.07582C14.2198 6.97209 14.2716 6.84688 14.2716 6.70019C14.2716 6.55351 14.2198 6.4283 14.116 6.32457C14.0123 6.22085 13.8871 6.16899 13.7404 6.16899C13.5937 6.16899 13.4685 6.22085 13.3648 6.32457C13.2611 6.4283 13.2092 6.55351 13.2092 6.70019ZM13.0942 6.70019C13.0942 6.88167 13.1584 7.03656 13.2867 7.16488C13.415 7.2932 13.5699 7.35736 13.7514 7.35736C13.9328 7.35736 14.0877 7.2932 14.2161 7.16488C14.3444 7.03656 14.4085 6.88167 14.4085 6.70019C14.4085 6.51872 14.3444 6.36383 14.2161 6.23551C14.0877 6.10719 13.9328 6.04303 13.7514 6.04303C13.5699 6.04303 13.415 6.10719 13.2867 6.23551C13.1584 6.36383 13.0942 6.51872 13.0942 6.70019ZM14.1512 7.3245L14.184 7.30807C14.415 7.17003 14.5464 6.96741 14.5783 6.70019L14.5947 6.56329C14.5984 6.53053 14.6003 6.49767 14.6002 6.46471L14.6057 6.20184C14.6058 6.19272 14.6058 6.18359 14.6057 6.17446L14.5947 5.75826L14.5674 4.59726C14.5659 4.58262 14.564 4.56801 14.5619 4.55345L14.5235 3.94009C14.5236 3.93279 14.5236 3.92549 14.5235 3.91819L14.4688 3.34317L14.4304 2.86672L14.414 2.4998L14.4031 2.21503C14.4031 2.21321 14.4031 2.21138 14.4031 2.20956L14.3976 2.03979C14.3763 2.12984 14.3672 2.22112 14.3702 2.31361L14.3921 2.23694C14.0928 2.38102 13.9048 2.61468 13.828 2.93791L13.8609 2.92149C13.6693 2.90397 13.4867 2.93683 13.3133 3.02006L13.379 3.02554C13.4045 3.0283 13.43 3.03013 13.4557 3.03101H13.5652L13.8061 3.04197C13.8299 3.04277 13.8536 3.04277 13.8773 3.04197L14.3647 3.03101C14.372 3.03109 14.3793 3.03109 14.3866 3.03101L15.1917 2.9872C15.1971 2.98725 15.2026 2.98725 15.2081 2.9872L16.2869 2.92149L17.6068 2.84482L19.0197 2.78458L20.3723 2.73529L21.5498 2.72434L22.4698 2.72981L23.1105 2.74624L23.5596 2.76267C23.5778 2.76315 23.5961 2.76315 23.6144 2.76267L23.9484 2.75172C23.9721 2.75253 23.9959 2.75253 24.0196 2.75172L24.2934 2.72434C24.3136 2.72309 24.3336 2.72127 24.3537 2.71886L24.5892 2.686L24.8082 2.65314C24.8119 2.65316 24.8155 2.65316 24.8192 2.65314L25.0273 2.62028L25.1696 2.60386H25.1861C25.0211 2.45326 24.8276 2.36564 24.6056 2.34099L24.633 2.37385C24.6804 2.01703 24.5709 1.71765 24.3044 1.47572L24.2934 1.54691C24.3113 1.48961 24.3241 1.4312 24.3318 1.37167L24.2989 1.48667L24.2277 1.66192L24.0963 1.95764C24.0926 1.96308 24.0889 1.96856 24.0853 1.97407L23.9156 2.36289C23.9076 2.38275 23.9003 2.40283 23.8937 2.42313L23.7348 2.85577C23.7289 2.87206 23.7235 2.88849 23.7184 2.90506L23.587 3.33221C23.5809 3.35213 23.5754 3.37221 23.5705 3.39246L23.4774 3.78128C23.4705 3.81206 23.4651 3.84309 23.461 3.87438L23.4117 4.20844C23.4095 4.22482 23.4077 4.24125 23.4063 4.25772L23.3789 4.52607C23.3662 4.6641 23.3808 4.79919 23.4227 4.93132L23.5213 5.25443C23.6497 5.66817 23.9304 5.88125 24.3634 5.89366C24.7965 5.90607 25.0889 5.70943 25.2408 5.30372L25.3613 4.99156C25.3944 4.90861 25.4163 4.82282 25.427 4.73417L25.4489 4.48773L25.4928 4.21939L25.5694 3.90724L25.679 3.53484L25.8213 3.15697L25.9802 2.80101L26.1171 2.48337C26.1229 2.4689 26.1284 2.45429 26.1335 2.43956L26.2266 2.20408C26.2325 2.18779 26.238 2.17136 26.243 2.15479L26.2923 2.00693C26.3088 1.95859 26.3215 1.9093 26.3306 1.85907L26.3416 1.78787C26.4165 1.37448 26.2869 1.04042 25.9528 0.785694L25.9199 0.763788C25.7836 0.657646 25.6302 0.590104 25.4599 0.561162L25.3778 0.550209C25.3142 0.540575 25.2503 0.536924 25.1861 0.539256H25.0492C25.0199 0.539842 24.9907 0.541667 24.9615 0.544732L24.7808 0.566638L24.5618 0.588544L24.3318 0.615926C24.3245 0.615849 24.3172 0.615849 24.3099 0.615926L24.1018 0.643308L23.8827 0.659737H23.6034L23.1872 0.643308C23.1799 0.643231 23.1726 0.643231 23.1653 0.643308L22.5081 0.626878C22.5026 0.626824 22.4972 0.626824 22.4917 0.626878L21.5552 0.621402C21.5498 0.621347 21.5443 0.621347 21.5388 0.621402L20.3395 0.632355C20.3303 0.632234 20.3212 0.632234 20.3121 0.632355L18.9375 0.681642C18.9339 0.681642 18.9302 0.681642 18.9266 0.681642L17.5027 0.752835C17.5009 0.75283 17.4991 0.75283 17.4972 0.752835L16.1719 0.818552C16.1701 0.818547 16.1683 0.818547 16.1665 0.818552L15.0876 0.884269L14.2935 0.917127L13.828 0.939033H13.5926C13.5871 0.938978 13.5816 0.938978 13.5761 0.939033H13.5049H13.483C13.2865 0.922891 13.1003 0.9594 12.9244 1.04856L12.8916 1.07047C12.5939 1.22618 12.4132 1.46897 12.3494 1.79883L12.333 1.8755C12.319 1.95155 12.3135 2.02822 12.3166 2.1055L12.322 2.27527C12.3225 2.30639 12.3243 2.33742 12.3275 2.36837L12.3604 2.65862L12.4042 3.04197L12.4535 3.52937C12.4535 3.53119 12.4535 3.53302 12.4535 3.53484L12.5137 4.10986C12.5137 4.11169 12.5137 4.11351 12.5137 4.11534L12.5794 4.72869C12.5794 4.73052 12.5794 4.73235 12.5794 4.73417L12.7163 5.88969C12.7192 5.91172 12.7229 5.93363 12.7273 5.95541L12.804 6.36614C12.8096 6.39755 12.8169 6.42859 12.8259 6.45923L12.9025 6.71115C12.9206 6.76838 12.9443 6.82314 12.9737 6.87544L13.0394 6.99592C13.1114 7.12746 13.2118 7.23151 13.3406 7.30807L13.3735 7.3245C13.6327 7.47852 13.8919 7.47852 14.1512 7.3245ZM23.7129 5.07371C23.7129 5.25972 23.7787 5.41848 23.9102 5.55001C24.0418 5.68154 24.2005 5.7473 24.3865 5.7473C24.5725 5.7473 24.7313 5.68154 24.8628 5.55001C24.9944 5.41848 25.0601 5.25972 25.0601 5.07371C25.0601 4.8877 24.9944 4.72893 24.8628 4.5974C24.7313 4.46588 24.5725 4.40011 24.3865 4.40011C24.2005 4.40011 24.0418 4.46588 23.9102 4.5974C23.7787 4.72893 23.7129 4.8877 23.7129 5.07371ZM24.1729 5.238L24.1839 5.2599C24.2569 5.40952 24.3683 5.44782 24.5179 5.37483C24.6676 5.30184 24.7059 5.19051 24.633 5.04085L24.622 5.01894C24.549 4.86933 24.4376 4.83102 24.288 4.90402C24.1384 4.97701 24.1 5.08834 24.1729 5.238Z" fill="black"/>
<path d="M2.74929 14.2521V14.2466C2.75076 14.1013 2.69125 13.9879 2.57076 13.9066C2.45027 13.8253 2.3229 13.8125 2.18865 13.8683C2.0544 13.924 1.97355 14.0232 1.9461 14.166C1.91864 14.3087 1.95692 14.4309 2.06092 14.5325C2.16492 14.634 2.28795 14.6694 2.43 14.6386C2.57206 14.6077 2.66936 14.5245 2.72191 14.389V14.3835C2.73894 14.3414 2.74807 14.2976 2.74929 14.2521ZM2.7 13.9838L2.67809 13.9564C2.60089 13.8283 2.49137 13.7407 2.34951 13.6935L2.25641 13.6606C2.15982 13.6302 2.06124 13.621 1.96069 13.6333L1.84568 13.6497C1.74925 13.6599 1.65798 13.6873 1.57186 13.7318L1.45686 13.7921C1.31043 13.8696 1.19725 13.981 1.11732 14.1261L1.06256 14.2247C0.8766 14.5611 0.902156 14.8806 1.13923 15.1831L1.24876 15.32C1.38334 15.4961 1.55858 15.6093 1.77449 15.6595L2.17974 15.7472C2.23748 15.7599 2.29589 15.7672 2.35499 15.7691L3.05049 15.791C3.08335 15.7926 3.11621 15.7926 3.14906 15.791L4.14029 15.7252C4.15127 15.7236 4.16223 15.7218 4.17315 15.7198L5.44367 15.5938C5.44916 15.592 5.45464 15.5902 5.4601 15.5883L6.93873 15.4131L8.54331 15.2324L10.23 15.0681L11.988 14.9312L13.839 14.8326L15.794 14.745L17.8422 14.6738L19.8904 14.6245L21.8783 14.5807L23.7512 14.5478L25.4544 14.5314L26.9714 14.5259L28.3295 14.5314L29.611 14.5478L30.8158 14.5862L31.9056 14.6519L32.8147 14.7395L33.2035 14.7888C33.4984 14.8251 33.7629 14.7518 33.9971 14.5689C34.2313 14.3861 34.3665 14.1472 34.4028 13.8523C34.4391 13.5574 34.3658 13.2929 34.183 13.0587C34.0001 12.8245 33.7612 12.6893 33.4664 12.653L33.0611 12.6037C33.0538 12.6036 33.0465 12.6036 33.0392 12.6037L32.0973 12.5051C32.0808 12.5048 32.0644 12.5048 32.048 12.5051L30.9253 12.4394C30.9162 12.4393 30.9071 12.4393 30.8979 12.4394L29.6657 12.4011C29.6585 12.3992 29.6512 12.3974 29.6438 12.3956L28.3514 12.3846L26.9823 12.3682C26.9768 12.3682 26.9714 12.3682 26.9659 12.3682L25.4434 12.3737C25.4416 12.3737 25.4398 12.3737 25.438 12.3737L23.7239 12.3901C23.7202 12.3919 23.7165 12.3938 23.7129 12.3956L21.8345 12.4339C21.829 12.4339 21.8236 12.4339 21.8181 12.4339L19.8247 12.4997L17.771 12.5818L15.7174 12.653C15.7156 12.653 15.7137 12.653 15.7119 12.653L13.7459 12.7406C13.7404 12.7406 13.7349 12.7406 13.7294 12.7406L11.8565 12.8501C11.8492 12.8519 11.8419 12.8537 11.8346 12.8556L10.0548 12.998C10.0438 12.9978 10.0329 12.9978 10.0219 12.998L8.32425 13.1842C8.31693 13.1859 8.30963 13.1878 8.30235 13.1897L6.68681 13.3978L5.21366 13.5949L3.96505 13.7483L3.01763 13.8414L2.40428 13.8633L2.17974 13.8468L2.14141 13.8304C2.21203 14.1296 2.39093 14.3341 2.67809 14.4438L2.65071 14.3342C2.61403 14.4707 2.6122 14.6076 2.64524 14.745L2.67262 14.6464L2.70548 14.5588C2.70548 14.557 2.70548 14.5551 2.70548 14.5533L2.73833 14.4657C2.75503 14.4122 2.76416 14.3574 2.76572 14.3014L2.77119 14.2685C2.77672 14.1663 2.75298 14.0714 2.7 13.9838Z" fill="black"/>
<path d="M3.26925 7.59284C3.26925 7.69869 3.30668 7.78905 3.38153 7.8639C3.45638 7.93876 3.54674 7.97618 3.6526 7.97618C3.75846 7.97618 3.84881 7.93876 3.92366 7.8639C3.99852 7.78905 4.03594 7.69869 4.03594 7.59284C4.03594 7.48698 3.99852 7.39662 3.92366 7.32177C3.84881 7.24692 3.75846 7.20949 3.6526 7.20949C3.54674 7.20949 3.45638 7.24692 3.38153 7.32177C3.30668 7.39662 3.26925 7.48698 3.26925 7.59284ZM3.13782 7.30806L3.03377 7.46688C2.99139 7.53117 2.96036 7.60054 2.94067 7.67498L2.82019 8.16238C2.81389 8.18224 2.80841 8.20232 2.80376 8.22262L2.66685 9.05503C2.66486 9.06413 2.66303 9.07325 2.66137 9.08241L2.52994 10.1613C2.52795 10.1704 2.52612 10.1795 2.52446 10.1886L2.42041 11.3223C2.41805 11.3569 2.41805 11.3916 2.42041 11.4263L2.46422 12.4394C2.4645 12.4651 2.46632 12.4907 2.4697 12.5161L2.59018 13.2445C2.59162 13.2555 2.59345 13.2664 2.59565 13.2773L2.68328 13.6662C2.73498 13.8701 2.86603 13.9706 3.07642 13.9676C3.28681 13.9647 3.41498 13.8605 3.46092 13.6552L3.53759 13.2773L3.71831 12.5709C3.72027 12.5636 3.72209 12.5563 3.72379 12.549L3.93737 11.5577C3.94214 11.5342 3.94579 11.5105 3.94832 11.4865L4.08523 10.3529L4.21667 9.27409C4.21667 9.27226 4.21667 9.27044 4.21667 9.26861L4.30976 8.43072C4.31225 8.41254 4.31407 8.39428 4.31524 8.37596L4.33167 7.87213C4.33297 7.78957 4.32019 7.70925 4.29333 7.63117L4.23857 7.45045C4.1591 7.20344 3.9907 7.06329 3.73337 7.03C3.47604 6.99672 3.27752 7.0894 3.13782 7.30806ZM3.28568 13.8797L3.32949 13.8359C3.42369 13.7162 3.41693 13.6025 3.30921 13.4948C3.20149 13.387 3.08777 13.3803 2.96805 13.4745L2.92424 13.5183C2.83004 13.638 2.8368 13.7517 2.94452 13.8595C3.05224 13.9672 3.16596 13.9739 3.28568 13.8797Z" fill="black"/>
<path d="M3.00093 6.83707C3.00093 6.94747 3.03996 7.0417 3.11802 7.11976C3.19608 7.19782 3.29031 7.23685 3.4007 7.23685C3.5111 7.23685 3.60533 7.19782 3.68339 7.11976C3.76145 7.0417 3.80048 6.94747 3.80048 6.83707C3.80048 6.72668 3.76145 6.63245 3.68339 6.55439C3.60533 6.47633 3.5111 6.4373 3.4007 6.4373C3.29031 6.4373 3.19608 6.47633 3.11802 6.55439C3.03996 6.63245 3.00093 6.72668 3.00093 6.83707ZM2.97902 6.82612C2.97902 6.94105 3.01966 7.03915 3.10092 7.12042C3.18219 7.20169 3.28029 7.24233 3.39523 7.24233C3.51016 7.24233 3.60826 7.20169 3.68953 7.12042C3.7708 7.03915 3.81143 6.94105 3.81143 6.82612C3.81143 6.71119 3.7708 6.61309 3.68953 6.53182C3.60826 6.45055 3.51016 6.40991 3.39523 6.40991C3.28029 6.40991 3.18219 6.45055 3.10092 6.53182C3.01966 6.61309 2.97902 6.71119 2.97902 6.82612ZM2.83663 6.79326C2.83669 6.94596 2.89071 7.07629 2.99871 7.18425C3.1067 7.29221 3.23705 7.34619 3.38975 7.34619C3.54245 7.34619 3.6728 7.29221 3.78079 7.18425C3.88879 7.07629 3.94281 6.94596 3.94287 6.79326C3.94281 6.64056 3.88879 6.51023 3.78079 6.40227C3.6728 6.29432 3.54245 6.24034 3.38975 6.24034C3.23705 6.24034 3.1067 6.29432 2.99871 6.40227C2.89071 6.51023 2.83669 6.64056 2.83663 6.79326ZM3.0064 6.21824L2.95164 6.2511C2.78622 6.36332 2.68034 6.51666 2.63401 6.71112L2.55186 7.0397C2.54167 7.07933 2.53437 7.1195 2.52996 7.16018L2.46424 7.81187C2.46404 7.82282 2.46404 7.83378 2.46424 7.84473L2.404 8.80857C2.40398 8.81222 2.40398 8.81588 2.404 8.81953L2.33828 10.0189C2.33823 10.0243 2.33823 10.0298 2.33828 10.0353L2.29995 11.3113C2.29968 11.3241 2.29968 11.3368 2.29995 11.3496L2.31638 12.527C2.31617 12.538 2.31617 12.5489 2.31638 12.5599L2.36019 13.5183C2.36152 13.5348 2.36335 13.5512 2.36566 13.5676L2.43686 14.2631C2.43956 14.2851 2.44321 14.307 2.44781 14.3288L2.52996 14.745L2.56281 14.9367C2.58751 15.081 2.6514 15.2051 2.75449 15.309L2.78187 15.3364C2.96943 15.5275 3.19283 15.5895 3.45207 15.5226C3.7113 15.4557 3.87673 15.2932 3.94834 15.0352L3.96477 14.9695C3.99926 14.8454 3.99926 14.7212 3.96477 14.5971L3.93739 14.4985C3.85766 14.2081 3.66792 14.0481 3.36819 14.0185C3.06845 13.9889 2.8511 14.1088 2.71615 14.3781L2.66687 14.4657C2.64174 14.5182 2.62349 14.5729 2.6121 14.63L2.59567 14.6957C2.78949 14.887 3.01714 14.9446 3.27862 14.8685C3.5401 14.7924 3.70127 14.6216 3.76214 14.3562L3.73476 14.3288C3.7444 14.5091 3.81377 14.6625 3.94287 14.7888L3.93739 14.6355L3.97025 14.2521C3.97041 14.243 3.97041 14.2338 3.97025 14.2247L4.01406 13.5292C4.01416 13.5219 4.01416 13.5146 4.01406 13.5073L4.04692 12.5489L4.0962 11.377L4.15644 10.1065L4.21121 8.90715C4.21123 8.9035 4.21123 8.89985 4.21121 8.8962L4.24954 7.93235C4.25022 7.91227 4.25022 7.89219 4.24954 7.87211L4.22764 7.21494C4.22647 7.16518 4.22099 7.11589 4.21121 7.06708L4.14002 6.7385C4.09878 6.53197 3.99108 6.3695 3.81691 6.2511L3.76214 6.21824C3.51023 6.04753 3.25832 6.04753 3.0064 6.21824ZM2.85306 14.5697C2.85311 14.6922 2.89643 14.7967 2.98304 14.8833C3.06965 14.9699 3.17419 15.0132 3.29665 15.0132C3.41911 15.0132 3.52365 14.9699 3.61026 14.8833C3.69687 14.7967 3.7402 14.6922 3.74024 14.5697C3.74019 14.4473 3.69687 14.3428 3.61026 14.2562C3.52365 14.1696 3.41911 14.1263 3.29665 14.1263C3.17419 14.1263 3.06965 14.1696 2.98304 14.2562C2.89643 14.3428 2.85311 14.4473 2.85306 14.5697ZM3.51571 14.4602L3.51023 14.4C3.49553 14.2467 3.41156 14.1774 3.25833 14.192C3.1051 14.2066 3.03573 14.2905 3.05021 14.4438L3.05569 14.504C3.07039 14.6572 3.15436 14.7266 3.30759 14.712C3.46082 14.6974 3.53019 14.6135 3.51571 14.4602Z" fill="black"/>
<path d="M30.914 13.9989L30.9468 13.9825C31.0553 13.9319 31.1283 13.8497 31.1659 13.7361L31.1823 13.6813L31.2042 13.6156C31.1724 13.657 31.1487 13.7027 31.133 13.7525L31.1714 13.6977C31.2737 13.5713 31.302 13.43 31.2562 13.2739C31.2104 13.1178 31.1103 13.0141 30.9559 12.963C30.8014 12.9118 30.6592 12.9352 30.5293 13.0332C30.3994 13.1311 30.3378 13.2614 30.3444 13.4239V13.4842L30.3499 13.5553C30.349 13.5718 30.349 13.5882 30.3499 13.6046L30.3609 13.6594C30.3723 13.7556 30.4125 13.8377 30.4813 13.9058L30.5087 13.9277C30.6274 14.045 30.7625 14.0687 30.914 13.9989ZM30.2185 13.3691C30.2185 13.5355 30.2773 13.6775 30.3949 13.7951C30.5125 13.9127 30.6545 13.9716 30.8209 13.9716C30.9872 13.9716 31.1292 13.9127 31.2468 13.7951C31.3645 13.6775 31.4233 13.5355 31.4233 13.3691C31.4233 13.2028 31.3645 13.0608 31.2468 12.9432C31.1292 12.8256 30.9872 12.7667 30.8209 12.7667C30.6545 12.7667 30.5125 12.8256 30.3949 12.9432C30.2773 13.0608 30.2185 13.2028 30.2185 13.3691ZM30.2185 13.1118L30.1144 13.3034C30.0999 13.33 30.0871 13.3574 30.0761 13.3856L29.9063 13.8237C29.9003 13.8399 29.8948 13.8564 29.8899 13.873L29.6599 14.6123C29.658 14.6177 29.6562 14.6232 29.6544 14.6287L29.3532 15.6857C29.3514 15.6893 29.3495 15.6929 29.3477 15.6966L28.9863 17.0383C28.9844 17.0438 28.9826 17.0493 28.9808 17.0548L28.5865 18.6265C28.5847 18.6301 28.5828 18.6338 28.581 18.6374L28.1758 20.3461C28.174 20.3461 28.1721 20.3461 28.1703 20.3461L27.7705 22.0602L27.3598 23.6921L26.9655 25.2255L26.5767 26.6549L26.1988 27.9637L25.8538 29.1631L25.5307 30.2419C25.5307 30.2456 25.5307 30.2492 25.5307 30.2529L25.2459 31.2496C25.2459 31.2514 25.2459 31.2532 25.2459 31.255L24.994 32.1641C24.9902 32.1732 24.9865 32.1823 24.983 32.1915L24.7804 33.0184C24.7785 33.0275 24.7766 33.0367 24.7749 33.0458L24.6106 33.8125C24.6086 33.8234 24.6068 33.8344 24.6052 33.8454L24.4792 34.5463C24.4792 34.55 24.4792 34.5537 24.4792 34.5573L24.3752 35.1707L24.2875 35.68L24.2054 36.0962L24.1233 36.4467C24.1213 36.4558 24.1195 36.4649 24.1178 36.474L24.0575 36.7588C24.0314 36.887 24.0333 37.0148 24.063 37.1422L24.1013 37.3174C24.1711 37.6289 24.3597 37.8275 24.6673 37.913C24.9748 37.9986 25.2389 37.926 25.4595 37.6953L25.5854 37.5638C25.6955 37.4503 25.7703 37.3171 25.81 37.1641L25.8812 36.8793C25.883 36.8738 25.8849 36.8684 25.8866 36.8629L25.9743 36.4959C25.9762 36.4868 25.9781 36.4777 25.9797 36.4686L26.0728 36.025C26.0729 36.0195 26.0729 36.014 26.0728 36.0085L26.1659 35.4883C26.1678 35.4846 26.1696 35.481 26.1714 35.4773L26.2755 34.864L26.396 34.1849L26.5548 33.4456L26.7629 32.646L27.0093 31.7534L27.2941 30.7622L27.6172 29.6833C27.619 29.6797 27.6209 29.676 27.6227 29.6724L27.9622 28.4676L28.3401 27.1532C28.3419 27.1478 28.3438 27.1423 28.3455 27.1368L28.7289 25.6965C28.7307 25.6929 28.7326 25.6892 28.7344 25.6855L29.1232 24.1357C29.1251 24.1303 29.1269 24.1248 29.1287 24.1193L29.5065 22.4654C29.5065 22.4636 29.5065 22.4618 29.5065 22.46L29.8899 20.7458L30.2897 19.0427C30.2897 19.0409 30.2897 19.039 30.2897 19.0372L30.6511 17.4545C30.6511 17.4509 30.6511 17.4472 30.6511 17.4436L30.9468 16.0854L31.1768 15.0175L31.3521 14.2673C31.354 14.26 31.3558 14.2527 31.3576 14.2454L31.4452 13.7799C31.453 13.7474 31.4584 13.7145 31.4616 13.6813L31.4726 13.4622C31.4797 13.3068 31.4377 13.166 31.3466 13.0399C31.2554 12.9138 31.1349 12.8298 30.985 12.788C30.8351 12.7461 30.6885 12.7554 30.5452 12.816C30.4018 12.8765 30.2929 12.9751 30.2185 13.1118ZM24.1561 37.2353C24.1561 37.4258 24.2235 37.5884 24.3582 37.7232C24.4929 37.8579 24.6556 37.9253 24.8461 37.9253C25.0367 37.9253 25.1993 37.8579 25.3341 37.7232C25.4688 37.5884 25.5362 37.4258 25.5362 37.2353C25.5362 37.0447 25.4688 36.8821 25.3341 36.7473C25.1993 36.6126 25.0367 36.5452 24.8461 36.5452C24.6556 36.5452 24.4929 36.6126 24.3582 36.7473C24.2235 36.8821 24.1561 37.0447 24.1561 37.2353ZM25.1145 37.2736L25.1364 37.1914C25.1801 37.0199 25.1162 36.9123 24.9447 36.8685C24.7732 36.8247 24.6655 36.8885 24.6216 37.06L24.5997 37.1422C24.556 37.3137 24.6199 37.4213 24.7914 37.4651C24.9629 37.5089 25.0706 37.4451 25.1145 37.2736Z" fill="black"/>
<path d="M9.89004 38.3634C9.89004 38.4677 9.92693 38.5568 10.0007 38.6306C10.0745 38.7044 10.1636 38.7413 10.2679 38.7413C10.3723 38.7413 10.4613 38.7044 10.5351 38.6306C10.6089 38.5568 10.6458 38.4677 10.6458 38.3634C10.6458 38.259 10.6089 38.17 10.5351 38.0962C10.4613 38.0224 10.3723 37.9855 10.2679 37.9855C10.1636 37.9855 10.0745 38.0224 10.0007 38.0962C9.92693 38.17 9.89004 38.259 9.89004 38.3634ZM9.87908 38.3634C9.87908 38.4708 9.91705 38.5624 9.99297 38.6383C10.0689 38.7143 10.1605 38.7522 10.2679 38.7522C10.3753 38.7522 10.4669 38.7143 10.5428 38.6383C10.6188 38.5624 10.6567 38.4708 10.6567 38.3634C10.6567 38.256 10.6188 38.1644 10.5428 38.0885C10.4669 38.0125 10.3753 37.9746 10.2679 37.9746C10.1605 37.9746 10.0689 38.0125 9.99297 38.0885C9.91705 38.1644 9.87908 38.256 9.87908 38.3634ZM9.78051 38.3853C9.78051 38.5108 9.82488 38.618 9.91364 38.7067C10.0024 38.7955 10.1095 38.8398 10.235 38.8398C10.3606 38.8398 10.4677 38.7955 10.5565 38.7067C10.6452 38.618 10.6896 38.5108 10.6896 38.3853C10.6896 38.2598 10.6452 38.1526 10.5565 38.0639C10.4677 37.9751 10.3606 37.9308 10.235 37.9308C10.1095 37.9308 10.0024 37.9751 9.91364 38.0639C9.82488 38.1526 9.78051 38.2598 9.78051 38.3853ZM9.6436 38.4346C9.6436 38.5873 9.6976 38.7177 9.8056 38.8257C9.91361 38.9337 10.044 38.9877 10.1967 38.9877C10.3495 38.9877 10.4798 38.9337 10.5878 38.8257C10.6958 38.7177 10.7498 38.5873 10.7498 38.4346C10.7498 38.2819 10.6958 38.1515 10.5878 38.0435C10.4798 37.9355 10.3495 37.8815 10.1967 37.8815C10.044 37.8815 9.91361 37.9355 9.8056 38.0435C9.6976 38.1515 9.6436 38.2819 9.6436 38.4346ZM9.52859 38.4839C9.5286 38.6593 9.59062 38.809 9.71466 38.9331C9.8387 39.0571 9.98843 39.1191 10.1639 39.1191C10.3393 39.1191 10.489 39.0571 10.6131 38.9331C10.7371 38.809 10.7991 38.6593 10.7991 38.4839C10.7991 38.3085 10.7371 38.1587 10.6131 38.0347C10.489 37.9106 10.3393 37.8486 10.1639 37.8486C9.98843 37.8486 9.8387 37.9106 9.71466 38.0347C9.59062 38.1587 9.5286 38.3085 9.52859 38.4839ZM9.4574 38.5222C9.4574 38.7158 9.52584 38.881 9.66272 39.0179C9.79959 39.1548 9.96481 39.2232 10.1584 39.2232C10.3519 39.2232 10.5172 39.1548 10.654 39.0179C10.7909 38.881 10.8594 38.7158 10.8594 38.5222C10.8594 38.3286 10.7909 38.1634 10.654 38.0265C10.5172 37.8897 10.3519 37.8212 10.1584 37.8212C9.96481 37.8212 9.79959 37.8897 9.66272 38.0265C9.52584 38.1634 9.4574 38.3286 9.4574 38.5222ZM9.62717 39.0425L9.68193 39.1082C9.74841 39.1868 9.82691 39.2507 9.91742 39.2999L10.0927 39.393C10.1348 39.4167 10.1786 39.4367 10.2241 39.4532L10.5198 39.5518C10.5469 39.5603 10.5742 39.5676 10.602 39.5737L11.0182 39.6723C11.0363 39.6783 11.0545 39.6838 11.0729 39.6887L11.637 39.7873C11.6697 39.7926 11.7025 39.7962 11.7356 39.7982L12.4201 39.8475C12.4329 39.8477 12.4457 39.8477 12.4585 39.8475L13.2525 39.8749C13.2635 39.8751 13.2744 39.8751 13.2854 39.8749H14.178L15.1693 39.8804C15.1748 39.8804 15.1802 39.8804 15.1857 39.8804L16.2919 39.8694C16.3011 39.8695 16.3102 39.8695 16.3193 39.8694L17.4913 39.8201C17.4967 39.8202 17.5022 39.8202 17.5077 39.8201L18.6796 39.7599L19.7694 39.6996L20.7223 39.6723L21.5219 39.6668H22.1571L22.6719 39.6832L23.1155 39.6996C23.1192 39.6996 23.1228 39.6996 23.1265 39.6996L23.5153 39.7106C23.5226 39.7107 23.5299 39.7107 23.5372 39.7106H23.8822C23.8968 39.7109 23.9114 39.7109 23.926 39.7106L24.2382 39.6996C24.251 39.6999 24.2637 39.6999 24.2765 39.6996L24.5449 39.6777C24.5485 39.6777 24.5522 39.6777 24.5558 39.6777L24.7584 39.6613L24.9337 39.6558C24.9502 39.6544 24.9666 39.6526 24.983 39.6503L25.1637 39.6339L25.3444 39.6175L25.662 39.5901C25.6785 39.5887 25.6949 39.5868 25.7113 39.5846L25.8373 39.5682C25.8779 39.5633 25.918 39.556 25.9578 39.5463L26.0563 39.5189C26.0878 39.5112 26.1188 39.5021 26.1494 39.4915L26.248 39.4532C26.3109 39.4316 26.3711 39.4042 26.4287 39.3711L26.4945 39.3272C26.5093 39.3185 26.5239 39.3094 26.5383 39.2999L26.5875 39.267C26.6559 39.2215 26.718 39.1685 26.7737 39.1082L26.7957 39.0808C26.9776 38.8826 27.0688 38.6489 27.0695 38.3798V38.3579C27.0688 38.1874 27.0286 38.0268 26.949 37.876L26.9326 37.8377C26.9172 37.8114 26.9008 37.7858 26.8833 37.761L26.834 37.6788C26.8106 37.6425 26.7851 37.6079 26.7573 37.5748L26.6478 37.4434C26.4027 37.1462 26.0925 37.0404 25.7169 37.1261C25.3414 37.2118 25.1077 37.4417 25.0158 37.8158L24.972 37.9855C24.9348 38.1384 24.933 38.2918 24.9665 38.4455L24.9884 38.5441C25.023 38.7112 25.0942 38.8609 25.202 38.9932L25.2294 39.0206C25.2286 38.7708 25.1483 38.5499 24.9884 38.3579V38.3798C25.1132 38.2004 25.1753 38.0014 25.1746 37.7829L25.1582 37.8158C25.2694 37.7408 25.3625 37.6477 25.4375 37.5365L25.4156 37.5529L25.3663 37.5803C25.45 37.5628 25.5303 37.5355 25.6073 37.4981L25.5416 37.5146L25.4649 37.52L25.1637 37.5474C25.1619 37.5474 25.16 37.5474 25.1582 37.5474L25.0049 37.5638H24.857C24.8424 37.5654 24.8278 37.5672 24.8132 37.5693L24.6215 37.5803L24.4025 37.5967C24.3933 37.5966 24.3842 37.5966 24.3751 37.5967L24.1396 37.6186L23.8658 37.6296H23.5536L23.1867 37.6186L22.7431 37.6022C22.7413 37.6022 22.7395 37.6022 22.7376 37.6022L22.2064 37.5858C22.1991 37.5857 22.1918 37.5857 22.1845 37.5858L21.5274 37.5748C21.5182 37.5747 21.5091 37.5747 21.5 37.5748L20.684 37.5912C20.6803 37.5912 20.6767 37.5912 20.673 37.5912L19.6983 37.6186C19.6873 37.6184 19.6763 37.6184 19.6654 37.6186L18.5701 37.6788L17.4036 37.7391L16.2426 37.7884L15.1528 37.8212L14.1671 37.8377L13.2744 37.8486L12.5023 37.8541L11.8451 37.8377L11.3139 37.8048L10.9086 37.7665C10.8959 37.7644 10.8831 37.7626 10.8703 37.761L10.5636 37.7446C10.5253 37.742 10.487 37.742 10.4486 37.7446L10.246 37.761C10.171 37.7656 10.098 37.7802 10.0269 37.8048L9.9448 37.8377C9.82759 37.8797 9.72691 37.9465 9.64275 38.0383C9.55859 38.13 9.50064 38.2361 9.4689 38.3565C9.43716 38.4769 9.43529 38.5977 9.46328 38.719C9.49127 38.8403 9.5459 38.9482 9.62717 39.0425ZM26.1987 37.7391L26.1604 37.5036C26.1275 37.2919 26.0052 37.2024 25.7935 37.2353C25.5817 37.2681 25.4923 37.3904 25.5251 37.6022L25.5635 37.8377C25.5963 38.0494 25.7186 38.1389 25.9304 38.106C26.1421 38.0731 26.2316 37.9508 26.1987 37.7391Z" fill="black"/>
<path d="M13.6776 20.0798C13.6776 20.2673 13.7713 20.3611 13.9589 20.3611C14.1464 20.3611 14.2402 20.2673 14.2402 20.0798C14.2402 19.8922 14.1464 19.7985 13.9589 19.7985C13.7713 19.7985 13.6776 19.8922 13.6776 20.0798ZM13.5963 20.0798C13.5963 20.1782 13.6311 20.2621 13.7007 20.3317C13.7702 20.4013 13.8542 20.4361 13.9526 20.4361C14.051 20.4361 14.135 20.4013 14.2046 20.3317C14.2741 20.2621 14.3089 20.1782 14.3089 20.0798C14.3089 19.9814 14.2741 19.8974 14.2046 19.8278C14.135 19.7582 14.051 19.7234 13.9526 19.7234C13.8542 19.7234 13.7702 19.7582 13.7007 19.8278C13.6311 19.8974 13.5963 19.9814 13.5963 20.0798ZM13.5963 20.0423L13.5838 20.1423C13.5835 20.1506 13.5835 20.1589 13.5838 20.1673L13.5525 21.2987C13.5508 21.3238 13.5508 21.3488 13.5525 21.3738L13.6776 22.574C13.6775 22.5761 13.6775 22.5782 13.6776 22.5802L13.8713 24.0868C13.8713 24.0889 13.8713 24.0909 13.8713 24.093L14.1089 25.7121C14.1108 25.7205 14.1129 25.7288 14.1151 25.7371L14.4277 27.3624C14.4296 27.3708 14.4317 27.3791 14.434 27.3874L14.7778 28.8502C14.7815 28.8628 14.7856 28.8754 14.7903 28.8877L15.1778 30.0942C15.1778 30.0963 15.1778 30.0983 15.1778 30.1004L15.4779 31.0068C15.4855 31.033 15.4959 31.058 15.5092 31.0819L15.8092 31.5882L15.9217 31.9195C15.9752 32.0364 16.0626 32.0739 16.1841 32.0321C16.3056 31.9904 16.3515 31.907 16.3218 31.782L16.2155 31.4632L16.1843 30.8756C16.1834 30.8588 16.1813 30.8421 16.178 30.8256L15.9905 29.8941L15.7967 28.6501C15.7947 28.646 15.7926 28.6418 15.7905 28.6376L15.5154 27.1561L15.2404 25.5433L15.0091 23.9305L14.8153 22.4365C14.8132 22.4365 14.8111 22.4365 14.809 22.4365L14.6527 21.2425C14.6482 21.217 14.642 21.192 14.634 21.1675L14.3214 20.086L14.3027 19.9985C14.2489 19.8124 14.1253 19.7253 13.932 19.7373C13.7386 19.7493 13.6267 19.8509 13.5963 20.0423Z" fill="black"/>
<path d="M19.5412 20.0548L19.5162 20.1798L19.4225 20.4861C19.4151 20.5045 19.4088 20.5232 19.4037 20.5424L19.2724 21.2112C19.2671 21.2318 19.2629 21.2527 19.2599 21.2737L19.1724 22.3239C19.1722 22.3323 19.1722 22.3406 19.1724 22.349L19.1099 23.7055C19.1094 23.72 19.1094 23.7346 19.1099 23.7492L19.1599 25.237C19.1597 25.2453 19.1597 25.2537 19.1599 25.262L19.2912 26.6935C19.291 26.6998 19.291 26.706 19.2912 26.7123L19.4475 27.9125L19.4912 28.8189C19.4996 28.9815 19.585 29.0586 19.7475 29.0502C19.91 29.0419 19.9871 28.9565 19.9788 28.7939L19.9351 27.9L20.0288 26.6935L20.1726 25.2683C20.1726 25.2662 20.1726 25.2641 20.1726 25.262L20.3101 23.7867C20.3103 23.7784 20.3103 23.7701 20.3101 23.7617L20.3726 22.4052C20.3727 22.401 20.3727 22.3969 20.3726 22.3927L20.4101 21.3425C20.4109 21.3258 20.4109 21.3092 20.4101 21.2925L20.3726 20.6111C20.3715 20.5795 20.3673 20.5482 20.3601 20.5174L20.2789 20.1923L20.2539 20.0548C20.2168 19.8577 20.098 19.7592 19.8975 19.7592C19.6971 19.7592 19.5783 19.8577 19.5412 20.0548Z" fill="black"/>
<path d="M5.44527 17.9226L5.45152 17.9101C5.49478 17.8365 5.51145 17.7573 5.50153 17.6725V17.6538V17.5787C5.50169 17.5725 5.50169 17.5662 5.50153 17.56L5.49528 17.4162L5.48903 17.2724L5.53904 16.9974L5.61406 16.7723C5.6515 16.6393 5.63843 16.5113 5.57484 16.3886C5.51125 16.2658 5.41431 16.1814 5.284 16.1352C5.1537 16.089 5.0252 16.0936 4.8985 16.1489C4.7718 16.2042 4.68109 16.2953 4.62637 16.4223L4.60136 16.4848C4.57315 16.5572 4.56064 16.6322 4.56386 16.7098L4.57636 16.9161C4.57564 16.9328 4.57564 16.9495 4.57636 16.9661L4.63262 17.3599C4.63453 17.3683 4.63661 17.3767 4.63887 17.385L4.75139 18.0163C4.7531 18.0289 4.75519 18.0414 4.75764 18.0538L4.96393 18.9227L5.22648 20.0042L5.52029 21.2357L6.0954 24.0487C6.09744 24.0529 6.09952 24.0571 6.10165 24.0612L6.43296 25.524C6.435 25.5282 6.43709 25.5324 6.43921 25.5365L6.79553 26.9743C6.79545 26.9805 6.79545 26.9868 6.79553 26.993L7.16435 28.3558L7.50817 29.6185L7.81447 30.7562L8.07702 31.7189C8.07702 31.721 8.07702 31.7231 8.07702 31.7252L8.30207 32.5191L8.4771 33.1817L8.62713 33.7693C8.62709 33.7735 8.62709 33.7777 8.62713 33.7818L8.77716 34.3382C8.77909 34.3466 8.78117 34.3549 8.78341 34.3632L8.95219 34.8883C8.95215 34.8925 8.95215 34.8966 8.95219 34.9008L9.10847 35.3696L9.22724 35.776L9.31476 36.1323L9.38352 36.4948L9.44604 36.8887C9.45007 36.9204 9.45632 36.9516 9.46479 36.9824L9.57731 37.3513C9.58382 37.3789 9.59215 37.406 9.60231 37.4325L9.73359 37.7076L9.8086 37.9389C9.81058 37.9452 9.81266 37.9514 9.81486 37.9576L9.89612 38.1577L9.95238 38.3327C9.95441 38.3369 9.9565 38.3411 9.95863 38.3452L10.0086 38.489C10.0086 38.4911 10.0086 38.4931 10.0086 38.4952L10.0524 38.6015C10.0653 38.6387 10.082 38.6741 10.1024 38.7078L10.1337 38.7515C10.185 38.8326 10.2528 38.8961 10.3371 38.9421C10.4213 38.9881 10.5114 39.0108 10.6074 39.0102C10.7033 39.0095 10.7931 38.9857 10.8768 38.9386C10.9604 38.8915 11.0273 38.827 11.0776 38.7453L11.0901 38.7265C11.1342 38.6511 11.1592 38.5699 11.1651 38.4827L11.1714 38.4015C11.1749 38.3787 11.177 38.3557 11.1776 38.3327L11.1714 38.1952C11.1694 38.1889 11.1673 38.1826 11.1651 38.1764L11.1589 38.0264C11.1559 38.0053 11.1517 37.9845 11.1464 37.9639L11.1214 37.8388C11.1184 37.8178 11.1142 37.7969 11.1089 37.7763L11.0776 37.6826C11.0598 37.6309 11.0348 37.5829 11.0026 37.5388L10.9838 37.5138L10.9713 37.4825L10.9276 37.37L10.8651 37.0887L10.7588 36.5636C10.7571 36.551 10.755 36.5385 10.7525 36.5261L10.5525 35.7635C10.5486 35.7529 10.5444 35.7425 10.54 35.7322L10.2337 34.757L9.87737 33.6005L9.50855 32.3503L9.11472 31.0563L8.7334 29.7436L8.37083 28.4621L8.03952 27.2306L7.72696 26.0616C7.72697 26.0595 7.72697 26.0574 7.72696 26.0554L7.4269 24.9676L7.15185 23.955L6.9143 23.0173L6.70801 22.1484L6.52673 21.3295L6.37045 20.5856C6.3686 20.5751 6.36651 20.5647 6.3642 20.5543L6.19542 19.9042C6.19348 19.8958 6.19139 19.8875 6.18917 19.8792L6.02663 19.3228C6.02664 19.3207 6.02664 19.3187 6.02663 19.3166L5.88286 18.8415L5.77034 18.4664L5.70157 18.1726L5.66407 17.9288L5.63906 17.7163L5.63281 17.535L5.62656 17.3912V17.2912C5.62664 17.2849 5.62664 17.2787 5.62656 17.2724V17.2162C5.4225 16.8993 5.14049 16.7967 4.78051 16.9085C4.42054 17.0202 4.24622 17.2645 4.25755 17.6413L4.27005 17.66C4.25134 17.5727 4.218 17.4915 4.17003 17.4162L4.19504 17.5225L4.23254 17.685L4.27005 17.8538L4.29505 18.0288C4.29706 18.0351 4.29914 18.0414 4.30131 18.0476L4.34506 18.2851C4.34506 18.2872 4.34506 18.2893 4.34506 18.2914L4.40758 18.6102C4.40958 18.6165 4.41166 18.6227 4.41383 18.6289L4.5076 19.0665C4.50953 19.0749 4.51162 19.0832 4.51385 19.0915L4.65137 19.6291C4.65344 19.6312 4.65553 19.6333 4.65762 19.6354L4.82015 20.248L5.00144 20.9856L5.21398 22.0358L5.49528 23.3986C5.49733 23.4028 5.49941 23.407 5.50153 23.4111L5.83285 24.9364L6.17666 26.5117C6.17659 26.5179 6.17659 26.5242 6.17666 26.5304L6.54548 28.0245C6.54749 28.0308 6.54957 28.037 6.55173 28.0432L7.27062 30.7L7.57693 31.8565L7.84573 32.8754L8.05827 33.7506L8.2333 34.5007L8.37708 35.1133L8.49585 35.6322C8.49758 35.6468 8.49967 35.6614 8.50211 35.6759L8.62713 36.1135L8.72715 36.5011C8.72922 36.5032 8.73131 36.5053 8.7334 36.5073L8.83342 36.8574C8.83533 36.8679 8.83741 36.8783 8.83967 36.8887L8.93969 37.2075L9.03346 37.52L9.11472 37.8076L9.19599 38.1014C9.20346 38.1246 9.2118 38.1476 9.22099 38.1702L9.31476 38.4265C9.32056 38.4433 9.32681 38.46 9.33351 38.4765L9.42103 38.6765C9.43556 38.7129 9.45223 38.7484 9.47104 38.7828L9.55231 38.9266C9.59701 39.0028 9.65119 39.0715 9.71484 39.1328L9.77735 39.1954C9.89554 39.3118 10.0346 39.3921 10.1946 39.4362C10.3546 39.4803 10.5151 39.4826 10.6763 39.4431C10.8375 39.4036 10.9788 39.3273 11.1003 39.2142C11.2217 39.1012 11.3079 38.9657 11.3589 38.8078L11.3652 38.7828C11.4071 38.6548 11.4206 38.524 11.4058 38.3902C11.391 38.2564 11.3491 38.1316 11.2802 38.016C11.2113 37.9003 11.1215 37.8042 11.0109 37.7274C10.9003 37.6507 10.7787 37.6003 10.6463 37.5763H10.615C10.7665 37.8041 10.9769 37.9416 11.2464 37.9889L11.2089 37.9139C11.2069 37.9076 11.2048 37.9013 11.2026 37.8951L11.1276 37.7263L11.0588 37.5388L10.9901 37.2825C10.988 37.2783 10.9859 37.2741 10.9838 37.27L10.8963 36.9699C10.8943 36.9616 10.8923 36.9532 10.8901 36.9449L10.7838 36.6261C10.78 36.6114 10.7758 36.5968 10.7713 36.5824L10.6463 36.2573C10.6442 36.251 10.6422 36.2448 10.64 36.2385L10.4962 35.901C10.4962 35.8989 10.4962 35.8968 10.4962 35.8947L10.3587 35.5759L10.2587 35.2071L10.1399 34.7133C10.14 34.7049 10.14 34.6966 10.1399 34.6882L9.97739 34.0694C9.97537 34.0631 9.97329 34.0569 9.97114 34.0506L9.76485 33.3067C9.76485 33.3046 9.76485 33.3026 9.76485 33.3005L9.5148 32.4316L9.23349 31.4126C9.23353 31.4085 9.23353 31.4043 9.23349 31.4001L8.90218 30.2499C8.90219 30.2478 8.90219 30.2457 8.90218 30.2437L8.12078 27.5994L7.6957 26.1366L7.29563 24.5988L6.97056 23.0923L6.68926 21.7358C6.68927 21.7337 6.68927 21.7316 6.68926 21.7295L6.46422 20.6668C6.46228 20.6585 6.46019 20.6501 6.45797 20.6418L6.27043 19.8792C6.26843 19.8729 6.26635 19.8666 6.26418 19.8604L6.10165 19.2478L5.96412 18.729L5.87035 18.3101L5.80784 18.0101L5.77034 17.785L5.73908 17.5975C5.73549 17.5807 5.73132 17.564 5.72658 17.5475L5.68282 17.3537L5.64531 17.1912C5.64535 17.187 5.64535 17.1828 5.64531 17.1787L5.61406 17.0724C5.5927 16.9869 5.55728 16.9077 5.50779 16.8348L5.49528 16.8161C5.29143 16.5197 5.01697 16.4224 4.67192 16.5241C4.32687 16.6259 4.14915 16.8566 4.13878 17.2162V17.2724C4.1387 17.2787 4.1387 17.2849 4.13878 17.2912V17.4037C4.13856 17.4141 4.13856 17.4245 4.13878 17.435L4.14503 17.5975C4.14489 17.6058 4.14489 17.6142 4.14503 17.6225L4.16378 17.8288C4.1637 17.835 4.1637 17.8413 4.16378 17.8475L4.18878 18.1038C4.19015 18.1227 4.19224 18.1414 4.19504 18.1601L4.2513 18.4477C4.25306 18.4602 4.25514 18.4727 4.25755 18.4852L4.33881 18.829C4.3424 18.8458 4.34657 18.8625 4.35132 18.879L4.47009 19.2666L4.61387 19.7417L4.7764 20.2918L4.95768 20.9231L5.13897 21.6483L5.33275 22.4672L5.53904 23.3486C5.54108 23.3528 5.54317 23.3569 5.54529 23.3611L5.78909 24.3113C5.78905 24.3154 5.78905 24.3196 5.78909 24.3238L6.06414 25.3427C6.06621 25.3448 6.0683 25.3469 6.07039 25.349L6.38295 26.4367L6.71427 27.5994L7.05808 28.8246C7.05807 28.8267 7.05807 28.8288 7.05808 28.8309L7.43315 30.1186C7.43314 30.1207 7.43314 30.1228 7.43315 30.1249L7.82698 31.4439L8.22705 32.7379C8.22702 32.742 8.22702 32.7462 8.22705 32.7504L8.63338 33.9881C8.63337 33.9902 8.63337 33.9923 8.63338 33.9944L9.0147 35.1446L9.32726 36.1198C9.32725 36.1219 9.32725 36.1239 9.32726 36.126L9.57731 36.8762C9.57929 36.8824 9.58138 36.8887 9.58356 36.8949L9.77735 37.4075L9.89612 37.7201C9.89611 37.7222 9.89611 37.7242 9.89612 37.7263L9.96488 37.9014C9.9705 37.9162 9.97675 37.9308 9.98364 37.9451L10.0274 38.0326C10.0403 38.0567 10.0548 38.0796 10.0712 38.1014L10.1149 38.1639C10.0985 38.1148 10.0756 38.069 10.0461 38.0264L10.0649 38.0889L10.0774 38.1452L10.0837 38.2327V38.2827L10.0774 38.3139C10.1199 38.2531 10.1491 38.1864 10.1649 38.1139L10.1524 38.1327C10.2014 38.2117 10.2661 38.2745 10.3465 38.3212C10.427 38.3678 10.5137 38.3926 10.6066 38.3958C10.6996 38.3989 10.7878 38.38 10.8712 38.3389C10.9546 38.2978 11.0234 38.2395 11.0776 38.1639L11.0463 38.1139C11.0584 38.1554 11.0751 38.195 11.0963 38.2327L11.0651 38.1264L11.0151 37.9826L10.9526 37.7951C10.9507 37.7867 10.9486 37.7784 10.9463 37.7701L10.8713 37.5825L10.8213 37.4075L10.8088 37.1387C10.8067 37.1366 10.8046 37.1345 10.8025 37.1325L10.7838 36.7449C10.7804 36.726 10.7763 36.7072 10.7713 36.6886L10.7088 36.2823C10.7088 36.2781 10.7088 36.274 10.7088 36.2698L10.64 35.876C10.6387 35.8571 10.6366 35.8384 10.6338 35.8197L10.5337 35.4259C10.5317 35.4196 10.5297 35.4134 10.5275 35.4071L10.4025 34.9821C10.4025 34.98 10.4025 34.9779 10.4025 34.9758L10.2649 34.5132L10.1462 33.9944C10.1441 33.9902 10.142 33.986 10.1399 33.9819L10.0086 33.4255C10.0066 33.4234 10.0045 33.4213 10.0024 33.4193L9.85236 32.8254L9.68358 32.1565C9.68158 32.1502 9.6795 32.144 9.67733 32.1378L9.45229 31.3376L9.18974 30.3812L8.88343 29.2497C8.88343 29.2476 8.88343 29.2455 8.88343 29.2435L8.53961 27.9807L8.17079 26.6242L7.81447 25.2052L7.47691 23.7424C7.47695 23.7382 7.47695 23.7341 7.47691 23.7299L6.77053 20.9481L6.47672 19.7041L6.21417 18.6227C6.21418 18.6206 6.21418 18.6185 6.21417 18.6164L5.99538 17.7475C5.99539 17.7454 5.99539 17.7434 5.99538 17.7413L5.83285 17.1224C5.83081 17.1182 5.82873 17.114 5.8266 17.1099L5.72033 16.7286C5.71835 16.7223 5.71626 16.716 5.71407 16.7098L5.64531 16.5098C5.6324 16.4726 5.61573 16.4372 5.5953 16.4035L5.56405 16.341C5.49548 16.2264 5.39747 16.1492 5.26999 16.1094C5.14252 16.0696 5.01799 16.0773 4.89638 16.1325C4.77478 16.1877 4.68701 16.2763 4.63307 16.3985C4.57913 16.5207 4.57273 16.6453 4.61387 16.7723L4.68888 16.9974L4.73889 17.2724L4.73264 17.4225C4.73248 17.4287 4.73248 17.435 4.73264 17.4412L4.73889 17.585V17.6788C4.73806 17.7061 4.74014 17.7332 4.74514 17.76L4.75764 17.7975C4.76622 17.8374 4.7808 17.8749 4.8014 17.9101L4.80765 17.9226C4.84067 17.9793 4.88564 18.0241 4.94257 18.0568C4.99949 18.0896 5.06079 18.1059 5.12646 18.1059C5.19213 18.1059 5.25343 18.0896 5.31036 18.0568C5.36728 18.0241 5.41225 17.9793 5.44527 17.9226ZM9.67108 38.389C9.67108 38.6099 9.7492 38.7985 9.90544 38.9547C10.0617 39.111 10.2503 39.1891 10.4712 39.1891C10.6922 39.1891 10.8808 39.111 11.037 38.9547C11.1933 38.7985 11.2714 38.6099 11.2714 38.389C11.2714 38.168 11.1933 37.9794 11.037 37.8232C10.8808 37.6669 10.6922 37.5888 10.4712 37.5888C10.2503 37.5888 10.0617 37.6669 9.90544 37.8232C9.7492 37.9794 9.67108 38.168 9.67108 38.389ZM10.6963 38.1014L10.6275 37.9451C10.5442 37.7576 10.4087 37.7055 10.2212 37.7888C10.0336 37.8722 9.98155 38.0076 10.0649 38.1952L10.1337 38.3514C10.217 38.539 10.3525 38.5911 10.54 38.5077C10.7275 38.4244 10.7796 38.2889 10.6963 38.1014Z" fill="black"/>
</g>
<defs>
<clipPath id="clip0_1_7204">
<rect width="36" height="40" fill="white"/>
</clipPath>
</defs>
</svg>
