<svg width="27" height="43" viewBox="0 0 27 43" fill="none" xmlns="http://www.w3.org/2000/svg">
<g clip-path="url(#clip0_1_7347)">
<path d="M13.0767 20.7979L13.0954 20.7917C13.1568 20.7519 13.2047 20.6998 13.2392 20.6354L13.2642 20.5916C13.2993 20.5273 13.3181 20.4586 13.3205 20.3853V20.3103L13.3267 20.2103C13.3012 20.2659 13.2866 20.3242 13.283 20.3853L13.3205 20.3041C13.1872 20.23 13.0481 20.2165 12.9031 20.2636C12.758 20.3107 12.6534 20.4033 12.5891 20.5416H12.5953C12.6578 20.2774 12.5703 20.0794 12.3328 19.9478L12.3078 20.054L12.1765 20.4604C12.1692 20.4809 12.163 20.5017 12.1578 20.5229L11.939 21.4855C11.9389 21.4897 11.9389 21.4939 11.939 21.4981L11.5952 23.1484L11.1263 25.4676C11.1263 25.4717 11.1263 25.4759 11.1263 25.4801L10.62 28.2681C10.6178 28.2743 10.6157 28.2806 10.6137 28.2868L10.1574 31.2312C10.1551 31.2394 10.1531 31.2478 10.1511 31.2562L9.81982 34.0129L9.48226 36.3634L9.22596 38.1825C9.22591 38.1866 9.22591 38.1908 9.22596 38.195L9.06968 39.489C9.0673 39.4993 9.06522 39.5098 9.06343 39.5202L9.01342 40.3204C9.01066 40.3669 9.01483 40.4127 9.02592 40.4579L9.10719 40.7892C9.14579 40.7247 9.15621 40.656 9.13844 40.5829L9.08218 40.6767C8.98633 40.8351 9.01758 40.9622 9.17595 41.058C9.33431 41.1539 9.46142 41.1226 9.55727 40.9643L9.60103 40.8955L9.81357 40.6705C9.85994 40.6196 9.89328 40.5612 9.91359 40.4954L10.1636 39.7328C10.1692 39.7101 10.1734 39.6872 10.1761 39.664L10.4199 38.3825C10.4222 38.3742 10.4243 38.3659 10.4262 38.3575L10.695 36.5384L11.0388 34.1942L11.5326 31.4624C11.5327 31.4604 11.5327 31.4583 11.5326 31.4562L12.0327 28.5244L12.5391 25.7426L12.9954 23.4297L13.3205 21.7731C13.3229 21.7607 13.325 21.7482 13.3267 21.7356L13.458 20.7542C13.4628 20.7083 13.4628 20.6625 13.458 20.6166L13.4268 20.1665C13.4249 20.1371 13.4207 20.1079 13.4143 20.079L13.383 19.9478C13.3184 19.8286 13.2225 19.7457 13.0953 19.6991C12.968 19.6525 12.8413 19.6538 12.715 19.7031C12.5888 19.7523 12.4946 19.8371 12.4325 19.9576C12.3704 20.078 12.3559 20.2039 12.3891 20.3353V20.3416C12.378 20.3067 12.3634 20.2734 12.3453 20.2416L12.3641 20.2978L12.3766 20.3728C12.3816 20.392 12.3879 20.4107 12.3953 20.4291L12.4203 20.5166C12.4404 20.5773 12.4716 20.6314 12.5141 20.6791L12.5453 20.7104C12.5707 20.7416 12.5998 20.7687 12.6329 20.7917L12.6516 20.7979C12.7933 20.8868 12.935 20.8868 13.0767 20.7979Z" fill="black"/>
<path d="M13.3268 19.9853L13.3893 19.929C13.4097 19.9118 13.4284 19.8931 13.4456 19.8727L13.5331 19.7665C13.3912 19.782 13.2745 19.8445 13.183 19.954L13.2455 19.9478C13.3934 19.7356 13.402 19.5179 13.2713 19.2947C13.1406 19.0715 12.9466 18.9725 12.6892 18.9976L12.6329 19.0788C12.5886 19.14 12.5552 19.2067 12.5329 19.2789L12.3954 19.7415C12.3905 19.7601 12.3863 19.7788 12.3829 19.7977L12.2078 20.6104L11.964 21.7418C11.964 21.7439 11.964 21.746 11.964 21.7481L11.664 23.2046C11.6618 23.2109 11.6597 23.2171 11.6577 23.2234L11.3264 25.03C11.3264 25.0341 11.3264 25.0383 11.3264 25.0425L10.9576 27.1804C10.9576 27.1825 10.9576 27.1846 10.9576 27.1866L10.57 29.4996L10.195 31.7813L9.84489 33.8629L9.53858 35.6445C9.53855 35.6487 9.53855 35.6528 9.53858 35.657L9.30729 37.1073C9.30483 37.1218 9.30274 37.1364 9.30103 37.151L9.18226 38.2512C9.18225 38.2533 9.18225 38.2554 9.18226 38.2575L9.10725 38.9826L9.03848 39.3515L8.98222 39.5265C9.05684 39.4445 9.11102 39.3508 9.14475 39.2452L9.07599 39.3202C9.41864 39.4919 9.72078 39.4378 9.98241 39.1577L9.9324 39.1327C10.0073 39.2575 10.1094 39.3534 10.2387 39.4202L10.2012 39.3515C10.2202 39.4245 10.2493 39.4933 10.2887 39.5577L10.2762 39.5077C10.2064 39.2425 10.0417 39.0654 9.78238 38.9764H9.77612C9.57226 38.9066 9.37409 38.9202 9.18161 39.017C8.98914 39.1139 8.86016 39.2649 8.79469 39.4702L8.77593 39.5202C8.7651 39.5551 8.75676 39.5905 8.75093 39.6265L8.73843 39.7015L8.71342 39.814C8.71049 39.8348 8.70841 39.8556 8.70717 39.8766L8.68842 40.0453C8.68834 40.0516 8.68834 40.0578 8.68842 40.0641L8.66966 40.2579C8.66674 40.2786 8.66466 40.2995 8.66341 40.3204V40.5392C8.66274 40.5579 8.66274 40.5767 8.66341 40.5954L8.67592 40.7955C8.68319 40.8891 8.70611 40.9787 8.74468 41.0643L8.81344 41.2331C8.86493 41.3507 8.93994 41.4507 9.03848 41.5331L9.18226 41.6519C9.26369 41.722 9.35537 41.7741 9.45731 41.8082L9.69486 41.8832C9.72767 41.8936 9.76101 41.902 9.79488 41.9082L10.1137 41.9644C10.1468 41.9707 10.1801 41.9748 10.2137 41.977L10.62 42.0082C10.7161 42.013 10.8099 42.0005 10.9013 41.9707L11.3139 41.8457C11.3986 41.8184 11.4736 41.7747 11.539 41.7144L11.764 41.5144L12.1266 41.4769C12.3058 41.4602 12.387 41.3623 12.3704 41.1831C12.3537 41.0038 12.2558 40.9226 12.0766 40.9393L11.7327 40.9705L11.514 40.7955C11.4793 40.7663 11.4417 40.7413 11.4014 40.7205L11.0201 40.5267C10.968 40.5019 10.9138 40.4832 10.8576 40.4704L10.4575 40.3704C10.4471 40.3681 10.4367 40.366 10.4262 40.3641L10.1512 40.3079L10.1012 40.2954L10.195 40.3704L10.2387 40.4392L10.2325 40.4204L10.2262 40.3204L10.2325 40.1891L10.245 40.0828L10.2575 39.9953C10.2625 39.9747 10.2667 39.9538 10.27 39.9328L10.2762 39.8703L10.2825 39.839C9.99927 39.9363 9.83049 40.1322 9.77612 40.4267H9.78238C9.69587 40.2547 9.56346 40.1324 9.38514 40.0599C9.20682 39.9874 9.02667 39.9825 8.8447 40.0453L8.86345 40.0891L8.89471 40.1516C8.9706 40.3105 9.08729 40.4292 9.24477 40.5079L9.29478 40.5329C9.64326 40.7053 9.94749 40.647 10.2075 40.3579L10.2762 40.2829C10.3607 40.1909 10.419 40.0847 10.4513 39.9641L10.5075 39.7265C10.5124 39.7079 10.5166 39.6892 10.52 39.6703L10.6013 39.2264L10.7451 38.5013L10.9826 37.4323C10.9849 37.422 10.987 37.4115 10.9889 37.4011L11.2577 35.9508C11.2598 35.9487 11.2618 35.9466 11.2639 35.9446L11.5702 34.1567C11.5702 34.1546 11.5702 34.1525 11.5702 34.1505L11.9203 32.0688L12.2954 29.7871L12.6829 27.4742L13.0392 25.3363L13.3581 23.5297C13.3581 23.5276 13.3581 23.5255 13.3581 23.5234L13.6081 22.0544C13.6081 22.0523 13.6081 22.0502 13.6081 22.0482L13.7894 20.9042C13.7916 20.8959 13.7937 20.8876 13.7956 20.8792L13.8957 20.054C13.9008 20.0146 13.9029 19.975 13.9019 19.9353L13.8832 19.4539C13.8771 19.27 13.8083 19.1138 13.6769 18.9851L13.6019 18.9101C13.3815 18.7074 13.1423 18.6818 12.8842 18.8335C12.626 18.9852 12.5319 19.2065 12.6017 19.4977L12.6079 19.5289L12.6204 19.6352C12.622 19.6478 12.6241 19.6603 12.6267 19.6727L12.6454 19.754C12.6608 19.8261 12.693 19.8898 12.7421 19.9449C12.7911 20 12.8505 20.0395 12.9204 20.0632C12.9903 20.0869 13.0614 20.0918 13.1339 20.0779C13.2064 20.064 13.2707 20.0331 13.3268 19.9853Z" fill="black"/>
<path d="M12.908 19.704C12.908 19.8162 12.9476 19.9119 13.027 19.9913C13.1063 20.0706 13.2021 20.1103 13.3143 20.1103C13.4265 20.1103 13.5223 20.0706 13.6016 19.9913C13.6809 19.9119 13.7206 19.8162 13.7206 19.704C13.7206 19.5918 13.6809 19.496 13.6016 19.4167C13.5223 19.3373 13.4265 19.2976 13.3143 19.2976C13.2021 19.2976 13.1063 19.3373 13.027 19.4167C12.9476 19.496 12.908 19.5918 12.908 19.704ZM12.8892 19.6977C12.8892 19.8134 12.9301 19.9121 13.0119 19.9939C13.0937 20.0757 13.1924 20.1165 13.308 20.1165C13.4237 20.1165 13.5224 20.0757 13.6042 19.9939C13.686 19.9121 13.7269 19.8134 13.7269 19.6977C13.7269 19.5821 13.686 19.4833 13.6042 19.4016C13.5224 19.3198 13.4237 19.2789 13.308 19.2789C13.1924 19.2789 13.0937 19.3198 13.0119 19.4016C12.9301 19.4833 12.8892 19.5821 12.8892 19.6977ZM13.7331 19.754L13.7394 19.7102C13.7064 19.7642 13.6855 19.8226 13.6768 19.8853L13.7081 19.8352C13.6107 19.8727 13.5336 19.9352 13.4768 20.0228L13.5393 19.9978C13.5967 19.9754 13.6488 19.9441 13.6956 19.904L13.7706 19.8415C13.6916 19.8635 13.6207 19.901 13.5581 19.954L13.6268 19.9353C13.4714 19.7576 13.2797 19.6993 13.0517 19.7602L13.1205 19.8415C13.1256 19.6891 13.0777 19.5557 12.9767 19.4414L12.9642 19.754C12.964 19.7644 12.964 19.7748 12.9642 19.7852L12.958 20.5416C12.9579 20.5479 12.9579 20.5541 12.958 20.5604L12.9892 21.8919C12.9892 21.894 12.9892 21.8961 12.9892 21.8981L13.058 23.8048C13.0579 23.8131 13.0579 23.8214 13.058 23.8298L13.2018 26.199L13.3205 28.7494L13.4018 31.2312L13.4768 33.4503C13.4768 33.4524 13.4768 33.4545 13.4768 33.4566L13.5456 35.2757L13.5831 36.6697L13.6081 37.6449L13.6268 38.27L13.6081 38.6826L13.5831 38.9701L13.5456 39.1827L13.5081 39.3577L13.4768 39.4952C13.4747 39.4973 13.4726 39.4994 13.4706 39.5015L13.4456 39.6203C13.4369 39.6553 13.4306 39.6907 13.4268 39.7265L13.4143 39.8516C13.4117 39.8682 13.4096 39.8848 13.408 39.9016L13.4018 40.0516C13.4017 40.0599 13.4017 40.0683 13.4018 40.0766V40.2329C13.4014 40.2475 13.4014 40.2621 13.4018 40.2766L13.408 40.4267L13.4143 40.5517C13.4314 40.4776 13.4377 40.4026 13.4331 40.3266L13.4143 40.4142C13.473 40.3325 13.5147 40.2429 13.5393 40.1454L13.4956 40.2079C13.6587 40.1527 13.79 40.0547 13.8894 39.9141L13.7831 39.9516C13.7619 39.959 13.7411 39.9674 13.7206 39.9766L13.5643 40.0391L13.3768 40.1079L13.1642 40.1704L12.8829 40.2141L12.5079 40.2516L12.114 40.2766L11.7702 40.2641L11.4639 40.2204C11.4224 40.2152 11.3807 40.2132 11.3389 40.2141L11.1076 40.2204C10.7714 40.2235 10.5401 40.3808 10.4137 40.6923C10.2873 41.0039 10.3435 41.2779 10.5825 41.5144L10.745 41.6769C10.863 41.7923 11.0026 41.8673 11.1639 41.9019L11.5077 41.9832C11.5633 41.995 11.6196 42.0012 11.6765 42.002L12.1015 42.0145C12.1349 42.0164 12.1682 42.0164 12.2016 42.0145L12.6517 41.977C12.6726 41.9736 12.6935 41.9694 12.7142 41.9645L13.133 41.9019C13.1647 41.8954 13.196 41.8871 13.2268 41.8769L13.5643 41.7832C13.5897 41.776 13.6147 41.7677 13.6393 41.7582L13.9206 41.6519C13.9397 41.6443 13.9585 41.6359 13.9769 41.6269L14.2082 41.5206L14.3707 41.4456C14.3791 41.4416 14.3875 41.4374 14.3957 41.4331L14.4958 41.3831C14.6193 41.3197 14.7193 41.2301 14.7958 41.1143L14.8396 41.0518C14.9022 40.9605 14.9438 40.8605 14.9646 40.7517L14.9771 40.658C14.9883 40.598 14.9924 40.5376 14.9896 40.4767L14.9833 40.3579L14.9771 40.2204V40.0954L14.9833 39.9828V39.9516L15.0021 39.9016C15.0022 39.8953 15.0022 39.8891 15.0021 39.8828L15.0396 39.7328C15.0441 39.7204 15.0483 39.7079 15.0521 39.6953L15.0896 39.489C15.0918 39.4807 15.0939 39.4724 15.0959 39.464L15.1396 39.2014C15.1424 39.1828 15.1445 39.164 15.1459 39.1452L15.1834 38.8076C15.1837 38.7951 15.1837 38.7826 15.1834 38.7701L15.2021 38.3138C15.2027 38.2971 15.2027 38.2804 15.2021 38.2638L15.1959 37.6136C15.1959 37.6115 15.1959 37.6095 15.1959 37.6074L15.1709 36.6259C15.1709 36.6239 15.1709 36.6218 15.1709 36.6197L15.1209 35.2257C15.1209 35.2236 15.1209 35.2215 15.1209 35.2194L15.0521 33.3941C15.0521 33.392 15.0521 33.3899 15.0521 33.3878L14.9521 31.1687C14.9521 31.1666 14.9521 31.1645 14.9521 31.1624L14.8208 28.6869L14.727 26.1364L14.6958 23.7672C14.6959 23.761 14.6959 23.7547 14.6958 23.7485L14.627 21.8419C14.6253 21.8272 14.6233 21.8126 14.6208 21.7981L14.502 20.4729C14.4985 20.4349 14.4923 20.3974 14.4833 20.3603L14.3082 19.629C14.2882 19.5429 14.2528 19.4637 14.2019 19.3914L14.0207 19.1351C13.9934 19.098 13.9622 19.0647 13.9269 19.0351L13.8456 18.9663C13.6622 18.808 13.46 18.7788 13.2393 18.8788L13.1768 18.9038C13.0665 18.9534 12.981 19.0305 12.9205 19.1351L12.8767 19.2226C12.8076 19.3418 12.7867 19.4689 12.8142 19.604L12.8267 19.6727L12.8392 19.7352C12.8478 19.77 12.8603 19.8034 12.8767 19.8352L12.8954 19.8728C12.9893 20.0678 13.1434 20.1502 13.3577 20.1198C13.5721 20.0894 13.6972 19.9675 13.7331 19.754ZM10.5513 40.8768C10.5513 41.0079 10.5976 41.1199 10.6904 41.2127C10.7832 41.3055 10.8951 41.3518 11.0263 41.3518C11.1575 41.3518 11.2695 41.3055 11.3623 41.2127C11.455 41.1199 11.5014 41.0079 11.5014 40.8768C11.5014 40.7456 11.455 40.6336 11.3623 40.5408C11.2695 40.448 11.1575 40.4017 11.0263 40.4017C10.8951 40.4017 10.7832 40.448 10.6904 40.5408C10.5976 40.6336 10.5513 40.7456 10.5513 40.8768ZM11.2514 40.9768L11.3014 40.9143C11.3791 40.7708 11.3545 40.6479 11.2274 40.5455C11.1003 40.4431 10.9749 40.4452 10.8513 40.5517L10.8013 40.6142C10.7236 40.7577 10.7482 40.8806 10.8753 40.983C11.0024 41.0854 11.1278 41.0833 11.2514 40.9768Z" fill="black"/>
<path d="M9.55109 33.4815C9.55114 33.5885 9.58901 33.6798 9.66468 33.7555C9.74035 33.8311 9.83168 33.8689 9.93867 33.8689C10.0457 33.8689 10.137 33.8311 10.2127 33.7555C10.2883 33.6798 10.3262 33.5885 10.3262 33.4815C10.3262 33.3745 10.2883 33.2832 10.2127 33.2076C10.137 33.132 10.0457 33.0941 9.93867 33.0941C9.83168 33.0941 9.74035 33.132 9.66468 33.2076C9.58901 33.2832 9.55115 33.3745 9.55109 33.4815ZM9.49483 33.4878C9.49489 33.6051 9.53642 33.7053 9.61941 33.7882C9.7024 33.8712 9.80257 33.9127 9.91991 33.9127C10.0373 33.9127 10.1374 33.8712 10.2204 33.7882C10.3034 33.7053 10.3449 33.6051 10.345 33.4878C10.3449 33.3704 10.3034 33.2703 10.2204 33.1873C10.1374 33.1044 10.0373 33.0629 9.91991 33.0629C9.80257 33.0629 9.7024 33.1044 9.61941 33.1873C9.53642 33.2703 9.49489 33.3704 9.49483 33.4878ZM9.30105 33.4815C9.30105 33.6386 9.35658 33.7727 9.46766 33.8838C9.57874 33.9948 9.71282 34.0504 9.8699 34.0504C10.027 34.0504 10.1611 33.9948 10.2721 33.8838C10.3832 33.7727 10.4388 33.6386 10.4388 33.4815C10.4388 33.3244 10.3832 33.1904 10.2721 33.0793C10.1611 32.9682 10.027 32.9127 9.8699 32.9127C9.71282 32.9127 9.57874 32.9682 9.46766 33.0793C9.35658 33.1904 9.30105 33.3244 9.30105 33.4815ZM10.0762 32.8314L9.91991 32.7564C9.86043 32.7252 9.79792 32.7023 9.73238 32.6876L9.44482 32.6314C9.42615 32.6286 9.40739 32.6265 9.38856 32.6251L8.95723 32.5689L8.31961 32.4751L7.4632 32.2938L6.4505 32.0312L5.3878 31.6687L4.36886 31.1436L3.47494 30.481L2.78105 29.7308L2.32472 28.9557L2.09342 28.2305L2.06842 27.5867L2.2247 27.0928L2.56226 26.7115L3.13737 26.3489L3.62497 26.0426L4.21258 26.1614C4.39321 26.1831 4.50099 26.1046 4.53593 25.9261C4.57086 25.7475 4.50058 25.6343 4.3251 25.5863L3.67498 25.4612L3.12487 25.1299C2.96736 25.0355 2.79858 25.0064 2.61852 25.0424L1.82462 25.1987C1.63966 25.235 1.48338 25.3225 1.35578 25.4612L0.805679 26.0676C0.720983 26.1585 0.658471 26.2627 0.618143 26.3802L0.355593 27.1928C0.321908 27.2943 0.307322 27.3985 0.311835 27.5054L0.349342 28.4181C0.355141 28.5063 0.373895 28.5918 0.405603 28.6744L0.730665 29.5933C0.754668 29.6575 0.785924 29.7179 0.824432 29.7746L1.4183 30.6872C1.44452 30.7251 1.4737 30.7605 1.50581 30.7935L2.31222 31.6624C2.34837 31.7017 2.38796 31.7371 2.43099 31.7687L3.44368 32.5063C3.47913 32.5344 3.51664 32.5594 3.5562 32.5814L4.69392 33.1565C4.73035 33.1738 4.76785 33.1884 4.80644 33.2002L5.96291 33.5815C5.98144 33.5885 6.00019 33.5947 6.01917 33.6003L7.08812 33.8691C7.10058 33.8715 7.11308 33.8736 7.12563 33.8754L8.01955 34.0504C8.03823 34.0531 8.05699 34.0552 8.07581 34.0566L8.75094 34.1442C8.76547 34.1466 8.78006 34.1487 8.7947 34.1504L9.23853 34.1817C9.24062 34.1817 9.2427 34.1817 9.24479 34.1817L9.53234 34.2004C9.59747 34.2045 9.66207 34.2003 9.72613 34.1879L9.89491 34.1567C10.226 34.0924 10.4144 33.8931 10.4602 33.559C10.5059 33.2248 10.3779 32.9822 10.0762 32.8314Z" fill="black"/>
<path d="M4.17511 25.455C4.17511 25.5655 4.21417 25.6598 4.29229 25.7379C4.37041 25.8161 4.46471 25.8551 4.57518 25.8551C4.68566 25.8551 4.77996 25.8161 4.85808 25.7379C4.9362 25.6598 4.97526 25.5655 4.97526 25.455C4.97526 25.3446 4.9362 25.2503 4.85808 25.1721C4.77996 25.094 4.68566 25.055 4.57518 25.055C4.46471 25.055 4.37041 25.094 4.29229 25.1721C4.21417 25.2503 4.17511 25.3446 4.17511 25.455ZM4.13135 25.455C4.13135 25.5741 4.17346 25.6758 4.25768 25.76C4.34191 25.8443 4.44357 25.8864 4.56268 25.8864C4.68179 25.8864 4.78346 25.8443 4.86768 25.76C4.9519 25.6758 4.99401 25.5741 4.99401 25.455C4.99401 25.3359 4.9519 25.2343 4.86768 25.15C4.78346 25.0658 4.68179 25.0237 4.56268 25.0237C4.44357 25.0237 4.34191 25.0658 4.25768 25.15C4.17346 25.2343 4.13135 25.3359 4.13135 25.455ZM4.919 25.1862L4.89399 25.1487L4.83773 25.03C4.82455 25.0061 4.80996 24.9832 4.79397 24.9612L4.60644 24.6736C4.58581 24.6407 4.56289 24.6094 4.53768 24.5799L4.17511 24.1673C4.17303 24.1652 4.17095 24.1631 4.16886 24.161L3.70627 23.6609L3.24368 23.0921L2.8436 22.4107L2.5873 21.5856L2.54355 20.6541L2.76859 19.6414L3.33745 18.5412L4.18136 17.4285C4.18561 17.4223 4.18978 17.4161 4.19386 17.4098L4.87524 16.4658L5.83792 16.1158C6.02638 16.0415 6.08616 15.9091 6.01726 15.7187C5.94836 15.5282 5.81774 15.4647 5.62538 15.5282L4.60019 15.9095L3.38746 16.097C3.22628 16.1223 3.08459 16.189 2.96238 16.297L1.85591 17.2847C1.7663 17.3631 1.69337 17.4548 1.63712 17.5598L0.968246 18.8475C0.924432 18.9306 0.893176 19.0181 0.874478 19.1101L0.618179 20.3853C0.598976 20.4826 0.594808 20.5806 0.605677 20.6791L0.736952 21.8544C0.746291 21.9317 0.765044 22.0067 0.793213 22.0794L1.18079 23.0921C1.20143 23.1423 1.22643 23.1902 1.2558 23.2359L1.7559 24.061C1.78004 24.1007 1.80713 24.1382 1.83716 24.1735L2.37476 24.8049C2.39642 24.8291 2.41934 24.852 2.44353 24.8737L2.94987 25.355C2.97754 25.3799 3.00671 25.4028 3.03739 25.4238L3.47497 25.7488C3.54938 25.8025 3.63064 25.8421 3.71877 25.8676L4.05008 25.9614C4.14001 25.9891 4.23169 25.9974 4.32513 25.9864L4.48767 25.9614C4.53514 25.9549 4.58098 25.9424 4.62519 25.9239L4.70021 25.8926C4.83894 25.8349 4.93054 25.7342 4.97501 25.5907C5.01947 25.4471 5.0008 25.3123 4.919 25.1862Z" fill="black"/>
<path d="M6.11289 16.3283C6.18476 16.2003 6.18915 16.07 6.12605 15.9375C6.06295 15.8049 5.95906 15.7262 5.81438 15.7013C5.66971 15.6763 5.54547 15.7158 5.44166 15.8196C5.33786 15.9234 5.29841 16.0476 5.32333 16.1923C5.34824 16.337 5.42697 16.4409 5.55952 16.504C5.69207 16.5671 5.82235 16.5627 5.95036 16.4908C6.02025 16.4524 6.07443 16.3982 6.11289 16.3283ZM5.16896 16.097C5.16896 16.242 5.22023 16.3658 5.32276 16.4683C5.42529 16.5708 5.54906 16.6221 5.69406 16.6221C5.83906 16.6221 5.96283 16.5708 6.06536 16.4683C6.16789 16.3658 6.21916 16.242 6.21916 16.097C6.21916 15.952 6.16789 15.8282 6.06536 15.7257C5.96283 15.6232 5.83906 15.5719 5.69406 15.5719C5.54906 15.5719 5.42529 15.6232 5.32276 15.7257C5.22023 15.8282 5.16896 15.952 5.16896 16.097ZM6.22541 15.8282L6.1629 15.6032C6.15474 15.5691 6.14432 15.5358 6.13164 15.5031L5.98786 15.1781L5.83784 14.7405L5.73157 14.1966L5.74407 13.4465L5.96911 12.4213L6.46921 11.1961L7.2006 10.0021L8.10702 9.02065L9.18222 8.28926C9.20594 8.27368 9.22886 8.25701 9.25099 8.23925L10.0136 7.60788L10.9263 7.62038C11.1345 7.62437 11.2407 7.52227 11.2449 7.31407C11.249 7.10587 11.147 6.99961 10.9388 6.99527L9.94487 6.97651L8.91342 6.68896C8.6803 6.62336 8.45734 6.64836 8.24454 6.76397L7.01306 7.44535C6.92121 7.49663 6.83994 7.56122 6.76926 7.63914L5.72531 8.7706C5.67488 8.82394 5.63112 8.88229 5.59404 8.94564L4.81889 10.3084C4.79188 10.3544 4.76896 10.4023 4.75013 10.4522L4.25003 11.8337C4.23146 11.8804 4.21688 11.9283 4.20628 11.9775L3.98123 13.1777C3.97085 13.2377 3.96668 13.2981 3.96873 13.359L3.98748 14.2842C3.98692 14.3473 3.99317 14.4099 4.00624 14.4717L4.17502 15.1656C4.18831 15.2216 4.20706 15.2758 4.23128 15.3281L4.46257 15.8282C4.49076 15.8909 4.52618 15.9493 4.56884 16.0032L4.81889 16.3095C4.89795 16.4031 4.9938 16.474 5.10645 16.5221L5.31899 16.6158C5.57599 16.7302 5.81064 16.6951 6.02297 16.5106C6.23529 16.3261 6.30277 16.0986 6.22541 15.8282Z" fill="black"/>
<path d="M9.32606 7.35788C9.32606 7.45455 9.36023 7.53706 9.42859 7.60541C9.49694 7.67377 9.57946 7.70794 9.67612 7.70794C9.77279 7.70794 9.8553 7.67377 9.92366 7.60541C9.99201 7.53706 10.0262 7.45455 10.0262 7.35788C10.0262 7.26121 9.99201 7.1787 9.92366 7.11034C9.8553 7.04199 9.77279 7.00781 9.67612 7.00781C9.57946 7.00781 9.49694 7.04199 9.42859 7.11034C9.36023 7.1787 9.32606 7.26121 9.32606 7.35788ZM9.25104 7.35788C9.25104 7.47353 9.29193 7.57225 9.37372 7.65404C9.4555 7.73582 9.55422 7.77671 9.66987 7.77671C9.78553 7.77671 9.88425 7.73582 9.96603 7.65404C10.0478 7.57225 10.0887 7.47353 10.0887 7.35788C10.0887 7.24222 10.0478 7.1435 9.96603 7.06172C9.88425 6.97994 9.78553 6.93905 9.66987 6.93905C9.55422 6.93905 9.4555 6.97994 9.37372 7.06172C9.29193 7.1435 9.25104 7.24222 9.25104 7.35788ZM10.12 7.38288L10.1262 7.28911C10.134 7.23494 10.134 7.18076 10.1262 7.12658L10.0887 6.91404L10.0387 6.60773L9.99493 6.21391V5.74507L10.0887 5.17621L10.37 4.48858L10.9076 3.75094L11.7515 3.09457L12.8767 2.61948L13.9832 2.22565L15.0772 2.4757C15.2689 2.51737 15.3855 2.44236 15.4272 2.25065C15.4689 2.05895 15.3939 1.94226 15.2022 1.90059L14.0582 1.63804L12.9017 1.13794C12.7331 1.06599 12.5601 1.05349 12.3829 1.10044L11.0639 1.438C10.9416 1.47095 10.8311 1.52721 10.7326 1.60678L9.70113 2.41319C9.63692 2.46386 9.58065 2.52221 9.53235 2.58822L8.85722 3.5134C8.81066 3.57722 8.77315 3.64599 8.7447 3.71969L8.40088 4.60735C8.37593 4.67411 8.35926 4.74287 8.35087 4.81364L8.2571 5.55753C8.24516 5.64746 8.24724 5.73706 8.26336 5.82634L8.36963 6.41395C8.38423 6.49045 8.40923 6.56338 8.44464 6.63274L8.64468 7.03282C8.66716 7.07942 8.69425 7.12318 8.72594 7.16409L8.93848 7.42664C8.96487 7.4586 8.99404 7.48777 9.026 7.51416L9.19478 7.65793C9.26385 7.71883 9.34303 7.76051 9.43233 7.78296L9.5261 7.80171C9.66815 7.83666 9.79895 7.81197 9.91849 7.72766C10.038 7.64335 10.1052 7.52842 10.12 7.38288Z" fill="black"/>
<path d="M15.7023 32.9003C15.7023 33.0107 15.7413 33.105 15.8194 33.1832C15.8976 33.2613 15.9919 33.3003 16.1023 33.3003C16.2128 33.3003 16.3071 33.2613 16.3852 33.1832C16.4633 33.105 16.5024 33.0107 16.5024 32.9003C16.5024 32.7898 16.4633 32.6955 16.3852 32.6174C16.3071 32.5393 16.2128 32.5002 16.1023 32.5002C15.9919 32.5002 15.8976 32.5393 15.8194 32.6174C15.7413 32.6955 15.7023 32.7898 15.7023 32.9003ZM15.6272 32.9128C15.6272 33.0422 15.673 33.1527 15.7646 33.2443C15.8561 33.3358 15.9666 33.3816 16.0961 33.3816C16.2255 33.3816 16.3361 33.3358 16.4276 33.2443C16.5191 33.1527 16.5649 33.0422 16.5649 32.9128C16.5649 32.7833 16.5191 32.6728 16.4276 32.5813C16.3361 32.4897 16.2255 32.4439 16.0961 32.4439C15.9666 32.4439 15.8561 32.4897 15.7646 32.5813C15.673 32.6728 15.6272 32.7833 15.6272 32.9128ZM15.6773 32.4689L15.6397 32.5064C15.3669 32.7325 15.2919 33.0117 15.4147 33.3441L15.4835 33.5254C15.5363 33.6659 15.6217 33.7826 15.7398 33.8755L16.0148 34.088C16.0761 34.1367 16.1428 34.1763 16.2149 34.2068L16.7087 34.4131C16.7969 34.4501 16.8885 34.473 16.9837 34.4818L17.6839 34.5381C17.7485 34.5447 17.8131 34.5447 17.8777 34.5381L18.7028 34.4381C18.7711 34.4306 18.8377 34.416 18.9029 34.3943L19.8155 34.088C19.8718 34.0699 19.9259 34.047 19.9781 34.0192L20.9095 33.5004C20.9464 33.4797 20.9818 33.4568 21.0158 33.4316L21.9034 32.7815C21.9318 32.76 21.9588 32.7371 21.9847 32.7127L22.7724 32.0001C22.7987 31.9764 22.8237 31.9514 22.8474 31.9251L23.5287 31.1624C23.5508 31.1385 23.5716 31.1135 23.5913 31.0874L24.1726 30.2935C24.2004 30.2557 24.2254 30.2161 24.2476 30.1747L24.6852 29.3558C24.7137 29.2997 24.7366 29.2413 24.754 29.1808L25.0103 28.3557C25.0402 28.2579 25.0548 28.1579 25.054 28.0556L25.0478 27.2492C25.0471 27.1445 25.0305 27.0424 24.9978 26.9429L24.7602 26.2177C24.7254 26.1159 24.6753 26.0221 24.6102 25.9364L24.1976 25.3801C24.1132 25.2659 24.009 25.1743 23.8851 25.105L23.385 24.83C23.0863 24.6653 22.7924 24.6737 22.5035 24.855L22.3348 24.9613L22.266 24.9988L22.1847 24.9863C22.0098 24.9613 21.9098 25.0363 21.8848 25.2113C21.8598 25.3863 21.9348 25.4863 22.1097 25.5114H22.1222L22.0972 25.4551V25.5739C22.0953 25.7708 22.1537 25.9479 22.2723 26.1052L22.6036 26.5491L22.9036 26.9804L23.0474 27.418L23.0537 27.9181L22.8786 28.5057L22.5223 29.1746L22.0097 29.8747L21.3971 30.5561L20.6845 31.2062L19.8843 31.7938L19.0779 32.2501L18.3403 32.5314L17.7026 32.6315L17.14 32.619L16.7587 32.5627L16.6212 32.5189L16.5649 32.4752C16.489 32.4199 16.4057 32.3804 16.3149 32.3564L16.2649 32.3377C16.0461 32.2791 15.8503 32.3228 15.6773 32.4689Z" fill="black"/>
<path d="M22.0034 26.2365C22.0034 26.3435 22.0412 26.4349 22.1169 26.5105C22.1926 26.5862 22.284 26.6241 22.391 26.6241C22.498 26.6241 22.5894 26.5862 22.665 26.5105C22.7407 26.4349 22.7786 26.3435 22.7786 26.2365C22.7786 26.1295 22.7407 26.0381 22.665 25.9624C22.5894 25.8867 22.498 25.8489 22.391 25.8489C22.284 25.8489 22.1926 25.8867 22.1169 25.9624C22.0412 26.0381 22.0034 26.1295 22.0034 26.2365ZM21.9284 26.2427C21.9284 26.3687 21.9729 26.4763 22.0621 26.5654C22.1512 26.6545 22.2587 26.6991 22.3847 26.6991C22.5107 26.6991 22.6183 26.6545 22.7074 26.5654C22.7965 26.4763 22.8411 26.3687 22.8411 26.2427C22.8411 26.1167 22.7965 26.0092 22.7074 25.9201C22.6183 25.831 22.5107 25.7864 22.3847 25.7864C22.2587 25.7864 22.1512 25.831 22.0621 25.9201C21.9729 26.0092 21.9284 26.1167 21.9284 26.2427ZM21.8096 26.2677C21.8096 26.4266 21.8658 26.5621 21.9781 26.6744C22.0904 26.7867 22.2259 26.8428 22.3847 26.8428C22.5435 26.8428 22.6791 26.7867 22.7914 26.6744C22.9037 26.5621 22.9598 26.4266 22.9598 26.2677C22.9598 26.1089 22.9037 25.9734 22.7914 25.8611C22.6791 25.7488 22.5435 25.6926 22.3847 25.6926C22.2259 25.6926 22.0904 25.7488 21.9781 25.8611C21.8658 25.9734 21.8096 26.1089 21.8096 26.2677ZM21.8784 26.6741L21.9221 26.7428C22.0498 26.9258 22.2248 27.0258 22.4472 27.0429L22.6535 27.0554C22.7652 27.0651 22.8735 27.0505 22.9786 27.0116L23.3224 26.8804C23.3925 26.8523 23.4571 26.8148 23.5162 26.7678L23.9413 26.4365C23.9676 26.4172 23.9926 26.3964 24.0163 26.374L24.5101 25.8802C24.5253 25.8661 24.5398 25.8515 24.5539 25.8364L25.079 25.23C25.1037 25.2023 25.1267 25.1731 25.1478 25.1425L25.6291 24.4236C25.6579 24.3799 25.6829 24.334 25.7041 24.2861L26.0917 23.4422C26.1273 23.3642 26.1523 23.2829 26.1667 23.1984L26.3417 22.2107C26.3548 22.1341 26.359 22.057 26.3542 21.9794L26.2855 20.8605C26.2819 20.7819 26.2694 20.7048 26.248 20.6292L25.9104 19.5227C25.8892 19.4486 25.86 19.3777 25.8229 19.3102L25.2853 18.3725C25.2524 18.319 25.2149 18.269 25.1728 18.2225L24.5664 17.5036C24.5129 17.4399 24.4524 17.3837 24.3851 17.3348L23.7662 16.891C23.7096 16.8507 23.6492 16.8173 23.585 16.7909L23.0911 16.5846C22.7428 16.4432 22.4512 16.5192 22.2162 16.8125C21.9812 17.1059 21.9707 17.4071 22.1847 17.7161L22.491 18.1537C22.5011 18.1665 22.5115 18.179 22.5223 18.1912L22.9911 18.7913C22.9932 18.7934 22.9953 18.7955 22.9973 18.7976L23.5412 19.4664L23.985 20.2416L24.2663 21.123L24.3351 22.0044L24.2226 22.7921L23.9663 23.5172L23.6162 24.2048L23.2474 24.8175L22.8911 25.2613L22.591 25.5176L22.4035 25.6239L22.3222 25.6551L22.2785 25.6614C22.1709 25.6834 22.075 25.7297 21.9909 25.8003C21.9068 25.8709 21.8446 25.9573 21.8042 26.0594C21.7639 26.1615 21.7503 26.2671 21.7635 26.3761C21.7766 26.4851 21.8149 26.5845 21.8784 26.6741ZM22.6285 16.8472L22.4722 16.7847C22.3175 16.7489 22.2098 16.8043 22.1489 16.951C22.0881 17.0977 22.125 17.2131 22.2597 17.2973L22.416 17.3598C22.5707 17.3956 22.6785 17.3402 22.7393 17.1935C22.8001 17.0468 22.7632 16.9314 22.6285 16.8472Z" fill="black"/>
<path d="M22.5535 17.3535C22.5535 17.4554 22.5895 17.5423 22.6615 17.6143C22.7335 17.6863 22.8205 17.7223 22.9223 17.7223C23.0242 17.7223 23.1111 17.6863 23.1831 17.6143C23.2551 17.5423 23.2911 17.4554 23.2911 17.3535C23.2911 17.2517 23.2551 17.1647 23.1831 17.0927C23.1111 17.0207 23.0242 16.9847 22.9223 16.9847C22.8205 16.9847 22.7335 17.0207 22.6615 17.0927C22.5895 17.1647 22.5535 17.2517 22.5535 17.3535ZM22.5222 17.3473C22.5222 17.4577 22.5613 17.552 22.6394 17.6302C22.7175 17.7083 22.8118 17.7473 22.9223 17.7473C23.0328 17.7473 23.1271 17.7083 23.2052 17.6302C23.2833 17.552 23.3224 17.4577 23.3224 17.3473C23.3224 17.2368 23.2833 17.1425 23.2052 17.0644C23.1271 16.9863 23.0328 16.9472 22.9223 16.9472C22.8118 16.9472 22.7175 16.9863 22.6394 17.0644C22.5613 17.1425 22.5222 17.2368 22.5222 17.3473ZM22.391 17.3348C22.3911 17.4762 22.4412 17.5969 22.5413 17.6969C22.6413 17.7969 22.7621 17.8469 22.9036 17.8469C23.045 17.8469 23.1658 17.7969 23.2658 17.6969C23.3659 17.5969 23.416 17.4762 23.4162 17.3348C23.416 17.1933 23.3659 17.0726 23.2658 16.9726C23.1658 16.8727 23.045 16.8227 22.9036 16.8227C22.7621 16.8227 22.6413 16.8727 22.5413 16.9726C22.4412 17.0726 22.3911 17.1933 22.391 17.3348ZM22.3034 17.316C22.3034 17.4731 22.359 17.6072 22.4701 17.7183C22.5811 17.8293 22.7152 17.8849 22.8723 17.8849C23.0294 17.8849 23.1635 17.8293 23.2745 17.7183C23.3856 17.6072 23.4412 17.4731 23.4412 17.316C23.4412 17.1589 23.3856 17.0248 23.2745 16.9138C23.1635 16.8027 23.0294 16.7472 22.8723 16.7472C22.7152 16.7472 22.5811 16.8027 22.4701 16.9138C22.359 17.0248 22.3034 17.1589 22.3034 17.316ZM22.2972 17.5786L22.3222 17.6411C22.3739 17.7605 22.4552 17.8542 22.566 17.9224L22.6598 17.9786C22.7747 18.0501 22.8998 18.0814 23.0348 18.0724L23.1911 18.0662C23.3309 18.0568 23.4559 18.0089 23.5662 17.9224L23.8162 17.7286C23.8832 17.6758 23.9395 17.6132 23.985 17.5411L24.2663 17.0972C24.2973 17.0458 24.3223 16.9916 24.3413 16.9347L24.5851 16.2596C24.5981 16.2228 24.6085 16.1853 24.6164 16.147L24.7977 15.2844C24.8038 15.2513 24.8079 15.2179 24.8102 15.1844L24.9039 14.2092C24.9099 14.1614 24.912 14.1135 24.9102 14.0654L24.8477 13.0277C24.8423 12.9725 24.8319 12.9184 24.8164 12.8652L24.5601 11.8525C24.5454 11.792 24.5245 11.7336 24.4976 11.6774L24.0725 10.821C24.0372 10.7507 23.9935 10.6861 23.9413 10.6272L23.4162 10.0334C23.323 9.92536 23.2104 9.8441 23.0786 9.78958L22.541 9.57079C22.3277 9.48229 22.1155 9.48494 21.9045 9.57874C21.6934 9.67253 21.5493 9.82825 21.472 10.0459L21.4595 10.0834L21.3408 10.2334L21.1845 10.4084C21.068 10.5335 21.0722 10.6543 21.1971 10.7709C21.322 10.8874 21.4429 10.8833 21.5595 10.7585L21.6408 10.6773L21.7721 10.696C21.7402 10.4951 21.6235 10.3805 21.422 10.3522L21.4345 10.4522C21.4661 10.6487 21.5577 10.8112 21.7096 10.9398L22.1097 11.2774L22.516 11.7337L22.8598 12.3963L23.0848 13.2277L23.1474 14.1154L23.0723 14.9968L22.9411 15.8032L22.7848 16.4471L22.6598 16.8534L22.6097 16.9472L22.591 16.9659C22.8199 17.0515 23.0283 17.0161 23.2161 16.8597L23.1161 16.8222C23.1787 16.8859 23.2516 16.9338 23.3349 16.9659L23.2849 16.9159C23.1824 16.8139 23.0592 16.7559 22.9153 16.742C22.7713 16.7282 22.6393 16.7615 22.5192 16.8421C22.3991 16.9226 22.3182 17.0321 22.2765 17.1706C22.2347 17.3091 22.2416 17.445 22.2972 17.5786Z" fill="black"/>
<path d="M20.8156 10.7336C20.8156 10.844 20.8547 10.9383 20.9328 11.0165C21.0109 11.0946 21.1052 11.1336 21.2157 11.1336C21.3262 11.1336 21.4205 11.0946 21.4986 11.0165C21.5767 10.9383 21.6158 10.844 21.6158 10.7336C21.6158 10.6231 21.5767 10.5288 21.4986 10.4507C21.4205 10.3726 21.3262 10.3335 21.2157 10.3335C21.1052 10.3335 21.0109 10.3726 20.9328 10.4507C20.8547 10.5288 20.8156 10.6231 20.8156 10.7336ZM20.7218 10.7336C20.7218 10.8717 20.7707 10.9895 20.8683 11.0872C20.966 11.1848 21.0838 11.2337 21.2219 11.2337C21.36 11.2337 21.4779 11.1848 21.5756 11.0872C21.6732 10.9895 21.722 10.8717 21.722 10.7336C21.722 10.5955 21.6732 10.4776 21.5756 10.38C21.4779 10.2823 21.36 10.2335 21.2219 10.2335C21.0838 10.2335 20.966 10.2823 20.8683 10.38C20.7707 10.4776 20.7218 10.5955 20.7218 10.7336ZM20.9969 11.2649L21.0344 11.2837C21.1564 11.3397 21.2835 11.3564 21.4157 11.3337L21.5157 11.3212C21.6433 11.2983 21.7558 11.2441 21.8533 11.1587L22.0033 11.0336C22.0538 10.9895 22.0976 10.9395 22.1346 10.8836L22.3159 10.6148C22.3458 10.5694 22.3708 10.5215 22.3909 10.471L22.5785 10.0147C22.6131 9.93047 22.634 9.84295 22.641 9.75213L22.6847 9.10826C22.6904 9.02401 22.6842 8.94067 22.666 8.85821L22.5034 8.11432C22.4854 8.02406 22.4541 7.93863 22.4097 7.85802L21.9533 7.05787C21.9108 6.98372 21.8587 6.91704 21.7971 6.85783L20.9906 6.07018C20.9613 6.04093 20.93 6.01385 20.8969 5.98892L19.8779 5.23878C19.8577 5.22331 19.8369 5.20872 19.8154 5.19502L18.7402 4.54489C18.6038 4.46219 18.4559 4.42051 18.2964 4.41987L17.4962 4.40737L16.9149 4.0448C16.7528 3.97061 16.6241 4.00877 16.5287 4.15926C16.4332 4.30975 16.4536 4.44247 16.5898 4.5574L17.1712 4.92622L17.5087 5.6451C17.5746 5.7887 17.6726 5.90538 17.8025 5.99517L18.8277 6.6953L19.7842 7.40169L20.4593 8.05806L20.7969 8.63942L20.9219 9.14577L20.9156 9.63336L20.8719 10.0084L20.8094 10.2147L20.7531 10.3522L20.7156 10.4398C20.706 10.4622 20.6976 10.4851 20.6906 10.5085L20.6781 10.546C20.6344 10.6888 20.6428 10.8285 20.7033 10.965C20.7639 11.1015 20.8617 11.2015 20.9969 11.2649Z" fill="black"/>
<path d="M13.9331 1.55053C13.9331 1.66446 13.9734 1.76171 14.054 1.84227C14.1345 1.92283 14.2318 1.96311 14.3457 1.96311C14.4596 1.96311 14.5569 1.92283 14.6374 1.84227C14.718 1.76171 14.7583 1.66446 14.7583 1.55053C14.7583 1.4366 14.718 1.33936 14.6374 1.2588C14.5569 1.17823 14.4596 1.13795 14.3457 1.13795C14.2318 1.13795 14.1345 1.17823 14.054 1.2588C13.9734 1.33936 13.9331 1.4366 13.9331 1.55053ZM13.8581 1.51302C13.8581 1.6494 13.9063 1.7658 14.0028 1.86223C14.0992 1.95866 14.2156 2.00687 14.352 2.00687C14.4883 2.00687 14.6047 1.95866 14.7012 1.86223C14.7976 1.7658 14.8458 1.6494 14.8458 1.51302C14.8458 1.37665 14.7976 1.26025 14.7012 1.16383C14.6047 1.0674 14.4883 1.01918 14.352 1.01918C14.2156 1.01918 14.0992 1.0674 14.0028 1.16383C13.9063 1.26025 13.8581 1.37665 13.8581 1.51302ZM14.527 2.10064L14.7208 2.06938C14.7525 2.06287 14.7838 2.05454 14.8145 2.04438L15.0896 1.95686L15.4522 1.9381L16.0523 2.08813L16.7962 2.48821L17.4651 3.06957L17.9089 3.77595L18.1652 4.70113C18.1771 4.73968 18.1917 4.77718 18.2089 4.81365L18.5465 5.5638L18.3215 6.33894C18.2673 6.53481 18.3381 6.65984 18.534 6.71401C18.7299 6.76819 18.8549 6.69734 18.9091 6.50147L19.1404 5.67632L19.6655 4.97618C19.7965 4.79928 19.8507 4.60132 19.828 4.38232L19.7155 3.29461C19.7022 3.15124 19.6585 3.01788 19.5842 2.89454L19.0091 1.95061C18.9564 1.86537 18.8918 1.79036 18.8153 1.72556L17.9589 0.981673C17.905 0.935546 17.8466 0.895955 17.7839 0.8629L16.8399 0.362805C16.7667 0.323447 16.6896 0.294276 16.6086 0.275289L15.746 0.0815017C15.628 0.0543346 15.5092 0.0501663 15.3897 0.0689993L14.777 0.169018C14.624 0.194151 14.4865 0.25458 14.3645 0.350303L14.0582 0.60035C13.8932 0.728565 13.7911 0.895264 13.7518 1.10045L13.7206 1.29423C13.7003 1.40617 13.7072 1.51642 13.7411 1.62499C13.7751 1.73356 13.8323 1.82807 13.9127 1.9085C13.9932 1.98894 14.0877 2.04614 14.1962 2.0801C14.3048 2.11406 14.4151 2.1209 14.527 2.10064Z" fill="black"/>
</g>
<defs>
<clipPath id="clip0_1_7347">
<rect width="27" height="43" fill="white"/>
</clipPath>
</defs>
</svg>
