<svg width="19" height="33" viewBox="0 0 19 33" fill="none" xmlns="http://www.w3.org/2000/svg">
<g clip-path="url(#clip0_1_7278)">
<path d="M5.8365 29.3905C5.83169 29.4007 5.82752 29.4111 5.82399 29.4218L5.81149 29.478C5.80856 29.4904 5.80648 29.5029 5.80524 29.5155L5.78024 29.6593C5.78014 29.6635 5.78014 29.6676 5.78024 29.6718L5.76148 29.9093C5.7609 29.9198 5.7609 29.9302 5.76148 29.9406L5.76773 30.2469C5.76764 30.2511 5.76764 30.2552 5.76773 30.2594L5.79274 30.6095C5.79265 30.6136 5.79265 30.6178 5.79274 30.622L5.83025 30.947L5.8615 31.2096C5.86113 31.2179 5.86113 31.2263 5.8615 31.2346L5.89901 31.4159C5.9065 31.4472 5.919 31.4764 5.93652 31.5034L5.98653 31.5909C6.03427 31.6725 6.10512 31.7183 6.19907 31.7284L6.27408 31.7347C6.33963 31.7413 6.40006 31.7268 6.45536 31.6909L6.56163 31.6284C6.58482 31.6147 6.60565 31.598 6.62415 31.5784L6.73667 31.4534C6.74815 31.4418 6.75857 31.4293 6.76792 31.4159L6.8867 31.2283C6.89127 31.2202 6.89544 31.2119 6.8992 31.2033L7.00547 30.9908C7.00988 30.9847 7.01405 30.9785 7.01797 30.9721L7.10549 30.7533C7.11713 30.7231 7.12338 30.6918 7.12424 30.6595L7.13049 30.5157L7.168 30.4157C7.18598 30.3026 7.14159 30.2254 7.03482 30.1841C6.92806 30.1428 6.84326 30.17 6.78043 30.2657L6.74292 30.3532L6.64915 30.4407C6.62263 30.4658 6.6018 30.495 6.58664 30.5282L6.48662 30.7345L6.39285 30.9283L6.29283 31.0846L6.22407 31.1658L6.14906 31.2158C6.21234 31.221 6.27068 31.2064 6.32409 31.1721L6.24908 31.1658C6.2996 31.2421 6.37045 31.2837 6.46162 31.2909L6.43661 31.2471L6.41161 31.1346L6.38035 30.8845L6.34284 30.5657L6.33034 30.2344L6.32409 29.9406L6.34284 29.7218L6.35535 29.5968L6.36785 29.5468C6.37715 29.4928 6.3709 29.4407 6.34909 29.3905C6.3036 29.2737 6.21816 29.2153 6.0928 29.2153C5.96743 29.2153 5.882 29.2737 5.8365 29.3905Z" fill="black"/>
<path d="M6.68048 30.4344L6.67423 30.4407C6.64371 30.4794 6.62496 30.5232 6.61797 30.572L6.61172 30.6345C6.60953 30.6386 6.60745 30.6428 6.60547 30.647L6.59922 30.7658L6.58046 30.9345C6.58037 30.9387 6.58037 30.9429 6.58046 30.947L6.56796 31.1096C6.56608 31.137 6.56816 31.1641 6.57421 31.1908L6.59297 31.3034C6.61557 31.4013 6.67391 31.468 6.768 31.5034L6.83676 31.5284C6.9136 31.557 6.98861 31.5529 7.06181 31.5159L7.16808 31.4659C7.18584 31.4572 7.20251 31.4468 7.21809 31.4346L7.34936 31.3284C7.36273 31.319 7.37523 31.3086 7.38687 31.2971L7.51189 31.1596C7.52359 31.1459 7.53401 31.1313 7.54315 31.1158L7.64317 30.9595C7.64756 30.9534 7.65173 30.9472 7.65567 30.9408L7.73693 30.7845C7.73905 30.7825 7.74113 30.7804 7.74319 30.7783L7.8057 30.6407L7.86196 30.547L7.89321 30.497L7.91822 30.4782C7.87531 30.4923 7.8378 30.5152 7.8057 30.547L7.86196 30.5282C7.86617 30.5262 7.87034 30.5241 7.87446 30.522L7.94322 30.497C7.97781 30.4838 8.00907 30.465 8.03699 30.4407L8.12451 30.3594C8.14866 30.3395 8.16949 30.3166 8.18702 30.2907L8.29329 30.1219C8.29546 30.1178 8.29755 30.1136 8.29954 30.1094L8.41831 29.8968C8.4256 29.8827 8.43185 29.8681 8.43707 29.8531L8.51833 29.6405C8.52673 29.6203 8.53298 29.5995 8.53709 29.578L8.56209 29.4155C8.57343 29.3399 8.55677 29.2712 8.51208 29.2092L8.48708 29.1717C8.48745 29.2151 8.49995 29.2547 8.52458 29.2905V29.2592C8.52458 29.1175 8.45374 29.0467 8.31204 29.0467C8.17035 29.0467 8.0995 29.1175 8.0995 29.2592V29.2905C8.21111 29.267 8.26737 29.1982 8.26829 29.0842L8.21828 29.0967C8.14752 29.1124 8.09126 29.15 8.04949 29.2092L7.95573 29.3467C7.94888 29.3568 7.94263 29.3672 7.93697 29.378L7.8307 29.578C7.82859 29.5801 7.82651 29.5822 7.82445 29.5843L7.71818 29.7906L7.63691 29.9406L7.58691 30.0031L7.58065 30.0156L7.56815 30.0219C7.54536 30.0337 7.52452 30.0482 7.50564 30.0656L7.46188 30.1094C7.4504 30.121 7.43998 30.1335 7.43063 30.1469L7.37436 30.2282C7.36979 30.2363 7.36562 30.2446 7.36186 30.2532L7.29935 30.3657L7.21809 30.4907L7.13057 30.6345L7.0368 30.7783L6.94303 30.9033L6.86802 30.9845L6.79926 31.0221C6.87701 31.0487 6.95202 31.0424 7.0243 31.0033L6.95554 30.9783C6.9795 31.078 7.03992 31.1447 7.13682 31.1783L7.12432 31.1096L7.13057 30.9908L7.14932 30.8283L7.16182 30.7032C7.16401 30.6991 7.1661 30.695 7.16808 30.6907V30.6282C7.17313 30.5586 7.15438 30.4961 7.11181 30.4407L7.10556 30.4344C7.05176 30.3649 6.98091 30.3302 6.89302 30.3302C6.80514 30.3302 6.73429 30.3649 6.68048 30.4344Z" fill="black"/>
<path d="M8.51201 29.4593L8.53076 29.3968L8.58077 29.2343C8.59194 29.193 8.59403 29.1514 8.58703 29.1092L8.56827 28.9655L8.60578 28.8342C8.64329 28.6966 8.59328 28.6091 8.45575 28.5716C8.31822 28.5341 8.23071 28.5841 8.1932 28.7217L8.15569 28.8592L8.06818 28.978C8.03942 29.0151 8.02067 29.0568 8.01192 29.103L7.98691 29.2655C7.97848 29.3098 7.98057 29.3535 7.99316 29.3968L8.01192 29.4593C8.05087 29.581 8.13422 29.6418 8.26196 29.6418C8.38971 29.6418 8.47306 29.581 8.51201 29.4593Z" fill="black"/>
<path d="M7.6932 16.7882C7.6932 16.9508 7.77447 17.032 7.937 17.032C8.09953 17.032 8.1808 16.9508 8.1808 16.7882C8.1808 16.6257 8.09953 16.5444 7.937 16.5444C7.77447 16.5444 7.6932 16.6257 7.6932 16.7882ZM7.73696 16.607C7.8113 16.6472 7.8884 16.6535 7.96826 16.6257L7.94325 16.6132C7.84353 16.5637 7.74636 16.5683 7.65176 16.627C7.55715 16.6857 7.50985 16.7707 7.50985 16.882C7.50985 16.9933 7.55715 17.0783 7.65176 17.137C7.74636 17.1957 7.84353 17.2003 7.94325 17.1508L7.96826 17.1383C7.97892 17.1347 7.98934 17.1306 7.99951 17.1258L8.03077 17.1008C8.04416 17.0914 8.05666 17.081 8.06827 17.0695L8.10578 17.0383C8.12235 17.0234 8.13694 17.0067 8.14954 16.9883L8.16829 16.9508C8.2829 16.807 8.26831 16.6778 8.12454 16.5632C7.98076 16.4486 7.85157 16.4632 7.73696 16.607ZM7.91825 17.1696L7.94325 17.1633C7.8853 17.1543 7.82904 17.1606 7.77447 17.1821L7.83698 17.1883C7.8473 17.1909 7.85772 17.193 7.86824 17.1946L8.01827 17.2071C8.06526 17.2093 8.11111 17.2031 8.15579 17.1883L8.43084 17.1008C8.45238 17.0942 8.47322 17.0859 8.49336 17.0758L8.91219 16.857C8.92277 16.8533 8.93319 16.8491 8.94344 16.8445L9.47479 16.5069L10.0937 16.1256L10.7063 15.7505L11.2501 15.4255L11.694 15.1692C11.7003 15.1652 11.7066 15.161 11.7127 15.1567L12.0503 14.9379C12.0683 14.9249 12.085 14.9103 12.1003 14.8941L12.3503 14.6566C12.3591 14.6487 12.3674 14.6404 12.3753 14.6316L12.5879 14.3815C12.5995 14.3678 12.6099 14.3532 12.6191 14.3378L12.7817 14.0815C12.7943 14.0618 12.8048 14.0409 12.8129 14.019L12.9004 13.7752C12.9026 13.771 12.9047 13.7669 12.9067 13.7627L12.9692 13.5626C12.9764 13.5317 12.9784 13.5005 12.9755 13.4689V13.3313C12.9709 13.2676 12.948 13.2113 12.9067 13.1625L12.8442 13.0813C12.7857 13.0108 12.7107 12.9754 12.6191 12.975H12.5191C12.4729 12.9751 12.4291 12.9855 12.3878 13.0063L12.2878 13.0563C12.2628 13.0676 12.2399 13.0822 12.2191 13.1L12.1253 13.1813C12.1162 13.1911 12.1079 13.2016 12.1003 13.2126L12.0378 13.2876C12.0311 13.2956 12.0248 13.3039 12.019 13.3126L11.9815 13.3626C11.9906 13.3527 11.9989 13.3423 12.0065 13.3313L11.994 13.3501H11.9878C11.9381 13.4099 11.9152 13.4787 11.919 13.5564V13.5689C11.9189 13.573 11.9189 13.5772 11.919 13.5814V13.6001C11.9312 13.5614 11.9354 13.5218 11.9315 13.4814V13.4876C11.8891 13.6462 11.9408 13.7633 12.0866 13.8387C12.2324 13.9142 12.3578 13.8889 12.4629 13.7627L12.4754 13.7502C12.4908 13.7289 12.5033 13.7059 12.5129 13.6814L12.5441 13.6001C12.5489 13.5899 12.553 13.5795 12.5566 13.5689L12.6004 13.4126C12.6006 13.4063 12.6006 13.4001 12.6004 13.3938L12.6629 13.125L12.7504 12.725L12.8879 12.1749L13.0692 11.506L13.263 10.7871L13.4568 10.1307C13.459 10.1266 13.4611 10.1224 13.4631 10.1182L13.6068 9.56811C13.6108 9.54957 13.6129 9.53081 13.6131 9.51185L13.6381 9.13678L13.7068 8.90549C13.7443 8.76802 13.6942 8.68055 13.5568 8.64306C13.4193 8.60558 13.3318 8.65555 13.2943 8.79297L13.2318 9.02426L13.063 9.36183C13.0577 9.37608 13.0535 9.39067 13.0505 9.40558L12.8817 9.95569L12.6817 10.6183L12.4629 11.331C12.4607 11.3351 12.4586 11.3392 12.4566 11.3435L12.2753 12.0186C12.2753 12.0207 12.2753 12.0227 12.2753 12.0248L12.1378 12.5687L12.0315 12.975C12.0293 12.9812 12.0272 12.9875 12.0253 12.9938L11.9753 13.2626C11.9732 13.2625 11.9711 13.2625 11.969 13.2626L11.944 13.4251L11.9253 13.5001C11.921 13.5207 11.9189 13.5416 11.919 13.5626V13.5814C11.9812 13.7291 12.0914 13.7903 12.2496 13.7651C12.4078 13.7398 12.4935 13.6473 12.5066 13.4876V13.4814C12.5027 13.5218 12.5069 13.5614 12.5191 13.6001V13.5814C12.5192 13.5772 12.5192 13.573 12.5191 13.5689V13.5564C12.5229 13.4787 12.5 13.4099 12.4504 13.3501H12.4441C12.4509 13.4144 12.4759 13.4707 12.5191 13.5189L12.5129 13.5064C12.4843 13.5568 12.4718 13.611 12.4754 13.6689L12.4941 13.6439L12.5254 13.6064L12.5691 13.5689L12.5816 13.5626H12.6191C12.5607 13.4921 12.4857 13.4567 12.3941 13.4564L12.4629 13.5314C12.4578 13.4645 12.4328 13.4061 12.3878 13.3563L12.3941 13.4376L12.3566 13.5439L12.2378 13.7189L12.0753 13.9565L11.894 14.1627L11.6565 14.3315L11.3314 14.5066L10.8751 14.7316C10.873 14.7337 10.8709 14.7357 10.8688 14.7378L10.2999 15.0379C10.2936 15.0419 10.2873 15.0461 10.2812 15.0504L9.66233 15.4255C9.65813 15.4275 9.65396 15.4296 9.64983 15.4317L9.04971 15.8193L8.51836 16.1381L8.12454 16.3632L7.88699 16.4757L7.76822 16.5319L7.71196 16.5507C7.61886 16.5838 7.55427 16.6463 7.51817 16.7382L7.51192 16.7632C7.46771 16.8893 7.49285 16.9996 7.58735 17.0941C7.68184 17.1886 7.79214 17.2138 7.91825 17.1696Z" fill="black"/>
<path d="M13.3943 9.79317L13.4006 9.78692C13.441 9.73321 13.4597 9.67278 13.4568 9.60563V9.58688C13.4337 9.63205 13.4233 9.67997 13.4256 9.73066L13.4506 9.6744L13.5443 9.54312C13.5465 9.539 13.5486 9.53483 13.5506 9.53062L13.7631 9.20556L14.0694 8.73672L14.457 8.16786L14.9008 7.56774L15.3447 6.99263L15.7197 6.50504L16.0073 6.14247C16.0161 6.13459 16.0244 6.12626 16.0323 6.11747L16.1761 5.87992C16.2031 5.84009 16.2197 5.79633 16.2261 5.74865L16.2323 5.67988C16.2436 5.5182 16.1701 5.42007 16.0117 5.38549C15.8534 5.3509 15.7456 5.40945 15.6885 5.56111L15.6635 5.63613L15.6135 5.74865L15.5197 5.85492C15.4468 5.95367 15.4565 6.04346 15.5489 6.12429C15.6413 6.20512 15.7316 6.20285 15.8198 6.11747L15.926 5.9987L16.0011 5.93618L16.0448 5.91743C16.1498 5.81388 16.1644 5.69886 16.0885 5.57239C16.0126 5.44592 15.9043 5.40466 15.7635 5.44859L15.7135 5.49235C15.7023 5.50201 15.6919 5.51243 15.6822 5.52361L15.5072 5.73615C15.5051 5.7382 15.503 5.74028 15.501 5.7424L15.2197 6.10497L14.8321 6.59256L14.382 7.16142C14.3799 7.16347 14.3778 7.16556 14.3757 7.16767L13.9194 7.77403C13.9173 7.77609 13.9152 7.77817 13.9132 7.78028L13.5131 8.35539C13.5109 8.35952 13.5088 8.36369 13.5068 8.3679L13.2005 8.84299C13.1961 8.8491 13.192 8.85535 13.188 8.86174L13.0005 9.19931C12.991 9.21324 12.9827 9.22783 12.9755 9.24306L12.913 9.42435C12.9077 9.43862 12.9035 9.4532 12.9005 9.46811L12.888 9.54937C12.8737 9.62616 12.8883 9.69701 12.9317 9.76191L12.9442 9.78067C12.9463 9.78278 12.9484 9.78487 12.9505 9.78692L12.9567 9.79317C13.013 9.86283 13.0859 9.89766 13.1755 9.89766C13.2651 9.89766 13.338 9.86283 13.3943 9.79317Z" fill="black"/>
<path d="M15.107 6.58C15.107 6.75504 15.1945 6.84255 15.3696 6.84255C15.5446 6.84255 15.6321 6.75504 15.6321 6.58C15.6321 6.40497 15.5446 6.31745 15.3696 6.31745C15.1945 6.31745 15.107 6.40497 15.107 6.58ZM15.207 6.34871L15.182 6.36746L15.1258 6.40497L15.0445 6.45498C15.0381 6.4589 15.0318 6.46306 15.0258 6.46748L14.957 6.52374L14.9132 6.54875L14.8945 6.56125C14.8838 6.67427 14.923 6.76591 15.0122 6.83617C15.1014 6.90643 15.1997 6.92314 15.3071 6.88631V6.86756C15.2717 6.91383 15.2508 6.96592 15.2445 7.02384L15.3321 6.91132L15.8947 6.18618L16.3385 5.61732L16.7886 5.01096C16.7907 5.0089 16.7928 5.00682 16.7948 5.0047L17.2012 4.41709L17.545 3.89824C17.5471 3.89619 17.5492 3.8941 17.5512 3.89199L17.8138 3.47941C17.8182 3.4733 17.8223 3.46705 17.8263 3.46066L17.9951 3.1606C18.0079 3.13879 18.0183 3.11587 18.0263 3.09184L18.0763 2.93556C18.1447 2.75234 18.0929 2.6141 17.921 2.52084C17.7492 2.42758 17.605 2.45955 17.4887 2.61675L17.445 2.67301C17.4383 2.68105 17.4321 2.68938 17.4262 2.69801L17.2824 2.91056C17.2782 2.91461 17.274 2.91878 17.2699 2.92306L17.0699 3.24812L16.8136 3.65445C16.8115 3.6565 16.8094 3.65859 16.8073 3.6607L16.5198 4.14204C16.5177 4.14202 16.5156 4.14202 16.5135 4.14204L16.1947 4.67964C16.1925 4.68583 16.1904 4.69208 16.1885 4.6984L15.9072 5.22975C15.9 5.24181 15.8938 5.25431 15.8884 5.26725L15.7259 5.71734L15.5446 6.02365C15.4739 6.14447 15.4989 6.24028 15.6197 6.31108C15.7405 6.38188 15.8363 6.35691 15.9072 6.23619L16.0822 5.92363L16.3948 5.56106C16.4038 5.5512 16.4121 5.54078 16.4198 5.5298L16.7511 5.02971C16.7534 5.02352 16.7554 5.01727 16.7573 5.01096L17.0699 4.4796L17.3637 4.00451L17.62 3.59819L17.8263 3.28563L17.9451 3.11684L17.9701 3.09809C18.0659 2.9315 18.039 2.78785 17.8895 2.66714C17.7399 2.54643 17.5938 2.55047 17.4512 2.67926L17.3762 2.81679L17.2137 3.11684L16.9699 3.53567L16.6448 4.04827L16.2572 4.62963L15.8259 5.22975L15.3946 5.7986L14.832 6.52374C14.8299 6.5258 14.8278 6.52788 14.8257 6.52999L14.7382 6.64877C14.6912 6.71443 14.6724 6.78736 14.6819 6.86756V6.88631C14.6939 7.01799 14.7619 7.10648 14.8861 7.15178C15.0103 7.19708 15.1194 7.17319 15.2133 7.0801L15.257 7.03634C15.2613 7.0323 15.2655 7.02813 15.2695 7.02384L15.3258 6.96133L15.3821 6.91132L15.4446 6.86756L15.4946 6.83005C15.501 6.82613 15.5073 6.82197 15.5133 6.81755L15.5383 6.7988C15.6606 6.68493 15.6723 6.56072 15.5732 6.42616C15.4741 6.29159 15.3521 6.26578 15.207 6.34871Z" fill="black"/>
<path d="M11.8627 7.27389C11.8627 7.45309 11.9523 7.54269 12.1315 7.54269C12.3107 7.54269 12.4003 7.45309 12.4003 7.27389C12.4003 7.09468 12.3107 7.00508 12.1315 7.00508C11.9523 7.00508 11.8627 7.09468 11.8627 7.27389ZM12.369 7.41141L12.3815 7.38016C12.404 7.34571 12.4186 7.3082 12.4253 7.26763L12.4315 7.21137C12.4357 7.1822 12.4357 7.15303 12.4315 7.12386L12.419 7.01759L12.4003 6.84255L12.3753 6.555C12.3754 6.55083 12.3754 6.54666 12.3753 6.5425L12.3378 6.18618C12.3351 6.16709 12.331 6.14833 12.3253 6.12992L12.2065 5.73609C12.2012 5.72109 12.195 5.70651 12.1878 5.69233L12.0002 5.28601C11.9947 5.27314 11.9884 5.26064 11.9815 5.2485L11.7377 4.85467C11.7318 4.84607 11.7255 4.83774 11.7189 4.82967L11.4314 4.4421C11.4218 4.4289 11.4113 4.4164 11.4001 4.40459L11.0625 4.04827C11.0528 4.03722 11.0423 4.0268 11.0313 4.01701L10.6437 3.6982L10.3124 3.32938L9.99983 2.96056C9.99405 2.95188 9.9878 2.94355 9.98108 2.93556L9.71228 2.68551L9.5685 2.47922C9.48633 2.38045 9.39209 2.36713 9.28577 2.43928C9.17945 2.51142 9.15701 2.60392 9.21844 2.71677L9.36846 2.92931L9.53725 3.26687C9.54626 3.28246 9.55668 3.29704 9.5685 3.31063L9.86231 3.6982C9.86429 3.70242 9.86637 3.70659 9.86856 3.71071L10.1999 4.10453L10.5124 4.51086C10.5165 4.51513 10.5207 4.5193 10.5249 4.52336L10.8437 4.89218L11.125 5.25475L11.3501 5.61732L11.5189 5.97989L11.6439 6.33621L11.7314 6.64877L11.7627 6.90506L11.7814 7.0926C11.7832 7.10102 11.7853 7.10935 11.7877 7.11761L11.8127 7.23013C11.8201 7.26343 11.8326 7.29469 11.8502 7.32389L11.8752 7.38016C11.8773 7.38018 11.8794 7.38018 11.8814 7.38016L11.8939 7.41141C11.947 7.50234 12.0262 7.54781 12.1315 7.54781C12.2368 7.54781 12.316 7.50234 12.369 7.41141Z" fill="black"/>
<path d="M8.59331 1.1102L8.58706 1.13521C8.58199 1.14741 8.57782 1.15991 8.57456 1.17271L8.56206 1.25398C8.56168 1.26231 8.56168 1.27065 8.56206 1.27898L8.54955 1.44777L8.52455 1.72907L8.48704 2.11664L8.43703 2.58548C8.43701 2.58757 8.43701 2.58965 8.43703 2.59173L8.39952 3.07933C8.3995 3.08141 8.3995 3.08349 8.39952 3.08558L8.38077 3.54817C8.38056 3.55442 8.38056 3.56067 8.38077 3.56692L8.39327 3.96699C8.39269 3.97741 8.39269 3.98783 8.39327 3.99825L8.44328 4.33582C8.44424 4.35056 8.44633 4.36515 8.44953 4.37957L8.53705 4.66088C8.54175 4.67813 8.548 4.6948 8.5558 4.71089L8.68083 4.95468C8.69116 4.97488 8.70366 4.99364 8.71834 5.01094L8.89962 5.21723C8.91101 5.23084 8.92352 5.24335 8.93713 5.25474L9.16217 5.43602C9.18148 5.45108 9.20231 5.46358 9.22468 5.47353L9.50599 5.60481C9.5221 5.61255 9.53877 5.6188 9.556 5.62356L9.86855 5.71108C9.88092 5.71399 9.89342 5.71607 9.90606 5.71733L10.2249 5.76109C10.2311 5.7613 10.2374 5.7613 10.2436 5.76109L10.5499 5.78609C10.5604 5.78668 10.5708 5.78668 10.5812 5.78609L10.8562 5.77359C10.8865 5.77226 10.9156 5.76601 10.9438 5.75484L11.1125 5.68607L11.2251 5.67357C11.3625 5.65682 11.4229 5.57972 11.4062 5.44229C11.3895 5.30486 11.3125 5.24443 11.1751 5.26099L11.0625 5.27349L10.9 5.24224C10.8815 5.23817 10.8627 5.23608 10.8437 5.23599H10.5812L10.3061 5.21098L10.0186 5.14847L9.74353 5.0547L9.51224 4.94843L9.33095 4.80465L9.18092 4.64212L9.07465 4.46084L9.00589 4.22954L8.95588 3.93574L8.94338 3.56067L8.96213 3.11058L8.99964 2.63549L9.03715 2.16665L9.07465 1.77908L9.09966 1.49777C9.09968 1.49569 9.09968 1.49361 9.09966 1.49152L9.11216 1.32899L9.12466 1.25398C9.1293 1.21346 9.12513 1.17387 9.11216 1.13521L9.10591 1.1102C9.06633 0.985016 8.9809 0.922424 8.84961 0.922424C8.71832 0.922424 8.63289 0.985016 8.59331 1.1102Z" fill="black"/>
<path d="M9.04346 0.610168H9.03721C8.96186 0.583794 8.88887 0.589196 8.81823 0.626375C8.74759 0.663555 8.70181 0.720665 8.68089 0.797704V0.816457C8.6787 0.820572 8.67662 0.824741 8.67464 0.82896L8.66839 0.872718C8.66396 0.893321 8.66188 0.914159 8.66214 0.93523V1.029C8.66177 1.03733 8.66177 1.04567 8.66214 1.054L8.67464 1.22278C8.67565 1.23752 8.67773 1.25211 8.68089 1.26654L8.7434 1.50409C8.74471 1.51672 8.74679 1.52922 8.74965 1.5416L8.86218 1.8354C8.86781 1.84619 8.87406 1.85661 8.88093 1.86666L9.03721 2.16046C9.04771 2.18055 9.06021 2.1993 9.07472 2.21672L9.31226 2.49178C9.32374 2.5053 9.33624 2.5178 9.34977 2.52928L9.63107 2.76683C9.63911 2.77348 9.64744 2.77973 9.65608 2.78558L9.95613 2.99812C9.96224 3.0025 9.96849 3.00667 9.97489 3.01062L10.2999 3.21066C10.3041 3.21283 10.3082 3.21492 10.3125 3.21691L10.625 3.39195C10.6291 3.39412 10.6333 3.3962 10.6375 3.3982L10.9251 3.53572L11.1564 3.642L11.2876 3.71076L11.3627 3.77327L11.4314 3.84828L11.5064 3.9483C11.5085 3.95042 11.5106 3.9525 11.5127 3.95455L11.6064 4.06708L11.6815 4.16084L11.7127 4.23586L11.7252 4.31087L11.7002 4.4609L11.6502 4.68594C11.6497 4.69636 11.6497 4.70678 11.6502 4.7172L11.6252 4.91099L11.5502 5.06102C11.4835 5.18187 11.5106 5.27564 11.6315 5.34232C11.7523 5.409 11.8461 5.38191 11.9128 5.26105L12.0003 5.09852L12.1441 4.95475C12.1614 4.93582 12.176 4.91498 12.1878 4.89223L12.3066 4.68594C12.3267 4.65504 12.3413 4.6217 12.3503 4.58592L12.3878 4.37338C12.3959 4.33171 12.3959 4.29004 12.3878 4.24836L12.3503 4.07333C12.3447 4.04047 12.3343 4.00921 12.3191 3.97956L12.2378 3.83578C12.2306 3.82055 12.2223 3.80596 12.2128 3.79202L12.119 3.67325C12.115 3.66897 12.1108 3.6648 12.1065 3.66075L12.0128 3.54198L11.9315 3.43571C11.9255 3.42919 11.9193 3.42294 11.9128 3.41695L11.819 3.31693C11.8093 3.3058 11.7989 3.29539 11.7877 3.28568L11.6752 3.19191C11.6633 3.18271 11.6508 3.17437 11.6377 3.1669L11.4689 3.06689C11.4648 3.06471 11.4606 3.06263 11.4564 3.06063L11.2314 2.93561C11.2273 2.93344 11.2231 2.93136 11.2189 2.92936L10.9438 2.79183L10.6375 2.6293L10.325 2.44802L10.0374 2.25423L9.7811 2.04169L9.57481 1.81665L9.42478 1.5791L9.32476 1.33531L9.2685 1.12277L9.23725 0.978988L9.231 0.928979V0.910225C9.23216 0.878258 9.22799 0.847002 9.21849 0.816457V0.797704C9.21652 0.793483 9.21443 0.789316 9.21224 0.785201V0.77895C9.18386 0.694812 9.1276 0.638551 9.04346 0.610168Z" fill="black"/>
<path d="M1.45452 5.06721C1.45457 5.22552 1.53376 5.30467 1.69206 5.30467C1.85037 5.30467 1.92955 5.22552 1.92961 5.06721C1.92955 4.9089 1.85037 4.82974 1.69206 4.82974C1.53376 4.82974 1.45457 4.9089 1.45452 5.06721ZM1.59205 4.79841L1.56704 4.80466C1.53763 4.81493 1.51054 4.82952 1.48578 4.84842L1.44827 4.87342C1.39387 4.91519 1.35845 4.96937 1.342 5.03595L1.3295 5.08596C1.3222 5.11044 1.31803 5.13545 1.31699 5.16097V5.24849C1.31632 5.29597 1.32466 5.34181 1.342 5.38602L1.43577 5.61106C1.44887 5.64422 1.46554 5.67547 1.48578 5.70483L1.76708 6.09865C1.77503 6.10938 1.78336 6.1198 1.79208 6.12991L2.26717 6.69252L2.89854 7.48642L3.62368 8.53037L4.35507 9.78686L5.0177 11.1684L5.5553 12.5624L5.95538 13.8564L6.26794 14.9316C6.27324 14.9486 6.27949 14.9653 6.28669 14.9816L6.618 15.7567C6.61991 15.7631 6.62199 15.7693 6.62425 15.7755L6.8618 16.2631L6.93056 16.5819C6.97155 16.7 7.05318 16.746 7.17545 16.7201C7.29772 16.6942 7.35361 16.6189 7.34314 16.4944L7.27438 16.1693V15.6255C7.27299 15.6128 7.2709 15.6003 7.26813 15.588L7.18686 14.7503C7.18411 14.7292 7.17995 14.7083 7.17436 14.6878L6.89931 13.5938C6.89744 13.5854 6.89536 13.5771 6.89305 13.5688L6.49923 12.2561C6.49736 12.2477 6.49528 12.2394 6.49298 12.2311L5.98038 10.787C5.97644 10.7786 5.97227 10.7703 5.96788 10.762L5.35526 9.31177C5.34593 9.29241 5.33551 9.27365 5.32401 9.2555L4.60512 7.94901C4.59539 7.93393 4.58497 7.91934 4.57386 7.90525L3.83622 6.81754C3.82838 6.80471 3.82004 6.79221 3.81122 6.78003L3.15484 5.97363C3.14308 5.95841 3.13058 5.94382 3.11734 5.92987L2.59849 5.39852C2.57735 5.37572 2.55443 5.35488 2.52972 5.33601L2.1359 5.0547C2.10654 5.03447 2.07529 5.0178 2.04213 5.0047L1.82334 4.91718L1.74833 4.88592C1.77308 4.97919 1.82934 5.04587 1.91711 5.08596L1.9046 5.03595C1.82091 5.1158 1.79382 5.21166 1.82334 5.32351L1.84209 5.30475H1.84834C1.97978 5.20867 2.00873 5.088 1.9352 4.94275C1.86168 4.79749 1.74729 4.74938 1.59205 4.79841Z" fill="black"/>
<path d="M6.72429 15.7943C6.72429 15.9693 6.8118 16.0568 6.98684 16.0568C7.16187 16.0568 7.24939 15.9693 7.24939 15.7943C7.24939 15.6192 7.16187 15.5317 6.98684 15.5317C6.8118 15.5317 6.72429 15.6192 6.72429 15.7943ZM7.26189 15.7943L7.26814 15.763C7.25662 15.7932 7.25037 15.8245 7.24939 15.8568L7.26814 15.8005C7.23757 15.831 7.21465 15.8664 7.19938 15.9068L7.25564 15.8505C7.17458 15.8585 7.10582 15.8918 7.04935 15.9505L7.12436 15.9443L7.27439 15.938L7.51194 15.9255H7.8745C7.90178 15.9258 7.92887 15.9238 7.95577 15.9193L8.43711 15.838C8.46054 15.8336 8.48346 15.8274 8.50587 15.8193L9.06848 15.6255C9.08785 15.6185 9.1066 15.6102 9.12474 15.6005L9.7061 15.2879C9.71893 15.2823 9.73143 15.2761 9.74361 15.2692L10.3125 14.8878C10.3303 14.8746 10.347 14.86 10.3625 14.8441L10.8251 14.419C10.834 14.409 10.8423 14.3986 10.8501 14.3877L11.2064 13.9814C11.2204 13.9659 11.2329 13.9492 11.2439 13.9314L11.4877 13.5251C11.4982 13.5051 11.5065 13.4843 11.5127 13.4626L11.6815 12.9937C11.6867 12.9794 11.6909 12.9648 11.694 12.95L11.8003 12.3999C11.8024 12.3957 11.8045 12.3916 11.8065 12.3874L11.9065 11.7622L12.0253 11.1121L12.1566 10.4495L12.3003 9.78686L12.4316 9.16799L12.5566 8.63664C12.5566 8.63456 12.5566 8.63247 12.5566 8.63039L12.6379 8.23657C12.6408 8.2221 12.6429 8.20751 12.6442 8.19281L12.6629 7.96151L12.6942 7.88025L12.8004 7.76147L13.1005 7.48642L13.5568 7.0926L14.1695 6.58C14.1737 6.57593 14.1779 6.57177 14.182 6.5675L14.9133 5.89237C14.9176 5.88831 14.9218 5.88414 14.9258 5.87987L15.751 5.01095L16.5949 4.10453L17.3388 3.36064C17.4058 3.26596 17.3983 3.17762 17.3163 3.0956C17.2343 3.01359 17.1459 3.00608 17.0513 3.07308L16.3074 3.81072L15.3697 4.61088L14.4633 5.37977L13.7006 6.01739L13.0817 6.52374C13.0796 6.5258 13.0776 6.52788 13.0755 6.52999L12.6129 6.93007C12.6108 6.93213 12.6087 6.93421 12.6067 6.93632L12.2878 7.22387C12.2768 7.23367 12.2664 7.24408 12.2566 7.25513L12.0878 7.44892C12.0574 7.48417 12.0345 7.52376 12.019 7.56769L11.9503 7.76147C11.9439 7.784 11.9398 7.80692 11.9378 7.83024L11.894 8.10529C11.8932 8.11988 11.8932 8.13446 11.894 8.14905L11.8753 8.53662L11.8128 9.04922L11.6877 9.65559L11.5502 10.3245C11.5481 10.3244 11.546 10.3244 11.544 10.3245L11.4127 10.9933C11.4127 10.9954 11.4127 10.9975 11.4127 10.9996L11.2939 11.656L11.1876 12.2748L11.0751 12.7937L10.9188 13.2L10.6875 13.5376L10.3437 13.8689L9.85613 14.219L9.31853 14.5815L8.78718 14.8378L8.28708 14.9628L7.85575 15.0004H7.49943C7.48684 15.0019 7.47434 15.004 7.46193 15.0066L7.20563 15.0316C7.12325 15.0383 7.04824 15.0654 6.98058 15.1129L6.85556 15.2066C6.74459 15.2866 6.68833 15.3949 6.68678 15.5317V15.613C6.6866 15.6192 6.6866 15.6255 6.68678 15.6317V15.713C6.6885 15.7214 6.69059 15.7297 6.69303 15.738L6.69928 15.7943C6.70156 15.8223 6.70781 15.8493 6.71803 15.8755L6.73054 15.9005C6.78634 16.0441 6.88978 16.1008 7.04086 16.0706C7.19194 16.0404 7.26562 15.9483 7.26189 15.7943Z" fill="black"/>
<path d="M2.04211 5.14222V5.13597C2.0438 5.1444 2.04589 5.15273 2.04836 5.16097L2.03586 5.12972L2.02961 5.10471C2.02608 5.09404 2.02191 5.08362 2.0171 5.07346L2.01085 5.06095C1.95512 4.93278 1.85808 4.87857 1.71971 4.89834C1.58135 4.91811 1.50337 4.99731 1.48575 5.13597V5.14847C1.48329 5.15671 1.4812 5.16504 1.4795 5.17347V5.19223L1.47325 5.21723C1.49076 5.19021 1.50327 5.16103 1.51076 5.12972L1.49826 5.14222L1.467 5.17347L1.34823 5.26724C1.33959 5.27308 1.33125 5.27934 1.32322 5.286L1.14819 5.45478C1.14608 5.45683 1.14399 5.45892 1.14194 5.46103L0.935649 5.67357C0.933536 5.67562 0.931452 5.67771 0.929398 5.67982L0.729359 5.89236C0.720342 5.90223 0.712007 5.91265 0.704355 5.92362L0.566829 6.1174C0.535511 6.16253 0.518841 6.21254 0.516819 6.26743V6.3612L0.504317 6.40496C0.49716 6.51922 0.548687 6.59185 0.658897 6.62285C0.769107 6.65384 0.850939 6.61872 0.904393 6.51748L0.923146 6.44872C0.866156 6.47578 0.828649 6.51953 0.810625 6.57999L0.916895 6.53623C0.944606 6.52362 0.969611 6.50695 0.991909 6.48622L1.16069 6.32369L1.37323 6.12366C1.37534 6.1216 1.37743 6.11952 1.37948 6.1174L1.58577 5.91111L1.76081 5.74858C1.76747 5.74056 1.77372 5.73222 1.77956 5.72358L1.89208 5.5923C1.90633 5.57694 1.91883 5.56027 1.92959 5.54229L1.9796 5.45478C1.98417 5.44665 1.98834 5.43831 1.9921 5.42977L2.01085 5.37976C2.02333 5.35395 2.03166 5.32686 2.03586 5.2985L2.04211 5.25474C2.0436 5.23807 2.0436 5.2214 2.04211 5.20473V5.17347C2.04041 5.16504 2.03832 5.15671 2.03586 5.14847V5.13597C1.96774 4.98395 1.85477 4.93457 1.69693 4.98782C1.5391 5.04106 1.47912 5.14879 1.51701 5.311L1.52326 5.3235C1.51718 5.29474 1.50677 5.26766 1.492 5.24224L1.49826 5.26724C1.50158 5.29096 1.50783 5.31388 1.51701 5.33601L1.53576 5.36726C1.56428 5.43043 1.61012 5.47627 1.67329 5.50479H1.67954C1.79437 5.55535 1.89615 5.53627 1.98487 5.44755C2.07359 5.35883 2.09267 5.25705 2.04211 5.14222Z" fill="black"/>
<path d="M0.322998 6.36118C0.322998 6.51955 0.402179 6.59873 0.560543 6.59873C0.718907 6.59873 0.798088 6.51955 0.798088 6.36118C0.798088 6.20282 0.718907 6.12364 0.560543 6.12364C0.402179 6.12364 0.322998 6.20282 0.322998 6.36118ZM0.823093 6.29867L0.816842 6.28617C0.799869 6.19375 0.749286 6.12667 0.665093 6.08494C0.5809 6.04321 0.496889 6.04357 0.41306 6.08603C0.329231 6.12849 0.279231 6.196 0.263059 6.28857C0.246886 6.38113 0.271034 6.4616 0.3355 6.52997L0.341751 6.53622C0.433951 6.65044 0.545868 6.67507 0.677504 6.61011C0.809139 6.54515 0.857668 6.44133 0.823093 6.29867ZM0.297993 6.2049L0.285491 6.22991C0.2639 6.26886 0.251398 6.31053 0.247983 6.35493L0.235481 6.49246C0.233812 6.5219 0.235896 6.55107 0.241732 6.57998L0.297993 6.88628C0.301031 6.90324 0.305199 6.91991 0.310495 6.93629L0.473026 7.43014C0.479381 7.45378 0.487716 7.4767 0.498031 7.4989L0.873103 8.19903C0.880802 8.21196 0.889137 8.22446 0.898107 8.23654L1.48572 9.09295C1.4898 9.0972 1.49397 9.10137 1.49822 9.10546L2.26712 10.1244L3.14228 11.2871L3.9862 12.5561L4.71133 13.8251L5.33645 14.9316C5.33643 14.9336 5.33643 14.9357 5.33645 14.9378L5.81779 15.7567L6.03659 16.3693C6.08848 16.4852 6.17422 16.5218 6.29383 16.4794C6.41343 16.437 6.45687 16.3544 6.42416 16.2318L6.20537 15.6067L5.94282 14.6815C5.9394 14.6688 5.93523 14.6563 5.93032 14.644L5.46148 13.4625C5.45402 13.4474 5.44569 13.4329 5.43647 13.4188L4.72384 12.1248C4.71789 12.1162 4.71164 12.1079 4.70508 12.0998L3.86117 10.7995C3.85716 10.7932 3.853 10.7869 3.84867 10.7808L2.986 9.59305C2.98394 9.59094 2.98186 9.58886 2.97975 9.5868L2.21711 8.5741L1.642 7.7427L1.24192 7.09257L1.01688 6.65499L0.891856 6.37369L0.835595 6.24866C0.817541 6.21011 0.792536 6.17677 0.760581 6.14864L0.735576 6.12989C0.66709 6.07077 0.588258 6.04885 0.499083 6.06414C0.409907 6.07942 0.342877 6.12635 0.297993 6.2049Z" fill="black"/>
<path d="M5.96783 16.0506L5.97408 16.0443C6.12325 15.9491 6.15634 15.8234 6.07337 15.6671C5.9904 15.5108 5.8677 15.4677 5.70528 15.538L5.69277 15.5505C5.62693 15.5969 5.58526 15.6594 5.56775 15.738L5.53649 15.8693C5.53372 15.8817 5.53163 15.8942 5.53024 15.9068L5.50524 16.1818C5.5044 16.1964 5.5044 16.211 5.50524 16.2256L5.51149 16.6632C5.51123 16.6715 5.51123 16.6798 5.51149 16.6882L5.56775 17.3196C5.56773 17.3216 5.56773 17.3237 5.56775 17.3258L5.66152 18.2197C5.6615 18.2218 5.6615 18.2239 5.66152 18.226L5.79279 19.3324L5.93657 20.5514L6.06784 21.7767L6.16786 22.9706L6.22412 24.0771L6.23038 25.096L6.18662 26.0837L6.09285 27.0026L6.01158 27.8028C6.00825 27.8214 6.00617 27.8402 6.00533 27.8591L6.02409 28.4717C6.02542 28.4843 6.02751 28.4968 6.03034 28.5092L6.0741 28.8718L6.04909 29.0843C6.03242 29.2218 6.09285 29.2989 6.23038 29.3156C6.3679 29.3323 6.445 29.2718 6.46167 29.1343L6.48667 28.928L6.6367 28.5904C6.64142 28.5803 6.64559 28.5698 6.64921 28.5592L6.83049 27.9778C6.83867 27.9554 6.84492 27.9325 6.84924 27.9091L6.96802 27.1089C6.96815 27.1027 6.96815 27.0964 6.96802 27.0902L7.06178 26.1587C7.06192 26.1525 7.06192 26.1462 7.06178 26.14L7.11804 25.1335C7.11828 25.1252 7.11828 25.1169 7.11804 25.1085L7.11179 24.0646C7.10985 24.0583 7.10776 24.052 7.10554 24.0458L7.05553 22.9206C7.05566 22.9144 7.05566 22.9081 7.05553 22.9019L6.95551 21.6954C6.95557 21.6912 6.95557 21.6871 6.95551 21.6829L6.82424 20.4514L6.68046 19.2324C6.6784 19.2303 6.67631 19.2282 6.67421 19.2262L6.53668 18.1197C6.53462 18.1176 6.53254 18.1155 6.53043 18.1135L6.40541 17.2258L6.31789 16.6007C6.31791 16.5986 6.31791 16.5965 6.31789 16.5944L6.25538 16.1631L6.21787 15.8943C6.2161 15.8859 6.21402 15.8775 6.21162 15.8693L6.18037 15.738C6.16286 15.6594 6.12118 15.5969 6.05534 15.5505L6.04284 15.538C5.88041 15.4677 5.75772 15.5108 5.67474 15.6671C5.59177 15.8234 5.62487 15.9491 5.77404 16.0443L5.78029 16.0506C5.8428 16.0732 5.90531 16.0732 5.96783 16.0506Z" fill="black"/>
<path d="M7.44935 17.032C7.44935 17.1945 7.53062 17.2758 7.69315 17.2758C7.85568 17.2758 7.93695 17.1945 7.93695 17.032C7.93695 16.8694 7.85568 16.7882 7.69315 16.7882C7.53062 16.7882 7.44935 16.8694 7.44935 17.032ZM7.4306 16.9194L7.39934 16.9757C7.39154 16.9918 7.38529 17.0085 7.38059 17.0257L7.34308 17.1632C7.34079 17.1694 7.33871 17.1757 7.33683 17.182L7.28682 17.4383C7.28425 17.4486 7.28216 17.459 7.28057 17.4695L7.23056 17.8759C7.2295 17.8925 7.2295 17.9092 7.23056 17.9259L7.24306 18.5385C7.24293 18.5447 7.24293 18.551 7.24306 18.5572L7.31183 19.3824C7.3117 19.3887 7.3117 19.3949 7.31183 19.4012L7.4306 20.4639L7.55562 21.7329L7.70565 23.1456C7.70553 23.1519 7.70553 23.1581 7.70565 23.1644L7.92444 24.6147C7.92438 24.6188 7.92438 24.623 7.92444 24.6272L8.16824 26.0024L8.39953 27.2402L8.51831 28.3154L8.58707 29.2343C8.58707 29.2364 8.58707 29.2384 8.58707 29.2405L8.65583 29.9344L8.63083 30.397C8.62249 30.5345 8.68709 30.6075 8.82462 30.6158C8.96214 30.6241 9.03507 30.5595 9.04341 30.422L9.06841 29.9407L9.12467 29.2343C9.12555 29.2218 9.12555 29.2093 9.12467 29.1968L9.06841 28.2716C9.06636 28.2695 9.06428 28.2674 9.06216 28.2653L8.95589 27.1714L8.86212 25.9149L8.76835 24.5209L8.65583 23.0581C8.65583 23.056 8.65583 23.0539 8.65583 23.0519L8.51831 21.6328L8.39328 20.3638C8.39126 20.3596 8.38918 20.3555 8.38703 20.3513L8.24951 19.2824C8.24957 19.2782 8.24957 19.2741 8.24951 19.2699L8.11198 18.4572L8.01196 17.8571L7.9557 17.4633L7.9307 17.2382L7.93695 17.1695L7.9432 17.1507C8.01318 16.9826 7.96518 16.8611 7.7992 16.7862C7.63321 16.7113 7.51034 16.7557 7.4306 16.9194Z" fill="black"/>
<path d="M6.51807 26.8963L6.49932 26.9151C6.48495 26.9304 6.47245 26.947 6.46181 26.9651L6.41805 27.0339C6.41365 27.0399 6.40948 27.0462 6.40555 27.0526L6.34929 27.1776C6.34702 27.1838 6.34493 27.1901 6.34304 27.1964L6.24302 27.4214C6.2258 27.4614 6.21538 27.5031 6.21176 27.5464L6.18051 27.9965C6.18025 28.0049 6.18025 28.0132 6.18051 28.0215L6.168 28.6529L6.1555 29.3718C6.15536 29.378 6.15536 29.3843 6.1555 29.3906L6.18051 30.0594C6.18232 30.0678 6.1844 30.0762 6.18676 30.0844L6.23052 30.6095C6.23171 30.6242 6.23379 30.6388 6.23677 30.6533L6.30553 30.9971C6.3145 31.0399 6.33117 31.0795 6.35554 31.1159L6.45556 31.2597C6.47999 31.2961 6.51124 31.3253 6.54933 31.3472L6.60559 31.3722C6.74644 31.4521 6.86521 31.4271 6.96191 31.2972L6.99316 31.2534C7.02035 31.2159 7.03702 31.1743 7.04317 31.1284L7.05567 31.0346C7.05684 31.02 7.05684 31.0054 7.05567 30.9909V30.8783C7.0537 30.8741 7.05161 30.8699 7.04942 30.8658L7.04317 30.7471C7.0432 30.745 7.0432 30.7429 7.04317 30.7408L7.03067 30.6283V30.5345C7.02898 30.5261 7.02689 30.5178 7.02442 30.5095L7.01192 30.4345C7.01101 30.4197 7.00892 30.4052 7.00566 30.3907L6.98691 30.3345C6.97021 30.2787 6.93895 30.2329 6.89314 30.197L6.86814 30.1782C6.81644 30.1388 6.7581 30.12 6.6931 30.1219H6.6556C6.64518 30.1213 6.63476 30.1213 6.62434 30.1219L6.58683 30.1282C6.55844 30.1323 6.53135 30.1406 6.50557 30.1532L6.48056 30.1657C6.5043 30.1624 6.52722 30.1562 6.54933 30.1469H6.52432C6.42336 30.1653 6.35251 30.2215 6.31178 30.3157L6.28678 30.3657C6.27825 30.3859 6.272 30.4067 6.26802 30.4282L6.26177 30.4783L6.24302 30.5345C6.23533 30.5611 6.23116 30.5882 6.23052 30.6158V30.6908C6.22889 30.7269 6.23306 30.7623 6.24302 30.7971L6.26802 30.8658C6.29354 30.9509 6.34355 31.0176 6.41805 31.0659L6.52432 31.1284C6.56457 31.1553 6.60832 31.1741 6.6556 31.1846L6.86814 31.2284C6.90535 31.2357 6.94286 31.2378 6.98066 31.2347L7.34323 31.2096C7.35793 31.2083 7.37251 31.2063 7.38699 31.2034L7.86833 31.1159C7.8987 31.1088 7.92787 31.0984 7.95585 31.0846L8.44969 30.8721C8.4518 30.87 8.45389 30.8679 8.45594 30.8658L8.86852 30.6658L9.20608 30.5783C9.33447 30.542 9.38249 30.4592 9.35013 30.3297C9.31777 30.2003 9.23642 30.1498 9.10606 30.1782L8.76225 30.2657L8.31216 30.2845L7.77456 30.3095C7.75986 30.3108 7.74528 30.3128 7.7308 30.3157L7.26196 30.3845L6.9369 30.422L6.76187 30.4157L6.73061 30.4095C6.75731 30.4853 6.80524 30.5436 6.87439 30.5845L6.86189 30.547V30.5345V30.497V30.4533C6.84588 30.4891 6.83754 30.5266 6.83688 30.5658L6.84938 30.5408C6.7971 30.5677 6.75751 30.6073 6.73061 30.6595L6.75562 30.647C6.7294 30.6517 6.7044 30.6601 6.6806 30.672H6.68685H6.6931C6.64622 30.6391 6.59413 30.6224 6.53683 30.622L6.56183 30.6408C6.54339 30.5841 6.51005 30.5383 6.46181 30.5033L6.48056 30.5408L6.48682 30.5845L6.49307 30.6658C6.49297 30.67 6.49297 30.6741 6.49307 30.6783L6.50557 30.7846V30.8846V30.9784L6.49307 31.0534C6.52026 31.0159 6.53693 30.9742 6.54308 30.9283L6.51182 30.9721C6.57144 31.0328 6.64366 31.06 6.72848 31.0536C6.81331 31.0473 6.8807 31.0097 6.93065 30.9408L6.88689 30.8971C6.8845 30.9775 6.91158 31.0462 6.96816 31.1034L6.97441 30.9346C6.97472 30.9263 6.97472 30.9179 6.97441 30.9096L6.95565 30.572L6.96816 30.0532L6.98066 29.3843L6.99316 28.6654L7.00566 28.034L7.01192 27.584C7.01182 27.5609 7.00973 27.5379 7.00566 27.5152L6.96816 27.2964V27.1964L6.97441 27.1401L6.98066 27.1214C7.00158 26.9901 6.95229 26.8955 6.8328 26.8373C6.71331 26.7792 6.6084 26.7989 6.51807 26.8963Z" fill="black"/>
<path d="M6.81784 31.0348L6.82409 31.0411C6.80828 31.0101 6.78744 30.983 6.76158 30.9598L6.78034 30.9973C6.77547 30.9712 6.76714 30.9462 6.75533 30.9223L6.76158 30.9598C6.77116 31.0056 6.78991 31.0473 6.81784 31.0848L6.8616 31.1411C6.90548 31.1995 6.96174 31.2412 7.03038 31.2661L7.15541 31.3161C7.18794 31.3267 7.22128 31.3329 7.25543 31.3349L7.44296 31.3536C7.45537 31.3563 7.46787 31.3584 7.48047 31.3599L7.68051 31.3536L7.88054 31.3599C7.89721 31.3609 7.91388 31.3609 7.93055 31.3599L8.11809 31.3411C8.1787 31.3354 8.23496 31.3167 8.28687 31.2849L8.4244 31.2036C8.45239 31.1864 8.4774 31.1655 8.49941 31.1411L8.60568 31.0223L8.73071 30.9036C8.73726 30.8976 8.74351 30.8914 8.74946 30.8848L8.84948 30.7723C8.89181 30.7216 8.91265 30.6633 8.91199 30.5972V30.5535L8.92449 30.5347C8.98685 30.4098 8.95556 30.316 8.83065 30.2536C8.70573 30.1911 8.61199 30.2223 8.54942 30.3472L8.51817 30.4097C8.5662 30.3898 8.60162 30.3564 8.62444 30.3097L8.53692 30.3472C8.50632 30.3609 8.47923 30.3796 8.45565 30.4035L8.36189 30.4972L8.28687 30.5535L8.23061 30.5597L8.11809 30.5535C8.10142 30.5524 8.08475 30.5524 8.06808 30.5535L7.89305 30.5597L7.69926 30.5535C7.69509 30.5534 7.69093 30.5534 7.68676 30.5535L7.48672 30.5472L7.30544 30.541C7.29073 30.5423 7.27615 30.5443 7.26168 30.5472L7.12415 30.5535C7.09179 30.5577 7.06053 30.566 7.03038 30.5785L6.96787 30.5972C7.00651 30.5978 7.04402 30.5916 7.08039 30.5785H7.04289C7.0933 30.6216 7.15164 30.6445 7.21792 30.6473L7.18666 30.6223C7.15033 30.5907 7.10866 30.5699 7.06164 30.5597H7.04914C6.96196 30.5433 6.88486 30.5641 6.81784 30.6223C6.75353 30.676 6.72137 30.7447 6.72137 30.8285C6.72137 30.9123 6.75353 30.9811 6.81784 31.0348Z" fill="black"/>
<path d="M7.54287 30.9598C7.54287 31.1307 7.62831 31.2161 7.79917 31.2161C7.97004 31.2161 8.05547 31.1307 8.05547 30.9598C8.05547 30.7889 7.97004 30.7035 7.79917 30.7035C7.62831 30.7035 7.54287 30.7889 7.54287 30.9598ZM7.49911 30.9661C7.49921 31.1618 7.59715 31.2597 7.79292 31.2597C7.9887 31.2597 8.08663 31.1618 8.08673 30.9661C8.08663 30.7703 7.9887 30.6724 7.79292 30.6724C7.59715 30.6724 7.49921 30.7703 7.49911 30.9661ZM7.6679 31.2724L7.7054 31.2849C7.89259 31.3735 8.0329 31.3254 8.12633 31.1405C8.21976 30.9557 8.1753 30.8142 7.99296 30.716L7.95545 30.691C7.87412 30.6436 7.78836 30.6334 7.69819 30.6605C7.60801 30.6875 7.54204 30.7433 7.5003 30.8277C7.45855 30.9121 7.45428 30.9983 7.48749 31.0864C7.5207 31.1745 7.58083 31.2365 7.6679 31.2724ZM7.84293 31.2161L7.91169 31.2349C8.04502 31.2723 8.13043 31.2244 8.16792 31.0911C8.20542 30.9578 8.15751 30.8723 8.02421 30.8348L7.95545 30.816C7.82215 30.7786 7.73676 30.8266 7.69927 30.9598C7.66179 31.0931 7.70967 31.1785 7.84293 31.2161Z" fill="black"/>
<path d="M3.05465 12.3313H3.0609C3.17673 12.2882 3.23507 12.2049 3.23593 12.0813V12.0625C3.22757 12.089 3.2234 12.1161 3.22343 12.1438L3.22968 12.1313V12.125C3.11536 12.1318 3.03618 12.1881 2.99214 12.2938L3.01714 12.2876C2.97542 12.2685 2.93166 12.2602 2.88587 12.2626L2.92962 12.2813C2.90108 12.2127 2.85315 12.1627 2.78585 12.1313L2.81085 12.2L2.85461 12.3751C2.85811 12.3878 2.86227 12.4003 2.86711 12.4126L2.99214 12.7564C2.99207 12.7606 2.99207 12.7647 2.99214 12.7689L3.19217 13.2565C3.19216 13.2586 3.19216 13.2607 3.19217 13.2627L3.44222 13.8629L3.70477 14.5255L3.92356 15.2131L4.1111 15.882L4.24237 16.4946L4.34239 17.0385L4.41116 17.4948C4.41261 17.5053 4.41469 17.5158 4.41741 17.5261L4.49867 17.8449L4.50492 18.0574C4.5092 18.1948 4.58005 18.2614 4.71746 18.2573C4.85487 18.2531 4.92155 18.1823 4.9175 18.0449L4.91125 17.8199L4.93626 17.4761C4.93748 17.4615 4.93748 17.4469 4.93626 17.4323L4.8925 16.9697C4.89259 16.9655 4.89259 16.9614 4.8925 16.9572L4.81748 16.4008C4.81784 16.3925 4.81784 16.3842 4.81748 16.3758L4.67996 15.7507C4.67797 15.7465 4.67589 15.7423 4.67371 15.7382L4.48617 15.0568C4.48619 15.0548 4.48619 15.0527 4.48617 15.0506L4.28613 14.3442C4.28615 14.3421 4.28615 14.34 4.28613 14.338L4.07984 13.6441L3.89231 13.0127C3.89039 13.0064 3.8883 13.0001 3.88606 12.9939L3.70477 12.4939C3.70297 12.4854 3.70089 12.4771 3.69852 12.4688L3.54849 12.1375C3.53389 12.1057 3.51514 12.0765 3.49223 12.05L3.36721 11.8937C3.3376 11.859 3.30217 11.832 3.26094 11.8125L3.17967 11.7687C3.14785 11.7543 3.11451 11.746 3.07965 11.7437L3.03589 11.7375C2.98354 11.7317 2.93353 11.7401 2.88587 11.7625L2.86086 11.7687C2.78492 11.8069 2.73699 11.8674 2.71708 11.95L2.71083 11.9625V11.9688C2.70108 11.9993 2.69691 12.0305 2.69833 12.0625V12.0813C2.69919 12.2049 2.75753 12.2882 2.87336 12.3313H2.87961C2.93796 12.3519 2.9963 12.3519 3.05465 12.3313Z" fill="black"/>
<path d="M3.53606 12.9752H3.52981C3.54679 12.9583 3.56138 12.9395 3.57357 12.9189L3.55482 12.9377C3.49317 13.0049 3.46191 13.084 3.46105 13.1752V13.369C3.45956 13.3898 3.45956 13.4107 3.46105 13.4315L3.50481 13.7878C3.50771 13.8089 3.51188 13.8298 3.51731 13.8503L3.65484 14.4067C3.65473 14.413 3.65473 14.4192 3.65484 14.4255L3.86113 15.1693L4.09867 16.057L4.34872 16.9947L4.53625 17.9199L4.69253 18.7513C4.6962 18.764 4.70037 18.7765 4.70504 18.7888L4.88007 19.4452C4.88213 19.4473 4.88421 19.4494 4.88632 19.4514L5.01134 19.8952L5.04885 20.1766C5.05083 20.2115 5.05916 20.2448 5.07386 20.2766L5.13012 20.3766C5.17816 20.3062 5.18233 20.2332 5.14262 20.1578L5.13012 20.1766C5.06869 20.2894 5.09113 20.3819 5.19745 20.454C5.30377 20.5262 5.39801 20.5129 5.48018 20.4141L5.49269 20.3953C5.49719 20.3893 5.50135 20.3831 5.50519 20.3766L5.56145 20.2766C5.58294 20.2355 5.59336 20.1917 5.59271 20.1453L5.58645 19.8515L5.63646 19.3889C5.63882 19.3806 5.64091 19.3723 5.64271 19.3639L5.67397 18.6825C5.67657 18.6533 5.67657 18.6242 5.67397 18.595L5.5677 17.7573C5.56574 17.7511 5.56365 17.7448 5.56145 17.7386L5.41142 16.7822C5.40935 16.7801 5.40727 16.778 5.40517 16.7759L5.23639 15.807C5.23279 15.7922 5.22862 15.7776 5.22389 15.7632L4.99884 14.8693C4.99704 14.8588 4.99496 14.8484 4.99259 14.838L4.7613 14.1004C4.75601 14.0813 4.74976 14.0626 4.74254 14.0441L4.5175 13.519C4.50364 13.4883 4.48697 13.4591 4.46749 13.4315L4.2612 13.1315C4.24514 13.1044 4.22639 13.0794 4.20494 13.0564L4.06742 12.9252C3.97933 12.8403 3.87514 12.809 3.75486 12.8314H3.72985C3.69893 12.8369 3.66976 12.8474 3.64233 12.8627V12.8689C3.59685 12.8943 3.56143 12.9297 3.53606 12.9752Z" fill="black"/>
<path d="M3.95486 14.1754C3.95486 14.3546 4.04446 14.4442 4.22366 14.4442C4.40286 14.4442 4.49246 14.3546 4.49246 14.1754C4.49246 13.9962 4.40286 13.9066 4.22366 13.9066C4.04446 13.9066 3.95486 13.9962 3.95486 14.1754ZM3.93611 14.1691C3.93611 14.3567 4.02987 14.4504 4.21741 14.4504C4.40494 14.4504 4.49871 14.3567 4.49871 14.1691C4.49871 13.9816 4.40494 13.8878 4.21741 13.8878C4.02987 13.8878 3.93611 13.9816 3.93611 14.1691ZM3.8861 14.1816C3.8861 14.2731 3.91844 14.3512 3.98313 14.4159C4.04783 14.4806 4.12592 14.513 4.21741 14.513C4.3089 14.513 4.38699 14.4806 4.45168 14.4159C4.51638 14.3512 4.54872 14.2731 4.54872 14.1816C4.54872 14.0902 4.51638 14.0121 4.45168 13.9474C4.38699 13.8827 4.3089 13.8503 4.21741 13.8503C4.12592 13.8503 4.04783 13.8827 3.98313 13.9474C3.91844 14.0121 3.8861 14.0902 3.8861 14.1816ZM3.77983 14.2879L3.76732 14.6317C3.76643 14.6653 3.76851 14.6986 3.77357 14.7317L3.86734 15.4069C3.86725 15.4131 3.86725 15.4194 3.86734 15.4256L4.04238 16.4321C4.04444 16.4342 4.04653 16.4363 4.04863 16.4383L4.27992 17.6698C4.27982 17.6761 4.27982 17.6823 4.27992 17.6886L4.56122 19.0013L4.83003 20.3078L5.03631 21.508C5.03617 21.5143 5.03617 21.5205 5.03631 21.5268L5.24885 22.5207L5.38013 23.2646L5.43014 23.7835C5.4316 23.794 5.43369 23.8044 5.43639 23.8147L5.4989 24.0898L5.49265 24.2211C5.48848 24.3586 5.55516 24.4294 5.69269 24.4336C5.83022 24.4378 5.90106 24.3711 5.90523 24.2336L5.91148 24.096L5.96149 23.8085C5.96654 23.7858 5.96863 23.7629 5.96774 23.7397L5.93649 23.2146L5.90523 22.4457L5.86772 21.4205C5.86811 21.4101 5.86811 21.3997 5.86772 21.3893L5.72395 20.1765L5.58017 18.8388L5.43639 17.501C5.43649 17.4948 5.43649 17.4885 5.43639 17.4823L5.25511 16.2383C5.2532 16.2299 5.25111 16.2216 5.24885 16.2133L5.06132 15.2068C5.05977 15.1922 5.05768 15.1776 5.05507 15.1631L4.87378 14.5005C4.86168 14.4589 4.84501 14.4194 4.82377 14.3817L4.66124 14.0816C4.54782 13.8709 4.37459 13.7928 4.14155 13.8473C3.90852 13.9018 3.78794 14.0487 3.77983 14.2879Z" fill="black"/>
<path d="M7.7493 17.0197L7.75555 16.9947C7.74382 17.0186 7.73549 17.0436 7.73055 17.0697L7.7368 17.0572C7.77627 16.9777 7.78044 16.8965 7.7493 16.8134L7.74305 16.8009C7.70969 16.7113 7.64791 16.6506 7.55772 16.6188C7.46753 16.5871 7.38136 16.5957 7.29922 16.6446L7.28671 16.6509C7.23847 16.6803 7.20096 16.7199 7.17419 16.7696L7.14294 16.8197C7.12314 16.8569 7.11064 16.8965 7.10543 16.9384L7.08042 17.0697C7.07978 17.0822 7.07978 17.0947 7.08042 17.1072L7.06792 17.376C7.06749 17.3864 7.06749 17.3968 7.06792 17.4073L7.08042 17.8261C7.08036 17.8303 7.08036 17.8344 7.08042 17.8386L7.11168 18.4387L7.16794 19.2014L7.23045 20.0578L7.29922 20.9454C7.29915 20.9496 7.29915 20.9538 7.29922 20.9579L7.38673 21.8206C7.38659 21.8269 7.38659 21.8331 7.38673 21.8394L7.51176 22.6645C7.51354 22.6729 7.51563 22.6813 7.51801 22.6895L7.68679 23.4334L7.79306 24.0898C7.79455 24.1003 7.79664 24.1107 7.79931 24.121L7.94309 24.6336L7.99935 25.0087C8.03855 25.1188 8.1159 25.165 8.23141 25.1475C8.34692 25.13 8.40709 25.0629 8.41193 24.9462L8.36192 24.5711L8.34942 24.0398C8.34979 24.0314 8.34979 24.0231 8.34942 24.0148L8.26815 23.3521L8.23689 22.5958C8.23691 22.5937 8.23691 22.5916 8.23689 22.5895L8.19314 21.7518C8.1912 21.7455 8.18912 21.7393 8.18689 21.7331L8.09937 20.8767L8.0181 19.989L7.94309 19.1451L7.88683 18.3887L7.84307 17.7886L7.81807 17.376L7.80556 17.1072C7.80621 17.0947 7.80621 17.0822 7.80556 17.0697L7.78056 16.9384C7.77797 16.9193 7.7738 16.9006 7.76806 16.8822L7.7493 16.8197C7.75133 16.8409 7.7555 16.8618 7.7618 16.8822V16.8697C7.67442 16.7325 7.5541 16.6911 7.40083 16.7456C7.24756 16.8001 7.18035 16.9081 7.1992 17.0697L7.20545 17.0822C7.23464 17.1307 7.27424 17.1682 7.32422 17.1947L7.33672 17.201C7.33881 17.201 7.34089 17.201 7.34297 17.201L7.36173 17.2135C7.44246 17.2518 7.5228 17.251 7.60274 17.211C7.68269 17.1711 7.73154 17.1073 7.7493 17.0197Z" fill="black"/>
<path d="M7.31169 20.1953L7.29294 20.2453C7.28209 20.2735 7.27584 20.3026 7.27418 20.3328L7.26793 20.5078C7.26791 20.5099 7.26791 20.512 7.26793 20.5141L7.26168 20.9016C7.261 20.9141 7.261 20.9266 7.26168 20.9391L7.31794 21.5643C7.31792 21.5663 7.31792 21.5684 7.31794 21.5705L7.40546 22.3957C7.40544 22.3978 7.40544 22.3998 7.40546 22.4019L7.63675 24.3335L7.75553 25.3025L7.85554 26.1964L7.93681 26.9965L8.01182 27.6654C8.01345 27.6759 8.01553 27.6864 8.01808 27.6967L8.11184 28.2155C8.11176 28.2197 8.11176 28.2239 8.11184 28.228L8.30563 29.0907C8.34075 29.1979 8.41449 29.2464 8.52685 29.2362C8.63921 29.226 8.703 29.165 8.71821 29.0532L8.74321 28.1655C8.74323 28.1634 8.74323 28.1614 8.74321 28.1593L8.73696 27.6279C8.73761 27.6154 8.73761 27.6029 8.73696 27.5904L8.67445 26.9215L8.59319 26.1214C8.5932 26.1193 8.5932 26.1172 8.59319 26.1151L8.49317 25.215L8.37439 24.246L8.1306 22.3144L8.03058 21.4892C8.03065 21.4851 8.03065 21.4809 8.03058 21.4767L7.93681 20.8579C7.93689 20.8537 7.93689 20.8495 7.93681 20.8454L7.86805 20.4766L7.84929 20.314L7.84304 20.264C7.82851 20.1192 7.74905 20.0374 7.60466 20.0187C7.46028 20 7.36262 20.0589 7.31169 20.1953Z" fill="black"/>
<path d="M7.53047 24.4086C7.53047 24.5961 7.62424 24.6899 7.81177 24.6899C7.99931 24.6899 8.09308 24.5961 8.09308 24.4086C8.09308 24.221 7.99931 24.1273 7.81177 24.1273C7.62424 24.1273 7.53047 24.221 7.53047 24.4086ZM7.60548 24.1898L7.54297 24.2398C7.45323 24.3198 7.40531 24.4198 7.39919 24.5399L7.38044 24.8649C7.37746 24.8962 7.37746 24.9274 7.38044 24.9587L7.45545 25.5338C7.45742 25.5401 7.4595 25.5463 7.46171 25.5525L7.58673 26.3339C7.58848 26.3444 7.59057 26.3549 7.59298 26.3652L7.79302 27.2341L7.99306 28.0968L8.15559 28.8907L8.28061 29.5846L8.36813 30.1597L8.42439 30.591L8.46815 30.8973C8.46813 30.8994 8.46813 30.9015 8.46815 30.9036L8.49315 31.0974C8.50826 31.1964 8.55618 31.2756 8.63693 31.3349L8.69319 31.3787C8.68139 31.3007 8.64388 31.2382 8.58067 31.1911L8.58692 31.2349C8.61622 31.4264 8.72664 31.5076 8.9182 31.4785C9.10975 31.4493 9.19103 31.3389 9.16203 31.1474L9.15578 31.1036C9.09922 31.1683 9.0763 31.2434 9.08702 31.3286L9.13702 31.2724C9.19033 31.2068 9.21742 31.1318 9.21829 31.0473L9.22454 30.8536C9.22564 30.8369 9.22564 30.8202 9.22454 30.8035L9.18703 30.4972C9.18703 30.4952 9.18703 30.4931 9.18703 30.491L9.13077 30.0534C9.12877 30.0492 9.12668 30.045 9.12452 30.0409L9.03075 29.4595C9.03075 29.4575 9.03075 29.4554 9.03075 29.4533L8.90573 28.7594L8.7682 27.9593L8.67444 27.0841L8.58067 26.1964C8.57871 26.1901 8.57662 26.1839 8.57442 26.1777L8.45564 25.3963C8.45362 25.3921 8.45154 25.3879 8.44939 25.3838L8.34937 24.8149C8.34714 24.7896 8.34297 24.7646 8.33687 24.7399L8.2306 24.4273C8.19611 24.3236 8.13151 24.2444 8.03682 24.1898L7.96805 24.1523C7.83849 24.0806 7.71763 24.0931 7.60548 24.1898Z" fill="black"/>
<path d="M4.85502 21.0142V21.0955C4.85499 21.0976 4.85499 21.0997 4.85502 21.1017L4.86752 21.6331V22.1144V22.702C4.8675 22.7041 4.8675 22.7062 4.86752 22.7083L4.88002 23.3772L4.89252 24.0898L4.89878 24.8212L4.91128 25.5276L4.90503 26.1965L4.87377 26.8591L4.81751 27.5155L4.755 28.1656C4.75498 28.1677 4.75498 28.1698 4.755 28.1718L4.70499 28.7782C4.70497 28.7803 4.70497 28.7824 4.70499 28.7845L4.67373 29.3158C4.67138 29.3408 4.67138 29.3658 4.67373 29.3908L4.72999 29.8284L4.78 30.1722C4.78124 30.1849 4.78332 30.1974 4.78625 30.2097L4.84251 30.4223L4.86127 30.5598C4.87794 30.7057 4.9592 30.7703 5.10507 30.7536C5.25093 30.7369 5.31552 30.6556 5.29885 30.5098L5.28635 30.391L5.33011 30.1972C5.33304 30.1849 5.33512 30.1724 5.33636 30.1597L5.36761 29.8347L5.45513 29.4221C5.45802 29.4076 5.46011 29.393 5.46138 29.3783L5.51764 28.847C5.51766 28.8449 5.51766 28.8428 5.51764 28.8407L5.56765 28.2344L5.61766 27.5842C5.61768 27.5821 5.61768 27.5801 5.61766 27.578L5.66142 26.9091C5.66144 26.907 5.66144 26.9049 5.66142 26.9028L5.69268 26.2277C5.69283 26.2215 5.69283 26.2152 5.69268 26.209L5.69893 25.5276C5.69895 25.5255 5.69895 25.5234 5.69893 25.5213L5.68643 24.8087L5.66767 24.0773C5.66769 24.0752 5.66769 24.0731 5.66767 24.0711L5.64267 23.3584C5.64274 23.3543 5.64274 23.3501 5.64267 23.3459L5.60516 22.677C5.60518 22.675 5.60518 22.6729 5.60516 22.6708L5.55515 22.0894C5.55523 22.0853 5.55523 22.0811 5.55515 22.0769L5.49889 21.5956C5.49891 21.5935 5.49891 21.5914 5.49889 21.5893L5.42388 21.058C5.4239 21.0559 5.4239 21.0538 5.42388 21.0517L5.41137 20.9767C5.37868 20.8159 5.28049 20.7411 5.11679 20.7521C4.95309 20.7631 4.86583 20.8505 4.85502 21.0142Z" fill="black"/>
<path d="M4.88632 26.1839V26.2339C4.9 26.2041 4.90834 26.1729 4.91132 26.1402L4.84881 26.2652C4.83335 26.297 4.82293 26.3303 4.81755 26.3652L4.69253 27.0841C4.68951 27.1007 4.68743 27.1173 4.68628 27.1341L4.66127 27.6842L4.59251 28.947C4.5925 28.949 4.5925 28.9511 4.59251 28.9532L4.56751 29.5658L4.5425 30.1409L4.52375 30.6723L4.49874 31.1224C4.49873 31.1245 4.49873 31.1265 4.49874 31.1286L4.48624 31.4974C4.48449 31.5204 4.48449 31.5433 4.48624 31.5662L4.5175 31.7975C4.51856 31.8143 4.52064 31.831 4.52375 31.8475L4.54875 31.9538C4.58744 32.1252 4.69415 32.2204 4.86888 32.2393C5.04362 32.2582 5.1682 32.188 5.24264 32.0288L5.29264 31.9288C5.30637 31.9008 5.31679 31.8716 5.3239 31.8413L5.37391 31.61C5.37928 31.5915 5.38345 31.5727 5.38641 31.5537L5.42392 31.1974C5.42414 31.1891 5.42414 31.1807 5.42392 31.1724L5.44892 30.716C5.44894 30.714 5.44894 30.7119 5.44892 30.7098L5.46768 30.1784L5.49268 29.6033L5.51769 28.9907L5.57395 27.728C5.574 27.7238 5.574 27.7196 5.57395 27.7155L5.58645 27.1654C5.5853 27.1486 5.58322 27.1319 5.5802 27.1154L5.51144 26.384C5.50693 26.3537 5.49859 26.3245 5.48643 26.2965L5.43642 26.1652L5.41767 26.1214C5.3678 25.9856 5.27102 25.9261 5.12733 25.9431C4.98364 25.96 4.9033 26.0403 4.88632 26.1839ZM5.21138 31.71L5.18637 31.6662C5.17833 31.7309 5.19083 31.7913 5.22388 31.8475L5.24264 31.7225C5.25036 31.6756 5.24619 31.6297 5.23013 31.585L5.21138 31.5475L5.22388 31.4974C5.23104 31.3832 5.17951 31.3106 5.0693 31.2796C4.95909 31.2486 4.87726 31.2837 4.82381 31.3849L4.80505 31.4474L4.76129 31.4912C4.7362 31.5186 4.71745 31.5499 4.70503 31.585L4.66127 31.71C4.72481 31.6745 4.76856 31.6224 4.79255 31.5537L4.74879 31.5787C4.668 31.6246 4.61514 31.6922 4.59021 31.7817C4.56529 31.8712 4.57555 31.9565 4.62101 32.0375C4.66646 32.1185 4.73387 32.1717 4.82324 32.197C4.91261 32.2224 4.99791 32.2125 5.07914 32.1675C5.16038 32.1224 5.21389 32.0553 5.23969 31.966C5.26548 31.8768 5.25605 31.7914 5.21138 31.71Z" fill="black"/>
<path d="M4.79254 30.6285C4.79254 30.8077 4.88214 30.8973 5.06134 30.8973C5.24054 30.8973 5.33014 30.8077 5.33014 30.6285C5.33014 30.4493 5.24054 30.3597 5.06134 30.3597C4.88214 30.3597 4.79254 30.4493 4.79254 30.6285ZM4.8363 30.4723L4.81129 30.5035C4.79624 30.5228 4.78374 30.5437 4.77379 30.566L4.74878 30.6285C4.7465 30.6347 4.74442 30.641 4.74253 30.6473L4.71127 30.7286C4.70063 30.7589 4.69438 30.7902 4.69252 30.8223L4.68002 30.9474C4.67885 30.964 4.67885 30.9807 4.68002 30.9974L4.69252 31.1536C4.69223 31.162 4.69223 31.1703 4.69252 31.1786L4.71752 31.3537C4.71914 31.3642 4.72123 31.3746 4.72378 31.3849L4.76753 31.5725C4.76932 31.5809 4.7714 31.5892 4.77379 31.5975L4.83005 31.76C4.83352 31.7727 4.83769 31.7852 4.84255 31.7975L4.88631 31.9038C4.93089 32.0047 5.0059 32.0714 5.11135 32.1038L5.15511 32.1163C5.3807 32.1832 5.53907 32.1082 5.6302 31.8913L5.69896 31.7225C5.71309 31.6925 5.72351 31.6612 5.73022 31.6287L5.78648 31.2787C5.78661 31.2724 5.78661 31.2662 5.78648 31.2599L5.84274 30.7786C5.84275 30.7765 5.84275 30.7744 5.84274 30.7723L5.89275 30.2785L5.94901 29.8659C5.95216 29.8473 5.95424 29.8285 5.95526 29.8096L5.96151 29.5971C5.9651 29.4692 5.92586 29.3562 5.84379 29.2581C5.76172 29.1599 5.65744 29.1013 5.53094 29.0822C5.40444 29.0631 5.2875 29.0883 5.18012 29.1579C5.07273 29.2274 5.00189 29.3238 4.96757 29.4471L4.95507 29.4908C4.94358 29.5317 4.93732 29.5734 4.93632 29.6158V29.8346C4.9361 29.843 4.9361 29.8513 4.93632 29.8596L4.94882 30.1847C4.94869 30.191 4.94869 30.1972 4.94882 30.2035L4.97382 30.5535C4.97518 30.5682 4.97726 30.5828 4.98007 30.5973L5.03634 30.9161C5.04085 30.9484 5.04919 30.9796 5.06134 31.0099L5.15511 31.2349L5.21762 31.4037C5.22118 31.4144 5.22534 31.4248 5.23012 31.4349L5.26763 31.5037C5.3518 31.6384 5.46722 31.6753 5.61391 31.6145C5.76061 31.5536 5.81604 31.4459 5.78023 31.2912L5.77398 31.2599V31.1536L5.82399 30.9348C5.82688 30.9204 5.82896 30.9058 5.83024 30.8911L5.86149 30.5598C5.86151 30.5577 5.86151 30.5556 5.86149 30.5535L5.8865 30.2035C5.88651 30.2014 5.88651 30.1993 5.8865 30.1972L5.90525 29.8972L5.94276 29.7034C5.92887 29.7356 5.91845 29.769 5.9115 29.8034L5.924 29.7721C5.91556 29.4986 5.77668 29.3377 5.50735 29.2894C5.23803 29.241 5.05185 29.3436 4.94882 29.5971L4.95507 29.8096C4.95474 29.8201 4.95474 29.8305 4.95507 29.8409L4.98633 30.2285L4.96757 30.6973L4.92381 31.1724L4.89256 31.5225L4.8738 31.71C4.90881 31.6567 4.92965 31.5984 4.93632 31.535L4.91131 31.5662C4.94101 31.6234 4.98296 31.6693 5.03715 31.7041C5.09134 31.7389 5.15059 31.7579 5.21491 31.7611C5.27922 31.7643 5.34008 31.7513 5.39747 31.7221C5.45486 31.6929 5.50118 31.6514 5.53643 31.5975L5.49892 31.5225L5.46142 31.3974L5.42391 31.2349L5.40516 31.0849L5.39265 30.9474L5.38015 30.8223C5.37901 30.8076 5.37692 30.793 5.3739 30.7786L5.35515 30.6848C5.35516 30.6827 5.35516 30.6806 5.35515 30.6785L5.34264 30.641V30.616C5.33173 30.4868 5.26391 30.4045 5.13918 30.3691C5.01444 30.3337 4.91348 30.3681 4.8363 30.4723ZM5.73022 31.4725L5.76147 31.4224C5.81909 31.3132 5.79564 31.2257 5.69112 31.1599C5.58659 31.094 5.49753 31.1107 5.42391 31.2099L5.39265 31.2599C5.33504 31.3692 5.35849 31.4567 5.46301 31.5225C5.56753 31.5883 5.6566 31.5716 5.73022 31.4725Z" fill="black"/>
<path d="M5.4114 30.866L5.39265 30.9036C5.37338 30.9408 5.36296 30.9804 5.36139 31.0223L5.35514 31.1036L5.33639 31.2099C5.33561 31.2224 5.33561 31.2349 5.33639 31.2474L5.33014 31.3661C5.32952 31.398 5.33369 31.4293 5.34264 31.4599L5.36139 31.5412C5.38321 31.6276 5.43322 31.6922 5.51142 31.735L5.57393 31.7662C5.71585 31.8406 5.83462 31.8135 5.93025 31.6849L5.9365 31.6724C5.84578 31.6516 5.77285 31.6787 5.71771 31.7537L5.76772 31.7662C5.90003 31.7912 5.98204 31.7383 6.01377 31.6075C6.04549 31.4766 5.99682 31.392 5.86774 31.3536L5.81773 31.3411C5.77365 31.4833 5.82366 31.5729 5.96776 31.6099L5.97401 31.5974C5.98994 31.548 5.99203 31.498 5.98026 31.4474L5.96151 31.3911L5.94901 31.3286L5.9365 31.2286L5.93025 31.1161L5.924 31.0223C5.92458 31.0119 5.92458 31.0015 5.924 30.9911L5.91775 30.9536C5.90096 30.8223 5.82734 30.7453 5.6969 30.7228C5.56646 30.7002 5.47129 30.748 5.4114 30.866Z" fill="black"/>
</g>
<defs>
<clipPath id="clip0_1_7278">
<rect width="19" height="33" fill="white"/>
</clipPath>
</defs>
</svg>
