<svg width="41" height="33" viewBox="0 0 41 33" fill="none" xmlns="http://www.w3.org/2000/svg">
<g clip-path="url(#clip0_1_7353)">
<path d="M15.2522 17.989V17.9827C15.3422 17.8457 15.3464 17.7061 15.2647 17.5639L15.2334 17.5076C15.2208 17.4854 15.2062 17.4646 15.1897 17.4451L15.1084 17.3514C15.0858 17.3276 15.0608 17.3068 15.0334 17.2888L14.8396 17.1451C14.818 17.1284 14.7951 17.1138 14.7709 17.1013L14.427 16.9325C14.3989 16.9193 14.3697 16.9089 14.3395 16.9013L13.8457 16.7637C13.8291 16.7608 13.8125 16.7587 13.7957 16.7575L13.1456 16.6512C13.1145 16.6465 13.0832 16.6444 13.0518 16.645L12.2391 16.6512C12.2098 16.6511 12.1806 16.6532 12.1516 16.6575L11.2014 16.8137C11.1737 16.8202 11.1467 16.8285 11.1202 16.8388L10.0325 17.1763C10.0134 17.1816 9.99464 17.1879 9.9762 17.1951L8.76347 17.7202C8.75293 17.724 8.74251 17.7282 8.73221 17.7327L7.3757 18.4078C7.36942 18.4098 7.36317 18.4119 7.35695 18.4141L5.92543 19.1892C5.9212 19.1933 5.91703 19.1975 5.91292 19.2017L4.4939 20.0206C4.48548 20.0246 4.47714 20.0288 4.4689 20.0331L3.1624 20.8708C3.14518 20.8825 3.12851 20.895 3.11239 20.9083L1.99968 21.7709C1.9611 21.8009 1.92568 21.8343 1.89341 21.871L1.06825 22.8024C1.01133 22.8661 0.965484 22.9369 0.930726 23.0149L0.486892 24.0151C0.435199 24.1349 0.412278 24.2599 0.418129 24.3902L0.449384 25.4279C0.454677 25.5535 0.485933 25.6723 0.543152 25.7842L1.0745 26.8344C1.10747 26.9046 1.14914 26.9692 1.19953 27.0282L2.18096 28.1096C2.21358 28.146 2.249 28.1793 2.28723 28.2097L3.6625 29.2911C3.6902 29.3159 3.71937 29.3388 3.75001 29.3599L5.5066 30.4038C5.53684 30.4224 5.5681 30.4391 5.60036 30.4538L7.69451 31.3915C7.72506 31.4058 7.75631 31.4183 7.78828 31.429L10.2075 32.1917C10.2424 32.2022 10.2778 32.2105 10.3138 32.2167L12.9893 32.723C13.0203 32.7289 13.0516 32.733 13.083 32.7355L15.9273 32.9606C15.9586 32.9622 15.9898 32.9622 16.0211 32.9606L18.9967 32.8856C19.0218 32.8845 19.0468 32.8824 19.0717 32.8793L22.0848 32.548C22.1015 32.5464 22.1182 32.5443 22.1348 32.5417L25.1041 32.0354C25.1208 32.0338 25.1375 32.0317 25.1541 32.0291L28.0046 31.3728C28.0172 31.3689 28.0297 31.3647 28.0421 31.3603L30.6989 30.6226C30.7157 30.6189 30.7324 30.6148 30.7489 30.6101L33.1744 29.7787C33.1912 29.773 33.2079 29.7667 33.2244 29.76L35.3685 28.8723C35.3919 28.8629 35.4148 28.8524 35.4373 28.841L37.2314 27.9159C37.2592 27.9027 37.2863 27.8881 37.3127 27.8721L38.7067 26.9532C38.7441 26.9288 38.7796 26.9017 38.8129 26.8719L39.8194 25.9655C39.8767 25.9157 39.9267 25.8594 39.9694 25.7967L40.582 24.8715C40.6468 24.7739 40.6906 24.6677 40.7133 24.5527L40.9071 23.59C40.9361 23.4447 40.9298 23.301 40.8883 23.1587L40.6008 22.1773C40.5661 22.0577 40.5098 21.9494 40.432 21.8522L39.6631 20.8958C39.6101 20.8316 39.5496 20.7753 39.4818 20.727L38.3191 19.8768C38.2663 19.8376 38.2101 19.8043 38.1503 19.7768L36.7188 19.1267C36.6644 19.1022 36.6082 19.0835 36.55 19.0704L34.981 18.7141C34.9398 18.7041 34.8982 18.6979 34.8559 18.6954L33.3306 18.6328C33.3223 18.6326 33.314 18.6326 33.3056 18.6328L31.9929 18.6578L30.9989 18.6016C30.8281 18.5933 30.7386 18.6746 30.7302 18.8454C30.7219 19.0162 30.8031 19.1058 30.9739 19.1142L31.9429 19.1704L33.1681 19.5018L34.5434 20.0581L35.9624 20.7145L37.2501 21.4271L38.2628 22.1898L38.8754 22.9212L39.088 23.5025L39.0005 24.0464L38.5566 24.7278L37.6815 25.5092L36.375 26.3593L34.6559 27.247L32.5742 28.1096L30.1988 28.9161L27.5858 29.6412L24.779 30.2788L21.8597 30.7727L18.9091 31.0852L16.0148 31.1727L13.2706 30.9664L10.6888 30.4788L8.36964 29.7537L6.35676 28.8723L4.69394 27.8909L3.4187 26.8907L2.56229 25.953L2.16221 25.1716L2.13095 24.4902L2.40601 23.7463L3.04988 22.9087L4.01256 22.021L5.19404 21.1146L6.53179 20.2519L7.92581 19.4768L9.25106 18.8141L10.4263 18.314L11.4515 17.989L12.3266 17.8077L13.0768 17.7452L13.6519 17.7514L14.0832 17.8577L14.4208 17.9452L14.5833 18.014L14.6146 18.0327L14.6208 18.039C14.6921 18.1148 14.7796 18.1565 14.8834 18.164H14.8896C15.046 18.1791 15.1668 18.1208 15.2522 17.989Z" fill="black"/>
<path d="M13.652 21.5334C13.652 21.63 13.6862 21.7125 13.7546 21.7809C13.8229 21.8493 13.9054 21.8834 14.0021 21.8834C14.0988 21.8834 14.1813 21.8493 14.2496 21.7809C14.318 21.7125 14.3522 21.63 14.3522 21.5334C14.3522 21.4367 14.318 21.3542 14.2496 21.2858C14.1813 21.2175 14.0988 21.1833 14.0021 21.1833C13.9054 21.1833 13.8229 21.2175 13.7546 21.2858C13.6862 21.3542 13.652 21.4367 13.652 21.5334ZM14.3834 21.5521V21.5396C14.3894 21.4056 14.3415 21.2949 14.2396 21.2077C14.1377 21.1204 14.021 21.0901 13.8895 21.1167C13.758 21.1433 13.6622 21.2166 13.6022 21.3366C13.5422 21.4566 13.541 21.5771 13.5987 21.6983C13.6563 21.8194 13.7506 21.8946 13.8816 21.9238C14.0125 21.9529 14.1298 21.9249 14.2334 21.8397L14.2396 21.8334C14.3294 21.761 14.3773 21.6673 14.3834 21.5521ZM14.3959 21.4583L14.3897 21.4021C14.3882 21.3597 14.382 21.318 14.3709 21.2771L14.3522 21.2271V21.0833L14.4084 20.6644L14.5459 20.0081L14.7772 19.1642L15.046 18.1952L15.3398 17.17C15.3398 17.1679 15.3398 17.1659 15.3398 17.1638L15.6212 16.1573C15.6233 16.1532 15.6254 16.149 15.6274 16.1448L15.8649 15.2259C15.8672 15.2176 15.8693 15.2093 15.8712 15.2009L16.0462 14.432C16.0485 14.4237 16.0505 14.4154 16.0525 14.407L16.1588 13.8444L16.215 13.5943L16.2588 13.5193C15.9654 13.5188 15.7424 13.6438 15.5899 13.8944H15.7587C15.6518 13.8439 15.5393 13.8189 15.4211 13.8194L15.6587 13.9319L15.965 14.0819C16.009 14.1051 16.0549 14.1238 16.1025 14.1382L16.4401 14.232C16.5159 14.2519 16.593 14.2602 16.6714 14.257L16.9964 14.2445C17.101 14.2416 17.2011 14.2187 17.2965 14.1757L17.5715 14.0444C17.6728 13.9985 17.7603 13.9339 17.8341 13.8506L18.0779 13.5693C18.1193 13.5236 18.1547 13.4736 18.1841 13.4193L18.4404 12.9255C18.4571 12.8952 18.4717 12.8639 18.4842 12.8317L18.7592 12.0691C18.7667 12.0444 18.773 12.0194 18.778 11.994L19.0281 11.0001C19.0332 10.9774 19.0374 10.9545 19.0406 10.9313L19.2156 9.81238C19.2184 9.7937 19.2204 9.77495 19.2218 9.75612L19.3219 8.63091C19.3224 8.61424 19.3224 8.59757 19.3219 8.5809L19.3344 7.57445C19.335 7.5557 19.335 7.53695 19.3344 7.51819L19.2843 6.70554C19.2837 6.67834 19.2816 6.65125 19.2781 6.62427L19.1843 6.02416C19.1791 6.00095 19.1729 5.97803 19.1656 5.9554L19.0656 5.55532C19.0574 5.52128 19.047 5.48794 19.0343 5.4553L18.9343 5.22401C18.9323 5.21773 18.9302 5.21148 18.928 5.20525L18.878 5.08648C18.8653 5.05639 18.8507 5.02722 18.8343 4.99896L18.8093 4.96146C18.6802 4.97943 18.5631 5.02693 18.4579 5.10398C18.3528 5.18103 18.2722 5.2784 18.2162 5.39609C18.1602 5.51377 18.1354 5.63771 18.1419 5.76788C18.1485 5.89806 18.1854 6.01891 18.2529 6.13043H18.2592C18.0988 6.02602 17.9237 5.98643 17.7341 6.01166L17.7466 6.02416C17.9345 6.14422 18.1366 6.17707 18.3529 6.12269C18.5692 6.06831 18.7317 5.94378 18.8405 5.74911L18.8468 5.74286C18.787 5.79753 18.7369 5.86004 18.6967 5.93039L18.7155 5.91164C18.6635 5.9415 18.6155 5.97692 18.5717 6.01791L18.6217 5.9929L18.7968 5.89913C18.8009 5.8992 18.8051 5.8992 18.8093 5.89913L19.2093 5.69285L19.872 5.38654L20.8909 4.96771L22.1474 4.54263L23.4789 4.19881L24.7541 3.99877L25.8356 3.94251L26.6733 3.96752L27.2546 4.01128C27.2878 4.01547 27.3212 4.01755 27.3546 4.01753L27.6985 3.99877C27.823 3.99292 27.9397 3.95958 28.0485 3.89875L28.2048 3.81124C28.4023 3.70094 28.5294 3.53632 28.5861 3.31739L28.6236 3.16736C28.6489 3.0751 28.6572 2.98134 28.6486 2.88606L28.6299 2.71728V2.52349L28.6611 2.31095L28.7487 2.06716L28.8612 1.84211L28.9487 1.71709V1.71084L28.9299 1.72334L28.8424 1.73584L28.7549 1.70459L28.9049 1.84211L29.2675 2.26094L29.7863 2.89856C29.7925 2.90281 29.7988 2.90698 29.8051 2.91107L30.399 3.6112C30.4031 3.61541 30.4073 3.61958 30.4115 3.6237L30.9803 4.26757C31.0183 4.30922 31.0599 4.34673 31.1053 4.3801L31.6805 4.81768C31.799 4.90664 31.9324 4.95248 32.0805 4.95521L32.3181 4.96146L32.4806 5.16149C32.589 5.2989 32.7119 5.31345 32.8493 5.20515C32.9868 5.09685 33.0014 4.97394 32.8932 4.83643L32.7307 4.63014L32.7682 4.38635C32.7968 4.23341 32.776 4.08755 32.7057 3.94876L32.3743 3.31114C32.3463 3.25758 32.313 3.20757 32.2743 3.16111L31.718 2.49849C31.718 2.4964 31.718 2.49432 31.718 2.49224L31.1304 1.79835L30.6178 1.15448C30.6057 1.13948 30.5932 1.12489 30.5803 1.11072L30.1614 0.654386C30.1083 0.593828 30.0479 0.541735 29.9801 0.498107L29.6238 0.285566C29.524 0.222736 29.4156 0.183144 29.2988 0.166794L29.0175 0.129286C28.9359 0.118739 28.8546 0.120822 28.7737 0.135538L28.5361 0.179296C28.4595 0.193562 28.3866 0.218567 28.3173 0.25431L28.1298 0.348078C28.0605 0.384665 27.998 0.430506 27.9422 0.485604L27.786 0.635633C27.7487 0.671948 27.7154 0.711539 27.6859 0.754405L27.5234 0.9857C27.5073 1.01194 27.4927 1.03903 27.4797 1.06697L27.3109 1.37952C27.294 1.41186 27.2794 1.4452 27.2671 1.47954L27.1358 1.84836C27.1213 1.89328 27.1109 1.93912 27.1046 1.98589L27.0421 2.33596C27.0352 2.38577 27.0332 2.43578 27.0358 2.48599L27.0421 2.77979C27.0417 2.79438 27.0417 2.80896 27.0421 2.82355L27.0483 2.90482L27.0421 2.93607C27.2443 2.82107 27.3714 2.65021 27.4234 2.42347L27.2671 2.51724C27.3922 2.50945 27.5089 2.47402 27.6172 2.41097L27.3109 2.42972L26.7545 2.40472C26.7483 2.40464 26.742 2.40464 26.7358 2.40472L25.8481 2.37972C25.8272 2.38096 25.8063 2.38304 25.7856 2.38597L24.6291 2.44848C24.604 2.44935 24.579 2.45143 24.5541 2.45473L23.2038 2.66727C23.1785 2.67227 23.1535 2.67852 23.1288 2.68602L21.7286 3.04859C21.7118 3.0522 21.6951 3.05637 21.6786 3.06109L20.3721 3.49868C20.3552 3.50229 20.3386 3.50646 20.322 3.51118L19.2656 3.94251C19.2508 3.94832 19.2362 3.95457 19.2218 3.96127L18.5342 4.29258C18.5258 4.29452 18.5175 4.29661 18.5092 4.29883L18.0966 4.51137C18.0924 4.51342 18.0883 4.5155 18.0841 4.51762L17.8966 4.62389L17.8278 4.65515C17.7497 4.69751 17.681 4.75168 17.6215 4.81768L17.6028 4.83643C17.6731 4.79623 17.7356 4.74622 17.7903 4.6864L17.7841 4.69266C18.0107 4.7786 18.2295 4.76193 18.4404 4.64265L18.4279 4.63639C18.3733 4.61544 18.3171 4.60085 18.2592 4.59264H18.2529C17.9562 4.55073 17.716 4.64811 17.5322 4.88477C17.3485 5.12143 17.3136 5.37829 17.4277 5.65534L17.4465 5.69285C17.4504 5.70335 17.4546 5.71377 17.459 5.7241L17.4965 5.81162L17.5653 5.9804L17.6403 6.29921L17.7216 6.83681L17.7716 7.58071L17.7591 8.53089L17.6715 9.59984L17.509 10.6625L17.284 11.5877L17.0527 12.2566L16.8651 12.6067L16.7839 12.6879H16.7901H16.7401L16.5838 12.6442L16.3463 12.5316L16.1087 12.4129C15.9985 12.3582 15.8818 12.3311 15.7587 12.3316H15.5899C15.2922 12.3301 15.0672 12.4572 14.9148 12.7129L14.8022 12.9005C14.7613 12.9709 14.7322 13.0459 14.7147 13.1255L14.6272 13.5068C14.6251 13.5131 14.623 13.5193 14.621 13.5256L14.5084 14.0944L14.3334 14.8383L14.1084 15.7385L13.8271 16.7387L13.5333 17.7701C13.5332 17.7743 13.5332 17.7785 13.5333 17.7826L13.277 18.7641C13.2747 18.7745 13.2726 18.7849 13.2707 18.7953L13.0769 19.6705C13.0719 19.6912 13.0677 19.712 13.0644 19.733L12.9706 20.4457C12.9629 20.4975 12.9608 20.5496 12.9644 20.6019L13.0019 21.0895C13.0091 21.1871 13.0362 21.2788 13.0832 21.3646L13.2144 21.6021C13.2627 21.6919 13.3294 21.7648 13.4145 21.8209L13.5395 21.9022C13.681 21.9954 13.8331 22.0183 13.9958 21.9709L14.0521 21.9522C14.3014 21.8814 14.416 21.7167 14.3959 21.4583Z" fill="black"/>
<path d="M27.3791 21.1833C27.3791 21.2869 27.4157 21.3753 27.489 21.4486C27.5622 21.5218 27.6506 21.5584 27.7542 21.5584C27.8577 21.5584 27.9461 21.5218 28.0194 21.4486C28.0926 21.3753 28.1292 21.2869 28.1292 21.1833C28.1292 21.0798 28.0926 20.9914 28.0194 20.9181C27.9461 20.8449 27.8577 20.8083 27.7542 20.8083C27.6506 20.8083 27.5622 20.8449 27.489 20.9181C27.4157 20.9914 27.3791 21.0798 27.3791 21.1833ZM27.3603 21.1896C27.3603 21.2984 27.3988 21.3912 27.4757 21.4681C27.5526 21.545 27.6454 21.5834 27.7542 21.5834C27.8629 21.5834 27.9557 21.545 28.0326 21.4681C28.1095 21.3912 28.148 21.2984 28.148 21.1896C28.148 21.0808 28.1095 20.988 28.0326 20.9111C27.9557 20.8342 27.8629 20.7958 27.7542 20.7958C27.6454 20.7958 27.5526 20.8342 27.4757 20.9111C27.3988 20.988 27.3603 21.0808 27.3603 21.1896ZM27.7979 20.777L27.7604 20.7708C27.815 20.8099 27.8754 20.8349 27.9417 20.8458L27.923 20.8333C27.9566 20.9275 28.015 21.0025 28.098 21.0583L28.0917 21.0458C28.0862 21.0309 28.0799 21.0164 28.073 21.0021L28.0667 20.9833L28.0605 20.9396L28.0667 20.7208C28.0653 20.704 28.0632 20.6873 28.0605 20.6708L28.0355 20.2644C28.034 20.2477 28.0319 20.231 28.0292 20.2144L27.9417 19.6268C27.9399 19.6163 27.9378 19.6059 27.9355 19.5955L27.7917 18.8392C27.7897 18.8308 27.7877 18.8224 27.7854 18.8141L27.5916 18.0015C27.5898 17.991 27.5877 17.9806 27.5854 17.9702L27.3603 17.1763C27.3583 17.1701 27.3563 17.1638 27.3541 17.1576L27.1353 16.4825C27.1316 16.4677 27.1274 16.4532 27.1228 16.4387L26.9228 15.9198C26.9188 15.9114 26.9146 15.9031 26.9103 15.8948L26.754 15.5385C26.7446 15.5172 26.7341 15.4963 26.7227 15.476L26.6102 15.2697C26.5936 15.2392 26.5748 15.21 26.5539 15.1822L26.4852 15.0947C26.3044 14.8558 26.0669 14.7641 25.7725 14.8196L25.7288 14.8321C25.48 14.8793 25.305 15.0189 25.2037 15.251L25.1849 15.301C25.1604 15.3592 25.1437 15.4197 25.1349 15.4823L25.1224 15.5573C25.1198 15.5739 25.1177 15.5905 25.1162 15.6073L25.1099 15.6573L25.1037 15.7011C25.119 15.6542 25.1294 15.6063 25.1349 15.5573L25.1224 15.601C25.1481 15.5574 25.1689 15.5115 25.1849 15.4635L25.1662 15.4948C25.1965 15.4619 25.2236 15.4264 25.2474 15.3885L25.2287 15.4073C25.3986 15.3786 25.5403 15.2994 25.6538 15.1697L25.6288 15.176C25.71 15.1898 25.7913 15.1898 25.8726 15.176L25.8413 15.1697C25.8918 15.1902 25.9438 15.2047 25.9976 15.2135L25.9663 15.201C26.0345 15.2712 26.1137 15.3253 26.2039 15.3635L26.1789 15.3385C26.206 15.3814 26.2372 15.4209 26.2726 15.4573L26.2539 15.426C26.2721 15.4924 26.2992 15.5549 26.3351 15.6135L26.3289 15.576C26.3336 15.6035 26.3398 15.6306 26.3477 15.6573L26.3351 15.6135C26.3332 15.6052 26.3311 15.5968 26.3289 15.5885L26.3226 15.551C26.2851 15.6703 26.2789 15.7911 26.3039 15.9136L26.3164 15.8761C26.324 15.8514 26.3302 15.8264 26.3351 15.8011L26.3414 15.7698C26.3059 15.8348 26.2809 15.9035 26.2664 15.9761L26.2789 15.9511C26.3659 15.7937 26.3909 15.627 26.3539 15.451L26.3477 15.4198C26.3377 15.3725 26.3231 15.3266 26.3039 15.2822L26.2914 15.2572C26.2702 15.204 26.2431 15.154 26.2101 15.1072L26.1914 15.0822C26.1548 15.0354 26.1131 14.9937 26.0663 14.9572L26.0413 14.9384C26.0025 14.907 25.9608 14.8799 25.9163 14.8571L25.8851 14.8384C25.8488 14.8207 25.8113 14.8061 25.7725 14.7946L25.7225 14.7759C25.6695 14.7593 25.6154 14.7489 25.56 14.7446H25.5162L25.4787 14.7384C25.4455 14.734 25.4122 14.7319 25.3787 14.7321H25.3412C25.1924 14.7345 25.057 14.7783 24.9349 14.8634L24.9224 14.8759C24.82 14.9466 24.741 15.0375 24.6854 15.1489C24.6299 15.2602 24.6046 15.378 24.6097 15.5023C24.6148 15.6266 24.6495 15.742 24.714 15.8484C24.7784 15.9548 24.8646 16.0391 24.9724 16.1011L24.9849 16.1074C25.0949 16.1718 25.2137 16.2051 25.3412 16.2074H25.3787C25.4336 16.2073 25.4878 16.2011 25.5412 16.1886L25.6288 16.1699C25.692 16.1571 25.7524 16.1363 25.81 16.1074L25.9413 16.0386C25.9649 16.0274 25.9878 16.0149 26.0101 16.0011L26.1664 15.8886C26.1947 15.8717 26.2218 15.8529 26.2476 15.8323L26.4289 15.6698C26.451 15.6502 26.4719 15.6294 26.4914 15.6073L26.6977 15.3697C26.7202 15.3461 26.7411 15.3211 26.7602 15.2947L26.9853 14.9572C27.0125 14.9157 27.0355 14.8719 27.054 14.8259L27.2541 14.332C27.273 14.2876 27.2876 14.2417 27.2978 14.1945L27.4166 13.5757C27.4266 13.5324 27.4329 13.4887 27.4354 13.4444L27.4479 12.7442C27.4485 12.7066 27.4465 12.6691 27.4416 12.6317L27.3541 11.9316C27.3498 11.8999 27.3435 11.8687 27.3353 11.8378L27.1728 11.1814C27.1673 11.1625 27.161 11.1437 27.1541 11.1252L26.954 10.5313C26.9502 10.5187 26.946 10.5062 26.9415 10.4938L26.729 9.95621C26.725 9.9478 26.7208 9.93947 26.7165 9.93121L26.5227 9.46862C26.5148 9.45376 26.5065 9.43918 26.4977 9.42486L26.3164 9.06854C26.2981 9.03361 26.2773 9.00027 26.2539 8.96853L26.0914 8.74348C26.0113 8.62864 25.9071 8.5432 25.7788 8.48718L25.6663 8.44343C25.5628 8.40001 25.4553 8.3839 25.3437 8.3951C25.2321 8.40629 25.1299 8.44344 25.0371 8.50654C24.9444 8.56964 24.8723 8.65104 24.8209 8.75075C24.7695 8.85046 24.745 8.95639 24.7473 9.06854V9.19357C24.7505 9.28928 24.7713 9.38096 24.8099 9.46862L24.9161 9.72492C24.924 9.73978 24.9323 9.75436 24.9411 9.76868L25.1099 10.1062L25.2975 10.5313L25.4975 11.0439L25.685 11.5878L25.8351 12.1691L25.9101 12.7692L25.8976 13.3506L25.8038 13.8445L25.6663 14.2383L25.5475 14.4758L25.4225 14.6196L25.3225 14.7134L25.2287 14.7759L25.1162 14.8384C25.1891 14.8219 25.2579 14.7949 25.3225 14.7571L25.2349 14.7759C25.3603 14.8168 25.4874 14.8231 25.6163 14.7946L25.5788 14.7821C25.5972 14.7913 25.6159 14.7996 25.635 14.8071L25.6225 14.8009C25.2989 14.903 25.1301 15.1235 25.1161 15.4625C25.1021 15.8015 25.2522 16.0352 25.5663 16.1636L25.5788 16.1574C25.4975 16.1567 25.4183 16.1692 25.3412 16.1949H25.3475H25.3537L25.385 16.2012L25.4225 16.2074C25.3978 16.1998 25.3728 16.1936 25.3475 16.1886L25.3787 16.1949C25.3153 16.1506 25.2465 16.1172 25.1724 16.0949L25.1974 16.1136C25.1495 16.0525 25.0933 16.0004 25.0287 15.9574L25.0474 15.9824C25.0325 15.9542 25.0159 15.9271 24.9974 15.9011L25.0099 15.9261C24.9947 15.8488 24.9676 15.7758 24.9286 15.7073L24.9349 15.7386C24.9967 15.6 25.0133 15.4562 24.9849 15.3072L24.9786 15.3322C24.9565 15.3804 24.9398 15.4304 24.9286 15.4823L24.9224 15.5135C24.9328 15.4828 24.9411 15.4516 24.9474 15.4198L24.9349 15.4573C24.8963 15.5647 24.8838 15.6752 24.8974 15.7886L24.9036 15.8198L24.9099 15.8636C24.9171 15.9238 24.9317 15.9821 24.9536 16.0386L24.9661 16.0699C24.9782 16.1043 24.9928 16.1377 25.0099 16.1699L25.0287 16.2012C25.0626 16.2613 25.1043 16.3155 25.1537 16.3637L25.1787 16.3887C25.2512 16.4581 25.3346 16.5102 25.4287 16.545L25.46 16.5575C25.4905 16.57 25.5218 16.5804 25.5538 16.5887L25.585 16.595C25.718 16.6258 25.8493 16.6196 25.9788 16.5762L26.0038 16.57C26.0946 16.5382 26.1759 16.4903 26.2476 16.4262L26.2664 16.4074C26.323 16.3586 26.3709 16.3023 26.4102 16.2387L26.4289 16.2074C26.4688 16.1432 26.498 16.0744 26.5164 16.0011L26.5227 15.9574C26.531 15.9265 26.5373 15.8953 26.5414 15.8636L26.5477 15.8073C26.5477 15.8052 26.5477 15.8032 26.5477 15.8011L26.5539 15.7636V15.7573C26.2338 15.7843 26.0255 15.951 25.9288 16.2574L25.9726 16.2512C25.8105 16.0534 25.6021 15.9659 25.3475 15.9886L25.3787 16.0199L25.4412 16.1449L25.5788 16.4575L25.7663 16.945L25.9788 17.5889L26.2101 18.3578L26.4102 19.1392L26.5727 19.8706L26.6852 20.4457C26.6916 20.4754 26.6999 20.5046 26.7102 20.5332L26.8415 20.9208C26.8518 20.9509 26.8643 20.9801 26.879 21.0083L26.9978 21.2334C26.9998 21.2355 27.0019 21.2375 27.004 21.2396L27.0728 21.3646C27.0887 21.3956 27.1075 21.4248 27.1291 21.4522L27.1853 21.5147C27.2844 21.6342 27.4115 21.6967 27.5666 21.7022L27.6041 21.7084C27.8495 21.7156 28.0121 21.6031 28.0917 21.3709L28.098 21.3584C28.0772 21.3897 28.0605 21.423 28.048 21.4584L28.0605 21.4396C27.993 21.4753 27.9389 21.5253 27.8979 21.5897L27.9292 21.5709C28.1079 21.475 28.1807 21.3271 28.1476 21.127C28.1145 20.9269 27.998 20.8103 27.7979 20.777ZM25.3975 9.6124H25.4287C25.3935 9.60713 25.3581 9.60504 25.3225 9.60615L25.3537 9.6124L25.3912 9.61865C25.4098 9.6237 25.4285 9.62787 25.4475 9.63115L25.485 9.6374C25.4167 9.59895 25.3437 9.57394 25.2662 9.56239L25.2787 9.56864C25.4645 9.67162 25.6562 9.68412 25.8538 9.60615L25.8788 9.59364C26.1694 9.47735 26.3174 9.26273 26.3226 8.94977V8.89351C26.3262 8.83255 26.322 8.77212 26.3101 8.71223L26.2914 8.64346C26.2762 8.58209 26.2532 8.52375 26.2226 8.46843L26.1914 8.40592C26.1415 8.31431 26.0748 8.23721 25.9913 8.17462L25.9413 8.13712C25.8483 8.0658 25.7442 8.01996 25.6288 7.99959L25.5663 7.99334C25.47 7.97585 25.3741 7.97794 25.2787 7.99959L25.2037 8.01834C25.1651 8.02774 25.1276 8.04024 25.0912 8.05585L25.0224 8.08711C24.9901 8.09944 24.9588 8.11402 24.9286 8.13087L24.8786 8.16212C25.0571 8.19394 25.2238 8.16268 25.3787 8.06835L25.335 8.0621C25.4492 8.21236 25.5992 8.30405 25.785 8.33715L25.7475 8.28715C25.7699 8.33383 25.797 8.37759 25.8288 8.41842L25.7975 8.34966C25.7935 8.34334 25.7893 8.33709 25.785 8.3309L25.7788 8.3184L25.7725 8.29965C25.7776 8.35076 25.7881 8.40077 25.8038 8.44968L25.7975 8.38091C25.7829 8.45114 25.7787 8.52199 25.785 8.59345L25.8038 8.52469C25.7786 8.57663 25.7598 8.6308 25.7475 8.68722L25.7788 8.61846C25.744 8.66298 25.7148 8.7109 25.6913 8.76224L25.7475 8.69347C25.6879 8.73561 25.6358 8.78562 25.5913 8.8435L25.6725 8.78099L25.8413 8.69347L26.1226 8.5497L26.4789 8.36841C26.5048 8.35531 26.5298 8.34073 26.5539 8.32465L26.9415 8.06835C26.9726 8.0456 27.0018 8.02059 27.029 7.99334L27.4041 7.64952C27.4217 7.6316 27.4384 7.61285 27.4541 7.59326L27.8042 7.20569C27.815 7.19352 27.8254 7.18102 27.8354 7.16818L28.1417 6.78686C28.1505 6.77461 28.1588 6.7621 28.1667 6.74935L28.4043 6.41804C28.4107 6.40983 28.417 6.4015 28.423 6.39303L28.5856 6.14299C28.5944 6.12868 28.6027 6.11409 28.6106 6.09923L28.7044 5.93045C28.7211 5.90018 28.7356 5.86893 28.7481 5.83668L28.7856 5.74291C28.8365 5.61814 28.8532 5.48895 28.8356 5.35534L28.8294 5.30533C28.8045 5.13717 28.7316 4.99339 28.6106 4.874L28.5981 4.86149C28.4673 4.72834 28.3089 4.65332 28.123 4.63645H28.1042C28.2107 4.95553 28.4316 5.12848 28.7669 5.1553L28.7606 5.13655C28.7658 5.15976 28.772 5.18268 28.7794 5.20531L28.7669 5.14905C28.7664 5.19737 28.7706 5.2453 28.7794 5.29283V5.21156C28.7801 5.19281 28.7801 5.17405 28.7794 5.1553L28.7731 5.06778C28.7691 5.03402 28.7629 5.00068 28.7544 4.96776L28.7419 4.899C28.7317 4.85176 28.7171 4.80592 28.6981 4.76147L28.6793 4.71772C28.6049 4.53827 28.4799 4.407 28.3043 4.32389L28.2793 4.31764C28.089 4.22855 27.8952 4.22022 27.6979 4.29264L27.6792 4.29889C27.3781 4.40889 27.2135 4.62351 27.1853 4.94276V4.96151C27.1572 5.28245 27.2822 5.52416 27.5604 5.68665L27.6104 5.71791C27.7052 5.7735 27.8073 5.80684 27.9167 5.81793L28.048 5.83043C28.0563 5.83057 28.0646 5.83057 28.073 5.83043L28.2855 5.84918C28.3022 5.84973 28.3189 5.84973 28.3355 5.84918H28.6231H28.9669C28.969 5.84919 28.9711 5.84919 28.9732 5.84918L29.3295 5.84293L29.667 5.86168L29.9983 5.91794L30.2797 5.99296L30.5297 6.07422C30.5359 6.07639 30.5422 6.07847 30.5485 6.08048L30.7485 6.14924C30.7934 6.16371 30.8393 6.17413 30.886 6.18049L31.0173 6.193C31.1139 6.20635 31.2098 6.20219 31.3048 6.18049L31.3549 6.16799C31.5635 6.12114 31.7276 6.00902 31.8471 5.83163C31.9665 5.65424 32.0088 5.46005 31.9737 5.24907L31.9675 5.21156C31.9266 4.95554 31.7932 4.76384 31.5674 4.63645L31.5111 4.61145C31.5009 4.60496 31.4904 4.59871 31.4799 4.59269L31.4486 4.57394H31.4424C31.401 4.74852 31.4163 4.91802 31.488 5.08244C31.5598 5.24687 31.6738 5.37325 31.8299 5.46161V5.45536C31.5184 5.53801 31.3246 5.73597 31.2486 6.04922L31.2736 6.04297C31.0655 5.88877 30.8363 5.84502 30.586 5.91169L30.6985 5.99296C30.7303 6.01624 30.7636 6.03708 30.7985 6.05547L30.9485 6.13674C30.9688 6.15018 30.9896 6.16268 31.011 6.17424L31.2048 6.25551L31.4049 6.35553L31.5861 6.4493L31.7549 6.57432L31.9675 6.7431C31.9797 6.7539 31.9922 6.76432 32.005 6.77436L32.2425 6.93689C32.3369 7.00399 32.4411 7.04775 32.5551 7.06816L32.8114 7.11192C33.0134 7.14796 33.1947 7.10212 33.3552 6.9744L33.4553 6.89313C33.299 6.8439 33.1573 6.87099 33.0302 6.9744L33.2302 7.03691C33.351 7.07481 33.4676 7.06447 33.5798 7.00587C33.692 6.94727 33.7671 6.85758 33.8051 6.73678C33.8431 6.61599 33.8328 6.49946 33.7742 6.38718C33.7157 6.27491 33.626 6.19976 33.5053 6.16174L33.3052 6.09923C33.3303 6.29022 33.4344 6.41524 33.6178 6.4743L33.599 6.34303C33.58 6.21339 33.5279 6.09879 33.4428 5.99921L33.2677 5.79917C33.2501 5.77732 33.2313 5.75648 33.2115 5.73666L32.9989 5.54287C32.9928 5.53652 32.9865 5.53027 32.9802 5.52412L32.7676 5.34283C32.7535 5.32981 32.7389 5.3173 32.7239 5.30533L32.4988 5.13655C32.4748 5.11847 32.4498 5.1018 32.4238 5.08654L32.1863 4.94276C32.1638 4.93127 32.1409 4.92085 32.1175 4.9115L31.8862 4.79898C31.8821 4.79686 31.8779 4.79478 31.8737 4.79273L31.6862 4.70521L31.6299 4.67396L31.5799 4.6302C31.3724 4.46221 31.139 4.41011 30.8798 4.47392L30.8548 4.48017C30.6378 4.53268 30.4708 4.65399 30.3538 4.84412C30.2368 5.03425 30.2037 5.23799 30.2546 5.45536V5.46161C30.3157 5.72446 30.4699 5.90991 30.7172 6.01796H30.7235L30.7547 6.03047C30.7248 6.00959 30.6935 5.99083 30.661 5.97421L30.711 6.01171C30.6736 5.78314 30.559 5.60394 30.3672 5.47411L30.3734 5.51162C30.7155 5.33079 30.8551 5.04949 30.7922 4.66771L30.7485 4.69271C30.899 4.70151 31.0407 4.67025 31.1736 4.59894L31.1048 4.59269L30.9798 4.56769L30.7172 4.49267C30.7007 4.48796 30.684 4.48379 30.6672 4.48017L30.3172 4.40516C30.2985 4.40239 30.2797 4.4003 30.2609 4.39891L29.8546 4.33639C29.8214 4.33213 29.788 4.33005 29.7546 4.33014H29.3482C29.3399 4.33 29.3316 4.33 29.3232 4.33014L28.9606 4.33639H28.6231H28.3543L28.2105 4.33014L28.1292 4.31764C28.2153 4.37431 28.3091 4.41182 28.4105 4.43016L28.3668 4.39891C28.3884 4.63875 28.4988 4.82629 28.6981 4.96151V4.94276C28.5452 5.10689 28.4785 5.30067 28.4981 5.52412L28.5106 5.51162C28.3599 5.4315 28.2003 5.40537 28.032 5.43324C27.8636 5.46111 27.721 5.53725 27.6041 5.66165L27.6291 5.67415C27.5585 5.51429 27.446 5.39344 27.2916 5.31158L27.3103 5.35534C27.3018 5.29067 27.2851 5.22816 27.2603 5.1678L27.2666 5.20531V5.23656V5.29283C27.2664 5.30116 27.2664 5.3095 27.2666 5.31783V5.37409C27.2678 5.39501 27.2699 5.41585 27.2728 5.4366L27.2791 5.46786C27.284 5.52105 27.2944 5.57314 27.3103 5.62414L27.3166 5.64289C27.3722 5.80991 27.4736 5.94184 27.6206 6.03868C27.7676 6.13552 27.9288 6.17654 28.1042 6.16174H28.123C27.9577 5.9941 27.7576 5.91908 27.5229 5.9367L27.5354 5.9492C27.5159 5.77144 27.443 5.61933 27.3166 5.49286L27.3228 5.54287C27.3694 5.42614 27.3861 5.30528 27.3728 5.1803L27.3478 5.23031L27.2916 5.33033L27.1541 5.54912L26.9353 5.86168L26.6602 6.21175L26.3414 6.57432L26.0288 6.87438L25.7475 7.09317L25.4475 7.2557L25.1662 7.40573C25.1599 7.40773 25.1536 7.40981 25.1474 7.41198L24.9411 7.53075C24.9219 7.54034 24.9032 7.55076 24.8849 7.56201L24.7661 7.64327C24.6976 7.69151 24.6393 7.74986 24.5911 7.81831L24.5348 7.89957C24.5056 7.93872 24.4806 7.98039 24.4598 8.0246L24.4348 8.09336C24.4086 8.14931 24.3898 8.20765 24.3785 8.26839L24.366 8.33715C24.3568 8.39525 24.3548 8.45359 24.3598 8.51219L24.366 8.58095C24.3699 8.65401 24.3845 8.72485 24.4098 8.79349L24.441 8.856C24.4486 8.87511 24.4569 8.89387 24.466 8.91226L24.491 8.96227L24.5161 9.01853C24.536 9.06712 24.561 9.11296 24.5911 9.15606L24.6286 9.20607C24.7537 9.37419 24.9204 9.47004 25.1287 9.49363L25.1724 9.49988C25.3443 9.51954 25.5027 9.48204 25.6475 9.38735L25.6538 9.3811L25.6225 9.39361H25.6288C25.5136 9.36746 25.399 9.36954 25.2849 9.39986L25.3475 9.41236C25.2666 9.3518 25.177 9.31013 25.0787 9.28734L25.1287 9.32484C25.0792 9.2385 25.0146 9.16557 24.9349 9.10605L24.9661 9.16231C24.9506 9.1121 24.9297 9.06417 24.9036 9.01853L24.9161 9.06229L24.9224 9.09355C24.9456 9.18983 24.9873 9.27735 25.0474 9.3561L25.0599 9.3811C25.0391 9.30437 25.0057 9.23352 24.9599 9.16856V9.18107C25.0782 9.01479 25.1094 8.8335 25.0537 8.63721L25.0349 8.66847C25.1832 8.63359 25.302 8.55441 25.3912 8.43092L25.335 8.44343C25.3981 8.44917 25.4606 8.445 25.5225 8.43092L25.4725 8.42467C25.5306 8.44886 25.591 8.46345 25.6538 8.46843L25.6288 8.45593C25.4544 8.38547 25.2845 8.39487 25.119 8.48414C24.9535 8.57341 24.8523 8.71024 24.8154 8.89463C24.7786 9.07902 24.8193 9.24424 24.9378 9.39029C25.0562 9.53635 25.2094 9.61039 25.3975 9.6124Z" fill="black"/>
<path d="M31.5049 3.52993C31.5049 3.63178 31.5409 3.71871 31.6129 3.79072C31.6849 3.86274 31.7719 3.89875 31.8737 3.89875C31.9756 3.89875 32.0625 3.86274 32.1345 3.79072C32.2065 3.71871 32.2425 3.63178 32.2425 3.52993C32.2425 3.42808 32.2065 3.34115 32.1345 3.26913C32.0625 3.19712 31.9756 3.16111 31.8737 3.16111C31.7719 3.16111 31.6849 3.19712 31.6129 3.26913C31.5409 3.34115 31.5049 3.42808 31.5049 3.52993ZM31.93 3.14235H31.9175C31.6896 3.11473 31.5468 3.21197 31.489 3.43408C31.4311 3.65619 31.5084 3.81075 31.7208 3.89775C31.9332 3.98475 32.0967 3.92882 32.2113 3.72997V3.71746C32.2787 3.59883 32.2825 3.47821 32.2225 3.35562C32.1626 3.23303 32.065 3.16194 31.93 3.14235ZM31.4174 3.54868C31.4174 3.66779 31.4595 3.76946 31.5437 3.85368C31.6279 3.9379 31.7296 3.98001 31.8487 3.98001C31.9678 3.98001 32.0695 3.9379 32.1537 3.85368C32.2379 3.76946 32.2801 3.66779 32.2801 3.54868C32.2801 3.42957 32.2379 3.32791 32.1537 3.24368C32.0695 3.15946 31.9678 3.11735 31.8487 3.11735C31.7296 3.11735 31.6279 3.15946 31.5437 3.24368C31.4595 3.32791 31.4174 3.42957 31.4174 3.54868ZM31.4174 3.3549L31.3986 3.3924C31.3919 3.40465 31.3856 3.41715 31.3799 3.42991L31.3424 3.52368C31.2899 3.65553 31.2857 3.78889 31.3299 3.92375L31.4111 4.16755C31.4224 4.20433 31.437 4.23976 31.4549 4.27382L31.6549 4.65514C31.6609 4.66574 31.6671 4.67616 31.6737 4.6864L31.9987 5.21775C32.0028 5.22408 32.007 5.23033 32.0113 5.2365L32.4363 5.89288C32.448 5.9102 32.4605 5.92687 32.4738 5.94289L32.9864 6.56176L33.3803 7.24939C33.3842 7.25576 33.3884 7.26201 33.3928 7.26814L33.7616 7.8245L33.9366 8.28708C33.995 8.44545 34.1033 8.49546 34.2617 8.43711C34.42 8.37877 34.4701 8.27041 34.4117 8.11205L34.2304 7.63071L34.0866 6.97433C34.0819 6.95509 34.0756 6.93634 34.0679 6.91807L33.7803 6.15543L33.5115 5.36778C33.5 5.33311 33.4854 5.29977 33.4678 5.26776L33.0865 4.58638C33.0825 4.57795 33.0783 4.56962 33.074 4.56137L32.7489 4.03627L32.5364 3.66745C32.5343 3.66744 32.5322 3.66744 32.5301 3.66745L32.3988 3.44241C32.3556 3.36985 32.2993 3.30943 32.23 3.26113L32.1488 3.20487L32.1238 3.17986C32.0044 3.09293 31.8731 3.06722 31.7298 3.10273C31.5865 3.13824 31.4823 3.2223 31.4174 3.3549Z" fill="black"/>
<path d="M16.2833 13.2505C16.2833 13.361 16.3223 13.4553 16.4005 13.5334C16.4786 13.6115 16.5729 13.6506 16.6834 13.6506C16.7938 13.6506 16.8881 13.6115 16.9662 13.5334C17.0444 13.4553 17.0834 13.361 17.0834 13.2505C17.0834 13.1401 17.0444 13.0458 16.9662 12.9676C16.8881 12.8895 16.7938 12.8505 16.6834 12.8505C16.5729 12.8505 16.4786 12.8895 16.4005 12.9676C16.3223 13.0458 16.2833 13.1401 16.2833 13.2505ZM16.5521 13.6319H16.5583C16.5706 13.6366 16.5831 13.6408 16.5958 13.6444L16.6146 13.6506C16.7252 13.6749 16.8292 13.6582 16.9266 13.6006C17.0241 13.5429 17.0888 13.4598 17.1208 13.3512C17.1528 13.2426 17.1435 13.1377 17.0928 13.0364C17.0422 12.9351 16.9639 12.8647 16.8578 12.8252C16.7517 12.7856 16.6464 12.7875 16.5418 12.8309C16.4372 12.8743 16.3615 12.9475 16.3145 13.0505L16.3083 13.0692C16.2657 13.1677 16.2615 13.2677 16.2958 13.3693V13.3756C16.3386 13.5036 16.4241 13.589 16.5521 13.6319ZM16.2458 13.2068C16.2458 13.3501 16.2964 13.4723 16.3977 13.5737C16.499 13.675 16.6213 13.7256 16.7646 13.7256C16.9079 13.7256 17.0302 13.675 17.1315 13.5737C17.2328 13.4723 17.2835 13.3501 17.2835 13.2068C17.2835 13.0635 17.2328 12.9412 17.1315 12.8399C17.0302 12.7386 16.9079 12.6879 16.7646 12.6879C16.6213 12.6879 16.499 12.7386 16.3977 12.8399C16.2964 12.9412 16.2458 13.0635 16.2458 13.2068ZM16.6646 13.8131L16.8959 13.8882C16.9266 13.8987 16.9578 13.907 16.9897 13.9132L17.471 14.0069C17.5229 14.015 17.5749 14.0171 17.6273 14.0132L18.3462 13.9819L19.1276 13.9569L19.834 14.132C20.0048 14.1736 20.1111 14.109 20.1528 13.9382C20.1944 13.7673 20.1298 13.661 19.959 13.6194L19.2588 13.4381L18.565 13.0567C18.5629 13.0546 18.5608 13.0526 18.5587 13.0505L17.9211 12.7129C17.856 12.679 17.7872 12.6561 17.7148 12.6442L17.2335 12.5629C17.1901 12.5545 17.1463 12.5504 17.1022 12.5504L16.8521 12.5567C16.6947 12.5592 16.5567 12.6123 16.4383 12.7161C16.3198 12.8199 16.2489 12.9496 16.2257 13.1054C16.2024 13.2611 16.2323 13.4059 16.3153 13.5398C16.3983 13.6736 16.5147 13.7647 16.6646 13.8131Z" fill="black"/>
<path d="M23.6596 15.2509C23.6597 15.4592 23.7639 15.5634 23.9722 15.5634C24.1805 15.5634 24.2847 15.4592 24.2848 15.2509C24.2847 15.0426 24.1805 14.9385 23.9722 14.9385C23.7639 14.9385 23.6597 15.0426 23.6596 15.2509ZM23.8909 14.8633H23.8784C23.6356 14.904 23.521 15.0473 23.5347 15.2931C23.5483 15.5389 23.678 15.6686 23.9238 15.6822C24.1696 15.6958 24.3128 15.5812 24.3535 15.3384V15.3259C24.3806 15.1885 24.3447 15.0703 24.2456 14.9712C24.1466 14.8722 24.0283 14.8362 23.8909 14.8633ZM23.4658 15.2822C23.4658 15.4151 23.5128 15.5285 23.6068 15.6225C23.7008 15.7165 23.8143 15.7635 23.9472 15.7635C24.0801 15.7635 24.1936 15.7165 24.2875 15.6225C24.3815 15.5285 24.4285 15.4151 24.4285 15.2822C24.4285 15.1493 24.3815 15.0358 24.2875 14.9418C24.1936 14.8478 24.0801 14.8008 23.9472 14.8008C23.8143 14.8008 23.7008 14.8478 23.6068 14.9418C23.5128 15.0358 23.4658 15.1493 23.4658 15.2822ZM23.6221 15.776L23.7221 15.8573C23.7856 15.9088 23.8564 15.9463 23.9347 15.9698L24.1847 16.0386C24.2993 16.0724 24.4139 16.0724 24.5286 16.0386L24.8349 15.951L25.1412 15.8698L25.4475 15.9135C25.5959 15.9108 25.6809 15.8359 25.7024 15.6891C25.7239 15.5422 25.6639 15.4461 25.5225 15.4009L25.2224 15.3572L24.9786 15.2009L24.7536 15.0009C24.698 14.9519 24.6354 14.9144 24.5661 14.8883L24.3285 14.8008C24.2981 14.7879 24.2668 14.7775 24.2347 14.7696L24.1097 14.7446C23.8091 14.6839 23.5932 14.7921 23.4622 15.0694C23.3311 15.3467 23.3844 15.5822 23.6221 15.776Z" fill="black"/>
<path d="M11.7386 16.1261L11.7324 16.1324C11.6923 16.176 11.6631 16.226 11.6449 16.2824L11.6386 16.3074C11.6067 16.4069 11.6108 16.5048 11.6511 16.6012L11.6699 16.645C11.7216 16.7733 11.8133 16.8587 11.9449 16.9013L12.0512 16.9325C12.0961 16.9459 12.1419 16.9522 12.1887 16.9513L12.4075 16.945C12.4413 16.9446 12.4747 16.9404 12.5075 16.9325L12.8326 16.8575C12.8748 16.847 12.9144 16.8303 12.9514 16.8075L13.1827 16.6637L13.439 16.6262C13.584 16.5805 13.6457 16.4824 13.6242 16.3318C13.6027 16.1813 13.516 16.1044 13.3639 16.1011L13.1139 16.1324L12.8576 16.0511C12.8128 16.0371 12.767 16.0309 12.7201 16.0323L12.3888 16.0449C12.3867 16.0449 12.3846 16.0449 12.3825 16.0449L12.2075 16.0511L12.145 16.0386C12.1771 16.053 12.2104 16.0634 12.245 16.0699L12.2012 16.0511C12.2446 16.1007 12.2967 16.1382 12.3575 16.1636L12.3388 16.1449C12.3367 16.1407 12.3347 16.1365 12.3325 16.1324L12.3263 16.1261C12.2471 16.0404 12.1491 15.9976 12.0324 15.9976C11.9158 15.9976 11.8178 16.0404 11.7386 16.1261Z" fill="black"/>
<path d="M26.8792 17.5891C26.8792 17.6961 26.917 17.7875 26.9927 17.8632C27.0684 17.9389 27.1598 17.9767 27.2668 17.9767C27.3738 17.9767 27.4652 17.9389 27.5408 17.8632C27.6165 17.7875 27.6544 17.6961 27.6544 17.5891C27.6544 17.4821 27.6165 17.3907 27.5408 17.3151C27.4652 17.2394 27.3738 17.2015 27.2668 17.2015C27.1598 17.2015 27.0684 17.2394 26.9927 17.3151C26.917 17.3907 26.8792 17.4821 26.8792 17.5891ZM26.8229 17.5891C26.823 17.7116 26.8663 17.8162 26.953 17.9029C27.0397 17.9895 27.1442 18.0328 27.2668 18.0328C27.3893 18.0328 27.4939 17.9895 27.5806 17.9029C27.6672 17.8162 27.7106 17.7116 27.7106 17.5891C27.7106 17.4666 27.6672 17.362 27.5806 17.2754C27.4939 17.1888 27.3893 17.1454 27.2668 17.1454C27.1442 17.1454 27.0397 17.1888 26.953 17.2754C26.8663 17.362 26.823 17.4666 26.8229 17.5891ZM27.098 18.1517L27.2605 18.2205C27.3007 18.2394 27.3424 18.254 27.3856 18.2642L27.7606 18.3393L28.3482 18.4768C28.3545 18.479 28.3607 18.481 28.367 18.483L29.1421 18.6393C29.1815 18.6456 29.2211 18.6476 29.2609 18.6456L30.0673 18.6393L30.7862 18.9019C30.9529 18.9602 31.0654 18.906 31.1238 18.7393C31.1821 18.5726 31.1279 18.4601 30.9612 18.4018L30.2423 18.1455L29.6172 17.6329C29.5733 17.5988 29.5254 17.5717 29.4735 17.5516L28.7358 17.2453C28.7053 17.2325 28.6741 17.2221 28.642 17.214L28.0482 17.0765C28.0296 17.0715 28.0109 17.0674 27.9919 17.064L27.6106 17.0078C27.565 17.0007 27.5191 16.9986 27.4731 17.0015L27.2918 17.014C26.9814 17.0357 26.8 17.1999 26.7478 17.5067C26.6955 17.8135 26.8123 18.0285 27.098 18.1517Z" fill="black"/>
<path d="M28.0169 17.9767C28.017 18.0888 28.0567 18.1845 28.136 18.2638C28.2153 18.3431 28.3111 18.3828 28.4232 18.3828C28.5354 18.3828 28.6312 18.3431 28.7105 18.2638C28.7898 18.1845 28.8295 18.0888 28.8296 17.9767C28.8295 17.8645 28.7898 17.7688 28.7105 17.6895C28.6312 17.6102 28.5354 17.5705 28.4232 17.5705C28.3111 17.5705 28.2153 17.6102 28.136 17.6895C28.0567 17.7688 28.017 17.8645 28.0169 17.9767ZM27.9919 18.2142L28.0232 18.283C28.0787 18.4025 28.1641 18.4942 28.2795 18.558L28.492 18.6768C28.5399 18.7013 28.5899 18.7201 28.642 18.733L29.0734 18.8581C29.0817 18.8603 29.09 18.8624 29.0984 18.8643L29.6672 19.0018L30.3486 19.2081L31.1675 19.4707C31.1758 19.4729 31.1841 19.475 31.1925 19.4769L32.0802 19.7332C32.0906 19.7355 32.101 19.7376 32.1114 19.7395L32.9866 19.9583C33.0073 19.9633 33.0281 19.9675 33.0491 19.9708L33.8243 20.0958C33.8637 20.1015 33.9033 20.1036 33.943 20.1021L34.5181 20.0896L34.8495 20.1021L35.037 20.1958C35.1914 20.2671 35.3083 20.2275 35.3875 20.077C35.4667 19.9264 35.4333 19.8077 35.287 19.7207L35.0745 19.6082L34.812 19.3582C34.8099 19.354 34.8079 19.3498 34.8057 19.3457L34.3681 18.9581C34.3197 18.9123 34.2655 18.8748 34.2056 18.8456L33.4867 18.5205C33.4583 18.5062 33.4291 18.4937 33.3992 18.483L32.5365 18.2142C32.5344 18.2142 32.5324 18.2142 32.5303 18.2142L31.6426 17.9454L30.8174 17.6954C30.8154 17.6933 30.8133 17.6912 30.8112 17.6891L30.0986 17.4828C30.0697 17.4749 30.0406 17.4686 30.011 17.4641L29.4109 17.3578C29.3551 17.3474 29.2989 17.3432 29.2421 17.3453L28.7921 17.3703C28.7563 17.3717 28.7209 17.3759 28.6858 17.3828L28.4482 17.4328C28.3718 17.4483 28.3009 17.4775 28.2357 17.5203L28.1732 17.5641C27.9272 17.729 27.8668 17.9457 27.9919 18.2142Z" fill="black"/>
<path d="M12.8202 20.5709C12.8202 20.7751 12.9223 20.8772 13.1265 20.8772C13.3307 20.8772 13.4328 20.7751 13.4328 20.5709C13.4328 20.3667 13.3307 20.2646 13.1265 20.2646C12.9223 20.2646 12.8202 20.3667 12.8202 20.5709ZM12.9265 20.2146L12.8577 20.2459C12.8144 20.2649 12.7748 20.2899 12.7389 20.3209L12.6452 20.4021C12.533 20.4979 12.4663 20.6187 12.4451 20.7647L12.4076 21.0398C12.3947 21.1327 12.401 21.2244 12.4264 21.3148L12.5576 21.7774C12.5798 21.8606 12.6152 21.9377 12.6639 22.0087L13.0577 22.565C13.097 22.6211 13.1428 22.6711 13.1953 22.7151L13.8767 23.2777C13.9264 23.3198 13.9806 23.3553 14.0392 23.384L15.0394 23.8528C15.0915 23.8775 15.1457 23.8963 15.2019 23.9091L16.5709 24.2216C16.608 24.2306 16.6455 24.2368 16.6834 24.2404L18.4213 24.3716C18.4504 24.3733 18.4796 24.3733 18.5088 24.3716L20.4592 24.3154C20.4801 24.3142 20.5009 24.3121 20.5217 24.3091L22.472 24.0778C22.5038 24.0741 22.535 24.0678 22.5658 24.0591L24.2661 23.5777L25.6851 23.4215C25.8602 23.4006 25.9373 23.3027 25.9164 23.1277C25.8956 22.9526 25.7977 22.8755 25.6226 22.8964L24.2161 23.0589L22.4595 22.8901C22.4471 22.8876 22.4346 22.8855 22.422 22.8839L20.4529 22.8276C20.4508 22.8276 20.4487 22.8276 20.4467 22.8276L18.5213 22.7963L16.8647 22.6713L15.6332 22.39L14.7893 21.9962L14.233 21.5649L13.8829 21.1335L13.6579 20.7897L13.5453 20.5772C13.5376 20.5622 13.5293 20.5476 13.5203 20.5334L13.4516 20.4209C13.4551 20.5069 13.4801 20.586 13.5266 20.6584L13.5203 20.5772C13.514 20.4283 13.4473 20.3151 13.3201 20.2375C13.193 20.1598 13.0618 20.1522 12.9265 20.2146Z" fill="black"/>
<path d="M26.9041 20.9335L26.8978 20.9773L26.8603 21.1148L26.779 21.3524L26.6665 21.6024L26.4477 21.8837L26.0789 22.1963L25.5538 22.5463L24.9224 22.8651L24.2786 23.1715C24.2701 23.1753 24.2617 23.1795 24.2536 23.184L23.7847 23.4528L23.3909 23.5278C23.2117 23.5653 23.1408 23.6736 23.1783 23.8528C23.2159 24.032 23.3242 24.1029 23.5034 24.0654L23.9097 23.9779L24.4723 23.9591C24.502 23.9581 24.5311 23.9539 24.5599 23.9466L25.2537 23.7778C25.2863 23.7686 25.3176 23.7561 25.3475 23.7403L26.0164 23.4153C26.0403 23.4046 26.0632 23.3921 26.0852 23.3777L26.6478 22.9902C26.6749 22.9718 26.6999 22.951 26.7228 22.9277L27.1166 22.5213C27.1354 22.5 27.1521 22.477 27.1666 22.4526L27.4167 22.0775C27.4337 22.0539 27.4483 22.0289 27.4604 22.0025L27.5917 21.6837C27.6002 21.6592 27.6064 21.6342 27.6104 21.6087L27.673 21.3336C27.6756 21.3212 27.6777 21.3087 27.6792 21.2961L27.698 21.1086C27.7016 21.0773 27.7016 21.046 27.698 21.0148L27.6917 20.9335C27.6917 20.8248 27.6533 20.732 27.5764 20.6551C27.4995 20.5782 27.4066 20.5397 27.2979 20.5397C27.1891 20.5397 27.0963 20.5782 27.0194 20.6551C26.9425 20.732 26.9041 20.8248 26.9041 20.9335Z" fill="black"/>
<path d="M13.5517 18.1517C13.5517 18.2518 13.5871 18.3373 13.6579 18.4081C13.7287 18.4789 13.8141 18.5143 13.9142 18.5143C14.0144 18.5143 14.0998 18.4789 14.1706 18.4081C14.2414 18.3373 14.2768 18.2518 14.2768 18.1517C14.2768 18.0516 14.2414 17.9661 14.1706 17.8953C14.0998 17.8245 14.0144 17.7891 13.9142 17.7891C13.8141 17.7891 13.7287 17.8245 13.6579 17.8953C13.5871 17.9661 13.5517 18.0516 13.5517 18.1517ZM13.6454 17.8454L13.6267 17.8579C13.5208 17.9508 13.4728 18.0675 13.4829 18.208L13.4892 18.2767C13.4915 18.3196 13.4999 18.3613 13.5142 18.4018L13.5767 18.5643C13.5853 18.588 13.5957 18.6109 13.6079 18.6331L13.7517 18.9019C13.7772 18.9479 13.8084 18.9895 13.8455 19.0269L14.2206 19.4082C14.2531 19.439 14.2885 19.4661 14.3268 19.4895L14.9707 19.9145C15.0102 19.9396 15.0519 19.9605 15.0957 19.9771L16.0522 20.3521C16.0787 20.3621 16.1058 20.3705 16.1334 20.3771L17.3712 20.6897C17.3897 20.6946 17.4085 20.6988 17.4274 20.7022L18.8277 20.9272C18.8422 20.9298 18.8568 20.9319 18.8714 20.9335L20.3467 21.0773C20.3695 21.0805 20.3925 21.0826 20.4155 21.0835H21.9033C21.9116 21.0816 21.92 21.0795 21.9283 21.0773L23.2973 21.021C23.3078 21.0193 23.3182 21.0172 23.3285 21.0148L24.4663 20.8772L25.3289 20.8835C25.504 20.8835 25.5915 20.796 25.5915 20.6209C25.5915 20.4459 25.504 20.3584 25.3289 20.3584L24.4788 20.3521L23.3535 20.1521C23.3515 20.1521 23.3494 20.1521 23.3473 20.1521L21.9908 19.9458L20.5155 19.7208C20.5072 19.7185 20.4989 19.7164 20.4905 19.7145L19.034 19.5457L17.6775 19.3332L16.5085 19.0519L15.6208 18.7081L14.9769 18.3955L14.5456 18.1392L14.3456 18.0142L14.2643 17.9329C14.2622 17.9308 14.2602 17.9287 14.2581 17.9267L14.2081 17.8767C14.2305 17.9339 14.2639 17.9839 14.3081 18.0267L14.3018 18.0079C14.2503 17.8742 14.155 17.7901 14.016 17.7557C13.8769 17.7213 13.7534 17.7512 13.6454 17.8454Z" fill="black"/>
<path d="M22.2719 20.4271L22.3157 20.4896C22.3921 20.6088 22.5004 20.6776 22.6408 20.6959L22.8658 20.7272C22.8804 20.7278 22.895 20.7278 22.9096 20.7272L23.2471 20.7459C23.2638 20.7467 23.2805 20.7467 23.2971 20.7459L23.7722 20.7209C23.7911 20.7198 23.8098 20.7178 23.8285 20.7147L24.4098 20.6272C24.4245 20.6257 24.4391 20.6236 24.4536 20.6209L25.1225 20.4584C25.1372 20.4548 25.1518 20.4507 25.1662 20.4459L25.8851 20.2021C25.9044 20.1949 25.9231 20.1865 25.9414 20.1771L26.6103 19.8583C26.6562 19.8378 26.6979 19.8107 26.7353 19.777L27.1291 19.4019L27.5042 19.2144C27.6292 19.1255 27.6573 19.0124 27.5887 18.8752C27.5201 18.738 27.4128 18.6927 27.2666 18.7393L26.8978 18.9206L26.3727 18.9643C26.3366 18.9665 26.3012 18.9728 26.2664 18.9831L25.5601 19.2081L24.8537 19.4269L24.2286 19.5832L23.6784 19.6582L23.2159 19.7145C23.2075 19.7143 23.1992 19.7143 23.1909 19.7145L22.8595 19.7645L22.6408 19.7958C22.5004 19.8141 22.3921 19.8829 22.3157 20.002L22.2719 20.0646C22.1929 20.1854 22.1929 20.3063 22.2719 20.4271Z" fill="black"/>
<path d="M19.8215 20.2022C19.8215 20.2936 19.8539 20.3717 19.9185 20.4364C19.9832 20.5011 20.0613 20.5335 20.1528 20.5335C20.2443 20.5335 20.3224 20.5011 20.3871 20.4364C20.4518 20.3717 20.4841 20.2936 20.4841 20.2022C20.4841 20.1107 20.4518 20.0326 20.3871 19.9679C20.3224 19.9032 20.2443 19.8708 20.1528 19.8708C20.0613 19.8708 19.9832 19.9032 19.9185 19.9679C19.8539 20.0326 19.8215 20.1107 19.8215 20.2022ZM19.734 20.2209V20.2397L19.6965 20.3272C19.6891 20.3456 19.6829 20.3643 19.6777 20.3834L19.5902 20.6897C19.5813 20.7205 19.5751 20.7517 19.5715 20.7835L19.5152 21.2461C19.5149 21.2565 19.5149 21.2669 19.5152 21.2774L19.4839 21.8212C19.481 21.8399 19.4789 21.8586 19.4777 21.8775L19.4964 22.3963C19.4957 22.413 19.4957 22.4297 19.4964 22.4463L19.5527 22.8714C19.555 22.8988 19.5591 22.9259 19.5652 22.9527L19.6465 23.2652C19.6559 23.2997 19.6684 23.3331 19.684 23.3653L19.7777 23.559C19.8004 23.609 19.8296 23.6549 19.8653 23.6966L19.9653 23.8091C20.0152 23.864 20.0736 23.9078 20.1403 23.9404L20.2716 24.0091C20.3309 24.0386 20.3934 24.0573 20.4591 24.0654L20.6654 24.0966C20.7029 24.1003 20.7404 24.1003 20.7779 24.0966L21.103 24.0779C21.1219 24.0767 21.1406 24.0746 21.1593 24.0716L21.5718 24.0029C21.6038 23.9973 21.6351 23.9889 21.6656 23.9779L22.0907 23.8278C22.1169 23.8177 22.1419 23.8052 22.1657 23.7903L22.4783 23.6153L22.7846 23.5778C22.9636 23.5569 23.0428 23.4568 23.0219 23.2778C23.0011 23.0987 22.9012 23.0195 22.7221 23.0402L22.4158 23.0777L22.0782 22.9714C22.0517 22.9627 22.0246 22.9564 21.9969 22.9527L21.5468 22.9027C21.5158 22.8979 21.4845 22.8959 21.4531 22.8964L21.0405 22.9152C21.0384 22.9152 21.0363 22.9152 21.0342 22.9152L20.7592 22.9277H20.7092L20.7717 22.9589L20.7904 22.9777L20.7592 22.9152L20.7029 22.6964L20.6592 22.3401L20.6529 21.8712L20.6779 21.3461C20.6779 21.344 20.6779 21.342 20.6779 21.3399L20.7029 20.871C20.7034 20.8396 20.7013 20.8083 20.6967 20.7773L20.6592 20.4585C20.6527 20.413 20.6402 20.3692 20.6217 20.3272L20.5716 20.2084L20.5654 20.1646C20.5229 19.9161 20.3758 19.8004 20.1243 19.8174C19.8728 19.8345 19.7427 19.9689 19.734 20.2209Z" fill="black"/>
<path d="M20.553 20.3959L20.6593 20.4709C20.744 20.5363 20.8399 20.5718 20.9468 20.5772L21.2094 20.5834C21.2115 20.5834 21.2135 20.5834 21.2156 20.5834L21.6157 20.5959C21.622 20.596 21.6282 20.596 21.6345 20.5959L22.1345 20.5834C22.1366 20.5834 22.1387 20.5834 22.1408 20.5834L22.6784 20.5709L23.1722 20.5897L23.5598 20.6334L23.8661 20.6897L24.0974 20.7397L24.3475 20.7959L24.3662 20.8022C24.3159 20.6723 24.2284 20.5765 24.1037 20.5146L24.1287 20.5834C24.1307 20.51 24.1182 20.4391 24.0912 20.3709L24.0849 20.4834L24.0537 20.7084L23.9849 21.1335C23.9846 21.1439 23.9846 21.1543 23.9849 21.1648L23.9224 21.7524C23.9223 21.7565 23.9223 21.7607 23.9224 21.7649L23.8724 22.39C23.8719 22.4025 23.8719 22.415 23.8724 22.4275L23.8661 22.9964C23.8659 23.0047 23.8659 23.013 23.8661 23.0214L23.8786 23.4527C23.8819 23.5042 23.8924 23.5542 23.9099 23.6027L23.9912 23.859C24.015 23.9332 24.0546 23.9978 24.1099 24.0528L24.1787 24.1216C24.2681 24.2094 24.375 24.2469 24.4997 24.2342C24.6243 24.2215 24.7215 24.1631 24.7913 24.0591L24.8476 23.9778C24.8887 23.9149 24.9137 23.8461 24.9226 23.7715L24.9601 23.509C24.9645 23.48 24.9666 23.4508 24.9663 23.4214L24.9538 22.9964L24.9601 22.4588L25.0101 21.8586L25.0726 21.2835L25.1289 20.8585C25.129 20.8522 25.129 20.846 25.1289 20.8397L25.1539 20.5834C25.1562 20.5751 25.1582 20.5668 25.1601 20.5584L25.1664 20.4146C25.1687 20.3459 25.1583 20.2793 25.1351 20.2146L25.1164 20.1458C25.0637 19.995 24.9637 19.8887 24.8163 19.827L24.735 19.7895C24.7048 19.7762 24.6735 19.7658 24.6413 19.7582L24.335 19.6895L24.1037 19.6332C24.0954 19.6309 24.0871 19.6289 24.0787 19.627L23.7474 19.5582C23.7328 19.5576 23.7182 19.5576 23.7036 19.5582L23.2785 19.5019C23.2618 19.5012 23.2452 19.5012 23.2285 19.5019L22.7034 19.4832C22.693 19.4829 22.6826 19.4829 22.6722 19.4832L22.1158 19.4957C22.1137 19.4957 22.1116 19.4957 22.1095 19.4957L21.6094 19.5082C21.6074 19.5082 21.6053 19.5082 21.6032 19.5082L21.2031 19.5332C21.1969 19.5331 21.1906 19.5331 21.1844 19.5332L20.9218 19.552C20.8241 19.5622 20.7366 19.5976 20.6593 19.6582L20.553 19.7332C20.4419 19.8157 20.3863 19.9262 20.3863 20.0646C20.3863 20.203 20.4419 20.3134 20.553 20.3959ZM24.7225 23.859V23.8278C24.7225 23.6486 24.6329 23.559 24.4537 23.559C24.2745 23.559 24.1849 23.6486 24.1849 23.8278V23.859C24.1849 24.0382 24.2745 24.1278 24.4537 24.1278C24.6329 24.1278 24.7225 24.0382 24.7225 23.859Z" fill="black"/>
<path d="M20.8654 22.9401C20.8654 23.0454 20.9027 23.1353 20.9771 23.2097C21.0516 23.2842 21.1415 23.3214 21.2468 23.3214C21.3521 23.3214 21.442 23.2842 21.5164 23.2097C21.5909 23.1353 21.6281 23.0454 21.6281 22.9401C21.6281 22.8348 21.5909 22.7449 21.5164 22.6705C21.442 22.596 21.3521 22.5588 21.2468 22.5588C21.1415 22.5588 21.0516 22.596 20.9771 22.6705C20.9027 22.7449 20.8654 22.8348 20.8654 22.9401ZM21.5156 22.6526L21.4968 22.6338C21.3941 22.5311 21.2703 22.4866 21.1257 22.5004C20.981 22.5143 20.868 22.5814 20.7866 22.7018C20.7052 22.8221 20.685 22.952 20.726 23.0915C20.767 23.2309 20.8543 23.3291 20.9879 23.3863C21.1215 23.4434 21.2529 23.4386 21.382 23.3719C21.5111 23.3053 21.5911 23.2009 21.6218 23.0589L21.6281 23.0401C21.6616 22.8903 21.6241 22.7611 21.5156 22.6526ZM20.8342 22.5463L20.7967 22.5775C20.5348 22.7499 20.4577 22.9832 20.5654 23.2777L20.6029 23.3839C20.6565 23.5324 20.7524 23.6449 20.8905 23.7215L21.1092 23.8403C21.1529 23.8644 21.1987 23.8832 21.2468 23.8965L21.6031 23.9903C21.648 24.0037 21.6939 24.012 21.7406 24.0153L22.2345 24.0403C22.298 24.0441 22.3605 24.0379 22.422 24.0216L22.9471 23.8778C22.9663 23.8728 22.985 23.8665 23.0034 23.859L23.4722 23.6653L23.8973 23.6027C24.0765 23.5777 24.1536 23.4756 24.1286 23.2964C24.1036 23.1172 24.0015 23.0401 23.8223 23.0651L23.4097 23.1276L22.9471 23.0214L22.4345 22.8776C22.4221 22.873 22.4096 22.8689 22.397 22.8651L21.9282 22.7588L21.6406 22.6776L21.5093 22.6151L21.4468 22.5713C21.4721 22.5945 21.4992 22.6153 21.5281 22.6338L21.4906 22.6026C21.2863 22.4142 21.0675 22.3954 20.8342 22.5463Z" fill="black"/>
<path d="M22.0532 21.8212C22.0731 21.8729 22.1023 21.9187 22.1407 21.9587L22.1657 21.9837C22.1827 22.0042 22.2015 22.023 22.2219 22.04L22.3032 22.1025C22.3434 22.1321 22.3872 22.155 22.4345 22.1712L22.6283 22.24C22.6832 22.2573 22.7395 22.2656 22.7971 22.265L23.1471 22.2713C23.1763 22.2735 23.2055 22.2735 23.2346 22.2713L23.6972 22.2087C23.7377 22.2047 23.7773 22.1963 23.816 22.1837L24.3411 21.9962C24.3626 21.9894 24.3834 21.9811 24.4036 21.9712L24.8349 21.7399L25.2538 21.6774C25.3988 21.6317 25.4606 21.5336 25.4391 21.383C25.4175 21.2325 25.3308 21.1556 25.1788 21.1523L24.7599 21.2148L24.2848 21.1148C24.2621 21.111 24.2392 21.1089 24.2161 21.1085L23.6597 21.0773C23.6283 21.0768 23.597 21.0789 23.566 21.0835L23.0971 21.1335C23.0929 21.1335 23.0888 21.1335 23.0846 21.1335L22.7408 21.1773C22.7239 21.1807 22.7073 21.1848 22.6908 21.1898L22.4908 21.2336C22.4739 21.2368 22.4572 21.241 22.4407 21.2461L22.372 21.2711C22.2151 21.2971 22.1088 21.3847 22.0532 21.5336C22.0169 21.6295 22.0169 21.7253 22.0532 21.8212Z" fill="black"/>
<path d="M1.76215 24.7658L1.7434 24.7471C1.76893 24.7876 1.80018 24.823 1.83717 24.8534L1.82467 24.8283C1.79372 24.7825 1.75622 24.7429 1.71214 24.7096L1.64963 24.6596C1.68354 24.7125 1.72522 24.7583 1.77466 24.7971L1.7184 24.7096C1.65961 24.8934 1.68253 25.0663 1.78716 25.2284L1.83092 25.0846C1.83847 25.06 1.84472 25.035 1.84967 25.0096L1.90593 24.7408L2.03096 24.3595L2.33726 23.7969L2.94363 23.0155L3.8438 22.0841L4.96901 21.0964L6.17549 20.0774L7.36947 19.171L8.39467 18.4959L9.21357 18.1208C9.39694 18.0375 9.44695 17.9041 9.3636 17.7207C9.28025 17.5374 9.14689 17.4874 8.96352 17.5707L8.13212 17.9583L6.96314 18.4084C6.95894 18.4104 6.95477 18.4125 6.95064 18.4146L5.53787 19.0147C5.51645 19.024 5.49562 19.0344 5.47536 19.046L4.08135 19.8336C4.04857 19.8522 4.01732 19.873 3.98758 19.8962L2.7686 20.8401C2.7445 20.8596 2.72158 20.8805 2.69983 20.9026L1.7184 21.859C1.68924 21.8863 1.66215 21.9155 1.63713 21.9465L0.962002 22.8155C0.930894 22.8567 0.903805 22.9005 0.880736 22.9467L0.518168 23.6406C0.48774 23.7004 0.464819 23.7629 0.449404 23.8282L0.324381 24.3345C0.292915 24.4637 0.292915 24.5929 0.324381 24.7221L0.405646 25.0346C0.462165 25.2722 0.601775 25.4409 0.824476 25.541L0.955751 25.5972C1.02913 25.6313 1.10623 25.65 1.18704 25.6535H1.29332C1.39833 25.6562 1.49627 25.6312 1.58712 25.5785L1.66214 25.5347C1.75828 25.4766 1.82704 25.3954 1.86842 25.2909L1.88093 25.2659C1.81906 25.3142 1.77322 25.3746 1.7434 25.4472L1.76215 25.4285C1.868 25.3434 1.92092 25.2329 1.92092 25.0971C1.92092 24.9614 1.868 24.8509 1.76215 24.7658Z" fill="black"/>
<path d="M4.76894 21.1964L4.78144 21.1839C4.621 21.1309 4.47723 21.1601 4.35011 21.2714L4.39386 21.2839C4.53258 21.3288 4.66803 21.3204 4.80019 21.2589L5.06274 21.1338C5.09552 21.1176 5.12678 21.0989 5.15651 21.0776L5.62535 20.7588C5.63591 20.7528 5.64633 20.7465 5.6566 20.74L6.35674 20.2087L7.29442 19.571L8.42588 18.9334L9.68862 18.3646L10.9014 17.9332L11.9891 17.7394H12.858L13.4768 17.9395C13.6288 17.963 13.7295 17.902 13.7792 17.7566C13.8289 17.6111 13.7864 17.5012 13.6519 17.4269L12.9892 17.2081L12.0891 16.9018C12.0628 16.8908 12.0357 16.8824 12.0078 16.8768L10.8201 16.733C10.7722 16.7273 10.7242 16.7273 10.6763 16.733L9.31355 16.8893C9.24705 16.8955 9.18246 16.91 9.11976 16.933L7.76951 17.4706C7.73517 17.483 7.70183 17.4975 7.66949 17.5144L6.47551 18.1895C6.45185 18.203 6.42892 18.2175 6.40675 18.2333L5.43781 18.9147C5.41627 18.9283 5.39544 18.9428 5.3753 18.9584L4.69392 19.546C4.6547 19.58 4.61928 19.6175 4.58765 19.6586L4.23758 20.1086C4.19765 20.1623 4.1664 20.2207 4.14382 20.2837L4.03755 20.5587C3.97697 20.724 3.99156 20.8824 4.0813 21.0338L4.10006 21.0713C4.0916 21.0475 4.08118 21.0246 4.0688 21.0026L4.07505 21.0213C4.12688 21.1653 4.227 21.2561 4.37541 21.2935C4.52382 21.331 4.655 21.2986 4.76894 21.1964Z" fill="black"/>
</g>
<defs>
<clipPath id="clip0_1_7353">
<rect width="41" height="33" fill="white"/>
</clipPath>
</defs>
</svg>
